<?xml version="1.0" standalone="no"?>
<!DOCTYPE svg PUBLIC "-//W3C//DTD SVG 20010904//EN"
 "http://www.w3.org/TR/2001/REC-SVG-20010904/DTD/svg10.dtd">
<svg version="1.0" xmlns="http://www.w3.org/2000/svg"
 width="1606.000000pt" height="1466.000000pt" viewBox="0 0 1606.000000 1466.000000"
 preserveAspectRatio="xMidYMid meet">
<metadata>
Created by potrace 1.13, written by Peter Selinger 2001-2015
</metadata>
<g transform="translate(0.000000,1466.000000) scale(0.100000,-0.100000)"
fill="#000000" stroke="none">
<path d="M7160 8791 c-196 -35 -352 -87 -539 -180 -177 -88 -391 -247 -520
-388 -151 -164 -322 -459 -390 -674 -61 -193 -73 -276 -77 -504 -3 -190 -1
-223 22 -349 44 -240 102 -385 258 -641 99 -162 120 -191 225 -295 107 -107
210 -187 353 -277 307 -191 726 -285 1113 -249 217 20 451 90 614 183 284 163
368 222 481 340 107 110 158 174 230 283 237 362 336 773 289 1198 -10 89 -67
340 -88 387 -5 11 -19 45 -31 75 -111 274 -300 526 -544 725 -216 177 -466
291 -782 356 -147 30 -470 35 -614 10z"/>
</g>
</svg>
