<?xml version="1.0" standalone="no"?>
<!DOCTYPE svg PUBLIC "-//W3C//DTD SVG 20010904//EN"
 "http://www.w3.org/TR/2001/REC-SVG-20010904/DTD/svg10.dtd">
<svg version="1.0" xmlns="http://www.w3.org/2000/svg"
 width="744.000000pt" height="1053.000000pt" viewBox="0 0 744.000000 1053.000000"
 preserveAspectRatio="xMidYMid meet">
<metadata>
Created by potrace 1.13, written by Peter Selinger 2001-2015
</metadata>
<g transform="translate(0.000000,1053.000000) scale(0.100000,-0.100000)"
fill="#000000" stroke="none">
<path d="M3434 6146 c-321 -67 -552 -191 -765 -412 -296 -307 -434 -700 -399
-1134 16 -196 56 -341 140 -510 199 -398 522 -658 952 -766 84 -21 135 -27
278 -31 268 -8 440 27 668 137 164 79 255 144 387 275 207 205 339 450 402
745 26 121 25 440 -1 560 -122 561 -521 982 -1063 1119 -180 46 -426 53 -599
17z"/>
</g>
</svg>
