<?xml version="1.0" standalone="no"?>
<!DOCTYPE svg PUBLIC "-//W3C//DTD SVG 20010904//EN"
 "http://www.w3.org/TR/2001/REC-SVG-20010904/DTD/svg10.dtd">
<svg version="1.0" xmlns="http://www.w3.org/2000/svg"
 width="320.000000pt" height="320.000000pt" viewBox="0 0 320.000000 320.000000"
 preserveAspectRatio="xMidYMid meet">
<metadata>
Created by potrace 1.13, written by Peter Selinger 2001-2015
</metadata>
<g transform="translate(0.000000,320.000000) scale(0.100000,-0.100000)"
fill="#000000" stroke="none">
<path d="M1430 2895 c-261 -52 -505 -213 -662 -436 l-42 -60 -17 33 c-30 58
-42 149 -35 260 4 57 8 123 9 148 l2 45 -38 3 c-48 4 -73 -21 -140 -140 -59
-107 -63 -158 -17 -271 38 -95 38 -114 2 -121 -52 -11 -177 -25 -229 -26 -59
0 -92 -22 -72 -46 16 -19 102 -18 259 2 116 16 200 14 200 -4 0 -4 -28 -57
-61 -117 -84 -149 -104 -197 -123 -290 -39 -189 -29 -352 36 -555 54 -168 121
-281 247 -413 339 -355 821 -460 1277 -277 98 39 219 119 305 202 98 93 326
453 395 623 36 88 64 236 64 342 0 346 -189 703 -475 895 -98 66 -252 146
-330 172 -132 43 -417 59 -555 31z"/>
</g>
</svg>
