<svg xmlns="http://www.w3.org/2000/svg" id="1" width="1680" height="953">
    <rect width="100%" height="100%" fill="#fff"/>
    
<path d="M819 232 L821 232 L828 232 L836 232 L845 232 L854 232 L863 232 L871 232 L877 234 L884 237 L892 241 L903 246 L915 253 L928 261 L938 267 L950 275 L955 278 L965 286 L974 294 L981 301 L986 309 L990 316 L994 324 L998 336 L1000 352 L1003 365 L1004 379 L1004 392 L1004 406 L1004 420 L998 436 L996 439 L988 453 L978 466 L967 478 L955 492 L942 503 L929 514 L913 524 L895 533 L883 538 L864 544 L846 548 L822 551 L802 551 L786 551 L771 549 L759 542 L750 536 L738 525 L727 510 L715 492 L704 476 L696 463 L690 451 L687 443 L683 436 L682 431 L681 425 L679 419 L679 409 L678 399 L678 391 L678 382 L678 371 L678 364 L678 357 L678 355 L678 350 L679 345 L682 341 L685 334 L690 330 L694 324 L698 318 L703 313 L709 307 L716 302 L720 298 L724 294 L728 291 L731 289 L733 286 L736 284 L739 282 L741 279 L744 277 L747 274 L749 272 L752 270 L755 267 L758 265 L761 262 L763 260 L766 258 L768 256 L771 255 L774 252 L778 251 L782 250 L785 248 L790 246 L792 245 L796 244 L799 244 L801 243 L802 243 L804 243 L804 243 L805 243 L806 243 L807 243 L809 243 L814 241 L818 240 L821 239 L823 238 L824 237 L825 237 L825 236 L825 235" fill="none" stroke="#0064FF" stroke-width="1"/><path d="M927 265 L926 266 L921 273 L913 282 L905 290 L901 297 L895 304 L883 318 L876 326 L869 336 L862 345 L856 353 L850 359 L844 367 L838 375 L832 383 L824 393 L817 405 L808 418 L799 431 L790 442 L782 454 L774 466 L766 474 L758 485 L749 495 L740 504 L730 513 L726 517 L723 521 L720 523 L720 524 L720 523" fill="none" stroke="#0064FF" stroke-width="1"/></svg>