<?xml version="1.0" ?>
<svg baseProfile="full" height="600px" version="1.1" viewBox="616.615022882 539.907768374 4640.96339548 4721.45044957" width="590px" xmlns="http://www.w3.org/2000/svg" xmlns:ev="http://www.w3.org/2001/xml-events" xmlns:xlink="http://www.w3.org/1999/xlink">
	<defs/>
	<path d="M 1635.0,4863.0 C 1522.0,4847.0 1394.0,4796.0 1309.0,4733.0 C 1169.0,4629.0 1077.0,4491.0 1028.0,4310.0 L 1006.0,4225.0 L 1005.0,2910.0 C 1005.0,1664.0 1006.0,1591.0 1024.0,1515.0 C 1060.0,1360.0 1115.0,1256.0 1218.0,1152.0 C 1319.0,1050.0 1425.0,990.0 1570.0,954.0 C 1642.0,936.0 1704.0,935.0 2940.0,935.0 L 4235.0,935.0 L 4318.0,958.0 C 4469.0,999.0 4543.0,1041.0 4651.0,1149.0 C 4733.0,1230.0 4754.0,1258.0 4788.0,1330.0 C 4871.0,1505.0 4864.0,1372.0 4868.0,2865.0 C 4871.0,4321.0 4873.0,4267.0 4813.0,4419.0 C 4730.0,4629.0 4575.0,4768.0 4340.0,4844.0 C 4276.0,4864.0 4265.0,4865.0 2970.0,4866.0 C 2252.0,4867.0 1652.0,4865.0 1635.0,4863.0 L 1635.0,4863.0" fill="none" stroke="#000000" stroke-width="3.93126598632"/>
</svg>
