<?xml version="1.0" ?>
<svg baseProfile="full" height="600px" version="1.1" viewBox="-16.7265547363 -136.398835827 1534.1923613 1651.80618357" width="558px" xmlns="http://www.w3.org/2000/svg" xmlns:ev="http://www.w3.org/2001/xml-events" xmlns:xlink="http://www.w3.org/1999/xlink">
	<defs/>
	<path d="M 220.0,1366.0 C 220.0,1358.0 211.0,1350.0 200.0,1347.0 C 188.0,1344.0 180.0,1333.0 180.0,1321.0 C 180.0,1294.0 161.0,1261.0 132.0,1237.0 C 118.0,1225.0 110.0,1209.0 112.0,1196.0 C 115.0,1178.0 121.0,1175.0 153.0,1177.0 C 180.0,1179.0 190.0,1175.0 190.0,1165.0 C 190.0,1155.0 200.0,1150.0 219.0,1150.0 C 244.0,1150.0 248.0,1145.0 253.0,1118.0 C 256.0,1100.0 252.0,1046.0 244.0,997.0 C 218.0,847.0 236.0,582.0 274.0,544.0 C 283.0,536.0 290.0,524.0 290.0,519.0 C 290.0,514.0 299.0,510.0 310.0,510.0 C 323.0,510.0 330.0,503.0 330.0,490.0 C 330.0,469.0 365.0,461.0 372.0,481.0 C 374.0,487.0 395.0,478.0 420.0,458.0 C 445.0,440.0 476.0,417.0 490.0,408.0 C 504.0,400.0 536.0,372.0 562.0,347.0 C 587.0,322.0 617.0,299.0 627.0,296.0 C 647.0,290.0 680.0,193.0 680.0,140.0 C 680.0,114.0 674.0,107.0 644.0,94.0 C 611.0,80.0 608.0,76.0 614.0,48.0 C 617.0,31.0 620.0,13.0 620.0,8.0 C 620.0,-7.0 687.0,7.0 739.0,32.0 C 770.0,47.0 785.0,50.0 788.0,42.0 C 790.0,35.0 810.0,30.0 832.0,30.0 C 863.0,30.0 873.0,34.0 877.0,50.0 C 881.0,66.0 891.0,70.0 921.0,70.0 C 952.0,70.0 960.0,74.0 960.0,88.0 C 960.0,111.0 941.0,130.0 919.0,130.0 C 910.0,130.0 900.0,138.0 897.0,147.0 C 893.0,157.0 882.0,190.0 870.0,220.0 C 859.0,250.0 850.0,275.0 850.0,276.0 C 850.0,282.0 922.0,292.0 953.0,290.0 C 983.0,289.0 990.0,292.0 990.0,307.0 C 990.0,340.0 1019.0,370.0 1051.0,370.0 C 1067.0,370.0 1089.0,379.0 1099.0,389.0 C 1109.0,399.0 1137.0,411.0 1161.0,415.0 C 1221.0,425.0 1259.0,446.0 1265.0,473.0 C 1269.0,485.0 1286.0,502.0 1303.0,511.0 C 1325.0,522.0 1339.0,539.0 1348.0,566.0 C 1355.0,587.0 1367.0,610.0 1375.0,616.0 C 1396.0,632.0 1393.0,657.0 1369.0,663.0 L 1349.0,668.0 L 1369.0,709.0 C 1395.0,760.0 1395.0,780.0 1370.0,787.0 C 1356.0,791.0 1350.0,801.0 1350.0,820.0 C 1350.0,865.0 1323.0,908.0 1289.0,915.0 C 1263.0,921.0 1253.0,917.0 1228.0,891.0 C 1208.0,871.0 1188.0,860.0 1170.0,860.0 C 1144.0,860.0 1061.0,803.0 1052.0,779.0 C 1050.0,774.0 1041.0,770.0 1033.0,770.0 C 1021.0,770.0 1019.0,763.0 1023.0,740.0 C 1028.0,717.0 1025.0,708.0 1011.0,700.0 C 995.0,692.0 984.0,698.0 951.0,730.0 C 926.0,755.0 910.0,779.0 910.0,794.0 C 910.0,818.0 866.0,870.0 846.0,870.0 C 839.0,870.0 819.0,881.0 800.0,895.0 C 781.0,909.0 759.0,920.0 750.0,920.0 C 727.0,920.0 670.0,949.0 670.0,961.0 C 670.0,966.0 664.0,970.0 658.0,970.0 C 651.0,970.0 626.0,983.0 602.0,998.0 C 558.0,1028.0 516.0,1086.0 473.0,1176.0 C 445.0,1236.0 385.0,1310.0 365.0,1310.0 C 357.0,1310.0 347.0,1325.0 342.0,1343.0 C 334.0,1374.0 332.0,1375.0 277.0,1377.0 C 235.0,1378.0 220.0,1375.0 220.0,1366.0 L 220.0,1366.0" fill="none" stroke="#000000" stroke-width="1.37535902046"/>
</svg>
