<svg xmlns="http://www.w3.org/2000/svg" id="1" width="1680" height="953">
    <rect width="100%" height="100%" fill="#fff"/>
    
<path d="M669 513 L671 513 L675 513 L684 513 L699 513 L710 513 L725 513 L734 513 L743 513 L751 513 L756 513 L761 513 L765 513 L768 513 L771 513 L772 513 L773 513 L774 513 L775 513 L776 512 L777 512 L778 512 L778 511 L778 510" fill="none" stroke="#0064FF" stroke-width="1"/><path d="M778 510 L778 509 L778 506 L778 505 L779 502 L781 498 L783 495 L785 491 L788 487 L790 485 L792 482 L794 479 L795 477 L797 476 L799 474 L800 473 L802 472 L805 472 L807 471 L810 471 L813 471 L817 471 L823 471 L829 471 L833 471 L837 471 L841 471 L844 471 L848 472 L851 473 L854 474 L857 476 L859 476 L861 477 L862 478 L863 479 L865 480 L866 481 L867 482 L868 483 L869 484 L870 486 L871 487 L871 488 L872 489 L873 491 L874 491 L874 491 L874 492 L875 494 L876 496 L876 499 L877 500 L878 500 L878 499" fill="none" stroke="#0064FF" stroke-width="1"/><path d="M878 499 L879 499 L883 499 L894 499 L902 499 L913 499 L918 499 L923 499 L926 499 L929 499 L931 499 L934 499 L935 499 L936 499 L937 499 L938 499 L939 499 L941 499 L945 499 L948 500 L953 501 L956 501 L959 501 L961 501 L963 501 L965 501 L967 500 L969 499 L970 499 L972 499 L974 498 L975 498 L976 498 L977 498 L977 500 L976 505 L975 514 L974 524 L974 531 L973 538 L973 542 L972 544 L972 546 L972 547 L972 549 L972 552 L972 558 L972 563 L972 568 L972 571 L972 572 L973 574 L973 573 L973 572 L972 572 L969 571 L963 571 L957 571 L950 571 L941 571 L934 571 L923 571 L917 571 L911 571 L906 571 L901 571 L897 571 L894 571 L891 571 L889 571 L888 571 L887 571 L886 571 L885 571 L884 571 L885 570" fill="none" stroke="#0064FF" stroke-width="1"/><path d="M886 570 L886 570 L886 576 L886 584 L886 591 L886 599 L886 604 L886 609 L885 611 L883 615 L880 618 L876 621 L873 624 L869 625 L864 627 L860 628 L856 630 L852 630 L847 630 L843 630 L840 630 L837 629 L835 628 L832 625 L828 622 L825 618 L821 614 L817 609 L813 603 L808 598 L804 592 L802 588 L799 585 L798 583 L798 582" fill="none" stroke="#0064FF" stroke-width="1"/><path d="M798 582 L797 582 L791 582 L782 582 L769 582 L751 582 L734 582 L723 582 L711 582 L703 582 L699 582 L698 582 L697 582 L691 582 L684 582 L677 583 L669 584 L666 584 L663 584 L662 584 L661 585 L661 586 L660 586 L660 586 L659 586 L660 584 L663 575 L667 559 L670 543 L672 530 L674 519 L675 512 L675 507 L675 506" fill="none" stroke="#0064FF" stroke-width="1"/></svg>