<?xml version="1.0" standalone="no"?>
<!DOCTYPE svg PUBLIC "-//W3C//DTD SVG 20010904//EN"
 "http://www.w3.org/TR/2001/REC-SVG-20010904/DTD/svg10.dtd">
<svg version="1.0" xmlns="http://www.w3.org/2000/svg"
 width="256.000000pt" height="256.000000pt" viewBox="0 0 256.000000 256.000000"
 preserveAspectRatio="xMidYMid meet">
<metadata>
Created by potrace 1.13, written by Peter Selinger 2001-2015
</metadata>
<g transform="translate(0.000000,256.000000) scale(0.100000,-0.100000)"
fill="#000000" stroke="none">
<path d="M1445 2413 c-11 -2 -29 -8 -40 -12 -11 -5 -38 -14 -61 -20 -22 -6
-56 -21 -75 -34 -43 -29 -101 -124 -123 -201 -13 -43 -20 -56 -27 -45 -5 8 -9
22 -9 32 0 24 -26 74 -61 117 -16 19 -29 40 -29 47 0 14 -48 53 -66 53 -23 0
-16 -18 25 -63 59 -64 111 -182 111 -251 l0 -56 -79 0 c-459 0 -847 -326 -926
-779 -90 -513 266 -1002 785 -1080 46 -7 163 -10 305 -7 192 3 243 7 307 24
293 79 524 268 644 526 59 129 79 223 79 381 0 158 -20 252 -79 381 -140 301
-437 511 -780 549 l-60 7 45 36 c87 71 149 142 179 207 16 35 30 68 30 72 0 4
9 19 20 33 22 28 26 60 8 78 -11 11 -81 14 -123 5z"/>
</g>
</svg>
