<?xml version="1.0" standalone="no"?>
<!DOCTYPE svg PUBLIC "-//W3C//DTD SVG 20010904//EN"
 "http://www.w3.org/TR/2001/REC-SVG-20010904/DTD/svg10.dtd">
<svg version="1.0" xmlns="http://www.w3.org/2000/svg"
 width="256.000000pt" height="256.000000pt" viewBox="0 0 256.000000 256.000000"
 preserveAspectRatio="xMidYMid meet">
<metadata>
Created by potrace 1.13, written by Peter Selinger 2001-2015
</metadata>
<g transform="translate(0.000000,256.000000) scale(0.100000,-0.100000)"
fill="#000000" stroke="none">
<path d="M770 2177 c-34 -17 -36 -55 -7 -114 41 -79 106 -125 208 -146 l64
-13 -97 -7 c-423 -31 -776 -299 -875 -667 -24 -89 -24 -281 0 -370 83 -307
337 -544 685 -638 94 -25 105 -26 387 -26 282 0 293 1 387 26 231 63 439 199
556 366 l41 58 -29 -4 c-37 -5 -77 35 -86 87 -9 56 -11 60 -49 82 -51 30 -79
89 -72 153 3 38 0 60 -14 86 -23 42 -24 104 -4 144 11 21 14 43 9 72 -7 49 8
104 36 129 11 10 20 29 20 42 0 40 36 99 70 113 l31 13 -38 40 c-109 113 -297
219 -468 263 -72 18 -138 27 -236 31 l-136 6 -6 96 c-7 114 -22 171 -44 171
-13 0 -14 -7 -9 -37 4 -21 10 -74 13 -118 l6 -80 -37 70 c-20 39 -56 89 -78
112 -63 64 -166 91 -228 60z"/>
</g>
</svg>
