<?xml version="1.0" standalone="no"?>
<!DOCTYPE svg PUBLIC "-//W3C//DTD SVG 20010904//EN"
 "http://www.w3.org/TR/2001/REC-SVG-20010904/DTD/svg10.dtd">
<svg version="1.0" xmlns="http://www.w3.org/2000/svg"
 width="256.000000pt" height="256.000000pt" viewBox="0 0 256.000000 256.000000"
 preserveAspectRatio="xMidYMid meet">
<metadata>
Created by potrace 1.13, written by Peter Selinger 2001-2015
</metadata>
<g transform="translate(0.000000,256.000000) scale(0.100000,-0.100000)"
fill="#000000" stroke="none">
<path d="M546 2426 c-54 -20 -110 -68 -114 -98 -5 -40 87 -171 150 -212 61
-40 102 -52 213 -60 44 -4 103 -12 130 -18 82 -19 208 -62 212 -73 2 -6 -41
-10 -115 -11 -137 0 -218 -18 -340 -75 -254 -117 -437 -347 -509 -635 -23 -96
-23 -342 0 -438 72 -288 255 -518 509 -635 128 -60 202 -75 353 -76 98 0 146
5 195 19 48 14 92 18 170 17 127 -3 218 11 327 48 314 108 539 378 598 720 78
444 -180 888 -598 1032 -166 57 -304 63 -495 23 l-32 -6 0 56 c0 68 20 120 52
137 67 36 201 47 330 25 65 -10 78 -10 83 2 7 20 8 19 -27 32 -50 18 -269 25
-335 11 -68 -16 -119 -59 -148 -126 l-22 -49 -7 56 c-14 113 -123 238 -265
306 -69 32 -85 36 -176 39 -69 2 -112 -1 -139 -11z"/>
</g>
</svg>
