<?xml version="1.0" standalone="no"?>
<!DOCTYPE svg PUBLIC "-//W3C//DTD SVG 20010904//EN"
 "http://www.w3.org/TR/2001/REC-SVG-20010904/DTD/svg10.dtd">
<svg version="1.0" xmlns="http://www.w3.org/2000/svg"
 width="256.000000pt" height="256.000000pt" viewBox="0 0 256.000000 256.000000"
 preserveAspectRatio="xMidYMid meet">
<metadata>
Created by potrace 1.13, written by Peter Selinger 2001-2015
</metadata>
<g transform="translate(0.000000,256.000000) scale(0.100000,-0.100000)"
fill="#000000" stroke="none">
<path d="M704 2477 c-27 -19 -51 -42 -52 -51 -5 -22 35 -66 58 -66 9 0 30 -7
46 -15 16 -8 57 -21 90 -30 34 -8 84 -27 113 -40 28 -14 55 -25 61 -25 5 0 14
-8 19 -19 9 -17 4 -19 -77 -24 -251 -17 -470 -147 -619 -367 -317 -468 -150
-1155 337 -1384 113 -53 180 -68 320 -72 69 -2 168 -7 220 -10 216 -15 427 69
588 233 344 351 362 950 40 1333 -98 116 -254 217 -393 255 -79 21 -227 30
-292 17 l-53 -9 6 56 c9 78 26 106 85 144 36 22 149 41 210 35 42 -4 49 -3 47
11 -3 14 -20 16 -113 15 -125 0 -168 -15 -223 -78 l-30 -35 -10 28 c-13 38
-86 94 -146 115 -27 9 -80 16 -117 16 -59 0 -72 -4 -115 -33z"/>
</g>
</svg>
