<?xml version="1.0" standalone="no"?>
<!DOCTYPE svg PUBLIC "-//W3C//DTD SVG 20010904//EN"
 "http://www.w3.org/TR/2001/REC-SVG-20010904/DTD/svg10.dtd">
<svg version="1.0" xmlns="http://www.w3.org/2000/svg"
 width="256.000000pt" height="256.000000pt" viewBox="0 0 256.000000 256.000000"
 preserveAspectRatio="xMidYMid meet">
<metadata>
Created by potrace 1.13, written by Peter Selinger 2001-2015
</metadata>
<g transform="translate(0.000000,256.000000) scale(0.100000,-0.100000)"
fill="#000000" stroke="none">
<path d="M1444 2489 c-33 -17 -71 -42 -86 -56 -39 -37 -70 -118 -76 -196 l-5
-68 -35 63 c-55 100 -135 168 -197 168 -38 0 -30 -25 14 -40 21 -7 55 -29 75
-50 43 -44 114 -193 123 -256 l6 -44 -70 0 c-39 0 -110 -7 -159 -15 -402 -69
-712 -344 -816 -722 -31 -112 -31 -344 0 -456 104 -378 414 -653 816 -722 121
-20 520 -21 637 0 384 67 678 349 776 743 23 93 23 341 0 434 -112 453 -491
758 -940 758 l-80 0 44 43 c24 23 61 67 81 97 34 50 39 66 54 175 21 156 15
175 -55 175 -35 0 -65 -9 -107 -31z"/>
</g>
</svg>
