<?xml version="1.0" standalone="no"?>
<!DOCTYPE svg PUBLIC "-//W3C//DTD SVG 20010904//EN"
 "http://www.w3.org/TR/2001/REC-SVG-20010904/DTD/svg10.dtd">
<svg version="1.0" xmlns="http://www.w3.org/2000/svg"
 width="256.000000pt" height="256.000000pt" viewBox="0 0 256.000000 256.000000"
 preserveAspectRatio="xMidYMid meet">
<metadata>
Created by potrace 1.13, written by Peter Selinger 2001-2015
</metadata>
<g transform="translate(0.000000,256.000000) scale(0.100000,-0.100000)"
fill="#000000" stroke="none">
<path d="M884 2476 c-38 -17 -56 -59 -52 -117 3 -44 3 -44 38 -41 107 9 156 5
195 -15 54 -28 79 -57 109 -126 31 -68 31 -70 9 -59 -45 22 -176 44 -245 41
-66 -4 -80 -8 -138 -46 -120 -77 -134 -94 -178 -206 -56 -144 -65 -202 -60
-359 4 -109 10 -148 33 -218 63 -195 191 -345 329 -385 43 -13 90 -16 189 -14
112 2 137 0 167 -16 45 -23 247 -33 343 -16 147 26 275 108 321 205 80 171 97
400 47 616 -52 217 -78 265 -168 309 -26 13 -57 32 -68 42 -68 61 -333 87
-424 41 -25 -12 -49 -22 -54 -22 -12 0 2 106 20 152 16 40 134 158 158 158 8
0 15 6 15 14 0 12 -7 12 -36 5 -100 -28 -159 -72 -201 -152 l-17 -32 -11 74
c-11 70 -14 77 -58 117 -67 60 -186 83 -263 50z"/>
</g>
</svg>
