<?xml version="1.0" standalone="no"?>
<!DOCTYPE svg PUBLIC "-//W3C//DTD SVG 20010904//EN"
 "http://www.w3.org/TR/2001/REC-SVG-20010904/DTD/svg10.dtd">
<svg version="1.0" xmlns="http://www.w3.org/2000/svg"
 width="256.000000pt" height="256.000000pt" viewBox="0 0 256.000000 256.000000"
 preserveAspectRatio="xMidYMid meet">
<metadata>
Created by potrace 1.13, written by Peter Selinger 2001-2015
</metadata>
<g transform="translate(0.000000,256.000000) scale(0.100000,-0.100000)"
fill="#000000" stroke="none">
<path d="M1392 2252 c-44 -19 -84 -48 -137 -99 -40 -40 -76 -73 -78 -73 -3 0
-8 11 -11 25 -7 29 -73 105 -90 105 -6 0 -20 -7 -30 -15 -18 -14 -17 -16 22
-59 41 -45 68 -112 57 -145 -5 -16 -22 -19 -128 -24 -257 -12 -467 -105 -638
-283 -81 -85 -118 -140 -169 -246 -66 -138 -83 -219 -83 -393 0 -174 17 -255
83 -394 52 -109 111 -190 196 -272 85 -81 140 -118 246 -169 128 -61 221 -82
368 -82 440 -1 498 4 637 51 418 144 676 588 598 1032 -74 426 -401 732 -820
767 l-90 7 52 33 c51 33 193 180 193 199 0 6 -9 22 -21 37 -27 34 -74 34 -157
-2z"/>
</g>
</svg>
