<?xml version="1.0" standalone="no"?>
<!DOCTYPE svg PUBLIC "-//W3C//DTD SVG 20010904//EN"
 "http://www.w3.org/TR/2001/REC-SVG-20010904/DTD/svg10.dtd">
<svg version="1.0" xmlns="http://www.w3.org/2000/svg"
 width="612.000000pt" height="403.000000pt" viewBox="0 0 612.000000 403.000000"
 preserveAspectRatio="xMidYMid meet">
<metadata>
Created by potrace 1.13, written by Peter Selinger 2001-2015
</metadata>
<g transform="translate(0.000000,403.000000) scale(0.100000,-0.100000)"
fill="#000000" stroke="none">
<path d="M5767 4003 c-4 -4 -40 -12 -80 -19 -39 -6 -112 -19 -162 -28 -204
-38 -381 -66 -421 -66 -25 0 -51 -7 -65 -18 -13 -11 -37 -22 -53 -26 -16 -4
-101 -56 -190 -115 -88 -59 -187 -123 -218 -142 -32 -18 -58 -37 -58 -41 0 -5
-5 -8 -11 -8 -10 0 -192 -130 -231 -164 -10 -9 -21 -16 -25 -16 -5 0 -17 -12
-28 -27 -39 -51 -127 -133 -151 -139 -13 -3 -21 -10 -18 -15 3 -5 2 -9 -3 -9
-4 0 -26 -16 -48 -35 -22 -19 -47 -35 -55 -35 -8 0 -28 -26 -44 -60 -26 -55
-28 -66 -22 -132 18 -176 2 -281 -70 -483 -34 -96 -142 -329 -179 -390 -17
-27 -42 -72 -55 -99 -32 -63 -75 -106 -106 -106 -23 0 -24 2 -17 38 15 71 7
360 -12 452 -21 101 -41 127 -101 136 -39 5 -51 2 -100 -27 -57 -35 -151 -126
-245 -238 -91 -106 -90 -106 -87 -196 2 -47 -1 -81 -7 -83 -5 -2 -17 32 -25
75 -15 75 -16 77 -48 84 -17 3 -38 11 -44 16 -7 6 -38 16 -68 23 -30 7 -65 18
-77 26 -12 7 -67 16 -125 20 l-104 7 -33 -38 c-32 -37 -32 -39 -28 -114 2 -42
9 -94 14 -116 9 -38 64 -155 84 -179 5 -6 28 -37 50 -70 l40 -58 -28 6 c-61
14 -356 103 -548 165 -109 35 -211 65 -285 85 -30 8 -75 23 -100 35 -54 25
-87 26 -165 5 -33 -8 -96 -21 -139 -29 -44 -8 -82 -18 -85 -23 -3 -5 -28 -17
-56 -26 -83 -27 -330 -186 -470 -303 -39 -32 -97 -78 -130 -103 -33 -25 -70
-55 -83 -68 -13 -12 -26 -22 -30 -22 -4 0 -13 -13 -20 -28 -6 -16 -21 -38 -32
-49 -10 -12 -36 -47 -56 -80 -20 -32 -53 -77 -73 -99 -56 -64 -101 -129 -101
-145 0 -8 -16 -45 -35 -82 -19 -37 -35 -78 -35 -90 0 -13 -3 -27 -7 -31 -18
-18 -44 -107 -50 -168 -7 -78 -1 -83 67 -48 22 11 44 20 49 20 6 0 24 13 40
29 17 16 46 35 65 42 20 7 36 16 36 20 0 7 88 40 155 57 110 30 153 35 251 29
122 -8 204 -35 236 -78 29 -39 46 -37 87 11 27 32 47 43 105 61 39 11 82 25
96 29 14 5 63 14 110 20 180 24 383 -16 515 -100 17 -11 43 -27 60 -36 16 -9
35 -23 43 -30 7 -8 17 -14 21 -14 17 0 149 -127 157 -152 7 -22 54 -25 54 -3
0 8 7 15 15 15 8 0 15 9 15 20 0 11 -5 20 -11 20 -5 0 -2 14 8 31 21 36 146
169 159 169 5 0 19 11 32 25 33 34 202 97 202 74 0 -5 9 -9 20 -9 11 0 20 6
20 14 0 32 230 21 292 -14 10 -6 27 -10 38 -10 12 0 40 -9 63 -19 23 -11 68
-28 99 -38 31 -11 63 -24 70 -29 7 -5 31 -18 53 -29 22 -11 46 -26 53 -32 7
-7 20 -13 27 -13 8 0 38 -14 67 -32 46 -27 66 -33 148 -39 106 -8 251 -33 280
-49 10 -5 27 -10 38 -10 21 0 175 -78 180 -92 5 -12 52 -10 52 2 0 17 57 11
153 -16 180 -50 306 -142 365 -266 26 -54 52 -73 67 -48 3 6 0 45 -9 88 -26
134 -27 174 -11 296 14 112 43 196 67 196 16 0 8 86 -11 121 -39 73 -54 246
-22 257 6 2 11 26 11 52 0 27 6 64 14 82 8 18 19 80 26 138 12 115 46 217 104
317 18 32 37 68 40 81 4 12 11 22 15 22 4 0 16 18 27 40 10 22 22 40 27 40 4
0 7 6 7 14 0 8 11 28 25 44 14 17 25 35 25 41 0 7 7 14 15 17 8 4 15 11 15 17
0 15 143 152 190 182 22 14 48 25 58 25 20 0 19 -9 37 305 3 48 41 202 57 230
11 19 38 72 89 178 12 26 26 47 31 47 4 0 8 6 8 13 0 27 143 180 179 192 21 6
30 48 13 59 -5 3 -5 31 -1 63 26 201 34 245 54 308 23 70 45 126 55 135 3 3
23 34 45 70 42 69 121 154 153 164 11 4 32 18 48 31 16 14 37 25 47 25 27 0
23 54 -5 68 -47 24 -303 44 -321 25z"/>
<path d="M5700 3140 c0 -15 7 -20 25 -20 18 0 25 5 25 20 0 15 -7 20 -25 20
-18 0 -25 -5 -25 -20z"/>
</g>
</svg>
