<?xml version="1.0" standalone="no"?>
<!DOCTYPE svg PUBLIC "-//W3C//DTD SVG 20010904//EN"
 "http://www.w3.org/TR/2001/REC-SVG-20010904/DTD/svg10.dtd">
<svg version="1.0" xmlns="http://www.w3.org/2000/svg"
 width="729.000000pt" height="703.000000pt" viewBox="0 0 729.000000 703.000000"
 preserveAspectRatio="xMidYMid meet">
<metadata>
Created by potrace 1.13, written by Peter Selinger 2001-2015
</metadata>
<g transform="translate(0.000000,703.000000) scale(0.100000,-0.100000)"
fill="#000000" stroke="none">
<path d="M2145 4690 c-4 -6 -10 -8 -15 -5 -5 3 -14 -3 -20 -14 -8 -16 -6 -23
12 -35 12 -9 17 -16 10 -16 -19 0 -39 -23 -34 -38 2 -8 -12 -5 -43 8 -70 30
-140 44 -267 52 -21 1 -38 4 -38 7 0 6 -23 8 -263 15 -82 2 -151 7 -154 10 -3
3 -14 1 -24 -4 -10 -6 -20 -7 -23 -2 -5 9 -117 9 -132 0 -11 -7 -47 -16 -98
-23 -15 -2 -34 -10 -42 -16 -8 -6 -14 -9 -14 -6 0 4 -18 0 -40 -8 -22 -8 -61
-15 -87 -17 -26 -2 -51 -6 -54 -11 -3 -4 -19 -9 -35 -12 -59 -8 -78 -15 -87
-30 -4 -8 -12 -13 -18 -10 -5 4 -9 2 -9 -2 0 -11 -60 -34 -71 -27 -5 3 -9 0
-9 -5 0 -6 -7 -11 -16 -11 -9 0 -25 -12 -36 -26 -11 -14 -26 -23 -33 -20 -8 2
-16 -2 -19 -10 -3 -9 -10 -12 -16 -9 -5 3 -10 2 -10 -4 0 -5 -10 -13 -22 -17
-12 -3 -28 -12 -35 -18 -23 -18 -83 -86 -83 -93 0 -4 48 -23 70 -28 8 -2 16
-4 18 -5 1 -2 7 -4 12 -5 6 -1 12 -4 15 -5 14 -7 65 -4 65 4 0 5 7 3 15 -4 8
-7 15 -10 15 -6 0 3 16 0 35 -8 22 -10 35 -11 35 -4 0 7 5 6 15 -2 8 -7 15 -9
15 -5 0 4 7 2 15 -5 8 -7 15 -9 15 -6 0 4 10 1 23 -6 12 -6 28 -13 36 -14 8
-2 17 -6 20 -11 3 -4 14 -9 24 -11 10 -2 27 -11 38 -20 11 -9 22 -16 24 -15
12 7 163 -105 164 -120 1 -5 14 -21 29 -35 45 -43 77 -103 78 -148 2 -62 7
-65 80 -58 44 3 70 1 80 -7 8 -6 14 -9 14 -5 0 4 11 -1 24 -10 14 -8 27 -14
30 -12 3 2 14 -4 24 -13 10 -9 25 -15 34 -13 8 1 28 -9 43 -22 16 -13 34 -24
42 -24 7 0 13 -4 13 -9 0 -5 13 -14 29 -20 16 -7 50 -33 77 -59 26 -26 52 -46
57 -44 5 1 6 -1 3 -6 -3 -5 3 -15 12 -23 21 -18 61 -71 62 -81 0 -4 12 -19 25
-34 14 -15 22 -30 19 -35 -3 -5 0 -9 5 -9 6 0 11 -8 11 -19 0 -10 7 -24 15
-31 8 -7 12 -16 9 -22 -3 -5 0 -15 6 -23 10 -12 17 -38 22 -82 1 -7 5 -13 11
-13 5 0 7 -6 4 -12 -2 -7 2 -28 10 -46 7 -18 11 -37 8 -42 -3 -5 0 -12 6 -16
8 -4 7 -9 -2 -15 -9 -6 -10 -9 -2 -9 6 0 12 -8 12 -17 -1 -10 0 -38 1 -63 1
-25 0 -51 -1 -58 -6 -21 29 -41 40 -23 6 9 11 10 15 2 10 -15 25 -5 36 23 4
13 14 23 22 24 19 1 73 10 73 12 0 8 217 17 235 10 3 -1 12 -3 20 -5 8 -2 34
-10 58 -19 23 -8 42 -12 42 -9 0 3 8 -4 19 -15 10 -12 22 -18 26 -14 5 4 5 2
2 -4 -11 -19 20 -39 37 -25 8 7 16 8 18 4 5 -14 98 -86 98 -77 0 5 12 -9 26
-30 14 -21 35 -47 45 -57 10 -10 21 -30 25 -44 3 -14 10 -25 15 -25 13 0 49
-62 43 -72 -3 -4 0 -8 5 -8 6 0 11 -7 11 -15 0 -8 3 -15 8 -15 4 0 15 -17 25
-37 9 -21 21 -45 26 -53 30 -53 41 -81 36 -89 -3 -6 3 -14 12 -20 12 -7 13
-10 4 -11 -11 0 -11 -3 -1 -15 7 -8 9 -15 4 -15 -5 0 -1 -5 9 -11 9 -5 17 -17
17 -25 0 -8 4 -22 10 -32 11 -21 54 -115 55 -122 0 -3 4 -11 8 -17 5 -7 5 -14
0 -15 -24 -4 -39 -3 -44 5 -7 9 -88 -30 -90 -44 -4 -36 -1 -59 8 -71 6 -7 13
-22 17 -33 7 -23 71 -69 98 -71 19 -1 108 77 108 95 0 18 35 16 58 -4 13 -11
36 -41 52 -67 17 -27 34 -48 40 -48 5 0 10 -8 10 -18 0 -10 3 -22 8 -26 4 -4
7 -11 8 -14 0 -4 7 -23 16 -42 8 -19 20 -52 27 -72 7 -21 18 -39 24 -39 27 -3
33 -5 55 -19 12 -8 22 -20 22 -27 0 -7 5 -13 10 -13 6 0 10 -7 10 -15 0 -8 5
-15 10 -15 6 0 10 -5 10 -11 0 -6 6 -17 13 -24 6 -8 17 -20 22 -27 16 -19 48
-91 48 -105 0 -7 4 -13 9 -13 5 0 8 -6 6 -12 -1 -7 3 -23 10 -36 10 -18 10
-22 0 -22 -9 0 -10 -3 -2 -8 10 -7 25 -54 24 -77 -3 -74 -9 -117 -19 -149 -11
-32 -11 -40 0 -51 11 -11 17 -11 29 -2 16 13 45 67 42 80 -1 4 2 7 7 7 5 0 14
14 21 30 7 17 16 30 21 30 5 0 9 7 9 15 0 8 4 15 10 15 5 0 9 4 7 8 -3 11 49
72 61 72 6 0 12 7 16 15 3 8 17 20 31 27 14 6 25 15 25 19 0 14 34 49 47 49 7
0 13 4 13 9 0 10 61 33 91 35 28 2 69 64 75 114 2 13 8 30 15 38 6 8 8 14 3
14 -4 0 2 10 14 23 11 12 20 25 19 28 -4 12 47 71 73 84 21 11 27 10 38 -1 7
-7 12 -16 12 -19 -1 -4 12 -16 27 -28 34 -26 53 -49 47 -59 -2 -4 1 -10 8 -14
19 -12 57 -14 64 -3 3 5 10 7 15 4 5 -4 9 -1 9 4 0 6 6 11 14 11 33 0 68 118
38 128 -7 2 -10 8 -7 12 5 9 -50 43 -60 38 -2 -2 -13 5 -24 14 -11 9 -23 13
-28 10 -4 -4 1 4 12 18 29 35 105 109 105 101 1 -3 11 6 23 20 20 25 78 61 93
58 4 0 10 3 13 8 8 11 71 45 71 38 0 -3 11 2 25 11 14 9 25 13 25 9 0 -4 7 -2
15 5 8 6 19 9 25 5 5 -3 10 -2 10 3 0 12 49 34 60 27 5 -3 15 1 23 9 8 8 17
12 21 9 3 -3 12 0 20 6 8 7 20 10 26 6 5 -3 10 -2 10 4 0 5 19 12 43 16 23 4
44 11 47 15 3 5 23 10 45 12 22 2 46 7 52 11 6 4 15 2 19 -4 4 -7 9 -8 13 -1
8 13 90 22 96 12 3 -5 20 -5 38 0 18 4 43 3 56 -2 13 -5 26 -6 29 -3 3 3 14
-3 24 -12 18 -16 20 -15 43 10 14 14 25 28 25 31 0 9 70 78 70 69 0 -4 9 6 20
23 11 17 31 36 44 44 14 7 27 23 31 37 3 13 10 21 15 18 6 -3 10 -1 10 4 0 6
5 11 11 11 6 0 17 6 24 12 29 26 40 34 58 41 9 3 17 11 17 17 0 5 7 10 15 10
8 0 15 4 15 9 0 5 15 13 33 16 17 4 41 14 52 21 11 8 27 14 37 14 10 0 18 5
18 10 0 6 6 10 13 10 7 0 32 9 55 20 24 12 47 18 51 15 5 -3 11 -1 13 5 2 6
22 12 45 14 23 3 50 9 60 14 22 11 153 10 171 -1 7 -5 12 -3 12 7 0 8 4 16 9
18 5 2 11 9 13 17 3 13 48 65 58 66 3 0 31 27 63 59 31 32 57 54 57 50 0 -5 8
2 18 16 9 14 24 26 32 28 8 2 17 8 18 13 2 5 8 9 14 9 5 0 25 12 44 26 19 15
34 22 34 18 0 -5 4 -4 8 1 12 17 52 36 62 30 6 -4 10 -2 10 2 0 5 8 9 18 10 9
1 31 7 47 14 44 18 56 21 93 23 17 0 32 5 32 10 0 5 7 3 15 -4 8 -7 15 -8 15
-2 0 5 18 8 43 5 23 -3 60 -6 82 -7 22 0 46 -7 53 -13 11 -11 16 -10 28 2 25
25 12 67 -36 118 -113 121 -166 163 -201 159 -4 -1 -15 8 -24 18 -10 11 -23
20 -30 20 -7 0 -20 9 -30 20 -10 11 -21 17 -26 15 -4 -3 -15 3 -25 12 -10 10
-19 16 -22 14 -2 -2 -21 8 -43 22 -21 14 -48 28 -59 32 -11 3 -20 11 -20 16 0
6 -4 8 -8 5 -5 -3 -18 2 -28 12 -11 9 -26 18 -34 20 -8 2 -22 10 -31 18 -8 8
-19 14 -22 14 -4 0 -16 8 -27 18 -11 9 -22 15 -24 12 -2 -3 -14 4 -26 15 -12
11 -25 19 -29 18 -3 -1 -22 12 -40 28 -19 16 -46 32 -60 35 -15 2 -39 9 -56
15 -48 16 -144 30 -227 33 -16 1 -28 3 -28 6 0 3 -21 5 -47 5 -27 -1 -52 1
-57 4 -6 2 -24 6 -40 7 -17 1 -49 5 -71 9 -50 8 -90 13 -185 20 -151 11 -180
14 -189 20 -5 3 -12 1 -16 -5 -4 -6 -13 -7 -23 -2 -9 4 -52 7 -94 6 -43 0 -78
0 -78 1 0 2 7 15 15 31 8 16 10 31 5 34 -15 9 7 33 24 27 21 -8 41 27 23 41
-17 13 -59 26 -76 23 -8 -1 -20 -9 -28 -17 -8 -8 -18 -14 -23 -14 -5 0 -7 -7
-4 -15 4 -8 2 -15 -2 -15 -5 0 -10 -15 -11 -33 -3 -51 -24 -82 -55 -82 -16 -1
-28 4 -28 9 0 6 -4 6 -11 -1 -11 -11 -56 -6 -65 8 -3 5 -20 1 -37 -8 -18 -9
-36 -18 -42 -19 -34 -7 -43 -12 -67 -44 -15 -19 -28 -40 -28 -47 0 -7 -6 -16
-13 -20 -7 -4 -24 -24 -37 -43 -37 -52 -151 -160 -170 -160 -5 0 -10 -4 -10
-10 0 -5 -6 -10 -14 -10 -7 0 -25 -11 -40 -25 -14 -13 -26 -22 -26 -19 0 2
-10 -2 -23 -11 -13 -8 -27 -12 -30 -8 -4 3 -7 -2 -7 -12 0 -10 -3 -16 -6 -12
-4 3 -22 -5 -42 -18 -19 -13 -39 -22 -44 -19 -4 3 -8 0 -8 -5 0 -6 -9 -11 -20
-11 -11 0 -20 -5 -20 -11 0 -5 -4 -7 -10 -4 -5 3 -10 3 -10 -2 0 -9 -91 -49
-102 -45 -5 1 -8 -2 -8 -8 0 -5 -6 -10 -13 -10 -8 0 -28 -7 -46 -16 -17 -9
-37 -17 -44 -18 -7 -2 -20 -6 -29 -9 -32 -12 -48 -17 -52 -14 -1 1 -10 -4 -19
-12 -10 -7 -17 -10 -17 -5 0 5 -4 3 -9 -4 -5 -8 -20 -15 -35 -15 -14 -1 -26
-5 -26 -9 0 -12 -63 4 -79 19 -12 12 -10 17 10 30 38 26 189 189 189 205 0 4
5 8 11 8 5 0 7 5 4 10 -3 6 0 16 7 24 33 34 78 86 78 90 0 3 12 18 28 34 15
16 41 46 57 66 17 21 35 43 40 50 48 54 58 121 23 151 -82 71 -213 77 -403 19
-33 -10 -64 -19 -70 -19 -5 0 -12 -3 -15 -7 -3 -4 -15 -9 -27 -11 -12 -1 -28
-8 -36 -15 -8 -7 -22 -10 -31 -6 -10 4 -18 -1 -23 -12 -8 -22 -29 -45 -40 -44
-12 1 -77 -34 -85 -45 -3 -5 -20 -25 -37 -44 -17 -19 -28 -37 -26 -41 7 -11
-22 -33 -34 -26 -10 6 43 116 62 127 5 4 6 12 3 18 -4 6 -2 11 3 11 6 0 11 10
11 23 0 13 3 27 7 31 10 9 13 41 13 126 0 73 -5 165 -10 165 -2 0 -8 34 -12
63 -1 6 -5 12 -10 12 -4 0 -8 9 -8 20 0 11 -5 20 -12 20 -6 0 -9 3 -5 6 3 4
-3 24 -14 45 -11 22 -17 39 -14 39 3 0 -3 9 -12 19 -10 11 -23 26 -30 33 -28
32 -88 74 -114 79 -30 7 -69 -16 -69 -40 0 -6 -4 -11 -9 -11 -5 0 -11 -8 -15
-17 -3 -10 -15 -33 -26 -50 -11 -18 -17 -33 -15 -33 3 0 -8 -21 -24 -47 -16
-27 -32 -58 -36 -70 -3 -13 -10 -23 -15 -23 -4 0 -10 -10 -14 -23 -3 -13 -15
-45 -28 -73 -12 -27 -24 -60 -26 -73 -2 -14 -8 -33 -13 -43 -5 -10 -7 -23 -4
-28 3 -6 1 -10 -5 -10 -6 0 -9 -4 -6 -9 3 -4 1 -23 -5 -42 -10 -29 -17 -79
-22 -151 -1 -10 -5 -18 -10 -18 -5 0 -4 -7 3 -15 7 -8 8 -15 3 -15 -6 0 -8
-11 -5 -25 3 -20 1 -24 -12 -19 -9 3 -13 10 -10 15 3 5 -2 12 -10 15 -9 3 -13
10 -10 15 3 5 -2 12 -10 15 -9 3 -16 12 -16 20 0 8 -4 14 -10 14 -5 0 -12 11
-16 25 -3 14 -10 25 -15 25 -5 0 -9 6 -9 13 0 7 -9 19 -20 27 -11 8 -20 23
-20 33 0 9 -7 20 -15 23 -8 4 -15 10 -15 14 0 12 -68 122 -93 150 -12 14 -21
28 -19 33 1 4 -3 7 -9 7 -5 0 -8 4 -4 9 3 6 -1 13 -9 18 -8 4 -15 13 -16 18
-4 19 -52 95 -61 95 -5 0 -8 3 -7 8 4 10 -35 72 -45 72 -4 0 -5 5 -2 10 3 6
-1 13 -9 16 -9 3 -16 12 -16 20 0 8 -4 14 -10 14 -5 0 -10 6 -10 14 0 7 -6 19
-14 25 -8 7 -25 36 -39 65 -25 53 -72 101 -88 90 -5 -3 -9 -1 -9 5 0 6 -11 13
-25 17 -14 3 -25 10 -25 15 0 5 -3 8 -7 7 -5 -1 -20 4 -35 10 -20 8 -28 19
-28 37 0 14 4 25 9 25 10 0 7 72 -3 89 -12 19 -64 42 -71 31z"/>
<path d="M6393 2681 c-13 -20 8 -44 31 -35 21 8 20 27 -2 41 -15 9 -21 8 -29
-6z"/>
</g>
</svg>
