<?xml version="1.0" standalone="no"?>
<!DOCTYPE svg PUBLIC "-//W3C//DTD SVG 20010904//EN"
 "http://www.w3.org/TR/2001/REC-SVG-20010904/DTD/svg10.dtd">
<svg version="1.0" xmlns="http://www.w3.org/2000/svg"
 width="641.000000pt" height="603.000000pt" viewBox="0 0 641.000000 603.000000"
 preserveAspectRatio="xMidYMid meet">
<metadata>
Created by potrace 1.13, written by Peter Selinger 2001-2015
</metadata>
<g transform="translate(0.000000,603.000000) scale(0.100000,-0.100000)"
fill="#000000" stroke="none">
<path d="M1787 5928 c-19 -12 -16 -47 5 -53 10 -4 16 -10 13 -15 -3 -5 1 -12
8 -17 8 -4 20 -19 27 -33 7 -14 24 -37 38 -51 24 -25 32 -43 35 -81 1 -10 5
-18 10 -18 5 0 7 -6 4 -12 -2 -7 1 -27 8 -44 15 -36 14 -252 -1 -262 -5 -4
-10 -20 -12 -37 -2 -16 -7 -34 -12 -40 -4 -5 -13 -29 -19 -52 -7 -24 -16 -43
-21 -43 -5 0 -16 -16 -25 -35 -9 -19 -23 -39 -31 -45 -11 -10 -6 -22 29 -68
23 -32 45 -59 48 -62 3 -3 5 -13 3 -22 -1 -10 1 -18 6 -18 4 0 11 -17 15 -37
5 -21 10 -45 12 -53 2 -8 5 -22 5 -30 0 -8 5 -21 11 -27 5 -7 6 -13 2 -13 -4
0 -3 -6 1 -12 10 -14 10 -213 0 -267 -3 -19 -15 -53 -25 -75 -11 -23 -26 -58
-35 -78 -8 -21 -20 -38 -25 -38 -6 0 -10 -3 -10 -7 1 -5 0 -10 -1 -13 -1 -3
-3 -23 -6 -44 -2 -22 -10 -47 -19 -56 -8 -9 -16 -26 -18 -38 -2 -12 -6 -24
-10 -28 -9 -9 18 -34 37 -34 9 0 16 -7 16 -15 0 -8 5 -15 10 -15 6 0 10 -7 10
-15 0 -8 5 -15 10 -15 6 0 10 -7 10 -15 0 -8 5 -15 11 -15 5 0 7 -5 4 -10 -3
-6 1 -13 9 -16 9 -3 13 -10 10 -15 -3 -5 0 -9 5 -9 6 0 11 -7 11 -15 0 -8 4
-15 9 -15 7 0 22 -48 20 -66 0 -4 3 -10 8 -13 9 -7 42 -99 50 -140 8 -41 11
-56 13 -56 1 0 4 -13 6 -30 3 -16 11 -33 17 -37 9 -6 9 -8 0 -8 -7 0 -10 -6
-8 -12 8 -24 12 -98 5 -98 -4 0 -7 -10 -7 -22 1 -34 -13 -88 -23 -88 -4 0 -7
-8 -5 -17 1 -10 -1 -23 -6 -29 -5 -6 -10 -19 -12 -30 -1 -11 -14 -37 -27 -59
-14 -22 -25 -43 -25 -47 0 -11 -103 -118 -113 -118 -4 0 -18 9 -30 20 -39 37
-67 42 -92 15 -28 -30 -44 -94 -24 -102 8 -3 12 -9 9 -13 -4 -7 21 -23 28 -18
1 1 12 -7 25 -17 12 -11 27 -21 32 -21 6 -1 16 -2 24 -3 14 -1 29 -51 16 -51
-4 0 -8 -10 -8 -22 0 -28 -5 -49 -15 -65 -5 -7 -6 -13 -3 -13 3 0 -1 -12 -9
-27 -8 -15 -12 -30 -9 -35 3 -4 1 -8 -3 -8 -5 0 -8 -16 -7 -35 1 -19 -2 -38
-8 -41 -5 -3 -4 -11 3 -20 9 -11 9 -14 0 -14 -7 0 -9 -4 -6 -10 3 -5 1 -10 -6
-10 -7 0 -10 -11 -7 -30 3 -17 1 -30 -4 -30 -5 0 -7 -4 -4 -9 3 -5 -1 -24 -9
-43 -12 -31 -12 -38 1 -57 9 -12 19 -19 24 -16 9 6 72 16 115 19 17 2 38 6 48
10 9 5 28 5 42 2 14 -4 25 -3 25 1 0 12 73 8 195 -12 11 -1 27 -6 36 -10 10
-3 20 -1 24 5 5 8 12 7 25 -5 9 -8 30 -17 46 -18 16 -1 36 -10 46 -20 11 -13
18 -15 23 -6 4 6 10 7 14 2 3 -4 18 -14 32 -20 27 -12 46 -64 34 -95 -9 -22
38 -73 67 -73 12 0 29 5 36 12 7 7 19 10 27 7 9 -4 15 0 15 10 0 9 5 16 11 16
8 0 8 4 2 13 -6 6 -9 20 -8 29 2 10 0 18 -5 18 -4 0 -10 11 -13 25 -7 42 37
58 163 60 58 0 114 6 125 12 16 9 26 8 50 -7 17 -10 43 -21 59 -24 15 -3 39
-12 52 -21 14 -9 29 -13 35 -9 6 3 20 7 32 9 12 1 30 6 40 10 9 4 17 3 17 -2
0 -12 68 -9 81 4 16 16 43 5 54 -20 15 -34 40 -28 38 9 -1 17 4 31 10 31 7 1
28 4 47 6 19 3 38 6 42 6 4 1 13 8 22 16 12 12 17 13 28 3 7 -7 22 -15 33 -16
11 -2 22 -8 23 -13 2 -5 12 -9 22 -9 10 0 22 -5 25 -10 4 -6 11 -8 16 -5 5 4
9 1 9 -4 0 -6 3 -10 8 -9 4 1 27 -9 52 -21 25 -13 46 -23 48 -22 5 3 52 -52
52 -61 0 -4 9 -9 19 -13 11 -3 23 -16 27 -28 8 -28 34 -58 45 -52 4 3 10 1 14
-5 4 -6 11 -7 17 -4 42 26 430 21 463 -6 9 -7 71 -21 103 -23 6 0 12 -5 12
-10 0 -6 3 -8 6 -4 14 13 244 -122 244 -143 0 -5 19 -28 43 -51 23 -24 41 -47
40 -51 -2 -4 2 -8 8 -8 5 0 8 -4 4 -9 -3 -6 3 -14 13 -20 14 -7 21 -5 30 9 7
11 18 17 27 14 8 -4 15 -1 15 6 0 6 5 8 10 5 6 -3 12 0 15 7 9 22 172 28 225
8 3 -2 8 -2 13 -1 4 0 7 -3 7 -9 0 -5 7 -7 15 -4 8 3 24 -1 37 -10 12 -9 32
-16 43 -16 11 0 33 -7 49 -15 15 -8 34 -15 41 -15 7 0 28 -13 46 -30 19 -16
39 -30 44 -30 6 0 21 -10 35 -22 14 -13 43 -32 66 -43 37 -18 80 -51 167 -126
17 -15 36 -25 43 -22 15 6 13 40 -4 70 -7 13 -10 23 -8 23 7 0 -34 80 -50 100
-7 8 -22 25 -33 37 -10 12 -17 24 -14 27 3 3 -2 8 -11 12 -9 3 -14 10 -11 15
3 4 -4 13 -15 19 -11 6 -20 15 -20 19 0 9 -36 54 -77 98 -13 13 -23 26 -23 29
0 2 -12 17 -27 32 -16 15 -46 50 -68 76 -22 27 -46 54 -52 62 -7 7 -13 16 -13
21 0 4 -13 17 -29 28 -16 10 -27 23 -25 27 3 5 -2 11 -10 14 -9 3 -14 9 -11
14 2 4 -12 20 -32 36 -21 16 -44 38 -53 48 -27 33 -122 116 -134 116 -4 0 -25
13 -46 30 -21 17 -41 30 -44 30 -4 0 -19 11 -34 25 -15 14 -32 25 -38 25 -6 0
-21 9 -34 20 -13 11 -27 20 -32 20 -5 0 -18 9 -30 20 -11 10 -34 22 -49 25
-16 4 -29 10 -29 15 0 4 -10 10 -22 14 l-23 6 25 19 c18 14 28 17 37 9 19 -15
42 7 38 37 -4 42 -29 69 -63 70 -17 0 -33 -4 -36 -10 -7 -18 -96 -77 -96 -63
0 11 -35 41 -50 43 -3 0 -11 4 -17 8 -7 5 -13 5 -13 0 0 -4 -4 -2 -9 6 -11 18
-53 17 -129 -3 -32 -8 -70 -13 -85 -12 -15 2 -27 0 -27 -3 0 -4 -8 -7 -17 -8
-41 -3 -133 -2 -203 2 -41 2 -118 6 -170 9 -52 3 -106 7 -119 10 -28 6 -53 25
-46 36 14 23 -43 38 -100 25 -73 -16 -130 -7 -151 23 -8 12 -20 19 -26 16 -7
-4 -7 1 -2 17 13 34 9 122 -5 127 -6 2 -9 8 -5 13 3 5 0 9 -6 9 -6 0 -9 4 -6
8 9 14 -64 66 -101 73 -18 3 -33 2 -33 -3 0 -4 -7 -8 -15 -8 -8 0 -15 -3 -15
-7 0 -5 -13 -15 -28 -24 -31 -18 -55 -12 -89 20 -12 12 -26 21 -31 21 -5 0
-19 9 -32 20 -12 11 -26 17 -30 15 -4 -3 -15 12 -25 33 -9 20 -21 47 -27 60
-7 12 -12 38 -12 57 -1 19 -4 35 -7 35 -3 0 -5 42 -5 93 -1 51 -4 99 -8 105
-4 7 -2 12 5 12 8 0 9 3 0 13 -6 8 -8 17 -5 20 4 3 8 48 11 99 6 133 6 138 13
138 3 0 5 12 6 28 1 35 10 86 30 165 6 25 12 56 18 92 3 14 12 50 21 80 8 30
14 56 13 58 -2 2 3 11 10 20 8 9 16 41 19 71 4 46 2 57 -15 72 -12 10 -19 21
-16 26 3 4 0 8 -6 8 -6 0 -9 4 -5 9 3 5 1 12 -5 16 -6 4 -8 10 -5 15 3 5 0 12
-5 15 -7 4 3 19 25 38 24 22 37 42 39 65 2 17 -1 32 -5 32 -5 0 -9 5 -9 11 0
7 -10 20 -21 30 -34 30 -80 -6 -48 -38 7 -7 6 -12 -4 -16 -15 -6 -28 14 -52
83 -3 9 -36 85 -47 110 -6 14 -11 28 -10 33 1 4 -3 7 -8 7 -6 0 -10 6 -10 13
0 21 -30 77 -41 77 -6 0 -7 5 -4 10 3 6 0 13 -9 16 -8 3 -13 14 -11 25 2 10 0
19 -6 19 -5 0 -9 9 -9 20 0 11 -4 20 -10 20 -5 0 -10 7 -10 15 0 8 -5 15 -11
15 -5 0 -7 5 -4 10 3 6 1 10 -6 10 -7 0 -10 3 -6 6 3 3 -8 27 -24 54 -16 26
-29 52 -29 58 0 6 -3 12 -7 14 -12 5 -53 66 -53 77 0 6 -10 19 -22 31 -12 11
-19 20 -15 20 12 0 -159 181 -204 215 -14 11 -25 23 -25 27 1 3 -11 16 -27 28
-15 12 -25 26 -22 31 4 5 2 9 -4 9 -5 0 -39 28 -74 63 -36 34 -75 71 -88 82
-13 11 -51 43 -84 70 -33 28 -63 54 -66 58 -3 5 -9 8 -13 8 -3 0 -11 1 -18 3
-93 30 -116 35 -136 34 -12 -1 -28 -6 -35 -10z"/>
</g>
</svg>
