<?xml version="1.0" standalone="no"?>
<!DOCTYPE svg PUBLIC "-//W3C//DTD SVG 20010904//EN"
 "http://www.w3.org/TR/2001/REC-SVG-20010904/DTD/svg10.dtd">
<svg version="1.0" xmlns="http://www.w3.org/2000/svg"
 width="781.000000pt" height="730.000000pt" viewBox="0 0 781.000000 730.000000"
 preserveAspectRatio="xMidYMid meet">
<metadata>
Created by potrace 1.13, written by Peter Selinger 2001-2015
</metadata>
<g transform="translate(0.000000,730.000000) scale(0.100000,-0.100000)"
fill="#000000" stroke="none">
<path d="M1910 7002 c0 -5 -14 -8 -31 -8 -19 1 -36 -6 -43 -16 -9 -14 -2 -25
36 -61 25 -25 64 -55 87 -68 22 -12 41 -26 41 -31 0 -4 6 -8 13 -8 6 -1 23
-15 37 -32 14 -17 35 -40 48 -51 12 -11 22 -27 22 -34 0 -7 4 -13 9 -13 8 0
24 -37 22 -52 -1 -5 4 -8 9 -8 6 0 19 -20 30 -45 11 -25 24 -45 29 -45 6 0 8
-7 5 -15 -4 -8 -1 -15 4 -15 6 0 9 -11 6 -25 -2 -14 0 -25 6 -25 6 0 9 -4 5
-9 -3 -5 -1 -12 4 -15 9 -6 9 -24 -4 -86 -10 -49 -10 -51 -29 -92 -9 -21 -16
-40 -16 -44 0 -3 -11 -19 -25 -36 -14 -16 -25 -36 -25 -44 0 -8 -5 -14 -12
-14 -6 0 5 -12 24 -27 20 -16 44 -43 54 -60 9 -18 21 -33 26 -33 4 0 8 -6 8
-14 0 -8 4 -16 10 -18 5 -1 11 -13 13 -26 2 -13 10 -28 18 -33 8 -5 10 -9 6
-9 -4 0 -2 -10 4 -22 18 -33 29 -88 17 -88 -5 0 -6 -6 -1 -12 4 -7 9 -20 10
-28 7 -33 15 -106 14 -125 -1 -18 -1 -127 -1 -165 1 -44 -6 -108 -11 -104 -14
8 -30 -25 -22 -43 8 -16 10 -68 3 -83 -1 -3 -2 -8 -1 -12 0 -5 -4 -8 -10 -8
-5 0 -7 -4 -4 -10 3 -5 2 -25 -3 -44 -9 -30 -7 -37 13 -56 12 -11 32 -22 44
-23 11 -1 21 -5 21 -10 0 -10 52 -80 63 -85 4 -2 7 -10 7 -18 0 -8 4 -14 10
-14 5 0 7 -6 4 -13 -2 -7 3 -22 13 -33 18 -19 23 -33 28 -64 6 -46 18 -90 24
-90 3 0 7 -17 7 -37 4 -82 8 -123 15 -123 3 0 5 -12 3 -27 -2 -16 -6 -53 -9
-83 -3 -30 -8 -71 -11 -90 -3 -19 -7 -46 -9 -60 -2 -14 -4 -27 -5 -30 -1 -3
-2 -8 -1 -12 0 -5 -3 -8 -9 -8 -5 0 -7 -7 -4 -15 4 -8 2 -15 -4 -15 -5 0 -9
-13 -8 -30 1 -16 -1 -30 -5 -30 -8 0 -24 -59 -21 -72 1 -5 -2 -8 -6 -8 -5 0
-15 -18 -22 -40 -7 -22 -17 -40 -21 -40 -5 0 -18 -21 -30 -47 -12 -27 -32 -58
-44 -70 l-22 -22 -46 44 c-49 48 -58 52 -79 32 -7 -7 -21 -16 -30 -20 -10 -3
-18 -14 -18 -22 0 -9 -4 -13 -10 -10 -5 3 -10 -1 -10 -9 0 -9 -4 -16 -9 -16
-5 0 -13 -10 -17 -22 -10 -27 -12 -118 -3 -118 3 0 20 -14 37 -30 18 -17 38
-30 46 -30 19 0 40 26 26 35 -21 13 -9 24 25 21 19 -1 36 2 38 8 2 7 9 6 20
-3 14 -11 15 -17 3 -40 -7 -14 -12 -48 -12 -74 1 -33 -4 -54 -16 -67 -10 -11
-18 -23 -18 -28 0 -5 -13 -25 -30 -43 -16 -19 -30 -37 -30 -41 0 -5 -5 -8 -10
-8 -12 0 -70 -57 -70 -69 0 -4 -9 -16 -20 -26 -11 -10 -17 -22 -13 -28 3 -5 2
-7 -4 -4 -9 6 -53 -35 -53 -49 0 -3 -16 -21 -34 -40 -28 -29 -32 -39 -23 -49
7 -7 21 -11 32 -8 11 3 32 6 48 7 15 0 27 4 27 7 0 3 18 5 40 4 22 -1 40 3 40
8 0 5 8 6 18 2 25 -10 122 -12 122 -2 0 4 6 5 13 0 6 -4 30 -8 52 -9 22 -1 40
-3 40 -4 0 -1 8 -3 18 -5 9 -2 17 1 17 7 0 7 5 7 13 -1 8 -6 17 -8 20 -4 4 3
7 1 7 -5 0 -7 3 -11 8 -10 14 3 87 -15 122 -30 19 -9 38 -15 43 -14 4 1 7 -3
7 -9 0 -5 4 -8 9 -4 5 3 17 -3 27 -12 10 -10 20 -17 23 -15 3 1 14 -5 24 -14
26 -22 87 -55 87 -47 0 4 11 -4 25 -17 14 -13 25 -20 25 -16 0 4 6 2 13 -4 47
-40 62 -50 74 -50 7 0 13 -5 13 -11 0 -5 4 -8 9 -4 5 3 13 1 16 -5 4 -6 15 -8
24 -5 10 3 29 1 42 -4 13 -5 20 -10 16 -10 -5 -1 -1 -8 7 -17 14 -14 21 -43
17 -68 -1 -5 3 -12 9 -16 6 -4 12 -14 14 -22 3 -22 28 -44 51 -43 11 0 25 -4
32 -8 12 -9 21 -3 70 42 22 21 33 24 92 22 94 -3 101 -4 101 -14 0 -4 18 -25
40 -47 22 -22 40 -42 40 -45 0 -27 106 -74 153 -69 24 3 53 -3 85 -18 26 -12
54 -21 62 -19 8 2 12 0 8 -5 -8 -7 21 -33 34 -30 3 0 17 -8 30 -20 13 -11 41
-29 63 -39 22 -10 42 -21 45 -24 10 -12 90 -61 100 -61 5 0 10 -6 10 -12 1 -7
19 -26 40 -43 21 -16 39 -33 40 -36 0 -3 15 -23 34 -43 27 -28 34 -43 31 -65
-2 -18 2 -34 11 -42 17 -14 54 -20 54 -9 0 8 32 6 47 -3 6 -4 15 -3 18 3 4 6
15 8 26 5 37 -12 79 -14 79 -4 0 6 6 7 13 2 19 -12 37 -12 37 -1 0 6 6 6 15
-2 8 -7 32 -14 52 -16 21 -2 57 -7 81 -12 24 -5 45 -6 48 -1 3 5 18 2 33 -6
21 -10 31 -11 40 -2 8 8 11 8 11 -2 0 -7 6 -11 14 -8 7 3 23 -1 34 -8 10 -8
22 -12 25 -9 3 3 12 2 19 -2 7 -5 15 -9 18 -9 13 -2 87 -40 103 -53 9 -8 17
-11 17 -7 0 5 12 -2 26 -16 14 -13 29 -24 32 -23 4 1 27 -14 51 -32 24 -19 40
-34 36 -34 -5 0 0 -9 10 -20 10 -11 24 -20 32 -20 8 0 12 -4 8 -9 -3 -5 4 -12
14 -16 19 -6 79 -111 73 -129 -2 -5 6 -15 18 -23 11 -8 18 -19 15 -24 -4 -5
-2 -9 4 -9 5 0 10 -8 10 -17 2 -76 13 -95 48 -82 15 5 32 8 40 5 7 -3 13 0 13
6 0 7 4 7 14 -1 10 -9 15 -8 19 3 4 10 16 14 37 11 21 -2 30 1 30 11 0 11 4
12 19 5 10 -6 37 -12 60 -13 22 -2 41 -7 41 -11 0 -5 6 -5 13 0 16 10 37 13
37 4 0 -3 16 -15 35 -25 19 -11 35 -23 35 -28 0 -4 8 -8 18 -9 38 -1 173 -112
197 -161 10 -21 22 -38 27 -38 4 0 8 -7 8 -15 0 -8 5 -15 10 -15 6 0 10 -6 10
-14 0 -8 5 -27 12 -43 6 -15 12 -30 13 -33 10 -29 29 -67 49 -97 14 -20 24
-39 22 -42 -2 -3 2 -12 10 -19 8 -7 14 -10 14 -7 0 3 6 0 14 -7 7 -7 13 -23
11 -36 -1 -12 1 -22 5 -22 4 0 10 -9 13 -20 3 -11 0 -20 -6 -20 -8 0 -9 -3 -1
-8 15 -10 34 -59 37 -94 1 -10 5 -18 9 -18 4 0 8 -6 8 -14 0 -18 22 -26 35
-12 17 18 36 67 30 77 -4 5 -1 9 5 9 6 0 9 4 6 9 -4 5 -2 21 4 36 14 36 23 84
23 118 -1 15 3 27 7 27 26 0 32 89 16 225 -4 28 -8 64 -9 80 -2 17 -6 36 -10
43 -5 7 -3 12 4 12 8 0 8 4 2 13 -6 6 -8 25 -6 40 2 16 -1 35 -8 43 -9 11 -8
14 2 14 10 0 10 3 3 8 -6 4 -11 24 -10 45 2 21 -1 40 -5 43 -5 2 -6 11 -2 19
3 8 0 15 -7 15 -6 0 -8 5 -4 11 7 11 -12 54 -33 77 -7 7 -13 18 -13 24 0 6
-14 33 -30 60 -17 27 -28 53 -25 58 3 4 2 10 -3 12 -15 6 -52 61 -46 69 3 5 0
9 -6 9 -6 0 -16 12 -23 28 -6 15 -20 36 -29 46 -10 10 -15 23 -12 28 3 4 0 8
-6 8 -6 0 -16 12 -23 28 -6 15 -14 29 -17 32 -13 13 -61 80 -61 87 0 5 -7 12
-15 16 -8 5 -12 12 -9 17 3 4 -2 11 -11 14 -8 3 -12 10 -9 16 3 5 2 10 -3 10
-5 0 -21 18 -36 41 -15 22 -41 55 -57 72 l-31 32 24 10 c13 5 38 24 56 41 l34
31 -32 26 c-31 27 -60 35 -60 18 0 -15 -73 -46 -78 -32 -2 6 -10 11 -18 11 -7
0 -22 7 -31 15 -10 8 -21 15 -25 15 -5 0 -19 10 -32 21 -13 12 -26 20 -28 19
-1 -1 -16 5 -32 14 -16 8 -33 13 -38 10 -4 -3 -8 -1 -8 3 0 5 -20 17 -45 27
-25 11 -45 23 -45 27 0 5 -11 11 -25 15 -14 3 -25 10 -25 14 0 4 -15 11 -34
14 -19 4 -45 15 -59 26 -14 11 -34 20 -44 20 -10 0 -24 5 -31 12 -7 7 -12 8
-12 3 0 -6 -4 -4 -8 2 -4 7 -17 14 -29 16 -12 1 -28 9 -37 16 -9 7 -16 10 -16
6 0 -4 -6 -2 -13 4 -8 6 -16 9 -19 6 -3 -3 -11 1 -18 10 -7 8 -19 15 -26 15
-8 0 -14 5 -14 12 0 6 -3 9 -6 6 -3 -4 -22 1 -42 9 -20 8 -48 20 -62 26 -14 6
-27 11 -30 12 -3 1 -18 8 -35 15 -16 7 -34 12 -39 11 -5 -1 -16 4 -25 12 -15
13 -29 20 -56 27 -5 2 -27 14 -48 27 -22 14 -45 22 -53 19 -8 -3 -14 -1 -14 4
0 6 -6 10 -14 10 -8 0 -22 7 -30 16 -9 8 -16 12 -16 8 0 -3 -7 -1 -15 6 -8 7
-15 9 -15 5 0 -5 -8 -1 -18 8 -10 10 -21 15 -24 12 -3 -3 -11 1 -18 10 -7 8
-17 15 -22 15 -35 0 -141 120 -144 164 -1 10 -9 23 -18 28 -9 5 -14 13 -11 18
3 5 1 11 -5 15 -6 4 -8 11 -5 16 4 5 -1 12 -9 15 -9 3 -16 12 -16 20 0 7 -11
24 -25 38 -14 14 -25 28 -25 32 0 3 -11 15 -25 26 -14 11 -23 23 -20 28 3 5
-4 11 -15 15 -11 3 -20 10 -20 15 0 4 -19 26 -42 47 -22 21 -64 61 -92 88 -64
62 -133 118 -157 127 -18 7 -78 58 -120 102 -10 10 -16 23 -13 28 3 4 0 8 -7
8 -7 0 -10 3 -6 6 3 4 0 19 -9 35 -8 16 -14 30 -14 31 1 2 -1 10 -4 18 -16 52
-28 92 -32 117 -3 15 -9 30 -15 31 -5 2 -7 8 -3 13 3 5 -2 37 -11 71 -9 35
-18 71 -20 81 -8 39 -18 62 -29 69 -8 5 -7 8 2 8 8 0 10 5 5 13 -4 6 -8 20 -9
30 -1 9 -2 18 -3 20 -6 7 -21 147 -24 217 -1 30 -6 61 -10 68 -5 6 -4 12 1 12
5 0 8 23 8 51 -1 28 3 66 10 84 8 24 8 37 1 44 -8 8 -8 11 0 11 7 0 12 8 11
18 0 9 3 28 6 42 4 14 9 66 12 115 8 124 12 186 17 215 2 14 -1 31 -6 38 -6 8
-5 12 2 12 7 0 9 5 5 12 -4 6 -8 24 -9 39 -2 15 -10 38 -19 50 -9 13 -16 32
-16 42 0 19 54 77 71 77 5 0 9 7 9 15 0 8 4 15 9 15 13 0 11 53 -4 76 -17 26
-54 26 -69 0 -12 -21 -30 -41 -66 -71 -13 -11 -20 -15 -17 -8 4 6 -8 27 -27
47 -18 20 -32 36 -30 36 2 0 -5 9 -16 20 -11 11 -20 26 -20 33 0 7 -9 19 -20
27 -11 8 -20 18 -20 22 0 4 -8 16 -17 27 -10 10 -34 42 -53 71 -19 29 -45 63
-56 76 -12 12 -19 25 -17 28 3 3 -2 8 -11 12 -9 3 -16 11 -16 16 0 6 -13 32
-29 57 -15 26 -34 63 -42 84 -7 20 -17 37 -21 37 -4 0 -7 3 -6 8 4 10 -35 72
-45 72 -4 0 -5 5 -2 10 4 6 -1 22 -9 35 -9 14 -13 25 -10 25 4 0 -24 29 -61
65 -37 35 -72 62 -76 59 -4 -2 -18 6 -31 18 -13 13 -45 41 -73 63 -27 22 -64
54 -82 70 -18 17 -36 30 -41 30 -14 1 -103 48 -152 80 -8 5 -17 10 -20 10 -3
1 -29 13 -59 28 -30 15 -60 27 -66 27 -6 0 -16 5 -23 12 -6 6 -26 13 -43 14
-18 2 -35 6 -38 11 -7 10 -25 15 -71 19 -19 1 -35 3 -35 4 0 3 -40 11 -80 16
-62 8 -70 10 -80 16 -6 3 -20 4 -32 3 -13 -1 -23 2 -23 6 0 4 -9 6 -21 4 -11
-2 -31 0 -45 5 -13 5 -24 6 -24 2z"/>
</g>
</svg>
