<?xml version="1.0" standalone="no"?>
<!DOCTYPE svg PUBLIC "-//W3C//DTD SVG 20010904//EN"
 "http://www.w3.org/TR/2001/REC-SVG-20010904/DTD/svg10.dtd">
<svg version="1.0" xmlns="http://www.w3.org/2000/svg"
 width="746.000000pt" height="325.000000pt" viewBox="0 0 746.000000 325.000000"
 preserveAspectRatio="xMidYMid meet">
<metadata>
Created by potrace 1.13, written by Peter Selinger 2001-2015
</metadata>
<g transform="translate(0.000000,325.000000) scale(0.100000,-0.100000)"
fill="#000000" stroke="none">
<path d="M975 3230 c-88 -4 -176 -12 -195 -18 -19 -6 -72 -18 -118 -27 -147
-29 -254 -70 -376 -143 -37 -23 -70 -42 -72 -42 -2 0 -38 -21 -81 -47 -88 -54
-124 -89 -120 -118 2 -18 9 -20 87 -20 47 1 110 2 140 4 69 4 176 -12 215 -33
17 -9 37 -16 45 -16 8 0 28 -7 44 -15 15 -8 32 -15 37 -15 5 0 36 -19 70 -41
42 -29 67 -55 83 -88 28 -55 53 -139 61 -203 6 -47 7 -48 41 -48 38 0 186 -37
194 -49 3 -4 21 -14 40 -21 50 -20 187 -147 230 -212 14 -21 28 -38 33 -38 4
0 7 -6 7 -14 0 -8 11 -17 25 -20 16 -4 25 -13 25 -26 0 -11 4 -20 8 -20 13 0
36 -52 33 -76 -1 -13 6 -24 21 -31 14 -6 39 -42 63 -87 l40 -78 40 6 c64 10
67 9 131 -8 76 -20 158 -59 192 -91 15 -14 30 -25 34 -25 5 0 35 -26 69 -57
33 -32 67 -61 74 -66 7 -4 24 -24 36 -45 13 -20 31 -46 41 -56 10 -11 18 -26
18 -33 0 -7 4 -13 9 -13 5 0 15 -16 22 -35 7 -19 17 -35 21 -35 4 0 8 -5 8
-10 0 -6 13 -39 30 -75 49 -105 90 -262 90 -344 l0 -33 -63 7 c-78 8 -87 0
-93 -86 -6 -71 7 -112 46 -146 20 -18 36 -22 80 -20 49 2 55 5 58 24 2 16 -2
23 -12 23 -22 0 -20 9 9 36 14 13 25 28 25 34 0 27 35 3 43 -30 4 -14 18 -38
33 -54 39 -41 43 -83 37 -334 -5 -217 -5 -222 15 -222 11 0 32 16 48 37 33 44
100 113 109 113 3 0 16 10 29 23 32 30 52 46 111 87 28 19 52 38 55 41 7 9
135 64 193 84 27 9 79 20 115 25 216 27 313 48 328 68 16 22 72 17 103 -10 58
-52 82 -57 135 -30 31 15 36 23 42 66 8 53 31 83 99 126 39 25 41 25 115 12
96 -17 173 -3 210 37 14 15 47 33 75 41 28 7 54 16 59 21 5 4 14 5 22 2 7 -3
71 5 141 17 210 36 412 22 426 -30 8 -30 48 -25 76 10 13 17 29 30 37 30 8 0
14 7 14 15 0 8 6 15 14 15 8 0 31 15 50 33 59 53 63 56 90 63 14 3 26 10 26
15 0 5 20 18 45 30 25 12 51 30 58 40 7 9 25 21 40 24 15 4 27 11 27 16 0 5 7
9 15 9 8 0 15 5 15 10 0 6 8 10 18 10 10 0 22 4 27 8 14 12 77 29 174 47 109
21 285 12 354 -17 26 -11 47 -24 47 -29 0 -5 13 -9 29 -9 27 0 77 -30 94 -57
9 -15 47 -18 47 -4 0 5 13 23 30 39 17 17 30 38 30 46 0 9 7 16 15 16 8 0 17
11 21 24 3 15 15 27 30 30 13 4 24 11 24 16 0 6 6 10 13 10 6 0 25 11 41 25
17 14 46 26 75 30 25 4 68 10 94 16 108 21 248 4 327 -40 8 -4 35 -19 60 -32
59 -33 160 -69 185 -67 18 2 80 -34 95 -54 3 -4 17 -12 30 -17 29 -13 59 -31
78 -48 24 -23 52 -16 52 12 0 25 -93 224 -110 235 -4 3 -10 23 -14 44 -8 42
-4 38 -264 286 -156 150 -143 141 -253 184 -51 20 -103 41 -114 46 -72 34
-430 139 -577 170 -85 17 -96 23 -80 42 5 7 13 34 17 61 l7 47 -46 0 c-29 0
-48 -5 -50 -12 -3 -7 -7 -24 -10 -38 -10 -44 -20 -49 -122 -64 -55 -9 -116
-22 -135 -30 -19 -8 -56 -17 -84 -21 -57 -7 -155 -34 -304 -82 -57 -18 -109
-33 -115 -33 -13 0 -229 -66 -261 -80 -11 -5 -54 -16 -95 -25 -41 -9 -82 -20
-90 -24 -8 -4 -63 -20 -123 -35 -81 -21 -123 -27 -170 -23 -80 6 -120 16 -130
33 -4 8 -19 14 -32 14 -13 0 -26 4 -29 9 -10 15 -97 38 -207 55 -100 16 -345
24 -522 18 -88 -3 -122 10 -255 99 -40 27 -78 49 -83 49 -5 0 -9 4 -9 8 0 5
-39 37 -87 70 -49 34 -101 72 -118 84 -39 30 -152 135 -184 172 -14 17 -33 37
-42 45 -24 24 -90 113 -100 136 -5 11 -15 29 -21 40 -94 147 -109 170 -166
240 -4 6 -22 30 -39 55 -53 76 -82 104 -136 131 -29 15 -51 30 -50 35 11 66
14 144 4 144 -6 0 -11 6 -11 14 0 20 -57 31 -76 15 -8 -7 -14 -24 -13 -38 1
-14 1 -44 1 -67 l-2 -41 -37 8 c-132 30 -465 113 -502 125 -24 8 -69 26 -100
40 -31 15 -74 33 -96 41 -22 9 -60 25 -85 36 -52 24 -125 28 -365 17z"/>
</g>
</svg>
