<?xml version="1.0" standalone="no"?>
<!DOCTYPE svg PUBLIC "-//W3C//DTD SVG 20010904//EN"
 "http://www.w3.org/TR/2001/REC-SVG-20010904/DTD/svg10.dtd">
<svg version="1.0" xmlns="http://www.w3.org/2000/svg"
 width="413.000000pt" height="384.000000pt" viewBox="0 0 413.000000 384.000000"
 preserveAspectRatio="xMidYMid meet">
<metadata>
Created by potrace 1.13, written by Peter Selinger 2001-2015
</metadata>
<g transform="translate(0.000000,384.000000) scale(0.100000,-0.100000)"
fill="#000000" stroke="none">
<path d="M1007 3633 c-3 -2 -23 -5 -44 -7 -47 -2 -84 -22 -77 -40 5 -13 42
-29 69 -30 6 -1 21 -11 35 -23 14 -13 30 -23 37 -23 19 0 88 -111 100 -160 7
-28 9 -100 4 -100 -3 0 -7 -10 -7 -22 -4 -59 -10 -88 -18 -88 -5 0 -6 -3 -3
-7 4 -3 -3 -17 -15 -30 l-22 -23 37 -34 c33 -30 42 -46 38 -69 -1 -4 5 -10 13
-13 8 -3 12 -12 9 -20 -3 -8 -2 -22 2 -31 4 -10 9 -29 11 -43 2 -14 6 -40 9
-57 3 -18 2 -33 -3 -33 -5 0 -8 -25 -7 -55 2 -30 -1 -55 -7 -55 -5 0 -6 -4 -3
-10 3 -5 1 -10 -5 -10 -7 0 -10 -7 -6 -15 3 -8 1 -15 -4 -15 -5 0 -7 -7 -4
-15 4 -8 1 -15 -6 -15 -7 0 -10 -7 -6 -15 3 -8 -2 -21 -10 -30 -13 -13 -12
-17 18 -35 52 -31 78 -52 73 -59 -2 -4 5 -14 16 -21 10 -8 19 -18 19 -23 0 -5
8 -21 19 -35 10 -15 17 -35 16 -44 -2 -10 1 -20 6 -24 5 -3 7 -10 4 -15 -4 -5
-2 -9 4 -9 6 0 9 -13 7 -30 -2 -16 0 -30 5 -30 4 0 6 -10 4 -22 -3 -12 0 -27
6 -35 9 -9 8 -13 0 -13 -7 0 -9 -5 -4 -12 4 -7 8 -32 8 -55 0 -24 -4 -43 -8
-43 -5 0 -5 -4 -2 -10 3 -5 0 -20 -7 -32 -7 -13 -11 -26 -10 -30 1 -5 -3 -8
-9 -8 -6 0 -9 -6 -6 -12 4 -13 -49 -68 -65 -68 -4 0 -8 -6 -8 -13 0 -13 -11
-17 -52 -18 -10 0 -18 -3 -18 -7 0 -4 -9 -8 -20 -8 -11 0 -20 6 -20 12 0 7 -9
16 -20 19 -11 3 -20 11 -20 17 0 6 -3 8 -7 5 -3 -4 -14 0 -23 8 -9 9 -26 14
-37 12 -24 -3 -55 -32 -45 -42 4 -3 -1 -11 -11 -16 -9 -6 -15 -14 -12 -19 3
-5 1 -11 -5 -15 -6 -4 -8 -11 -4 -16 4 -7 54 -33 84 -44 3 -1 12 -5 20 -8 48
-21 76 -30 82 -29 5 1 8 -3 8 -9 0 -5 4 -7 10 -4 18 11 100 -49 100 -75 0 -5
3 -10 8 -10 4 0 33 -23 66 -50 40 -35 62 -48 70 -41 7 6 17 6 26 1 10 -7 11
-10 3 -10 -22 0 -14 -33 14 -57 14 -13 22 -23 17 -23 -9 0 16 -23 75 -69 17
-13 31 -32 31 -42 0 -11 4 -19 10 -19 5 0 7 -7 4 -15 -7 -18 52 -80 89 -94 15
-6 27 -7 27 -3 0 4 10 19 23 32 25 29 32 50 16 50 -8 0 -8 4 0 14 11 13 18 12
54 -3 24 -10 58 -18 77 -17 19 1 50 -4 69 -12 19 -7 49 -12 68 -10 18 2 34 0
35 -4 2 -4 18 -10 37 -12 18 -2 36 -8 40 -13 7 -10 26 -11 36 -1 4 4 14 0 23
-8 11 -12 17 -13 22 -3 5 6 15 9 24 6 8 -3 21 -1 28 6 18 17 53 14 76 -6 10
-9 27 -17 38 -17 14 0 16 -2 6 -9 -16 -10 5 -21 48 -27 14 -1 36 -5 49 -8 14
-3 30 -1 37 5 7 6 18 8 24 4 5 -3 10 1 10 10 0 9 4 14 9 10 6 -3 14 2 19 11 7
13 13 14 30 5 26 -14 30 -14 35 1 2 7 3 5 1 -5 -3 -23 35 -44 47 -26 5 8 9 11
9 6 0 -4 15 -1 34 7 19 8 37 12 40 8 3 -3 6 0 6 8 0 9 3 10 14 1 11 -9 15 -9
18 1 8 22 214 16 258 -7 19 -11 41 -20 49 -21 8 -2 17 -8 21 -14 4 -7 11 -11
16 -11 5 0 23 -13 41 -30 38 -35 78 -89 66 -89 -4 0 1 -6 12 -14 11 -7 34 -13
51 -13 31 0 138 -45 159 -67 30 -32 85 -118 80 -127 -4 -5 0 -12 9 -15 8 -3
12 -12 9 -20 -3 -8 -2 -22 2 -31 5 -10 7 -25 7 -33 -2 -24 24 -51 42 -44 9 3
16 12 16 20 0 8 4 14 8 14 10 0 34 46 39 74 2 11 8 25 14 33 6 7 8 13 3 13 -5
0 -2 5 6 10 11 7 15 31 17 92 1 46 4 98 7 116 4 20 2 32 -4 32 -6 0 -9 4 -5 9
3 5 1 12 -5 16 -6 4 -8 10 -5 15 3 5 1 11 -5 15 -6 4 -8 10 -5 15 3 4 -5 30
-17 56 -12 27 -22 51 -23 54 -4 25 -31 100 -36 100 -4 0 -6 8 -5 18 2 9 -2 20
-8 24 -6 4 -11 11 -12 15 -1 14 -28 68 -37 74 -5 3 -7 8 -5 10 6 8 -85 151
-99 156 -7 3 -10 9 -8 14 3 4 -3 14 -15 21 -11 7 -20 16 -20 20 0 4 -12 19
-26 33 -24 24 -25 28 -11 42 13 13 19 14 31 4 13 -11 18 -10 30 1 38 39 -48
95 -97 63 -22 -14 -26 -13 -62 17 -39 34 -106 53 -125 34 -7 -7 -10 -6 -10 3
0 11 -3 11 -15 1 -8 -6 -19 -9 -25 -5 -5 3 -10 2 -10 -3 0 -5 -7 -9 -15 -10
-8 -1 -22 -3 -30 -4 -8 -1 -15 -6 -15 -11 0 -5 -7 -7 -15 -3 -8 3 -15 2 -15
-2 0 -4 -12 -7 -27 -6 -16 0 -44 -4 -63 -11 -19 -6 -45 -10 -58 -9 -12 1 -25
-3 -28 -8 -3 -4 -10 -6 -15 -2 -5 3 -15 1 -22 -4 -7 -6 -15 -11 -19 -11 -5 -1
-9 -1 -10 -2 -17 -5 -118 -21 -135 -22 -7 0 -13 -5 -13 -10 0 -5 -7 -4 -15 3
-8 7 -15 8 -15 3 0 -5 -12 -8 -27 -8 -16 1 -33 -3 -40 -8 -7 -5 -16 -6 -22 -3
-5 3 -11 0 -14 -6 -2 -8 -11 0 -19 17 -21 40 -54 69 -63 55 -3 -5 -10 -8 -14
-6 -4 3 -19 -8 -34 -23 -35 -38 -61 -43 -91 -20 -13 10 -28 19 -34 19 -9 0
-24 47 -38 115 -8 42 -9 337 -2 410 7 64 28 139 55 201 9 22 17 43 17 47 1 4
6 11 11 15 12 8 15 52 4 52 -4 0 -6 11 -3 25 2 14 0 25 -6 25 -6 0 -9 4 -5 9
3 5 1 12 -5 16 -6 4 -8 10 -5 15 3 5 0 12 -7 17 -26 16 -38 53 -33 102 3 43 1
51 -16 56 -10 4 -19 10 -19 15 0 11 -39 20 -45 9 -8 -12 -35 1 -35 16 0 8 -8
16 -18 20 -11 3 -24 17 -30 30 -6 14 -16 25 -22 25 -6 0 -9 4 -6 9 3 5 -6 17
-20 27 -26 18 -40 32 -100 95 -15 16 -31 29 -36 29 -4 0 -8 5 -8 11 0 11 -9
21 -58 62 -19 15 -31 27 -28 27 5 0 -62 63 -89 83 -5 4 -26 21 -45 37 -19 16
-39 30 -43 30 -4 0 -13 5 -20 10 -46 39 -61 50 -69 50 -5 0 -18 9 -29 19 -12
11 -30 18 -40 16 -10 -2 -19 0 -19 4 0 7 -56 36 -90 46 -3 1 -18 7 -35 14 -16
7 -30 11 -30 10 0 -1 -11 3 -24 10 -13 7 -51 15 -85 17 -33 2 -71 6 -83 8 -11
2 -23 2 -26 -1z"/>
</g>
</svg>
