<?xml version="1.0" standalone="no"?>
<!DOCTYPE svg PUBLIC "-//W3C//DTD SVG 20010904//EN"
 "http://www.w3.org/TR/2001/REC-SVG-20010904/DTD/svg10.dtd">
<svg version="1.0" xmlns="http://www.w3.org/2000/svg"
 width="719.000000pt" height="464.000000pt" viewBox="0 0 719.000000 464.000000"
 preserveAspectRatio="xMidYMid meet">
<metadata>
Created by potrace 1.13, written by Peter Selinger 2001-2015
</metadata>
<g transform="translate(0.000000,464.000000) scale(0.100000,-0.100000)"
fill="#000000" stroke="none">
<path d="M87 4615 c-21 -7 -40 -15 -41 -17 -41 -61 -46 -88 -18 -88 10 0 38
-20 62 -45 32 -32 52 -45 73 -45 32 0 119 -20 127 -29 3 -3 17 -13 31 -21 57
-32 109 -76 119 -100 6 -14 17 -36 24 -50 90 -166 119 -265 118 -404 -1 -98
-60 -235 -132 -306 -38 -38 -50 -56 -50 -80 0 -24 4 -30 23 -30 12 0 33 -10
47 -23 35 -31 69 -52 110 -66 44 -15 130 -72 130 -87 0 -6 9 -19 21 -30 42
-38 78 -105 100 -184 19 -72 21 -98 16 -214 -3 -73 -12 -146 -18 -162 -8 -19
-13 -106 -15 -261 l-3 -233 72 6 c74 7 187 -10 187 -27 0 -5 7 -9 15 -9 27 0
129 -57 171 -97 51 -47 77 -68 134 -113 77 -60 82 -64 122 -99 106 -93 275
-431 316 -631 6 -30 18 -89 26 -130 9 -41 18 -102 22 -135 3 -33 10 -77 16
-98 5 -21 6 -52 3 -69 -7 -30 -7 -30 -60 -23 -47 5 -59 3 -95 -20 -22 -14 -50
-35 -60 -45 -11 -11 -26 -20 -34 -20 -15 0 -26 -30 -26 -73 0 -43 37 -107 61
-107 12 0 34 -11 51 -25 36 -30 57 -31 92 -4 25 20 36 59 16 59 -13 0 -13 40
0 60 6 10 26 15 58 15 39 0 56 6 86 30 21 17 45 28 55 27 38 -8 41 -21 41
-158 0 -116 3 -144 24 -204 14 -38 39 -91 57 -117 19 -26 32 -57 31 -68 -3
-24 43 -45 96 -45 27 0 32 4 32 25 0 21 -5 25 -30 25 -25 0 -30 4 -30 25 0 20
5 25 25 25 19 0 25 5 25 23 0 19 12 26 80 50 44 16 80 32 80 37 0 13 101 57
160 71 30 6 79 25 109 42 56 32 143 57 199 57 30 0 32 -2 32 -35 0 -19 9 -54
19 -78 11 -23 25 -66 31 -96 13 -55 7 -70 -27 -71 -21 0 -15 -44 8 -60 12 -8
30 -23 40 -34 21 -21 103 -34 113 -17 4 6 16 11 26 11 14 0 23 13 35 52 21 73
20 83 -25 139 -22 28 -40 57 -40 65 0 8 -4 14 -9 14 -5 0 -14 14 -20 32 -10
27 -8 36 11 64 12 18 34 39 48 47 14 9 61 50 105 91 44 42 83 76 87 76 4 0 25
18 47 40 22 22 43 40 47 40 4 0 30 14 58 32 47 28 81 48 132 77 11 5 81 39
156 75 118 56 190 83 334 127 73 22 156 -11 170 -68 13 -49 77 -8 121 77 10
19 37 67 60 107 24 41 43 76 43 79 0 8 55 89 63 92 4 2 7 10 7 17 0 7 4 15 8
17 5 2 28 29 53 61 78 103 93 121 154 186 108 115 199 201 263 250 17 13 51
41 74 62 24 21 66 46 93 55 28 9 68 27 91 40 22 13 50 24 61 24 11 0 37 13 58
29 37 28 41 28 68 14 29 -14 81 -10 92 8 4 5 12 9 18 9 7 0 -3 -10 -20 -21
-19 -12 -33 -29 -33 -41 0 -17 5 -19 38 -13 80 13 116 31 134 66 45 86 8 122
-96 95 -71 -17 -84 -13 -53 17 57 56 84 71 243 128 135 48 185 61 249 66 127
8 305 -32 368 -84 30 -24 67 -31 67 -12 0 13 65 122 84 142 22 23 71 102 111
181 68 132 160 216 241 216 70 0 214 61 214 90 0 23 -57 83 -98 104 -46 24
-175 37 -247 26 -169 -26 -289 -55 -365 -88 -25 -11 -61 -23 -80 -27 -19 -4
-41 -11 -50 -16 -8 -4 -100 -31 -203 -59 -104 -28 -212 -62 -240 -75 -47 -21
-232 -125 -333 -187 -57 -34 -224 -108 -246 -108 -5 0 -44 -17 -86 -38 -42
-21 -108 -49 -147 -62 -61 -20 -181 -75 -195 -90 -6 -6 -25 -17 -88 -54 l-42
-25 7 27 c5 15 8 108 8 207 l0 180 -43 88 c-32 66 -47 87 -62 87 -18 0 -20 -7
-20 -72 0 -86 -27 -151 -71 -173 -16 -9 -45 -32 -65 -52 -34 -34 -37 -35 -47
-17 -15 27 -27 34 -64 34 -17 0 -34 4 -37 9 -4 5 -24 12 -45 16 -35 6 -40 10
-46 42 -8 45 -44 123 -56 123 -5 0 -9 6 -9 14 0 16 -101 126 -116 126 -6 0
-21 12 -35 26 -29 32 -71 54 -100 54 -19 0 -21 -4 -16 -42 3 -24 9 -58 13 -76
6 -29 3 -36 -22 -55 -57 -45 -143 -136 -167 -178 -26 -47 -41 -91 -52 -151 -6
-37 -35 -56 -35 -23 0 23 -28 18 -54 -10 -13 -14 -30 -25 -38 -25 -31 0 -110
-33 -116 -49 -9 -24 -28 -40 -64 -56 -19 -7 -42 -23 -52 -34 -11 -12 -25 -21
-33 -21 -8 0 -27 -14 -43 -32 -28 -31 -30 -31 -68 -19 -22 8 -71 38 -108 68
-38 30 -85 63 -104 73 -50 26 -119 96 -165 167 -22 35 -46 63 -52 63 -7 0 -13
11 -13 24 0 14 -7 31 -15 40 -8 8 -15 19 -15 25 0 5 -18 45 -39 88 -22 43 -49
101 -61 128 -12 28 -30 68 -41 91 -10 22 -19 46 -19 52 0 7 -4 12 -10 12 -5 0
-10 4 -10 10 0 5 -11 34 -25 65 -28 61 -89 274 -107 375 -8 42 -18 70 -31 80
-11 8 -50 44 -88 79 l-69 64 0 57 c0 56 -1 58 -35 74 -22 11 -47 15 -67 11
-29 -5 -39 0 -78 36 -107 99 -138 127 -195 172 -33 26 -69 56 -80 66 -11 9
-51 39 -90 66 -38 26 -113 80 -165 119 -86 63 -109 75 -240 118 -80 27 -167
56 -195 63 -96 28 -248 85 -308 115 -20 11 -70 25 -110 30 -122 18 -188 29
-302 50 -127 23 -243 25 -298 5z"/>
</g>
</svg>
