<?xml version="1.0" standalone="no"?>
<!DOCTYPE svg PUBLIC "-//W3C//DTD SVG 20010904//EN"
 "http://www.w3.org/TR/2001/REC-SVG-20010904/DTD/svg10.dtd">
<svg version="1.0" xmlns="http://www.w3.org/2000/svg"
 width="661.000000pt" height="393.000000pt" viewBox="0 0 661.000000 393.000000"
 preserveAspectRatio="xMidYMid meet">
<metadata>
Created by potrace 1.13, written by Peter Selinger 2001-2015
</metadata>
<g transform="translate(0.000000,393.000000) scale(0.100000,-0.100000)"
fill="#000000" stroke="none">
<path d="M910 3913 c-14 -2 -72 -10 -130 -19 -353 -52 -571 -120 -665 -206
-47 -42 -95 -111 -95 -136 0 -17 8 -19 63 -20 47 -1 77 -8 115 -27 28 -14 52
-29 54 -33 2 -4 15 -17 30 -28 63 -49 157 -198 158 -251 1 -24 23 -105 33
-120 5 -7 19 -13 33 -13 54 0 162 -36 224 -74 87 -53 210 -154 210 -171 0 -7
4 -15 8 -17 11 -4 69 -92 102 -153 32 -61 66 -193 75 -298 11 -118 27 -171 52
-175 13 -2 26 4 32 16 26 49 161 53 253 7 151 -76 243 -171 327 -337 65 -130
90 -224 97 -363 8 -147 -6 -243 -42 -292 -16 -21 -29 -39 -30 -41 -1 -2 -22 2
-48 9 -60 15 -92 6 -113 -34 -22 -40 -27 -133 -8 -141 8 -3 21 -21 30 -40 17
-35 19 -36 76 -36 50 0 59 3 59 18 0 10 -5 23 -11 29 -16 16 -4 43 20 43 11 0
40 9 66 20 66 28 82 26 99 -15 8 -19 29 -56 47 -81 17 -25 37 -67 45 -93 16
-58 42 -136 59 -181 30 -78 65 -207 66 -240 1 -19 4 -46 8 -59 5 -20 8 -21 18
-9 7 7 17 36 23 63 9 44 25 87 69 185 42 93 187 215 311 260 27 10 65 28 83
39 26 16 51 21 100 21 71 0 66 -2 139 78 33 36 92 65 117 57 21 -6 86 -139 76
-155 -4 -6 -4 -22 -1 -36 6 -22 12 -24 59 -24 61 0 80 12 96 59 20 61 14 125
-14 155 -14 15 -25 35 -25 45 0 76 313 370 480 450 30 14 57 29 58 34 2 4 10
7 19 7 8 0 29 6 46 14 101 46 296 87 418 87 84 0 254 -25 274 -41 6 -4 27 -13
47 -19 61 -20 130 -60 170 -98 42 -41 75 -40 98 2 7 14 17 25 22 25 4 0 8 5 8
10 0 12 157 254 191 296 56 66 139 149 199 198 64 53 213 156 224 156 4 0 23
10 44 23 69 43 180 86 247 97 69 11 177 -1 202 -22 6 -5 24 -8 39 -6 21 2 30
11 40 41 7 21 32 54 55 75 23 20 54 48 69 62 72 67 205 109 348 110 47 0 52 2
52 22 0 41 -110 169 -210 244 -99 75 -321 186 -495 248 -175 62 -427 75 -740
36 -158 -19 -318 -51 -355 -70 -19 -11 -46 -21 -60 -24 -14 -3 -50 -27 -80
-54 -30 -27 -75 -59 -99 -71 -56 -29 -205 -132 -251 -174 -31 -29 -39 -32 -74
-26 -39 6 -86 46 -86 72 0 15 -51 47 -74 47 -9 0 -16 5 -16 10 0 6 -8 10 -17
10 -10 0 -30 6 -45 14 -15 8 -42 17 -60 21 -18 4 -48 16 -66 27 -29 18 -43 20
-115 14 -94 -8 -187 -27 -187 -38 0 -5 -11 -8 -25 -8 -14 0 -25 -4 -25 -10 0
-5 -19 -14 -42 -21 -23 -6 -50 -20 -59 -30 -9 -10 -22 -19 -28 -19 -14 0 -95
-50 -99 -61 -2 -5 -9 -9 -16 -9 -6 0 -19 -8 -28 -17 -18 -20 -25 -25 -83 -68
-22 -17 -46 -36 -53 -42 -7 -7 -17 -13 -22 -13 -5 0 -20 -11 -34 -25 -14 -14
-29 -25 -33 -25 -13 0 -98 -82 -116 -113 -17 -26 -19 -26 -45 -13 -45 24 -88
73 -136 154 -54 93 -94 180 -180 387 -112 273 -226 457 -343 553 -68 57 -292
170 -478 242 -60 23 -119 46 -130 51 -79 35 -234 74 -355 89 -80 9 -286 12
-340 3z"/>
</g>
</svg>
