<?xml version="1.0" standalone="no"?>
<!DOCTYPE svg PUBLIC "-//W3C//DTD SVG 20010904//EN"
 "http://www.w3.org/TR/2001/REC-SVG-20010904/DTD/svg10.dtd">
<svg version="1.0" xmlns="http://www.w3.org/2000/svg"
 width="197.000000pt" height="249.000000pt" viewBox="0 0 197.000000 249.000000"
 preserveAspectRatio="xMidYMid meet">
<metadata>
Created by potrace 1.13, written by Peter Selinger 2001-2015
</metadata>
<g transform="translate(0.000000,249.000000) scale(0.100000,-0.100000)"
fill="#000000" stroke="none">
<path d="M1540 2461 c-5 -11 -10 -36 -10 -56 0 -37 -12 -56 -42 -68 -12 -4
-18 -17 -18 -37 0 -20 -5 -30 -15 -30 -10 0 -15 -10 -15 -30 0 -23 -5 -30 -19
-30 -23 0 -31 -19 -31 -76 0 -24 -5 -44 -10 -44 -6 0 -10 -12 -11 -27 -1 -85
-12 -163 -25 -174 -8 -6 -16 -10 -18 -8 -1 2 -15 21 -31 42 -30 41 -117 97
-150 97 -11 0 -27 5 -35 11 -11 8 -5 9 25 4 122 -19 112 -20 118 11 4 16 3 47
-1 69 -6 34 -11 40 -32 40 -21 0 -26 -5 -28 -34 -3 -33 -4 -33 -40 -27 -20 3
-46 6 -58 6 -15 0 -26 12 -39 40 -15 34 -23 40 -48 40 -27 0 -29 -2 -23 -30 5
-25 2 -30 -14 -30 -11 0 -20 -4 -20 -10 0 -5 -10 -10 -22 -9 l-23 0 23 11 c14
7 22 20 22 36 0 22 -3 24 -32 18 -30 -5 -55 -26 -76 -61 -4 -7 -30 -15 -58
-18 -49 -5 -50 -5 -61 24 -9 24 -17 30 -35 27 -17 -2 -24 -11 -26 -33 -5 -41
16 -105 33 -105 21 0 19 -17 -2 -25 -10 -3 -36 -30 -58 -59 -27 -36 -44 -51
-51 -45 -12 10 -29 126 -25 167 1 12 -2 22 -7 22 -6 0 -13 36 -17 80 -6 69
-10 80 -26 80 -15 0 -19 -8 -20 -37 l-1 -38 -11 44 c-6 25 -19 53 -29 63 -10
10 -18 25 -18 33 0 8 -4 15 -10 15 -5 0 -10 9 -10 20 0 13 -7 20 -20 20 -16 0
-20 7 -20 33 0 29 -4 33 -40 45 -22 6 -49 12 -61 12 -20 0 -21 -4 -16 -45 3
-33 12 -52 31 -68 14 -13 26 -30 26 -39 0 -9 7 -18 15 -22 8 -3 15 -12 15 -21
0 -8 6 -15 14 -15 8 0 16 -7 20 -15 4 -10 -1 -15 -14 -15 -29 0 -27 -46 2 -61
13 -7 29 -18 36 -26 11 -11 9 -13 -12 -13 -40 0 -35 -40 7 -61 26 -13 31 -21
29 -44 -2 -17 4 -36 17 -49 37 -39 95 -178 92 -219 -3 -42 -39 -116 -73 -150
-13 -13 -34 -40 -48 -60 -14 -20 -28 -37 -32 -37 -5 0 -8 -7 -8 -15 0 -8 -3
-15 -8 -15 -4 0 -16 -16 -26 -35 -10 -19 -27 -37 -37 -40 -18 -6 -35 -57 -24
-75 3 -5 -1 -10 -10 -10 -12 0 -16 -7 -13 -27 2 -21 -3 -29 -29 -42 -18 -9
-33 -22 -33 -28 0 -7 -7 -13 -15 -13 -8 0 -15 -4 -15 -9 0 -5 -17 -20 -37 -32
-21 -13 -45 -31 -55 -41 -10 -10 -21 -18 -25 -18 -9 0 -33 -48 -33 -66 0 -6 9
-14 20 -17 12 -3 20 -14 20 -26 0 -16 6 -21 25 -21 20 0 25 5 25 25 0 14 4 25
9 25 5 0 12 11 15 25 4 16 13 25 25 25 10 0 21 7 25 15 3 8 15 15 26 15 13 0
20 7 20 20 0 13 7 20 18 20 10 0 26 14 36 32 17 28 20 29 31 15 19 -26 44 -21
51 11 12 54 16 62 30 62 9 0 14 11 14 29 0 16 6 36 13 43 7 7 21 42 32 78 l19
64 18 -99 c9 -55 22 -115 27 -134 9 -28 8 -38 -4 -51 -8 -9 -15 -28 -15 -41 0
-13 -5 -40 -11 -59 -15 -47 -21 -522 -7 -531 7 -4 5 -18 -5 -40 -32 -72 -43
-112 -30 -116 10 -4 10 -9 0 -26 -7 -12 -16 -25 -21 -28 -5 -4 -6 -17 -3 -30
3 -12 -1 -35 -9 -50 -7 -15 -14 -46 -14 -69 0 -29 -4 -40 -15 -40 -18 0 -20
-52 -4 -99 10 -28 15 -31 50 -31 37 0 41 3 59 43 22 46 25 77 10 77 -5 0 -10
16 -10 35 0 19 5 35 10 35 6 0 10 18 10 40 0 22 4 40 10 40 5 0 13 18 16 40 4
22 10 40 14 40 4 0 11 30 15 67 8 80 15 100 25 82 5 -7 18 -9 35 -5 24 6 27
10 21 39 -3 18 -7 82 -9 142 -2 61 -7 126 -10 145 -4 19 -9 55 -12 80 -4 25
-13 59 -21 77 -8 17 -14 42 -14 55 0 23 0 23 25 -6 14 -16 25 -32 25 -35 0
-15 121 -131 170 -163 77 -51 100 -58 190 -58 138 0 224 52 336 205 24 32 44
52 44 43 0 -9 6 -19 13 -21 9 -4 9 -7 -1 -15 -10 -6 -12 -28 -9 -75 2 -36 0
-70 -5 -75 -7 -7 -13 -175 -8 -222 1 -8 -4 -30 -11 -48 -12 -28 -12 -34 1 -42
25 -16 47 -11 55 13 7 21 8 21 15 -8 4 -16 8 -47 9 -68 1 -30 6 -40 21 -44 15
-4 18 -11 14 -29 -4 -13 1 -32 10 -46 9 -12 16 -41 16 -64 0 -29 5 -44 16 -48
14 -5 15 -15 10 -56 -6 -45 -5 -50 13 -50 14 0 21 -8 23 -27 4 -33 37 -43 62
-18 20 20 20 85 1 140 -8 22 -15 47 -15 56 0 9 -6 22 -14 28 -8 7 -12 20 -9
29 2 10 -3 30 -11 46 -8 16 -12 35 -9 43 3 7 -9 40 -26 72 -35 67 -36 71 -17
71 12 0 14 27 14 153 0 83 -3 156 -6 161 -3 6 -7 42 -9 80 -2 39 -8 73 -12 76
-9 6 -24 51 -41 130 -9 42 -9 62 0 85 6 17 14 69 17 118 5 76 8 85 19 68 7
-10 23 -48 35 -85 12 -36 25 -66 29 -66 4 0 5 -10 3 -22 -3 -14 4 -32 16 -45
12 -12 21 -31 21 -43 0 -31 38 -26 46 5 l6 26 16 -23 c20 -28 32 -40 57 -54
11 -6 24 -20 30 -31 5 -12 22 -24 38 -27 35 -7 56 -31 57 -63 0 -35 35 -63 75
-63 29 0 37 5 45 26 6 15 8 42 4 61 -6 30 -10 34 -30 30 -14 -2 -24 1 -24 7 0
17 -85 99 -112 109 -10 3 -18 13 -18 22 0 8 -6 15 -14 15 -8 0 -28 8 -45 18
-31 17 -40 32 -21 32 6 0 10 9 10 20 0 11 -4 20 -10 20 -5 0 -10 7 -10 15 0 8
-4 15 -9 15 -5 0 -12 13 -16 29 -3 17 -14 31 -26 34 -13 3 -19 14 -19 31 0 16
-6 26 -15 26 -8 0 -15 4 -15 8 0 9 -21 36 -59 77 -10 11 -21 30 -25 42 -4 12
-15 25 -25 28 -31 10 -77 69 -88 113 -10 39 -8 47 31 124 22 45 47 89 54 96
15 16 16 58 1 67 -6 4 0 16 15 29 18 14 26 32 26 53 0 22 7 35 25 47 31 20 34
56 5 56 -11 0 -20 4 -20 8 0 15 30 69 45 82 8 7 15 21 15 32 0 10 7 21 15 24
8 4 15 15 15 25 0 10 5 19 10 19 6 0 10 18 10 40 0 29 -5 42 -19 50 -31 16
-69 12 -81 -9z m-93 -283 c-3 -8 -6 -5 -6 6 -1 11 2 17 5 13 3 -3 4 -12 1 -19z
m-120 -484 c-3 -3 -12 -4 -19 -1 -8 3 -5 6 6 6 11 1 17 -2 13 -5z m-417 -341
c0 -47 -2 -84 -4 -82 -2 2 -7 41 -10 87 -5 56 -4 82 3 82 7 0 11 -32 11 -87z"/>
</g>
</svg>
