<?xml version="1.0" standalone="no"?>
<!DOCTYPE svg PUBLIC "-//W3C//DTD SVG 20010904//EN"
 "http://www.w3.org/TR/2001/REC-SVG-20010904/DTD/svg10.dtd">
<svg version="1.0" xmlns="http://www.w3.org/2000/svg"
 width="613.000000pt" height="660.000000pt" viewBox="0 0 613.000000 660.000000"
 preserveAspectRatio="xMidYMid meet">
<metadata>
Created by potrace 1.13, written by Peter Selinger 2001-2015
</metadata>
<g transform="translate(0.000000,660.000000) scale(0.100000,-0.100000)"
fill="#000000" stroke="none">
<path d="M2420 6435 c-5 -14 -14 -25 -20 -25 -5 0 -10 -9 -10 -20 0 -11 5 -20
10 -20 6 0 10 -6 10 -13 0 -7 11 -23 25 -35 14 -12 25 -31 25 -42 0 -21 27
-40 59 -40 27 0 61 -29 61 -53 0 -9 6 -20 13 -23 8 -3 20 -20 27 -39 8 -19 19
-35 26 -35 7 0 17 -6 21 -14 4 -7 15 -15 23 -18 10 -3 15 -22 16 -66 1 -42 6
-66 18 -78 24 -23 36 -58 36 -100 0 -19 5 -34 10 -34 6 0 10 -13 10 -30 0 -16
5 -30 10 -30 6 0 10 -9 10 -20 0 -11 4 -20 9 -20 5 0 12 -16 15 -35 4 -19 14
-42 23 -51 13 -13 14 -17 3 -24 -10 -6 -13 -33 -11 -100 1 -81 4 -95 23 -110
19 -15 20 -20 10 -50 -21 -59 -10 -120 26 -143 17 -11 15 -76 -3 -83 -17 -7
-21 -50 -5 -56 14 -4 31 -124 24 -166 -9 -48 4 -122 22 -122 17 0 17 5 19
-115 2 -63 7 -101 14 -103 6 -2 11 -14 11 -27 0 -13 5 -27 10 -30 6 -3 10 -15
10 -26 0 -10 5 -19 10 -19 6 0 10 -16 10 -35 0 -19 -5 -35 -11 -35 -6 0 -3 -7
6 -16 9 -9 15 -30 14 -47 -3 -46 10 -94 27 -101 8 -3 14 -12 14 -21 0 -8 7
-15 15 -15 8 0 15 -7 15 -15 0 -10 -10 -15 -30 -15 -19 0 -33 -7 -40 -21 -6
-11 -24 -32 -40 -48 -19 -18 -32 -42 -36 -69 -4 -24 -12 -42 -19 -42 -7 0 -15
-9 -18 -20 -6 -24 -45 -27 -53 -5 -4 9 -20 15 -43 15 -47 0 -57 8 -64 50 -10
59 -31 130 -39 130 -5 0 -8 6 -8 14 0 8 -8 21 -18 28 -10 7 -21 21 -25 31 -3
9 -13 17 -21 17 -19 0 -22 12 -18 61 3 23 9 39 17 39 16 0 25 23 25 66 0 19 4
34 9 34 5 0 11 22 15 50 4 27 13 55 20 63 14 13 25 91 31 212 4 75 -1 95 -25
95 -13 0 -22 9 -26 28 -4 15 -12 30 -18 35 -8 5 -6 10 4 17 13 8 13 11 1 19
-7 5 -16 31 -19 59 -3 38 -9 51 -23 55 -14 4 -19 14 -19 41 0 25 -5 36 -14 36
-8 0 -17 9 -21 19 -3 12 -22 23 -50 30 -28 7 -45 17 -45 26 0 8 -4 15 -10 15
-5 0 -10 7 -10 15 0 8 5 15 10 15 17 0 11 39 -10 60 -21 21 -50 27 -50 10 0
-5 -7 -10 -15 -10 -8 0 -15 -9 -15 -19 0 -12 -9 -23 -22 -27 -13 -4 -35 -19
-51 -33 -22 -21 -26 -32 -21 -56 12 -65 12 -65 65 -65 l49 0 0 -34 c0 -52 11
-96 25 -96 6 0 17 -11 23 -25 6 -14 16 -25 22 -25 5 0 10 -20 10 -45 0 -25 5
-45 10 -45 6 0 10 -9 10 -20 0 -11 5 -20 10 -20 6 0 10 -7 10 -15 0 -8 -5 -15
-10 -15 -6 0 -2 -10 9 -21 18 -19 20 -32 16 -111 -5 -106 -14 -158 -26 -158
-5 0 -9 -22 -9 -49 0 -30 -5 -52 -12 -55 -10 -5 -10 -7 0 -12 14 -7 16 -34 2
-34 -5 0 -10 -6 -10 -14 0 -8 -6 -17 -12 -20 -10 -5 -10 -7 0 -12 8 -4 12 -35
12 -105 0 -59 4 -99 10 -99 6 0 10 -16 10 -35 0 -19 4 -35 9 -35 4 0 11 -28
15 -62 3 -38 12 -67 21 -74 8 -6 15 -22 15 -36 0 -33 19 -88 31 -88 14 0 11
-30 -5 -46 -11 -11 -16 -11 -19 -1 -4 9 -6 9 -6 0 -1 -8 -16 -13 -41 -13 -32
0 -40 -4 -40 -18 0 -12 -12 -21 -41 -29 -36 -9 -44 -8 -60 8 -10 10 -19 24
-19 29 0 6 -18 10 -40 10 -22 0 -40 4 -40 9 0 16 -141 27 -215 17 -57 -8 -75
-15 -96 -37 -14 -15 -39 -31 -55 -35 -16 -3 -33 -12 -39 -19 -5 -6 -22 -15
-36 -18 -15 -4 -29 -16 -32 -26 -3 -13 -17 -22 -41 -26 -20 -4 -36 -13 -36
-20 0 -8 -8 -16 -18 -19 -9 -3 -23 -19 -30 -35 -9 -21 -22 -31 -48 -36 -19 -3
-37 -12 -40 -20 -3 -8 -14 -17 -25 -20 -10 -4 -19 -12 -19 -20 0 -16 -22 -25
-65 -25 -19 0 -38 -6 -42 -12 -4 -7 -17 -18 -28 -24 -15 -9 -20 -21 -19 -48 1
-33 -1 -36 -27 -36 -22 0 -29 -5 -29 -19 0 -13 -10 -21 -32 -25 -18 -4 -44
-18 -57 -31 -15 -17 -34 -25 -57 -25 -37 0 -77 -31 -89 -70 -9 -29 -33 -49
-58 -50 -20 0 -51 -27 -60 -52 -4 -10 -16 -18 -27 -18 -11 0 -20 -7 -20 -15 0
-8 -4 -15 -10 -15 -5 0 -10 -11 -10 -25 0 -14 4 -25 8 -25 15 0 72 -53 72 -67
0 -21 25 -43 49 -43 14 0 23 9 27 28 4 15 12 31 18 35 8 6 7 10 -1 14 -21 8
-15 57 7 71 11 7 20 19 20 27 0 25 66 20 73 -5 3 -11 13 -20 22 -20 9 0 19 9
22 20 3 11 9 20 14 20 5 0 14 11 19 25 7 18 17 25 37 25 20 0 34 9 48 30 20
30 35 39 35 20 0 -5 5 -10 10 -10 6 0 10 7 10 15 0 8 5 15 10 15 6 0 10 10 10
21 0 20 4 21 49 15 46 -6 52 -4 80 23 17 17 31 37 31 46 0 9 8 19 18 22 22 9
69 59 77 82 3 10 23 26 45 36 22 10 40 22 40 26 0 5 14 12 32 17 25 6 34 15
40 40 12 44 40 70 80 74 23 2 36 10 43 26 5 12 13 22 17 22 5 0 8 6 8 14 0 9
15 17 40 21 43 7 60 2 60 -21 0 -8 6 -14 13 -14 8 0 24 -9 37 -20 13 -11 35
-23 49 -27 27 -7 60 -33 42 -33 -5 0 -13 -15 -16 -33 -5 -26 -14 -37 -39 -47
-23 -9 -37 -23 -45 -46 -7 -19 -18 -34 -25 -34 -7 0 -26 -13 -42 -30 -84 -85
-104 -108 -104 -118 0 -6 -9 -16 -20 -22 -11 -6 -20 -17 -20 -25 0 -8 -7 -15
-15 -15 -8 0 -15 -6 -15 -12 0 -7 -20 -32 -45 -56 -25 -24 -45 -52 -45 -62 0
-11 -10 -25 -22 -31 -27 -15 -68 -55 -68 -68 0 -5 -13 -12 -30 -16 -16 -4 -30
-11 -30 -16 0 -5 -18 -9 -40 -9 -22 0 -40 -4 -40 -10 0 -5 -11 -10 -25 -10
-14 0 -25 -4 -25 -10 0 -5 -12 -10 -27 -10 -39 0 -103 -19 -103 -30 0 -6 -7
-10 -15 -10 -19 0 -58 -21 -68 -37 -4 -7 -14 -13 -21 -13 -8 0 -17 -16 -20
-35 -6 -30 -12 -37 -37 -42 -17 -3 -33 -12 -36 -19 -3 -8 -12 -14 -19 -14 -8
0 -19 -11 -24 -25 -5 -14 -16 -25 -25 -25 -8 0 -15 -5 -15 -10 0 -6 -11 -20
-25 -32 -14 -12 -25 -27 -25 -34 0 -7 -9 -16 -20 -19 -11 -3 -20 -11 -20 -16
0 -5 -7 -9 -15 -9 -8 0 -18 -12 -21 -27 -7 -26 -38 -63 -54 -63 -3 0 -12 -16
-19 -35 -7 -19 -19 -35 -27 -35 -8 0 -17 -7 -20 -15 -4 -8 -30 -40 -60 -70
-30 -30 -54 -64 -54 -75 0 -11 -4 -20 -9 -20 -5 0 -26 -16 -45 -35 -20 -19
-43 -35 -50 -35 -8 0 -21 -6 -28 -13 -26 -24 -66 -39 -88 -32 -17 5 -23 2 -27
-14 -3 -12 -10 -21 -17 -21 -89 -4 -108 -9 -135 -37 -16 -17 -48 -35 -77 -43
-27 -7 -53 -19 -57 -27 -5 -8 -28 -13 -62 -13 -43 0 -55 -3 -55 -15 0 -9 -7
-18 -15 -21 -9 -4 -15 -19 -15 -38 0 -23 7 -36 30 -51 16 -11 30 -26 30 -32 0
-7 9 -13 19 -13 11 0 27 -7 35 -16 15 -14 17 -14 32 0 8 9 20 16 25 16 5 0 9
7 9 14 0 8 11 27 25 42 21 23 34 28 76 28 34 1 53 -4 59 -14 7 -10 12 -11 18
-4 4 6 28 16 55 24 26 7 47 16 47 20 0 4 11 12 25 18 14 6 25 18 25 26 0 10
15 17 45 22 25 3 45 10 45 14 0 4 9 10 21 13 11 3 23 15 26 26 8 30 23 26 60
-14 39 -42 50 -44 59 -8 4 15 13 34 21 41 7 7 13 29 13 48 0 22 5 34 14 34 8
0 20 20 27 45 7 25 17 45 21 45 4 0 8 8 8 18 0 10 9 24 20 32 12 8 26 34 32
57 6 27 17 45 29 48 10 4 19 11 19 16 0 5 13 23 30 39 16 16 30 34 30 39 0 5
9 16 21 24 11 8 24 28 28 43 6 22 14 30 36 32 31 4 69 38 80 72 3 11 12 20 20
20 8 0 17 9 20 20 3 11 13 20 21 20 8 0 17 7 20 15 4 10 20 15 50 15 40 0 44
-2 44 -25 0 -13 -11 -35 -25 -49 -14 -14 -25 -27 -25 -30 0 -3 -11 -17 -25
-32 -14 -15 -25 -35 -25 -45 0 -11 -5 -19 -11 -19 -15 0 -69 -52 -69 -66 0 -7
-7 -14 -14 -17 -8 -3 -18 -22 -21 -41 -4 -19 -13 -37 -21 -40 -8 -3 -14 -12
-14 -20 0 -7 -9 -16 -20 -19 -11 -3 -20 -14 -20 -25 0 -10 -9 -29 -19 -41 -11
-13 -23 -36 -26 -52 -4 -16 -10 -29 -14 -29 -10 0 -31 -46 -31 -70 0 -10 -9
-22 -20 -25 -11 -3 -20 -13 -20 -21 0 -8 -4 -14 -10 -14 -6 0 -10 -33 -10 -80
0 -47 4 -80 10 -80 6 0 10 -13 10 -30 0 -16 5 -30 10 -30 6 0 10 -6 10 -14 0
-7 9 -16 20 -19 11 -3 20 -13 20 -22 0 -9 16 -33 35 -52 19 -19 35 -45 35 -57
0 -36 12 -66 26 -66 7 0 17 -7 22 -15 5 -9 34 -20 72 -26 41 -6 70 -17 80 -30
10 -10 23 -19 30 -19 7 0 18 -8 25 -17 9 -13 32 -18 84 -21 39 -2 71 -8 71
-13 0 -5 20 -9 45 -9 25 0 45 4 45 9 0 5 14 12 30 16 17 4 30 11 30 17 0 15
27 38 44 38 9 0 16 5 16 10 0 6 14 10 30 10 23 0 33 6 40 24 12 33 50 76 67
76 7 0 13 7 13 15 0 8 5 15 10 15 6 0 38 27 71 60 33 33 64 60 69 60 6 0 10 6
10 14 0 8 8 17 18 21 11 3 24 16 30 30 16 34 53 75 69 75 7 0 13 7 13 15 0 7
6 18 13 22 6 4 18 20 26 36 18 35 26 34 41 -3 17 -42 8 -160 -14 -176 -9 -6
-16 -15 -16 -20 0 -5 -11 -22 -25 -38 -14 -16 -25 -33 -25 -38 0 -4 -9 -8 -21
-8 -34 0 -57 -18 -64 -51 -7 -30 -37 -69 -53 -69 -4 0 -14 -9 -22 -21 -8 -11
-23 -30 -32 -41 -10 -12 -18 -24 -18 -28 0 -18 -62 -69 -87 -72 -20 -2 -29 -9
-31 -25 -2 -13 -13 -24 -28 -27 -13 -4 -24 -13 -24 -21 0 -7 -9 -17 -20 -20
-11 -3 -20 -10 -20 -15 0 -5 -18 -14 -40 -20 -22 -6 -40 -15 -40 -20 0 -4 -14
-11 -31 -15 -33 -7 -56 -43 -45 -71 5 -14 16 -15 71 -9 60 6 65 5 65 -13 0
-10 -11 -24 -24 -30 -15 -6 -27 -23 -31 -41 -4 -17 -10 -31 -15 -31 -4 0 -11
-39 -15 -88 -5 -66 -12 -91 -26 -105 -25 -23 -24 -58 1 -80 26 -22 27 -86 1
-115 -19 -22 -61 -30 -61 -12 0 6 -7 10 -15 10 -17 0 -28 -35 -23 -76 2 -24 9
-30 38 -34 38 -7 80 -36 80 -58 0 -7 7 -15 15 -18 8 -4 15 -12 15 -20 0 -8 9
-14 20 -14 11 0 20 7 20 15 0 8 8 15 19 15 23 0 36 39 15 47 -17 6 -19 30 -2
35 7 3 14 37 17 89 4 62 11 90 24 103 20 20 19 13 22 139 1 57 6 102 13 105 5
4 13 25 17 47 11 65 13 69 44 83 21 9 32 23 36 45 12 59 15 65 45 77 16 7 32
21 35 31 4 10 11 19 16 19 5 0 9 7 9 15 0 8 7 15 15 15 8 0 15 7 15 15 0 7 6
18 13 22 7 4 19 23 26 40 9 22 24 36 46 44 24 9 35 20 39 40 3 16 22 46 43 68
55 58 60 65 68 99 3 18 13 32 20 32 8 0 20 10 26 22 7 13 18 29 26 36 7 7 13
22 13 32 0 11 8 27 19 37 10 10 22 29 26 43 4 14 16 32 26 41 11 9 19 24 19
33 0 9 5 16 10 16 6 0 10 7 10 15 0 8 -4 15 -10 15 -5 0 -10 7 -10 15 0 8 5
15 10 15 6 0 10 23 10 50 0 28 -4 50 -10 50 -5 0 -10 9 -10 20 0 11 5 20 10
20 6 0 10 20 10 45 0 44 11 74 38 103 6 7 12 20 12 27 0 7 10 15 23 17 14 2
23 11 25 26 2 12 10 22 18 22 8 0 14 7 14 15 0 9 6 18 14 21 8 3 20 19 26 35
7 16 16 29 21 29 5 0 14 11 19 25 5 14 17 28 25 31 8 4 15 12 15 20 0 8 5 14
10 14 6 0 10 4 10 10 0 5 13 22 29 37 15 16 31 38 35 51 4 12 16 27 26 32 11
6 22 26 26 45 3 20 12 35 20 35 8 0 14 7 14 15 0 9 11 21 25 27 14 6 25 17 25
25 0 7 5 13 10 13 6 0 10 6 10 13 0 6 4 18 9 26 13 21 68 -6 82 -41 6 -15 24
-33 39 -40 34 -15 45 -55 34 -126 -5 -33 -15 -55 -35 -74 -16 -15 -32 -40 -35
-54 -4 -15 -15 -29 -25 -31 -12 -3 -19 -14 -19 -29 0 -13 -8 -31 -19 -41 -10
-10 -22 -33 -26 -51 -3 -17 -11 -32 -16 -32 -5 0 -9 -8 -9 -18 0 -10 -11 -28
-25 -40 -14 -12 -25 -26 -25 -32 0 -5 -4 -10 -10 -10 -17 0 -70 -62 -70 -82 0
-11 9 -22 20 -25 28 -8 26 -48 -5 -75 -14 -12 -25 -30 -25 -40 0 -10 -4 -18
-10 -18 -5 0 -10 -13 -10 -28 0 -30 -20 -82 -32 -82 -5 0 -8 -9 -8 -19 0 -11
-9 -22 -19 -26 -11 -3 -23 -15 -26 -26 -9 -28 4 -99 18 -99 8 0 9 -3 1 -8 -5
-4 -15 -23 -20 -42 -8 -27 -15 -35 -34 -37 -14 0 -33 -1 -42 -2 -10 -1 -18 -8
-18 -16 0 -8 -7 -15 -15 -15 -8 0 -15 -9 -15 -20 0 -11 6 -20 13 -20 6 0 23
-12 36 -25 13 -14 31 -25 41 -25 10 0 20 -6 23 -14 8 -21 65 -30 93 -15 26 13
32 44 12 52 -9 3 -6 10 10 22 12 9 22 22 22 29 0 8 6 16 14 19 7 3 16 19 19
36 4 17 12 31 19 31 45 1 79 85 48 117 -14 16 -15 19 -2 29 9 6 15 30 17 59 1
27 7 51 13 53 6 2 16 28 23 57 10 44 17 57 40 67 22 10 29 22 39 70 7 32 16
58 19 58 4 0 13 22 20 50 7 27 17 50 22 50 5 0 14 20 21 45 7 25 16 45 20 45
4 0 8 9 8 19 0 11 9 22 19 26 21 6 25 16 36 78 3 20 10 37 14 37 5 0 12 16 15
35 4 19 15 43 26 53 16 15 18 31 17 125 -1 68 -6 110 -13 115 -7 4 -17 26 -23
50 -7 23 -15 42 -20 42 -4 0 -13 16 -21 35 -9 22 -20 35 -32 35 -11 0 -18 7
-18 20 0 11 -4 20 -10 20 -5 0 -10 16 -10 35 0 19 5 35 10 35 6 0 10 29 10 66
0 85 17 104 88 96 26 -3 49 -9 50 -13 2 -5 20 -9 41 -9 23 0 45 -7 59 -20 19
-18 35 -20 157 -20 74 0 135 4 135 9 0 5 18 11 40 15 23 3 43 12 46 20 3 8 41
18 104 26 81 11 101 17 106 32 4 12 15 18 36 18 17 0 36 7 43 16 7 10 32 19
63 22 29 2 52 8 52 13 0 14 78 11 83 -3 4 -10 6 -10 6 0 1 15 78 17 83 2 2 -6
19 -12 38 -14 84 -8 108 -17 120 -47 12 -27 40 -41 40 -19 0 6 7 10 15 10 8 0
15 6 16 13 0 6 5 2 11 -10 6 -13 15 -23 20 -23 13 0 9 -38 -4 -42 -15 -5 4
-28 40 -47 21 -11 55 -3 72 18 3 3 18 13 34 21 44 22 76 58 76 84 0 27 -39 51
-69 41 -16 -5 -31 5 -71 45 -27 28 -50 57 -50 65 0 7 -9 16 -19 20 -11 3 -21
12 -24 19 -4 9 -32 16 -79 21 -40 4 -76 12 -80 18 -3 6 -46 11 -98 11 -75 1
-94 4 -104 19 -19 25 -72 23 -79 -3 -3 -12 -14 -20 -26 -20 -12 0 -21 -4 -21
-9 0 -5 -11 -12 -25 -15 -14 -4 -25 -13 -25 -21 0 -9 -9 -15 -24 -15 -49 0
-84 -12 -89 -31 -4 -15 -14 -19 -46 -19 -27 0 -44 -5 -47 -14 -3 -8 -19 -18
-35 -21 -16 -4 -31 -11 -34 -16 -4 -5 -21 -9 -40 -9 -18 0 -35 -6 -37 -12 -3
-9 -9 -8 -22 4 -9 10 -35 23 -56 29 -22 7 -40 16 -40 20 0 4 -20 10 -45 13
-25 3 -65 9 -90 12 -29 4 -45 11 -45 20 0 8 -4 14 -10 14 -5 0 -10 15 -10 34
0 19 -4 38 -10 41 -19 12 -11 45 10 45 11 0 20 6 20 14 0 7 14 16 30 20 18 3
30 12 30 21 0 9 14 30 32 47 25 24 32 39 31 66 -1 46 20 70 42 48 9 -8 38 -18
65 -22 28 -4 50 -10 50 -15 0 -5 11 -9 25 -9 14 0 25 -4 25 -10 0 -5 11 -10
25 -10 14 0 25 5 25 10 0 6 7 10 15 10 8 0 15 5 15 10 0 6 9 10 20 10 11 0 20
-4 20 -10 0 -6 32 -10 75 -10 43 0 75 -4 75 -10 0 -5 11 -10 25 -10 14 0 25 5
25 10 0 6 27 10 60 10 33 0 60 -4 60 -10 0 -5 9 -10 20 -10 11 0 20 5 20 10 0
6 14 10 30 10 17 0 30 -4 30 -10 0 -5 6 -10 14 -10 8 0 17 -6 19 -12 4 -10 6
-10 6 0 1 6 8 12 16 12 8 0 15 5 15 10 0 6 16 10 35 10 19 0 35 -4 35 -10 0
-5 9 -10 20 -10 11 0 20 5 20 10 0 6 13 10 29 10 16 0 31 4 33 9 5 15 360 19
365 4 5 -15 63 -18 63 -3 0 6 30 10 70 10 40 0 70 -4 70 -10 0 -5 16 -10 35
-10 19 0 35 -4 35 -10 0 -5 7 -10 15 -10 8 0 15 5 15 10 0 6 23 10 50 10 28 0
50 -4 50 -10 0 -5 7 -10 15 -10 8 0 15 -4 15 -8 0 -5 47 -14 105 -22 58 -7
105 -17 105 -21 0 -14 28 -10 33 4 3 8 15 1 34 -19 17 -17 51 -37 77 -45 25
-7 46 -19 46 -26 0 -7 5 -13 10 -13 6 0 10 -4 10 -10 0 -20 51 -59 85 -66 20
-3 42 -13 50 -20 16 -16 45 -19 45 -4 0 6 9 10 19 10 28 0 31 10 24 68 -4 38
-10 52 -24 55 -11 3 -19 11 -19 19 0 8 -16 20 -35 28 -19 8 -35 17 -35 22 0 4
-18 11 -40 14 -22 4 -40 12 -40 19 0 29 -45 62 -94 69 -33 4 -54 13 -63 26 -8
11 -21 20 -29 20 -8 0 -14 5 -14 10 0 6 -11 10 -25 10 -14 0 -25 -4 -25 -10 0
-5 -7 -10 -15 -10 -8 0 -15 4 -15 8 0 5 -45 15 -100 22 -68 8 -100 16 -100 25
0 20 -27 26 -118 24 -60 -1 -87 2 -92 11 -17 28 -690 27 -690 -1 0 -14 -22
-10 -34 6 -6 9 -20 16 -31 16 -38 1 -105 -14 -105 -22 0 -15 -97 -11 -103 5
-4 10 -24 13 -79 12 -95 -3 -250 11 -257 23 -3 4 -21 12 -39 16 -18 4 -36 13
-39 21 -3 8 -16 14 -29 14 -32 0 -32 33 0 48 13 6 27 20 31 31 3 12 11 21 16
21 5 0 9 11 9 25 0 27 -27 65 -46 65 -7 0 -15 6 -17 13 -4 9 -8 9 -14 0 -4 -6
-21 -15 -36 -18 -17 -5 -29 -16 -33 -31 -3 -13 -13 -24 -20 -24 -8 0 -17 -7
-20 -15 -15 -38 -52 3 -40 43 8 23 -25 59 -62 69 -15 3 -32 12 -39 19 -15 15
-17 54 -3 54 6 0 10 8 10 18 0 10 9 28 20 39 15 17 16 22 5 27 -8 3 -18 18
-21 33 -4 15 -13 33 -20 40 -19 20 -52 16 -59 -7 -3 -11 -12 -20 -19 -20 -8 0
-16 -13 -19 -29 -7 -35 -32 -61 -58 -61 -13 0 -19 7 -19 21 0 28 -15 54 -59
99 l-38 39 -1 113 c-1 64 -7 114 -12 116 -6 2 -10 14 -10 26 0 12 -9 32 -19
43 -20 21 -26 70 -38 331 -3 68 -8 102 -16 102 -6 0 -21 11 -32 24 -18 21 -21
36 -19 93 2 73 -15 163 -31 163 -5 0 -3 5 5 11 11 8 12 12 3 16 -9 3 -13 26
-13 67 0 49 -4 67 -20 84 -12 12 -16 22 -10 22 5 0 10 9 10 20 0 11 -4 20 -10
20 -5 0 -12 23 -16 50 -4 32 -11 50 -20 50 -8 0 -14 7 -14 15 0 8 7 15 15 15
9 0 15 9 15 25 0 14 -5 25 -11 25 -16 0 -38 31 -39 53 0 9 -3 17 -7 17 -13 0
-33 53 -33 87 0 18 -4 33 -10 33 -5 0 -10 6 -10 14 0 13 -57 66 -72 66 -4 0
-8 9 -8 19 0 11 -4 22 -9 25 -4 3 -11 19 -14 35 -4 17 -14 39 -24 49 -10 10
-27 31 -37 45 -10 15 -25 27 -32 27 -7 0 -32 18 -55 40 -23 22 -50 42 -60 45
-11 4 -19 12 -19 20 0 15 -22 25 -56 25 -17 0 -27 -8 -34 -25z m1177 -2527
c-3 -8 -6 -5 -6 6 -1 11 2 17 5 13 3 -3 4 -12 1 -19z"/>
</g>
</svg>
