<?xml version="1.0" standalone="no"?>
<!DOCTYPE svg PUBLIC "-//W3C//DTD SVG 20010904//EN"
 "http://www.w3.org/TR/2001/REC-SVG-20010904/DTD/svg10.dtd">
<svg version="1.0" xmlns="http://www.w3.org/2000/svg"
 width="216.000000pt" height="217.000000pt" viewBox="0 0 216.000000 217.000000"
 preserveAspectRatio="xMidYMid meet">
<metadata>
Created by potrace 1.13, written by Peter Selinger 2001-2015
</metadata>
<g transform="translate(0.000000,217.000000) scale(0.100000,-0.100000)"
fill="#000000" stroke="none">
<path d="M1665 2150 c-3 -5 -15 -10 -26 -10 -10 0 -19 -7 -19 -15 0 -8 -4 -15
-10 -15 -5 0 -10 -15 -10 -34 0 -19 -7 -41 -15 -50 -8 -8 -15 -19 -15 -25 0
-6 -7 -11 -16 -11 -13 0 -15 -7 -9 -36 3 -20 13 -43 21 -51 8 -8 14 -18 14
-23 0 -5 3 -15 6 -24 4 -11 1 -16 -10 -16 -20 0 -21 -39 -1 -46 8 -4 15 -10
15 -15 0 -5 -7 -9 -15 -9 -11 0 -15 -12 -15 -45 0 -52 -15 -60 -25 -13 -4 17
-13 37 -19 44 -6 7 -24 29 -41 49 -59 70 -87 95 -106 95 -12 0 -19 7 -19 20 0
11 -4 20 -10 20 -5 0 -10 7 -10 15 0 8 -9 19 -20 25 -11 6 -20 17 -20 25 0 8
-6 15 -14 15 -8 0 -16 6 -19 14 -3 8 -19 17 -36 21 -17 4 -31 11 -31 16 0 5
-13 9 -30 9 -16 0 -30 4 -30 8 0 12 -92 37 -135 35 -22 0 -67 -14 -100 -31
-33 -16 -70 -32 -82 -36 -11 -4 -24 -13 -27 -21 -3 -8 -11 -15 -18 -15 -8 0
-20 -10 -28 -22 -8 -12 -23 -30 -33 -41 -11 -10 -17 -27 -14 -38 4 -15 0 -19
-19 -19 -13 0 -24 -4 -24 -9 0 -5 -13 -23 -30 -39 -17 -17 -30 -35 -30 -41 0
-5 -9 -13 -20 -16 -11 -3 -23 -18 -26 -32 -4 -14 -21 -40 -39 -59 l-32 -33 -8
67 c-10 94 -6 164 11 183 16 18 19 49 4 49 -5 0 -10 6 -10 14 0 7 -8 16 -19
19 -12 3 -21 17 -25 41 -4 20 -11 36 -16 36 -6 0 -10 9 -10 20 0 13 -12 25
-37 35 -44 19 -83 12 -83 -13 0 -28 17 -45 38 -40 17 5 21 0 24 -36 6 -52 1
-66 -24 -66 -17 0 -19 -5 -13 -39 4 -24 2 -42 -4 -46 -16 -9 -13 -45 4 -51 10
-4 12 -15 8 -36 -3 -16 0 -40 7 -52 9 -18 9 -29 1 -44 -20 -38 -12 -56 34 -84
34 -21 45 -34 45 -52 0 -16 7 -27 20 -31 11 -3 20 -15 20 -26 0 -10 4 -19 8
-19 5 0 15 -26 22 -57 17 -76 17 -75 3 -80 -7 -3 -13 2 -13 11 0 19 -36 22
-43 4 -4 -10 -6 -10 -6 0 -1 17 -41 15 -41 -3 0 -8 -7 -15 -15 -15 -8 0 -15
-9 -15 -20 0 -11 -4 -20 -8 -20 -14 0 -52 -36 -52 -49 0 -6 -4 -11 -10 -11 -5
0 -10 -9 -10 -20 0 -13 -7 -20 -19 -20 -14 0 -21 -10 -25 -35 -4 -19 -11 -35
-16 -35 -6 0 -10 -7 -10 -16 0 -8 -14 -20 -30 -25 -19 -7 -30 -18 -30 -30 0
-10 -4 -19 -10 -19 -5 0 -10 -16 -10 -35 0 -19 -5 -35 -11 -35 -7 0 -9 -10 -7
-25 4 -21 1 -25 -17 -25 -17 0 -24 -7 -29 -31 -3 -16 -12 -37 -20 -44 -8 -9
-14 -34 -14 -59 l0 -45 43 -6 c24 -4 52 -4 64 0 24 7 29 45 6 45 -8 0 -15 7
-15 15 0 8 5 15 10 15 6 0 10 9 10 20 0 11 6 20 14 20 7 0 16 9 19 21 3 11 15
23 26 26 12 3 21 9 21 14 0 4 5 20 11 36 l11 28 12 -30 c17 -40 43 -65 67 -65
20 0 26 28 10 46 -5 5 -12 19 -15 30 -6 19 -3 21 20 16 25 -5 26 -3 20 24 -18
80 -18 97 -1 149 9 30 21 55 26 55 5 0 9 7 9 15 0 23 15 18 49 -17 29 -30 42
-78 21 -78 -5 0 -10 -9 -10 -20 0 -12 7 -20 16 -20 14 0 14 -3 4 -15 -16 -20
-6 -144 15 -185 8 -16 15 -38 15 -50 0 -16 -6 -20 -35 -20 -19 0 -35 -4 -35
-10 0 -5 -5 -10 -11 -10 -17 0 -39 -27 -39 -49 0 -11 -6 -24 -14 -28 -10 -5
-17 -35 -22 -88 -3 -44 -13 -95 -22 -113 -8 -19 -16 -49 -17 -67 -1 -18 -5
-36 -7 -41 -3 -5 -6 -28 -6 -51 -1 -31 3 -43 14 -43 12 0 12 -4 4 -20 -15 -28
-2 -90 19 -91 10 0 11 -2 4 -6 -15 -6 -17 -43 -3 -43 6 0 10 -18 10 -40 0 -29
4 -40 15 -40 9 0 15 -9 15 -24 0 -16 7 -27 20 -31 11 -3 20 -11 20 -16 0 -5 9
-9 20 -9 11 0 20 5 20 10 0 6 17 10 38 10 21 0 43 5 50 12 17 17 15 48 -3 48
-8 0 -15 5 -15 10 0 6 -9 10 -19 10 -12 0 -21 10 -26 27 -3 15 -10 30 -15 33
-5 3 -11 35 -13 70 -3 36 -8 76 -12 90 -7 21 -2 19 33 -17 45 -46 82 -57 82
-24 0 11 -22 57 -49 103 -66 111 -87 176 -75 237 l9 46 70 6 c66 6 71 5 96
-20 91 -92 165 -141 212 -141 13 0 39 -11 58 -25 46 -35 131 -58 188 -53 25 3
87 24 136 47 50 23 101 47 115 54 47 22 139 87 155 109 12 19 26 23 68 24 28
1 59 3 67 5 13 3 15 -11 15 -86 0 -110 -17 -160 -86 -246 -27 -34 -49 -70 -49
-80 0 -22 25 -25 44 -6 24 22 108 92 124 101 12 7 14 5 8 -10 -4 -10 -11 -52
-16 -93 -4 -40 -13 -78 -19 -84 -6 -6 -11 -25 -11 -43 0 -28 -3 -31 -25 -26
-18 3 -25 0 -25 -12 0 -9 -4 -16 -10 -16 -5 0 -10 -9 -10 -19 0 -19 18 -31 47
-31 28 0 113 45 119 62 3 10 9 18 14 18 4 0 13 13 19 30 5 16 15 30 20 30 6 0
11 9 11 20 0 11 5 20 10 20 6 0 10 7 10 15 0 8 4 15 9 15 6 0 8 39 6 93 -4
105 -11 149 -30 192 -7 17 -16 47 -20 68 -4 20 -11 37 -16 37 -5 0 -6 14 -2
30 3 17 1 30 -4 30 -23 0 -50 39 -46 64 4 20 1 26 -11 26 -10 0 -21 13 -27 29
-7 18 -19 31 -31 33 -25 4 -37 28 -14 28 13 0 16 11 16 50 0 38 -4 50 -15 50
-8 0 -15 5 -15 10 0 6 9 10 21 10 19 0 20 4 13 43 -13 73 -11 180 4 204 13 21
15 21 31 5 9 -9 35 -39 57 -67 21 -27 41 -52 44 -55 12 -12 60 -90 60 -99 0
-5 9 -11 20 -14 15 -4 20 -14 20 -36 0 -26 4 -31 24 -31 22 0 26 6 32 48 4 26
9 41 11 35 3 -7 13 -13 24 -13 10 0 24 -9 31 -20 7 -11 18 -20 25 -20 7 0 13
-7 13 -16 0 -9 9 -18 20 -21 12 -3 20 -14 20 -26 0 -11 7 -29 17 -39 9 -11 11
-18 5 -18 -7 0 -12 -15 -12 -35 0 -40 19 -46 59 -19 19 13 22 24 19 55 -2 27
0 39 9 39 22 0 15 37 -8 43 -12 3 -18 10 -14 17 13 22 -5 68 -31 74 -14 4 -24
14 -24 24 0 10 -9 24 -20 32 -11 8 -20 20 -20 27 0 7 -4 13 -10 13 -5 0 -10 6
-10 14 0 8 -11 17 -25 20 -14 4 -25 11 -25 16 0 19 -35 50 -57 50 -14 0 -23 6
-23 15 0 8 -7 15 -15 15 -8 0 -15 7 -15 15 0 8 -7 15 -16 15 -18 0 -44 23 -44
39 0 6 -9 11 -20 11 -11 0 -20 5 -20 11 0 7 -11 9 -30 6 -17 -4 -30 -2 -30 3
0 6 -9 10 -20 10 -11 0 -23 6 -26 14 -3 7 -23 16 -44 20 -35 5 -39 9 -45 46
-5 32 -3 43 14 61 12 13 21 30 21 40 0 9 7 19 15 23 8 3 15 13 15 23 0 10 16
31 35 47 30 25 35 35 35 73 0 30 5 45 15 49 20 8 19 41 -2 53 -17 9 -16 11 5
33 26 28 29 58 6 58 -13 0 -15 7 -9 40 4 26 3 40 -4 40 -6 0 -11 7 -11 15 0 8
-4 15 -10 15 -5 0 -10 9 -10 20 0 11 5 20 10 20 6 0 10 8 10 19 0 13 9 20 30
25 32 6 40 32 18 54 -15 15 -64 16 -73 2z m-1488 -1106 c-3 -3 -12 -4 -19 -1
-8 3 -5 6 6 6 11 1 17 -2 13 -5z"/>
</g>
</svg>
