<?xml version="1.0" standalone="no"?>
<!DOCTYPE svg PUBLIC "-//W3C//DTD SVG 20010904//EN"
 "http://www.w3.org/TR/2001/REC-SVG-20010904/DTD/svg10.dtd">
<svg version="1.0" xmlns="http://www.w3.org/2000/svg"
 width="257.000000pt" height="270.000000pt" viewBox="0 0 257.000000 270.000000"
 preserveAspectRatio="xMidYMid meet">
<metadata>
Created by potrace 1.13, written by Peter Selinger 2001-2015
</metadata>
<g transform="translate(0.000000,270.000000) scale(0.100000,-0.100000)"
fill="#000000" stroke="none">
<path d="M1661 2534 c-16 -21 -18 -30 -10 -41 11 -12 18 -46 22 -103 2 -14 6
-31 10 -37 5 -7 4 -13 -1 -13 -9 0 -12 -14 -12 -69 0 -19 -4 -39 -9 -45 -9
-12 -22 -57 -27 -95 -1 -13 -8 -27 -15 -31 -6 -4 -8 -13 -5 -19 4 -6 4 -11 -1
-11 -11 0 -57 -99 -60 -129 -1 -13 -10 -32 -19 -43 -10 -10 -19 -29 -21 -40
-5 -29 -4 -29 -62 -32 -28 -2 -58 -9 -66 -16 -8 -7 -15 -10 -15 -7 0 3 -12 -5
-26 -20 -24 -24 -26 -24 -39 -7 -17 22 -19 44 -5 44 6 0 10 5 10 10 0 15 61
80 70 75 10 -6 22 24 15 36 -4 5 3 18 14 30 15 16 18 27 11 45 -5 13 -6 25 -2
28 4 2 7 27 6 55 0 28 3 51 8 51 5 0 6 6 1 13 -15 24 -8 62 14 83 21 21 21 23
4 38 -10 9 -26 16 -37 16 -11 0 -25 5 -31 11 -8 8 -14 6 -22 -9 -7 -14 -8 -23
-1 -27 14 -9 13 -41 -3 -57 -8 -8 -12 -41 -11 -93 1 -77 -16 -135 -39 -135 -4
0 -5 -4 -2 -10 3 -5 -6 -21 -21 -35 -15 -14 -24 -28 -21 -31 3 -3 -3 -15 -13
-27 -11 -11 -17 -24 -14 -29 3 -4 1 -8 -4 -8 -15 0 -21 -37 -9 -49 6 -6 7 -11
2 -11 -6 0 -10 -13 -10 -30 0 -16 4 -30 9 -30 4 0 6 -7 2 -15 -3 -8 -1 -15 4
-15 6 0 10 -11 10 -24 0 -14 5 -28 10 -31 6 -3 10 -11 10 -17 0 -6 -9 -4 -22
4 -23 15 -62 18 -74 5 -4 -4 -16 -7 -26 -7 -10 0 -21 -6 -24 -14 -6 -15 -21
-16 -41 -3 -18 11 -84 12 -91 1 -4 -5 -18 -9 -32 -8 -28 2 -119 -23 -136 -37
-6 -5 -14 -6 -17 -2 -4 3 -7 1 -7 -6 0 -7 -4 -10 -8 -7 -5 3 -21 -6 -36 -19
-16 -14 -32 -22 -37 -20 -4 3 -11 1 -14 -5 -4 -6 -15 -8 -26 -5 -10 4 -19 3
-19 -2 0 -5 -12 -10 -27 -11 -15 -1 -30 -6 -33 -12 -3 -5 -15 -11 -27 -13 -20
-3 -34 -14 -62 -50 -12 -15 -11 -20 4 -37 17 -19 18 -19 36 4 14 18 26 23 54
20 20 -1 41 4 49 11 7 7 25 12 39 11 15 -2 32 3 38 10 6 8 15 11 20 9 4 -3 26
6 48 19 22 14 46 27 53 28 7 2 21 11 31 20 11 9 25 14 33 11 8 -3 14 -1 14 5
0 16 35 20 55 6 10 -8 15 -14 9 -14 -5 0 -18 -14 -29 -30 -11 -16 -26 -30 -32
-30 -7 0 -25 -17 -40 -37 -20 -27 -37 -39 -58 -41 -41 -4 -88 -23 -98 -39 -4
-7 -15 -13 -22 -13 -8 0 -15 -4 -15 -8 0 -14 -53 -72 -66 -72 -7 0 -14 -4 -16
-10 -1 -5 -41 -55 -88 -111 -47 -56 -86 -104 -86 -108 -6 -27 -18 -51 -25 -51
-5 0 -9 -7 -9 -15 0 -8 -5 -15 -11 -15 -6 0 -24 -13 -41 -30 -16 -16 -35 -30
-41 -30 -7 0 -18 -9 -25 -21 -7 -12 -15 -19 -18 -16 -2 2 -24 -14 -47 -37 -43
-42 -51 -72 -26 -102 17 -20 28 -17 41 11 9 19 14 22 25 14 9 -8 13 -8 13 0 0
6 9 21 19 33 11 13 29 34 40 46 11 13 24 21 30 18 6 -4 18 5 27 19 9 14 22 25
29 25 7 0 15 7 19 15 3 8 17 20 31 25 14 5 33 26 43 47 9 21 21 41 27 45 5 4
7 10 3 13 -4 4 7 20 23 37 16 17 26 34 24 38 -3 5 11 24 30 44 19 20 35 39 35
43 0 3 11 16 25 29 14 13 25 27 25 33 0 5 10 4 25 -2 18 -9 23 -17 18 -32 -3
-11 -6 -26 -6 -32 0 -7 -4 -13 -7 -13 -4 0 -7 -23 -6 -50 1 -28 -2 -58 -5 -68
-15 -41 39 -172 89 -216 19 -17 41 -37 49 -44 7 -7 13 -11 13 -7 0 3 9 1 19
-4 25 -14 184 -14 199 -1 1 1 5 3 10 4 22 3 102 41 102 48 0 4 7 8 15 8 8 0
15 5 15 12 0 6 3 8 6 5 4 -4 16 3 26 15 19 22 19 22 12 -27 -4 -34 -14 -57
-30 -72 -13 -12 -24 -25 -24 -28 0 -9 -27 -35 -36 -35 -3 0 -30 -25 -59 -55
-29 -30 -58 -55 -64 -55 -6 0 -11 -4 -11 -9 0 -5 -9 -13 -20 -16 -11 -3 -20
-13 -20 -21 0 -8 -3 -13 -7 -13 -24 4 -33 -3 -29 -23 3 -22 -21 -79 -36 -86
-5 -2 -8 -10 -8 -18 0 -8 -5 -14 -10 -14 -6 0 -9 -3 -8 -7 1 -5 -4 -19 -11
-32 -11 -20 -11 -25 0 -32 10 -6 11 -9 2 -9 -7 0 -13 -7 -13 -15 0 -8 -5 -15
-11 -15 -5 0 -7 -4 -4 -10 8 -13 -14 -52 -25 -45 -5 3 -13 -3 -19 -12 -14 -26
14 -56 40 -42 13 6 19 6 19 -1 0 -5 3 -10 8 -10 20 1 33 20 35 53 2 22 11 43
22 51 10 7 19 25 21 40 1 15 15 48 31 74 16 26 34 60 41 75 7 15 16 26 20 23
11 -7 52 22 52 36 0 6 21 36 48 67 26 31 56 67 67 80 11 14 30 35 43 48 12 13
22 26 22 28 0 5 33 45 56 69 26 28 42 145 21 158 -8 5 -7 8 6 8 9 0 17 4 17 8
0 4 16 25 36 46 19 21 33 40 30 43 -8 9 23 35 34 28 5 -3 6 -15 1 -28 -5 -12
-9 -25 -10 -29 0 -5 -1 -9 -2 -10 -2 -7 -10 -55 -11 -70 -1 -10 -5 -18 -9 -18
-8 0 -24 -59 -21 -72 1 -5 -2 -8 -6 -8 -5 0 -8 -29 -8 -65 1 -36 5 -65 11 -65
6 0 4 -4 -2 -8 -7 -4 -13 -32 -14 -61 -2 -42 2 -57 16 -67 22 -16 25 -17 44
-5 10 6 14 28 14 70 0 34 3 61 6 61 3 0 7 11 7 25 1 14 -3 25 -8 25 -7 0 -7 4
0 13 5 6 9 27 7 45 -1 17 1 32 6 32 9 0 34 76 32 98 0 6 2 12 6 12 3 0 6 15 7
33 1 29 10 82 14 82 10 0 4 68 -7 97 -11 29 -13 45 -5 68 12 33 9 61 -13 113
-14 33 -14 35 5 30 11 -3 20 -8 20 -12 0 -15 99 -5 118 12 10 9 23 17 29 17 5
0 28 13 50 29 23 16 44 27 47 24 3 -4 6 1 6 10 0 10 3 16 8 15 11 -3 82 43 82
53 0 5 11 9 25 9 14 0 25 5 25 11 0 5 5 7 10 4 6 -4 22 1 35 9 14 9 25 13 25
10 0 -4 9 1 20 11 12 11 20 13 20 6 0 -8 8 -8 28 2 15 8 32 13 37 11 6 -2 16
5 23 16 7 11 8 20 3 20 -6 0 -8 9 -6 19 5 29 -49 50 -63 25 -4 -8 -24 -17 -43
-20 -18 -3 -43 -7 -54 -9 -11 -2 -23 -4 -27 -4 -5 -1 -8 -8 -8 -17 0 -11 -6
-13 -20 -9 -13 4 -26 -2 -41 -19 -15 -18 -26 -23 -34 -16 -8 6 -18 5 -30 -4
-11 -8 -25 -11 -32 -9 -15 6 -53 -33 -53 -54 0 -7 -4 -13 -9 -13 -4 0 -20 -11
-35 -25 -15 -14 -36 -25 -47 -25 -24 0 -24 6 1 32 18 20 25 39 21 61 0 4 4 7
10 7 5 0 7 6 3 12 -10 16 -13 48 -4 48 4 0 5 10 3 23 -5 27 61 115 72 97 5 -8
12 -7 22 2 8 6 24 13 35 15 11 2 29 9 41 15 12 7 25 11 30 10 4 -1 7 2 7 7 0
5 10 13 22 17 12 3 28 13 36 20 7 8 22 14 33 14 10 0 19 4 19 8 0 9 79 46 93
43 4 -1 17 8 28 18 16 15 27 18 45 11 16 -6 26 -5 31 3 8 12 27 16 102 21 58
4 81 30 49 58 -13 11 -28 16 -37 12 -9 -4 -32 -9 -51 -11 -91 -7 -112 -11
-123 -22 -6 -6 -21 -11 -34 -11 -13 0 -23 -4 -23 -9 0 -5 -12 -12 -26 -15 -15
-4 -33 -14 -41 -22 -8 -8 -23 -12 -33 -9 -11 3 -20 0 -24 -10 -3 -8 -14 -15
-23 -15 -10 0 -25 -9 -33 -20 -10 -14 -17 -17 -27 -8 -10 8 -13 6 -13 -6 0 -9
-3 -16 -7 -17 -5 0 -18 -2 -30 -5 -24 -4 -23 -1 22 50 18 20 16 45 -5 56 -25
14 -47 0 -52 -32 -2 -12 -9 -23 -17 -26 -10 -3 -12 2 -7 22 5 19 2 28 -9 32
-8 3 -13 10 -10 15 9 14 -29 28 -48 18 -11 -7 -17 -7 -17 0 0 5 16 15 35 21
22 7 35 18 35 28 0 21 -36 46 -45 32 -4 -6 -11 -8 -16 -4 -5 3 -25 -11 -44
-32 -19 -21 -35 -33 -35 -26 0 7 5 12 10 12 6 0 10 6 10 14 0 7 9 25 20 38 10
14 17 28 14 30 -2 3 2 18 11 34 9 18 11 32 5 38 -6 6 -4 13 6 20 8 6 15 26 17
43 1 18 5 33 8 33 12 0 17 38 6 49 -8 8 -8 11 0 11 7 0 10 12 7 33 -2 17 -5
48 -5 67 -2 54 -17 105 -38 124 -18 16 -20 16 -40 -10z m-21 -569 c0 -8 -8
-15 -17 -14 -11 0 -13 3 -5 6 6 2 10 9 6 14 -3 5 0 9 5 9 6 0 11 -7 11 -15z"/>
</g>
</svg>
