<?xml version="1.0" standalone="no"?>
<!DOCTYPE svg PUBLIC "-//W3C//DTD SVG 20010904//EN"
 "http://www.w3.org/TR/2001/REC-SVG-20010904/DTD/svg10.dtd">
<svg version="1.0" xmlns="http://www.w3.org/2000/svg"
 width="254.000000pt" height="262.000000pt" viewBox="0 0 254.000000 262.000000"
 preserveAspectRatio="xMidYMid meet">
<metadata>
Created by potrace 1.13, written by Peter Selinger 2001-2015
</metadata>
<g transform="translate(0.000000,262.000000) scale(0.100000,-0.100000)"
fill="#000000" stroke="none">
<path d="M1412 2478 c-7 -7 -8 -16 -3 -22 6 -7 4 -19 -5 -30 -8 -11 -14 -16
-14 -12 0 4 -7 1 -15 -8 -8 -8 -15 -19 -15 -25 0 -6 -3 -11 -8 -11 -11 0 -34
-58 -28 -69 4 -5 1 -11 -5 -13 -7 -2 -7 -12 1 -32 8 -22 7 -32 -2 -44 -7 -8
-12 -23 -10 -34 3 -15 0 -17 -22 -8 -21 8 -27 6 -35 -9 -7 -12 -6 -22 1 -29 9
-9 7 -15 -6 -25 -15 -11 -19 -29 -20 -98 -1 -58 3 -91 12 -106 8 -13 12 -23 9
-23 -3 0 5 -12 20 -27 14 -16 33 -40 44 -54 18 -25 18 -26 -2 -48 -11 -11 -16
-21 -12 -21 4 0 2 -5 -5 -12 -7 -7 -12 -22 -12 -35 0 -25 -10 -29 -26 -13 -6
6 -21 13 -35 15 -43 8 -157 8 -170 -1 -8 -5 -17 -9 -21 -10 -5 -1 -9 -2 -10
-3 -5 -3 -120 -12 -162 -12 -29 0 -39 -5 -43 -19 -4 -16 -13 -19 -47 -17 -36
2 -41 -1 -40 -19 0 -14 -4 -20 -13 -17 -7 3 -13 0 -13 -7 0 -6 -5 -8 -10 -5
-6 3 -13 -1 -16 -9 -4 -10 -15 -14 -30 -12 -13 3 -26 0 -30 -5 -3 -5 -14 -7
-25 -4 -11 4 -19 2 -19 -5 0 -7 -6 -10 -14 -7 -7 3 -23 -1 -34 -9 -11 -7 -30
-15 -42 -17 -11 -2 -30 -11 -42 -21 -11 -10 -26 -19 -32 -20 -19 -3 -36 -17
-36 -29 0 -7 13 -27 29 -46 l28 -34 17 38 c10 20 20 34 23 31 3 -3 11 1 17 10
11 15 41 23 99 27 15 1 27 5 27 8 0 14 56 -6 77 -28 13 -12 26 -23 28 -23 3 0
16 18 30 40 14 23 30 38 35 35 6 -3 10 -2 10 3 0 11 22 21 60 29 13 2 27 8 30
13 7 12 55 29 97 36 24 4 33 2 28 -5 -3 -6 -10 -9 -14 -7 -4 3 -20 -9 -35 -25
-16 -17 -35 -28 -42 -25 -8 3 -14 1 -14 -5 0 -6 -4 -8 -10 -4 -14 9 -81 -23
-97 -45 -8 -11 -21 -20 -29 -20 -8 0 -14 -4 -14 -8 0 -14 -52 -72 -65 -72 -7
0 -15 -7 -19 -15 -3 -8 -12 -15 -21 -15 -8 0 -15 -7 -15 -15 0 -9 -9 -15 -24
-15 -22 0 -42 -23 -37 -43 2 -12 -22 -32 -44 -35 -39 -6 -47 -12 -42 -32 4
-14 -4 -23 -29 -35 -48 -23 -67 -44 -54 -60 8 -10 8 -15 0 -20 -6 -4 -14 -5
-17 -2 -3 3 -14 -3 -26 -13 -11 -11 -24 -17 -29 -14 -4 3 -8 1 -8 -4 0 -5 -15
-17 -33 -27 -18 -10 -44 -33 -56 -51 -16 -24 -30 -33 -45 -30 -11 2 -26 -4
-32 -12 -9 -13 -7 -20 12 -35 13 -10 32 -19 43 -20 11 0 19 -4 18 -8 -1 -4 9
-16 22 -28 l24 -21 15 21 c14 20 13 23 -3 35 -17 13 -17 15 8 47 14 19 23 37
20 41 -6 6 13 10 31 7 5 -1 17 6 27 15 11 9 19 14 19 9 0 -4 7 -1 16 6 9 7 23
14 32 16 9 1 18 7 20 13 3 8 8 7 18 -1 8 -6 26 -13 39 -15 29 -3 45 20 49 67
2 33 48 91 136 175 30 29 66 63 79 76 l24 23 -16 -30 c-13 -25 -31 -70 -27
-70 0 0 -5 -20 -13 -45 -15 -51 -14 -115 2 -134 6 -7 8 -15 5 -18 -3 -4 3 -23
14 -45 10 -21 22 -54 26 -73 8 -44 28 -90 39 -90 5 0 6 -4 3 -8 -5 -8 34 -43
45 -39 3 1 13 -6 23 -16 10 -9 29 -17 44 -17 80 -1 213 -9 221 -14 5 -4 12 -2
16 3 3 6 12 8 20 4 8 -3 15 -1 15 4 0 5 9 9 20 10 11 1 40 16 64 32 25 17 49
31 55 31 5 0 17 8 27 17 16 16 16 16 9 -6 -6 -21 -28 -51 -62 -87 -7 -7 -13
-15 -13 -17 0 -2 -16 -21 -35 -41 -19 -21 -35 -42 -35 -48 0 -10 -56 -80 -62
-77 -8 3 -58 -26 -58 -33 0 -5 -4 -7 -9 -3 -6 3 -15 -3 -21 -14 -6 -13 -7 -22
0 -26 6 -4 5 -13 -3 -26 -10 -16 -9 -21 3 -29 8 -5 17 -6 20 -2 3 4 14 12 25
18 19 11 20 9 17 -22 -2 -19 -8 -37 -13 -40 -5 -3 -9 -16 -9 -30 0 -13 -4 -24
-10 -24 -5 0 -7 -13 -3 -32 4 -19 2 -29 -4 -25 -5 3 -21 -1 -34 -11 -13 -9
-33 -18 -44 -19 -54 -8 -59 -25 -15 -48 17 -9 30 -21 30 -29 0 -7 9 -21 20
-31 15 -14 23 -15 34 -6 8 6 12 21 9 31 -3 11 0 20 6 20 11 0 36 47 33 63 -1
4 2 7 7 7 9 0 30 48 38 85 2 10 7 22 11 25 4 3 7 14 6 25 0 26 14 45 30 39 17
-7 39 21 34 43 -2 10 11 32 30 51 28 27 32 35 22 47 -7 9 -8 15 -2 15 5 0 13
11 16 25 4 15 11 22 20 19 16 -6 29 11 33 41 4 25 46 105 55 105 4 0 5 7 2 15
-4 8 -1 15 7 15 7 0 9 3 6 7 -4 3 3 17 15 30 12 13 18 23 14 23 -5 0 -4 6 1
12 19 23 33 116 21 134 -4 5 6 25 22 43 17 18 28 37 25 42 -4 5 0 9 7 9 17 0
22 -48 8 -65 -6 -7 -12 -33 -13 -57 -1 -23 -8 -49 -15 -57 -7 -7 -11 -20 -8
-27 3 -8 2 -14 -2 -14 -4 0 -8 -11 -8 -25 -1 -13 -9 -32 -18 -40 -9 -9 -16
-23 -16 -31 0 -8 -4 -14 -10 -14 -16 0 -12 -17 6 -24 8 -3 24 -1 34 4 19 10
36 -1 22 -14 -10 -11 -9 -30 3 -38 6 -5 6 -8 0 -8 -6 0 -10 -26 -10 -57 1 -47
-3 -60 -22 -77 -12 -10 -20 -23 -17 -27 3 -5 -5 -5 -18 0 -32 12 -56 -12 -34
-34 8 -8 22 -15 30 -15 14 0 19 -11 15 -37 0 -3 6 -10 15 -15 17 -9 51 13 39
25 -8 9 17 67 29 67 6 0 8 7 4 15 -3 8 -1 15 4 15 5 0 7 6 4 14 -3 7 1 20 9
28 9 8 13 26 10 44 -8 55 -1 103 21 136 8 12 14 35 12 50 -2 17 4 34 15 44 12
11 15 22 10 37 -5 12 -4 37 1 55 7 23 6 38 -3 48 -6 8 -7 14 -2 14 10 0 0 81
-12 101 -4 5 -2 9 2 9 17 0 12 45 -8 79 -12 20 -18 45 -15 62 2 15 1 31 -2 34
-4 4 -7 10 -7 13 -1 4 -6 17 -13 30 -8 14 -9 22 -2 22 6 0 26 16 45 36 19 20
35 32 35 28 0 -4 8 2 18 14 l18 21 27 -25 c14 -13 31 -24 36 -24 5 0 17 -7 25
-16 17 -16 66 -27 66 -14 0 4 12 7 28 8 15 0 43 4 62 8 19 4 49 8 65 8 31 1
55 16 55 35 0 6 9 11 19 11 25 0 34 27 13 39 -14 9 -14 11 -2 12 8 1 21 1 28
0 6 -1 12 3 12 9 0 6 5 8 10 5 6 -3 10 -1 10 5 0 7 7 9 15 6 9 -3 18 1 21 9 4
8 14 15 24 15 28 0 86 76 95 125 1 6 3 12 4 15 9 20 7 41 -6 51 -11 10 -16 10
-22 0 -5 -8 -18 -10 -34 -6 -17 5 -31 2 -41 -7 -12 -13 -11 -16 4 -26 27 -17
22 -65 -9 -94 -28 -26 -63 -29 -99 -9 -21 11 -27 10 -46 -8 -12 -12 -26 -18
-30 -14 -4 4 -10 3 -14 -2 -6 -9 -77 -45 -92 -48 -3 0 -20 -16 -37 -35 -18
-19 -33 -29 -33 -22 0 12 -12 25 -79 80 -36 30 -50 82 -30 107 9 10 8 13 -1
13 -9 0 -7 7 5 20 22 24 38 25 55 5 7 -8 16 -13 20 -10 5 3 11 1 15 -5 9 -15
48 -12 73 6 12 8 22 12 22 7 0 -17 20 23 20 41 0 17 -46 66 -62 66 -4 0 -18
-12 -31 -26 -24 -26 -25 -26 -53 -8 -21 14 -24 20 -12 22 9 2 23 14 32 27 14
22 13 25 -15 54 -30 31 -49 40 -49 21 0 -7 -6 -7 -20 0 -11 6 -20 20 -20 32 0
11 -14 34 -31 50 -29 28 -31 29 -55 13 -15 -10 -24 -25 -24 -41 l0 -26 -28 24
c-27 21 -28 24 -12 38 30 27 33 56 8 83 -25 26 -42 25 -75 -8 -37 -36 -36 -68
4 -109 19 -20 32 -36 28 -36 -4 0 -2 -7 5 -15 10 -12 10 -15 -1 -17 -8 0 -18
-2 -24 -2 -5 -1 -16 -5 -22 -9 -7 -5 -13 -6 -13 -3 0 3 -16 -2 -35 -10 -46
-19 -48 -18 -83 14 -16 15 -41 35 -55 45 -27 20 -27 26 1 87 9 19 15 38 14 43
-1 4 3 7 9 7 6 0 9 7 5 15 -3 8 -2 15 2 15 4 0 15 20 25 45 15 41 15 46 1 52
-11 4 -14 13 -10 29 4 13 3 24 -1 24 -5 0 -9 16 -10 35 -2 20 2 35 8 35 5 0 7
5 4 10 -3 6 -2 10 4 10 6 0 19 10 31 22 12 13 20 17 20 9 0 -11 3 -11 15 -1
11 9 15 9 15 1 0 -9 5 -9 20 -1 28 15 25 38 -5 46 -15 4 -25 13 -25 24 0 15
-29 50 -41 50 -3 0 -10 -5 -17 -12z"/>
</g>
</svg>
