<?xml version="1.0" standalone="no"?>
<!DOCTYPE svg PUBLIC "-//W3C//DTD SVG 20010904//EN"
 "http://www.w3.org/TR/2001/REC-SVG-20010904/DTD/svg10.dtd">
<svg version="1.0" xmlns="http://www.w3.org/2000/svg"
 width="258.000000pt" height="442.000000pt" viewBox="0 0 258.000000 442.000000"
 preserveAspectRatio="xMidYMid meet">
<metadata>
Created by potrace 1.13, written by Peter Selinger 2001-2015
</metadata>
<g transform="translate(0.000000,442.000000) scale(0.100000,-0.100000)"
fill="#000000" stroke="none">
<path d="M1840 4392 c0 -13 13 -23 43 -32 23 -7 38 -14 32 -16 -5 -1 -22 -5
-37 -8 -33 -8 -58 -32 -58 -57 0 -23 35 -26 56 -4 16 16 42 19 60 7 5 -4 20
-27 33 -52 12 -25 33 -54 45 -65 25 -23 40 -55 26 -55 -14 0 -13 -43 1 -57 19
-19 52 -186 38 -191 -13 -5 -11 -29 6 -61 14 -28 13 -29 -6 -24 -11 3 -32 21
-46 39 -27 37 -63 46 -63 16 0 -9 9 -35 21 -56 57 -107 78 -466 34 -576 -23
-57 -20 -55 -47 -36 -12 9 -42 16 -65 16 -41 0 -44 2 -50 31 -9 44 -92 167
-155 230 -30 30 -80 70 -111 89 -59 37 -67 49 -42 70 8 7 15 22 15 34 0 31
-35 127 -50 136 -16 10 49 20 132 20 80 0 115 23 125 82 9 60 -2 88 -37 88
-30 0 -30 0 -30 -56 l0 -57 -67 6 c-38 4 -83 7 -100 7 -31 0 -32 1 -22 28 53
132 111 208 164 214 27 3 30 7 33 43 3 35 -2 46 -33 78 -19 20 -56 52 -82 72
-39 30 -54 35 -98 35 l-51 0 -24 -72 c-13 -40 -26 -77 -30 -83 -4 -5 -25 -44
-47 -85 -34 -63 -91 -166 -139 -251 -6 -11 -13 -22 -16 -25 -5 -5 -118 151
-118 162 0 3 -11 20 -24 37 -30 39 -109 198 -126 252 -15 47 -37 75 -60 75
-35 0 -121 -54 -164 -102 -72 -82 -74 -135 -3 -162 33 -13 51 -30 83 -79 23
-34 44 -72 48 -84 4 -11 13 -27 21 -33 27 -22 16 -30 -42 -30 -32 0 -76 -7
-98 -14 l-40 -14 -3 36 c-5 72 -10 82 -42 82 -30 0 -30 0 -29 -57 0 -79 18
-127 47 -131 13 -2 28 1 35 6 14 12 103 27 131 23 11 -2 31 -7 45 -13 20 -7
22 -11 11 -18 -11 -7 -15 -33 -15 -114 0 -95 -2 -106 -20 -115 -31 -14 -75
-50 -137 -112 -41 -41 -67 -81 -99 -148 -32 -68 -48 -91 -62 -91 -31 0 -87
-31 -87 -48 0 -35 -15 4 -32 81 -23 111 -41 337 -33 417 5 48 17 84 46 138 21
41 39 80 39 88 0 28 -43 13 -87 -31 -24 -25 -48 -45 -52 -45 -13 0 -5 88 9
105 7 9 10 27 7 45 -4 16 -2 32 4 36 6 4 8 20 5 39 -4 19 -2 36 3 40 6 3 10
26 9 50 -2 36 3 51 30 84 17 22 37 52 44 68 17 37 26 43 71 43 34 0 38 3 35
22 -2 16 -12 25 -33 29 l-30 6 30 4 c22 3 31 10 33 26 7 49 -77 35 -135 -23
-13 -13 -28 -24 -33 -24 -17 0 -59 -85 -71 -147 -8 -37 -18 -63 -25 -63 -7 0
-16 -20 -20 -45 -4 -30 -11 -45 -21 -45 -12 0 -14 -9 -11 -40 2 -27 -1 -41
-10 -45 -10 -4 -12 -15 -8 -40 5 -24 3 -35 -5 -35 -7 0 -9 -10 -5 -30 6 -34 0
-36 -48 -14 -19 9 -41 14 -50 11 -21 -8 -20 -41 2 -63 42 -42 72 -89 72 -111
0 -15 -12 -37 -30 -53 -37 -34 -38 -65 -5 -96 31 -28 32 -67 4 -93 -28 -26
-21 -55 14 -59 15 -2 27 -9 27 -17 0 -7 14 -43 30 -79 17 -36 33 -79 36 -95 4
-17 10 -31 13 -31 4 0 15 -18 25 -39 9 -22 32 -52 50 -68 130 -110 133 -111
183 -112 18 -1 36 -8 40 -16 16 -28 85 -55 143 -55 l55 -1 -62 -25 c-35 -15
-82 -43 -105 -63 -36 -33 -42 -45 -49 -92 -11 -90 -62 -194 -125 -259 -70 -72
-114 -138 -114 -171 0 -14 -13 -45 -28 -70 -66 -105 -94 -182 -148 -409 -15
-63 -38 -139 -50 -169 -31 -69 -30 -87 4 -103 26 -13 27 -16 24 -83 -2 -39 -7
-83 -12 -100 -5 -16 -14 -61 -19 -100 -16 -117 -29 -172 -46 -204 -20 -40 -30
-145 -18 -191 7 -28 15 -36 36 -38 19 -2 27 1 27 12 0 9 9 16 20 16 25 0 27
30 4 65 -18 27 -13 77 17 189 10 37 24 116 30 175 6 58 15 110 20 116 5 5 9
29 10 55 l1 45 14 -32 c9 -21 21 -33 34 -33 19 0 20 7 20 158 0 87 6 199 14
252 18 117 45 250 56 270 4 8 10 32 14 53 6 31 11 37 32 37 25 0 65 16 74 31
3 4 4 -69 4 -161 l-1 -169 -52 -58 c-29 -32 -63 -80 -76 -108 -24 -48 -25 -56
-21 -220 3 -93 9 -192 15 -220 5 -27 15 -86 21 -130 7 -44 18 -114 25 -155 8
-41 19 -117 26 -169 l13 -93 37 5 c40 5 49 -6 49 -65 0 -15 7 -33 15 -42 8 -8
15 -32 15 -55 0 -23 5 -41 10 -41 6 0 10 -22 10 -48 0 -27 3 -52 6 -55 9 -8
14 -82 13 -198 0 -147 36 -214 99 -180 12 6 30 11 41 11 34 0 25 34 -16 61
-37 23 -38 26 -45 99 -9 93 -16 186 -17 223 0 15 -7 40 -15 56 -8 15 -13 37
-10 48 3 11 -1 34 -10 51 -9 17 -16 42 -16 55 0 14 -7 42 -16 63 l-16 39 39
-38 c72 -69 102 -29 40 54 -80 105 -180 418 -222 693 -14 96 -14 102 3 114 10
7 34 26 52 42 19 17 37 30 41 30 5 0 19 -35 32 -77 48 -156 153 -355 234 -445
76 -84 224 -224 273 -258 19 -13 41 -30 48 -37 6 -6 21 -15 32 -18 11 -3 20
-11 20 -16 0 -5 7 -9 15 -9 8 0 36 -10 60 -21 95 -45 197 3 363 168 46 46 87
83 92 83 19 0 240 279 240 304 0 3 11 29 24 58 30 65 52 132 61 181 4 20 11
37 16 37 4 0 9 16 11 35 3 35 3 35 31 20 15 -8 39 -22 54 -30 27 -14 27 -16
24 -92 -3 -75 -10 -120 -45 -285 -33 -156 -120 -390 -159 -430 -47 -48 -63
-108 -29 -108 10 0 33 16 52 35 18 19 35 33 37 31 2 -1 -3 -21 -11 -44 -8 -22
-14 -54 -14 -69 1 -16 -5 -39 -11 -52 -7 -12 -10 -35 -6 -52 4 -18 3 -29 -4
-29 -6 0 -11 -13 -11 -30 0 -16 5 -30 11 -30 5 0 7 -5 3 -12 -4 -6 -9 -61 -10
-121 -4 -119 -15 -150 -60 -167 -17 -7 -24 -17 -24 -36 0 -24 3 -26 30 -22 17
3 30 1 30 -4 0 -4 13 -8 30 -8 48 0 57 32 62 205 2 83 7 156 12 163 4 7 5 25
1 41 -3 16 -2 38 3 48 10 19 32 147 32 187 0 22 3 23 43 19 l43 -5 12 123 c7
68 17 140 22 159 11 41 24 142 42 312 8 84 9 150 2 240 -10 115 -13 127 -47
185 -20 34 -54 79 -75 100 l-37 39 0 157 c0 136 2 156 15 151 8 -4 29 -9 47
-12 30 -4 34 -9 57 -81 36 -113 44 -146 60 -261 33 -236 38 -303 26 -373 -11
-73 -9 -87 19 -87 12 0 22 13 30 40 16 55 31 50 31 -10 0 -27 4 -50 9 -50 9 0
16 -35 27 -133 4 -28 12 -51 20 -54 9 -3 14 -20 14 -43 0 -22 4 -41 9 -44 5
-3 12 -41 16 -85 7 -85 -1 -115 -35 -126 -11 -4 -20 -15 -20 -27 0 -17 5 -20
35 -16 24 3 35 0 35 -9 0 -7 9 -13 21 -13 45 0 65 134 33 221 -9 24 -21 62
-26 84 -16 69 -28 123 -36 168 -5 23 -12 49 -17 57 -5 8 -8 30 -7 50 2 20 -4
55 -12 78 l-15 42 34 15 c19 7 35 21 35 29 0 8 -13 48 -30 89 -16 42 -30 80
-30 85 0 20 -101 322 -123 369 -24 51 -54 100 -74 121 -7 7 -13 24 -13 36 0
66 -83 175 -157 208 -24 10 -43 25 -43 32 0 8 -11 39 -25 70 -16 37 -25 75
-25 109 0 44 -5 59 -27 83 -27 29 -89 63 -163 90 -37 13 -37 14 44 35 26 7 57
21 67 33 15 15 29 19 65 17 44 -3 48 0 106 58 33 34 63 61 68 61 5 0 23 13 39
29 29 28 59 87 96 184 19 52 74 107 105 107 13 0 20 7 20 20 0 15 -13 26 -45
40 -39 17 -45 23 -45 49 0 30 31 64 71 76 15 5 19 14 17 33 -2 22 -9 28 -41
33 -46 7 -53 14 -60 60 -4 30 0 43 23 71 24 29 34 34 59 30 26 -4 31 0 37 23
5 18 2 30 -7 36 -18 12 -91 11 -122 0 -24 -9 -25 -8 -30 37 -3 26 -1 49 4 50
5 2 9 15 9 28 0 17 -6 24 -19 24 -16 0 -18 5 -14 40 5 33 3 40 -11 40 -13 0
-16 10 -16 50 0 42 -3 50 -19 50 -14 0 -20 10 -25 40 -3 23 -11 49 -16 58 -5
9 -16 33 -25 52 -24 52 -117 110 -178 110 -39 0 -47 -3 -47 -18z m-613 -1219
c-3 -10 -5 -2 -5 17 0 19 2 27 5 18 2 -10 2 -26 0 -35z m10 -260 c-3 -10 -5
-4 -5 12 0 17 2 24 5 18 2 -7 2 -21 0 -30z"/>
</g>
</svg>
