<?xml version="1.0" standalone="no"?>
<!DOCTYPE svg PUBLIC "-//W3C//DTD SVG 20010904//EN"
 "http://www.w3.org/TR/2001/REC-SVG-20010904/DTD/svg10.dtd">
<svg version="1.0" xmlns="http://www.w3.org/2000/svg"
 width="146.000000pt" height="215.000000pt" viewBox="0 0 146.000000 215.000000"
 preserveAspectRatio="xMidYMid meet">
<metadata>
Created by potrace 1.13, written by Peter Selinger 2001-2015
</metadata>
<g transform="translate(0.000000,215.000000) scale(0.100000,-0.100000)"
fill="#000000" stroke="none">
<path d="M235 2131 c-4 -7 -4 -23 -1 -37 6 -23 10 -24 86 -24 44 0 80 -4 80
-9 0 -5 22 -14 49 -21 27 -6 63 -22 81 -35 28 -20 29 -24 15 -38 -8 -9 -15
-20 -15 -26 0 -6 -4 -11 -9 -11 -5 0 -29 -20 -54 -45 -45 -44 -67 -91 -67
-143 0 -17 -5 -23 -17 -20 -29 5 -55 110 -49 201 5 70 4 77 -13 77 -10 0 -21
-6 -24 -14 -5 -12 -11 -12 -31 -3 -14 7 -26 17 -26 22 0 17 -88 48 -116 41
-15 -4 -33 -1 -47 9 -25 17 -53 20 -62 5 -3 -6 -3 -30 1 -55 5 -34 11 -45 24
-45 10 0 20 6 23 13 12 38 157 -67 157 -114 0 -53 51 -170 92 -211 26 -26 23
-33 -27 -86 -52 -54 -115 -206 -115 -275 0 -33 -22 -117 -31 -117 -3 0 -14
-18 -24 -40 -10 -22 -22 -40 -27 -40 -4 0 -8 -18 -8 -40 0 -35 3 -40 23 -40
18 0 28 10 42 40 10 22 26 47 36 56 11 10 19 23 19 31 0 7 5 13 10 13 6 0 10
7 10 16 0 13 7 15 41 9 l42 -7 -7 38 c-17 97 -18 150 -1 207 9 31 21 57 27 57
6 0 8 -21 4 -57 -3 -32 -8 -138 -11 -235 -3 -128 -8 -185 -19 -206 -19 -38
-46 -142 -46 -182 0 -75 66 -320 87 -320 9 0 13 -18 13 -66 0 -45 8 -88 24
-133 13 -36 27 -99 31 -139 4 -39 11 -75 16 -78 5 -3 9 -13 9 -24 0 -10 7 -21
16 -24 27 -10 54 -7 54 8 0 8 7 16 15 20 22 8 19 46 -4 46 -14 0 -21 12 -30
57 -14 72 -14 116 1 131 8 8 9 21 0 49 -27 95 -32 124 -26 147 4 17 -8 53 -44
128 -45 93 -69 158 -58 158 2 0 11 -23 20 -51 45 -137 163 -292 269 -354 37
-21 57 -26 85 -22 48 6 128 42 156 70 40 41 116 139 116 150 0 5 3 8 6 5 3 -3
-4 -24 -15 -47 -23 -44 -27 -81 -10 -81 7 0 9 -12 5 -34 -4 -19 -9 -67 -11
-108 -3 -40 -7 -94 -11 -120 -6 -46 -6 -47 -36 -41 -31 6 -31 6 -25 -27 4 -18
7 -44 7 -57 0 -23 3 -25 31 -19 55 11 126 122 114 178 -4 15 -2 28 3 28 5 0
12 21 15 48 16 133 28 191 47 229 11 23 20 50 20 60 0 10 9 50 21 88 42 140
42 139 30 224 -6 45 -16 92 -23 104 -15 27 -18 499 -4 494 23 -8 35 -162 20
-259 -6 -44 -5 -48 14 -48 13 0 22 8 24 20 5 34 21 26 51 -26 16 -27 33 -50
38 -52 12 -5 11 -42 -1 -42 -18 0 -11 -39 9 -50 71 -37 101 29 57 125 -52 112
-68 160 -81 233 -17 96 -40 141 -112 218 -37 39 -39 44 -18 44 8 0 15 6 15 14
0 7 7 20 16 27 19 16 53 91 79 174 22 69 46 100 95 123 19 9 38 18 43 20 4 2
7 -6 7 -17 0 -15 6 -21 21 -21 19 0 21 4 15 38 -3 20 -6 42 -6 49 0 7 -23 11
-65 12 -36 0 -65 -4 -65 -8 0 -5 -13 -14 -30 -20 -16 -5 -30 -15 -30 -20 0 -6
-7 -11 -15 -11 -8 0 -15 -6 -15 -12 0 -7 -5 -5 -11 5 -5 9 -18 17 -27 17 -15
0 -17 -11 -17 -82 0 -91 -26 -188 -51 -188 -8 0 -14 8 -14 19 0 59 -79 181
-117 181 -8 0 -17 8 -20 18 -4 9 -10 20 -15 23 -5 3 20 18 54 34 35 16 65 32
68 35 14 19 100 41 150 38 53 -3 55 -2 55 22 0 21 -6 26 -40 32 -63 11 -134
-1 -205 -34 -36 -17 -75 -35 -86 -40 -12 -6 -36 -9 -55 -8 -51 3 -236 3 -262
0 -19 -2 -122 38 -181 71 -29 17 -211 25 -221 10z m552 -136 c-11 -7 -26 -11
-35 -7 -14 5 -12 7 8 13 39 11 46 9 27 -6z m190 -133 c-10 -10 -17 -30 -17
-45 0 -31 -16 -43 -35 -27 -20 16 -19 50 0 50 8 0 23 9 32 20 10 11 22 20 27
20 5 0 2 -8 -7 -18z m-349 -29 c-10 -2 -28 -2 -40 0 -13 2 -5 4 17 4 22 1 32
-1 23 -4z m-124 -129 c20 -3 36 -9 36 -13 0 -4 -20 -3 -45 3 -39 9 -45 14 -44
36 0 24 0 24 9 3 6 -14 21 -24 44 -29z m556 17 c0 -10 -80 -21 -95 -12 -5 3 8
9 30 12 62 10 65 10 65 0z m-243 -137 c-3 -3 -12 -4 -19 -1 -8 3 -5 6 6 6 11
1 17 -2 13 -5z m443 -294 c0 -5 -4 -10 -10 -10 -5 0 -10 5 -10 10 0 6 5 10 10
10 6 0 10 -4 10 -10z m-913 -522 c-3 -8 -6 -5 -6 6 -1 11 2 17 5 13 3 -3 4
-12 1 -19z"/>
</g>
</svg>
