<?xml version="1.0" standalone="no"?>
<!DOCTYPE svg PUBLIC "-//W3C//DTD SVG 20010904//EN"
 "http://www.w3.org/TR/2001/REC-SVG-20010904/DTD/svg10.dtd">
<svg version="1.0" xmlns="http://www.w3.org/2000/svg"
 width="289.000000pt" height="305.000000pt" viewBox="0 0 289.000000 305.000000"
 preserveAspectRatio="xMidYMid meet">
<metadata>
Created by potrace 1.13, written by Peter Selinger 2001-2015
</metadata>
<g transform="translate(0.000000,305.000000) scale(0.100000,-0.100000)"
fill="#000000" stroke="none">
<path d="M1874 2928 c-5 -7 -10 -21 -11 -31 -2 -10 -10 -25 -18 -33 -8 -9 -15
-23 -15 -33 0 -10 -3 -21 -7 -25 -4 -3 -8 -23 -10 -43 -1 -19 -8 -42 -14 -49
-6 -8 -9 -21 -5 -29 3 -8 2 -15 -3 -15 -5 0 -11 -9 -14 -20 -3 -11 -1 -20 3
-20 13 0 5 -31 -9 -40 -9 -5 -10 -10 -2 -14 8 -5 8 -13 0 -28 -9 -16 -8 -23 2
-29 8 -5 9 -9 4 -9 -6 0 -11 -8 -12 -17 -6 -74 -6 -100 1 -111 4 -7 2 -12 -6
-12 -8 0 -9 -3 -3 -8 6 -4 11 -23 12 -42 3 -47 7 -61 21 -87 15 -28 15 -33 -1
-33 -19 0 -47 -33 -47 -55 0 -14 -3 -15 -15 -5 -12 10 -15 10 -15 0 0 -8 -3
-10 -7 -7 -3 4 -12 2 -20 -4 -7 -6 -13 -8 -13 -5 0 4 -13 -1 -30 -11 -16 -9
-30 -21 -30 -26 0 -4 -11 -20 -25 -35 -22 -24 -24 -24 -21 -6 2 12 0 42 -6 68
-9 41 -7 52 16 98 14 29 26 57 26 64 0 6 6 14 14 17 8 3 13 14 12 24 -2 9 6
26 16 38 12 13 18 29 15 45 -3 14 -1 33 5 44 7 13 7 21 -2 26 -8 5 -9 10 -2
14 8 5 10 41 2 41 -1 0 -3 18 -4 40 -2 22 -4 42 -6 45 -8 16 -3 37 14 52 18
17 18 18 -6 29 -19 8 -33 7 -61 -5 -37 -15 -49 -42 -23 -52 10 -4 12 -18 9
-52 -3 -26 -6 -69 -6 -97 -1 -27 -6 -53 -10 -56 -5 -4 -10 -18 -10 -33 -1 -14
-5 -26 -9 -26 -3 0 -14 -24 -24 -52 -9 -29 -21 -55 -25 -58 -5 -4 -10 -23 -11
-43 -2 -20 -7 -37 -12 -37 -4 0 -6 -7 -2 -15 3 -8 2 -15 -3 -15 -4 0 -8 -6 -9
-12 -8 -83 -9 -104 -4 -113 4 -5 7 -20 8 -32 0 -12 12 -37 26 -55 23 -31 24
-34 8 -50 -13 -14 -19 -15 -28 -6 -13 13 -102 21 -102 9 0 -4 -14 -7 -30 -6
-17 1 -34 -3 -38 -9 -4 -6 -19 -17 -34 -25 -15 -8 -38 -24 -50 -35 -15 -14
-38 -22 -68 -23 -62 -3 -70 -5 -70 -15 0 -5 -4 -7 -10 -3 -5 3 -18 -3 -30 -15
-11 -11 -25 -20 -30 -20 -6 0 -10 -5 -10 -12 0 -6 -3 -8 -6 -5 -4 3 -16 1 -28
-5 -11 -7 -24 -11 -28 -10 -5 1 -8 -6 -8 -15 0 -9 -3 -14 -6 -10 -3 3 -24 -5
-45 -19 -21 -13 -39 -22 -39 -20 0 3 -12 -6 -26 -19 -15 -14 -32 -25 -39 -25
-6 0 -17 -11 -23 -25 -6 -14 -16 -24 -21 -23 -5 2 -16 -5 -23 -15 -8 -11 -26
-20 -41 -20 -15 -1 -27 -8 -27 -14 0 -7 -8 -13 -18 -13 -10 0 -22 -3 -26 -7
-4 -5 -11 -8 -14 -8 -19 -2 -52 -17 -52 -25 0 -4 -6 -8 -12 -7 -31 1 -44 -4
-56 -23 -16 -26 -4 -50 39 -81 31 -22 32 -22 45 -4 10 13 11 22 4 29 -12 12
-13 29 -1 22 4 -3 16 3 25 13 10 11 25 17 36 14 13 -3 22 1 26 11 5 13 9 14
20 5 10 -8 14 -8 14 0 0 6 6 11 14 11 8 0 17 7 20 16 3 9 11 14 18 12 6 -2 22
6 36 19 13 12 28 21 32 18 4 -2 16 4 27 15 12 10 24 16 27 13 3 -4 6 -1 6 5 0
7 5 12 11 12 7 0 20 10 30 22 11 11 19 17 19 12 0 -5 5 -2 10 6 5 8 13 15 17
15 7 1 92 54 103 65 3 3 11 6 18 8 9 2 7 -6 -5 -22 -10 -14 -21 -26 -25 -26
-5 0 -8 -5 -8 -11 0 -7 -10 -21 -23 -33 -12 -11 -33 -41 -46 -66 -23 -44 -71
-108 -71 -95 0 12 -70 -69 -70 -80 0 -6 -46 -59 -102 -117 -110 -112 -127
-132 -172 -190 -16 -21 -34 -38 -42 -38 -7 0 -16 -9 -19 -20 -3 -11 -13 -20
-21 -20 -8 0 -14 -4 -14 -9 0 -5 -16 -15 -35 -22 -19 -7 -35 -17 -35 -22 0 -5
-7 -7 -15 -4 -8 4 -17 2 -20 -4 -4 -5 -10 -7 -15 -4 -5 3 -14 -5 -21 -17 -17
-33 -17 -33 -39 -13 -15 14 -23 15 -34 6 -12 -10 -11 -18 4 -58 10 -26 24 -49
31 -52 8 -2 26 -12 41 -23 25 -17 27 -17 43 -1 16 15 16 17 -4 32 -22 17 -17
34 13 39 25 5 68 32 84 54 7 10 18 16 23 13 10 -7 39 18 39 32 0 4 15 15 33
22 17 8 38 23 45 32 7 10 19 16 27 13 9 -4 15 0 15 9 0 8 7 18 16 21 9 4 14 9
11 13 -5 5 111 156 133 173 4 3 20 24 37 47 17 23 33 39 37 36 3 -3 6 -1 6 5
0 7 4 12 9 12 5 0 9 -12 8 -27 -2 -50 23 -136 50 -172 32 -43 61 -72 67 -69 3
2 14 -4 25 -14 40 -34 89 -50 153 -49 93 2 102 3 115 13 20 16 5 -64 -16 -83
-10 -10 -28 -33 -40 -53 -13 -20 -27 -34 -32 -30 -5 3 -9 -2 -9 -10 0 -9 -5
-16 -11 -16 -5 0 -8 -4 -5 -9 3 -5 -1 -11 -9 -15 -8 -3 -15 -12 -15 -21 0 -8
-5 -15 -11 -15 -12 0 -39 -25 -39 -36 0 -4 -12 -17 -26 -31 -14 -13 -27 -36
-28 -53 -1 -16 -12 -41 -24 -55 -12 -14 -17 -25 -10 -25 6 0 2 -9 -10 -20 -12
-12 -22 -28 -22 -37 0 -9 -6 -24 -14 -32 -8 -9 -16 -25 -18 -36 -1 -11 -11
-29 -21 -39 -15 -17 -20 -36 -16 -62 1 -12 -25 -23 -31 -14 -3 5 -13 1 -22
-10 -16 -17 -15 -20 9 -44 14 -14 32 -26 40 -26 8 0 24 -5 36 -12 35 -19 56
-19 66 1 8 14 5 21 -14 31 -23 12 -24 14 -9 49 8 20 19 38 25 39 5 2 7 7 4 12
-7 11 15 70 26 70 4 0 6 7 3 15 -4 9 3 24 17 37 17 14 20 22 11 25 -9 4 -7 10
9 24 11 10 22 29 23 42 1 20 26 60 26 42 0 -3 11 5 24 17 13 13 22 26 19 30
-4 7 21 40 64 83 12 13 19 25 16 28 -3 3 7 18 21 34 14 15 33 42 41 60 9 18
20 33 24 33 5 0 11 10 15 23 3 13 21 39 39 58 18 19 32 40 29 47 -2 6 1 12 7
12 6 0 11 6 11 13 0 8 9 24 20 37 11 13 20 19 20 14 0 -5 9 4 19 19 10 16 22
27 26 25 4 -2 13 5 19 16 6 10 28 35 48 57 39 39 59 37 36 -3 -6 -13 -13 -32
-15 -43 -2 -10 -8 -22 -15 -26 -6 -4 -7 -12 -4 -18 4 -6 4 -11 -1 -11 -4 0
-13 -12 -19 -27 -25 -60 -36 -93 -36 -100 0 -4 -5 -15 -13 -23 -7 -8 -11 -27
-10 -43 2 -15 -1 -27 -6 -27 -6 0 -8 -4 -4 -9 3 -5 1 -12 -4 -15 -4 -3 -11
-24 -15 -46 -3 -22 -10 -40 -14 -40 -4 0 -8 -10 -9 -22 -1 -11 -7 -24 -14 -28
-8 -6 -8 -9 0 -14 6 -4 8 -13 4 -19 -8 -13 -10 -19 -12 -43 -1 -12 -4 -14 -14
-6 -10 8 -16 6 -26 -9 -10 -18 -10 -24 5 -40 9 -10 22 -19 27 -19 6 0 18 -7
28 -15 15 -14 18 -14 33 0 18 19 20 31 6 40 -6 4 -4 19 5 42 8 20 13 38 10 41
-3 3 0 11 6 19 11 12 14 26 23 86 1 10 9 26 17 35 8 9 14 26 15 37 0 11 11 43
24 70 13 28 24 52 25 55 1 3 5 20 9 37 4 18 12 33 17 33 5 0 8 3 8 8 -1 4 0 9
1 12 1 3 3 14 5 24 2 11 6 30 10 43 3 13 4 24 3 25 -2 2 7 18 20 36 13 17 20
32 16 32 -3 0 -1 7 6 15 7 8 10 15 7 15 -3 0 -2 15 3 33 4 18 3 42 -1 54 -8
22 9 83 23 83 4 0 5 7 2 15 -4 8 -1 15 6 15 6 0 8 5 5 10 -3 6 -1 10 5 10 7 0
10 7 6 15 -3 8 -2 15 2 15 4 0 7 18 6 40 0 23 4 40 10 40 6 0 5 4 -3 9 -7 5
-11 13 -7 19 3 5 -6 22 -20 37 -24 26 -24 28 -8 46 15 17 19 17 33 5 39 -34
171 -38 234 -7 25 12 55 24 67 26 12 2 28 9 36 16 8 6 14 9 14 6 0 -5 47 33
87 70 13 12 23 19 23 15 0 -4 7 1 15 12 9 12 30 20 57 23 72 7 103 11 103 13
0 1 14 4 32 6 23 4 38 -1 53 -16 29 -29 50 -9 39 39 -8 37 -39 77 -39 51 0
-10 -3 -11 -11 -3 -8 8 -20 8 -41 1 -16 -6 -42 -8 -58 -4 -16 3 -32 2 -34 -3
-3 -5 -26 -7 -51 -6 -26 2 -45 -1 -45 -7 0 -6 -12 -8 -27 -5 -19 3 -33 -2 -50
-19 -13 -13 -21 -24 -17 -24 4 0 -7 -13 -24 -28 -18 -16 -32 -32 -32 -36 0 -4
-7 -14 -15 -22 -8 -9 -15 -12 -15 -8 0 3 -6 1 -13 -5 -8 -6 -17 -8 -20 -4 -4
3 -7 1 -7 -6 0 -7 -5 -9 -11 -5 -7 4 -41 7 -77 8 -45 1 -67 6 -70 15 -3 8 0
11 6 8 5 -4 15 0 22 8 7 8 10 15 6 15 -4 0 0 10 8 23 23 34 36 103 22 117 -8
8 -8 11 1 8 6 -2 26 13 45 32 28 30 40 35 78 35 25 0 50 -3 56 -7 6 -4 14 -4
18 0 4 4 40 7 79 8 77 1 104 6 137 24 11 6 24 8 29 5 5 -3 11 -2 13 2 6 14
108 64 117 58 6 -3 14 2 19 11 5 9 11 15 13 14 2 -1 15 3 29 8 14 6 40 16 58
22 17 7 32 18 32 24 0 6 11 20 25 30 14 10 25 26 25 36 0 19 -29 49 -45 47
-15 -2 -45 -30 -45 -42 0 -19 -44 -50 -68 -49 -12 1 -26 -4 -30 -10 -12 -19
-60 -46 -81 -46 -11 0 -23 -5 -26 -10 -4 -6 -11 -8 -16 -5 -5 4 -9 3 -9 -2 0
-10 -49 -33 -71 -33 -10 0 -21 -5 -25 -11 -3 -6 -19 -9 -35 -7 -16 3 -29 0
-29 -5 0 -6 -5 -6 -12 0 -13 10 -110 9 -127 -1 -16 -10 -83 23 -74 37 12 20
18 61 14 110 0 10 -12 29 -26 43 -20 20 -29 23 -44 14 -11 -5 -31 -11 -45 -12
-15 -1 -26 -6 -26 -10 0 -4 -7 -8 -15 -8 -8 0 -15 -4 -15 -8 0 -5 -7 -9 -15
-9 -9 0 -14 6 -11 13 2 6 -2 22 -11 33 -8 12 -13 31 -10 42 3 10 2 21 -2 24
-8 4 -6 42 4 150 8 81 9 85 20 85 5 0 4 4 -4 9 -12 8 -12 16 4 58 10 26 18 57
17 68 0 11 6 27 14 37 9 9 13 21 10 26 -3 5 1 15 9 22 8 7 13 16 10 20 -2 4 5
16 15 28 33 35 23 61 -27 76 -13 4 -24 2 -29 -6z m-221 -1446 c-10 -10 -17
-11 -27 -3 -7 6 -15 9 -18 6 -2 -3 -5 2 -5 10 0 8 4 12 9 9 4 -3 8 -1 8 4 0 6
9 6 24 -1 20 -10 21 -13 9 -25z"/>
</g>
</svg>
