<?xml version="1.0" standalone="no"?>
<!DOCTYPE svg PUBLIC "-//W3C//DTD SVG 20010904//EN"
 "http://www.w3.org/TR/2001/REC-SVG-20010904/DTD/svg10.dtd">
<svg version="1.0" xmlns="http://www.w3.org/2000/svg"
 width="313.000000pt" height="319.000000pt" viewBox="0 0 313.000000 319.000000"
 preserveAspectRatio="xMidYMid meet">
<metadata>
Created by potrace 1.13, written by Peter Selinger 2001-2015
</metadata>
<g transform="translate(0.000000,319.000000) scale(0.100000,-0.100000)"
fill="#000000" stroke="none">
<path d="M1740 2958 c-8 -13 -15 -26 -16 -30 -1 -5 -2 -9 -4 -10 -7 -10 -6
-55 2 -65 7 -9 7 -13 -2 -13 -7 0 -10 -11 -9 -28 2 -15 -1 -33 -5 -41 -5 -8
-4 -16 2 -20 7 -4 8 -12 1 -21 -7 -12 -11 -13 -18 -2 -6 11 -11 10 -25 -3 -17
-17 -22 -45 -8 -45 4 0 8 -13 7 -29 0 -27 -1 -27 -22 -14 -19 13 -23 12 -32
-5 -7 -13 -7 -22 1 -30 7 -7 8 -12 4 -12 -5 0 -3 -7 4 -15 14 -17 6 -50 -10
-40 -5 3 -10 -1 -10 -9 0 -9 -5 -16 -11 -16 -6 0 -7 -5 -2 -12 10 -17 10 -39
1 -59 -4 -9 -9 -27 -12 -40 -15 -78 -34 -126 -60 -152 -17 -15 -36 -25 -43
-23 -7 3 -13 2 -13 -3 0 -12 -47 -27 -110 -36 -19 -3 -50 -9 -67 -14 -18 -5
-33 -7 -33 -4 0 3 -7 0 -15 -7 -9 -7 -18 -10 -21 -7 -3 3 -20 -1 -38 -8 -34
-14 -53 -15 -73 -2 -9 5 -13 2 -13 -8 0 -9 -4 -14 -8 -11 -11 7 -42 -30 -34
-40 4 -5 0 -3 -10 4 -13 11 -18 10 -30 -7 -13 -19 -68 -25 -68 -8 0 4 -8 4
-17 -2 -18 -9 -107 -6 -124 5 -5 3 -18 0 -29 -6 -12 -7 -20 -7 -20 -1 0 5 -10
7 -22 4 -13 -3 -31 -6 -40 -6 -10 -1 -18 -7 -18 -14 0 -7 -6 -13 -12 -13 -9 0
-9 -3 1 -9 17 -11 24 -41 10 -41 -14 0 -11 -26 6 -40 11 -10 18 -9 30 4 9 9
23 16 31 16 8 0 14 5 14 10 0 12 37 13 44 1 3 -5 15 -7 26 -4 11 3 26 0 34 -6
11 -10 16 -8 24 5 8 15 13 16 26 5 8 -7 19 -10 24 -7 5 3 21 7 36 10 24 4 27
2 23 -15 -3 -12 1 -23 14 -29 14 -8 19 -7 19 1 0 7 3 9 6 6 4 -4 15 3 25 14
10 11 26 19 37 17 11 -2 29 5 40 15 11 10 29 19 41 20 11 1 23 7 25 14 3 7 12
13 21 13 8 0 15 5 15 11 0 5 5 7 10 4 6 -3 10 -1 10 4 0 6 7 11 15 11 8 0 15
5 15 12 0 6 3 9 6 6 6 -7 -44 -91 -57 -96 -4 -2 -5 -10 -2 -18 3 -8 1 -14 -4
-14 -5 0 -20 -24 -33 -52 -24 -55 -38 -71 -53 -61 -10 6 -47 -31 -47 -47 0 -6
-4 -9 -9 -6 -5 3 -14 -1 -21 -9 -7 -8 -16 -15 -21 -15 -14 0 -109 -102 -109
-117 0 -7 -4 -13 -10 -13 -5 0 -21 -18 -35 -40 -35 -55 -57 -80 -72 -80 -7 0
-13 -4 -13 -8 0 -4 -20 -30 -45 -57 -25 -28 -43 -56 -40 -62 4 -13 -33 -45
-45 -38 -4 3 -15 -4 -25 -15 -10 -11 -22 -20 -27 -20 -16 0 -40 -29 -33 -40 3
-5 -3 -10 -14 -10 -12 0 -21 -4 -21 -10 0 -5 -7 -7 -15 -4 -10 4 -18 -3 -25
-21 -5 -14 -14 -24 -19 -21 -5 3 -31 -14 -57 -39 -28 -26 -51 -40 -55 -33 -4
6 -17 -1 -32 -18 -14 -15 -24 -31 -21 -36 3 -4 0 -8 -6 -8 -7 0 -10 -7 -6 -15
3 -8 1 -15 -4 -15 -15 0 -1 -24 26 -43 21 -16 29 -17 59 -6 19 7 35 17 35 21
0 4 7 8 15 8 14 0 20 12 16 34 -3 16 41 55 55 49 8 -3 14 0 14 7 0 17 26 40
45 40 9 0 28 11 42 24 15 14 30 23 34 20 4 -2 17 8 28 22 12 15 21 23 21 19 0
-4 14 6 30 24 27 27 59 44 47 24 -3 -5 1 -14 9 -21 8 -7 14 -10 14 -6 0 3 6 1
14 -5 11 -9 17 -5 29 21 9 18 13 36 11 40 -3 4 1 8 9 8 8 0 22 10 30 23 8 12
33 42 56 67 36 40 46 59 42 82 0 4 9 10 20 13 12 4 18 12 15 21 -3 8 -1 14 4
14 6 0 9 4 7 8 -1 5 9 24 23 42 14 18 25 37 25 44 2 26 18 65 28 69 9 3 12
-25 13 -102 0 -114 5 -173 15 -181 4 -3 10 -23 13 -45 4 -21 11 -42 17 -46 6
-3 10 -10 10 -15 -3 -25 143 -146 174 -144 3 0 20 -6 38 -13 17 -7 41 -12 52
-11 86 7 170 16 175 19 4 2 25 8 47 13 36 8 39 7 38 -11 -1 -11 -10 -24 -21
-28 -20 -8 -59 -49 -46 -49 4 0 -1 -5 -10 -11 -10 -5 -18 -17 -18 -24 0 -8 -4
-16 -10 -16 -5 -1 -14 -2 -18 -3 -11 -2 -92 -85 -92 -95 0 -5 -7 -12 -15 -15
-9 -3 -21 -19 -26 -35 -10 -27 -41 -48 -61 -43 -5 1 -8 -5 -8 -13 0 -8 -6 -15
-12 -15 -9 0 -8 -4 2 -10 8 -5 11 -10 5 -10 -5 0 -1 -7 9 -15 15 -11 23 -12
33 -3 7 6 17 7 21 3 4 -4 1 -10 -5 -12 -7 -3 -13 -9 -13 -15 0 -6 -12 -27 -27
-46 -21 -29 -24 -38 -15 -53 14 -22 15 -32 3 -25 -13 8 -31 -17 -33 -48 -2
-16 -13 -39 -25 -52 -13 -14 -23 -37 -23 -52 0 -18 -10 -36 -32 -54 -28 -23
-31 -29 -18 -38 12 -8 13 -13 3 -30 -7 -11 -13 -26 -13 -33 0 -18 47 -40 55
-26 4 5 11 7 16 4 5 -4 9 -2 9 3 0 5 11 21 25 36 13 14 22 26 20 26 -2 0 2 12
10 27 8 15 12 30 10 34 -3 4 2 12 10 19 8 7 15 23 15 37 0 13 7 26 15 29 9 4
15 11 14 18 -3 24 2 37 21 56 17 17 29 56 32 108 1 6 5 12 9 12 5 0 6 7 3 15
-7 17 11 21 21 5 8 -13 65 56 65 78 0 8 3 12 7 9 9 -9 34 13 27 24 -3 5 2 9
10 9 9 0 16 4 16 8 0 5 11 22 25 38 14 16 25 33 25 37 0 5 4 6 9 2 12 -7 25
31 16 45 -3 5 0 10 7 10 7 0 24 18 38 40 14 22 28 40 31 40 4 0 9 18 13 40 3
22 11 40 16 40 5 0 7 7 4 15 -4 8 -1 15 5 15 6 0 11 7 11 15 0 8 5 15 12 15 6
0 8 3 5 7 -4 3 -2 12 4 20 6 7 8 13 4 13 -4 0 4 11 19 25 15 14 30 25 34 25
12 0 122 109 122 120 0 5 4 10 9 10 14 0 5 -49 -19 -105 -12 -27 -19 -57 -17
-67 3 -10 2 -16 -3 -13 -14 9 -32 -23 -29 -53 2 -16 -3 -37 -11 -47 -12 -14
-12 -18 1 -26 18 -11 26 -11 34 1 13 22 22 8 21 -31 -1 -22 2 -43 7 -46 4 -3
7 -23 5 -46 -1 -25 2 -42 10 -45 6 -2 12 -10 12 -17 0 -7 6 -16 13 -18 9 -4 9
-6 -1 -6 -7 -1 -10 -5 -7 -11 3 -5 0 -20 -7 -32 -23 -42 -20 -73 8 -101 26
-27 54 -36 54 -18 0 5 9 13 21 16 11 4 18 12 16 18 -2 7 5 19 15 28 17 16 18
17 1 24 -10 5 -21 8 -25 7 -4 -1 -3 9 2 22 5 15 5 27 -3 35 -8 8 -8 11 0 11 6
0 9 9 6 20 -3 11 -9 20 -14 20 -5 0 -4 11 1 25 7 19 6 26 -6 33 -19 11 -20 22
-3 33 10 6 9 12 -5 28 -10 11 -15 24 -12 30 3 5 2 11 -3 13 -15 5 -17 32 -3
34 6 1 17 2 22 3 6 0 10 21 10 45 0 27 6 51 16 60 13 14 14 17 1 22 -17 6 -16
29 1 46 7 7 8 17 1 30 -5 10 -6 18 -2 18 4 0 8 23 8 50 0 28 -3 50 -8 50 -4 0
-3 10 4 21 6 12 8 35 5 53 -14 74 -13 110 4 142 10 18 16 35 13 38 -3 3 3 8
13 12 10 3 28 10 39 15 36 16 80 32 94 35 8 1 17 8 21 15 4 6 12 9 18 5 15 -9
60 36 54 53 -3 8 0 11 6 7 6 -3 14 -1 18 5 5 8 9 8 14 -2 6 -9 16 -5 38 17 21
21 38 29 60 28 42 -2 59 18 36 41 -15 14 -15 18 -3 26 8 5 19 7 26 5 6 -3 14
1 16 8 3 7 19 12 36 11 19 -1 31 3 31 10 0 16 40 27 40 12 0 -7 7 -4 15 7 7
10 17 16 22 13 10 -5 58 44 58 61 0 6 -11 25 -24 41 -24 28 -26 29 -53 15 -15
-8 -35 -26 -44 -40 -10 -14 -23 -23 -30 -20 -8 3 -14 0 -14 -6 0 -9 -3 -9 -12
0 -18 18 -42 14 -56 -9 -8 -12 -19 -18 -28 -15 -9 4 -23 -3 -33 -15 -15 -19
-19 -20 -33 -6 -13 14 -18 13 -41 -8 -15 -12 -27 -27 -27 -33 0 -12 -31 -27
-61 -31 -6 0 -9 -8 -5 -16 3 -9 0 -15 -9 -15 -14 0 -95 -78 -95 -91 0 -3 -10
-5 -22 -4 -17 1 -21 8 -22 33 -1 18 2 32 6 32 8 0 -21 111 -33 126 -5 6 -6 13
-3 17 3 3 -3 10 -14 16 -11 6 -22 21 -25 33 -5 19 -1 18 26 -12 19 -19 32 -38
31 -41 -2 -3 5 -13 16 -21 28 -25 68 -7 74 33 1 3 9 14 19 23 20 21 19 35 -6
50 -12 8 -22 5 -39 -11 -19 -18 -26 -20 -40 -9 -10 7 -18 17 -18 21 0 4 -11
16 -25 27 -14 11 -22 24 -19 30 4 5 9 26 11 45 4 26 0 38 -14 48 -25 20 -32
18 -39 -9 -4 -16 -11 -23 -20 -19 -17 6 -18 40 -1 46 9 4 9 7 -1 18 -7 8 -17
15 -23 15 -5 1 -10 2 -11 3 -9 7 -48 10 -48 3 0 -16 -59 -10 -75 8 -10 11 -24
20 -31 20 -20 0 -25 16 -13 44 15 31 -2 57 -31 49 -17 -5 -52 -45 -56 -65 -1
-5 -3 -10 -4 -13 -7 -13 -5 -31 3 -42 7 -9 0 -13 -24 -13 -56 0 -74 -2 -84 -9
-5 -4 -19 -7 -30 -7 -11 1 -23 -3 -27 -9 -4 -5 -8 0 -8 13 0 13 9 32 20 44 10
12 17 24 15 28 -3 4 11 24 30 44 19 20 32 43 29 50 -3 8 6 26 21 40 14 14 23
31 20 36 -3 6 -2 10 2 10 5 0 17 14 26 30 17 28 17 31 1 37 -12 4 -25 -3 -41
-23 l-24 -29 13 30 c7 17 18 36 25 43 9 10 10 19 3 33 -7 12 -7 19 -1 19 6 0
8 7 5 15 -4 8 -2 15 4 15 6 0 8 8 5 19 -3 10 0 22 7 26 8 5 6 10 -5 19 -15 11
-14 14 6 40 20 25 21 30 7 40 -8 6 -15 15 -14 19 1 9 -43 57 -53 57 -3 0 -13
-10 -21 -22z m355 -660 c4 -3 2 -9 -3 -12 -5 -3 -15 1 -21 8 -10 11 -9 14 3
12 9 -1 18 -5 21 -8z m435 -268 c0 -5 -5 -10 -11 -10 -5 0 -7 5 -4 10 3 6 8
10 11 10 2 0 4 -4 4 -10z m-902 -229 c-3 -9 -35 -49 -88 -111 -27 -31 -15 -6
18 38 13 17 21 32 18 32 -10 0 37 49 47 49 5 1 7 -3 5 -8z m486 -67 c3 -8 2
-12 -4 -9 -6 3 -10 10 -10 16 0 14 7 11 14 -7z"/>
</g>
</svg>
