<?xml version="1.0" standalone="no"?>
<!DOCTYPE svg PUBLIC "-//W3C//DTD SVG 20010904//EN"
 "http://www.w3.org/TR/2001/REC-SVG-20010904/DTD/svg10.dtd">
<svg version="1.0" xmlns="http://www.w3.org/2000/svg"
 width="96.000000pt" height="110.000000pt" viewBox="0 0 96.000000 110.000000"
 preserveAspectRatio="xMidYMid meet">
<metadata>
Created by potrace 1.13, written by Peter Selinger 2001-2015
</metadata>
<g transform="translate(0.000000,110.000000) scale(0.100000,-0.100000)"
fill="#000000" stroke="none">
<path d="M363 1083 c-24 -5 -37 -40 -27 -77 5 -20 -1 -31 -28 -54 -23 -21 -38
-48 -50 -89 -10 -32 -18 -64 -18 -70 0 -6 -7 -13 -15 -17 -11 -4 -15 -21 -15
-59 0 -54 -19 -130 -46 -179 -8 -14 -14 -39 -14 -55 0 -17 -14 -45 -35 -72
-21 -26 -35 -55 -35 -71 0 -15 -8 -38 -19 -51 -27 -35 -61 -105 -61 -126 1
-57 118 -105 285 -118 74 -5 106 -12 124 -26 35 -28 96 -25 133 6 19 16 42 25
65 25 47 0 237 55 287 83 22 12 44 29 49 38 14 23 2 59 -31 94 -49 53 -82 101
-82 121 0 10 -14 30 -31 44 -23 19 -32 36 -36 70 -3 25 -11 50 -18 56 -17 13
-45 120 -45 172 0 23 -6 45 -15 52 -8 7 -15 19 -15 27 0 36 -54 126 -94 154
-36 27 -42 36 -46 77 l-5 47 -70 1 c-38 1 -80 0 -92 -3z"/>
</g>
</svg>
