<?xml version="1.0" standalone="no"?>
<!DOCTYPE svg PUBLIC "-//W3C//DTD SVG 20010904//EN"
 "http://www.w3.org/TR/2001/REC-SVG-20010904/DTD/svg10.dtd">
<svg version="1.0" xmlns="http://www.w3.org/2000/svg"
 width="237.000000pt" height="303.000000pt" viewBox="0 0 237.000000 303.000000"
 preserveAspectRatio="xMidYMid meet">
<metadata>
Created by potrace 1.13, written by Peter Selinger 2001-2015
</metadata>
<g transform="translate(0.000000,303.000000) scale(0.100000,-0.100000)"
fill="#000000" stroke="none">
<path d="M1110 3007 c-17 -8 -26 -22 -28 -42 -6 -60 -19 -72 -87 -79 -153 -16
-160 -27 -150 -242 l7 -164 -29 -27 c-15 -16 -46 -48 -68 -73 -33 -38 -51 -49
-105 -64 -104 -29 -108 -32 -116 -71 -8 -47 2 -135 20 -170 10 -20 12 -35 5
-53 -5 -14 -9 -43 -9 -66 1 -23 -2 -57 -5 -76 -3 -19 -10 -60 -15 -90 -25
-153 -64 -341 -80 -390 -10 -30 -35 -109 -55 -175 -39 -130 -90 -242 -117
-263 -10 -7 -18 -26 -18 -41 0 -16 -18 -55 -40 -90 -22 -34 -40 -66 -40 -72 0
-16 -57 -117 -85 -152 -15 -18 -33 -40 -41 -50 -8 -9 -14 -20 -14 -24 0 -3 -7
-14 -15 -23 -9 -10 -18 -39 -21 -66 -6 -44 -3 -52 20 -76 57 -56 262 -135 441
-169 33 -6 62 -15 65 -20 3 -5 51 -13 105 -19 55 -6 136 -15 180 -20 105 -13
245 -13 245 0 0 6 14 10 30 10 30 0 30 0 30 -57 0 -32 4 -63 8 -69 8 -13 170
-28 195 -18 14 5 15 16 11 63 l-6 57 128 13 c167 17 394 59 564 104 157 42
300 102 328 136 32 40 -5 140 -116 310 -23 35 -42 68 -42 74 0 5 -20 32 -45
59 -29 32 -45 59 -45 76 0 14 -11 37 -24 51 -37 41 -124 265 -175 451 -74 271
-84 328 -85 495 0 88 4 203 8 255 8 95 8 95 -19 123 -15 15 -36 27 -46 27 -11
0 -19 4 -19 8 0 4 -17 14 -37 21 -50 18 -109 60 -124 89 -7 12 -30 27 -52 34
-21 6 -41 18 -44 25 -3 7 0 71 6 141 12 149 5 202 -35 243 -27 28 -32 29 -115
29 -95 0 -99 2 -99 64 0 19 -8 40 -18 49 -22 20 -77 22 -112 4z"/>
</g>
</svg>
