<?xml version="1.0" standalone="no"?>
<!DOCTYPE svg PUBLIC "-//W3C//DTD SVG 20010904//EN"
 "http://www.w3.org/TR/2001/REC-SVG-20010904/DTD/svg10.dtd">
<svg version="1.0" xmlns="http://www.w3.org/2000/svg"
 width="96.000000pt" height="110.000000pt" viewBox="0 0 96.000000 110.000000"
 preserveAspectRatio="xMidYMid meet">
<metadata>
Created by potrace 1.13, written by Peter Selinger 2001-2015
</metadata>
<g transform="translate(0.000000,110.000000) scale(0.100000,-0.100000)"
fill="#000000" stroke="none">
<path d="M438 1084 c-5 -4 -8 -26 -8 -49 0 -37 -4 -44 -44 -72 -42 -29 -96
-118 -96 -156 0 -8 -7 -20 -15 -27 -9 -7 -15 -29 -15 -52 0 -52 -28 -159 -45
-172 -7 -6 -15 -31 -18 -56 -4 -34 -13 -51 -36 -70 -17 -14 -31 -34 -31 -44 0
-20 -33 -68 -82 -121 -77 -82 -39 -126 163 -184 58 -17 122 -31 142 -31 23 0
46 -9 65 -25 37 -31 98 -34 133 -6 18 14 50 21 124 26 167 13 284 61 285 118
0 21 -34 91 -61 126 -11 13 -19 36 -19 51 0 16 -14 45 -35 71 -21 27 -35 55
-35 72 0 16 -6 41 -14 55 -27 49 -46 125 -46 179 0 38 -4 55 -15 59 -8 4 -15
11 -15 17 0 41 -39 132 -66 157 -27 23 -31 33 -30 73 1 25 -2 49 -7 53 -10 10
-170 18 -179 8z"/>
</g>
</svg>
