<?xml version="1.0" standalone="no"?>
<!DOCTYPE svg PUBLIC "-//W3C//DTD SVG 20010904//EN"
 "http://www.w3.org/TR/2001/REC-SVG-20010904/DTD/svg10.dtd">
<svg version="1.0" xmlns="http://www.w3.org/2000/svg"
 width="160.000000pt" height="210.000000pt" viewBox="0 0 160.000000 210.000000"
 preserveAspectRatio="xMidYMid meet">
<metadata>
Created by potrace 1.13, written by Peter Selinger 2001-2015
</metadata>
<g transform="translate(0.000000,210.000000) scale(0.100000,-0.100000)"
fill="#000000" stroke="none">
<path d="M657 2083 c-4 -3 -7 -23 -7 -43 0 -35 -2 -36 -29 -32 -51 7 -138 -17
-155 -43 -18 -27 -21 -96 -7 -141 5 -16 12 -44 15 -61 5 -29 3 -33 -17 -33
-31 0 -40 -9 -66 -62 -13 -27 -28 -48 -34 -48 -7 0 -21 -15 -31 -33 -19 -31
-31 -116 -41 -287 -5 -96 -27 -254 -37 -265 -4 -5 -8 -23 -8 -40 0 -16 -12
-75 -27 -130 -14 -55 -27 -113 -28 -130 -4 -48 -17 -110 -25 -115 -13 -9 -140
-226 -151 -258 -27 -79 1 -98 231 -155 184 -46 228 -54 320 -62 41 -3 90 -8
108 -11 l32 -5 0 -64 0 -65 75 0 c87 0 99 11 93 89 -5 65 11 81 82 81 166 0
443 58 593 123 39 17 47 25 47 46 -1 48 -26 97 -97 193 -39 52 -74 105 -78
116 -3 12 -11 22 -16 22 -5 0 -9 6 -9 14 0 8 -6 16 -12 19 -7 2 -34 42 -60 89
-44 78 -74 155 -111 288 -16 55 -30 147 -57 355 -13 106 -26 148 -53 170 -13
11 -37 40 -53 65 -34 53 -42 60 -71 60 -28 0 -28 6 -6 92 17 66 17 67 -6 116
-26 55 -38 62 -118 62 -52 0 -53 1 -53 29 0 55 -7 61 -69 61 -32 0 -61 -3 -64
-7z"/>
</g>
</svg>
