<?xml version="1.0" standalone="no"?>
<!DOCTYPE svg PUBLIC "-//W3C//DTD SVG 20010904//EN"
 "http://www.w3.org/TR/2001/REC-SVG-20010904/DTD/svg10.dtd">
<svg version="1.0" xmlns="http://www.w3.org/2000/svg"
 width="140.000000pt" height="167.000000pt" viewBox="0 0 140.000000 167.000000"
 preserveAspectRatio="xMidYMid meet">
<metadata>
Created by potrace 1.13, written by Peter Selinger 2001-2015
</metadata>
<g transform="translate(0.000000,167.000000) scale(0.100000,-0.100000)"
fill="#000000" stroke="none">
<path d="M627 1653 c-4 -3 -7 -15 -7 -25 0 -10 -3 -18 -7 -19 -5 0 -32 -2 -62
-4 -83 -6 -101 -19 -101 -75 0 -26 9 -70 21 -98 19 -45 20 -54 8 -81 -9 -19
-23 -31 -40 -35 -46 -9 -97 -62 -114 -119 -9 -29 -24 -130 -35 -224 -20 -176
-28 -216 -62 -335 -23 -80 -55 -128 -156 -230 l-75 -76 5 -67 c6 -71 11 -79
80 -115 39 -21 95 -41 165 -59 60 -16 267 -41 341 -41 59 0 62 -1 62 -25 0
-23 4 -25 45 -25 41 0 45 2 45 25 0 14 4 25 8 25 58 0 292 24 342 35 148 33
272 93 290 141 14 35 12 111 -2 137 -6 12 -34 46 -62 75 -138 145 -207 304
-246 572 -10 74 -26 156 -35 182 -16 46 -86 128 -109 128 -7 0 -25 14 -39 31
l-25 30 19 54 c40 114 20 153 -80 162 -59 6 -61 7 -61 34 0 28 -1 29 -53 29
-30 0 -57 -3 -60 -7z"/>
</g>
</svg>
