<?xml version="1.0" standalone="no"?>
<!DOCTYPE svg PUBLIC "-//W3C//DTD SVG 20010904//EN"
 "http://www.w3.org/TR/2001/REC-SVG-20010904/DTD/svg10.dtd">
<svg version="1.0" xmlns="http://www.w3.org/2000/svg"
 width="237.000000pt" height="303.000000pt" viewBox="0 0 237.000000 303.000000"
 preserveAspectRatio="xMidYMid meet">
<metadata>
Created by potrace 1.13, written by Peter Selinger 2001-2015
</metadata>
<g transform="translate(0.000000,303.000000) scale(0.100000,-0.100000)"
fill="#000000" stroke="none">
<path d="M1147 3003 c-9 -11 -17 -33 -17 -50 0 -60 -4 -63 -99 -63 -83 0 -88
-1 -115 -29 -40 -41 -47 -94 -35 -243 6 -70 9 -134 6 -141 -3 -7 -23 -19 -44
-25 -22 -7 -45 -22 -52 -34 -15 -29 -74 -71 -123 -89 -21 -7 -38 -17 -38 -21
0 -4 -8 -8 -19 -8 -10 0 -31 -12 -46 -27 -27 -28 -27 -28 -19 -123 4 -52 8
-167 8 -255 -1 -167 -11 -224 -85 -495 -51 -186 -138 -410 -175 -451 -13 -14
-24 -37 -24 -51 0 -17 -16 -44 -45 -76 -25 -27 -45 -54 -45 -59 0 -6 -19 -39
-42 -74 -111 -170 -148 -270 -116 -310 28 -34 171 -94 328 -136 170 -45 397
-87 564 -104 l128 -13 -6 -57 c-4 -47 -3 -58 11 -63 25 -10 187 5 195 18 4 6
8 37 8 69 0 57 0 57 30 57 17 0 30 -4 30 -10 0 -13 140 -13 245 0 44 5 125 14
180 20 54 6 102 14 105 19 3 5 32 14 65 20 179 34 384 113 441 169 23 24 26
32 20 76 -3 27 -12 56 -21 66 -8 9 -15 20 -15 23 0 4 -6 15 -14 24 -8 10 -26
32 -41 50 -28 35 -85 136 -85 152 0 6 -18 38 -40 72 -22 35 -40 74 -40 90 0
15 -8 34 -17 41 -28 21 -79 133 -118 263 -20 66 -45 145 -55 175 -16 49 -55
237 -80 390 -5 30 -12 71 -15 90 -3 19 -6 53 -5 76 0 23 -4 52 -9 66 -7 18 -5
33 5 53 18 35 28 123 20 170 -8 39 -12 42 -116 71 -54 15 -72 26 -105 64 -22
25 -53 57 -68 73 l-29 27 7 164 c10 215 3 225 -148 242 -69 8 -86 22 -87 70 0
41 -20 56 -78 62 -38 3 -51 0 -65 -15z"/>
</g>
</svg>
