<?xml version="1.0" standalone="no"?>
<!DOCTYPE svg PUBLIC "-//W3C//DTD SVG 20010904//EN"
 "http://www.w3.org/TR/2001/REC-SVG-20010904/DTD/svg10.dtd">
<svg version="1.0" xmlns="http://www.w3.org/2000/svg"
 width="290.000000pt" height="305.000000pt" viewBox="0 0 290.000000 305.000000"
 preserveAspectRatio="xMidYMid meet">
<metadata>
Created by potrace 1.13, written by Peter Selinger 2001-2015
</metadata>
<g transform="translate(0.000000,305.000000) scale(0.100000,-0.100000)"
fill="#000000" stroke="none">
<path d="M296 3040 c-16 -5 -38 -18 -50 -29 -11 -10 -61 -40 -111 -66 -97 -49
-120 -72 -130 -122 -8 -44 18 -73 65 -73 51 0 80 -10 80 -27 0 -8 6 -27 14
-41 8 -15 17 -35 20 -45 3 -9 13 -20 23 -24 15 -6 38 -28 88 -85 8 -10 15 -22
15 -27 0 -5 8 -23 17 -40 17 -28 17 -34 -1 -118 -11 -48 -20 -105 -22 -125 -5
-59 -23 -118 -61 -198 -57 -118 -77 -264 -50 -362 8 -29 18 -70 22 -92 3 -21
13 -52 20 -70 8 -17 23 -63 35 -103 12 -39 25 -73 29 -75 4 -2 25 -37 46 -78
40 -76 82 -146 100 -166 6 -6 32 -40 58 -76 27 -36 64 -74 83 -84 19 -10 34
-22 34 -26 0 -5 7 -8 15 -8 8 0 15 -4 15 -10 0 -5 9 -10 20 -10 11 0 20 -4 20
-9 0 -5 17 -20 38 -32 43 -27 68 -47 132 -109 49 -48 115 -100 125 -100 11 0
55 -53 55 -66 0 -7 10 -37 23 -66 20 -45 22 -59 13 -89 -7 -23 -16 -34 -24
-31 -24 8 -136 -19 -164 -40 -35 -24 -39 -68 -7 -68 11 0 29 5 40 10 31 17 21
-4 -11 -22 -17 -9 -30 -23 -30 -30 0 -10 -25 -13 -102 -13 -118 0 -168 -19
-168 -63 0 -23 2 -23 54 -17 52 7 54 6 58 -16 2 -17 10 -25 30 -27 24 -3 26
-6 21 -36 l-5 -33 102 -2 c57 -1 117 3 134 8 17 6 64 19 104 31 77 23 82 26
112 78 17 27 26 32 56 32 53 0 101 26 107 58 17 90 41 180 52 202 7 14 16 47
20 73 9 56 24 67 94 67 45 0 51 2 51 21 0 19 4 21 38 15 20 -4 60 -10 87 -15
28 -5 95 -18 150 -31 55 -12 117 -26 138 -30 31 -6 57 -26 125 -97 48 -49 107
-113 132 -142 170 -203 194 -221 290 -221 128 0 222 51 301 164 32 45 34 54
34 125 0 69 -3 82 -35 136 -19 33 -52 80 -74 104 -46 49 -179 144 -311 221
-90 53 -160 107 -243 188 -25 23 -52 48 -62 55 -20 14 -78 95 -111 154 -23 40
-126 178 -159 212 -8 9 -26 32 -39 51 -22 31 -110 121 -156 159 -41 34 -151
127 -163 138 -6 6 -21 14 -31 18 -11 3 -22 12 -25 20 -3 8 -10 15 -16 15 -6 0
-21 11 -33 23 -44 47 -124 95 -212 126 -50 18 -114 41 -143 52 -29 10 -59 19
-67 19 -8 0 -39 9 -68 20 -45 17 -62 31 -98 80 -24 33 -59 88 -77 123 l-34 62
6 125 c10 195 -1 252 -70 368 -74 124 -112 162 -205 206 -76 36 -117 42 -173
26z m850 -2540 c8 0 14 -9 14 -20 0 -11 4 -20 10 -20 5 0 7 -7 4 -15 -10 -24
-38 -17 -52 13 -26 53 -27 56 -8 49 10 -4 24 -7 32 -7z m68 -105 c17 -13 17
-15 3 -21 -10 -3 -17 -12 -17 -20 0 -8 -9 -14 -20 -14 -22 0 -28 -35 -7 -43 7
-3 5 -6 -5 -6 -26 -1 -24 -41 2 -41 15 0 20 -7 20 -25 0 -18 -5 -25 -20 -25
-11 0 -20 5 -20 10 0 6 -9 10 -20 10 -11 0 -20 -4 -20 -10 0 -5 -7 -10 -15
-10 -18 0 -18 2 -3 35 6 14 19 25 30 25 22 0 24 26 3 46 -17 17 -21 59 -4 49
5 -4 22 -4 36 0 20 5 24 11 20 30 -5 28 8 32 37 10z m-128 -235 c16 0 19 -26
4 -35 -5 -3 -10 1 -10 9 0 9 -4 16 -10 16 -5 0 -9 10 -9 23 1 16 2 18 6 5 2
-10 11 -18 19 -18z m-156 5 c0 -8 -4 -15 -10 -15 -5 0 -10 7 -10 15 0 8 5 15
10 15 6 0 10 -7 10 -15z m67 -1 c-3 -3 -12 -4 -19 -1 -8 3 -5 6 6 6 11 1 17
-2 13 -5z m3 -73 c0 -5 -11 -12 -24 -15 -13 -3 -31 -9 -40 -12 -9 -3 -16 -2
-16 3 0 6 15 15 33 21 42 13 47 14 47 3z"/>
</g>
</svg>
