<?xml version="1.0" standalone="no"?>
<!DOCTYPE svg PUBLIC "-//W3C//DTD SVG 20010904//EN"
 "http://www.w3.org/TR/2001/REC-SVG-20010904/DTD/svg10.dtd">
<svg version="1.0" xmlns="http://www.w3.org/2000/svg"
 width="288.000000pt" height="261.000000pt" viewBox="0 0 288.000000 261.000000"
 preserveAspectRatio="xMidYMid meet">
<metadata>
Created by potrace 1.13, written by Peter Selinger 2001-2015
</metadata>
<g transform="translate(0.000000,261.000000) scale(0.100000,-0.100000)"
fill="#000000" stroke="none">
<path d="M386 2595 c-3 -8 -12 -15 -21 -15 -8 0 -15 -4 -15 -10 0 -5 -5 -10
-11 -10 -21 0 -156 -150 -188 -210 -18 -34 -39 -64 -47 -67 -22 -8 -44 -57
-44 -98 l0 -35 75 0 c72 0 77 -1 109 -33 l33 -33 -8 -70 c-5 -38 -13 -91 -19
-117 -13 -64 -13 -338 1 -412 11 -60 84 -225 100 -225 5 0 9 -9 9 -20 0 -10 6
-23 13 -27 6 -4 20 -21 29 -38 34 -61 106 -192 143 -260 21 -38 47 -80 59 -91
11 -12 28 -31 36 -44 8 -12 24 -32 35 -44 63 -71 85 -99 85 -104 0 -8 63 -62
73 -62 4 0 7 -7 7 -15 0 -8 6 -15 13 -15 7 0 19 -9 27 -21 8 -11 30 -29 47
-40 26 -16 32 -25 27 -43 -3 -14 1 -27 10 -35 10 -8 16 -29 16 -53 0 -37 -6
-46 -95 -130 -52 -50 -95 -97 -95 -104 0 -8 -18 -34 -40 -58 -22 -24 -40 -46
-40 -50 0 -3 31 -6 70 -6 70 0 70 0 84 33 7 18 33 49 57 67 24 19 61 49 81 67
21 18 52 40 70 48 42 20 72 37 92 54 13 11 20 9 43 -9 21 -16 29 -33 34 -67
l5 -45 -75 -74 -75 -74 66 0 c37 0 70 5 74 11 3 6 26 19 50 30 29 12 52 31 65
54 16 27 28 35 49 35 30 0 150 85 150 107 0 6 18 27 40 44 22 18 40 38 40 44
0 7 17 25 37 41 21 15 66 52 101 82 43 37 85 63 129 79 39 14 99 49 147 85 81
61 81 61 168 69 47 4 91 10 97 13 5 4 72 17 148 30 121 21 150 30 238 74 55
28 108 56 118 64 10 7 29 45 43 83 21 57 24 83 21 140 -3 40 -12 83 -23 100
l-17 31 -69 -8 c-38 -4 -84 -12 -101 -17 -88 -29 -244 -52 -392 -57 -145 -6
-167 -5 -230 14 -39 12 -90 34 -115 50 -25 15 -60 34 -79 42 -18 7 -55 30 -81
51 -25 20 -80 56 -121 79 -41 23 -81 48 -89 55 -9 8 -46 26 -82 39 -37 14 -97
46 -133 71 -37 25 -72 45 -78 45 -7 0 -41 21 -77 46 -36 25 -119 81 -185 126
-66 44 -145 104 -175 134 -30 29 -65 62 -78 71 -27 21 -62 134 -62 202 0 88
-22 163 -68 234 -25 37 -57 75 -72 84 -15 9 -33 31 -41 49 -7 19 -16 34 -20
34 -5 0 -20 11 -35 25 -30 28 -59 32 -68 10z m105 -555 c5 0 9 -9 9 -20 0 -11
5 -20 10 -20 6 0 10 -7 10 -15 0 -8 9 -15 20 -15 11 0 20 -7 20 -15 0 -8 4
-15 9 -15 5 0 8 -8 6 -17 -14 -71 -14 -70 -40 -65 -20 3 -25 0 -25 -16 0 -11
-8 -22 -18 -24 -25 -7 -52 14 -52 41 0 11 -4 21 -10 21 -5 0 -10 9 -10 20 0
11 5 20 10 20 6 0 10 18 10 40 0 33 -4 40 -19 40 -10 0 -21 9 -24 20 -3 11 -1
20 4 20 5 0 9 -4 9 -10 0 -5 9 -10 20 -10 12 0 20 7 20 16 0 11 5 14 16 10 9
-3 20 -6 25 -6z m-91 -84 c0 -30 -3 -34 -30 -38 -16 -3 -30 -1 -30 4 0 4 4 8
9 8 5 0 11 14 15 30 8 43 36 40 36 -4z m0 -86 c0 -5 -4 -10 -10 -10 -5 0 -10
5 -10 10 0 6 5 10 10 10 6 0 10 -4 10 -10z m945 -950 c3 -5 1 -10 -4 -10 -6 0
-11 5 -11 10 0 6 2 10 4 10 3 0 8 -4 11 -10z m-20 -578 c-5 -8 -68 13 -72 25
-12 30 21 33 47 5 15 -15 25 -28 25 -30z"/>
<path d="M520 1920 c0 -13 7 -20 20 -20 13 0 20 7 20 20 0 13 -7 20 -20 20
-13 0 -20 -7 -20 -20z"/>
</g>
</svg>
