<?xml version="1.0" standalone="no"?>
<!DOCTYPE svg PUBLIC "-//W3C//DTD SVG 20010904//EN"
 "http://www.w3.org/TR/2001/REC-SVG-20010904/DTD/svg10.dtd">
<svg version="1.0" xmlns="http://www.w3.org/2000/svg"
 width="138.000000pt" height="142.000000pt" viewBox="0 0 138.000000 142.000000"
 preserveAspectRatio="xMidYMid meet">
<metadata>
Created by potrace 1.13, written by Peter Selinger 2001-2015
</metadata>
<g transform="translate(0.000000,142.000000) scale(0.100000,-0.100000)"
fill="#000000" stroke="none">
<path d="M1086 1389 c-59 -47 -77 -91 -87 -222 -14 -170 -26 -238 -47 -267
-33 -44 -238 -159 -392 -219 -47 -19 -157 -58 -245 -87 -88 -30 -193 -70 -233
-91 -72 -37 -72 -37 -71 -77 0 -23 8 -54 18 -71 l18 -30 164 -6 c90 -3 219
-10 286 -14 89 -6 138 -4 183 5 70 15 90 6 69 -28 -12 -18 -10 -24 8 -44 12
-13 33 -45 47 -71 l25 -48 -34 -31 c-41 -36 -44 -54 -10 -70 19 -9 29 -7 50 6
25 17 29 17 63 0 27 -12 43 -14 62 -7 14 5 44 5 70 1 25 -4 51 -6 58 -3 19 7
14 36 -7 42 -11 3 -21 15 -23 27 -2 15 -11 22 -31 24 -22 3 -32 12 -44 40 -8
20 -21 44 -28 52 -7 8 -17 31 -23 50 -8 32 -6 39 27 83 27 35 57 58 113 86
181 91 250 157 264 248 14 95 -1 191 -51 318 -38 97 -46 128 -42 163 6 51 43
96 94 113 18 6 33 14 33 18 0 7 -85 85 -127 116 -30 23 -125 19 -157 -6z
m-221 -1159 c3 -16 14 -39 24 -52 21 -28 32 -54 24 -62 -5 -5 -73 121 -73 137
0 20 19 3 25 -23z"/>
</g>
</svg>
