<?xml version="1.0" standalone="no"?>
<!DOCTYPE svg PUBLIC "-//W3C//DTD SVG 20010904//EN"
 "http://www.w3.org/TR/2001/REC-SVG-20010904/DTD/svg10.dtd">
<svg version="1.0" xmlns="http://www.w3.org/2000/svg"
 width="253.000000pt" height="248.000000pt" viewBox="0 0 253.000000 248.000000"
 preserveAspectRatio="xMidYMid meet">
<metadata>
Created by potrace 1.13, written by Peter Selinger 2001-2015
</metadata>
<g transform="translate(0.000000,248.000000) scale(0.100000,-0.100000)"
fill="#000000" stroke="none">
<path d="M240 2464 c-38 -15 -90 -58 -90 -75 0 -11 -5 -19 -11 -19 -5 0 -17
-16 -25 -35 -8 -19 -18 -35 -22 -35 -5 0 -25 -15 -45 -34 -27 -25 -37 -42 -37
-65 0 -28 3 -31 31 -31 17 0 36 -6 43 -12 12 -13 56 -102 56 -114 0 -3 14 -35
31 -71 36 -76 37 -72 -16 -294 -20 -87 -18 -147 8 -249 28 -106 95 -223 182
-316 5 -6 17 -22 25 -34 25 -37 67 -80 79 -80 6 0 11 -7 11 -15 0 -8 3 -15 8
-15 4 0 21 -14 39 -30 18 -17 35 -30 38 -30 3 0 18 -11 33 -25 15 -14 32 -25
39 -25 7 0 13 -5 13 -10 0 -6 12 -16 28 -23 15 -6 36 -20 47 -30 19 -17 80
-48 156 -80 31 -12 37 -22 53 -75 l19 -60 -27 -78 c-31 -92 -65 -166 -80 -177
-6 -4 -39 -5 -73 -2 -74 7 -113 -8 -113 -42 0 -20 -5 -23 -42 -23 -49 0 -98
-39 -98 -77 0 -19 5 -22 38 -22 74 0 97 -5 102 -26 11 -38 168 -26 205 15 11
12 31 20 50 20 18 0 48 11 67 23 23 16 40 21 53 16 46 -18 62 2 27 33 -79 73
-82 76 -82 114 0 29 7 43 35 70 19 18 35 42 35 54 0 41 33 121 58 141 25 19
35 20 202 13 144 -5 186 -4 240 10 36 8 103 22 150 30 47 8 99 20 116 26 17 6
64 10 105 8 l73 -3 69 -98 c76 -108 89 -117 216 -154 47 -14 91 -28 96 -33 18
-14 73 -21 92 -12 10 5 32 15 48 23 l30 15 2 115 3 115 -41 54 c-63 85 -114
133 -246 237 -68 52 -123 98 -123 102 0 4 -37 47 -83 97 -46 49 -108 125 -139
169 -63 89 -127 155 -205 208 -28 20 -89 66 -135 103 -94 76 -159 108 -332
165 -66 22 -130 46 -141 53 -27 17 -119 43 -180 51 -62 8 -130 30 -172 56 -52
32 -69 73 -77 184 -7 109 -21 143 -92 223 -59 67 -102 85 -214 89 -52 1 -102
0 -110 -3z"/>
</g>
</svg>
