<?xml version="1.0" standalone="no"?>
<!DOCTYPE svg PUBLIC "-//W3C//DTD SVG 20010904//EN"
 "http://www.w3.org/TR/2001/REC-SVG-20010904/DTD/svg10.dtd">
<svg version="1.0" xmlns="http://www.w3.org/2000/svg"
 width="288.000000pt" height="261.000000pt" viewBox="0 0 288.000000 261.000000"
 preserveAspectRatio="xMidYMid meet">
<metadata>
Created by potrace 1.13, written by Peter Selinger 2001-2015
</metadata>
<g transform="translate(0.000000,261.000000) scale(0.100000,-0.100000)"
fill="#000000" stroke="none">
<path d="M386 2595 c-3 -8 -12 -15 -21 -15 -8 0 -15 -4 -15 -10 0 -5 -5 -10
-11 -10 -21 0 -156 -150 -188 -210 -18 -34 -39 -64 -47 -67 -22 -8 -44 -57
-44 -98 l0 -35 75 0 75 0 47 -46 48 -45 3 -168 c3 -144 0 -180 -18 -256 -19
-79 -20 -97 -10 -179 10 -87 50 -196 72 -196 4 0 8 -9 8 -20 0 -10 6 -23 13
-27 13 -8 27 -32 78 -128 47 -90 100 -176 129 -211 14 -16 37 -48 50 -70 22
-36 68 -92 127 -156 14 -15 39 -33 57 -42 17 -8 59 -44 93 -79 l61 -65 7 -76
7 -75 -96 -92 c-53 -50 -96 -98 -96 -105 0 -8 -18 -34 -40 -58 -22 -24 -40
-46 -40 -50 0 -3 31 -6 70 -6 70 0 70 0 84 33 7 18 33 49 57 67 24 19 61 49
81 67 21 18 52 40 70 48 42 20 72 37 92 54 13 11 20 9 43 -9 21 -16 29 -33 34
-67 l5 -45 -75 -74 -75 -74 66 0 c37 0 70 5 74 11 3 6 26 19 50 30 29 12 52
31 65 54 16 27 28 35 49 35 17 0 49 16 84 43 31 23 79 58 108 77 28 19 69 52
90 73 22 21 56 48 76 61 20 13 56 43 80 66 38 36 118 84 292 171 42 22 60 23
270 27 204 3 228 5 257 23 18 12 33 25 33 30 0 5 16 17 37 26 28 14 44 33 72
88 72 141 82 183 77 340 -3 77 -5 150 -6 163 0 13 -9 43 -20 67 -11 24 -20 49
-20 54 0 6 -4 11 -10 11 -5 0 -10 6 -10 13 0 18 -43 55 -73 62 -18 5 -36 1
-54 -10 -50 -33 -116 -100 -150 -153 -18 -28 -37 -52 -42 -52 -4 0 -25 -25
-46 -55 -44 -65 -139 -141 -202 -162 -61 -21 -107 -13 -210 38 -80 38 -112 58
-250 151 -23 15 -45 28 -51 28 -5 0 -17 9 -28 21 -10 12 -37 30 -59 41 -22 11
-55 31 -72 45 -18 13 -63 35 -100 49 -38 14 -84 38 -103 52 -44 34 -170 100
-410 216 -96 46 -123 64 -182 123 -54 53 -58 61 -58 103 0 25 -7 70 -15 100
-8 30 -15 75 -15 99 0 89 -22 163 -68 234 -25 37 -57 75 -72 84 -15 9 -33 31
-41 49 -7 19 -16 34 -20 34 -5 0 -20 11 -35 25 -30 28 -59 32 -68 10z m105
-555 c5 0 9 -9 9 -20 0 -11 5 -20 10 -20 6 0 10 -7 10 -15 0 -8 9 -15 20 -15
11 0 20 -7 20 -15 0 -8 4 -15 9 -15 5 0 8 -8 6 -17 -14 -71 -14 -70 -40 -65
-20 3 -25 0 -25 -16 0 -11 -8 -22 -18 -24 -25 -7 -52 14 -52 41 0 11 -4 21
-10 21 -5 0 -10 9 -10 20 0 11 5 20 10 20 6 0 10 18 10 40 0 33 -4 40 -19 40
-10 0 -21 9 -24 20 -3 11 -1 20 4 20 5 0 9 -4 9 -10 0 -5 9 -10 20 -10 12 0
20 7 20 16 0 11 5 14 16 10 9 -3 20 -6 25 -6z m-91 -84 c0 -30 -3 -34 -30 -38
-16 -3 -30 -1 -30 4 0 4 4 8 9 8 5 0 11 14 15 30 8 43 36 40 36 -4z m0 -86 c0
-5 -4 -10 -10 -10 -5 0 -10 5 -10 10 0 6 5 10 10 10 6 0 10 -4 10 -10z m945
-950 c3 -5 1 -10 -4 -10 -6 0 -11 5 -11 10 0 6 2 10 4 10 3 0 8 -4 11 -10z
m-20 -578 c-5 -8 -68 13 -72 25 -12 30 21 33 47 5 15 -15 25 -28 25 -30z"/>
<path d="M520 1920 c0 -13 7 -20 20 -20 13 0 20 7 20 20 0 13 -7 20 -20 20
-13 0 -20 -7 -20 -20z"/>
</g>
</svg>
