<?xml version="1.0" standalone="no"?>
<!DOCTYPE svg PUBLIC "-//W3C//DTD SVG 20010904//EN"
 "http://www.w3.org/TR/2001/REC-SVG-20010904/DTD/svg10.dtd">
<svg version="1.0" xmlns="http://www.w3.org/2000/svg"
 width="261.000000pt" height="288.000000pt" viewBox="0 0 261.000000 288.000000"
 preserveAspectRatio="xMidYMid meet">
<metadata>
Created by potrace 1.13, written by Peter Selinger 2001-2015
</metadata>
<g transform="translate(0.000000,288.000000) scale(0.100000,-0.100000)"
fill="#000000" stroke="none">
<path d="M2150 2745 c0 -72 -1 -77 -33 -109 l-33 -33 -70 8 c-38 5 -91 13
-117 19 -64 13 -334 13 -414 -1 -35 -6 -79 -22 -99 -35 -20 -14 -55 -31 -77
-39 -23 -8 -43 -19 -45 -25 -2 -5 -12 -10 -22 -10 -11 0 -23 -6 -27 -13 -4 -7
-44 -39 -88 -72 -44 -33 -84 -65 -88 -72 -4 -7 -23 -20 -43 -29 -19 -9 -47
-30 -62 -46 -27 -30 -115 -92 -163 -117 -27 -13 -127 -95 -189 -155 -104 -99
-121 -110 -142 -97 -16 10 -23 10 -37 -3 -10 -9 -34 -16 -55 -16 -35 0 -45 8
-128 95 -50 52 -97 95 -104 95 -8 0 -34 18 -58 40 -24 22 -46 40 -50 40 -3 0
-6 -31 -6 -70 0 -70 0 -70 33 -84 18 -7 49 -33 67 -57 19 -24 49 -61 67 -81
18 -21 40 -52 48 -70 20 -42 37 -72 54 -92 11 -13 9 -20 -9 -43 -16 -21 -33
-29 -67 -34 l-45 -5 -74 75 -74 75 0 -66 c0 -37 5 -70 11 -74 6 -3 19 -26 30
-50 12 -29 31 -52 54 -65 27 -16 35 -28 35 -49 0 -32 61 -120 135 -194 56 -57
165 -195 165 -210 0 -5 22 -41 48 -80 27 -39 54 -85 61 -103 7 -17 21 -39 32
-49 10 -9 19 -22 19 -28 0 -10 43 -106 61 -136 5 -8 16 -29 24 -47 8 -17 19
-34 24 -37 5 -3 12 -22 15 -41 4 -20 19 -57 33 -83 47 -85 60 -117 67 -154 4
-20 13 -50 21 -65 8 -15 15 -35 15 -43 0 -8 16 -46 35 -84 19 -37 35 -74 35
-80 0 -27 92 -45 223 -45 l127 0 0 29 c0 15 -7 55 -15 87 -8 32 -24 98 -34
148 -11 50 -38 148 -61 220 -38 121 -40 136 -34 210 7 99 35 196 72 255 15 25
34 60 42 79 7 18 30 55 51 81 20 25 56 80 79 121 23 41 48 81 55 89 8 9 26 46
39 82 14 37 46 97 71 133 25 37 45 72 45 78 0 7 21 41 46 77 25 36 81 119 126
185 44 66 104 145 134 175 29 30 62 65 71 78 21 27 134 62 202 62 88 0 163 22
234 68 37 25 75 57 84 72 9 15 31 33 49 41 19 7 34 16 34 20 0 5 11 20 25 35
28 30 32 59 10 68 -8 3 -15 12 -15 21 0 8 -4 15 -10 15 -5 0 -10 5 -10 11 0
21 -150 156 -210 188 -34 18 -64 39 -67 47 -8 22 -57 44 -98 44 l-35 0 0 -75z
m-220 -214 c0 -5 14 -11 30 -14 43 -9 40 -37 -4 -37 -30 0 -34 3 -38 30 -3 17
-1 30 4 30 4 0 8 -4 8 -9z m-50 -41 c0 -5 -4 -10 -10 -10 -5 0 -10 5 -10 10 0
6 5 10 10 10 6 0 10 -4 10 -10z m153 -17 c-19 -7 -16 -43 3 -43 11 0 14 -5 10
-16 -3 -9 -6 -20 -6 -25 0 -5 -9 -9 -20 -9 -11 0 -20 -4 -20 -10 0 -5 -7 -10
-15 -10 -8 0 -15 -9 -15 -20 0 -11 -7 -20 -15 -20 -8 0 -15 -4 -15 -9 0 -5 -8
-8 -17 -6 -71 14 -70 14 -65 40 3 20 0 25 -16 25 -11 0 -22 8 -24 18 -7 25 14
52 41 52 11 0 21 5 21 10 0 6 9 10 20 10 11 0 20 -4 20 -10 0 -5 18 -10 40
-10 33 0 40 3 40 19 0 11 8 21 18 23 20 5 32 -3 15 -9z m-1640 -857 c3 -7 -8
-25 -25 -39 l-29 -26 6 32 c4 17 9 35 12 40 7 12 30 8 36 -7z m537 -70 c0 -3
-4 -8 -10 -11 -5 -3 -10 -1 -10 4 0 6 5 11 10 11 6 0 10 -2 10 -4z"/>
<path d="M1900 2340 c0 -13 7 -20 20 -20 13 0 20 7 20 20 0 13 -7 20 -20 20
-13 0 -20 -7 -20 -20z"/>
</g>
</svg>
