<?xml version="1.0" standalone="no"?>
<!DOCTYPE svg PUBLIC "-//W3C//DTD SVG 20010904//EN"
 "http://www.w3.org/TR/2001/REC-SVG-20010904/DTD/svg10.dtd">
<svg version="1.0" xmlns="http://www.w3.org/2000/svg"
 width="419.000000pt" height="407.000000pt" viewBox="0 0 419.000000 407.000000"
 preserveAspectRatio="xMidYMid meet">
<metadata>
Created by potrace 1.13, written by Peter Selinger 2001-2015
</metadata>
<g transform="translate(0.000000,407.000000) scale(0.100000,-0.100000)"
fill="#000000" stroke="none">
<path d="M3550 4039 c-30 -5 -71 -18 -90 -28 -19 -10 -52 -23 -72 -30 -21 -7
-38 -16 -38 -21 0 -5 -8 -11 -19 -15 -17 -5 -86 -72 -201 -195 -28 -30 -64
-82 -80 -115 -26 -56 -80 -125 -96 -125 -4 0 -15 -9 -25 -21 -16 -19 -26 -21
-96 -16 -43 3 -119 11 -169 18 -80 11 -108 11 -210 -4 -66 -9 -146 -23 -179
-31 -33 -9 -121 -25 -195 -36 -198 -32 -311 -57 -440 -99 -165 -55 -238 -84
-300 -121 -30 -17 -93 -53 -140 -78 -255 -136 -365 -213 -476 -333 -43 -46
-89 -96 -103 -110 -14 -14 -40 -44 -58 -65 -17 -21 -40 -48 -50 -59 -33 -35
-83 -109 -83 -121 0 -6 -7 -18 -16 -25 -9 -7 -20 -22 -25 -34 -5 -11 -20 -38
-33 -60 -67 -108 -173 -346 -208 -465 -6 -19 -13 -39 -17 -45 -6 -9 -13 -32
-55 -174 -9 -29 -16 -61 -16 -70 0 -9 -11 -61 -25 -116 -29 -116 -31 -155 -9
-200 15 -32 18 -34 90 -40 40 -4 99 -4 129 0 52 6 61 11 120 71 35 35 68 64
74 64 6 0 11 4 11 8 0 4 28 16 62 26 51 15 81 17 153 12 49 -3 92 -11 93 -16
2 -6 17 -10 33 -10 16 0 29 -4 29 -10 0 -5 11 -10 25 -10 28 0 99 -33 111 -51
3 -6 22 -17 40 -25 24 -10 34 -21 34 -36 0 -34 23 -88 37 -88 25 0 9 -237 -26
-387 -17 -72 -31 -140 -31 -152 0 -11 -20 -40 -45 -64 -37 -37 -45 -51 -45
-81 0 -29 4 -36 19 -36 11 0 22 4 25 9 8 12 46 2 46 -12 0 -6 6 -18 14 -26 7
-9 23 -47 36 -86 12 -38 35 -84 51 -102 16 -19 29 -40 29 -47 0 -24 53 -68 77
-63 19 3 25 -3 40 -45 39 -111 94 -9 57 107 -12 39 -27 64 -49 80 -17 13 -41
42 -53 63 l-21 38 47 -6 c26 -3 59 -14 73 -23 34 -23 116 -47 160 -47 20 0 53
-7 72 -15 37 -15 122 -20 151 -9 9 3 16 12 16 20 0 19 9 18 48 -6 45 -28 62
-26 62 8 0 74 -71 111 -215 112 -113 2 -162 12 -108 24 18 4 35 12 38 17 4 5
24 9 46 9 33 0 39 3 39 20 0 12 -11 33 -25 48 -23 24 -33 27 -109 30 -65 3
-92 0 -121 -14 -36 -17 -38 -17 -80 4 -76 37 -91 99 -67 272 20 137 42 228 57
234 39 15 205 26 205 13 0 -4 17 -7 38 -6 20 1 64 -6 97 -15 113 -34 200 -56
221 -56 44 0 196 -105 252 -174 18 -22 63 -73 100 -114 37 -41 75 -87 85 -103
19 -29 19 -29 -12 -76 -32 -48 -40 -98 -21 -134 14 -24 50 -25 50 -1 0 23 19
42 42 42 10 0 27 9 37 19 19 19 20 19 37 0 10 -11 30 -19 50 -19 28 0 90 -26
207 -86 16 -7 35 -14 43 -14 8 0 17 -7 20 -15 3 -8 15 -17 26 -21 11 -3 36
-17 55 -30 37 -25 87 -32 98 -13 9 13 42 -15 51 -43 4 -13 13 -18 27 -16 30 4
34 46 8 95 -25 50 -31 54 -121 95 -41 19 -99 49 -129 68 l-54 35 164 3 c129 2
177 -1 227 -14 57 -15 64 -15 86 0 22 14 26 14 49 -4 56 -45 77 -3 35 71 -15
28 -33 43 -65 55 -24 9 -43 20 -43 24 0 4 -39 6 -87 3 -49 -2 -140 0 -203 4
l-115 8 57 19 c37 12 58 25 61 37 4 15 14 19 46 19 37 0 41 2 41 26 0 56 -131
73 -210 28 -115 -67 -148 -83 -192 -89 -49 -7 -75 5 -138 65 -15 14 -55 53
-91 86 -108 103 -178 183 -194 221 -15 35 -14 38 12 75 16 21 39 58 53 81 14
23 36 46 48 52 12 5 22 13 22 18 0 4 18 26 40 48 22 22 40 42 40 44 0 2 10 15
23 27 12 13 41 45 65 71 23 26 46 47 51 47 5 0 11 3 13 8 5 12 85 72 96 72 5
0 55 44 110 98 55 53 139 133 186 177 47 44 96 95 108 113 13 17 30 34 38 37
8 3 24 18 35 35 11 16 25 30 30 30 10 0 75 74 75 85 0 4 12 20 28 35 51 53 62
67 62 78 0 7 6 12 14 12 8 0 18 10 22 22 3 11 24 39 45 60 22 22 39 48 39 59
0 10 5 19 10 19 6 0 14 10 19 23 5 12 19 32 32 45 13 12 44 41 68 64 24 23 48
55 53 70 6 15 14 28 18 28 13 0 62 89 88 160 37 102 43 144 44 320 l0 165 95
93 c52 50 99 92 104 92 5 0 9 3 9 8 0 4 20 18 45 31 44 23 49 24 123 13 105
-16 102 -17 102 23 0 47 -29 101 -78 147 -22 21 -42 50 -46 68 -7 37 -63 124
-103 160 -35 32 -96 70 -113 70 -6 0 -24 8 -38 19 -25 17 -59 24 -162 35 -19
2 -60 0 -90 -5z m288 -356 c-10 -2 -26 -2 -35 0 -10 3 -2 5 17 5 19 0 27 -2
18 -5z m-342 -344 c19 -22 19 -22 -3 -10 -13 6 -23 16 -23 21 0 15 5 12 26
-11z m-1386 -129 c-8 -5 -22 -10 -30 -10 -13 0 -13 1 0 10 8 5 22 10 30 10 13
0 13 -1 0 -10z m110 -90 c-8 -5 -22 -10 -30 -10 -13 0 -13 1 0 10 8 5 22 10
30 10 13 0 13 -1 0 -10z m50 -1120 c0 -5 -15 -10 -32 -9 -28 0 -30 2 -13 9 28
12 45 12 45 0z m180 -94 c-25 -13 -56 -26 -70 -30 -23 -6 -23 -6 -5 5 11 7 22
15 25 18 13 15 47 30 70 30 21 0 18 -4 -20 -23z m-475 -6 c-3 -5 -14 -10 -23
-9 -14 0 -13 2 3 9 27 11 27 11 20 0z m-130 -229 c-11 -10 -36 -22 -55 -26
-32 -6 -31 -4 15 19 62 30 64 31 40 7z m-270 -121 c-3 -5 -14 -10 -23 -9 -14
0 -13 2 3 9 27 11 27 11 20 0z m845 -960 c0 -5 -4 -10 -10 -10 -5 0 -10 5 -10
10 0 6 5 10 10 10 6 0 10 -4 10 -10z m-1318 -172 c-7 -7 -12 -8 -12 -2 0 14
12 26 19 19 2 -3 -1 -11 -7 -17z"/>
</g>
</svg>
