<?xml version="1.0" standalone="no"?>
<!DOCTYPE svg PUBLIC "-//W3C//DTD SVG 20010904//EN"
 "http://www.w3.org/TR/2001/REC-SVG-20010904/DTD/svg10.dtd">
<svg version="1.0" xmlns="http://www.w3.org/2000/svg"
 width="357.000000pt" height="439.000000pt" viewBox="0 0 357.000000 439.000000"
 preserveAspectRatio="xMidYMid meet">
<metadata>
Created by potrace 1.13, written by Peter Selinger 2001-2015
</metadata>
<g transform="translate(0.000000,439.000000) scale(0.100000,-0.100000)"
fill="#000000" stroke="none">
<path d="M2645 4378 c-137 -6 -202 -13 -206 -21 -4 -7 -58 -82 -119 -166
l-112 -155 78 -195 c42 -108 83 -210 90 -227 l13 -30 -427 -92 c-235 -51 -429
-92 -432 -92 -7 0 -3 87 -56 -1030 -25 -542 -49 -986 -53 -988 -3 -1 -171
-109 -374 -240 l-367 -238 -201 101 -200 101 -138 -139 -138 -140 37 -175 c26
-126 40 -176 51 -177 7 -1 79 -8 159 -15 211 -19 194 -3 149 -145 -51 -160
-54 -175 -36 -175 8 0 95 -31 193 -69 l179 -68 178 120 c127 87 176 125 172
136 -4 16 -105 468 -105 474 0 2 175 131 390 288 l390 284 0 65 c0 74 51 1725
53 1726 18 9 937 274 950 274 14 0 415 -103 529 -136 12 -4 51 40 146 162
l130 166 -70 212 c-39 116 -76 216 -82 222 -6 6 -90 19 -186 29 -96 9 -176 17
-176 18 -1 1 -30 70 -64 152 -77 185 -83 195 -118 193 -15 0 -117 -5 -227 -10z"/>
</g>
</svg>
