<?xml version="1.0" standalone="no"?>
<!DOCTYPE svg PUBLIC "-//W3C//DTD SVG 20010904//EN"
 "http://www.w3.org/TR/2001/REC-SVG-20010904/DTD/svg10.dtd">
<svg version="1.0" xmlns="http://www.w3.org/2000/svg"
 width="357.000000pt" height="439.000000pt" viewBox="0 0 357.000000 439.000000"
 preserveAspectRatio="xMidYMid meet">
<metadata>
Created by potrace 1.13, written by Peter Selinger 2001-2015
</metadata>
<g transform="translate(0.000000,439.000000) scale(0.100000,-0.100000)"
fill="#000000" stroke="none">
<path d="M2645 4378 c-137 -6 -202 -13 -206 -21 -4 -7 -58 -82 -119 -166
l-112 -155 87 -218 c48 -121 85 -221 82 -224 -4 -4 -675 91 -792 112 -25 4
-31 2 -32 -13 -1 -10 -198 -640 -437 -1400 -240 -760 -436 -1384 -436 -1386 0
-2 -90 42 -200 98 l-201 101 -138 -139 -138 -140 37 -175 c26 -126 40 -176 51
-177 7 -1 79 -8 159 -15 211 -19 194 -3 149 -145 -51 -160 -54 -175 -36 -175
8 0 95 -31 193 -69 l179 -68 178 120 c98 67 176 126 174 132 -2 5 -28 116 -56
246 l-52 236 360 1303 c198 716 362 1304 363 1305 5 4 818 25 956 25 120 0
130 -2 370 -66 136 -36 255 -67 264 -70 12 -4 51 40 146 162 l130 166 -70 212
c-39 116 -76 216 -82 222 -6 6 -90 19 -186 29 -96 9 -176 17 -176 18 -1 1 -30
70 -64 152 -77 185 -83 195 -118 193 -15 0 -117 -5 -227 -10z"/>
</g>
</svg>
