<?xml version="1.0" standalone="no"?>
<!DOCTYPE svg PUBLIC "-//W3C//DTD SVG 20010904//EN"
 "http://www.w3.org/TR/2001/REC-SVG-20010904/DTD/svg10.dtd">
<svg version="1.0" xmlns="http://www.w3.org/2000/svg"
 width="342.000000pt" height="439.000000pt" viewBox="0 0 342.000000 439.000000"
 preserveAspectRatio="xMidYMid meet">
<metadata>
Created by potrace 1.13, written by Peter Selinger 2001-2015
</metadata>
<g transform="translate(0.000000,439.000000) scale(0.100000,-0.100000)"
fill="#000000" stroke="none">
<path d="M2895 4370 c-4 -7 -62 -137 -129 -290 l-122 -277 -218 118 c-121 66
-220 119 -222 119 -1 0 39 -104 90 -231 l93 -231 -854 -1337 -854 -1336 -200
100 -200 101 -138 -139 -138 -140 36 -176 37 -176 178 -17 c98 -9 180 -18 181
-20 1 -2 -15 -57 -36 -123 -50 -157 -54 -175 -37 -175 7 0 94 -31 193 -69
l180 -68 175 119 c96 66 174 125 173 131 -1 7 -25 118 -54 248 l-52 236 888
1314 c488 723 889 1316 890 1317 2 2 124 -28 270 -68 147 -39 270 -69 272 -66
3 3 -34 59 -82 126 -78 108 -86 124 -77 145 6 13 72 130 146 259 74 130 134
236 133 236 -1 0 -82 9 -180 19 -98 10 -182 22 -187 27 -4 5 -36 77 -70 159
-76 184 -75 181 -85 165z"/>
</g>
</svg>
