<?xml version="1.0" standalone="no"?>
<!DOCTYPE svg PUBLIC "-//W3C//DTD SVG 20010904//EN"
 "http://www.w3.org/TR/2001/REC-SVG-20010904/DTD/svg10.dtd">
<svg version="1.0" xmlns="http://www.w3.org/2000/svg"
 width="352.000000pt" height="288.000000pt" viewBox="0 0 352.000000 288.000000"
 preserveAspectRatio="xMidYMid meet">
<metadata>
Created by potrace 1.13, written by Peter Selinger 2001-2015
</metadata>
<g transform="translate(0.000000,288.000000) scale(0.100000,-0.100000)"
fill="#000000" stroke="none">
<path d="M1433 2220 c-31 -13 -53 -61 -53 -117 0 -50 -28 -193 -59 -303 -11
-36 -22 -78 -26 -95 -3 -16 -24 -70 -44 -120 -72 -171 -86 -262 -92 -594 l-4
-195 34 -23 c31 -21 45 -23 157 -23 158 0 150 -10 164 210 12 191 17 256 31
360 9 66 8 82 -10 134 -26 73 -28 245 -6 441 8 72 15 165 15 208 0 69 -3 81
-25 102 -25 26 -45 30 -82 15z"/>
</g>
</svg>
