<?xml version="1.0" standalone="no"?>
<!DOCTYPE svg PUBLIC "-//W3C//DTD SVG 20010904//EN"
 "http://www.w3.org/TR/2001/REC-SVG-20010904/DTD/svg10.dtd">
<svg version="1.0" xmlns="http://www.w3.org/2000/svg"
 width="352.000000pt" height="288.000000pt" viewBox="0 0 352.000000 288.000000"
 preserveAspectRatio="xMidYMid meet">
<metadata>
Created by potrace 1.13, written by Peter Selinger 2001-2015
</metadata>
<g transform="translate(0.000000,288.000000) scale(0.100000,-0.100000)"
fill="#000000" stroke="none">
<path d="M1403 2248 c-6 -7 -13 -47 -17 -88 -11 -128 -37 -293 -57 -351 -11
-31 -19 -61 -19 -68 0 -6 -22 -50 -49 -99 -27 -48 -54 -105 -60 -127 -11 -44
-25 -170 -41 -370 -6 -71 -17 -168 -25 -215 -22 -124 -21 -137 18 -161 30 -19
43 -20 171 -15 105 4 143 9 154 20 23 23 33 140 38 471 5 251 3 313 -10 377
-25 123 -22 330 8 450 14 53 30 106 36 118 16 29 0 44 -62 59 -60 14 -73 14
-85 -1z"/>
</g>
</svg>
