<?xml version="1.0" standalone="no"?>
<!DOCTYPE svg PUBLIC "-//W3C//DTD SVG 20010904//EN"
 "http://www.w3.org/TR/2001/REC-SVG-20010904/DTD/svg10.dtd">
<svg version="1.0" xmlns="http://www.w3.org/2000/svg"
 width="352.000000pt" height="288.000000pt" viewBox="0 0 352.000000 288.000000"
 preserveAspectRatio="xMidYMid meet">
<metadata>
Created by potrace 1.13, written by Peter Selinger 2001-2015
</metadata>
<g transform="translate(0.000000,288.000000) scale(0.100000,-0.100000)"
fill="#000000" stroke="none">
<path d="M1965 2503 c-22 -3 -45 -9 -52 -15 -10 -8 -13 -70 -13 -252 0 -157
-5 -276 -15 -341 -17 -116 -19 -218 -6 -296 13 -81 39 -316 51 -469 6 -74 17
-160 25 -190 8 -30 15 -69 15 -86 0 -62 4 -62 247 -23 124 20 167 31 176 46 9
15 -22 426 -37 498 -8 39 -18 99 -21 135 -7 68 -58 278 -75 310 -6 10 -10 27
-10 38 0 11 -16 51 -35 88 -41 79 -58 125 -79 209 -8 33 -29 98 -47 145 -18
47 -35 112 -38 145 -7 66 -7 66 -86 58z"/>
</g>
</svg>
