<?xml version="1.0" standalone="no"?>
<!DOCTYPE svg PUBLIC "-//W3C//DTD SVG 20010904//EN"
 "http://www.w3.org/TR/2001/REC-SVG-20010904/DTD/svg10.dtd">
<svg version="1.0" xmlns="http://www.w3.org/2000/svg"
 width="352.000000pt" height="288.000000pt" viewBox="0 0 352.000000 288.000000"
 preserveAspectRatio="xMidYMid meet">
<metadata>
Created by potrace 1.13, written by Peter Selinger 2001-2015
</metadata>
<g transform="translate(0.000000,288.000000) scale(0.100000,-0.100000)"
fill="#000000" stroke="none">
<path d="M1903 2518 c-12 -6 -26 -22 -32 -37 -6 -14 -12 -145 -14 -296 -3
-262 -4 -272 -30 -348 -24 -69 -27 -93 -27 -210 0 -73 7 -183 15 -244 8 -62
19 -183 25 -270 12 -173 20 -209 57 -266 l24 -38 207 4 c138 3 216 9 234 17
26 12 27 15 22 74 -3 34 -12 90 -19 126 -8 36 -19 121 -25 190 -35 382 -89
623 -170 764 -40 71 -70 171 -80 270 -12 119 -61 257 -95 270 -24 9 -67 6 -92
-6z"/>
</g>
</svg>
