<?xml version="1.0" standalone="no"?>
<!DOCTYPE svg PUBLIC "-//W3C//DTD SVG 20010904//EN"
 "http://www.w3.org/TR/2001/REC-SVG-20010904/DTD/svg10.dtd">
<svg version="1.0" xmlns="http://www.w3.org/2000/svg"
 width="352.000000pt" height="288.000000pt" viewBox="0 0 352.000000 288.000000"
 preserveAspectRatio="xMidYMid meet">
<metadata>
Created by potrace 1.13, written by Peter Selinger 2001-2015
</metadata>
<g transform="translate(0.000000,288.000000) scale(0.100000,-0.100000)"
fill="#000000" stroke="none">
<path d="M1955 2477 c-28 -12 -56 -26 -63 -30 -17 -12 -16 -207 4 -356 10 -79
13 -158 10 -228 -22 -426 -21 -448 29 -668 15 -66 31 -169 35 -230 8 -120 13
-141 41 -155 25 -14 166 -12 192 1 48 26 154 98 185 127 l32 30 0 104 c0 63
-8 139 -20 198 -11 52 -20 112 -20 134 0 67 -31 248 -58 341 -20 68 -39 107
-81 164 -70 99 -77 115 -101 246 -37 201 -67 327 -81 336 -22 14 -50 10 -104
-14z"/>
</g>
</svg>
