<?xml version="1.0" standalone="no"?>
<!DOCTYPE svg PUBLIC "-//W3C//DTD SVG 20010904//EN"
 "http://www.w3.org/TR/2001/REC-SVG-20010904/DTD/svg10.dtd">
<svg version="1.0" xmlns="http://www.w3.org/2000/svg"
 width="352.000000pt" height="288.000000pt" viewBox="0 0 352.000000 288.000000"
 preserveAspectRatio="xMidYMid meet">
<metadata>
Created by potrace 1.13, written by Peter Selinger 2001-2015
</metadata>
<g transform="translate(0.000000,288.000000) scale(0.100000,-0.100000)"
fill="#000000" stroke="none">
<path d="M1958 2473 c-106 -5 -105 -3 -90 -171 20 -223 16 -336 -13 -426 -37
-112 -35 -250 4 -411 16 -66 35 -167 41 -225 34 -310 48 -401 65 -426 l17 -27
109 6 c117 7 196 22 218 42 11 11 11 48 -3 242 -9 125 -21 269 -27 318 -5 50
-14 138 -19 197 -7 74 -20 135 -41 195 -17 49 -50 152 -74 231 -24 79 -50 161
-59 183 -11 28 -16 72 -16 153 0 95 -3 115 -16 120 -9 3 -16 5 -17 4 -1 -1
-36 -4 -79 -5z"/>
</g>
</svg>
