<?xml version="1.0" standalone="no"?>
<!DOCTYPE svg PUBLIC "-//W3C//DTD SVG 20010904//EN"
 "http://www.w3.org/TR/2001/REC-SVG-20010904/DTD/svg10.dtd">
<svg version="1.0" xmlns="http://www.w3.org/2000/svg"
 width="352.000000pt" height="288.000000pt" viewBox="0 0 352.000000 288.000000"
 preserveAspectRatio="xMidYMid meet">
<metadata>
Created by potrace 1.13, written by Peter Selinger 2001-2015
</metadata>
<g transform="translate(0.000000,288.000000) scale(0.100000,-0.100000)"
fill="#000000" stroke="none">
<path d="M1979 2481 c-96 -9 -102 -17 -95 -121 3 -47 9 -165 12 -262 5 -150 4
-184 -10 -218 -21 -53 -22 -250 -1 -357 9 -43 20 -136 25 -208 5 -71 16 -157
25 -189 9 -33 19 -96 24 -140 5 -45 18 -102 30 -128 18 -42 24 -48 50 -48 77
0 284 64 303 93 11 17 9 184 -2 232 -6 22 -17 101 -25 175 -58 509 -74 580
-206 924 -14 35 -19 75 -19 140 0 89 -9 118 -34 114 -6 0 -41 -4 -77 -7z"/>
</g>
</svg>
