<?xml version="1.0" standalone="no"?>
<!DOCTYPE svg PUBLIC "-//W3C//DTD SVG 20010904//EN"
 "http://www.w3.org/TR/2001/REC-SVG-20010904/DTD/svg10.dtd">
<svg version="1.0" xmlns="http://www.w3.org/2000/svg"
 width="352.000000pt" height="288.000000pt" viewBox="0 0 352.000000 288.000000"
 preserveAspectRatio="xMidYMid meet">
<metadata>
Created by potrace 1.13, written by Peter Selinger 2001-2015
</metadata>
<g transform="translate(0.000000,288.000000) scale(0.100000,-0.100000)"
fill="#000000" stroke="none">
<path d="M1382 2231 c-7 -4 -18 -39 -23 -77 -6 -38 -17 -103 -24 -144 -8 -41
-19 -109 -25 -150 -6 -43 -25 -106 -45 -150 -39 -87 -65 -185 -65 -251 0 -25
-9 -95 -19 -155 -13 -76 -20 -170 -23 -309 l-3 -200 30 -3 c17 -1 60 -9 97
-17 81 -18 180 -19 196 -3 7 7 12 40 12 78 0 36 11 142 24 235 28 196 43 488
27 537 -46 147 -54 309 -25 490 19 121 16 128 -65 128 -31 0 -62 -4 -69 -9z"/>
</g>
</svg>
