<?xml version="1.0" standalone="no"?>
<!DOCTYPE svg PUBLIC "-//W3C//DTD SVG 20010904//EN"
 "http://www.w3.org/TR/2001/REC-SVG-20010904/DTD/svg10.dtd">
<svg version="1.0" xmlns="http://www.w3.org/2000/svg"
 width="352.000000pt" height="288.000000pt" viewBox="0 0 352.000000 288.000000"
 preserveAspectRatio="xMidYMid meet">
<metadata>
Created by potrace 1.13, written by Peter Selinger 2001-2015
</metadata>
<g transform="translate(0.000000,288.000000) scale(0.100000,-0.100000)"
fill="#000000" stroke="none">
<path d="M1420 2403 c-64 -7 -183 -33 -195 -43 -15 -13 -4 -80 22 -135 17 -37
17 -38 0 -49 -11 -6 -45 -35 -78 -65 -32 -29 -79 -66 -104 -82 -43 -28 -56
-51 -35 -64 6 -4 30 -46 54 -94 25 -48 50 -92 58 -98 14 -11 128 -1 224 19 66
14 110 3 204 -49 14 -7 48 -24 75 -37 28 -13 74 -40 103 -59 53 -36 55 -37
130 -31 42 3 111 13 152 21 41 8 116 19 165 23 50 4 120 16 157 25 l67 18 48
-43 c26 -23 79 -58 116 -77 l68 -34 127 6 c141 7 238 23 254 42 8 9 4 27 -15
65 -13 29 -32 73 -42 98 -9 25 -21 55 -26 67 -7 19 1 31 52 82 61 62 112 151
102 180 -15 39 -67 123 -80 128 -8 3 -47 -1 -86 -10 -40 -9 -117 -23 -172 -31
l-100 -14 -35 29 c-19 16 -73 59 -120 95 l-85 66 -55 -6 c-30 -3 -123 -10
-205 -15 -83 -5 -162 -14 -175 -20 -47 -19 -155 -39 -246 -46 l-91 -6 -32 60
c-48 90 -67 98 -201 84z"/>
</g>
</svg>
