<?xml version="1.0" standalone="no"?>
<!DOCTYPE svg PUBLIC "-//W3C//DTD SVG 20010904//EN"
 "http://www.w3.org/TR/2001/REC-SVG-20010904/DTD/svg10.dtd">
<svg version="1.0" xmlns="http://www.w3.org/2000/svg"
 width="352.000000pt" height="288.000000pt" viewBox="0 0 352.000000 288.000000"
 preserveAspectRatio="xMidYMid meet">
<metadata>
Created by potrace 1.13, written by Peter Selinger 2001-2015
</metadata>
<g transform="translate(0.000000,288.000000) scale(0.100000,-0.100000)"
fill="#000000" stroke="none">
<path d="M1007 1024 c-65 -17 -73 -26 -80 -83 -3 -27 -16 -82 -28 -122 -17
-55 -19 -76 -11 -90 13 -20 -5 -79 -23 -79 -6 0 -30 -27 -54 -60 -24 -33 -48
-60 -53 -60 -19 0 -48 -66 -48 -110 1 -82 30 -184 56 -194 12 -5 104 17 257
61 12 4 32 -8 60 -35 45 -42 143 -102 169 -102 9 0 38 -15 64 -33 27 -18 66
-43 86 -55 l37 -23 70 30 c88 39 183 49 516 53 l250 2 82 -37 c151 -69 243
-82 335 -47 29 11 77 23 106 27 29 3 55 9 57 14 3 4 1 27 -4 51 -27 118 -41
195 -41 216 0 15 22 46 59 86 73 75 96 132 88 221 -2 34 -15 82 -29 110 l-24
50 -58 -2 c-31 -1 -81 -9 -111 -18 -29 -8 -90 -15 -134 -15 -80 0 -84 1 -202
62 -66 34 -124 69 -129 79 -5 9 -24 22 -41 28 -40 14 -284 14 -404 0 -205 -23
-275 -30 -372 -36 l-102 -6 -63 43 c-35 24 -76 54 -91 67 -23 19 -39 23 -85
22 -31 -1 -79 -7 -105 -15z"/>
</g>
</svg>
