<?xml version="1.0" standalone="no"?>
<!DOCTYPE svg PUBLIC "-//W3C//DTD SVG 20010904//EN"
 "http://www.w3.org/TR/2001/REC-SVG-20010904/DTD/svg10.dtd">
<svg version="1.0" xmlns="http://www.w3.org/2000/svg"
 width="352.000000pt" height="288.000000pt" viewBox="0 0 352.000000 288.000000"
 preserveAspectRatio="xMidYMid meet">
<metadata>
Created by potrace 1.13, written by Peter Selinger 2001-2015
</metadata>
<g transform="translate(0.000000,288.000000) scale(0.100000,-0.100000)"
fill="#000000" stroke="none">
<path d="M933 1179 c-12 -16 6 -142 32 -218 18 -53 19 -128 2 -157 -14 -24
-76 -79 -132 -117 -22 -14 -59 -46 -83 -70 l-43 -43 3 -164 c3 -186 6 -193 75
-172 76 22 220 52 285 58 61 6 70 4 96 -17 15 -13 46 -32 67 -43 22 -10 60
-29 85 -43 133 -71 188 -84 288 -65 31 7 111 21 177 33 66 11 153 32 194 46
40 14 103 28 140 30 62 4 70 2 146 -38 212 -112 277 -139 340 -139 55 0 222
35 241 51 15 12 15 27 -2 210 l-5 56 68 79 c38 43 78 92 91 108 34 44 30 112
-19 289 l-10 39 -52 -7 c-29 -4 -70 -13 -92 -20 -22 -7 -74 -18 -115 -25 -41
-6 -84 -13 -96 -16 -16 -4 -42 16 -117 90 -150 148 -124 141 -487 128 -168 -7
-372 -17 -453 -24 -113 -8 -150 -9 -156 0 -4 7 -31 40 -59 75 l-53 63 -132 13
c-73 7 -150 15 -172 18 -28 3 -44 1 -52 -8z"/>
</g>
</svg>
