<?xml version="1.0" standalone="no"?>
<!DOCTYPE svg PUBLIC "-//W3C//DTD SVG 20010904//EN"
 "http://www.w3.org/TR/2001/REC-SVG-20010904/DTD/svg10.dtd">
<svg version="1.0" xmlns="http://www.w3.org/2000/svg"
 width="352.000000pt" height="288.000000pt" viewBox="0 0 352.000000 288.000000"
 preserveAspectRatio="xMidYMid meet">
<metadata>
Created by potrace 1.13, written by Peter Selinger 2001-2015
</metadata>
<g transform="translate(0.000000,288.000000) scale(0.100000,-0.100000)"
fill="#000000" stroke="none">
<path d="M926 1022 c-33 -37 -45 -93 -46 -210 l0 -113 -110 -107 -110 -108 0
-79 c0 -88 18 -164 43 -179 14 -9 122 5 257 35 97 21 140 22 158 5 30 -29 145
-104 214 -140 107 -56 239 -71 348 -40 69 19 100 27 225 54 55 13 125 29 155
36 81 21 133 18 156 -8 36 -40 138 -98 216 -123 66 -21 99 -25 201 -25 103 0
127 3 154 20 45 27 59 57 38 79 -23 27 -55 148 -55 211 0 62 14 89 77 147 32
30 43 49 52 91 15 72 14 114 -4 160 -25 62 -57 72 -243 73 -145 0 -159 2 -188
22 -168 119 -192 127 -379 127 -189 0 -355 -16 -422 -41 -34 -12 -95 -23 -146
-26 l-88 -6 -55 62 c-83 91 -92 95 -274 99 -146 4 -156 3 -174 -16z"/>
</g>
</svg>
