<?xml version="1.0" standalone="no"?>
<!DOCTYPE svg PUBLIC "-//W3C//DTD SVG 20010904//EN"
 "http://www.w3.org/TR/2001/REC-SVG-20010904/DTD/svg10.dtd">
<svg version="1.0" xmlns="http://www.w3.org/2000/svg"
 width="352.000000pt" height="288.000000pt" viewBox="0 0 352.000000 288.000000"
 preserveAspectRatio="xMidYMid meet">
<metadata>
Created by potrace 1.13, written by Peter Selinger 2001-2015
</metadata>
<g transform="translate(0.000000,288.000000) scale(0.100000,-0.100000)"
fill="#000000" stroke="none">
<path d="M1176 2293 c-162 -4 -181 -10 -173 -52 9 -45 48 -145 63 -162 25 -28
15 -47 -42 -86 -31 -21 -71 -50 -88 -64 -17 -15 -49 -35 -71 -45 -39 -19 -40
-20 -43 -77 -5 -89 -5 -88 174 -81 175 8 250 -3 329 -47 107 -59 149 -69 295
-69 91 0 151 5 184 15 61 19 350 21 425 3 32 -7 68 -25 98 -50 80 -67 78 -66
273 -57 187 9 216 13 224 35 3 7 -17 57 -44 110 l-50 97 101 104 c106 110 139
155 139 188 0 29 -82 155 -101 155 -16 0 -36 -6 -207 -60 l-102 -33 -43 18
c-66 28 -179 87 -209 108 -28 21 -67 20 -198 -4 -82 -15 -375 -49 -421 -49
-30 0 -69 15 -145 55 -96 50 -110 55 -162 53 -31 -1 -124 -4 -206 -5z"/>
</g>
</svg>
