<?xml version="1.0" standalone="no"?>
<!DOCTYPE svg PUBLIC "-//W3C//DTD SVG 20010904//EN"
 "http://www.w3.org/TR/2001/REC-SVG-20010904/DTD/svg10.dtd">
<svg version="1.0" xmlns="http://www.w3.org/2000/svg"
 width="352.000000pt" height="288.000000pt" viewBox="0 0 352.000000 288.000000"
 preserveAspectRatio="xMidYMid meet">
<metadata>
Created by potrace 1.13, written by Peter Selinger 2001-2015
</metadata>
<g transform="translate(0.000000,288.000000) scale(0.100000,-0.100000)"
fill="#000000" stroke="none">
<path d="M1070 2305 c-9 -10 -11 -30 -6 -63 3 -26 9 -74 12 -107 l6 -60 -48
-23 c-47 -23 -75 -42 -135 -92 l-30 -25 24 -60 c14 -33 30 -78 36 -100 19 -70
15 -68 147 -44 65 12 137 22 159 22 58 -1 157 -22 175 -37 8 -8 43 -28 77 -45
54 -27 73 -31 140 -31 43 1 123 7 178 15 118 18 239 31 351 39 l81 6 62 -55
c35 -31 102 -75 152 -100 l89 -45 68 21 c37 12 83 30 104 40 20 10 56 21 80
25 54 8 68 19 68 53 0 34 -25 113 -44 144 -15 22 -15 25 1 39 10 9 28 19 41
22 12 4 27 17 33 28 6 12 31 46 55 75 49 60 49 61 30 88 -7 11 -19 46 -25 77
-7 31 -19 62 -27 69 -17 14 -119 6 -181 -16 -23 -8 -82 -20 -131 -26 l-90 -11
-42 33 c-23 19 -65 53 -93 77 -60 50 -80 56 -150 49 -29 -3 -101 -10 -162 -16
-60 -6 -137 -15 -170 -21 -33 -6 -121 -12 -195 -13 l-135 -2 -85 40 -85 39
-161 4 c-136 2 -163 0 -174 -13z"/>
</g>
</svg>
