<?xml version="1.0" standalone="no"?>
<!DOCTYPE svg PUBLIC "-//W3C//DTD SVG 20010904//EN"
 "http://www.w3.org/TR/2001/REC-SVG-20010904/DTD/svg10.dtd">
<svg version="1.0" xmlns="http://www.w3.org/2000/svg"
 width="352.000000pt" height="288.000000pt" viewBox="0 0 352.000000 288.000000"
 preserveAspectRatio="xMidYMid meet">
<metadata>
Created by potrace 1.13, written by Peter Selinger 2001-2015
</metadata>
<g transform="translate(0.000000,288.000000) scale(0.100000,-0.100000)"
fill="#000000" stroke="none">
<path d="M965 1039 c-32 -11 -62 -24 -66 -30 -3 -6 0 -27 7 -47 7 -20 13 -50
14 -67 0 -16 9 -50 20 -74 11 -24 20 -50 20 -58 0 -16 -63 -81 -149 -153 -29
-25 -66 -58 -83 -74 l-29 -29 7 -136 c7 -155 13 -169 65 -153 19 6 72 13 119
17 47 3 109 13 139 22 34 10 58 13 66 7 66 -49 146 -98 215 -134 65 -33 90
-40 114 -36 17 4 54 11 81 15 28 5 97 18 154 30 57 12 116 21 133 21 16 0 57
6 91 14 144 33 213 46 237 46 14 0 45 -14 70 -30 25 -16 50 -30 55 -30 6 0 37
-19 70 -41 32 -23 74 -48 92 -55 38 -16 195 -18 263 -3 25 5 63 12 85 16 64 9
65 12 65 152 l0 126 69 67 c37 37 81 92 97 122 l28 54 -12 108 c-16 142 -18
145 -119 112 -120 -40 -159 -47 -278 -49 l-110 -2 -17 29 c-24 39 -116 133
-152 155 -17 11 -49 19 -70 19 -39 0 -58 -3 -236 -36 -169 -31 -198 -34 -360
-42 l-165 -8 -45 38 c-25 21 -83 61 -130 88 l-85 50 -105 -1 c-76 0 -122 -6
-165 -20z"/>
</g>
</svg>
