<?xml version="1.0" standalone="no"?>
<!DOCTYPE svg PUBLIC "-//W3C//DTD SVG 20010904//EN"
 "http://www.w3.org/TR/2001/REC-SVG-20010904/DTD/svg10.dtd">
<svg version="1.0" xmlns="http://www.w3.org/2000/svg"
 width="352.000000pt" height="288.000000pt" viewBox="0 0 352.000000 288.000000"
 preserveAspectRatio="xMidYMid meet">
<metadata>
Created by potrace 1.13, written by Peter Selinger 2001-2015
</metadata>
<g transform="translate(0.000000,288.000000) scale(0.100000,-0.100000)"
fill="#000000" stroke="none">
<path d="M840 1050 c-14 -4 -44 -8 -68 -9 -26 -1 -45 -6 -48 -15 -3 -7 6 -46
20 -86 15 -41 26 -89 26 -108 0 -19 5 -51 11 -72 11 -37 11 -37 -46 -91 -32
-30 -68 -76 -81 -103 -12 -26 -41 -66 -63 -87 -52 -50 -57 -74 -37 -157 9 -37
16 -79 16 -93 0 -15 6 -31 13 -37 13 -11 149 -1 327 24 146 20 153 19 222 -26
34 -22 69 -40 77 -40 9 0 54 -21 101 -46 50 -27 93 -44 105 -41 11 3 56 14
100 25 56 14 131 22 253 26 95 4 184 11 198 16 14 6 51 10 82 10 47 -1 66 -7
112 -35 67 -42 135 -74 173 -82 29 -6 43 -3 187 41 47 14 104 28 127 32 23 3
44 12 46 18 3 6 -8 38 -24 71 -57 119 -57 111 10 180 65 66 141 203 141 254 0
33 -25 158 -41 210 -10 30 -14 33 -43 26 -70 -14 -137 -25 -255 -41 l-123 -17
-49 51 c-27 29 -73 67 -102 87 -28 19 -64 44 -79 57 l-28 22 -77 -27 c-71 -24
-185 -48 -504 -106 -148 -27 -148 -27 -189 8 -19 15 -60 39 -90 51 -30 13 -60
29 -66 37 -7 8 -34 30 -60 49 -48 34 -50 34 -149 33 -55 -1 -111 -5 -125 -9z"/>
</g>
</svg>
