<?xml version="1.0" standalone="no"?>
<!DOCTYPE svg PUBLIC "-//W3C//DTD SVG 20010904//EN"
 "http://www.w3.org/TR/2001/REC-SVG-20010904/DTD/svg10.dtd">
<svg version="1.0" xmlns="http://www.w3.org/2000/svg"
 width="352.000000pt" height="288.000000pt" viewBox="0 0 352.000000 288.000000"
 preserveAspectRatio="xMidYMid meet">
<metadata>
Created by potrace 1.13, written by Peter Selinger 2001-2015
</metadata>
<g transform="translate(0.000000,288.000000) scale(0.100000,-0.100000)"
fill="#000000" stroke="none">
<path d="M1450 2344 c-52 -7 -123 -13 -156 -13 -39 -1 -66 -6 -73 -15 -7 -9
-9 -39 -5 -89 11 -123 -16 -193 -95 -247 -20 -14 -58 -46 -85 -72 l-48 -46 22
-66 c13 -36 28 -66 34 -67 37 -3 93 5 157 23 124 34 154 34 212 3 60 -32 154
-92 161 -103 6 -10 407 3 486 16 36 6 122 14 191 18 l126 7 59 -32 c32 -17 81
-51 108 -76 49 -44 51 -45 105 -39 31 3 67 9 81 14 14 5 74 11 135 14 60 3
113 10 118 15 14 14 -11 110 -40 153 -38 56 -29 85 42 135 33 23 78 56 100 73
22 16 52 36 67 42 39 17 40 29 5 80 -53 74 -120 163 -130 169 -13 9 -120 -17
-166 -41 -43 -21 -174 -60 -206 -60 -11 0 -41 19 -66 43 -45 41 -113 93 -170
130 -25 16 -35 17 -76 7 -27 -6 -70 -15 -98 -20 -27 -4 -86 -17 -130 -29 -89
-24 -191 -41 -278 -48 -49 -4 -67 0 -124 26 -36 17 -86 49 -109 71 -24 22 -47
39 -51 39 -5 -1 -51 -7 -103 -15z"/>
</g>
</svg>
