<?xml version="1.0" standalone="no"?>
<!DOCTYPE svg PUBLIC "-//W3C//DTD SVG 20010904//EN"
 "http://www.w3.org/TR/2001/REC-SVG-20010904/DTD/svg10.dtd">
<svg version="1.0" xmlns="http://www.w3.org/2000/svg"
 width="352.000000pt" height="288.000000pt" viewBox="0 0 352.000000 288.000000"
 preserveAspectRatio="xMidYMid meet">
<metadata>
Created by potrace 1.13, written by Peter Selinger 2001-2015
</metadata>
<g transform="translate(0.000000,288.000000) scale(0.100000,-0.100000)"
fill="#000000" stroke="none">
<path d="M790 1005 c-9 -11 -10 -47 -3 -152 7 -88 6 -139 0 -142 -22 -8 -108
-108 -114 -131 -3 -14 -19 -41 -34 -61 -46 -59 -52 -80 -44 -161 3 -40 14 -89
24 -108 14 -29 21 -35 46 -33 109 6 325 24 351 29 27 5 35 1 54 -25 25 -37
146 -131 167 -131 8 0 49 -14 92 -31 l78 -31 73 32 c40 18 102 36 139 41 36 5
87 16 114 25 26 9 84 20 130 25 45 5 106 12 135 15 44 6 60 3 92 -15 20 -11
67 -30 102 -41 36 -11 95 -33 131 -50 65 -29 70 -30 225 -30 110 0 162 4 170
12 20 20 15 146 -8 197 -11 24 -20 50 -20 58 0 8 26 45 58 83 103 124 112 139
112 191 0 27 -6 68 -14 91 -8 24 -17 66 -21 95 -4 29 -13 57 -21 64 -16 13
-76 8 -179 -15 -130 -31 -128 -31 -198 2 -37 18 -86 52 -113 80 -73 73 -104
87 -199 86 -55 0 -100 -7 -144 -23 -76 -26 -122 -36 -306 -61 -270 -37 -243
-38 -310 9 -33 23 -83 49 -113 57 -29 9 -72 27 -95 40 -39 22 -52 24 -193 24
-121 0 -154 -3 -164 -15z"/>
</g>
</svg>
