<?xml version="1.0" standalone="no"?>
<!DOCTYPE svg PUBLIC "-//W3C//DTD SVG 20010904//EN"
 "http://www.w3.org/TR/2001/REC-SVG-20010904/DTD/svg10.dtd">
<svg version="1.0" xmlns="http://www.w3.org/2000/svg"
 width="392.000000pt" height="359.000000pt" viewBox="0 0 392.000000 359.000000"
 preserveAspectRatio="xMidYMid meet">
<metadata>
Created by potrace 1.13, written by Peter Selinger 2001-2015
</metadata>
<g transform="translate(0.000000,359.000000) scale(0.100000,-0.100000)"
fill="#000000" stroke="none">
<path d="M537 3551 c-18 -19 -27 -38 -25 -53 2 -19 -2 -24 -27 -26 -31 -3 -64
-36 -65 -63 0 -9 -12 -22 -26 -29 -36 -20 -67 -84 -59 -121 4 -16 10 -29 15
-29 4 0 11 -11 14 -25 4 -16 13 -25 26 -25 28 0 25 -19 -5 -30 l-25 -10 6 -95
c4 -59 3 -104 -3 -118 -6 -12 -15 -44 -22 -70 -7 -28 -22 -58 -38 -73 -21 -20
-27 -36 -33 -92 -3 -39 -16 -85 -29 -111 -17 -32 -26 -72 -32 -145 -12 -137 0
-194 52 -246 37 -37 51 -70 29 -70 -6 0 -14 -8 -17 -17 -8 -21 -94 -109 -111
-114 -8 -3 -22 -29 -33 -59 -10 -30 -24 -66 -31 -80 -13 -24 -17 -31 -48 -67
-11 -12 -15 -43 -16 -103 -1 -47 -6 -112 -13 -146 -9 -49 -9 -69 4 -110 12
-40 13 -58 4 -95 -11 -42 -10 -50 16 -105 16 -32 32 -81 36 -109 5 -31 16 -56
29 -67 11 -9 20 -20 20 -25 0 -5 9 -26 20 -48 11 -22 20 -49 20 -62 0 -35 22
-73 42 -73 10 0 18 -3 18 -8 0 -7 73 -42 88 -42 5 0 14 -10 21 -22 17 -32 115
-68 182 -68 70 0 133 25 181 72 21 21 43 38 49 38 5 0 21 11 35 25 13 13 30
22 37 19 20 -7 125 23 143 41 8 8 22 15 30 15 8 0 14 5 14 10 0 6 6 10 14 10
7 0 19 7 26 15 7 8 20 15 30 15 9 0 25 9 34 19 10 11 28 22 42 25 13 4 24 11
24 16 0 6 7 10 15 10 8 0 15 4 15 9 0 5 17 27 38 49 48 51 62 69 63 79 0 4 14
19 31 32 28 23 30 23 24 4 -19 -59 -36 -185 -36 -264 0 -77 3 -92 21 -110 16
-16 28 -20 55 -14 19 3 44 14 56 23 39 32 113 108 128 131 8 13 20 29 26 35
16 17 54 101 54 119 0 9 9 31 20 49 l20 33 0 -32 c0 -43 -20 -137 -31 -143 -5
-4 -5 -37 0 -75 4 -38 4 -85 0 -105 -5 -21 -4 -57 2 -89 6 -30 13 -69 14 -85
6 -57 25 -131 35 -134 6 -2 10 -12 10 -23 0 -11 9 -27 20 -36 11 -10 20 -28
20 -41 0 -13 7 -30 15 -38 8 -9 15 -25 15 -36 0 -30 39 -157 62 -204 17 -33
34 -47 92 -76 39 -20 95 -41 124 -48 28 -7 54 -16 57 -20 3 -4 25 -11 49 -14
37 -6 51 -3 83 16 61 38 118 53 148 40 37 -17 53 -15 60 7 14 44 43 63 114 74
68 11 69 12 80 49 14 44 54 85 93 93 30 7 69 43 102 94 14 23 37 40 71 53 27
11 51 21 53 23 2 1 7 32 12 67 5 36 23 95 40 132 31 71 38 110 19 122 -7 4 -9
41 -7 103 l3 96 67 -3 c63 -4 128 12 128 30 0 5 6 8 13 8 6 1 23 15 37 31 47
58 67 77 87 83 15 5 22 18 26 46 3 22 12 47 21 55 9 9 16 22 16 30 0 7 3 15 8
17 4 2 21 21 38 43 22 29 34 57 39 95 6 47 41 121 67 140 3 3 9 17 13 31 4 15
17 32 31 39 13 8 24 17 24 21 0 4 15 12 33 18 21 7 42 26 61 56 19 31 37 48
56 51 34 7 65 57 66 109 1 22 7 89 14 150 6 60 9 129 5 152 l-6 42 -97 30
c-205 64 -223 66 -513 65 -227 -2 -283 -5 -380 -24 -148 -28 -347 -91 -494
-158 -159 -72 -377 -196 -397 -226 -5 -8 -11 -7 -20 2 -8 8 -9 12 0 12 6 0 18
16 27 35 14 28 15 40 5 69 -14 44 0 66 74 117 28 19 60 42 70 51 11 10 28 20
38 24 10 3 18 9 18 13 0 4 16 13 35 20 19 7 35 17 35 22 0 5 6 9 13 9 7 0 48
15 92 33 129 54 164 61 238 48 67 -12 90 -8 120 17 23 20 22 43 -4 77 -19 23
-27 26 -56 20 -19 -3 -51 -15 -71 -25 -21 -10 -68 -26 -107 -35 -38 -10 -83
-23 -100 -30 -16 -7 -41 -16 -55 -20 -39 -12 -146 -71 -252 -141 l-98 -64 0
45 c0 83 -61 110 -123 55 l-34 -30 -7 68 c-13 130 -38 252 -81 397 -59 196
-71 219 -114 223 -39 4 -51 -9 -51 -55 0 -26 11 -44 49 -83 51 -52 57 -66 95
-215 26 -102 46 -246 46 -332 0 -75 -2 -83 -19 -83 -24 0 -61 -45 -61 -75 0
-13 -9 -33 -20 -46 l-19 -24 -1 27 c0 28 -28 178 -55 293 -16 66 -60 195 -90
260 -92 204 -129 270 -195 355 -20 25 -42 57 -49 73 -8 15 -18 27 -23 27 -4 0
-8 5 -8 10 0 6 -15 27 -32 47 -60 66 -83 91 -163 181 -44 50 -85 91 -92 91 -6
1 -25 13 -41 29 -67 63 -269 170 -335 177 -36 4 -46 1 -70 -24z m343 -221 c0
-5 -2 -10 -4 -10 -3 0 -8 5 -11 10 -3 6 -1 10 4 10 6 0 11 -4 11 -10z m-470
-35 c0 -8 -4 -15 -10 -15 -5 0 -10 7 -10 15 0 8 5 15 10 15 6 0 10 -7 10 -15z
m220 -165 c0 -5 -7 -10 -16 -10 -8 0 -12 5 -9 10 3 6 10 10 16 10 5 0 9 -4 9
-10z m534 -33 c46 -60 25 -86 -28 -35 -28 27 -32 35 -22 50 15 25 21 23 50
-15z m-76 -57 c17 -21 32 -41 32 -44 0 -17 -44 -2 -94 32 -52 34 -55 38 -34
44 47 13 63 7 96 -32z m-156 -28 c-21 -7 -14 -42 8 -42 11 0 20 7 20 15 0 18
9 19 32 1 17 -12 17 -14 -2 -31 -17 -16 -21 -16 -51 -1 -18 9 -38 16 -44 16
-7 0 -15 7 -19 15 -3 8 -13 15 -21 15 -14 0 -14 3 1 29 l17 29 35 -21 c19 -12
30 -23 24 -25z m-268 -24 c10 -11 19 -35 20 -52 1 -28 -2 -31 -42 -40 -55 -12
-74 7 -36 36 16 13 24 30 24 49 0 35 9 37 34 7z m1 -238 c3 -5 1 -10 -4 -10
-6 0 -11 5 -11 10 0 6 2 10 4 10 3 0 8 -4 11 -10z m-395 -440 c0 -5 -4 -10
-10 -10 -5 0 -10 5 -10 10 0 6 5 10 10 10 6 0 10 -4 10 -10z m2930 -59 c0 -31
-14 -41 -56 -41 -32 0 -44 4 -44 15 0 8 7 15 15 15 8 0 15 5 15 10 0 6 16 10
35 10 19 0 35 -4 35 -9z m320 -31 c0 -5 -2 -10 -4 -10 -3 0 -8 5 -11 10 -3 6
-1 10 4 10 6 0 11 -4 11 -10z m-297 -59 c4 -1 7 -9 7 -20 0 -11 9 -21 22 -24
48 -13 5 -19 -52 -8 -67 13 -113 41 -84 51 13 5 73 5 107 1z m21 -116 c78 -17
101 -31 74 -46 -10 -6 -18 -17 -18 -26 0 -11 -6 -14 -22 -9 -13 3 -28 6 -34 6
-15 0 -54 35 -54 48 0 6 -10 18 -22 26 -28 20 -14 20 76 1z m211 -238 c-8 -12
-15 -38 -15 -59 0 -21 -3 -38 -7 -38 -21 1 -44 31 -50 63 -4 28 -1 37 16 49
12 8 32 13 46 10 23 -4 24 -6 10 -25z m-167 -148 c-2 -6 -8 -10 -13 -10 -5 0
-11 4 -13 10 -2 6 4 11 13 11 9 0 15 -5 13 -11z m-3028 -339 c0 -5 -7 -7 -15
-4 -8 4 -15 8 -15 10 0 2 7 4 15 4 8 0 15 -4 15 -10z m100 -160 c0 -5 -8 -10
-17 -10 -15 0 -16 2 -3 10 19 12 20 12 20 0z m30 -74 c0 -10 -7 -12 -22 -8
-21 5 -21 6 -2 13 10 4 20 8 22 8 1 1 2 -5 2 -13z m-160 -154 c0 -15 -2 -15
-10 -2 -13 20 -13 33 0 25 6 -3 10 -14 10 -23z m2477 -328 c-3 -3 -12 -4 -19
-1 -8 3 -5 6 6 6 11 1 17 -2 13 -5z m-610 -440 c-3 -3 -12 -4 -19 -1 -8 3 -5
6 6 6 11 1 17 -2 13 -5z m246 -61 c-7 -2 -19 -2 -25 0 -7 3 -2 5 12 5 14 0 19
-2 13 -5z"/>
</g>
</svg>
