<?xml version="1.0" standalone="no"?>
<!DOCTYPE svg PUBLIC "-//W3C//DTD SVG 20010904//EN"
 "http://www.w3.org/TR/2001/REC-SVG-20010904/DTD/svg10.dtd">
<svg version="1.0" xmlns="http://www.w3.org/2000/svg"
 width="532.000000pt" height="528.000000pt" viewBox="0 0 532.000000 528.000000"
 preserveAspectRatio="xMidYMid meet">
<metadata>
Created by potrace 1.13, written by Peter Selinger 2001-2015
</metadata>
<g transform="translate(0.000000,528.000000) scale(0.100000,-0.100000)"
fill="#000000" stroke="none">
<path d="M2649 4894 c-5 -6 -6 -13 -3 -16 2 -3 -2 -8 -11 -11 -8 -4 -15 -3
-15 2 0 14 -54 34 -58 22 -2 -6 -8 -8 -13 -5 -6 3 -17 0 -26 -7 -8 -7 -29 -12
-47 -11 -35 3 -96 -19 -116 -42 -7 -9 -9 -16 -5 -16 4 0 2 -7 -5 -15 -9 -10
-9 -15 -1 -15 8 0 8 -6 -1 -20 -10 -16 -10 -24 -1 -40 16 -24 2 -33 -31 -20
-20 7 -26 6 -26 -4 0 -8 -7 -16 -15 -20 -8 -3 -15 -12 -15 -19 0 -8 -12 -27
-26 -43 -14 -16 -32 -39 -41 -51 -8 -13 -21 -23 -29 -23 -7 0 -25 -11 -40 -25
-15 -14 -33 -25 -40 -25 -8 0 -14 -4 -14 -9 0 -6 -8 -10 -17 -10 -54 -1 -113
-31 -113 -57 0 -7 -30 -27 -67 -45 -38 -19 -72 -40 -76 -47 -5 -7 -12 -10 -18
-7 -5 4 -9 2 -9 -3 0 -6 -28 -38 -63 -73 -35 -35 -65 -67 -66 -71 -1 -4 -9
-24 -17 -44 -9 -20 -15 -44 -15 -53 2 -41 4 -57 11 -66 4 -5 -1 -19 -11 -29
-11 -11 -19 -15 -19 -9 0 6 -9 9 -20 6 -11 -3 -20 -8 -20 -12 0 -4 -20 -7 -45
-6 -25 0 -45 -3 -45 -6 0 -8 -45 -3 -61 6 -6 4 -14 3 -18 -3 -9 -14 -143 -84
-149 -77 -3 2 -11 0 -18 -5 -6 -6 -16 -10 -20 -8 -13 3 -54 -12 -54 -21 0 -4
-9 -17 -20 -29 -12 -12 -17 -22 -13 -22 4 0 -12 -18 -35 -40 -22 -22 -43 -40
-46 -40 -17 0 -86 -84 -92 -112 -1 -5 -3 -11 -4 -15 -1 -5 -2 -12 -1 -16 1 -5
-8 -11 -19 -14 -11 -3 -20 -9 -20 -14 0 -5 -6 -9 -14 -9 -17 0 -42 -39 -41
-65 0 -11 -3 -22 -7 -25 -4 -3 -10 -21 -13 -40 -3 -19 -10 -36 -16 -38 -5 -2
-9 -10 -9 -17 0 -7 -5 -15 -12 -17 -6 -2 -13 -24 -14 -49 -5 -69 -23 -134 -45
-158 -11 -11 -17 -21 -15 -21 3 0 1 -11 -4 -25 -8 -20 -6 -27 6 -32 8 -3 13
-12 10 -19 -3 -7 -1 -16 5 -20 6 -3 8 -12 5 -20 -3 -8 1 -17 9 -20 8 -4 13
-10 10 -14 -3 -5 3 -13 12 -19 10 -6 13 -11 8 -11 -15 0 -11 -44 6 -72 16 -24
26 -47 27 -61 1 -9 16 -23 73 -67 34 -26 95 -51 104 -42 3 3 5 0 5 -7 0 -7 5
-9 12 -5 15 9 108 12 113 3 3 -3 19 -5 36 -3 24 3 36 -1 46 -16 8 -11 18 -18
22 -16 4 3 23 -4 41 -15 18 -12 47 -22 64 -23 65 -6 137 -19 141 -26 3 -4 21
-6 40 -3 20 3 35 0 35 -6 0 -5 10 -8 22 -6 12 3 27 0 35 -6 9 -9 13 -8 13 0 0
7 4 10 9 6 5 -3 12 -2 15 3 2 4 22 7 43 6 21 0 43 3 50 8 7 5 17 7 22 4 5 -4
12 -2 15 3 7 10 76 12 76 2 0 -4 -15 -15 -32 -26 -18 -10 -46 -32 -63 -49 -16
-17 -33 -31 -36 -31 -3 0 -19 -16 -35 -35 -53 -64 -69 -83 -79 -94 -15 -17
-16 -59 -2 -76 6 -8 23 -20 37 -26 26 -11 172 -10 199 2 9 4 25 8 36 10 33 6
48 10 78 22 16 7 30 12 33 12 3 0 17 11 32 25 15 14 32 23 39 21 7 -3 15 -1
18 4 4 6 13 10 21 10 9 0 4 -11 -16 -30 -17 -16 -33 -30 -35 -30 -2 0 -16 -11
-31 -25 -15 -14 -33 -24 -38 -22 -12 5 -37 -17 -36 -30 0 -5 -10 -21 -22 -38
-13 -16 -23 -33 -23 -37 0 -4 -19 -21 -43 -39 -23 -17 -40 -34 -37 -39 3 -4
-2 -13 -10 -20 -8 -7 -13 -15 -10 -19 2 -4 -9 -22 -26 -40 -16 -18 -27 -37
-24 -42 4 -5 1 -9 -5 -9 -6 0 -8 -5 -5 -11 4 -6 -2 -17 -14 -25 -12 -9 -19
-19 -16 -24 3 -5 1 -12 -5 -15 -8 -5 -8 -11 0 -20 8 -9 8 -14 -1 -17 -7 -2
-13 -21 -14 -42 -1 -21 -10 -47 -18 -57 -10 -11 -12 -21 -6 -24 10 -7 -19 -65
-33 -65 -4 0 -5 -7 -2 -15 4 -8 1 -15 -5 -15 -6 0 -8 -7 -5 -15 4 -8 1 -15 -6
-15 -6 0 -8 -5 -5 -10 3 -5 2 -10 -2 -10 -12 0 -36 -68 -28 -80 3 -5 1 -10 -5
-10 -6 0 -8 -4 -5 -10 3 -5 2 -10 -3 -10 -11 0 -8 -25 7 -65 6 -16 12 -34 13
-40 1 -5 8 -16 15 -23 7 -7 13 -22 13 -32 0 -10 4 -20 8 -22 10 -4 75 -98 68
-98 -6 0 16 -29 42 -56 7 -8 21 -14 30 -15 54 -3 73 -7 87 -19 8 -7 15 -9 15
-5 0 4 7 2 15 -5 8 -7 15 -9 15 -5 0 5 9 -2 20 -15 11 -13 20 -29 20 -35 0
-19 31 -27 48 -13 8 7 17 12 19 11 1 -2 6 -2 11 -2 28 5 40 3 64 -8 15 -8 31
-14 35 -15 5 -1 19 -12 32 -24 l24 -23 35 24 c20 13 39 22 44 19 4 -3 8 -1 8
4 0 9 31 5 114 -17 27 -6 47 -6 65 1 14 6 29 11 34 10 4 -1 7 2 7 6 0 12 46 7
103 -12 26 -8 47 -11 47 -6 0 6 6 10 13 10 14 0 47 35 47 51 0 5 4 8 9 5 5 -3
14 1 21 9 7 8 21 15 31 15 11 0 19 5 19 11 0 5 4 8 9 5 5 -3 12 1 15 9 3 8 9
14 13 13 4 0 20 4 34 10 26 10 38 29 46 65 1 10 14 28 28 41 14 13 25 26 25
30 0 11 27 36 39 36 6 0 15 9 21 20 10 19 32 29 27 11 -4 -15 87 -91 113 -93
39 -2 44 -3 58 -11 6 -5 12 -5 12 0 0 4 12 8 28 9 15 1 43 4 62 6 19 3 44 2
55 -2 22 -9 55 9 55 29 0 7 4 10 9 6 5 -3 13 0 16 6 4 5 12 8 19 6 6 -3 20 1
30 9 11 7 22 11 27 9 4 -3 20 0 36 6 15 7 39 13 53 15 13 2 32 13 42 26 10 13
18 19 18 13 0 -5 7 1 16 13 8 12 34 27 60 33 24 6 44 16 44 21 0 6 7 5 15 -2
8 -7 15 -8 15 -2 0 23 112 36 145 15 16 -9 30 -8 72 7 44 15 55 16 77 5 27
-14 34 -14 83 4 19 8 33 21 37 37 4 13 13 24 22 24 8 0 17 7 20 15 4 8 11 15
18 15 6 1 25 19 41 40 17 21 36 39 43 40 6 0 12 3 12 8 0 4 14 22 30 41 17 18
30 40 30 47 0 8 5 14 11 14 8 0 8 5 -1 15 -7 8 -9 15 -6 15 4 0 -2 10 -13 22
-11 11 -18 24 -16 28 3 5 -2 11 -11 14 -8 3 -12 10 -9 16 3 5 1 10 -4 10 -6 0
-11 7 -11 15 0 8 -4 15 -10 15 -5 0 -10 7 -10 15 0 8 -4 15 -9 15 -5 0 -26 24
-47 53 -36 49 -131 148 -185 192 -14 11 -50 42 -82 68 -31 27 -57 46 -57 42 0
-7 -77 54 -124 98 -16 15 -33 27 -38 27 -4 0 -25 11 -46 24 -66 42 -195 105
-203 101 -4 -3 -10 -1 -14 5 -4 6 -11 8 -16 5 -5 -4 -9 -2 -9 4 0 6 -19 15
-42 22 -24 6 -49 16 -55 21 -7 6 -13 7 -13 4 0 -4 -10 -1 -22 6 -13 7 -26 13
-30 14 -5 1 -9 2 -10 4 -3 2 -20 6 -53 14 -11 2 -21 5 -22 6 -3 3 -3 3 -53 14
-19 5 -39 11 -45 15 -5 3 -19 6 -30 6 -11 0 -25 4 -30 7 -10 6 -85 20 -112 21
-7 0 -13 3 -13 6 0 3 -17 7 -38 8 -57 4 -125 13 -134 19 -4 3 -8 0 -8 -6 0 -6
-4 -8 -10 -5 -17 10 -11 25 10 25 11 0 20 5 20 11 0 5 4 8 10 4 13 -8 48 29
56 60 4 18 13 25 33 27 79 4 242 -8 289 -21 18 -6 40 -7 48 -4 8 3 14 -1 14
-8 0 -7 3 -9 7 -6 3 4 12 2 20 -4 7 -6 13 -9 13 -6 0 3 16 -1 35 -9 19 -8 35
-11 35 -8 0 4 6 1 13 -5 8 -6 17 -8 20 -4 4 3 7 1 7 -5 0 -7 3 -11 8 -10 17 3
112 -41 112 -53 0 -5 17 -27 38 -50 32 -34 46 -42 78 -43 32 -1 40 3 50 24 18
36 7 79 -22 86 -13 3 -24 10 -24 14 0 4 -8 7 -17 7 -30 -2 -83 14 -83 24 0 6
-4 8 -9 4 -5 -3 -12 -1 -16 5 -3 5 -15 10 -26 10 -10 0 -19 5 -19 12 0 6 -3 8
-7 5 -3 -4 -15 0 -25 10 -10 9 -33 18 -50 20 -18 2 -36 9 -40 16 -4 6 -8 8 -8
3 0 -5 -7 -3 -15 4 -8 7 -15 10 -15 7 0 -3 -15 -1 -32 4 -33 10 -45 12 -123
24 -46 8 -79 12 -154 20 -30 3 -56 7 -58 9 -2 1 8 14 21 28 35 34 39 71 14
104 -19 23 -27 26 -65 21 -46 -5 -52 2 -28 30 8 10 16 23 17 28 1 6 10 19 21
30 10 11 25 35 32 53 8 18 21 35 29 38 9 3 13 11 10 16 -4 6 -3 13 2 17 15 10
108 209 119 254 4 15 12 27 18 27 6 0 7 3 4 7 -4 3 -2 11 3 18 5 6 12 22 14
36 3 13 5 26 6 29 2 3 2 8 1 13 0 4 3 7 8 7 22 0 -4 52 -35 68 -17 9 -25 6
-47 -14 -31 -29 -32 -34 -25 -140 2 -35 -21 -114 -34 -114 -4 0 -7 -3 -6 -7 1
-5 -9 -30 -22 -58 -12 -27 -22 -53 -22 -57 1 -5 -2 -8 -7 -8 -5 0 -14 -12 -20
-27 -13 -32 -22 -46 -73 -123 -60 -90 -114 -146 -130 -133 -14 12 -46 11 -66
-1 -6 -4 -12 -4 -12 0 0 3 -8 -3 -17 -14 -19 -22 -63 -39 -63 -25 0 5 9 19 19
30 11 12 17 23 14 26 -3 3 4 16 16 28 11 12 18 26 15 31 -3 4 0 8 5 8 6 0 11
7 11 15 0 8 8 23 18 33 10 10 16 24 14 30 -2 7 0 12 6 12 5 0 15 18 22 40 7
22 16 40 20 40 4 0 10 8 13 18 9 32 58 167 68 187 5 11 10 29 12 40 1 11 6 26
10 33 5 6 6 12 3 12 -3 0 2 19 10 42 13 39 22 76 29 123 2 11 8 32 13 46 8 19
7 30 -1 38 -7 7 -8 11 0 11 6 0 10 29 10 77 0 50 4 78 12 81 9 3 9 7 0 18 -9
11 -9 14 1 14 10 0 10 3 1 14 -7 8 -8 16 -4 19 5 3 7 38 6 79 -1 40 -4 125 -6
189 -2 63 -7 120 -11 127 -4 7 -2 12 5 12 8 0 7 6 -3 18 -9 9 -15 29 -13 44 2
16 -1 30 -6 34 -5 3 -7 10 -4 15 4 5 2 9 -3 9 -5 0 -13 20 -16 45 -4 25 -10
45 -14 45 -4 0 -8 9 -9 20 -1 11 -13 44 -27 73 -13 29 -26 59 -28 66 -2 8 -15
28 -31 45 -23 26 -35 31 -73 31 -25 0 -50 -5 -55 -11z m-217 -106 c-9 -9 -12
-7 -12 12 0 19 3 21 12 12 9 -9 9 -15 0 -24z m68 -253 c0 -9 -6 -12 -16 -8
-13 5 -13 7 -2 14 17 11 18 11 18 -6z m330 -9 c0 -3 -4 -8 -10 -11 -5 -3 -10
-1 -10 4 0 6 5 11 10 11 6 0 10 -2 10 -4z m-395 -138 c-11 -58 -42 -88 -60
-58 -4 6 -10 8 -14 5 -12 -7 -38 27 -38 48 0 10 4 14 9 9 13 -13 54 -3 74 19
22 25 35 15 29 -23z m209 -100 c-3 -4 0 -8 7 -8 7 0 9 -3 6 -7 -4 -3 -2 -12 4
-20 9 -10 7 -13 -9 -13 -11 0 -22 -5 -24 -11 -2 -5 -11 -7 -21 -4 -11 5 -16
15 -13 31 3 13 0 24 -5 24 -5 0 -4 6 3 14 7 7 19 11 25 9 7 -3 13 1 13 8 0 11
2 11 9 -1 6 -8 7 -18 5 -22z m151 -124 c0 -78 -31 -72 -53 11 -6 22 -14 50
-17 62 l-7 23 38 -22 c38 -20 39 -22 39 -74z m-518 44 c-3 -8 -6 -5 -6 6 -1
11 2 17 5 13 3 -3 4 -12 1 -19z m404 -7 c0 -4 2 -14 4 -23 5 -27 -39 -23 -58
5 -14 22 -14 23 19 23 19 0 34 -2 35 -5z m206 -48 c-2 -29 -9 -48 -20 -55 -12
-6 -17 -5 -18 4 0 7 -3 33 -5 57 -4 37 -3 43 10 38 9 -4 16 -2 16 4 0 6 5 7
10 4 6 -4 9 -27 7 -52z m-1192 -12 c3 -5 1 -12 -5 -16 -5 -3 -10 1 -10 9 0 18
6 21 15 7z m-645 -756 c0 -8 -2 -15 -4 -15 -2 0 -6 7 -10 15 -3 8 -1 15 4 15
6 0 10 -7 10 -15z m-20 -191 c0 -2 -7 -4 -15 -4 -8 0 -15 4 -15 10 0 5 7 7 15
4 8 -4 15 -8 15 -10z m-20 -75 c0 -14 -16 -11 -29 5 -10 12 -8 13 8 9 12 -3
21 -9 21 -14z m-224 -15 c-4 -9 -9 -15 -11 -12 -3 3 -3 13 1 22 4 9 9 15 11
12 3 -3 3 -13 -1 -22z m3100 -875 c24 -20 18 -48 -11 -44 -29 3 -65 32 -65 51
0 16 54 11 76 -7z m-69 -75 c3 -8 13 -14 23 -14 20 0 34 -37 17 -43 -9 -3 -9
-11 0 -30 16 -34 11 -34 -24 1 -31 30 -67 82 -57 82 4 0 1 6 -5 13 -6 8 -8 17
-5 20 9 9 44 -11 51 -29z m-47 -99 c7 -13 22 -27 32 -31 11 -3 17 -8 14 -11
-3 -3 3 -18 13 -32 36 -52 36 -54 7 -49 -18 4 -29 1 -33 -8 -4 -11 -11 -8 -29
11 -13 14 -24 30 -24 36 0 5 -6 9 -12 9 -9 0 -9 3 -2 8 5 4 10 26 10 49 -1 49
5 54 24 18z m358 -90 c-3 -3 -9 2 -12 12 -6 14 -5 15 5 6 7 -7 10 -15 7 -18z
m-304 -247 c18 -16 18 -18 3 -18 -9 0 -17 -5 -17 -11 0 -5 -4 -8 -9 -4 -10 6
-51 -32 -51 -48 0 -5 -6 -4 -14 2 -20 17 -11 72 14 93 23 18 44 15 74 -14z
m-230 -17 c3 -5 0 -11 -8 -14 -8 -3 -17 1 -20 9 -6 15 19 20 28 5z m-1879
-389 c-3 -3 -11 0 -18 7 -9 10 -8 11 6 5 10 -3 15 -9 12 -12z m749 -48 c3 -8
2 -12 -4 -9 -6 3 -10 10 -10 16 0 14 7 11 14 -7z m-594 -156 c0 -6 -6 -5 -15
2 -8 7 -15 14 -15 16 0 2 7 1 15 -2 8 -4 15 -11 15 -16z"/>
</g>
</svg>
