<?xml version="1.0" standalone="no"?>
<!DOCTYPE svg PUBLIC "-//W3C//DTD SVG 20010904//EN"
 "http://www.w3.org/TR/2001/REC-SVG-20010904/DTD/svg10.dtd">
<svg version="1.0" xmlns="http://www.w3.org/2000/svg"
 width="281.000000pt" height="182.000000pt" viewBox="0 0 281.000000 182.000000"
 preserveAspectRatio="xMidYMid meet">
<metadata>
Created by potrace 1.13, written by Peter Selinger 2001-2015
</metadata>
<g transform="translate(0.000000,182.000000) scale(0.100000,-0.100000)"
fill="#000000" stroke="none">
<path d="M2489 1806 c-116 -25 -203 -59 -331 -132 -88 -50 -187 -115 -209
-136 -8 -7 -39 -33 -69 -58 -98 -79 -279 -254 -318 -306 -21 -28 -21 -28 -22
-6 0 26 24 74 55 109 37 41 45 52 45 63 0 5 4 10 9 10 5 0 13 9 16 21 13 40
112 138 148 146 20 4 27 11 27 29 0 28 -16 30 -63 11 -34 -15 -127 -112 -127
-134 0 -7 -4 -13 -9 -13 -5 0 -13 -10 -17 -22 -3 -12 -16 -32 -28 -44 -31 -34
-46 -53 -46 -58 0 -12 -53 -61 -63 -58 -24 7 -77 -9 -77 -23 0 -23 -28 -18
-187 34 -210 70 -333 78 -333 22 0 -19 5 -20 78 -15 73 5 85 3 231 -45 85 -28
160 -51 167 -51 11 0 27 -40 19 -48 -2 -2 -64 8 -137 22 -402 77 -700 72 -955
-17 -88 -31 -173 -73 -204 -100 -56 -49 -75 -146 -43 -213 34 -71 96 -114 264
-184 30 -12 64 -27 75 -33 11 -6 49 -25 84 -44 65 -34 130 -78 143 -97 4 -6
41 -11 82 -11 l74 0 6 -45 c13 -97 108 -242 201 -307 91 -63 104 -67 231 -71
132 -4 194 7 284 53 88 45 118 100 127 235 4 52 9 87 11 78 2 -10 7 -18 11
-18 4 0 16 -18 26 -40 12 -26 25 -40 37 -40 10 0 18 5 18 10 0 6 9 10 19 10
18 0 19 6 15 82 l-5 83 20 -40 c24 -50 72 -94 147 -137 51 -28 68 -32 129 -32
164 0 288 64 373 193 72 109 93 185 89 326 -2 65 -8 91 -33 141 l-29 62 32 11
c44 16 109 95 129 156 21 62 79 180 109 220 13 16 35 55 50 85 15 30 31 63 36
72 5 10 9 59 9 110 0 102 -15 141 -66 174 -34 23 -166 28 -255 10z m-45 -115
c5 -8 -75 -24 -82 -16 -2 2 11 8 29 14 45 12 47 12 53 2z m46 -70 c0 -11 -4
-23 -10 -26 -5 -3 -10 3 -10 14 0 15 -8 21 -32 24 -29 3 -27 4 10 5 35 2 42
-1 42 -17z m-98 -32 c16 -10 -130 -21 -148 -11 -11 6 4 14 58 29 65 17 73 18
77 4 2 -9 8 -19 13 -22z m181 -36 c-13 -2 -35 -2 -50 0 -16 2 -5 4 22 4 28 0
40 -2 28 -4z m-130 -10 c-15 -3 -23 -12 -23 -24 0 -13 -7 -19 -25 -20 -14 -1
-31 -2 -37 -3 -7 -1 -14 7 -16 16 -2 12 8 19 40 26 24 6 52 10 63 10 16 -1 16
-1 -2 -5z m212 -93 c-16 -4 -58 -8 -92 -9 -49 -1 -63 -4 -63 -16 0 -23 -34
-18 -58 10 l-22 25 133 -1 c82 -1 121 -4 102 -9z m-437 -182 l47 -23 -90 -8
c-126 -10 -137 -7 -73 25 29 15 56 28 61 28 4 0 29 -10 55 -22z m2 -81 c82 -3
125 -9 148 -21 54 -28 40 -39 -45 -35 -75 4 -78 3 -81 -18 -3 -21 0 -23 52
-23 30 0 57 -4 60 -8 2 -4 -67 -8 -155 -7 -142 0 -159 2 -159 17 0 22 -46 31
-107 22 -26 -3 -46 -4 -43 -1 3 3 20 23 38 45 l34 39 71 -3 c40 -2 124 -5 187
-7z m-1755 -126 c-33 -10 -73 -24 -90 -30 -28 -11 -29 -11 -13 5 18 18 97 43
138 43 14 0 -2 -8 -35 -18z m1525 9 c-20 -13 -53 -13 -45 0 3 6 18 10 33 10
21 0 24 -2 12 -10z m-1420 -29 c0 -5 -26 -19 -57 -32 -32 -13 -96 -45 -142
-71 -46 -27 -85 -47 -86 -46 -2 2 1 13 5 25 9 21 156 102 189 104 12 0 66 17
89 28 1 0 2 -3 2 -8z m1695 -15 l40 -13 -60 5 c-33 3 -69 8 -80 13 -35 14 56
9 100 -5z m-6 -67 c41 -11 87 -19 103 -19 23 0 28 -4 28 -24 0 -14 -4 -27 -9
-30 -7 -5 -82 12 -157 35 -17 5 -47 9 -67 9 -30 0 -37 -4 -37 -20 0 -15 7 -20
28 -20 54 -1 206 -47 239 -73 20 -15 5 -27 -27 -20 -23 4 -30 2 -30 -10 0 -11
-25 -3 -100 35 -55 27 -116 52 -136 55 -44 7 -55 23 -15 23 24 0 31 4 31 20 0
27 -59 29 -61 3 -1 -17 -2 -17 -6 0 -2 9 -11 17 -19 17 -9 0 -25 5 -37 12 -21
11 -21 12 13 24 44 16 156 9 259 -17z m-1729 -17 c0 -13 -21 -29 -67 -53 -75
-37 -85 -39 -90 -22 -4 12 122 93 145 93 6 0 12 -8 12 -18z m1410 -17 c14 -7
36 -23 49 -34 19 -17 21 -21 8 -21 -10 0 -17 -8 -17 -20 0 -11 -4 -20 -10 -20
-5 0 -10 5 -10 10 0 6 -9 10 -20 10 -11 0 -20 5 -20 10 0 6 -9 10 -20 10 -11
0 -20 5 -20 10 0 6 -10 10 -22 10 -39 0 -68 12 -68 26 0 8 -6 14 -12 15 -7 1
-2 4 12 8 34 10 119 1 150 -14z m-912 -76 c-50 -45 -98 -74 -98 -60 0 6 -7 11
-15 11 -23 0 -18 12 16 45 39 36 49 40 98 40 l39 0 -40 -36z m752 27 c0 -17
22 -26 61 -26 36 0 38 -16 2 -23 -20 -4 -38 4 -71 29 -43 32 -43 34 -18 34 15
0 26 -6 26 -14z m-904 -15 c-11 -12 -25 -17 -38 -13 -20 5 -20 5 3 18 37 21
56 18 35 -5z m-536 -21 c0 -5 -9 -10 -19 -10 -11 0 -22 -6 -24 -12 -4 -10 -6
-10 -6 0 -1 10 22 25 47 31 1 1 2 -3 2 -9z m1426 -45 c7 -5 25 -19 40 -30 53
-38 128 -135 103 -135 -5 0 -13 8 -16 17 -7 18 -39 53 -49 53 -3 0 -11 6 -17
13 -7 7 -37 40 -67 72 -47 51 -45 54 6 10z m-1283 17 c-3 -14 -11 -18 -29 -14
-20 4 -24 0 -24 -22 0 -14 -4 -26 -10 -26 -5 0 -10 7 -10 15 0 8 -8 15 -17 15
-11 1 -3 10 22 25 49 30 75 33 68 7z m1491 -22 c16 0 26 -5 26 -15 0 -8 9 -15
20 -15 13 0 20 7 20 20 0 13 -7 20 -20 20 -11 0 -20 7 -20 15 0 8 7 15 16 15
16 0 44 -23 44 -36 0 -4 8 -16 17 -26 15 -17 15 -20 3 -28 -8 -6 -24 -10 -34
-10 -24 0 -133 28 -163 42 -25 12 -20 38 8 38 10 0 19 5 19 12 0 6 8 1 19 -10
10 -12 30 -22 45 -22z m313 -54 c48 -28 88 -56 90 -63 7 -20 -44 -27 -62 -10
-8 9 -24 19 -35 22 -11 3 -20 13 -20 22 0 12 -7 14 -30 10 -23 -5 -30 -3 -30
9 0 12 -7 15 -26 11 -18 -3 -27 0 -31 12 -4 9 -15 28 -25 43 -10 14 -18 29
-18 31 0 11 102 -37 187 -87z m-941 70 c18 -19 18 -26 -1 -26 -8 0 -15 -7 -15
-15 0 -8 -4 -15 -9 -15 -5 0 -13 -9 -16 -20 -3 -11 -13 -20 -21 -20 -8 0 -14
-8 -15 -17 0 -11 -3 -13 -6 -5 -2 6 -11 12 -19 12 -8 0 -14 3 -14 7 0 6 91
109 98 112 2 1 10 -5 18 -13z m-1073 -26 c3 -11 1 -23 -4 -26 -5 -3 -9 6 -9
20 0 31 6 34 13 6z m1163 -45 c-4 -25 -12 -45 -18 -45 -6 0 -7 8 -3 18 4 9 9
32 12 50 9 50 16 29 9 -23z m-1049 5 c10 0 4 -11 -18 -30 -39 -34 -42 -35 -68
-18 -19 12 -19 13 5 34 38 36 58 45 62 28 2 -8 10 -14 19 -14z m1993 10 c8 -5
11 -10 5 -10 -5 0 -17 5 -25 10 -8 5 -10 10 -5 10 6 0 17 -5 25 -10z m-1417
-27 c-7 -2 -13 -11 -13 -19 0 -8 -3 -14 -7 -14 -5 0 -28 -20 -53 -45 -25 -24
-51 -44 -58 -45 -7 0 -24 -12 -39 -26 -14 -14 -27 -23 -29 -21 -12 11 177 176
201 175 6 0 4 -2 -2 -5z m514 -60 c-3 -10 -5 -2 -5 17 0 19 2 27 5 18 2 -10 2
-26 0 -35z m506 31 c55 -19 61 -31 14 -30 -23 1 -40 8 -51 24 -20 26 -22 26
37 6z m-767 -31 c-11 -11 -17 4 -9 23 7 18 8 18 11 1 2 -10 1 -21 -2 -24z
m141 -6 c-13 -39 -27 -49 -27 -19 0 15 31 65 37 59 1 -1 -4 -19 -10 -40z m865
-15 c100 -57 141 -105 76 -88 -20 5 -35 15 -95 66 -19 16 -43 12 -43 -7 0 -12
-13 -4 -45 27 -44 43 -45 45 -23 51 26 6 50 -2 130 -49z m-1082 44 c0 -2 -12
-12 -27 -21 l-28 -18 19 21 c17 20 36 29 36 18z m-150 -30 c0 -2 -8 -10 -17
-17 -16 -13 -17 -12 -4 4 13 16 21 21 21 13z m260 -8 c0 -6 -7 -19 -15 -28 -8
-9 -18 -31 -21 -48 -6 -28 -4 -32 15 -32 11 0 21 6 21 13 0 14 50 67 63 67 17
0 5 -49 -18 -76 -30 -35 -33 -64 -5 -64 10 0 24 8 30 18 8 13 10 -2 7 -63 -3
-47 -9 -81 -16 -83 -6 -2 -11 -12 -11 -23 0 -10 -6 -19 -14 -19 -9 0 -16 -13
-19 -32 -2 -18 -2 18 1 81 l5 113 -34 -4 c-19 -3 -41 -7 -49 -9 -22 -6 -24 43
-4 107 9 31 23 54 30 54 8 0 14 9 14 20 0 11 5 20 10 20 6 0 10 -5 10 -12z
m-120 -48 c0 -24 -42 -68 -61 -63 -12 4 -31 -8 -58 -36 -22 -23 -43 -41 -48
-41 -12 1 140 147 155 149 6 0 12 -4 12 -9z m290 -4 c0 -2 -3 -11 -6 -20 -9
-23 -24 -20 -24 4 0 11 7 20 15 20 8 0 15 -2 15 -4z m713 -51 c23 -32 17 -32
-13 0 -13 14 -19 25 -14 25 5 0 17 -12 27 -25z m76 16 c7 -5 12 -14 9 -21 -2
-7 -10 -4 -22 9 -19 21 -12 28 13 12z m-1308 -81 c-66 -63 -81 -73 -59 -41 14
19 109 101 117 101 3 0 -23 -27 -58 -60z m228 -37 c-1 -32 -3 -50 -6 -40 -6
24 -43 22 -43 -3 0 -11 -4 -20 -8 -20 -4 0 -21 -22 -37 -50 -28 -47 -45 -62
-45 -41 0 20 124 211 137 211 2 0 2 -26 2 -57z m-212 -63 c-21 -39 -45 -49
-39 -17 3 20 44 67 53 61 4 -2 -2 -22 -14 -44z m303 -51 c-5 -46 -10 -93 -10
-104 -1 -16 -2 -17 -9 -5 -5 9 -6 34 -1 60 13 65 12 70 -9 70 -16 0 -22 -11
-31 -57 -20 -100 -21 -103 -41 -103 -24 0 -24 3 0 65 38 99 59 137 82 149 13
7 25 12 26 11 2 -1 -2 -39 -7 -86z m-100 42 c0 -6 -4 -13 -10 -16 -5 -3 -10 1
-10 9 0 9 5 16 10 16 6 0 10 -4 10 -9z m-42 -92 c-23 -59 -34 -76 -44 -67 -3
4 9 34 27 67 17 34 34 60 36 58 2 -2 -7 -28 -19 -58z"/>
<path d="M2050 1133 c0 -17 9 -21 46 -27 26 -3 64 -6 85 -6 32 0 39 3 39 20 0
16 -7 20 -32 20 -18 0 -57 3 -85 6 -48 6 -53 5 -53 -13z"/>
<path d="M1190 510 c0 -13 7 -20 20 -20 13 0 20 7 20 20 0 13 -7 20 -20 20
-13 0 -20 -7 -20 -20z"/>
</g>
</svg>
