<?xml version="1.0" standalone="no"?>
<!DOCTYPE svg PUBLIC "-//W3C//DTD SVG 20010904//EN"
 "http://www.w3.org/TR/2001/REC-SVG-20010904/DTD/svg10.dtd">
<svg version="1.0" xmlns="http://www.w3.org/2000/svg"
 width="334.000000pt" height="331.000000pt" viewBox="0 0 334.000000 331.000000"
 preserveAspectRatio="xMidYMid meet">
<metadata>
Created by potrace 1.13, written by Peter Selinger 2001-2015
</metadata>
<g transform="translate(0.000000,331.000000) scale(0.100000,-0.100000)"
fill="#000000" stroke="none">
<path d="M1025 3291 c-11 -4 -39 -6 -61 -3 -40 4 -42 3 -49 -27 -9 -41 -22
-47 -49 -22 -42 39 -86 24 -86 -29 0 -33 -39 -60 -85 -60 -43 0 -75 -22 -75
-51 0 -9 13 -30 29 -48 26 -29 28 -35 17 -62 -10 -27 -8 -32 14 -49 21 -16 23
-21 13 -43 -7 -14 -22 -27 -35 -29 -20 -3 -23 -9 -25 -46 -3 -62 -25 -92 -68
-92 -34 0 -35 -1 -35 -40 0 -50 -23 -77 -75 -91 -74 -20 -80 -38 -36 -108 20
-32 31 -65 36 -106 3 -33 8 -76 11 -96 5 -32 2 -37 -30 -54 -20 -11 -36 -23
-36 -27 0 -5 -8 -8 -17 -8 -9 0 -31 -5 -49 -12 -26 -9 -35 -20 -45 -55 -8 -30
-25 -55 -52 -78 -22 -19 -44 -35 -49 -35 -12 0 -10 -68 3 -91 12 -23 -7 -60
-48 -92 -17 -14 -23 -29 -23 -60 0 -45 -29 -96 -84 -150 -27 -27 -28 -32 -22
-89 5 -48 11 -64 31 -80 20 -15 25 -29 25 -62 0 -38 5 -46 41 -76 39 -31 41
-35 35 -71 -3 -21 -14 -54 -22 -73 -24 -48 -12 -83 34 -104 48 -22 61 -39 62
-79 0 -22 7 -37 20 -45 13 -9 20 -24 20 -45 0 -20 8 -41 21 -54 21 -21 23 -21
88 -5 36 9 91 31 121 50 47 29 67 34 140 39 114 8 154 21 206 69 53 49 56 36
9 -43 -19 -33 -35 -64 -35 -70 0 -5 -4 -9 -10 -9 -5 0 -10 -11 -10 -24 0 -13
-5 -26 -11 -28 -18 -6 0 -72 28 -103 23 -24 31 -27 71 -21 24 3 72 21 106 39
l62 33 -13 -27 c-16 -32 -20 -130 -9 -225 8 -63 6 -78 -18 -148 -43 -124 -31
-163 55 -180 14 -3 38 -17 53 -31 17 -16 39 -25 60 -25 35 0 70 -26 81 -60 8
-25 70 -28 96 -4 12 10 41 17 83 19 58 2 66 1 66 -15 0 -16 9 -18 66 -18 58 0
71 -3 109 -31 54 -38 66 -39 88 -2 10 17 41 55 69 86 50 55 52 56 93 49 37 -5
46 -2 77 25 30 26 44 31 87 31 42 0 56 5 74 24 12 13 37 40 56 60 19 20 49 44
67 52 36 17 44 37 44 107 0 49 30 101 45 78 8 -14 108 -14 156 0 31 10 51 9
109 -5 82 -20 100 -13 100 38 0 42 31 90 68 105 17 7 34 23 38 34 4 12 12 27
19 34 7 7 15 18 17 23 2 6 23 14 46 17 34 5 43 10 48 29 8 32 30 43 76 37 21
-3 44 -1 51 5 10 9 25 5 60 -13 76 -41 84 -37 98 50 9 57 16 76 30 80 22 7 23
17 7 63 -12 32 -11 35 15 58 l27 23 -9 84 c-15 128 -36 163 -145 235 -146 97
-190 115 -386 161 -131 31 -326 56 -520 67 -103 6 -346 -7 -440 -22 -35 -6
-35 -6 -12 11 17 12 22 25 20 47 -2 19 2 33 12 38 34 19 87 38 120 45 19 4
114 32 210 62 96 30 195 61 220 68 25 7 86 29 135 48 89 34 90 34 93 70 3 33
1 37 -20 37 -13 0 -43 -11 -68 -25 -98 -55 -158 -83 -220 -103 -128 -42 -296
-94 -350 -108 -96 -25 -89 -26 -83 14 6 35 6 35 -24 29 -28 -5 -30 -4 -25 19
3 19 0 24 -15 24 -10 0 -24 -5 -31 -12 -12 -12 -11 -1 8 127 5 33 12 92 15
130 4 39 13 96 21 127 8 32 19 79 24 106 5 26 23 79 41 117 17 37 32 82 33 99
1 26 -3 31 -24 34 -20 2 -29 -4 -42 -30 -35 -69 -86 -309 -118 -563 -27 -213
-31 -225 -81 -225 -17 0 -33 -8 -42 -20 -15 -22 -20 27 -33 320 -7 149 -26
252 -83 445 -59 201 -160 436 -214 496 -12 13 -35 44 -51 69 -16 25 -57 71
-90 102 -62 59 -90 69 -141 49z m239 -327 c3 -9 6 -25 6 -37 0 -19 -3 -17 -20
11 -24 39 -24 42 -6 42 8 0 17 -7 20 -16z m110 -204 c5 -23 4 -23 -6 3 -7 15
-15 27 -20 27 -4 0 -8 5 -8 12 0 20 27 -14 34 -42z m-29 -62 c14 -35 12 -50
-8 -42 -19 7 -37 42 -31 59 10 24 24 18 39 -17z m-57 -66 c23 -34 -11 -42 -44
-9 -23 23 -23 26 -7 30 26 7 35 3 51 -21z m-78 -48 c0 -23 -55 0 -58 25 l-4
23 31 -18 c17 -10 31 -24 31 -30z m-266 -31 c5 -11 2 -13 -10 -9 -8 3 -18 6
-20 6 -2 0 -4 7 -4 15 0 18 26 9 34 -12z m-99 -131 c-3 -3 -11 0 -18 7 -9 10
-8 11 6 5 10 -3 15 -9 12 -12z m1975 -932 c0 -5 -3 -10 -7 -10 -5 0 -19 -3
-33 -6 -24 -6 -25 -6 -5 9 23 19 45 22 45 7z m-90 -81 c0 -17 -3 -18 -21 -9
-16 9 -18 14 -9 26 15 17 30 9 30 -17z m-33 -61 c6 -7 15 -28 21 -45 l11 -33
-30 16 c-33 16 -44 36 -35 59 7 18 20 19 33 3z m-15 -111 c7 -7 26 -23 43 -36
l30 -23 -34 4 c-28 2 -37 9 -48 36 -14 35 -12 39 9 19z m-2252 -16 c0 -5 8
-12 18 -14 9 -3 4 -5 -13 -5 -16 -1 -41 5 -55 13 l-25 14 38 1 c20 0 37 -4 37
-9z m2224 -197 c5 -14 4 -15 -9 -4 -17 14 -19 20 -6 20 5 0 12 -7 15 -16z
m-129 -104 c3 -5 1 -10 -4 -10 -6 0 -11 5 -11 10 0 6 2 10 4 10 3 0 8 -4 11
-10z m7 -279 c15 -18 15 -20 1 -25 -16 -6 -53 19 -53 36 0 15 36 8 52 -11z
m-1262 -189 c0 -5 18 -14 40 -21 21 -6 45 -20 53 -31 16 -24 11 -81 -8 -74 -7
3 -10 15 -7 30 3 19 0 24 -17 24 -11 0 -21 -6 -21 -12 0 -9 -2 -10 -8 -2 -4 6
-17 14 -29 18 -13 4 -23 13 -23 19 0 7 -3 22 -6 35 -5 16 -2 22 10 22 9 0 16
-4 16 -8z m369 -79 c-33 -42 -39 -46 -39 -23 0 12 9 24 23 30 31 12 31 12 16
-7z m-118 -22 c-7 -5 -21 -6 -31 -4 -10 3 -30 -3 -44 -12 -14 -10 -26 -13 -26
-7 0 6 8 16 18 21 21 13 103 15 83 2z m88 -73 c1 -5 -3 -8 -9 -8 -5 0 -10 12
-9 28 0 24 1 25 9 7 5 -11 9 -23 9 -27z m-275 -43 c-4 -8 -8 -15 -10 -15 -2 0
-4 7 -4 15 0 8 4 15 10 15 5 0 7 -7 4 -15z"/>
</g>
</svg>
