<?xml version="1.0" standalone="no"?>
<!DOCTYPE svg PUBLIC "-//W3C//DTD SVG 20010904//EN"
 "http://www.w3.org/TR/2001/REC-SVG-20010904/DTD/svg10.dtd">
<svg version="1.0" xmlns="http://www.w3.org/2000/svg"
 width="496.000000pt" height="502.000000pt" viewBox="0 0 496.000000 502.000000"
 preserveAspectRatio="xMidYMid meet">
<metadata>
Created by potrace 1.13, written by Peter Selinger 2001-2015
</metadata>
<g transform="translate(0.000000,502.000000) scale(0.100000,-0.100000)"
fill="#000000" stroke="none">
<path d="M3397 5000 c-48 -15 -139 -82 -224 -165 -46 -45 -83 -86 -83 -91 0
-5 -12 -20 -27 -34 -14 -14 -32 -40 -40 -57 -7 -18 -18 -33 -23 -33 -6 0 -10
-7 -10 -15 0 -8 -4 -15 -10 -15 -5 0 -10 -6 -10 -14 0 -8 -13 -39 -30 -69 -16
-30 -30 -62 -30 -71 0 -9 -4 -16 -10 -16 -5 0 -10 -7 -10 -15 0 -8 -4 -15 -10
-15 -5 0 -10 -13 -10 -29 0 -30 -29 -91 -42 -91 -5 0 -8 -5 -8 -10 0 -6 -13
-39 -29 -73 -15 -34 -36 -87 -46 -117 -10 -30 -21 -59 -26 -65 -5 -5 -9 -22
-9 -38 0 -15 -4 -36 -9 -45 -13 -26 -71 -313 -71 -354 0 -20 -5 -38 -10 -40
-16 -5 -27 -498 -12 -498 16 0 15 -27 0 -32 -13 -5 -19 -203 -9 -298 3 -30 5
-70 3 -87 -3 -29 -7 -33 -32 -33 -22 0 -30 6 -38 29 -11 31 -40 41 -118 41
-41 0 -44 2 -44 26 0 26 -58 134 -72 134 -5 0 -8 6 -8 13 0 8 -11 34 -25 58
-13 24 -31 60 -40 79 -9 19 -19 37 -23 40 -4 3 -13 21 -20 40 -8 19 -22 58
-33 85 -11 28 -26 91 -35 140 -9 54 -21 93 -30 98 -8 4 -14 15 -14 22 0 22
-38 18 -45 -4 -6 -19 24 -141 43 -177 6 -10 18 -44 27 -75 9 -31 23 -65 30
-75 8 -11 15 -27 15 -36 0 -10 6 -18 13 -18 8 0 19 -22 27 -55 7 -30 16 -55
20 -55 4 0 13 -20 20 -45 7 -25 17 -45 22 -45 5 0 15 -15 23 -33 7 -18 23 -41
34 -51 24 -22 28 -46 6 -46 -8 0 -15 -9 -15 -20 0 -13 -7 -20 -19 -20 -11 0
-21 -4 -23 -10 -2 -5 -23 0 -48 13 -135 68 -379 131 -618 158 -109 13 -122 10
-122 -31 0 -40 16 -45 142 -47 146 -3 218 -11 218 -25 0 -6 11 -8 25 -6 14 3
25 1 25 -3 0 -5 15 -9 33 -9 18 0 42 -7 53 -15 10 -8 31 -15 47 -15 15 0 27
-4 27 -10 0 -5 11 -10 24 -10 14 0 27 -4 31 -9 3 -5 30 -15 60 -21 30 -6 55
-15 55 -20 0 -5 15 -13 33 -18 22 -6 33 -15 35 -30 3 -17 11 -22 35 -23 22 -1
25 -3 11 -6 -16 -3 -24 -14 -28 -39 -8 -41 -4 -49 33 -69 32 -16 44 -47 27
-70 -9 -12 -18 -13 -49 -4 -22 6 -46 7 -55 4 -10 -4 -95 -9 -190 -11 -183 -4
-246 -10 -487 -45 -82 -12 -169 -22 -192 -21 -24 1 -43 -3 -43 -8 0 -6 -20
-10 -44 -10 -27 0 -46 -5 -49 -13 -3 -8 -27 -20 -54 -27 -26 -7 -87 -25 -134
-41 -48 -16 -94 -29 -103 -29 -9 0 -16 -4 -16 -10 0 -5 -7 -10 -15 -10 -8 0
-38 -10 -67 -23 -29 -13 -67 -26 -85 -30 -18 -4 -49 -17 -70 -30 -21 -13 -50
-27 -66 -31 -15 -3 -27 -11 -27 -16 0 -6 -6 -10 -14 -10 -8 0 -21 -6 -29 -14
-7 -8 -33 -23 -58 -34 -24 -11 -51 -29 -60 -39 -20 -23 -57 -53 -65 -53 -21 0
-254 -217 -254 -237 0 -5 -8 -18 -17 -29 -33 -37 -63 -83 -63 -97 0 -7 -4 -17
-9 -22 -14 -15 -25 -105 -14 -105 6 0 8 -11 5 -25 -3 -18 0 -25 12 -25 10 0
16 -9 16 -25 0 -14 5 -25 10 -25 6 0 10 -5 10 -11 0 -14 48 -57 73 -65 9 -3
17 -10 17 -15 0 -5 8 -9 18 -9 10 0 57 -16 105 -36 58 -23 101 -35 125 -33 21
2 43 0 49 -4 6 -4 22 -7 34 -7 41 1 160 -10 239 -21 41 -6 95 -13 120 -16 25
-3 54 -12 65 -19 11 -8 36 -14 57 -14 49 0 188 -31 188 -42 0 -4 7 -8 14 -8 8
0 28 -13 43 -28 15 -16 48 -35 73 -42 70 -19 120 -43 120 -57 0 -7 9 -13 20
-13 11 0 20 -4 20 -9 0 -5 13 -12 30 -16 16 -4 30 -10 30 -13 0 -8 74 -42 89
-42 5 0 11 -6 14 -12 9 -29 297 -7 297 22 0 6 6 10 13 10 6 0 23 9 37 20 14
11 28 20 32 20 4 0 10 -20 14 -45 5 -34 11 -45 24 -45 10 0 20 8 22 18 2 9 7
-7 12 -37 4 -29 5 -56 1 -59 -3 -3 -5 4 -5 16 0 15 -6 22 -20 22 -13 0 -20 -7
-20 -20 0 -11 5 -20 10 -20 6 0 10 -9 10 -20 0 -14 7 -20 23 -21 16 -1 18 -2
5 -6 -19 -5 -25 -43 -8 -43 6 0 10 -5 10 -11 0 -17 51 -59 80 -65 52 -12 111
-33 125 -46 8 -7 20 -18 28 -24 8 -7 42 -12 77 -13 35 0 67 -6 70 -12 4 -6 16
-9 26 -7 10 2 31 -9 46 -24 31 -30 68 -37 68 -13 0 8 6 15 13 15 8 0 28 7 45
15 28 14 34 14 71 -2 23 -10 41 -21 41 -25 0 -5 7 -8 15 -8 8 0 15 -7 15 -15
0 -26 50 -18 79 14 29 31 84 51 143 51 34 0 42 -6 82 -57 25 -31 53 -72 63
-92 23 -46 103 -164 117 -173 19 -13 54 -9 60 8 13 33 4 61 -40 129 -132 203
-137 283 -19 301 47 7 75 22 75 42 0 16 75 35 96 24 10 -5 39 -13 63 -17 28
-5 53 -17 69 -34 31 -33 82 -109 82 -122 0 -5 4 -9 9 -9 5 0 11 -8 15 -17 6
-20 26 -53 78 -135 38 -58 62 -73 109 -66 40 5 37 50 -7 122 -21 33 -43 66
-49 72 -5 6 -21 27 -35 47 -14 20 -28 37 -32 37 -5 0 -8 5 -8 10 0 6 -18 37
-41 68 -30 44 -43 74 -51 122 -10 61 -9 70 17 140 60 164 67 221 40 324 -15
58 -82 198 -97 204 -5 2 -8 10 -8 17 0 7 -3 15 -7 17 -5 2 -35 36 -68 77 -88
109 -106 130 -144 167 l-34 33 34 3 c26 2 35 8 37 26 4 29 10 28 57 -13 22
-20 50 -38 62 -41 13 -4 23 -12 23 -19 0 -6 18 -20 40 -30 22 -10 40 -22 40
-27 0 -5 11 -14 25 -20 14 -6 25 -17 25 -25 0 -7 11 -13 24 -13 14 0 31 -6 38
-14 8 -7 25 -17 38 -21 14 -4 27 -11 30 -14 11 -15 119 -43 182 -48 54 -5 83
-1 140 17 40 13 75 26 78 30 3 3 34 20 70 37 69 34 190 56 190 34 0 -6 5 -11
11 -11 14 0 73 -26 119 -52 19 -10 51 -26 70 -34 19 -8 66 -31 104 -50 59 -31
73 -34 105 -27 51 12 55 52 11 93 -18 17 -40 30 -50 30 -16 0 -52 13 -115 39
-11 5 -47 19 -80 32 -33 12 -77 33 -97 46 -21 13 -41 23 -45 23 -5 0 -18 15
-30 33 -32 47 -31 109 2 135 14 11 25 27 25 36 0 9 5 16 10 16 6 0 10 23 10
51 0 58 11 73 67 88 34 9 48 8 92 -10 28 -12 51 -26 51 -30 0 -5 7 -9 15 -9 8
0 37 -11 64 -24 103 -50 141 -46 141 14 0 37 -2 39 -47 56 -27 10 -52 21 -58
24 -5 4 -28 13 -50 20 -22 7 -51 19 -65 26 -14 7 -46 22 -72 34 -27 11 -48 25
-48 31 0 5 -10 14 -22 19 -13 5 -17 9 -9 9 9 1 12 10 7 34 -3 20 0 41 9 57 8
14 17 32 21 40 4 8 13 20 20 25 7 6 16 26 19 45 6 31 3 38 -19 50 -14 7 -26
21 -26 31 0 10 -4 21 -10 24 -17 10 -11 60 9 81 42 46 54 100 25 111 -9 3 -32
22 -51 41 l-35 34 7 69 c7 66 6 69 -15 69 -13 0 -24 8 -27 20 -3 11 -10 20
-15 20 -18 0 -36 65 -31 112 5 44 4 47 -20 53 -14 4 -31 4 -36 0 -6 -3 -11 1
-11 9 0 22 -58 36 -177 43 l-102 6 6 31 c3 17 13 45 23 61 31 55 43 137 37
248 -7 120 -18 148 -97 228 -28 29 -62 71 -76 95 -14 24 -30 44 -34 44 -5 0
-11 14 -15 30 -4 17 -11 30 -16 30 -5 0 -11 11 -15 25 -3 14 -10 25 -15 25 -5
0 -9 9 -9 19 0 11 -6 26 -12 33 -23 24 -37 62 -47 125 -5 34 -16 74 -25 90
-19 39 -46 145 -51 204 -3 27 -11 63 -18 82 -8 18 -17 59 -21 92 -11 92 -35
227 -48 260 -40 107 -103 215 -125 215 -7 0 -13 3 -13 8 0 10 -94 52 -116 51
-11 0 -31 -4 -47 -9z m341 -2282 c-6 -18 -16 -61 -21 -95 -10 -58 -26 -79 -41
-54 -9 14 -99 10 -113 -5 -22 -22 -15 -44 15 -45 25 -2 25 -2 3 -6 -18 -4 -22
-10 -18 -29 2 -13 1 -24 -2 -24 -9 0 -29 49 -37 87 -3 17 -15 42 -27 54 -15
16 -18 26 -10 37 7 12 168 81 260 111 1 1 -3 -14 -9 -31z m-1265 -250 c-22
-40 -38 -58 -51 -58 -6 0 -13 -6 -15 -12 -3 -8 -6 -6 -6 5 -1 9 4 17 9 17 6 0
10 7 10 15 0 15 48 65 63 65 4 0 0 -15 -10 -32z m2107 -272 c0 -2 -7 -17 -15
-32 -8 -16 -15 -42 -15 -57 0 -16 -4 -26 -10 -22 -16 10 -12 54 7 86 15 25 33
39 33 25z m-1370 -87 c0 -6 -4 -7 -10 -4 -5 3 -10 11 -10 16 0 6 5 7 10 4 6
-3 10 -11 10 -16z m-303 -427 c7 -7 13 -20 13 -28 0 -18 29 -65 50 -81 8 -6
12 -14 8 -18 -11 -11 -48 5 -48 21 0 8 -4 14 -9 14 -5 0 -13 10 -17 23 -4 12
-15 29 -24 37 -25 22 -29 43 -11 57 12 9 17 9 20 0 2 -6 10 -18 18 -25z m189
-22 c7 0 11 -6 8 -14 -8 -21 -34 -7 -33 18 0 11 3 15 6 9 2 -7 11 -13 19 -13z
m-659 -277 c12 -3 25 -14 28 -24 4 -10 13 -19 21 -19 26 0 14 -18 -17 -25 -29
-6 -31 -10 -25 -38 4 -17 12 -35 19 -39 7 -4 -6 -8 -30 -8 -35 0 -43 -4 -43
-18 0 -12 -12 -21 -40 -29 -44 -11 -45 -8 -21 52 15 36 41 131 41 150 0 13 5
16 23 10 12 -3 32 -9 44 -12z m1038 -822 c-6 -6 -25 -6 -45 -1 l-35 8 45 1
c27 1 40 -3 35 -8z m-850 -101 c3 -5 1 -10 -4 -10 -6 0 -11 5 -11 10 0 6 2 10
4 10 3 0 8 -4 11 -10z m-177 -67 c-10 -2 -26 -2 -35 0 -10 3 -2 5 17 5 19 0
27 -2 18 -5z"/>
</g>
</svg>
