<?xml version="1.0" standalone="no"?>
<!DOCTYPE svg PUBLIC "-//W3C//DTD SVG 20010904//EN"
 "http://www.w3.org/TR/2001/REC-SVG-20010904/DTD/svg10.dtd">
<svg version="1.0" xmlns="http://www.w3.org/2000/svg"
 width="390.000000pt" height="369.000000pt" viewBox="0 0 390.000000 369.000000"
 preserveAspectRatio="xMidYMid meet">
<metadata>
Created by potrace 1.13, written by Peter Selinger 2001-2015
</metadata>
<g transform="translate(0.000000,369.000000) scale(0.100000,-0.100000)"
fill="#000000" stroke="none">
<path d="M2902 3355 c-34 -18 -79 -50 -100 -72 -87 -88 -210 -192 -245 -207
-38 -15 -39 -17 -32 -55 5 -29 1 -52 -14 -86 -11 -25 -28 -79 -38 -120 -18
-75 -38 -97 -47 -52 -3 12 -12 91 -20 176 -9 89 -21 163 -29 175 -8 11 -17 37
-21 56 -3 21 -23 55 -49 83 -52 58 -136 92 -201 82 -101 -17 -212 -151 -249
-300 -10 -38 -33 -128 -53 -200 -19 -71 -38 -140 -41 -152 -7 -29 -41 -59 -53
-47 -5 5 -21 68 -35 139 -48 242 -107 380 -183 426 -143 88 -200 86 -281 -8
-40 -47 -113 -185 -144 -273 -23 -66 -55 -215 -62 -290 -3 -36 -20 -110 -38
-164 -36 -113 -60 -143 -181 -223 -44 -30 -73 -57 -81 -77 -8 -17 -23 -37 -36
-44 -20 -13 -21 -19 -16 -93 5 -83 21 -125 85 -233 34 -56 34 -60 17 -72 -10
-8 -25 -14 -32 -14 -27 0 -35 -41 -28 -142 6 -84 4 -109 -13 -166 -11 -37 -26
-113 -32 -170 -6 -56 -20 -128 -30 -160 -25 -74 -25 -91 4 -156 l24 -55 -22
-73 c-17 -54 -22 -89 -18 -136 4 -59 7 -65 48 -101 126 -111 323 -67 402 90 4
9 -67 127 -115 189 -23 30 -56 64 -73 75 -42 27 -60 64 -60 122 0 54 64 365
82 401 12 22 119 102 137 102 18 0 23 -21 10 -37 -8 -9 -31 -26 -51 -39 -21
-14 -38 -32 -38 -41 0 -9 29 -44 64 -77 59 -57 64 -65 74 -123 6 -33 21 -81
33 -104 37 -73 77 -228 86 -332 5 -57 10 -71 30 -85 14 -9 39 -28 56 -42 18
-14 51 -34 75 -45 47 -20 65 -18 245 33 114 32 156 106 104 183 -27 40 -75 57
-164 58 -34 1 -73 5 -86 10 -47 18 -193 352 -204 468 -4 43 -1 55 16 72 19 19
33 21 141 21 112 0 167 8 295 42 22 5 77 28 122 50 46 21 88 36 94 32 15 -9 2
-177 -17 -224 -8 -19 -29 -48 -46 -63 -30 -28 -30 -29 -24 -100 17 -185 17
-193 0 -258 -9 -35 -18 -90 -19 -122 -2 -57 -18 -105 -73 -211 -21 -41 -23
-56 -18 -107 8 -64 8 -64 -67 -125 l-38 -31 11 -49 c26 -114 144 -174 344
-174 54 0 69 4 84 21 9 11 34 37 55 58 l39 38 -13 43 c-15 48 -56 93 -135 145
-28 19 -55 42 -58 52 -4 10 -3 45 3 78 25 151 33 218 38 330 5 111 8 127 45
215 36 83 40 100 34 147 -6 48 -4 55 24 86 16 19 43 62 60 95 16 33 35 64 42
68 18 11 76 -64 93 -121 9 -27 19 -86 22 -130 7 -93 28 -148 81 -213 53 -65
62 -91 62 -182 0 -57 6 -96 22 -137 12 -34 22 -83 22 -118 1 -54 5 -65 36
-103 39 -47 55 -50 108 -23 20 10 65 26 100 35 73 18 88 28 202 117 116 91
134 112 125 141 -11 33 -151 168 -176 168 -31 0 -97 -37 -104 -59 -9 -30 -72
-81 -100 -81 -36 0 -85 48 -112 109 -33 74 -40 166 -19 263 19 96 14 123 -35
183 -43 52 -46 60 -53 155 -3 36 -8 81 -12 101 -4 26 -1 39 10 49 14 11 20 10
39 -9 29 -27 42 -26 95 4 36 20 44 22 49 10 3 -9 0 -22 -7 -29 -8 -11 -9 -20
0 -35 20 -38 45 -26 153 70 47 41 56 45 92 42 52 -6 74 17 113 117 38 95 60
237 57 360 -2 84 0 98 18 117 28 32 38 107 20 159 -12 37 -12 49 1 102 9 33
16 73 16 88 0 16 7 37 15 47 7 11 17 38 20 60 9 52 22 77 39 77 7 0 21 9 30
19 10 10 33 22 53 26 58 11 211 94 237 129 51 67 44 93 -37 157 -50 40 -54 41
-105 35 -30 -4 -63 -11 -73 -16 -37 -20 -108 26 -124 80 -4 14 -15 34 -25 45
-10 11 -21 31 -25 43 -4 14 -21 30 -41 38 -55 23 -112 17 -182 -21z"/>
</g>
</svg>
