<?xml version="1.0" standalone="no"?>
<!DOCTYPE svg PUBLIC "-//W3C//DTD SVG 20010904//EN"
 "http://www.w3.org/TR/2001/REC-SVG-20010904/DTD/svg10.dtd">
<svg version="1.0" xmlns="http://www.w3.org/2000/svg"
 width="344.000000pt" height="315.000000pt" viewBox="0 0 344.000000 315.000000"
 preserveAspectRatio="xMidYMid meet">
<metadata>
Created by potrace 1.13, written by Peter Selinger 2001-2015
</metadata>
<g transform="translate(0.000000,315.000000) scale(0.100000,-0.100000)"
fill="#000000" stroke="none">
<path d="M1235 2742 c-11 -2 -33 -14 -50 -26 -27 -19 -45 -21 -170 -23 -169
-2 -264 -20 -354 -69 -70 -38 -144 -102 -167 -146 -18 -35 -18 -131 0 -166 33
-63 108 -107 167 -97 21 4 41 11 45 16 11 18 41 8 74 -26 18 -19 53 -44 77
-55 l44 -21 -19 -32 c-49 -82 -96 -189 -112 -254 -5 -24 -15 -62 -22 -85 -16
-60 -16 -312 1 -368 25 -87 72 -170 116 -206 34 -27 46 -45 54 -82 13 -53 3
-136 -25 -208 -15 -39 -15 -49 -1 -116 37 -169 31 -245 -31 -407 -27 -70 -33
-97 -25 -110 9 -13 39 -17 199 -22 107 -4 208 -12 232 -19 38 -12 45 -11 59 3
14 13 15 22 5 54 -6 21 -14 99 -18 174 -7 136 -7 137 22 195 24 49 28 69 26
119 -2 33 -4 99 -5 147 -2 107 8 121 103 142 36 8 148 33 250 55 101 23 195
41 208 41 44 0 54 -50 58 -302 l3 -227 -35 -93 c-36 -96 -54 -191 -37 -201 5
-3 27 -1 49 4 21 6 83 12 137 13 54 2 104 9 112 16 11 9 13 36 8 135 -8 162 7
257 53 335 39 66 42 104 18 189 -16 60 -7 116 19 109 6 -2 29 -38 51 -80 35
-71 40 -90 57 -235 21 -178 20 -191 -24 -321 -43 -129 -45 -128 124 -124 73 1
137 6 141 10 5 5 2 58 -7 118 -8 60 -16 172 -17 249 -2 123 0 148 20 202 30
85 29 153 -3 207 -39 67 -58 142 -50 201 7 59 71 275 85 289 5 5 12 7 15 5 14
-14 28 -186 29 -359 1 -171 3 -199 19 -224 17 -25 22 -27 60 -21 49 8 107 57
107 91 0 12 -8 32 -18 45 -57 77 -69 118 -81 289 -25 341 -49 448 -134 605 -9
17 -36 73 -61 125 -69 147 -134 262 -167 296 -68 70 -181 108 -251 85 -53 -18
-78 -51 -125 -173 -64 -163 -66 -168 -78 -168 -6 0 -19 33 -29 73 -33 133 -58
188 -106 235 -52 51 -76 62 -131 62 -57 0 -121 -32 -165 -84 -38 -44 -67 -108
-149 -333 -42 -116 -57 -135 -83 -109 -14 14 -17 36 -17 119 0 56 7 139 14
184 12 76 16 84 46 103 17 11 40 37 50 59 15 34 16 46 5 90 -12 53 -30 70 -90
89 -52 15 -83 20 -105 14z"/>
</g>
</svg>
