<?xml version="1.0" standalone="no"?>
<!DOCTYPE svg PUBLIC "-//W3C//DTD SVG 20010904//EN"
 "http://www.w3.org/TR/2001/REC-SVG-20010904/DTD/svg10.dtd">
<svg version="1.0" xmlns="http://www.w3.org/2000/svg"
 width="437.000000pt" height="357.000000pt" viewBox="0 0 437.000000 357.000000"
 preserveAspectRatio="xMidYMid meet">
<metadata>
Created by potrace 1.13, written by Peter Selinger 2001-2015
</metadata>
<g transform="translate(0.000000,357.000000) scale(0.100000,-0.100000)"
fill="#000000" stroke="none">
<path d="M1670 3191 c-19 -4 -44 -12 -56 -19 -31 -16 -90 -85 -114 -133 -26
-50 -66 -170 -76 -224 -13 -77 -46 -119 -265 -337 -121 -120 -224 -229 -229
-243 -6 -15 -10 -126 -10 -249 l0 -222 -30 -29 c-22 -21 -30 -38 -30 -63 0
-24 -9 -45 -30 -69 -20 -22 -30 -44 -30 -65 0 -24 -10 -40 -41 -69 l-41 -38 7
-58 c6 -51 4 -61 -14 -77 -27 -25 -35 -68 -20 -110 11 -32 10 -37 -14 -66 -31
-36 -36 -93 -12 -127 14 -20 14 -25 -1 -57 -17 -34 -16 -36 10 -88 22 -43 29
-75 37 -173 16 -184 49 -407 65 -432 14 -22 21 -23 135 -23 101 0 121 3 126
16 10 28 -34 102 -81 135 -46 33 -57 60 -77 204 -5 33 -14 96 -21 140 -15 100
-11 220 8 257 8 15 26 31 39 34 35 9 55 41 55 90 0 31 9 56 38 100 21 33 45
78 52 102 9 28 27 53 52 73 21 17 38 36 38 43 0 7 6 18 12 24 7 7 20 36 29 64
19 61 30 68 53 33 16 -25 16 -28 -3 -59 -25 -40 -26 -71 -5 -111 11 -21 13
-43 9 -78 -5 -36 -3 -59 10 -88 17 -36 17 -40 1 -63 -9 -14 -16 -43 -16 -65 0
-50 35 -81 90 -81 22 0 48 -8 62 -20 22 -17 25 -25 20 -68 -4 -43 -1 -53 26
-83 27 -31 34 -53 62 -200 47 -253 68 -341 83 -356 10 -11 36 -12 123 -6 100
7 109 10 112 29 4 28 -39 77 -107 122 l-56 37 -32 135 c-18 74 -36 171 -39
215 -3 44 -10 99 -16 123 -14 55 7 82 61 82 50 0 78 23 92 73 10 37 9 47 -10
83 l-22 41 22 37 c18 30 21 47 16 88 -4 34 -2 62 8 85 8 20 15 50 15 69 0 18
5 36 10 39 6 4 42 -15 80 -40 102 -71 169 -95 285 -105 55 -4 123 -4 150 0 28
4 53 6 57 3 4 -2 15 -21 25 -41 17 -35 21 -76 22 -199 0 -71 11 -87 71 -102
28 -7 53 -18 56 -25 2 -6 6 -54 8 -106 3 -52 9 -147 15 -210 5 -63 10 -180 10
-261 1 -86 5 -149 11 -155 16 -16 412 -3 418 14 2 6 -3 32 -11 59 -11 38 -24
56 -60 83 -25 20 -65 42 -89 50 -41 15 -43 17 -66 90 -13 41 -26 98 -29 125
-5 44 -2 55 21 82 31 37 33 66 6 116 -31 57 -27 85 15 103 51 21 63 53 64 173
0 58 4 119 7 137 4 21 0 45 -12 69 -15 32 -15 40 -4 59 8 11 14 47 14 78 2
105 46 107 64 2 27 -149 115 -260 265 -335 45 -23 94 -53 110 -67 26 -25 28
-25 44 -9 15 15 16 21 4 50 -7 17 -18 53 -24 79 -11 47 -10 49 21 81 18 18 32
42 32 53 0 26 26 50 62 59 38 10 50 28 63 93 11 55 13 57 51 65 52 10 90 49
97 97 4 29 16 49 46 78 44 42 52 77 30 126 -11 22 -8 29 21 62 27 31 31 42 25
68 -9 35 -9 55 1 107 6 40 -10 81 -45 113 -14 13 -19 26 -15 46 7 35 -17 82
-56 110 -16 12 -30 27 -30 34 0 7 -11 30 -25 50 l-25 37 26 39 c29 44 32 45
216 56 138 8 158 20 158 98 0 68 -29 114 -84 133 -49 17 -233 58 -346 77 -74
13 -88 19 -110 46 -14 16 -33 30 -43 30 -11 0 -32 14 -48 31 -29 32 -48 34
-101 14 -11 -5 -23 4 -41 30 -14 20 -34 43 -46 51 -12 9 -21 21 -21 28 0 8 -7
19 -15 26 -27 22 -37 -3 -41 -100 -3 -51 -7 -96 -10 -101 -3 -5 -19 -9 -35 -9
-21 0 -41 -10 -61 -30 -26 -27 -30 -36 -25 -70 5 -41 -2 -53 -47 -75 -20 -10
-21 -17 -19 -125 4 -215 18 -298 55 -338 14 -15 29 -38 33 -52 10 -35 24 -50
46 -50 26 0 41 -33 37 -83 -12 -161 -202 120 -364 538 -25 66 -51 136 -56 155
-5 19 -13 44 -18 55 -5 11 -20 46 -33 78 -27 65 -84 140 -131 168 -44 27 -128
25 -186 -4 -76 -39 -142 -150 -162 -271 -2 -10 -11 -24 -20 -30 -27 -17 -42 7
-77 118 -36 113 -43 127 -84 179 -44 56 -128 84 -207 68z"/>
</g>
</svg>
