<?xml version="1.0" standalone="no"?>
<!DOCTYPE svg PUBLIC "-//W3C//DTD SVG 20010904//EN"
 "http://www.w3.org/TR/2001/REC-SVG-20010904/DTD/svg10.dtd">
<svg version="1.0" xmlns="http://www.w3.org/2000/svg"
 width="352.000000pt" height="288.000000pt" viewBox="0 0 352.000000 288.000000"
 preserveAspectRatio="xMidYMid meet">
<metadata>
Created by potrace 1.13, written by Peter Selinger 2001-2015
</metadata>
<g transform="translate(0.000000,288.000000) scale(0.100000,-0.100000)"
fill="#000000" stroke="none">
<path d="M1659 1672 c-21 -21 -41 -52 -44 -68 -3 -16 -10 -36 -14 -44 -10 -19
-50 -25 -64 -11 -17 17 -33 14 -113 -26 -51 -24 -80 -45 -89 -64 l-15 -27
-157 -4 c-142 -3 -162 -5 -196 -25 -21 -13 -47 -23 -57 -23 -67 0 -74 -25 -50
-177 24 -151 45 -221 72 -245 42 -37 134 -15 187 44 l29 33 176 3 c170 4 176
3 176 -16 0 -35 25 -45 99 -40 53 3 78 9 101 26 24 18 53 26 123 33 51 5 116
14 146 19 69 13 191 13 191 1 0 -27 34 -41 96 -41 72 0 93 13 115 73 8 23 23
39 43 48 22 10 39 31 59 72 16 31 32 57 37 57 5 0 14 9 20 19 14 27 -5 67 -39
81 -15 6 -31 21 -36 33 -8 17 -19 23 -55 24 -64 4 -160 24 -192 40 -42 21 -58
54 -65 132 -9 111 -10 111 -251 111 l-194 0 -39 -38z"/>
</g>
</svg>
