<?xml version="1.0" standalone="no"?>
<!DOCTYPE svg PUBLIC "-//W3C//DTD SVG 20010904//EN"
 "http://www.w3.org/TR/2001/REC-SVG-20010904/DTD/svg10.dtd">
<svg version="1.0" xmlns="http://www.w3.org/2000/svg"
 width="352.000000pt" height="288.000000pt" viewBox="0 0 352.000000 288.000000"
 preserveAspectRatio="xMidYMid meet">
<metadata>
Created by potrace 1.13, written by Peter Selinger 2001-2015
</metadata>
<g transform="translate(0.000000,288.000000) scale(0.100000,-0.100000)"
fill="#000000" stroke="none">
<path d="M1826 1956 c-21 -13 -52 -41 -69 -62 -27 -32 -33 -49 -38 -111 -6
-82 -14 -97 -34 -68 -28 40 -37 45 -76 45 -46 0 -91 -20 -112 -50 -10 -15 -23
-20 -48 -18 -27 2 -36 -2 -44 -19 -9 -21 -16 -23 -92 -23 -78 0 -88 -3 -200
-53 -65 -30 -133 -60 -151 -67 -18 -7 -39 -22 -47 -34 -18 -24 -20 -112 -4
-122 8 -5 10 -34 6 -96 -7 -112 1 -132 87 -208 l67 -60 73 0 c64 0 76 3 100
25 14 13 27 27 29 31 1 4 97 6 212 5 223 -2 260 3 274 41 9 22 9 22 15 -7 21
-95 25 -103 62 -115 80 -27 172 13 214 94 l25 46 185 0 c142 -1 191 -4 210
-15 15 -9 54 -14 98 -15 60 0 75 3 93 21 27 27 49 80 49 119 0 25 5 33 29 41
43 15 67 91 88 271 9 75 2 78 -149 78 -144 0 -174 9 -242 73 -34 32 -36 38
-36 94 0 51 -5 66 -29 99 -68 91 -43 84 -288 84 -212 -1 -219 -1 -257 -24z"/>
</g>
</svg>
