<?xml version="1.0" standalone="no"?>
<!DOCTYPE svg PUBLIC "-//W3C//DTD SVG 20010904//EN"
 "http://www.w3.org/TR/2001/REC-SVG-20010904/DTD/svg10.dtd">
<svg version="1.0" xmlns="http://www.w3.org/2000/svg"
 width="352.000000pt" height="288.000000pt" viewBox="0 0 352.000000 288.000000"
 preserveAspectRatio="xMidYMid meet">
<metadata>
Created by potrace 1.13, written by Peter Selinger 2001-2015
</metadata>
<g transform="translate(0.000000,288.000000) scale(0.100000,-0.100000)"
fill="#000000" stroke="none">
<path d="M1887 1910 c-29 -23 -57 -97 -57 -152 0 -42 -19 -51 -51 -22 -9 8
-42 18 -73 21 -54 6 -57 5 -89 -31 -21 -23 -42 -36 -58 -36 -31 0 -49 -17 -49
-47 0 -15 -6 -23 -18 -23 -10 0 -23 -5 -29 -11 -13 -13 -63 -23 -213 -44 -196
-28 -290 -76 -290 -148 0 -20 9 -46 22 -63 19 -23 24 -45 28 -123 5 -87 8 -95
33 -115 19 -16 27 -31 27 -54 0 -51 29 -72 101 -72 55 0 64 3 90 31 l29 31
269 -7 c261 -7 269 -7 289 13 l20 20 6 -33 c10 -53 40 -82 97 -94 109 -24 144
-11 195 70 l37 59 111 0 c108 1 145 6 233 30 41 12 44 11 78 -19 53 -46 88
-42 141 15 23 25 50 67 60 94 14 39 23 49 45 54 33 6 65 60 75 128 4 23 18 56
31 71 19 23 23 40 23 92 0 38 -5 66 -12 73 -7 5 -89 12 -183 15 -93 3 -179 8
-191 12 -16 5 -27 26 -44 83 -43 146 -42 145 -101 174 l-54 27 -251 0 c-237 1
-253 0 -277 -19z"/>
</g>
</svg>
