<?xml version="1.0" standalone="no"?>
<!DOCTYPE svg PUBLIC "-//W3C//DTD SVG 20010904//EN"
 "http://www.w3.org/TR/2001/REC-SVG-20010904/DTD/svg10.dtd">
<svg version="1.0" xmlns="http://www.w3.org/2000/svg"
 width="352.000000pt" height="288.000000pt" viewBox="0 0 352.000000 288.000000"
 preserveAspectRatio="xMidYMid meet">
<metadata>
Created by potrace 1.13, written by Peter Selinger 2001-2015
</metadata>
<g transform="translate(0.000000,288.000000) scale(0.100000,-0.100000)"
fill="#000000" stroke="none">
<path d="M1782 1923 c-27 -10 -56 -88 -61 -163 -6 -71 -7 -75 -31 -78 -19 -2
-29 5 -42 28 -16 28 -21 30 -72 30 -57 0 -79 -12 -91 -50 -5 -17 -14 -20 -46
-18 -43 2 -63 -13 -55 -44 5 -21 -5 -22 -106 -18 -57 2 -77 -3 -145 -33 -43
-20 -100 -42 -127 -49 -39 -10 -54 -20 -73 -52 -14 -21 -30 -52 -36 -69 -9
-26 -7 -33 11 -48 20 -15 22 -27 22 -114 l0 -97 55 -54 c54 -52 58 -54 110
-54 43 0 59 5 74 21 20 22 24 22 285 17 189 -4 268 -2 276 6 8 7 14 7 16 1 23
-59 42 -81 83 -94 61 -19 90 -7 121 52 23 43 28 47 61 47 20 0 58 7 85 15 90
28 178 47 247 54 64 6 67 6 67 -15 0 -49 74 -68 138 -35 50 25 72 56 79 111 4
30 10 40 24 40 25 0 50 40 60 97 5 26 16 56 24 67 78 105 78 108 35 157 -17
19 -37 42 -45 52 -13 15 -35 17 -169 17 l-153 0 -12 43 c-6 23 -12 64 -13 92
-3 59 -16 68 -125 89 -38 8 -113 23 -168 35 -93 19 -269 28 -303 14z"/>
</g>
</svg>
