<?xml version="1.0" standalone="no"?>
<!DOCTYPE svg PUBLIC "-//W3C//DTD SVG 20010904//EN"
 "http://www.w3.org/TR/2001/REC-SVG-20010904/DTD/svg10.dtd">
<svg version="1.0" xmlns="http://www.w3.org/2000/svg"
 width="352.000000pt" height="288.000000pt" viewBox="0 0 352.000000 288.000000"
 preserveAspectRatio="xMidYMid meet">
<metadata>
Created by potrace 1.13, written by Peter Selinger 2001-2015
</metadata>
<g transform="translate(0.000000,288.000000) scale(0.100000,-0.100000)"
fill="#000000" stroke="none">
<path d="M1865 1746 c-24 -24 -55 -110 -55 -152 0 -17 -7 -23 -34 -26 -19 -2
-42 2 -52 9 -10 7 -42 13 -71 13 -41 0 -58 -5 -74 -21 -21 -21 -23 -21 -49 -5
-36 21 -64 11 -56 -19 5 -21 0 -24 -59 -39 -35 -9 -92 -16 -127 -16 -65 0
-132 -12 -180 -31 -19 -8 -39 -32 -63 -78 -36 -66 -38 -91 -10 -91 12 0 15
-12 15 -54 0 -56 16 -116 31 -116 5 0 9 -13 9 -30 0 -16 7 -35 16 -42 8 -7 25
-23 36 -35 18 -19 32 -23 82 -23 50 0 64 4 85 24 l26 25 208 -12 209 -11 14
-28 c26 -51 67 -59 148 -32 41 14 50 23 66 59 l18 42 83 6 c46 4 137 7 201 7
l116 0 12 -35 c13 -40 32 -48 105 -43 44 3 52 7 73 38 12 19 28 53 33 76 10
40 14 43 53 49 61 11 66 18 66 102 0 54 5 84 20 113 25 50 25 69 -2 125 -26
53 -51 64 -115 47 -52 -14 -239 -16 -248 -2 -3 5 -9 38 -14 74 -9 80 -23 97
-107 130 -60 24 -76 26 -225 26 -155 0 -161 -1 -184 -24z"/>
</g>
</svg>
