<?xml version="1.0" standalone="no"?>
<!DOCTYPE svg PUBLIC "-//W3C//DTD SVG 20010904//EN"
 "http://www.w3.org/TR/2001/REC-SVG-20010904/DTD/svg10.dtd">
<svg version="1.0" xmlns="http://www.w3.org/2000/svg"
 width="352.000000pt" height="288.000000pt" viewBox="0 0 352.000000 288.000000"
 preserveAspectRatio="xMidYMid meet">
<metadata>
Created by potrace 1.13, written by Peter Selinger 2001-2015
</metadata>
<g transform="translate(0.000000,288.000000) scale(0.100000,-0.100000)"
fill="#000000" stroke="none">
<path d="M1799 1725 c-46 -22 -59 -34 -77 -71 -12 -24 -22 -53 -22 -64 0 -23
-37 -28 -71 -9 -24 12 -75 -2 -111 -31 -14 -10 -40 -20 -59 -22 -23 -2 -37
-10 -43 -24 -8 -19 -21 -22 -95 -27 -224 -16 -305 -41 -348 -106 -30 -44 -29
-69 1 -81 35 -13 44 -35 45 -114 1 -91 9 -134 33 -173 20 -34 34 -41 83 -43
50 -3 53 -1 65 36 l12 37 97 -6 c53 -3 123 -13 156 -22 46 -12 80 -15 142 -9
l83 6 17 -31 c36 -63 99 -49 131 30 14 33 29 52 47 59 15 6 110 10 213 10 144
0 193 -3 215 -15 49 -25 94 -29 142 -10 34 13 46 23 51 43 3 15 8 34 10 43 2
8 20 23 38 32 29 13 37 25 52 74 9 32 23 77 31 101 16 53 17 97 1 109 -7 6
-53 13 -103 16 -59 4 -114 14 -159 31 -63 22 -72 29 -93 68 -12 24 -22 60 -23
80 0 20 -7 44 -16 53 -41 41 -58 44 -224 50 -162 5 -166 5 -221 -20z"/>
</g>
</svg>
