<?xml version="1.0" standalone="no"?>
<!DOCTYPE svg PUBLIC "-//W3C//DTD SVG 20010904//EN"
 "http://www.w3.org/TR/2001/REC-SVG-20010904/DTD/svg10.dtd">
<svg version="1.0" xmlns="http://www.w3.org/2000/svg"
 width="352.000000pt" height="288.000000pt" viewBox="0 0 352.000000 288.000000"
 preserveAspectRatio="xMidYMid meet">
<metadata>
Created by potrace 1.13, written by Peter Selinger 2001-2015
</metadata>
<g transform="translate(0.000000,288.000000) scale(0.100000,-0.100000)"
fill="#000000" stroke="none">
<path d="M1838 1761 c-28 -23 -64 -112 -54 -136 4 -12 -8 -15 -66 -15 -68 0
-74 -2 -105 -32 -31 -30 -36 -31 -64 -21 -37 14 -53 9 -67 -23 -7 -13 -20 -24
-29 -25 -268 -10 -308 -15 -361 -44 -30 -16 -58 -38 -64 -49 -12 -23 -5 -118
19 -251 15 -85 18 -93 63 -137 38 -39 54 -48 81 -48 42 0 52 7 74 49 l17 34
106 -7 c59 -4 127 -13 152 -21 25 -7 81 -18 124 -25 68 -10 86 -18 128 -51 28
-21 59 -39 69 -39 55 0 129 66 129 115 0 13 26 15 195 15 107 0 195 -4 195 -8
0 -5 9 -18 20 -30 29 -31 103 -31 124 0 9 12 16 33 16 46 0 13 10 46 21 73 19
42 25 49 50 49 34 0 66 29 74 67 4 16 25 65 47 109 48 98 47 118 -14 164 l-43
32 -147 -6 c-113 -5 -148 -3 -155 6 -4 7 -10 49 -13 93 -6 99 -5 98 -195 115
-271 24 -297 24 -327 1z"/>
</g>
</svg>
