<?xml version="1.0" standalone="no"?>
<!DOCTYPE svg PUBLIC "-//W3C//DTD SVG 20010904//EN"
 "http://www.w3.org/TR/2001/REC-SVG-20010904/DTD/svg10.dtd">
<svg version="1.0" xmlns="http://www.w3.org/2000/svg"
 width="352.000000pt" height="288.000000pt" viewBox="0 0 352.000000 288.000000"
 preserveAspectRatio="xMidYMid meet">
<metadata>
Created by potrace 1.13, written by Peter Selinger 2001-2015
</metadata>
<g transform="translate(0.000000,288.000000) scale(0.100000,-0.100000)"
fill="#000000" stroke="none">
<path d="M2528 1118 c-39 -32 -48 -60 -42 -128 7 -66 6 -67 -22 -77 -16 -6
-41 -14 -57 -17 -55 -13 -67 -37 -67 -136 0 -130 -13 -150 -102 -150 -44 0
-58 19 -58 79 0 57 -27 154 -47 169 -12 8 -70 12 -205 12 l-189 0 -47 43 c-83
76 -108 87 -205 87 -85 0 -86 0 -110 -32 -14 -18 -34 -52 -46 -75 -19 -38 -19
-43 -5 -57 21 -21 47 -20 94 4 22 11 45 20 53 20 8 0 26 -23 41 -51 26 -51 26
-52 26 -279 0 -225 0 -229 22 -244 24 -17 65 -21 85 -8 27 17 43 82 43 177 l0
95 149 0 c127 0 150 -2 155 -16 3 -9 6 -68 6 -132 0 -64 4 -122 8 -128 23 -34
110 -46 133 -18 8 10 15 52 17 110 l4 94 54 0 54 0 0 -44 c0 -33 7 -52 26 -76
40 -47 113 -80 178 -80 66 0 82 17 92 96 12 102 10 100 137 108 62 3 135 9
162 12 l50 6 29 -76 c45 -118 75 -159 141 -191 79 -39 193 -47 252 -17 64 33
85 87 91 231 l4 116 -36 52 c-34 49 -36 58 -36 128 0 83 -17 137 -48 154 -12
6 -53 11 -93 11 -71 0 -73 1 -118 43 -55 51 -139 84 -172 67 -23 -13 -39 -49
-39 -91 0 -19 -5 -29 -15 -29 -26 0 -55 -38 -55 -73 0 -43 -50 -93 -102 -102
l-38 -7 0 48 c0 54 -23 151 -39 167 -6 6 -11 31 -11 57 0 48 -26 114 -54 143
-21 20 -27 21 -48 5z"/>
</g>
</svg>
