<?xml version="1.0" standalone="no"?>
<!DOCTYPE svg PUBLIC "-//W3C//DTD SVG 20010904//EN"
 "http://www.w3.org/TR/2001/REC-SVG-20010904/DTD/svg10.dtd">
<svg version="1.0" xmlns="http://www.w3.org/2000/svg"
 width="352.000000pt" height="288.000000pt" viewBox="0 0 352.000000 288.000000"
 preserveAspectRatio="xMidYMid meet">
<metadata>
Created by potrace 1.13, written by Peter Selinger 2001-2015
</metadata>
<g transform="translate(0.000000,288.000000) scale(0.100000,-0.100000)"
fill="#000000" stroke="none">
<path d="M2253 1163 c-7 -3 -22 -20 -33 -39 -21 -32 -21 -36 -6 -88 23 -80 21
-92 -23 -121 -47 -32 -61 -61 -61 -129 0 -46 -4 -56 -33 -84 -33 -32 -35 -33
-118 -30 l-84 3 -5 59 c-3 39 -10 61 -20 66 -8 4 -37 18 -65 32 -45 23 -66 26
-210 32 l-160 7 -60 61 c-63 64 -134 103 -172 93 -15 -3 -35 -30 -63 -85 -23
-43 -42 -83 -42 -87 1 -4 10 -14 21 -21 17 -12 22 -11 42 12 28 32 69 35 69 6
0 -11 9 -28 20 -37 15 -13 20 -30 20 -64 0 -33 5 -51 20 -64 18 -16 20 -31 20
-140 0 -85 -5 -133 -15 -157 -17 -42 -6 -58 41 -58 57 0 64 17 64 155 0 102 3
124 16 129 23 9 257 -5 272 -17 8 -6 12 -45 12 -127 0 -82 4 -121 13 -128 6
-5 35 -12 62 -14 48 -3 51 -2 67 32 14 26 18 60 18 133 l0 97 53 0 c64 0 87
-19 87 -70 0 -18 5 -63 11 -99 10 -55 18 -72 53 -108 53 -56 100 -66 139 -32
41 37 77 140 77 220 0 74 11 89 62 89 29 0 98 -55 98 -79 0 -9 7 -27 16 -39
14 -20 23 -22 106 -22 l92 0 44 -47 c24 -27 50 -60 58 -75 22 -43 66 -59 175
-65 120 -7 135 1 181 90 23 47 32 79 36 133 l4 72 -42 46 c-42 45 -42 46 -56
162 -7 64 -18 122 -25 130 -8 9 -33 14 -75 14 -62 0 -64 1 -113 50 -38 38 -57
50 -80 50 -36 0 -61 -23 -61 -56 0 -19 -5 -24 -25 -24 -44 0 -72 -21 -99 -74
-14 -28 -26 -55 -26 -59 0 -5 -14 -28 -30 -53 -24 -34 -37 -44 -59 -44 -26 0
-30 5 -46 63 -9 34 -28 83 -41 109 -13 26 -24 63 -24 81 0 19 -8 45 -19 58
-10 13 -22 44 -25 69 -13 79 -22 94 -53 83z"/>
</g>
</svg>
