<?xml version="1.0" standalone="no"?>
<!DOCTYPE svg PUBLIC "-//W3C//DTD SVG 20010904//EN"
 "http://www.w3.org/TR/2001/REC-SVG-20010904/DTD/svg10.dtd">
<svg version="1.0" xmlns="http://www.w3.org/2000/svg"
 width="352.000000pt" height="288.000000pt" viewBox="0 0 352.000000 288.000000"
 preserveAspectRatio="xMidYMid meet">
<metadata>
Created by potrace 1.13, written by Peter Selinger 2001-2015
</metadata>
<g transform="translate(0.000000,288.000000) scale(0.100000,-0.100000)"
fill="#000000" stroke="none">
<path d="M2455 1058 c-3 -7 -6 -42 -7 -78 -3 -64 -3 -65 -33 -68 -82 -8 -141
-64 -116 -110 6 -12 11 -48 11 -81 0 -51 -3 -61 -20 -66 -11 -3 -20 -11 -20
-16 0 -5 -24 -9 -53 -9 -53 0 -54 0 -85 49 -23 34 -32 61 -32 89 0 69 -8 72
-204 72 l-172 0 -57 60 c-75 79 -118 100 -201 100 -65 0 -66 0 -90 -38 -42
-68 -75 -138 -68 -149 7 -10 33 -17 59 -14 7 0 25 14 40 31 l26 30 49 -85 c39
-69 48 -93 48 -133 0 -38 -5 -53 -24 -71 -58 -54 -55 -119 9 -190 18 -20 36
-46 39 -59 4 -12 21 -29 38 -38 39 -20 67 -9 93 39 18 34 18 37 2 74 -39 90
-30 167 22 180 14 4 82 7 151 8 l125 0 0 -130 c0 -72 4 -136 8 -142 13 -21 45
-15 63 11 10 16 18 58 21 120 l6 96 32 0 c18 0 46 -3 63 -6 28 -6 30 -9 41
-78 16 -97 44 -144 101 -167 50 -20 151 -25 181 -9 25 14 49 62 49 97 0 26 5
30 45 41 27 7 115 12 220 12 154 0 175 -2 175 -16 0 -51 72 -121 164 -159 47
-20 149 -19 187 1 46 23 91 126 97 219 4 64 2 76 -19 104 -14 20 -42 38 -71
49 l-48 17 0 90 c0 49 -4 95 -8 102 -13 21 -62 33 -136 33 l-72 0 -13 50 c-17
67 -32 80 -91 80 -67 0 -78 -6 -90 -51 -9 -31 -19 -43 -53 -60 -54 -28 -49
-20 -58 -87 -7 -48 -14 -62 -43 -89 -20 -18 -46 -33 -59 -33 -20 0 -26 8 -40
58 -13 45 -23 61 -47 74 -29 17 -30 19 -30 90 0 96 -13 142 -46 156 -32 15
-54 15 -59 0z"/>
</g>
</svg>
