<?xml version="1.0" standalone="no"?>
<!DOCTYPE svg PUBLIC "-//W3C//DTD SVG 20010904//EN"
 "http://www.w3.org/TR/2001/REC-SVG-20010904/DTD/svg10.dtd">
<svg version="1.0" xmlns="http://www.w3.org/2000/svg"
 width="352.000000pt" height="288.000000pt" viewBox="0 0 352.000000 288.000000"
 preserveAspectRatio="xMidYMid meet">
<metadata>
Created by potrace 1.13, written by Peter Selinger 2001-2015
</metadata>
<g transform="translate(0.000000,288.000000) scale(0.100000,-0.100000)"
fill="#000000" stroke="none">
<path d="M1952 1132 c-19 -12 -32 -69 -32 -140 0 -60 -1 -64 -28 -73 -42 -15
-62 -56 -62 -132 0 -78 -14 -97 -69 -97 -21 0 -72 -3 -113 -6 l-75 -7 -5 65
c-2 39 -11 76 -21 92 -16 24 -23 26 -88 26 -38 0 -89 4 -112 9 -23 5 -76 15
-117 22 -57 9 -88 21 -130 49 -71 48 -154 90 -178 90 -25 0 -152 -125 -152
-149 0 -23 25 -51 46 -51 8 0 22 9 31 20 14 16 30 20 80 20 59 0 64 -2 73 -26
6 -14 10 -109 10 -212 -1 -149 -4 -191 -15 -206 -20 -26 -19 -62 1 -70 34 -13
54 29 74 156 19 123 11 118 171 118 75 0 144 -3 153 -6 13 -5 16 -25 16 -114
0 -85 3 -112 16 -124 45 -46 84 8 84 115 l0 59 50 0 c28 0 66 -6 84 -14 32
-13 35 -18 41 -73 3 -32 8 -69 11 -81 16 -77 151 -118 234 -71 86 49 120 199
64 281 -35 50 -27 70 28 66 38 -3 44 -7 71 -53 17 -27 33 -63 36 -80 10 -45
75 -74 171 -74 l75 -1 27 -49 c32 -57 116 -131 179 -159 102 -45 121 -52 150
-52 46 0 66 16 96 73 25 47 28 65 31 178 3 81 0 134 -7 147 -6 12 -29 27 -51
33 -46 14 -49 20 -52 129 l-3 75 -50 23 c-27 13 -65 26 -85 29 -44 7 -97 41
-104 69 -6 24 -48 46 -71 38 -24 -10 -45 -59 -45 -107 0 -41 -2 -45 -29 -50
-32 -7 -51 -45 -51 -102 0 -29 -5 -35 -40 -49 -62 -25 -94 -21 -124 15 -44 52
-59 90 -64 164 -3 41 -13 86 -24 109 -11 22 -26 61 -34 87 -13 45 -36 79 -52
79 -4 0 -13 -4 -20 -8z"/>
</g>
</svg>
