<?xml version="1.0" standalone="no"?>
<!DOCTYPE svg PUBLIC "-//W3C//DTD SVG 20010904//EN"
 "http://www.w3.org/TR/2001/REC-SVG-20010904/DTD/svg10.dtd">
<svg version="1.0" xmlns="http://www.w3.org/2000/svg"
 width="352.000000pt" height="288.000000pt" viewBox="0 0 352.000000 288.000000"
 preserveAspectRatio="xMidYMid meet">
<metadata>
Created by potrace 1.13, written by Peter Selinger 2001-2015
</metadata>
<g transform="translate(0.000000,288.000000) scale(0.100000,-0.100000)"
fill="#000000" stroke="none">
<path d="M2140 1148 c-42 -45 -44 -60 -21 -114 12 -26 21 -61 21 -79 0 -30 -4
-35 -45 -51 -58 -22 -68 -40 -59 -114 l7 -60 -29 0 c-16 0 -66 -3 -111 -7
l-83 -6 0 30 c0 47 -28 115 -61 151 -28 29 -35 32 -92 32 -34 0 -98 -10 -142
-21 -141 -37 -158 -36 -203 6 -72 66 -102 84 -159 91 -67 8 -74 2 -131 -105
-57 -106 -45 -138 32 -86 20 14 43 25 51 25 28 0 65 -24 65 -41 0 -10 12 -43
27 -74 26 -52 26 -57 14 -97 -8 -24 -16 -82 -18 -130 -5 -96 -10 -83 68 -154
48 -43 74 10 74 153 0 56 4 105 8 109 4 4 78 8 164 8 l156 1 20 -27 c28 -38
33 -120 12 -202 -13 -53 -14 -71 -4 -82 12 -15 46 -18 73 -8 25 10 37 73 26
134 -5 29 -10 77 -10 106 0 53 0 54 30 54 17 0 53 -11 80 -25 l50 -25 0 -86
c0 -119 6 -125 181 -164 101 -23 129 1 129 110 l0 60 88 -1 c48 0 124 -4 169
-7 72 -6 86 -11 112 -36 17 -16 38 -51 46 -77 17 -50 20 -53 127 -84 72 -22
158 -16 196 12 54 40 142 186 142 235 0 62 -85 170 -146 187 -29 7 -29 8 -29
83 -1 111 -21 134 -139 154 -49 9 -50 10 -68 64 -23 68 -39 80 -99 80 -70 0
-80 -15 -72 -104 l6 -73 -47 -18 c-52 -20 -103 -71 -112 -113 -3 -15 -7 -33
-10 -39 -2 -9 -24 -13 -64 -13 -99 0 -100 2 -100 233 0 105 -4 197 -8 203 -9
15 -47 34 -66 34 -8 0 -29 -15 -46 -32z"/>
</g>
</svg>
