<?xml version="1.0" standalone="no"?>
<!DOCTYPE svg PUBLIC "-//W3C//DTD SVG 20010904//EN"
 "http://www.w3.org/TR/2001/REC-SVG-20010904/DTD/svg10.dtd">
<svg version="1.0" xmlns="http://www.w3.org/2000/svg"
 width="352.000000pt" height="288.000000pt" viewBox="0 0 352.000000 288.000000"
 preserveAspectRatio="xMidYMid meet">
<metadata>
Created by potrace 1.13, written by Peter Selinger 2001-2015
</metadata>
<g transform="translate(0.000000,288.000000) scale(0.100000,-0.100000)"
fill="#000000" stroke="none">
<path d="M1750 1128 c-16 -26 -20 -50 -20 -120 0 -87 0 -88 -30 -103 -39 -20
-53 -48 -59 -124 l-6 -64 -70 -24 c-38 -13 -78 -26 -87 -29 -13 -5 -21 7 -37
60 -42 135 -47 138 -285 145 l-178 6 -32 36 c-51 59 -177 149 -209 149 -28 0
-103 -85 -120 -135 -19 -60 -10 -75 45 -75 28 0 46 7 64 25 14 14 36 25 48 25
26 0 27 -1 42 -183 5 -63 4 -81 -9 -95 -28 -31 -56 -111 -69 -197 -11 -75 -10
-87 4 -101 21 -21 54 -10 72 25 8 15 22 65 31 112 10 46 24 91 34 100 31 31
99 49 182 49 136 0 170 -38 138 -155 -10 -35 -9 -41 11 -57 50 -41 79 -16 88
74 6 73 27 97 83 98 44 0 67 -23 80 -78 4 -21 17 -60 28 -85 23 -53 47 -66
154 -87 65 -12 69 -11 102 11 31 21 85 107 85 135 0 18 247 29 298 13 49 -14
95 -60 111 -110 14 -43 50 -79 113 -112 49 -26 151 -44 186 -33 12 4 43 46 73
99 50 86 53 96 53 162 1 82 -19 128 -62 143 -33 11 -42 42 -42 144 0 68 -16
88 -70 88 -37 0 -42 4 -95 74 -64 85 -90 100 -117 66 -10 -12 -18 -32 -18 -44
0 -31 -30 -55 -130 -105 -93 -47 -120 -71 -120 -107 0 -26 -28 -38 -71 -32
-23 3 -24 7 -29 103 -4 77 -10 109 -28 140 -12 22 -38 75 -57 117 -20 43 -40
80 -45 83 -6 3 -19 -9 -30 -27z"/>
</g>
</svg>
