<?xml version="1.0" standalone="no"?>
<!DOCTYPE svg PUBLIC "-//W3C//DTD SVG 20010904//EN"
 "http://www.w3.org/TR/2001/REC-SVG-20010904/DTD/svg10.dtd">
<svg version="1.0" xmlns="http://www.w3.org/2000/svg"
 width="352.000000pt" height="288.000000pt" viewBox="0 0 352.000000 288.000000"
 preserveAspectRatio="xMidYMid meet">
<metadata>
Created by potrace 1.13, written by Peter Selinger 2001-2015
</metadata>
<g transform="translate(0.000000,288.000000) scale(0.100000,-0.100000)"
fill="#000000" stroke="none">
<path d="M2537 1108 c-27 -21 -45 -88 -39 -146 4 -49 2 -54 -31 -91 -51 -56
-67 -93 -67 -151 l0 -50 -99 0 -98 0 -7 62 c-8 69 -27 112 -55 128 -11 5 -65
10 -121 10 -56 0 -120 4 -143 9 -23 5 -73 14 -111 21 -64 10 -73 15 -115 59
-40 43 -53 50 -99 56 -71 9 -95 -8 -140 -102 l-36 -76 23 -18 c25 -20 53 -13
65 16 6 18 47 20 64 3 7 -7 12 -23 12 -37 1 -33 36 -111 50 -111 6 0 18 -17
27 -37 8 -21 21 -42 29 -46 21 -12 18 -95 -5 -137 -65 -117 -73 -147 -45 -174
17 -18 90 -22 114 -6 9 6 20 47 30 122 l15 113 49 33 c44 29 55 32 126 32 60
0 79 -3 84 -15 14 -39 18 -149 6 -205 -11 -52 -11 -63 4 -85 15 -23 22 -25
102 -25 78 0 87 2 111 26 22 22 24 31 19 67 -4 23 -16 57 -27 75 -10 18 -19
51 -19 73 l0 39 56 0 c54 0 56 -1 50 -22 -39 -147 -31 -184 48 -223 28 -14 63
-35 77 -46 32 -25 135 -37 168 -19 35 18 61 86 61 158 l0 62 163 0 c160 0 164
-1 174 -22 28 -62 41 -96 47 -126 12 -53 36 -62 163 -62 118 0 154 8 191 43
47 44 64 94 70 207 5 106 5 107 -22 128 -15 11 -32 22 -38 24 -7 3 -13 34 -15
74 -2 38 -6 78 -8 90 -6 26 -44 44 -96 44 -36 0 -126 23 -201 52 -15 6 -30 18
-33 28 -7 23 -58 44 -88 36 -25 -6 -51 -54 -61 -113 -5 -29 -67 -128 -91 -145
-5 -4 -31 -8 -57 -8 -64 0 -84 26 -93 123 -4 39 -13 95 -20 122 -7 28 -16 62
-19 77 -6 27 -61 98 -75 98 -4 0 -15 -6 -24 -12z"/>
</g>
</svg>
