<?xml version="1.0" standalone="no"?>
<!DOCTYPE svg PUBLIC "-//W3C//DTD SVG 20010904//EN"
 "http://www.w3.org/TR/2001/REC-SVG-20010904/DTD/svg10.dtd">
<svg version="1.0" xmlns="http://www.w3.org/2000/svg"
 width="352.000000pt" height="288.000000pt" viewBox="0 0 352.000000 288.000000"
 preserveAspectRatio="xMidYMid meet">
<metadata>
Created by potrace 1.13, written by Peter Selinger 2001-2015
</metadata>
<g transform="translate(0.000000,288.000000) scale(0.100000,-0.100000)"
fill="#000000" stroke="none">
<path d="M2196 1124 c-3 -9 -6 -54 -6 -100 0 -76 -2 -84 -19 -84 -44 0 -67
-44 -91 -170 -6 -29 -15 -59 -21 -67 -12 -14 -84 -18 -138 -7 -27 6 -31 11
-31 40 0 49 -20 83 -60 104 -30 15 -52 17 -135 13 -79 -4 -122 -1 -202 16 -56
11 -115 21 -132 21 -21 0 -36 9 -53 30 -64 83 -91 116 -102 122 -20 11 -76
-30 -92 -67 -8 -19 -18 -35 -22 -35 -5 0 -18 -9 -30 -20 l-22 -21 20 -39 c11
-21 24 -41 29 -44 4 -3 25 10 45 30 56 54 77 46 96 -41 9 -38 22 -81 29 -94
10 -18 12 -55 9 -138 -4 -89 -2 -123 12 -165 19 -59 35 -68 71 -39 21 17 24
30 29 104 4 57 12 93 24 112 l18 28 102 -6 c146 -8 139 -1 130 -118 -6 -90 -5
-100 16 -133 12 -20 26 -36 31 -36 15 0 73 31 81 44 4 6 8 51 8 99 l0 88 73
-7 c39 -3 76 -10 81 -15 5 -4 12 -51 17 -103 8 -92 20 -133 43 -148 20 -13
151 -8 197 7 25 9 62 29 82 46 32 27 37 36 37 74 0 24 -9 69 -21 100 -23 62
-22 93 4 109 24 16 51 -4 55 -40 4 -38 55 -144 86 -177 24 -26 28 -27 140 -27
126 0 124 1 168 -79 10 -18 33 -38 52 -46 43 -18 192 -19 223 -2 12 7 36 34
54 60 31 47 31 49 27 150 -3 92 -7 108 -36 161 -36 67 -39 91 -17 143 21 50
19 74 -10 113 -31 42 -57 57 -113 66 -34 5 -54 17 -90 54 -46 47 -48 48 -97
43 -63 -7 -75 -17 -75 -60 0 -52 -21 -123 -36 -123 -23 0 -63 -22 -70 -39 -3
-9 -9 -41 -13 -71 l-6 -55 -63 -3 c-86 -4 -92 3 -92 97 0 82 -9 101 -47 101
-21 0 -23 4 -23 58 0 49 -5 66 -32 107 -18 27 -39 59 -46 72 -15 27 -37 30
-46 7z"/>
</g>
</svg>
