<?xml version="1.0" standalone="no"?>
<!DOCTYPE svg PUBLIC "-//W3C//DTD SVG 20010904//EN"
 "http://www.w3.org/TR/2001/REC-SVG-20010904/DTD/svg10.dtd">
<svg version="1.0" xmlns="http://www.w3.org/2000/svg"
 width="352.000000pt" height="288.000000pt" viewBox="0 0 352.000000 288.000000"
 preserveAspectRatio="xMidYMid meet">
<metadata>
Created by potrace 1.13, written by Peter Selinger 2001-2015
</metadata>
<g transform="translate(0.000000,288.000000) scale(0.100000,-0.100000)"
fill="#000000" stroke="none">
<path d="M2336 1094 c-12 -12 -16 -37 -16 -109 l0 -94 -37 -6 c-73 -12 -80
-15 -91 -40 -7 -14 -12 -57 -12 -94 0 -63 -2 -69 -25 -79 -44 -20 -109 -15
-132 11 -19 22 -84 151 -97 195 -14 43 -52 52 -224 52 -148 0 -164 2 -213 24
-30 14 -88 29 -132 34 l-79 8 -24 -38 c-13 -21 -34 -61 -45 -90 -17 -45 -18
-53 -6 -66 21 -20 54 -7 72 29 13 24 22 29 50 29 55 0 75 -41 75 -157 0 -98
-10 -164 -40 -253 -45 -136 -43 -140 91 -140 75 0 101 4 113 16 21 21 20 41
-4 61 -17 15 -20 30 -20 93 0 46 5 83 13 93 17 23 217 36 254 16 l26 -14 -7
-107 c-5 -81 -3 -109 6 -115 7 -4 42 -13 77 -19 98 -16 99 -13 75 158 l-7 48
88 0 87 0 -3 -87 c-3 -68 0 -88 11 -94 133 -67 198 -87 243 -75 32 8 39 25 46
116 l6 75 170 0 c206 0 209 -1 263 -113 37 -76 38 -77 97 -99 79 -29 163 -30
198 -3 34 27 57 98 64 201 7 111 2 132 -47 166 l-40 28 0 101 c0 119 -4 125
-85 132 -49 4 -59 9 -93 46 -80 86 -116 101 -191 75 -37 -13 -46 -39 -37 -114
l6 -53 -44 -11 c-55 -13 -76 -41 -76 -99 l0 -43 -47 3 c-43 3 -50 7 -78 46
-28 41 -30 51 -35 155 -6 124 -22 166 -78 200 -37 21 -46 21 -66 1z"/>
</g>
</svg>
