<?xml version="1.0" standalone="no"?>
<!DOCTYPE svg PUBLIC "-//W3C//DTD SVG 20010904//EN"
 "http://www.w3.org/TR/2001/REC-SVG-20010904/DTD/svg10.dtd">
<svg version="1.0" xmlns="http://www.w3.org/2000/svg"
 width="352.000000pt" height="288.000000pt" viewBox="0 0 352.000000 288.000000"
 preserveAspectRatio="xMidYMid meet">
<metadata>
Created by potrace 1.13, written by Peter Selinger 2001-2015
</metadata>
<g transform="translate(0.000000,288.000000) scale(0.100000,-0.100000)"
fill="#000000" stroke="none">
<path d="M1776 1144 c-20 -19 -20 -54 -1 -80 28 -37 19 -70 -34 -114 -55 -46
-81 -98 -81 -160 l0 -40 -70 0 -70 0 -35 55 -36 55 -190 0 -190 0 -52 50 c-31
30 -85 66 -133 90 l-82 40 -43 -44 c-83 -83 -119 -147 -98 -172 18 -22 65 -16
98 12 49 41 71 30 91 -44 10 -35 23 -69 29 -75 18 -18 14 -239 -6 -299 -20
-62 -11 -82 40 -86 52 -5 67 22 67 121 0 152 31 177 216 177 l114 0 25 -50
c21 -42 25 -63 25 -138 0 -93 8 -112 46 -112 39 0 54 26 54 93 0 75 8 88 51
90 l34 2 11 -65 c11 -66 32 -119 56 -136 24 -19 137 -44 193 -44 61 0 89 18
101 66 4 15 4 91 1 170 l-5 144 24 0 c50 0 164 -131 164 -189 0 -16 6 -33 13
-38 21 -17 93 -33 143 -33 48 0 50 -1 79 -51 43 -73 108 -102 236 -107 l97 -4
43 39 c79 71 99 168 59 288 -24 70 -50 100 -99 116 -20 7 -39 17 -43 23 -4 6
-8 43 -8 83 0 89 -11 103 -83 103 -65 1 -82 14 -89 68 -8 57 -22 72 -70 72
-76 0 -118 -39 -118 -113 0 -27 -7 -36 -42 -57 -27 -17 -47 -39 -60 -69 l-20
-43 -61 7 c-34 3 -65 9 -69 11 -4 3 -8 38 -8 77 0 50 -6 85 -20 116 -11 24
-20 48 -20 53 0 6 -12 37 -27 70 -27 62 -59 88 -107 88 -13 0 -32 -7 -40 -16z"/>
</g>
</svg>
