<?xml version="1.0" standalone="no"?>
<!DOCTYPE svg PUBLIC "-//W3C//DTD SVG 20010904//EN"
 "http://www.w3.org/TR/2001/REC-SVG-20010904/DTD/svg10.dtd">
<svg version="1.0" xmlns="http://www.w3.org/2000/svg"
 width="416.000000pt" height="270.000000pt" viewBox="0 0 416.000000 270.000000"
 preserveAspectRatio="xMidYMid meet">
<metadata>
Created by potrace 1.13, written by Peter Selinger 2001-2015
</metadata>
<g transform="translate(0.000000,270.000000) scale(0.100000,-0.100000)"
fill="#000000" stroke="none">
<path d="M404 2683 c-96 -3 -102 -5 -114 -28 -13 -23 -15 -24 -36 -10 -16 10
-36 13 -68 9 -42 -6 -46 -9 -46 -34 0 -28 41 -99 66 -113 8 -4 14 -17 14 -28
0 -28 -39 -100 -66 -124 -13 -11 -24 -26 -24 -33 0 -7 -4 -12 -10 -12 -10 0
-5 -90 11 -175 13 -72 -18 -170 -108 -338 -23 -44 -9 -103 38 -149 21 -21 49
-39 61 -40 175 -13 231 -13 235 0 9 25 56 8 97 -34 14 -14 40 -24 80 -29 86
-10 98 -17 168 -91 129 -136 122 -131 177 -138 72 -10 81 -14 81 -46 0 -15 6
-30 14 -33 7 -3 30 -36 51 -72 40 -72 64 -105 77 -105 5 0 27 -13 49 -30 23
-16 58 -33 78 -36 39 -7 193 -85 222 -113 10 -9 49 -25 88 -36 78 -21 81 -25
81 -117 0 -31 5 -69 11 -85 20 -51 49 -167 49 -201 0 -48 -49 -192 -68 -200
-46 -17 -102 -111 -102 -171 0 -27 4 -30 50 -40 102 -22 170 -8 230 46 28 24
90 39 90 21 0 -5 9 -8 20 -8 11 0 20 6 20 14 0 7 7 27 15 42 17 33 20 84 5 84
-5 0 -10 7 -10 15 0 8 7 15 16 15 18 0 34 15 52 51 10 19 11 37 3 75 -5 27
-17 83 -25 124 -11 53 -15 112 -12 205 3 71 5 160 5 197 l1 67 33 5 c222 31
192 33 387 -29 25 -8 86 -17 135 -20 133 -9 138 -11 130 -43 -3 -15 -15 -45
-25 -67 -23 -49 -36 -115 -22 -115 5 0 7 -11 4 -25 -3 -20 0 -25 17 -25 12 0
21 6 21 15 0 8 9 20 20 27 11 7 20 16 20 20 0 9 86 98 94 98 10 0 56 43 56 53
0 12 42 46 58 47 6 0 12 4 12 9 0 5 10 11 23 15 12 3 56 26 97 50 41 25 83 46
93 46 9 0 17 4 17 9 0 18 110 51 170 51 79 0 94 -15 86 -87 -3 -29 -2 -53 2
-53 5 0 14 -11 21 -24 7 -13 30 -29 52 -36 53 -18 53 -30 0 -224 -26 -95 -47
-140 -106 -226 -41 -61 -63 -88 -150 -184 -46 -50 -43 -75 9 -93 51 -17 164
-28 210 -19 47 9 66 30 66 72 0 24 5 34 15 34 8 0 15 5 15 10 0 6 11 10 25 10
27 0 28 1 44 119 5 41 14 77 18 80 5 3 14 35 21 69 14 68 55 163 78 183 11 9
14 8 14 -5 0 -9 4 -16 8 -16 11 0 39 -85 46 -140 8 -56 -15 -197 -44 -272 -13
-35 -33 -67 -52 -82 -17 -13 -40 -43 -52 -67 -12 -24 -36 -53 -54 -64 -30 -19
-43 -57 -24 -69 5 -3 42 -8 84 -12 157 -14 250 18 256 88 l3 36 35 -11 c18 -6
37 -7 41 -3 4 4 8 102 8 217 0 115 3 209 6 209 3 0 11 -23 18 -50 7 -28 21
-68 32 -90 10 -21 19 -49 19 -60 0 -16 5 -21 23 -18 17 2 23 11 25 36 2 19 -1
32 -8 32 -6 0 -9 3 -6 8 6 9 20 398 17 472 -2 54 -17 125 -61 285 -32 114 -32
307 0 460 12 61 27 119 32 129 35 66 65 271 69 474 l4 154 -44 51 c-24 29 -50
66 -59 83 -21 45 -59 54 -189 43 -60 -5 -187 -8 -283 -8 -196 0 -282 -9 -420
-46 -52 -14 -146 -38 -208 -55 l-112 -30 -343 9 c-268 7 -353 13 -392 25 -78
25 -175 68 -175 78 0 4 -7 8 -15 8 -8 0 -15 4 -15 8 0 5 -30 22 -67 39 -75 35
-178 52 -186 30 -3 -9 -9 -9 -29 1 -20 11 -33 11 -66 1 -23 -7 -42 -16 -42
-20 0 -4 -8 -5 -18 -2 -10 2 -45 -8 -78 -23 -53 -24 -75 -28 -219 -34 -88 -4
-206 -5 -262 -2 l-103 5 0 58 c0 75 -6 89 -40 89 -24 0 -29 -5 -39 -42 -6 -24
-14 -48 -18 -54 -12 -16 -43 -25 -43 -13 0 41 -112 122 -162 117 -13 -1 -68
-4 -124 -5z m3510 -188 c4 -11 -2 -15 -23 -15 -16 0 -31 7 -35 15 -4 11 2 15
23 15 16 0 31 -7 35 -15z m-259 -35 c3 -5 1 -10 -4 -10 -6 0 -11 5 -11 10 0 6
2 10 4 10 3 0 8 -4 11 -10z m-185 -11 c0 -4 -16 -9 -35 -11 -31 -4 -43 1 -31
13 7 7 66 5 66 -2z m67 5 c-3 -3 -12 -4 -19 -1 -8 3 -5 6 6 6 11 1 17 -2 13
-5z m-3033 -32 c-6 -4 -16 -16 -22 -27 -6 -11 -12 -14 -12 -7 0 6 -7 12 -15
12 -8 0 -15 7 -15 15 0 11 11 15 38 15 20 0 32 -4 26 -8z m1417 -20 c-6 -12
-11 -37 -11 -56 0 -29 4 -36 20 -36 11 0 20 7 20 15 0 8 9 15 20 15 11 0 20 5
20 10 0 6 5 10 11 10 13 0 1 -63 -12 -68 -5 -2 -9 -10 -9 -18 0 -8 -4 -14 -10
-14 -5 0 -10 -9 -10 -19 0 -14 8 -21 26 -23 l25 -3 -30 -34 -31 -35 6 32 c5
24 3 32 -7 32 -16 0 -49 53 -49 78 0 8 -7 23 -16 33 -22 24 -9 88 20 99 27 10
30 6 17 -18z m-1336 -1 c17 -7 17 -8 -8 -13 -19 -4 -27 -1 -27 8 0 15 6 16 35
5z m3302 -7 c-3 -3 -12 -4 -19 -1 -8 3 -5 6 6 6 11 1 17 -2 13 -5z m-817 -19
c-7 -8 -17 -15 -22 -15 -11 0 14 29 26 30 5 0 3 -7 -4 -15z m767 9 c-3 -3 -12
-4 -19 -1 -8 3 -5 6 6 6 11 1 17 -2 13 -5z m-2191 -70 c-9 -8 -16 -25 -16 -37
0 -18 -2 -19 -10 -7 -6 9 -6 18 0 24 6 6 10 18 10 28 0 10 6 27 13 39 12 19
12 19 15 -6 2 -14 -4 -32 -12 -41z m2320 33 c38 -39 53 -77 30 -77 -9 0 -16 7
-16 16 0 26 -40 74 -61 74 -10 0 -19 5 -19 10 0 21 36 8 66 -23z m-672 8 c8
-8 24 -15 35 -15 12 0 21 -4 21 -10 0 -14 37 -12 43 3 3 6 6 0 6 -15 1 -36 40
-41 42 -5 1 19 2 20 5 2 20 -95 24 -101 82 -131 46 -23 53 -29 35 -32 -13 -2
-23 -8 -23 -13 0 -5 -5 -9 -12 -9 -7 0 -25 -12 -40 -27 -29 -27 -39 -85 -18
-98 6 -3 10 -17 10 -29 0 -14 10 -30 25 -40 16 -10 25 -26 25 -41 0 -14 4 -25
8 -25 5 0 14 -18 21 -40 11 -37 14 -40 49 -40 21 0 47 7 58 15 10 8 26 15 35
15 23 0 42 50 33 86 -7 27 -7 28 10 11 19 -18 76 -24 76 -7 0 6 4 10 9 10 14
0 -1 -52 -21 -72 -11 -11 -18 -29 -17 -41 1 -12 -1 -30 -6 -40 -4 -10 -5 -32
-1 -49 5 -26 4 -30 -6 -20 -7 7 -18 12 -26 12 -17 0 -62 -49 -62 -67 0 -8 -13
-13 -30 -13 -23 0 -31 -5 -36 -26 -4 -14 -2 -30 5 -37 6 -6 11 -28 11 -48 0
-28 5 -39 19 -44 10 -3 21 -15 24 -25 4 -16 14 -20 51 -20 46 0 46 0 46 -35
l0 -35 -20 20 c-21 21 -55 26 -79 11 -22 -14 -8 -97 22 -129 22 -24 24 -29 10
-41 -10 -9 -13 -23 -9 -44 3 -16 6 -37 6 -47 0 -11 12 -22 28 -28 28 -10 29
-13 35 -96 4 -47 12 -97 19 -111 6 -14 9 -27 6 -30 -11 -11 -38 8 -38 26 0 10
-7 19 -15 19 -8 0 -15 7 -15 15 0 8 -4 15 -9 15 -4 0 -6 11 -3 25 3 17 0 25
-9 25 -8 0 -24 22 -36 48 -19 41 -23 69 -27 210 -3 90 -8 167 -11 172 -4 6
-15 10 -26 10 -15 0 -20 -6 -18 -22 4 -32 -10 -68 -26 -68 -19 0 -24 21 -15
70 10 52 3 143 -14 183 -8 22 -16 27 -34 24 -17 -3 -24 1 -28 19 -3 13 -9 24
-13 24 -10 0 -37 58 -45 98 -5 21 -4 32 3 32 6 0 11 -7 11 -15 0 -20 50 -32
61 -14 10 16 0 112 -12 117 -5 2 -9 17 -9 33 0 16 -4 29 -10 29 -5 0 -10 15
-10 34 0 19 -7 41 -15 50 -8 8 -15 20 -15 26 0 43 -60 90 -73 58 -3 -7 -6 -1
-6 15 -1 15 -5 27 -11 27 -5 0 -10 6 -10 14 0 14 -29 26 -67 26 -20 0 -23 5
-23 39 0 57 21 141 36 141 7 0 19 -7 28 -15z m-2634 -25 c0 -6 -11 -8 -27 -4
-40 10 -41 14 -5 14 18 0 32 -5 32 -10z m3165 -20 c3 -5 1 -10 -4 -10 -6 0
-11 5 -11 10 0 6 2 10 4 10 3 0 8 -4 11 -10z m-3125 -19 c0 -6 -4 -13 -10 -16
-5 -3 -10 1 -10 9 0 9 5 16 10 16 6 0 10 -4 10 -9z m1544 -28 c-9 -37 -9 -37
-28 -18 -21 21 -20 32 2 38 31 8 32 7 26 -20z m1486 6 c0 -5 14 -9 30 -9 20 0
30 5 30 15 0 23 17 18 24 -7 9 -36 7 -48 -8 -48 -16 0 -36 -49 -37 -94 -1 -30
-1 -30 -9 -6 -4 14 -8 42 -9 63 -1 20 -5 37 -11 37 -5 0 -10 8 -10 19 0 10
-10 26 -22 34 l-23 16 23 -6 c12 -3 22 -9 22 -14z m140 11 c0 -5 -4 -10 -10
-10 -5 0 -10 5 -10 10 0 6 5 10 10 10 6 0 10 -4 10 -10z m-1790 -20 c16 0 18
-6 13 -37 -7 -47 -13 -55 -13 -20 0 23 -5 27 -27 28 -16 0 -22 3 -15 6 6 2 12
14 13 26 0 12 3 16 6 10 2 -7 13 -13 23 -13z m-467 -48 c-3 -12 -9 -22 -14
-22 -5 0 -3 11 3 25 13 30 20 28 11 -3z m-1245 -43 c-8 -6 -14 -3 -16 6 -2 8
-8 15 -13 15 -20 0 -8 29 14 32 17 2 23 -3 25 -21 2 -13 -2 -28 -10 -32z
m1917 51 c3 -6 -1 -7 -9 -4 -18 7 -21 14 -7 14 6 0 13 -4 16 -10z m-443 -75
c6 -14 15 -25 20 -25 5 0 16 -7 24 -15 9 -8 11 -15 5 -15 -6 0 -11 -6 -11 -14
0 -7 -7 -27 -15 -42 l-15 -29 0 38 c0 22 -7 44 -17 55 -18 18 -26 72 -11 72 5
0 14 -11 20 -25z m-203 -29 c-7 -14 -22 -27 -35 -30 -12 -3 -30 -13 -38 -22
-15 -14 -16 -14 -16 3 0 21 33 53 55 53 7 0 17 5 20 10 13 21 24 9 14 -14z
m1316 14 c7 -11 -9 -11 -45 0 -24 8 -24 8 7 9 17 1 35 -3 38 -9z m-547 -17
c-10 -2 -18 -9 -18 -14 0 -5 -11 -9 -25 -9 -16 0 -25 6 -25 15 0 11 11 15 43
14 23 -1 34 -3 25 -6z m-476 -48 c-2 -14 -6 -25 -8 -25 -2 0 -4 11 -4 25 0 14
4 25 9 25 4 0 6 -11 3 -25z m-1252 -6 c-7 -11 -14 -18 -17 -15 -3 3 0 12 7 21
18 21 23 19 10 -6z m-332 -20 c2 -9 -5 -19 -15 -22 -10 -4 -28 -14 -40 -23
-13 -9 -23 -12 -23 -6 0 6 9 14 20 17 13 4 20 15 20 31 0 19 5 25 17 22 10 -2
19 -10 21 -19z m261 -15 c17 -4 31 -13 31 -20 0 -9 11 -14 28 -14 25 -1 26 -2
9 -15 -14 -10 -26 -11 -48 -3 -20 7 -39 7 -61 -1 -17 -6 -34 -8 -37 -5 -3 4 0
9 7 11 6 3 12 16 12 29 0 25 8 28 59 18z m-139 -104 c11 0 20 -4 20 -10 0 -5
-9 -10 -21 -10 -29 0 -59 -18 -59 -35 0 -8 -9 -15 -20 -15 -23 0 -27 15 -5 24
10 4 15 20 15 51 l0 46 25 -26 c14 -14 35 -25 45 -25z m2574 -3 c-3 -15 -1
-34 6 -42 7 -8 10 -20 7 -27 -4 -9 -6 -8 -6 3 -1 9 -11 21 -23 27 -13 6 -17
11 -10 11 7 1 12 17 12 44 0 31 3 38 10 27 6 -8 7 -28 4 -43z m-2804 -41 c0
-11 -19 -15 -25 -6 -3 5 1 10 9 10 9 0 16 -2 16 -4z m1644 -11 c-4 -8 -8 -15
-10 -15 -2 0 -4 7 -4 15 0 8 4 15 10 15 5 0 7 -7 4 -15z m-1559 -54 c-5 -34
-12 -51 -21 -51 -9 0 -14 -11 -14 -29 0 -23 5 -31 23 -34 16 -3 13 -5 -10 -6
l-33 -1 0 53 c0 44 4 57 25 75 14 12 25 29 25 39 0 9 3 14 6 10 3 -3 3 -29 -1
-56z m3055 19 c0 -5 -7 -10 -16 -10 -8 0 -12 5 -9 10 3 6 10 10 16 10 5 0 9
-4 9 -10z m-906 -25 c3 -8 1 -15 -4 -15 -6 0 -10 7 -10 15 0 8 2 15 4 15 2 0
6 -7 10 -15z m577 -67 c11 -14 19 -33 19 -41 0 -15 20 -27 47 -27 11 0 14 7
11 25 -3 14 -1 25 3 25 5 0 9 -9 9 -19 0 -11 4 -22 9 -25 5 -3 11 -15 14 -27
5 -19 3 -20 -33 -14 -37 6 -38 5 -44 -28 -4 -19 -3 -43 0 -53 7 -18 7 -18 -14
0 -12 11 -22 27 -22 38 0 13 -8 18 -30 18 -22 0 -30 -5 -30 -18 0 -10 5 -23
12 -30 16 -16 4 -25 -22 -17 -13 4 -23 18 -27 36 -4 23 -13 31 -34 36 -16 3
-29 11 -29 18 0 7 -9 15 -21 18 -11 3 -23 15 -26 26 -3 13 -14 21 -25 21 -18
0 -19 -5 -14 -37 3 -21 3 -32 0 -25 -10 21 -42 14 -47 -10 -3 -20 -5 -19 -12
9 -4 17 -15 40 -26 51 -17 19 -17 20 2 25 10 3 69 1 131 -4 62 -6 122 -8 134
-5 22 6 33 29 35 76 1 21 2 22 6 5 3 -11 14 -32 24 -47z m-1121 12 c0 -5 -4
-10 -9 -10 -5 0 -12 -10 -14 -22 -3 -17 -5 -14 -6 10 -1 22 3 32 14 32 8 0 15
-4 15 -10z m1185 0 c3 -5 1 -10 -4 -10 -6 0 -11 5 -11 10 0 6 2 10 4 10 3 0 8
-4 11 -10z m-1273 -35 c-2 -14 -6 -25 -8 -25 -2 0 -4 11 -4 25 0 14 4 25 9 25
4 0 6 -11 3 -25z m88 -62 c21 -4 31 -13 35 -33 4 -16 15 -30 26 -33 12 -3 19
-13 18 -29 0 -12 -3 -17 -6 -10 -2 6 -11 12 -19 12 -8 0 -20 14 -25 30 -7 18
-18 30 -29 30 -23 0 -44 -75 -38 -133 5 -42 4 -44 -20 -39 l-25 5 6 -79 c4
-43 12 -83 17 -88 6 -6 10 -17 10 -26 0 -26 -30 40 -36 82 -5 27 -15 45 -35
59 -33 24 -36 35 -11 41 14 4 22 23 32 77 7 39 17 71 22 71 4 0 8 9 8 19 0 11
7 26 15 35 8 8 16 23 16 33 1 17 2 17 6 0 3 -10 17 -20 33 -24z m-240 -19 c0
-15 6 -24 15 -24 8 0 15 -4 15 -10 0 -5 -4 -10 -10 -10 -5 0 -10 -17 -10 -37
0 -21 -4 -45 -9 -52 -6 -10 -8 -1 -4 26 8 62 -4 113 -26 113 -11 0 -21 6 -24
13 -4 10 3 12 24 9 23 -3 29 -9 29 -28z m1087 -66 c-3 -8 -6 -5 -6 6 -1 11 2
17 5 13 3 -3 4 -12 1 -19z m-1010 -30 c-3 -8 -6 -5 -6 6 -1 11 2 17 5 13 3 -3
4 -12 1 -19z m1041 -6 c2 -7 -3 -12 -12 -12 -9 0 -16 7 -16 16 0 17 22 14 28
-4z m-1988 -72 c0 -5 -5 -10 -11 -10 -5 0 -7 5 -4 10 3 6 8 10 11 10 2 0 4 -4
4 -10z m3145 -312 c12 -65 15 -115 10 -152 -8 -66 -17 -62 -59 27 -25 53 -27
66 -21 125 4 37 13 80 21 96 8 16 14 36 15 45 1 23 14 -30 34 -141z m-2174 74
c20 3 29 0 29 -9 0 -7 -4 -13 -10 -13 -14 0 -12 -23 5 -56 8 -16 11 -30 6 -32
-5 -2 -7 -38 -5 -80 4 -64 2 -73 -7 -52 -7 14 -13 50 -14 80 -1 30 -3 72 -3
93 -1 26 -8 40 -19 44 -24 9 -33 23 -32 53 1 25 1 25 11 -3 9 -25 15 -28 39
-25z m48 -344 c1 -10 -6 -18 -13 -18 -11 0 -16 -15 -18 -52 l-3 -53 -19 40
c-11 22 -22 43 -24 48 -2 4 1 7 7 7 19 0 51 39 52 63 0 21 1 21 9 2 5 -11 9
-28 9 -37z m2004 -36 c-6 -25 -26 -25 -31 0 -2 9 5 18 15 20 23 6 23 6 16 -20z
m-1986 -44 c-3 -7 -5 -2 -5 12 0 14 2 19 5 13 2 -7 2 -19 0 -25z m1827 -23
c-4 -8 -10 -15 -15 -15 -4 0 -6 7 -3 15 4 8 10 15 15 15 4 0 6 -7 3 -15z
m-1904 -90 c0 -8 -4 -15 -10 -15 -5 0 -10 7 -10 15 0 8 5 15 10 15 6 0 10 -7
10 -15z m1746 -334 c-15 -14 -16 -14 -16 2 0 9 5 17 10 17 6 0 11 15 12 33 l1
32 4 -34 c3 -22 -1 -39 -11 -50z m-74 57 c-5 -7 -12 -22 -15 -33 -3 -13 -5 -9
-6 13 -1 23 3 32 15 32 12 0 14 -3 6 -12z m-1657 -87 c3 -11 15 -21 26 -23 19
-3 19 -4 2 -28 l-17 -24 -6 24 c-7 28 -38 39 -51 18 -7 -11 -9 -11 -9 1 0 14
29 49 42 50 4 1 9 -8 13 -18z m2085 -71 c47 0 44 -18 -4 -22 -40 -3 -45 -1
-49 19 -2 13 0 23 4 23 5 0 10 8 10 18 1 9 4 5 6 -10 4 -23 9 -28 33 -28z
m-435 -38 c-3 -3 -11 0 -18 7 -9 10 -8 11 6 5 10 -3 15 -9 12 -12z m-1695 -39
c0 -6 -9 -9 -20 -6 -11 3 -26 1 -33 -4 -6 -5 -25 -6 -42 -2 -16 3 -22 7 -12 8
9 0 17 5 17 9 0 5 20 8 45 8 27 -1 45 -6 45 -13z m2058 -30 c-10 -2 -26 -2
-35 0 -10 3 -2 5 17 5 19 0 27 -2 18 -5z"/>
</g>
</svg>
