<?xml version="1.0" standalone="no"?>
<!DOCTYPE svg PUBLIC "-//W3C//DTD SVG 20010904//EN"
 "http://www.w3.org/TR/2001/REC-SVG-20010904/DTD/svg10.dtd">
<svg version="1.0" xmlns="http://www.w3.org/2000/svg"
 width="655.000000pt" height="636.000000pt" viewBox="0 0 655.000000 636.000000"
 preserveAspectRatio="xMidYMid meet">
<metadata>
Created by potrace 1.13, written by Peter Selinger 2001-2015
</metadata>
<g transform="translate(0.000000,636.000000) scale(0.100000,-0.100000)"
fill="#000000" stroke="none">
<path d="M2206 5754 c-3 -8 -16 -14 -30 -14 -13 0 -26 -6 -29 -14 -3 -7 -16
-13 -29 -12 -15 1 -38 -13 -66 -41 -24 -23 -57 -48 -73 -55 -16 -7 -29 -17
-29 -21 0 -5 -4 -6 -9 -3 -5 3 -26 -10 -47 -29 -21 -19 -43 -35 -49 -35 -7 0
-23 -14 -36 -31 -13 -18 -32 -40 -41 -51 -9 -11 -20 -33 -23 -49 -4 -16 -10
-27 -14 -24 -8 5 -27 -15 -75 -77 -15 -21 -32 -36 -36 -33 -4 3 -15 -6 -23
-19 -9 -13 -23 -31 -32 -40 -9 -9 -13 -16 -8 -16 4 0 -2 -7 -14 -15 -12 -8
-24 -28 -28 -43 -3 -16 -21 -45 -40 -65 -19 -21 -35 -42 -35 -47 0 -6 -4 -10
-10 -10 -5 0 -10 -6 -10 -13 0 -7 -16 -30 -35 -52 -19 -22 -35 -46 -35 -53 0
-7 -4 -10 -10 -7 -5 3 -10 3 -10 -2 0 -4 -18 -28 -40 -52 -22 -24 -38 -46 -35
-50 2 -4 -13 -26 -33 -48 -41 -46 -93 -109 -103 -124 -3 -6 -19 -11 -34 -13
-16 -2 -31 -8 -33 -15 -2 -6 -8 -11 -13 -11 -6 0 -19 -9 -31 -20 -12 -11 -29
-20 -37 -20 -9 0 -22 -9 -29 -20 -7 -11 -18 -20 -25 -20 -7 0 -18 -9 -25 -20
-10 -17 -10 -23 2 -36 13 -13 16 -12 26 6 6 11 14 18 19 16 4 -3 15 4 25 15
17 21 18 21 48 -20 25 -34 28 -44 17 -57 -7 -8 -18 -13 -26 -10 -7 3 -19 -3
-25 -14 -15 -24 -38 -26 -38 -5 0 8 5 15 11 15 6 0 17 7 25 15 13 12 12 15 -5
25 -27 14 -31 13 -31 -7 0 -9 -3 -13 -6 -10 -4 4 -20 -5 -36 -18 -32 -27 -44
-30 -53 -15 -3 6 -10 10 -15 10 -12 0 -30 -58 -24 -75 4 -8 2 -15 -2 -15 -5 0
-29 -18 -54 -40 -25 -22 -48 -40 -52 -40 -5 0 -8 -7 -8 -15 0 -8 -5 -15 -11
-15 -5 0 -8 -4 -4 -9 3 -5 0 -13 -6 -16 -5 -4 -8 -13 -5 -21 3 -8 1 -14 -4
-14 -8 0 -134 -147 -136 -159 0 -3 -7 -19 -14 -36 -7 -16 -14 -34 -14 -40 -1
-5 -20 -30 -44 -54 -23 -24 -44 -52 -47 -62 -4 -11 -11 -19 -16 -19 -17 0 1
-19 33 -36 28 -15 31 -14 52 5 l22 21 -2 -28 c-1 -19 5 -33 17 -40 15 -10 19
-9 19 3 0 8 4 15 10 15 5 0 7 7 3 15 -3 9 -1 15 5 13 10 -3 72 56 72 68 0 11
45 49 86 74 22 13 43 30 47 37 4 7 15 13 22 13 8 0 15 7 15 15 0 8 5 15 10 15
15 0 60 50 60 66 0 8 4 14 10 14 5 0 7 7 3 16 -4 10 -1 15 8 14 26 -4 39 0 39
11 0 7 9 20 21 30 11 10 18 22 15 27 -3 6 1 13 9 16 8 3 14 9 13 13 -2 4 5 19
15 33 9 13 17 21 17 16 0 -5 9 1 20 14 11 13 20 19 20 15 0 -5 6 0 14 10 8 11
12 23 10 26 -2 4 5 14 16 24 11 10 17 22 14 26 -3 5 0 9 7 9 9 0 9 3 0 14 -8
10 -9 16 -1 21 5 3 10 16 10 28 0 13 7 32 15 43 8 12 12 23 10 26 -2 2 14 23
35 47 22 24 40 49 40 56 0 7 7 18 15 25 10 9 15 9 15 1 0 -6 -5 -11 -11 -11
-6 0 -9 -7 -5 -15 3 -8 1 -15 -5 -15 -6 0 -7 -5 -4 -10 4 -6 -1 -22 -9 -35 -9
-14 -14 -25 -11 -25 2 0 -6 -30 -20 -67 -13 -37 -22 -70 -19 -75 3 -4 1 -8 -5
-8 -7 0 -7 -8 -1 -24 6 -17 5 -26 -3 -30 -9 -3 -8 -5 1 -5 7 -1 10 -6 7 -12
-4 -6 -8 -33 -10 -60 -2 -34 -9 -58 -24 -75 -11 -13 -21 -27 -21 -30 0 -3 -16
-20 -35 -38 -19 -19 -35 -39 -35 -45 0 -7 -4 -10 -9 -7 -4 3 -16 -3 -26 -14
-11 -13 -21 -16 -25 -10 -6 10 -26 -5 -65 -51 -25 -30 -55 -91 -49 -101 2 -3
0 -9 -6 -13 -5 -3 -10 -14 -10 -23 0 -9 -7 -29 -14 -44 -8 -15 -11 -30 -6 -33
5 -3 -3 -18 -17 -33 -14 -15 -37 -45 -50 -67 -14 -22 -37 -52 -51 -67 -14 -16
-23 -28 -19 -28 4 0 -12 -17 -35 -37 -24 -21 -49 -44 -56 -50 -7 -7 -17 -13
-21 -13 -4 0 -14 -12 -22 -27 -7 -16 -26 -43 -42 -62 -41 -49 -51 -79 -33
-106 13 -20 13 -25 -1 -44 -9 -13 -12 -29 -7 -39 4 -9 8 -21 8 -27 1 -11 63
-102 83 -123 7 -7 25 -16 40 -18 15 -3 30 -9 33 -13 10 -15 35 -17 48 -4 8 7
15 34 18 60 2 25 7 49 11 52 14 10 15 71 2 71 -7 0 -9 3 -6 7 4 3 2 12 -4 19
-7 9 -5 18 8 32 10 10 19 25 21 33 7 35 35 80 74 120 47 48 110 104 118 104 3
0 20 10 38 23 17 13 32 20 32 15 0 -4 4 -2 9 5 4 7 18 14 29 15 12 1 22 6 22
12 0 6 12 12 26 13 15 1 33 10 40 20 10 12 13 13 14 3 0 -11 4 -10 20 4 10 9
26 15 35 12 8 -4 15 -3 15 2 0 4 15 8 32 9 18 0 34 6 36 12 3 8 8 8 18 -1 8
-7 14 -7 14 -1 0 9 37 25 53 23 8 -1 13 2 71 54 45 40 40 37 87 40 l35 2 -20
-41 c-17 -35 -72 -85 -94 -86 -20 -1 -43 -55 -47 -112 -7 -99 -16 -158 -24
-158 -4 0 -7 -13 -6 -30 1 -16 -2 -30 -7 -30 -4 0 -7 -3 -6 -7 3 -14 -13 -73
-21 -73 -7 0 -8 -5 -15 -70 -3 -19 -5 -37 -6 -40 -1 -3 -1 -17 0 -31 0 -14 -6
-31 -14 -39 -9 -7 -16 -18 -16 -25 0 -6 -11 -33 -25 -59 -13 -25 -22 -46 -18
-46 3 0 0 -7 -7 -15 -7 -8 -9 -15 -5 -15 4 0 2 -6 -4 -13 -6 -8 -8 -17 -4 -20
3 -4 1 -12 -4 -19 -12 -15 -12 -82 0 -94 4 -4 1 -17 -6 -28 -14 -23 -14 -31
-2 -61 10 -23 63 -75 76 -75 5 0 9 -5 9 -11 0 -14 47 -57 75 -69 27 -11 80 36
64 57 -9 10 -8 13 1 13 9 0 9 4 2 13 -6 7 -7 18 -2 26 4 8 6 20 3 27 -2 6 0
15 6 18 5 4 7 18 5 32 -3 15 -6 32 -7 38 -1 6 -9 16 -17 23 -8 7 -10 13 -5 13
6 0 11 8 12 18 8 106 56 275 89 313 8 8 14 21 14 27 0 18 159 174 170 167 5
-3 10 -1 10 5 0 6 8 14 17 17 48 19 163 138 155 161 -2 7 -1 12 3 12 10 0 38
-30 28 -30 -4 0 1 -7 12 -16 11 -8 19 -16 17 -17 -2 -1 -1 -10 2 -19 9 -28 13
-42 15 -51 0 -4 15 -19 31 -35 17 -15 33 -36 35 -47 2 -11 4 -21 5 -22 2 -2 3
-6 4 -10 7 -29 19 -53 26 -53 5 0 7 -9 5 -19 -2 -11 3 -22 11 -25 9 -3 12 -10
9 -16 -3 -5 -1 -10 5 -10 7 0 9 -7 6 -15 -3 -9 1 -18 9 -21 16 -6 21 -34 6
-34 -4 0 -6 -11 -4 -24 5 -26 40 -64 52 -56 3 2 13 10 21 17 8 7 19 13 24 12
5 0 12 5 16 11 6 9 13 9 31 0 13 -7 26 -16 29 -19 3 -3 35 -21 73 -40 37 -19
67 -39 67 -44 0 -6 3 -7 7 -4 3 4 12 2 20 -4 7 -6 13 -8 13 -4 0 7 50 -32 109
-85 18 -16 38 -30 42 -30 5 0 9 -4 9 -10 0 -10 27 -42 97 -116 24 -24 40 -44
37 -44 -4 0 14 -20 40 -44 25 -25 46 -49 46 -55 0 -5 8 -16 18 -23 9 -7 18
-22 20 -32 2 -11 11 -30 19 -43 8 -12 11 -23 7 -23 -5 0 -4 -4 1 -8 10 -7 28
-36 52 -84 7 -14 20 -29 28 -32 20 -7 19 -28 -2 -47 -18 -16 -26 -25 -70 -82
-12 -15 -24 -27 -26 -25 -10 7 -56 -61 -67 -100 -7 -23 -17 -42 -22 -42 -5 0
-6 -4 -3 -10 3 -5 1 -10 -5 -10 -7 0 -10 -7 -6 -15 3 -8 1 -15 -4 -15 -6 0
-10 -6 -10 -13 0 -7 -14 -23 -31 -37 -18 -14 -47 -40 -66 -57 -19 -18 -37 -33
-40 -33 -3 0 -16 -10 -28 -22 -13 -13 -29 -28 -37 -34 -26 -22 -56 -62 -51
-68 4 -3 -3 -14 -15 -24 -21 -18 -22 -31 -7 -65 4 -10 2 -24 -6 -34 -17 -20
-17 -16 0 -36 11 -14 11 -17 0 -17 -8 0 -4 -8 10 -19 13 -10 21 -23 17 -29 -3
-6 2 -15 11 -21 10 -6 14 -11 8 -11 -12 0 56 -62 107 -97 31 -21 41 -23 53
-13 8 7 12 16 9 21 -3 5 -1 9 4 9 10 0 11 5 13 78 1 28 3 52 4 52 1 0 11 -8
22 -18 14 -11 20 -27 18 -45 -2 -15 1 -27 5 -27 5 0 39 -29 75 -65 36 -36 70
-63 75 -60 6 4 10 1 10 -6 0 -8 4 -8 15 1 12 10 15 10 15 -1 0 -10 4 -9 16 3
10 10 18 39 21 75 7 102 6 121 -9 137 -18 17 -15 56 7 109 8 20 15 40 16 44 1
15 42 52 50 47 5 -3 9 0 9 6 0 22 91 95 104 83 3 -3 6 -1 6 5 0 7 6 12 14 12
8 0 21 6 28 13 7 7 16 14 21 15 10 2 33 21 64 55 33 34 47 30 107 -28 25 -25
52 -45 60 -45 8 0 18 -9 21 -20 3 -11 12 -20 19 -20 7 0 26 -11 42 -25 15 -13
30 -22 32 -20 2 2 26 -3 52 -11 27 -8 70 -16 95 -17 25 -1 45 -6 45 -11 0 -5
3 -7 6 -3 3 3 16 2 29 -3 13 -5 26 -6 29 -3 3 4 23 7 44 7 21 1 50 9 65 19 14
9 33 17 42 17 8 0 15 7 15 15 0 8 6 15 13 15 7 0 18 9 25 21 7 12 16 18 19 15
3 -3 14 4 24 16 11 11 19 17 19 12 0 -5 5 -1 11 9 6 9 14 15 19 12 5 -3 11 -1
15 5 4 6 10 8 14 5 5 -2 21 7 35 20 15 14 31 25 37 25 5 0 12 8 16 18 6 17 63
103 74 112 4 3 10 16 14 29 4 13 36 52 71 86 35 34 64 68 64 74 0 7 4 10 9 7
4 -3 16 3 26 14 10 11 21 18 25 15 3 -2 14 9 24 26 9 16 24 29 32 29 8 0 14 4
14 10 0 5 7 7 15 4 8 -4 15 -2 15 3 0 6 17 17 38 25 29 11 44 12 67 4 43 -16
78 -37 71 -43 -5 -5 25 -55 49 -79 9 -9 100 -55 115 -58 11 -2 54 -36 46 -36
-5 0 -1 -9 9 -20 10 -11 24 -20 30 -20 7 0 18 -7 25 -15 7 -8 19 -15 26 -15
18 0 75 -50 69 -61 -3 -4 -1 -10 4 -13 5 -4 8 -17 7 -31 -2 -17 3 -26 15 -30
11 -4 19 -12 19 -19 0 -19 47 -56 80 -63 17 -3 30 -10 30 -15 0 -5 4 -7 9 -3
5 3 12 1 16 -5 4 -6 10 -8 15 -5 5 3 11 1 14 -3 14 -24 116 36 116 67 0 6 5
11 11 11 5 0 8 4 4 9 -3 5 -1 12 5 16 6 4 7 12 1 24 -5 9 -8 28 -6 42 11 74
15 90 29 124 9 20 15 39 14 43 -3 13 14 72 21 72 3 0 8 12 9 27 2 29 15 50 61
102 16 19 33 46 36 59 3 13 12 31 20 39 8 8 13 24 11 36 -2 12 1 27 6 33 4 7
9 28 10 48 1 20 6 36 11 36 6 0 5 5 -1 13 -7 8 -6 16 3 24 10 10 16 9 24 -1
14 -16 87 -36 156 -42 28 -3 58 -7 68 -9 9 -2 17 1 17 5 0 5 8 9 18 9 39 1 52
5 52 14 0 5 7 7 15 3 8 -3 15 -1 15 4 0 6 8 10 18 10 9 0 29 11 44 25 15 14
31 25 35 25 13 0 126 120 120 127 -4 3 4 16 18 28 13 13 21 26 17 29 -3 4 -2
10 4 14 15 10 45 92 39 103 -4 5 -2 9 2 9 5 0 10 16 11 37 2 20 5 39 7 43 2 4
-5 17 -17 29 -26 29 -41 16 -44 -40 -3 -49 -40 -143 -68 -173 -12 -12 -31 -33
-42 -47 -34 -38 -74 -69 -90 -69 -8 0 -14 -4 -14 -10 0 -5 -3 -9 -7 -8 -5 1
-24 -2 -43 -7 -56 -13 -92 -13 -135 2 -22 8 -48 16 -58 18 -32 7 -72 49 -69
72 3 17 44 59 92 93 14 10 80 115 80 127 0 7 5 13 11 13 6 0 9 7 5 15 -3 8 -1
15 5 15 6 0 7 4 4 10 -3 6 -2 10 2 10 5 0 9 8 10 18 2 51 8 92 13 92 11 0 -3
90 -16 101 -16 13 -36 1 -40 -23 -12 -76 -16 -93 -26 -100 -7 -4 -10 -10 -6
-13 8 -9 -50 -125 -62 -125 -6 0 -10 -5 -10 -12 0 -34 -95 -86 -145 -80 -20 3
-116 3 -188 0 -25 -1 -44 5 -60 19 -12 11 -31 24 -42 27 -22 7 -71 96 -53 96
7 0 7 4 0 13 -5 6 -12 21 -14 32 -1 11 -8 25 -15 30 -7 6 -13 16 -15 24 -2 7
-14 25 -28 40 -14 15 -38 45 -55 66 -16 21 -38 45 -47 54 -10 8 -18 20 -18 27
0 12 -48 72 -98 121 -18 18 -29 33 -25 33 4 0 -2 7 -13 15 -10 8 -16 15 -12
15 11 0 -54 65 -66 65 -14 0 -56 41 -50 48 3 3 -13 15 -35 28 -23 12 -41 26
-41 30 0 18 -55 59 -100 74 -34 11 -60 26 -57 32 3 5 -1 14 -9 21 -8 7 -14 10
-14 6 0 -3 -17 6 -37 22 -48 36 -63 50 -63 61 0 5 -9 15 -21 23 -11 8 -31 23
-42 33 -12 11 -42 35 -66 55 -24 21 -49 42 -55 48 -7 6 -22 15 -34 18 -12 4
-22 12 -22 17 0 5 -3 8 -7 8 -21 -3 -43 2 -55 14 -17 17 -58 40 -77 43 -8 2
-18 9 -22 16 -5 7 -9 9 -9 4 0 -5 -7 -3 -15 4 -8 7 -15 9 -15 5 0 -4 -7 -2
-15 5 -8 7 -15 10 -15 6 0 -3 -10 3 -22 14 -13 10 -27 20 -33 20 -5 1 -18 8
-27 17 -9 8 -31 23 -50 32 -18 10 -37 26 -42 37 -5 11 -29 35 -54 54 -25 19
-55 44 -67 55 -36 35 -115 97 -115 90 0 -6 -77 56 -140 113 -14 12 -28 22 -32
22 -3 0 -30 16 -59 35 -29 19 -56 32 -61 29 -4 -3 -8 0 -8 6 0 6 -4 9 -8 6 -7
-4 -39 20 -97 73 -36 34 -125 130 -125 135 0 11 -63 61 -72 59 -4 -2 -7 0 -7
5 3 20 -2 32 -15 32 -16 0 -23 6 -81 75 -61 71 -93 103 -123 122 -15 10 -33
26 -40 35 -7 10 -18 18 -24 18 -6 0 -21 10 -33 23 -13 12 -44 38 -71 57 -26
19 -53 41 -61 48 -7 7 -13 10 -13 6 0 -4 -10 2 -22 14 -13 11 -30 22 -38 24
-16 3 -25 9 -62 42 -15 14 -37 27 -48 31 -11 3 -20 11 -20 16 0 5 -4 9 -9 9
-5 0 -26 16 -45 35 -20 19 -41 35 -46 35 -5 0 -7 9 -5 20 2 11 -1 20 -7 20 -5
0 -7 7 -4 16 7 19 -21 57 -35 48 -5 -3 -9 2 -9 10 0 19 -40 57 -52 50 -4 -3
-8 -1 -8 4 0 16 -38 21 -44 6z m19 -210 c8 -1 24 -11 36 -23 13 -12 26 -22 31
-22 4 -1 13 -3 18 -4 6 -1 19 -3 30 -4 11 0 20 -6 20 -12 0 -6 -7 -9 -15 -5
-9 3 -15 0 -15 -9 0 -18 1 -18 -45 1 -23 9 -40 12 -44 6 -8 -13 -42 1 -65 27
-11 11 -27 21 -37 21 -12 0 -16 5 -13 14 3 8 11 13 18 10 7 -3 19 2 26 11 10
12 16 13 27 3 8 -7 21 -13 28 -14z m218 -152 c-7 -2 -13 -8 -13 -14 0 -6 -3
-8 -6 -5 -4 3 -15 2 -25 -4 -11 -5 -19 -6 -19 -1 0 6 9 12 20 15 24 6 26 20 5
41 -8 8 -15 20 -15 26 0 7 15 -3 33 -22 19 -20 27 -34 20 -36z m183 -80 c-29
-4 -65 23 -43 31 6 2 25 -3 40 -12 l29 -16 -26 -3z m89 -42 c3 -6 -1 -7 -9 -4
-18 7 -21 14 -7 14 6 0 13 -4 16 -10z m175 -176 c0 -2 -9 0 -20 6 -11 6 -20
13 -20 16 0 2 9 0 20 -6 11 -6 20 -13 20 -16z m-1520 -260 c0 -4 -11 -17 -25
-30 -14 -13 -25 -26 -25 -29 0 -3 -14 -20 -31 -38 -26 -28 -25 -23 13 35 24
37 49 67 56 68 6 0 12 -3 12 -6z m1874 -113 c6 -8 24 -22 40 -32 28 -17 28
-17 7 -31 -11 -7 -21 -18 -21 -24 0 -17 -27 -37 -34 -26 -3 6 1 12 9 16 22 8
18 35 -7 45 -15 5 -18 10 -9 15 9 6 9 11 -1 23 -15 18 -19 43 -10 57 4 6 8 2
10 -9 2 -11 9 -26 16 -34z m151 -101 c8 -13 114 -84 139 -93 12 -5 17 -14 13
-27 -6 -24 22 -43 50 -34 14 5 15 4 4 -4 -13 -9 -13 -13 -1 -27 16 -19 70 -49
70 -39 0 4 10 -2 23 -14 13 -12 26 -20 29 -16 4 3 20 -2 37 -11 18 -9 35 -13
40 -11 12 8 111 -73 111 -90 0 -8 20 -35 45 -61 44 -45 44 -46 25 -60 -17 -12
-23 -12 -45 4 -13 10 -25 22 -25 27 0 4 -11 1 -24 -8 -15 -10 -27 -12 -31 -6
-3 6 -2 10 4 10 15 0 6 31 -12 42 -10 5 -17 5 -17 0 0 -5 -16 -9 -35 -9 -26 0
-32 3 -25 12 13 16 -12 38 -37 33 -10 -1 -24 1 -31 6 -7 4 -19 3 -27 -4 -12
-10 -15 -9 -15 3 0 9 5 19 10 22 22 13 -10 35 -36 25 -19 -8 -26 -6 -34 10 -7
12 -7 20 -1 20 5 0 -7 18 -26 40 -35 38 -36 39 -52 21 -17 -20 -91 -40 -91
-25 0 4 18 24 41 45 35 32 38 37 22 44 -10 5 -30 9 -46 10 -34 3 -49 15 -18
15 30 0 54 23 38 39 -6 6 -21 11 -34 11 -14 0 -23 6 -23 15 0 8 -5 15 -10 15
-6 0 -10 6 -8 14 2 8 -4 21 -13 28 -10 7 -20 24 -24 36 -6 21 -5 23 13 13 12
-6 24 -16 27 -21z m-85 -41 c0 -6 -4 -7 -10 -4 -5 3 -10 11 -10 16 0 6 5 7 10
4 6 -3 10 -11 10 -16z m-2200 -69 c0 -5 -2 -10 -4 -10 -3 0 -8 5 -11 10 -3 6
-1 10 4 10 6 0 11 -4 11 -10z m2530 -285 c0 -8 -7 -15 -15 -15 -26 0 -18 20
13 29 1 1 2 -6 2 -14z m-2836 -97 c-10 -13 -19 -24 -19 -24 0 -1 -11 -5 -24
-9 -35 -11 -22 14 19 37 44 23 47 23 24 -4z m-83 -51 c-10 -9 -11 -8 -5 6 3
10 9 15 12 12 3 -3 0 -11 -7 -18z m3325 -6 c21 -16 22 -20 9 -31 -14 -11 -16
-11 -15 6 1 3 -9 14 -22 24 -30 25 -4 26 28 1z m94 -26 c11 -10 20 -15 20 -11
0 4 6 4 13 -1 6 -4 14 -8 17 -8 3 0 19 -10 35 -23 17 -13 26 -22 20 -19 -57
21 -75 30 -75 39 0 5 -4 7 -8 4 -5 -3 -18 3 -29 14 -15 14 -23 16 -32 7 -8 -8
-11 -7 -11 5 0 21 23 17 50 -7z m-1047 -41 c3 -4 0 -13 -8 -20 -8 -8 -12 -21
-9 -29 7 -16 -13 -20 -33 -7 -10 7 -10 14 0 35 11 25 36 35 50 21z m1212 -76
c12 -3 27 2 35 10 12 13 15 13 19 1 5 -17 52 -59 66 -59 22 -1 90 -73 90 -96
1 -13 4 -26 8 -30 4 -4 7 -16 7 -26 0 -10 5 -18 10 -18 6 0 10 -7 10 -16 0
-13 -3 -14 -14 -5 -8 7 -27 14 -43 15 -15 2 -31 4 -34 5 -8 1 -5 34 5 49 5 8
1 19 -10 27 -21 16 -29 18 -62 15 -15 -1 -34 11 -55 33 -18 18 -39 37 -47 41
-43 20 -64 36 -48 36 9 0 20 10 23 21 4 12 10 17 14 12 3 -5 15 -12 26 -15z
m-1207 -30 c-2 -7 -9 -19 -16 -26 -7 -8 -10 -18 -7 -22 3 -5 0 -18 -7 -30 -23
-36 -28 -21 -8 25 11 25 17 45 14 45 -3 0 -2 5 1 10 9 14 25 12 23 -2z m-224
-73 c-4 -8 -11 -12 -16 -9 -6 4 -5 10 3 15 19 12 19 11 13 -6z m-999 -25 c-3
-5 -1 -11 5 -15 5 -3 9 -18 9 -33 -1 -21 -2 -22 -6 -7 -3 11 -14 27 -25 36
-22 18 -17 42 7 33 8 -4 13 -10 10 -14z m1105 -5 c-9 -11 -9 -15 -1 -15 7 0 9
-4 6 -10 -3 -5 -10 -10 -14 -10 -12 0 -9 34 3 42 17 12 20 9 6 -7z m-830 -21
c0 -8 -5 -12 -10 -9 -6 4 -8 11 -5 16 9 14 15 11 15 -7z m2188 -33 c2 -7 -5
-15 -17 -18 -12 -3 -21 -10 -21 -16 0 -6 -3 -7 -6 -4 -4 4 -1 13 6 22 10 12
10 15 -1 15 -11 0 -11 2 1 10 18 12 32 8 38 -9z m87 9 c-3 -5 -12 -10 -18 -10
-7 0 -6 4 3 10 19 12 23 12 15 0z m208 -28 c21 -19 22 -32 1 -32 -8 0 -13 4
-9 9 3 6 -5 20 -17 32 -24 23 -5 16 25 -9z m-1407 -7 c-9 -9 -16 -13 -16 -8 0
12 22 34 28 28 2 -2 -3 -11 -12 -20z m-1228 -130 c-3 -3 -22 8 -43 24 -22 16
-45 27 -52 24 -8 -3 -11 2 -8 17 2 13 -1 32 -7 44 -6 11 17 -7 52 -42 34 -35
60 -65 58 -67z m2654 56 c-2 -16 -11 -32 -21 -36 -12 -5 -13 -3 -4 6 6 6 9 18
6 26 -4 11 9 30 23 33 0 0 -1 -13 -4 -29z m-87 10 c3 -5 2 -12 -3 -15 -5 -3
-9 1 -9 9 0 17 3 19 12 6z m-2449 -37 c-5 -12 -9 -14 -20 -5 -7 6 -16 8 -19 4
-4 -3 -7 -1 -7 6 0 7 7 11 15 8 8 -4 17 -2 21 4 9 15 17 2 10 -17z m-83 -9
c-3 -9 -8 -14 -10 -11 -3 3 -2 9 2 15 9 16 15 13 8 -4z m2772 -15 c-3 -5 -12
-7 -20 -3 -21 7 -19 13 6 13 11 0 18 -4 14 -10z m-1515 -30 c-9 -17 -30 -28
-30 -16 0 16 15 36 26 36 12 0 12 -4 4 -20z m-2422 -40 c-7 -11 -17 -20 -21
-20 -5 0 -7 -6 -4 -13 5 -12 -47 -62 -64 -62 -5 0 -15 -9 -23 -20 -29 -38 -16
-3 16 43 44 64 65 85 77 78 5 -4 12 -2 16 4 3 5 8 10 11 10 2 0 -1 -9 -8 -20z
m4100 -60 c-11 -16 -38 -17 -38 -1 0 14 23 29 36 24 10 -4 10 -9 2 -23z
m-2830 0 c-16 -25 -38 -34 -38 -14 0 8 4 13 9 10 5 -3 14 1 21 9 18 21 22 18
8 -5z m1385 5 c-3 -9 -8 -14 -10 -11 -3 3 -2 9 2 15 9 16 15 13 8 -4z m-1399
-52 c4 -5 12 -9 17 -9 5 -1 14 -2 19 -3 6 0 10 -6 10 -12 0 -20 26 -39 38 -27
7 7 10 3 8 -16 -2 -14 1 -26 7 -26 6 0 7 -3 3 -7 -4 -4 -25 -8 -46 -9 -32 -1
-38 2 -35 18 2 10 -7 30 -21 45 -13 14 -24 32 -24 39 0 15 12 18 24 7z m-1483
-22 c-7 -5 -10 -14 -7 -20 4 -6 3 -11 -2 -11 -6 0 -18 -22 -28 -50 -10 -27
-23 -50 -28 -50 -16 0 -44 20 -28 20 6 0 12 6 12 14 0 8 3 16 8 18 4 2 19 22
35 46 15 23 33 42 40 42 8 0 8 -3 -2 -9z m4429 -26 c0 -16 8 -27 43 -66 9 -10
14 -19 10 -19 -5 0 6 -11 22 -25 17 -13 35 -29 41 -34 7 -5 14 -8 17 -5 6 6
111 -100 115 -116 1 -6 4 -20 5 -31 2 -11 10 -25 18 -30 8 -5 10 -9 5 -9 -4 0
-1 -12 9 -26 16 -25 16 -25 -3 -15 -15 8 -22 8 -25 -2 -3 -9 -10 -7 -24 6 -18
15 -22 16 -32 3 -7 -8 -10 -20 -6 -26 8 -14 35 -13 35 2 0 6 8 4 19 -6 11 -10
26 -16 32 -14 7 2 20 -9 29 -26 9 -17 21 -40 27 -51 15 -26 27 -58 25 -67 -1
-5 2 -8 8 -8 6 0 10 -6 10 -13 0 -7 16 -21 35 -31 19 -10 34 -21 33 -25 0 -3
1 -8 2 -11 14 -37 2 -51 -21 -24 -7 9 -23 20 -36 25 -29 11 -75 81 -59 91 8 6
7 8 -1 8 -7 0 -13 9 -13 20 0 11 -4 20 -8 20 -5 0 -14 11 -20 24 -6 13 -21 26
-34 28 -13 3 -31 9 -40 13 -11 4 -24 -1 -38 -18 l-22 -25 -20 20 c-13 13 -29
18 -44 15 -28 -5 -25 1 7 17 34 17 42 52 18 75 l-21 19 21 12 c12 6 35 9 51 6
38 -6 57 15 32 37 -17 15 -21 17 -43 17 -8 0 -8 4 -1 13 7 8 6 16 -4 25 -8 7
-14 10 -14 6 0 -3 -6 -2 -12 3 -7 5 -25 8 -40 7 -19 -2 -28 2 -28 12 0 20 -27
29 -44 15 -15 -13 -27 -5 -20 14 3 7 -8 18 -25 25 -33 13 -37 20 -20 37 8 8 4
17 -13 34 l-23 23 28 -18 c27 -17 29 -17 42 1 7 10 10 22 6 28 -17 21 -19 55
-5 55 8 0 14 -7 14 -15z m-4350 -25 c0 -5 -5 -10 -11 -10 -5 0 -7 5 -4 10 3 6
8 10 11 10 2 0 4 -4 4 -10z m4248 -25 c1 -1 -13 -1 -32 -1 -26 1 -32 4 -24 13
9 11 34 6 56 -12z m-3438 -14 c0 -5 -7 -14 -15 -21 -8 -7 -13 -16 -10 -20 9
-15 -7 -40 -25 -40 -31 0 -33 19 -8 55 21 32 58 48 58 26z m3290 -111 c0 -5
-5 -10 -11 -10 -5 0 -7 5 -4 10 3 6 8 10 11 10 2 0 4 -4 4 -10z m-3371 -34 c9
-10 8 -15 -4 -20 -10 -4 -15 1 -15 14 0 24 4 25 19 6z m936 -16 c-9 -14 -54
-17 -59 -4 -3 7 4 14 17 16 27 5 49 -1 42 -12z m-1817 -40 c4 0 8 -11 8 -25 2
-19 -1 -22 -10 -12 -7 7 -13 16 -13 21 -1 5 -7 13 -15 18 -9 7 -8 8 5 4 10 -3
22 -6 25 -6z m892 6 c0 -3 -4 -8 -10 -11 -5 -3 -10 -1 -10 4 0 6 5 11 10 11 6
0 10 -2 10 -4z m870 -52 c0 -12 -39 23 -44 39 -3 14 1 13 20 -8 13 -14 24 -28
24 -31z m2870 40 c0 -2 -12 -4 -26 -4 -14 0 -23 4 -20 9 6 8 46 4 46 -5z
m-2750 -4 c0 -5 -5 -10 -11 -10 -5 0 -7 5 -4 10 3 6 8 10 11 10 2 0 4 -4 4
-10z m180 -23 c0 -5 -6 -5 -12 0 -7 4 -26 6 -42 4 -20 -2 -26 1 -21 9 4 6 16
10 26 7 10 -3 22 -1 25 5 6 10 24 -8 24 -25z m-1177 -19 c6 -4 4 -12 -5 -22
-9 -8 -18 -12 -22 -9 -3 4 -6 0 -6 -7 0 -10 -3 -11 -11 -3 -8 8 -6 20 7 42 11
19 20 26 23 19 2 -7 9 -16 14 -20z m1082 -46 c-3 -3 -11 0 -18 7 -9 10 -8 11
6 5 10 -3 15 -9 12 -12z m-1134 -26 c-6 -7 -8 -16 -4 -19 3 -4 -4 -15 -16 -26
-12 -11 -18 -22 -12 -25 9 -6 6 -50 -5 -67 -2 -4 2 -10 8 -12 9 -4 9 -8 3 -14
-5 -4 -12 -17 -13 -28 -2 -11 -8 -21 -13 -23 -5 -2 -9 -8 -9 -14 0 -13 -30
-42 -36 -35 -3 3 -1 14 5 26 6 11 7 22 3 25 -14 9 -3 95 15 117 5 8 10 26 9
42 -1 15 2 27 6 27 4 0 8 7 8 15 0 8 9 15 20 15 11 0 20 5 20 11 0 5 5 7 10 4
8 -5 8 -11 1 -19z m2555 -7 c-8 -12 -12 -27 -10 -34 9 -21 -11 -25 -24 -5 -10
16 -7 22 15 39 33 27 38 26 19 0z m-1406 -54 c11 -13 10 -14 -4 -9 -9 3 -16
10 -16 15 0 13 6 11 20 -6z m1471 -12 c13 -17 13 -17 -6 -3 -11 8 -22 16 -24
17 -2 2 0 3 6 3 6 0 17 -8 24 -17z m-1155 -78 c-4 -15 -2 -25 5 -25 7 0 8 -11
4 -30 -4 -20 -3 -30 5 -30 9 0 10 -10 5 -32 -3 -18 -8 -39 -9 -46 -3 -16 -26
-39 -26 -27 0 6 -4 4 -9 -4 -8 -12 -12 -12 -25 2 -9 9 -16 20 -15 24 1 4 -7
12 -18 17 -24 11 -29 78 -5 69 18 -8 62 36 62 62 0 18 17 45 28 45 2 0 1 -11
-2 -25z m-145 -45 c-7 -22 -24 -30 -38 -19 -9 8 -10 15 0 31 9 16 9 22 -1 25
-6 3 -10 9 -7 13 9 14 52 -33 46 -50z m3029 -6 c0 -2 -7 -4 -15 -4 -8 0 -15 4
-15 10 0 5 7 7 15 4 8 -4 15 -8 15 -10z m-1315 -45 c-4 -5 -13 -9 -21 -9 -12
0 -12 2 -2 14 14 15 32 11 23 -5z m1290 -42 c11 -2 30 -8 42 -15 12 -7 27 -12
33 -12 16 0 42 -28 36 -38 -5 -9 23 -35 43 -40 6 -1 19 -4 29 -6 9 -1 26 -7
36 -11 17 -8 18 -9 2 -20 -29 -22 -116 7 -136 45 -6 11 -18 20 -26 20 -17 0
-101 46 -122 67 -11 11 -9 15 10 22 13 5 25 5 28 0 3 -5 15 -10 25 -12z
m-2775 -30 c0 -13 -6 -32 -14 -43 -14 -18 -15 -17 -12 11 2 17 4 36 5 43 2 22
21 13 21 -11z m-1604 -93 c0 -30 -3 -30 -30 -1 -15 16 -18 27 -11 34 15 15 41
-5 41 -33z m1719 37 c3 -5 1 -12 -5 -16 -5 -3 -10 1 -10 9 0 18 6 21 15 7z
m2955 -61 c0 -5 -7 -7 -15 -4 -8 4 -15 8 -15 10 0 2 7 4 15 4 8 0 15 -4 15
-10z m-2969 -60 c-7 -4 -11 -11 -10 -16 1 -5 1 -22 0 -38 -1 -24 -3 -27 -16
-16 -13 11 -13 15 -3 21 10 7 10 9 1 9 -7 0 -12 5 -10 11 3 18 42 55 46 45 2
-4 -2 -12 -8 -16z m2576 -27 c12 -17 12 -22 1 -29 -7 -4 -10 -4 -6 1 4 4 0 15
-10 24 -9 9 -24 25 -32 36 -15 19 -14 19 9 4 14 -8 31 -25 38 -36z m-2514 -49
c11 -11 -3 -24 -18 -18 -8 4 -12 10 -9 15 6 11 18 12 27 3z m2045 -44 c-9 -13
-16 -16 -23 -9 -7 7 -5 13 5 19 24 15 31 11 18 -10z m125 -45 c-3 -9 1 -15 8
-15 12 0 12 -2 0 -9 -9 -6 -10 -11 -2 -15 6 -4 8 -12 5 -18 -4 -6 0 -14 7 -19
11 -7 12 -12 2 -28 -10 -16 -9 -22 3 -32 8 -7 19 -21 25 -31 8 -16 7 -17 -14
-9 -19 7 -28 5 -40 -10 -10 -11 -17 -22 -17 -25 0 -3 -9 -17 -20 -31 -11 -14
-20 -23 -20 -19 0 4 -6 1 -14 -6 -7 -7 -11 -19 -8 -27 10 -27 -67 43 -82 74
-7 16 -19 42 -26 57 -7 15 -10 36 -7 47 3 12 1 24 -4 27 -14 8 60 72 99 85 24
8 36 8 47 -1 11 -9 18 -7 32 8 20 21 35 19 26 -3z m84 -93 c-9 -10 -14 -22
-10 -26 4 -4 0 -4 -9 -1 -16 6 -34 36 -20 34 25 -4 33 3 27 24 -7 21 -6 21 11
5 17 -16 17 -19 1 -36z m-1765 -14 c22 22 35 12 35 -24 0 -41 27 -71 48 -54 7
5 15 7 18 4 6 -7 -80 -94 -93 -94 -4 0 -10 -7 -14 -15 -3 -8 -12 -15 -21 -15
-8 0 -15 -5 -15 -12 0 -9 -3 -9 -12 0 -8 8 -19 8 -44 -3 -18 -7 -35 -11 -38
-7 -3 3 -6 0 -6 -6 0 -9 -46 -26 -75 -27 -5 0 -12 -2 -15 -5 -10 -10 -170 -88
-170 -83 0 3 10 14 21 24 18 15 19 20 7 24 -8 3 -15 12 -15 19 0 17 27 9 27
-8 1 -6 8 -2 18 9 9 11 26 20 36 20 17 0 58 54 55 73 -5 28 1 35 19 20 19 -17
53 -32 65 -30 4 1 7 -3 7 -9 0 -7 11 0 25 15 14 15 23 31 20 36 -3 4 -1 10 5
12 5 1 10 18 12 36 1 17 6 32 10 32 14 0 49 44 44 56 -7 18 5 25 21 12 10 -8
17 -8 25 0z m1962 -30 c-5 -7 -10 -21 -11 -31 -2 -10 -8 -28 -15 -40 -7 -12
-13 -28 -14 -35 -5 -27 -49 -142 -55 -142 -9 0 -59 51 -59 60 0 4 3 10 7 14 4
4 8 30 10 58 1 28 7 54 13 58 6 4 12 16 12 27 2 15 8 18 25 15 13 -2 23 -9 23
-16 1 -6 9 -1 19 11 10 12 21 19 25 16 3 -3 8 2 12 11 4 9 9 15 11 12 3 -3 1
-11 -3 -18z m-2495 -40 c-9 -16 -14 -19 -17 -9 -2 7 2 17 9 22 20 13 21 11 8
-13z m-29 -28 c0 -5 -4 -10 -9 -10 -5 0 -11 -9 -14 -20 -3 -11 -10 -20 -17
-20 -7 0 -5 11 7 30 17 30 33 39 33 20z m1180 -18 c0 -15 -49 -66 -56 -59 -4
4 -2 7 4 7 7 0 12 12 12 26 0 14 4 23 9 19 5 -3 12 -1 16 5 8 12 15 13 15 2z
m1125 -52 c-4 -6 -1 -18 6 -26 18 -22 -8 -38 -29 -18 -12 13 -12 17 3 34 19
21 30 27 20 10z m-1480 -40 c10 9 16 7 24 -8 7 -13 7 -19 -2 -19 -7 -1 -26 -3
-44 -6 -45 -6 -59 5 -37 31 15 18 19 19 32 6 10 -11 18 -12 27 -4z m74 -16
c-6 -8 -15 -12 -18 -8 -3 4 0 9 7 11 6 3 9 10 6 15 -4 7 -2 8 5 4 9 -6 9 -11
0 -22z m1355 14 c-3 -4 -11 -5 -19 -1 -21 7 -19 12 4 10 11 0 18 -5 15 -9z
m-1132 -40 c-5 -7 -13 -24 -17 -38 -9 -31 -120 -138 -151 -146 -12 -3 -31 -1
-41 4 -21 12 -46 1 -83 -37 -30 -30 -69 -50 -88 -44 -9 4 -10 9 -2 18 7 9 6
16 -6 26 -15 12 -19 11 -31 -8 -13 -19 -18 -20 -41 -10 -15 6 -33 17 -40 24
-10 10 -18 10 -35 2 -17 -10 -24 -8 -38 10 -17 21 -17 23 -1 39 17 18 45 22
58 9 4 -4 14 2 23 12 17 19 49 24 68 9 8 -6 19 -2 33 12 18 18 22 19 35 6 13
-13 19 -13 42 -1 17 9 30 11 33 5 4 -6 16 -1 28 10 11 11 24 20 27 20 3 0 15
8 26 19 12 11 28 17 41 13 13 -3 24 1 30 11 8 16 11 15 29 -2 20 -18 21 -18
55 15 33 33 68 49 46 22z m1128 -44 c0 -9 -24 -29 -38 -32 -10 -2 -10 2 0 18
12 18 38 28 38 14z m-1360 -188 c0 -8 -7 -16 -15 -20 -12 -4 -13 -2 -2 14 14
24 17 25 17 6z m-310 -17 c0 -6 -4 -7 -10 -4 -5 3 -10 11 -10 16 0 6 5 7 10 4
6 -3 10 -11 10 -16z m-598 4 c-19 -7 -35 -48 -46 -113 -2 -14 -5 -27 -6 -30
-1 -3 -2 -8 -1 -12 0 -5 -4 -8 -10 -8 -6 0 -9 -7 -5 -15 3 -8 1 -15 -4 -15 -7
0 -22 -31 -23 -50 0 -3 -11 -13 -23 -23 -22 -17 -24 -17 -41 0 -24 24 -24 64
-1 81 10 7 18 20 18 28 0 8 5 14 10 14 6 0 10 7 10 15 0 8 5 15 11 15 6 0 9 6
6 14 -3 8 1 17 10 20 9 4 13 9 9 13 -3 4 4 17 16 30 12 13 17 23 12 23 -21 1
17 16 43 17 15 1 22 -1 15 -4z m-150 -81 c-7 -2 -12 -10 -12 -18 0 -8 -5 -14
-11 -14 -5 0 -8 -4 -5 -9 4 -5 -6 -23 -21 -39 -59 -62 -73 -80 -73 -93 -1 -8
-7 -25 -14 -38 -9 -17 -14 -20 -18 -9 -3 7 0 22 8 32 7 11 11 23 8 28 -3 5 1
15 10 21 9 7 17 22 19 34 2 13 15 37 30 55 14 18 36 46 48 62 20 26 23 27 32
10 7 -13 7 -19 -1 -22z m1005 31 c-4 -3 -1 -11 6 -17 7 -6 10 -10 8 -9 -2 2
-10 -2 -16 -7 -9 -8 -15 -6 -19 6 -4 10 -1 21 6 26 16 9 24 10 15 1z m-1210
-10 c-5 -8 18 -34 28 -32 24 4 18 -13 -20 -56 -39 -43 -43 -51 -30 -61 8 -6
15 -23 15 -36 0 -21 -5 -25 -26 -25 -33 0 -39 16 -20 52 13 26 13 31 1 45 -11
12 -12 19 -3 28 6 6 12 21 13 34 3 35 16 58 32 58 8 0 12 -3 10 -7z m-89 -108
c-3 -3 -9 2 -12 12 -6 14 -5 15 5 6 7 -7 10 -15 7 -18z m19 -171 c9 -8 10 -15
3 -19 -6 -4 -7 -12 -3 -18 4 -7 -9 2 -29 18 -20 17 -37 33 -37 36 -2 10 53 -3
66 -17z m293 -96 c0 -5 -3 -8 -7 -8 -14 1 -43 27 -43 38 0 6 -6 12 -12 15 -10
3 -10 8 1 21 14 16 16 14 38 -21 12 -21 23 -41 23 -45z"/>
</g>
</svg>
