<?xml version="1.0" standalone="no"?>
<!DOCTYPE svg PUBLIC "-//W3C//DTD SVG 20010904//EN"
 "http://www.w3.org/TR/2001/REC-SVG-20010904/DTD/svg10.dtd">
<svg version="1.0" xmlns="http://www.w3.org/2000/svg"
 width="802.000000pt" height="765.000000pt" viewBox="0 0 802.000000 765.000000"
 preserveAspectRatio="xMidYMid meet">
<metadata>
Created by potrace 1.13, written by Peter Selinger 2001-2015
</metadata>
<g transform="translate(0.000000,765.000000) scale(0.100000,-0.100000)"
fill="#000000" stroke="none">
<path d="M2810 7359 c0 -6 -7 -9 -15 -5 -8 3 -15 2 -15 -2 0 -4 -16 -24 -35
-46 -19 -21 -35 -47 -35 -57 0 -16 -3 -18 -19 -10 -14 8 -22 7 -31 -4 -7 -8
-16 -12 -21 -9 -5 3 -9 0 -9 -5 0 -6 -4 -11 -10 -11 -5 0 -18 -7 -27 -15 -10
-8 -22 -16 -28 -17 -5 0 -15 -8 -22 -17 -6 -9 -15 -16 -20 -17 -4 0 -21 -6
-36 -12 -16 -7 -32 -12 -36 -12 -11 0 -61 -58 -61 -70 0 -5 -6 -10 -13 -10
-20 0 -80 -57 -72 -69 3 -7 -2 -11 -14 -11 -12 0 -21 -7 -21 -16 0 -8 -4 -13
-9 -10 -5 3 -14 -1 -21 -9 -7 -8 -9 -15 -5 -15 5 0 1 -8 -8 -18 -10 -10 -14
-21 -11 -24 11 -11 -27 -56 -56 -66 -16 -6 -43 -23 -60 -39 -18 -15 -36 -27
-41 -26 -5 2 -9 0 -9 -5 0 -18 -132 -74 -181 -77 -33 -2 -90 -27 -114 -50 -41
-40 -54 -79 -57 -171 -1 -55 29 -114 57 -114 9 0 12 -6 9 -15 -3 -8 -2 -20 2
-27 4 -7 9 -21 9 -32 1 -10 10 -25 20 -32 10 -8 32 -25 48 -40 16 -15 41 -30
56 -34 27 -7 29 -20 17 -95 -2 -11 0 -24 4 -30 4 -5 11 -31 14 -57 4 -27 11
-48 17 -48 5 0 9 -5 9 -11 0 -6 13 -28 29 -48 15 -20 26 -42 24 -48 -3 -7 1
-13 8 -13 7 0 9 -3 6 -7 -4 -3 -2 -12 4 -20 9 -9 8 -13 0 -13 -6 0 -2 -9 9
-20 12 -12 18 -25 15 -30 -4 -6 -1 -10 4 -10 6 0 11 -5 11 -11 0 -6 9 -18 21
-28 12 -10 23 -33 26 -56 3 -22 9 -45 14 -51 5 -6 6 -14 2 -17 -3 -4 -1 -7 5
-7 7 0 12 -7 12 -15 0 -8 4 -15 8 -15 5 0 8 -10 7 -22 -1 -13 4 -27 11 -33 15
-11 27 -65 15 -65 -5 0 -6 -17 -3 -37 3 -21 5 -57 6 -80 1 -24 4 -43 7 -43 10
0 5 -54 -6 -62 -6 -5 -5 -8 4 -8 8 0 11 -6 7 -16 -3 -8 10 -49 29 -90 20 -42
33 -79 30 -85 -4 -5 -2 -9 4 -9 8 0 5 -59 -5 -69 -2 -2 1 -10 7 -17 5 -7 12
-25 15 -40 3 -16 10 -34 16 -41 6 -7 7 -13 2 -13 -5 0 -1 -5 9 -11 9 -6 15
-14 12 -20 -4 -5 -1 -9 5 -9 6 0 9 -4 5 -9 -3 -5 -1 -12 5 -16 6 -4 9 -29 6
-58 -2 -28 0 -58 4 -67 29 -59 42 -110 28 -110 -5 0 -6 -6 -2 -12 10 -16 13
-35 19 -133 5 -98 8 -115 22 -123 5 -4 9 -15 7 -24 -1 -10 2 -18 7 -18 9 0 50
-79 55 -105 1 -5 4 -24 7 -41 3 -18 17 -53 32 -78 15 -25 24 -46 20 -46 -10 0
58 -60 68 -60 10 0 -10 -29 -50 -73 -16 -18 -28 -38 -25 -45 2 -7 0 -12 -6
-12 -7 0 -32 -40 -38 -62 -1 -5 -3 -10 -4 -13 -1 -3 -3 -8 -4 -12 -1 -5 -12
-30 -24 -57 -12 -27 -22 -51 -22 -55 0 -14 -102 -111 -111 -105 -6 3 -18 -1
-27 -9 -25 -22 -93 -50 -124 -51 -16 0 -28 -3 -28 -6 0 -3 -24 -5 -53 -5 -28
0 -65 -3 -82 -8 -16 -5 -50 -10 -74 -12 -24 -2 -51 -11 -59 -19 -14 -14 -14
-17 0 -33 16 -17 18 -22 18 -42 0 -5 24 -33 53 -63 57 -59 147 -133 147 -122
0 3 7 1 15 -6 8 -7 15 -9 15 -6 0 4 7 0 16 -8 8 -9 20 -14 25 -11 5 4 9 2 9
-4 0 -5 9 -13 21 -16 23 -8 89 31 89 53 0 18 10 15 31 -9 16 -19 18 -19 28 -2
6 10 11 14 11 10 0 -9 23 9 48 37 9 10 30 32 46 47 16 16 26 29 22 29 -4 0 4
11 18 24 15 13 26 28 26 35 0 6 4 11 8 11 4 0 25 16 46 36 21 20 43 37 50 38
6 1 17 5 24 9 6 5 17 5 22 2 6 -3 10 -2 10 3 0 5 22 19 49 32 28 13 52 29 55
36 3 8 12 11 19 8 8 -3 17 2 21 11 3 9 10 14 15 11 5 -4 24 9 42 28 18 19 36
33 40 30 5 -3 26 5 49 16 22 11 40 17 40 13 0 -4 6 2 14 12 9 13 18 16 32 10
10 -5 24 -9 29 -9 10 -1 10 -10 0 -68 -3 -16 -7 -41 -9 -56 -2 -15 -13 -49
-25 -74 -11 -26 -21 -50 -21 -53 0 -4 -6 -12 -12 -19 -7 -7 -26 -31 -43 -52
-67 -85 -158 -156 -207 -160 -51 -5 -58 -7 -58 -16 0 -4 -9 -8 -20 -8 -11 0
-20 -4 -20 -8 0 -5 -10 -8 -22 -7 -13 1 -27 0 -33 -3 -5 -3 -21 -7 -35 -8
-119 -8 -109 -5 -121 -47 -6 -21 -9 -40 -7 -41 2 -1 18 -14 36 -29 19 -15 38
-25 43 -21 5 3 8 2 7 -3 -3 -8 8 -23 45 -64 9 -10 17 -21 17 -24 1 -21 18 -37
56 -55 24 -12 46 -25 48 -29 4 -6 66 -7 74 -1 1 2 7 3 12 4 6 0 15 7 19 15 6
9 11 10 15 2 4 -6 18 -9 31 -7 14 3 27 1 30 -4 9 -14 38 1 65 33 14 17 41 47
60 68 54 57 62 68 55 79 -3 6 -1 10 4 10 6 0 11 6 11 13 0 8 9 24 20 37 11 13
20 29 20 36 0 7 16 29 35 48 19 20 35 40 35 46 0 5 9 12 20 15 11 3 20 11 20
16 0 5 6 9 13 9 7 0 23 14 36 31 13 17 25 28 29 25 3 -3 20 14 37 39 18 24 34
42 37 40 6 -7 68 61 68 75 0 5 3 9 8 9 20 -3 32 2 32 16 0 23 34 18 58 -10 12
-14 22 -30 22 -35 0 -6 5 -10 10 -10 6 0 10 -7 10 -15 0 -8 4 -15 10 -15 5 0
9 -4 7 -9 -1 -5 6 -16 15 -23 9 -7 18 -19 20 -27 2 -8 9 -21 16 -30 39 -48 81
-111 87 -132 4 -13 13 -28 19 -34 17 -18 55 -69 58 -79 8 -25 185 -186 205
-186 7 0 23 -11 36 -24 13 -13 34 -27 46 -31 12 -4 20 -9 17 -12 -3 -4 2 -12
12 -19 16 -12 14 -15 -19 -43 -20 -17 -40 -42 -43 -56 -4 -14 -10 -23 -15 -21
-5 3 -20 -9 -34 -27 -14 -17 -36 -45 -51 -62 -23 -27 -24 -30 -8 -39 20 -12
45 -14 52 -4 3 4 15 9 25 11 11 1 26 6 33 10 6 5 17 5 22 2 6 -3 10 0 10 8 0
11 11 13 42 11 23 -2 51 -7 62 -11 30 -10 66 -10 66 0 0 4 5 5 12 1 6 -4 27
-7 47 -6 20 1 43 -5 53 -15 10 -9 18 -13 18 -10 0 9 91 -42 117 -66 12 -11 29
-17 37 -14 8 3 17 3 20 -1 4 -3 14 -7 24 -8 9 -1 31 -5 47 -9 17 -4 35 -8 41
-9 7 -1 18 -7 26 -14 8 -6 25 -9 38 -7 13 2 29 0 37 -6 8 -8 13 -8 13 -1 0 6
17 5 46 -4 26 -7 50 -11 54 -9 5 3 11 1 15 -5 4 -7 12 -7 25 0 10 6 21 6 24 2
5 -8 56 -15 124 -16 23 -1 42 -4 42 -8 0 -5 39 -17 110 -32 12 -2 15 -20 15
-87 0 -46 -2 -88 -5 -94 -2 -5 -5 -41 -6 -80 -1 -38 -3 -72 -4 -75 -1 -3 -2
-8 -1 -12 0 -5 -3 -8 -7 -8 -5 0 -9 -6 -9 -12 -1 -30 -15 -82 -26 -102 -6 -11
-12 -23 -12 -26 -1 -3 -8 -18 -15 -35 -7 -16 -13 -33 -12 -37 1 -5 -2 -8 -7
-8 -10 0 -44 -91 -36 -98 2 -2 -3 -11 -11 -19 -8 -9 -13 -21 -11 -27 2 -6 -9
-24 -25 -39 -15 -15 -28 -25 -28 -21 0 4 -12 -3 -26 -17 -14 -13 -26 -23 -27
-21 -1 2 -24 -7 -51 -19 -27 -11 -55 -22 -62 -23 -7 -1 -16 -5 -19 -8 -4 -3
-19 -3 -33 1 -30 8 -31 8 -84 -3 -21 -5 -38 -11 -38 -15 0 -3 -21 -5 -47 -3
-27 1 -90 4 -140 5 l-93 3 -19 -40 c-13 -28 -15 -43 -8 -48 6 -3 12 -17 14
-30 2 -13 8 -25 13 -26 6 -2 8 -7 5 -11 -2 -5 11 -20 30 -36 19 -15 35 -33 35
-41 0 -8 5 -15 10 -15 6 -1 14 -2 19 -3 4 0 25 -16 46 -34 21 -17 43 -32 49
-33 6 0 20 -2 31 -4 62 -11 96 -12 101 -3 3 5 12 7 20 4 8 -3 14 0 14 6 0 7 5
6 15 -2 26 -22 86 -20 127 3 21 12 38 28 38 34 0 7 3 12 8 12 20 -3 32 2 32
16 0 8 4 15 9 15 5 0 48 38 96 85 48 47 91 83 96 79 5 -3 9 2 9 10 0 14 6 18
26 15 4 0 10 3 13 8 8 11 61 43 84 50 9 3 17 9 17 14 0 5 7 9 15 9 8 0 15 4
15 9 0 5 10 13 23 17 12 4 28 16 36 27 14 20 15 20 21 2 7 -19 -18 -97 -32
-103 -4 -2 -4 -10 -1 -18 3 -8 0 -14 -6 -14 -6 0 -10 -3 -9 -7 3 -16 -24 -68
-47 -89 -14 -13 -25 -26 -25 -30 0 -12 -124 -130 -160 -151 -19 -12 -53 -25
-75 -29 -22 -5 -42 -9 -45 -9 -20 -5 -60 -30 -60 -38 0 -6 -3 -8 -6 -5 -3 4
-17 0 -32 -8 -17 -8 -30 -10 -37 -4 -7 6 -15 7 -18 3 -4 -3 -7 -2 -7 3 0 13
-110 10 -118 -3 -7 -11 -46 -21 -107 -27 -16 -2 -32 -5 -35 -6 -3 -1 -14 -2
-25 -1 -11 1 -27 -3 -35 -9 -13 -8 -13 -13 -2 -31 11 -18 12 -23 1 -30 -11 -6
-10 -9 4 -15 9 -3 14 -10 11 -15 -6 -10 38 -57 93 -99 17 -13 29 -28 27 -32
-3 -4 12 -17 33 -28 21 -11 52 -29 68 -39 17 -10 33 -16 38 -14 4 2 7 0 7 -4
0 -8 15 -12 58 -15 6 -1 12 -6 12 -12 0 -6 5 -5 12 2 7 7 20 12 29 12 10 0 25
7 33 15 12 12 20 13 35 5 15 -7 23 -6 34 5 8 8 17 12 20 9 9 -9 77 16 77 28 0
6 3 8 7 5 3 -4 13 -1 21 6 13 11 14 9 1 -10 -8 -13 -17 -23 -20 -23 -12 0 -18
-44 -8 -56 6 -7 6 -15 1 -18 -5 -3 -8 -24 -6 -46 1 -22 -2 -40 -7 -40 -6 0 -7
-5 -3 -11 3 -6 1 -15 -6 -19 -10 -6 -4 -14 20 -29 23 -14 36 -17 41 -9 4 6 12
7 19 3 6 -4 19 0 28 8 9 8 42 26 73 41 43 20 65 39 93 79 20 28 40 51 44 51
16 -3 52 20 49 30 -5 13 18 37 27 29 3 -4 6 -1 6 6 0 7 7 11 15 8 25 -10 131
89 164 155 11 21 17 25 27 17 15 -12 48 16 59 51 4 12 20 36 36 52 16 17 27
34 24 37 -5 9 70 92 77 86 5 -5 50 71 48 81 -1 4 3 10 10 14 6 4 12 18 13 31
0 13 4 26 7 29 9 8 28 43 52 93 13 26 26 47 30 47 5 0 8 5 8 10 0 21 65 97 93
110 16 7 39 23 52 36 12 12 26 20 29 17 3 -4 6 0 6 7 0 7 3 10 7 7 3 -4 15 1
26 10 10 10 21 17 23 16 6 -4 79 31 82 40 2 4 7 5 12 2 4 -2 23 10 42 28 18
17 40 33 48 35 8 2 18 9 22 15 4 7 8 8 8 3 0 -5 9 3 21 18 11 14 29 26 40 26
10 0 19 4 19 9 0 8 22 30 125 127 13 12 30 24 39 27 9 4 16 11 16 17 0 5 7 10
15 10 15 0 42 25 89 83 17 20 33 34 36 32 4 -2 14 9 24 26 9 16 22 29 28 29
11 0 68 60 68 73 0 4 7 7 15 7 8 0 20 10 26 23 7 12 24 34 38 48 47 47 106
121 104 129 -2 5 13 25 32 45 19 19 35 40 35 45 0 6 5 10 11 10 5 0 8 4 5 9
-3 5 1 24 9 42 8 19 14 30 15 25 0 -6 5 -5 12 2 11 11 13 18 22 67 2 11 6 27
10 35 3 8 8 29 10 46 1 17 6 36 10 42 3 6 8 43 10 82 3 52 0 73 -9 76 -11 4
-11 10 1 32 12 23 11 30 -8 64 -12 21 -25 38 -29 38 -7 0 -20 35 -23 61 -3 34
-102 149 -146 169 -39 17 -68 35 -91 56 -12 10 -23 17 -25 14 -2 -3 -12 2 -22
10 -10 8 -44 38 -77 65 -33 28 -71 59 -84 70 -14 11 -54 48 -89 83 -35 34 -67
62 -73 62 -5 0 -9 6 -9 14 0 8 -14 24 -31 37 -16 13 -45 37 -62 52 -62 54
-111 92 -113 87 -1 -3 -16 7 -33 22 -17 16 -36 29 -43 30 -7 2 -21 11 -33 21
-11 10 -33 28 -48 40 -16 12 -60 52 -98 89 -44 42 -75 65 -84 61 -9 -3 -15 1
-15 8 0 8 -14 23 -31 34 -16 11 -46 39 -65 63 -20 23 -42 42 -50 42 -17 0 -44
23 -44 37 0 4 -11 17 -25 27 -13 10 -22 22 -19 27 3 5 1 9 -5 9 -5 0 -16 6
-23 13 -59 55 -201 172 -210 172 -4 0 -16 7 -26 15 -58 48 -138 115 -142 120
-17 17 -110 90 -115 90 -12 0 -101 74 -102 85 -1 9 -118 135 -255 275 -26 26
-45 50 -42 52 2 3 -12 21 -31 41 -20 21 -32 37 -28 37 4 0 0 5 -9 11 -10 5
-25 25 -34 44 -9 19 -25 37 -35 40 -11 4 -17 10 -14 15 3 5 0 12 -7 17 -7 4
-26 27 -41 51 -34 53 -36 54 -155 178 -100 104 -181 194 -175 194 5 0 -83 77
-119 105 -8 6 -32 26 -54 45 -22 19 -65 55 -95 80 -77 64 -101 89 -95 99 3 5
-1 12 -10 15 -8 3 -12 10 -9 16 3 5 1 10 -5 10 -6 0 -9 4 -6 9 3 5 -5 16 -19
25 -14 9 -25 22 -25 30 0 7 -9 21 -20 31 -11 10 -18 20 -16 23 3 2 -12 20 -32
41 -20 20 -43 48 -49 64 -7 15 -17 27 -23 27 -5 0 -10 4 -10 9 0 6 -13 24 -30
42 -16 18 -28 34 -26 36 9 9 -251 253 -269 253 -6 0 -28 16 -50 35 -22 19 -50
35 -62 35 -13 0 -23 4 -23 10 0 5 -3 9 -7 9 -5 -1 -11 0 -15 1 -5 1 -11 3 -15
4 -5 1 -18 7 -30 14 -13 7 -23 10 -23 8 0 -3 -18 1 -39 9 -22 7 -42 11 -45 8
-3 -4 -6 -2 -6 4 0 6 -11 14 -25 17 l-25 6 25 28 c29 31 31 38 10 46 -13 4
-14 10 -5 26 6 11 7 20 3 20 -4 0 -2 5 4 11 12 12 6 49 -8 49 -5 0 -7 12 -5
26 5 25 -15 59 -27 48 -6 -6 -32 37 -30 47 3 12 -87 102 -104 104 -33 3 -63
16 -63 28 0 7 -9 18 -20 25 -12 7 -20 8 -20 2 0 -6 -13 -5 -34 4 -19 8 -39 10
-47 5 -7 -4 -18 -4 -24 1 -6 5 -27 7 -47 6 -21 -2 -35 1 -32 5 3 5 6 24 8 42
3 25 -2 37 -15 45 -14 9 -19 9 -19 1z m200 -428 c0 -5 12 -8 26 -6 25 2 36 -5
71 -48 10 -12 9 -18 -1 -27 -10 -8 -15 -8 -18 0 -2 6 -23 13 -47 15 -50 5 -89
39 -70 62 13 15 39 18 39 4z m-1080 -411 c0 -5 -2 -10 -4 -10 -3 0 -8 5 -11
10 -3 6 -1 10 4 10 6 0 11 -4 11 -10z m110 -19 c0 -5 -7 -14 -15 -21 -16 -14
-18 -10 -9 14 6 17 24 22 24 7z m2006 -420 c-3 -5 1 -12 10 -15 9 -4 14 -9 11
-12 -3 -4 1 -13 9 -21 8 -9 13 -18 10 -20 -2 -3 -18 10 -34 28 -29 32 -32 49
-11 49 6 0 8 -4 5 -9z m54 -128 c0 -8 9 -24 21 -34 21 -18 21 -18 -8 -15 -15
2 -31 4 -35 5 -3 0 -5 12 -3 26 1 14 -1 25 -5 25 -4 0 -7 7 -7 14 0 11 5 13
19 5 10 -5 18 -17 18 -26z m-2023 11 c10 -10 12 -18 6 -22 -5 -4 -12 -15 -16
-25 -4 -10 -11 -15 -17 -12 -6 4 -5 12 5 21 11 12 12 20 5 35 -13 23 -4 25 17
3z m150 -149 c-4 -8 -2 -17 4 -20 5 -4 6 -12 2 -18 -4 -7 -8 -15 -8 -19 0 -15
-15 -20 -15 -5 0 10 -4 17 -10 17 -5 0 -7 7 -4 15 4 9 1 15 -7 15 -8 0 -3 7
11 14 33 18 33 18 27 1z m2288 -275 c4 -6 11 -8 16 -5 8 6 13 -8 10 -27 0 -4
13 -18 29 -32 16 -13 25 -26 20 -28 -5 -2 -11 -14 -12 -28 -2 -14 -15 -38 -30
-55 -16 -17 -24 -33 -18 -39 4 -4 6 -14 4 -21 -3 -7 -1 -16 5 -20 6 -3 11 -17
11 -31 0 -21 -4 -24 -25 -21 -26 3 -63 43 -46 49 16 5 21 119 6 124 -7 3 -11
14 -8 25 4 12 -2 25 -13 34 -15 11 -16 14 -4 15 13 0 13 1 0 10 -12 8 -11 10
8 10 17 0 22 6 22 25 0 25 14 33 25 15z m50 -359 c3 -5 1 -12 -5 -16 -5 -3
-10 1 -10 9 0 18 6 21 15 7z m-55 -21 c-6 -11 -16 -20 -22 -20 -6 0 -3 9 7 20
10 11 20 20 22 20 2 0 -1 -9 -7 -20z m51 -100 c33 -36 48 -58 54 -82 2 -5 3
-9 5 -10 1 -2 3 -12 5 -23 2 -11 9 -21 14 -23 16 -5 13 -22 -2 -22 -8 0 -18
-10 -24 -22 -13 -28 4 -71 24 -64 18 7 30 -24 13 -34 -7 -4 -20 -5 -30 -3 -24
6 -34 -24 -11 -36 10 -6 21 -7 25 -4 3 3 6 2 6 -4 0 -16 37 -10 59 9 11 9 28
14 39 11 17 -4 19 -10 12 -33 -6 -19 -4 -34 5 -47 13 -17 14 -17 37 3 13 12
29 19 36 17 6 -3 12 1 12 8 0 10 3 10 12 1 10 -10 10 -14 0 -21 -10 -6 -10
-14 -3 -34 9 -22 8 -27 -4 -27 -8 0 -15 -5 -15 -11 0 -5 -4 -8 -9 -4 -6 3 -15
-3 -21 -14 -7 -14 -7 -22 1 -26 7 -5 6 -12 -3 -23 -8 -10 -15 -29 -17 -44 -2
-22 3 -29 24 -34 19 -5 30 -1 40 12 7 10 11 22 9 26 -2 4 0 9 6 13 5 3 10 2
10 -4 0 -11 19 -9 38 3 11 6 10 13 -3 32 -8 13 -11 24 -6 24 5 0 13 -5 16 -10
4 -6 10 -8 15 -5 10 6 20 -30 15 -55 -2 -10 3 -21 12 -24 12 -5 13 -9 4 -20
-17 -20 22 -67 41 -48 10 10 10 16 0 32 -29 47 3 70 39 28 11 -11 19 -18 19
-14 0 4 7 0 15 -8 12 -12 13 -20 6 -35 -8 -14 -7 -22 3 -30 19 -16 43 13 27
32 -11 14 -5 27 11 27 5 0 7 -4 4 -9 -4 -5 -3 -11 1 -13 5 -1 17 -21 28 -43
22 -44 40 -67 47 -59 3 2 17 -11 32 -31 15 -19 36 -35 47 -35 10 0 19 -6 19
-12 1 -8 6 -6 14 4 14 20 26 14 26 -13 0 -9 -10 -19 -21 -22 -16 -4 -20 -11
-16 -26 3 -11 -1 -22 -8 -25 -14 -5 -15 -23 -2 -43 5 -7 4 -13 -2 -13 -6 0
-13 -11 -17 -25 -3 -14 -11 -25 -18 -25 -12 -1 23 -30 36 -30 4 0 8 6 8 14 0
7 12 26 26 41 16 17 22 31 16 37 -11 11 -4 48 9 48 5 0 8 3 7 8 -4 19 17 42
39 42 21 0 24 4 21 30 -3 35 7 37 46 5 25 -21 30 -22 43 -9 8 7 19 14 24 14 6
0 17 7 26 15 13 14 13 18 -2 41 -9 14 -23 28 -31 31 -8 3 -14 11 -14 19 0 8
-6 14 -12 14 -9 0 -8 3 2 10 11 7 19 3 30 -15 8 -14 20 -25 26 -25 7 0 22 -8
35 -19 19 -16 25 -16 37 -5 7 8 11 18 8 23 -4 5 -1 11 6 13 10 4 9 9 -3 21
-11 11 -20 12 -26 6 -7 -7 -19 1 -38 25 -22 29 -25 39 -15 51 10 12 7 17 -17
32 -30 19 -44 60 -14 43 32 -19 115 -100 102 -100 -8 0 -2 -9 13 -21 14 -11
24 -24 22 -28 -3 -4 4 -12 15 -19 14 -9 19 -9 19 -1 0 7 11 0 25 -15 14 -15
25 -29 25 -32 0 -8 28 -35 37 -36 22 -2 71 -32 67 -40 -9 -14 16 -37 32 -31 8
3 14 1 14 -4 0 -20 -13 -21 -43 -3 -23 14 -34 16 -44 8 -21 -17 -15 -27 27
-44 22 -9 40 -22 40 -29 0 -18 32 -28 41 -13 4 7 3 18 -2 24 -6 8 -4 14 7 18
21 8 47 -24 33 -40 -6 -7 -4 -16 7 -25 14 -11 18 -11 29 4 15 21 28 10 15 -13
-7 -13 -6 -20 6 -24 8 -3 13 -10 9 -15 -3 -5 4 -12 15 -16 24 -7 75 -55 75
-70 0 -5 10 -14 23 -21 29 -14 42 -27 18 -18 -11 4 -21 2 -26 -6 -6 -9 5 -26
33 -51 23 -21 43 -36 45 -34 3 2 11 -2 19 -10 13 -13 16 -13 29 0 19 19 17 19
40 -6 19 -22 19 -22 -4 -8 -19 12 -24 12 -32 -1 -6 -10 -3 -20 11 -33 15 -14
17 -23 10 -30 -7 -7 -3 -17 15 -32 l24 -21 -37 1 c-21 0 -48 -6 -60 -13 -12
-8 -27 -11 -33 -7 -5 3 -10 1 -10 -5 0 -7 -7 -9 -16 -6 -9 4 -22 2 -28 -2 -17
-13 -77 -32 -71 -23 2 5 -2 14 -10 21 -8 7 -15 9 -15 5 0 -4 -7 -1 -17 6 -13
11 -17 11 -20 2 -4 -10 -10 -10 -24 -2 -11 5 -17 14 -14 20 4 5 0 16 -8 24
-13 12 -17 11 -35 -5 -20 -19 -21 -19 -32 15 -7 20 -17 35 -23 34 -25 -3 -38
1 -32 11 3 6 -1 13 -10 16 -13 5 -14 9 -4 15 10 6 10 11 0 23 -7 9 -17 13 -22
11 -4 -3 -16 7 -26 22 -23 37 -35 44 -50 31 -9 -7 -10 -15 -2 -29 15 -29 -5
-24 -46 12 -19 17 -35 28 -35 24 0 -3 -5 -3 -10 0 -8 5 -8 11 0 20 17 20 -15
42 -37 24 -15 -13 -15 -12 0 12 17 26 17 26 -19 58 -21 17 -45 31 -54 31 -28
0 -30 11 -9 38 15 20 17 27 7 34 -7 4 -8 8 -2 8 5 0 16 -6 22 -12 10 -10 15
-10 21 1 7 11 11 9 20 -8 7 -11 19 -21 28 -21 8 0 31 -9 50 -21 18 -12 40 -18
48 -15 8 3 16 -3 20 -15 8 -24 22 -24 37 1 7 11 17 20 22 20 5 0 6 -3 3 -7 -9
-8 22 -43 38 -43 16 0 27 27 14 35 -5 4 -7 10 -4 15 7 12 -22 33 -36 25 -8 -6
-8 -2 0 13 9 18 7 22 -22 33 -17 6 -35 11 -38 11 -4 -1 -16 10 -29 23 -12 13
-28 21 -36 18 -17 -6 -42 18 -36 35 7 23 -28 25 -47 3 -20 -23 -41 -30 -22 -7
10 12 8 17 -7 25 -16 8 -22 7 -28 -7 -4 -9 -6 -20 -6 -24 3 -13 -16 -9 -32 7
-15 16 -45 11 -48 -9 0 -6 -2 -15 -3 -21 -2 -5 -3 -14 -4 -19 0 -5 -7 -4 -14
2 -19 16 -37 0 -32 -28 2 -13 -1 -30 -7 -37 -9 -11 -5 -27 18 -71 16 -31 35
-61 42 -67 10 -8 9 -15 -8 -32 l-20 -22 30 -16 c16 -9 30 -23 30 -32 0 -15 -2
-15 -18 0 -13 12 -22 13 -37 5 -11 -6 -17 -7 -13 -3 7 7 -28 45 -41 45 -12 -1
-41 -28 -41 -39 0 -6 -7 -11 -15 -11 -8 0 -15 4 -15 8 0 12 -32 11 -47 0 -7
-6 -14 -5 -18 2 -5 8 -11 8 -21 -1 -7 -6 -12 -15 -9 -19 3 -5 -15 -28 -41 -53
-35 -35 -52 -44 -74 -42 -30 3 -49 -22 -35 -45 3 -5 2 -10 -3 -10 -5 0 -7 -11
-4 -25 3 -18 0 -25 -11 -25 -8 0 -21 -14 -30 -31 -9 -19 -17 -27 -21 -20 -10
16 -36 -12 -36 -38 0 -23 -7 -26 -30 -11 -21 13 -44 -8 -29 -26 8 -10 8 -14 0
-14 -6 0 -10 -3 -10 -7 5 -33 -4 -54 -30 -68 -16 -8 -33 -25 -37 -37 -12 -40
-28 -47 -47 -21 -14 18 -15 23 -4 23 8 0 18 8 21 18 3 9 13 28 21 42 12 20 12
27 1 38 -13 13 -46 7 -46 -9 0 -5 -9 -9 -20 -9 -20 0 -25 -13 -20 -55 1 -11 6
-25 12 -32 13 -16 2 -33 -20 -32 -11 0 -12 3 -4 6 17 7 15 16 -8 46 l-21 26
-37 -21 -37 -20 31 28 c17 16 29 35 27 42 -3 6 2 12 10 12 17 0 30 27 21 42
-4 6 1 8 14 4 23 -8 34 5 38 42 2 13 10 32 18 41 21 23 20 47 0 55 -16 6 -62
-40 -56 -57 1 -5 -2 -6 -7 -3 -9 6 -26 -22 -23 -37 1 -4 -9 -11 -22 -16 -13
-5 -26 -20 -30 -33 -5 -14 -9 -18 -13 -10 -2 6 -9 10 -14 6 -15 -9 -10 33 6
46 8 7 12 16 9 21 -3 5 0 9 5 9 6 0 11 7 11 15 0 8 5 15 10 15 6 0 10 8 8 17
-2 13 4 18 22 18 37 1 54 14 39 31 -9 11 -9 14 0 14 7 0 9 5 5 11 -3 6 -1 15
7 19 10 7 10 11 0 24 -14 17 -41 11 -41 -10 0 -8 -4 -14 -10 -14 -5 0 -7 -6
-4 -14 7 -17 -27 -31 -37 -15 -4 8 -12 2 -23 -17 -8 -16 -15 -23 -16 -15 0 8
-3 11 -7 8 -3 -4 -12 -2 -19 4 -10 8 -11 16 -3 31 6 11 8 26 5 34 -3 8 1 14 9
14 18 0 75 33 75 43 0 5 6 5 13 0 20 -12 40 -13 55 -1 9 8 16 8 25 -1 9 -9 9
-14 -1 -20 -10 -6 -10 -10 2 -20 22 -18 35 -5 33 32 -2 37 -22 64 -33 46 -5
-8 -9 -8 -14 1 -5 8 -15 10 -26 5 -11 -5 -25 -7 -31 -6 -7 1 -13 -3 -13 -9 0
-7 -9 -5 -22 4 -24 17 -48 6 -48 -21 0 -8 -4 -12 -9 -9 -5 3 -11 0 -14 -8 -7
-17 -52 -15 -52 2 0 8 -9 20 -19 28 -11 8 -14 14 -8 14 7 0 12 7 12 16 0 12 5
11 20 -7 l20 -24 19 25 c11 13 16 27 12 30 -5 3 3 16 15 30 l24 25 0 -27 c0
-14 6 -28 12 -30 16 -6 41 19 33 32 -3 5 -2 10 4 10 5 0 13 -5 16 -10 4 -6 11
-8 16 -5 5 4 9 0 9 -8 0 -22 27 -28 36 -9 4 9 6 20 6 25 -1 4 2 7 7 7 19 0 -3
41 -25 46 -13 3 -24 11 -24 17 0 5 -9 2 -20 -8 -21 -19 -24 -17 -14 9 3 9 9
14 13 12 14 -9 33 12 34 38 1 14 6 26 10 26 5 0 5 6 1 13 -4 6 2 4 14 -7 12
-10 28 -16 36 -13 8 3 20 -1 26 -9 19 -21 40 -17 40 9 0 12 9 28 21 35 17 11
18 16 8 28 -9 11 -15 12 -25 3 -8 -6 -14 -8 -14 -4 0 4 -6 2 -14 -4 -9 -8 -16
-9 -20 -2 -4 6 2 16 13 23 14 8 17 16 10 24 -7 8 -7 14 0 18 6 4 8 12 5 19 -3
8 7 26 21 41 14 15 25 30 25 33 0 3 9 14 20 23 14 12 17 21 10 25 -8 5 -8 11
1 21 8 10 9 18 2 25 -13 13 -45 0 -39 -17 7 -17 -3 -44 -16 -44 -5 0 -6 5 -3
10 10 16 -24 62 -40 56 -19 -7 -25 16 -8 32 18 18 17 48 -2 56 -8 3 -15 0 -15
-6 0 -7 -4 -7 -13 1 -8 6 -17 8 -20 5 -4 -4 -2 7 2 24 7 23 6 34 -5 43 -14 11
-64 5 -64 -9 0 -4 -11 -20 -25 -36 -14 -16 -25 -23 -25 -16 0 7 -8 19 -17 26
-13 10 -14 13 -4 14 11 0 11 3 1 15 -8 10 -22 13 -39 9 -14 -3 -32 -6 -40 -8
-8 -1 -19 -10 -26 -20 -12 -16 -13 -15 -19 1 -8 19 -5 29 5 26 4 -1 15 7 25
18 16 18 16 21 2 36 -13 13 -22 14 -48 4 -18 -6 -36 -8 -41 -5 -5 3 -9 0 -9
-5 0 -6 -7 -11 -15 -11 -9 0 -12 6 -9 15 4 10 -2 18 -17 24 -18 6 -31 3 -54
-14 -16 -13 -40 -26 -52 -30 -13 -3 -23 -11 -23 -17 0 -5 -8 -7 -17 -4 -9 4
-20 1 -24 -6 -6 -9 -13 -8 -28 6 -25 23 -45 12 -36 -21 5 -20 3 -24 -9 -20
-16 7 -41 -25 -29 -37 13 -12 11 -35 -3 -40 -8 -3 -14 1 -14 9 0 8 6 15 13 16
6 0 2 5 -10 11 -17 8 -25 7 -37 -5 -18 -18 -10 -51 10 -43 19 7 18 -8 -1 -24
-12 -10 -15 -10 -15 3 0 19 -20 33 -29 20 -8 -13 -41 -24 -51 -18 -11 7 12 55
28 55 6 0 12 6 12 14 0 8 7 16 15 20 8 3 15 1 15 -5 0 -6 8 -6 21 2 l21 11
-23 24 c-13 14 -29 22 -36 20 -7 -3 -10 1 -6 10 3 8 -1 22 -8 32 -10 13 -10
14 0 6 9 -9 20 -5 44 17 17 16 34 24 37 19 3 -5 13 -1 22 9 15 18 15 20 0 27
-34 14 -58 11 -87 -11 -28 -21 -34 -22 -63 -9 -18 7 -32 17 -32 22 0 13 71 73
80 67 10 -6 85 49 98 71 7 12 11 13 17 5 5 -9 12 -8 26 5 24 22 24 32 -3 55
-18 16 -24 17 -37 5 -9 -7 -22 -11 -28 -9 -7 3 -20 -3 -29 -12 -9 -9 -19 -13
-22 -10 -3 3 0 11 6 17 8 8 9 15 1 25 -7 7 -7 13 -2 13 5 0 15 11 21 25 6 14
18 25 26 25 8 0 19 7 24 15 9 17 42 11 42 -7 0 -7 4 -7 13 -1 25 20 45 22 43
5 -1 -17 15 -20 64 -9 14 3 28 6 33 6 4 1 7 10 7 21 0 25 22 26 37 1 10 -17
16 -18 37 -8 40 19 39 67 -1 67 -7 0 -3 10 10 23 12 13 26 20 31 16 5 -4 16
-1 24 8 12 12 13 16 2 23 -10 6 -8 9 6 13 50 13 69 6 105 -33z m554 -161 c-6
-9 29 -31 39 -24 3 3 -1 -3 -9 -13 -15 -16 -17 -16 -30 2 -14 19 -15 19 -36 0
-20 -18 -20 -18 -13 11 4 17 12 33 17 37 13 8 38 -2 32 -13z m-195 -210 c0 -5
-29 -4 -50 0 -3 1 4 8 14 16 16 12 22 12 28 2 4 -6 8 -15 8 -18z m-970 -9 c0
-5 -2 -10 -4 -10 -3 0 -8 5 -11 10 -3 6 -1 10 4 10 6 0 11 -4 11 -10z m-39
-63 c-10 -9 -11 -8 -5 6 3 10 9 15 12 12 3 -3 0 -11 -7 -18z m467 -107 c3 -8
-1 -11 -10 -8 -8 3 -30 -7 -49 -23 -19 -16 -40 -34 -47 -39 -14 -12 -35 -4
-26 11 3 5 10 7 15 4 5 -4 12 1 15 9 3 9 9 14 13 12 3 -2 12 2 19 10 7 8 10
14 6 14 -3 0 -1 6 5 13 13 17 53 15 59 -3z m44 -52 c-6 -6 -20 -13 -29 -14
-16 -2 -16 -1 1 12 24 17 45 19 28 2z m-202 -56 c0 -2 -9 -15 -20 -29 -11 -14
-20 -21 -20 -15 0 6 4 13 10 17 5 3 7 11 4 19 -3 7 2 13 11 13 8 0 15 -2 15
-5z m-65 -65 c-9 -14 -28 -33 -41 -42 -14 -9 -23 -23 -20 -30 2 -7 -2 -19 -11
-27 -15 -12 -16 -10 -9 17 4 17 12 32 17 33 5 2 9 8 9 13 0 13 37 48 44 42 3
-3 8 2 12 11 4 9 9 15 11 12 3 -2 -3 -16 -12 -29z m-134 -20 c-6 -8 -8 -16 -5
-19 3 -3 1 -8 -4 -12 -13 -8 -11 28 2 36 17 12 20 9 7 -5z m-51 -61 c0 -8 -9
-24 -19 -37 -22 -26 -23 -9 -3 29 14 25 22 28 22 8z m58 -60 c-13 -11 -32 -32
-41 -46 -9 -13 -17 -19 -17 -12 0 14 12 31 48 67 12 12 23 29 23 36 1 8 3 6 6
-5 3 -12 -4 -27 -19 -40z m-135 -41 c-3 -9 -8 -14 -10 -11 -3 3 -2 9 2 15 9
16 15 13 8 -4z m1831 -40 c3 -8 1 -15 -4 -15 -6 0 -10 7 -10 15 0 8 2 15 4 15
2 0 6 -7 10 -15z m534 -255 c3 -8 -5 -6 -21 6 -15 10 -27 23 -27 28 0 12 43
-18 48 -34z m-680 -50 c2 0 1 -4 -2 -9 -7 -11 22 -36 31 -28 9 10 33 -13 27
-26 -2 -7 9 -21 25 -31 27 -19 28 -21 14 -43 -8 -13 -20 -23 -27 -23 -6 0 -5
4 3 9 12 8 13 12 2 25 -16 19 -40 5 -42 -23 0 -10 -2 -11 -6 -3 -2 6 -12 12
-20 12 -9 0 -13 6 -9 15 3 8 1 15 -5 15 -16 0 -28 43 -17 63 10 19 -7 51 -22
42 -4 -3 -10 1 -13 9 -5 12 0 12 26 5 18 -5 33 -9 35 -9z m-2768 -24 c0 -3 -4
-8 -10 -11 -5 -3 -10 -1 -10 4 0 6 5 11 10 11 6 0 10 -2 10 -4z m48 -58 c1
-74 7 -101 20 -106 7 -2 4 -11 -8 -24 -19 -21 -19 -21 12 -45 20 -14 26 -23
16 -23 -9 0 -19 -8 -22 -17 -5 -12 -9 -14 -18 -5 -14 14 -75 16 -80 2 -2 -6
-8 -6 -18 0 -11 8 -12 12 -3 18 15 9 5 26 -21 36 -12 4 -23 2 -29 -6 -5 -9 -7
-4 -3 14 3 14 3 28 -2 31 -4 2 -1 2 7 0 19 -5 41 16 34 33 -3 8 -1 14 3 14 18
0 65 49 67 69 1 12 9 24 19 27 10 3 18 12 18 20 0 8 1 14 3 14 2 0 4 -24 5
-52z m3477 43 c-3 -5 6 -22 20 -37 35 -38 24 -41 -16 -4 -28 25 -31 32 -19 40
19 12 23 12 15 1z m-1850 -21 c-3 -4 2 -11 11 -14 8 -3 12 -11 9 -16 -10 -16
-34 7 -32 30 1 10 5 16 9 14 5 -3 6 -9 3 -14z m1885 -112 c0 -4 5 -8 11 -8 7
0 21 -10 33 -22 12 -13 37 -35 55 -50 18 -14 33 -32 35 -40 3 -24 16 -37 31
-31 10 3 15 -1 15 -11 0 -9 12 -21 26 -26 19 -8 24 -15 19 -29 -4 -13 2 -25
18 -37 13 -11 23 -21 23 -24 0 -3 3 -16 7 -29 4 -17 11 -22 22 -17 9 3 13 2
10 -4 -3 -6 -2 -10 3 -10 6 0 9 -8 8 -17 0 -12 7 -19 21 -21 20 -3 21 -6 12
-23 -9 -17 -7 -21 10 -26 17 -4 19 -9 10 -25 -8 -16 -8 -23 2 -29 25 -16 35
-7 30 24 -1 5 4 7 11 5 7 -3 13 -13 13 -24 0 -33 14 -46 31 -29 21 21 48 20
40 -1 -4 -10 1 -25 10 -36 23 -24 10 -36 -15 -14 -26 23 -43 12 -35 -22 10
-42 23 -54 41 -37 8 8 11 19 8 25 -3 5 -3 10 2 10 17 0 32 -16 38 -43 4 -15
11 -27 16 -27 5 0 9 -7 9 -14 0 -21 42 -64 58 -59 17 6 15 21 -9 54 -18 25
-33 79 -23 79 2 0 11 -17 21 -37 19 -42 32 -55 50 -48 7 2 15 0 18 -5 4 -6 2
-10 -4 -10 -5 0 1 -12 15 -27 14 -15 21 -29 15 -31 -16 -5 -13 -23 7 -38 10
-8 12 -13 5 -14 -7 0 -13 -9 -13 -21 0 -23 -57 -99 -76 -99 -15 0 -25 60 -10
60 6 0 2 7 -9 16 -11 8 -24 13 -30 10 -6 -2 -24 17 -40 43 -33 52 -57 74 -66
60 -3 -6 -11 -4 -18 5 -7 8 -18 13 -26 10 -7 -3 -20 4 -28 16 -8 12 -22 22
-31 24 -8 1 -24 12 -34 24 -15 18 -26 20 -67 16 -27 -2 -52 -9 -55 -14 -4 -6
-16 -2 -30 10 -16 14 -26 17 -31 9 -5 -8 -12 -8 -27 0 -15 8 -23 7 -31 -3 -6
-7 -8 -16 -4 -19 3 -4 1 -7 -6 -7 -7 0 -10 -4 -6 -9 3 -6 -1 -13 -8 -18 -7 -4
-16 -16 -20 -25 -7 -20 -37 -25 -37 -7 0 8 -4 8 -14 0 -11 -9 -15 -9 -19 1 -3
8 -11 0 -18 -19 -7 -17 -21 -34 -30 -36 -11 -3 -22 -22 -29 -46 -10 -37 -14
-41 -38 -39 -22 2 -28 -2 -30 -20 -3 -17 -8 -21 -21 -17 -11 3 -29 -5 -47 -22
-16 -15 -35 -26 -41 -25 -7 2 -13 -1 -13 -6 0 -6 -16 -17 -35 -26 -19 -9 -35
-21 -35 -26 0 -6 -10 -8 -22 -6 -13 1 -21 7 -18 12 3 5 9 8 13 6 4 -1 15 4 23
12 12 13 12 16 -3 25 -10 6 -12 11 -5 11 6 0 12 7 12 15 0 15 10 19 43 16 11
-2 17 5 17 18 0 12 -5 21 -11 21 -5 0 -8 4 -5 9 3 5 -3 20 -14 32 -11 13 -19
18 -20 12 0 -7 -8 -13 -17 -13 -15 0 -14 2 3 14 10 8 20 18 20 23 6 33 18 53
31 49 16 -6 30 21 17 33 -5 5 -21 11 -36 15 -22 5 -28 3 -28 -10 0 -13 -3 -14
-14 -5 -10 9 -15 8 -20 -4 -3 -8 -13 -15 -22 -15 -13 0 -14 3 -5 14 6 8 10 20
9 27 -2 7 10 19 26 27 15 8 36 27 45 43 9 16 22 27 29 24 8 -3 19 1 27 8 11
11 10 15 -5 25 -9 6 -19 21 -22 35 -4 20 -1 23 18 19 26 -5 40 14 24 33 -16
19 -65 16 -88 -6 -12 -11 -24 -14 -33 -9 -15 10 -42 -7 -34 -21 8 -12 -27 -28
-56 -26 -13 1 -31 8 -39 16 -13 13 -13 14 1 9 22 -8 42 11 28 28 -7 9 -1 15
22 23 21 7 29 15 26 26 -4 8 -2 17 4 20 5 4 6 13 0 22 -12 22 23 79 57 96 15
7 26 17 25 22 0 6 3 17 8 26 5 10 4 20 -4 28 -9 9 -9 14 2 20 9 6 11 18 8 34
-5 17 -1 29 12 42 12 10 17 24 13 33 -5 15 -3 15 11 4 20 -17 61 -6 53 14 -4
10 2 14 19 15 35 2 37 3 65 21 14 9 41 15 60 13 23 -1 39 3 47 14 11 17 53 24
53 9z m-697 -12 c12 -10 15 -16 7 -21 -6 -4 -14 -4 -17 -1 -4 3 -13 -3 -21
-15 -8 -11 -20 -18 -27 -15 -12 4 -30 -20 -27 -36 1 -4 -4 -5 -12 -2 -21 8
-39 -21 -22 -35 11 -9 18 -8 32 6 14 14 17 15 12 2 -4 -9 2 -20 13 -27 11 -7
19 -8 19 -2 0 6 9 6 23 1 12 -4 28 -6 35 -4 6 3 12 -2 12 -11 0 -18 -25 -22
-36 -5 -5 8 -9 8 -14 -1 -6 -9 -13 -9 -29 -1 -17 10 -22 9 -27 -4 -5 -13 -11
-12 -38 8 -17 12 -37 21 -43 19 -20 -4 -15 16 10 51 13 18 29 46 36 63 10 26
17 31 41 28 16 -2 32 1 35 6 8 13 16 12 38 -4z m-2653 -36 c0 -5 -2 -10 -4
-10 -3 0 -8 5 -11 10 -3 6 -1 10 4 10 6 0 11 -4 11 -10z m-43 -26 c-3 -3 -12
-4 -19 -1 -8 3 -5 6 6 6 11 1 17 -2 13 -5z m1978 -106 c0 -18 -2 -35 -5 -38
-3 -3 -10 -16 -16 -30 l-11 -25 -12 24 c-8 14 -9 26 -4 30 5 3 15 21 22 39 8
17 16 32 20 32 3 0 6 -15 6 -32z m769 6 c3 -8 2 -12 -4 -9 -6 3 -10 10 -10 16
0 14 7 11 14 -7z m1080 -29 c11 -8 17 -17 15 -19 -3 -3 -20 9 -39 25 -34 30
-15 25 24 -6z m-1004 -36 c0 7 4 9 10 6 11 -7 -6 -41 -32 -66 -21 -19 -40 -67
-32 -80 3 -5 1 -9 -5 -9 -6 0 -8 -7 -5 -15 4 -10 0 -15 -15 -15 -19 0 -26 -10
-22 -32 0 -5 -7 -16 -18 -27 -10 -10 -21 -25 -23 -32 -5 -14 -13 -11 -102 33
-19 10 -36 -3 -36 -29 0 -7 -9 -17 -20 -23 -15 -8 -20 -8 -20 1 0 7 -10 3 -23
-9 -13 -12 -28 -22 -34 -22 -6 0 -15 -6 -21 -13 -25 -29 58 -57 97 -32 6 3 11
1 11 -6 0 -19 30 10 30 30 1 13 3 12 12 -3 8 -15 8 -21 0 -24 -7 -2 -12 -10
-12 -17 0 -7 -16 -19 -35 -25 -20 -6 -32 -16 -29 -22 4 -6 -1 -8 -14 -4 -15 5
-22 2 -27 -14 -4 -11 -10 -18 -15 -15 -4 3 -13 -2 -20 -10 -10 -13 -14 -12
-28 1 -14 14 -16 14 -26 -3 -6 -10 -11 -21 -12 -25 -1 -5 -2 -11 -3 -15 -1 -5
-5 -2 -10 6 -5 8 -14 10 -22 5 -8 -4 -22 -9 -31 -9 -10 -1 -26 -8 -35 -16 -10
-9 -24 -14 -30 -13 -7 1 -17 2 -23 3 -17 2 -11 31 6 31 10 0 14 7 12 23 -2 13
-10 22 -20 22 -24 0 -31 10 -14 24 11 9 17 8 29 -4 15 -14 17 -14 26 4 8 14 7
22 -5 31 -13 12 -12 16 7 36 13 14 19 29 15 40 -3 9 -2 22 4 29 12 14 60 8 60
-9 0 -6 6 -4 13 5 7 9 19 16 27 17 8 0 24 3 35 6 11 2 29 5 41 5 12 1 33 12
48 26 15 14 31 25 37 25 14 0 11 38 -3 43 -7 2 -23 -3 -35 -10 -12 -8 -28 -11
-34 -7 -7 4 -26 11 -43 15 -24 5 -26 7 -8 8 12 1 22 7 22 16 0 8 5 15 11 15 6
0 9 6 6 13 -4 13 66 87 83 87 13 0 9 -32 -4 -42 -5 -3 -2 -13 6 -21 17 -17 38
-5 38 21 0 9 6 12 15 8 15 -5 54 10 66 27 3 4 17 9 30 11 14 1 31 6 38 10 8 5
16 3 21 -4 6 -10 11 -7 21 9 8 11 19 21 26 21 7 0 13 5 13 11 0 8 5 8 15 -1
11 -9 15 -9 15 -1z m-853 -67 c0 -10 -6 -19 -13 -19 -6 0 -9 9 -6 19 2 10 8
18 13 18 4 0 7 -8 6 -18z m-2487 -1 c0 -17 -27 -31 -66 -33 -21 -2 -42 -7 -45
-12 -4 -5 -11 -7 -16 -5 -6 2 0 14 13 26 19 19 25 20 36 9 12 -11 18 -10 37 5
25 20 41 24 41 10z m2820 -166 c0 -8 -4 -15 -9 -15 -13 0 -22 16 -14 24 11 11
23 6 23 -9z m-2885 -14 c3 -5 1 -12 -4 -15 -5 -3 -11 1 -15 9 -6 16 9 21 19 6z
m4730 -29 c-3 -3 -11 0 -18 7 -9 10 -8 11 6 5 10 -3 15 -9 12 -12z m-2010 -36
c11 -1 26 2 33 7 8 7 12 4 12 -8 0 -12 -6 -16 -20 -12 -11 3 -20 2 -20 -3 0
-9 -96 -7 -106 3 -7 7 -54 -42 -54 -57 0 -5 -3 -7 -6 -3 -3 3 3 19 15 36 15
21 18 31 9 34 -7 3 -3 6 9 6 12 1 25 -4 28 -9 4 -6 12 -4 22 6 10 10 24 13 37
9 12 -3 30 -7 41 -9z m90 4 c3 -5 1 -10 -4 -10 -6 0 -11 5 -11 10 0 6 2 10 4
10 3 0 8 -4 11 -10z m-68 -138 c7 -8 11 -18 7 -23 -6 -11 -27 8 -36 33 -4 9
-4 19 0 23 4 3 9 0 11 -7 2 -7 10 -19 18 -26z m251 -80 c-10 -2 -18 -8 -18
-14 0 -6 -3 -8 -6 -5 -11 10 17 38 30 30 7 -5 5 -9 -6 -11z m1894 -14 c-8 -8
-9 -4 -5 13 4 13 8 18 11 10 2 -7 -1 -18 -6 -23z m-1303 -69 c3 -24 3 -24 -18
-5 -11 10 -18 23 -15 28 10 16 29 2 33 -23z m292 -63 c1 -6 1 -15 0 -20 -1 -4
2 -13 8 -20 5 -6 9 -24 9 -39 0 -21 -5 -27 -17 -24 -9 2 -15 9 -13 17 4 18
-20 31 -35 18 -18 -14 -60 -2 -60 18 0 11 7 14 24 11 13 -2 23 0 23 4 0 5 7 9
15 9 9 0 15 9 15 25 0 18 4 23 15 19 8 -4 16 -11 16 -18z m-1246 -14 c-8 -8
-25 10 -19 20 4 6 9 5 15 -3 4 -7 6 -15 4 -17z m1098 -72 c-3 -11 -9 -20 -14
-20 -5 0 -8 -6 -6 -12 3 -17 -25 -17 -31 0 -2 7 2 11 9 10 7 -2 18 7 24 20 12
27 25 29 18 2z m-913 -3 c0 -5 -7 -6 -16 -3 -8 3 -24 1 -35 -4 -12 -7 -19 -7
-19 -1 0 10 24 18 53 17 9 0 17 -4 17 -9z m970 9 c0 -3 -4 -8 -10 -11 -5 -3
-10 -1 -10 4 0 6 5 11 10 11 6 0 10 -2 10 -4z m45 -26 c-3 -6 1 -17 9 -25 13
-14 16 -13 25 2 19 33 11 -1 -12 -50 -16 -33 -22 -63 -20 -95 2 -43 8 -90 13
-102 1 -3 2 -8 1 -12 0 -5 4 -8 9 -8 6 0 9 -3 8 -7 -1 -5 3 -18 10 -29 6 -12
9 -24 6 -26 -2 -3 2 -11 11 -18 18 -15 20 -33 3 -28 -7 3 -23 -6 -36 -19 -12
-13 -27 -23 -32 -23 -6 0 -10 -7 -10 -15 0 -8 -8 -15 -17 -15 -10 0 -38 -18
-63 -40 -66 -58 -69 -60 -75 -60 -3 0 -3 5 0 10 4 6 1 17 -5 25 -9 11 -9 15
-1 15 6 0 10 3 10 8 -1 4 -1 18 0 31 1 17 6 22 19 19 12 -3 24 2 31 13 9 15 8
19 -1 20 -7 0 -3 5 10 11 17 9 22 17 18 34 -6 22 18 42 29 24 3 -5 12 -7 19
-4 18 7 17 51 -1 66 -12 10 -18 9 -29 -7 -8 -10 -14 -15 -14 -10 0 4 -9 0 -20
-10 -18 -17 -20 -17 -14 -2 3 10 1 17 -6 17 -6 0 -8 5 -5 11 4 6 14 8 22 5 16
-7 46 18 35 28 -3 4 0 11 8 16 12 7 12 10 -3 16 -17 6 -16 8 3 21 28 20 25 38
-12 63 l-33 22 32 -6 c25 -4 35 -1 43 14 7 13 7 21 0 25 -6 4 -8 11 -4 16 3 5
10 7 15 4 5 -4 16 1 25 9 14 15 14 17 0 22 -9 3 -13 10 -10 15 3 5 0 9 -7 9
-8 0 -8 4 1 15 14 17 24 20 15 5z m-1280 -43 c11 -11 13 -16 5 -12 -8 5 -30 8
-50 7 -31 -2 -33 0 -18 11 24 19 40 17 63 -6z m85 -20 c0 -4 6 -5 13 -1 7 5 6
1 -3 -10 -11 -14 -15 -15 -18 -5 -3 8 -12 23 -21 33 -15 18 -15 18 7 5 12 -8
22 -17 22 -22z m56 -21 c2 -14 0 -15 -12 -5 -17 14 -19 32 -2 27 6 -2 12 -12
14 -22z m1009 -86 c3 -5 1 -10 -4 -10 -6 0 -11 5 -11 10 0 6 2 10 4 10 3 0 8
-4 11 -10z m965 -64 c0 -2 -8 -10 -17 -17 -16 -13 -17 -12 -4 4 13 16 21 21
21 13z m-1000 -41 c0 -12 -19 -12 -23 0 -4 9 -1 12 9 8 7 -3 14 -7 14 -8z
m961 -24 c-7 -5 -11 -13 -7 -19 3 -5 -1 -13 -9 -16 -8 -3 -15 -9 -14 -13 1 -4
0 -11 -1 -15 -1 -5 -3 -12 -4 -16 0 -5 -19 -30 -41 -57 -22 -26 -39 -51 -38
-55 1 -4 -11 -13 -26 -20 -16 -6 -32 -21 -35 -33 -7 -25 -34 -59 -57 -73 -9
-5 -44 -41 -77 -81 -33 -40 -62 -70 -64 -67 -3 2 -13 -7 -22 -21 -9 -14 -21
-23 -26 -20 -6 4 -10 0 -10 -7 0 -7 -28 -31 -63 -53 -34 -22 -72 -51 -84 -64
-13 -13 -23 -20 -23 -15 0 5 -4 4 -8 -1 -4 -6 -32 -23 -62 -38 -31 -14 -64
-35 -75 -45 -11 -10 -23 -19 -27 -21 -57 -21 -68 -27 -68 -34 0 -4 -4 -5 -10
-2 -5 3 -10 1 -10 -4 0 -6 -6 -11 -14 -11 -8 0 -21 -6 -28 -14 -8 -7 -24 -17
-36 -20 -12 -4 -22 -12 -22 -17 0 -5 -7 -9 -15 -9 -8 0 -15 -5 -15 -11 0 -5
-4 -8 -9 -4 -6 3 -14 -3 -20 -12 -5 -10 -12 -15 -16 -12 -7 8 15 61 30 71 5 4
7 10 3 13 -8 8 53 75 64 69 4 -3 8 2 8 10 0 9 9 16 20 16 11 0 20 4 20 9 0 10
39 27 53 23 4 -1 7 2 7 7 0 4 20 16 45 26 25 9 51 22 58 28 7 7 28 20 47 31
19 10 40 25 47 33 6 8 20 15 32 16 12 1 21 4 21 8 0 4 16 17 35 29 l34 21 22
-20 c21 -19 23 -19 34 -4 10 14 10 22 -2 40 -12 19 -13 26 -3 38 7 8 19 15 26
15 8 0 14 4 14 9 0 5 9 13 20 16 11 3 20 13 20 21 0 8 4 12 10 9 5 -3 15 3 22
15 7 11 17 20 21 20 5 0 38 28 73 63 35 34 69 67 76 73 17 15 58 63 58 69 0 2
10 15 23 27 12 13 39 45 61 71 21 26 41 45 45 42 3 -3 -1 -10 -8 -14z m-941
-46 c14 -17 14 -17 -17 -20 -22 -2 -31 14 -16 28 10 11 19 8 33 -8z m24 -290
c-6 -16 -24 -21 -24 -7 0 11 11 22 21 22 5 0 6 -7 3 -15z m-764 -1060 c0 -8
-4 -15 -10 -15 -5 0 -7 7 -4 15 4 8 8 15 10 15 2 0 4 -7 4 -15z m-45 -35 c-3
-5 0 -10 7 -10 10 0 9 -3 -2 -10 -9 -6 -17 -5 -22 3 -4 6 -2 15 5 19 16 10 19
10 12 -2z m-58 -322 c-3 -8 -6 -5 -6 6 -1 11 2 17 5 13 3 -3 4 -12 1 -19z"/>
<path d="M4500 5460 c0 -28 41 -43 57 -21 9 13 8 18 -5 26 -32 18 -52 16 -52
-5z"/>
<path d="M4443 5038 c-4 -7 -8 -17 -8 -23 -1 -11 36 -41 47 -38 4 2 10 -6 13
-17 7 -22 13 -24 34 -11 12 8 12 12 2 25 -7 9 -16 14 -20 12 -4 -3 -15 11 -26
30 -19 36 -29 41 -42 22z"/>
<path d="M4527 4795 c-18 -13 -18 -14 2 -24 25 -14 28 -14 34 3 9 23 -15 37
-36 21z"/>
<path d="M4246 4754 c-9 -8 -16 -19 -16 -24 0 -5 -7 -7 -16 -3 -9 3 -20 0 -24
-7 -7 -11 -12 -11 -23 -2 -12 10 -16 9 -21 -3 -3 -8 -5 -18 -5 -21 0 -4 -5
-10 -12 -14 -16 -10 -5 -36 20 -50 17 -9 21 -8 21 5 0 8 5 15 12 15 6 0 4 6
-6 13 -18 13 -18 14 -1 21 10 4 28 0 42 -9 21 -14 25 -14 38 -1 8 8 15 18 15
21 0 4 10 15 22 25 19 15 20 19 7 31 -21 20 -36 21 -53 3z"/>
<path d="M4431 4756 c-9 -10 -8 -16 4 -26 20 -16 38 -1 29 23 -8 21 -18 22
-33 3z"/>
<path d="M4558 4738 c-6 -15 11 -68 20 -68 19 1 34 19 26 31 -5 8 -9 21 -9 29
0 19 -31 25 -37 8z"/>
<path d="M4336 4722 c-14 -16 -14 -19 3 -29 14 -9 20 -7 28 6 16 26 -10 45
-31 23z"/>
<path d="M4696 4685 c-8 -22 4 -46 23 -43 20 4 27 38 9 49 -19 12 -25 11 -32
-6z"/>
<path d="M4571 4615 c-23 -22 -23 -23 -4 -33 16 -9 23 -7 37 10 15 17 16 23 4
33 -11 11 -17 9 -37 -10z"/>
<path d="M4213 4603 c-26 -18 -30 -38 -8 -47 19 -7 71 37 61 52 -10 16 -26 14
-53 -5z"/>
<path d="M4631 4546 c-10 -12 -8 -17 8 -25 22 -12 37 0 27 24 -7 19 -20 19
-35 1z"/>
<path d="M5032 4384 c-11 -12 -8 -19 12 -40 15 -17 30 -25 41 -20 15 5 15 8
-1 36 -22 36 -35 42 -52 24z"/>
<path d="M5643 4318 c-18 -29 -1 -56 32 -54 19 2 47 -22 65 -53 8 -15 40 -9
40 8 0 5 -11 23 -25 39 -13 16 -22 32 -18 36 7 6 4 7 -37 11 -13 1 -26 8 -28
14 -5 15 -19 14 -29 -1z"/>
<path d="M4917 4297 c-3 -8 -1 -20 4 -28 7 -12 11 -11 26 4 16 15 16 19 3 27
-20 13 -27 12 -33 -3z"/>
<path d="M5056 4275 c-3 -8 3 -19 13 -25 15 -7 20 -6 25 6 3 9 4 20 0 25 -8
14 -31 11 -38 -6z"/>
<path d="M5184 4265 c-3 -14 -11 -25 -17 -25 -6 0 -2 -6 8 -14 24 -17 33 -13
46 22 7 18 6 28 -3 34 -21 13 -27 10 -34 -17z"/>
<path d="M4893 4230 c-3 -11 -12 -20 -19 -20 -8 0 -15 -7 -15 -15 -1 -8 -2
-21 -3 -27 -1 -7 5 -18 13 -24 12 -9 18 -8 27 4 7 9 10 20 7 25 -2 4 -1 7 4 6
22 -4 32 3 31 24 -3 44 -35 64 -45 27z"/>
<path d="M5383 3993 c-17 -6 -16 -30 1 -36 18 -7 36 11 29 29 -5 15 -10 16
-30 7z"/>
<path d="M6032 3947 c-14 -17 20 -49 43 -41 20 8 19 17 -3 37 -22 20 -26 21
-40 4z"/>
<path d="M5964 3925 c-10 -26 13 -42 32 -23 15 15 15 17 -5 27 -17 10 -22 9
-27 -4z"/>
<path d="M6172 3801 c-7 -4 -10 -15 -6 -24 7 -19 13 -21 34 -7 13 8 13 11 0
24 -9 9 -20 12 -28 7z"/>
<path d="M4766 3695 c-3 -9 3 -19 14 -25 16 -9 20 -8 20 5 0 8 6 15 13 15 8 0
7 4 -3 10 -22 14 -37 12 -44 -5z"/>
<path d="M2797 3636 c-8 -8 -17 -12 -20 -9 -3 3 -13 -1 -21 -9 -13 -14 -12
-18 11 -36 30 -24 36 -22 56 18 12 24 13 31 2 40 -9 8 -17 7 -28 -4z"/>
<path d="M6083 2821 c-9 -14 -7 -20 6 -28 14 -9 20 -7 28 6 9 14 7 20 -6 28
-14 9 -20 7 -28 -6z"/>
<path d="M5345 3067 c-11 -11 12 -77 26 -77 14 0 30 28 19 35 -5 3 -10 14 -10
25 0 21 -21 32 -35 17z"/>
<path d="M5243 3035 c-10 -11 -9 -15 8 -20 24 -8 45 7 35 24 -10 15 -28 13
-43 -4z"/>
<path d="M5294 2985 c-17 -18 -30 -23 -37 -16 -8 6 -18 2 -29 -14 -16 -21 -16
-24 -2 -36 14 -11 19 -9 36 14 15 20 24 25 32 17 9 -7 18 -3 33 13 16 19 17
25 6 35 -10 10 -18 8 -39 -13z"/>
</g>
</svg>
