<?xml version="1.0" standalone="no"?>
<!DOCTYPE svg PUBLIC "-//W3C//DTD SVG 20010904//EN"
 "http://www.w3.org/TR/2001/REC-SVG-20010904/DTD/svg10.dtd">
<svg version="1.0" xmlns="http://www.w3.org/2000/svg"
 width="697.000000pt" height="673.000000pt" viewBox="0 0 697.000000 673.000000"
 preserveAspectRatio="xMidYMid meet">
<metadata>
Created by potrace 1.13, written by Peter Selinger 2001-2015
</metadata>
<g transform="translate(0.000000,673.000000) scale(0.100000,-0.100000)"
fill="#000000" stroke="none">
<path d="M2186 6143 c-4 -4 -13 -8 -19 -8 -24 -1 -87 -29 -87 -40 0 -6 -9 -11
-21 -12 -12 -1 -26 -8 -32 -16 -7 -8 -33 -29 -59 -47 -27 -18 -48 -37 -48 -42
0 -4 -5 -8 -10 -8 -6 0 -21 -11 -34 -25 -13 -14 -28 -25 -35 -25 -6 0 -11 -3
-11 -8 0 -8 -47 -66 -92 -114 -16 -16 -28 -31 -28 -34 0 -3 -9 -15 -21 -27
-11 -12 -35 -39 -52 -61 -18 -21 -42 -50 -54 -64 -13 -14 -23 -30 -23 -36 0
-10 -30 -49 -75 -97 -8 -9 -15 -19 -15 -24 0 -4 -16 -27 -35 -50 -19 -23 -32
-45 -28 -48 3 -4 -2 -9 -11 -13 -9 -3 -16 -12 -16 -20 0 -8 -4 -14 -10 -14 -5
0 -10 -6 -10 -14 0 -7 -10 -24 -22 -38 -44 -49 -56 -66 -51 -72 3 -2 -5 -16
-18 -29 -36 -37 -99 -116 -100 -124 -1 -5 -10 -20 -20 -35 -10 -14 -19 -29
-19 -33 0 -4 -8 -15 -19 -24 -10 -9 -21 -25 -25 -36 -3 -11 -26 -42 -50 -70
-24 -27 -42 -53 -40 -57 2 -4 -24 -35 -59 -70 -34 -35 -75 -78 -90 -96 -15
-19 -27 -30 -27 -27 0 4 -7 2 -15 -5 -8 -7 -13 -16 -10 -20 3 -5 1 -12 -5 -15
-8 -5 -7 -12 2 -23 12 -14 10 -14 -10 -3 -21 11 -26 9 -50 -16 -42 -46 -65
-74 -99 -124 -29 -44 -66 -90 -105 -131 -10 -9 -20 -29 -24 -43 -3 -14 -10
-23 -14 -20 -11 7 -33 -22 -26 -34 4 -5 1 -13 -4 -16 -10 -6 -32 -49 -34 -67
-1 -3 -10 -17 -21 -30 -11 -13 -20 -36 -20 -53 0 -16 -6 -42 -12 -56 -10 -22
-10 -29 3 -40 12 -10 18 -8 30 10 9 12 22 20 30 17 8 -3 14 -2 14 2 0 5 16 25
35 47 20 21 37 48 38 59 3 26 32 60 45 52 13 -8 36 20 27 34 -3 5 10 27 29 48
20 20 36 41 36 46 0 5 6 3 13 -3 20 -16 65 32 49 52 -9 10 -2 23 28 55 22 23
44 42 50 42 5 0 10 10 10 22 0 12 14 33 31 48 17 14 32 36 33 48 0 12 19 41
41 63 22 23 40 45 40 48 0 4 8 15 17 25 10 10 18 23 18 29 0 7 18 32 39 56 22
25 37 50 34 55 -4 6 1 4 11 -4 16 -13 20 -12 32 5 10 13 11 22 3 31 -8 10 -3
21 20 45 17 17 31 35 31 40 0 5 4 9 8 9 4 0 16 14 25 30 10 17 23 30 28 30 6
0 7 -6 2 -12 -14 -23 -42 -112 -37 -120 3 -5 1 -8 -4 -8 -5 0 -8 -13 -7 -30 1
-16 -1 -30 -4 -30 -3 0 -7 -19 -7 -43 -3 -62 -14 -138 -26 -172 -22 -61 -33
-85 -41 -85 -5 0 -5 -4 -2 -10 7 -11 -53 -76 -66 -72 -5 1 -9 -5 -9 -14 0 -8
-4 -13 -9 -10 -5 3 -14 -1 -21 -9 -7 -8 -9 -15 -6 -15 4 0 -3 -10 -14 -22 -11
-13 -23 -33 -26 -45 -4 -13 -10 -23 -14 -23 -9 0 -24 -49 -21 -67 1 -7 -3 -13
-9 -13 -16 0 -95 -88 -87 -97 3 -2 -2 -12 -11 -22 -9 -9 -35 -39 -57 -65 -68
-83 -150 -162 -184 -176 -60 -24 -70 -82 -19 -104 31 -14 32 -15 11 -21 -23
-7 -39 -38 -28 -55 3 -5 1 -10 -5 -10 -6 0 -8 -5 -3 -12 4 -7 8 -20 10 -28 1
-8 9 -20 17 -26 9 -6 16 -16 16 -23 0 -6 5 -11 10 -11 6 0 10 -5 10 -10 0 -16
47 -60 63 -60 8 0 20 -7 28 -16 7 -8 25 -22 40 -29 20 -11 26 -20 22 -35 -3
-11 -10 -20 -15 -20 -6 0 -8 -7 -4 -15 3 -8 2 -15 -3 -15 -9 0 -8 -31 3 -48 4
-6 9 -21 11 -32 9 -46 90 -137 118 -132 4 1 7 -2 7 -7 0 -5 11 -12 25 -15 14
-4 25 -11 25 -16 0 -6 11 -3 25 6 14 9 25 13 25 9 0 -3 7 1 16 10 9 9 16 28
16 43 0 48 -6 82 -15 82 -5 0 -7 14 -3 30 3 18 1 30 -5 30 -6 0 -8 4 -5 8 3 5
-1 20 -9 35 -7 14 -12 27 -10 29 2 2 6 36 10 77 3 40 10 83 14 95 5 11 6 27 4
34 -3 6 0 12 7 12 6 0 9 4 5 9 -3 5 -1 12 5 16 6 4 8 11 5 16 -4 5 -2 9 3 9 6
0 13 12 16 26 4 14 19 38 34 53 15 15 40 44 56 64 16 21 31 35 34 33 6 -7 32
20 32 33 0 6 11 13 25 17 14 3 32 16 40 27 8 12 15 18 15 14 0 -4 8 0 18 8 9
8 19 14 22 13 6 -2 93 52 100 63 3 5 15 10 25 12 11 2 43 15 70 28 28 13 53
22 58 21 4 -1 7 3 7 9 0 6 7 9 15 5 8 -3 15 -1 15 4 0 6 9 10 20 10 11 0 20 5
20 10 0 6 8 10 18 10 18 0 88 23 97 31 2 3 26 4 52 2 42 -3 58 -5 96 -12 4 0
7 -7 7 -13 0 -7 13 -33 29 -57 16 -24 27 -50 24 -57 -3 -8 0 -14 7 -14 6 0 8
-4 5 -10 -3 -5 -1 -10 4 -10 6 0 11 -6 11 -13 0 -7 9 -19 20 -27 11 -8 20 -20
20 -27 0 -7 5 -13 10 -13 6 0 10 -4 10 -10 0 -12 23 -41 69 -90 19 -19 33 -36
32 -38 -2 -4 20 -29 50 -58 29 -27 41 -64 43 -133 1 -34 -4 -47 -21 -61 -13
-10 -23 -22 -23 -28 0 -6 -6 -13 -12 -15 -10 -4 -10 -8 1 -15 8 -6 9 -11 3
-13 -6 -2 -13 -16 -15 -30 -6 -34 25 -56 47 -34 15 15 63 38 81 39 5 1 26 18
47 39 21 22 45 40 54 41 9 1 19 7 22 13 5 7 16 3 34 -12 15 -13 24 -25 21 -28
-3 -4 2 -13 10 -22 10 -9 18 -11 22 -5 4 6 22 -5 43 -25 20 -19 46 -38 57 -41
11 -4 41 -29 66 -55 25 -27 51 -49 58 -49 6 0 31 -20 55 -45 25 -25 48 -45 53
-45 13 -1 53 -37 53 -49 0 -6 5 -11 12 -11 6 0 9 -2 6 -5 -3 -3 11 -23 31 -43
60 -64 86 -95 116 -145 17 -26 38 -50 48 -53 9 -3 16 -8 13 -12 -2 -4 20 -44
49 -90 60 -93 60 -94 -3 -168 -18 -21 -32 -42 -32 -48 0 -6 -16 -28 -35 -49
-19 -21 -33 -43 -30 -48 4 -5 1 -9 -5 -9 -6 0 -8 -4 -5 -10 3 -5 2 -10 -3 -10
-5 0 -22 -20 -38 -45 -15 -25 -32 -45 -36 -45 -4 0 -8 -7 -8 -15 0 -8 -4 -15
-8 -15 -5 0 -27 -18 -50 -40 -22 -22 -43 -40 -46 -40 -6 0 -39 -26 -90 -72
-56 -50 -79 -68 -87 -68 -12 0 2 -33 22 -50 15 -14 15 -17 -7 -49 -23 -34 -21
-64 8 -98 6 -8 8 -17 4 -20 -8 -8 112 -123 128 -123 7 0 7 -3 1 -8 -23 -17
-45 -73 -35 -91 5 -10 6 -21 3 -25 -3 -3 -1 -6 5 -6 7 0 12 -9 12 -20 0 -11 5
-20 11 -20 5 0 7 -5 4 -10 -3 -6 1 -13 9 -16 9 -3 14 -10 11 -14 -5 -8 61 -63
69 -58 2 2 15 -7 28 -19 18 -17 33 -21 73 -19 28 2 44 1 37 -1 -10 -4 -10 -8
-1 -19 17 -20 39 -17 39 6 0 11 -4 20 -10 20 -6 0 -6 9 -1 22 5 13 4 35 -1 51
-6 15 -8 34 -5 41 3 8 -1 17 -10 20 -11 5 -12 10 -5 19 6 7 7 18 2 26 -4 8 -6
20 -3 28 3 7 1 13 -5 13 -23 0 -5 61 31 101 20 24 35 49 33 56 -5 13 39 65 47
56 3 -2 22 12 42 31 20 20 41 34 46 30 5 -3 9 -1 9 4 0 5 10 13 23 17 12 4 24
8 27 9 3 1 22 5 43 9 20 5 37 12 37 17 0 5 10 12 23 15 12 4 36 18 52 30 27
20 33 21 50 9 10 -8 15 -14 10 -14 -5 0 1 -9 13 -20 12 -11 25 -20 30 -20 5 0
21 -9 36 -21 15 -11 32 -22 39 -23 6 -1 26 -10 43 -19 18 -9 41 -14 53 -12 11
2 23 -1 26 -6 4 -5 10 -7 15 -4 5 3 24 8 42 10 51 6 81 11 105 19 12 4 30 8
40 10 40 8 48 11 54 19 3 4 16 10 30 12 40 8 79 27 79 38 0 8 3 8 11 0 9 -9
17 -6 32 8 11 10 27 19 34 19 7 0 13 5 13 11 0 5 4 8 9 4 6 -3 19 5 30 17 12
12 21 18 21 14 0 -7 17 5 48 35 9 9 33 27 52 41 60 40 90 65 90 77 0 6 7 11
15 11 8 0 15 7 15 15 0 8 5 15 10 15 6 0 19 9 31 21 12 12 27 22 35 23 7 1 27
14 44 29 16 15 36 27 44 27 8 0 19 6 23 12 9 15 83 54 95 51 4 -2 8 4 8 13 0
8 5 12 10 9 6 -3 22 3 36 14 15 12 35 21 45 21 11 0 19 5 19 10 0 6 7 10 15
10 8 0 15 5 15 11 0 5 4 8 9 5 5 -4 11 -1 13 4 2 6 13 12 26 13 12 0 22 5 22
9 0 4 16 10 35 14 19 3 35 10 35 15 0 5 11 9 24 9 14 0 28 5 31 10 4 6 10 8
15 5 5 -3 11 -1 15 5 4 6 11 8 16 5 5 -4 15 -3 21 1 7 5 33 9 58 11 25 2 52 3
60 4 30 2 68 -5 64 -13 -3 -4 0 -8 5 -8 6 0 11 -7 11 -15 0 -8 5 -15 10 -15 6
0 10 -6 10 -12 0 -7 13 -23 29 -36 16 -13 44 -37 63 -53 18 -16 47 -37 63 -46
17 -8 38 -22 47 -30 9 -8 21 -12 26 -9 5 3 15 0 21 -8 7 -8 23 -17 37 -20 14
-4 22 -11 19 -16 -7 -11 29 -32 39 -23 6 6 10 -12 7 -34 -1 -7 3 -13 9 -13 6
0 8 -5 5 -10 -3 -6 1 -13 9 -16 9 -3 13 -10 10 -15 -3 -5 0 -9 5 -9 6 0 11 -6
11 -12 1 -14 91 -91 131 -111 31 -17 115 -21 124 -7 3 6 11 8 16 5 5 -4 9 -2
9 3 0 5 12 22 26 38 20 21 28 41 30 79 2 28 8 64 14 79 5 15 8 32 4 37 -3 5 0
9 5 9 6 0 11 6 11 14 0 7 7 19 15 26 9 7 13 15 11 18 -3 3 3 17 14 32 11 16
20 32 20 37 0 5 9 15 19 22 11 8 17 20 14 28 -3 7 0 13 6 13 6 0 11 4 11 9 0
5 15 25 33 45 31 32 35 34 50 19 14 -14 17 -14 31 0 17 17 18 37 1 50 -6 6 -6
10 3 14 6 2 12 11 12 19 0 8 4 14 8 14 8 0 32 41 38 63 1 4 3 8 4 10 4 4 11
82 13 140 0 31 5 57 9 57 5 0 6 5 2 11 -4 7 -3 10 2 7 61 -29 112 -51 124 -53
8 -2 15 -4 15 -5 0 -12 174 -20 181 -8 3 4 10 6 15 3 12 -8 52 21 55 40 3 19
-20 29 -103 46 -35 6 -68 18 -74 25 -6 8 -15 11 -20 8 -5 -3 -9 0 -9 6 0 6 -4
9 -9 6 -5 -4 -24 6 -43 21 -18 16 -40 34 -49 42 -9 7 -14 22 -12 32 3 11 -1
21 -11 25 -9 3 -13 10 -10 15 3 5 -2 12 -10 15 -9 3 -14 10 -11 14 3 5 -2 13
-11 18 -9 5 -14 13 -12 18 1 5 -10 15 -27 23 -16 8 -36 20 -43 28 -7 7 -21 13
-29 13 -16 0 -78 43 -98 66 -5 7 -26 20 -45 28 -19 9 -26 14 -15 11 89 -20
108 -4 56 45 -17 17 -31 28 -31 25 0 -2 -12 0 -27 6 -45 18 -113 19 -113 2 0
-8 -4 -12 -9 -8 -6 3 -13 -1 -18 -9 -10 -17 -61 24 -208 169 -97 96 -147 138
-160 136 -3 -1 -17 10 -31 24 -14 14 -36 25 -49 25 -14 0 -25 5 -25 10 0 6 -4
10 -9 10 -5 0 -20 4 -33 9 -13 5 -26 8 -29 7 -3 0 -13 5 -22 13 -10 7 -17 10
-17 6 0 -5 -9 0 -20 10 -11 10 -23 15 -27 12 -3 -4 -12 -2 -20 4 -7 6 -13 8
-13 4 0 -3 -12 3 -26 14 -19 15 -30 18 -39 11 -8 -7 -17 -4 -30 10 -10 11 -21
18 -25 15 -3 -2 -27 6 -53 19 -25 13 -48 21 -51 18 -4 -3 -6 0 -6 7 0 7 -4 10
-9 6 -5 -3 -17 2 -25 11 -9 8 -16 12 -16 8 0 -3 -7 -1 -15 6 -8 7 -15 9 -15 5
0 -5 -8 -1 -17 8 -10 8 -30 18 -44 22 -14 3 -37 17 -52 31 -14 13 -29 24 -33
24 -4 0 -21 11 -38 24 -17 13 -35 24 -41 25 -5 1 -20 12 -33 24 -13 12 -27 21
-30 21 -11 -2 -36 8 -52 21 -15 12 -60 26 -71 22 -3 -1 -13 6 -23 16 -10 9
-24 17 -32 17 -8 0 -14 5 -14 10 0 6 -5 10 -11 10 -16 0 -78 30 -118 57 -18
13 -37 21 -41 18 -3 -2 -26 14 -50 35 -25 22 -49 40 -55 40 -5 0 -28 16 -50
35 -22 19 -44 35 -50 35 -5 0 -32 20 -60 44 -27 24 -53 42 -56 40 -4 -2 -26
14 -50 37 -24 22 -57 47 -74 56 -16 9 -46 30 -66 47 -93 81 -144 122 -161 128
-23 9 -65 48 -52 48 9 1 -26 24 -37 25 -3 0 -25 17 -49 38 -23 20 -48 37 -54
37 -7 0 -27 15 -46 33 -19 17 -49 42 -65 55 -33 25 -182 162 -283 260 -35 34
-70 62 -76 62 -6 0 -27 14 -46 30 -19 17 -55 47 -80 67 -25 21 -63 57 -84 81
-22 23 -44 42 -49 42 -6 0 -24 14 -41 30 -64 63 -82 78 -107 91 -29 16 -114
84 -138 112 -9 10 -35 38 -58 63 -24 24 -43 47 -43 50 0 4 -8 14 -19 23 -65
56 -107 89 -116 91 -5 1 -18 9 -27 17 -10 9 -18 13 -18 10 0 -4 -16 2 -35 13
-36 20 -85 26 -99 13z m-1436 -1658 c11 -13 10 -14 -4 -9 -9 3 -16 10 -16 15
0 13 6 11 20 -6z m33 -60 c-15 -19 -32 -35 -36 -35 -5 0 -1 7 7 16 9 8 21 24
26 35 6 10 15 19 21 19 5 0 -3 -16 -18 -35z m-94 -97 c-40 -57 -73 -69 -37
-14 13 19 26 32 30 30 3 -2 9 0 13 6 3 5 8 10 11 10 3 0 -5 -15 -17 -32z m-70
-92 c0 -7 -2 -7 -5 1 -7 15 -34 5 -34 -12 0 -7 -7 -18 -15 -25 -22 -18 -18 -1
7 36 17 25 26 30 35 22 7 -6 13 -16 12 -22z m297 -386 c0 -11 -4 -20 -9 -20
-4 0 -6 -4 -3 -9 7 -11 -33 -131 -45 -131 -4 0 -6 -6 -3 -14 3 -7 -1 -20 -9
-27 -7 -8 -12 -20 -9 -27 2 -6 -2 -12 -8 -12 -7 0 -10 -7 -6 -15 3 -8 2 -15
-3 -15 -5 0 -11 -9 -14 -20 -6 -22 -23 -27 -25 -7 -6 41 -6 137 0 137 4 0 5 7
2 15 -4 8 -1 15 6 15 6 0 9 4 6 8 -3 5 6 21 20 38 14 16 34 39 45 52 10 12 16
22 12 22 -8 0 29 29 37 30 3 0 6 -9 6 -20z m5104 -900 c0 -5 -2 -10 -4 -10 -3
0 -8 5 -11 10 -3 6 -1 10 4 10 6 0 11 -4 11 -10z m-99 -773 c-10 -9 -11 -8 -5
6 3 10 9 15 12 12 3 -3 0 -11 -7 -18z m-2749 -21 c-4 -6 -7 -13 -8 -16 -3 -17
-31 -66 -41 -73 -8 -5 -11 -12 -8 -17 3 -5 1 -11 -5 -15 -6 -4 -8 -10 -6 -14
5 -8 -117 -141 -129 -141 -4 0 -18 -9 -32 -20 -31 -25 -38 -25 -40 -2 -1 9 -2
22 -4 27 -4 16 19 63 41 87 10 11 17 26 13 31 -3 6 -1 7 5 3 7 -4 18 7 29 28
9 20 20 36 25 36 4 0 5 6 2 13 -5 14 49 50 60 40 3 -3 6 -1 6 5 0 6 6 9 13 7
6 -3 23 4 36 14 25 19 54 24 43 7z m2834 -4 c-6 -10 29 -42 46 -42 6 0 9 -3 6
-6 -3 -3 -23 -2 -43 2 -27 5 -33 9 -23 16 11 8 11 10 -1 15 -11 5 -11 7 0 14
18 11 22 11 15 1z"/>
</g>
</svg>
