<?xml version="1.0" standalone="no"?>
<!DOCTYPE svg PUBLIC "-//W3C//DTD SVG 20010904//EN"
 "http://www.w3.org/TR/2001/REC-SVG-20010904/DTD/svg10.dtd">
<svg version="1.0" xmlns="http://www.w3.org/2000/svg"
 width="422.000000pt" height="272.000000pt" viewBox="0 0 422.000000 272.000000"
 preserveAspectRatio="xMidYMid meet">
<metadata>
Created by potrace 1.13, written by Peter Selinger 2001-2015
</metadata>
<g transform="translate(0.000000,272.000000) scale(0.100000,-0.100000)"
fill="#000000" stroke="none">
<path d="M280 2527 c0 -9 -10 -12 -30 -9 -26 4 -30 1 -30 -18 0 -23 71 -100
119 -131 l24 -15 -37 -37 c-35 -35 -76 -112 -76 -143 0 -8 -10 -25 -22 -38
-30 -30 -40 -47 -83 -131 -45 -90 -81 -151 -111 -190 -28 -37 -32 -90 -8 -123
22 -31 126 -82 183 -89 42 -5 51 -2 76 21 32 30 39 29 129 -16 58 -29 59 -29
180 -23 115 7 124 6 177 -18 128 -56 217 -165 304 -369 8 -20 31 -52 51 -70
19 -18 48 -55 64 -83 15 -27 39 -60 52 -72 80 -76 106 -96 154 -120 53 -26 54
-27 54 -70 0 -36 21 -121 47 -193 10 -26 2 -103 -13 -132 -8 -15 -14 -35 -14
-44 0 -9 -16 -41 -35 -70 -19 -29 -35 -57 -35 -62 0 -5 -7 -12 -15 -16 -8 -3
-15 -12 -15 -21 0 -8 -4 -15 -8 -15 -10 0 -42 -54 -42 -73 0 -18 78 -41 120
-35 16 3 30 1 30 -4 0 -14 38 -9 44 7 3 8 14 15 24 15 34 0 80 30 86 56 4 14
4 40 0 59 -4 22 -2 36 8 41 30 20 54 104 29 104 -6 0 -6 12 0 32 5 18 9 52 9
75 0 40 20 119 40 154 4 9 16 58 24 109 9 51 19 97 22 101 11 18 24 -3 45 -74
13 -45 36 -92 61 -125 38 -51 41 -59 51 -158 10 -101 10 -105 -11 -132 -36
-44 -64 -109 -57 -130 9 -32 105 -66 166 -60 28 3 54 9 58 14 3 5 15 14 26 20
24 13 32 44 14 55 -10 6 -10 10 0 23 8 9 20 16 27 16 16 0 20 66 4 72 -5 1
-24 48 -41 103 -27 84 -33 118 -35 210 -1 61 -9 142 -18 180 -14 62 -14 71 0
81 21 17 163 26 279 18 324 -21 318 -20 305 -77 -4 -18 -12 -42 -18 -54 -24
-44 -16 -60 34 -68 56 -8 73 9 74 71 0 35 4 43 24 48 13 3 35 24 50 46 16 25
34 40 46 40 18 0 153 40 205 61 11 4 47 17 80 29 33 12 64 25 70 29 15 12 106
41 127 41 31 0 48 -25 59 -87 13 -71 36 -136 83 -228 34 -66 36 -76 36 -166 0
-92 -5 -122 -53 -294 -9 -35 -22 -56 -43 -70 -42 -29 -124 -119 -124 -138 0
-26 79 -57 149 -57 83 0 130 26 131 73 0 11 12 23 30 30 24 9 30 17 30 42 0
27 15 79 58 200 6 17 21 59 33 95 12 36 29 78 36 94 14 26 15 27 27 10 32 -49
69 -271 60 -361 -6 -66 -9 -70 -63 -127 -31 -32 -68 -70 -83 -84 -31 -28 -36
-57 -12 -66 9 -3 53 -9 100 -12 128 -10 204 26 204 98 0 18 5 28 15 28 23 0
38 38 30 78 -3 19 -8 65 -11 101 -2 36 -9 107 -15 158 -8 68 -8 100 0 124 6
18 11 57 11 88 0 31 4 74 8 96 5 28 9 -12 13 -130 6 -168 24 -295 40 -295 5 0
9 -13 9 -30 0 -23 4 -30 20 -30 13 0 20 7 20 20 0 11 5 20 10 20 6 0 10 12 10
28 0 15 7 59 15 97 46 210 47 225 40 390 -4 88 -14 189 -21 225 -32 142 -36
196 -29 330 3 74 6 160 6 192 -1 31 5 73 13 95 8 21 17 77 20 125 3 48 11 111
17 140 19 87 0 278 -31 308 -3 3 -17 23 -31 45 -18 28 -44 49 -85 69 -33 16
-63 35 -69 42 -11 14 -258 25 -271 12 -4 -5 -51 -5 -104 -2 -55 4 -132 2 -176
-4 -44 -6 -128 -16 -189 -23 -60 -6 -146 -18 -190 -26 -44 -8 -125 -18 -180
-23 -55 -6 -138 -14 -185 -19 -100 -11 -278 -1 -520 30 -262 33 -323 38 -530
43 -132 3 -214 10 -252 21 -109 30 -375 35 -494 10 -26 -6 -32 -3 -42 19 -8
17 -19 26 -36 26 -26 0 -99 -31 -131 -55 -18 -14 -21 -13 -50 18 -35 40 -64
49 -163 52 -41 1 -77 6 -80 11 -23 31 -112 48 -112 21z m3473 -163 c76 -4 140
-11 143 -16 3 -4 -2 -8 -11 -8 -8 0 -18 -6 -21 -14 -4 -11 -17 -11 -77 5 -73
19 -119 22 -352 22 l-130 -1 105 13 c58 7 128 11 155 9 28 -2 112 -7 188 -10z
m-2173 -24 c0 -23 -15 -27 -23 -6 -3 8 -16 16 -29 19 -15 3 -10 5 15 6 31 1
37 -2 37 -19z m178 11 c10 -6 8 -10 -10 -14 -12 -4 -24 -2 -26 3 -5 13 -42 13
-42 0 0 -5 -7 -10 -15 -10 -8 0 -15 7 -15 15 0 11 12 15 48 15 26 0 53 -4 60
-9z m109 -7 c-3 -3 -12 -4 -19 -1 -8 3 -5 6 6 6 11 1 17 -2 13 -5z m1433 2 c0
-9 -50 -12 -62 -5 -8 6 1 9 25 9 20 0 37 -2 37 -4z m-1330 -19 c0 -9 -11 -12
-35 -9 -50 6 -54 22 -6 22 27 0 41 -4 41 -13z m1237 6 c-8 -7 -77 -6 -85 2 -3
3 16 5 43 5 27 0 45 -3 42 -7z m-1566 -48 c26 -6 43 -35 19 -35 -5 0 -10 -9
-10 -19 0 -15 12 -21 63 -30 35 -6 80 -11 99 -11 23 0 38 -6 42 -15 8 -23 46
-19 46 5 0 11 7 20 15 20 9 0 15 9 15 25 0 14 4 25 8 25 5 0 7 -13 4 -30 -2
-17 -10 -30 -18 -30 -9 0 -14 -12 -14 -34 0 -40 2 -42 53 -51 33 -6 37 -5 37
13 0 13 -10 24 -27 30 -16 6 -21 11 -11 11 9 1 18 6 20 13 2 6 14 1 29 -14 20
-20 23 -29 16 -47 -6 -11 -13 -21 -17 -21 -5 0 -11 -11 -14 -25 -6 -24 -8 -25
-29 -10 -25 17 -62 20 -80 5 -62 -51 -87 -75 -87 -85 0 -7 -11 -17 -24 -23
-18 -8 -24 -20 -29 -58 -3 -27 -10 -50 -16 -52 -14 -5 -15 -109 -1 -117 6 -3
10 -14 9 -23 0 -13 -3 -12 -11 6 -6 12 -15 22 -20 22 -4 0 -8 9 -8 19 0 10 -7
21 -15 25 -24 9 -20 88 5 106 21 15 27 50 9 50 -8 0 -9 13 -5 41 3 22 1 69 -5
104 -9 54 -14 64 -32 67 -18 2 -23 11 -25 42 -3 34 -6 38 -28 33 -22 -4 -24
-1 -24 29 0 19 5 34 10 34 6 0 11 10 11 23 1 15 3 17 6 5 2 -9 17 -20 34 -23z
m1409 31 c0 -2 -7 -6 -15 -10 -8 -3 -15 -1 -15 4 0 6 7 10 15 10 8 0 15 -2 15
-4z m542 -97 c-3 -32 1 -51 12 -62 9 -8 16 -20 16 -26 0 -6 4 -11 8 -11 22 0
50 -41 67 -98 12 -42 29 -73 52 -95 25 -25 33 -40 33 -69 0 -37 -1 -38 -37
-40 -21 0 -50 0 -64 1 -16 1 -29 -4 -32 -14 -4 -9 -19 -15 -41 -15 -30 0 -39
-6 -66 -47 -18 -26 -29 -54 -27 -65 4 -13 -2 -20 -19 -24 -15 -4 -24 -13 -24
-25 0 -11 -7 -22 -15 -25 -8 -4 -15 -14 -15 -24 0 -10 -9 -20 -20 -23 -15 -4
-20 -14 -21 -39 0 -18 -3 -27 -6 -20 -2 6 -18 12 -35 12 -21 0 -31 6 -35 20
-3 11 -9 20 -14 20 -5 0 -9 5 -9 11 0 6 -7 18 -16 27 -13 12 -14 17 -4 20 8 3
28 19 45 36 18 17 41 36 51 42 21 13 84 156 84 192 0 13 -11 46 -25 74 -16 33
-25 66 -25 98 0 27 -4 59 -9 72 -4 13 -11 42 -14 64 -7 40 -6 42 23 48 18 3
30 12 30 21 0 13 13 15 78 13 l77 -3 -3 -46z m-548 -107 c3 -5 -4 -16 -16 -26
-22 -19 -21 -55 3 -113 11 -27 11 -39 1 -67 -15 -41 -1 -110 23 -120 8 -3 15
-14 15 -25 0 -52 51 -111 96 -111 8 0 19 -11 24 -25 5 -14 14 -25 20 -25 5 0
10 -5 10 -11 0 -6 7 -18 16 -26 12 -13 13 -18 3 -24 -8 -5 -21 1 -34 17 -23
27 -55 32 -55 9 0 -8 -6 -15 -14 -15 -9 0 -12 7 -9 19 3 12 -4 29 -16 42 -12
13 -21 26 -21 30 0 4 -22 15 -49 24 -58 19 -101 12 -101 -17 0 -15 -4 -18 -22
-12 -33 9 -35 14 -15 28 9 7 17 18 17 25 0 6 6 11 13 11 21 0 50 65 44 102 -3
18 2 54 10 80 19 59 10 132 -18 156 -21 18 -25 32 -8 32 6 0 20 11 31 25 19
25 42 32 52 17z m-487 -164 c-3 -8 -6 -5 -6 6 -1 11 2 17 5 13 3 -3 4 -12 1
-19z m-77 -98 c0 -5 -4 -10 -10 -10 -5 0 -10 5 -10 10 0 6 5 10 10 10 6 0 10
-4 10 -10z m-20 -60 c0 -5 7 -10 15 -10 8 0 15 -4 15 -9 0 -5 -13 -4 -30 2
-32 12 -40 27 -15 27 8 0 15 -4 15 -10z m-166 -39 c4 -5 -3 -7 -14 -4 -23 6
-26 13 -6 13 8 0 17 -4 20 -9z m-342 -95 c4 -19 1 -22 -14 -18 -10 2 -18 10
-18 17 0 8 -8 16 -17 18 -10 3 -4 5 13 6 26 1 33 -3 36 -23z m-1229 -13 c-7
-2 -19 -2 -25 0 -7 3 -2 5 12 5 14 0 19 -2 13 -5z m3330 -193 c-1 -41 -5 -140
-7 -220 -3 -80 -10 -165 -15 -190 -6 -25 -10 -70 -11 -100 l0 -55 -30 45 c-16
25 -30 48 -30 52 0 4 -12 33 -26 65 -23 49 -26 66 -21 121 6 61 66 256 91 297
7 11 19 43 26 70 14 48 15 49 20 20 3 -16 4 -64 3 -105z m-1392 -10 c30 -129
35 -144 60 -154 46 -20 54 -56 12 -56 -32 0 -112 -29 -130 -46 -7 -7 -13 -19
-14 -26 0 -10 -2 -10 -6 0 -2 6 -13 12 -24 12 -10 0 -19 -6 -19 -12 0 -14 -96
-15 -176 -3 -30 5 -45 3 -57 -9 -8 -9 -17 -16 -20 -16 -2 0 -4 26 -4 58 0 73
-17 125 -51 154 -24 20 -27 29 -24 71 2 26 0 47 -4 47 -5 0 -18 7 -28 15 -19
15 -19 15 2 35 33 31 54 25 81 -24 13 -25 40 -57 62 -72 21 -14 41 -36 45 -47
11 -33 60 -87 80 -87 7 0 34 -11 60 -25 56 -30 91 -31 122 -6 28 24 28 55 1
106 -28 55 -55 136 -51 157 2 9 13 18 25 20 24 4 43 -26 58 -92z m-1291 70 c0
-11 -7 -20 -15 -20 -13 0 -13 3 -3 20 7 11 14 20 15 20 2 0 3 -9 3 -20z m1988
-226 c26 -26 37 -42 25 -35 -12 6 -28 17 -35 25 -8 7 -32 23 -54 34 -37 20
-38 21 -11 22 19 0 41 -13 75 -46z m-1382 -79 c18 -14 42 -25 53 -25 35 0 86
-34 76 -51 -3 -3 -28 -9 -56 -11 -35 -4 -57 -12 -66 -24 -12 -17 -13 -17 -13
4 0 15 -6 22 -20 22 -18 0 -20 4 -14 35 5 31 4 35 -14 35 -12 0 -38 -17 -58
-37 -20 -21 -35 -33 -33 -28 18 42 34 65 46 65 7 0 22 9 33 20 25 25 26 25 66
-5z m-616 -34 c3 -3 14 -11 25 -17 25 -14 41 -67 29 -95 -9 -20 -10 -20 -30
-2 -12 10 -36 44 -54 76 l-32 58 28 -7 c16 -4 31 -10 34 -13z m899 -45 c-10
-8 -89 -13 -89 -5 0 5 21 9 47 9 25 0 44 -2 42 -4z m1598 -52 c2 -6 -5 -14
-17 -17 -11 -3 -20 -1 -20 3 0 5 -12 13 -27 19 -26 9 -24 10 16 8 25 -1 46 -7
48 -13z m-94 -86 c5 -37 3 -43 -12 -33 -13 8 -15 65 -2 65 5 0 11 -15 14 -32z
m-2203 -64 c0 -8 -4 -14 -10 -14 -5 0 -10 9 -10 21 0 11 5 17 10 14 6 -3 10
-13 10 -21z m114 -26 c6 -4 -1 -8 -16 -8 -21 0 -28 5 -28 19 0 24 24 34 29 12
2 -9 8 -19 15 -23z m2140 27 c3 -8 1 -15 -4 -15 -6 0 -10 7 -10 15 0 8 2 15 4
15 2 0 6 -7 10 -15z m-21 -45 c6 -24 1 -25 -19 -6 -18 18 -18 26 0 26 7 0 16
-9 19 -20z m-2243 -44 c5 -34 4 -43 -7 -39 -8 3 -13 22 -13 51 0 55 11 49 20
-12z m72 -6 c-2 -16 -6 -30 -8 -30 -2 0 -4 14 -4 30 0 17 4 30 8 30 5 0 7 -13
4 -30z m2228 -48 c0 -10 -4 -10 -15 2 -8 8 -15 23 -15 32 0 16 1 16 15 -2 8
-10 15 -25 15 -32z m-163 -49 c-3 -10 -5 -2 -5 17 0 19 2 27 5 18 2 -10 2 -26
0 -35z m-39 -114 c-3 -8 -7 -3 -11 10 -4 17 -3 21 5 13 5 -5 8 -16 6 -23z
m-77 -95 c-9 -28 -9 -29 -10 -3 -1 14 2 29 6 32 11 12 13 2 4 -29z m338 -138
c5 -42 10 -52 27 -54 13 -2 25 -13 28 -25 7 -28 6 -97 -1 -77 -4 8 -16 23 -29
32 -17 14 -24 33 -29 83 -4 36 -11 68 -16 71 -5 3 -9 17 -9 32 1 24 2 25 12 8
6 -10 13 -42 17 -70z m-2297 4 c6 -40 -4 -55 -28 -41 -11 6 -13 11 -6 11 7 0
12 13 12 30 0 39 16 39 22 0z m454 3 c-10 -10 -19 5 -10 18 6 11 8 11 12 0 2
-7 1 -15 -2 -18z m1391 -180 c-4 -17 -4 -17 -12 0 -4 9 -4 25 0 35 8 16 8 16
12 0 3 -10 3 -26 0 -35z m413 -147 c0 -7 -14 -16 -32 -20 -36 -7 -50 -1 -19 9
12 3 21 11 21 16 0 5 7 9 15 9 8 0 15 -6 15 -14z"/>
<path d="M1780 2159 c-19 -4 -47 -11 -62 -15 -18 -4 -28 -13 -28 -25 0 -18 7
-19 80 -17 44 2 80 0 80 -4 0 -5 9 -8 20 -8 11 0 20 6 20 14 0 25 -12 46 -26
46 -8 0 -14 5 -14 10 0 11 -20 11 -70 -1z"/>
</g>
</svg>
