<?xml version="1.0" standalone="no"?>
<!DOCTYPE svg PUBLIC "-//W3C//DTD SVG 20010904//EN"
 "http://www.w3.org/TR/2001/REC-SVG-20010904/DTD/svg10.dtd">
<svg version="1.0" xmlns="http://www.w3.org/2000/svg"
 width="520.000000pt" height="213.000000pt" viewBox="0 0 520.000000 213.000000"
 preserveAspectRatio="xMidYMid meet">
<metadata>
Created by potrace 1.13, written by Peter Selinger 2001-2015
</metadata>
<g transform="translate(0.000000,213.000000) scale(0.100000,-0.100000)"
fill="#000000" stroke="none">
<path d="M1650 1763 c-134 -3 -183 -7 -208 -19 -21 -10 -61 -16 -105 -16 -40
0 -115 -4 -167 -9 -52 -5 -232 -11 -399 -14 -369 -6 -351 0 -351 -114 0 -132
-24 -124 361 -128 254 -3 327 -7 338 -18 14 -14 6 -79 -25 -205 -20 -77 -19
-389 1 -475 8 -36 22 -95 31 -133 24 -107 58 -164 136 -234 107 -96 160 -121
294 -138 92 -12 1028 -15 1246 -4 119 5 151 4 164 -7 24 -20 160 -17 199 5 24
13 62 16 195 16 293 0 1028 22 1223 36 97 7 128 22 179 85 32 39 34 56 59 359
23 295 28 379 28 570 0 253 -1 263 -53 304 -62 50 -119 83 -172 100 -97 31
-1974 55 -2974 39z"/>
</g>
</svg>
