<?xml version="1.0" standalone="no"?>
<!DOCTYPE svg PUBLIC "-//W3C//DTD SVG 20010904//EN"
 "http://www.w3.org/TR/2001/REC-SVG-20010904/DTD/svg10.dtd">
<svg version="1.0" xmlns="http://www.w3.org/2000/svg"
 width="427.000000pt" height="169.000000pt" viewBox="0 0 427.000000 169.000000"
 preserveAspectRatio="xMidYMid meet">
<metadata>
Created by potrace 1.13, written by Peter Selinger 2001-2015
</metadata>
<g transform="translate(0.000000,169.000000) scale(0.100000,-0.100000)"
fill="#000000" stroke="none">
<path d="M1205 1370 c-44 -5 -102 -13 -129 -18 -27 -6 -120 -8 -207 -5 -134 5
-162 4 -182 -10 -26 -17 -60 -17 -353 -2 -127 7 -136 3 -155 -67 -14 -53 -4
-104 24 -122 16 -10 85 -17 240 -23 234 -11 240 -12 231 -63 -7 -37 -25 -261
-29 -364 -4 -98 29 -292 63 -369 24 -54 90 -113 141 -127 23 -6 96 -15 163
-20 68 -5 168 -15 223 -21 116 -14 582 -18 608 -6 9 4 68 12 130 18 61 6 153
15 202 20 88 9 340 20 920 39 338 11 737 35 832 50 78 13 121 33 133 63 19 45
40 379 40 623 0 221 -2 252 -18 276 -26 39 -65 67 -125 87 -68 24 -321 33
-1002 36 -275 1 -763 5 -1085 8 -322 3 -621 2 -665 -3z"/>
</g>
</svg>
