<?xml version="1.0" standalone="no"?>
<!DOCTYPE svg PUBLIC "-//W3C//DTD SVG 20010904//EN"
 "http://www.w3.org/TR/2001/REC-SVG-20010904/DTD/svg10.dtd">
<svg version="1.0" xmlns="http://www.w3.org/2000/svg"
 width="445.000000pt" height="191.000000pt" viewBox="0 0 445.000000 191.000000"
 preserveAspectRatio="xMidYMid meet">
<metadata>
Created by potrace 1.13, written by Peter Selinger 2001-2015
</metadata>
<g transform="translate(0.000000,191.000000) scale(0.100000,-0.100000)"
fill="#000000" stroke="none">
<path d="M1503 1620 c-46 -5 -87 -11 -92 -14 -5 -3 -64 -11 -131 -16 -98 -8
-130 -15 -159 -32 -35 -22 -41 -23 -305 -19 -325 3 -381 -5 -403 -57 -15 -36
-9 -97 11 -110 26 -17 144 -32 346 -43 137 -7 220 -16 228 -24 10 -9 10 -22 3
-56 -34 -152 -32 -494 3 -710 28 -167 52 -191 217 -212 57 -7 114 -19 126 -25
14 -8 84 -12 205 -12 137 0 189 -3 203 -13 34 -23 64 -26 121 -11 75 19 134
18 194 -6 48 -19 53 -19 88 -4 34 15 119 17 923 15 956 -3 941 -4 969 49 7 13
16 131 22 298 13 316 0 891 -21 930 -6 12 -23 29 -37 39 -28 18 74 15 -1319
27 -363 3 -761 8 -885 10 -124 3 -262 1 -307 -4z"/>
</g>
</svg>
