<?xml version="1.0" standalone="no"?>
<!DOCTYPE svg PUBLIC "-//W3C//DTD SVG 20010904//EN"
 "http://www.w3.org/TR/2001/REC-SVG-20010904/DTD/svg10.dtd">
<svg version="1.0" xmlns="http://www.w3.org/2000/svg"
 width="378.000000pt" height="172.000000pt" viewBox="0 0 378.000000 172.000000"
 preserveAspectRatio="xMidYMid meet">
<metadata>
Created by potrace 1.13, written by Peter Selinger 2001-2015
</metadata>
<g transform="translate(0.000000,172.000000) scale(0.100000,-0.100000)"
fill="#000000" stroke="none">
<path d="M1370 1439 c-300 -8 -439 -24 -485 -55 -31 -21 -47 -22 -279 -29
-136 -4 -249 -12 -252 -16 -3 -5 -16 -6 -29 -3 -18 4 -26 0 -35 -17 -12 -21
-9 -103 3 -116 9 -8 507 -24 520 -16 7 4 8 -16 4 -63 -4 -38 -9 -150 -13 -249
-6 -160 -4 -196 16 -320 30 -183 40 -205 105 -222 28 -7 84 -16 125 -19 51 -5
81 -12 95 -25 14 -13 31 -17 60 -14 22 3 86 8 142 11 97 7 104 6 152 -20 54
-28 90 -28 123 1 24 21 97 18 143 -6 50 -26 52 -26 111 5 44 23 56 25 113 20
81 -9 1430 -8 1471 1 17 3 36 15 41 26 7 13 13 169 17 441 5 468 -3 610 -40
643 -24 22 -178 26 -1192 38 -352 4 -647 8 -655 9 -9 1 -126 -1 -261 -5z"/>
</g>
</svg>
