<?xml version="1.0" standalone="no"?>
<!DOCTYPE svg PUBLIC "-//W3C//DTD SVG 20010904//EN"
 "http://www.w3.org/TR/2001/REC-SVG-20010904/DTD/svg10.dtd">
<svg version="1.0" xmlns="http://www.w3.org/2000/svg"
 width="284.000000pt" height="292.000000pt" viewBox="0 0 284.000000 292.000000"
 preserveAspectRatio="xMidYMid meet">
<metadata>
Created by potrace 1.13, written by Peter Selinger 2001-2015
</metadata>
<g transform="translate(0.000000,292.000000) scale(0.100000,-0.100000)"
fill="#000000" stroke="none">
<path d="M257 2885 c-20 -19 -45 -35 -55 -35 -12 0 -31 -17 -48 -42 -15 -24
-33 -48 -38 -53 -20 -19 -46 -73 -46 -97 0 -15 -10 -29 -29 -39 -29 -17 -49
-67 -36 -89 4 -6 29 -9 61 -7 34 3 61 -1 72 -9 15 -11 16 -15 2 -46 -8 -18
-15 -63 -15 -100 0 -58 3 -70 22 -83 20 -14 21 -18 9 -48 -8 -17 -19 -59 -26
-92 -70 -348 -73 -371 -73 -455 2 -104 25 -194 79 -302 65 -130 157 -237 292
-340 31 -24 59 -45 62 -49 3 -3 41 -33 85 -66 88 -66 165 -133 165 -142 0 -4
-10 -11 -22 -16 -32 -14 -71 -100 -76 -165 -3 -49 0 -60 28 -97 28 -38 36 -43
71 -43 32 0 39 3 39 20 0 11 7 20 15 20 19 0 20 36 1 43 -23 9 -30 94 -11 123
22 34 51 28 47 -9 -3 -24 0 -27 28 -27 18 0 33 6 37 15 4 13 8 12 22 -7 31
-44 41 -93 41 -203 0 -155 -6 -182 -41 -194 -16 -5 -59 -7 -97 -4 -79 6 -112
-6 -112 -40 0 -20 -10 -26 -60 -41 -46 -14 -60 -23 -60 -37 0 -10 7 -19 15
-19 8 0 15 -5 15 -11 0 -11 11 -11 125 7 l40 6 -25 -18 c-14 -10 -28 -23 -32
-28 -11 -16 -10 -66 2 -66 26 0 110 23 110 30 0 5 25 21 55 36 31 14 58 30 61
35 9 15 87 33 129 30 93 -6 130 47 52 74 -43 15 -77 49 -77 77 0 23 26 50 63
66 20 8 27 19 27 38 0 26 -1 26 -47 19 l-46 -7 8 109 c5 59 9 142 9 184 l0 76
90 6 c99 6 133 17 178 59 17 16 46 36 65 45 19 9 39 27 44 40 6 17 16 23 39
23 51 0 124 22 143 43 17 20 17 20 17 -1 0 -14 6 -22 18 -22 21 1 52 23 52 39
0 6 5 11 10 11 6 0 10 7 10 16 0 23 25 44 54 44 16 0 26 6 26 15 0 8 5 15 10
15 6 0 10 6 10 14 0 8 9 17 19 21 19 6 23 18 37 117 6 45 7 46 31 37 48 -18
56 -13 50 32 -5 40 -5 41 37 59 23 11 52 30 66 44 13 15 28 26 33 26 17 0 117
111 123 136 4 14 3 39 0 57 -8 40 -8 50 0 113 5 40 3 54 -11 67 -9 9 -12 17
-6 17 17 0 25 89 11 131 -10 30 -10 42 -1 53 6 7 14 36 18 63 6 54 -8 93 -33
93 -12 0 -14 5 -8 17 14 32 17 113 4 128 -9 11 -8 19 4 37 9 12 16 31 16 40 0
40 54 7 145 -86 136 -140 229 -196 328 -196 59 0 49 29 -47 123 -46 45 -96 99
-111 120 l-28 38 44 -7 c24 -4 52 -11 63 -16 10 -6 63 -12 117 -15 l99 -6 0
24 c0 47 -114 126 -245 172 -71 25 -139 40 -230 52 -27 4 -86 24 -130 45 -179
86 -329 98 -525 43 -78 -22 -117 -44 -217 -120 -105 -80 -108 -84 -168 -196
-75 -144 -107 -285 -95 -425 10 -109 1 -139 -50 -177 -39 -28 -64 -30 -136
-11 -125 33 -175 114 -224 361 -24 119 -35 153 -86 260 -27 56 -139 185 -161
185 -11 0 -25 11 -97 78 l-46 42 40 40 c38 38 40 43 40 105 l0 65 -90 0 c-53
0 -90 4 -90 10 0 22 -39 8 -73 -25z"/>
</g>
</svg>
