<?xml version="1.0" standalone="no"?>
<!DOCTYPE svg PUBLIC "-//W3C//DTD SVG 20010904//EN"
 "http://www.w3.org/TR/2001/REC-SVG-20010904/DTD/svg10.dtd">
<svg version="1.0" xmlns="http://www.w3.org/2000/svg"
 width="214.000000pt" height="261.000000pt" viewBox="0 0 214.000000 261.000000"
 preserveAspectRatio="xMidYMid meet">
<metadata>
Created by potrace 1.13, written by Peter Selinger 2001-2015
</metadata>
<g transform="translate(0.000000,261.000000) scale(0.100000,-0.100000)"
fill="#000000" stroke="none">
<path d="M390 2591 c-14 -5 -37 -12 -52 -15 -15 -3 -33 -12 -40 -20 -8 -7 -28
-21 -46 -30 -18 -9 -32 -24 -32 -34 0 -9 -16 -30 -35 -45 -19 -15 -35 -34 -35
-42 0 -8 -4 -15 -10 -15 -12 0 -13 -37 -1 -44 21 -13 21 -56 1 -78 -33 -36
-26 -65 19 -79 56 -17 62 -53 16 -96 -51 -49 -68 -88 -63 -145 3 -29 1 -54 -6
-61 -29 -31 -48 -83 -55 -150 -5 -40 -14 -83 -20 -95 -6 -12 -14 -51 -17 -87
-4 -53 -2 -65 10 -65 20 0 24 -17 19 -71 -7 -56 11 -137 43 -199 13 -25 26
-57 29 -72 9 -37 50 -79 120 -123 33 -21 74 -52 91 -69 17 -17 61 -46 98 -65
36 -18 66 -38 66 -45 0 -7 13 -25 29 -40 16 -16 32 -40 36 -54 3 -14 20 -43
37 -64 27 -35 31 -48 39 -149 11 -124 3 -150 -49 -170 -15 -6 -51 -22 -80 -35
-29 -13 -59 -24 -68 -24 -23 0 -74 -42 -74 -62 0 -9 10 -23 23 -29 12 -6 31
-19 42 -29 25 -22 88 -14 188 24 37 14 77 26 87 26 11 0 20 5 20 10 0 6 28 38
61 71 51 50 65 60 86 54 22 -5 24 -3 21 22 l-3 28 -89 -4 -89 -3 7 23 c5 13
11 44 16 69 10 64 17 75 61 104 24 16 39 34 39 46 0 26 17 26 25 0 3 -11 17
-23 31 -26 13 -3 24 -13 24 -20 0 -8 10 -28 22 -44 27 -37 35 -151 15 -225
-11 -42 -20 -54 -53 -72 -21 -13 -59 -29 -84 -37 -134 -43 -145 -52 -111 -96
16 -20 21 -22 35 -11 14 12 16 11 16 -7 0 -25 29 -44 50 -32 8 4 55 16 103 25
66 14 92 23 106 40 27 35 82 65 119 65 22 0 32 5 32 15 0 27 -29 73 -50 80
-29 9 -60 54 -60 86 0 16 6 43 14 61 8 18 24 58 36 88 44 111 56 131 93 170
14 13 17 27 13 47 -4 17 0 39 9 57 8 15 15 38 15 50 0 28 27 66 46 66 8 0 17
8 21 18 6 15 21 36 100 139 38 49 63 73 78 73 8 0 15 5 15 10 0 6 6 10 13 10
23 0 60 67 53 96 -4 16 -1 34 7 48 18 27 34 226 18 226 -6 0 -11 10 -11 23 -1
12 -7 33 -14 46 -7 12 -11 34 -8 48 4 21 9 24 40 21 34 -3 36 -5 65 -83 30
-80 57 -114 89 -115 26 0 32 18 31 92 -1 47 3 68 11 68 20 0 46 -90 46 -157 0
-34 3 -68 6 -77 8 -20 44 -21 44 -1 0 8 5 15 10 15 16 0 31 48 38 120 l7 65
30 -57 c30 -58 59 -75 71 -43 10 24 -16 139 -39 178 -22 36 -81 87 -101 87
-11 0 -75 70 -76 82 0 22 -150 148 -174 148 -5 0 -17 6 -25 14 -21 18 -121 31
-121 16 0 -8 -15 -9 -45 -4 -56 8 -135 -3 -135 -19 0 -8 -13 -11 -39 -9 -29 3
-52 -4 -97 -29 -65 -36 -95 -66 -181 -181 -33 -45 -65 -78 -75 -78 -10 0 -18
-4 -18 -10 0 -5 -9 -10 -20 -10 -16 0 -21 -9 -26 -49 -6 -44 -10 -51 -43 -66
-32 -14 -44 -15 -87 -4 -85 21 -82 17 -89 137 -3 59 -5 162 -5 228 1 116 0
125 -29 187 -17 35 -37 83 -44 106 l-15 41 42 11 c59 16 71 23 74 48 2 12 14
26 28 31 39 15 32 80 -11 94 -11 3 -28 19 -37 36 -9 16 -28 32 -41 35 -14 4
-27 15 -30 26 -4 14 -14 19 -40 19 -19 0 -54 2 -78 5 -24 2 -55 0 -69 -4z"/>
</g>
</svg>
