<?xml version="1.0" standalone="no"?>
<!DOCTYPE svg PUBLIC "-//W3C//DTD SVG 20010904//EN"
 "http://www.w3.org/TR/2001/REC-SVG-20010904/DTD/svg10.dtd">
<svg version="1.0" xmlns="http://www.w3.org/2000/svg"
 width="283.000000pt" height="246.000000pt" viewBox="0 0 283.000000 246.000000"
 preserveAspectRatio="xMidYMid meet">
<metadata>
Created by potrace 1.13, written by Peter Selinger 2001-2015
</metadata>
<g transform="translate(0.000000,246.000000) scale(0.100000,-0.100000)"
fill="#000000" stroke="none">
<path d="M220 2433 c-30 -9 -57 -19 -60 -22 -3 -3 -17 -12 -32 -20 -16 -8 -28
-18 -28 -23 0 -4 -7 -8 -15 -8 -8 0 -15 -6 -15 -13 0 -7 -9 -19 -20 -27 -11
-8 -20 -22 -20 -32 0 -10 -4 -18 -10 -18 -5 0 -10 -13 -10 -29 0 -50 12 -91
27 -91 7 0 16 -7 19 -15 4 -8 12 -15 19 -15 10 0 12 -10 8 -37 l-6 -36 36 6
c34 5 37 4 37 -17 0 -12 -9 -51 -21 -86 -20 -61 -20 -65 -4 -107 16 -41 16
-49 2 -96 -19 -63 -39 -187 -36 -219 1 -13 -1 -40 -5 -60 -12 -58 11 -234 41
-313 27 -70 73 -157 99 -185 64 -69 95 -96 138 -124 75 -47 179 -95 276 -127
124 -40 150 -53 200 -96 25 -22 61 -49 81 -61 66 -40 85 -64 97 -127 7 -32 12
-78 12 -101 l0 -43 -55 -16 c-30 -9 -55 -20 -55 -25 0 -5 -16 -14 -35 -20 -19
-6 -35 -18 -35 -26 0 -8 -3 -14 -7 -14 -16 0 -63 -48 -63 -65 0 -14 8 -16 50
-13 35 2 50 -1 50 -9 0 -21 54 -15 104 12 56 30 56 30 56 6 0 -11 5 -21 10
-23 6 -2 -1 -16 -16 -31 -28 -30 -29 -60 -1 -65 21 -4 136 54 154 77 10 13 12
9 13 -26 0 -32 4 -43 15 -43 16 0 78 64 110 114 37 58 75 93 116 105 32 10 40
16 37 33 -4 27 -48 41 -106 33 l-42 -6 -30 66 c-40 90 -53 140 -45 186 6 33
11 39 31 39 13 0 24 5 24 10 0 6 13 10 29 10 17 0 33 5 36 10 3 6 17 10 31 10
13 0 24 5 24 11 0 8 13 9 39 5 45 -7 71 0 71 19 0 7 7 18 15 25 10 9 15 9 15
1 0 -6 9 -11 20 -11 11 0 20 7 20 15 0 9 9 15 23 15 18 0 26 9 37 43 11 30 21
43 38 45 12 2 22 9 22 15 0 7 9 20 20 30 11 9 20 23 20 31 0 21 19 30 35 16
18 -15 65 -5 65 13 0 9 10 12 30 9 21 -3 30 0 30 9 0 9 7 5 18 -9 13 -16 32
-24 70 -29 48 -5 52 -4 52 16 0 11 -4 21 -10 21 -5 0 -14 17 -19 38 -16 55
-13 61 10 25 12 -18 27 -33 34 -33 7 0 24 -9 39 -21 18 -14 34 -19 51 -15 33
8 32 27 -3 64 -17 18 -33 51 -40 82 -16 68 -15 70 8 70 17 0 20 -7 20 -51 0
-46 2 -50 22 -47 18 2 25 13 35 58 7 30 11 63 9 73 -2 9 0 17 4 17 5 0 11 21
13 48 3 42 4 41 5 -15 2 -56 4 -63 22 -63 16 0 20 7 20 30 0 17 5 30 10 30 6
0 10 11 10 24 0 49 47 37 65 -16 4 -10 15 -18 26 -18 22 0 24 20 8 125 -11 77
-5 135 14 135 20 0 37 80 33 150 l-5 65 19 -80 c13 -52 19 -117 20 -187 0
-112 5 -124 43 -114 19 4 27 22 50 108 16 59 27 129 27 163 0 120 -48 326 -92
402 -27 45 -8 40 26 -7 36 -51 103 -176 127 -240 42 -109 48 -127 81 -233 29
-93 36 -107 53 -105 19 3 20 10 19 153 0 90 -5 171 -13 200 -32 122 -64 222
-80 245 -9 14 -26 45 -39 70 -44 89 -198 225 -315 279 -173 79 -457 85 -652
14 -57 -21 -165 -95 -227 -156 -91 -89 -177 -230 -212 -347 -9 -30 -21 -69
-27 -87 -5 -17 -11 -63 -12 -101 -2 -62 -4 -69 -19 -61 -9 5 -49 21 -89 35
-150 54 -192 99 -245 259 -93 280 -178 393 -331 438 -40 11 -73 23 -73 27 0 3
16 16 35 29 33 23 45 53 26 66 -5 3 -70 7 -143 10 -103 3 -146 0 -188 -12z
m395 -409 c-11 -8 -16 -21 -12 -34 3 -11 1 -20 -4 -20 -5 0 -9 11 -9 25 0 19
-6 25 -22 26 l-23 2 23 4 c12 2 22 8 22 13 0 4 10 6 21 3 21 -6 21 -7 4 -19z
m1870 6 c3 -5 1 -10 -4 -10 -6 0 -11 5 -11 10 0 6 2 10 4 10 3 0 8 -4 11 -10z
m-1825 -129 c0 -19 -29 -19 -35 0 -9 26 -45 25 -45 -1 0 -13 -7 -20 -20 -20
-13 0 -20 -7 -20 -20 0 -11 -4 -20 -10 -20 -5 0 -10 -7 -10 -16 0 -9 -7 -14
-17 -12 -20 3 -43 92 -28 105 4 5 10 2 12 -4 6 -18 61 -16 79 2 9 8 24 15 35
15 10 0 19 5 19 10 0 6 9 1 20 -10 11 -11 20 -24 20 -29z m-381 0 c-3 -31 -15
-38 -44 -25 -16 7 -24 13 -17 14 6 0 12 6 12 14 0 9 8 12 25 8 14 -2 25 -7 24
-11z m198 -121 c13 0 13 -2 -1 -15 -16 -17 -76 -21 -76 -5 0 6 7 10 15 10 8 0
15 5 15 11 0 6 7 8 16 5 9 -3 22 -6 31 -6z m342 -409 c9 -6 4 -10 -18 -13 -21
-3 -31 0 -31 9 0 15 28 17 49 4z m1326 -136 c3 -14 8 -37 11 -52 l5 -28 -35
34 c-29 29 -33 36 -23 52 16 26 36 24 42 -6z m-938 -327 c-3 -8 -6 -5 -6 6 -1
11 2 17 5 13 3 -3 4 -12 1 -19z m-37 -526 c25 -57 25 -57 -7 -66 -24 -7 -26 0
-38 104 -6 50 -5 53 8 35 8 -11 25 -44 37 -73z"/>
</g>
</svg>
