<?xml version="1.0" standalone="no"?>
<!DOCTYPE svg PUBLIC "-//W3C//DTD SVG 20010904//EN"
 "http://www.w3.org/TR/2001/REC-SVG-20010904/DTD/svg10.dtd">
<svg version="1.0" xmlns="http://www.w3.org/2000/svg"
 width="377.000000pt" height="372.000000pt" viewBox="0 0 377.000000 372.000000"
 preserveAspectRatio="xMidYMid meet">
<metadata>
Created by potrace 1.13, written by Peter Selinger 2001-2015
</metadata>
<g transform="translate(0.000000,372.000000) scale(0.100000,-0.100000)"
fill="#000000" stroke="none">
<path d="M1577 3584 c-2 -2 -18 -5 -36 -6 -18 -1 -36 -8 -38 -15 -3 -7 -9 -10
-15 -7 -11 7 -50 -33 -65 -68 -8 -18 -9 -29 -2 -34 5 -3 9 -13 7 -22 -1 -10 1
-22 5 -29 4 -6 3 -14 -3 -18 -5 -3 -10 -3 -10 1 0 4 -6 -1 -14 -12 -13 -17
-12 -21 1 -36 9 -10 22 -18 30 -18 11 0 10 -5 -3 -25 -9 -14 -23 -25 -30 -25
-8 0 -14 -4 -14 -10 0 -5 -7 -10 -15 -10 -8 0 -15 -4 -15 -9 0 -5 -10 -13 -22
-17 -29 -9 -46 -26 -40 -42 2 -6 0 -12 -5 -12 -4 0 -9 -12 -10 -26 -1 -27 -20
-47 -35 -38 -4 3 -8 0 -8 -5 0 -6 -7 -11 -15 -11 -8 0 -15 -7 -15 -16 0 -8 -4
-12 -10 -9 -5 3 -15 -3 -22 -15 -7 -11 -17 -20 -22 -20 -5 0 -19 -10 -32 -22
-13 -13 -34 -34 -48 -47 -14 -14 -23 -28 -20 -33 3 -4 0 -8 -7 -8 -14 0 -101
-85 -99 -97 0 -4 -10 -22 -24 -40 -15 -18 -26 -37 -26 -42 0 -6 -4 -11 -10
-11 -5 0 -10 -7 -10 -15 0 -8 -5 -15 -11 -15 -5 0 -8 -4 -4 -9 5 -9 -13 -59
-25 -71 -3 -3 -6 -12 -6 -20 -3 -28 -15 -83 -20 -91 -7 -11 -7 -125 0 -179 2
-25 12 -62 21 -82 8 -21 13 -38 10 -38 -3 0 1 -13 10 -30 9 -16 12 -30 8 -30
-4 0 2 -7 13 -15 10 -8 16 -15 12 -15 -10 0 26 -69 81 -155 24 -38 44 -76 44
-82 0 -7 4 -13 8 -13 3 0 10 -10 14 -22 11 -33 12 -38 15 -40 1 -2 4 -25 6
-53 3 -27 10 -55 16 -62 5 -7 8 -19 5 -27 -3 -8 -2 -16 3 -18 12 -4 24 -98 13
-98 -7 0 -33 -49 -37 -71 0 -3 -17 -24 -36 -45 -33 -37 -70 -49 -70 -22 0 6
-3 8 -7 5 -3 -4 -12 -2 -19 4 -7 6 -28 11 -46 11 -18 0 -38 5 -44 10 -7 5 -29
5 -53 -1 -27 -6 -41 -5 -41 1 0 6 -6 5 -15 -2 -12 -10 -15 -10 -15 1 -1 9 -6
7 -16 -6 -13 -18 -12 -22 17 -47 17 -15 35 -26 39 -23 4 2 5 -6 3 -18 -7 -35
46 -61 136 -66 11 -1 11 -5 -2 -19 -11 -12 -13 -22 -7 -28 6 -6 2 -10 -13 -12
-55 -6 -76 -17 -77 -43 0 -8 49 -31 75 -35 11 -2 37 -7 57 -12 24 -7 40 -6 47
1 8 8 11 6 11 -6 0 -9 -3 -17 -8 -17 -4 0 -13 -9 -20 -20 -10 -17 -10 -23 1
-35 8 -8 18 -11 22 -7 3 4 21 8 38 9 30 2 72 9 72 13 0 2 32 10 60 15 11 2 34
6 50 9 18 3 42 -1 59 -9 16 -9 37 -13 48 -10 22 8 24 41 2 49 -9 4 -14 9 -11
13 8 8 -32 43 -49 43 -7 0 -18 9 -24 20 -8 14 -8 20 0 20 6 0 9 3 6 8 -5 8 26
109 47 152 6 14 27 39 46 57 30 27 36 29 49 17 8 -8 19 -13 25 -11 7 2 20 -4
30 -14 10 -9 26 -16 35 -14 9 1 20 -2 23 -8 4 -5 17 -10 29 -11 19 -1 31 -13
47 -44 0 -2 7 -4 15 -6 7 -1 19 -5 26 -9 7 -5 12 -3 12 5 0 8 9 14 20 14 12 0
20 -7 20 -17 0 -20 27 -33 33 -16 2 8 12 6 30 -6 15 -10 27 -14 27 -9 0 9 45
34 65 37 6 1 16 -3 23 -8 8 -6 17 -5 27 3 8 6 19 9 25 5 6 -4 22 1 37 10 21
14 27 15 34 4 5 -8 9 -20 9 -26 0 -7 3 -13 8 -14 4 0 17 -2 30 -5 12 -2 22 1
22 7 0 5 11 -3 25 -18 16 -19 25 -23 25 -13 0 13 2 13 9 1 6 -9 6 -22 0 -32
-7 -14 -4 -19 11 -24 11 -3 19 -10 17 -15 -1 -4 9 -17 22 -29 18 -16 27 -18
38 -10 10 9 10 15 2 25 -8 10 -8 14 0 14 6 0 10 3 9 8 -1 4 5 21 15 37 l17 30
-4 -40 c-2 -24 2 -45 10 -53 8 -7 14 -24 14 -37 0 -37 41 -55 67 -29 8 8 10
14 5 14 -13 0 -6 94 8 98 5 2 8 8 4 13 -3 5 -1 9 4 9 6 0 13 12 16 26 4 16 12
24 23 22 27 -5 25 -24 -7 -58 -22 -24 -28 -36 -20 -44 21 -21 31 -17 83 29 15
14 32 25 38 25 5 0 9 6 9 13 0 8 7 14 15 14 18 0 20 -24 3 -30 -10 -3 -10 -7
1 -20 13 -16 15 -16 32 4 10 11 25 22 33 23 9 1 23 11 31 22 8 11 15 14 15 6
0 -6 6 -11 13 -10 6 2 11 -1 10 -7 0 -5 -3 -24 -6 -42 -3 -21 0 -36 9 -44 8
-7 16 -10 18 -8 1 2 18 27 36 54 19 28 38 53 44 57 6 4 7 10 3 14 -13 13 64
75 84 69 10 -4 26 0 34 7 56 46 83 76 89 95 4 11 14 27 24 35 15 12 15 10 -1
-14 -10 -16 -15 -28 -12 -28 3 0 -6 -17 -20 -37 -14 -21 -25 -41 -25 -46 0 -8
-54 -75 -112 -139 -16 -17 -28 -36 -28 -43 0 -28 57 -45 66 -20 4 8 10 12 15
9 5 -3 9 0 9 5 0 6 6 11 13 11 7 0 24 11 39 24 14 14 28 23 31 20 4 -5 33 23
107 105 16 18 30 39 30 46 0 6 9 20 20 30 11 10 17 21 15 25 -3 4 1 13 8 18 7
6 19 27 27 47 7 19 18 35 23 35 5 0 7 7 3 15 -3 8 -1 15 5 15 6 0 9 7 5 15 -3
8 -2 15 3 15 11 0 26 50 30 100 1 20 3 22 11 9 5 -8 5 -31 1 -51 -6 -23 -5
-40 2 -47 8 -8 7 -11 -3 -11 -7 0 -11 -3 -7 -6 3 -3 0 -25 -7 -48 -7 -23 -12
-51 -11 -64 1 -12 -3 -22 -8 -22 -5 0 -7 -7 -3 -15 3 -8 0 -15 -6 -15 -6 0 -9
-3 -5 -6 6 -7 -13 -67 -24 -74 -4 -3 -11 -21 -14 -40 -3 -19 -11 -40 -17 -47
-6 -7 -7 -13 -2 -13 5 0 4 -4 -1 -8 -6 -4 -24 -41 -39 -82 -16 -41 -32 -79
-36 -85 -9 -11 9 -30 27 -30 14 0 166 176 159 183 -3 2 4 14 15 26 11 11 37
55 56 96 20 41 40 76 44 78 4 2 5 10 2 18 -3 8 0 14 7 14 6 0 9 4 5 9 -3 5 -1
12 5 16 6 4 8 10 5 15 -3 5 -2 11 3 14 4 2 9 22 10 42 2 21 6 41 10 44 14 11
19 153 7 220 -4 19 -7 47 -8 62 -1 15 -6 30 -10 34 -4 4 -7 16 -7 26 0 10 -7
35 -17 56 -9 20 -17 39 -17 42 -1 3 -7 15 -14 26 -6 12 -8 24 -5 28 3 3 1 6
-5 6 -7 0 -12 5 -12 10 0 6 -13 24 -29 39 -16 16 -28 31 -25 33 5 6 -53 67
-93 98 -17 13 -29 28 -27 32 3 4 -12 16 -33 27 -21 11 -49 30 -63 43 -25 24
-89 58 -108 58 -5 0 -15 6 -21 13 -19 23 -100 44 -201 52 -127 10 -188 5 -261
-20 -23 -8 -45 -12 -50 -9 -5 3 -9 0 -9 -6 0 -7 -7 -10 -15 -6 -8 3 -15 1 -15
-5 0 -6 -3 -8 -8 -5 -13 8 -175 -77 -210 -111 -7 -7 -17 -13 -21 -13 -14 0
-111 -100 -111 -115 0 -13 -2 -14 -14 -3 -8 7 -12 15 -11 17 2 2 -7 21 -21 43
-58 92 -70 118 -79 173 -2 11 -4 20 -5 20 -1 0 -3 21 -4 48 0 26 3 47 7 47 5
0 6 4 2 9 -3 5 -1 12 5 16 6 4 8 10 5 15 -3 5 -1 11 5 15 6 4 8 11 5 16 -4 5
-1 9 5 9 7 0 10 6 7 14 -3 8 -2 16 2 18 9 4 63 148 55 148 -4 0 -1 6 5 13 6 8
8 17 4 20 -3 4 -2 7 3 7 5 0 10 8 11 18 1 9 5 46 8 82 3 36 6 70 7 75 1 25
-15 92 -28 117 -8 15 -14 30 -14 34 1 3 -7 12 -17 20 -10 7 -14 14 -9 14 6 0
1 7 -10 15 -10 8 -15 15 -10 15 6 0 1 7 -10 15 -17 14 -15 15 34 13 37 -1 57
3 63 13 13 22 12 25 -31 60 -21 18 -37 36 -34 41 3 4 1 8 -4 8 -6 0 -23 12
-40 28 -52 48 -70 61 -114 84 -24 12 -45 22 -48 23 -3 0 -10 4 -17 8 -6 4 -18
4 -27 1 -9 -3 -16 -2 -16 2 0 8 -76 15 -83 8z m-128 -463 c7 -5 2 -12 -15 -19
-23 -11 -26 -10 -31 8 -3 11 -10 20 -17 21 -6 1 0 4 14 8 14 4 28 3 31 -2 4
-5 12 -13 18 -16z m329 -104 c6 3 12 0 12 -6 0 -18 -5 -26 -14 -23 -14 5 -36
-19 -29 -32 3 -6 0 -6 -7 1 -12 11 -11 15 6 27 19 15 19 15 -1 31 l-20 16 20
-9 c11 -5 26 -7 33 -5z m-163 -36 c-8 -15 40 -51 62 -47 12 3 27 -2 34 -10 7
-9 16 -11 23 -5 8 7 11 0 10 -22 -1 -25 -5 -32 -22 -33 -18 -1 -20 2 -11 17
15 28 -10 53 -32 33 -15 -13 -19 -13 -33 1 -15 15 -17 15 -22 0 -4 -9 -13 -14
-20 -11 -8 3 -14 1 -14 -4 0 -13 -27 -13 -34 -1 -7 11 14 61 34 83 15 15 35
15 25 -1z m-145 -62 c0 -8 5 -8 15 1 12 10 15 10 15 -4 0 -9 4 -16 9 -16 5 0
12 -7 15 -16 5 -14 4 -15 -9 -4 -11 9 -15 9 -15 0 0 -6 -13 -1 -29 12 -15 13
-26 26 -24 31 6 11 23 8 23 -4z m45 -555 l17 -26 -30 18 c-17 10 -29 21 -26
26 9 14 21 9 39 -18z m1702 -576 c-3 -8 -6 -5 -6 6 -1 11 2 17 5 13 3 -3 4
-12 1 -19z m-1687 -22 c0 -3 -4 -8 -10 -11 -5 -3 -10 -1 -10 4 0 6 5 11 10 11
6 0 10 -2 10 -4z m-359 -315 c-6 -10 -8 -21 -5 -24 3 -2 -2 -22 -10 -42 -9
-20 -14 -40 -12 -44 2 -3 -2 -12 -10 -18 -8 -8 -15 -9 -19 -3 -4 6 -11 8 -16
5 -19 -13 -8 35 16 63 14 17 25 35 25 40 0 11 27 42 36 42 3 0 0 -8 -5 -19z
m1282 -41 c-3 -10 -13 -27 -22 -37 -10 -10 -16 -25 -14 -33 4 -12 3 -13 -5 -1
-5 7 -10 31 -10 52 -1 28 4 39 16 42 27 6 40 -3 35 -23z m70 -84 c-10 -13 -19
-20 -21 -15 -4 10 19 38 31 39 4 0 0 -11 -10 -24z"/>
</g>
</svg>
