<?xml version="1.0" standalone="no"?>
<!DOCTYPE svg PUBLIC "-//W3C//DTD SVG 20010904//EN"
 "http://www.w3.org/TR/2001/REC-SVG-20010904/DTD/svg10.dtd">
<svg version="1.0" xmlns="http://www.w3.org/2000/svg"
 width="123.000000pt" height="99.000000pt" viewBox="0 0 123.000000 99.000000"
 preserveAspectRatio="xMidYMid meet">
<metadata>
Created by potrace 1.13, written by Peter Selinger 2001-2015
</metadata>
<g transform="translate(0.000000,99.000000) scale(0.100000,-0.100000)"
fill="#000000" stroke="none">
<path d="M912 953 c-26 -5 -61 -69 -62 -113 0 -14 -8 -52 -18 -85 l-17 -60
-102 -3 c-92 -3 -106 -2 -133 18 -26 18 -30 28 -30 67 0 45 -17 78 -64 130
-22 24 -64 30 -94 14 -31 -17 -57 -24 -78 -22 -24 2 -84 -70 -84 -100 0 -9 -7
-22 -15 -29 -20 -17 -19 -47 3 -59 10 -5 35 -34 56 -65 35 -51 39 -64 45 -141
6 -77 9 -87 38 -117 18 -18 70 -51 116 -73 62 -29 87 -47 96 -67 17 -38 10
-62 -17 -66 -15 -2 -22 -9 -20 -20 2 -12 18 -19 53 -23 94 -12 127 14 59 46
l-36 17 20 20 20 21 31 -22 c17 -12 31 -31 31 -42 0 -21 25 -26 33 -6 4 9 8 9
14 0 4 -6 21 -15 36 -18 26 -7 27 -5 27 29 0 36 0 36 -44 36 -36 0 -46 4 -51
20 -11 34 17 50 87 51 35 0 77 6 94 12 33 13 164 153 164 176 0 8 7 22 16 32
13 15 14 30 5 109 -6 58 -16 99 -26 110 -9 10 -18 33 -22 52 -4 29 -1 39 19
54 24 18 24 18 5 37 -13 13 -17 26 -12 44 4 17 1 29 -7 34 -13 9 -95 10 -136
2z"/>
</g>
</svg>
