<?xml version="1.0" standalone="no"?>
<!DOCTYPE svg PUBLIC "-//W3C//DTD SVG 20010904//EN"
 "http://www.w3.org/TR/2001/REC-SVG-20010904/DTD/svg10.dtd">
<svg version="1.0" xmlns="http://www.w3.org/2000/svg"
 width="352.000000pt" height="240.000000pt" viewBox="0 0 352.000000 240.000000"
 preserveAspectRatio="xMidYMid meet">
<metadata>
Created by potrace 1.13, written by Peter Selinger 2001-2015
</metadata>
<g transform="translate(0.000000,240.000000) scale(0.100000,-0.100000)"
fill="#000000" stroke="none">
<path d="M485 1839 c-57 -39 -78 -81 -70 -142 7 -46 35 -105 64 -131 31 -28
26 -61 -18 -109 -21 -23 -46 -56 -55 -74 -20 -41 -21 -111 0 -163 9 -22 14
-50 10 -63 -3 -12 2 -45 10 -72 8 -28 22 -90 30 -139 20 -123 42 -184 81 -227
39 -43 43 -81 13 -139 -24 -47 -25 -70 -4 -140 14 -46 14 -63 3 -113 -15 -72
-7 -83 77 -103 90 -21 190 -18 221 6 14 11 36 20 48 20 53 0 56 56 4 71 -13 3
-45 20 -71 38 l-47 31 25 72 c13 39 24 83 24 97 1 14 7 37 15 51 8 14 14 50
15 81 0 53 2 58 35 83 23 18 35 35 35 52 0 14 10 38 22 54 l22 30 -53 153
c-31 89 -54 173 -56 202 -3 77 -20 144 -46 178 -24 33 -27 64 -7 100 16 30 11
192 -7 227 -8 15 -36 42 -63 59 -41 26 -63 32 -128 37 -77 6 -80 6 -129 -27z"/>
</g>
</svg>
