<?xml version="1.0" standalone="no"?>
<!DOCTYPE svg PUBLIC "-//W3C//DTD SVG 20010904//EN"
 "http://www.w3.org/TR/2001/REC-SVG-20010904/DTD/svg10.dtd">
<svg version="1.0" xmlns="http://www.w3.org/2000/svg"
 width="352.000000pt" height="240.000000pt" viewBox="0 0 352.000000 240.000000"
 preserveAspectRatio="xMidYMid meet">
<metadata>
Created by potrace 1.13, written by Peter Selinger 2001-2015
</metadata>
<g transform="translate(0.000000,240.000000) scale(0.100000,-0.100000)"
fill="#000000" stroke="none">
<path d="M488 1841 c-26 -17 -54 -43 -62 -60 -33 -62 -12 -155 48 -210 38 -36
33 -64 -18 -107 -67 -56 -89 -102 -82 -172 4 -31 8 -91 10 -133 2 -41 13 -110
25 -152 11 -43 21 -95 21 -116 0 -57 52 -166 87 -183 34 -16 42 -67 19 -123
-21 -50 -20 -94 4 -163 18 -50 19 -63 8 -105 -10 -40 -10 -50 3 -63 24 -23
116 -44 196 -44 66 0 78 3 128 35 30 20 55 38 55 41 0 21 -26 45 -58 54 -20 5
-51 19 -69 29 -28 18 -31 23 -24 49 5 16 14 38 20 50 6 11 16 44 22 74 6 29
20 67 30 85 16 26 18 38 10 75 -9 39 -8 45 15 70 18 18 24 32 20 46 -5 15 2
28 25 50 l33 30 -17 59 c-9 32 -29 99 -44 148 -14 50 -27 117 -28 150 -3 87
-19 151 -48 192 -25 34 -25 37 -10 82 17 54 17 52 15 155 l-2 79 -44 42 c-75
72 -206 88 -288 36z"/>
</g>
</svg>
