<?xml version="1.0" standalone="no"?>
<!DOCTYPE svg PUBLIC "-//W3C//DTD SVG 20010904//EN"
 "http://www.w3.org/TR/2001/REC-SVG-20010904/DTD/svg10.dtd">
<svg version="1.0" xmlns="http://www.w3.org/2000/svg"
 width="352.000000pt" height="240.000000pt" viewBox="0 0 352.000000 240.000000"
 preserveAspectRatio="xMidYMid meet">
<metadata>
Created by potrace 1.13, written by Peter Selinger 2001-2015
</metadata>
<g transform="translate(0.000000,240.000000) scale(0.100000,-0.100000)"
fill="#000000" stroke="none">
<path d="M535 1864 c-67 -36 -115 -99 -115 -149 0 -37 25 -92 60 -131 41 -47
39 -75 -9 -116 -21 -18 -48 -53 -60 -76 -21 -41 -21 -49 -11 -110 7 -37 16
-94 20 -127 5 -33 14 -76 20 -95 6 -19 13 -71 14 -115 2 -44 8 -91 14 -105 6
-14 13 -37 17 -53 3 -15 21 -45 40 -66 40 -44 43 -71 15 -132 -25 -56 -25 -91
0 -161 17 -50 18 -64 8 -108 -10 -43 -9 -53 4 -66 39 -40 225 -58 295 -29 19
8 43 15 53 15 47 0 49 65 2 76 -46 11 -102 48 -108 70 -3 12 2 45 10 75 9 29
16 65 16 80 0 16 9 51 20 80 14 34 18 62 14 84 -5 29 -2 36 31 61 27 20 35 33
31 48 -6 25 0 36 37 59 16 10 27 26 27 39 0 22 -60 198 -88 258 -9 19 -17 62
-18 95 -2 87 -13 135 -41 177 -24 35 -25 40 -13 85 7 27 15 90 17 142 l4 93
-45 44 c-48 45 -84 60 -176 69 -40 4 -63 1 -85 -11z"/>
</g>
</svg>
