<?xml version="1.0" standalone="no"?>
<!DOCTYPE svg PUBLIC "-//W3C//DTD SVG 20010904//EN"
 "http://www.w3.org/TR/2001/REC-SVG-20010904/DTD/svg10.dtd">
<svg version="1.0" xmlns="http://www.w3.org/2000/svg"
 width="352.000000pt" height="240.000000pt" viewBox="0 0 352.000000 240.000000"
 preserveAspectRatio="xMidYMid meet">
<metadata>
Created by potrace 1.13, written by Peter Selinger 2001-2015
</metadata>
<g transform="translate(0.000000,240.000000) scale(0.100000,-0.100000)"
fill="#000000" stroke="none">
<path d="M482 1840 c-91 -66 -97 -166 -16 -263 36 -43 31 -70 -20 -113 -60
-50 -80 -96 -72 -170 3 -33 10 -104 15 -159 5 -55 16 -122 25 -149 9 -27 16
-68 16 -90 0 -23 9 -59 20 -81 11 -22 20 -45 20 -51 0 -7 18 -27 40 -44 48
-38 51 -67 18 -148 l-22 -54 22 -64 c18 -52 21 -76 16 -127 -5 -53 -4 -64 12
-78 26 -21 112 -39 193 -39 56 0 77 5 124 31 77 42 76 60 -7 99 -35 17 -69 36
-74 43 -8 9 -4 32 13 80 14 38 25 79 25 93 0 14 9 42 19 63 14 27 18 49 14 80
-5 36 -2 46 22 71 19 19 25 34 21 48 -5 14 1 29 19 48 27 29 30 51 15 98 -5
17 -26 81 -45 141 -21 64 -37 135 -39 170 -4 88 -16 136 -44 173 -25 33 -26
34 -9 85 9 29 19 86 22 127 6 71 4 78 -24 121 -37 60 -107 89 -210 89 -60 0
-73 -4 -109 -30z"/>
</g>
</svg>
