<?xml version="1.0" standalone="no"?>
<!DOCTYPE svg PUBLIC "-//W3C//DTD SVG 20010904//EN"
 "http://www.w3.org/TR/2001/REC-SVG-20010904/DTD/svg10.dtd">
<svg version="1.0" xmlns="http://www.w3.org/2000/svg"
 width="352.000000pt" height="240.000000pt" viewBox="0 0 352.000000 240.000000"
 preserveAspectRatio="xMidYMid meet">
<metadata>
Created by potrace 1.13, written by Peter Selinger 2001-2015
</metadata>
<g transform="translate(0.000000,240.000000) scale(0.100000,-0.100000)"
fill="#000000" stroke="none">
<path d="M515 1859 c-11 -6 -33 -23 -48 -38 -76 -69 -76 -150 -2 -233 47 -52
46 -78 -9 -124 -24 -20 -53 -53 -65 -74 -19 -34 -20 -44 -11 -101 6 -35 14
-102 19 -149 5 -47 16 -105 24 -130 8 -25 17 -70 21 -101 9 -88 40 -169 75
-196 38 -30 41 -71 11 -142 l-21 -47 25 -79 c22 -69 24 -84 13 -122 -14 -54
-4 -73 49 -92 63 -22 204 -26 242 -7 17 9 42 16 55 16 57 0 59 63 3 78 -18 5
-51 21 -73 35 -46 29 -45 17 -9 132 9 28 16 60 16 73 0 12 9 41 20 63 17 33
19 46 11 76 -11 40 -8 49 27 77 17 13 22 25 18 41 -4 16 2 29 24 49 17 14 30
35 30 45 0 20 -64 229 -83 271 -6 14 -12 50 -12 80 -2 80 -19 146 -48 187 -24
34 -25 37 -10 77 8 22 17 82 19 132 4 82 2 94 -18 124 -35 51 -108 84 -198 87
-44 2 -83 -1 -95 -8z"/>
</g>
</svg>
