<?xml version="1.0" standalone="no"?>
<!DOCTYPE svg PUBLIC "-//W3C//DTD SVG 20010904//EN"
 "http://www.w3.org/TR/2001/REC-SVG-20010904/DTD/svg10.dtd">
<svg version="1.0" xmlns="http://www.w3.org/2000/svg"
 width="352.000000pt" height="240.000000pt" viewBox="0 0 352.000000 240.000000"
 preserveAspectRatio="xMidYMid meet">
<metadata>
Created by potrace 1.13, written by Peter Selinger 2001-2015
</metadata>
<g transform="translate(0.000000,240.000000) scale(0.100000,-0.100000)"
fill="#000000" stroke="none">
<path d="M482 1840 c-52 -37 -72 -76 -72 -137 0 -51 12 -75 63 -130 28 -30 29
-34 17 -62 -6 -17 -27 -42 -45 -55 -18 -14 -43 -42 -55 -61 -20 -32 -21 -44
-16 -103 4 -37 9 -101 10 -142 2 -41 13 -111 25 -154 11 -44 21 -94 21 -112 0
-44 54 -148 90 -174 37 -26 40 -66 9 -135 -19 -42 -20 -52 -8 -94 6 -25 19
-59 27 -75 12 -25 12 -38 1 -83 -11 -48 -11 -56 5 -71 23 -23 107 -41 193 -42
66 0 77 3 128 35 61 40 69 60 28 76 -53 21 -113 53 -117 64 -2 6 8 46 21 90
54 173 56 184 50 229 -6 40 -4 47 19 63 17 13 26 30 28 51 1 17 13 43 25 56
16 17 22 32 18 48 -18 78 -71 257 -83 280 -8 16 -11 39 -7 58 8 44 -15 137
-45 183 -26 38 -26 39 -10 85 9 26 18 86 20 134 2 75 0 91 -18 115 -46 63
-118 93 -220 93 -52 0 -67 -4 -102 -30z"/>
</g>
</svg>
