<?xml version="1.0" standalone="no"?>
<!DOCTYPE svg PUBLIC "-//W3C//DTD SVG 20010904//EN"
 "http://www.w3.org/TR/2001/REC-SVG-20010904/DTD/svg10.dtd">
<svg version="1.0" xmlns="http://www.w3.org/2000/svg"
 width="352.000000pt" height="288.000000pt" viewBox="0 0 352.000000 288.000000"
 preserveAspectRatio="xMidYMid meet">
<metadata>
Created by potrace 1.13, written by Peter Selinger 2001-2015
</metadata>
<g transform="translate(0.000000,288.000000) scale(0.100000,-0.100000)"
fill="#000000" stroke="none">
<path d="M1698 2056 c-68 -18 -100 -42 -93 -69 11 -35 44 -57 86 -57 31 0 37
-3 32 -15 -3 -9 2 -22 13 -30 16 -12 17 -17 7 -34 -7 -12 -13 -27 -13 -34 0
-19 -83 -44 -170 -52 -194 -17 -351 -109 -420 -245 -16 -31 -47 -111 -69 -177
-38 -112 -41 -130 -41 -227 0 -117 -6 -108 90 -148 56 -24 78 -28 162 -28 l98
0 0 -31 c0 -36 -12 -49 -66 -77 -40 -20 -152 -52 -184 -52 -19 0 -30 19 -30
50 0 26 -26 43 -55 36 -33 -8 -59 -59 -45 -86 17 -32 44 -40 128 -40 76 0 402
51 542 84 36 9 85 16 110 16 63 0 88 20 92 73 l3 42 185 6 c185 6 257 19 382
70 29 12 43 35 28 44 -6 4 -10 28 -10 54 0 62 -18 80 -64 63 -45 -17 -48 -16
-44 15 2 23 17 35 88 73 47 25 99 55 115 66 17 12 55 34 85 50 30 15 75 41
100 56 25 16 69 36 97 44 60 17 101 58 82 80 -16 20 -96 17 -170 -5 -107 -33
-176 -41 -340 -41 l-157 0 -31 39 c-17 21 -31 42 -31 45 0 3 17 6 39 6 48 0
98 17 105 36 8 22 -23 96 -51 122 -24 22 -26 22 -224 15 -157 -5 -205 -3 -224
7 -33 18 -34 61 -2 75 14 7 22 19 22 35 0 16 -8 28 -22 35 -31 13 -29 32 6 49
34 18 46 43 30 62 -14 18 -106 17 -171 0z"/>
</g>
</svg>
