<?xml version="1.0" standalone="no"?>
<!DOCTYPE svg PUBLIC "-//W3C//DTD SVG 20010904//EN"
 "http://www.w3.org/TR/2001/REC-SVG-20010904/DTD/svg10.dtd">
<svg version="1.0" xmlns="http://www.w3.org/2000/svg"
 width="352.000000pt" height="288.000000pt" viewBox="0 0 352.000000 288.000000"
 preserveAspectRatio="xMidYMid meet">
<metadata>
Created by potrace 1.13, written by Peter Selinger 2001-2015
</metadata>
<g transform="translate(0.000000,288.000000) scale(0.100000,-0.100000)"
fill="#000000" stroke="none">
<path d="M1780 2055 c-14 -8 -44 -14 -67 -15 -29 0 -49 -6 -63 -20 -27 -27
-16 -47 28 -55 20 -3 45 -8 55 -11 20 -6 22 -36 5 -63 -13 -22 3 -51 28 -51 8
0 14 -10 14 -23 0 -22 -7 -25 -93 -40 -51 -10 -122 -17 -158 -17 -74 0 -106
-10 -206 -62 -87 -47 -211 -172 -235 -239 -36 -101 -56 -201 -64 -322 -9 -124
-3 -131 122 -141 49 -3 116 -13 149 -22 33 -9 75 -18 93 -21 33 -5 39 -21 26
-70 -9 -32 -92 -58 -216 -68 -69 -6 -81 -4 -104 14 -31 25 -57 27 -74 6 -18
-22 -5 -58 29 -78 25 -14 56 -17 210 -17 162 0 197 3 333 31 146 29 253 66
270 92 4 7 8 30 8 52 0 23 5 46 12 53 8 8 58 12 159 12 127 0 160 4 240 26 52
14 116 29 142 33 43 7 66 22 67 42 0 4 -9 18 -20 32 -11 14 -20 34 -20 44 0
29 -20 43 -62 43 -35 0 -38 2 -38 29 0 27 3 29 47 36 54 8 168 57 198 85 38
36 161 98 225 114 73 19 103 35 126 71 13 20 14 28 4 40 -17 21 -354 22 -404
1 -31 -13 -88 -24 -231 -46 -51 -7 -64 -6 -84 9 -14 9 -26 22 -29 29 -4 14 41
37 90 46 48 9 68 29 68 69 0 55 -31 77 -107 77 -36 0 -53 5 -66 20 -13 15 -29
20 -67 20 -28 0 -81 7 -118 15 -37 8 -85 13 -107 12 -38 -2 -40 0 -42 28 0 17
-2 35 -2 42 -1 6 -10 15 -21 18 -15 5 -20 15 -20 39 0 29 4 34 39 44 50 15 68
36 51 57 -16 19 -87 19 -120 0z"/>
</g>
</svg>
