<?xml version="1.0" standalone="no"?>
<!DOCTYPE svg PUBLIC "-//W3C//DTD SVG 20010904//EN"
 "http://www.w3.org/TR/2001/REC-SVG-20010904/DTD/svg10.dtd">
<svg version="1.0" xmlns="http://www.w3.org/2000/svg"
 width="352.000000pt" height="288.000000pt" viewBox="0 0 352.000000 288.000000"
 preserveAspectRatio="xMidYMid meet">
<metadata>
Created by potrace 1.13, written by Peter Selinger 2001-2015
</metadata>
<g transform="translate(0.000000,288.000000) scale(0.100000,-0.100000)"
fill="#000000" stroke="none">
<path d="M1590 2000 c-23 -23 -34 -62 -26 -93 6 -26 43 -47 82 -47 23 0 24 -1
10 -23 -17 -25 -12 -38 22 -56 15 -8 22 -21 22 -40 l0 -29 -137 -5 c-224 -8
-307 -39 -543 -207 -83 -60 -115 -117 -145 -262 -20 -94 -20 -230 1 -269 31
-60 181 -106 382 -116 95 -5 112 -8 110 -22 -5 -27 -77 -39 -228 -40 -129 -1
-148 1 -175 19 -39 26 -70 25 -89 -2 -21 -29 -20 -68 1 -97 l16 -24 211 6
c202 7 404 32 525 67 20 6 87 21 149 35 62 13 120 29 128 35 8 7 14 30 14 51
0 48 -3 48 215 52 192 3 216 10 246 69 22 43 24 67 7 103 -18 40 -49 43 -130
10 -15 -6 -18 -1 -18 34 0 49 11 55 123 72 85 12 239 59 309 95 28 14 77 34
108 44 32 10 66 23 76 29 38 20 160 51 228 58 54 5 75 11 93 29 59 59 -6 144
-110 144 -24 0 -77 -12 -118 -26 -74 -26 -94 -29 -416 -54 -73 -5 -163 -14
-200 -20 -37 -5 -87 -10 -110 -10 -39 0 -43 2 -43 24 0 23 4 25 78 31 82 8
145 33 162 64 25 48 -19 71 -138 71 -58 0 -95 5 -112 15 -127 74 -182 82 -232
35 -57 -55 -148 -32 -148 39 0 16 6 31 15 35 21 8 19 29 -5 44 -31 19 -24 37
14 38 43 1 84 27 92 59 12 49 -6 55 -157 55 -125 0 -141 -2 -159 -20z"/>
</g>
</svg>
