<?xml version="1.0" standalone="no"?>
<!DOCTYPE svg PUBLIC "-//W3C//DTD SVG 20010904//EN"
 "http://www.w3.org/TR/2001/REC-SVG-20010904/DTD/svg10.dtd">
<svg version="1.0" xmlns="http://www.w3.org/2000/svg"
 width="352.000000pt" height="288.000000pt" viewBox="0 0 352.000000 288.000000"
 preserveAspectRatio="xMidYMid meet">
<metadata>
Created by potrace 1.13, written by Peter Selinger 2001-2015
</metadata>
<g transform="translate(0.000000,288.000000) scale(0.100000,-0.100000)"
fill="#000000" stroke="none">
<path d="M1669 1950 c-125 -52 -148 -84 -79 -106 30 -10 36 -17 41 -49 3 -20
12 -40 18 -45 7 -4 11 -18 9 -31 -3 -24 -5 -24 -138 -29 l-135 -5 -80 -44
c-44 -24 -125 -68 -180 -98 -147 -79 -222 -162 -272 -303 -41 -113 -51 -205
-28 -250 43 -83 98 -100 317 -100 l169 0 -3 -41 c-3 -41 -4 -42 -58 -60 -63
-20 -249 -26 -267 -8 -18 18 -66 6 -79 -20 -31 -61 18 -73 284 -68 182 3 221
7 322 31 63 15 170 38 237 51 121 24 161 37 175 59 4 6 8 37 8 69 0 31 1 57 3
58 1 1 74 4 162 8 135 5 166 10 195 27 19 11 36 28 38 38 6 31 -7 64 -28 71
-15 5 -20 15 -20 44 0 45 14 61 54 61 54 0 159 32 266 80 58 26 148 57 200 70
318 75 470 161 422 237 -22 35 -181 44 -333 19 -46 -8 -122 -19 -169 -26 -47
-6 -132 -27 -190 -46 -91 -29 -124 -35 -242 -41 l-138 -6 0 25 c0 24 5 27 68
38 108 19 131 29 138 57 11 41 -14 55 -103 61 -59 3 -92 12 -135 33 -77 39
-161 40 -242 4 -31 -14 -69 -25 -85 -25 -24 0 -30 6 -39 39 -7 21 -12 61 -12
89 0 42 4 52 25 66 24 16 24 18 11 45 -26 49 -35 51 -107 21z"/>
</g>
</svg>
