<?xml version="1.0" standalone="no"?>
<!DOCTYPE svg PUBLIC "-//W3C//DTD SVG 20010904//EN"
 "http://www.w3.org/TR/2001/REC-SVG-20010904/DTD/svg10.dtd">
<svg version="1.0" xmlns="http://www.w3.org/2000/svg"
 width="352.000000pt" height="288.000000pt" viewBox="0 0 352.000000 288.000000"
 preserveAspectRatio="xMidYMid meet">
<metadata>
Created by potrace 1.13, written by Peter Selinger 2001-2015
</metadata>
<g transform="translate(0.000000,288.000000) scale(0.100000,-0.100000)"
fill="#000000" stroke="none">
<path d="M1640 1995 c-19 -23 2 -63 37 -70 68 -14 104 -55 71 -79 -8 -6 -17
-19 -21 -28 -5 -13 -1 -18 13 -18 17 0 20 -7 20 -40 l0 -40 -202 2 -203 3 -65
-31 c-37 -18 -102 -64 -152 -107 -114 -101 -155 -177 -168 -318 -20 -200 -8
-293 38 -318 13 -7 94 -11 211 -11 l191 0 0 -54 c0 -52 -1 -54 -31 -60 -17 -3
-42 -6 -55 -6 -36 0 -104 -30 -104 -46 0 -9 -12 -14 -35 -14 -28 0 -45 10 -87
50 -63 59 -81 67 -113 46 -33 -22 -43 -63 -21 -84 15 -15 56 -17 361 -21 288
-3 360 0 437 13 51 9 105 22 120 27 26 11 27 13 21 74 -5 59 -5 62 18 68 13 4
115 7 226 7 192 0 293 10 321 32 23 19 14 68 -18 100 -16 16 -30 35 -30 42 0
19 -22 36 -47 36 -16 0 -23 6 -23 19 0 31 20 40 170 75 71 17 108 33 330 147
52 27 142 64 200 84 110 37 137 53 127 79 -10 25 -272 23 -381 -3 -109 -26
-581 -42 -574 -20 2 8 43 27 91 43 95 31 108 46 83 94 -19 36 -33 42 -102 42
-50 0 -59 3 -87 34 -47 49 -106 57 -173 23 -27 -14 -58 -34 -68 -46 -28 -31
-68 -27 -94 9 -22 30 -30 90 -12 90 19 0 10 27 -17 55 -27 26 -27 28 -9 39 10
6 28 19 40 28 35 28 5 46 -99 58 -117 13 -120 13 -135 -5z"/>
</g>
</svg>
