<?xml version="1.0" standalone="no"?>
<!DOCTYPE svg PUBLIC "-//W3C//DTD SVG 20010904//EN"
 "http://www.w3.org/TR/2001/REC-SVG-20010904/DTD/svg10.dtd">
<svg version="1.0" xmlns="http://www.w3.org/2000/svg"
 width="352.000000pt" height="288.000000pt" viewBox="0 0 352.000000 288.000000"
 preserveAspectRatio="xMidYMid meet">
<metadata>
Created by potrace 1.13, written by Peter Selinger 2001-2015
</metadata>
<g transform="translate(0.000000,288.000000) scale(0.100000,-0.100000)"
fill="#000000" stroke="none">
<path d="M1643 2015 c-12 -9 -20 -22 -17 -29 7 -18 49 -36 84 -36 26 0 30 -4
30 -29 0 -45 10 -61 36 -61 21 0 24 -5 24 -36 0 -32 -4 -37 -42 -53 -31 -13
-80 -20 -168 -24 -69 -3 -149 -13 -177 -22 -62 -19 -141 -81 -231 -183 -65
-74 -84 -114 -130 -282 -41 -151 -40 -173 11 -196 18 -8 47 -24 66 -36 28 -18
54 -22 143 -26 l108 -5 0 -73 0 -74 -33 -14 c-18 -7 -46 -26 -63 -41 l-29 -27
45 7 c25 4 72 16 105 27 41 13 100 21 190 24 149 6 250 20 283 40 17 11 22 24
22 54 0 47 6 51 90 68 36 7 85 17 110 22 25 6 113 14 197 18 163 8 188 16 165
52 -6 11 -12 39 -12 64 0 48 -17 71 -40 56 -8 -6 -25 -10 -37 -10 -20 0 -23 5
-23 36 0 30 4 37 33 48 17 7 64 19 102 26 105 18 145 34 243 95 62 38 110 60
158 71 112 26 147 38 158 56 7 12 6 21 -3 32 -21 25 -131 20 -371 -14 -124
-18 -252 -30 -313 -30 l-102 0 -27 34 c-16 19 -28 37 -28 39 0 2 27 14 60 26
61 22 76 37 81 81 6 43 -6 50 -89 50 -119 0 -152 8 -152 36 0 51 -68 71 -131
38 -17 -8 -45 -14 -62 -12 l-32 3 -8 90 c-7 78 -6 91 8 102 33 24 5 33 -103
33 -80 0 -113 -4 -129 -15z"/>
</g>
</svg>
