<?xml version="1.0" standalone="no"?>
<!DOCTYPE svg PUBLIC "-//W3C//DTD SVG 20010904//EN"
 "http://www.w3.org/TR/2001/REC-SVG-20010904/DTD/svg10.dtd">
<svg version="1.0" xmlns="http://www.w3.org/2000/svg"
 width="352.000000pt" height="288.000000pt" viewBox="0 0 352.000000 288.000000"
 preserveAspectRatio="xMidYMid meet">
<metadata>
Created by potrace 1.13, written by Peter Selinger 2001-2015
</metadata>
<g transform="translate(0.000000,288.000000) scale(0.100000,-0.100000)"
fill="#000000" stroke="none">
<path d="M1689 2156 c-101 -15 -132 -42 -93 -80 10 -10 33 -16 65 -16 48 0 49
-1 49 -29 0 -32 22 -61 46 -61 12 0 14 -11 12 -52 -3 -50 -5 -53 -28 -51 -35
2 -245 -33 -303 -51 -68 -20 -184 -91 -235 -143 -24 -24 -55 -69 -70 -101 -25
-54 -27 -67 -30 -243 l-4 -187 32 -62 c17 -34 42 -73 55 -86 20 -20 29 -22 80
-17 l56 6 -3 -39 -3 -39 -76 -3 -76 -3 -13 30 c-7 17 -21 33 -31 36 -26 9 -75
-3 -90 -21 -15 -18 -6 -128 12 -151 30 -36 361 10 594 82 44 13 100 27 125 31
25 4 54 17 66 29 20 20 35 23 181 28 115 4 178 11 233 26 249 69 234 61 238
133 3 52 1 58 -30 87 -23 21 -43 31 -66 31 -25 0 -35 6 -43 24 -18 39 19 67
216 160 99 46 194 91 210 100 17 9 39 16 50 16 34 0 65 28 65 60 0 16 -5 32
-10 35 -6 4 -163 6 -350 5 -287 -1 -340 1 -340 13 0 9 18 19 45 26 26 6 49 19
55 31 13 24 3 116 -14 128 -17 13 -151 32 -294 42 -72 4 -136 11 -141 15 -15
9 -14 65 2 65 6 1 2 9 -11 20 -27 22 -21 40 12 40 37 0 67 31 73 76 10 75 -36
88 -218 60z"/>
</g>
</svg>
