<?xml version="1.0" standalone="no"?>
<!DOCTYPE svg PUBLIC "-//W3C//DTD SVG 20010904//EN"
 "http://www.w3.org/TR/2001/REC-SVG-20010904/DTD/svg10.dtd">
<svg version="1.0" xmlns="http://www.w3.org/2000/svg"
 width="344.000000pt" height="202.000000pt" viewBox="0 0 344.000000 202.000000"
 preserveAspectRatio="xMidYMid meet">
<metadata>
Created by potrace 1.13, written by Peter Selinger 2001-2015
</metadata>
<g transform="translate(0.000000,202.000000) scale(0.100000,-0.100000)"
fill="#000000" stroke="none">
<path d="M2460 1824 c-14 -2 -81 -14 -150 -25 -148 -24 -245 -47 -395 -94 -60
-19 -122 -37 -137 -41 -16 -3 -28 -10 -28 -15 0 -5 -10 -9 -23 -9 -45 0 -71
-43 -82 -138 l-10 -87 -65 -32 c-36 -18 -112 -54 -170 -79 -286 -127 -368
-177 -395 -238 -8 -19 -24 -33 -46 -40 -30 -10 -35 -9 -44 9 -11 22 -59 32
-78 17 -7 -5 -32 -13 -57 -17 -147 -24 -248 -159 -168 -225 12 -9 19 -25 16
-39 -3 -21 -6 -20 -63 23 -86 65 -127 62 -139 -10 -7 -39 -5 -43 33 -76 22
-19 66 -47 98 -63 32 -16 60 -34 62 -39 10 -25 88 -98 130 -123 42 -24 56 -27
151 -28 58 -1 116 -7 130 -12 14 -6 46 -20 70 -31 119 -54 149 -64 201 -69 56
-6 57 -6 95 -64 59 -92 147 -126 265 -102 38 7 129 93 129 121 0 10 6 26 13
37 25 37 42 120 42 208 0 94 3 97 51 72 41 -21 141 -19 190 4 21 10 75 22 119
26 44 4 102 16 130 27 27 11 91 35 140 53 50 19 130 49 180 68 l89 35 40 -34
c85 -73 191 -71 263 4 36 38 48 62 68 135 18 62 29 68 75 42 14 -8 40 -14 58
-15 26 0 32 4 32 20 0 12 -9 24 -22 29 -13 5 -32 19 -43 31 l-20 22 62 -7 c60
-7 62 -6 68 18 4 13 5 39 3 58 -3 34 -3 34 -60 37 -45 2 -56 6 -51 17 3 8 15
15 28 15 29 0 44 19 51 62 8 44 -12 61 -66 56 l-40 -4 0 66 c0 81 -14 110 -66
135 l-41 20 1 81 c1 98 -12 126 -69 154 -74 36 -171 51 -355 55 -96 2 -186 2
-200 -1z"/>
</g>
</svg>
