<?xml version="1.0" standalone="no"?>
<!DOCTYPE svg PUBLIC "-//W3C//DTD SVG 20010904//EN"
 "http://www.w3.org/TR/2001/REC-SVG-20010904/DTD/svg10.dtd">
<svg version="1.0" xmlns="http://www.w3.org/2000/svg"
 width="569.000000pt" height="252.000000pt" viewBox="0 0 569.000000 252.000000"
 preserveAspectRatio="xMidYMid meet">
<metadata>
Created by potrace 1.13, written by Peter Selinger 2001-2015
</metadata>
<g transform="translate(0.000000,252.000000) scale(0.100000,-0.100000)"
fill="#000000" stroke="none">
<path d="M1025 2390 c-261 -12 -492 -41 -605 -77 l-55 -18 -3 -50 c-2 -27 1
-72 7 -100 6 -27 20 -124 31 -215 11 -91 27 -205 35 -255 8 -49 15 -93 15 -97
0 -5 -48 -8 -106 -8 -88 0 -110 -3 -132 -19 l-27 -19 7 -158 c3 -88 6 -219 7
-291 l1 -133 -30 0 -30 0 0 -86 c0 -48 5 -104 12 -125 10 -35 15 -39 42 -39
17 1 50 5 73 9 41 8 41 8 32 -16 -13 -35 -11 -90 4 -100 15 -10 125 -53 153
-60 14 -3 24 -19 33 -51 43 -156 112 -255 229 -330 109 -71 261 -91 378 -52
101 34 110 40 193 121 60 59 103 133 126 217 4 12 14 22 23 22 9 0 27 3 39 6
16 5 25 1 30 -12 21 -55 149 -176 227 -214 55 -27 78 -33 165 -37 72 -4 101
-3 101 6 0 6 10 11 23 11 90 0 266 163 295 271 l8 34 280 -4 c153 -2 302 -5
329 -6 28 -2 115 -6 195 -10 80 -3 208 -17 285 -31 77 -13 167 -24 201 -24
l61 0 13 -42 c8 -24 23 -59 34 -78 12 -19 30 -53 41 -74 28 -54 101 -134 155
-168 148 -94 369 -103 514 -22 71 39 196 175 196 213 0 24 20 19 56 -14 22
-19 77 -54 124 -77 l85 -43 115 0 c112 0 117 1 184 35 98 49 176 130 225 233
22 45 43 106 47 135 7 52 7 52 43 54 20 1 50 2 66 3 86 3 105 20 105 93 0 25
-6 35 -25 44 -14 6 -25 19 -25 29 0 10 -5 29 -11 43 -11 23 -18 25 -86 28
l-75 3 -14 40 c-7 22 -14 45 -14 52 0 12 -8 21 -89 107 -20 21 -28 34 -18 29
28 -15 84 15 102 54 14 29 14 36 0 62 -31 62 -186 145 -306 165 -35 6 -37 9
-42 52 -5 51 -31 92 -68 112 -25 13 -137 11 -171 -3 -15 -6 -18 -2 -18 25 0
43 -26 95 -64 126 -21 19 -30 34 -28 50 3 24 2 24 -87 24 -85 0 -91 -1 -91
-21 0 -11 -4 -18 -9 -15 -5 3 -217 6 -472 7 -255 1 -473 5 -484 9 -21 8 -45
76 -45 129 0 16 -7 34 -15 41 -8 7 -15 20 -15 29 -1 9 -7 34 -15 56 -8 22 -18
61 -21 88 l-7 47 31 0 c47 0 62 10 62 39 0 31 -33 71 -58 71 -29 0 -362 39
-462 54 -583 88 -1480 140 -2015 116z"/>
</g>
</svg>
