<?xml version="1.0" standalone="no"?>
<!DOCTYPE svg PUBLIC "-//W3C//DTD SVG 20010904//EN"
 "http://www.w3.org/TR/2001/REC-SVG-20010904/DTD/svg10.dtd">
<svg version="1.0" xmlns="http://www.w3.org/2000/svg"
 width="344.000000pt" height="202.000000pt" viewBox="0 0 344.000000 202.000000"
 preserveAspectRatio="xMidYMid meet">
<metadata>
Created by potrace 1.13, written by Peter Selinger 2001-2015
</metadata>
<g transform="translate(0.000000,202.000000) scale(0.100000,-0.100000)"
fill="#000000" stroke="none">
<path d="M615 1819 c-102 -13 -198 -45 -227 -74 -30 -30 -42 -89 -33 -162 l6
-48 -43 -20 c-54 -25 -68 -53 -68 -135 l0 -66 -40 4 c-54 5 -74 -12 -66 -56 7
-43 22 -62 51 -62 13 0 25 -7 28 -15 5 -11 -6 -15 -51 -17 -57 -3 -57 -3 -60
-37 -2 -19 -1 -45 3 -58 6 -24 8 -25 68 -18 l62 7 -20 -22 c-11 -12 -30 -26
-42 -31 -14 -5 -23 -17 -23 -29 0 -16 6 -20 33 -20 17 1 43 7 57 15 46 26 57
20 75 -42 20 -73 32 -97 68 -135 72 -75 178 -77 263 -4 l40 34 89 -35 c50 -19
131 -49 180 -68 50 -18 113 -42 140 -53 28 -11 86 -23 130 -27 44 -4 98 -16
119 -26 49 -23 149 -25 190 -4 48 25 51 22 51 -72 0 -88 17 -171 42 -208 7
-11 13 -27 13 -37 0 -28 91 -114 129 -121 118 -24 206 10 265 102 38 58 39 58
95 64 52 5 82 15 201 69 24 11 56 25 70 31 14 5 72 11 130 12 95 1 109 4 151
28 42 25 120 98 130 123 2 5 30 23 62 39 32 16 76 44 98 63 38 33 40 37 33 76
-12 72 -53 75 -139 10 -57 -43 -60 -44 -63 -23 -3 14 4 30 16 39 80 66 -21
201 -168 225 -25 4 -50 12 -57 17 -19 15 -67 5 -78 -17 -9 -18 -14 -19 -44 -9
-22 7 -38 21 -46 40 -27 61 -109 111 -395 238 -58 25 -134 61 -170 79 l-65 32
-10 87 c-11 95 -37 138 -82 138 -13 0 -23 4 -23 9 0 5 -12 12 -27 15 -16 4
-77 22 -138 41 -155 48 -211 62 -370 91 -156 29 -416 40 -540 23z"/>
</g>
</svg>
