<?xml version="1.0" standalone="no"?>
<!DOCTYPE svg PUBLIC "-//W3C//DTD SVG 20010904//EN"
 "http://www.w3.org/TR/2001/REC-SVG-20010904/DTD/svg10.dtd">
<svg version="1.0" xmlns="http://www.w3.org/2000/svg"
 width="376.000000pt" height="145.000000pt" viewBox="0 0 376.000000 145.000000"
 preserveAspectRatio="xMidYMid meet">
<metadata>
Created by potrace 1.13, written by Peter Selinger 2001-2015
</metadata>
<g transform="translate(0.000000,145.000000) scale(0.100000,-0.100000)"
fill="#000000" stroke="none">
<path d="M2325 1419 c-308 -19 -473 -30 -515 -34 -158 -18 -286 -38 -295 -46
-5 -5 -16 -9 -25 -9 -34 0 -51 -35 -61 -131 -5 -51 -10 -93 -12 -95 -1 -1
-177 -5 -392 -8 -214 -4 -405 -9 -423 -13 -41 -7 -97 -60 -106 -99 -4 -16 -11
-41 -17 -55 l-10 -26 -46 24 c-65 32 -88 30 -102 -8 -6 -18 -11 -45 -11 -60 0
-23 -10 -35 -53 -63 -96 -64 -164 -149 -155 -194 2 -9 18 -22 36 -28 28 -9 31
-12 18 -23 -12 -10 -21 -9 -45 3 -36 19 -72 21 -89 4 -7 -7 -12 -31 -12 -55 0
-42 1 -42 50 -60 55 -19 49 -11 82 -138 5 -22 19 -55 31 -73 36 -55 165 -112
252 -112 95 1 125 13 187 80 53 58 57 60 68 41 17 -33 93 -107 127 -125 56
-29 163 -48 228 -42 89 9 186 80 231 169 13 26 30 47 37 47 92 -1 697 11 802
15 l141 6 21 -44 c31 -63 96 -113 170 -131 55 -12 69 -12 139 4 67 16 82 23
110 57 19 21 36 46 40 57 5 14 12 17 36 12 17 -3 43 -6 58 -6 22 0 29 -5 33
-29 7 -32 76 -102 136 -137 22 -13 63 -24 108 -28 61 -6 77 -4 110 13 80 43
166 158 180 244 l6 39 91 -6 c50 -3 111 -8 135 -12 24 -3 52 -2 65 4 11 6 30
12 41 14 14 2 22 15 28 47 5 24 5 47 0 52 -5 5 -33 12 -63 16 l-55 8 -1 90
c-2 125 -2 125 -23 125 -16 0 -19 11 -24 99 -3 54 -10 108 -16 120 -19 35 -64
51 -146 51 l-75 0 0 58 c0 103 -38 210 -96 270 -57 59 -202 106 -364 117 -153
10 -425 12 -565 4z"/>
</g>
</svg>
