<?xml version="1.0" standalone="no"?>
<!DOCTYPE svg PUBLIC "-//W3C//DTD SVG 20010904//EN"
 "http://www.w3.org/TR/2001/REC-SVG-20010904/DTD/svg10.dtd">
<svg version="1.0" xmlns="http://www.w3.org/2000/svg"
 width="1110.000000pt" height="488.000000pt" viewBox="0 0 1110.000000 488.000000"
 preserveAspectRatio="xMidYMid meet">
<metadata>
Created by potrace 1.13, written by Peter Selinger 2001-2015
</metadata>
<g transform="translate(0.000000,488.000000) scale(0.100000,-0.100000)"
fill="#000000" stroke="none">
<path d="M7040 4864 c-85 -2 -263 -8 -395 -14 -132 -5 -296 -13 -365 -16 -130
-5 -346 -22 -610 -48 -85 -8 -211 -20 -280 -26 -246 -21 -427 -40 -520 -55
-209 -33 -379 -68 -445 -92 -38 -13 -113 -39 -165 -58 -141 -49 -267 -112
-307 -153 -26 -26 -41 -88 -25 -104 6 -6 60 -15 119 -19 264 -21 347 -30 357
-38 7 -6 11 -82 10 -223 -2 -417 -2 -418 -21 -418 -10 0 -26 11 -38 25 -14 17
-38 28 -80 36 -87 17 -110 9 -126 -46 -9 -31 -18 -44 -27 -40 -7 3 -44 0 -80
-5 -37 -5 -240 -21 -452 -35 -212 -14 -432 -30 -490 -36 -225 -22 -309 -30
-420 -39 -167 -13 -348 -29 -402 -35 l-46 -5 5 39 c5 33 2 40 -16 46 -22 7
-91 72 -91 86 0 4 -18 18 -40 30 -41 23 -48 33 -30 44 6 3 10 14 10 24 0 15
-11 20 -52 25 -47 7 -54 5 -70 -16 -10 -13 -18 -34 -18 -47 0 -23 -2 -24 -55
-17 -65 7 -95 -5 -95 -38 0 -30 11 -34 110 -42 76 -7 80 -8 80 -31 0 -13 7
-26 15 -29 10 -4 13 -14 9 -30 -4 -13 -1 -31 6 -39 15 -18 5 -35 -23 -35 -31
0 -147 -56 -180 -88 -56 -53 -91 -148 -103 -279 -7 -81 -23 -94 -49 -43 -8 16
-30 37 -48 46 -17 9 -34 20 -37 23 -13 17 -73 30 -167 36 -82 5 -103 3 -103
-7 0 -17 -35 -48 -54 -48 -8 0 -23 -11 -34 -25 -11 -14 -26 -25 -34 -25 -8 0
-18 -4 -23 -8 -6 -5 -37 -14 -70 -21 -247 -50 -540 -219 -562 -323 -3 -17 -12
-28 -22 -28 -17 0 -61 -50 -61 -70 0 -5 -4 -10 -8 -10 -11 0 -28 -56 -42 -140
-16 -90 -5 -116 55 -132 52 -14 51 -7 8 -113 -16 -38 -35 -97 -43 -130 -7 -33
-19 -85 -26 -115 -8 -30 -14 -73 -14 -96 0 -42 0 -43 -29 -34 -59 17 -71 28
-71 69 0 27 -7 46 -25 65 -31 33 -68 32 -73 -1 -2 -15 -10 -23 -22 -23 -23 0
-72 -21 -83 -35 -4 -5 -5 -27 -2 -48 4 -31 1 -42 -19 -61 -24 -21 -25 -26 -18
-94 6 -55 14 -78 32 -97 13 -14 18 -25 12 -25 -39 0 19 -93 76 -121 15 -8 84
-52 154 -99 88 -59 134 -97 150 -123 107 -176 152 -229 276 -322 131 -100 223
-140 367 -161 77 -12 158 -17 225 -14 109 3 173 3 250 -2 43 -3 45 -2 54 29 8
24 19 35 51 47 22 9 44 16 47 16 4 0 12 -26 18 -57 36 -174 116 -318 254 -458
86 -87 88 -88 241 -164 90 -45 112 -51 220 -65 151 -20 321 -20 405 -1 209 49
441 203 559 371 19 27 38 51 42 54 10 7 82 140 95 175 60 159 77 221 95 336
11 73 22 136 25 141 3 4 18 8 34 8 15 0 74 9 131 21 119 23 437 69 485 69 18
0 34 -3 36 -7 4 -9 94 -64 198 -121 83 -45 213 -80 397 -108 99 -15 141 -15
370 -5 142 6 359 20 483 31 374 32 585 50 790 65 107 8 258 21 335 29 77 8
172 17 210 21 39 3 111 10 160 15 279 31 488 51 625 60 85 5 205 14 265 20 61
5 189 16 285 25 96 8 220 19 275 24 112 10 106 13 131 -64 22 -68 100 -200
149 -250 73 -76 187 -144 316 -190 68 -24 88 -27 234 -28 135 -1 172 2 235 20
129 37 267 108 325 169 145 152 222 294 273 503 14 58 27 107 28 109 1 1 44
-11 95 -27 154 -49 208 -63 229 -56 20 6 45 67 36 90 -2 7 4 25 15 38 10 14
19 34 19 45 0 14 5 19 18 15 36 -9 55 -34 67 -85 l11 -53 48 -3 c67 -4 118 28
114 72 -3 34 -34 49 -52 24 -11 -14 -49 -38 -60 -38 -3 0 -6 20 -6 45 0 44 1
45 33 45 43 0 57 15 57 61 0 24 5 39 15 43 9 3 15 18 15 36 0 36 -15 38 -70
10 -22 -11 -41 -20 -42 -20 -2 0 -2 18 0 40 3 29 9 40 21 40 28 0 61 30 61 55
0 35 -41 61 -128 81 -54 13 -83 25 -95 41 -42 52 -121 5 -117 -70 3 -54 2 -59
-17 -49 -11 7 -23 39 -34 93 -26 120 -26 120 14 108 63 -19 233 -49 278 -49
l47 0 6 42 c10 69 5 237 -8 247 -6 4 -32 12 -58 15 -47 7 -67 19 -49 30 5 3
14 28 21 56 23 96 -21 198 -80 186 -19 -3 -33 0 -41 10 -18 22 -66 11 -100
-22 -21 -20 -34 -25 -53 -20 -22 5 -26 12 -26 44 -1 45 -10 88 -45 212 -27 94
-52 140 -156 283 -32 44 -40 60 -31 69 15 15 15 51 1 65 -8 8 -7 45 6 139 10
73 13 130 8 131 -5 2 -6 32 -2 71 5 37 8 185 8 328 1 246 0 267 -24 359 -56
223 -137 286 -492 386 -108 30 -513 101 -678 119 -49 5 -119 14 -155 19 -36 5
-171 17 -300 25 -129 9 -273 18 -320 21 -96 7 -1162 13 -1400 9z"/>
</g>
</svg>
