<?xml version="1.0" standalone="no"?>
<!DOCTYPE svg PUBLIC "-//W3C//DTD SVG 20010904//EN"
 "http://www.w3.org/TR/2001/REC-SVG-20010904/DTD/svg10.dtd">
<svg version="1.0" xmlns="http://www.w3.org/2000/svg"
 width="943.000000pt" height="347.000000pt" viewBox="0 0 943.000000 347.000000"
 preserveAspectRatio="xMidYMid meet">
<metadata>
Created by potrace 1.13, written by Peter Selinger 2001-2015
</metadata>
<g transform="translate(0.000000,347.000000) scale(0.100000,-0.100000)"
fill="#000000" stroke="none">
<path d="M3247 2954 c-2 -2 -1970 -15 -2036 -14 -13 0 -30 -5 -36 -10 -7 -6
-53 -13 -103 -15 -73 -3 -101 -9 -158 -35 -38 -17 -99 -35 -135 -39 -36 -5
-75 -14 -87 -20 -11 -6 -30 -11 -40 -11 -28 0 -67 -50 -87 -111 -16 -48 -17
-80 -8 -378 17 -544 19 -487 -12 -495 -15 -4 -57 -4 -94 0 -71 7 -135 -8 -197
-46 -64 -40 -148 -150 -180 -235 -29 -80 -36 -124 -40 -280 -5 -163 1 -223 31
-347 6 -22 4 -28 -9 -28 -9 0 -16 -8 -16 -20 0 -13 7 -20 19 -20 15 0 23 -13
36 -55 8 -30 19 -55 24 -55 4 0 36 -27 71 -60 89 -85 137 -99 347 -102 133 -3
163 -6 167 -18 12 -35 77 -137 122 -193 83 -102 141 -155 204 -187 l61 -31
177 2 c188 2 231 9 309 55 23 13 48 24 55 24 8 0 39 15 70 34 53 32 62 34 175
39 65 3 146 13 181 22 58 16 154 61 189 88 34 27 131 124 144 144 l15 21 1179
5 c649 3 1198 7 1220 10 261 34 306 37 679 36 l385 0 26 -56 c64 -140 210
-274 365 -335 151 -60 264 -74 370 -48 96 24 201 63 266 101 38 21 65 29 101
29 27 0 76 7 108 15 65 17 196 77 225 104 98 91 135 133 164 185 36 65 76 174
76 205 0 15 12 21 58 31 31 6 66 11 77 11 46 1 67 11 85 42 23 38 25 74 5 101
-10 14 -11 24 -4 38 11 21 1 89 -15 100 -6 4 -19 8 -29 8 -10 0 -25 7 -33 15
-26 26 -64 19 -75 -14 -6 -16 -20 -32 -32 -35 -33 -9 -37 -7 -37 10 0 10 -20
55 -45 100 -45 82 -45 84 -20 74 40 -15 111 -12 129 6 53 53 -21 228 -141 333
-60 53 -175 118 -224 126 -40 7 -38 4 -55 117 -7 45 -25 51 -134 42 l-80 -7 0
33 c0 43 -46 159 -74 185 -11 11 -27 33 -34 48 -6 15 -25 33 -40 40 -30 13
-32 38 -6 65 8 8 14 34 14 62 0 48 0 48 -38 55 -40 6 -92 -7 -92 -25 0 -6 -11
-15 -25 -20 -22 -9 -25 -15 -25 -65 l0 -55 -217 5 c-120 3 -581 7 -1026 9
-444 1 -809 5 -811 7 -2 2 -6 28 -8 57 -4 46 -3 52 13 52 12 0 19 7 19 20 0
13 -7 20 -20 20 -19 0 -20 7 -20 100 0 96 1 100 29 129 36 37 90 46 212 36 77
-6 90 -4 95 10 4 9 1 26 -5 39 -13 24 -28 28 -236 70 -60 13 -119 27 -130 33
-11 6 -67 13 -125 17 -279 18 -825 76 -907 96 -33 8 -287 11 -296 4z"/>
</g>
</svg>
