<?xml version="1.0" standalone="no"?>
<!DOCTYPE svg PUBLIC "-//W3C//DTD SVG 20010904//EN"
 "http://www.w3.org/TR/2001/REC-SVG-20010904/DTD/svg10.dtd">
<svg version="1.0" xmlns="http://www.w3.org/2000/svg"
 width="376.000000pt" height="145.000000pt" viewBox="0 0 376.000000 145.000000"
 preserveAspectRatio="xMidYMid meet">
<metadata>
Created by potrace 1.13, written by Peter Selinger 2001-2015
</metadata>
<g transform="translate(0.000000,145.000000) scale(0.100000,-0.100000)"
fill="#000000" stroke="none">
<path d="M940 1419 c-278 -15 -409 -64 -478 -180 -29 -48 -52 -141 -52 -211
l0 -58 -75 0 c-82 0 -127 -16 -146 -51 -6 -12 -13 -66 -16 -120 -5 -88 -8 -99
-24 -99 -21 0 -21 0 -23 -125 l-1 -90 -55 -8 c-30 -4 -58 -11 -63 -16 -5 -5
-5 -28 0 -52 6 -32 14 -45 28 -47 11 -2 30 -8 41 -14 13 -6 41 -7 65 -4 24 4
85 9 135 12 l91 6 6 -39 c14 -86 100 -201 180 -244 33 -17 49 -19 110 -13 45
4 86 15 108 28 60 35 129 105 136 137 4 24 11 29 33 29 15 0 41 3 58 6 24 5
31 2 36 -12 4 -11 21 -36 40 -57 28 -34 43 -41 110 -57 70 -16 84 -16 139 -4
74 18 139 68 170 131 l21 44 141 -6 c105 -4 710 -16 802 -15 7 0 24 -21 37
-47 45 -89 142 -160 231 -169 65 -6 172 13 228 42 34 18 110 92 127 125 11 19
15 17 68 -41 62 -67 92 -79 187 -80 87 0 216 57 252 112 12 18 27 53 33 78 6
25 16 61 20 80 8 30 16 37 60 53 49 18 50 18 50 60 0 24 -5 48 -12 55 -17 17
-53 15 -89 -4 -24 -12 -33 -13 -45 -3 -13 11 -10 14 18 23 18 6 34 19 36 28 9
45 -59 130 -155 194 -43 28 -53 40 -53 63 0 15 -5 42 -11 60 -14 38 -37 40
-102 8 l-46 -24 -10 26 c-6 14 -13 39 -17 55 -9 39 -65 92 -106 99 -18 4 -208
9 -423 13 -214 3 -391 7 -392 8 -2 2 -7 44 -12 95 -10 96 -27 131 -61 131 -9
0 -20 4 -25 9 -11 10 -214 41 -270 41 -20 0 -55 4 -78 10 -94 21 -730 41 -957
29z"/>
</g>
</svg>
