<?xml version="1.0" standalone="no"?>
<!DOCTYPE svg PUBLIC "-//W3C//DTD SVG 20010904//EN"
 "http://www.w3.org/TR/2001/REC-SVG-20010904/DTD/svg10.dtd">
<svg version="1.0" xmlns="http://www.w3.org/2000/svg"
 width="569.000000pt" height="252.000000pt" viewBox="0 0 569.000000 252.000000"
 preserveAspectRatio="xMidYMid meet">
<metadata>
Created by potrace 1.13, written by Peter Selinger 2001-2015
</metadata>
<g transform="translate(0.000000,252.000000) scale(0.100000,-0.100000)"
fill="#000000" stroke="none">
<path d="M1025 2390 c-261 -12 -492 -41 -605 -77 l-55 -18 -3 -50 c-2 -27 1
-72 7 -100 6 -27 20 -124 31 -215 11 -91 27 -205 35 -255 8 -49 15 -94 15 -99
0 -5 -63 -7 -140 -4 -137 4 -140 4 -140 -17 0 -11 4 -25 9 -30 5 -6 13 -136
17 -291 l7 -281 -90 -7 c-83 -7 -91 -9 -102 -32 -15 -33 -14 -53 3 -86 8 -15
10 -30 5 -35 -5 -5 -11 -29 -15 -53 -5 -43 -4 -46 26 -62 41 -23 67 -23 80 2
9 16 21 20 63 20 29 1 71 5 94 9 41 8 41 8 32 -16 -13 -35 -11 -90 4 -100 15
-10 125 -53 153 -60 14 -3 24 -19 33 -51 43 -156 112 -255 229 -330 109 -71
261 -91 378 -52 101 34 110 40 193 121 60 59 103 133 126 217 4 12 14 22 23
22 9 0 27 3 39 6 16 5 25 1 30 -12 21 -55 149 -176 227 -214 55 -27 78 -33
165 -37 72 -4 101 -3 101 6 0 6 10 11 23 11 90 0 266 163 295 271 l8 34 280
-4 c153 -2 302 -5 329 -6 28 -2 115 -6 195 -10 80 -3 208 -17 285 -31 77 -13
167 -24 201 -24 l61 0 13 -42 c8 -24 23 -59 34 -78 12 -19 30 -53 41 -74 28
-54 101 -134 155 -168 148 -94 369 -103 514 -22 71 39 196 175 196 213 0 24
20 19 56 -14 22 -19 77 -54 124 -77 l85 -43 115 0 c112 0 117 1 184 35 98 49
176 130 225 233 22 45 43 106 47 135 7 52 7 52 43 54 20 1 50 2 66 3 86 3 105
20 105 93 0 25 -6 35 -25 44 -14 6 -25 15 -25 20 0 4 11 8 25 8 23 0 25 4 25
45 0 34 -5 47 -21 55 -23 13 -73 5 -106 -17 -12 -8 -38 -13 -58 -11 -33 3 -38
7 -51 43 -7 22 -14 45 -14 52 0 12 -15 29 -88 106 l-37 37 52 -22 c47 -19 55
-20 78 -8 23 12 26 19 20 50 -3 19 -18 60 -33 90 -23 47 -35 59 -82 82 -76 37
-178 75 -221 82 -35 6 -37 9 -42 52 -5 51 -31 92 -68 112 -25 13 -137 11 -171
-3 -15 -6 -18 -2 -18 25 0 43 -26 95 -64 126 -21 18 -30 34 -28 49 2 17 -3 24
-23 29 -23 6 -26 10 -20 36 9 41 -9 70 -45 70 -43 0 -63 -26 -57 -72 4 -32 2
-38 -14 -38 -11 0 -19 -7 -19 -17 0 -17 -23 -18 -407 -11 -277 5 -409 10 -411
18 -16 46 -91 56 -118 15 -9 -14 -24 -25 -32 -23 -17 3 -42 77 -42 124 0 17
-7 37 -15 44 -8 7 -15 20 -15 29 -1 9 -7 34 -15 56 -8 22 -18 61 -21 88 l-7
47 31 0 c47 0 62 10 62 39 0 31 -33 71 -58 71 -29 0 -362 39 -462 54 -583 88
-1480 140 -2015 116z"/>
</g>
</svg>
