<?xml version="1.0" standalone="no"?>
<!DOCTYPE svg PUBLIC "-//W3C//DTD SVG 20010904//EN"
 "http://www.w3.org/TR/2001/REC-SVG-20010904/DTD/svg10.dtd">
<svg version="1.0" xmlns="http://www.w3.org/2000/svg"
 width="744.000000pt" height="333.000000pt" viewBox="0 0 744.000000 333.000000"
 preserveAspectRatio="xMidYMid meet">
<metadata>
Created by potrace 1.13, written by Peter Selinger 2001-2015
</metadata>
<g transform="translate(0.000000,333.000000) scale(0.100000,-0.100000)"
fill="#000000" stroke="none">
<path d="M1458 3314 c-2 -2 -85 -4 -183 -5 -99 -1 -261 -5 -360 -10 -99 -4
-243 -11 -320 -14 -77 -3 -168 -10 -202 -15 -95 -13 -164 -53 -176 -100 -3
-14 -10 -43 -16 -65 -14 -58 -15 -159 -2 -245 6 -41 14 -228 16 -415 3 -187 8
-352 11 -367 3 -15 -2 -53 -10 -85 -41 -149 -47 -198 -47 -372 1 -110 -3 -179
-10 -187 -6 -7 -17 -50 -25 -96 -8 -46 -23 -109 -34 -141 -13 -36 -20 -84 -20
-130 0 -39 -7 -97 -15 -127 -8 -30 -15 -58 -15 -62 0 -20 89 -50 169 -59 47
-4 95 -11 106 -14 23 -7 45 -48 45 -85 0 -14 7 -35 15 -46 8 -10 15 -27 15
-37 0 -11 8 -31 18 -45 10 -15 29 -48 42 -74 32 -62 111 -145 186 -196 33 -22
118 -60 159 -71 58 -16 221 -13 279 4 27 8 62 15 78 15 18 0 28 5 28 15 0 8 7
15 15 15 8 0 15 5 15 10 0 6 6 10 14 10 8 0 16 3 18 8 2 4 19 18 39 32 77 53
160 183 205 322 l19 58 105 -2 c62 -1 113 2 124 9 17 9 23 4 53 -56 41 -82 78
-124 168 -188 101 -72 154 -88 300 -88 73 0 138 5 165 14 66 20 150 62 176 88
13 13 28 23 34 23 5 0 10 5 10 10 0 6 7 10 15 10 8 0 15 5 15 12 0 6 20 38 45
69 25 32 45 62 45 68 0 6 11 11 25 11 16 0 25 6 25 16 0 14 14 15 108 10 59
-3 209 -8 335 -12 180 -6 227 -10 227 -21 0 -7 11 -13 25 -13 14 0 25 5 25 12
0 8 48 9 193 2 302 -13 790 2 807 25 3 4 37 15 75 25 39 10 74 23 79 27 15 14
32 11 18 -3 -13 -13 -16 -57 -4 -75 10 -16 84 -32 145 -33 67 0 83 -11 91 -62
7 -41 37 -114 93 -222 26 -50 38 -67 82 -115 13 -14 33 -38 45 -52 32 -37 108
-90 196 -136 41 -22 84 -44 95 -50 83 -45 342 -42 415 5 14 9 61 33 105 55
103 49 183 132 245 252 24 47 46 85 49 85 3 0 15 -10 26 -23 36 -41 129 -114
172 -136 101 -51 212 -75 340 -73 76 1 109 5 125 16 12 9 32 16 45 16 12 0 33
11 47 25 13 13 53 40 88 58 92 50 171 148 231 287 46 106 63 295 39 423 -12
64 -18 86 -53 177 -15 40 -97 171 -113 182 -7 5 -7 8 2 8 7 0 15 -7 18 -15 4
-8 11 -15 16 -15 5 0 23 -9 38 -20 16 -11 48 -23 73 -26 39 -6 47 -4 56 14 15
28 8 130 -12 169 -10 18 -17 41 -17 52 0 11 -11 28 -25 39 -14 11 -25 25 -25
31 0 16 -80 93 -115 111 -17 8 -36 21 -43 27 -7 7 -19 13 -27 13 -7 0 -30 8
-52 19 -37 18 -99 43 -135 55 -14 4 -18 16 -18 48 0 54 -15 108 -47 175 -19
41 -32 54 -59 63 -18 6 -42 9 -52 6 -9 -3 -52 -10 -95 -16 -92 -11 -112 -21
-137 -63 -16 -26 -20 -28 -20 -12 -3 87 -13 140 -33 168 -12 18 -25 34 -29 35
-5 2 -8 9 -8 15 0 16 -87 94 -121 109 -20 9 -25 16 -18 25 6 6 9 24 7 38 -4
35 -61 56 -129 48 -52 -6 -67 -24 -54 -64 7 -20 5 -21 -26 -15 -31 6 -325 12
-1004 18 -297 3 -375 7 -375 19 0 5 11 9 25 9 20 0 25 5 25 25 0 22 -4 25 -33
25 -39 0 -57 -15 -57 -47 0 -20 -5 -23 -34 -23 l-35 0 -3 136 c-2 75 0 138 5
141 4 2 4 28 1 58 -4 29 -4 68 0 87 10 55 32 62 206 68 l155 5 3 27 c6 52 -81
89 -378 162 -128 31 -215 48 -435 86 -33 6 -105 15 -160 20 -55 5 -172 16
-260 25 -211 20 -361 32 -410 34 -22 0 -150 5 -285 11 -227 11 -1614 23 -1622
14z"/>
</g>
</svg>
