<?xml version="1.0" standalone="no"?>
<!DOCTYPE svg PUBLIC "-//W3C//DTD SVG 20010904//EN"
 "http://www.w3.org/TR/2001/REC-SVG-20010904/DTD/svg10.dtd">
<svg version="1.0" xmlns="http://www.w3.org/2000/svg"
 width="474.000000pt" height="286.000000pt" viewBox="0 0 474.000000 286.000000"
 preserveAspectRatio="xMidYMid meet">
<metadata>
Created by potrace 1.13, written by Peter Selinger 2001-2015
</metadata>
<g transform="translate(0.000000,286.000000) scale(0.100000,-0.100000)"
fill="#000000" stroke="none">
<path d="M2700 1834 c-237 -10 -450 -27 -555 -45 -138 -22 -240 -46 -207 -48
22 -1 22 -3 21 -123 0 -68 -3 -139 -7 -158 -7 -33 -9 -35 -52 -37 -270 -14
-519 -22 -677 -22 l-193 -1 -39 -35 c-24 -22 -45 -53 -53 -78 -14 -46 -14 -46
-115 -32 -49 7 -54 6 -83 -24 -26 -25 -31 -37 -28 -68 3 -36 1 -39 -52 -70
-30 -18 -65 -33 -78 -33 -14 0 -27 -9 -34 -25 -14 -31 -5 -41 25 -28 22 10 22
9 -7 -49 -25 -50 -29 -71 -30 -146 -1 -60 4 -95 14 -112 15 -26 17 -31 19 -53
2 -24 77 -97 99 -97 12 0 22 -6 22 -14 0 -24 89 -39 154 -27 65 12 107 32 139
66 30 33 81 26 102 -15 20 -39 79 -95 122 -116 28 -14 60 -19 123 -19 94 0
129 15 198 86 37 38 82 118 82 147 0 17 11 20 113 26 67 4 126 2 147 -4 45
-13 836 -13 950 0 85 10 85 10 104 -16 25 -34 90 -61 164 -70 67 -7 101 6 229
89 46 29 79 32 205 21 58 -6 67 -10 72 -30 3 -12 18 -36 32 -53 69 -83 198
-113 284 -68 84 44 140 149 140 261 0 40 4 54 20 64 19 12 20 10 20 -37 l0
-49 42 -10 c23 -6 43 -10 44 -9 5 5 -24 115 -35 135 -10 18 -9 27 4 44 10 16
15 46 15 98 0 99 -14 145 -52 173 l-30 22 7 75 c4 41 7 95 6 120 -1 25 -1 98
-1 163 1 118 0 118 -29 147 -18 19 -40 30 -56 30 -15 0 -53 7 -85 15 -79 20
-977 49 -1220 39z"/>
</g>
</svg>
