<?xml version="1.0" standalone="no"?>
<!DOCTYPE svg PUBLIC "-//W3C//DTD SVG 20010904//EN"
 "http://www.w3.org/TR/2001/REC-SVG-20010904/DTD/svg10.dtd">
<svg version="1.0" xmlns="http://www.w3.org/2000/svg"
 width="744.000000pt" height="333.000000pt" viewBox="0 0 744.000000 333.000000"
 preserveAspectRatio="xMidYMid meet">
<metadata>
Created by potrace 1.13, written by Peter Selinger 2001-2015
</metadata>
<g transform="translate(0.000000,333.000000) scale(0.100000,-0.100000)"
fill="#000000" stroke="none">
<path d="M4870 3314 c-107 -2 -330 -8 -495 -15 -165 -7 -309 -12 -320 -11 -23
1 -159 -11 -390 -33 -88 -9 -205 -20 -260 -25 -55 -5 -127 -14 -160 -20 -220
-38 -307 -55 -435 -86 -297 -73 -384 -110 -378 -162 l3 -27 155 -5 c174 -6
196 -13 206 -68 4 -19 4 -58 0 -87 -3 -30 -3 -56 1 -58 5 -3 7 -66 5 -141 l-3
-136 -35 0 c-29 0 -34 3 -34 23 0 32 -18 47 -57 47 -29 0 -33 -3 -33 -25 0
-20 5 -25 25 -25 14 0 25 -4 25 -9 0 -12 -78 -16 -375 -19 -679 -6 -973 -12
-1004 -18 -31 -6 -33 -5 -26 15 13 40 -2 58 -54 64 -68 8 -125 -13 -129 -48
-2 -14 1 -32 7 -38 7 -9 2 -16 -18 -25 -34 -15 -121 -93 -121 -109 0 -6 -3
-13 -7 -15 -5 -1 -18 -17 -30 -35 -20 -28 -30 -81 -33 -168 0 -16 -4 -14 -20
12 -25 42 -45 52 -137 63 -43 6 -86 13 -95 16 -10 3 -34 0 -52 -6 -27 -9 -40
-22 -59 -63 -32 -67 -47 -121 -47 -175 0 -32 -4 -44 -17 -48 -37 -12 -99 -37
-136 -55 -22 -11 -45 -19 -52 -19 -8 0 -20 -6 -27 -13 -7 -6 -26 -19 -43 -27
-35 -18 -115 -95 -115 -111 0 -6 -11 -20 -25 -31 -14 -11 -25 -28 -25 -39 0
-11 -7 -34 -17 -52 -20 -39 -27 -141 -12 -169 9 -18 17 -20 56 -14 25 3 57 15
73 26 15 11 33 20 38 20 5 0 12 7 16 15 3 8 11 15 18 15 9 0 9 -3 2 -8 -16
-11 -98 -142 -113 -182 -35 -91 -41 -113 -53 -177 -24 -128 -7 -317 39 -423
60 -139 139 -237 231 -287 35 -18 75 -45 88 -58 14 -14 35 -25 47 -25 13 0 33
-7 45 -16 16 -11 49 -15 125 -16 128 -2 239 22 340 73 43 22 136 95 172 136
11 13 23 23 26 23 3 0 25 -38 49 -85 62 -120 142 -203 245 -252 44 -22 91 -46
105 -55 73 -47 332 -50 415 -5 11 6 54 28 95 50 88 46 164 99 196 136 12 14
32 38 45 52 44 48 56 65 82 115 56 108 86 181 93 222 8 51 24 62 91 62 61 1
135 17 145 33 12 18 9 62 -4 75 -14 14 3 17 18 3 5 -4 41 -17 79 -27 39 -10
72 -21 75 -25 17 -23 505 -38 808 -25 144 7 192 6 192 -2 0 -7 11 -12 25 -12
14 0 25 6 25 13 0 11 47 15 228 21 125 4 275 9 335 12 93 5 107 4 107 -10 0
-10 9 -16 25 -16 14 0 25 -5 25 -11 0 -6 20 -36 45 -68 25 -31 45 -63 45 -69
0 -7 7 -12 15 -12 8 0 15 -4 15 -10 0 -5 5 -10 10 -10 6 0 21 -10 34 -23 26
-26 110 -68 176 -88 27 -9 92 -14 165 -14 146 0 199 16 300 88 90 64 127 106
168 188 30 60 36 65 53 56 11 -7 62 -10 124 -9 l105 2 19 -58 c45 -139 128
-269 205 -322 20 -14 38 -28 39 -32 2 -5 10 -8 18 -8 8 0 14 -4 14 -10 0 -5 7
-10 15 -10 8 0 15 -7 15 -15 0 -10 10 -15 28 -15 16 0 51 -7 78 -15 58 -17
221 -20 279 -4 41 11 126 49 159 71 75 51 154 134 186 196 13 26 32 59 42 74
10 14 18 34 18 45 0 10 7 27 15 37 8 11 15 32 15 46 0 37 22 78 45 85 11 3 59
10 106 14 80 9 169 39 169 59 0 4 -7 32 -15 62 -8 30 -15 88 -15 127 0 46 -7
94 -20 130 -11 32 -26 95 -34 141 -8 46 -19 89 -25 96 -7 8 -11 77 -10 187 0
174 -6 223 -47 372 -8 32 -13 70 -10 85 3 15 8 180 11 367 2 187 10 374 16
415 13 86 12 187 -2 245 -6 22 -13 51 -16 65 -5 28 -61 72 -113 88 -33 11
-261 32 -305 29 -18 -2 -199 6 -425 18 -110 6 -1255 12 -1510 9z"/>
</g>
</svg>
