<?xml version="1.0" standalone="no"?>
<!DOCTYPE svg PUBLIC "-//W3C//DTD SVG 20010904//EN"
 "http://www.w3.org/TR/2001/REC-SVG-20010904/DTD/svg10.dtd">
<svg version="1.0" xmlns="http://www.w3.org/2000/svg"
 width="481.000000pt" height="278.000000pt" viewBox="0 0 481.000000 278.000000"
 preserveAspectRatio="xMidYMid meet">
<metadata>
Created by potrace 1.13, written by Peter Selinger 2001-2015
</metadata>
<g transform="translate(0.000000,278.000000) scale(0.100000,-0.100000)"
fill="#000000" stroke="none">
<path d="M1680 1889 c-80 -5 -185 -16 -235 -25 -84 -16 -93 -20 -132 -60 -39
-40 -42 -47 -48 -119 -7 -77 -3 -196 9 -225 4 -11 -33 -34 -152 -93 -86 -42
-181 -92 -209 -111 -62 -39 -95 -38 -120 5 -9 16 -34 35 -55 44 -34 13 -42 13
-68 0 -79 -41 -136 -208 -142 -418 -3 -87 -2 -89 26 -114 25 -22 37 -24 92
-21 l62 3 6 -35 c10 -58 67 -141 125 -182 90 -63 194 -71 298 -21 46 21 112
88 130 131 l14 34 23 -21 c32 -30 116 -51 202 -51 80 0 129 16 186 62 l38 30
770 3 c587 3 770 1 770 -8 0 -27 50 -114 85 -149 20 -21 61 -49 92 -64 46 -23
67 -27 132 -26 86 1 142 20 203 69 24 20 54 32 85 37 46 6 81 16 156 43 44 15
112 75 133 116 12 23 21 27 55 27 120 0 136 175 19 199 -35 7 -35 7 -41 72 -6
73 -34 132 -65 138 -10 2 -32 14 -47 27 -16 13 -35 24 -43 24 -8 0 -14 10 -14
24 0 31 -33 69 -85 95 -21 11 -62 43 -90 70 -126 123 -169 143 -223 106 -19
-14 -70 -16 -381 -13 l-359 3 -6 50 c-3 28 -6 109 -6 182 0 129 0 132 23 136
21 3 20 4 -8 18 -25 11 -121 14 -545 15 -283 1 -580 -2 -660 -7z"/>
</g>
</svg>
