<?xml version="1.0" standalone="no"?>
<!DOCTYPE svg PUBLIC "-//W3C//DTD SVG 20010904//EN"
 "http://www.w3.org/TR/2001/REC-SVG-20010904/DTD/svg10.dtd">
<svg version="1.0" xmlns="http://www.w3.org/2000/svg"
 width="283.000000pt" height="445.000000pt" viewBox="0 0 283.000000 445.000000"
 preserveAspectRatio="xMidYMid meet">
<metadata>
Created by potrace 1.13, written by Peter Selinger 2001-2015
</metadata>
<g transform="translate(0.000000,445.000000) scale(0.100000,-0.100000)"
fill="#000000" stroke="none">
<path d="M1843 4151 c-518 -158 -944 -289 -947 -291 -2 -3 8 -593 23 -1312 17
-827 24 -1337 19 -1389 -21 -194 -92 -394 -197 -550 -54 -81 -189 -224 -272
-288 -60 -46 -388 -266 -439 -294 -18 -10 -31 -19 -29 -21 4 -4 249 19 534 49
395 42 693 110 908 207 125 56 228 67 449 47 90 -8 213 -14 273 -13 98 0 117
3 172 28 72 33 148 107 186 182 59 116 122 348 167 609 59 348 58 332 99 1865
21 795 37 1448 34 1453 -2 4 -12 7 -21 6 -9 -1 -441 -130 -959 -288z"/>
</g>
</svg>
