<?xml version="1.0" standalone="no"?>
<!DOCTYPE svg PUBLIC "-//W3C//DTD SVG 20010904//EN"
 "http://www.w3.org/TR/2001/REC-SVG-20010904/DTD/svg10.dtd">
<svg version="1.0" xmlns="http://www.w3.org/2000/svg"
 width="283.000000pt" height="445.000000pt" viewBox="0 0 283.000000 445.000000"
 preserveAspectRatio="xMidYMid meet">
<metadata>
Created by potrace 1.13, written by Peter Selinger 2001-2015
</metadata>
<g transform="translate(0.000000,445.000000) scale(0.100000,-0.100000)"
fill="#000000" stroke="none">
<path d="M1843 4151 c-518 -158 -944 -289 -947 -291 -2 -3 8 -593 23 -1312 17
-827 24 -1337 19 -1389 -21 -194 -92 -394 -197 -550 -54 -81 -189 -224 -272
-288 -60 -46 -388 -266 -439 -294 -18 -10 -31 -19 -29 -21 2 -2 90 5 194 15
748 73 928 109 1305 263 129 53 145 61 178 90 63 56 92 133 117 316 45 328
103 395 500 578 235 108 321 159 391 231 72 75 64 -43 105 1516 20 776 35
1413 32 1418 -2 4 -12 7 -21 6 -9 -1 -441 -130 -959 -288z"/>
</g>
</svg>
