<?xml version="1.0" standalone="no"?>
<!DOCTYPE svg PUBLIC "-//W3C//DTD SVG 20010904//EN"
 "http://www.w3.org/TR/2001/REC-SVG-20010904/DTD/svg10.dtd">
<svg version="1.0" xmlns="http://www.w3.org/2000/svg"
 width="285.000000pt" height="424.000000pt" viewBox="0 0 285.000000 424.000000"
 preserveAspectRatio="xMidYMid meet">
<metadata>
Created by potrace 1.13, written by Peter Selinger 2001-2015
</metadata>
<g transform="translate(0.000000,424.000000) scale(0.100000,-0.100000)"
fill="#000000" stroke="none">
<path d="M2640 4164 c-107 -41 -362 -130 -566 -198 -371 -124 -439 -151 -524
-210 -88 -60 -205 -202 -234 -283 -39 -111 -126 -243 -236 -358 -110 -115
-146 -173 -170 -275 -15 -61 -10 -318 15 -939 22 -531 22 -728 1 -835 -75
-381 -260 -632 -659 -889 -45 -29 -124 -80 -175 -112 -51 -32 -91 -59 -90 -60
2 -2 156 12 343 31 567 57 812 106 1084 218 58 24 156 60 217 79 436 139 809
455 989 840 55 119 100 273 114 398 14 122 45 1363 38 1539 -3 99 -14 184 -41
320 -44 221 -53 331 -36 437 15 94 59 222 106 309 19 35 31 64 27 63 -5 -1
-96 -35 -203 -75z"/>
</g>
</svg>
