<?xml version="1.0" standalone="no"?>
<!DOCTYPE svg PUBLIC "-//W3C//DTD SVG 20010904//EN"
 "http://www.w3.org/TR/2001/REC-SVG-20010904/DTD/svg10.dtd">
<svg version="1.0" xmlns="http://www.w3.org/2000/svg"
 width="287.000000pt" height="427.000000pt" viewBox="0 0 287.000000 427.000000"
 preserveAspectRatio="xMidYMid meet">
<metadata>
Created by potrace 1.13, written by Peter Selinger 2001-2015
</metadata>
<g transform="translate(0.000000,427.000000) scale(0.100000,-0.100000)"
fill="#000000" stroke="none">
<path d="M2590 4252 c-88 -35 -190 -112 -425 -319 -82 -72 -214 -162 -293
-200 -136 -65 -220 -52 -492 77 -262 125 -349 145 -430 99 -47 -27 -64 -55
-89 -154 -51 -200 -51 -342 -1 -685 24 -164 32 -263 40 -495 5 -159 17 -465
25 -680 22 -569 22 -718 -3 -840 -82 -409 -268 -636 -790 -964 -73 -46 -131
-85 -130 -86 6 -6 689 66 811 86 240 38 516 113 630 171 21 10 102 40 180 65
579 186 995 615 1107 1141 19 87 23 171 40 792 23 875 24 882 59 1135 40 277
46 370 32 485 -18 150 -73 320 -117 361 -31 29 -97 34 -154 11z"/>
</g>
</svg>
