<?xml version="1.0" standalone="no"?>
<!DOCTYPE svg PUBLIC "-//W3C//DTD SVG 20010904//EN"
 "http://www.w3.org/TR/2001/REC-SVG-20010904/DTD/svg10.dtd">
<svg version="1.0" xmlns="http://www.w3.org/2000/svg"
 width="172.000000pt" height="89.000000pt" viewBox="0 0 172.000000 89.000000"
 preserveAspectRatio="xMidYMid meet">
<metadata>
Created by potrace 1.13, written by Peter Selinger 2001-2015
</metadata>
<g transform="translate(0.000000,89.000000) scale(0.100000,-0.100000)"
fill="#000000" stroke="none">
<path d="M917 864 c-3 -3 -36 -7 -74 -8 l-68 -2 2 -47 3 -48 -46 7 -47 7 5
-31 c3 -20 0 -33 -9 -36 -17 -7 -17 -36 1 -61 13 -18 12 -20 -14 -20 -21 0
-26 4 -22 19 3 11 -2 22 -12 28 -13 7 -15 17 -10 44 6 31 4 34 -19 34 -14 0
-28 -4 -31 -9 -3 -5 -15 -11 -27 -14 -16 -4 -19 -2 -15 10 4 9 3 31 0 50 l-7
35 -58 -4 c-46 -3 -63 -9 -79 -28 -27 -31 -25 -66 5 -94 l25 -24 -45 -7 -46
-6 7 -55 c5 -45 4 -54 -9 -54 -8 0 -17 -5 -19 -11 -6 -19 -58 8 -58 31 0 24
-35 28 -44 5 -9 -24 -23 -17 -30 15 -7 35 -28 47 -59 32 -12 -6 -35 -13 -51
-17 -42 -9 -58 -29 -54 -72 3 -33 7 -38 30 -41 19 -2 30 3 38 17 17 32 26 26
46 -30 20 -54 57 -99 81 -99 8 0 33 -16 56 -35 37 -32 41 -40 38 -75 -2 -29 2
-42 13 -46 8 -3 22 -29 32 -57 35 -108 40 -115 113 -138 180 -56 821 -24 887
44 6 7 22 43 35 81 14 42 30 71 40 73 16 5 29 31 29 61 0 7 -15 22 -32 33 -25
15 -27 19 -10 14 23 -7 82 11 82 25 0 4 20 17 45 30 35 18 48 32 61 66 9 24
24 50 34 59 16 14 18 14 23 0 4 -8 15 -15 26 -15 35 0 43 63 12 101 -17 22
-22 23 -50 12 -19 -7 -31 -7 -31 -1 0 5 -12 8 -27 6 -23 -2 -29 -8 -31 -35 -3
-29 -5 -31 -23 -20 -10 6 -19 17 -19 24 0 27 -38 13 -49 -17 -5 -16 -14 -30
-18 -31 -61 -5 -82 -3 -68 7 8 6 15 21 15 33 0 11 5 21 10 21 6 0 10 12 10 26
0 21 -8 29 -41 42 l-41 16 31 27 c37 32 38 45 7 74 -33 31 -83 46 -123 39 -31
-6 -33 -8 -33 -50 0 -47 -12 -55 -49 -32 -28 17 -51 3 -51 -32 0 -16 -4 -30
-10 -30 -5 0 -10 -9 -10 -20 0 -13 -7 -20 -19 -20 -14 0 -17 6 -14 24 3 13 0
27 -6 30 -6 4 -11 23 -11 43 l0 36 -50 -7 c-48 -6 -50 -6 -50 18 0 14 5 28 10
31 6 3 10 17 10 31 0 17 -6 24 -18 24 -10 0 -21 -3 -25 -6z m-60 -146 c-3 -7
-5 -2 -5 12 0 14 2 19 5 13 2 -7 2 -19 0 -25z m-27 -53 c0 -21 -5 -35 -12 -35
-8 0 -12 12 -11 32 2 40 1 38 13 38 6 0 10 -16 10 -35z m100 -11 c0 -8 -7 -14
-15 -14 -10 0 -15 10 -15 26 0 22 2 25 15 14 8 -7 15 -19 15 -26z m-395 -13
c5 -13 4 -14 -6 -3 -7 6 -21 12 -31 12 -10 0 -18 4 -18 9 0 15 48 0 55 -18z
m-71 -18 c-9 -38 -11 -39 -16 -3 -3 21 0 30 9 30 10 0 11 -8 7 -27z m738 2
c-2 -14 -9 -25 -14 -25 -5 0 -7 3 -5 8 2 4 7 15 10 25 9 25 15 21 9 -8z m86
-17 c-2 -17 -10 -34 -18 -36 -13 -5 -13 -3 -1 11 7 9 11 26 8 37 -3 11 -1 20
5 20 5 0 8 -14 6 -32z m-458 -63 c0 -43 -38 -90 -66 -81 -22 7 -54 58 -54 87
0 16 7 19 44 19 25 0 48 5 51 10 11 19 25 -1 25 -35z m198 30 c7 -6 -42 -93
-60 -104 -24 -15 -34 -9 -57 37 -14 28 -16 42 -8 59 9 21 15 22 66 17 31 -4
57 -8 59 -9z m-504 -15 c-7 -7 -19 -7 -35 -1 -23 9 -22 10 11 10 23 1 31 -2
24 -9z m653 -22 c16 -13 -8 -63 -38 -79 -29 -15 -46 3 -55 58 l-6 41 43 -5
c24 -3 50 -10 56 -15z m-517 -5 c0 -37 -21 -93 -35 -93 -23 0 -68 66 -60 90 5
16 15 20 51 20 35 0 44 -3 44 -17z m-270 -23 c0 -25 4 -30 23 -30 13 0 32 6
43 14 13 10 23 11 31 4 18 -15 16 -38 -6 -71 l-18 -28 -42 39 c-44 41 -71 102
-45 102 9 0 14 -11 14 -30z m904 -5 c11 -8 29 -15 40 -15 18 0 18 -2 -5 -26
-39 -42 -60 -50 -76 -28 -17 23 -17 71 0 77 18 8 20 8 41 -8z m-1064 -35 c0
-5 -11 -10 -25 -10 -14 0 -25 5 -25 10 0 6 11 10 25 10 14 0 25 -4 25 -10z
m123 -80 c-4 -16 -9 -17 -36 -8 -29 11 -30 12 -9 19 23 9 30 43 12 54 -6 4 -7
12 -3 18 9 15 42 -60 36 -83z m1072 73 c-16 -40 -17 -56 -4 -64 10 -7 7 -9
-11 -7 -21 3 -25 8 -23 31 2 30 19 57 35 57 6 0 7 -8 3 -17z m-545 -43 c0 -11
-7 -20 -15 -20 -27 0 -18 30 13 39 1 1 2 -8 2 -19z m170 -11 c0 -5 -9 -9 -20
-9 -17 0 -19 2 -8 14 13 14 28 12 28 -5z m-492 -38 c-15 -5 -19 4 -11 24 6 18
7 18 13 -1 4 -10 3 -21 -2 -23z m389 33 c-3 -3 -12 -4 -19 -1 -8 3 -5 6 6 6
11 1 17 -2 13 -5z m263 -19 c0 -8 -9 -15 -20 -15 -22 0 -27 15 -7 23 21 9 27
7 27 -8z m-181 -73 c49 -4 51 -5 30 -19 -17 -13 -20 -22 -14 -49 l6 -34 -53 1
-53 1 35 12 c48 17 51 46 6 70 -23 12 -33 23 -29 33 4 11 8 12 13 2 4 -6 31
-14 59 -17z m-266 -8 c-47 -20 -44 -48 10 -73 l42 -19 -55 -1 c-30 -1 -66 -4
-80 -8 -24 -6 -24 -6 -7 11 20 20 22 47 5 64 -22 22 15 38 92 40 23 0 22 -1
-7 -14z m491 -29 c29 -5 36 -9 25 -16 -8 -5 -26 -9 -41 -9 -33 0 -37 -23 -10
-53 17 -19 16 -19 -18 -12 -44 9 -46 11 -30 30 7 8 10 28 8 45 -4 24 -1 29 11
26 9 -2 34 -7 55 -11z m-720 -21 c-5 -18 -1 -31 14 -47 l21 -23 -43 -10 c-35
-8 -43 -7 -39 3 3 7 9 13 14 13 5 0 9 11 9 25 0 21 -5 25 -28 25 -46 0 -46 13
0 26 24 6 46 12 51 13 4 0 4 -10 1 -25z m589 -1 c-7 -2 -19 -2 -25 0 -7 3 -2
5 12 5 14 0 19 -2 13 -5z m-506 -9 c-3 -3 -12 -4 -19 -1 -8 3 -5 6 6 6 11 1
17 -2 13 -5z m513 -129 c62 -12 55 -13 -145 -15 -198 -3 -335 -3 -380 1 -35 3
66 19 170 28 117 9 264 4 355 -14z"/>
</g>
</svg>
