<?xml version="1.0" standalone="no"?>
<!DOCTYPE svg PUBLIC "-//W3C//DTD SVG 20010904//EN"
 "http://www.w3.org/TR/2001/REC-SVG-20010904/DTD/svg10.dtd">
<svg version="1.0" xmlns="http://www.w3.org/2000/svg"
 width="633.000000pt" height="521.000000pt" viewBox="0 0 633.000000 521.000000"
 preserveAspectRatio="xMidYMid meet">
<metadata>
Created by potrace 1.13, written by Peter Selinger 2001-2015
</metadata>
<g transform="translate(0.000000,521.000000) scale(0.100000,-0.100000)"
fill="#000000" stroke="none">
<path d="M5589 4906 c-2 -3 -30 -6 -62 -7 -47 -2 -72 -10 -135 -46 -78 -44
-131 -94 -132 -124 0 -9 -9 -26 -20 -39 -11 -13 -20 -26 -20 -30 0 -4 -27 -25
-60 -46 -66 -42 -106 -104 -97 -150 4 -22 -2 -30 -39 -54 -95 -60 -144 -124
-144 -186 0 -10 14 -39 30 -63 60 -88 49 -104 -164 -256 -31 -22 -56 -45 -56
-51 0 -6 -7 -17 -15 -24 -8 -7 -15 -25 -15 -39 0 -66 -106 -106 -193 -73 -55
21 -72 41 -81 97 -4 22 -9 54 -12 71 -5 28 1 39 58 101 87 96 128 174 128 247
0 49 -6 68 -46 136 -56 97 -105 138 -198 166 l-70 21 -17 59 c-29 105 -88 178
-182 223 -35 17 -64 22 -122 22 -67 0 -83 -4 -133 -31 -91 -51 -162 -146 -162
-217 0 -35 30 -111 60 -153 11 -16 20 -33 20 -38 0 -6 -22 -23 -50 -38 -36
-20 -50 -33 -50 -49 0 -12 -9 -30 -20 -40 -11 -10 -18 -20 -15 -23 2 -2 -5
-23 -17 -46 -33 -64 -31 -156 5 -226 38 -73 106 -141 176 -176 51 -26 67 -29
166 -31 l110 -1 6 -49 c13 -103 -9 -157 -72 -183 -26 -11 -32 -10 -64 16 -170
138 -198 149 -271 111 -31 -16 -74 -68 -74 -90 0 -7 -4 -17 -8 -22 -5 -6 -14
-30 -21 -55 -26 -94 -27 -95 -116 -96 -71 0 -83 2 -107 24 l-27 25 42 42 c23
23 52 48 65 54 15 8 21 18 18 28 -4 9 -1 23 7 32 7 9 23 48 36 86 13 39 31 81
41 95 26 37 41 94 35 128 -3 16 -39 89 -80 161 -41 71 -75 137 -75 145 0 8 -4
17 -9 20 -4 3 -11 19 -14 35 -3 16 -31 56 -62 89 -52 56 -59 61 -120 71 -35 6
-69 10 -75 9 -14 -3 -27 17 -34 53 -15 74 -85 127 -181 138 -58 7 -93 32 -225
163 -51 50 -75 68 -96 68 -129 4 -142 2 -207 -22 -86 -32 -122 -65 -160 -148
-27 -58 -30 -74 -28 -145 1 -44 6 -84 11 -90 4 -5 17 -27 29 -48 23 -41 20
-57 -18 -91 -12 -11 -21 -27 -21 -36 0 -9 -3 -20 -7 -24 -17 -17 -10 -73 14
-114 27 -45 26 -88 -2 -142 -46 -90 -47 -97 -19 -141 45 -72 51 -128 25 -254
l-20 -100 23 -50 c43 -94 102 -135 204 -141 39 -3 76 -11 92 -22 73 -46 106
-71 119 -86 22 -26 105 -21 158 9 25 15 43 33 43 44 0 20 43 47 59 37 15 -10
14 -44 -4 -112 -18 -71 -25 -79 -86 -99 -46 -16 -54 -16 -112 0 -34 9 -71 18
-82 19 -11 2 -28 6 -38 11 -23 10 -110 -36 -116 -61 -2 -10 -16 -30 -32 -46
-30 -31 -34 -49 -44 -202 -3 -49 -10 -95 -17 -103 -11 -14 -92 -39 -118 -36
-8 1 -28 6 -45 12 -16 6 -59 16 -93 23 -76 15 -93 35 -64 73 11 13 25 46 32
72 7 26 18 55 25 63 7 9 11 46 11 95 -2 72 -5 86 -36 135 -46 75 -87 118 -141
145 -49 25 -169 51 -194 41 -9 -3 -34 16 -67 50 -29 30 -77 69 -107 86 -45 26
-64 31 -117 30 -42 0 -72 -7 -91 -19 -31 -20 -113 -98 -113 -108 0 -3 -9 -15
-20 -27 -33 -36 -44 -119 -30 -232 7 -55 19 -122 26 -150 8 -28 14 -84 14
-124 0 -57 5 -83 24 -121 41 -81 116 -154 200 -195 41 -20 78 -41 81 -46 7
-11 72 -7 171 8 73 12 95 7 131 -32 24 -27 33 -46 39 -92 4 -34 3 -64 -3 -73
-14 -22 -98 -23 -160 -2 -26 10 -64 17 -83 16 -37 -1 -128 -46 -156 -76 -24
-26 -34 -84 -19 -111 7 -13 27 -49 44 -81 28 -50 32 -63 24 -94 -5 -20 -14
-38 -20 -40 -7 -3 -32 27 -57 66 -26 40 -58 77 -75 86 -34 17 -84 50 -122 80
-28 22 -109 153 -109 176 0 38 -34 110 -60 129 -29 21 -123 29 -134 11 -5 -8
-35 -16 -99 -27 -16 -3 -34 -1 -41 5 -16 14 -59 -1 -155 -56 -74 -42 -75 -42
-110 -26 -73 33 -170 10 -213 -50 -17 -23 -22 -46 -23 -105 l-1 -75 -45 -30
c-32 -21 -52 -45 -72 -86 -31 -64 -33 -82 -12 -141 8 -23 15 -57 15 -74 1 -69
57 -170 114 -206 37 -22 123 -29 178 -13 45 13 118 70 118 92 0 9 9 31 21 50
20 33 20 33 84 29 72 -4 69 -2 139 -109 24 -36 55 -75 70 -86 29 -23 100 -37
123 -25 18 11 90 -4 113 -23 8 -7 46 -27 83 -45 37 -18 70 -37 73 -42 3 -4 14
-8 24 -8 11 0 37 -9 57 -20 21 -11 73 -29 116 -39 42 -11 91 -30 108 -43 44
-32 104 -114 183 -251 37 -65 80 -126 94 -135 25 -16 118 -21 177 -9 28 6 51
-8 68 -40 7 -16 23 -45 35 -65 12 -22 17 -40 12 -43 -15 -9 -12 -73 6 -106 16
-32 66 -59 108 -59 14 0 28 -4 31 -10 3 -5 12 -10 20 -10 18 0 105 -83 106
-102 1 -7 2 -20 3 -28 1 -8 23 -59 49 -113 55 -112 80 -133 192 -167 39 -12
84 -26 100 -32 88 -31 114 -34 207 -23 51 7 113 17 138 24 92 26 118 31 146
31 15 0 46 9 68 19 23 11 55 22 71 25 34 6 115 34 130 45 5 4 48 20 95 35 106
34 187 64 221 82 15 7 62 29 105 47 112 48 1253 709 1348 781 43 34 100 79
125 101 25 23 80 68 121 102 75 60 190 182 190 201 0 5 7 15 15 22 8 7 14 22
14 34 0 11 5 41 11 66 11 44 6 105 -10 125 -4 6 -13 37 -19 70 -13 66 -16 75
-54 155 -14 30 -28 71 -32 90 -4 19 -14 47 -21 63 -13 23 -13 35 0 81 22 85 9
212 -26 261 -17 25 -20 96 -5 138 27 73 47 154 47 187 0 22 -14 52 -44 94
-133 188 -168 301 -121 396 13 27 43 113 69 200 9 30 21 64 25 75 5 11 14 45
20 75 7 33 24 70 41 92 17 20 35 59 41 86 10 43 9 61 -16 152 -15 57 -33 114
-42 126 -10 16 -12 28 -5 41 5 10 6 44 3 76 -8 66 1 78 32 49 68 -64 166 -53
231 26 28 33 32 43 39 102 7 55 -26 146 -94 267 -64 112 -74 123 -107 133 -38
10 -95 13 -103 6z"/>
</g>
</svg>
