<?xml version="1.0" standalone="no"?>
<!DOCTYPE svg PUBLIC "-//W3C//DTD SVG 20010904//EN"
 "http://www.w3.org/TR/2001/REC-SVG-20010904/DTD/svg10.dtd">
<svg version="1.0" xmlns="http://www.w3.org/2000/svg"
 width="149.000000pt" height="72.000000pt" viewBox="0 0 149.000000 72.000000"
 preserveAspectRatio="xMidYMid meet">
<metadata>
Created by potrace 1.13, written by Peter Selinger 2001-2015
</metadata>
<g transform="translate(0.000000,72.000000) scale(0.100000,-0.100000)"
fill="#000000" stroke="none">
<path d="M683 689 c-22 -14 -34 -31 -39 -53 -7 -42 10 -108 36 -131 19 -17 19
-19 3 -37 -13 -14 -26 -18 -46 -14 -17 3 -37 0 -50 -9 -30 -19 -142 -19 -158
1 -10 12 -9 21 5 46 27 44 16 105 -24 141 -33 29 -55 33 -112 17 -43 -12 -58
-34 -58 -82 0 -36 16 -64 64 -116 l30 -32 -21 -22 c-12 -11 -27 -18 -35 -14
-49 24 -71 45 -84 81 -20 60 -58 88 -108 82 -59 -8 -80 -38 -72 -102 7 -64 47
-105 104 -105 27 -1 46 -9 68 -29 36 -33 49 -62 45 -108 -2 -23 2 -33 16 -37
15 -5 18 -14 15 -45 -3 -32 0 -41 18 -51 84 -45 318 -74 549 -68 148 4 192 9
281 32 115 30 134 44 125 92 -4 23 -1 33 10 38 9 3 15 18 15 39 0 19 7 40 15
47 8 7 15 18 15 24 0 19 59 46 99 46 28 0 45 7 64 26 51 51 45 167 -10 180
-61 16 -143 -26 -143 -73 0 -31 -13 -40 -67 -46 -71 -8 -77 12 -18 53 34 23
45 38 46 58 4 98 -19 132 -90 132 -52 0 -60 -4 -84 -42 -22 -35 -23 -121 -2
-138 11 -9 12 -16 5 -25 -14 -17 -49 -25 -56 -14 -3 5 -24 9 -48 9 -23 0 -51
7 -62 15 -12 9 -32 12 -54 9 -53 -9 -70 15 -35 50 14 14 25 35 25 48 0 13 4
29 9 37 14 21 -24 90 -55 101 -41 16 -97 11 -131 -11z m81 -62 c-10 -32 -31
-49 -56 -45 -38 5 -35 44 3 67 38 23 64 12 53 -22z m-444 -42 c0 -28 -17 -34
-27 -9 -3 9 0 20 8 25 19 12 19 12 19 -16z m848 -27 c-12 -34 -43 -37 -52 -5
-8 29 29 63 48 44 10 -8 11 -19 4 -39z m-1078 -108 c14 -34 9 -46 -15 -37 -16
7 -22 67 -6 67 5 0 14 -14 21 -30z m558 -152 c-29 -10 -36 -36 -16 -56 9 -9 0
-12 -40 -12 -29 0 -52 5 -52 10 0 6 11 10 25 10 34 0 36 40 3 41 -22 1 -22 1
2 9 14 4 43 8 65 8 38 0 39 0 13 -10z m222 -8 c0 -5 -4 -10 -10 -10 -5 0 -10
5 -10 10 0 6 5 10 10 10 6 0 10 -4 10 -10z m-50 -170 c0 -11 5 -20 10 -20 6 0
10 -11 10 -25 0 -14 -4 -25 -10 -25 -5 0 -10 11 -10 25 0 16 -6 25 -16 25 -15
0 -44 23 -44 34 0 3 14 6 30 6 23 0 30 -4 30 -20z"/>
</g>
</svg>
