<?xml version="1.0" standalone="no"?>
<!DOCTYPE svg PUBLIC "-//W3C//DTD SVG 20010904//EN"
 "http://www.w3.org/TR/2001/REC-SVG-20010904/DTD/svg10.dtd">
<svg version="1.0" xmlns="http://www.w3.org/2000/svg"
 width="76.000000pt" height="41.000000pt" viewBox="0 0 76.000000 41.000000"
 preserveAspectRatio="xMidYMid meet">
<metadata>
Created by potrace 1.13, written by Peter Selinger 2001-2015
</metadata>
<g transform="translate(0.000000,41.000000) scale(0.100000,-0.100000)"
fill="#000000" stroke="none">
<path d="M343 373 c-16 -33 -16 -58 -2 -84 5 -11 7 -29 4 -40 -12 -35 -35 -2
-35 50 0 25 -7 54 -15 64 -20 27 -55 18 -74 -19 -16 -28 -19 -30 -36 -18 -10
8 -29 14 -41 14 -18 0 -23 -7 -29 -40 -7 -43 5 -70 31 -70 8 0 14 -7 14 -15 0
-16 -18 -20 -35 -7 -6 4 -15 21 -20 37 -9 27 -15 30 -50 30 -39 0 -40 -1 -43
-40 -3 -39 -2 -40 47 -63 39 -17 54 -31 67 -60 8 -20 20 -45 25 -54 5 -10 9
-24 9 -32 0 -7 14 -16 31 -20 39 -8 264 -6 344 3 56 6 60 8 63 34 2 15 8 27
13 27 5 0 9 15 9 33 1 26 8 37 41 60 21 15 46 27 54 27 17 0 35 39 35 77 0 24
-3 25 -45 21 -43 -3 -45 -2 -45 24 0 23 -4 28 -24 28 -48 0 -76 -18 -76 -47
-1 -30 -20 -63 -39 -63 -17 0 -13 40 4 46 31 12 11 114 -23 114 -30 0 -51 -35
-54 -91 -2 -29 -8 -54 -14 -56 -16 -5 -27 28 -14 41 15 15 12 63 -6 91 -22 33
-56 32 -71 -2z"/>
</g>
</svg>
