<?xml version="1.0" standalone="no"?>
<!DOCTYPE svg PUBLIC "-//W3C//DTD SVG 20010904//EN"
 "http://www.w3.org/TR/2001/REC-SVG-20010904/DTD/svg10.dtd">
<svg version="1.0" xmlns="http://www.w3.org/2000/svg"
 width="80.000000pt" height="42.000000pt" viewBox="0 0 80.000000 42.000000"
 preserveAspectRatio="xMidYMid meet">
<metadata>
Created by potrace 1.13, written by Peter Selinger 2001-2015
</metadata>
<g transform="translate(0.000000,42.000000) scale(0.100000,-0.100000)"
fill="#000000" stroke="none">
<path d="M346 394 c-23 -22 -20 -70 5 -93 12 -11 18 -24 14 -30 -10 -17 -23
-13 -30 9 -8 26 -45 27 -45 1 0 -11 -4 -23 -10 -26 -6 -4 -10 10 -10 33 0 42
-11 52 -56 52 -17 0 -27 -8 -34 -26 -14 -36 -12 -54 5 -54 8 0 15 -4 15 -8 0
-5 -13 -7 -29 -4 -24 3 -30 0 -34 -19 -3 -19 -5 -17 -6 8 0 17 -8 39 -17 47
-19 19 -63 20 -86 2 -23 -17 -25 -86 -3 -86 8 0 15 -4 15 -10 0 -5 8 -10 18
-10 25 0 50 -32 58 -74 3 -20 10 -36 15 -36 5 0 9 -9 9 -19 0 -36 58 -46 270
-46 214 0 247 7 267 53 7 15 21 48 32 74 17 39 25 48 46 48 18 0 25 5 25 20 0
11 5 20 10 20 15 0 12 33 -6 58 -10 15 -25 22 -47 22 -46 0 -60 -13 -61 -54
-1 -39 -11 -47 -19 -16 -6 22 -43 28 -50 8 -2 -7 -8 -10 -12 -6 -5 5 -1 16 8
26 20 22 22 63 5 80 -17 17 -63 15 -78 -3 -8 -9 -10 -28 -5 -51 4 -24 3 -34
-4 -29 -6 3 -11 13 -11 21 0 20 -37 18 -49 -3 -9 -16 -12 -16 -20 -3 -7 10 -5
20 5 31 17 19 19 80 2 97 -17 17 -84 15 -102 -4z"/>
</g>
</svg>
