<?xml version="1.0" standalone="no"?>
<!DOCTYPE svg PUBLIC "-//W3C//DTD SVG 20010904//EN"
 "http://www.w3.org/TR/2001/REC-SVG-20010904/DTD/svg10.dtd">
<svg version="1.0" xmlns="http://www.w3.org/2000/svg"
 width="192.000000pt" height="114.000000pt" viewBox="0 0 192.000000 114.000000"
 preserveAspectRatio="xMidYMid meet">
<metadata>
Created by potrace 1.13, written by Peter Selinger 2001-2015
</metadata>
<g transform="translate(0.000000,114.000000) scale(0.100000,-0.100000)"
fill="#000000" stroke="none">
<path d="M985 1120 c-11 -5 -32 -9 -47 -9 -16 -1 -28 -5 -28 -11 0 -5 -9 -10
-19 -10 -21 0 -31 -19 -31 -61 0 -18 -5 -29 -14 -29 -16 0 -26 -21 -26 -58 0
-19 -7 -30 -22 -37 -36 -16 -34 -50 4 -89 18 -18 39 -41 47 -51 9 -11 22 -15
38 -12 18 3 23 1 19 -10 -3 -8 -6 -17 -6 -19 0 -12 -40 -1 -55 16 -24 26 -75
27 -82 1 -7 -27 -57 -47 -86 -33 -22 10 -22 10 6 17 17 4 29 16 33 30 3 13 14
31 25 41 28 25 25 68 -6 82 -14 7 -28 19 -31 27 -4 8 -17 15 -30 15 -17 0 -24
6 -24 19 0 25 -26 51 -51 51 -10 0 -28 9 -39 20 -42 42 -130 15 -130 -39 0
-17 -7 -31 -16 -35 -13 -5 -15 -18 -12 -64 2 -44 -2 -68 -16 -94 -25 -46 -17
-64 36 -80 l43 -12 -32 -4 c-19 -2 -33 -9 -33 -17 0 -7 -9 -23 -20 -36 l-19
-24 -1 30 c0 17 -5 36 -12 43 -7 7 -11 27 -10 46 2 29 -2 35 -30 47 -18 7 -38
20 -44 28 -8 10 -23 12 -52 9 -29 -4 -42 -2 -46 8 -7 19 -55 18 -62 -1 -4 -8
-18 -15 -34 -15 -15 0 -32 -6 -37 -12 -14 -18 -25 -82 -17 -102 9 -22 70 -22
83 1 9 17 11 16 34 -5 14 -13 27 -36 31 -52 4 -21 13 -31 31 -36 14 -3 25 -12
25 -19 0 -7 20 -31 43 -52 55 -48 68 -73 61 -113 -5 -24 -2 -36 15 -54 19 -20
22 -31 16 -70 -7 -43 -6 -45 19 -52 29 -7 52 -39 36 -49 -5 -3 -10 -21 -10
-40 0 -49 34 -82 100 -99 143 -36 199 -41 420 -41 251 0 376 15 493 58 47 17
57 34 57 93 0 30 4 54 8 54 24 0 52 43 52 79 0 31 5 40 25 49 21 10 25 19 25
52 0 40 23 100 38 100 5 0 26 16 48 35 21 19 47 35 56 35 11 0 19 11 23 33 4
17 22 50 40 72 l34 40 10 -28 c20 -52 90 -27 91 33 0 34 -26 70 -51 70 -10 0
-19 7 -19 15 0 11 -12 15 -44 15 -26 0 -48 -6 -56 -15 -7 -8 -22 -15 -34 -15
-12 0 -30 -6 -41 -14 -11 -7 -37 -15 -57 -18 -42 -4 -48 3 -48 63 0 25 -5 42
-14 45 -12 4 -12 11 -4 29 13 28 3 75 -16 75 -7 0 -16 14 -20 30 -3 19 -15 34
-30 41 -27 13 -96 4 -96 -11 0 -6 -14 -10 -30 -10 -22 0 -33 -6 -41 -24 -7
-14 -22 -27 -35 -30 -12 -3 -26 -15 -29 -27 -4 -11 -22 -27 -41 -35 -27 -12
-34 -20 -34 -43 0 -16 7 -34 15 -41 8 -7 15 -25 15 -40 0 -23 -4 -27 -20 -23
-12 3 -31 -5 -51 -21 -36 -30 -46 -32 -77 -10 -32 22 -27 32 16 36 31 3 37 7
40 28 2 15 12 30 25 35 18 8 22 17 20 50 -1 22 -3 50 -3 63 0 32 -18 62 -36
62 -8 0 -12 4 -9 10 3 5 3 25 -1 45 -4 26 -11 35 -25 35 -11 0 -23 8 -26 18
-12 32 -38 39 -78 22z m-404 -190 c25 0 24 -22 -1 -45 -19 -17 -20 -17 -30 10
-6 15 -13 32 -17 38 -4 6 0 8 11 4 10 -4 26 -7 37 -7z m-81 -22 c0 -7 3 -24 7
-37 6 -22 4 -23 -23 -17 -39 10 -62 46 -29 46 8 0 15 5 15 10 0 6 7 10 15 10
8 0 15 -6 15 -12z m337 -30 c-3 -8 -6 -5 -6 6 -1 11 2 17 5 13 3 -3 4 -12 1
-19z m-182 -28 c3 -5 -1 -10 -9 -10 -9 0 -16 5 -16 10 0 6 4 10 9 10 6 0 13
-4 16 -10z m-181 -49 c3 -5 -1 -11 -9 -15 -9 -3 -15 0 -15 9 0 16 16 20 24 6z
m194 -13 c-3 -7 -20 -14 -39 -16 l-34 -2 25 15 c31 18 53 19 48 3z m-138 -48
c-26 -20 -40 -22 -43 -5 -2 8 15 14 63 24 3 0 -6 -8 -20 -19z m741 -20 c27 0
29 -2 19 -20 -15 -27 -41 -25 -64 7 -18 24 -18 26 -2 20 10 -4 31 -7 47 -7z
m-615 -66 c14 -4 41 -4 60 -1 44 7 46 -13 3 -32 -24 -10 -36 -11 -55 -2 -34
15 -71 14 -81 -3 -10 -18 -64 -47 -75 -40 -14 9 -9 24 10 24 21 1 52 23 52 39
0 6 5 11 10 11 6 0 10 12 10 27 l0 27 20 -22 c11 -12 32 -25 46 -28z m913 4
l-12 -22 -9 23 c-6 18 -14 22 -33 19 -14 -3 -25 -2 -25 3 0 10 84 17 88 7 2
-4 -2 -17 -9 -30z m-1019 12 c0 -13 -46 -24 -62 -14 -9 6 -6 10 12 15 37 10
50 10 50 -1z m911 -7 c24 7 24 -5 0 -20 -15 -9 -23 -8 -40 3 -28 20 -28 38 0
23 12 -6 30 -9 40 -6z m-671 -87 c0 -9 -34 -20 -107 -35 -60 -12 -118 -24
-130 -27 -14 -4 -23 -2 -23 5 0 6 9 11 20 11 21 0 60 19 71 34 4 5 29 6 55 3
32 -4 59 -1 79 8 17 7 31 14 33 14 1 1 2 -5 2 -13z m-12 -156 c2 -6 10 -10 18
-10 8 0 14 -8 14 -17 0 -14 -2 -15 -9 -5 -4 8 -17 12 -27 11 -11 -2 -36 1 -58
5 -35 7 -44 4 -92 -30 -70 -48 -71 -68 -1 -85 l52 -13 -40 -6 c-27 -3 -41 -1
-43 8 -2 6 -12 12 -22 12 -13 0 -19 10 -22 38 -6 51 0 69 25 76 144 36 197 40
205 16z m32 -110 c0 -4 -10 -10 -22 -14 -42 -11 -51 -6 -27 13 22 18 49 18 49
1z m261 -209 c-8 -5 -12 -18 -8 -30 3 -12 1 -21 -4 -21 -5 0 -9 3 -9 8 0 4 -3
17 -6 30 -5 18 -2 22 17 22 18 0 20 -3 10 -9z"/>
</g>
</svg>
