<?xml version="1.0" standalone="no"?>
<!DOCTYPE svg PUBLIC "-//W3C//DTD SVG 20010904//EN"
 "http://www.w3.org/TR/2001/REC-SVG-20010904/DTD/svg10.dtd">
<svg version="1.0" xmlns="http://www.w3.org/2000/svg"
 width="152.000000pt" height="102.000000pt" viewBox="0 0 152.000000 102.000000"
 preserveAspectRatio="xMidYMid meet">
<metadata>
Created by potrace 1.13, written by Peter Selinger 2001-2015
</metadata>
<g transform="translate(0.000000,102.000000) scale(0.100000,-0.100000)"
fill="#000000" stroke="none">
<path d="M724 775 c-9 -14 -24 -25 -34 -25 -19 0 -30 -19 -30 -50 0 -10 -8
-20 -19 -23 -11 -2 -21 -17 -25 -36 -3 -17 -9 -44 -12 -60 -5 -23 -2 -32 15
-40 28 -15 27 -31 -2 -31 -14 0 -32 -12 -46 -30 -18 -25 -25 -29 -42 -20 -18
10 -18 13 -4 33 29 41 12 120 -28 131 -29 7 -154 -22 -172 -41 -8 -8 -15 -27
-15 -43 0 -24 -3 -27 -22 -22 -13 3 -27 11 -31 19 -4 7 -24 13 -42 13 -19 0
-35 4 -35 9 0 5 -7 17 -16 25 -21 22 -132 22 -140 2 -6 -15 24 -76 37 -76 4 0
11 -9 14 -20 3 -11 12 -20 19 -20 7 0 17 -19 22 -42 6 -29 17 -46 36 -57 44
-26 73 -70 69 -108 -2 -27 2 -35 22 -42 20 -8 24 -15 20 -32 -4 -14 0 -25 11
-31 10 -6 16 -22 16 -46 0 -31 5 -41 27 -54 73 -41 304 -63 533 -48 190 12
248 19 256 31 3 5 16 9 29 9 13 0 44 9 69 20 48 20 64 49 51 89 -4 12 -2 21 4
21 6 0 11 15 11 34 0 21 6 36 15 40 8 3 15 16 15 28 0 14 15 37 35 57 19 18
35 39 35 47 0 7 9 19 21 26 11 7 34 38 51 68 18 30 38 59 45 63 7 4 13 23 13
41 0 32 -2 34 -46 41 -36 5 -50 3 -65 -11 -10 -9 -19 -23 -19 -30 0 -7 -12
-14 -27 -16 -20 -2 -29 -9 -31 -24 -2 -16 -8 -20 -28 -16 -19 3 -24 11 -24 33
0 23 -7 31 -33 43 -80 33 -187 28 -187 -9 0 -8 -5 -15 -11 -15 -18 0 -3 -82
17 -97 16 -12 16 -13 0 -19 -21 -8 -46 12 -46 37 0 27 -45 25 -80 -5 -20 -16
-37 -22 -54 -19 -37 7 -32 21 6 19 25 -1 33 4 36 19 3 11 13 26 23 33 23 16
25 55 4 72 -8 7 -15 21 -15 31 0 10 -9 23 -19 29 -11 5 -21 22 -23 37 -2 20
-9 29 -25 31 -12 2 -29 14 -37 28 -23 33 -70 33 -92 -1z m6 -85 c0 -5 -2 -10
-4 -10 -3 0 -8 5 -11 10 -3 6 -1 10 4 10 6 0 11 -4 11 -10z m-16 -71 c-8 -14
-44 -10 -44 5 0 9 8 12 25 8 14 -2 22 -8 19 -13z m366 -49 c0 -5 -4 -10 -10
-10 -5 0 -10 5 -10 10 0 6 5 10 10 10 6 0 10 -4 10 -10z m-616 -26 c3 -8 2
-12 -4 -9 -6 3 -10 10 -10 16 0 14 7 11 14 -7z m796 -80 c7 -19 9 -38 6 -41
-3 -4 -6 -1 -6 6 0 10 -10 11 -34 7 -24 -5 -37 -2 -46 9 -11 13 -8 15 15 15
18 0 28 6 32 20 8 30 20 24 33 -16z m-557 15 c-8 -8 -16 -8 -30 0 -16 9 -14
10 12 11 21 0 26 -3 18 -11z m-366 -28 c-7 -2 -15 -9 -19 -15 -10 -14 -11 5
-2 28 5 12 9 13 19 3 9 -9 10 -13 2 -16z m63 -11 c0 -13 -11 -13 -30 0 -12 8
-11 10 8 10 12 0 22 -4 22 -10z m610 -360 c0 -13 -7 -20 -20 -20 -22 0 -23 1
-14 24 9 23 34 20 34 -4z"/>
</g>
</svg>
