<?xml version="1.0" standalone="no"?>
<!DOCTYPE svg PUBLIC "-//W3C//DTD SVG 20010904//EN"
 "http://www.w3.org/TR/2001/REC-SVG-20010904/DTD/svg10.dtd">
<svg version="1.0" xmlns="http://www.w3.org/2000/svg"
 width="350.000000pt" height="342.000000pt" viewBox="0 0 350.000000 342.000000"
 preserveAspectRatio="xMidYMid meet">
<metadata>
Created by potrace 1.13, written by Peter Selinger 2001-2015
</metadata>
<g transform="translate(0.000000,342.000000) scale(0.100000,-0.100000)"
fill="#000000" stroke="none">
<path d="M1735 2820 c-304 -21 -510 -101 -575 -224 -23 -43 -24 -48 -12 -128
16 -109 15 -151 -2 -193 -22 -51 -46 -60 -171 -60 -133 -1 -180 -19 -266 -105
-44 -44 -62 -71 -87 -136 -49 -126 -57 -193 -57 -454 0 -251 9 -329 51 -453
60 -176 188 -288 328 -287 71 1 119 17 149 50 26 30 28 36 21 88 -9 79 -19
100 -48 108 -19 4 -34 -1 -56 -20 -73 -61 -163 -55 -222 14 -63 73 -91 209
-91 440 0 307 50 475 165 552 46 31 85 35 127 14 38 -20 58 -53 74 -124 8 -34
33 -92 56 -130 23 -38 46 -84 51 -103 6 -19 10 -118 10 -221 0 -199 32 -686
51 -777 16 -75 84 -144 201 -200 137 -66 255 -93 436 -99 234 -7 433 35 562
118 71 46 148 131 154 171 8 49 16 326 21 694 5 355 19 494 75 755 11 52 20
113 20 135 0 22 9 76 20 120 29 119 27 173 -10 224 -87 120 -333 206 -662 231
-143 11 -148 11 -313 0z"/>
</g>
</svg>
