<?xml version="1.0" standalone="no"?>
<!DOCTYPE svg PUBLIC "-//W3C//DTD SVG 20010904//EN"
 "http://www.w3.org/TR/2001/REC-SVG-20010904/DTD/svg10.dtd">
<svg version="1.0" xmlns="http://www.w3.org/2000/svg"
 width="335.000000pt" height="358.000000pt" viewBox="0 0 335.000000 358.000000"
 preserveAspectRatio="xMidYMid meet">
<metadata>
Created by potrace 1.13, written by Peter Selinger 2001-2015
</metadata>
<g transform="translate(0.000000,358.000000) scale(0.100000,-0.100000)"
fill="#000000" stroke="none">
<path d="M1005 2909 c-290 -15 -373 -35 -415 -104 -23 -37 -23 -37 -16 -294
18 -667 38 -1092 62 -1336 9 -88 22 -234 28 -325 13 -189 26 -226 103 -304 75
-76 184 -121 383 -158 266 -48 650 -11 846 82 83 40 176 118 210 176 25 43 26
52 25 166 0 67 6 225 14 352 9 127 15 301 15 386 -1 85 3 241 8 345 9 167 14
199 37 260 14 39 31 85 37 103 6 17 15 32 20 32 5 0 20 24 33 53 52 116 146
158 231 101 70 -47 103 -100 133 -220 31 -123 45 -274 37 -415 -7 -145 -37
-336 -66 -425 -37 -109 -123 -183 -215 -184 -64 0 -97 30 -184 163 l-19 28 -6
-85 c-3 -47 -9 -123 -12 -169 l-6 -82 129 0 c118 0 134 2 200 29 170 68 255
226 298 555 28 207 14 492 -32 651 -61 214 -201 323 -393 306 -41 -3 -87 -9
-102 -12 -23 -5 -34 0 -63 29 -34 34 -35 37 -35 111 0 73 -1 78 -35 115 -62
69 -97 73 -625 76 -250 2 -531 -1 -625 -6z"/>
</g>
</svg>
