<?xml version="1.0" standalone="no"?>
<!DOCTYPE svg PUBLIC "-//W3C//DTD SVG 20010904//EN"
 "http://www.w3.org/TR/2001/REC-SVG-20010904/DTD/svg10.dtd">
<svg version="1.0" xmlns="http://www.w3.org/2000/svg"
 width="393.000000pt" height="359.000000pt" viewBox="0 0 393.000000 359.000000"
 preserveAspectRatio="xMidYMid meet">
<metadata>
Created by potrace 1.13, written by Peter Selinger 2001-2015
</metadata>
<g transform="translate(0.000000,359.000000) scale(0.100000,-0.100000)"
fill="#000000" stroke="none">
<path d="M1450 3130 c-102 -4 -210 -11 -240 -15 -30 -3 -93 -11 -140 -16 -164
-19 -377 -86 -433 -137 -11 -9 -37 -55 -59 -102 -36 -78 -39 -90 -34 -145 4
-33 10 -197 15 -365 18 -595 61 -915 171 -1255 45 -142 65 -235 79 -368 7 -75
17 -115 41 -164 68 -147 184 -272 275 -298 264 -75 389 -95 590 -95 229 0 486
45 608 106 155 79 291 193 337 285 52 102 102 393 155 904 1 17 8 64 14 105
35 240 43 354 32 440 -6 47 -13 176 -17 287 l-7 203 42 41 41 42 63 -8 c100
-13 178 -10 241 8 66 20 83 17 119 -18 26 -27 37 -78 58 -280 13 -121 8 -227
-15 -382 -9 -57 -23 -149 -31 -205 -12 -80 -25 -121 -55 -183 -82 -166 -127
-195 -301 -195 -75 0 -119 4 -127 12 -6 6 -14 9 -17 7 -3 -4 -45 -337 -45
-363 0 -2 28 11 63 30 66 36 98 43 277 69 238 33 249 36 310 81 56 41 57 43
92 150 20 60 39 138 43 174 3 36 17 108 31 160 22 82 26 130 35 355 5 143 13
285 18 315 8 58 5 83 -15 115 -7 11 -20 54 -29 95 -48 212 -85 276 -186 319
-50 22 -58 22 -283 15 -127 -3 -240 -11 -251 -17 -24 -13 -84 -10 -102 5 -8 6
-13 32 -13 63 0 76 -27 105 -133 143 -92 33 -157 46 -337 68 -151 18 -620 26
-880 14z"/>
</g>
</svg>
