<?xml version="1.0" standalone="no"?>
<!DOCTYPE svg PUBLIC "-//W3C//DTD SVG 20010904//EN"
 "http://www.w3.org/TR/2001/REC-SVG-20010904/DTD/svg10.dtd">
<svg version="1.0" xmlns="http://www.w3.org/2000/svg"
 width="374.000000pt" height="413.000000pt" viewBox="0 0 374.000000 413.000000"
 preserveAspectRatio="xMidYMid meet">
<metadata>
Created by potrace 1.13, written by Peter Selinger 2001-2015
</metadata>
<g transform="translate(0.000000,413.000000) scale(0.100000,-0.100000)"
fill="#000000" stroke="none">
<path d="M1897 3564 c-3 -3 -203 -10 -444 -16 -241 -5 -529 -12 -640 -16
l-203 -7 -32 -33 -33 -33 2 -107 c1 -81 7 -127 26 -192 42 -141 57 -243 57
-381 0 -127 1 -131 49 -282 64 -198 81 -297 81 -478 0 -139 -2 -152 -34 -255
-19 -60 -51 -152 -72 -204 -87 -227 -125 -611 -71 -717 42 -81 157 -151 359
-220 143 -48 177 -56 278 -63 63 -5 153 -16 200 -26 77 -15 104 -16 290 -4
268 16 361 30 500 79 63 22 147 49 185 60 84 25 142 60 175 109 25 35 25 39
24 221 -1 102 -5 310 -9 461 -4 151 -6 295 -6 320 1 25 -6 113 -14 195 -19
170 -20 309 -5 478 12 138 17 154 70 211 55 60 211 131 287 131 45 0 56 -4 86
-33 37 -36 52 -78 62 -172 4 -30 19 -122 35 -205 35 -185 60 -343 60 -386 0
-55 -38 -115 -130 -205 -89 -87 -260 -208 -312 -219 -16 -4 -39 0 -59 10 l-32
17 6 -62 c4 -35 7 -144 7 -243 l0 -181 58 80 c39 53 73 87 103 103 24 14 86
64 137 113 88 82 123 109 348 264 50 35 107 81 127 103 54 60 56 92 14 230
-20 64 -55 190 -77 280 -36 149 -40 177 -40 295 -1 238 -16 419 -39 465 -37
72 -89 79 -202 27 -215 -100 -265 -119 -314 -119 -38 -1 -59 5 -83 22 -52 36
-65 72 -58 155 3 39 9 133 12 208 7 136 6 136 -19 162 -13 13 -43 29 -64 35
-73 20 -630 41 -646 25z"/>
</g>
</svg>
