<?xml version="1.0" standalone="no"?>
<!DOCTYPE svg PUBLIC "-//W3C//DTD SVG 20010904//EN"
 "http://www.w3.org/TR/2001/REC-SVG-20010904/DTD/svg10.dtd">
<svg version="1.0" xmlns="http://www.w3.org/2000/svg"
 width="332.000000pt" height="346.000000pt" viewBox="0 0 332.000000 346.000000"
 preserveAspectRatio="xMidYMid meet">
<metadata>
Created by potrace 1.13, written by Peter Selinger 2001-2015
</metadata>
<g transform="translate(0.000000,346.000000) scale(0.100000,-0.100000)"
fill="#000000" stroke="none">
<path d="M1295 3135 c-44 -8 -105 -19 -134 -25 -30 -6 -78 -9 -105 -6 -28 2
-78 8 -111 11 -52 6 -71 3 -144 -24 -47 -17 -96 -31 -110 -31 -14 0 -58 -18
-98 -40 -56 -31 -78 -50 -99 -86 -24 -41 -25 -48 -13 -72 16 -33 25 -117 38
-339 6 -94 15 -197 21 -230 28 -157 41 -262 50 -413 11 -180 31 -381 56 -560
9 -63 14 -139 11 -168 -5 -43 -1 -63 19 -105 15 -34 24 -70 24 -104 0 -65 17
-148 40 -193 23 -44 110 -128 173 -164 69 -41 187 -83 270 -96 40 -7 88 -19
108 -27 28 -11 42 -12 57 -4 11 6 40 11 63 11 51 0 167 19 191 31 9 5 46 13
81 18 63 9 104 28 245 116 23 15 57 31 76 36 51 14 120 81 146 141 21 47 23
71 26 213 1 88 7 228 14 310 6 83 14 213 16 290 6 146 26 238 63 280 37 42 71
114 71 151 0 53 82 135 159 158 146 43 237 0 272 -129 6 -22 18 -56 26 -75 8
-19 17 -66 20 -105 5 -68 4 -71 -35 -131 -62 -95 -135 -138 -253 -147 -42 -4
-89 -11 -103 -17 -15 -5 -44 -10 -64 -10 -51 0 -80 -23 -107 -84 -37 -85 -39
-118 -11 -146 24 -22 28 -22 103 -12 43 6 114 16 158 22 90 12 121 22 252 75
109 45 163 88 201 159 25 48 27 59 26 171 -1 127 -3 137 -74 325 -17 47 -36
99 -41 116 -10 34 -108 155 -151 187 -30 22 -111 41 -178 40 -48 0 -116 -20
-180 -53 -71 -36 -90 -6 -70 111 14 81 18 233 8 324 -3 33 -6 68 -7 77 -4 59
-151 152 -291 184 -99 23 -270 47 -315 44 -45 -2 -59 -2 -205 4 -62 3 -138 -1
-185 -9z"/>
</g>
</svg>
