<?xml version="1.0" standalone="no"?>
<!DOCTYPE svg PUBLIC "-//W3C//DTD SVG 20010904//EN"
 "http://www.w3.org/TR/2001/REC-SVG-20010904/DTD/svg10.dtd">
<svg version="1.0" xmlns="http://www.w3.org/2000/svg"
 width="381.000000pt" height="349.000000pt" viewBox="0 0 381.000000 349.000000"
 preserveAspectRatio="xMidYMid meet">
<metadata>
Created by potrace 1.13, written by Peter Selinger 2001-2015
</metadata>
<g transform="translate(0.000000,349.000000) scale(0.100000,-0.100000)"
fill="#000000" stroke="none">
<path d="M1355 2788 c-323 -11 -502 -27 -566 -48 -32 -11 -76 -20 -97 -20 -55
0 -65 -16 -60 -99 3 -55 9 -77 30 -107 25 -35 26 -39 12 -66 -20 -38 -15 -218
10 -343 12 -61 16 -110 11 -155 -3 -36 -7 -92 -7 -125 -2 -61 26 -278 38 -297
4 -6 10 -49 15 -97 4 -47 12 -106 18 -131 5 -25 15 -94 21 -155 12 -132 47
-328 65 -372 8 -17 21 -66 30 -110 17 -82 66 -202 94 -227 28 -26 222 -85 347
-106 148 -24 338 -26 494 -5 61 9 119 13 129 10 10 -3 29 3 42 13 13 11 57 27
98 37 62 15 84 27 135 70 71 60 106 107 106 144 0 15 7 36 15 48 22 31 42 101
49 170 6 51 1 87 -28 207 -19 80 -46 167 -60 194 -20 39 -26 70 -32 166 -4 75
-3 130 4 154 25 86 45 182 52 247 4 39 15 93 24 120 9 28 16 63 16 78 0 34 34
69 106 110 264 151 265 152 344 155 100 5 175 -23 247 -91 57 -53 70 -85 98
-221 15 -76 15 -82 -5 -150 -11 -39 -28 -96 -36 -126 -34 -119 -65 -170 -164
-271 -97 -98 -140 -129 -183 -129 -12 0 -28 -5 -34 -11 -22 -22 -121 -39 -229
-39 -83 0 -115 -4 -123 -14 -15 -17 39 -253 60 -267 34 -22 320 7 395 40 26
12 57 21 71 21 15 0 44 19 79 52 30 28 76 65 102 82 44 29 53 43 154 246 59
118 108 224 108 236 0 11 11 49 26 83 23 59 25 72 21 195 -4 157 -9 177 -82
320 -67 130 -92 161 -160 191 -130 57 -355 95 -453 75 -26 -5 -68 -11 -94 -13
-65 -6 -73 6 -52 79 14 49 15 68 5 128 -7 38 -17 76 -22 83 -6 6 -36 20 -67
30 -50 15 -108 17 -487 18 -236 0 -520 -3 -630 -7z"/>
</g>
</svg>
