<?xml version="1.0" standalone="no"?>
<!DOCTYPE svg PUBLIC "-//W3C//DTD SVG 20010904//EN"
 "http://www.w3.org/TR/2001/REC-SVG-20010904/DTD/svg10.dtd">
<svg version="1.0" xmlns="http://www.w3.org/2000/svg"
 width="500.000000pt" height="551.000000pt" viewBox="0 0 500.000000 551.000000"
 preserveAspectRatio="xMidYMid meet">
<metadata>
Created by potrace 1.13, written by Peter Selinger 2001-2015
</metadata>
<g transform="translate(0.000000,551.000000) scale(0.100000,-0.100000)"
fill="#000000" stroke="none">
<path d="M1662 5488 c-10 -13 -18 -68 -27 -198 -9 -112 -11 -118 -37 -113 -25
5 -48 43 -48 80 0 13 -4 31 -9 41 -5 9 -17 35 -28 57 -20 43 -52 56 -79 34
-11 -9 -14 -25 -11 -58 7 -67 26 -133 44 -153 12 -13 13 -23 5 -45 -6 -15 -11
-21 -11 -13 -1 9 -10 23 -21 33 -11 9 -20 26 -20 38 0 13 -8 23 -21 26 -24 7
-23 18 2 161 15 81 8 105 -30 110 -34 5 -47 -13 -61 -81 -10 -51 -14 -58 -21
-40 -4 12 -17 28 -29 35 -11 7 -20 20 -20 28 0 37 -56 54 -80 25 -13 -16 -5
-91 11 -101 13 -8 49 -89 49 -111 0 -10 7 -42 14 -70 8 -29 10 -53 6 -53 -5 0
-10 -8 -12 -17 -2 -10 -18 27 -36 82 -17 55 -43 115 -58 133 -56 71 -127 11
-76 -65 9 -14 33 -75 53 -135 28 -86 33 -111 23 -119 -7 -6 -18 -27 -25 -47
-6 -20 -25 -56 -40 -80 -16 -24 -29 -49 -29 -56 0 -8 -7 -19 -15 -26 -21 -17
-45 4 -45 40 0 15 -7 41 -15 56 -8 16 -15 39 -15 50 0 12 -7 27 -15 34 -8 7
-15 17 -15 22 0 5 -6 15 -12 23 -7 7 -24 27 -37 44 -30 40 -61 40 -85 0 -14
-23 -18 -54 -19 -129 -2 -92 0 -102 28 -154 20 -37 26 -59 19 -64 -5 -4 -16
-22 -24 -40 -8 -20 -30 -44 -54 -59 -41 -25 -51 -35 -116 -112 -19 -22 -41
-41 -48 -41 -19 0 -82 -43 -137 -94 -27 -26 -64 -56 -81 -68 -37 -26 -94 -142
-94 -191 1 -42 23 -71 49 -64 12 3 27 -3 37 -14 14 -15 31 -19 88 -19 39 1 88
7 109 15 50 17 172 10 247 -15 30 -11 91 -24 134 -30 44 -5 80 -11 81 -13 1
-1 8 -18 15 -37 7 -19 23 -46 35 -60 35 -42 48 -75 40 -109 -4 -20 -2 -37 5
-46 10 -12 10 -15 0 -15 -9 0 -11 -11 -5 -42 3 -24 9 -58 12 -75 3 -18 9 -33
14 -33 5 0 9 -11 9 -24 0 -14 7 -26 18 -28 15 -4 17 -13 14 -42 -2 -21 0 -36
6 -36 6 0 14 -14 17 -32 8 -36 64 -125 94 -150 12 -10 21 -25 21 -33 0 -8 5
-15 10 -15 6 0 10 -7 10 -15 0 -8 5 -15 10 -15 6 0 10 -7 10 -15 0 -8 3 -15 8
-15 4 0 17 -22 28 -48 45 -99 63 -168 64 -234 0 -25 7 -59 15 -75 8 -15 24
-50 35 -78 11 -27 25 -57 30 -65 6 -8 14 -24 19 -36 5 -11 24 -37 43 -56 18
-20 40 -49 48 -64 17 -31 87 -104 142 -147 31 -25 36 -36 42 -84 3 -30 16 -89
27 -131 12 -43 25 -93 29 -112 12 -50 59 -221 65 -229 2 -4 5 -72 6 -152 1
-131 9 -202 40 -344 18 -87 27 -417 13 -488 -43 -218 -45 -223 -120 -303 -42
-46 -63 -97 -51 -128 7 -18 137 -31 180 -17 18 5 51 15 75 21 l43 11 -7 48
c-6 45 -4 50 35 95 50 57 56 79 46 164 -14 127 -13 492 1 597 8 55 16 217 19
360 3 143 9 289 13 325 l8 65 13 -90 c7 -49 17 -99 22 -110 5 -11 11 -62 12
-113 1 -50 5 -92 10 -92 4 0 5 -15 2 -34 -4 -20 -2 -36 4 -40 6 -4 11 -24 11
-46 0 -21 8 -66 19 -101 75 -257 81 -307 66 -574 -7 -137 -13 -164 -42 -195
-38 -41 -53 -65 -53 -85 0 -11 -4 -25 -10 -31 -5 -5 -13 -31 -16 -58 l-7 -48
49 7 c102 14 206 44 222 64 6 9 12 39 11 66 -1 72 -1 73 20 80 33 10 45 79 31
186 -7 52 -18 110 -26 129 -7 19 -18 84 -25 145 -10 99 -9 151 7 355 2 19 -1
62 -7 95 -11 74 -17 175 -9 175 4 0 12 80 19 178 6 97 15 199 18 225 l6 49 56
-6 c65 -6 154 -19 231 -34 60 -12 178 -10 308 5 74 9 102 20 132 54 3 3 28 13
55 23 28 11 69 30 93 44 48 27 51 26 86 -38 8 -14 52 -60 98 -102 46 -42 97
-96 113 -120 32 -47 101 -118 116 -118 5 0 9 -7 9 -15 0 -8 17 -40 37 -72 83
-130 101 -287 58 -503 -31 -161 -85 -339 -125 -415 -16 -30 -28 -68 -28 -85 1
-34 -27 -94 -58 -125 -12 -11 -25 -35 -28 -53 -4 -17 -12 -32 -17 -32 -5 0 -9
-10 -9 -23 0 -31 56 -47 164 -47 l84 0 16 40 c10 26 14 54 10 83 -6 41 -4 46
24 66 33 23 42 53 61 207 10 81 75 331 108 414 26 64 65 130 78 130 6 0 24
-25 40 -55 17 -30 40 -74 52 -97 13 -23 26 -44 30 -47 12 -9 33 -70 47 -136
15 -69 24 -168 31 -340 3 -66 7 -152 11 -191 5 -68 4 -73 -35 -148 -67 -127
-58 -152 56 -143 165 13 207 48 168 141 -14 34 -14 40 0 68 8 17 15 39 15 49
0 9 5 19 10 21 18 6 14 90 -9 178 -12 47 -26 103 -31 125 -44 211 -50 258 -60
450 -6 116 -12 228 -14 251 -3 40 -36 98 -63 108 -7 3 -13 12 -13 19 0 8 -15
22 -32 31 -18 10 -53 48 -78 84 -25 37 -53 75 -62 85 -9 11 -22 33 -29 51 -7
17 -19 39 -27 48 -24 28 -19 88 11 151 16 31 33 57 38 57 5 0 9 6 9 14 0 7 9
24 19 38 11 13 23 36 26 50 4 14 15 35 26 47 10 11 19 23 19 26 0 4 20 48 43
98 24 51 52 111 62 135 21 49 39 50 43 1 2 -19 8 -40 14 -46 13 -16 50 -17 66
-1 15 15 16 144 1 257 -12 88 -46 232 -58 241 -3 3 -13 21 -22 40 -9 19 -22
46 -28 60 -12 24 -82 80 -100 80 -5 0 -11 7 -15 15 -3 8 -12 15 -19 15 -8 0
-21 7 -28 17 -8 9 -38 27 -66 39 -29 13 -53 27 -53 32 0 5 -16 14 -35 22 -19
8 -35 17 -35 22 0 4 -9 8 -19 8 -10 0 -21 7 -25 15 -3 8 -12 15 -19 15 -8 0
-27 11 -43 25 -16 14 -35 25 -41 25 -7 0 -13 4 -13 10 0 5 -12 13 -27 16 -16
4 -39 14 -53 23 -13 9 -56 24 -95 34 -58 15 -123 19 -387 23 -319 4 -356 7
-548 43 -161 30 -221 52 -425 155 -83 41 -179 84 -215 95 -89 27 -233 50 -303
50 -47 0 -62 4 -76 20 -10 12 -23 21 -30 21 -6 0 -11 9 -11 20 0 13 -9 22 -25
26 -20 5 -23 11 -19 32 4 19 -2 37 -20 61 -17 23 -26 48 -26 73 0 24 -5 38
-13 38 -8 0 -12 15 -12 42 0 24 -6 43 -13 46 -6 2 -12 15 -12 28 0 14 -7 27
-15 30 -8 3 -28 28 -45 55 -17 28 -37 52 -45 55 -8 4 -15 15 -15 25 0 10 -4
19 -9 19 -5 0 -13 9 -16 20 -3 11 -13 20 -21 20 -16 0 -44 23 -44 35 0 4 -10
15 -22 24 l-22 18 27 57 c15 31 27 60 27 65 0 19 83 121 107 133 15 7 33 24
39 37 7 13 32 44 56 70 48 51 108 126 108 136 0 4 29 43 65 88 67 83 79 121
45 137 -8 4 -25 12 -37 18 -40 21 -60 13 -107 -40 l-46 -53 0 91 c0 57 -4 94
-12 102 -16 16 -53 15 -66 0z m-555 -934 c-3 -3 -12 -4 -19 -1 -8 3 -5 6 6 6
11 1 17 -2 13 -5z m59 -119 c4 -8 3 -26 0 -39 -4 -18 -11 -23 -26 -19 -20 5
-29 33 -10 33 6 0 10 9 10 20 0 23 18 27 26 5z m-426 -69 c0 -14 -7 -31 -15
-40 -8 -8 -15 -19 -15 -25 0 -6 -4 -11 -10 -11 -5 0 -10 -9 -10 -20 0 -25 37
-27 43 -2 3 10 5 7 6 -10 1 -35 34 -45 88 -27 43 14 58 26 67 56 4 11 18 23
31 26 33 6 33 -19 0 -27 -24 -6 -37 -46 -15 -46 6 0 10 -4 10 -8 0 -14 -64
-32 -89 -25 -17 4 -28 1 -37 -12 -13 -18 -14 -18 -14 -1 0 15 -6 17 -35 12
-24 -5 -35 -3 -35 5 0 7 -14 10 -40 7 -22 -2 -40 0 -40 4 0 5 5 8 10 8 6 0 10
9 10 20 0 11 -6 20 -14 20 -11 0 -12 8 -4 40 8 29 16 40 29 40 11 0 19 -4 19
-10 0 -5 8 -10 19 -10 13 0 20 9 25 30 7 36 16 39 16 6z m70 -36 c0 -35 3 -40
23 -40 20 -1 20 -2 4 -11 -13 -8 -28 -7 -55 5 -20 8 -32 15 -25 15 7 1 15 17
19 36 9 50 34 46 34 -5z m3110 -2372 c-8 -7 -20 -20 -28 -28 -12 -13 -13 -13
-6 0 12 25 26 40 37 40 6 0 5 -6 -3 -12z m244 -273 c-4 -8 -8 -15 -10 -15 -2
0 -4 7 -4 15 0 8 4 15 10 15 5 0 7 -7 4 -15z m-1785 -27 c5 -13 6 -27 3 -32
-3 -5 -9 0 -13 12 -5 12 -13 22 -19 22 -5 0 -10 5 -10 10 0 19 31 10 39 -12z
m-289 -53 c0 -7 10 -20 23 -28 17 -13 18 -16 6 -16 -9 -1 -19 -8 -23 -16 -7
-19 -26 -20 -26 -1 0 8 -10 22 -22 30 -12 9 -17 16 -10 16 6 0 12 9 12 19 0
14 5 18 20 14 11 -3 20 -11 20 -18z m2276 -20 c9 -19 22 -35 29 -35 7 0 15 -7
19 -15 3 -8 1 -15 -4 -15 -6 0 -10 5 -10 10 0 6 -7 10 -15 10 -8 0 -15 5 -15
11 0 7 -9 20 -21 30 -11 10 -18 23 -14 28 10 16 13 14 31 -24z m14 -220 c0 -7
6 -15 13 -18 6 -2 9 -8 5 -12 -4 -4 -16 3 -27 16 -24 29 -26 40 -6 33 8 -4 15
-12 15 -19z m-1936 -130 c-3 -13 -3 -29 1 -36 8 -12 15 -82 8 -75 -5 5 -32
116 -33 133 0 7 7 10 15 7 10 -4 13 -14 9 -29z m-347 -141 c-3 -3 -12 -4 -19
-1 -8 3 -5 6 6 6 11 1 17 -2 13 -5z m2390 -51 c-3 -10 -5 -2 -5 17 0 19 2 27
5 18 2 -10 2 -26 0 -35z m-2015 -202 c-4 -10 -7 -10 -14 2 -4 9 -5 49 -1 89
l8 73 5 -75 c4 -41 4 -81 2 -89z m2025 97 c-2 -13 -4 -5 -4 17 -1 22 1 32 4
23 2 -10 2 -28 0 -40z m-2393 -49 c10 -50 7 -59 -14 -59 -17 0 -20 7 -20 38 0
59 23 73 34 21z m1823 -1 c-3 -8 -6 -5 -6 6 -1 11 2 17 5 13 3 -3 4 -12 1 -19z
m592 -108 c5 -3 11 -22 15 -42 5 -29 4 -38 -7 -38 -15 0 -29 88 -25 164 1 29
3 24 5 -19 2 -33 8 -62 12 -65z m-1984 9 c0 -27 -1 -49 -3 -49 -8 0 -41 46
-42 56 0 7 7 14 15 18 8 3 15 13 15 22 0 10 3 14 8 10 4 -4 7 -30 7 -57z
m-425 -29 c0 -5 -6 -10 -14 -10 -8 0 -18 5 -21 10 -3 6 3 10 14 10 12 0 21 -4
21 -10z m2450 -95 c0 -8 -4 -15 -10 -15 -5 0 -10 7 -10 15 0 8 5 15 10 15 6 0
10 -7 10 -15z m-705 -45 c3 -5 2 -10 -4 -10 -5 0 -13 5 -16 10 -3 6 -2 10 4
10 5 0 13 -4 16 -10z m-1869 -192 l19 -23 -25 20 c-14 11 -27 21 -29 22 -2 2
0 3 6 3 5 0 18 -10 29 -22z"/>
</g>
</svg>
