<?xml version="1.0" standalone="no"?>
<!DOCTYPE svg PUBLIC "-//W3C//DTD SVG 20010904//EN"
 "http://www.w3.org/TR/2001/REC-SVG-20010904/DTD/svg10.dtd">
<svg version="1.0" xmlns="http://www.w3.org/2000/svg"
 width="984.000000pt" height="986.000000pt" viewBox="0 0 984.000000 986.000000"
 preserveAspectRatio="xMidYMid meet">
<metadata>
Created by potrace 1.13, written by Peter Selinger 2001-2015
</metadata>
<g transform="translate(0.000000,986.000000) scale(0.100000,-0.100000)"
fill="#000000" stroke="none">
<path d="M7016 7485 c-10 -7 -15 -18 -11 -24 3 -6 2 -11 -3 -11 -5 0 -9 -6
-10 -12 -4 -54 -11 -111 -16 -115 -2 -3 1 -24 9 -48 9 -33 10 -45 1 -49 -7 -3
-6 -5 2 -5 7 -1 10 -5 7 -11 -3 -5 0 -20 7 -32 7 -13 11 -29 10 -35 -2 -7 2
-13 8 -13 6 0 9 -4 6 -8 -3 -5 6 -25 20 -45 34 -50 45 -135 31 -227 -8 -51
-12 -64 -20 -77 -5 -7 -5 -13 -1 -13 4 0 0 -8 -9 -17 -8 -10 -16 -22 -17 -28
-3 -18 -34 -80 -43 -86 -5 -4 -6 -12 -3 -18 4 -6 3 -11 -3 -11 -6 0 -13 -11
-17 -25 -3 -14 -9 -25 -13 -25 -6 0 -29 -52 -30 -66 0 -3 -11 -16 -26 -30 -14
-13 -23 -29 -20 -34 3 -6 1 -10 -5 -10 -7 0 -10 -6 -7 -14 3 -8 2 -16 -3 -18
-4 -2 -10 -12 -12 -23 -1 -11 -6 -22 -10 -25 -4 -3 -9 -17 -10 -30 -2 -14 -11
-34 -20 -44 -10 -10 -15 -23 -12 -28 3 -4 1 -8 -5 -8 -6 0 -8 -7 -5 -15 4 -8
2 -15 -3 -15 -5 0 -9 -8 -10 -17 -3 -44 -8 -63 -16 -63 -4 0 -7 -6 -6 -12 2
-7 -1 -33 -6 -58 -12 -65 -14 -123 -5 -135 5 -5 9 -13 9 -17 1 -5 1 -9 1 -10
1 -2 2 -27 4 -57 2 -29 8 -56 13 -60 5 -3 9 -15 9 -26 0 -11 5 -33 11 -50 5
-16 11 -34 12 -40 2 -5 7 -16 13 -22 6 -7 7 -13 2 -13 -5 0 -4 -4 1 -8 14 -10
50 -84 48 -99 0 -7 3 -13 9 -13 5 0 7 -4 4 -9 -3 -5 1 -12 10 -15 8 -3 13 -10
10 -14 -3 -5 3 -18 13 -29 10 -11 21 -28 25 -39 3 -10 22 -37 41 -58 19 -22
33 -41 31 -44 -3 -2 14 -22 36 -43 23 -21 37 -39 32 -39 -5 0 -1 -7 9 -14 15
-12 16 -16 4 -28 -17 -17 -50 -85 -50 -104 0 -8 -3 -14 -6 -14 -3 0 -7 -12 -7
-27 -2 -46 -17 -108 -27 -114 -5 -4 -9 -18 -9 -33 0 -14 -4 -26 -7 -26 -9 0
-6 -68 4 -92 5 -12 2 -18 -6 -18 -9 0 -10 -3 -4 -8 6 -4 11 -22 12 -39 1 -30
-2 -35 -23 -32 -4 0 -10 -4 -13 -10 -4 -5 -24 -11 -46 -12 -22 -1 -54 -11 -72
-21 -17 -10 -34 -15 -36 -11 -6 10 -129 9 -145 -1 -7 -4 -12 -2 -12 5 0 7 -3
10 -6 6 -3 -3 -17 -2 -30 3 -14 6 -26 6 -29 0 -3 -6 -15 -6 -30 0 -14 5 -25 6
-25 2 0 -4 -4 -2 -8 4 -4 6 -38 21 -77 34 -38 13 -73 28 -77 34 -4 6 -8 7 -8
2 0 -5 -7 -3 -15 4 -10 8 -15 9 -15 1 0 -10 -48 5 -60 20 -3 3 -24 14 -47 24
-24 11 -43 22 -43 27 0 4 -3 7 -7 6 -5 -1 -29 8 -55 20 -26 12 -51 22 -55 21
-20 -3 -34 2 -28 11 3 5 -17 32 -46 60 -29 27 -46 50 -39 50 7 0 -6 16 -29 36
-22 20 -38 41 -35 46 3 5 -1 17 -9 26 -8 9 -18 28 -22 41 -4 13 -21 39 -39 57
-62 67 -85 94 -80 94 12 0 -32 53 -55 65 -14 8 -20 14 -12 15 11 0 9 4 -4 14
-11 8 -23 12 -27 10 -5 -3 -8 0 -8 6 0 6 -4 9 -8 6 -5 -3 -19 6 -30 19 -12 14
-28 25 -36 25 -7 0 -30 13 -51 30 -20 16 -41 27 -46 24 -5 -3 -9 0 -9 6 0 6
-4 9 -8 6 -5 -3 -19 0 -33 7 -13 7 -37 12 -54 12 -16 0 -36 6 -44 13 -7 7 -18
11 -24 9 -7 -2 -23 7 -37 20 -14 13 -30 21 -37 19 -6 -3 -22 3 -35 13 -13 10
-31 21 -41 24 -10 4 -16 11 -13 15 3 5 -9 16 -27 25 -56 29 -124 78 -183 132
-37 33 -77 60 -86 57 -4 -1 -8 4 -8 12 0 7 -17 26 -37 42 -21 15 -41 33 -45
38 -4 6 -8 7 -8 3 0 -5 -29 22 -65 58 -36 37 -65 62 -65 55 0 -6 -13 -2 -30
10 -17 12 -28 25 -25 30 5 8 -23 25 -37 22 -5 -1 -8 3 -8 9 0 5 -4 8 -9 4 -15
-9 -58 15 -71 39 -6 12 -28 31 -48 42 -42 22 -92 66 -92 81 0 6 -14 16 -30 23
-17 7 -40 26 -51 41 -11 16 -26 29 -33 29 -7 0 -26 14 -42 31 -16 17 -60 62
-97 99 -38 38 -66 73 -63 79 5 8 -19 24 -28 18 -7 -5 -35 26 -30 34 3 5 2 9
-3 9 -4 0 -26 16 -48 35 -61 53 -62 54 -69 48 -3 -4 -6 1 -6 10 0 8 -10 19
-22 23 -13 4 -25 10 -28 14 -3 4 -35 21 -72 39 -37 17 -70 36 -74 42 -3 6 -12
8 -20 5 -7 -3 -16 -1 -19 5 -4 5 -10 7 -15 4 -5 -3 -11 -1 -15 5 -4 6 -11 8
-16 5 -5 -4 -9 -2 -9 2 0 5 -19 17 -42 27 -24 10 -52 21 -63 26 -11 5 -45 19
-75 31 -30 13 -57 26 -60 29 -5 6 -133 41 -157 42 -7 1 -13 4 -13 8 0 3 -12 7
-27 7 -50 1 -96 12 -104 25 -5 7 -9 9 -9 4 0 -5 -7 -3 -15 4 -8 7 -15 9 -15 5
0 -5 -9 0 -20 10 -12 11 -27 20 -35 21 -21 3 -75 28 -75 34 0 3 -8 7 -17 8
-19 2 -54 9 -63 12 -3 1 -8 2 -12 1 -5 0 -8 3 -8 8 0 18 -95 34 -190 32 -98
-1 -100 -2 -100 -11 0 -5 -7 -7 -15 -4 -8 4 -15 1 -15 -6 0 -6 -4 -9 -9 -6
-12 8 -71 -14 -71 -25 0 -5 -5 -9 -11 -9 -6 0 -17 -6 -24 -14 -11 -10 -11 -16
-2 -26 9 -10 9 -12 -4 -7 -19 6 -40 -15 -90 -91 -19 -29 -37 -52 -41 -52 -5 0
-8 -11 -8 -25 0 -14 -4 -25 -10 -25 -5 0 -10 -7 -10 -15 0 -8 -6 -15 -12 -15
-8 0 -5 -5 4 -11 10 -5 19 -8 21 -7 1 2 15 -5 30 -15 17 -11 27 -13 27 -6 0 8
4 8 15 -1 8 -7 15 -8 15 -3 0 5 7 10 15 11 8 1 22 3 30 4 8 1 15 7 15 15 0 7
5 13 11 13 5 0 7 6 3 13 -6 9 -4 9 8 -1 10 -8 19 -9 22 -3 7 10 24 10 42 -2
11 -6 29 18 26 34 -1 3 9 5 21 4 32 -4 67 12 67 30 0 8 5 15 11 15 5 0 8 -4 4
-10 -7 -11 69 -52 79 -43 8 8 48 12 43 4 -1 -3 -9 -19 -17 -36 -8 -16 -18 -32
-22 -35 -4 -3 -9 -16 -11 -28 -2 -13 -11 -32 -20 -43 -10 -11 -15 -24 -12 -29
3 -4 -2 -15 -11 -24 -8 -9 -12 -20 -9 -26 3 -5 2 -10 -3 -10 -14 0 -65 -109
-58 -125 3 -8 1 -17 -4 -20 -4 -3 -7 -13 -6 -22 2 -10 -5 -26 -15 -37 -14 -15
-16 -23 -8 -33 8 -9 8 -13 0 -13 -6 0 -11 -6 -11 -14 0 -7 -7 -19 -15 -26 -8
-7 -13 -24 -11 -41 2 -16 -1 -29 -6 -29 -5 0 -7 -4 -4 -8 3 -5 -1 -26 -8 -47
-9 -25 -11 -47 -5 -62 4 -12 4 -25 0 -27 -13 -8 -20 -56 -9 -56 6 0 7 -18 4
-42 -9 -54 -14 -83 -16 -83 -1 0 -3 -11 -6 -24 -5 -29 -36 -81 -61 -103 -14
-12 -71 -29 -98 -29 -2 0 -22 -6 -44 -14 -22 -7 -41 -11 -44 -9 -5 5 -90 11
-409 26 -16 1 -28 5 -28 8 0 4 -21 5 -47 4 -37 -3 -54 -10 -75 -33 -16 -17
-28 -34 -28 -39 0 -6 -7 -13 -16 -16 -8 -3 -12 -10 -9 -16 3 -5 -1 -10 -9 -10
-9 0 -16 -3 -16 -8 0 -4 -12 -21 -27 -39 -49 -54 -61 -70 -68 -92 -3 -12 -10
-21 -15 -21 -5 0 -14 -18 -20 -40 -6 -22 -15 -40 -20 -40 -6 0 -9 -3 -8 -7 4
-15 -35 -84 -54 -98 -11 -7 -17 -18 -14 -23 3 -6 3 -12 -2 -14 -4 -1 -17 -16
-29 -31 -12 -15 -24 -28 -28 -27 -11 1 -34 -28 -27 -35 4 -3 -1 -11 -11 -16
-9 -6 -17 -16 -17 -24 0 -7 -6 -20 -13 -27 -7 -7 -30 -35 -52 -63 -22 -27 -61
-72 -88 -99 -26 -26 -47 -52 -47 -57 0 -10 -41 -34 -52 -31 -5 1 -8 -4 -8 -12
0 -7 -16 -21 -36 -31 -46 -21 -114 -92 -114 -117 0 -10 -4 -17 -9 -13 -5 3
-12 1 -16 -5 -4 -6 -10 -8 -15 -5 -4 3 -11 -2 -14 -11 -3 -8 -10 -13 -14 -10
-5 3 -15 -6 -22 -19 -7 -14 -17 -25 -21 -25 -4 0 -17 -16 -29 -35 -18 -29 -20
-38 -10 -50 7 -8 21 -15 32 -15 16 0 17 -3 8 -20 -11 -21 -3 -47 23 -69 18
-14 52 -3 84 28 12 12 28 21 36 21 7 0 18 5 24 11 15 15 53 -28 51 -58 -1 -12
-19 -39 -40 -59 -35 -33 -51 -74 -28 -74 5 0 9 -3 8 -7 -4 -15 13 -53 23 -53
6 0 8 -4 5 -8 -3 -5 9 -23 27 -40 18 -18 37 -36 42 -42 37 -38 92 -80 116 -90
16 -7 29 -16 29 -20 0 -21 64 -30 143 -21 10 1 9 59 -3 66 -5 3 -7 12 -4 20 3
8 2 20 -2 27 -5 7 -9 15 -9 18 -1 3 -9 23 -19 45 -9 21 -18 48 -20 59 -1 11
-8 22 -13 23 -7 3 -8 16 -3 38 5 21 3 38 -3 44 -8 8 -8 11 0 11 8 0 9 9 3 29
-4 15 -4 34 0 40 4 7 0 31 -8 54 -16 46 -24 157 -11 157 4 0 14 12 21 28 26
50 43 77 59 92 9 8 19 26 24 38 4 13 14 32 23 41 38 40 72 81 66 81 -6 0 9 20
91 119 11 14 30 36 43 49 12 13 30 34 38 48 9 13 23 24 30 24 8 0 14 4 14 10
0 5 3 9 8 9 4 -1 10 0 15 1 4 1 10 3 15 4 4 1 29 12 56 24 27 12 54 22 61 22
6 0 15 3 19 8 4 4 17 7 29 7 12 1 28 4 35 9 7 4 32 10 55 12 23 2 49 6 58 9
10 3 20 1 23 -4 4 -6 20 -1 39 12 29 20 44 22 137 20 169 -3 213 -7 218 -20 2
-7 -3 -13 -12 -13 -9 0 -16 -5 -16 -10 0 -6 -10 -15 -22 -20 -24 -10 -59 -31
-68 -40 -3 -3 -25 -15 -50 -28 -116 -59 -185 -98 -188 -104 -2 -4 -10 -4 -18
-1 -8 3 -14 0 -14 -6 0 -6 -3 -10 -8 -9 -14 5 -91 -37 -92 -49 0 -7 -4 -13 -9
-13 -5 0 -10 -26 -10 -57 1 -70 -6 -110 -20 -127 -7 -9 -7 -16 1 -24 7 -7 8
-12 2 -12 -5 0 -10 -12 -11 -27 -3 -34 -12 -165 -17 -248 -2 -33 -9 -73 -15
-89 -6 -16 -9 -31 -6 -34 2 -3 0 -11 -6 -19 -6 -7 -9 -13 -6 -13 3 0 0 -15 -8
-34 -8 -18 -15 -50 -17 -70 -1 -20 -6 -36 -10 -36 -4 0 -7 -3 -6 -7 0 -5 -1
-15 -4 -23 -3 -8 -18 -53 -33 -100 -16 -47 -33 -88 -39 -92 -6 -4 -7 -8 -3 -8
5 0 -1 -13 -12 -29 -11 -15 -18 -31 -14 -35 3 -3 -1 -6 -9 -6 -9 0 -18 -7 -22
-15 -3 -8 -12 -15 -21 -15 -8 0 -15 -4 -15 -9 0 -5 -10 -13 -22 -17 -29 -9
-78 -63 -84 -94 -3 -14 -21 -43 -39 -65 -19 -21 -32 -42 -29 -47 3 -5 0 -15
-6 -23 -17 -20 -9 -78 13 -94 16 -12 20 -12 28 0 5 8 9 10 9 5 0 -5 10 4 23
20 12 16 21 32 19 36 -1 5 1 7 6 6 4 -2 18 7 32 20 13 12 27 22 32 22 12 0 10
-17 -5 -32 -7 -7 -18 -27 -24 -45 -10 -27 -9 -34 8 -49 18 -17 18 -17 -2 -35
-11 -10 -18 -23 -14 -28 3 -6 1 -11 -5 -11 -6 0 -8 -5 -3 -12 8 -13 9 -19 11
-53 1 -12 22 -42 46 -67 24 -26 46 -50 47 -55 6 -12 91 -77 119 -90 47 -22 70
-22 83 -3 10 18 12 17 24 -10 7 -18 20 -30 30 -30 18 0 49 37 45 53 -1 4 5 10
13 13 11 5 13 10 5 19 -6 7 -9 26 -7 42 2 15 1 33 -4 38 -4 6 -10 28 -13 50
-2 22 -9 54 -14 70 -4 17 -8 68 -7 113 1 46 -4 105 -11 131 -6 26 -10 72 -7
102 2 30 5 64 6 77 1 12 6 22 10 22 5 0 7 6 4 13 -2 6 2 27 9 46 8 18 11 37 8
42 -3 5 0 9 6 9 6 0 9 4 5 9 -5 9 9 85 22 121 3 8 8 24 10 35 2 10 8 22 14 26
6 3 10 9 10 13 -1 3 -1 9 0 14 1 4 0 17 -1 30 -1 12 4 22 10 22 7 0 10 6 7 14
-3 8 -2 16 3 18 5 2 11 14 14 28 2 14 5 27 6 30 2 3 2 8 1 13 0 4 4 7 10 7 6
0 9 6 6 14 -3 8 -3 16 1 18 4 2 18 25 32 52 14 26 31 50 38 53 6 3 12 9 12 14
0 10 22 38 63 80 16 16 26 33 22 39 -3 5 -2 10 4 10 6 0 21 11 35 25 14 14 27
25 30 25 2 0 23 18 45 40 23 23 41 37 41 33 0 -4 7 3 16 15 8 12 19 20 25 17
5 -3 22 8 39 25 17 17 35 28 40 25 6 -3 10 -1 10 5 0 6 4 9 10 5 5 -3 17 6 26
20 9 13 20 22 25 19 5 -2 28 1 51 7 24 7 46 12 50 11 5 -1 8 4 8 11 0 8 6 14
13 15 24 1 67 12 94 24 16 6 31 12 36 13 4 2 9 4 12 5 3 1 8 3 13 4 4 1 34 16
68 33 33 17 77 36 97 42 20 7 43 20 49 29 7 9 26 19 42 20 17 2 41 9 55 15 14
6 30 11 34 11 4 1 11 7 15 14 6 9 13 6 28 -11 11 -13 19 -28 17 -33 -2 -6 3
-17 11 -23 8 -7 12 -19 9 -27 -3 -8 0 -14 6 -14 13 0 10 -122 -3 -131 -5 -4 6
-21 23 -38 18 -17 29 -36 26 -41 -4 -6 1 -13 9 -16 9 -3 14 -10 11 -14 -5 -8
22 -35 34 -35 3 0 20 -15 36 -33 17 -18 50 -55 74 -80 25 -26 43 -47 42 -47
-10 0 14 -55 25 -59 8 -3 14 -11 14 -18 0 -7 17 -27 37 -45 20 -18 33 -33 29
-33 -3 0 10 -17 31 -37 21 -21 41 -37 45 -36 4 2 8 -3 8 -10 0 -7 10 -19 21
-27 12 -8 38 -29 57 -47 20 -17 40 -29 44 -27 5 3 8 -2 8 -10 0 -13 13 -21 23
-14 1 1 12 -7 25 -17 12 -11 26 -19 30 -19 10 3 93 -46 120 -69 12 -11 22 -16
22 -11 0 5 4 4 8 -2 10 -16 115 -64 139 -64 11 0 28 -9 37 -19 10 -11 24 -17
31 -15 7 3 19 -1 26 -8 8 -7 21 -13 29 -13 8 1 32 -10 53 -22 20 -13 37 -20
37 -17 0 4 9 -1 20 -11 11 -10 20 -15 20 -11 0 4 14 -4 30 -18 17 -14 37 -23
45 -20 8 4 15 1 15 -6 0 -6 4 -9 9 -6 5 4 23 -5 39 -19 16 -14 34 -25 39 -25
6 0 18 -9 28 -20 9 -10 22 -18 28 -17 6 1 12 -11 13 -26 2 -21 -5 -37 -27 -58
-16 -15 -29 -31 -29 -34 0 -3 -11 -18 -25 -33 -14 -15 -25 -30 -25 -34 0 -3
-12 -25 -27 -48 -16 -23 -28 -46 -28 -51 0 -4 -8 -17 -17 -28 -9 -11 -13 -22
-10 -26 4 -4 -1 -11 -11 -16 -9 -6 -15 -14 -13 -18 3 -4 -3 -17 -12 -27 -10
-10 -40 -53 -67 -94 -27 -41 -52 -76 -56 -78 -4 -2 -5 -10 -2 -18 3 -8 -7 -20
-26 -31 -17 -10 -31 -24 -31 -30 0 -7 -5 -13 -10 -13 -13 0 -90 -79 -90 -92 0
-4 -7 -8 -15 -8 -8 0 -19 -9 -25 -20 -6 -11 -28 -37 -49 -57 -21 -21 -36 -43
-34 -48 1 -6 -11 -19 -27 -30 -16 -11 -30 -25 -30 -31 0 -6 -11 -16 -25 -22
-14 -6 -25 -16 -25 -22 0 -6 -4 -9 -9 -5 -5 3 -22 -13 -38 -35 -15 -22 -33
-40 -38 -40 -6 0 -30 -18 -54 -40 -24 -22 -47 -40 -51 -40 -5 0 -23 -15 -42
-33 -57 -54 -88 -78 -98 -72 -5 3 -12 0 -15 -6 -4 -5 -13 -8 -20 -5 -7 2 -16
-2 -19 -10 -3 -8 -12 -14 -20 -14 -8 0 -16 -4 -18 -8 -1 -5 -33 -23 -70 -41
-38 -18 -68 -37 -68 -42 0 -6 -4 -7 -10 -4 -12 7 -110 -92 -110 -112 0 -8 -4
-12 -8 -9 -16 10 -35 -12 -27 -30 4 -11 7 -27 6 -37 -3 -21 25 -46 51 -47 9 0
31 15 49 33 18 17 36 31 41 30 4 -2 8 1 8 5 0 5 7 9 15 9 12 0 9 -10 -10 -43
-21 -36 -24 -47 -13 -63 9 -15 9 -23 -2 -36 -8 -9 -16 -27 -17 -38 -5 -29 36
-157 50 -157 6 0 8 -2 5 -5 -3 -3 10 -22 28 -42 19 -20 32 -39 29 -41 -5 -6
80 -72 93 -72 5 0 16 -7 23 -16 21 -25 57 -36 81 -23 17 9 23 8 30 -5 20 -36
75 -14 97 40 9 19 -1 96 -16 134 -4 8 -7 18 -8 23 -2 4 -3 8 -4 10 -15 17 -18
157 -6 217 4 19 9 58 11 85 4 50 11 96 14 105 1 3 2 8 1 13 0 4 4 7 11 7 9 0
9 3 0 12 -9 9 -7 17 11 36 12 13 22 27 22 30 0 4 2 6 5 5 3 -1 15 12 25 28 11
16 24 29 28 29 4 0 25 18 46 40 21 22 42 40 48 40 6 0 19 11 29 25 10 14 24
25 31 25 7 0 13 5 13 12 0 6 3 8 7 5 3 -4 21 5 40 19 18 14 33 22 33 18 0 -3
6 -1 14 5 7 6 25 12 40 13 14 1 26 6 26 11 0 4 5 5 10 2 5 -3 16 -3 23 2 6 4
21 9 32 10 11 2 25 9 30 16 6 6 15 12 20 13 23 3 55 17 55 24 0 5 9 12 20 15
11 3 20 13 20 21 0 8 4 13 8 11 4 -1 20 10 35 26 16 15 32 27 37 27 6 0 10 5
10 10 0 6 8 19 18 29 33 37 61 67 94 106 34 41 65 58 55 31 -3 -8 -3 -17 1
-20 9 -10 13 -46 4 -46 -5 0 -7 -18 -6 -40 1 -22 -2 -40 -8 -40 -5 0 -7 -4 -4
-9 8 -12 -16 -71 -29 -71 -5 0 -3 -5 5 -10 13 -8 13 -11 1 -19 -7 -5 -10 -14
-7 -20 4 -6 2 -11 -3 -11 -6 0 -10 -3 -9 -7 3 -14 -13 -73 -20 -73 -9 0 -15
-81 -12 -150 2 -49 -15 -120 -32 -131 -4 -3 -10 -24 -13 -47 -2 -23 -10 -52
-17 -64 -6 -13 -14 -32 -15 -43 -2 -11 -5 -27 -6 -35 -2 -8 -8 -24 -15 -36 -6
-11 -13 -34 -16 -50 -3 -16 -15 -37 -27 -46 -13 -11 -19 -24 -15 -34 4 -9 -1
-27 -9 -40 -11 -17 -12 -24 -3 -24 6 0 2 -10 -10 -23 -12 -13 -20 -27 -17 -30
3 -4 2 -5 -2 -2 -3 3 -11 -2 -17 -10 -6 -8 -22 -16 -36 -19 -14 -2 -38 -10
-55 -17 -16 -7 -33 -12 -37 -11 -5 1 -8 -3 -8 -8 0 -6 -7 -10 -15 -10 -8 0
-15 -4 -15 -10 0 -5 -7 -10 -15 -10 -8 0 -19 -9 -25 -21 -7 -11 -14 -18 -17
-15 -8 7 -40 -36 -45 -59 -2 -11 5 -23 17 -29 19 -10 27 -35 15 -46 -17 -16
-28 -58 -17 -69 6 -6 7 -11 2 -11 -5 0 0 -6 11 -14 13 -10 23 -11 31 -4 7 6
13 7 13 3 0 -4 12 6 28 24 15 17 38 34 52 37 82 19 111 0 60 -38 -50 -37 -66
-137 -29 -177 10 -10 16 -21 13 -24 -3 -2 9 -17 26 -33 16 -16 30 -33 30 -38
0 -14 90 -80 140 -103 8 -3 17 -9 20 -13 10 -13 94 -32 98 -22 2 6 17 4 40 -4
31 -11 39 -10 52 2 13 13 13 18 -4 47 -33 57 -78 142 -77 145 0 1 0 4 0 7 -1
3 -2 13 -3 23 -1 9 -4 22 -8 28 -4 6 -6 21 -3 33 2 11 0 21 -4 21 -4 0 -9 25
-10 56 -1 31 -4 61 -7 65 -3 5 1 9 8 9 9 0 9 3 -2 10 -8 5 -11 10 -6 10 5 0 3
7 -4 15 -7 8 -8 15 -3 15 5 0 9 30 10 67 1 83 5 123 13 123 3 0 6 12 5 28 0
15 14 69 31 120 18 50 30 92 26 92 -3 0 -1 5 6 12 7 7 12 21 12 33 0 11 9 27
19 34 11 8 17 20 14 28 -3 7 0 13 7 13 7 0 10 7 6 15 -3 8 -1 15 5 15 6 0 8 4
5 8 -3 5 3 18 14 29 10 12 16 24 13 27 -3 3 6 17 20 30 15 14 27 28 27 31 0 3
11 17 25 31 14 14 25 31 25 38 0 8 7 19 15 26 8 7 13 16 10 20 -3 5 3 15 14
22 11 8 23 26 26 41 4 15 12 27 17 27 6 0 5 6 -2 15 -8 9 -8 15 -2 15 6 0 14
10 18 22 3 12 15 30 25 41 10 11 16 24 13 28 -2 4 4 12 13 18 10 6 14 11 9 11
-5 0 -3 7 4 14 10 13 17 128 10 161 -7 30 -4 165 4 165 4 0 6 13 4 30 -3 16
-2 30 2 30 3 0 6 8 7 18 1 18 10 57 13 57 2 0 5 14 14 54 3 13 8 26 11 29 2 3
0 11 -6 19 -9 10 -8 13 1 13 7 0 10 6 7 14 -3 8 0 17 7 19 7 3 11 19 10 38 -1
19 3 40 9 48 7 8 11 17 10 20 -2 3 1 6 6 6 5 0 17 11 28 24 21 26 46 31 156
32 37 1 70 5 73 10 6 10 64 1 78 -12 6 -5 20 -9 33 -9 24 0 31 -15 11 -23 -9
-3 -6 -11 10 -25 13 -12 19 -23 13 -26 -13 -8 -3 -36 21 -57 10 -10 17 -22 16
-29 -2 -6 11 -19 28 -29 17 -9 29 -21 27 -27 -4 -13 52 -64 70 -64 7 0 19 -6
25 -12 10 -10 15 -10 21 1 5 7 17 11 28 7 14 -4 23 2 36 24 14 23 15 30 5 31
-7 0 -4 4 7 8 11 5 25 4 32 -1 7 -6 14 -5 18 2 4 7 11 5 21 -5 18 -17 40 -20
49 -5 3 6 17 10 31 10 13 0 24 4 24 8 0 4 13 8 29 7 19 0 26 -4 21 -10 -10
-12 5 -43 16 -32 4 4 18 0 31 -8 21 -14 23 -14 23 1 0 11 6 15 20 11 11 -3 26
1 34 8 7 8 17 11 20 7 4 -4 20 8 36 27 16 18 33 31 37 28 12 -7 33 18 33 39 0
4 11 -1 25 -10 29 -19 49 -12 42 15 -7 25 5 24 21 -2 13 -20 14 -20 27 -2 8
10 15 13 15 7 0 -6 11 -16 24 -22 20 -9 26 -7 45 19 17 23 26 28 35 19 10 -7
16 -7 25 3 6 8 8 17 4 20 -3 4 -1 7 5 7 6 0 13 14 17 31 5 20 12 29 21 25 7
-3 16 0 20 5 3 6 17 8 29 5 19 -5 25 0 34 27 9 24 14 29 21 18 7 -12 11 -12
24 -2 9 7 13 17 10 22 -3 5 0 9 6 9 7 0 10 6 7 14 -3 8 1 13 10 12 20 -1 43
35 26 41 -9 3 -10 10 -3 23 5 10 7 27 3 37 -7 17 -6 17 17 2 23 -15 26 -15 43
2 10 9 19 23 20 31 4 22 15 24 36 6 11 -9 28 -18 38 -20 10 -2 20 -6 23 -10 3
-4 21 -8 40 -9 19 -2 43 -6 52 -11 9 -4 19 -4 22 1 11 17 61 8 89 -15 16 -13
25 -24 20 -24 -4 0 6 -12 22 -26 61 -53 98 -79 106 -77 5 2 9 -2 9 -9 0 -6 3
-8 6 -5 4 3 15 2 25 -3 10 -6 29 -11 43 -12 15 -1 26 -7 26 -12 0 -5 3 -7 6
-3 4 3 22 -5 40 -20 19 -14 34 -22 34 -18 0 3 7 -1 16 -9 8 -9 22 -16 30 -16
8 0 14 -4 14 -10 0 -5 8 -10 18 -10 10 0 23 -5 30 -12 7 -7 12 -8 12 -3 0 4 9
-2 20 -15 11 -13 20 -20 20 -15 0 4 7 2 15 -5 8 -7 15 -10 15 -7 0 4 10 -4 23
-16 13 -12 22 -25 20 -29 -2 -4 4 -11 13 -16 10 -6 15 -17 12 -29 -3 -10 1
-24 9 -31 7 -7 13 -10 13 -8 0 3 21 -6 47 -20 44 -23 110 -31 138 -15 6 3 20
6 33 7 12 0 30 8 40 17 10 10 35 17 55 17 27 0 43 7 62 27 24 26 42 82 36 111
-1 8 5 25 14 38 9 14 18 37 20 52 2 15 4 32 6 37 4 13 -32 85 -43 85 -4 0 -8
9 -8 19 0 11 -5 23 -10 26 -6 4 -8 11 -5 16 4 5 1 9 -5 9 -7 0 -9 7 -6 15 3 9
-1 18 -8 21 -8 3 -13 13 -12 22 3 19 -89 151 -110 159 -8 3 -14 10 -14 15 0 6
-7 16 -16 23 -15 10 -15 13 1 28 9 9 13 21 10 27 -3 5 0 10 7 10 8 1 6 6 -6
15 -11 8 -16 15 -12 15 5 0 4 6 -1 13 -14 19 -17 91 -3 82 6 -4 9 -9 6 -12 -7
-7 54 -56 86 -70 24 -11 29 -10 48 14 11 15 18 33 16 40 -7 16 -3 16 41 -2 19
-8 37 -15 38 -15 5 0 38 75 38 87 0 7 4 10 9 7 4 -3 8 0 8 5 0 6 10 9 23 7 12
-3 22 -5 22 -6 0 -1 10 -3 23 -4 12 -2 22 1 22 6 0 4 6 8 14 8 7 0 21 11 29
23 14 22 14 25 -2 36 -40 29 -12 55 67 66 20 2 51 9 68 14 17 5 51 5 75 1 24
-5 46 -7 48 -4 2 2 13 -3 25 -11 11 -8 28 -15 36 -15 9 0 25 -8 36 -17 10 -10
28 -19 39 -20 29 -4 47 -9 75 -20 26 -11 79 -10 142 2 34 7 79 41 124 96 27
32 28 127 2 156 -16 18 -15 21 22 63 22 25 40 50 40 57 0 6 3 13 8 15 18 8 66
84 87 139 35 88 36 142 4 160 -17 9 -25 7 -45 -12 -13 -12 -27 -19 -30 -16 -4
4 -13 -1 -20 -11 -11 -14 -9 -19 9 -29 12 -7 16 -12 9 -13 -7 0 -10 -5 -6 -11
3 -6 2 -14 -3 -18 -5 -3 -26 -31 -46 -63 -19 -31 -45 -59 -55 -62 -11 -4 -22
-13 -25 -20 -3 -7 -21 -22 -41 -34 -21 -12 -33 -15 -30 -8 3 7 -1 18 -9 25
-11 9 -17 8 -28 -5 -11 -14 -11 -18 4 -29 15 -11 14 -13 -9 -23 -29 -14 -37
-15 -30 -4 2 4 -4 13 -15 20 -10 7 -19 9 -19 4 0 -4 -16 -16 -35 -27 -20 -10
-34 -24 -31 -30 2 -6 -1 -12 -7 -13 -12 -1 -68 -10 -97 -15 -8 -1 -20 -6 -27
-10 -6 -4 -14 -3 -18 3 -4 6 -11 8 -16 4 -16 -10 -59 -12 -65 -3 -2 4 -11 6
-19 2 -8 -3 -15 -3 -15 -1 0 15 23 68 30 68 4 0 6 20 5 45 -1 31 -7 50 -21 60
-26 20 -27 19 -65 -17 -19 -18 -40 -33 -48 -34 -8 -2 -17 -8 -21 -14 -4 -7
-10 -11 -14 -11 -3 0 -11 -1 -18 -3 -48 -15 -57 -12 -97 25 -44 42 -50 59 -26
83 8 8 15 19 15 24 0 6 7 13 16 16 8 3 13 10 10 15 -10 15 42 61 68 61 14 0
28 5 31 10 4 6 11 8 16 5 5 -4 9 -3 9 2 0 4 18 17 40 27 22 11 40 23 40 28 0
5 4 7 9 3 6 -3 14 3 20 12 6 10 11 14 11 10 0 -9 13 1 91 74 32 30 59 59 59
63 0 4 9 16 19 28 29 31 42 73 28 92 -14 19 -57 11 -57 -10 0 -8 -9 -14 -20
-14 -11 0 -20 -6 -20 -12 0 -7 -13 -23 -28 -35 -107 -87 -103 -85 -207 -126
-57 -22 -61 -23 -61 -5 0 10 3 18 7 18 4 0 6 25 5 56 -1 32 3 62 10 68 10 11
72 137 75 154 0 4 5 12 11 19 5 7 7 17 4 22 -4 5 -2 12 4 16 7 4 7 12 0 26 -6
10 -7 19 -3 19 4 0 -2 7 -14 15 -21 14 -24 14 -43 -5 -11 -11 -20 -24 -20 -30
0 -5 -4 -10 -10 -10 -5 0 -12 -11 -16 -25 -4 -14 -9 -23 -13 -20 -9 10 -7 75
2 75 5 0 5 5 2 10 -9 14 31 78 72 117 18 18 35 32 36 32 1 0 16 5 32 11 33 13
63 21 83 22 6 1 12 5 12 9 0 4 14 10 30 14 17 4 30 11 30 15 0 5 7 7 15 4 8
-4 15 -1 15 5 0 6 6 11 13 11 14 0 78 29 87 39 8 10 44 31 62 37 9 3 19 12 22
20 3 8 10 14 16 14 5 0 24 12 41 28 17 15 35 26 40 24 5 -1 9 2 9 8 0 10 27
45 68 87 13 13 20 28 17 33 -3 6 -2 10 4 10 17 0 29 87 19 135 -5 25 -13 46
-16 47 -58 13 -75 -1 -74 -64 0 -20 -6 -42 -14 -49 -8 -6 -14 -17 -14 -25 0
-7 -14 -23 -31 -35 l-31 -22 7 46 c5 29 2 59 -7 84 -12 35 -38 74 -38 57 0 -3
-6 -2 -13 4 -10 9 -17 4 -31 -20 -10 -16 -14 -33 -9 -37 5 -3 7 -17 5 -31 -1
-14 -3 -40 -4 -57 0 -18 -5 -33 -10 -33 -5 0 -7 -3 -4 -8 9 -15 -21 -39 -74
-59 -30 -10 -62 -19 -70 -18 -8 1 -19 -1 -25 -4 -5 -3 -30 -5 -54 -6 -35 0
-47 5 -58 22 -20 30 -19 130 1 152 8 9 15 18 15 21 0 19 24 61 54 94 20 21 35
42 34 45 -1 3 5 17 13 31 13 24 18 52 23 132 1 21 6 38 10 38 5 0 5 6 0 13 -4
6 -8 16 -8 21 0 5 -13 18 -28 30 -22 16 -30 18 -36 7 -5 -7 -12 -11 -17 -10
-5 2 -16 -10 -24 -26 -15 -30 -26 -36 -66 -39 -24 -1 -104 60 -104 80 0 8 -4
14 -8 14 -9 0 -23 11 -84 66 -15 13 -35 24 -43 24 -8 0 -15 5 -15 12 0 6 -3 8
-7 5 -3 -4 -12 -2 -18 3 -8 7 -20 4 -38 -10 -30 -24 -27 -44 11 -74 l24 -19
-23 -13 c-13 -7 -27 -10 -30 -8 -4 2 -10 -3 -13 -12 -3 -8 -10 -12 -16 -9 -5
3 -10 2 -10 -4 0 -6 -12 -14 -27 -17 -16 -4 -33 -11 -40 -16 -13 -10 -83 -13
-118 -4 -11 2 -26 5 -33 5 -7 1 -10 6 -7 11 3 6 1 10 -6 10 -7 0 -10 11 -7 30
3 17 1 30 -3 30 -5 0 -5 10 0 23 5 12 9 24 9 27 0 3 5 23 10 44 6 22 9 43 6
48 -3 4 0 8 6 8 7 0 10 7 6 15 -3 8 1 21 9 28 10 11 11 17 2 26 -6 6 -7 11 -1
11 5 0 10 15 11 33 1 17 4 44 6 60 2 15 0 30 -5 33 -6 4 -5 10 3 15 8 5 9 9 3
9 -6 0 -10 11 -9 24 3 23 -6 33 -29 34 -5 0 -12 6 -17 14 -7 10 -11 10 -21 0
-7 -7 -14 -17 -14 -22 -1 -6 -2 -11 -4 -12 -1 -2 -4 -12 -6 -23 -8 -34 -12
-50 -14 -50 -1 0 -4 -11 -6 -25 -2 -13 -8 -27 -12 -30 -4 -3 -8 -14 -10 -25
-2 -11 -4 -27 -6 -35 -1 -9 -5 -21 -10 -28 -4 -6 -4 -12 -1 -12 3 0 -3 -10
-14 -22 -11 -11 -18 -24 -16 -28 2 -3 -16 -28 -40 -55 -24 -26 -42 -51 -40
-55 5 -8 -26 -42 -64 -73 -31 -25 -91 -58 -91 -51 0 4 -7 0 -16 -7 -26 -21
-135 -17 -167 7 -14 10 -27 25 -27 32 0 6 -4 12 -10 12 -10 0 -10 20 0 30 3 3
11 27 18 55 7 27 18 52 23 56 6 3 10 8 9 10 -1 2 3 15 8 29 5 14 9 28 8 32 0
3 10 18 23 32 14 14 21 26 17 26 -5 0 -4 6 2 13 6 6 11 17 12 22 6 27 21 55
29 55 6 0 8 7 5 15 -4 8 -1 15 5 15 6 0 11 6 11 14 0 7 13 29 30 47 16 19 30
37 30 42 0 4 7 7 15 7 8 0 15 3 15 8 0 4 16 24 35 44 19 20 35 41 35 47 0 6 5
11 10 11 9 0 24 27 30 55 1 6 6 17 11 26 6 11 3 22 -10 33 -30 28 -58 27 -76
0 -22 -34 -58 -70 -67 -66 -5 1 -8 -2 -8 -6 0 -11 -70 -33 -92 -29 -10 2 -30
15 -45 28 -16 14 -41 35 -57 47 -16 12 -25 22 -20 22 5 0 0 7 -10 15 -11 8
-16 15 -12 15 5 0 1 11 -8 25 -9 14 -13 25 -9 25 5 0 2 4 -5 9 -13 7 -28 55
-36 109 -2 12 -6 25 -9 28 -3 3 -1 17 4 31 8 21 5 29 -12 44 -26 22 -28 23
-53 4z m-4658 -440 c-3 -3 -9 2 -12 12 -6 14 -5 15 5 6 7 -7 10 -15 7 -18z
m102 19 c0 -1 -11 -9 -25 -18 -19 -13 -30 -14 -45 -6 -30 16 -16 28 30 27 22
-1 40 -3 40 -3z m48 -6 c7 -7 12 -16 12 -20 0 -11 -23 -6 -32 7 -18 24 -1 34
20 13z m4692 -13 c7 -9 8 -15 2 -15 -5 0 -12 7 -16 15 -3 8 -4 15 -2 15 2 0 9
-7 16 -15z m-4585 -4 c6 -1 11 -10 12 -22 1 -14 -3 -19 -13 -15 -8 3 -14 1
-14 -5 0 -7 -22 2 -59 27 -12 9 14 22 37 19 15 -2 32 -4 37 -4z m4670 -20 c3
-5 1 -12 -5 -16 -5 -3 -10 1 -10 9 0 18 6 21 15 7z m853 -608 c-1 -10 6 -40
14 -68 9 -32 13 -76 11 -125 -7 -110 -7 -110 -16 -110 -4 0 -6 -4 -2 -10 3 -5
-1 -24 -8 -42 -8 -18 -12 -39 -10 -45 3 -7 -1 -13 -8 -13 -7 0 -9 -3 -6 -7 4
-3 2 -12 -4 -20 -6 -7 -8 -13 -5 -13 4 0 0 -10 -8 -21 -8 -12 -12 -27 -10 -34
3 -7 -4 -16 -15 -20 -22 -7 -49 -87 -48 -143 0 -19 -4 -37 -9 -40 -8 -6 -11
-36 -16 -144 -1 -16 -4 -28 -8 -28 -4 0 -6 -81 -5 -181 l2 -181 -33 -35 c-18
-19 -38 -32 -44 -28 -5 3 -10 1 -10 -4 0 -6 -9 -11 -20 -11 -11 0 -20 -4 -20
-9 0 -12 -52 -3 -60 9 -3 5 -33 12 -68 16 -34 3 -62 10 -62 13 0 4 -15 8 -32
9 -30 1 -73 8 -73 12 0 1 -20 3 -45 5 -25 2 -52 5 -61 7 -39 9 -299 245 -299
272 0 6 -13 20 -29 30 -16 11 -28 26 -27 34 2 8 -8 26 -21 40 -12 13 -20 28
-18 32 3 5 1 10 -5 12 -5 1 -11 12 -13 23 -2 11 -9 30 -15 43 -7 12 -10 26 -8
31 3 5 0 11 -8 14 -8 3 -13 14 -12 23 2 10 -8 37 -20 61 -13 23 -20 43 -16 43
4 0 7 30 8 68 0 37 4 76 9 87 4 11 9 23 10 28 2 4 4 9 5 12 1 3 3 8 4 13 6 22
30 62 38 62 5 0 6 5 3 11 -8 12 31 49 52 49 7 0 13 5 13 11 0 5 5 7 10 4 6 -3
13 1 16 9 3 9 10 14 14 11 5 -3 11 -1 15 5 4 6 10 8 14 5 5 -2 22 0 40 5 18 5
31 5 31 0 0 -6 10 -6 25 0 14 5 25 6 25 2 0 -4 30 -8 68 -9 37 -1 96 -3 132
-4 78 -2 152 8 161 22 3 6 9 10 13 9 17 -3 76 13 76 22 0 5 4 7 8 4 11 -6 100
20 118 35 8 6 14 8 14 5 0 -4 7 0 16 8 8 9 20 14 25 10 5 -3 12 2 15 10 3 9
10 13 15 10 5 -3 20 6 34 20 14 15 29 26 33 26 4 0 25 16 46 35 44 38 65 44
64 18z m-654 -8 c-4 -8 -11 -15 -16 -15 -6 0 -5 6 2 15 7 8 14 15 16 15 2 0 1
-7 -2 -15z m796 -35 c8 -11 22 -20 32 -20 9 0 20 -4 23 -10 3 -6 -5 -10 -19
-10 -16 0 -32 10 -46 30 -12 17 -18 30 -13 30 5 0 15 -9 23 -20z m-145 -1222
c-11 -6 -23 -16 -27 -22 -5 -7 -10 -7 -15 -1 -5 6 -7 9 -4 8 2 -1 13 4 25 12
11 8 25 15 31 15 5 0 1 -6 -10 -12z m-489 -221 c7 -4 29 -9 50 -13 22 -3 44
-10 50 -15 6 -5 21 -11 35 -13 13 -3 25 -5 27 -7 1 -1 5 -2 10 -3 29 -7 60
-21 74 -33 16 -15 16 -17 -7 -35 -13 -10 -28 -19 -32 -20 -4 0 -14 -9 -21 -20
-7 -10 -18 -16 -23 -13 -5 4 -9 3 -9 -2 0 -4 -11 -13 -25 -20 -15 -6 -25 -7
-25 -1 0 5 -10 2 -22 -6 -28 -20 -82 -21 -98 -1 -7 8 -23 15 -36 15 -24 0 -28
11 -27 88 0 12 -4 22 -8 22 -5 0 -7 14 -5 30 2 17 -2 34 -8 37 -6 4 -1 10 14
13 31 8 71 7 86 -3z m-286 -191 c0 -2 -8 -10 -17 -17 -16 -13 -17 -12 -4 4 13
16 21 21 21 13z m300 -143 c0 -2 -4 -2 -9 1 -5 3 -12 -2 -15 -11 -5 -11 1 -23
16 -34 12 -10 20 -20 17 -24 -3 -3 -25 12 -48 34 -40 38 -52 61 -30 61 5 0 7
5 3 11 -4 8 0 9 15 4 14 -4 21 -2 21 7 0 7 7 0 15 -16 8 -15 15 -30 15 -33z
m-322 38 c11 -6 9 -9 -5 -13 -12 -3 -20 0 -20 8 0 16 6 17 25 5z m-106 -81 c6
0 8 -3 5 -6 -10 -11 -38 17 -30 30 5 7 9 5 11 -6 2 -10 8 -18 14 -18z m752 9
c-6 -11 -24 -2 -24 11 0 5 7 7 15 4 8 -4 12 -10 9 -15z m-134 -85 c0 -14 -3
-14 -15 -4 -8 7 -15 14 -15 16 0 2 7 4 15 4 8 0 15 -7 15 -16z m1050 1 c0 -8
-5 -15 -11 -15 -5 0 -7 -4 -4 -10 15 -25 -56 -67 -90 -53 -24 9 -18 17 35 48
27 17 50 33 50 38 0 14 20 7 20 -8z m-552 -43 c2 -7 -3 -12 -12 -12 -9 0 -16
-4 -16 -8 0 -5 -13 -8 -29 -8 -29 0 -30 5 -6 33 12 15 57 11 63 -5z m-546 -37
c4 -5 8 -6 8 -1 0 5 7 3 15 -4 8 -7 15 -9 15 -5 0 4 15 -8 33 -27 23 -23 29
-36 22 -44 -7 -9 -17 -5 -35 15 -14 15 -44 35 -68 45 -23 11 -40 21 -37 24 3
3 0 11 -7 19 -10 12 -7 12 18 1 16 -7 32 -17 36 -23z m-7015 -24 c11 -17 10
-18 -13 -7 -13 6 -24 16 -24 23 0 17 23 7 37 -16z m7360 -19 c-20 -22 -22 -48
-4 -55 10 -4 -47 -9 -69 -6 -4 0 -11 -5 -16 -13 -8 -10 -9 -10 -5 2 2 8 9 15
15 15 14 0 72 53 72 66 0 5 5 9 12 9 6 0 4 -7 -5 -18z m-467 -67 c0 -8 6 -20
13 -27 7 -7 16 -21 19 -30 6 -14 3 -15 -20 -7 -27 9 -61 49 -43 49 5 0 7 9 4
20 -4 16 -2 19 11 14 9 -3 16 -12 16 -19z m202 -30 c-2 -15 0 -25 7 -25 7 0 9
-5 6 -10 -5 -8 -11 -8 -19 -1 -7 6 -16 8 -19 4 -4 -3 -7 -1 -7 5 0 7 5 12 11
12 6 0 9 6 6 14 -3 8 -1 17 6 20 7 2 13 5 13 5 1 1 -1 -10 -4 -24z m150 -13
c-7 -2 -9 -14 -6 -28 4 -14 2 -24 -4 -24 -20 0 -21 15 -4 49 9 21 18 29 20 21
3 -8 0 -16 -6 -18z m-118 -63 c-8 -14 -24 -10 -24 6 0 9 6 12 15 9 8 -4 12
-10 9 -15z m-3253 -243 c-6 -14 -15 -26 -21 -26 -5 0 -10 -7 -10 -15 0 -12 -4
-13 -19 -6 -24 13 -32 43 -14 59 7 7 13 11 13 8 0 -2 12 -1 28 3 34 10 35 9
23 -23z m-3306 -106 c-3 -5 -1 -10 4 -10 6 0 11 -8 11 -17 0 -15 -2 -14 -15 3
-17 23 -19 34 -4 34 5 0 7 -4 4 -10z m4390 -177 c-19 -13 -31 -11 -21 5 3 5
13 9 22 9 15 0 15 -2 -1 -14z m-1311 -49 c10 -25 -1 -48 -26 -59 -13 -6 -23
-14 -24 -20 -2 -21 -17 -45 -25 -39 -5 3 -9 0 -9 -5 0 -6 -4 -11 -10 -11 -5 0
-10 7 -10 15 0 8 5 15 11 15 6 0 9 6 6 14 -3 8 5 19 19 27 14 7 23 18 20 25
-5 13 20 54 33 54 5 0 12 -7 15 -16z m1422 -23 c-4 -6 -15 -11 -24 -10 -11 0
-12 3 -4 6 6 2 12 12 12 21 0 12 3 13 11 5 6 -6 8 -16 5 -22z m84 8 c0 -5 -4
-9 -10 -9 -5 0 -10 7 -10 16 0 8 5 12 10 9 6 -3 10 -10 10 -16z m164 -14 c-5
-20 -9 -24 -18 -14 -8 8 -8 13 2 16 6 3 12 12 12 21 0 8 2 13 5 10 4 -3 3 -18
-1 -33z m256 -5 c0 -5 -7 -7 -15 -4 -8 4 -15 8 -15 10 0 2 7 4 15 4 8 0 15 -4
15 -10z m1349 -83 c7 -10 19 -16 27 -13 7 3 16 0 20 -5 4 -7 10 -7 17 0 15 15
24 14 24 -3 0 -7 -9 -18 -19 -25 -11 -7 -18 -7 -18 -1 0 5 -3 9 -7 9 -5 -1
-11 0 -15 1 -5 1 -11 3 -15 4 -5 1 -25 10 -47 19 -32 14 -36 20 -26 31 14 17
39 10 59 -17z m-1554 -6 c3 -5 1 -12 -5 -16 -5 -3 -10 1 -10 9 0 18 6 21 15 7z
m1722 -16 c0 -8 -6 -15 -13 -15 -15 0 -26 15 -17 24 12 11 30 6 30 -9z m-1632
-23 c-3 -3 -11 0 -18 7 -9 10 -8 11 6 5 10 -3 15 -9 12 -12z m1705 -68 c0 -8
-4 -14 -9 -14 -11 0 -22 26 -14 34 9 9 23 -3 23 -20z m-1950 1 c7 -8 9 -15 6
-15 -4 0 -14 7 -22 15 -9 8 -11 15 -6 15 5 0 15 -7 22 -15z m-57 -41 c-7 -19
-10 -18 -16 5 -3 13 -1 18 9 14 7 -2 10 -11 7 -19z m-1706 -26 c-3 -8 -6 -5
-6 6 -1 11 2 17 5 13 3 -3 4 -12 1 -19z m-952 -859 c-4 -5 -1 -9 5 -9 6 0 9
-4 5 -9 -3 -5 -1 -12 4 -15 10 -7 8 -43 -2 -38 -4 1 -13 5 -20 8 -9 3 -13 17
-12 37 4 48 4 49 15 42 6 -4 8 -11 5 -16z m210 -618 c3 -5 2 -12 -3 -15 -5 -3
-9 1 -9 9 0 17 3 19 12 6z m685 -265 c0 -2 -7 -9 -15 -16 -13 -11 -14 -10 -9
4 5 14 24 23 24 12z"/>
</g>
</svg>
