<?xml version="1.0" standalone="no"?>
<!DOCTYPE svg PUBLIC "-//W3C//DTD SVG 20010904//EN"
 "http://www.w3.org/TR/2001/REC-SVG-20010904/DTD/svg10.dtd">
<svg version="1.0" xmlns="http://www.w3.org/2000/svg"
 width="693.000000pt" height="703.000000pt" viewBox="0 0 693.000000 703.000000"
 preserveAspectRatio="xMidYMid meet">
<metadata>
Created by potrace 1.13, written by Peter Selinger 2001-2015
</metadata>
<g transform="translate(0.000000,703.000000) scale(0.100000,-0.100000)"
fill="#000000" stroke="none">
<path d="M5720 7001 c-15 -28 -13 -39 14 -74 28 -38 39 -90 28 -131 l-8 -29
-21 36 c-49 82 -153 114 -153 46 0 -17 6 -32 15 -36 22 -8 74 -87 81 -122 5
-23 -1 -43 -22 -78 -36 -63 -118 -143 -146 -143 -29 0 -94 71 -108 117 -6 21
-15 79 -20 128 -10 105 -11 111 -64 190 -52 79 -59 85 -95 85 -37 0 -55 -29
-47 -74 5 -25 1 -40 -15 -60 l-21 -27 -142 6 c-176 7 -211 -2 -211 -55 0 -34
1 -35 43 -38 32 -2 41 -6 34 -15 -5 -7 -15 -30 -22 -52 -28 -88 -69 -144 -125
-173 -68 -34 -88 -16 -170 149 -56 115 -89 165 -138 212 -31 28 -38 30 -74 21
-30 -8 -29 -22 8 -102 16 -37 34 -76 39 -87 4 -11 15 -37 25 -58 22 -51 39
-261 25 -322 -31 -140 -136 -233 -224 -199 -27 10 -56 89 -103 274 -43 174
-43 175 -37 302 6 108 4 134 -11 173 -16 44 -19 46 -54 43 l-36 -3 -6 -75 c-6
-79 -27 -133 -58 -150 -37 -19 -146 -12 -216 15 -36 13 -72 30 -80 37 -8 7
-30 24 -49 38 -19 14 -40 35 -47 48 -9 16 -21 22 -46 22 -29 0 -33 -3 -33 -25
0 -48 58 -139 127 -202 40 -36 92 -66 199 -115 30 -14 66 -47 99 -93 17 -22
33 -42 36 -45 20 -15 109 -360 109 -422 0 -14 14 -65 30 -114 17 -49 35 -105
42 -124 26 -85 124 -257 152 -269 6 -2 30 -24 55 -47 25 -24 49 -44 53 -44 3
0 19 -11 35 -23 44 -37 214 -123 300 -152 70 -24 191 -55 213 -55 11 0 38 -5
59 -12 38 -12 40 -14 46 -65 4 -30 17 -68 31 -88 13 -19 26 -46 30 -60 3 -13
12 -29 20 -36 8 -6 14 -19 14 -29 0 -33 57 -120 79 -120 6 0 11 -5 11 -10 0
-6 12 -21 27 -34 33 -29 27 -61 -21 -108 -18 -18 -36 -45 -40 -60 -3 -16 -13
-28 -21 -28 -8 0 -20 -9 -27 -20 -7 -11 -17 -20 -22 -20 -5 0 -21 -13 -36 -29
-15 -15 -42 -34 -59 -42 -17 -8 -31 -19 -31 -25 0 -5 -55 -30 -122 -54 -68
-24 -125 -47 -128 -52 -3 -4 -48 -16 -100 -28 -124 -27 -174 -42 -181 -53 -4
-6 -20 -5 -39 2 -18 6 -53 11 -76 11 -24 0 -44 5 -44 10 0 6 -23 10 -50 10
-36 0 -52 4 -56 15 -4 8 -16 15 -28 15 -12 0 -27 5 -34 12 -6 6 -35 15 -64 19
-29 5 -73 14 -98 20 -25 6 -64 12 -87 13 -24 0 -43 5 -43 10 0 4 -12 5 -27 1
-16 -3 -46 -8 -68 -10 -114 -11 -215 -35 -235 -55 -3 -3 -18 -11 -35 -19 -16
-7 -38 -17 -47 -22 -10 -5 -33 -9 -52 -9 -19 0 -36 -4 -38 -10 -1 -5 -45 -12
-96 -14 -51 -3 -97 -8 -102 -11 -14 -8 -488 -8 -533 0 -25 5 -37 4 -37 -4 0
-7 -23 -10 -65 -8 -40 1 -68 -2 -73 -9 -9 -14 -107 -17 -362 -11 -170 4 -330
18 -330 28 0 4 -75 6 -167 4 -148 -3 -207 -10 -263 -32 -8 -3 -23 -5 -34 -4
-10 2 -22 -2 -25 -8 -4 -6 -40 -19 -81 -30 -110 -29 -251 -72 -287 -87 -17 -8
-36 -14 -42 -14 -6 0 -11 -4 -11 -10 0 -5 -18 -14 -39 -20 -40 -10 -114 -63
-160 -114 -14 -14 -29 -26 -35 -26 -6 0 -16 -9 -21 -19 -88 -172 -99 -214 -91
-345 3 -55 9 -102 14 -105 5 -3 13 -26 16 -51 10 -63 35 -150 44 -150 11 0 32
-51 32 -76 0 -12 5 -24 11 -26 5 -2 13 -22 16 -46 3 -23 9 -42 13 -42 4 0 21
-29 39 -65 17 -36 38 -68 46 -72 8 -3 15 -11 15 -19 0 -7 15 -29 34 -47 45
-46 96 -157 96 -210 0 -40 -17 -75 -69 -140 -29 -37 -97 -97 -109 -97 -4 0
-34 -22 -67 -50 -33 -28 -62 -50 -67 -50 -4 0 -17 -10 -30 -23 -26 -25 -115
-87 -126 -87 -4 0 -22 -13 -39 -29 l-32 -29 0 -144 c0 -148 6 -203 33 -298 18
-60 26 -188 31 -470 3 -181 -3 -239 -31 -307 -17 -39 -18 -135 -2 -151 8 -8 8
-12 1 -12 -17 0 -34 -80 -31 -145 l3 -60 38 1 c30 1 37 -2 37 -17 0 -11 10
-21 24 -25 48 -12 60 -2 85 74 26 78 43 89 89 56 20 -14 22 -23 20 -77 l-3
-62 55 -29 c53 -29 59 -30 195 -30 143 -1 215 12 215 39 0 7 9 15 20 18 51 13
-5 81 -106 129 -27 13 -55 29 -62 35 -7 7 -20 13 -28 13 -8 0 -14 4 -14 8 0 5
-20 31 -45 58 -24 27 -45 52 -45 56 0 4 -27 26 -60 48 -33 22 -67 54 -75 70
-29 56 -56 326 -55 552 l0 127 41 78 c22 43 48 90 57 104 46 71 76 109 84 109
4 0 14 11 20 25 6 14 19 25 28 25 11 0 20 11 23 29 9 42 57 87 222 210 25 19
48 32 50 29 14 -14 -80 -274 -159 -440 -43 -92 -45 -115 -8 -154 33 -34 72
-99 72 -120 0 -8 4 -14 8 -14 5 0 21 -21 35 -47 14 -27 36 -59 49 -73 13 -14
41 -51 62 -83 22 -31 43 -57 48 -57 4 0 8 -4 8 -10 0 -9 43 -106 95 -215 101
-211 126 -325 91 -409 -18 -44 -21 -118 -5 -147 5 -11 10 -42 11 -69 0 -28 4
-53 9 -56 5 -3 9 -13 9 -23 0 -24 41 -61 68 -61 16 0 23 8 27 34 4 18 5 42 4
52 -4 29 11 94 21 94 6 0 10 -11 10 -24 0 -47 21 -86 46 -86 20 0 24 -5 24
-30 0 -39 46 -85 102 -101 23 -7 90 -13 148 -13 123 -1 170 13 170 50 0 21 2
23 24 12 43 -19 60 -4 53 47 -8 52 -38 85 -154 169 -28 20 -63 54 -77 77 -27
40 -70 83 -129 126 -39 29 -66 70 -135 206 -32 61 -63 121 -69 132 -15 29 -31
66 -39 95 -3 14 -11 31 -17 38 -5 7 -25 56 -44 110 -30 85 -36 114 -42 232 -4
74 -3 158 1 185 19 125 32 186 40 191 4 3 8 20 8 37 0 18 7 41 15 51 8 11 15
32 15 47 0 15 6 29 14 32 8 3 26 32 42 64 15 32 38 72 50 88 37 50 154 292
154 317 0 9 6 23 14 31 24 24 56 81 56 100 0 14 5 16 28 11 15 -4 31 -11 36
-15 6 -5 18 -9 28 -9 10 0 18 -4 18 -9 0 -5 8 -11 19 -14 10 -2 35 -30 56 -61
32 -49 41 -56 69 -56 18 0 37 -5 43 -11 7 -7 37 -13 68 -15 81 -5 218 -24 230
-33 14 -11 119 -43 130 -40 6 2 39 -2 75 -9 80 -14 268 -14 330 -1 25 6 92 19
150 29 163 29 173 32 188 46 7 8 29 14 48 14 19 0 34 4 34 9 0 5 12 11 28 14
15 3 61 15 102 26 41 11 89 21 107 21 17 0 33 5 35 11 2 5 48 16 103 23 87 11
101 11 111 -2 6 -9 14 -68 17 -131 4 -64 13 -143 22 -176 8 -33 22 -123 31
-199 8 -77 19 -147 24 -156 5 -9 4 -23 -2 -34 -5 -10 -8 -26 -5 -35 2 -10 0
-25 -5 -34 -4 -9 -11 -103 -13 -210 -3 -107 -10 -209 -15 -228 -6 -19 -10 -50
-10 -69 0 -19 -7 -67 -15 -105 -9 -39 -20 -99 -26 -135 -12 -80 -17 -98 -38
-130 -10 -14 -23 -45 -30 -70 -7 -25 -23 -65 -35 -90 -34 -68 -48 -132 -44
-194 1 -31 0 -56 -4 -56 -5 0 -8 -9 -8 -20 0 -11 7 -20 15 -20 8 0 19 -9 25
-20 7 -13 21 -20 39 -20 24 0 31 6 40 31 6 18 11 43 11 56 0 13 5 34 11 45 14
27 29 7 29 -40 0 -25 5 -35 25 -42 18 -7 25 -17 25 -36 0 -82 207 -166 367
-149 116 12 137 32 91 84 -21 24 -21 24 8 -1 16 -16 37 -28 45 -28 28 1 49 27
49 61 0 27 -9 42 -49 78 -27 26 -66 55 -87 66 -58 30 -102 81 -150 171 -14 27
-31 54 -38 59 -7 6 -26 35 -42 65 -15 30 -32 58 -37 61 -25 17 9 304 48 408
17 48 35 83 44 91 12 10 71 101 71 109 0 4 7 22 16 40 23 46 41 180 43 316 0
65 5 123 9 127 8 8 62 -34 62 -49 0 -5 8 -18 18 -29 10 -11 27 -42 37 -69 11
-28 21 -52 24 -55 6 -5 19 -36 47 -113 17 -45 47 -88 90 -131 17 -17 38 -53
48 -81 10 -27 26 -68 36 -90 19 -38 62 -141 91 -215 7 -19 12 -46 11 -61 -2
-17 3 -29 12 -32 9 -4 16 -17 16 -31 0 -13 5 -26 11 -28 16 -5 13 -86 -4 -106
-48 -55 -97 -212 -83 -268 6 -22 11 -26 36 -22 27 4 31 1 40 -30 26 -96 100
-95 100 2 0 19 7 41 15 50 8 8 15 18 15 22 0 10 33 33 49 34 11 0 12 -10 8
-45 -17 -119 78 -181 273 -179 99 1 210 28 217 54 2 9 20 22 39 29 26 9 34 18
34 37 0 13 -4 24 -9 24 -20 0 -170 62 -189 78 -11 9 -37 31 -57 47 -42 33 -57
48 -97 91 -15 16 -32 34 -38 39 -59 56 -153 216 -203 345 -14 36 -28 74 -33
85 -4 11 -13 43 -20 70 -7 28 -17 68 -23 90 -6 22 -11 66 -11 98 0 77 -27 238
-45 274 -8 15 -15 40 -15 55 0 64 -24 131 -62 171 -21 23 -38 45 -38 49 0 4
-7 8 -15 8 -8 0 -15 6 -15 14 0 8 -3 16 -8 18 -16 7 -82 96 -82 112 0 9 -5 16
-10 16 -6 0 -29 39 -51 87 -22 48 -44 90 -49 93 -5 3 -12 19 -16 35 -4 17 -16
38 -27 48 -17 14 -20 28 -19 78 l2 61 66 64 c37 35 71 64 75 64 5 0 9 6 9 14
0 16 42 46 65 46 9 0 24 8 33 17 16 16 17 15 20 -5 2 -16 10 -22 28 -22 14 0
24 -6 24 -14 0 -16 21 -26 56 -26 13 0 24 -5 24 -11 0 -8 14 -10 40 -6 22 3
40 1 40 -4 0 -10 63 -12 109 -3 21 5 31 12 31 25 0 11 7 19 15 19 10 0 15 11
15 35 0 25 -4 35 -16 35 -14 0 -14 2 0 15 8 8 19 15 25 15 6 0 11 4 11 9 0 5
14 11 30 15 18 3 30 12 30 21 0 17 3 21 45 69 18 21 25 24 25 12 0 -9 8 -16
20 -16 11 0 20 5 20 10 0 6 9 10 20 10 13 0 20 7 20 20 0 11 7 20 15 20 8 0
15 9 15 20 0 11 5 20 10 20 6 0 10 20 10 45 0 27 5 45 11 45 7 0 9 11 6 30 -6
28 -4 30 23 30 23 0 30 4 30 20 0 11 -4 20 -10 20 -5 0 -10 4 -10 9 0 4 11 6
25 3 18 -3 25 0 25 12 0 11 9 16 30 16 28 0 30 2 30 40 0 30 4 40 16 40 13 0
15 6 10 30 -3 17 -9 43 -12 60 -4 19 -2 30 5 30 6 0 11 7 11 15 0 8 7 15 16
15 13 0 15 7 10 35 -6 28 -4 35 9 35 17 0 19 18 5 54 -6 17 -6 26 0 26 18 0
10 39 -10 50 -11 6 -20 17 -20 25 0 8 -4 15 -10 15 -5 0 -10 5 -10 10 0 6 9
10 20 10 23 0 39 45 21 63 -18 18 -13 27 18 27 33 0 131 38 131 51 0 5 9 9 20
9 11 0 20 6 20 13 0 8 8 21 18 30 16 14 34 16 128 10 104 -5 112 -4 174 22 36
15 91 31 122 36 31 5 99 19 150 32 79 19 101 21 146 12 29 -5 57 -16 61 -24 7
-11 18 -11 62 -2 67 15 139 60 139 87 0 7 6 14 14 17 8 3 17 19 21 36 4 17 20
44 36 60 20 20 29 40 29 61 0 31 -31 103 -50 115 -5 3 -10 15 -10 27 0 45 -32
90 -79 110 -25 10 -87 39 -136 64 -69 34 -114 49 -188 61 -80 13 -97 19 -97
34 0 27 -11 49 -24 49 -14 0 -86 48 -86 58 0 4 32 7 70 7 52 0 73 4 80 15 14
22 12 47 -6 64 -16 17 -17 16 54 41 16 6 15 44 -2 75 -17 30 -6 57 30 70 26
10 44 45 44 85 0 18 -6 24 -27 27 -42 5 -39 31 11 87 26 29 46 56 46 61 0 14
107 80 130 80 10 0 22 5 25 10 3 6 22 10 41 10 19 0 34 4 34 8 0 5 25 17 56
28 43 14 68 32 104 71 50 54 60 83 60 166 0 42 -5 56 -36 93 -24 30 -43 44
-60 44 -16 0 -24 6 -24 18 -2 111 -14 229 -30 282 -21 71 -63 140 -85 140 -31
0 -45 -13 -45 -41 0 -16 -4 -29 -10 -29 -5 0 -10 -9 -10 -20 0 -13 7 -20 20
-20 27 0 35 -35 34 -150 -1 -63 -7 -107 -17 -130 -9 -19 -16 -29 -17 -22 0 21
-40 14 -40 -8 0 -13 7 -20 20 -20 17 0 18 -3 9 -23 -8 -18 -17 -23 -34 -19
-21 3 -25 -1 -35 -38 -6 -23 -9 -48 -6 -55 2 -7 -3 -21 -12 -31 -9 -11 -30
-34 -45 -53 -15 -18 -49 -51 -74 -72 -52 -42 -56 -41 -74 24 -13 49 -42 77
-79 77 -26 0 -30 -4 -35 -37 -10 -66 -29 -116 -53 -145 -20 -23 -32 -28 -69
-28 -68 0 -83 12 -84 68 0 26 -4 56 -8 67 -6 14 3 41 31 95 53 103 78 197 85
315 6 114 -10 175 -45 175 -24 0 -30 -15 -38 -88 -7 -72 -22 -150 -36 -182
-10 -23 -22 -49 -62 -125 l-14 -27 -18 28 c-10 16 -30 45 -45 64 -14 19 -31
60 -37 90 -22 113 -35 160 -43 160 -5 0 -9 5 -9 11 0 18 -32 38 -59 39 -23 0
-24 -1 -19 -70 3 -38 1 -67 -3 -64 -5 3 -21 26 -36 51 -22 37 -27 59 -27 112
-1 59 3 74 38 136 78 138 122 231 140 295 10 36 23 79 28 95 5 17 12 69 15
117 8 115 -7 169 -64 225 -46 47 -76 54 -93 24z m-540 -230 c0 -15 -31 -22
-69 -14 l-36 7 40 7 c62 10 65 10 65 0z m-173 -83 c26 -18 61 -46 76 -63 29
-31 117 -159 117 -170 0 -3 9 -25 19 -48 11 -24 23 -56 27 -72 4 -17 11 -35
16 -42 5 -6 6 -22 3 -35 -7 -27 29 -116 51 -125 8 -3 14 -10 14 -15 0 -19 35
-83 57 -106 13 -13 23 -29 23 -37 0 -8 5 -15 10 -15 6 0 10 -4 10 -10 0 -9 42
-69 96 -136 14 -17 50 -56 80 -87 49 -51 54 -61 54 -101 0 -58 -42 -134 -78
-142 -15 -4 -31 -10 -37 -14 -5 -5 -37 -22 -70 -39 -67 -36 -76 -41 -159 -93
l-58 -38 -117 1 c-270 1 -404 34 -571 139 -8 5 -33 19 -55 30 -51 27 -124 126
-147 198 -30 97 -31 124 -8 182 34 86 42 94 286 274 79 58 190 227 263 401 9
21 26 93 37 158 3 20 8 37 10 37 1 0 25 -14 51 -32z m-1063 -62 c-6 -15 -24
-23 -24 -11 0 8 24 34 28 30 1 -1 0 -10 -4 -19z m-81 -43 c-7 -2 -19 -2 -25 0
-7 3 -2 5 12 5 14 0 19 -2 13 -5z m614 -315 c-3 -7 -5 -2 -5 12 0 14 2 19 5
13 2 -7 2 -19 0 -25z m1307 -546 c-4 -18 -10 -32 -14 -32 -5 0 -3 16 3 35 13
42 20 40 11 -3z m1033 -50 c5 -34 1 -44 -21 -67 -14 -14 -30 -24 -35 -21 -5 3
1 37 13 75 22 74 34 78 43 13z m-997 -329 c-2 -44 -41 -158 -59 -173 -3 -3
-12 -17 -20 -31 -13 -27 -29 -37 -90 -57 -33 -11 -35 -10 -102 50 -59 52 -67
63 -57 77 21 26 52 50 66 51 7 0 30 9 50 19 103 54 213 87 212 64z m586 -41
c-8 -16 -22 -34 -30 -41 -14 -12 -16 -9 -16 22 0 25 5 37 18 40 40 11 43 8 28
-21z m-350 -111 c-3 -5 -16 -11 -28 -14 -22 -6 -22 -5 -4 8 22 17 40 20 32 6z
m279 -102 c11 -4 15 -8 8 -8 -7 -1 -21 -11 -33 -23 -24 -27 -28 -96 -5 -104
19 -8 19 -24 0 -24 -19 0 -29 40 -21 88 3 20 9 62 13 92 7 51 8 52 13 21 3
-22 12 -37 25 -42z m-327 -57 c2 -7 -2 -10 -12 -6 -9 3 -16 11 -16 16 0 13 23
5 28 -10z m-249 -12 c14 0 17 -6 13 -25 -4 -22 -1 -25 27 -25 17 0 31 -5 31
-11 0 -6 -7 -8 -16 -5 -9 3 -35 6 -59 6 -35 0 -44 4 -48 21 -3 12 0 22 9 26 8
3 14 13 15 22 0 10 2 11 6 4 2 -7 13 -13 22 -13z m350 -56 c47 -10 41 -36 -6
-28 -23 3 -55 -1 -80 -10 -24 -8 -43 -11 -43 -6 0 6 -8 10 -17 11 -10 0 7 8
37 19 65 21 68 22 109 14z m-652 -66 c-3 -8 -6 -5 -6 6 -1 11 2 17 5 13 3 -3
4 -12 1 -19z m732 -18 c19 0 12 -17 -9 -23 -13 -3 -20 0 -20 8 0 7 -3 22 -6
32 -5 17 -5 17 9 1 8 -10 19 -18 26 -18z m51 -30 c0 -5 -7 -10 -15 -10 -8 0
-15 5 -15 10 0 6 7 10 15 10 8 0 15 -4 15 -10z m-726 -35 c-4 -8 -10 -12 -15
-9 -14 8 -10 24 6 24 9 0 12 -6 9 -15z m514 -42 c30 -11 39 -19 30 -24 -23
-15 -63 -9 -81 11 -30 36 -17 39 51 13z m-548 -73 c12 -8 11 -10 -7 -10 -13 0
-23 5 -23 10 0 13 11 13 30 0z m1195 -421 c10 -15 -1 -23 -20 -15 -9 3 -13 10
-10 16 8 13 22 13 30 -1z m115 -25 c0 -9 -5 -14 -12 -12 -18 6 -21 28 -4 28 9
0 16 -7 16 -16z m-179 -27 c-1 -4 -1 -13 -1 -20 0 -14 -108 -56 -128 -49 -17
5 -15 29 3 36 8 3 29 3 45 -1 19 -3 30 -1 30 6 0 6 7 11 15 11 8 0 15 7 15 16
0 9 5 14 11 12 6 -2 10 -7 10 -11z m-1174 -739 c-3 -8 -6 -5 -6 6 -1 11 2 17
5 13 3 -3 4 -12 1 -19z m7 -97 c3 -5 -1 -11 -9 -14 -9 -4 -12 -1 -8 9 6 16 10
17 17 5z m-199 -168 c3 -13 2 -23 -3 -23 -5 0 -12 14 -14 30 -5 33 6 28 17 -7z
m192 -9 c-3 -3 -12 -4 -19 -1 -8 3 -5 6 6 6 11 1 17 -2 13 -5z m-87 -33 c0 -6
-4 -13 -10 -16 -5 -3 -10 1 -10 9 0 9 5 16 10 16 6 0 10 -4 10 -9z m-240 -50
c0 -6 -4 -13 -10 -16 -5 -3 -10 1 -10 9 0 9 5 16 10 16 6 0 10 -4 10 -9z m-60
-61 c0 -11 -4 -20 -10 -20 -5 0 -10 9 -10 20 0 11 5 20 10 20 6 0 10 -9 10
-20z m-135 -20 c-4 -12 -9 -19 -12 -17 -3 3 -2 15 2 27 4 12 9 19 12 17 3 -3
2 -15 -2 -27z m385 -49 c0 -5 -9 -7 -20 -4 -11 3 -20 7 -20 9 0 2 9 4 20 4 11
0 20 -4 20 -9z m-25 -69 c-8 -8 -25 10 -19 20 4 6 9 5 15 -3 4 -7 6 -15 4 -17z
m-1366 -389 c1 -28 -2 -33 -23 -33 -42 0 -45 40 -7 79 14 15 17 15 23 1 4 -8
7 -30 7 -47z m53 -375 c7 -20 3 -147 -5 -154 -13 -13 -19 5 -19 55 0 28 -4 51
-9 51 -5 0 -9 14 -9 30 0 23 5 30 19 30 10 0 21 -6 23 -12z m23 -338 c3 -5 1
-10 -4 -10 -6 0 -11 5 -11 10 0 6 2 10 4 10 3 0 8 -4 11 -10z m-147 -1290 c33
-21 35 -40 4 -40 -18 0 -52 33 -52 50 0 15 11 12 48 -10z m1219 -112 c-3 -7
-5 -2 -5 12 0 14 2 19 5 13 2 -7 2 -19 0 -25z m-4401 -19 c-32 -9 -42 -6 -32
9 3 5 18 7 33 4 l28 -5 -29 -8z m821 -52 c4 -7 0 -8 -11 -4 -10 4 -22 7 -27 7
-5 0 -9 4 -9 9 0 12 38 2 47 -12z"/>
</g>
</svg>
