<?xml version="1.0" standalone="no"?>
<!DOCTYPE svg PUBLIC "-//W3C//DTD SVG 20010904//EN"
 "http://www.w3.org/TR/2001/REC-SVG-20010904/DTD/svg10.dtd">
<svg version="1.0" xmlns="http://www.w3.org/2000/svg"
 width="550.000000pt" height="691.000000pt" viewBox="0 0 550.000000 691.000000"
 preserveAspectRatio="xMidYMid meet">
<metadata>
Created by potrace 1.13, written by Peter Selinger 2001-2015
</metadata>
<g transform="translate(0.000000,691.000000) scale(0.100000,-0.100000)"
fill="#000000" stroke="none">
<path d="M4446 6813 c9 -124 61 -250 166 -405 l38 -57 -72 30 c-40 16 -94 41
-120 54 -45 24 -64 30 -188 60 -30 7 -68 17 -85 23 -35 12 -153 38 -211 47
-30 5 -44 2 -53 -9 -16 -20 -8 -44 19 -54 18 -7 15 -13 -39 -74 -32 -36 -73
-92 -92 -125 -18 -32 -57 -95 -86 -140 -29 -45 -62 -100 -72 -123 l-18 -41
-13 46 c-20 71 -6 188 44 365 15 52 33 118 41 145 18 67 37 117 53 133 6 7 12
19 12 27 0 7 14 27 30 45 17 18 30 38 30 46 0 8 5 14 10 14 6 0 10 14 10 30 0
23 -5 30 -19 30 -11 0 -21 -4 -23 -8 -1 -5 -16 -15 -33 -23 -17 -8 -51 -47
-85 -96 -52 -78 -71 -119 -121 -260 l-22 -63 -22 63 c-37 103 -43 114 -74 146
-17 18 -52 41 -79 52 -42 19 -59 20 -177 15 -194 -10 -215 -14 -215 -41 0 -40
68 -65 181 -65 73 0 104 -5 139 -21 46 -21 80 -50 80 -69 0 -5 4 -10 8 -10 20
0 69 -261 78 -408 6 -120 34 -295 63 -406 12 -43 26 -133 33 -200 8 -89 17
-131 32 -158 25 -44 142 -167 211 -223 28 -22 64 -52 80 -67 65 -58 81 -70
108 -84 15 -8 27 -18 27 -23 0 -5 14 -14 30 -21 17 -7 30 -16 30 -21 0 -5 11
-14 24 -19 24 -9 38 -20 109 -82 17 -16 36 -28 42 -28 7 0 20 -9 30 -20 17
-19 17 -20 -16 -33 -19 -8 -42 -17 -51 -20 -10 -4 -18 -11 -18 -17 0 -5 -8
-10 -18 -10 -10 0 -24 -9 -32 -20 -8 -11 -20 -20 -27 -20 -7 0 -13 -4 -13 -10
0 -5 -11 -12 -25 -16 -14 -3 -25 -12 -25 -20 0 -8 -7 -14 -15 -14 -8 0 -15 -4
-15 -10 0 -5 -7 -10 -15 -10 -8 0 -15 -7 -15 -15 0 -8 -7 -15 -15 -15 -8 0
-20 -9 -27 -20 -7 -11 -18 -20 -25 -20 -7 0 -13 -7 -13 -15 0 -8 -9 -15 -20
-15 -11 0 -20 -6 -20 -13 0 -7 -10 -19 -21 -27 -12 -8 -27 -21 -35 -27 -7 -7
-15 -13 -18 -13 -12 0 -66 -60 -66 -74 0 -8 -13 -17 -29 -21 -16 -3 -36 -16
-44 -28 -8 -12 -27 -35 -42 -51 -23 -25 -29 -27 -50 -16 -15 8 -37 10 -66 4
-56 -10 -67 -8 -164 23 -44 14 -93 29 -110 33 -16 5 -57 16 -90 25 -69 19
-230 22 -290 7 -170 -45 -165 -44 -330 -37 -309 13 -473 24 -515 35 -19 5 -95
16 -168 25 -73 8 -152 20 -175 25 -101 24 -378 64 -447 64 -79 1 -88 -2 -320
-85 -178 -63 -219 -79 -320 -124 -59 -26 -108 -40 -160 -46 -41 -4 -111 -15
-155 -23 -159 -28 -260 -48 -263 -51 -1 -1 -1 -74 0 -163 l3 -160 73 59 c40
32 78 59 85 59 9 0 12 -52 13 -203 1 -279 13 -339 143 -684 81 -216 86 -236
85 -333 0 -108 -50 -272 -116 -385 -6 -11 -36 -69 -66 -130 -30 -60 -65 -124
-78 -141 -12 -17 -26 -43 -30 -58 -3 -14 -10 -26 -15 -26 -15 0 -10 -40 5 -46
25 -10 58 -180 82 -429 8 -82 18 -184 23 -225 14 -109 20 -569 8 -573 -18 -6
4 -62 38 -100 32 -35 35 -44 35 -98 0 -46 5 -67 20 -86 11 -14 20 -31 20 -38
0 -20 25 -25 126 -25 87 0 169 12 204 30 22 12 15 69 -14 121 -16 27 -26 60
-26 84 0 32 -8 50 -42 92 -24 29 -54 80 -67 115 -13 35 -38 96 -57 135 -51
113 -53 131 -69 548 -4 108 -2 178 9 250 14 94 45 204 65 229 5 6 18 27 29 46
11 19 36 64 56 98 20 35 36 68 36 73 0 5 5 9 10 9 6 0 10 6 10 14 0 16 49 118
60 126 17 12 144 207 175 268 29 58 33 63 40 42 18 -56 -23 -233 -74 -324 -89
-157 -171 -329 -171 -358 0 -36 62 -232 91 -290 10 -20 19 -44 19 -51 0 -8 7
-28 15 -43 8 -16 15 -36 15 -44 0 -8 7 -28 16 -45 9 -16 20 -59 25 -95 5 -36
22 -92 38 -125 28 -58 125 -335 162 -462 17 -61 17 -62 -2 -68 -10 -4 -19 -11
-19 -16 0 -5 -7 -9 -15 -9 -21 0 -19 -15 15 -105 54 -143 61 -155 98 -171 46
-19 62 -13 95 38 110 170 123 194 120 213 -3 11 0 31 4 44 8 19 -2 46 -53 145
-76 149 -96 200 -172 441 -69 223 -88 287 -96 336 -7 42 5 139 34 264 21 93
32 110 115 199 69 74 135 154 135 164 0 5 6 15 13 21 8 6 24 32 36 58 13 27
28 57 34 68 16 31 33 66 52 110 33 76 39 86 61 91 16 4 36 -4 70 -30 26 -20
52 -36 59 -36 7 0 48 -20 91 -44 44 -25 115 -57 159 -72 74 -26 94 -28 276
-32 108 -2 249 1 314 7 65 6 120 9 122 7 19 -18 27 -186 25 -531 -1 -303 2
-411 14 -485 8 -52 19 -126 25 -163 6 -37 8 -168 6 -290 -3 -207 -2 -224 16
-249 18 -24 18 -31 7 -85 -7 -32 -13 -85 -14 -118 l-1 -60 45 -8 c69 -13 283
-17 298 -5 17 15 15 83 -3 98 -8 7 -15 20 -15 29 0 9 -7 25 -15 35 -8 11 -15
36 -15 55 0 39 -30 107 -71 161 -88 117 -123 447 -67 645 28 100 36 158 37
256 1 141 26 294 83 522 24 95 34 121 39 103 14 -50 46 -447 54 -671 4 -101
12 -171 25 -215 10 -36 23 -126 29 -200 6 -74 18 -212 26 -306 12 -128 13
-183 5 -219 -10 -45 -9 -49 15 -71 24 -22 26 -31 25 -92 -2 -73 7 -130 22
-149 14 -18 319 -18 336 -1 26 26 3 99 -51 164 -23 28 -32 55 -44 139 -3 22
-18 58 -33 80 -40 58 -58 98 -81 171 -24 76 -26 96 -35 310 -6 139 -5 167 11
214 16 47 17 77 12 223 -5 126 -2 195 9 271 14 95 44 215 64 261 19 42 83 232
92 273 8 33 16 46 36 53 70 26 192 96 192 110 0 5 5 9 11 9 13 0 69 55 69 68
0 5 9 19 20 32 11 13 20 29 20 36 0 6 11 36 25 66 14 29 25 45 25 36 0 -24 15
-31 50 -23 25 5 30 12 30 36 0 24 4 29 25 29 14 0 25 -4 25 -10 0 -17 35 -11
50 9 7 11 18 35 24 53 9 27 17 34 43 36 26 3 34 9 43 38 7 19 18 34 27 34 17
0 63 45 63 61 0 5 6 9 14 9 8 0 17 11 20 25 4 14 13 25 21 25 9 0 15 10 15 25
0 15 6 25 14 25 17 0 26 22 26 61 0 19 5 29 15 29 8 0 15 7 15 15 0 8 5 15 11
15 8 0 10 14 6 45 -6 40 -5 45 13 45 16 0 20 7 20 30 0 24 4 30 21 30 19 0 21
4 16 30 -4 17 -2 30 3 30 6 0 10 16 10 35 0 19 5 35 10 35 6 0 10 7 10 15 0 8
7 15 16 15 13 0 15 8 12 35 -2 19 1 36 7 38 7 3 6 14 -2 35 -11 31 -11 32 19
32 30 0 30 1 24 40 -5 32 -3 40 9 40 10 0 15 10 15 28 0 21 7 30 30 40 17 8
30 21 30 32 0 26 14 28 140 18 83 -6 137 -5 195 4 44 7 157 12 250 13 152 0
174 2 205 20 57 33 100 147 72 192 -7 11 -209 123 -223 123 -4 0 -14 6 -21 13
-7 7 -40 30 -73 51 -107 67 -122 80 -165 144 -23 34 -56 72 -73 84 l-30 21 23
19 c12 10 33 18 46 18 25 0 32 3 98 37 46 23 78 75 74 118 -4 40 -39 47 -55
12 -6 -14 -25 -34 -42 -46 l-30 -22 14 28 c8 15 15 38 15 51 0 12 10 30 22 40
41 32 78 74 78 88 0 8 4 14 9 14 8 0 9 60 2 118 0 6 -12 12 -26 12 -21 0 -25
-5 -25 -27 -1 -45 -49 -105 -100 -124 -109 -40 -140 -47 -140 -33 0 8 3 14 8
14 4 0 16 16 26 35 10 19 26 42 35 52 9 10 43 59 76 108 33 50 69 98 80 108
11 10 46 41 78 69 31 27 57 56 57 64 0 7 11 21 24 29 13 9 26 28 29 43 3 15
12 53 21 85 19 68 20 137 5 204 -6 27 -14 62 -18 78 -4 20 -14 31 -28 33 -20
3 -22 -3 -28 -85 -8 -112 -21 -173 -55 -248 -48 -107 -56 -103 -64 38 -4 67
-12 145 -17 172 -19 97 -22 209 -9 323 15 127 6 223 -28 289 -29 56 -241 263
-270 263 -23 0 -24 -2 -18 -41 6 -41 38 -95 90 -154 15 -16 41 -52 58 -79 30
-45 33 -57 36 -145 l3 -96 -22 35 c-68 109 -96 149 -129 190 -21 25 -75 101
-122 170 -63 94 -94 152 -123 232 -22 60 -45 108 -50 108 -6 0 -15 15 -20 33
-7 22 -17 33 -33 35 -23 4 -23 3 -16 -85z m-346 -373 c8 0 53 -13 100 -29 47
-16 121 -39 164 -52 48 -14 111 -44 160 -75 45 -28 98 -59 118 -68 32 -16 111
-86 143 -128 19 -24 83 -152 100 -198 9 -25 28 -97 41 -160 32 -145 34 -257 5
-341 -46 -130 -65 -163 -216 -362 -49 -65 -108 -144 -130 -176 l-40 -58 -36
24 c-35 23 -37 27 -43 101 -9 97 -25 172 -37 172 -5 0 -9 7 -9 17 0 25 -49 83
-71 83 -25 0 -25 -34 1 -85 21 -42 24 -69 14 -151 -6 -44 -9 -51 -26 -46 -26
6 -34 26 -58 129 -12 48 -30 108 -42 133 -32 67 -143 170 -182 170 -30 0 -18
-54 24 -114 46 -65 84 -138 94 -179 l6 -27 -48 30 c-62 38 -143 123 -172 181
-18 35 -25 70 -31 164 -12 180 -13 183 -131 308 -21 22 -38 41 -38 43 0 10
-36 44 -47 44 -25 0 -13 70 25 153 22 45 44 99 51 119 7 20 37 83 68 140 31
57 69 128 85 158 15 30 42 67 59 81 28 25 33 26 57 13 15 -8 34 -14 42 -14z
m-308 -900 c26 -54 29 -72 24 -114 -3 -27 -12 -56 -20 -64 -12 -13 -16 -11
-29 15 -21 40 -54 175 -62 253 l-6 65 31 -45 c17 -25 45 -74 62 -110z"/>
</g>
</svg>
