<?xml version="1.0" standalone="no"?>
<!DOCTYPE svg PUBLIC "-//W3C//DTD SVG 20010904//EN"
 "http://www.w3.org/TR/2001/REC-SVG-20010904/DTD/svg10.dtd">
<svg version="1.0" xmlns="http://www.w3.org/2000/svg"
 width="691.000000pt" height="550.000000pt" viewBox="0 0 691.000000 550.000000"
 preserveAspectRatio="xMidYMid meet">
<metadata>
Created by potrace 1.13, written by Peter Selinger 2001-2015
</metadata>
<g transform="translate(0.000000,550.000000) scale(0.100000,-0.100000)"
fill="#000000" stroke="none">
<path d="M3732 5483 c55 -65 108 -136 108 -146 0 -9 -51 -12 -203 -13 -279 -1
-339 -13 -684 -143 -216 -81 -236 -86 -333 -85 -108 0 -272 50 -385 116 -11 6
-69 36 -130 66 -60 30 -124 65 -141 78 -17 12 -43 26 -58 30 -14 3 -26 10 -26
15 0 15 -40 10 -46 -5 -10 -25 -180 -58 -429 -82 -82 -8 -184 -18 -225 -23
-109 -14 -569 -20 -573 -8 -6 18 -62 -4 -100 -38 -35 -32 -44 -35 -98 -35 -46
0 -67 -5 -86 -20 -14 -11 -31 -20 -38 -20 -20 0 -25 -25 -25 -126 0 -87 12
-169 30 -204 12 -22 69 -15 121 14 27 16 60 26 84 26 32 0 50 8 92 43 29 23
80 53 115 66 35 13 96 38 135 57 113 51 131 53 548 69 108 4 178 2 250 -9 94
-14 204 -45 229 -65 6 -5 27 -18 46 -29 19 -11 64 -36 98 -56 35 -20 68 -36
73 -36 5 0 9 -4 9 -10 0 -5 6 -10 14 -10 16 0 118 -49 126 -60 12 -17 207
-144 268 -175 58 -29 63 -33 42 -40 -56 -18 -233 23 -324 74 -157 89 -329 171
-358 171 -36 0 -232 -62 -290 -91 -20 -10 -44 -19 -51 -19 -8 0 -28 -7 -43
-15 -16 -8 -36 -15 -44 -15 -8 0 -28 -7 -45 -16 -16 -9 -59 -20 -95 -25 -36
-5 -92 -22 -125 -38 -58 -28 -335 -125 -462 -162 -61 -17 -62 -17 -68 2 -4 10
-11 19 -16 19 -5 0 -9 7 -9 15 0 21 -15 19 -105 -15 -143 -54 -155 -61 -171
-98 -19 -46 -13 -62 38 -95 170 -110 194 -123 213 -120 11 3 31 0 44 -4 19 -8
46 2 145 53 149 76 200 96 441 172 223 69 287 88 336 96 42 7 139 -5 264 -34
93 -21 110 -32 199 -115 74 -69 154 -135 164 -135 5 0 15 -6 21 -13 6 -8 32
-24 58 -36 27 -13 57 -28 68 -34 31 -16 66 -33 110 -52 76 -33 86 -39 91 -61
4 -16 -4 -36 -30 -70 -20 -26 -36 -52 -36 -59 0 -7 -20 -48 -44 -91 -25 -44
-57 -115 -72 -159 -26 -74 -28 -94 -32 -276 -2 -108 1 -249 7 -314 6 -65 9
-120 7 -122 -18 -19 -186 -27 -531 -25 -303 1 -411 -2 -485 -14 -52 -8 -126
-19 -163 -25 -37 -6 -168 -8 -290 -6 -207 3 -224 2 -249 -16 -24 -18 -31 -18
-85 -7 -32 7 -85 13 -118 14 l-60 1 -8 -45 c-13 -69 -17 -283 -5 -298 15 -17
83 -15 98 3 7 8 20 15 29 15 9 0 25 7 35 15 11 8 36 15 55 15 39 0 107 30 161
71 117 88 447 123 645 67 100 -28 158 -36 256 -37 141 -1 294 -26 522 -83 95
-24 121 -34 103 -39 -50 -14 -447 -46 -671 -54 -101 -4 -171 -12 -215 -25 -36
-10 -126 -23 -200 -29 -74 -6 -212 -18 -306 -26 -128 -12 -183 -13 -219 -5
-45 10 -49 9 -71 -15 -22 -24 -31 -26 -92 -25 -73 2 -130 -7 -149 -22 -18 -14
-18 -319 -1 -336 26 -26 99 -3 164 51 28 23 55 32 139 44 22 3 58 18 80 33 58
40 98 58 171 81 76 24 96 26 310 35 139 6 167 5 214 -11 47 -16 77 -17 223
-12 126 5 195 2 271 -9 95 -14 215 -44 261 -64 42 -19 232 -83 273 -92 33 -8
46 -16 53 -36 26 -70 96 -192 110 -192 5 0 9 -5 9 -11 0 -13 55 -69 68 -69 5
0 19 -9 32 -20 13 -11 29 -20 36 -20 6 0 36 -11 66 -25 29 -14 45 -25 36 -25
-24 0 -31 -15 -23 -50 5 -25 12 -30 36 -30 24 0 29 -4 29 -25 0 -14 -4 -25
-10 -25 -17 0 -11 -35 9 -50 11 -7 35 -18 53 -24 27 -9 34 -17 36 -43 3 -26 9
-34 38 -43 19 -7 34 -18 34 -27 0 -17 45 -63 61 -63 5 0 9 -6 9 -14 0 -8 11
-17 25 -20 14 -4 25 -13 25 -21 0 -9 10 -15 25 -15 15 0 25 -6 25 -14 0 -17
22 -26 61 -26 19 0 29 -5 29 -15 0 -8 7 -15 15 -15 8 0 15 -5 15 -11 0 -8 14
-10 45 -6 40 6 45 5 45 -13 0 -16 7 -20 30 -20 24 0 30 -4 30 -21 0 -19 4 -21
30 -15 17 3 30 1 30 -4 0 -6 16 -10 35 -10 19 0 35 -4 35 -10 0 -5 7 -10 15
-10 8 0 15 -7 15 -16 0 -13 8 -15 35 -12 19 2 36 -1 38 -7 3 -7 14 -6 35 2 31
11 32 11 32 -19 0 -30 1 -30 40 -24 32 5 40 3 40 -9 0 -10 10 -15 28 -15 21 0
30 -7 40 -30 8 -17 21 -30 32 -30 26 0 28 -14 18 -140 -6 -83 -5 -137 4 -195
7 -44 12 -156 13 -250 0 -152 2 -174 20 -205 33 -57 147 -100 192 -72 11 7
123 209 123 223 0 4 6 14 13 21 7 7 30 40 51 73 67 107 80 122 144 165 34 23
72 56 84 73 l21 30 19 -23 c10 -12 18 -33 18 -46 0 -25 3 -32 37 -98 23 -46
75 -78 118 -74 40 4 47 39 12 55 -14 6 -34 25 -46 42 l-22 30 28 -14 c15 -8
38 -15 51 -15 12 0 30 -10 40 -22 32 -41 74 -78 88 -78 8 0 14 -4 14 -9 0 -8
60 -9 118 -2 6 0 12 12 12 26 0 21 -5 25 -27 25 -45 1 -105 49 -124 100 -40
109 -47 140 -33 140 8 0 14 -3 14 -8 0 -4 16 -16 35 -26 19 -10 42 -26 52 -35
10 -9 59 -43 108 -76 50 -33 98 -69 108 -80 10 -11 41 -46 69 -77 27 -32 56
-58 64 -58 7 0 21 -11 29 -24 9 -13 28 -26 43 -29 15 -3 53 -12 85 -21 68 -19
137 -20 204 -5 27 6 62 14 78 18 20 4 31 14 33 28 3 20 -3 22 -85 28 -112 8
-173 21 -248 55 -107 48 -103 56 38 64 67 4 145 12 172 17 97 19 209 22 323 9
127 -15 223 -6 289 28 56 29 263 241 263 270 0 23 -2 24 -41 18 -41 -6 -95
-38 -154 -90 -16 -15 -52 -41 -79 -58 -45 -30 -57 -33 -145 -36 l-96 -3 35 22
c109 68 149 96 190 129 25 21 101 75 170 122 94 63 152 94 232 123 60 22 108
45 108 50 0 6 15 15 33 20 22 7 33 17 35 33 4 23 3 23 -85 16 -124 -9 -250
-61 -405 -166 l-57 -38 30 72 c16 40 41 94 54 120 24 45 30 64 60 188 7 30 17
69 23 85 12 35 38 153 47 211 5 30 2 44 -9 53 -20 16 -44 8 -54 -19 -7 -18
-13 -15 -74 39 -36 32 -92 73 -125 92 -32 18 -95 57 -140 86 -45 29 -100 62
-123 72 l-41 18 46 13 c71 20 188 6 365 -44 52 -15 118 -33 145 -41 67 -18
117 -37 133 -52 7 -7 19 -13 27 -13 7 0 27 -13 45 -30 18 -16 38 -30 46 -30 8
0 14 -4 14 -10 0 -5 14 -10 30 -10 23 0 30 5 30 19 0 11 -4 21 -8 23 -5 2 -15
16 -23 33 -8 17 -47 51 -96 85 -78 52 -119 71 -260 121 l-63 22 63 22 c103 37
114 43 146 74 18 17 41 52 52 79 19 42 20 59 15 177 -10 194 -14 215 -41 215
-40 0 -65 -68 -65 -181 0 -73 -5 -104 -21 -139 -21 -46 -50 -80 -69 -80 -5 0
-10 -4 -10 -8 0 -20 -261 -69 -408 -78 -120 -6 -295 -34 -406 -63 -43 -12
-133 -26 -200 -33 -89 -8 -131 -17 -158 -32 -44 -25 -167 -142 -223 -211 -22
-28 -52 -63 -67 -80 -58 -65 -70 -81 -84 -107 -8 -16 -18 -28 -23 -28 -5 0
-14 -13 -21 -30 -7 -16 -16 -30 -21 -30 -5 0 -14 -11 -19 -24 -9 -24 -20 -38
-82 -109 -16 -17 -28 -36 -28 -42 0 -7 -9 -20 -20 -30 -19 -17 -20 -17 -33 16
-8 19 -17 42 -20 52 -4 9 -11 17 -17 17 -5 0 -10 8 -10 18 0 10 -9 24 -20 32
-11 8 -20 20 -20 27 0 7 -4 13 -10 13 -5 0 -12 11 -16 25 -3 14 -12 25 -20 25
-8 0 -14 7 -14 15 0 8 -4 15 -10 15 -5 0 -10 7 -10 15 0 8 -7 15 -15 15 -8 0
-15 7 -15 15 0 8 -9 20 -20 27 -11 7 -20 18 -20 25 0 7 -7 13 -15 13 -8 0 -15
9 -15 20 0 11 -6 20 -13 20 -7 0 -19 10 -27 21 -8 12 -21 27 -27 35 -7 7 -13
15 -13 18 0 12 -60 66 -74 66 -8 0 -17 13 -21 29 -3 16 -16 36 -28 44 -12 8
-35 27 -51 42 -25 23 -27 29 -16 50 8 15 10 37 4 66 -10 56 -8 67 23 164 14
44 29 94 33 110 5 17 16 57 25 90 19 69 22 230 7 290 -45 170 -44 165 -37 330
13 309 24 473 35 515 5 19 16 95 25 168 8 73 20 152 25 175 24 101 64 378 64
447 1 79 -2 88 -85 320 -63 178 -79 219 -124 320 -26 57 -40 108 -45 155 -10
93 -27 196 -44 270 -8 33 -17 81 -21 108 l-6 47 -166 0 c-157 0 -165 -1 -151
-17z m1918 -3714 c-25 -16 -74 -44 -110 -61 -54 -26 -72 -29 -114 -24 -27 3
-56 12 -64 20 -13 12 -11 16 15 29 52 27 207 62 288 66 30 1 30 1 -15 -30z
m293 -7 c45 -22 99 -44 119 -51 20 -7 83 -37 140 -68 57 -31 128 -69 158 -85
30 -15 67 -42 81 -59 25 -28 26 -33 13 -57 -8 -15 -14 -34 -14 -42 0 -8 -13
-53 -29 -100 -16 -47 -39 -121 -52 -164 -14 -48 -44 -111 -75 -160 -28 -45
-59 -98 -68 -118 -16 -32 -86 -111 -128 -143 -24 -19 -152 -83 -198 -100 -25
-9 -97 -28 -160 -41 -145 -32 -257 -34 -341 -5 -130 46 -163 65 -362 216 -65
50 -144 108 -176 130 l-58 40 24 36 c23 35 27 37 101 43 97 9 172 25 172 37 0
5 7 9 17 9 25 0 83 49 83 71 0 25 -34 25 -85 -1 -42 -21 -69 -24 -151 -14 -44
6 -51 9 -46 26 6 26 26 34 129 58 48 12 108 30 133 42 67 32 170 143 170 182
0 30 -54 18 -114 -24 -65 -46 -138 -84 -179 -94 l-27 -6 30 48 c38 62 123 143
181 172 35 18 70 25 164 31 180 12 183 13 308 132 22 20 41 37 43 37 10 0 44
36 44 47 0 25 70 13 153 -25z"/>
</g>
</svg>
