<?xml version="1.0" standalone="no"?>
<!DOCTYPE svg PUBLIC "-//W3C//DTD SVG 20010904//EN"
 "http://www.w3.org/TR/2001/REC-SVG-20010904/DTD/svg10.dtd">
<svg version="1.0" xmlns="http://www.w3.org/2000/svg"
 width="545.000000pt" height="569.000000pt" viewBox="0 0 545.000000 569.000000"
 preserveAspectRatio="xMidYMid meet">
<metadata>
Created by potrace 1.13, written by Peter Selinger 2001-2015
</metadata>
<g transform="translate(0.000000,569.000000) scale(0.100000,-0.100000)"
fill="#000000" stroke="none">
<path d="M2260 5660 c0 -11 38 -56 93 -109 50 -50 99 -97 107 -105 23 -22 128
-72 180 -86 25 -7 50 -15 55 -20 6 -4 27 -11 49 -14 25 -5 40 -14 43 -26 3
-10 17 -24 31 -30 15 -6 38 -25 51 -42 l24 -30 -24 13 c-13 8 -27 18 -31 23
-7 11 -36 27 -124 69 -33 16 -72 36 -89 45 -27 14 -102 26 -220 36 -236 18
-317 51 -615 249 -56 37 -104 42 -108 11 -2 -16 10 -31 50 -59 29 -21 58 -44
63 -50 6 -6 17 -16 27 -21 9 -5 36 -27 60 -49 88 -82 205 -163 260 -180 12 -4
26 -12 29 -17 3 -5 26 -12 50 -15 24 -3 50 -11 58 -17 8 -6 35 -12 60 -12 68
-2 120 -14 175 -40 28 -13 57 -24 66 -24 8 0 22 -9 30 -20 8 -11 22 -20 31
-20 9 0 24 -11 33 -24 8 -14 31 -30 51 -37 19 -7 35 -16 35 -21 0 -4 18 -13
41 -19 22 -7 44 -20 49 -30 5 -9 23 -19 40 -23 16 -3 45 -9 63 -12 17 -4 35
-12 39 -18 4 -6 39 -11 80 -12 72 -1 190 -22 204 -36 4 -5 16 -8 26 -8 10 0
18 -4 18 -10 0 -5 7 -10 16 -10 8 0 21 -6 29 -12 7 -7 30 -26 51 -43 20 -16
44 -38 53 -47 8 -10 21 -18 28 -18 7 0 18 -9 25 -20 12 -20 45 -38 133 -75 22
-9 49 -20 60 -25 11 -5 63 -14 115 -21 52 -6 120 -17 150 -25 30 -7 83 -15
118 -18 40 -3 75 -13 97 -26 39 -24 40 -25 25 -43 -41 -48 -51 -64 -62 -93 -7
-19 -15 -34 -19 -34 -11 0 -38 -99 -55 -203 -63 -391 -79 -457 -131 -557 -61
-117 -77 -141 -132 -197 -17 -18 -78 -48 -114 -57 -46 -11 -230 39 -314 85
-59 33 -170 47 -428 54 -176 5 -265 3 -300 -5 -50 -11 -153 -4 -310 21 -91 15
-498 22 -595 11 -47 -6 -114 -18 -150 -27 -37 -10 -135 -21 -225 -25 -88 -5
-191 -15 -230 -24 -209 -44 -320 -65 -405 -76 -151 -20 -208 -36 -326 -95
-181 -91 -241 -171 -273 -373 -12 -73 -25 -120 -42 -147 -41 -67 -73 -141 -87
-205 -12 -51 0 -182 17 -188 6 -2 11 -17 11 -33 0 -22 5 -29 20 -29 11 0 20 7
20 15 0 8 4 15 9 15 5 0 16 16 25 34 9 19 29 44 44 55 16 11 38 39 50 63 45
89 54 130 58 263 6 177 18 226 67 277 52 54 134 91 182 82 19 -3 38 -10 41
-15 3 -5 -2 -56 -11 -114 -10 -60 -14 -123 -10 -148 19 -125 61 -301 131 -552
7 -27 16 -61 20 -75 3 -14 10 -34 14 -45 50 -113 62 -172 49 -239 -18 -99
-167 -250 -324 -329 -73 -38 -81 -62 -65 -204 6 -59 13 -110 15 -113 2 -3 7
-60 10 -126 3 -65 11 -157 16 -204 15 -121 15 -587 0 -624 -7 -16 -9 -42 -6
-58 5 -22 12 -28 34 -28 15 0 32 5 39 12 27 27 102 -92 102 -164 0 -37 1 -38
53 -53 69 -20 196 -19 220 3 9 8 17 29 17 46 0 31 -34 72 -162 193 -106 100
-143 251 -135 558 8 325 66 468 249 619 68 56 149 126 191 166 27 25 54 45 60
45 22 0 9 -100 -24 -197 -45 -130 -44 -178 8 -254 70 -103 225 -370 317 -547
30 -59 62 -117 70 -130 11 -16 46 -196 46 -234 0 -2 6 -3 13 -3 7 0 18 -13 24
-30 13 -35 45 -41 59 -11 9 18 10 18 47 -5 28 -18 37 -31 37 -52 1 -68 78 -97
217 -81 92 10 113 20 113 51 0 28 -128 156 -170 169 -19 7 -44 22 -55 34 -168
183 -259 302 -305 400 -29 61 -90 224 -106 280 -28 103 -9 319 37 404 10 19
19 40 19 44 0 5 17 46 39 91 35 75 68 181 102 330 7 32 18 60 25 63 34 13 292
-68 314 -98 10 -14 76 -20 103 -10 19 8 27 17 27 36 0 25 0 25 93 25 96 0 277
22 318 39 31 12 159 41 183 41 14 0 17 -5 13 -22 -3 -13 -15 -77 -27 -143 -12
-66 -34 -190 -50 -275 -16 -85 -32 -177 -35 -205 -3 -27 -13 -99 -21 -160 -14
-98 -22 -137 -54 -265 -5 -19 -23 -91 -40 -160 -37 -153 -89 -286 -121 -310
-12 -10 -28 -75 -31 -130 -3 -47 0 -55 16 -58 10 -2 22 1 26 8 5 8 14 3 29
-16 17 -22 21 -40 21 -99 l0 -73 60 -22 c51 -19 71 -22 133 -16 107 11 117 14
117 43 0 14 -8 33 -17 42 -23 21 -43 56 -43 75 0 8 -16 42 -35 76 -51 90 -59
133 -52 274 9 157 42 299 103 434 13 29 24 60 24 69 0 15 2 15 18 0 10 -10 31
-17 45 -17 24 0 27 4 26 33 -3 93 79 382 158 557 111 246 107 239 135 240 25
0 27 -3 33 -57 3 -32 12 -87 20 -123 8 -36 17 -81 20 -100 4 -19 11 -48 16
-65 8 -29 43 -175 73 -305 8 -36 22 -90 31 -120 49 -165 115 -624 119 -837 2
-75 14 -92 55 -76 25 9 30 8 40 -11 6 -11 16 -45 21 -75 6 -30 12 -57 15 -59
19 -19 191 -27 248 -11 66 18 48 58 -95 213 -64 68 -112 150 -134 228 -27 101
-53 224 -69 335 l-17 113 31 26 c36 30 38 46 11 99 -18 34 -21 67 -27 230 -8
257 -8 266 2 457 8 165 8 168 34 185 14 9 32 23 39 30 8 7 23 18 34 24 34 18
128 104 128 117 0 4 11 15 24 25 13 10 37 37 53 60 37 54 89 103 124 118 16 6
29 15 29 20 0 5 6 9 14 9 8 0 16 3 18 8 2 4 43 26 91 50 48 23 104 57 124 75
76 66 223 223 223 236 0 5 6 16 13 23 18 18 117 209 117 225 0 7 5 13 10 13 6
0 10 7 10 15 0 8 4 15 8 15 5 0 17 19 27 43 10 23 26 60 36 82 26 60 46 138
68 260 32 173 37 197 59 248 16 34 27 47 42 47 11 0 28 4 38 9 40 20 168 71
180 71 6 0 12 5 12 10 0 6 5 10 11 10 7 0 46 16 88 37 70 33 83 36 171 37 88
1 98 3 132 29 21 16 43 44 50 63 6 19 16 34 20 34 16 0 8 101 -12 139 -29 59
-168 151 -226 151 -14 0 -47 11 -73 25 -25 13 -90 44 -143 69 -54 25 -98 48
-98 53 0 15 -95 72 -157 95 -41 15 -79 39 -113 72 l-52 48 16 67 c24 106 25
122 14 198 -12 81 -38 133 -68 133 -11 0 -20 -5 -20 -10 0 -14 -70 -159 -80
-165 -9 -5 -15 17 -26 90 -8 64 -20 85 -44 85 -13 0 -22 -9 -26 -27 -4 -16
-20 -58 -37 -95 l-29 -67 -52 18 c-28 10 -89 24 -136 31 -148 21 -180 34 -251
101 -35 32 -88 81 -117 108 -29 27 -66 53 -83 56 -17 4 -33 13 -36 21 -3 8
-11 14 -18 14 -7 0 -39 14 -71 30 -64 33 -200 56 -263 45 -39 -7 -132 14 -144
32 -4 7 -13 13 -19 13 -5 0 -23 10 -38 23 -16 12 -39 30 -52 40 -51 40 -142
76 -245 97 -123 26 -211 63 -268 113 -36 34 -169 107 -192 107 -16 0 -23 -6
-23 -20z m2377 -1236 c-3 -3 -12 -4 -19 -1 -8 3 -5 6 6 6 11 1 17 -2 13 -5z
m-390 -106 c-3 -7 -5 -2 -5 12 0 14 2 19 5 13 2 -7 2 -19 0 -25z m274 -78 c5
0 9 -4 9 -10 0 -12 -10 -13 -27 -2 -7 4 -9 19 -5 37 l7 30 3 -27 c2 -16 8 -28
13 -28z m-221 -113 c0 -5 -4 -5 -10 -2 -5 3 -10 14 -10 23 0 15 2 15 10 2 5
-8 10 -19 10 -23z m1000 -97 c-36 -12 -60 -12 -60 0 0 6 19 10 43 9 36 -1 38
-2 17 -9z m-107 -60 c4 -17 0 -20 -31 -19 -22 1 -29 3 -17 6 11 3 24 11 28 19
11 19 14 18 20 -6z m-4568 -924 c-11 -124 -12 -266 -3 -272 4 -3 8 -22 8 -42
0 -21 6 -63 14 -93 8 -31 17 -80 21 -110 l5 -54 -20 70 c-50 178 -68 358 -44
453 18 69 18 102 -2 123 -15 16 -14 17 6 12 22 -6 22 -9 15 -87z m2979 -611
c3 -8 1 -15 -4 -15 -6 0 -10 7 -10 15 0 8 2 15 4 15 2 0 6 -7 10 -15z m-2906
-55 c0 -9 -3 -7 -8 5 -5 11 -8 29 -8 40 0 16 2 15 8 -5 4 -14 8 -32 8 -40z
m2956 21 c8 -12 -3 -41 -15 -41 -5 0 -9 11 -9 25 0 25 14 34 24 16z m-1048
-58 c-3 -4 -16 -1 -28 5 l-23 11 23 0 c12 1 23 7 23 14 1 6 3 4 6 -6 3 -10 2
-21 -1 -24z m-730 2 c11 -7 52 -16 90 -19 134 -11 184 -18 184 -27 0 -11 154
-3 158 9 1 5 14 7 27 4 17 -3 27 1 31 12 10 25 22 19 16 -9 -3 -19 0 -25 14
-25 16 0 16 -2 4 -9 -8 -6 -27 -7 -42 -4 -17 3 -28 1 -28 -6 0 -6 -7 -11 -16
-11 -9 0 -29 -8 -45 -17 -21 -13 -32 -15 -37 -6 -9 14 -85 14 -94 0 -6 -9 -10
-9 -15 0 -9 13 -83 15 -99 2 -11 -9 -74 10 -74 23 0 4 -9 8 -20 8 -11 0 -20
-4 -20 -9 0 -5 -9 -7 -20 -4 -12 3 -28 -1 -38 -10 -12 -11 -22 -13 -32 -7 -8
5 -41 12 -73 16 -31 4 -60 11 -63 15 -3 5 -18 9 -33 9 -25 0 -28 3 -23 25 3
17 0 25 -9 25 -11 0 -11 2 1 10 21 14 30 12 30 -5 0 -9 9 -15 24 -15 13 0 38
-3 55 -6 29 -6 33 -4 44 25 11 30 14 32 47 26 19 -4 44 -12 56 -20z m631 -30
c-16 -15 -37 -20 -37 -9 0 4 10 15 22 26 25 22 38 7 15 -17z m-940 -22 c-8 -7
-37 9 -31 19 3 5 12 4 20 -3 8 -6 13 -14 11 -16z m783 -63 c0 -5 -2 -10 -4
-10 -3 0 -8 5 -11 10 -3 6 -1 10 4 10 6 0 11 -4 11 -10z m705 -124 c8 -7 11
-23 8 -35 -3 -11 0 -27 6 -35 7 -8 8 -16 4 -19 -4 -3 -18 19 -29 49 -21 53
-17 68 11 40z m32 -168 c-3 -8 -6 -5 -6 6 -1 11 2 17 5 13 3 -3 4 -12 1 -19z
m10 -55 c-3 -10 -5 -4 -5 12 0 17 2 24 5 18 2 -7 2 -21 0 -30z m-1917 -33 c0
-5 -5 -10 -11 -10 -5 0 -7 5 -4 10 3 6 8 10 11 10 2 0 4 -4 4 -10z m1937 -72
c-3 -8 -6 -5 -6 6 -1 11 2 17 5 13 3 -3 4 -12 1 -19z m10 -50 c-3 -7 -5 -2 -5
12 0 14 2 19 5 13 2 -7 2 -19 0 -25z m-2113 -26 c-11 -11 -30 -25 -44 -32 -17
-8 -12 -1 15 23 42 36 61 43 29 9z m2155 -115 c32 -120 37 -157 23 -157 -8 0
-40 136 -58 245 -12 72 4 32 35 -88z m255 -1099 c8 -32 7 -40 -3 -34 -11 7
-21 56 -11 56 4 0 10 -10 14 -22z m-1030 -44 c3 -9 6 -27 6 -41 0 -21 -3 -24
-22 -19 -13 3 -33 6 -46 6 -20 0 -21 3 -12 20 6 11 17 20 25 20 8 0 15 7 15
15 0 20 26 19 34 -1z m1043 -95 l2 -59 -21 20 c-12 11 -25 20 -29 20 -10 0
-21 49 -14 69 4 13 13 16 33 13 26 -4 27 -7 29 -63z m-2897 20 c0 -5 -9 -9
-20 -9 -11 0 -20 -5 -20 -11 0 -5 -4 -7 -10 -4 -5 3 -10 14 -10 24 0 14 6 17
30 13 17 -2 30 -8 30 -13z m10 -89 c0 -5 -2 -10 -4 -10 -3 0 -8 5 -11 10 -3 6
-1 10 4 10 6 0 11 -4 11 -10z m1212 -20 c2 -5 18 -12 36 -16 27 -5 32 -3 32
12 0 16 2 15 21 -5 16 -17 18 -26 10 -34 -8 -8 -11 -7 -11 2 0 11 -13 12 -55
7 -48 -5 -56 -4 -62 11 -4 10 -11 21 -17 25 -6 4 1 8 16 8 14 0 28 -4 30 -10z
m1762 -25 c3 -8 1 -15 -4 -15 -6 0 -10 7 -10 15 0 8 2 15 4 15 2 0 6 -7 10
-15z m-2872 -20 c3 -14 2 -25 -2 -25 -4 0 -10 11 -12 25 -3 14 -2 25 2 25 4 0
10 -11 12 -25z m1818 10 c0 -8 -4 -15 -10 -15 -5 0 -10 7 -10 15 0 8 5 15 10
15 6 0 10 -7 10 -15z m-670 -65 c-8 -5 -19 -10 -25 -10 -5 0 -3 5 5 10 8 5 20
10 25 10 6 0 3 -5 -5 -10z m667 -36 c-3 -3 -12 -4 -19 -1 -8 3 -5 6 6 6 11 1
17 -2 13 -5z"/>
</g>
</svg>
