<?xml version="1.0" standalone="no"?>
<!DOCTYPE svg PUBLIC "-//W3C//DTD SVG 20010904//EN"
 "http://www.w3.org/TR/2001/REC-SVG-20010904/DTD/svg10.dtd">
<svg version="1.0" xmlns="http://www.w3.org/2000/svg"
 width="828.000000pt" height="841.000000pt" viewBox="0 0 828.000000 841.000000"
 preserveAspectRatio="xMidYMid meet">
<metadata>
Created by potrace 1.13, written by Peter Selinger 2001-2015
</metadata>
<g transform="translate(0.000000,841.000000) scale(0.100000,-0.100000)"
fill="#000000" stroke="none">
<path d="M4888 7763 c-10 -2 -18 -11 -18 -19 0 -8 -4 -13 -9 -9 -6 3 -14 -2
-19 -11 -5 -9 -13 -16 -18 -16 -5 0 -26 -20 -46 -45 -21 -25 -38 -42 -38 -38
0 4 -7 2 -15 -5 -8 -7 -13 -16 -10 -20 3 -4 -13 -27 -35 -51 -22 -24 -43 -53
-46 -64 -4 -11 -19 -38 -34 -60 -14 -22 -32 -55 -39 -72 -8 -18 -17 -33 -22
-33 -5 0 -6 -7 -3 -15 4 -8 1 -15 -5 -15 -6 0 -8 -7 -5 -15 4 -8 1 -15 -7 -15
-7 0 -9 -3 -6 -7 4 -3 2 -12 -4 -20 -6 -7 -8 -13 -3 -13 5 0 3 -4 -5 -9 -7 -5
-13 -20 -13 -35 0 -14 -5 -26 -11 -26 -6 0 -8 -3 -4 -6 8 -8 -52 -104 -65
-104 -6 0 -8 -6 -5 -13 3 -8 -3 -20 -14 -28 -10 -7 -19 -17 -19 -22 0 -4 -11
-18 -25 -31 -14 -13 -25 -26 -25 -29 0 -10 -84 -93 -112 -110 -16 -10 -28 -15
-28 -12 0 3 -9 -3 -19 -12 -46 -42 -51 -45 -51 -28 0 8 5 15 10 15 6 0 10 5
10 11 0 13 26 40 32 33 3 -2 21 12 41 31 20 19 39 35 43 35 11 0 54 54 54 68
0 6 9 21 19 31 27 27 30 51 8 65 -15 9 -22 7 -36 -11 -10 -12 -21 -20 -24 -17
-3 3 -15 -8 -28 -25 -13 -17 -29 -31 -36 -31 -7 0 -13 -4 -13 -10 0 -5 -11
-12 -24 -16 -13 -3 -29 -16 -36 -29 -7 -14 -16 -22 -20 -20 -4 3 -24 -10 -45
-28 -21 -17 -41 -32 -45 -32 -9 0 -72 -58 -116 -108 -31 -35 -33 -35 -103 -33
-39 1 -71 -3 -71 -7 0 -5 -7 -4 -15 3 -8 7 -15 9 -15 5 0 -5 -9 2 -20 15 -11
13 -20 20 -20 16 0 -4 -6 -1 -14 6 -8 7 -14 15 -13 18 0 3 -5 19 -12 35 -18
42 -23 65 -26 103 -1 18 -4 35 -7 37 -8 8 15 147 34 205 7 19 11 41 10 48 -2
6 2 12 9 12 8 0 8 4 -1 15 -7 8 -8 15 -3 15 5 0 9 10 10 23 1 12 4 33 7 47 7
24 8 95 3 150 -3 36 -23 45 -48 22 -16 -15 -21 -34 -23 -83 -2 -35 -9 -77 -15
-94 -7 -16 -13 -38 -14 -47 -1 -10 -5 -18 -9 -18 -4 0 -7 -3 -6 -7 1 -5 -5
-21 -12 -38 -13 -29 -17 -42 -23 -67 -1 -7 -6 -18 -10 -25 -7 -12 -15 -65 -22
-148 -2 -22 -4 -40 -5 -40 -1 0 -2 -17 -3 -38 -1 -20 1 -37 5 -37 3 0 5 -11 3
-25 -1 -14 1 -27 4 -30 9 -5 6 -124 -3 -152 -7 -21 -19 -27 -53 -26 -7 1 -13
-3 -13 -7 0 -4 -18 -6 -40 -4 -22 1 -42 -1 -45 -6 -3 -5 -22 -2 -42 6 -27 12
-38 13 -43 4 -6 -9 -9 -9 -14 -1 -4 6 -11 9 -16 6 -5 -3 -20 1 -33 10 -13 8
-26 13 -29 10 -12 -12 -52 -14 -71 -4 -14 8 -22 8 -27 -1 -4 -6 -10 -11 -14
-11 -19 3 -26 0 -26 -13 0 -7 -11 -21 -25 -32 -18 -13 -21 -21 -13 -31 7 -9 7
-13 -1 -13 -7 0 -10 -4 -6 -9 3 -5 -4 -13 -16 -16 -34 -11 -69 -13 -74 -4 -3
4 -14 6 -24 4 -11 -2 -41 2 -68 9 -26 7 -63 12 -80 11 -18 0 -33 2 -33 5 0 4
-15 6 -32 6 -37 -1 -78 -24 -78 -43 0 -7 -4 -13 -9 -13 -12 0 -43 -92 -34 -99
5 -3 8 -27 8 -53 -1 -27 2 -48 5 -48 3 0 11 -12 17 -27 8 -19 28 -34 58 -46
25 -11 45 -23 45 -29 0 -5 4 -7 9 -3 5 3 20 -13 32 -35 13 -22 26 -40 29 -40
4 0 12 -11 18 -25 6 -14 18 -25 26 -25 13 0 31 -27 28 -42 -1 -4 7 -9 17 -13
18 -5 18 -9 4 -63 -8 -31 -20 -64 -27 -72 -6 -8 -18 -27 -26 -42 -7 -16 -17
-28 -21 -28 -5 0 -6 -7 -3 -15 4 -8 1 -15 -6 -15 -6 0 -9 -4 -6 -8 3 -5 -8
-24 -25 -43 -16 -19 -29 -44 -29 -56 0 -13 -4 -23 -10 -23 -5 0 -7 -7 -4 -15
4 -8 1 -15 -5 -15 -6 0 -11 -11 -11 -24 0 -14 -5 -28 -10 -31 -6 -4 -8 -11 -5
-16 4 -5 1 -9 -5 -9 -6 0 -10 -6 -9 -12 3 -17 -22 -98 -31 -98 -4 0 -6 -10 -5
-22 1 -13 -2 -28 -7 -35 -14 -17 -17 -153 -4 -153 8 0 8 -3 1 -8 -12 -8 -15
-72 -3 -72 4 0 4 -10 -1 -23 -6 -14 -5 -30 1 -42 6 -10 12 -41 14 -69 4 -61 7
-77 17 -93 5 -7 5 -13 0 -13 -9 0 -9 -57 0 -66 8 -8 -23 -94 -34 -94 -5 0 -9
-7 -9 -15 0 -8 -5 -15 -10 -15 -6 0 -15 -12 -20 -26 -6 -15 -19 -38 -28 -53
-25 -35 -38 -87 -37 -143 0 -27 -4 -48 -8 -48 -5 0 -6 -4 -3 -9 11 -18 15
-101 4 -101 -7 0 -7 -4 1 -13 6 -8 9 -16 6 -18 -2 -3 -7 -47 -10 -98 -5 -81
-4 -96 15 -125 21 -35 27 -61 10 -51 -5 3 -10 2 -10 -4 0 -12 -118 -132 -173
-175 -21 -17 -45 -31 -54 -32 -9 -2 -19 -7 -22 -12 -3 -5 -33 -22 -66 -37 -33
-16 -61 -33 -63 -37 -2 -4 -12 -8 -23 -8 -10 0 -19 -4 -19 -10 0 -5 -9 -10
-20 -10 -11 0 -41 -20 -66 -45 -24 -25 -47 -45 -51 -45 -13 0 -47 -55 -52 -85
-1 -5 -10 -19 -20 -30 -9 -11 -23 -32 -31 -47 -7 -16 -17 -28 -21 -28 -5 0 -6
-6 -4 -12 3 -7 -9 -21 -25 -30 -17 -10 -29 -21 -28 -25 2 -4 -18 -30 -44 -58
-27 -27 -48 -53 -48 -57 0 -5 -5 -8 -11 -8 -7 0 -24 -12 -39 -27 -50 -52 -109
-101 -115 -95 -3 3 -5 0 -5 -6 0 -7 -6 -12 -14 -12 -8 0 -22 -7 -30 -16 -9 -8
-16 -12 -16 -7 0 4 -6 1 -13 -7 -13 -17 -87 -56 -99 -52 -5 1 -8 -4 -8 -11 0
-8 -22 -12 -71 -13 -43 -1 -74 -7 -79 -14 -4 -6 -10 -11 -14 -11 -3 1 -7 1 -8
0 -2 0 -16 -2 -32 -4 -58 -8 -71 -51 -24 -86 17 -13 33 -23 35 -21 2 2 19 -10
38 -26 18 -17 49 -35 69 -42 20 -6 36 -15 36 -20 0 -5 8 -10 18 -12 21 -4 56
37 48 58 -5 13 1 15 34 11 22 -2 46 -9 53 -15 7 -7 23 -10 34 -8 22 5 113 86
113 102 0 11 19 37 68 90 17 20 32 41 32 46 0 5 4 7 9 4 4 -3 16 3 26 14 10
11 15 20 10 20 -4 0 -2 7 5 15 7 8 16 12 21 9 5 -3 9 2 9 10 0 9 4 16 9 16 13
0 71 56 71 69 0 6 3 10 8 10 18 -3 32 2 32 12 0 6 7 17 15 25 8 9 15 13 15 11
0 -3 19 13 41 34 23 21 45 36 50 33 5 -3 9 2 9 10 0 9 7 16 15 16 9 0 18 7 21
15 4 8 10 13 14 10 5 -3 21 5 37 18 24 20 53 37 73 41 3 1 16 8 30 16 14 8 31
15 39 16 8 2 18 9 22 16 5 7 9 10 9 5 0 -4 13 -1 30 8 16 8 33 16 37 16 14 2
38 12 43 18 7 9 59 31 72 31 7 0 7 -4 1 -12 -6 -7 -15 -31 -21 -53 -10 -38
-35 -112 -49 -145 -3 -8 -7 -17 -8 -20 -5 -21 -37 -69 -49 -73 -13 -5 -37 -48
-45 -82 -2 -5 -8 -19 -14 -30 -6 -11 -12 -31 -13 -45 -1 -14 -3 -27 -4 -30 -1
-3 -2 -8 -1 -12 0 -5 -3 -8 -7 -8 -5 0 -8 -13 -7 -30 1 -16 -2 -30 -8 -30 -5
0 -7 -7 -3 -15 3 -8 1 -15 -4 -15 -6 0 -9 -3 -8 -7 4 -12 -24 -103 -31 -103
-4 0 -15 -23 -26 -51 -11 -28 -28 -59 -37 -69 -9 -10 -15 -20 -12 -23 2 -2 -2
-10 -11 -17 -8 -7 -15 -18 -15 -26 0 -7 -11 -25 -26 -39 -14 -14 -22 -30 -19
-35 3 -6 0 -10 -8 -10 -15 0 -32 -27 -28 -45 2 -5 -1 -7 -4 -3 -4 4 -33 -10
-64 -31 -86 -58 -151 -94 -158 -87 -3 3 -12 1 -19 -4 -6 -6 -16 -10 -20 -8 -5
1 -18 -3 -29 -9 -11 -6 -37 -14 -58 -17 -47 -7 -77 -22 -78 -39 0 -7 -2 -20
-4 -29 -2 -10 1 -18 6 -18 6 0 8 -4 5 -9 -3 -5 6 -17 20 -27 14 -11 40 -31 57
-46 34 -29 85 -46 96 -31 3 5 19 10 34 11 16 1 35 9 43 17 9 8 20 15 25 15 5
0 9 5 9 11 0 20 25 34 58 34 17 0 32 4 32 9 0 5 7 3 15 -4 8 -7 22 -9 31 -6
10 4 25 -1 35 -10 17 -15 20 -13 59 26 28 29 40 49 37 61 -3 11 -1 19 5 19 6
0 8 7 4 15 -3 8 2 21 10 30 8 8 12 19 9 25 -3 5 -1 10 5 10 7 0 10 7 6 15 -3
8 -2 15 3 15 5 0 16 17 25 38 27 61 83 166 98 182 7 8 11 15 8 16 -3 1 3 10
12 20 9 11 16 21 16 24 -2 10 35 80 42 80 4 0 11 11 14 24 3 14 14 27 24 30
11 4 25 18 32 31 7 14 16 25 20 25 15 0 71 60 65 69 -3 6 -1 11 4 11 6 0 11 7
11 15 0 8 4 15 9 15 5 0 17 23 26 51 10 28 23 53 30 55 7 3 18 23 25 45 7 21
17 39 22 39 6 0 8 6 5 13 -2 6 4 19 13 27 9 8 24 29 33 46 8 16 31 48 50 69
20 22 34 42 32 46 -2 3 13 24 33 47 20 23 53 61 72 86 19 25 39 45 43 46 12 0
87 -77 87 -90 0 -5 5 -10 10 -10 6 0 10 -7 10 -15 0 -9 7 -18 15 -21 8 -4 15
-10 15 -14 0 -5 14 -24 30 -42 17 -18 30 -43 30 -56 0 -17 8 -26 30 -33 16 -6
28 -15 25 -19 -3 -5 33 -48 81 -96 47 -48 93 -98 101 -111 9 -13 35 -33 59
-43 23 -11 46 -25 49 -30 4 -6 10 -8 15 -5 4 3 14 -2 21 -11 14 -17 50 -34 83
-41 11 -2 25 -8 33 -14 7 -6 13 -8 13 -4 0 4 10 1 23 -7 12 -8 46 -23 74 -32
29 -10 55 -22 59 -27 3 -5 10 -7 15 -3 5 3 29 -4 52 -15 23 -11 52 -22 64 -24
12 -2 31 -11 41 -20 10 -9 22 -17 26 -17 4 0 27 -16 51 -35 l43 -36 -19 -49
c-10 -28 -17 -50 -14 -50 3 0 -2 -11 -10 -24 -12 -18 -13 -26 -4 -31 8 -6 8
-9 -1 -15 -8 -5 -14 -42 -17 -101 -5 -121 -5 -119 -12 -119 -4 0 -6 -18 -5
-40 0 -22 -4 -40 -9 -40 -5 0 -4 -7 3 -15 7 -8 9 -15 4 -15 -7 0 -11 -101 -4
-120 6 -17 5 -50 -1 -50 -6 0 -5 -22 1 -40 6 -15 4 -39 -6 -70 -6 -19 -10 -50
-9 -68 1 -21 -4 -36 -14 -42 -9 -5 -12 -10 -7 -10 5 0 3 -7 -4 -15 -7 -8 -9
-15 -5 -15 4 0 -4 -15 -19 -34 -14 -19 -26 -40 -26 -46 0 -6 -4 -9 -8 -6 -4 2
-34 -29 -67 -69 -33 -41 -65 -74 -71 -75 -7 0 -14 -7 -18 -15 -3 -8 -11 -15
-18 -15 -7 0 -25 -11 -40 -25 -15 -14 -32 -25 -38 -25 -5 0 -10 -5 -10 -11 0
-6 -7 -9 -15 -5 -8 3 -15 1 -15 -4 0 -6 -7 -10 -15 -10 -9 0 -18 -7 -21 -15
-4 -8 -10 -12 -15 -9 -5 2 -33 -11 -64 -30 -30 -20 -55 -31 -55 -25 0 6 -12 2
-27 -8 -16 -11 -38 -18 -51 -17 -13 1 -26 -5 -29 -13 -4 -10 -9 -11 -19 -2
-11 9 -14 8 -14 -7 0 -13 -3 -15 -11 -7 -8 8 -17 6 -33 -8 -11 -11 -28 -26
-36 -33 -15 -13 -52 -23 -118 -32 -19 -2 -49 -11 -69 -19 -19 -8 -39 -12 -44
-9 -5 3 -9 0 -9 -5 0 -6 -7 -11 -16 -11 -9 0 -32 -9 -51 -21 -25 -15 -33 -27
-30 -44 3 -25 24 -55 39 -55 5 0 23 -13 40 -29 25 -23 85 -48 100 -41 2 1 16
-3 31 -9 25 -10 32 -7 62 21 54 49 68 55 105 51 69 -9 114 -7 118 5 2 7 8 12
14 12 5 0 22 12 37 28 37 37 68 61 74 56 2 -2 10 2 17 11 7 8 20 15 30 15 10
0 20 7 24 15 3 8 15 15 26 15 11 0 20 3 20 8 0 4 20 18 45 32 25 14 45 28 45
33 0 4 6 7 13 5 13 -3 87 39 99 56 4 6 8 7 8 1 0 -5 5 -4 11 2 6 6 18 9 25 6
8 -3 14 -1 14 5 0 10 34 22 76 27 12 2 30 7 40 13 11 6 24 11 29 12 6 1 20 6
33 11 13 5 28 9 34 9 5 0 22 9 38 20 15 11 30 17 34 13 3 -3 6 -1 6 6 0 7 6
11 14 8 7 -3 19 0 25 6 6 6 11 8 11 4 0 -4 14 7 30 25 17 17 29 37 26 44 -3 7
0 14 5 16 6 2 11 31 12 66 1 34 6 62 11 62 4 0 6 7 2 15 -3 8 -1 15 5 15 6 0
9 7 5 15 -3 8 0 15 6 15 7 0 6 5 -2 15 -7 8 -8 15 -3 15 10 0 40 87 35 102 -1
5 3 8 8 8 5 0 9 3 9 7 -1 5 -1 10 1 13 1 3 4 16 6 29 2 14 11 32 19 41 8 9 15
22 15 28 0 7 4 12 10 12 5 0 6 7 3 17 -4 11 -3 14 5 9 7 -4 16 3 24 18 11 26
11 26 26 5 16 -24 23 -69 10 -69 -5 0 -6 -5 -2 -12 4 -7 9 -24 11 -38 7 -67
12 -88 25 -127 9 -23 12 -44 8 -45 -7 -2 1 -30 39 -143 14 -42 19 -75 12 -75
-4 0 -7 -18 -7 -40 1 -22 5 -40 9 -40 4 0 3 -9 -3 -20 -6 -11 -7 -20 -2 -20
11 0 6 -263 -7 -367 0 -6 -8 -18 -16 -27 -8 -8 -16 -24 -18 -35 -2 -11 -6 -24
-10 -27 -4 -4 -7 -18 -7 -31 0 -13 -5 -23 -10 -23 -6 0 -9 -3 -8 -7 1 -5 -5
-21 -12 -38 -7 -16 -14 -36 -16 -44 -1 -7 -11 -23 -22 -35 -11 -11 -25 -38
-32 -58 -6 -21 -15 -38 -20 -38 -4 0 -10 -10 -14 -23 -7 -29 -161 -186 -174
-178 -2 1 -11 -6 -20 -17 -9 -10 -23 -17 -29 -15 -7 3 -13 0 -13 -7 0 -6 -4
-9 -9 -6 -7 5 -48 -12 -151 -62 -45 -22 -46 -49 -1 -85 19 -15 36 -25 39 -22
3 2 13 -5 23 -17 11 -11 19 -18 19 -13 0 4 6 2 13 -4 8 -6 24 -13 38 -15 13
-3 24 -5 24 -6 0 -1 13 -4 28 -6 22 -2 30 3 40 24 15 33 46 61 68 62 9 0 22 7
29 15 10 12 16 13 26 4 11 -9 14 -8 14 0 0 7 5 9 13 4 6 -4 17 -8 24 -9 15 -3
70 67 79 100 3 14 10 26 15 26 5 0 9 7 9 15 0 8 5 15 11 15 5 0 7 4 4 10 -3 5
-2 10 3 10 9 0 28 43 32 68 1 4 9 16 19 27 10 11 24 38 31 60 7 22 19 46 27
53 7 7 13 20 13 28 0 8 5 14 10 14 6 0 10 7 10 15 0 8 5 15 11 15 5 0 8 4 4 9
-3 5 -1 12 5 16 6 4 8 11 5 16 -4 5 -1 9 4 9 6 0 11 7 11 15 0 8 9 24 20 35
11 11 20 25 20 30 0 6 4 10 9 10 5 0 13 9 16 21 4 12 14 29 23 38 32 34 50 59
46 64 -2 2 2 10 11 17 8 7 15 17 15 22 0 6 9 22 20 38 11 15 17 30 13 34 -3 3
-1 6 5 6 18 0 55 69 46 88 -4 9 -6 21 -5 26 1 5 -3 32 -10 60 -7 28 -13 71
-15 96 -1 25 -3 47 -4 50 -4 10 0 112 5 120 3 5 1 12 -5 15 -7 4 -7 11 -2 18
5 7 8 20 7 30 -2 9 1 17 6 17 6 0 8 4 5 8 -3 4 -1 26 5 48 5 21 12 63 15 93 5
55 27 101 48 101 6 0 20 14 31 30 11 16 25 30 30 30 6 0 22 11 37 25 15 14 32
25 38 25 5 0 10 4 10 10 0 5 6 7 14 4 9 -3 24 7 37 26 13 17 28 29 34 26 7 -2
23 9 36 26 37 45 58 70 90 105 16 18 29 38 29 45 0 10 3 9 9 -1 6 -9 2 -25 -9
-44 -19 -30 -19 -31 3 -61 11 -17 27 -35 34 -39 11 -7 10 -11 -3 -24 -14 -15
-13 -18 18 -45 25 -22 34 -25 36 -13 2 8 8 15 13 15 6 0 8 4 4 9 -3 5 0 13 5
16 14 8 33 52 43 98 1 6 5 17 9 22 3 6 6 21 6 35 2 34 6 51 20 78 7 12 10 27
7 32 -3 6 -1 10 4 10 6 0 11 7 11 15 0 8 5 15 10 15 6 0 10 6 10 13 0 8 9 22
20 32 11 10 20 23 20 30 0 7 11 25 24 40 14 16 23 32 20 37 -3 4 0 8 6 8 7 0
10 6 7 14 -3 8 -2 16 3 18 6 2 12 18 15 36 3 17 8 47 11 65 13 67 6 247 -9
247 -6 0 -7 3 -4 7 4 3 2 12 -4 20 -6 7 -8 13 -5 13 4 0 1 10 -6 23 -7 12 -13
24 -13 27 0 3 -6 15 -12 26 -7 12 -15 36 -18 54 -3 17 -14 48 -24 69 -10 20
-20 41 -22 46 -1 6 -4 18 -7 28 -2 9 -8 17 -13 17 -5 0 -9 7 -9 15 0 8 -4 15
-10 15 -5 0 -10 9 -10 20 0 10 -8 24 -17 29 -10 6 -15 11 -11 11 4 0 -8 24
-27 54 -19 29 -31 56 -28 60 4 3 2 6 -4 6 -16 0 -47 32 -61 63 -6 15 -16 27
-22 27 -6 0 -9 4 -6 9 3 5 -5 16 -18 25 -14 8 -35 26 -48 39 -33 32 -98 81
-98 73 0 -4 -17 9 -37 29 -21 19 -48 38 -60 41 -13 4 -23 10 -23 14 0 5 -13
11 -29 15 -16 3 -49 23 -73 44 -24 21 -56 45 -73 54 -16 9 -49 33 -72 54 -23
21 -54 48 -70 60 -15 12 -38 31 -50 42 -12 11 -28 22 -35 23 -7 2 -17 8 -23
13 -7 6 -33 28 -60 50 -26 22 -53 45 -59 50 -6 6 -38 32 -71 60 -33 27 -62 52
-65 56 -3 3 -14 9 -25 13 -12 3 -37 21 -56 39 -49 45 -126 107 -134 107 -17 0
-92 73 -110 107 -22 43 -35 54 -49 46 -5 -4 -7 1 -3 11 5 12 -1 20 -18 28 -13
6 -29 24 -36 39 -6 16 -15 29 -20 29 -5 0 -9 5 -9 11 0 14 -85 116 -119 143
-13 11 -35 31 -49 45 -14 14 -27 25 -29 24 -8 -7 -22 1 -62 37 -24 21 -48 37
-52 34 -4 -2 -11 0 -14 6 -4 6 -36 24 -71 40 -36 16 -63 34 -60 39 3 5 -1 12
-10 15 -8 3 -12 10 -9 16 3 5 1 10 -4 10 -6 0 -11 7 -11 15 0 8 -4 15 -9 15
-4 0 -7 10 -7 23 1 12 0 26 -2 31 -7 12 -15 82 -15 126 -1 19 -6 38 -11 42 -8
5 -8 8 0 8 7 0 9 11 6 25 -3 16 2 33 12 44 9 10 16 22 15 27 -3 14 19 64 36
80 8 8 12 21 9 29 -4 8 -1 15 6 15 7 0 10 7 6 15 -3 8 -1 15 4 15 5 0 7 7 4
15 -4 8 -1 15 6 15 6 0 8 5 5 10 -3 6 -2 10 4 10 6 0 8 7 5 15 -4 8 -2 15 3
15 6 0 15 18 22 40 12 42 21 48 43 27 7 -7 20 -13 28 -13 8 0 22 -3 30 -6 65
-22 84 -26 103 -22 12 3 27 6 32 7 6 2 16 6 23 10 6 5 12 5 12 0 0 -4 4 -3 8
2 10 15 49 35 67 35 8 0 15 4 15 8 0 11 70 33 82 26 4 -3 8 -1 8 4 0 9 37 25
53 23 4 -1 7 4 7 9 0 6 11 20 24 31 25 22 27 33 11 59 -21 32 -61 51 -112 53
-7 0 -13 4 -13 8 0 4 -12 10 -27 14 -16 4 -34 12 -41 18 -8 6 -21 12 -29 13
-8 1 -30 10 -49 19 -19 9 -38 13 -43 10 -5 -3 -12 -1 -15 3 -3 5 -24 8 -46 6
-22 -2 -38 1 -35 6 3 4 -1 11 -7 13 -10 4 -10 6 0 6 6 1 12 9 12 18 0 9 3 13
6 10 4 -3 14 -2 23 3 50 26 195 13 237 -21 6 -5 14 -6 17 -2 4 3 7 1 7 -5 0
-7 5 -12 12 -12 6 0 25 -10 42 -23 28 -21 58 -36 71 -37 3 0 11 -4 18 -10 6
-6 26 -20 42 -30 17 -11 37 -24 45 -30 21 -14 70 -32 100 -37 13 -2 31 -9 38
-16 8 -6 22 -12 31 -14 10 -1 30 -9 45 -17 16 -8 35 -12 42 -9 8 3 14 1 14 -3
0 -23 372 -22 409 0 6 4 16 4 21 1 6 -3 10 -2 10 3 0 5 6 9 13 10 12 1 47 9
57 12 3 1 10 3 15 4 32 4 195 61 195 68 0 4 6 8 14 8 19 0 79 32 89 48 5 7 12
10 17 7 4 -3 10 2 14 10 3 8 14 15 25 15 11 0 26 7 34 15 8 8 21 16 28 17 17
4 69 56 69 69 0 6 4 8 8 5 8 -4 29 19 117 123 17 20 36 42 43 49 6 7 12 19 12
26 0 6 15 27 33 47 17 19 47 65 65 102 19 37 38 67 44 67 6 0 8 7 4 15 -3 8
-1 15 5 15 6 0 9 7 5 15 -3 8 -2 15 2 15 16 0 10 39 -8 55 -21 19 -34 11 -58
-35 -7 -14 -21 -38 -32 -55 -11 -16 -23 -37 -27 -46 -11 -22 -62 -87 -95 -121
-16 -15 -28 -32 -28 -38 0 -5 -4 -10 -9 -10 -5 0 -13 -9 -16 -20 -4 -11 -10
-18 -15 -15 -5 3 -17 -6 -28 -20 -11 -14 -24 -25 -30 -25 -5 0 -17 -11 -26
-25 -9 -14 -21 -23 -25 -21 -4 3 -13 -5 -20 -17 -7 -12 -26 -29 -44 -36 -18
-8 -43 -26 -56 -40 -14 -14 -27 -25 -30 -25 -7 2 -22 -2 -48 -13 -27 -10 -36
-9 -59 6 -19 13 -20 19 -12 50 6 20 17 50 26 66 9 17 16 33 17 37 0 8 67 91
126 155 16 18 29 37 29 42 0 5 7 12 16 15 8 3 13 10 10 15 -3 4 3 16 14 26 11
10 18 21 15 25 -2 4 4 16 15 27 10 12 16 24 12 27 -3 4 0 11 8 16 13 8 12 12
-3 27 -17 17 -20 16 -60 -28 -23 -26 -54 -62 -69 -80 -63 -79 -84 -104 -105
-125 -13 -13 -23 -28 -23 -34 0 -5 -3 -9 -7 -9 -21 3 -33 -2 -33 -16 0 -8 -5
-15 -11 -15 -5 0 -7 -5 -4 -11 4 -5 -4 -20 -18 -32 -32 -28 -80 -133 -79 -172
1 -39 -34 -79 -84 -96 -21 -8 -43 -14 -49 -14 -5 0 -16 -4 -22 -8 -7 -5 -17
-6 -22 -2 -5 3 -12 1 -15 -3 -5 -8 -20 -10 -86 -14 -8 0 -21 -5 -27 -11 -9 -6
-13 -6 -13 2 0 6 -8 8 -22 3 -29 -9 -59 -8 -76 1 -6 5 -16 6 -21 2 -5 -3 -12
-1 -16 4 -3 5 -14 8 -25 6 -11 -2 -22 1 -25 6 -4 5 -11 7 -16 4 -5 -4 -9 -1
-9 4 0 6 -3 10 -7 10 -5 -1 -11 0 -15 1 -5 1 -12 4 -18 5 -5 1 -12 4 -15 5 -3
1 -8 3 -12 5 -18 4 -50 17 -83 33 -19 8 -37 16 -40 17 -3 1 -18 7 -35 14 -16
7 -31 12 -33 11 -1 0 -14 11 -29 24 -15 14 -30 23 -33 21 -4 -2 -29 16 -56 40
-27 25 -54 45 -61 45 -6 0 -18 6 -25 13 -7 8 -31 25 -53 39 -30 19 -40 32 -40
52 0 14 3 26 6 26 3 0 5 11 4 25 -2 14 1 25 6 25 6 0 7 5 4 11 -8 12 25 40 38
32 4 -2 19 3 32 11 14 9 25 14 25 11 0 -4 14 3 30 15 17 12 30 19 30 15 0 -3
10 0 23 7 12 7 25 11 30 10 4 -1 7 5 7 14 0 8 4 13 9 9 6 -3 14 3 20 12 6 10
11 14 11 10 0 -9 73 43 78 56 2 4 8 5 13 2 4 -3 14 3 21 15 7 11 18 20 25 20
7 0 13 4 13 9 0 5 35 44 78 88 85 88 132 142 132 155 0 21 41 46 113 68 42 13
77 27 77 32 0 4 6 8 14 8 8 0 37 18 65 40 28 22 51 38 51 34 0 -3 16 11 35 30
19 20 35 38 35 41 0 5 30 42 65 80 11 12 27 35 36 52 15 28 15 31 -2 41 -16
10 -28 3 -84 -52 -36 -35 -65 -62 -65 -59 0 2 -7 -2 -15 -11 -8 -8 -15 -19
-15 -25 0 -6 -3 -10 -7 -10 -21 3 -33 -3 -33 -17 0 -8 -4 -13 -9 -9 -6 3 -14
-2 -19 -11 -5 -9 -11 -15 -13 -14 -5 2 -40 -9 -59 -19 -17 -9 -71 -4 -82 7
-17 18 -8 112 14 140 6 6 7 12 3 12 -5 0 -1 8 8 18 10 10 14 22 10 25 -3 4 -2
7 4 7 6 0 13 10 17 23 3 12 13 31 23 42 10 11 24 31 31 46 7 14 26 38 40 55
15 16 40 46 56 67 16 20 35 37 42 37 8 0 14 4 14 9 0 5 9 13 20 16 11 3 20 12
20 20 0 7 6 15 12 17 9 3 8 9 -4 21 -16 17 -35 19 -70 10z m-1105 -1259 c3 -3
-3 -15 -13 -27 -11 -11 -18 -23 -16 -26 2 -3 -2 -12 -10 -19 -11 -10 -13 -8
-10 15 7 54 28 78 49 57z m-1127 -234 c8 8 13 6 18 -5 5 -13 0 -16 -21 -13
-14 2 -28 10 -31 18 -4 12 -2 13 9 3 8 -9 16 -9 25 -3z m973 -280 c-10 -7 -49
-2 -49 5 0 2 14 3 31 3 17 -1 25 -4 18 -8z m-655 -1139 c4 -5 -1 -8 -9 -7 -21
3 -31 16 -12 16 9 0 18 -4 21 -9z m156 -135 c0 -3 -4 -8 -10 -11 -5 -3 -10 -1
-10 4 0 6 5 11 10 11 6 0 10 -2 10 -4z m-505 -69 c-8 -13 -12 -27 -8 -30 3 -4
-9 -7 -27 -7 -18 0 -31 3 -27 6 3 3 7 4 9 2 2 -1 17 9 33 25 36 33 40 34 20 4z
m512 -54 c4 -10 -23 -14 -47 -7 -12 4 -12 7 -1 13 17 11 44 8 48 -6z m58 -103
c-10 -11 -22 -17 -27 -14 -5 3 1 14 13 25 28 24 38 16 14 -11z m-680 -97 c-5
-69 -5 -70 -16 -45 -5 14 -5 30 0 39 4 9 6 24 4 34 -3 11 -1 19 5 19 5 0 8
-21 7 -47z m318 -88 c4 -8 2 -17 -2 -20 -5 -2 -11 4 -14 15 -6 23 8 27 16 5z
m-86 -112 c0 -7 -6 -13 -12 -13 -6 0 -12 6 -12 13 0 8 6 14 12 14 6 0 12 -6
12 -14z m1052 -22 c9 -6 10 -11 2 -15 -6 -4 -18 0 -27 8 -12 12 -12 16 -2 16
7 0 19 -4 27 -9z m-264 -91 c3 -5 1 -10 -4 -10 -6 0 -11 5 -11 10 0 6 2 10 4
10 3 0 8 -4 11 -10z m429 -141 c-3 -5 -14 -4 -26 2 -16 9 -18 13 -7 20 15 9
42 -8 33 -22z m-1309 3 c-3 -3 -11 0 -18 7 -9 10 -8 11 6 5 10 -3 15 -9 12
-12z m955 -10 c0 -13 -12 -22 -22 -16 -10 6 -1 24 13 24 5 0 9 -4 9 -8z m-861
-119 c20 -14 33 -60 20 -69 -5 -3 -9 -1 -9 4 0 5 -10 13 -22 17 -31 10 -37 12
-43 15 -23 11 -60 -4 -49 -21 3 -5 1 -9 -5 -9 -5 0 -11 -10 -13 -22 -2 -13 -7
-21 -12 -20 -5 2 -12 -2 -17 -9 -6 -10 -11 -10 -22 -1 -12 10 -16 9 -21 -3 -3
-8 -10 -15 -16 -15 -6 0 -2 10 9 22 11 11 18 25 15 29 -3 5 7 25 22 44 15 20
21 35 14 35 -9 0 -10 3 -1 13 6 8 7 18 3 22 -4 5 1 5 10 2 17 -6 43 15 31 26
-3 4 1 7 10 7 10 0 17 5 17 11 0 7 14 -5 30 -26 17 -21 39 -44 49 -52z m-284
42 c-2 -35 -25 -64 -52 -65 -7 0 -13 -4 -13 -10 0 -5 -9 -10 -19 -10 -11 0
-22 -4 -25 -9 -11 -16 -46 -20 -46 -4 0 8 5 11 10 8 6 -3 13 1 16 9 3 9 10 14
14 11 5 -3 18 8 30 25 12 17 26 28 31 25 5 -4 9 -1 9 5 0 7 10 20 23 31 12 10
22 18 22 19 1 0 0 -16 0 -35z m1170 -16 c3 -4 -3 -13 -14 -18 -14 -8 -22 -7
-31 4 -6 8 -9 18 -6 24 7 10 43 3 51 -10z m425 -7 c0 -15 -2 -15 -10 -2 -13
20 -13 33 0 25 6 -3 10 -14 10 -23z m120 -57 c0 -3 -9 -5 -20 -5 -11 0 -20 7
-20 15 0 13 4 14 20 5 11 -6 20 -13 20 -15z m-760 -67 c0 -16 -3 -17 -20 -8
-22 12 -20 27 5 27 8 0 15 -9 15 -19z m555 2 c4 -6 12 -7 18 -4 7 4 9 3 4 -1
-12 -14 -47 -13 -47 2 0 15 16 17 25 3z m-1755 -30 c0 -4 -7 -13 -15 -20 -12
-10 -15 -9 -15 7 0 11 7 20 15 20 8 0 15 -4 15 -7z m335 -39 c0 -16 -3 -27 -7
-25 -10 7 -38 -38 -31 -49 4 -6 0 -8 -10 -4 -9 3 -18 1 -21 -6 -2 -7 -5 -4 -5
6 -1 9 4 17 9 17 6 0 10 7 10 15 0 8 3 15 8 15 4 0 13 14 20 30 17 38 27 38
27 1z m-375 9 c0 -5 -5 -10 -11 -10 -5 0 -7 5 -4 10 3 6 8 10 11 10 2 0 4 -4
4 -10z m1362 -72 c-9 -9 -12 -7 -12 12 0 19 3 21 12 12 9 -9 9 -15 0 -24z
m-1312 -42 c0 -2 -7 -6 -15 -10 -8 -3 -15 -1 -15 4 0 6 7 10 15 10 8 0 15 -2
15 -4z m2619 -43 c-8 -9 -16 -10 -22 -4 -13 13 0 31 19 24 11 -4 12 -8 3 -20z
m-2833 -44 c4 -8 9 -7 15 2 6 10 9 10 9 2 0 -7 -9 -17 -19 -23 -22 -11 -38
-13 -28 -3 4 3 2 12 -4 20 -9 10 -8 13 4 13 9 0 19 -5 23 -11z m-56 -66 c0
-17 -5 -16 -24 3 -23 22 -20 37 4 22 11 -7 20 -18 20 -25z m2814 -60 c3 -8 3
-19 0 -25 -9 -14 -44 21 -37 37 6 17 29 9 37 -12z m-2957 -19 c0 -9 -9 -19
-19 -22 -10 -2 -21 -15 -24 -28 -4 -13 -19 -32 -34 -41 -16 -9 -34 -27 -41
-39 -13 -26 -39 -40 -39 -21 0 7 15 23 32 37 18 14 39 34 48 44 33 41 72 86
74 86 2 0 3 -7 3 -16z m-190 -204 c-15 -17 -24 -37 -21 -44 7 -17 -12 -30 -21
-16 -5 8 -13 6 -26 -6 -18 -16 -19 -16 -19 4 0 12 3 22 8 22 4 0 27 18 51 40
50 46 66 46 28 0z m790 -56 c3 -9 1 -19 -4 -23 -6 -3 -17 -20 -26 -37 -9 -17
-24 -34 -33 -38 -10 -4 -7 5 11 25 17 21 23 35 16 42 -6 6 -6 16 2 28 14 23
26 24 34 3z m-908 -54 c-12 -11 -19 -20 -14 -20 4 0 3 -6 -4 -13 -8 -10 -7
-17 2 -27 10 -10 9 -12 -6 -7 -13 5 -23 -2 -37 -25 -10 -17 -17 -35 -15 -38
11 -18 -49 1 -66 21 -25 29 -24 36 6 43 14 4 25 11 25 16 0 6 7 10 15 10 8 0
15 4 15 8 0 5 20 19 45 32 25 13 45 28 46 34 0 6 3 5 6 -2 3 -7 -5 -22 -18
-32z m3165 -25 c-4 -8 -8 -15 -10 -15 -2 0 -4 7 -4 15 0 8 4 15 10 15 5 0 7
-7 4 -15z m-3336 -70 c-2 -6 -7 -9 -12 -7 -5 2 -13 -2 -17 -9 -4 -7 -14 -14
-23 -15 -19 -3 -46 -28 -46 -43 0 -6 -5 -11 -11 -11 -5 0 -7 -6 -3 -12 4 -7 3
-9 -1 -5 -5 4 -10 13 -11 20 -1 7 -5 24 -9 40 -6 22 -4 26 9 21 9 -4 16 -1 16
6 0 9 4 9 13 2 8 -7 22 -5 47 8 36 20 54 21 48 5z m3207 -55 c3 -5 1 -10 -4
-10 -6 0 -11 5 -11 10 0 6 2 10 4 10 3 0 8 -4 11 -10z m105 -40 c0 -5 -5 -10
-11 -10 -5 0 -7 5 -4 10 3 6 8 10 11 10 2 0 4 -4 4 -10z m-2410 -20 c0 -4 -8
-15 -19 -24 -17 -16 -18 -16 -14 7 4 21 33 35 33 17z m-73 -50 c-3 -21 -17
-40 -17 -22 0 13 11 42 16 42 2 0 3 -9 1 -20z m2263 10 c0 -5 -5 -10 -11 -10
-5 0 -7 5 -4 10 3 6 8 10 11 10 2 0 4 -4 4 -10z m-2280 -61 c0 -6 -4 -7 -10
-4 -5 3 -10 11 -10 16 0 6 5 7 10 4 6 -3 10 -11 10 -16z m1985 -16 c-3 -21
-15 -47 -26 -59 -12 -13 -18 -27 -15 -32 3 -6 0 -16 -7 -24 -8 -7 -12 -19 -9
-27 3 -8 -1 -12 -9 -9 -15 5 -21 78 -7 78 6 0 8 6 6 12 -3 7 10 29 29 48 18
19 33 38 33 43 0 4 3 7 6 7 3 0 3 -17 -1 -37z m-2012 -18 c-10 -7 -20 -12 -21
-10 -7 7 23 33 31 28 5 -3 0 -11 -10 -18z m3424 -37 c-3 -8 -6 -5 -6 6 -1 11
2 17 5 13 3 -3 4 -12 1 -19z m-3466 -29 c-12 -19 -25 -44 -31 -57 -5 -13 -15
-20 -21 -17 -7 5 0 18 17 36 15 16 25 29 21 29 -4 0 0 11 9 25 25 38 28 23 5
-16z m1983 -104 c-7 -18 -8 -18 -14 1 -9 23 -1 39 11 27 6 -6 6 -18 3 -28z
m-2091 -47 c-10 -14 -10 -25 2 -51 9 -21 43 -14 63 14 7 11 19 19 25 19 9 0 9
-2 1 -8 -6 -4 -14 -17 -18 -30 -4 -12 -12 -20 -17 -17 -5 4 -9 2 -9 -2 0 -5
-10 -13 -22 -18 -13 -6 -23 -18 -23 -27 0 -26 -13 -32 -31 -13 -10 10 -27 15
-41 12 -30 -6 -38 7 -17 27 14 15 14 17 0 22 -9 3 -16 10 -16 16 0 5 5 6 10 3
6 -3 10 1 10 10 0 9 4 14 9 11 4 -3 23 6 41 19 38 28 47 31 33 13z m3121 -3
c-4 -8 -11 -15 -16 -15 -6 0 -5 6 2 15 7 8 14 15 16 15 2 0 1 -7 -2 -15z
m-3234 -107 c0 -6 -6 -8 -13 -5 -8 3 -27 -2 -44 -10 -24 -11 -30 -19 -26 -36
3 -13 1 -18 -4 -11 -4 6 -18 16 -30 22 -17 9 -22 9 -27 -4 -3 -8 -11 -12 -17
-8 -8 4 -5 10 7 17 11 6 19 10 19 8 0 -1 25 11 55 28 40 22 58 27 67 19 7 -6
13 -15 13 -20z m-106 -114 c5 -12 2 -15 -10 -10 -8 3 -18 6 -20 6 -3 0 -2 5 1
10 9 15 22 12 29 -6z m3654 -59 c-3 -3 -9 2 -12 12 -6 14 -5 15 5 6 7 -7 10
-15 7 -18z m-1334 -370 c11 -8 17 -18 13 -21 -4 -4 -2 -13 3 -19 12 -14 9 -39
-10 -77 -12 -26 -14 -26 -40 -13 -31 16 -70 16 -70 0 -1 -11 -44 -45 -63 -49
-7 -2 -23 -8 -37 -13 -30 -13 -37 -9 -22 10 7 8 9 16 6 20 -3 3 4 8 15 12 12
3 21 13 21 21 0 8 5 14 11 14 5 0 8 3 6 8 -2 4 6 18 19 32 13 13 24 19 24 13
0 -20 27 -4 35 20 4 12 8 26 9 31 1 9 32 24 51 25 6 0 19 -6 29 -14z m-253
-228 c-8 -8 -11 -7 -11 4 0 20 13 34 18 19 3 -7 -1 -17 -7 -23z m-41 -86 c3
-2 -3 -1 -13 2 -10 4 -27 2 -38 -3 -23 -13 -24 -7 -3 15 16 15 23 13 54 -14z
m-80 -15 c0 -11 -71 -58 -77 -52 -7 6 27 34 57 48 20 9 20 9 20 4z m-109 -69
c-10 -9 -11 -8 -5 6 3 10 9 15 12 12 3 -3 0 -11 -7 -18z m-58 -35 c-3 -12 -9
-19 -14 -16 -5 3 -9 -3 -9 -12 0 -10 -3 -14 -7 -11 -3 4 -12 2 -20 -4 -10 -9
-13 -8 -13 2 -1 9 -6 8 -15 -5 -11 -15 -18 -17 -26 -9 -8 8 -5 13 10 18 12 3
21 11 21 16 0 6 4 8 8 5 5 -3 21 6 37 20 32 28 37 27 28 -4z m-406 -188 c4
-13 -45 -37 -58 -29 -5 3 -18 -3 -30 -14 -25 -23 -40 -19 -36 9 4 28 12 33 52
35 19 0 38 4 42 8 9 9 26 4 30 -9z"/>
</g>
</svg>
