<?xml version="1.0" standalone="no"?>
<!DOCTYPE svg PUBLIC "-//W3C//DTD SVG 20010904//EN"
 "http://www.w3.org/TR/2001/REC-SVG-20010904/DTD/svg10.dtd">
<svg version="1.0" xmlns="http://www.w3.org/2000/svg"
 width="700.000000pt" height="638.000000pt" viewBox="0 0 700.000000 638.000000"
 preserveAspectRatio="xMidYMid meet">
<metadata>
Created by potrace 1.13, written by Peter Selinger 2001-2015
</metadata>
<g transform="translate(0.000000,638.000000) scale(0.100000,-0.100000)"
fill="#000000" stroke="none">
<path d="M4109 6362 c-18 -8 -67 -46 -107 -82 -19 -17 -37 -53 -55 -110 -39
-122 -36 -170 14 -224 23 -24 23 -22 4 -183 -8 -71 -16 -175 -18 -231 -1 -56
-5 -102 -9 -102 -5 0 -8 -7 -8 -15 0 -32 -42 -97 -76 -117 -18 -11 -34 -24
-34 -29 0 -5 -16 -15 -35 -23 -19 -8 -40 -20 -47 -26 -45 -38 -62 -50 -69 -50
-4 0 -14 -6 -21 -13 -7 -8 -34 -27 -58 -42 -25 -15 -55 -39 -67 -52 -12 -12
-25 -23 -29 -23 -33 0 -338 -270 -392 -347 -13 -18 -35 -45 -50 -61 -24 -26
-136 -161 -154 -187 -17 -24 -116 -131 -143 -154 -16 -14 -39 -36 -51 -47 -12
-12 -40 -25 -61 -28 -32 -6 -98 -41 -187 -99 -63 -40 -142 -155 -152 -219 -8
-51 -30 -88 -53 -88 -9 0 -48 -15 -86 -34 -39 -19 -90 -39 -115 -46 -25 -7
-61 -20 -80 -28 -19 -9 -51 -17 -70 -18 -51 -2 -241 -24 -268 -31 -19 -4 -23
-11 -19 -29 2 -13 0 -24 -4 -24 -5 0 -9 5 -9 10 0 20 -82 9 -155 -21 -11 -5
-47 -17 -80 -28 -33 -11 -77 -27 -98 -36 -55 -23 -508 -23 -582 0 -27 8 -93
22 -145 30 -65 10 -116 25 -161 47 -36 18 -86 42 -110 53 -24 11 -60 32 -79
47 -60 48 -66 42 -81 -77 -9 -71 -16 -102 -23 -95 -15 15 -34 12 -55 -9 -27
-27 -38 -151 -21 -234 13 -65 45 -170 61 -199 15 -28 60 -22 115 17 54 38 94
46 94 18 1 -47 87 -83 197 -83 42 0 317 50 418 76 332 86 319 84 518 89 103 2
191 6 195 9 4 2 86 7 182 10 96 4 182 8 190 11 32 9 323 35 329 29 3 -3 6 -49
5 -102 -1 -104 -24 -196 -76 -296 -5 -10 -18 -63 -29 -117 -26 -135 -23 -301
7 -423 5 -21 3 -32 -9 -41 -21 -15 -47 -76 -47 -110 0 -14 9 -35 20 -47 11
-12 20 -28 20 -35 0 -17 66 -114 108 -161 34 -38 102 -166 102 -193 0 -9 6
-19 13 -22 6 -2 -2 -11 -20 -20 -18 -10 -37 -26 -43 -37 -6 -11 -17 -20 -25
-20 -9 0 -23 -5 -33 -10 -20 -12 -230 -80 -246 -80 -23 0 -146 -52 -201 -85
-32 -19 -63 -35 -70 -35 -8 0 -15 -4 -17 -8 -1 -4 -28 -23 -58 -41 -30 -19
-57 -37 -60 -40 -3 -4 -23 -15 -45 -25 -68 -30 -160 -78 -165 -86 -3 -4 -52
-14 -110 -23 -58 -9 -134 -22 -170 -28 -62 -11 -72 -10 -205 24 -229 58 -247
64 -325 103 -167 83 -219 128 -277 242 -20 39 -42 72 -49 72 -6 0 -14 9 -17
20 -3 11 -12 20 -21 20 -9 0 -16 6 -16 13 -1 16 -85 107 -100 107 -23 0 -49
-42 -61 -98 -12 -59 -8 -292 6 -324 5 -14 19 -18 54 -18 58 0 66 -6 67 -50 1
-28 11 -45 51 -85 31 -31 65 -55 89 -62 21 -6 91 -26 154 -43 63 -18 133 -40
155 -50 22 -9 52 -20 67 -24 15 -3 33 -13 42 -21 8 -8 24 -15 34 -15 20 0 232
-68 242 -77 2 -2 -18 -1 -46 2 -39 6 -53 4 -63 -9 -16 -19 -7 -46 17 -53 10
-2 26 -22 35 -44 10 -22 24 -42 31 -45 8 -3 59 3 113 15 137 28 152 28 208 2
62 -28 104 -23 151 18 31 27 42 31 95 31 l61 0 -32 -30 c-18 -17 -76 -51 -129
-77 -53 -25 -125 -65 -161 -87 -130 -83 -190 -108 -294 -128 -254 -46 -380
-60 -472 -54 -114 8 -151 20 -191 62 -25 26 -40 34 -68 34 -20 0 -52 7 -72 15
-80 34 -109 11 -106 -82 2 -35 7 -80 13 -101 32 -125 40 -152 60 -192 12 -25
54 -23 84 5 15 14 31 25 37 25 5 0 9 5 9 10 0 6 16 10 35 10 33 0 34 -1 23
-24 -15 -35 -5 -52 35 -60 44 -8 114 8 192 45 68 32 260 87 350 100 33 5 135
11 226 13 91 3 199 12 240 20 41 8 99 18 129 22 63 7 132 36 173 70 16 13 34
24 40 24 7 0 23 12 36 26 27 28 121 78 216 113 75 29 105 41 127 52 28 14 202
10 260 -5 29 -8 78 -23 108 -34 67 -24 184 -47 311 -62 76 -10 108 -9 155 1
68 15 80 14 154 -10 30 -10 78 -26 106 -35 31 -9 85 -16 135 -16 76 0 91 3
153 35 81 41 96 53 146 120 74 101 92 141 88 195 -1 28 0 50 4 50 10 0 74 100
83 130 4 13 14 30 21 38 8 7 14 20 14 28 0 8 4 14 9 14 10 0 42 71 67 150 9
30 21 59 25 65 5 5 9 22 9 37 0 15 4 28 9 28 5 0 15 32 22 71 10 57 10 89 0
158 -6 47 -16 138 -21 201 -6 63 -14 137 -20 163 -14 68 -12 188 5 319 20 153
47 301 57 313 4 5 8 23 8 40 0 16 23 75 50 130 27 55 50 106 50 113 0 6 4 12
9 12 4 0 16 21 26 48 10 26 23 54 30 62 20 24 99 181 119 235 9 28 21 59 26
70 23 57 31 90 46 200 17 126 15 215 -8 360 -16 98 -13 216 5 270 22 62 35
107 42 143 10 48 79 144 176 244 l85 87 33 -50 c18 -28 40 -53 49 -56 9 -3 26
-14 37 -23 30 -26 90 -45 198 -65 96 -18 101 -20 162 -74 280 -248 284 -251
375 -300 25 -13 72 -48 105 -76 62 -54 182 -151 201 -163 25 -17 103 -153 124
-219 7 -21 17 -44 23 -50 12 -16 53 -17 62 -3 4 6 15 0 27 -15 23 -29 58 -32
81 -7 21 23 22 76 1 93 -13 11 -44 61 -44 72 0 2 19 9 43 16 23 7 50 17 59 22
10 5 49 9 87 9 75 0 95 12 89 52 -2 13 -13 28 -26 33 -13 6 -26 21 -29 35 -13
55 -65 79 -94 44 -11 -13 -25 -15 -74 -10 -80 9 -225 47 -258 69 -14 9 -30 17
-35 17 -5 0 -16 7 -23 17 -8 9 -26 24 -42 33 l-28 17 78 6 c151 11 236 75 173
132 -19 17 -42 17 -83 0 -17 -7 -18 -4 -12 29 6 28 3 41 -10 56 -22 24 -58 26
-76 4 -11 -14 -26 -15 -94 -10 -44 4 -84 11 -89 16 -6 6 -17 10 -26 10 -9 0
-25 9 -35 20 -10 11 -23 20 -29 20 -25 0 -85 38 -116 73 -18 20 -38 37 -46 37
-8 0 -14 6 -14 14 0 8 -10 23 -22 33 -26 21 -61 69 -71 96 -10 28 18 72 71
112 44 34 50 36 96 30 27 -3 62 -13 77 -21 38 -19 63 -18 82 4 24 26 21 57 -6
79 l-24 18 24 19 c32 23 27 62 -10 90 -23 17 -46 22 -117 24 -102 4 -156 -11
-227 -65 -32 -24 -54 -33 -85 -34 -58 -2 -154 19 -168 36 -12 14 -11 69 6 251
7 76 -15 214 -43 269 -24 46 -79 112 -168 200 -102 102 -188 203 -312 367 -18
24 -49 61 -69 82 -19 21 -51 62 -70 90 -19 28 -38 56 -42 61 -4 6 -11 18 -15
28 -3 9 -11 17 -17 17 -5 0 -10 4 -10 9 0 12 -87 102 -119 123 -27 18 -63 22
-92 10z m221 -235 c0 -5 -4 -5 -10 -2 -5 3 -10 14 -10 23 0 15 2 15 10 2 5 -8
10 -19 10 -23z m50 -372 c10 -12 10 -15 -4 -15 -9 0 -16 7 -16 15 0 8 2 15 4
15 2 0 9 -7 16 -15z m-119 -238 c-1 -4 -1 -17 -1 -29 0 -27 -5 -21 -14 15 -5
20 -3 28 4 25 6 -2 11 -7 11 -11z m-1906 -1757 c-3 -5 -12 -10 -18 -10 -7 0
-19 -9 -27 -20 -8 -11 -29 -23 -47 -26 -19 -4 -33 -12 -33 -20 0 -8 -9 -14
-19 -14 -10 0 -21 -7 -25 -15 -3 -9 -18 -15 -36 -15 -23 0 -30 -4 -30 -20 0
-11 -6 -20 -14 -20 -8 0 -16 -5 -18 -11 -2 -7 -20 -8 -51 -4 -45 7 -47 9 -32
25 9 9 33 25 55 35 22 10 40 22 40 27 0 4 9 8 20 8 11 0 20 4 20 9 0 5 18 11
40 15 22 3 40 11 40 16 0 6 6 10 14 10 8 0 33 9 57 20 48 21 74 26 64 10z
m-566 -151 c-16 -6 -35 -6 -50 0 -20 8 -16 10 26 10 43 -1 46 -2 24 -10z
m-1443 -54 c37 -28 54 -35 92 -35 63 0 122 -11 122 -21 0 -5 -7 -9 -15 -9 -8
0 -15 -9 -15 -20 0 -11 4 -20 9 -20 4 0 6 -11 3 -25 -4 -22 -1 -25 28 -25 26
0 29 -2 18 -13 -25 -25 -48 -28 -48 -7 0 15 -7 20 -25 20 -14 0 -25 -5 -25
-11 0 -5 -5 -7 -12 -3 -9 6 -9 9 0 12 7 2 12 17 12 34 l0 30 -57 -7 c-31 -4
-62 -9 -68 -11 -7 -3 -15 4 -18 15 -8 31 -45 27 -53 -4 -3 -14 -10 -25 -15
-25 -5 0 -9 11 -9 25 0 18 -5 25 -20 25 -15 0 -20 -7 -20 -25 0 -21 -2 -24
-13 -13 -11 10 -9 21 12 63 14 27 29 52 34 53 4 2 7 10 7 18 0 23 27 16 76
-21z m1251 3 c-3 -8 -6 -5 -6 6 -1 11 2 17 5 13 3 -3 4 -12 1 -19z m-87 -8 c0
-12 -42 -31 -50 -23 -6 5 30 33 42 33 4 0 8 -5 8 -10z m-155 -48 c-6 -4 -15
-18 -21 -32 -10 -23 -16 -25 -85 -27 -149 -3 -258 -12 -278 -23 -16 -8 -21 -8
-21 3 0 9 31 17 108 26 59 7 137 16 173 20 37 5 77 16 90 25 13 9 28 16 34 16
7 0 7 -3 0 -8z m-471 -80 c-7 -4 -14 -16 -17 -27 -4 -15 -5 -14 -6 8 -1 20 4
27 17 27 11 0 13 -3 6 -8z m-221 -42 c3 -11 1 -20 -4 -20 -5 0 -9 9 -9 20 0
11 2 20 4 20 2 0 6 -9 9 -20z m140 -7 c-7 -2 -19 -2 -25 0 -7 3 -2 5 12 5 14
0 19 -2 13 -5z m-582 -49 c17 3 49 1 72 -4 23 -5 76 -15 117 -23 67 -11 76
-15 89 -41 12 -27 12 -33 -10 -72 l-23 -43 -41 22 c-22 12 -42 23 -45 25 -9 6
25 22 48 22 16 0 22 6 22 21 0 20 -4 21 -45 17 -34 -4 -45 -2 -45 8 0 8 -9 14
-20 14 -11 0 -20 -4 -20 -9 0 -5 -9 -7 -19 -4 -11 3 -28 -4 -40 -16 -12 -12
-28 -21 -37 -21 -8 0 -22 -7 -31 -15 -8 -9 -17 -14 -20 -11 -6 6 34 46 47 46
6 0 10 7 10 15 0 8 5 15 10 15 6 0 10 9 10 20 0 11 -6 20 -14 20 -27 0 -46
-12 -46 -30 0 -10 -10 -20 -21 -23 -20 -5 -21 -3 -16 30 3 19 12 42 19 50 12
15 13 14 16 -2 3 -13 10 -16 33 -11z m754 0 c-93 -19 -272 -32 -310 -23 -28 7
-29 7 -5 10 14 1 31 2 38 2 7 -1 66 5 130 12 64 7 140 13 167 13 l50 0 -70
-14z m-825 -94 c0 -5 -4 -10 -10 -10 -5 0 -10 5 -10 10 0 6 5 10 10 10 6 0 10
-4 10 -10z m-9 -50 c14 0 11 -20 -7 -37 -13 -14 -17 -14 -25 -2 -5 8 -4 15 1
17 6 2 11 16 11 30 1 17 3 21 6 10 2 -10 9 -18 14 -18z m619 -17 c0 -7 -9 -13
-20 -13 -11 0 -20 5 -20 10 0 6 5 10 10 10 6 0 10 8 10 18 0 14 2 15 10 2 5
-8 10 -21 10 -27z m1633 -485 c-3 -119 -2 -117 -18 -75 -13 39 -13 96 0 129
13 32 20 11 18 -54z m4 -194 c-1 -63 -3 -71 -11 -48 -5 16 -14 32 -20 37 -8 5
-8 9 0 15 6 4 15 22 19 40 3 17 8 32 10 32 2 0 3 -34 2 -76z m192 -747 c-13
-12 -59 -30 -59 -22 0 2 15 12 32 23 35 22 49 22 27 -1z m-93 -87 c8 0 14 -4
14 -10 0 -11 -24 -13 -59 -3 l-24 6 24 18 c20 15 25 16 27 4 2 -8 10 -15 18
-15z m-76 -20 c0 -5 -5 -10 -11 -10 -5 0 -7 5 -4 10 3 6 8 10 11 10 2 0 4 -4
4 -10z m-67 -59 c-4 -17 -9 -18 -35 -9 -22 8 -26 13 -16 19 7 5 23 9 35 9 16
0 20 -5 16 -19z m-2076 -41 c3 -11 9 -20 13 -20 4 0 10 -9 13 -20 6 -24 -15
-27 -37 -5 -8 8 -21 15 -29 15 -8 0 -17 -7 -21 -15 -3 -8 -12 -15 -21 -15 -8
0 -15 -4 -15 -10 0 -5 -5 -10 -10 -10 -6 0 -3 11 6 25 9 14 23 25 30 25 8 0
14 7 14 15 0 8 7 15 15 15 8 0 15 5 15 10 0 18 22 10 27 -10z m24 -110 c10 0
19 5 19 10 0 6 11 5 29 -2 31 -14 100 -88 82 -88 -6 0 -11 -7 -11 -16 0 -19
-39 -56 -54 -51 -5 2 -14 12 -20 23 -6 10 -13 21 -16 24 -4 3 -12 24 -18 48
-8 24 -19 42 -27 42 -8 0 -15 8 -14 18 0 10 3 12 6 5 2 -7 13 -13 24 -13z
m203 -109 c3 -5 -5 -11 -19 -13 -17 -4 -25 -1 -25 8 0 15 36 19 44 5z m1266
-376 c-7 -8 -19 -15 -26 -15 -8 0 -14 -4 -14 -9 0 -13 -37 -24 -51 -16 -6 4
11 17 38 30 57 28 70 30 53 10z m-1426 -464 c10 -11 34 -27 53 -36 19 -9 31
-21 27 -25 -13 -12 -64 0 -64 16 0 7 -5 16 -11 19 -16 10 -59 -4 -59 -19 0 -8
-11 -21 -25 -30 l-25 -16 18 37 c33 72 57 86 86 54z m951 -41 c3 -5 -1 -10
-10 -10 -9 0 -13 5 -10 10 3 6 8 10 10 10 2 0 7 -4 10 -10z m-745 -97 c0 -19
6 -23 33 -23 24 -1 28 -3 16 -10 -17 -10 -59 -3 -59 10 0 4 -3 23 -6 41 -4 26
-3 30 5 19 6 -8 11 -25 11 -37z"/>
</g>
</svg>
