<?xml version="1.0" standalone="no"?>
<!DOCTYPE svg PUBLIC "-//W3C//DTD SVG 20010904//EN"
 "http://www.w3.org/TR/2001/REC-SVG-20010904/DTD/svg10.dtd">
<svg version="1.0" xmlns="http://www.w3.org/2000/svg"
 width="333.000000pt" height="249.000000pt" viewBox="0 0 333.000000 249.000000"
 preserveAspectRatio="xMidYMid meet">
<metadata>
Created by potrace 1.13, written by Peter Selinger 2001-2015
</metadata>
<g transform="translate(0.000000,249.000000) scale(0.100000,-0.100000)"
fill="#000000" stroke="none">
<path d="M2360 2465 c-7 -9 -15 -38 -18 -66 -3 -36 -8 -47 -15 -40 -6 6 -19
11 -29 11 -30 0 -22 -52 17 -106 90 -125 104 -157 105 -232 0 -41 -21 -51 -64
-29 -17 8 -47 23 -66 31 l-35 16 3 73 c4 99 -21 171 -61 175 l-28 3 6 -93 6
-93 -26 30 c-39 45 -82 143 -90 205 -9 65 -19 80 -53 80 l-25 0 7 -87 c5 -74
4 -85 -7 -69 -7 10 -22 16 -33 14 -15 -3 -19 -11 -17 -43 2 -34 10 -47 50 -82
27 -23 55 -48 63 -56 42 -38 89 -105 90 -127 0 -33 56 -150 79 -166 16 -11 17
-21 8 -85 -6 -47 -6 -103 1 -158 14 -119 8 -147 -33 -161 -19 -6 -36 -16 -39
-23 -3 -8 -7 -9 -13 -1 -4 6 -33 24 -63 40 -30 16 -57 32 -60 35 -7 9 -166 48
-225 55 -69 7 -136 25 -160 41 -11 7 -30 13 -42 13 -13 0 -31 4 -41 9 -166 85
-476 144 -636 122 -43 -6 -84 -15 -90 -20 -6 -5 -30 -12 -53 -16 -35 -5 -43
-4 -43 8 0 37 -114 31 -148 -8 -50 -57 -52 -81 -16 -171 18 -47 26 -85 28
-142 1 -54 7 -87 19 -105 9 -14 25 -56 36 -94 10 -38 27 -89 38 -113 33 -74
34 -79 14 -99 -15 -15 -41 -20 -132 -25 -63 -4 -126 -12 -140 -17 -30 -12 -49
-46 -49 -92 -1 -71 -62 -261 -103 -322 -12 -16 -38 -49 -59 -72 -21 -24 -38
-51 -38 -61 0 -11 -12 -22 -34 -30 -65 -24 -165 -157 -128 -170 7 -2 12 -10
12 -18 0 -30 32 -16 111 48 8 7 31 22 50 32 64 36 109 79 139 133 16 29 30 59
30 67 0 8 30 73 67 145 50 99 75 137 99 151 31 20 74 27 74 13 -1 -38 -42
-196 -54 -209 -9 -8 -16 -18 -16 -22 0 -4 -14 -22 -30 -41 -17 -18 -30 -44
-30 -57 0 -17 -7 -24 -29 -29 -50 -11 -111 -95 -111 -154 0 -36 3 -41 24 -41
33 0 208 144 235 194 22 40 64 143 76 186 13 46 39 95 57 108 10 7 18 19 18
27 0 9 15 16 37 20 21 3 58 11 83 18 25 6 98 11 162 12 65 0 118 3 118 7 0 3
14 9 30 13 21 5 43 23 68 56 20 27 42 49 49 49 19 0 63 -22 63 -32 0 -4 11 -8
25 -8 15 0 35 -11 48 -26 l22 -26 230 -1 c224 -2 231 -3 253 -24 12 -13 22
-26 23 -30 0 -13 80 -73 103 -77 11 -3 98 -14 191 -26 199 -26 247 -36 298
-67 62 -38 92 -78 157 -206 34 -67 71 -134 81 -149 11 -14 19 -31 19 -37 0 -6
9 -11 20 -11 11 0 20 -5 20 -11 0 -15 61 -75 107 -106 39 -26 73 -30 73 -8 0
8 7 15 15 15 31 0 16 50 -30 99 -25 26 -45 54 -45 62 0 8 -17 33 -38 55 -55
62 -73 84 -80 102 -4 10 -28 49 -53 87 -26 39 -65 107 -88 151 -44 88 -50 95
-96 113 -25 9 -17 10 56 7 51 -2 97 -10 116 -19 44 -23 128 -123 166 -196 35
-70 67 -108 103 -121 13 -5 31 -24 40 -42 25 -49 43 -66 110 -104 61 -34 94
-43 94 -24 0 6 9 10 20 10 14 0 20 7 20 21 0 30 -18 59 -69 109 -71 71 -101
107 -101 122 0 17 -84 97 -124 118 -15 8 -36 29 -45 45 -9 17 -19 31 -23 33
-5 2 -8 8 -8 14 0 6 -13 30 -30 55 -16 24 -30 47 -30 52 0 12 -42 46 -73 59
-15 7 -64 12 -108 12 -48 0 -94 6 -112 14 -18 8 -48 17 -68 20 -19 4 -44 12
-54 20 -17 12 -17 15 -4 28 8 8 23 34 33 57 11 22 23 41 27 41 11 0 59 49 59
60 0 5 9 11 19 15 31 9 53 69 53 143 0 71 -10 154 -21 162 -3 3 -13 26 -22 51
l-17 46 24 -5 c16 -3 26 1 30 12 8 20 64 36 126 36 41 0 52 5 78 31 55 59 36
113 -58 160 -65 32 -112 85 -112 125 0 26 -25 49 -64 58 -25 6 -28 10 -22 37
7 37 -19 154 -42 185 -9 13 -27 24 -39 24 -27 0 -26 -2 -12 75 6 32 8 78 4
102 -5 37 -10 43 -30 43 -26 0 -40 -28 -34 -66 2 -11 0 -25 -5 -33 -14 -21
-36 43 -43 122 -5 55 -9 67 -23 67 -10 0 -23 -7 -30 -15z m-1721 -975 c-1 -23
-2 -23 -9 5 -20 73 -21 82 -6 50 9 -16 15 -41 15 -55z m58 -110 c10 0 12 -6 8
-19 -10 -32 14 -232 30 -248 8 -8 15 -24 15 -36 -1 -36 -47 60 -60 123 -6 30
-15 65 -20 78 -8 17 -6 24 5 28 19 8 20 44 1 44 -14 0 -27 44 -25 84 1 15 5
11 16 -16 9 -21 22 -38 30 -38z m1905 -129 c-7 -31 -21 -63 -33 -74 l-22 -21
7 27 c9 39 -3 77 -25 77 -15 0 -19 7 -18 33 1 17 3 24 6 15 8 -33 66 -16 63
18 -4 36 1 39 17 9 14 -25 14 -38 5 -84z m-132 -180 c0 -4 -11 -6 -25 -3 -14
2 -25 6 -25 8 0 2 11 4 25 4 14 0 25 -4 25 -9z m-53 -58 c9 -154 8 -170 -12
-179 -17 -9 -20 -6 -20 18 0 15 4 28 9 28 4 0 6 11 4 25 -3 13 0 26 6 28 7 2
6 16 -2 45 -12 40 -10 62 6 62 4 0 8 -12 9 -27z m-1317 -90 c0 -5 -5 -15 -10
-23 -8 -12 -10 -11 -10 8 0 12 5 22 10 22 6 0 10 -3 10 -7z m408 -32 c4 -23
-12 -50 -23 -39 -3 3 -10 20 -15 37 -8 30 -7 32 13 29 14 -2 23 -11 25 -27z
m167 -31 c19 -8 19 -9 -1 -9 -12 -1 -24 -8 -28 -16 -9 -24 -26 -17 -26 10 0
27 17 31 55 15z m-635 -44 c0 -3 -4 -8 -10 -11 -5 -3 -10 -1 -10 4 0 6 5 11
10 11 6 0 10 -2 10 -4z m2046 -384 c-8 -7 -69 31 -74 46 -2 8 14 1 37 -14 23
-15 39 -29 37 -32z m-2626 -126 c0 -3 -4 -8 -10 -11 -5 -3 -10 -1 -10 4 0 6 5
11 10 11 6 0 10 -2 10 -4z"/>
</g>
</svg>
