<?xml version="1.0" standalone="no"?>
<!DOCTYPE svg PUBLIC "-//W3C//DTD SVG 20010904//EN"
 "http://www.w3.org/TR/2001/REC-SVG-20010904/DTD/svg10.dtd">
<svg version="1.0" xmlns="http://www.w3.org/2000/svg"
 width="558.000000pt" height="558.000000pt" viewBox="0 0 558.000000 558.000000"
 preserveAspectRatio="xMidYMid meet">
<metadata>
Created by potrace 1.13, written by Peter Selinger 2001-2015
</metadata>
<g transform="translate(0.000000,558.000000) scale(0.100000,-0.100000)"
fill="#000000" stroke="none">
<path d="M2654 5106 c-3 -7 -4 -19 -2 -27 2 -8 -9 -15 -32 -19 -30 -4 -34 -9
-35 -35 0 -27 -3 -30 -31 -30 l-32 0 2 -120 c2 -74 8 -129 15 -144 11 -19 11
-31 0 -63 -12 -36 -11 -40 19 -82 43 -60 43 -86 -2 -86 l-34 0 2 -123 c2 -73
8 -131 15 -145 9 -18 10 -31 1 -58 -11 -32 -9 -39 20 -84 39 -61 37 -86 -7
-84 l-31 2 2 -122 c1 -77 7 -130 15 -145 11 -20 11 -31 0 -63 -10 -32 -16 -37
-33 -32 -32 10 -73 52 -133 137 -31 43 -78 97 -105 120 -28 23 -60 53 -72 66
-52 61 -66 71 -97 71 -39 0 -81 43 -105 108 -22 60 -41 80 -82 87 -62 10 -97
47 -106 111 -4 31 -17 50 -59 89 -29 28 -70 72 -91 98 -22 26 -57 62 -79 79
-37 30 -40 31 -53 13 -9 -12 -10 -23 -4 -36 10 -18 8 -19 -39 -7 -9 2 -29 -18
-49 -47 -18 -27 -45 -54 -60 -61 -32 -13 -47 -31 -55 -64 -5 -21 -12 -25 -39
-25 -32 0 -33 -2 -38 -45 -6 -52 -15 -70 -36 -70 -8 0 -14 -5 -14 -11 0 -6
-13 -9 -30 -7 -49 5 -39 -14 28 -52 68 -38 106 -71 165 -144 22 -26 61 -58 87
-71 27 -14 55 -34 64 -46 52 -75 263 -292 276 -284 4 3 14 -3 21 -12 8 -9 9
-14 3 -10 -7 4 -14 0 -17 -7 -6 -16 128 -121 176 -138 34 -12 35 -28 3 -28
-14 0 -28 -5 -31 -11 -16 -25 57 -73 164 -110 51 -18 70 -32 71 -52 0 -5 -4
-6 -9 -3 -5 3 -23 3 -40 0 -26 -5 -29 -9 -21 -25 6 -10 10 -20 10 -23 0 -15
-61 -4 -106 19 -59 30 -66 31 -89 5 -22 -25 -54 -25 -94 -3 -29 17 -31 17 -59
-4 l-30 -22 -38 30 c-42 33 -56 33 -64 -2 -8 -34 -48 -36 -116 -5 -68 31 -76
32 -99 6 -22 -24 -43 -25 -89 -4 -33 16 -35 16 -61 -4 l-27 -22 -36 30 c-37
30 -62 38 -62 20 0 -34 -16 -50 -50 -50 -14 0 -49 11 -76 25 -59 30 -66 31
-89 5 -22 -25 -54 -25 -94 -3 -29 17 -31 17 -59 -4 -20 -15 -33 -18 -45 -11
-22 12 -21 8 5 -46 l21 -44 -21 -37 c-20 -33 -21 -38 -7 -59 10 -14 18 -57 21
-107 3 -46 7 -100 10 -119 7 -45 8 -44 -19 -45 -26 0 -37 -42 -15 -56 17 -11
65 -11 86 0 16 8 123 -13 175 -34 12 -5 28 0 48 14 33 24 48 20 88 -23 27 -29
47 -25 30 5 -18 34 -4 52 34 45 77 -16 96 -17 114 -8 14 8 44 4 113 -14 l93
-24 22 20 c12 11 24 20 27 20 3 0 26 -16 49 -36 42 -35 60 -34 40 3 -5 11 -6
25 -1 33 7 11 17 11 65 0 42 -10 64 -11 85 -3 21 8 44 6 96 -7 38 -10 77 -21
87 -25 12 -5 28 0 48 14 33 24 48 20 88 -23 26 -28 47 -26 31 4 -19 35 -10 45
11 11 11 -18 19 -43 17 -55 -3 -22 -13 -23 -90 -10 l-38 6 0 -56 c0 -50 -2
-56 -22 -61 -13 -2 -32 -4 -43 -2 -16 2 -21 -5 -23 -33 -3 -39 -24 -60 -59
-60 -18 0 -27 -8 -35 -30 -6 -19 -19 -32 -34 -36 -17 -4 -27 -17 -34 -45 -12
-42 -21 -51 -59 -55 -14 -1 -28 -2 -31 -3 -4 -1 -4 -16 -2 -35 5 -41 -7 -50
-68 -51 -50 0 -51 -4 -35 -86 9 -47 -12 -56 -65 -29 -57 29 -62 27 -54 -29 5
-42 4 -50 -13 -60 -11 -5 -36 -8 -55 -4 -20 3 -38 1 -41 -4 -3 -5 3 -28 13
-51 31 -70 6 -95 -63 -63 -23 11 -45 17 -50 14 -5 -3 -6 -22 -2 -43 5 -31 2
-43 -14 -59 -17 -17 -25 -19 -51 -9 -47 16 -57 -1 -28 -51 19 -34 21 -44 11
-60 -11 -17 -9 -23 12 -39 13 -11 42 -22 64 -26 43 -7 61 -27 61 -69 0 -27 24
-51 101 -100 32 -20 66 -51 79 -73 13 -22 25 -41 26 -42 5 -8 80 82 91 110 7
17 26 35 45 43 43 18 114 92 122 128 5 21 18 33 49 46 24 10 51 30 60 45 10
14 24 26 31 26 19 0 37 25 45 62 7 32 11 36 73 63 21 10 40 26 44 37 7 24 250
271 282 288 13 6 32 32 43 58 22 51 33 62 65 62 12 0 27 7 34 16 12 13 15 11
27 -17 10 -25 11 -40 2 -66 -10 -30 -8 -38 21 -83 39 -61 37 -86 -7 -84 l-32
2 3 -122 c1 -74 7 -130 15 -145 11 -19 11 -31 0 -63 -12 -36 -11 -40 19 -82
43 -60 43 -86 -2 -86 l-34 0 2 -122 c1 -75 7 -132 15 -146 9 -18 9 -30 0 -56
-11 -32 -10 -38 20 -85 40 -62 38 -87 -6 -85 l-32 2 2 -57 2 -56 40 -12 c121
-36 122 -36 146 -19 32 22 47 20 90 -9 33 -24 42 -25 102 -19 62 6 67 9 76 37
9 24 15 28 33 22 66 -20 69 -20 63 11 -4 16 -13 47 -21 69 -9 23 -13 59 -10
85 3 25 5 49 5 53 1 5 9 6 19 3 10 -4 27 0 37 8 19 14 19 15 2 48 -10 18 -25
45 -35 60 -16 26 -16 29 1 61 15 28 16 40 7 87 -6 30 -18 71 -26 90 -9 22 -13
54 -11 85 4 47 6 50 35 53 46 5 51 34 13 87 -35 49 -38 66 -15 100 14 21 14
32 4 77 -6 29 -18 71 -26 93 -9 23 -13 59 -10 85 3 25 5 49 5 54 1 4 8 5 17 2
19 -7 54 10 54 28 0 7 -13 33 -30 57 -16 24 -29 53 -29 64 l0 20 9 -20 c12
-30 49 -60 114 -91 35 -17 71 -45 90 -68 66 -83 118 -135 151 -150 38 -18 71
-58 104 -124 16 -31 33 -48 66 -63 62 -29 135 -109 135 -149 0 -28 5 -33 63
-59 66 -30 110 -72 100 -97 -9 -25 24 -62 92 -101 58 -34 65 -41 61 -65 -5
-36 11 -46 23 -15 11 28 29 37 77 37 33 0 34 1 32 38 -2 49 2 54 69 99 31 20
64 51 74 68 10 17 32 41 49 53 16 13 30 31 30 42 0 10 7 25 15 33 13 13 13 17
-2 28 -9 8 -40 48 -69 89 -68 98 -102 128 -138 123 -37 -5 -65 21 -72 68 -8
45 -49 88 -88 91 -31 3 -49 24 -90 105 -19 39 -33 54 -54 59 -15 3 -35 8 -45
11 -24 6 -87 91 -87 118 0 28 -33 71 -70 90 -15 8 -35 31 -45 51 -27 57 -105
130 -146 138 -20 3 -48 19 -64 36 l-29 30 33 -11 c28 -10 35 -9 55 10 12 11
25 21 28 21 3 0 26 -16 49 -36 42 -35 60 -34 40 3 -5 11 -6 25 -1 33 7 11 17
11 65 0 42 -10 64 -11 85 -3 21 8 44 6 96 -7 38 -10 77 -21 87 -25 12 -5 28 0
48 14 33 24 48 20 88 -23 27 -29 47 -25 30 5 -18 34 -4 52 34 45 77 -16 96
-17 114 -8 14 8 44 4 113 -14 l93 -24 22 20 c12 11 24 20 27 20 3 0 26 -16 49
-36 42 -35 60 -34 40 3 -5 11 -6 25 -1 33 7 11 17 11 65 0 44 -10 64 -11 87
-2 20 7 38 8 54 1 49 -18 57 -11 30 24 -33 43 -34 67 -2 67 57 0 71 27 40 76
-15 21 -15 30 -4 64 11 35 11 41 -9 68 -28 40 -27 73 4 102 14 13 25 29 25 36
0 18 -49 74 -65 74 -7 0 -27 8 -44 17 -29 17 -31 17 -59 -4 l-30 -22 -38 30
c-42 33 -56 33 -64 -2 -8 -34 -48 -36 -116 -5 -68 31 -76 32 -99 6 -22 -24
-43 -25 -89 -4 -33 16 -35 16 -61 -4 l-27 -22 -36 30 c-46 38 -57 38 -71 0
-13 -38 -48 -40 -117 -5 -59 30 -59 30 -91 5 -31 -25 -52 -25 -92 -3 -29 17
-31 17 -59 -4 l-30 -22 -38 30 c-42 33 -56 33 -64 -2 -7 -30 -44 -36 -95 -15
l-37 16 22 30 c11 16 30 36 40 43 11 7 28 34 39 59 15 36 26 48 48 52 46 11
98 59 112 106 10 33 19 45 49 57 47 19 127 100 136 136 5 21 19 33 61 52 30
13 56 29 56 34 1 6 2 15 3 20 2 15 100 121 112 121 15 0 50 41 58 67 4 12 16
25 26 28 11 3 31 20 46 38 15 18 36 34 48 37 12 3 30 24 43 50 25 48 59 83 74
74 5 -3 9 0 9 7 0 26 -52 78 -119 118 -47 27 -97 71 -153 131 -81 88 -133 125
-163 114 -9 -4 -15 -24 -17 -57 l-3 -52 -39 2 c-44 3 -58 -10 -49 -45 7 -30
-11 -50 -53 -58 -20 -4 -36 -13 -39 -25 -4 -10 -19 -28 -34 -39 -18 -12 -31
-33 -35 -55 -7 -36 -38 -54 -70 -42 -23 9 -34 -13 -29 -53 l5 -39 -53 -3 c-53
-3 -54 -4 -52 -33 1 -16 5 -43 9 -59 10 -40 -12 -50 -54 -26 -18 11 -42 20
-54 20 -18 0 -20 -4 -13 -46 9 -62 -5 -77 -61 -68 -52 8 -64 -8 -40 -55 34
-66 11 -89 -55 -55 -47 24 -63 12 -55 -40 9 -56 -6 -70 -68 -61 -55 9 -59 -3
-24 -64 18 -32 20 -42 9 -54 -17 -22 -43 -10 -35 15 4 13 -4 34 -25 63 -35 49
-38 66 -15 100 14 21 14 32 4 77 -6 29 -18 71 -26 93 -9 23 -13 59 -10 85 3
25 5 49 5 53 1 5 9 6 19 3 10 -4 27 0 37 8 19 14 19 15 2 48 -10 18 -25 45
-35 60 -16 26 -16 29 1 61 15 28 16 40 7 87 -6 30 -18 71 -26 90 -9 22 -13 54
-11 85 4 47 6 50 35 53 46 5 51 34 13 87 -35 49 -38 66 -15 100 14 21 14 32 4
77 -6 29 -18 70 -26 91 -8 20 -14 47 -14 60 0 21 -8 28 -78 70 l-32 19 -30
-32 c-24 -26 -32 -29 -49 -21 -32 18 -157 61 -175 61 -9 0 -19 -6 -22 -14z
m470 -2787 c-2 -4 -15 -6 -29 -6 -13 0 -22 3 -19 8 3 5 16 8 29 7 13 -1 22 -5
19 -9z"/>
</g>
</svg>
