<?xml version="1.0" standalone="no"?>
<!DOCTYPE svg PUBLIC "-//W3C//DTD SVG 20010904//EN"
 "http://www.w3.org/TR/2001/REC-SVG-20010904/DTD/svg10.dtd">
<svg version="1.0" xmlns="http://www.w3.org/2000/svg"
 width="512.000000pt" height="512.000000pt" viewBox="0 0 512.000000 512.000000"
 preserveAspectRatio="xMidYMid meet">
<metadata>
Created by potrace 1.13, written by Peter Selinger 2001-2015
</metadata>
<g transform="translate(0.000000,512.000000) scale(0.100000,-0.100000)"
fill="#000000" stroke="none">
<path d="M1761 4881 c-36 -245 -30 -585 14 -846 23 -138 91 -396 120 -459 8
-17 24 -58 36 -91 12 -33 25 -64 30 -70 13 -14 11 -35 -4 -35 -8 0 -72 47
-142 105 -71 58 -133 105 -138 105 -5 0 -26 13 -46 29 -20 15 -49 36 -66 45
-16 10 -48 28 -70 41 -77 45 -345 175 -361 175 -3 0 -20 7 -37 15 -39 18 -228
77 -317 99 -85 21 -254 55 -257 52 -4 -4 63 -132 85 -164 10 -15 21 -34 24
-42 3 -8 38 -59 77 -113 39 -54 71 -102 71 -107 0 -5 6 -13 13 -17 6 -4 46
-51 88 -103 159 -198 402 -415 588 -525 9 -5 30 -19 46 -30 17 -11 39 -25 50
-31 11 -6 22 -19 24 -29 3 -16 -3 -17 -57 -11 -106 12 -423 7 -542 -9 -259
-34 -554 -112 -735 -195 -36 -16 -68 -30 -70 -30 -14 0 -135 -63 -135 -70 0
-7 121 -70 135 -70 2 0 34 -14 70 -30 181 -83 476 -161 735 -195 119 -16 436
-21 542 -9 54 6 60 5 57 -11 -2 -10 -13 -23 -24 -29 -11 -6 -33 -20 -50 -31
-16 -11 -37 -24 -46 -30 -186 -110 -429 -327 -588 -525 -42 -52 -82 -99 -88
-103 -7 -4 -13 -12 -13 -17 0 -5 -32 -53 -71 -107 -39 -54 -74 -105 -77 -113
-3 -8 -14 -27 -24 -42 -22 -32 -89 -160 -85 -164 3 -3 172 31 257 52 89 22
278 81 317 99 17 8 34 15 37 15 16 0 284 130 361 175 22 13 54 31 70 41 17 9
46 30 66 45 20 16 41 29 46 29 5 0 67 47 138 105 70 58 134 105 142 105 15 0
17 -21 4 -36 -5 -5 -18 -36 -30 -69 -12 -33 -28 -74 -36 -91 -29 -63 -97 -321
-120 -459 -44 -261 -50 -601 -14 -846 l11 -79 57 59 c120 125 311 363 311 387
0 4 15 27 33 53 18 25 38 57 45 71 7 14 24 43 37 65 45 76 135 268 155 330 7
22 16 45 20 50 11 16 56 160 81 260 12 50 24 96 26 103 8 19 33 14 33 -6 0
-42 81 -331 100 -357 4 -5 13 -28 20 -50 20 -62 110 -254 155 -330 13 -22 30
-51 37 -65 7 -14 27 -46 45 -71 18 -26 33 -49 33 -53 0 -24 191 -262 311 -387
l57 -59 11 79 c36 245 30 585 -14 846 -23 138 -91 396 -120 459 -8 17 -24 58
-36 91 -12 33 -25 64 -30 69 -13 15 -11 36 4 36 8 0 72 -47 142 -105 71 -58
133 -105 138 -105 5 0 26 -13 46 -29 20 -15 50 -36 66 -45 17 -10 48 -28 70
-41 77 -45 345 -175 361 -175 3 0 20 -7 37 -15 39 -18 228 -77 317 -99 85 -21
254 -55 257 -52 4 4 -63 132 -85 164 -10 15 -21 34 -24 42 -3 8 -38 59 -77
113 -39 54 -71 102 -71 107 0 5 -6 13 -13 17 -6 4 -46 51 -88 103 -159 198
-402 415 -588 525 -9 6 -30 19 -46 30 -17 11 -39 25 -50 31 -11 6 -22 19 -24
29 -3 16 3 17 57 11 106 -12 423 -7 542 9 259 34 554 112 735 195 36 16 68 30
70 30 14 0 135 63 135 70 0 7 -121 70 -135 70 -2 0 -34 14 -70 30 -181 83
-476 161 -735 195 -119 16 -436 21 -542 9 -54 -6 -60 -5 -57 11 2 10 13 23 24
29 11 6 33 20 50 31 16 11 37 25 46 30 186 110 429 327 588 525 42 52 82 99
88 103 7 4 13 12 13 17 0 5 32 53 71 107 39 54 74 105 77 113 3 8 14 27 24 42
22 32 89 160 85 164 -3 3 -172 -31 -257 -52 -89 -22 -278 -81 -317 -99 -17 -8
-34 -15 -37 -15 -16 0 -284 -130 -361 -175 -22 -13 -53 -31 -70 -41 -16 -9
-46 -30 -66 -45 -20 -16 -41 -29 -46 -29 -5 0 -67 -47 -138 -105 -70 -58 -134
-105 -142 -105 -15 0 -17 21 -4 36 5 5 18 36 30 69 12 33 28 74 36 91 29 63
97 321 120 459 44 261 50 601 14 846 l-11 79 -57 -59 c-120 -125 -311 -363
-311 -387 0 -4 -15 -27 -33 -53 -18 -25 -38 -57 -45 -71 -7 -14 -24 -43 -37
-65 -45 -76 -135 -268 -155 -330 -7 -22 -16 -44 -20 -50 -11 -16 -56 -160 -81
-260 -12 -49 -24 -96 -26 -102 -8 -20 -33 -15 -33 5 0 42 -81 331 -100 357 -4
6 -13 28 -20 50 -20 62 -110 254 -155 330 -13 22 -30 51 -37 65 -7 14 -27 46
-45 71 -18 26 -33 49 -33 53 0 24 -191 262 -311 387 l-57 59 -11 -79z"/>
</g>
</svg>
