<?xml version="1.0" standalone="no"?>
<!DOCTYPE svg PUBLIC "-//W3C//DTD SVG 20010904//EN"
 "http://www.w3.org/TR/2001/REC-SVG-20010904/DTD/svg10.dtd">
<svg version="1.0" xmlns="http://www.w3.org/2000/svg"
 width="558.000000pt" height="558.000000pt" viewBox="0 0 558.000000 558.000000"
 preserveAspectRatio="xMidYMid meet">
<metadata>
Created by potrace 1.13, written by Peter Selinger 2001-2015
</metadata>
<g transform="translate(0.000000,558.000000) scale(0.100000,-0.100000)"
fill="#000000" stroke="none">
<path d="M4525 4712 c-22 -8 -113 -44 -202 -79 -89 -34 -166 -63 -172 -63 -6
0 -11 -5 -11 -12 0 -6 -2 -9 -5 -6 -3 3 -56 -14 -117 -38 -61 -24 -117 -44
-125 -44 -8 0 -11 -5 -7 -12 4 -6 3 -8 -4 -4 -9 5 -63 -10 -142 -41 -21 -9
-28 -10 -46 -12 -9 0 -12 -6 -8 -13 4 -7 3 -8 -5 -4 -10 7 -178 -49 -191 -63
-3 -4 -12 -7 -20 -9 -8 -2 -34 -12 -58 -22 -23 -11 -43 -18 -45 -17 -1 1 -13
-6 -25 -15 -23 -15 -27 -14 -95 21 -87 45 -247 114 -264 114 -7 0 -13 3 -13 7
0 6 -24 11 -67 14 -13 0 -23 4 -23 7 0 8 -83 3 -118 -7 -15 -4 -40 -8 -57 -9
-53 -4 -119 -16 -137 -26 -10 -5 -18 -7 -18 -3 0 3 -7 1 -15 -6 -8 -7 -15 -9
-15 -6 0 10 -133 -61 -157 -83 -10 -10 -28 -17 -38 -15 -11 1 -56 4 -100 7
-81 6 -178 32 -425 113 -74 24 -157 51 -185 60 -27 9 -59 20 -70 24 -33 15
-222 80 -230 80 -4 0 -21 6 -38 14 -52 24 -451 156 -470 156 -21 0 -21 2 -1
-74 9 -33 18 -68 19 -76 2 -8 4 -15 5 -15 1 0 3 -7 5 -15 2 -8 18 -64 35 -125
17 -60 36 -126 41 -145 16 -57 16 -60 53 -190 20 -69 40 -138 45 -155 17 -53
89 -358 100 -420 6 -33 14 -71 16 -85 3 -14 8 -55 12 -91 8 -95 -14 -160 -86
-256 -73 -98 -82 -114 -88 -172 -8 -75 11 -122 97 -236 43 -58 84 -122 90
-141 14 -41 9 -97 -20 -244 -12 -58 -23 -115 -26 -128 -5 -26 -10 -52 -23
-107 -5 -22 -14 -62 -20 -90 -8 -39 -41 -169 -65 -260 -2 -5 -6 -17 -9 -25 -4
-8 -8 -24 -10 -35 -2 -11 -7 -27 -10 -35 -18 -49 -28 -93 -23 -106 3 -9 1 -12
-4 -9 -6 3 -10 0 -11 -7 -1 -21 -7 -44 -50 -188 -70 -236 -101 -352 -95 -357
3 -3 27 0 53 8 26 7 50 14 53 15 3 0 12 3 20 7 19 7 87 28 103 31 7 2 19 6 27
9 8 3 74 25 145 47 72 23 222 73 335 110 179 59 232 76 275 85 6 2 35 10 65
19 30 8 66 18 80 20 14 3 79 16 145 30 66 14 136 27 155 31 104 18 99 19 148
-20 99 -77 225 -119 344 -114 66 3 158 26 170 44 4 5 8 6 8 2 0 -5 14 1 30 13
17 12 30 19 30 16 0 -6 17 7 73 57 27 24 38 28 72 23 49 -6 151 -24 185 -31
14 -4 35 -8 48 -11 12 -2 32 -6 45 -9 12 -2 67 -16 122 -30 55 -15 107 -28
115 -30 35 -7 242 -69 324 -97 49 -17 94 -31 100 -33 6 -1 18 -5 26 -8 19 -7
164 -60 344 -126 76 -28 142 -48 147 -46 4 3 -1 27 -11 53 -10 26 -46 121 -80
212 -34 91 -66 174 -70 185 -19 47 -62 168 -96 275 -20 63 -39 122 -42 130 -3
8 -6 21 -8 28 -10 50 -64 207 -105 304 -78 187 -76 293 10 524 23 60 45 132
50 159 9 47 6 249 -4 265 -3 4 -7 25 -11 46 -3 22 -17 68 -30 103 -34 90 -30
218 9 356 2 6 7 26 11 45 17 75 118 367 211 610 138 362 177 472 168 480 -4 4
-26 0 -48 -8z"/>
</g>
</svg>
