<?xml version="1.0" standalone="no"?>
<!DOCTYPE svg PUBLIC "-//W3C//DTD SVG 20010904//EN"
 "http://www.w3.org/TR/2001/REC-SVG-20010904/DTD/svg10.dtd">
<svg version="1.0" xmlns="http://www.w3.org/2000/svg"
 width="558.000000pt" height="558.000000pt" viewBox="0 0 558.000000 558.000000"
 preserveAspectRatio="xMidYMid meet">
<metadata>
Created by potrace 1.13, written by Peter Selinger 2001-2015
</metadata>
<g transform="translate(0.000000,558.000000) scale(0.100000,-0.100000)"
fill="#000000" stroke="none">
<path d="M2640 4789 c-162 -12 -266 -31 -401 -70 -77 -22 -60 17 -149 -339
-70 -277 -105 -437 -114 -525 -4 -33 -9 -67 -11 -75 -2 -8 -11 -71 -20 -139
-9 -69 -18 -138 -20 -155 -5 -37 -12 -99 -20 -181 -4 -33 -8 -71 -10 -85 -6
-36 -42 -322 -52 -405 -4 -38 -8 -279 -8 -535 l0 -465 745 4 c410 2 754 6 765
8 11 3 63 8 115 10 54 3 98 10 102 16 6 11 12 52 23 182 2 28 7 259 10 515 3
256 8 483 11 505 3 22 23 92 44 156 22 64 42 134 45 155 l6 39 -73 38 c-40 20
-91 40 -113 43 -22 3 -45 7 -52 9 -6 2 -38 7 -70 10 -32 4 -69 9 -83 12 -14 3
-160 8 -324 10 -292 5 -417 -3 -469 -29 -43 -22 -50 -56 -62 -303 -8 -160 -5
-559 5 -599 5 -24 23 -54 47 -77 l38 -38 196 -7 c223 -8 253 -4 292 31 25 24
27 31 27 108 0 46 -7 109 -15 140 -18 70 -19 139 -3 155 32 32 73 -1 77 -62 2
-22 8 -51 13 -65 15 -35 21 -277 8 -302 -6 -10 -39 -37 -73 -59 l-62 -41 -215
6 c-118 3 -230 7 -249 10 -41 5 -96 47 -133 101 -46 67 -52 131 -44 508 8 444
11 472 60 528 67 76 167 91 556 85 168 -3 323 -8 345 -12 248 -39 279 -46 326
-75 27 -16 59 -32 71 -35 77 -20 88 -81 40 -233 -6 -18 -12 -36 -13 -40 -1 -4
-8 -20 -15 -37 -38 -91 -42 -143 -48 -625 -4 -261 -9 -493 -11 -515 -26 -292
-21 -285 -192 -296 -65 -4 -127 -10 -138 -12 -12 -3 -361 -7 -776 -8 -702 -3
-758 -2 -782 14 -14 9 -31 26 -37 37 -7 14 -10 166 -9 478 1 412 5 503 23 637
3 22 8 63 11 90 6 57 24 197 30 235 2 14 6 52 10 85 12 124 22 202 35 290 5
33 12 85 15 115 3 30 8 62 10 70 2 8 7 40 10 70 11 96 44 256 84 408 58 219
93 369 89 386 -2 12 -31 1 -129 -47 -521 -259 -889 -707 -1050 -1277 -69 -244
-91 -577 -54 -809 3 -13 7 -45 11 -70 21 -151 93 -370 183 -556 126 -260 313
-493 551 -688 242 -198 626 -365 925 -402 28 -3 77 -10 110 -14 89 -13 335 -6
460 13 449 69 826 268 1152 609 358 374 558 907 540 1442 -3 88 -7 169 -10
181 -3 12 -8 45 -12 75 -9 80 -52 249 -92 363 -170 494 -544 912 -1019 1141
-297 144 -655 211 -984 184z"/>
</g>
</svg>
