<?xml version="1.0" standalone="no"?>
<!DOCTYPE svg PUBLIC "-//W3C//DTD SVG 20010904//EN"
 "http://www.w3.org/TR/2001/REC-SVG-20010904/DTD/svg10.dtd">
<svg version="1.0" xmlns="http://www.w3.org/2000/svg"
 width="558.000000pt" height="558.000000pt" viewBox="0 0 558.000000 558.000000"
 preserveAspectRatio="xMidYMid meet">
<metadata>
Created by potrace 1.13, written by Peter Selinger 2001-2015
</metadata>
<g transform="translate(0.000000,558.000000) scale(0.100000,-0.100000)"
fill="#000000" stroke="none">
<path d="M2863 4994 c5 -5 -8 -14 -30 -20 -36 -10 -38 -13 -39 -52 0 -25 -8
-50 -19 -61 -14 -17 -16 -30 -11 -75 l7 -55 -33 -3 c-35 -3 -36 -6 -23 -63 5
-23 2 -37 -13 -55 -18 -22 -23 -23 -56 -13 -20 6 -38 7 -41 3 -3 -4 11 -27 30
-50 19 -23 35 -49 35 -57 0 -9 -13 -31 -30 -50 -16 -18 -31 -39 -31 -46 -1 -7
-2 -26 -4 -43 -1 -17 -12 -44 -24 -60 -13 -18 -20 -40 -18 -54 3 -14 -4 -37
-14 -52 -24 -33 -24 -38 3 -93 12 -24 19 -48 15 -52 -4 -4 -22 -1 -40 6 -64
26 -69 20 -52 -65 8 -35 -8 -53 -55 -63 l-31 -6 26 -34 c29 -40 31 -58 11 -87
-14 -20 -11 -57 10 -125 3 -11 -3 -19 -19 -23 -31 -7 -66 -73 -71 -131 -2 -33
-9 -53 -23 -64 -12 -9 -26 -27 -33 -41 -7 -13 -23 -33 -36 -42 -24 -19 -40
-58 -50 -123 -3 -22 -10 -45 -15 -51 -9 -11 -52 -20 -120 -27 -22 -2 -25 -5
-19 -27 8 -29 -20 -57 -63 -62 -37 -5 -41 -12 -25 -53 13 -37 12 -38 -21 -66
-33 -28 -34 -30 -23 -66 10 -33 10 -40 -5 -50 -9 -7 -34 -12 -55 -11 -49 2
-55 -5 -40 -45 22 -62 15 -86 -33 -113 -23 -12 -61 -83 -71 -132 -4 -21 -25
-52 -55 -82 -32 -32 -49 -58 -49 -74 0 -13 -11 -38 -25 -54 -13 -16 -27 -44
-30 -62 -3 -18 -17 -46 -30 -62 -14 -17 -23 -34 -19 -39 3 -5 7 -19 9 -30 4
-20 3 -20 -14 -5 -39 35 -80 -20 -60 -81 16 -50 7 -63 -45 -63 -25 0 -48 -5
-52 -11 -3 -6 4 -33 17 -60 21 -46 21 -51 7 -66 -15 -14 -20 -14 -56 0 -22 9
-42 13 -45 10 -3 -3 -4 -26 -1 -52 5 -54 -12 -83 -50 -83 -21 0 -23 -3 -13
-19 6 -10 14 -16 18 -14 15 10 -1 -49 -25 -89 -23 -39 -30 -44 -55 -41 -36 5
-47 -19 -55 -119 -7 -84 -23 -111 -77 -127 -58 -18 -70 -39 -54 -93 l13 -43
-43 -37 c-36 -30 -43 -41 -39 -63 3 -15 7 -30 10 -35 3 -5 1 -15 -6 -23 -23
-28 46 -46 93 -24 19 9 31 7 62 -10 34 -18 41 -19 66 -6 16 9 56 15 94 15 40
0 78 6 96 15 27 14 33 14 80 -6 44 -19 55 -20 87 -10 32 10 42 9 76 -8 36 -19
42 -19 63 -6 14 10 47 15 93 15 47 0 79 5 95 16 22 14 27 14 71 -5 53 -24 73
-26 107 -10 19 9 31 7 62 -10 34 -18 41 -19 66 -6 16 9 56 15 94 15 39 0 78 6
95 15 26 14 30 13 38 -1 5 -9 7 -24 5 -33 -6 -22 28 -51 90 -77 46 -20 53 -20
63 -7 9 14 17 12 60 -13 27 -16 50 -28 52 -26 7 7 21 -1 57 -33 41 -36 73 -45
79 -23 3 7 7 25 10 41 4 15 10 27 15 27 5 0 31 -16 57 -36 51 -39 70 -46 95
-33 36 19 219 28 271 14 25 -7 27 -5 30 30 4 56 27 65 82 36 24 -13 51 -21 60
-18 18 7 22 47 5 64 -6 6 -9 19 -7 29 3 15 11 18 47 15 33 -2 48 2 65 18 l22
21 39 -20 c35 -18 41 -18 62 -5 14 10 47 15 93 15 47 0 79 5 95 16 22 14 27
14 71 -5 53 -24 73 -26 107 -10 19 9 31 7 62 -10 34 -18 41 -19 66 -6 16 9 56
15 94 15 40 0 78 6 96 15 27 14 33 14 80 -6 44 -19 55 -20 87 -10 32 10 42 9
76 -8 36 -19 42 -19 63 -6 14 10 47 15 93 15 47 0 79 5 94 15 21 14 28 14 65
-1 23 -9 44 -15 46 -12 2 2 -16 26 -41 52 l-45 49 3 91 c3 86 2 91 -21 102
-39 20 -56 5 -70 -63 -3 -12 -22 26 -27 51 -2 13 -15 48 -29 77 -14 30 -27 83
-31 123 -6 63 -11 74 -47 114 -23 24 -52 50 -66 57 -46 25 -52 32 -66 71 -10
30 -10 42 -2 53 9 11 9 13 1 8 -7 -4 -14 2 -18 16 -3 13 -29 49 -58 81 -61 68
-69 83 -56 112 8 16 3 34 -23 80 -43 78 -53 88 -115 124 -82 46 -90 74 -25 82
41 5 36 27 -17 76 -27 26 -56 61 -65 77 -8 17 -33 51 -56 77 -35 39 -41 53
-41 90 0 52 -16 77 -77 119 -35 25 -52 46 -75 98 -32 71 -74 163 -91 198 -5
12 -24 27 -41 33 -62 22 -118 100 -61 86 14 -3 36 -9 50 -12 21 -5 25 -3 25
15 0 29 -59 89 -93 95 -15 3 -43 17 -61 33 -18 15 -45 37 -60 47 -14 10 -26
26 -26 36 0 45 -23 83 -64 101 -39 17 -41 21 -53 81 -6 35 -12 82 -12 106 -1
60 -21 100 -76 154 -44 44 -47 50 -42 85 4 26 1 48 -9 68 -8 16 -20 65 -25
109 -6 43 -16 91 -24 105 -18 35 -64 77 -99 91 -21 8 -26 14 -21 28 17 40 16
61 -4 81 -23 23 -27 46 -11 56 19 12 10 43 -25 85 -35 42 -43 60 -26 60 18 0
19 46 2 84 -10 23 -37 59 -60 81 -46 44 -52 65 -17 65 13 0 29 7 37 16 11 13
9 22 -11 59 -13 25 -24 61 -24 86 -1 28 -6 44 -16 47 -8 3 -11 1 -7 -4z"/>
</g>
</svg>
