<?xml version="1.0" standalone="no"?>
<!DOCTYPE svg PUBLIC "-//W3C//DTD SVG 20010904//EN"
 "http://www.w3.org/TR/2001/REC-SVG-20010904/DTD/svg10.dtd">
<svg version="1.0" xmlns="http://www.w3.org/2000/svg"
 width="558.000000pt" height="558.000000pt" viewBox="0 0 558.000000 558.000000"
 preserveAspectRatio="xMidYMid meet">
<metadata>
Created by potrace 1.13, written by Peter Selinger 2001-2015
</metadata>
<g transform="translate(0.000000,558.000000) scale(0.100000,-0.100000)"
fill="#000000" stroke="none">
<path d="M2850 4563 c0 -7 9 -27 20 -45 18 -31 18 -36 4 -56 -8 -12 -21 -22
-29 -22 -22 0 -25 -14 -10 -43 13 -25 12 -28 -11 -43 -29 -19 -30 -41 -5 -112
24 -69 17 -100 -24 -118 -41 -17 -54 -33 -47 -64 8 -42 -1 -139 -18 -184 -5
-15 -10 -40 -10 -56 0 -20 -6 -31 -20 -35 -28 -9 -34 -43 -16 -87 25 -58 14
-71 -50 -63 -48 6 -54 4 -54 -12 0 -10 11 -36 25 -58 31 -50 31 -69 2 -92 -28
-22 -44 -50 -51 -87 -3 -16 -12 -39 -21 -52 -8 -13 -15 -41 -15 -63 0 -41 -16
-65 -50 -76 -11 -3 -19 -9 -18 -13 1 -4 -6 -29 -17 -56 -15 -39 -17 -55 -8
-87 12 -45 0 -62 -38 -55 -28 4 -59 -10 -59 -27 0 -7 10 -31 22 -54 21 -40 22
-44 6 -59 -15 -16 -19 -16 -57 0 -45 18 -44 19 -41 -51 2 -50 -29 -88 -63 -79
-21 5 -21 5 -3 -9 28 -21 24 -67 -9 -110 -24 -32 -32 -36 -57 -31 -34 7 -43
-10 -53 -96 -13 -106 -29 -135 -82 -144 -15 -3 -39 -13 -53 -23 -21 -15 -25
-26 -25 -69 0 -42 -5 -56 -29 -81 -31 -32 -59 -45 -108 -50 -5 -1 -8 -15 -8
-33 0 -46 -65 -152 -105 -171 -23 -11 -34 -24 -38 -46 -5 -25 -13 -33 -37 -38
-30 -6 -53 -32 -48 -56 5 -27 -14 -55 -45 -67 -53 -19 -60 -25 -64 -51 -4 -24
-46 -72 -56 -63 -3 3 -8 -5 -12 -17 -9 -26 -79 -95 -118 -115 -15 -8 -27 -20
-28 -27 0 -6 -1 -28 -2 -47 -2 -34 -3 -35 -47 -38 -52 -3 -70 -21 -70 -68 0
-36 -13 -44 -51 -33 -35 9 -49 -5 -40 -40 12 -40 3 -51 -40 -51 -50 0 -71 -29
-62 -84 4 -24 9 -33 14 -25 4 7 5 25 2 39 -7 36 21 64 56 55 14 -3 41 -9 59
-12 30 -5 33 -3 38 26 4 17 9 31 13 32 31 4 45 11 62 33 21 26 53 34 64 16 9
-15 45 -12 45 4 0 7 9 25 21 40 20 25 22 25 55 11 32 -13 36 -13 55 6 11 11
22 33 26 50 7 38 13 41 47 23 51 -26 95 -16 148 34 26 24 28 24 52 8 35 -22
42 -20 56 14 15 37 34 43 145 44 l90 1 1 28 c1 36 6 40 38 27 45 -17 74 -12
92 15 9 13 13 33 9 44 -10 34 10 32 45 -4 39 -40 77 -45 138 -18 20 9 69 19
107 23 61 7 75 5 106 -13 52 -30 70 -19 62 38 -5 42 -4 45 16 45 12 0 43 -16
68 -35 53 -40 52 -40 99 -20 39 16 57 17 151 11 42 -2 71 -10 91 -25 51 -36
76 -27 60 21 -8 24 -7 33 5 46 15 14 20 13 58 -14 76 -53 99 -63 125 -53 61
22 204 3 263 -37 55 -36 77 -26 73 35 -2 27 1 41 8 41 13 0 80 -69 80 -81 0
-11 132 -59 164 -59 15 0 57 -16 93 -36 66 -37 116 -46 175 -29 21 6 32 2 52
-18 43 -43 69 -57 106 -57 23 0 49 -9 69 -24 35 -26 69 -26 87 -1 10 14 18 11
57 -19 60 -46 123 -78 150 -76 40 4 48 0 95 -43 26 -24 67 -57 92 -74 25 -17
54 -40 64 -52 11 -11 23 -21 27 -21 8 0 -52 57 -152 146 -18 17 -58 57 -88 90
-30 32 -52 51 -48 42 8 -23 -22 -40 -46 -27 -9 5 -31 30 -48 55 -19 28 -58 63
-99 89 -68 43 -97 76 -85 95 16 26 -61 96 -103 92 -37 -3 -60 15 -81 64 -11
25 -38 65 -59 89 -21 24 -44 62 -51 84 -11 37 -20 46 -43 42 -5 0 -8 4 -8 10
0 5 -4 8 -9 5 -11 -7 -34 19 -56 64 -10 19 -47 64 -84 100 -81 81 -139 160
-162 222 -20 55 -53 98 -92 121 -15 9 -27 20 -26 24 3 19 -3 32 -27 59 -39 44
-64 87 -64 111 0 11 -18 56 -40 100 -22 43 -43 95 -47 116 -3 23 -23 60 -49
94 -44 56 -52 80 -35 98 6 6 -1 35 -17 74 -22 53 -36 71 -82 104 -30 22 -58
45 -62 51 -12 18 -3 31 23 33 13 0 30 1 37 2 21 2 14 27 -20 73 -74 98 -129
188 -126 204 2 9 21 22 42 29 21 8 43 20 48 27 13 19 2 86 -16 107 -16 18 -64
45 -98 55 -16 5 -16 8 -3 40 14 33 14 36 -12 66 -26 31 -26 32 -9 62 l18 29
-46 43 c-25 23 -46 47 -46 53 0 6 13 13 29 16 26 5 29 10 26 34 -6 49 -22 77
-69 124 -51 52 -58 70 -24 64 60 -12 78 25 40 81 -22 33 -24 41 -13 70 11 29
9 37 -19 80 -16 26 -30 43 -30 37z"/>
</g>
</svg>
