<?xml version="1.0" standalone="no"?>
<!DOCTYPE svg PUBLIC "-//W3C//DTD SVG 20010904//EN"
 "http://www.w3.org/TR/2001/REC-SVG-20010904/DTD/svg10.dtd">
<svg version="1.0" xmlns="http://www.w3.org/2000/svg"
 width="558.000000pt" height="558.000000pt" viewBox="0 0 558.000000 558.000000"
 preserveAspectRatio="xMidYMid meet">
<metadata>
Created by potrace 1.13, written by Peter Selinger 2001-2015
</metadata>
<g transform="translate(0.000000,558.000000) scale(0.100000,-0.100000)"
fill="#000000" stroke="none">
<path d="M2555 4600 c-4 -6 -4 -29 0 -50 9 -54 -10 -60 -71 -24 -31 18 -46 23
-42 14 30 -82 32 -89 19 -104 -8 -9 -24 -16 -37 -16 -30 0 -31 -21 -3 -46 44
-39 64 -129 34 -154 -21 -18 -21 -170 1 -212 22 -42 12 -74 -26 -81 -38 -8
-38 -18 2 -62 38 -44 51 -122 24 -144 -22 -19 -22 -150 1 -213 19 -54 9 -78
-33 -78 -30 0 -31 -21 -3 -46 44 -39 64 -129 34 -154 -8 -7 -15 -23 -15 -35 0
-28 -60 -69 -87 -61 -10 3 -39 8 -66 11 -26 2 -57 10 -69 16 -11 6 -54 13 -95
15 l-75 4 7 -40 c9 -51 -10 -53 -67 -8 -38 29 -42 31 -72 19 -17 -8 -38 -13
-46 -13 -49 0 -120 12 -150 25 -20 8 -64 14 -100 13 -68 -1 -68 -1 -59 -51 6
-31 -26 -29 -64 4 -39 35 -57 38 -92 15 -13 -9 -32 -13 -42 -10 -10 3 -38 8
-63 10 -25 3 -62 12 -83 21 -44 18 -83 11 -90 -17 -5 -16 -11 -19 -30 -14 -23
5 -25 2 -34 -45 -9 -43 -7 -61 12 -122 13 -39 27 -72 31 -73 5 -1 28 -7 51
-14 36 -11 45 -11 67 4 34 21 38 21 92 -14 45 -28 48 -29 82 -15 19 8 42 15
52 15 9 0 22 12 29 26 13 29 9 29 135 -5 77 -21 81 -21 112 -5 31 17 33 17 61
-1 63 -42 74 -45 104 -29 15 8 39 14 52 14 18 0 27 7 31 25 7 29 21 31 85 10
123 -38 129 -39 155 -21 34 21 38 21 92 -14 44 -28 48 -28 81 -15 32 14 34 13
45 -10 8 -19 8 -31 0 -50 -7 -14 -12 -37 -12 -50 0 -29 -11 -31 -70 -10 -38
14 -45 13 -71 -2 -27 -16 -31 -16 -79 1 -46 17 -52 17 -74 3 -20 -13 -30 -14
-55 -4 -27 10 -33 8 -55 -12 l-24 -23 -69 17 c-37 9 -76 22 -87 27 -13 7 -27
5 -51 -8 -31 -16 -34 -16 -83 1 -49 18 -52 18 -71 1 -15 -14 -24 -15 -40 -7
-30 16 -51 13 -70 -10 -17 -21 -18 -21 -86 -4 -38 9 -79 21 -93 26 -17 7 -31
5 -53 -8 -27 -16 -31 -16 -79 1 -47 17 -52 17 -75 2 -21 -14 -23 -19 -13 -40
15 -35 4 -56 -30 -56 -28 0 -30 -2 -35 -52 -3 -37 1 -67 13 -98 27 -71 33
-144 15 -180 -15 -29 -15 -33 5 -65 12 -19 23 -35 24 -35 2 0 17 5 33 11 25 8
38 6 72 -12 l42 -22 25 24 c25 23 25 23 59 5 l34 -19 31 27 c37 30 43 31 135
7 47 -13 78 -16 98 -10 22 6 39 3 68 -12 30 -15 44 -17 59 -9 11 6 20 15 20
20 0 15 32 11 54 -5 26 -20 29 -19 66 12 l32 27 85 -22 c63 -15 91 -18 112
-11 23 8 37 6 70 -12 l42 -22 25 24 c25 23 25 23 59 5 l34 -19 31 27 c32 26
77 39 52 14 -18 -18 -16 -172 4 -210 22 -42 12 -74 -26 -81 -38 -8 -38 -18 2
-62 38 -44 51 -122 24 -144 -22 -19 -22 -150 1 -213 19 -54 9 -78 -33 -78 -30
0 -31 -21 -3 -46 44 -39 64 -129 34 -154 -21 -18 -21 -170 1 -212 22 -42 12
-74 -26 -81 -37 -8 -38 -18 -2 -59 16 -18 31 -41 35 -51 5 -14 20 -17 94 -17
57 -1 97 -6 113 -15 38 -22 60 -19 60 8 0 13 6 31 13 41 13 17 15 17 45 2 17
-9 34 -20 37 -26 7 -11 64 -14 89 -4 21 8 20 48 0 80 -14 20 -15 30 -5 50 16
35 14 52 -10 85 -26 37 -21 70 14 87 42 20 34 54 -29 125 -19 20 -34 41 -34
45 0 5 17 13 38 18 44 11 52 36 27 84 -13 26 -14 36 -4 64 11 30 10 38 -10 70
-28 45 -22 83 14 92 38 9 32 43 -20 109 -45 59 -49 75 -15 75 51 0 66 37 34
86 -14 20 -15 30 -5 50 16 35 14 52 -10 85 -26 37 -21 70 14 87 32 15 34 35 8
78 -14 23 -16 35 -8 43 12 12 47 14 62 3 14 -9 38 -156 30 -182 -3 -10 1 -33
10 -49 9 -19 15 -52 14 -83 -1 -29 1 -62 5 -74 5 -15 0 -30 -20 -53 -26 -31
-26 -35 -19 -104 4 -40 9 -94 10 -122 1 -27 7 -60 14 -72 6 -13 10 -44 9 -70
-1 -27 1 -58 5 -69 6 -16 1 -30 -19 -53 -26 -31 -26 -35 -19 -104 4 -40 9 -94
9 -122 1 -27 8 -60 14 -72 7 -12 12 -46 12 -75 0 -29 0 -68 1 -85 l2 -33 54 0
c33 0 66 -7 83 -16 37 -23 60 -12 60 26 0 44 24 48 75 11 50 -36 71 -39 80
-11 6 20 -5 49 -36 89 -28 35 -24 61 11 74 35 13 37 28 9 66 -19 25 -19 32 -8
92 10 57 18 133 20 196 1 12 -11 37 -26 57 -32 42 -30 66 8 84 32 16 33 25 7
67 -17 28 -18 38 -8 91 6 32 12 79 13 104 1 25 5 56 9 70 5 19 0 36 -23 70
-39 57 -39 79 -1 93 35 13 37 28 10 65 -29 39 -18 126 21 164 32 32 40 33 134
9 47 -13 78 -16 98 -10 22 6 39 3 68 -12 30 -15 44 -17 59 -9 11 6 20 15 20
20 0 15 32 11 54 -5 26 -20 29 -19 66 12 l32 27 85 -22 c63 -15 91 -18 112
-11 23 8 37 6 70 -12 l42 -22 25 24 c25 23 25 23 59 5 l34 -19 31 27 c37 30
43 31 135 7 47 -13 78 -16 98 -10 22 6 39 3 68 -12 22 -10 39 -15 39 -10 0 5
-4 13 -10 16 -5 3 -10 13 -10 21 0 12 8 13 35 8 41 -7 42 -3 14 68 -11 29 -18
62 -14 75 4 16 1 23 -9 23 -7 0 -16 -13 -19 -30 -8 -38 -27 -38 -72 1 l-35 31
-31 -26 c-39 -33 -68 -32 -149 3 -60 28 -66 28 -93 14 -24 -12 -34 -13 -52 -3
-32 17 -59 9 -63 -18 -5 -36 -29 -37 -67 -3 -20 17 -38 31 -41 31 -4 0 -19
-11 -36 -25 -38 -32 -55 -31 -140 6 -67 29 -70 30 -95 14 -20 -14 -30 -15 -50
-6 -41 19 -60 14 -66 -19 -8 -38 -27 -38 -72 1 l-35 31 -31 -26 c-39 -33 -68
-32 -148 3 -36 16 -70 27 -77 24 -18 -7 -29 43 -14 62 7 8 18 15 24 15 27 1
38 17 27 39 -11 20 -9 21 24 21 20 0 53 -10 74 -22 55 -31 75 -20 68 37 -6 39
-4 45 12 45 10 0 39 -18 65 -41 43 -38 49 -41 89 -35 23 4 80 9 126 12 73 5
90 3 132 -16 65 -31 82 -23 73 35 -5 39 -4 45 11 45 10 0 38 -18 62 -41 42
-39 47 -41 91 -35 26 4 85 9 132 12 75 6 89 4 126 -16 59 -33 78 -23 71 35 -6
39 -4 45 12 45 10 0 39 -18 64 -40 29 -26 55 -40 72 -40 26 0 27 2 21 36 -4
19 -2 50 4 69 9 27 8 40 -4 64 -22 41 -20 44 14 38 16 -4 32 -2 35 3 3 5 -4
31 -15 59 -11 28 -19 68 -19 88 0 21 -2 67 -6 103 -3 36 -7 87 -8 114 -2 44
-5 51 -31 61 -15 7 -58 12 -95 11 -69 -1 -69 -1 -60 -51 6 -31 -26 -29 -64 4
-39 35 -57 38 -92 15 -13 -9 -32 -13 -42 -10 -10 3 -39 8 -66 11 -26 2 -57 10
-69 16 -11 6 -54 13 -95 15 l-75 4 7 -40 c9 -51 -10 -53 -67 -8 -38 29 -42 31
-72 19 -17 -8 -38 -13 -46 -13 -49 0 -120 12 -150 25 -20 8 -64 14 -100 13
-68 -1 -68 -1 -59 -51 6 -31 -26 -29 -64 4 -35 31 -70 40 -82 21 -3 -5 -13
-10 -22 -10 -12 0 -14 6 -8 33 7 28 14 102 16 164 1 12 -11 37 -26 57 -32 42
-30 66 8 84 32 16 33 25 7 67 -17 28 -18 38 -8 91 6 32 12 79 13 104 1 25 5
56 9 70 5 19 0 36 -23 70 -39 57 -39 79 -1 93 35 13 37 28 9 66 -19 25 -19 32
-8 92 10 57 18 133 20 196 1 12 -11 37 -26 57 -32 42 -30 66 8 84 32 16 34 35
6 63 -22 22 -21 22 -159 3 -30 -4 -42 1 -84 35 -26 23 -52 41 -56 41 -19 0
-29 -28 -21 -57 15 -53 -1 -62 -61 -31 -43 22 -67 27 -129 27 -42 1 -89 -3
-104 -9 l-27 -10 8 -102 c4 -57 13 -117 20 -135 19 -44 19 -43 -22 -43 -39 0
-40 -1 -13 -67 10 -25 11 -42 2 -75 -7 -24 -8 -49 -3 -58 5 -9 12 -61 16 -115
3 -55 13 -115 20 -134 20 -48 18 -53 -16 -46 -39 8 -48 -11 -25 -55 11 -22 15
-44 11 -69 -9 -48 -8 -50 4 -171 10 -91 19 -137 37 -187 4 -9 -6 -13 -31 -13
-41 0 -43 -5 -19 -55 9 -19 14 -37 12 -39 -13 -13 -47 10 -71 47 -33 54 -44
171 -23 232 21 56 19 64 -21 122 -46 67 -43 89 13 85 23 -1 45 3 48 8 4 6 -4
28 -18 49 -21 32 -26 52 -28 122 -2 51 2 102 11 130 l13 47 -36 50 c-20 27
-37 60 -37 72 0 21 3 22 46 17 57 -6 64 8 31 60 -32 49 -43 168 -22 228 21 56
19 64 -21 122 -37 54 -48 61 -59 43z"/>
</g>
</svg>
