<?xml version="1.0" standalone="no"?>
<!DOCTYPE svg PUBLIC "-//W3C//DTD SVG 20010904//EN"
 "http://www.w3.org/TR/2001/REC-SVG-20010904/DTD/svg10.dtd">
<svg version="1.0" xmlns="http://www.w3.org/2000/svg"
 width="558.000000pt" height="558.000000pt" viewBox="0 0 558.000000 558.000000"
 preserveAspectRatio="xMidYMid meet">
<metadata>
Created by potrace 1.13, written by Peter Selinger 2001-2015
</metadata>
<g transform="translate(0.000000,558.000000) scale(0.100000,-0.100000)"
fill="#000000" stroke="none">
<path d="M634 4229 c4 -140 9 -375 12 -523 2 -148 6 -271 8 -273 1 -2 50 22
108 52 334 174 713 255 1038 221 127 -14 258 -46 369 -91 249 -102 378 -271
366 -483 -5 -84 -21 -138 -100 -328 -77 -184 -121 -320 -141 -434 -2 -14 -8
-45 -13 -70 -32 -155 -35 -600 -7 -780 3 -14 7 -47 10 -75 5 -42 20 -137 82
-510 2 -16 9 -55 14 -85 9 -55 16 -105 25 -176 3 -21 6 -39 8 -40 1 -1 83 -5
182 -8 99 -4 214 -9 255 -11 209 -12 410 -16 410 -7 0 5 -38 88 -84 183 -46
96 -98 205 -115 243 -241 527 -280 892 -123 1151 70 116 118 160 442 414 303
237 384 297 490 363 41 26 134 85 206 132 381 247 647 310 948 227 l69 -19 -6
576 c-4 318 -7 583 -7 590 0 6 -10 12 -22 12 -53 0 -352 -94 -653 -205 -55
-20 -106 -37 -112 -37 -7 -1 -13 -5 -13 -10 0 -4 -3 -7 -7 -6 -21 4 -82 -15
-76 -25 3 -5 1 -7 -5 -3 -6 3 -30 0 -54 -8 -24 -8 -77 -22 -118 -31 -41 -9
-83 -21 -94 -26 -13 -8 -16 -7 -11 2 6 8 4 10 -6 3 -48 -30 -375 -38 -524 -13
-84 14 -109 19 -135 24 -14 3 -38 8 -55 11 -16 3 -50 10 -75 15 -25 6 -56 13
-70 16 -14 2 -108 22 -210 43 -172 36 -395 78 -515 96 -27 4 -52 8 -55 9 -3 1
-39 5 -80 9 -41 5 -82 9 -90 11 -8 1 -44 5 -80 8 -60 6 -104 9 -280 22 -36 3
-117 7 -180 10 -223 11 -316 15 -395 21 -95 6 -268 22 -310 29 -61 10 -91 15
-115 20 -14 3 -45 8 -69 12 l-44 6 7 -254z"/>
</g>
</svg>
