<?xml version="1.0" standalone="no"?>
<!DOCTYPE svg PUBLIC "-//W3C//DTD SVG 20010904//EN"
 "http://www.w3.org/TR/2001/REC-SVG-20010904/DTD/svg10.dtd">
<svg version="1.0" xmlns="http://www.w3.org/2000/svg"
 width="558.000000pt" height="558.000000pt" viewBox="0 0 558.000000 558.000000"
 preserveAspectRatio="xMidYMid meet">
<metadata>
Created by potrace 1.13, written by Peter Selinger 2001-2015
</metadata>
<g transform="translate(0.000000,558.000000) scale(0.100000,-0.100000)"
fill="#000000" stroke="none">
<path d="M630 4336 c0 -465 131 -792 365 -909 42 -21 218 -73 305 -91 229 -46
283 -51 525 -50 190 0 332 16 469 50 32 8 60 14 61 12 2 -2 -5 -77 -15 -168
-10 -91 -21 -199 -25 -240 -3 -41 -8 -86 -10 -100 -2 -14 -6 -68 -10 -120 -4
-52 -8 -108 -10 -125 -2 -16 -6 -88 -10 -160 -4 -71 -9 -141 -11 -155 -3 -14
-6 -223 -9 -465 -4 -453 2 -567 41 -785 34 -191 95 -325 173 -377 51 -34 121
-31 206 8 122 58 238 51 395 -21 87 -40 116 -43 164 -18 84 45 148 249 174
553 15 186 6 1165 -12 1320 -2 17 -7 84 -11 150 -3 66 -8 136 -10 155 -2 19
-6 71 -10 115 -3 44 -7 105 -10 135 -2 30 -7 89 -10 130 -3 41 -8 96 -11 123
-3 26 -3 47 -1 47 3 0 47 -9 98 -19 83 -17 215 -38 359 -56 25 -3 131 -8 235
-10 214 -4 319 8 437 50 40 15 109 31 152 36 105 12 191 52 259 122 109 111
165 268 202 562 9 69 15 398 8 424 -7 27 -13 27 -259 -4 -206 -25 -548 -59
-714 -70 -52 -4 -105 -8 -117 -10 -11 -2 -88 -6 -170 -10 -81 -4 -151 -9 -154
-11 -12 -7 -541 -19 -854 -19 -520 0 -797 12 -1345 56 -178 14 -482 47 -645
69 -77 11 -152 20 -167 20 l-28 0 0 -144z"/>
</g>
</svg>
