<?xml version="1.0" standalone="no"?>
<!DOCTYPE svg PUBLIC "-//W3C//DTD SVG 20010904//EN"
 "http://www.w3.org/TR/2001/REC-SVG-20010904/DTD/svg10.dtd">
<svg version="1.0" xmlns="http://www.w3.org/2000/svg"
 width="558.000000pt" height="558.000000pt" viewBox="0 0 558.000000 558.000000"
 preserveAspectRatio="xMidYMid meet">
<metadata>
Created by potrace 1.13, written by Peter Selinger 2001-2015
</metadata>
<g transform="translate(0.000000,558.000000) scale(0.100000,-0.100000)"
fill="#000000" stroke="none">
<path d="M2279 5096 c-2 -2 -80 -7 -174 -10 -93 -4 -183 -9 -200 -11 -16 -2
-68 -7 -115 -10 -271 -20 -423 -69 -585 -190 -158 -118 -262 -254 -326 -426
-47 -128 -60 -224 -84 -619 -28 -464 -28 -1588 1 -2095 17 -302 65 -470 177
-625 173 -238 417 -362 752 -384 426 -28 1807 -29 2105 -1 19 1 82 6 140 10
58 3 119 8 135 10 17 2 62 7 100 10 129 11 267 56 384 125 129 75 287 243 356
380 74 145 103 269 120 515 3 44 8 97 10 117 27 238 27 1621 0 1790 -2 13 -6
68 -10 123 -3 55 -8 107 -10 115 -2 8 -6 47 -10 85 -18 207 -51 332 -121 465
-104 196 -282 371 -472 465 -111 55 -213 83 -367 101 -33 3 -67 8 -76 9 -9 2
-52 6 -95 10 -43 3 -92 8 -109 10 -16 2 -82 7 -145 10 -63 4 -131 9 -150 12
-44 6 -1225 15 -1231 9z"/>
</g>
</svg>
