<?xml version="1.0" standalone="no"?>
<!DOCTYPE svg PUBLIC "-//W3C//DTD SVG 20010904//EN"
 "http://www.w3.org/TR/2001/REC-SVG-20010904/DTD/svg10.dtd">
<svg version="1.0" xmlns="http://www.w3.org/2000/svg"
 width="512.000000pt" height="512.000000pt" viewBox="0 0 512.000000 512.000000"
 preserveAspectRatio="xMidYMid meet">
<metadata>
Created by potrace 1.13, written by Peter Selinger 2001-2015
</metadata>
<g transform="translate(0.000000,512.000000) scale(0.100000,-0.100000)"
fill="#000000" stroke="none">
<path d="M3704 4735 c-27 -19 -56 -38 -64 -42 -23 -10 -196 -149 -290 -234
-101 -91 -201 -192 -232 -236 -23 -31 -84 -110 -133 -169 -14 -18 -25 -36 -25
-42 0 -5 -7 -16 -16 -23 -9 -7 -20 -22 -25 -34 -5 -11 -18 -33 -29 -50 -45
-70 -141 -271 -183 -381 -74 -196 -147 -532 -147 -680 0 -22 -5 -34 -13 -34
-10 0 -17 28 -25 93 -24 190 -92 455 -147 574 -8 17 -15 34 -15 38 0 10 -116
242 -138 277 -9 14 -30 48 -46 75 -16 26 -48 72 -70 102 -23 29 -46 62 -52 72
-6 11 -60 74 -119 140 -97 109 -387 372 -425 386 -8 3 -33 19 -55 35 -50 36
-96 66 -157 101 l-48 28 6 -63 c28 -339 59 -501 142 -748 8 -25 21 -58 28 -75
7 -16 22 -52 32 -80 78 -200 237 -457 391 -633 106 -122 294 -297 361 -337 61
-36 130 -90 130 -101 0 -20 -10 -18 -107 25 -178 78 -408 140 -622 167 -102
12 -182 15 -335 11 -226 -5 -346 -22 -540 -73 -72 -19 -148 -39 -168 -44 -64
-17 -258 -98 -373 -157 -60 -30 -120 -61 -132 -67 -13 -6 -23 -14 -23 -17 0
-10 227 -118 340 -162 176 -69 432 -132 640 -157 196 -23 491 -13 693 25 194
36 435 118 578 195 85 46 79 10 -9 -55 -63 -46 -89 -67 -193 -155 -68 -57
-309 -328 -309 -348 0 -5 -9 -17 -20 -27 -11 -10 -20 -23 -20 -30 0 -7 -9 -20
-20 -30 -11 -10 -20 -22 -20 -26 0 -4 -13 -27 -29 -51 -47 -70 -124 -225 -173
-348 -110 -273 -172 -562 -185 -859 l-6 -135 29 20 c16 10 37 24 46 29 158 95
394 298 551 473 62 70 124 143 138 162 47 64 99 140 99 144 0 2 16 28 36 58
47 71 154 293 192 398 65 181 110 368 127 525 13 130 16 145 31 145 10 0 14
-12 14 -40 0 -105 56 -378 111 -543 71 -212 182 -420 356 -667 39 -56 236
-269 305 -331 107 -96 258 -219 267 -219 4 0 28 -16 52 -35 24 -19 48 -35 52
-35 5 0 23 -11 40 -24 18 -12 40 -26 50 -29 21 -8 21 6 7 178 -23 257 -70 467
-162 720 -62 169 -197 430 -260 501 -10 11 -18 25 -18 30 0 6 -11 21 -25 34
-14 13 -25 29 -25 35 0 6 -18 29 -40 50 -22 21 -40 45 -40 51 0 14 -299 304
-313 304 -5 0 -24 12 -41 27 -18 16 -54 43 -79 60 -65 45 -64 84 1 48 142 -78
425 -165 662 -202 133 -21 485 -24 615 -5 101 15 275 49 320 62 17 5 77 24
135 41 95 28 155 50 260 95 56 24 254 125 268 136 6 6 12 20 12 33 0 22 -28
39 -190 112 -118 54 -134 60 -260 101 -172 56 -217 68 -350 91 -346 61 -695
51 -1005 -29 -104 -27 -273 -85 -353 -121 -34 -16 -66 -29 -70 -29 -4 0 -18
-9 -32 -20 -30 -24 -70 -26 -70 -5 0 9 8 19 17 22 71 27 391 331 493 468 64
85 113 156 130 190 6 11 24 43 41 70 26 44 98 188 141 285 56 125 118 347 154
550 23 135 46 480 32 480 -3 0 -28 -16 -54 -35z"/>
</g>
</svg>
