<?xml version="1.0" standalone="no"?>
<!DOCTYPE svg PUBLIC "-//W3C//DTD SVG 20010904//EN"
 "http://www.w3.org/TR/2001/REC-SVG-20010904/DTD/svg10.dtd">
<svg version="1.0" xmlns="http://www.w3.org/2000/svg"
 width="558.000000pt" height="558.000000pt" viewBox="0 0 558.000000 558.000000"
 preserveAspectRatio="xMidYMid meet">
<metadata>
Created by potrace 1.13, written by Peter Selinger 2001-2015
</metadata>
<g transform="translate(0.000000,558.000000) scale(0.100000,-0.100000)"
fill="#000000" stroke="none">
<path d="M1718 4555 c-2 -1 -70 -6 -153 -9 -82 -4 -166 -9 -185 -11 -19 -2
-75 -6 -125 -10 -49 -3 -109 -8 -132 -10 -41 -3 -207 -15 -293 -20 -25 -2 -80
-4 -124 -5 l-79 -3 8 -271 c6 -241 14 -620 15 -747 l0 -46 128 29 c596 135
838 171 1148 171 199 -1 240 -7 246 -36 6 -31 2 -204 -6 -252 -13 -83 -22
-127 -31 -165 -3 -11 -7 -29 -10 -40 -7 -29 -12 -48 -31 -115 -9 -33 -18 -67
-20 -75 -2 -8 -11 -42 -20 -75 -120 -439 -118 -847 5 -1307 32 -120 125 -394
160 -473 5 -11 16 -36 24 -55 8 -19 49 -117 92 -218 l78 -182 86 -1 c47 -1
100 -2 116 -4 17 -1 111 -5 210 -9 99 -4 237 -9 308 -12 134 -6 131 -7 129 36
0 3 -4 84 -8 180 -15 307 -9 688 11 719 2 4 6 27 10 51 11 72 64 227 111 325
55 116 81 161 218 374 149 233 173 274 244 416 59 119 132 292 132 314 0 6 8
11 18 12 64 3 304 55 479 104 198 56 514 142 572 156 l44 11 -6 585 c-4 321
-10 589 -13 594 -4 7 -66 8 -166 5 -150 -6 -197 -9 -325 -21 -145 -14 -171
-16 -202 -21 -18 -2 -61 -7 -95 -9 -33 -3 -79 -8 -101 -10 -67 -7 -304 -18
-400 -18 -97 -1 -337 11 -370 17 -11 2 -51 7 -90 10 -38 4 -81 9 -95 11 -14 2
-49 7 -79 10 -30 4 -61 8 -70 10 -9 1 -41 6 -72 9 -31 4 -65 8 -75 10 -11 2
-48 7 -84 11 -36 4 -72 8 -80 10 -13 2 -59 7 -185 20 -16 2 -66 6 -110 10 -44
3 -107 8 -140 11 -60 6 -612 13 -617 9z"/>
</g>
</svg>
