<?xml version="1.0" standalone="no"?>
<!DOCTYPE svg PUBLIC "-//W3C//DTD SVG 20010904//EN"
 "http://www.w3.org/TR/2001/REC-SVG-20010904/DTD/svg10.dtd">
<svg version="1.0" xmlns="http://www.w3.org/2000/svg"
 width="512.000000pt" height="512.000000pt" viewBox="0 0 512.000000 512.000000"
 preserveAspectRatio="xMidYMid meet">
<metadata>
Created by potrace 1.13, written by Peter Selinger 2001-2015
</metadata>
<g transform="translate(0.000000,512.000000) scale(0.100000,-0.100000)"
fill="#000000" stroke="none">
<path d="M2517 4285 c-41 -49 -117 -82 -216 -95 -129 -15 -172 -54 -216 -193
-55 -174 -21 -437 103 -797 16 -47 41 -113 56 -147 31 -74 32 -83 9 -83 -20 1
-82 45 -207 151 -32 27 -198 140 -251 171 -87 51 -239 119 -310 139 -89 25
-218 29 -278 10 -47 -16 -90 -66 -128 -149 -16 -37 -40 -77 -52 -91 -30 -32
-107 -81 -128 -81 -15 0 -13 -8 13 -61 30 -60 30 -63 23 -158 -15 -188 -14
-205 21 -247 65 -81 189 -151 323 -184 167 -40 220 -45 514 -45 260 0 287 -2
287 -16 0 -9 -7 -20 -15 -23 -27 -10 -227 -146 -310 -211 -109 -85 -279 -248
-317 -304 -18 -25 -35 -48 -40 -51 -14 -10 -66 -135 -83 -199 -22 -88 -11
-117 86 -216 80 -83 109 -135 109 -199 0 -50 9 -56 65 -45 73 14 129 3 225
-46 122 -62 148 -62 240 -3 59 38 132 104 170 153 103 136 220 414 295 698 38
145 52 145 90 0 75 -284 192 -562 295 -698 38 -49 111 -115 170 -153 92 -59
118 -59 240 3 96 49 152 60 225 46 56 -11 65 -5 65 45 0 64 29 116 109 199 97
99 108 128 86 216 -17 64 -69 189 -83 199 -5 3 -22 26 -40 51 -38 56 -208 219
-317 304 -83 65 -283 201 -310 211 -8 3 -15 14 -15 23 0 14 27 16 287 16 294
0 347 5 514 45 134 33 258 103 323 184 35 42 36 59 21 247 -7 95 -7 98 23 158
26 53 28 61 13 61 -21 0 -98 49 -128 81 -12 14 -36 54 -52 91 -38 83 -81 133
-128 149 -60 19 -189 15 -278 -10 -71 -20 -223 -88 -310 -139 -53 -31 -219
-144 -251 -171 -125 -106 -187 -150 -206 -151 -24 0 -23 9 8 83 15 34 40 100
56 147 124 360 158 623 103 797 -44 139 -87 178 -216 193 -99 13 -174 45 -218
95 -17 19 -32 35 -33 34 -2 0 -16 -16 -31 -34z"/>
</g>
</svg>
