<?xml version="1.0" standalone="no"?>
<!DOCTYPE svg PUBLIC "-//W3C//DTD SVG 20010904//EN"
 "http://www.w3.org/TR/2001/REC-SVG-20010904/DTD/svg10.dtd">
<svg version="1.0" xmlns="http://www.w3.org/2000/svg"
 width="558.000000pt" height="558.000000pt" viewBox="0 0 558.000000 558.000000"
 preserveAspectRatio="xMidYMid meet">
<metadata>
Created by potrace 1.13, written by Peter Selinger 2001-2015
</metadata>
<g transform="translate(0.000000,558.000000) scale(0.100000,-0.100000)"
fill="#000000" stroke="none">
<path d="M2779 4769 c135 -229 135 -625 0 -1081 -17 -57 -34 -106 -38 -111
-15 -15 -126 346 -146 477 -4 21 -9 48 -11 60 -13 56 -16 329 -5 407 11 69 42
189 69 257 5 15 -15 15 -163 -5 -162 -21 -374 -88 -551 -174 -399 -194 -725
-520 -915 -914 -131 -272 -192 -502 -205 -770 -3 -66 -7 -137 -8 -157 l-3 -37
56 28 c162 82 470 98 861 46 200 -27 261 -38 253 -45 -13 -13 -219 -76 -369
-114 -234 -59 -312 -70 -499 -71 -163 0 -173 1 -235 27 -35 15 -65 26 -66 25
-4 -4 45 -257 66 -336 73 -289 255 -635 436 -831 210 -228 374 -353 619 -474
183 -91 391 -157 565 -180 83 -11 230 -19 230 -12 0 3 -10 23 -23 44 -79 127
-97 348 -47 582 19 92 102 368 118 394 7 12 46 -89 83 -217 88 -303 83 -557
-15 -780 -8 -16 1 -17 100 -17 355 0 809 184 1114 452 341 299 550 641 653
1069 31 125 58 343 53 419 -2 30 -4 79 -5 108 l-1 54 -32 -28 c-141 -118 -459
-141 -928 -68 -112 18 -331 62 -337 68 -7 6 319 83 472 110 217 40 277 45 475
42 151 -3 197 -7 251 -24 36 -11 75 -25 86 -30 19 -11 19 -10 2 106 -43 299
-151 589 -309 832 -155 237 -387 461 -633 611 -286 175 -558 257 -940 285
l-98 7 20 -34z"/>
</g>
</svg>
