<?xml version="1.0" standalone="no"?>
<!DOCTYPE svg PUBLIC "-//W3C//DTD SVG 20010904//EN"
 "http://www.w3.org/TR/2001/REC-SVG-20010904/DTD/svg10.dtd">
<svg version="1.0" xmlns="http://www.w3.org/2000/svg"
 width="558.000000pt" height="558.000000pt" viewBox="0 0 558.000000 558.000000"
 preserveAspectRatio="xMidYMid meet">
<metadata>
Created by potrace 1.13, written by Peter Selinger 2001-2015
</metadata>
<g transform="translate(0.000000,558.000000) scale(0.100000,-0.100000)"
fill="#000000" stroke="none">
<path d="M4079 4846 c-2 -2 -47 -7 -99 -11 -52 -4 -102 -8 -110 -10 -8 -2 -53
-6 -100 -10 -47 -4 -92 -8 -100 -10 -8 -2 -55 -6 -105 -10 -49 -4 -106 -8
-125 -10 -289 -27 -1093 -27 -1305 0 -16 2 -59 6 -95 9 -36 3 -99 9 -140 13
-99 10 -283 10 -340 -1 -64 -12 -174 -60 -229 -100 -181 -133 -267 -323 -262
-578 1 -48 4 -98 6 -110 3 -12 7 -46 11 -77 7 -65 9 -88 18 -156 3 -27 8 -72
11 -100 3 -27 7 -70 10 -94 2 -24 7 -75 11 -115 3 -39 7 -87 9 -106 25 -276
26 -917 1 -1150 -2 -19 -7 -71 -11 -115 -7 -89 -12 -141 -19 -200 -46 -363 -1
-554 169 -713 93 -88 192 -138 308 -159 76 -13 300 -6 398 12 8 2 55 6 105 10
49 4 99 8 112 10 159 25 1025 26 1161 0 9 -1 59 -6 111 -10 52 -4 107 -8 123
-10 15 -2 55 -6 90 -10 34 -3 73 -8 87 -10 14 -2 54 -7 90 -10 36 -4 72 -8 80
-10 81 -15 278 -22 320 -10 8 2 34 7 57 10 107 15 238 89 330 188 135 145 185
328 159 587 -10 105 -16 168 -21 215 -2 22 -7 78 -11 125 -3 47 -8 101 -10
120 -22 215 -22 866 0 1090 2 19 7 78 11 130 3 52 8 109 10 125 3 17 7 57 10
90 11 129 16 181 20 210 20 154 24 325 11 405 -44 267 -247 483 -506 540 -53
11 -243 23 -251 16z"/>
</g>
</svg>
