<?xml version="1.0" standalone="no"?>
<!DOCTYPE svg PUBLIC "-//W3C//DTD SVG 20010904//EN"
 "http://www.w3.org/TR/2001/REC-SVG-20010904/DTD/svg10.dtd">
<svg version="1.0" xmlns="http://www.w3.org/2000/svg"
 width="558.000000pt" height="558.000000pt" viewBox="0 0 558.000000 558.000000"
 preserveAspectRatio="xMidYMid meet">
<metadata>
Created by potrace 1.13, written by Peter Selinger 2001-2015
</metadata>
<g transform="translate(0.000000,558.000000) scale(0.100000,-0.100000)"
fill="#000000" stroke="none">
<path d="M2330 4645 c0 -8 290 -1369 295 -1382 3 -8 -12 -17 -38 -24 -117 -31
-240 -132 -299 -245 l-32 -61 -310 79 c-171 43 -455 115 -631 159 -176 44
-328 83 -338 85 -16 5 -17 -22 -17 -460 0 -256 3 -467 8 -470 4 -2 293 74 642
169 623 169 635 172 644 151 66 -150 137 -231 255 -289 40 -20 82 -37 93 -37
14 0 18 -5 14 -17 -3 -10 -42 -191 -86 -403 -78 -371 -94 -448 -158 -755 -17
-77 -33 -157 -36 -178 l-7 -37 461 0 c253 0 460 2 460 5 0 2 -85 314 -190 692
-104 378 -190 692 -190 698 0 6 15 16 33 23 48 18 141 94 186 155 22 29 51 82
65 118 15 39 29 63 38 61 7 -1 328 -83 713 -181 385 -98 703 -177 708 -174 7
4 10 933 3 933 -5 0 -1027 -241 -1274 -300 -95 -23 -174 -40 -175 -38 -1 1
-17 32 -34 68 -43 85 -128 171 -213 214 l-66 33 198 699 c109 384 198 702 198
707 0 4 -207 7 -460 7 -253 0 -460 -2 -460 -5z"/>
</g>
</svg>
