<?xml version="1.0" standalone="no"?>
<!DOCTYPE svg PUBLIC "-//W3C//DTD SVG 20010904//EN"
 "http://www.w3.org/TR/2001/REC-SVG-20010904/DTD/svg10.dtd">
<svg version="1.0" xmlns="http://www.w3.org/2000/svg"
 width="512.000000pt" height="512.000000pt" viewBox="0 0 512.000000 512.000000"
 preserveAspectRatio="xMidYMid meet">
<metadata>
Created by potrace 1.13, written by Peter Selinger 2001-2015
</metadata>
<g transform="translate(0.000000,512.000000) scale(0.100000,-0.100000)"
fill="#000000" stroke="none">
<path d="M2540 4593 c0 -5 -13 -22 -28 -39 -15 -18 -34 -42 -42 -54 -8 -12
-28 -41 -45 -64 -88 -123 -198 -371 -239 -536 -27 -111 -46 -260 -46 -365 0
-168 40 -376 96 -502 12 -29 21 -53 18 -53 -2 0 -45 31 -95 69 -161 122 -346
204 -569 253 -140 30 -455 32 -595 4 -110 -22 -222 -51 -295 -77 -30 -11 -61
-22 -68 -24 -48 -17 264 -378 418 -485 19 -13 37 -27 40 -30 11 -15 130 -86
210 -126 214 -107 446 -160 666 -152 57 2 104 3 104 2 0 -1 -37 -27 -83 -57
-281 -190 -499 -515 -588 -882 -44 -181 -67 -545 -34 -545 8 0 63 16 122 36
403 134 710 373 902 699 58 99 114 229 136 315 9 36 18 72 21 80 3 8 16 -25
29 -75 12 -49 38 -124 56 -165 152 -344 418 -607 784 -776 91 -42 292 -114
320 -114 33 0 10 364 -34 545 -89 367 -307 692 -588 882 -46 30 -83 56 -83 57
0 1 47 0 104 -2 220 -8 452 45 666 152 80 40 199 111 210 126 3 3 21 17 40 30
120 83 328 309 409 443 17 28 20 38 9 42 -7 2 -38 13 -68 24 -73 26 -185 55
-295 77 -140 28 -455 26 -595 -4 -223 -49 -408 -131 -569 -253 -50 -38 -93
-69 -95 -69 -3 0 6 24 18 53 56 126 96 334 96 502 0 105 -19 254 -46 365 -41
165 -151 413 -239 536 -17 23 -37 52 -45 64 -8 12 -27 36 -42 54 -15 17 -28
34 -28 39 0 4 -4 7 -10 7 -5 0 -10 -3 -10 -7z"/>
</g>
</svg>
