<?xml version="1.0" standalone="no"?>
<!DOCTYPE svg PUBLIC "-//W3C//DTD SVG 20010904//EN"
 "http://www.w3.org/TR/2001/REC-SVG-20010904/DTD/svg10.dtd">
<svg version="1.0" xmlns="http://www.w3.org/2000/svg"
 width="558.000000pt" height="558.000000pt" viewBox="0 0 558.000000 558.000000"
 preserveAspectRatio="xMidYMid meet">
<metadata>
Created by potrace 1.13, written by Peter Selinger 2001-2015
</metadata>
<g transform="translate(0.000000,558.000000) scale(0.100000,-0.100000)"
fill="#000000" stroke="none">
<path d="M2415 4510 c-38 -5 -95 -11 -125 -15 -113 -13 -450 -90 -494 -112
-31 -16 -62 -15 -386 13 -172 15 -389 38 -643 71 -70 8 -130 14 -132 11 -9 -9
-6 -275 5 -367 12 -105 40 -243 64 -310 14 -42 14 -46 -4 -58 -55 -38 -79
-138 -47 -199 52 -100 159 -132 249 -75 25 16 49 27 52 24 3 -3 12 0 20 6 30
25 205 -29 227 -70 16 -30 145 -81 289 -114 56 -13 133 -18 300 -21 224 -3
343 7 514 46 27 6 50 9 51 8 1 -2 -6 -73 -15 -158 -10 -85 -21 -191 -25 -235
-3 -44 -8 -87 -10 -95 -2 -8 -7 -62 -10 -120 -4 -58 -9 -112 -10 -120 -2 -9
-6 -70 -10 -135 -4 -66 -9 -131 -10 -145 -18 -154 -27 -860 -13 -1040 36 -463
141 -690 314 -675 21 2 70 18 107 36 124 58 239 52 397 -21 87 -40 116 -43
164 -18 84 45 148 249 174 553 15 186 6 1165 -12 1320 -2 17 -7 84 -11 150 -3
66 -8 136 -10 155 -2 19 -6 71 -10 115 -3 44 -7 105 -10 135 -2 30 -7 89 -10
130 -3 41 -8 96 -11 123 -3 26 -3 47 0 47 3 0 38 -7 78 -15 231 -49 432 -70
673 -70 268 1 423 39 500 121 22 24 51 47 65 52 34 12 87 -2 119 -32 73 -69
179 -60 254 23 58 64 64 169 13 235 -22 29 -24 39 -16 61 18 47 49 219 57 315
10 119 10 426 1 436 -4 4 -130 -7 -280 -25 -512 -59 -492 -58 -743 -22 -239
33 -440 56 -605 66 -58 4 -123 9 -145 12 -72 9 -818 11 -890 3z"/>
</g>
</svg>
