<?xml version="1.0" standalone="no"?>
<!DOCTYPE svg PUBLIC "-//W3C//DTD SVG 20010904//EN"
 "http://www.w3.org/TR/2001/REC-SVG-20010904/DTD/svg10.dtd">
<svg version="1.0" xmlns="http://www.w3.org/2000/svg"
 width="512.000000pt" height="512.000000pt" viewBox="0 0 512.000000 512.000000"
 preserveAspectRatio="xMidYMid meet">
<metadata>
Created by potrace 1.13, written by Peter Selinger 2001-2015
</metadata>
<g transform="translate(0.000000,512.000000) scale(0.100000,-0.100000)"
fill="#000000" stroke="none">
<path d="M3303 4981 c-61 -63 -91 -99 -111 -131 -9 -14 -20 -29 -26 -35 -6 -5
-29 -38 -51 -72 -22 -35 -43 -63 -47 -63 -4 0 -23 -27 -42 -59 -22 -36 -79
-99 -146 -161 -93 -86 -115 -113 -147 -178 -21 -42 -47 -102 -57 -132 -10 -30
-22 -64 -26 -75 -5 -11 -21 -65 -35 -120 -45 -168 -50 -180 -73 -183 -13 -2
-29 7 -44 24 -67 80 -75 87 -92 81 -9 -4 -24 -24 -33 -44 -43 -105 -83 -118
-157 -54 -25 22 -55 43 -67 46 -12 4 -41 26 -63 50 -23 23 -66 59 -96 80 -30
20 -134 117 -230 214 -97 97 -198 195 -225 219 -72 61 -167 107 -265 126 -47
10 -105 24 -128 31 -33 11 -55 12 -85 5 -23 -6 -76 -13 -118 -16 -125 -9 -158
-43 -180 -185 -19 -126 -41 -150 -177 -189 -43 -12 -88 -30 -101 -40 -23 -17
-24 -20 -11 -51 17 -43 88 -161 104 -174 6 -5 23 -28 36 -50 13 -22 32 -49 42
-60 54 -61 133 -182 173 -265 25 -52 54 -110 63 -129 22 -45 124 -158 177
-196 22 -16 47 -36 55 -43 8 -7 77 -54 153 -104 164 -108 169 -118 68 -158
-94 -38 -97 -49 -33 -111 45 -43 53 -56 50 -82 -2 -26 -13 -38 -62 -70 -32
-22 -61 -48 -63 -58 -3 -10 -12 -19 -21 -19 -17 0 -138 -66 -147 -80 -16 -26
-129 -87 -365 -198 -47 -22 -120 -63 -163 -91 -43 -28 -81 -51 -86 -51 -8 0
-63 -58 -102 -107 -9 -11 -33 -51 -54 -89 -20 -38 -49 -85 -63 -104 -15 -19
-25 -44 -24 -56 2 -12 -6 -58 -17 -102 -30 -117 -28 -148 13 -186 18 -17 55
-42 82 -56 129 -65 145 -93 142 -245 -2 -124 5 -138 66 -129 53 8 195 42 221
53 11 5 45 17 75 25 30 9 64 21 75 26 53 25 211 62 303 71 92 8 158 26 232 62
35 16 173 107 185 121 6 7 26 23 45 36 19 13 44 32 55 42 24 21 122 99 142
113 23 16 43 -22 43 -83 0 -44 9 -81 25 -100 2 -2 31 11 65 28 40 20 73 30 93
28 30 -3 33 -7 49 -66 9 -35 23 -74 31 -85 8 -12 17 -46 21 -75 4 -30 16 -77
26 -105 27 -73 47 -166 60 -277 17 -144 57 -359 79 -420 36 -104 48 -122 148
-229 35 -36 63 -71 63 -77 0 -15 30 -40 60 -49 34 -10 140 -76 140 -86 0 -5
31 -9 69 -9 l69 0 74 70 c66 64 111 90 155 90 7 0 60 -16 117 -35 58 -19 111
-32 119 -29 25 9 37 133 37 381 1 232 3 258 41 441 22 109 -17 284 -130 577
-40 103 -40 115 2 115 17 0 54 -7 82 -15 75 -23 78 -20 70 84 -7 85 -6 90 15
101 14 8 42 9 80 5 37 -4 66 -3 80 5 15 8 30 8 53 1 18 -6 93 -13 167 -15 89
-3 189 -15 295 -35 351 -64 451 -63 602 9 47 22 106 46 131 53 29 8 47 19 52
33 5 12 30 39 57 60 98 79 123 111 123 159 0 17 -18 67 -40 113 -62 128 -52
194 44 294 21 22 26 37 26 78 0 38 -4 50 -16 50 -8 0 -32 9 -52 19 -64 33
-191 78 -372 131 -94 28 -188 70 -265 119 -109 70 -143 76 -452 75 l-273 -1 0
27 c0 14 16 50 35 80 19 30 35 58 35 61 0 10 -50 27 -100 35 -25 3 -53 10 -62
16 -24 12 -23 61 2 117 11 24 20 55 20 68 0 14 9 41 20 59 12 18 36 77 54 132
30 89 133 300 192 394 13 21 24 42 24 48 0 6 9 28 19 48 61 118 85 217 77 321
-14 197 -19 236 -35 257 -9 12 -30 56 -46 99 -46 119 -87 148 -189 134 -28 -4
-81 -8 -118 -8 -64 -1 -68 0 -103 37 -21 20 -58 66 -84 102 -25 36 -54 66 -63
68 -9 2 -37 -18 -65 -47z"/>
</g>
</svg>
