<?xml version="1.0" standalone="no"?>
<!DOCTYPE svg PUBLIC "-//W3C//DTD SVG 20010904//EN"
 "http://www.w3.org/TR/2001/REC-SVG-20010904/DTD/svg10.dtd">
<svg version="1.0" xmlns="http://www.w3.org/2000/svg"
 width="558.000000pt" height="558.000000pt" viewBox="0 0 558.000000 558.000000"
 preserveAspectRatio="xMidYMid meet">
<metadata>
Created by potrace 1.13, written by Peter Selinger 2001-2015
</metadata>
<g transform="translate(0.000000,558.000000) scale(0.100000,-0.100000)"
fill="#000000" stroke="none">
<path d="M2735 4009 c-336 -338 -807 -674 -1267 -905 -82 -41 -148 -78 -148
-83 0 -5 18 -43 39 -83 76 -144 222 -513 245 -620 3 -12 15 -57 26 -98 11 -41
22 -84 24 -95 3 -11 12 -54 21 -95 20 -93 52 -318 60 -425 13 -164 14 -205 15
-427 1 -126 2 -228 4 -228 1 0 26 7 56 16 29 9 61 18 69 20 9 2 63 17 121 34
58 17 114 32 125 35 11 2 61 13 110 24 50 11 108 22 130 26 23 3 51 7 64 10
138 26 563 27 722 0 13 -2 41 -6 62 -9 21 -4 73 -13 115 -22 42 -9 84 -17 92
-19 8 -2 44 -11 80 -20 36 -9 72 -19 80 -20 8 -2 15 -4 15 -5 0 -1 7 -3 15 -5
8 -2 83 -24 165 -50 83 -26 160 -50 173 -53 l22 -4 1 253 c0 307 7 475 24 597
3 20 8 55 11 77 13 94 16 109 30 175 3 14 7 36 10 50 4 22 11 49 28 120 61
249 162 502 310 772 l47 87 -33 14 c-554 237 -1038 553 -1444 943 -34 33 -75
71 -90 86 l-29 27 -100 -100z"/>
</g>
</svg>
