<?xml version="1.0" standalone="no"?>
<!DOCTYPE svg PUBLIC "-//W3C//DTD SVG 20010904//EN"
 "http://www.w3.org/TR/2001/REC-SVG-20010904/DTD/svg10.dtd">
<svg version="1.0" xmlns="http://www.w3.org/2000/svg"
 width="558.000000pt" height="558.000000pt" viewBox="0 0 558.000000 558.000000"
 preserveAspectRatio="xMidYMid meet">
<metadata>
Created by potrace 1.13, written by Peter Selinger 2001-2015
</metadata>
<g transform="translate(0.000000,558.000000) scale(0.100000,-0.100000)"
fill="#000000" stroke="none">
<path d="M2736 4824 c-3 -9 -6 -24 -6 -35 0 -28 -23 -33 -59 -15 -30 16 -53
16 -181 0 -24 -3 -53 -12 -64 -20 -30 -21 -68 -17 -100 11 -36 31 -46 31 -46
1 0 -28 -24 -56 -48 -56 -8 0 -31 5 -49 12 -47 17 -64 -1 -40 -41 19 -33 22
-61 7 -61 -6 0 -28 9 -50 20 -50 26 -54 25 -96 -6 -19 -15 -37 -24 -41 -20 -3
3 -25 -5 -47 -18 -23 -13 -53 -26 -68 -30 -15 -3 -43 -24 -63 -45 -40 -43 -80
-66 -142 -81 -35 -9 -43 -16 -53 -45 -11 -33 -75 -84 -127 -99 -14 -5 -32 -28
-49 -62 -26 -54 -31 -58 -70 -55 -17 2 -23 -5 -28 -30 -8 -39 -32 -69 -57 -69
-12 0 -21 -10 -25 -27 -9 -45 -25 -70 -49 -81 -22 -10 -75 -108 -75 -137 0 -8
-19 -29 -42 -48 -22 -19 -42 -43 -43 -53 -1 -11 -5 -26 -9 -35 -4 -10 -10 -39
-14 -65 -6 -44 -10 -49 -34 -52 -38 -4 -51 -23 -38 -56 15 -39 12 -67 -8 -89
-9 -11 -17 -35 -17 -55 0 -32 -4 -36 -32 -44 -27 -7 -33 -13 -33 -36 1 -15 7
-38 15 -52 15 -26 19 -77 9 -105 -4 -8 -19 -22 -35 -31 -36 -18 -37 -37 -3
-71 25 -25 25 -27 8 -36 -34 -17 -42 -36 -34 -73 5 -19 5 -48 0 -63 -5 -20 -1
-43 17 -85 30 -73 33 -124 7 -142 -42 -29 -44 -33 -32 -59 6 -14 14 -25 18
-25 10 0 50 -40 50 -50 0 -6 -9 -10 -20 -10 -35 0 -42 -32 -16 -75 20 -33 22
-41 10 -53 -24 -23 -16 -48 42 -132 l56 -82 -21 -22 c-12 -12 -21 -30 -21 -38
0 -22 46 -75 81 -93 18 -10 31 -27 38 -50 5 -19 19 -47 30 -61 13 -17 21 -41
21 -67 0 -30 7 -48 30 -74 17 -18 46 -66 65 -106 45 -96 112 -169 212 -234 54
-34 92 -67 108 -93 14 -22 44 -57 66 -77 33 -30 40 -42 36 -66 -3 -23 3 -34
35 -62 42 -36 87 -50 94 -30 5 13 34 17 34 4 0 -4 21 -15 48 -23 26 -9 69 -34
96 -56 34 -29 57 -40 81 -40 20 0 56 -14 91 -35 32 -19 62 -35 67 -35 6 0 26
-12 45 -27 34 -26 36 -26 64 -10 16 9 33 17 37 17 4 0 33 -20 64 -44 48 -37
62 -43 85 -37 15 4 41 6 57 5 116 -10 176 -19 215 -34 52 -21 75 -14 91 27 l9
24 37 -30 c45 -37 99 -41 141 -12 36 25 159 35 205 17 43 -18 57 -11 57 27 0
60 13 66 71 33 57 -32 45 -33 139 14 8 4 17 18 18 31 6 38 16 42 100 43 85 1
93 5 189 98 26 25 36 29 60 23 62 -15 63 -15 63 13 0 49 38 76 90 65 31 -6 32
-5 29 30 -4 45 3 52 51 48 l40 -3 0 40 c0 48 19 66 63 60 50 -8 57 -1 57 52 0
53 4 59 44 62 14 1 26 8 26 15 0 7 19 35 43 62 73 85 87 105 87 129 0 27 33
62 60 62 25 0 40 28 38 72 -1 18 4 44 11 56 7 13 14 32 16 43 2 11 24 39 48
62 24 24 48 57 54 74 10 27 8 36 -18 74 -40 61 -38 73 9 65 25 -4 45 -1 57 8
18 13 18 16 3 62 -18 55 -10 77 26 72 20 -3 21 2 23 97 2 55 7 112 12 126 5
15 5 32 0 40 -22 35 -6 82 36 105 25 14 25 77 -1 125 -10 19 -20 61 -21 94 -2
33 -5 83 -6 110 -2 28 -8 60 -15 72 -7 12 -11 42 -11 66 2 31 -4 53 -18 73
-26 36 -29 52 -19 82 5 15 2 35 -8 57 -9 18 -16 50 -15 71 0 22 -2 48 -5 59
-2 11 -5 25 -5 31 -1 6 -26 42 -57 80 -48 59 -55 72 -51 100 4 26 -3 44 -41
100 -25 38 -63 85 -85 105 -35 31 -38 38 -28 56 9 19 5 28 -35 70 -25 26 -51
60 -59 74 -20 38 -78 85 -145 119 -33 17 -60 35 -60 40 0 6 0 13 0 17 0 4 16
6 35 4 26 -2 35 1 35 13 0 20 -48 56 -76 56 -30 0 -119 35 -157 62 -16 11 -37
40 -47 64 -22 51 -37 60 -128 75 -76 13 -94 21 -167 83 -33 28 -55 39 -77 38
-37 -1 -159 61 -199 102 l-28 29 -10 -25 c-15 -39 -26 -41 -78 -18 -60 27 -43
23 -223 46 -25 3 -58 1 -72 -5 -23 -9 -34 -5 -77 24 -56 39 -76 43 -85 19z
m-1036 -3682 c0 -9 -7 -6 -20 11 -11 14 -20 29 -20 33 0 4 9 -1 20 -11 11 -10
20 -25 20 -33z"/>
<path d="M4700 3286 c0 -2 7 -7 16 -10 8 -3 12 -2 9 4 -6 10 -25 14 -25 6z"/>
</g>
</svg>
