<?xml version="1.0" standalone="no"?>
<!DOCTYPE svg PUBLIC "-//W3C//DTD SVG 20010904//EN"
 "http://www.w3.org/TR/2001/REC-SVG-20010904/DTD/svg10.dtd">
<svg version="1.0" xmlns="http://www.w3.org/2000/svg"
 width="558.000000pt" height="558.000000pt" viewBox="0 0 558.000000 558.000000"
 preserveAspectRatio="xMidYMid meet">
<metadata>
Created by potrace 1.13, written by Peter Selinger 2001-2015
</metadata>
<g transform="translate(0.000000,558.000000) scale(0.100000,-0.100000)"
fill="#000000" stroke="none">
<path d="M1965 4890 c-10 -11 -26 -20 -35 -20 -10 0 -23 -7 -30 -15 -23 -28
-47 -26 -99 6 l-52 32 -27 -20 c-19 -14 -35 -18 -53 -13 -14 4 -55 10 -92 14
-52 6 -67 5 -68 -6 -1 -7 -2 -20 -3 -28 0 -8 -30 -30 -66 -48 -66 -34 -69 -34
-130 -8 -12 5 -16 -1 -18 -21 -3 -35 -39 -73 -69 -73 -26 0 -29 -11 -11 -40
10 -16 9 -24 -9 -47 -20 -28 -46 -34 -98 -22 -22 5 -21 11 -29 -126 -9 -131
-12 -142 -57 -171 -44 -27 -45 -30 -24 -98 17 -56 19 -114 5 -136 -6 -10 -3
-25 12 -48 21 -34 19 -84 -4 -79 -19 3 -21 -38 -3 -53 21 -18 19 -38 -10 -76
l-26 -34 21 -66 c22 -71 25 -111 11 -133 -6 -10 -3 -27 10 -52 21 -42 24 -69
8 -69 -5 0 -7 -5 -3 -12 5 -7 3 -8 -6 -3 -23 14 -30 -17 -9 -46 23 -33 24 -52
3 -69 -34 -29 -36 -48 -12 -120 18 -59 20 -77 12 -110 -9 -33 -8 -44 7 -67 25
-38 24 -53 -7 -78 l-26 -20 21 -27 c27 -34 26 -42 -5 -83 l-25 -34 20 -66 c23
-72 26 -112 12 -134 -6 -10 -3 -27 10 -52 21 -42 24 -69 8 -69 -5 0 -7 -5 -3
-12 5 -7 3 -8 -6 -3 -23 14 -30 -17 -9 -46 23 -33 24 -52 3 -69 -34 -29 -36
-48 -12 -120 18 -59 20 -77 12 -110 -9 -33 -8 -44 7 -67 25 -38 24 -53 -7 -78
l-26 -20 21 -27 c27 -34 26 -42 -4 -82 l-26 -34 24 -83 c17 -58 22 -91 17
-111 -7 -22 -3 -35 18 -65 18 -27 26 -50 25 -78 -1 -30 5 -47 24 -66 20 -22
23 -31 14 -47 -26 -48 -2 -80 109 -144 25 -15 76 -59 115 -98 72 -75 117 -105
141 -96 7 3 38 -8 68 -24 77 -40 156 -57 194 -41 31 13 29 14 115 -36 28 -16
47 0 47 38 0 26 2 28 25 19 16 -6 35 -5 56 2 24 8 42 7 82 -5 123 -38 135 -39
167 -21 31 19 38 17 105 -26 36 -23 57 -14 60 27 2 15 3 29 4 31 1 1 10 -2 21
-8 15 -8 30 -8 56 0 26 9 42 9 67 0 18 -6 61 -18 95 -26 57 -12 66 -12 88 3
27 17 28 17 114 -32 31 -18 50 -4 50 36 0 26 2 28 25 19 16 -6 35 -5 56 2 24
8 42 7 82 -5 123 -38 135 -39 167 -21 31 19 38 17 105 -26 36 -23 57 -14 60
27 2 15 3 29 4 31 1 1 10 -2 21 -8 15 -8 30 -8 56 0 26 9 42 9 67 0 18 -6 61
-18 95 -26 57 -12 66 -12 88 3 27 17 28 17 114 -32 31 -18 50 -4 50 36 0 26 2
28 25 19 16 -6 35 -5 56 2 24 8 42 7 82 -5 121 -37 129 -38 161 -18 33 20 46
18 88 -10 26 -19 58 -25 58 -12 0 4 -5 22 -12 40 -16 45 -4 55 50 41 32 -8 50
-8 69 1 22 10 25 16 20 46 -7 41 5 45 43 15 32 -25 52 -25 81 -1 22 18 23 22
11 53 -19 53 -16 58 29 58 50 0 73 12 122 64 36 39 38 44 32 88 -5 45 -4 49
23 65 22 14 28 24 25 43 -3 19 5 32 29 51 l32 26 -22 49 c-19 46 -20 51 -5 74
9 14 22 29 30 33 23 14 14 43 -27 93 -51 62 -52 82 -3 86 46 4 53 25 27 74
-15 28 -16 38 -6 54 17 27 15 44 -8 82 -26 43 -25 64 5 94 34 34 32 48 -15
107 -43 53 -48 81 -15 83 11 1 28 2 38 3 21 1 22 32 2 72 -13 25 -14 36 -4 63
11 30 10 38 -9 68 -28 46 -28 69 3 98 34 32 32 50 -15 106 -51 62 -52 82 -3
86 46 4 53 25 27 74 -15 28 -16 38 -6 54 17 27 15 44 -8 82 -26 43 -25 64 5
94 34 34 32 48 -15 107 -43 53 -48 81 -15 83 11 1 28 2 38 3 21 1 22 32 2 72
-13 25 -14 36 -4 63 11 30 10 38 -9 68 -28 46 -28 69 3 98 34 32 32 50 -15
106 -51 62 -52 82 -3 86 46 4 53 25 27 74 -15 28 -16 38 -6 54 17 27 15 44 -8
82 -26 43 -25 64 5 94 14 14 25 31 25 39 0 8 -22 40 -50 71 -31 35 -50 66 -50
82 0 23 2 24 45 18 37 -6 45 -4 45 8 0 20 -38 56 -71 68 -35 12 -57 52 -39 73
7 8 16 12 21 9 5 -3 9 2 9 10 0 9 -6 16 -13 16 -8 0 -34 14 -60 31 -25 16 -58
32 -74 35 -32 6 -63 31 -63 51 0 17 15 17 45 -3 30 -20 56 -5 48 26 -8 29 -70
80 -96 80 -13 0 -43 13 -68 28 -61 39 -123 62 -165 62 -23 0 -51 11 -81 31
-43 30 -48 31 -80 19 -37 -13 -65 -8 -181 27 -51 16 -53 16 -75 -5 -13 -12
-30 -22 -39 -22 -9 0 -21 -7 -28 -15 -23 -27 -47 -26 -99 6 -50 31 -51 31 -77
14 -24 -15 -33 -16 -83 -5 -31 7 -75 19 -97 27 -32 12 -47 12 -63 3 -12 -6
-18 -16 -15 -22 4 -7 3 -8 -4 -4 -7 4 -12 3 -12 -3 0 -6 -7 -8 -16 -4 -8 3
-26 -4 -40 -18 -25 -24 -25 -24 -57 -5 -79 47 -84 48 -112 30 -27 -18 -50 -15
-173 23 -51 16 -53 16 -75 -5 -13 -12 -30 -22 -39 -22 -9 0 -21 -7 -28 -15
-23 -27 -47 -26 -99 6 -50 31 -51 31 -77 14 -24 -15 -33 -16 -83 -5 -31 7 -75
19 -97 27 -32 12 -47 12 -63 3 -12 -6 -18 -16 -15 -22 4 -7 3 -8 -4 -4 -7 4
-12 3 -12 -3 0 -6 -7 -8 -16 -4 -8 3 -26 -4 -40 -18 -25 -24 -25 -24 -57 -5
-79 47 -84 48 -111 31 -22 -15 -33 -15 -78 -5 -29 7 -71 18 -93 26 -53 18 -59
18 -80 -6z"/>
</g>
</svg>
