<?xml version="1.0" standalone="no"?>
<!DOCTYPE svg PUBLIC "-//W3C//DTD SVG 20010904//EN"
 "http://www.w3.org/TR/2001/REC-SVG-20010904/DTD/svg10.dtd">
<svg version="1.0" xmlns="http://www.w3.org/2000/svg"
 width="512.000000pt" height="512.000000pt" viewBox="0 0 512.000000 512.000000"
 preserveAspectRatio="xMidYMid meet">
<metadata>
Created by potrace 1.13, written by Peter Selinger 2001-2015
</metadata>
<g transform="translate(0.000000,512.000000) scale(0.100000,-0.100000)"
fill="#000000" stroke="none">
<path d="M2489 4542 c-129 -139 -214 -260 -290 -414 -53 -105 -113 -273 -125
-346 l-7 -42 -31 20 c-55 37 -239 127 -311 153 -145 52 -406 97 -561 97 l-54
0 0 -54 c0 -155 45 -416 97 -561 26 -72 116 -256 153 -311 l20 -31 -42 -7
c-73 -12 -241 -72 -346 -125 -157 -77 -283 -166 -416 -293 l-61 -58 61 -57
c133 -128 259 -217 416 -294 105 -53 273 -113 346 -125 l42 -7 -20 -31 c-37
-55 -127 -239 -153 -311 -52 -145 -97 -406 -97 -561 l0 -54 54 0 c155 0 416
45 561 97 72 26 256 116 311 153 l31 20 7 -42 c12 -73 72 -241 125 -346 77
-157 166 -283 293 -416 l58 -61 58 61 c127 133 216 259 293 416 53 105 113
273 125 346 l7 42 31 -20 c55 -37 239 -127 311 -153 145 -52 406 -97 561 -97
l54 0 0 54 c0 155 -45 416 -97 561 -26 72 -116 256 -153 311 l-20 31 42 7 c73
12 241 72 346 125 157 77 283 166 416 294 l61 57 -61 58 c-133 127 -259 216
-416 293 -105 53 -273 113 -346 125 l-42 7 20 31 c37 55 127 239 153 311 52
145 97 406 97 561 l0 54 -54 0 c-155 0 -416 -45 -561 -97 -72 -26 -256 -116
-311 -153 l-31 -20 -7 42 c-21 129 -128 378 -227 525 -74 110 -230 293 -249
293 -4 0 -31 -26 -61 -58z"/>
</g>
</svg>
