<?xml version="1.0" standalone="no"?>
<!DOCTYPE svg PUBLIC "-//W3C//DTD SVG 20010904//EN"
 "http://www.w3.org/TR/2001/REC-SVG-20010904/DTD/svg10.dtd">
<svg version="1.0" xmlns="http://www.w3.org/2000/svg"
 width="512.000000pt" height="512.000000pt" viewBox="0 0 512.000000 512.000000"
 preserveAspectRatio="xMidYMid meet">
<metadata>
Created by potrace 1.13, written by Peter Selinger 2001-2015
</metadata>
<g transform="translate(0.000000,512.000000) scale(0.100000,-0.100000)"
fill="#000000" stroke="none">
<path d="M1732 4948 c-18 -127 0 -305 55 -538 13 -58 27 -121 29 -140 2 -19 8
-50 13 -70 12 -48 13 -78 8 -295 -1 -69 27 -179 88 -340 15 -38 31 -83 36
-100 5 -16 18 -49 29 -72 11 -24 20 -52 20 -63 0 -19 0 -19 -35 1 -19 12 -35
25 -35 29 0 5 -8 11 -17 15 -10 3 -38 24 -63 47 -25 22 -61 51 -80 63 -19 12
-44 32 -54 44 -11 11 -25 21 -32 21 -7 0 -17 6 -21 13 -9 13 -34 30 -73 49
-14 7 -27 15 -30 18 -6 6 -51 27 -63 29 -4 0 -22 7 -41 15 -19 8 -36 12 -39
10 -4 -4 -83 23 -132 46 -111 51 -156 74 -190 95 -22 13 -58 34 -80 46 -22 11
-62 34 -90 49 -112 63 -228 120 -244 120 -10 0 -21 3 -25 7 -19 19 -196 56
-196 41 0 -16 23 -68 31 -68 4 0 20 -20 35 -45 14 -25 30 -45 35 -45 5 0 9 -7
9 -15 0 -8 7 -15 15 -15 8 0 15 -4 15 -9 0 -17 186 -192 227 -214 10 -6 41
-31 70 -56 29 -25 75 -64 103 -86 28 -22 69 -56 93 -75 23 -19 48 -39 55 -45
7 -5 27 -22 43 -36 16 -15 50 -44 75 -65 26 -22 83 -77 128 -124 126 -131 155
-158 205 -192 25 -18 51 -37 56 -44 12 -15 187 -118 275 -163 36 -18 72 -40
80 -48 13 -14 10 -15 -30 -8 -187 29 -268 36 -445 39 -58 1 -149 -10 -235 -27
-74 -15 -152 -28 -200 -32 -54 -5 -239 -16 -325 -20 -49 -2 -126 -7 -170 -10
-44 -3 -114 -7 -155 -10 -126 -7 -262 -25 -320 -41 -77 -23 -107 -36 -92 -41
19 -7 14 -27 -10 -42 -21 -13 -21 -14 -2 -24 39 -23 181 -67 234 -73 30 -4 60
-10 65 -14 6 -3 26 -6 45 -4 19 1 42 -2 51 -7 9 -4 60 -11 115 -14 54 -3 106
-8 114 -10 8 -3 40 -7 70 -10 106 -11 116 -12 137 -23 11 -6 22 -9 25 -7 4 5
71 -20 159 -58 19 -9 60 -19 90 -23 64 -8 446 -7 460 1 11 8 69 -4 69 -13 -1
-8 -54 -46 -215 -152 -66 -43 -133 -90 -150 -105 -95 -82 -126 -119 -152 -177
-7 -16 -17 -28 -23 -28 -5 0 -10 -7 -10 -16 0 -16 -161 -180 -264 -269 -91
-79 -306 -289 -306 -299 0 -5 -11 -23 -24 -40 -20 -27 -66 -116 -66 -130 0 -3
29 3 65 13 35 10 67 16 70 13 3 -3 5 0 5 6 0 7 8 12 18 12 9 0 31 9 48 19 17
10 45 22 62 26 18 3 32 11 32 16 0 5 5 9 11 9 6 0 25 11 42 24 18 13 43 27 57
31 14 4 41 21 61 36 20 16 40 29 44 29 3 0 27 16 52 35 25 19 51 35 57 35 6 0
42 23 80 50 38 28 73 50 78 50 6 0 31 15 57 34 25 18 66 44 91 58 25 14 63 36
85 48 74 43 139 75 216 108 101 44 227 128 324 217 67 62 151 139 177 163 15
14 30 23 34 20 3 -3 -22 -62 -54 -129 -66 -137 -126 -292 -137 -354 -4 -22
-11 -47 -16 -56 -5 -9 -11 -49 -14 -90 -6 -83 -78 -447 -94 -475 -5 -11 -24
-77 -41 -148 -17 -70 -35 -137 -40 -147 -14 -26 -59 -236 -76 -359 -9 -65 -12
-131 -8 -172 l7 -68 38 31 c22 17 39 36 39 43 0 7 12 23 26 37 14 13 42 53 62
89 20 36 39 67 42 70 4 3 17 28 29 55 13 28 34 73 47 100 38 82 130 287 149
333 10 23 21 42 25 42 4 0 13 12 19 28 6 15 32 48 56 74 25 27 45 51 45 54 0
3 6 12 13 19 26 30 37 44 37 49 0 3 11 30 25 60 14 30 25 58 25 61 0 4 6 21
14 38 8 18 26 75 40 127 39 142 62 214 72 217 5 2 20 -36 33 -84 12 -49 30
-106 38 -128 8 -22 14 -41 13 -43 -4 -7 14 -73 21 -78 5 -3 9 -11 9 -18 0 -8
8 -31 17 -52 9 -22 17 -41 18 -44 5 -19 33 -68 47 -84 10 -11 18 -23 18 -27 0
-5 18 -27 40 -49 22 -22 40 -45 40 -50 0 -6 4 -10 9 -10 5 0 12 -8 16 -19 3
-10 15 -29 26 -42 11 -12 22 -34 26 -48 3 -14 28 -72 55 -128 26 -56 48 -105
48 -109 0 -4 13 -34 29 -68 16 -33 37 -81 47 -106 10 -25 25 -54 35 -65 9 -11
24 -36 33 -55 25 -54 41 -79 70 -109 14 -15 26 -32 26 -38 0 -6 17 -25 39 -42
l38 -30 6 63 c7 70 -11 220 -43 371 -11 55 -24 114 -27 130 -3 17 -11 41 -18
55 -7 14 -25 79 -39 145 -15 66 -34 137 -41 157 -19 49 -74 345 -81 428 -9
123 -51 262 -137 460 -28 63 -53 117 -57 120 -6 5 -30 58 -30 65 0 13 20 0 65
-41 28 -25 81 -74 118 -107 38 -34 74 -67 81 -73 52 -49 209 -148 276 -174 80
-32 181 -84 257 -133 24 -15 47 -27 51 -27 5 0 29 -16 53 -35 24 -19 49 -35
54 -35 6 0 38 -19 70 -43 33 -23 76 -50 95 -60 19 -9 69 -41 110 -71 41 -30
80 -55 85 -55 6 -1 42 -21 80 -46 38 -25 80 -48 94 -52 14 -3 38 -14 53 -24
14 -11 33 -19 41 -19 9 0 19 -4 22 -10 3 -5 16 -10 29 -10 12 0 26 -4 32 -9
12 -11 94 -31 94 -22 0 16 -53 106 -95 162 -59 78 -251 263 -308 297 -15 9
-27 22 -27 28 0 6 -12 20 -27 29 -75 47 -219 214 -267 308 -22 42 -183 197
-205 197 -5 0 -16 9 -26 20 -10 11 -22 20 -26 20 -7 0 -94 57 -187 123 -42 30
-42 31 -20 40 13 4 41 6 63 2 70 -10 370 -7 434 5 34 6 90 24 124 39 76 34
159 59 218 66 24 3 82 10 129 15 47 6 110 12 140 14 30 3 89 9 130 16 41 6 82
11 90 11 31 1 133 21 149 29 9 4 42 15 73 24 56 16 85 36 54 36 -24 0 -19 27
6 34 23 5 23 6 3 19 -25 18 -162 53 -235 61 -110 12 -177 17 -265 20 -49 2
-115 7 -145 10 -30 3 -104 8 -165 11 -249 11 -316 19 -525 60 -67 14 -350 22
-369 11 -3 -2 -42 -7 -86 -11 -44 -3 -98 -11 -120 -15 -77 -18 -89 -5 -26 28
62 33 69 37 191 108 63 37 117 70 120 74 3 3 23 19 45 35 22 16 124 114 228
217 103 103 194 188 201 188 8 0 16 4 18 9 2 4 26 27 53 50 102 85 121 102
176 151 31 27 59 50 64 50 8 0 45 31 140 117 28 25 54 48 58 51 28 23 123 132
143 164 13 21 28 38 33 38 10 0 34 61 27 68 -8 7 -126 -9 -132 -19 -3 -5 -14
-9 -25 -9 -11 0 -31 -7 -44 -16 -14 -9 -25 -14 -25 -10 0 3 -17 -3 -37 -14
-21 -11 -43 -20 -50 -20 -6 0 -13 -3 -15 -7 -3 -8 -22 -19 -138 -80 -36 -19
-71 -39 -78 -45 -14 -12 -64 -41 -109 -62 -17 -9 -34 -20 -37 -25 -3 -5 -57
-31 -119 -57 -97 -41 -138 -54 -207 -68 -29 -6 -127 -55 -140 -71 -7 -8 -19
-15 -27 -15 -7 0 -16 -7 -19 -15 -4 -8 -11 -15 -17 -15 -6 0 -21 -10 -33 -21
-13 -12 -32 -27 -43 -33 -10 -6 -47 -35 -82 -64 -98 -81 -130 -107 -140 -110
-17 -6 -9 33 22 113 31 81 72 195 91 250 24 73 44 187 41 232 -13 174 -6 253
43 463 14 58 27 124 29 147 2 24 11 78 20 122 29 146 23 381 -11 381 -8 0 -14
-4 -14 -8 0 -4 -11 -21 -25 -37 -54 -66 -72 -92 -89 -127 -9 -21 -17 -41 -18
-45 -1 -5 -7 -12 -13 -18 -7 -5 -21 -32 -30 -60 -10 -27 -24 -57 -31 -65 -12
-15 -46 -102 -66 -170 -5 -19 -16 -46 -23 -60 -7 -14 -17 -36 -23 -50 -15 -37
-37 -94 -38 -100 -2 -10 -69 -189 -85 -225 -37 -87 -120 -254 -129 -260 -5 -3
-8 -10 -6 -14 3 -4 -3 -17 -13 -27 -10 -11 -32 -57 -49 -101 -31 -80 -94 -296
-90 -311 1 -4 -2 -25 -7 -47 -4 -22 -9 -49 -12 -60 -2 -11 -7 -39 -12 -63 -9
-43 -20 -65 -22 -44 -1 7 -2 15 -3 20 -1 4 -6 27 -10 52 -16 96 -73 336 -84
355 -4 6 -8 18 -9 28 -5 30 -51 132 -88 196 -64 108 -185 375 -220 486 -24 72
-57 160 -66 171 -5 6 -24 55 -43 108 -18 54 -40 106 -50 117 -9 11 -16 23 -16
28 0 8 -25 66 -40 91 -5 8 -20 39 -34 68 -14 28 -30 52 -35 52 -6 0 -11 6 -11
13 0 6 -16 30 -35 51 -19 22 -35 43 -35 48 0 4 -6 8 -14 8 -9 0 -17 -23 -24
-72z"/>
<path d="M5105 2560 c-3 -5 -1 -10 4 -10 6 0 11 5 11 10 0 6 -2 10 -4 10 -3 0
-8 -4 -11 -10z"/>
</g>
</svg>
