<?xml version="1.0" standalone="no"?>
<!DOCTYPE svg PUBLIC "-//W3C//DTD SVG 20010904//EN"
 "http://www.w3.org/TR/2001/REC-SVG-20010904/DTD/svg10.dtd">
<svg version="1.0" xmlns="http://www.w3.org/2000/svg"
 width="558.000000pt" height="558.000000pt" viewBox="0 0 558.000000 558.000000"
 preserveAspectRatio="xMidYMid meet">
<metadata>
Created by potrace 1.13, written by Peter Selinger 2001-2015
</metadata>
<g transform="translate(0.000000,558.000000) scale(0.100000,-0.100000)"
fill="#000000" stroke="none">
<path d="M2850 3125 l0 -1405 -45 0 -45 0 -2 1370 -3 1369 -912 -677 -913
-677 610 -3 610 -2 0 -70 0 -70 -595 0 -595 0 6 -27 c4 -16 12 -44 19 -63 l12
-35 572 -3 571 -2 0 -55 0 -55 -554 0 -554 0 21 -65 21 -65 528 0 528 0 0 -50
0 -50 -510 0 c-280 0 -510 -3 -510 -6 0 -6 41 -137 177 -564 35 -113 77 -245
93 -295 92 -293 152 -483 160 -505 5 -14 32 -98 60 -187 l51 -163 1203 0 1202
0 134 418 c73 229 135 425 138 435 4 16 -17 17 -332 17 l-336 0 0 60 0 60 357
2 357 3 96 303 97 302 -453 0 -454 0 0 70 0 70 476 2 477 3 92 287 92 288 -22
20 c-21 20 -33 20 -578 20 l-557 0 0 45 0 45 491 2 490 3 -852 630 c-469 347
-867 640 -886 653 l-33 23 0 -1406z"/>
</g>
</svg>
