<?xml version="1.0" standalone="no"?>
<!DOCTYPE svg PUBLIC "-//W3C//DTD SVG 20010904//EN"
 "http://www.w3.org/TR/2001/REC-SVG-20010904/DTD/svg10.dtd">
<svg version="1.0" xmlns="http://www.w3.org/2000/svg"
 width="558.000000pt" height="558.000000pt" viewBox="0 0 558.000000 558.000000"
 preserveAspectRatio="xMidYMid meet">
<metadata>
Created by potrace 1.13, written by Peter Selinger 2001-2015
</metadata>
<g transform="translate(0.000000,558.000000) scale(0.100000,-0.100000)"
fill="#000000" stroke="none">
<path d="M2745 4218 c-21 -24 -49 -55 -62 -69 l-24 -26 63 -64 c245 -250 531
-484 853 -696 94 -62 178 -118 188 -125 15 -12 9 -18 -58 -60 l-74 -47 -122
85 c-301 209 -572 435 -873 728 -43 42 -81 76 -83 76 -3 0 -30 -24 -60 -52
-297 -281 -722 -565 -1115 -745 -78 -36 -147 -69 -151 -73 -4 -4 12 -40 36
-81 24 -41 54 -95 67 -121 13 -27 30 -48 38 -48 36 0 393 204 602 343 135 91
381 274 490 365 47 39 88 72 91 72 8 0 93 -140 87 -144 -1 -1 -39 -31 -83 -67
-282 -229 -743 -537 -1032 -690 -46 -24 -83 -49 -83 -55 0 -7 13 -43 29 -80
55 -131 140 -402 165 -524 3 -14 8 -36 11 -50 19 -82 38 -191 51 -305 3 -22 7
-50 9 -63 4 -24 16 -184 21 -282 1 -30 3 -106 3 -168 1 -131 -12 -124 134 -78
l89 28 -7 96 c-12 208 -31 392 -51 497 -2 10 -6 37 -10 60 -3 22 -12 72 -21
110 -8 39 -17 81 -19 95 -20 109 -121 440 -176 579 -16 40 -27 74 -26 76 2 1
42 18 89 37 l86 36 51 -162 c54 -169 111 -379 137 -506 24 -119 24 -119 45
-235 25 -142 43 -287 56 -440 4 -44 8 -89 9 -100 1 -11 3 -39 4 -63 0 -24 4
-41 9 -38 16 10 314 55 413 63 180 13 566 6 621 -12 7 -2 36 -6 63 -9 111 -12
382 -74 547 -126 34 -10 64 -18 65 -16 3 3 6 171 4 207 -2 26 -391 114 -636
143 -278 33 -759 23 -952 -19 -22 -5 -23 -3 -23 79 l0 85 48 6 c26 3 61 8 77
10 187 26 670 25 895 -1 119 -14 372 -56 476 -79 64 -15 120 -23 124 -18 5 4
11 42 14 83 4 41 8 89 11 105 3 17 7 48 10 70 13 97 42 243 69 355 75 302 200
612 370 917 l35 63 -77 36 c-119 55 -115 56 -178 -66 -147 -287 -277 -629
-351 -925 -8 -33 -16 -67 -19 -75 -11 -44 -64 -314 -66 -340 -1 -17 -5 -33 -9
-36 -4 -2 -46 8 -93 23 -98 30 -96 26 -70 133 22 93 25 103 29 125 3 11 22 85
44 165 84 307 215 648 362 946 43 88 79 165 79 171 0 6 -28 26 -62 43 -153 79
-413 247 -548 353 -8 7 -47 37 -85 67 -136 107 -215 179 -382 347 -78 79 -144
143 -146 143 -2 0 -21 -19 -42 -42z"/>
</g>
</svg>
