<?xml version="1.0" standalone="no"?>
<!DOCTYPE svg PUBLIC "-//W3C//DTD SVG 20010904//EN"
 "http://www.w3.org/TR/2001/REC-SVG-20010904/DTD/svg10.dtd">
<svg version="1.0" xmlns="http://www.w3.org/2000/svg"
 width="512.000000pt" height="512.000000pt" viewBox="0 0 512.000000 512.000000"
 preserveAspectRatio="xMidYMid meet">
<metadata>
Created by potrace 1.13, written by Peter Selinger 2001-2015
</metadata>
<g transform="translate(0.000000,512.000000) scale(0.100000,-0.100000)"
fill="#000000" stroke="none">
<path d="M2573 4418 c-11 -24 -28 -75 -38 -114 -19 -82 -47 -134 -72 -134 -9
0 -34 16 -54 36 l-37 36 -12 -36 c-6 -19 -17 -109 -24 -200 -8 -90 -17 -169
-20 -175 -14 -22 -44 -10 -70 29 -14 22 -26 42 -26 45 0 4 -14 27 -31 52 -49
71 -56 49 -36 -124 10 -82 17 -169 17 -195 0 -44 -2 -48 -24 -48 -13 0 -29 7
-36 15 -17 21 -30 19 -30 -5 0 -10 23 -86 50 -168 28 -82 50 -159 50 -170 0
-40 -34 -24 -98 45 -66 72 -69 66 -13 -43 17 -34 34 -76 37 -93 6 -27 4 -31
-14 -31 -19 0 -137 89 -154 116 -4 7 -24 22 -44 33 l-36 21 26 -46 c30 -54 34
-94 9 -94 -21 0 -117 54 -143 80 -11 11 -27 20 -35 20 -8 0 -15 4 -15 9 0 5
-9 13 -20 16 -11 3 -26 12 -33 20 -19 18 -178 97 -184 91 -3 -2 11 -29 31 -59
59 -89 44 -112 -58 -84 -34 9 -94 26 -135 37 -40 11 -77 17 -82 14 -8 -5 31
-63 69 -103 7 -7 12 -23 10 -35 -2 -17 -11 -22 -43 -24 -22 -2 -62 1 -90 7
-228 49 -395 67 -395 42 0 -17 51 -62 109 -96 132 -77 153 -120 79 -159 -21
-11 -38 -25 -38 -32 0 -21 65 -53 255 -125 80 -31 105 -48 105 -70 0 -22 -22
-35 -75 -44 -22 -4 -65 -14 -95 -23 l-55 -15 40 -18 c22 -10 78 -25 125 -34
169 -32 230 -46 235 -56 11 -16 -4 -45 -30 -59 -15 -8 -22 -17 -16 -23 5 -5
89 -8 187 -8 99 0 185 -3 193 -8 23 -15 5 -39 -46 -61 -26 -12 -66 -30 -88
-41 l-40 -20 40 6 c22 3 79 8 128 12 76 5 87 4 87 -10 0 -15 -139 -117 -159
-117 -4 0 -26 -14 -47 -31 -33 -27 -35 -31 -14 -25 14 4 49 9 78 13 48 5 52 4
52 -15 0 -19 -33 -53 -94 -97 -15 -11 -43 -33 -61 -50 -19 -16 -48 -41 -66
-55 -47 -37 -139 -131 -139 -142 0 -5 8 -7 18 -5 94 25 113 29 127 24 19 -8
20 -51 0 -67 -8 -7 -15 -17 -15 -22 0 -5 -18 -33 -40 -63 -50 -68 -83 -126
-75 -133 3 -4 34 4 68 16 85 30 97 29 97 -8 0 -29 -63 -169 -81 -180 -4 -3
-16 -24 -25 -45 -9 -22 -20 -42 -24 -45 -26 -17 -85 -179 -71 -193 9 -9 59 8
81 28 86 79 136 115 168 121 35 7 44 -4 52 -60 3 -22 10 -41 15 -43 6 -2 35
21 65 51 55 54 72 74 120 137 70 92 121 123 135 80 3 -10 1 -58 -5 -107 -5
-50 -6 -92 -1 -97 12 -12 48 38 109 148 27 50 58 105 69 124 35 62 78 68 89
11 4 -16 10 -30 14 -30 8 0 50 107 75 190 50 163 57 180 75 180 21 0 25 -17
36 -129 8 -88 17 -78 34 34 17 102 25 125 48 125 15 0 23 -17 41 -87 13 -49
30 -110 39 -138 l16 -50 10 65 c9 54 15 66 32 68 22 3 33 -13 58 -83 34 -96
40 -114 68 -180 39 -95 87 -177 98 -170 6 4 10 30 10 60 0 65 7 85 29 85 24
-1 40 -17 113 -115 37 -49 76 -96 87 -102 20 -12 20 -10 23 70 3 79 4 82 28
85 27 3 49 -16 130 -108 89 -102 192 -200 229 -219 18 -10 25 -10 31 -1 11 18
-13 102 -53 188 -6 12 -11 44 -11 70 l-1 47 58 -2 59 -2 -6 27 c-9 34 -54 128
-70 145 -30 31 -118 188 -112 202 9 24 49 18 142 -21 47 -19 88 -33 91 -31 5
6 -52 82 -92 125 -136 142 -156 167 -153 192 3 22 8 25 41 25 20 0 37 2 37 5
0 13 -99 96 -155 130 -22 13 -44 29 -50 36 -5 7 -29 24 -52 38 -54 33 -59 66
-10 66 17 -1 59 -7 92 -15 33 -8 64 -15 70 -15 19 0 -16 24 -72 50 -87 39
-123 63 -123 81 0 25 18 28 131 18 133 -11 149 -11 149 -1 0 5 -24 19 -52 33
-54 24 -72 51 -43 63 9 3 88 11 176 16 182 12 288 25 301 38 5 5 -19 19 -54
34 -51 21 -64 30 -66 50 -3 22 4 28 47 47 27 11 56 21 65 21 8 0 18 4 21 10 3
6 14 10 23 10 27 0 124 49 118 59 -4 5 -30 15 -60 21 -70 14 -91 30 -83 61 5
20 33 36 146 88 77 36 142 67 143 70 2 3 24 17 51 30 26 13 59 35 73 48 43 39
21 47 -121 44 -69 -1 -135 1 -145 4 -25 8 -27 55 -4 90 9 13 13 29 9 36 -9 14
-84 5 -185 -22 -143 -39 -201 -51 -215 -45 -30 11 -14 50 50 123 36 41 65 78
65 83 0 17 -90 -19 -284 -112 -33 -15 -70 -28 -83 -28 -19 0 -23 5 -23 31 0
17 5 39 10 49 9 17 8 18 -7 12 -21 -9 -136 -82 -143 -92 -3 -4 -20 -15 -37
-25 -18 -11 -33 -22 -33 -26 0 -12 -92 -69 -112 -69 -10 0 -18 7 -18 16 0 14
43 98 78 152 27 42 -1 22 -75 -53 -80 -80 -113 -95 -113 -47 1 15 9 45 20 67
11 22 19 43 20 48 0 4 9 26 19 50 10 23 22 53 25 67 4 21 -1 18 -39 -22 -24
-27 -51 -48 -60 -48 -20 0 -20 57 1 130 8 30 22 80 29 110 7 30 20 82 29 115
8 33 15 80 15 105 l0 45 -47 -54 c-79 -88 -99 -68 -101 105 -1 94 -9 154 -20
154 -3 0 -22 -25 -41 -55 -35 -55 -71 -78 -91 -58 -6 6 -17 59 -25 119 -37
274 -61 384 -83 384 -4 0 -17 -19 -28 -42z"/>
</g>
</svg>
