<?xml version="1.0" standalone="no"?>
<!DOCTYPE svg PUBLIC "-//W3C//DTD SVG 20010904//EN"
 "http://www.w3.org/TR/2001/REC-SVG-20010904/DTD/svg10.dtd">
<svg version="1.0" xmlns="http://www.w3.org/2000/svg"
 width="558.000000pt" height="558.000000pt" viewBox="0 0 558.000000 558.000000"
 preserveAspectRatio="xMidYMid meet">
<metadata>
Created by potrace 1.13, written by Peter Selinger 2001-2015
</metadata>
<g transform="translate(0.000000,558.000000) scale(0.100000,-0.100000)"
fill="#000000" stroke="none">
<path d="M634 4408 c26 -270 132 -463 423 -777 53 -57 55 -61 31 -65 -7 -1
-19 -5 -25 -9 -7 -5 -13 -5 -13 -1 0 4 -9 -3 -20 -16 -23 -27 -22 -55 4 -96
77 -118 314 -215 423 -173 15 6 43 12 61 14 48 5 169 -36 229 -77 52 -36 196
-87 307 -108 81 -16 316 -17 404 -1 40 7 75 11 78 8 4 -3 0 -46 -21 -242 -2
-22 -7 -76 -10 -120 -3 -44 -8 -98 -10 -120 -2 -22 -7 -76 -10 -120 -3 -44 -8
-93 -10 -110 -11 -91 -20 -344 -20 -595 0 -323 7 -409 40 -521 41 -141 98
-170 183 -95 74 67 92 76 145 76 64 0 110 -25 188 -102 35 -35 69 -63 74 -63
54 4 75 41 96 170 21 123 18 632 -6 910 -2 28 -7 97 -10 155 -3 58 -8 128 -10
155 -10 117 -24 299 -41 534 l-7 93 54 -7 c30 -4 61 -9 69 -10 86 -15 389 -23
447 -11 11 3 43 8 70 11 77 11 227 64 259 92 72 62 146 78 220 47 84 -35 231
-11 374 61 80 40 167 107 182 140 6 14 15 22 21 18 6 -3 7 -1 3 5 -4 6 -2 21
4 32 8 14 8 20 0 20 -6 0 -8 4 -5 10 7 12 -44 62 -56 54 -22 -13 -6 20 24 49
55 56 137 154 137 165 0 5 7 15 16 23 40 33 122 233 149 364 9 43 15 255 8
284 -6 23 -8 23 -72 17 -173 -18 -337 -77 -631 -229 -451 -233 -461 -237 -635
-262 -16 -2 -50 -7 -75 -11 -25 -3 -63 -7 -85 -9 -68 -5 -208 -17 -245 -21
-43 -5 -371 -12 -660 -15 -118 -1 -242 -5 -275 -10 -33 -4 -89 -11 -125 -15
-69 -7 -78 -8 -156 -24 -47 -10 -58 -8 -168 30 -207 71 -444 182 -736 344 -83
46 -274 139 -310 151 -10 4 -46 17 -68 26 -33 13 -178 49 -197 49 -16 0 -17
-8 -11 -72z"/>
</g>
</svg>
