<?xml version="1.0" standalone="no"?>
<!DOCTYPE svg PUBLIC "-//W3C//DTD SVG 20010904//EN"
 "http://www.w3.org/TR/2001/REC-SVG-20010904/DTD/svg10.dtd">
<svg version="1.0" xmlns="http://www.w3.org/2000/svg"
 width="512.000000pt" height="512.000000pt" viewBox="0 0 512.000000 512.000000"
 preserveAspectRatio="xMidYMid meet">
<metadata>
Created by potrace 1.13, written by Peter Selinger 2001-2015
</metadata>
<g transform="translate(0.000000,512.000000) scale(0.100000,-0.100000)"
fill="#000000" stroke="none">
<path d="M1767 4913 c-4 -21 -2 -54 2 -73 5 -19 10 -39 11 -45 7 -27 0 -34
-25 -25 -33 12 -38 1 -23 -54 10 -36 10 -53 -1 -81 -7 -20 -9 -45 -5 -58 4
-12 9 -38 10 -57 3 -49 22 -181 30 -207 6 -20 3 -23 -25 -23 -37 0 -38 -7 -10
-62 16 -31 19 -51 14 -84 -4 -30 -2 -50 8 -66 8 -13 15 -39 15 -59 1 -20 7
-49 13 -65 7 -16 11 -44 10 -62 -2 -23 8 -52 34 -94 37 -63 48 -111 35 -157
-7 -27 6 -55 46 -100 13 -14 24 -42 27 -69 3 -31 12 -52 27 -64 12 -10 20 -25
18 -35 -3 -15 -11 -10 -47 24 -39 38 -45 41 -68 30 -23 -10 -28 -8 -54 22 -15
19 -31 47 -34 63 -4 15 -10 26 -15 23 -4 -3 -13 1 -19 9 -6 7 -26 16 -43 20
-17 3 -52 19 -77 35 -25 16 -63 37 -84 46 -37 17 -56 52 -42 75 3 6 3 10 -2 9
-22 -4 -32 2 -27 16 7 16 0 18 -58 15 -21 -1 -38 3 -38 8 0 14 -81 52 -109 52
-12 0 -27 5 -34 10 -77 64 -89 70 -139 64 -53 -7 -87 3 -153 45 -22 14 -60 28
-85 32 -25 4 -73 18 -107 31 -49 18 -69 32 -93 66 -16 23 -34 42 -39 42 -15 0
-19 -23 -8 -42 25 -39 -37 -63 -82 -32 -22 16 -22 15 4 -24 15 -23 24 -46 20
-52 -16 -26 5 -59 46 -71 42 -13 79 -53 79 -86 0 -10 21 -45 45 -77 25 -33 45
-67 45 -77 0 -10 14 -28 31 -41 69 -51 119 -106 125 -137 5 -23 35 -59 106
-129 58 -57 112 -120 130 -154 35 -62 63 -81 106 -72 23 5 36 -1 65 -29 20
-19 37 -32 37 -28 1 3 7 -5 14 -19 8 -14 12 -28 9 -33 -7 -12 16 -36 56 -58
20 -11 50 -28 66 -39 17 -10 42 -19 57 -19 39 -1 43 -17 8 -31 -27 -11 -34 -9
-77 18 -69 44 -99 54 -113 37 -6 -7 -10 -19 -9 -27 4 -34 -1 -47 -18 -41 -10
4 -24 15 -31 25 -17 24 -43 23 -65 -2 -21 -25 -38 -25 -68 -1 -39 29 -52 30
-97 4 -39 -22 -47 -23 -75 -12 -18 7 -39 18 -47 25 -8 7 -26 14 -40 16 -20 3
-25 -2 -33 -34 -8 -34 -40 -58 -52 -38 -11 17 -45 17 -66 -1 -28 -24 -40 -24
-83 1 -32 17 -37 18 -51 4 -8 -9 -15 -27 -15 -41 l0 -26 -89 6 -90 6 -21 -34
c-12 -19 -25 -36 -28 -36 -4 -1 -18 -2 -32 -3 -14 -1 -42 -9 -62 -19 -29 -13
-42 -15 -67 -6 -39 14 -61 -1 -61 -42 0 -35 -4 -37 -78 -41 -36 -2 -62 -8 -62
-14 0 -6 15 -27 32 -48 38 -43 125 -79 152 -64 13 8 29 2 64 -21 26 -17 61
-37 77 -45 34 -16 216 -59 256 -61 15 0 45 -13 67 -29 48 -33 87 -32 87 1 0
12 5 27 12 34 9 9 19 4 44 -24 22 -25 55 -45 101 -63 l69 -26 23 21 c32 30 51
26 87 -19 32 -40 58 -46 38 -9 -6 11 -8 27 -5 36 6 16 19 15 96 -5 25 -6 41
-5 55 4 17 11 36 9 115 -12 l95 -25 22 26 c24 28 45 32 62 12 11 -14 -3 -37
-22 -37 -4 0 -23 -11 -41 -25 -19 -14 -44 -24 -57 -23 -16 2 -24 -3 -27 -17
-6 -27 -40 -55 -69 -55 -16 0 -27 -8 -33 -25 -8 -21 -77 -75 -96 -75 -3 0 -19
-9 -35 -21 -16 -11 -33 -18 -38 -14 -13 8 -29 -24 -24 -46 3 -11 1 -19 -5 -19
-6 0 -27 -21 -47 -47 -31 -41 -41 -47 -77 -50 -52 -4 -67 -16 -60 -48 6 -34
-6 -75 -21 -75 -21 0 -71 -59 -72 -83 0 -13 -7 -23 -20 -25 -37 -8 -65 -34
-75 -72 -5 -20 -19 -45 -30 -55 -11 -10 -20 -24 -20 -31 0 -7 -4 -14 -9 -16
-5 -1 -25 -24 -45 -51 -35 -46 -36 -48 -22 -82 16 -38 12 -46 -19 -35 -47 17
-89 -37 -63 -83 10 -19 13 -20 16 -4 5 26 40 21 82 -13 46 -37 55 -37 103 -4
25 16 55 27 88 29 33 3 55 10 64 21 8 12 25 17 51 16 21 -1 49 5 62 14 24 16
76 12 87 -7 6 -9 55 -13 55 -4 0 3 -9 22 -20 42 -16 31 -18 40 -7 51 11 10 22
11 61 0 44 -12 49 -11 62 7 9 12 12 31 8 52 -8 41 8 43 55 9 35 -26 50 -25 90
6 13 10 29 18 37 18 7 0 16 15 19 33 11 49 22 57 81 57 46 0 59 5 91 32 21 18
47 38 58 44 12 7 21 24 23 44 4 43 26 59 78 60 51 0 105 35 118 75 5 17 11 37
14 45 6 20 31 -36 32 -72 0 -22 -7 -31 -35 -42 -38 -16 -45 -43 -23 -90 9 -22
8 -29 -7 -46 -10 -11 -26 -20 -37 -20 -24 0 -23 -25 2 -58 24 -30 17 -40 -29
-44 -42 -3 -48 -18 -27 -71 27 -71 22 -103 -24 -145 -39 -36 -39 -38 -30 -80
6 -23 7 -50 2 -60 -9 -20 -8 -128 2 -189 l8 -43 -31 6 c-27 6 -31 4 -31 -15 0
-12 7 -36 16 -53 18 -34 12 -70 -15 -97 -18 -18 -18 -19 4 -43 18 -20 24 -41
30 -109 4 -46 15 -107 25 -136 10 -28 16 -54 13 -57 -3 -3 -18 -2 -34 1 -37 7
-38 -9 -3 -54 23 -30 25 -38 15 -59 -16 -35 -14 -40 7 -15 9 12 28 23 41 26
29 5 51 23 51 41 0 8 5 14 11 14 7 0 10 13 7 34 -4 33 -2 35 50 56 71 30 83
43 72 79 -9 34 -5 41 24 41 38 0 51 17 51 62 l0 43 41 3 c46 3 53 15 54 82 0
44 13 65 34 57 10 -4 16 -1 16 8 0 8 4 15 8 15 10 0 45 118 38 129 -9 14 16
19 42 9 13 -4 28 -6 33 -2 13 8 10 55 -5 83 -18 33 -9 60 23 67 14 3 31 7 36
8 6 2 11 20 11 42 3 60 19 142 33 158 6 8 22 17 35 20 23 6 24 9 20 88 -2 44
-6 83 -8 85 -2 3 4 24 14 47 11 23 17 51 14 62 -4 17 0 19 46 19 27 0 50 -2
50 -6 0 -3 -11 -16 -25 -29 -13 -12 -21 -28 -17 -34 3 -6 8 -19 9 -30 2 -10
12 -29 23 -43 11 -14 20 -40 20 -57 0 -30 17 -63 47 -94 21 -22 34 -52 28 -63
-4 -6 -24 -7 -51 -3 -38 5 -44 4 -44 -11 0 -10 25 -41 55 -69 68 -63 121 -149
127 -207 4 -31 17 -61 48 -102 24 -31 47 -57 52 -57 19 0 87 -81 98 -118 26
-78 74 -154 131 -204 52 -45 86 -99 74 -118 -2 -4 24 -32 60 -64 l64 -56 -6
35 c-5 33 0 40 29 37 13 -2 33 33 35 62 1 17 4 43 8 57 5 20 0 37 -20 67 -32
49 -30 71 10 92 17 8 32 16 34 17 2 1 -6 17 -18 36 -24 40 -38 121 -24 139 6
7 13 48 17 91 6 77 5 78 -29 128 -34 50 -34 50 -17 85 15 33 15 37 -1 66 -9
16 -17 36 -17 44 0 7 -11 37 -24 66 -23 53 -29 88 -15 88 9 0 -10 62 -21 70
-17 12 -20 48 -5 54 9 3 14 2 11 -3 -4 -5 4 -7 16 -3 12 3 17 7 10 10 -6 2
-12 8 -12 12 0 5 -11 21 -25 36 -14 15 -25 32 -25 38 0 7 -9 29 -19 50 -11 20
-21 56 -22 79 -2 31 -11 51 -33 75 l-31 34 40 -17 c60 -24 110 -62 161 -122
49 -57 96 -88 123 -80 9 2 31 -11 51 -30 19 -18 56 -44 81 -56 25 -13 61 -40
80 -60 l34 -36 24 25 c13 13 26 24 30 24 11 -1 36 -24 69 -67 21 -26 57 -54
102 -77 73 -38 99 -43 118 -24 9 9 23 2 60 -34 64 -62 87 -73 115 -55 29 18
77 13 134 -16 15 -8 43 -15 62 -15 19 0 37 -5 40 -9 13 -19 81 -54 92 -47 7 4
9 22 6 46 -4 28 -1 41 9 45 11 4 9 12 -11 35 -14 16 -25 40 -25 53 0 40 -27
78 -121 166 -74 69 -91 90 -85 105 5 11 10 24 12 29 2 6 -19 40 -46 77 -39 51
-69 78 -127 113 -41 25 -82 51 -89 58 -7 7 -20 18 -29 25 -8 7 -15 21 -15 31
0 10 -23 38 -52 62 -89 75 -108 95 -108 118 0 12 -6 21 -15 21 -8 0 -15 4 -15
8 0 5 -6 9 -12 9 -27 1 -132 33 -152 46 -42 28 -130 125 -131 146 -2 24 6 26
52 9 28 -10 36 -10 43 2 7 12 17 12 65 0 42 -10 64 -11 85 -3 21 8 44 6 96 -7
38 -10 77 -21 87 -25 12 -5 28 0 48 14 25 18 33 20 52 10 21 -12 21 -11 7 6
-14 17 -14 18 8 6 18 -10 22 -9 22 3 0 21 28 24 84 9 57 -14 71 -7 81 38 4 16
9 29 11 29 3 0 22 -11 42 -25 37 -25 82 -33 82 -15 0 5 12 13 28 16 42 10 144
45 167 56 10 6 35 10 54 10 24 -1 41 6 59 23 29 30 31 30 76 9 49 -24 70 -13
62 31 -4 19 -3 35 1 36 4 0 27 2 51 4 23 2 49 9 57 15 8 7 23 10 33 8 13 -4
22 3 31 24 12 27 11 32 -10 56 -65 72 -92 87 -115 64 -24 -23 -35 -22 -66 11
-19 19 -36 27 -56 25 -29 -2 -67 17 -105 53 -13 12 -29 15 -57 12 -47 -7 -108
21 -162 72 -42 40 -48 42 -48 17 0 -44 -40 -53 -93 -22 -26 15 -41 18 -58 12
-29 -11 -43 -7 -90 25 -36 24 -37 24 -87 8 l-50 -17 -67 36 c-36 19 -73 32
-81 29 -8 -3 -14 -19 -14 -38 0 -47 -15 -51 -50 -16 l-30 30 -32 -27 -31 -26
-46 26 -47 26 -42 -25 c-41 -24 -72 -25 -72 -3 0 6 12 15 28 21 17 6 34 24 46
49 19 39 40 55 57 44 17 -10 133 63 151 95 9 16 31 37 50 47 18 9 46 27 61 40
16 13 34 24 42 24 15 0 42 38 50 73 4 13 19 31 33 38 15 8 33 19 40 26 7 6 28
17 47 24 19 7 35 17 35 22 0 4 4 5 10 2 5 -3 7 0 4 8 -7 20 10 58 42 93 73 78
114 130 114 144 0 8 15 25 33 36 23 15 37 35 48 70 9 29 23 53 36 59 35 18 52
36 47 49 -3 7 6 27 20 43 14 17 23 32 21 35 -8 8 24 78 36 78 5 0 21 11 34 24
26 26 25 43 -5 83 -22 29 -31 20 -17 -17 18 -49 -23 -77 -75 -49 -38 20 -67
20 -78 0 -6 -11 -9 -26 -8 -33 2 -7 -4 -11 -12 -9 -37 9 -183 -9 -216 -27 -13
-7 -25 -7 -37 -1 -27 16 -52 2 -65 -34 -18 -49 -50 -63 -113 -49 -65 15 -79
15 -79 -2 0 -27 -41 -66 -70 -66 -15 0 -33 -7 -41 -16 -23 -28 -64 -44 -79
-31 -10 9 -11 9 -6 -1 13 -22 -23 -44 -76 -48 -66 -4 -76 -14 -59 -59 20 -56
-9 -74 -59 -35 -48 37 -88 15 -76 -41 9 -45 -7 -59 -49 -48 -24 7 -41 6 -56
-2 -19 -10 -21 -17 -15 -60 l7 -49 -36 17 c-44 21 -66 11 -80 -35 -10 -36 -20
-40 -33 -14 -15 28 -5 93 17 108 23 17 45 77 38 106 -4 14 0 22 12 25 30 8 44
45 33 84 -6 21 -6 44 0 59 5 14 11 36 13 50 1 14 3 28 4 33 0 4 16 6 33 5 27
-3 34 1 36 19 2 12 -6 40 -17 62 -26 50 -26 56 0 79 18 18 19 25 11 78 -16 99
-15 118 11 129 19 9 23 21 30 82 7 68 6 75 -19 112 -29 45 -27 67 10 81 28 10
28 25 2 65 -20 30 -24 118 -7 139 4 6 7 38 5 70 -2 33 1 65 7 72 11 13 -11 54
-50 94 -12 12 -13 10 -9 -18 5 -38 -4 -47 -30 -31 -31 19 -49 5 -56 -46 -8
-52 -25 -64 -67 -48 -37 14 -51 -2 -49 -54 3 -65 1 -73 -20 -73 -13 0 -28 -13
-41 -35 -17 -28 -29 -36 -60 -41 -50 -8 -56 -19 -31 -54 l21 -27 -25 -22 c-13
-11 -28 -21 -32 -21 -24 0 -31 -24 -16 -58 20 -48 5 -64 -55 -61 -45 3 -46 3
-43 -26 12 -114 12 -112 -22 -130 -34 -19 -62 -73 -70 -136 -6 -47 -32 -109
-45 -109 -14 0 -29 -30 -36 -71 -3 -19 -10 -46 -17 -62 -8 -22 -8 -31 4 -45 8
-9 18 -25 21 -34 5 -15 1 -18 -26 -18 -58 0 -74 -40 -37 -95 36 -54 21 -55
-30 -1 -54 57 -58 67 -36 85 17 14 11 40 -29 123 -16 34 -40 66 -60 79 -45 31
-60 56 -44 75 7 9 21 13 31 11 47 -13 32 41 -23 78 -22 16 -47 44 -56 64 -9
20 -28 53 -41 73 -18 28 -23 46 -18 68 3 18 2 29 -3 25 -5 -3 -12 3 -15 12 -3
10 -27 40 -52 67 -63 69 -104 122 -104 135 0 6 8 12 18 12 9 1 4 4 -12 8 -36
8 -88 80 -113 157 -18 60 -51 90 -93 86 -37 -4 -74 39 -75 88 -1 35 -26 80
-45 80 -4 0 -10 -17 -13 -37z m-332 -1883 c3 -5 1 -10 -4 -10 -6 0 -11 5 -11
10 0 6 2 10 4 10 3 0 8 -4 11 -10z m360 -2730 c-3 -5 -11 -10 -16 -10 -6 0 -7
5 -4 10 3 6 11 10 16 10 6 0 7 -4 4 -10z"/>
<path d="M3590 2230 c0 -5 9 -14 20 -20 16 -8 20 -8 20 4 0 7 -7 17 -16 20
-21 8 -24 8 -24 -4z"/>
<path d="M500 1092 c0 -12 60 -31 76 -25 30 11 13 28 -31 30 -25 1 -45 -1 -45
-5z"/>
</g>
</svg>
