<?xml version="1.0" standalone="no"?>
<!DOCTYPE svg PUBLIC "-//W3C//DTD SVG 20010904//EN"
 "http://www.w3.org/TR/2001/REC-SVG-20010904/DTD/svg10.dtd">
<svg version="1.0" xmlns="http://www.w3.org/2000/svg"
 width="512.000000pt" height="512.000000pt" viewBox="0 0 512.000000 512.000000"
 preserveAspectRatio="xMidYMid meet">
<metadata>
Created by potrace 1.13, written by Peter Selinger 2001-2015
</metadata>
<g transform="translate(0.000000,512.000000) scale(0.100000,-0.100000)"
fill="#000000" stroke="none">
<path d="M3401 4425 c-18 -19 -42 -37 -53 -40 -23 -8 -48 11 -48 36 0 28 -11
23 -49 -21 -19 -22 -41 -40 -50 -40 -24 0 -41 20 -41 48 l0 25 -25 -27 c-14
-16 -33 -39 -42 -52 -22 -34 -52 -31 -59 6 -4 17 -10 30 -14 30 -12 0 -30 -26
-23 -33 3 -4 2 -7 -4 -7 -5 0 -15 -12 -21 -26 -16 -33 -65 -31 -70 4 -4 27
-19 29 -27 2 -3 -11 -10 -20 -15 -20 -5 0 -7 -7 -4 -15 8 -20 -22 -47 -48 -43
-15 2 -24 11 -26 25 -2 14 -8 20 -17 17 -7 -3 -12 -14 -10 -24 2 -10 -3 -21
-11 -24 -9 -3 -13 -10 -9 -15 3 -5 1 -12 -5 -16 -6 -4 -8 -10 -5 -15 8 -13
-30 -18 -47 -6 -8 6 -13 17 -11 24 3 6 0 12 -5 12 -11 0 -42 -71 -42 -96 0
-26 -54 -14 -58 14 -2 12 -8 20 -13 16 -5 -3 -7 -10 -4 -15 4 -5 1 -9 -4 -9
-6 0 -11 -10 -11 -23 0 -30 -17 -46 -40 -40 -14 4 -23 21 -31 59 -12 54 -13
54 -28 32 -33 -47 -49 -35 -84 57 l-16 40 -11 -32 c-7 -20 -19 -33 -29 -33
-17 0 -53 35 -44 43 7 8 -26 67 -38 67 -6 0 -8 -3 -6 -7 10 -16 -13 -53 -32
-53 -19 0 -61 47 -61 68 0 15 -30 37 -31 23 -1 -6 -2 -16 -3 -22 0 -7 -8 -17
-17 -22 -21 -13 -69 15 -69 41 0 43 -47 56 -52 15 -4 -40 -49 -45 -66 -8 -7
14 -19 28 -27 31 -8 4 -12 10 -9 15 3 5 -2 9 -10 9 -9 0 -16 -11 -18 -27 -4
-36 -30 -41 -65 -13 -16 12 -26 24 -23 26 3 2 -6 11 -19 20 -19 14 -25 14 -32
3 -5 -8 -9 -24 -9 -37 0 -19 -5 -22 -31 -20 -19 2 -37 11 -45 24 -8 11 -25 26
-38 32 -22 10 -24 8 -30 -27 -6 -39 -27 -50 -53 -28 -7 5 -13 6 -13 2 0 -4 -7
-2 -15 5 -22 19 -29 6 -16 -31 6 -18 11 -47 11 -64 0 -27 -4 -34 -25 -37 -14
-3 -28 -1 -31 3 -3 5 -12 9 -20 9 -16 0 -15 -27 4 -73 14 -33 6 -77 -13 -77
-8 0 -25 4 -39 10 l-26 10 14 -35 c8 -19 12 -35 9 -35 -3 0 0 -6 6 -14 8 -9 8
-21 1 -40 -10 -28 -21 -32 -50 -16 -13 7 -19 6 -23 -4 -3 -8 1 -17 10 -20 9
-4 13 -9 10 -13 -3 -3 1 -19 9 -35 8 -16 12 -38 9 -49 -6 -16 -12 -19 -36 -14
-35 8 -36 -1 -9 -52 32 -60 25 -80 -27 -74 -20 3 -24 -17 -6 -35 41 -41 48
-93 12 -95 -32 -2 -37 -4 -45 -11 -7 -7 9 -12 29 -9 4 0 7 -8 7 -19 0 -11 4
-20 10 -20 14 0 31 -37 24 -54 -3 -9 -12 -16 -19 -16 -7 0 -18 -7 -25 -15 -10
-12 -10 -15 1 -15 8 0 24 -10 35 -23 31 -32 17 -66 -26 -63 -24 2 -29 -1 -24
-13 23 -53 -13 -79 -73 -55 -35 14 -53 3 -33 -21 20 -24 -5 -55 -40 -50 -17 3
-44 7 -60 10 -34 5 -36 3 -14 -20 10 -10 14 -24 10 -39 -5 -22 -10 -23 -66
-20 -64 3 -71 -3 -40 -31 15 -13 17 -22 9 -36 -8 -15 -21 -19 -69 -19 -34 0
-62 -5 -66 -12 -4 -6 -3 -8 4 -4 15 9 41 -31 35 -54 -4 -13 -18 -20 -52 -25
-65 -9 -80 -19 -52 -36 25 -17 28 -48 4 -55 -10 -3 -26 -10 -35 -15 -10 -5
-28 -9 -41 -9 -36 0 -39 -11 -9 -36 22 -20 25 -27 15 -41 -6 -10 -16 -17 -22
-15 -6 1 -11 -2 -11 -7 0 -5 -18 -12 -40 -16 -50 -9 -56 -18 -25 -41 14 -10
25 -25 25 -32 0 -19 -28 -45 -40 -37 -5 3 -10 1 -10 -4 0 -6 -6 -11 -14 -11
-7 0 -26 -7 -42 -15 l-28 -14 47 -13 c37 -10 49 -18 54 -37 5 -19 1 -28 -15
-39 -25 -16 -30 -47 -7 -38 8 3 15 2 15 -3 0 -4 19 -12 43 -17 36 -8 42 -13
42 -34 0 -16 -8 -28 -23 -35 -24 -11 -30 -31 -9 -33 72 -10 94 -16 104 -30 18
-22 16 -30 -13 -57 l-27 -25 40 0 c50 0 103 -18 103 -35 0 -7 -9 -24 -21 -39
-23 -29 -20 -30 44 -26 61 3 86 -32 50 -72 -18 -20 -23 -19 66 -22 35 -1 45
-5 52 -23 5 -15 3 -25 -7 -34 -21 -17 2 -30 33 -18 12 5 37 6 53 2 29 -5 30
-8 24 -41 -6 -33 -6 -35 17 -28 32 10 81 8 94 -5 6 -6 5 -17 -3 -30 -19 -30
-9 -34 37 -15 46 18 71 13 71 -15 0 -19 -33 -59 -49 -59 -13 0 -22 -28 -11
-35 6 -4 10 -2 10 3 0 17 39 1 43 -17 5 -22 -22 -67 -50 -82 -28 -15 -30 -29
-4 -29 31 0 51 -11 51 -29 0 -18 -34 -74 -41 -67 -3 3 -6 -6 -7 -20 -1 -20 1
-23 14 -16 47 26 74 -28 34 -68 -11 -11 -20 -24 -20 -30 0 -5 -4 -10 -8 -10
-5 0 -9 -6 -9 -13 0 -8 12 -11 38 -9 49 5 54 -16 17 -85 -15 -29 -26 -53 -24
-53 3 0 16 4 30 10 48 18 71 -11 46 -60 -5 -11 -14 -28 -19 -38 -12 -25 0 -44
19 -32 8 6 20 10 27 10 18 0 36 -39 27 -58 -8 -20 -14 -39 -18 -69 -3 -19 1
-21 38 -20 l41 2 -2 -40 c-1 -22 -5 -53 -9 -69 -6 -26 -5 -28 12 -22 34 15 49
16 61 8 15 -9 19 -58 9 -89 -5 -14 -3 -23 3 -23 11 0 53 33 79 61 8 9 23 14
34 11 20 -5 42 -47 32 -63 -13 -22 10 -6 52 36 37 36 49 43 64 35 10 -6 20
-22 22 -37 3 -26 33 -42 33 -18 0 19 66 76 83 73 10 -2 19 -14 20 -28 2 -14 8
-29 14 -35 8 -7 9 -6 4 3 -4 7 -2 12 6 12 7 0 22 16 32 35 15 27 25 35 48 35
24 0 30 -5 35 -30 l6 -31 15 23 c9 13 22 27 29 31 7 4 13 14 13 20 0 21 20 35
41 30 10 -3 19 -14 19 -24 0 -11 4 -19 9 -19 12 0 48 46 56 71 9 28 53 26 57
-3 5 -37 21 -26 43 30 16 42 24 52 43 52 14 0 26 -8 31 -22 9 -23 9 -23 20 5
6 15 14 39 17 52 10 42 64 45 64 4 0 -29 17 -23 29 11 7 22 16 30 34 30 22 0
27 -7 37 -50 7 -30 17 -50 26 -50 8 0 14 7 14 15 0 9 10 15 26 15 21 0 29 -8
46 -49 16 -40 23 -47 33 -38 7 7 11 15 9 19 -2 4 6 8 18 10 17 2 30 -7 50 -37
15 -22 28 -47 28 -55 0 -8 8 0 16 17 9 18 24 33 33 33 9 0 32 -24 51 -52 32
-47 35 -49 40 -27 9 38 49 41 81 4 14 -16 31 -39 37 -50 9 -18 11 -16 19 15
10 38 48 55 59 26 3 -9 12 -16 19 -16 8 0 17 -9 20 -20 3 -11 15 -25 25 -30
16 -9 19 -6 22 22 2 27 8 34 30 36 20 2 28 -2 33 -18 4 -12 9 -19 12 -16 3 3
14 -6 25 -19 23 -30 38 -32 38 -6 0 47 30 67 58 39 7 -7 12 -9 12 -6 0 3 14
-7 31 -23 17 -16 35 -29 40 -29 9 0 13 28 10 62 -1 9 8 22 19 28 18 9 25 8 41
-6 29 -26 39 -7 26 52 -15 72 -7 86 43 79 45 -7 45 -7 25 42 -30 71 -10 106
47 84 l25 -10 -11 39 c-6 21 -15 42 -19 46 -4 4 -7 18 -7 30 0 23 31 41 50 29
17 -11 32 5 20 20 -7 8 -9 18 -6 24 3 5 -1 11 -9 15 -19 7 -20 50 -2 65 8 6
23 9 35 6 17 -3 22 1 22 16 0 11 -5 17 -10 14 -6 -3 -11 -1 -11 4 -2 18 -5 25
-19 54 -16 33 -12 38 34 40 22 1 36 7 36 15 0 7 -4 10 -10 7 -5 -3 -10 2 -10
12 0 10 -9 25 -20 33 -25 18 -27 59 -2 62 9 0 22 2 27 3 6 2 14 3 18 4 5 0 -8
18 -27 38 -20 21 -36 45 -36 54 0 22 26 43 45 35 9 -3 15 0 15 9 0 7 -9 17
-21 20 -11 4 -18 9 -15 13 3 3 -3 11 -14 19 -44 31 -7 72 47 52 23 -8 52 4 34
15 -18 11 -13 46 7 47 22 2 19 2 71 -6 39 -6 43 -5 32 9 -7 8 -11 25 -9 38 3
21 7 23 61 20 48 -3 57 -1 57 13 0 9 -4 13 -10 10 -6 -3 -10 5 -10 19 0 32 12
39 71 37 46 -1 62 10 39 24 -5 3 -10 17 -10 31 0 18 6 24 23 25 29 1 79 8 96
15 11 3 10 8 -4 23 -31 35 -16 55 48 65 58 8 70 18 41 34 -17 10 -16 66 1 68
55 4 105 18 105 30 0 8 -6 14 -14 14 -15 0 -26 21 -26 50 0 13 14 21 57 31 32
8 59 20 61 29 3 8 1 12 -3 8 -4 -4 -17 4 -28 19 -26 32 -14 54 36 68 59 17 64
30 20 51 -30 15 -38 25 -38 47 0 15 4 27 9 26 9 -1 26 20 26 33 0 3 -23 12
-51 19 -61 16 -78 39 -54 75 9 14 20 22 25 19 6 -4 10 -2 10 4 0 6 -17 13 -37
16 -82 13 -113 50 -71 85 l23 19 -22 1 c-13 0 -23 5 -23 10 0 6 -20 10 -45 10
-41 0 -45 2 -45 24 0 14 7 31 15 40 8 8 15 17 15 19 0 3 -27 8 -61 12 -59 7
-61 8 -56 34 2 14 7 33 11 41 5 13 -3 15 -49 14 -51 -2 -57 0 -68 23 -9 21 -8
26 6 34 27 15 20 28 -10 20 -45 -11 -95 1 -104 26 -5 15 -3 23 7 27 8 3 14 10
14 17 0 6 -6 9 -14 6 -7 -3 -34 -9 -60 -12 -38 -6 -47 -4 -52 10 -4 10 -2 26
4 36 15 23 -1 34 -28 19 -11 -6 -20 -8 -20 -6 0 3 -11 1 -25 -4 -54 -20 -75
19 -30 58 31 27 33 46 4 37 -14 -5 -25 -2 -30 6 -14 22 -11 36 14 61 12 13 29
32 37 42 14 18 13 19 -8 13 -13 -3 -30 -3 -38 0 -18 7 -19 64 -1 60 6 -1 11 4
10 11 -2 6 2 12 7 12 6 0 10 7 10 15 0 8 5 15 10 15 6 0 10 5 10 11 0 6 -8 8
-19 4 -49 -15 -67 27 -31 72 30 39 26 60 -9 55 -23 -3 -30 0 -36 18 -5 15 -2
26 6 31 8 5 10 9 5 9 -4 0 -1 12 9 26 23 35 28 64 9 57 -8 -3 -14 -9 -14 -13
0 -4 -11 -5 -24 -3 -32 6 -38 44 -15 83 27 44 23 79 -6 51 -13 -12 -55 5 -55
21 1 7 7 36 14 63 8 28 13 51 11 53 -1 1 -14 -2 -29 -7 -14 -6 -33 -8 -41 -5
-18 7 -20 57 -4 103 13 38 6 50 -21 33 -35 -21 -60 -15 -61 16 -2 34 -2 30 5
75 l6 38 -30 -21 c-16 -12 -30 -25 -30 -29 0 -4 -12 -13 -26 -20 -32 -14 -54
0 -54 35 0 36 -13 35 -49 -1z"/>
<path d="M1175 3450 c-3 -5 -1 -10 4 -10 6 0 11 5 11 10 0 6 -2 10 -4 10 -3 0
-8 -4 -11 -10z"/>
</g>
</svg>
