<?xml version="1.0" standalone="no"?>
<!DOCTYPE svg PUBLIC "-//W3C//DTD SVG 20010904//EN"
 "http://www.w3.org/TR/2001/REC-SVG-20010904/DTD/svg10.dtd">
<svg version="1.0" xmlns="http://www.w3.org/2000/svg"
 width="512.000000pt" height="512.000000pt" viewBox="0 0 512.000000 512.000000"
 preserveAspectRatio="xMidYMid meet">
<metadata>
Created by potrace 1.13, written by Peter Selinger 2001-2015
</metadata>
<g transform="translate(0.000000,512.000000) scale(0.100000,-0.100000)"
fill="#000000" stroke="none">
<path d="M2490 4639 c-213 -161 -378 -348 -481 -547 -22 -41 -39 -80 -39 -88
0 -20 -20 -17 -50 6 -14 11 -30 20 -36 20 -7 0 -15 7 -18 16 -3 8 -10 12 -16
9 -6 -3 -13 1 -16 9 -3 9 -10 14 -14 11 -4 -3 -13 2 -20 10 -7 8 -16 12 -21 9
-5 -3 -9 -1 -9 4 0 8 -149 82 -166 82 -3 0 -20 6 -37 14 -28 12 -124 45 -152
52 -27 7 -57 15 -77 20 -52 13 -105 25 -128 29 -14 2 -37 6 -52 9 -36 8 -79
14 -153 22 -33 3 -63 8 -67 10 -4 2 -43 7 -88 10 l-81 5 5 -81 c3 -45 8 -84
10 -88 2 -4 7 -34 10 -67 8 -74 14 -117 22 -153 3 -15 7 -38 9 -52 4 -23 16
-76 29 -127 5 -21 13 -51 20 -78 7 -28 40 -124 52 -152 8 -17 14 -34 14 -37 0
-15 73 -166 80 -166 7 0 18 -30 18 -47 0 -3 7 -10 16 -15 9 -5 16 -16 16 -23
0 -8 5 -15 10 -15 6 0 10 -5 10 -11 0 -6 9 -22 20 -36 11 -14 20 -29 20 -34 0
-4 -30 -22 -67 -40 -97 -46 -217 -125 -311 -204 -82 -69 -224 -227 -291 -323
l-23 -33 58 -77 c58 -77 273 -302 290 -302 5 0 26 -16 48 -35 21 -19 42 -35
46 -35 4 0 17 -9 30 -20 13 -11 29 -20 37 -20 7 0 13 -4 13 -10 0 -5 11 -12
25 -16 14 -3 25 -10 25 -14 0 -5 13 -11 30 -15 16 -4 32 -11 35 -16 4 -5 15
-9 26 -9 26 0 25 -33 -3 -73 -13 -18 -26 -33 -30 -35 -5 -2 -8 -10 -8 -18 0
-8 -3 -14 -7 -14 -5 0 -13 -10 -18 -23 -6 -12 -27 -53 -47 -92 -32 -62 -49
-99 -52 -115 -1 -3 -4 -9 -7 -15 -3 -5 -12 -30 -19 -55 -7 -25 -17 -50 -21
-55 -4 -6 -10 -22 -13 -35 -3 -14 -12 -52 -22 -85 -9 -33 -18 -69 -19 -80 -1
-11 -4 -31 -8 -45 -8 -30 -15 -71 -23 -125 -2 -22 -13 -98 -22 -170 -25 -188
-29 -178 80 -171 50 4 93 8 97 10 3 2 33 7 66 10 58 6 137 19 200 31 17 4 39
8 50 10 27 5 54 12 93 24 18 5 35 10 37 10 12 -1 169 54 194 67 14 8 33 14 42
14 8 0 20 5 27 12 7 7 12 8 12 3 0 -6 4 -5 8 1 4 6 36 26 72 45 36 18 67 36
70 39 3 4 26 21 52 38 49 33 88 42 88 19 0 -14 41 -98 81 -167 76 -129 296
-366 428 -458 l73 -51 37 27 c20 15 41 32 48 37 6 6 26 21 45 35 43 32 238
222 238 232 0 7 18 32 45 62 30 33 69 92 105 163 14 26 28 50 31 53 3 3 12 22
20 43 7 20 17 37 22 37 9 0 77 -39 87 -49 9 -10 64 -42 83 -48 9 -3 17 -9 17
-13 0 -8 38 -23 53 -21 4 1 7 -3 7 -8 0 -7 117 -59 150 -67 3 0 12 -3 20 -7
43 -17 145 -49 163 -52 27 -5 62 -13 62 -15 0 -1 11 -3 25 -6 14 -2 36 -7 50
-11 14 -3 29 -5 33 -4 5 1 25 -3 45 -8 34 -9 99 -18 177 -26 17 -2 55 -6 85
-10 68 -8 120 -9 127 -2 7 7 6 59 -2 127 -4 30 -8 69 -10 85 -8 79 -18 143
-26 179 -6 21 -8 40 -5 43 3 3 1 13 -3 22 -5 9 -11 35 -15 59 -3 23 -10 52
-17 63 -6 11 -8 23 -6 26 4 4 -25 98 -50 163 -4 8 -7 17 -8 20 -10 40 -80 195
-95 210 -3 3 -11 15 -17 27 -7 13 -19 33 -25 45 -7 13 -15 25 -19 28 -10 10
-49 78 -49 87 0 5 17 15 38 22 20 8 39 17 42 20 3 3 25 16 50 29 71 36 200
126 208 144 2 4 9 8 15 8 7 0 55 44 107 98 111 113 139 145 191 219 l38 55
-41 57 c-72 98 -200 238 -275 299 -120 99 -319 222 -359 222 -23 0 -16 36 18
87 18 26 35 50 38 53 3 3 21 34 39 70 19 36 39 68 45 72 6 4 7 8 2 8 -6 0 -5
5 2 12 7 7 12 19 12 28 0 8 6 27 14 42 8 14 19 43 26 65 7 21 17 44 23 51 5 6
7 12 3 12 -3 0 0 16 8 35 8 19 13 35 11 35 -2 0 1 15 6 33 12 38 19 65 24 92
2 11 6 31 9 45 12 60 27 151 31 195 3 26 9 75 14 109 5 33 9 82 10 108 2 58 0
59 -174 36 -71 -9 -148 -20 -170 -22 -54 -8 -95 -15 -125 -23 -14 -4 -34 -7
-45 -8 -11 -1 -47 -10 -80 -19 -33 -10 -71 -19 -85 -22 -13 -3 -29 -9 -35 -13
-5 -4 -30 -14 -55 -21 -25 -7 -49 -17 -55 -21 -5 -4 -14 -8 -20 -9 -26 -6 -45
-14 -110 -47 -38 -20 -80 -41 -92 -47 -13 -6 -23 -14 -23 -18 0 -5 -6 -8 -14
-8 -8 0 -16 -4 -18 -8 -5 -13 -74 -52 -92 -52 -9 0 -16 8 -16 19 0 11 -4 22
-9 26 -5 3 -12 19 -16 35 -4 17 -10 30 -15 30 -4 0 -11 11 -14 25 -4 14 -11
25 -16 25 -6 0 -10 6 -10 13 0 8 -9 24 -20 37 -11 13 -20 26 -20 30 0 4 -8 16
-18 28 -10 11 -27 33 -38 48 -50 70 -221 237 -309 302 -5 4 -26 20 -46 35 -20
15 -38 27 -40 27 -2 0 -29 -19 -59 -41z"/>
</g>
</svg>
