<?xml version="1.0" standalone="no"?>
<!DOCTYPE svg PUBLIC "-//W3C//DTD SVG 20010904//EN"
 "http://www.w3.org/TR/2001/REC-SVG-20010904/DTD/svg10.dtd">
<svg version="1.0" xmlns="http://www.w3.org/2000/svg"
 width="558.000000pt" height="558.000000pt" viewBox="0 0 558.000000 558.000000"
 preserveAspectRatio="xMidYMid meet">
<metadata>
Created by potrace 1.13, written by Peter Selinger 2001-2015
</metadata>
<g transform="translate(0.000000,558.000000) scale(0.100000,-0.100000)"
fill="#000000" stroke="none">
<path d="M2464 4713 c3 -10 30 -119 61 -242 52 -213 86 -386 100 -515 7 -64 8
-289 2 -321 -3 -11 -8 -42 -11 -70 -4 -27 -17 -85 -28 -128 -17 -62 -24 -77
-37 -72 -47 19 -226 63 -286 71 -22 3 -45 7 -52 9 -22 7 -207 19 -298 19 -210
0 -455 -28 -707 -80 -67 -14 -134 -28 -148 -30 -14 -3 -45 -10 -70 -15 -25 -6
-53 -12 -63 -14 -50 -10 -57 -17 -58 -48 -1 -18 -2 -43 -4 -57 -1 -14 -6 -81
-10 -150 -4 -69 -9 -132 -10 -140 -2 -8 -6 -73 -10 -145 -4 -71 -9 -137 -10
-145 -2 -9 -6 -93 -10 -188 -5 -121 -4 -172 3 -172 6 0 109 24 229 54 120 30
234 57 253 60 19 3 46 8 60 11 14 3 40 8 59 11 18 3 42 7 53 9 68 14 151 19
278 20 147 0 200 -4 303 -26 63 -13 65 -17 47 -94 -5 -22 -12 -62 -16 -90 -3
-27 -8 -59 -11 -70 -3 -11 -6 -110 -8 -220 -3 -179 1 -270 20 -430 6 -48 60
-369 69 -410 2 -11 24 -110 47 -220 23 -110 45 -203 48 -207 3 -4 74 -9 156
-13 83 -3 184 -7 225 -10 41 -2 156 -7 255 -10 99 -4 220 -8 268 -10 67 -3 89
-1 93 9 3 8 -24 128 -60 267 -114 443 -145 613 -151 824 -3 119 6 249 18 261
3 3 56 -6 119 -20 182 -40 289 -51 508 -51 140 0 325 9 376 19 10 2 46 7 79
10 56 7 72 9 148 21 117 20 130 22 217 40 14 2 39 7 55 10 60 10 90 16 105 20
13 4 43 9 97 19 21 4 27 16 29 59 5 123 16 368 19 407 1 25 6 101 10 170 4 69
8 150 10 180 4 61 7 169 6 187 -1 8 -23 5 -73 -8 -40 -11 -80 -21 -88 -23 -8
-2 -51 -14 -95 -25 -44 -12 -91 -24 -105 -27 -14 -2 -32 -7 -40 -10 -8 -3 -26
-8 -40 -10 -14 -3 -43 -10 -65 -16 -48 -12 -69 -17 -115 -24 -19 -3 -42 -7
-50 -9 -8 -3 -32 -7 -54 -11 -21 -3 -48 -7 -60 -10 -128 -25 -450 -21 -544 5
-17 5 -33 7 -36 3 -13 -12 -5 28 19 97 13 40 35 123 49 184 80 360 68 729 -40
1290 -33 172 -38 187 -58 188 -11 1 -32 2 -46 3 -14 2 -86 6 -160 10 -74 5
-141 9 -150 11 -8 1 -67 6 -130 10 -63 4 -122 8 -130 10 -8 2 -71 6 -140 9
-69 4 -147 9 -173 12 -44 5 -48 4 -43 -13z"/>
</g>
</svg>
