<?xml version="1.0" standalone="no"?>
<!DOCTYPE svg PUBLIC "-//W3C//DTD SVG 20010904//EN"
 "http://www.w3.org/TR/2001/REC-SVG-20010904/DTD/svg10.dtd">
<svg version="1.0" xmlns="http://www.w3.org/2000/svg"
 width="512.000000pt" height="512.000000pt" viewBox="0 0 512.000000 512.000000"
 preserveAspectRatio="xMidYMid meet">
<metadata>
Created by potrace 1.13, written by Peter Selinger 2001-2015
</metadata>
<g transform="translate(0.000000,512.000000) scale(0.100000,-0.100000)"
fill="#000000" stroke="none">
<path d="M840 4317 c-14 -12 -33 -32 -43 -43 -18 -21 -18 -23 0 -56 10 -19 31
-48 46 -64 15 -16 34 -36 42 -45 8 -9 15 -21 15 -27 0 -7 5 -12 10 -12 6 0 16
-11 22 -25 6 -14 17 -25 25 -25 7 0 13 -4 13 -9 0 -6 24 -38 53 -73 68 -79 84
-108 62 -108 -14 0 -14 -3 -1 -29 14 -26 183 -204 246 -257 54 -47 84 -94 60
-94 -29 0 44 -81 160 -178 28 -24 39 -40 36 -55 -4 -23 53 -84 127 -134 25
-17 37 -33 37 -49 0 -13 3 -24 8 -24 4 0 18 -10 32 -23 14 -13 41 -32 60 -43
52 -28 80 -51 74 -57 -8 -7 85 -67 103 -67 7 0 13 -4 13 -10 0 -5 9 -10 20
-10 11 0 20 -4 20 -8 0 -5 11 -14 25 -20 14 -6 25 -16 25 -21 0 -11 -96 -7
-169 8 -40 8 -57 8 -61 0 -5 -7 -25 -8 -56 -4 -85 11 -88 11 -89 -5 -1 -16 -2
-16 -87 -7 -53 7 -57 6 -60 -15 -3 -21 -9 -23 -73 -25 -111 -3 -102 -2 -85
-13 13 -9 12 -12 -5 -22 -11 -7 -38 -13 -60 -14 -109 -3 -107 -3 -100 -23 10
-32 -35 -47 -142 -50 -52 -1 -38 -18 20 -25 90 -11 130 -25 124 -46 -4 -14 3
-19 32 -24 20 -3 55 -6 77 -6 42 0 72 -20 60 -39 -4 -6 22 -11 71 -13 68 -3
78 -5 77 -21 -2 -17 5 -18 72 -13 62 5 75 3 83 -11 8 -15 15 -15 65 -4 42 9
60 10 70 1 15 -12 66 -8 106 7 14 6 34 7 45 3 11 -4 28 -3 38 2 24 13 48 3 41
-17 -3 -8 -10 -13 -14 -10 -5 3 -14 0 -22 -7 -7 -7 -37 -24 -65 -37 -29 -14
-53 -28 -53 -33 0 -4 -11 -10 -25 -14 -14 -4 -25 -13 -25 -23 0 -10 -18 -28
-42 -41 -24 -13 -48 -29 -55 -34 -6 -6 -25 -22 -42 -35 -19 -14 -31 -32 -31
-46 0 -14 -8 -26 -19 -30 -17 -5 -76 -55 -127 -106 -12 -11 -20 -28 -17 -38 4
-17 -9 -33 -82 -96 -92 -79 -140 -135 -115 -135 32 0 -30 -83 -92 -122 -14
-10 -39 -35 -55 -57 -15 -23 -32 -41 -36 -41 -18 0 -135 -139 -120 -141 4 -1
11 -1 15 0 4 0 5 -9 3 -20 -4 -20 -50 -77 -102 -127 -13 -13 -20 -28 -17 -34
4 -7 2 -8 -4 -4 -7 4 -12 4 -12 -1 0 -4 -15 -25 -33 -45 -62 -70 -77 -90 -77
-101 0 -5 -3 -7 -6 -4 -7 7 -29 -20 -58 -72 -19 -34 -19 -35 0 -50 11 -9 21
-19 22 -23 1 -5 4 -8 7 -8 3 0 14 -9 25 -20 19 -19 19 -19 62 5 24 13 50 33
58 44 8 12 20 21 27 21 6 0 16 6 20 14 4 7 35 35 68 61 33 26 65 53 70 59 46
50 172 132 151 97 -12 -19 19 -12 50 12 17 12 50 42 75 67 25 25 56 54 69 65
14 11 40 39 57 61 46 59 101 98 117 85 9 -7 22 -3 49 16 20 14 37 30 37 35 0
4 18 26 40 48 22 22 40 43 40 46 0 14 45 44 66 44 12 0 35 14 51 32 15 17 38
42 51 55 12 13 22 28 22 33 0 6 5 10 10 10 6 0 10 7 10 15 0 8 6 16 13 16 6 1
17 2 24 3 17 2 72 65 95 110 23 45 36 59 61 69 9 3 17 11 17 16 0 6 14 33 30
61 17 28 30 57 30 65 0 8 4 15 9 15 5 0 13 9 16 20 3 11 13 20 21 20 16 0 18
-18 5 -39 -6 -9 -6 -22 -1 -32 6 -10 5 -30 -1 -50 -16 -53 -20 -109 -8 -109
10 0 5 -77 -7 -122 -4 -12 0 -18 10 -18 14 0 18 -7 18 -30 1 -3 -2 -31 -6 -62
-6 -53 -4 -58 13 -58 25 0 29 -12 29 -90 0 -53 3 -64 15 -62 23 4 30 -14 34
-96 4 -81 8 -95 24 -72 8 13 12 12 24 -4 8 -11 15 -27 16 -35 1 -9 3 -29 5
-46 3 -16 5 -42 6 -58 3 -43 15 -18 28 58 13 78 25 101 45 85 11 -9 15 3 20
57 9 105 13 116 35 110 18 -4 19 2 22 72 3 67 5 76 21 74 17 -1 19 5 14 73 -4
60 -2 76 10 83 13 7 14 18 8 57 -5 27 -9 54 -10 59 -1 6 3 16 8 23 6 7 6 31 2
55 -4 23 -9 62 -11 87 -1 25 -6 55 -9 68 -13 40 21 25 45 -20 64 -123 92 -167
105 -162 7 3 16 -3 20 -15 3 -12 11 -21 16 -21 5 0 9 -7 9 -16 0 -8 6 -22 13
-29 6 -8 26 -32 42 -54 17 -23 40 -41 54 -43 15 -2 31 -16 42 -38 11 -19 19
-31 19 -26 0 5 10 -4 22 -20 41 -55 72 -80 94 -76 15 3 30 -8 55 -38 19 -23
58 -67 88 -97 46 -45 59 -53 81 -48 21 5 33 -2 65 -35 82 -84 130 -130 137
-130 5 0 8 -5 8 -12 0 -6 19 -27 42 -47 62 -54 91 -72 98 -60 14 21 57 -7 169
-109 25 -23 54 -45 64 -48 9 -3 17 -12 17 -20 0 -8 4 -14 8 -14 11 0 48 -28
85 -65 34 -32 89 -65 111 -65 8 0 17 7 20 16 3 8 10 12 16 9 5 -3 10 1 10 10
0 8 7 18 15 21 8 4 15 12 15 20 0 23 -37 85 -67 114 -15 14 -35 36 -43 49 -8
12 -26 35 -40 50 -14 15 -47 54 -75 86 -27 32 -60 69 -72 83 -13 14 -23 28
-23 33 0 4 -3 15 -7 25 -4 12 -3 15 5 10 7 -4 12 -4 12 1 0 24 -112 153 -133
153 -5 0 -8 2 -5 6 3 3 -15 25 -41 50 -125 121 -122 117 -116 145 5 23 -2 35
-48 81 -30 29 -73 68 -96 86 -30 25 -41 41 -41 61 0 20 -12 38 -41 64 -22 21
-46 37 -51 37 -6 0 -8 3 -5 6 4 4 -8 15 -26 24 -19 11 -34 27 -37 43 -3 14
-23 39 -45 56 -22 17 -45 35 -52 41 -7 5 -19 10 -28 10 -8 0 -15 4 -15 9 0 5
-9 13 -21 16 -12 4 -18 13 -15 20 5 13 -39 41 -161 105 -46 24 -61 58 -20 45
12 -3 42 -8 67 -9 25 -2 64 -7 87 -11 24 -4 48 -4 55 2 7 5 18 9 23 8 6 -1 32
-5 59 -10 39 -6 50 -5 57 8 7 12 23 14 83 10 68 -5 74 -3 73 14 -2 16 7 18 74
21 70 3 76 4 72 22 -6 22 5 26 110 35 54 5 66 9 57 20 -17 20 9 34 94 47 42 6
73 15 69 19 -5 4 -36 10 -71 13 -63 6 -102 19 -102 36 0 4 6 10 13 13 26 9 -2
17 -75 20 -84 5 -101 11 -94 35 5 15 -3 17 -62 16 -81 -1 -92 2 -92 28 0 18
-5 19 -57 13 -32 -4 -60 -7 -63 -7 -22 0 -30 4 -30 17 0 11 -7 14 -22 11 -64
-13 -118 -16 -118 -7 0 12 -57 7 -109 -8 -20 -6 -40 -7 -50 -1 -10 5 -23 5
-32 -1 -21 -13 -39 -11 -39 6 0 8 4 15 9 15 5 0 17 7 25 16 9 8 25 16 36 17
11 1 20 4 20 7 0 3 25 18 55 34 30 15 55 34 55 42 0 7 24 27 53 44 65 36 132
94 124 107 -5 9 35 53 48 53 2 0 15 10 28 23 13 12 38 35 55 50 19 17 32 38
32 52 0 14 10 33 23 45 12 11 41 38 64 59 24 22 48 43 56 48 7 4 23 21 35 37
16 22 19 32 11 42 -14 16 25 70 85 117 22 17 50 43 61 57 11 13 40 44 65 69
25 25 55 58 67 75 24 31 31 62 12 50 -35 -21 47 105 97 151 6 5 33 37 59 70
26 33 54 64 61 68 8 4 14 13 14 20 0 6 11 21 24 32 13 11 33 39 45 62 l21 42
-23 16 c-12 8 -21 18 -19 20 1 3 0 5 -3 5 -3 0 -14 9 -25 20 l-21 21 -29 -21
c-17 -12 -30 -18 -30 -13 0 4 -13 -7 -29 -25 -17 -17 -34 -32 -38 -32 -5 0
-16 -8 -25 -17 -8 -10 -35 -34 -59 -53 -44 -36 -73 -61 -146 -124 -38 -34 -84
-55 -82 -38 4 22 -5 20 -43 -10 -37 -29 -55 -46 -104 -101 -7 -6 -30 -28 -53
-47 -22 -19 -41 -40 -41 -46 0 -6 -21 -30 -47 -53 -46 -40 -73 -52 -73 -31 0
15 -28 -1 -68 -39 -19 -19 -30 -37 -26 -44 4 -7 4 -9 -1 -5 -8 7 -75 -56 -75
-71 0 -14 -50 -43 -64 -38 -7 3 -23 -4 -35 -16 -55 -57 -79 -85 -96 -114 -12
-21 -27 -33 -41 -33 -19 0 -48 -27 -81 -77 -50 -73 -61 -92 -56 -97 3 -2 -4
-2 -16 1 -15 4 -21 1 -21 -10 0 -9 -6 -22 -14 -30 -8 -8 -25 -36 -37 -63 -13
-27 -29 -55 -36 -62 -7 -8 -11 -17 -8 -22 3 -4 -2 -11 -10 -14 -20 -7 -31 20
-16 38 8 9 8 22 2 37 -5 15 -5 34 1 49 16 40 20 91 8 106 -9 10 -8 28 1 70 11
49 11 57 -3 65 -13 7 -15 22 -12 83 4 66 3 74 -13 72 -16 -1 -18 9 -21 77 -2
61 -6 78 -16 74 -22 -9 -36 14 -36 58 0 22 -3 56 -6 76 -5 29 -10 36 -24 32
-21 -6 -35 34 -46 125 -7 50 -25 75 -23 30 2 -40 -10 -117 -21 -138 -8 -15
-17 -19 -31 -15 -20 7 -20 9 -23 -100 -1 -22 -7 -49 -14 -60 -10 -17 -13 -18
-22 -5 -11 17 -11 18 -13 -80 -2 -70 -4 -75 -25 -78 -23 -4 -23 -7 -7 -113 3
-21 -1 -28 -16 -32 -15 -4 -19 -11 -15 -24 13 -45 17 -116 7 -122 -8 -5 -8
-22 0 -62 15 -73 19 -169 8 -169 -5 0 -15 11 -21 25 -6 14 -15 25 -20 25 -4 0
-8 9 -8 19 0 11 -5 21 -11 23 -5 2 -11 10 -12 18 -5 26 -52 100 -62 97 -11 -4
-42 32 -47 54 -3 13 -7 20 -36 54 -7 8 -11 15 -8 15 3 0 -6 11 -20 25 -14 14
-33 25 -43 25 -10 0 -27 12 -37 28 -9 15 -39 52 -66 83 -37 43 -54 56 -73 54
-18 -2 -33 7 -57 36 -93 113 -178 188 -178 159 0 -6 -3 -10 -7 -10 -11 0 -62
41 -87 70 -53 63 -231 232 -257 246 -26 13 -29 13 -29 -1 0 -13 -4 -14 -22 -4
-25 13 -123 93 -205 169 -13 11 -27 20 -33 20 -5 0 -15 9 -22 20 -7 11 -17 20
-23 20 -6 0 -17 9 -25 21 -8 11 -31 27 -50 36 -19 9 -37 17 -40 19 -3 1 -16
-8 -30 -19z"/>
</g>
</svg>
