<?xml version="1.0" standalone="no"?>
<!DOCTYPE svg PUBLIC "-//W3C//DTD SVG 20010904//EN"
 "http://www.w3.org/TR/2001/REC-SVG-20010904/DTD/svg10.dtd">
<svg version="1.0" xmlns="http://www.w3.org/2000/svg"
 width="512.000000pt" height="512.000000pt" viewBox="0 0 512.000000 512.000000"
 preserveAspectRatio="xMidYMid meet">
<metadata>
Created by potrace 1.13, written by Peter Selinger 2001-2015
</metadata>
<g transform="translate(0.000000,512.000000) scale(0.100000,-0.100000)"
fill="#000000" stroke="none">
<path d="M3337 5014 c-21 -14 -43 -36 -49 -49 -6 -14 -15 -25 -20 -25 -5 0 -7
-4 -4 -9 4 -5 -2 -7 -12 -4 -27 7 -40 -16 -44 -72 l-3 -50 -40 -1 c-71 -1 -68
1 -61 -55 8 -58 -3 -79 -41 -79 -18 0 -24 -4 -20 -15 10 -25 -28 -60 -65 -60
l-33 0 3 -47 c3 -51 -3 -59 -58 -68 -29 -5 -35 -10 -32 -28 8 -72 10 -67 -28
-65 -71 5 -80 -1 -77 -60 2 -47 0 -52 -18 -50 -39 5 -47 -9 -33 -60 16 -63 1
-80 -56 -67 -65 14 -71 2 -26 -55 34 -43 38 -73 12 -101 -26 -29 -40 -67 -36
-99 2 -20 -4 -38 -19 -53 -14 -15 -20 -33 -19 -53 4 -48 -27 -33 -68 34 -44
72 -121 129 -105 76 10 -30 -3 -106 -21 -124 -9 -9 -25 -12 -42 -9 -23 5 -30
1 -40 -20 -6 -14 -18 -26 -26 -26 -20 0 -40 28 -42 57 -1 16 -17 41 -40 63
-39 37 -54 45 -104 54 -49 9 -114 37 -132 56 -18 19 -18 20 0 20 24 0 42 19
42 45 0 30 -19 45 -56 45 -33 0 -141 50 -155 72 -5 7 -9 23 -9 34 0 22 -120
144 -141 144 -5 0 -7 5 -4 10 3 6 -2 13 -12 17 -24 8 -72 55 -73 70 0 22 -43
53 -72 53 -18 0 -47 14 -74 34 -44 34 -48 35 -117 31 -39 -2 -77 1 -84 6 -6 6
-42 15 -78 20 -38 5 -80 18 -95 29 -41 29 -50 25 -50 -20 0 -50 -13 -56 -81
-40 -47 11 -53 11 -71 -7 -11 -11 -22 -38 -25 -59 -3 -22 -8 -46 -12 -54 -8
-16 -7 -37 4 -86 7 -30 6 -31 -20 -26 -35 6 -45 -10 -45 -76 0 -66 -14 -73
-79 -42 -38 17 -53 20 -68 11 -21 -11 -38 -55 -28 -71 4 -6 2 -10 -4 -10 -5 0
-13 5 -16 10 -8 13 -52 13 -60 0 -4 -6 10 -36 31 -66 35 -50 37 -58 27 -85
-11 -28 -9 -33 16 -60 17 -17 38 -29 54 -29 31 0 73 -37 82 -72 4 -14 24 -46
45 -72 22 -26 42 -62 46 -81 5 -29 42 -74 62 -75 4 -1 18 -10 31 -20 34 -29
16 -59 -31 -51 -12 2 -9 -13 6 -34 7 -10 11 -27 8 -37 -6 -26 33 -104 64 -125
15 -10 48 -37 74 -61 43 -38 52 -42 82 -37 31 6 37 2 106 -74 41 -45 77 -79
82 -76 5 3 32 -15 60 -40 28 -25 55 -45 60 -45 12 0 13 -90 1 -109 -7 -11 -15
-10 -45 8 l-36 22 -12 -26 c-10 -22 -9 -31 5 -53 9 -15 21 -26 27 -24 6 1 8
-7 4 -22 -4 -17 1 -34 17 -56 29 -39 19 -60 -38 -78 -34 -11 -41 -19 -49 -50
-9 -34 -11 -37 -54 -40 -58 -4 -71 -9 -69 -24 5 -39 -17 -53 -86 -53 l-40 0 3
-40 c3 -39 2 -40 -37 -52 -51 -16 -76 -16 -118 -1 -40 14 -47 8 -48 -40 l0
-37 -55 -5 -55 -5 2 -44 c2 -42 1 -43 -25 -36 -70 17 -87 17 -106 -4 -12 -13
-17 -30 -14 -51 l5 -30 -31 18 -31 19 -77 -78 c-43 -43 -78 -79 -78 -81 0 -2
4 -18 10 -37 12 -41 5 -54 -19 -39 -32 20 -51 3 -51 -44 0 -61 -9 -69 -63 -65
-27 2 -48 -1 -50 -7 -2 -6 7 -28 21 -48 19 -30 24 -50 24 -107 0 -75 -11 -101
-44 -101 -28 0 -15 -37 28 -78 30 -28 39 -32 72 -26 35 5 43 2 93 -41 75 -64
83 -83 85 -191 1 -50 7 -100 12 -110 6 -11 37 -27 72 -38 80 -26 96 -17 92 48
-4 57 11 60 57 12 18 -19 40 -33 49 -31 10 2 22 4 28 4 6 1 22 12 36 25 16 17
41 27 74 31 27 4 58 15 69 26 13 11 34 18 56 17 19 0 47 6 61 16 28 18 43 15
101 -21 53 -33 71 -25 62 28 l-7 41 42 -7 c35 -6 45 -3 64 14 17 16 29 20 47
14 13 -5 31 -8 39 -7 8 1 22 2 31 3 24 2 126 98 133 126 4 14 10 24 14 23 4
-1 19 4 34 10 15 6 38 13 51 14 27 4 121 98 138 140 14 35 29 35 71 1 55 -46
58 -55 28 -80 -27 -23 -25 -34 10 -63 17 -14 30 -31 30 -38 0 -8 6 -12 13 -10
6 3 12 17 12 32 1 69 115 75 157 8 10 -15 23 -35 30 -44 11 -15 9 -20 -10 -33
-29 -21 -28 -42 7 -97 16 -25 32 -65 36 -89 4 -24 14 -55 22 -67 25 -41 35
-113 20 -149 -7 -17 -4 -31 13 -60 17 -28 23 -52 22 -93 0 -33 5 -64 14 -78 8
-12 23 -50 34 -84 17 -56 18 -65 4 -85 -16 -26 -12 -38 38 -107 15 -21 28 -50
28 -64 0 -60 105 -202 149 -202 39 0 102 -42 141 -94 22 -30 48 -57 59 -61 10
-3 22 -12 25 -20 4 -11 23 -15 73 -15 88 0 118 15 118 58 0 37 19 54 49 43 12
-4 27 -6 34 -5 6 1 17 2 23 3 8 1 9 14 6 38 -12 75 26 80 108 12 26 -21 50
-39 54 -40 3 0 37 -1 75 -2 l68 -1 4 47 c1 27 8 55 15 63 6 8 16 56 20 106 9
91 9 92 -21 137 -17 25 -29 50 -27 55 2 6 18 17 35 25 38 17 39 23 11 68 -21
33 -21 36 -5 98 9 35 16 77 16 93 0 16 5 44 11 61 10 28 8 40 -11 82 -13 27
-21 51 -18 54 3 3 18 8 34 11 45 8 51 20 29 62 -11 20 -23 39 -27 42 -4 3 -10
24 -13 45 -6 52 -30 159 -38 172 -4 6 -9 27 -12 48 -2 20 -20 58 -38 84 -30
41 -34 55 -35 109 0 44 3 60 11 56 7 -4 35 -22 64 -42 64 -43 82 -38 83 20 1
61 0 68 -6 114 -6 46 8 84 32 84 8 0 39 -9 69 -19 68 -24 95 -19 95 18 0 43
10 43 41 2 39 -54 65 -61 94 -25 22 28 24 28 43 11 26 -24 52 -25 101 -3 29
14 44 16 53 8 14 -11 110 -38 173 -48 22 -3 58 -15 79 -25 22 -10 52 -19 67
-19 16 0 40 -5 54 -12 20 -9 32 -8 58 4 33 16 34 15 78 -18 62 -47 81 -45 77
7 l-3 41 102 -1 c93 0 104 2 125 23 21 21 45 33 73 37 6 1 20 16 32 34 28 42
65 65 103 65 64 0 89 53 81 167 -2 30 1 33 27 33 40 0 44 7 26 49 -9 20 -20
51 -26 69 -5 18 -25 51 -44 72 -37 41 -37 59 0 90 9 7 16 22 16 34 0 24 38 66
58 66 8 0 12 20 12 60 0 50 -3 60 -17 61 -10 1 -25 3 -33 4 -8 1 -22 3 -32 4
-9 0 -36 21 -60 44 -52 53 -68 59 -108 45 -27 -9 -34 -7 -55 12 -18 17 -31 21
-51 16 -21 -6 -39 1 -82 29 -45 31 -60 36 -89 30 -43 -8 -93 21 -124 71 -28
46 -94 94 -129 94 -15 0 -47 7 -70 15 -49 17 -64 10 -75 -33 l-7 -26 -35 42
c-40 48 -68 54 -85 17 -20 -45 -59 -45 -182 2 -37 14 -50 15 -53 6 -5 -15 -42
-17 -76 -4 -28 11 -38 5 -54 -29 -10 -22 -10 -19 -6 20 3 25 16 65 29 89 34
61 31 71 -15 71 -36 0 -90 27 -127 65 -8 7 -18 15 -24 17 -6 2 -8 11 -5 20 5
12 16 16 46 13 43 -5 50 7 22 37 -14 15 -14 24 -4 57 6 21 8 46 5 55 -3 9 4
25 18 39 43 44 73 128 63 180 -9 48 6 71 64 96 l50 21 -5 76 -5 75 31 10 c20
7 32 20 37 37 3 15 17 43 30 63 18 27 22 45 19 77 -3 39 -2 42 20 42 31 0 45
29 40 81 -5 54 9 77 43 71 25 -4 25 -4 6 11 -11 8 -23 13 -26 11 -4 -2 -9 5
-12 15 -3 12 6 36 21 58 14 21 25 40 23 43 -18 30 -24 49 -23 77 1 18 -7 51
-18 75 -10 23 -16 46 -13 51 2 4 -2 23 -11 41 -9 18 -21 50 -28 71 -10 31 -24
46 -68 71 -30 18 -66 44 -79 57 -23 25 -24 26 -63 10 -38 -15 -41 -15 -80 7
-45 25 -81 18 -93 -19 -9 -29 -32 -26 -49 7 -18 33 -60 79 -104 111 -35 26
-37 45 -6 47 10 1 25 2 32 3 34 3 -8 62 -44 60 -10 0 -36 -11 -57 -25z"/>
</g>
</svg>
