<?xml version="1.0" standalone="no"?>
<!DOCTYPE svg PUBLIC "-//W3C//DTD SVG 20010904//EN"
 "http://www.w3.org/TR/2001/REC-SVG-20010904/DTD/svg10.dtd">
<svg version="1.0" xmlns="http://www.w3.org/2000/svg"
 width="558.000000pt" height="558.000000pt" viewBox="0 0 558.000000 558.000000"
 preserveAspectRatio="xMidYMid meet">
<metadata>
Created by potrace 1.13, written by Peter Selinger 2001-2015
</metadata>
<g transform="translate(0.000000,558.000000) scale(0.100000,-0.100000)"
fill="#000000" stroke="none">
<path d="M2860 4599 c-186 -149 -356 -253 -765 -464 -395 -205 -570 -306 -797
-462 -153 -106 -172 -122 -139 -124 11 -1 24 -2 29 -3 4 -1 34 -6 67 -10 70
-9 119 -16 148 -22 13 -2 63 24 136 70 221 139 348 205 706 368 274 125 434
207 554 285 46 30 86 52 88 49 12 -11 53 -249 68 -386 9 -87 7 -319 -5 -398
-30 -214 -98 -389 -203 -525 l-30 -38 -51 49 c-122 118 -294 216 -492 281
-106 34 -145 44 -254 66 -14 3 -50 8 -80 11 -30 3 -61 8 -69 10 -65 21 -846
26 -879 5 -8 -5 -3 -32 13 -85 13 -43 26 -90 29 -105 3 -14 9 -42 15 -61 6
-19 12 -46 15 -60 3 -14 16 -79 30 -145 14 -66 27 -131 29 -145 13 -72 27
-148 31 -175 91 -565 178 -943 322 -1396 9 -30 20 -58 24 -62 8 -9 31 29 123
203 l56 106 -54 197 c-47 172 -93 366 -108 462 -3 17 -10 62 -17 100 -17 109
-18 117 -25 165 -3 25 -10 77 -15 115 -5 39 -12 93 -15 120 -4 28 -8 64 -10
80 -3 17 -7 53 -10 80 -4 28 -9 66 -11 85 -6 42 -32 193 -40 235 -4 17 -7 41
-8 55 l-1 25 135 -1 c214 -1 344 -12 500 -44 183 -38 338 -99 472 -186 70 -45
188 -149 188 -165 0 -5 -21 -20 -48 -33 -41 -21 -131 -86 -211 -151 -54 -45
-188 -208 -256 -310 -103 -154 -164 -279 -280 -575 -18 -46 -96 -274 -96 -280
0 -6 -94 -306 -120 -381 -10 -30 -19 -60 -19 -65 0 -7 97 -10 278 -10 244 1
525 -8 594 -19 13 -2 64 -6 113 -10 50 -3 133 -10 185 -15 52 -5 142 -12 200
-15 58 -4 116 -8 130 -11 22 -3 176 -9 517 -18 50 -2 97 0 103 4 7 5 -1 17
-22 35 -18 15 -63 54 -99 86 -122 108 -101 101 -319 114 -52 3 -113 8 -135 10
-188 20 -273 31 -495 61 -285 39 -303 41 -377 49 -124 12 -154 15 -278 21 -71
3 -132 8 -134 10 -5 4 73 229 131 374 128 322 261 540 434 713 69 68 221 185
228 176 1 -2 10 -42 20 -89 76 -363 322 -731 721 -1076 44 -38 89 -77 100 -87
44 -40 484 -390 491 -391 8 -1 20 37 29 94 10 60 54 250 80 345 14 50 27 99
30 109 17 71 133 383 185 501 181 405 403 965 388 980 -2 2 -64 -39 -137 -93
l-132 -97 -34 -78 c-33 -76 -183 -379 -222 -447 -57 -100 -88 -160 -166 -313
-47 -92 -86 -170 -87 -172 0 -3 -9 -25 -19 -49 -36 -82 -94 -241 -111 -299
l-16 -59 -95 73 c-351 270 -577 513 -717 770 -68 127 -126 301 -139 423 -5 45
-4 49 13 42 58 -23 174 -57 242 -72 85 -19 335 -27 417 -14 28 4 71 11 96 14
79 11 291 73 415 121 149 59 380 178 594 308 91 55 177 107 192 116 16 9 28
21 28 26 0 6 -33 30 -72 55 -100 61 -188 121 -288 199 -83 64 -104 82 -159
129 -14 13 -188 184 -386 381 -198 196 -407 398 -465 447 -127 109 -260 214
-271 214 -4 0 -4 -12 1 -27 5 -16 18 -71 30 -125 l21 -96 69 -59 c68 -58 314
-303 400 -398 25 -28 90 -102 145 -165 231 -266 393 -427 547 -542 35 -26 44
-38 35 -47 -6 -6 -14 -11 -18 -11 -4 0 -44 -23 -89 -51 -201 -124 -522 -269
-651 -294 -13 -3 -55 -12 -94 -20 -153 -33 -333 -39 -467 -15 -72 13 -198 48
-198 56 0 3 27 40 59 82 122 160 197 346 226 562 4 30 9 64 12 75 10 47 2 339
-11 445 -16 116 -61 362 -73 390 -3 8 -8 23 -9 32 -2 10 -13 53 -25 95 -53
201 -67 243 -78 243 -3 0 -40 -27 -81 -61z"/>
</g>
</svg>
