<?xml version="1.0" standalone="no"?>
<!DOCTYPE svg PUBLIC "-//W3C//DTD SVG 20010904//EN"
 "http://www.w3.org/TR/2001/REC-SVG-20010904/DTD/svg10.dtd">
<svg version="1.0" xmlns="http://www.w3.org/2000/svg"
 width="558.000000pt" height="558.000000pt" viewBox="0 0 558.000000 558.000000"
 preserveAspectRatio="xMidYMid meet">
<metadata>
Created by potrace 1.13, written by Peter Selinger 2001-2015
</metadata>
<g transform="translate(0.000000,558.000000) scale(0.100000,-0.100000)"
fill="#000000" stroke="none">
<path d="M2330 4686 c0 -8 34 -255 75 -548 42 -293 78 -551 81 -573 3 -22 7
-51 9 -65 2 -14 7 -45 10 -70 3 -25 8 -56 10 -70 2 -14 7 -45 10 -70 3 -25 13
-89 21 -142 20 -137 20 -139 -13 -134 -27 4 -58 8 -198 21 -33 3 -76 8 -95 10
-19 2 -66 7 -105 10 -38 4 -81 8 -95 10 -14 2 -59 6 -100 10 -41 4 -86 8 -100
10 -106 15 -982 97 -986 92 -3 -3 6 -18 21 -34 50 -53 115 -151 149 -225 101
-219 62 -447 -114 -665 -61 -75 -65 -81 -60 -86 3 -2 79 4 170 13 91 10 197
21 235 24 39 4 86 9 105 11 31 4 232 24 400 41 30 3 71 7 90 9 19 3 105 11
190 20 85 8 175 17 200 20 133 14 161 17 230 24 41 5 77 7 79 4 4 -3 -35 -310
-55 -438 -5 -38 -13 -90 -24 -175 -6 -47 -13 -96 -15 -110 -2 -14 -9 -63 -15
-110 -6 -47 -13 -96 -15 -110 -2 -14 -9 -63 -15 -110 -6 -47 -13 -96 -15 -110
-2 -14 -9 -63 -15 -110 -6 -47 -13 -94 -14 -105 -16 -93 -38 -287 -33 -291 2
-3 18 7 33 22 62 58 177 145 238 179 277 154 501 93 709 -195 l18 -25 -6 45
c-3 25 -8 59 -10 75 -6 36 -72 474 -80 530 -4 22 -10 67 -15 100 -5 33 -12 78
-15 100 -4 22 -10 67 -15 100 -5 33 -12 76 -15 95 -9 66 -76 505 -80 530 -2
14 -6 45 -10 69 -6 39 -5 42 11 38 11 -3 60 -8 109 -12 50 -3 97 -8 105 -10 8
-2 53 -6 100 -10 47 -3 99 -8 115 -10 17 -2 62 -7 100 -10 39 -3 88 -8 110
-10 22 -3 65 -7 95 -10 30 -2 152 -14 270 -25 118 -11 240 -22 270 -25 30 -3
78 -7 105 -10 78 -8 134 -13 215 -20 41 -4 85 -8 98 -10 33 -5 26 4 -48 66
-75 64 -130 138 -162 218 -18 45 -22 76 -22 161 0 92 4 115 30 186 36 97 95
203 169 302 30 40 55 76 55 80 0 5 -35 5 -77 1 -43 -4 -107 -10 -143 -14 -36
-3 -85 -8 -110 -10 -25 -2 -99 -9 -165 -15 -66 -6 -136 -13 -155 -15 -19 -2
-64 -6 -100 -9 -58 -5 -187 -17 -340 -32 -30 -3 -75 -7 -100 -9 -25 -3 -99 -9
-165 -15 -66 -6 -136 -13 -155 -15 -19 -2 -71 -7 -115 -10 -44 -4 -88 -9 -97
-11 -10 -3 -18 -3 -18 0 0 2 59 378 130 835 72 456 130 833 130 837 0 4 -36
-32 -80 -79 -142 -151 -248 -202 -405 -195 -73 4 -105 11 -168 37 -91 39 -185
100 -279 184 -43 37 -68 53 -68 43z"/>
</g>
</svg>
