<?xml version="1.0" standalone="no"?>
<!DOCTYPE svg PUBLIC "-//W3C//DTD SVG 20010904//EN"
 "http://www.w3.org/TR/2001/REC-SVG-20010904/DTD/svg10.dtd">
<svg version="1.0" xmlns="http://www.w3.org/2000/svg"
 width="512.000000pt" height="512.000000pt" viewBox="0 0 512.000000 512.000000"
 preserveAspectRatio="xMidYMid meet">
<metadata>
Created by potrace 1.13, written by Peter Selinger 2001-2015
</metadata>
<g transform="translate(0.000000,512.000000) scale(0.100000,-0.100000)"
fill="#000000" stroke="none">
<path d="M2445 4601 c-3 -6 -3 -28 1 -49 5 -35 3 -41 -15 -47 -12 -3 -37 -1
-57 5 -30 10 -39 10 -52 -4 -14 -14 -14 -21 -3 -51 17 -48 7 -58 -32 -35 -18
11 -40 20 -50 20 -21 0 -59 -59 -52 -80 4 -12 -3 -16 -28 -18 -17 -1 -60 -17
-94 -34 -68 -35 -78 -55 -63 -124 5 -23 8 -63 7 -91 -1 -38 3 -56 17 -72 15
-16 17 -29 12 -62 -4 -24 -2 -55 6 -75 10 -29 9 -36 -6 -53 -17 -19 -18 -22
-2 -46 9 -13 27 -32 41 -41 51 -34 44 -82 -10 -60 -18 8 -35 12 -38 10 -3 -3
0 -22 5 -42 5 -20 12 -53 15 -72 7 -48 54 -137 97 -185 20 -22 36 -45 36 -52
0 -14 -19 -27 -40 -28 -27 0 -22 -41 8 -72 23 -23 29 -36 25 -57 -4 -19 1 -34
17 -51 13 -14 26 -22 30 -20 4 3 10 -4 13 -15 3 -11 12 -20 20 -20 11 0 14 -8
10 -30 -4 -27 3 -38 59 -93 35 -34 72 -72 82 -84 l17 -21 -36 8 c-45 10 -62
25 -83 69 -18 38 -52 52 -76 32 -10 -8 -21 6 -50 62 -60 118 -73 137 -99 137
-30 0 -57 -29 -57 -61 0 -19 -2 -21 -10 -9 -5 8 -10 27 -10 41 0 34 -34 71
-91 100 -26 14 -65 47 -90 78 -54 67 -67 72 -71 29 -4 -49 -40 -51 -62 -4 -18
38 -64 81 -98 91 -13 4 -38 19 -57 33 -18 14 -52 27 -75 29 -25 3 -55 16 -79
34 -58 46 -101 61 -132 47 -20 -9 -34 -9 -61 1 -19 7 -73 13 -119 14 -89 2
-97 -2 -75 -43 8 -14 4 -21 -17 -36 -15 -9 -41 -20 -58 -24 -25 -5 -29 -11
-27 -31 8 -56 10 -54 -49 -54 -32 0 -60 -3 -64 -7 -5 -4 -8 -25 -9 -45 -1 -35
-3 -38 -33 -41 -46 -5 -58 -23 -43 -68 17 -49 4 -61 -48 -46 -22 7 -42 12 -46
12 -17 0 -2 -41 33 -93 39 -57 40 -59 34 -127 -4 -42 -1 -80 5 -97 7 -15 14
-44 17 -63 3 -19 19 -58 36 -86 16 -28 29 -64 29 -80 0 -29 12 -57 24 -55 12
2 71 -26 119 -57 49 -31 54 -32 95 -18 18 6 30 1 58 -23 19 -17 41 -32 49 -32
17 -2 24 -3 45 -11 38 -15 64 -16 84 -3 23 15 26 14 97 -32 34 -23 69 -30 69
-15 0 5 14 9 31 10 19 0 39 10 54 26 25 27 32 26 85 -1 14 -7 34 -13 44 -13
11 0 35 -5 53 -12 29 -10 39 -10 67 6 34 18 34 18 85 -10 l51 -29 35 19 c19
11 35 25 35 33 0 7 3 12 8 11 4 -1 19 6 34 15 23 16 30 17 60 4 44 -18 153
-13 175 8 19 20 57 16 61 -7 2 -12 -2 -15 -15 -12 -11 3 -30 -6 -48 -23 -19
-18 -43 -30 -65 -32 -19 -2 -39 -9 -43 -17 -8 -14 -74 -46 -118 -57 -14 -4
-31 -18 -38 -33 -6 -15 -15 -24 -18 -20 -4 3 -15 -1 -25 -11 -10 -9 -18 -13
-18 -9 0 4 -14 -4 -31 -18 -17 -14 -38 -26 -47 -26 -9 0 -36 -21 -58 -47 l-42
-48 -47 23 c-26 13 -50 20 -53 18 -3 -3 1 -24 8 -47 17 -50 7 -70 -40 -83 -25
-8 -37 -19 -48 -48 -16 -39 -22 -42 -89 -38 -33 2 -33 1 -33 -47 0 -67 -18
-99 -55 -96 -37 3 -55 -12 -55 -47 0 -45 -10 -59 -46 -66 -35 -6 -42 -18 -42
-72 -1 -35 -20 -52 -58 -52 -18 0 -35 -4 -38 -8 -12 -19 19 -93 55 -133 46
-53 53 -94 14 -86 -18 3 -29 -1 -35 -13 -12 -22 11 -55 53 -76 17 -9 36 -22
42 -28 16 -16 25 -55 14 -62 -5 -3 -9 -10 -9 -16 0 -6 3 -9 6 -5 3 3 16 -3 27
-14 15 -14 20 -29 19 -57 -2 -31 3 -43 33 -72 19 -19 46 -35 59 -36 14 0 56
-20 94 -43 l70 -42 41 21 41 20 40 -25 c44 -28 58 -30 94 -14 20 10 30 9 50
-5 34 -21 63 -20 71 3 3 10 5 23 4 27 -7 41 12 43 73 9 l45 -25 26 20 c20 16
28 35 37 93 12 72 28 115 43 116 4 1 18 1 31 1 29 0 66 54 70 102 2 25 -2 36
-18 46 -20 11 -19 12 6 6 38 -8 63 31 54 87 -9 53 -2 62 37 46 18 -7 39 -13
47 -12 23 0 23 39 0 84 l-20 41 20 20 c14 14 28 18 44 14 31 -7 37 5 26 47
-17 61 31 232 60 214 5 -3 7 27 5 67 -2 50 1 78 12 94 10 16 12 36 7 73 l-7
52 42 -7 c37 -6 41 -5 41 14 0 12 -4 23 -9 27 -6 3 -16 19 -24 35 -12 23 -13
37 -5 64 6 19 8 46 4 60 -9 36 -9 40 1 43 5 2 15 -13 22 -32 10 -28 10 -42 0
-69 -11 -32 -10 -36 30 -94 40 -57 42 -64 35 -104 -4 -24 -7 -56 -7 -73 2 -52
38 -162 66 -202 31 -45 34 -65 11 -84 -12 -10 -20 -10 -35 -1 -23 15 -49 16
-49 2 0 -14 34 -46 68 -64 29 -15 62 -56 62 -76 0 -6 11 -35 24 -63 13 -29 31
-74 41 -102 13 -36 36 -67 82 -110 35 -34 63 -64 63 -68 0 -5 -13 -13 -30 -18
-16 -6 -30 -15 -30 -21 0 -12 26 -38 38 -38 22 0 111 -92 117 -120 5 -23 24
-42 81 -80 79 -53 93 -57 124 -38 16 10 25 9 49 -5 16 -9 39 -17 50 -17 18 0
21 6 21 40 0 50 11 51 85 9 l54 -30 56 26 56 27 40 -22 c23 -11 42 -20 43 -18
1 2 15 30 31 63 37 77 53 95 82 95 29 0 37 18 23 54 -11 31 2 63 45 109 27 28
30 55 11 98 -5 12 4 28 32 54 40 36 40 37 26 70 -16 39 -10 65 16 65 36 0 39
23 8 60 -17 20 -32 30 -35 23 -7 -18 -49 -1 -73 30 -12 15 -19 35 -16 43 8 21
-57 160 -86 185 -13 10 -32 17 -43 14 -22 -5 -109 79 -102 99 8 20 -20 61 -42
62 -12 1 -28 2 -36 3 -8 0 -43 28 -78 61 -35 33 -66 57 -69 55 -3 -3 -29 17
-59 45 -33 31 -90 68 -149 97 -89 43 -120 63 -120 78 0 6 1 5 -65 85 -42 49
-44 55 -26 58 12 2 34 -6 50 -17 16 -12 35 -21 43 -21 8 0 36 -7 63 -16 37
-13 52 -14 66 -5 28 17 51 13 93 -15 32 -22 44 -25 84 -19 70 9 82 15 82 35 0
29 25 31 118 9 84 -20 88 -20 121 -2 33 17 34 17 82 -10 57 -31 84 -27 74 12
-4 14 -7 30 -8 35 -1 5 25 10 58 12 33 2 65 4 70 4 6 1 27 -2 47 -5 29 -6 42
-3 62 13 14 11 43 23 63 27 21 4 59 18 85 32 32 18 56 24 75 20 26 -5 28 -3
27 26 -1 19 6 39 16 49 10 9 25 50 34 90 9 41 24 84 32 97 14 20 14 25 -4 61
-21 42 -19 50 10 50 30 0 43 41 29 97 -11 42 -10 49 5 60 11 8 22 9 35 3 51
-28 44 3 -15 60 -20 19 -65 73 -100 120 -94 125 -133 163 -165 157 -30 -6 -70
13 -90 42 -8 11 -18 18 -23 15 -5 -3 -37 24 -73 60 -83 86 -120 87 -120 6 0
-33 -2 -35 -30 -33 -16 1 -47 5 -67 9 -33 5 -43 2 -73 -25 -20 -17 -40 -31
-46 -31 -6 0 -18 -9 -27 -20 -14 -17 -29 -21 -97 -21 -85 -1 -95 -6 -95 -51 0
-21 -8 -31 -32 -43 -18 -8 -46 -23 -63 -34 -27 -17 -32 -17 -53 -4 -28 17 -52
11 -52 -15 0 -36 -50 -65 -88 -51 -21 8 -22 6 -15 -19 21 -79 -2 -106 -66 -78
-54 25 -74 16 -66 -28 11 -59 0 -76 -50 -76 -42 0 -44 -1 -47 -32 -2 -26 -10
-36 -38 -49 -19 -9 -42 -30 -51 -45 -8 -16 -26 -31 -39 -34 -18 -4 -26 -15
-31 -39 -9 -45 -22 -55 -71 -60 -5 -1 -8 -11 -8 -22 0 -18 -2 -19 -15 -9 -8 7
-15 23 -15 36 0 21 5 24 40 24 39 0 40 0 40 37 0 40 26 120 47 141 6 7 26 15
43 19 27 5 31 9 26 29 -3 13 -9 35 -12 47 -4 18 4 35 35 71 43 50 48 69 29
111 -10 23 -8 28 30 61 37 31 40 38 32 60 -16 40 -12 64 9 64 35 0 46 26 28
71 -14 35 -14 44 -1 75 8 19 14 40 13 47 -4 34 1 39 31 33 41 -8 48 13 21 59
-25 43 -26 64 -6 91 20 26 19 57 -5 146 -18 69 -18 79 -5 105 8 15 18 28 22
28 40 1 52 64 22 107 -29 42 -88 99 -120 116 -13 7 -44 31 -69 53 l-44 40 -17
-23 -17 -22 -42 44 c-73 80 -94 99 -99 95 -2 -3 -27 8 -55 24 -41 23 -55 26
-73 18 -18 -8 -30 -5 -61 17 -40 28 -57 32 -67 17z"/>
</g>
</svg>
