<?xml version="1.0" standalone="no"?>
<!DOCTYPE svg PUBLIC "-//W3C//DTD SVG 20010904//EN"
 "http://www.w3.org/TR/2001/REC-SVG-20010904/DTD/svg10.dtd">
<svg version="1.0" xmlns="http://www.w3.org/2000/svg"
 width="558.000000pt" height="558.000000pt" viewBox="0 0 558.000000 558.000000"
 preserveAspectRatio="xMidYMid meet">
<metadata>
Created by potrace 1.13, written by Peter Selinger 2001-2015
</metadata>
<g transform="translate(0.000000,558.000000) scale(0.100000,-0.100000)"
fill="#000000" stroke="none">
<path d="M1688 4725 c-2 -2 -84 -6 -183 -10 -99 -3 -207 -8 -240 -10 -33 -2
-118 -6 -189 -10 -71 -3 -132 -8 -136 -10 -4 -3 -7 -20 -5 -37 2 -18 6 -94 10
-168 4 -74 8 -151 10 -170 26 -273 26 -1000 0 -1138 -1 -9 -6 -64 -10 -122 -4
-58 -9 -112 -10 -120 -2 -9 -6 -60 -10 -115 -4 -55 -9 -107 -10 -115 -2 -8 -6
-73 -10 -145 -4 -71 -9 -146 -10 -165 -7 -68 -8 -300 -2 -306 3 -3 81 48 174
114 269 191 417 284 582 367 265 133 485 193 706 194 141 0 232 -18 405 -79
77 -27 177 -57 223 -66 119 -25 352 -24 477 1 14 3 36 7 50 10 50 9 231 66
307 96 83 33 313 147 376 186 22 14 40 23 42 21 5 -4 -32 -205 -40 -218 -9
-14 -197 -108 -305 -152 -404 -166 -749 -194 -1140 -93 -185 48 -252 58 -380
59 -133 1 -221 -7 -267 -25 -13 -5 -23 -7 -23 -4 0 2 -19 -3 -42 -11 -24 -9
-50 -17 -58 -19 -31 -6 -173 -66 -248 -104 -166 -84 -323 -186 -652 -424
l-185 -134 0 -149 c0 -82 4 -212 8 -289 4 -77 10 -196 13 -265 3 -69 7 -141 8
-160 l3 -35 99 1 c54 0 149 4 209 7 61 4 153 10 205 13 52 3 104 7 115 9 11 2
126 57 255 122 197 99 405 188 486 208 11 3 68 18 128 35 61 16 125 32 144 35
19 3 37 7 41 9 4 3 27 7 51 10 25 3 56 8 70 11 13 2 42 7 65 10 22 3 47 8 55
10 8 2 39 7 69 10 30 4 61 8 70 10 9 1 41 6 71 10 30 4 62 9 70 10 8 2 35 6
60 9 25 3 56 8 70 11 30 6 122 22 170 30 19 3 63 12 98 20 34 8 74 17 90 20
52 9 318 85 435 124 l117 39 1 -62 c0 -33 2 -75 5 -93 l4 -32 -188 -61 c-168
-56 -407 -124 -472 -136 -14 -3 -43 -10 -65 -16 -22 -5 -51 -12 -65 -14 -14
-3 -33 -7 -42 -10 -10 -3 -30 -8 -45 -10 -16 -3 -66 -14 -113 -24 -47 -10 -96
-21 -110 -24 -81 -15 -271 -59 -370 -86 -63 -16 -123 -32 -133 -35 -20 -5
-195 -63 -217 -72 -8 -3 -17 -7 -20 -7 -3 -1 -33 -12 -68 -25 -85 -32 -79 -36
63 -46 44 -4 96 -8 115 -10 19 -2 76 -6 125 -10 50 -4 108 -9 130 -11 22 -1
78 -6 125 -9 47 -4 101 -8 120 -10 268 -26 944 -26 1385 0 33 2 114 6 179 10
66 3 123 8 127 11 4 2 6 14 4 27 -2 12 -6 81 -10 152 -4 72 -8 146 -10 165
-27 274 -27 1020 0 1194 2 11 6 55 9 96 4 41 9 99 11 128 12 132 15 162 21
242 3 47 8 101 10 120 8 86 18 402 18 580 0 304 -20 798 -34 813 -11 12 -98
-27 -420 -187 -307 -152 -390 -191 -432 -201 -16 -4 -26 -10 -24 -14 2 -3 -6
-7 -17 -8 -12 0 -35 -6 -52 -13 -16 -6 -32 -12 -35 -12 -3 0 -30 -9 -60 -20
-30 -10 -68 -21 -85 -24 -16 -2 -38 -7 -47 -10 -25 -7 -58 -14 -103 -20 -22
-3 -51 -8 -65 -11 -24 -5 -184 -8 -795 -17 -265 -4 -341 -9 -485 -31 -189 -29
-338 -63 -511 -116 -53 -16 -99 -29 -103 -29 -3 0 -6 27 -6 60 0 71 -16 61
188 121 202 59 497 117 682 134 36 3 81 8 100 10 39 5 183 15 425 30 114 7
200 14 248 20 20 3 56 7 80 10 23 3 53 8 67 10 14 3 39 7 55 10 44 7 74 14 93
19 9 3 28 7 42 10 57 11 257 80 362 125 62 27 237 109 388 183 271 133 379
183 453 209 20 7 37 19 37 26 0 7 -6 11 -12 8 -7 -2 -74 -7 -148 -10 -74 -4
-153 -8 -175 -10 -374 -26 -882 -26 -1155 0 -19 2 -78 6 -130 10 -52 4 -113 8
-135 10 -53 5 -149 13 -265 20 -52 3 -122 8 -155 11 -67 5 -772 13 -777 9z"/>
</g>
</svg>
