<?xml version="1.0" standalone="no"?>
<!DOCTYPE svg PUBLIC "-//W3C//DTD SVG 20010904//EN"
 "http://www.w3.org/TR/2001/REC-SVG-20010904/DTD/svg10.dtd">
<svg version="1.0" xmlns="http://www.w3.org/2000/svg"
 width="512.000000pt" height="512.000000pt" viewBox="0 0 512.000000 512.000000"
 preserveAspectRatio="xMidYMid meet">
<metadata>
Created by potrace 1.13, written by Peter Selinger 2001-2015
</metadata>
<g transform="translate(0.000000,512.000000) scale(0.100000,-0.100000)"
fill="#000000" stroke="none">
<path d="M3280 4793 c0 -5 -14 -24 -30 -43 -17 -19 -33 -43 -36 -52 -3 -10 -9
-18 -14 -18 -4 0 -22 -23 -40 -50 -18 -28 -37 -54 -44 -58 -13 -8 -76 -87 -76
-96 0 -3 -18 -33 -40 -67 -45 -70 -160 -292 -160 -309 0 -13 -71 -158 -123
-250 -49 -88 -78 -169 -118 -329 -28 -110 -38 -135 -55 -142 -15 -5 -25 -22
-34 -58 -7 -28 -15 -53 -19 -55 -3 -2 -29 -7 -57 -11 l-51 -7 -31 50 c-24 39
-35 49 -50 45 -20 -5 -26 3 -115 152 -7 11 -24 36 -39 56 -16 20 -28 41 -28
47 0 5 -66 77 -148 160 -81 82 -176 182 -212 221 -67 74 -131 140 -172 177
-38 35 -250 187 -303 219 -28 15 -54 34 -60 40 -22 25 -67 46 -86 40 -27 -9
-49 -63 -50 -122 0 -78 -18 -114 -72 -149 -27 -18 -63 -54 -81 -81 -35 -54
-71 -72 -149 -72 -59 -1 -113 -23 -122 -50 -6 -19 15 -64 40 -86 6 -5 25 -32
40 -60 32 -53 184 -265 219 -303 37 -41 103 -105 177 -172 39 -36 139 -131
221 -212 83 -82 155 -148 160 -148 6 0 27 -12 47 -27 20 -16 45 -33 56 -40
149 -89 157 -95 152 -115 -4 -15 6 -26 45 -50 l50 -31 -7 -51 c-4 -28 -10 -54
-14 -57 -3 -4 -31 -14 -63 -23 -44 -13 -55 -20 -52 -34 4 -14 -14 -21 -118
-46 -163 -39 -246 -69 -348 -124 -113 -62 -237 -122 -251 -122 -17 0 -239
-116 -308 -160 -34 -22 -64 -40 -67 -40 -9 0 -88 -63 -96 -76 -4 -7 -30 -26
-58 -44 -27 -18 -50 -36 -50 -40 0 -5 -8 -11 -17 -14 -10 -3 -34 -19 -53 -36
-19 -16 -38 -30 -42 -30 -16 0 -7 -47 11 -67 11 -12 48 -32 81 -44 82 -32 105
-55 119 -119 8 -35 25 -69 52 -104 45 -56 47 -75 19 -199 -13 -57 -12 -59 12
-83 l25 -25 54 16 c30 10 97 31 149 47 52 16 131 40 175 54 44 13 98 33 120
43 22 11 60 27 84 37 24 10 49 23 55 29 21 20 260 152 376 208 63 30 124 64
134 76 11 11 24 21 29 21 10 0 107 78 182 145 29 27 46 35 65 32 17 -4 35 4
64 29 41 36 80 44 89 20 3 -8 16 -16 29 -18 21 -3 23 -9 26 -70 2 -53 6 -68
18 -68 13 0 14 -16 8 -112 -14 -202 -10 -315 13 -423 13 -55 31 -183 42 -285
23 -210 44 -312 96 -455 20 -55 48 -134 62 -175 33 -98 49 -127 72 -135 31 -9
62 15 121 94 3 4 18 17 34 29 23 18 42 22 96 22 37 0 84 7 103 15 20 8 52 15
70 15 38 0 97 -18 97 -29 0 -4 22 -18 49 -30 56 -27 87 -22 102 16 5 13 9 135
9 271 -1 259 -10 339 -69 610 -11 51 -25 136 -30 190 -11 100 -56 251 -120
401 -35 83 -37 91 -16 91 19 0 19 -1 -5 60 -25 64 -25 87 -1 95 11 3 23 15 26
26 8 24 31 24 95 -1 61 -24 60 -24 60 -5 0 21 8 19 91 -16 150 -64 301 -109
401 -120 54 -5 139 -19 190 -30 271 -59 351 -68 610 -69 136 0 258 4 271 9 38
15 43 46 16 102 -12 27 -26 49 -30 49 -11 0 -29 59 -29 97 0 18 7 50 15 70 8
19 15 66 15 103 0 54 4 73 22 96 12 16 25 31 29 34 79 59 103 90 94 121 -8 23
-37 39 -135 72 -41 14 -120 42 -175 62 -143 52 -245 73 -455 96 -102 11 -230
29 -285 42 -108 23 -221 27 -422 13 -97 -6 -113 -5 -113 8 0 12 -15 16 -67 18
-62 3 -68 5 -71 26 -2 13 -10 26 -18 29 -24 9 -16 48 20 89 25 29 33 47 29 64
-3 19 5 36 32 65 67 75 145 172 145 182 0 5 10 18 21 29 12 10 46 71 76 134
56 116 188 355 208 376 6 6 19 31 29 55 10 24 26 62 37 84 10 22 30 76 43 120
14 44 38 123 54 175 16 52 37 119 47 149 l16 54 -25 25 c-24 24 -26 25 -83 12
-124 -28 -143 -26 -199 19 -35 27 -69 44 -104 52 -64 14 -87 37 -119 119 -12
33 -32 70 -44 81 -20 18 -67 27 -67 12z"/>
</g>
</svg>
