<?xml version="1.0" standalone="no"?>
<!DOCTYPE svg PUBLIC "-//W3C//DTD SVG 20010904//EN"
 "http://www.w3.org/TR/2001/REC-SVG-20010904/DTD/svg10.dtd">
<svg version="1.0" xmlns="http://www.w3.org/2000/svg"
 width="558.000000pt" height="558.000000pt" viewBox="0 0 558.000000 558.000000"
 preserveAspectRatio="xMidYMid meet">
<metadata>
Created by potrace 1.13, written by Peter Selinger 2001-2015
</metadata>
<g transform="translate(0.000000,558.000000) scale(0.100000,-0.100000)"
fill="#000000" stroke="none">
<path d="M2790 4029 l0 -769 -40 0 -40 0 0 767 0 766 -92 -7 c-243 -17 -455
-75 -684 -187 -528 -257 -910 -729 -1064 -1313 -16 -61 -32 -137 -36 -168 l-6
-58 1706 0 1706 0 0 -50 0 -50 -1715 0 -1715 0 -1 -82 c-2 -140 5 -313 16
-368 2 -10 7 -40 10 -67 22 -153 93 -371 184 -558 126 -260 313 -493 551 -688
243 -198 628 -365 925 -401 28 -4 61 -8 75 -11 14 -3 55 -7 93 -10 l67 -5 0
775 0 775 45 0 45 0 0 -775 0 -776 73 6 c530 42 957 244 1324 628 266 278 454
662 517 1056 l13 81 -1664 0 -1663 0 0 55 0 55 1671 0 1671 0 -5 178 c-3 97
-7 186 -10 198 -3 12 -8 45 -12 75 -28 234 -158 572 -305 799 -155 237 -387
461 -633 611 -285 175 -561 258 -939 283 l-68 4 0 -769z"/>
</g>
</svg>
