<?xml version="1.0" standalone="no"?>
<!DOCTYPE svg PUBLIC "-//W3C//DTD SVG 20010904//EN"
 "http://www.w3.org/TR/2001/REC-SVG-20010904/DTD/svg10.dtd">
<svg version="1.0" xmlns="http://www.w3.org/2000/svg"
 width="512.000000pt" height="512.000000pt" viewBox="0 0 512.000000 512.000000"
 preserveAspectRatio="xMidYMid meet">
<metadata>
Created by potrace 1.13, written by Peter Selinger 2001-2015
</metadata>
<g transform="translate(0.000000,512.000000) scale(0.100000,-0.100000)"
fill="#000000" stroke="none">
<path d="M1750 4939 c0 -43 7 -95 15 -119 l15 -42 -31 4 c-39 6 -48 -14 -25
-53 9 -15 16 -43 16 -61 -1 -18 -1 -44 -2 -58 0 -14 7 -63 16 -108 9 -46 13
-94 10 -106 -3 -12 4 -43 15 -70 31 -70 28 -80 -15 -71 -20 3 -34 3 -32 -2 2
-4 10 -20 17 -35 12 -24 12 -33 -4 -67 -16 -37 -17 -43 -1 -81 9 -22 16 -52
16 -66 0 -14 5 -35 11 -46 6 -11 11 -37 11 -57 0 -23 14 -61 40 -108 33 -61
39 -81 39 -133 1 -57 4 -65 43 -113 23 -29 41 -58 39 -64 -7 -19 27 -82 47
-88 22 -7 32 -39 17 -54 -13 -13 -47 -15 -47 -3 0 5 -16 27 -36 50 -31 37 -37
40 -50 27 -17 -17 -39 -21 -29 -5 3 6 0 10 -8 10 -17 0 -63 65 -72 102 -4 16
-11 26 -15 23 -8 -5 -141 61 -150 75 -3 4 -19 15 -37 24 -41 21 -50 36 -29 51
22 16 11 41 -25 57 -16 7 -29 16 -29 19 0 14 -30 18 -61 9 -27 -8 -40 -5 -76
15 -28 17 -52 24 -70 21 -19 -4 -41 4 -77 27 -43 27 -60 32 -117 33 -54 0 -72
5 -100 26 -52 39 -95 58 -131 58 -18 0 -44 9 -58 20 -14 11 -32 20 -40 20 -25
0 -68 34 -100 78 -18 26 -38 42 -51 42 -18 0 -20 -4 -13 -45 6 -43 5 -45 -18
-45 -23 0 -66 24 -80 44 -4 6 -10 7 -14 4 -3 -4 5 -21 20 -38 28 -34 29 -37
30 -89 1 -38 33 -68 81 -77 35 -6 48 -20 81 -89 35 -72 88 -139 187 -233 25
-24 49 -57 52 -72 4 -16 21 -48 39 -72 18 -24 36 -53 40 -66 4 -12 25 -34 47
-47 21 -14 51 -44 66 -68 14 -23 36 -57 47 -75 21 -33 37 -41 98 -48 18 -2 39
-5 46 -6 6 -1 12 -4 12 -8 0 -3 16 -14 36 -24 25 -12 34 -20 27 -27 -16 -16
-4 -46 24 -64 87 -57 136 -77 178 -73 26 3 49 0 60 -8 22 -16 21 -18 -30 -30
-22 -5 -39 -15 -38 -21 4 -21 -46 -3 -93 32 -71 54 -120 57 -108 6 3 -9 0 -23
-5 -31 -9 -12 -17 -8 -50 24 -23 22 -42 38 -44 35 -3 -2 -10 -14 -16 -26 -14
-28 -47 -29 -81 -3 -30 23 -56 25 -90 5 -35 -20 -57 -18 -117 9 -43 20 -54 22
-69 12 -9 -7 -14 -18 -10 -24 12 -19 -25 -44 -56 -38 -21 4 -34 0 -50 -16 -23
-23 -70 -27 -93 -8 -16 13 -49 -15 -41 -36 9 -24 -20 -33 -104 -30 -85 4 -85
4 -115 -29 -21 -23 -42 -34 -70 -38 -22 -3 -53 -8 -69 -11 -15 -2 -39 0 -51 6
-13 6 -35 8 -49 4 -21 -5 -26 -13 -26 -36 0 -26 -5 -31 -42 -40 -23 -7 -52
-10 -64 -7 -13 2 -21 1 -19 -4 3 -4 0 -9 -6 -11 -20 -7 19 -66 59 -92 48 -30
92 -39 126 -27 23 9 34 6 83 -27 39 -25 69 -38 97 -39 23 -1 53 -5 68 -9 19
-4 32 -1 44 10 12 12 20 14 29 6 7 -6 23 -13 35 -15 46 -9 61 -18 106 -61 26
-24 52 -44 60 -44 7 0 16 16 20 35 8 45 26 44 65 -5 44 -54 185 -110 204 -80
11 19 44 10 78 -20 40 -35 62 -39 53 -10 -3 11 -9 29 -12 40 -5 16 -2 20 18
20 14 0 40 -5 58 -11 27 -10 37 -9 61 5 29 17 36 16 162 -16 32 -8 42 -6 58 8
10 9 19 23 19 29 0 8 21 13 65 14 65 1 65 1 65 -26 0 -16 3 -38 6 -51 8 -27
-13 -29 -57 -7 -23 13 -34 13 -51 4 -29 -16 -48 -35 -48 -48 0 -13 -13 -14
-24 -3 -15 14 -31 7 -49 -21 -10 -16 -29 -30 -47 -34 -17 -3 -40 -17 -51 -32
-22 -28 -133 -91 -161 -91 -31 0 -48 -12 -48 -34 -1 -52 -64 -122 -119 -131
-50 -8 -57 -22 -44 -81 l10 -45 -36 -19 c-43 -21 -64 -57 -49 -84 13 -23 2
-48 -19 -45 -40 4 -53 -3 -77 -38 -14 -20 -23 -40 -20 -45 3 -4 -2 -8 -10 -8
-8 0 -17 -9 -21 -20 -3 -11 -17 -28 -31 -39 -13 -10 -24 -23 -24 -28 0 -6 -13
-20 -30 -33 -16 -12 -27 -27 -24 -32 3 -4 -18 -31 -46 -58 -39 -37 -50 -55
-45 -68 34 -82 33 -90 -12 -75 -15 5 -36 7 -46 5 -23 -5 -22 -32 1 -32 10 0
22 -4 28 -9 5 -4 21 -11 36 -15 38 -9 61 24 46 66 -16 44 4 59 39 30 65 -52
76 -52 152 3 19 14 48 25 66 25 19 0 39 8 50 20 13 14 29 20 51 18 18 -1 49 7
68 17 35 19 37 19 71 1 42 -23 54 -16 31 19 -10 15 -15 33 -12 41 6 16 53 19
89 5 14 -5 34 -7 46 -4 17 4 21 13 21 44 0 45 17 51 57 19 33 -26 51 -25 112
6 43 21 51 30 51 53 0 38 17 51 71 51 48 0 64 9 137 74 21 20 32 38 32 57 0
46 26 62 95 59 3 0 18 6 34 14 37 20 60 56 59 95 -1 35 32 78 51 67 6 -4 9
-12 5 -17 -13 -21 -13 -56 0 -94 15 -43 7 -65 -22 -65 -8 0 -23 -7 -33 -16
-14 -13 -15 -22 -7 -51 12 -43 -5 -83 -34 -83 -26 0 -34 -27 -13 -50 22 -24
13 -50 -17 -50 -28 0 -53 -15 -54 -32 0 -7 6 -25 13 -40 7 -15 13 -43 13 -63
0 -28 -5 -38 -24 -47 -30 -13 -60 -81 -50 -112 4 -11 9 -43 10 -71 2 -27 5
-72 6 -100 2 -27 12 -72 22 -98 22 -55 13 -77 -24 -57 -30 16 -34 8 -16 -29
20 -37 20 -48 1 -85 -12 -23 -13 -36 -5 -59 5 -17 10 -72 10 -122 0 -60 5
-105 15 -129 16 -38 15 -39 -27 -36 -33 2 -36 -15 -12 -62 11 -22 14 -43 9
-74 -7 -49 0 -84 17 -84 6 0 9 3 5 6 -3 3 -1 19 5 35 7 21 19 32 38 36 46 9
84 60 85 112 1 40 4 46 31 55 72 27 88 51 64 96 -7 13 -6 21 5 30 8 6 18 10
22 7 4 -3 19 -1 32 4 21 8 23 14 18 53 -7 51 4 66 50 66 26 0 34 5 38 23 20
87 24 118 19 131 -7 18 12 21 35 7 17 -11 38 13 65 70 15 32 21 36 54 35 37
-1 37 -1 35 37 -2 20 -4 54 -5 75 -3 35 -1 37 32 42 32 5 35 8 37 40 7 129 24
190 54 190 27 0 28 8 19 105 -6 70 -5 98 7 126 10 27 11 42 3 64 -13 35 -7 41
25 27 38 -18 55 -15 64 11 9 22 9 21 20 -7 10 -26 9 -34 -9 -58 l-20 -28 21
-57 c12 -32 24 -74 26 -93 3 -19 21 -56 40 -82 41 -56 36 -73 -19 -64 -22 4
-43 4 -49 1 -15 -10 18 -61 66 -100 25 -21 45 -41 45 -46 0 -5 14 -31 30 -57
17 -27 30 -62 30 -77 0 -43 89 -155 123 -155 24 0 56 -44 112 -159 45 -90 69
-126 116 -171 55 -53 66 -74 60 -118 -1 -7 19 -35 46 -62 55 -56 63 -65 82
-103 19 -36 32 -35 25 3 -4 19 -2 30 5 30 6 0 9 10 7 22 -2 13 2 30 9 38 7 8
15 50 19 94 6 76 5 79 -24 116 -37 46 -37 57 -5 90 l26 27 -21 26 c-11 14 -25
45 -30 69 -5 24 -12 55 -16 71 -5 23 -3 27 14 27 26 0 46 25 39 50 -3 11 0 35
5 54 9 29 7 39 -16 78 -32 56 -33 69 0 97 l26 23 -20 21 c-11 12 -27 45 -35
74 -9 28 -22 62 -31 75 -15 23 -16 51 -3 64 14 15 6 57 -15 75 -16 15 -17 19
-6 19 33 0 29 33 -7 70 -19 20 -35 42 -35 50 0 7 -14 38 -31 68 -21 38 -29 61
-24 81 5 22 -2 33 -35 66 -22 21 -40 42 -40 46 0 16 144 -69 178 -105 100
-105 123 -125 152 -131 17 -4 53 -26 80 -50 27 -24 65 -51 85 -61 20 -9 44
-28 53 -42 31 -45 63 -75 72 -66 5 5 10 20 12 34 5 41 39 37 82 -10 23 -25 63
-53 103 -71 74 -33 88 -35 97 -14 8 23 35 18 59 -11 79 -96 119 -116 138 -67
7 20 13 23 21 15 7 -7 19 -12 28 -12 9 0 26 -11 39 -24 12 -12 50 -31 84 -41
34 -11 76 -29 92 -40 65 -48 98 -39 85 20 -8 35 1 52 20 40 20 -12 9 12 -15
35 -14 13 -28 40 -31 61 -7 43 -53 96 -141 163 -35 26 -68 57 -75 69 -6 12
-17 28 -25 35 -10 10 -10 18 -2 33 11 21 8 29 -37 79 -13 14 -24 31 -26 39 -2
8 -29 34 -60 58 -88 68 -118 99 -118 125 0 32 -9 42 -52 63 -50 23 -130 95
-124 110 8 21 -36 53 -79 58 -74 9 -132 37 -194 94 -44 40 -70 55 -89 55 -30
-1 -72 17 -72 30 0 4 6 8 13 8 8 0 22 9 32 20 21 23 47 25 90 6 21 -9 37 -10
52 -3 16 7 31 5 57 -7 40 -19 69 -20 97 -5 16 8 29 7 54 -5 18 -9 40 -16 49
-16 9 0 36 -5 61 -12 36 -10 50 -10 65 0 30 18 46 15 83 -18 50 -44 74 -39 41
8 -16 23 -11 62 8 62 7 0 26 -5 44 -12 48 -17 84 1 84 42 0 36 5 37 50 6 l34
-23 45 23 c24 13 51 24 60 24 9 0 32 15 51 33 33 32 38 33 105 31 54 -2 74 2
92 16 25 19 52 17 90 -8 36 -23 56 -9 49 33 -4 19 -3 35 1 35 4 0 37 3 73 6
36 3 76 5 89 5 34 -1 41 7 30 36 -6 18 -6 28 0 33 10 5 -103 110 -119 110 -4
0 -18 -9 -32 -19 -23 -19 -24 -19 -48 0 -14 10 -35 19 -47 19 -26 0 -66 17
-110 46 -20 13 -43 20 -62 18 -40 -5 -102 18 -157 57 -42 31 -45 32 -58 14
-16 -23 -62 -16 -105 16 -21 15 -37 20 -55 15 -28 -7 -58 5 -93 37 -23 21 -41
20 -100 -4 -30 -12 -38 -11 -98 19 -92 45 -95 44 -107 -32 -3 -17 -6 -17 -35
8 l-31 26 -30 -25 c-36 -30 -42 -31 -93 -5 l-39 21 -34 -26 c-42 -32 -85 -32
-114 -2 -29 30 -28 34 6 30 44 -7 80 13 96 51 14 34 50 54 84 48 12 -3 66 23
88 43 6 6 21 17 33 25 11 8 21 20 21 27 0 6 8 14 18 17 10 3 42 22 72 41 29
19 55 33 57 31 7 -6 98 88 95 97 -5 18 41 57 79 67 36 10 38 12 33 47 -3 27 2
45 18 70 13 18 26 33 31 33 4 0 7 6 7 13 0 7 14 26 31 43 17 16 43 50 57 76
19 33 33 48 47 48 16 0 29 17 53 71 28 59 36 69 52 64 15 -5 22 0 29 17 5 13
20 35 34 50 14 15 30 42 36 61 6 18 29 50 51 71 39 37 40 38 24 65 -35 59 -53
77 -63 62 -6 -9 -6 -24 0 -38 5 -14 9 -31 9 -38 0 -21 -45 -29 -77 -13 -37 18
-62 12 -73 -18 -7 -19 -17 -24 -42 -24 -18 0 -46 -7 -63 -16 -16 -9 -45 -16
-63 -15 -24 1 -39 -6 -60 -27 -28 -28 -29 -29 -41 -10 -11 17 -15 15 -60 -32
-52 -54 -83 -62 -131 -35 -40 23 -60 18 -72 -15 -12 -37 -39 -53 -69 -41 -17
6 -32 2 -56 -11 -19 -12 -45 -18 -65 -16 -29 3 -33 0 -33 -20 -1 -30 -20 -42
-72 -42 -23 0 -45 -5 -48 -11 -4 -6 -2 -31 5 -55 7 -25 10 -47 7 -50 -3 -3
-29 7 -57 22 -51 27 -53 27 -67 8 -9 -12 -12 -32 -7 -60 5 -33 3 -42 -11 -48
-9 -3 -24 -2 -33 2 -28 13 -54 8 -68 -13 -10 -16 -10 -27 0 -57 8 -21 11 -39
8 -42 -2 -3 -22 5 -42 17 -37 21 -39 21 -58 3 -16 -14 -20 -27 -16 -61 2 -24
0 -46 -4 -49 -5 -3 -30 -2 -58 3 -40 6 -45 8 -26 15 19 6 22 15 24 59 0 29 0
60 0 70 -1 11 11 25 28 35 30 17 45 48 42 87 -1 22 16 47 28 40 14 -8 24 28
25 85 1 68 22 115 52 114 13 0 27 9 34 23 11 20 9 30 -11 73 l-24 50 24 31
c21 30 22 35 10 88 -6 31 -19 69 -27 84 -18 34 -11 57 16 57 21 0 39 39 27 58
-3 5 -1 24 5 41 10 27 7 37 -22 87 l-32 57 30 26 31 26 -20 39 c-16 31 -18 43
-9 63 6 14 9 29 6 33 -3 5 1 20 8 32 8 13 18 57 21 98 6 73 6 77 -25 118 -20
27 -29 50 -26 63 3 13 1 19 -6 16 -7 -2 -16 -20 -21 -40 -8 -31 -14 -37 -37
-37 -33 0 -53 -22 -44 -50 4 -11 4 -34 0 -50 -7 -30 -8 -30 -54 -24 -42 5 -49
4 -53 -13 -3 -11 0 -33 7 -49 6 -16 10 -36 7 -44 -6 -17 -99 -110 -126 -125
-16 -9 -16 -12 -2 -40 15 -29 15 -30 -12 -39 -48 -15 -64 -36 -57 -74 9 -48
-7 -62 -70 -62 -55 0 -72 -13 -54 -41 5 -8 9 -28 9 -46 0 -25 -7 -35 -34 -51
-20 -12 -36 -31 -40 -48 -4 -16 -13 -36 -20 -44 -17 -20 -26 -59 -16 -65 5 -3
2 -18 -6 -33 -7 -15 -14 -31 -14 -35 0 -5 -10 -23 -22 -40 -12 -17 -23 -47
-24 -67 -1 -19 -4 -46 -8 -58 -5 -13 -1 -34 8 -54 26 -50 21 -65 -17 -60 -23
3 -38 -2 -47 -13 -13 -15 -11 -23 13 -66 36 -65 35 -89 -7 -116 -37 -24 -62
-16 -68 22 -2 17 2 20 27 18 49 -4 60 3 42 31 -9 12 -29 37 -46 54 -34 33 -38
51 -19 82 10 16 8 27 -10 65 -12 25 -22 52 -22 61 0 8 -23 37 -51 64 -28 27
-48 53 -45 58 3 5 22 13 41 16 20 4 35 13 35 21 0 7 -19 33 -42 57 -44 44 -59
65 -78 107 -6 12 -19 30 -31 40 -19 15 -27 35 -28 74 -1 9 -45 60 -100 112
-86 83 -105 108 -144 188 -25 50 -49 104 -52 118 -10 41 -58 89 -78 77 -13 -7
-24 -1 -47 22 -17 18 -29 37 -27 43 5 15 37 10 59 -10 23 -20 48 -10 48 20 0
27 -51 70 -85 70 -24 0 -75 39 -93 72 -9 16 -11 5 -12 -56z"/>
</g>
</svg>
