<?xml version="1.0" standalone="no"?>
<!DOCTYPE svg PUBLIC "-//W3C//DTD SVG 20010904//EN"
 "http://www.w3.org/TR/2001/REC-SVG-20010904/DTD/svg10.dtd">
<svg version="1.0" xmlns="http://www.w3.org/2000/svg"
 width="558.000000pt" height="558.000000pt" viewBox="0 0 558.000000 558.000000"
 preserveAspectRatio="xMidYMid meet">
<metadata>
Created by potrace 1.13, written by Peter Selinger 2001-2015
</metadata>
<g transform="translate(0.000000,558.000000) scale(0.100000,-0.100000)"
fill="#000000" stroke="none">
<path d="M2742 4701 c-17 -149 -27 -168 -147 -286 -57 -57 -128 -122 -157
-144 -29 -22 -75 -57 -103 -78 -27 -21 -66 -48 -86 -60 -19 -12 -52 -47 -73
-77 -23 -34 -57 -66 -90 -86 -28 -17 -63 -48 -76 -68 -14 -20 -55 -69 -92
-109 -37 -40 -79 -97 -93 -126 -14 -28 -39 -68 -54 -87 -50 -63 -80 -137 -96
-239 -4 -24 -13 -58 -20 -75 -7 -17 -16 -63 -20 -101 -8 -89 -14 -136 -19
-144 -6 -9 -15 -118 -22 -271 -3 -74 -7 -153 -9 -175 -20 -229 -20 -231 41
-310 21 -28 55 -81 76 -118 44 -77 187 -227 294 -307 62 -47 192 -117 254
-135 14 -5 41 -18 60 -30 55 -34 275 -102 390 -121 8 -1 33 -5 55 -9 22 -4
135 -8 250 -11 196 -4 216 -3 295 19 138 38 177 62 409 245 18 15 43 33 55 41
29 19 145 154 176 205 14 22 40 63 57 90 45 69 70 156 78 268 3 53 8 107 11
120 3 13 7 131 10 263 5 236 4 242 -22 335 -47 169 -141 309 -256 380 -26 16
-64 45 -85 63 -41 37 -59 44 -198 76 -122 28 -221 40 -337 41 -173 0 -345 -53
-437 -135 -31 -28 -72 -62 -91 -77 -20 -14 -45 -36 -57 -49 -77 -85 -116 -136
-138 -179 l-25 -50 0 -460 c1 -483 0 -479 47 -565 22 -41 49 -70 106 -116 70
-56 145 -74 298 -73 99 0 111 2 170 32 59 29 211 132 241 163 37 38 63 89 84
162 13 45 35 97 49 117 69 100 82 245 33 375 -22 57 -36 78 -79 115 -29 25
-72 63 -95 86 -52 51 -121 73 -229 75 -104 2 -144 -17 -190 -87 -51 -76 -58
-100 -59 -199 -1 -84 1 -94 33 -152 32 -59 73 -93 113 -93 23 0 58 -30 58 -50
0 -10 -7 -25 -15 -33 -12 -13 -23 -13 -67 -3 -29 7 -62 17 -73 23 -42 24 -83
81 -115 163 -30 80 -32 90 -26 170 11 144 86 274 189 326 46 24 58 25 166 22
106 -3 122 -6 181 -34 36 -17 85 -51 110 -75 25 -24 65 -61 88 -82 55 -49 65
-66 100 -164 23 -63 30 -98 30 -158 0 -108 -12 -149 -86 -290 -12 -22 -31 -71
-42 -110 -11 -39 -35 -91 -55 -117 -60 -81 -297 -244 -385 -264 -71 -16 -227
-12 -315 8 -78 17 -99 27 -160 73 -89 68 -107 88 -140 152 -54 109 -54 111
-55 616 l0 469 39 71 c22 40 54 88 71 107 18 19 43 49 57 67 13 17 50 51 81
75 31 23 76 61 100 84 40 40 172 106 232 118 14 2 59 12 100 21 107 25 325 16
468 -20 57 -14 110 -25 117 -25 34 0 127 -44 162 -76 21 -19 54 -43 73 -54 19
-10 67 -49 105 -87 76 -75 156 -206 181 -298 46 -168 47 -181 41 -420 -4 -126
-9 -240 -11 -252 -3 -12 -8 -64 -11 -115 -4 -51 -8 -104 -10 -117 -9 -57 -50
-155 -86 -208 -21 -32 -39 -63 -39 -69 0 -6 -24 -38 -52 -70 -29 -33 -67 -77
-84 -99 -18 -22 -67 -67 -109 -100 -42 -33 -109 -86 -149 -118 -81 -66 -219
-136 -321 -163 -57 -15 -106 -19 -260 -19 -223 0 -312 7 -435 35 -25 5 -56 12
-70 14 -42 7 -225 73 -287 104 -32 16 -102 49 -156 73 -54 24 -115 57 -135 74
-20 17 -53 42 -72 55 -34 23 -64 52 -126 121 -17 18 -46 46 -65 60 -19 15 -50
57 -69 95 -19 37 -49 85 -68 107 -68 82 -87 126 -87 202 0 62 11 257 20 355 2
19 4 77 6 127 1 51 6 112 10 135 5 24 11 52 13 63 2 11 7 56 11 99 3 44 13 95
21 115 8 20 18 54 20 76 14 99 53 199 104 265 16 19 43 63 61 97 19 34 61 91
94 126 33 35 74 84 92 109 17 26 55 62 85 82 29 20 71 59 93 88 22 29 71 74
109 100 38 26 79 56 91 66 12 10 46 37 76 59 30 22 79 67 110 99 31 33 70 72
88 87 44 39 53 65 66 196 l6 64 -65 -7 c-248 -25 -443 -80 -662 -187 -517
-252 -894 -708 -1055 -1279 -69 -244 -91 -577 -54 -809 3 -13 7 -45 11 -70 21
-151 93 -370 183 -556 126 -260 313 -493 551 -688 242 -198 626 -365 925 -402
28 -3 77 -10 110 -14 89 -13 335 -6 460 13 449 69 826 268 1152 609 358 374
558 907 540 1442 -3 88 -7 169 -10 181 -3 12 -8 45 -12 75 -19 158 -96 402
-185 584 -107 220 -223 377 -411 561 -353 342 -787 526 -1295 548 l-91 4 -11
-97z"/>
</g>
</svg>
