<?xml version="1.0" standalone="no"?>
<!DOCTYPE svg PUBLIC "-//W3C//DTD SVG 20010904//EN"
 "http://www.w3.org/TR/2001/REC-SVG-20010904/DTD/svg10.dtd">
<svg version="1.0" xmlns="http://www.w3.org/2000/svg"
 width="558.000000pt" height="558.000000pt" viewBox="0 0 558.000000 558.000000"
 preserveAspectRatio="xMidYMid meet">
<metadata>
Created by potrace 1.13, written by Peter Selinger 2001-2015
</metadata>
<g transform="translate(0.000000,558.000000) scale(0.100000,-0.100000)"
fill="#000000" stroke="none">
<path d="M2980 4464 c-86 -70 -276 -195 -391 -257 -58 -31 -227 -113 -375
-182 -536 -251 -805 -411 -1154 -689 -92 -73 -111 -92 -107 -110 10 -40 18
-70 36 -136 7 -25 15 -52 17 -60 2 -8 10 -42 19 -75 14 -55 77 -358 90 -430 4
-27 17 -97 30 -165 4 -23 60 -296 71 -345 2 -11 6 -29 8 -40 34 -165 165 -611
230 -782 8 -21 38 -101 67 -178 29 -77 59 -157 68 -178 l16 -37 395 -5 c217
-2 413 -6 435 -9 22 -2 87 -7 145 -10 58 -3 152 -9 210 -12 58 -3 123 -8 145
-10 60 -8 1058 -16 1076 -9 8 3 15 14 16 23 1 10 9 47 18 83 9 35 18 72 20 81
2 9 20 79 40 154 76 289 159 519 345 954 67 157 151 359 187 450 64 161 173
464 173 479 0 5 -37 30 -82 56 -156 90 -347 223 -457 319 -51 43 -373 366
-455 456 -157 170 -377 389 -506 501 -112 98 -253 209 -265 209 -5 -1 -35 -21
-65 -46z"/>
</g>
</svg>
