<?xml version="1.0" standalone="no"?>
<!DOCTYPE svg PUBLIC "-//W3C//DTD SVG 20010904//EN"
 "http://www.w3.org/TR/2001/REC-SVG-20010904/DTD/svg10.dtd">
<svg version="1.0" xmlns="http://www.w3.org/2000/svg"
 width="512.000000pt" height="512.000000pt" viewBox="0 0 512.000000 512.000000"
 preserveAspectRatio="xMidYMid meet">
<metadata>
Created by potrace 1.13, written by Peter Selinger 2001-2015
</metadata>
<g transform="translate(0.000000,512.000000) scale(0.100000,-0.100000)"
fill="#000000" stroke="none">
<path d="M2515 4281 c-4 -22 -12 -45 -19 -50 -7 -6 -55 -12 -107 -14 -52 -2
-104 -9 -117 -16 -12 -6 -26 -9 -31 -6 -5 3 -14 -10 -20 -28 -13 -39 -48 -62
-85 -55 -53 10 -61 -8 -61 -144 0 -84 -4 -130 -13 -146 -12 -21 -11 -28 14
-63 15 -22 31 -42 36 -45 4 -3 8 -15 8 -26 0 -19 -4 -20 -46 -14 -45 6 -46 5
-39 -17 4 -12 10 -44 15 -72 10 -62 47 -137 94 -190 20 -22 36 -45 36 -52 0
-7 -15 -16 -32 -21 -45 -11 -46 -33 -4 -80 23 -26 36 -51 39 -75 2 -21 13 -50
23 -65 34 -46 40 -59 17 -39 -11 9 -30 17 -44 17 -15 0 -34 12 -52 35 -18 23
-36 35 -52 35 -30 0 -31 -14 -7 -55 26 -42 19 -59 -18 -40 -30 15 -40 33 -40
70 0 35 -44 81 -105 110 -30 14 -55 29 -55 33 0 4 -19 29 -41 55 -44 51 -59
50 -59 -5 0 -43 -32 -36 -66 14 -34 51 -63 77 -84 78 -9 0 -32 11 -52 25 -41
27 -68 31 -86 13 -10 -10 -19 -8 -42 5 -17 10 -30 15 -30 10 0 -4 -5 -1 -11 7
-8 12 -10 8 -7 -17 3 -18 1 -30 -4 -27 -4 3 -8 -2 -8 -10 0 -22 -6 -20 -62 15
-44 29 -52 30 -74 19 -13 -7 -24 -17 -24 -22 0 -4 -8 -8 -19 -8 -20 0 -46 -24
-38 -37 3 -4 -10 -19 -29 -33 -44 -33 -52 -61 -25 -99 29 -41 27 -52 -8 -38
-33 12 -59 5 -68 -20 -10 -30 -34 -52 -49 -46 -7 3 -29 -4 -47 -16 -19 -11
-37 -18 -40 -14 -4 3 -7 2 -7 -3 0 -6 16 -26 36 -45 33 -31 35 -37 29 -76 -4
-28 -1 -51 8 -70 18 -35 7 -68 -26 -77 -41 -10 -41 -34 1 -90 21 -28 60 -87
88 -130 27 -43 61 -91 76 -106 32 -32 94 -52 135 -44 24 5 41 -1 83 -30 58
-40 72 -43 94 -21 12 13 20 14 36 5 18 -10 25 -7 45 14 25 27 32 26 85 -1 14
-7 34 -13 44 -13 11 0 35 -5 53 -12 29 -10 39 -10 68 6 l34 19 51 -33 c44 -28
54 -31 78 -22 15 6 38 12 52 14 19 2 26 10 28 30 2 14 9 28 15 31 16 6 107
-24 107 -35 0 -25 -47 -68 -87 -80 -24 -7 -58 -26 -76 -43 -45 -41 -117 -91
-145 -99 -12 -4 -34 -25 -48 -47 -28 -45 -36 -47 -82 -19 -18 11 -37 20 -42
20 -14 0 -12 -27 5 -60 20 -38 11 -56 -36 -77 -28 -12 -43 -26 -51 -50 -12
-34 -34 -47 -78 -48 -22 0 -25 -5 -26 -36 -1 -19 -13 -58 -25 -85 -21 -42 -28
-49 -51 -47 -20 1 -28 -3 -28 -15 -1 -9 -1 -56 -1 -104 0 -48 -5 -90 -10 -93
-31 -20 31 -104 121 -165 32 -22 66 -50 74 -62 21 -30 20 -65 -1 -77 -10 -6
-13 -11 -8 -11 14 0 17 -38 4 -45 -13 -9 -11 -69 3 -83 15 -15 70 -16 85 -1 7
7 57 11 130 11 96 1 125 -3 145 -16 19 -12 36 -15 61 -11 21 4 50 2 72 -6 44
-16 57 -4 53 53 -3 54 10 62 62 39 24 -10 49 -17 57 -14 25 10 27 53 4 83 -25
35 -28 65 -5 56 49 -19 63 -18 78 6 11 17 14 35 10 56 -4 17 -4 38 0 47 5 14
9 14 43 0 65 -27 80 -4 41 65 -22 38 -22 39 -3 60 14 15 26 19 47 15 34 -8 46
14 29 51 -8 18 -7 41 4 92 19 90 23 99 48 106 19 4 22 12 23 63 1 32 8 88 15
125 12 61 15 67 35 62 15 -4 27 2 43 22 16 21 24 25 33 16 9 -9 8 -18 0 -38
-18 -39 -25 -104 -10 -104 6 0 8 -3 5 -7 -4 -3 -1 -16 7 -28 8 -12 20 -42 26
-66 6 -24 23 -61 37 -82 29 -42 37 -83 18 -91 -8 -3 -27 0 -44 7 -63 23 -46
-28 21 -65 45 -24 52 -36 93 -138 50 -125 78 -172 120 -199 59 -38 92 -80 99
-123 9 -56 76 -109 90 -71 3 8 -1 25 -10 38 -17 25 -13 55 6 55 12 0 42 -30
82 -82 27 -35 29 -36 65 -25 21 6 54 25 73 44 20 18 46 33 59 33 26 0 62 17
77 38 9 12 15 9 37 -17 31 -37 42 -39 42 -8 0 13 9 26 23 32 12 5 25 18 28 29
5 16 13 18 50 12 50 -6 52 -2 24 51 -22 41 -17 54 32 79 15 8 34 30 42 49 8
19 26 40 40 47 20 9 26 19 26 43 0 36 17 55 49 58 29 2 26 14 -10 36 -42 25
-56 50 -54 90 1 27 -6 41 -31 65 -18 17 -34 40 -36 51 -2 11 -14 40 -27 65
-72 135 -67 128 -101 135 -13 3 -54 34 -90 70 -36 36 -71 65 -78 65 -6 0 -33
21 -59 46 -47 44 -151 114 -171 114 -5 0 -12 7 -16 15 -3 8 -15 15 -26 15 -18
0 -25 10 -21 33 0 4 -4 7 -10 7 -5 0 -8 4 -5 8 3 5 -8 22 -24 37 -52 50 -34
53 73 17 44 -15 49 -15 77 2 30 17 31 17 83 -13 45 -26 58 -29 83 -21 16 5 41
12 57 15 18 4 27 12 27 24 0 30 23 32 122 10 l92 -20 28 21 28 21 44 -21 c64
-29 70 -27 62 21 l-6 40 37 -3 c35 -4 123 19 140 36 4 4 8 15 8 24 0 13 14 19
63 26 57 9 62 12 62 34 0 14 5 42 11 63 10 33 9 41 -10 65 -29 37 -27 44 13
44 48 0 52 22 16 96 -43 90 -41 108 20 141 26 15 36 27 38 50 3 33 1 35 -66
48 -28 6 -38 15 -57 57 -13 28 -41 68 -61 89 -21 22 -39 47 -40 57 -3 55 -5
60 -28 66 -13 3 -42 24 -65 46 -53 52 -71 52 -68 3 3 -51 -15 -49 -100 12 -9
7 -24 4 -51 -10 -33 -19 -46 -20 -117 -13 -85 8 -95 4 -95 -40 0 -17 -11 -28
-42 -43 -24 -11 -54 -26 -68 -34 -22 -12 -28 -12 -48 1 -28 18 -52 12 -52 -14
0 -23 -31 -53 -56 -54 -11 -1 -30 2 -43 6 -21 7 -23 6 -16 -10 29 -72 30 -74
13 -90 -15 -16 -19 -16 -57 0 -72 28 -82 24 -80 -35 2 -58 -10 -73 -49 -58
-35 14 -52 4 -52 -28 0 -44 -13 -54 -74 -59 -63 -5 -68 7 -11 26 37 12 43 28
26 73 -13 35 -5 59 29 82 36 24 44 54 30 106 -11 40 -10 42 24 76 30 30 33 39
25 60 -15 39 -11 63 10 63 34 0 43 23 26 69 -10 30 -12 49 -5 67 6 14 10 44
10 66 0 40 1 40 30 34 44 -8 49 16 12 58 -29 34 -34 68 -11 82 12 7 11 61 0
69 -6 3 -9 23 -8 44 1 31 -7 48 -41 91 -35 44 -42 59 -36 82 5 23 0 34 -21 54
-14 13 -38 24 -53 24 -94 0 -167 14 -211 41 -25 16 -55 29 -67 29 -12 0 -36
11 -52 25 -17 14 -32 25 -35 25 -3 0 -8 -18 -12 -39z"/>
</g>
</svg>
