<?xml version="1.0" standalone="no"?>
<!DOCTYPE svg PUBLIC "-//W3C//DTD SVG 20010904//EN"
 "http://www.w3.org/TR/2001/REC-SVG-20010904/DTD/svg10.dtd">
<svg version="1.0" xmlns="http://www.w3.org/2000/svg"
 width="558.000000pt" height="558.000000pt" viewBox="0 0 558.000000 558.000000"
 preserveAspectRatio="xMidYMid meet">
<metadata>
Created by potrace 1.13, written by Peter Selinger 2001-2015
</metadata>
<g transform="translate(0.000000,558.000000) scale(0.100000,-0.100000)"
fill="#000000" stroke="none">
<path d="M633 4474 c-9 -23 16 -196 41 -287 41 -145 72 -217 236 -532 70 -135
135 -282 165 -373 12 -38 23 -53 38 -57 71 -16 579 -70 752 -80 61 -4 121 -9
135 -11 13 -2 119 -6 235 -10 115 -4 217 -8 225 -9 24 -3 28 -114 20 -660 -6
-374 -34 -777 -80 -1162 -26 -209 -26 -205 3 -194 12 5 40 11 62 15 22 3 51 8
65 11 62 13 155 19 270 19 160 0 219 -7 360 -40 36 -9 72 -17 80 -19 8 -2 15
-4 15 -5 0 -1 7 -3 15 -5 8 -2 25 -7 38 -11 12 -3 22 -2 22 3 0 5 -13 97 -30
203 -35 231 -65 490 -80 690 -6 80 -13 165 -15 190 -3 25 -8 253 -12 508 l-6
462 99 1 c54 0 106 2 114 3 8 2 84 6 168 10 84 4 163 9 175 11 12 2 60 6 107
10 86 6 434 43 480 50 14 2 93 13 175 25 207 30 220 31 224 36 2 2 23 47 46
101 23 54 62 139 85 188 84 180 98 212 133 320 69 210 82 288 82 485 l0 125
-80 -1 c-110 -1 -206 -13 -290 -36 -22 -6 -47 -13 -56 -14 -9 -2 -29 -9 -45
-15 -16 -7 -31 -13 -34 -13 -38 -9 -108 -42 -103 -49 3 -6 1 -7 -5 -3 -11 7
-62 -12 -73 -27 -3 -5 -8 -8 -10 -6 -8 5 -79 -25 -79 -34 0 -4 -4 -5 -10 -2
-6 3 -10 1 -10 -4 0 -6 -3 -11 -7 -10 -18 3 -52 -14 -47 -22 3 -5 -3 -6 -12
-2 -13 5 -15 3 -9 -7 5 -9 4 -11 -3 -6 -6 4 -31 -3 -54 -16 -24 -12 -46 -21
-50 -20 -5 1 -8 -3 -8 -9 0 -5 -4 -7 -10 -4 -5 3 -10 1 -10 -4 0 -6 -3 -10 -7
-9 -17 4 -82 -26 -76 -35 3 -6 1 -7 -4 -4 -6 4 -28 -1 -49 -10 -22 -9 -43 -18
-49 -19 -5 -2 -52 -18 -102 -37 -51 -19 -93 -32 -93 -30 0 3 -7 0 -15 -7 -8
-7 -15 -10 -15 -6 0 4 -14 0 -30 -9 -17 -9 -30 -13 -30 -11 0 3 -11 1 -25 -4
-14 -5 -36 -12 -48 -14 -12 -3 -33 -7 -47 -10 -35 -8 -120 -25 -150 -31 -14
-3 -45 -8 -70 -11 -25 -3 -53 -8 -63 -10 -139 -26 -654 -26 -807 0 -14 3 -43
7 -65 11 -82 11 -162 27 -220 42 -33 8 -67 16 -75 18 -69 14 -109 29 -103 38
3 6 1 7 -6 3 -15 -10 -187 50 -346 120 -22 10 -43 17 -47 16 -5 -1 -8 3 -8 9
0 5 -4 7 -10 4 -5 -3 -10 -1 -10 4 0 6 -3 10 -7 9 -5 -1 -37 12 -73 29 -181
86 -240 113 -250 113 -5 0 -10 5 -10 10 0 6 -3 9 -7 8 -5 -1 -45 12 -90 30
-118 46 -234 77 -328 88 -27 3 -60 7 -73 9 -14 2 -25 -2 -29 -11z"/>
</g>
</svg>
