<?xml version="1.0" standalone="no"?>
<!DOCTYPE svg PUBLIC "-//W3C//DTD SVG 20010904//EN"
 "http://www.w3.org/TR/2001/REC-SVG-20010904/DTD/svg10.dtd">
<svg version="1.0" xmlns="http://www.w3.org/2000/svg"
 width="558.000000pt" height="558.000000pt" viewBox="0 0 558.000000 558.000000"
 preserveAspectRatio="xMidYMid meet">
<metadata>
Created by potrace 1.13, written by Peter Selinger 2001-2015
</metadata>
<g transform="translate(0.000000,558.000000) scale(0.100000,-0.100000)"
fill="#000000" stroke="none">
<path d="M2714 5108 c-9 -15 -21 -781 -24 -1610 l0 -128 -76 0 -76 0 6 433 c4
237 9 511 11 607 8 305 16 563 21 634 l4 69 -117 -6 c-64 -4 -120 -10 -124
-14 -16 -18 -50 -461 -64 -862 -3 -80 -7 -147 -10 -149 -2 -3 0 -12 5 -22 5
-10 6 -21 2 -24 -6 -7 -10 -117 -16 -496 l-3 -175 -54 -1 c-230 -5 -693 -17
-734 -19 -27 -2 -122 -6 -210 -10 -88 -3 -176 -8 -195 -10 -19 -2 -82 -6 -140
-10 -58 -4 -121 -8 -140 -10 -19 -2 -73 -6 -119 -10 -100 -8 -122 -12 -132
-22 -4 -5 -11 -88 -15 -186 l-7 -178 154 5 c85 3 468 8 852 12 l697 7 0 -116
0 -116 -852 6 -851 5 7 -203 c4 -112 9 -216 11 -231 2 -15 6 -66 10 -115 10
-128 3 -119 103 -133 48 -6 98 -13 112 -15 64 -9 266 -30 395 -40 39 -3 93 -8
120 -10 28 -2 102 -7 165 -10 63 -4 133 -8 155 -10 22 -2 130 -7 240 -10 110
-4 232 -9 270 -10 39 -2 91 -4 116 -4 l47 -1 2 -88 c6 -303 19 -630 35 -897
15 -237 23 -342 40 -490 4 -33 8 -73 10 -88 1 -15 5 -30 8 -33 13 -14 569 -26
582 -12 11 10 13 74 30 868 2 85 4 289 4 453 l1 297 76 0 76 0 -7 -382 c-4
-211 -8 -412 -10 -448 -1 -36 -6 -153 -10 -260 -4 -107 -8 -211 -10 -230 -2
-19 -6 -95 -10 -168 l-7 -133 88 6 c190 14 347 34 355 46 4 7 11 33 15 58 4
25 8 51 9 56 6 23 35 214 40 260 3 28 8 66 11 86 2 20 7 58 9 83 3 25 7 66 10
91 2 25 7 80 10 122 3 43 8 96 10 118 2 22 6 90 10 150 3 61 8 133 10 160 2
28 7 124 10 215 4 91 8 166 9 167 1 1 55 4 121 8 66 3 156 7 200 10 259 14
303 17 335 20 19 2 76 6 125 10 50 4 101 8 115 10 14 2 59 6 100 10 41 4 86 8
100 10 14 2 50 7 80 10 58 7 99 12 140 20 14 2 43 7 65 10 22 3 69 11 105 18
73 14 71 10 85 152 6 68 5 74 -12 71 -10 -2 -47 -7 -83 -11 -36 -4 -72 -9 -80
-10 -8 -2 -53 -6 -100 -10 -47 -4 -92 -9 -101 -10 -8 -2 -71 -6 -140 -10 -68
-4 -132 -9 -141 -11 -9 -1 -90 -6 -180 -9 -90 -4 -179 -9 -198 -10 -19 -2
-149 -7 -288 -11 l-252 -7 5 49 c3 27 7 76 10 108 2 32 6 60 7 61 2 2 134 6
293 9 160 4 342 9 405 11 316 12 402 16 485 20 290 17 379 26 388 39 8 12 3
708 -7 745 -8 35 -5 34 -111 45 -144 16 -207 22 -330 31 -44 4 -98 8 -120 10
-22 2 -103 6 -180 10 -77 4 -160 9 -185 10 -59 4 -440 17 -552 19 -48 1 -90 4
-92 7 -3 2 -7 90 -11 194 -9 300 -28 659 -40 785 -2 25 -7 81 -10 125 -4 44
-8 91 -10 105 -2 14 -7 59 -10 100 -4 41 -8 82 -10 90 -2 8 -6 44 -10 80 -3
36 -8 72 -10 80 -2 8 -7 33 -10 55 -14 99 -17 104 -75 106 -19 0 -42 2 -50 3
-102 20 -706 40 -716 24z"/>
</g>
</svg>
