<?xml version="1.0" standalone="no"?>
<!DOCTYPE svg PUBLIC "-//W3C//DTD SVG 20010904//EN"
 "http://www.w3.org/TR/2001/REC-SVG-20010904/DTD/svg10.dtd">
<svg version="1.0" xmlns="http://www.w3.org/2000/svg"
 width="558.000000pt" height="558.000000pt" viewBox="0 0 558.000000 558.000000"
 preserveAspectRatio="xMidYMid meet">
<metadata>
Created by potrace 1.13, written by Peter Selinger 2001-2015
</metadata>
<g transform="translate(0.000000,558.000000) scale(0.100000,-0.100000)"
fill="#000000" stroke="none">
<path d="M1740 4905 c-126 -17 -181 -31 -266 -70 -88 -40 -125 -65 -200 -134
-164 -151 -212 -312 -168 -561 26 -150 26 -492 -1 -642 -3 -16 -7 -39 -9 -53
-3 -14 -10 -52 -16 -85 -6 -33 -13 -72 -16 -87 -3 -16 -7 -35 -9 -43 -2 -8 -7
-31 -11 -50 -3 -19 -7 -39 -8 -45 -2 -5 -6 -28 -11 -50 -4 -22 -9 -49 -12 -60
-2 -11 -12 -65 -22 -120 -18 -96 -24 -131 -37 -212 -3 -21 -7 -49 -10 -63 -2
-14 -6 -52 -10 -85 -3 -33 -8 -71 -10 -85 -17 -105 -26 -576 -12 -696 26 -224
116 -423 256 -562 66 -66 177 -135 235 -146 15 -2 32 -8 39 -12 7 -4 141 -9
298 -9 157 -1 296 -4 310 -8 14 -3 49 -8 79 -11 30 -4 64 -9 75 -11 12 -2 35
-6 51 -9 17 -2 57 -9 90 -15 33 -6 76 -13 95 -16 19 -3 42 -8 50 -10 8 -2 33
-7 55 -10 23 -3 52 -7 65 -10 14 -3 36 -7 50 -9 14 -3 43 -8 65 -11 37 -5 56
-8 140 -21 17 -2 41 -6 55 -9 14 -2 56 -7 93 -10 37 -4 76 -8 85 -10 92 -17
534 -24 767 -12 152 9 163 10 245 21 78 12 80 12 154 35 203 63 350 162 446
301 41 60 86 154 95 197 3 16 9 42 13 58 6 31 7 113 2 390 -3 137 3 319 14
430 2 17 6 66 10 110 4 44 9 91 11 105 2 14 7 57 10 95 4 39 8 81 10 95 1 14
6 63 10 110 4 47 9 99 11 115 20 194 26 783 12 1055 -19 348 -92 540 -269 704
-73 67 -201 140 -264 151 -16 2 -51 8 -76 13 -51 10 -139 9 -309 -4 -202 -16
-591 -10 -785 10 -16 2 -68 7 -115 11 -47 4 -93 9 -103 11 -9 1 -56 6 -105 9
-48 4 -94 8 -102 10 -8 1 -60 6 -115 10 -55 4 -116 9 -135 11 -99 12 -701 11
-790 -1z"/>
</g>
</svg>
