<?xml version="1.0" standalone="no"?>
<!DOCTYPE svg PUBLIC "-//W3C//DTD SVG 20010904//EN"
 "http://www.w3.org/TR/2001/REC-SVG-20010904/DTD/svg10.dtd">
<svg version="1.0" xmlns="http://www.w3.org/2000/svg"
 width="558.000000pt" height="558.000000pt" viewBox="0 0 558.000000 558.000000"
 preserveAspectRatio="xMidYMid meet">
<metadata>
Created by potrace 1.13, written by Peter Selinger 2001-2015
</metadata>
<g transform="translate(0.000000,558.000000) scale(0.100000,-0.100000)"
fill="#000000" stroke="none">
<path d="M2703 4413 c-83 -126 -220 -322 -303 -438 -392 -542 -639 -947 -1062
-1740 -238 -446 -499 -1009 -569 -1225 -4 -14 -26 -77 -48 -140 -22 -63 -37
-116 -32 -118 17 -6 223 69 348 127 70 32 218 103 328 158 406 204 623 267
905 267 82 0 202 -9 246 -18 12 -2 37 -7 55 -10 89 -15 248 -57 492 -130 260
-79 336 -100 452 -125 84 -18 106 -22 203 -37 20 -3 48 -7 62 -10 100 -17 520
-24 635 -10 22 2 57 5 78 5 20 1 37 6 37 11 0 6 -17 34 -38 63 -337 459 -587
975 -1011 2082 -23 61 -48 126 -56 145 -8 19 -62 164 -120 322 -134 366 -183
492 -252 653 -53 122 -176 371 -192 388 -4 4 -75 -95 -158 -220z"/>
</g>
</svg>
