<?xml version="1.0" standalone="no"?>
<!DOCTYPE svg PUBLIC "-//W3C//DTD SVG 20010904//EN"
 "http://www.w3.org/TR/2001/REC-SVG-20010904/DTD/svg10.dtd">
<svg version="1.0" xmlns="http://www.w3.org/2000/svg"
 width="512.000000pt" height="512.000000pt" viewBox="0 0 512.000000 512.000000"
 preserveAspectRatio="xMidYMid meet">
<metadata>
Created by potrace 1.13, written by Peter Selinger 2001-2015
</metadata>
<g transform="translate(0.000000,512.000000) scale(0.100000,-0.100000)"
fill="#000000" stroke="none">
<path d="M1757 4098 c4 -123 15 -212 28 -245 8 -19 15 -50 17 -69 1 -19 6 -34
10 -34 4 0 8 -11 8 -24 0 -14 4 -27 9 -30 7 -5 21 -52 20 -71 0 -3 7 -13 16
-21 8 -9 15 -23 15 -32 0 -9 9 -30 20 -47 11 -16 30 -50 42 -75 12 -25 43 -78
70 -117 26 -40 44 -73 40 -73 -4 0 -2 -4 3 -8 18 -12 46 -62 36 -62 -5 0 -40
7 -76 15 -70 17 -237 21 -321 10 -63 -9 -213 -49 -284 -76 -93 -35 -190 -88
-305 -165 -120 -80 -144 -100 -252 -206 -59 -58 -71 -74 -61 -85 13 -16 85
-55 107 -59 7 -2 18 -7 24 -13 6 -6 18 -11 27 -11 9 0 21 -5 28 -12 6 -6 17
-13 24 -14 7 -1 33 -7 58 -14 25 -7 45 -11 45 -9 0 1 10 -3 23 -10 12 -7 35
-14 50 -16 15 -2 38 -7 52 -10 101 -22 349 -33 503 -21 31 3 57 2 57 -2 0 -4
-21 -29 -46 -57 -45 -49 -124 -157 -124 -170 0 -4 -8 -19 -18 -33 -31 -45 -71
-155 -108 -297 -25 -96 -41 -408 -23 -464 4 -14 12 -62 18 -106 11 -87 13 -98
39 -196 l18 -67 31 17 c39 20 126 73 133 81 3 3 39 34 80 70 41 36 80 70 85
77 6 6 27 31 47 55 68 79 128 157 128 166 0 5 9 17 20 27 11 10 20 21 20 26 0
4 17 36 39 70 21 35 41 74 45 87 4 12 11 22 16 22 4 0 10 10 13 23 4 12 12 31
20 41 13 18 16 13 36 -53 32 -107 78 -196 158 -311 40 -57 153 -174 202 -210
19 -14 49 -37 65 -51 17 -14 38 -29 46 -32 8 -4 40 -23 70 -42 30 -19 75 -45
100 -56 76 -37 200 -88 200 -84 0 2 17 -3 37 -11 20 -9 44 -18 52 -20 92 -23
112 -26 118 -20 19 19 -17 376 -39 376 -4 0 -8 14 -8 30 0 17 -4 38 -9 48 -16
28 -24 56 -22 69 1 7 -2 13 -7 13 -6 0 -13 12 -17 27 -3 15 -13 42 -20 60 -8
18 -15 37 -15 41 -1 4 -7 14 -15 22 -17 20 -60 103 -57 113 1 4 -3 7 -9 7 -5
0 -8 4 -5 8 3 5 -4 20 -16 34 -11 15 -33 49 -49 76 l-28 50 41 -10 c23 -5 44
-11 47 -13 15 -8 132 -18 212 -18 332 3 663 154 957 437 67 65 82 85 80 106
-2 14 -7 24 -13 23 -5 -1 -17 4 -25 12 -13 11 -77 47 -90 50 -3 1 -18 7 -35
15 -52 22 -129 51 -148 55 -9 2 -20 6 -25 8 -4 3 -23 8 -42 11 -19 3 -46 8
-60 11 -46 10 -95 17 -132 19 -21 0 -38 4 -38 7 0 9 -373 3 -394 -6 -11 -5 9
27 45 71 35 43 73 93 84 109 38 58 97 192 116 265 6 25 14 52 17 60 41 116 51
443 18 610 -31 157 -69 280 -88 280 -9 0 -18 -4 -20 -8 -1 -4 -23 -20 -48 -34
-25 -14 -55 -34 -67 -45 -51 -43 -64 -53 -68 -53 -3 0 -21 -15 -40 -32 -19
-18 -40 -38 -47 -45 -26 -23 -74 -80 -119 -138 -47 -62 -154 -225 -154 -234 0
-3 -5 -13 -10 -21 -5 -8 -27 -48 -47 -89 -30 -60 -39 -71 -44 -55 -47 130 -86
209 -148 300 -43 64 -190 216 -245 255 -31 21 -75 52 -99 69 -51 36 -232 134
-232 126 0 -4 -21 5 -48 18 -40 20 -78 34 -147 52 -5 2 -41 12 -80 23 -102 31
-100 31 -98 -41z"/>
</g>
</svg>
