<?xml version="1.0" standalone="no"?>
<!DOCTYPE svg PUBLIC "-//W3C//DTD SVG 20010904//EN"
 "http://www.w3.org/TR/2001/REC-SVG-20010904/DTD/svg10.dtd">
<svg version="1.0" xmlns="http://www.w3.org/2000/svg"
 width="512.000000pt" height="512.000000pt" viewBox="0 0 512.000000 512.000000"
 preserveAspectRatio="xMidYMid meet">
<metadata>
Created by potrace 1.13, written by Peter Selinger 2001-2015
</metadata>
<g transform="translate(0.000000,512.000000) scale(0.100000,-0.100000)"
fill="#000000" stroke="none">
<path d="M1751 4898 c1 -67 7 -160 15 -206 8 -46 12 -87 9 -91 -5 -10 110
-489 124 -512 5 -9 15 -44 22 -78 6 -34 16 -64 20 -67 5 -3 9 -14 9 -24 0 -11
11 -52 24 -92 13 -40 31 -100 40 -133 9 -33 21 -73 26 -90 4 -16 11 -55 15
-85 9 -79 31 -166 66 -262 39 -104 60 -170 56 -174 -2 -2 -19 12 -39 31 -47
46 -138 106 -149 99 -5 -3 -9 -1 -9 5 0 5 -9 12 -19 16 -11 3 -49 28 -86 55
-36 28 -68 50 -70 50 -2 0 -31 18 -64 40 -33 22 -65 40 -70 40 -6 0 -14 6 -18
13 -4 6 -26 21 -48 32 -22 10 -59 32 -82 47 -23 15 -44 28 -47 28 -3 0 -48 27
-99 60 -52 33 -97 60 -101 60 -4 0 -12 5 -19 10 -38 32 -248 179 -286 199 -14
8 -28 17 -31 21 -10 13 -126 80 -138 80 -8 0 -33 14 -57 30 -24 17 -48 30 -52
30 -5 0 -28 9 -50 20 -68 32 -173 51 -173 31 0 -5 6 -16 13 -23 7 -7 28 -37
47 -65 18 -29 37 -53 42 -53 4 0 8 -4 8 -10 0 -5 8 -18 18 -28 97 -104 225
-233 252 -257 104 -91 167 -143 181 -151 9 -5 36 -26 60 -47 66 -56 207 -167
214 -167 3 0 13 -8 23 -17 23 -22 74 -63 103 -83 12 -8 32 -24 45 -35 12 -11
44 -39 71 -62 26 -23 77 -69 112 -103 36 -34 113 -94 173 -133 59 -40 108 -75
108 -79 0 -4 -27 -5 -61 -1 -34 3 -118 1 -187 -6 -70 -6 -181 -13 -247 -16
-66 -2 -140 -6 -165 -9 -198 -22 -357 -32 -660 -42 -344 -11 -361 -13 -527
-61 -57 -16 -74 -30 -49 -39 19 -7 22 -34 4 -34 -26 0 12 -23 59 -36 26 -7 80
-22 118 -33 39 -11 95 -22 125 -26 30 -3 91 -11 135 -17 88 -12 105 -14 245
-22 195 -11 300 -16 480 -21 217 -7 270 -12 365 -31 22 -5 113 -8 203 -6 89 1
162 -1 162 -6 0 -4 -26 -22 -58 -40 -31 -18 -91 -64 -132 -102 -41 -39 -78
-70 -82 -70 -4 0 -13 -6 -20 -13 -7 -7 -38 -31 -68 -54 -30 -24 -64 -51 -75
-61 -11 -10 -74 -65 -140 -123 -66 -57 -122 -106 -125 -109 -3 -3 -25 -21 -50
-39 -25 -19 -49 -41 -53 -48 -4 -7 -13 -13 -18 -13 -12 0 -119 -88 -132 -108
-4 -6 -14 -12 -21 -12 -7 0 -26 -13 -42 -30 -16 -16 -35 -30 -41 -30 -7 0 -18
-9 -25 -20 -7 -11 -18 -20 -24 -20 -6 0 -29 -17 -51 -38 -62 -57 -105 -92
-112 -92 -4 0 -20 -18 -37 -39 -16 -22 -38 -45 -49 -51 -35 -19 -137 -190
-114 -190 21 0 104 23 113 31 6 5 18 9 28 9 10 0 26 4 36 9 9 5 82 41 162 81
80 39 177 91 215 116 39 24 85 51 104 59 18 9 38 20 45 25 21 18 145 97 159
103 8 3 100 64 203 134 104 71 225 149 269 173 44 24 100 54 125 68 25 13 54
32 65 42 40 36 180 138 184 134 2 -2 -8 -31 -23 -64 -15 -33 -32 -86 -38 -117
-6 -32 -19 -85 -29 -118 -10 -33 -25 -87 -33 -120 -9 -33 -23 -87 -32 -120 -9
-33 -29 -121 -45 -195 -15 -74 -42 -184 -59 -245 -17 -60 -43 -157 -59 -215
-15 -58 -32 -114 -38 -125 -5 -11 -17 -54 -26 -95 -10 -41 -26 -115 -38 -165
-13 -58 -21 -130 -22 -202 -2 -131 7 -151 47 -108 14 15 26 33 26 39 0 6 11
23 23 36 23 25 44 60 66 108 6 12 20 32 31 44 11 12 20 29 20 38 0 9 4 20 9
25 5 6 26 48 47 95 71 162 86 195 115 254 16 32 29 66 29 75 0 10 4 21 10 27
5 5 18 34 29 64 78 226 195 528 229 592 40 74 71 157 107 283 9 33 18 66 21
73 7 23 24 12 24 -15 0 -38 31 -137 62 -198 33 -65 42 -87 68 -165 23 -70 91
-234 121 -290 24 -46 83 -194 99 -245 6 -22 20 -58 30 -80 10 -22 35 -89 56
-150 20 -60 39 -112 43 -115 4 -3 20 -45 36 -95 16 -49 34 -97 41 -105 6 -8
19 -37 29 -65 10 -27 26 -59 35 -70 9 -11 23 -35 30 -52 7 -18 16 -33 20 -33
3 0 13 -12 20 -26 8 -14 32 -39 53 -56 l38 -31 -6 144 c-3 79 -14 185 -24 234
-10 50 -17 93 -15 97 5 8 -102 464 -116 493 -5 11 -12 36 -15 55 -7 39 -33
134 -45 165 -4 11 -16 49 -25 85 -10 36 -23 83 -30 105 -7 22 -16 63 -20 90
-16 116 -36 205 -66 285 -38 104 -60 172 -56 176 1 1 26 -19 56 -46 29 -26 72
-56 95 -66 22 -10 43 -21 46 -25 3 -3 21 -14 40 -24 19 -10 53 -32 75 -49 22
-18 47 -36 55 -39 8 -4 35 -20 60 -37 25 -16 95 -57 155 -91 154 -88 425 -258
445 -279 3 -3 34 -25 70 -48 36 -23 92 -60 124 -83 32 -22 73 -46 90 -52 17
-6 45 -20 61 -31 44 -31 68 -45 85 -52 8 -3 27 -12 42 -20 38 -21 146 -54 174
-54 29 0 30 10 3 41 -11 13 -28 36 -37 52 -9 15 -20 27 -24 27 -4 0 -8 4 -8 9
0 5 -17 27 -37 49 -21 22 -50 53 -64 68 -45 49 -222 217 -284 269 -33 28 -70
60 -83 73 -13 12 -27 22 -31 22 -4 0 -19 10 -33 23 -40 37 -176 147 -182 147
-3 0 -15 10 -28 23 -13 12 -36 31 -52 42 -16 11 -36 28 -45 38 -8 9 -21 17
-28 17 -7 0 -13 4 -13 8 0 5 -20 23 -45 41 -25 18 -87 73 -137 122 -80 78
-158 137 -280 212 -16 10 -28 21 -28 25 0 4 44 7 98 7 53 0 133 3 177 7 44 4
130 10 190 13 61 3 146 10 190 15 157 19 423 39 595 45 249 9 401 20 465 35
110 25 176 44 181 52 3 4 -2 8 -10 8 -21 0 -20 20 1 35 15 11 9 15 -42 30 -33
10 -70 21 -83 26 -34 13 -161 38 -202 40 -19 1 -60 5 -90 10 -122 18 -342 31
-755 44 -204 7 -275 13 -335 27 -25 6 -121 11 -215 10 -189 -1 -186 -3 -85 58
23 14 54 38 68 53 26 27 128 112 207 172 22 17 62 50 89 75 28 25 56 50 62 55
6 6 44 40 85 76 124 112 196 173 233 198 12 8 25 21 29 28 4 7 14 13 20 13 7
0 24 13 37 28 14 15 42 38 63 51 20 12 37 27 37 32 0 5 10 13 23 18 12 5 52
36 88 68 36 32 81 69 98 83 18 14 40 34 49 44 9 11 35 38 58 60 74 74 160 206
133 206 -21 0 -104 -23 -113 -31 -6 -5 -18 -9 -28 -9 -10 0 -26 -4 -36 -9 -9
-6 -36 -18 -59 -27 -24 -10 -43 -21 -43 -26 0 -4 -8 -8 -17 -9 -10 0 -40 -14
-68 -30 -27 -16 -66 -37 -85 -46 -19 -10 -56 -33 -82 -50 -26 -18 -52 -33 -57
-33 -5 0 -16 -6 -23 -13 -7 -7 -40 -28 -73 -46 -33 -19 -83 -51 -112 -72 -29
-22 -57 -39 -62 -39 -5 0 -16 -6 -23 -14 -8 -8 -48 -35 -89 -61 -41 -26 -76
-51 -79 -55 -3 -4 -25 -19 -50 -34 -25 -15 -65 -42 -90 -61 -40 -30 -85 -57
-257 -151 -23 -13 -87 -60 -143 -105 -55 -45 -103 -79 -106 -77 -3 3 6 30 20
59 13 30 31 88 40 129 8 41 22 98 30 125 34 114 95 366 110 455 9 52 23 115
32 140 8 25 23 81 35 125 62 245 78 305 87 322 5 10 22 83 37 163 15 80 31
154 36 165 12 28 5 223 -8 236 -13 13 -44 -14 -67 -59 -8 -16 -22 -34 -31 -42
-9 -7 -25 -32 -35 -56 -11 -23 -26 -49 -34 -56 -14 -14 -116 -222 -116 -236 0
-4 -10 -27 -21 -52 -59 -124 -79 -171 -103 -235 -98 -272 -206 -577 -209 -593
-2 -7 -9 -18 -15 -24 -7 -7 -12 -18 -12 -25 0 -7 -11 -30 -24 -51 -23 -35 -63
-147 -105 -292 -10 -36 -22 -65 -27 -64 -5 0 -12 21 -15 45 -10 65 -11 67 -51
148 -21 41 -38 82 -38 91 0 9 -3 19 -6 23 -4 3 -21 48 -39 99 -29 83 -97 245
-124 295 -5 10 -20 45 -32 78 -12 33 -28 69 -34 80 -7 11 -25 61 -41 110 -15
50 -32 92 -35 95 -4 3 -26 63 -49 133 -23 70 -46 127 -51 127 -5 0 -9 5 -9 11
0 21 -63 179 -72 179 -4 0 -8 6 -8 14 0 22 -40 106 -50 106 -6 0 -10 7 -10 15
0 9 -11 27 -24 39 -12 13 -26 30 -29 38 -3 8 -24 30 -46 47 l-41 33 1 -124z"/>
</g>
</svg>
