<?xml version="1.0" standalone="no"?>
<!DOCTYPE svg PUBLIC "-//W3C//DTD SVG 20010904//EN"
 "http://www.w3.org/TR/2001/REC-SVG-20010904/DTD/svg10.dtd">
<svg version="1.0" xmlns="http://www.w3.org/2000/svg"
 width="558.000000pt" height="558.000000pt" viewBox="0 0 558.000000 558.000000"
 preserveAspectRatio="xMidYMid meet">
<metadata>
Created by potrace 1.13, written by Peter Selinger 2001-2015
</metadata>
<g transform="translate(0.000000,558.000000) scale(0.100000,-0.100000)"
fill="#000000" stroke="none">
<path d="M2862 4543 c-5 -57 -55 -333 -83 -457 -134 -581 -384 -1154 -732
-1676 -264 -394 -531 -713 -937 -1119 -129 -129 -230 -232 -225 -230 6 3 93
46 195 96 450 222 869 353 1328 414 270 36 723 34 982 -6 449 -68 873 -204
1296 -415 99 -48 180 -87 181 -86 1 1 -37 31 -85 66 -90 67 -271 212 -331 265
-117 104 -157 141 -251 235 -567 564 -963 1260 -1170 2055 -54 207 -85 362
-115 575 -17 120 -20 144 -30 248 -7 64 -19 83 -23 35z"/>
</g>
</svg>
