<?xml version="1.0" standalone="no"?>
<!DOCTYPE svg PUBLIC "-//W3C//DTD SVG 20010904//EN"
 "http://www.w3.org/TR/2001/REC-SVG-20010904/DTD/svg10.dtd">
<svg version="1.0" xmlns="http://www.w3.org/2000/svg"
 width="558.000000pt" height="558.000000pt" viewBox="0 0 558.000000 558.000000"
 preserveAspectRatio="xMidYMid meet">
<metadata>
Created by potrace 1.13, written by Peter Selinger 2001-2015
</metadata>
<g transform="translate(0.000000,558.000000) scale(0.100000,-0.100000)"
fill="#000000" stroke="none">
<path d="M2774 4714 c19 -38 45 -107 58 -154 20 -75 23 -107 22 -280 0 -179
-3 -207 -32 -345 -29 -142 -86 -355 -101 -383 -9 -17 -95 243 -126 383 -70
314 -59 604 30 819 8 17 4 18 -61 12 -366 -36 -790 -217 -1062 -454 l-42 -37
54 -150 c30 -82 53 -151 52 -152 -1 -1 -67 24 -146 57 -80 33 -147 56 -150 52
-203 -249 -328 -486 -410 -779 -48 -170 -65 -286 -75 -500 l-4 -103 47 24 c61
30 131 52 212 67 70 12 370 16 460 6 30 -4 98 -11 150 -17 52 -6 120 -15 150
-20 30 -5 75 -12 100 -15 25 -4 48 -10 53 -14 8 -8 -196 -72 -383 -121 -189
-48 -320 -68 -470 -69 -144 -2 -206 7 -273 39 -22 11 -42 19 -43 17 -1 -1 8
-63 21 -137 40 -227 118 -462 212 -640 50 -94 174 -284 226 -344 l33 -39 109
36 c60 20 111 35 114 32 2 -3 -6 -62 -18 -131 -13 -69 -21 -126 -20 -128 2 -1
32 -26 66 -54 174 -142 395 -262 628 -341 159 -53 267 -76 411 -86 49 -4 99
-8 112 -10 12 -2 22 -2 22 1 0 2 -13 28 -30 57 -85 152 -92 391 -20 672 30
116 90 295 100 295 4 0 19 -33 33 -72 134 -378 143 -656 32 -921 -7 -16 3 -17
115 -17 379 0 861 215 1185 528 28 26 69 69 93 94 l44 45 -77 137 c-43 75 -76
139 -74 141 2 2 68 -12 147 -32 79 -19 149 -33 155 -30 21 8 134 217 182 337
89 219 152 501 148 660 0 14 -1 69 -2 122 l-1 98 -45 -34 c-101 -78 -238 -106
-485 -101 -214 4 -459 36 -700 92 l-75 17 43 12 c24 8 112 29 196 49 461 107
823 125 1009 50 38 -15 57 -19 57 -11 0 7 -7 61 -15 122 -33 248 -141 543
-284 774 -53 84 -151 219 -174 238 -10 9 -45 -1 -143 -37 -71 -26 -130 -45
-131 -42 -2 3 17 67 40 142 l44 136 -62 51 c-206 169 -497 319 -742 381 -149
38 -224 50 -440 67 l-83 6 34 -68z"/>
</g>
</svg>
