<?xml version="1.0" standalone="no"?>
<!DOCTYPE svg PUBLIC "-//W3C//DTD SVG 20010904//EN"
 "http://www.w3.org/TR/2001/REC-SVG-20010904/DTD/svg10.dtd">
<svg version="1.0" xmlns="http://www.w3.org/2000/svg"
 width="512.000000pt" height="512.000000pt" viewBox="0 0 512.000000 512.000000"
 preserveAspectRatio="xMidYMid meet">
<metadata>
Created by potrace 1.13, written by Peter Selinger 2001-2015
</metadata>
<g transform="translate(0.000000,512.000000) scale(0.100000,-0.100000)"
fill="#000000" stroke="none">
<path d="M2640 4453 c0 -75 -10 -91 -44 -75 -25 11 -26 11 -26 -26 0 -20 4
-53 10 -71 12 -43 -3 -65 -37 -56 -26 6 -26 6 -2 -85 5 -19 9 -46 9 -59 0 -20
-4 -23 -30 -19 -27 4 -29 3 -23 -21 3 -14 9 -30 13 -36 4 -5 10 -23 13 -40 3
-16 8 -40 12 -52 6 -20 4 -23 -19 -23 -16 0 -26 -5 -26 -15 0 -8 5 -15 10 -15
6 0 10 -11 10 -24 0 -14 4 -27 9 -30 21 -13 32 -119 12 -113 -5 1 -10 -1 -10
-6 -2 -9 9 -57 16 -77 4 -8 7 -17 8 -20 1 -3 4 -12 7 -20 25 -64 27 -80 11
-96 -15 -14 -15 -18 0 -43 23 -40 19 -69 -10 -63 -16 3 -26 15 -35 43 -6 22
-15 39 -20 39 -9 0 -32 49 -30 62 1 4 -7 12 -18 18 -11 6 -18 15 -15 20 3 5 1
11 -5 15 -6 4 -8 11 -4 16 3 6 -3 13 -15 16 -11 3 -18 9 -16 14 3 4 -4 13 -15
19 -11 6 -19 14 -18 18 5 15 -34 61 -47 56 -7 -3 -27 8 -43 24 -17 17 -33 28
-35 25 -3 -2 -11 10 -18 26 -8 17 -20 31 -27 31 -7 0 -10 5 -7 10 3 6 -1 10
-9 10 -9 0 -16 7 -16 15 0 8 -6 15 -14 15 -8 0 -16 3 -18 8 -9 20 -80 62 -107
62 -36 0 -63 9 -56 20 3 4 -7 11 -20 14 -14 4 -23 11 -20 17 4 5 -7 14 -24 20
-17 6 -31 15 -31 21 0 5 -5 6 -10 3 -6 -3 -13 0 -16 9 -8 20 -82 48 -106 40
-24 -7 -100 15 -92 27 3 5 -2 9 -10 9 -8 0 -21 6 -28 13 -7 7 -28 19 -45 26
-18 7 -33 18 -33 23 0 6 -7 8 -15 4 -8 -3 -15 -1 -15 3 0 5 -12 7 -27 4 -57
-11 -116 -6 -125 11 -5 9 -14 16 -20 16 -5 0 -32 11 -58 24 -66 33 -108 42
-116 23 -6 -17 -66 -16 -87 1 -7 5 -31 16 -54 23 -24 6 -43 16 -43 21 0 4 -6
8 -13 8 -7 0 -18 5 -25 12 -6 6 -19 13 -27 15 -8 2 -23 5 -32 7 -11 2 -34 -12
-56 -35 -32 -32 -38 -44 -32 -67 3 -15 19 -39 35 -52 17 -14 30 -29 30 -35 0
-5 16 -28 35 -50 38 -43 41 -55 23 -84 -9 -15 -7 -23 8 -44 10 -15 22 -27 26
-27 3 0 20 -13 36 -30 17 -17 38 -30 46 -30 9 0 16 -5 16 -11 0 -7 8 -18 17
-24 17 -13 17 -14 0 -33 -17 -18 -17 -20 0 -40 10 -12 25 -22 33 -24 21 -4 39
-22 32 -32 -3 -5 2 -7 11 -3 9 3 23 -1 32 -10 9 -8 19 -13 22 -10 10 11 38
-27 38 -52 0 -14 5 -27 10 -29 6 -2 14 -10 18 -18 4 -8 16 -14 26 -14 10 0 24
-7 31 -15 7 -8 16 -12 21 -9 5 3 9 0 9 -5 0 -6 9 -11 19 -11 11 0 23 -4 26
-10 3 -5 15 -10 27 -10 17 0 20 -5 16 -30 -4 -29 4 -36 35 -31 5 1 6 -3 3 -8
-5 -8 11 -19 37 -26 4 -2 10 -4 15 -5 4 -1 10 -2 15 -1 4 0 7 -4 7 -9 0 -6 9
-10 20 -10 11 0 20 -5 20 -11 0 -5 5 -7 10 -4 18 11 100 -35 100 -56 0 -14 10
-20 40 -25 22 -4 37 -10 34 -15 -3 -5 4 -9 15 -9 12 0 21 -4 21 -9 0 -5 16
-12 35 -15 19 -4 35 -10 35 -15 0 -4 17 -12 38 -17 21 -6 36 -15 34 -23 -1 -7
2 -10 7 -7 5 4 12 2 16 -4 3 -5 15 -10 25 -10 23 0 32 -13 24 -34 -7 -17 -64
-23 -64 -6 0 16 -42 21 -92 12 -26 -5 -49 -6 -50 -1 -2 4 -20 9 -41 11 -21 1
-40 5 -43 9 -2 4 -20 3 -39 -1 -20 -4 -35 -4 -35 1 0 15 -26 10 -48 -9 -17
-15 -40 -19 -124 -20 -103 -2 -118 -7 -131 -45 -1 -5 -22 -11 -47 -13 -24 -2
-53 -7 -64 -11 -21 -7 -29 -8 -73 -11 -16 -2 -23 -10 -25 -29 -3 -26 -11 -31
-105 -62 -57 -18 -103 -37 -103 -43 0 -5 4 -6 10 -3 14 9 -1 -27 -19 -46 -9
-9 -29 -19 -44 -23 -16 -4 -51 -17 -78 -28 -46 -20 -49 -24 -44 -50 6 -24 1
-31 -39 -57 -26 -16 -60 -34 -76 -41 -47 -19 -35 -29 30 -26 68 3 84 -8 75
-47 -7 -28 -7 -28 109 -11 l49 7 -5 -31 c-2 -18 -2 -32 1 -32 3 0 31 6 61 13
30 7 66 13 80 12 21 0 25 -4 22 -27 -3 -23 0 -26 17 -23 12 2 27 7 34 12 6 4
23 9 36 11 13 2 36 9 51 17 31 16 40 11 40 -21 0 -22 2 -23 28 -13 15 7 38 16
52 21 14 6 33 14 42 19 27 14 65 11 72 -6 4 -11 11 -13 28 -6 29 12 81 25 91
23 4 -1 7 2 7 8 0 5 10 10 23 10 12 0 29 5 37 10 10 6 22 4 37 -6 20 -13 26
-13 53 1 34 18 60 20 60 4 0 -23 -22 -49 -41 -49 -11 0 -31 -11 -44 -24 -13
-13 -26 -21 -29 -19 -3 3 -12 1 -19 -5 -8 -7 -17 -9 -21 -5 -4 4 -9 -3 -13
-15 -3 -12 -9 -19 -14 -17 -10 7 -51 -15 -62 -33 -5 -7 -12 -10 -17 -7 -5 3
-11 -3 -14 -12 -4 -10 -21 -25 -39 -33 -21 -10 -33 -23 -35 -40 -2 -13 -15
-35 -28 -47 -13 -12 -24 -27 -24 -33 0 -5 -7 -10 -14 -10 -18 0 -66 -43 -66
-59 0 -6 -6 -11 -12 -11 -7 0 -24 -17 -38 -38 -14 -20 -30 -41 -37 -45 -8 -5
-13 -29 -13 -58 0 -28 -3 -48 -7 -46 -5 3 -14 -1 -21 -9 -7 -8 -10 -14 -7 -14
3 0 0 -6 -7 -14 -7 -8 -16 -12 -21 -9 -4 2 -7 -5 -7 -16 0 -12 -4 -21 -10 -21
-5 0 -12 -11 -16 -25 -3 -14 -9 -25 -13 -25 -8 0 -34 -51 -31 -59 1 -2 -4 -7
-12 -12 -9 -6 -10 -11 -2 -19 17 -17 5 -82 -19 -102 -11 -10 -17 -18 -12 -18
4 0 2 -6 -4 -13 -6 -8 -8 -17 -4 -21 4 -4 0 -4 -10 0 -13 4 -16 2 -12 -9 4 -8
0 -21 -7 -28 -25 -26 -46 -95 -35 -115 13 -23 18 -64 7 -64 -4 0 -10 -14 -14
-31 -3 -17 -10 -28 -15 -24 -6 3 -15 -12 -21 -34 -6 -22 -15 -43 -20 -46 -6
-4 -8 -11 -5 -16 4 -5 1 -9 -6 -9 -7 0 -10 -3 -6 -6 3 -3 2 -17 -3 -30 -7 -17
-5 -27 6 -39 12 -11 14 -26 9 -55 -4 -22 -11 -40 -17 -40 -6 0 -8 -7 -4 -15 3
-8 2 -15 -3 -15 -5 0 -14 -20 -21 -45 -7 -25 -18 -49 -25 -53 -8 -4 -16 -23
-20 -42 -6 -32 -2 -39 36 -77 38 -38 44 -40 67 -30 14 6 40 25 58 42 50 46 62
55 74 55 6 0 9 3 6 8 -2 4 9 15 25 24 25 15 31 15 43 2 8 -8 19 -14 25 -14 14
0 101 85 101 99 0 7 13 26 29 44 29 30 31 30 49 14 18 -16 20 -16 45 6 15 12
27 30 27 39 0 9 6 21 13 25 13 8 27 34 33 61 5 27 27 42 57 40 17 -2 32 3 35
10 2 7 9 18 15 25 7 6 14 21 15 32 2 11 9 23 15 27 7 4 8 8 2 8 -5 0 -2 5 7
10 10 6 15 19 13 30 -2 11 0 20 5 20 5 0 10 10 12 23 2 17 9 22 30 20 20 -1
29 5 38 28 7 16 17 29 22 29 6 0 8 7 4 15 -3 8 -1 15 4 15 4 0 11 13 15 30 4
16 11 32 16 35 5 4 9 17 9 30 0 38 32 85 58 85 12 0 21 3 21 8 -3 16 14 72 22
72 5 0 9 7 9 15 0 8 4 15 9 15 5 0 12 18 16 40 4 22 10 40 15 40 7 0 21 37 25
65 0 6 6 9 13 8 6 -2 15 9 18 25 9 36 22 52 40 45 18 -7 18 -48 -1 -77 -12
-17 -14 -35 -8 -67 4 -24 6 -48 4 -54 -13 -38 -23 -99 -26 -152 -3 -49 -1 -64
12 -71 13 -8 16 -30 16 -121 0 -110 0 -112 27 -131 28 -20 30 -29 44 -162 5
-46 12 -58 35 -58 20 0 41 -20 45 -42 8 -41 49 -165 58 -173 8 -7 9 -6 4 3
-11 19 18 15 42 -7 12 -10 22 -22 22 -25 0 -4 12 -38 27 -74 27 -68 42 -89 54
-71 3 6 9 11 12 12 10 3 47 -36 47 -50 0 -7 3 -13 8 -13 4 0 16 -20 27 -45 27
-63 41 -57 37 14 -3 51 -1 61 17 70 13 7 22 8 26 1 3 -5 11 -10 16 -10 10 0 5
113 -6 130 -9 15 7 40 26 40 10 0 19 -5 19 -11 0 -5 4 -8 9 -5 7 5 3 31 -25
155 -5 21 -2 23 26 19 25 -4 30 -1 30 17 0 11 -4 25 -10 31 -5 5 -12 27 -16
49 -3 22 -10 42 -15 43 -5 2 -9 10 -9 18 0 14 8 17 42 17 16 0 16 2 2 28 -8
16 -12 29 -9 29 3 0 -1 14 -10 30 -9 17 -12 30 -8 30 4 0 2 5 -5 12 -18 18
-15 66 6 77 14 8 15 12 5 22 -7 7 -13 24 -13 38 0 15 -7 39 -16 56 -20 39 -30
115 -15 115 15 0 14 19 -2 50 -8 14 -11 33 -8 43 10 27 53 -1 63 -41 5 -18 15
-35 22 -38 8 -3 17 -21 21 -40 3 -19 13 -38 21 -41 7 -3 14 -14 14 -24 0 -10
9 -28 20 -39 11 -11 20 -24 20 -30 0 -5 4 -10 9 -10 5 0 18 -17 28 -37 13 -25
28 -39 43 -41 28 -5 114 -88 105 -102 -3 -6 -1 -10 6 -10 6 0 29 -18 50 -40
22 -22 43 -40 49 -40 5 0 18 -9 28 -20 10 -11 35 -21 59 -24 30 -3 51 -13 76
-37 19 -19 40 -35 48 -37 8 -2 16 -8 17 -13 2 -5 10 -9 17 -9 8 0 18 -6 22
-13 13 -21 89 -50 112 -42 22 7 91 -11 91 -24 0 -4 21 -18 48 -31 26 -13 53
-30 61 -37 7 -8 20 -12 27 -9 8 3 14 1 14 -4 0 -14 36 -13 59 1 10 7 29 9 42
6 13 -3 28 -6 32 -6 5 0 17 -9 26 -20 10 -12 25 -21 33 -21 8 0 18 -3 22 -8 4
-4 11 -7 14 -8 4 0 24 -8 46 -17 42 -19 76 -22 76 -8 0 5 9 11 20 14 22 6 181
-52 193 -69 4 -7 25 -15 47 -19 36 -6 42 -4 79 34 37 38 39 42 28 71 -6 16
-19 33 -29 36 -10 3 -18 11 -18 18 0 6 -16 29 -35 49 -19 20 -35 42 -35 47 0
6 -4 10 -10 10 -14 0 -13 26 2 49 9 15 8 24 -5 45 -10 14 -25 26 -34 26 -9 0
-13 3 -10 6 8 9 -32 44 -49 44 -7 0 -19 9 -27 20 -8 11 -17 17 -20 13 -4 -3
-7 3 -7 13 0 11 5 25 11 31 14 14 4 47 -11 38 -6 -4 -7 1 -3 11 4 12 3 15 -5
10 -7 -4 -12 -2 -12 4 0 6 -4 9 -9 5 -5 -3 -15 1 -23 8 -7 7 -31 21 -53 31
-57 27 -67 40 -55 70 7 21 6 26 -5 26 -8 0 -15 4 -15 8 0 9 -70 42 -88 42 -7
0 -11 5 -10 12 2 8 -8 12 -24 12 -15 -1 -25 3 -22 7 3 5 -7 9 -21 9 -23 0 -26
4 -23 27 2 22 -4 33 -30 51 -18 12 -38 20 -43 17 -5 -4 -9 -2 -9 3 0 8 -35 23
-49 21 -2 0 -7 4 -11 11 -4 6 -21 12 -38 12 -18 1 -32 5 -32 10 0 4 -7 8 -15
8 -8 0 -15 5 -15 11 0 5 -5 7 -12 3 -8 -5 -9 0 -5 15 4 17 0 24 -21 33 -15 5
-35 14 -44 19 -10 5 -25 9 -33 9 -8 0 -15 7 -15 16 0 8 -4 12 -10 9 -6 -3 -16
-3 -22 2 -13 8 -18 9 -39 12 -5 0 -8 5 -5 10 4 5 -12 12 -34 16 -24 4 -40 12
-40 21 0 7 -15 17 -32 22 -44 11 -46 45 -4 50 16 2 32 -2 37 -10 6 -9 26 -12
61 -11 29 2 86 -5 127 -13 40 -9 81 -14 91 -11 10 2 24 1 31 -3 7 -5 23 0 38
11 26 19 42 21 166 19 38 0 71 3 73 8 8 26 32 45 58 47 16 1 46 5 67 9 20 3
52 8 71 11 28 5 35 11 38 32 4 32 11 36 121 69 72 21 86 28 77 39 -9 11 -6 20
14 39 15 13 39 27 53 31 15 3 48 16 74 28 41 19 47 25 42 47 -6 30 11 47 85
85 29 15 55 31 58 36 3 5 -22 8 -56 6 -77 -4 -88 3 -73 43 l11 30 -56 -6 c-31
-3 -69 -7 -84 -9 -29 -3 -45 19 -28 40 15 18 2 24 -32 14 -17 -5 -50 -11 -72
-15 -23 -3 -45 -6 -51 -7 -5 -1 -9 10 -8 26 1 22 -2 27 -21 27 -12 0 -26 -4
-31 -9 -6 -5 -24 -11 -41 -14 -17 -3 -40 -10 -51 -16 -24 -12 -33 -6 -33 26 0
24 -14 31 -25 13 -3 -5 -15 -10 -26 -10 -10 0 -27 -4 -37 -8 -9 -5 -26 -13
-37 -18 -28 -14 -71 -11 -67 5 2 9 -9 11 -45 5 -27 -3 -54 -11 -60 -16 -7 -6
-13 -7 -13 -3 0 4 -6 3 -13 -3 -20 -17 -97 -27 -97 -13 0 15 -32 14 -55 -3
-21 -15 -55 -10 -55 9 0 17 33 45 53 45 9 0 24 9 34 19 10 11 31 23 46 26 16
4 31 13 34 21 2 7 18 16 35 19 16 4 32 13 35 21 3 8 11 14 18 14 7 0 16 7 19
16 3 8 10 13 14 10 12 -7 62 42 62 61 0 18 55 84 64 76 3 -4 6 -1 6 5 0 7 7
12 15 12 8 0 15 7 15 15 0 8 5 15 11 15 14 0 39 25 39 39 0 6 7 11 15 11 8 0
15 7 15 15 0 8 10 25 22 37 15 15 21 32 20 58 -1 29 5 43 33 71 19 19 35 40
35 47 0 6 5 12 10 12 6 0 10 6 10 13 0 7 11 25 25 40 14 15 23 27 19 27 -3 0
-1 6 5 14 6 8 13 41 14 73 2 48 8 66 30 92 15 18 27 39 27 46 0 7 7 20 15 29
9 8 22 33 29 55 13 34 12 42 -1 60 -9 13 -12 29 -7 39 4 9 8 19 9 22 8 30 18
50 25 50 5 0 14 17 21 38 6 20 15 42 20 48 5 6 6 14 2 17 -3 4 -2 7 4 7 18 0
22 50 6 66 -11 11 -13 26 -8 59 3 25 11 45 16 45 6 0 7 5 4 10 -3 6 -1 10 4
10 6 0 10 3 10 8 -1 4 0 10 1 15 1 4 3 10 5 15 5 20 19 49 30 62 7 8 15 28 19
43 7 31 -16 69 -61 98 -22 14 -29 15 -51 3 -14 -7 -36 -25 -49 -40 -13 -15
-23 -24 -23 -21 0 7 -7 2 -68 -50 -31 -26 -60 -30 -68 -8 -5 12 -10 12 -27 3
-28 -14 -47 -34 -47 -47 0 -5 -9 -13 -20 -16 -11 -3 -23 -17 -26 -30 -3 -13
-17 -33 -30 -46 -21 -20 -28 -22 -45 -11 -17 11 -24 11 -37 0 -27 -21 -37 -33
-40 -48 -2 -8 -7 -17 -11 -20 -4 -3 -15 -23 -26 -45 -21 -47 -44 -66 -64 -55
-19 10 -48 -17 -62 -57 -6 -18 -14 -31 -19 -28 -4 3 -6 -4 -3 -15 4 -15 2 -19
-10 -15 -11 5 -13 0 -10 -19 3 -15 1 -26 -5 -26 -6 0 -12 -10 -14 -22 -2 -17
-10 -22 -33 -23 -22 0 -30 -4 -29 -17 1 -10 -2 -15 -7 -12 -5 3 -9 -2 -9 -11
0 -10 -5 -13 -12 -9 -8 5 -9 2 -5 -9 4 -10 2 -17 -4 -17 -6 0 -9 -9 -6 -20 3
-11 1 -18 -4 -14 -5 3 -9 -4 -9 -16 0 -12 -4 -19 -8 -16 -5 3 -9 -9 -10 -26 0
-17 -5 -34 -10 -37 -5 -3 -13 -16 -16 -29 -6 -17 -13 -21 -26 -17 -15 5 -21
-2 -31 -35 -7 -22 -16 -40 -21 -40 -4 0 -8 -9 -8 -21 0 -11 -4 -17 -10 -14 -9
5 -14 -21 -13 -62 1 -7 -5 -13 -13 -13 -7 0 -16 -16 -20 -35 -3 -19 -10 -35
-16 -35 -5 0 -16 -16 -24 -35 -14 -34 -42 -48 -46 -22 -4 36 -3 44 10 64 9 15
11 36 7 65 -3 24 -1 66 5 93 20 85 21 164 2 174 -14 8 -17 28 -17 116 0 93 -3
109 -19 121 -10 7 -23 15 -28 16 -4 2 -11 26 -14 53 -16 140 -20 153 -52 157
-23 3 -29 12 -57 96 -17 51 -29 95 -26 99 3 3 -4 4 -16 1 -29 -8 -59 15 -68
49 -3 16 -17 52 -31 81 -22 46 -28 52 -49 46 -19 -5 -29 1 -54 36 -17 23 -36
58 -43 76 -18 50 -28 41 -28 -23z"/>
</g>
</svg>
