<?xml version="1.0" standalone="no"?>
<!DOCTYPE svg PUBLIC "-//W3C//DTD SVG 20010904//EN"
 "http://www.w3.org/TR/2001/REC-SVG-20010904/DTD/svg10.dtd">
<svg version="1.0" xmlns="http://www.w3.org/2000/svg"
 width="558.000000pt" height="558.000000pt" viewBox="0 0 558.000000 558.000000"
 preserveAspectRatio="xMidYMid meet">
<metadata>
Created by potrace 1.13, written by Peter Selinger 2001-2015
</metadata>
<g transform="translate(0.000000,558.000000) scale(0.100000,-0.100000)"
fill="#000000" stroke="none">
<path d="M3288 4708 c-9 -7 -18 -34 -21 -62 -4 -42 -11 -54 -48 -87 -48 -42
-64 -46 -93 -24 -28 21 -33 19 -40 -16 -7 -34 -60 -94 -76 -84 -5 3 -10 -1
-10 -9 0 -29 -35 -37 -87 -20 -26 10 -64 16 -83 16 -19 -1 -63 8 -97 21 -54
19 -67 30 -92 69 -35 56 -77 86 -93 70 -9 -9 -8 -18 0 -37 16 -34 15 -42 -3
-49 -22 -8 -70 38 -89 87 -28 73 -166 164 -166 109 0 -10 6 -26 14 -37 7 -11
17 -36 21 -55 4 -19 16 -49 26 -66 19 -31 19 -32 -1 -57 -26 -33 -25 -43 8
-85 43 -56 51 -75 41 -94 -8 -15 -5 -64 16 -218 1 -14 12 -45 23 -70 23 -49
16 -70 -23 -70 -37 0 -36 -25 2 -65 32 -34 51 -68 67 -121 4 -15 1 -28 -11
-40 -22 -22 -23 -30 -5 -76 9 -25 11 -42 4 -55 -7 -13 -6 -30 5 -58 9 -22 17
-67 18 -100 3 -72 18 -143 41 -186 12 -25 14 -37 5 -56 -15 -34 -15 -33 29
-93 22 -29 40 -57 40 -61 0 -4 -12 -12 -27 -17 -25 -8 -33 -5 -71 30 -47 43
-66 45 -69 7 0 -13 -1 -30 -2 -36 -2 -22 -45 -14 -93 16 -44 28 -122 57 -115
43 8 -14 -30 -38 -54 -35 -23 4 -103 11 -125 12 -6 1 -28 15 -49 31 -57 45
-80 40 -88 -17 -5 -34 -11 -35 -51 -8 -60 41 -158 86 -180 83 -16 -2 -21 -10
-19 -30 2 -27 1 -27 -65 -27 -57 0 -71 4 -106 30 -46 33 -57 35 -91 13 -24
-16 -30 -15 -118 14 -50 17 -106 33 -122 36 -118 18 -115 18 -115 1 0 -9 4
-24 9 -34 6 -9 6 -23 1 -31 -6 -10 -19 -3 -56 33 -51 50 -64 56 -84 32 -7 -8
-21 -15 -32 -15 -14 0 -18 -5 -14 -16 3 -9 6 -26 6 -39 0 -36 46 -85 80 -85
28 0 80 -47 80 -74 0 -6 9 -30 20 -51 16 -30 19 -49 14 -75 -10 -47 -7 -57 28
-101 40 -50 35 -75 -16 -71 l-37 3 2 -103 c3 -120 -13 -169 -63 -196 -71 -39
-88 -60 -88 -112 0 -33 -6 -55 -21 -74 -24 -31 -18 -32 36 -6 22 10 44 16 50
13 5 -4 22 -15 37 -25 30 -21 52 -24 45 -5 -22 59 -23 57 41 56 33 -1 65 2 71
6 7 3 34 -1 61 -11 49 -18 50 -18 74 5 23 21 25 22 55 7 29 -16 31 -15 67 16
l36 32 76 -16 c80 -17 122 -11 122 16 0 22 16 28 32 13 32 -32 51 -36 79 -15
27 20 39 20 96 3 18 -6 30 0 54 26 l31 33 48 -27 c65 -37 95 -36 109 4 9 27
15 31 38 26 16 -2 43 -11 61 -18 28 -12 36 -11 59 3 25 15 30 15 64 -3 34 -17
39 -17 53 -3 9 8 16 28 16 44 0 40 10 42 55 15 22 -14 52 -30 67 -36 16 -6 26
-15 23 -19 -3 -5 0 -21 6 -37 8 -21 7 -38 -2 -67 -11 -33 -11 -42 4 -65 36
-58 41 -71 29 -83 -9 -9 -20 -8 -47 5 -19 9 -36 13 -39 9 -2 -4 1 -26 7 -49 8
-33 8 -48 -3 -70 -17 -35 -18 -44 -8 -64 4 -9 10 -51 12 -92 4 -60 2 -75 -8
-71 -7 3 -18 -1 -24 -9 -11 -13 -16 -130 -10 -207 3 -34 2 -35 -34 -38 -46 -4
-48 -17 -12 -72 22 -33 25 -45 16 -64 -5 -12 -13 -54 -17 -92 -4 -38 -11 -84
-15 -103 -7 -24 -5 -42 5 -62 22 -41 19 -59 -9 -59 -23 0 -56 -23 -56 -38 0
-4 12 -25 26 -46 20 -29 25 -45 20 -69 -4 -18 -10 -47 -13 -65 -4 -27 -11 -34
-35 -39 -36 -7 -42 -21 -27 -59 9 -22 13 -25 16 -11 3 9 13 17 24 17 11 0 37
9 59 20 22 11 48 20 59 20 14 0 26 13 39 43 14 31 29 47 53 57 19 8 40 22 47
32 8 11 26 18 46 18 18 0 45 9 59 20 32 25 57 25 101 -1 32 -19 37 -19 42 -5
3 9 3 27 0 40 -8 33 6 40 46 23 18 -7 50 -12 70 -10 31 4 51 -4 115 -43 85
-51 93 -59 125 -119 11 -22 41 -60 65 -85 l44 -45 -18 38 c-17 38 -17 39 1 53
10 7 22 11 27 9 4 -3 5 9 2 26 -2 17 0 44 6 62 10 27 8 36 -16 71 -39 58 -42
68 -27 97 11 22 10 35 -8 94 -11 38 -27 79 -35 91 -9 15 -12 34 -8 57 5 26 0
47 -20 87 -24 47 -26 58 -16 90 11 37 5 101 -12 134 -5 11 -9 38 -9 61 1 31
-4 48 -19 61 -28 25 -51 72 -43 85 3 6 20 9 37 7 27 -2 33 1 35 20 2 13 -7 37
-21 55 -40 53 -77 123 -77 144 0 15 6 20 23 19 21 -1 22 3 23 73 0 69 -2 77
-33 118 -39 51 -41 73 -10 109 l23 27 47 -27 c38 -23 54 -27 86 -21 29 5 46 2
71 -14 42 -25 70 -14 70 29 0 38 22 39 53 4 26 -31 97 -74 121 -74 10 0 21 12
27 30 14 39 38 39 82 0 39 -34 49 -36 67 -15 17 20 40 19 70 -5 31 -24 53 -25
86 -3 24 15 29 15 103 -11 42 -15 93 -26 113 -24 20 1 55 -7 78 -17 33 -15 47
-17 69 -8 21 7 34 7 53 -3 25 -13 45 -14 65 -1 8 5 18 -3 27 -22 32 -61 69
-77 101 -45 16 16 16 28 0 68 -8 17 -5 18 31 11 21 -4 60 -9 86 -10 25 -1 57
-8 70 -17 12 -8 49 -18 80 -21 l57 -7 -32 57 c-18 31 -36 56 -42 55 -10 -2
-11 -7 -14 -44 -2 -34 -41 -6 -67 50 -15 31 -38 74 -52 94 -20 32 -25 51 -26
116 -1 72 -3 81 -33 117 -18 22 -33 50 -33 62 0 26 43 59 62 47 7 -5 0 7 -15
26 l-28 33 26 21 c19 15 28 33 31 61 2 26 11 46 28 59 36 31 77 120 71 155 -6
34 16 57 60 64 40 7 65 17 65 27 0 14 -37 21 -72 15 -18 -4 -45 -2 -59 4 -15
5 -60 11 -100 12 l-74 2 3 -42 c3 -50 -10 -53 -63 -11 -44 35 -52 36 -85 11
-28 -22 -106 -19 -178 6 -39 15 -45 14 -82 -2 -22 -10 -37 -22 -34 -27 3 -4
10 -5 16 -2 7 5 8 2 4 -5 -5 -7 -10 -10 -13 -7 -3 3 -12 -1 -20 -9 -20 -20
-60 -19 -91 3 -49 34 -62 34 -93 1 l-28 -30 -71 25 c-96 35 -120 34 -120 -3 0
-28 -1 -29 -69 -35 -65 -7 -73 -5 -110 19 -54 36 -76 31 -76 -19 0 -48 -14
-54 -61 -27 -20 12 -53 25 -74 30 -32 7 -41 5 -59 -13 -18 -18 -33 -21 -101
-21 -94 0 -100 9 -42 64 53 51 56 64 25 123 -30 57 -25 77 24 93 34 11 38 23
17 47 -14 14 -44 98 -44 120 0 5 13 14 30 19 31 11 40 28 36 69 -1 14 2 38 6
54 6 24 2 38 -22 74 -17 25 -30 49 -30 54 0 4 20 8 44 8 50 0 62 15 45 58 -26
64 -27 78 -8 118 10 21 18 49 19 61 0 11 10 47 22 78 19 49 20 63 10 99 -6 24
-8 57 -3 76 4 19 4 49 0 67 -8 39 -4 44 27 33 26 -10 54 -4 54 12 0 5 -11 28
-25 52 l-24 42 19 32 c12 19 18 42 15 55 -3 12 -7 36 -9 52 -2 17 -7 47 -11
68 -5 25 -3 42 5 52 15 18 9 19 -12 3z"/>
</g>
</svg>
