<?xml version="1.0" standalone="no"?>
<!DOCTYPE svg PUBLIC "-//W3C//DTD SVG 20010904//EN"
 "http://www.w3.org/TR/2001/REC-SVG-20010904/DTD/svg10.dtd">
<svg version="1.0" xmlns="http://www.w3.org/2000/svg"
 width="512.000000pt" height="512.000000pt" viewBox="0 0 512.000000 512.000000"
 preserveAspectRatio="xMidYMid meet">
<metadata>
Created by potrace 1.13, written by Peter Selinger 2001-2015
</metadata>
<g transform="translate(0.000000,512.000000) scale(0.100000,-0.100000)"
fill="#000000" stroke="none">
<path d="M1746 4957 c-7 -58 -5 -88 10 -202 12 -89 47 -262 59 -285 7 -14 27
-88 45 -165 18 -77 36 -144 40 -150 12 -15 80 -337 91 -430 23 -188 94 -408
200 -615 60 -119 53 -118 -89 15 -89 83 -94 88 -174 153 -42 34 -79 62 -82 62
-3 0 -25 14 -50 30 -24 17 -71 42 -103 56 -101 44 -176 83 -233 119 -30 19
-63 38 -72 41 -10 4 -18 10 -18 15 0 5 -6 9 -14 9 -8 0 -28 11 -44 25 -17 14
-35 25 -41 25 -6 0 -11 4 -11 9 0 5 -15 15 -32 22 -18 7 -37 17 -43 21 -41 33
-105 76 -128 86 -15 6 -53 30 -83 53 -31 22 -77 52 -102 66 -26 13 -65 36 -87
49 -22 13 -51 29 -65 34 -14 5 -38 16 -53 25 -16 8 -36 15 -46 15 -9 0 -21 4
-27 9 -9 8 -92 31 -113 31 -7 0 -6 -10 0 -30 6 -16 15 -30 20 -30 4 0 20 -20
35 -45 14 -25 30 -45 35 -45 5 0 9 -7 9 -15 0 -8 7 -15 15 -15 8 0 15 -4 15
-9 0 -17 186 -192 227 -214 10 -6 41 -31 70 -56 29 -25 75 -64 103 -86 28 -22
69 -56 93 -75 23 -19 48 -39 55 -45 7 -5 27 -22 43 -36 16 -15 50 -44 75 -65
26 -22 83 -77 128 -124 126 -131 155 -158 205 -192 25 -18 51 -37 56 -44 12
-15 187 -118 275 -163 36 -18 72 -40 80 -48 13 -14 10 -15 -30 -8 -187 29
-268 36 -445 39 -58 1 -149 -10 -235 -27 -74 -15 -152 -28 -200 -32 -54 -5
-239 -16 -325 -20 -49 -2 -126 -7 -170 -10 -44 -3 -114 -7 -155 -10 -126 -7
-262 -25 -320 -41 -77 -23 -107 -36 -92 -41 18 -7 15 -33 -5 -33 -15 0 -16 -2
-2 -15 32 -32 236 -71 419 -80 52 -3 112 -7 134 -10 21 -3 89 -8 150 -11 186
-8 447 -33 521 -49 105 -24 264 -43 315 -39 25 2 92 5 150 8 58 3 145 12 193
21 49 8 93 13 99 9 5 -3 -48 -38 -119 -76 -142 -77 -223 -126 -238 -143 -5 -6
-31 -25 -56 -43 -43 -29 -104 -86 -226 -213 -28 -30 -73 -72 -99 -94 -26 -22
-56 -50 -67 -62 -12 -13 -25 -23 -31 -23 -6 -1 -31 -21 -56 -45 -25 -25 -49
-45 -54 -45 -5 0 -28 -17 -52 -37 -116 -99 -142 -121 -176 -143 -20 -13 -35
-28 -32 -31 2 -4 -6 -11 -18 -15 -13 -3 -41 -26 -62 -50 -21 -24 -44 -44 -50
-44 -12 0 -46 -35 -46 -46 0 -4 -18 -22 -39 -41 -22 -19 -52 -54 -66 -79 -14
-24 -30 -44 -34 -44 -5 0 -14 -13 -20 -30 -8 -24 -7 -30 4 -30 22 0 167 49
190 64 11 7 35 17 53 20 17 4 32 12 32 17 0 5 5 9 11 9 6 0 25 11 42 24 18 13
43 27 57 31 14 4 41 21 61 36 20 16 40 29 44 29 3 0 27 16 52 35 25 19 51 35
57 35 6 0 42 23 80 50 38 28 73 50 78 50 6 0 31 15 57 34 25 18 66 44 91 58
25 14 63 36 85 48 74 43 139 75 216 108 101 44 227 128 324 217 67 62 151 139
177 163 15 14 30 23 34 20 3 -3 -22 -62 -54 -129 -66 -137 -126 -292 -137
-354 -4 -22 -11 -47 -16 -56 -5 -9 -11 -49 -14 -90 -6 -83 -78 -447 -94 -475
-5 -11 -24 -77 -41 -148 -17 -70 -35 -137 -40 -147 -14 -26 -59 -236 -76 -359
-14 -98 -11 -231 5 -229 11 0 109 144 133 194 12 28 28 55 34 62 6 6 19 35 29
64 9 29 25 64 36 77 10 14 19 32 19 41 0 10 4 21 8 26 5 6 15 30 22 55 8 25
26 73 42 108 15 34 28 67 28 73 0 6 6 23 14 37 8 15 26 61 42 102 48 131 138
320 208 435 20 33 36 63 36 66 0 4 8 24 17 45 9 22 18 44 19 49 2 6 12 44 24
85 30 102 48 188 74 338 1 7 7 17 13 23 7 7 12 -4 16 -38 13 -104 36 -216 67
-324 12 -41 23 -78 24 -84 10 -35 86 -197 97 -205 7 -5 68 -124 92 -180 9 -19
32 -70 51 -113 20 -42 36 -82 36 -87 0 -14 62 -175 82 -214 6 -11 19 -47 29
-80 11 -34 24 -70 28 -81 5 -11 14 -35 21 -52 7 -18 16 -33 21 -33 5 0 9 -9 9
-19 0 -11 4 -22 9 -25 5 -3 12 -22 15 -41 4 -20 14 -39 22 -42 7 -3 14 -12 14
-20 0 -17 41 -96 53 -101 4 -2 7 -9 7 -17 0 -7 7 -18 15 -25 9 -7 14 -15 11
-17 -2 -2 6 -14 18 -26 13 -13 28 -31 34 -42 18 -33 25 -10 25 87 0 119 -59
453 -90 513 -6 11 -23 74 -37 140 -15 66 -34 137 -41 157 -19 49 -74 345 -81
428 -9 123 -51 262 -137 460 -28 63 -53 117 -57 120 -6 5 -30 58 -30 65 0 13
20 0 65 -41 28 -25 81 -74 118 -107 38 -34 74 -67 81 -73 52 -49 209 -148 276
-174 80 -32 181 -84 257 -133 24 -15 47 -27 51 -27 5 0 29 -16 53 -35 24 -19
49 -35 54 -35 6 0 38 -19 70 -43 33 -23 76 -50 95 -60 19 -9 69 -41 110 -71
41 -30 80 -55 85 -55 6 -1 42 -21 80 -46 38 -25 80 -48 94 -52 14 -3 38 -14
53 -24 14 -11 33 -19 41 -19 9 0 19 -4 22 -10 3 -5 16 -10 29 -10 12 0 26 -4
32 -9 5 -5 26 -13 47 -16 37 -7 37 -7 27 19 -5 15 -26 43 -45 63 -19 20 -35
39 -35 43 0 6 -59 66 -207 209 -23 23 -46 41 -52 41 -5 0 -14 6 -18 14 -4 7
-26 25 -47 40 -39 26 -97 74 -162 133 -20 18 -39 33 -43 33 -4 0 -29 20 -55
45 -27 25 -51 45 -55 45 -3 0 -37 30 -75 65 -38 36 -73 65 -78 65 -4 0 -8 4
-8 9 0 4 -51 60 -112 123 -132 133 -266 228 -480 338 -37 19 -64 38 -59 43 4
4 48 1 97 -7 134 -22 181 -26 326 -26 118 -1 165 4 258 25 54 12 204 36 258
40 31 2 86 7 122 10 36 3 99 7 140 10 41 2 109 7 150 10 41 3 109 8 150 11
228 16 287 23 345 39 28 8 62 17 78 20 18 4 27 12 27 24 0 11 9 21 23 25 22 5
22 6 2 19 -25 18 -162 53 -235 61 -110 12 -177 17 -265 20 -49 2 -115 7 -145
10 -30 3 -104 8 -165 11 -249 11 -316 19 -525 60 -67 14 -350 22 -369 11 -3
-2 -42 -7 -86 -11 -44 -3 -98 -11 -120 -15 -77 -18 -89 -5 -26 28 62 33 69 37
191 108 63 37 117 70 120 74 3 3 23 19 45 35 22 16 124 114 228 217 103 103
194 188 201 188 8 0 16 4 18 9 2 4 26 27 53 50 102 85 121 102 176 151 31 27
59 50 64 50 8 0 45 31 140 117 28 25 54 48 58 51 16 14 117 124 117 128 0 6
17 27 48 61 13 14 28 36 33 50 9 25 9 25 -33 18 -24 -4 -47 -11 -53 -15 -5 -5
-14 -9 -20 -10 -32 -4 -63 -15 -85 -30 -14 -10 -40 -21 -57 -25 -18 -3 -33
-11 -33 -16 0 -5 -5 -9 -12 -9 -6 0 -19 -7 -28 -15 -10 -9 -40 -28 -68 -43
-46 -24 -108 -64 -280 -181 -29 -20 -71 -46 -93 -58 -22 -12 -53 -33 -70 -47
-17 -14 -35 -26 -40 -26 -6 0 -45 -22 -87 -49 -42 -27 -117 -68 -167 -91 -234
-110 -328 -178 -557 -402 -34 -34 -65 -51 -56 -30 2 4 19 41 39 82 79 163 133
301 153 387 8 34 16 66 20 71 3 5 8 40 11 78 9 114 74 455 95 499 5 11 23 81
40 155 18 74 36 142 41 152 29 54 79 384 73 487 -4 78 -9 95 -24 71 -5 -8 -19
-28 -32 -43 -57 -72 -65 -84 -82 -119 -9 -21 -17 -41 -18 -45 -1 -5 -7 -12
-13 -18 -7 -5 -21 -32 -30 -60 -10 -27 -24 -57 -31 -65 -12 -15 -46 -102 -66
-170 -5 -19 -16 -46 -23 -60 -7 -14 -17 -36 -23 -50 -15 -37 -37 -94 -38 -100
-2 -10 -69 -189 -85 -225 -37 -87 -120 -254 -129 -260 -5 -3 -8 -10 -6 -14 3
-4 -3 -17 -13 -27 -10 -11 -32 -57 -49 -101 -31 -80 -94 -296 -90 -311 1 -4
-2 -25 -7 -47 -4 -22 -9 -49 -12 -60 -2 -11 -7 -39 -12 -63 -9 -43 -20 -65
-22 -44 -1 7 -2 15 -3 20 -1 4 -6 27 -10 52 -16 96 -73 336 -84 355 -4 6 -8
18 -9 28 -5 30 -51 132 -88 196 -64 108 -185 375 -220 486 -24 72 -57 160 -66
171 -5 6 -24 55 -43 108 -18 54 -40 106 -50 117 -9 11 -16 23 -16 28 0 8 -25
66 -40 91 -5 8 -20 39 -34 68 -14 28 -30 52 -35 52 -6 0 -11 6 -11 13 0 6 -16
30 -35 51 -19 22 -35 43 -35 48 0 4 -4 8 -9 8 -5 0 -12 -28 -15 -63z"/>
</g>
</svg>
