<?xml version="1.0" standalone="no"?>
<!DOCTYPE svg PUBLIC "-//W3C//DTD SVG 20010904//EN"
 "http://www.w3.org/TR/2001/REC-SVG-20010904/DTD/svg10.dtd">
<svg version="1.0" xmlns="http://www.w3.org/2000/svg"
 width="512.000000pt" height="512.000000pt" viewBox="0 0 512.000000 512.000000"
 preserveAspectRatio="xMidYMid meet">
<metadata>
Created by potrace 1.13, written by Peter Selinger 2001-2015
</metadata>
<g transform="translate(0.000000,512.000000) scale(0.100000,-0.100000)"
fill="#000000" stroke="none">
<path d="M2480 4556 c0 -8 4 -26 10 -40 7 -20 4 -32 -16 -62 -21 -31 -24 -41
-15 -61 6 -13 11 -48 11 -78 0 -45 -3 -55 -20 -60 -31 -10 -35 -61 -18 -230 3
-28 0 -30 -32 -33 -51 -5 -55 -15 -30 -67 17 -36 21 -55 16 -90 -4 -25 -11
-47 -17 -50 -16 -10 -131 58 -161 96 -22 27 -32 54 -41 115 -11 69 -15 80 -39
93 -25 15 -28 14 -43 -4 -19 -24 -13 -136 10 -192 14 -32 13 -37 -5 -60 -11
-14 -20 -29 -20 -33 0 -3 18 -31 40 -60 34 -45 40 -61 40 -101 0 -26 4 -58 9
-72 7 -18 5 -26 -10 -35 -29 -18 -23 -45 26 -122 58 -90 60 -151 5 -142 -11 2
-15 -7 -15 -33 0 -19 4 -35 8 -35 5 0 5 -5 1 -11 -3 -6 -15 3 -26 23 -11 18
-32 44 -46 58 -14 14 -35 48 -48 77 -22 50 -44 76 -44 53 0 -7 -7 -10 -15 -6
-10 4 -15 -1 -15 -15 0 -12 -4 -17 -11 -14 -6 4 -13 -2 -16 -13 -3 -11 -11
-23 -19 -26 -13 -5 -9 -34 6 -46 8 -7 50 -67 50 -73 0 -2 -26 -7 -57 -10 -56
-6 -59 -5 -90 28 -30 32 -34 33 -67 23 -34 -11 -37 -9 -91 36 -30 26 -71 52
-90 57 -19 5 -41 16 -48 24 -8 8 -17 11 -21 8 -3 -3 -8 1 -12 10 -3 9 -12 13
-19 10 -8 -2 -31 1 -52 8 -54 18 -66 19 -80 7 -25 -20 -13 -55 59 -173 22 -36
23 -74 4 -100 -13 -18 -18 -19 -58 -7 -77 23 -97 24 -120 8 -34 -24 -59 -19
-106 19 -53 42 -68 47 -107 36 -20 -5 -37 -4 -50 5 -28 18 -147 36 -192 28
-21 -3 -49 -1 -63 4 -24 9 -25 8 -25 -29 0 -21 -4 -41 -8 -45 -7 -8 -38 5 -75
32 -16 12 -22 13 -22 3 0 -20 84 -93 126 -108 21 -7 49 -24 63 -37 14 -13 30
-24 36 -25 34 -2 52 -11 84 -42 55 -54 114 -80 180 -81 51 -1 62 -5 110 -43
30 -24 59 -43 67 -43 15 0 23 -21 26 -70 3 -55 -5 -61 -57 -45 -41 12 -47 11
-71 -7 -14 -11 -23 -27 -20 -34 3 -8 2 -13 -2 -12 -4 1 -21 -6 -39 -15 -18 -9
-44 -17 -58 -17 l-26 0 22 -32 c37 -52 45 -58 58 -45 8 8 11 8 11 -2 0 -9 4
-10 13 -4 6 6 21 8 32 6 11 -3 36 -7 55 -10 19 -2 45 -9 58 -16 19 -9 25 -8
32 3 8 12 10 11 10 -5 1 -18 2 -18 10 3 11 27 20 27 70 2 29 -15 50 -18 83
-14 32 5 51 2 69 -10 31 -20 143 -33 161 -18 7 6 22 9 32 7 11 -2 23 -4 26 -4
9 -2 49 -41 49 -50 0 -5 -10 -6 -23 -4 -28 5 -44 -12 -50 -52 -3 -28 -8 -31
-53 -36 -49 -7 -104 -27 -104 -38 0 -3 4 -13 10 -21 5 -9 5 -19 -1 -26 -12
-14 47 -64 74 -64 19 0 23 30 6 47 -23 23 2 35 55 29 34 -4 59 -2 76 7 18 10
33 11 55 4 55 -18 58 -26 24 -68 -17 -22 -35 -37 -39 -34 -19 11 -61 -21 -95
-71 -19 -30 -42 -54 -50 -54 -8 0 -15 -4 -15 -10 0 -5 -11 -10 -24 -10 -31 0
-72 -33 -80 -65 -4 -14 -11 -25 -17 -25 -6 0 -7 -4 -4 -10 3 -5 -1 -10 -9 -10
-9 0 -16 -4 -16 -10 0 -5 -7 -10 -16 -10 -8 0 -13 -4 -10 -9 3 -4 -2 -8 -12
-8 -33 0 -43 -3 -38 -12 3 -4 -5 -18 -19 -31 -13 -12 -27 -35 -30 -51 -8 -35
-26 -50 -56 -47 -20 3 -23 -2 -27 -39 -3 -38 -1 -43 27 -57 40 -21 43 -21 63
14 21 36 53 39 92 9 25 -20 62 -22 60 -3 -1 5 -5 24 -9 42 l-7 32 74 -2 c57
-2 73 -6 73 -18 0 -12 -10 -14 -47 -12 -42 3 -48 1 -48 -16 0 -11 11 -34 25
-50 14 -17 25 -39 25 -50 0 -36 -32 -78 -79 -103 -42 -22 -46 -27 -48 -64 -5
-101 -17 -150 -38 -153 -33 -6 -63 -40 -58 -66 3 -13 -3 -40 -12 -59 -13 -29
-14 -40 -5 -57 13 -24 1 -40 -31 -40 -22 0 -41 -25 -37 -47 3 -14 11 -17 39
-15 19 2 46 -1 59 -6 36 -13 49 -5 56 37 6 36 8 37 47 39 58 4 69 22 50 79
-20 59 -9 71 47 49 30 -12 46 -13 60 -6 18 9 32 38 29 56 -4 24 3 34 26 34 14
0 34 9 45 20 16 16 18 24 9 47 -16 42 -6 53 49 52 66 -2 95 15 90 51 -5 31 16
50 55 50 17 0 26 -9 35 -33 17 -46 15 -68 -8 -97 -11 -14 -20 -33 -20 -42 0
-9 -4 -20 -10 -23 -15 -9 -12 -37 10 -82 11 -23 19 -57 17 -79 -1 -22 3 -39
11 -41 8 -3 12 10 12 47 0 57 -3 56 80 36 42 -10 54 40 20 84 -11 14 -20 33
-20 44 0 16 5 17 44 12 38 -6 46 -4 55 13 8 13 8 28 1 46 -14 38 -12 72 5 79
8 3 30 -1 48 -9 42 -17 52 -10 32 22 -34 51 -36 71 -10 95 18 17 25 36 28 74
3 39 11 59 31 80 14 16 29 45 32 64 4 19 15 51 25 71 10 20 15 40 11 45 -4 5
4 0 17 -11 25 -21 61 -85 61 -108 0 -8 -7 -20 -15 -27 -25 -20 -17 -46 24 -83
22 -20 45 -46 51 -58 12 -21 11 -22 -19 -16 -33 7 -40 -3 -16 -23 15 -12 48
-8 75 10 13 8 11 16 -12 59 -43 76 -36 97 34 92 l37 -2 -10 31 c-6 16 -15 33
-20 36 -10 6 -12 45 -3 68 10 25 33 6 40 -32 4 -20 20 -56 35 -81 16 -25 29
-58 29 -74 0 -30 53 -97 76 -97 10 0 24 -21 24 -37 0 -3 -9 -3 -20 0 -31 8
-42 -14 -23 -49 8 -16 18 -47 20 -69 7 -57 25 -87 83 -135 67 -56 92 -93 95
-141 3 -41 19 -69 31 -56 4 4 8 31 8 59 1 55 3 56 50 47 10 -2 23 4 29 13 9
13 5 26 -21 62 -36 50 -39 66 -16 100 8 13 14 37 12 53 -5 43 28 41 95 -9 38
-28 57 -49 57 -63 0 -31 89 -115 122 -115 29 0 78 -53 78 -83 0 -19 81 -107
98 -107 6 0 18 7 26 16 14 14 14 17 0 40 -9 13 -14 28 -10 31 14 14 41 -15 44
-46 2 -17 7 -31 11 -31 5 0 11 -8 15 -17 6 -19 38 -77 58 -105 11 -16 13 -15
25 12 7 17 18 29 25 28 14 -3 14 2 -3 52 -21 60 -32 79 -49 85 -27 9 -80 66
-80 87 0 17 4 19 28 13 47 -13 57 -11 60 12 2 15 -11 36 -42 67 -25 25 -49 46
-53 46 -5 0 -9 14 -9 31 -1 17 -12 42 -27 57 -39 42 -102 179 -124 270 -7 29
1 28 42 -5 21 -17 48 -28 72 -29 47 -3 70 -8 79 -17 16 -16 21 -5 17 33 -3 22
-2 40 1 40 3 0 26 -10 51 -22 33 -16 48 -19 56 -11 9 9 2 21 -26 50 -21 21
-48 63 -62 94 -22 50 -65 92 -90 88 -22 -4 -50 3 -67 16 -16 12 -17 18 -8 27
25 25 13 56 -34 93 -26 19 -53 35 -61 35 -24 0 -89 47 -127 92 -20 24 -54 55
-76 69 l-38 26 79 -3 c82 -2 186 -22 195 -36 9 -14 62 -9 79 8 18 18 12 51
-14 72 -25 20 -81 42 -106 42 -13 0 -33 9 -46 19 -21 17 -23 23 -13 48 6 16 8
38 4 48 -12 31 6 45 41 33 17 -6 46 -8 65 -5 20 3 53 0 76 -9 53 -19 131 -18
169 2 17 8 38 13 47 9 9 -3 26 4 41 19 l27 26 51 -17 c41 -13 58 -14 77 -5 22
10 24 16 19 47 -6 39 -2 42 31 20 13 -9 31 -12 40 -9 15 6 9 16 -35 60 -54 55
-74 63 -111 43 -29 -16 -56 14 -64 71 -5 42 -4 46 24 61 17 9 36 30 44 45 14
30 19 31 99 18 49 -8 86 17 99 66 10 36 13 38 58 43 26 2 67 12 92 21 46 17
114 69 104 79 -3 3 9 8 27 12 25 6 35 15 47 46 8 21 19 37 25 36 19 -4 17 18
-4 31 -21 14 -230 24 -247 13 -5 -3 -8 -19 -8 -36 1 -41 -23 -43 -88 -9 l-53
28 -34 -21 c-27 -15 -40 -17 -57 -10 -18 8 -29 6 -51 -11 -22 -16 -37 -19 -68
-15 -32 4 -50 0 -86 -22 -52 -30 -68 -28 -121 15 -41 32 -35 45 14 29 26 -10
35 -9 48 4 13 14 14 22 4 54 -14 44 -3 63 38 63 36 0 39 5 29 48 -8 33 -6 39
17 58 23 19 24 21 7 36 -32 27 -40 28 -73 3 -23 -17 -45 -24 -72 -23 -23 1
-45 -5 -56 -15 -10 -10 -22 -14 -25 -10 -4 3 -7 -1 -7 -10 0 -8 -8 -18 -17
-21 -10 -4 -34 -20 -53 -36 -19 -16 -40 -34 -46 -38 -20 -17 -84 -33 -103 -27
-24 7 -61 -26 -61 -54 0 -23 -56 -80 -86 -87 -25 -6 -64 11 -64 28 0 6 7 19
16 29 15 16 14 22 -12 67 -24 44 -26 52 -14 67 10 12 23 15 45 11 23 -5 36 -2
45 9 11 13 7 21 -21 48 -34 32 -69 38 -69 12 0 -15 -57 -62 -69 -58 -17 4 -61
-45 -64 -72 -4 -27 -8 -30 -36 -28 -33 1 -50 17 -79 72 -15 29 -1 52 28 46 11
-2 30 5 42 15 22 18 22 19 6 54 -17 35 -15 66 3 66 5 0 14 11 20 24 9 19 8 29
-5 47 -23 33 -20 46 12 61 30 15 32 31 17 138 -4 30 -5 52 -1 49 4 -4 23 9 42
29 26 27 33 40 27 56 -4 12 -6 42 -5 67 3 49 -12 71 -56 82 -18 4 -23 0 -28
-21 -10 -47 -12 -50 -41 -64 -16 -8 -29 -23 -31 -36 -2 -14 -17 -32 -37 -44
-19 -10 -37 -28 -40 -39 -9 -26 -30 -24 -53 6 -11 13 -22 21 -26 18 -3 -3 -6
8 -6 26 0 18 -5 63 -11 101 -11 65 -15 73 -60 114 -33 30 -47 50 -43 61 4 11
13 14 28 9 23 -7 23 -7 49 -5 24 1 22 38 -5 81 -11 19 -27 60 -34 90 -7 30
-18 75 -25 99 -9 33 -9 48 -1 62 8 13 8 26 1 48 -12 35 -15 36 -35 17 -13 -13
-20 -13 -55 0 -51 17 -49 17 -49 0z"/>
</g>
</svg>
