<?xml version="1.0" standalone="no"?>
<!DOCTYPE svg PUBLIC "-//W3C//DTD SVG 20010904//EN"
 "http://www.w3.org/TR/2001/REC-SVG-20010904/DTD/svg10.dtd">
<svg version="1.0" xmlns="http://www.w3.org/2000/svg"
 width="558.000000pt" height="558.000000pt" viewBox="0 0 558.000000 558.000000"
 preserveAspectRatio="xMidYMid meet">
<metadata>
Created by potrace 1.13, written by Peter Selinger 2001-2015
</metadata>
<g transform="translate(0.000000,558.000000) scale(0.100000,-0.100000)"
fill="#000000" stroke="none">
<path d="M2845 4520 c-3 -11 -26 -28 -49 -39 -24 -10 -61 -34 -82 -53 -22 -19
-50 -35 -63 -36 -14 0 -29 -9 -35 -19 -5 -10 -34 -42 -63 -70 -44 -43 -60 -53
-88 -53 -31 0 -37 -5 -56 -42 -24 -48 -35 -58 -65 -58 -12 0 -28 -10 -36 -22
-10 -14 -29 -23 -58 -27 -42 -6 -45 -8 -47 -41 -4 -45 -14 -54 -65 -54 -36 -1
-42 -4 -49 -28 -4 -15 -5 -29 -2 -32 10 -9 -36 -25 -69 -24 -48 2 -61 -9 -54
-43 3 -18 0 -34 -10 -43 -19 -20 -75 -30 -119 -22 -38 7 -38 6 -35 -52 2 -33
-5 -39 -50 -44 -37 -5 -52 -17 -45 -39 17 -53 -25 -75 -85 -44 -43 22 -63 10
-56 -34 14 -80 16 -76 -41 -76 -57 0 -70 -8 -75 -45 -3 -22 -8 -25 -46 -25
-49 -1 -62 -14 -62 -62 0 -35 -9 -40 -39 -21 -28 17 -48 4 -55 -40 -7 -45 -24
-56 -62 -41 -49 18 -73 -5 -74 -69 0 -21 -4 -23 -38 -22 -58 3 -59 2 -58 -37
1 -36 1 -36 -43 -38 -74 -3 -93 -53 -41 -112 22 -25 30 -43 28 -66 -1 -21 8
-46 25 -73 23 -35 26 -45 17 -68 -17 -45 -12 -103 9 -123 26 -24 41 -66 41
-111 0 -37 33 -97 114 -202 49 -65 50 -84 6 -88 -19 -2 -39 -7 -44 -12 -9 -9
34 -55 97 -106 21 -18 25 -28 21 -58 -2 -20 -1 -36 3 -36 5 0 8 -15 7 -32 0
-39 9 -60 50 -111 20 -26 31 -51 33 -80 2 -23 5 -55 7 -72 2 -22 -2 -31 -15
-35 -17 -5 -16 -11 16 -78 20 -42 53 -90 77 -112 34 -33 39 -42 28 -55 -7 -8
-25 -15 -41 -15 -43 0 -37 -26 17 -74 62 -56 131 -206 94 -206 -24 0 -6 -40
39 -84 64 -63 69 -82 28 -103 -18 -9 -26 -18 -19 -20 6 -3 10 -9 7 -13 -3 -5
4 -26 16 -47 42 -73 49 -88 49 -108 0 -30 10 -40 59 -59 51 -20 79 -14 92 21
l9 25 33 -25 c18 -13 59 -30 91 -38 56 -12 59 -12 75 9 15 20 24 21 101 19 47
-2 95 -9 108 -16 29 -16 59 -6 75 25 l13 24 33 -24 c19 -14 59 -30 89 -37 52
-10 57 -10 73 9 14 18 27 21 94 20 44 0 92 -6 112 -14 42 -18 71 -10 84 23 l9
25 33 -25 c18 -13 59 -30 91 -38 56 -12 59 -12 75 9 15 20 24 21 101 19 47 -2
95 -9 108 -16 29 -16 59 -6 75 25 l13 24 33 -24 c19 -14 59 -30 89 -37 52 -10
57 -10 73 9 14 18 27 21 94 20 44 0 92 -6 112 -14 42 -18 71 -10 84 23 l9 25
33 -25 c18 -13 59 -30 91 -38 57 -12 60 -12 74 9 9 14 25 22 43 22 18 0 29 5
29 14 0 8 12 24 27 36 26 20 28 26 28 102 0 73 2 81 20 84 31 5 45 33 39 74
-6 36 7 77 29 92 14 8 19 40 5 32 -5 -3 0 13 12 37 18 34 21 52 16 92 l-7 50
39 -7 c48 -7 55 -1 37 35 -19 36 -19 68 1 90 11 12 16 40 17 98 1 72 3 81 21
87 26 8 45 33 46 58 0 10 10 36 22 57 l21 38 -26 40 c-15 22 -27 44 -27 49 0
4 15 9 33 10 37 3 61 28 51 57 -3 11 -8 35 -11 53 -6 37 5 40 61 17 43 -18 46
-10 17 56 -17 38 -18 46 -5 70 8 16 14 46 14 67 0 25 7 45 19 56 11 10 20 35
23 66 3 33 13 58 31 80 34 40 34 56 -3 104 -47 62 -40 76 28 57 24 -7 35 -6
47 5 19 19 19 21 0 75 -18 51 -10 62 48 68 4 1 4 18 1 40 -3 22 -1 47 5 60 6
11 13 41 15 66 2 26 11 54 21 65 16 17 16 24 5 44 -7 13 -9 29 -5 35 4 7 -26
42 -71 84 -70 66 -81 72 -114 69 -33 -2 -41 2 -66 34 -54 68 -91 99 -154 133
-35 19 -79 48 -99 65 -20 18 -52 43 -72 58 -19 14 -55 51 -80 82 -48 60 -72
74 -95 55 -12 -10 -20 -8 -42 9 -15 12 -51 36 -80 53 -34 20 -64 49 -87 83
-48 73 -79 99 -114 98 -32 -1 -53 18 -58 51 -5 30 -32 57 -79 77 -23 10 -63
34 -89 54 -31 24 -57 36 -78 36 -41 0 -131 61 -147 100 -13 32 -111 129 -132
131 -51 5 -71 9 -84 20 -8 6 -14 8 -14 4 0 -4 -6 -2 -13 4 -8 6 -16 9 -19 6
-3 -3 -12 3 -22 14 -16 18 -15 18 23 15 39 -2 40 -2 29 21 -10 23 -62 55 -88
55 -7 0 -25 9 -40 20 -28 20 -29 20 -35 0z"/>
</g>
</svg>
