<?xml version="1.0" standalone="no"?>
<!DOCTYPE svg PUBLIC "-//W3C//DTD SVG 20010904//EN"
 "http://www.w3.org/TR/2001/REC-SVG-20010904/DTD/svg10.dtd">
<svg version="1.0" xmlns="http://www.w3.org/2000/svg"
 width="558.000000pt" height="558.000000pt" viewBox="0 0 558.000000 558.000000"
 preserveAspectRatio="xMidYMid meet">
<metadata>
Created by potrace 1.13, written by Peter Selinger 2001-2015
</metadata>
<g transform="translate(0.000000,558.000000) scale(0.100000,-0.100000)"
fill="#000000" stroke="none">
<path d="M2654 4455 c-55 -27 -74 -44 -74 -65 0 -22 -100 -127 -126 -131 -11
-3 -29 -25 -45 -58 -19 -38 -35 -58 -58 -67 -17 -7 -31 -17 -31 -22 0 -8 -63
-86 -118 -146 -40 -44 -92 -119 -92 -133 0 -7 -25 -29 -55 -49 -37 -25 -55
-44 -55 -58 -1 -35 -38 -106 -55 -106 -9 0 -29 -13 -45 -28 -25 -25 -28 -34
-23 -70 5 -39 4 -41 -23 -47 -16 -3 -36 -10 -44 -14 -23 -12 -60 -92 -60 -128
0 -18 -3 -33 -7 -34 -5 -1 -21 -2 -36 -4 -34 -2 -49 -22 -40 -50 4 -11 7 -31
7 -45 1 -23 -3 -25 -41 -25 -63 -1 -71 -15 -43 -75 22 -47 23 -52 7 -67 -14
-15 -22 -15 -50 -5 -52 19 -57 16 -45 -18 12 -37 -9 -76 -47 -86 -29 -7 -29
-10 -10 -44 19 -33 19 -34 -9 -67 -13 -15 -27 -39 -31 -53 -11 -34 -26 -46
-60 -45 l-30 0 -5 -86 c-5 -77 -8 -88 -33 -111 -15 -14 -27 -30 -27 -35 0 -5
-12 -20 -26 -34 -22 -21 -25 -29 -19 -64 13 -81 14 -80 -30 -83 -54 -4 -69
-24 -50 -70 19 -44 19 -81 0 -88 -8 -4 -12 -10 -9 -15 3 -5 -1 -6 -8 -4 -8 3
-26 -12 -44 -38 -29 -40 -30 -45 -18 -79 14 -41 9 -52 -31 -65 -31 -10 -31
-12 -18 -73 4 -21 -3 -32 -36 -58 -39 -31 -39 -33 -25 -59 20 -41 17 -66 -12
-94 -45 -41 -54 -69 -38 -108 21 -49 18 -57 -25 -69 -34 -11 -38 -15 -35 -39
2 -16 -3 -41 -12 -58 -14 -27 -14 -36 -1 -85 10 -39 11 -61 4 -77 -5 -12 -13
-21 -16 -18 -4 2 -22 -18 -40 -45 -43 -63 -39 -98 11 -92 21 2 48 -5 73 -19
22 -11 52 -28 67 -36 35 -18 66 -9 74 23 8 31 15 30 36 -5 9 -16 27 -36 40
-45 26 -17 106 -23 153 -12 25 6 39 1 80 -28 52 -37 70 -34 58 11 -6 27 17 31
56 9 15 -9 35 -11 56 -6 23 5 46 2 76 -10 104 -43 147 -51 177 -37 31 16 40
14 99 -27 38 -25 46 -27 71 -17 16 7 42 10 58 8 24 -3 31 1 42 26 8 21 17 28
30 24 30 -9 85 -29 134 -47 46 -18 48 -18 72 1 32 25 37 24 93 -11 32 -20 54
-28 67 -24 12 4 44 6 72 5 34 -1 55 3 63 13 16 19 111 14 142 -8 31 -21 46
-20 54 4 12 39 39 42 87 10 43 -29 48 -30 122 -23 49 4 83 12 93 21 20 20 107
17 140 -5 23 -15 25 -14 51 11 35 32 43 32 92 0 30 -20 47 -25 67 -20 24 6 47
10 96 15 4 1 7 12 7 25 0 42 15 42 163 5 32 -8 43 -7 70 10 l33 20 39 -24 c53
-32 83 -32 91 -1 3 14 3 29 0 35 -9 14 89 18 209 8 47 -3 67 0 93 15 21 13 43
18 66 15 28 -4 36 -1 45 19 12 28 24 29 81 9 53 -19 55 -19 74 0 10 11 13 26
9 45 -7 38 7 39 54 3 33 -25 37 -26 80 -15 24 7 49 10 54 7 22 -14 6 12 -36
56 -40 43 -44 52 -35 70 11 20 27 21 74 3 11 -4 16 0 16 13 0 24 -26 48 -62
57 -39 9 -68 44 -68 82 0 17 -9 43 -21 58 -16 21 -20 35 -14 62 5 29 1 44 -20
75 -14 22 -30 61 -35 87 -5 26 -20 75 -35 109 -14 35 -28 80 -31 100 -5 37
-11 48 -64 121 -20 27 -22 37 -14 60 8 22 5 38 -17 86 -33 70 -49 88 -111 126
-58 36 -63 60 -13 60 61 0 47 29 -110 220 -37 45 -45 62 -45 96 0 50 -47 125
-101 161 -45 30 -73 81 -56 101 7 10 13 10 15 3 4 -12 42 -15 42 -3 -1 23 -50
54 -50 31 0 -5 -13 5 -30 23 -38 41 -40 78 -5 78 37 0 31 14 -24 53 -39 28
-50 43 -59 79 -6 24 -25 64 -43 87 -17 24 -38 63 -46 86 -9 28 -23 46 -41 55
-96 44 -92 40 -92 85 0 34 -8 52 -40 92 -36 46 -60 89 -56 104 2 8 -68 78 -74
74 -3 -2 -7 10 -8 27 -4 46 -31 84 -73 103 -75 34 -238 231 -270 325 -16 47
-47 80 -77 80 -15 0 -39 15 -63 39 -30 30 -39 46 -39 73 0 25 -10 46 -36 76
-49 58 -61 62 -110 37z"/>
</g>
</svg>
