<?xml version="1.0" standalone="no"?>
<!DOCTYPE svg PUBLIC "-//W3C//DTD SVG 20010904//EN"
 "http://www.w3.org/TR/2001/REC-SVG-20010904/DTD/svg10.dtd">
<svg version="1.0" xmlns="http://www.w3.org/2000/svg"
 width="512.000000pt" height="512.000000pt" viewBox="0 0 512.000000 512.000000"
 preserveAspectRatio="xMidYMid meet">
<metadata>
Created by potrace 1.13, written by Peter Selinger 2001-2015
</metadata>
<g transform="translate(0.000000,512.000000) scale(0.100000,-0.100000)"
fill="#000000" stroke="none">
<path d="M2536 4480 c-3 -17 -6 -32 -6 -35 0 -3 -9 -19 -19 -37 -15 -27 -24
-33 -49 -31 -23 2 -31 -1 -32 -15 -6 -120 -22 -159 -64 -148 -22 5 -23 3 -25
-57 -2 -34 -4 -73 -5 -86 -3 -24 -30 -42 -52 -34 -7 2 -14 -9 -16 -26 -3 -17
-2 -31 1 -31 3 0 6 -27 6 -60 1 -56 -1 -60 -27 -69 -25 -9 -40 -31 -20 -31 4
0 7 -15 8 -32 0 -18 3 -54 6 -79 6 -45 -1 -73 -18 -68 -5 1 -10 -5 -12 -14 -2
-9 1 -17 7 -17 6 0 8 -7 5 -15 -4 -8 2 -47 11 -86 14 -57 15 -75 5 -94 -12
-22 -6 -65 9 -65 5 0 6 -11 3 -25 -2 -14 -10 -25 -17 -25 -26 0 -44 12 -39 25
3 7 -4 23 -16 35 -11 11 -23 34 -26 50 -4 16 -13 31 -21 34 -8 3 -11 10 -8 16
3 5 2 10 -4 10 -6 0 -8 7 -5 15 4 10 0 15 -11 15 -11 0 -15 5 -11 15 3 9 0 15
-8 15 -7 0 -19 17 -25 38 -11 33 -17 38 -37 34 -13 -2 -24 0 -24 4 0 5 -11 22
-25 38 -14 17 -23 36 -21 43 3 7 -2 13 -10 13 -10 0 -14 6 -10 15 3 9 0 15
-10 15 -8 0 -13 4 -10 9 3 5 -1 12 -10 15 -8 3 -13 9 -11 13 6 10 -19 34 -26
27 -3 -3 -8 4 -12 16 -6 18 -12 20 -41 14 -30 -5 -36 -3 -41 14 -3 11 -11 23
-19 26 -8 3 -14 12 -14 21 0 8 -8 15 -17 15 -9 0 -14 3 -10 6 8 8 -16 33 -25
27 -5 -2 -8 3 -8 11 0 8 -9 18 -20 21 -11 4 -18 10 -15 15 8 13 -17 18 -47 9
-22 -6 -33 -1 -62 25 -20 17 -36 37 -36 43 0 6 -12 14 -26 17 -15 4 -24 10
-21 13 10 9 -22 35 -34 27 -7 -4 -9 -3 -6 3 11 17 -19 23 -39 9 -21 -15 -54
-17 -54 -4 0 4 -7 8 -15 8 -8 0 -15 4 -15 8 0 17 -35 49 -49 44 -8 -3 -11 0
-7 7 4 6 1 11 -8 11 -9 0 -16 4 -16 9 0 5 -14 14 -31 21 -24 10 -35 10 -54 0
-21 -11 -31 -10 -67 6 -24 10 -49 24 -56 31 -7 7 -18 13 -23 13 -6 0 -17 6
-24 13 -27 24 -40 32 -68 45 -26 11 -30 9 -72 -33 -42 -42 -44 -46 -33 -72 13
-28 21 -41 45 -68 7 -7 13 -18 13 -24 0 -5 6 -16 13 -23 7 -7 21 -32 31 -56
16 -36 17 -46 6 -67 -10 -19 -10 -30 0 -54 7 -17 16 -31 21 -31 5 0 9 -7 9
-16 0 -9 5 -12 12 -8 7 5 9 2 6 -7 -3 -8 1 -20 8 -27 8 -7 14 -10 14 -7 0 4 7
0 15 -9 8 -8 15 -19 15 -25 0 -6 4 -11 9 -11 12 0 7 -48 -7 -62 -13 -13 -4
-40 11 -31 6 3 7 1 3 -6 -8 -12 18 -44 27 -34 3 3 9 -7 13 -21 3 -15 9 -25 12
-22 2 3 22 -13 43 -35 32 -34 36 -44 30 -67 -9 -30 -4 -55 9 -47 5 3 11 -4 15
-15 3 -11 14 -20 22 -20 9 0 14 -3 10 -6 -8 -8 16 -33 26 -27 4 2 7 -3 7 -11
0 -9 7 -16 15 -16 7 0 18 -6 22 -13 4 -8 16 -17 27 -20 15 -6 17 -14 12 -42
-7 -34 -1 -41 28 -36 5 1 6 -4 3 -11 -5 -14 17 -40 27 -31 3 3 8 -2 12 -11 3
-9 10 -13 15 -10 5 3 9 0 9 -5 0 -6 7 -11 15 -11 8 0 15 -7 15 -15 0 -8 6 -12
13 -9 20 7 86 -48 87 -73 0 -16 10 -25 35 -34 19 -7 35 -17 35 -21 0 -4 7 -8
15 -8 8 0 15 -7 15 -16 0 -10 6 -14 15 -10 8 3 15 1 15 -5 0 -6 5 -7 10 -4 6
3 13 0 16 -8 3 -8 18 -17 34 -21 16 -3 39 -15 50 -26 12 -12 28 -19 35 -16 14
5 25 -14 25 -43 0 -21 -38 -23 -58 -3 -17 15 -37 15 -61 1 -14 -9 -34 -8 -87
5 -86 20 -133 24 -134 11 -2 -26 -54 -25 -178 1 -18 4 -25 -1 -33 -24 -9 -26
-13 -28 -69 -27 -33 0 -60 3 -60 6 0 3 -13 4 -29 1 -22 -3 -28 -9 -28 -28 0
-14 -2 -27 -4 -29 -7 -7 -63 -13 -122 -14 -56 -1 -57 -2 -51 -26 8 -32 -15
-55 -58 -55 -18 0 -50 -3 -70 -6 -35 -6 -38 -9 -35 -36 1 -21 -4 -34 -18 -42
-11 -6 -22 -13 -25 -16 -3 -3 -14 -6 -25 -7 -79 -7 -81 -26 -6 -41 67 -14 86
-31 77 -67 -6 -22 -3 -25 19 -25 14 0 25 -3 25 -7 0 -5 21 -9 47 -11 56 -3 76
-17 68 -49 -5 -21 -2 -23 32 -23 41 -1 111 -9 131 -15 6 -3 12 -16 12 -30 0
-14 6 -25 13 -26 6 0 20 -2 29 -4 10 -2 18 0 18 3 0 4 27 8 61 8 58 2 60 1 66
-26 3 -19 10 -27 22 -25 9 2 16 4 16 5 0 1 11 3 25 4 14 2 47 6 73 11 43 7 51
5 69 -15 14 -15 24 -18 31 -11 5 5 23 7 38 4 19 -3 29 -1 29 6 0 7 5 9 10 6 6
-4 16 -2 23 3 7 5 20 8 30 7 9 -2 17 1 17 6 0 11 47 4 63 -10 8 -6 21 -5 37 4
33 19 70 19 70 1 0 -28 -12 -46 -31 -46 -10 0 -27 -10 -39 -22 -11 -12 -20
-18 -20 -14 0 5 -7 3 -15 -4 -8 -6 -19 -9 -25 -5 -5 3 -10 -1 -10 -9 0 -9 -13
-18 -35 -22 -21 -4 -35 -12 -35 -21 0 -9 -6 -13 -15 -9 -8 3 -15 0 -15 -7 0
-7 -16 -19 -36 -26 -30 -11 -35 -17 -31 -37 2 -14 -1 -24 -7 -24 -6 0 -18 -9
-26 -20 -8 -10 -27 -22 -42 -25 -15 -4 -28 -11 -28 -16 0 -5 -7 -9 -16 -9 -9
0 -12 -5 -8 -12 5 -8 2 -9 -9 -5 -12 4 -17 1 -17 -9 0 -10 -6 -14 -14 -11 -11
4 -13 1 -9 -10 4 -11 2 -14 -5 -9 -7 4 -12 1 -12 -8 0 -9 -7 -16 -15 -16 -11
0 -15 -11 -15 -39 0 -31 -4 -41 -20 -46 -11 -4 -18 -11 -15 -16 6 -9 -8 -13
-34 -9 -9 1 -12 -4 -8 -14 4 -10 1 -16 -8 -16 -7 0 -17 -9 -20 -21 -5 -14 -12
-18 -23 -14 -9 3 -13 3 -10 -1 4 -3 2 -12 -5 -20 -33 -37 -35 -42 -25 -52 13
-13 0 -74 -15 -65 -6 4 -8 0 -4 -10 4 -11 2 -14 -8 -11 -7 3 -16 -3 -20 -15
-4 -12 -12 -18 -21 -14 -10 4 -12 0 -8 -11 3 -9 1 -16 -6 -16 -6 0 -8 -4 -5
-10 3 -5 0 -7 -7 -5 -9 4 -20 -8 -31 -30 -15 -32 -16 -38 -2 -59 14 -20 14
-26 2 -38 -8 -8 -18 -24 -22 -37 -4 -13 -12 -20 -20 -17 -9 3 -18 -7 -25 -30
-6 -18 -18 -34 -25 -34 -9 0 -12 -6 -8 -17 4 -10 2 -14 -4 -10 -18 11 -23 -46
-6 -65 13 -15 13 -21 2 -47 -8 -17 -17 -31 -21 -31 -5 0 -8 -6 -8 -14 0 -8 -7
-22 -16 -31 -9 -9 -14 -19 -10 -22 3 -3 -3 -13 -13 -22 -10 -9 -26 -33 -35
-53 -17 -35 -17 -38 0 -60 9 -13 30 -33 45 -45 25 -22 29 -22 63 -8 20 8 36
20 36 25 0 6 7 10 15 10 8 0 15 5 15 12 0 6 3 8 6 5 4 -4 20 3 35 14 16 11 29
17 29 12 0 -4 5 -1 10 7 5 8 14 16 20 16 5 1 13 3 18 4 19 7 38 4 47 -7 11
-14 55 -7 55 8 0 5 7 9 15 9 8 0 15 4 15 10 0 5 11 12 25 16 13 3 27 13 30 22
4 14 66 62 79 62 3 0 11 -7 20 -15 13 -14 19 -13 50 2 20 9 36 23 36 30 0 8 8
17 17 20 20 8 53 40 53 51 0 16 48 35 75 30 15 -3 32 0 41 9 8 8 14 12 14 8 0
-3 6 0 14 7 8 7 12 15 11 17 -6 5 43 51 55 51 6 0 9 4 6 9 -3 5 7 23 23 41 21
24 33 31 48 26 15 -5 29 2 52 24 17 18 31 36 31 41 0 6 5 7 10 4 6 -3 10 1 10
9 0 9 5 16 10 16 6 0 10 6 10 14 0 8 4 16 10 18 5 1 11 15 12 31 1 15 7 27 13
27 6 0 16 9 23 20 7 12 23 20 38 20 14 0 23 4 19 10 -3 5 -1 10 5 10 6 0 8 4
5 10 -3 5 -1 10 5 10 7 0 10 7 6 15 -3 9 0 15 9 15 8 0 15 7 15 15 0 8 4 15 9
15 5 0 12 16 15 35 4 20 13 35 21 35 7 0 14 8 14 18 1 41 5 52 17 52 8 0 17
15 22 33 6 25 14 33 35 35 23 3 27 -1 27 -20 0 -13 -6 -33 -14 -43 -12 -16
-12 -24 2 -51 9 -20 12 -39 7 -51 -4 -10 -7 -26 -6 -36 1 -9 -3 -17 -9 -17 -6
0 -8 -4 -5 -10 3 -5 3 -15 -1 -21 -3 -6 -7 -31 -9 -55 -2 -32 1 -44 11 -44 8
0 15 -9 15 -20 1 -11 2 -26 3 -32 1 -7 0 -17 -2 -22 -3 -5 -6 -25 -8 -45 -2
-20 -6 -48 -9 -62 -5 -23 -2 -27 23 -32 30 -6 30 -7 27 -66 -2 -33 -6 -64 -8
-68 -3 -5 -3 -20 0 -34 4 -21 9 -25 29 -21 30 6 40 -19 43 -108 1 -36 6 -69
12 -75 6 -5 9 -5 9 3 0 7 6 12 13 12 24 0 47 -35 47 -71 0 -60 12 -109 26
-109 8 0 14 4 14 9 0 5 9 7 19 4 16 -4 42 -45 47 -75 1 -5 3 -10 4 -13 4 -8 7
-24 9 -40 3 -34 18 -11 29 44 14 67 31 86 67 77 22 -6 25 -3 25 18 0 14 4 27
8 30 5 3 9 22 10 42 3 68 27 99 58 73 11 -9 14 -6 14 17 1 68 13 150 24 157 6
4 19 5 29 3 9 -2 17 -1 18 2 0 4 2 14 3 22 2 8 0 44 -5 80 -8 70 -1 90 33 90
17 0 18 5 11 38 -4 20 -8 49 -8 65 0 15 -3 27 -8 27 -15 0 -2 63 15 74 20 12
24 36 7 36 -5 0 -7 5 -3 11 8 13 -15 127 -27 135 -9 5 -4 24 14 62 8 18 8 25
-2 31 -7 5 -13 12 -13 17 0 5 -3 15 -5 22 -9 22 6 44 29 40 15 -2 24 -13 30
-35 5 -18 15 -33 22 -33 9 0 17 -16 21 -40 4 -22 12 -38 18 -37 6 1 11 -2 12
-8 0 -5 4 -16 8 -22 5 -7 5 -18 2 -23 -3 -6 1 -10 9 -10 9 0 16 -6 16 -14 0
-8 3 -16 8 -18 4 -1 15 -20 24 -40 12 -26 22 -36 32 -32 17 7 80 -52 71 -67
-4 -5 -2 -9 4 -9 6 0 7 -8 4 -17 -5 -12 -2 -15 10 -10 11 4 14 2 10 -9 -3 -9
1 -14 12 -14 9 0 14 -4 10 -10 -8 -13 26 -50 39 -43 6 3 8 3 4 -1 -14 -17 27
-46 64 -46 35 0 43 -7 39 -32 0 -5 6 -8 14 -8 9 0 15 -9 15 -21 0 -15 5 -19
15 -15 9 3 15 0 15 -8 0 -8 7 -16 15 -20 8 -3 15 -13 15 -22 0 -10 3 -14 6
-11 4 4 17 -5 29 -19 19 -22 26 -24 43 -15 11 6 24 11 29 11 12 0 83 -68 83
-79 0 -6 6 -11 13 -11 17 0 47 -36 39 -46 -4 -4 1 -4 11 -1 9 4 17 2 17 -3 0
-13 37 -13 45 0 8 13 45 13 45 0 0 -5 9 -10 19 -10 11 0 22 -9 26 -19 3 -11
15 -23 26 -26 10 -4 19 -11 19 -16 0 -6 5 -7 10 -4 6 3 10 -2 10 -11 0 -10 3
-14 6 -11 4 3 16 0 28 -8 24 -18 56 -20 56 -4 0 7 11 9 28 7 43 -8 56 -12 70
-26 7 -6 20 -12 28 -12 8 0 13 -4 10 -9 -4 -5 7 -12 23 -16 16 -3 31 -12 34
-18 2 -7 21 -18 41 -25 36 -13 37 -13 77 27 33 33 39 44 33 63 -5 13 -8 27 -9
31 0 5 -7 14 -16 20 -9 7 -19 22 -23 35 -4 12 -12 22 -18 22 -5 0 -8 6 -5 13
2 6 -3 19 -12 27 -17 16 -21 26 -29 72 -2 17 0 28 7 28 15 0 14 36 -2 52 -8 7
-12 19 -9 27 3 10 0 12 -11 8 -11 -4 -14 -2 -10 9 3 7 0 14 -5 14 -6 0 -13 9
-17 19 -3 11 -15 23 -26 26 -10 4 -19 15 -19 26 0 10 -4 19 -10 19 -5 0 -10 9
-10 19 0 11 5 23 10 26 13 8 13 45 0 45 -5 0 -7 8 -3 17 3 10 3 15 -1 11 -9
-8 -46 22 -46 37 0 5 -12 18 -28 28 -48 33 -65 64 -53 98 8 24 7 31 -4 35 -8
3 -17 14 -20 25 -4 10 -13 19 -21 19 -8 0 -17 7 -20 15 -4 8 -12 15 -20 15 -8
0 -11 6 -8 15 4 9 0 15 -9 15 -9 0 -20 7 -25 16 -5 9 -12 15 -15 15 -23 -3
-27 3 -27 38 0 29 -6 43 -24 57 -14 10 -23 21 -20 26 3 4 -2 8 -10 8 -9 0 -16
5 -16 11 0 6 -7 9 -15 5 -9 -3 -15 0 -15 10 0 10 -6 14 -14 11 -11 -4 -13 -1
-9 10 5 12 2 15 -10 10 -9 -3 -17 -2 -17 3 0 5 -7 7 -15 4 -10 -4 -15 0 -15
12 0 9 -3 15 -6 11 -12 -11 -44 29 -40 50 4 16 -3 23 -34 33 -22 7 -37 17 -34
21 3 5 -4 9 -15 9 -12 0 -21 7 -21 16 0 8 -5 12 -10 9 -6 -4 -16 -2 -23 3 -7
6 -16 12 -22 14 -5 1 -9 6 -8 10 1 3 -15 9 -37 13 -22 4 -38 12 -37 18 1 6
-14 16 -33 23 -23 8 -36 19 -38 33 -4 22 18 37 41 28 6 -2 16 -5 21 -5 5 0 12
-6 17 -13 6 -10 13 -10 31 -2 38 18 57 23 62 14 8 -12 122 -35 135 -27 6 4 11
2 11 -3 0 -16 16 -13 36 6 18 18 74 30 74 16 0 -4 12 -8 28 -8 15 0 44 -4 65
-8 32 -7 37 -6 37 11 0 34 20 41 90 33 36 -5 72 -7 80 -5 8 1 18 3 22 3 3 1 4
9 2 19 -2 9 -1 22 3 29 7 10 81 21 157 22 23 1 26 4 17 15 -26 31 5 55 73 58
20 1 39 5 42 10 3 4 16 8 30 8 21 0 24 3 18 25 -9 36 10 53 77 67 66 14 84 37
22 29 -7 -1 -13 3 -13 10 0 6 -8 9 -20 6 -11 -3 -20 -2 -20 3 0 4 -12 11 -26
14 -23 6 -25 10 -20 41 l7 33 -58 7 c-32 4 -65 8 -75 9 -35 4 -68 56 -36 56 7
0 8 3 3 9 -6 5 -45 11 -88 15 -92 7 -100 10 -94 42 2 14 -1 24 -7 25 -6 0 -21
2 -34 5 -13 2 -21 1 -19 -3 3 -5 -24 -9 -60 -9 -62 -1 -64 -1 -70 26 -5 26 -9
28 -43 25 -21 -1 -42 -5 -47 -8 -6 -4 -20 -5 -31 -2 -12 2 -24 0 -26 -4 -8
-12 -66 0 -66 14 0 13 -78 14 -99 1 -6 -4 -15 -4 -21 -1 -5 3 -10 1 -10 -6 0
-6 -8 -9 -20 -6 -11 3 -23 1 -26 -4 -6 -10 -43 -6 -71 9 -13 7 -24 6 -38 -4
-10 -8 -30 -14 -43 -14 -19 0 -23 4 -20 27 2 21 10 29 36 35 17 5 32 14 32 22
0 7 6 13 13 14 32 3 51 10 55 20 2 6 19 14 38 18 19 3 34 10 34 15 0 5 7 9 15
9 8 0 15 7 15 17 0 9 3 14 6 10 12 -12 64 23 64 43 0 11 9 25 20 32 11 7 20
17 20 23 0 6 12 12 28 13 15 1 29 7 30 12 2 6 10 10 18 10 8 0 14 5 14 10 0 6
7 10 16 10 8 0 12 5 9 10 -3 6 -2 10 4 10 5 0 23 14 41 31 22 23 29 37 24 52
-5 15 2 27 26 48 18 16 36 26 41 23 5 -3 9 0 9 6 0 12 46 61 51 55 2 -1 10 3
17 11 7 8 10 14 7 14 -4 0 0 6 8 14 9 9 12 26 9 41 -5 29 15 75 32 75 13 0 39
28 49 53 3 9 13 17 22 17 8 0 21 16 30 36 13 32 13 37 0 51 -8 8 -15 16 -15
19 0 13 48 75 62 79 9 3 19 17 22 30 4 14 11 25 16 25 6 0 10 7 10 15 0 8 4
15 9 15 15 0 22 44 8 55 -11 9 -14 28 -7 48 1 4 3 12 4 17 0 6 8 15 16 20 8 5
11 10 7 10 -5 0 1 13 12 29 11 15 18 31 14 35 -3 3 -1 6 5 6 7 0 12 7 12 15 0
8 4 15 10 15 5 0 17 17 25 37 15 36 15 39 -5 55 -11 9 -22 21 -22 25 -1 4 -12
16 -24 26 -19 15 -27 15 -51 5 -15 -7 -31 -17 -35 -23 -4 -5 -8 -6 -8 -1 0 5
-8 -1 -19 -12 -10 -12 -21 -19 -24 -16 -3 4 -13 -1 -22 -10 -9 -9 -23 -16 -31
-16 -8 0 -14 -3 -14 -8 0 -4 -14 -13 -31 -21 -26 -11 -32 -11 -47 2 -18 16
-76 12 -66 -4 3 -5 -2 -9 -10 -9 -9 0 -16 -4 -16 -10 0 -5 -11 -12 -25 -16
-14 -3 -25 -10 -25 -16 0 -5 -4 -6 -10 -3 -5 3 -8 0 -5 -7 3 -8 -11 -22 -34
-35 -34 -19 -40 -20 -58 -8 -18 13 -25 12 -59 -5 -22 -11 -35 -19 -31 -20 4 0
2 -6 -5 -14 -7 -8 -17 -13 -23 -13 -5 1 -9 -3 -8 -10 2 -6 -6 -15 -17 -18 -10
-3 -22 -14 -25 -25 -7 -22 -62 -37 -77 -22 -8 8 -15 7 -23 -1 -7 -7 -22 -18
-33 -26 -12 -8 -19 -18 -16 -22 2 -4 -5 -10 -16 -14 -11 -3 -20 -13 -20 -20 0
-9 -6 -12 -15 -8 -9 3 -15 2 -14 -3 4 -22 -2 -45 -10 -39 -5 3 -12 -4 -16 -15
-5 -16 -15 -20 -46 -20 -21 0 -39 -5 -39 -11 0 -15 -26 -39 -34 -32 -3 4 -6
-1 -6 -10 0 -9 -4 -17 -10 -17 -5 0 -10 -6 -10 -13 0 -7 -9 -19 -20 -27 -10
-8 -22 -27 -25 -42 -4 -15 -10 -28 -14 -28 -4 0 -13 -11 -20 -23 -9 -17 -19
-23 -36 -19 -19 3 -25 -2 -36 -32 -7 -20 -19 -36 -27 -36 -8 0 -12 -6 -8 -15
3 -9 0 -15 -8 -15 -8 0 -17 -15 -20 -35 -4 -22 -13 -35 -22 -35 -8 0 -12 -5
-9 -10 4 -6 1 -17 -5 -25 -7 -8 -9 -15 -4 -15 4 0 -2 -9 -14 -20 -12 -12 -22
-29 -22 -39 0 -19 -18 -31 -46 -31 -18 0 -18 40 0 65 13 18 11 55 -3 55 -8 0
-8 41 0 55 4 6 5 18 4 28 -2 9 1 17 7 17 6 0 8 7 4 15 -3 8 0 15 6 15 6 0 8
11 5 29 -3 15 -1 33 4 38 7 7 4 17 -12 32 -22 20 -22 23 -10 93 7 40 15 80 17
89 3 12 -4 18 -25 22 -28 6 -29 7 -27 66 0 34 4 61 8 61 3 0 5 8 3 18 -2 9 -4
23 -4 30 -1 6 -12 12 -26 12 -14 0 -27 6 -30 13 -6 19 -14 89 -15 130 0 34 -2
37 -23 32 -32 -8 -47 13 -50 69 -1 25 -5 46 -9 46 -5 0 -8 11 -8 25 0 22 -3
25 -25 19 -36 -9 -53 10 -67 77 -13 66 -23 74 -32 29z"/>
</g>
</svg>
