<?xml version="1.0" standalone="no"?>
<!DOCTYPE svg PUBLIC "-//W3C//DTD SVG 20010904//EN"
 "http://www.w3.org/TR/2001/REC-SVG-20010904/DTD/svg10.dtd">
<svg version="1.0" xmlns="http://www.w3.org/2000/svg"
 width="512.000000pt" height="512.000000pt" viewBox="0 0 512.000000 512.000000"
 preserveAspectRatio="xMidYMid meet">
<metadata>
Created by potrace 1.13, written by Peter Selinger 2001-2015
</metadata>
<g transform="translate(0.000000,512.000000) scale(0.100000,-0.100000)"
fill="#000000" stroke="none">
<path d="M1756 4921 c3 -47 10 -99 15 -115 8 -27 8 -28 -22 -24 -39 6 -48 -14
-25 -54 20 -33 15 -88 -9 -108 -14 -11 -14 -15 0 -36 8 -13 18 -40 21 -61 17
-113 35 -188 52 -216 33 -54 35 -95 8 -120 -39 -37 -41 -72 -7 -110 l30 -31
-21 -23 c-19 -20 -20 -26 -9 -68 6 -25 9 -56 5 -69 -4 -16 6 -46 32 -96 33
-62 38 -81 37 -133 -1 -54 2 -65 31 -103 26 -34 31 -49 28 -78 -4 -32 -21 -42
-22 -13 -1 7 -13 26 -28 43 -30 34 -105 62 -164 62 -21 0 -52 9 -70 20 -18 11
-49 25 -68 31 -47 15 -110 68 -110 92 0 11 -4 17 -10 14 -5 -3 -10 -1 -10 5 0
7 -7 9 -16 6 -9 -4 -23 -1 -30 5 -8 6 -14 8 -14 4 0 -5 -8 1 -17 12 -23 26
-76 53 -103 53 -12 0 -42 16 -68 36 -40 30 -53 35 -86 31 -51 -6 -88 5 -160
50 -32 20 -79 40 -104 45 -25 4 -53 14 -61 22 -9 7 -28 16 -42 20 -15 3 -43
26 -63 51 -40 48 -91 81 -101 66 -3 -6 -3 -28 1 -50 6 -35 4 -41 -12 -41 -10
0 -35 12 -56 26 -45 31 -57 28 -27 -7 38 -43 51 -68 49 -96 -1 -15 -2 -33 -1
-39 1 -12 45 -45 65 -48 40 -7 54 -20 65 -56 6 -21 27 -59 46 -84 19 -25 43
-62 54 -83 10 -21 29 -45 42 -53 62 -42 103 -78 118 -105 9 -16 22 -35 29 -43
6 -7 12 -18 12 -23 0 -6 5 -7 10 -4 6 4 17 1 25 -5 11 -9 15 -9 15 -1 0 18 39
-10 47 -34 4 -11 6 -24 5 -29 -2 -4 3 -14 9 -22 6 -8 9 -14 5 -14 -4 0 12 -23
34 -51 22 -28 48 -70 59 -93 21 -50 33 -59 76 -62 16 -1 35 -2 40 -3 6 0 30
-18 53 -39 30 -27 39 -41 31 -49 -14 -14 19 -47 94 -93 31 -19 57 -38 57 -42
0 -15 -24 -8 -59 16 -62 42 -88 38 -105 -17 -5 -17 -8 -16 -35 4 -33 25 -64
22 -69 -6 -8 -41 -21 -46 -63 -25 -49 26 -57 25 -101 -5 -43 -29 -60 -31 -79
-9 -17 20 -85 55 -93 47 -3 -4 -6 -16 -6 -27 0 -12 -7 -29 -15 -39 -12 -17
-18 -17 -48 -8 -29 10 -41 9 -71 -5 -31 -15 -39 -16 -63 -4 -45 22 -52 20 -59
-16 -4 -22 -12 -34 -23 -35 -33 -2 -107 2 -132 7 -19 4 -34 -4 -62 -31 -31
-30 -46 -37 -90 -41 -69 -6 -85 -6 -129 2 -33 5 -38 3 -52 -25 -18 -34 -62
-61 -100 -61 -33 0 -37 -18 -13 -62 15 -27 36 -45 82 -67 66 -33 90 -38 100
-21 11 18 29 11 89 -34 44 -33 66 -43 89 -41 17 2 43 -2 57 -7 14 -5 60 -11
102 -12 66 -3 82 -7 113 -30 46 -35 69 -31 75 14 7 46 30 42 91 -15 26 -24 61
-46 80 -50 19 -4 39 -10 44 -14 15 -11 35 -7 44 8 12 19 59 6 93 -26 26 -25
26 -25 33 -4 7 24 35 27 84 10 22 -8 40 -8 61 0 22 7 47 6 97 -5 112 -26 123
-27 138 -14 18 15 19 7 5 -21 -8 -14 -21 -19 -49 -19 -34 0 -42 -5 -59 -34
-13 -23 -31 -36 -51 -41 -22 -5 -31 -12 -31 -27 0 -23 -66 -93 -98 -102 -31
-10 -55 -50 -47 -77 5 -14 4 -19 -4 -15 -6 4 -11 2 -11 -3 0 -6 -11 -11 -24
-11 -25 0 -86 -62 -86 -87 0 -15 -5 -16 -46 -4 -39 11 -55 -10 -47 -65 5 -38
4 -40 -31 -52 -43 -16 -70 -58 -54 -86 13 -24 -11 -45 -45 -39 -27 5 -56 -15
-61 -44 -3 -12 -18 -36 -35 -54 -17 -18 -31 -38 -31 -45 0 -8 -6 -14 -14 -14
-7 0 -28 -18 -46 -40 -18 -22 -41 -40 -52 -40 -11 0 -16 -5 -13 -10 3 -5 2
-10 -4 -10 -6 0 -8 -6 -5 -13 2 -7 -9 -31 -26 -52 -16 -21 -30 -39 -30 -40 0
-1 7 -18 15 -38 17 -41 12 -49 -23 -36 -14 5 -31 8 -39 5 -18 -7 -17 -46 2
-46 9 0 29 -7 46 -15 22 -12 34 -13 50 -5 18 10 20 17 14 61 -9 61 3 63 67 14
49 -38 74 -38 112 1 11 10 39 19 69 22 30 2 60 12 72 22 11 10 36 20 55 21 19
2 42 8 50 15 27 21 45 21 83 2 56 -28 58 -21 22 64 -10 26 24 39 68 26 53 -16
67 -6 67 46 0 25 5 48 10 51 6 4 25 -3 44 -14 44 -27 71 -26 101 3 13 13 26
21 29 18 3 -3 6 1 6 9 1 29 36 61 66 60 105 -3 103 -3 159 46 30 26 56 53 56
60 1 7 2 19 3 26 3 31 28 42 113 46 12 1 38 15 58 32 25 23 39 29 47 21 12
-12 2 -32 -17 -32 -7 0 -23 -12 -34 -26 -19 -24 -19 -28 -4 -65 18 -46 9 -63
-37 -73 -37 -7 -38 -25 -4 -65 27 -32 25 -36 -21 -43 -24 -4 -25 -43 -2 -103
22 -59 12 -99 -29 -118 -27 -13 -34 -23 -34 -45 0 -15 6 -34 12 -40 10 -10 10
-17 -1 -34 -23 -36 -22 -145 2 -211 22 -66 15 -87 -23 -67 -30 16 -34 8 -14
-32 15 -32 15 -37 0 -66 -13 -25 -15 -47 -10 -95 3 -34 7 -96 8 -137 2 -41 6
-86 11 -98 7 -20 5 -23 -12 -20 -11 1 -27 -3 -35 -10 -14 -11 -13 -18 11 -62
25 -47 25 -51 10 -78 -11 -19 -13 -35 -8 -50 11 -30 25 -28 41 8 7 16 25 34
39 39 30 10 80 61 73 73 -3 4 0 8 6 8 6 0 8 5 5 10 -3 6 -1 10 5 10 7 0 10 7
7 15 -6 15 39 59 73 70 21 7 36 45 27 69 -7 18 12 36 39 36 32 0 44 21 37 64
-7 43 5 56 49 56 15 0 29 4 32 8 9 15 11 147 2 171 -8 23 -7 23 27 17 30 -6
38 -3 51 16 9 12 16 41 16 65 0 48 10 59 41 43 32 -18 45 1 32 44 -13 41 2 70
42 80 22 6 26 13 25 41 0 3 6 18 15 34 8 16 16 46 17 68 3 31 10 42 40 62 l38
24 -3 93 c-3 73 0 97 13 114 18 24 50 19 50 -9 0 -9 9 -30 19 -47 22 -36 29
-64 19 -80 -4 -6 10 -25 32 -43 81 -65 90 -113 17 -93 -67 19 -55 -28 21 -80
54 -37 68 -53 77 -88 4 -14 16 -41 28 -60 12 -19 20 -47 18 -63 -4 -42 58
-129 106 -147 30 -12 65 -64 98 -145 40 -98 69 -143 126 -197 55 -52 60 -69
24 -88 -27 -15 -29 -18 -16 -38 7 -12 27 -19 58 -21 12 -1 46 -34 117 -116
l35 -40 -6 45 c-3 25 -10 53 -15 63 -7 13 -3 19 16 27 14 5 27 19 30 32 23
121 23 121 -7 166 -33 49 -30 69 13 85 17 6 30 15 30 20 0 5 -13 28 -29 51
-21 29 -29 52 -26 72 1 16 -3 39 -11 52 -13 20 -13 22 5 22 21 0 34 40 19 62
-4 7 -6 33 -3 58 5 39 3 49 -20 75 -40 45 -47 71 -30 104 8 16 12 31 10 33 -3
2 -9 28 -15 57 -5 29 -17 68 -26 87 -13 27 -14 40 -5 65 14 41 14 45 -3 61 -7
8 -17 25 -21 37 -6 19 -4 23 8 18 8 -3 19 -1 25 5 8 8 3 21 -18 48 -43 54 -85
166 -73 193 8 17 6 26 -8 41 -11 11 -17 21 -15 23 12 13 70 -29 141 -103 81
-84 84 -86 124 -82 22 2 42 1 43 -2 6 -11 86 -70 96 -70 5 0 30 -16 55 -35 48
-37 66 -42 84 -24 18 18 50 1 93 -52 29 -34 63 -60 111 -83 l69 -34 25 20 25
20 65 -66 c35 -36 70 -66 76 -66 7 0 21 7 31 17 16 14 22 14 46 3 15 -8 29
-14 32 -15 3 0 16 -8 30 -17 14 -9 44 -19 67 -23 24 -4 58 -17 78 -30 62 -43
73 -47 96 -34 17 9 20 17 14 46 -6 33 -5 34 17 27 21 -6 22 -6 8 11 -8 10 -27
32 -42 49 -16 17 -28 42 -28 56 0 45 -52 111 -154 196 -42 35 -49 46 -51 80
-1 21 -3 42 -4 46 0 5 -19 27 -41 50 -23 23 -44 46 -48 53 -9 14 -178 125
-191 125 -16 0 -51 51 -51 75 0 14 -19 39 -55 70 -33 28 -63 65 -74 91 -14 32
-26 44 -41 44 -11 0 -51 10 -87 21 -65 21 -140 77 -164 120 -16 31 7 30 37 -1
33 -33 60 -40 49 -12 -13 34 -17 72 -8 72 5 0 30 -6 54 -13 26 -8 55 -10 72
-6 15 4 68 6 117 4 82 -3 91 -2 104 17 9 13 29 22 53 24 21 2 52 6 70 9 20 4
44 0 62 -10 17 -8 34 -15 40 -15 18 0 41 31 41 55 0 35 12 37 54 8 l36 -27 58
18 c91 27 112 37 112 53 0 9 6 13 14 10 8 -3 16 -2 18 3 4 12 55 15 95 6 25
-6 36 -3 52 13 26 26 44 26 91 0 49 -28 70 -20 70 25 0 32 2 34 43 41 23 4 65
6 94 6 51 0 78 14 54 29 -7 4 -13 19 -15 34 -3 29 -77 112 -109 122 -10 3 -29
-1 -42 -10 -22 -14 -25 -14 -57 14 -24 22 -40 29 -59 25 -18 -4 -39 3 -75 28
-40 27 -55 32 -80 27 -36 -8 -106 13 -143 41 -29 23 -44 24 -61 4 -7 -9 -15
-13 -18 -10 -3 3 -11 0 -17 -5 -9 -8 -24 -4 -49 11 -26 15 -47 20 -70 16 -24
-4 -43 1 -66 16 -19 12 -43 27 -54 34 -20 12 -63 8 -80 -7 -11 -11 -61 7 -105
37 -37 25 -78 39 -88 29 -3 -3 -9 -22 -12 -42 l-6 -36 -40 32 -39 31 -19 -25
c-23 -31 -39 -32 -84 -5 -22 14 -42 19 -58 15 -15 -4 -25 -2 -25 4 0 23 31 70
48 71 9 1 27 2 39 2 35 3 134 87 128 108 -6 18 29 59 50 59 6 0 24 14 40 30
16 17 34 30 41 30 21 0 54 42 54 67 0 13 8 26 18 30 9 4 19 9 22 12 3 3 22 14
43 23 21 10 40 26 44 35 6 19 68 97 148 188 48 54 55 65 55 83 0 5 16 14 35
22 19 8 35 18 35 22 0 5 10 31 23 58 20 46 35 57 70 51 4 0 7 3 7 9 0 5 7 18
15 27 40 46 63 80 69 106 4 16 26 46 49 67 l41 39 -32 40 c-18 22 -32 45 -32
50 0 6 -7 11 -16 11 -12 0 -15 -10 -12 -52 3 -49 1 -53 -20 -56 -13 -2 -37 2
-53 8 -36 15 -75 6 -82 -19 -3 -14 -16 -20 -48 -24 -134 -17 -155 -20 -166
-29 -6 -5 -22 -6 -36 -3 -32 9 -67 -2 -67 -20 0 -58 -58 -95 -123 -78 -48 13
-61 10 -75 -22 -6 -13 -35 -39 -64 -58 -29 -19 -61 -43 -71 -54 -15 -17 -32
-21 -105 -22 -48 -1 -91 -6 -96 -11 -5 -5 -4 -22 2 -40 11 -29 7 -60 -7 -60
-3 0 -19 8 -36 18 -49 29 -63 32 -80 15 -12 -11 -14 -26 -9 -58 3 -23 2 -45
-3 -48 -5 -3 -27 0 -50 6 -37 10 -45 9 -63 -8 -21 -19 -21 -34 -3 -81 6 -17 5
-17 -17 -1 -34 24 -57 21 -87 -9 -20 -20 -28 -23 -34 -12 -5 8 -2 23 8 38 31
46 53 99 53 125 0 14 4 25 10 25 5 0 17 11 25 24 14 21 14 28 0 70 -9 26 -13
56 -9 68 3 12 6 41 6 65 l-1 44 34 -7 c28 -5 36 -3 41 11 4 10 2 25 -4 34 -29
39 -32 62 -16 96 17 36 13 139 -6 176 -14 24 2 49 31 49 19 0 36 40 25 58 -3
5 0 25 6 45 10 33 8 40 -15 76 -15 23 -27 47 -27 54 0 16 32 47 48 47 17 0 15
14 -9 54 -19 33 -19 37 -5 52 9 8 16 22 16 29 0 8 5 59 11 114 l11 99 -31 42
c-17 24 -31 55 -31 69 l0 25 -20 -20 c-17 -16 -19 -25 -11 -46 9 -24 8 -25
-32 -24 l-42 1 -5 -52 c-3 -28 -9 -55 -13 -59 -4 -4 -27 -7 -51 -5 -53 2 -60
-7 -47 -55 12 -44 -2 -72 -39 -76 -16 -2 -24 -8 -22 -19 3 -20 -37 -57 -68
-62 -28 -4 -29 -10 -12 -51 12 -27 10 -31 -23 -62 -31 -28 -35 -36 -26 -53 27
-50 3 -81 -63 -81 -40 0 -45 -13 -22 -58 7 -15 13 -37 12 -49 -2 -25 -33 -63
-51 -63 -20 0 -52 -43 -60 -80 -10 -48 -66 -150 -82 -150 -7 0 -14 -6 -14 -12
-5 -58 -10 -87 -20 -110 -8 -20 -7 -32 2 -50 22 -40 20 -48 -17 -48 -45 0 -61
-28 -39 -71 22 -42 15 -45 -20 -9 -26 27 -28 33 -17 65 9 32 7 43 -20 98 -36
74 -51 92 -100 123 -20 13 -42 33 -48 44 -9 16 -6 22 19 34 15 8 31 12 35 9 3
-4 6 -2 6 3 0 16 -17 36 -41 47 -14 7 -37 38 -54 74 -16 34 -38 70 -48 81 -10
11 -21 38 -24 60 -6 41 -15 55 -110 156 -61 65 -122 173 -148 261 -9 31 -22
58 -30 61 -20 8 -28 40 -15 64 8 15 7 27 -5 50 -16 30 -88 75 -105 65 -5 -3
-27 12 -49 33 l-41 39 6 -86z"/>
</g>
</svg>
