<?xml version="1.0" standalone="no"?>
<!DOCTYPE svg PUBLIC "-//W3C//DTD SVG 20010904//EN"
 "http://www.w3.org/TR/2001/REC-SVG-20010904/DTD/svg10.dtd">
<svg version="1.0" xmlns="http://www.w3.org/2000/svg"
 width="558.000000pt" height="558.000000pt" viewBox="0 0 558.000000 558.000000"
 preserveAspectRatio="xMidYMid meet">
<metadata>
Created by potrace 1.13, written by Peter Selinger 2001-2015
</metadata>
<g transform="translate(0.000000,558.000000) scale(0.100000,-0.100000)"
fill="#000000" stroke="none">
<path d="M4382 4675 c-203 -63 -400 -113 -602 -155 -80 -16 -204 -48 -276 -71
l-132 -42 -57 28 c-156 73 -308 129 -396 145 -49 9 -87 9 -159 0 -216 -27
-324 -58 -430 -125 -42 -27 -45 -27 -174 -23 -97 4 -178 15 -311 42 -99 20
-227 46 -285 57 -154 30 -371 83 -577 141 -101 29 -185 49 -188 47 -3 -3 10
-73 29 -155 100 -435 184 -1084 164 -1257 -9 -73 -36 -136 -112 -262 -85 -139
-77 -210 42 -408 47 -78 73 -133 78 -162 5 -38 -1 -184 -11 -234 -1 -9 -6 -50
-10 -91 -3 -41 -8 -86 -10 -100 -2 -14 -6 -54 -10 -90 -9 -95 -31 -274 -39
-316 -2 -10 -9 -55 -16 -99 -7 -44 -14 -87 -15 -96 -2 -9 -6 -34 -10 -55 -12
-82 -17 -104 -56 -278 -21 -98 -37 -181 -35 -184 3 -2 87 16 188 41 371 93
743 162 1023 191 305 32 291 31 329 3 55 -43 150 -86 232 -107 176 -45 360
-10 507 97 l48 35 90 -6 c50 -4 96 -9 102 -11 7 -2 41 -6 77 -10 313 -30 832
-129 1128 -217 40 -11 74 -19 76 -17 3 2 -13 65 -35 139 -59 201 -114 431
-154 650 -19 107 -54 257 -76 332 -60 204 -55 314 26 568 59 184 65 218 60
345 -5 124 -22 215 -61 325 -30 86 -37 194 -22 325 22 194 127 648 227 983 33
113 37 132 22 131 -9 0 -94 -25 -189 -54z"/>
</g>
</svg>
