<?xml version="1.0" standalone="no"?>
<!DOCTYPE svg PUBLIC "-//W3C//DTD SVG 20010904//EN"
 "http://www.w3.org/TR/2001/REC-SVG-20010904/DTD/svg10.dtd">
<svg version="1.0" xmlns="http://www.w3.org/2000/svg"
 width="558.000000pt" height="558.000000pt" viewBox="0 0 558.000000 558.000000"
 preserveAspectRatio="xMidYMid meet">
<metadata>
Created by potrace 1.13, written by Peter Selinger 2001-2015
</metadata>
<g transform="translate(0.000000,558.000000) scale(0.100000,-0.100000)"
fill="#000000" stroke="none">
<path d="M2780 4666 c-23 -9 -41 -25 -54 -49 -24 -46 -34 -49 -86 -26 -24 11
-47 18 -52 17 -17 -6 198 -206 225 -210 7 0 17 -2 22 -3 6 -2 20 -3 32 -4 32
-2 81 -47 106 -99 20 -43 30 -50 134 -102 96 -48 126 -69 200 -142 61 -60 99
-89 126 -96 20 -6 60 -31 88 -56 28 -25 55 -46 59 -46 5 0 31 -29 59 -65 54
-68 89 -87 123 -66 17 11 25 7 59 -29 24 -25 39 -51 39 -65 0 -27 32 -65 54
-65 8 0 41 -20 73 -44 32 -25 71 -48 85 -51 34 -9 70 -47 73 -78 2 -19 -1 -24
-14 -20 -10 3 -34 -14 -64 -46 -27 -28 -53 -51 -58 -51 -22 0 -49 22 -49 38 0
19 -51 72 -87 91 -12 6 -34 11 -48 11 -27 0 -154 100 -240 189 -29 30 -51 43
-79 48 -41 6 -97 55 -202 177 -38 43 -44 47 -75 41 -30 -5 -43 1 -104 45 -52
38 -79 66 -107 113 -20 34 -48 73 -62 86 -23 21 -29 23 -52 12 -32 -14 -33
-13 -76 64 -24 42 -41 61 -57 63 -19 3 -22 0 -19 -19 2 -16 -3 -25 -14 -27
-12 -2 -24 10 -39 40 -11 24 -35 58 -52 76 -25 26 -39 32 -71 32 -24 0 -55 9
-76 22 -45 27 -114 48 -129 39 -6 -4 -11 -27 -10 -55 3 -59 -7 -69 -50 -53
-30 11 -35 10 -45 -7 -6 -11 -21 -30 -33 -43 -19 -20 -26 -21 -47 -12 -36 17
-56 5 -56 -33 0 -42 -9 -55 -39 -59 -18 -3 -27 -13 -33 -37 l-9 -34 -59 7
c-57 7 -59 6 -64 -17 -2 -12 -4 -36 -3 -53 2 -30 1 -30 -58 -35 -53 -4 -60 -8
-65 -30 -3 -14 -16 -30 -29 -36 -12 -6 -35 -23 -50 -38 -15 -14 -35 -26 -44
-26 -9 0 -24 -11 -33 -25 -9 -14 -28 -28 -43 -31 -43 -10 -71 -33 -71 -58 0
-32 -30 -56 -72 -56 -23 0 -41 -7 -54 -21 -10 -12 -31 -27 -46 -35 -15 -8 -35
-28 -43 -44 -9 -17 -40 -46 -70 -66 -43 -29 -61 -35 -84 -31 -24 5 -34 1 -51
-20 -11 -14 -20 -37 -20 -52 -1 -51 -44 -81 -106 -74 -38 4 -43 2 -75 -39 -50
-60 -49 -60 -35 -103 9 -26 11 -48 5 -69 -12 -42 -13 -37 26 -95 19 -28 35
-60 35 -72 0 -16 4 -19 18 -14 17 7 22 9 74 19 22 5 26 11 22 30 -5 31 15 47
68 51 24 1 46 3 51 4 4 1 7 19 7 40 0 47 11 56 65 56 32 0 40 4 43 20 10 65
10 65 55 63 42 -3 42 -3 70 52 23 46 32 55 55 55 49 0 92 26 113 67 14 28 31
44 57 54 72 27 105 51 127 90 16 28 32 43 61 52 21 7 50 24 64 37 14 13 41 30
61 38 28 11 38 22 42 46 6 27 16 36 64 58 32 14 73 29 92 32 26 5 35 12 38 31
2 13 11 35 19 48 16 24 32 26 93 6 21 -6 22 -5 12 14 -31 59 -1 99 63 81 49
-14 59 -5 52 45 -13 87 32 84 58 -5 8 -26 26 -65 40 -86 31 -45 32 -53 6 -53
-16 0 -20 -7 -20 -34 0 -27 -7 -40 -32 -61 -18 -14 -42 -34 -53 -44 -33 -29
-59 -39 -88 -34 -35 7 -54 -10 -67 -57 -11 -40 -69 -100 -96 -100 -8 0 -29 7
-45 16 -35 18 -62 12 -53 -11 11 -28 -6 -66 -53 -116 -39 -42 -51 -49 -84 -49
-38 0 -69 -20 -69 -45 0 -7 -16 -19 -35 -25 -19 -6 -35 -17 -35 -24 0 -24 -40
-56 -70 -56 -17 0 -30 -3 -31 -7 -5 -56 -18 -67 -74 -65 -54 2 -63 -11 -47
-66 9 -28 9 -40 -1 -49 -13 -13 -26 -9 -85 28 -21 12 -25 12 -37 -4 -9 -13
-11 -27 -5 -48 15 -51 4 -61 -52 -54 -69 10 -82 -3 -60 -60 9 -24 13 -48 9
-51 -4 -4 -26 2 -49 14 -45 23 -77 16 -79 -16 0 -9 -2 -30 -2 -47 -2 -29 -4
-30 -44 -27 -53 4 -92 -16 -134 -69 l-32 -41 17 -47 c9 -26 14 -55 10 -64 -7
-20 64 -148 118 -213 47 -56 48 -72 5 -65 -13 2 -47 -19 -47 -30 0 -6 24 -36
54 -67 43 -46 52 -62 49 -85 -5 -38 34 -145 69 -185 30 -35 35 -61 17 -79 -9
-9 -8 -18 3 -35 14 -21 14 -27 2 -51 -13 -25 -12 -32 22 -104 22 -47 53 -94
78 -117 l41 -39 -37 -9 c-58 -15 -55 -33 12 -98 33 -32 60 -64 60 -71 0 -8 9
-31 20 -51 19 -35 18 -68 -1 -68 -5 0 -9 -11 -9 -24 0 -16 17 -38 56 -71 61
-53 68 -80 19 -81 -34 0 -35 -15 -5 -75 17 -32 25 -37 77 -48 49 -11 62 -10
87 3 21 10 35 12 48 5 21 -12 22 -3 3 31 -8 14 -14 36 -15 50 0 14 -9 42 -20
62 -13 26 -17 47 -13 72 5 30 0 46 -26 87 -17 28 -31 59 -31 70 0 11 -10 42
-21 70 -17 39 -20 62 -17 113 6 70 2 80 -55 149 -32 39 -38 53 -34 80 5 37
-45 140 -97 195 -26 27 -28 34 -16 42 8 5 21 10 28 10 24 0 12 49 -23 90 -19
23 -35 45 -36 48 -3 30 -11 46 -33 73 -30 35 -32 45 -11 53 20 7 19 41 -2 72
-13 21 -14 30 -5 45 20 31 14 49 -34 102 -41 46 -45 54 -40 89 3 21 2 38 -2
38 -16 0 -32 41 -23 58 13 26 -3 57 -38 72 -44 18 -39 33 8 25 36 -6 41 -4 67
28 26 33 28 34 58 22 21 -9 36 -10 49 -3 10 5 20 8 21 6 8 -9 46 -150 46 -170
0 -13 12 -45 26 -72 19 -36 25 -58 21 -83 -4 -22 1 -48 13 -76 11 -23 20 -51
20 -61 0 -11 12 -37 27 -58 22 -33 24 -42 15 -64 -17 -36 -17 -37 38 -105 48
-60 50 -66 47 -113 -3 -28 2 -68 9 -90 8 -21 14 -54 14 -73 0 -23 11 -50 31
-78 27 -38 31 -50 25 -84 -5 -33 -2 -44 18 -68 17 -20 23 -39 23 -68 -1 -27 6
-50 21 -71 20 -27 22 -34 11 -58 -16 -34 1 -71 63 -141 50 -57 65 -85 43 -85
-19 0 -45 -39 -38 -59 3 -9 23 -34 45 -57 34 -36 38 -44 29 -66 -11 -30 -4
-43 16 -27 10 9 24 8 56 -3 23 -9 68 -21 100 -29 52 -11 62 -11 85 4 26 15 29
14 81 -15 53 -31 55 -31 84 -15 16 9 34 17 40 17 6 0 23 12 38 26 27 26 29 26
66 12 21 -8 65 -21 98 -27 51 -11 64 -10 89 3 31 16 47 12 95 -25 29 -23 54
-24 71 -4 7 8 20 15 30 15 9 0 29 11 44 25 32 29 26 29 73 11 21 -8 64 -20 96
-27 51 -11 62 -11 85 4 26 15 29 14 81 -15 53 -31 55 -31 84 -15 16 9 34 17
40 17 6 0 23 12 38 26 27 26 29 26 66 12 21 -8 65 -21 98 -27 51 -11 64 -10
89 3 31 16 47 12 95 -25 29 -23 54 -24 71 -4 7 8 21 15 31 15 10 0 27 10 38
21 11 12 35 24 53 28 29 6 33 11 31 37 -8 89 -10 95 -48 121 -45 30 -68 23
-73 -23 -5 -44 -14 -46 -63 -16 -55 35 -137 67 -147 58 -7 -8 -8 -13 -11 -40
-1 -12 -17 -15 -73 -14 -64 0 -79 4 -121 30 -53 34 -74 32 -83 -9 -12 -56 -12
-56 -47 -33 -40 26 -103 56 -139 65 -24 6 -27 4 -30 -22 -3 -28 -4 -28 -77
-30 -68 -1 -78 1 -119 29 -51 35 -75 30 -80 -18 -5 -44 -14 -46 -63 -16 -55
35 -137 67 -147 58 -7 -8 -8 -13 -11 -40 -1 -12 -17 -15 -73 -14 -64 0 -79 4
-121 30 -53 34 -74 32 -83 -9 -12 -56 -12 -56 -47 -33 -40 26 -103 56 -139 65
-24 6 -27 4 -30 -22 -3 -28 -4 -28 -75 -30 -40 -1 -75 3 -78 8 -3 5 -9 31 -12
58 l-6 50 37 -11 c45 -14 55 -5 34 33 -16 28 -16 29 3 29 11 0 24 11 31 25 14
32 28 32 58 0 29 -31 47 -31 77 -3 24 22 25 22 54 5 39 -22 55 -22 90 4 l29
20 66 -26 c75 -30 105 -29 119 3 13 29 36 28 63 -3 27 -31 48 -32 72 -3 18 22
19 22 54 5 48 -22 61 -22 96 5 l30 22 45 -22 c25 -12 63 -25 85 -28 36 -6 40
-4 51 20 15 33 29 33 59 1 29 -31 47 -31 77 -3 24 22 25 22 54 5 39 -22 55
-22 90 4 l29 20 66 -26 c75 -30 105 -29 119 3 13 29 36 28 63 -3 27 -31 48
-32 72 -3 18 22 19 22 54 5 48 -22 61 -22 96 5 l30 22 44 -21 c24 -12 60 -25
79 -28 33 -6 34 -6 30 19 -7 34 12 56 49 56 38 0 43 17 18 65 -26 51 -25 69 5
89 16 10 30 35 40 70 9 30 23 60 31 67 10 8 15 31 15 73 0 171 1 177 23 169
71 -24 92 3 55 71 -28 53 -21 72 30 86 l41 11 -14 32 c-10 26 -10 40 -1 72 7
22 18 63 24 90 7 28 19 55 27 62 9 6 18 34 21 65 3 29 10 59 15 65 6 7 13 36
17 65 6 53 6 53 39 50 43 -5 51 18 23 74 -11 25 -21 50 -21 58 0 18 33 46 53
46 9 0 17 7 17 15 0 8 -4 15 -9 15 -21 0 -21 35 1 51 17 13 23 29 24 64 1 25
9 54 18 63 21 24 46 86 46 115 0 13 -11 34 -25 47 -32 30 -32 40 3 40 34 0 62
27 64 61 3 39 -77 164 -115 179 -18 7 -27 3 -50 -23 -22 -25 -27 -39 -23 -65
3 -20 -2 -48 -11 -68 -16 -33 -16 -36 5 -79 24 -50 15 -66 -23 -41 -53 35 -72
16 -54 -55 12 -47 12 -52 -6 -65 -10 -8 -31 -14 -47 -14 -35 0 -35 -12 -3 -54
26 -34 32 -61 15 -71 -5 -3 -15 -25 -21 -48 -14 -53 -25 -67 -55 -67 -24 0
-24 -1 -20 -87 3 -77 1 -91 -16 -110 -20 -22 -21 -25 -1 -100 5 -20 2 -22 -30
-16 -43 7 -51 -5 -38 -54 14 -49 -4 -87 -43 -91 -24 -3 -27 -7 -21 -25 4 -12
7 -33 7 -47 -1 -14 -1 -51 -2 -83 0 -60 -6 -69 -53 -71 -20 -1 -21 -5 -18 -86
2 -80 1 -86 -23 -109 -32 -31 -33 -48 -1 -91 34 -46 32 -53 -16 -45 -49 8 -60
-2 -52 -51 3 -19 -1 -48 -8 -66 -7 -18 -12 -42 -11 -53 2 -12 -9 -34 -23 -50
-14 -17 -25 -36 -25 -42 0 -17 -5 -16 -41 2 -18 10 -42 14 -62 10 -29 -6 -107
17 -107 30 0 3 6 21 14 39 8 19 12 51 9 74 -4 38 -3 42 35 66 50 31 59 63 36
126 -23 63 -15 80 36 80 49 0 59 17 34 59 -18 30 -18 31 9 59 31 33 33 42 11
83 -18 36 -8 54 36 63 34 6 37 24 19 89 -13 49 -5 72 32 87 51 21 61 48 60
155 0 113 9 145 42 145 27 0 57 28 57 54 0 10 -12 37 -26 61 -31 54 -25 69 26
61 54 -9 64 7 42 73 l-17 53 28 24 c15 12 27 33 27 45 0 13 12 40 26 61 24 35
26 44 22 113 -5 77 -1 88 35 91 9 1 21 2 25 3 5 0 15 26 22 56 12 49 11 59 -5
94 -20 45 -15 70 15 72 11 1 25 3 30 4 6 1 15 3 20 4 14 1 13 34 -2 49 -7 7
-22 12 -34 12 -13 0 -53 23 -89 50 -36 28 -70 50 -74 50 -5 0 -14 -7 -21 -15
-18 -22 -45 -3 -81 56 -31 50 -103 119 -124 119 -7 0 -38 23 -70 51 -41 36
-61 47 -68 40 -23 -23 -47 -9 -96 59 -28 39 -57 70 -65 70 -7 0 -44 20 -82 45
-37 25 -74 45 -80 45 -7 0 -26 11 -43 25 -21 19 -31 36 -33 63 -3 35 -5 38
-51 49 -27 6 -65 24 -85 40 -20 15 -57 35 -82 43 -36 12 -52 25 -82 70 -26 39
-48 59 -78 72 -23 10 -59 32 -80 48 -20 16 -58 38 -83 49 -40 17 -47 25 -53
58 -6 35 -29 74 -43 72 -3 0 -22 -6 -41 -13z"/>
</g>
</svg>
