<?xml version="1.0" standalone="no"?>
<!DOCTYPE svg PUBLIC "-//W3C//DTD SVG 20010904//EN"
 "http://www.w3.org/TR/2001/REC-SVG-20010904/DTD/svg10.dtd">
<svg version="1.0" xmlns="http://www.w3.org/2000/svg"
 width="512.000000pt" height="512.000000pt" viewBox="0 0 512.000000 512.000000"
 preserveAspectRatio="xMidYMid meet">
<metadata>
Created by potrace 1.13, written by Peter Selinger 2001-2015
</metadata>
<g transform="translate(0.000000,512.000000) scale(0.100000,-0.100000)"
fill="#000000" stroke="none">
<path d="M3725 4751 c-17 -10 -39 -28 -49 -40 -11 -11 -23 -21 -28 -21 -16 0
-164 -158 -210 -223 -12 -18 -25 -34 -29 -37 -20 -14 -141 -222 -146 -252 -1
-9 -16 -43 -33 -76 -16 -33 -30 -68 -30 -79 0 -10 -7 -28 -15 -39 -8 -10 -15
-24 -15 -31 0 -6 -5 -24 -12 -40 -6 -15 -10 -33 -9 -40 1 -6 -3 -14 -9 -18 -5
-3 -10 -16 -10 -29 0 -12 -5 -27 -10 -32 -6 -6 -12 -26 -14 -46 -2 -19 -6 -40
-10 -46 -4 -7 -9 -20 -11 -29 -2 -10 -14 -52 -26 -93 -12 -41 -23 -84 -24 -95
-2 -11 -17 -57 -34 -103 -17 -45 -31 -84 -31 -87 1 -15 -34 -121 -41 -129 -5
-6 -9 -16 -9 -23 0 -19 -123 -285 -142 -308 -5 -5 -18 -25 -28 -42 -20 -34
-40 -43 -40 -20 0 7 5 18 10 23 6 6 13 19 15 30 3 10 12 44 20 74 30 105 37
239 18 345 -13 67 -45 188 -63 230 -29 70 -81 170 -120 230 -24 39 -48 78 -52
88 -4 9 -14 20 -23 23 -8 4 -15 12 -15 19 0 23 -253 272 -361 355 -110 85
-274 200 -285 200 -3 0 -26 14 -51 30 -24 17 -46 30 -47 30 -2 0 -33 18 -67
40 -98 60 -151 90 -161 90 -5 0 -33 16 -62 35 -29 19 -60 35 -69 35 -9 0 -18
4 -22 9 -3 5 -32 23 -66 40 l-60 30 6 -47 c4 -26 8 -60 10 -77 3 -16 9 -52 15
-80 7 -27 14 -65 17 -83 3 -18 9 -35 14 -38 5 -3 9 -16 9 -29 0 -13 5 -27 10
-30 6 -3 10 -17 10 -31 0 -13 5 -24 10 -24 6 0 10 -6 10 -13 0 -17 27 -72 52
-109 10 -14 18 -31 18 -38 0 -6 6 -18 13 -25 29 -34 37 -45 37 -55 0 -6 6 -17
13 -24 6 -8 19 -24 27 -36 8 -12 44 -59 80 -104 35 -44 69 -87 75 -94 17 -21
211 -225 343 -360 67 -69 122 -128 122 -130 0 -7 61 -80 115 -137 26 -27 59
-68 73 -90 15 -22 30 -42 33 -45 3 -3 14 -20 23 -37 9 -18 20 -33 25 -33 5 0
14 -12 20 -27 6 -16 22 -48 36 -72 17 -27 23 -47 17 -53 -6 -6 -15 -3 -23 7
-81 97 -227 225 -258 225 -6 0 -11 5 -11 10 0 6 -9 10 -20 10 -11 0 -20 5 -20
10 0 6 -8 10 -18 10 -10 0 -26 6 -37 13 -35 23 -215 73 -215 60 0 -3 -7 1 -17
8 -29 24 -349 18 -513 -10 -74 -13 -139 -27 -145 -31 -5 -4 -29 -11 -52 -15
-24 -4 -45 -10 -48 -15 -3 -4 -22 -11 -42 -15 -21 -4 -42 -10 -48 -14 -5 -4
-28 -13 -50 -20 -50 -17 -88 -33 -195 -83 -47 -22 -96 -45 -110 -52 -14 -6
-27 -13 -30 -16 -3 -3 -31 -18 -62 -34 -32 -15 -99 -52 -150 -83 -51 -30 -103
-59 -115 -64 -13 -5 -23 -12 -23 -17 0 -4 -16 -14 -35 -22 -19 -8 -35 -17 -35
-22 0 -4 -21 -18 -46 -30 -26 -12 -58 -32 -72 -45 -14 -13 -31 -23 -38 -23 -8
0 -14 -4 -14 -8 0 -12 80 -53 91 -46 5 3 9 1 9 -4 0 -5 6 -9 13 -10 11 0 84
-25 117 -39 8 -4 22 -8 30 -9 8 -1 47 -9 85 -18 104 -23 282 -33 390 -22 94
10 147 16 185 22 19 3 49 7 65 9 17 2 68 13 114 25 46 11 86 19 88 16 3 -3 17
1 32 8 14 7 58 19 96 25 39 7 79 16 90 21 11 5 34 11 50 14 17 2 62 12 100 21
39 8 81 17 95 19 14 2 25 5 25 6 0 2 33 9 74 15 18 2 41 7 50 10 74 23 457 44
489 26 22 -12 15 -15 -101 -36 -49 -9 -107 -24 -130 -34 -23 -10 -56 -23 -72
-28 -54 -17 -173 -103 -253 -182 -97 -98 -162 -175 -162 -194 0 -8 -7 -20 -16
-27 -8 -8 -22 -27 -29 -44 -8 -17 -19 -38 -25 -46 -5 -8 -28 -55 -50 -105 -22
-49 -45 -97 -50 -106 -5 -9 -12 -34 -16 -55 -3 -22 -10 -43 -14 -49 -6 -9 -18
-47 -26 -81 -1 -7 -9 -44 -18 -82 -9 -39 -19 -88 -22 -109 -3 -21 -7 -47 -9
-58 -35 -204 -47 -673 -26 -998 2 -28 80 28 196 140 28 27 64 66 80 87 17 20
40 49 53 64 12 15 25 35 28 45 3 9 9 17 14 17 10 0 52 72 110 190 23 47 48 96
55 110 15 29 59 143 81 210 20 59 21 64 22 70 0 3 12 37 25 75 13 39 30 90 37
115 7 25 15 52 18 60 3 8 7 24 9 34 2 11 7 24 12 30 5 6 12 27 16 46 11 53 65
214 76 224 5 6 9 16 9 23 0 12 30 85 51 125 5 10 9 24 9 32 0 8 3 16 8 18 4 2
25 39 47 83 22 44 42 82 45 85 3 3 15 21 27 41 30 53 54 78 69 72 9 -3 5 -18
-16 -54 -16 -27 -27 -49 -25 -49 2 0 0 -12 -6 -27 -6 -16 -13 -37 -15 -48 -2
-11 -9 -45 -15 -75 -23 -112 -2 -312 47 -460 18 -54 84 -189 119 -245 14 -22
28 -47 32 -55 33 -70 287 -349 378 -415 22 -16 42 -32 45 -36 15 -20 280 -209
294 -209 4 0 28 -15 54 -32 26 -18 67 -44 92 -57 25 -13 59 -33 75 -45 17 -13
57 -35 90 -51 33 -16 78 -40 100 -54 22 -14 46 -27 54 -29 8 -2 26 -11 40 -21
14 -10 36 -20 49 -24 20 -5 22 -2 22 35 0 21 -4 47 -9 56 -5 9 -11 40 -14 67
-6 47 -21 111 -34 145 -3 8 -7 20 -9 25 -15 59 -92 227 -106 233 -5 2 -8 8 -8
14 0 5 -9 22 -20 38 -11 15 -17 30 -13 34 3 3 2 6 -4 6 -5 0 -18 16 -29 35
-10 19 -22 35 -26 35 -5 0 -8 5 -8 11 0 6 -6 16 -12 23 -7 8 -20 24 -28 36
-29 43 -111 145 -121 148 -5 2 -9 10 -9 18 0 8 -7 14 -15 14 -8 0 -14 4 -12 9
2 8 -144 173 -190 215 -13 11 -23 23 -23 27 0 4 -33 41 -73 83 -40 42 -71 78
-69 81 2 2 -16 26 -42 52 -57 61 -170 212 -196 263 -11 21 -23 40 -28 42 -15
6 -94 176 -87 187 11 18 25 12 38 -16 6 -16 25 -43 42 -62 55 -62 103 -111
110 -111 3 0 15 -9 27 -19 11 -11 45 -33 74 -48 30 -15 54 -31 54 -35 0 -5 9
-8 20 -8 11 0 28 -4 38 -9 45 -23 93 -40 128 -47 22 -3 44 -9 49 -13 12 -6 6
-5 115 -19 81 -10 282 -9 338 2 15 3 52 8 82 12 30 3 73 12 95 20 22 7 48 14
57 14 9 0 65 16 124 35 58 19 113 35 120 35 8 0 14 5 14 10 0 6 7 10 15 10 8
0 23 4 33 9 54 27 134 61 143 61 5 0 15 4 22 10 7 5 73 40 147 78 74 38 157
83 184 101 28 17 56 31 63 31 7 0 13 4 13 10 0 5 15 17 33 25 42 20 71 37 92
55 9 7 34 23 54 34 135 74 152 107 76 145 -24 12 -52 24 -62 26 -10 2 -31 9
-48 16 -16 7 -33 12 -37 11 -4 -1 -19 5 -34 13 -15 8 -31 12 -36 9 -5 -3 -14
-1 -21 4 -11 9 -43 15 -157 29 -126 15 -362 6 -495 -18 -33 -6 -74 -13 -91
-14 -18 -2 -67 -13 -110 -24 -44 -11 -107 -25 -141 -32 -35 -6 -63 -15 -63
-18 0 -4 -19 -8 -42 -10 -24 -1 -47 -6 -53 -12 -5 -5 -22 -9 -37 -9 -16 0 -36
-4 -46 -9 -16 -9 -192 -48 -257 -57 -16 -2 -52 -8 -80 -14 -67 -13 -157 -20
-292 -24 -88 -3 -115 -1 -124 10 -16 20 -9 24 51 29 28 3 68 9 88 15 21 5 40
10 45 10 16 0 136 66 207 113 78 52 226 193 251 239 8 14 31 52 53 84 33 49
72 127 107 209 4 11 17 41 28 66 11 26 25 64 30 85 5 22 21 82 35 134 13 52
27 113 30 135 3 22 8 51 11 65 21 110 30 278 30 575 0 241 -9 472 -18 482 -2
1 -16 -6 -32 -16z"/>
</g>
</svg>
