<?xml version="1.0" standalone="no"?>
<!DOCTYPE svg PUBLIC "-//W3C//DTD SVG 20010904//EN"
 "http://www.w3.org/TR/2001/REC-SVG-20010904/DTD/svg10.dtd">
<svg version="1.0" xmlns="http://www.w3.org/2000/svg"
 width="558.000000pt" height="558.000000pt" viewBox="0 0 558.000000 558.000000"
 preserveAspectRatio="xMidYMid meet">
<metadata>
Created by potrace 1.13, written by Peter Selinger 2001-2015
</metadata>
<g transform="translate(0.000000,558.000000) scale(0.100000,-0.100000)"
fill="#000000" stroke="none">
<path d="M2469 4698 c5 -13 30 -72 56 -133 69 -164 141 -351 174 -456 26 -83
39 -130 71 -259 34 -136 45 -428 21 -545 -7 -33 -14 -71 -17 -83 -3 -13 -11
-42 -19 -65 -8 -22 -11 -45 -7 -51 3 -6 -5 -4 -18 5 -189 123 -369 199 -560
235 -14 2 -36 7 -50 10 -92 21 -275 33 -475 29 -121 -2 -236 -6 -255 -9 -19
-2 -64 -7 -100 -11 -36 -3 -78 -8 -95 -10 -16 -3 -68 -9 -115 -15 -210 -27
-219 -30 -180 -57 80 -56 161 -176 175 -258 31 -181 -55 -428 -249 -717 -11
-17 -14 -28 -7 -28 6 0 107 36 224 79 193 72 410 145 462 155 11 3 46 11 78
20 32 8 77 18 100 21 23 4 44 8 47 10 3 1 43 6 90 11 114 10 263 8 336 -5 99
-18 106 -20 155 -36 l48 -16 -36 -82 c-103 -239 -145 -467 -147 -792 -1 -174
9 -411 19 -460 2 -11 7 -54 10 -95 6 -80 14 -156 20 -205 2 -16 7 -67 11 -113
7 -88 15 -103 36 -74 115 161 269 256 408 251 155 -6 333 -95 498 -250 35 -33
66 -58 68 -56 4 3 -32 98 -61 162 -125 275 -285 688 -310 799 -62 274 -74 373
-65 569 2 32 6 60 10 62 4 3 32 -9 62 -25 180 -98 405 -166 668 -202 141 -19
733 -14 770 7 3 1 42 6 86 9 45 4 93 9 105 11 13 2 67 9 119 15 120 14 141 18
147 24 3 3 -21 17 -52 31 -76 33 -138 85 -172 143 -25 42 -28 56 -28 137 1 69
6 105 24 155 43 117 132 287 238 454 25 37 42 71 39 73 -3 3 -106 -30 -228
-75 -297 -107 -485 -166 -592 -186 -6 -1 -24 -5 -41 -9 -221 -49 -472 -55
-650 -16 -49 10 -147 39 -153 44 -2 2 13 27 33 55 125 177 225 447 269 720 28
173 28 734 1 945 -1 11 -3 42 -4 68 -1 60 -12 55 -52 -25 -39 -78 -98 -141
-161 -172 -43 -21 -62 -25 -122 -22 -39 2 -91 9 -116 17 -83 25 -224 100 -382
205 -87 57 -160 104 -162 104 -3 0 -1 -10 3 -22z"/>
</g>
</svg>
