<?xml version="1.0" standalone="no"?>
<!DOCTYPE svg PUBLIC "-//W3C//DTD SVG 20010904//EN"
 "http://www.w3.org/TR/2001/REC-SVG-20010904/DTD/svg10.dtd">
<svg version="1.0" xmlns="http://www.w3.org/2000/svg"
 width="512.000000pt" height="512.000000pt" viewBox="0 0 512.000000 512.000000"
 preserveAspectRatio="xMidYMid meet">
<metadata>
Created by potrace 1.13, written by Peter Selinger 2001-2015
</metadata>
<g transform="translate(0.000000,512.000000) scale(0.100000,-0.100000)"
fill="#000000" stroke="none">
<path d="M1731 4948 c-7 -46 -9 -126 -5 -213 10 -238 8 -256 -24 -328 -12 -27
-20 -53 -16 -58 3 -5 1 -9 -4 -9 -10 0 15 -110 29 -124 5 -6 9 -18 9 -28 0
-10 5 -18 10 -18 6 0 10 -7 10 -15 0 -8 5 -15 10 -15 6 0 10 -9 10 -20 0 -11
5 -20 10 -20 6 0 10 -6 10 -13 0 -7 9 -23 20 -35 11 -12 20 -27 20 -35 0 -7 8
-22 18 -33 37 -43 66 -100 57 -114 -7 -11 -23 -6 -90 25 -27 12 -77 33 -110
45 -33 13 -79 31 -102 41 -23 11 -51 19 -62 19 -11 0 -22 4 -25 9 -3 5 -23 12
-43 16 -21 4 -42 10 -48 13 -10 7 -18 8 -80 16 -78 10 -150 6 -175 -9 -6 -4
-173 -19 -200 -18 -17 0 -119 11 -167 17 -18 3 -40 7 -50 10 -10 3 -36 8 -58
10 -22 3 -77 10 -123 17 -45 7 -84 10 -87 7 -8 -7 16 -68 26 -68 5 0 17 -17
28 -37 10 -21 33 -51 50 -67 17 -16 28 -33 25 -38 -3 -4 0 -8 6 -8 7 0 27 -15
46 -32 64 -62 95 -88 105 -88 6 0 7 -4 4 -10 -3 -5 2 -10 12 -10 10 0 24 -9
31 -20 7 -11 19 -20 27 -20 8 0 18 -6 22 -13 4 -8 26 -27 48 -43 23 -16 70
-57 105 -90 118 -112 139 -125 350 -208 25 -10 53 -22 63 -28 11 -5 21 -7 24
-4 3 3 22 -3 42 -13 20 -10 61 -26 91 -35 30 -10 67 -24 83 -32 15 -8 27 -12
27 -9 0 3 12 -1 28 -9 15 -9 44 -22 65 -30 62 -25 37 -39 -52 -30 -77 8 -227
8 -336 0 -80 -6 -356 -63 -369 -76 -5 -5 -17 -10 -26 -10 -10 0 -50 -18 -91
-39 -41 -22 -93 -50 -116 -62 -24 -12 -43 -26 -43 -31 0 -4 -8 -8 -17 -8 -9 0
-24 -6 -32 -14 -31 -26 -288 -148 -456 -216 -126 -51 -211 -93 -197 -98 19 -6
14 -26 -9 -40 -20 -13 -21 -14 -3 -26 25 -18 149 -61 199 -71 22 -4 44 -10 50
-13 9 -6 46 -13 75 -14 8 0 21 -5 28 -11 7 -5 15 -7 18 -4 9 9 82 -32 135 -75
24 -20 56 -41 70 -47 52 -19 215 -1 363 41 79 23 146 31 146 18 0 -5 -10 -20
-22 -33 -13 -14 -60 -69 -104 -123 -45 -55 -94 -112 -108 -129 -33 -37 -92
-125 -106 -156 -5 -13 -14 -31 -20 -39 -26 -42 -41 -93 -45 -160 -3 -41 -15
-106 -26 -145 -23 -74 -99 -241 -131 -287 -11 -16 -16 -28 -12 -28 3 0 0 -7
-7 -16 -7 -9 -14 -21 -15 -28 -1 -6 -16 -41 -33 -78 -17 -36 -31 -68 -31 -71
0 -8 151 33 180 48 14 7 40 19 57 25 18 7 33 16 33 21 0 5 8 9 18 9 9 0 30 11
46 25 16 14 33 25 37 25 12 0 103 62 112 77 4 7 13 13 20 13 7 0 35 18 64 39
28 22 54 37 57 34 3 -4 6 -1 6 5 0 7 5 12 11 12 6 0 24 9 40 21 16 11 29 17
29 12 0 -4 4 -3 8 2 4 6 24 18 45 27 20 10 37 22 37 28 0 5 5 10 12 10 12 0
158 150 158 162 0 4 16 24 35 44 19 19 35 39 35 42 0 4 10 19 23 34 13 15 32
39 43 54 10 14 29 37 42 50 12 13 22 28 22 33 0 6 9 15 20 21 11 6 20 15 20
20 0 14 82 100 96 100 9 0 10 -8 3 -32 -5 -17 -13 -36 -19 -42 -5 -5 -10 -19
-10 -30 0 -12 -7 -30 -15 -40 -8 -11 -15 -27 -15 -36 0 -9 -9 -34 -19 -56 -11
-22 -24 -62 -29 -89 -6 -28 -16 -70 -22 -95 -38 -150 -50 -418 -24 -533 24
-109 75 -381 79 -422 32 -353 37 -406 54 -525 l6 -44 53 53 c29 29 65 72 80
94 15 23 30 44 33 47 4 3 22 32 40 65 18 33 43 73 56 88 12 16 23 34 23 40 1
17 47 59 100 92 24 16 49 33 55 39 26 27 67 143 71 201 3 36 12 145 22 240 8
82 29 98 52 40 7 -19 17 -35 22 -35 4 0 8 -6 8 -14 0 -8 6 -21 13 -28 7 -7 26
-35 41 -63 50 -85 113 -179 140 -206 14 -15 26 -30 26 -33 0 -4 24 -31 54 -61
52 -51 112 -90 201 -128 80 -34 82 -36 445 -378 l55 -52 8 63 c8 64 -15 293
-32 314 -5 6 -11 29 -15 51 -4 22 -13 56 -21 75 -21 51 -77 278 -80 327 -2 23
-10 55 -18 70 -8 15 -22 46 -33 68 -18 38 -67 123 -106 183 -10 15 -21 34 -25
42 -4 8 -11 20 -15 25 -5 6 -17 21 -28 34 -11 13 -20 28 -20 34 0 10 -55 85
-75 102 -7 6 -13 15 -14 20 -4 26 -13 45 -22 45 -5 0 -9 7 -9 16 0 9 -9 27
-20 41 -11 14 -20 32 -20 39 0 21 34 4 88 -46 60 -55 113 -100 118 -100 4 0
132 -84 150 -100 7 -5 14 -6 18 -3 3 3 8 -2 12 -11 3 -9 10 -16 15 -16 16 0
89 -35 89 -42 0 -5 5 -8 11 -8 5 0 31 -10 57 -21 25 -12 51 -22 57 -23 5 -1
15 -4 20 -7 6 -4 24 -10 40 -14 17 -5 35 -9 40 -11 64 -20 118 -28 345 -50 25
-2 56 -6 70 -9 14 -2 52 -9 85 -15 33 -5 85 -15 115 -21 30 -6 70 -13 89 -15
19 -3 42 -9 52 -15 11 -5 19 -8 19 -5 0 2 17 0 38 -5 20 -5 48 -12 62 -14 14
-3 36 -8 50 -11 14 -4 37 -8 53 -10 15 -2 54 -10 87 -17 33 -8 60 -12 60 -10
0 5 -46 100 -64 132 -17 29 -80 104 -123 147 -18 18 -33 37 -33 42 0 6 -9 14
-21 17 -11 4 -18 9 -15 12 3 3 -5 20 -18 37 -19 26 -32 49 -41 76 -1 3 -4 12
-8 20 -3 8 -8 31 -11 51 -11 63 -102 136 -236 189 -30 12 -59 23 -65 24 -32 6
-166 79 -163 88 5 14 27 20 158 49 159 35 333 94 415 140 28 15 91 70 142 121
50 52 104 100 120 108 15 8 30 18 33 21 3 3 37 23 75 43 39 21 74 42 79 47 6
5 18 9 27 9 10 0 19 3 21 8 2 4 25 18 51 32 93 48 124 70 99 70 -18 0 -14 27
5 34 15 6 13 10 -12 26 -17 10 -44 21 -62 23 -17 3 -37 8 -42 12 -10 6 -37 9
-161 20 -30 3 -116 7 -190 9 -130 4 -201 10 -265 22 -40 7 -141 8 -190 1 -22
-3 -107 -24 -190 -47 -82 -22 -166 -45 -185 -50 -96 -24 -155 -40 -155 -41 0
-6 -117 -24 -120 -19 -7 11 20 37 58 55 104 49 224 144 366 287 146 147 210
239 271 383 11 28 32 71 45 97 14 27 24 51 23 55 -2 5 7 24 18 43 12 19 30 54
40 78 10 23 21 42 25 42 4 0 10 13 14 30 4 16 12 33 18 37 7 5 23 31 36 58 14
28 30 55 35 62 21 24 31 39 33 50 1 6 14 28 28 49 14 21 40 67 56 101 17 35
34 63 39 63 10 0 32 61 25 68 -7 7 -158 -16 -165 -26 -3 -4 -9 -7 -15 -7 -23
-1 -95 -29 -95 -37 0 -4 -3 -7 -7 -6 -5 0 -16 -2 -25 -5 -38 -15 -53 -20 -58
-22 -3 -2 -15 -6 -27 -10 -13 -4 -23 -11 -23 -14 0 -9 1 -9 -145 -15 -69 -3
-121 -10 -123 -16 -2 -5 -10 -10 -17 -10 -11 0 -63 -44 -148 -127 -7 -6 -23
-26 -37 -44 -14 -19 -38 -48 -55 -66 -16 -18 -41 -46 -54 -63 -13 -16 -30 -30
-38 -30 -13 0 -14 13 -8 88 29 339 17 563 -35 629 -11 14 -20 30 -20 36 0 6
-8 19 -17 29 -17 19 -40 73 -50 118 -3 14 -9 30 -13 35 -4 6 -11 35 -16 65 -9
60 -8 58 -16 80 -4 8 -11 49 -17 90 -5 41 -12 82 -14 90 -2 8 -9 50 -17 93 -9
52 -17 77 -26 77 -8 0 -14 -4 -14 -8 0 -5 -12 -22 -27 -40 -53 -59 -61 -70
-68 -91 -3 -11 -13 -28 -21 -36 -8 -8 -17 -24 -19 -35 -2 -11 -11 -27 -19 -36
-9 -8 -16 -18 -17 -22 -2 -21 -10 -43 -33 -95 -14 -31 -26 -60 -26 -65 -1 -15
-13 -57 -19 -67 -3 -5 -6 -12 -7 -15 0 -3 -7 -18 -14 -35 -7 -16 -14 -33 -15
-37 -2 -5 -4 -10 -5 -13 -1 -3 -3 -8 -4 -12 -1 -5 -10 -25 -19 -47 -9 -21 -17
-42 -17 -47 0 -5 -4 -9 -9 -9 -5 0 -12 -13 -16 -30 -4 -16 -11 -30 -16 -30 -5
0 -8 -3 -8 -7 1 -5 1 -10 -1 -13 -1 -3 -3 -16 -6 -30 -2 -14 -7 -32 -11 -40
-13 -33 -22 -148 -28 -365 -7 -264 -15 -335 -35 -335 -5 0 -14 26 -20 58 -6
31 -17 75 -25 97 -7 22 -19 60 -26 85 -7 25 -16 50 -19 55 -4 6 -13 26 -20 45
-23 64 -123 260 -132 260 -4 0 -8 7 -8 15 0 8 -8 24 -17 35 -10 10 -47 58 -83
104 -36 47 -68 85 -72 86 -17 1 -336 312 -413 404 -28 32 -68 77 -91 100 -22
23 -49 56 -59 74 -11 18 -25 32 -32 32 -7 0 -13 3 -13 8 0 4 -16 25 -35 46
-19 22 -35 43 -35 48 0 4 -6 8 -14 8 -9 0 -17 -24 -25 -72z"/>
<path d="M5105 2560 c-3 -5 -1 -10 4 -10 6 0 11 5 11 10 0 6 -2 10 -4 10 -3 0
-8 -4 -11 -10z"/>
</g>
</svg>
