<?xml version="1.0" standalone="no"?>
<!DOCTYPE svg PUBLIC "-//W3C//DTD SVG 20010904//EN"
 "http://www.w3.org/TR/2001/REC-SVG-20010904/DTD/svg10.dtd">
<svg version="1.0" xmlns="http://www.w3.org/2000/svg"
 width="512.000000pt" height="512.000000pt" viewBox="0 0 512.000000 512.000000"
 preserveAspectRatio="xMidYMid meet">
<metadata>
Created by potrace 1.13, written by Peter Selinger 2001-2015
</metadata>
<g transform="translate(0.000000,512.000000) scale(0.100000,-0.100000)"
fill="#000000" stroke="none">
<path d="M3779 4820 c-25 -20 -28 -23 -67 -65 -13 -14 -28 -25 -34 -25 -6 0
-9 -3 -5 -6 3 -3 -5 -17 -19 -31 -13 -13 -24 -29 -24 -34 0 -6 -6 -16 -12 -24
-21 -22 -48 -55 -48 -59 0 -2 -14 -20 -32 -40 -53 -60 -84 -43 -113 59 -9 33
-25 69 -35 79 -19 19 -19 19 -48 -12 -17 -18 -28 -32 -26 -32 2 0 -5 -15 -16
-32 -11 -18 -20 -43 -20 -55 0 -13 -4 -23 -10 -23 -5 0 -10 -11 -10 -25 0 -14
-4 -25 -8 -25 -7 0 -11 -16 -14 -57 -1 -7 -5 -13 -9 -13 -4 0 -11 -21 -15 -47
-9 -53 -10 -61 -14 -68 -1 -3 -3 -8 -4 -12 -11 -50 -50 -65 -102 -39 -26 14
-28 13 -39 -8 -6 -12 -15 -44 -18 -72 -4 -27 -9 -60 -11 -74 -3 -14 -8 -72
-12 -130 -9 -154 -10 -169 -17 -177 -4 -3 -7 -15 -7 -25 0 -11 -7 -18 -20 -18
-15 0 -28 14 -45 53 -14 28 -25 57 -25 63 0 6 -6 17 -14 23 -21 17 -24 -21
-21 -206 3 -152 2 -163 -15 -163 -18 0 -50 53 -50 83 0 13 -15 57 -40 112 -4
11 -16 41 -26 68 -9 26 -21 47 -25 47 -5 0 -9 6 -9 13 0 24 -45 99 -68 115
-13 8 -22 11 -21 6 2 -5 -1 -19 -5 -32 -20 -58 -84 9 -268 281 -27 38 -48 66
-48 61 0 -5 -12 9 -27 31 -15 22 -33 46 -40 53 -7 7 -13 18 -13 23 0 5 -4 9
-9 9 -6 0 -33 23 -62 50 -52 50 -78 62 -81 38 0 -7 -2 -17 -2 -23 -4 -29 -25
-48 -54 -47 -30 1 -112 47 -112 63 0 5 -6 9 -14 9 -8 0 -23 10 -33 23 -10 13
-21 23 -25 23 -4 -1 -33 22 -64 49 -30 28 -60 50 -65 50 -5 0 -13 5 -17 10 -4
6 -24 21 -46 33 -45 26 -59 20 -77 -36 -6 -20 -16 -42 -20 -48 -19 -23 -69
-13 -129 27 -32 21 -61 39 -64 39 -6 0 -37 24 -62 48 -16 15 -114 62 -130 62
-6 0 -17 -7 -24 -16 -11 -12 -11 -27 0 -82 7 -37 21 -83 31 -102 28 -55 53
-114 51 -122 -1 -3 5 -12 13 -18 8 -7 15 -21 15 -30 0 -10 4 -20 9 -22 6 -1
15 -24 22 -49 11 -41 10 -49 -4 -64 -9 -9 -17 -14 -17 -12 0 3 -19 -1 -42 -8
-36 -11 -43 -16 -40 -36 1 -13 9 -30 17 -39 8 -9 15 -21 15 -26 0 -10 39 -50
173 -179 67 -65 88 -91 85 -108 -3 -22 -5 -22 -120 -19 -65 2 -118 0 -118 -3
0 -10 63 -75 73 -75 5 0 17 -8 26 -18 9 -11 34 -27 56 -38 22 -10 45 -24 50
-30 6 -7 19 -14 30 -16 11 -2 26 -11 33 -20 7 -10 18 -18 23 -18 6 0 26 -12
45 -26 45 -35 47 -72 3 -81 -21 -4 -28 -10 -25 -20 4 -8 6 -21 6 -29 0 -8 11
-24 25 -36 14 -12 25 -30 25 -40 0 -15 -8 -18 -47 -19 -502 -7 -539 -9 -618
-23 -42 -8 -64 -32 -38 -40 10 -4 27 -18 37 -33 21 -28 15 -48 -20 -67 -10 -6
-21 -14 -24 -17 -3 -3 -16 -9 -30 -12 -118 -30 -200 -53 -206 -60 -4 -4 -14
-7 -23 -7 -9 0 -29 -7 -45 -15 -15 -8 -34 -15 -42 -15 -7 0 -18 -10 -25 -21
-10 -19 -7 -26 25 -55 24 -22 36 -42 36 -59 0 -39 -47 -64 -250 -132 -41 -14
-82 -29 -90 -33 -9 -4 -36 -11 -60 -15 -24 -4 -50 -14 -58 -21 -7 -8 -22 -14
-32 -14 -42 0 -70 -22 -70 -55 0 -26 5 -33 35 -45 25 -10 39 -24 47 -47 11
-29 24 -38 50 -34 5 0 8 -3 8 -7 0 -5 6 -9 13 -9 7 0 25 -8 41 -18 27 -18 28
-21 22 -77 -5 -54 -4 -59 20 -75 20 -13 47 -17 113 -16 90 1 107 3 231 23 199
31 218 15 125 -105 -55 -70 -59 -95 -14 -90 37 5 100 24 114 35 6 4 29 14 52
21 24 6 43 16 43 21 0 4 8 8 18 8 9 0 29 6 44 14 14 8 43 19 65 26 21 7 41 17
44 22 3 5 26 10 50 11 l44 2 0 -37 c0 -35 1 -36 28 -31 15 3 51 19 80 34 28
16 69 37 90 46 20 9 37 19 37 23 0 5 11 11 25 14 14 4 25 11 25 16 0 6 10 10
23 10 12 0 33 9 47 20 14 11 31 20 38 20 7 0 29 8 50 18 74 36 93 12 35 -45
-21 -21 -43 -40 -48 -42 -17 -8 -36 -25 -109 -97 -93 -94 -142 -151 -166 -197
l-20 -38 37 3 c36 3 38 1 39 -27 1 -17 -12 -55 -27 -85 -15 -30 -35 -71 -44
-90 -9 -19 -27 -57 -40 -84 -14 -27 -22 -53 -19 -57 3 -5 1 -9 -4 -9 -20 0
-55 -137 -42 -160 5 -8 10 -10 10 -4 0 7 14 14 30 16 52 8 65 -25 46 -112 -3
-14 -11 -49 -17 -77 -6 -29 -14 -53 -18 -53 -4 0 -8 -8 -9 -17 -6 -50 -8 -58
-15 -64 -4 -3 -9 -18 -11 -32 -1 -15 -6 -30 -9 -34 -4 -3 -7 -14 -7 -24 0 -10
-7 -38 -15 -63 -8 -24 -17 -57 -19 -73 -2 -15 -10 -55 -18 -88 -8 -33 -11 -76
-8 -95 l5 -35 65 0 65 0 12 -35 c11 -32 10 -113 -2 -185 -3 -16 -7 -52 -9 -80
-2 -27 -7 -75 -11 -104 l-8 -55 34 23 c19 12 44 27 56 33 13 6 25 19 28 29 3
10 15 21 26 24 10 4 17 10 15 14 -3 4 4 14 15 21 10 8 19 19 19 24 0 5 7 16
15 25 48 53 55 62 55 71 0 6 4 10 8 10 4 0 16 14 25 30 33 56 87 34 107 -43 6
-23 14 -51 16 -62 3 -11 12 -34 20 -52 13 -29 17 -31 38 -22 20 10 52 56 46
68 -1 2 2 7 7 10 5 3 17 26 27 51 43 106 59 149 55 153 -2 2 2 11 10 20 7 10
11 17 7 17 -11 0 24 74 41 88 26 19 39 15 72 -20 27 -29 32 -31 44 -18 20 21
39 103 43 179 2 35 5 84 8 110 3 25 7 64 8 86 1 22 5 45 9 50 4 6 8 15 8 20 1
6 6 10 11 9 6 -1 16 -2 23 -3 6 0 32 -42 56 -92 28 -59 47 -87 53 -81 12 12
17 164 6 212 -4 20 -3 36 2 38 6 2 10 10 10 18 0 45 64 -12 96 -86 3 -8 19
-40 34 -70 16 -30 41 -79 56 -107 14 -29 30 -53 35 -53 5 0 9 -6 9 -13 0 -17
39 -49 51 -42 5 4 7 10 4 15 -3 5 0 12 6 15 5 4 8 13 5 20 -3 8 1 19 9 25 19
16 49 -2 100 -57 60 -65 65 -71 65 -83 0 -5 3 -10 8 -10 4 0 21 -20 37 -45 17
-24 33 -45 38 -45 4 0 7 -7 7 -15 0 -8 5 -15 10 -15 6 0 10 -7 10 -15 0 -8 6
-15 13 -15 6 -1 28 -23 47 -50 19 -28 41 -50 48 -50 6 0 12 -3 12 -7 0 -13 65
-80 89 -93 28 -15 41 -4 46 40 2 17 10 38 16 46 17 20 70 17 99 -6 14 -11 30
-20 35 -20 6 0 21 -12 34 -25 13 -14 27 -25 31 -25 5 0 21 -12 37 -27 40 -39
81 -70 130 -99 36 -22 44 -23 62 -12 12 7 21 20 22 28 4 67 16 99 42 105 23 6
113 -28 119 -45 2 -5 19 -12 38 -15 19 -3 60 -14 90 -24 71 -24 84 -15 77 50
-3 26 -11 56 -16 66 -15 26 -35 77 -33 86 1 4 -2 7 -7 7 -5 0 -14 14 -21 30
-7 16 -16 30 -21 30 -5 0 -9 6 -9 13 0 8 -9 22 -20 32 -11 10 -20 26 -20 35 0
10 -7 20 -15 24 -8 3 -15 15 -15 26 0 11 -4 20 -9 20 -10 0 -22 66 -15 84 3 7
20 18 39 25 56 20 48 47 -42 139 -43 43 -108 102 -144 130 -78 61 -129 118
-129 145 0 18 5 19 100 13 86 -5 99 -4 94 9 -4 8 -10 15 -15 15 -5 0 -19 11
-31 25 -12 14 -28 25 -35 25 -8 0 -16 6 -19 14 -3 8 -19 19 -35 25 -16 5 -29
15 -29 21 0 6 -4 9 -8 6 -5 -3 -18 3 -29 14 -12 10 -24 16 -27 13 -3 -4 -6 -1
-6 5 0 7 -4 12 -9 12 -11 0 -134 81 -155 103 -21 21 -20 46 2 54 9 4 21 13 25
21 6 9 18 12 33 8 23 -6 23 -5 12 14 -7 11 -16 20 -20 20 -4 0 -5 7 -1 16 5
14 18 15 102 9 145 -12 144 -11 176 -19 40 -9 325 -11 403 -3 34 4 71 12 81
19 19 12 19 12 1 28 -10 9 -19 22 -20 30 -6 39 1 50 43 61 23 7 47 16 52 19 6
4 63 20 127 34 65 15 120 32 123 37 4 5 15 9 26 9 28 0 119 48 119 63 0 7 -13
25 -30 40 -32 30 -31 50 4 80 19 15 96 55 151 77 17 7 220 72 235 76 27 5 68
17 80 21 8 4 18 5 23 5 4 -1 7 2 7 6 0 5 23 15 50 22 47 13 50 16 50 46 0 24
-5 34 -20 39 -11 3 -31 26 -45 50 -20 34 -34 45 -63 52 -24 6 -42 18 -52 36
-13 24 -13 31 2 73 18 52 17 64 -12 82 -39 24 -127 29 -270 16 -47 -5 -107 -8
-135 -9 -47 0 -50 2 -53 27 -3 21 12 49 59 113 34 47 59 89 55 93 -18 17 -151
-3 -181 -28 -6 -5 -33 -14 -60 -21 -28 -7 -59 -18 -70 -25 -21 -13 -94 -35
-132 -39 -15 -2 -22 3 -26 21 -2 14 -1 26 3 29 4 2 7 17 6 32 -1 23 -5 27 -24
25 -13 -2 -43 -14 -65 -26 -23 -13 -62 -34 -87 -47 -25 -13 -50 -28 -57 -34
-7 -5 -19 -16 -27 -22 -8 -7 -22 -13 -30 -13 -8 0 -16 -3 -18 -7 -10 -25 -138
-64 -138 -43 0 19 48 94 83 131 19 19 44 51 56 71 12 21 28 41 34 45 7 5 19
22 28 38 8 17 26 49 39 72 13 24 20 46 17 50 -4 4 -23 1 -43 -6 -68 -24 -76
13 -28 124 15 33 31 71 36 85 6 14 16 39 23 55 33 77 57 177 45 189 -6 6 -25
4 -49 -4 -64 -21 -75 -11 -68 63 6 65 27 158 38 167 3 3 6 12 7 20 3 42 16
100 22 100 4 0 11 26 15 58 4 31 11 60 17 63 9 6 13 22 22 98 3 19 8 51 11 72
9 50 -13 63 -76 45 -24 -7 -50 -11 -56 -10 -7 1 -17 2 -22 3 -21 3 -33 62 -27
133 14 175 18 296 8 302 -5 3 -20 -3 -33 -14z"/>
</g>
</svg>
