<?xml version="1.0" standalone="no"?>
<!DOCTYPE svg PUBLIC "-//W3C//DTD SVG 20010904//EN"
 "http://www.w3.org/TR/2001/REC-SVG-20010904/DTD/svg10.dtd">
<svg version="1.0" xmlns="http://www.w3.org/2000/svg"
 width="512.000000pt" height="512.000000pt" viewBox="0 0 512.000000 512.000000"
 preserveAspectRatio="xMidYMid meet">
<metadata>
Created by potrace 1.13, written by Peter Selinger 2001-2015
</metadata>
<g transform="translate(0.000000,512.000000) scale(0.100000,-0.100000)"
fill="#000000" stroke="none">
<path d="M3714 4749 c-21 -12 -47 -28 -56 -37 -10 -8 -18 -12 -18 -9 0 4 -30
-13 -66 -38 -36 -25 -68 -45 -71 -45 -3 0 -32 -18 -64 -40 -32 -22 -61 -40
-64 -40 -2 0 -28 -18 -57 -40 -29 -22 -59 -40 -66 -40 -7 0 -10 -4 -7 -10 3
-5 2 -10 -3 -10 -27 0 -244 -216 -317 -315 -33 -44 -67 -89 -77 -99 -9 -10
-15 -23 -12 -28 3 -4 1 -8 -5 -8 -5 0 -22 -25 -37 -55 -14 -31 -31 -58 -35
-61 -5 -3 -7 -10 -4 -15 4 -5 1 -9 -5 -9 -7 0 -10 -7 -6 -15 3 -8 2 -15 -3
-15 -11 0 -45 -80 -42 -97 1 -7 -2 -13 -8 -13 -5 0 -15 -24 -21 -52 -7 -29
-16 -57 -20 -63 -4 -5 -6 -18 -5 -27 2 -10 0 -18 -5 -18 -9 0 -23 -57 -21 -82
1 -10 -3 -18 -9 -18 -8 0 -11 -14 -8 -39 2 -22 0 -37 -4 -35 -5 3 -8 -1 -9 -8
0 -7 -2 -26 -5 -43 -2 -16 -6 -57 -10 -90 -3 -33 -8 -67 -11 -75 -4 -8 -8 -42
-9 -75 -1 -33 -2 -65 -3 -71 0 -6 -12 -9 -24 -7 -22 4 -24 9 -21 54 1 27 -2
49 -7 49 -5 0 -9 27 -9 59 0 33 -4 62 -9 65 -4 3 -7 21 -4 41 2 19 -1 35 -6
35 -5 0 -13 32 -17 70 -3 39 -10 70 -14 70 -5 0 -7 8 -6 18 2 9 -1 24 -5 32
-5 8 -13 34 -19 58 -6 23 -15 42 -19 42 -5 0 -8 8 -8 18 0 9 -9 37 -20 62 -11
25 -24 60 -28 78 -3 18 -10 32 -15 32 -4 0 -24 34 -44 76 -21 41 -43 77 -51
80 -8 3 -11 12 -8 20 3 8 0 14 -6 14 -6 0 -11 7 -11 15 0 9 -7 18 -15 21 -8 4
-13 10 -10 15 3 4 -4 13 -15 19 -11 6 -18 16 -14 21 3 6 -3 13 -15 16 -11 3
-19 9 -16 13 6 10 -174 193 -230 235 -22 16 -44 34 -50 41 -10 11 -173 124
-180 124 -2 0 -37 23 -78 50 -41 28 -82 50 -91 50 -9 0 -16 3 -16 8 0 8 -20
19 -82 47 -21 10 -38 21 -38 26 0 5 -6 9 -13 9 -7 0 -29 9 -49 19 l-36 20 4
-207 c3 -189 6 -235 20 -357 3 -22 7 -56 9 -75 9 -80 18 -120 27 -120 5 0 7
-4 4 -8 -5 -8 27 -148 41 -182 3 -8 7 -17 8 -20 5 -14 19 -48 30 -75 7 -16 16
-40 20 -52 3 -13 11 -23 16 -23 5 0 8 -3 7 -7 -3 -9 53 -125 63 -133 4 -3 16
-23 28 -46 12 -22 35 -54 52 -70 17 -16 37 -44 45 -63 13 -32 91 -124 108
-128 4 -1 17 -13 30 -27 12 -14 24 -26 27 -26 3 0 43 -36 89 -79 45 -44 88
-77 95 -75 7 3 21 -5 32 -18 22 -27 78 -68 92 -68 6 0 14 -6 18 -12 4 -7 17
-18 28 -24 24 -13 32 -49 13 -57 -7 -2 -31 3 -53 13 -22 9 -53 23 -70 30 -16
8 -33 13 -37 12 -5 -1 -8 2 -8 7 0 8 -29 21 -55 25 -5 0 -19 6 -30 12 -11 6
-44 17 -73 24 -28 6 -55 16 -58 21 -3 5 -10 7 -15 4 -5 -4 -15 -3 -21 2 -16 9
-37 14 -60 14 -10 0 -18 3 -18 7 0 4 -12 7 -27 8 -16 1 -58 8 -95 17 -37 8
-87 14 -113 14 -25 -1 -45 1 -45 4 0 8 -264 4 -276 -3 -5 -3 -36 -9 -69 -12
-112 -13 -199 -34 -300 -72 -11 -4 -23 -8 -27 -8 -3 -1 -10 -4 -14 -9 -4 -4
-14 -7 -22 -7 -8 0 -38 -11 -66 -24 -28 -14 -66 -30 -84 -36 -17 -7 -32 -16
-32 -21 0 -5 -7 -9 -16 -9 -19 0 -166 -78 -176 -94 -4 -6 -8 -8 -8 -4 0 4 -38
-17 -84 -47 -46 -30 -88 -55 -93 -55 -6 0 -18 -9 -28 -20 -10 -11 -24 -20 -32
-20 -23 0 -14 -15 20 -35 73 -43 133 -76 150 -81 9 -4 17 -10 17 -15 0 -5 5
-9 12 -9 6 0 32 -13 57 -29 25 -16 75 -41 111 -57 36 -15 68 -32 71 -37 3 -5
8 -8 10 -7 4 1 34 -10 87 -32 15 -6 32 -12 37 -14 6 -1 39 -12 75 -25 36 -12
70 -23 75 -24 16 -4 23 -6 57 -16 39 -12 58 -16 123 -24 27 -3 55 -11 61 -16
7 -6 14 -6 18 -1 3 6 24 6 53 1 40 -8 176 -14 193 -9 3 1 30 3 60 5 30 1 55 4
55 4 0 1 23 4 50 7 57 6 89 11 93 14 1 2 11 4 22 5 11 1 22 4 25 5 3 1 10 4
15 5 6 1 13 4 18 5 4 1 11 2 15 1 4 -1 18 4 30 11 26 14 43 19 75 21 12 0 22
5 22 9 0 4 3 7 8 6 4 -1 20 4 35 10 16 7 34 12 40 12 7 0 23 7 35 16 13 9 26
13 29 10 4 -3 15 2 26 11 10 10 24 18 30 18 13 1 62 21 87 36 106 62 124 66
128 25 2 -16 0 -26 -6 -22 -6 3 -27 -9 -47 -28 -74 -68 -79 -72 -140 -107 -11
-6 -36 -30 -55 -54 -19 -24 -45 -46 -56 -49 -21 -6 -127 -118 -194 -206 -19
-25 -45 -56 -57 -70 -13 -14 -23 -29 -23 -34 0 -4 -15 -29 -33 -55 -18 -25
-43 -66 -55 -91 -13 -25 -26 -52 -31 -60 -25 -47 -31 -61 -31 -75 0 -8 -4 -15
-8 -15 -5 0 -15 -22 -22 -50 -7 -28 -18 -50 -22 -50 -5 0 -6 -5 -3 -10 4 -6 1
-17 -5 -25 -7 -8 -9 -15 -5 -15 4 0 3 -6 -2 -12 -6 -7 -11 -20 -11 -28 0 -16
-5 -37 -21 -87 -5 -17 -7 -34 -4 -37 3 -2 1 -11 -3 -18 -4 -7 -9 -19 -10 -28
-2 -26 -14 -113 -20 -150 -8 -48 -14 -527 -7 -568 4 -26 8 -30 19 -21 8 6 14
8 14 3 0 -5 4 -4 8 1 7 10 32 25 117 70 22 12 87 52 145 90 58 38 108 69 111
70 3 0 48 34 100 75 52 41 103 82 113 90 29 23 126 121 176 179 53 61 149 201
150 217 0 6 9 19 20 29 11 10 17 22 14 26 -3 5 -2 9 3 9 4 0 13 12 20 28 6 15
21 50 34 77 13 28 23 55 24 60 0 6 3 15 7 20 3 6 11 29 17 53 7 23 16 42 21
42 5 0 7 9 5 20 -2 11 0 22 5 25 5 3 12 30 15 60 4 31 11 58 15 60 5 3 7 17 4
30 -2 14 0 25 5 25 5 0 12 37 16 82 4 46 11 88 16 93 4 6 7 43 6 84 -2 40 1
75 5 77 4 3 8 18 8 35 0 24 4 29 25 29 25 0 25 -1 25 -79 0 -44 5 -83 10 -86
6 -3 10 -28 10 -55 0 -27 4 -51 8 -54 4 -3 7 -23 6 -46 -1 -22 2 -43 7 -46 5
-3 9 -18 9 -35 0 -16 4 -29 10 -29 5 0 7 -7 4 -15 -4 -8 -1 -21 4 -28 6 -7 14
-32 18 -55 4 -23 10 -42 15 -42 4 0 6 -11 3 -25 -2 -14 0 -25 6 -25 5 0 10 -9
10 -20 0 -11 9 -35 20 -55 11 -19 19 -39 18 -43 -2 -10 35 -86 45 -90 4 -2 5
-8 1 -13 -3 -5 0 -9 6 -9 6 0 8 -5 5 -10 -3 -6 0 -13 8 -16 9 -3 18 -17 22
-32 3 -14 19 -42 35 -63 16 -20 27 -39 23 -43 -3 -3 -2 -6 4 -6 6 0 23 -19 38
-42 32 -48 34 -50 76 -98 89 -101 162 -171 234 -225 22 -17 45 -35 50 -42 17
-19 190 -133 230 -152 12 -5 27 -16 34 -25 7 -9 19 -16 26 -16 7 0 18 -6 24
-14 7 -8 24 -17 38 -21 14 -3 41 -18 59 -32 19 -14 34 -22 34 -19 0 4 13 -2
30 -14 43 -31 67 -33 72 -7 10 57 -3 514 -17 567 -2 8 -6 38 -10 65 -3 28 -10
66 -15 85 -5 19 -12 54 -15 77 -3 24 -13 59 -21 78 -8 19 -13 38 -12 42 1 5
-6 25 -15 47 -9 21 -17 43 -17 48 0 6 -9 27 -19 47 -10 20 -26 53 -35 73 -9
20 -21 40 -26 43 -6 3 -10 14 -10 24 0 10 -9 26 -20 36 -11 10 -20 25 -20 34
0 9 -16 34 -35 56 -19 22 -35 47 -35 55 -1 15 -47 68 -169 193 -142 145 -167
168 -174 161 -4 -4 -25 12 -47 35 -22 23 -40 38 -40 34 -1 -4 -10 3 -21 17
-12 14 -23 23 -26 21 -15 -12 -112 76 -110 99 1 11 4 20 7 21 3 0 13 2 23 4 9
2 17 -1 17 -6 0 -5 5 -9 12 -9 6 0 20 -8 31 -17 10 -10 24 -18 30 -19 25 -2
57 -17 57 -25 0 -5 7 -6 16 -2 10 4 20 0 26 -10 5 -10 18 -17 28 -17 10 0 22
-5 25 -10 4 -6 11 -8 16 -5 5 4 9 2 9 -2 0 -5 27 -15 60 -22 33 -8 60 -17 60
-22 0 -4 9 -6 20 -4 11 2 20 -1 20 -7 0 -5 7 -8 15 -5 8 4 17 2 21 -4 3 -6 11
-8 17 -6 7 2 24 -2 38 -9 15 -7 36 -11 48 -9 11 2 21 -1 21 -6 0 -6 4 -8 9 -5
5 3 46 -2 92 -12 112 -24 358 -23 523 2 6 1 16 4 21 8 6 3 30 9 55 13 24 4 52
11 62 16 10 5 18 6 18 2 0 -4 5 -2 12 5 7 7 23 12 38 12 14 0 34 7 44 15 11 8
28 15 37 15 10 0 39 11 66 24 26 14 60 28 76 31 15 4 27 11 27 16 0 5 3 8 8 7
13 -2 105 43 178 88 39 24 76 44 82 44 7 0 12 4 12 9 0 5 8 11 18 15 19 6 66
34 127 75 45 30 57 65 28 87 -10 7 -43 26 -73 41 -30 16 -56 31 -58 36 -2 4
-10 7 -17 7 -8 0 -19 8 -24 18 -6 9 -11 13 -11 9 0 -5 -12 0 -27 11 -35 24
-257 132 -272 132 -6 0 -11 5 -11 10 0 6 -3 9 -7 8 -5 -1 -21 4 -36 10 -16 7
-37 12 -48 12 -10 0 -19 4 -19 9 0 5 -16 12 -36 16 -20 3 -44 10 -53 14 -26
13 -86 31 -104 31 -10 0 -25 4 -35 9 -21 11 -258 45 -269 38 -5 -3 -27 -2 -51
3 -23 4 -42 5 -42 1 0 -3 -41 -6 -90 -6 -49 0 -90 -2 -90 -5 0 -3 -10 -5 -22
-6 -43 -2 -94 -10 -105 -17 -6 -4 -18 -4 -27 -1 -9 3 -16 1 -16 -5 0 -6 -6 -8
-13 -5 -8 3 -34 -2 -58 -9 -24 -8 -65 -20 -91 -27 -27 -7 -48 -16 -48 -19 0
-4 -8 -7 -17 -8 -27 -2 -46 -8 -70 -21 -12 -7 -28 -12 -36 -12 -8 0 -20 -7
-27 -15 -7 -8 -18 -15 -24 -14 -18 2 -56 -13 -56 -21 0 -5 -8 -6 -19 -3 -12 3
-24 -3 -33 -16 -8 -12 -18 -18 -22 -14 -3 4 -13 -2 -21 -13 -21 -30 -96 -23
-91 9 3 23 17 37 37 37 10 0 32 14 47 30 16 17 34 30 39 30 5 0 18 9 28 20 10
11 22 20 27 20 5 0 19 11 32 25 13 13 25 22 28 20 3 -3 29 21 58 52 29 32 94
101 144 155 115 122 161 177 170 204 3 12 15 29 26 39 11 10 20 26 20 35 0 9
9 25 20 35 12 10 19 24 16 31 -3 7 2 18 10 25 8 6 12 14 9 17 -3 3 2 13 10 22
9 10 15 21 13 26 -1 5 8 29 21 53 12 24 24 53 25 65 1 12 5 26 8 31 8 14 40
126 43 151 2 11 8 45 14 75 25 130 33 232 34 429 0 131 -9 309 -17 317 -1 2
-20 -7 -42 -18z"/>
</g>
</svg>
