<?xml version="1.0" standalone="no"?>
<!DOCTYPE svg PUBLIC "-//W3C//DTD SVG 20010904//EN"
 "http://www.w3.org/TR/2001/REC-SVG-20010904/DTD/svg10.dtd">
<svg version="1.0" xmlns="http://www.w3.org/2000/svg"
 width="558.000000pt" height="558.000000pt" viewBox="0 0 558.000000 558.000000"
 preserveAspectRatio="xMidYMid meet">
<metadata>
Created by potrace 1.13, written by Peter Selinger 2001-2015
</metadata>
<g transform="translate(0.000000,558.000000) scale(0.100000,-0.100000)"
fill="#000000" stroke="none">
<path d="M2682 4272 c-226 -230 -247 -249 -552 -498 -167 -136 -438 -391 -520
-489 -331 -395 -525 -775 -679 -1330 -34 -121 -106 -434 -116 -505 -4 -24 -8
-47 -10 -50 -2 -3 -6 -23 -9 -45 -12 -75 -17 -100 -26 -135 -5 -19 -11 -51
-14 -70 -3 -19 -8 -47 -11 -62 -3 -16 -2 -28 2 -29 5 0 15 -2 24 -4 8 -1 42
-6 74 -10 33 -3 62 -8 65 -10 3 -2 34 -6 70 -10 36 -3 76 -8 90 -10 36 -5 99
-12 285 -29 22 -3 74 -7 115 -11 41 -3 91 -8 110 -10 19 -2 69 -7 110 -10 41
-3 91 -8 110 -10 19 -2 64 -7 100 -10 36 -4 76 -8 90 -10 14 -2 59 -6 100 -10
41 -3 91 -8 110 -10 19 -2 64 -7 100 -10 36 -3 76 -8 90 -10 14 -2 77 -7 140
-10 63 -4 122 -9 131 -10 85 -16 592 -23 794 -11 254 16 504 48 755 98 85 17
160 31 165 32 76 14 245 62 245 70 0 33 -197 371 -392 674 -77 120 -188 311
-236 407 -43 88 -115 264 -138 340 -11 37 -100 402 -134 555 -130 572 -337
962 -714 1347 l-111 113 -213 -218z"/>
</g>
</svg>
