<?xml version="1.0" standalone="no"?>
<!DOCTYPE svg PUBLIC "-//W3C//DTD SVG 20010904//EN"
 "http://www.w3.org/TR/2001/REC-SVG-20010904/DTD/svg10.dtd">
<svg version="1.0" xmlns="http://www.w3.org/2000/svg"
 width="558.000000pt" height="558.000000pt" viewBox="0 0 558.000000 558.000000"
 preserveAspectRatio="xMidYMid meet">
<metadata>
Created by potrace 1.13, written by Peter Selinger 2001-2015
</metadata>
<g transform="translate(0.000000,558.000000) scale(0.100000,-0.100000)"
fill="#000000" stroke="none">
<path d="M2774 4666 c-17 -8 -40 -30 -52 -50 -24 -41 -43 -45 -97 -19 -48 23
-60 9 -41 -45 13 -37 13 -43 0 -57 -9 -9 -33 -15 -60 -15 -41 0 -44 -2 -44
-27 0 -48 -13 -57 -58 -46 -53 14 -64 5 -61 -51 3 -59 -7 -70 -50 -53 -30 11
-35 10 -45 -7 -35 -58 -45 -65 -76 -54 -43 15 -60 5 -60 -35 0 -37 -12 -52
-45 -59 -11 -2 -21 -12 -23 -23 -8 -39 -22 -46 -78 -39 -50 6 -53 5 -58 -17
-2 -13 -4 -37 -3 -54 2 -30 2 -30 -56 -33 -51 -3 -59 -6 -68 -28 -5 -14 -7
-29 -5 -33 3 -4 -5 -8 -16 -8 -12 -1 -35 -16 -52 -32 -18 -17 -39 -31 -47 -31
-9 0 -28 -13 -42 -30 -15 -16 -35 -30 -45 -30 -29 0 -62 -29 -62 -55 0 -29
-33 -53 -73 -53 -17 0 -39 -10 -56 -26 -15 -14 -33 -26 -39 -26 -7 0 -26 -20
-44 -44 -41 -59 -119 -110 -156 -102 -15 3 -32 3 -38 -2 -18 -12 -34 -49 -34
-78 0 -22 4 -25 21 -21 14 4 32 -5 57 -27 47 -42 74 -56 107 -56 15 0 40 -8
55 -17 42 -25 60 -6 60 64 l0 55 50 -7 c56 -8 80 4 80 37 0 14 14 25 49 40 58
23 66 38 46 78 -8 16 -15 34 -15 40 0 17 30 12 57 -10 36 -28 48 -25 79 16 15
19 48 46 73 59 25 13 62 40 81 60 62 63 69 69 112 85 28 10 48 25 56 43 7 15
32 37 55 48 22 12 71 48 109 80 69 60 121 92 131 83 3 -3 24 20 47 50 32 44
55 63 104 86 35 17 68 30 74 30 6 0 16 18 22 39 14 54 40 63 40 13 0 -21 9
-48 20 -62 11 -14 20 -36 20 -49 0 -22 -2 -23 -45 -17 -57 9 -69 -10 -34 -57
69 -96 64 -81 46 -140 -21 -68 -15 -175 15 -233 29 -58 21 -73 -36 -67 -39 5
-46 3 -46 -12 0 -10 19 -42 41 -72 l42 -53 -16 -58 c-21 -73 -13 -194 14 -234
11 -14 19 -36 19 -48 0 -19 -5 -21 -47 -18 -63 4 -65 -12 -13 -82 27 -35 40
-62 37 -75 -28 -119 -31 -124 -57 -118 -14 3 -42 14 -62 24 -46 24 -63 24 -80
1 -14 -19 -26 -21 -45 -9 -7 4 -21 3 -32 -3 -31 -16 -50 -12 -91 21 -37 30
-90 47 -90 29 0 -14 -88 -3 -128 17 -20 10 -47 34 -60 53 -29 44 -42 49 -42
16 0 -38 -29 -49 -71 -26 -115 64 -167 80 -177 52 -4 -14 -46 -16 -70 -3 -10
5 -38 12 -62 16 -25 3 -64 19 -88 35 -47 33 -65 36 -100 16 -21 -11 -36 -8
-130 30 -59 24 -115 44 -125 44 -9 0 -50 10 -90 22 -67 20 -93 22 -166 16 -26
-3 -28 -5 -19 -28 5 -14 7 -48 3 -75 -5 -46 -3 -55 25 -93 21 -29 30 -53 30
-79 0 -21 9 -51 20 -68 23 -34 25 -67 8 -95 -11 -17 -7 -30 25 -88 27 -50 37
-82 37 -113 0 -31 8 -56 26 -83 15 -22 33 -59 40 -82 7 -24 22 -53 33 -65 l20
-22 -25 -22 c-28 -24 -27 -47 4 -81 48 -52 62 -79 62 -114 0 -21 6 -55 13 -76
14 -43 14 -60 2 -89 -7 -14 1 -37 28 -87 24 -43 37 -81 37 -104 0 -20 8 -51
19 -68 10 -17 22 -42 26 -56 4 -14 16 -44 27 -68 17 -38 17 -45 4 -63 -19 -27
-12 -43 41 -103 30 -34 42 -54 37 -65 -10 -20 -8 -54 4 -111 18 -85 31 -103
86 -128 69 -30 80 -29 71 6 -4 15 -8 43 -8 62 -2 34 -1 35 43 40 l45 5 -2 39
c-3 44 10 66 38 66 23 0 23 3 4 40 -8 15 -14 43 -14 62 3 91 0 102 -51 163
-50 60 -62 99 -38 123 8 8 5 21 -16 51 -16 22 -30 55 -31 74 -4 41 -33 155
-46 178 -4 9 -11 35 -14 57 -2 22 -13 55 -24 74 -11 18 -22 56 -26 83 -8 62
-8 65 -1 92 3 16 -9 37 -50 83 -30 33 -54 64 -54 68 0 4 7 17 15 29 13 19 12
27 -11 80 -13 32 -36 79 -49 104 -14 26 -25 63 -25 83 0 22 -11 53 -30 82 -31
49 -31 58 0 74 14 8 29 2 69 -26 38 -25 62 -35 89 -34 20 1 54 -1 75 -4 35 -4
42 1 38 27 -2 12 28 8 59 -8 16 -8 38 -16 50 -18 11 -2 39 -20 61 -41 46 -42
62 -42 69 0 8 45 36 42 89 -9 35 -35 60 -49 104 -60 31 -8 55 -11 52 -7 -3 5
7 13 22 18 21 7 37 5 64 -9 20 -10 53 -18 75 -18 21 1 55 -6 74 -14 19 -8 69
-18 110 -22 41 -3 90 -14 110 -23 19 -9 58 -17 85 -17 43 0 50 -3 47 -19 -2
-10 7 -38 19 -61 26 -50 20 -66 -36 -90 -25 -10 -34 -21 -39 -47 -3 -19 -14
-43 -24 -54 -43 -46 -80 -106 -92 -150 -10 -33 -22 -52 -42 -63 -19 -11 -33
-32 -44 -66 -9 -27 -29 -65 -43 -82 -14 -18 -39 -49 -55 -69 -29 -35 -32 -50
-24 -124 3 -23 0 -24 -37 -22 -30 2 -45 -2 -58 -15 -17 -20 -15 -30 23 -90 20
-32 3 -46 -36 -31 -48 18 -64 6 -64 -45 0 -50 -16 -70 -52 -65 -20 3 -23 -1
-21 -27 3 -51 -6 -73 -37 -91 -17 -11 -30 -28 -32 -43 -2 -15 -14 -31 -33 -41
-27 -15 -30 -21 -27 -58 2 -23 1 -50 -3 -61 -8 -27 -104 -99 -140 -104 -32 -5
-35 -20 -9 -48 8 -8 14 -25 14 -36 0 -27 -64 -110 -92 -119 -18 -5 -10 -10 42
-23 54 -14 68 -14 85 -4 29 19 52 16 93 -12 42 -29 60 -31 88 -10 10 8 26 15
35 15 8 0 25 11 37 24 18 22 25 24 54 15 124 -38 169 -46 186 -33 26 20 53 17
94 -11 42 -28 65 -31 92 -10 11 8 26 15 34 15 8 0 25 12 38 26 13 14 28 23 33
20 4 -3 49 -16 98 -29 77 -19 94 -21 109 -10 26 19 51 16 92 -12 42 -29 60
-31 88 -10 10 8 26 15 35 15 8 0 25 11 37 24 18 22 25 24 54 15 124 -38 169
-46 186 -33 26 20 53 17 94 -11 42 -28 65 -31 92 -10 11 8 26 15 34 15 8 0 25
12 38 26 13 14 28 23 33 20 4 -3 49 -16 98 -29 77 -19 94 -21 109 -10 10 7 26
13 36 13 10 0 18 3 18 8 0 14 -54 87 -79 107 -15 11 -45 37 -68 58 -24 22 -44
34 -48 27 -11 -17 -38 -11 -79 20 -45 34 -57 36 -91 14 -13 -9 -32 -13 -42
-10 -10 3 -37 8 -60 11 -24 3 -58 12 -77 20 -19 8 -59 13 -92 12 l-59 -2 3
-37 c4 -49 -17 -51 -77 -6 -41 30 -45 31 -75 18 -41 -17 -104 -14 -174 9 -31
11 -83 19 -115 19 l-58 0 3 -36 c4 -49 -20 -53 -74 -13 -48 35 -59 37 -93 15
-13 -9 -32 -13 -42 -10 -10 3 -37 8 -60 11 -24 3 -57 12 -75 20 -18 7 -60 12
-93 12 l-60 -2 3 -37 c3 -32 0 -38 -15 -38 -29 0 -86 47 -88 72 -2 13 -6 37
-10 54 -9 40 11 56 77 63 4 1 19 16 33 35 19 25 27 50 31 97 7 73 10 79 50 83
16 2 32 4 36 5 4 0 9 10 13 21 3 11 22 38 40 60 28 34 34 49 33 86 -1 51 30
95 63 89 12 -2 29 9 49 35 35 44 36 54 11 97 -23 37 -19 43 25 43 34 0 64 21
64 45 0 8 -4 24 -9 38 -16 41 1 52 46 28 33 -16 43 -18 57 -8 16 12 16 16 -2
62 -11 28 -17 56 -15 63 3 7 22 12 48 12 53 0 60 9 45 56 -10 30 -9 38 6 55 9
10 22 19 28 18 35 -4 44 3 50 40 3 22 11 52 16 67 10 25 12 26 27 11 9 -9 18
-32 20 -52 5 -66 51 -125 98 -125 34 0 62 -27 79 -77 9 -26 39 -81 66 -123 52
-79 184 -215 199 -205 14 8 64 -39 86 -82 11 -21 36 -57 55 -80 20 -23 42 -59
48 -80 6 -21 33 -62 58 -92 26 -29 49 -63 50 -75 1 -11 3 -23 3 -25 1 -2 8 2
17 9 8 8 14 9 12 4 -2 -5 0 -9 3 -9 16 0 87 -100 99 -138 12 -42 83 -122 100
-112 9 6 25 -24 29 -55 0 -5 33 -43 72 -84 76 -80 116 -103 145 -82 15 12 16
18 5 57 -11 39 -10 49 9 91 14 32 27 48 39 48 39 0 45 26 20 86 l-24 56 24 19
c13 10 31 19 40 19 29 0 31 11 12 49 -30 57 -30 93 -3 107 35 17 39 25 46 72
3 23 15 55 27 71 17 24 20 34 12 58 -8 20 -6 38 5 66 12 31 13 46 4 75 -14 46
-6 54 41 40 56 -17 64 -2 31 61 l-27 52 27 28 c23 24 26 34 21 64 -5 27 -2 43
12 64 25 36 33 57 45 113 20 98 20 110 4 135 -23 35 -20 45 13 45 39 0 53 21
51 72 -4 70 -4 71 34 64 44 -8 51 4 26 48 -20 33 -20 36 -5 67 12 22 15 44 11
72 -5 29 -2 46 11 66 9 14 18 37 18 51 1 14 18 47 38 73 34 44 48 93 31 110
-3 3 -20 -3 -36 -13 -33 -20 -47 -18 -90 12 -41 28 -51 24 -45 -22 7 -52 -8
-64 -71 -55 -62 8 -70 -6 -36 -68 13 -26 24 -52 24 -60 0 -17 -34 -49 -43 -40
-4 3 -7 1 -7 -7 0 -10 -3 -10 -15 0 -12 10 -15 9 -15 -7 0 -10 -7 -28 -15 -41
-12 -17 -15 -38 -10 -94 5 -56 2 -79 -9 -98 -9 -14 -23 -41 -32 -60 -9 -19
-20 -37 -24 -40 -4 -3 -12 -15 -19 -28 -10 -19 -9 -31 5 -67 21 -57 14 -76
-29 -73 -56 3 -72 -20 -43 -65 18 -28 21 -52 11 -102 -5 -32 -12 -41 -28 -42
-11 -1 -29 -11 -40 -22 -19 -18 -19 -23 -7 -61 12 -37 12 -44 -4 -71 -9 -16
-15 -38 -11 -48 8 -27 -3 -48 -40 -71 l-32 -20 3 -88 4 -88 -27 -2 c-47 -4
-56 -22 -36 -74 16 -46 16 -46 -8 -75 -23 -27 -27 -29 -58 -18 -34 11 -71 47
-71 69 0 18 -39 50 -88 71 -48 21 -82 57 -82 87 0 21 -1 21 68 2 15 -4 22 -2
22 8 0 22 -37 57 -68 64 -42 11 -69 32 -108 85 -19 27 -49 57 -65 66 -27 16
-42 40 -43 71 -1 7 -20 36 -43 65 -23 28 -57 72 -75 96 -20 27 -58 58 -98 80
-66 38 -93 74 -48 66 13 -3 30 0 38 5 23 14 -17 60 -79 90 -58 28 -71 43 -63
72 6 26 -30 64 -93 95 -49 25 -74 48 -75 68 0 20 61 53 91 48 17 -2 38 2 51
11 30 21 57 20 93 -4 54 -36 72 -17 38 41 -25 42 -7 57 48 39 49 -17 70 -7 84
38 11 37 18 39 52 12 30 -23 60 -26 82 -7 9 8 35 19 58 26 23 6 51 23 62 37
18 23 29 26 89 28 45 2 77 9 93 19 26 19 60 22 74 8 6 -5 20 -12 33 -16 22 -7
23 -5 20 37 l-3 43 45 -3 c25 -2 59 2 75 9 17 7 36 11 44 10 8 -1 10 2 5 10
-5 8 -3 9 7 3 19 -12 40 -14 34 -4 -12 20 43 42 87 35 47 -7 67 5 72 42 3 16
14 18 84 19 76 0 83 2 102 27 27 34 52 34 96 1 19 -15 38 -23 42 -19 4 4 7 25
7 48 l0 41 91 -3 c103 -3 146 11 166 55 19 41 -17 65 -78 50 -27 -6 -36 -2
-71 34 -35 34 -46 40 -81 38 -31 -1 -54 8 -103 39 -35 22 -63 44 -61 49 1 5
18 7 37 5 67 -5 24 59 -48 73 -18 3 -61 29 -95 56 -60 49 -63 49 -79 31 -22
-27 -54 -11 -83 43 -32 58 -68 94 -120 121 -25 13 -61 39 -79 59 -19 20 -43
36 -54 36 -10 0 -16 -4 -12 -9 7 -12 -33 -5 -49 8 -6 5 -30 35 -51 65 -23 31
-57 63 -80 75 -170 89 -224 131 -228 179 -1 17 -11 25 -42 33 -22 6 -60 26
-85 44 -25 18 -59 36 -76 39 -32 7 -63 36 -104 95 -13 18 -39 40 -59 48 -20 9
-52 28 -73 44 -39 31 -107 64 -115 55 -3 -3 5 -19 17 -36 21 -29 21 -35 10
-70 -11 -35 -11 -42 8 -72 12 -18 31 -52 41 -75 18 -39 30 -47 138 -102 102
-51 130 -70 205 -145 61 -61 94 -86 111 -86 23 0 55 -20 102 -63 11 -10 34
-27 52 -38 18 -11 42 -36 54 -55 26 -42 67 -82 92 -90 10 -3 27 2 37 11 18 16
20 15 50 -15 23 -23 29 -35 21 -43 -35 -35 12 -98 86 -116 24 -6 64 -27 89
-46 25 -19 53 -35 63 -35 27 0 60 -28 81 -70 22 -43 71 -83 105 -84 12 -1 33
-9 46 -18 24 -17 24 -17 -9 -6 -31 10 -36 8 -58 -16 -29 -30 -35 -31 -75 -10
-36 18 -54 8 -63 -36 -5 -30 -6 -30 -68 -27 -50 2 -63 -1 -63 -13 -1 -8 3 -21
8 -27 7 -10 2 -12 -21 -7 -23 5 -41 0 -69 -17 -31 -19 -51 -23 -123 -24 l-85
0 -3 -28 c-3 -23 -12 -32 -50 -49 -60 -26 -84 -26 -118 1 -40 32 -56 28 -49
-12 9 -45 -12 -62 -63 -52 -43 8 -72 8 -80 1 -3 -3 1 -24 8 -46 7 -22 10 -43
7 -47 -4 -4 -25 3 -46 15 -48 27 -63 27 -86 2 -13 -15 -31 -20 -67 -20 -39 0
-54 -5 -74 -25 -14 -14 -49 -32 -77 -40 -29 -7 -66 -18 -82 -23 -35 -11 -70
-1 -79 23 -9 24 1 35 34 35 42 0 44 14 10 54 l-31 35 25 17 c33 21 33 43 1 90
-23 34 -24 38 -10 71 21 51 19 72 -17 148 l-31 68 22 18 c12 10 30 16 39 13
14 -5 15 -4 2 5 -8 6 -11 11 -6 11 5 0 -3 9 -18 21 -35 28 -34 54 4 68 37 12
37 26 0 75 l-29 39 19 25 c26 32 25 82 -1 135 -33 63 -38 90 -24 118 11 19 11
28 -1 51 -20 39 -18 46 22 63 33 13 35 17 23 32 -8 10 -24 26 -36 36 -30 24
-29 44 2 69 33 26 32 67 -1 138 -23 50 -29 80 -22 120 1 8 -2 32 -6 53 -8 37
6 73 24 62 4 -3 10 1 13 9 3 8 -9 27 -28 45 -39 35 -37 54 4 75 17 9 27 23 29
40 2 29 -8 32 -54 12z"/>
</g>
</svg>
