<?xml version="1.0" standalone="no"?>
<!DOCTYPE svg PUBLIC "-//W3C//DTD SVG 20010904//EN"
 "http://www.w3.org/TR/2001/REC-SVG-20010904/DTD/svg10.dtd">
<svg version="1.0" xmlns="http://www.w3.org/2000/svg"
 width="558.000000pt" height="558.000000pt" viewBox="0 0 558.000000 558.000000"
 preserveAspectRatio="xMidYMid meet">
<metadata>
Created by potrace 1.13, written by Peter Selinger 2001-2015
</metadata>
<g transform="translate(0.000000,558.000000) scale(0.100000,-0.100000)"
fill="#000000" stroke="none">
<path d="M2305 4652 c4 -9 14 -37 22 -62 9 -25 24 -54 35 -66 18 -20 18 -21
-2 -46 -29 -37 -25 -53 21 -103 26 -28 42 -55 43 -74 1 -16 -1 -28 -5 -26 -19
12 11 -148 52 -273 16 -48 19 -69 11 -91 -6 -16 -8 -32 -5 -35 14 -13 56 -145
58 -181 2 -22 3 -45 4 -52 1 -6 16 -30 35 -52 44 -52 51 -76 34 -104 -23 -36
-22 -93 1 -131 20 -32 24 -96 8 -123 -4 -6 -41 -13 -84 -16 -66 -5 -80 -9 -93
-28 -8 -12 -35 -43 -58 -68 -24 -25 -50 -57 -57 -71 -7 -14 -22 -34 -34 -44
-25 -23 -27 -44 -5 -74 18 -27 11 -28 -24 -4 -29 19 -35 20 -69 8 -23 -7 -91
6 -131 27 -13 6 -35 31 -49 54 -25 44 -60 60 -50 24 6 -24 -10 -51 -31 -51
-10 0 -33 11 -52 24 -34 23 -167 96 -174 96 -2 0 -2 -8 0 -17 9 -38 -10 -47
-62 -29 -26 9 -59 16 -73 16 -13 0 -49 17 -78 37 -49 34 -57 36 -84 26 -32
-12 -53 -7 -187 43 -34 13 -69 24 -78 24 -35 0 -126 33 -153 56 -16 13 -33 24
-39 24 -22 0 -21 -34 2 -73 13 -23 27 -57 31 -75 6 -30 4 -33 -29 -47 -20 -9
-36 -19 -36 -23 0 -4 11 -24 25 -44 27 -39 31 -63 15 -73 -15 -9 -12 -53 6
-80 13 -19 13 -28 3 -47 -7 -13 -20 -29 -30 -35 -16 -12 -15 -18 18 -82 40
-78 39 -108 -5 -113 -22 -2 -27 -7 -24 -28 1 -13 11 -34 22 -45 23 -25 24 -41
6 -75 -13 -22 -11 -30 9 -71 36 -69 71 -77 137 -29 37 27 44 29 62 17 47 -30
55 -28 66 15 11 40 12 40 52 35 31 -4 47 -1 67 14 25 19 29 19 71 4 50 -18 72
-14 69 12 -3 37 0 40 49 35 42 -4 51 -1 79 25 23 22 33 26 37 17 9 -24 77 -16
131 16 28 16 62 30 77 30 15 0 39 4 53 10 20 8 36 6 68 -9 l42 -20 5 47 c6 59
29 65 95 27 52 -31 72 -28 86 14 12 33 38 48 51 29 4 -7 12 -27 17 -45 5 -18
19 -46 30 -62 14 -19 20 -41 18 -67 -2 -37 0 -39 63 -76 36 -21 85 -54 109
-74 43 -36 44 -37 71 -20 44 26 53 21 45 -24 -5 -28 -2 -46 9 -62 22 -32 20
-38 -13 -38 -28 0 -64 -24 -58 -38 1 -4 16 -32 32 -63 25 -48 27 -59 16 -73
-7 -9 -20 -16 -28 -16 -9 0 -11 -5 -7 -12 5 -9 2 -9 -9 1 -15 12 -17 11 -17
-2 0 -9 -8 -33 -19 -54 -16 -33 -18 -49 -10 -128 l9 -90 -28 -26 c-23 -20 -27
-30 -21 -52 4 -15 3 -25 -1 -22 -12 7 -21 -48 -17 -110 2 -50 2 -50 -31 -53
-43 -4 -49 -23 -22 -67 20 -32 21 -41 12 -78 -6 -23 -16 -69 -22 -102 -7 -33
-19 -67 -26 -76 -16 -18 -13 -53 7 -91 6 -12 8 -20 4 -15 -12 10 -55 -33 -55
-54 0 -10 10 -34 22 -54 18 -31 23 -34 30 -20 5 9 7 23 4 32 -5 13 0 14 28 9
19 -4 45 -1 59 5 20 9 35 8 69 -4 23 -8 66 -20 95 -27 46 -10 56 -9 82 6 29
17 30 17 79 -15 57 -37 82 -33 82 11 0 27 2 30 26 24 14 -4 42 -2 61 5 28 9
42 8 71 -4 21 -8 63 -20 94 -27 50 -10 60 -9 83 6 25 16 28 16 56 0 16 -10 29
-12 29 -7 0 6 -3 11 -7 11 -16 1 -46 53 -60 103 -17 60 -17 63 -10 99 5 23 -2
33 -49 73 -65 56 -71 85 -20 85 63 0 61 6 -78 209 -17 26 -25 46 -19 48 6 2
21 13 33 23 19 16 21 24 12 48 -5 16 -6 35 -2 42 4 7 5 20 3 30 -5 20 -73 86
-74 73 0 -5 -4 1 -8 12 -5 12 -3 32 4 51 12 28 11 34 -11 60 -24 30 -31 59
-15 68 18 11 -1 45 -40 70 -63 42 -71 77 -17 81 27 2 29 9 17 46 -6 19 -36 57
-65 85 -59 54 -65 69 -34 79 11 3 20 10 20 15 0 4 10 10 21 13 15 4 20 11 15
23 -5 14 -1 15 39 10 80 -12 87 -5 121 124 20 78 26 85 53 71 17 -10 23 -7 38
16 11 17 17 43 16 70 -2 48 5 51 61 28 20 -8 36 -13 36 -10 0 3 22 -6 48 -19
35 -18 52 -22 65 -14 28 15 54 0 82 -47 32 -56 60 -61 51 -11 -5 28 -3 37 12
45 20 11 30 5 124 -63 44 -32 53 -34 115 -32 38 1 78 -4 91 -10 12 -6 39 -9
60 -7 28 3 45 -2 71 -21 24 -18 48 -26 76 -26 28 0 52 -8 74 -24 27 -20 36
-22 61 -13 22 8 37 7 67 -5 21 -9 57 -19 79 -21 26 -3 65 -20 105 -46 34 -22
67 -41 71 -41 5 0 22 7 38 15 16 8 35 14 42 13 7 -2 12 11 13 37 1 22 7 61 15
87 l14 46 -43 56 c-54 70 -51 91 13 82 54 -8 63 7 33 55 -30 49 -40 166 -20
242 15 56 15 59 -6 88 -11 16 -31 42 -42 58 -32 44 -20 64 35 56 24 -4 46 -3
49 2 4 6 -5 31 -18 56 -14 25 -25 56 -25 69 0 18 -2 20 -12 9 -13 -12 -14 -16
-17 -47 -1 -14 -11 -16 -63 -11 -35 3 -73 7 -85 10 -16 4 -30 -3 -51 -27 -30
-34 -56 -49 -66 -38 -12 12 -41 11 -51 -1 -17 -22 -41 -26 -81 -12 -34 11 -44
11 -84 -5 -25 -10 -46 -24 -46 -31 -1 -8 -2 -19 -3 -26 -2 -23 -40 -24 -82 -3
-52 27 -86 20 -95 -18 -10 -42 -13 -43 -57 -21 -23 12 -57 24 -75 26 -29 4
-34 1 -43 -25 -11 -31 -32 -42 -82 -42 -16 0 -38 -5 -50 -12 -35 -19 -44 -18
-71 13 -32 36 -50 38 -42 5 7 -29 -15 -56 -46 -56 -11 0 -38 5 -60 12 -48 14
-61 2 -47 -46 14 -47 12 -48 -40 -19 l-49 28 -24 -23 c-33 -30 -43 -28 -68 13
-20 32 -21 38 -7 53 15 17 15 48 0 63 -5 5 -26 11 -48 15 -52 8 -58 13 -96 90
-32 64 -33 64 -75 64 -38 0 -45 4 -59 30 -25 49 -20 66 27 75 29 6 39 24 32
57 -3 17 1 39 12 58 15 25 16 35 6 63 -19 52 -15 66 21 75 l32 8 0 87 0 86 38
35 c29 27 37 40 32 56 -3 11 -1 35 6 54 10 27 10 44 1 72 -13 45 -4 67 37 83
42 18 55 89 26 141 -31 54 -14 84 41 74 39 -7 45 12 22 73 l-20 54 25 37 c14
20 28 48 32 61 4 14 16 38 26 55 11 17 19 46 19 64 0 26 -5 35 -26 42 -41 16
-49 12 -49 -22 0 -45 -24 -47 -85 -8 -45 29 -53 31 -83 21 -26 -9 -41 -9 -63
0 -16 7 -82 13 -146 14 l-118 2 0 -33 c0 -45 -26 -45 -86 -2 -42 30 -46 31
-82 19 -30 -10 -44 -11 -60 -2 -12 6 -54 13 -93 16 -63 3 -70 2 -64 -13z"/>
</g>
</svg>
