<?xml version="1.0" standalone="no"?>
<!DOCTYPE svg PUBLIC "-//W3C//DTD SVG 20010904//EN"
 "http://www.w3.org/TR/2001/REC-SVG-20010904/DTD/svg10.dtd">
<svg version="1.0" xmlns="http://www.w3.org/2000/svg"
 width="558.000000pt" height="558.000000pt" viewBox="0 0 558.000000 558.000000"
 preserveAspectRatio="xMidYMid meet">
<metadata>
Created by potrace 1.13, written by Peter Selinger 2001-2015
</metadata>
<g transform="translate(0.000000,558.000000) scale(0.100000,-0.100000)"
fill="#000000" stroke="none">
<path d="M1935 4039 c-468 -346 -850 -635 -850 -641 0 -7 56 -34 123 -60 l124
-48 381 292 c210 161 504 386 652 499 l270 208 3 -360 c1 -197 1 -520 0 -717
l-3 -359 -225 49 c-853 187 -1555 337 -1558 334 -4 -4 608 -2157 615 -2166 4
-5 63 55 182 184 51 56 62 74 58 95 -2 14 -34 121 -70 236 -313 1000 -415
1330 -412 1333 6 6 1405 -293 1405 -300 0 -4 -163 -272 -363 -595 -470 -761
-677 -1100 -677 -1107 0 -3 486 -6 1081 -6 901 0 1080 2 1076 13 -3 8 -42 64
-87 125 l-82 112 -823 2 -822 3 421 643 421 643 25 -32 c14 -18 283 -364 599
-768 659 -845 580 -746 586 -739 8 8 626 2149 623 2157 -2 5 -59 -19 -128 -53
l-125 -61 -18 -55 c-14 -41 -456 -1436 -470 -1484 -2 -7 -988 1184 -994 1202
-2 4 412 141 920 306 507 164 926 302 930 306 5 4 -67 63 -160 130 -500 367
-721 528 -1148 840 -258 189 -476 347 -482 353 -10 7 -13 -16 -13 -111 l0
-120 695 -508 c382 -279 694 -509 692 -510 -5 -6 -1423 -517 -1436 -518 -18
-1 -17 -9 -25 289 -4 143 -9 289 -11 325 -2 36 -7 166 -10 290 -3 124 -8 261
-10 305 -2 44 -7 188 -10 320 -7 253 -12 345 -17 351 -2 2 -386 -280 -853
-627z"/>
</g>
</svg>
