<?xml version="1.0" standalone="no"?>
<!DOCTYPE svg PUBLIC "-//W3C//DTD SVG 20010904//EN"
 "http://www.w3.org/TR/2001/REC-SVG-20010904/DTD/svg10.dtd">
<svg version="1.0" xmlns="http://www.w3.org/2000/svg"
 width="512.000000pt" height="512.000000pt" viewBox="0 0 512.000000 512.000000"
 preserveAspectRatio="xMidYMid meet">
<metadata>
Created by potrace 1.13, written by Peter Selinger 2001-2015
</metadata>
<g transform="translate(0.000000,512.000000) scale(0.100000,-0.100000)"
fill="#000000" stroke="none">
<path d="M3779 4820 c-13 -11 -28 -24 -34 -30 -5 -6 -20 -21 -33 -33 -12 -12
-37 -37 -55 -55 -17 -18 -63 -64 -101 -102 -97 -98 -136 -105 -156 -28 -24 92
-35 123 -47 123 -22 0 -105 -87 -125 -131 -6 -13 -15 -24 -20 -24 -4 0 -8 -6
-8 -13 0 -8 -9 -24 -20 -37 -11 -13 -20 -27 -20 -31 0 -4 -6 -14 -14 -21 -8
-8 -25 -37 -39 -65 -41 -81 -73 -113 -112 -113 -19 0 -37 5 -40 10 -11 17 -39
10 -56 -13 -21 -29 -90 -183 -100 -222 -11 -45 -58 -175 -77 -212 -21 -41 -54
-44 -70 -8 -7 14 -12 30 -12 35 0 5 -5 21 -11 37 l-11 28 -13 -25 c-15 -28
-41 -168 -53 -275 -6 -61 -10 -70 -28 -73 -25 -4 -33 13 -64 143 -12 50 -31
119 -42 155 -31 97 -47 111 -68 60 -14 -33 -49 -41 -70 -15 -19 23 -75 144
-110 240 -18 50 -36 92 -40 95 -3 3 -17 31 -29 63 -13 31 -26 57 -30 57 -3 0
-15 16 -25 34 -10 19 -29 45 -41 56 l-23 22 -24 -49 c-20 -39 -30 -49 -54 -51
-31 -3 -59 22 -164 148 -58 69 -113 124 -144 144 -29 18 -29 18 -47 -5 -10
-13 -21 -35 -24 -49 -4 -14 -11 -31 -17 -37 -17 -20 -68 -15 -97 10 -15 12
-40 31 -55 42 -16 11 -44 35 -63 53 -31 31 -124 82 -149 82 -6 0 -17 -7 -24
-16 -11 -12 -11 -27 0 -82 7 -37 19 -80 26 -97 29 -69 84 -263 84 -297 0 -41
-7 -48 -65 -63 -43 -12 -56 -38 -37 -79 5 -12 22 -49 37 -83 16 -35 32 -63 36
-63 3 0 12 -14 19 -31 7 -17 19 -36 26 -43 25 -25 85 -156 82 -179 -4 -30 -34
-33 -119 -12 -39 10 -73 15 -76 12 -6 -7 29 -78 52 -104 65 -74 113 -126 136
-149 72 -74 99 -114 99 -146 0 -21 -6 -29 -25 -34 -21 -5 -23 -10 -18 -37 3
-18 16 -48 29 -68 13 -19 24 -43 24 -52 0 -25 -78 -22 -203 7 -224 54 -389 77
-401 58 -4 -6 7 -30 24 -54 60 -82 31 -104 -159 -118 -136 -10 -178 -17 -198
-33 -19 -14 -17 -21 22 -67 42 -50 45 -83 10 -106 -14 -9 -108 -32 -208 -50
-176 -32 -231 -45 -289 -66 -23 -8 -28 -17 -28 -42 0 -28 5 -34 35 -46 23 -9
39 -24 47 -44 8 -23 27 -39 72 -61 l61 -31 0 -60 c0 -74 11 -89 78 -108 49
-14 96 -20 342 -46 163 -17 182 -49 84 -137 -87 -79 -46 -86 274 -52 225 25
247 22 247 -32 l0 -32 53 6 c52 6 125 25 202 54 22 9 54 19 70 23 17 5 62 20
100 34 86 31 115 33 115 7 0 -11 -7 -26 -15 -33 -30 -27 -44 -38 -50 -38 -4 0
-13 -6 -20 -12 -30 -27 -44 -38 -50 -38 -3 0 -21 -15 -40 -33 -18 -17 -47 -43
-64 -57 -58 -46 -78 -66 -95 -93 l-17 -26 43 -3 c38 -3 43 -6 46 -30 3 -27
-40 -108 -57 -108 -6 0 -12 -8 -15 -17 -3 -10 -19 -34 -36 -53 -17 -19 -33
-43 -36 -52 -3 -10 -9 -18 -14 -18 -12 0 -63 -110 -55 -118 3 -4 21 -5 40 -3
52 4 75 -7 75 -35 0 -27 -59 -164 -70 -164 -4 0 -14 -15 -21 -32 -7 -18 -19
-39 -26 -46 -7 -7 -13 -20 -13 -28 0 -8 -4 -14 -8 -14 -4 0 -14 -17 -21 -37
-8 -21 -17 -40 -21 -43 -11 -7 -60 -128 -72 -176 -17 -65 -9 -74 67 -74 101 0
101 0 45 -298 -12 -62 -20 -120 -18 -127 2 -11 16 -6 53 18 28 17 52 36 54 40
1 4 9 13 17 20 8 7 62 58 121 115 82 79 112 102 133 102 39 0 48 -16 64 -108
8 -45 17 -86 21 -91 9 -16 58 12 80 46 10 15 22 32 27 38 5 5 17 21 28 34 11
13 22 32 25 42 4 11 10 19 15 19 5 0 12 9 15 20 3 11 12 26 19 32 7 7 25 34
40 60 32 55 79 98 106 98 11 0 30 -12 43 -26 21 -22 28 -24 46 -15 11 7 21 16
21 22 0 5 12 27 26 49 15 22 39 75 54 117 82 227 90 243 125 243 23 0 33 -19
65 -123 6 -20 16 -35 21 -32 12 8 47 125 55 187 8 61 29 98 54 98 30 0 39 -19
86 -175 30 -100 62 -175 74 -175 5 0 19 21 32 48 33 67 57 68 101 3 19 -28 51
-95 73 -149 21 -53 42 -99 45 -102 3 -3 16 -27 28 -55 12 -27 25 -52 29 -55 5
-3 20 -26 35 -52 15 -27 32 -49 37 -49 6 -1 15 -2 21 -3 6 -1 22 24 37 54 23
47 32 55 57 58 25 2 39 -7 90 -58 33 -34 88 -90 123 -125 96 -98 117 -97 146
7 13 45 22 59 40 64 24 6 101 -26 108 -45 1 -5 42 -22 90 -39 95 -33 108 -30
108 22 0 40 -34 159 -71 248 -47 112 -69 187 -69 232 0 50 6 58 48 75 20 9 32
20 32 32 0 23 -60 159 -70 159 -4 0 -10 10 -14 23 -3 13 -14 34 -26 48 -11 13
-24 29 -28 35 -5 5 -15 21 -22 35 -7 13 -16 26 -20 29 -15 10 -70 128 -70 150
0 22 3 23 58 17 31 -3 67 -9 80 -13 28 -8 28 6 -1 48 -33 49 -40 57 -184 203
-103 103 -133 139 -133 159 0 15 7 29 15 32 8 4 15 13 15 21 0 11 7 13 26 9
l26 -7 -21 27 c-12 15 -21 35 -21 45 0 32 76 24 245 -26 156 -46 350 -81 391
-71 l24 6 -20 33 c-25 40 -26 82 -2 92 9 4 91 11 182 15 151 8 211 17 240 35
11 7 -8 44 -37 73 -7 7 -13 25 -13 38 0 44 46 58 335 104 72 12 163 31 203 43
70 21 72 23 72 54 0 23 -6 33 -20 38 -11 3 -30 24 -44 47 -16 26 -38 47 -65
59 -57 25 -70 57 -49 116 20 55 16 67 -26 87 -43 20 -101 32 -271 55 -173 23
-195 31 -195 68 0 20 16 44 62 90 50 51 60 65 50 75 -15 16 -124 17 -333 4
-131 -8 -147 -7 -162 9 -13 12 -16 26 -11 51 5 26 2 35 -10 40 -28 11 -127
-10 -326 -70 -202 -60 -211 -19 -31 134 50 42 51 43 101 100 22 25 40 49 40
54 0 5 -21 6 -47 3 -54 -6 -83 5 -83 31 0 17 103 181 120 192 15 9 72 131 65
138 -4 4 -37 7 -73 7 -65 0 -67 1 -70 26 -3 26 54 169 67 169 4 0 15 23 26 50
11 28 22 50 26 50 3 0 14 21 24 48 10 26 22 50 27 53 11 7 46 108 54 156 8 49
-2 54 -72 40 -67 -14 -102 -4 -110 30 -4 15 2 85 15 158 22 136 27 220 12 229
-4 3 -19 -3 -32 -14z"/>
</g>
</svg>
