<?xml version="1.0" standalone="no"?>
<!DOCTYPE svg PUBLIC "-//W3C//DTD SVG 20010904//EN"
 "http://www.w3.org/TR/2001/REC-SVG-20010904/DTD/svg10.dtd">
<svg version="1.0" xmlns="http://www.w3.org/2000/svg"
 width="558.000000pt" height="558.000000pt" viewBox="0 0 558.000000 558.000000"
 preserveAspectRatio="xMidYMid meet">
<metadata>
Created by potrace 1.13, written by Peter Selinger 2001-2015
</metadata>
<g transform="translate(0.000000,558.000000) scale(0.100000,-0.100000)"
fill="#000000" stroke="none">
<path d="M2455 4538 c-239 -13 -533 -58 -520 -79 4 -5 0 -7 -7 -4 -7 3 -263 7
-568 9 -305 3 -595 8 -643 11 l-89 6 3 -126 c4 -194 44 -397 100 -507 15 -30
16 -37 4 -42 -8 -3 -28 -24 -45 -47 -49 -68 -40 -143 24 -187 64 -44 157 -34
239 24 26 19 53 34 60 34 6 0 20 7 29 14 38 29 268 9 268 -23 0 -5 28 -12 63
-16 34 -4 69 -9 77 -10 30 -6 237 -16 420 -20 172 -4 284 -10 370 -20 19 -2
64 -7 100 -10 36 -4 115 -15 175 -26 61 -10 115 -19 120 -19 6 0 16 -4 24 -9
26 -16 -85 -193 -244 -388 -217 -265 -331 -475 -390 -713 -45 -181 -60 -316
-59 -525 3 -495 200 -1076 408 -1204 55 -35 104 -33 188 5 119 55 202 48 407
-34 115 -47 129 -49 175 -27 95 45 105 260 31 625 -7 33 -52 285 -61 335 -13
80 -11 366 3 444 17 96 55 220 90 297 14 32 27 61 28 64 1 3 47 97 103 209 64
129 116 251 143 335 24 72 44 133 46 135 2 3 21 -5 42 -17 59 -33 160 -69 231
-82 64 -12 235 -15 280 -6 14 3 50 11 80 17 191 37 416 156 465 246 10 17 32
48 50 67 38 42 80 47 123 16 58 -43 129 -31 197 31 94 87 117 221 53 311 -19
27 -19 28 1 135 11 59 23 126 26 148 9 60 16 513 9 542 -7 25 -8 25 -68 19
-96 -10 -129 -16 -276 -45 -58 -12 -118 -26 -135 -31 -16 -5 -41 -11 -55 -14
-14 -2 -63 -14 -110 -26 -69 -18 -101 -21 -175 -16 -117 8 -214 19 -272 30
-12 3 -53 8 -90 11 -37 4 -76 9 -85 10 -9 2 -48 7 -85 10 -37 4 -77 9 -88 11
-11 2 -40 7 -65 10 -72 9 -223 33 -250 39 -40 8 -140 23 -205 31 -33 3 -67 8
-75 9 -8 2 -44 6 -80 10 -36 4 -73 9 -83 11 -10 1 -73 6 -140 9 -67 4 -133 8
-147 9 -14 0 -79 -2 -145 -6z"/>
</g>
</svg>
