<?xml version="1.0" standalone="no"?>
<!DOCTYPE svg PUBLIC "-//W3C//DTD SVG 20010904//EN"
 "http://www.w3.org/TR/2001/REC-SVG-20010904/DTD/svg10.dtd">
<svg version="1.0" xmlns="http://www.w3.org/2000/svg"
 width="512.000000pt" height="512.000000pt" viewBox="0 0 512.000000 512.000000"
 preserveAspectRatio="xMidYMid meet">
<metadata>
Created by potrace 1.13, written by Peter Selinger 2001-2015
</metadata>
<g transform="translate(0.000000,512.000000) scale(0.100000,-0.100000)"
fill="#000000" stroke="none">
<path d="M3306 4935 c-7 -37 -12 -40 -35 -26 -26 17 -51 -6 -51 -47 0 -53 -9
-61 -65 -59 l-50 2 -2 -45 c-1 -25 -2 -51 -2 -57 -1 -8 -15 -13 -36 -13 -33 0
-35 -2 -35 -35 0 -37 -7 -41 -75 -47 -29 -3 -30 -4 -30 -58 0 -54 -1 -55 -35
-66 -41 -14 -46 -25 -25 -58 23 -34 12 -46 -41 -46 -53 0 -62 -14 -47 -72 12
-43 5 -52 -37 -52 -23 -1 -25 -5 -25 -48 0 -64 -22 -87 -68 -70 -18 7 -36 12
-40 12 -16 0 -5 -34 19 -63 27 -32 26 -74 -2 -90 -20 -11 -44 -62 -42 -89 0
-13 -10 -42 -23 -65 l-25 -41 -59 39 c-33 21 -63 39 -67 39 -5 0 -8 -12 -8
-27 0 -16 -7 -37 -15 -47 -13 -18 -19 -19 -48 -8 -38 14 -77 16 -77 4 0 -4 -9
-13 -19 -19 -16 -10 -27 -9 -58 7 -38 19 -38 19 -47 -3 -14 -32 -14 -32 -36
-12 -34 31 -20 55 32 55 17 0 18 2 8 15 -7 9 -15 13 -18 11 -2 -3 -21 5 -41
18 -20 12 -58 33 -84 45 -53 25 -62 55 -17 56 43 0 28 27 -37 65 -89 50 -123
84 -123 120 0 26 -4 30 -27 30 -17 0 -46 17 -82 48 -31 26 -79 58 -106 70 -28
13 -55 33 -60 45 -6 13 -23 24 -40 28 -55 11 -73 21 -79 43 -3 11 -22 38 -43
58 -33 32 -46 38 -96 42 -32 2 -76 14 -97 25 -22 11 -59 23 -82 26 -24 2 -65
11 -93 19 -27 7 -54 11 -58 9 -5 -3 -6 -27 -2 -54 7 -53 6 -54 -70 -61 -25 -3
-30 -7 -29 -28 1 -14 5 -33 9 -43 7 -17 3 -18 -38 -16 -54 3 -77 -12 -77 -52
0 -24 -7 -31 -45 -48 -48 -21 -51 -27 -34 -65 19 -41 6 -56 -36 -45 -20 6 -45
7 -56 4 -22 -7 -22 -33 -3 -109 l7 -29 -47 7 c-51 8 -56 1 -26 -37 12 -15 20
-40 20 -65 0 -37 34 -101 47 -88 3 3 14 1 25 -5 20 -11 20 -11 -1 -25 -35 -25
-28 -70 19 -117 39 -39 40 -40 20 -54 -22 -16 -27 -57 -8 -70 7 -4 31 -13 52
-18 28 -8 45 -20 56 -40 9 -17 26 -34 37 -40 22 -9 43 -44 43 -69 0 -8 7 -19
15 -26 8 -7 15 -25 15 -40 0 -33 28 -60 61 -60 16 0 38 -16 68 -51 40 -46 44
-49 60 -35 10 9 22 16 28 16 6 0 31 -28 56 -62 46 -65 76 -96 162 -169 54 -45
85 -89 85 -118 0 -22 -31 -59 -46 -54 -13 5 -44 -56 -44 -87 0 -12 4 -29 9
-38 4 -9 11 -45 14 -79 6 -57 5 -63 -12 -63 -10 0 -28 -9 -41 -20 -24 -21 -82
-36 -99 -25 -6 3 -15 -5 -21 -19 -11 -29 -46 -41 -90 -32 -43 8 -81 -11 -76
-39 2 -12 0 -28 -5 -36 -5 -8 -9 -10 -9 -5 0 5 -9 1 -20 -9 -20 -18 -43 -18
-122 1 -27 6 -28 5 -28 -40 0 -40 -3 -46 -25 -52 -14 -3 -34 -4 -45 -1 -30 8
-42 -14 -29 -52 6 -18 8 -35 5 -38 -4 -4 -27 -2 -52 5 -71 19 -102 -7 -84 -69
12 -42 7 -46 -36 -30 -31 11 -38 11 -54 -4 -10 -9 -20 -29 -23 -44 -5 -24 -12
-29 -46 -35 -45 -7 -66 -33 -59 -71 4 -20 2 -22 -21 -18 -14 2 -27 6 -30 9
-12 11 -31 -23 -31 -56 0 -47 -19 -64 -60 -55 -66 15 -80 -42 -25 -102 27 -29
34 -45 32 -68 -5 -41 46 -150 94 -202 22 -24 39 -48 39 -56 0 -7 9 -31 21 -52
11 -22 22 -48 24 -57 2 -10 18 -38 34 -62 17 -25 31 -50 31 -56 0 -32 36 -83
71 -100 67 -34 98 -19 77 37 -8 25 -1 53 13 53 5 0 32 -18 60 -40 28 -22 55
-40 60 -40 10 0 51 22 59 31 10 12 55 23 87 20 17 -1 45 5 62 14 28 14 34 14
53 0 31 -21 35 -19 41 15 9 40 43 48 95 21 23 -12 48 -21 57 -21 25 0 29 29
11 67 l-17 36 42 -7 c35 -6 48 -3 80 19 30 21 41 24 57 16 22 -12 82 3 82 20
0 5 16 15 36 24 39 16 73 51 74 76 0 13 15 18 71 23 76 8 85 14 146 94 38 48
71 44 137 -18 43 -41 59 -50 80 -46 16 3 38 -4 61 -20 20 -13 46 -26 60 -30
25 -6 105 -70 105 -84 0 -5 -17 -10 -37 -12 -50 -4 -53 -25 -13 -80 18 -25 29
-50 26 -61 -2 -10 2 -43 10 -74 8 -30 12 -58 9 -63 -3 -5 -8 -27 -11 -50 -5
-34 0 -53 27 -106 28 -56 31 -68 20 -90 -10 -22 -7 -31 19 -69 16 -24 30 -47
30 -51 0 -4 10 -28 22 -52 18 -38 19 -50 10 -74 -6 -16 -8 -37 -5 -46 6 -15
58 -87 73 -102 3 -3 7 -21 8 -40 1 -19 20 -71 41 -115 22 -44 42 -96 45 -115
3 -20 20 -51 37 -69 26 -29 34 -32 62 -26 36 9 50 9 127 -2 30 -5 88 -7 128
-5 66 3 74 6 84 28 13 28 34 30 83 7 48 -23 70 -10 71 43 0 21 6 40 13 42 7 2
32 -10 56 -27 24 -17 48 -31 55 -31 20 0 119 52 124 65 2 7 1 30 -4 51 -10 43
-5 58 17 50 21 -8 43 11 43 38 1 11 7 39 15 61 13 35 12 42 -2 65 -49 75 -47
100 8 100 35 0 45 26 24 66 -17 34 -21 217 -5 259 11 29 3 51 -36 98 -35 42
-31 63 14 74 42 10 45 32 11 69 -10 11 -19 28 -19 37 0 9 -3 17 -7 17 -5 0 -9
37 -9 83 -1 45 -4 91 -7 102 -3 11 -6 34 -6 51 -1 19 -13 47 -32 70 -49 62
-51 69 -28 98 18 23 26 26 65 22 l45 -5 -6 29 c-7 33 15 84 44 99 13 7 24 6
42 -6 17 -13 21 -13 13 -3 -14 18 -3 53 24 71 11 8 34 35 51 61 42 62 50 59
132 -45 15 -19 16 -19 44 7 15 14 30 26 32 26 3 0 18 -13 34 -30 20 -20 38
-28 52 -26 12 3 23 5 25 7 1 1 5 2 10 3 4 1 13 5 21 10 11 7 27 -4 61 -42 46
-52 75 -63 98 -40 7 7 12 21 12 31 0 16 6 18 38 13 20 -2 54 -12 76 -21 22 -9
50 -14 65 -10 15 3 38 2 52 -3 18 -7 34 -5 62 10 l38 19 40 -35 c58 -53 66
-48 48 24 -3 13 11 15 86 14 50 0 101 -3 115 -7 14 -4 33 -1 46 8 12 8 36 12
54 10 24 -3 38 1 49 14 9 11 24 29 33 40 10 12 27 21 38 21 11 0 20 5 20 10 0
6 7 10 15 10 9 0 26 11 38 24 19 21 22 34 21 107 0 46 -2 89 -4 94 -1 6 -2 34
-1 63 l1 52 40 -6 c38 -6 40 -5 40 20 0 14 -11 44 -25 66 -32 50 -31 66 3 87
15 9 29 18 30 19 2 2 -8 33 -23 71 -14 37 -31 81 -37 96 -6 16 -39 58 -73 94
-59 64 -62 66 -92 56 -27 -10 -34 -8 -62 17 -17 16 -31 34 -31 40 0 7 -12 4
-30 -7 -28 -16 -32 -16 -56 -2 -15 9 -34 29 -43 45 -20 36 -51 66 -65 61 -6
-2 -13 -14 -16 -28 -3 -13 -11 -24 -18 -23 -7 1 -18 2 -26 3 -8 0 -36 24 -63
52 -26 28 -61 57 -76 65 -35 19 -67 10 -62 -16 2 -11 0 -22 -5 -25 -12 -7 -41
5 -35 15 3 5 -7 18 -21 29 -21 16 -30 18 -40 10 -8 -6 -14 -17 -14 -24 0 -32
-33 -23 -78 20 l-47 45 -20 -25 c-27 -33 -82 -33 -154 0 -35 17 -69 25 -95 24
-73 -4 -85 6 -109 83 -3 9 -31 35 -61 57 -79 58 -92 120 -21 98 43 -13 49 -7
34 27 -8 16 -32 36 -66 51 -56 27 -66 47 -33 65 11 6 23 22 26 35 3 14 22 38
41 54 47 39 81 109 78 160 -4 45 3 53 58 71 52 17 68 44 57 100 -5 25 -12 53
-15 62 -5 13 3 21 32 35 34 16 38 22 40 56 0 21 9 47 19 58 15 17 16 25 6 67
-9 40 -8 49 5 59 8 6 21 9 28 7 20 -8 27 30 21 107 -7 71 3 109 28 109 18 0
35 41 26 65 -4 11 -2 34 6 53 12 29 11 39 -1 69 -8 19 -15 48 -15 62 0 15 -11
42 -24 60 -13 18 -30 46 -36 62 -7 16 -15 30 -19 30 -3 1 -21 2 -38 4 -23 1
-48 16 -83 49 -54 51 -53 50 -80 36 -17 -9 -54 11 -85 46 -20 23 -48 31 -86
24 -35 -7 -51 -1 -137 41 -53 27 -100 49 -103 49 -4 0 -10 -16 -13 -35z"/>
</g>
</svg>
