<?xml version="1.0" standalone="no"?>
<!DOCTYPE svg PUBLIC "-//W3C//DTD SVG 20010904//EN"
 "http://www.w3.org/TR/2001/REC-SVG-20010904/DTD/svg10.dtd">
<svg version="1.0" xmlns="http://www.w3.org/2000/svg"
 width="512.000000pt" height="512.000000pt" viewBox="0 0 512.000000 512.000000"
 preserveAspectRatio="xMidYMid meet">
<metadata>
Created by potrace 1.13, written by Peter Selinger 2001-2015
</metadata>
<g transform="translate(0.000000,512.000000) scale(0.100000,-0.100000)"
fill="#000000" stroke="none">
<path d="M1765 4910 c-4 -27 -4 -54 0 -60 3 -5 3 -10 -2 -10 -10 0 -7 -113 5
-199 6 -36 11 -81 11 -99 1 -19 8 -46 15 -60 8 -15 19 -52 25 -82 6 -30 18
-68 26 -83 8 -15 17 -43 21 -62 3 -19 10 -35 15 -35 5 0 9 -6 9 -12 0 -7 14
-40 30 -73 16 -33 30 -66 30 -72 0 -7 5 -13 10 -13 6 0 10 -9 10 -20 0 -11 4
-20 8 -20 4 0 14 -16 21 -35 7 -19 16 -35 20 -35 5 0 11 -8 14 -17 4 -10 22
-45 42 -78 20 -33 41 -72 48 -87 6 -16 15 -28 19 -28 4 0 8 -7 8 -15 0 -7 6
-18 13 -22 6 -4 25 -33 41 -63 16 -30 36 -63 44 -73 35 -40 -20 -32 -71 11
-18 15 -39 32 -48 37 -9 6 -42 27 -73 48 -31 20 -59 37 -62 37 -3 0 -20 10
-37 22 -18 13 -34 22 -37 22 -9 -2 -34 7 -80 31 -25 12 -63 28 -85 35 -22 7
-44 16 -50 20 -5 4 -26 11 -45 15 -19 4 -39 10 -45 14 -38 23 -448 116 -560
127 -33 3 -62 7 -66 9 -3 2 -30 7 -60 10 -30 3 -65 8 -79 10 -43 7 -183 24
-240 30 -30 3 -63 8 -73 11 -14 5 -16 2 -8 -19 14 -35 71 -127 80 -127 4 0 14
-12 22 -27 13 -26 194 -213 206 -213 5 0 61 -45 94 -75 9 -8 21 -15 28 -15 6
0 14 -6 17 -14 3 -8 19 -20 35 -26 16 -7 29 -16 29 -20 0 -5 13 -11 29 -15 16
-3 37 -15 47 -26 9 -10 23 -19 31 -19 7 0 25 -7 38 -16 13 -9 30 -17 38 -18 8
-1 22 -9 31 -19 16 -15 32 -21 39 -15 1 2 16 -7 34 -20 17 -12 35 -22 40 -22
5 0 34 -12 63 -26 30 -14 65 -28 77 -30 13 -3 43 -16 68 -30 25 -13 45 -22 45
-19 0 4 43 -15 99 -44 8 -4 16 -12 19 -19 2 -8 -28 -11 -101 -11 -57 0 -110
-3 -118 -5 -8 -3 -41 -7 -74 -10 -144 -12 -407 -80 -555 -143 -19 -8 -44 -19
-55 -23 -81 -34 -146 -63 -178 -80 -22 -11 -45 -20 -52 -20 -7 0 -15 -3 -17
-7 -1 -5 -46 -29 -98 -56 -122 -61 -248 -129 -280 -153 -8 -6 -31 -17 -50 -24
-19 -7 -44 -21 -55 -30 -11 -9 -28 -20 -38 -23 -9 -4 -17 -11 -17 -17 0 -9 58
-39 87 -45 6 -2 29 -9 50 -16 21 -7 42 -12 47 -11 4 2 13 -2 20 -7 6 -6 25
-12 41 -15 17 -3 41 -8 55 -11 71 -16 130 -20 285 -19 173 1 224 5 330 24 33
7 67 12 75 12 8 0 51 9 95 20 69 17 304 69 388 85 43 8 24 -22 -39 -62 -30
-19 -54 -39 -54 -45 0 -5 -6 -10 -13 -10 -7 0 -30 -17 -51 -37 -21 -21 -50
-47 -65 -58 -15 -11 -57 -54 -95 -95 -92 -102 -100 -111 -122 -145 -10 -16
-39 -57 -64 -90 -25 -33 -51 -72 -59 -87 -8 -15 -22 -37 -33 -47 -10 -11 -18
-24 -18 -29 0 -5 -9 -21 -21 -36 -11 -15 -22 -32 -23 -39 -1 -6 -5 -18 -10
-25 -5 -8 -26 -48 -48 -90 -22 -43 -44 -80 -49 -83 -5 -3 -11 -16 -14 -28 -2
-13 -16 -43 -30 -67 -14 -24 -23 -44 -21 -44 3 0 -8 -23 -25 -50 -17 -28 -32
-56 -33 -63 -3 -19 -37 -89 -59 -120 -10 -16 -16 -31 -13 -34 3 -3 1 -11 -4
-18 -5 -6 -16 -31 -24 -53 l-15 -42 27 6 c15 4 37 11 50 15 12 5 22 6 22 3 0
-4 6 -2 13 4 7 6 32 14 55 18 23 4 42 10 42 14 0 5 14 11 30 15 31 7 115 49
180 90 19 12 45 25 58 29 12 4 22 11 22 15 0 5 17 20 39 34 21 14 50 36 64 49
14 13 41 34 58 48 62 47 301 294 426 440 73 85 116 130 125 130 11 0 10 -37
-1 -44 -5 -3 -11 -16 -14 -28 -3 -13 -15 -54 -26 -93 -12 -38 -24 -83 -27 -99
-2 -16 -7 -33 -10 -37 -2 -4 -7 -27 -9 -51 -3 -24 -11 -90 -18 -148 -13 -109
-14 -292 -2 -440 4 -47 9 -101 10 -120 2 -19 10 -75 19 -124 8 -49 13 -92 11
-96 -3 -4 4 -41 14 -81 11 -41 22 -94 26 -119 4 -25 15 -89 26 -142 10 -53 20
-108 21 -122 1 -14 6 -26 10 -26 4 0 8 -12 8 -26 l0 -27 30 34 c16 19 38 43
49 54 10 11 29 40 41 63 13 24 29 46 36 49 8 3 12 9 9 13 -3 4 2 13 10 20 8 7
15 18 15 25 0 7 7 18 15 25 8 6 14 15 13 18 -1 4 4 19 10 35 19 43 33 82 34
87 0 3 5 11 11 18 6 8 11 21 12 31 1 15 19 75 47 156 6 17 10 39 10 50 -1 10
4 25 10 32 6 8 8 16 5 19 -3 3 -2 16 3 28 4 12 11 50 14 85 4 35 8 67 10 70 3
3 7 35 11 71 3 36 8 72 10 80 4 16 16 119 20 185 3 36 6 66 19 168 2 15 6 30
9 33 10 10 27 -6 27 -25 0 -28 28 -120 70 -226 21 -54 77 -163 97 -191 13 -17
23 -34 23 -37 0 -14 88 -142 140 -204 5 -7 10 -15 10 -19 0 -12 114 -143 224
-256 31 -32 56 -60 56 -63 0 -2 21 -24 47 -47 25 -24 82 -78 125 -120 44 -43
82 -78 86 -78 4 0 27 -20 50 -45 23 -25 45 -45 49 -45 4 0 21 -15 38 -33 57
-57 65 -61 66 -35 7 116 5 216 -6 283 -7 44 -13 95 -14 113 -1 19 -7 46 -15
60 -7 15 -21 60 -31 99 -9 40 -21 73 -25 73 -4 0 -11 17 -15 37 -4 20 -13 46
-21 57 -8 11 -14 28 -14 38 0 10 -4 18 -10 18 -5 0 -10 4 -10 10 0 14 -74 165
-110 225 -17 28 -40 70 -53 95 -12 25 -28 51 -34 58 -7 7 -13 18 -13 24 0 6
-11 26 -26 45 -14 18 -32 48 -40 66 -8 17 -24 47 -35 66 -41 69 -21 61 146
-59 39 -28 81 -56 95 -63 14 -8 42 -23 63 -35 20 -12 37 -19 37 -17 0 3 25 -8
55 -24 30 -16 71 -35 91 -41 20 -7 48 -18 62 -26 15 -8 36 -14 48 -14 11 0 24
-4 30 -9 8 -7 238 -69 289 -77 11 -2 43 -8 70 -14 28 -6 61 -12 75 -14 14 -2
32 -6 40 -9 8 -3 42 -9 75 -12 33 -3 74 -8 90 -10 34 -5 114 -15 160 -20 78
-9 133 -15 165 -20 19 -3 56 -7 82 -10 47 -5 47 -5 38 19 -5 14 -17 34 -27 46
-10 11 -18 24 -18 28 0 4 -15 23 -32 42 -18 19 -33 39 -33 44 0 11 -161 166
-172 166 -5 0 -8 7 -8 15 0 8 -6 15 -13 15 -7 0 -28 12 -45 28 -78 67 -163
122 -297 190 -50 26 -56 28 -76 31 -5 0 -8 5 -5 10 3 5 -4 12 -17 16 -29 10
-18 5 -130 58 -55 26 -103 47 -109 47 -6 0 -31 11 -57 24 -57 29 -130 62 -154
70 -10 3 -17 12 -14 19 2 8 36 12 113 13 142 2 203 9 354 38 114 22 293 75
380 113 19 8 44 19 55 23 28 12 137 60 155 69 8 4 24 13 35 18 11 6 63 32 115
59 52 26 109 55 125 65 17 10 55 30 85 46 30 15 56 31 58 35 2 3 41 26 88 49
46 23 84 46 84 49 0 4 9 10 21 13 12 3 19 11 17 18 -4 13 -111 55 -163 65 -16
3 -34 9 -40 13 -5 5 -17 9 -25 9 -16 1 -64 10 -90 17 -97 27 -382 22 -590 -10
-14 -2 -44 -6 -68 -9 -23 -3 -79 -15 -125 -26 -117 -28 -163 -38 -237 -50 -36
-6 -72 -14 -80 -17 -8 -3 -27 -8 -42 -10 -43 -6 -25 22 38 62 30 19 54 39 54
45 0 5 6 10 13 10 6 0 33 19 58 43 25 23 59 53 75 67 16 14 54 54 84 89 30 35
63 71 72 81 9 10 25 31 35 47 9 15 39 56 65 90 27 34 48 65 48 69 0 3 20 36
44 73 24 36 70 118 102 181 33 63 65 121 72 128 6 7 12 19 12 25 0 11 86 193
151 320 16 31 27 57 23 57 -3 0 0 10 8 23 8 12 20 37 26 55 10 30 9 33 -6 28
-9 -3 -34 -8 -55 -12 -20 -3 -39 -10 -42 -14 -3 -5 -24 -11 -48 -15 -23 -4
-51 -14 -62 -21 -11 -8 -27 -14 -37 -14 -10 0 -18 -5 -18 -10 0 -6 -3 -10 -7
-9 -16 2 -53 -14 -53 -22 0 -5 -3 -8 -7 -7 -10 3 -145 -72 -158 -88 -5 -6 -31
-26 -58 -43 -26 -18 -58 -43 -72 -57 -14 -14 -25 -23 -25 -20 0 3 -38 -31 -85
-77 -47 -45 -91 -87 -98 -94 -6 -6 -32 -35 -57 -63 -25 -28 -70 -78 -100 -110
-30 -33 -66 -74 -80 -91 -54 -67 -119 -133 -126 -126 -4 4 3 36 15 72 13 36
25 82 28 103 3 20 9 42 14 47 7 10 27 111 34 175 30 263 20 559 -25 789 -5 29
-10 71 -10 91 0 21 -7 60 -15 86 -8 27 -21 92 -30 144 -29 169 -34 195 -40
220 -4 14 -9 37 -12 52 l-5 26 -29 -25 c-16 -15 -29 -30 -29 -35 0 -5 -14 -23
-30 -40 -17 -17 -39 -47 -50 -67 -10 -20 -19 -31 -20 -26 0 12 -100 -185 -116
-230 -38 -105 -47 -133 -50 -160 -2 -16 -9 -34 -14 -39 -6 -6 -10 -24 -10 -41
0 -18 -3 -35 -7 -39 -7 -7 -8 -9 -18 -91 -3 -27 -10 -66 -15 -85 -4 -19 -8
-42 -9 -50 -4 -63 -9 -125 -11 -125 -4 0 -13 -82 -26 -250 -5 -71 -9 -105 -13
-127 -2 -15 -31 5 -31 21 0 20 -25 101 -46 148 -8 17 -14 35 -14 39 0 15 -101
214 -109 214 -4 0 -13 16 -21 35 -8 19 -17 35 -21 35 -4 0 -9 8 -13 18 -9 27
-32 59 -81 113 -8 9 -15 20 -15 24 0 5 -18 30 -40 56 -22 26 -40 50 -40 52 0
5 -92 106 -172 189 -32 32 -58 60 -58 62 0 6 -212 210 -340 326 -46 41 -88 81
-95 87 -11 10 -15 3 -20 -37z"/>
</g>
</svg>
