<?xml version="1.0" standalone="no"?>
<!DOCTYPE svg PUBLIC "-//W3C//DTD SVG 20010904//EN"
 "http://www.w3.org/TR/2001/REC-SVG-20010904/DTD/svg10.dtd">
<svg version="1.0" xmlns="http://www.w3.org/2000/svg"
 width="558.000000pt" height="558.000000pt" viewBox="0 0 558.000000 558.000000"
 preserveAspectRatio="xMidYMid meet">
<metadata>
Created by potrace 1.13, written by Peter Selinger 2001-2015
</metadata>
<g transform="translate(0.000000,558.000000) scale(0.100000,-0.100000)"
fill="#000000" stroke="none">
<path d="M938 4674 c-3 -5 -4 -16 -3 -24 1 -8 5 -68 9 -132 4 -65 9 -125 10
-135 2 -10 7 -54 11 -98 4 -44 8 -93 11 -110 2 -16 6 -55 9 -85 4 -30 8 -66
10 -80 2 -14 9 -70 15 -125 6 -55 12 -113 15 -130 2 -16 6 -61 10 -100 4 -38
8 -80 10 -91 2 -12 6 -61 10 -110 4 -49 8 -99 10 -112 23 -146 23 -869 0
-1102 -12 -125 -16 -220 -8 -220 4 0 130 48 278 106 681 267 1445 560 2070
792 523 195 597 222 601 222 3 0 3 -35 0 -77 -2 -43 -5 -85 -5 -94 -1 -9 -9
-19 -18 -22 -10 -3 -106 -37 -213 -76 -601 -217 -1257 -472 -1860 -724 -152
-63 -220 -92 -490 -207 -74 -32 -193 -82 -263 -111 -88 -37 -131 -60 -137 -74
-4 -11 -10 -52 -14 -91 -4 -39 -8 -80 -10 -90 -2 -11 -7 -50 -11 -87 -3 -37
-8 -76 -10 -85 -1 -9 -6 -55 -10 -102 -4 -47 -8 -92 -10 -100 -2 -8 -6 -64
-10 -125 -4 -60 -8 -125 -10 -143 l-3 -34 106 6 c115 7 168 11 247 20 28 3 75
8 105 11 30 3 71 7 90 10 19 3 60 7 90 10 96 10 106 13 308 113 851 423 1417
644 2102 817 173 44 156 49 164 -42 4 -43 9 -91 12 -108 l5 -30 -133 -34 c-73
-18 -153 -40 -177 -48 -24 -8 -55 -17 -69 -19 -14 -3 -40 -11 -58 -19 -19 -8
-34 -12 -34 -10 0 2 -26 -5 -57 -16 -32 -11 -68 -22 -80 -25 -12 -2 -42 -13
-67 -24 -26 -11 -48 -20 -51 -20 -3 0 -6 0 -7 -1 -2 0 -10 -2 -18 -4 -80 -18
-630 -240 -642 -259 -4 -6 -8 -8 -8 -4 0 4 -53 -18 -117 -48 -65 -31 -148 -70
-185 -87 -37 -18 -66 -36 -65 -41 2 -6 30 -8 63 -6 175 10 726 1 884 -15 19
-2 73 -6 120 -10 47 -3 96 -8 110 -10 14 -2 59 -7 100 -10 41 -4 82 -8 90 -10
8 -1 46 -6 83 -10 37 -3 76 -8 85 -10 9 -1 51 -6 92 -10 41 -4 83 -9 92 -10 9
-2 48 -7 85 -10 37 -4 77 -8 89 -10 43 -7 222 -19 289 -19 l69 -1 -2 45 c-5
101 -24 313 -37 420 -2 19 -9 80 -15 135 -6 55 -13 111 -15 125 -2 14 -7 54
-10 90 -4 36 -9 72 -10 81 -2 9 -6 52 -10 95 -4 43 -9 86 -10 95 -2 8 -6 55
-10 105 -4 49 -8 99 -10 112 -26 160 -26 1004 0 1164 2 13 6 63 10 112 4 50 8
97 10 105 1 9 6 48 10 86 3 39 8 84 10 100 9 74 15 124 20 170 3 28 8 64 10
80 2 17 7 57 10 90 4 33 8 70 10 82 2 12 6 57 10 100 4 43 8 88 10 101 5 31 9
31 -137 -24 -88 -33 -120 -45 -254 -98 -78 -31 -147 -56 -153 -56 -7 0 -9 -5
-5 -12 4 -6 3 -8 -4 -4 -6 3 -36 -5 -68 -19 -31 -14 -63 -25 -71 -25 -8 0 -11
-5 -7 -12 4 -6 3 -8 -3 -5 -6 4 -42 -6 -80 -21 -274 -114 -781 -294 -1088
-386 -167 -50 -477 -136 -515 -142 -14 -3 -31 -7 -38 -9 -16 -6 -256 -62 -322
-75 -25 -5 -76 -17 -115 -25 -38 -9 -86 -18 -105 -21 -19 -3 -43 -7 -52 -10
-18 -5 -34 -9 -95 -19 l-43 -7 0 40 c0 22 -3 53 -6 70 -5 27 -3 31 22 36 789
155 1465 375 2349 764 383 168 757 322 784 322 5 0 13 5 17 11 6 10 -122 8
-251 -5 -16 -2 -68 -7 -115 -11 -47 -4 -92 -8 -100 -10 -8 -2 -49 -6 -90 -10
-41 -4 -83 -9 -92 -10 -9 -2 -48 -7 -85 -10 -37 -4 -75 -9 -84 -10 -9 -2 -52
-6 -95 -10 -43 -4 -86 -9 -94 -10 -8 -2 -53 -6 -100 -10 -47 -4 -98 -9 -115
-11 -277 -27 -974 -27 -1255 1 -19 2 -66 6 -105 10 -38 3 -83 8 -100 9 -16 2
-61 6 -100 10 -38 4 -81 9 -95 11 -24 3 -116 14 -170 20 -14 1 -54 6 -90 10
-84 10 -110 12 -195 20 -38 4 -86 8 -105 10 -109 11 -258 16 -262 9z"/>
</g>
</svg>
