<?xml version="1.0" standalone="no"?>
<!DOCTYPE svg PUBLIC "-//W3C//DTD SVG 20010904//EN"
 "http://www.w3.org/TR/2001/REC-SVG-20010904/DTD/svg10.dtd">
<svg version="1.0" xmlns="http://www.w3.org/2000/svg"
 width="512.000000pt" height="512.000000pt" viewBox="0 0 512.000000 512.000000"
 preserveAspectRatio="xMidYMid meet">
<metadata>
Created by potrace 1.13, written by Peter Selinger 2001-2015
</metadata>
<g transform="translate(0.000000,512.000000) scale(0.100000,-0.100000)"
fill="#000000" stroke="none">
<path d="M3165 4474 c-61 -53 -136 -127 -192 -191 -32 -36 -65 -74 -74 -83 -9
-9 -31 -39 -49 -66 -19 -27 -37 -51 -41 -54 -12 -9 -117 -193 -152 -266 -19
-39 -49 -110 -66 -156 -28 -72 -41 -93 -98 -149 -59 -59 -163 -198 -163 -220
0 -22 -29 -6 -45 24 -53 103 -75 141 -122 210 -29 43 -53 80 -53 83 0 15 -186
231 -280 324 -143 142 -312 290 -333 290 -4 0 -42 25 -83 56 -42 30 -83 58
-92 61 -9 4 -36 19 -59 35 -23 15 -46 28 -52 28 -14 0 -133 -209 -184 -325
-25 -56 -59 -147 -77 -203 l-33 -102 39 -87 c46 -102 175 -321 230 -390 22
-26 48 -59 59 -72 45 -57 224 -229 284 -274 53 -39 69 -59 97 -117 40 -83 100
-174 143 -214 47 -45 41 -62 -21 -70 -117 -15 -399 -95 -518 -148 -25 -11 -61
-26 -80 -35 -107 -46 -233 -114 -383 -208 -57 -35 -261 -191 -312 -238 -27
-26 -54 -47 -58 -47 -37 0 241 -288 377 -390 134 -99 125 -97 268 -77 216 31
394 82 568 163 87 41 248 130 260 144 22 25 80 46 165 60 59 10 139 33 193 55
51 20 95 35 98 32 3 -3 1 -36 -6 -74 -18 -108 -24 -443 -10 -579 14 -143 43
-310 72 -413 11 -42 24 -91 28 -108 11 -47 62 -186 72 -198 4 -5 8 -15 8 -23
0 -13 41 -110 59 -142 14 -24 48 -14 207 64 139 69 322 182 386 240 63 57 106
452 77 714 -13 118 -44 273 -69 348 -18 51 -18 61 -6 117 23 100 28 177 16
256 -6 41 -8 76 -5 79 3 3 29 -6 58 -20 138 -70 391 -160 552 -197 256 -57
527 -79 778 -62 95 7 173 13 174 14 1 2 -3 52 -8 112 -13 144 -50 323 -94 460
l-35 110 -120 68 c-65 38 -132 72 -148 76 -15 5 -41 15 -58 24 -32 17 -185 67
-279 91 -99 26 -233 46 -350 52 -106 6 -114 8 -210 55 -97 47 -195 79 -242 79
-36 0 -28 21 35 85 96 100 302 367 302 392 0 3 6 14 14 22 39 44 185 340 216
436 7 22 16 45 20 50 16 22 91 284 115 401 6 30 5 31 -47 43 -200 47 -380 71
-533 71 -93 -1 -102 -2 -130 -26z"/>
</g>
</svg>
