<?xml version="1.0" standalone="no"?>
<!DOCTYPE svg PUBLIC "-//W3C//DTD SVG 20010904//EN"
 "http://www.w3.org/TR/2001/REC-SVG-20010904/DTD/svg10.dtd">
<svg version="1.0" xmlns="http://www.w3.org/2000/svg"
 width="512.000000pt" height="512.000000pt" viewBox="0 0 512.000000 512.000000"
 preserveAspectRatio="xMidYMid meet">
<metadata>
Created by potrace 1.13, written by Peter Selinger 2001-2015
</metadata>
<g transform="translate(0.000000,512.000000) scale(0.100000,-0.100000)"
fill="#000000" stroke="none">
<path d="M3173 4521 c-17 -21 -50 -66 -72 -101 -23 -36 -45 -67 -49 -70 -12
-7 -82 -126 -82 -137 0 -5 -12 -25 -26 -44 -14 -19 -30 -43 -35 -54 -24 -50
-77 -123 -132 -180 -82 -87 -128 -219 -191 -550 -28 -149 -44 -160 -70 -49
-57 245 -93 325 -161 354 -52 22 -101 84 -208 265 -22 37 -57 77 -98 111 -36
30 -48 34 -96 34 -61 0 -157 40 -174 73 -5 9 -15 17 -22 17 -7 0 -31 18 -52
40 -51 53 -163 127 -220 146 -40 14 -49 14 -94 -1 -27 -8 -68 -17 -92 -18 -24
-2 -55 -10 -69 -19 -14 -9 -53 -24 -88 -33 -44 -13 -70 -27 -87 -47 -25 -29
-25 -33 -23 -178 3 -169 1 -175 -83 -212 -65 -27 -82 -48 -70 -81 10 -25 72
-117 101 -148 8 -9 29 -33 45 -54 44 -56 76 -93 114 -134 59 -63 136 -164 175
-229 39 -64 122 -162 137 -162 5 0 30 -15 56 -34 68 -48 243 -156 253 -156 5
0 31 -13 57 -28 26 -16 56 -31 66 -35 9 -3 17 -14 17 -23 0 -15 -8 -16 -62
-11 -275 27 -345 22 -397 -30 -54 -54 -65 -59 -221 -98 -216 -56 -283 -95
-315 -185 -9 -24 -23 -53 -33 -63 -21 -23 -148 -112 -197 -137 -71 -37 -170
-129 -189 -175 -23 -55 -34 -352 -16 -401 14 -35 64 -61 150 -79 161 -34 186
-53 197 -146 3 -30 12 -67 20 -82 13 -25 17 -27 51 -21 60 11 258 83 344 126
68 33 228 90 303 108 50 12 113 35 141 50 107 59 247 173 378 307 110 113 123
96 52 -71 -25 -57 -54 -139 -66 -182 -23 -83 -22 -92 16 -154 13 -21 14 -56 9
-221 -8 -245 -2 -273 67 -332 58 -48 78 -85 103 -182 9 -38 21 -81 25 -95 4
-14 16 -52 25 -85 23 -80 67 -156 102 -176 15 -9 46 -22 68 -29 22 -7 54 -23
72 -36 17 -13 45 -24 61 -24 16 0 58 -11 93 -24 96 -36 114 -24 210 132 68
111 78 116 187 108 48 -3 93 -2 101 3 18 12 19 217 1 386 -8 66 -13 199 -12
295 2 132 -2 192 -14 245 -9 39 -20 74 -25 79 -5 6 -9 17 -9 25 0 8 -9 35 -21
60 -11 25 -26 60 -33 76 -8 17 -36 78 -65 137 -80 168 -71 174 71 53 51 -45
120 -98 152 -120 58 -38 60 -39 160 -40 82 -1 111 -6 151 -24 28 -12 68 -31
90 -41 55 -25 185 -60 221 -60 17 0 53 15 82 34 66 42 111 48 283 36 151 -10
244 -1 288 27 16 10 48 42 71 71 22 29 52 58 66 64 15 7 24 20 24 34 0 12 16
42 36 66 20 23 43 57 52 75 14 29 13 34 -6 72 -19 36 -51 77 -99 126 -33 34
-63 91 -63 119 0 17 14 57 31 89 16 32 29 67 27 79 -5 35 -114 72 -478 159
-74 17 -180 50 -235 73 l-100 41 -150 -1 c-128 -1 -263 -13 -439 -41 -65 -10
-41 23 58 83 49 30 91 54 93 54 2 0 32 23 68 51 75 59 105 102 105 154 0 43
13 64 115 184 120 142 160 213 151 269 -19 113 -18 140 4 213 13 41 26 79 30
84 21 29 73 196 77 249 5 58 3 64 -37 125 -22 35 -44 77 -47 93 -3 16 -15 34
-27 40 -12 5 -39 37 -61 70 -51 76 -81 91 -145 72 -26 -8 -77 -27 -113 -44
-43 -19 -83 -30 -113 -30 -41 0 -51 5 -102 53 -31 30 -64 56 -72 59 -10 4 -27
-8 -47 -31z"/>
<path d="M2075 1919 c-4 -6 -5 -12 -2 -15 2 -3 7 2 10 11 7 17 1 20 -8 4z"/>
</g>
</svg>
