<?xml version="1.0" standalone="no"?>
<!DOCTYPE svg PUBLIC "-//W3C//DTD SVG 20010904//EN"
 "http://www.w3.org/TR/2001/REC-SVG-20010904/DTD/svg10.dtd">
<svg version="1.0" xmlns="http://www.w3.org/2000/svg"
 width="558.000000pt" height="558.000000pt" viewBox="0 0 558.000000 558.000000"
 preserveAspectRatio="xMidYMid meet">
<metadata>
Created by potrace 1.13, written by Peter Selinger 2001-2015
</metadata>
<g transform="translate(0.000000,558.000000) scale(0.100000,-0.100000)"
fill="#000000" stroke="none">
<path d="M629 4391 c-3 -492 -4 -1018 -1 -1028 3 -10 142 -13 651 -13 l647 0
13 -62 c12 -60 528 -2507 551 -2615 l12 -53 419 0 419 0 5 22 c2 13 37 187 75
388 39 201 123 631 186 955 213 1091 264 1355 264 1360 0 3 272 5 605 5 l605
0 -2 568 -3 567 -2222 1 -2223 0 -1 -95z"/>
</g>
</svg>
