<?xml version="1.0" standalone="no"?>
<!DOCTYPE svg PUBLIC "-//W3C//DTD SVG 20010904//EN"
 "http://www.w3.org/TR/2001/REC-SVG-20010904/DTD/svg10.dtd">
<svg version="1.0" xmlns="http://www.w3.org/2000/svg"
 width="558.000000pt" height="558.000000pt" viewBox="0 0 558.000000 558.000000"
 preserveAspectRatio="xMidYMid meet">
<metadata>
Created by potrace 1.13, written by Peter Selinger 2001-2015
</metadata>
<g transform="translate(0.000000,558.000000) scale(0.100000,-0.100000)"
fill="#000000" stroke="none">
<path d="M2752 4723 c-27 -49 -220 -387 -427 -753 -208 -366 -426 -751 -486
-856 -60 -105 -111 -199 -115 -208 -6 -15 68 -16 925 -16 l931 0 0 -101 0
-102 -427 8 c-236 4 -464 8 -508 10 -44 1 -262 6 -485 10 -223 4 -433 9 -467
10 -35 0 -67 -1 -71 -4 -9 -6 -967 -1694 -978 -1723 -6 -17 101 -18 2165 -18
1334 0 2171 4 2171 9 0 5 -83 155 -183 333 l-184 323 -1376 -3 -1377 -3 0 81
0 82 1337 -7 1336 -8 -25 44 c-14 24 -236 415 -493 869 -257 454 -478 842
-491 863 l-24 37 -435 0 -435 0 0 76 0 76 389 -4 c214 -1 391 -1 394 2 3 3
-61 120 -140 260 -80 140 -215 378 -300 528 -85 149 -159 272 -163 272 -4 0
-30 -39 -58 -87z"/>
</g>
</svg>
