<?xml version="1.0" standalone="no"?>
<!DOCTYPE svg PUBLIC "-//W3C//DTD SVG 20010904//EN"
 "http://www.w3.org/TR/2001/REC-SVG-20010904/DTD/svg10.dtd">
<svg version="1.0" xmlns="http://www.w3.org/2000/svg"
 width="558.000000pt" height="558.000000pt" viewBox="0 0 558.000000 558.000000"
 preserveAspectRatio="xMidYMid meet">
<metadata>
Created by potrace 1.13, written by Peter Selinger 2001-2015
</metadata>
<g transform="translate(0.000000,558.000000) scale(0.100000,-0.100000)"
fill="#000000" stroke="none">
<path d="M2229 4916 c-2 -2 -83 -7 -179 -11 -96 -3 -202 -8 -235 -10 -186 -12
-283 -20 -375 -30 -19 -2 -60 -7 -90 -10 -249 -28 -459 -79 -485 -119 -41 -62
-97 -361 -120 -636 -3 -41 -8 -95 -10 -120 -2 -25 -7 -90 -10 -145 -3 -55 -8
-131 -10 -170 -18 -305 -23 -1079 -10 -1480 10 -329 9 -321 48 -305 12 5 317
120 677 254 360 135 752 281 870 326 118 45 316 120 440 167 370 140 587 222
740 280 156 59 210 80 663 252 56 21 133 51 171 65 38 15 70 25 72 24 1 -2 4
-56 6 -120 l3 -118 -30 -11 c-16 -7 -55 -22 -85 -35 -49 -20 -140 -56 -602
-238 -64 -25 -121 -46 -127 -46 -6 0 -11 -4 -11 -8 0 -5 -6 -9 -12 -9 -30 -2
-168 -60 -161 -68 5 -4 3 -5 -3 -2 -10 6 -52 -8 -139 -44 -16 -7 -33 -12 -37
-11 -5 1 -8 -2 -8 -8 0 -6 -3 -9 -7 -8 -9 2 -73 -19 -123 -40 -19 -9 -38 -15
-42 -14 -5 1 -8 -2 -8 -8 0 -6 -3 -9 -7 -8 -18 4 -122 -36 -116 -45 3 -6 1 -7
-5 -3 -5 3 -44 -7 -85 -24 -42 -16 -80 -30 -87 -30 -6 0 -8 -5 -4 -12 4 -7 3
-8 -4 -4 -6 4 -33 -2 -59 -13 -94 -39 -313 -121 -323 -121 -6 0 -8 -5 -4 -12
4 -7 3 -8 -4 -4 -6 4 -37 -4 -69 -17 -32 -13 -88 -35 -125 -48 -36 -13 -64
-28 -61 -33 3 -5 2 -6 -4 -3 -5 3 -75 -19 -154 -49 -79 -30 -200 -75 -269
-100 -69 -25 -131 -51 -137 -56 -7 -6 -13 -8 -13 -5 0 3 -17 -1 -37 -10 -60
-25 -458 -171 -573 -210 -113 -38 -131 -48 -125 -66 2 -7 6 -52 10 -101 7
-101 9 -119 36 -306 19 -137 56 -297 77 -337 16 -28 141 -68 277 -88 23 -3 51
-7 64 -10 13 -2 49 -7 80 -11 31 -3 58 -8 61 -9 3 -2 46 -6 95 -10 81 -6 102
-4 210 25 634 168 1655 512 2592 874 123 47 226 86 229 86 8 0 -1 -228 -9
-236 -5 -5 -401 -167 -512 -209 -33 -12 -114 -43 -180 -68 -229 -87 -624 -230
-710 -257 -22 -7 -44 -15 -50 -19 -5 -3 -14 -6 -20 -8 -5 -1 -75 -24 -155 -52
-80 -27 -232 -78 -337 -112 -106 -34 -190 -66 -187 -70 5 -9 1119 -5 1269 5
44 3 132 8 195 11 63 4 133 8 155 10 22 2 76 7 120 10 44 3 94 8 110 10 17 2
51 7 78 10 73 8 140 17 162 21 10 2 35 6 55 9 47 7 78 13 98 19 9 3 31 8 47
11 40 8 44 9 87 24 31 10 39 19 52 59 33 99 72 315 91 507 3 33 8 78 10 100 2
22 7 81 10 130 4 50 8 108 10 130 2 22 6 121 10 220 4 99 9 212 11 250 4 93 4
1089 0 1185 -3 41 -7 149 -11 240 -3 91 -8 183 -10 205 -2 22 -6 83 -10 135
-3 52 -8 113 -10 135 -21 189 -28 252 -41 335 -8 52 -21 100 -27 106 -9 8 -48
5 -147 -11 -204 -34 -212 -36 -250 -45 -19 -5 -53 -11 -75 -15 -22 -3 -64 -12
-95 -20 -31 -8 -73 -17 -94 -21 -22 -3 -50 -10 -63 -15 -13 -5 -23 -7 -23 -5
0 2 -210 -50 -467 -115 -258 -66 -479 -122 -492 -125 -14 -3 -28 -7 -33 -10
-5 -3 -18 -7 -31 -10 -12 -2 -87 -22 -167 -44 -80 -22 -152 -42 -160 -44 -224
-62 -292 -81 -380 -106 -58 -17 -112 -32 -120 -34 -44 -11 -207 -58 -220 -63
-8 -3 -19 -7 -25 -9 -5 -1 -66 -19 -135 -39 -69 -21 -144 -42 -168 -49 -24 -6
-40 -15 -35 -19 4 -5 0 -5 -9 -2 -10 4 -23 3 -30 -1 -7 -5 -18 -9 -25 -10 -21
-3 -346 -107 -381 -121 l-33 -14 3 88 3 88 365 122 c302 100 883 285 940 299
8 2 67 19 130 38 310 96 1146 330 1250 350 14 3 59 14 100 25 41 11 86 22 100
24 14 3 43 10 65 15 22 6 55 14 72 17 18 3 61 12 95 20 57 12 173 33 283 50
22 3 73 8 114 10 40 2 75 6 78 9 8 7 -118 44 -215 62 -48 9 -94 17 -102 19
-18 3 -90 13 -157 20 -27 3 -62 8 -78 10 -17 2 -67 7 -110 10 -44 3 -98 8
-120 10 -22 2 -94 6 -160 10 -66 4 -151 9 -190 12 -81 5 -1341 14 -1346 9z"/>
</g>
</svg>
