<?xml version="1.0" standalone="no"?>
<!DOCTYPE svg PUBLIC "-//W3C//DTD SVG 20010904//EN"
 "http://www.w3.org/TR/2001/REC-SVG-20010904/DTD/svg10.dtd">
<svg version="1.0" xmlns="http://www.w3.org/2000/svg"
 width="558.000000pt" height="558.000000pt" viewBox="0 0 558.000000 558.000000"
 preserveAspectRatio="xMidYMid meet">
<metadata>
Created by potrace 1.13, written by Peter Selinger 2001-2015
</metadata>
<g transform="translate(0.000000,558.000000) scale(0.100000,-0.100000)"
fill="#000000" stroke="none">
<path d="M2845 4381 c-75 -205 -199 -426 -306 -545 -91 -102 -177 -185 -324
-311 -38 -33 -75 -64 -81 -70 -6 -5 -44 -39 -85 -75 -139 -121 -297 -285 -400
-415 -242 -305 -424 -654 -629 -1206 -132 -357 -176 -468 -235 -594 -24 -49
-40 -94 -38 -98 3 -5 44 -6 92 -3 161 11 236 17 271 21 19 3 76 7 125 11 50 3
97 8 106 9 121 23 793 24 917 0 10 -1 53 -6 96 -10 43 -4 86 -8 95 -10 9 -1
50 -6 91 -10 41 -4 82 -8 90 -10 8 -2 47 -6 85 -10 39 -4 80 -8 92 -10 12 -2
57 -6 100 -10 43 -4 88 -8 100 -10 11 -2 72 -6 135 -10 62 -4 129 -9 148 -11
46 -5 654 -5 700 0 19 2 98 7 175 11 77 4 156 8 175 10 19 2 87 6 150 10 63 4
118 9 123 12 18 11 -114 167 -362 432 -333 355 -449 503 -549 706 -38 76 -96
235 -106 290 -32 168 -31 165 -41 270 -4 39 -8 81 -10 95 -2 14 -7 59 -10 100
-39 470 -181 875 -448 1280 -88 133 -179 258 -192 263 -6 3 -28 -43 -50 -102z"/>
</g>
</svg>
