<?xml version="1.0" standalone="no"?>
<!DOCTYPE svg PUBLIC "-//W3C//DTD SVG 20010904//EN"
 "http://www.w3.org/TR/2001/REC-SVG-20010904/DTD/svg10.dtd">
<svg version="1.0" xmlns="http://www.w3.org/2000/svg"
 width="558.000000pt" height="558.000000pt" viewBox="0 0 558.000000 558.000000"
 preserveAspectRatio="xMidYMid meet">
<metadata>
Created by potrace 1.13, written by Peter Selinger 2001-2015
</metadata>
<g transform="translate(0.000000,558.000000) scale(0.100000,-0.100000)"
fill="#000000" stroke="none">
<path d="M1825 3960 c-528 -391 -963 -716 -968 -723 -6 -11 633 -2120 647
-2135 4 -3 16 4 29 15 65 58 2269 1875 2280 1879 9 3 29 -34 60 -109 26 -62
47 -117 47 -123 0 -6 -545 -424 -1211 -930 l-1212 -919 1243 -3 c684 -1 1245
-1 1247 1 4 4 743 2313 743 2321 0 8 -789 586 -800 586 -6 0 -437 -331 -958
-737 -521 -405 -952 -740 -957 -744 -6 -5 -23 3 -39 16 -53 45 -137 127 -134
130 2 2 433 330 958 729 525 400 956 730 957 734 2 6 -945 711 -966 719 -3 2
-438 -317 -966 -707z"/>
</g>
</svg>
