<?xml version="1.0" standalone="no"?>
<!DOCTYPE svg PUBLIC "-//W3C//DTD SVG 20010904//EN"
 "http://www.w3.org/TR/2001/REC-SVG-20010904/DTD/svg10.dtd">
<svg version="1.0" xmlns="http://www.w3.org/2000/svg"
 width="558.000000pt" height="558.000000pt" viewBox="0 0 558.000000 558.000000"
 preserveAspectRatio="xMidYMid meet">
<metadata>
Created by potrace 1.13, written by Peter Selinger 2001-2015
</metadata>
<g transform="translate(0.000000,558.000000) scale(0.100000,-0.100000)"
fill="#000000" stroke="none">
<path d="M2579 4786 c-2 -2 -33 -7 -69 -10 -169 -18 -386 -84 -576 -177 -517
-252 -894 -708 -1055 -1279 -69 -244 -91 -577 -54 -809 3 -13 7 -45 11 -70 43
-313 253 -756 470 -991 210 -228 374 -353 619 -474 220 -109 423 -168 666
-192 l66 -7 52 264 c29 145 55 274 59 286 5 16 27 -61 71 -250 36 -149 67
-278 69 -284 5 -17 32 -16 161 2 719 105 1332 616 1575 1313 84 242 122 485
113 737 -3 88 -7 169 -10 181 -3 12 -8 45 -12 75 -9 80 -52 249 -92 363 -210
608 -726 1094 -1338 1261 -129 35 -395 78 -395 64 0 -2 -31 -168 -69 -369 -69
-373 -69 -373 -86 -255 -3 22 -10 65 -15 95 -5 30 -12 73 -15 95 -3 22 -10 65
-15 95 -12 70 -14 81 -35 223 l-19 117 -36 0 c-20 0 -39 -2 -41 -4z"/>
</g>
</svg>
