<?xml version="1.0" standalone="no"?>
<!DOCTYPE svg PUBLIC "-//W3C//DTD SVG 20010904//EN"
 "http://www.w3.org/TR/2001/REC-SVG-20010904/DTD/svg10.dtd">
<svg version="1.0" xmlns="http://www.w3.org/2000/svg"
 width="512.000000pt" height="512.000000pt" viewBox="0 0 512.000000 512.000000"
 preserveAspectRatio="xMidYMid meet">
<metadata>
Created by potrace 1.13, written by Peter Selinger 2001-2015
</metadata>
<g transform="translate(0.000000,512.000000) scale(0.100000,-0.100000)"
fill="#000000" stroke="none">
<path d="M1746 4902 c-22 -400 -20 -439 34 -722 11 -58 20 -139 20 -180 1
-119 16 -197 75 -380 30 -95 55 -176 55 -181 0 -20 -28 -7 -70 34 -56 52 -113
91 -165 112 -59 24 -175 84 -209 108 -33 23 -256 137 -269 137 -15 0 -242 91
-342 137 -54 25 -113 50 -130 54 -16 4 -62 19 -101 33 -83 29 -174 44 -174 28
0 -6 6 -17 13 -24 7 -7 35 -49 62 -93 27 -44 59 -94 72 -111 13 -17 23 -35 23
-40 0 -10 52 -86 98 -143 15 -18 104 -111 197 -206 94 -95 191 -199 215 -231
63 -82 108 -120 314 -266 96 -69 91 -78 -46 -71 -87 4 -128 1 -176 -11 -34 -9
-126 -23 -205 -31 -192 -21 -193 -21 -447 -89 -52 -14 -156 -38 -230 -55 -127
-28 -271 -70 -314 -93 -18 -10 -18 -12 -3 -23 20 -14 22 -32 5 -38 -7 -2 5
-12 27 -22 22 -10 48 -22 58 -27 50 -25 259 -101 326 -117 42 -11 159 -32 261
-46 102 -15 230 -41 285 -57 94 -29 113 -31 313 -35 242 -6 251 -10 148 -68
-62 -35 -127 -90 -191 -165 -17 -19 -64 -64 -104 -100 -132 -116 -166 -153
-351 -379 -19 -24 -48 -58 -65 -77 -16 -18 -48 -53 -70 -78 -22 -25 -54 -62
-72 -81 -17 -19 -35 -44 -38 -55 -3 -11 -10 -20 -15 -20 -8 0 -64 -92 -87
-143 -9 -21 -9 -27 0 -27 15 0 366 93 427 114 116 38 169 63 429 201 46 24
107 52 135 61 80 27 156 65 216 109 100 74 115 85 172 125 31 22 62 40 69 40
13 0 12 -5 -35 -126 -25 -65 -38 -120 -45 -185 -6 -52 -24 -161 -41 -244 -22
-109 -33 -198 -40 -325 -5 -96 -14 -220 -20 -275 -19 -180 -13 -406 11 -420 9
-6 36 18 60 55 18 28 49 66 89 109 14 15 48 57 75 94 27 37 52 67 56 67 12 0
87 135 172 308 45 92 108 207 140 255 32 49 65 105 73 125 9 20 22 51 29 68 8
17 21 55 29 85 53 193 87 246 99 154 12 -84 37 -152 87 -235 28 -45 50 -84 50
-86 0 -3 11 -30 25 -60 14 -30 25 -57 25 -59 0 -7 68 -147 83 -169 11 -19 70
-110 92 -144 50 -78 84 -135 95 -161 7 -17 16 -31 20 -31 3 0 17 -23 30 -50
13 -28 26 -50 30 -50 4 0 15 -18 25 -40 10 -22 21 -40 25 -40 4 0 12 -12 19
-27 15 -33 21 -40 102 -122 l64 -65 6 100 c25 397 23 461 -31 744 -11 58 -20
139 -20 180 -1 119 -16 197 -75 380 -30 95 -55 176 -55 181 0 20 28 7 70 -33
56 -53 113 -92 165 -113 59 -24 175 -84 209 -108 33 -23 256 -137 269 -137 15
0 242 -91 342 -137 54 -25 113 -50 130 -54 16 -4 62 -19 101 -33 83 -29 174
-44 174 -28 0 6 -6 17 -13 24 -7 7 -35 49 -62 93 -27 44 -59 94 -72 111 -13
17 -23 35 -23 40 0 10 -52 86 -98 143 -15 18 -104 111 -197 206 -94 95 -191
199 -215 231 -63 82 -108 120 -314 266 -96 69 -91 78 47 71 86 -4 127 -1 175
11 34 9 126 23 205 31 192 21 193 21 447 89 52 14 156 38 230 55 127 27 271
70 314 93 15 8 16 12 5 19 -11 7 -12 12 -2 27 10 18 7 21 -30 37 -23 9 -50 21
-60 26 -47 25 -258 101 -326 118 -42 11 -159 32 -261 46 -102 15 -230 41 -285
57 -94 29 -113 31 -312 35 -243 6 -252 10 -149 68 62 35 127 90 191 165 17 19
64 64 104 100 132 116 166 153 351 379 19 24 49 58 65 77 17 18 48 53 70 78
22 25 54 62 72 81 17 19 35 44 38 55 3 11 10 20 15 20 8 0 64 92 87 143 9 21
9 27 0 27 -15 0 -366 -93 -427 -114 -116 -38 -169 -63 -429 -201 -46 -24 -107
-52 -135 -61 -80 -27 -156 -65 -216 -109 -100 -74 -115 -85 -172 -125 -31 -22
-62 -40 -69 -40 -13 0 -12 5 35 126 25 65 38 120 45 185 6 52 24 162 41 244
22 109 33 198 40 325 5 96 14 220 20 275 19 180 13 406 -11 420 -9 6 -36 -18
-60 -55 -18 -28 -49 -66 -89 -109 -14 -15 -48 -57 -75 -94 -27 -37 -52 -67
-56 -67 -12 0 -87 -135 -172 -308 -45 -92 -108 -207 -140 -255 -32 -49 -65
-105 -73 -125 -9 -20 -22 -51 -29 -68 -8 -17 -21 -55 -29 -85 -53 -193 -87
-246 -99 -154 -12 84 -37 152 -87 235 -28 45 -50 84 -50 86 0 3 -11 30 -25 60
-14 30 -25 57 -25 59 0 7 -68 147 -83 169 -11 19 -70 110 -92 144 -50 78 -84
135 -95 161 -7 17 -16 31 -20 31 -3 0 -17 23 -30 50 -13 28 -26 50 -30 50 -4
0 -15 18 -25 40 -10 22 -22 40 -26 40 -4 0 -11 9 -14 20 -4 11 -16 32 -28 45
-12 14 -33 39 -47 56 -14 17 -41 44 -61 60 l-36 28 -7 -117z"/>
</g>
</svg>
