<?xml version="1.0" standalone="no"?>
<!DOCTYPE svg PUBLIC "-//W3C//DTD SVG 20010904//EN"
 "http://www.w3.org/TR/2001/REC-SVG-20010904/DTD/svg10.dtd">
<svg version="1.0" xmlns="http://www.w3.org/2000/svg"
 width="558.000000pt" height="558.000000pt" viewBox="0 0 558.000000 558.000000"
 preserveAspectRatio="xMidYMid meet">
<metadata>
Created by potrace 1.13, written by Peter Selinger 2001-2015
</metadata>
<g transform="translate(0.000000,558.000000) scale(0.100000,-0.100000)"
fill="#000000" stroke="none">
<path d="M2370 5073 c0 -7 43 -478 55 -598 10 -106 44 -473 51 -540 3 -38 9
-100 13 -138 6 -51 4 -65 -4 -55 -7 7 -191 236 -410 508 -219 272 -403 501
-409 507 -9 10 -83 -57 -329 -299 l-318 -311 23 -23 c13 -12 239 -201 503
-419 264 -219 481 -400 483 -404 1 -3 -288 20 -643 53 -355 32 -648 57 -650
55 -2 -2 -6 -197 -10 -432 l-7 -428 28 5 c16 2 67 7 114 11 47 4 96 8 110 10
14 2 63 6 110 10 47 3 96 8 110 10 14 2 68 7 120 11 52 3 102 7 110 9 8 2 58
6 110 10 52 4 102 8 110 10 8 1 58 6 110 10 52 3 106 8 120 10 14 2 63 7 110
10 74 6 83 5 70 -8 -8 -8 -242 -202 -520 -432 -278 -230 -507 -420 -510 -422
-6 -6 610 -613 621 -613 4 0 207 242 451 537 l443 538 3 -688 2 -687 265 0
265 0 2 674 3 674 419 -540 419 -540 319 319 c175 175 317 321 316 324 -2 4
-192 168 -423 364 -231 196 -431 367 -445 378 -14 12 -51 44 -83 71 -32 27
-56 51 -53 53 2 2 82 -3 177 -12 96 -8 201 -18 234 -21 65 -5 145 -12 215 -19
25 -2 77 -7 115 -10 39 -4 86 -8 105 -10 19 -2 71 -7 115 -10 44 -4 92 -8 108
-10 15 -2 66 -7 115 -10 48 -4 90 -9 94 -11 3 -2 13 -1 21 2 13 4 15 45 16
258 1 139 4 330 7 424 l5 172 -26 0 c-21 0 -433 -37 -625 -55 -102 -10 -145
-14 -215 -20 -38 -4 -86 -8 -105 -10 -104 -12 -300 -27 -308 -24 -5 2 215 188
489 413 275 225 499 413 499 417 0 3 -148 157 -330 340 -212 215 -332 330
-337 323 -34 -50 -788 -1023 -790 -1020 -3 3 38 438 52 546 2 19 7 64 10 100
3 36 8 81 10 100 2 19 6 62 10 95 3 33 8 80 10 105 19 185 35 344 35 351 0 5
-197 9 -440 9 -242 0 -440 -3 -440 -7z"/>
</g>
</svg>
