<?xml version="1.0" standalone="no"?>
<!DOCTYPE svg PUBLIC "-//W3C//DTD SVG 20010904//EN"
 "http://www.w3.org/TR/2001/REC-SVG-20010904/DTD/svg10.dtd">
<svg version="1.0" xmlns="http://www.w3.org/2000/svg"
 width="558.000000pt" height="558.000000pt" viewBox="0 0 558.000000 558.000000"
 preserveAspectRatio="xMidYMid meet">
<metadata>
Created by potrace 1.13, written by Peter Selinger 2001-2015
</metadata>
<g transform="translate(0.000000,558.000000) scale(0.100000,-0.100000)"
fill="#000000" stroke="none">
<path d="M631 4369 c2 -110 27 -331 39 -346 2 -2 3 -6 4 -10 47 -180 143 -325
254 -386 96 -52 135 -56 631 -57 251 0 468 -2 481 -4 14 -3 73 -7 131 -11 58
-3 116 -7 130 -10 13 -2 49 -6 79 -9 69 -7 281 -44 287 -50 13 -12 -136 -256
-187 -306 -18 -18 -173 -216 -211 -270 -150 -213 -256 -497 -287 -770 -14
-129 -6 -527 12 -581 3 -7 7 -27 9 -44 12 -82 22 -127 59 -260 59 -220 156
-428 242 -522 90 -99 158 -115 268 -63 107 51 196 42 397 -38 115 -47 129 -49
175 -27 95 45 105 260 31 625 -7 33 -52 285 -61 335 -13 80 -11 366 3 444 17
96 55 220 90 297 14 32 27 61 28 64 1 3 47 97 103 209 64 129 116 251 143 335
24 72 44 133 46 135 2 3 21 -5 42 -17 59 -33 160 -69 231 -82 64 -12 235 -15
280 -6 14 3 50 11 80 17 154 30 330 111 428 197 12 11 38 23 56 26 46 9 141
72 204 136 73 75 163 260 188 384 10 51 33 196 39 246 9 74 15 481 8 510 -6
21 -9 22 -72 17 -70 -7 -98 -11 -171 -27 -25 -5 -61 -12 -80 -15 -19 -3 -51
-10 -70 -15 -34 -9 -82 -21 -340 -81 -121 -28 -237 -52 -310 -64 -19 -3 -46
-7 -60 -10 -147 -26 -460 -26 -650 1 -31 5 -225 37 -290 48 -214 38 -461 78
-560 91 -69 9 -136 18 -150 20 -14 2 -65 6 -114 10 -50 4 -99 9 -110 11 -40 8
-391 16 -836 19 -250 2 -497 7 -548 10 l-93 7 2 -113z"/>
</g>
</svg>
