<?xml version="1.0" standalone="no"?>
<!DOCTYPE svg PUBLIC "-//W3C//DTD SVG 20010904//EN"
 "http://www.w3.org/TR/2001/REC-SVG-20010904/DTD/svg10.dtd">
<svg version="1.0" xmlns="http://www.w3.org/2000/svg"
 width="558.000000pt" height="558.000000pt" viewBox="0 0 558.000000 558.000000"
 preserveAspectRatio="xMidYMid meet">
<metadata>
Created by potrace 1.13, written by Peter Selinger 2001-2015
</metadata>
<g transform="translate(0.000000,558.000000) scale(0.100000,-0.100000)"
fill="#000000" stroke="none">
<path d="M3071 4388 c93 -403 116 -731 69 -1002 -45 -263 -133 -447 -304 -636
-139 -153 -211 -284 -261 -475 -33 -124 -46 -235 -47 -388 l0 -129 -31 6 c-56
11 -58 16 -53 165 6 167 11 209 41 336 53 227 130 373 282 538 219 238 313
506 313 894 0 208 -19 349 -97 716 -3 15 -9 29 -13 32 -4 3 -27 -10 -51 -29
-161 -123 -329 -216 -705 -391 -515 -241 -755 -381 -1079 -631 -66 -51 -133
-104 -150 -118 l-30 -25 60 14 c114 26 360 73 440 85 44 6 91 13 105 16 149
25 491 25 653 0 64 -10 119 -21 121 -25 3 -5 -28 -92 -39 -109 -1 -1 -47 5
-101 14 -149 24 -428 24 -624 -1 -130 -17 -575 -106 -587 -118 -2 -2 3 -25 11
-50 8 -26 11 -47 8 -47 -3 0 -2 -4 4 -10 6 -6 62 3 157 25 184 44 410 82 547
94 98 8 351 7 395 -2 11 -3 41 -8 68 -11 26 -4 47 -12 47 -17 0 -5 -9 -28 -20
-50 -19 -37 -23 -39 -53 -34 -159 29 -430 23 -655 -16 -151 -25 -435 -89 -445
-99 -10 -9 11 -120 23 -120 4 0 72 16 151 34 153 37 340 70 453 81 117 11 417
5 433 -9 1 0 -7 -21 -18 -46 l-19 -45 -228 0 c-170 -1 -252 -5 -327 -18 -100
-18 -415 -86 -426 -93 -3 -2 0 -36 8 -76 7 -40 16 -84 18 -98 3 -14 10 -52 16
-85 6 -33 13 -69 14 -80 12 -84 105 -487 149 -650 48 -176 121 -407 161 -514
7 -20 37 -99 66 -176 29 -77 59 -157 68 -178 l16 -37 395 -5 c217 -2 413 -6
435 -9 22 -2 87 -7 145 -10 58 -3 152 -9 210 -12 58 -3 123 -8 145 -10 60 -8
1058 -16 1076 -9 8 3 15 14 16 23 1 10 9 47 18 83 9 35 18 72 20 81 13 66 84
318 125 441 l48 147 -32 -1 c-17 0 -103 -6 -191 -13 -147 -12 -568 -16 -579
-6 -2 3 -6 25 -7 49 l-3 44 239 0 c266 -1 597 23 616 44 3 5 16 33 27 63 18
50 76 188 176 419 l36 84 -32 -7 c-57 -11 -291 -54 -328 -60 -43 -6 -103 -14
-195 -25 -38 -5 -164 -9 -279 -10 l-209 -2 6 33 c3 18 10 45 16 60 l10 26 153
0 c265 -2 451 23 895 119 17 4 33 35 83 162 64 160 170 455 170 472 0 5 -10
14 -23 20 -17 8 -67 -2 -237 -45 -346 -89 -508 -119 -728 -132 l-113 -6 7 28
c18 76 15 74 111 75 49 0 95 2 103 3 8 2 44 6 80 10 122 13 620 122 638 141 2
2 -29 25 -70 51 -78 51 -249 177 -307 228 -51 43 -373 366 -455 456 -157 170
-377 389 -506 501 -92 80 -253 209 -261 209 -3 0 7 -55 22 -122z"/>
</g>
</svg>
