<?xml version="1.0" standalone="no"?>
<!DOCTYPE svg PUBLIC "-//W3C//DTD SVG 20010904//EN"
 "http://www.w3.org/TR/2001/REC-SVG-20010904/DTD/svg10.dtd">
<svg version="1.0" xmlns="http://www.w3.org/2000/svg"
 width="558.000000pt" height="558.000000pt" viewBox="0 0 558.000000 558.000000"
 preserveAspectRatio="xMidYMid meet">
<metadata>
Created by potrace 1.13, written by Peter Selinger 2001-2015
</metadata>
<g transform="translate(0.000000,558.000000) scale(0.100000,-0.100000)"
fill="#000000" stroke="none">
<path d="M2600 5083 c0 -14 50 -198 115 -423 136 -472 168 -625 181 -877 4
-71 3 -123 -2 -123 -5 0 -27 26 -49 57 -57 80 -293 316 -405 404 -173 136
-247 187 -664 448 l-178 112 -27 -24 c-86 -81 -206 -194 -271 -256 -87 -83
-92 -70 55 -153 50 -28 106 -60 125 -71 19 -11 71 -40 115 -65 131 -73 273
-160 390 -240 99 -67 131 -92 240 -182 41 -34 174 -171 185 -191 8 -14 4 -15
-42 -3 -151 39 -478 58 -678 40 -265 -26 -900 -154 -920 -186 -4 -7 -8 -54 -9
-105 -1 -51 -4 -104 -6 -116 -2 -13 -6 -81 -10 -151 -5 -93 -3 -128 5 -128 6
0 89 22 183 49 481 138 724 181 992 176 115 -3 236 -16 287 -31 12 -3 -7 -17
-58 -44 -285 -147 -550 -397 -786 -740 -63 -91 -192 -292 -228 -355 -10 -16
-27 -46 -38 -65 l-21 -35 161 -190 c88 -104 165 -191 172 -193 6 -1 24 24 41
55 225 438 461 763 680 934 81 64 174 124 180 117 3 -3 -6 -37 -20 -77 -60
-178 -85 -361 -80 -591 4 -180 13 -265 51 -470 21 -114 101 -460 108 -467 6
-6 519 -53 525 -48 2 2 -23 97 -54 211 -66 239 -112 452 -123 574 -18 208 -2
421 42 546 l13 39 31 -60 c81 -161 286 -393 482 -547 149 -117 368 -259 637
-413 l31 -18 144 124 c79 68 145 126 148 129 3 3 28 26 57 52 36 33 48 50 40
56 -7 5 -48 29 -92 52 -414 223 -662 403 -822 596 -53 65 -128 182 -121 189 2
3 40 -2 84 -11 108 -22 396 -26 541 -8 156 19 373 64 598 124 253 68 325 89
326 98 0 4 2 14 3 22 2 8 6 76 10 150 3 74 9 183 12 241 4 59 4 111 0 117 -3
6 -101 -18 -243 -60 -451 -131 -633 -166 -858 -166 -77 1 -153 4 -169 7 l-29
6 35 27 c122 93 315 318 454 528 79 120 411 691 417 716 2 11 -353 408 -358
401 -5 -5 -144 -257 -195 -352 -30 -55 -64 -120 -77 -144 -56 -103 -160 -273
-223 -363 -78 -110 -100 -136 -192 -233 -53 -55 -66 -65 -62 -45 7 35 8 368 0
416 -3 21 -8 64 -11 94 -8 76 -42 264 -70 390 -32 138 -175 703 -180 708 -2 2
-70 6 -152 8 -81 2 -199 6 -260 8 -62 2 -113 1 -113 -1z"/>
</g>
</svg>
