<?xml version="1.0" standalone="no"?>
<!DOCTYPE svg PUBLIC "-//W3C//DTD SVG 20010904//EN"
 "http://www.w3.org/TR/2001/REC-SVG-20010904/DTD/svg10.dtd">
<svg version="1.0" xmlns="http://www.w3.org/2000/svg"
 width="558.000000pt" height="558.000000pt" viewBox="0 0 558.000000 558.000000"
 preserveAspectRatio="xMidYMid meet">
<metadata>
Created by potrace 1.13, written by Peter Selinger 2001-2015
</metadata>
<g transform="translate(0.000000,558.000000) scale(0.100000,-0.100000)"
fill="#000000" stroke="none">
<path d="M2640 4789 c-267 -21 -473 -76 -706 -190 -135 -65 -330 -192 -414
-268 l-55 -50 833 -1 832 0 0 -35 0 -35 -869 0 -869 0 -56 -57 -55 -58 924 -3
925 -2 0 -30 0 -30 -952 -2 -953 -3 -48 -70 -48 -70 1006 -3 1005 -2 0 -30 0
-30 -1027 -2 -1028 -3 -58 -115 c-122 -244 -183 -457 -212 -734 -12 -113 -6
-350 10 -455 3 -13 7 -45 11 -70 21 -151 93 -370 183 -556 126 -260 313 -493
551 -688 242 -198 626 -365 925 -402 28 -3 77 -10 110 -14 89 -13 335 -6 460
13 369 56 721 217 990 452 l90 79 -653 3 -652 2 0 30 0 30 684 0 684 0 47 53
c27 28 70 81 97 117 l50 65 -796 3 -796 2 0 30 0 30 818 0 817 0 41 73 42 72
-859 3 -859 2 0 30 0 30 875 0 875 0 26 58 c120 270 181 587 171 887 -3 88 -7
169 -10 181 -3 12 -8 45 -12 75 -9 80 -52 249 -92 363 -170 494 -544 912
-1019 1141 -297 144 -655 211 -984 184z"/>
</g>
</svg>
