<?xml version="1.0" standalone="no"?>
<!DOCTYPE svg PUBLIC "-//W3C//DTD SVG 20010904//EN"
 "http://www.w3.org/TR/2001/REC-SVG-20010904/DTD/svg10.dtd">
<svg version="1.0" xmlns="http://www.w3.org/2000/svg"
 width="512.000000pt" height="512.000000pt" viewBox="0 0 512.000000 512.000000"
 preserveAspectRatio="xMidYMid meet">
<metadata>
Created by potrace 1.13, written by Peter Selinger 2001-2015
</metadata>
<g transform="translate(0.000000,512.000000) scale(0.100000,-0.100000)"
fill="#000000" stroke="none">
<path d="M2523 4493 c4 -3 -1 -18 -10 -32 -9 -14 -20 -44 -23 -66 -4 -31 -9
-39 -23 -37 -10 2 -17 -3 -17 -12 0 -8 -5 -16 -11 -18 -5 -2 -13 -22 -16 -46
-7 -52 -22 -65 -65 -57 -59 11 -58 13 -33 -95 14 -61 13 -101 -3 -99 -26 4
-51 -3 -56 -16 -3 -8 8 -35 24 -59 43 -63 38 -83 -16 -67 l-29 8 -2 -54 c-1
-29 -7 -62 -13 -73 -8 -16 -5 -28 15 -60 31 -49 31 -50 0 -50 -17 0 -23 -4
-19 -14 3 -8 1 -17 -4 -20 -10 -6 0 -85 16 -126 5 -14 17 -32 26 -39 19 -16
12 -33 -9 -24 -19 7 -45 -14 -45 -37 0 -9 9 -25 20 -35 28 -25 28 -85 0 -85
-16 0 -19 5 -14 24 3 14 0 29 -8 37 -8 8 -19 21 -24 30 -5 9 -33 43 -62 75
-69 77 -68 76 -75 105 -4 14 -16 36 -27 49 -11 13 -34 51 -51 85 -21 43 -36
61 -50 62 -23 2 -89 49 -89 64 0 5 -6 9 -12 9 -23 1 -68 48 -69 72 -1 22 -2
19 -15 -20 -6 -19 -42 21 -50 55 -3 16 -13 42 -22 60 -16 31 -16 32 -50 17
-19 -8 -41 -14 -49 -14 -15 0 -135 114 -128 122 6 5 -6 7 -70 8 -38 1 -49 6
-63 28 -20 32 -42 56 -42 47 0 -4 -7 1 -16 9 -8 9 -26 16 -38 16 -12 0 -26 3
-30 7 -3 4 -15 7 -26 8 -17 1 -18 0 -4 -26 17 -34 17 -39 2 -39 -7 0 -22 14
-33 31 -11 17 -32 37 -47 45 -23 12 -29 12 -41 0 -15 -15 -57 -11 -57 5 0 5
-7 9 -15 9 -8 0 -15 5 -15 10 0 6 -9 10 -19 10 -11 0 -36 18 -57 40 -52 55
-69 53 -61 -5 4 -25 16 -64 28 -87 15 -29 19 -52 15 -76 -4 -30 0 -40 35 -76
45 -47 50 -89 12 -94 -13 -2 -23 -5 -23 -8 0 -6 39 -44 46 -44 7 0 23 -17 51
-52 18 -24 19 -33 11 -73 -8 -38 -6 -54 16 -107 13 -35 42 -82 62 -105 21 -23
38 -50 39 -60 4 -40 18 -63 68 -105 59 -51 80 -61 95 -46 13 13 27 -70 17
-101 -5 -16 -3 -20 10 -15 10 4 15 2 13 -7 -2 -9 8 -15 26 -17 22 -3 26 -6 15
-13 -10 -6 -5 -9 19 -9 17 0 32 -4 32 -10 0 -5 7 -7 15 -4 8 4 15 2 15 -3 0
-6 11 -15 25 -21 14 -6 24 -15 23 -19 0 -5 2 -16 5 -25 4 -10 10 -26 14 -35 3
-10 5 -23 5 -28 -2 -13 50 -45 71 -45 8 0 18 7 21 16 10 25 7 37 -8 31 -8 -3
-18 5 -25 20 -13 28 -7 43 10 26 6 -6 17 -9 23 -7 12 5 60 -49 62 -70 1 -6 2
-16 3 -23 0 -6 10 -15 21 -18 11 -3 20 -13 20 -20 0 -9 9 -13 28 -11 18 3 37
-5 60 -24 28 -23 32 -32 26 -54 -5 -21 -11 -26 -26 -23 -10 3 -31 -1 -45 -8
-22 -12 -30 -12 -54 1 -15 7 -30 18 -34 23 -3 6 -18 6 -38 0 -40 -11 -82 -12
-105 0 -29 15 -87 31 -110 31 -18 0 -22 -6 -22 -29 0 -37 -9 -43 -40 -25 -15
8 -19 13 -10 14 9 0 2 9 -15 20 -28 19 -31 19 -43 3 -7 -10 -10 -29 -6 -45 5
-25 3 -28 -19 -28 -13 0 -35 8 -48 18 -43 33 -57 33 -91 3 -29 -26 -31 -31
-20 -55 10 -23 9 -26 -6 -26 -9 0 -37 9 -61 20 -55 26 -63 25 -91 -5 -23 -24
-23 -26 -5 -39 18 -13 18 -14 -1 -39 -18 -24 -23 -25 -96 -21 -60 3 -76 1 -72
-9 3 -8 -7 -19 -22 -25 -21 -10 -25 -17 -20 -37 5 -21 2 -25 -21 -31 -16 -3
-32 -7 -38 -8 -12 -3 43 -33 70 -38 24 -4 35 -17 35 -43 0 -25 87 -95 118 -95
11 0 23 7 26 15 4 13 10 14 26 5 43 -23 7 -63 -50 -54 -16 3 -20 1 -12 -4 7
-5 60 -7 118 -4 l105 5 -3 -28 c-3 -28 -2 -29 52 -31 80 -3 122 -14 127 -34 4
-16 8 -16 33 -4 21 11 39 12 70 5 23 -5 48 -7 55 -4 8 2 22 -4 32 -14 30 -30
50 -33 76 -13 24 19 79 35 74 22 -1 -4 1 -7 4 -7 3 0 14 -7 25 -15 18 -15 18
-14 1 13 -17 27 -17 27 9 37 20 8 32 7 50 -5 48 -31 122 -7 111 36 -3 11 -3
19 -1 19 7 0 44 -64 44 -76 0 -6 -22 -16 -49 -24 -28 -7 -49 -16 -48 -19 3
-11 -33 -69 -45 -74 -7 -2 -29 4 -48 13 -19 10 -46 20 -60 21 -27 4 -28 0 -14
-73 8 -45 -11 -58 -58 -40 -21 8 -28 8 -27 -1 1 -7 0 -19 -4 -27 -3 -8 -8 -27
-11 -42 -7 -30 -21 -34 -74 -19 -29 9 -33 7 -38 -13 -3 -13 -5 -30 -4 -37 6
-42 -1 -59 -23 -59 -13 0 -28 5 -34 11 -18 18 -35 0 -28 -28 6 -25 -13 -83
-27 -83 -4 0 -5 -7 -2 -15 8 -19 -5 -19 -31 -2 -28 19 -63 31 -49 17 11 -11
-13 -129 -30 -141 -4 -4 -3 -10 3 -13 21 -13 11 -26 -19 -26 -33 0 -48 -21
-44 -62 2 -23 -2 -29 -22 -33 -83 -17 -77 -13 -69 -53 3 -20 7 -43 7 -49 1 -7
5 -13 9 -13 16 0 -3 -27 -25 -38 -18 -8 -23 -17 -21 -41 1 -18 -2 -29 -9 -28
-6 1 -10 -4 -8 -11 1 -7 -4 -20 -13 -28 -8 -9 -15 -12 -15 -7 0 4 -11 -11 -24
-34 l-24 -42 19 -38 c25 -49 24 -70 -3 -84 -13 -7 -24 -12 -25 -11 -11 8 -30
-2 -41 -19 -11 -17 -11 -20 0 -13 7 4 5 -2 -5 -13 -10 -11 -20 -37 -24 -56 -5
-31 -1 -41 25 -69 17 -18 40 -44 52 -58 12 -14 19 -19 15 -12 -3 6 -2 12 2 12
5 0 17 16 28 36 10 19 27 40 37 45 16 8 71 5 88 -6 4 -2 22 9 41 25 41 35 58
37 93 9 33 -26 51 -20 60 22 7 38 23 59 43 59 7 0 23 9 35 20 12 10 25 17 30
13 6 -3 35 -6 66 -7 l57 -1 3 43 c2 23 7 40 13 37 5 -4 9 -2 9 4 0 9 44 6 62
-5 5 -3 15 0 23 6 13 10 12 17 0 47 -8 20 -15 40 -15 45 0 10 51 7 117 -7 26
-6 33 -3 43 15 6 12 9 27 7 35 -3 7 0 18 6 25 9 10 9 11 0 6 -9 -5 -11 -2 -7
8 4 10 19 16 40 16 41 0 51 17 36 60 -12 32 -5 38 17 18 11 -10 13 -10 7 0 -5
9 7 12 48 12 67 0 89 17 80 63 -3 17 -7 33 -10 36 -8 8 29 41 46 41 10 0 23 7
30 15 10 12 16 13 28 3 14 -11 15 -10 8 7 -9 23 -9 24 -7 46 1 17 41 39 71 39
14 0 20 11 26 42 5 24 7 54 6 68 -10 84 -10 85 29 82 23 -2 40 2 49 12 17 21
30 20 30 -3 0 -27 -25 -72 -36 -63 -5 4 6 -9 24 -29 17 -19 32 -37 32 -41 0
-3 -11 -17 -25 -32 -19 -21 -25 -38 -25 -72 0 -25 -5 -54 -10 -65 -9 -16 -7
-19 9 -19 11 0 25 -10 32 -21 6 -12 7 -19 2 -16 -16 10 -35 -9 -35 -34 0 -13
6 -43 13 -66 11 -37 11 -44 -5 -62 -17 -19 -17 -20 4 -23 16 -2 26 -17 40 -55
10 -28 16 -54 13 -57 -3 -2 -2 -19 2 -36 5 -24 11 -30 25 -25 30 10 42 -24 20
-56 -18 -25 -18 -27 -2 -59 9 -19 26 -35 36 -36 26 -4 67 -46 68 -70 1 -10 -2
-30 -6 -43 -5 -15 -5 -21 2 -17 7 4 8 -3 2 -24 -8 -29 -8 -30 18 -23 58 15 95
-6 66 -38 -21 -23 -18 -30 38 -84 l51 -50 -29 52 c-34 62 -27 86 27 91 19 2
40 8 46 14 9 7 18 6 30 -3 16 -13 16 -11 -1 15 -26 40 -15 114 17 112 13 -1
26 8 34 24 7 15 13 19 13 10 1 -8 6 -4 11 9 5 14 7 44 3 68 -10 70 13 110 63
104 9 -1 9 6 0 28 -9 24 -8 32 6 46 23 23 30 56 18 88 -9 22 -8 27 5 27 13 0
12 5 -4 28 -19 25 -26 50 -23 80 0 6 12 12 24 12 36 0 39 10 12 42 -14 16 -25
33 -25 38 0 12 19 23 43 24 31 2 28 31 -8 73 -32 37 -32 40 -20 76 7 20 18 44
25 52 9 11 6 23 -21 60 -38 53 -32 71 10 31 16 -16 34 -26 39 -22 16 10 48
-36 86 -124 53 -123 68 -150 80 -150 20 0 137 -129 162 -177 l23 -47 11 28 c5
15 10 32 10 37 0 18 22 8 51 -22 16 -17 29 -37 29 -45 0 -8 5 -14 11 -14 6 0
8 -7 5 -16 -4 -11 -2 -15 6 -12 7 3 21 -4 31 -14 9 -10 14 -18 11 -18 -3 0 2
-7 11 -16 9 -9 19 -30 22 -46 4 -19 16 -34 35 -44 45 -23 60 -13 52 36 -5 32
-3 40 8 40 18 0 95 -83 111 -120 17 -38 29 -46 62 -47 17 0 50 -9 75 -21 25
-11 56 -23 70 -26 14 -3 47 -24 74 -46 32 -26 55 -39 65 -35 9 4 39 9 67 12
47 5 52 3 88 -31 21 -19 36 -41 33 -49 -3 -7 1 -21 9 -32 8 -10 14 -15 14 -9
0 5 4 3 9 -4 6 -10 13 -4 27 25 18 35 22 38 57 35 21 -2 38 1 38 7 3 26 4 30
12 37 17 18 3 45 -48 90 -90 79 -118 141 -75 164 24 13 26 47 3 80 -22 32 -33
40 -60 40 -13 0 -23 5 -23 10 0 6 -3 9 -7 8 -13 -5 -58 45 -59 64 -1 13 11 22
37 30 22 6 39 15 39 19 0 7 -13 20 -97 101 -15 15 -34 34 -40 42 -16 19 -42
86 -40 108 1 22 -63 119 -74 112 -5 -3 -9 0 -9 6 0 6 -8 9 -18 6 -32 -10 -104
88 -113 154 -4 27 -21 50 -38 50 -6 0 -11 4 -11 10 0 5 -7 6 -17 3 -12 -5 -14
-3 -8 7 5 9 4 11 -4 6 -24 -15 -47 5 -66 57 -10 28 -27 64 -38 79 -20 27 -57
44 -57 26 0 -5 -4 -6 -10 -3 -11 7 -4 -14 17 -55 12 -23 11 -25 -8 -28 -22 -4
-74 41 -65 56 3 6 -1 12 -9 16 -8 3 -15 14 -15 25 0 14 -5 19 -15 14 -10 -3
-15 0 -13 8 2 8 -4 13 -14 13 -10 -1 -18 1 -18 5 0 4 -13 6 -29 3 -22 -3 -32
1 -40 17 -7 12 -21 21 -32 21 -29 0 -33 23 -11 60 l20 32 41 -37 c26 -24 46
-35 58 -31 10 3 31 -1 46 -9 29 -15 67 -6 67 14 0 5 9 7 20 4 11 -3 20 -9 20
-13 0 -5 9 -12 20 -15 11 -3 20 -12 20 -20 0 -14 57 -32 67 -21 4 3 -1 14 -10
24 -19 20 -23 37 -7 27 6 -3 10 3 10 14 0 25 7 26 50 5 27 -14 38 -15 70 -4
29 10 42 10 60 0 20 -11 22 -10 17 4 -21 51 -21 52 5 29 17 -16 37 -23 66 -23
27 0 42 -5 43 -12 0 -7 5 -3 11 10 6 12 21 25 34 28 12 3 24 14 27 24 3 12 20
23 46 30 35 9 46 8 81 -10 36 -18 41 -19 47 -5 3 9 1 27 -6 41 -14 31 1 64 30
64 11 0 37 -11 57 -25 20 -14 44 -25 52 -25 18 0 24 38 8 57 -5 7 -7 24 -4 38
5 21 12 25 45 23 51 -2 60 6 55 48 -6 51 2 58 44 33 l37 -21 -30 26 c-30 26
-71 43 -81 33 -5 -5 -11 -28 -13 -49 -2 -17 -21 -7 -38 19 -13 20 -14 28 -5
31 7 2 16 11 21 20 7 14 4 17 -22 18 -69 3 -193 53 -212 85 -10 15 19 10 45
-8 l24 -17 -23 32 c-12 18 -31 36 -41 42 -15 8 -19 5 -24 -14 -7 -28 -30 -36
-68 -23 -25 8 -32 17 -30 38 1 4 -10 17 -23 29 -14 13 -25 20 -25 16 0 -4 -18
10 -41 31 -52 48 -74 57 -95 36 -16 -16 -15 -48 1 -85 5 -13 3 -18 -8 -18 -14
0 -30 28 -31 55 -1 6 -5 11 -9 12 -5 1 -15 10 -22 20 -13 17 -14 16 -20 -8 -4
-15 -17 -32 -30 -39 -21 -11 -29 -10 -60 11 -19 13 -38 33 -41 43 -6 18 -7 18
-19 3 -7 -9 -30 -23 -52 -31 -36 -13 -44 -12 -96 10 -98 39 -94 39 -91 -6 1
-31 -2 -41 -18 -46 -12 -3 -27 1 -40 13 -11 10 -28 17 -38 15 -10 -2 -20 4
-24 13 -5 13 1 16 36 13 38 -3 42 -1 49 26 5 16 6 32 4 36 -9 14 45 31 65 20
10 -5 28 -10 40 -10 19 0 21 4 15 29 -5 22 -2 30 12 36 26 12 37 12 50 2 7 -5
24 -6 38 -3 27 7 30 21 16 94 -5 23 -5 45 0 48 5 2 27 -4 51 -16 55 -26 66
-25 79 8 25 59 30 67 54 68 50 3 57 11 52 57 -2 23 -8 52 -12 64 -7 22 -6 22
24 12 17 -6 47 -8 66 -5 36 7 39 13 35 67 -1 21 6 30 33 43 19 9 42 16 51 16
14 0 13 7 -8 47 -29 53 -26 63 13 63 26 0 61 26 61 46 0 5 14 17 30 26 35 20
38 40 10 68 -21 21 -26 55 -11 79 6 10 25 14 56 13 l48 -2 -7 48 c-6 43 -3 52
19 77 24 25 25 29 11 44 -21 23 -21 23 17 69 30 35 34 47 35 101 0 33 3 65 7
71 3 5 22 10 42 10 35 0 35 0 19 23 -9 12 -20 32 -25 43 -11 25 -59 60 -81 59
-10 0 -15 -10 -15 -30 0 -49 -11 -57 -64 -50 -37 5 -52 3 -70 -12 l-22 -18 20
-27 c31 -39 26 -53 -11 -30 -29 18 -36 19 -58 7 -17 -9 -30 -10 -43 -3 -38 20
-127 -13 -127 -47 0 -7 -17 -15 -38 -18 -20 -4 -45 -15 -54 -26 -22 -26 -86
-21 -129 10 -45 31 -60 12 -31 -40 l22 -38 -21 -27 c-23 -30 -78 -36 -102 -11
-18 18 -27 10 -27 -27 0 -30 -2 -31 -65 -32 l-40 -1 3 -56 c3 -40 -1 -60 -12
-71 -8 -9 -12 -19 -8 -23 4 -4 -10 2 -32 13 -45 24 -57 22 -74 -17 -12 -26
-18 -29 -55 -28 -39 2 -42 0 -40 -23 5 -53 4 -76 -3 -108 -5 -26 -12 -34 -35
-39 -16 -3 -32 -10 -35 -14 -3 -5 -14 -4 -25 1 -15 9 -21 7 -25 -5 -3 -8 -10
-12 -15 -9 -14 8 -10 -19 6 -40 12 -16 12 -21 0 -32 -7 -8 -16 -14 -20 -14 -3
0 -19 -10 -35 -22 -25 -18 -27 -24 -18 -42 6 -11 12 -31 14 -43 2 -20 -4 -23
-49 -30 -29 -4 -56 -6 -61 -5 -5 2 -6 -4 -2 -13 8 -21 -14 -15 -27 6 -7 11 -3
23 13 42 13 14 26 24 30 22 4 -2 -2 13 -12 35 -21 42 -18 60 11 60 37 0 45 26
23 72 -12 23 -19 45 -16 50 3 4 0 8 -6 8 -6 0 -5 14 5 37 9 20 13 49 10 63 -3
16 2 44 14 71 38 81 17 153 -41 142 -15 -3 -29 2 -38 12 -13 15 -12 20 9 36
13 11 30 19 38 19 8 0 13 7 11 18 -4 17 -11 18 -63 7 -28 -6 -31 -3 -47 35
-15 35 -16 49 -6 85 13 46 1 75 -29 75 -25 0 -45 29 -50 73 -7 70 -13 89 -26
84 -7 -2 -24 3 -39 11 -25 14 -34 30 -52 85 -3 9 -11 17 -17 17 -7 0 -9 -3 -6
-7z m-512 -2930 c13 -16 12 -17 -3 -4 -10 7 -18 15 -18 17 0 8 8 3 21 -13z"/>
</g>
</svg>
