<?xml version="1.0" standalone="no"?>
<!DOCTYPE svg PUBLIC "-//W3C//DTD SVG 20010904//EN"
 "http://www.w3.org/TR/2001/REC-SVG-20010904/DTD/svg10.dtd">
<svg version="1.0" xmlns="http://www.w3.org/2000/svg"
 width="512.000000pt" height="512.000000pt" viewBox="0 0 512.000000 512.000000"
 preserveAspectRatio="xMidYMid meet">
<metadata>
Created by potrace 1.13, written by Peter Selinger 2001-2015
</metadata>
<g transform="translate(0.000000,512.000000) scale(0.100000,-0.100000)"
fill="#000000" stroke="none">
<path d="M1643 4336 c8 -50 -10 -52 -105 -11 -26 11 -22 -11 7 -43 14 -15 25
-32 25 -39 0 -7 5 -13 10 -13 6 0 10 -11 10 -25 0 -28 -22 -33 -65 -13 -49 22
-44 -4 13 -66 33 -36 43 -76 18 -76 -7 0 -27 5 -45 11 -18 6 -34 9 -37 7 -2
-3 12 -22 31 -42 41 -44 58 -73 50 -86 -6 -10 -49 -4 -77 11 -14 7 -18 6 -18
-6 0 -8 4 -15 10 -15 15 0 90 -80 90 -97 0 -13 -8 -14 -40 -9 -46 7 -51 -3
-14 -30 44 -32 60 -48 67 -66 5 -14 0 -16 -39 -13 -49 4 -58 -10 -16 -26 33
-13 72 -48 72 -66 0 -9 -14 -13 -42 -14 l-43 -1 28 -12 c16 -7 32 -17 35 -22
4 -5 19 -15 35 -21 45 -21 35 -43 -20 -44 l-48 0 40 -16 c53 -22 97 -52 90
-64 -4 -5 -30 -9 -58 -10 -41 0 -47 -2 -29 -9 12 -5 22 -16 22 -25 0 -13 -13
-17 -70 -17 -3 0 -30 3 -60 6 -53 7 -54 7 -37 -12 25 -28 21 -44 -10 -42 -16
1 -62 1 -103 0 -65 -2 -71 -4 -47 -13 27 -11 35 -31 18 -41 -11 -7 -105 -18
-143 -17 -38 2 -45 -18 -9 -25 65 -13 6 -50 -93 -59 -75 -7 -100 -20 -57 -28
44 -9 43 -43 -1 -52 -18 -4 -39 -11 -48 -16 -8 -5 -34 -13 -58 -19 -23 -6 -40
-15 -37 -21 4 -5 10 -7 14 -5 4 3 13 1 20 -3 21 -13 4 -48 -27 -54 -46 -9
-132 -41 -132 -48 0 -4 14 -12 31 -18 17 -6 29 -16 27 -23 -5 -15 -125 -77
-149 -77 -9 -1 -19 -7 -22 -15 -4 -10 5 -16 29 -21 52 -9 40 -34 -36 -71 -36
-18 -70 -37 -77 -43 -7 -6 -18 -11 -25 -11 -10 0 -9 -3 1 -9 8 -5 33 -8 55 -6
56 6 73 -6 59 -38 -7 -14 -21 -28 -32 -32 -12 -3 -21 -12 -21 -19 0 -12 5 -12
100 -5 37 3 45 1 48 -14 4 -20 -20 -48 -50 -60 -10 -3 -18 -11 -18 -16 0 -6 6
-8 13 -6 6 3 26 7 42 9 17 2 47 7 68 11 34 7 37 5 37 -15 0 -12 -13 -35 -29
-51 -34 -33 -30 -35 29 -14 60 21 110 25 110 9 0 -7 -14 -29 -31 -49 -17 -19
-28 -35 -23 -35 4 0 36 11 71 25 88 36 106 22 52 -39 l-30 -35 28 9 c15 4 45
15 65 24 21 9 44 16 53 16 20 0 19 -29 -2 -52 -9 -10 -14 -21 -11 -24 6 -5 49
15 58 28 4 4 21 11 40 14 35 8 36 3 15 -49 -6 -15 0 -14 40 8 73 38 93 31 59
-20 -14 -22 -15 -25 -1 -25 8 0 17 4 19 8 5 14 65 52 81 52 24 0 10 -32 -34
-80 -21 -23 -39 -46 -39 -50 0 -5 -6 -11 -12 -13 -10 -4 -10 -6 -1 -6 6 -1 15
4 18 9 11 18 35 11 35 -10 0 -21 -31 -72 -61 -100 -9 -8 -20 -26 -24 -40 -6
-20 -5 -23 6 -12 20 19 39 14 39 -9 0 -19 -36 -97 -51 -109 -4 -3 -9 -15 -13
-27 -6 -18 -4 -22 8 -17 9 3 16 10 16 15 0 5 7 9 15 9 24 0 12 -87 -15 -110
-6 -5 -40 -86 -40 -96 0 -2 10 4 22 16 45 42 59 17 36 -64 -6 -22 -16 -47 -21
-54 -5 -7 -11 -24 -13 -38 l-2 -26 22 21 c49 47 57 12 24 -105 -8 -28 -11 -59
-8 -70 6 -17 8 -17 19 4 6 12 18 22 26 22 20 0 23 -34 9 -110 -11 -63 -10 -98
3 -93 6 3 14 11 17 18 2 7 13 12 23 11 15 -3 18 -13 19 -67 1 -35 -2 -73 -7
-85 -4 -11 -3 -27 1 -35 8 -11 12 -11 23 5 36 50 61 13 56 -81 -3 -49 10 -66
26 -34 6 10 19 36 29 58 11 21 25 41 30 45 17 11 35 -11 44 -55 l8 -42 22 49
c12 27 22 54 22 61 0 7 7 18 15 25 20 17 45 -3 45 -35 0 -28 9 -55 19 -55 6 0
10 17 13 58 1 6 5 12 10 12 4 0 8 8 8 18 1 22 22 56 37 59 12 3 17 -8 28 -66
l7 -34 13 29 c6 16 15 51 19 77 10 64 47 63 61 -1 7 -36 13 -37 20 -3 2 11 7
27 11 33 5 7 7 24 6 38 -1 14 3 32 8 40 12 19 31 2 46 -43 l11 -32 12 53 c6
29 11 62 11 72 0 13 7 20 20 20 14 0 21 -9 26 -36 10 -54 23 -27 25 49 1 55 4
67 16 63 8 -3 19 -6 24 -6 5 0 9 -9 9 -19 0 -11 5 -23 10 -26 6 -4 10 18 10
58 0 35 3 67 7 70 10 11 43 -24 43 -45 0 -11 4 -16 11 -12 6 3 9 14 6 24 -2
10 -1 24 3 31 7 10 11 10 24 0 9 -8 16 -20 16 -27 0 -8 5 -14 10 -14 6 0 10
-11 10 -24 0 -14 5 -28 10 -31 6 -3 10 -15 10 -26 0 -10 5 -19 10 -19 6 0 10
9 10 20 0 44 33 18 71 -56 39 -75 49 -86 49 -51 0 33 12 34 42 2 34 -36 42
-46 70 -94 l27 -44 -3 36 c-5 57 22 47 84 -33 30 -38 57 -70 61 -70 3 0 4 13
1 30 -7 48 21 38 95 -35 36 -36 67 -65 69 -65 1 0 -1 14 -6 31 -10 35 9 50 37
28 10 -8 24 -18 32 -24 7 -5 27 -23 44 -40 16 -16 34 -29 39 -28 4 2 8 -2 8
-7 0 -6 4 -10 9 -10 6 0 6 12 0 32 -5 18 -9 34 -9 36 0 1 11 1 23 0 13 -2 47
-23 74 -46 28 -23 55 -42 61 -42 6 0 12 -6 15 -12 2 -7 7 -10 11 -6 4 3 3 15
-3 26 -11 22 -5 52 10 52 5 0 28 -12 52 -27 23 -15 45 -26 50 -25 4 1 7 -3 7
-8 0 -6 5 -10 11 -10 6 0 17 -7 25 -15 33 -32 44 -13 20 34 -22 41 -6 60 36
43 55 -22 68 -25 68 -13 0 6 -4 11 -10 11 -5 0 -10 7 -10 15 0 8 -4 15 -8 15
-11 0 -56 90 -48 97 3 3 22 2 43 -2 21 -5 44 -9 51 -11 20 -4 14 9 -26 51 -21
22 -41 51 -45 64 -5 21 -3 23 26 18 18 -3 42 -7 55 -10 20 -5 19 -2 -13 38
-20 24 -42 46 -50 49 -8 3 -15 14 -15 26 0 17 5 19 35 15 20 -2 40 -7 45 -10
6 -3 10 -1 10 4 0 12 -59 71 -70 71 -4 0 -10 12 -13 26 -4 25 -3 26 39 20 35
-4 42 -2 37 10 -3 8 -10 14 -15 14 -5 0 -23 13 -40 30 -16 16 -34 30 -40 30
-5 0 -8 6 -6 12 6 16 64 21 89 8 15 -8 17 -7 13 5 -4 8 -13 15 -20 15 -8 0
-17 7 -20 15 -4 8 -11 15 -18 15 -12 0 -66 43 -66 53 0 3 21 7 48 9 l47 3 -32
15 c-18 8 -33 18 -33 21 0 4 -11 10 -25 13 -16 4 -25 13 -25 26 0 19 9 23 53
23 23 0 16 6 -40 37 -76 41 -70 54 23 47 61 -4 74 -3 57 5 -13 6 -23 17 -23
25 0 11 17 13 93 8 79 -4 90 -3 75 8 -40 31 -13 48 65 43 27 -2 61 0 75 4 27
8 27 9 5 15 -23 7 -31 29 -15 39 5 3 41 8 82 11 72 6 132 24 83 25 -26 0 -39
18 -25 32 6 6 52 20 104 33 79 19 89 23 66 30 -28 7 -34 20 -20 41 4 6 43 20
86 30 44 11 81 25 84 32 2 7 0 12 -5 11 -30 -5 -44 2 -41 23 2 17 14 26 43 36
22 7 49 16 60 22 11 5 30 12 43 15 27 8 29 25 3 25 -22 0 -45 25 -37 39 7 11
64 41 78 41 19 0 98 41 98 51 0 6 -4 8 -10 4 -8 -5 -24 1 -59 22 -12 7 40 47
89 70 77 35 81 47 17 53 -44 4 -52 8 -55 27 -3 17 6 28 32 44 41 24 40 38 -1
33 -34 -3 -93 -6 -110 -5 -7 1 -13 8 -13 15 0 18 43 66 59 66 6 0 11 4 11 8 0
9 -47 8 -80 -3 -80 -25 -114 0 -62 46 18 16 32 31 32 33 0 7 -71 -4 -117 -19
-40 -13 -43 -12 -43 4 0 10 12 30 27 45 14 14 24 29 21 31 -3 3 -34 -4 -69
-15 -35 -11 -65 -20 -66 -20 -11 0 1 43 18 64 12 15 19 30 15 33 -3 4 -6 1 -6
-5 0 -7 -7 -12 -16 -12 -8 0 -36 -9 -61 -21 -25 -11 -49 -17 -54 -12 -8 8 -3
19 29 72 12 21 12 20 -30 -3 -51 -27 -95 -39 -102 -28 -3 5 6 24 19 42 14 19
22 36 19 39 -3 3 -8 0 -12 -6 -4 -6 -32 -25 -63 -42 -65 -35 -81 -26 -48 28
15 24 16 31 5 31 -8 0 -16 -4 -18 -9 -4 -11 -85 -61 -98 -61 -18 0 0 42 36 84
19 22 31 42 28 45 -4 3 -9 0 -11 -6 -3 -7 -11 -13 -19 -13 -26 0 -15 43 26
101 22 32 40 63 40 71 -1 9 -5 8 -14 -4 -14 -19 -32 -23 -40 -10 -5 8 31 91
44 102 9 8 30 60 30 73 0 7 -5 4 -11 -5 -5 -10 -17 -18 -24 -18 -21 0 -19 52
4 93 10 18 22 49 26 68 7 33 7 34 -12 17 -26 -24 -43 -23 -43 3 0 29 31 123
44 131 6 4 8 8 4 8 -4 0 -3 11 2 25 7 19 6 23 -5 19 -7 -3 -16 -12 -19 -20 -8
-21 -34 -17 -41 6 -7 21 4 92 15 100 4 3 10 25 14 50 6 44 6 44 -10 23 -9 -13
-25 -23 -35 -23 -23 0 -25 40 -8 119 6 28 9 58 7 66 -3 14 -6 13 -25 -4 -40
-37 -44 -32 -47 59 -1 19 2 55 6 79 5 28 4 49 -2 55 -7 7 -10 7 -10 0 0 -6
-10 -20 -21 -33 -33 -36 -44 -13 -44 93 0 75 -2 90 -12 77 -7 -9 -13 -22 -13
-28 0 -7 -4 -13 -10 -13 -5 0 -10 -8 -10 -17 0 -10 -9 -29 -19 -43 -25 -31
-46 -16 -55 40 -4 27 -10 38 -19 34 -8 -3 -14 -11 -14 -18 0 -23 -45 -106 -57
-106 -14 0 -36 41 -36 65 0 32 -18 12 -34 -37 -9 -29 -20 -59 -25 -67 -16 -25
-40 -3 -53 46 -13 54 -11 58 -40 -64 -6 -29 -17 -53 -24 -53 -12 0 -44 58 -44
81 0 21 -11 3 -16 -27 -5 -25 -8 -44 -13 -101 -1 -12 -18 -12 -38 0 -6 4 -15
21 -18 39 -6 27 -9 29 -17 13 -6 -10 -10 -36 -10 -59 1 -23 -3 -47 -7 -55 -14
-21 -41 -5 -47 29 -11 52 -21 33 -22 -41 -1 -38 -4 -75 -8 -80 -8 -14 -44 20
-44 42 0 10 -4 20 -9 24 -6 3 -9 -25 -8 -70 1 -41 0 -75 -3 -75 -16 0 -50 34
-50 50 0 10 -4 21 -8 24 -4 2 -6 -22 -4 -55 3 -48 0 -59 -12 -59 -8 0 -22 16
-31 35 -8 19 -22 50 -30 69 -8 19 -15 40 -15 48 0 10 -2 10 -9 -1 -5 -8 -7
-20 -4 -28 3 -8 -2 -13 -15 -13 -15 0 -28 15 -48 58 -15 31 -30 59 -33 62 -4
3 -12 16 -18 30 -11 23 -12 23 -8 -12 3 -31 0 -38 -14 -38 -15 0 -61 49 -61
65 0 11 -62 97 -66 92 -3 -2 0 -16 6 -31 5 -15 8 -32 4 -37 -8 -14 -57 18 -80
52 -10 16 -22 29 -26 29 -5 0 -8 5 -8 10 0 6 -10 21 -21 33 l-22 22 6 -31 c3
-18 3 -34 0 -37 -11 -12 -61 23 -94 65 -52 67 -75 77 -64 28 11 -51 -30 -40
-94 25 -30 30 -58 55 -63 55 -5 0 -7 -13 -3 -29 3 -17 2 -32 -4 -36 -12 -7
-71 24 -71 37 0 4 -6 8 -13 8 -7 0 -18 9 -25 20 -7 12 -17 18 -21 15 -5 -2
-11 2 -15 10 -3 8 -12 15 -20 15 -11 0 -13 -8 -9 -37 l6 -36 -34 7 c-19 3 -40
14 -46 23 -7 9 -13 13 -13 8 0 -4 -8 1 -17 11 -10 11 -31 25 -47 32 l-29 13 6
-35z"/>
</g>
</svg>
