<?xml version="1.0" standalone="no"?>
<!DOCTYPE svg PUBLIC "-//W3C//DTD SVG 20010904//EN"
 "http://www.w3.org/TR/2001/REC-SVG-20010904/DTD/svg10.dtd">
<svg version="1.0" xmlns="http://www.w3.org/2000/svg"
 width="512.000000pt" height="512.000000pt" viewBox="0 0 512.000000 512.000000"
 preserveAspectRatio="xMidYMid meet">
<metadata>
Created by potrace 1.13, written by Peter Selinger 2001-2015
</metadata>
<g transform="translate(0.000000,512.000000) scale(0.100000,-0.100000)"
fill="#000000" stroke="none">
<path d="M1745 4952 c-4 -37 -4 -86 -1 -107 2 -22 8 -69 12 -105 3 -36 10 -69
14 -75 4 -5 11 -30 15 -55 4 -25 13 -58 20 -75 16 -37 71 -273 79 -338 3 -27
12 -61 20 -75 8 -15 17 -34 20 -42 3 -8 19 -37 36 -65 16 -27 34 -60 39 -72 5
-11 15 -24 21 -28 6 -4 15 -17 21 -28 12 -28 29 -56 52 -81 10 -11 30 -41 44
-66 27 -45 35 -57 63 -88 9 -9 21 -28 28 -42 7 -14 23 -43 37 -65 47 -78 25
-87 -50 -20 -27 25 -57 52 -66 60 -9 8 -21 15 -28 15 -6 0 -14 6 -17 14 -3 8
-19 20 -35 26 -16 7 -29 15 -29 19 0 3 -21 18 -47 31 -27 14 -50 28 -53 31 -3
4 -15 9 -28 13 -12 4 -20 11 -17 15 2 5 -16 14 -40 21 -25 7 -45 16 -45 19 0
4 -17 13 -37 20 -21 8 -56 22 -79 32 -22 10 -52 20 -65 22 -13 3 -35 9 -49 15
-38 15 -127 31 -205 37 -111 8 -155 14 -230 27 -38 7 -77 12 -85 10 -8 -1 -24
2 -35 7 -11 5 -49 14 -85 20 -36 7 -72 13 -80 15 -17 3 -90 23 -136 37 -17 5
-42 9 -57 9 -14 0 -29 5 -32 10 -4 6 -10 8 -15 5 -5 -3 -36 1 -69 10 -81 21
-82 20 -70 -15 6 -16 15 -30 20 -30 5 0 17 -17 28 -37 10 -21 33 -51 50 -67
17 -16 28 -33 25 -38 -3 -4 0 -8 6 -8 7 0 27 -15 46 -32 64 -62 95 -88 105
-88 6 0 7 -4 4 -10 -3 -5 2 -10 12 -10 10 0 24 -9 31 -20 7 -11 19 -20 27 -20
8 0 18 -6 22 -13 4 -8 26 -27 48 -43 23 -16 70 -57 105 -90 118 -112 139 -125
350 -208 25 -10 53 -22 63 -28 11 -5 21 -7 24 -4 3 3 22 -3 42 -13 20 -10 61
-26 91 -35 30 -10 67 -24 83 -32 15 -8 27 -12 27 -9 0 3 12 -1 28 -9 15 -9 44
-22 65 -30 62 -25 37 -39 -52 -30 -77 8 -227 8 -336 0 -80 -6 -356 -63 -369
-76 -5 -5 -17 -10 -26 -10 -10 0 -50 -18 -91 -39 -41 -22 -93 -50 -116 -62
-24 -12 -43 -26 -43 -31 0 -4 -8 -8 -17 -8 -9 0 -24 -6 -32 -14 -31 -26 -288
-148 -456 -216 -126 -51 -211 -93 -197 -98 18 -6 15 -32 -4 -32 -13 0 -14 -3
-4 -15 13 -16 104 -45 165 -51 22 -3 72 -9 110 -14 39 -4 144 -11 235 -14 91
-3 188 -10 215 -16 105 -23 257 3 570 97 89 27 213 59 258 67 50 9 28 -27 -38
-59 -47 -24 -189 -120 -217 -148 -10 -9 -23 -17 -28 -17 -5 0 -10 -7 -10 -15
0 -8 -4 -15 -9 -15 -5 0 -26 -16 -47 -35 -22 -19 -42 -35 -46 -35 -5 0 -8 -5
-8 -10 0 -6 -20 -30 -45 -53 -25 -24 -45 -47 -45 -51 0 -4 -11 -19 -26 -34
-27 -29 -114 -147 -114 -156 0 -5 -84 -189 -101 -218 -5 -10 -9 -24 -9 -32 0
-7 -9 -25 -21 -40 -11 -15 -22 -32 -23 -39 -1 -7 -12 -31 -26 -52 -13 -22 -24
-42 -25 -45 -7 -25 -26 -60 -32 -60 -5 0 -19 -25 -32 -55 -14 -30 -30 -56 -38
-59 -7 -3 -13 -12 -13 -21 0 -8 -5 -15 -11 -15 -5 0 -8 -4 -4 -10 3 -5 -3 -18
-13 -28 -10 -10 -24 -32 -31 -50 -7 -18 -16 -32 -20 -32 -6 0 -20 -29 -40 -82
-6 -16 -15 -28 -20 -28 -5 0 -14 -13 -20 -30 -7 -21 -7 -30 1 -30 21 0 134 32
158 45 14 7 40 19 58 25 17 7 32 16 32 21 0 5 8 9 18 9 9 0 30 11 46 25 16 14
33 25 37 25 12 0 103 62 112 77 4 7 13 13 20 13 7 0 35 18 64 39 28 22 54 37
57 34 3 -4 6 -1 6 5 0 7 5 12 11 12 6 0 24 9 40 21 16 11 29 17 29 12 0 -4 4
-3 8 2 4 6 24 18 45 27 20 10 37 22 37 28 0 5 5 10 12 10 12 0 158 150 158
162 0 4 16 24 35 44 19 19 35 39 35 42 0 4 10 19 23 34 13 15 32 39 43 54 10
14 29 37 42 50 12 13 22 28 22 33 0 6 9 15 20 21 11 6 20 15 20 20 0 14 82
100 96 100 9 0 10 -8 3 -32 -5 -17 -13 -36 -19 -42 -5 -5 -10 -19 -10 -30 0
-12 -7 -30 -15 -40 -8 -11 -15 -27 -15 -36 0 -9 -9 -34 -19 -56 -11 -22 -24
-62 -29 -89 -6 -28 -16 -70 -22 -95 -38 -149 -50 -418 -24 -533 23 -106 82
-424 81 -438 -1 -8 2 -45 6 -84 4 -38 12 -119 18 -180 6 -60 12 -126 15 -145
13 -109 18 -130 25 -130 5 0 9 4 9 8 0 5 12 22 28 40 48 55 62 72 57 72 -3 0
5 17 18 38 13 20 28 48 32 62 4 14 13 28 19 32 6 4 11 11 12 15 4 31 18 73 23
73 4 0 13 21 20 48 18 65 53 165 61 177 6 8 29 71 35 95 5 17 21 49 37 73 11
15 16 27 12 27 -3 0 -1 7 6 15 11 14 23 55 34 120 2 11 4 20 5 20 3 0 10 94
16 225 14 308 22 411 35 424 12 12 22 2 26 -26 7 -53 24 -130 34 -148 5 -10
10 -28 10 -39 0 -12 4 -29 9 -39 18 -36 41 -93 41 -102 0 -12 104 -223 130
-265 11 -16 26 -42 35 -57 9 -16 20 -28 25 -28 6 0 10 -5 10 -11 0 -14 39 -58
113 -129 191 -180 378 -367 383 -382 3 -10 12 -18 20 -18 8 0 14 -4 14 -8 0
-12 39 -59 72 -88 7 -7 29 -31 48 -55 19 -23 59 -67 88 -97 28 -30 52 -58 52
-63 0 -5 4 -9 9 -9 18 0 21 118 6 235 -9 65 -20 124 -24 129 -5 6 -11 29 -15
51 -4 22 -13 56 -21 75 -21 51 -77 278 -80 327 -2 23 -10 55 -18 70 -8 15 -22
46 -33 68 -18 38 -67 123 -106 183 -10 15 -21 34 -25 42 -4 8 -11 20 -15 25
-5 6 -17 21 -28 34 -11 13 -20 28 -20 34 0 11 -57 87 -79 105 -9 7 -14 14 -12
15 8 4 -10 47 -20 47 -5 0 -9 7 -9 16 0 9 -9 27 -20 41 -11 14 -20 32 -20 39
0 21 34 4 88 -46 60 -55 113 -100 118 -100 4 0 132 -84 150 -100 7 -5 14 -6
18 -3 3 3 8 -2 12 -11 3 -9 10 -16 15 -16 16 0 89 -35 89 -42 0 -5 5 -8 11 -8
5 0 31 -10 57 -21 25 -12 51 -22 57 -23 5 -1 15 -4 20 -7 6 -4 24 -10 40 -14
17 -5 35 -9 40 -11 64 -20 118 -28 345 -50 25 -2 56 -6 70 -9 14 -2 52 -9 85
-15 33 -5 85 -15 115 -21 30 -6 70 -13 89 -15 19 -3 42 -9 52 -15 11 -5 19 -8
19 -5 0 2 17 0 38 -5 20 -5 48 -12 62 -14 14 -3 36 -8 50 -11 14 -4 37 -8 51
-10 15 -2 46 -8 70 -13 68 -16 69 -15 58 19 -6 17 -14 30 -19 30 -4 0 -20 20
-36 45 -15 25 -33 45 -40 45 -6 0 -17 13 -24 30 -7 16 -15 28 -19 27 -3 -1
-18 10 -33 23 -71 67 -87 80 -96 80 -6 0 -12 7 -16 15 -3 8 -11 15 -17 15 -6
0 -22 11 -35 25 -13 14 -26 25 -29 25 -21 -1 -25 1 -20 10 3 6 -1 10 -10 10
-8 0 -18 6 -21 14 -3 8 -19 20 -35 26 -16 7 -29 19 -29 26 0 8 -4 14 -8 14 -5
0 -35 25 -68 56 -75 71 -151 124 -186 128 -3 1 -10 4 -14 8 -4 5 -15 8 -25 8
-9 0 -19 4 -21 8 -3 8 -160 72 -177 72 -6 0 -34 11 -63 24 -29 13 -87 36 -128
51 -41 16 -77 31 -80 34 -3 3 -12 7 -20 9 -8 1 -27 8 -43 14 -40 16 -18 37 31
30 20 -3 123 -6 227 -6 174 1 203 4 344 33 85 17 160 35 165 40 6 4 30 13 54
21 23 7 42 17 42 22 0 4 8 8 18 9 9 0 31 9 47 20 17 10 37 22 45 26 8 3 28 16
45 27 64 45 469 246 495 246 6 0 18 7 26 15 9 8 26 15 40 15 13 0 24 5 24 10
0 6 7 10 15 10 9 0 30 8 48 17 18 9 34 18 37 18 25 7 40 20 40 35 0 10 8 21
17 24 15 6 13 10 -12 26 -17 10 -44 21 -62 23 -17 3 -37 8 -42 12 -10 6 -37 9
-161 20 -30 3 -116 7 -190 9 -130 4 -202 10 -265 22 -40 7 -140 8 -190 1 -22
-3 -107 -24 -190 -47 -82 -22 -166 -45 -185 -50 -96 -24 -155 -40 -155 -41 0
-6 -117 -24 -120 -19 -7 11 20 37 58 55 104 49 224 144 366 287 146 147 210
239 271 383 11 28 32 71 45 97 14 27 24 51 23 55 -2 5 7 24 18 43 12 19 30 54
40 78 10 23 21 42 25 42 4 0 10 13 14 30 4 16 12 33 18 37 7 5 23 31 36 58 14
28 30 55 35 62 21 24 31 39 33 50 1 6 14 28 28 49 14 21 40 67 56 101 17 35
34 63 39 63 4 0 13 14 19 30 7 21 7 30 -1 30 -21 0 -134 -32 -158 -45 -14 -7
-40 -19 -57 -25 -18 -7 -33 -16 -33 -21 0 -5 -8 -9 -18 -9 -10 0 -27 -8 -38
-18 -18 -18 -40 -31 -104 -64 -14 -7 -35 -23 -48 -35 -13 -13 -27 -23 -32 -23
-5 0 -15 -6 -22 -12 -25 -24 -77 -58 -88 -58 -5 0 -10 -3 -10 -8 0 -4 -20 -16
-45 -27 -25 -11 -45 -23 -45 -27 0 -5 -9 -8 -20 -8 -11 0 -20 -4 -20 -10 0 -5
-6 -10 -13 -10 -8 0 -33 -18 -57 -40 -24 -22 -47 -40 -52 -40 -4 0 -8 -4 -8
-10 0 -5 -8 -18 -17 -28 -10 -10 -34 -37 -53 -61 -19 -23 -45 -55 -58 -69 -37
-44 -42 -51 -42 -59 0 -4 -13 -21 -30 -36 -16 -16 -30 -33 -30 -38 0 -6 -12
-21 -26 -34 -14 -13 -25 -26 -25 -29 0 -3 -14 -21 -31 -40 -16 -19 -31 -38
-31 -43 -2 -9 -52 -53 -61 -53 -12 0 -6 47 9 66 8 10 15 27 15 36 0 9 6 29 14
45 20 39 58 159 68 213 47 256 59 463 32 583 -57 258 -89 451 -99 597 -4 63
-16 201 -20 226 -2 11 -6 50 -10 87 -4 37 -11 67 -16 67 -5 0 -9 -4 -9 -8 0
-5 -12 -22 -27 -40 -53 -59 -61 -70 -68 -91 -3 -11 -13 -28 -21 -36 -8 -8 -17
-24 -19 -35 -2 -11 -11 -27 -19 -36 -9 -8 -16 -18 -17 -22 -2 -21 -10 -43 -33
-95 -14 -31 -25 -58 -25 -60 1 -5 -14 -63 -20 -72 -3 -5 -6 -12 -7 -15 0 -3
-7 -18 -14 -35 -7 -16 -14 -33 -15 -37 -2 -5 -4 -10 -5 -13 -1 -3 -3 -8 -4
-12 -1 -5 -10 -25 -19 -47 -9 -21 -17 -42 -17 -47 0 -5 -4 -9 -9 -9 -5 0 -12
-13 -16 -30 -4 -16 -11 -30 -16 -30 -5 0 -8 -3 -8 -7 1 -5 1 -10 -1 -13 -1 -3
-3 -16 -6 -30 -2 -14 -7 -32 -11 -40 -13 -33 -22 -148 -28 -365 -7 -264 -15
-335 -35 -335 -5 0 -14 26 -20 58 -6 31 -17 75 -25 97 -7 22 -19 60 -26 85 -7
25 -16 50 -19 55 -4 6 -13 26 -20 45 -23 64 -123 260 -132 260 -4 0 -8 7 -8
15 0 8 -8 24 -17 35 -10 10 -47 58 -83 104 -36 47 -68 85 -72 86 -17 1 -336
312 -413 404 -28 32 -68 77 -91 100 -22 23 -49 56 -59 74 -11 18 -25 32 -32
32 -7 0 -13 3 -13 8 0 4 -16 25 -35 46 -19 22 -35 43 -35 48 0 4 -4 8 -9 8 -5
0 -12 -31 -16 -68z"/>
</g>
</svg>
