<?xml version="1.0" standalone="no"?>
<!DOCTYPE svg PUBLIC "-//W3C//DTD SVG 20010904//EN"
 "http://www.w3.org/TR/2001/REC-SVG-20010904/DTD/svg10.dtd">
<svg version="1.0" xmlns="http://www.w3.org/2000/svg"
 width="558.000000pt" height="558.000000pt" viewBox="0 0 558.000000 558.000000"
 preserveAspectRatio="xMidYMid meet">
<metadata>
Created by potrace 1.13, written by Peter Selinger 2001-2015
</metadata>
<g transform="translate(0.000000,558.000000) scale(0.100000,-0.100000)"
fill="#000000" stroke="none">
<path d="M633 4474 c-9 -23 16 -196 41 -287 41 -145 72 -217 236 -532 70 -135
135 -282 165 -373 19 -60 9 -55 180 -77 261 -32 513 -56 740 -69 174 -11 280
-18 283 -20 5 -5 91 -383 121 -531 58 -294 120 -706 137 -925 3 -47 8 -87 9
-90 2 -3 6 -66 10 -140 5 -74 9 -148 10 -165 2 -16 3 -53 4 -82 l1 -51 53 6
c107 13 343 6 442 -13 51 -10 119 -25 137 -31 15 -4 17 17 16 263 -1 304 6
436 38 738 16 150 60 426 99 620 41 203 87 401 96 409 2 2 63 7 134 11 72 3
144 8 160 10 17 2 66 7 110 10 84 7 432 43 475 50 14 2 93 13 175 25 207 30
220 31 224 36 2 2 23 47 46 101 23 54 62 139 85 188 84 180 98 212 133 320 69
210 82 288 82 485 l0 125 -80 -1 c-110 -1 -206 -13 -290 -36 -22 -6 -47 -13
-56 -14 -9 -2 -29 -9 -45 -15 -16 -7 -31 -13 -34 -13 -38 -9 -108 -42 -103
-49 3 -6 1 -7 -5 -3 -11 7 -62 -12 -73 -27 -3 -5 -8 -8 -10 -6 -8 5 -79 -25
-79 -34 0 -4 -4 -5 -10 -2 -6 3 -10 1 -10 -4 0 -6 -3 -11 -7 -10 -18 3 -52
-14 -47 -22 3 -5 -3 -6 -12 -2 -13 5 -15 3 -9 -7 5 -9 4 -11 -3 -6 -6 4 -31
-3 -54 -16 -24 -12 -46 -21 -50 -20 -5 1 -8 -3 -8 -9 0 -5 -4 -7 -10 -4 -5 3
-10 1 -10 -4 0 -6 -3 -10 -7 -9 -17 4 -82 -26 -76 -35 3 -6 1 -7 -4 -4 -6 4
-28 -1 -49 -10 -22 -9 -43 -18 -49 -19 -5 -2 -52 -18 -102 -37 -51 -19 -93
-32 -93 -30 0 3 -7 0 -15 -7 -8 -7 -15 -10 -15 -6 0 4 -14 0 -30 -9 -17 -9
-30 -13 -30 -11 0 3 -11 1 -25 -4 -14 -5 -36 -12 -48 -14 -12 -3 -33 -7 -47
-10 -35 -8 -120 -25 -150 -31 -14 -3 -45 -8 -70 -11 -25 -3 -53 -8 -63 -10
-139 -26 -654 -26 -807 0 -14 3 -43 7 -65 11 -82 11 -162 27 -220 42 -33 8
-67 16 -75 18 -69 14 -109 29 -103 38 3 6 1 7 -6 3 -15 -10 -187 50 -346 120
-22 10 -43 17 -47 16 -5 -1 -8 3 -8 9 0 5 -4 7 -10 4 -5 -3 -10 -1 -10 4 0 6
-3 10 -7 9 -5 -1 -37 12 -73 29 -181 86 -240 113 -250 113 -5 0 -10 5 -10 10
0 6 -3 9 -7 8 -5 -1 -45 12 -90 30 -118 46 -234 77 -328 88 -27 3 -60 7 -73 9
-14 2 -25 -2 -29 -11z"/>
</g>
</svg>
