<?xml version="1.0" standalone="no"?>
<!DOCTYPE svg PUBLIC "-//W3C//DTD SVG 20010904//EN"
 "http://www.w3.org/TR/2001/REC-SVG-20010904/DTD/svg10.dtd">
<svg version="1.0" xmlns="http://www.w3.org/2000/svg"
 width="558.000000pt" height="558.000000pt" viewBox="0 0 558.000000 558.000000"
 preserveAspectRatio="xMidYMid meet">
<metadata>
Created by potrace 1.13, written by Peter Selinger 2001-2015
</metadata>
<g transform="translate(0.000000,558.000000) scale(0.100000,-0.100000)"
fill="#000000" stroke="none">
<path d="M2333 4533 c6 -119 25 -197 77 -319 41 -94 24 -225 -50 -390 l-30
-66 0 -251 -1 -252 -62 -49 c-34 -27 -96 -65 -137 -85 -70 -34 -82 -36 -170
-36 -84 0 -102 3 -153 29 -32 15 -87 55 -122 87 l-63 59 -331 0 -331 0 0 -470
0 -470 330 0 330 0 58 39 c112 76 192 103 300 103 114 1 205 -30 310 -105 l42
-30 0 -91 c0 -70 4 -98 18 -121 37 -60 54 -120 54 -185 0 -76 -17 -124 -79
-225 -79 -127 -101 -252 -67 -380 19 -76 54 -136 115 -202 74 -79 68 -120 -27
-180 -15 -9 82 -12 446 -12 364 0 461 3 445 12 -43 26 -95 85 -95 108 0 28 33
67 83 98 24 15 42 39 62 83 79 177 74 321 -18 460 -59 89 -82 182 -82 328 1
112 4 134 30 210 l30 85 408 3 407 2 64 -48 c98 -76 149 -97 231 -97 87 0 140
24 213 97 l52 52 0 467 0 467 -42 37 c-23 19 -67 48 -98 63 -47 23 -67 27
-145 27 -81 0 -95 -3 -143 -29 -29 -16 -70 -44 -91 -63 l-39 -33 -406 0 -406
0 0 258 c0 152 -4 262 -10 268 -19 19 -79 225 -91 311 -21 158 5 335 71 481
17 35 30 66 30 68 0 2 -208 4 -461 4 l-462 0 6 -117z"/>
</g>
</svg>
