<?xml version="1.0" standalone="no"?>
<!DOCTYPE svg PUBLIC "-//W3C//DTD SVG 20010904//EN"
 "http://www.w3.org/TR/2001/REC-SVG-20010904/DTD/svg10.dtd">
<svg version="1.0" xmlns="http://www.w3.org/2000/svg"
 width="558.000000pt" height="558.000000pt" viewBox="0 0 558.000000 558.000000"
 preserveAspectRatio="xMidYMid meet">
<metadata>
Created by potrace 1.13, written by Peter Selinger 2001-2015
</metadata>
<g transform="translate(0.000000,558.000000) scale(0.100000,-0.100000)"
fill="#000000" stroke="none">
<path d="M2635 5019 c-27 -5 -72 -11 -100 -14 -79 -9 -102 -14 -251 -56 -306
-86 -581 -227 -822 -424 -33 -27 -61 -53 -61 -57 -1 -5 344 -9 767 -10 l767
-3 -100 -33 c-55 -19 -107 -35 -115 -37 -8 -2 -54 -13 -102 -24 -47 -11 -99
-23 -115 -26 -15 -2 -38 -7 -49 -9 -29 -6 -78 -14 -139 -22 -27 -3 -58 -8 -67
-9 -9 -2 -48 -7 -85 -10 -37 -4 -78 -8 -91 -10 -20 -3 -139 -11 -302 -20 -30
-2 -173 -4 -317 -4 l-262 -1 -46 -60 -46 -60 143 -1 c79 -1 175 -3 213 -4 39
-1 221 -5 405 -9 184 -3 371 -9 415 -11 44 -3 145 -7 225 -10 278 -10 436 -27
425 -45 -5 -8 -119 -26 -230 -35 -38 -3 -92 -8 -120 -10 -27 -2 -97 -7 -155
-10 -58 -4 -127 -8 -155 -10 -27 -2 -115 -6 -195 -10 -80 -3 -170 -8 -200 -10
-30 -2 -125 -7 -210 -11 -85 -3 -182 -7 -215 -9 -104 -6 -444 -7 -453 -1 -15
9 -98 -151 -156 -299 -53 -135 -119 -365 -130 -452 l-5 -43 177 -1 c97 -1 206
-3 242 -4 36 -1 234 -5 440 -9 206 -4 425 -9 485 -11 61 -2 232 -6 380 -10
149 -3 320 -8 380 -10 61 -2 209 -7 330 -10 121 -3 267 -8 325 -10 58 -2 173
-7 255 -10 298 -11 552 -26 667 -41 47 -6 76 -23 41 -25 -10 0 -25 -2 -33 -3
-101 -20 -827 -48 -1550 -61 -173 -4 -360 -8 -415 -10 -55 -2 -327 -7 -605
-11 -278 -3 -545 -8 -595 -9 -49 -2 -192 -4 -317 -4 l-228 -1 0 -122 c0 -161
29 -370 75 -538 159 -583 544 -1074 1068 -1364 143 -79 467 -197 609 -221 446
-77 857 -33 1248 132 136 57 354 180 465 263 65 48 318 290 311 298 -3 2 -168
5 -368 7 -200 1 -374 5 -388 8 -14 3 -59 8 -100 12 -41 3 -104 11 -140 16 -36
6 -78 13 -95 16 -100 15 -360 86 -369 101 -2 4 64 7 147 8 1064 5 1444 8 1454
12 13 4 148 210 142 216 -2 2 -247 6 -544 10 -297 3 -578 8 -625 11 -47 2
-192 5 -322 7 -130 2 -234 6 -230 9 6 6 286 40 442 54 36 4 79 8 95 10 17 2
77 7 135 10 58 4 115 8 128 10 13 2 103 7 200 11 97 4 204 8 237 9 33 1 171 3
307 4 l248 1 20 41 c29 55 114 308 134 394 43 191 66 539 45 690 -4 33 -11 83
-14 110 -24 200 -121 509 -227 719 -43 85 -188 306 -257 390 -114 139 -293
301 -450 405 -186 124 -228 146 -386 211 -279 113 -576 172 -850 169 -77 -1
-162 -6 -190 -10z"/>
</g>
</svg>
