<?xml version="1.0" standalone="no"?>
<!DOCTYPE svg PUBLIC "-//W3C//DTD SVG 20010904//EN"
 "http://www.w3.org/TR/2001/REC-SVG-20010904/DTD/svg10.dtd">
<svg version="1.0" xmlns="http://www.w3.org/2000/svg"
 width="558.000000pt" height="558.000000pt" viewBox="0 0 558.000000 558.000000"
 preserveAspectRatio="xMidYMid meet">
<metadata>
Created by potrace 1.13, written by Peter Selinger 2001-2015
</metadata>
<g transform="translate(0.000000,558.000000) scale(0.100000,-0.100000)"
fill="#000000" stroke="none">
<path d="M2682 4464 c-6 -11 -22 -26 -36 -34 -19 -10 -31 -29 -42 -66 -8 -28
-24 -60 -34 -69 -11 -10 -20 -28 -20 -40 0 -12 -11 -38 -24 -58 -14 -20 -23
-44 -21 -54 2 -10 4 -18 5 -18 1 0 3 -8 5 -18 3 -17 2 -17 -14 -3 -46 42 -76
8 -67 -74 l7 -60 -49 0 c-61 0 -71 -17 -41 -70 28 -49 22 -76 -14 -72 -15 1
-39 3 -54 5 -26 2 -27 0 -24 -41 3 -50 -19 -92 -50 -92 -19 0 -19 -1 -5 -16
23 -22 20 -43 -14 -96 -25 -39 -35 -48 -59 -48 -36 0 -48 -27 -54 -123 -6 -80
-25 -107 -88 -126 -49 -15 -56 -31 -40 -90 11 -41 10 -47 -5 -56 -61 -36 -73
-59 -58 -117 6 -26 4 -28 -35 -34 -47 -7 -56 -17 -53 -54 1 -17 -7 -34 -23
-48 -14 -12 -25 -30 -26 -39 -4 -66 -4 -67 -36 -75 -26 -7 -33 -14 -33 -34 0
-14 5 -34 11 -45 5 -11 7 -29 4 -40 -7 -22 -4 -22 -92 -2 -33 8 -39 -20 -14
-67 12 -22 21 -47 21 -54 0 -18 -21 -35 -51 -39 -18 -3 -28 -15 -41 -53 -10
-27 -26 -56 -35 -64 -16 -13 -34 -49 -86 -172 -9 -20 -25 -39 -35 -42 -13 -5
-25 -25 -36 -65 -9 -32 -27 -68 -41 -81 -14 -13 -25 -29 -25 -35 0 -6 -13 -27
-30 -45 -33 -37 -35 -49 -18 -97 6 -18 9 -35 5 -39 -3 -4 -28 -7 -54 -8 -59
-1 -65 -18 -32 -82 30 -55 19 -72 -35 -54 -20 6 -40 9 -46 5 -5 -3 -10 -27
-10 -53 0 -48 -29 -109 -45 -95 -4 5 -5 3 -1 -4 3 -6 2 -14 -4 -18 -6 -4 -8
-10 -5 -14 2 -5 -5 -17 -17 -27 -11 -11 -29 -37 -38 -60 -12 -28 -28 -45 -49
-54 l-31 -13 6 -63 c8 -74 0 -88 -57 -105 -52 -16 -73 -41 -65 -75 5 -20 10
-24 19 -15 18 18 48 13 110 -20 69 -36 87 -33 87 16 0 49 20 53 72 17 34 -25
54 -31 98 -32 30 -1 68 -1 84 -2 17 0 32 6 38 16 13 24 49 20 113 -14 31 -16
63 -30 70 -30 17 0 26 26 19 56 -10 39 21 41 71 5 32 -23 53 -31 77 -29 18 1
51 -1 72 -6 32 -6 44 -4 67 13 37 28 53 27 122 -10 69 -36 87 -33 87 16 0 49
20 53 72 17 34 -25 54 -31 98 -32 30 -1 68 -1 84 -2 17 0 32 6 38 16 13 24 49
20 113 -14 31 -16 63 -30 70 -30 17 0 26 26 19 56 -10 39 21 41 71 5 32 -23
53 -31 77 -29 18 1 51 -1 72 -6 32 -6 44 -4 67 13 37 28 53 27 122 -10 69 -36
87 -33 87 16 0 49 20 53 72 17 34 -25 54 -31 98 -32 30 -1 68 -1 84 -2 17 0
32 6 38 16 13 24 49 20 113 -14 31 -16 63 -30 70 -30 17 0 26 26 19 56 -10 39
21 41 71 5 32 -23 53 -31 77 -29 18 1 51 -1 72 -6 32 -6 44 -4 67 13 37 28 53
27 122 -10 69 -36 87 -33 87 16 0 49 20 53 72 17 34 -25 54 -31 98 -32 30 -1
68 -1 84 -2 17 0 32 6 38 16 13 24 49 20 113 -14 31 -17 63 -30 70 -30 17 0
26 26 19 56 -10 38 20 41 69 7 35 -25 52 -31 98 -31 l56 1 -43 39 c-49 46 -60
69 -44 98 9 17 6 27 -23 63 -18 23 -40 57 -47 75 -7 18 -37 53 -66 79 -30 25
-54 52 -54 59 0 12 33 20 63 15 11 -2 8 24 -5 41 -7 8 -30 25 -51 37 -22 14
-46 40 -59 65 -11 22 -34 58 -50 79 -16 20 -32 52 -35 70 -7 43 -11 51 -87
137 -66 75 -156 232 -156 274 0 11 -11 39 -25 60 -17 28 -21 45 -15 61 11 30
-12 72 -64 115 -40 33 -42 36 -28 58 13 20 13 25 -3 42 -10 11 -37 29 -61 41
-44 21 -63 52 -51 83 3 8 -14 40 -39 71 -24 32 -48 74 -54 95 -5 20 -25 56
-42 79 -86 111 -94 128 -60 128 9 0 22 1 29 2 23 2 1 30 -47 60 -52 32 -85 72
-96 117 -3 16 -18 44 -31 62 -19 25 -22 37 -14 45 22 22 10 46 -49 97 -56 48
-96 101 -85 112 2 2 -16 23 -40 47 -27 26 -45 52 -45 66 0 13 -18 47 -41 76
-36 49 -40 58 -35 97 5 36 1 49 -24 84 -17 22 -30 45 -30 49 0 11 -66 119 -71
116 -2 -1 -1 2 3 7 13 16 -13 59 -65 110 -57 56 -115 137 -122 173 -3 13 -7
33 -10 46 -3 12 -20 40 -38 62 -32 37 -35 38 -45 19z m261 -425 c3 -12 -1 -15
-19 -11 -25 5 -42 41 -29 63 8 13 40 -22 48 -52z"/>
<path d="M4046 2185 c25 -19 40 -19 20 0 -8 8 -20 15 -27 15 -7 0 -4 -6 7 -15z"/>
</g>
</svg>
