<?xml version="1.0" standalone="no"?>
<!DOCTYPE svg PUBLIC "-//W3C//DTD SVG 20010904//EN"
 "http://www.w3.org/TR/2001/REC-SVG-20010904/DTD/svg10.dtd">
<svg version="1.0" xmlns="http://www.w3.org/2000/svg"
 width="558.000000pt" height="558.000000pt" viewBox="0 0 558.000000 558.000000"
 preserveAspectRatio="xMidYMid meet">
<metadata>
Created by potrace 1.13, written by Peter Selinger 2001-2015
</metadata>
<g transform="translate(0.000000,558.000000) scale(0.100000,-0.100000)"
fill="#000000" stroke="none">
<path d="M2205 5148 c2 -29 7 -88 10 -130 3 -42 7 -91 10 -110 2 -18 7 -67 10
-108 3 -42 7 -84 9 -95 2 -11 7 -51 11 -90 3 -38 8 -83 10 -100 4 -31 9 -76
20 -180 4 -33 8 -71 10 -85 2 -14 6 -52 10 -85 3 -33 8 -73 10 -90 6 -48 18
-148 20 -175 2 -14 4 -25 5 -25 1 0 3 -16 5 -35 1 -19 5 -51 8 -70 3 -19 8
-62 12 -95 4 -33 9 -73 12 -90 3 -16 6 -41 8 -55 1 -14 6 -52 10 -85 3 -33 9
-73 12 -90 3 -16 6 -43 8 -60 3 -25 10 -77 19 -140 0 -6 -19 -9 -44 -9 -112 4
-156 8 -174 17 -14 7 -17 6 -11 -4 6 -8 4 -10 -5 -4 -7 4 -32 9 -55 10 -22 2
-61 5 -86 9 -24 3 -84 8 -134 11 -49 3 -106 8 -125 11 -19 4 -66 8 -105 9 -38
2 -70 4 -70 5 0 1 -16 3 -35 5 -19 1 -69 5 -110 9 -148 13 -196 16 -273 21
-42 2 -82 7 -89 11 -7 5 -8 3 -3 -6 6 -9 4 -11 -5 -5 -7 5 -36 9 -64 10 -28 2
-96 6 -151 10 -194 14 -535 26 -546 19 -5 -3 3 -30 17 -62 44 -97 93 -240 115
-335 31 -134 34 -385 6 -507 -2 -8 -8 -33 -12 -55 -17 -78 -25 -102 -67 -204
-27 -67 -35 -98 -28 -105 13 -13 671 -14 890 -2 80 4 174 9 210 11 74 3 253
14 320 20 25 2 88 6 140 10 104 7 149 11 255 20 38 4 98 8 132 11 34 2 68 5
75 6 14 3 17 -63 5 -137 -11 -67 -29 -217 -32 -270 -2 -27 -5 -50 -6 -50 -1 0
-3 -9 -4 -20 -2 -11 -5 -38 -8 -60 -3 -22 -9 -69 -12 -105 -4 -36 -8 -76 -10
-90 -2 -14 -6 -54 -10 -90 -4 -36 -8 -76 -10 -90 -2 -14 -6 -52 -10 -85 -3
-33 -10 -96 -15 -140 -5 -44 -12 -109 -15 -145 -4 -36 -8 -83 -10 -105 -2 -22
-6 -71 -10 -110 -3 -38 -8 -95 -11 -125 -14 -163 -14 -240 -1 -240 7 0 48 14
92 31 232 89 405 130 560 132 195 2 338 -35 476 -124 76 -48 71 -65 53 191 -7
99 -12 159 -19 215 -3 22 -7 72 -10 110 -3 39 -7 81 -10 95 -2 14 -7 50 -10
80 -3 30 -8 71 -10 90 -2 19 -7 58 -10 85 -2 28 -8 70 -11 95 -3 25 -7 60 -9
79 -3 19 -6 48 -9 65 -3 17 -8 58 -12 91 -3 33 -8 68 -9 77 -2 9 -7 48 -10 85
-4 37 -9 77 -12 88 -2 11 -6 34 -7 50 -2 17 -8 66 -14 110 -7 44 -14 103 -18
130 -3 28 -7 55 -8 60 0 6 17 9 39 9 61 -2 265 -15 310 -19 22 -3 83 -7 135
-10 52 -2 131 -7 175 -10 372 -26 1108 -38 1250 -21 22 2 57 5 78 5 20 1 37 6
37 12 0 6 -14 30 -31 55 -70 103 -109 235 -114 394 -6 173 29 354 117 604 75
214 71 196 40 197 -101 4 -404 -5 -572 -17 -52 -4 -115 -8 -140 -8 -25 -1 -50
-5 -57 -9 -6 -4 -14 -3 -18 3 -4 6 -10 8 -15 5 -4 -3 -57 -7 -116 -10 -60 -3
-129 -8 -154 -10 -25 -2 -88 -7 -140 -11 -123 -8 -155 -11 -155 -13 0 -1 -29
-4 -65 -6 -220 -12 -548 -39 -596 -49 -23 -5 -23 -5 -10 82 2 15 7 50 11 77 3
28 9 64 12 80 3 17 6 41 8 55 1 14 6 45 9 70 4 25 9 63 12 85 3 22 8 54 11 70
3 17 6 41 8 55 1 14 5 44 9 68 3 23 8 59 11 80 13 107 27 210 31 237 3 17 7
47 10 68 9 82 13 114 19 157 3 25 8 65 11 90 3 25 7 61 9 80 3 19 7 58 10 85
2 28 7 73 10 100 13 108 24 213 30 289 20 236 23 228 -54 172 -68 -50 -176
-102 -272 -130 -76 -23 -98 -25 -239 -22 -210 4 -336 37 -575 153 -49 23 -95
43 -102 43 -9 0 -11 -15 -8 -52z"/>
</g>
</svg>
