<?xml version="1.0" standalone="no"?>
<!DOCTYPE svg PUBLIC "-//W3C//DTD SVG 20010904//EN"
 "http://www.w3.org/TR/2001/REC-SVG-20010904/DTD/svg10.dtd">
<svg version="1.0" xmlns="http://www.w3.org/2000/svg"
 width="512.000000pt" height="512.000000pt" viewBox="0 0 512.000000 512.000000"
 preserveAspectRatio="xMidYMid meet">
<metadata>
Created by potrace 1.13, written by Peter Selinger 2001-2015
</metadata>
<g transform="translate(0.000000,512.000000) scale(0.100000,-0.100000)"
fill="#000000" stroke="none">
<path d="M3335 4101 c-194 -75 -392 -206 -526 -347 -109 -116 -217 -281 -259
-396 l-11 -33 -40 78 c-124 244 -323 440 -586 578 -75 40 -246 109 -268 109
-37 0 -51 -378 -20 -555 36 -207 143 -455 246 -570 l18 -21 -152 0 c-262 0
-463 -56 -696 -196 -89 -53 -261 -184 -261 -198 0 -12 95 -89 175 -142 151
-99 340 -178 510 -213 100 -20 291 -29 372 -18 l61 9 -37 -55 c-94 -139 -172
-325 -200 -476 -33 -174 -33 -391 0 -566 l12 -66 66 24 c337 122 639 389 781
690 l34 72 51 -97 c62 -119 94 -165 182 -264 76 -86 171 -166 277 -235 112
-73 365 -187 381 -172 18 18 37 245 32 379 -11 289 -90 523 -252 745 -14 20
-13 20 148 20 224 1 367 33 577 132 118 55 170 88 288 180 68 54 92 79 92 96
0 23 -59 73 -180 154 -258 173 -618 263 -890 224 -30 -5 -56 -7 -58 -6 -1 1
15 30 38 63 84 127 152 294 185 457 34 162 30 431 -8 591 l-12 52 -70 -27z"/>
</g>
</svg>
