<?xml version="1.0" standalone="no"?>
<!DOCTYPE svg PUBLIC "-//W3C//DTD SVG 20010904//EN"
 "http://www.w3.org/TR/2001/REC-SVG-20010904/DTD/svg10.dtd">
<svg version="1.0" xmlns="http://www.w3.org/2000/svg"
 width="512.000000pt" height="512.000000pt" viewBox="0 0 512.000000 512.000000"
 preserveAspectRatio="xMidYMid meet">
<metadata>
Created by potrace 1.13, written by Peter Selinger 2001-2015
</metadata>
<g transform="translate(0.000000,512.000000) scale(0.100000,-0.100000)"
fill="#000000" stroke="none">
<path d="M2564 4668 c-32 -24 -177 -169 -209 -208 -37 -45 -85 -118 -85 -129
0 -6 -4 -11 -8 -11 -9 0 -47 -71 -44 -82 1 -5 -2 -8 -8 -8 -5 0 -10 -7 -10
-15 0 -9 -7 -27 -16 -40 -9 -14 -13 -25 -9 -25 4 0 2 -7 -5 -15 -7 -8 -9 -15
-5 -15 4 0 2 -7 -5 -15 -6 -8 -8 -20 -4 -26 5 -9 2 -10 -12 -5 -48 18 -180 52
-244 62 -19 3 -43 7 -53 10 -61 18 -347 26 -455 12 -155 -19 -292 -42 -304
-49 -26 -16 -14 -373 16 -496 4 -13 8 -31 10 -40 2 -10 15 -44 29 -75 14 -32
24 -58 22 -58 -2 0 8 -21 21 -47 l24 -48 -26 -7 c-32 -8 -204 -110 -204 -120
0 -4 -5 -8 -11 -8 -36 0 -305 -254 -396 -374 -25 -34 -50 -62 -55 -64 -4 -2
-8 -8 -8 -12 0 -5 -18 -35 -40 -66 -22 -32 -40 -63 -40 -69 0 -25 223 -255
270 -278 24 -12 53 -31 85 -53 45 -32 176 -94 186 -88 5 3 9 0 9 -6 0 -6 4 -9
9 -5 5 3 13 0 16 -6 4 -5 13 -8 20 -5 21 8 23 -15 7 -54 -13 -32 -45 -153 -57
-218 -3 -15 -7 -36 -9 -47 -22 -113 -25 -352 -6 -497 7 -51 13 -100 14 -108 1
-8 8 -47 15 -87 13 -68 15 -71 45 -76 36 -6 321 -1 352 7 12 2 37 7 55 10 30
5 54 10 94 20 6 1 20 8 33 14 12 7 22 10 22 6 0 -3 6 -2 13 3 12 10 89 38 95
34 1 -1 12 8 24 19 12 11 25 20 29 20 4 0 22 -28 39 -63 18 -34 46 -81 61
-104 16 -23 29 -46 29 -52 0 -6 4 -11 9 -11 5 0 12 -8 15 -17 3 -10 17 -31 30
-46 14 -16 39 -47 57 -70 49 -64 221 -231 286 -278 32 -24 60 -45 63 -49 3 -3
38 -28 78 -54 l73 -48 37 27 c84 63 292 296 292 329 0 3 8 15 18 26 9 11 15
22 12 24 -3 2 4 14 15 26 11 12 20 25 19 29 -2 14 9 41 17 41 5 0 8 3 8 8 -1
4 0 10 1 15 1 4 4 12 5 17 1 6 4 12 5 15 1 3 4 10 5 15 1 6 4 12 5 15 1 3 3
11 4 18 1 13 25 17 41 6 17 -12 261 -69 328 -77 77 -9 397 -8 452 0 22 4 72
12 110 17 80 12 144 27 152 35 10 9 22 256 13 256 -3 0 -5 19 -5 43 -1 42 -9
111 -20 175 -8 44 -71 218 -92 253 -10 16 -15 30 -12 32 2 2 38 20 79 41 80
41 210 128 275 185 80 70 235 231 276 288 23 32 45 60 49 63 11 9 100 147 100
156 0 8 -89 112 -136 159 -73 72 -160 141 -206 164 -15 8 -37 23 -48 33 -11
10 -20 17 -20 14 0 -3 -22 6 -49 19 -27 14 -54 25 -60 25 -6 0 -11 4 -11 8 0
4 -10 8 -22 9 -11 1 -24 6 -27 11 -3 5 -14 8 -25 6 -20 -3 -20 -3 14 111 11
39 23 86 26 105 3 19 7 37 9 40 5 8 14 73 24 172 10 103 6 270 -10 388 -6 47
-12 94 -13 105 -1 11 -8 50 -16 87 l-14 67 -42 7 c-61 9 -215 9 -309 -1 -90
-9 -120 -13 -120 -15 0 -1 -8 -3 -19 -5 -45 -9 -156 -49 -156 -57 0 -5 -5 -6
-10 -3 -6 3 -33 -6 -60 -21 -28 -15 -51 -25 -53 -23 -1 2 -15 31 -32 64 -42
84 -111 187 -184 275 -62 75 -200 212 -255 253 -15 12 -42 34 -60 48 -44 37
-183 129 -194 129 -5 0 -22 -10 -38 -22z"/>
</g>
</svg>
