<?xml version="1.0" standalone="no"?>
<!DOCTYPE svg PUBLIC "-//W3C//DTD SVG 20010904//EN"
 "http://www.w3.org/TR/2001/REC-SVG-20010904/DTD/svg10.dtd">
<svg version="1.0" xmlns="http://www.w3.org/2000/svg"
 width="273.000000pt" height="197.000000pt" viewBox="0 0 273.000000 197.000000"
 preserveAspectRatio="xMidYMid meet">
<metadata>
Created by potrace 1.13, written by Peter Selinger 2001-2015
</metadata>
<g transform="translate(0.000000,197.000000) scale(0.100000,-0.100000)"
fill="#000000" stroke="none">
<path d="M297 1963 c-4 -3 -7 -17 -7 -30 l0 -24 -37 26 c-48 32 -71 32 -79 0
-4 -18 1 -32 25 -57 17 -18 40 -50 50 -71 l19 -38 -45 -42 c-24 -23 -51 -54
-58 -68 -8 -15 -40 -41 -72 -59 -32 -18 -66 -39 -75 -48 -40 -35 -8 -86 83
-132 39 -21 47 -21 137 -11 92 11 96 11 119 -10 12 -13 23 -27 23 -33 0 -7 24
-37 53 -67 28 -31 59 -69 67 -85 17 -34 68 -84 126 -125 27 -18 47 -43 59 -71
23 -58 48 -112 54 -118 4 -3 12 -17 20 -31 23 -45 17 -323 -10 -484 -13 -75
-13 -96 -3 -163 6 -39 4 -45 -29 -75 -43 -41 -53 -70 -32 -91 21 -21 38 -20
85 4 31 16 44 18 58 9 14 -9 25 -6 56 11 36 22 86 86 86 112 0 6 9 30 19 52
16 35 20 74 24 252 5 183 9 219 27 270 12 33 23 73 24 89 1 39 8 43 64 35 91
-15 276 -11 343 6 42 11 81 14 116 10 31 -4 53 -2 53 3 0 15 100 59 145 64
l40 4 -3 -46 c-5 -65 13 -181 34 -227 10 -22 43 -77 74 -124 31 -47 64 -101
73 -122 25 -54 22 -140 -9 -219 -25 -63 -29 -68 -90 -100 -59 -32 -64 -36 -64
-68 l0 -34 63 7 c34 3 63 11 65 16 2 6 10 10 17 10 7 0 16 11 19 25 4 14 14
29 24 32 28 11 91 65 97 83 3 10 16 29 28 43 12 15 33 47 47 71 23 44 24 46 7
78 -9 18 -30 49 -47 69 -17 20 -33 53 -37 74 l-6 38 50 -49 c107 -104 150
-200 137 -310 -5 -41 -11 -54 -23 -54 -24 0 -84 -47 -94 -72 -5 -13 -2 -29 8
-44 22 -34 68 -32 115 6 21 17 59 39 84 51 l45 20 0 132 c0 73 1 146 2 162 1
42 -57 160 -108 220 -24 27 -43 54 -43 59 0 5 -9 19 -20 31 -14 15 -21 41 -26
91 -8 87 13 275 30 268 15 -6 36 -53 36 -82 0 -15 7 -26 18 -29 14 -3 21 -21
30 -74 7 -38 12 -80 12 -94 0 -13 6 -28 14 -32 8 -5 13 -24 12 -53 -1 -40 1
-45 21 -44 19 0 24 -10 42 -80 11 -45 28 -106 37 -136 9 -30 19 -70 24 -89 5
-18 13 -38 19 -44 14 -14 41 -1 41 21 0 11 6 25 14 31 21 18 27 129 9 171 -9
19 -16 68 -17 110 -1 60 -6 82 -24 107 -12 17 -22 38 -22 47 0 9 -11 21 -25
26 -20 8 -25 16 -25 44 0 19 -4 37 -8 40 -5 3 -7 18 -5 33 3 17 -7 53 -25 93
-17 36 -37 83 -46 105 -21 49 -65 115 -78 115 -5 0 -33 20 -60 44 -28 25 -63
48 -77 51 -14 4 -57 22 -96 40 -123 59 -252 80 -441 71 -77 -4 -194 -9 -260
-12 -97 -5 -135 -3 -190 11 -38 10 -121 20 -184 24 l-115 6 -84 50 c-105 63
-240 180 -266 231 -29 59 -45 74 -110 104 -33 15 -69 37 -79 48 -18 21 -56 29
-69 15z m673 -497 c0 -2 -11 -6 -25 -8 -14 -3 -25 -1 -25 3 0 5 11 9 25 9 14
0 25 -2 25 -4z m47 -12 c-3 -3 -12 -4 -19 -1 -8 3 -5 6 6 6 11 1 17 -2 13 -5z
m633 -8 c0 -2 -7 -7 -16 -10 -8 -3 -12 -2 -9 4 6 10 25 14 25 6z m-585 -61 c0
-19 -3 -35 -7 -35 -5 0 -8 16 -8 35 0 19 3 35 8 35 4 0 7 -16 7 -35z m885
-109 c-5 -14 -16 -29 -24 -32 -9 -3 -18 -26 -22 -52 -6 -42 -25 -71 -47 -72
-11 0 3 44 14 48 5 2 9 21 9 42 0 32 4 39 26 44 17 5 29 17 36 39 7 17 13 27
15 21 2 -6 -1 -23 -7 -38z m-955 -89 c14 -30 27 -43 45 -46 23 -3 39 -16 40
-33 0 -6 -61 -31 -65 -26 -13 18 -35 75 -35 90 0 11 -5 28 -10 39 -6 10 -7 19
-3 19 4 -1 17 -20 28 -43z m1025 -36 c0 -13 -8 -21 -22 -23 -15 -2 -24 -11
-26 -25 -2 -15 -10 -23 -22 -23 -10 0 -25 -3 -34 -6 -33 -13 -15 18 19 32 19
8 42 25 51 39 19 30 34 32 34 6z m-1290 5 c0 -3 -4 -8 -10 -11 -5 -3 -10 -1
-10 4 0 6 5 11 10 11 6 0 10 -2 10 -4z m170 -14 c0 -5 9 -18 21 -30 11 -13 27
-38 34 -56 13 -30 13 -35 0 -40 -11 -4 -15 2 -15 18 0 19 -10 29 -40 43 -24
11 -38 23 -35 31 3 8 5 20 5 28 0 8 7 14 15 14 8 0 15 -4 15 -8z m165 -171 c3
-5 1 -12 -5 -16 -5 -3 -10 1 -10 9 0 18 6 21 15 7z m-225 -190 c0 -11 5 -21
12 -23 9 -3 9 -12 0 -38 -7 -18 -12 -57 -12 -86 0 -29 -4 -56 -10 -59 -5 -3
-10 -16 -10 -28 0 -16 -3 -18 -12 -9 -9 9 -9 18 0 37 7 14 12 71 12 125 0 60
4 100 10 100 6 0 10 -9 10 -19z m1133 -101 c3 -14 2 -32 -3 -40 -9 -13 -13
-11 -30 10 -25 31 -26 67 -2 72 19 4 26 -5 35 -42z m147 -321 c0 -6 -7 -17
-15 -25 -8 -9 -15 -24 -15 -35 0 -10 -4 -19 -10 -19 -5 0 -10 -9 -10 -20 0
-12 -7 -20 -16 -20 -12 0 -14 4 -7 13 6 6 13 32 16 56 5 42 19 61 45 61 6 0
12 -5 12 -11z m-1197 -27 c-3 -12 -9 -22 -14 -22 -14 0 -11 38 4 43 16 6 17 5
10 -21z m-90 -6 c3 -8 -1 -22 -8 -33 -13 -17 -15 -17 -31 -1 -9 9 -14 24 -11
32 8 20 43 21 50 2z m-41 -108 c-8 -8 -9 -4 -5 13 4 13 8 18 11 10 2 -7 -1
-18 -6 -23z m1572 -13 c-4 -8 -10 -15 -15 -15 -5 0 -9 7 -9 15 0 8 7 15 15 15
9 0 12 -6 9 -15z m16 -57 c0 -19 -2 -20 -10 -8 -13 19 -13 30 0 30 6 0 10 -10
10 -22z"/>
</g>
</svg>
