<?xml version="1.0" standalone="no"?>
<!DOCTYPE svg PUBLIC "-//W3C//DTD SVG 20010904//EN"
 "http://www.w3.org/TR/2001/REC-SVG-20010904/DTD/svg10.dtd">
<svg version="1.0" xmlns="http://www.w3.org/2000/svg"
 width="255.000000pt" height="187.000000pt" viewBox="0 0 255.000000 187.000000"
 preserveAspectRatio="xMidYMid meet">
<metadata>
Created by potrace 1.13, written by Peter Selinger 2001-2015
</metadata>
<g transform="translate(0.000000,187.000000) scale(0.100000,-0.100000)"
fill="#000000" stroke="none">
<path d="M1959 1862 c-16 -6 -91 -67 -128 -102 -9 -9 -32 -27 -51 -42 -24 -17
-42 -44 -58 -84 -31 -80 -72 -162 -99 -201 -13 -17 -19 -33 -15 -36 4 -2 2 -2
-5 -1 -14 3 -73 -35 -125 -82 -93 -83 -211 -111 -533 -125 -116 -5 -238 -12
-273 -15 -70 -7 -104 8 -124 52 -6 13 -27 34 -46 46 l-34 21 -24 -29 c-23 -26
-24 -35 -19 -99 17 -217 17 -233 -6 -277 -12 -24 -28 -51 -36 -60 -12 -13 -15
-39 -14 -107 1 -50 -5 -117 -13 -152 -8 -35 -18 -85 -21 -111 -7 -58 -75 -148
-127 -168 -18 -8 -35 -16 -38 -19 -3 -3 -23 -15 -45 -26 -38 -19 -40 -22 -46
-79 -4 -32 -3 -70 0 -85 7 -23 13 -26 58 -29 l51 -3 7 37 c7 39 53 94 78 94
19 0 125 49 132 61 4 5 19 9 34 9 21 0 41 13 77 52 62 67 93 93 100 86 8 -9
-30 -80 -55 -102 -42 -38 -19 -104 45 -131 19 -8 43 -29 55 -49 20 -34 76 -63
89 -47 3 4 17 12 33 18 15 7 27 19 27 26 0 16 -26 41 -52 50 -15 5 -18 18 -18
67 0 55 5 71 60 171 33 61 67 125 74 144 29 68 33 69 344 56 152 -6 303 -14
335 -18 78 -8 116 -35 139 -97 9 -27 30 -68 45 -92 15 -23 46 -68 67 -100 44
-65 76 -144 76 -186 0 -21 5 -28 19 -28 10 0 29 -8 42 -19 13 -10 41 -21 62
-25 l37 -7 0 37 c0 30 -7 43 -30 63 -25 21 -34 40 -45 96 -8 38 -15 86 -15
107 0 20 -9 57 -20 83 -23 55 -26 111 -6 131 13 12 14 10 10 -18 -8 -50 16
-112 44 -116 45 -7 122 110 122 184 0 12 9 44 21 71 27 63 15 114 -31 133 -63
26 -83 83 -60 169 5 20 21 90 35 156 42 192 52 220 90 254 l35 31 118 -7 c146
-7 177 1 215 61 29 47 35 93 15 117 -7 9 -44 31 -81 50 -78 39 -98 56 -147
127 -35 50 -50 60 -150 97 -49 18 -175 29 -201 17z m111 -68 c0 -2 -7 -4 -15
-4 -8 0 -15 4 -15 10 0 5 7 7 15 4 8 -4 15 -8 15 -10z m189 -107 c0 -9 -2 -9
-6 1 -2 6 -11 12 -19 12 -8 0 -14 5 -14 10 0 7 6 7 20 0 11 -6 20 -16 19 -23z
m-284 -347 c3 -6 -1 -7 -9 -4 -18 7 -21 14 -7 14 6 0 13 -4 16 -10z m-818
-277 c-15 -16 -17 -16 -17 -1 0 9 6 18 13 21 20 7 22 -2 4 -20z m670 -239 c-3
-3 -12 -4 -19 -1 -8 3 -5 6 6 6 11 1 17 -2 13 -5z m83 -14 c24 -8 24 -8 -5 -8
-16 0 -39 3 -50 8 -18 8 -18 9 5 8 14 0 36 -4 50 -8z m-260 -130 c0 -5 -9 -10
-20 -10 -11 0 -20 5 -20 10 0 6 9 10 20 10 11 0 20 -4 20 -10z m-789 -73 c-8
-8 -11 -7 -11 4 0 20 13 34 18 19 3 -7 -1 -17 -7 -23z m-694 -499 c-3 -8 -6
-5 -6 6 -1 11 2 17 5 13 3 -3 4 -12 1 -19z"/>
</g>
</svg>
