<?xml version="1.0" standalone="no"?>
<!DOCTYPE svg PUBLIC "-//W3C//DTD SVG 20010904//EN"
 "http://www.w3.org/TR/2001/REC-SVG-20010904/DTD/svg10.dtd">
<svg version="1.0" xmlns="http://www.w3.org/2000/svg"
 width="172.000000pt" height="109.000000pt" viewBox="0 0 172.000000 109.000000"
 preserveAspectRatio="xMidYMid meet">
<metadata>
Created by potrace 1.13, written by Peter Selinger 2001-2015
</metadata>
<g transform="translate(0.000000,109.000000) scale(0.100000,-0.100000)"
fill="#000000" stroke="none">
<path d="M1353 1068 c-13 -6 -23 -15 -23 -20 0 -4 -6 -8 -13 -8 -14 0 -77 -72
-77 -87 0 -4 -15 -26 -34 -48 -37 -44 -11 -38 -279 -64 -116 -11 -114 -11
-242 43 -80 34 -146 34 -211 1 -68 -36 -145 -65 -170 -65 -32 0 -121 49 -127
69 -6 26 -117 111 -144 111 -36 0 -28 -34 17 -76 22 -21 40 -42 40 -48 0 -17
100 -110 133 -124 15 -7 50 -12 76 -12 l48 0 6 -84 c3 -47 10 -93 16 -103 22
-39 64 -138 64 -147 -1 -6 -6 -33 -13 -61 -16 -69 -15 -92 6 -131 15 -28 24
-34 51 -34 40 0 66 25 56 54 -11 34 -7 65 18 113 21 41 24 43 36 26 8 -10 22
-28 33 -40 10 -12 16 -23 14 -26 -3 -3 6 -13 19 -23 12 -11 26 -27 29 -36 6
-13 20 -17 73 -17 l66 0 -6 32 c-9 39 -29 63 -61 71 -13 4 -30 19 -39 35 -14
27 -13 33 13 84 l28 56 53 -25 c59 -28 138 -44 225 -44 64 0 132 -31 122 -55
-3 -8 2 -19 10 -26 27 -22 54 -87 54 -128 0 -61 7 -71 50 -71 47 0 70 8 70 24
0 10 21 10 96 -1 121 -18 157 -8 152 41 -3 32 -27 50 -80 61 -16 3 -28 12 -28
19 0 8 -5 16 -11 18 -16 5 -16 87 -1 166 11 56 11 66 -8 107 -24 53 -25 76 -5
115 18 35 13 34 76 14 95 -31 133 -8 146 89 5 32 2 41 -23 62 -23 20 -27 31
-26 67 2 42 0 44 -53 83 -31 22 -66 43 -78 47 -35 10 -120 8 -144 -4z m161
-69 c41 -27 46 -34 46 -69 0 -30 7 -45 30 -67 l30 -28 -27 -5 c-19 -4 -29 -12
-31 -28 -2 -12 2 -22 9 -22 7 0 10 -3 7 -6 -4 -3 -19 1 -35 9 -15 8 -45 15
-66 15 -41 0 -58 9 -40 20 6 4 13 18 15 32 l4 25 12 -27 c14 -34 26 -41 62
-33 36 8 43 45 9 45 -16 0 -20 4 -14 18 18 48 17 69 -6 86 -35 24 -59 21 -59
-9 0 -14 -4 -25 -10 -25 -5 0 -10 5 -10 10 0 6 -6 10 -14 10 -8 0 -18 9 -21
20 -7 22 -40 27 -48 8 -3 -8 -6 -6 -6 4 -1 25 38 48 81 48 25 0 52 -10 82 -31z
m-167 -45 c-3 -3 -12 -4 -19 -1 -8 3 -5 6 6 6 11 1 17 -2 13 -5z m-7 -178 c0
-7 -3 -7 -9 0 -6 5 -13 29 -16 54 l-5 45 15 -45 c8 -25 15 -49 15 -54z m-780
-67 c0 -4 8 -9 19 -12 14 -3 17 -11 14 -31 -4 -20 -1 -26 12 -26 17 0 17 -1 2
-18 -12 -13 -17 -37 -17 -85 0 -36 -4 -68 -9 -71 -4 -3 -6 6 -3 19 3 16 0 25
-9 25 -10 0 -10 3 -1 12 14 14 16 48 4 48 -9 0 -24 64 -37 145 -5 37 -4 39 10
21 8 -11 15 -23 15 -27z m850 37 c0 -3 -4 -8 -10 -11 -5 -3 -10 -1 -10 4 0 6
5 11 10 11 6 0 10 -2 10 -4z m-639 -76 c5 -4 12 -20 15 -38 8 -37 -8 -42 -56
-17 -38 20 -41 55 -5 55 17 0 25 6 26 18 0 13 2 14 6 2 3 -8 10 -17 14 -20z
m562 13 c12 -4 16 -11 12 -24 -10 -32 4 -59 31 -59 20 0 24 -5 24 -29 0 -29
-31 -54 -38 -32 -2 6 -12 11 -22 11 -19 0 -30 -19 -30 -51 0 -13 -7 -19 -21
-19 -20 0 -21 -4 -16 -61 3 -37 12 -68 23 -80 12 -13 14 -23 7 -30 -6 -6 -20
13 -41 59 -18 38 -42 78 -53 88 -25 23 -44 65 -52 120 -6 37 -4 42 14 47 13 4
22 0 25 -11 3 -9 10 -25 15 -34 5 -10 9 -25 9 -34 0 -10 7 -14 23 -12 18 2 22
9 21 36 -2 23 2 32 13 32 13 0 15 9 10 51 -6 45 -4 50 11 44 9 -4 25 -10 35
-12z m-675 -308 c-3 -3 -9 2 -12 12 -6 14 -5 15 5 6 7 -7 10 -15 7 -18z m712
-107 c0 -5 -6 -8 -14 -8 -9 0 -12 7 -9 21 4 16 8 17 14 7 5 -7 9 -16 9 -20z"/>
</g>
</svg>
