<?xml version="1.0" standalone="no"?>
<!DOCTYPE svg PUBLIC "-//W3C//DTD SVG 20010904//EN"
 "http://www.w3.org/TR/2001/REC-SVG-20010904/DTD/svg10.dtd">
<svg version="1.0" xmlns="http://www.w3.org/2000/svg"
 width="177.000000pt" height="102.000000pt" viewBox="0 0 177.000000 102.000000"
 preserveAspectRatio="xMidYMid meet">
<metadata>
Created by potrace 1.13, written by Peter Selinger 2001-2015
</metadata>
<g transform="translate(0.000000,102.000000) scale(0.100000,-0.100000)"
fill="#000000" stroke="none">
<path d="M240 981 c0 -57 29 -115 83 -163 29 -27 56 -48 61 -48 5 0 6 -19 3
-42 -6 -49 6 -127 21 -137 18 -11 25 -84 12 -130 -8 -31 -8 -51 0 -75 7 -23 8
-52 1 -92 -8 -53 -7 -61 12 -81 22 -25 63 -31 70 -10 2 6 -2 27 -10 45 -11 28
-11 41 2 91 8 32 15 69 15 82 0 12 6 30 14 38 24 27 56 91 56 111 0 11 5 20
10 20 13 0 13 -5 -2 -88 -9 -55 -9 -76 1 -101 8 -17 17 -31 21 -31 8 0 25 -40
34 -82 5 -21 14 -29 41 -34 19 -3 42 -4 50 0 19 7 20 42 1 49 -19 7 -56 92
-56 127 0 43 12 90 22 90 6 0 23 -9 38 -20 19 -13 53 -23 94 -27 64 -6 65 -6
94 -53 17 -27 33 -62 37 -79 3 -17 11 -33 16 -36 5 -4 9 -17 9 -31 0 -39 16
-61 50 -68 26 -5 58 3 78 19 9 7 -13 35 -27 35 -22 0 -41 40 -41 85 0 19 -5
44 -11 57 -6 15 -7 32 -1 48 l9 25 17 -33 c9 -18 30 -44 46 -59 17 -14 30 -33
30 -42 0 -8 9 -24 19 -35 11 -12 22 -33 25 -48 7 -40 54 -79 86 -72 14 3 32
12 40 20 13 13 10 19 -25 52 -37 34 -49 56 -101 182 -31 72 -18 227 20 252 7
5 15 -5 22 -25 15 -45 52 -50 60 -8 8 36 7 36 40 15 21 -15 30 -15 64 -4 21 7
41 20 44 29 3 9 11 23 17 32 19 25 3 65 -31 79 -23 9 -30 19 -30 39 0 68 -124
105 -207 63 -22 -12 -54 -33 -71 -47 -20 -17 -42 -25 -66 -25 -20 0 -53 -7
-74 -16 -64 -27 -122 -22 -175 15 -78 53 -193 63 -301 25 -53 -19 -66 -13
-101 47 -40 68 -78 99 -121 99 -31 0 -34 -3 -34 -29z m1027 -97 c-3 -3 -12 -4
-19 -1 -8 3 -5 6 6 6 11 1 17 -2 13 -5z m-86 -81 c-4 -27 -6 -31 -9 -15 -2 15
-10 22 -25 22 -20 0 -20 0 -1 15 31 24 40 18 35 -22z m-434 -19 c18 -10 33
-22 33 -26 0 -5 8 -8 18 -9 12 0 11 -3 -7 -10 -20 -8 -22 -14 -17 -40 3 -17 6
-47 6 -65 0 -27 4 -34 20 -34 22 0 23 -1 14 -24 -7 -18 -64 -23 -64 -6 0 6 -7
10 -15 10 -8 0 -15 5 -15 11 0 11 -11 23 -50 54 -15 12 -25 30 -25 45 0 19 -6
26 -24 28 -13 2 -28 -1 -34 -7 -6 -6 -21 -11 -34 -11 -17 0 -24 -8 -32 -37 -6
-21 -11 -46 -11 -55 0 -12 -8 -18 -23 -18 -21 0 -23 4 -23 55 0 30 4 55 9 55
5 0 26 18 47 40 36 38 39 39 42 18 3 -23 48 -40 48 -19 0 6 7 11 15 11 18 0
21 46 3 53 -7 3 10 4 37 2 28 -1 65 -11 82 -21z m297 -64 c11 -33 19 -78 18
-99 -1 -22 3 -43 8 -46 12 -8 13 -25 1 -25 -5 0 -12 11 -15 25 -7 28 -46 36
-46 10 0 -8 -4 -15 -10 -15 -6 0 -10 -30 -11 -67 0 -65 -1 -67 -14 -38 -7 17
-17 48 -22 70 -6 29 -17 45 -40 60 -37 23 -39 45 -5 60 18 8 22 18 22 51 0 40
2 42 35 48 19 4 35 11 35 16 0 6 6 10 13 10 6 0 21 -27 31 -60z m276 40 c0
-11 -4 -20 -10 -20 -5 0 -10 9 -10 20 0 11 5 20 10 20 6 0 10 -9 10 -20z
m-203 -30 c-2 -32 -4 -37 -13 -25 -12 16 -7 65 6 65 4 0 7 -18 7 -40z m273 20
c0 -24 -22 -35 -47 -25 -16 6 -15 8 5 16 12 4 22 13 22 19 0 5 5 10 10 10 6 0
10 -9 10 -20z"/>
</g>
</svg>
