<?xml version="1.0" standalone="no"?>
<!DOCTYPE svg PUBLIC "-//W3C//DTD SVG 20010904//EN"
 "http://www.w3.org/TR/2001/REC-SVG-20010904/DTD/svg10.dtd">
<svg version="1.0" xmlns="http://www.w3.org/2000/svg"
 width="255.000000pt" height="187.000000pt" viewBox="0 0 255.000000 187.000000"
 preserveAspectRatio="xMidYMid meet">
<metadata>
Created by potrace 1.13, written by Peter Selinger 2001-2015
</metadata>
<g transform="translate(0.000000,187.000000) scale(0.100000,-0.100000)"
fill="#000000" stroke="none">
<path d="M455 1863 c-30 -7 -128 -40 -155 -53 -14 -7 -41 -35 -60 -62 -49 -71
-69 -88 -147 -127 -37 -19 -74 -41 -80 -50 -21 -24 -15 -70 14 -117 40 -62 79
-73 230 -68 105 4 121 2 135 -13 25 -28 58 -92 58 -111 0 -17 52 -163 68 -192
5 -8 14 -40 21 -70 7 -30 17 -70 23 -89 10 -32 8 -35 -33 -72 -24 -21 -56 -43
-71 -50 -44 -18 -55 -71 -29 -132 12 -27 21 -59 21 -71 0 -74 77 -191 122
-184 28 4 52 66 44 116 -4 28 -3 30 10 18 20 -20 17 -76 -6 -131 -11 -26 -20
-63 -20 -83 0 -21 -7 -69 -15 -107 -11 -56 -20 -75 -45 -96 -23 -20 -30 -33
-30 -63 l0 -37 38 7 c20 4 44 13 53 21 9 8 33 18 53 24 27 8 36 15 36 32 0 12
11 40 25 62 35 58 44 80 69 175 53 194 135 290 251 290 28 0 55 -4 62 -8 6 -4
69 -4 140 -1 95 5 143 12 186 29 46 17 71 21 125 16 37 -3 75 -6 86 -6 10 -1
28 -7 40 -15 20 -13 22 -24 24 -116 2 -56 7 -110 12 -120 6 -10 10 -25 10 -34
0 -9 13 -27 29 -41 49 -41 80 -168 44 -181 -27 -9 -53 -34 -53 -50 0 -7 12
-19 28 -26 15 -6 29 -14 32 -18 13 -16 69 13 89 47 12 20 36 41 55 49 64 27
87 93 45 131 -25 22 -63 93 -55 102 7 7 38 -19 100 -85 36 -40 56 -53 77 -53
15 0 30 -4 34 -9 7 -12 113 -61 132 -61 25 0 71 -55 78 -94 l7 -37 51 3 c45 3
51 6 58 29 3 15 4 53 0 85 -6 57 -8 60 -46 79 -22 11 -41 23 -43 28 -2 4 -8 7
-13 7 -12 0 -61 55 -112 127 -37 51 -40 61 -43 134 -3 62 -9 89 -31 131 -24
46 -28 65 -29 143 -1 50 -7 103 -13 118 -6 16 -11 35 -11 42 0 8 -5 26 -12 40
-10 22 -9 28 10 41 12 8 22 22 22 31 0 13 3 13 15 3 8 -7 21 -10 30 -6 9 3 19
-3 26 -15 8 -16 18 -20 40 -17 25 4 29 1 29 -19 0 -32 17 -63 34 -63 8 0 16
-7 20 -15 3 -8 12 -15 20 -15 10 0 16 -12 18 -36 2 -30 10 -40 43 -60 81 -49
87 -45 76 46 -6 42 -5 70 2 78 7 9 7 24 -2 49 -8 20 -13 55 -13 78 1 36 -5 50
-44 95 -25 29 -51 65 -59 79 -19 37 -88 69 -164 74 -68 6 -111 -4 -111 -25 0
-7 -26 -27 -58 -45 -31 -17 -71 -46 -89 -63 -27 -27 -35 -30 -53 -20 -11 6
-73 15 -138 20 -118 9 -254 22 -435 39 -54 5 -119 18 -145 27 -53 20 -181 99
-227 139 -16 14 -35 29 -42 33 -16 10 -73 117 -73 137 0 9 -19 37 -43 63 -24
26 -54 63 -67 82 -13 19 -32 41 -42 48 -10 7 -33 27 -51 43 -17 17 -42 35 -55
40 -24 9 -100 10 -137 2z m55 -63 c0 -5 -8 -10 -17 -10 -15 0 -16 2 -3 10 19
12 20 12 20 0z m-180 -90 c0 -5 -7 -10 -15 -10 -8 0 -15 -5 -15 -12 0 -6 -3
-8 -7 -4 -5 4 1 14 11 22 23 17 26 17 26 4z m270 -364 c0 -2 -7 -7 -16 -10 -8
-3 -12 -2 -9 4 6 10 25 14 25 6z m810 -283 c0 -13 -3 -13 -15 -3 -8 7 -15 16
-15 21 0 5 7 6 15 3 8 -4 15 -13 15 -21z m-663 -239 c-3 -3 -12 -4 -19 -1 -8
3 -5 6 6 6 11 1 17 -2 13 -5z m-52 -14 c-11 -5 -33 -8 -50 -8 -29 0 -29 0 -5
8 14 4 36 8 50 8 23 1 23 0 5 -8z m245 -130 c0 -5 -9 -10 -20 -10 -11 0 -20 5
-20 10 0 6 9 10 20 10 11 0 20 -4 20 -10z m1447 -572 c-3 -8 -6 -5 -6 6 -1 11
2 17 5 13 3 -3 4 -12 1 -19z"/>
</g>
</svg>
