<?xml version="1.0" standalone="no"?>
<!DOCTYPE svg PUBLIC "-//W3C//DTD SVG 20010904//EN"
 "http://www.w3.org/TR/2001/REC-SVG-20010904/DTD/svg10.dtd">
<svg version="1.0" xmlns="http://www.w3.org/2000/svg"
 width="255.000000pt" height="187.000000pt" viewBox="0 0 255.000000 187.000000"
 preserveAspectRatio="xMidYMid meet">
<metadata>
Created by potrace 1.13, written by Peter Selinger 2001-2015
</metadata>
<g transform="translate(0.000000,187.000000) scale(0.100000,-0.100000)"
fill="#000000" stroke="none">
<path d="M1959 1862 c-16 -6 -91 -67 -128 -102 -9 -9 -32 -27 -51 -42 -24 -17
-42 -44 -58 -84 -38 -97 -83 -182 -99 -188 -8 -3 -23 -6 -33 -6 -10 0 -59 -27
-109 -60 -122 -80 -161 -99 -229 -111 -31 -5 -68 -14 -82 -19 -23 -9 -106 -17
-392 -40 -65 -5 -127 -14 -138 -20 -18 -10 -26 -7 -53 20 -18 17 -57 45 -87
63 -30 17 -65 42 -78 54 -29 29 -62 31 -62 4 0 -11 -4 -23 -10 -26 -28 -17 -3
-133 36 -173 8 -7 14 -24 14 -37 0 -13 10 -31 22 -39 19 -13 20 -19 10 -41 -7
-14 -12 -32 -12 -40 0 -8 -29 -44 -65 -80 -64 -65 -64 -66 -58 -110 3 -26 11
-45 18 -45 15 0 28 -28 19 -41 -3 -5 -16 -9 -30 -9 -21 0 -24 -4 -24 -37 0
-59 -35 -173 -52 -173 -17 0 -7 -40 10 -40 16 -1 16 -1 -1 -14 -14 -11 -16
-22 -11 -54 5 -31 2 -46 -12 -66 -11 -14 -24 -26 -31 -26 -6 0 -13 -3 -15 -7
-1 -5 -21 -17 -43 -28 -38 -19 -40 -22 -46 -79 -4 -32 -3 -70 0 -85 7 -23 13
-26 58 -29 l51 -3 7 37 c7 39 53 94 78 94 19 0 125 49 132 61 4 5 19 9 34 9
21 0 41 13 77 52 62 67 93 93 100 86 8 -9 -30 -80 -55 -102 -42 -38 -19 -104
45 -131 19 -8 43 -29 55 -49 20 -34 76 -63 89 -47 3 4 17 12 33 18 15 7 27 18
27 25 -1 20 -24 45 -45 49 -21 4 -31 36 -21 73 3 11 27 44 53 72 94 99 123
129 156 161 19 18 37 45 40 62 4 17 14 32 26 36 21 6 194 16 256 13 22 -1 52
-2 68 -2 15 -1 27 -4 27 -8 0 -5 9 -8 20 -8 11 0 20 7 20 15 0 8 7 15 15 15 8
0 15 -7 15 -15 0 -17 18 -18 74 -5 55 12 136 -6 136 -32 0 -10 5 -18 10 -18 6
0 10 -20 10 -45 0 -25 5 -45 10 -45 6 0 10 -9 10 -20 0 -11 5 -20 10 -20 6 0
10 -9 10 -20 0 -10 8 -24 18 -29 9 -5 23 -30 30 -55 8 -26 24 -51 38 -61 27
-17 64 -84 64 -114 0 -15 10 -23 36 -30 20 -6 44 -16 53 -24 9 -8 33 -17 54
-21 l37 -7 0 37 c0 30 -7 43 -30 63 -25 21 -34 40 -45 96 -8 38 -15 86 -15
107 0 20 -9 57 -20 83 -23 55 -26 111 -6 131 13 12 14 10 10 -18 -8 -50 16
-112 44 -116 45 -7 122 110 122 184 0 12 9 44 21 71 17 41 19 54 9 86 -6 20
-15 37 -20 37 -6 0 -10 7 -10 15 0 8 -7 15 -15 15 -9 0 -18 7 -21 15 -8 21 25
185 43 213 8 13 17 57 20 98 3 41 10 74 15 74 5 0 8 26 7 57 -3 52 0 61 27 89
l29 31 100 -3 c133 -4 180 11 218 70 29 47 35 93 15 117 -7 9 -44 31 -81 50
-78 39 -98 56 -147 127 -35 50 -50 60 -150 97 -49 18 -175 29 -201 17z m111
-68 c0 -2 -7 -4 -15 -4 -8 0 -15 4 -15 10 0 5 7 7 15 4 8 -4 15 -8 15 -10z
m189 -107 c0 -9 -2 -9 -6 1 -2 6 -11 12 -19 12 -8 0 -14 5 -14 10 0 7 6 7 20
0 11 -6 20 -16 19 -23z m-284 -347 c3 -6 -1 -7 -9 -4 -18 7 -21 14 -7 14 6 0
13 -4 16 -10z m-818 -277 c-15 -16 -17 -16 -17 -1 0 9 6 18 13 21 20 7 22 -2
4 -20z m670 -239 c-3 -3 -12 -4 -19 -1 -8 3 -5 6 6 6 11 1 17 -2 13 -5z m83
-14 c24 -8 24 -8 -5 -8 -16 0 -39 3 -50 8 -18 8 -18 9 5 8 14 0 36 -4 50 -8z
m-260 -130 c0 -5 -9 -10 -20 -10 -11 0 -20 5 -20 10 0 6 9 10 20 10 11 0 20
-4 20 -10z m-789 -73 c-8 -8 -11 -7 -11 4 0 20 13 34 18 19 3 -7 -1 -17 -7
-23z m-694 -499 c-3 -8 -6 -5 -6 6 -1 11 2 17 5 13 3 -3 4 -12 1 -19z"/>
</g>
</svg>
