<?xml version="1.0" standalone="no"?>
<!DOCTYPE svg PUBLIC "-//W3C//DTD SVG 20010904//EN"
 "http://www.w3.org/TR/2001/REC-SVG-20010904/DTD/svg10.dtd">
<svg version="1.0" xmlns="http://www.w3.org/2000/svg"
 width="526.000000pt" height="408.000000pt" viewBox="0 0 526.000000 408.000000"
 preserveAspectRatio="xMidYMid meet">
<metadata>
Created by potrace 1.13, written by Peter Selinger 2001-2015
</metadata>
<g transform="translate(0.000000,408.000000) scale(0.100000,-0.100000)"
fill="#000000" stroke="none">
<path d="M889 4066 c-2 -2 -62 -9 -133 -15 -167 -14 -227 -42 -322 -147 -68
-77 -84 -106 -84 -158 0 -50 -61 -105 -183 -166 -137 -69 -159 -89 -165 -149
-3 -34 1 -58 16 -87 94 -188 116 -214 180 -214 18 0 43 -6 55 -12 30 -17 123
-37 176 -37 77 -1 141 -56 141 -121 0 -36 31 -168 45 -190 21 -33 45 -171 55
-305 19 -255 28 -335 54 -480 29 -157 43 -209 85 -304 16 -36 34 -91 41 -121
7 -30 21 -72 31 -92 17 -33 19 -62 19 -245 0 -114 -7 -284 -15 -378 -19 -223
-44 -315 -84 -315 -21 0 -106 -44 -129 -67 -24 -24 -42 -62 -42 -89 0 -52 45
-72 208 -93 35 -5 65 -11 68 -14 3 -2 -10 -15 -28 -28 -48 -34 -57 -49 -58
-95 0 -56 34 -85 120 -101 36 -6 96 -19 135 -27 38 -9 73 -16 76 -16 4 0 33
18 65 39 33 21 79 45 104 52 54 15 73 34 60 60 -19 34 -11 114 19 195 67 183
91 246 111 283 17 35 20 60 21 183 0 213 9 276 43 304 17 16 40 24 62 24 21 0
47 9 61 20 28 22 69 25 121 11 20 -6 44 -6 65 0 17 5 104 14 193 19 88 5 180
13 205 19 24 5 71 14 104 20 304 55 449 94 491 132 33 31 119 59 180 59 48 0
59 -4 85 -29 16 -16 29 -36 29 -43 0 -8 18 -31 39 -52 22 -22 45 -52 52 -67 6
-16 15 -29 18 -29 13 0 48 -74 56 -115 3 -22 18 -59 31 -82 23 -39 24 -49 18
-120 -6 -72 -10 -81 -41 -110 -24 -23 -44 -33 -66 -33 -40 0 -114 -36 -128
-62 -8 -15 -8 -32 1 -64 18 -63 48 -75 236 -90 61 -5 75 -3 92 12 37 34 51 44
61 44 6 0 13 12 17 28 3 15 14 60 25 100 10 40 19 84 19 97 0 14 11 43 25 64
25 37 26 41 14 104 -10 53 -10 71 1 98 l14 32 59 -64 c117 -126 162 -185 210
-277 27 -49 28 -60 29 -184 l1 -132 -35 -30 c-19 -17 -49 -39 -66 -48 -32 -17
-72 -82 -72 -117 0 -39 22 -67 68 -88 60 -27 113 -36 143 -25 17 7 31 5 46 -5
27 -18 70 -10 143 26 l55 27 8 100 c4 54 4 115 1 134 -10 55 -14 149 -17 360
-3 206 -4 210 -56 270 -90 102 -128 160 -116 180 6 10 24 183 31 295 3 51 11
89 22 105 9 14 25 41 35 60 35 66 75 76 147 39 50 -26 125 -23 164 8 21 17 74
32 118 34 4 0 49 19 100 43 51 24 105 46 119 49 14 4 36 15 48 26 13 11 33 23
45 27 32 10 206 114 253 152 24 18 46 45 49 60 4 15 18 39 32 54 43 46 21 87
-78 149 -157 99 -317 134 -655 144 -162 4 -340 47 -426 101 -22 14 -73 40
-112 58 -40 19 -106 49 -147 68 -41 19 -129 47 -195 62 -66 15 -147 36 -180
48 -217 76 -176 69 -485 79 -157 5 -393 10 -525 12 l-240 2 -95 32 c-52 17
-129 42 -170 53 -41 12 -140 56 -220 98 -139 72 -146 77 -169 124 -20 39 -24
62 -23 117 4 127 -79 314 -191 436 -22 24 -87 132 -87 145 0 5 -24 33 -52 62
-62 62 -145 98 -224 98 -28 0 -53 -2 -55 -4z m156 -72 c65 -31 103 -67 139
-134 l27 -50 -30 6 c-26 5 -31 3 -31 -12 0 -11 11 -28 25 -38 14 -10 25 -23
25 -28 0 -5 11 -21 25 -36 14 -15 25 -32 25 -39 0 -6 3 -18 6 -27 4 -11 1 -16
-10 -16 -9 0 -16 5 -16 10 0 17 -38 11 -43 -7 -3 -11 -5 -7 -6 10 -1 17 -7 27
-17 27 -13 0 -15 7 -9 40 6 36 5 40 -14 40 -12 0 -21 -4 -21 -8 0 -15 -44 -58
-78 -78 -33 -19 -92 -114 -92 -149 0 -23 38 -18 45 6 4 11 18 24 31 29 13 5
24 16 24 24 0 7 8 16 18 20 9 3 23 9 30 12 7 3 12 -1 12 -10 0 -9 -7 -16 -15
-16 -8 0 -15 -7 -15 -15 0 -8 -7 -15 -15 -15 -8 0 -15 -7 -15 -16 0 -9 -9 -18
-19 -21 -12 -3 -26 -25 -40 -62 -26 -72 -26 -81 -1 -81 11 0 20 -4 20 -10 0
-5 -7 -10 -15 -10 -9 0 -15 -10 -15 -26 0 -17 -7 -28 -18 -31 -18 -4 -42 -54
-42 -86 0 -25 41 -22 47 3 3 11 12 20 19 20 21 0 53 58 59 110 12 96 16 110
30 110 8 0 17 11 21 24 3 13 14 26 25 29 11 3 19 14 19 25 0 15 5 19 19 15 10
-3 28 0 40 6 28 16 26 3 -4 -25 -51 -47 -14 -76 38 -31 30 25 38 77 12 77 -22
0 -19 17 4 23 17 4 19 -3 23 -82 2 -47 6 -93 9 -101 3 -11 -3 -14 -24 -12 -18
2 -29 -2 -33 -13 -5 -11 -14 -14 -38 -10 -27 6 -34 3 -45 -19 -8 -13 -11 -31
-8 -39 5 -15 -90 -85 -205 -150 -56 -32 -67 -33 -119 -6 -29 14 -46 32 -59 62
-17 38 -17 48 -6 102 7 33 21 78 32 100 16 34 19 37 22 18 5 -37 35 -28 55 17
21 49 22 70 2 70 -8 0 -15 5 -15 10 0 6 9 10 19 10 11 0 23 9 26 20 3 11 15
20 25 20 10 0 22 10 26 22 3 12 13 28 20 36 18 18 18 52 0 52 -8 0 -26 -4 -40
-10 -25 -9 -26 -8 -25 28 0 20 3 31 6 25 2 -7 13 -13 24 -13 15 0 19 7 19 34
0 33 21 66 41 66 13 0 11 34 -3 65 -8 19 -19 25 -42 25 -51 0 -63 -13 -48 -53
15 -43 15 -47 -3 -47 -12 0 -15 13 -15 55 0 43 -3 55 -16 55 -29 0 -47 -28
-40 -63 4 -18 9 -62 12 -98 l4 -66 -25 5 c-14 2 -28 8 -31 13 -10 18 -44 10
-44 -10 0 -23 25 -51 46 -51 8 0 14 -4 14 -10 0 -5 6 -10 14 -10 17 0 -2 -51
-68 -189 -32 -66 -42 -99 -46 -155 -5 -67 -6 -71 -31 -74 -18 -2 -31 -13 -42
-38 -21 -43 -22 -74 -3 -74 27 0 46 12 46 29 0 9 11 21 25 27 22 11 27 9 49
-21 14 -17 39 -38 55 -45 22 -9 31 -19 31 -36 0 -13 -6 -24 -13 -24 -11 0 -29
-40 -42 -95 -1 -5 -9 6 -17 25 -14 32 -44 63 -109 113 -13 9 -37 17 -54 17
-40 0 -75 10 -75 22 0 5 15 6 34 3 29 -6 34 -4 39 17 13 46 9 61 -16 56 -20
-4 -23 -1 -19 19 3 18 0 23 -16 23 -12 0 -23 -4 -26 -9 -3 -5 -26 -14 -51 -20
-35 -9 -45 -16 -45 -32 0 -19 4 -21 38 -15 l37 5 -35 -14 c-49 -19 -62 -18
-125 10 -48 21 -54 27 -43 39 11 12 13 11 16 -5 5 -26 42 -25 42 1 0 11 5 20
10 20 6 0 10 9 10 20 0 29 -37 27 -43 -2 -4 -20 -4 -19 -6 5 -1 20 -6 27 -21
27 -11 0 -20 4 -20 9 0 5 -3 18 -6 28 -4 13 -3 14 4 5 14 -21 82 -5 82 19 0
11 -6 19 -14 19 -9 0 -12 8 -8 25 2 15 0 25 -7 25 -6 0 -11 9 -11 20 0 16 -7
20 -35 20 -19 0 -35 5 -35 11 0 16 -27 39 -47 39 -10 0 -26 6 -35 14 -15 11
-8 18 67 56 53 26 104 62 136 94 48 49 50 53 45 93 -5 41 -3 45 65 122 94 107
139 128 314 145 190 19 198 19 260 -10z m342 -439 c45 -89 61 -151 61 -239 0
-68 4 -88 28 -136 29 -57 30 -57 174 -132 142 -74 233 -111 314 -128 23 -4 73
-20 111 -36 69 -27 73 -28 325 -31 140 -2 381 -7 535 -12 297 -9 299 -9 445
-70 41 -17 85 -31 96 -31 12 0 24 -6 27 -13 3 -8 21 -21 40 -30 29 -14 36 -24
42 -57 7 -42 27 -55 76 -48 36 5 31 64 -8 97 -20 18 -22 22 -8 17 11 -5 34
-12 50 -17 34 -10 180 -78 275 -128 36 -19 81 -42 100 -52 43 -23 257 -80 297
-79 52 0 235 -8 324 -15 61 -5 89 -11 93 -21 3 -8 15 -14 26 -14 20 0 20 -1 6
-22 -9 -12 -16 -30 -16 -39 0 -12 -13 -18 -56 -23 -31 -4 -69 -13 -83 -21 -14
-7 -55 -26 -91 -42 -36 -15 -91 -51 -124 -80 -39 -35 -67 -53 -85 -53 -14 0
-63 -3 -108 -7 -73 -5 -83 -4 -83 11 0 9 5 16 10 16 24 0 7 37 -25 54 -44 24
-45 38 -3 29 31 -6 31 -6 25 25 -5 24 -3 32 8 32 22 0 18 30 -7 57 -18 19 -19
23 -5 23 8 0 18 9 22 20 6 18 8 18 43 5 20 -8 78 -16 127 -19 94 -4 155 -21
155 -43 0 -17 53 -30 58 -15 2 7 15 12 28 12 17 0 24 6 24 20 0 12 -7 20 -17
21 -17 1 -17 2 0 6 29 8 20 40 -14 52 -42 14 -96 14 -101 0 -3 -9 -10 -9 -23
-2 -11 6 -39 14 -62 18 -35 5 -43 4 -43 -9 0 -13 -7 -12 -47 6 -30 13 -75 22
-116 24 -41 2 -78 9 -92 18 -14 9 -45 16 -70 16 -27 0 -45 5 -45 11 0 7 -11 9
-31 5 -35 -7 -69 8 -118 54 -21 19 -41 30 -52 27 -10 -3 -23 1 -30 9 -17 20
-49 18 -49 -4 0 -16 55 -93 72 -100 12 -6 9 -22 -7 -38 -19 -19 -20 -54 -1
-54 9 0 12 -7 9 -20 -3 -11 0 -33 5 -50 9 -25 8 -30 -5 -30 -9 0 -27 12 -40
27 -20 21 -24 33 -19 62 3 20 10 37 16 39 5 2 10 24 10 48 0 35 -3 44 -17 44
-10 0 -31 9 -48 20 -40 26 -65 26 -65 -2 0 -20 -1 -20 -18 -5 -24 22 -50 22
-54 0 -3 -16 -5 -16 -23 3 -11 12 -28 31 -37 42 -17 21 -17 22 2 22 13 0 20 7
20 20 0 13 -7 20 -18 20 -19 0 -42 18 -42 32 0 4 7 8 15 8 8 0 15 8 15 19 0
16 -8 19 -50 19 -47 0 -50 -2 -50 -26 0 -13 8 -31 18 -38 16 -12 16 -13 0 -14
-25 0 -32 18 -32 80 l-1 55 -57 28 c-31 15 -78 30 -103 34 -45 6 -47 5 -43
-18 2 -18 10 -25 32 -27 17 -2 30 -11 33 -22 3 -10 14 -22 26 -28 l22 -11 -22
0 c-33 -1 -30 -37 5 -55 15 -8 43 -28 62 -45 19 -17 43 -31 52 -31 25 0 31
-18 8 -25 -28 -9 -25 -43 6 -57 20 -9 30 -9 45 0 25 16 39 15 39 -1 0 -8 16
-22 35 -33 20 -10 35 -26 35 -36 0 -10 5 -18 10 -18 6 0 10 -7 10 -15 0 -8 -7
-15 -15 -15 -8 0 -15 -7 -15 -15 0 -8 -4 -15 -10 -15 -16 0 -12 -32 7 -52 9
-11 11 -18 5 -18 -15 0 -16 -106 -2 -115 17 -10 11 -25 -10 -25 -11 0 -20 -4
-20 -9 0 -5 -11 -12 -25 -15 -36 -9 -31 -35 15 -80 22 -22 40 -43 40 -48 0 -4
9 -8 20 -8 22 0 26 20 10 51 -7 13 -7 19 0 19 5 0 10 7 10 15 0 8 5 15 10 15
6 0 10 9 10 20 0 13 7 20 20 20 21 0 38 40 25 59 -3 6 -1 11 4 11 6 0 11 10
11 23 1 21 2 20 30 -10 37 -41 56 -42 65 -3 6 29 25 42 25 18 0 -7 3 -30 6
-50 5 -31 4 -38 -10 -38 -19 0 -21 -22 -4 -53 14 -26 12 -78 -3 -88 -7 -4 -7
-23 1 -60 13 -62 13 -99 2 -129 -7 -19 -12 -13 -40 44 -24 48 -38 66 -52 66
-11 0 -20 -4 -20 -10 0 -5 -6 -10 -14 -10 -15 0 -26 -43 -26 -106 0 -24 -6
-49 -15 -58 -20 -20 -20 -20 17 -103 22 -50 37 -73 49 -73 14 0 17 9 17 44 -1
29 5 50 15 61 10 9 17 25 17 36 0 15 7 19 35 19 33 0 37 -4 56 -47 11 -27 23
-60 26 -75 4 -19 12 -28 24 -28 23 0 24 12 4 76 -8 27 -15 50 -15 50 0 1 11
-1 25 -4 20 -3 25 0 25 17 0 14 -6 21 -19 21 -14 0 -21 9 -25 38 -13 76 -14
151 -3 155 8 2 9 13 1 39 -11 34 -10 35 14 30 23 -5 24 -3 17 24 -4 16 -8 58
-9 94 -1 38 -8 78 -18 98 -9 17 -13 32 -8 32 5 0 10 11 12 25 l3 25 38 -36
c26 -25 45 -35 65 -34 15 1 46 2 70 1 38 -1 42 -3 42 -26 0 -14 8 -29 20 -35
42 -22 11 -60 -50 -60 -33 0 -48 -6 -71 -29 -17 -17 -29 -40 -29 -55 0 -19 -5
-26 -20 -26 -16 0 -20 -7 -20 -31 0 -17 5 -39 11 -51 16 -30 18 -338 2 -338
-15 0 -17 -23 -4 -48 5 -9 24 -52 42 -94 18 -43 39 -78 46 -78 16 0 17 -42 2
-57 -6 -6 -10 -33 -8 -61 3 -39 1 -48 -8 -40 -7 6 -13 22 -13 37 0 14 -14 44
-31 66 -24 32 -27 41 -15 43 22 5 20 20 -11 112 -20 61 -31 80 -45 80 -23 0
-23 -22 2 -95 23 -68 24 -73 8 -57 -7 7 -20 12 -30 12 -23 0 -24 -36 -1 -58
16 -16 16 -17 0 -20 -18 -4 -22 -32 -8 -60 5 -9 15 -30 22 -47 8 -16 22 -36
32 -43 9 -7 17 -23 17 -35 0 -13 12 -30 28 -41 21 -14 28 -25 24 -42 -7 -39 6
-74 28 -74 11 0 20 7 20 15 0 8 5 15 10 15 6 0 10 7 10 15 0 8 5 15 10 15 16
0 12 26 -11 66 -11 20 -18 44 -16 53 3 12 7 9 15 -11 6 -14 17 -30 25 -35 8
-4 19 -18 26 -31 9 -18 9 -22 -2 -22 -10 0 -16 -18 -21 -55 -5 -48 -3 -60 16
-85 28 -38 62 -41 56 -6 -3 16 0 27 9 30 27 11 33 6 27 -22 -3 -16 -1 -68 5
-115 8 -72 8 -92 -5 -119 -14 -32 -15 -32 -11 37 5 88 -10 155 -35 155 -13 0
-18 -8 -18 -25 0 -14 -5 -25 -11 -25 -8 0 -9 -11 -5 -32 3 -17 11 -75 16 -127
16 -145 52 -301 70 -301 14 0 16 -15 11 -127 -1 -15 -41 -18 -41 -3 0 6 5 10
10 10 6 0 10 20 10 45 0 38 -3 45 -20 45 -15 0 -20 -7 -20 -30 0 -18 -10 -39
-25 -54 -14 -14 -25 -35 -25 -48 0 -21 -2 -20 -33 10 -39 38 -64 41 -69 10 -5
-33 -29 -33 -73 2 -21 16 -46 30 -56 30 -29 0 -23 28 15 66 39 39 56 43 56 14
0 -23 37 -28 46 -6 3 8 14 16 25 19 23 6 26 47 3 47 -11 0 -14 5 -9 18 4 9 10
88 13 174 l5 156 -38 69 c-48 85 -98 156 -146 208 -105 114 -102 110 -85 113
26 5 19 29 -20 69 -49 52 -78 93 -65 93 6 0 11 7 11 15 0 15 -3 24 -34 82 -9
17 -16 42 -16 55 0 13 -6 33 -14 43 -8 11 -12 25 -9 32 9 22 -30 103 -49 103
-11 0 -18 -8 -18 -20 0 -11 -5 -20 -10 -20 -12 0 -3 -98 11 -115 13 -18 39
-99 39 -126 0 -27 41 -91 93 -147 64 -67 10 -28 -123 89 -19 17 -54 42 -77 55
-60 36 -173 216 -173 276 0 36 -13 62 -54 108 -17 19 -42 56 -56 83 -25 47
-59 64 -61 30 0 -11 -3 -13 -6 -5 -5 13 -49 17 -55 4 -1 -5 -55 -11 -118 -14
-63 -3 -107 -4 -98 -1 10 2 21 16 24 29 4 14 17 29 29 34 15 6 25 20 29 43 3
18 17 44 31 57 14 13 25 32 25 42 0 30 -37 21 -67 -17 -15 -19 -36 -35 -45
-35 -10 0 -19 -12 -23 -32 -8 -36 -36 -68 -58 -68 -8 0 -20 -13 -27 -30 -7
-17 -18 -30 -25 -30 -8 0 -15 -4 -17 -9 -5 -13 -218 -71 -261 -71 -20 0 -56
-6 -79 -14 -24 -8 -57 -16 -75 -20 -27 -4 -31 -3 -26 12 4 9 11 20 16 23 13 9
28 87 21 114 -9 38 -44 34 -44 -5 0 -20 -5 -30 -15 -30 -11 0 -16 -13 -17 -47
-1 -27 -2 -60 -3 -75 -1 -33 -15 -51 -15 -20 0 28 -36 30 -44 4 -6 -17 -22
-19 -191 -21 -123 -1 -185 1 -185 8 0 6 11 13 24 17 16 4 26 15 30 35 3 17 12
29 21 29 17 0 21 35 5 45 -19 12 -63 109 -51 113 6 2 11 13 11 24 0 23 23 48
44 48 9 0 16 5 16 10 0 6 7 10 15 10 8 0 15 5 15 10 0 6 7 10 15 10 10 0 15
10 15 34 0 32 2 35 40 41 22 4 40 11 40 15 0 5 10 10 23 12 16 2 23 11 25 32
3 28 3 28 -37 21 -37 -6 -41 -5 -41 14 0 21 -27 41 -54 41 -9 0 -16 -7 -16
-15 0 -8 -7 -15 -15 -15 -8 0 -15 -6 -15 -13 0 -16 -55 -77 -69 -77 -6 0 -11
-9 -11 -20 0 -11 -4 -20 -8 -20 -5 0 -19 -9 -32 -20 -16 -14 -21 -26 -17 -42
4 -12 1 -28 -4 -35 -8 -9 -8 -27 1 -62 12 -51 5 -141 -11 -141 -5 0 -9 -7 -9
-15 0 -8 -7 -15 -15 -15 -8 0 -15 -4 -15 -10 0 -5 -13 -7 -32 -3 l-31 6 5 -39
c5 -36 3 -42 -24 -57 -16 -9 -34 -30 -40 -45 l-11 -28 -28 29 c-29 28 -38 57
-19 57 6 0 10 7 10 15 0 7 8 18 17 24 16 9 16 13 2 59 -16 47 -15 50 2 63 11
7 19 21 19 31 0 10 7 18 15 18 8 0 17 11 21 25 3 14 10 25 15 25 5 0 9 9 9 20
0 11 -7 20 -15 20 -28 0 -65 -24 -65 -42 0 -14 -8 -18 -34 -18 -31 0 -34 -3
-40 -35 -4 -20 -4 -40 -1 -45 3 -6 1 -10 -4 -10 -6 0 -11 -7 -11 -15 0 -8 -4
-15 -10 -15 -14 0 -13 -33 2 -48 9 -9 6 -12 -15 -12 -15 0 -27 -4 -27 -10 0
-5 -7 -10 -16 -10 -12 0 -15 -7 -11 -26 4 -23 2 -25 -24 -19 -34 8 -59 -12
-59 -46 l0 -22 -26 24 c-40 37 -99 119 -121 169 -11 25 -27 51 -36 58 -21 18
-3 62 26 62 17 0 19 5 13 32 -8 41 -9 41 -45 33 -22 -5 -33 -14 -37 -31 -9
-35 -19 -30 -34 19 -8 23 -24 60 -36 82 -12 22 -25 60 -29 85 -9 54 -18 73
-61 127 -46 56 -44 75 11 113 25 17 45 37 45 44 0 8 16 17 37 21 44 8 53 18
53 63 0 25 -4 32 -20 32 -11 0 -20 -4 -20 -10 0 -5 -15 -10 -32 -10 -26 0 -36
-6 -45 -27 -7 -15 -13 -33 -13 -39 0 -13 -60 -48 -68 -39 -3 2 1 18 8 34 7 17
9 39 5 48 -4 10 -8 78 -9 152 -1 118 1 135 16 145 10 6 18 19 18 30 0 10 11
29 25 42 45 42 26 81 -26 53 -18 -9 -19 -8 -10 9 7 13 26 23 51 27 22 4 40 11
40 16 0 5 7 9 15 9 8 0 15 9 15 20 0 13 -7 20 -19 20 -26 0 -51 10 -51 21 0 5
7 9 15 9 8 0 32 9 54 20 28 15 40 29 45 52 9 48 7 78 -6 78 -7 0 11 16 41 35
29 19 54 35 56 35 2 0 31 16 65 35 34 19 64 35 67 35 3 0 -2 -11 -11 -25 -9
-13 -16 -31 -16 -40 0 -8 -6 -15 -13 -15 -8 0 -24 -11 -37 -25 -13 -14 -29
-25 -36 -25 -7 0 -16 -10 -19 -22 -4 -13 -15 -32 -25 -43 -10 -11 -22 -32 -25
-47 -4 -16 -12 -28 -17 -28 -26 0 -68 -79 -68 -127 0 -21 38 -15 45 6 7 23 32
18 38 -7 2 -10 -12 -38 -30 -63 -18 -26 -33 -56 -33 -68 0 -14 -6 -21 -20 -21
-14 0 -27 -15 -45 -50 -29 -57 -32 -80 -10 -80 13 0 15 -7 9 -35 -5 -31 -4
-35 14 -35 36 0 64 48 61 105 -3 76 0 95 15 95 8 0 16 7 20 15 3 8 14 15 24
15 40 0 82 61 50 73 -16 5 41 58 95 89 22 13 37 29 37 41 0 16 -6 19 -35 15
-29 -3 -35 -1 -35 15 0 16 -5 18 -30 14 -23 -5 -28 -3 -23 8 3 8 13 15 22 15
9 0 22 14 29 33 7 17 22 50 32 72 11 22 20 45 20 51 0 7 9 14 21 17 11 3 23
14 25 24 3 10 18 24 34 31 24 11 30 21 39 76 6 34 11 81 11 104 0 35 -3 42
-20 42 -14 0 -20 -7 -20 -22 0 -27 -16 -55 -26 -46 -3 4 -8 49 -10 100 -2 51
-6 107 -10 123 l-7 30 24 -30 c14 -16 39 -57 56 -90z m-247 81 c0 -2 -7 -9
-15 -16 -13 -11 -14 -10 -9 4 5 14 24 23 24 12z m-837 -303 c-7 -2 -19 -2 -25
0 -7 3 -2 5 12 5 14 0 19 -2 13 -5z m-40 -100 c-7 -2 -19 -2 -25 0 -7 3 -2 5
12 5 14 0 19 -2 13 -5z m652 -206 c-7 -24 -25 -67 -39 -95 -29 -58 -33 -82
-12 -82 10 0 4 -16 -19 -52 -67 -103 -64 -103 -65 -15 0 48 5 84 13 93 6 8 17
20 23 27 6 7 15 28 19 45 3 18 11 32 16 32 5 0 9 20 9 45 0 45 0 45 34 45 l34
0 -13 -43z m240 -97 c3 -5 1 -10 -4 -10 -6 0 -11 5 -11 10 0 6 2 10 4 10 3 0
8 -4 11 -10z m2814 -530 c23 0 48 -8 64 -20 27 -22 57 -26 57 -9 0 5 5 7 10 4
19 -12 11 -45 -10 -45 -11 0 -20 -7 -20 -15 0 -8 -5 -15 -11 -15 -6 0 -17 -7
-25 -15 -20 -20 -68 -19 -85 1 -7 9 -23 20 -36 25 -26 10 -31 29 -7 29 11 0
15 9 14 33 -2 40 0 56 7 40 2 -7 22 -13 42 -13z m-102 -27 c-3 -3 -10 -2 -16
2 -7 4 -7 10 2 20 10 11 13 11 15 -2 2 -8 1 -17 -1 -20z m157 -857 c3 -13 3
-45 0 -71 l-7 -46 -17 38 c-9 21 -13 40 -8 41 4 2 8 17 8 33 0 35 15 38 24 5z
m-568 -326 c7 -14 13 -35 14 -47 0 -16 6 -23 20 -23 16 0 20 7 20 30 0 17 5
30 10 30 6 0 10 -4 10 -10 0 -5 8 -10 18 -10 10 0 26 -6 35 -13 15 -10 16 -19
8 -64 -6 -30 -7 -72 -2 -105 7 -38 6 -57 -3 -68 -20 -25 -36 -69 -37 -103 0
-48 -33 -162 -50 -178 -51 -48 -81 -61 -123 -54 -22 3 -65 10 -94 14 -51 7
-97 31 -59 31 9 0 17 4 17 8 0 4 16 14 35 21 19 7 35 18 35 25 0 8 13 19 29
26 16 6 41 25 56 42 25 27 27 38 32 142 6 109 5 114 -21 158 -14 24 -26 58
-26 74 0 17 -13 50 -29 75 l-28 45 59 -11 c47 -8 63 -16 74 -35z m-2424 -110
c16 0 38 5 49 10 17 10 19 7 19 -25 0 -28 4 -35 19 -35 11 0 22 6 24 13 3 7 6
5 6 -5 1 -13 -7 -18 -24 -18 -21 0 -25 -5 -25 -30 0 -20 5 -30 15 -30 8 0 15
-7 15 -16 0 -12 7 -15 25 -12 20 4 25 0 30 -24 13 -57 -19 -182 -55 -218 -18
-18 -40 -89 -51 -168 -11 -76 -16 -92 -31 -92 -23 0 -58 -39 -65 -73 -7 -36
-37 -53 -70 -38 -13 6 -37 11 -54 11 -26 0 -29 2 -19 19 15 30 12 51 -8 51
-22 0 -42 -19 -42 -40 0 -13 -7 -15 -30 -12 -17 2 -30 10 -30 18 0 8 -9 14
-20 14 -58 0 33 86 103 97 25 4 44 14 54 29 17 27 66 211 60 228 -2 6 2 81 9
166 7 85 13 170 14 188 l0 33 26 -20 c15 -12 40 -21 56 -21z m238 -26 c18 -46
11 -171 -20 -349 -15 -89 -29 -115 -31 -60 -3 57 0 92 12 161 9 49 7 82 -5
161 -9 55 -16 103 -16 107 0 3 11 6 25 6 18 0 28 -7 35 -26z m2909 -471 c0
-25 -1 -25 -8 -8 -5 11 -7 23 -4 28 8 14 13 7 12 -20z m-3015 -120 c-12 -39
-32 -70 -65 -104 -53 -54 -69 -60 -69 -26 0 17 11 28 42 42 43 20 43 20 57
100 8 49 20 84 30 92 14 10 16 7 19 -18 2 -17 -4 -55 -14 -86z m3026 7 c0 -16
-2 -30 -4 -30 -2 0 -6 14 -8 30 -3 17 -1 30 4 30 4 0 8 -13 8 -30z m-226 -105
c-4 -8 -11 -15 -16 -15 -6 0 -5 6 2 15 7 8 14 15 16 15 2 0 1 -7 -2 -15z
m-2753 -209 c29 -25 26 -34 -25 -74 -37 -29 -95 -30 -119 -2 -9 11 -17 25 -17
30 0 6 -10 10 -22 10 -20 0 -21 1 -3 20 10 11 26 20 35 20 23 0 43 24 38 47
-4 20 -37 31 -47 15 -3 -5 -20 -16 -37 -25 -26 -14 -33 -24 -38 -62 -6 -36
-11 -45 -27 -45 -14 0 -19 7 -19 25 0 21 -5 25 -30 25 -37 0 -40 23 -5 46 13
8 56 27 95 40 74 26 87 34 148 97 l37 37 5 -91 c5 -82 7 -93 31 -113z"/>
<path d="M990 3910 c0 -19 53 -50 86 -50 23 0 16 37 -11 54 -35 23 -75 21 -75
-4z"/>
<path d="M604 3877 c-26 -13 -47 -70 -46 -124 1 -37 -2 -43 -28 -55 -19 -8
-32 -23 -36 -40 -3 -16 -12 -28 -19 -28 -8 0 -17 -9 -20 -20 -3 -11 -12 -20
-18 -20 -7 0 -21 -18 -31 -40 -11 -22 -23 -40 -27 -40 -4 0 -11 -9 -14 -20 -3
-11 -15 -20 -26 -20 -34 0 -24 -37 12 -45 28 -6 36 -3 65 29 19 21 34 46 34
57 0 10 6 19 14 19 8 0 18 9 21 20 3 11 11 20 16 20 5 0 9 9 9 20 0 11 3 20 8
21 81 6 82 6 82 -13 0 -11 7 -18 20 -18 25 0 27 36 3 44 -10 3 3 3 30 0 38 -4
47 -2 47 10 0 9 5 16 10 16 13 0 13 61 0 94 -6 17 -17 26 -31 26 -22 0 -22 -7
-4 -68 6 -19 1 -16 -29 14 -45 45 -49 89 -11 118 48 36 24 71 -31 43z"/>
<path d="M1018 3810 c-7 -11 -21 -20 -31 -20 -17 0 -37 -35 -37 -66 0 -8 9
-14 20 -14 11 0 20 5 20 10 0 6 4 10 9 10 18 0 81 64 81 82 0 25 -46 24 -62
-2z"/>
<path d="M670 3567 c0 -20 -4 -23 -25 -19 -20 3 -25 0 -25 -16 0 -11 -4 -22
-10 -24 -5 -1 -12 -18 -16 -35 -6 -29 -4 -33 14 -33 11 0 23 8 25 18 4 14 6
14 12 -5 4 -14 15 -23 27 -23 16 0 19 5 16 25 -4 19 -1 25 13 25 12 0 19 7 19
19 0 11 6 21 13 24 9 3 9 11 2 33 -8 21 -18 30 -38 32 -23 3 -27 0 -27 -21z"/>
<path d="M868 3443 c-11 -3 -18 -14 -18 -29 0 -17 -5 -24 -20 -24 -13 0 -20
-7 -20 -20 0 -11 -4 -20 -10 -20 -17 0 -11 -48 8 -59 9 -6 11 -11 5 -11 -7 0
-13 -11 -13 -25 0 -18 5 -25 20 -25 15 0 20 7 21 28 0 15 3 21 6 15 2 -7 14
-13 25 -13 16 0 19 5 16 25 -4 17 -1 25 8 25 8 0 14 5 14 10 0 6 10 10 21 10
19 0 21 4 14 38 -4 20 -11 39 -16 40 -5 2 -9 12 -9 23 0 19 -14 22 -52 12z
m34 -58 c3 -14 1 -25 -3 -25 -5 0 -9 11 -9 25 0 14 2 25 4 25 2 0 6 -11 8 -25z"/>
<path d="M1107 3433 c-4 -3 -7 -15 -7 -25 0 -29 44 -20 48 10 3 16 -2 22 -16
22 -10 0 -22 -3 -25 -7z"/>
<path d="M437 3408 c-3 -13 -9 -44 -12 -70 -6 -41 -5 -48 10 -48 9 0 22 6 29
13 15 15 28 89 20 111 -9 24 -41 19 -47 -6z"/>
<path d="M1070 3360 c0 -13 7 -20 20 -20 13 0 20 7 20 20 0 13 -7 20 -20 20
-13 0 -20 -7 -20 -20z"/>
<path d="M1390 3294 c0 -17 -6 -28 -20 -31 -11 -3 -20 -12 -20 -19 0 -8 -4
-14 -10 -14 -5 0 -16 -15 -24 -34 -8 -18 -19 -37 -25 -40 -19 -12 -13 -46 8
-46 11 0 23 5 26 10 3 6 11 10 17 10 6 0 3 -11 -6 -25 -20 -30 -21 -55 -2 -55
18 0 30 -30 16 -44 -15 -15 -12 -46 5 -46 8 0 15 -9 15 -20 0 -13 7 -20 19
-20 11 0 23 9 26 20 7 23 45 27 45 5 0 -8 6 -15 13 -15 9 0 12 -10 9 -30 -4
-25 -1 -30 16 -30 16 0 23 8 28 35 6 31 8 34 35 28 26 -5 29 -3 29 21 0 31
-20 56 -44 56 -9 0 -16 4 -16 9 0 5 -10 13 -22 17 -27 8 -47 32 -48 57 0 9 -7
17 -15 17 -11 0 -15 12 -15 50 0 28 -4 50 -10 50 -6 0 -6 9 0 26 6 14 10 39
10 55 0 22 -5 29 -20 29 -15 0 -20 -7 -20 -26z"/>
<path d="M1796 2883 c-5 -12 -9 -14 -18 -5 -17 17 -48 15 -48 -3 0 -10 -11
-15 -35 -15 -29 0 -37 -5 -46 -27 -6 -15 -15 -31 -21 -34 -6 -4 -16 -29 -23
-55 -11 -43 -15 -49 -36 -46 -26 3 -28 -1 -64 -103 -10 -27 -22 -54 -26 -59
-17 -19 -10 -46 11 -46 15 0 28 14 45 53 14 28 25 46 25 40 0 -7 9 -13 19 -13
15 0 24 15 41 65 12 36 25 65 30 65 4 0 11 10 15 23 5 17 8 18 12 7 3 -8 10
-18 16 -21 6 -5 4 -30 -7 -73 -20 -82 -20 -86 3 -86 12 0 21 9 25 25 4 16 13
25 26 25 14 0 21 9 26 34 7 38 34 58 34 26 0 -24 35 -27 44 -4 3 9 6 42 6 75
0 51 3 59 18 59 13 0 24 -13 35 -40 9 -24 11 -40 5 -40 -6 0 -9 -19 -6 -45 2
-31 -1 -45 -9 -45 -8 0 -13 -15 -13 -41 0 -22 -6 -46 -13 -53 -7 -8 -19 -50
-26 -96 -8 -50 -19 -84 -27 -87 -10 -4 -14 -27 -14 -84 0 -72 2 -79 20 -79 14
0 20 7 20 23 0 44 35 177 47 177 6 0 17 25 23 55 7 33 17 55 24 55 10 0 15 29
18 114 3 87 8 117 20 130 9 9 21 16 27 16 6 0 11 11 11 25 0 14 2 25 5 25 13
0 62 -30 74 -44 17 -20 47 -21 55 -1 4 12 15 14 46 9 36 -6 40 -4 40 14 0 16
-10 24 -42 33 -24 6 -72 20 -107 30 -72 21 -101 24 -101 9 0 -5 -13 -7 -30 -3
-19 3 -30 1 -30 -6 0 -25 -39 -9 -60 24 -23 37 -54 46 -64 18z m14 -79 l35
-11 -40 1 c-22 0 -48 -4 -57 -8 -15 -7 -18 -3 -18 23 0 30 1 31 23 19 12 -7
38 -18 57 -24z"/>
<path d="M2381 2814 c-11 -13 -11 -24 -2 -53 10 -36 13 -38 73 -49 35 -7 66
-18 70 -27 5 -8 18 -15 28 -15 28 0 28 60 0 80 -11 8 -20 22 -20 30 0 11 -18
22 -53 33 -65 21 -78 21 -96 1z"/>
<path d="M2590 2802 c0 -13 9 -22 25 -26 14 -4 25 -11 25 -16 0 -6 6 -10 14
-10 8 0 16 -7 20 -15 9 -24 88 -20 106 5 9 13 26 20 46 20 23 0 33 -5 37 -20
3 -13 14 -20 30 -20 14 0 27 -7 31 -15 3 -8 15 -15 26 -15 11 0 20 7 20 15 0
8 5 15 10 15 6 0 10 -7 10 -15 0 -10 10 -15 30 -15 17 0 30 4 30 10 0 5 13 7
29 4 24 -5 29 -2 34 18 11 39 8 48 -18 48 -14 0 -25 -4 -25 -9 0 -15 -35 -19
-48 -4 -19 20 -52 16 -52 -6 0 -14 -5 -18 -20 -14 -11 3 -20 9 -20 13 0 5 -9
12 -20 15 -11 3 -20 13 -20 21 0 10 -13 15 -42 16 -24 1 -61 2 -83 3 -22 1
-70 5 -107 10 -64 7 -68 7 -68 -13z"/>
<path d="M2210 2736 c0 -7 7 -27 15 -42 9 -17 11 -30 5 -32 -20 -7 -11 -42 11
-42 24 0 49 22 49 44 0 9 5 16 10 16 24 0 8 40 -22 54 -38 20 -68 21 -68 2z"/>
<path d="M1082 2710 c-7 -12 -15 -50 -18 -85 -4 -58 -3 -65 13 -66 10 0 13 -3
6 -6 -7 -2 -13 -14 -13 -25 0 -18 5 -20 35 -15 26 4 35 2 35 -9 0 -18 29 -18
54 1 35 27 42 15 9 -14 -18 -16 -33 -36 -33 -45 0 -22 32 -20 61 3 13 10 38
21 54 23 17 3 24 3 18 1 -22 -7 -15 -43 7 -43 11 0 20 5 20 10 0 6 6 10 13 10
7 0 19 9 27 21 8 11 25 33 38 47 33 40 35 42 65 99 35 68 35 93 2 93 -15 0
-25 -6 -25 -15 0 -8 -7 -30 -16 -48 -13 -27 -21 -33 -37 -29 -14 4 -27 -3 -43
-23 -17 -21 -30 -28 -55 -27 -21 0 -38 -6 -50 -21 l-18 -22 -1 23 c0 15 -6 22
-20 22 -11 0 -20 5 -20 10 0 6 -10 10 -22 10 -24 0 -24 0 -28 108 0 26 -5 32
-23 32 -12 0 -28 -9 -35 -20z"/>
<path d="M1995 2688 c4 -24 11 -45 15 -48 4 -3 12 -15 19 -28 10 -18 9 -25 -4
-38 -31 -31 -19 -58 40 -87 31 -15 62 -27 70 -27 23 0 18 41 -5 47 -11 3 -20
14 -20 24 0 11 9 28 20 39 11 11 20 26 20 33 0 17 -125 127 -145 127 -14 0
-16 -7 -10 -42z"/>
<path d="M3170 2700 c0 -13 7 -20 20 -20 13 0 20 7 20 20 0 13 -7 20 -20 20
-13 0 -20 -7 -20 -20z"/>
<path d="M3550 2565 c0 -18 5 -25 20 -25 15 0 20 7 20 25 0 18 -5 25 -20 25
-15 0 -20 -7 -20 -25z"/>
<path d="M2890 2560 c0 -5 -9 -10 -20 -10 -11 0 -20 -4 -20 -10 0 -5 -10 -10
-23 -10 -12 0 -28 -9 -35 -20 -10 -17 -19 -20 -47 -14 -32 6 -35 4 -35 -19 0
-23 5 -26 50 -32 49 -7 52 -6 83 27 43 46 77 54 126 29 21 -11 52 -20 67 -20
16 0 41 -2 57 -6 22 -6 27 -4 27 12 0 24 -52 55 -88 53 -34 -3 -91 10 -98 21
-7 12 -44 11 -44 -1z"/>
<path d="M2560 2460 c0 -5 -11 -10 -25 -10 -14 0 -28 -7 -31 -15 -4 -8 -12
-15 -20 -15 -29 0 -14 -36 19 -48 46 -17 57 -15 57 8 0 11 4 20 10 20 17 0 50
34 50 52 0 13 -8 18 -30 18 -16 0 -30 -4 -30 -10z"/>
<path d="M1660 2430 c0 -5 -6 -10 -14 -10 -10 0 -17 -16 -22 -45 -4 -28 -11
-45 -20 -45 -7 0 -16 -16 -20 -36 -4 -19 -12 -38 -19 -40 -7 -3 -20 -33 -29
-67 -10 -34 -22 -76 -27 -93 -13 -44 -11 -54 9 -54 21 0 42 38 42 75 0 13 11
36 25 51 14 15 25 35 25 45 0 11 6 19 14 19 8 0 16 16 20 40 4 24 12 40 20 40
17 0 23 16 32 80 6 46 5 50 -15 50 -11 0 -21 -4 -21 -10z"/>
<path d="M3120 2422 c0 -20 18 -32 47 -32 9 0 13 8 11 23 -4 30 -58 39 -58 9z"/>
<path d="M3259 2393 c-17 -47 -5 -70 43 -77 27 -4 44 -3 46 4 2 5 10 10 18 10
8 0 14 6 14 13 0 9 10 12 30 9 18 -3 30 0 30 7 0 6 11 11 25 11 18 0 25 5 25
19 0 21 -49 31 -157 31 -60 0 -64 -2 -74 -27z"/>
<path d="M1460 2370 c-7 -22 -19 -40 -27 -40 -7 0 -13 -7 -13 -16 0 -9 -9 -18
-20 -21 -11 -3 -20 -11 -20 -19 0 -23 -33 -84 -46 -84 -12 0 -44 -79 -44 -107
0 -7 8 -13 18 -13 13 0 23 12 31 41 8 25 20 43 31 46 10 3 20 14 23 24 3 11
18 25 34 31 23 9 34 24 52 72 13 34 25 76 28 94 4 27 2 32 -14 32 -14 0 -24
-12 -33 -40z"/>
<path d="M2300 2335 c0 -8 -12 -18 -27 -21 -16 -4 -31 -11 -34 -16 -3 -5 -17
-4 -33 2 -15 5 -34 10 -42 10 -20 0 -17 -40 4 -46 36 -11 127 -59 135 -71 4
-7 17 -13 27 -13 28 0 25 30 -5 56 l-25 22 25 6 c14 4 25 13 25 20 0 11 10 13
40 9 35 -5 40 -3 40 14 0 15 -11 22 -51 31 -66 16 -79 15 -79 -3z"/>
<path d="M3180 2292 c0 -5 -11 -7 -25 -5 -27 6 -55 -16 -55 -43 0 -14 6 -16
37 -11 21 4 39 10 41 15 1 5 14 7 28 4 22 -4 25 -2 22 19 -2 16 -11 25 -25 27
-13 2 -23 -1 -23 -6z"/>
<path d="M4344 2248 c4 -18 10 -48 13 -65 3 -18 11 -33 18 -33 24 0 45 12 45
26 0 8 7 14 15 14 8 0 15 8 15 18 -1 21 -66 72 -93 72 -17 0 -19 -5 -13 -32z"/>
<path d="M3014 2235 c-4 -8 -15 -15 -25 -15 -10 0 -19 -4 -19 -10 0 -5 -11
-10 -24 -10 -14 0 -31 -7 -40 -15 -8 -8 -26 -19 -40 -25 -35 -13 -36 -50 -1
-50 14 0 25 5 25 10 0 6 11 10 25 10 14 0 25 5 25 10 0 6 14 10 30 10 20 0 30
5 30 15 0 10 10 15 29 15 28 0 40 18 41 58 0 17 -49 15 -56 -3z"/>
<path d="M2748 2116 c-10 -7 -18 -21 -18 -30 0 -17 19 -20 58 -10 16 5 22 13
20 28 -4 25 -35 32 -60 12z"/>
<path d="M1640 2065 c0 -18 5 -25 20 -25 15 0 20 7 20 25 0 18 -5 25 -20 25
-15 0 -20 -7 -20 -25z"/>
<path d="M2670 2066 c0 -9 -8 -12 -25 -8 -14 2 -25 0 -25 -6 0 -6 -14 -13 -31
-17 -18 -4 -33 -15 -36 -26 -3 -10 -14 -21 -24 -24 -10 -4 -19 -11 -19 -16 0
-5 -7 -9 -15 -9 -8 0 -24 -9 -35 -20 -11 -11 -29 -20 -41 -20 -32 0 -59 -19
-59 -40 0 -27 53 -27 80 0 11 11 29 20 39 20 11 0 26 8 33 19 7 10 28 22 46
25 22 5 32 13 32 26 0 20 26 30 81 30 33 0 37 3 43 31 9 47 8 49 -19 49 -14 0
-25 -6 -25 -14z"/>
<path d="M3073 2013 c-7 -2 -13 -11 -13 -19 0 -9 -11 -14 -29 -14 -25 0 -29
-4 -35 -37 -9 -57 -8 -63 13 -63 13 0 21 9 26 30 5 21 13 30 26 30 10 0 19 -4
19 -10 0 -5 9 -10 20 -10 17 0 20 7 20 50 0 51 -9 59 -47 43z"/>
<path d="M3303 1993 c-13 -2 -23 -11 -23 -19 0 -8 -9 -14 -20 -14 -11 0 -20
-7 -20 -15 0 -8 -9 -15 -20 -15 -25 0 -26 -28 -2 -46 23 -18 62 -18 62 1 0 11
8 13 30 9 23 -5 30 -3 30 9 0 24 29 29 42 7 18 -28 48 -26 48 3 -1 25 -26 59
-57 76 -22 11 -30 12 -70 4z"/>
<path d="M3998 299 c-10 -5 -18 -19 -18 -30 0 -17 6 -20 33 -17 27 2 33 8 35
31 4 29 -16 36 -50 16z"/>
<path d="M1100 823 c-12 -70 -26 -108 -47 -131 -7 -7 -13 -27 -13 -43 0 -16
-4 -29 -10 -29 -5 0 -10 -11 -10 -25 0 -21 5 -25 30 -25 29 0 30 2 30 45 0 33
4 45 15 45 8 0 15 8 15 18 0 9 11 37 25 61 26 45 29 67 19 120 -4 21 -12 31
-24 31 -14 0 -20 -14 -30 -67z"/>
<path d="M963 803 c-14 -3 -23 -12 -23 -23 0 -25 15 -33 50 -25 23 5 30 12 30
31 0 25 -7 27 -57 17z"/>
<path d="M990 530 c0 -13 7 -20 20 -20 13 0 20 7 20 20 0 13 -7 20 -20 20 -13
0 -20 -7 -20 -20z"/>
<path d="M857 473 c-4 -3 -7 -17 -7 -30 0 -25 27 -32 48 -11 21 21 14 48 -11
48 -13 0 -27 -3 -30 -7z"/>
<path d="M744 415 c-8 -33 -2 -39 31 -31 20 5 26 12 23 29 -5 34 -45 36 -54 2z"/>
<path d="M1120 226 c0 -21 5 -26 26 -26 21 0 25 4 22 23 -2 14 -11 23 -25 25
-19 3 -23 -1 -23 -22z"/>
</g>
</svg>
