<?xml version="1.0" standalone="no"?>
<!DOCTYPE svg PUBLIC "-//W3C//DTD SVG 20010904//EN"
 "http://www.w3.org/TR/2001/REC-SVG-20010904/DTD/svg10.dtd">
<svg version="1.0" xmlns="http://www.w3.org/2000/svg"
 width="526.000000pt" height="408.000000pt" viewBox="0 0 526.000000 408.000000"
 preserveAspectRatio="xMidYMid meet">
<metadata>
Created by potrace 1.13, written by Peter Selinger 2001-2015
</metadata>
<g transform="translate(0.000000,408.000000) scale(0.100000,-0.100000)"
fill="#000000" stroke="none">
<path d="M4200 4047 c-51 -21 -160 -114 -160 -137 0 -13 -65 -121 -87 -145
-112 -122 -195 -309 -191 -436 1 -55 -3 -78 -23 -117 -23 -47 -30 -52 -169
-124 -80 -42 -179 -86 -220 -98 -41 -11 -118 -36 -170 -53 l-95 -32 -240 -2
c-132 -2 -368 -7 -525 -12 -309 -10 -268 -3 -485 -79 -33 -12 -114 -33 -180
-48 -66 -15 -154 -43 -195 -62 -41 -19 -107 -49 -147 -68 -39 -18 -90 -44
-112 -58 -86 -54 -264 -97 -426 -101 -338 -10 -498 -45 -655 -144 -69 -42 -83
-58 -98 -100 -20 -57 -16 -76 21 -89 17 -7 70 -48 117 -92 46 -44 93 -80 102
-80 11 0 18 -7 18 -19 0 -22 18 -31 63 -31 28 -1 97 -29 73 -30 -20 0 29 -40
49 -40 12 0 34 -9 48 -20 14 -11 33 -20 42 -20 10 0 33 -9 51 -21 19 -11 44
-20 56 -19 42 4 69 0 64 -9 -8 -13 65 -31 125 -31 30 0 73 -5 97 -10 34 -8 49
-7 73 6 33 17 53 9 64 -27 6 -19 7 -19 23 -1 9 9 14 13 10 8 -12 -15 -10 -54
3 -58 5 -2 12 -26 13 -53 4 -61 16 -115 26 -115 12 0 30 -75 30 -126 1 -27 5
-69 9 -93 5 -25 5 -54 1 -66 -8 -21 -53 -80 -111 -145 -52 -60 -53 -64 -56
-270 -3 -211 -7 -305 -17 -360 -3 -19 -3 -80 1 -134 l8 -100 55 -27 c73 -36
116 -44 143 -26 15 10 29 12 46 5 30 -11 83 -2 143 25 46 21 68 49 68 88 0 35
-40 100 -72 117 -17 9 -47 31 -66 48 l-35 30 1 132 c1 124 2 135 29 184 48 92
93 151 210 277 l59 64 14 -32 c11 -27 11 -45 1 -98 -12 -63 -11 -67 14 -104
14 -21 25 -50 25 -64 0 -13 9 -57 19 -97 11 -40 22 -85 25 -101 4 -15 11 -27
17 -27 10 0 24 -10 61 -44 17 -15 31 -17 92 -12 188 15 218 27 236 90 9 32 9
49 1 64 -14 26 -88 62 -128 62 -22 0 -42 10 -66 33 -31 29 -35 38 -41 110 -6
71 -5 81 18 120 13 23 28 60 32 82 3 22 13 52 21 68 19 37 112 126 141 133 13
4 28 20 37 39 27 67 97 85 173 46 23 -12 48 -21 57 -21 8 0 23 -8 33 -18 11
-11 54 -26 108 -37 49 -9 114 -26 144 -38 30 -11 89 -23 130 -27 41 -5 112
-17 157 -29 46 -11 102 -23 126 -25 24 -2 63 -10 88 -17 24 -7 76 -11 114 -10
58 2 75 -1 97 -18 15 -12 33 -18 42 -15 9 3 16 1 16 -5 0 -6 9 -11 21 -11 11
0 17 -4 14 -10 -8 -12 145 -1 162 12 21 17 69 26 86 16 14 -7 15 -12 4 -28 -6
-11 -19 -20 -27 -20 -9 0 -2 -11 18 -28 30 -25 33 -32 34 -87 0 -33 5 -68 10
-79 7 -13 6 -21 -2 -26 -10 -6 -9 -14 3 -36 24 -44 61 -174 63 -221 1 -24 8
-53 16 -65 8 -13 20 -50 27 -83 20 -89 27 -114 51 -175 12 -30 30 -75 39 -100
9 -25 23 -55 31 -66 14 -19 136 -104 149 -104 3 0 38 7 76 16 39 8 99 21 135
27 86 16 120 45 120 101 -1 46 -10 61 -58 95 -18 13 -31 26 -28 28 3 3 33 9
68 14 163 21 208 41 208 93 0 27 -18 65 -42 89 -23 23 -108 67 -129 67 -43 0
-71 121 -90 377 -15 214 -11 258 33 388 5 17 14 53 19 80 9 48 18 78 57 205
13 45 99 232 145 315 27 49 55 113 67 150 7 22 16 47 20 55 4 8 12 38 18 65 6
28 19 82 29 120 22 87 21 211 -2 285 -10 30 -20 102 -24 160 -3 58 -12 115
-18 127 -7 12 -13 42 -13 67 0 25 -4 48 -10 51 -16 10 -12 51 8 67 9 9 37 18
62 22 25 3 70 11 100 17 30 6 87 14 126 17 100 10 152 46 200 138 76 144 76
145 72 195 -6 60 -28 80 -165 149 -122 61 -183 116 -183 166 0 52 -16 81 -84
158 -92 102 -156 132 -307 146 -228 22 -259 21 -319 -3z m256 -42 c198 -19
237 -36 333 -146 68 -77 70 -81 65 -122 -5 -40 -3 -44 45 -93 32 -32 83 -68
136 -94 75 -38 82 -45 67 -56 -9 -8 -25 -14 -35 -14 -20 0 -47 -23 -47 -39 0
-6 -16 -11 -35 -11 -28 0 -35 -4 -35 -20 0 -11 -5 -20 -11 -20 -7 0 -9 -10 -7
-25 4 -17 1 -25 -8 -25 -8 0 -14 -8 -14 -19 0 -24 68 -40 82 -19 7 9 8 8 4 -5
-3 -10 -6 -23 -6 -28 0 -5 -9 -9 -20 -9 -15 0 -20 -7 -21 -27 -2 -24 -2 -25
-6 -5 -6 29 -43 31 -43 2 0 -11 5 -20 10 -20 6 0 10 -9 10 -20 0 -26 37 -27
42 -1 3 16 5 17 16 5 11 -12 5 -18 -43 -39 -63 -28 -76 -29 -125 -10 l-35 14
38 -5 c33 -6 37 -4 37 15 0 16 -10 23 -45 32 -25 6 -48 15 -51 20 -3 5 -14 9
-26 9 -16 0 -19 -5 -16 -23 4 -20 1 -23 -19 -19 -25 5 -29 -10 -16 -56 5 -21
10 -23 39 -17 19 3 34 2 34 -3 0 -11 -34 -22 -72 -22 -54 0 -76 -28 -46 -58
10 -10 10 -15 -1 -21 -11 -7 -11 -19 -2 -60 15 -70 15 -223 0 -197 -6 10 -19
26 -29 36 -10 10 -24 34 -31 54 -8 23 -19 36 -31 36 -13 0 -18 8 -18 25 0 16
-6 25 -15 25 -8 0 -15 8 -15 17 0 30 -24 83 -37 83 -7 0 -13 11 -13 24 0 17 9
27 31 36 16 7 41 28 55 45 22 30 27 32 49 21 14 -6 25 -18 25 -27 0 -17 19
-29 46 -29 19 0 18 31 -3 74 -11 25 -24 36 -42 38 -25 3 -26 7 -31 74 -4 56
-14 89 -46 155 -66 138 -85 189 -68 189 8 0 14 5 14 10 0 6 6 10 14 10 21 0
46 28 46 51 0 20 -34 28 -44 10 -3 -5 -17 -11 -31 -13 l-25 -5 4 66 c3 36 8
80 12 98 7 35 -11 63 -40 63 -13 0 -16 -12 -16 -55 0 -42 -3 -55 -15 -55 -18
0 -18 4 -3 47 15 40 3 53 -48 53 -23 0 -34 -6 -42 -25 -14 -31 -16 -65 -3 -65
20 0 41 -33 41 -66 0 -27 4 -34 19 -34 11 0 22 6 24 13 3 6 6 -5 6 -25 1 -36
0 -37 -25 -28 -14 6 -32 10 -40 10 -18 0 -18 -34 0 -52 7 -8 17 -24 20 -36 4
-12 16 -22 26 -22 10 0 22 -9 25 -20 3 -11 15 -20 26 -20 10 0 19 -4 19 -10 0
-5 -7 -10 -15 -10 -20 0 -19 -21 2 -70 20 -45 50 -54 55 -17 3 19 6 16 22 -18
11 -22 25 -67 32 -100 11 -54 11 -64 -6 -102 -13 -30 -30 -48 -59 -62 -52 -27
-63 -26 -119 6 -115 65 -210 135 -205 150 3 8 0 26 -8 39 -11 22 -18 25 -45
19 -24 -4 -33 -1 -38 10 -4 11 -15 15 -33 13 -21 -2 -27 1 -24 12 3 8 7 54 9
101 4 79 6 86 23 82 23 -6 26 -23 4 -23 -26 0 -18 -52 12 -77 52 -45 89 -16
38 31 -30 28 -32 41 -4 25 12 -6 30 -9 40 -6 14 4 19 0 19 -15 0 -11 8 -22 19
-25 11 -3 22 -16 25 -29 4 -13 13 -24 21 -24 14 0 18 -14 30 -110 6 -52 38
-110 59 -110 7 0 16 -9 19 -20 6 -25 47 -28 47 -3 0 32 -24 82 -42 86 -11 3
-18 14 -18 31 0 16 -6 26 -15 26 -8 0 -15 5 -15 10 0 6 9 10 20 10 25 0 25 9
-1 81 -14 37 -28 59 -40 62 -10 3 -19 12 -19 21 0 9 -7 16 -15 16 -8 0 -15 7
-15 15 0 8 -7 15 -15 15 -8 0 -15 7 -15 16 0 9 5 13 13 10 6 -3 20 -9 30 -12
9 -4 17 -13 17 -20 0 -8 11 -19 24 -24 13 -5 27 -18 31 -29 7 -24 45 -29 45
-6 0 35 -59 130 -92 149 -34 20 -78 63 -78 78 0 4 -9 8 -21 8 -19 0 -20 -4
-14 -40 6 -33 4 -40 -9 -40 -10 0 -16 -10 -17 -27 -1 -17 -3 -21 -6 -10 -5 18
-43 24 -43 7 0 -5 -7 -10 -16 -10 -11 0 -14 5 -10 16 3 9 6 21 6 27 0 7 11 24
25 39 14 15 25 31 25 36 0 5 11 18 25 28 14 10 25 27 25 38 0 15 -5 17 -31 12
l-30 -6 27 50 c35 65 70 99 136 132 63 32 53 32 244 13z m-511 -372 c-4 -15
-9 -68 -10 -116 -1 -48 -5 -91 -9 -95 -10 -9 -26 19 -26 46 0 15 -6 22 -20 22
-17 0 -20 -7 -20 -42 0 -23 5 -70 11 -104 9 -55 15 -65 39 -76 16 -7 31 -21
34 -31 2 -10 14 -21 25 -24 12 -3 21 -10 21 -17 0 -6 9 -29 20 -51 10 -22 25
-55 32 -72 7 -19 20 -33 29 -33 9 0 19 -7 22 -15 5 -11 0 -13 -23 -8 -25 4
-30 2 -30 -14 0 -16 -6 -18 -35 -15 -29 4 -35 1 -35 -15 0 -12 15 -28 38 -41
53 -31 110 -84 95 -89 -33 -12 9 -73 49 -73 10 0 21 -7 24 -15 4 -8 12 -15 20
-15 15 0 18 -19 15 -95 -3 -57 25 -105 61 -105 18 0 19 4 14 35 -6 28 -4 35 9
35 22 0 19 23 -10 80 -18 35 -31 50 -45 50 -14 0 -20 7 -20 21 0 12 -15 42
-33 68 -18 25 -32 53 -30 63 6 25 31 30 38 7 7 -21 45 -27 45 -6 0 48 -42 127
-68 127 -5 0 -13 12 -17 28 -3 15 -15 36 -25 47 -10 11 -21 30 -25 43 -3 12
-12 22 -19 22 -7 0 -23 11 -36 25 -13 14 -29 25 -37 25 -7 0 -13 7 -13 15 0 9
-7 27 -16 40 -9 14 -14 25 -11 25 3 0 33 -16 67 -35 34 -19 63 -35 65 -35 2 0
27 -16 56 -35 30 -19 48 -35 41 -35 -13 0 -15 -30 -6 -78 5 -23 17 -37 45 -52
22 -11 46 -20 54 -20 8 0 15 -4 15 -9 0 -11 -25 -21 -51 -21 -12 0 -19 -7 -19
-20 0 -11 7 -20 15 -20 8 0 15 -4 15 -9 0 -5 18 -12 40 -16 25 -4 44 -14 51
-27 9 -17 8 -18 -10 -9 -52 28 -71 -11 -26 -53 14 -13 25 -32 25 -42 0 -11 8
-24 18 -30 15 -10 17 -27 16 -145 -1 -74 -5 -142 -9 -152 -4 -9 0 -35 9 -57
16 -40 9 -53 -14 -25 -7 8 -19 15 -27 15 -7 0 -16 8 -19 18 -22 64 -29 72 -61
72 -18 0 -33 5 -33 10 0 6 -9 10 -20 10 -16 0 -20 -7 -20 -32 0 -45 9 -55 53
-63 20 -4 37 -13 37 -20 0 -7 22 -29 49 -48 31 -23 55 -50 67 -76 11 -26 24
-41 36 -41 10 0 18 -6 18 -14 0 -8 14 -23 30 -33 l30 -19 -24 -33 c-14 -19
-27 -28 -31 -22 -3 6 -17 11 -31 11 -20 0 -24 -5 -24 -30 0 -20 -5 -30 -15
-30 -8 0 -15 -9 -15 -20 0 -11 -7 -20 -15 -20 -17 0 -21 -35 -5 -45 18 -11 10
-24 -17 -27 -24 -3 -29 -9 -37 -45 -6 -24 -13 -43 -18 -43 -4 0 -8 -21 -8 -46
0 -44 -16 -74 -39 -74 -6 0 -11 -6 -11 -14 0 -15 -42 -26 -71 -19 -10 3 -19 9
-19 14 0 5 -9 9 -20 9 -13 0 -22 -9 -26 -26 -4 -14 -17 -48 -30 -75 -29 -60
-30 -79 -4 -79 11 0 20 5 20 10 0 6 11 15 24 20 13 5 27 18 31 29 3 12 11 21
16 21 5 0 1 -17 -9 -37 -35 -71 -46 -120 -34 -150 20 -55 23 -81 7 -87 -8 -3
-15 -15 -15 -26 0 -11 -7 -20 -15 -20 -8 0 -15 -4 -15 -8 0 -11 -68 -32 -102
-32 -43 0 -59 -29 -52 -94 6 -46 10 -56 25 -56 13 0 19 7 19 24 0 37 10 56 30
56 10 0 20 7 24 15 3 8 17 15 31 15 17 0 29 7 35 23 13 32 12 14 -5 -85 -8
-49 -22 -127 -30 -175 -17 -105 -19 -185 -4 -200 7 -7 11 -69 10 -180 l-1
-169 37 -50 c20 -27 48 -59 62 -71 14 -12 34 -29 43 -37 9 -8 49 -26 88 -40
39 -13 82 -32 95 -40 35 -23 32 -46 -5 -46 -25 0 -30 -4 -30 -25 0 -18 -5 -25
-19 -25 -16 0 -21 9 -27 45 -5 38 -12 48 -38 62 -17 9 -34 20 -37 25 -10 16
-43 5 -47 -15 -5 -23 15 -47 38 -47 9 0 25 -9 35 -20 18 -19 17 -20 -3 -20
-12 0 -22 -4 -22 -10 0 -5 -8 -19 -17 -30 -23 -27 -78 -26 -119 2 -27 19 -31
27 -27 53 3 21 0 35 -11 44 -9 7 -16 18 -16 23 0 5 -7 16 -15 24 -8 9 -15 24
-15 35 0 10 -4 19 -10 19 -5 0 -10 14 -10 30 0 20 -5 30 -15 30 -10 0 -15 10
-15 33 -1 69 -33 220 -78 366 -23 74 -27 102 -21 130 19 80 8 221 -17 221 -8
0 -14 8 -14 18 0 25 -19 42 -47 42 -13 0 -23 6 -23 14 0 8 -6 16 -14 19 -9 4
-12 14 -9 27 7 25 -10 40 -45 40 -38 0 -20 25 21 28 29 3 37 7 37 23 0 14 -9
21 -30 26 -37 7 -38 15 -5 33 14 7 25 19 25 27 0 23 -24 93 -32 93 -5 0 -8 16
-8 35 0 19 -4 35 -10 35 -5 0 -12 11 -16 24 -4 17 -15 27 -36 31 -23 5 -28 11
-22 23 4 10 9 32 12 51 4 33 4 34 -27 28 -18 -4 -31 -2 -31 3 0 6 -7 10 -15
10 -8 0 -15 7 -15 15 0 8 -4 15 -9 15 -16 0 -23 90 -11 141 9 35 9 53 1 62 -5
7 -8 23 -4 35 4 16 -1 28 -17 42 -13 11 -27 20 -32 20 -4 0 -8 9 -8 20 0 11
-5 20 -11 20 -14 0 -69 61 -69 77 0 7 -7 13 -15 13 -8 0 -15 7 -15 15 0 8 -7
15 -16 15 -27 0 -54 -20 -54 -41 0 -19 -4 -20 -41 -14 -40 7 -40 7 -37 -21 2
-21 9 -30 26 -32 12 -2 22 -7 22 -12 0 -4 18 -11 40 -15 38 -6 40 -9 40 -41 0
-24 5 -34 15 -34 8 0 15 -4 15 -10 0 -5 7 -10 15 -10 8 0 15 -4 15 -10 0 -5 7
-10 16 -10 21 0 44 -25 44 -48 0 -11 5 -22 11 -24 12 -4 -32 -101 -51 -113
-16 -10 -12 -45 5 -45 9 0 18 -12 21 -29 4 -20 14 -31 30 -35 31 -8 30 -19
-11 -96 -40 -74 -45 -110 -15 -110 11 0 20 5 20 11 0 20 65 119 78 119 9 0 7
-8 -7 -29 -30 -41 -28 -65 5 -58 19 3 24 1 20 -10 -17 -43 -17 -62 0 -82 25
-28 54 -28 55 2 0 15 2 17 6 7 3 -8 11 -18 16 -22 8 -4 7 -15 -1 -32 -13 -29
-37 -34 -46 -11 -3 8 -15 15 -27 15 -20 0 -21 -4 -15 -41 7 -43 -1 -70 -14
-49 -11 18 -60 4 -60 -18 -1 -9 -13 6 -27 33 -14 28 -28 52 -32 55 -3 3 -14
19 -23 35 -12 21 -24 30 -43 30 -15 -1 -27 6 -31 17 -8 27 -44 23 -45 -4 l0
-23 -11 23 c-13 26 -40 29 -62 6 -9 -8 -16 -11 -16 -5 0 6 -9 11 -20 11 -30 0
-25 -33 15 -95 19 -31 28 -52 20 -48 -8 3 -15 8 -15 12 0 6 -26 20 -123 67
-16 8 -39 14 -51 14 -12 0 -33 11 -46 25 -18 19 -34 25 -66 25 -33 0 -46 5
-54 20 -6 11 -21 20 -33 20 -19 0 -55 34 -81 78 -12 20 28 14 54 -8 29 -25 60
-26 60 -2 -1 19 -54 82 -70 82 -5 0 -10 5 -10 10 0 6 -10 10 -23 10 -15 0 -29
11 -40 30 -22 37 -57 41 -57 6 0 -13 3 -26 8 -28 9 -4 62 -74 62 -82 0 -3 -9
-6 -20 -6 -14 0 -20 -7 -20 -22 0 -17 -3 -19 -12 -10 -20 20 -48 14 -49 -10
l0 -23 -9 23 c-5 12 -18 22 -29 22 -16 0 -21 10 -28 53 -7 44 -12 52 -32 55
-23 4 -23 2 -16 -43 3 -26 9 -54 12 -61 3 -8 -1 -14 -11 -14 -14 0 -16 14 -16
95 0 95 0 95 -25 95 -24 0 -25 -2 -27 -72 -1 -40 -1 -106 1 -145 3 -77 -4 -87
-47 -64 -9 5 -25 12 -34 15 -10 3 -18 14 -18 25 0 10 -9 21 -20 24 -28 7 -25
25 5 33 20 5 25 14 31 52 5 31 3 47 -5 50 -6 2 -11 19 -11 38 0 26 -4 34 -18
34 -15 0 -21 -13 -30 -64 -7 -35 -12 -75 -12 -90 0 -19 -5 -26 -19 -26 -16 0
-18 5 -10 45 4 24 15 71 24 104 22 85 20 101 -10 101 -18 0 -25 5 -25 20 0 14
-7 20 -23 20 -19 0 -25 -8 -36 -47 -18 -68 -25 -181 -13 -230 5 -24 6 -43 2
-43 -5 0 -10 -10 -12 -23 -3 -21 -4 -20 -20 8 -40 75 -119 96 -148 40 -51
-100 -114 -185 -153 -208 -23 -14 -58 -39 -77 -56 -133 -117 -187 -156 -123
-89 52 56 93 120 93 147 0 27 26 108 39 126 14 17 23 115 11 115 -5 0 -10 9
-10 20 0 12 -7 20 -17 20 -20 0 -59 -81 -50 -103 3 -7 -1 -21 -9 -32 -8 -10
-14 -30 -14 -43 0 -13 -7 -38 -16 -55 -31 -58 -34 -67 -34 -82 0 -8 5 -15 11
-15 13 0 -16 -41 -65 -93 -39 -40 -46 -64 -20 -69 17 -3 20 1 -85 -113 -48
-52 -98 -123 -146 -208 l-38 -69 5 -156 c3 -86 9 -165 13 -174 5 -13 2 -18 -9
-18 -23 0 -20 -41 3 -47 11 -3 22 -11 25 -19 9 -22 46 -17 46 6 0 29 17 25 56
-14 38 -38 44 -66 15 -66 -10 0 -35 -14 -56 -30 -44 -35 -68 -35 -73 -2 -5 31
-30 28 -69 -10 -31 -30 -33 -31 -33 -10 0 13 -11 34 -25 48 -15 15 -25 36 -25
54 0 23 -5 30 -20 30 -17 0 -20 -7 -20 -45 0 -25 5 -45 10 -45 6 0 10 -4 10
-10 0 -15 -40 -12 -41 3 -5 112 -3 127 11 127 18 0 54 156 70 301 5 52 13 110
16 127 4 21 3 32 -5 32 -6 0 -11 11 -11 25 0 17 -5 25 -18 25 -25 0 -40 -67
-35 -155 4 -69 3 -69 -11 -37 -13 27 -13 47 -5 119 6 47 8 99 5 115 -6 28 0
33 27 22 9 -3 12 -14 9 -30 -6 -35 28 -32 56 6 19 25 21 37 16 85 -5 37 -11
55 -21 55 -11 0 -11 4 -2 23 7 12 18 26 26 30 8 5 19 21 25 35 8 20 12 23 15
11 2 -9 -5 -33 -16 -53 -23 -40 -27 -66 -11 -66 6 0 10 -7 10 -15 0 -8 5 -15
10 -15 6 0 10 -7 10 -15 0 -8 9 -15 20 -15 22 0 35 35 28 74 -4 17 3 28 24 42
16 11 28 28 28 41 0 12 8 28 18 35 9 7 23 27 31 43 7 17 17 38 22 47 14 28 10
56 -8 60 -16 3 -16 4 0 20 23 22 22 58 -1 58 -10 0 -23 -5 -30 -12 -16 -16
-15 -11 8 57 25 73 25 95 2 95 -14 0 -25 -19 -45 -80 -31 -92 -33 -107 -11
-112 12 -2 9 -11 -15 -43 -17 -22 -31 -52 -31 -66 0 -15 -6 -31 -12 -37 -10
-8 -12 1 -9 40 2 28 -2 55 -8 61 -15 15 -14 57 2 57 7 0 28 35 46 78 18 42 37
85 42 94 13 25 11 48 -3 48 -10 0 -12 27 -10 110 3 109 3 110 -22 120 -23 8
-24 11 -13 39 6 17 16 31 22 31 14 0 35 57 35 93 0 20 -5 27 -20 27 -13 0 -20
-7 -20 -20 0 -35 -15 -21 -16 15 0 19 -3 38 -7 41 -10 10 -67 -7 -67 -21 0
-15 -53 -28 -58 -14 -2 5 -15 9 -28 9 -17 0 -24 -6 -24 -20 0 -11 5 -20 10
-20 6 0 10 -11 10 -25 0 -14 4 -25 9 -25 12 0 22 -35 26 -87 2 -36 0 -42 -21
-46 -19 -3 -24 0 -24 16 0 19 -4 19 -77 13 -42 -4 -89 -14 -105 -22 -16 -8
-28 -10 -28 -4 0 5 -7 10 -16 10 -13 0 -15 7 -9 40 6 35 4 40 -13 40 -13 0
-24 -13 -35 -40 -16 -42 -36 -50 -57 -25 -10 12 -10 15 2 15 20 0 39 44 45
106 6 57 -16 103 -49 104 -15 0 -18 -9 -18 -46 0 -26 -5 -65 -12 -87 -10 -32
-10 -41 0 -45 7 -2 12 -9 12 -15 0 -8 -17 -11 -50 -9 -44 4 -50 6 -50 27 0 13
6 25 14 28 22 9 55 88 62 150 7 58 6 59 -17 55 -18 -2 -27 -15 -41 -53 -10
-27 -17 -57 -16 -66 3 -19 -22 -69 -34 -69 -4 0 -8 -6 -8 -14 0 -8 -9 -17 -19
-21 -23 -7 -61 14 -61 32 0 7 -6 13 -12 13 -7 1 -2 11 12 23 15 12 46 47 70
77 25 30 48 57 53 58 4 2 7 15 7 28 0 17 -6 24 -19 24 -11 0 -23 -4 -26 -10
-3 -5 -14 -10 -23 -10 -10 0 -23 -9 -30 -20 -8 -13 -23 -20 -45 -20 -54 0 -75
-40 -41 -75 15 -15 15 -18 2 -32 -14 -13 -19 -13 -46 1 -16 8 -48 18 -71 22
-26 4 -41 12 -41 21 0 8 -13 20 -30 26 -37 14 -44 31 -23 53 11 11 18 13 21 5
2 -6 12 -11 23 -11 12 0 19 -7 19 -20 0 -32 31 -24 78 19 46 42 56 81 22 81
-14 0 -20 7 -20 21 0 19 -4 20 -42 14 -26 -4 -51 -16 -64 -31 -12 -13 -26 -24
-31 -24 -18 0 -53 -37 -53 -56 -1 -18 -1 -18 -12 1 -16 29 -48 55 -67 55 -9 0
-21 10 -26 22 -8 17 -35 40 -52 44 -1 0 2 13 6 30 5 16 10 23 10 17 1 -14 37
-18 43 -5 1 4 18 18 35 31 32 22 33 22 33 2 0 -13 9 -21 30 -26 16 -4 30 -13
30 -21 0 -8 7 -14 16 -14 23 0 44 25 44 53 0 14 7 27 15 31 8 3 15 15 15 27 0
14 10 24 30 32 17 6 30 17 30 24 0 8 12 13 30 13 17 0 33 6 36 14 4 10 32 16
93 21 89 7 272 15 324 15 40 -1 254 56 297 79 19 10 64 33 100 52 95 50 241
118 275 128 17 5 39 12 50 17 14 5 12 1 -8 -17 -39 -33 -44 -92 -8 -97 49 -7
69 6 76 48 6 33 13 43 42 57 19 9 37 22 40 30 3 7 15 13 27 13 11 0 55 14 96
31 146 61 148 61 445 70 154 5 395 10 535 12 252 3 256 4 325 31 39 16 88 32
111 36 81 17 172 54 314 128 145 75 145 75 174 132 25 49 29 68 29 141 0 109
41 226 112 321 24 31 30 29 20 -9z m199 -9 c5 -14 4 -15 -9 -4 -17 14 -19 20
-6 20 5 0 12 -7 15 -16z m839 -291 c-7 -2 -19 -2 -25 0 -7 3 -2 5 12 5 14 0
19 -2 13 -5z m40 -100 c-7 -2 -19 -2 -25 0 -7 3 -2 5 12 5 14 0 19 -2 13 -5z
m-623 -208 c0 -25 4 -45 9 -45 5 0 13 -14 16 -32 4 -17 11 -36 16 -42 5 -6 20
-24 33 -40 13 -16 30 -49 36 -73 10 -33 20 -47 46 -59 23 -11 39 -31 56 -67
72 -153 74 -169 18 -109 -22 23 -44 42 -49 42 -6 0 -17 10 -25 21 -10 15 -22
20 -39 17 -27 -5 -47 17 -47 51 0 21 -50 112 -78 144 -14 15 -14 17 1 17 24 0
21 23 -9 82 -14 28 -32 71 -39 95 l-13 43 34 0 c34 0 34 0 34 -45z m-280 -95
c0 -5 -5 -10 -11 -10 -5 0 -7 5 -4 10 3 6 8 10 11 10 2 0 4 -4 4 -10z m439
-395 c29 -37 59 -65 69 -65 10 0 23 -5 30 -12 17 -17 15 -93 -3 -108 -8 -7
-15 -27 -15 -46 0 -32 -20 -59 -28 -36 -2 7 -12 12 -23 12 -22 0 -25 -25 -8
-83 6 -22 9 -40 7 -42 -2 -2 -14 -1 -28 2 -17 3 -30 15 -39 36 -39 95 -63 135
-84 142 -13 4 -17 8 -9 12 8 3 12 28 12 73 0 78 6 100 27 100 12 0 14 8 9 34
-5 28 -3 35 11 39 10 3 19 5 20 6 0 0 24 -28 52 -64z m-141 -585 c-2 -7 -10 1
-17 16 -12 27 -11 28 4 12 10 -9 16 -21 13 -28z m3 -73 c4 -5 -1 -18 -10 -28
-9 -11 -21 -36 -27 -57 -20 -69 -54 -47 -54 36 0 28 3 32 25 32 18 0 25 5 25
20 0 14 5 18 18 13 9 -4 20 -11 23 -16z m-81 -172 c0 -19 -4 -35 -10 -35 -5 0
-10 -7 -10 -15 0 -8 -5 -15 -11 -15 -8 0 -10 -12 -6 -35 4 -26 2 -35 -9 -35
-8 0 -14 -9 -14 -20 0 -11 -4 -20 -10 -20 -15 0 -12 -40 3 -41 10 0 10 -2 0
-6 -7 -2 -13 -15 -13 -28 0 -16 -7 -25 -25 -29 -21 -5 -25 -12 -25 -41 0 -19
5 -35 11 -35 7 0 0 -9 -14 -20 -14 -11 -27 -30 -29 -42 -2 -12 -8 -23 -15 -25
-8 -3 -10 11 -6 49 2 29 0 72 -5 96 -9 37 -7 52 14 104 13 34 24 70 24 80 0
10 5 18 10 18 6 0 10 -7 10 -15 0 -8 9 -15 20 -15 16 0 20 7 20 36 0 27 5 37
20 41 13 3 20 14 20 29 0 13 5 24 10 24 6 0 10 7 10 15 0 8 7 15 15 15 10 0
15 -11 15 -35z m-2130 9 c0 -2 -7 -4 -15 -4 -8 0 -15 4 -15 10 0 5 7 7 15 4 8
-4 15 -8 15 -10z m-1002 -49 c-6 -14 -13 -23 -15 -21 -5 5 15 46 22 46 3 0 -1
-11 -7 -25z m52 -154 c0 -16 4 -31 8 -33 5 -1 1 -20 -8 -41 l-17 -38 -7 46
c-6 50 1 95 15 95 5 0 9 -13 9 -29z m1415 -1 c3 -5 2 -10 -4 -10 -5 0 -13 5
-16 10 -3 6 -2 10 4 10 5 0 13 -4 16 -10z m35 -40 c6 -11 7 -20 2 -20 -6 0
-12 9 -15 20 -3 11 -3 20 -1 20 2 0 8 -9 14 -20z m-235 -30 c3 -5 1 -10 -4
-10 -6 0 -11 5 -11 10 0 6 2 10 4 10 3 0 8 -4 11 -10z m48 -27 c-7 -2 -19 -2
-25 0 -7 3 -2 5 12 5 14 0 19 -2 13 -5z m146 -68 c0 -5 -4 -2 -10 8 -5 9 -17
17 -25 17 -12 0 -12 2 -2 14 11 12 15 11 25 -8 7 -11 12 -25 12 -31z m197 4
l49 -34 -52 -3 c-38 -2 -53 -7 -53 -18 0 -15 -35 -17 -79 -5 -34 9 -39 30 -6
24 14 -3 25 -9 25 -14 0 -5 9 -9 20 -9 24 0 27 28 6 68 -14 26 -13 27 13 26
15 0 50 -16 77 -35z m501 -49 c7 -14 20 -45 28 -69 l16 -45 -24 22 c-13 13
-36 22 -54 22 -17 0 -36 7 -43 15 -9 10 -9 15 -1 15 14 0 15 37 1 45 -19 12
-11 43 13 47 24 4 45 -13 64 -52z m-387 10 c0 -5 -4 -10 -10 -10 -5 0 -10 5
-10 10 0 6 5 10 10 10 6 0 10 -4 10 -10z m105 -40 c3 -5 1 -10 -4 -10 -6 0
-11 5 -11 10 0 6 2 10 4 10 3 0 8 -4 11 -10z m110 -23 c-17 -6 -35 -5 -48 1
-19 9 -17 10 11 5 26 -4 32 -2 32 12 0 15 2 16 16 4 14 -12 13 -14 -11 -22z
m-1285 -54 c-17 -26 -30 -60 -30 -77 0 -16 -12 -50 -26 -74 -26 -44 -27 -49
-21 -158 5 -104 7 -115 32 -142 15 -17 40 -36 56 -42 16 -7 29 -18 29 -26 0
-7 16 -18 35 -25 19 -7 35 -17 35 -21 0 -4 8 -8 17 -8 38 0 -8 -24 -59 -31
-29 -4 -72 -11 -94 -14 -42 -7 -72 6 -123 54 -17 16 -50 130 -50 178 -1 34
-17 78 -37 103 -9 11 -10 30 -3 68 5 33 4 75 -2 105 -8 45 -7 54 8 64 9 7 25
13 35 13 10 0 18 5 18 10 0 6 5 10 10 10 6 0 10 -13 10 -30 0 -23 4 -30 20
-30 14 0 20 7 20 23 1 48 25 71 87 83 32 6 59 12 60 13 2 0 -11 -20 -27 -46z
m2360 43 c0 -3 -4 -8 -10 -11 -5 -3 -10 -1 -10 4 0 6 5 11 10 11 6 0 10 -2 10
-4z m-640 -36 c0 -11 -6 -20 -14 -20 -7 0 -16 -8 -19 -19 -3 -14 -11 -17 -30
-14 -24 5 -25 6 -10 22 15 14 64 51 71 51 1 0 2 -9 2 -20z m610 -59 c-5 -11
-10 -29 -10 -40 0 -36 -45 -122 -99 -189 -47 -58 -71 -56 -55 4 4 16 11 20 30
16 17 -3 24 0 24 12 0 9 7 16 15 16 10 0 15 10 15 30 0 25 -4 30 -25 30 -17 0
-25 5 -24 18 0 10 3 12 6 5 2 -7 13 -13 24 -13 15 0 19 7 19 34 0 58 15 84 44
79 15 -3 26 -1 26 6 0 6 5 11 10 11 7 0 7 -6 0 -19z m93 -407 c-6 -17 43 -201
60 -228 10 -15 29 -25 54 -29 70 -11 161 -97 103 -97 -11 0 -20 -6 -20 -14 0
-8 -13 -16 -30 -18 -23 -3 -30 -1 -30 12 0 21 -20 40 -42 40 -20 0 -23 -21 -8
-51 10 -17 7 -19 -19 -19 -17 0 -41 -5 -54 -11 -33 -15 -63 2 -70 38 -7 34
-42 73 -65 73 -15 0 -20 16 -31 92 -11 79 -33 151 -51 168 -6 6 -30 58 -30 65
0 3 4 5 8 5 10 0 42 -65 42 -85 0 -8 7 -15 15 -15 11 0 15 -12 15 -45 0 -43 1
-45 30 -45 25 0 30 4 30 25 0 14 -4 25 -10 25 -5 0 -10 13 -10 29 0 16 -6 36
-12 43 -51 55 -48 88 10 157 54 65 68 85 85 125 11 25 13 15 23 -100 6 -71 9
-134 7 -140z m-3240 -154 c-7 -28 -13 -25 -13 6 0 14 4 23 9 20 5 -3 7 -15 4
-26z m3038 -104 l14 -81 43 -20 c31 -14 42 -25 42 -42 0 -34 -16 -28 -69 26
-50 51 -81 123 -81 187 0 31 2 33 19 22 13 -8 22 -34 32 -92z m-3049 -6 c-2
-16 -6 -30 -8 -30 -2 0 -4 14 -4 30 0 17 4 30 8 30 5 0 7 -13 4 -30z m228
-105 c7 -9 8 -15 2 -15 -5 0 -12 7 -16 15 -3 8 -4 15 -2 15 2 0 9 -7 16 -15z"/>
<path d="M4193 3913 c-25 -17 -31 -53 -9 -53 33 0 86 31 86 50 0 25 -44 27
-77 3z"/>
<path d="M4600 3871 c0 -10 11 -27 25 -37 38 -29 34 -73 -11 -118 -30 -30 -35
-33 -29 -14 18 61 18 68 -4 68 -14 0 -25 -9 -31 -26 -13 -33 -13 -94 0 -94 6
0 10 -7 10 -16 0 -12 9 -14 48 -10 26 3 39 3 30 0 -25 -8 -23 -44 2 -44 13 0
20 7 20 18 0 19 1 19 83 13 4 -1 7 -10 7 -21 0 -11 4 -20 9 -20 5 0 13 -9 16
-20 3 -11 13 -20 21 -20 8 0 14 -9 14 -19 0 -11 15 -36 34 -57 29 -32 37 -35
65 -29 36 8 46 45 12 45 -11 0 -23 9 -26 20 -3 11 -10 20 -14 20 -4 0 -16 18
-27 40 -10 22 -24 40 -31 40 -6 0 -15 9 -18 20 -3 11 -12 20 -20 20 -7 0 -16
12 -19 28 -4 17 -17 32 -36 40 -26 12 -29 18 -28 55 0 23 -5 58 -12 78 -19 49
-90 82 -90 40z"/>
<path d="M4180 3812 c0 -18 63 -82 81 -82 5 0 9 -4 9 -10 0 -5 9 -10 20 -10
11 0 20 6 20 14 0 31 -20 66 -37 66 -10 0 -24 9 -31 20 -16 26 -62 27 -62 2z"/>
<path d="M4530 3571 c-13 -25 -13 -51 0 -51 6 0 10 -9 10 -20 0 -13 7 -20 19
-20 14 0 17 -6 13 -25 -3 -20 0 -25 16 -25 12 0 23 9 27 23 6 19 8 19 12 5 2
-10 14 -18 25 -18 18 0 20 4 14 33 -4 17 -11 34 -16 35 -6 2 -10 13 -10 24 0
16 -5 19 -25 16 -21 -4 -25 -1 -25 18 0 19 -5 24 -25 24 -14 0 -29 -8 -35 -19z"/>
<path d="M4340 3431 c0 -11 -4 -21 -9 -23 -5 -1 -12 -20 -16 -40 -7 -34 -5
-38 14 -38 11 0 21 -4 21 -10 0 -5 6 -10 14 -10 9 0 12 -8 8 -25 -3 -20 0 -25
16 -25 11 0 23 6 25 13 3 6 6 0 6 -15 1 -21 6 -28 21 -28 15 0 20 7 20 25 0
14 -6 25 -12 25 -7 0 -5 5 5 11 18 11 24 59 7 59 -5 0 -10 9 -10 20 0 13 -7
20 -20 20 -14 0 -20 7 -20 24 0 16 -7 26 -22 30 -38 10 -48 7 -48 -13z m30
-46 c0 -14 -4 -25 -9 -25 -4 0 -6 11 -3 25 2 14 6 25 8 25 2 0 4 -11 4 -25z"/>
<path d="M4112 3418 c2 -15 11 -24 26 -26 20 -3 23 0 20 20 -2 15 -11 24 -26
26 -20 3 -23 0 -20 -20z"/>
<path d="M4776 3414 c-8 -22 5 -96 20 -111 7 -7 20 -13 29 -13 15 0 16 7 10
48 -11 78 -16 92 -35 92 -10 0 -21 -7 -24 -16z"/>
<path d="M4150 3360 c0 -13 7 -20 20 -20 13 0 20 7 20 20 0 13 -7 20 -20 20
-13 0 -20 -7 -20 -20z"/>
<path d="M3830 3291 c0 -16 4 -41 10 -55 6 -17 6 -26 0 -26 -6 0 -10 -22 -10
-50 0 -38 -4 -50 -15 -50 -8 0 -15 -8 -15 -17 -1 -25 -21 -49 -48 -57 -12 -4
-22 -12 -22 -17 0 -5 -7 -9 -16 -9 -24 0 -44 -25 -44 -56 0 -24 3 -26 29 -21
27 6 29 3 35 -28 5 -27 12 -35 28 -35 17 0 20 5 16 30 -3 20 0 30 9 30 7 0 13
7 13 15 0 22 38 18 45 -5 3 -11 15 -20 26 -20 12 0 19 7 19 20 0 11 7 20 15
20 17 0 20 31 5 46 -14 14 -2 44 16 44 19 0 18 25 -2 55 -9 14 -12 25 -6 25 6
0 14 -4 17 -10 3 -5 15 -10 26 -10 21 0 27 34 8 46 -6 3 -17 22 -25 40 -8 19
-19 34 -24 34 -6 0 -10 6 -10 14 0 7 -9 16 -20 19 -14 3 -20 14 -20 31 0 19
-5 26 -20 26 -15 0 -20 -7 -20 -29z"/>
<path d="M3400 2865 c-21 -33 -60 -49 -60 -24 0 7 -11 9 -30 6 -17 -4 -30 -2
-30 3 0 15 -29 12 -101 -9 -35 -10 -83 -24 -106 -30 -33 -9 -43 -17 -43 -33 0
-18 4 -20 40 -14 31 5 42 3 46 -9 8 -20 38 -19 55 1 12 14 61 44 74 44 3 0 5
-11 5 -25 0 -14 5 -25 11 -25 6 0 18 -7 27 -16 12 -13 17 -43 20 -130 3 -85 8
-114 18 -114 7 0 17 -22 24 -55 6 -30 17 -55 23 -55 12 0 47 -133 47 -177 0
-16 6 -23 20 -23 18 0 20 7 20 79 0 57 -4 80 -14 84 -8 3 -19 37 -27 87 -7 46
-19 88 -26 96 -7 7 -13 31 -13 53 0 26 -5 41 -13 41 -8 0 -11 14 -9 45 3 26 0
45 -6 45 -6 0 -4 16 5 40 11 27 22 40 35 40 15 0 18 -8 18 -59 0 -33 3 -66 6
-75 9 -23 44 -20 44 4 0 32 27 12 34 -26 5 -25 12 -34 26 -34 13 0 22 -9 26
-25 4 -16 13 -25 25 -25 23 0 23 4 3 86 -11 43 -13 68 -7 73 6 3 13 13 16 21
4 11 7 10 12 -7 4 -13 11 -23 15 -23 5 0 18 -29 30 -65 17 -50 26 -65 41 -65
10 0 19 6 19 13 0 6 11 -12 25 -40 17 -39 30 -53 45 -53 21 0 28 27 11 46 -4
5 -16 32 -26 59 -36 102 -38 106 -64 103 -21 -3 -25 3 -36 46 -7 26 -17 51
-23 55 -6 3 -15 19 -21 34 -9 22 -17 27 -46 27 -24 0 -35 5 -35 15 0 18 -31
20 -48 3 -9 -9 -13 -7 -18 5 -10 28 -41 19 -64 -18z m130 -56 c0 -26 -3 -30
-17 -23 -10 4 -36 8 -58 8 l-40 -1 35 11 c19 6 44 16 55 23 11 7 21 13 23 13
1 0 2 -14 2 -31z"/>
<path d="M2778 2812 c-31 -10 -48 -21 -48 -32 0 -8 -9 -22 -20 -30 -28 -20
-28 -80 0 -80 10 0 23 7 28 15 4 9 35 20 70 27 60 11 63 13 74 49 9 31 8 40
-5 53 -19 19 -37 19 -99 -2z"/>
<path d="M1981 2800 c-91 -33 -100 -42 -98 -102 2 -59 -6 -78 -31 -78 -16 1
-16 2 1 14 9 7 17 25 17 38 0 24 -3 26 -50 26 -42 0 -50 -3 -50 -19 0 -11 7
-19 15 -19 8 0 15 -4 15 -8 0 -14 -23 -32 -42 -32 -11 0 -18 -7 -18 -20 0 -13
7 -20 20 -20 19 0 19 -1 2 -22 -9 -11 -26 -30 -37 -42 -18 -19 -20 -19 -23 -3
-4 22 -30 22 -54 0 -17 -15 -18 -15 -18 5 0 28 -25 28 -65 2 -16 -11 -38 -20
-47 -20 -15 0 -18 -9 -18 -44 0 -24 5 -46 10 -48 6 -2 13 -19 16 -39 5 -29 1
-41 -19 -62 -13 -15 -31 -27 -40 -27 -13 0 -14 5 -5 30 5 17 8 39 5 50 -3 13
0 20 9 20 19 0 18 35 -1 54 -16 16 -19 32 -7 38 17 7 72 84 72 100 0 22 -32
24 -49 4 -7 -8 -20 -12 -30 -9 -11 3 -31 -8 -52 -27 -49 -46 -83 -61 -118 -54
-20 4 -31 2 -31 -5 0 -6 -18 -11 -45 -11 -25 0 -56 -7 -70 -16 -14 -9 -51 -16
-92 -18 -41 -2 -86 -11 -115 -24 -41 -18 -48 -19 -48 -6 0 13 -8 14 -42 9 -24
-4 -52 -12 -63 -18 -13 -7 -20 -7 -23 2 -5 14 -59 14 -101 0 -34 -12 -43 -44
-14 -52 17 -4 17 -5 1 -6 -11 -1 -18 -9 -18 -21 0 -14 7 -20 24 -20 13 0 26
-5 28 -12 5 -15 58 -2 58 15 0 22 61 39 155 43 50 3 107 11 127 19 35 13 37
13 43 -5 4 -11 14 -20 22 -20 14 0 13 -4 -5 -23 -25 -27 -29 -57 -7 -57 11 0
13 -8 8 -32 -6 -31 -6 -31 25 -25 42 9 41 -5 -3 -29 -33 -17 -49 -54 -24 -54
7 0 8 -14 4 -40 -8 -44 2 -50 50 -28 25 11 37 58 15 58 -18 0 -11 29 10 40 12
6 20 21 20 35 0 23 4 25 43 26 23 1 54 0 69 -1 20 -1 39 9 65 34 l38 36 3 -25
c2 -14 7 -25 12 -25 5 0 1 -15 -8 -32 -10 -20 -17 -60 -18 -98 -1 -36 -5 -78
-9 -94 -7 -27 -6 -29 17 -24 24 5 25 4 14 -30 -8 -26 -7 -37 1 -39 11 -4 10
-79 -3 -155 -4 -29 -11 -38 -25 -38 -13 0 -19 -7 -19 -21 0 -17 5 -20 25 -17
14 3 25 5 25 4 0 0 -7 -23 -15 -50 -20 -64 -19 -76 4 -76 12 0 20 9 24 28 3
15 15 48 26 75 19 43 23 47 56 47 28 0 35 -4 35 -19 0 -11 7 -27 17 -36 10
-11 16 -32 15 -61 0 -35 3 -44 17 -44 12 0 27 23 49 73 37 83 37 83 17 103 -9
9 -15 34 -15 58 0 63 -11 106 -26 106 -8 0 -14 5 -14 10 0 6 -9 10 -20 10 -14
0 -28 -18 -52 -66 -28 -57 -33 -63 -40 -44 -11 30 -11 67 2 129 8 37 8 56 1
60 -15 10 -17 62 -3 88 16 30 15 53 -3 53 -17 0 -18 8 -9 63 8 45 20 48 29 7
9 -39 28 -38 65 3 28 30 29 31 30 10 0 -13 5 -23 11 -23 5 0 7 -5 4 -11 -13
-19 4 -59 25 -59 13 0 20 -7 20 -20 0 -11 5 -20 10 -20 6 0 10 -7 10 -15 0 -8
5 -15 10 -15 7 0 7 -6 0 -19 -16 -31 -12 -51 10 -51 11 0 20 4 20 8 0 5 18 26
40 48 46 45 51 71 15 80 -14 3 -25 10 -25 15 0 5 -9 9 -20 9 -21 0 -27 15 -10
25 14 9 13 115 -2 115 -6 0 -4 7 5 18 19 20 23 52 7 52 -5 0 -10 7 -10 15 0 8
-7 15 -15 15 -8 0 -15 7 -15 15 0 8 5 15 10 15 6 0 10 8 10 18 0 10 15 26 35
36 19 11 35 25 35 33 0 16 14 17 39 1 15 -9 25 -9 45 0 31 14 34 48 6 57 -23
7 -17 25 8 25 9 0 33 14 52 31 19 17 47 37 63 45 34 18 37 54 5 55 l-23 0 22
11 c12 6 23 18 26 28 3 11 16 20 33 22 21 2 30 9 32 26 3 18 -1 22 -25 22 -15
-1 -52 -9 -82 -20z m-640 -426 c-2 -26 1 -34 13 -34 24 0 19 -19 -7 -29 -13
-5 -29 -16 -36 -25 -17 -20 -65 -21 -85 -1 -8 8 -19 15 -25 15 -6 0 -11 7 -11
15 0 8 -9 15 -20 15 -21 0 -29 33 -10 45 6 3 10 1 10 -4 0 -17 30 -13 57 9 16
12 41 20 64 20 23 0 39 5 39 12 0 6 3 8 7 4 4 -4 6 -23 4 -42z m72 4 c-9 -15
-23 -8 -23 12 0 17 2 19 14 8 8 -7 12 -16 9 -20z"/>
<path d="M2587 2814 c-5 -5 -53 -9 -179 -13 -26 -1 -38 -6 -38 -15 0 -8 -9
-18 -20 -21 -11 -3 -20 -10 -20 -15 0 -4 -9 -10 -20 -13 -15 -4 -20 0 -20 14
0 22 -33 26 -52 6 -13 -15 -48 -11 -48 4 0 5 -11 9 -25 9 -26 0 -29 -9 -18
-48 5 -20 10 -23 34 -18 16 3 29 1 29 -4 0 -6 14 -10 30 -10 20 0 30 5 30 15
0 8 5 15 10 15 6 0 10 -7 10 -15 0 -8 9 -15 20 -15 11 0 23 7 26 15 4 8 17 15
31 15 16 0 27 7 30 20 4 15 14 20 37 20 20 0 37 -7 46 -20 18 -25 97 -29 106
-5 4 8 12 15 20 15 8 0 14 4 14 10 0 5 11 12 25 16 16 4 25 13 25 25 0 15 -7
19 -38 19 -21 0 -41 -3 -45 -6z"/>
<path d="M2978 2733 c-27 -13 -40 -53 -18 -53 6 0 10 -7 10 -16 0 -22 25 -44
49 -44 22 0 31 35 11 42 -6 2 -4 15 5 32 8 15 15 35 15 42 0 18 -36 16 -72 -3z"/>
<path d="M3173 2672 c-35 -32 -63 -63 -63 -70 0 -7 9 -21 20 -32 11 -11 20
-28 20 -39 0 -10 -9 -21 -20 -24 -23 -6 -28 -47 -5 -47 8 0 39 12 70 27 59 29
71 56 40 87 -13 13 -14 20 -4 38 7 13 15 25 19 28 4 3 11 24 15 48 6 37 4 42
-12 42 -10 -1 -46 -27 -80 -58z"/>
<path d="M4120 2698 c-4 -108 -4 -108 -27 -108 -13 0 -23 -4 -23 -10 0 -5 -9
-10 -20 -10 -14 0 -20 -7 -20 -22 l-1 -23 -18 22 c-12 15 -29 21 -50 21 -25
-1 -38 6 -55 27 -16 20 -29 27 -43 23 -16 -4 -24 2 -37 29 -9 18 -16 40 -16
48 0 9 -10 15 -25 15 -33 0 -33 -25 2 -93 30 -57 32 -59 65 -99 13 -14 30 -36
38 -47 8 -12 20 -21 27 -21 7 0 13 -4 13 -10 0 -5 9 -10 20 -10 22 0 29 36 8
43 -7 2 1 2 17 -1 17 -2 41 -13 54 -23 29 -23 61 -25 61 -3 0 9 -15 29 -32 45
-34 29 -27 41 8 14 25 -19 54 -19 54 -1 0 11 9 13 35 9 30 -5 35 -3 35 15 0
11 -6 23 -12 25 -8 3 -5 6 5 6 16 1 17 8 13 66 -6 74 -22 105 -53 105 -18 0
-23 -6 -23 -32z"/>
<path d="M2050 2700 c0 -13 7 -20 20 -20 13 0 20 7 20 20 0 13 -7 20 -20 20
-13 0 -20 -7 -20 -20z"/>
<path d="M1670 2565 c0 -18 5 -25 20 -25 15 0 20 7 20 25 0 18 -5 25 -20 25
-15 0 -20 -7 -20 -25z"/>
<path d="M2326 2561 c-7 -11 -64 -24 -98 -21 -36 2 -88 -29 -88 -53 0 -16 5
-18 28 -12 15 4 40 6 56 6 15 0 46 9 67 20 49 25 83 17 126 -29 31 -33 34 -34
83 -27 45 6 50 9 50 32 0 23 -3 25 -35 19 -28 -6 -37 -3 -47 14 -7 11 -23 20
-35 20 -13 0 -23 5 -23 10 0 6 -9 10 -20 10 -11 0 -20 5 -20 10 0 12 -37 13
-44 1z"/>
<path d="M2640 2452 c0 -18 33 -52 50 -52 6 0 10 -9 10 -20 0 -23 11 -25 57
-8 33 12 48 48 19 48 -8 0 -16 7 -20 15 -3 8 -17 15 -31 15 -14 0 -25 5 -25
10 0 6 -13 10 -30 10 -22 0 -30 -5 -30 -18z"/>
<path d="M2087 2433 c-13 -12 -7 -43 7 -43 28 0 46 12 46 31 0 13 -7 19 -23
19 -13 0 -27 -3 -30 -7z"/>
<path d="M3564 2390 c9 -64 15 -80 32 -80 8 0 16 -16 20 -40 4 -24 12 -40 20
-40 8 0 14 -8 14 -19 0 -10 11 -30 25 -45 14 -15 25 -38 25 -51 0 -37 21 -75
42 -75 20 0 22 10 9 54 -5 17 -17 59 -27 93 -9 34 -22 64 -29 67 -7 2 -15 21
-19 40 -4 20 -13 36 -20 36 -9 0 -16 17 -20 45 -5 29 -12 45 -22 45 -8 0 -14
5 -14 10 0 6 -10 10 -21 10 -20 0 -21 -4 -15 -50z"/>
<path d="M1803 2413 c-25 -3 -33 -9 -33 -24 0 -14 7 -19 25 -19 14 0 25 -5 25
-11 0 -7 12 -10 30 -7 20 3 30 0 30 -9 0 -7 6 -13 14 -13 8 0 16 -5 18 -10 2
-7 19 -8 46 -4 48 7 60 30 43 77 -10 26 -12 27 -88 25 -43 0 -93 -3 -110 -5z"/>
<path d="M3753 2378 c3 -18 15 -60 28 -94 18 -48 29 -63 52 -72 16 -6 31 -20
34 -31 3 -10 13 -21 23 -24 11 -3 23 -21 31 -46 8 -29 18 -41 31 -41 10 0 18
6 18 13 0 28 -32 107 -44 107 -13 0 -46 61 -46 84 0 8 -9 16 -20 19 -11 3 -20
12 -20 21 0 9 -6 16 -13 16 -8 0 -20 18 -27 40 -9 28 -19 40 -33 40 -16 0 -18
-5 -14 -32z"/>
<path d="M2873 2337 c-33 -7 -43 -15 -43 -30 0 -17 5 -19 40 -14 30 4 40 2 40
-9 0 -7 11 -16 25 -20 l25 -6 -25 -22 c-30 -26 -33 -56 -5 -56 10 0 23 6 27
13 8 12 99 60 136 71 20 6 23 46 3 46 -8 0 -27 -5 -42 -10 -16 -6 -30 -7 -33
-2 -3 5 -18 12 -33 16 -16 3 -28 13 -28 21 0 17 -24 18 -87 2z"/>
<path d="M2037 2293 c-4 -3 -7 -15 -7 -26 0 -15 5 -18 25 -15 13 3 26 1 27 -4
2 -5 20 -11 41 -15 31 -5 37 -3 37 11 0 27 -28 49 -55 43 -14 -2 -25 0 -25 4
0 11 -34 12 -43 2z"/>
<path d="M847 2253 c-37 -29 -49 -63 -22 -63 8 0 15 -6 15 -14 0 -14 21 -26
45 -26 7 0 15 15 18 33 3 17 9 47 13 65 6 27 4 32 -13 32 -11 0 -36 -12 -56
-27z"/>
<path d="M2190 2238 c1 -40 13 -58 41 -58 19 0 29 -5 29 -15 0 -10 10 -15 30
-15 17 0 30 -4 30 -10 0 -5 11 -10 25 -10 14 0 25 -4 25 -10 0 -5 11 -10 25
-10 35 0 34 37 -1 50 -14 6 -32 17 -40 25 -9 8 -26 15 -40 15 -13 0 -24 5 -24
10 0 6 -9 10 -19 10 -10 0 -21 7 -25 15 -7 18 -56 20 -56 3z"/>
<path d="M2457 2123 c-15 -14 -6 -41 16 -47 38 -10 57 -7 57 10 0 29 -54 57
-73 37z"/>
<path d="M3580 2065 c0 -18 5 -25 20 -25 15 0 20 7 20 25 0 18 -5 25 -20 25
-15 0 -20 -7 -20 -25z"/>
<path d="M2544 2049 c3 -17 6 -35 6 -40 0 -5 17 -9 38 -9 55 0 82 -10 82 -30
0 -13 10 -21 32 -26 18 -3 39 -15 46 -25 7 -11 22 -19 33 -19 10 0 28 -9 39
-20 27 -27 80 -27 80 0 0 21 -27 40 -59 40 -12 0 -30 9 -41 20 -11 11 -27 20
-35 20 -8 0 -15 4 -15 9 0 5 -9 12 -19 16 -10 3 -21 14 -24 24 -3 11 -18 22
-36 26 -17 4 -31 11 -31 17 0 6 -11 8 -25 6 -17 -4 -25 -1 -25 8 0 8 -11 14
-26 14 -24 0 -26 -3 -20 -31z"/>
<path d="M2290 2012 c0 -10 11 -29 25 -42 14 -13 28 -39 31 -57 4 -23 14 -37
29 -43 12 -5 25 -20 29 -34 3 -14 13 -26 21 -26 8 0 15 -4 15 -10 0 -5 8 -10
18 -10 11 0 23 -13 31 -35 7 -19 22 -40 34 -46 12 -7 26 -18 30 -25 4 -8 17
-14 27 -14 23 0 28 35 6 47 -7 4 -19 25 -25 46 -7 20 -18 37 -26 37 -7 0 -18
14 -25 30 -7 17 -19 30 -27 30 -22 0 -50 32 -58 68 -4 20 -13 32 -23 32 -9 0
-30 16 -45 35 -30 38 -67 47 -67 17z"/>
<path d="M2140 1970 c0 -43 3 -50 20 -50 11 0 20 5 20 10 0 6 9 10 19 10 13 0
21 -9 26 -30 5 -21 13 -30 26 -30 21 0 22 6 13 63 -6 33 -10 37 -35 37 -18 0
-29 5 -29 14 0 14 -21 26 -46 26 -10 0 -14 -14 -14 -50z"/>
<path d="M905 1963 c10 -59 10 -69 0 -115 -7 -35 -5 -38 14 -38 16 0 23 8 28
30 5 26 10 30 39 30 32 0 34 2 34 35 0 28 -4 35 -20 35 -11 0 -20 5 -20 10 0
6 -6 10 -14 10 -8 0 -17 11 -20 25 -4 17 -13 25 -27 25 -20 0 -21 -3 -14 -47z"/>
<path d="M1885 1988 c-30 -18 -54 -51 -55 -75 0 -29 30 -31 48 -3 13 22 42 17
42 -7 0 -12 7 -14 30 -9 22 4 30 2 30 -9 0 -19 39 -19 63 -1 23 18 22 46 -3
46 -11 0 -20 7 -20 15 0 8 -9 15 -20 15 -11 0 -20 6 -20 14 0 7 -14 16 -31 20
-40 8 -40 8 -64 -6z"/>
<path d="M1030 1926 c0 -62 11 -96 31 -96 16 0 19 8 19 43 0 61 -9 87 -31 87
-15 0 -19 -7 -19 -34z"/>
<path d="M4096 1918 c-10 -38 -7 -48 13 -48 11 0 23 -12 31 -31 9 -22 18 -29
34 -27 28 4 31 30 10 77 -23 53 -77 70 -88 29z"/>
<path d="M3620 1910 c0 -11 4 -20 9 -20 5 0 12 -11 15 -25 4 -14 13 -25 21
-25 8 0 15 -8 15 -18 0 -10 8 -24 19 -31 17 -13 18 -16 2 -63 -14 -46 -14 -50
2 -59 9 -6 17 -17 17 -24 0 -8 5 -15 10 -15 6 0 10 -20 10 -45 0 -25 4 -45 9
-45 4 0 6 -11 3 -25 -4 -22 -1 -25 27 -25 24 0 31 -4 31 -20 0 -13 7 -20 20
-20 14 0 20 7 20 23 0 12 9 28 20 35 18 11 19 10 13 -18 -5 -26 -2 -30 16 -30
14 0 22 8 27 28 3 15 10 37 15 50 23 56 -1 98 -50 87 -26 -6 -28 -4 -24 19 4
19 1 26 -11 26 -9 0 -16 5 -16 10 0 6 -12 10 -27 10 -21 0 -24 3 -15 12 15 15
16 48 2 48 -5 0 -10 7 -10 15 0 8 -5 15 -11 15 -5 0 -7 4 -4 10 3 5 3 25 -1
45 -6 32 -9 35 -40 35 -26 0 -34 4 -34 18 0 18 -37 42 -65 42 -8 0 -15 -9 -15
-20z"/>
<path d="M2956 1835 c-7 -28 8 -105 22 -114 6 -3 14 -19 17 -34 5 -18 14 -27
27 -27 18 0 20 4 14 38 -3 20 -6 52 -6 70 0 22 -5 32 -15 32 -10 0 -15 10 -15
30 0 39 -35 43 -44 5z"/>
<path d="M2102 1815 c-19 -40 -15 -85 6 -85 16 0 42 57 42 95 0 25 -36 17 -48
-10z"/>
<path d="M2340 1660 c0 -83 1 -90 20 -90 19 0 20 7 20 90 0 83 -1 90 -20 90
-19 0 -20 -7 -20 -90z"/>
<path d="M3050 1668 c0 -24 29 -107 45 -132 19 -29 55 -35 55 -10 0 9 -8 28
-18 42 -10 15 -24 46 -31 70 -9 31 -17 42 -31 42 -11 0 -20 -6 -20 -12z"/>
<path d="M3130 1631 c0 -23 37 -71 55 -71 7 0 26 -7 41 -15 46 -24 66 -20 62
13 -3 23 -10 29 -47 38 -26 6 -50 19 -59 32 -18 27 -52 29 -52 3z"/>
<path d="M2930 1556 c0 -13 7 -29 15 -36 8 -7 15 -23 15 -36 0 -17 6 -24 18
-24 11 0 27 -9 37 -20 10 -11 27 -20 38 -20 15 0 18 5 15 25 -4 21 -1 25 18
25 33 0 31 32 -3 48 -33 15 -60 16 -65 1 -2 -6 -15 5 -28 25 -29 42 -60 48
-60 12z"/>
<path d="M3312 1558 c2 -15 11 -24 26 -26 20 -3 23 0 20 20 -2 15 -11 24 -26
26 -20 3 -23 0 -20 -20z"/>
<path d="M3430 1417 c0 -27 28 -57 53 -57 23 0 22 42 -1 63 -27 25 -52 22 -52
-6z"/>
<path d="M3754 1295 c-3 -25 -5 -48 -3 -50 2 -2 31 -6 64 -10 l60 -7 13 41
c17 56 15 71 -8 71 -11 0 -20 -4 -20 -10 0 -5 -13 -10 -30 -10 -16 0 -30 5
-30 10 0 6 -9 10 -19 10 -16 0 -21 -9 -27 -45z"/>
<path d="M3740 1210 c0 -13 7 -20 20 -20 13 0 20 7 20 20 0 13 -7 20 -20 20
-13 0 -20 -7 -20 -20z"/>
<path d="M1212 283 c2 -23 8 -29 36 -31 27 -3 32 0 32 17 0 21 -27 41 -55 41
-12 0 -15 -7 -13 -27z"/>
<path d="M4097 243 c-4 -3 -7 -15 -7 -25 0 -13 7 -18 25 -18 20 0 25 5 25 25
0 18 -5 25 -18 25 -10 0 -22 -3 -25 -7z"/>
<path d="M4492 2408 c2 -25 8 -34 26 -36 12 -2 22 -7 22 -12 0 -4 11 -11 25
-14 14 -4 25 -11 25 -16 0 -6 9 -10 20 -10 17 0 20 7 20 44 0 47 -11 56 -72
56 -16 0 -28 5 -28 10 0 6 -9 10 -21 10 -17 0 -20 -5 -17 -32z"/>
<path d="M4240 786 c0 -19 7 -26 30 -31 35 -8 50 0 50 24 0 13 -10 21 -31 25
-47 9 -49 8 -49 -18z"/>
<path d="M4230 530 c0 -13 7 -20 20 -20 13 0 20 7 20 20 0 13 -7 20 -20 20
-13 0 -20 -7 -20 -20z"/>
<path d="M4350 463 c0 -24 19 -43 43 -43 14 0 18 6 15 28 -2 21 -9 28 -30 30
-22 3 -28 -1 -28 -15z"/>
<path d="M4467 433 c-16 -16 -6 -43 18 -49 33 -8 39 -2 31 31 -6 24 -33 34
-49 18z"/>
</g>
</svg>
