<?xml version="1.0" standalone="no"?>
<!DOCTYPE svg PUBLIC "-//W3C//DTD SVG 20010904//EN"
 "http://www.w3.org/TR/2001/REC-SVG-20010904/DTD/svg10.dtd">
<svg version="1.0" xmlns="http://www.w3.org/2000/svg"
 width="252.000000pt" height="183.000000pt" viewBox="0 0 252.000000 183.000000"
 preserveAspectRatio="xMidYMid meet">
<metadata>
Created by potrace 1.13, written by Peter Selinger 2001-2015
</metadata>
<g transform="translate(0.000000,183.000000) scale(0.100000,-0.100000)"
fill="#000000" stroke="none">
<path d="M2119 1804 c-62 -19 -119 -75 -119 -115 0 -22 6 -32 20 -36 11 -3 20
-13 20 -23 0 -22 19 -30 71 -30 36 0 39 2 39 28 0 36 9 47 47 60 47 16 71 6
79 -33 6 -35 -3 -95 -14 -95 -4 0 -24 -15 -45 -34 -21 -18 -63 -41 -94 -51
l-56 -18 -26 31 c-25 30 -30 31 -116 35 -49 2 -117 11 -150 20 -33 8 -104 20
-157 26 -53 6 -108 15 -123 21 -36 14 -95 12 -125 -3 -14 -7 -30 -26 -35 -42
-6 -17 -18 -41 -27 -55 -9 -14 -20 -42 -23 -63 -9 -49 -28 -53 -159 -38 -223
27 -413 23 -592 -12 -82 -16 -116 -37 -175 -110 -24 -28 -58 -68 -77 -87 -42
-44 -86 -123 -100 -180 -6 -25 -13 -91 -16 -147 -3 -56 -12 -128 -20 -160 -8
-32 -17 -95 -21 -141 -5 -71 -4 -83 10 -88 25 -10 34 6 40 71 10 100 27 178
36 163 5 -7 9 -23 9 -34 0 -12 12 -29 26 -39 25 -16 26 -20 20 -83 -6 -77 -18
-152 -42 -272 -9 -47 -19 -102 -21 -122 -3 -21 -9 -38 -13 -38 -17 0 -21 -53
-6 -68 13 -14 19 -14 41 -2 19 10 28 11 37 2 15 -15 80 -16 95 -1 7 7 31 12
55 12 67 -1 125 39 89 62 -24 14 18 225 45 225 8 0 14 5 14 10 0 6 6 10 14 10
8 0 16 7 20 15 3 8 10 15 16 15 23 0 67 -56 74 -93 4 -20 11 -37 16 -37 6 0
10 -7 10 -15 0 -9 7 -18 15 -21 10 -4 15 -20 15 -45 0 -76 33 -87 245 -80 76
2 93 6 108 23 24 29 21 50 -11 84 -16 16 -34 39 -41 51 -11 21 -61 203 -61
223 0 5 21 12 48 15 73 10 145 25 169 37 13 6 26 9 29 5 9 -9 -6 -137 -16
-137 -5 0 -12 -16 -16 -35 -3 -19 -10 -35 -14 -35 -5 0 -11 -30 -14 -67 -4
-38 -13 -88 -21 -113 -21 -64 -11 -105 30 -124 46 -22 310 -22 383 -1 51 15
52 17 52 54 0 30 -5 40 -25 51 -14 7 -25 19 -25 27 0 7 -6 13 -14 13 -29 0
-28 66 1 83 7 4 13 24 13 42 0 19 5 35 10 35 6 0 10 16 10 37 0 36 0 36 18 15
9 -11 24 -30 32 -42 8 -12 23 -31 33 -42 9 -12 17 -27 17 -35 0 -7 5 -13 10
-13 6 0 10 -11 10 -25 0 -14 -4 -25 -10 -25 -5 0 -10 -20 -10 -44 0 -41 2 -45
33 -55 95 -31 297 -36 375 -8 28 10 32 15 32 49 0 37 -26 78 -50 78 -5 0 -10
5 -10 10 0 6 -7 10 -15 10 -8 0 -15 7 -15 15 0 8 -4 15 -9 15 -4 0 -11 21 -14
46 -2 26 -9 49 -15 53 -6 3 -14 19 -17 34 -4 15 -11 27 -15 27 -5 0 -11 13
-15 30 -4 16 -10 30 -15 30 -5 0 -12 10 -16 22 -3 12 -13 28 -20 36 -8 7 -14
20 -14 28 0 8 -4 14 -9 14 -5 0 -12 12 -16 27 -3 15 -12 31 -18 35 -6 4 -13
46 -15 97 -2 50 -8 91 -12 91 -11 0 -23 75 -16 97 3 10 29 29 58 43 52 24 97
58 98 73 0 28 66 61 140 72 25 3 71 13 103 22 49 13 57 19 57 39 0 18 6 24 21
24 27 0 110 38 132 61 9 10 17 27 17 39 0 18 -6 20 -53 20 -29 0 -58 -5 -65
-12 -6 -6 -14 -9 -17 -7 -3 3 7 12 23 20 30 15 142 124 142 139 0 5 8 16 18
26 13 14 17 35 17 104 l0 87 -45 44 c-70 68 -103 82 -195 85 -50 2 -97 -2
-126 -12z"/>
</g>
</svg>
