<?xml version="1.0" standalone="no"?>
<!DOCTYPE svg PUBLIC "-//W3C//DTD SVG 20010904//EN"
 "http://www.w3.org/TR/2001/REC-SVG-20010904/DTD/svg10.dtd">
<svg version="1.0" xmlns="http://www.w3.org/2000/svg"
 width="759.000000pt" height="644.000000pt" viewBox="0 0 759.000000 644.000000"
 preserveAspectRatio="xMidYMid meet">
<metadata>
Created by potrace 1.13, written by Peter Selinger 2001-2015
</metadata>
<g transform="translate(0.000000,644.000000) scale(0.100000,-0.100000)"
fill="#000000" stroke="none">
<path d="M931 5513 c-22 -26 -39 -54 -36 -62 3 -7 -4 -29 -15 -48 -11 -19 -20
-42 -20 -52 0 -10 -3 -21 -7 -25 -5 -4 -12 -38 -18 -74 -9 -58 -13 -67 -33
-70 -13 -2 -25 3 -28 12 -8 20 -31 20 -67 1 -15 -8 -55 -17 -88 -21 -34 -4
-70 -15 -83 -25 -13 -10 -45 -23 -71 -29 -47 -10 -195 -105 -209 -132 -20 -41
-45 -74 -62 -83 -58 -31 -130 -138 -157 -235 -17 -60 -35 -171 -34 -210 0 -66
20 -192 39 -250 55 -168 146 -263 323 -335 22 -9 51 -23 65 -30 44 -22 357
-118 433 -132 15 -3 27 -9 27 -14 0 -5 8 -9 19 -9 26 0 89 -44 136 -96 41 -45
141 -104 177 -104 43 0 58 18 58 69 0 33 -5 51 -14 54 -8 3 -17 21 -21 39 -3
18 -13 54 -21 80 -15 46 -16 47 -137 107 -68 34 -128 61 -135 61 -7 0 -20 4
-30 9 -9 5 -37 15 -62 21 -25 7 -62 19 -83 26 -20 8 -45 14 -54 14 -9 0 -66
25 -127 55 -153 75 -201 122 -246 240 -56 146 -48 240 35 382 l25 41 55 -52
c30 -29 74 -66 97 -82 24 -16 45 -31 48 -35 5 -5 69 -35 135 -64 252 -109 587
-149 1206 -146 l256 1 -9 -50 c-11 -61 7 -102 55 -124 17 -8 52 -23 77 -34 83
-36 126 -76 149 -137 12 -31 21 -67 21 -81 0 -30 38 -152 50 -159 5 -3 18 -26
30 -51 13 -25 33 -50 46 -56 13 -6 24 -17 24 -25 0 -7 3 -13 8 -13 16 0 34
-59 43 -138 8 -78 7 -87 -17 -145 -20 -46 -27 -82 -29 -142 -1 -51 -8 -92 -18
-112 -19 -36 -38 -190 -30 -240 3 -18 10 -33 17 -33 6 0 22 -28 35 -62 24 -61
24 -64 8 -128 -8 -36 -18 -81 -21 -100 -6 -41 8 -113 23 -118 6 -2 11 -10 11
-18 0 -8 7 -14 15 -14 8 0 15 -6 15 -13 0 -7 9 -19 20 -27 11 -8 20 -20 20
-27 0 -7 4 -13 9 -13 5 0 12 -11 15 -24 4 -16 -10 -61 -45 -142 -28 -66 -54
-123 -58 -129 -22 -30 -51 -271 -51 -430 0 -98 -28 -214 -69 -293 -53 -98
-101 -234 -101 -283 0 -69 -18 -101 -110 -199 -8 -9 -36 -47 -61 -86 -39 -59
-56 -75 -105 -100 -33 -16 -66 -36 -75 -44 -30 -28 -71 -134 -67 -176 3 -34 9
-43 51 -71 31 -21 67 -34 105 -40 71 -10 241 -7 392 7 394 36 399 37 443 81
32 34 35 82 12 184 -14 61 -14 67 1 83 10 9 28 15 41 14 14 -2 23 2 23 10 0 7
7 27 16 43 19 35 53 167 54 207 0 17 11 38 29 56 18 17 38 53 52 97 12 39 25
72 30 75 4 3 7 21 6 41 -1 24 6 43 21 59 12 13 22 27 22 32 0 4 11 8 23 8 27
0 43 28 53 91 4 21 11 42 15 45 5 3 10 15 10 27 1 17 2 18 6 4 2 -9 9 -17 14
-17 5 0 9 -9 9 -20 0 -13 7 -20 19 -20 15 0 20 10 25 47 14 95 18 113 31 113
8 0 16 20 20 53 5 33 15 60 29 73 35 34 66 74 79 101 6 14 27 31 49 40 21 8
38 19 38 24 0 5 5 9 10 9 6 0 10 -7 10 -15 0 -9 8 -25 19 -36 17 -18 28 -20
107 -15 49 2 119 8 156 12 66 7 69 8 97 51 l29 44 7 -33 c4 -18 12 -39 17 -46
13 -15 40 -62 70 -122 13 -25 29 -49 35 -53 7 -4 13 -15 13 -23 0 -18 28 -73
46 -92 8 -7 14 -19 14 -25 0 -7 9 -20 20 -30 11 -9 20 -26 20 -36 0 -11 4 -22
9 -25 5 -3 12 -18 16 -33 3 -15 11 -31 17 -34 6 -4 14 -67 19 -140 10 -172 18
-231 34 -286 12 -38 11 -60 -1 -141 -8 -52 -14 -129 -14 -170 0 -92 -12 -118
-94 -204 l-63 -67 -7 -91 c-7 -97 -7 -97 43 -160 l20 -25 293 3 c340 4 399 12
533 74 121 56 145 88 145 193 0 107 -33 269 -69 342 -17 34 -31 69 -31 77 0 9
-4 16 -8 16 -13 0 -32 81 -36 155 -3 39 -7 99 -11 135 -4 36 -6 72 -5 80 0 8
3 98 5 200 4 182 9 210 43 252 8 10 12 26 9 38 -4 16 0 20 19 20 26 0 30 14
14 54 -5 14 -6 26 -1 26 5 0 12 16 15 35 10 50 26 43 26 -10 0 -38 3 -45 19
-45 11 0 21 6 23 12 5 13 78 18 78 6 0 -13 40 -9 41 5 1 6 6 -8 13 -33 10 -37
16 -46 38 -48 18 -2 27 2 31 17 2 11 15 21 28 23 19 2 24 9 24 32 l-1 28 21
-26 c23 -28 55 -35 55 -11 0 9 9 15 25 15 20 0 25 -6 30 -37 11 -68 47 -236
71 -338 13 -56 24 -109 24 -118 0 -10 4 -25 9 -35 5 -9 15 -44 22 -77 7 -33
16 -68 21 -77 4 -9 10 -43 13 -75 3 -32 9 -83 14 -113 8 -47 7 -61 -12 -100
-24 -51 -89 -152 -123 -190 -14 -16 -26 -49 -33 -94 -14 -81 -9 -88 79 -107
30 -6 90 -20 134 -30 92 -22 121 -23 237 -5 89 13 127 33 189 97 14 14 52 46
86 71 73 56 137 132 139 165 0 14 -8 29 -23 39 -37 24 -78 127 -85 216 -4 42
-13 96 -22 120 -18 53 -21 208 -3 190 16 -16 38 -82 38 -115 0 -16 5 -38 11
-49 15 -27 48 -244 42 -268 -3 -12 5 -25 22 -36 26 -17 30 -17 94 0 36 10 115
29 174 42 60 13 115 28 122 34 9 8 14 6 19 -5 7 -18 23 -19 57 -1 14 7 37 16
50 19 14 4 47 23 72 42 41 32 47 40 47 74 0 25 -7 44 -20 56 -11 10 -20 24
-20 32 0 7 -4 13 -8 13 -5 0 -18 19 -31 43 -12 23 -26 49 -31 57 -8 13 -16 32
-50 115 -15 37 -49 160 -61 225 -15 76 -14 378 1 442 5 24 10 69 10 101 0 59
11 85 91 207 16 25 31 52 35 60 9 23 23 54 32 70 73 128 103 195 117 252 8 35
15 109 15 166 l0 103 28 -33 c48 -56 62 -86 62 -128 0 -23 7 -54 15 -69 13
-26 13 -35 -1 -82 -8 -30 -19 -70 -23 -89 -4 -19 -16 -53 -26 -75 -19 -42 -31
-152 -41 -358 -6 -132 3 -157 56 -157 49 0 60 25 60 139 0 98 6 128 41 193 5
10 9 26 9 35 0 10 8 32 18 48 34 58 46 134 46 285 -1 181 -18 259 -82 385 -8
17 -24 41 -36 55 -43 51 -109 211 -111 270 -11 238 -106 407 -358 635 -44 40
-62 65 -87 127 -17 42 -40 84 -51 94 -10 9 -19 22 -19 28 0 7 -9 19 -20 29
-11 9 -20 23 -20 30 0 14 -303 317 -317 317 -5 0 -19 10 -33 23 -14 13 -61 42
-105 66 -44 24 -84 47 -90 51 -10 8 -90 32 -170 52 -22 5 -87 33 -145 62 -58
29 -121 59 -140 66 -19 7 -63 26 -98 41 -34 16 -84 34 -110 41 -26 6 -71 19
-100 30 -65 22 -144 23 -226 2 -52 -14 -72 -14 -136 -3 -93 15 -111 24 -182
93 -31 30 -71 62 -89 72 -18 9 -54 33 -80 53 -107 82 -152 111 -182 115 -28 4
-99 11 -319 33 -33 4 -59 -1 -95 -17 -41 -18 -59 -20 -119 -15 -62 6 -76 4
-121 -18 l-52 -24 -40 50 c-23 27 -41 53 -41 57 0 4 -8 10 -17 14 -10 3 -40
20 -68 37 -27 18 -63 35 -80 40 -16 4 -55 14 -85 23 -30 8 -111 21 -180 27
l-126 12 -56 -31 c-31 -17 -84 -38 -116 -47 -62 -18 -78 -17 -229 5 -71 11
-95 10 -180 -5 -54 -10 -104 -21 -113 -26 -8 -5 -53 -23 -100 -41 -47 -18
-136 -58 -199 -90 -63 -32 -141 -65 -175 -73 -66 -17 -295 -37 -310 -27 -22
13 -230 42 -332 46 -61 2 -148 12 -193 21 -70 14 -90 15 -132 4 -58 -15 -93
-6 -121 31 -26 35 -33 118 -18 201 7 38 11 72 8 75 -3 3 -24 -17 -47 -43z
m-86 -692 c59 -2 61 -3 93 -46 18 -25 39 -45 47 -45 19 0 65 -62 65 -87 0 -11
-9 -28 -20 -38 -17 -15 -26 -16 -87 -6 -37 7 -106 21 -153 33 -64 15 -104 19
-160 15 -69 -5 -77 -4 -107 19 -20 15 -33 34 -33 48 0 57 126 117 235 111 33
-2 87 -4 120 -4z m380 -100 c-6 -5 -25 10 -25 20 0 5 6 4 14 -3 8 -7 12 -15
11 -17z m45 20 c0 -4 23 -11 51 -14 28 -4 56 -10 63 -15 6 -5 22 -12 36 -16
14 -4 48 -13 75 -21 82 -22 231 -36 369 -34 l129 1 14 -26 c8 -15 13 -44 11
-64 -3 -35 -5 -37 -48 -45 -70 -13 -247 -1 -266 17 -9 9 -33 16 -55 16 -54 0
-129 20 -129 34 0 6 -21 18 -47 25 -27 7 -83 27 -125 44 -70 29 -78 35 -78 60
0 15 -4 27 -10 27 -5 0 -10 5 -10 10 0 6 5 10 10 10 6 0 10 -4 10 -9z"/>
</g>
</svg>
