<?xml version="1.0" standalone="no"?>
<!DOCTYPE svg PUBLIC "-//W3C//DTD SVG 20010904//EN"
 "http://www.w3.org/TR/2001/REC-SVG-20010904/DTD/svg10.dtd">
<svg version="1.0" xmlns="http://www.w3.org/2000/svg"
 width="298.000000pt" height="223.000000pt" viewBox="0 0 298.000000 223.000000"
 preserveAspectRatio="xMidYMid meet">
<metadata>
Created by potrace 1.13, written by Peter Selinger 2001-2015
</metadata>
<g transform="translate(0.000000,223.000000) scale(0.100000,-0.100000)"
fill="#000000" stroke="none">
<path d="M2207 2223 c-4 -3 -7 -15 -7 -25 0 -15 -9 -18 -62 -18 -373 -3 -499
-9 -550 -25 -65 -22 -125 -61 -133 -86 -10 -31 -52 -34 -159 -9 -145 32 -202
36 -272 16 -165 -48 -451 -283 -545 -451 -34 -59 -34 -61 -34 -185 0 -69 3
-177 5 -240 5 -133 2 -144 -99 -279 -86 -116 -141 -235 -141 -305 0 -43 3 -56
15 -56 10 0 15 -10 15 -34 0 -21 6 -36 15 -40 8 -3 15 -15 15 -26 0 -12 7 -20
18 -20 26 0 54 132 50 240 -3 98 8 128 72 200 22 25 54 65 70 89 l30 44 0 -44
c-1 -150 -31 -287 -91 -415 -23 -48 -29 -71 -24 -96 4 -20 0 -51 -8 -76 -11
-31 -12 -52 -6 -77 10 -34 54 -79 69 -70 5 3 11 1 15 -5 3 -5 30 -10 59 -10
49 0 56 3 80 34 20 26 26 46 26 83 0 26 5 64 11 83 5 19 19 67 29 107 23 88
44 129 83 167 l30 29 9 -24 c6 -13 13 -44 18 -69 4 -25 15 -71 24 -103 9 -32
16 -80 16 -108 0 -27 5 -58 12 -69 9 -14 10 -29 2 -59 -11 -40 -11 -41 28 -66
35 -24 44 -25 84 -17 25 5 44 6 44 1 0 -10 53 -12 98 -3 28 6 30 8 24 46 -3
23 -15 60 -28 83 -12 24 -32 85 -43 137 -23 105 -30 293 -12 311 6 6 11 20 11
31 0 16 3 17 12 8 8 -8 58 -12 158 -12 l145 -1 24 -39 c14 -22 37 -44 52 -49
28 -10 89 -80 159 -185 52 -76 52 -92 0 -99 -70 -9 -87 -27 -100 -106 -24
-144 37 -227 180 -245 25 -3 102 -8 172 -11 126 -6 126 -6 130 17 2 13 -6 36
-17 51 -29 42 -25 159 10 246 14 36 25 73 25 83 0 10 23 85 50 166 70 207 77
240 86 384 3 71 10 128 14 128 4 0 15 -19 24 -41 25 -63 70 -122 114 -153 28
-19 42 -37 46 -59 9 -50 27 -323 28 -415 0 -45 4 -84 8 -87 4 -3 11 -49 15
-102 6 -86 4 -104 -14 -145 -16 -38 -25 -47 -48 -50 -23 -2 -28 -8 -28 -30 1
-16 -3 -28 -7 -28 -4 0 -8 -9 -8 -21 0 -20 4 -21 75 -17 65 3 78 7 103 31 36
35 68 98 77 152 3 22 10 103 15 180 6 77 14 185 20 240 5 55 9 141 10 191 l0
90 38 10 c27 7 38 15 40 32 3 19 -1 22 -27 22 -33 0 -34 2 -31 65 2 49 12 61
32 38 99 -115 230 -223 270 -223 27 0 23 40 -9 76 -185 207 -262 339 -292 499
-42 228 -42 231 -27 277 12 33 13 57 6 109 -11 73 -24 115 -38 120 -10 4 -92
171 -92 187 0 15 -44 50 -81 66 -20 8 -44 27 -53 41 -14 22 -24 25 -70 25 -29
0 -56 -3 -59 -7z"/>
</g>
</svg>
