<?xml version="1.0" standalone="no"?>
<!DOCTYPE svg PUBLIC "-//W3C//DTD SVG 20010904//EN"
 "http://www.w3.org/TR/2001/REC-SVG-20010904/DTD/svg10.dtd">
<svg version="1.0" xmlns="http://www.w3.org/2000/svg"
 width="623.000000pt" height="568.000000pt" viewBox="0 0 623.000000 568.000000"
 preserveAspectRatio="xMidYMid meet">
<metadata>
Created by potrace 1.13, written by Peter Selinger 2001-2015
</metadata>
<g transform="translate(0.000000,568.000000) scale(0.100000,-0.100000)"
fill="#000000" stroke="none">
<path d="M1525 5559 c-27 -5 -59 -13 -70 -18 -41 -16 -121 -39 -163 -46 -23
-4 -66 -16 -95 -27 -28 -11 -70 -24 -92 -29 -22 -6 -47 -16 -55 -23 -8 -7 -22
-16 -30 -20 -52 -23 -97 -54 -108 -76 -7 -14 -22 -38 -32 -55 -30 -46 -46 -85
-59 -145 -23 -100 -67 -210 -92 -230 -7 -6 -49 -96 -49 -105 0 -4 -6 -21 -14
-38 -65 -149 -83 -217 -96 -362 -10 -107 -26 -193 -74 -390 -27 -112 -38 -150
-58 -195 -15 -34 -23 -81 -30 -190 -5 -80 -15 -174 -23 -210 -23 -101 -40
-451 -27 -562 5 -51 9 -181 8 -288 -2 -193 -2 -196 -30 -255 -16 -33 -42 -76
-58 -96 -15 -20 -28 -40 -28 -44 0 -4 -18 -29 -40 -55 -22 -26 -40 -53 -40
-59 0 -6 -4 -11 -10 -11 -5 0 -37 -27 -70 -60 -61 -59 -61 -59 -55 -105 6 -39
10 -45 32 -45 29 0 65 17 76 36 4 8 14 14 20 14 7 0 28 14 47 31 19 17 50 44
68 60 18 16 37 29 42 29 5 0 11 9 15 19 3 11 15 23 26 26 10 4 19 12 19 18 0
15 37 39 44 29 3 -5 10 -58 16 -118 6 -60 15 -120 20 -134 5 -14 18 -75 29
-136 17 -88 21 -150 21 -300 -1 -189 -4 -220 -36 -324 -9 -30 -22 -82 -29
-115 -22 -104 -36 -133 -95 -204 -45 -54 -107 -101 -133 -101 -20 0 -47 -33
-47 -57 0 -23 30 -53 53 -53 10 0 17 -8 17 -19 0 -11 18 -34 40 -51 35 -28 45
-31 81 -25 22 4 50 12 62 19 57 30 138 90 160 119 13 18 44 53 68 78 58 62 99
119 99 138 0 9 11 43 24 76 59 152 60 158 63 375 2 201 -7 385 -26 525 -35
251 -14 933 31 1035 11 25 25 56 30 70 6 14 14 33 19 42 5 10 9 22 9 28 0 6 9
29 19 53 17 38 66 188 90 277 13 50 13 12 0 -112 -8 -75 -8 -103 0 -106 6 -2
11 -10 11 -18 0 -8 5 -14 10 -14 6 0 10 -8 10 -19 0 -13 10 -21 34 -25 38 -7
66 0 66 18 0 18 24 66 33 66 4 0 7 11 7 25 0 15 6 25 14 25 17 0 23 14 31 76
7 56 36 144 46 144 4 0 9 9 12 21 3 11 15 23 26 26 12 3 21 9 21 13 0 4 16 10
36 13 42 7 94 29 94 39 0 5 6 8 12 8 19 0 121 43 136 57 17 16 27 16 44 0 7
-7 30 -23 51 -36 20 -12 37 -26 37 -31 0 -13 69 -22 151 -21 l76 1 47 -50 c25
-27 47 -50 47 -52 1 -2 5 -84 9 -183 5 -99 16 -220 25 -270 9 -49 23 -135 31
-190 8 -55 19 -115 25 -134 6 -18 15 -181 20 -365 8 -328 11 -363 43 -504 9
-40 16 -88 16 -106 0 -18 9 -66 19 -107 11 -41 20 -105 21 -144 1 -38 11 -125
23 -193 21 -120 21 -124 3 -170 -10 -26 -24 -69 -31 -95 -8 -27 -29 -65 -49
-87 -48 -53 -48 -90 -3 -124 36 -27 66 -33 83 -16 7 7 21 5 44 -6 29 -15 59
-16 248 -11 197 6 217 9 237 27 12 11 25 20 30 20 5 0 22 12 37 27 23 22 28
35 28 72 0 25 -4 52 -8 58 -4 7 -2 57 5 110 8 56 11 126 7 163 -4 36 -6 89 -5
118 1 31 -2 52 -8 52 -7 0 -11 22 -11 53 1 110 38 -36 47 -188 3 -38 8 -74 13
-80 4 -5 11 -26 15 -45 4 -19 19 -59 32 -89 33 -73 38 -110 19 -155 -33 -78
-12 -136 48 -136 19 0 45 15 81 48 29 26 80 61 112 77 32 17 71 39 88 51 16
11 56 28 87 37 80 25 172 95 189 144 17 51 16 132 -2 165 -7 15 -34 67 -59
115 -24 48 -59 110 -77 137 -27 39 -32 55 -27 81 3 18 1 43 -6 55 -6 12 -13
76 -15 143 -2 67 -11 158 -20 202 -8 44 -15 112 -15 152 0 39 -4 74 -9 77 -4
3 -11 36 -14 73 -5 56 -2 83 20 153 14 47 27 91 29 98 5 17 81 15 151 -4 96
-26 195 -44 248 -44 47 -1 100 -9 251 -40 53 -11 65 -11 94 4 48 23 95 21 117
-7 10 -12 26 -21 36 -19 21 4 21 -3 1 -98 -8 -41 -20 -120 -25 -175 -30 -339
-31 -347 -59 -475 -5 -25 -9 -69 -10 -99 0 -29 -4 -70 -9 -90 -5 -20 -15 -81
-21 -135 -7 -55 -15 -109 -20 -120 -4 -12 -33 -47 -65 -79 -63 -64 -105 -147
-105 -206 0 -43 16 -62 72 -85 20 -9 39 -20 43 -25 24 -40 321 -56 473 -25
118 24 122 30 144 221 42 360 52 385 58 153 3 -129 2 -193 -7 -210 -6 -14 -17
-54 -23 -90 -8 -42 -18 -69 -31 -78 -10 -7 -19 -24 -19 -37 0 -13 -4 -27 -10
-30 -16 -10 -11 -51 9 -69 20 -18 145 -35 258 -36 55 0 213 31 314 63 87 27
130 116 129 267 -1 123 27 372 46 402 3 4 9 47 14 96 4 48 13 107 20 132 6 25
12 73 13 107 1 35 5 63 10 63 4 0 7 15 7 33 -2 63 11 172 20 175 6 2 10 12 10
23 0 28 23 109 31 109 4 0 10 13 14 30 4 16 10 30 14 30 5 0 16 25 26 55 9 30
21 55 25 55 5 0 11 18 15 40 4 22 11 40 16 40 5 0 9 16 9 35 0 22 6 38 15 41
8 4 15 17 15 30 0 15 6 24 15 24 11 0 15 12 15 45 0 25 4 45 9 45 8 0 42 158
72 326 5 29 18 72 29 95 11 24 18 33 14 19 -4 -14 -9 -149 -11 -300 -6 -319 2
-406 53 -600 13 -46 18 -118 21 -252 4 -185 5 -188 29 -207 13 -10 24 -23 24
-28 0 -19 52 -63 75 -63 14 0 35 12 50 27 31 34 33 82 5 155 -12 32 -20 77
-20 115 0 34 -4 64 -8 67 -7 4 -37 107 -77 261 -7 28 -18 73 -25 100 -8 31
-15 147 -18 307 -4 218 -2 275 14 375 32 202 21 801 -21 1118 -13 96 -20 118
-55 179 -22 38 -40 74 -41 80 0 6 -14 34 -30 61 -16 28 -36 65 -45 84 -24 52
-116 172 -162 211 -86 74 -149 117 -192 134 -24 10 -63 31 -84 47 -22 16 -44
29 -49 29 -4 0 -23 11 -40 24 -18 13 -45 26 -61 30 -16 4 -41 16 -54 27 -14
10 -29 19 -33 19 -5 0 -31 16 -58 35 -26 19 -52 35 -56 35 -3 0 -25 15 -48 34
-23 19 -78 49 -122 66 -44 17 -93 37 -110 44 -78 33 -212 54 -395 61 -216 8
-418 24 -510 39 -168 27 -283 45 -360 57 -125 18 -179 27 -228 38 -68 16 -330
51 -378 51 -37 0 -42 4 -62 39 -12 21 -22 52 -22 68 0 60 -7 61 -315 62 -154
1 -298 6 -320 11 -57 14 -428 13 -442 -1 -8 -8 -17 -8 -31 0 -24 13 -96 13
-167 0z m-565 -854 c0 -8 -7 -15 -15 -15 -13 0 -14 3 -3 15 16 18 18 18 18 0z
m-24 -1257 c-4 -13 -9 -35 -12 -50 -4 -16 -10 -28 -15 -28 -5 0 -9 -7 -9 -15
0 -15 -8 -42 -61 -203 -17 -51 -29 -102 -26 -112 3 -12 0 -20 -6 -20 -11 0
-57 -103 -57 -127 0 -6 -5 -13 -10 -15 -6 -2 -12 -23 -13 -48 -1 -25 -7 -51
-14 -58 -7 -7 -15 -28 -19 -47 -3 -19 -11 -35 -16 -35 -6 0 -8 -13 -6 -30 4
-23 1 -30 -13 -30 -19 0 -29 -20 -29 -60 0 -15 -7 -33 -15 -40 -8 -7 -15 -21
-15 -31 0 -10 -9 -23 -19 -28 -10 -6 -23 -28 -28 -48 -5 -24 -17 -42 -31 -48
-12 -5 -22 -14 -22 -20 -1 -5 -14 -26 -30 -45 -18 -20 -30 -46 -30 -62 0 -15
-4 -28 -10 -28 -5 0 -10 -7 -10 -15 0 -8 -7 -15 -15 -15 -8 0 -15 -7 -15 -15
0 -8 -7 -15 -15 -15 -8 0 -15 -4 -15 -9 0 -14 -206 -221 -220 -221 -7 0 1 14
19 30 17 17 31 33 31 36 0 3 11 15 25 28 14 13 25 28 25 34 0 5 7 12 15 16 8
3 15 12 15 20 0 7 6 16 14 19 14 6 75 91 106 148 9 16 21 37 28 46 16 23 32
52 73 133 19 36 36 67 40 70 11 8 39 81 39 100 0 10 3 20 8 22 7 3 25 38 55
108 8 19 24 55 35 80 27 61 71 184 115 325 9 28 30 104 47 169 33 122 42 140
76 149 34 9 36 7 30 -15z m-386 -128 c0 -5 -7 -10 -15 -10 -8 0 -15 5 -15 10
0 6 7 10 15 10 8 0 15 -4 15 -10z m404 -64 c-3 -15 -8 -25 -11 -23 -2 3 -1 17
3 31 3 15 8 25 11 23 2 -3 1 -17 -3 -31z"/>
</g>
</svg>
