<?xml version="1.0" standalone="no"?>
<!DOCTYPE svg PUBLIC "-//W3C//DTD SVG 20010904//EN"
 "http://www.w3.org/TR/2001/REC-SVG-20010904/DTD/svg10.dtd">
<svg version="1.0" xmlns="http://www.w3.org/2000/svg"
 width="720.000000pt" height="531.000000pt" viewBox="0 0 720.000000 531.000000"
 preserveAspectRatio="xMidYMid meet">
<metadata>
Created by potrace 1.13, written by Peter Selinger 2001-2015
</metadata>
<g transform="translate(0.000000,531.000000) scale(0.100000,-0.100000)"
fill="#000000" stroke="none">
<path d="M2944 5050 c-6 -6 -55 -17 -110 -24 -54 -7 -112 -19 -129 -26 -16 -7
-39 -16 -50 -21 -24 -10 -96 -17 -275 -27 -96 -6 -144 -13 -167 -25 -18 -9
-42 -17 -55 -17 -13 0 -43 -9 -67 -20 -24 -11 -52 -20 -62 -20 -36 0 -94 -39
-184 -126 -49 -47 -109 -97 -132 -111 -46 -27 -80 -87 -139 -243 -15 -41 -31
-79 -36 -84 -4 -6 -8 -16 -8 -24 0 -8 -13 -43 -30 -79 -39 -83 -66 -167 -85
-262 -9 -42 -20 -89 -25 -106 -5 -16 -12 -47 -15 -67 -3 -21 -12 -43 -19 -50
-20 -20 -36 -54 -36 -76 0 -11 -7 -25 -15 -32 -8 -7 -20 -30 -27 -51 -6 -22
-15 -39 -20 -39 -4 0 -8 -5 -8 -11 0 -5 -18 -40 -40 -76 -21 -36 -45 -82 -51
-102 -6 -20 -29 -72 -49 -116 -39 -81 -52 -143 -80 -375 -18 -151 -30 -224
-40 -234 -6 -6 -10 -21 -10 -36 0 -14 -7 -34 -15 -44 -8 -11 -15 -27 -15 -36
0 -77 -127 -186 -240 -205 -95 -17 -240 4 -240 34 0 6 -9 13 -20 16 -11 3 -20
15 -20 26 0 10 -7 19 -15 19 -8 0 -15 8 -16 18 0 9 -8 30 -18 47 -14 23 -16
39 -9 73 4 24 7 71 6 105 0 34 3 76 7 92 16 67 40 140 47 145 4 3 13 39 20 80
7 41 16 78 21 81 16 11 12 219 -4 219 -5 0 -9 14 -9 30 0 17 -4 30 -9 30 -6 0
-15 27 -22 60 -6 33 -16 60 -20 60 -5 0 -9 8 -9 19 0 27 -51 117 -80 139 -35
27 -70 34 -186 39 -121 5 -134 -2 -134 -75 0 -108 62 -202 132 -202 22 0 68
-54 68 -80 0 -5 5 -10 10 -10 6 0 8 -11 4 -25 -3 -14 -2 -31 3 -38 5 -6 8 -30
8 -52 -1 -48 -25 -155 -36 -155 -4 0 -12 -22 -19 -50 -7 -27 -16 -50 -20 -50
-4 0 -11 -16 -14 -35 -4 -19 -11 -35 -16 -35 -5 0 -9 -16 -8 -36 1 -20 -4 -39
-11 -43 -7 -4 -14 -34 -16 -67 -14 -195 -16 -247 -7 -276 5 -18 18 -70 27
-115 12 -54 23 -83 32 -83 7 0 13 -9 13 -20 0 -11 5 -20 10 -20 6 0 10 -7 10
-15 0 -8 9 -15 20 -15 11 0 20 -4 20 -10 0 -5 7 -10 15 -10 9 0 18 -12 21 -29
5 -24 13 -30 40 -36 20 -3 34 -12 34 -20 0 -18 31 -20 48 -3 9 9 12 7 12 -9 0
-19 6 -22 41 -21 22 0 46 -5 52 -11 6 -6 26 -11 44 -11 18 0 33 -4 33 -9 0 -8
45 -13 138 -14 29 0 33 -3 27 -21 -3 -12 -9 -40 -12 -63 -5 -41 -5 -43 21 -43
36 0 87 28 171 94 38 30 71 53 73 51 2 -1 -29 -47 -68 -100 -74 -102 -84 -124
-78 -171 4 -37 27 -41 81 -15 45 22 186 155 272 255 28 32 55 64 60 70 6 6 26
31 45 56 19 25 40 50 46 55 6 6 40 51 75 100 36 50 118 163 183 253 64 89 121
162 125 162 5 0 2 -28 -6 -62 -25 -108 -28 -174 -9 -204 21 -30 63 -30 80 1
29 53 118 181 146 209 35 35 325 189 379 201 18 4 62 20 97 37 35 16 73 28 86
26 38 -5 58 -62 65 -185 3 -65 11 -117 19 -130 30 -48 21 -101 -76 -460 -16
-61 -31 -134 -33 -162 -1 -28 -5 -51 -9 -51 -10 0 -19 -101 -22 -260 -3 -112
-8 -159 -24 -205 -15 -45 -22 -100 -27 -225 -8 -197 -23 -263 -66 -285 -16 -9
-29 -19 -29 -23 0 -16 -57 -72 -73 -72 -20 0 -86 -33 -153 -76 -50 -33 -62
-49 -113 -165 -31 -67 -28 -84 23 -119 25 -16 48 -30 52 -30 4 0 25 -12 45
-26 29 -20 56 -27 126 -34 48 -4 101 -13 116 -19 41 -16 214 -13 262 4 22 8
48 15 58 15 25 0 92 36 129 68 83 73 107 104 106 136 -1 30 22 108 43 149 16
29 47 120 54 157 4 19 12 44 18 55 18 31 37 88 37 110 0 11 7 29 15 39 8 11
15 29 15 41 0 11 6 29 14 40 7 11 16 38 20 60 4 22 11 45 16 50 4 6 25 53 46
105 20 52 41 99 45 105 5 5 9 19 9 31 0 13 4 25 9 28 5 3 11 20 14 38 6 43 46
221 50 224 1 2 33 -4 70 -12 l67 -16 36 -76 c20 -43 51 -108 69 -147 37 -79
42 -95 55 -162 5 -26 13 -66 19 -88 6 -22 11 -69 12 -105 1 -36 5 -72 9 -80 9
-18 42 -261 42 -305 -1 -16 12 -50 27 -76 53 -85 49 -201 -6 -215 -13 -4 -23
-12 -23 -20 0 -8 -9 -14 -19 -14 -17 0 -84 -59 -118 -102 -6 -8 -19 -43 -28
-76 -16 -58 -16 -64 -1 -97 9 -19 21 -35 26 -35 5 0 11 -9 15 -19 3 -11 26
-29 50 -41 25 -12 45 -28 45 -36 0 -8 9 -14 20 -14 11 0 20 4 20 10 0 6 10 6
27 -1 16 -6 64 -12 108 -15 44 -2 96 -7 116 -10 44 -7 144 12 163 32 8 8 27
14 43 14 16 0 33 4 39 8 5 5 42 19 82 31 65 21 75 27 91 61 10 21 19 62 19 92
1 29 4 76 8 103 3 28 1 86 -5 130 -6 44 -11 114 -12 155 -3 181 13 800 21 855
5 33 16 103 25 156 8 52 15 114 15 137 0 39 2 42 28 43 15 0 61 2 102 4 l76 4
13 -97 c12 -95 19 -143 46 -312 7 -47 14 -159 14 -250 1 -151 -1 -175 -28
-285 -16 -66 -36 -138 -45 -160 -22 -59 -19 -86 14 -132 38 -52 58 -56 275
-50 167 4 225 13 313 48 87 36 93 49 86 203 -3 72 -10 154 -14 181 -16 84 -13
283 4 391 15 100 84 284 103 275 4 -1 34 -40 66 -84 32 -45 77 -102 101 -127
24 -25 58 -75 75 -110 18 -36 41 -79 51 -95 13 -22 21 -59 25 -127 5 -65 13
-109 26 -135 27 -54 24 -77 -18 -120 -92 -92 -170 -210 -180 -267 -5 -32 -2
-41 21 -62 14 -14 26 -31 26 -38 0 -19 31 -44 71 -57 19 -7 44 -21 57 -33 20
-18 39 -22 130 -25 207 -8 228 -5 301 32 36 19 77 37 89 41 25 8 120 64 137
81 29 28 53 74 58 110 25 193 29 263 18 340 -12 87 -28 142 -48 163 -7 7 -13
23 -13 36 0 12 -9 47 -20 79 -11 31 -20 70 -20 86 0 31 -46 199 -59 216 -21
27 -48 219 -32 229 13 8 93 258 116 361 10 44 21 89 26 100 4 11 12 56 18 99
6 44 15 84 20 90 5 6 14 53 20 104 6 51 16 101 21 110 30 57 46 152 59 345 1
4 5 7 9 7 15 0 34 -102 42 -235 22 -326 58 -588 107 -790 23 -97 37 -139 83
-255 12 -30 26 -71 32 -90 13 -45 69 -100 101 -100 26 0 67 44 67 72 0 8 -18
66 -39 128 -44 130 -61 191 -91 335 -11 55 -25 114 -30 130 -10 32 -22 104
-40 240 -34 258 -53 423 -60 520 -15 207 -52 350 -134 521 -30 61 -57 121 -60
132 -6 18 -58 116 -118 222 -33 58 -67 124 -118 229 -40 83 -59 110 -123 182
-18 19 -44 51 -58 70 -17 23 -59 52 -120 83 -52 27 -101 55 -110 62 -8 8 -21
14 -27 14 -6 0 -23 11 -39 24 -15 13 -44 28 -63 34 -19 6 -57 18 -85 27 -27 9
-68 20 -90 24 -22 4 -65 19 -95 33 -51 24 -141 48 -234 63 -22 4 -60 17 -85
30 -42 22 -102 45 -188 74 -18 6 -48 16 -65 22 -18 6 -78 20 -133 31 -55 11
-122 26 -150 33 -61 17 -179 31 -385 47 -193 14 -223 14 -335 -1 -154 -20
-435 -41 -561 -41 -97 0 -124 3 -134 15 -7 8 -20 14 -28 13 -11 -2 -21 17 -37
67 -17 54 -29 74 -51 87 -32 20 -114 24 -130 8z m-2174 -3170 c0 -5 -5 -10
-11 -10 -5 0 -7 5 -4 10 3 6 8 10 11 10 2 0 4 -4 4 -10z"/>
</g>
</svg>
