<?xml version="1.0" standalone="no"?>
<!DOCTYPE svg PUBLIC "-//W3C//DTD SVG 20010904//EN"
 "http://www.w3.org/TR/2001/REC-SVG-20010904/DTD/svg10.dtd">
<svg version="1.0" xmlns="http://www.w3.org/2000/svg"
 width="720.000000pt" height="531.000000pt" viewBox="0 0 720.000000 531.000000"
 preserveAspectRatio="xMidYMid meet">
<metadata>
Created by potrace 1.13, written by Peter Selinger 2001-2015
</metadata>
<g transform="translate(0.000000,531.000000) scale(0.100000,-0.100000)"
fill="#000000" stroke="none">
<path d="M4115 5288 c-44 -5 -114 -16 -155 -24 -41 -9 -93 -19 -115 -24 -55
-11 -135 -40 -230 -84 -44 -21 -107 -50 -140 -65 -33 -16 -110 -64 -170 -107
-150 -108 -150 -107 -240 -137 -148 -48 -353 -42 -560 17 -55 16 -142 30 -226
37 -130 11 -137 11 -183 -10 -27 -11 -57 -21 -68 -21 -35 0 -93 -39 -183 -126
-49 -47 -109 -97 -132 -111 -46 -27 -80 -87 -139 -243 -15 -41 -31 -79 -36
-85 -4 -5 -8 -15 -8 -23 0 -8 -13 -43 -30 -79 -39 -83 -66 -167 -85 -262 -9
-42 -20 -89 -25 -106 -5 -16 -12 -47 -15 -67 -3 -21 -12 -43 -19 -50 -20 -20
-36 -54 -36 -76 0 -11 -7 -25 -15 -32 -8 -7 -20 -30 -27 -51 -6 -22 -15 -39
-20 -39 -4 0 -8 -5 -8 -11 0 -5 -18 -40 -40 -76 -21 -36 -45 -82 -51 -102 -6
-20 -29 -72 -49 -116 -39 -81 -52 -143 -80 -375 -18 -151 -30 -224 -40 -234
-6 -6 -10 -21 -10 -35 0 -15 -7 -35 -15 -45 -8 -11 -15 -27 -15 -36 0 -77
-127 -186 -240 -205 -95 -17 -240 4 -240 34 0 6 -9 13 -20 16 -11 3 -20 15
-20 26 0 10 -7 19 -15 19 -8 0 -15 8 -16 18 0 9 -8 30 -18 47 -14 23 -16 39
-9 73 4 24 7 71 6 105 0 34 3 76 7 92 16 67 40 140 47 145 4 3 13 39 20 80 7
41 16 78 21 81 16 11 12 219 -4 219 -5 0 -9 14 -9 30 0 17 -4 30 -9 30 -6 0
-15 27 -22 60 -6 33 -16 60 -20 60 -5 0 -9 7 -9 16 0 21 -41 116 -57 132 -8 8
-13 39 -13 78 0 48 -4 66 -15 70 -23 9 -61 -4 -85 -29 -21 -22 -29 -23 -95
-19 -87 5 -111 -5 -125 -56 -19 -70 -11 -131 29 -213 15 -30 60 -59 93 -59 22
0 68 -54 68 -80 0 -5 5 -10 10 -10 6 0 8 -11 4 -25 -3 -14 -2 -31 3 -38 5 -6
8 -30 8 -52 -1 -48 -25 -155 -36 -155 -4 0 -12 -22 -19 -50 -7 -27 -16 -50
-20 -50 -4 0 -11 -16 -14 -35 -4 -19 -11 -35 -16 -35 -5 0 -9 -16 -8 -36 1
-20 -4 -39 -11 -43 -7 -4 -14 -34 -16 -67 -14 -195 -16 -247 -7 -276 5 -18 18
-70 27 -115 12 -54 23 -83 32 -83 7 0 13 -9 13 -20 0 -11 5 -20 10 -20 6 0 10
-7 10 -15 0 -8 9 -15 20 -15 11 0 20 -4 20 -10 0 -5 7 -10 15 -10 9 0 18 -12
21 -29 5 -24 13 -30 40 -36 20 -3 34 -12 34 -20 0 -18 31 -20 48 -3 9 9 12 7
12 -9 0 -19 6 -22 41 -21 22 0 46 -5 52 -11 6 -6 26 -11 44 -11 18 0 33 -4 33
-9 0 -8 44 -13 138 -14 17 0 32 -4 32 -8 0 -9 121 -1 180 12 53 12 134 76 204
162 71 87 166 224 166 239 0 7 23 45 51 83 45 61 229 417 229 443 0 8 72 32
95 32 6 0 -104 -220 -116 -230 -12 -11 -69 -102 -69 -110 0 -4 -4 -10 -9 -12
-5 -1 -12 -15 -16 -29 -6 -24 -3 -27 31 -32 28 -5 46 -1 70 13 17 11 45 20 62
20 25 0 37 9 67 50 20 28 40 50 44 50 5 0 4 -23 -1 -51 -6 -31 -6 -55 0 -61 5
-5 27 -6 50 -2 33 5 51 17 86 55 25 27 48 49 53 49 17 1 51 47 66 90 13 40 18
45 41 42 19 -3 26 1 26 14 0 14 3 15 12 6 7 -7 18 -12 26 -12 16 0 42 24 42
39 0 12 7 13 95 16 92 2 122 12 134 43 9 25 9 25 10 5 1 -16 7 -23 21 -23 11
0 20 6 20 14 0 9 14 15 41 18 36 3 44 0 64 -27 37 -47 46 -82 52 -195 3 -63
11 -114 19 -127 30 -48 21 -101 -76 -460 -16 -61 -31 -134 -33 -162 -1 -28 -5
-51 -9 -51 -10 0 -19 -101 -22 -260 -3 -112 -8 -159 -24 -205 -15 -45 -22
-100 -27 -225 -8 -197 -23 -263 -66 -285 -16 -9 -29 -19 -29 -23 0 -16 -57
-72 -73 -72 -20 0 -86 -33 -153 -76 -50 -33 -62 -49 -113 -165 -31 -67 -28
-84 23 -119 25 -16 48 -30 52 -30 4 0 25 -12 45 -26 29 -20 56 -27 126 -34 48
-4 101 -13 116 -19 41 -16 214 -13 262 4 22 8 48 15 58 15 25 0 92 36 129 68
83 73 107 104 106 136 -1 30 22 108 43 149 16 29 47 120 54 157 4 19 12 44 18
55 18 31 37 88 37 110 0 11 7 29 15 39 8 11 15 29 15 41 0 11 6 29 14 40 7 11
16 38 20 60 4 22 11 45 16 50 4 6 25 53 46 105 20 52 41 99 45 105 5 5 9 19 9
31 0 13 4 25 9 28 5 3 11 20 14 38 6 43 46 221 50 224 1 2 33 -4 70 -12 l67
-16 36 -76 c20 -43 51 -108 69 -147 37 -79 42 -95 55 -162 5 -26 13 -66 19
-88 6 -22 11 -69 12 -105 1 -36 5 -72 9 -80 9 -18 42 -261 42 -305 -1 -16 12
-50 27 -76 53 -85 49 -201 -6 -215 -13 -4 -23 -12 -23 -20 0 -8 -9 -14 -19
-14 -17 0 -84 -59 -118 -102 -6 -8 -19 -43 -28 -76 -16 -58 -16 -64 -1 -97 9
-19 21 -35 26 -35 5 0 11 -9 15 -19 3 -11 26 -29 50 -41 25 -12 45 -28 45 -36
0 -8 9 -14 20 -14 11 0 20 4 20 10 0 6 10 6 27 -1 16 -6 64 -12 108 -15 44 -2
96 -7 116 -10 44 -7 144 12 163 32 8 8 27 14 43 14 16 0 33 4 39 8 5 5 42 19
82 31 65 21 75 27 91 61 10 21 19 62 19 92 1 29 4 76 8 103 3 28 1 86 -5 130
-6 44 -11 114 -12 155 -3 181 13 800 21 855 5 33 16 103 25 156 8 52 15 114
15 137 0 39 2 42 28 43 15 0 61 2 102 4 l76 4 13 -97 c15 -117 27 -198 48
-315 11 -66 12 -95 4 -119 -6 -17 -11 -40 -11 -52 0 -12 -11 -48 -24 -81 -13
-33 -33 -82 -43 -108 -18 -48 -61 -107 -79 -107 -19 0 -123 -107 -144 -147
-18 -35 -21 -52 -15 -93 4 -27 10 -50 14 -50 4 0 22 -13 40 -29 20 -18 50 -32
75 -36 22 -4 55 -15 71 -26 25 -15 52 -18 150 -18 258 -1 379 27 452 101 35
37 43 53 53 108 30 171 42 225 51 231 6 4 10 57 9 140 -3 181 18 310 68 423
22 48 43 87 47 87 4 1 34 -37 66 -82 33 -46 79 -104 103 -129 24 -25 58 -75
75 -110 18 -36 41 -79 51 -95 13 -22 21 -59 25 -127 5 -65 13 -109 26 -135 27
-54 24 -77 -18 -120 -92 -92 -170 -210 -180 -267 -5 -32 -2 -41 21 -62 14 -14
26 -31 26 -38 0 -19 31 -44 71 -57 19 -7 44 -21 57 -33 20 -18 39 -22 130 -25
207 -8 228 -5 301 32 36 19 77 37 89 41 25 8 120 64 137 81 29 28 53 74 58
110 25 193 29 263 18 340 -12 87 -28 142 -48 163 -7 7 -13 23 -13 36 0 12 -9
47 -20 79 -11 31 -20 70 -20 86 0 31 -46 199 -59 216 -21 27 -48 219 -32 229
13 8 93 258 116 361 10 44 21 89 26 100 4 11 12 56 18 99 6 44 15 84 20 90 15
20 41 297 47 509 7 225 7 226 51 102 37 -105 44 -137 53 -275 17 -252 38 -423
60 -485 12 -33 24 -70 27 -83 3 -13 12 -26 19 -29 8 -3 14 -12 14 -19 0 -8 11
-20 25 -26 13 -6 27 -19 30 -30 4 -10 12 -18 19 -18 8 0 28 -3 45 -6 l31 -6 0
57 c0 41 -6 67 -21 91 -11 19 -24 34 -28 34 -13 0 -41 58 -41 84 0 14 -4 26
-9 26 -17 0 -21 52 -10 138 9 72 8 109 -6 217 -9 72 -21 180 -25 240 -15 207
-52 351 -134 521 -30 61 -57 121 -60 132 -6 18 -58 116 -118 222 -34 60 -66
123 -131 255 -72 147 -120 234 -183 330 -60 92 -89 126 -132 158 -97 71 -232
179 -240 192 -9 17 -201 145 -217 145 -5 0 -27 18 -50 39 -22 21 -71 55 -110
76 -38 20 -77 42 -85 49 -8 6 -33 18 -55 25 -22 7 -80 32 -130 55 -49 24 -117
53 -150 66 -33 13 -81 31 -107 41 -26 11 -68 19 -95 19 -26 0 -93 7 -148 15
-109 16 -314 17 -440 3z"/>
</g>
</svg>
