<?xml version="1.0" standalone="no"?>
<!DOCTYPE svg PUBLIC "-//W3C//DTD SVG 20010904//EN"
 "http://www.w3.org/TR/2001/REC-SVG-20010904/DTD/svg10.dtd">
<svg version="1.0" xmlns="http://www.w3.org/2000/svg"
 width="720.000000pt" height="531.000000pt" viewBox="0 0 720.000000 531.000000"
 preserveAspectRatio="xMidYMid meet">
<metadata>
Created by potrace 1.13, written by Peter Selinger 2001-2015
</metadata>
<g transform="translate(0.000000,531.000000) scale(0.100000,-0.100000)"
fill="#000000" stroke="none">
<path d="M2640 5285 c-47 -7 -109 -14 -138 -14 -29 -1 -74 -9 -100 -20 -26
-10 -74 -28 -107 -41 -33 -13 -100 -42 -150 -66 -49 -23 -108 -48 -130 -55
-22 -7 -47 -19 -55 -25 -8 -7 -46 -29 -85 -49 -38 -21 -88 -55 -110 -76 -23
-21 -45 -39 -50 -39 -16 0 -208 -128 -217 -145 -8 -13 -143 -121 -240 -192
-79 -58 -186 -224 -315 -488 -65 -132 -97 -195 -131 -255 -60 -106 -112 -204
-118 -222 -3 -11 -30 -71 -60 -132 -82 -170 -119 -314 -134 -521 -4 -60 -16
-168 -25 -240 -14 -108 -15 -145 -6 -217 11 -86 7 -138 -10 -138 -5 0 -9 -12
-9 -28 0 -29 -14 -54 -56 -99 -13 -14 -24 -29 -24 -34 0 -4 -10 -11 -22 -15
-13 -4 -25 -10 -28 -14 -3 -4 -45 -34 -95 -67 -145 -97 -176 -141 -201 -289
-21 -119 -15 -174 19 -173 12 0 32 12 44 27 13 15 36 42 53 61 16 19 30 40 30
48 0 7 7 16 15 19 8 4 15 14 15 23 0 9 9 23 20 31 11 8 20 25 20 37 0 16 6 23
20 23 11 0 20 5 20 10 0 6 7 10 15 10 9 0 19 8 23 19 10 25 82 105 109 119 12
7 24 20 28 30 3 11 17 24 30 30 14 6 25 18 25 26 0 7 6 16 14 19 7 3 16 16 19
29 3 13 15 50 27 83 22 62 43 233 60 485 9 138 16 170 53 275 44 124 44 123
51 -102 6 -212 32 -489 47 -509 5 -6 14 -46 20 -90 6 -43 14 -88 18 -99 5 -11
16 -56 26 -100 23 -103 103 -353 116 -361 16 -10 -11 -202 -32 -229 -13 -17
-59 -185 -59 -216 0 -16 -9 -55 -20 -86 -11 -32 -20 -67 -20 -79 0 -13 -6 -29
-12 -36 -21 -21 -37 -76 -49 -163 -11 -77 -7 -147 18 -340 5 -36 29 -82 58
-110 17 -17 112 -73 137 -81 12 -4 53 -22 89 -41 73 -37 94 -40 301 -32 91 3
110 7 130 25 13 12 38 26 57 33 40 13 71 38 71 57 0 7 12 24 26 38 23 21 26
30 21 62 -10 57 -88 175 -179 267 -43 43 -46 66 -19 120 13 26 21 70 26 135 4
68 12 105 25 127 10 16 33 59 51 95 17 35 51 85 75 110 24 25 71 84 104 130
33 47 63 85 66 85 3 0 23 -40 45 -89 51 -115 72 -242 69 -425 -1 -83 3 -136 9
-140 9 -6 21 -60 51 -231 10 -55 18 -71 53 -108 73 -74 194 -102 452 -101 98
0 125 3 150 18 16 11 49 22 71 26 25 4 55 18 75 36 18 16 36 29 40 29 4 0 10
23 14 50 6 41 3 58 -15 93 -21 40 -125 147 -144 147 -18 0 -61 59 -79 107 -10
26 -30 75 -43 108 -13 33 -24 69 -24 81 0 12 -5 35 -11 52 -8 24 -7 53 4 119
21 117 33 198 48 315 l13 97 76 -4 c41 -2 87 -4 103 -4 25 -1 27 -4 27 -43 0
-23 7 -85 15 -137 9 -53 20 -123 25 -156 8 -55 24 -674 21 -855 -1 -41 -6
-111 -12 -155 -6 -44 -8 -102 -5 -130 4 -27 7 -74 8 -103 0 -30 9 -71 19 -92
16 -34 26 -40 91 -61 40 -12 77 -26 82 -31 6 -4 23 -8 39 -8 16 0 35 -6 43
-14 19 -20 119 -39 163 -32 20 3 72 8 116 10 44 3 92 9 108 15 17 7 27 7 27 1
0 -6 9 -10 20 -10 11 0 20 6 20 14 0 8 20 24 45 36 24 12 47 30 50 41 4 10 10
19 15 19 5 0 17 16 26 35 15 33 15 39 -1 97 -9 33 -22 68 -28 76 -34 43 -101
102 -118 102 -10 0 -19 6 -19 14 0 8 -10 16 -22 20 -56 14 -60 130 -7 215 15
26 28 60 27 76 0 44 33 287 42 305 4 8 8 44 9 80 1 36 6 83 12 105 6 22 14 62
19 88 13 67 18 83 55 162 18 39 49 104 69 147 l36 76 67 16 c37 8 69 14 70 12
4 -3 44 -181 50 -224 3 -18 9 -35 14 -38 5 -3 9 -15 9 -28 0 -12 4 -26 9 -31
4 -6 25 -53 45 -105 21 -52 42 -99 46 -105 5 -5 12 -28 16 -50 4 -22 13 -49
20 -60 8 -11 14 -29 14 -40 0 -12 7 -30 15 -41 8 -10 15 -28 15 -39 0 -22 19
-79 37 -110 6 -11 14 -36 18 -55 7 -37 38 -128 54 -157 21 -41 44 -119 43
-149 -1 -32 23 -63 106 -136 37 -32 104 -68 129 -68 10 0 36 -7 58 -15 48 -17
221 -20 262 -4 15 6 68 15 116 19 70 7 97 14 126 34 20 14 41 26 45 26 4 0 27
14 52 30 51 35 54 52 23 119 -51 116 -63 132 -113 165 -67 43 -133 76 -153 76
-16 0 -73 56 -73 72 0 4 -13 14 -29 23 -43 22 -58 88 -66 285 -5 125 -12 180
-27 225 -16 46 -21 93 -24 205 -3 159 -12 260 -22 260 -4 0 -8 23 -9 51 -2 28
-17 101 -33 162 -97 359 -106 412 -76 460 8 13 16 64 19 127 6 113 15 148 52
195 20 27 28 30 64 27 27 -3 41 -9 41 -18 0 -8 9 -14 20 -14 14 0 20 7 21 23
1 20 1 20 10 -5 12 -31 42 -41 134 -43 88 -3 95 -4 95 -16 0 -15 26 -39 42
-39 8 0 19 5 26 12 9 9 12 8 12 -6 0 -13 7 -17 26 -14 23 3 28 -2 41 -42 15
-43 49 -89 66 -90 5 0 28 -22 53 -49 35 -38 53 -50 86 -55 23 -4 45 -3 50 2 6
6 6 30 0 61 -5 28 -6 51 -1 51 4 0 61 -73 125 -162 65 -90 147 -203 183 -253
35 -49 69 -94 75 -100 6 -5 27 -30 46 -55 19 -25 39 -50 45 -56 5 -6 33 -38
60 -70 86 -100 227 -233 272 -255 54 -26 77 -22 81 15 6 47 -4 69 -78 171 -39
53 -70 99 -68 100 2 2 35 -21 73 -51 84 -66 135 -94 171 -94 26 0 26 2 21 42
-3 24 -9 52 -12 64 -6 18 -2 21 27 21 93 1 138 6 138 14 0 5 15 9 33 9 18 0
38 5 44 11 6 6 30 11 52 11 35 -1 41 2 41 21 0 16 3 18 12 9 17 -17 48 -15 48
3 0 8 14 17 34 20 27 6 35 12 40 36 3 17 12 29 21 29 8 0 15 5 15 10 0 6 9 10
20 10 11 0 20 7 20 15 0 8 5 15 10 15 6 0 10 9 10 20 0 11 6 20 13 20 9 0 20
29 32 83 9 45 22 97 27 115 9 29 7 81 -7 276 -2 33 -9 63 -16 67 -7 4 -12 23
-11 43 1 20 -3 36 -8 36 -5 0 -12 16 -16 35 -3 19 -10 35 -14 35 -4 0 -13 23
-20 50 -7 28 -15 50 -19 50 -11 0 -35 107 -36 155 0 22 3 46 8 52 5 7 6 24 3
38 -4 14 -2 25 4 25 5 0 10 5 10 10 0 26 46 80 68 80 91 0 156 147 122 272
-14 51 -38 61 -125 56 -66 -4 -74 -3 -95 19 -24 25 -62 38 -85 29 -11 -4 -15
-22 -15 -70 0 -39 -5 -70 -13 -78 -16 -16 -57 -111 -57 -132 0 -9 -4 -16 -9
-16 -4 0 -14 -27 -20 -60 -7 -33 -16 -60 -22 -60 -5 0 -9 -13 -9 -30 0 -16 -4
-30 -9 -30 -16 0 -20 -208 -4 -219 5 -3 14 -40 21 -81 7 -41 16 -77 20 -80 7
-5 31 -78 47 -145 4 -16 7 -58 7 -92 -1 -34 2 -81 6 -105 7 -34 5 -50 -9 -73
-10 -17 -18 -38 -18 -47 -1 -10 -8 -18 -16 -18 -8 0 -15 -9 -15 -19 0 -11 -9
-23 -20 -26 -11 -3 -20 -10 -20 -16 0 -30 -145 -51 -240 -34 -113 19 -240 128
-240 205 0 9 -7 25 -15 36 -8 10 -15 30 -15 45 0 14 -4 29 -10 35 -10 10 -22
83 -40 234 -28 232 -41 294 -80 375 -20 44 -43 96 -49 116 -6 20 -30 66 -51
102 -22 36 -40 71 -40 76 0 6 -4 11 -8 11 -5 0 -14 17 -20 39 -7 21 -19 44
-27 51 -8 7 -15 21 -15 32 0 22 -16 56 -36 76 -7 7 -16 29 -19 50 -3 20 -10
51 -15 67 -5 17 -16 64 -25 106 -19 95 -46 179 -85 262 -17 36 -30 71 -30 79
0 8 -4 18 -8 23 -5 6 -21 44 -36 85 -59 156 -93 216 -139 243 -23 14 -82 64
-132 111 -90 87 -148 126 -183 126 -11 0 -41 10 -68 21 -46 21 -53 21 -183 10
-84 -7 -171 -21 -226 -37 -207 -59 -412 -65 -560 -17 -90 30 -90 29 -240 137
-60 43 -137 91 -170 107 -33 15 -96 44 -140 65 -96 44 -176 73 -230 84 -22 5
-71 15 -110 23 -177 37 -442 47 -605 22z m2966 -2396 c24 -6 44 -16 44 -21 0
-6 42 -97 94 -202 91 -184 270 -489 301 -512 8 -6 15 -19 15 -28 0 -9 8 -16
20 -16 13 0 20 -7 20 -20 0 -11 6 -20 14 -20 9 0 12 -8 8 -26 -4 -25 -3 -26
22 -22 14 3 26 1 26 -3 0 -5 -4 -9 -10 -9 -5 0 -10 -9 -10 -20 0 -13 7 -20 19
-20 12 0 21 -9 25 -26 4 -15 5 -28 3 -30 -8 -8 -77 71 -77 88 0 9 -10 28 -22
41 -64 69 -78 88 -78 106 0 10 -20 46 -45 80 -25 34 -45 67 -45 74 0 7 -10 23
-22 37 -13 14 -43 52 -68 85 -25 33 -50 66 -57 73 -6 6 -15 21 -18 32 -3 11
-11 20 -16 20 -5 0 -9 4 -9 9 0 9 -57 99 -69 111 -12 10 -122 230 -116 230 3
0 26 -5 51 -11z m839 -1009 c3 -5 1 -10 -4 -10 -6 0 -11 5 -11 10 0 6 2 10 4
10 3 0 8 -4 11 -10z m-197 -45 c-3 -3 -9 2 -12 12 -6 14 -5 15 5 6 7 -7 10
-15 7 -18z"/>
</g>
</svg>
