<?xml version="1.0" standalone="no"?>
<!DOCTYPE svg PUBLIC "-//W3C//DTD SVG 20010904//EN"
 "http://www.w3.org/TR/2001/REC-SVG-20010904/DTD/svg10.dtd">
<svg version="1.0" xmlns="http://www.w3.org/2000/svg"
 width="298.000000pt" height="289.000000pt" viewBox="0 0 298.000000 289.000000"
 preserveAspectRatio="xMidYMid meet">
<metadata>
Created by potrace 1.13, written by Peter Selinger 2001-2015
</metadata>
<g transform="translate(0.000000,289.000000) scale(0.100000,-0.100000)"
fill="#000000" stroke="none">
<path d="M1027 2783 c-14 -14 -39 -18 -125 -21 -170 -5 -223 -35 -302 -169
-28 -47 -50 -87 -50 -89 0 -3 -24 -34 -54 -70 -43 -52 -60 -84 -81 -150 -17
-53 -25 -97 -22 -117 8 -51 -38 -395 -67 -502 -18 -63 -93 -222 -132 -281 -13
-19 -24 -38 -24 -42 0 -4 -10 -12 -22 -17 -16 -7 -24 -20 -26 -42 -2 -17 -10
-37 -18 -43 -8 -7 -14 -18 -14 -26 0 -7 -6 -17 -12 -21 -35 -22 -52 -103 -22
-103 25 0 55 20 106 71 53 53 148 175 148 190 0 5 9 18 19 28 20 20 20 20 26
-27 13 -101 11 -112 -25 -112 -25 0 -30 -4 -30 -25 0 -15 7 -28 18 -32 33 -13
40 -30 44 -104 3 -41 10 -119 16 -174 6 -55 16 -153 21 -219 8 -94 14 -121 28
-132 20 -15 69 -10 93 11 8 6 24 15 34 19 17 6 18 14 13 103 -4 52 -12 102
-18 109 -15 19 -6 281 13 349 11 44 18 53 54 70 77 37 132 112 169 228 10 31
21 57 25 57 4 0 10 -73 14 -162 7 -156 25 -280 62 -408 9 -30 19 -71 23 -90 4
-19 12 -44 18 -55 17 -32 27 -121 27 -240 1 -107 2 -111 34 -158 17 -26 32
-53 32 -59 0 -13 109 -5 118 9 4 5 18 13 32 16 29 7 61 30 102 71 29 29 39 88
18 101 -5 3 -10 32 -10 63 0 32 -7 83 -15 114 -8 31 -14 94 -14 140 0 46 -1
106 -3 133 -3 44 -1 50 17 50 14 0 21 -10 27 -39 5 -22 13 -45 18 -51 20 -24
40 -112 40 -178 0 -54 -4 -74 -21 -95 -18 -23 -19 -34 -13 -92 8 -75 25 -116
54 -125 11 -3 20 -11 20 -16 0 -14 97 -11 103 4 4 9 6 9 6 0 2 -21 41 -15 62
10 10 12 18 37 19 55 0 18 9 66 20 108 17 63 20 100 18 227 -2 114 1 161 12
189 l14 38 121 0 c115 0 121 -1 143 -25 23 -24 24 -31 23 -157 -2 -146 -15
-246 -36 -262 -22 -18 -52 -80 -59 -122 -5 -29 -2 -45 12 -62 20 -25 40 -28
182 -24 82 2 86 3 99 30 9 17 17 81 22 172 8 147 20 251 36 304 l9 30 20 -21
c10 -12 24 -28 29 -35 21 -25 45 -98 65 -195 11 -54 24 -115 29 -135 6 -27 5
-42 -5 -55 -19 -26 -17 -84 5 -111 25 -29 100 -32 118 -3 6 10 24 21 40 24 17
4 39 21 56 47 26 37 29 48 29 133 1 74 -3 101 -20 138 -56 120 -95 356 -96
579 0 106 3 136 23 195 14 39 28 74 33 80 4 5 8 34 9 65 1 59 15 169 18 134 0
-12 8 -41 17 -65 20 -57 41 -165 59 -314 17 -134 27 -172 56 -209 15 -19 21
-48 27 -118 l7 -93 29 2 c16 1 33 8 38 15 6 10 8 10 8 1 0 -19 27 -16 34 3 14
38 6 83 -18 99 -13 9 -27 28 -31 42 -3 15 -19 43 -34 62 -43 56 -53 97 -74
301 -6 53 -36 187 -58 260 -40 130 -52 165 -60 175 -4 6 -11 31 -15 55 -8 61
-33 131 -56 156 -10 11 -18 24 -18 28 0 4 -10 22 -22 39 -27 38 -44 65 -57 93
-5 11 -20 33 -33 48 -41 48 -224 230 -258 256 -18 14 -39 31 -46 38 -7 7 -28
18 -46 24 -18 6 -36 16 -40 22 -10 15 -197 14 -206 -1 -4 -6 -35 -17 -70 -24
-34 -7 -62 -17 -62 -21 0 -4 -14 -8 -31 -8 -32 0 -69 30 -69 55 0 17 -66 61
-119 80 -32 11 -85 15 -200 15 -135 0 -159 -2 -174 -17z"/>
</g>
</svg>
