<?xml version="1.0" standalone="no"?>
<!DOCTYPE svg PUBLIC "-//W3C//DTD SVG 20010904//EN"
 "http://www.w3.org/TR/2001/REC-SVG-20010904/DTD/svg10.dtd">
<svg version="1.0" xmlns="http://www.w3.org/2000/svg"
 width="204.000000pt" height="331.000000pt" viewBox="0 0 204.000000 331.000000"
 preserveAspectRatio="xMidYMid meet">
<metadata>
Created by potrace 1.13, written by Peter Selinger 2001-2015
</metadata>
<g transform="translate(0.000000,331.000000) scale(0.100000,-0.100000)"
fill="#000000" stroke="none">
<path d="M895 3171 c-67 -12 -270 -106 -357 -165 -34 -23 -184 -195 -223 -256
-33 -51 -72 -128 -92 -180 -24 -65 -10 -342 28 -534 10 -54 19 -102 19 -106 0
-5 -12 -10 -27 -12 -41 -4 -89 -81 -99 -156 -11 -92 7 -174 58 -251 24 -36 50
-82 58 -101 29 -73 60 -107 127 -141 41 -20 50 -30 89 -109 9 -19 24 -43 33
-54 13 -14 17 -50 19 -177 3 -121 7 -161 18 -170 8 -6 14 -20 14 -30 0 -10 16
-35 36 -56 89 -95 183 -215 189 -242 3 -16 15 -37 26 -47 10 -9 19 -21 19 -25
0 -31 146 -199 173 -199 7 0 25 -7 40 -15 27 -14 32 -12 105 26 42 23 86 49
97 59 11 10 65 47 120 84 148 97 155 104 187 176 16 36 32 72 37 80 4 8 14 47
20 85 7 39 17 89 22 112 5 23 9 61 9 84 0 30 7 50 28 74 69 84 102 172 102
273 0 65 22 115 66 148 26 20 34 34 39 76 4 28 14 67 22 86 16 38 63 113 77
123 12 9 1 198 -13 229 -22 47 -40 75 -57 87 -20 15 -17 82 16 288 18 117 21
168 17 310 -6 212 -14 239 -103 330 -70 71 -140 110 -248 135 -51 12 -66 12
-118 -2 l-59 -15 -15 28 c-8 16 -40 46 -72 67 -32 21 -71 48 -87 59 -26 19
-48 23 -165 27 -74 3 -153 1 -175 -3z"/>
</g>
</svg>
