<?xml version="1.0" standalone="no"?>
<!DOCTYPE svg PUBLIC "-//W3C//DTD SVG 20010904//EN"
 "http://www.w3.org/TR/2001/REC-SVG-20010904/DTD/svg10.dtd">
<svg version="1.0" xmlns="http://www.w3.org/2000/svg"
 width="269.000000pt" height="337.000000pt" viewBox="0 0 269.000000 337.000000"
 preserveAspectRatio="xMidYMid meet">
<metadata>
Created by potrace 1.13, written by Peter Selinger 2001-2015
</metadata>
<g transform="translate(0.000000,337.000000) scale(0.100000,-0.100000)"
fill="#000000" stroke="none">
<path d="M1167 3170 c-75 -19 -124 -55 -247 -179 -196 -198 -230 -254 -260
-419 -11 -59 -31 -140 -45 -180 -20 -60 -25 -93 -25 -178 0 -74 -6 -126 -20
-176 -11 -40 -20 -99 -20 -130 0 -51 -2 -58 -19 -58 -11 0 -34 -17 -51 -37
-30 -36 -31 -42 -27 -99 4 -55 10 -68 54 -125 64 -84 77 -104 96 -162 9 -27
38 -76 65 -111 46 -58 50 -67 56 -138 6 -61 13 -82 32 -103 13 -14 24 -30 24
-35 0 -21 67 -118 108 -156 l44 -42 -11 -50 c-9 -45 -8 -55 11 -91 12 -23 46
-60 75 -83 30 -24 70 -58 90 -75 19 -18 39 -33 44 -33 12 0 53 -46 122 -135
33 -44 67 -84 74 -88 7 -4 13 -13 13 -18 0 -21 29 -39 62 -39 44 0 186 70 222
110 16 18 48 43 70 57 85 53 256 219 287 277 17 33 23 66 29 176 7 132 7 137
47 210 28 54 43 99 52 155 17 105 29 135 53 135 41 0 83 74 98 175 8 51 25
105 51 158 24 50 39 95 39 119 0 48 -42 144 -67 152 -17 5 -18 20 -15 266 3
238 2 269 -18 356 -56 246 -194 458 -321 494 -73 21 -179 0 -230 -46 -15 -14
-21 -11 -62 29 -25 24 -58 49 -74 54 -15 6 -62 23 -103 39 -61 23 -93 29 -170
31 -52 1 -112 -2 -133 -7z"/>
</g>
</svg>
