<?xml version="1.0" standalone="no"?>
<!DOCTYPE svg PUBLIC "-//W3C//DTD SVG 20010904//EN"
 "http://www.w3.org/TR/2001/REC-SVG-20010904/DTD/svg10.dtd">
<svg version="1.0" xmlns="http://www.w3.org/2000/svg"
 width="269.000000pt" height="337.000000pt" viewBox="0 0 269.000000 337.000000"
 preserveAspectRatio="xMidYMid meet">
<metadata>
Created by potrace 1.13, written by Peter Selinger 2001-2015
</metadata>
<g transform="translate(0.000000,337.000000) scale(0.100000,-0.100000)"
fill="#000000" stroke="none">
<path d="M1167 3170 c-75 -19 -124 -55 -247 -179 -196 -198 -230 -254 -260
-419 -11 -59 -31 -140 -45 -180 -23 -68 -25 -88 -25 -240 0 -92 5 -187 10
-212 6 -25 12 -55 15 -67 5 -22 2 -23 -49 -23 -51 0 -57 -3 -86 -37 -30 -36
-31 -42 -27 -99 4 -55 10 -68 54 -125 64 -83 77 -104 96 -161 19 -58 88 -151
132 -178 l33 -20 4 -98 c3 -90 6 -101 38 -152 18 -30 54 -74 78 -96 l44 -42
-11 -51 c-16 -73 -14 -165 4 -209 9 -20 35 -57 58 -81 56 -58 206 -190 251
-221 20 -14 49 -35 64 -47 15 -13 31 -23 35 -23 5 0 20 -9 34 -20 39 -31 87
-25 190 21 24 10 45 19 48 19 8 0 104 64 138 92 66 53 181 200 219 278 49 101
52 115 58 250 6 132 7 137 43 202 39 70 67 177 67 254 0 42 1 44 31 44 52 0
92 64 109 175 8 51 25 105 51 158 45 93 48 133 19 204 -24 56 -43 73 -82 73
-45 0 -50 43 -53 420 -2 358 -7 399 -52 479 -92 158 -174 221 -290 221 -43 0
-126 -30 -154 -56 -15 -14 -21 -11 -62 29 -25 24 -58 49 -74 54 -15 6 -62 23
-103 39 -61 23 -93 29 -170 31 -52 1 -112 -2 -133 -7z"/>
</g>
</svg>
