<?xml version="1.0" standalone="no"?>
<!DOCTYPE svg PUBLIC "-//W3C//DTD SVG 20010904//EN"
 "http://www.w3.org/TR/2001/REC-SVG-20010904/DTD/svg10.dtd">
<svg version="1.0" xmlns="http://www.w3.org/2000/svg"
 width="269.000000pt" height="337.000000pt" viewBox="0 0 269.000000 337.000000"
 preserveAspectRatio="xMidYMid meet">
<metadata>
Created by potrace 1.13, written by Peter Selinger 2001-2015
</metadata>
<g transform="translate(0.000000,337.000000) scale(0.100000,-0.100000)"
fill="#000000" stroke="none">
<path d="M1160 3197 c-67 -40 -221 -170 -296 -251 -131 -140 -222 -326 -243
-493 -5 -44 -15 -91 -20 -107 -15 -39 -13 -348 3 -421 7 -33 20 -75 30 -93 10
-19 15 -37 12 -40 -4 -3 -27 4 -52 17 -26 12 -47 21 -48 19 -37 -53 -47 -82
-41 -116 4 -20 10 -41 14 -47 6 -9 46 -114 98 -262 8 -24 19 -43 24 -43 5 0 9
-5 9 -11 0 -18 51 -78 85 -99 l33 -20 4 -98 c3 -90 6 -101 38 -152 18 -30 54
-74 78 -96 l44 -42 -11 -51 c-16 -73 -14 -165 4 -209 9 -20 35 -57 58 -81 56
-58 206 -190 251 -221 20 -14 49 -35 64 -47 15 -13 31 -23 35 -23 5 0 20 -9
34 -20 39 -31 87 -25 190 21 24 10 45 19 48 19 8 0 104 64 138 92 66 53 181
200 219 278 49 101 52 115 58 250 6 132 7 137 43 202 39 70 67 177 67 254 0
42 1 44 31 44 17 0 36 6 43 13 48 50 76 158 76 299 0 40 7 115 15 166 17 106
10 132 -37 132 -23 0 -29 6 -38 37 -5 21 -13 163 -17 317 l-6 278 -44 87 c-23
47 -43 89 -43 93 0 4 -16 34 -36 65 -37 59 -85 105 -134 133 -15 8 -39 23 -53
33 -34 24 -127 34 -168 17 -28 -12 -33 -12 -45 6 -41 58 -92 114 -114 124 -14
7 -65 25 -113 41 -113 37 -231 40 -287 6z"/>
</g>
</svg>
