<?xml version="1.0" standalone="no"?>
<!DOCTYPE svg PUBLIC "-//W3C//DTD SVG 20010904//EN"
 "http://www.w3.org/TR/2001/REC-SVG-20010904/DTD/svg10.dtd">
<svg version="1.0" xmlns="http://www.w3.org/2000/svg"
 width="204.000000pt" height="331.000000pt" viewBox="0 0 204.000000 331.000000"
 preserveAspectRatio="xMidYMid meet">
<metadata>
Created by potrace 1.13, written by Peter Selinger 2001-2015
</metadata>
<g transform="translate(0.000000,331.000000) scale(0.100000,-0.100000)"
fill="#000000" stroke="none">
<path d="M975 3109 c-27 -12 -66 -29 -85 -39 -19 -9 -69 -30 -110 -45 -42 -15
-90 -42 -110 -60 -19 -18 -63 -47 -98 -65 -40 -21 -79 -52 -106 -84 -41 -49
-114 -169 -128 -211 -3 -11 -16 -45 -28 -75 -37 -93 -40 -118 -40 -367 l0
-242 -27 -3 c-41 -4 -89 -81 -99 -156 -11 -92 7 -174 58 -251 24 -36 50 -82
58 -101 29 -73 60 -107 127 -141 41 -20 50 -30 89 -109 9 -19 24 -43 33 -54
22 -25 28 -287 11 -402 -13 -81 -13 -82 14 -116 14 -19 26 -39 26 -45 0 -5 9
-28 20 -51 11 -22 20 -47 20 -55 0 -7 49 -61 110 -120 107 -105 132 -122 245
-163 97 -36 91 -37 184 12 47 25 95 54 106 64 11 10 65 47 120 84 148 97 155
104 187 176 16 36 32 72 37 80 4 8 14 47 20 85 7 39 17 89 22 112 5 23 9 61 9
84 0 30 7 50 28 74 69 84 102 172 102 271 0 71 13 101 66 150 42 38 46 46 55
110 33 246 40 424 15 424 -11 0 -15 60 -20 338 -7 356 -19 470 -57 524 -11 14
-19 31 -19 37 0 16 -70 91 -84 91 -7 0 -31 16 -54 36 -72 62 -125 84 -197 84
-61 0 -65 2 -80 29 -34 66 -128 102 -280 108 -74 2 -99 -1 -140 -18z"/>
</g>
</svg>
