<?xml version="1.0" standalone="no"?>
<!DOCTYPE svg PUBLIC "-//W3C//DTD SVG 20010904//EN"
 "http://www.w3.org/TR/2001/REC-SVG-20010904/DTD/svg10.dtd">
<svg version="1.0" xmlns="http://www.w3.org/2000/svg"
 width="238.000000pt" height="80.000000pt" viewBox="0 0 238.000000 80.000000"
 preserveAspectRatio="xMidYMid meet">
<metadata>
Created by potrace 1.13, written by Peter Selinger 2001-2015
</metadata>
<g transform="translate(0.000000,80.000000) scale(0.100000,-0.100000)"
fill="#000000" stroke="none">
<path d="M1661 770 c-19 -11 -46 -24 -60 -29 -14 -6 -33 -15 -41 -20 -8 -5
-42 -21 -75 -36 -33 -15 -88 -40 -123 -57 l-62 -29 -30 21 c-16 11 -53 32 -83
45 l-53 25 -56 -20 c-31 -11 -96 -31 -145 -45 -136 -40 -324 -117 -359 -148
-43 -39 -45 -39 -117 -32 -70 7 -192 47 -304 100 -28 14 -59 25 -67 25 -65 0
-101 -298 -50 -419 l18 -43 43 6 c24 3 53 12 66 20 12 8 33 17 47 21 14 4 50
19 80 33 60 29 210 45 210 23 0 -6 -4 -11 -10 -11 -5 0 -10 -9 -10 -20 0 -16
7 -20 31 -20 18 0 50 -9 73 -20 99 -47 180 -72 306 -96 111 -21 153 -25 240
-21 185 10 243 32 257 97 6 35 11 36 84 14 35 -11 91 -17 159 -17 93 0 116 3
202 33 96 33 133 35 89 4 -13 -9 -20 -22 -17 -31 3 -8 1 -11 -5 -8 -12 8 -41
-14 -33 -26 3 -5 18 0 34 11 25 18 29 18 34 4 4 -9 4 -19 1 -22 -3 -3 -5 1 -5
8 0 7 -10 -2 -23 -21 -39 -57 -39 -59 -22 -59 8 0 19 8 22 18 4 9 13 22 20 27
15 12 43 89 43 119 0 36 20 46 90 46 36 0 71 5 76 10 6 6 53 17 104 26 163 26
167 52 39 245 -38 57 -150 160 -156 143 -2 -5 -26 -9 -53 -8 -28 2 -50 -2 -50
-7 0 -5 -16 -9 -36 -9 -31 0 -45 10 -119 85 -79 81 -85 85 -127 84 -23 0 -58
-9 -77 -19z"/>
</g>
</svg>
