<?xml version="1.0" standalone="no"?>
<!DOCTYPE svg PUBLIC "-//W3C//DTD SVG 20010904//EN"
 "http://www.w3.org/TR/2001/REC-SVG-20010904/DTD/svg10.dtd">
<svg version="1.0" xmlns="http://www.w3.org/2000/svg"
 width="330.000000pt" height="40.000000pt" viewBox="0 0 330.000000 40.000000"
 preserveAspectRatio="xMidYMid meet">
<metadata>
Created by potrace 1.13, written by Peter Selinger 2001-2015
</metadata>
<g transform="translate(0.000000,40.000000) scale(0.100000,-0.100000)"
fill="#000000" stroke="none">
<path d="M2650 383 c-49 -16 -101 -47 -139 -82 -43 -39 -81 -53 -81 -30 0 8
-12 9 -37 4 -21 -4 -71 -8 -111 -9 -69 -3 -74 -1 -83 21 -10 27 -12 28 -44 7
-17 -11 -64 -18 -157 -24 -150 -10 -633 -25 -748 -24 -41 1 -178 3 -305 4
-177 3 -255 0 -340 -13 -62 -9 -213 -19 -345 -22 -129 -4 -239 -10 -243 -15
-13 -12 6 -20 72 -26 36 -4 62 -12 65 -20 4 -11 22 -12 78 -8 76 7 359 -10
456 -27 88 -15 515 -49 622 -49 52 0 282 11 510 24 228 14 481 24 562 23 l146
-1 17 -28 c32 -55 135 -102 135 -61 0 9 7 33 17 54 16 37 18 38 82 45 36 4 84
8 106 8 22 0 43 4 46 9 9 13 116 10 142 -5 14 -7 39 -21 58 -32 18 -10 61 -21
96 -24 61 -5 63 -4 63 19 0 14 -13 39 -30 57 -16 18 -30 40 -30 48 0 18 30 66
47 77 21 13 16 57 -6 57 -37 0 -106 -31 -160 -73 l-54 -42 -125 1 c-92 1 -126
5 -132 15 -7 10 -14 10 -32 3 -15 -7 -35 -7 -57 -2 l-34 9 7 70 c6 71 4 75
-34 62z"/>
</g>
</svg>
