<?xml version="1.0" standalone="no"?>
<!DOCTYPE svg PUBLIC "-//W3C//DTD SVG 20010904//EN"
 "http://www.w3.org/TR/2001/REC-SVG-20010904/DTD/svg10.dtd">
<svg version="1.0" xmlns="http://www.w3.org/2000/svg"
 width="180.000000pt" height="75.000000pt" viewBox="0 0 180.000000 75.000000"
 preserveAspectRatio="xMidYMid meet">
<metadata>
Created by potrace 1.13, written by Peter Selinger 2001-2015
</metadata>
<g transform="translate(0.000000,75.000000) scale(0.100000,-0.100000)"
fill="#000000" stroke="none">
<path d="M1081 721 c-13 -11 -19 -25 -15 -35 4 -11 1 -16 -10 -16 -9 0 -16 -8
-16 -20 0 -11 -5 -20 -11 -20 -8 0 -8 -5 1 -15 11 -13 9 -19 -10 -35 -33 -29
-55 -25 -86 16 -42 54 -76 68 -153 60 -36 -3 -92 -15 -123 -26 -32 -11 -63
-20 -69 -20 -7 0 -20 -6 -28 -13 -9 -7 -43 -23 -76 -36 -84 -33 -93 -43 -61
-68 l26 -21 -39 -6 c-37 -6 -128 7 -276 39 -38 8 -81 15 -95 15 l-25 0 0 -141
0 -140 60 4 c33 3 106 22 165 43 111 40 187 48 244 25 l28 -11 -26 -25 c-30
-28 -29 -36 8 -107 32 -62 53 -61 118 6 52 54 55 55 88 46 63 -17 253 -28 399
-23 l144 5 -27 -34 c-20 -27 -26 -46 -26 -84 0 -67 10 -81 38 -52 18 20 69
121 85 169 3 9 22 20 44 24 21 4 58 15 83 25 25 10 97 34 161 54 113 35 178
68 187 94 2 7 -6 12 -23 12 -22 0 -25 4 -23 27 3 23 -2 28 -47 44 -67 23 -286
69 -372 77 l-68 7 -37 70 c-21 39 -42 69 -47 68 -6 -2 -15 6 -21 17 -13 25
-41 26 -69 1z"/>
</g>
</svg>
