<?xml version="1.0" standalone="no"?>
<!DOCTYPE svg PUBLIC "-//W3C//DTD SVG 20010904//EN"
 "http://www.w3.org/TR/2001/REC-SVG-20010904/DTD/svg10.dtd">
<svg version="1.0" xmlns="http://www.w3.org/2000/svg"
 width="284.000000pt" height="127.000000pt" viewBox="0 0 284.000000 127.000000"
 preserveAspectRatio="xMidYMid meet">
<metadata>
Created by potrace 1.13, written by Peter Selinger 2001-2015
</metadata>
<g transform="translate(0.000000,127.000000) scale(0.100000,-0.100000)"
fill="#000000" stroke="none">
<path d="M1937 1246 c-10 -8 -27 -12 -37 -9 -12 3 -28 -4 -44 -21 -16 -18 -27
-23 -31 -16 -5 8 -13 6 -26 -6 -11 -10 -29 -18 -41 -19 -12 -1 -24 -7 -26 -14
-2 -7 -12 -20 -21 -29 -10 -9 -24 -33 -31 -52 -7 -19 -19 -42 -25 -50 -8 -9
-10 -23 -5 -35 5 -11 6 -30 3 -43 -3 -12 0 -28 5 -35 14 -17 3 -32 -29 -40
-22 -6 -34 0 -65 29 -22 19 -59 47 -84 61 -25 14 -52 32 -61 39 -12 11 -55 14
-170 15 -127 0 -164 -3 -209 -19 -30 -10 -73 -24 -95 -31 -150 -47 -278 -147
-291 -228 -7 -45 -11 -43 93 -58 22 -4 49 -12 59 -19 19 -14 25 -13 -160 -41
-98 -15 -100 -15 -175 9 -150 47 -257 76 -301 82 -25 3 -51 7 -59 10 -7 2 -28
2 -46 -2 -32 -6 -33 -7 -40 -77 -12 -107 -13 -137 -4 -143 5 -2 6 -11 2 -19
-3 -8 0 -15 6 -15 6 0 11 -6 11 -13 0 -8 11 -36 25 -63 14 -27 25 -55 25 -61
0 -7 7 -13 15 -13 8 0 15 -4 15 -10 0 -22 84 -9 163 25 45 19 93 36 107 38 14
2 39 9 55 16 121 50 130 52 275 58 l145 5 -35 -25 c-19 -14 -45 -33 -57 -41
-15 -11 -20 -22 -16 -38 10 -45 28 -78 45 -84 10 -3 18 -12 18 -20 0 -8 7 -14
15 -14 9 0 18 -6 21 -14 3 -8 20 -18 37 -22 18 -3 36 -9 41 -12 43 -25 366
-17 366 10 0 4 9 5 20 3 11 -2 22 0 25 6 4 5 14 9 25 9 21 0 116 83 125 109 7
23 54 16 73 -11 9 -12 20 -17 33 -13 14 5 28 -3 49 -25 16 -17 34 -29 40 -25
17 11 47 -4 53 -26 5 -19 7 -20 30 -4 28 18 72 12 81 -12 5 -12 11 -11 37 8
29 21 32 21 41 5 9 -17 11 -16 30 0 15 14 21 15 27 6 6 -10 11 -9 21 3 7 8 21
15 32 15 19 0 19 -1 1 -31 -10 -17 -26 -39 -35 -49 -24 -26 -23 -44 2 -37 11
3 20 2 20 -2 0 -10 -47 -73 -61 -82 -6 -4 -8 -12 -4 -19 5 -8 17 -2 40 20 27
26 33 29 39 15 3 -9 2 -14 -3 -11 -7 5 -21 -15 -21 -30 0 -16 22 5 56 54 42
59 84 152 84 183 0 9 11 26 23 36 13 10 29 28 35 40 15 28 57 40 163 47 48 2
114 12 146 20 33 9 93 20 134 25 41 6 89 13 107 17 63 12 81 82 37 140 -14 18
-25 40 -25 48 0 23 -109 128 -128 124 -11 -2 -25 9 -37 29 -18 29 -145 123
-167 123 -5 0 -11 -7 -14 -15 -10 -24 -22 -18 -50 25 -22 33 -32 40 -60 40
-18 0 -50 8 -70 17 -34 17 -36 17 -49 -1 -20 -27 -73 -13 -82 22 -23 93 -130
271 -163 271 -3 0 -13 -6 -23 -13z m63 -1200 c0 -2 -8 -10 -17 -17 -16 -13
-17 -12 -4 4 13 16 21 21 21 13z"/>
</g>
</svg>
