<?xml version="1.0" standalone="no"?>
<!DOCTYPE svg PUBLIC "-//W3C//DTD SVG 20010904//EN"
 "http://www.w3.org/TR/2001/REC-SVG-20010904/DTD/svg10.dtd">
<svg version="1.0" xmlns="http://www.w3.org/2000/svg"
 width="208.000000pt" height="60.000000pt" viewBox="0 0 208.000000 60.000000"
 preserveAspectRatio="xMidYMid meet">
<metadata>
Created by potrace 1.13, written by Peter Selinger 2001-2015
</metadata>
<g transform="translate(0.000000,60.000000) scale(0.100000,-0.100000)"
fill="#000000" stroke="none">
<path d="M970 583 c-58 -3 -160 -20 -355 -59 -157 -31 -275 -90 -275 -136 0
-23 -21 -23 -85 1 -27 11 -76 25 -108 32 -70 15 -96 4 -120 -50 -34 -76 -14
-175 39 -200 29 -13 63 -5 191 45 34 13 66 24 71 24 5 0 15 -13 22 -30 17 -42
70 -56 300 -79 165 -17 446 -41 487 -41 6 0 26 12 44 28 l33 27 186 1 186 1 2
-31 c2 -25 -4 -37 -28 -54 -28 -21 -41 -52 -21 -52 4 0 22 13 39 30 18 16 38
30 45 30 7 0 26 20 41 45 26 40 34 45 85 55 71 15 102 23 175 50 51 20 64 21
98 11 48 -15 61 -6 29 18 -20 15 -24 27 -24 70 0 34 6 58 17 70 21 24 20 34
-4 28 -10 -3 -21 0 -22 5 -3 7 -11 6 -24 -2 -17 -10 -33 -9 -90 4 -38 10 -80
19 -94 21 -84 13 -88 14 -94 49 -4 19 -14 40 -23 47 -14 12 -15 9 -8 -30 7
-43 7 -44 -16 -37 -41 12 -161 25 -236 26 -60 0 -73 3 -77 18 -18 55 -155 78
-386 65z m600 -538 c-13 -14 -26 -22 -29 -19 -3 3 5 14 18 25 33 27 39 24 11
-6z"/>
</g>
</svg>
