<?xml version="1.0" standalone="no"?>
<!DOCTYPE svg PUBLIC "-//W3C//DTD SVG 20010904//EN"
 "http://www.w3.org/TR/2001/REC-SVG-20010904/DTD/svg10.dtd">
<svg version="1.0" xmlns="http://www.w3.org/2000/svg"
 width="225.000000pt" height="84.000000pt" viewBox="0 0 225.000000 84.000000"
 preserveAspectRatio="xMidYMid meet">
<metadata>
Created by potrace 1.13, written by Peter Selinger 2001-2015
</metadata>
<g transform="translate(0.000000,84.000000) scale(0.100000,-0.100000)"
fill="#000000" stroke="none">
<path d="M1620 819 c-25 -5 -67 -14 -95 -19 -27 -6 -106 -18 -174 -26 -133
-15 -203 -39 -236 -80 -19 -23 -21 -23 -49 -9 -15 8 -53 15 -83 15 -63 0 -262
-35 -313 -56 -19 -7 -56 -19 -82 -25 -26 -6 -53 -17 -59 -25 -6 -8 -17 -14
-24 -14 -8 0 -27 -12 -44 -26 -32 -27 -40 -61 -19 -83 11 -11 9 -12 -7 -8 -11
3 -36 9 -55 12 -19 4 -40 11 -46 16 -10 8 -116 47 -195 71 -57 18 -83 5 -108
-51 -16 -37 -21 -70 -21 -132 0 -125 39 -189 114 -189 34 0 185 39 210 54 11
8 42 21 68 31 l47 17 31 -30 c35 -36 26 -33 200 -72 74 -16 182 -44 240 -61
140 -41 199 -46 234 -24 15 10 50 22 78 26 28 5 68 20 89 34 31 20 43 23 64
15 15 -6 63 -10 107 -10 45 0 96 -5 114 -12 27 -9 44 -8 93 5 81 23 145 23
137 1 -10 -25 -49 -71 -71 -83 -39 -22 -84 -59 -79 -64 16 -16 99 37 87 56 -3
6 -1 7 5 3 7 -4 12 -14 12 -22 0 -38 56 17 86 85 15 34 22 39 57 44 49 7 73
-7 81 -46 5 -23 9 -27 19 -18 10 8 17 7 25 -1 9 -9 12 -8 12 3 0 17 -36 59
-50 59 -6 0 -10 4 -10 9 0 5 24 15 53 21 28 7 77 28 108 46 83 50 89 89 31
207 -22 44 -35 82 -31 89 5 7 0 20 -13 32 -16 15 -22 16 -29 5 -6 -11 -9 -10
-15 4 -3 9 -12 17 -20 17 -9 0 -11 6 -7 18 6 15 4 15 -9 4 -14 -11 -18 -10
-27 5 -7 12 -13 14 -18 7 -11 -15 -43 -13 -43 3 0 7 -4 13 -10 13 -5 0 -10 -8
-10 -17 0 -10 -21 23 -46 74 l-45 91 -47 6 c-90 13 -167 15 -212 5z m423 -667
c15 -17 15 -18 -3 -19 -14 -1 -20 5 -20 18 0 24 3 24 23 1z m-278 -92 c-3 -5
-16 -15 -28 -21 -22 -12 -22 -12 -3 10 19 21 43 30 31 11z"/>
</g>
</svg>
