<?xml version="1.0" standalone="no"?>
<!DOCTYPE svg PUBLIC "-//W3C//DTD SVG 20010904//EN"
 "http://www.w3.org/TR/2001/REC-SVG-20010904/DTD/svg10.dtd">
<svg version="1.0" xmlns="http://www.w3.org/2000/svg"
 width="174.000000pt" height="72.000000pt" viewBox="0 0 174.000000 72.000000"
 preserveAspectRatio="xMidYMid meet">
<metadata>
Created by potrace 1.13, written by Peter Selinger 2001-2015
</metadata>
<g transform="translate(0.000000,72.000000) scale(0.100000,-0.100000)"
fill="#000000" stroke="none">
<path d="M1067 702 c-22 -3 -29 -10 -34 -33 -3 -16 -11 -29 -18 -29 -8 0 -11
-8 -8 -20 3 -12 0 -20 -6 -20 -7 0 -9 -5 -6 -10 11 -17 -15 -40 -44 -40 -17 0
-37 10 -52 26 -61 66 -115 69 -277 15 -211 -71 -249 -95 -204 -131 28 -23 19
-30 -39 -30 -54 0 -238 33 -266 48 -10 6 -36 12 -58 13 l-40 4 3 -35 c2 -19 5
-82 5 -138 l2 -104 65 4 c43 3 98 17 162 41 102 39 160 46 217 26 l32 -11 -22
-24 -21 -23 23 -58 c41 -102 55 -104 128 -10 l42 55 42 -11 c25 -7 137 -11
279 -11 l238 0 -21 -22 c-11 -11 -22 -37 -26 -57 -6 -42 4 -107 17 -107 14 0
68 97 86 156 16 49 18 51 68 64 100 25 306 98 351 124 50 30 62 62 19 53 -22
-4 -25 -2 -20 18 5 19 -2 26 -52 48 -60 26 -175 51 -327 71 -87 11 -91 13
-110 45 -11 19 -38 52 -60 75 -31 32 -47 40 -68 38z"/>
</g>
</svg>
