<?xml version="1.0" standalone="no"?>
<!DOCTYPE svg PUBLIC "-//W3C//DTD SVG 20010904//EN"
 "http://www.w3.org/TR/2001/REC-SVG-20010904/DTD/svg10.dtd">
<svg version="1.0" xmlns="http://www.w3.org/2000/svg"
 width="243.000000pt" height="93.000000pt" viewBox="0 0 243.000000 93.000000"
 preserveAspectRatio="xMidYMid meet">
<metadata>
Created by potrace 1.13, written by Peter Selinger 2001-2015
</metadata>
<g transform="translate(0.000000,93.000000) scale(0.100000,-0.100000)"
fill="#000000" stroke="none">
<path d="M1720 910 c-36 -3 -71 -9 -76 -13 -6 -3 -43 -13 -83 -21 -73 -15
-177 -59 -196 -83 -31 -38 -59 -41 -320 -35 -178 3 -267 1 -300 -7 -26 -6 -82
-18 -125 -25 -43 -8 -105 -27 -139 -42 -53 -25 -62 -32 -67 -62 -7 -35 7 -72
39 -104 20 -21 22 -38 5 -38 -15 0 -128 36 -197 62 -124 48 -174 42 -223 -29
-29 -42 -30 -50 -26 -113 6 -77 32 -138 70 -159 22 -13 34 -11 119 14 52 16
103 34 114 41 18 11 131 44 151 44 5 0 -2 -7 -14 -16 -24 -17 -29 -56 -10 -72
33 -26 108 -60 158 -71 30 -7 71 -18 90 -26 74 -27 270 -39 436 -27 136 9 159
14 176 31 20 23 38 27 38 10 0 -5 5 -7 12 -3 7 4 28 9 48 11 23 2 42 12 57 30
l22 27 53 -22 c79 -33 146 -42 299 -42 137 0 156 -5 124 -32 -35 -29 -54 -51
-49 -59 2 -4 0 -11 -6 -14 -8 -5 -7 -11 1 -21 9 -11 9 -14 0 -14 -7 0 -9 -4
-6 -10 8 -13 52 11 85 46 23 25 35 43 61 90 10 19 98 64 126 64 56 0 250 94
247 120 -1 6 -2 15 -2 21 -1 6 -14 10 -29 9 -50 -4 -54 -1 -35 18 9 9 30 25
45 35 32 21 36 65 11 117 -21 42 -117 140 -136 140 -9 0 -21 6 -27 14 -11 13
-61 28 -142 41 -32 5 -39 12 -65 62 -51 100 -139 131 -314 113z"/>
</g>
</svg>
