<?xml version="1.0" standalone="no"?>
<!DOCTYPE svg PUBLIC "-//W3C//DTD SVG 20010904//EN"
 "http://www.w3.org/TR/2001/REC-SVG-20010904/DTD/svg10.dtd">
<svg version="1.0" xmlns="http://www.w3.org/2000/svg"
 width="420.000000pt" height="188.000000pt" viewBox="0 0 420.000000 188.000000"
 preserveAspectRatio="xMidYMid meet">
<metadata>
Created by potrace 1.13, written by Peter Selinger 2001-2015
</metadata>
<g transform="translate(0.000000,188.000000) scale(0.100000,-0.100000)"
fill="#000000" stroke="none">
<path d="M2062 1857 c-12 -13 -27 -37 -33 -55 -13 -39 -31 -40 -71 -7 -51 43
-69 38 -218 -70 -23 -16 -56 -42 -74 -57 -18 -15 -58 -37 -89 -48 -46 -17 -58
-27 -63 -48 -11 -43 -23 -52 -76 -52 -56 0 -85 -15 -146 -77 -23 -24 -64 -54
-90 -67 -46 -23 -80 -54 -98 -87 -5 -9 -40 -43 -77 -75 -38 -31 -77 -75 -88
-96 -12 -24 -29 -40 -45 -44 -34 -9 -421 5 -450 16 -12 5 -87 12 -167 16
l-146 7 -29 -33 c-28 -30 -42 -57 -72 -137 -7 -18 -16 -33 -21 -33 -5 0 -9
-27 -9 -60 0 -34 4 -60 10 -60 6 0 26 -25 46 -56 56 -88 72 -94 236 -89 77 2
154 9 172 15 40 13 202 30 348 36 117 6 131 2 219 -62 30 -22 49 -44 52 -61 4
-21 19 -35 63 -58 31 -16 72 -42 92 -57 19 -16 45 -28 58 -28 13 0 41 -16 63
-35 21 -19 43 -35 49 -35 6 0 25 -12 43 -27 40 -34 106 -52 143 -40 33 11 54
-4 58 -41 3 -23 8 -27 38 -30 25 -2 45 -13 68 -39 30 -32 37 -35 75 -30 31 4
47 1 70 -15 24 -17 38 -20 83 -14 53 6 55 5 65 -21 16 -48 70 -76 157 -82 42
-4 82 -10 89 -14 6 -4 22 -3 35 3 13 5 88 14 168 19 115 7 168 16 255 41 305
90 407 132 482 201 38 35 48 39 96 39 29 0 73 6 98 14 24 8 57 17 73 21 16 3
56 32 90 63 34 32 79 71 101 87 22 16 72 56 111 90 99 83 142 117 190 148 39
26 119 112 156 166 23 33 23 112 2 157 -24 50 -92 105 -165 134 -54 21 -82 42
-184 141 -66 64 -136 126 -156 137 -20 11 -45 25 -55 31 -11 6 -91 40 -179 76
-88 37 -178 75 -200 85 -130 59 -161 70 -192 70 -19 0 -48 7 -64 16 -22 11
-43 13 -75 8 -37 -5 -51 -3 -72 13 -48 35 -75 46 -137 54 -33 5 -76 11 -95 15
-28 4 -39 1 -54 -15 -28 -31 -48 -26 -76 19 l-25 40 -171 0 c-165 0 -171 -1
-192 -23z"/>
</g>
</svg>
