<?xml version="1.0" standalone="no"?>
<!DOCTYPE svg PUBLIC "-//W3C//DTD SVG 20010904//EN"
 "http://www.w3.org/TR/2001/REC-SVG-20010904/DTD/svg10.dtd">
<svg version="1.0" xmlns="http://www.w3.org/2000/svg"
 width="613.000000pt" height="492.000000pt" viewBox="0 0 613.000000 492.000000"
 preserveAspectRatio="xMidYMid meet">
<metadata>
Created by potrace 1.13, written by Peter Selinger 2001-2015
</metadata>
<g transform="translate(0.000000,492.000000) scale(0.100000,-0.100000)"
fill="#000000" stroke="none">
<path d="M2930 4064 c-61 -23 -105 -46 -122 -65 -15 -16 -31 -29 -35 -29 -4 0
-16 -8 -27 -19 -12 -10 -53 -30 -93 -45 -40 -15 -83 -36 -96 -46 -13 -10 -45
-24 -70 -31 -33 -8 -47 -16 -47 -29 0 -18 -24 -43 -53 -53 -9 -4 -21 -17 -26
-29 -6 -16 -26 -29 -64 -42 -35 -12 -70 -33 -93 -57 -21 -22 -44 -39 -51 -39
-7 0 -13 -5 -13 -10 0 -6 -12 -16 -27 -22 -16 -6 -62 -44 -103 -84 -113 -110
-154 -143 -196 -158 -34 -12 -192 -83 -234 -105 -8 -4 -17 -18 -18 -31 -2 -12
-12 -25 -23 -27 -10 -3 -19 -9 -19 -13 0 -4 -16 -23 -35 -43 -19 -20 -35 -40
-35 -46 0 -5 -3 -11 -7 -13 -11 -4 -43 -67 -43 -84 0 -7 -9 -28 -19 -46 -11
-17 -18 -35 -15 -40 12 -19 -60 -137 -117 -194 -32 -32 -59 -63 -59 -69 0 -7
-15 -24 -34 -40 -19 -16 -39 -46 -47 -69 -7 -23 -21 -52 -31 -65 -10 -13 -18
-28 -18 -33 0 -11 -36 -60 -70 -98 -56 -60 -135 -153 -138 -161 -2 -5 -17 -23
-33 -40 -16 -17 -29 -38 -29 -46 0 -14 -20 -40 -88 -118 -77 -87 -104 -153
-89 -219 10 -42 9 -46 -20 -75 -36 -35 -49 -96 -30 -133 20 -39 99 -118 118
-118 10 0 20 -4 23 -9 3 -4 27 -16 53 -26 26 -10 64 -24 83 -32 70 -30 84 -34
200 -63 19 -5 46 -12 60 -16 14 -3 33 -13 42 -21 18 -16 126 -45 139 -37 4 2
10 0 14 -6 3 -5 23 -10 43 -10 21 0 61 -9 90 -19 30 -11 60 -17 67 -15 8 3 20
2 26 -2 13 -8 18 -8 187 -18 57 -3 112 -11 122 -16 10 -6 30 -10 45 -10 14 0
36 -7 49 -15 12 -8 40 -17 62 -19 21 -1 47 -6 57 -11 9 -4 48 -4 85 -1 37 4
81 6 97 6 17 -1 41 -1 55 -1 73 -1 228 -22 245 -33 14 -9 47 -12 100 -10 73 3
82 1 113 -23 29 -22 47 -26 111 -29 42 -1 121 -6 176 -10 134 -10 161 -9 220
5 28 7 70 14 95 16 64 5 222 66 235 90 5 11 15 27 20 35 6 8 10 23 10 34 0 13
17 25 67 43 52 19 82 39 136 91 37 37 75 76 83 87 8 11 23 25 34 31 11 6 28
26 37 45 10 19 30 48 46 64 15 17 31 37 35 45 20 41 36 61 60 80 29 23 101
139 92 148 -2 3 6 20 20 38 14 18 25 37 25 43 0 6 9 15 20 21 11 6 20 17 20
24 0 17 31 79 43 87 6 4 7 14 4 22 -3 9 1 21 9 27 7 7 19 31 25 54 6 22 16 48
23 56 19 22 39 77 33 92 -2 7 4 23 14 36 9 12 15 31 12 41 -3 13 5 26 26 42
18 13 30 30 29 39 -1 8 10 28 26 43 21 21 27 35 23 55 -5 27 12 72 40 104 8 9
12 22 8 28 -8 13 54 76 70 71 6 -2 74 -5 153 -7 79 -2 147 -6 153 -10 5 -3 24
-7 42 -9 114 -13 262 -37 279 -46 11 -6 25 -8 33 -5 7 2 37 1 66 -3 30 -3 72
-4 94 0 22 4 44 4 49 1 19 -11 133 -8 164 4 22 9 38 25 48 49 13 32 13 38 -2
60 -11 17 -16 46 -16 83 0 31 -3 61 -7 67 -5 5 -11 31 -13 58 -5 38 -2 50 12
60 37 26 41 52 20 114 -11 32 -25 72 -31 88 -6 17 -17 53 -26 80 -8 28 -21 62
-29 77 -8 14 -14 38 -14 51 0 14 -4 29 -10 32 -5 3 -10 17 -10 29 0 14 -10 30
-25 40 -14 9 -25 22 -25 30 0 7 -9 21 -20 31 -11 10 -20 31 -20 46 0 15 -11
41 -25 57 -14 17 -25 35 -25 41 0 6 -4 19 -9 29 -11 22 -32 81 -38 108 -7 33
-48 47 -92 33 -20 -6 -40 -15 -46 -19 -5 -4 -21 -11 -35 -15 -50 -15 -111 -46
-116 -60 -3 -7 -20 -19 -37 -26 -18 -7 -48 -30 -67 -50 -19 -21 -56 -48 -81
-61 -25 -14 -90 -69 -145 -124 -54 -55 -115 -106 -134 -114 -19 -8 -47 -22
-61 -33 -18 -13 -39 -17 -70 -15 -37 2 -45 7 -47 26 -2 12 -13 27 -25 34 -12
6 -28 19 -35 30 -7 10 -19 18 -27 18 -8 0 -18 6 -22 14 -4 8 -30 25 -58 39
-115 57 -132 67 -175 107 -25 23 -60 48 -78 55 -18 8 -35 21 -38 30 -3 8 -15
15 -26 15 -11 0 -37 13 -58 30 -20 16 -40 27 -42 24 -3 -3 -23 6 -43 21 -21
14 -48 25 -61 25 -13 0 -24 4 -24 8 0 5 -19 17 -42 28 -24 10 -47 22 -53 27
-65 51 -123 87 -141 87 -13 0 -26 5 -29 10 -12 19 -104 60 -120 54 -9 -4 -26
-2 -38 3 -12 6 -44 21 -72 33 -46 22 -91 33 -122 29 -45 -4 -120 -2 -133 3 -8
4 -57 -8 -110 -28z"/>
</g>
</svg>
