<?xml version="1.0" standalone="no"?>
<!DOCTYPE svg PUBLIC "-//W3C//DTD SVG 20010904//EN"
 "http://www.w3.org/TR/2001/REC-SVG-20010904/DTD/svg10.dtd">
<svg version="1.0" xmlns="http://www.w3.org/2000/svg"
 width="420.000000pt" height="215.000000pt" viewBox="0 0 420.000000 215.000000"
 preserveAspectRatio="xMidYMid meet">
<metadata>
Created by potrace 1.13, written by Peter Selinger 2001-2015
</metadata>
<g transform="translate(0.000000,215.000000) scale(0.100000,-0.100000)"
fill="#000000" stroke="none">
<path d="M2215 2131 c-6 -5 -74 -11 -152 -13 -85 -3 -147 -9 -155 -16 -8 -6
-45 -14 -83 -17 -66 -6 -100 -15 -135 -36 -8 -5 -30 -16 -49 -25 -19 -9 -97
-78 -173 -155 -77 -77 -143 -137 -148 -134 -4 2 -69 -55 -144 -129 l-136 -133
0 -50 c0 -39 -5 -54 -23 -71 -24 -22 -81 -30 -91 -13 -3 5 -34 12 -68 16 -34
4 -69 11 -78 15 -8 4 -36 17 -62 30 -27 12 -48 25 -48 28 0 8 -2 9 -94 55 -31
15 -56 32 -56 36 0 5 -14 12 -30 16 -17 4 -30 10 -30 15 0 5 -14 11 -30 15
-17 4 -30 10 -30 15 0 5 -14 11 -30 15 -17 4 -30 10 -30 15 0 5 -13 11 -29 15
-16 3 -32 13 -35 21 -3 8 -17 14 -31 14 -14 0 -25 5 -25 10 0 16 -60 11 -78
-6 -23 -24 -52 -81 -52 -104 0 -11 -4 -20 -10 -20 -5 0 -10 -13 -10 -29 0 -16
-6 -34 -14 -40 -7 -6 -19 -38 -25 -71 -7 -33 -16 -62 -21 -65 -12 -8 -13 -257
-1 -270 4 -6 14 -50 20 -100 15 -113 32 -135 102 -135 26 0 51 5 54 11 4 6 22
9 40 7 19 -1 37 1 41 5 4 4 22 7 40 7 18 0 35 4 39 10 3 5 12 7 19 4 8 -3 17
-1 21 5 3 6 28 11 55 11 27 0 51 4 54 9 3 4 17 6 31 3 14 -2 31 0 38 6 6 6 35
13 62 17 28 4 53 12 57 18 4 6 64 11 151 11 142 1 146 0 172 -24 15 -14 33
-39 40 -55 7 -17 32 -51 54 -77 23 -25 41 -49 41 -54 0 -4 11 -22 25 -40 14
-18 25 -37 25 -41 0 -5 29 -41 65 -80 36 -39 65 -75 65 -80 0 -13 64 -73 78
-73 7 0 12 -7 12 -15 0 -8 5 -15 11 -15 6 0 57 -43 114 -95 56 -52 106 -95
110 -95 4 0 35 -24 68 -53 70 -59 82 -67 152 -101 60 -29 87 -40 98 -38 4 1 7
-2 7 -8 0 -6 55 -10 145 -10 99 0 145 3 145 11 0 6 6 9 13 7 6 -3 26 3 42 13
17 11 44 25 60 33 17 8 41 23 55 34 14 10 36 22 50 26 14 4 39 13 55 21 76 34
104 45 119 45 9 0 16 5 16 10 0 6 10 10 23 10 12 0 31 6 42 14 11 7 35 17 53
21 17 3 32 11 32 16 0 5 5 9 11 9 6 0 22 9 36 20 14 11 36 20 49 20 13 0 24 4
24 9 0 5 14 12 30 16 17 4 30 10 30 15 0 11 58 40 82 40 10 0 18 -4 18 -10 0
-15 43 -22 72 -11 15 6 44 26 65 44 21 19 42 35 48 35 5 -1 17 12 25 28 16 28
39 43 157 104 35 18 68 39 74 46 6 8 18 14 26 14 7 0 16 7 19 15 4 8 16 15 28
15 12 0 30 6 41 14 11 7 35 17 52 20 18 4 52 18 75 32 24 13 51 27 61 30 9 4
17 10 17 15 0 5 9 9 19 9 11 0 26 7 34 15 8 7 26 17 40 20 14 4 28 13 31 21 3
8 11 14 19 14 7 0 33 20 57 45 24 25 49 45 55 45 12 0 38 28 55 60 15 27 4 89
-16 97 -7 3 -14 10 -14 17 0 21 -83 92 -135 117 -56 26 -105 66 -105 86 0 8
-7 16 -15 19 -8 4 -15 10 -15 15 0 12 -42 73 -52 77 -5 2 -8 9 -8 16 0 7 -16
27 -35 46 -19 19 -35 37 -35 41 0 10 -77 89 -87 89 -5 0 -26 18 -48 40 -21 21
-42 37 -46 35 -4 -3 -9 -2 -11 2 -5 12 -66 53 -78 53 -5 0 -10 4 -10 9 0 5
-13 12 -30 16 -26 6 -77 29 -120 54 -41 24 -121 60 -149 66 -17 4 -31 11 -31
16 0 5 -7 9 -16 9 -16 0 -47 12 -130 51 -23 10 -47 19 -55 19 -8 0 -23 7 -33
15 -11 8 -32 15 -48 15 -15 0 -28 4 -28 9 0 5 -27 12 -60 16 -33 4 -60 11 -60
15 0 5 -29 12 -65 15 -36 4 -68 12 -71 17 -3 5 -35 8 -70 7 -35 -1 -67 1 -71
4 -3 4 -41 7 -84 7 -43 0 -81 5 -84 10 -8 12 -28 13 -40 1z"/>
</g>
</svg>
