<?xml version="1.0" standalone="no"?>
<!DOCTYPE svg PUBLIC "-//W3C//DTD SVG 20010904//EN"
 "http://www.w3.org/TR/2001/REC-SVG-20010904/DTD/svg10.dtd">
<svg version="1.0" xmlns="http://www.w3.org/2000/svg"
 width="420.000000pt" height="230.000000pt" viewBox="0 0 420.000000 230.000000"
 preserveAspectRatio="xMidYMid meet">
<metadata>
Created by potrace 1.13, written by Peter Selinger 2001-2015
</metadata>
<g transform="translate(0.000000,230.000000) scale(0.100000,-0.100000)"
fill="#000000" stroke="none">
<path d="M1897 2278 c-8 -13 -41 -38 -73 -57 -74 -43 -155 -103 -215 -157 -25
-23 -64 -51 -87 -63 -22 -11 -43 -25 -47 -31 -3 -5 -38 -30 -77 -56 -40 -25
-80 -56 -89 -68 -10 -13 -46 -38 -81 -56 -189 -100 -249 -156 -272 -253 -4
-15 -15 -36 -26 -47 -39 -39 -179 -18 -284 44 -60 35 -312 149 -377 171 -33
10 -66 15 -82 12 -38 -10 -87 -64 -87 -95 0 -15 -16 -58 -36 -97 -29 -57 -35
-78 -33 -120 4 -59 -10 -183 -22 -207 -6 -11 -6 -25 0 -35 5 -10 14 -37 21
-61 6 -24 35 -80 64 -125 29 -45 64 -104 77 -130 21 -43 59 -77 87 -77 13 0
141 88 188 129 149 129 331 231 425 239 53 4 56 3 87 -32 19 -22 32 -48 32
-64 0 -15 15 -51 32 -79 37 -58 308 -336 359 -370 124 -79 160 -95 257 -108
134 -19 176 -29 257 -60 39 -15 93 -31 120 -37 28 -5 244 -13 480 -18 276 -5
440 -12 458 -19 16 -6 88 -11 166 -11 112 0 149 4 196 20 115 40 231 126 275
204 16 28 46 68 67 88 35 33 144 88 176 88 28 0 217 68 264 95 26 15 60 34 76
42 25 13 27 19 27 73 0 58 -1 61 -52 116 -29 31 -84 74 -123 96 -38 22 -83 52
-99 67 -32 29 -127 153 -146 191 -30 57 -441 493 -510 540 -30 20 -82 52 -115
69 -33 17 -85 47 -115 66 -68 43 -90 53 -270 122 l-145 55 -203 5 c-111 3
-205 10 -208 15 -3 4 -72 8 -153 8 -143 0 -149 -1 -164 -22z"/>
</g>
</svg>
