<?xml version="1.0" standalone="no"?>
<!DOCTYPE svg PUBLIC "-//W3C//DTD SVG 20010904//EN"
 "http://www.w3.org/TR/2001/REC-SVG-20010904/DTD/svg10.dtd">
<svg version="1.0" xmlns="http://www.w3.org/2000/svg"
 width="420.000000pt" height="184.000000pt" viewBox="0 0 420.000000 184.000000"
 preserveAspectRatio="xMidYMid meet">
<metadata>
Created by potrace 1.13, written by Peter Selinger 2001-2015
</metadata>
<g transform="translate(0.000000,184.000000) scale(0.100000,-0.100000)"
fill="#000000" stroke="none">
<path d="M2075 1811 c-58 -6 -117 -30 -130 -52 -4 -6 -49 -30 -100 -54 -51
-23 -95 -48 -99 -53 -4 -6 -57 -45 -119 -85 -62 -41 -133 -97 -159 -125 -43
-46 -48 -56 -48 -97 0 -25 -6 -58 -14 -73 -32 -60 -204 -205 -288 -242 -49
-22 -90 -19 -258 15 -41 8 -106 20 -145 25 -38 6 -90 15 -115 21 -25 5 -76 14
-115 19 -38 6 -92 14 -120 19 -27 6 -85 10 -127 10 -68 1 -80 -2 -107 -25 -17
-14 -46 -51 -66 -83 -34 -57 -35 -61 -35 -162 l0 -104 53 -77 c63 -94 125
-135 185 -123 21 4 78 13 127 20 112 17 278 52 430 89 33 9 87 22 120 30 33 8
78 19 100 25 74 19 81 16 167 -71 44 -44 91 -98 105 -120 14 -21 29 -38 33
-38 4 0 39 -29 78 -63 62 -56 81 -66 149 -86 43 -12 92 -26 108 -32 17 -6 53
-14 80 -18 57 -8 159 -57 219 -105 23 -18 83 -61 134 -95 51 -34 98 -71 105
-81 11 -19 24 -20 185 -20 120 0 178 4 192 12 16 10 24 10 40 0 30 -18 246
-17 253 2 3 8 32 22 64 31 32 10 76 25 98 35 22 10 65 29 96 43 62 27 123 77
143 116 8 14 17 45 21 68 15 91 71 117 150 68 55 -33 83 -33 90 2 9 43 57 133
92 173 21 24 72 55 165 99 178 85 207 100 248 131 19 15 59 44 88 65 50 38 52
41 52 87 0 32 -6 54 -17 66 -10 11 -25 33 -35 50 -9 17 -53 55 -105 90 -116
78 -185 141 -236 216 -76 113 -213 223 -362 291 -33 15 -78 36 -100 46 -35 16
-101 37 -215 69 -19 6 -138 11 -265 13 -194 2 -235 5 -261 19 -25 14 -69 18
-250 22 -120 2 -246 1 -279 -3z"/>
</g>
</svg>
