<?xml version="1.0" standalone="no"?>
<!DOCTYPE svg PUBLIC "-//W3C//DTD SVG 20010904//EN"
 "http://www.w3.org/TR/2001/REC-SVG-20010904/DTD/svg10.dtd">
<svg version="1.0" xmlns="http://www.w3.org/2000/svg"
 width="420.000000pt" height="212.000000pt" viewBox="0 0 420.000000 212.000000"
 preserveAspectRatio="xMidYMid meet">
<metadata>
Created by potrace 1.13, written by Peter Selinger 2001-2015
</metadata>
<g transform="translate(0.000000,212.000000) scale(0.100000,-0.100000)"
fill="#000000" stroke="none">
<path d="M1885 2110 c-3 -5 -30 -10 -58 -10 -109 -1 -382 -58 -442 -92 -11 -6
-71 -38 -135 -70 -115 -59 -145 -78 -301 -196 -142 -106 -148 -111 -184 -165
-28 -41 -35 -62 -35 -99 0 -25 -3 -53 -6 -62 -10 -26 -56 -19 -116 18 -31 18
-107 54 -169 80 -97 39 -124 46 -181 46 -99 0 -128 -17 -179 -109 -36 -65 -43
-86 -47 -148 -2 -45 -9 -77 -18 -84 -21 -17 -20 -195 1 -215 8 -9 15 -24 15
-35 0 -26 55 -145 87 -187 13 -18 42 -41 64 -53 39 -19 43 -20 104 -4 77 19
227 96 275 140 51 48 96 68 120 55 23 -12 21 -6 24 -90 2 -74 11 -92 101 -230
61 -93 134 -171 205 -219 19 -13 49 -37 65 -52 17 -15 67 -50 113 -77 45 -28
98 -64 117 -81 20 -17 48 -33 63 -37 15 -3 53 -17 84 -30 91 -39 359 -83 515
-84 39 0 75 -5 78 -10 8 -13 268 -13 280 -1 6 6 73 13 150 16 77 4 163 13 192
21 28 8 71 14 96 14 95 0 265 72 353 149 23 20 70 52 104 71 35 19 96 68 136
108 70 71 75 74 130 79 56 6 61 9 119 68 34 35 89 79 127 100 37 20 70 41 74
46 3 5 33 22 68 38 34 15 85 48 113 72 28 24 88 73 132 109 l81 65 0 52 c0 34
-5 55 -14 60 -7 4 -37 36 -65 70 -28 34 -74 75 -101 92 -50 31 -90 81 -90 112
0 48 -254 301 -378 376 -30 18 -68 44 -85 58 -84 69 -269 166 -367 194 -25 7
-60 19 -78 27 -18 8 -44 14 -57 14 -21 0 -87 14 -245 52 -25 6 -107 13 -182
17 -87 4 -142 11 -150 19 -15 15 -493 18 -503 2z"/>
</g>
</svg>
