<?xml version="1.0" standalone="no"?>
<!DOCTYPE svg PUBLIC "-//W3C//DTD SVG 20010904//EN"
 "http://www.w3.org/TR/2001/REC-SVG-20010904/DTD/svg10.dtd">
<svg version="1.0" xmlns="http://www.w3.org/2000/svg"
 width="420.000000pt" height="188.000000pt" viewBox="0 0 420.000000 188.000000"
 preserveAspectRatio="xMidYMid meet">
<metadata>
Created by potrace 1.13, written by Peter Selinger 2001-2015
</metadata>
<g transform="translate(0.000000,188.000000) scale(0.100000,-0.100000)"
fill="#000000" stroke="none">
<path d="M2061 1866 c-6 -8 -26 -16 -44 -19 -74 -11 -265 -60 -307 -79 -25
-11 -94 -40 -153 -64 -60 -25 -144 -62 -188 -84 -43 -22 -83 -40 -89 -40 -11
0 -95 -41 -218 -106 -87 -47 -176 -118 -246 -198 -82 -95 -140 -136 -191 -136
-48 0 -60 4 -180 61 -163 77 -190 86 -262 92 -92 7 -117 -9 -126 -80 -4 -26
-11 -70 -16 -98 -5 -27 -10 -96 -10 -151 -1 -78 -5 -105 -16 -114 -22 -18 -22
-205 0 -226 10 -10 15 -35 15 -68 0 -42 5 -57 23 -74 31 -30 61 -27 132 10 33
17 76 40 97 50 31 16 42 18 77 8 37 -10 46 -8 109 24 37 19 74 41 81 50 18 21
68 20 169 -4 98 -23 130 -39 186 -89 86 -77 154 -117 321 -189 83 -35 175 -79
206 -98 31 -19 62 -34 68 -34 6 0 33 -11 60 -24 97 -50 355 -137 430 -146 40
-5 84 -16 97 -25 28 -18 174 -21 192 -3 6 6 36 15 67 19 53 7 85 15 230 59 33
10 80 22 105 26 25 3 93 26 152 49 59 24 122 46 140 50 18 4 53 18 78 30 25
13 74 30 109 39 35 9 96 34 135 55 39 21 87 44 106 52 19 7 72 35 118 61 46
26 86 48 88 48 2 0 27 16 55 35 28 19 61 35 74 35 30 0 69 32 108 90 18 26 55
67 84 91 28 24 91 79 139 122 48 42 97 80 110 83 20 5 24 13 24 45 0 34 -3 39
-23 39 -29 0 -47 18 -47 46 0 23 -42 91 -69 111 -9 7 -32 18 -51 24 -19 7 -53
24 -75 40 -22 15 -58 32 -81 38 -22 6 -58 26 -80 44 -43 37 -218 157 -228 157
-4 0 -35 18 -69 40 -35 22 -115 60 -178 86 -392 160 -569 218 -698 227 -47 4
-89 11 -95 17 -6 6 -92 10 -222 10 -169 0 -214 -3 -223 -14z"/>
</g>
</svg>
