<?xml version="1.0" standalone="no"?>
<!DOCTYPE svg PUBLIC "-//W3C//DTD SVG 20010904//EN"
 "http://www.w3.org/TR/2001/REC-SVG-20010904/DTD/svg10.dtd">
<svg version="1.0" xmlns="http://www.w3.org/2000/svg"
 width="420.000000pt" height="255.000000pt" viewBox="0 0 420.000000 255.000000"
 preserveAspectRatio="xMidYMid meet">
<metadata>
Created by potrace 1.13, written by Peter Selinger 2001-2015
</metadata>
<g transform="translate(0.000000,255.000000) scale(0.100000,-0.100000)"
fill="#000000" stroke="none">
<path d="M2200 2519 c-19 -6 -62 -14 -95 -18 -87 -11 -165 -53 -267 -143 -49
-43 -114 -93 -145 -110 -30 -17 -66 -46 -81 -65 -15 -19 -47 -47 -72 -62 -25
-16 -70 -52 -100 -81 -30 -29 -79 -70 -107 -91 -29 -22 -71 -64 -93 -94 -22
-29 -53 -61 -68 -71 -29 -17 -72 -89 -72 -122 0 -9 -6 -28 -14 -42 -7 -14 -26
-47 -41 -75 -15 -27 -39 -71 -52 -97 -32 -65 -55 -78 -129 -78 -47 0 -68 5
-87 21 -40 30 -277 138 -440 200 -81 30 -135 36 -167 19 -21 -11 -80 -158 -80
-200 0 -15 -9 -56 -20 -90 -12 -37 -20 -90 -20 -131 0 -38 -5 -89 -12 -114
-10 -37 -10 -52 1 -78 7 -17 17 -52 20 -77 11 -69 53 -161 83 -183 l27 -20 56
21 c31 12 71 22 89 22 43 0 171 38 366 109 85 32 161 48 257 58 48 4 55 2 82
-24 16 -16 35 -50 41 -74 30 -106 40 -123 113 -187 117 -101 165 -138 229
-173 33 -19 81 -48 107 -65 49 -33 237 -130 303 -158 52 -21 127 -80 155 -121
31 -46 77 -69 138 -68 30 1 65 -7 87 -18 32 -16 59 -19 185 -19 103 1 160 5
188 15 22 8 52 15 66 15 58 0 177 49 279 115 19 12 58 36 85 53 79 49 126 84
175 129 25 23 66 51 91 61 70 31 149 131 149 189 0 49 41 110 98 144 30 19 77
55 106 80 28 26 67 54 86 63 19 9 62 37 95 62 33 24 85 59 115 76 61 35 163
111 227 170 24 21 47 38 53 38 5 0 10 18 10 40 0 35 -3 40 -23 40 -30 0 -67
27 -67 48 0 34 -31 61 -94 82 -36 12 -70 28 -77 36 -7 9 -29 23 -48 32 -34 16
-36 21 -39 67 -3 63 -53 165 -92 189 -16 9 -38 32 -49 50 -12 19 -68 68 -125
110 -57 42 -109 83 -116 91 -6 8 -40 30 -74 49 -35 19 -98 69 -142 111 -49 47
-105 89 -147 111 -37 19 -104 61 -149 94 -45 33 -89 60 -98 60 -8 0 -51 12
-95 27 -54 17 -99 26 -139 25 -37 -1 -70 5 -90 15 -37 20 -279 28 -336 12z"/>
</g>
</svg>
