<?xml version="1.0" standalone="no"?>
<!DOCTYPE svg PUBLIC "-//W3C//DTD SVG 20010904//EN"
 "http://www.w3.org/TR/2001/REC-SVG-20010904/DTD/svg10.dtd">
<svg version="1.0" xmlns="http://www.w3.org/2000/svg"
 width="420.000000pt" height="230.000000pt" viewBox="0 0 420.000000 230.000000"
 preserveAspectRatio="xMidYMid meet">
<metadata>
Created by potrace 1.13, written by Peter Selinger 2001-2015
</metadata>
<g transform="translate(0.000000,230.000000) scale(0.100000,-0.100000)"
fill="#000000" stroke="none">
<path d="M1990 2272 c-30 -2 -59 -7 -64 -13 -6 -5 -20 -9 -32 -9 -13 0 -29 -7
-37 -15 -8 -7 -28 -17 -43 -21 -16 -4 -42 -16 -59 -26 -16 -10 -37 -21 -45
-25 -8 -4 -24 -17 -36 -30 -12 -13 -26 -23 -31 -23 -11 0 -73 -63 -73 -74 0
-9 -19 -27 -45 -42 -10 -6 -23 -19 -29 -29 -19 -33 -31 -42 -64 -50 -17 -3
-34 -11 -37 -16 -4 -5 -15 -9 -25 -9 -22 0 -50 -34 -80 -95 -15 -30 -29 -45
-48 -50 -25 -6 -172 -140 -172 -157 0 -16 -86 -115 -109 -126 -30 -15 -167
-16 -176 -2 -3 6 -32 10 -64 10 -31 0 -62 5 -67 10 -6 6 -67 13 -137 17 -70 3
-127 10 -127 15 0 4 -62 8 -138 8 -106 0 -146 -4 -170 -16 l-32 -15 0 -114 c0
-65 -4 -116 -10 -120 -16 -10 -12 -91 5 -105 10 -8 15 -30 15 -61 0 -26 5 -51
10 -54 6 -3 10 -32 10 -64 0 -88 13 -96 147 -87 59 4 112 11 118 15 5 5 36 12
67 16 32 4 58 11 58 15 0 4 18 10 40 14 23 3 49 10 58 15 20 11 53 24 67 27
30 6 55 17 55 25 0 5 51 9 113 9 l113 0 32 -33 c35 -36 66 -90 77 -134 7 -30
101 -133 121 -133 7 0 21 -11 32 -25 11 -14 24 -25 29 -25 5 0 33 -25 63 -55
30 -30 59 -55 64 -55 5 0 30 -19 57 -42 64 -58 77 -68 87 -68 15 0 182 -177
182 -192 0 -9 7 -21 15 -28 8 -7 15 -21 15 -31 0 -16 57 -72 77 -75 25 -5 53
-17 53 -24 0 -5 15 -12 33 -15 17 -4 37 -11 42 -15 6 -5 36 -11 68 -15 31 -4
57 -11 57 -15 0 -4 30 -10 67 -12 39 -2 68 -9 71 -16 5 -16 158 -17 168 -1 3
6 15 9 25 6 10 -3 22 -1 25 4 3 5 16 9 30 9 13 0 24 4 24 9 0 4 30 11 67 14
37 4 69 10 72 15 3 5 29 12 56 15 52 6 105 26 105 40 0 5 9 6 20 2 13 -4 23 0
32 14 7 12 17 21 23 21 6 0 27 9 48 20 22 12 56 20 86 20 48 0 49 1 152 103
109 109 169 148 198 130 9 -5 17 -20 19 -32 8 -55 103 15 148 109 4 8 10 17
13 20 3 3 11 14 17 24 6 11 19 24 30 30 10 6 21 13 24 17 3 3 22 13 43 22 20
10 37 21 37 25 0 4 17 16 38 27 20 11 51 29 67 41 17 12 41 25 55 29 14 4 27
10 30 14 7 9 41 30 68 41 12 5 22 14 22 19 0 7 22 18 51 25 3 0 37 29 76 63
39 35 75 63 80 63 20 0 63 57 63 83 0 15 -4 27 -9 27 -5 0 -12 8 -15 18 -15
42 -71 114 -85 109 -18 -6 -126 90 -136 122 -4 13 -17 35 -28 50 -40 48 -301
311 -310 311 -4 0 -20 13 -35 28 -15 16 -44 36 -64 46 -21 9 -38 21 -38 25 0
8 -11 13 -45 20 -5 1 -19 11 -31 22 -11 10 -41 22 -67 25 -26 4 -47 10 -47 14
0 4 -12 11 -27 15 -15 3 -38 14 -52 24 -14 10 -31 16 -36 14 -6 -2 -21 6 -33
17 -11 11 -25 20 -30 20 -5 0 -17 9 -27 20 -10 11 -24 20 -32 20 -7 0 -13 3
-13 8 0 8 5 5 -162 88 -118 59 -155 76 -170 78 -3 1 -10 4 -14 9 -4 4 -22 7
-40 7 -18 0 -35 4 -38 9 -3 5 -35 12 -71 16 -36 3 -67 10 -70 14 -2 5 -33 12
-67 15 -35 4 -67 11 -73 16 -11 9 -222 17 -315 12z"/>
</g>
</svg>
