<?xml version="1.0" standalone="no"?>
<!DOCTYPE svg PUBLIC "-//W3C//DTD SVG 20010904//EN"
 "http://www.w3.org/TR/2001/REC-SVG-20010904/DTD/svg10.dtd">
<svg version="1.0" xmlns="http://www.w3.org/2000/svg"
 width="420.000000pt" height="188.000000pt" viewBox="0 0 420.000000 188.000000"
 preserveAspectRatio="xMidYMid meet">
<metadata>
Created by potrace 1.13, written by Peter Selinger 2001-2015
</metadata>
<g transform="translate(0.000000,188.000000) scale(0.100000,-0.100000)"
fill="#000000" stroke="none">
<path d="M2053 1851 c-14 -39 -63 -64 -98 -51 -55 21 -138 -1 -176 -46 -8 -9
-37 -32 -66 -51 -28 -18 -55 -37 -58 -43 -4 -6 -35 -24 -71 -40 -35 -16 -67
-36 -70 -44 -8 -21 -66 -56 -93 -56 -35 0 -95 -36 -113 -68 -19 -31 -133 -142
-148 -142 -4 0 -22 -22 -39 -48 -40 -62 -150 -169 -184 -177 -14 -4 -51 1 -83
10 -132 37 -171 50 -207 68 -34 18 -52 19 -144 14 -101 -7 -107 -6 -179 24
-50 21 -83 29 -100 25 -49 -13 -114 -86 -156 -176 -22 -47 -46 -89 -54 -93
-10 -6 -14 -30 -14 -91 0 -79 2 -86 29 -115 17 -18 33 -42 37 -54 4 -12 23
-46 42 -75 57 -86 134 -112 232 -77 26 9 78 15 132 15 101 0 170 17 252 60 47
25 150 59 233 77 44 10 72 -8 173 -107 57 -56 117 -108 134 -117 17 -8 51 -34
76 -57 78 -73 195 -136 254 -136 13 0 56 -23 96 -51 97 -66 122 -79 162 -79
18 -1 44 -7 58 -15 14 -8 40 -14 58 -15 39 0 79 -19 107 -50 29 -33 77 -50
140 -50 31 0 65 -5 75 -10 12 -7 27 -7 42 0 13 5 88 14 168 19 115 7 168 16
255 41 305 90 407 132 482 201 38 35 48 39 96 39 55 0 152 28 194 55 13 9 49
50 80 93 94 126 214 233 349 308 66 37 140 91 181 131 27 25 33 39 33 72 0 53
-20 93 -64 126 -27 21 -55 29 -125 39 -105 14 -108 16 -216 152 -40 50 -104
122 -142 160 -64 67 -76 73 -208 129 -77 32 -162 68 -190 80 -27 13 -76 34
-109 49 -32 14 -69 26 -81 26 -12 0 -42 7 -65 15 -23 8 -62 15 -87 15 -27 0
-63 10 -96 26 -69 36 -188 53 -259 39 -33 -7 -40 -4 -68 24 l-32 31 -182 0
-182 0 -11 -29z"/>
</g>
</svg>
