<?xml version="1.0" standalone="no"?>
<!DOCTYPE svg PUBLIC "-//W3C//DTD SVG 20010904//EN"
 "http://www.w3.org/TR/2001/REC-SVG-20010904/DTD/svg10.dtd">
<svg version="1.0" xmlns="http://www.w3.org/2000/svg"
 width="420.000000pt" height="184.000000pt" viewBox="0 0 420.000000 184.000000"
 preserveAspectRatio="xMidYMid meet">
<metadata>
Created by potrace 1.13, written by Peter Selinger 2001-2015
</metadata>
<g transform="translate(0.000000,184.000000) scale(0.100000,-0.100000)"
fill="#000000" stroke="none">
<path d="M2056 1821 c-4 -6 -18 -11 -30 -11 -13 0 -35 -9 -49 -20 -14 -11 -30
-20 -36 -20 -6 0 -11 -4 -11 -9 0 -5 -15 -13 -32 -16 -18 -4 -37 -11 -43 -15
-5 -5 -32 -11 -60 -15 -33 -5 -61 -17 -83 -36 -18 -16 -43 -29 -55 -29 -12 0
-44 -11 -72 -24 -27 -13 -61 -29 -75 -35 -25 -11 -38 -18 -75 -40 -11 -6 -28
-14 -37 -17 -10 -4 -18 -10 -18 -14 0 -4 -11 -11 -25 -14 -37 -9 -61 -38 -68
-78 -4 -25 -20 -50 -58 -87 -28 -28 -55 -51 -58 -51 -4 0 -20 -13 -36 -30 -16
-16 -35 -30 -42 -30 -7 0 -13 -7 -13 -15 0 -8 -7 -15 -15 -15 -9 0 -18 -7 -21
-15 -4 -8 -12 -15 -18 -15 -7 0 -25 -13 -41 -30 -16 -16 -33 -30 -38 -30 -6 0
-23 -15 -39 -32 -29 -33 -30 -33 -119 -31 -50 1 -96 6 -102 11 -7 5 -34 12
-61 16 -27 3 -54 10 -60 15 -6 4 -39 11 -74 14 -34 3 -68 10 -75 16 -19 15
-246 25 -279 12 -15 -5 -34 -25 -43 -43 -18 -39 -37 -71 -52 -89 -17 -23 -21
-66 -13 -165 6 -82 10 -96 31 -117 14 -12 28 -29 32 -37 28 -55 56 -87 95
-107 27 -15 98 -17 106 -4 3 4 42 11 86 14 44 3 86 10 93 15 7 5 38 13 69 16
32 4 60 11 63 16 3 5 27 12 53 16 26 3 52 10 57 14 6 4 29 11 52 15 24 4 45
11 49 16 3 5 25 9 50 9 49 0 76 -18 89 -60 8 -24 28 -50 40 -50 10 0 66 -43
116 -90 70 -65 107 -92 161 -118 26 -12 48 -27 48 -32 0 -6 5 -10 11 -10 6 0
22 -9 36 -20 14 -11 36 -20 49 -20 13 0 24 -4 24 -9 0 -6 21 -13 48 -16 26 -4
56 -10 67 -15 11 -5 40 -11 65 -15 24 -3 49 -10 55 -14 5 -5 43 -11 84 -13 40
-3 76 -10 80 -16 3 -5 25 -13 49 -17 23 -4 42 -11 42 -15 0 -5 14 -11 30 -15
17 -4 30 -11 30 -16 0 -5 9 -9 19 -9 11 0 26 -7 35 -15 8 -8 21 -15 28 -15 17
0 128 -57 150 -77 10 -9 18 -12 18 -8 0 5 5 4 12 -3 15 -15 294 -17 303 -2 8
13 122 13 130 0 9 -14 168 -13 183 2 7 7 12 9 12 4 0 -4 12 1 28 12 15 10 32
17 39 15 6 -2 14 1 18 6 3 6 17 11 31 11 13 0 49 13 79 29 30 16 68 32 85 36
16 4 30 11 30 16 0 5 6 9 13 9 8 0 22 9 32 20 10 11 22 20 27 20 15 0 48 40
70 83 25 50 66 97 85 97 7 0 13 5 13 10 0 6 11 10 24 10 25 0 76 -50 76 -74 0
-19 34 -46 57 -46 16 0 23 8 28 32 4 18 11 38 15 43 4 6 10 33 13 60 11 95 57
152 167 207 14 7 41 24 60 38 19 15 61 39 92 54 31 16 71 44 89 62 18 19 38
34 44 34 6 0 32 22 58 48 50 50 62 97 33 121 -7 6 -16 26 -20 44 -6 31 -80
117 -101 117 -6 0 -33 20 -62 45 -28 25 -55 45 -60 45 -13 0 -103 94 -103 107
0 15 -197 213 -211 213 -6 0 -25 10 -42 23 -47 33 -66 44 -127 73 -137 66
-179 84 -198 84 -12 0 -24 4 -27 10 -3 5 -28 12 -55 16 -28 4 -50 10 -50 15 0
4 -115 9 -255 11 -214 2 -257 5 -265 18 -7 11 -34 16 -112 18 -57 2 -110 5
-118 8 -24 9 -240 10 -240 2 0 -12 -55 -9 -67 3 -8 8 -13 8 -17 0z"/>
</g>
</svg>
