<?xml version="1.0" standalone="no"?>
<!DOCTYPE svg PUBLIC "-//W3C//DTD SVG 20010904//EN"
 "http://www.w3.org/TR/2001/REC-SVG-20010904/DTD/svg10.dtd">
<svg version="1.0" xmlns="http://www.w3.org/2000/svg"
 width="420.000000pt" height="215.000000pt" viewBox="0 0 420.000000 215.000000"
 preserveAspectRatio="xMidYMid meet">
<metadata>
Created by potrace 1.13, written by Peter Selinger 2001-2015
</metadata>
<g transform="translate(0.000000,215.000000) scale(0.100000,-0.100000)"
fill="#000000" stroke="none">
<path d="M2215 2131 c-6 -5 -74 -11 -152 -13 -85 -3 -147 -9 -155 -16 -8 -6
-45 -14 -83 -17 -66 -6 -100 -15 -135 -36 -8 -5 -30 -16 -48 -24 -18 -9 -96
-78 -174 -155 -77 -77 -143 -138 -146 -135 -7 6 -195 -168 -239 -222 -25 -30
-37 -56 -41 -88 -6 -54 -41 -95 -83 -95 -15 0 -30 4 -33 9 -3 5 -34 12 -68 16
-34 4 -69 11 -78 15 -8 4 -36 17 -62 30 -27 12 -48 25 -48 28 0 8 -2 9 -94 55
-31 15 -56 32 -56 36 0 5 -14 12 -30 16 -17 4 -30 10 -30 15 0 5 -14 11 -30
15 -17 4 -30 10 -30 15 0 5 -14 11 -30 15 -17 4 -30 10 -30 15 0 5 -13 11 -29
15 -16 3 -32 13 -35 21 -3 8 -17 14 -31 14 -14 0 -25 5 -25 10 0 14 -33 12
-65 -4 -29 -15 -65 -74 -65 -106 0 -11 -4 -20 -10 -20 -5 0 -10 -7 -10 -16 0
-9 -6 -30 -14 -47 -8 -18 -20 -51 -26 -74 -6 -23 -15 -45 -20 -48 -13 -8 -13
-308 -1 -320 6 -6 15 -41 21 -80 15 -97 39 -124 107 -125 23 0 45 5 48 11 4 6
22 9 40 7 19 -1 37 1 41 5 4 4 22 7 40 7 18 0 35 4 39 10 3 5 12 7 19 4 8 -3
17 -1 21 5 3 6 28 11 55 11 27 0 51 4 54 9 3 4 17 6 31 3 14 -2 31 0 38 6 6 6
35 13 62 17 28 4 53 12 56 18 9 13 287 15 297 2 4 -5 16 -15 27 -21 11 -6 28
-26 37 -45 10 -19 36 -55 58 -81 22 -26 40 -50 40 -54 0 -4 11 -22 25 -40 14
-18 25 -37 25 -41 0 -5 29 -41 65 -80 36 -39 65 -75 65 -80 0 -11 85 -96 94
-94 4 1 54 -42 112 -96 58 -54 111 -100 117 -102 7 -2 39 -27 72 -55 33 -28
69 -56 80 -63 46 -28 118 -63 130 -63 7 0 18 -7 25 -15 17 -20 309 -22 328 -3
9 9 63 15 168 18 102 3 157 9 162 17 4 6 20 15 35 18 15 4 27 11 27 16 0 5 25
9 56 9 41 0 63 5 81 20 14 11 39 20 54 20 36 0 61 13 121 66 26 23 61 44 79
48 17 3 47 19 66 36 29 26 41 30 93 30 33 0 60 4 60 9 0 5 8 12 18 15 9 4 35
17 57 31 22 13 54 30 70 38 17 8 39 24 49 36 11 11 25 21 33 21 7 0 16 6 19
14 3 8 19 18 35 21 16 4 29 10 29 15 0 4 20 11 45 14 25 4 45 11 45 16 0 5 14
11 30 15 17 4 30 10 30 15 0 5 13 11 29 15 16 3 32 13 35 21 3 8 11 14 18 14
16 0 228 211 228 227 0 6 3 13 8 15 13 5 82 96 82 107 0 6 4 11 10 11 5 0 14
18 20 40 10 37 8 47 -19 103 -17 37 -51 84 -85 117 -31 30 -56 60 -56 67 0 7
-4 13 -9 13 -5 0 -12 12 -16 27 -3 15 -10 30 -13 33 -4 3 -22 37 -41 75 -19
39 -50 89 -68 112 -18 23 -33 45 -33 50 0 5 -26 34 -58 66 -56 55 -194 136
-234 137 -9 0 -18 5 -20 11 -2 6 -41 13 -88 16 -47 2 -94 8 -105 13 -11 5 -41
11 -67 15 -26 3 -50 10 -53 14 -2 5 -21 12 -40 15 -19 4 -35 11 -35 16 0 6 -7
10 -16 10 -16 0 -47 12 -130 51 -23 10 -47 19 -55 19 -8 0 -23 7 -33 15 -11 8
-32 15 -48 15 -15 0 -28 4 -28 9 0 5 -27 12 -60 16 -33 4 -60 11 -60 15 0 5
-29 12 -65 15 -36 4 -68 12 -71 17 -3 5 -35 8 -70 7 -35 -1 -67 1 -71 4 -3 4
-41 7 -84 7 -43 0 -81 5 -84 10 -8 12 -28 13 -40 1z"/>
</g>
</svg>
