<?xml version="1.0" standalone="no"?>
<!DOCTYPE svg PUBLIC "-//W3C//DTD SVG 20010904//EN"
 "http://www.w3.org/TR/2001/REC-SVG-20010904/DTD/svg10.dtd">
<svg version="1.0" xmlns="http://www.w3.org/2000/svg"
 width="420.000000pt" height="188.000000pt" viewBox="0 0 420.000000 188.000000"
 preserveAspectRatio="xMidYMid meet">
<metadata>
Created by potrace 1.13, written by Peter Selinger 2001-2015
</metadata>
<g transform="translate(0.000000,188.000000) scale(0.100000,-0.100000)"
fill="#000000" stroke="none">
<path d="M2035 1844 c-87 -19 -244 -74 -299 -105 -10 -6 -48 -22 -84 -36 -36
-13 -77 -32 -91 -41 -14 -10 -62 -35 -106 -57 -83 -40 -118 -65 -215 -152 -32
-28 -71 -58 -87 -67 -43 -22 -158 -144 -196 -207 -18 -31 -58 -84 -88 -118
l-54 -61 -110 10 c-61 6 -132 17 -160 25 -27 7 -79 21 -115 30 -36 10 -76 21
-90 25 -14 5 -69 14 -122 20 -116 15 -121 12 -143 -66 -8 -30 -22 -79 -31
-110 -9 -31 -18 -80 -21 -110 -3 -30 -10 -57 -14 -60 -12 -7 -12 -101 0 -106
19 -7 83 -102 102 -153 27 -72 39 -81 115 -77 52 2 85 12 186 58 68 31 150 67
183 81 33 14 65 28 70 33 23 17 112 40 157 40 84 0 129 -35 173 -135 33 -76
154 -196 246 -243 35 -18 91 -49 124 -69 60 -35 89 -45 195 -64 30 -6 77 -15
103 -20 47 -11 121 -20 307 -38 52 -5 108 -14 123 -20 16 -6 38 -11 51 -11 12
0 40 -9 61 -20 37 -19 58 -20 239 -19 147 1 205 5 225 15 14 8 52 14 84 14 38
0 70 7 94 20 21 11 47 20 59 20 46 0 112 32 142 68 16 21 48 46 71 57 39 17
44 17 77 2 47 -23 53 -22 107 14 42 28 50 30 79 20 35 -12 58 -1 58 28 0 42
83 101 142 101 42 0 195 55 246 89 39 25 62 51 87 96 20 35 66 91 107 131 84
79 148 160 148 185 0 10 -6 30 -14 46 -7 15 -21 44 -30 63 -17 37 -34 48 -166
110 -120 57 -150 76 -198 122 -26 25 -65 55 -87 66 -22 11 -51 32 -65 47 -38
41 -141 94 -195 102 -37 5 -59 15 -89 43 -57 52 -102 73 -143 67 -28 -5 -45 2
-106 43 -52 35 -110 61 -211 94 -76 26 -152 54 -169 62 -34 18 -95 40 -247 90
-101 33 -111 34 -250 33 -80 -1 -154 -3 -165 -5z"/>
</g>
</svg>
