<?xml version="1.0" standalone="no"?>
<!DOCTYPE svg PUBLIC "-//W3C//DTD SVG 20010904//EN"
 "http://www.w3.org/TR/2001/REC-SVG-20010904/DTD/svg10.dtd">
<svg version="1.0" xmlns="http://www.w3.org/2000/svg"
 width="189.000000pt" height="197.000000pt" viewBox="0 0 189.000000 197.000000"
 preserveAspectRatio="xMidYMid meet">
<metadata>
Created by potrace 1.13, written by Peter Selinger 2001-2015
</metadata>
<g transform="translate(0.000000,197.000000) scale(0.100000,-0.100000)"
fill="#000000" stroke="none">
<path d="M1245 1938 c-13 -42 -17 -361 -6 -452 6 -49 8 -92 5 -97 -3 -5 -16
-2 -29 7 -26 17 -85 11 -85 -8 0 -6 -3 -9 -6 -6 -3 4 -1 15 5 26 13 25 -8 202
-25 202 -6 0 -26 3 -43 6 -26 6 -31 4 -31 -13 0 -11 3 -23 8 -27 10 -11 31
-128 25 -144 -3 -7 -18 -19 -34 -28 -48 -24 -90 -92 -89 -139 3 -59 3 -59 -31
-26 -28 29 -35 31 -102 31 -40 0 -89 -4 -110 -9 -36 -9 -40 -7 -82 33 -25 23
-45 50 -45 59 0 9 -5 17 -10 17 -7 0 -8 13 -4 35 6 31 4 35 -15 35 -12 0 -24
-6 -27 -13 -3 -9 -16 -12 -34 -9 -35 5 -41 -16 -12 -47 9 -11 32 -43 50 -73
18 -29 47 -63 65 -75 l32 -23 -45 0 c-99 0 -219 -37 -325 -100 -74 -43 -197
-159 -219 -204 -22 -48 -21 -86 3 -86 10 0 21 -9 24 -19 10 -40 182 -40 322
-2 38 11 71 18 73 16 6 -6 -32 -54 -48 -60 -27 -11 -114 -27 -148 -26 -25 1
-32 -3 -32 -19 0 -10 9 -24 20 -30 11 -6 20 -20 20 -30 0 -23 27 -27 44 -6 6
7 40 20 75 29 40 10 59 11 52 4 -6 -6 -11 -19 -11 -29 0 -10 -5 -18 -10 -18
-6 0 -18 -17 -26 -37 -9 -21 -23 -50 -30 -65 -18 -35 -18 -82 1 -98 8 -7 15
-21 15 -31 0 -30 40 -59 80 -59 20 0 41 -5 48 -12 13 -13 92 6 92 23 0 5 12
15 28 22 15 6 45 24 66 39 22 16 41 26 44 24 10 -10 -60 -96 -78 -96 -27 0
-27 -40 0 -47 11 -3 20 -12 20 -19 0 -8 9 -14 20 -14 11 0 20 6 20 14 0 7 7
19 15 26 13 11 15 4 15 -56 0 -74 11 -127 38 -186 16 -35 20 -38 60 -38 23 0
42 5 42 10 0 6 7 10 15 10 8 0 20 9 27 20 7 11 17 20 22 20 23 0 61 66 144
251 36 80 53 166 67 347 8 96 17 177 19 179 16 16 26 -18 26 -86 l0 -79 43
-35 c24 -19 60 -39 80 -42 20 -4 37 -11 37 -16 0 -5 11 -9 24 -9 13 0 26 -7
30 -15 3 -8 15 -15 27 -15 17 0 20 5 17 25 -3 14 -1 28 3 31 5 3 9 14 9 26 0
17 -4 20 -30 15 -16 -4 -32 -2 -35 3 -3 4 -20 12 -38 15 -17 4 -48 14 -67 21
-35 14 -35 14 -32 70 5 76 -13 142 -46 171 -15 13 -30 23 -34 23 -5 0 -8 7 -8
15 0 12 5 13 26 5 47 -18 91 -2 149 56 30 29 55 57 55 62 0 12 98 23 128 16
12 -4 22 -13 22 -20 0 -8 9 -14 20 -14 15 0 20 7 20 25 0 14 5 25 10 25 6 0
10 9 10 20 0 11 -3 20 -7 20 -5 0 -34 4 -66 10 -55 9 -104 4 -177 -17 -24 -6
-24 -6 -7 11 18 19 23 71 7 81 -17 11 -11 45 8 45 9 0 67 -7 127 -15 111 -15
285 -18 340 -6 20 4 31 13 33 27 3 20 -2 21 -170 27 -95 3 -191 11 -213 18
-22 6 -71 12 -110 13 l-70 1 -1 30 c0 17 -4 59 -8 95 -18 171 -24 284 -19 378
6 98 5 102 -14 102 -13 0 -23 -9 -28 -22z m95 -797 c0 -4 -12 -23 -26 -42 -15
-19 -24 -26 -20 -16 3 10 6 31 6 47 0 23 3 27 20 23 11 -3 20 -8 20 -12z"/>
</g>
</svg>
