<?xml version="1.0" standalone="no"?>
<!DOCTYPE svg PUBLIC "-//W3C//DTD SVG 20010904//EN"
 "http://www.w3.org/TR/2001/REC-SVG-20010904/DTD/svg10.dtd">
<svg version="1.0" xmlns="http://www.w3.org/2000/svg"
 width="184.000000pt" height="265.000000pt" viewBox="0 0 184.000000 265.000000"
 preserveAspectRatio="xMidYMid meet">
<metadata>
Created by potrace 1.13, written by Peter Selinger 2001-2015
</metadata>
<g transform="translate(0.000000,265.000000) scale(0.100000,-0.100000)"
fill="#000000" stroke="none">
<path d="M625 2632 c-33 -12 -75 -44 -75 -57 0 -7 -5 -15 -12 -17 -19 -7 -38
-88 -38 -163 1 -100 47 -405 83 -540 32 -121 47 -195 47 -235 l0 -40 -66 0
c-43 0 -75 -6 -94 -17 -27 -16 -30 -15 -82 17 -29 18 -57 38 -63 44 -5 6 -26
19 -46 29 -20 10 -47 28 -60 40 -46 42 -82 59 -127 60 -37 2 -47 -2 -50 -15
-5 -24 17 -44 55 -52 32 -7 63 -27 96 -63 11 -13 24 -23 29 -23 9 0 17 -5 61
-44 16 -14 48 -33 73 -43 24 -10 44 -21 44 -24 0 -16 -57 -66 -82 -72 -33 -9
-62 -49 -55 -77 7 -27 -38 -34 -150 -25 -89 7 -102 3 -103 -35 0 -18 54 -44
75 -36 8 3 15 1 15 -5 0 -7 27 -10 80 -7 70 3 80 1 80 -14 0 -9 -8 -19 -17
-22 -16 -5 -37 -40 -75 -122 -11 -24 -2 -101 13 -110 6 -3 21 -3 35 0 20 5 24
13 24 44 0 43 51 132 76 132 9 0 28 -8 42 -19 40 -27 67 -33 107 -22 l36 10
-26 -30 c-14 -17 -25 -38 -25 -47 0 -9 -14 -44 -30 -76 -17 -32 -30 -73 -30
-90 -1 -30 -18 -59 -84 -141 -20 -25 -30 -51 -34 -84 -4 -44 -2 -49 19 -54 43
-12 49 -8 49 26 0 32 46 110 101 172 15 18 31 63 59 173 8 32 29 66 36 59 13
-13 -62 -240 -126 -382 -74 -166 -99 -263 -99 -395 -1 -90 17 -154 55 -197 27
-30 40 -37 82 -41 87 -8 127 7 194 71 10 9 18 31 18 47 0 20 5 30 15 30 8 0
15 9 15 20 0 11 3 20 8 20 9 0 32 72 32 102 0 13 5 30 10 38 8 13 10 13 10 -2
0 -9 8 -33 18 -52 14 -28 24 -35 57 -41 24 -4 41 -2 43 5 2 5 12 10 23 10 12
0 19 7 19 20 0 11 6 20 14 20 15 0 46 118 46 175 0 19 5 35 11 37 7 2 7 23 0
68 -5 36 -12 97 -15 136 l-5 72 107 7 c100 6 110 5 145 -15 37 -22 111 -92
126 -118 5 -9 20 -11 49 -6 32 5 42 11 42 25 0 11 -7 19 -16 19 -16 0 -29 12
-95 86 -15 16 -39 38 -53 49 -15 11 -33 26 -41 32 -18 17 -43 16 -147 -4 -49
-9 -90 -14 -93 -11 -3 3 -6 27 -6 54 -1 27 -8 63 -15 80 -13 27 -35 134 -28
134 1 0 9 -6 16 -12 38 -36 85 -60 169 -89 51 -17 100 -39 108 -47 9 -9 50
-32 91 -51 69 -33 82 -36 161 -35 58 0 96 6 119 17 18 9 40 17 49 17 9 0 32
18 51 41 19 23 40 46 46 53 55 59 106 208 85 252 l-12 27 -89 -7 c-78 -7 -90
-5 -90 8 0 9 7 16 15 16 8 0 15 9 15 19 0 26 -28 31 -174 30 l-125 0 -53 51
c-119 116 -177 124 -268 38 -29 -27 -54 -48 -55 -46 -2 2 0 24 5 49 5 25 5 72
1 105 -5 32 -7 60 -6 62 2 2 36 8 76 13 79 10 135 26 160 46 8 7 23 13 32 13
9 0 19 5 23 11 4 7 22 9 50 4 29 -4 44 -2 44 4 0 6 9 11 20 11 31 0 26 38 -7
51 -35 14 -119 6 -158 -15 -52 -27 -99 -44 -137 -49 -35 -5 -38 -4 -38 19 0
13 4 24 9 24 12 0 12 83 -1 91 -5 3 -5 17 2 33 14 38 13 56 -5 56 -8 0 -15 5
-15 10 0 6 5 10 10 10 6 0 10 9 10 20 0 11 7 23 15 26 11 5 14 22 14 70 -1 35
-4 64 -8 64 -5 0 -13 11 -19 25 -8 18 -19 25 -39 25 -27 0 -29 4 -39 58 -15
76 -45 139 -88 187 -20 21 -36 43 -36 47 0 4 -7 8 -15 8 -8 0 -15 9 -15 20 0
11 -6 23 -14 26 -8 3 -17 16 -20 30 -4 13 -11 24 -16 24 -6 0 -10 6 -10 14 0
33 -105 66 -155 48z m39 -367 c5 -22 4 -26 -4 -15 -5 8 -10 24 -10 34 0 26 6
18 14 -19z m81 -72 c-3 -13 -10 -23 -16 -23 -6 0 -8 7 -5 16 3 9 6 30 7 47 0
31 0 32 10 7 6 -13 7 -35 4 -47z m-95 -48 c0 -8 -7 -15 -15 -15 -8 0 -15 7
-15 15 0 8 7 15 15 15 8 0 15 -7 15 -15z m72 -17 c3 -29 7 -33 31 -33 32 -1
42 -13 50 -67 4 -29 2 -38 -9 -38 -8 0 -14 9 -14 20 0 11 -4 20 -10 20 -5 0
-10 9 -10 20 0 13 -7 20 -20 20 -11 0 -20 -7 -20 -15 0 -8 -7 -15 -16 -15 -8
0 -12 5 -9 11 13 20 -5 59 -28 60 l-22 2 23 4 c14 3 22 12 22 24 0 33 28 22
32 -13z m85 10 c-3 -8 -6 -5 -6 6 -1 11 2 17 5 13 3 -3 4 -12 1 -19z m140
-130 c-3 -8 -6 -5 -6 6 -1 11 2 17 5 13 3 -3 4 -12 1 -19z m-259 -17 c3 -8 -1
-12 -9 -9 -7 2 -15 10 -17 17 -3 8 1 12 9 9 7 -2 15 -10 17 -17z m76 -16 c-4
-8 -8 -15 -10 -15 -2 0 -4 7 -4 15 0 8 4 15 10 15 5 0 7 -7 4 -15z m-64 -56
c0 -18 -2 -19 -15 -5 -8 8 -15 17 -15 20 0 3 7 6 15 6 9 0 15 -9 15 -21z m213
-84 c-3 -9 -8 -14 -10 -11 -3 3 -2 9 2 15 9 16 15 13 8 -4z m52 -55 c3 -5 1
-10 -4 -10 -6 0 -11 5 -11 10 0 6 2 10 4 10 3 0 8 -4 11 -10z m-45 -320 c1 -8
2 -28 1 -45 -2 -28 -3 -27 -16 14 -8 25 -11 49 -8 54 7 11 21 -3 23 -23z m310
-82 c28 -29 60 -63 72 -75 21 -22 94 -39 127 -28 28 9 171 13 171 5 0 -4 -34
-10 -76 -13 -93 -8 -144 -30 -250 -107 -84 -61 -115 -71 -157 -49 -41 22 -157
111 -157 121 0 15 77 88 93 88 7 0 37 24 67 54 30 29 56 54 57 55 1 0 25 -23
53 -51z m-362 -321 c2 -74 1 -80 -12 -62 -8 12 -15 27 -17 35 -4 21 12 110 20
110 3 0 7 -37 9 -83z m-271 -259 c-3 -7 -5 -2 -5 12 0 14 2 19 5 13 2 -7 2
-19 0 -25z m153 -88 l-7 -65 -1 52 c-2 43 6 91 12 81 1 -2 -1 -32 -4 -68z
m-190 50 c0 -5 9 -10 20 -10 15 0 20 -7 20 -25 0 -15 6 -25 14 -25 12 0 32
-58 23 -67 -11 -10 -37 12 -37 32 0 13 -7 30 -15 39 -8 8 -15 19 -15 25 0 6
-7 11 -15 11 -8 0 -15 7 -15 15 0 8 5 15 10 15 6 0 10 -4 10 -10z m11 -160 c5
0 9 -4 9 -10 0 -5 -9 -10 -20 -10 -16 0 -20 -7 -20 -30 0 -16 -4 -30 -10 -30
-13 0 -13 10 5 60 8 23 16 54 17 69 1 17 3 13 5 -11 2 -21 8 -38 14 -38z m249
18 c0 -7 3 -23 6 -35 5 -20 2 -23 -19 -23 -14 0 -29 5 -32 10 -3 6 1 10 9 10
10 0 16 9 16 25 0 14 5 25 10 25 6 0 10 -6 10 -12z m-193 -60 c-3 -7 -5 -2 -5
12 0 14 2 19 5 13 2 -7 2 -19 0 -25z m-100 -133 c-4 -8 -11 -15 -17 -15 -14 0
-13 27 3 33 16 6 21 1 14 -18z m73 -86 c0 -5 -7 -9 -15 -9 -8 0 -15 7 -15 15
0 9 6 12 15 9 8 -4 15 -10 15 -15z"/>
</g>
</svg>
