<?xml version="1.0" standalone="no"?>
<!DOCTYPE svg PUBLIC "-//W3C//DTD SVG 20010904//EN"
 "http://www.w3.org/TR/2001/REC-SVG-20010904/DTD/svg10.dtd">
<svg version="1.0" xmlns="http://www.w3.org/2000/svg"
 width="274.000000pt" height="258.000000pt" viewBox="0 0 274.000000 258.000000"
 preserveAspectRatio="xMidYMid meet">
<metadata>
Created by potrace 1.13, written by Peter Selinger 2001-2015
</metadata>
<g transform="translate(0.000000,258.000000) scale(0.100000,-0.100000)"
fill="#000000" stroke="none">
<path d="M1279 2552 c-47 -51 -70 -195 -66 -409 l4 -143 -28 0 c-38 0 -69 -67
-69 -150 0 -33 3 -60 8 -60 4 0 8 -19 9 -42 2 -59 29 -145 104 -332 19 -46 19
-48 2 -41 -32 13 -116 33 -190 46 -73 12 -181 7 -229 -11 -14 -6 -65 -12 -112
-14 -84 -3 -87 -4 -114 -37 -38 -45 -37 -75 3 -84 17 -4 31 -5 32 -3 21 39 28
44 88 54 106 19 232 34 288 34 44 0 54 -3 58 -20 5 -17 14 -20 59 -20 83 0
136 -18 160 -54 18 -28 19 -35 8 -61 -7 -17 -13 -45 -14 -62 0 -18 -4 -33 -10
-33 -5 0 -10 4 -10 10 0 5 -11 21 -25 35 -26 25 -65 34 -65 15 0 -6 -28 -10
-64 -10 -36 0 -104 -11 -157 -25 -127 -34 -245 -60 -359 -81 -52 -9 -104 -21
-115 -27 -11 -6 -36 -14 -55 -18 -74 -16 -166 -40 -185 -48 -92 -39 -115 -54
-115 -73 0 -16 5 -19 25 -16 14 3 25 1 25 -3 0 -15 29 -10 78 15 53 27 106 41
140 37 13 -1 28 2 35 7 7 5 26 12 42 15 17 3 57 16 90 28 45 17 83 23 155 23
76 1 103 6 135 22 22 12 76 31 120 44 44 12 92 26 108 31 21 6 27 5 27 -7 0
-7 5 -14 10 -14 6 0 10 -6 10 -13 0 -7 -46 -29 -107 -51 -60 -21 -121 -44
-138 -51 -51 -22 -157 -53 -220 -65 -73 -14 -206 -76 -212 -98 -2 -10 -47 -39
-99 -67 -83 -43 -95 -53 -91 -72 4 -22 2 -22 -122 -25 l-126 -3 -3 -26 c-4
-35 12 -39 173 -39 88 0 150 5 190 16 41 11 80 14 122 10 62 -6 239 10 258 23
6 4 46 18 90 30 98 28 140 44 231 87 141 66 171 75 189 58 26 -26 17 -41 -37
-64 -74 -32 -218 -80 -240 -80 -10 0 -18 -6 -18 -14 0 -8 -49 -33 -122 -62
-68 -26 -125 -51 -128 -55 -5 -7 -49 -16 -122 -25 -27 -4 -48 -10 -48 -15 0
-5 -13 -6 -29 -3 -16 4 -32 1 -35 -5 -11 -16 -46 -13 -46 4 0 23 -41 19 -47
-5 -3 -11 -14 -20 -25 -20 -14 0 -19 -6 -16 -23 3 -20 11 -23 80 -31 71 -8 88
-6 200 24 138 37 271 85 338 124 25 14 55 26 66 26 12 0 73 24 135 54 63 30
131 61 151 70 23 9 43 26 50 43 7 15 19 34 26 42 9 9 11 26 7 51 -7 43 2 53
46 52 35 -1 53 -17 63 -55 6 -24 0 -35 -44 -81 -28 -30 -64 -59 -80 -66 -21
-9 -30 -19 -30 -35 0 -13 -20 -44 -50 -75 -27 -29 -50 -55 -50 -58 0 -4 -12
-18 -26 -32 -53 -52 -104 -116 -104 -131 0 -9 -16 -31 -35 -50 -42 -41 -47
-74 -10 -67 21 4 25 1 25 -18 0 -36 38 -33 46 4 13 57 61 135 127 204 37 39
67 75 67 79 0 5 3 9 8 9 4 1 23 23 41 49 19 27 45 55 57 62 20 13 64 62 108
121 22 30 52 27 60 -7 3 -13 15 -27 26 -30 20 -6 70 -94 70 -124 0 -21 32 -91
42 -91 4 0 8 -11 8 -25 0 -14 4 -25 9 -25 5 0 12 -13 16 -29 3 -17 14 -31 26
-34 10 -3 19 -12 19 -21 0 -9 7 -16 15 -16 8 0 15 -4 15 -9 0 -13 59 -41 87
-41 12 0 23 6 23 13 0 6 11 17 25 24 16 7 25 7 25 1 0 -15 107 -118 123 -118
7 0 19 -10 27 -22 25 -35 88 -88 107 -88 7 0 16 -7 19 -15 4 -8 14 -15 25 -15
10 0 22 -6 26 -13 9 -13 44 -32 80 -42 12 -3 40 -1 62 5 31 8 42 17 47 37 15
56 -71 255 -160 373 -30 40 -110 130 -178 202 -67 71 -134 143 -148 160 -14
17 -42 50 -62 72 -21 23 -38 44 -38 48 0 3 60 4 133 1 99 -5 143 -11 177 -26
25 -10 56 -23 70 -27 14 -5 50 -18 80 -29 30 -12 65 -21 78 -21 13 0 49 -7 79
-16 84 -24 163 -5 163 39 0 14 -34 26 -70 25 -8 0 -42 4 -74 11 -33 6 -75 11
-93 11 -18 0 -33 5 -33 10 0 6 -10 10 -22 10 -13 0 -37 9 -55 20 -17 10 -59
25 -92 31 -47 10 -61 17 -61 31 0 22 -17 23 -109 2 -77 -17 -101 -11 -101 27
0 13 -10 20 -35 25 -19 3 -35 10 -35 14 0 5 -3 16 -7 25 -5 15 -1 16 35 10 28
-4 42 -3 42 4 0 6 11 11 25 11 14 0 25 6 25 13 0 14 35 47 49 47 5 0 12 11 15
25 5 20 11 24 29 20 31 -7 316 -25 393 -25 61 0 64 1 64 24 0 24 -2 24 -117
30 -65 3 -152 11 -193 16 -41 6 -94 10 -117 10 -43 0 -43 0 -43 35 0 25 -8 44
-25 61 -29 29 -27 45 11 106 13 20 26 48 30 62 3 15 10 29 15 32 5 3 9 14 9
25 0 10 5 19 10 19 6 0 10 9 10 19 0 11 4 21 8 23 4 2 18 24 30 51 12 26 26
47 31 47 5 0 13 10 17 22 3 12 17 33 30 47 33 35 32 61 -3 61 -27 0 -83 -51
-83 -76 0 -7 -6 -17 -13 -21 -7 -4 -51 -84 -98 -178 l-86 -170 -71 3 c-52 2
-80 -2 -104 -14 -47 -25 -118 -23 -78 1 6 3 10 16 10 29 0 25 62 66 99 66 14
0 21 6 21 20 0 11 -5 20 -12 20 -6 0 13 24 43 53 30 28 61 65 69 80 8 16 28
38 45 50 16 12 36 27 43 34 7 7 27 13 43 13 22 0 29 5 29 20 0 11 -6 23 -13
26 -9 3 -12 16 -9 34 4 25 1 30 -16 30 -12 0 -23 -9 -27 -20 -3 -11 -12 -20
-18 -20 -6 0 -20 -9 -32 -20 -32 -32 -79 -70 -87 -70 -5 0 -8 -6 -8 -13 0 -7
-9 -19 -20 -27 -11 -8 -20 -18 -20 -23 0 -5 -10 -22 -22 -37 -13 -16 -30 -37
-38 -47 -8 -11 -29 -25 -46 -32 -17 -7 -48 -30 -70 -52 -21 -21 -43 -39 -49
-39 -13 0 -48 -46 -55 -72 -3 -11 -20 105 -38 258 -18 154 -37 311 -43 349
-49 348 -121 529 -220 549 -44 8 -52 7 -70 -12z"/>
</g>
</svg>
