<?xml version="1.0" standalone="no"?>
<!DOCTYPE svg PUBLIC "-//W3C//DTD SVG 20010904//EN"
 "http://www.w3.org/TR/2001/REC-SVG-20010904/DTD/svg10.dtd">
<svg version="1.0" xmlns="http://www.w3.org/2000/svg"
 width="240.000000pt" height="236.000000pt" viewBox="0 0 240.000000 236.000000"
 preserveAspectRatio="xMidYMid meet">
<metadata>
Created by potrace 1.13, written by Peter Selinger 2001-2015
</metadata>
<g transform="translate(0.000000,236.000000) scale(0.100000,-0.100000)"
fill="#000000" stroke="none">
<path d="M946 2327 c-28 -28 -60 -112 -76 -198 -13 -67 -7 -298 10 -374 5 -22
11 -120 14 -218 6 -195 8 -188 -47 -133 -11 10 -43 29 -73 43 -29 13 -56 33
-59 43 -3 11 -45 55 -92 100 -65 60 -93 80 -114 80 -15 0 -31 5 -34 10 -3 6
-15 10 -26 10 -14 0 -19 -7 -19 -25 0 -14 5 -25 10 -25 6 0 10 -9 10 -20 0
-16 7 -20 31 -20 24 0 39 -9 68 -42 20 -23 45 -49 55 -57 43 -36 76 -75 76
-91 0 -12 17 -22 60 -35 33 -10 60 -24 60 -30 0 -7 7 -18 15 -25 21 -18 19
-29 -5 -23 -13 4 -26 -1 -35 -13 -14 -18 -14 -18 -15 1 0 38 -87 56 -173 36
-29 -7 -41 -6 -50 5 -7 8 -18 21 -24 29 -7 7 -13 18 -13 24 0 6 -4 11 -9 11
-5 0 -11 8 -15 18 -16 48 -132 184 -175 206 -44 23 -91 21 -91 -4 0 -12 7 -20
18 -20 19 -1 102 -72 102 -89 0 -6 6 -11 13 -11 8 0 22 -16 33 -35 10 -19 22
-35 26 -35 5 0 8 -5 8 -11 0 -6 20 -40 45 -75 40 -58 43 -66 34 -94 -6 -17 -9
-37 -6 -44 6 -15 -6 -21 -118 -57 -38 -12 -74 -25 -80 -29 -21 -17 -143 -43
-205 -44 -59 -1 -65 -3 -68 -23 -3 -19 3 -22 50 -28 78 -9 177 10 306 61 63
24 121 44 129 44 9 0 26 -11 39 -25 13 -14 28 -25 34 -25 5 0 10 -4 10 -10 0
-6 28 -10 63 -10 51 0 67 -4 89 -23 l27 -24 -69 -23 c-62 -21 -75 -22 -126
-11 -32 6 -66 11 -76 11 -22 0 -25 -35 -2 -44 25 -10 5 -26 -32 -26 -19 0 -51
-7 -71 -15 -21 -9 -49 -13 -63 -10 -15 3 -40 -1 -58 -11 -32 -15 -58 -15 -124
1 -24 6 -28 4 -28 -14 0 -11 -4 -21 -10 -21 -5 0 -10 -8 -10 -19 0 -14 10 -19
49 -24 88 -10 269 19 353 57 29 13 78 29 108 35 56 12 140 19 140 12 0 -2 -37
-74 -82 -160 -160 -306 -187 -363 -214 -449 -17 -53 -29 -119 -32 -168 -4 -74
-2 -84 18 -104 18 -18 30 -21 57 -17 76 13 134 53 218 151 22 26 47 55 55 64
8 10 29 44 47 77 l32 60 50 -3 c47 -4 52 -1 95 40 43 42 91 130 131 241 9 26
21 47 27 47 12 0 158 -149 158 -162 0 -4 5 -8 10 -8 6 0 52 -30 102 -66 51
-36 99 -69 107 -72 8 -3 23 -14 33 -24 24 -24 58 -24 58 1 0 11 -6 22 -12 24
-7 3 -3 6 10 6 32 1 31 41 -1 41 -13 0 -33 9 -44 19 -11 11 -53 36 -92 55 -39
20 -77 45 -83 56 -7 11 -18 20 -24 20 -7 0 -55 46 -108 101 -72 77 -94 105
-86 115 6 7 10 33 9 58 -2 25 0 49 4 52 4 4 7 0 7 -9 0 -10 9 -25 20 -34 11
-10 20 -23 20 -30 0 -7 7 -13 15 -13 8 0 15 -4 15 -10 0 -5 11 -10 25 -10 13
0 48 -9 77 -21 93 -37 141 -47 254 -52 62 -3 120 -10 130 -16 47 -25 137 -41
242 -41 152 0 202 8 202 31 0 11 -4 19 -10 19 -5 0 -10 9 -10 20 0 22 -28 28
-47 9 -16 -16 -223 -16 -233 1 -9 15 -77 29 -142 30 -41 0 -46 2 -41 20 4 15
14 20 42 20 42 0 195 47 231 71 14 9 41 19 60 22 96 14 166 29 175 38 5 5 19
9 31 9 13 0 25 4 29 9 3 5 18 12 34 16 40 9 81 46 81 73 0 18 -6 22 -33 22
-18 0 -37 -4 -42 -9 -11 -10 -155 -61 -172 -61 -6 0 -8 11 -6 23 4 19 -1 26
-24 35 -70 27 -130 35 -293 38 -160 2 -359 17 -402 30 -29 9 -20 21 20 28 60
10 240 7 247 -4 12 -19 45 -11 45 11 0 21 2 22 113 15 61 -4 159 -9 217 -11
58 -3 122 -10 143 -17 30 -9 40 -9 46 1 6 9 15 9 35 1 43 -16 56 -13 56 15 0
14 5 25 10 25 6 0 10 9 10 19 0 18 -8 19 -102 19 -116 -1 -417 9 -523 17 -43
3 -126 -2 -215 -14 -79 -11 -148 -17 -153 -14 -15 9 -67 -9 -67 -23 0 -8 -7
-14 -15 -14 -8 0 -15 -4 -15 -9 0 -4 -18 -4 -39 2 l-39 11 39 25 c21 14 49 44
61 68 20 37 30 45 75 58 28 8 63 15 77 15 19 0 26 5 26 20 0 12 -7 20 -17 20
-24 0 12 19 97 50 36 13 69 30 73 37 4 7 21 13 37 13 17 0 30 5 30 10 0 6 10
10 23 10 13 0 27 4 33 8 15 14 88 32 128 32 29 0 36 4 36 19 0 11 -6 22 -12
24 -8 3 -6 6 5 6 11 1 17 9 17 26 0 21 -5 25 -29 25 -16 0 -36 -6 -43 -13 -7
-7 -29 -18 -48 -24 -123 -41 -332 -125 -355 -143 -5 -4 -36 -21 -67 -38 l-56
-30 -6 24 c-4 13 -6 99 -5 191 1 220 -16 273 -86 273 -32 0 -32 0 -39 63 -10
93 -58 259 -87 299 -10 15 -19 30 -19 34 0 3 -9 19 -21 35 -26 38 -79 40 -113
6z m581 -1488 c73 -12 130 -26 127 -31 -8 -13 -126 -9 -180 6 -27 8 -65 17
-84 20 -19 3 -41 15 -47 25 -11 18 -10 19 20 11 18 -5 91 -18 164 -31z"/>
</g>
</svg>
