<?xml version="1.0" standalone="no"?>
<!DOCTYPE svg PUBLIC "-//W3C//DTD SVG 20010904//EN"
 "http://www.w3.org/TR/2001/REC-SVG-20010904/DTD/svg10.dtd">
<svg version="1.0" xmlns="http://www.w3.org/2000/svg"
 width="274.000000pt" height="258.000000pt" viewBox="0 0 274.000000 258.000000"
 preserveAspectRatio="xMidYMid meet">
<metadata>
Created by potrace 1.13, written by Peter Selinger 2001-2015
</metadata>
<g transform="translate(0.000000,258.000000) scale(0.100000,-0.100000)"
fill="#000000" stroke="none">
<path d="M1383 2563 c-56 -11 -114 -107 -156 -258 -36 -131 -48 -207 -99 -639
-18 -153 -35 -269 -38 -258 -7 26 -42 72 -55 72 -6 0 -28 18 -49 39 -22 22
-53 45 -70 52 -17 7 -38 21 -46 32 -8 10 -25 31 -37 47 -13 15 -23 32 -23 37
0 5 -9 15 -20 23 -11 8 -20 20 -20 27 0 7 -3 13 -7 13 -9 0 -56 38 -88 70 -12
11 -26 20 -32 20 -6 0 -15 9 -18 20 -4 11 -15 20 -27 20 -17 0 -20 -5 -16 -30
3 -18 0 -31 -9 -34 -7 -3 -13 -15 -13 -26 0 -15 7 -20 29 -20 16 0 36 -6 43
-13 7 -7 27 -22 43 -34 17 -12 37 -34 45 -50 8 -15 39 -52 69 -80 30 -29 49
-53 43 -53 -7 0 -12 -9 -12 -20 0 -14 7 -20 21 -20 37 0 99 -41 99 -66 0 -13
5 -26 10 -29 40 -24 -31 -26 -78 -1 -24 12 -52 16 -104 14 l-71 -3 -86 170
c-47 94 -91 174 -98 178 -7 4 -13 14 -13 21 0 25 -56 76 -83 76 -35 0 -36 -26
-3 -61 13 -14 27 -35 30 -47 4 -12 12 -22 17 -22 5 0 19 -21 31 -47 12 -27 26
-49 30 -51 4 -2 8 -12 8 -23 0 -10 5 -19 10 -19 6 0 10 -9 10 -19 0 -11 4 -22
9 -25 5 -3 12 -17 15 -32 4 -14 17 -42 30 -62 38 -61 40 -77 11 -106 -17 -17
-25 -36 -25 -61 0 -35 0 -35 -42 -35 -24 0 -77 -4 -118 -10 -41 -5 -128 -13
-192 -16 -116 -6 -118 -6 -118 -30 0 -23 3 -24 64 -24 77 0 362 18 393 25 18
4 24 0 29 -20 3 -14 10 -25 15 -25 14 0 49 -33 49 -47 0 -7 11 -13 25 -13 14
0 25 -5 25 -11 0 -7 14 -8 42 -4 36 6 40 5 35 -10 -4 -9 -7 -20 -7 -25 0 -4
-16 -11 -35 -14 -25 -5 -35 -12 -35 -25 0 -38 -24 -44 -101 -27 -92 21 -109
20 -109 -2 0 -14 -14 -21 -61 -31 -33 -6 -75 -21 -92 -31 -18 -11 -42 -20 -54
-20 -13 0 -23 -4 -23 -10 0 -5 -15 -10 -33 -10 -18 0 -60 -5 -93 -11 -32 -7
-66 -11 -74 -11 -36 1 -70 -11 -70 -25 0 -44 79 -63 163 -39 30 9 66 16 79 16
13 0 48 9 78 21 30 11 66 24 80 29 14 4 45 17 70 27 34 15 78 21 178 26 72 3
132 2 132 -1 0 -4 -17 -25 -38 -48 -20 -22 -48 -55 -62 -72 -14 -17 -81 -89
-148 -160 -68 -72 -148 -162 -178 -202 -89 -118 -175 -317 -160 -373 5 -20 16
-29 47 -37 22 -6 50 -8 62 -5 36 10 71 29 80 42 4 7 16 13 26 13 11 0 21 7 25
15 3 8 12 15 19 15 19 0 82 53 107 88 8 12 20 22 27 22 16 0 123 103 123 118
0 6 9 6 25 -1 14 -7 25 -18 25 -24 0 -7 11 -13 23 -13 28 0 87 28 87 41 0 5 7
9 15 9 8 0 15 7 15 16 0 9 9 18 19 21 12 3 23 17 26 34 4 16 11 29 16 29 5 0
9 11 9 25 0 14 4 25 8 25 10 0 42 70 42 91 0 30 50 118 70 124 11 3 23 17 26
30 8 34 38 37 60 7 44 -59 88 -108 108 -121 12 -7 38 -35 57 -62 18 -26 37
-48 42 -49 4 0 7 -4 7 -9 0 -4 30 -40 68 -79 65 -69 113 -147 126 -204 8 -37
46 -40 46 -4 0 19 4 22 25 18 37 -7 32 26 -10 67 -19 19 -35 41 -35 50 0 15
-51 79 -104 131 -14 14 -26 28 -26 32 0 3 -22 29 -50 58 -30 31 -50 62 -50 75
0 16 -9 26 -30 35 -16 7 -52 36 -80 66 -44 46 -50 57 -44 81 10 38 28 54 63
55 44 1 53 -9 46 -52 -4 -25 -2 -42 7 -51 7 -8 19 -27 26 -42 7 -17 27 -34 50
-43 20 -9 88 -40 151 -70 62 -30 123 -54 135 -54 11 0 41 -12 66 -26 67 -39
200 -87 338 -124 112 -30 129 -32 200 -24 69 8 77 11 80 31 3 17 -2 23 -16 23
-11 0 -22 9 -25 20 -6 24 -47 28 -47 5 0 -17 -35 -20 -46 -4 -3 6 -19 9 -35 5
-16 -3 -29 -2 -29 3 0 5 -21 11 -47 15 -74 9 -118 18 -123 25 -3 4 -60 29
-127 55 -74 29 -123 54 -123 62 0 8 -8 14 -18 14 -22 0 -166 48 -239 80 -55
23 -64 38 -38 64 18 17 48 8 189 -58 91 -43 133 -59 231 -87 44 -12 85 -26 90
-30 19 -13 196 -29 258 -23 42 4 81 1 122 -10 40 -11 102 -16 190 -16 161 0
177 4 173 39 l-3 26 -126 3 c-124 3 -126 3 -122 25 4 19 -8 29 -91 72 -52 28
-97 57 -99 67 -6 22 -139 84 -212 98 -63 12 -169 43 -220 65 -16 7 -78 30
-137 51 -62 22 -108 44 -108 51 0 7 5 13 10 13 6 0 10 7 10 14 0 12 6 13 28 7
15 -5 63 -19 107 -31 44 -13 98 -32 120 -44 32 -16 59 -21 135 -22 72 0 110
-6 155 -23 33 -12 74 -25 90 -28 17 -3 35 -10 42 -15 7 -5 22 -8 35 -7 34 4
87 -10 140 -37 49 -25 78 -30 78 -15 0 4 11 6 25 3 20 -3 25 0 25 16 0 19 -23
34 -115 73 -19 8 -111 32 -185 48 -19 4 -44 12 -55 18 -11 6 -63 18 -115 27
-114 21 -232 47 -359 81 -53 14 -121 25 -157 25 -36 0 -64 4 -64 10 0 19 -39
10 -65 -15 -14 -14 -25 -30 -25 -35 0 -6 -4 -10 -10 -10 -5 0 -10 15 -10 33
-1 17 -7 45 -14 62 -11 26 -10 33 8 61 24 36 77 54 160 54 45 0 54 3 59 20 4
17 14 20 58 20 56 0 182 -15 288 -34 60 -10 67 -15 88 -54 1 -2 15 -1 32 3 40
9 41 39 3 84 -27 33 -30 34 -114 37 -47 2 -98 8 -112 14 -48 18 -156 23 -229
11 -74 -13 -158 -33 -190 -46 -17 -7 -17 -5 2 41 75 187 102 273 104 332 1 23
5 42 10 42 4 0 7 27 7 60 0 83 -31 150 -69 150 l-28 0 4 143 c4 218 -19 362
-68 410 -18 17 -32 19 -76 10z"/>
</g>
</svg>
