<?xml version="1.0" standalone="no"?>
<!DOCTYPE svg PUBLIC "-//W3C//DTD SVG 20010904//EN"
 "http://www.w3.org/TR/2001/REC-SVG-20010904/DTD/svg10.dtd">
<svg version="1.0" xmlns="http://www.w3.org/2000/svg"
 width="640.000000pt" height="480.000000pt" viewBox="0 0 640.000000 480.000000"
 preserveAspectRatio="xMidYMid meet">
<metadata>
Created by potrace 1.13, written by Peter Selinger 2001-2015
</metadata>
<g transform="translate(0.000000,480.000000) scale(0.100000,-0.100000)"
fill="#000000" stroke="none">
<path d="M2406 4307 c-26 -26 -22 7 -47 -452 -11 -216 -38 -546 -46 -558 -9
-15 -36 17 -62 73 -23 50 -26 68 -29 215 -1 88 1 231 5 318 5 91 4 165 -1 174
-5 10 -5 28 2 47 26 71 -31 196 -89 196 -29 0 -97 -37 -109 -60 -14 -26 -35
-403 -35 -635 0 -181 1 -193 26 -250 28 -66 108 -177 145 -202 13 -8 24 -23
24 -33 0 -10 11 -42 24 -71 l24 -54 -8 -335 c-8 -357 -4 -322 -80 -700 -14
-71 -22 -177 -30 -415 -6 -176 -13 -333 -15 -350 -3 -16 -6 -251 -7 -521 -1
-490 -1 -491 21 -537 35 -73 71 -97 142 -97 112 0 141 30 227 231 71 168 86
241 102 484 6 94 15 229 20 300 5 72 9 221 10 331 0 178 3 213 23 295 13 52
30 124 37 161 6 37 26 112 42 165 16 54 40 136 53 183 12 47 34 111 49 143 14
31 35 85 47 120 35 106 110 271 138 302 47 55 151 217 214 335 65 122 125 334
157 560 13 94 18 116 56 275 27 111 37 251 22 306 -8 28 -54 46 -72 29 -5 -5
-35 -113 -67 -240 -33 -128 -62 -236 -65 -241 -3 -5 -21 -64 -39 -131 -19 -68
-50 -154 -68 -193 -131 -274 -145 -300 -206 -359 -34 -33 -61 -63 -61 -68 0
-4 -18 -20 -40 -34 -46 -30 -81 -27 -105 9 -13 21 -12 48 15 273 42 353 48
395 70 524 12 68 23 185 27 287 l6 171 -26 26 c-32 32 -61 33 -91 3 -21 -21
-23 -33 -29 -182 -4 -103 -15 -213 -32 -310 -14 -82 -30 -190 -35 -240 -5 -49
-20 -189 -34 -310 -14 -121 -26 -224 -26 -228 0 -11 -115 51 -134 72 -13 15
-14 27 -6 72 18 97 39 300 50 489 37 652 37 604 5 635 -30 31 -59 32 -89 2z"/>
</g>
</svg>
