<?xml version="1.0" standalone="no"?>
<!DOCTYPE svg PUBLIC "-//W3C//DTD SVG 20010904//EN"
 "http://www.w3.org/TR/2001/REC-SVG-20010904/DTD/svg10.dtd">
<svg version="1.0" xmlns="http://www.w3.org/2000/svg"
 width="640.000000pt" height="480.000000pt" viewBox="0 0 640.000000 480.000000"
 preserveAspectRatio="xMidYMid meet">
<metadata>
Created by potrace 1.13, written by Peter Selinger 2001-2015
</metadata>
<g transform="translate(0.000000,480.000000) scale(0.100000,-0.100000)"
fill="#000000" stroke="none">
<path d="M820 3340 l0 -130 558 0 c421 0 561 -3 570 -12 8 -8 12 -50 12 -125
l0 -113 -555 0 -555 0 0 -135 0 -135 555 0 555 0 0 -115 0 -115 -550 0 -550 0
0 -135 0 -135 518 -2 c284 -1 532 -2 550 -3 l32 0 0 -101 c0 -92 -2 -102 -23
-122 l-23 -22 -532 0 -532 0 0 -130 0 -129 568 -3 c312 -2 701 -2 865 0 l298
3 -3 274 -3 275 1488 0 1487 0 0 280 0 280 -1485 0 -1485 0 0 333 0 334 -407
6 c-223 4 -619 7 -880 7 l-473 0 0 -130z"/>
</g>
</svg>
