<?xml version="1.0" standalone="no"?>
<!DOCTYPE svg PUBLIC "-//W3C//DTD SVG 20010904//EN"
 "http://www.w3.org/TR/2001/REC-SVG-20010904/DTD/svg10.dtd">
<svg version="1.0" xmlns="http://www.w3.org/2000/svg"
 width="640.000000pt" height="480.000000pt" viewBox="0 0 640.000000 480.000000"
 preserveAspectRatio="xMidYMid meet">
<metadata>
Created by potrace 1.13, written by Peter Selinger 2001-2015
</metadata>
<g transform="translate(0.000000,480.000000) scale(0.100000,-0.100000)"
fill="#000000" stroke="none">
<path d="M2125 4106 l-24 -24 2 -373 c1 -311 -2 -396 -17 -502 -16 -117 -16
-130 -2 -152 9 -14 26 -27 39 -29 34 -8 106 -16 167 -20 31 -1 66 -8 79 -15
12 -7 34 -10 48 -6 14 3 49 -1 79 -11 l54 -17 -7 -41 c-3 -22 -17 -63 -30 -90
-17 -34 -28 -77 -34 -140 -9 -100 -22 -186 -38 -258 -6 -27 -15 -67 -20 -90
-22 -100 -29 -125 -45 -171 -9 -26 -16 -53 -14 -60 1 -6 -4 -23 -11 -36 -7
-12 -11 -32 -8 -42 3 -10 1 -21 -3 -24 -10 -6 -42 -107 -39 -120 2 -6 -2 -20
-9 -33 -7 -12 -12 -30 -11 -40 2 -9 -3 -27 -10 -40 -6 -12 -11 -30 -9 -40 1
-9 0 -22 -4 -27 -10 -16 -87 -243 -114 -335 -14 -51 -26 -123 -29 -180 -3 -52
-11 -148 -17 -213 -8 -91 -8 -127 1 -160 22 -75 44 -111 75 -122 17 -5 40 -20
53 -32 12 -13 32 -23 43 -23 28 0 80 52 80 79 0 12 4 21 9 21 12 0 81 102 81
119 0 7 9 25 20 39 12 14 20 35 18 46 -1 12 4 32 11 44 7 13 10 35 7 48 -4 15
0 34 10 49 9 14 14 35 11 47 -3 11 1 34 9 50 11 20 13 48 9 100 -3 40 -5 80
-5 88 5 343 8 428 15 440 5 8 10 54 11 102 1 47 7 95 12 105 5 10 19 68 32
128 12 61 27 121 34 135 7 14 21 52 31 85 9 33 28 92 41 131 12 39 30 102 39
140 8 38 19 80 24 94 5 14 12 50 16 80 9 80 13 84 69 65 26 -9 54 -14 61 -11
7 2 17 0 23 -6 6 -6 28 -14 49 -18 21 -5 74 -18 118 -29 155 -40 207 -22 220
75 4 27 16 75 26 106 11 32 19 63 17 70 -1 7 4 23 11 36 7 13 11 44 10 70 -1
26 2 56 8 67 6 11 9 70 8 130 -1 64 2 116 8 123 6 8 12 47 13 88 2 40 8 82 14
93 5 11 10 32 10 46 0 14 5 35 11 46 5 11 14 53 18 93 5 40 16 86 24 102 9 16
22 39 28 52 28 51 -31 116 -88 97 -41 -14 -103 -139 -103 -209 -1 -48 -5 -73
-32 -186 -6 -25 -11 -85 -12 -135 -1 -49 -6 -99 -12 -110 -6 -11 -10 -65 -10
-120 1 -69 -3 -107 -12 -122 -8 -12 -13 -43 -11 -70 1 -26 -3 -59 -9 -73 -6
-14 -19 -50 -29 -80 -21 -62 -27 -64 -133 -40 -30 7 -71 13 -90 15 -20 1 -46
7 -57 14 -12 6 -28 11 -37 11 -11 0 -9 11 12 48 18 31 31 77 40 137 25 176 39
241 68 315 9 25 23 90 30 145 7 55 18 127 24 160 13 68 0 173 -25 211 -21 32
-59 40 -90 20 -32 -21 -39 -51 -27 -117 5 -31 6 -78 1 -109 -24 -160 -40 -251
-55 -300 -22 -76 -34 -126 -44 -185 -37 -205 -36 -203 -71 -242 l-35 -39 -49
18 c-28 10 -57 17 -65 16 -8 -1 -25 3 -37 10 -21 12 -23 20 -22 95 0 45 4 105
9 132 5 28 18 104 28 170 11 71 36 171 62 245 41 121 55 174 67 252 4 30 0 41
-21 62 -48 49 -103 22 -117 -57 -20 -108 -29 -139 -77 -284 -38 -111 -53 -175
-58 -235 -4 -46 -11 -91 -16 -102 -6 -10 -13 -69 -17 -130 -6 -104 -7 -111
-26 -108 -11 2 -42 5 -70 6 -77 4 -98 13 -91 42 17 67 27 363 20 623 -6 280
-7 285 -30 308 -30 29 -59 29 -89 -1z"/>
</g>
</svg>
