<?xml version="1.0" standalone="no"?>
<!DOCTYPE svg PUBLIC "-//W3C//DTD SVG 20010904//EN"
 "http://www.w3.org/TR/2001/REC-SVG-20010904/DTD/svg10.dtd">
<svg version="1.0" xmlns="http://www.w3.org/2000/svg"
 width="640.000000pt" height="480.000000pt" viewBox="0 0 640.000000 480.000000"
 preserveAspectRatio="xMidYMid meet">
<metadata>
Created by potrace 1.13, written by Peter Selinger 2001-2015
</metadata>
<g transform="translate(0.000000,480.000000) scale(0.100000,-0.100000)"
fill="#000000" stroke="none">
<path d="M1665 4055 c-31 -30 -31 -41 -1 -107 13 -29 32 -73 41 -98 10 -25 22
-56 28 -70 6 -14 9 -34 8 -46 -1 -11 7 -32 19 -46 11 -14 20 -32 20 -40 0 -8
6 -23 14 -33 7 -10 11 -27 8 -37 -2 -11 5 -32 17 -48 11 -16 21 -35 21 -43 0
-7 6 -22 14 -32 7 -10 11 -26 9 -36 -3 -9 1 -28 8 -40 7 -13 12 -32 10 -42 -1
-9 13 -40 31 -69 18 -28 32 -57 30 -64 -1 -7 14 -62 34 -121 32 -96 37 -122
42 -237 4 -119 7 -132 28 -153 15 -15 37 -24 61 -25 72 -3 78 -4 101 -17 12
-7 33 -11 45 -9 20 3 23 -3 30 -61 6 -43 5 -71 -2 -88 -6 -13 -11 -34 -11 -45
0 -12 -9 -48 -21 -80 -11 -33 -19 -65 -16 -71 3 -7 -1 -21 -9 -32 -8 -10 -14
-25 -14 -32 0 -8 -10 -27 -21 -43 -15 -20 -20 -36 -15 -55 4 -16 1 -34 -9 -48
-8 -12 -15 -27 -15 -35 0 -7 -10 -26 -21 -42 -13 -17 -20 -37 -16 -50 4 -14
-3 -29 -19 -45 -25 -25 -30 -50 -15 -74 7 -10 1 -22 -20 -42 -30 -28 -36 -53
-20 -78 7 -10 1 -22 -20 -42 -32 -30 -36 -55 -15 -85 13 -17 11 -22 -20 -50
-34 -32 -42 -57 -25 -83 7 -10 1 -22 -20 -42 -32 -29 -36 -55 -16 -83 12 -16
10 -22 -11 -43 -19 -20 -23 -30 -18 -58 6 -28 2 -38 -20 -60 -21 -21 -25 -32
-20 -56 4 -20 0 -39 -10 -54 -10 -16 -14 -34 -10 -51 4 -15 2 -32 -5 -40 -13
-16 -31 -99 -33 -154 -1 -19 -7 -45 -14 -58 -7 -12 -12 -30 -11 -40 2 -9 -3
-27 -10 -40 -6 -12 -11 -30 -9 -40 1 -9 -1 -22 -4 -28 -11 -17 -55 -154 -68
-214 -7 -30 -19 -74 -27 -98 -18 -59 -17 -79 10 -106 18 -18 39 -24 95 -29 45
-5 80 -3 92 3 29 16 85 136 98 211 7 35 21 129 33 209 34 233 88 438 216 820
44 131 101 259 128 290 18 21 95 174 95 190 0 7 34 73 75 146 42 73 82 150 89
171 7 21 17 99 21 174 l7 136 56 -19 c32 -11 78 -28 104 -39 26 -10 58 -19 73
-19 37 0 71 38 79 89 7 47 51 142 71 154 8 4 23 23 36 43 12 20 32 47 45 59
13 13 24 32 24 42 0 10 16 43 35 73 19 30 35 62 35 71 0 9 12 30 28 46 70 78
82 95 82 112 0 10 23 41 50 69 28 28 50 55 50 59 0 5 28 38 61 73 34 36 87 92
118 125 62 66 112 139 132 197 16 45 2 82 -36 100 -40 18 -69 -2 -109 -79 -20
-37 -55 -89 -79 -114 -23 -26 -53 -61 -67 -77 -14 -17 -46 -53 -72 -81 -27
-27 -48 -54 -48 -58 0 -5 -27 -37 -60 -71 -33 -34 -60 -70 -60 -80 0 -17 -22
-46 -81 -108 -11 -11 -24 -36 -29 -56 -6 -20 -22 -53 -37 -74 -14 -22 -30 -54
-35 -71 -5 -18 -13 -33 -18 -33 -5 0 -22 -19 -37 -42 -15 -24 -35 -48 -43 -54
-8 -7 -30 -44 -49 -83 -19 -39 -40 -71 -46 -71 -5 0 -35 9 -65 20 -30 11 -62
19 -71 18 -9 -2 -36 10 -62 26 l-46 29 119 236 c66 130 137 257 157 283 21 26
49 63 63 83 40 57 164 178 201 196 189 87 218 113 189 166 -31 55 -56 53 -192
-15 -106 -52 -133 -71 -182 -124 -32 -35 -74 -79 -93 -99 -19 -20 -42 -47 -51
-61 -9 -14 -35 -51 -57 -82 -22 -32 -94 -164 -160 -294 -67 -132 -127 -238
-135 -240 -12 -2 -15 11 -14 70 0 74 1 77 59 173 19 30 25 54 25 100 0 115 27
272 53 318 145 247 155 285 90 343 -21 19 -42 38 -46 43 -57 62 -97 101 -104
101 -5 0 -13 14 -18 32 -14 45 -57 75 -92 62 -65 -22 -68 -105 -6 -134 18 -8
33 -23 33 -32 0 -17 11 -32 92 -121 l37 -41 -31 -56 c-17 -30 -51 -87 -75
-126 -47 -78 -56 -118 -70 -327 -5 -87 -9 -102 -34 -133 -43 -54 -62 -115 -57
-178 5 -63 -7 -73 -54 -46 -26 14 -28 20 -28 80 -1 36 -5 83 -10 105 -9 43
-77 242 -88 259 -4 6 -5 19 -4 29 2 9 -12 40 -30 68 -18 29 -32 60 -30 70 2
10 -3 29 -9 41 -7 13 -12 32 -11 44 2 11 -6 32 -18 46 -11 14 -20 32 -20 40 0
8 -6 23 -14 33 -7 10 -11 27 -8 37 2 11 -5 32 -17 48 -11 16 -21 35 -21 43 0
7 -6 22 -14 32 -7 10 -11 26 -9 34 2 9 -6 41 -17 71 -12 30 -30 83 -41 117
-29 92 -83 120 -134 68z"/>
</g>
</svg>
