<?xml version="1.0" standalone="no"?>
<!DOCTYPE svg PUBLIC "-//W3C//DTD SVG 20010904//EN"
 "http://www.w3.org/TR/2001/REC-SVG-20010904/DTD/svg10.dtd">
<svg version="1.0" xmlns="http://www.w3.org/2000/svg"
 width="640.000000pt" height="480.000000pt" viewBox="0 0 640.000000 480.000000"
 preserveAspectRatio="xMidYMid meet">
<metadata>
Created by potrace 1.13, written by Peter Selinger 2001-2015
</metadata>
<g transform="translate(0.000000,480.000000) scale(0.100000,-0.100000)"
fill="#000000" stroke="none">
<path d="M981 3333 c-24 -20 -79 -167 -83 -222 -3 -36 -3 -36 47 -42 28 -4 94
-17 147 -28 53 -12 143 -26 200 -31 57 -6 186 -24 288 -40 102 -16 207 -32
234 -35 54 -7 96 -40 96 -75 0 -12 -11 -32 -25 -46 -24 -24 -29 -25 -102 -18
-43 4 -112 13 -153 20 -41 8 -147 23 -235 35 -128 16 -355 54 -511 85 -20 3
-23 -2 -33 -79 -7 -45 -15 -99 -18 -119 l-6 -38 74 0 c41 0 90 -5 109 -11 19
-6 60 -15 90 -20 30 -4 114 -17 185 -29 72 -11 162 -24 202 -30 39 -5 100 -14
135 -21 35 -6 105 -14 156 -18 82 -5 96 -9 113 -30 26 -31 24 -57 -6 -86 -21
-22 -33 -25 -100 -25 -42 0 -126 9 -188 19 -62 10 -152 25 -202 31 -49 7 -124
19 -165 27 -41 8 -100 18 -130 23 -30 5 -79 14 -107 20 -29 6 -90 10 -135 8
l-83 -3 0 -92 c0 -50 4 -95 8 -99 4 -5 45 -9 90 -10 45 0 102 -7 127 -13 98
-27 445 -71 684 -87 86 -6 103 -10 123 -30 30 -30 29 -59 -3 -91 -26 -26 -26
-26 -142 -19 -186 11 -593 60 -616 74 -28 17 -208 43 -248 35 -26 -5 -27 -7
-25 -69 2 -44 8 -70 20 -81 19 -19 90 -32 198 -37 41 -2 86 -9 98 -16 13 -6
32 -10 42 -7 38 10 164 -26 267 -75 112 -55 181 -69 231 -48 26 10 34 9 68
-14 20 -14 45 -26 55 -26 20 0 109 69 196 154 34 34 79 75 98 91 55 46 74 82
74 143 0 29 -5 63 -11 75 -14 26 -18 70 -10 128 l6 43 50 -3 c78 -4 264 -49
302 -72 29 -18 43 -20 94 -15 41 5 65 3 75 -5 12 -10 85 -27 289 -68 22 -5 60
-16 85 -25 25 -10 59 -21 76 -25 18 -5 37 -11 43 -15 6 -4 55 -13 108 -21 109
-15 215 -38 277 -59 23 -8 84 -21 136 -30 105 -19 133 -27 300 -87 71 -25 136
-42 170 -43 31 -2 64 -7 75 -13 11 -6 47 -10 80 -9 35 1 69 -4 82 -12 12 -7
30 -12 40 -11 10 2 28 -3 41 -10 13 -7 38 -11 55 -10 18 2 37 0 43 -3 83 -52
408 -79 543 -46 72 17 104 45 99 88 -1 15 6 38 18 53 38 47 49 85 36 121 -7
18 -12 47 -12 65 0 41 -38 81 -78 81 -16 0 -35 7 -43 16 -19 23 -93 58 -174
83 -53 17 -105 23 -215 27 -80 2 -174 9 -210 14 -105 14 -255 31 -415 46 -208
19 -290 30 -360 47 -33 8 -80 18 -105 22 -43 7 -170 35 -255 56 -22 6 -58 15
-80 21 -22 5 -67 18 -100 28 -33 10 -78 22 -100 26 -22 3 -45 10 -51 15 -6 5
-40 18 -75 29 -35 11 -76 29 -91 40 -30 22 -92 47 -158 62 -25 6 -55 17 -67
25 -49 32 -251 27 -415 -10 l-56 -13 -6 35 c-3 20 -6 71 -6 113 l0 78 -50 55
c-28 30 -50 60 -50 65 0 18 -61 79 -106 105 -44 26 -46 26 -157 18 -142 -11
-289 -8 -317 7 -11 6 -34 9 -49 5 -16 -3 -47 1 -72 9 -32 12 -86 16 -195 16
-130 0 -155 -3 -173 -17z"/>
</g>
</svg>
