<?xml version="1.0" standalone="no"?>
<!DOCTYPE svg PUBLIC "-//W3C//DTD SVG 20010904//EN"
 "http://www.w3.org/TR/2001/REC-SVG-20010904/DTD/svg10.dtd">
<svg version="1.0" xmlns="http://www.w3.org/2000/svg"
 width="640.000000pt" height="480.000000pt" viewBox="0 0 640.000000 480.000000"
 preserveAspectRatio="xMidYMid meet">
<metadata>
Created by potrace 1.13, written by Peter Selinger 2001-2015
</metadata>
<g transform="translate(0.000000,480.000000) scale(0.100000,-0.100000)"
fill="#000000" stroke="none">
<path d="M2145 4295 c-14 -13 -25 -34 -25 -46 0 -11 -13 -34 -30 -49 -36 -33
-40 -75 -10 -113 26 -33 26 -105 0 -177 -12 -31 -25 -102 -31 -165 -27 -313
-25 -300 -53 -328 -30 -30 -33 -53 -9 -87 13 -19 16 -43 15 -114 -4 -147 21
-176 173 -198 33 -4 85 -10 116 -12 68 -4 83 -11 74 -40 -4 -11 -11 -40 -16
-63 -5 -24 -14 -64 -20 -90 -19 -80 -23 -291 -6 -317 12 -18 12 -25 2 -39 -7
-9 -15 -59 -19 -110 -4 -51 -16 -126 -27 -167 -19 -73 -52 -233 -69 -335 -5
-27 -9 -104 -9 -171 -1 -80 -6 -137 -17 -170 -44 -141 -65 -227 -70 -302 -6
-74 -10 -87 -36 -112 -35 -35 -36 -73 -4 -105 20 -20 23 -30 18 -75 -8 -83 31
-193 75 -212 16 -7 41 -23 56 -35 36 -29 46 -29 146 3 69 22 90 34 135 78 70
68 90 110 115 240 25 126 27 275 6 391 -19 105 -19 307 0 360 8 22 15 49 15
60 0 11 14 58 31 105 17 47 40 112 51 145 28 85 38 113 58 170 10 28 30 91 44
140 15 50 32 104 37 120 6 17 16 50 21 75 5 25 16 73 24 106 7 34 17 94 20
133 4 44 11 68 17 64 6 -3 27 -10 46 -14 20 -4 72 -17 116 -28 155 -40 207
-22 220 75 4 27 16 75 26 106 11 32 19 63 17 70 -1 7 4 23 11 36 7 13 11 44
10 70 -1 26 2 56 8 67 6 11 9 70 8 130 -1 64 2 116 8 123 6 8 12 47 13 88 2
40 8 82 14 93 5 11 10 32 10 46 0 14 5 35 11 46 5 11 14 53 18 93 5 40 16 86
24 102 9 16 21 39 28 51 16 30 4 70 -29 91 -19 12 -26 24 -24 40 3 16 -8 35
-35 62 -69 69 -126 64 -165 -14 -13 -24 -43 -72 -67 -106 -61 -87 -92 -199
-96 -345 -1 -60 2 -118 6 -127 6 -10 5 -27 -3 -42 -8 -19 -8 -33 -1 -49 8 -17
8 -34 0 -60 -13 -40 -28 -44 -96 -31 -25 5 -30 10 -25 23 26 62 38 108 50 196
7 55 18 127 24 160 6 33 9 74 5 90 -3 17 -10 94 -15 172 -10 156 -25 207 -64
225 -59 26 -96 -21 -122 -161 -8 -42 -30 -137 -50 -212 -19 -75 -34 -140 -32
-145 1 -5 -3 -19 -10 -32 -7 -12 -12 -30 -11 -40 2 -9 -6 -35 -18 -57 -11 -22
-24 -62 -28 -90 -9 -66 -10 -67 -46 -47 -29 17 -30 18 -24 77 4 33 13 79 21
103 8 24 23 120 34 215 11 95 24 199 30 232 15 89 13 113 -13 139 -26 26 -108
42 -138 26 -34 -19 -41 -50 -49 -228 -9 -193 -16 -237 -62 -389 l-31 -101 -36
5 c-20 3 -51 9 -68 15 l-33 10 0 305 0 305 -49 49 c-56 55 -80 60 -116 24z"/>
</g>
</svg>
