<?xml version="1.0" standalone="no"?>
<!DOCTYPE svg PUBLIC "-//W3C//DTD SVG 20010904//EN"
 "http://www.w3.org/TR/2001/REC-SVG-20010904/DTD/svg10.dtd">
<svg version="1.0" xmlns="http://www.w3.org/2000/svg"
 width="297.000000pt" height="650.000000pt" viewBox="0 0 297.000000 650.000000"
 preserveAspectRatio="xMidYMid meet">
<metadata>
Created by potrace 1.13, written by Peter Selinger 2001-2015
</metadata>
<g transform="translate(0.000000,650.000000) scale(0.100000,-0.100000)"
fill="#000000" stroke="none">
<path d="M2360 6260 c0 -5 -6 -10 -13 -10 -14 0 -47 -35 -47 -49 0 -5 -6 -11
-12 -13 -9 -3 -14 -39 -16 -119 -2 -63 -8 -117 -13 -120 -6 -3 -13 -139 -16
-317 -3 -172 -10 -312 -15 -312 -4 0 -8 -20 -8 -45 0 -25 -4 -45 -9 -45 -5 0
-12 -34 -16 -75 -4 -41 -10 -75 -15 -75 -4 0 -11 -25 -15 -55 -3 -30 -11 -55
-16 -55 -5 0 -9 -7 -9 -15 0 -8 -4 -15 -10 -15 -5 0 -13 -18 -16 -40 -4 -22
-10 -40 -15 -40 -4 0 -11 -16 -15 -35 -4 -21 -13 -37 -24 -40 -10 -3 -22 -20
-25 -37 -4 -17 -18 -41 -31 -53 -13 -12 -24 -27 -24 -34 0 -6 -4 -11 -10 -11
-5 0 -10 -6 -10 -14 0 -13 -94 -116 -106 -116 -3 0 -12 -7 -20 -15 -9 -8 -22
-15 -31 -15 -14 0 -15 12 -9 88 4 48 12 89 17 90 5 2 9 16 9 32 0 16 4 30 9
32 6 2 13 60 17 131 4 70 10 127 14 127 4 0 10 46 14 103 4 56 11 104 17 105
5 2 9 21 9 42 0 21 5 40 10 42 6 2 11 44 13 96 1 71 -1 95 -12 101 -12 8 -12
12 2 26 10 9 17 22 17 30 0 7 5 15 11 17 6 2 13 41 16 86 3 45 10 82 14 82 5
0 9 47 9 105 0 63 4 105 10 105 6 0 10 40 10 100 0 60 -4 100 -10 100 -5 0
-10 5 -10 10 0 13 -37 50 -50 50 -5 0 -10 5 -10 10 0 6 -16 10 -35 10 -19 0
-35 -4 -35 -10 0 -5 -4 -10 -10 -10 -15 0 -50 -33 -50 -47 0 -7 -4 -13 -10
-13 -6 0 -10 -32 -10 -75 0 -41 -4 -75 -8 -75 -5 0 -12 -78 -16 -172 -4 -95
-11 -174 -16 -176 -12 -4 -13 -79 -1 -84 17 -6 22 -46 7 -61 -8 -8 -18 -26
-22 -41 -3 -14 -10 -26 -15 -26 -5 0 -9 -22 -9 -50 0 -27 -4 -50 -9 -50 -5 0
-12 -38 -16 -85 -4 -47 -11 -85 -15 -85 -5 0 -11 -58 -15 -130 -4 -71 -11
-130 -16 -130 -5 0 -9 -25 -9 -55 0 -30 -4 -55 -9 -55 -5 0 -12 -34 -16 -75
-4 -41 -11 -75 -16 -75 -5 0 -9 -38 -9 -85 0 -77 -2 -86 -25 -110 -21 -20 -35
-25 -79 -25 l-54 0 -7 140 c-8 147 2 420 15 420 4 0 9 129 12 287 4 202 9 288
17 291 7 2 11 44 11 128 0 76 4 124 10 124 6 0 10 58 10 155 0 97 -4 155 -10
155 -5 0 -10 4 -10 10 0 15 -33 50 -47 50 -7 0 -13 5 -13 10 0 6 -16 10 -35
10 -19 0 -35 -4 -35 -9 0 -5 -11 -12 -25 -15 -15 -4 -27 -16 -31 -31 -3 -14
-10 -25 -14 -25 -4 0 -11 -112 -15 -250 -4 -137 -11 -250 -16 -250 -5 0 -9
-31 -9 -70 0 -38 -4 -70 -9 -70 -4 0 -10 -134 -13 -297 -4 -204 -9 -298 -17
-301 -15 -5 -16 -382 -1 -382 6 0 10 -4 10 -10 0 -19 -31 -10 -54 15 -13 14
-27 25 -32 25 -5 0 -25 18 -44 40 -19 22 -43 40 -52 40 -10 0 -18 4 -18 9 0 5
-9 11 -20 14 -12 3 -20 14 -20 25 0 12 -9 23 -19 27 -11 3 -23 16 -27 28 -4
11 -13 27 -20 35 -8 7 -14 22 -14 33 0 10 -4 19 -10 19 -5 0 -10 11 -10 24 0
13 -6 26 -12 29 -18 5 -17 709 0 715 9 3 12 56 12 188 0 116 4 184 10 184 6 0
10 40 10 100 0 60 -4 100 -10 100 -5 0 -10 5 -10 10 0 13 -37 50 -50 50 -5 0
-10 5 -10 10 0 6 -16 10 -35 10 -19 0 -35 -4 -35 -10 0 -5 -4 -10 -10 -10 -15
0 -50 -33 -50 -46 0 -7 -5 -14 -11 -16 -6 -2 -12 -93 -16 -261 -3 -141 -10
-257 -15 -257 -4 0 -8 -43 -8 -95 0 -57 -4 -95 -10 -95 -6 0 -10 -98 -10 -275
0 -177 4 -275 10 -275 6 0 10 -18 10 -40 0 -22 4 -40 9 -40 6 0 13 -20 17 -45
3 -25 10 -45 15 -45 4 0 11 -16 15 -35 3 -19 10 -35 15 -35 5 0 9 -4 9 -10 0
-5 13 -23 30 -40 16 -17 30 -36 30 -43 0 -7 9 -19 20 -27 11 -8 20 -19 20 -25
0 -6 8 -18 17 -27 10 -9 23 -23 30 -30 21 -23 39 -35 63 -43 27 -8 50 -29 50
-43 0 -18 68 -81 94 -88 14 -3 26 -10 26 -14 0 -4 16 -11 35 -14 19 -4 35 -11
35 -16 0 -6 7 -10 15 -10 13 0 15 -22 15 -135 0 -83 4 -135 10 -135 6 0 10
-16 10 -35 0 -19 -4 -35 -10 -35 -5 0 -10 -20 -10 -45 0 -25 -4 -45 -9 -45 -5
0 -12 -34 -16 -75 -4 -41 -11 -75 -16 -75 -4 0 -11 -31 -15 -70 -3 -38 -11
-70 -15 -70 -5 0 -9 -34 -9 -75 0 -43 -4 -75 -10 -75 -6 0 -10 -68 -10 -185 0
-117 4 -185 10 -185 16 0 14 -747 -2 -752 -10 -4 -14 -124 -16 -544 -2 -296
-7 -541 -12 -544 -5 -3 -12 -69 -16 -148 -4 -78 -11 -142 -15 -142 -5 0 -9
-54 -9 -120 0 -73 4 -120 10 -120 6 0 10 -18 10 -39 0 -34 7 -46 52 -92 52
-53 53 -54 113 -54 57 0 63 2 98 38 20 21 37 45 37 53 0 8 4 14 9 14 5 0 12
14 16 30 4 17 11 30 16 30 5 0 9 36 9 80 0 47 -4 80 -10 80 -6 0 -10 33 -10
80 0 47 4 80 10 80 6 0 10 18 10 40 0 22 4 40 9 40 5 0 12 34 16 75 4 41 10
75 15 75 4 0 11 25 15 55 3 30 11 55 16 55 5 0 9 11 9 25 0 14 4 25 9 25 5 0
12 24 15 52 4 29 12 56 18 59 5 4 13 27 15 53 3 25 10 46 14 46 5 0 9 11 9 25
0 14 4 25 9 25 4 0 11 37 14 82 4 45 11 84 15 87 5 3 12 40 16 81 3 41 11 77
16 78 6 2 10 43 10 92 0 55 4 90 11 92 6 2 13 25 16 51 3 26 9 47 13 47 4 0
11 50 15 110 3 61 11 110 16 110 5 0 9 25 9 55 0 30 4 55 9 55 4 0 11 93 15
207 4 114 11 210 16 213 4 3 11 87 15 188 4 100 11 182 16 182 5 0 9 14 9 30
0 17 4 30 8 30 5 0 12 46 16 103 3 56 11 104 16 105 6 2 10 28 10 58 0 30 4
54 9 54 5 0 12 47 16 105 4 58 11 105 16 105 5 0 9 89 9 198 0 215 3 229 58
246 12 4 22 11 22 16 0 4 11 11 24 14 14 3 28 15 31 26 3 11 13 20 21 20 18 0
94 76 94 94 0 8 9 18 20 21 11 3 20 14 20 23 0 10 9 25 20 35 11 9 20 24 20
32 0 8 5 15 10 15 6 0 10 7 10 15 0 8 5 15 10 15 6 0 10 9 10 20 0 11 7 23 15
26 8 3 17 21 21 40 3 19 10 34 15 34 5 0 9 7 9 15 0 8 4 15 9 15 5 0 12 14 16
30 4 17 11 30 16 30 5 0 12 18 15 40 4 22 10 40 15 40 5 0 9 11 9 25 0 14 4
25 9 25 5 0 13 29 16 65 4 36 11 65 16 65 5 0 9 18 9 39 0 22 5 41 12 43 9 3
13 76 16 266 3 144 8 262 12 262 4 0 11 77 15 170 4 94 11 170 16 170 5 0 9
32 9 70 0 39 -4 70 -9 70 -5 0 -12 11 -15 25 -4 15 -16 27 -31 31 -14 3 -25
10 -25 15 0 5 -16 9 -35 9 -19 0 -35 -4 -35 -10z"/>
</g>
</svg>
