<?xml version="1.0" standalone="no"?>
<!DOCTYPE svg PUBLIC "-//W3C//DTD SVG 20010904//EN"
 "http://www.w3.org/TR/2001/REC-SVG-20010904/DTD/svg10.dtd">
<svg version="1.0" xmlns="http://www.w3.org/2000/svg"
 width="640.000000pt" height="480.000000pt" viewBox="0 0 640.000000 480.000000"
 preserveAspectRatio="xMidYMid meet">
<metadata>
Created by potrace 1.13, written by Peter Selinger 2001-2015
</metadata>
<g transform="translate(0.000000,480.000000) scale(0.100000,-0.100000)"
fill="#000000" stroke="none">
<path d="M2033 4405 c-17 -12 -25 -15 -39 -15 -3 0 60 -68 140 -152 80 -84
146 -156 146 -160 0 -4 16 -30 35 -57 19 -26 35 -53 35 -58 0 -6 9 -22 21 -37
11 -14 17 -26 13 -26 -4 0 4 -12 18 -27 24 -25 71 -117 65 -127 -1 -2 6 -13
16 -24 10 -11 20 -26 21 -34 2 -7 13 -35 26 -62 12 -27 23 -54 24 -60 1 -6 7
-21 14 -32 20 -38 -8 -101 -49 -108 -8 -1 -26 -10 -41 -20 -20 -13 -36 -16
-55 -11 -16 4 -39 9 -53 11 -60 7 -71 13 -94 52 -6 11 -40 54 -76 97 -36 43
-65 82 -65 86 0 5 -13 26 -30 47 -16 20 -28 38 -27 40 2 2 -20 30 -48 62 -29
33 -48 60 -44 60 5 0 -10 19 -32 43 -53 55 -117 137 -108 137 3 0 -5 15 -20
34 -14 19 -26 38 -26 41 0 4 -19 31 -42 60 l-42 54 -38 -30 c-21 -17 -38 -34
-38 -38 0 -4 23 -29 50 -56 28 -27 50 -53 50 -58 0 -5 37 -50 81 -101 45 -50
84 -98 87 -106 3 -8 32 -45 64 -81 32 -37 58 -70 58 -74 0 -8 61 -87 104 -132
16 -18 26 -33 22 -33 -4 0 14 -25 41 -55 53 -58 65 -104 41 -148 -6 -12 -14
-31 -16 -42 -2 -11 -4 -25 -6 -30 -1 -6 -9 -21 -18 -34 -10 -13 -15 -28 -13
-31 3 -4 -12 -27 -33 -50 -31 -35 -45 -43 -77 -45 -22 -2 -49 2 -60 8 -11 6
-23 11 -26 10 -3 -1 -41 34 -85 78 -43 43 -75 79 -71 79 5 0 -12 26 -37 58
-25 32 -46 62 -46 66 0 5 -19 31 -42 59 -24 28 -43 54 -43 58 0 4 -51 62 -112
128 -62 66 -113 123 -113 128 0 5 -25 33 -56 63 -30 30 -62 67 -70 83 -19 35
-29 34 -48 -4 l-15 -30 54 -52 c56 -53 98 -110 109 -145 4 -10 15 -27 26 -37
11 -10 20 -22 20 -27 0 -5 32 -47 70 -94 39 -46 68 -84 65 -84 -4 0 23 -33 59
-74 36 -40 66 -77 66 -80 0 -4 35 -46 77 -92 72 -79 82 -95 84 -134 4 -79 -59
-123 -143 -99 -24 7 -46 12 -49 11 -3 0 -39 33 -80 74 -40 41 -70 74 -65 74 4
0 -13 24 -38 52 -25 29 -46 56 -46 61 0 4 -25 39 -55 77 -30 38 -55 72 -55 76
0 3 -13 23 -30 44 -16 21 -30 41 -30 45 0 4 -23 36 -50 71 -28 35 -48 64 -44
64 3 0 -13 23 -36 50 -23 28 -39 50 -35 50 4 0 2 6 -4 14 -18 22 -52 12 -57
-17 -1 -7 -5 -19 -9 -28 -4 -11 5 -30 26 -54 18 -21 34 -43 35 -51 1 -7 27
-39 58 -69 31 -31 54 -61 51 -66 -4 -5 5 -20 18 -33 36 -36 100 -116 93 -116
-4 0 1 -12 11 -27 9 -14 19 -32 20 -40 2 -7 4 -20 6 -28 2 -8 26 -44 55 -79
29 -36 52 -68 52 -72 0 -3 22 -32 48 -63 27 -31 51 -64 55 -73 4 -10 11 -18
17 -18 6 0 26 -10 43 -23 37 -26 64 -32 162 -31 83 0 142 10 172 30 12 8 28
14 36 14 7 0 28 13 47 30 19 16 39 29 43 30 4 0 33 19 64 42 57 44 65 47 123
53 32 3 40 -3 105 -72 39 -41 70 -78 70 -82 0 -3 16 -26 35 -50 19 -23 35 -46
35 -50 0 -3 15 -26 34 -51 18 -25 44 -70 59 -100 14 -30 36 -70 50 -87 13 -18
21 -33 18 -33 -4 0 2 -13 14 -30 12 -16 18 -30 14 -30 -4 0 0 -8 8 -17 14 -16
49 -89 57 -118 2 -5 16 -26 32 -46 16 -20 29 -40 29 -43 0 -4 18 -30 41 -58
35 -44 59 -88 69 -123 1 -5 12 -23 24 -40 11 -16 21 -32 21 -35 1 -3 6 -15 14
-28 7 -13 14 -31 16 -40 1 -9 19 -34 39 -56 20 -21 35 -41 32 -43 -3 -3 11
-27 30 -54 19 -27 34 -53 34 -58 0 -4 9 -20 21 -35 11 -14 17 -26 14 -26 -4 0
8 -18 25 -40 17 -22 28 -40 24 -40 -4 0 2 -10 14 -23 21 -23 53 -75 92 -153
12 -23 37 -60 56 -83 20 -22 33 -41 29 -41 -4 0 12 -21 34 -47 23 -25 39 -48
37 -51 -3 -2 15 -31 39 -63 25 -31 45 -61 45 -64 0 -4 10 -21 22 -38 13 -18
23 -35 23 -39 0 -3 11 -21 25 -40 14 -18 24 -36 23 -40 -6 -16 207 -225 256
-251 28 -15 51 -24 51 -21 0 4 7 1 15 -6 8 -7 36 -14 62 -17 46 -4 50 -2 91
40 23 24 45 54 48 68 11 47 9 104 -3 124 -7 11 -11 22 -10 25 1 3 -13 26 -31
52 -18 26 -32 50 -32 53 0 4 -10 21 -22 38 -13 18 -23 35 -23 38 0 4 -30 43
-67 87 -38 44 -68 85 -68 90 0 6 -63 76 -140 155 -77 80 -140 148 -140 153 0
4 -12 20 -26 35 -14 14 -26 34 -28 43 -1 9 -13 28 -27 43 -36 40 -95 117 -91
120 1 2 -12 22 -30 44 -18 23 -33 44 -33 48 0 3 -21 33 -47 66 -26 33 -48 65
-48 70 -1 6 -13 25 -26 42 -14 18 -23 33 -19 33 3 0 -11 22 -30 50 -19 27 -35
54 -35 59 0 4 -9 20 -21 35 -11 14 -18 26 -14 26 3 0 -5 15 -19 33 -13 17 -24
34 -23 37 1 3 -12 25 -29 50 -16 25 -39 63 -49 85 -11 22 -33 59 -48 83 -15
23 -25 42 -22 42 3 0 -2 11 -11 25 -9 14 -13 25 -10 25 4 0 -1 11 -10 25 -9
14 -13 25 -9 25 5 0 1 8 -7 18 -9 9 -34 52 -56 94 -22 43 -50 91 -62 108 -12
16 -18 30 -15 30 3 0 -4 15 -17 33 -13 17 -23 34 -23 37 -1 8 -38 64 -59 88
-11 12 -16 22 -11 22 5 0 -30 40 -78 89 -48 49 -87 96 -87 105 0 9 7 32 14 51
8 19 13 35 11 35 -2 0 8 21 21 47 14 25 31 64 39 85 21 63 7 171 -30 228 -5 8
-10 18 -10 22 0 3 -16 28 -35 55 -19 26 -34 50 -35 53 0 3 -15 24 -32 47 -18
22 -33 44 -33 48 0 3 -11 21 -25 39 -14 18 -25 36 -25 39 0 4 -16 29 -35 56
-19 26 -35 52 -35 56 0 4 -15 26 -32 48 -18 23 -33 44 -33 47 0 7 -148 181
-169 199 -23 19 -61 22 -83 6z"/>
</g>
</svg>
