<?xml version="1.0" standalone="no"?>
<!DOCTYPE svg PUBLIC "-//W3C//DTD SVG 20010904//EN"
 "http://www.w3.org/TR/2001/REC-SVG-20010904/DTD/svg10.dtd">
<svg version="1.0" xmlns="http://www.w3.org/2000/svg"
 width="640.000000pt" height="480.000000pt" viewBox="0 0 640.000000 480.000000"
 preserveAspectRatio="xMidYMid meet">
<metadata>
Created by potrace 1.13, written by Peter Selinger 2001-2015
</metadata>
<g transform="translate(0.000000,480.000000) scale(0.100000,-0.100000)"
fill="#000000" stroke="none">
<path d="M3294 4305 c-21 -21 -25 -32 -20 -63 3 -20 7 -127 8 -237 1 -159 -2
-213 -16 -265 -9 -36 -21 -83 -25 -104 -5 -21 -16 -43 -25 -48 -9 -5 -25 -27
-36 -48 -11 -21 -30 -50 -42 -63 -13 -13 -36 -40 -53 -61 -45 -56 -185 -197
-234 -235 -29 -23 -64 -38 -105 -47 -85 -19 -93 -18 -74 4 23 26 63 111 76
162 7 25 26 119 42 210 16 91 39 198 50 238 32 116 42 207 34 331 -6 101 -9
117 -30 138 -30 30 -59 29 -89 -1 -24 -24 -24 -28 -23 -173 1 -131 -2 -159
-25 -243 -14 -52 -39 -169 -56 -260 -36 -195 -53 -255 -83 -300 -23 -34 -67
-56 -92 -47 -25 10 -59 103 -87 238 -15 75 -32 154 -38 175 -21 82 -34 216
-40 402 -6 188 -7 194 -30 213 -31 26 -57 24 -86 -6 -25 -24 -25 -27 -25 -192
1 -205 15 -325 69 -583 36 -171 42 -192 70 -248 54 -105 -85 2 -273 210 -42
47 -83 130 -106 213 -49 176 -53 204 -55 414 -1 200 -2 204 -24 222 -31 25
-57 24 -86 -5 -31 -31 -40 -115 -32 -301 11 -253 86 -504 181 -602 29 -30 70
-80 105 -130 16 -23 51 -56 78 -74 26 -18 52 -38 56 -46 24 -39 178 -103 248
-103 46 0 46 0 53 -37 9 -59 7 -292 -4 -358 -6 -33 -15 -123 -20 -200 -6 -77
-19 -192 -30 -255 -10 -63 -21 -128 -24 -145 -3 -16 -10 -50 -16 -75 -6 -25
-17 -83 -25 -130 -7 -47 -21 -125 -30 -175 -21 -120 -15 -374 13 -540 28 -161
28 -212 2 -220 -30 -10 -53 -50 -46 -80 16 -63 121 -72 178 -15 27 27 28 33
28 119 0 97 -24 281 -40 311 -23 44 -8 415 21 508 6 18 15 66 19 105 5 40 14
92 20 117 25 102 59 317 65 408 4 53 13 146 21 205 8 59 14 184 14 277 l0 170
58 0 c103 1 201 29 247 71 11 10 40 35 65 56 78 67 165 158 240 252 14 17 33
39 43 49 10 9 28 35 39 57 12 22 29 46 38 52 21 15 75 180 90 273 6 40 8 147
3 280 -6 206 -7 215 -29 237 -30 30 -69 29 -100 -2z"/>
</g>
</svg>
