<?xml version="1.0" standalone="no"?>
<!DOCTYPE svg PUBLIC "-//W3C//DTD SVG 20010904//EN"
 "http://www.w3.org/TR/2001/REC-SVG-20010904/DTD/svg10.dtd">
<svg version="1.0" xmlns="http://www.w3.org/2000/svg"
 width="640.000000pt" height="480.000000pt" viewBox="0 0 640.000000 480.000000"
 preserveAspectRatio="xMidYMid meet">
<metadata>
Created by potrace 1.13, written by Peter Selinger 2001-2015
</metadata>
<g transform="translate(0.000000,480.000000) scale(0.100000,-0.100000)"
fill="#000000" stroke="none">
<path d="M2755 4365 c-22 -21 -25 -33 -25 -91 0 -59 -12 -114 -52 -229 -12
-35 -21 -93 -43 -270 -8 -71 -27 -173 -41 -225 -22 -77 -27 -121 -29 -230 l-2
-135 -32 -3 c-22 -2 -31 1 -31 11 0 8 -13 17 -28 20 -16 3 -38 14 -50 24 -21
18 -22 20 -11 143 5 69 21 190 34 270 42 245 65 450 65 568 0 107 -1 114 -25
137 -13 14 -33 25 -45 25 -11 0 -32 -11 -45 -25 -23 -22 -25 -31 -25 -121 0
-105 -27 -335 -65 -564 -14 -80 -28 -174 -33 -210 l-7 -65 -23 46 c-20 41 -22
59 -21 205 1 87 4 217 7 287 4 71 3 136 -2 144 -5 10 -5 28 2 47 26 71 -31
196 -89 196 -29 0 -97 -37 -109 -60 -14 -26 -35 -403 -35 -635 0 -181 1 -193
26 -250 28 -66 108 -177 145 -202 13 -8 24 -24 24 -35 0 -10 7 -33 16 -49 22
-44 63 -171 80 -254 16 -77 17 -103 12 -545 -3 -279 -6 -314 -28 -415 l-24
-110 -1 -702 c0 -698 0 -702 21 -730 12 -15 33 -32 47 -37 38 -14 68 11 106
88 30 62 33 75 41 223 6 87 12 172 15 188 3 17 10 111 15 210 5 99 14 205 20
234 5 30 10 133 11 230 0 97 4 214 9 261 5 47 12 126 16 175 3 50 12 109 20
133 8 23 14 59 14 80 0 20 14 76 30 124 22 65 31 113 36 190 7 129 11 141 97
318 86 177 146 272 193 300 19 12 41 35 49 51 9 16 20 29 24 29 5 0 45 45 88
100 87 111 167 253 212 377 38 104 71 292 78 453 7 160 -7 220 -67 274 -38 34
-44 36 -108 36 -60 0 -73 -4 -109 -30 -22 -16 -45 -42 -51 -57 -12 -34 -32
-293 -32 -421 0 -113 -30 -270 -69 -361 -20 -47 -47 -85 -95 -134 -38 -39 -66
-76 -66 -88 0 -31 -17 -57 -49 -74 l-29 -15 -7 75 c-8 86 -3 132 31 267 21 86
41 211 59 383 6 61 20 120 56 231 11 36 19 90 19 128 0 58 -3 70 -25 91 -31
32 -59 32 -90 0z"/>
</g>
</svg>
