<?xml version="1.0" standalone="no"?>
<!DOCTYPE svg PUBLIC "-//W3C//DTD SVG 20010904//EN"
 "http://www.w3.org/TR/2001/REC-SVG-20010904/DTD/svg10.dtd">
<svg version="1.0" xmlns="http://www.w3.org/2000/svg"
 width="640.000000pt" height="480.000000pt" viewBox="0 0 640.000000 480.000000"
 preserveAspectRatio="xMidYMid meet">
<metadata>
Created by potrace 1.13, written by Peter Selinger 2001-2015
</metadata>
<g transform="translate(0.000000,480.000000) scale(0.100000,-0.100000)"
fill="#000000" stroke="none">
<path d="M2203 4054 c-21 -21 -24 -31 -18 -57 15 -60 20 -242 12 -407 -7 -161
-12 -377 -9 -433 1 -15 13 -39 26 -52 20 -20 35 -25 78 -25 29 -1 91 -9 138
-18 l85 -17 3 -50 c3 -59 -20 -240 -53 -410 -3 -16 -10 -93 -15 -170 -4 -77
-15 -178 -24 -225 -9 -47 -20 -116 -26 -155 -6 -38 -19 -108 -29 -155 -57
-254 -72 -523 -38 -708 19 -101 35 -142 75 -184 32 -35 203 -110 263 -116 42
-4 50 -1 87 32 42 39 87 121 143 261 17 44 44 108 60 143 16 34 29 72 29 83 0
11 6 32 14 47 8 15 21 67 31 116 9 50 21 99 27 110 15 27 29 164 34 329 5 136
-2 250 -31 522 -16 149 -19 298 -9 406 l7 65 66 -12 c107 -21 158 -18 187 11
22 22 24 31 23 107 -3 115 18 360 37 438 10 42 18 136 21 267 l5 202 -25 25
c-33 33 -61 33 -92 1 -24 -24 -25 -28 -25 -182 -1 -93 -7 -191 -15 -238 -32
-173 -36 -215 -38 -352 -2 -166 7 -156 -122 -123 -43 11 -86 20 -95 20 -14 0
-16 9 -13 58 6 93 11 144 22 195 21 97 32 227 37 410 l4 188 -25 25 c-30 30
-59 31 -89 1 -20 -20 -24 -37 -30 -123 -3 -54 -6 -137 -5 -184 0 -89 -24 -287
-42 -331 -6 -15 -9 -72 -7 -128 l3 -101 -71 0 c-101 0 -136 8 -129 30 8 26 27
376 32 607 l4 202 -25 26 c-30 30 -55 32 -87 6 -23 -19 -24 -25 -30 -203 -6
-184 -29 -631 -32 -635 -1 -1 -31 5 -67 12 -36 8 -78 14 -94 15 l-29 0 7 78
c11 121 19 617 11 679 -12 95 -76 133 -132 77z"/>
</g>
</svg>
