<?xml version="1.0" standalone="no"?>
<!DOCTYPE svg PUBLIC "-//W3C//DTD SVG 20010904//EN"
 "http://www.w3.org/TR/2001/REC-SVG-20010904/DTD/svg10.dtd">
<svg version="1.0" xmlns="http://www.w3.org/2000/svg"
 width="360.000000pt" height="243.000000pt" viewBox="0 0 360.000000 243.000000"
 preserveAspectRatio="xMidYMid meet">
<metadata>
Created by potrace 1.13, written by Peter Selinger 2001-2015
</metadata>
<g transform="translate(0.000000,243.000000) scale(0.100000,-0.100000)"
fill="#000000" stroke="none">
<path d="M1812 1568 c-7 -7 -12 -42 -12 -89 0 -88 2 -86 -94 -95 -121 -11
-178 -42 -161 -86 8 -21 70 -48 111 -48 19 0 48 -7 64 -15 l30 -16 0 -129 0
-129 -57 -6 c-131 -14 -316 -60 -393 -98 -38 -19 -47 -29 -60 -69 -8 -26 -18
-49 -21 -53 -4 -3 -40 -15 -80 -27 -41 -11 -95 -31 -122 -44 -40 -21 -52 -34
-73 -82 -42 -91 -84 -211 -84 -236 0 -29 25 -51 77 -70 22 -8 62 -30 89 -49
133 -95 288 -118 879 -133 169 -5 229 -3 305 11 52 9 125 20 162 25 48 7 89
21 140 49 40 22 102 49 138 61 74 25 143 61 182 98 36 33 65 124 50 156 -11
25 -103 76 -137 76 -11 0 -45 16 -75 35 -30 19 -61 35 -69 35 -8 0 -38 8 -68
17 l-53 17 0 61 c0 34 -5 66 -12 73 -8 8 -47 12 -110 12 -82 0 -110 4 -175 28
-43 16 -103 34 -133 41 -30 7 -62 15 -72 17 -19 6 -26 50 -34 225 l-6 126 33
7 c142 28 208 66 177 103 -10 13 -32 15 -125 11 l-113 -4 0 91 c0 101 -7 115
-55 115 -17 0 -36 -5 -43 -12z"/>
</g>
</svg>
