<?xml version="1.0" standalone="no"?>
<!DOCTYPE svg PUBLIC "-//W3C//DTD SVG 20010904//EN"
 "http://www.w3.org/TR/2001/REC-SVG-20010904/DTD/svg10.dtd">
<svg version="1.0" xmlns="http://www.w3.org/2000/svg"
 width="360.000000pt" height="243.000000pt" viewBox="0 0 360.000000 243.000000"
 preserveAspectRatio="xMidYMid meet">
<metadata>
Created by potrace 1.13, written by Peter Selinger 2001-2015
</metadata>
<g transform="translate(0.000000,243.000000) scale(0.100000,-0.100000)"
fill="#000000" stroke="none">
<path d="M1801 1627 c-7 -7 -11 -55 -11 -127 l0 -116 -70 -11 c-88 -14 -144
-40 -148 -70 -3 -23 -1 -23 98 -23 l102 0 -4 -102 c-3 -84 -8 -111 -26 -143
-12 -22 -30 -56 -38 -76 -15 -35 -19 -37 -78 -43 -84 -10 -294 -64 -332 -87
-31 -19 -54 -56 -54 -88 0 -14 -12 -22 -47 -30 -62 -16 -121 -51 -209 -123
-94 -77 -126 -124 -131 -191 -7 -82 26 -122 151 -188 244 -128 304 -153 401
-169 39 -7 89 -16 112 -21 23 -5 201 -9 395 -9 277 0 369 3 428 15 82 17 156
45 210 79 19 13 80 49 135 81 138 81 152 93 175 140 37 76 23 205 -21 205 -16
0 -111 74 -159 125 -47 49 -125 95 -160 95 -17 0 -20 6 -20 44 0 24 -6 48 -12
53 -7 6 -40 15 -73 20 -33 6 -123 28 -200 48 -77 21 -165 43 -195 49 -48 11
-56 16 -68 47 -8 19 -17 75 -20 126 -5 104 -17 90 93 113 45 10 119 50 137 75
15 21 -16 35 -77 35 -34 0 -82 3 -107 6 -43 6 -45 8 -56 51 -7 24 -25 72 -41
106 -16 34 -32 72 -35 84 -8 26 -29 36 -45 20z"/>
</g>
</svg>
