<?xml version="1.0" standalone="no"?>
<!DOCTYPE svg PUBLIC "-//W3C//DTD SVG 20010904//EN"
 "http://www.w3.org/TR/2001/REC-SVG-20010904/DTD/svg10.dtd">
<svg version="1.0" xmlns="http://www.w3.org/2000/svg"
 width="360.000000pt" height="243.000000pt" viewBox="0 0 360.000000 243.000000"
 preserveAspectRatio="xMidYMid meet">
<metadata>
Created by potrace 1.13, written by Peter Selinger 2001-2015
</metadata>
<g transform="translate(0.000000,243.000000) scale(0.100000,-0.100000)"
fill="#000000" stroke="none">
<path d="M1812 1608 c-15 -15 -15 -62 0 -128 14 -61 7 -69 -62 -70 -100 -2
-180 -33 -188 -74 -5 -22 69 -54 155 -69 l65 -10 -6 -101 c-3 -56 -9 -124 -12
-152 l-6 -51 -68 -12 c-38 -6 -100 -11 -138 -11 -66 0 -174 -29 -284 -77 -40
-17 -58 -51 -58 -109 0 -27 -4 -34 -19 -34 -11 0 -41 -11 -67 -25 -26 -14 -53
-25 -61 -25 -24 0 -110 -48 -141 -79 -48 -49 -90 -217 -64 -258 5 -7 31 -20
58 -28 28 -8 61 -26 75 -41 40 -43 121 -77 214 -89 28 -4 79 -12 115 -20 264
-54 371 -65 619 -65 191 0 226 3 281 20 34 11 70 20 79 20 9 0 52 15 96 34 44
18 125 43 180 55 127 28 150 37 190 75 38 36 95 144 95 180 0 18 -12 33 -41
53 -23 15 -50 36 -61 46 -32 30 -149 86 -205 97 l-53 11 0 78 c0 51 -4 82 -12
88 -24 18 -95 33 -154 33 -33 0 -95 9 -139 19 -44 10 -128 24 -187 32 l-108
13 1 115 c1 64 4 127 8 141 7 26 13 29 183 91 70 26 85 35 77 46 -8 9 -41 13
-118 13 -151 0 -151 0 -151 144 0 121 -6 136 -50 136 -14 0 -31 -5 -38 -12z"/>
</g>
</svg>
