<?xml version="1.0" standalone="no"?>
<!DOCTYPE svg PUBLIC "-//W3C//DTD SVG 20010904//EN"
 "http://www.w3.org/TR/2001/REC-SVG-20010904/DTD/svg10.dtd">
<svg version="1.0" xmlns="http://www.w3.org/2000/svg"
 width="360.000000pt" height="243.000000pt" viewBox="0 0 360.000000 243.000000"
 preserveAspectRatio="xMidYMid meet">
<metadata>
Created by potrace 1.13, written by Peter Selinger 2001-2015
</metadata>
<g transform="translate(0.000000,243.000000) scale(0.100000,-0.100000)"
fill="#000000" stroke="none">
<path d="M1855 1622 c-16 -2 -36 -8 -42 -14 -17 -14 -16 -77 2 -108 8 -14 14
-42 15 -62 l0 -38 -55 0 c-64 0 -161 -33 -175 -60 -14 -27 19 -55 86 -75 31
-9 58 -24 64 -35 14 -25 13 -112 -2 -147 -6 -15 -14 -48 -17 -72 -7 -54 -11
-55 -183 -69 -110 -9 -122 -13 -233 -63 -127 -58 -155 -84 -155 -146 0 -26 -4
-33 -20 -33 -19 0 -87 -33 -200 -96 -92 -51 -119 -99 -120 -207 0 -83 25 -116
121 -161 46 -21 93 -43 104 -49 11 -6 33 -14 50 -18 16 -4 48 -14 70 -22 22
-9 94 -30 160 -48 l120 -33 409 -4 c393 -4 413 -3 505 18 184 42 303 99 394
187 85 83 149 233 119 280 -4 6 -30 20 -57 31 -28 11 -89 44 -136 74 -47 30
-107 62 -132 72 -47 18 -47 18 -47 66 0 55 -9 65 -73 80 -96 21 -399 70 -436
70 -26 0 -41 5 -45 16 -3 9 -6 78 -6 154 l0 139 66 21 c36 11 75 20 86 20 10
0 30 11 44 25 42 42 20 55 -91 55 -64 0 -96 4 -103 13 -6 7 -17 63 -24 125 -6
61 -17 113 -22 114 -6 2 -24 2 -41 0z"/>
</g>
</svg>
