<?xml version="1.0" standalone="no"?>
<!DOCTYPE svg PUBLIC "-//W3C//DTD SVG 20010904//EN"
 "http://www.w3.org/TR/2001/REC-SVG-20010904/DTD/svg10.dtd">
<svg version="1.0" xmlns="http://www.w3.org/2000/svg"
 width="360.000000pt" height="243.000000pt" viewBox="0 0 360.000000 243.000000"
 preserveAspectRatio="xMidYMid meet">
<metadata>
Created by potrace 1.13, written by Peter Selinger 2001-2015
</metadata>
<g transform="translate(0.000000,243.000000) scale(0.100000,-0.100000)"
fill="#000000" stroke="none">
<path d="M1795 1620 c-11 -17 -13 -165 -3 -177 7 -9 6 -23 -2 -43 -12 -28 -16
-30 -67 -30 -91 0 -141 -43 -95 -82 9 -8 46 -25 80 -38 35 -13 66 -30 70 -38
3 -9 -2 -37 -11 -63 -9 -25 -17 -71 -17 -100 0 -96 -3 -99 -79 -99 -120 0
-169 -14 -418 -117 -7 -3 -26 -26 -42 -53 -24 -39 -41 -53 -98 -79 -126 -59
-219 -121 -242 -161 -46 -82 -17 -196 73 -292 31 -34 55 -49 101 -62 33 -10
87 -28 120 -41 66 -25 183 -55 320 -81 78 -15 128 -16 390 -10 165 4 318 11
340 17 22 5 78 18 125 28 47 10 103 26 125 36 22 9 96 37 164 61 136 48 183
81 216 154 17 38 17 40 -9 107 -28 74 -78 130 -186 210 -77 56 -92 63 -148 63
-47 0 -50 1 -56 30 -5 27 -17 36 -93 73 -81 38 -96 42 -188 47 -75 4 -114 11
-157 29 l-58 25 0 158 c0 179 -14 156 105 179 96 18 134 45 119 84 -4 8 -16
17 -28 20 -91 21 -119 25 -178 25 l-68 0 0 74 c0 41 5 87 10 102 15 38 -2 54
-61 54 -26 0 -51 -4 -54 -10z"/>
</g>
</svg>
