<?xml version="1.0" standalone="no"?>
<!DOCTYPE svg PUBLIC "-//W3C//DTD SVG 20010904//EN"
 "http://www.w3.org/TR/2001/REC-SVG-20010904/DTD/svg10.dtd">
<svg version="1.0" xmlns="http://www.w3.org/2000/svg"
 width="360.000000pt" height="243.000000pt" viewBox="0 0 360.000000 243.000000"
 preserveAspectRatio="xMidYMid meet">
<metadata>
Created by potrace 1.13, written by Peter Selinger 2001-2015
</metadata>
<g transform="translate(0.000000,243.000000) scale(0.100000,-0.100000)"
fill="#000000" stroke="none">
<path d="M1840 1609 c-36 -15 -40 -26 -40 -116 l0 -82 -37 -10 c-21 -5 -56
-12 -77 -16 -70 -12 -116 -35 -123 -63 -11 -45 6 -57 91 -60 l76 -3 0 -124 c0
-154 -11 -181 -80 -191 -25 -4 -88 -17 -140 -31 -233 -59 -258 -71 -280 -138
-6 -19 -17 -35 -23 -35 -15 0 -139 -78 -192 -121 -22 -17 -49 -36 -60 -41 -32
-16 -105 -107 -105 -131 0 -22 17 -53 73 -137 35 -52 80 -72 212 -98 365 -71
530 -88 945 -98 l265 -7 70 33 c39 18 114 52 167 75 129 58 185 101 226 177
40 75 40 99 1 159 -34 54 -61 67 -159 79 -37 4 -91 20 -125 36 l-60 29 -3 75
c-3 104 -12 110 -147 110 -63 0 -143 8 -205 20 -56 11 -110 20 -120 20 -10 0
-28 12 -40 27 -19 24 -20 37 -18 172 l3 146 70 8 c104 13 113 15 120 37 17 54
-12 72 -118 74 -61 1 -62 2 -80 37 -10 20 -20 68 -24 105 -5 64 -16 95 -32 93
-3 0 -17 -5 -31 -10z"/>
</g>
</svg>
