<?xml version="1.0" standalone="no"?>
<!DOCTYPE svg PUBLIC "-//W3C//DTD SVG 20010904//EN"
 "http://www.w3.org/TR/2001/REC-SVG-20010904/DTD/svg10.dtd">
<svg version="1.0" xmlns="http://www.w3.org/2000/svg"
 width="360.000000pt" height="243.000000pt" viewBox="0 0 360.000000 243.000000"
 preserveAspectRatio="xMidYMid meet">
<metadata>
Created by potrace 1.13, written by Peter Selinger 2001-2015
</metadata>
<g transform="translate(0.000000,243.000000) scale(0.100000,-0.100000)"
fill="#000000" stroke="none">
<path d="M1806 1595 c-12 -13 -14 -31 -9 -94 3 -43 3 -90 -1 -105 -6 -26 -7
-26 -105 -26 -76 0 -103 -4 -115 -15 -29 -29 -9 -42 71 -47 68 -5 79 -8 101
-33 21 -25 23 -35 19 -94 -3 -36 -11 -98 -18 -138 l-13 -72 -47 -21 c-40 -17
-121 -40 -324 -91 -74 -19 -143 -59 -153 -88 -7 -21 -23 -33 -65 -48 -82 -32
-132 -67 -178 -125 -23 -29 -45 -55 -50 -56 -5 -2 -30 -31 -55 -64 -44 -56
-68 -116 -58 -142 13 -33 217 -126 309 -141 22 -4 110 -25 195 -48 85 -22 193
-44 240 -48 47 -4 103 -13 125 -19 90 -25 119 -28 321 -40 163 -10 235 -10
315 -1 100 12 110 15 253 87 148 74 277 159 296 194 6 10 10 43 10 73 0 55 0
55 -75 131 -76 77 -142 116 -247 145 -43 12 -47 16 -57 56 -6 24 -11 57 -11
73 0 42 -17 52 -111 61 -46 5 -154 20 -239 35 -85 16 -170 30 -187 32 -33 5
-33 6 -33 58 0 29 -3 100 -6 158 l-7 106 29 15 c16 8 74 22 128 30 101 16 139
34 114 54 -7 5 -65 15 -128 22 -153 16 -150 15 -150 59 0 40 -28 150 -43 170
-13 16 -22 15 -41 -3z"/>
</g>
</svg>
