<?xml version="1.0" standalone="no"?>
<!DOCTYPE svg PUBLIC "-//W3C//DTD SVG 20010904//EN"
 "http://www.w3.org/TR/2001/REC-SVG-20010904/DTD/svg10.dtd">
<svg version="1.0" xmlns="http://www.w3.org/2000/svg"
 width="360.000000pt" height="243.000000pt" viewBox="0 0 360.000000 243.000000"
 preserveAspectRatio="xMidYMid meet">
<metadata>
Created by potrace 1.13, written by Peter Selinger 2001-2015
</metadata>
<g transform="translate(0.000000,243.000000) scale(0.100000,-0.100000)"
fill="#000000" stroke="none">
<path d="M1802 1581 c-20 -12 -42 -97 -42 -159 l0 -54 -32 7 c-57 12 -98 9
-115 -8 -16 -15 -16 -20 3 -63 22 -55 58 -85 111 -93 l38 -6 3 -95 c4 -143 6
-140 -84 -140 -107 0 -214 -25 -303 -71 -42 -21 -83 -39 -91 -39 -17 0 -79
-21 -97 -33 -7 -5 -13 -28 -13 -53 0 -42 -2 -47 -32 -57 -18 -7 -60 -27 -93
-44 -33 -18 -93 -49 -132 -68 -40 -20 -80 -47 -89 -60 -22 -34 -11 -109 30
-188 28 -56 38 -66 106 -104 77 -44 171 -76 250 -87 25 -4 79 -19 120 -33 72
-26 84 -27 325 -30 398 -6 657 25 871 105 61 23 127 45 145 49 76 14 119 41
139 85 40 89 12 191 -72 262 -130 109 -155 126 -196 141 -25 8 -56 15 -69 15
-20 0 -23 5 -23 35 0 46 -25 67 -118 99 -72 24 -90 26 -249 26 -127 0 -174 3
-180 13 -4 6 -9 85 -11 173 l-4 161 58 5 c66 5 164 43 164 64 0 34 -26 41
-129 36 l-101 -5 0 69 c0 38 4 83 9 101 6 21 5 35 -2 42 -13 13 -76 14 -95 2z"/>
</g>
</svg>
