<?xml version="1.0" standalone="no"?>
<!DOCTYPE svg PUBLIC "-//W3C//DTD SVG 20010904//EN"
 "http://www.w3.org/TR/2001/REC-SVG-20010904/DTD/svg10.dtd">
<svg version="1.0" xmlns="http://www.w3.org/2000/svg"
 width="360.000000pt" height="243.000000pt" viewBox="0 0 360.000000 243.000000"
 preserveAspectRatio="xMidYMid meet">
<metadata>
Created by potrace 1.13, written by Peter Selinger 2001-2015
</metadata>
<g transform="translate(0.000000,243.000000) scale(0.100000,-0.100000)"
fill="#000000" stroke="none">
<path d="M1813 1629 c-45 -22 -69 -63 -65 -113 2 -17 4 -51 5 -76 l2 -45 -55
-6 c-72 -8 -126 -35 -141 -71 -19 -47 -1 -58 101 -58 l88 0 12 -36 c18 -53 7
-178 -19 -236 l-22 -48 -127 0 c-107 0 -137 -4 -194 -24 -114 -40 -198 -113
-198 -171 0 -17 -9 -25 -40 -34 -24 -7 -66 -35 -103 -69 -34 -32 -83 -75 -110
-96 -57 -45 -77 -81 -77 -136 0 -80 23 -100 190 -171 41 -17 85 -40 98 -50 33
-25 104 -47 208 -64 49 -8 125 -21 169 -30 58 -11 168 -18 397 -22 312 -6 319
-5 380 17 105 37 281 121 320 152 21 16 61 40 90 55 109 54 148 104 148 187 0
82 -64 129 -267 196 -105 34 -113 40 -113 97 0 12 -10 34 -23 49 -19 22 -42
30 -137 50 -194 41 -211 44 -265 44 -133 0 -148 19 -149 190 l-1 115 90 28
c130 41 144 47 150 69 13 39 -10 48 -126 48 l-109 0 0 59 c0 60 -32 186 -54
208 -9 10 -20 8 -53 -8z"/>
</g>
</svg>
