<?xml version="1.0" standalone="no"?>
<!DOCTYPE svg PUBLIC "-//W3C//DTD SVG 20010904//EN"
 "http://www.w3.org/TR/2001/REC-SVG-20010904/DTD/svg10.dtd">
<svg version="1.0" xmlns="http://www.w3.org/2000/svg"
 width="360.000000pt" height="243.000000pt" viewBox="0 0 360.000000 243.000000"
 preserveAspectRatio="xMidYMid meet">
<metadata>
Created by potrace 1.13, written by Peter Selinger 2001-2015
</metadata>
<g transform="translate(0.000000,243.000000) scale(0.100000,-0.100000)"
fill="#000000" stroke="none">
<path d="M1822 1608 c-8 -8 -12 -44 -12 -105 0 -111 -2 -113 -119 -113 -92 0
-126 -12 -147 -52 -13 -25 -13 -29 4 -46 11 -11 61 -29 122 -43 l102 -24 -4
-100 c-3 -76 -10 -112 -27 -152 l-23 -53 -173 0 c-169 0 -174 -1 -226 -28 -41
-21 -60 -40 -89 -87 -31 -52 -43 -62 -91 -80 -30 -12 -72 -31 -94 -43 -39 -20
-146 -123 -179 -172 -22 -33 -22 -161 0 -199 18 -31 137 -94 209 -112 60 -14
223 -67 248 -81 42 -22 133 -38 217 -38 50 0 131 -7 182 -16 73 -12 141 -15
323 -11 228 4 231 4 318 36 49 17 126 41 173 52 105 25 173 59 225 112 73 74
149 266 120 301 -6 7 -26 16 -44 19 -54 8 -377 127 -404 149 -9 7 -13 40 -13
97 0 54 -5 92 -12 99 -9 9 -77 12 -245 12 l-233 0 0 134 c0 154 2 158 80 175
77 17 128 47 147 87 16 32 16 36 0 51 -14 15 -26 15 -117 4 -73 -10 -104 -10
-113 -2 -18 14 -37 100 -40 176 -2 56 -4 60 -27 63 -14 2 -31 -3 -38 -10z"/>
</g>
</svg>
