<?xml version="1.0" standalone="no"?>
<!DOCTYPE svg PUBLIC "-//W3C//DTD SVG 20010904//EN"
 "http://www.w3.org/TR/2001/REC-SVG-20010904/DTD/svg10.dtd">
<svg version="1.0" xmlns="http://www.w3.org/2000/svg"
 width="360.000000pt" height="243.000000pt" viewBox="0 0 360.000000 243.000000"
 preserveAspectRatio="xMidYMid meet">
<metadata>
Created by potrace 1.13, written by Peter Selinger 2001-2015
</metadata>
<g transform="translate(0.000000,243.000000) scale(0.100000,-0.100000)"
fill="#000000" stroke="none">
<path d="M1800 1640 c-15 -15 -20 -33 -20 -73 0 -29 4 -57 10 -63 5 -5 12 -35
16 -65 l6 -57 -103 -4 c-114 -5 -151 -17 -168 -55 -19 -42 0 -53 91 -53 51 0
89 -5 108 -15 l30 -16 -1 -97 c0 -87 -3 -102 -28 -147 -30 -54 -47 -62 -123
-64 -25 -1 -93 -17 -151 -36 -57 -19 -112 -35 -120 -35 -26 0 -123 -46 -146
-69 -12 -12 -21 -32 -21 -46 0 -15 -6 -25 -15 -25 -8 0 -30 -13 -48 -30 -19
-16 -60 -40 -92 -52 -77 -29 -156 -102 -194 -180 -17 -34 -31 -72 -31 -86 0
-29 69 -98 140 -139 45 -26 64 -31 195 -53 91 -16 192 -42 285 -73 275 -93
296 -97 441 -97 147 0 278 13 349 35 25 8 88 21 140 30 146 25 197 41 248 78
26 19 76 49 112 67 92 45 122 71 151 126 50 92 49 93 -45 188 -90 91 -127 114
-221 141 -80 23 -115 49 -115 84 0 44 -30 120 -56 140 -15 12 -49 21 -91 26
-69 7 -112 18 -213 54 -30 11 -71 21 -90 21 -59 1 -76 10 -101 53 -18 33 -23
57 -24 117 l0 75 69 17 c100 24 145 47 153 76 12 49 -5 57 -121 60 l-106 3 0
114 c0 90 -3 117 -16 129 -21 22 -60 20 -84 -4z"/>
</g>
</svg>
