<?xml version="1.0" standalone="no"?>
<!DOCTYPE svg PUBLIC "-//W3C//DTD SVG 20010904//EN"
 "http://www.w3.org/TR/2001/REC-SVG-20010904/DTD/svg10.dtd">
<svg version="1.0" xmlns="http://www.w3.org/2000/svg"
 width="360.000000pt" height="243.000000pt" viewBox="0 0 360.000000 243.000000"
 preserveAspectRatio="xMidYMid meet">
<metadata>
Created by potrace 1.13, written by Peter Selinger 2001-2015
</metadata>
<g transform="translate(0.000000,243.000000) scale(0.100000,-0.100000)"
fill="#000000" stroke="none">
<path d="M1806 1670 c-16 -5 -33 -15 -37 -22 -5 -7 -9 -62 -9 -123 0 -60 -4
-115 -8 -122 -12 -19 -60 -33 -117 -33 -36 0 -60 -6 -75 -18 l-23 -19 58 -41
c38 -28 69 -42 89 -42 18 0 42 -7 54 -16 31 -22 29 -95 -7 -209 l-28 -90 -151
-6 c-138 -5 -153 -7 -186 -30 -20 -13 -36 -27 -36 -32 0 -4 -26 -20 -57 -35
-45 -21 -60 -34 -66 -57 -17 -54 -23 -60 -134 -115 -121 -61 -197 -111 -213
-140 -15 -27 -12 -107 4 -139 23 -43 79 -87 143 -111 32 -12 108 -48 168 -80
154 -82 193 -90 426 -90 107 0 223 5 259 10 36 6 173 15 305 20 225 8 248 11
375 44 159 41 222 66 244 97 24 35 22 150 -5 208 -43 96 -55 114 -97 152 -51
45 -93 59 -174 59 -55 0 -58 1 -58 25 0 59 -54 123 -150 176 -17 10 -74 16
-182 19 -98 3 -161 9 -168 16 -13 13 -11 297 2 309 4 4 40 16 80 27 92 24 134
48 130 74 -5 33 -37 50 -123 63 -46 6 -93 14 -105 16 -19 4 -21 14 -27 105 -9
146 -27 172 -101 150z"/>
</g>
</svg>
