<?xml version="1.0" standalone="no"?>
<!DOCTYPE svg PUBLIC "-//W3C//DTD SVG 20010904//EN"
 "http://www.w3.org/TR/2001/REC-SVG-20010904/DTD/svg10.dtd">
<svg version="1.0" xmlns="http://www.w3.org/2000/svg"
 width="198.000000pt" height="211.000000pt" viewBox="0 0 198.000000 211.000000"
 preserveAspectRatio="xMidYMid meet">
<metadata>
Created by potrace 1.13, written by Peter Selinger 2001-2015
</metadata>
<g transform="translate(0.000000,211.000000) scale(0.100000,-0.100000)"
fill="#000000" stroke="none">
<path d="M498 2075 c-20 -13 -38 -30 -40 -37 -3 -9 -37 -13 -112 -14 -155 -3
-200 -16 -235 -68 -46 -68 -53 -99 -40 -191 6 -44 14 -96 19 -115 5 -19 11
-66 14 -105 5 -59 14 -86 62 -180 77 -150 113 -200 171 -236 19 -12 33 -29 33
-40 0 -10 4 -19 8 -19 14 0 31 -62 42 -151 11 -93 8 -111 -32 -169 -13 -19
-30 -50 -37 -67 -15 -37 -26 -41 -40 -14 -29 53 -111 65 -111 16 0 -25 -14
-33 -25 -16 -8 14 -108 33 -129 25 -12 -5 -16 -16 -14 -37 3 -27 8 -32 41 -39
38 -8 86 -36 87 -50 0 -5 -24 -8 -52 -9 -84 -2 -103 -10 -103 -44 0 -30 1 -30
66 -35 58 -4 72 -10 122 -48 54 -41 59 -42 129 -42 77 0 103 10 143 57 11 13
46 51 78 86 32 34 68 83 80 109 12 26 24 47 27 47 3 1 14 -12 25 -28 36 -50
93 -92 178 -130 l84 -37 -21 -27 c-12 -15 -29 -27 -39 -27 -10 0 -17 -8 -17
-20 0 -17 -7 -20 -41 -20 -40 0 -40 -1 -37 -32 3 -27 -1 -33 -23 -39 -15 -3
-47 -22 -73 -40 -66 -49 -75 -99 -18 -99 23 0 21 -3 -24 -31 -58 -37 -64 -45
-64 -83 0 -27 2 -28 34 -23 19 3 44 15 55 26 34 34 94 60 114 50 24 -14 21
-24 -13 -61 -38 -40 -40 -68 -4 -68 22 0 166 65 199 90 22 17 116 39 205 49
103 12 222 40 291 69 24 11 73 21 109 24 36 3 80 13 98 22 82 43 144 152 163
291 11 76 18 96 44 127 61 72 100 176 93 242 -8 63 -71 184 -128 246 -34 36
-68 89 -100 156 -35 73 -59 110 -84 129 -44 34 -102 43 -143 22 -27 -15 -38
-31 -57 -91 -6 -17 -12 -15 -54 25 -26 25 -69 66 -97 92 -46 43 -245 155 -301
169 -12 3 -51 42 -88 86 -37 45 -90 98 -117 118 -53 39 -69 65 -69 116 0 42
-27 93 -56 107 -14 6 -51 11 -82 11 -45 0 -66 -6 -94 -25z m-191 -331 c-3 -3
-12 -4 -19 -1 -8 3 -5 6 6 6 11 1 17 -2 13 -5z m241 -491 c18 -19 23 -35 25
-88 2 -47 -1 -65 -10 -65 -9 0 -12 -27 -10 -112 3 -106 -4 -160 -24 -182 -5
-5 -8 33 -8 85 -1 145 -12 274 -31 344 -1 6 -2 23 -1 39 1 31 7 29 59 -21z
m522 -612 c19 -5 27 -9 18 -10 -9 -1 -20 -10 -23 -22 -5 -15 -12 -19 -28 -15
-12 3 -34 6 -49 6 -18 0 -28 5 -28 15 0 8 -4 15 -9 15 -5 0 -11 6 -14 13 -5
15 75 14 133 -2z m314 -148 c-10 -7 -27 -20 -37 -28 -22 -19 -47 -21 -29 -3 7
7 12 22 12 34 0 26 25 35 54 21 19 -10 19 -10 0 -24z m-1124 23 c0 -3 -4 -8
-10 -11 -5 -3 -10 -1 -10 4 0 6 5 11 10 11 6 0 10 -2 10 -4z m1000 -77 c37
-11 37 -12 19 -30 -11 -11 -28 -19 -39 -19 -11 0 -20 -4 -20 -10 0 -5 -13 -10
-30 -10 -23 0 -30 4 -30 20 0 11 5 20 10 20 6 0 10 9 10 20 0 23 23 26 80 9z"/>
</g>
</svg>
