<?xml version="1.0" standalone="no"?>
<!DOCTYPE svg PUBLIC "-//W3C//DTD SVG 20010904//EN"
 "http://www.w3.org/TR/2001/REC-SVG-20010904/DTD/svg10.dtd">
<svg version="1.0" xmlns="http://www.w3.org/2000/svg"
 width="198.000000pt" height="175.000000pt" viewBox="0 0 198.000000 175.000000"
 preserveAspectRatio="xMidYMid meet">
<metadata>
Created by potrace 1.13, written by Peter Selinger 2001-2015
</metadata>
<g transform="translate(0.000000,175.000000) scale(0.100000,-0.100000)"
fill="#000000" stroke="none">
<path d="M445 1725 c-22 -8 -55 -31 -72 -51 -58 -64 -66 -149 -24 -247 11 -26
32 -106 46 -179 14 -73 32 -159 40 -190 15 -59 19 -101 10 -110 -3 -3 -31 0
-63 6 -52 11 -57 14 -60 40 -2 16 0 32 5 35 19 13 45 84 39 107 -9 32 -42 31
-59 -2 -14 -26 -14 -25 -20 33 -9 82 -14 93 -48 93 -24 0 -29 -4 -29 -24 0
-46 12 -85 29 -89 12 -4 11 -5 -5 -6 -13 -1 -29 13 -47 42 -44 67 -65 89 -84
85 -30 -6 -27 -51 8 -107 17 -29 29 -54 27 -57 -3 -2 -22 9 -43 26 -21 16 -48
30 -61 30 -20 0 -24 -5 -24 -33 0 -25 9 -39 43 -69 39 -33 56 -59 106 -166 29
-62 117 -124 227 -161 65 -22 156 -31 189 -19 17 6 23 0 39 -35 20 -44 76
-119 114 -152 12 -11 37 -32 54 -47 l32 -28 -27 0 c-17 0 -27 -5 -27 -15 0
-10 -10 -15 -31 -15 -30 0 -31 -2 -27 -35 l4 -35 -49 0 c-26 0 -57 -5 -68 -10
-22 -13 -25 -43 -5 -63 13 -12 4 -16 -65 -25 -44 -7 -88 -16 -99 -22 -23 -12
-26 -42 -7 -58 6 -5 77 -12 157 -14 115 -3 152 -8 179 -22 l33 -18 -31 -19
c-17 -10 -36 -19 -41 -19 -16 0 -23 -49 -10 -65 17 -21 33 -19 97 10 52 24 63
26 216 24 176 -2 264 13 366 65 74 37 91 55 91 97 0 43 21 72 158 217 87 93
87 93 128 87 31 -4 44 -2 56 12 25 27 32 110 15 163 -8 25 -22 78 -31 119 -26
116 -132 300 -208 361 -49 40 -115 51 -152 26 -14 -9 -28 -16 -30 -16 -3 0
-36 27 -72 60 -74 67 -158 120 -233 147 -41 14 -57 27 -81 65 -17 26 -42 56
-55 67 -19 15 -27 33 -34 82 -7 56 -13 67 -46 96 -48 41 -90 49 -188 35 -42
-6 -83 -10 -90 -7 -41 12 -126 12 -162 0z m375 -75 c41 -35 34 -48 -19 -30
-45 15 -61 8 -61 -26 0 -21 -4 -24 -40 -24 -22 0 -40 -4 -40 -10 0 -5 -9 -10
-20 -10 -11 0 -20 -4 -20 -10 0 -5 -8 -10 -18 -10 -10 0 -27 -7 -38 -15 -27
-21 -71 -18 -105 5 -24 18 -27 26 -22 51 3 18 1 34 -5 38 -6 3 -12 13 -14 21
-2 10 6 13 33 11 23 -1 42 4 53 14 26 27 106 1 106 -34 0 -6 18 -11 40 -11 33
0 40 3 40 19 0 11 -6 21 -12 24 -12 4 57 23 92 26 8 0 31 -12 50 -29z m22
-199 c-6 -14 -7 -14 -10 2 -2 9 -8 17 -13 17 -5 0 -9 5 -9 10 0 6 7 6 19 -2
12 -7 17 -18 13 -27z m-132 9 c10 -18 9 -19 -15 -10 -15 6 -38 10 -53 11 l-27
1 25 8 c42 13 59 11 70 -10z m-232 -41 c29 -12 32 -18 32 -56 0 -33 6 -48 30
-71 17 -17 30 -36 30 -44 0 -9 -3 -10 -8 -2 -4 6 -17 14 -29 18 -13 4 -23 14
-23 22 0 8 -4 14 -10 14 -5 0 -10 7 -10 15 0 8 -4 15 -10 15 -5 0 -10 9 -10
21 0 21 -21 49 -37 49 -5 0 -17 16 -26 36 l-17 36 27 -20 c16 -10 43 -25 61
-33z m409 -54 c12 -11 23 -26 23 -33 0 -7 6 -12 13 -13 9 0 9 -2 0 -6 -7 -2
-26 5 -43 17 -23 16 -30 29 -29 53 0 18 3 25 6 17 4 -8 17 -24 30 -35z m-407
-132 c0 -2 -7 -3 -15 -3 -8 0 -15 8 -15 18 0 9 -3 28 -6 42 -3 17 1 12 15 -14
12 -22 21 -41 21 -43z m520 25 c0 -5 9 -8 19 -8 20 0 31 -17 24 -37 -6 -16
-33 -5 -33 13 0 8 -12 20 -27 27 -16 6 -31 16 -35 22 -15 21 -7 24 22 7 16 -9
30 -20 30 -24z m-234 -75 c-36 -19 -34 -58 9 -150 19 -41 35 -77 35 -79 0 -2
-10 -4 -22 -4 -19 0 -29 13 -52 66 -16 36 -38 70 -48 75 -26 14 -22 29 7 29
22 0 25 4 25 39 0 42 10 50 49 43 l24 -5 -27 -14z m-241 -13 c13 -6 15 -9 5
-9 -8 0 -22 4 -30 9 -18 12 -2 12 25 0z m455 -20 c0 -5 -5 -10 -11 -10 -5 0
-7 5 -4 10 3 6 8 10 11 10 2 0 4 -4 4 -10z m-730 -54 c0 -3 -4 -8 -10 -11 -5
-3 -10 -1 -10 4 0 6 5 11 10 11 6 0 10 -2 10 -4z m890 -16 c0 -5 -2 -10 -4
-10 -3 0 -8 5 -11 10 -3 6 -1 10 4 10 6 0 11 -4 11 -10z m190 -14 c0 -3 -4 -8
-10 -11 -5 -3 -10 -1 -10 4 0 6 5 11 10 11 6 0 10 -2 10 -4z m-1070 -66 c0
-23 -3 -27 -20 -23 -11 3 -27 0 -35 -7 -18 -15 -21 -13 -33 20 -9 23 -7 26 32
36 50 13 56 11 56 -26z m336 -7 c17 -17 17 -18 -1 -22 -11 -2 -21 2 -23 8 -2
6 -18 12 -35 12 l-32 1 30 8 c17 4 33 8 37 9 4 0 14 -7 24 -16z m454 -56 c0
-40 -2 -43 -40 -60 -53 -23 -56 -22 -25 8 19 20 25 36 25 71 0 42 1 44 20 34
15 -8 20 -21 20 -53z m164 48 c19 -14 17 -15 -17 -15 -32 0 -36 2 -25 15 16
18 18 18 42 0z m86 -92 c0 -7 3 -13 8 -13 4 0 18 -25 32 -55 14 -30 28 -55 33
-55 4 0 20 -28 36 -62 29 -63 29 -63 7 -70 -32 -9 -46 -9 -46 2 0 6 7 10 15
10 9 0 15 9 15 24 0 13 -7 29 -15 36 -8 7 -15 20 -16 29 -1 29 -35 76 -57 79
-27 4 -37 23 -46 81 -7 45 -7 45 14 26 11 -10 20 -24 20 -32z m-947 7 c-3 -11
-12 -20 -19 -20 -8 0 -14 9 -14 20 0 13 7 20 19 20 14 0 18 -5 14 -20z m231 3
c4 -9 2 -21 -4 -27 -5 -5 -10 -20 -10 -32 0 -12 -6 -26 -13 -32 -13 -11 -19
-2 -44 76 l-11 32 38 0 c26 0 40 -5 44 -17z m370 10 c-5 -5 -12 -12 -16 -18
-4 -6 -8 -2 -8 8 0 9 7 17 17 17 9 0 12 -3 7 -7z m-224 -78 c0 -9 7 -18 15
-21 8 -4 15 -10 15 -16 0 -5 -13 -1 -30 9 -31 18 -35 25 -23 36 11 12 23 8 23
-8z m224 -11 c-5 -19 -1 -29 15 -40 30 -21 26 -29 -14 -30 -30 0 -35 3 -40 28
-4 15 -11 28 -16 28 -5 0 -9 6 -9 14 0 9 8 12 25 8 15 -2 25 0 25 7 0 6 5 11
10 11 6 0 8 -11 4 -26z m-233 -99 c30 -10 59 4 59 28 1 21 1 21 14 -2 17 -30
10 -51 -15 -51 -11 0 -19 -7 -19 -16 0 -24 19 -54 34 -54 8 0 16 -7 20 -15 3
-8 13 -15 23 -16 12 -1 9 -3 -7 -8 -34 -9 -36 -54 -2 -59 18 -3 22 1 22 25 l0
28 15 -29 c19 -36 19 -62 1 -69 -21 -8 -149 120 -164 164 -7 19 -11 55 -11 80
1 24 4 34 6 22 2 -12 13 -25 24 -28z m609 -170 c0 -45 -14 -61 -24 -27 -3 10
-20 23 -37 29 -27 11 -30 15 -19 28 7 8 28 15 46 15 34 0 34 -1 34 -45z m200
19 c0 -8 -4 -12 -10 -9 -5 3 -10 10 -10 16 0 5 5 9 10 9 6 0 10 -7 10 -16z
m-555 -64 c-3 -5 -16 -10 -28 -9 -20 1 -20 2 3 9 14 4 26 8 28 9 2 1 0 -3 -3
-9z m165 -99 c0 -5 17 -13 37 -18 23 -5 39 -15 41 -26 2 -9 -1 -17 -7 -17 -6
0 -11 7 -11 16 0 26 -54 14 -58 -13 -3 -20 -48 -60 -58 -51 -2 3 1 20 6 39 6
18 10 40 10 46 0 22 -34 14 -54 -12 -10 -14 -29 -25 -41 -25 -13 0 -25 -7 -29
-15 -3 -8 -10 -15 -15 -15 -21 0 13 62 43 81 32 20 136 27 136 10z m-286 -45
c-3 -14 -12 -26 -20 -26 -19 0 -18 11 3 37 22 26 26 23 17 -11z m471 -66 c8 0
15 -4 15 -10 0 -5 -11 -10 -25 -10 -21 0 -25 5 -25 28 1 23 2 24 11 10 5 -10
17 -18 24 -18z m-560 -40 c8 -13 -25 -13 -45 0 -12 8 -9 10 12 10 15 0 30 -4
33 -10z m570 -69 c-19 -20 -25 -12 -13 19 7 20 11 22 18 10 6 -10 4 -20 -5
-29z m-325 -51 c4 0 10 -7 14 -15 4 -11 -2 -15 -24 -15 -24 0 -30 4 -30 21 0
15 4 19 16 15 9 -3 19 -6 24 -6z m225 0 c-3 -5 -11 -10 -16 -10 -6 0 -7 5 -4
10 3 6 11 10 16 10 6 0 7 -4 4 -10z m-378 -6 c-3 -3 -12 -4 -19 -1 -8 3 -5 6
6 6 11 1 17 -2 13 -5z"/>
</g>
</svg>
