<?xml version="1.0" standalone="no"?>
<!DOCTYPE svg PUBLIC "-//W3C//DTD SVG 20010904//EN"
 "http://www.w3.org/TR/2001/REC-SVG-20010904/DTD/svg10.dtd">
<svg version="1.0" xmlns="http://www.w3.org/2000/svg"
 width="220.000000pt" height="182.000000pt" viewBox="0 0 220.000000 182.000000"
 preserveAspectRatio="xMidYMid meet">
<metadata>
Created by potrace 1.13, written by Peter Selinger 2001-2015
</metadata>
<g transform="translate(0.000000,182.000000) scale(0.100000,-0.100000)"
fill="#000000" stroke="none">
<path d="M766 1751 l-30 -31 -91 6 c-51 4 -112 4 -137 0 -46 -7 -128 -52 -128
-71 0 -5 -7 -23 -16 -40 -25 -47 -21 -163 10 -266 23 -80 39 -116 93 -209 14
-24 24 -71 32 -150 7 -63 15 -125 18 -138 5 -21 3 -23 -28 -20 -31 3 -34 5
-32 34 3 39 -17 58 -57 52 -16 -3 -30 -1 -30 4 0 5 -12 34 -26 64 -17 35 -32
54 -43 54 -20 0 -51 -30 -51 -48 0 -17 -7 -15 -44 13 -42 32 -102 35 -111 5
-5 -14 2 -31 22 -54 15 -18 36 -43 47 -56 l18 -23 -28 7 c-88 19 -92 19 -99
-4 -8 -26 24 -66 70 -85 17 -7 52 -36 79 -63 49 -50 128 -96 196 -115 19 -5
82 -12 140 -16 l105 -6 41 -77 c23 -42 49 -85 59 -94 10 -10 14 -19 9 -21 -50
-14 -157 -29 -190 -26 -24 3 -45 0 -48 -6 -4 -6 -19 -11 -34 -11 -15 0 -46 -9
-70 -20 -38 -17 -43 -23 -40 -47 l3 -28 105 1 c101 2 103 1 62 -12 -62 -19
-104 -52 -100 -78 4 -28 47 -32 126 -12 71 19 152 20 207 4 35 -10 37 -12 15
-15 -137 -18 -231 -60 -217 -96 6 -15 23 -17 124 -16 70 1 130 7 148 15 17 7
46 14 65 17 53 7 252 -10 317 -27 106 -27 208 -46 249 -46 80 0 296 59 420
115 94 43 129 86 121 150 l-7 45 44 -6 c88 -12 146 29 146 103 -1 51 -24 99
-104 216 -37 54 -70 106 -73 115 -4 10 -16 33 -28 52 -12 19 -35 64 -50 100
-59 134 -222 331 -334 402 -47 29 -117 38 -138 17 -8 -8 -29 1 -74 32 -73 49
-157 113 -209 159 -52 46 -85 73 -116 95 -16 11 -42 35 -59 54 -111 123 -107
120 -165 127 -52 6 -57 4 -84 -25z m-126 -1071 c0 -5 -12 -10 -27 -9 l-28 1
25 8 c14 4 26 8 28 9 1 1 2 -3 2 -9z"/>
</g>
</svg>
