<?xml version="1.0" standalone="no"?>
<!DOCTYPE svg PUBLIC "-//W3C//DTD SVG 20010904//EN"
 "http://www.w3.org/TR/2001/REC-SVG-20010904/DTD/svg10.dtd">
<svg version="1.0" xmlns="http://www.w3.org/2000/svg"
 width="325.000000pt" height="341.000000pt" viewBox="0 0 325.000000 341.000000"
 preserveAspectRatio="xMidYMid meet">
<metadata>
Created by potrace 1.13, written by Peter Selinger 2001-2015
</metadata>
<g transform="translate(0.000000,341.000000) scale(0.100000,-0.100000)"
fill="#000000" stroke="none">
<path d="M2277 3379 c-32 -10 -97 -37 -145 -60 l-87 -42 -68 11 c-93 16 -114
15 -166 -10 -82 -39 -119 -95 -145 -220 -9 -42 -20 -87 -25 -101 -8 -20 -119
-176 -191 -267 -11 -14 -20 -30 -20 -37 0 -6 -4 -13 -8 -15 -5 -1 -31 -34 -60
-71 -60 -80 -295 -327 -311 -327 -6 0 -11 -4 -11 -9 0 -7 -22 -23 -115 -83
-112 -73 -238 -189 -251 -231 -4 -12 -10 -24 -13 -27 -4 -3 -18 -27 -32 -55
-18 -37 -37 -56 -70 -75 -100 -55 -211 -154 -292 -261 -138 -181 -192 -288
-212 -414 -4 -22 -16 -84 -27 -138 -25 -120 -19 -156 33 -218 46 -55 91 -75
196 -88 82 -10 119 -32 129 -76 14 -63 28 -78 140 -153 49 -33 107 -79 130
-103 81 -89 199 -167 384 -254 106 -51 360 -72 466 -40 27 8 75 19 106 25 50
9 93 24 173 60 11 5 65 27 120 48 55 22 120 48 145 60 25 11 72 30 105 42 33
12 69 25 80 30 13 5 43 0 80 -12 74 -23 165 -17 165 11 0 9 -9 27 -19 38 l-20
21 42 6 c64 10 107 40 107 73 -1 50 -38 67 -135 60 l-84 -5 19 21 c30 32 73
57 98 57 17 0 22 6 22 25 0 28 -25 45 -68 45 -25 0 -28 3 -25 28 7 47 -35 113
-99 155 -32 20 -84 55 -115 77 -68 47 -213 120 -238 120 -17 0 -7 13 116 147
16 17 29 37 29 43 0 7 8 20 18 29 10 9 34 49 53 88 18 40 36 73 39 73 3 0 25
-30 49 -66 49 -73 101 -134 176 -209 86 -86 109 -102 193 -130 68 -23 92 -27
142 -22 68 8 136 50 167 105 24 44 82 83 111 76 50 -14 73 53 27 74 -14 7 -37
12 -50 12 -32 0 -24 21 26 69 60 58 85 123 53 135 -31 12 -51 5 -117 -39 -72
-48 -84 -43 -42 19 14 20 25 48 25 61 0 22 -5 25 -33 25 -41 0 -113 -49 -127
-85 -5 -14 -17 -37 -27 -51 l-17 -26 -18 36 c-20 38 -46 46 -71 22 -12 -13
-22 -7 -70 41 -65 65 -126 177 -128 238 -1 22 -5 65 -10 96 -6 35 -6 107 1
189 8 113 16 151 50 254 89 261 88 253 93 766 2 157 1 169 -25 240 -15 41 -32
76 -38 78 -5 2 -10 11 -10 20 -1 20 -25 51 -60 75 -33 23 -136 21 -213 -4z
m60 -1611 c-3 -8 -6 -5 -6 6 -1 11 2 17 5 13 3 -3 4 -12 1 -19z m-17 -93 c0
-8 5 -15 11 -15 18 0 39 -27 39 -50 0 -18 -4 -20 -22 -14 -28 8 -23 1 -35 52
-6 23 -7 42 -2 42 5 0 9 -7 9 -15z m-290 -126 c0 -4 -7 -6 -15 -3 -8 4 -15 10
-15 15 0 4 7 6 15 3 8 -4 15 -10 15 -15z m80 -4 c0 -16 -41 -30 -62 -22 -7 3
-1 6 15 6 17 1 27 6 27 16 0 8 5 15 10 15 6 0 10 -7 10 -15z m-40 -90 c0 -8
-7 -15 -15 -15 -9 0 -12 6 -9 15 4 8 10 15 15 15 5 0 9 -7 9 -15z m-7 -62 c-7
-2 -19 -2 -25 0 -7 3 -2 5 12 5 14 0 19 -2 13 -5z m-67 -86 c-2 -7 -5 -4 -5 6
-1 9 -9 17 -18 17 -15 0 -16 2 -3 10 17 10 35 -12 26 -33z m57 -24 c-7 -2 -21
-2 -30 0 -10 3 -4 5 12 5 17 0 24 -2 18 -5z m-183 -53 c0 -5 -2 -10 -4 -10 -3
0 -8 5 -11 10 -3 6 -1 10 4 10 6 0 11 -4 11 -10z"/>
</g>
</svg>
