<?xml version="1.0" standalone="no"?>
<!DOCTYPE svg PUBLIC "-//W3C//DTD SVG 20010904//EN"
 "http://www.w3.org/TR/2001/REC-SVG-20010904/DTD/svg10.dtd">
<svg version="1.0" xmlns="http://www.w3.org/2000/svg"
 width="325.000000pt" height="341.000000pt" viewBox="0 0 325.000000 341.000000"
 preserveAspectRatio="xMidYMid meet">
<metadata>
Created by potrace 1.13, written by Peter Selinger 2001-2015
</metadata>
<g transform="translate(0.000000,341.000000) scale(0.100000,-0.100000)"
fill="#000000" stroke="none">
<path d="M760 3383 c-35 -24 -59 -55 -60 -75 0 -9 -5 -18 -10 -20 -6 -2 -23
-37 -38 -78 -26 -71 -27 -83 -25 -240 5 -513 4 -505 93 -766 34 -103 42 -141
50 -254 7 -82 7 -154 1 -189 -5 -31 -9 -74 -10 -96 -2 -61 -63 -173 -128 -238
-48 -48 -58 -54 -70 -41 -25 24 -51 16 -71 -22 l-18 -36 -17 26 c-10 14 -22
37 -27 51 -14 36 -86 85 -127 85 -28 0 -33 -3 -33 -25 0 -13 11 -41 25 -61 41
-60 31 -68 -33 -24 -88 60 -139 80 -205 80 -54 0 -58 -2 -55 -21 2 -14 26 -36
70 -63 72 -44 150 -112 161 -139 5 -13 1 -17 -18 -17 -13 0 -36 -5 -50 -12
-46 -21 -23 -88 27 -74 29 7 87 -32 111 -76 31 -55 99 -97 167 -105 50 -5 74
-1 142 22 84 28 107 44 193 130 75 75 127 136 176 209 24 36 46 66 49 66 3 0
21 -33 39 -73 19 -39 43 -79 53 -88 10 -9 18 -22 18 -29 0 -6 13 -26 29 -43
123 -134 133 -147 116 -147 -25 0 -171 -74 -240 -122 -33 -23 -85 -58 -115
-77 -62 -40 -104 -107 -97 -154 3 -24 0 -27 -25 -27 -43 0 -68 -17 -68 -45 0
-19 5 -25 23 -25 24 0 67 -25 95 -56 18 -19 13 -19 -268 -20 -196 -1 -298 -5
-323 -13 -21 -7 -77 -16 -125 -19 -82 -7 -87 -8 -90 -31 -2 -13 1 -28 7 -34 7
-7 110 -11 303 -12 184 -1 321 -7 370 -15 l76 -12 -19 -21 c-10 -11 -19 -29
-19 -38 0 -28 91 -34 165 -11 37 12 67 17 80 12 11 -5 47 -18 80 -30 33 -12
80 -31 105 -42 25 -12 90 -38 145 -60 55 -21 109 -43 120 -48 80 -36 123 -51
173 -60 31 -6 79 -17 106 -25 106 -32 360 -11 466 40 185 87 303 165 384 254
23 24 81 70 130 103 112 75 126 90 140 153 10 44 47 66 129 76 105 13 150 33
196 88 52 62 58 98 33 218 -11 54 -23 116 -27 138 -20 126 -74 233 -212 414
-81 107 -192 206 -292 261 -33 19 -52 38 -70 75 -14 28 -28 52 -32 55 -3 3 -9
15 -13 27 -13 42 -139 158 -251 231 -93 60 -115 76 -115 83 0 5 -5 9 -11 9
-16 0 -251 247 -311 327 -29 37 -55 70 -60 71 -4 2 -8 9 -8 15 0 7 -9 23 -20
37 -72 91 -183 247 -191 267 -5 14 -16 59 -25 101 -26 125 -63 181 -145 220
-52 25 -73 26 -166 10 l-68 -11 -86 41 c-165 80 -302 104 -359 65z m157 -1615
c-3 -8 -6 -5 -6 6 -1 11 2 17 5 13 3 -3 4 -12 1 -19z m20 -120 c-12 -51 -7
-44 -34 -52 -19 -6 -23 -4 -23 14 0 23 21 50 39 50 6 0 11 7 11 15 0 8 4 15 9
15 5 0 4 -19 -2 -42z m303 -98 c-8 -5 -17 -7 -19 -4 -3 3 1 9 9 14 8 5 17 7
19 4 3 -3 -1 -9 -9 -14z m-80 -5 c0 -10 10 -15 28 -16 15 0 21 -3 14 -6 -21
-8 -62 6 -62 22 0 8 5 15 10 15 6 0 10 -7 10 -15z m44 -90 c3 -9 0 -15 -9 -15
-8 0 -15 7 -15 15 0 8 4 15 9 15 5 0 11 -7 15 -15z m9 -62 c-7 -2 -19 -2 -25
0 -7 3 -2 5 12 5 14 0 19 -2 13 -5z m65 -61 c-10 -2 -18 -11 -18 -19 0 -9 -3
-14 -6 -10 -3 3 -3 15 1 26 4 14 11 18 23 13 16 -6 16 -7 0 -10z m-45 -49 c-7
-2 -21 -2 -30 0 -10 3 -4 5 12 5 17 0 24 -2 18 -5z m167 -47 c0 -3 -4 -8 -10
-11 -5 -3 -10 -1 -10 4 0 6 5 11 10 11 6 0 10 -2 10 -4z"/>
</g>
</svg>
