<?xml version="1.0" standalone="no"?>
<!DOCTYPE svg PUBLIC "-//W3C//DTD SVG 20010904//EN"
 "http://www.w3.org/TR/2001/REC-SVG-20010904/DTD/svg10.dtd">
<svg version="1.0" xmlns="http://www.w3.org/2000/svg"
 width="324.000000pt" height="361.000000pt" viewBox="0 0 324.000000 361.000000"
 preserveAspectRatio="xMidYMid meet">
<metadata>
Created by potrace 1.13, written by Peter Selinger 2001-2015
</metadata>
<g transform="translate(0.000000,361.000000) scale(0.100000,-0.100000)"
fill="#000000" stroke="none">
<path d="M5 3529 c4 -46 15 -243 25 -438 10 -194 22 -357 27 -361 4 -4 113
-87 240 -184 l233 -177 422 -126 c233 -69 424 -129 426 -133 1 -4 110 -154
242 -333 l239 -325 -23 -49 c-13 -26 -103 -233 -200 -458 l-178 -411 -696
-254 c-383 -139 -708 -259 -722 -266 -20 -11 266 -13 1584 -14 1118 0 1607 3
1600 10 -6 6 -285 126 -620 266 -334 140 -609 256 -611 257 -1 2 58 218 131
481 l133 478 -122 336 -122 337 321 162 321 161 135 139 c107 109 143 152 168
205 63 129 75 268 47 528 -8 74 -15 161 -15 193 l0 57 -77 -5 c-337 -24 -1383
-32 -1943 -15 -168 5 -455 12 -638 16 l-332 7 5 -84z"/>
</g>
</svg>
