<?xml version="1.0" standalone="no"?>
<!DOCTYPE svg PUBLIC "-//W3C//DTD SVG 20010904//EN"
 "http://www.w3.org/TR/2001/REC-SVG-20010904/DTD/svg10.dtd">
<svg version="1.0" xmlns="http://www.w3.org/2000/svg"
 width="324.000000pt" height="361.000000pt" viewBox="0 0 324.000000 361.000000"
 preserveAspectRatio="xMidYMid meet">
<metadata>
Created by potrace 1.13, written by Peter Selinger 2001-2015
</metadata>
<g transform="translate(0.000000,361.000000) scale(0.100000,-0.100000)"
fill="#000000" stroke="none">
<path d="M5 3529 c4 -46 15 -243 25 -438 10 -194 22 -357 27 -361 4 -4 114
-88 243 -186 215 -163 260 -192 506 -328 l269 -149 191 -767 190 -767 -696
-253 c-382 -139 -706 -259 -720 -266 -20 -11 266 -13 1585 -13 1296 0 1607 2
1593 12 -9 7 -289 127 -622 267 l-606 253 -10 36 c-5 20 -88 358 -185 751 -97
393 -178 720 -180 726 -2 6 206 97 478 209 265 109 502 208 527 221 28 14 95
73 175 156 102 104 138 148 163 200 63 129 75 268 47 528 -8 74 -15 161 -15
193 l0 57 -77 -5 c-337 -24 -1383 -32 -1943 -15 -168 5 -455 12 -638 16 l-332
7 5 -84z"/>
</g>
</svg>
