<?xml version="1.0" standalone="no"?>
<!DOCTYPE svg PUBLIC "-//W3C//DTD SVG 20010904//EN"
 "http://www.w3.org/TR/2001/REC-SVG-20010904/DTD/svg10.dtd">
<svg version="1.0" xmlns="http://www.w3.org/2000/svg"
 width="324.000000pt" height="361.000000pt" viewBox="0 0 324.000000 361.000000"
 preserveAspectRatio="xMidYMid meet">
<metadata>
Created by potrace 1.13, written by Peter Selinger 2001-2015
</metadata>
<g transform="translate(0.000000,361.000000) scale(0.100000,-0.100000)"
fill="#000000" stroke="none">
<path d="M5 3529 c4 -46 15 -243 25 -438 10 -194 22 -357 27 -361 4 -4 113
-87 240 -184 l233 -177 416 -124 c229 -68 417 -125 419 -127 1 -2 21 -340 44
-753 22 -412 43 -768 46 -790 l4 -41 -682 -249 c-375 -136 -700 -257 -722
-267 -36 -16 -37 -17 -10 -13 675 112 1637 265 1662 265 26 0 1419 -244 1508
-264 61 -14 -67 42 -620 274 l-608 254 7 361 c3 198 9 565 12 816 l7 455 321
161 321 161 135 139 c107 109 143 152 168 205 63 129 75 268 47 528 -8 74 -15
161 -15 193 l0 57 -77 -5 c-337 -24 -1383 -32 -1943 -15 -168 5 -455 12 -638
16 l-332 7 5 -84z"/>
</g>
</svg>
