<?xml version="1.0" standalone="no"?>
<!DOCTYPE svg PUBLIC "-//W3C//DTD SVG 20010904//EN"
 "http://www.w3.org/TR/2001/REC-SVG-20010904/DTD/svg10.dtd">
<svg version="1.0" xmlns="http://www.w3.org/2000/svg"
 width="324.000000pt" height="289.000000pt" viewBox="0 0 324.000000 289.000000"
 preserveAspectRatio="xMidYMid meet">
<metadata>
Created by potrace 1.13, written by Peter Selinger 2001-2015
</metadata>
<g transform="translate(0.000000,289.000000) scale(0.100000,-0.100000)"
fill="#000000" stroke="none">
<path d="M5 2829 c3 -35 14 -194 25 -352 10 -159 20 -290 22 -291 2 -1 111
-68 243 -148 l240 -145 416 -98 415 -99 42 -605 c24 -333 45 -620 47 -637 4
-21 1 -31 -7 -31 -18 0 -1399 -404 -1418 -414 -8 -5 709 -9 1595 -9 1096 0
1606 3 1599 10 -6 6 -285 102 -620 214 l-609 203 4 394 c2 217 7 511 10 653
l6 260 313 125 313 126 123 98 c149 118 177 147 210 212 49 99 57 204 31 395
-8 58 -15 127 -15 154 l0 49 -67 -7 c-38 -3 -318 -11 -623 -17 -541 -10 -646
-10 -1973 17 l-328 7 6 -64z"/>
</g>
</svg>
