<?xml version="1.0" standalone="no"?>
<!DOCTYPE svg PUBLIC "-//W3C//DTD SVG 20010904//EN"
 "http://www.w3.org/TR/2001/REC-SVG-20010904/DTD/svg10.dtd">
<svg version="1.0" xmlns="http://www.w3.org/2000/svg"
 width="322.000000pt" height="358.000000pt" viewBox="0 0 322.000000 358.000000"
 preserveAspectRatio="xMidYMid meet">
<metadata>
Created by potrace 1.13, written by Peter Selinger 2001-2015
</metadata>
<g transform="translate(0.000000,358.000000) scale(0.100000,-0.100000)"
fill="#000000" stroke="none">
<path d="M1220 3573 c-77 -5 -200 -23 -330 -48 -150 -28 -311 -45 -435 -45
l-92 0 -138 -302 c-76 -167 -152 -334 -170 -373 l-32 -70 236 -180 c272 -207
193 -172 761 -340 l325 -96 2 -37 c1 -20 21 -376 44 -789 23 -414 40 -755 37
-758 -3 -3 -323 -121 -711 -263 -389 -142 -710 -261 -713 -265 -4 -4 717 -7
1601 -7 1118 0 1606 3 1599 10 -6 6 -284 125 -619 265 -334 140 -610 257 -613
259 -4 5 16 1628 21 1632 1 1 146 74 322 162 l320 160 133 135 c73 74 139 151
147 171 22 53 19 127 -8 188 -19 43 -112 177 -137 198 -3 3 -21 28 -41 55 -47
67 -80 137 -86 184 l-5 39 -247 5 c-254 5 -298 10 -581 67 -228 45 -391 58
-590 43z"/>
</g>
</svg>
