<?xml version="1.0" standalone="no"?>
<!DOCTYPE svg PUBLIC "-//W3C//DTD SVG 20010904//EN"
 "http://www.w3.org/TR/2001/REC-SVG-20010904/DTD/svg10.dtd">
<svg version="1.0" xmlns="http://www.w3.org/2000/svg"
 width="324.000000pt" height="361.000000pt" viewBox="0 0 324.000000 361.000000"
 preserveAspectRatio="xMidYMid meet">
<metadata>
Created by potrace 1.13, written by Peter Selinger 2001-2015
</metadata>
<g transform="translate(0.000000,361.000000) scale(0.100000,-0.100000)"
fill="#000000" stroke="none">
<path d="M5 3529 c4 -46 15 -243 25 -438 10 -194 22 -357 27 -361 4 -4 114
-88 244 -187 165 -125 317 -229 505 -346 l269 -167 103 -402 c56 -222 142
-559 190 -749 l88 -346 -695 -253 c-383 -139 -707 -259 -721 -266 -20 -11 266
-13 1584 -14 1118 0 1607 3 1600 10 -6 6 -285 126 -620 266 -334 140 -610 256
-611 258 -2 1 72 337 163 746 l166 744 151 216 c127 181 175 240 302 370 120
124 157 168 183 222 63 129 75 268 47 528 -8 74 -15 161 -15 193 l0 57 -77 -5
c-337 -24 -1383 -32 -1943 -15 -168 5 -455 12 -638 16 l-332 7 5 -84z"/>
</g>
</svg>
