<?xml version="1.0" standalone="no"?>
<!DOCTYPE svg PUBLIC "-//W3C//DTD SVG 20010904//EN"
 "http://www.w3.org/TR/2001/REC-SVG-20010904/DTD/svg10.dtd">
<svg version="1.0" xmlns="http://www.w3.org/2000/svg"
 width="324.000000pt" height="361.000000pt" viewBox="0 0 324.000000 361.000000"
 preserveAspectRatio="xMidYMid meet">
<metadata>
Created by potrace 1.13, written by Peter Selinger 2001-2015
</metadata>
<g transform="translate(0.000000,361.000000) scale(0.100000,-0.100000)"
fill="#000000" stroke="none">
<path d="M5 3529 c4 -46 15 -243 25 -438 10 -194 22 -357 27 -361 4 -4 113
-87 240 -184 l233 -177 416 -124 c229 -68 417 -125 419 -127 1 -2 21 -340 44
-753 22 -412 43 -768 46 -790 l4 -41 -697 -253 c-383 -140 -708 -260 -722
-267 -20 -11 266 -13 1585 -13 1296 0 1607 2 1593 12 -9 7 -289 127 -623 267
l-608 254 7 361 c3 198 9 566 12 818 l7 457 116 184 116 185 213 132 c117 72
225 147 241 165 90 102 206 325 245 473 24 88 54 287 45 295 -2 2 -85 0 -184
-5 -334 -16 -1384 -22 -1800 -10 -220 6 -536 14 -703 17 l-302 7 5 -84z"/>
</g>
</svg>
