<?xml version="1.0" standalone="no"?>
<!DOCTYPE svg PUBLIC "-//W3C//DTD SVG 20010904//EN"
 "http://www.w3.org/TR/2001/REC-SVG-20010904/DTD/svg10.dtd">
<svg version="1.0" xmlns="http://www.w3.org/2000/svg"
 width="324.000000pt" height="361.000000pt" viewBox="0 0 324.000000 361.000000"
 preserveAspectRatio="xMidYMid meet">
<metadata>
Created by potrace 1.13, written by Peter Selinger 2001-2015
</metadata>
<g transform="translate(0.000000,361.000000) scale(0.100000,-0.100000)"
fill="#000000" stroke="none">
<path d="M6 3528 c3 -46 14 -242 24 -437 10 -194 22 -357 27 -361 4 -4 113
-87 240 -184 l233 -177 416 -124 c229 -68 417 -125 419 -127 1 -2 21 -340 44
-753 22 -412 43 -768 46 -790 l4 -41 -697 -253 c-383 -140 -708 -260 -722
-267 -20 -11 266 -13 1585 -13 1296 0 1607 2 1593 12 -9 7 -289 127 -623 267
l-608 254 7 361 c3 198 9 565 12 816 l7 455 321 161 321 161 135 139 c107 109
143 152 168 205 63 129 75 268 47 528 -8 74 -15 161 -15 193 l0 58 -67 -7
c-145 -14 -254 -46 -309 -92 -32 -27 -54 -65 -83 -144 -41 -113 -35 -111 -381
-120 -157 -4 -386 -12 -510 -18 -370 -17 -756 -30 -912 -30 -225 0 -261 18
-479 234 -88 87 -152 143 -180 156 -69 31 -70 31 -63 -62z"/>
</g>
</svg>
