<?xml version="1.0" standalone="no"?>
<!DOCTYPE svg PUBLIC "-//W3C//DTD SVG 20010904//EN"
 "http://www.w3.org/TR/2001/REC-SVG-20010904/DTD/svg10.dtd">
<svg version="1.0" xmlns="http://www.w3.org/2000/svg"
 width="324.000000pt" height="361.000000pt" viewBox="0 0 324.000000 361.000000"
 preserveAspectRatio="xMidYMid meet">
<metadata>
Created by potrace 1.13, written by Peter Selinger 2001-2015
</metadata>
<g transform="translate(0.000000,361.000000) scale(0.100000,-0.100000)"
fill="#000000" stroke="none">
<path d="M5 3529 c4 -46 15 -243 25 -438 10 -194 22 -357 27 -361 4 -4 113
-87 240 -184 l233 -177 347 -103 c192 -57 381 -114 421 -126 l73 -21 -19 -27
c-10 -15 -89 -160 -175 -323 l-157 -296 216 -467 c119 -257 214 -469 211 -472
-3 -3 -323 -122 -712 -264 -389 -142 -709 -261 -712 -264 -4 -3 718 -6 1602
-6 1114 0 1606 3 1599 10 -6 6 -287 126 -624 268 l-613 257 -254 474 c-187
349 -252 479 -246 492 4 9 123 161 263 339 l255 322 325 163 325 163 135 139
c107 109 143 152 168 205 63 129 75 268 47 528 -8 74 -15 161 -15 193 l0 57
-77 -5 c-337 -24 -1383 -32 -1943 -15 -168 5 -455 12 -638 16 l-332 7 5 -84z"/>
</g>
</svg>
