<?xml version="1.0" standalone="no"?>
<!DOCTYPE svg PUBLIC "-//W3C//DTD SVG 20010904//EN"
 "http://www.w3.org/TR/2001/REC-SVG-20010904/DTD/svg10.dtd">
<svg version="1.0" xmlns="http://www.w3.org/2000/svg"
 width="277.000000pt" height="509.000000pt" viewBox="0 0 277.000000 509.000000"
 preserveAspectRatio="xMidYMid meet">
<metadata>
Created by potrace 1.13, written by Peter Selinger 2001-2015
</metadata>
<g transform="translate(0.000000,509.000000) scale(0.100000,-0.100000)"
fill="#000000" stroke="none">
<path d="M220 5039 c-74 -22 -150 -47 -167 -54 -32 -14 -33 -16 -33 -80 0 -54
5 -74 31 -119 27 -49 28 -55 13 -64 -13 -7 -16 -18 -11 -51 3 -23 11 -48 17
-56 14 -17 51 -20 67 -4 7 7 15 3 26 -15 14 -21 14 -25 2 -30 -19 -7 -20 -84
-1 -108 9 -12 27 -18 55 -18 30 0 43 -5 48 -17 4 -9 1 -19 -5 -21 -15 -5 -15
-57 -1 -85 16 -29 28 -37 62 -37 20 0 43 -15 84 -56 55 -54 58 -60 130 -255
40 -110 73 -208 73 -218 0 -9 4 -21 9 -26 5 -6 16 -30 24 -55 9 -25 30 -85 48
-135 67 -190 192 -556 235 -686 39 -119 43 -140 33 -163 -7 -14 -18 -26 -24
-26 -7 0 -24 -12 -39 -26 -21 -21 -26 -36 -26 -74 0 -44 -2 -49 -29 -58 -16
-6 -47 -27 -70 -47 -171 -155 -206 -372 -107 -653 17 -48 59 -114 105 -164 71
-79 85 -96 121 -151 57 -86 58 -111 11 -284 -65 -239 -71 -276 -71 -401 0
-155 37 -351 75 -402 6 -8 21 -35 35 -60 31 -60 54 -90 120 -158 72 -75 141
-116 248 -149 79 -24 103 -26 267 -27 190 -1 261 9 365 49 35 14 69 20 93 17
49 -6 95 14 99 41 2 16 30 36 108 77 130 69 278 168 349 234 72 68 113 134
147 236 26 78 28 97 27 225 0 90 -6 166 -16 212 -23 99 -72 224 -110 278 -18
24 -51 71 -74 103 -60 85 -139 150 -287 238 -134 80 -196 132 -196 165 0 10
-4 19 -8 19 -22 0 -34 61 -33 173 2 343 -132 581 -365 652 -55 17 -240 20
-264 5 -11 -7 -19 -1 -32 27 -10 20 -18 40 -18 45 0 4 -9 27 -20 51 -10 23
-30 71 -43 107 -14 36 -36 91 -51 122 -14 31 -26 61 -26 66 0 5 -8 24 -17 43
-10 19 -25 54 -34 79 -32 88 -83 205 -91 208 -4 2 -8 9 -8 16 0 19 -43 120
-52 124 -4 2 -8 11 -8 20 0 10 -25 78 -56 152 -30 74 -64 158 -74 185 -53 146
-127 325 -175 420 -26 50 -29 65 -22 92 11 36 -11 83 -38 83 -20 0 -35 40 -35
91 0 50 -15 79 -39 79 -23 0 -41 45 -34 83 8 38 -14 84 -43 91 -13 4 -24 11
-24 16 0 5 -11 33 -24 62 -13 29 -26 61 -30 71 -8 25 -43 21 -196 -24z m490
-2889 c10 0 22 5 25 10 11 18 25 10 25 -15 0 -14 -4 -25 -9 -25 -5 0 -23 -3
-40 -6 -31 -6 -31 -6 -30 32 1 22 3 31 6 22 2 -10 13 -18 23 -18z m343 -956
l25 6 -21 -65 c-21 -64 -37 -84 -37 -45 0 13 -7 20 -20 20 -23 0 -27 15 -5 24
10 3 15 19 15 43 0 26 3 34 9 24 6 -9 18 -11 34 -7z m-33 -236 c0 -10 -6 -18
-14 -18 -21 0 -25 11 -14 40 7 20 11 22 18 10 5 -8 10 -23 10 -32z"/>
</g>
</svg>
