<?xml version="1.0" standalone="no"?>
<!DOCTYPE svg PUBLIC "-//W3C//DTD SVG 20010904//EN"
 "http://www.w3.org/TR/2001/REC-SVG-20010904/DTD/svg10.dtd">
<svg version="1.0" xmlns="http://www.w3.org/2000/svg"
 width="249.000000pt" height="423.000000pt" viewBox="0 0 249.000000 423.000000"
 preserveAspectRatio="xMidYMid meet">
<metadata>
Created by potrace 1.13, written by Peter Selinger 2001-2015
</metadata>
<g transform="translate(0.000000,423.000000) scale(0.100000,-0.100000)"
fill="#000000" stroke="none">
<path d="M219 4214 c-6 -8 -24 -14 -39 -14 -15 0 -33 -7 -40 -14 -6 -8 -26
-20 -44 -26 -22 -7 -38 -22 -49 -46 -22 -45 -21 -71 3 -117 l20 -37 -23 0
c-13 0 -28 -5 -35 -12 -17 -17 -15 -89 4 -116 20 -29 74 -31 81 -2 3 11 12 20
19 20 8 0 14 5 14 11 0 14 42 7 48 -8 2 -7 -4 -13 -13 -13 -24 0 -55 -38 -55
-67 0 -14 9 -38 21 -54 16 -23 28 -29 56 -29 29 0 36 4 46 30 12 32 41 40 51
14 8 -22 9 -21 -18 -28 -17 -4 -28 -17 -36 -41 -20 -60 8 -105 66 -105 28 0
38 6 52 30 19 34 45 36 50 2 3 -16 -2 -22 -16 -22 -43 0 -52 -10 -52 -61 0
-37 5 -53 22 -69 12 -11 27 -20 34 -20 28 0 65 25 70 47 8 30 15 29 46 -6 15
-16 49 -41 78 -57 49 -26 55 -34 101 -131 27 -56 49 -105 49 -108 0 -3 9 -25
19 -48 16 -37 90 -220 138 -342 17 -44 16 -41 73 -178 69 -165 100 -250 100
-274 0 -13 -24 -80 -54 -150 -102 -241 -147 -401 -183 -658 -22 -148 -24 -528
-5 -620 37 -174 48 -216 78 -287 84 -202 260 -373 442 -429 37 -11 121 -38
187 -60 218 -70 294 -89 365 -89 48 0 71 -4 80 -15 9 -10 32 -15 75 -15 63 0
128 25 220 85 49 32 56 38 100 81 43 43 55 74 55 148 0 23 4 46 9 51 9 10 23
58 46 160 9 37 14 119 15 215 0 128 -4 173 -24 260 -40 174 -101 309 -231 510
-56 86 -210 284 -274 352 -14 15 -48 53 -76 84 -147 167 -427 434 -453 434 -7
0 -33 44 -59 98 -26 53 -51 99 -55 100 -5 2 -8 8 -8 13 0 8 -58 131 -80 169
-4 8 -28 58 -52 110 -24 52 -46 97 -50 98 -5 2 -8 10 -8 17 0 7 -36 87 -81
177 -44 89 -91 185 -105 212 -13 28 -24 56 -24 64 0 8 -9 25 -20 39 -10 13
-29 50 -40 81 -22 60 -65 138 -87 160 -39 39 -142 201 -252 395 -18 31 -49 70
-68 85 -33 24 -45 27 -124 29 -65 1 -91 -2 -100 -13z m2071 -3909 c0 -8 5 -15
10 -15 6 0 10 -17 10 -37 -1 -38 -27 -83 -49 -83 -6 0 -11 -7 -11 -15 0 -8 -6
-15 -12 -15 -7 0 -22 -3 -33 -5 -34 -9 -47 8 -40 49 4 21 13 36 21 36 8 0 14
6 14 13 0 7 9 19 20 27 11 8 20 19 20 25 0 15 21 35 37 35 7 0 13 -7 13 -15z
m-275 -162 c-19 -45 -25 -52 -25 -29 0 16 28 66 36 66 2 0 -3 -17 -11 -37z"/>
</g>
</svg>
