<?xml version="1.0" standalone="no"?>
<!DOCTYPE svg PUBLIC "-//W3C//DTD SVG 20010904//EN"
 "http://www.w3.org/TR/2001/REC-SVG-20010904/DTD/svg10.dtd">
<svg version="1.0" xmlns="http://www.w3.org/2000/svg"
 width="312.000000pt" height="192.000000pt" viewBox="0 0 312.000000 192.000000"
 preserveAspectRatio="xMidYMid meet">
<metadata>
Created by potrace 1.13, written by Peter Selinger 2001-2015
</metadata>
<g transform="translate(0.000000,192.000000) scale(0.100000,-0.100000)"
fill="#000000" stroke="none">
<path d="M2658 1850 c-15 -4 -37 -15 -50 -24 -12 -9 -38 -16 -57 -16 -26 0
-41 -7 -56 -26 -14 -18 -33 -27 -65 -31 -25 -3 -61 -16 -80 -27 -42 -26 -251
-129 -375 -186 -49 -23 -185 -89 -302 -147 l-211 -106 -64 62 c-34 33 -94 78
-133 98 -64 34 -76 37 -147 36 -143 -2 -169 -22 -249 -186 -28 -59 -64 -117
-78 -128 -27 -22 -67 -22 -126 -1 -31 11 -148 32 -224 40 -72 7 -159 -16 -250
-66 -67 -37 -93 -59 -126 -103 -57 -78 -69 -139 -62 -316 5 -124 9 -148 40
-237 37 -104 47 -123 138 -264 68 -106 133 -168 208 -198 50 -21 72 -24 203
-24 l148 0 82 45 c93 51 139 97 200 200 23 39 68 96 101 127 54 52 64 57 116
63 31 3 78 10 104 16 26 5 61 9 78 9 80 0 244 134 269 219 31 106 20 226 -30
317 -19 34 -25 55 -19 65 5 8 9 25 9 39 0 23 15 33 123 89 148 77 251 131 422
224 264 142 295 157 335 157 34 0 38 -3 44 -30 5 -27 9 -30 45 -30 22 0 43 5
46 10 3 6 17 10 30 10 13 0 30 7 39 15 8 8 24 15 35 15 12 0 29 4 39 9 9 5 37
14 62 21 25 6 59 16 76 21 17 5 39 9 50 9 26 0 44 19 44 46 0 17 11 27 40 40
41 18 41 18 38 69 -3 50 -3 50 -43 57 -22 3 -67 11 -101 17 -69 13 -276 13
-316 1z"/>
</g>
</svg>
