<?xml version="1.0" standalone="no"?>
<!DOCTYPE svg PUBLIC "-//W3C//DTD SVG 20010904//EN"
 "http://www.w3.org/TR/2001/REC-SVG-20010904/DTD/svg10.dtd">
<svg version="1.0" xmlns="http://www.w3.org/2000/svg"
 width="429.000000pt" height="418.000000pt" viewBox="0 0 429.000000 418.000000"
 preserveAspectRatio="xMidYMid meet">
<metadata>
Created by potrace 1.13, written by Peter Selinger 2001-2015
</metadata>
<g transform="translate(0.000000,418.000000) scale(0.100000,-0.100000)"
fill="#000000" stroke="none">
<path d="M388 4159 c-9 -5 -54 -19 -100 -30 -66 -17 -91 -28 -124 -59 -23 -21
-57 -46 -75 -55 -58 -30 -69 -48 -69 -113 l0 -58 87 -52 c71 -42 82 -52 59
-52 -32 0 -86 -49 -86 -78 0 -27 34 -54 78 -61 28 -5 38 -11 40 -29 4 -29 39
-52 79 -52 25 0 33 -4 33 -17 1 -36 27 -56 75 -57 38 -1 45 -4 45 -21 1 -27
23 -55 44 -55 29 0 85 28 110 54 l23 26 109 -11 c101 -11 112 -14 151 -45 54
-44 104 -94 178 -179 33 -38 76 -85 95 -105 19 -20 50 -54 69 -75 40 -47 171
-193 326 -364 132 -146 164 -206 146 -276 -20 -74 -51 -229 -52 -255 0 -18
-14 -35 -49 -62 -27 -21 -56 -50 -63 -65 -13 -25 -32 -106 -67 -275 -14 -69
-6 -118 23 -146 120 -114 157 -150 157 -155 0 -3 13 -25 29 -49 16 -24 32 -61
36 -83 4 -22 11 -47 16 -56 4 -9 13 -56 19 -105 13 -107 59 -345 70 -359 4 -5
13 -27 19 -47 7 -21 28 -66 46 -100 19 -35 41 -78 51 -95 9 -18 20 -33 25 -33
5 0 9 -5 9 -11 0 -21 131 -169 150 -169 5 0 10 -4 10 -8 0 -4 12 -15 27 -24
16 -9 42 -28 58 -43 108 -95 317 -195 480 -229 180 -38 372 -32 555 16 41 11
84 22 95 25 24 6 35 10 148 62 81 37 234 124 282 161 38 29 190 188 221 231
18 24 57 87 87 139 30 52 68 118 86 145 45 72 79 148 112 248 37 113 41 259 9
383 -41 159 -184 409 -279 487 -195 159 -447 296 -706 382 -254 85 -323 128
-455 280 -66 76 -90 89 -177 89 -69 -1 -87 -5 -155 -38 -42 -20 -91 -37 -110
-38 -46 -1 -150 21 -168 37 -31 26 -80 45 -119 45 -44 0 -36 -7 -414 363 -164
160 -409 395 -527 504 -31 29 -69 57 -84 63 -27 10 -28 12 -12 29 22 24 20 73
-4 99 -22 23 -63 38 -78 28 -5 -3 -7 6 -4 20 9 49 -62 93 -107 65 -17 -11 -43
-3 -35 10 3 5 3 22 -1 38 -7 32 -44 53 -85 49 -23 -3 -25 0 -22 31 3 44 -21
71 -63 71 -24 0 -37 7 -50 26 -20 31 -43 55 -75 77 -27 19 -124 23 -152 6z
m-128 -489 c0 -5 -5 -10 -11 -10 -5 0 -7 5 -4 10 3 6 8 10 11 10 2 0 4 -4 4
-10z m175 -70 c4 -6 -10 -9 -37 -9 l-43 2 35 7 c19 4 36 8 37 9 1 0 5 -3 8 -9z
m105 -78 c0 -5 -16 -14 -36 -20 -26 -8 -34 -8 -31 1 2 7 17 15 33 18 16 4 30
7 32 8 1 0 2 -3 2 -7z m3300 -2752 c0 -5 -5 -10 -11 -10 -5 0 -7 5 -4 10 3 6
8 10 11 10 2 0 4 -4 4 -10z m-120 -110 c0 -5 -9 -10 -20 -10 -11 0 -20 -7 -20
-15 0 -8 -6 -15 -12 -15 -7 0 -23 -3 -36 -6 -16 -5 -21 -3 -17 8 12 32 105 66
105 38z"/>
</g>
</svg>
