<?xml version="1.0" standalone="no"?>
<!DOCTYPE svg PUBLIC "-//W3C//DTD SVG 20010904//EN"
 "http://www.w3.org/TR/2001/REC-SVG-20010904/DTD/svg10.dtd">
<svg version="1.0" xmlns="http://www.w3.org/2000/svg"
 width="401.000000pt" height="702.000000pt" viewBox="0 0 401.000000 702.000000"
 preserveAspectRatio="xMidYMid meet">
<metadata>
Created by potrace 1.13, written by Peter Selinger 2001-2015
</metadata>
<g transform="translate(0.000000,702.000000) scale(0.100000,-0.100000)"
fill="#000000" stroke="none">
<path d="M212 6956 c-140 -58 -142 -61 -118 -153 21 -80 21 -80 -16 -88 -51
-11 -68 -32 -68 -82 0 -33 6 -50 27 -74 24 -27 33 -30 70 -27 35 3 43 0 47
-17 12 -45 7 -62 -21 -68 -16 -3 -36 -12 -46 -19 -26 -19 -13 -97 23 -140 26
-31 30 -32 59 -22 30 12 30 12 39 -30 7 -37 6 -42 -13 -46 -30 -8 -51 -23 -64
-47 -16 -31 -14 -51 10 -100 18 -38 25 -43 54 -43 28 0 32 -3 28 -22 -4 -20 3
-26 46 -41 66 -23 138 -94 153 -153 7 -24 16 -44 20 -44 4 0 8 -8 8 -17 0 -10
7 -30 14 -45 8 -16 26 -63 41 -105 14 -43 30 -86 35 -95 6 -10 10 -25 10 -33
0 -8 5 -15 10 -15 6 0 10 -10 10 -22 0 -13 7 -36 15 -52 8 -15 15 -41 15 -57
0 -16 9 -38 20 -49 11 -11 20 -29 20 -40 0 -11 5 -20 10 -20 6 0 10 -8 10 -18
0 -9 9 -42 21 -72 11 -30 25 -71 31 -90 5 -19 14 -39 19 -44 5 -6 9 -18 9 -28
0 -10 5 -18 10 -18 6 0 10 -13 10 -28 0 -15 4 -32 9 -38 5 -5 21 -45 36 -89
15 -44 32 -84 36 -89 5 -6 9 -20 9 -32 0 -12 7 -24 15 -28 9 -3 15 -18 15 -36
0 -16 5 -30 10 -30 6 0 10 -11 10 -25 0 -14 11 -48 25 -75 14 -27 25 -65 25
-85 0 -24 4 -35 15 -35 8 0 15 -7 15 -15 0 -9 9 -33 19 -53 11 -23 17 -48 14
-65 -4 -19 -1 -27 8 -27 14 0 59 -101 59 -131 0 -8 4 -19 9 -25 5 -5 18 -36
31 -69 20 -55 56 -150 81 -217 6 -16 15 -28 20 -28 5 0 9 -18 9 -40 0 -27 4
-40 14 -40 7 0 16 -12 19 -27 3 -16 8 -35 12 -44 5 -13 -11 -28 -62 -63 -37
-25 -80 -56 -95 -68 -15 -13 -48 -41 -74 -63 -26 -22 -53 -44 -60 -48 -8 -4
-14 -16 -14 -25 0 -10 -12 -25 -28 -34 -48 -29 -130 -120 -156 -172 -35 -71
-51 -180 -36 -253 29 -156 63 -230 189 -417 47 -71 91 -136 96 -145 6 -9 23
-36 39 -60 87 -136 97 -207 102 -771 2 -250 8 -489 13 -530 23 -190 98 -362
226 -515 41 -48 199 -185 215 -185 5 0 15 -6 23 -14 26 -26 207 -107 284 -127
153 -39 430 -44 585 -10 24 5 81 17 128 26 383 78 810 279 1023 483 80 77 118
135 156 234 16 40 45 107 65 148 87 177 127 368 111 525 -10 94 -54 242 -102
335 -74 146 -158 247 -467 555 -283 282 -341 353 -425 521 -47 93 -71 170
-101 314 -68 334 -184 537 -350 613 -58 27 -79 30 -185 35 -109 4 -131 2 -245
-26 -69 -17 -178 -49 -243 -71 l-118 -40 -32 28 c-52 45 -91 69 -116 72 -20 4
-36 33 -116 224 -220 526 -505 1202 -530 1260 -8 17 -36 84 -63 150 -27 66
-79 193 -116 281 -54 132 -66 172 -66 217 0 61 29 164 60 215 24 40 25 61 3
77 -14 11 -12 13 19 19 56 10 71 35 63 98 -9 64 -17 76 -60 84 -40 7 -82 -17
-91 -52 -8 -30 -22 -31 -33 -1 -5 12 -21 47 -35 77 -14 29 -26 55 -26 57 0 2
9 3 20 3 11 0 20 -4 20 -10 0 -15 43 -12 68 6 35 24 31 99 -8 143 -23 25 -35
32 -52 27 -34 -9 -44 -18 -55 -50 -5 -17 -14 -31 -19 -33 -10 -3 -74 121 -74
143 0 5 15 8 34 6 19 -2 47 3 65 12 26 14 31 22 31 52 0 39 -14 72 -39 91 -38
29 -121 0 -121 -42 0 -44 -16 -27 -55 58 -21 45 -43 85 -49 89 -22 15 -63 5
-184 -46z m156 -88 l29 -63 -24 -7 c-57 -16 -73 -100 -28 -142 14 -13 25 -31
25 -41 0 -24 22 -95 29 -95 3 0 7 -17 7 -37 2 -47 25 -156 35 -163 3 -3 11
-30 17 -60 16 -78 39 -179 56 -241 27 -97 27 -105 0 -39 -14 36 -29 69 -33 75
-4 5 -14 31 -21 58 -7 26 -17 47 -21 47 -5 0 -9 8 -9 17 0 16 -77 228 -105
288 -29 62 -45 122 -45 172 0 44 -4 55 -27 73 -19 15 -36 20 -55 16 -24 -5
-28 -2 -34 28 -17 96 -17 96 76 137 47 21 88 38 92 38 4 1 20 -27 36 -61z
m226 -33 c19 -28 14 -45 -13 -45 -24 0 -47 50 -29 61 20 13 24 11 42 -16z
m-483 -199 c15 -33 15 -35 -7 -45 -24 -11 -35 -3 -48 33 -4 12 0 23 11 32 25
19 27 18 44 -20z m369 -12 c25 -58 25 -58 -9 -71 -29 -10 -29 -10 -38 37 -8
40 -7 51 6 63 9 9 17 16 19 16 1 1 12 -20 22 -45z m214 -26 c18 -25 21 -58 7
-58 -18 0 -41 32 -41 56 0 30 14 31 34 2z m-456 -65 c21 -58 21 -63 3 -73 -16
-8 -20 -5 -25 28 -4 20 -9 45 -12 55 -9 29 23 20 34 -10z m342 -132 c0 -11 4
-21 9 -23 4 -1 11 -12 14 -23 5 -15 0 -23 -20 -32 -33 -16 -39 -11 -48 34 -5
29 -3 40 11 50 25 18 34 16 34 -6z m-418 -18 c24 -21 23 -40 -2 -53 -17 -9
-22 -7 -31 14 -11 24 -7 56 7 56 4 0 16 -7 26 -17z m656 -25 c14 -14 16 -54 3
-62 -23 -14 -63 33 -53 62 5 15 35 15 50 0z m-519 -105 c13 -43 13 -47 -5 -60
-17 -13 -19 -12 -22 9 -2 13 -7 40 -12 61 -7 31 -5 37 9 37 11 0 21 -15 30
-47z m469 -8 c-3 -3 -9 2 -12 12 -6 14 -5 15 5 6 7 -7 10 -15 7 -18z m-69 -58
c6 -8 8 -17 5 -20 -4 -3 -14 -35 -24 -69 l-17 -63 -17 57 c-20 69 -20 78 -1
78 9 0 18 7 21 15 8 19 18 19 33 2z m-486 -93 c2 -23 -2 -29 -18 -29 -24 0
-33 38 -14 61 16 19 29 6 32 -32z m133 -80 c19 -44 19 -44 -21 -25 -26 12 -34
22 -35 43 0 22 3 25 21 21 12 -3 27 -21 35 -39z m662 -1609 c-3 -3 -9 2 -12
12 -6 14 -5 15 5 6 7 -7 10 -15 7 -18z m678 -698 l36 -33 -17 -34 -18 -34 -28
63 c-16 35 -29 65 -29 67 0 13 25 -1 56 -29z m599 -92 c146 -39 240 -120 309
-267 24 -51 49 -117 55 -145 6 -29 15 -74 21 -100 55 -276 85 -379 135 -471
37 -68 152 -227 211 -292 17 -19 55 -62 85 -95 29 -33 64 -71 76 -85 19 -20
20 -26 8 -28 -23 -5 -19 -42 5 -42 12 0 20 7 20 17 0 14 70 -54 278 -272 98
-102 188 -232 255 -370 56 -113 78 -198 84 -322 8 -173 -16 -281 -92 -418 -33
-59 -142 -174 -200 -211 -16 -10 -32 -21 -35 -24 -7 -8 -130 -85 -172 -109
-38 -20 -38 -20 -38 -1 0 29 -66 28 -91 -2 -21 -23 -25 -54 -8 -60 5 -2 -10
-13 -35 -26 -25 -12 -46 -17 -46 -12 0 6 -9 10 -20 10 -13 0 -20 -7 -20 -20 0
-11 -4 -20 -9 -20 -5 0 -16 -3 -25 -6 -11 -4 -16 -1 -16 10 0 10 -8 16 -21 16
-17 0 -20 -5 -17 -24 4 -19 1 -22 -14 -18 -11 2 -24 -3 -31 -12 -11 -14 -95
-46 -124 -46 -7 0 -13 9 -13 20 0 13 -7 20 -20 20 -13 0 -20 -7 -20 -20 0 -11
5 -20 11 -20 5 0 8 -4 4 -9 -5 -9 -129 -41 -159 -41 -9 0 -16 7 -16 15 0 25
-38 18 -42 -7 -3 -20 -12 -24 -83 -35 -101 -15 -367 -16 -437 -2 -79 16 -108
29 -108 50 0 12 -7 19 -20 19 -11 0 -20 -7 -20 -15 0 -21 -1 -20 -91 24 -276
137 -457 343 -534 607 -21 73 -26 118 -33 298 -5 116 -8 308 -6 426 4 282 -9
489 -35 577 -24 79 -86 192 -163 295 -177 238 -249 418 -226 567 13 83 37 131
101 198 71 76 230 171 388 233 48 19 49 19 59 0 5 -10 10 -32 10 -48 0 -17 6
-32 15 -36 8 -3 15 -12 15 -21 0 -8 5 -15 10 -15 6 0 10 -9 10 -20 0 -21 61
-185 86 -232 8 -14 14 -36 14 -47 0 -12 5 -21 10 -21 20 0 9 -38 -21 -76 -110
-136 -132 -372 -49 -534 24 -46 24 -46 71 -103 60 -71 196 -148 288 -163 37
-6 44 -12 61 -48 10 -23 22 -55 26 -71 4 -17 10 -34 14 -40 4 -5 24 -55 44
-110 20 -55 40 -109 45 -120 31 -73 31 -73 6 -89 -24 -16 -185 -66 -211 -66
-18 0 -18 -27 2 -81 10 -28 13 -59 9 -85 -4 -28 -2 -44 7 -51 7 -6 60 -13 117
-16 100 -5 106 -4 162 24 72 37 137 57 214 65 33 4 67 12 75 19 32 27 99 54
161 65 35 7 74 17 86 23 62 34 203 134 203 144 0 7 -18 31 -40 53 -25 26 -45
58 -52 86 -14 52 -34 57 -98 24 -57 -29 -193 -72 -200 -63 -4 5 -20 42 -35 83
-16 41 -53 131 -82 199 -29 67 -53 129 -53 135 0 7 13 25 28 42 16 16 34 39
40 50 8 16 18 20 37 17 20 -4 25 -1 25 16 0 12 -6 21 -15 21 -12 0 -13 4 -5
19 5 11 17 53 25 93 53 250 -114 528 -361 602 -33 10 -70 21 -83 25 -18 5 -31
24 -49 67 -14 32 -63 144 -109 249 -45 104 -79 192 -75 196 16 15 251 78 342
92 61 10 161 6 215 -8z m-647 -140 c-3 -3 -9 2 -12 12 -6 14 -5 15 5 6 7 -7
10 -15 7 -18z m55 -117 c6 -22 5 -22 -8 -4 -17 22 -20 40 -6 32 5 -3 11 -16
14 -28z m36 -90 c6 -18 7 -28 2 -23 -10 12 -25 55 -18 55 3 0 10 -15 16 -32z
m41 -103 c0 -5 -5 -3 -10 5 -5 8 -10 20 -10 25 0 6 5 3 10 -5 5 -8 10 -19 10
-25z m-122 -40 c-3 -3 -9 2 -12 12 -6 14 -5 15 5 6 7 -7 10 -15 7 -18z m156
-31 c3 -8 2 -12 -4 -9 -6 3 -10 10 -10 16 0 14 7 11 14 -7z m-124 -44 c6 -11
8 -20 6 -20 -3 0 -10 9 -16 20 -6 11 -8 20 -6 20 3 0 10 -9 16 -20z m157 -46
c2 -13 1 -15 -4 -4 -3 8 -11 19 -17 23 -7 6 -6 7 4 4 8 -2 16 -12 17 -23z
m-117 -47 c0 -5 -4 -5 -10 -2 -5 3 -10 14 -10 23 0 15 2 15 10 2 5 -8 10 -19
10 -23z m354 -31 c71 -35 167 -110 187 -148 6 -11 -15 6 -47 38 -53 52 -94 76
-224 132 -20 9 -21 11 -6 11 10 1 51 -15 90 -33z m-207 2 c-3 -8 -6 -5 -6 6
-1 11 2 17 5 13 3 -3 4 -12 1 -19z m-117 -39 c0 -5 -4 -9 -10 -9 -5 0 -10 7
-10 16 0 8 5 12 10 9 6 -3 10 -10 10 -16z m-60 -29 c0 -5 -2 -10 -4 -10 -3 0
-8 5 -11 10 -3 6 -1 10 4 10 6 0 11 -4 11 -10z m-142 -47 c-34 -39 -68 -116
-79 -179 -26 -149 32 -312 150 -422 l46 -43 -40 27 c-85 58 -158 175 -174 279
-11 73 3 182 30 244 20 45 65 111 76 111 3 0 -1 -8 -9 -17z m30 -122 c-29 -59
-36 -173 -14 -237 9 -27 12 -44 7 -39 -18 20 -32 85 -32 152 0 66 9 102 39
151 23 37 23 20 0 -27z m760 -51 c42 -109 38 -233 -10 -320 -11 -19 -16 -26
-12 -15 44 127 44 263 0 361 -15 32 -21 52 -13 44 8 -8 24 -40 35 -70z m-83
-30 c21 -54 23 -150 6 -205 -16 -47 -51 -108 -58 -101 -3 3 1 16 9 28 37 59
51 119 44 195 -3 40 -13 87 -21 103 -8 16 -15 32 -15 37 0 15 18 -14 35 -57z
m-661 -226 c3 -8 2 -12 -4 -9 -6 3 -10 10 -10 16 0 14 7 11 14 -7z m146 -151
c0 -8 -38 17 -51 33 -9 11 -2 9 19 -6 17 -13 32 -25 32 -27z m550 13 c0 -2 -8
-10 -17 -17 -16 -13 -17 -12 -4 4 13 16 21 21 21 13z m-491 -42 c14 -12 -19
-1 -35 12 -18 14 -18 14 6 3 14 -6 27 -13 29 -15z m231 -8 c0 -3 -4 -8 -10
-11 -5 -3 -10 -1 -10 4 0 6 5 11 10 11 6 0 10 -2 10 -4z m240 -221 c41 -100
49 -119 89 -207 24 -54 25 -58 11 -58 -19 0 -174 375 -163 393 4 7 9 4 14 -9
5 -10 27 -64 49 -119z m-96 25 c3 -14 -3 -7 -13 15 -11 22 -20 45 -20 50 0 15
26 -37 33 -65z m-30 -100 c27 -69 57 -144 68 -168 10 -24 18 -51 16 -60 -3
-15 -158 353 -158 374 0 27 33 -38 74 -146z m-190 83 c10 -26 24 -66 33 -88 8
-22 21 -56 28 -75 8 -19 27 -70 44 -112 17 -42 31 -83 30 -90 -1 -23 -43 79
-129 312 -16 41 -32 84 -36 94 -5 12 -4 17 3 13 5 -4 18 -28 27 -54z m96 -53
c17 -46 29 -85 27 -87 -5 -5 -77 174 -77 190 1 20 18 -16 50 -103z m160 -15
c0 -5 -5 -3 -10 5 -5 8 -10 20 -10 25 0 6 5 3 10 -5 5 -8 10 -19 10 -25z m20
-50 c0 -5 -5 -3 -10 5 -5 8 -10 20 -10 25 0 6 5 3 10 -5 5 -8 10 -19 10 -25z
m34 -82 c10 -26 22 -56 27 -66 6 -11 9 -21 6 -23 -5 -5 -22 29 -46 93 -10 29
-16 51 -12 48 5 -2 16 -26 25 -52z m-138 -50 c18 -48 31 -89 29 -92 -3 -2 -9
9 -16 25 -36 95 -59 157 -59 162 0 17 17 -18 46 -95z m1153 -1377 c-2 -2 -14
-9 -26 -15 -19 -10 -22 -9 -17 4 4 8 15 15 27 15 11 0 18 -2 16 -4z"/>
<path d="M1850 3450 c0 -13 7 -20 20 -20 13 0 20 7 20 20 0 13 -7 20 -20 20
-13 0 -20 -7 -20 -20z"/>
<path d="M2130 3240 c0 -15 7 -20 25 -20 18 0 25 5 25 20 0 15 -7 20 -25 20
-18 0 -25 -5 -25 -20z"/>
<path d="M2680 2610 c0 -15 7 -20 25 -20 18 0 25 5 25 20 0 15 -7 20 -25 20
-18 0 -25 -5 -25 -20z"/>
<path d="M2450 2420 c0 -15 7 -20 25 -20 18 0 25 5 25 20 0 15 -7 20 -25 20
-18 0 -25 -5 -25 -20z"/>
<path d="M2560 2365 c0 -37 3 -45 19 -45 13 0 20 10 25 31 10 51 8 59 -19 59
-23 0 -25 -4 -25 -45z"/>
<path d="M2760 2330 c0 -13 7 -20 20 -20 13 0 20 7 20 20 0 13 -7 20 -20 20
-13 0 -20 -7 -20 -20z"/>
<path d="M2400 2328 c1 -37 14 -58 36 -58 17 0 24 6 24 20 0 11 -4 20 -10 20
-5 0 -10 7 -10 15 0 8 -9 15 -20 15 -11 0 -20 -6 -20 -12z"/>
<path d="M2630 2270 c0 -13 7 -20 20 -20 13 0 20 7 20 20 0 13 -7 20 -20 20
-13 0 -20 -7 -20 -20z"/>
<path d="M2783 2263 c-18 -7 -16 -43 1 -43 28 0 46 12 46 31 0 19 -20 24 -47
12z"/>
<path d="M2380 2210 c0 -11 7 -20 15 -20 8 0 15 -4 15 -10 0 -5 9 -10 20 -10
13 0 20 7 20 20 0 11 -7 20 -15 20 -8 0 -15 5 -15 10 0 6 -9 10 -20 10 -13 0
-20 -7 -20 -20z"/>
<path d="M3000 2175 c0 -15 6 -25 14 -25 28 0 46 12 46 31 0 14 -7 19 -30 19
-25 0 -30 -4 -30 -25z"/>
<path d="M2770 2060 c0 -13 7 -20 20 -20 13 0 20 7 20 20 0 13 -7 20 -20 20
-13 0 -20 -7 -20 -20z"/>
<path d="M2850 2040 c0 -15 7 -20 25 -20 18 0 25 5 25 20 0 15 -7 20 -25 20
-18 0 -25 -5 -25 -20z"/>
<path d="M2470 1965 c0 -18 5 -25 20 -25 15 0 20 7 20 25 0 18 -5 25 -20 25
-15 0 -20 -7 -20 -25z"/>
<path d="M2850 1920 c0 -13 7 -20 20 -20 13 0 20 7 20 20 0 13 -7 20 -20 20
-13 0 -20 -7 -20 -20z"/>
<path d="M3100 1920 c0 -13 7 -20 20 -20 13 0 20 7 20 20 0 13 -7 20 -20 20
-13 0 -20 -7 -20 -20z"/>
<path d="M2800 1900 c0 -13 7 -20 20 -20 13 0 20 7 20 20 0 13 -7 20 -20 20
-13 0 -20 -7 -20 -20z"/>
<path d="M2567 1873 c-11 -10 -8 -51 4 -58 5 -4 21 -4 35 -1 17 5 24 13 24 30
0 29 -43 49 -63 29z"/>
<path d="M2760 1805 c0 -18 5 -25 20 -25 15 0 20 7 20 25 0 18 -5 25 -20 25
-15 0 -20 -7 -20 -25z"/>
<path d="M3050 1720 c0 -13 7 -20 20 -20 13 0 20 -7 20 -20 0 -13 7 -20 20
-20 13 0 20 7 20 20 0 11 -7 20 -15 20 -8 0 -15 9 -15 20 0 15 -7 20 -25 20
-18 0 -25 -5 -25 -20z"/>
<path d="M3227 1713 c-4 -3 -7 -15 -7 -25 0 -13 7 -18 25 -18 20 0 25 5 25 25
0 18 -5 25 -18 25 -10 0 -22 -3 -25 -7z"/>
<path d="M2886 1702 c-2 -4 -7 -24 -11 -45 -7 -33 -5 -37 14 -37 15 0 21 7 22
23 0 12 3 16 6 10 2 -7 13 -13 24 -13 23 0 26 34 5 56 -16 15 -52 19 -60 6z"/>
<path d="M3490 1665 c0 -8 -9 -15 -20 -15 -13 0 -20 -7 -20 -20 0 -13 7 -20
20 -20 11 0 20 7 20 15 0 8 9 15 20 15 13 0 20 7 20 20 0 13 -7 20 -20 20 -11
0 -20 -7 -20 -15z"/>
<path d="M3150 1630 c0 -23 4 -30 20 -30 11 0 20 -4 20 -10 0 -5 9 -10 20 -10
13 0 20 7 20 20 0 11 -4 20 -10 20 -5 0 -10 9 -10 20 0 16 -7 20 -30 20 -27 0
-30 -3 -30 -30z"/>
<path d="M3350 1640 c0 -13 7 -20 20 -20 13 0 20 7 20 20 0 13 -7 20 -20 20
-13 0 -20 -7 -20 -20z"/>
<path d="M3090 1590 c0 -13 7 -20 20 -20 13 0 20 7 20 20 0 13 -7 20 -20 20
-13 0 -20 -7 -20 -20z"/>
<path d="M3500 1590 c0 -11 -7 -20 -15 -20 -8 0 -15 -9 -15 -20 0 -13 7 -20
20 -20 13 0 20 7 20 20 0 11 7 20 15 20 8 0 15 9 15 20 0 13 -7 20 -20 20 -13
0 -20 -7 -20 -20z"/>
<path d="M2940 1570 c0 -13 8 -24 20 -27 11 -3 20 -14 20 -24 0 -12 7 -19 20
-19 13 0 20 7 20 20 0 11 -6 20 -14 20 -8 0 -16 10 -18 23 -4 31 -48 38 -48 7z"/>
<path d="M3250 1570 c0 -13 7 -20 20 -20 13 0 20 7 20 20 0 13 -7 20 -20 20
-13 0 -20 -7 -20 -20z"/>
<path d="M3300 1570 c0 -15 7 -20 25 -20 18 0 25 5 25 20 0 15 -7 20 -25 20
-18 0 -25 -5 -25 -20z"/>
<path d="M2790 1550 c0 -13 7 -20 20 -20 13 0 20 7 20 20 0 13 -7 20 -20 20
-13 0 -20 -7 -20 -20z"/>
<path d="M3172 1561 c-23 -14 -10 -46 18 -46 20 0 26 6 28 28 3 21 -1 27 -15
27 -10 0 -24 -4 -31 -9z"/>
<path d="M3410 1520 c0 -13 7 -20 20 -20 13 0 20 7 20 20 0 13 -7 20 -20 20
-13 0 -20 -7 -20 -20z"/>
<path d="M3340 1500 c0 -13 7 -20 20 -20 13 0 20 7 20 20 0 13 -7 20 -20 20
-13 0 -20 -7 -20 -20z"/>
<path d="M2790 1490 c0 -13 7 -20 20 -20 13 0 20 7 20 20 0 13 -7 20 -20 20
-13 0 -20 -7 -20 -20z"/>
<path d="M3108 1503 c-10 -2 -18 -14 -18 -25 0 -18 4 -19 34 -14 31 6 33 5 28
-19 -2 -14 -11 -25 -18 -25 -8 0 -14 -9 -14 -20 0 -13 7 -20 20 -20 11 0 20 7
20 15 0 10 10 15 30 15 19 0 30 5 30 14 0 14 29 26 68 26 15 0 22 6 22 19 0
14 -10 21 -36 26 -21 3 -40 2 -43 -3 -7 -12 -71 -3 -71 9 0 9 -22 10 -52 2z"/>
<path d="M2980 1440 c0 -23 4 -30 20 -30 16 0 20 7 20 30 0 23 -4 30 -20 30
-16 0 -20 -7 -20 -30z"/>
<path d="M3040 1430 c0 -13 7 -20 20 -20 13 0 20 7 20 20 0 13 -7 20 -20 20
-13 0 -20 -7 -20 -20z"/>
<path d="M2490 1410 c0 -15 7 -20 25 -20 18 0 25 5 25 20 0 15 -7 20 -25 20
-18 0 -25 -5 -25 -20z"/>
<path d="M3293 1423 c-15 -3 -23 -12 -23 -24 0 -16 7 -19 40 -19 36 0 40 3 40
25 0 26 -7 28 -57 18z"/>
<path d="M2840 1400 c0 -13 7 -20 20 -20 13 0 20 7 20 20 0 13 -7 20 -20 20
-13 0 -20 -7 -20 -20z"/>
<path d="M3470 1386 c0 -43 28 -59 56 -32 26 27 17 46 -21 46 -24 0 -35 -5
-35 -14z"/>
<path d="M3030 1350 c0 -13 7 -20 20 -20 13 0 20 7 20 20 0 13 -7 20 -20 20
-13 0 -20 -7 -20 -20z"/>
<path d="M3110 1340 c0 -11 -7 -20 -15 -20 -8 0 -15 -9 -15 -20 0 -13 7 -20
20 -20 13 0 20 7 20 20 0 11 7 20 15 20 8 0 15 9 15 20 0 13 -7 20 -20 20 -13
0 -20 -7 -20 -20z"/>
<path d="M2300 1310 c0 -13 7 -20 20 -20 13 0 20 7 20 20 0 13 -7 20 -20 20
-13 0 -20 -7 -20 -20z"/>
<path d="M2910 1305 c0 -18 5 -25 20 -25 11 0 20 -4 20 -10 0 -5 9 -10 20 -10
13 0 20 7 20 20 0 13 -7 20 -20 20 -11 0 -20 7 -20 15 0 8 -9 15 -20 15 -15 0
-20 -7 -20 -25z"/>
<path d="M3510 1305 c0 -16 6 -25 15 -25 8 0 15 -9 15 -20 0 -13 7 -20 20 -20
13 0 20 7 20 20 0 11 -7 20 -15 20 -9 0 -15 9 -15 25 0 18 -5 25 -20 25 -15 0
-20 -7 -20 -25z"/>
<path d="M2800 1290 c0 -13 7 -20 20 -20 13 0 20 7 20 20 0 13 -7 20 -20 20
-13 0 -20 -7 -20 -20z"/>
<path d="M2460 1280 c0 -15 7 -20 25 -20 18 0 25 5 25 20 0 15 -7 20 -25 20
-18 0 -25 -5 -25 -20z"/>
<path d="M3210 1270 c0 -13 7 -20 20 -20 13 0 20 7 20 20 0 13 -7 20 -20 20
-13 0 -20 -7 -20 -20z"/>
<path d="M3420 1270 c0 -13 7 -20 20 -20 13 0 20 7 20 20 0 13 -7 20 -20 20
-13 0 -20 -7 -20 -20z"/>
<path d="M3600 1260 c0 -13 7 -20 20 -20 13 0 20 7 20 20 0 13 -7 20 -20 20
-13 0 -20 -7 -20 -20z"/>
<path d="M1520 1250 c0 -13 7 -20 20 -20 13 0 20 7 20 20 0 13 -7 20 -20 20
-13 0 -20 -7 -20 -20z"/>
<path d="M3110 1250 c0 -13 7 -20 20 -20 13 0 20 7 20 20 0 13 -7 20 -20 20
-13 0 -20 -7 -20 -20z"/>
<path d="M2210 1236 c0 -21 5 -26 26 -26 21 0 25 4 22 23 -2 14 -11 23 -25 25
-19 3 -23 -1 -23 -22z"/>
<path d="M3010 1230 c0 -13 7 -20 20 -20 13 0 20 7 20 20 0 13 -7 20 -20 20
-13 0 -20 -7 -20 -20z"/>
<path d="M3400 1210 c0 -13 7 -20 20 -20 13 0 20 7 20 20 0 13 -7 20 -20 20
-13 0 -20 -7 -20 -20z"/>
<path d="M3550 1210 c0 -13 7 -20 20 -20 13 0 20 7 20 20 0 13 -7 20 -20 20
-13 0 -20 -7 -20 -20z"/>
<path d="M2960 1200 c0 -13 7 -20 20 -20 13 0 20 7 20 20 0 13 -7 20 -20 20
-13 0 -20 -7 -20 -20z"/>
<path d="M2810 1190 c0 -13 7 -20 20 -20 13 0 20 7 20 20 0 13 -7 20 -20 20
-13 0 -20 -7 -20 -20z"/>
<path d="M3460 1190 c0 -13 7 -20 20 -20 13 0 20 7 20 20 0 13 -7 20 -20 20
-13 0 -20 -7 -20 -20z"/>
<path d="M3163 1173 c-15 -3 -23 -12 -23 -25 0 -18 4 -20 31 -14 17 3 35 6 40
6 5 0 9 9 9 20 0 20 -9 22 -57 13z"/>
<path d="M3350 1150 c0 -15 7 -20 25 -20 18 0 25 5 25 20 0 15 -7 20 -25 20
-18 0 -25 -5 -25 -20z"/>
<path d="M3410 1150 c0 -13 7 -20 20 -20 13 0 20 7 20 20 0 13 -7 20 -20 20
-13 0 -20 -7 -20 -20z"/>
<path d="M1530 1130 c0 -15 7 -20 25 -20 18 0 25 5 25 20 0 15 -7 20 -25 20
-18 0 -25 -5 -25 -20z"/>
<path d="M3028 1118 c-27 -7 -38 -15 -38 -29 0 -21 16 -24 54 -9 21 7 26 6 26
-5 0 -9 10 -15 25 -15 18 0 25 5 25 20 0 11 -4 20 -10 20 -5 0 -10 7 -10 15 0
17 -18 18 -72 3z"/>
<path d="M3482 1079 c-16 -66 -15 -69 6 -69 14 0 21 13 30 51 16 66 15 69 -6
69 -14 0 -21 -13 -30 -51z"/>
<path d="M2010 1100 c0 -13 7 -20 20 -20 13 0 20 7 20 20 0 13 -7 20 -20 20
-13 0 -20 -7 -20 -20z"/>
<path d="M3180 1100 c0 -13 7 -20 20 -20 13 0 20 7 20 20 0 13 -7 20 -20 20
-13 0 -20 -7 -20 -20z"/>
<path d="M3250 1100 c0 -16 7 -20 30 -20 23 0 30 4 30 20 0 16 -7 20 -30 20
-23 0 -30 -4 -30 -20z"/>
<path d="M3540 1100 c0 -13 7 -20 20 -20 13 0 20 7 20 20 0 13 -7 20 -20 20
-13 0 -20 -7 -20 -20z"/>
<path d="M2340 1090 c0 -13 7 -20 20 -20 13 0 20 7 20 20 0 13 -7 20 -20 20
-13 0 -20 -7 -20 -20z"/>
<path d="M2820 1080 c0 -13 7 -20 20 -20 13 0 20 7 20 20 0 13 -7 20 -20 20
-13 0 -20 -7 -20 -20z"/>
<path d="M2220 1054 c0 -21 4 -25 23 -22 14 2 23 11 25 26 3 18 -1 22 -22 22
-21 0 -26 -5 -26 -26z"/>
<path d="M2750 1050 c0 -13 7 -20 20 -20 13 0 20 7 20 20 0 13 -7 20 -20 20
-13 0 -20 -7 -20 -20z"/>
<path d="M1850 1030 c0 -20 33 -40 66 -40 25 0 16 40 -12 50 -39 15 -54 12
-54 -10z"/>
<path d="M2530 1030 c0 -13 7 -20 20 -20 13 0 20 7 20 20 0 13 -7 20 -20 20
-13 0 -20 -7 -20 -20z"/>
<path d="M3100 1030 c0 -13 7 -20 20 -20 13 0 20 7 20 20 0 13 -7 20 -20 20
-13 0 -20 -7 -20 -20z"/>
<path d="M3410 1020 c0 -13 7 -20 20 -20 13 0 20 7 20 20 0 13 -7 20 -20 20
-13 0 -20 -7 -20 -20z"/>
<path d="M3590 1025 c0 -8 -9 -15 -20 -15 -13 0 -20 -7 -20 -20 0 -13 7 -20
20 -20 11 0 20 7 20 15 0 8 9 15 20 15 13 0 20 7 20 20 0 13 -7 20 -20 20 -11
0 -20 -7 -20 -15z"/>
<path d="M2950 1000 c0 -13 7 -20 20 -20 13 0 20 7 20 20 0 13 -7 20 -20 20
-13 0 -20 -7 -20 -20z"/>
<path d="M3212 986 c5 -23 2 -24 -23 -19 -24 5 -29 2 -29 -15 0 -15 9 -21 37
-27 24 -4 39 -3 41 4 2 6 15 11 28 11 32 0 32 32 -1 54 -37 24 -58 21 -53 -8z"/>
<path d="M2740 980 c0 -13 7 -20 20 -20 13 0 20 7 20 20 0 13 -7 20 -20 20
-13 0 -20 -7 -20 -20z"/>
<path d="M3040 965 c0 -18 5 -25 20 -25 15 0 20 7 20 25 0 18 -5 25 -20 25
-15 0 -20 -7 -20 -25z"/>
<path d="M1880 960 c0 -13 7 -20 20 -20 13 0 20 7 20 20 0 13 -7 20 -20 20
-13 0 -20 -7 -20 -20z"/>
<path d="M1620 950 c0 -13 7 -20 20 -20 13 0 20 7 20 20 0 13 -7 20 -20 20
-13 0 -20 -7 -20 -20z"/>
<path d="M2020 941 c0 -17 25 -31 58 -31 22 0 13 37 -10 44 -38 10 -48 7 -48
-13z"/>
<path d="M3470 940 c0 -13 7 -20 20 -20 13 0 20 7 20 20 0 13 -7 20 -20 20
-13 0 -20 -7 -20 -20z"/>
<path d="M2280 925 c0 -20 5 -25 25 -25 20 0 25 5 25 25 0 20 -5 25 -25 25
-20 0 -25 -5 -25 -25z"/>
<path d="M2460 930 c0 -13 7 -20 20 -20 13 0 20 7 20 20 0 13 -7 20 -20 20
-13 0 -20 -7 -20 -20z"/>
<path d="M3408 943 c-20 -5 -25 -43 -5 -43 32 0 57 14 57 31 0 19 -14 22 -52
12z"/>
<path d="M3260 915 c0 -15 -10 -19 -44 -15 -10 1 -23 -4 -27 -12 -7 -10 -9
-10 -9 0 0 6 -11 12 -24 12 -19 0 -25 -7 -31 -36 -3 -20 -5 -37 -3 -39 2 -1
24 -6 51 -9 43 -7 47 -5 47 13 0 19 35 39 47 27 4 -3 1 -6 -5 -6 -7 0 -12 -9
-12 -20 0 -22 51 -42 58 -22 2 7 15 9 33 5 24 -5 29 -2 29 15 0 41 -11 52 -54
53 -22 0 -35 3 -28 6 20 8 14 43 -8 43 -11 0 -20 -7 -20 -15z"/>
<path d="M2790 900 c0 -13 7 -20 20 -20 13 0 20 7 20 20 0 13 -7 20 -20 20
-13 0 -20 -7 -20 -20z"/>
<path d="M2973 913 c-7 -2 -13 -11 -13 -18 0 -7 -11 -16 -25 -19 -21 -5 -25
-12 -25 -46 0 -33 3 -40 20 -40 11 0 20 7 20 15 0 9 7 18 15 21 8 4 15 14 15
24 0 20 33 37 38 21 2 -6 17 -11 33 -11 22 0 29 5 29 20 0 15 -7 20 -25 20
-14 0 -25 5 -25 10 0 10 -35 12 -57 3z"/>
<path d="M1990 885 c0 -18 5 -25 20 -25 15 0 20 7 20 25 0 18 -5 25 -20 25
-15 0 -20 -7 -20 -25z"/>
<path d="M2600 890 c0 -11 7 -20 15 -20 8 0 15 -9 15 -20 0 -13 7 -20 20 -20
13 0 20 7 20 20 0 11 -7 20 -15 20 -8 0 -15 9 -15 20 0 13 -7 20 -20 20 -13 0
-20 -7 -20 -20z"/>
<path d="M3580 890 c0 -13 7 -20 20 -20 13 0 20 7 20 20 0 13 -7 20 -20 20
-13 0 -20 -7 -20 -20z"/>
<path d="M2547 873 c-4 -3 -7 -15 -7 -25 0 -14 6 -19 23 -16 29 4 38 48 9 48
-10 0 -22 -3 -25 -7z"/>
<path d="M1720 850 c0 -13 7 -20 20 -20 13 0 20 7 20 20 0 13 -7 20 -20 20
-13 0 -20 -7 -20 -20z"/>
<path d="M2730 820 c0 -32 4 -40 19 -40 13 0 20 10 25 31 9 47 8 49 -19 49
-22 0 -25 -4 -25 -40z"/>
<path d="M2850 840 c0 -13 7 -20 20 -20 13 0 20 7 20 20 0 13 -7 20 -20 20
-13 0 -20 -7 -20 -20z"/>
<path d="M3430 825 c0 -18 5 -25 20 -25 15 0 20 7 20 25 0 18 -5 25 -20 25
-15 0 -20 -7 -20 -25z"/>
<path d="M3030 810 c0 -13 7 -20 20 -20 13 0 20 7 20 20 0 13 -7 20 -20 20
-13 0 -20 -7 -20 -20z"/>
<path d="M3500 800 c0 -13 7 -20 20 -20 13 0 20 7 20 20 0 13 -7 20 -20 20
-13 0 -20 -7 -20 -20z"/>
<path d="M2280 760 c0 -11 7 -20 15 -20 8 0 15 -9 15 -20 0 -11 -7 -20 -15
-20 -8 0 -15 -7 -15 -15 0 -8 -9 -15 -20 -15 -15 0 -20 -7 -20 -25 0 -14 5
-25 10 -25 6 0 10 -9 10 -20 0 -13 7 -20 20 -20 15 0 20 7 20 25 0 14 -4 25
-10 25 -5 0 -10 7 -10 15 0 8 9 15 20 15 13 0 20 7 20 20 0 11 7 20 15 20 8 0
15 9 15 20 0 11 -7 20 -15 20 -8 0 -15 9 -15 20 0 13 -7 20 -20 20 -13 0 -20
-7 -20 -20z"/>
<path d="M2780 750 c0 -13 7 -20 20 -20 13 0 20 7 20 20 0 13 -7 20 -20 20
-13 0 -20 -7 -20 -20z"/>
<path d="M2830 744 c0 -22 4 -25 28 -22 19 2 28 9 30 26 3 19 -1 22 -27 22
-27 0 -31 -4 -31 -26z"/>
<path d="M3310 760 c0 -5 -7 -10 -15 -10 -8 0 -15 -9 -15 -20 0 -16 7 -20 35
-20 32 0 35 2 35 30 0 23 -4 30 -20 30 -11 0 -20 -4 -20 -10z"/>
<path d="M1940 740 c0 -13 7 -20 20 -20 13 0 20 7 20 20 0 13 -7 20 -20 20
-13 0 -20 -7 -20 -20z"/>
<path d="M2200 730 c0 -13 7 -20 20 -20 13 0 20 7 20 20 0 13 -7 20 -20 20
-13 0 -20 -7 -20 -20z"/>
<path d="M2037 733 c-16 -15 -6 -43 14 -43 18 0 20 -4 13 -45 -6 -41 -4 -45
14 -45 14 0 21 9 25 28 3 15 9 39 13 55 5 21 3 27 -10 27 -9 0 -16 7 -16 15 0
15 -40 21 -53 8z"/>
<path d="M2600 720 c0 -13 7 -20 20 -20 13 0 20 7 20 20 0 13 -7 20 -20 20
-13 0 -20 -7 -20 -20z"/>
<path d="M3450 720 c0 -13 7 -20 20 -20 13 0 20 7 20 20 0 13 -7 20 -20 20
-13 0 -20 -7 -20 -20z"/>
<path d="M3510 720 c0 -13 7 -20 20 -20 13 0 20 7 20 20 0 13 -7 20 -20 20
-13 0 -20 -7 -20 -20z"/>
<path d="M2140 710 c0 -13 7 -20 20 -20 13 0 20 7 20 20 0 13 -7 20 -20 20
-13 0 -20 -7 -20 -20z"/>
<path d="M2890 710 c0 -13 7 -20 20 -20 13 0 20 7 20 20 0 13 -7 20 -20 20
-13 0 -20 -7 -20 -20z"/>
<path d="M3000 710 c0 -17 7 -20 40 -20 33 0 40 3 40 20 0 17 -7 20 -40 20
-33 0 -40 -3 -40 -20z"/>
<path d="M3670 710 c0 -13 7 -20 20 -20 13 0 20 7 20 20 0 13 -7 20 -20 20
-13 0 -20 -7 -20 -20z"/>
<path d="M1560 700 c0 -13 7 -20 20 -20 13 0 20 7 20 20 0 13 -7 20 -20 20
-13 0 -20 -7 -20 -20z"/>
<path d="M3200 680 c0 -13 7 -20 20 -20 13 0 20 7 20 20 0 13 -7 20 -20 20
-13 0 -20 -7 -20 -20z"/>
<path d="M3310 665 c0 -8 -4 -15 -10 -15 -5 0 -10 -9 -10 -20 0 -13 7 -20 20
-20 11 0 20 7 20 15 0 8 5 15 10 15 6 0 10 9 10 20 0 13 -7 20 -20 20 -11 0
-20 -7 -20 -15z"/>
<path d="M2837 663 c-4 -3 -7 -15 -7 -25 0 -29 44 -20 48 10 3 16 -2 22 -16
22 -10 0 -22 -3 -25 -7z"/>
<path d="M3430 650 c0 -13 7 -20 20 -20 13 0 20 7 20 20 0 13 -7 20 -20 20
-13 0 -20 -7 -20 -20z"/>
<path d="M2890 640 c0 -13 7 -20 20 -20 13 0 20 7 20 20 0 13 -7 20 -20 20
-13 0 -20 -7 -20 -20z"/>
<path d="M2990 640 c0 -13 7 -20 20 -20 13 0 20 7 20 20 0 13 -7 20 -20 20
-13 0 -20 -7 -20 -20z"/>
<path d="M1617 643 c-4 -3 -7 -15 -7 -25 0 -13 7 -18 25 -18 20 0 25 5 25 25
0 18 -5 25 -18 25 -10 0 -22 -3 -25 -7z"/>
<path d="M3137 633 c-4 -3 -7 -17 -7 -30 0 -20 5 -24 23 -21 30 4 39 58 9 58
-10 0 -22 -3 -25 -7z"/>
<path d="M2140 605 c0 -18 5 -25 20 -25 15 0 20 7 20 25 0 18 -5 25 -20 25
-15 0 -20 -7 -20 -25z"/>
<path d="M2143 563 c-23 -4 -34 -43 -13 -43 6 0 10 -6 10 -14 0 -10 14 -14 50
-14 46 0 50 2 50 24 0 17 -6 24 -20 24 -11 0 -20 7 -20 15 0 15 -13 17 -57 8z"/>
<path d="M3080 550 c0 -13 7 -20 20 -20 13 0 20 7 20 20 0 13 -7 20 -20 20
-13 0 -20 -7 -20 -20z"/>
<path d="M3210 550 c0 -15 7 -20 25 -20 18 0 25 5 25 20 0 15 -7 20 -25 20
-18 0 -25 -5 -25 -20z"/>
<path d="M3300 520 c0 -13 7 -20 20 -20 13 0 20 7 20 20 0 13 -7 20 -20 20
-13 0 -20 -7 -20 -20z"/>
<path d="M3360 515 c0 -18 5 -25 20 -25 15 0 20 7 20 25 0 18 -5 25 -20 25
-15 0 -20 -7 -20 -25z"/>
<path d="M3000 490 c0 -13 7 -20 20 -20 13 0 20 7 20 20 0 13 -7 20 -20 20
-13 0 -20 -7 -20 -20z"/>
<path d="M2070 460 c0 -15 7 -20 25 -20 18 0 25 5 25 20 0 15 -7 20 -25 20
-18 0 -25 -5 -25 -20z"/>
<path d="M2010 435 c0 -18 5 -25 20 -25 15 0 20 7 20 25 0 18 -5 25 -20 25
-15 0 -20 -7 -20 -25z"/>
<path d="M3140 440 c0 -13 7 -20 20 -20 13 0 20 7 20 20 0 13 -7 20 -20 20
-13 0 -20 -7 -20 -20z"/>
<path d="M2410 400 c0 -13 7 -20 20 -20 13 0 20 7 20 20 0 13 -7 20 -20 20
-13 0 -20 -7 -20 -20z"/>
<path d="M3037 413 c-11 -10 -8 -43 3 -43 6 0 10 -7 10 -15 0 -9 9 -15 21 -15
19 0 21 4 15 31 -3 17 -6 35 -6 40 0 10 -34 12 -43 2z"/>
<path d="M2580 380 c0 -13 7 -20 20 -20 13 0 20 7 20 20 0 13 -7 20 -20 20
-13 0 -20 -7 -20 -20z"/>
<path d="M2760 360 c0 -13 7 -20 20 -20 13 0 20 7 20 20 0 13 -7 20 -20 20
-13 0 -20 -7 -20 -20z"/>
<path d="M2380 350 c0 -15 7 -20 25 -20 18 0 25 5 25 20 0 15 -7 20 -25 20
-18 0 -25 -5 -25 -20z"/>
<path d="M2120 335 c0 -18 5 -25 20 -25 15 0 20 7 20 25 0 18 -5 25 -20 25
-15 0 -20 -7 -20 -25z"/>
<path d="M2500 335 c0 -18 5 -25 20 -25 15 0 20 7 20 25 0 18 -5 25 -20 25
-15 0 -20 -7 -20 -25z"/>
<path d="M2670 340 c0 -13 7 -20 20 -20 13 0 20 7 20 20 0 13 -7 20 -20 20
-13 0 -20 -7 -20 -20z"/>
<path d="M1880 320 c0 -13 7 -20 20 -20 13 0 20 7 20 20 0 13 -7 20 -20 20
-13 0 -20 -7 -20 -20z"/>
<path d="M2617 304 c-4 -4 -7 -20 -7 -36 0 -25 4 -28 30 -28 34 0 49 23 33 49
-11 17 -44 26 -56 15z"/>
<path d="M2380 250 c0 -13 7 -20 20 -20 13 0 20 7 20 20 0 13 -7 20 -20 20
-13 0 -20 -7 -20 -20z"/>
<path d="M2530 235 c0 -18 5 -25 20 -25 15 0 20 7 20 25 0 18 -5 25 -20 25
-15 0 -20 -7 -20 -25z"/>
<path d="M2720 230 c0 -13 7 -20 20 -20 13 0 20 7 20 20 0 13 -7 20 -20 20
-13 0 -20 -7 -20 -20z"/>
<path d="M2150 125 c0 -18 5 -25 20 -25 15 0 20 7 20 25 0 18 -5 25 -20 25
-15 0 -20 -7 -20 -25z"/>
</g>
</svg>
