<?xml version="1.0" standalone="no"?>
<!DOCTYPE svg PUBLIC "-//W3C//DTD SVG 20010904//EN"
 "http://www.w3.org/TR/2001/REC-SVG-20010904/DTD/svg10.dtd">
<svg version="1.0" xmlns="http://www.w3.org/2000/svg"
 width="352.000000pt" height="239.000000pt" viewBox="0 0 352.000000 239.000000"
 preserveAspectRatio="xMidYMid meet">
<metadata>
Created by potrace 1.13, written by Peter Selinger 2001-2015
</metadata>
<g transform="translate(0.000000,239.000000) scale(0.100000,-0.100000)"
fill="#000000" stroke="none">
<path d="M3159 2361 c-18 -19 -29 -40 -29 -58 0 -27 -2 -28 -43 -25 -37 3 -44
0 -56 -22 -11 -20 -19 -24 -38 -20 -26 7 -73 -19 -73 -39 0 -8 -12 -12 -37 -9
-48 3 -63 -7 -72 -47 -6 -31 -13 -35 -211 -117 -113 -47 -223 -93 -245 -103
-22 -10 -101 -44 -175 -76 -74 -31 -153 -65 -176 -76 -22 -10 -63 -27 -90 -37
-27 -11 -79 -34 -116 -51 -36 -17 -72 -31 -78 -31 -7 0 -32 23 -57 50 -25 28
-65 62 -89 76 -86 51 -224 50 -326 -2 -41 -21 -231 -170 -249 -196 -10 -15
-98 -21 -141 -10 -24 6 -73 18 -111 28 -139 35 -360 3 -495 -72 -107 -59 -156
-109 -208 -210 -31 -61 -37 -84 -41 -158 -8 -125 13 -216 96 -422 32 -77 35
-92 23 -103 -29 -28 10 -121 52 -121 19 0 33 -16 71 -83 123 -213 277 -376
394 -415 42 -15 212 -15 266 -1 77 20 184 83 268 156 61 54 139 159 191 259
52 97 84 129 143 142 26 6 93 20 148 32 198 43 304 143 336 318 6 31 9 71 6
89 -5 26 -2 33 15 39 16 5 19 12 16 37 -3 18 -8 39 -12 48 -6 13 22 59 37 59
5 0 122 53 232 105 392 185 419 199 423 208 2 4 9 7 15 7 7 0 62 24 122 54
127 62 158 70 163 42 10 -51 74 -63 113 -21 17 17 31 22 47 18 37 -9 70 5 80
34 7 18 11 22 11 11 2 -32 111 -18 111 13 0 19 45 48 75 49 17 0 35 4 41 8 18
12 34 49 34 78 0 33 -96 230 -126 259 -52 50 -66 84 -73 178 -4 51 -13 102
-19 114 -28 52 -98 58 -143 14z m-52 -413 c-3 -8 -6 -5 -6 6 -1 11 2 17 5 13
3 -3 4 -12 1 -19z m-207 -73 c0 -14 0 -28 1 -31 0 -4 -22 -15 -48 -24 -26 -9
-106 -42 -178 -72 -71 -31 -236 -99 -365 -152 -129 -53 -266 -110 -304 -127
-112 -48 -86 -26 51 42 70 35 130 66 133 69 3 3 145 76 315 162 250 126 318
157 353 157 38 1 42 -1 42 -24z"/>
</g>
</svg>
