<?xml version="1.0" standalone="no"?>
<!DOCTYPE svg PUBLIC "-//W3C//DTD SVG 20010904//EN"
 "http://www.w3.org/TR/2001/REC-SVG-20010904/DTD/svg10.dtd">
<svg version="1.0" xmlns="http://www.w3.org/2000/svg"
 width="348.000000pt" height="639.000000pt" viewBox="0 0 348.000000 639.000000"
 preserveAspectRatio="xMidYMid meet">
<metadata>
Created by potrace 1.13, written by Peter Selinger 2001-2015
</metadata>
<g transform="translate(0.000000,639.000000) scale(0.100000,-0.100000)"
fill="#000000" stroke="none">
<path d="M375 6340 c-66 -21 -160 -50 -210 -65 -90 -28 -90 -28 -122 -83 -18
-30 -33 -61 -33 -69 0 -13 33 -68 50 -83 13 -12 80 -99 80 -104 0 -3 -10 -6
-23 -6 -68 0 -89 -76 -41 -151 24 -38 28 -41 64 -37 33 3 37 1 29 -14 -13 -24
-11 -64 4 -80 7 -7 20 -25 30 -40 35 -56 127 -25 127 42 l0 33 30 -31 c39 -41
38 -52 -4 -52 -25 0 -39 -7 -50 -22 -24 -33 -19 -65 16 -119 28 -44 35 -49 68
-49 39 0 62 18 75 58 l7 24 15 -21 c10 -15 25 -21 55 -21 59 0 91 -39 123
-149 14 -47 32 -99 39 -116 7 -16 59 -172 115 -345 57 -173 106 -322 111 -330
4 -9 11 -31 15 -50 4 -19 11 -41 16 -50 15 -28 133 -372 177 -515 51 -169 59
-224 40 -285 -17 -55 -64 -117 -98 -128 -27 -10 -30 -15 -30 -56 0 -26 5 -46
12 -48 8 -3 3 -10 -11 -18 -13 -7 -40 -26 -59 -44 -159 -141 -240 -271 -283
-456 -21 -89 -21 -104 -11 -225 10 -122 37 -238 58 -253 5 -4 19 -26 31 -49
13 -23 57 -90 99 -150 77 -109 165 -277 183 -349 6 -21 17 -66 26 -99 31 -121
26 -227 -19 -380 -53 -181 -79 -333 -73 -425 4 -75 31 -195 57 -255 38 -90 71
-155 91 -185 67 -97 180 -218 251 -265 23 -17 44 -33 46 -37 2 -5 7 -8 12 -8
4 0 38 -18 75 -41 98 -59 247 -116 338 -128 228 -31 475 -2 666 78 41 17 78
31 82 31 5 0 6 -13 3 -29 -7 -36 15 -51 76 -51 34 0 42 4 50 26 15 39 12 82
-7 92 -13 8 -3 16 53 44 169 83 339 190 427 268 100 89 187 245 224 405 27
119 24 388 -6 465 -11 30 -21 62 -21 70 0 24 -91 198 -151 290 -90 136 -213
267 -354 376 -196 151 -312 299 -394 505 -54 134 -65 203 -65 419 -1 180 -3
198 -22 230 -12 19 -30 51 -40 70 -11 19 -21 37 -24 40 -3 3 -18 25 -35 48
-76 114 -235 228 -370 267 -47 14 -80 16 -153 11 -106 -7 -91 -21 -137 124
-15 47 -48 130 -72 185 -25 55 -60 141 -78 190 -19 50 -65 171 -104 270 -39
99 -88 223 -108 275 -20 52 -62 158 -93 235 -65 159 -115 289 -125 323 -3 12
-11 22 -16 22 -5 0 -9 11 -9 25 0 22 -79 213 -99 240 -21 27 -111 206 -111
219 0 24 -22 66 -35 66 -14 0 -75 112 -75 138 0 11 -7 25 -15 32 -22 18 -95
168 -95 195 0 13 -7 25 -16 27 -8 2 -27 30 -42 63 -36 80 -40 85 -65 84 -12 0
-76 -18 -142 -39z m-102 -454 c-3 -5 -14 2 -24 15 -23 31 -13 46 11 17 10 -13
16 -27 13 -32z m-34 -85 l21 -29 -35 -4 c-23 -3 -32 -1 -25 6 6 6 10 20 10 33
0 30 4 29 29 -6z m155 -71 c-13 -13 -49 24 -39 40 5 9 14 6 28 -9 15 -14 18
-24 11 -31z m-154 -34 c0 -8 -4 -17 -9 -21 -12 -7 -24 12 -16 25 9 15 25 12
25 -4z m268 -96 c17 -27 5 -47 -14 -23 -15 20 -18 43 -6 43 4 0 13 -9 20 -20z
m-157 -77 c-8 -15 -10 -15 -11 -2 0 17 10 32 18 25 2 -3 -1 -13 -7 -23z m1484
-2013 c4 -6 -6 -7 -27 -3 -44 8 -48 13 -10 13 17 0 34 -4 37 -10z m-4 -50 c5
0 9 -7 9 -15 0 -8 4 -15 9 -15 5 0 13 -9 16 -20 3 -11 13 -20 21 -20 8 0 14
-4 14 -9 0 -5 11 -13 25 -18 25 -8 25 -8 5 -25 -19 -17 -20 -17 -20 2 0 13 -7
20 -20 20 -13 0 -20 -7 -20 -20 0 -11 5 -20 10 -20 6 0 10 -8 10 -19 0 -11 12
-23 30 -31 25 -10 27 -14 15 -26 -28 -28 -44 -16 -62 46 -10 33 -23 60 -29 60
-5 0 -20 27 -32 61 -18 52 -19 60 -6 55 9 -3 20 -6 25 -6z m86 -16 c-7 -7 -37
7 -37 17 0 6 9 5 21 -1 11 -7 19 -14 16 -16z m-547 -85 c0 -14 -5 -19 -17 -17
-23 4 -28 25 -6 31 10 3 19 5 21 6 1 0 2 -8 2 -20z m575 -179 c3 -5 -1 -10 -9
-10 -9 0 -16 -6 -16 -12 0 -14 -20 11 -20 25 0 11 38 9 45 -3z m95 -286 c0 -2
-7 -4 -15 -4 -8 0 -15 4 -15 10 0 5 7 7 15 4 8 -4 15 -8 15 -10z m180 -94 c0
-5 -2 -10 -4 -10 -3 0 -8 5 -11 10 -3 6 -1 10 4 10 6 0 11 -4 11 -10z m150
-170 c0 -5 -2 -10 -4 -10 -3 0 -8 5 -11 10 -3 6 -1 10 4 10 6 0 11 -4 11 -10z
m-831 -449 c-14 -4 -15 -2 -22 39 l-6 35 18 -35 c11 -20 15 -37 10 -39z m21
-81 c0 -11 -2 -20 -4 -20 -2 0 -6 9 -9 20 -3 11 -1 20 4 20 5 0 9 -9 9 -20z
m490 -285 c0 -5 -5 -3 -10 5 -5 8 -10 20 -10 25 0 6 5 3 10 -5 5 -8 10 -19 10
-25z m-150 -45 c0 -5 -5 -10 -11 -10 -5 0 -7 5 -4 10 3 6 8 10 11 10 2 0 4 -4
4 -10z m55 0 c3 -5 1 -10 -4 -10 -6 0 -11 5 -11 10 0 6 2 10 4 10 3 0 8 -4 11
-10z m280 -50 c3 -5 2 -10 -4 -10 -5 0 -13 5 -16 10 -3 6 -2 10 4 10 5 0 13
-4 16 -10z m-235 -120 c0 -5 -2 -10 -4 -10 -3 0 -8 5 -11 10 -3 6 -1 10 4 10
6 0 11 -4 11 -10z m550 -260 c0 -5 -4 -10 -9 -10 -6 0 -13 5 -16 10 -3 6 1 10
9 10 9 0 16 -4 16 -10z m-977 -587 c-7 -2 -19 -2 -25 0 -7 3 -2 5 12 5 14 0
19 -2 13 -5z"/>
</g>
</svg>
