<?xml version="1.0" standalone="no"?>
<!DOCTYPE svg PUBLIC "-//W3C//DTD SVG 20010904//EN"
 "http://www.w3.org/TR/2001/REC-SVG-20010904/DTD/svg10.dtd">
<svg version="1.0" xmlns="http://www.w3.org/2000/svg"
 width="91.000000pt" height="150.000000pt" viewBox="0 0 91.000000 150.000000"
 preserveAspectRatio="xMidYMid meet">
<metadata>
Created by potrace 1.13, written by Peter Selinger 2001-2015
</metadata>
<g transform="translate(0.000000,150.000000) scale(0.100000,-0.100000)"
fill="#000000" stroke="none">
<path d="M547 1482 c-9 -10 -28 -44 -42 -75 -25 -58 -25 -58 -25 -363 0 -270
-2 -305 -16 -311 -11 -4 -28 8 -53 37 -35 40 -39 43 -74 36 -21 -4 -41 -14
-44 -22 -6 -17 13 -146 26 -172 28 -56 41 -98 41 -134 0 -34 -6 -46 -36 -74
-60 -57 -84 -114 -84 -198 0 -86 19 -122 88 -171 43 -30 45 -30 190 -32 81 -2
161 2 179 8 17 5 47 27 67 49 69 76 58 197 -30 322 -52 75 -54 100 -19 195 38
99 36 129 -8 169 -20 18 -49 36 -64 40 -15 3 -33 7 -39 9 -17 5 -30 480 -15
518 6 16 11 47 11 70 0 24 7 53 16 65 9 13 13 29 10 37 -8 21 -60 19 -79 -3z"/>
</g>
</svg>
