<?xml version="1.0" standalone="no"?>
<!DOCTYPE svg PUBLIC "-//W3C//DTD SVG 20010904//EN"
 "http://www.w3.org/TR/2001/REC-SVG-20010904/DTD/svg10.dtd">
<svg version="1.0" xmlns="http://www.w3.org/2000/svg"
 width="300.000000pt" height="146.000000pt" viewBox="0 0 300.000000 146.000000"
 preserveAspectRatio="xMidYMid meet">
<metadata>
Created by potrace 1.13, written by Peter Selinger 2001-2015
</metadata>
<g transform="translate(0.000000,146.000000) scale(0.100000,-0.100000)"
fill="#000000" stroke="none">
<path d="M2750 1421 c-35 -23 -48 -27 -67 -20 -40 15 -64 10 -85 -16 -28 -36
-37 -40 -305 -129 l-242 -81 -3 34 c-3 30 -7 36 -37 44 -24 6 -42 5 -58 -4
-20 -11 -24 -20 -21 -53 l3 -40 -90 -32 c-50 -17 -171 -61 -270 -98 -99 -37
-254 -94 -345 -126 -91 -32 -198 -70 -237 -85 l-73 -28 -32 33 c-44 43 -101
79 -173 107 -49 20 -79 24 -160 25 -141 1 -242 -32 -353 -114 -140 -103 -189
-194 -198 -359 -4 -86 9 -169 27 -169 4 0 13 -16 19 -36 7 -20 21 -46 31 -58
10 -11 27 -32 38 -45 12 -13 21 -28 21 -33 0 -4 5 -8 10 -8 11 0 26 -11 66
-48 14 -12 33 -22 44 -22 10 0 32 -12 49 -26 23 -19 38 -24 56 -20 13 3 27 2
30 -4 7 -12 55 -14 55 -2 0 9 96 7 134 -3 22 -6 31 -4 38 10 8 13 18 15 46 10
30 -6 38 -3 53 16 13 18 26 23 53 21 32 -2 36 0 36 22 0 25 16 36 57 36 21 0
24 4 21 28 -3 23 1 27 24 30 22 3 27 9 30 35 2 24 8 33 26 35 19 3 22 10 22
44 0 31 4 41 20 45 16 4 20 14 20 44 0 27 5 42 16 46 13 5 15 15 11 48 l-6 43
62 21 c78 28 88 33 101 57 45 81 36 76 376 203 126 47 239 90 285 110 18 8
127 50 315 121 222 83 328 124 358 136 46 20 100 9 104 -20 2 -16 11 -22 35
-24 41 -4 85 24 81 52 -1 12 1 22 5 24 17 8 67 -11 67 -24 0 -23 24 -27 72
-11 39 14 43 18 44 50 1 19 11 47 23 62 13 17 21 42 21 65 0 35 -4 40 -59 74
-77 47 -129 49 -191 7z"/>
</g>
</svg>
