<?xml version="1.0" standalone="no"?>
<!DOCTYPE svg PUBLIC "-//W3C//DTD SVG 20010904//EN"
 "http://www.w3.org/TR/2001/REC-SVG-20010904/DTD/svg10.dtd">
<svg version="1.0" xmlns="http://www.w3.org/2000/svg"
 width="256.000000pt" height="256.000000pt" viewBox="0 0 256.000000 256.000000"
 preserveAspectRatio="xMidYMid meet">
<metadata>
Created by potrace 1.13, written by Peter Selinger 2001-2015
</metadata>
<g transform="translate(0.000000,256.000000) scale(0.100000,-0.100000)"
fill="#000000" stroke="none">
<path d="M1860 1416 c0 -3 10 -22 23 -43 52 -89 71 -166 62 -258 -5 -55 -13
-83 -31 -107 -13 -18 -34 -52 -46 -75 l-22 -43 -788 0 -788 0 0 -105 0 -105
788 0 788 0 17 -35 17 -35 -30 0 -30 0 0 -150 0 -150 215 0 215 0 0 150 0 150
-29 0 -30 0 22 48 c19 40 22 64 22 167 -1 111 -3 129 -38 235 -60 185 -96 231
-244 316 -73 41 -93 50 -93 40z"/>
</g>
</svg>
