<?xml version="1.0" standalone="no"?>
<!DOCTYPE svg PUBLIC "-//W3C//DTD SVG 20010904//EN"
 "http://www.w3.org/TR/2001/REC-SVG-20010904/DTD/svg10.dtd">
<svg version="1.0" xmlns="http://www.w3.org/2000/svg"
 width="256.000000pt" height="256.000000pt" viewBox="0 0 256.000000 256.000000"
 preserveAspectRatio="xMidYMid meet">
<metadata>
Created by potrace 1.13, written by Peter Selinger 2001-2015
</metadata>
<g transform="translate(0.000000,256.000000) scale(0.100000,-0.100000)"
fill="#000000" stroke="none">
<path d="M310 2035 l0 -215 150 0 150 0 0 30 0 30 35 -17 35 -17 0 -788 0
-788 105 0 105 0 0 788 0 788 43 22 c23 12 57 33 75 46 24 18 52 26 107 31 92
9 169 -10 259 -63 21 -13 41 -21 43 -18 8 8 -69 144 -110 194 -51 62 -108 94
-247 139 -106 35 -124 37 -235 38 -103 0 -127 -3 -167 -22 l-48 -22 0 30 0 29
-150 0 -150 0 0 -215z"/>
</g>
</svg>
