<?xml version="1.0" standalone="no"?>
<!DOCTYPE svg PUBLIC "-//W3C//DTD SVG 20010904//EN"
 "http://www.w3.org/TR/2001/REC-SVG-20010904/DTD/svg10.dtd">
<svg version="1.0" xmlns="http://www.w3.org/2000/svg"
 width="256.000000pt" height="256.000000pt" viewBox="0 0 256.000000 256.000000"
 preserveAspectRatio="xMidYMid meet">
<metadata>
Created by potrace 1.13, written by Peter Selinger 2001-2015
</metadata>
<g transform="translate(0.000000,256.000000) scale(0.100000,-0.100000)"
fill="#000000" stroke="none">
<path d="M290 2080 l0 -240 130 0 c123 0 130 1 130 20 0 15 7 20 25 20 l25 0
0 -860 0 -860 120 0 120 0 0 866 0 867 81 -7 c124 -10 309 -49 358 -75 17 -10
21 -9 21 3 0 25 -42 129 -67 166 -12 19 -23 39 -23 43 0 26 -75 97 -159 151
-148 94 -186 105 -368 106 -126 0 -133 1 -133 20 0 19 -7 20 -130 20 l-130 0
0 -240z"/>
</g>
</svg>
