<?xml version="1.0" standalone="no"?>
<!DOCTYPE svg PUBLIC "-//W3C//DTD SVG 20010904//EN"
 "http://www.w3.org/TR/2001/REC-SVG-20010904/DTD/svg10.dtd">
<svg version="1.0" xmlns="http://www.w3.org/2000/svg"
 width="256.000000pt" height="256.000000pt" viewBox="0 0 256.000000 256.000000"
 preserveAspectRatio="xMidYMid meet">
<metadata>
Created by potrace 1.13, written by Peter Selinger 2001-2015
</metadata>
<g transform="translate(0.000000,256.000000) scale(0.100000,-0.100000)"
fill="#000000" stroke="none">
<path d="M670 1278 c-30 -12 -71 -32 -90 -45 -19 -12 -39 -23 -43 -23 -26 0
-97 -75 -151 -159 -94 -148 -105 -186 -106 -368 0 -126 -1 -133 -20 -133 -19
0 -20 -7 -20 -130 l0 -130 240 0 240 0 0 130 c0 123 -1 130 -20 130 -15 0 -20
7 -20 25 l0 25 640 0 640 0 0 120 0 120 -646 0 -647 0 7 81 c10 124 49 309 75
358 10 18 9 21 -6 20 -10 0 -43 -9 -73 -21z"/>
</g>
</svg>
