<?xml version="1.0" standalone="no"?>
<!DOCTYPE svg PUBLIC "-//W3C//DTD SVG 20010904//EN"
 "http://www.w3.org/TR/2001/REC-SVG-20010904/DTD/svg10.dtd">
<svg version="1.0" xmlns="http://www.w3.org/2000/svg"
 width="256.000000pt" height="256.000000pt" viewBox="0 0 256.000000 256.000000"
 preserveAspectRatio="xMidYMid meet">
<metadata>
Created by potrace 1.13, written by Peter Selinger 2001-2015
</metadata>
<g transform="translate(0.000000,256.000000) scale(0.100000,-0.100000)"
fill="#000000" stroke="none">
<path d="M494 2406 l-34 -34 0 -122 c0 -120 0 -122 28 -150 53 -53 170 -51
222 5 13 14 34 25 47 25 l23 0 0 -973 c0 -743 3 -976 12 -985 7 -7 35 -12 63
-12 93 0 85 -94 85 1004 0 918 1 968 18 961 9 -3 31 -9 47 -12 17 -3 35 -9 40
-13 6 -4 21 -11 35 -15 13 -4 48 -23 77 -43 69 -45 84 -39 76 30 -3 29 -11 64
-19 78 -7 14 -17 34 -23 45 -17 37 -155 162 -191 174 -19 7 -89 15 -155 18
-106 5 -123 9 -148 29 -24 20 -40 24 -99 24 -66 0 -72 -2 -104 -34z"/>
</g>
</svg>
