<?xml version="1.0" standalone="no"?>
<!DOCTYPE svg PUBLIC "-//W3C//DTD SVG 20010904//EN"
 "http://www.w3.org/TR/2001/REC-SVG-20010904/DTD/svg10.dtd">
<svg version="1.0" xmlns="http://www.w3.org/2000/svg"
 width="256.000000pt" height="256.000000pt" viewBox="0 0 256.000000 256.000000"
 preserveAspectRatio="xMidYMid meet">
<metadata>
Created by potrace 1.13, written by Peter Selinger 2001-2015
</metadata>
<g transform="translate(0.000000,256.000000) scale(0.100000,-0.100000)"
fill="#000000" stroke="none">
<path d="M1950 2221 l0 -30 -47 22 c-41 19 -65 22 -168 22 -111 -1 -129 -3
-235 -38 -139 -45 -196 -77 -247 -139 -41 -50 -118 -186 -110 -194 2 -3 22 5
43 18 90 53 167 72 259 63 55 -5 83 -13 107 -31 18 -13 52 -34 76 -46 l42 -22
0 -788 0 -788 105 0 105 0 0 788 0 788 35 17 35 17 0 -30 0 -30 150 0 150 0 0
215 0 215 -150 0 -150 0 0 -29z"/>
</g>
</svg>
