<?xml version="1.0" standalone="no"?>
<!DOCTYPE svg PUBLIC "-//W3C//DTD SVG 20010904//EN"
 "http://www.w3.org/TR/2001/REC-SVG-20010904/DTD/svg10.dtd">
<svg version="1.0" xmlns="http://www.w3.org/2000/svg"
 width="256.000000pt" height="256.000000pt" viewBox="0 0 256.000000 256.000000"
 preserveAspectRatio="xMidYMid meet">
<metadata>
Created by potrace 1.13, written by Peter Selinger 2001-2015
</metadata>
<g transform="translate(0.000000,256.000000) scale(0.100000,-0.100000)"
fill="#000000" stroke="none">
<path d="M1840 2140 c0 -123 1 -130 20 -130 15 0 20 -7 20 -25 l0 -25 -510 0
-510 0 0 -120 0 -120 516 0 517 0 -7 -81 c-10 -124 -49 -309 -75 -358 -10 -17
-9 -21 3 -21 25 0 129 42 166 67 19 12 39 23 43 23 26 0 97 75 151 159 94 148
105 186 106 369 0 125 1 132 20 132 19 0 20 7 20 130 l0 130 -240 0 -240 0 0
-130z"/>
</g>
</svg>
