<?xml version="1.0" standalone="no"?>
<!DOCTYPE svg PUBLIC "-//W3C//DTD SVG 20010904//EN"
 "http://www.w3.org/TR/2001/REC-SVG-20010904/DTD/svg10.dtd">
<svg version="1.0" xmlns="http://www.w3.org/2000/svg"
 width="256.000000pt" height="256.000000pt" viewBox="0 0 256.000000 256.000000"
 preserveAspectRatio="xMidYMid meet">
<metadata>
Created by potrace 1.13, written by Peter Selinger 2001-2015
</metadata>
<g transform="translate(0.000000,256.000000) scale(0.100000,-0.100000)"
fill="#000000" stroke="none">
<path d="M607 1376 c-148 -85 -184 -131 -244 -316 -35 -106 -37 -124 -38 -235
0 -103 3 -127 22 -167 l22 -48 -30 0 -29 0 0 -150 0 -150 215 0 215 0 0 150 0
150 -30 0 -30 0 17 35 17 35 788 0 788 0 0 105 0 105 -788 0 -788 0 -22 43
c-12 23 -33 57 -46 75 -18 24 -26 52 -31 107 -9 92 10 169 63 258 36 61 32 61
-71 3z"/>
</g>
</svg>
