<?xml version="1.0" standalone="no"?>
<!DOCTYPE svg PUBLIC "-//W3C//DTD SVG 20010904//EN"
 "http://www.w3.org/TR/2001/REC-SVG-20010904/DTD/svg10.dtd">
<svg version="1.0" xmlns="http://www.w3.org/2000/svg"
 width="256.000000pt" height="256.000000pt" viewBox="0 0 256.000000 256.000000"
 preserveAspectRatio="xMidYMid meet">
<metadata>
Created by potrace 1.13, written by Peter Selinger 2001-2015
</metadata>
<g transform="translate(0.000000,256.000000) scale(0.100000,-0.100000)"
fill="#000000" stroke="none">
<path d="M2013 1224 c-3 -8 10 -38 29 -67 20 -29 39 -64 43 -77 4 -14 11 -29
15 -35 4 -5 10 -23 13 -40 3 -16 9 -38 12 -47 7 -17 -43 -18 -962 -18 -927 0
-971 -1 -986 -18 -20 -22 -23 -112 -5 -130 9 -9 242 -12 985 -12 l973 0 0 -23
c0 -13 -11 -34 -25 -47 -56 -52 -58 -169 -5 -222 28 -28 30 -28 150 -28 l122
0 34 34 c32 32 34 38 34 104 0 59 -4 75 -24 99 -20 25 -24 42 -29 148 -3 66
-11 136 -18 155 -12 36 -137 174 -174 191 -11 6 -31 16 -45 23 -14 8 -49 16
-78 19 -42 5 -54 3 -59 -9z"/>
</g>
</svg>
