<?xml version="1.0" standalone="no"?>
<!DOCTYPE svg PUBLIC "-//W3C//DTD SVG 20010904//EN"
 "http://www.w3.org/TR/2001/REC-SVG-20010904/DTD/svg10.dtd">
<svg version="1.0" xmlns="http://www.w3.org/2000/svg"
 width="720.000000pt" height="371.000000pt" viewBox="0 0 720.000000 371.000000"
 preserveAspectRatio="xMidYMid meet">
<metadata>
Created by potrace 1.13, written by Peter Selinger 2001-2015
</metadata>
<g transform="translate(0.000000,371.000000) scale(0.100000,-0.100000)"
fill="#000000" stroke="none">
<path d="M560 3249 c-74 -46 -144 -110 -167 -153 -46 -88 -54 -136 -47 -271
l7 -129 55 -59 56 -58 -13 -97 c-8 -53 -17 -133 -21 -177 -4 -44 -12 -98 -18
-120 -19 -72 -34 -227 -35 -386 l-2 -155 40 -80 c39 -76 101 -158 212 -276 30
-31 60 -72 67 -89 18 -43 224 -249 248 -249 11 0 38 -13 61 -28 70 -48 149
-79 215 -87 l64 -7 39 38 c38 37 49 67 29 79 -5 3 -10 14 -10 24 0 10 -12 40
-26 67 -14 27 -25 49 -24 49 2 0 -8 32 -35 105 -22 61 -78 267 -105 390 -10
46 -9 62 4 100 9 25 16 53 16 63 0 21 -15 21 143 -3 162 -26 213 -38 228 -56
7 -9 32 -14 67 -14 34 0 94 -12 152 -29 182 -57 652 -128 972 -148 57 -3 91
-10 99 -19 8 -9 33 -14 74 -14 41 0 67 -5 74 -14 7 -8 41 -15 92 -18 44 -3 85
-10 91 -16 7 -7 32 -12 58 -13 47 0 82 -6 215 -33 180 -36 231 -48 252 -56 12
-5 70 -14 130 -21 63 -6 115 -17 124 -25 10 -9 38 -14 76 -14 42 0 64 -5 73
-15 9 -11 33 -15 86 -15 40 0 93 -6 116 -14 24 -8 95 -19 158 -26 63 -6 153
-20 200 -30 132 -30 244 -50 273 -50 15 0 27 -4 27 -8 0 -4 39 -13 88 -20 116
-15 110 -14 407 -65 143 -25 308 -50 367 -56 58 -6 133 -17 165 -25 193 -49
365 -83 483 -96 114 -12 195 -29 232 -47 16 -8 62 -13 115 -13 l89 0 37 38
c20 21 37 45 37 54 0 8 7 21 15 28 11 9 15 33 15 90 0 57 4 81 15 90 8 7 15
27 15 44 0 25 -11 43 -53 84 -46 45 -58 52 -92 52 -22 0 -83 11 -135 23 -52
13 -149 34 -215 46 -66 13 -178 36 -250 53 -71 17 -159 36 -195 43 -36 7 -99
22 -140 33 -41 11 -102 23 -135 27 -33 4 -102 16 -153 27 -51 10 -116 21 -145
23 -28 3 -74 9 -102 14 -27 5 -99 17 -160 26 -294 44 -555 87 -605 99 -30 8
-129 26 -220 40 -140 23 -331 60 -495 97 -22 4 -76 13 -120 20 -44 6 -107 17
-140 24 -62 14 -141 26 -280 45 -44 5 -118 17 -165 25 -47 8 -116 19 -155 25
-38 6 -95 17 -125 25 -30 7 -93 21 -140 31 -47 9 -123 26 -170 39 -97 26 -185
42 -285 50 -38 3 -110 13 -158 21 -48 8 -174 23 -280 34 -181 18 -315 40 -570
91 l-108 22 3 66 3 66 34 3 c75 7 200 131 242 239 53 136 23 432 -51 493 -101
84 -140 101 -280 119 -140 18 -252 33 -310 41 -30 5 -100 8 -155 9 -99 0 -100
0 -165 -40z"/>
</g>
</svg>
