<?xml version="1.0" standalone="no"?>
<!DOCTYPE svg PUBLIC "-//W3C//DTD SVG 20010904//EN"
 "http://www.w3.org/TR/2001/REC-SVG-20010904/DTD/svg10.dtd">
<svg version="1.0" xmlns="http://www.w3.org/2000/svg"
 width="259.000000pt" height="125.000000pt" viewBox="0 0 259.000000 125.000000"
 preserveAspectRatio="xMidYMid meet">
<metadata>
Created by potrace 1.13, written by Peter Selinger 2001-2015
</metadata>
<g transform="translate(0.000000,125.000000) scale(0.100000,-0.100000)"
fill="#000000" stroke="none">
<path d="M1185 1224 c-144 -24 -296 -70 -400 -121 -75 -37 -149 -92 -165 -123
-6 -11 -15 -68 -21 -127 -5 -59 -12 -127 -15 -149 l-5 -41 -54 -7 c-122 -14
-293 -65 -370 -110 -54 -32 -120 -107 -136 -153 -17 -52 -5 -138 29 -202 60
-114 214 -177 456 -185 157 -6 447 9 670 35 205 23 616 12 896 -23 47 -6 144
-13 215 -15 114 -4 138 -2 190 16 126 44 151 133 61 215 -57 50 -228 110 -359
124 l-62 7 -6 160 c-7 164 -21 328 -41 471 l-11 80 -51 24 c-60 27 -178 60
-217 60 -16 0 -50 8 -76 19 -140 55 -357 74 -528 45z"/>
</g>
</svg>
