<?xml version="1.0" standalone="no"?>
<!DOCTYPE svg PUBLIC "-//W3C//DTD SVG 20010904//EN"
 "http://www.w3.org/TR/2001/REC-SVG-20010904/DTD/svg10.dtd">
<svg version="1.0" xmlns="http://www.w3.org/2000/svg"
 width="104.000000pt" height="75.000000pt" viewBox="0 0 104.000000 75.000000"
 preserveAspectRatio="xMidYMid meet">
<metadata>
Created by potrace 1.13, written by Peter Selinger 2001-2015
</metadata>
<g transform="translate(0.000000,75.000000) scale(0.100000,-0.100000)"
fill="#000000" stroke="none">
<path d="M405 727 c-52 -16 -117 -58 -138 -90 -23 -36 -47 -106 -47 -142 -1
-66 -7 -73 -95 -100 -90 -28 -118 -50 -113 -87 6 -45 34 -49 301 -37 209 9
267 8 379 -5 73 -9 167 -18 208 -22 110 -9 151 12 136 70 -6 24 -39 42 -151
81 l-50 17 -3 62 c-5 122 -50 198 -141 239 -55 24 -225 33 -286 14z"/>
</g>
</svg>
