<?xml version="1.0" standalone="no"?>
<!DOCTYPE svg PUBLIC "-//W3C//DTD SVG 20010904//EN"
 "http://www.w3.org/TR/2001/REC-SVG-20010904/DTD/svg10.dtd">
<svg version="1.0" xmlns="http://www.w3.org/2000/svg"
 width="199.000000pt" height="100.000000pt" viewBox="0 0 199.000000 100.000000"
 preserveAspectRatio="xMidYMid meet">
<metadata>
Created by potrace 1.13, written by Peter Selinger 2001-2015
</metadata>
<g transform="translate(0.000000,100.000000) scale(0.100000,-0.100000)"
fill="#000000" stroke="none">
<path d="M880 984 c-246 -36 -454 -147 -533 -284 -20 -34 -30 -76 -43 -168
l-18 -123 -80 -40 c-142 -72 -196 -129 -196 -208 0 -54 37 -89 124 -119 147
-49 393 -51 671 -5 79 12 161 15 385 14 291 -3 350 2 560 45 88 18 205 69 226
98 8 11 14 36 14 56 -1 70 -40 92 -177 98 l-103 5 0 87 c0 180 -40 297 -131
381 -82 77 -239 142 -384 159 -85 9 -261 12 -315 4z"/>
</g>
</svg>
