<?xml version="1.0" standalone="no"?>
<!DOCTYPE svg PUBLIC "-//W3C//DTD SVG 20010904//EN"
 "http://www.w3.org/TR/2001/REC-SVG-20010904/DTD/svg10.dtd">
<svg version="1.0" xmlns="http://www.w3.org/2000/svg"
 width="158.000000pt" height="151.000000pt" viewBox="0 0 158.000000 151.000000"
 preserveAspectRatio="xMidYMid meet">
<metadata>
Created by potrace 1.13, written by Peter Selinger 2001-2015
</metadata>
<g transform="translate(0.000000,151.000000) scale(0.100000,-0.100000)"
fill="#000000" stroke="none">
<path d="M595 1489 c-223 -18 -438 -62 -462 -95 -15 -21 -17 -66 -4 -79 10
-10 37 -117 65 -253 21 -101 38 -301 34 -397 l-3 -79 -55 -11 c-128 -26 -179
-95 -150 -200 27 -98 254 -250 500 -336 86 -30 106 -33 210 -34 96 0 127 4
185 24 169 58 318 150 448 276 128 124 141 200 48 283 -27 23 -119 62 -149 62
-42 1 -43 9 -43 204 0 196 10 298 42 433 28 120 26 137 -16 157 -35 17 -91 29
-215 46 -77 11 -295 10 -435 -1z m553 -316 c-15 -16 -24 -20 -29 -12 -4 7 -15
10 -26 7 -41 -11 -64 54 -31 89 l22 23 43 -42 43 -42 -22 -23z m-527 -244 c6
-3 4 -11 -6 -19 -13 -10 -15 -9 -16 6 0 11 -4 61 -7 112 -4 50 -4 92 1 92 4 0
8 8 9 18 1 9 4 -32 5 -93 2 -60 8 -112 14 -116z m375 164 c-11 -12 -36 7 -36
29 l0 22 21 -23 c12 -12 19 -25 15 -28z m-619 -50 c-2 -16 -4 -5 -4 22 0 28 2
40 4 28 2 -13 2 -35 0 -50z m537 -9 c9 -24 7 -28 -9 -14 -17 14 -20 30 -6 30
5 0 12 -7 15 -16z m76 -8 c0 -3 -4 -8 -10 -11 -5 -3 -10 -1 -10 4 0 6 5 11 10
11 6 0 10 -2 10 -4z m-125 -53 c22 -24 33 -53 21 -53 -2 0 -11 -3 -20 -6 -13
-5 -16 1 -16 25 0 17 -4 31 -10 31 -5 0 -10 7 -10 15 0 21 6 19 35 -12z m-122
-39 c4 -4 -8 -14 -26 -23 -22 -11 -33 -24 -35 -43 -3 -24 0 -28 20 -28 27 0
51 16 65 43 9 17 10 17 27 -2 17 -18 16 -20 -11 -45 -28 -26 -34 -26 -90 -5
-33 12 -31 57 5 86 29 24 35 26 45 17z m-120 -165 c4 -16 3 -18 -9 -8 -16 13
-19 29 -5 29 5 0 11 -9 14 -21z m-134 -180 c-12 -10 -26 -16 -30 -13 -12 7
-11 34 1 34 6 0 10 7 10 17 0 14 2 14 20 -2 20 -18 20 -18 -1 -36z m-136 18
c27 -29 55 -75 50 -81 -15 -15 -40 -2 -66 35 -26 38 -28 59 -6 59 6 0 16 -6
22 -13z m264 -109 c-2 -18 -4 -4 -4 32 0 36 2 50 4 33 2 -18 2 -48 0 -65z m63
-367 c0 -16 6 -32 13 -34 7 -4 6 -6 -4 -6 -9 -1 -20 6 -23 15 -9 24 -7 54 4
54 6 0 10 -13 10 -29z"/>
</g>
</svg>
