<?xml version="1.0" standalone="no"?>
<!DOCTYPE svg PUBLIC "-//W3C//DTD SVG 20010904//EN"
 "http://www.w3.org/TR/2001/REC-SVG-20010904/DTD/svg10.dtd">
<svg version="1.0" xmlns="http://www.w3.org/2000/svg"
 width="331.000000pt" height="163.000000pt" viewBox="0 0 331.000000 163.000000"
 preserveAspectRatio="xMidYMid meet">
<metadata>
Created by potrace 1.13, written by Peter Selinger 2001-2015
</metadata>
<g transform="translate(0.000000,163.000000) scale(0.100000,-0.100000)"
fill="#000000" stroke="none">
<path d="M1230 1613 c-19 -1 -84 -8 -144 -13 -107 -11 -246 -39 -282 -58 -11
-5 -38 -12 -62 -16 -63 -9 -176 -70 -207 -110 l-26 -34 6 -336 7 -336 -43 0
c-60 -1 -243 -42 -304 -69 -72 -32 -122 -69 -146 -108 -18 -29 -20 -43 -14
-99 7 -64 8 -66 78 -138 59 -59 90 -82 168 -119 53 -26 112 -50 130 -53 19 -4
39 -10 44 -14 21 -15 161 -42 385 -75 119 -17 412 -35 581 -35 249 0 768 30
889 51 265 46 414 93 526 166 125 81 163 135 150 216 -7 39 -34 99 -48 105 -5
2 -8 9 -8 15 -1 15 -56 77 -69 77 -5 0 -11 4 -13 8 -14 34 -114 71 -248 92
-77 13 -114 26 -107 38 3 4 1 154 -3 334 -6 270 -10 330 -23 342 -26 27 -130
73 -211 95 -94 26 -294 56 -461 71 -110 9 -461 11 -545 3z m790 -113 c0 -5 -2
-10 -4 -10 -3 0 -8 5 -11 10 -3 6 -1 10 4 10 6 0 11 -4 11 -10z m-125 -10 c3
-5 2 -10 -4 -10 -5 0 -13 5 -16 10 -3 6 -2 10 4 10 5 0 13 -4 16 -10z m-993
-22 c-7 -7 -12 -20 -12 -30 0 -10 -4 -18 -10 -18 -5 0 -10 -10 -10 -21 0 -19
-4 -21 -31 -15 -17 3 -38 6 -46 6 -9 0 -5 8 11 25 14 14 32 25 41 25 8 0 15 4
15 8 0 5 10 14 23 20 29 14 33 14 19 0z m1168 2 c0 -5 -8 -10 -17 -10 -15 0
-16 2 -3 10 19 12 20 12 20 0z m-833 -6 c-3 -3 -12 -4 -19 -1 -8 3 -5 6 6 6
11 1 17 -2 13 -5z m703 -35 c11 -8 12 -12 3 -16 -26 -10 -14 -40 19 -47 17 -3
29 -9 25 -12 -3 -3 -19 -3 -36 1 -27 6 -31 11 -31 40 0 18 -6 36 -12 38 -9 4
-8 6 2 6 8 0 22 -4 30 -10z m281 -19 c11 0 39 -25 39 -34 0 -3 -14 -6 -31 -6
-28 0 -31 -3 -26 -26 2 -14 1 -22 -4 -17 -5 5 -6 33 -2 63 4 30 9 47 11 38 2
-10 8 -18 13 -18z m-1123 -18 c4 -25 -13 -30 -22 -6 -9 25 -7 36 7 32 6 -3 13
-14 15 -26z m982 9 c0 -24 -10 -51 -19 -51 -4 0 -5 16 -3 35 4 37 22 49 22 16z
m-1380 -26 c0 -8 -7 -15 -15 -15 -8 0 -15 -7 -15 -15 0 -20 -16 -19 -24 1 -13
33 -6 44 24 44 20 0 30 -5 30 -15z m319 -11 c2 -2 -12 -4 -31 -4 -20 0 -39 -6
-41 -12 -3 -7 -6 -3 -6 9 -1 20 3 21 37 16 20 -3 39 -7 41 -9z m328 10 c-3 -3
-12 -4 -19 -1 -8 3 -5 6 6 6 11 1 17 -2 13 -5z m440 -29 c-4 -8 -14 -14 -24
-14 -17 1 -17 2 0 6 9 2 17 12 17 20 0 9 3 14 6 10 4 -3 4 -13 1 -22z m70 19
c-3 -3 -12 -4 -19 -1 -8 3 -5 6 6 6 11 1 17 -2 13 -5z m-652 -14 c3 -5 1 -10
-4 -10 -6 0 -11 5 -11 10 0 6 2 10 4 10 3 0 8 -4 11 -10z m-307 -31 c11 -17 9
-19 -18 -19 -16 0 -30 4 -30 9 0 5 -10 11 -22 13 -42 6 -29 23 15 20 29 -3 47
-10 55 -23z m1152 11 c0 -5 -5 -10 -11 -10 -5 0 -7 5 -4 10 3 6 8 10 11 10 2
0 4 -4 4 -10z m-1320 -6 c0 -3 -7 -12 -15 -20 -12 -13 -15 -13 -15 -1 0 7 3
17 7 20 8 8 23 9 23 1z m523 -51 c-7 -2 -19 -2 -25 0 -7 3 -2 5 12 5 14 0 19
-2 13 -5z m417 -3 c-8 -5 -22 -9 -30 -9 -10 0 -8 3 5 9 27 12 43 12 25 0z
m-451 -39 c21 -13 1 -18 -49 -13 -43 5 -43 6 -15 13 43 10 48 10 64 0z m256
-26 c6 -2 -13 -4 -42 -4 -28 -1 -54 3 -57 8 -5 8 74 5 99 -4z m-985 -639 c0
-2 -7 -9 -15 -16 -12 -10 -15 -10 -15 4 0 9 7 16 15 16 8 0 15 -2 15 -4z
m-212 -117 c-20 -11 -24 -44 -8 -54 13 -8 13 -25 0 -25 -6 0 -13 14 -16 30 -4
17 -10 30 -15 30 -16 0 -9 18 9 23 34 9 48 7 30 -4z m132 -34 c0 -8 -3 -15 -6
-15 -3 0 -12 7 -20 15 -14 13 -13 15 5 15 12 0 21 -6 21 -15z m85 -83 c-3 -3
-11 0 -18 7 -9 10 -8 11 6 5 10 -3 15 -9 12 -12z m-125 -8 c0 -2 -7 -4 -15 -4
-8 0 -15 4 -15 10 0 5 7 7 15 4 8 -4 15 -8 15 -10z m578 -251 c-10 -2 -26 -2
-35 0 -10 3 -2 5 17 5 19 0 27 -2 18 -5z"/>
</g>
</svg>
