<?xml version="1.0" standalone="no"?>
<!DOCTYPE svg PUBLIC "-//W3C//DTD SVG 20010904//EN"
 "http://www.w3.org/TR/2001/REC-SVG-20010904/DTD/svg10.dtd">
<svg version="1.0" xmlns="http://www.w3.org/2000/svg"
 width="66.000000pt" height="77.000000pt" viewBox="0 0 66.000000 77.000000"
 preserveAspectRatio="xMidYMid meet">
<metadata>
Created by potrace 1.13, written by Peter Selinger 2001-2015
</metadata>
<g transform="translate(0.000000,77.000000) scale(0.100000,-0.100000)"
fill="#000000" stroke="none">
<path d="M187 741 c-37 -10 -77 -27 -89 -38 -20 -20 -20 -25 -9 -140 7 -65 14
-128 16 -140 4 -17 1 -20 -15 -16 -11 3 -34 0 -51 -7 l-31 -13 4 -71 c5 -89
31 -144 100 -214 73 -74 121 -94 228 -95 106 0 165 24 231 92 60 63 89 126 89
195 0 76 -12 102 -54 116 l-36 12 0 74 c0 40 6 94 12 119 17 64 0 93 -72 122
-71 29 -221 31 -323 4z"/>
</g>
</svg>
