<?xml version="1.0" standalone="no"?>
<!DOCTYPE svg PUBLIC "-//W3C//DTD SVG 20010904//EN"
 "http://www.w3.org/TR/2001/REC-SVG-20010904/DTD/svg10.dtd">
<svg version="1.0" xmlns="http://www.w3.org/2000/svg"
 width="155.000000pt" height="74.000000pt" viewBox="0 0 155.000000 74.000000"
 preserveAspectRatio="xMidYMid meet">
<metadata>
Created by potrace 1.13, written by Peter Selinger 2001-2015
</metadata>
<g transform="translate(0.000000,74.000000) scale(0.100000,-0.100000)"
fill="#000000" stroke="none">
<path d="M695 716 c-77 -18 -162 -65 -199 -110 -16 -20 -39 -66 -51 -103 -22
-66 -24 -69 -80 -97 -112 -57 -216 -179 -215 -253 1 -47 32 -96 72 -116 66
-32 151 -37 700 -37 536 0 537 0 549 21 24 45 2 89 -85 175 l-83 80 -7 91
c-15 201 -69 282 -223 335 -76 26 -290 34 -378 14z"/>
</g>
</svg>
