<?xml version="1.0" standalone="no"?>
<!DOCTYPE svg PUBLIC "-//W3C//DTD SVG 20010904//EN"
 "http://www.w3.org/TR/2001/REC-SVG-20010904/DTD/svg10.dtd">
<svg version="1.0" xmlns="http://www.w3.org/2000/svg"
 width="199.000000pt" height="87.000000pt" viewBox="0 0 199.000000 87.000000"
 preserveAspectRatio="xMidYMid meet">
<metadata>
Created by potrace 1.13, written by Peter Selinger 2001-2015
</metadata>
<g transform="translate(0.000000,87.000000) scale(0.100000,-0.100000)"
fill="#000000" stroke="none">
<path d="M816 849 c-171 -18 -376 -94 -403 -149 -8 -15 -13 -64 -13 -120 l0
-95 -72 -18 c-158 -39 -299 -135 -314 -213 -17 -91 38 -153 175 -199 147 -50
240 -56 756 -50 721 10 837 23 971 116 52 35 74 74 74 126 0 72 -67 139 -179
179 -25 9 -54 20 -63 25 -10 5 -35 9 -56 9 -21 0 -43 5 -50 12 -8 8 -12 47
-12 109 0 125 -9 150 -65 177 -63 31 -267 80 -377 92 -108 11 -259 11 -372 -1z"/>
</g>
</svg>
