<?xml version="1.0" standalone="no"?>
<!DOCTYPE svg PUBLIC "-//W3C//DTD SVG 20010904//EN"
 "http://www.w3.org/TR/2001/REC-SVG-20010904/DTD/svg10.dtd">
<svg version="1.0" xmlns="http://www.w3.org/2000/svg"
 width="143.000000pt" height="112.000000pt" viewBox="0 0 143.000000 112.000000"
 preserveAspectRatio="xMidYMid meet">
<metadata>
Created by potrace 1.13, written by Peter Selinger 2001-2015
</metadata>
<g transform="translate(0.000000,112.000000) scale(0.100000,-0.100000)"
fill="#000000" stroke="none">
<path d="M424 1090 c-83 -5 -164 -14 -179 -20 -27 -10 -28 -11 -22 -78 3 -37
13 -103 21 -147 9 -44 19 -162 22 -262 l7 -183 -71 0 c-39 0 -83 -5 -98 -10
-44 -17 -82 -69 -89 -123 -35 -252 312 -340 735 -187 113 41 116 41 182 31 97
-16 264 -14 322 4 127 39 192 128 166 226 -19 70 -66 99 -161 99 l-62 0 7 228
c3 125 10 247 16 272 5 25 9 66 10 91 l0 46 -47 7 c-84 11 -602 15 -759 6z
m313 -157 c-3 -10 -5 -4 -5 12 0 17 2 24 5 18 2 -7 2 -21 0 -30z m6 -73 c3
-11 1 -18 -4 -14 -5 3 -9 12 -9 20 0 20 7 17 13 -6z m-91 -142 c3 -27 2 -48
-3 -48 -5 0 -9 23 -9 52 0 62 5 60 12 -4z m98 32 c0 -5 -4 -10 -10 -10 -5 0
-10 5 -10 10 0 6 5 10 10 10 6 0 10 -4 10 -10z m0 -59 c0 -6 -4 -13 -10 -16
-5 -3 -10 1 -10 9 0 9 5 16 10 16 6 0 10 -4 10 -9z m-13 -263 c-3 -8 -6 -5 -6
6 -1 11 2 17 5 13 3 -3 4 -12 1 -19z m-5 -80 c-9 -9 -12 -7 -12 12 0 19 3 21
12 12 9 -9 9 -15 0 -24z"/>
</g>
</svg>
