<?xml version="1.0" standalone="no"?>
<!DOCTYPE svg PUBLIC "-//W3C//DTD SVG 20010904//EN"
 "http://www.w3.org/TR/2001/REC-SVG-20010904/DTD/svg10.dtd">
<svg version="1.0" xmlns="http://www.w3.org/2000/svg"
 width="50.000000pt" height="48.000000pt" viewBox="0 0 50.000000 48.000000"
 preserveAspectRatio="xMidYMid meet">
<metadata>
Created by potrace 1.13, written by Peter Selinger 2001-2015
</metadata>
<g transform="translate(0.000000,48.000000) scale(0.100000,-0.100000)"
fill="#000000" stroke="none">
<path d="M130 461 l-45 -6 3 -107 4 -107 -34 -17 c-39 -20 -48 -31 -48 -61 0
-31 27 -36 101 -18 75 17 168 19 273 5 87 -13 119 -3 114 33 -3 19 -40 46 -83
60 -6 2 -9 46 -7 109 l3 105 -32 7 c-37 7 -185 6 -249 -3z"/>
</g>
</svg>
