<?xml version="1.0" standalone="no"?>
<!DOCTYPE svg PUBLIC "-//W3C//DTD SVG 20010904//EN"
 "http://www.w3.org/TR/2001/REC-SVG-20010904/DTD/svg10.dtd">
<svg version="1.0" xmlns="http://www.w3.org/2000/svg"
 width="251.000000pt" height="216.000000pt" viewBox="0 0 251.000000 216.000000"
 preserveAspectRatio="xMidYMid meet">
<metadata>
Created by potrace 1.13, written by Peter Selinger 2001-2015
</metadata>
<g transform="translate(0.000000,216.000000) scale(0.100000,-0.100000)"
fill="#000000" stroke="none">
<path d="M931 1919 c-106 -5 -266 -15 -354 -24 -88 -8 -169 -15 -179 -15 -24
0 -23 -19 6 -165 30 -146 54 -309 63 -430 7 -105 6 -403 -2 -456 l-6 -37 -87
-5 c-183 -12 -250 -41 -293 -127 -27 -56 -38 -188 -19 -246 13 -38 76 -134 88
-134 4 0 23 -14 42 -30 117 -100 431 -134 697 -74 37 8 87 19 110 24 100 22
231 58 278 79 110 48 137 50 344 26 249 -30 484 -2 596 72 134 88 183 238 116
357 -42 75 -79 91 -218 91 -111 0 -112 0 -118 25 -3 14 -8 135 -11 270 -7 253
4 416 43 653 10 66 12 102 5 109 -5 5 -61 14 -123 19 -63 5 -157 13 -209 18
-123 11 -522 11 -769 0z m320 -56 c5 -58 3 -143 -3 -143 -5 0 -8 -9 -8 -20 0
-11 3 -20 8 -20 4 0 7 -20 7 -45 0 -25 -3 -45 -7 -45 -13 0 -9 -38 5 -44 10
-5 10 -7 0 -12 -14 -6 -18 -44 -5 -44 10 0 10 -134 -1 -141 -5 -3 -4 -28 1
-58 5 -28 7 -51 3 -51 -3 0 -6 -124 -6 -276 0 -266 -6 -344 -19 -253 -8 62 -9
348 -1 387 5 21 4 32 -4 32 -6 0 -11 17 -11 40 0 22 5 40 10 40 14 0 13 37 -1
42 -9 3 -9 9 0 25 15 29 14 110 -1 117 -10 5 -10 7 0 12 6 3 12 14 12 25 0 10
-6 19 -12 20 -10 0 -10 2 0 6 6 2 12 20 12 39 0 25 -4 34 -17 35 -17 1 -17 2
0 6 12 3 17 15 17 44 0 30 -4 39 -17 40 -16 1 -16 2 0 6 16 4 18 12 14 51 -17
142 -18 172 -8 172 6 0 11 7 11 15 0 21 20 19 21 -2z m-160 -53 c5 0 9 -11 9
-25 0 -14 -4 -25 -10 -25 -5 0 -10 -9 -10 -20 0 -11 5 -20 10 -20 15 0 12 -69
-4 -85 -11 -12 -14 -1 -18 68 -5 86 4 205 10 140 2 -18 7 -33 13 -33z m9 -220
c0 -5 -4 -10 -10 -10 -15 0 -12 -67 3 -74 10 -5 10 -7 0 -12 -15 -7 -18 -84
-3 -84 6 0 10 -7 10 -15 0 -8 -4 -15 -10 -15 -15 0 -12 -40 3 -41 10 0 10 -2
0 -6 -19 -7 -19 -323 0 -324 9 0 9 -2 0 -5 -9 -4 -11 -48 -6 -177 4 -129 3
-169 -6 -161 -12 11 -17 886 -5 918 7 18 24 22 24 6z"/>
</g>
</svg>
