<?xml version="1.0" standalone="no"?>
<!DOCTYPE svg PUBLIC "-//W3C//DTD SVG 20010904//EN"
 "http://www.w3.org/TR/2001/REC-SVG-20010904/DTD/svg10.dtd">
<svg version="1.0" xmlns="http://www.w3.org/2000/svg"
 width="275.000000pt" height="256.000000pt" viewBox="0 0 275.000000 256.000000"
 preserveAspectRatio="xMidYMid meet">
<metadata>
Created by potrace 1.13, written by Peter Selinger 2001-2015
</metadata>
<g transform="translate(0.000000,256.000000) scale(0.100000,-0.100000)"
fill="#000000" stroke="none">
<path d="M1255 2470 c-55 -5 -163 -14 -240 -20 -232 -18 -408 -52 -548 -107
-50 -20 -66 -30 -63 -42 3 -9 23 -97 45 -196 38 -171 61 -347 65 -500 2 -38 5
-108 9 -155 4 -47 10 -156 13 -242 6 -177 11 -165 -81 -187 -108 -27 -183 -81
-271 -196 l-46 -60 4 -117 4 -117 40 -58 c54 -79 171 -201 214 -223 19 -10 44
-28 55 -40 11 -13 63 -43 115 -67 52 -24 111 -55 131 -69 25 -17 58 -27 116
-34 45 -6 103 -17 130 -25 69 -21 574 -21 688 0 259 47 315 60 357 81 26 13
55 24 65 24 9 0 34 11 55 25 21 14 57 37 81 52 23 14 53 34 67 43 14 10 43 26
65 38 50 25 166 144 192 197 11 22 30 87 43 144 26 118 23 196 -10 261 -36 71
-184 151 -310 169 -39 5 -75 13 -78 16 -4 4 -7 190 -6 413 0 333 4 431 18 537
29 208 32 227 53 288 l21 58 -36 14 c-66 28 -277 74 -387 84 -163 16 -456 21
-570 11z"/>
</g>
</svg>
