<?xml version="1.0" standalone="no"?>
<!DOCTYPE svg PUBLIC "-//W3C//DTD SVG 20010904//EN"
 "http://www.w3.org/TR/2001/REC-SVG-20010904/DTD/svg10.dtd">
<svg version="1.0" xmlns="http://www.w3.org/2000/svg"
 width="477.000000pt" height="286.000000pt" viewBox="0 0 477.000000 286.000000"
 preserveAspectRatio="xMidYMid meet">
<metadata>
Created by potrace 1.13, written by Peter Selinger 2001-2015
</metadata>
<g transform="translate(0.000000,286.000000) scale(0.100000,-0.100000)"
fill="#000000" stroke="none">
<path d="M1805 2793 c-375 -13 -763 -59 -885 -106 -101 -38 -103 -46 -82 -272
20 -203 20 -203 28 -510 9 -383 -21 -1222 -45 -1248 -4 -4 -61 -28 -125 -52
-157 -60 -360 -166 -422 -220 -7 -5 -25 -19 -40 -30 -73 -51 -148 -127 -196
-199 -53 -78 -31 -156 45 -156 31 0 158 34 317 85 58 18 170 47 250 64 80 18
163 36 185 41 47 11 332 65 420 79 88 15 398 49 560 61 77 6 190 15 250 20
346 29 501 25 955 -25 118 -13 235 -26 260 -28 25 -3 83 -12 130 -20 47 -9
164 -30 260 -47 96 -16 216 -39 265 -50 224 -50 291 -62 475 -90 114 -16 303
-23 333 -11 22 9 27 17 27 45 0 35 -18 86 -30 86 -3 0 -19 12 -36 28 -66 62
-231 182 -251 182 -6 0 -13 4 -15 9 -4 12 -261 139 -363 180 -131 53 -148 63
-157 96 -16 64 -55 595 -55 750 0 17 -1 129 -2 250 -2 265 14 706 29 834 7 51
8 97 3 101 -4 5 -42 22 -83 38 -81 32 -257 63 -465 82 -335 30 -1131 47 -1540
33z m-136 -1680 c-1 -43 -4 -65 -6 -48 -3 16 -10 33 -16 37 -9 6 -9 8 1 8 7 0
12 15 12 40 0 22 2 40 5 40 3 0 4 -35 4 -77z m-7 -263 c-3 -107 -16 -146 -24
-75 -2 19 0 35 4 35 4 0 8 31 8 68 0 56 5 82 14 82 1 0 0 -49 -2 -110z"/>
</g>
</svg>
