<?xml version="1.0" standalone="no"?>
<!DOCTYPE svg PUBLIC "-//W3C//DTD SVG 20010904//EN"
 "http://www.w3.org/TR/2001/REC-SVG-20010904/DTD/svg10.dtd">
<svg version="1.0" xmlns="http://www.w3.org/2000/svg"
 width="303.000000pt" height="174.000000pt" viewBox="0 0 303.000000 174.000000"
 preserveAspectRatio="xMidYMid meet">
<metadata>
Created by potrace 1.13, written by Peter Selinger 2001-2015
</metadata>
<g transform="translate(0.000000,174.000000) scale(0.100000,-0.100000)"
fill="#000000" stroke="none">
<path d="M1466 1723 c-3 -4 -56 -17 -191 -48 -432 -100 -447 -105 -545 -189
-93 -79 -102 -122 -94 -452 l7 -253 -159 0 c-359 1 -467 -45 -468 -195 -1 -77
32 -140 113 -220 190 -190 411 -267 979 -342 158 -21 593 -30 761 -15 367 33
751 141 968 272 56 33 136 117 167 172 30 55 34 121 12 205 -28 104 -79 155
-206 205 -113 44 -214 63 -396 76 -61 5 -117 11 -123 15 -6 4 -11 26 -11 49
-1 23 -5 62 -10 87 -6 25 -14 65 -19 90 -34 170 -98 310 -175 382 -58 56 -201
130 -291 152 -52 13 -308 20 -319 9z"/>
</g>
</svg>
