<?xml version="1.0" standalone="no"?>
<!DOCTYPE svg PUBLIC "-//W3C//DTD SVG 20010904//EN"
 "http://www.w3.org/TR/2001/REC-SVG-20010904/DTD/svg10.dtd">
<svg version="1.0" xmlns="http://www.w3.org/2000/svg"
 width="275.000000pt" height="256.000000pt" viewBox="0 0 275.000000 256.000000"
 preserveAspectRatio="xMidYMid meet">
<metadata>
Created by potrace 1.13, written by Peter Selinger 2001-2015
</metadata>
<g transform="translate(0.000000,256.000000) scale(0.100000,-0.100000)"
fill="#000000" stroke="none">
<path d="M1260 2470 c-52 -5 -160 -14 -240 -20 -249 -18 -428 -55 -576 -117
-99 -41 -99 -40 -58 -179 80 -275 87 -308 113 -474 17 -106 30 -274 36 -457 6
-195 12 -180 -80 -202 -146 -36 -272 -153 -291 -271 -8 -47 18 -148 51 -200
51 -81 187 -198 310 -266 11 -6 49 -28 85 -48 213 -122 475 -210 680 -231 233
-23 647 135 916 351 34 27 79 62 99 79 40 31 130 119 178 174 104 118 103 257
-2 340 -60 47 -158 88 -240 100 -40 5 -76 13 -79 16 -12 11 -6 524 7 650 13
128 23 191 48 295 8 36 19 85 23 110 5 25 15 77 24 115 22 93 16 111 -40 135
-74 32 -281 78 -399 89 -161 16 -456 21 -565 11z m-253 -1007 c-2 -16 -4 -3
-4 27 0 30 2 43 4 28 2 -16 2 -40 0 -55z m23 -83 c0 -5 -4 -10 -10 -10 -5 0
-10 5 -10 10 0 6 5 10 10 10 6 0 10 -4 10 -10z m-23 -62 c-3 -8 -6 -5 -6 6 -1
11 2 17 5 13 3 -3 4 -12 1 -19z m1 -348 c-3 -93 -2 -171 2 -172 5 -2 2 -9 -6
-16 -12 -11 -14 1 -14 81 0 109 11 277 18 277 2 0 2 -76 0 -170z"/>
</g>
</svg>
