<?xml version="1.0" standalone="no"?>
<!DOCTYPE svg PUBLIC "-//W3C//DTD SVG 20010904//EN"
 "http://www.w3.org/TR/2001/REC-SVG-20010904/DTD/svg10.dtd">
<svg version="1.0" xmlns="http://www.w3.org/2000/svg"
 width="254.000000pt" height="142.000000pt" viewBox="0 0 254.000000 142.000000"
 preserveAspectRatio="xMidYMid meet">
<metadata>
Created by potrace 1.13, written by Peter Selinger 2001-2015
</metadata>
<g transform="translate(0.000000,142.000000) scale(0.100000,-0.100000)"
fill="#000000" stroke="none">
<path d="M985 1400 c-186 -20 -341 -85 -427 -180 -78 -84 -93 -142 -108 -398
-5 -95 -12 -177 -15 -182 -3 -6 -21 -10 -40 -10 -96 0 -282 -60 -337 -109 -35
-32 -40 -43 -45 -92 -8 -83 17 -118 122 -169 244 -117 733 -158 1535 -131 267
10 481 35 669 79 164 38 201 68 201 164 0 69 -13 94 -76 147 -25 21 -175 69
-280 88 l-94 17 -1 106 c-1 58 -1 107 -1 110 0 3 -4 58 -8 122 -11 150 -42
224 -122 286 -105 80 -189 112 -363 137 -128 19 -494 28 -610 15z"/>
</g>
</svg>
