<?xml version="1.0" standalone="no"?>
<!DOCTYPE svg PUBLIC "-//W3C//DTD SVG 20010904//EN"
 "http://www.w3.org/TR/2001/REC-SVG-20010904/DTD/svg10.dtd">
<svg version="1.0" xmlns="http://www.w3.org/2000/svg"
 width="250.000000pt" height="148.000000pt" viewBox="0 0 250.000000 148.000000"
 preserveAspectRatio="xMidYMid meet">
<metadata>
Created by potrace 1.13, written by Peter Selinger 2001-2015
</metadata>
<g transform="translate(0.000000,148.000000) scale(0.100000,-0.100000)"
fill="#000000" stroke="none">
<path d="M1090 1464 c-14 -2 -57 -9 -96 -15 -175 -25 -322 -113 -448 -269 -52
-65 -95 -268 -90 -426 l4 -101 -79 -27 c-151 -53 -290 -154 -336 -247 -53
-104 -37 -265 31 -327 45 -40 74 -52 132 -52 112 0 173 18 357 105 28 13 97
38 155 56 58 18 115 37 127 42 44 20 365 -9 581 -52 59 -12 237 -54 322 -76
182 -47 319 -58 441 -35 110 20 273 127 299 196 14 35 13 143 -1 185 -30 88
-112 149 -201 149 -29 0 -66 -7 -82 -15 -16 -9 -30 -14 -32 -12 -2 2 -4 50 -5
107 -1 153 -15 340 -29 391 -22 82 -79 183 -134 242 -30 31 -59 57 -64 57 -5
0 -25 11 -44 24 -51 34 -261 84 -403 96 -114 9 -352 11 -405 4z"/>
</g>
</svg>
