<?xml version="1.0" standalone="no"?>
<!DOCTYPE svg PUBLIC "-//W3C//DTD SVG 20010904//EN"
 "http://www.w3.org/TR/2001/REC-SVG-20010904/DTD/svg10.dtd">
<svg version="1.0" xmlns="http://www.w3.org/2000/svg"
 width="201.000000pt" height="146.000000pt" viewBox="0 0 201.000000 146.000000"
 preserveAspectRatio="xMidYMid meet">
<metadata>
Created by potrace 1.13, written by Peter Selinger 2001-2015
</metadata>
<g transform="translate(0.000000,146.000000) scale(0.100000,-0.100000)"
fill="#000000" stroke="none">
<path d="M780 1440 c-162 -20 -272 -50 -377 -101 -115 -56 -118 -62 -87 -144
29 -79 44 -214 45 -400 0 -101 -2 -200 -5 -219 -3 -20 -8 -51 -11 -70 -5 -30
-15 -41 -73 -77 -93 -58 -192 -161 -228 -234 -32 -66 -40 -153 -16 -177 30
-30 202 -8 437 56 146 40 281 64 425 76 119 9 151 8 270 -9 135 -20 360 -63
520 -101 54 -12 121 -20 185 -20 l100 0 23 35 c19 26 22 41 17 67 -8 40 -45
99 -99 157 -38 40 -165 141 -211 167 -25 14 -31 52 -39 269 -7 184 4 371 29
475 28 115 29 133 8 152 -61 55 -325 97 -643 103 -107 2 -229 0 -270 -5z m403
-400 c2 -52 1 -86 -3 -74 -7 18 -15 154 -10 179 4 23 9 -14 13 -105z m12 -237
c3 -13 12 -23 19 -23 11 0 15 -35 21 -160 6 -126 10 -160 21 -160 8 0 14 -8
14 -19 0 -15 -10 -19 -52 -25 -73 -8 -88 -8 -88 4 0 6 7 10 15 10 13 0 15 20
15 120 0 102 2 120 16 120 13 0 15 16 11 118 -3 64 -3 99 -1 77 3 -22 7 -50 9
-62z"/>
</g>
</svg>
