<?xml version="1.0" standalone="no"?>
<!DOCTYPE svg PUBLIC "-//W3C//DTD SVG 20010904//EN"
 "http://www.w3.org/TR/2001/REC-SVG-20010904/DTD/svg10.dtd">
<svg version="1.0" xmlns="http://www.w3.org/2000/svg"
 width="209.000000pt" height="140.000000pt" viewBox="0 0 209.000000 140.000000"
 preserveAspectRatio="xMidYMid meet">
<metadata>
Created by potrace 1.13, written by Peter Selinger 2001-2015
</metadata>
<g transform="translate(0.000000,140.000000) scale(0.100000,-0.100000)"
fill="#000000" stroke="none">
<path d="M905 1383 c-243 -12 -464 -56 -542 -107 -60 -39 -74 -79 -83 -249 -5
-84 -9 -213 -10 -288 0 -75 -3 -170 -6 -212 l-7 -77 -61 0 c-122 0 -186 -50
-186 -146 0 -65 25 -109 93 -164 58 -47 119 -74 252 -112 70 -19 103 -22 260
-22 137 1 199 5 260 19 93 21 87 21 190 5 114 -17 400 -18 520 -1 243 34 430
130 480 248 22 50 23 130 2 170 -20 39 -91 68 -190 78 -57 6 -67 10 -67 27 0
21 -23 309 -40 498 -15 165 -25 202 -67 244 -47 46 -129 73 -268 86 -100 9
-380 11 -530 3z"/>
</g>
</svg>
