<?xml version="1.0" standalone="no"?>
<!DOCTYPE svg PUBLIC "-//W3C//DTD SVG 20010904//EN"
 "http://www.w3.org/TR/2001/REC-SVG-20010904/DTD/svg10.dtd">
<svg version="1.0" xmlns="http://www.w3.org/2000/svg"
 width="194.000000pt" height="331.000000pt" viewBox="0 0 194.000000 331.000000"
 preserveAspectRatio="xMidYMid meet">
<metadata>
Created by potrace 1.13, written by Peter Selinger 2001-2015
</metadata>
<g transform="translate(0.000000,331.000000) scale(0.100000,-0.100000)"
fill="#000000" stroke="none">
<path d="M7 3303 c-7 -12 49 -3292 56 -3299 9 -9 292 16 417 37 431 73 783
250 1035 521 108 116 120 138 119 222 -1 39 -13 128 -28 197 -50 241 -42 266
144 449 174 170 185 191 184 325 -3 230 -77 467 -219 701 -64 104 -109 162
-218 273 -240 244 -557 419 -922 510 -188 47 -554 88 -568 64z"/>
</g>
</svg>
