<?xml version="1.0" standalone="no"?>
<!DOCTYPE svg PUBLIC "-//W3C//DTD SVG 20010904//EN"
 "http://www.w3.org/TR/2001/REC-SVG-20010904/DTD/svg10.dtd">
<svg version="1.0" xmlns="http://www.w3.org/2000/svg"
 width="194.000000pt" height="331.000000pt" viewBox="0 0 194.000000 331.000000"
 preserveAspectRatio="xMidYMid meet">
<metadata>
Created by potrace 1.13, written by Peter Selinger 2001-2015
</metadata>
<g transform="translate(0.000000,331.000000) scale(0.100000,-0.100000)"
fill="#000000" stroke="none">
<path d="M6 3302 c-5 -8 12 -1071 18 -1088 2 -6 84 -46 182 -88 99 -43 180
-79 181 -80 2 -1 -77 -157 -175 -347 l-177 -344 11 -672 c5 -370 13 -675 16
-679 10 -9 291 15 418 37 601 102 1045 406 1279 876 96 192 150 399 171 653
28 320 -40 597 -215 886 -64 104 -109 162 -218 273 -153 156 -307 264 -522
367 -241 115 -483 178 -780 204 -145 12 -182 12 -189 2z"/>
</g>
</svg>
