<?xml version="1.0" standalone="no"?>
<!DOCTYPE svg PUBLIC "-//W3C//DTD SVG 20010904//EN"
 "http://www.w3.org/TR/2001/REC-SVG-20010904/DTD/svg10.dtd">
<svg version="1.0" xmlns="http://www.w3.org/2000/svg"
 width="194.000000pt" height="331.000000pt" viewBox="0 0 194.000000 331.000000"
 preserveAspectRatio="xMidYMid meet">
<metadata>
Created by potrace 1.13, written by Peter Selinger 2001-2015
</metadata>
<g transform="translate(0.000000,331.000000) scale(0.100000,-0.100000)"
fill="#000000" stroke="none">
<path d="M7 3303 c-7 -12 49 -3292 56 -3299 9 -9 292 16 417 37 601 102 1045
406 1279 876 97 195 151 403 172 662 24 298 -47 608 -197 848 -57 92 -60 95
-104 118 -28 15 -49 16 -124 11 -260 -19 -295 -19 -341 -2 -57 22 -94 77 -129
193 -92 304 -95 312 -144 362 -40 42 -60 53 -142 79 -189 62 -350 94 -555 112
-144 12 -182 12 -188 3z"/>
</g>
</svg>
