<?xml version="1.0" standalone="no"?>
<!DOCTYPE svg PUBLIC "-//W3C//DTD SVG 20010904//EN"
 "http://www.w3.org/TR/2001/REC-SVG-20010904/DTD/svg10.dtd">
<svg version="1.0" xmlns="http://www.w3.org/2000/svg"
 width="191.000000pt" height="362.000000pt" viewBox="0 0 191.000000 362.000000"
 preserveAspectRatio="xMidYMid meet">
<metadata>
Created by potrace 1.13, written by Peter Selinger 2001-2015
</metadata>
<g transform="translate(0.000000,362.000000) scale(0.100000,-0.100000)"
fill="#000000" stroke="none">
<path d="M397 3613 c-3 -5 -93 -430 -200 -944 l-195 -934 14 -780 c7 -429 13
-820 14 -868 l0 -89 103 7 c586 37 1032 218 1340 545 252 268 390 594 427
1015 40 441 -120 862 -450 1183 -36 35 -85 80 -110 100 -129 106 -194 181
-335 388 -171 252 -315 352 -541 379 -34 4 -64 3 -67 -2z"/>
</g>
</svg>
