<?xml version="1.0" standalone="no"?>
<!DOCTYPE svg PUBLIC "-//W3C//DTD SVG 20010904//EN"
 "http://www.w3.org/TR/2001/REC-SVG-20010904/DTD/svg10.dtd">
<svg version="1.0" xmlns="http://www.w3.org/2000/svg"
 width="221.000000pt" height="331.000000pt" viewBox="0 0 221.000000 331.000000"
 preserveAspectRatio="xMidYMid meet">
<metadata>
Created by potrace 1.13, written by Peter Selinger 2001-2015
</metadata>
<g transform="translate(0.000000,331.000000) scale(0.100000,-0.100000)"
fill="#000000" stroke="none">
<path d="M7 3303 c-7 -11 48 -3291 55 -3299 4 -3 75 0 160 6 477 35 895 167
1234 388 120 78 134 89 226 170 333 290 520 699 522 1137 0 177 -29 305 -108
470 -89 187 -177 306 -338 460 -410 394 -985 628 -1644 670 -56 4 -104 3 -107
-2z"/>
</g>
</svg>
