<?xml version="1.0" standalone="no"?>
<!DOCTYPE svg PUBLIC "-//W3C//DTD SVG 20010904//EN"
 "http://www.w3.org/TR/2001/REC-SVG-20010904/DTD/svg10.dtd">
<svg version="1.0" xmlns="http://www.w3.org/2000/svg"
 width="185.000000pt" height="332.000000pt" viewBox="0 0 185.000000 332.000000"
 preserveAspectRatio="xMidYMid meet">
<metadata>
Created by potrace 1.13, written by Peter Selinger 2001-2015
</metadata>
<g transform="translate(0.000000,332.000000) scale(0.100000,-0.100000)"
fill="#000000" stroke="none">
<path d="M280 3313 c-145 -2 -267 -7 -271 -11 -5 -5 45 -3277 50 -3300 1 -6
118 8 209 24 364 65 714 323 1004 739 56 80 64 93 146 240 257 457 424 1077
425 1580 1 142 -3 184 -21 257 -91 369 -353 484 -1082 476 -107 -2 -314 -4
-460 -5z"/>
</g>
</svg>
