<?xml version="1.0" standalone="no"?>
<!DOCTYPE svg PUBLIC "-//W3C//DTD SVG 20010904//EN"
 "http://www.w3.org/TR/2001/REC-SVG-20010904/DTD/svg10.dtd">
<svg version="1.0" xmlns="http://www.w3.org/2000/svg"
 width="194.000000pt" height="331.000000pt" viewBox="0 0 194.000000 331.000000"
 preserveAspectRatio="xMidYMid meet">
<metadata>
Created by potrace 1.13, written by Peter Selinger 2001-2015
</metadata>
<g transform="translate(0.000000,331.000000) scale(0.100000,-0.100000)"
fill="#000000" stroke="none">
<path d="M9 3306 c-3 -3 46 -181 109 -396 l115 -390 -102 -392 -102 -391 153
-455 153 -455 -139 -409 c-76 -225 -136 -412 -133 -414 9 -9 296 16 417 37
298 50 561 152 785 303 117 79 302 263 383 383 190 280 284 599 285 973 0 184
-17 295 -74 457 -184 527 -668 933 -1294 1083 -169 41 -537 85 -556 66z"/>
</g>
</svg>
