<?xml version="1.0" standalone="no"?>
<!DOCTYPE svg PUBLIC "-//W3C//DTD SVG 20010904//EN"
 "http://www.w3.org/TR/2001/REC-SVG-20010904/DTD/svg10.dtd">
<svg version="1.0" xmlns="http://www.w3.org/2000/svg"
 width="194.000000pt" height="331.000000pt" viewBox="0 0 194.000000 331.000000"
 preserveAspectRatio="xMidYMid meet">
<metadata>
Created by potrace 1.13, written by Peter Selinger 2001-2015
</metadata>
<g transform="translate(0.000000,331.000000) scale(0.100000,-0.100000)"
fill="#000000" stroke="none">
<path d="M7 3303 c-7 -11 48 -3292 56 -3299 9 -9 292 16 417 37 601 102 1045
406 1279 876 97 195 151 403 172 662 32 389 -92 763 -352 1061 -85 97 -213
218 -272 255 -47 29 -129 25 -252 -15 -57 -18 -133 -34 -175 -37 -68 -5 -81
-3 -140 24 -61 28 -158 101 -340 254 -86 73 -195 141 -260 162 -62 20 -127 30
-133 20z"/>
</g>
</svg>
