<?xml version="1.0" standalone="no"?>
<!DOCTYPE svg PUBLIC "-//W3C//DTD SVG 20010904//EN"
 "http://www.w3.org/TR/2001/REC-SVG-20010904/DTD/svg10.dtd">
<svg version="1.0" xmlns="http://www.w3.org/2000/svg"
 width="464.000000pt" height="384.000000pt" viewBox="0 0 464.000000 384.000000"
 preserveAspectRatio="xMidYMid meet">
<metadata>
Created by potrace 1.13, written by Peter Selinger 2001-2015
</metadata>
<g transform="translate(0.000000,384.000000) scale(0.100000,-0.100000)"
fill="#000000" stroke="none">
<path d="M728 3830 c-211 -36 -365 -131 -471 -293 -336 -509 -339 -1181 -9
-1647 94 -132 214 -247 318 -306 141 -79 265 -115 585 -169 341 -57 444 -87
548 -157 126 -85 201 -223 325 -598 119 -360 157 -444 270 -598 l46 -62 117
88 c139 105 329 230 520 343 584 347 709 432 923 634 459 434 678 827 731
1310 32 296 -42 622 -195 862 -60 96 -255 260 -408 345 -250 138 -526 194
-715 145 -293 -76 -536 -347 -817 -907 -62 -124 -122 -247 -133 -275 l-21 -50
-141 287 c-208 425 -287 554 -416 683 -172 171 -463 317 -719 360 -93 16 -259
18 -338 5z"/>
</g>
</svg>
