<?xml version="1.0" standalone="no"?>
<!DOCTYPE svg PUBLIC "-//W3C//DTD SVG 20010904//EN"
 "http://www.w3.org/TR/2001/REC-SVG-20010904/DTD/svg10.dtd">
<svg version="1.0" xmlns="http://www.w3.org/2000/svg"
 width="446.000000pt" height="380.000000pt" viewBox="0 0 446.000000 380.000000"
 preserveAspectRatio="xMidYMid meet">
<metadata>
Created by potrace 1.13, written by Peter Selinger 2001-2015
</metadata>
<g transform="translate(0.000000,380.000000) scale(0.100000,-0.100000)"
fill="#000000" stroke="none">
<path d="M1008 3786 c-20 -7 -60 -28 -88 -46 -50 -32 -198 -188 -275 -289 -22
-29 -45 -58 -51 -65 -36 -38 -273 -371 -333 -466 -276 -440 -329 -787 -164
-1065 62 -104 444 -472 748 -720 61 -49 112 -92 115 -95 3 -3 131 -105 285
-226 414 -324 579 -466 810 -700 l110 -112 105 81 c150 115 396 276 573 376
295 165 574 350 767 505 171 139 433 427 557 615 109 165 205 389 248 579 80
358 48 668 -102 972 -52 105 -65 124 -159 217 -199 198 -474 343 -727 383
-119 19 -267 9 -351 -25 -73 -29 -172 -82 -214 -116 -129 -100 -266 -273 -421
-531 -44 -74 -211 -408 -262 -527 l-15 -34 -36 64 c-20 35 -69 134 -109 219
-114 241 -215 426 -289 530 -71 100 -181 212 -253 256 -23 15 -63 44 -88 65
-163 136 -293 188 -381 155z"/>
</g>
</svg>
