<?xml version="1.0" standalone="no"?>
<!DOCTYPE svg PUBLIC "-//W3C//DTD SVG 20010904//EN"
 "http://www.w3.org/TR/2001/REC-SVG-20010904/DTD/svg10.dtd">
<svg version="1.0" xmlns="http://www.w3.org/2000/svg"
 width="447.000000pt" height="384.000000pt" viewBox="0 0 447.000000 384.000000"
 preserveAspectRatio="xMidYMid meet">
<metadata>
Created by potrace 1.13, written by Peter Selinger 2001-2015
</metadata>
<g transform="translate(0.000000,384.000000) scale(0.100000,-0.100000)"
fill="#000000" stroke="none">
<path d="M528 3825 c-336 -64 -554 -329 -523 -637 30 -313 232 -641 694 -1127
75 -79 140 -150 145 -159 5 -8 6 -43 3 -77 -4 -52 -14 -81 -57 -162 -129 -239
-140 -263 -140 -307 0 -39 5 -48 48 -87 75 -70 271 -232 473 -389 472 -369
630 -504 858 -733 l145 -146 60 48 c165 130 382 273 661 436 408 238 595 366
798 543 87 76 230 224 280 290 12 15 24 29 27 32 3 3 33 39 67 80 315 387 461
909 378 1349 -40 207 -143 433 -249 542 -270 280 -682 456 -976 419 -89 -12
-125 -23 -204 -62 -111 -56 -144 -120 -165 -323 -55 -506 -50 -489 -246 -780
-274 -406 -351 -522 -380 -578 -16 -31 -32 -57 -35 -57 -3 0 -16 17 -30 38
-31 46 -161 218 -253 335 -101 129 -245 325 -275 376 -47 81 -54 127 -62 436
-9 383 -13 394 -160 494 -140 96 -254 145 -441 191 -112 28 -334 35 -441 15z"/>
</g>
</svg>
