<?xml version="1.0" standalone="no"?>
<!DOCTYPE svg PUBLIC "-//W3C//DTD SVG 20010904//EN"
 "http://www.w3.org/TR/2001/REC-SVG-20010904/DTD/svg10.dtd">
<svg version="1.0" xmlns="http://www.w3.org/2000/svg"
 width="464.000000pt" height="343.000000pt" viewBox="0 0 464.000000 343.000000"
 preserveAspectRatio="xMidYMid meet">
<metadata>
Created by potrace 1.13, written by Peter Selinger 2001-2015
</metadata>
<g transform="translate(0.000000,343.000000) scale(0.100000,-0.100000)"
fill="#000000" stroke="none">
<path d="M728 3420 c-213 -36 -365 -131 -474 -297 -166 -252 -247 -527 -248
-843 0 -374 117 -684 355 -937 147 -156 301 -286 465 -393 172 -112 335 -191
744 -360 400 -165 601 -289 834 -511 70 -67 82 -75 94 -62 8 8 27 22 41 31 14
9 44 31 67 48 65 49 250 148 359 192 55 22 168 61 250 87 397 123 521 178 687
303 130 97 329 317 438 482 118 180 200 366 249 568 90 367 54 705 -106 1014
-43 83 -71 123 -130 182 -243 247 -587 407 -873 409 -136 0 -197 -16 -358 -97
-396 -199 -587 -370 -734 -659 l-45 -89 -31 56 c-136 239 -316 416 -594 581
-62 37 -129 80 -148 95 -97 75 -327 164 -504 195 -93 16 -258 18 -338 5z"/>
</g>
</svg>
