<?xml version="1.0" standalone="no"?>
<!DOCTYPE svg PUBLIC "-//W3C//DTD SVG 20010904//EN"
 "http://www.w3.org/TR/2001/REC-SVG-20010904/DTD/svg10.dtd">
<svg version="1.0" xmlns="http://www.w3.org/2000/svg"
 width="464.000000pt" height="318.000000pt" viewBox="0 0 464.000000 318.000000"
 preserveAspectRatio="xMidYMid meet">
<metadata>
Created by potrace 1.13, written by Peter Selinger 2001-2015
</metadata>
<g transform="translate(0.000000,318.000000) scale(0.100000,-0.100000)"
fill="#000000" stroke="none">
<path d="M722 3169 c-202 -34 -361 -133 -465 -292 -113 -171 -180 -334 -224
-546 -34 -163 -38 -411 -9 -561 40 -205 119 -393 229 -545 60 -83 249 -278
327 -338 30 -23 57 -45 60 -48 13 -17 188 -123 267 -163 115 -57 249 -104 465
-161 342 -90 488 -147 647 -252 96 -63 230 -173 276 -226 l30 -34 60 42 c236
166 437 226 870 255 346 24 514 70 694 188 113 75 284 262 400 437 194 293
306 687 287 1010 -18 297 -127 580 -285 743 -174 177 -434 325 -677 383 -112
27 -272 30 -361 6 -237 -63 -443 -253 -657 -609 -78 -130 -218 -403 -276 -538
-18 -41 -34 -77 -36 -79 -2 -2 -77 147 -167 330 -238 482 -324 602 -544 756
-181 127 -362 203 -567 238 -96 16 -258 18 -344 4z"/>
</g>
</svg>
