<?xml version="1.0" standalone="no"?>
<!DOCTYPE svg PUBLIC "-//W3C//DTD SVG 20010904//EN"
 "http://www.w3.org/TR/2001/REC-SVG-20010904/DTD/svg10.dtd">
<svg version="1.0" xmlns="http://www.w3.org/2000/svg"
 width="464.000000pt" height="384.000000pt" viewBox="0 0 464.000000 384.000000"
 preserveAspectRatio="xMidYMid meet">
<metadata>
Created by potrace 1.13, written by Peter Selinger 2001-2015
</metadata>
<g transform="translate(0.000000,384.000000) scale(0.100000,-0.100000)"
fill="#000000" stroke="none">
<path d="M728 3830 c-211 -36 -365 -131 -471 -293 -258 -392 -324 -880 -177
-1318 70 -212 172 -359 410 -597 191 -190 284 -276 465 -427 33 -27 69 -58 80
-69 11 -10 36 -30 55 -45 64 -48 275 -215 280 -221 3 -4 34 -29 70 -56 295
-224 543 -437 745 -640 l160 -160 142 106 c156 116 305 213 573 370 595 350
851 551 1115 875 22 27 54 65 71 85 97 109 244 379 303 555 147 442 111 862
-105 1231 -100 171 -514 200 -765 54 -30 -18 -75 -49 -100 -70 l-46 -39 -6 88
c-6 95 -40 214 -83 287 -55 94 -152 154 -226 140 -57 -10 -180 -92 -261 -172
-155 -153 -296 -365 -461 -694 -62 -124 -122 -247 -133 -275 l-21 -50 -141
287 c-208 425 -287 554 -416 683 -172 171 -463 317 -719 360 -93 16 -259 18
-338 5z"/>
</g>
</svg>
