<?xml version="1.0" standalone="no"?>
<!DOCTYPE svg PUBLIC "-//W3C//DTD SVG 20010904//EN"
 "http://www.w3.org/TR/2001/REC-SVG-20010904/DTD/svg10.dtd">
<svg version="1.0" xmlns="http://www.w3.org/2000/svg"
 width="464.000000pt" height="377.000000pt" viewBox="0 0 464.000000 377.000000"
 preserveAspectRatio="xMidYMid meet">
<metadata>
Created by potrace 1.13, written by Peter Selinger 2001-2015
</metadata>
<g transform="translate(0.000000,377.000000) scale(0.100000,-0.100000)"
fill="#000000" stroke="none">
<path d="M465 3741 c-113 -54 -237 -209 -325 -409 -199 -447 -179 -967 50
-1349 80 -133 124 -185 316 -374 225 -222 329 -314 649 -578 11 -9 126 -99
255 -201 129 -101 298 -236 375 -301 141 -117 489 -442 534 -497 l24 -30 116
87 c141 106 293 208 426 288 55 33 188 112 295 176 330 198 408 251 599 407
142 117 254 230 398 402 145 173 215 278 287 429 234 488 230 1012 -10 1420
-61 102 -225 274 -300 312 -74 37 -159 52 -233 39 -69 -12 -196 -61 -261 -101
-25 -15 -151 -79 -280 -144 -569 -282 -868 -510 -1010 -770 l-27 -47 -34 52
c-78 121 -262 286 -489 438 -66 44 -122 80 -125 80 -3 0 -22 11 -43 24 -45 28
-210 123 -352 201 -106 59 -161 102 -325 253 -226 208 -367 262 -510 193z"/>
</g>
</svg>
