<?xml version="1.0" standalone="no"?>
<!DOCTYPE svg PUBLIC "-//W3C//DTD SVG 20010904//EN"
 "http://www.w3.org/TR/2001/REC-SVG-20010904/DTD/svg10.dtd">
<svg version="1.0" xmlns="http://www.w3.org/2000/svg"
 width="423.000000pt" height="380.000000pt" viewBox="0 0 423.000000 380.000000"
 preserveAspectRatio="xMidYMid meet">
<metadata>
Created by potrace 1.13, written by Peter Selinger 2001-2015
</metadata>
<g transform="translate(0.000000,380.000000) scale(0.100000,-0.100000)"
fill="#000000" stroke="none">
<path d="M1007 3786 c-41 -15 -109 -57 -145 -90 -37 -33 -173 -188 -217 -246
-22 -29 -45 -57 -50 -64 -39 -42 -275 -371 -334 -466 -233 -372 -308 -681
-225 -928 42 -127 83 -183 268 -367 275 -273 431 -408 886 -765 463 -364 649
-524 880 -759 l95 -97 105 79 c161 120 318 223 510 337 658 387 858 534 1111
812 263 290 331 431 333 693 1 150 -15 240 -74 415 -71 216 -204 470 -393 753
-56 84 -127 193 -157 242 -115 186 -208 289 -315 346 -51 28 -69 32 -131 32
-64 0 -80 -4 -153 -42 -134 -68 -207 -130 -338 -286 -135 -162 -318 -479 -453
-787 -23 -54 -46 -96 -50 -93 -6 4 -52 95 -214 425 -174 358 -292 515 -488
652 -26 18 -86 61 -132 95 -151 110 -237 140 -319 109z"/>
</g>
</svg>
