<?xml version="1.0" standalone="no"?>
<!DOCTYPE svg PUBLIC "-//W3C//DTD SVG 20010904//EN"
 "http://www.w3.org/TR/2001/REC-SVG-20010904/DTD/svg10.dtd">
<svg version="1.0" xmlns="http://www.w3.org/2000/svg"
 width="464.000000pt" height="384.000000pt" viewBox="0 0 464.000000 384.000000"
 preserveAspectRatio="xMidYMid meet">
<metadata>
Created by potrace 1.13, written by Peter Selinger 2001-2015
</metadata>
<g transform="translate(0.000000,384.000000) scale(0.100000,-0.100000)"
fill="#000000" stroke="none">
<path d="M728 3830 c-211 -36 -365 -131 -471 -293 -258 -392 -324 -880 -177
-1318 67 -202 171 -358 380 -568 269 -272 428 -409 956 -827 413 -325 554
-447 769 -661 l161 -159 89 68 c96 73 372 259 476 321 288 170 460 273 549
331 236 154 499 376 631 532 108 128 121 144 155 183 56 64 163 237 219 353
239 498 228 1042 -29 1445 -60 96 -255 260 -408 345 -250 138 -526 194 -715
145 -293 -76 -536 -347 -817 -907 -62 -124 -122 -247 -133 -275 l-21 -50 -141
287 c-208 425 -287 554 -416 683 -172 171 -463 317 -719 360 -93 16 -259 18
-338 5z"/>
</g>
</svg>
