<?xml version="1.0" standalone="no"?>
<!DOCTYPE svg PUBLIC "-//W3C//DTD SVG 20010904//EN"
 "http://www.w3.org/TR/2001/REC-SVG-20010904/DTD/svg10.dtd">
<svg version="1.0" xmlns="http://www.w3.org/2000/svg"
 width="447.000000pt" height="384.000000pt" viewBox="0 0 447.000000 384.000000"
 preserveAspectRatio="xMidYMid meet">
<metadata>
Created by potrace 1.13, written by Peter Selinger 2001-2015
</metadata>
<g transform="translate(0.000000,384.000000) scale(0.100000,-0.100000)"
fill="#000000" stroke="none">
<path d="M535 3825 c-361 -68 -578 -362 -525 -710 52 -343 281 -700 781 -1220
294 -305 438 -500 731 -989 190 -317 295 -477 385 -588 30 -37 66 -82 81 -102
15 -19 62 -75 105 -125 l79 -90 106 80 c164 123 405 283 517 343 28 15 336
199 418 250 105 64 312 213 408 293 190 157 430 422 554 612 352 537 388 1192
91 1658 -83 131 -329 318 -541 411 -215 94 -456 122 -615 71 -118 -38 -261
-135 -361 -243 -60 -65 -171 -209 -206 -266 -121 -198 -234 -416 -352 -675
l-18 -40 -171 345 c-236 478 -313 587 -524 736 -154 110 -263 165 -422 213
-160 49 -374 64 -521 36z"/>
</g>
</svg>
