<?xml version="1.0" standalone="no"?>
<!DOCTYPE svg PUBLIC "-//W3C//DTD SVG 20010904//EN"
 "http://www.w3.org/TR/2001/REC-SVG-20010904/DTD/svg10.dtd">
<svg version="1.0" xmlns="http://www.w3.org/2000/svg"
 width="360.000000pt" height="384.000000pt" viewBox="0 0 360.000000 384.000000"
 preserveAspectRatio="xMidYMid meet">
<metadata>
Created by potrace 1.13, written by Peter Selinger 2001-2015
</metadata>
<g transform="translate(0.000000,384.000000) scale(0.100000,-0.100000)"
fill="#000000" stroke="none">
<path d="M519 3816 c-84 -24 -185 -89 -241 -155 -103 -121 -214 -417 -252
-674 -72 -480 27 -933 276 -1264 240 -319 302 -388 820 -923 280 -289 385
-403 488 -530 25 -30 47 -57 51 -60 11 -9 141 -185 146 -198 3 -7 47 28 112
90 110 105 234 209 435 363 388 298 588 484 741 685 108 142 238 347 290 455
242 506 279 1080 99 1530 -57 142 -113 223 -236 340 -242 230 -515 322 -714
239 -50 -21 -162 -104 -206 -152 -134 -149 -328 -537 -468 -942 -18 -52 -36
-99 -40 -103 -6 -7 -85 188 -163 403 -106 290 -230 524 -321 603 -12 11 -39
36 -61 56 -237 220 -518 308 -756 237z"/>
</g>
</svg>
