<?xml version="1.0" standalone="no"?>
<!DOCTYPE svg PUBLIC "-//W3C//DTD SVG 20010904//EN"
 "http://www.w3.org/TR/2001/REC-SVG-20010904/DTD/svg10.dtd">
<svg version="1.0" xmlns="http://www.w3.org/2000/svg"
 width="464.000000pt" height="384.000000pt" viewBox="0 0 464.000000 384.000000"
 preserveAspectRatio="xMidYMid meet">
<metadata>
Created by potrace 1.13, written by Peter Selinger 2001-2015
</metadata>
<g transform="translate(0.000000,384.000000) scale(0.100000,-0.100000)"
fill="#000000" stroke="none">
<path d="M728 3830 c-211 -36 -365 -131 -471 -293 -258 -392 -324 -880 -177
-1318 70 -212 172 -359 410 -597 191 -190 284 -276 465 -427 33 -27 69 -58 80
-69 11 -10 36 -30 55 -45 64 -48 275 -215 280 -221 3 -4 34 -29 70 -56 295
-224 543 -437 745 -640 l160 -160 142 106 c156 116 305 213 573 370 595 350
851 551 1115 875 22 27 54 65 71 85 55 62 163 235 219 352 217 453 230 942 34
1330 -57 114 -79 146 -155 221 -239 240 -582 398 -864 400 -126 0 -206 -19
-305 -71 -114 -62 -133 -112 -165 -432 -23 -226 -37 -306 -70 -393 -44 -117
-103 -156 -320 -211 -167 -42 -202 -56 -244 -100 -32 -35 -34 -35 -50 -17 -31
34 -109 59 -251 80 -214 31 -255 50 -293 139 -31 71 -42 183 -42 411 0 317
-14 367 -133 454 -142 105 -344 188 -541 222 -93 16 -258 18 -338 5z"/>
</g>
</svg>
