<?xml version="1.0" standalone="no"?>
<!DOCTYPE svg PUBLIC "-//W3C//DTD SVG 20010904//EN"
 "http://www.w3.org/TR/2001/REC-SVG-20010904/DTD/svg10.dtd">
<svg version="1.0" xmlns="http://www.w3.org/2000/svg"
 width="464.000000pt" height="384.000000pt" viewBox="0 0 464.000000 384.000000"
 preserveAspectRatio="xMidYMid meet">
<metadata>
Created by potrace 1.13, written by Peter Selinger 2001-2015
</metadata>
<g transform="translate(0.000000,384.000000) scale(0.100000,-0.100000)"
fill="#000000" stroke="none">
<path d="M728 3830 c-211 -36 -365 -131 -471 -293 -258 -392 -324 -880 -177
-1318 70 -212 172 -359 410 -597 191 -190 284 -276 465 -427 33 -27 69 -58 80
-69 11 -10 36 -30 55 -45 64 -48 275 -215 280 -221 3 -4 34 -29 70 -56 295
-224 543 -437 745 -640 l160 -160 142 106 c156 116 305 213 573 370 281 165
374 226 387 251 27 52 10 140 -81 429 -93 296 -115 416 -86 470 30 55 126 27
440 -130 232 -116 342 -160 403 -160 41 0 114 77 210 220 333 499 398 1103
168 1560 -56 111 -71 133 -137 202 -185 194 -436 338 -693 400 -109 25 -270
28 -358 5 -293 -76 -536 -347 -817 -907 -62 -124 -122 -247 -133 -275 l-21
-50 -141 287 c-208 425 -287 554 -416 683 -172 171 -463 317 -719 360 -93 16
-259 18 -338 5z"/>
</g>
</svg>
