<?xml version="1.0" standalone="no"?>
<!DOCTYPE svg PUBLIC "-//W3C//DTD SVG 20010904//EN"
 "http://www.w3.org/TR/2001/REC-SVG-20010904/DTD/svg10.dtd">
<svg version="1.0" xmlns="http://www.w3.org/2000/svg"
 width="464.000000pt" height="384.000000pt" viewBox="0 0 464.000000 384.000000"
 preserveAspectRatio="xMidYMid meet">
<metadata>
Created by potrace 1.13, written by Peter Selinger 2001-2015
</metadata>
<g transform="translate(0.000000,384.000000) scale(0.100000,-0.100000)"
fill="#000000" stroke="none">
<path d="M728 3830 c-211 -36 -365 -131 -471 -293 -376 -571 -330 -1335 108
-1788 100 -103 177 -110 555 -49 231 37 350 39 397 4 76 -55 87 -158 48 -424
-32 -212 -36 -328 -13 -381 10 -22 41 -56 78 -85 419 -332 552 -446 755 -650
l160 -160 142 106 c156 116 305 213 573 370 595 350 851 551 1115 875 22 27
54 65 71 85 55 62 163 235 219 352 239 498 228 1042 -29 1445 -60 96 -255 260
-408 345 -250 138 -526 194 -715 145 -293 -76 -536 -347 -817 -907 -62 -124
-122 -247 -133 -275 l-21 -50 -141 287 c-208 425 -287 554 -416 683 -172 171
-463 317 -719 360 -93 16 -259 18 -338 5z"/>
</g>
</svg>
