<?xml version="1.0" standalone="no"?>
<!DOCTYPE svg PUBLIC "-//W3C//DTD SVG 20010904//EN"
 "http://www.w3.org/TR/2001/REC-SVG-20010904/DTD/svg10.dtd">
<svg version="1.0" xmlns="http://www.w3.org/2000/svg"
 width="153.000000pt" height="171.000000pt" viewBox="0 0 153.000000 171.000000"
 preserveAspectRatio="xMidYMid meet">
<metadata>
Created by potrace 1.13, written by Peter Selinger 2001-2015
</metadata>
<g transform="translate(0.000000,171.000000) scale(0.100000,-0.100000)"
fill="#000000" stroke="none">
<path d="M635 1625 c-88 -18 -185 -48 -185 -57 0 -5 -8 -8 -18 -8 -10 0 -26
-6 -37 -14 -11 -7 -37 -19 -57 -25 -21 -7 -38 -17 -38 -22 0 -5 -5 -9 -11 -9
-16 0 -39 -26 -39 -44 0 -9 -11 -18 -25 -22 -14 -3 -25 -12 -25 -20 0 -8 -6
-14 -13 -14 -7 0 -18 -10 -26 -21 -34 -56 -51 -91 -51 -109 0 -11 -4 -20 -10
-20 -5 0 -12 -17 -15 -37 -4 -21 -21 -74 -38 -118 -31 -78 -32 -84 -32 -235 0
-149 16 -284 36 -296 5 -3 9 -15 9 -28 0 -57 126 -357 171 -404 9 -10 20 -37
24 -60 l7 -42 106 0 c153 0 152 0 152 73 0 49 -14 101 -70 266 -79 232 -101
333 -101 471 -1 124 21 206 75 290 48 74 104 124 186 166 50 25 65 28 160 28
98 1 109 -1 173 -31 197 -94 300 -328 260 -596 -21 -146 -43 -207 -184 -503
-13 -27 -19 -62 -19 -106 l0 -66 66 -7 c92 -10 161 -2 180 21 67 85 126 193
180 332 81 204 109 348 100 517 -4 99 -31 237 -56 290 -37 80 -83 174 -94 194
-16 26 -71 86 -105 114 -26 21 -149 97 -157 97 -3 0 -24 9 -47 19 -82 37 -325
57 -432 36z"/>
<path d="M870 660 c0 -13 7 -20 20 -20 13 0 20 7 20 20 0 13 -7 20 -20 20 -13
0 -20 -7 -20 -20z"/>
</g>
</svg>
