<?xml version="1.0" standalone="no"?>
<!DOCTYPE svg PUBLIC "-//W3C//DTD SVG 20010904//EN"
 "http://www.w3.org/TR/2001/REC-SVG-20010904/DTD/svg10.dtd">
<svg version="1.0" xmlns="http://www.w3.org/2000/svg"
 width="884.000000pt" height="875.000000pt" viewBox="0 0 884.000000 875.000000"
 preserveAspectRatio="xMidYMid meet">
<metadata>
Created by potrace 1.13, written by Peter Selinger 2001-2015
</metadata>
<g transform="translate(0.000000,875.000000) scale(0.100000,-0.100000)"
fill="#000000" stroke="none">
<path d="M4208 8327 c-21 -12 -38 -28 -38 -35 0 -7 -4 -11 -8 -8 -5 3 -33 -24
-62 -59 -41 -50 -56 -62 -69 -55 -64 36 -151 46 -196 23 -11 -6 -26 -8 -32 -6
-7 3 -13 0 -13 -7 0 -6 -4 -9 -9 -6 -5 4 -22 1 -38 -6 -15 -6 -31 -11 -35 -10
-5 1 -8 -3 -8 -9 0 -8 -4 -8 -14 0 -11 9 -15 9 -18 0 -4 -13 -19 -17 -80 -23
-35 -3 -84 -33 -73 -44 3 -3 0 -11 -6 -19 -6 -7 -8 -13 -4 -13 4 0 3 -6 -3
-13 -13 -15 12 -41 41 -43 9 -1 22 -2 27 -3 11 -1 -25 -41 -37 -41 -5 0 -16
-14 -25 -30 -9 -17 -24 -30 -33 -30 -8 0 -15 -4 -15 -8 0 -7 -70 -36 -90 -37
-3 -1 -16 -7 -30 -15 -14 -8 -28 -15 -32 -16 -5 -1 -9 -2 -10 -3 -2 -1 -25 -3
-53 -5 -61 -3 -145 -15 -165 -23 -8 -3 -19 -7 -25 -8 -47 -11 -85 -37 -100
-69 -10 -20 -26 -42 -36 -49 -16 -12 -45 -69 -37 -74 2 -1 -6 -12 -18 -25 -18
-19 -21 -34 -19 -89 2 -64 3 -68 43 -107 23 -23 42 -44 42 -47 0 -4 7 -13 15
-21 8 -9 15 -12 15 -8 0 3 6 1 14 -5 8 -7 20 -11 28 -10 17 4 68 -24 91 -49
17 -19 20 -19 60 -4 23 9 44 19 47 22 27 32 140 71 140 49 0 -5 11 -11 25 -15
14 -3 25 -9 25 -13 0 -4 14 -8 32 -9 17 -2 38 -8 45 -14 7 -6 13 -7 13 -3 0 5
8 -1 18 -11 17 -19 22 -21 62 -27 11 -2 26 -9 32 -15 7 -7 17 -12 23 -12 6 0
22 -11 35 -25 13 -14 20 -25 16 -25 -4 0 -2 -9 4 -20 13 -24 21 -140 10 -140
-4 0 -6 -12 -4 -26 1 -15 -2 -37 -7 -51 -5 -13 -10 -37 -11 -53 -1 -17 -6 -30
-10 -30 -4 0 -5 -7 -2 -15 4 -8 1 -15 -6 -15 -6 0 -9 -4 -6 -8 3 -5 -1 -20 -8
-33 -7 -14 -12 -35 -11 -47 1 -12 -3 -22 -8 -22 -6 0 -7 -3 -4 -7 4 -3 2 -12
-4 -20 -6 -7 -8 -13 -4 -13 4 0 2 -7 -5 -15 -7 -8 -9 -15 -4 -15 5 0 3 -4 -3
-8 -7 -4 -15 -26 -19 -47 -3 -22 -12 -52 -20 -68 -8 -15 -16 -41 -17 -57 -1
-17 -4 -30 -7 -30 -3 0 -6 -10 -7 -22 -1 -11 -6 -24 -10 -27 -4 -3 -9 -15 -10
-26 -3 -20 -10 -56 -13 -65 -2 -3 -2 -8 -1 -12 0 -5 -4 -8 -10 -8 -6 0 -9 -7
-5 -15 3 -8 1 -15 -4 -15 -5 0 -7 -7 -4 -15 4 -8 2 -15 -3 -15 -5 0 -9 -10
-10 -22 -1 -11 -7 -24 -14 -28 -6 -4 -9 -12 -5 -18 3 -6 2 -12 -4 -14 -5 -1
-11 -14 -14 -28 -2 -14 -5 -27 -6 -30 -2 -3 -2 -8 -1 -12 0 -5 -3 -8 -9 -8 -5
0 -10 -7 -10 -15 0 -8 -4 -15 -10 -15 -5 0 -10 -5 -10 -11 0 -16 -41 -50 -51
-43 -5 3 -9 -2 -9 -10 0 -9 -7 -16 -15 -16 -9 0 -18 -7 -21 -15 -4 -8 -12 -15
-19 -15 -7 0 -18 -7 -25 -15 -7 -8 -16 -12 -21 -9 -5 3 -12 -2 -15 -10 -3 -9
-11 -16 -18 -16 -6 -1 -22 -15 -36 -32 -14 -18 -37 -45 -52 -61 -16 -16 -28
-33 -28 -38 0 -5 -5 -9 -11 -9 -6 0 -9 -6 -6 -14 3 -8 3 -16 -1 -18 -14 -6
-66 -90 -69 -111 -2 -12 -8 -24 -13 -27 -5 -3 -12 -17 -14 -30 -2 -14 -5 -27
-6 -30 -2 -3 -2 -9 -1 -13 1 -4 -4 -17 -10 -29 -6 -11 -13 -38 -16 -60 -2 -23
-10 -50 -17 -62 -7 -11 -12 -33 -11 -48 0 -16 -2 -28 -6 -28 -3 0 -4 -11 -1
-25 3 -16 0 -25 -8 -25 -9 0 -10 -3 -1 -13 6 -8 8 -17 4 -21 -10 -9 -13 -36
-4 -36 12 0 0 -119 -16 -157 -9 -21 -18 -47 -20 -57 -2 -11 -11 -28 -20 -38
-9 -10 -12 -18 -8 -18 4 0 0 -9 -11 -21 -10 -12 -17 -23 -15 -25 9 -12 -12
-72 -34 -96 -14 -15 -25 -31 -25 -36 0 -5 -13 -24 -29 -43 -16 -18 -27 -37
-25 -41 3 -4 -1 -8 -9 -8 -8 0 -18 -11 -21 -25 -4 -14 -11 -25 -16 -25 -6 0
-10 -6 -10 -14 0 -7 -9 -25 -21 -40 -11 -14 -18 -26 -14 -26 4 0 0 -6 -7 -14
-43 -44 -90 -112 -109 -158 -6 -16 -15 -28 -21 -28 -5 0 -8 -5 -6 -12 3 -7 -5
-22 -16 -34 -12 -11 -31 -32 -42 -45 -12 -13 -35 -35 -52 -48 -17 -14 -34 -36
-37 -49 -3 -14 -15 -32 -25 -41 -11 -9 -21 -25 -23 -36 -3 -22 -55 -108 -68
-113 -5 -2 -9 -8 -9 -12 0 -5 -12 -22 -28 -38 -15 -16 -40 -46 -57 -66 -54
-68 -96 -111 -106 -109 -5 2 -9 -2 -9 -8 0 -16 -41 -50 -51 -43 -5 3 -12 -2
-15 -10 -3 -9 -9 -14 -14 -11 -4 2 -16 -5 -28 -15 -12 -11 -25 -20 -30 -20 -5
0 -22 -12 -37 -26 -22 -20 -38 -25 -79 -25 -29 0 -56 1 -61 2 -6 1 -19 -1 -30
-5 -11 -4 -32 -12 -47 -18 -16 -6 -28 -14 -28 -18 0 -4 -15 -7 -32 -5 -31 2
-57 -15 -58 -39 0 -5 22 -32 49 -60 27 -28 69 -72 92 -97 24 -26 58 -53 74
-62 34 -17 85 -12 85 9 0 8 4 14 10 14 5 0 14 18 20 39 6 22 18 49 28 60 19
24 70 34 90 19 6 -6 12 -7 12 -4 0 4 7 0 16 -9 15 -14 20 -11 69 37 29 30 56
65 60 78 4 14 15 30 24 37 9 6 16 16 16 22 0 18 159 202 193 223 19 11 45 32
58 45 13 13 24 20 24 16 0 -4 4 -3 8 3 4 6 29 21 55 33 27 13 54 32 60 42 7
11 16 19 20 19 5 0 17 10 27 22 l18 23 -4 -31 c-2 -18 -13 -55 -24 -83 -11
-29 -18 -57 -15 -62 4 -5 1 -9 -4 -9 -6 0 -11 -6 -11 -14 0 -8 -7 -22 -16 -30
-8 -9 -12 -20 -9 -26 3 -5 2 -10 -3 -10 -6 0 -13 -12 -17 -27 -3 -16 -14 -36
-22 -45 -9 -10 -13 -18 -9 -18 4 0 -2 -12 -13 -26 -12 -15 -21 -31 -21 -37 0
-5 -10 -18 -22 -28 -11 -11 -18 -22 -15 -25 3 -4 1 -12 -6 -18 -7 -7 -23 -27
-37 -44 -14 -18 -28 -32 -32 -32 -11 0 -128 -121 -128 -132 0 -6 -3 -8 -6 -5
-4 3 -16 1 -27 -4 -11 -6 -38 -12 -61 -14 -54 -3 -96 -15 -96 -27 0 -6 -7 -8
-15 -4 -8 3 -15 1 -15 -4 0 -6 -6 -10 -13 -10 -24 0 -55 -29 -51 -48 3 -9 22
-28 42 -42 20 -13 53 -37 72 -52 19 -16 40 -28 46 -28 6 0 19 -9 29 -20 10
-11 20 -18 23 -16 2 3 18 -4 36 -13 29 -17 35 -17 61 -3 42 21 55 37 49 58 -6
22 20 89 38 100 22 14 60 13 83 -2 22 -15 24 -13 61 47 35 58 86 155 90 172 1
4 3 9 4 12 1 3 3 8 4 13 1 4 12 23 24 42 12 19 22 41 22 48 0 6 5 12 10 12 6
0 10 6 10 14 0 8 6 21 13 28 7 7 19 22 27 34 20 28 102 124 118 138 7 6 22 20
32 30 11 11 20 16 20 12 0 -4 6 -1 13 6 22 23 77 96 77 102 0 6 20 32 58 74
12 14 22 31 22 38 0 8 5 14 10 14 6 0 10 5 10 10 0 6 11 21 25 34 14 13 25 27
25 31 0 4 12 18 28 31 15 13 23 24 19 24 -11 0 28 55 70 99 18 19 30 37 28 40
-2 4 14 26 36 51 21 24 39 49 39 55 0 5 14 24 30 42 17 18 30 36 30 42 0 5 16
28 35 51 19 23 35 46 35 52 0 17 29 40 42 31 7 -4 18 -8 23 -9 6 -1 24 -8 40
-15 17 -7 32 -13 35 -14 3 -1 16 -6 30 -12 14 -6 29 -11 33 -11 5 0 16 -9 25
-19 9 -10 24 -19 32 -21 8 -2 25 -13 38 -24 12 -12 22 -18 22 -14 0 5 26 -13
57 -40 92 -78 93 -79 101 -79 12 0 52 -31 47 -37 -2 -2 28 -38 68 -79 39 -41
73 -79 75 -84 2 -6 15 -17 30 -25 15 -8 29 -17 32 -20 16 -17 98 -80 105 -80
4 0 22 -12 39 -27 57 -50 104 -85 108 -82 3 2 11 -3 19 -11 27 -27 87 -72 93
-71 4 1 13 -4 21 -11 32 -29 45 -38 52 -38 5 0 20 -10 33 -22 14 -13 32 -24
40 -26 8 -2 22 -10 31 -18 8 -8 20 -14 26 -14 5 0 18 -9 28 -20 10 -11 21 -17
26 -15 4 3 11 1 14 -5 4 -6 40 -27 81 -46 41 -20 74 -39 74 -43 0 -4 23 -15
51 -26 49 -19 99 -66 99 -94 0 -15 37 -55 53 -57 38 -3 38 -3 25 -26 -7 -13
-11 -26 -10 -30 1 -5 -3 -8 -8 -8 -6 0 -10 -7 -10 -15 0 -8 -4 -15 -8 -15 -19
0 -52 -38 -46 -53 3 -9 2 -22 -2 -29 -5 -7 -10 -22 -11 -33 -2 -10 -8 -22 -15
-26 -6 -4 -7 -12 -4 -18 4 -6 2 -11 -3 -11 -6 0 -11 -6 -11 -14 0 -8 -6 -21
-13 -28 -8 -7 -19 -30 -26 -50 -7 -20 -21 -48 -32 -62 -11 -14 -18 -26 -14
-26 3 0 -3 -14 -15 -30 -12 -17 -23 -38 -24 -46 -1 -8 -10 -24 -20 -35 -10
-12 -15 -23 -12 -26 3 -3 -4 -14 -15 -24 -12 -10 -18 -23 -14 -28 3 -6 1 -11
-5 -11 -6 0 -8 -5 -5 -11 4 -5 -4 -20 -17 -32 -13 -12 -25 -25 -26 -30 -6 -26
-57 -117 -65 -117 -5 0 -7 -7 -3 -15 3 -8 1 -15 -4 -15 -6 0 -10 -5 -10 -12 0
-6 -12 -27 -27 -47 -15 -20 -27 -38 -27 -41 1 -3 -10 -22 -23 -43 -13 -20 -35
-62 -49 -93 -14 -30 -32 -58 -40 -61 -7 -3 -14 -10 -15 -17 0 -13 -123 -118
-150 -128 -10 -4 -19 -12 -19 -18 0 -6 -5 -8 -10 -5 -6 3 -13 -1 -16 -9 -3 -9
-10 -14 -14 -11 -4 3 -11 -2 -14 -11 -3 -8 -10 -13 -14 -10 -5 3 -20 -6 -33
-18 -14 -13 -35 -27 -47 -30 -12 -4 -22 -12 -22 -17 0 -5 -5 -9 -12 -9 -6 0
-19 -6 -27 -14 -19 -17 -131 -78 -131 -71 0 2 -12 0 -27 -6 -16 -6 -50 -12
-78 -15 -66 -5 -95 -11 -109 -23 -6 -5 -36 -7 -66 -5 -144 11 -264 2 -290 -22
-12 -12 -13 -16 -2 -23 8 -5 14 -12 15 -17 2 -12 67 -80 67 -70 0 10 26 -16
29 -29 2 -10 15 -19 36 -27 5 -1 19 -12 31 -23 37 -33 54 -46 54 -40 0 3 9 0
21 -8 27 -20 82 -3 113 34 30 36 85 52 112 32 10 -7 19 -19 20 -26 3 -33 5
-37 22 -37 9 0 30 9 46 19 17 11 33 18 38 15 4 -3 8 2 8 10 0 9 9 16 20 16 11
0 20 7 20 16 0 8 4 13 9 10 8 -5 43 20 92 66 11 10 23 18 28 18 5 0 11 7 15
15 3 8 14 15 25 15 10 0 21 7 25 15 3 8 12 15 21 15 8 0 15 5 15 10 0 6 5 10
11 10 6 0 26 12 45 26 19 15 34 22 34 18 0 -5 5 -1 11 9 5 9 16 17 23 17 8 0
16 7 20 15 3 8 9 14 13 13 14 -3 63 25 63 35 0 6 3 7 6 4 4 -4 19 2 33 12 21
14 90 50 111 57 3 1 15 5 28 9 12 4 22 11 22 14 0 4 6 8 13 8 30 1 143 48 168
70 15 14 31 39 35 57 6 32 42 98 56 104 4 2 4 10 1 18 -3 8 0 14 6 14 6 0 8 7
5 15 -4 8 -1 15 5 15 7 0 14 8 18 17 3 10 16 32 29 49 13 17 21 34 19 36 -3 3
6 11 20 18 14 7 25 17 25 21 0 22 117 122 131 113 5 -3 9 -1 9 4 0 5 11 17 25
26 l25 16 -21 -55 c-19 -52 -31 -96 -32 -122 0 -7 -3 -13 -7 -13 -4 0 -6 -13
-5 -30 1 -16 -2 -30 -8 -30 -5 0 -7 -7 -3 -15 3 -8 2 -15 -2 -15 -4 0 -9 -9
-10 -20 -1 -11 -3 -29 -4 -40 -1 -11 -6 -20 -10 -20 -4 0 -5 -7 -2 -15 3 -8 2
-20 -2 -27 -5 -7 -9 -15 -10 -18 -6 -31 -55 -130 -65 -130 -4 0 -6 -7 -3 -15
4 -8 1 -15 -6 -15 -6 0 -8 -5 -4 -11 3 -6 2 -14 -3 -18 -12 -8 -43 -75 -43
-94 0 -9 -4 -18 -9 -21 -5 -3 -12 -18 -16 -33 -3 -15 -14 -43 -22 -62 -9 -20
-17 -39 -18 -43 -2 -5 -3 -9 -5 -10 -1 -2 -3 -14 -4 -27 -2 -13 -11 -30 -21
-37 -11 -8 -15 -14 -11 -14 10 0 -27 -51 -70 -98 -19 -21 -34 -43 -34 -50 0
-7 -4 -10 -10 -7 -5 3 -10 2 -10 -3 0 -11 -138 -152 -149 -152 -5 0 -24 -13
-42 -30 -19 -16 -40 -30 -46 -30 -7 0 -13 -5 -13 -12 0 -6 -3 -9 -6 -6 -3 4
-14 -2 -25 -13 -10 -10 -26 -19 -34 -19 -8 0 -15 -5 -15 -11 0 -5 -4 -7 -10
-4 -5 3 -10 1 -10 -4 0 -6 -7 -11 -15 -11 -9 0 -18 -7 -21 -15 -4 -8 -10 -15
-16 -15 -5 0 -19 -11 -31 -25 -12 -13 -29 -26 -37 -27 -8 -2 -18 -7 -22 -12
-3 -5 -39 -11 -80 -13 -44 -3 -83 -11 -98 -21 -14 -9 -28 -15 -32 -14 -5 1 -8
-2 -8 -7 0 -5 -13 -12 -30 -16 -16 -4 -30 -11 -30 -16 0 -5 -7 -9 -15 -9 -50
0 -6 -62 110 -155 28 -22 60 -49 72 -60 50 -46 53 -47 59 -31 3 9 10 14 14 11
5 -3 20 0 34 6 27 13 72 92 61 109 -3 5 -1 10 5 10 6 0 9 4 6 9 -8 13 45 45
77 47 15 1 27 -2 27 -5 0 -11 68 -12 75 -1 3 6 11 8 16 5 5 -4 9 -2 9 4 0 5 9
13 20 16 11 3 20 11 20 16 0 14 26 39 40 39 6 0 16 12 23 28 16 36 68 93 78
86 5 -3 9 0 9 5 0 11 26 45 68 87 12 13 22 28 22 34 0 9 14 14 33 11 4 0 7 5
7 11 0 7 14 24 30 38 16 14 45 40 65 57 19 18 40 33 45 33 5 0 14 9 20 19 5
11 19 23 30 26 11 3 20 12 20 19 0 6 9 12 20 13 11 1 38 20 60 42 22 22 43 39
45 38 2 -1 14 6 25 16 11 9 25 17 30 17 6 0 10 4 10 8 0 4 12 12 28 18 40 16
129 85 144 112 6 13 12 43 13 68 0 24 4 44 8 44 5 0 5 5 2 10 -3 6 -1 10 5 10
7 0 10 7 6 15 -3 8 -1 15 5 15 6 0 8 4 5 9 -7 10 13 71 22 71 4 0 8 12 9 26 0
15 7 30 13 34 7 4 10 12 7 17 -3 5 3 16 14 23 10 8 19 19 19 24 0 16 44 76 56
76 6 0 23 11 38 25 15 14 34 25 42 25 8 0 17 7 20 15 4 8 12 15 20 15 8 0 14
5 14 11 0 5 4 8 9 5 5 -4 11 -1 13 4 2 6 13 12 25 13 13 0 25 7 28 15 3 7 9
10 15 7 5 -3 10 -2 10 3 0 6 19 17 43 27 72 28 97 40 97 45 0 3 10 7 22 7 13
1 24 7 26 13 2 5 11 10 21 10 9 0 23 6 29 12 7 7 16 13 20 14 13 1 87 39 100
51 7 7 20 13 28 13 8 0 14 4 14 9 0 5 11 12 25 15 14 4 25 11 25 16 0 6 9 10
20 10 11 0 23 7 26 15 4 8 10 12 15 9 5 -3 12 1 15 10 3 8 21 22 40 31 19 9
34 20 34 26 0 6 5 7 10 4 6 -3 10 -1 10 4 0 6 5 11 10 11 12 0 22 8 85 66 25
23 45 39 45 37 0 -3 25 20 55 50 30 30 55 59 55 65 0 6 6 17 13 24 21 20 72
102 69 111 -1 4 3 7 8 7 6 0 10 7 10 15 0 8 4 15 10 15 5 0 12 11 16 25 3 14
10 25 14 25 5 0 12 12 18 28 l9 27 5 -28 c3 -15 2 -27 -2 -27 -4 0 -6 -11 -5
-25 2 -14 -1 -25 -6 -25 -5 0 -9 -5 -9 -11 0 -7 -11 -22 -25 -35 -14 -13 -25
-27 -25 -31 0 -5 -9 -15 -20 -23 -11 -8 -20 -18 -20 -23 0 -4 -11 -18 -25 -31
-14 -13 -25 -26 -25 -30 0 -4 -34 -40 -75 -81 -41 -41 -75 -79 -75 -85 0 -5
-4 -10 -9 -10 -5 0 -16 -16 -25 -35 -10 -20 -27 -37 -40 -41 -12 -3 -30 -18
-40 -35 -9 -16 -21 -29 -27 -29 -5 0 -9 -6 -9 -14 0 -7 -32 -46 -70 -86 -38
-40 -70 -76 -70 -81 0 -5 -5 -9 -11 -9 -11 0 -69 -60 -69 -72 0 -5 -4 -7 -9
-5 -11 3 -19 -5 -257 -245 -53 -54 -100 -95 -105 -92 -5 3 -9 1 -9 -5 0 -6
-25 -35 -55 -64 -38 -38 -57 -51 -65 -43 -7 7 -10 5 -10 -7 0 -9 -5 -17 -11
-17 -5 0 -8 -4 -5 -9 3 -5 -5 -12 -19 -15 -14 -4 -25 -10 -25 -15 0 -4 -16
-24 -35 -44 -19 -20 -35 -39 -35 -42 0 -10 -57 -65 -68 -65 -5 0 -15 -11 -22
-25 -7 -13 -16 -22 -20 -20 -6 4 -39 -34 -40 -47 0 -5 -8 -16 -17 -26 -30 -32
-53 -62 -47 -62 3 0 -13 -17 -35 -38 -23 -21 -41 -44 -41 -51 0 -7 -4 -9 -10
-6 -5 3 -17 -4 -27 -16 -10 -12 -24 -27 -30 -34 -7 -8 -13 -18 -13 -24 0 -5
-6 -14 -13 -18 -14 -9 -70 -93 -62 -93 3 0 -7 -14 -24 -32 -16 -18 -36 -43
-43 -57 -7 -15 -19 -32 -25 -39 -7 -7 -13 -18 -13 -23 0 -8 -26 -42 -57 -75
-7 -7 -13 -17 -13 -23 0 -6 -5 -11 -11 -11 -5 0 -7 -5 -4 -10 3 -6 2 -10 -3
-10 -6 0 -13 -11 -16 -24 -3 -13 -22 -40 -41 -60 -19 -20 -35 -41 -35 -46 0
-6 -5 -10 -11 -10 -6 0 -9 -5 -7 -12 3 -7 -6 -22 -19 -34 -16 -14 -24 -34 -25
-58 -1 -20 -5 -39 -10 -42 -4 -3 -6 -10 -3 -15 4 -5 0 -9 -8 -9 -7 0 -20 -11
-27 -25 -7 -14 -18 -25 -23 -25 -5 0 -4 -7 3 -15 9 -11 9 -15 1 -15 -16 0 -2
-53 18 -65 9 -5 19 -10 24 -11 4 -1 8 -2 10 -4 9 -7 54 -6 65 2 8 7 12 6 12
-3 1 -10 5 -8 15 5 7 10 18 15 24 11 6 -3 11 -1 11 4 0 6 5 11 11 11 6 0 16 6
23 13 8 6 24 19 36 27 13 8 33 26 46 40 13 14 24 22 24 18 0 -3 23 16 50 43
28 27 52 49 55 49 2 0 16 11 31 25 15 14 31 25 35 25 15 0 76 54 141 126 23
26 46 44 55 44 5 0 14 9 21 21 7 12 16 19 19 16 5 -6 24 7 50 35 9 9 20 15 25
12 4 -3 8 -1 8 5 0 5 9 13 20 16 11 3 20 13 20 21 0 8 5 13 12 12 6 -2 17 8
24 20 17 35 34 49 34 31 1 -10 5 -9 15 5 8 11 15 16 15 12 0 -4 7 -1 15 8 8 8
15 17 15 19 0 2 16 22 36 43 21 24 33 46 30 57 -5 19 28 42 45 31 6 -4 15 0
20 7 4 8 14 14 21 14 7 0 13 10 12 22 0 12 3 20 6 18 4 -2 13 7 20 20 7 13 16
22 21 20 9 -6 59 52 59 68 0 7 12 13 27 14 14 0 30 8 34 15 5 8 27 28 49 43
23 16 50 46 61 68 14 26 25 37 35 33 8 -3 20 3 26 14 7 11 18 20 25 20 7 0 13
3 13 8 0 4 16 24 35 44 19 20 35 41 35 47 0 6 4 11 8 11 16 0 49 34 56 58 4
12 14 22 22 22 8 0 18 8 21 18 4 9 15 24 25 34 11 9 20 25 21 37 1 14 5 17 13
10 11 -9 25 9 28 34 1 5 13 21 27 35 15 15 35 45 45 67 10 22 25 47 35 55 9 8
19 25 23 37 9 29 67 94 78 87 4 -3 8 0 8 6 0 6 12 22 27 36 14 13 23 27 20 30
-3 4 8 20 24 38 17 17 37 46 45 64 8 18 21 35 29 38 7 3 17 19 20 35 4 16 18
43 32 59 14 17 21 30 17 30 -4 0 0 8 9 18 8 9 16 20 16 25 0 15 45 87 53 87 5
0 6 5 3 11 -4 6 0 16 8 22 14 11 49 114 50 145 0 6 3 12 7 12 3 0 6 8 6 18 1
9 4 37 9 62 23 141 23 288 -2 297 -7 3 -13 11 -13 19 0 8 -5 14 -11 14 -5 0
-8 4 -5 9 4 5 3 11 -1 13 -22 9 -51 91 -50 138 1 27 -1 50 -5 50 -3 0 -9 13
-13 30 -4 16 -11 30 -17 30 -6 0 -8 3 -5 6 3 4 1 16 -4 27 -6 11 -13 29 -14
41 -7 42 -11 51 -27 75 -10 13 -15 28 -12 33 3 4 0 8 -7 8 -7 0 -10 3 -6 6 3
3 -7 30 -23 59 -16 29 -26 56 -23 59 4 3 2 6 -4 6 -10 0 -26 36 -24 53 1 4 -6
10 -14 13 -8 4 -15 14 -15 23 0 9 -11 28 -25 43 -14 15 -25 32 -25 38 0 5 -4
10 -10 10 -5 0 -10 6 -10 14 0 8 -9 21 -20 29 -11 8 -18 16 -15 18 2 3 -9 20
-25 38 -17 18 -30 39 -30 47 0 8 -4 14 -10 14 -5 0 -10 5 -10 11 0 7 -11 21
-23 33 -13 11 -36 38 -51 58 -15 21 -31 36 -34 35 -4 -1 -7 1 -7 5 0 4 -15 19
-34 33 -19 14 -31 25 -26 25 13 0 -67 70 -80 70 -6 0 -22 11 -36 24 -14 13
-34 26 -45 30 -10 3 -31 17 -46 31 -15 14 -31 25 -36 25 -5 0 -15 7 -22 15 -7
8 -16 13 -20 10 -5 -3 -15 2 -23 10 -9 8 -20 15 -25 15 -6 0 -33 15 -61 34
-28 19 -51 32 -51 30 0 -3 -15 9 -32 25 -18 17 -39 31 -45 31 -7 0 -22 8 -33
18 -11 9 -23 16 -26 14 -2 -1 -15 8 -28 20 -34 32 -69 58 -78 58 -5 0 -21 11
-36 25 -15 14 -31 25 -37 25 -6 0 -22 11 -36 24 -14 13 -34 26 -45 30 -10 3
-39 24 -63 46 -24 22 -49 40 -55 40 -6 0 -23 11 -37 24 -14 13 -43 35 -65 49
-21 13 -52 37 -69 52 -16 14 -40 33 -52 42 -13 8 -23 19 -23 23 0 5 -12 21
-27 37 -45 46 -73 83 -65 83 4 0 -2 7 -12 15 -11 8 -17 15 -14 15 4 0 1 12 -7
27 -8 15 -12 30 -9 35 3 4 1 8 -5 8 -5 0 -12 14 -16 30 -4 17 -10 30 -15 30
-5 0 -11 13 -15 30 -3 16 -15 47 -26 70 -11 22 -17 45 -14 50 3 6 1 10 -6 10
-7 0 -9 3 -6 7 4 3 -1 12 -11 19 -11 9 -12 13 -4 14 9 0 8 6 -4 25 -8 13 -13
29 -9 35 3 5 1 10 -4 10 -6 0 -11 7 -11 15 0 8 -5 15 -10 15 -6 0 -9 3 -8 8 4
13 -13 52 -23 52 -5 0 -8 3 -7 8 1 4 -3 16 -9 27 -6 11 -11 22 -11 25 -1 14
-17 47 -29 58 -7 7 -13 19 -13 25 0 7 -11 21 -25 31 -13 10 -22 22 -19 27 3 5
0 9 -5 9 -6 0 -11 7 -11 15 0 8 -5 15 -10 15 -6 0 -10 3 -9 8 2 15 -14 52 -22
52 -5 0 -8 3 -8 8 1 4 1 9 0 12 -1 3 -4 32 -6 65 -2 33 -7 80 -10 105 -10 72
-16 138 -20 235 -3 50 -5 90 -6 90 -1 0 -6 50 -13 130 -3 39 -10 85 -15 103
-7 23 -6 32 2 32 8 0 8 3 2 8 -9 6 -37 94 -51 161 -3 13 -9 32 -14 41 -5 10
-7 20 -4 22 3 3 -6 30 -19 59 -50 110 -72 163 -70 171 2 4 -1 8 -6 8 -5 0 -12
10 -16 23 -4 12 -8 24 -9 27 -1 3 -7 15 -14 28 -7 12 -9 22 -5 22 4 0 0 5 -10
11 -9 6 -15 14 -12 20 4 5 1 9 -5 9 -6 0 -15 11 -20 25 -6 15 -22 51 -37 82
-14 32 -26 63 -26 70 0 7 -4 13 -9 13 -4 0 -8 9 -8 20 0 11 -5 20 -10 20 -6 0
-9 3 -8 8 1 4 -4 23 -11 42 -8 19 -14 38 -15 42 -1 4 -9 16 -18 27 -22 26 -19
40 21 89 18 23 30 42 26 42 -4 0 5 14 19 31 14 17 26 38 27 47 0 9 3 28 6 42
17 74 0 140 -36 140 -17 0 -65 -58 -66 -80 -1 -11 -4 -21 -6 -23 -2 -1 -26
-20 -52 -41 -26 -21 -51 -35 -54 -32 -4 3 -3 6 2 6 4 0 2 7 -5 15 -10 12 -10
18 0 30 7 8 9 15 5 15 -4 0 -2 6 5 14 6 8 10 23 8 33 -1 10 1 24 5 31 5 6 6
12 3 12 -5 0 21 34 50 64 20 21 23 44 7 57 -24 20 -45 19 -85 -4z m-658 -557
c0 -5 -5 -10 -11 -10 -5 0 -7 5 -4 10 3 6 8 10 11 10 2 0 4 -4 4 -10z m-35
-28 c-3 -3 -11 0 -18 7 -9 10 -8 11 6 5 10 -3 15 -9 12 -12z m-205 -42 c-20
-13 -33 -13 -25 0 3 6 14 10 23 10 15 0 15 -2 2 -10z m-110 -15 c-7 -9 -15
-13 -18 -11 -8 9 -59 -23 -85 -53 l-25 -30 -16 25 c-16 24 -13 50 4 39 5 -3
11 -1 15 4 3 6 12 8 19 5 8 -3 17 -1 20 5 4 6 13 8 20 5 7 -3 16 1 19 8 2 7
17 14 32 16 24 2 26 0 15 -13z m505 -6085 c-3 -5 -12 -10 -18 -10 -7 0 -6 4 3
10 19 12 23 12 15 0z"/>
</g>
</svg>
