<?xml version="1.0" standalone="no"?>
<!DOCTYPE svg PUBLIC "-//W3C//DTD SVG 20010904//EN"
 "http://www.w3.org/TR/2001/REC-SVG-20010904/DTD/svg10.dtd">
<svg version="1.0" xmlns="http://www.w3.org/2000/svg"
 width="171.000000pt" height="166.000000pt" viewBox="0 0 171.000000 166.000000"
 preserveAspectRatio="xMidYMid meet">
<metadata>
Created by potrace 1.13, written by Peter Selinger 2001-2015
</metadata>
<g transform="translate(0.000000,166.000000) scale(0.100000,-0.100000)"
fill="#000000" stroke="none">
<path d="M990 1579 c-60 -15 -142 -18 -229 -7 -105 13 -171 0 -256 -51 -55
-33 -81 -53 -139 -106 -76 -71 -172 -262 -207 -410 -32 -134 -35 -419 -5 -530
32 -124 106 -291 182 -417 l35 -58 84 0 c90 0 95 3 95 61 0 16 -24 91 -54 167
-79 200 -87 232 -93 377 -10 221 25 363 125 517 99 154 234 223 384 198 212
-36 354 -176 409 -406 17 -72 20 -107 16 -185 -11 -189 -22 -249 -113 -609
-27 -107 -15 -123 80 -113 40 4 60 11 64 22 3 9 19 39 35 66 51 87 154 298
170 350 48 152 52 170 51 300 0 126 -25 307 -45 330 -5 5 -9 16 -9 25 0 51
-128 243 -219 328 -61 57 -230 147 -291 156 -19 2 -51 0 -70 -5z"/>
</g>
</svg>
