<?xml version="1.0" standalone="no"?>
<!DOCTYPE svg PUBLIC "-//W3C//DTD SVG 20010904//EN"
 "http://www.w3.org/TR/2001/REC-SVG-20010904/DTD/svg10.dtd">
<svg version="1.0" xmlns="http://www.w3.org/2000/svg"
 width="91.000000pt" height="108.000000pt" viewBox="0 0 91.000000 108.000000"
 preserveAspectRatio="xMidYMid meet">
<metadata>
Created by potrace 1.13, written by Peter Selinger 2001-2015
</metadata>
<g transform="translate(0.000000,108.000000) scale(0.100000,-0.100000)"
fill="#000000" stroke="none">
<path d="M645 1069 c-33 -33 -111 -99 -117 -99 -15 0 -8 -33 21 -94 68 -142
97 -359 58 -437 -36 -73 -161 -107 -234 -64 -58 34 -74 73 -75 177 0 78 5 108
32 187 17 52 42 119 56 148 13 30 24 59 24 66 0 17 -159 117 -187 117 -12 0
-23 -5 -23 -11 0 -6 -9 -24 -21 -40 -15 -21 -20 -39 -16 -62 4 -25 -9 -60 -59
-162 -102 -209 -125 -335 -86 -475 23 -81 83 -176 139 -219 50 -37 162 -76
248 -86 71 -8 194 15 270 49 97 44 183 160 211 283 33 149 8 304 -83 516 -18
43 -33 94 -33 112 0 25 -9 41 -40 69 -40 36 -66 44 -85 25z m62 -75 c9 -9 20
-35 23 -58 4 -22 9 -48 12 -56 3 -8 3 -12 1 -7 -6 9 -45 9 -67 1 -27 -10 -18
-84 10 -84 29 0 64 24 65 44 1 27 37 -52 73 -158 21 -62 26 -99 27 -180 2
-112 -9 -150 -69 -246 -75 -121 -112 -139 -219 -109 -105 30 -125 32 -171 15
-24 -9 -65 -18 -92 -22 -61 -8 -103 15 -153 84 -50 69 -65 101 -78 176 -19
112 7 210 106 401 44 85 56 116 52 140 -5 28 11 65 27 65 4 0 29 -15 55 -33
l49 -32 -18 -35 c-32 -64 -81 -221 -90 -292 -10 -83 1 -176 27 -221 10 -18 40
-47 67 -64 38 -26 58 -33 98 -33 84 0 137 19 183 66 48 48 65 99 65 192 0 74
-40 259 -72 332 l-24 54 44 38 c24 21 46 38 48 38 3 0 13 -7 21 -16z"/>
<path d="M230 881 c-5 -11 -10 -27 -10 -36 0 -19 43 -40 64 -32 21 8 31 54 16
72 -18 21 -57 19 -70 -4z"/>
<path d="M150 694 c-17 -42 -12 -53 26 -60 40 -7 54 4 54 43 0 44 -65 58 -80
17z"/>
<path d="M727 684 c-4 -4 -7 -22 -7 -41 0 -32 1 -33 41 -33 l40 0 -3 38 c-3
33 -6 37 -33 40 -17 2 -34 0 -38 -4z"/>
<path d="M100 470 l0 -40 45 0 45 0 0 40 0 40 -45 0 -45 0 0 -40z"/>
<path d="M727 483 c-4 -3 -7 -21 -7 -39 0 -31 16 -43 57 -44 19 0 35 39 29 66
-5 19 -13 24 -40 24 -18 0 -36 -3 -39 -7z"/>
<path d="M193 298 c-27 -13 -29 -30 -7 -63 19 -30 40 -31 74 -6 21 17 23 23
15 48 -12 31 -44 40 -82 21z"/>
<path d="M642 280 c-16 -27 -15 -40 6 -56 39 -30 82 -10 82 37 0 42 -65 56
-88 19z"/>
</g>
</svg>
