<?xml version="1.0" standalone="no"?>
<!DOCTYPE svg PUBLIC "-//W3C//DTD SVG 20010904//EN"
 "http://www.w3.org/TR/2001/REC-SVG-20010904/DTD/svg10.dtd">
<svg version="1.0" xmlns="http://www.w3.org/2000/svg"
 width="171.000000pt" height="166.000000pt" viewBox="0 0 171.000000 166.000000"
 preserveAspectRatio="xMidYMid meet">
<metadata>
Created by potrace 1.13, written by Peter Selinger 2001-2015
</metadata>
<g transform="translate(0.000000,166.000000) scale(0.100000,-0.100000)"
fill="#000000" stroke="none">
<path d="M392 1653 c-29 -3 -45 -10 -49 -21 -4 -9 -20 -39 -36 -67 -51 -87
-154 -298 -170 -350 -48 -152 -52 -170 -51 -300 0 -126 25 -307 45 -330 5 -5
9 -16 9 -25 0 -52 129 -244 219 -327 58 -54 171 -119 255 -147 41 -14 58 -15
105 -5 81 17 135 19 230 7 105 -13 171 0 256 51 55 33 81 53 139 106 76 71
172 262 207 410 32 134 35 419 5 530 -32 124 -106 291 -182 417 l-35 58 -84 0
c-90 0 -95 -3 -95 -61 0 -16 24 -91 54 -167 79 -200 87 -232 93 -377 10 -221
-25 -363 -125 -517 -99 -154 -234 -223 -384 -198 -212 36 -354 176 -409 406
-17 72 -20 107 -16 185 9 150 27 263 65 414 19 77 42 173 51 213 15 71 15 74
-4 88 -10 8 -26 13 -34 12 -9 -1 -35 -3 -59 -5z"/>
</g>
</svg>
