<?xml version="1.0" standalone="no"?>
<!DOCTYPE svg PUBLIC "-//W3C//DTD SVG 20010904//EN"
 "http://www.w3.org/TR/2001/REC-SVG-20010904/DTD/svg10.dtd">
<svg version="1.0" xmlns="http://www.w3.org/2000/svg"
 width="88.000000pt" height="102.000000pt" viewBox="0 0 88.000000 102.000000"
 preserveAspectRatio="xMidYMid meet">
<metadata>
Created by potrace 1.13, written by Peter Selinger 2001-2015
</metadata>
<g transform="translate(0.000000,102.000000) scale(0.100000,-0.100000)"
fill="#000000" stroke="none">
<path d="M419 979 c-19 -17 -53 -39 -76 -50 -133 -61 -218 -131 -267 -221 -32
-57 -39 -82 -48 -167 -9 -89 -8 -110 12 -201 12 -57 26 -110 30 -119 5 -9 23
-47 40 -85 42 -96 61 -112 141 -120 37 -4 83 -4 103 -1 31 6 36 11 36 35 0 15
-7 33 -16 41 -48 39 -109 218 -119 346 -9 124 53 231 150 260 67 19 168 -6
210 -51 78 -85 55 -281 -55 -481 -46 -83 -48 -100 -18 -127 24 -20 37 -24 113
-32 l50 -5 42 73 c23 40 50 90 58 112 9 21 22 53 30 69 7 17 21 76 31 133 16
97 16 107 -1 189 -29 148 -71 212 -197 300 -43 30 -84 62 -91 72 -20 28 -74
61 -99 61 -14 0 -40 -14 -59 -31z"/>
</g>
</svg>
