<?xml version="1.0" standalone="no"?>
<!DOCTYPE svg PUBLIC "-//W3C//DTD SVG 20010904//EN"
 "http://www.w3.org/TR/2001/REC-SVG-20010904/DTD/svg10.dtd">
<svg version="1.0" xmlns="http://www.w3.org/2000/svg"
 width="59.000000pt" height="61.000000pt" viewBox="0 0 59.000000 61.000000"
 preserveAspectRatio="xMidYMid meet">
<metadata>
Created by potrace 1.13, written by Peter Selinger 2001-2015
</metadata>
<g transform="translate(0.000000,61.000000) scale(0.100000,-0.100000)"
fill="#000000" stroke="none">
<path d="M207 585 c-36 -13 -90 -47 -112 -70 -91 -91 -111 -299 -43 -462 l22
-53 64 0 64 0 -5 27 c-3 16 -12 55 -21 88 -42 165 54 314 168 260 87 -41 116
-151 70 -261 -18 -42 -18 -88 -1 -103 8 -6 33 -8 66 -4 52 6 53 6 77 61 26 60
31 102 12 102 -8 1 -6 6 4 14 14 10 18 27 17 80 -1 36 -5 66 -10 66 -5 0 -7
11 -3 25 6 25 -46 155 -63 155 -4 0 -21 12 -38 26 -16 14 -46 32 -65 41 -51
21 -157 26 -203 8z"/>
</g>
</svg>
