<?xml version="1.0" standalone="no"?>
<!DOCTYPE svg PUBLIC "-//W3C//DTD SVG 20010904//EN"
 "http://www.w3.org/TR/2001/REC-SVG-20010904/DTD/svg10.dtd">
<svg version="1.0" xmlns="http://www.w3.org/2000/svg"
 width="847.000000pt" height="839.000000pt" viewBox="0 0 847.000000 839.000000"
 preserveAspectRatio="xMidYMid meet">
<metadata>
Created by potrace 1.13, written by Peter Selinger 2001-2015
</metadata>
<g transform="translate(0.000000,839.000000) scale(0.100000,-0.100000)"
fill="#000000" stroke="none">
<path d="M4215 7830 c-4 -6 -10 -8 -15 -5 -10 6 -64 -50 -66 -67 0 -7 -7 -27
-14 -45 -11 -24 -19 -31 -35 -28 -11 2 -21 4 -22 6 -2 1 -11 2 -20 3 -10 1
-29 6 -43 11 -14 4 -45 9 -70 11 -25 2 -45 4 -45 4 0 1 -35 3 -77 4 -55 1 -79
-2 -82 -11 -3 -7 -12 -13 -21 -13 -8 0 -15 -3 -15 -7 0 -15 -71 -18 -185 -8
-44 3 -86 7 -92 7 -7 1 -13 4 -13 8 0 4 -15 8 -32 8 -18 0 -35 1 -38 2 -3 1
-16 3 -30 4 -14 1 -34 6 -45 12 -36 19 -131 9 -164 -17 -17 -13 -44 -34 -61
-47 -17 -13 -28 -27 -25 -32 3 -5 1 -11 -5 -15 -6 -4 -8 -11 -5 -16 4 -5 1 -9
-4 -9 -6 0 -11 -5 -11 -11 0 -6 -7 -17 -15 -25 -16 -16 -9 -37 27 -77 9 -11
15 -27 13 -38 -2 -11 8 -28 25 -43 16 -13 27 -26 24 -29 -6 -5 45 -40 66 -45
8 -2 22 -4 31 -6 9 -1 28 -9 41 -18 20 -13 28 -14 38 -5 10 9 14 9 17 0 3 -7
9 -13 14 -13 6 0 39 -13 74 -30 35 -16 70 -30 78 -30 7 0 17 -3 21 -7 4 -5 11
-8 14 -9 31 -4 122 -82 122 -104 0 -5 11 -12 25 -16 14 -3 25 -9 25 -13 0 -4
19 -15 43 -25 109 -47 127 -58 134 -84 11 -47 10 -126 -4 -166 -7 -21 -10 -42
-7 -47 3 -5 0 -9 -6 -9 -7 0 -10 -7 -6 -15 3 -8 1 -15 -5 -15 -6 0 -8 -4 -4
-9 3 -5 0 -13 -5 -16 -10 -6 -25 -36 -30 -60 -1 -5 -6 -16 -12 -22 -6 -7 -7
-13 -2 -13 5 0 4 -4 -3 -8 -7 -4 -15 -23 -18 -42 -3 -19 -22 -69 -42 -110 -20
-41 -38 -83 -40 -92 -1 -9 -10 -36 -19 -60 -8 -24 -17 -52 -19 -63 -2 -11 -4
-21 -5 -22 -2 -2 -3 -6 -4 -10 -7 -28 -47 -144 -59 -173 -8 -19 -16 -39 -17
-45 -1 -5 -11 -20 -22 -32 -12 -13 -18 -23 -13 -23 4 0 1 -8 -7 -17 -9 -10
-17 -23 -19 -29 -7 -20 -72 -97 -118 -139 -53 -48 -80 -75 -102 -101 -9 -10
-30 -30 -48 -44 -17 -14 -31 -30 -31 -37 0 -7 -4 -13 -9 -13 -5 0 -16 -12 -23
-27 -23 -45 -42 -78 -50 -83 -17 -13 -43 -105 -53 -185 -2 -16 -8 -45 -14 -64
-6 -19 -8 -38 -5 -42 3 -5 0 -9 -6 -9 -7 0 -10 -6 -7 -14 3 -8 1 -16 -4 -18
-5 -2 -11 -13 -12 -26 0 -12 -4 -22 -8 -22 -3 0 -12 -19 -18 -42 -7 -24 -18
-49 -24 -56 -6 -8 -7 -16 0 -23 5 -5 7 -31 3 -60 -4 -27 -3 -52 2 -55 5 -3 6
-8 4 -12 -2 -4 0 -31 5 -59 8 -45 7 -60 -13 -105 -12 -29 -26 -56 -31 -59 -5
-4 -6 -12 -3 -18 4 -6 2 -11 -4 -11 -7 0 -10 -7 -6 -15 3 -8 1 -15 -4 -15 -5
0 -12 -11 -16 -25 -3 -14 -10 -25 -15 -25 -5 0 -6 -7 -3 -15 4 -8 1 -15 -6
-15 -7 0 -10 -6 -7 -14 3 -8 3 -16 -1 -18 -9 -4 -42 -75 -42 -89 0 -6 -8 -29
-19 -52 -22 -50 -31 -75 -30 -83 0 -4 -5 -10 -13 -15 -7 -5 -13 -12 -13 -16
-1 -15 -57 -118 -66 -121 -5 -2 -9 -9 -9 -14 0 -6 -12 -32 -27 -57 -15 -25
-29 -55 -30 -66 -2 -10 -9 -23 -16 -27 -6 -4 -12 -11 -12 -15 -1 -4 -9 -24
-20 -43 -11 -19 -18 -38 -17 -42 1 -5 -2 -8 -7 -8 -5 0 -8 -12 -8 -26 -1 -15
-7 -30 -14 -35 -8 -5 -10 -9 -5 -9 5 0 3 -6 -3 -13 -6 -8 -8 -17 -4 -20 3 -4
1 -7 -6 -7 -8 0 -11 -7 -7 -15 3 -8 2 -15 -3 -15 -4 0 -13 -18 -20 -40 -6 -22
-16 -40 -22 -40 -6 0 -9 -6 -7 -12 5 -13 -1 -22 -42 -66 -14 -14 -24 -29 -23
-32 3 -6 -36 -55 -84 -109 -19 -20 -41 -48 -50 -63 -10 -16 -22 -28 -28 -28
-6 0 -28 -18 -50 -40 -22 -21 -48 -39 -57 -40 -10 0 -18 -5 -18 -11 0 -5 -4
-7 -10 -4 -5 3 -10 1 -10 -4 0 -6 -7 -11 -15 -11 -8 0 -15 -3 -15 -8 0 -4 -35
-8 -77 -10 -117 -3 -143 -6 -143 -16 0 -4 -6 -6 -14 -3 -8 3 -17 -1 -20 -9 -3
-9 -10 -13 -16 -9 -12 7 -51 -31 -47 -47 1 -7 8 -18 14 -26 7 -7 16 -18 20
-25 23 -35 145 -117 181 -122 15 -2 27 -4 27 -5 0 -7 47 -5 51 2 3 4 9 6 14 3
10 -6 40 40 46 73 10 51 17 53 64 12 30 -26 37 -28 46 -15 6 8 14 12 17 9 3
-3 12 3 19 15 7 12 18 21 24 21 10 0 28 28 24 38 -1 2 6 9 14 15 9 7 17 21 19
32 9 45 47 104 109 167 16 15 28 30 28 34 0 4 12 17 26 30 14 13 23 28 20 33
-3 4 6 14 20 21 13 8 23 18 21 24 -3 10 10 28 71 95 18 20 40 51 48 69 8 17
19 32 24 32 6 0 33 24 62 53 28 28 54 51 57 50 3 0 12 5 19 13 7 8 10 14 6 14
-3 0 5 15 18 32 13 18 27 41 31 51 3 9 11 17 17 17 5 0 10 5 10 11 0 6 6 16
13 23 6 7 30 35 52 61 22 26 48 56 58 66 9 11 17 21 17 24 0 3 16 22 35 42 19
20 35 41 35 45 0 4 6 8 14 8 8 0 17 7 20 16 4 9 9 14 13 11 3 -4 1 -12 -5 -19
-6 -7 -11 -16 -12 -20 -9 -37 -14 -48 -21 -48 -5 0 -9 -4 -9 -9 0 -5 -7 -25
-15 -45 -8 -20 -15 -39 -14 -42 0 -3 -9 -14 -20 -23 -11 -10 -18 -21 -15 -24
3 -3 -5 -17 -18 -32 -13 -15 -22 -30 -21 -33 1 -4 -6 -15 -14 -24 -9 -10 -12
-18 -8 -18 5 0 -3 -12 -17 -28 -24 -25 -62 -115 -103 -239 -9 -29 -21 -53 -26
-53 -5 0 -8 -3 -7 -7 1 -5 -4 -21 -11 -38 -7 -16 -13 -32 -13 -35 0 -3 -11
-18 -24 -33 -13 -16 -24 -35 -24 -43 0 -8 -5 -14 -11 -14 -6 0 -9 -5 -7 -11 2
-6 -9 -25 -24 -41 -15 -17 -26 -34 -23 -38 3 -4 -2 -13 -10 -20 -8 -7 -15 -9
-15 -4 0 4 -6 -1 -14 -11 -8 -11 -13 -22 -11 -25 2 -3 -3 -11 -11 -18 -8 -7
-14 -11 -14 -8 0 3 -31 -25 -69 -62 -105 -103 -115 -110 -173 -120 -16 -2 -28
-9 -28 -15 0 -6 -3 -7 -7 -4 -3 4 -12 2 -20 -5 -7 -6 -16 -8 -19 -5 -3 3 -19
1 -35 -3 -16 -5 -31 -5 -34 0 -3 5 -21 2 -40 -7 -28 -14 -34 -21 -29 -37 4
-12 12 -24 18 -28 6 -4 7 -8 2 -8 -5 0 8 -15 29 -32 22 -18 53 -48 70 -66 39
-40 121 -86 130 -72 4 6 10 8 15 5 11 -7 53 62 45 75 -3 5 -2 10 3 10 5 0 9
10 8 22 -1 15 9 31 28 45 29 22 29 22 46 3 10 -11 22 -20 28 -20 25 0 89 86
84 112 -1 3 5 12 13 18 8 7 15 18 15 25 0 6 9 20 20 30 11 10 18 21 15 24 -2
4 9 23 26 42 16 19 29 40 29 47 0 6 5 12 10 12 6 0 10 5 10 11 0 7 10 20 22
30 11 11 18 19 14 19 -8 0 45 73 57 78 4 2 5 8 1 13 -3 5 0 9 5 9 6 0 11 4 11
10 0 5 8 19 18 30 9 11 17 24 17 28 0 7 25 39 53 68 7 8 10 18 7 24 -4 6 -2 9
3 8 5 -2 23 11 39 27 17 17 40 37 51 45 12 8 22 18 22 22 0 8 38 53 79 95 7 8
11 16 8 20 -3 3 7 19 23 37 17 17 30 36 30 41 0 10 15 29 81 104 16 18 27 36
25 39 -3 2 18 28 47 57 74 76 117 124 117 133 0 4 10 14 21 22 12 8 34 28 48
44 65 73 57 71 104 29 23 -21 61 -58 84 -83 23 -25 50 -54 61 -65 10 -11 38
-46 61 -77 24 -32 47 -58 52 -58 5 0 9 -7 9 -15 0 -8 5 -15 10 -15 6 0 10 -5
10 -10 0 -12 95 -106 160 -159 25 -20 61 -51 80 -68 19 -18 44 -36 54 -39 11
-4 34 -19 50 -35 17 -16 37 -29 45 -29 7 0 21 -8 30 -19 9 -10 26 -21 39 -25
12 -4 22 -12 22 -17 0 -5 7 -9 15 -9 9 0 33 -11 54 -24 21 -14 42 -22 45 -19
3 4 6 1 6 -6 0 -7 4 -10 9 -6 5 3 15 0 23 -7 18 -17 100 -58 116 -58 6 0 12
-4 12 -10 0 -5 6 -10 13 -10 18 0 57 -34 57 -49 0 -6 5 -11 12 -11 6 0 9 -3 6
-6 -3 -3 4 -15 17 -28 16 -16 21 -31 18 -49 -5 -24 19 -58 40 -57 13 1 63 -28
76 -44 11 -13 11 -16 1 -16 -9 0 -10 -3 -1 -13 6 -8 7 -17 3 -21 -4 -4 -7 -17
-8 -29 0 -12 -5 -31 -11 -42 -11 -20 -28 -94 -25 -107 1 -5 -2 -8 -7 -8 -5 0
-8 -20 -7 -45 1 -25 -3 -45 -8 -45 -5 0 -7 -3 -3 -6 3 -3 -4 -31 -15 -62 -11
-32 -21 -63 -22 -70 -1 -8 -7 -17 -12 -20 -5 -4 -10 -20 -12 -37 -2 -16 -8
-35 -14 -42 -6 -7 -8 -13 -5 -13 3 0 -1 -16 -9 -35 -8 -19 -11 -35 -8 -35 4 0
-1 -9 -11 -20 -10 -11 -15 -20 -12 -20 3 0 1 -15 -4 -32 -5 -18 -12 -46 -15
-63 -3 -16 -9 -34 -14 -40 -5 -6 -10 -26 -12 -43 -1 -18 -6 -32 -11 -32 -5 0
-7 -6 -4 -14 3 -8 0 -17 -8 -20 -7 -2 -11 -13 -9 -23 3 -11 -9 -32 -31 -55
-19 -20 -35 -39 -35 -43 0 -3 -16 -22 -35 -42 -19 -20 -33 -39 -30 -42 2 -4
-12 -25 -32 -47 -19 -21 -48 -59 -64 -84 -16 -25 -29 -41 -29 -36 0 5 -8 -1
-19 -12 -10 -12 -22 -22 -27 -22 -5 0 -15 -9 -22 -20 -7 -12 -17 -18 -22 -15
-6 3 -10 -1 -10 -9 0 -9 -7 -16 -15 -16 -7 0 -18 -8 -24 -17 -5 -10 -13 -16
-16 -15 -4 2 -20 -8 -36 -22 -16 -14 -32 -26 -36 -26 -5 0 -26 -16 -47 -35
-22 -19 -43 -32 -48 -29 -4 3 -8 1 -8 -5 0 -5 -16 -15 -36 -21 -19 -7 -38 -18
-41 -26 -3 -8 -8 -12 -12 -9 -4 2 -18 -2 -32 -9 -13 -7 -30 -11 -37 -8 -6 2
-12 -1 -12 -7 0 -6 -3 -10 -7 -9 -12 3 -55 -13 -82 -31 -13 -8 -34 -16 -45
-17 -42 -3 -109 -15 -133 -25 -14 -5 -29 -7 -34 -3 -5 3 -9 0 -9 -7 0 -9 -3
-10 -11 -2 -13 13 -85 -1 -102 -20 -11 -11 -12 -18 -8 -52 3 -27 105 -135 127
-135 7 0 20 -7 28 -16 9 -8 16 -12 16 -8 0 3 6 2 13 -3 19 -15 56 -22 63 -12
3 5 9 7 13 5 17 -11 88 75 77 92 -3 6 8 12 24 14 20 3 30 0 30 -9 0 -7 5 -13
12 -13 6 0 8 -3 5 -7 -4 -3 1 -12 10 -18 18 -13 27 -9 61 28 9 9 22 17 29 17
7 0 13 5 13 10 0 6 6 10 13 10 6 0 21 14 32 30 11 16 23 30 28 30 4 0 7 8 7
17 0 9 3 13 7 10 3 -4 17 3 30 15 13 12 23 18 23 15 0 -4 13 7 29 23 15 17 38
30 50 30 12 0 21 6 21 16 0 8 4 13 9 9 6 -3 14 3 20 12 6 10 11 15 11 11 0 -4
30 13 68 38 37 24 74 44 82 44 8 0 21 9 28 20 7 12 17 18 22 15 6 -3 10 1 10
10 0 9 4 14 9 10 5 -3 16 2 25 10 9 9 26 17 38 18 31 3 98 29 98 38 0 9 96 59
114 59 8 0 16 5 18 11 2 5 18 11 36 11 18 1 37 7 43 14 6 8 15 11 20 8 5 -3 9
2 9 10 0 9 4 16 8 16 12 0 30 42 26 63 -1 9 2 17 7 17 6 0 9 6 8 13 -4 18 33
127 43 127 5 0 7 4 3 9 -3 5 -1 12 5 16 6 4 8 10 5 15 -3 5 -1 11 5 15 6 4 8
11 5 16 -4 5 -2 9 4 9 6 0 8 6 5 14 -3 7 2 16 11 20 9 3 14 10 11 14 -3 5 6
21 20 37 13 15 24 34 24 41 0 7 3 14 8 16 4 2 20 20 35 41 15 20 33 37 40 37
7 0 18 9 25 20 7 11 16 20 21 20 9 0 7 -43 -3 -59 -6 -10 -17 -89 -17 -123 0
-10 -4 -18 -8 -18 -4 0 -7 -13 -6 -30 1 -16 -1 -30 -4 -30 -3 0 -6 -24 -6 -52
1 -29 -3 -60 -7 -68 -16 -32 -57 -164 -53 -171 3 -4 -2 -10 -10 -13 -8 -3 -14
-9 -13 -13 1 -4 -8 -30 -20 -57 -12 -27 -22 -52 -22 -57 0 -11 -43 -83 -52
-87 -4 -2 -4 -10 -1 -18 3 -8 1 -14 -4 -14 -6 0 -16 -18 -23 -40 -7 -22 -17
-40 -22 -40 -4 0 -7 -3 -6 -8 2 -13 -14 -46 -35 -69 -11 -13 -18 -23 -14 -23
6 0 -21 -43 -61 -99 -9 -13 -29 -37 -44 -52 -16 -15 -28 -31 -28 -35 0 -9 -61
-64 -72 -64 -4 0 -8 -5 -8 -11 0 -15 -26 -39 -34 -32 -3 4 -6 2 -6 -4 0 -6 -8
-13 -17 -17 -25 -8 -53 -26 -97 -63 -8 -7 -19 -13 -25 -13 -5 0 -11 -7 -15
-15 -3 -8 -12 -15 -20 -15 -7 0 -16 -6 -19 -14 -5 -13 -131 -47 -192 -52 -16
-1 -30 -3 -30 -4 0 -1 -10 -3 -22 -6 -13 -2 -34 -13 -47 -25 -21 -18 -23 -25
-15 -47 5 -14 20 -34 32 -45 58 -51 110 -92 116 -93 3 0 26 -10 51 -21 59 -26
120 -16 120 21 0 7 6 18 13 24 6 7 13 17 13 22 1 6 3 12 4 15 1 3 3 10 4 16 1
10 37 18 99 22 9 1 17 5 17 9 0 4 6 8 14 8 8 0 21 7 30 15 8 9 17 14 19 13 4
-3 104 113 105 122 2 22 25 61 55 94 20 22 34 43 31 47 -2 4 5 11 17 14 11 4
18 12 16 18 -5 13 18 39 26 31 3 -3 15 9 27 26 13 18 32 42 44 55 11 12 39 46
61 73 22 28 44 51 49 52 5 0 17 10 27 22 11 11 19 18 19 14 0 -4 7 -1 15 8 8
8 15 19 15 25 0 6 4 11 9 11 13 0 71 56 71 69 0 6 5 11 12 11 12 0 23 8 85 71
23 23 42 44 41 48 0 3 1 8 2 11 3 9 10 45 15 78 3 18 9 42 15 51 5 10 7 21 3
24 -3 4 0 13 7 22 7 8 10 15 7 15 -3 0 1 21 9 47 8 27 17 59 20 72 3 13 9 32
15 43 5 10 7 22 5 27 -3 5 1 12 10 15 8 3 13 10 9 15 -3 5 -1 12 5 16 6 4 8
10 6 14 -3 4 8 22 23 39 16 17 39 45 51 62 12 17 24 29 27 26 3 -2 23 13 46
35 23 21 45 39 49 39 3 0 13 6 20 13 23 21 75 47 82 40 3 -3 6 -1 6 6 0 7 5 9
10 6 6 -3 10 -1 10 6 0 7 3 10 6 6 4 -3 -10 -25 -30 -48 -20 -24 -36 -49 -36
-56 0 -8 -5 -11 -10 -8 -9 6 -35 -41 -32 -56 1 -4 -10 -19 -24 -34 -14 -15
-23 -30 -20 -33 3 -3 -4 -13 -15 -23 -12 -10 -18 -23 -14 -28 3 -6 2 -11 -4
-11 -6 0 -16 -18 -22 -40 -7 -22 -16 -40 -20 -40 -5 0 -6 -6 -3 -14 3 -7 -2
-16 -10 -19 -9 -4 -13 -15 -11 -26 2 -11 -1 -23 -6 -26 -5 -4 -7 -11 -4 -16 4
-5 2 -9 -4 -9 -6 0 -8 -7 -5 -15 4 -8 1 -15 -6 -15 -6 0 -9 -4 -5 -9 3 -5 1
-12 -5 -16 -6 -4 -8 -10 -5 -15 3 -5 1 -11 -5 -15 -6 -4 -8 -11 -5 -16 4 -5 2
-9 -3 -9 -5 0 -15 -14 -22 -30 -7 -17 -17 -30 -22 -30 -5 0 -6 -4 -3 -10 3 -5
-9 -26 -27 -46 -40 -44 -43 -70 -8 -66 l24 3 -26 -28 c-14 -16 -34 -39 -44
-52 -11 -14 -31 -38 -47 -54 -15 -16 -25 -33 -21 -38 3 -5 -1 -9 -8 -9 -8 -1
-5 -7 7 -16 19 -14 19 -16 4 -43 -15 -26 -15 -30 3 -52 14 -17 21 -20 25 -11
4 10 9 8 21 -6 11 -11 30 -18 52 -17 19 0 53 -8 75 -17 22 -9 42 -13 45 -8 3
5 17 3 32 -4 23 -12 27 -12 32 0 3 8 12 14 21 14 8 0 15 5 15 10 0 6 7 10 15
10 9 0 18 7 21 15 4 8 10 13 14 10 4 -3 18 11 31 30 13 20 34 38 46 41 12 3
37 24 55 47 18 22 43 51 56 63 12 13 22 28 22 34 0 5 5 10 10 10 6 0 10 6 10
13 0 7 9 18 20 25 11 7 20 21 20 31 0 10 7 21 15 25 8 3 15 14 15 25 0 11 7
26 15 35 8 8 15 17 15 21 0 3 11 16 25 29 13 13 26 33 28 45 2 12 10 30 18 39
8 9 19 27 24 38 9 19 48 69 110 139 11 13 33 39 49 59 15 20 32 33 37 30 5 -3
9 -1 9 5 0 6 23 33 52 61 28 27 48 50 43 50 -4 0 4 9 19 21 14 11 26 25 26 31
0 5 11 19 25 30 14 11 22 25 18 31 -3 7 -3 9 2 5 7 -6 35 14 35 25 0 3 17 23
38 45 56 60 92 106 92 120 0 6 5 12 10 12 6 0 10 5 10 11 0 7 8 19 18 28 14
13 42 61 47 81 0 3 11 21 23 40 12 19 22 41 22 48 0 6 5 12 11 12 6 0 9 7 5
15 -3 8 -1 15 5 15 6 0 7 4 4 10 -3 5 -2 10 3 10 5 0 10 12 10 26 0 15 3 29 8
33 9 6 11 16 18 72 1 14 6 31 10 37 4 7 2 12 -5 12 -8 0 -8 4 -2 13 8 10 11
72 4 72 -2 0 -4 14 -5 30 -4 35 -10 59 -25 98 -6 15 -8 27 -6 27 3 0 -2 11
-11 25 -9 14 -13 25 -9 25 4 0 2 7 -5 15 -7 8 -9 15 -4 15 5 0 1 5 -9 11 -9 6
-15 14 -12 20 4 5 1 9 -4 9 -6 0 -11 6 -11 13 0 7 -10 19 -21 27 -12 8 -27 20
-33 26 -6 6 -24 19 -41 30 -33 21 -38 25 -74 54 -13 11 -30 20 -38 20 -7 0
-13 5 -13 12 0 6 -3 8 -6 5 -14 -14 -129 87 -118 104 3 5 -2 12 -10 15 -9 3
-16 14 -16 23 0 9 -5 22 -12 29 -7 7 -9 12 -5 12 4 0 -4 17 -18 37 -14 21 -25
43 -25 50 0 7 -4 13 -9 13 -4 0 -27 28 -51 63 -24 34 -60 77 -81 96 -22 18
-37 36 -35 40 2 3 -20 24 -50 46 -29 22 -56 48 -60 58 -3 9 -22 26 -42 37 -20
10 -51 32 -68 47 -66 58 -89 77 -94 75 -5 -2 -62 42 -86 66 -7 6 -16 12 -21
12 -5 0 -18 7 -28 15 -41 31 -91 65 -126 84 -19 11 -41 27 -48 35 -7 9 -17 14
-21 11 -4 -2 -15 4 -25 15 -10 11 -23 20 -29 20 -7 0 -32 18 -56 40 -25 22
-51 40 -58 40 -14 0 -80 60 -66 60 10 1 -27 24 -38 25 -3 0 -28 19 -55 42 -26
23 -65 55 -86 72 -21 16 -37 32 -35 34 2 2 -21 29 -49 58 -79 81 -103 111
-103 125 0 8 -4 14 -10 14 -5 0 -10 7 -10 15 0 8 -5 15 -12 15 -6 0 -9 3 -5 6
3 4 -5 26 -18 51 -14 24 -25 52 -25 61 0 10 -6 26 -14 37 -7 11 -13 35 -12 53
1 19 -2 36 -7 39 -4 2 -5 8 -2 13 3 5 -1 22 -9 38 -8 16 -17 48 -20 73 -2 24
-5 46 -7 49 -1 3 -3 12 -4 20 -3 35 -19 76 -34 87 -14 11 -14 12 -1 13 9 0 11
3 5 8 -6 4 -16 29 -23 57 -7 27 -19 57 -26 65 -7 8 -11 21 -9 28 3 6 -1 12 -7
12 -7 0 -9 8 -5 20 4 12 2 20 -5 20 -7 0 -8 6 -1 18 7 13 6 23 -1 30 -7 7 -9
12 -6 12 3 0 -1 28 -9 63 -8 34 -16 83 -17 109 -2 25 -7 52 -11 59 -4 6 -9 50
-11 98 -2 47 -5 95 -7 106 -3 11 0 25 5 32 5 7 5 14 -2 18 -6 4 -7 13 -1 23
10 19 3 82 -9 82 -4 0 -11 15 -15 33 -10 41 -13 97 -5 97 12 0 14 53 7 168 -2
40 0 72 5 72 5 0 6 6 1 13 -12 19 -15 37 -17 117 -2 41 -8 85 -15 98 -6 12 -9
22 -5 22 3 0 1 7 -6 15 -6 8 -9 18 -6 23 3 5 -4 29 -16 53 -12 24 -21 52 -20
61 0 10 -3 20 -9 23 -5 4 -9 16 -9 28 0 12 -11 46 -25 75 -13 28 -21 52 -18
52 3 0 0 6 -6 13 -6 8 -8 17 -4 20 3 4 1 7 -5 7 -7 0 -11 3 -10 8 1 4 -8 26
-20 48 -11 23 -18 44 -15 48 4 3 1 6 -6 6 -7 0 -10 4 -6 9 3 6 -1 13 -8 18
-17 10 -61 73 -51 73 4 0 -6 11 -21 24 -28 24 -28 25 -15 68 8 24 15 59 17 78
2 19 8 39 13 44 6 6 -1 18 -17 32 l-26 22 -24 -29 c-14 -16 -22 -33 -19 -37 3
-5 -1 -18 -9 -28 -14 -18 -15 -17 -11 11 2 17 5 32 6 35 1 3 2 8 1 13 0 4 3 7
8 7 6 0 9 9 8 21 -2 24 -32 45 -42 29z m-262 -6599 c15 -11 16 -15 6 -22 -9
-5 -20 -1 -32 12 -10 10 -23 19 -30 19 -7 0 -3 7 8 16 15 11 21 12 24 2 2 -7
13 -19 24 -27z m-248 -41 c11 -18 14 -49 5 -55 -6 -4 -30 44 -30 61 0 8 19 3
25 -6z"/>
</g>
</svg>
