<?xml version="1.0" standalone="no"?>
<!DOCTYPE svg PUBLIC "-//W3C//DTD SVG 20010904//EN"
 "http://www.w3.org/TR/2001/REC-SVG-20010904/DTD/svg10.dtd">
<svg version="1.0" xmlns="http://www.w3.org/2000/svg"
 width="760.000000pt" height="383.000000pt" viewBox="0 0 760.000000 383.000000"
 preserveAspectRatio="xMidYMid meet">
<metadata>
Created by potrace 1.13, written by Peter Selinger 2001-2015
</metadata>
<g transform="translate(0.000000,383.000000) scale(0.100000,-0.100000)"
fill="#000000" stroke="none">
<path d="M6050 3786 c0 -18 7 -53 15 -76 8 -23 15 -59 15 -79 0 -40 -9 -46
-107 -75 -76 -21 -173 -72 -224 -117 -42 -37 -144 -92 -192 -104 -13 -4 -35
-16 -48 -29 -13 -12 -48 -37 -76 -56 -39 -24 -53 -40 -53 -57 0 -13 6 -23 13
-24 6 0 1 -5 -12 -10 -13 -5 -35 -18 -50 -28 -14 -10 -45 -24 -67 -30 -37 -10
-43 -15 -48 -46 -4 -20 -4 -40 -1 -45 3 -6 -4 -10 -16 -10 -33 0 -141 -54
-166 -84 -13 -14 -23 -35 -23 -45 0 -10 -7 -21 -15 -25 -8 -3 -15 -16 -15 -30
0 -20 -6 -25 -37 -30 -63 -11 -73 -17 -73 -37 0 -12 7 -19 20 -19 11 0 20 -4
20 -10 0 -5 -14 -10 -31 -10 -56 0 -109 -21 -109 -43 0 -16 5 -18 30 -15 17 3
30 1 30 -4 0 -4 -9 -8 -20 -8 -11 0 -20 -3 -20 -8 0 -4 -10 -12 -22 -17 -19
-9 -23 -17 -21 -51 3 -38 1 -42 -40 -64 -23 -13 -69 -41 -102 -63 -122 -81
-153 -94 -263 -106 -159 -17 -221 -14 -360 20 -138 33 -180 45 -229 66 -17 7
-37 13 -45 13 -7 0 -47 12 -88 26 -111 37 -202 54 -289 54 -88 0 -283 -25
-311 -40 -10 -6 -29 -10 -43 -10 -13 0 -59 -11 -103 -24 -43 -13 -119 -31
-169 -41 -49 -10 -101 -23 -115 -30 -14 -7 -58 -20 -99 -29 -63 -14 -116 -16
-355 -12 -157 3 -308 1 -341 -4 -33 -5 -125 -16 -205 -24 -154 -16 -240 -30
-268 -44 -9 -5 -82 -5 -162 0 -80 5 -172 7 -205 3 -33 -3 -148 -7 -255 -9
-172 -3 -207 -7 -295 -30 -54 -14 -125 -26 -156 -26 -32 0 -61 -4 -64 -10 -3
-5 -16 -10 -27 -10 -12 0 -50 -5 -85 -11 -57 -10 -63 -13 -63 -36 0 -24 0 -24
70 -17 67 6 70 6 70 -15 0 -13 6 -21 17 -21 15 0 14 -2 -3 -15 -10 -8 -27 -15
-36 -15 -11 0 -18 -8 -18 -19 0 -15 -7 -19 -32 -17 -27 1 -34 -3 -36 -21 -2
-13 1 -23 7 -23 6 0 11 -7 11 -16 0 -13 7 -15 34 -10 29 6 35 3 41 -14 3 -11
15 -20 26 -20 13 0 19 -7 19 -22 0 -44 9 -47 140 -47 133 1 220 -8 220 -22 0
-5 8 -9 19 -9 14 0 17 -6 13 -25 -3 -20 0 -25 16 -25 11 0 33 5 48 10 44 17
397 60 490 60 32 0 75 5 94 10 19 6 71 15 115 21 44 5 103 18 131 29 29 10 90
28 135 39 86 21 121 36 199 86 24 15 65 37 90 47 25 11 59 26 77 34 17 8 34
14 38 14 4 0 21 6 38 14 52 22 108 35 187 42 63 6 72 5 62 -7 -29 -33 -106
-137 -129 -173 -75 -117 -194 -386 -234 -526 -16 -57 -53 -98 -101 -111 -22
-5 -163 -10 -321 -11 -273 -1 -283 -2 -328 -24 -35 -18 -52 -34 -68 -67 -12
-25 -32 -57 -46 -73 -13 -15 -46 -66 -74 -113 -43 -73 -151 -226 -207 -294 -8
-10 -31 -41 -50 -67 -20 -27 -52 -59 -72 -72 -20 -12 -58 -43 -83 -70 -44 -45
-48 -47 -80 -38 -19 6 -55 10 -81 10 -41 0 -54 -5 -86 -35 -46 -41 -110 -140
-118 -184 -4 -17 -3 -42 0 -56 10 -40 30 -37 256 36 19 7 37 15 40 18 9 11
185 98 211 104 31 8 87 61 109 103 8 16 17 31 20 34 3 3 25 32 50 65 25 33 90
105 145 161 91 92 111 106 223 163 l123 62 82 -4 c45 -2 127 -12 182 -21 118
-20 466 -28 625 -14 123 10 203 30 283 70 51 25 152 92 183 122 11 11 44 37
103 80 31 23 61 25 61 5 0 -5 4 -9 9 -9 5 0 36 -17 68 -38 32 -21 85 -53 118
-72 66 -36 102 -72 112 -109 3 -14 3 -145 -1 -292 -4 -169 -3 -277 4 -293 5
-15 22 -31 37 -37 30 -12 191 -28 338 -33 50 -2 101 -8 116 -13 14 -6 74 -23
135 -37 136 -33 209 -54 254 -72 19 -8 67 -17 105 -22 l70 -7 25 -50 c14 -27
28 -51 32 -53 3 -2 16 -12 29 -23 32 -28 58 -32 167 -27 189 10 217 49 110
151 -68 64 -129 97 -233 127 -36 10 -92 36 -124 57 -52 35 -69 41 -177 57
-235 34 -359 68 -453 123 -74 43 -91 65 -82 106 5 19 12 40 16 47 4 7 13 49
21 94 16 101 39 233 62 353 l17 91 29 -15 c40 -21 200 -87 258 -107 99 -33
208 -58 358 -81 197 -31 254 -44 410 -91 43 -13 46 -16 65 -76 10 -35 22 -70
26 -78 3 -8 24 -69 45 -135 21 -66 46 -138 55 -160 17 -41 29 -75 48 -132 l10
-32 -47 32 c-94 65 -128 92 -174 141 -27 28 -48 54 -48 58 0 4 -27 15 -60 25
l-60 17 0 41 c0 22 -3 50 -6 62 -13 48 -207 143 -293 143 -76 0 -78 -33 -13
-161 51 -103 64 -118 137 -169 71 -50 72 -51 113 -94 20 -21 55 -47 77 -58 37
-19 201 -125 228 -148 56 -46 199 -151 226 -164 29 -15 40 -16 77 -6 24 7 49
19 55 26 6 8 17 14 24 14 22 0 74 68 81 106 4 23 1 65 -9 108 -28 122 -47 283
-47 392 l0 105 41 -23 c22 -13 55 -41 72 -62 62 -76 62 -76 137 -78 39 -1 82
-2 98 -3 36 -3 238 9 550 31 l254 18 61 -31 c34 -17 82 -37 107 -43 71 -19
182 -85 248 -148 8 -6 23 -17 34 -23 11 -6 29 -18 40 -27 42 -36 57 -49 114
-97 32 -27 73 -65 92 -83 24 -21 45 -32 66 -32 45 -1 66 -21 66 -64 0 -20 5
-36 10 -36 6 0 10 -7 10 -15 0 -9 7 -18 15 -21 8 -4 15 -11 15 -18 0 -32 218
-71 294 -52 43 11 34 50 -28 131 -46 59 -81 94 -108 105 -65 28 -138 77 -178
119 -25 26 -65 59 -90 74 -81 47 -306 235 -409 340 -25 26 -70 72 -99 102
l-54 55 -141 0 c-167 0 -341 24 -537 73 -99 25 -134 38 -131 48 2 8 13 39 24
69 11 30 23 91 27 135 4 44 19 111 33 150 36 95 35 171 -3 323 -16 66 -30 134
-30 150 0 16 18 85 41 153 48 147 68 227 103 414 60 318 74 369 108 412 8 10
24 1 64 -36 62 -57 105 -81 145 -81 21 0 50 -22 132 -103 96 -95 104 -106 110
-150 4 -27 13 -54 20 -62 18 -18 83 -35 133 -35 34 0 43 4 47 22 5 16 9 19 19
11 7 -6 36 -13 63 -16 40 -5 54 -3 73 12 12 11 22 26 22 34 0 7 13 38 30 68
16 30 30 64 30 77 0 12 -20 65 -45 116 -25 52 -45 101 -45 109 0 19 -120 251
-170 327 -22 35 -40 68 -40 74 0 38 -27 90 -68 134 -68 73 -134 150 -159 186
-11 18 -39 44 -60 58 -22 14 -48 42 -57 62 -27 57 -103 126 -138 126 -28 0
-30 -2 -25 -27 3 -16 9 -39 13 -53 5 -18 -7 -8 -44 34 -29 33 -52 63 -52 68 0
4 -11 8 -25 8 -22 0 -25 -4 -25 -34z m408 -418 c20 -20 14 -28 -13 -16 -13 6
-22 15 -19 19 7 12 18 11 32 -3z m-1352 -473 c-11 -8 -25 -15 -30 -15 -6 0 -2
7 8 15 11 8 25 15 30 15 6 0 2 -7 -8 -15z m-4428 -2388 c-25 -25 -68 -49 -68
-39 0 18 42 52 63 52 15 0 16 -2 5 -13z m-118 -67 c0 -5 -4 -10 -9 -10 -5 0
-16 -6 -23 -13 -15 -16 -78 -30 -78 -18 0 7 16 17 70 39 33 14 40 14 40 2z
m3665 -110 c4 -6 -5 -10 -19 -10 -14 0 -26 5 -26 10 0 6 9 10 19 10 11 0 23
-4 26 -10z m131 -95 c4 -8 15 -15 25 -15 21 0 25 -20 7 -38 -18 -18 -28 -14
-28 12 0 13 -10 30 -22 39 -20 14 -20 16 -5 16 10 1 20 -6 23 -14z"/>
</g>
</svg>
