<?xml version="1.0" standalone="no"?>
<!DOCTYPE svg PUBLIC "-//W3C//DTD SVG 20010904//EN"
 "http://www.w3.org/TR/2001/REC-SVG-20010904/DTD/svg10.dtd">
<svg version="1.0" xmlns="http://www.w3.org/2000/svg"
 width="455.000000pt" height="444.000000pt" viewBox="0 0 455.000000 444.000000"
 preserveAspectRatio="xMidYMid meet">
<metadata>
Created by potrace 1.13, written by Peter Selinger 2001-2015
</metadata>
<g transform="translate(0.000000,444.000000) scale(0.100000,-0.100000)"
fill="#000000" stroke="none">
<path d="M1680 4260 c0 -7 -52 -33 -59 -30 -2 1 -14 -15 -27 -35 -21 -35 -21
-40 -7 -61 9 -14 11 -24 5 -24 -22 0 -31 -35 -17 -63 8 -15 11 -27 8 -27 -3 0
6 -9 21 -21 14 -11 30 -18 35 -15 4 3 21 -6 37 -19 16 -14 26 -25 22 -25 -3 0
11 -17 31 -37 21 -21 42 -49 46 -63 9 -27 92 -110 111 -110 19 0 39 -31 40
-61 1 -16 -2 -29 -6 -29 -5 0 -7 -13 -6 -30 1 -16 -1 -30 -4 -30 -3 0 -6 -8
-7 -17 -3 -45 -8 -63 -16 -63 -5 0 -7 -7 -3 -15 3 -8 1 -15 -4 -15 -6 0 -10
-7 -10 -15 0 -8 -5 -15 -12 -15 -6 0 -8 -3 -5 -7 4 -3 1 -13 -6 -22 -7 -9 -19
-35 -27 -58 -7 -24 -17 -43 -22 -43 -4 0 -7 -3 -7 -7 1 -5 0 -11 -1 -15 -1 -5
-4 -12 -5 -18 -1 -5 -3 -11 -4 -12 -2 -2 -5 -14 -7 -28 -2 -13 -9 -27 -14 -30
-5 -3 -12 -21 -15 -40 -3 -19 -8 -44 -12 -55 -6 -23 -59 -76 -67 -67 -3 2 -8
-3 -12 -12 -3 -9 -10 -13 -15 -11 -4 3 -14 -3 -21 -15 -7 -11 -18 -20 -23 -20
-14 0 -75 -79 -75 -97 0 -7 -4 -13 -10 -13 -5 0 -10 -5 -10 -11 0 -19 -40 -99
-50 -99 -6 0 -10 -7 -10 -15 0 -8 -5 -15 -11 -15 -8 0 -8 -5 1 -15 9 -11 9
-15 1 -15 -7 0 -10 -4 -6 -9 7 -12 -29 -33 -39 -24 -3 3 -6 1 -6 -6 0 -8 -7
-11 -15 -7 -9 3 -18 -1 -21 -9 -3 -7 -12 -11 -20 -8 -8 3 -14 -1 -14 -8 0 -7
-3 -9 -7 -6 -3 4 -12 2 -20 -4 -7 -6 -13 -8 -13 -4 0 4 -7 2 -15 -5 -8 -7 -15
-9 -15 -5 0 4 -6 3 -13 -3 -7 -6 -31 -14 -52 -16 -22 -3 -41 -10 -43 -15 -2
-5 -9 -8 -17 -5 -7 3 -16 0 -20 -5 -3 -6 -10 -9 -15 -6 -4 2 -33 -4 -65 -15
-32 -11 -61 -18 -65 -15 -5 3 -10 0 -12 -7 -3 -7 -15 -12 -29 -13 -13 0 -42
-11 -64 -25 -22 -13 -44 -25 -50 -25 -5 0 -16 -4 -22 -8 -7 -5 -17 -5 -23 -2
-5 3 -10 2 -10 -4 0 -5 -8 -10 -17 -10 -10 0 -25 -1 -33 -4 -8 -2 -26 -7 -40
-11 -14 -4 -45 -8 -70 -10 -25 -1 -54 -7 -66 -14 -22 -12 -85 -2 -108 17 -9 8
-15 8 -18 2 -1 -6 -15 -12 -30 -13 -16 -1 -28 -8 -28 -15 0 -7 -4 -13 -10 -13
-5 0 -12 -11 -16 -25 -3 -14 -11 -25 -18 -25 -6 0 1 -10 16 -23 47 -39 81 -62
90 -59 4 1 8 -3 8 -8 0 -7 8 -6 22 1 32 17 50 37 44 48 -8 13 43 6 57 -8 16
-16 54 -14 84 6 14 10 31 18 37 20 6 1 35 9 65 17 30 8 58 13 63 10 4 -3 8 -1
8 4 0 5 14 8 30 7 17 -1 33 2 36 7 3 4 9 6 13 4 4 -3 24 -1 44 4 20 4 39 4 42
-1 3 -4 12 -6 19 -3 8 3 29 7 48 9 18 2 33 4 33 5 0 2 11 3 25 4 14 1 31 5 37
9 7 5 17 5 23 2 6 -3 10 -3 10 2 0 4 12 9 28 9 51 3 77 8 90 17 8 6 12 6 12
-2 0 -7 6 -9 18 -4 17 8 45 8 171 1 54 -4 66 -8 81 -29 17 -23 17 -28 -2 -104
-11 -44 -21 -87 -23 -95 -2 -8 -9 -28 -16 -45 -6 -16 -13 -37 -15 -45 -2 -8
-7 -23 -12 -35 -25 -54 -32 -72 -42 -100 -6 -16 -11 -32 -12 -35 0 -3 -4 -10
-9 -16 -5 -6 -10 -24 -11 -40 -1 -16 -6 -35 -11 -41 -5 -7 -7 -13 -4 -13 3 0
-1 -16 -9 -35 -8 -20 -12 -40 -9 -45 4 -6 1 -10 -6 -10 -7 0 -9 -3 -6 -7 4 -3
2 -12 -4 -20 -6 -7 -8 -13 -5 -13 4 0 0 -7 -9 -16 -9 -10 -14 -25 -12 -35 3
-10 -2 -20 -10 -23 -8 -3 -12 -10 -8 -15 6 -11 -34 -43 -46 -35 -4 2 -10 0
-13 -4 -3 -5 -27 -6 -53 -2 -26 4 -57 5 -68 1 -11 -4 -31 -6 -44 -5 -33 2 -61
-24 -40 -37 8 -5 10 -9 5 -9 -11 0 35 -45 85 -83 44 -33 59 -34 89 -2 25 26
73 34 86 14 5 -8 10 -6 16 5 5 9 13 14 17 12 4 -3 21 11 37 31 16 20 35 43 43
50 7 8 11 17 8 20 -5 5 7 42 53 158 6 17 10 30 8 31 -2 0 5 8 15 18 9 10 17
24 17 32 0 8 5 13 10 12 6 -2 18 11 28 27 9 17 20 31 24 33 4 2 4 10 1 18 -3
8 0 14 6 14 6 0 10 3 9 8 -2 10 25 66 36 73 5 4 5 12 2 18 -4 6 -3 11 1 11 5
0 22 25 38 56 16 31 38 62 48 69 12 8 16 18 12 26 -5 8 -4 10 4 5 6 -4 14 0
17 9 6 15 44 -12 144 -102 14 -13 28 -23 32 -23 5 0 8 -5 8 -11 0 -13 10 -22
75 -74 27 -22 63 -52 79 -67 16 -16 34 -28 41 -28 6 0 21 -9 33 -20 12 -11 23
-20 24 -19 2 0 33 -13 70 -30 36 -17 71 -31 77 -31 6 0 11 -4 11 -9 0 -6 9 -8
20 -6 11 2 22 -1 25 -6 4 -5 11 -7 16 -4 5 3 17 -9 28 -27 30 -51 42 -62 51
-48 5 9 9 9 14 1 4 -6 12 -9 17 -5 6 3 22 3 37 -1 20 -5 23 -8 11 -16 -8 -5
-9 -9 -2 -9 6 0 12 -8 12 -17 -1 -20 6 -71 19 -158 5 -33 8 -70 6 -82 -3 -13
0 -23 6 -23 6 0 9 -4 5 -9 -3 -6 3 -14 12 -20 10 -6 14 -11 9 -11 -12 0 40
-40 53 -40 6 0 11 -5 11 -11 0 -12 20 -31 59 -59 12 -8 21 -19 21 -24 0 -5 10
-17 22 -27 l21 -19 -23 -20 c-13 -11 -27 -20 -31 -20 -4 0 -20 -11 -35 -25
-15 -14 -33 -25 -40 -25 -8 0 -14 -5 -14 -11 0 -5 -4 -8 -9 -5 -5 3 -12 -1
-15 -10 -3 -8 -10 -13 -15 -10 -15 10 -33 -59 -33 -127 0 -34 1 -64 1 -67 1
-3 4 -24 6 -48 4 -48 20 -74 43 -70 14 3 62 44 62 53 0 3 10 16 22 30 30 35
33 80 6 105 l-21 20 46 42 c56 52 62 57 115 85 23 12 42 18 42 13 0 -5 9 -12
20 -15 11 -3 20 -12 20 -20 0 -7 5 -15 11 -17 13 -4 21 -88 8 -88 -5 0 -6 -6
-3 -13 4 -11 -2 -32 -22 -77 -1 -3 -5 -15 -9 -28 -4 -12 -10 -22 -14 -22 -4 0
-7 -8 -8 -17 -3 -36 -10 -57 -21 -61 -6 -2 -8 -10 -5 -18 3 -8 0 -14 -7 -14
-6 0 -8 -5 -4 -11 3 -6 2 -14 -4 -18 -13 -8 -23 -57 -14 -65 6 -7 11 -25 14
-59 1 -9 5 -17 8 -17 3 0 11 -20 18 -44 6 -25 22 -54 34 -65 15 -15 18 -21 7
-21 -10 -1 -9 -5 5 -15 10 -8 23 -12 27 -9 5 3 9 -1 9 -8 0 -7 11 -2 24 12 13
14 21 31 18 37 -2 7 0 13 5 13 11 0 12 4 16 82 3 49 0 59 -15 64 -17 5 -24 37
-18 88 1 10 -4 23 -12 27 -10 7 -10 9 0 9 6 0 12 7 12 15 0 8 4 15 10 15 5 0
7 7 4 15 -4 8 -1 15 6 15 6 0 8 4 5 10 -3 5 -1 10 5 10 7 0 10 6 7 14 -3 8 -3
16 1 18 4 2 15 19 25 38 9 19 28 53 42 75 13 22 27 48 31 58 3 9 9 17 13 17 4
0 17 17 28 38 16 27 19 42 12 55 -6 9 -7 17 -4 17 4 0 -8 12 -27 27 -18 15
-35 31 -38 34 -3 4 -14 8 -24 10 -27 5 -31 26 -7 34 12 3 21 12 21 20 0 7 4
15 10 17 14 4 -23 74 -38 70 -7 -1 -12 2 -12 8 0 6 -3 9 -7 8 -5 -1 -23 6 -41
16 l-34 18 44 42 c59 58 131 145 141 169 4 11 17 28 28 38 12 10 18 23 14 28
-3 6 -2 11 3 11 26 0 67 132 64 205 -1 20 -1 20 14 1 8 -11 14 -28 14 -38 0
-10 5 -18 10 -18 6 0 9 -3 9 -8 -1 -4 0 -10 1 -14 6 -19 8 -25 15 -55 4 -18
11 -33 16 -33 5 0 9 -6 9 -12 0 -7 23 -51 50 -97 28 -46 50 -87 50 -91 0 -13
27 -19 37 -9 7 7 28 -7 62 -41 28 -28 56 -48 62 -45 5 4 17 1 25 -6 8 -6 17
-9 21 -6 3 4 12 2 19 -4 17 -14 56 7 53 29 -3 30 1 35 16 22 16 -13 35 -6 35
15 0 7 7 16 15 19 16 6 17 40 2 64 -5 6 -6 16 -3 21 3 4 -21 36 -53 70 -32 33
-55 61 -52 61 3 0 -5 7 -17 16 -12 8 -22 19 -22 24 0 8 -34 42 -144 146 -14
14 -137 68 -156 69 -3 0 -11 4 -17 8 -7 5 -13 5 -13 2 0 -4 -7 1 -16 9 -8 9
-22 16 -30 16 -8 0 -14 4 -14 9 0 5 -9 13 -20 16 -11 4 -18 10 -15 15 3 5 -2
13 -11 18 -9 5 -16 13 -16 18 -1 14 -50 76 -76 98 -13 10 -21 20 -19 22 8 9
-150 164 -166 164 -10 0 -17 4 -17 10 0 5 -11 12 -25 16 -14 3 -25 10 -25 15
0 5 -5 9 -10 9 -6 0 -38 18 -71 40 -33 22 -64 40 -69 40 -14 0 -200 177 -193
184 3 2 -4 9 -15 15 -16 8 -55 71 -57 91 0 3 -4 11 -8 18 -5 6 -5 12 -2 12 3
0 -1 10 -9 21 -8 12 -12 28 -9 35 3 8 -1 14 -8 14 -7 0 -9 3 -6 7 4 3 2 12 -4
20 -9 10 -8 13 4 13 9 0 19 5 22 10 8 13 -13 80 -26 80 -4 0 -6 14 -2 30 3 17
1 30 -4 30 -5 0 -9 9 -9 20 0 11 4 20 8 20 15 0 8 38 -8 44 -12 5 -13 10 -5
19 8 10 7 17 -2 26 -10 11 -8 11 11 2 12 -6 22 -8 22 -4 0 4 4 2 9 -6 7 -11
11 -10 20 7 10 18 8 24 -14 38 -14 9 -23 19 -21 22 3 2 -1 16 -8 31 -16 32
-13 91 5 102 11 7 11 9 1 9 -7 0 -11 4 -8 9 6 9 -15 73 -27 82 -4 3 -9 15 -12
27 -2 11 -8 30 -14 41 -6 11 -7 21 -2 23 5 2 1 19 -8 40 -26 51 -35 88 -32
126 1 18 -3 32 -10 32 -6 0 -9 7 -5 15 3 8 -2 19 -12 24 -9 5 -16 13 -15 18 4
14 -9 53 -17 53 -4 0 -15 12 -25 26 -9 15 -12 23 -6 19 7 -4 18 -1 26 5 8 7
15 9 15 5 0 -5 11 5 25 21 14 16 25 32 25 36 0 9 -21 22 -38 24 -20 4 -28 14
-15 22 8 5 8 10 -1 17 -17 14 -36 17 -50 8 -17 -13 -38 -9 -76 15 -19 12 -41
22 -48 22 -7 0 -33 11 -57 24 -24 14 -46 22 -49 19 -3 -4 -6 0 -6 7 0 7 -3 10
-7 7 -3 -4 -15 0 -25 10 -10 9 -18 13 -18 8 0 -4 -7 -1 -17 6 -9 8 -18 13 -20
11 -6 -4 -57 25 -78 45 -11 11 -23 19 -26 19 -3 -1 -17 7 -30 16 -34 25 -119
67 -119 58z m145 -187 c-17 -16 -37 -9 -29 11 3 8 14 12 24 9 17 -5 17 -7 5
-20z m89 1 c4 -12 2 -15 -9 -10 -8 3 -15 0 -15 -6 0 -6 -3 -8 -6 -5 -4 4 -1
13 6 22 16 19 16 19 24 -1z m272 -570 c-3 -9 -9 -27 -12 -40 -3 -13 -10 -24
-16 -24 -5 0 -7 -3 -5 -7 2 -5 -6 -19 -19 -33 -16 -16 -24 -20 -24 -10 0 7 12
27 27 42 15 15 21 28 15 28 -7 0 -3 9 8 20 12 12 18 25 15 30 -4 6 -1 10 5 10
7 0 9 -7 6 -16z m-73 -166 c-10 -18 -18 -42 -19 -53 -4 -38 -9 -49 -29 -67
-11 -9 -16 -17 -11 -18 5 0 1 -9 -8 -19 -11 -12 -19 -38 -19 -63 -1 -24 -8
-48 -15 -53 -7 -6 -14 -20 -15 -33 0 -12 -5 -22 -10 -22 -5 0 -6 9 -2 19 7 22
13 53 20 96 9 59 12 67 22 73 15 10 44 82 37 94 -3 5 3 17 13 26 11 9 22 25
26 35 3 9 11 17 17 17 6 0 3 -14 -7 -32z m99 -124 c-3 -18 -7 -22 -13 -13 -4
7 -3 19 3 26 15 18 16 17 10 -13z m8 -69 c0 -8 -2 -15 -4 -15 -2 0 -6 7 -10
15 -3 8 -1 15 4 15 6 0 10 -7 10 -15z m-260 -166 c0 -5 8 -8 18 -7 34 3 62 -2
62 -11 0 -18 -45 -17 -72 2 -17 11 -28 14 -28 7 0 -6 -5 -10 -12 -8 -6 2 -24
-10 -39 -26 -15 -17 -30 -28 -33 -25 -8 8 37 69 52 69 6 0 12 4 12 9 0 5 9 7
20 4 11 -3 20 -9 20 -14z m-298 -51 c-6 -6 -16 -7 -22 -3 -9 6 -9 9 1 16 17
10 34 0 21 -13z m-21 -56 c-8 -3 -9 -8 -1 -17 8 -9 6 -14 -5 -19 -9 -3 -13 -2
-10 4 3 6 1 10 -5 10 -6 0 -3 11 7 26 11 18 19 22 22 13 2 -7 -1 -15 -8 -17z
m102 -42 c-7 -28 -23 -36 -23 -11 0 10 6 22 13 24 6 3 13 6 14 6 0 1 -1 -8 -4
-19z m-139 -25 c3 -8 1 -15 -4 -15 -6 0 -10 7 -10 15 0 8 2 15 4 15 2 0 6 -7
10 -15z m106 2 c0 -8 -7 -14 -15 -14 -25 0 -17 17 13 26 1 1 2 -5 2 -12z
m-140 -44 c0 -9 -3 -14 -6 -10 -4 3 -15 -4 -25 -16 -16 -19 -18 -20 -19 -4 0
21 20 46 38 47 6 0 12 -7 12 -17z m522 8 c3 9 9 9 25 0 15 -8 24 -8 28 -1 5 8
11 7 21 -1 12 -10 11 -14 -7 -30 -26 -22 -39 -24 -39 -6 -1 7 -6 5 -14 -6 -14
-18 -46 -14 -46 6 0 7 -4 7 -12 -1 -7 -7 -19 -12 -28 -12 -22 0 -55 36 -41 45
6 3 11 1 11 -6 0 -7 4 -8 13 -2 6 5 22 8 35 7 12 0 22 3 22 9 0 5 6 4 14 -2
11 -9 15 -9 18 0z m-142 -17 c8 -8 9 -14 4 -13 -16 2 -54 -13 -54 -22 0 -5 -3
-8 -7 -8 -5 1 -10 0 -13 -1 -3 -1 -18 -4 -35 -6 -16 -3 -33 -10 -36 -16 -4 -7
-9 -7 -13 1 -5 7 -15 7 -31 1 -25 -9 -36 2 -15 15 6 4 7 11 4 17 -8 13 17 29
31 19 20 -16 56 -19 69 -6 9 10 16 11 24 3 7 -7 14 -4 21 11 14 25 34 27 51 5z
m224 -56 c4 4 25 7 46 8 34 1 37 -1 27 -17 -9 -14 -7 -22 9 -36 12 -10 19 -24
17 -30 -3 -7 1 -13 8 -13 7 0 10 -3 7 -6 -4 -3 -15 -1 -26 5 -16 8 -21 7 -26
-5 -3 -8 -11 -12 -16 -9 -8 5 -7 11 1 21 17 21 -6 43 -39 39 -15 -1 -28 -4
-29 -5 -2 -1 -11 -3 -20 -4 -10 -1 -23 -4 -29 -8 -6 -4 -14 -5 -18 -1 -3 3 4
11 17 17 12 6 26 21 32 33 6 15 13 19 21 13 6 -6 14 -7 18 -2z m-750 -82 c-3
-9 -12 -12 -22 -9 -15 6 -9 11 25 22 1 1 0 -5 -3 -13z m486 -131 c5 3 10 4 10
2 0 -3 -16 -14 -35 -26 -19 -11 -35 -16 -35 -10 0 5 -7 9 -16 7 -10 -2 -19 3
-22 11 -3 8 0 11 6 7 6 -4 17 2 23 13 12 17 15 18 35 4 13 -8 28 -12 34 -8z
m-115 -35 c-3 -5 -11 -10 -16 -10 -6 0 -7 5 -4 10 3 6 11 10 16 10 6 0 7 -4 4
-10z m405 -28 c0 -13 -12 -22 -22 -16 -10 6 -1 24 13 24 5 0 9 -4 9 -8z m-510
-23 c0 -5 -4 -8 -9 -6 -5 1 -23 -14 -41 -33 -18 -19 -27 -27 -20 -17 7 9 10
17 6 17 -4 0 1 11 10 25 9 14 20 22 25 19 5 -3 9 0 9 6 0 6 5 8 10 5 6 -3 10
-10 10 -16z m310 -150 c0 -5 -7 -9 -15 -9 -15 0 -20 12 -9 23 8 8 24 -1 24
-14z m70 -6 c10 9 10 7 -1 -10 -13 -22 -34 -21 -43 3 -4 11 -2 12 13 5 12 -7
22 -6 31 2z m400 -49 c0 -13 5 -33 12 -43 9 -15 9 -23 -2 -36 -18 -21 -35 -14
-35 16 -1 13 -4 29 -8 35 -4 7 0 15 9 18 10 4 14 14 11 26 -3 11 -1 18 4 14 5
-3 9 -16 9 -30z m514 -134 c4 1 17 -1 29 -4 18 -5 19 -8 8 -15 -12 -8 -12 -12
-2 -24 9 -11 9 -17 1 -22 -8 -5 -9 -10 -1 -18 6 -6 7 -16 1 -27 -7 -13 -5 -22
5 -30 8 -7 15 -9 16 -4 1 5 4 -2 9 -16 4 -16 2 -33 -7 -47 -8 -13 -9 -23 -3
-23 5 0 10 -5 10 -11 0 -6 -9 -9 -20 -6 -12 3 -24 -1 -30 -11 -5 -10 -10 -12
-10 -5 0 6 5 15 10 18 8 5 8 11 0 20 -6 7 -7 20 -4 29 5 12 0 19 -14 23 -21 5
-24 25 -9 51 5 6 4 12 -2 12 -7 0 -7 8 -1 24 7 19 5 28 -10 41 -16 15 -22 16
-35 5 -22 -18 -30 -5 -13 19 8 12 17 19 20 16 3 -3 11 2 18 10 9 11 15 13 20
5 4 -7 10 -11 14 -10z m163 5 c8 -9 17 -33 18 -53 1 -20 4 -37 5 -37 1 0 3
-10 4 -22 2 -18 0 -20 -11 -11 -11 9 -11 13 -1 19 9 6 9 9 -4 14 -9 4 -15 14
-13 23 1 9 -2 23 -8 30 -5 6 -6 12 -3 12 4 0 2 9 -4 20 -13 24 -5 26 17 5z
m-612 -56 c-4 -5 -13 -9 -21 -9 -12 0 -12 2 -2 14 14 15 32 11 23 -5z m-24
-46 c-8 -15 -10 -15 -11 -2 0 17 10 32 18 25 2 -3 -1 -13 -7 -23z m52 -63 c3
-13 1 -20 -6 -17 -6 2 -11 13 -12 25 -2 26 11 20 18 -8z m614 -12 c2 -12 9
-31 16 -43 17 -27 16 -57 -3 -62 -9 -3 -11 -1 -5 4 15 12 12 42 -5 53 -8 5
-10 10 -5 10 6 0 1 7 -9 15 -11 8 -15 15 -8 15 6 0 9 10 7 21 -3 12 -1 19 2
15 4 -4 8 -16 10 -28z m237 -75 c4 -9 4 -18 2 -21 -7 -6 -36 24 -36 37 0 15
27 2 34 -16z m-508 -60 c-19 -20 -26 -23 -26 -12 0 15 40 51 49 44 1 -2 -9
-16 -23 -32z m144 1 c0 -8 -4 -14 -10 -14 -5 0 -7 -7 -4 -15 4 -8 2 -15 -3
-15 -5 0 -17 -13 -26 -30 -18 -30 -47 -41 -47 -18 0 7 10 22 23 33 23 20 38
46 46 81 2 11 21 -8 21 -22z m160 -10 c0 -8 -4 -14 -9 -14 -6 0 -9 9 -8 19 1
22 17 18 17 -5z m-397 -19 c3 -5 -7 -11 -21 -12 -15 0 -28 -6 -30 -13 -2 -6
-15 -23 -29 -38 -14 -15 -20 -19 -13 -9 7 9 9 17 6 17 -4 0 -1 6 6 14 7 7 19
23 27 34 15 21 47 26 54 7z m57 -34 c0 -5 -7 -12 -16 -15 -14 -5 -15 -4 -4 9
14 17 20 19 20 6z m-45 -20 c3 -5 1 -12 -5 -16 -5 -3 -10 1 -10 9 0 18 6 21
15 7z m-89 -73 c10 -12 14 -18 7 -15 -6 4 -13 2 -15 -4 -2 -5 -11 -7 -20 -4
-14 6 -15 10 -5 26 6 10 12 19 13 19 0 0 9 -10 20 -22z m234 -380 c0 -5 -7 -5
-17 1 -21 11 -53 -3 -53 -24 0 -8 -8 -15 -17 -15 -14 0 -15 2 -4 9 9 6 10 11
2 15 -15 10 -4 26 13 20 9 -3 17 3 21 15 6 19 8 20 31 5 13 -9 24 -21 24 -26z
m-9 -679 c-19 -34 -22 -32 -26 23 -4 51 15 70 31 31 9 -21 8 -32 -5 -54z"/>
</g>
</svg>
