<?xml version="1.0" standalone="no"?>
<!DOCTYPE svg PUBLIC "-//W3C//DTD SVG 20010904//EN"
 "http://www.w3.org/TR/2001/REC-SVG-20010904/DTD/svg10.dtd">
<svg version="1.0" xmlns="http://www.w3.org/2000/svg"
 width="205.000000pt" height="197.000000pt" viewBox="0 0 205.000000 197.000000"
 preserveAspectRatio="xMidYMid meet">
<metadata>
Created by potrace 1.13, written by Peter Selinger 2001-2015
</metadata>
<g transform="translate(0.000000,197.000000) scale(0.100000,-0.100000)"
fill="#000000" stroke="none">
<path d="M951 1949 c-225 -44 -439 -198 -552 -397 -45 -80 -96 -213 -115 -300
-32 -150 -19 -406 35 -662 35 -167 146 -551 163 -561 17 -11 300 -10 317 0 18
11 14 24 -59 201 -29 69 -65 170 -81 225 -26 89 -29 114 -28 233 1 73 6 149
11 170 5 20 13 62 18 93 8 57 26 123 41 149 5 8 20 35 33 60 33 61 69 94 146
131 62 30 71 32 195 33 175 1 200 -7 294 -99 73 -71 75 -75 82 -132 4 -32 15
-78 24 -103 15 -38 18 -78 18 -245 0 -221 -10 -282 -63 -400 -17 -37 -30 -71
-30 -76 0 -5 -22 -57 -50 -114 -27 -57 -50 -115 -50 -128 l0 -23 168 4 c92 2
172 5 178 7 6 2 25 45 43 97 18 51 36 102 40 113 23 59 102 368 121 473 18
102 40 331 40 417 0 140 -49 315 -126 452 -44 79 -174 215 -254 265 -162 102
-392 150 -559 117z"/>
</g>
</svg>
