<?xml version="1.0" standalone="no"?>
<!DOCTYPE svg PUBLIC "-//W3C//DTD SVG 20010904//EN"
 "http://www.w3.org/TR/2001/REC-SVG-20010904/DTD/svg10.dtd">
<svg version="1.0" xmlns="http://www.w3.org/2000/svg"
 width="653.000000pt" height="531.000000pt" viewBox="0 0 653.000000 531.000000"
 preserveAspectRatio="xMidYMid meet">
<metadata>
Created by potrace 1.13, written by Peter Selinger 2001-2015
</metadata>
<g transform="translate(0.000000,531.000000) scale(0.100000,-0.100000)"
fill="#000000" stroke="none">
<path d="M540 5276 c0 -13 10 -35 21 -50 12 -15 27 -47 35 -72 11 -38 11 -44
-2 -44 -14 0 -124 108 -124 122 0 5 -13 8 -29 8 -25 0 -29 -4 -34 -35 -7 -45
0 -97 24 -162 21 -61 19 -73 -20 -96 -16 -9 -42 -32 -56 -49 -26 -31 -27 -37
-22 -103 9 -102 -15 -189 -93 -345 -63 -127 -135 -242 -185 -298 -50 -56 -57
-88 -24 -118 12 -10 31 -42 44 -69 12 -28 33 -58 46 -66 30 -20 180 -32 232
-20 44 11 60 28 82 91 13 39 23 49 71 74 30 16 72 47 92 69 43 45 118 97 143
97 15 0 58 16 144 55 17 8 47 25 68 39 21 14 41 26 46 26 11 0 64 -77 90 -131
12 -26 28 -79 37 -119 20 -97 50 -180 69 -194 12 -9 18 -39 24 -121 11 -146
39 -285 57 -285 8 0 14 -4 14 -10 0 -5 7 -10 15 -10 8 0 15 -7 15 -15 0 -8 9
-15 20 -15 11 0 20 -4 20 -10 0 -5 8 -10 18 -10 13 0 25 -16 40 -53 12 -29 22
-60 22 -68 0 -9 9 -37 20 -62 23 -53 30 -202 16 -382 -8 -112 -6 -130 38 -325
32 -140 121 -298 216 -381 56 -49 60 -55 60 -97 0 -24 20 -115 44 -201 63
-228 66 -242 77 -391 5 -74 12 -148 15 -165 3 -16 6 -75 8 -130 2 -85 7 -109
30 -160 26 -53 30 -78 44 -262 15 -203 15 -204 -6 -256 -19 -45 -29 -85 -48
-182 -2 -11 -19 -36 -37 -56 -48 -52 -99 -138 -95 -162 3 -20 10 -26 58 -45
78 -31 106 -35 141 -18 49 24 126 102 134 135 4 20 0 42 -15 71 -22 43 -16 70
17 70 7 0 25 7 38 16 22 15 25 23 25 83 0 47 -6 78 -20 106 -15 30 -22 71 -28
170 -11 172 -6 268 20 395 18 90 21 141 22 362 1 189 5 261 14 270 9 9 12 7
12 -12 0 -14 7 -47 15 -74 8 -27 15 -78 15 -113 0 -43 8 -87 26 -136 14 -39
28 -81 32 -92 3 -10 22 -49 43 -85 35 -61 40 -79 65 -245 27 -189 29 -235 15
-325 -5 -30 -10 -75 -10 -99 -2 -52 -17 -82 -66 -136 -60 -66 -135 -183 -135
-209 0 -21 6 -26 36 -32 20 -4 75 -4 123 0 153 11 217 76 177 176 -16 41 -16
42 9 72 32 38 69 68 84 68 6 0 16 12 22 27 11 29 1 86 -31 178 -47 133 -59
192 -76 358 -16 165 -16 183 -1 245 16 69 12 194 -12 317 -5 28 -19 128 -31
224 -22 172 -23 177 -6 295 10 67 21 128 25 136 5 8 44 26 87 39 71 22 99 24
269 25 147 1 217 -4 310 -19 181 -30 503 -28 635 4 98 23 223 62 275 86 177
79 414 129 442 93 6 -7 32 -53 58 -103 32 -61 65 -106 101 -140 53 -49 55 -52
70 -135 24 -131 55 -249 81 -309 14 -31 31 -70 38 -86 32 -70 37 -95 41 -180
2 -49 11 -131 20 -180 l16 -90 -47 -195 c-65 -270 -72 -296 -105 -354 -16 -28
-38 -74 -49 -102 -13 -35 -41 -72 -89 -120 -77 -76 -175 -216 -170 -241 4 -22
37 -30 161 -38 99 -7 105 -6 111 12 4 11 22 35 42 53 32 29 35 37 33 79 -4 83
23 121 88 121 41 0 45 2 59 36 11 25 15 63 13 118 -3 83 19 195 77 391 12 44
28 98 34 120 5 22 27 59 48 83 23 25 46 65 56 98 10 31 30 76 46 100 19 31 30
64 35 109 7 67 13 76 35 50 7 -8 18 -15 24 -15 11 0 27 -20 52 -65 6 -11 47
-82 92 -158 116 -198 127 -246 131 -542 2 -136 -1 -178 -13 -207 -9 -21 -16
-53 -16 -73 0 -19 -4 -35 -9 -35 -4 0 -11 -16 -14 -36 -3 -20 -13 -44 -20 -53
-20 -22 -137 -252 -137 -268 0 -7 3 -13 8 -13 4 0 38 -5 77 -10 94 -14 160 0
213 46 33 28 42 43 48 80 4 26 2 62 -4 83 -17 55 -6 79 40 92 31 8 43 18 54
44 23 57 18 145 -17 248 -30 92 -30 93 -32 337 -2 218 0 250 17 292 10 25 16
52 13 60 -2 7 -1 20 4 29 5 9 11 47 14 84 5 56 3 70 -15 92 -11 14 -20 31 -20
38 0 13 -74 85 -170 165 -79 66 -100 89 -127 145 -13 28 -37 73 -53 100 -33
56 -32 66 6 162 13 34 24 70 24 80 1 10 9 36 20 58 11 22 19 48 20 57 0 24 21
68 33 68 5 0 7 13 4 30 -4 17 -3 30 2 30 5 0 11 16 14 35 3 19 17 61 31 92 78
179 106 294 106 428 0 96 -21 177 -75 289 -25 52 -45 99 -45 104 0 14 69 -21
70 -35 0 -6 12 -13 27 -15 18 -2 29 -10 31 -21 4 -21 37 -57 51 -57 5 0 13 -9
16 -20 3 -11 12 -20 20 -20 7 0 15 -7 19 -15 3 -8 12 -15 20 -15 8 0 20 -13
28 -30 7 -16 19 -30 25 -30 7 0 13 -7 13 -15 0 -8 9 -15 20 -15 13 0 20 -7 20
-20 0 -11 6 -20 14 -20 8 0 18 -9 21 -20 3 -11 15 -20 25 -20 11 0 22 -11 29
-30 10 -30 50 -44 52 -17 0 6 5 -3 10 -20 5 -18 16 -33 24 -33 8 0 15 -5 15
-10 0 -20 83 -90 107 -90 16 0 23 -6 23 -19 0 -15 10 -21 40 -26 22 -4 40 -11
40 -16 0 -5 9 -9 20 -9 38 0 48 75 60 465 5 160 15 321 21 358 14 81 1 195
-30 255 -31 60 -90 121 -138 144 -36 17 -56 20 -111 15 -114 -10 -276 -78
-347 -145 -217 -204 -336 -263 -433 -213 -23 12 -46 21 -53 21 -6 0 -40 14
-75 31 -56 26 -125 50 -259 89 -16 5 -68 18 -115 29 -47 12 -101 26 -120 31
-137 38 -285 44 -388 16 -35 -9 -125 -42 -200 -72 -142 -57 -149 -58 -407 -84
-165 -16 -421 -7 -525 19 -122 31 -300 109 -300 133 0 4 -7 8 -15 8 -8 0 -15
3 -15 8 0 7 -12 14 -145 89 -88 50 -89 50 -288 93 -77 17 -151 38 -165 49 -26
18 -143 61 -167 61 -6 0 -22 11 -35 25 -13 14 -27 25 -31 25 -4 0 -92 84 -196
188 -223 222 -276 269 -431 380 -190 137 -328 197 -571 248 l-135 28 -80 79
c-85 82 -138 117 -181 117 -20 0 -25 -5 -25 -24z"/>
<path d="M3940 2220 c0 -13 7 -20 20 -20 13 0 20 7 20 20 0 13 -7 20 -20 20
-13 0 -20 -7 -20 -20z"/>
</g>
</svg>
