<?xml version="1.0" standalone="no"?>
<!DOCTYPE svg PUBLIC "-//W3C//DTD SVG 20010904//EN"
 "http://www.w3.org/TR/2001/REC-SVG-20010904/DTD/svg10.dtd">
<svg version="1.0" xmlns="http://www.w3.org/2000/svg"
 width="166.000000pt" height="178.000000pt" viewBox="0 0 166.000000 178.000000"
 preserveAspectRatio="xMidYMid meet">
<metadata>
Created by potrace 1.13, written by Peter Selinger 2001-2015
</metadata>
<g transform="translate(0.000000,178.000000) scale(0.100000,-0.100000)"
fill="#000000" stroke="none">
<path d="M668 1760 c-93 -16 -298 -99 -298 -121 0 -5 -6 -9 -13 -9 -18 0 -126
-103 -177 -169 -52 -68 -75 -113 -111 -216 -51 -150 -62 -227 -56 -428 5 -183
7 -197 60 -382 31 -106 89 -227 170 -353 l41 -62 63 0 c57 0 63 2 63 21 0 12
-16 56 -36 98 -175 372 -160 825 37 1120 111 167 274 251 454 236 253 -21 416
-171 500 -461 48 -165 45 -471 -7 -649 -23 -79 -79 -204 -132 -294 -51 -88
-50 -91 38 -91 71 0 74 1 98 33 53 72 142 234 206 377 69 154 103 458 72 646
-24 142 -81 295 -139 367 -158 199 -367 324 -573 344 -48 4 -68 3 -68 -6 0 -6
-18 -11 -45 -11 -25 0 -45 5 -45 10 0 11 -34 11 -102 0z m347 -219 c124 -48
236 -136 300 -236 34 -53 85 -172 84 -196 0 -8 -15 22 -32 67 -36 92 -67 142
-123 200 -77 79 -164 131 -275 165 -99 30 -263 23 -358 -15 -200 -80 -312
-220 -387 -484 -19 -70 -23 -77 -18 -37 13 109 96 289 174 377 39 45 144 125
185 142 127 53 148 57 260 53 93 -4 123 -10 190 -36z m405 -488 c0 -32 -5 -28
-14 10 -4 19 -3 26 4 22 5 -3 10 -18 10 -32z m17 -120 c-3 -10 -5 -4 -5 12 0
17 2 24 5 18 2 -7 2 -21 0 -30z m-1237 -8 c0 -14 -4 -25 -9 -25 -4 0 -6 11 -3
25 2 14 6 25 8 25 2 0 4 -11 4 -25z m1247 -117 c-2 -18 -4 -4 -4 32 0 36 2 50
4 33 2 -18 2 -48 0 -65z m-1262 -23 c-4 -37 -9 -64 -12 -61 -3 3 -2 35 2 71 4
37 9 64 12 61 3 -3 2 -35 -2 -71z"/>
</g>
</svg>
