<?xml version="1.0" standalone="no"?>
<!DOCTYPE svg PUBLIC "-//W3C//DTD SVG 20010904//EN"
 "http://www.w3.org/TR/2001/REC-SVG-20010904/DTD/svg10.dtd">
<svg version="1.0" xmlns="http://www.w3.org/2000/svg"
 width="390.000000pt" height="196.000000pt" viewBox="0 0 390.000000 196.000000"
 preserveAspectRatio="xMidYMid meet">
<metadata>
Created by potrace 1.13, written by Peter Selinger 2001-2015
</metadata>
<g transform="translate(0.000000,196.000000) scale(0.100000,-0.100000)"
fill="#000000" stroke="none">
<path d="M3270 1947 c0 -25 -18 -30 -88 -28 l-65 2 6 -40 c6 -45 4 -46 -61
-42 -22 2 -53 -9 -97 -34 -48 -27 -81 -37 -130 -42 -65 -6 -65 -6 -65 -37 0
-44 -9 -52 -65 -60 -27 -4 -58 -9 -67 -12 -22 -6 -24 -44 -3 -44 26 0 16 -17
-12 -23 -60 -12 -133 -43 -133 -56 0 -8 8 -20 18 -27 15 -12 14 -13 -15 -14
-24 0 -33 -5 -33 -16 0 -38 -64 -67 -208 -95 -80 -15 -249 -7 -327 16 -124 37
-307 6 -511 -85 -35 -16 -92 -34 -126 -40 -35 -6 -81 -16 -103 -24 -22 -7 -58
-19 -80 -26 -22 -7 -69 -26 -104 -42 -35 -16 -94 -38 -130 -49 -36 -12 -115
-36 -176 -55 -129 -40 -250 -68 -357 -84 -43 -6 -97 -21 -120 -34 -24 -12 -65
-29 -93 -36 -27 -8 -60 -24 -73 -37 -13 -13 -27 -23 -32 -23 -19 0 -23 -49 -5
-66 14 -14 32 -16 117 -12 57 3 116 1 135 -5 24 -8 36 -8 41 0 4 6 27 13 52
16 102 13 190 31 190 39 0 4 10 8 23 8 12 0 42 7 65 15 26 9 57 13 76 10 22
-5 55 2 107 20 40 15 94 33 119 40 25 7 81 31 124 54 77 40 100 45 79 19 -6
-7 -17 -33 -26 -58 -49 -139 -102 -278 -114 -296 -16 -25 -80 -44 -151 -44
-46 0 -50 -2 -80 -45 -18 -25 -32 -49 -32 -54 0 -4 -9 -16 -20 -26 -11 -10
-20 -22 -20 -27 0 -17 -64 -103 -118 -158 -30 -30 -58 -63 -63 -72 -6 -11 -21
-18 -40 -18 -54 0 -123 -97 -117 -163 3 -30 6 -32 44 -35 33 -2 50 4 95 34 30
21 61 45 69 54 8 9 29 26 47 38 17 12 52 53 77 91 53 80 95 123 151 155 35 20
58 24 170 29 83 3 146 11 174 21 24 9 58 16 76 16 43 0 106 44 189 132 80 85
165 158 184 158 8 0 39 -23 71 -50 l58 -50 -5 -104 c-2 -58 -2 -116 2 -130 l6
-26 183 0 c218 -1 297 -16 297 -59 0 -9 15 -32 34 -50 56 -54 166 -54 166 0 0
27 -52 93 -129 165 l-64 59 -128 0 c-149 1 -162 7 -130 57 11 18 26 46 32 61
10 26 15 28 43 22 44 -9 226 -23 406 -31 l155 -7 66 -38 c36 -22 78 -39 95
-39 21 0 37 -10 61 -39 18 -22 31 -46 28 -53 -10 -25 -88 -58 -137 -58 -43 0
-47 2 -50 28 -4 40 -56 63 -133 60 -57 -3 -60 -4 -63 -31 -2 -15 1 -27 7 -27
6 0 11 -6 11 -12 1 -42 162 -158 218 -158 18 0 67 17 110 38 42 22 102 49 133
62 47 19 60 30 78 65 25 49 27 112 6 142 -14 20 -13 21 58 37 96 22 177 30
220 22 45 -8 127 -64 195 -132 29 -30 64 -57 78 -60 15 -4 27 -16 31 -33 11
-43 51 -69 122 -78 55 -6 91 8 91 38 0 29 -58 97 -106 125 -23 14 -59 44 -80
68 -22 24 -50 49 -64 56 -31 16 -135 95 -174 132 -15 15 -47 36 -70 47 -37 18
-50 19 -140 11 -55 -6 -102 -7 -105 -5 -3 3 1 31 8 63 18 78 25 186 14 207 -9
16 0 56 28 130 4 11 26 76 49 145 56 169 97 254 119 244 9 -4 91 -9 184 -10
128 -2 171 -6 182 -17 16 -16 104 -31 129 -21 10 4 16 18 16 40 0 28 5 35 25
40 23 6 25 11 25 59 0 28 -5 66 -11 84 -9 25 -16 31 -40 31 -16 0 -46 6 -66
14 -21 7 -56 19 -78 26 -49 15 -95 47 -95 64 0 17 -60 41 -140 56 -36 6 -83
19 -105 27 -66 25 -95 28 -95 10z"/>
</g>
</svg>
