<?xml version="1.0" standalone="no"?>
<!DOCTYPE svg PUBLIC "-//W3C//DTD SVG 20010904//EN"
 "http://www.w3.org/TR/2001/REC-SVG-20010904/DTD/svg10.dtd">
<svg version="1.0" xmlns="http://www.w3.org/2000/svg"
 width="205.000000pt" height="197.000000pt" viewBox="0 0 205.000000 197.000000"
 preserveAspectRatio="xMidYMid meet">
<metadata>
Created by potrace 1.13, written by Peter Selinger 2001-2015
</metadata>
<g transform="translate(0.000000,197.000000) scale(0.100000,-0.100000)"
fill="#000000" stroke="none">
<path d="M951 1949 c-225 -44 -439 -198 -552 -397 -45 -80 -96 -213 -115 -300
-32 -150 -19 -406 35 -662 35 -167 146 -551 163 -561 17 -11 300 -10 317 0 18
11 14 24 -59 201 -170 408 -207 783 -100 1005 68 139 201 240 350 265 172 29
316 -15 435 -133 36 -36 65 -71 65 -80 0 -8 5 -17 10 -19 6 -2 23 -37 38 -78
26 -71 27 -84 26 -240 -1 -152 -3 -175 -33 -290 -41 -159 -67 -239 -103 -318
-15 -35 -28 -68 -28 -73 0 -5 -22 -57 -50 -114 -27 -57 -50 -115 -50 -128 l0
-23 168 4 c92 2 172 5 178 7 6 2 25 45 43 97 18 51 36 102 40 113 23 59 102
368 121 473 18 102 40 331 40 417 0 140 -49 315 -126 452 -44 79 -174 215
-254 265 -162 102 -392 150 -559 117z"/>
</g>
</svg>
