<?xml version="1.0" standalone="no"?>
<!DOCTYPE svg PUBLIC "-//W3C//DTD SVG 20010904//EN"
 "http://www.w3.org/TR/2001/REC-SVG-20010904/DTD/svg10.dtd">
<svg version="1.0" xmlns="http://www.w3.org/2000/svg"
 width="632.000000pt" height="562.000000pt" viewBox="0 0 632.000000 562.000000"
 preserveAspectRatio="xMidYMid meet">
<metadata>
Created by potrace 1.13, written by Peter Selinger 2001-2015
</metadata>
<g transform="translate(0.000000,562.000000) scale(0.100000,-0.100000)"
fill="#000000" stroke="none">
<path d="M890 5570 c0 -22 5 -40 10 -40 6 0 10 -15 9 -32 0 -30 -3 -27 -24 27
-26 68 -48 80 -76 44 -19 -24 -26 -95 -11 -101 5 -1 12 -21 15 -43 l7 -41 -73
-36 c-63 -31 -183 -114 -224 -154 -7 -7 -13 -21 -13 -32 0 -27 -68 -112 -90
-112 -6 0 -10 -4 -10 -10 0 -5 -5 -10 -10 -10 -6 0 -20 -9 -31 -19 -12 -11
-46 -33 -77 -50 -71 -39 -93 -53 -110 -68 -7 -7 -20 -13 -29 -13 -25 0 -91
-53 -107 -85 -32 -67 -40 -114 -28 -161 7 -24 12 -55 12 -68 0 -20 9 -28 48
-42 26 -10 54 -23 62 -30 8 -6 43 -15 78 -19 53 -6 67 -4 98 14 19 12 46 21
60 21 13 0 24 6 24 13 0 9 22 19 58 27 31 6 75 19 97 27 97 37 123 42 187 33
65 -9 133 0 240 34 l47 15 49 -47 c28 -26 62 -72 77 -102 15 -30 35 -62 45
-70 10 -8 29 -49 43 -91 14 -43 30 -86 36 -98 24 -46 29 -59 51 -131 13 -41
29 -84 36 -95 8 -11 14 -31 14 -45 0 -14 6 -35 14 -46 14 -19 43 -115 71 -234
7 -30 18 -68 24 -83 7 -18 11 -121 11 -285 0 -141 5 -277 11 -301 5 -24 26
-76 45 -114 19 -38 43 -94 54 -126 10 -31 41 -99 69 -151 27 -52 71 -138 97
-190 26 -52 53 -102 59 -110 7 -8 36 -98 65 -200 29 -102 59 -196 65 -210 15
-28 60 -205 76 -295 26 -142 65 -308 78 -332 14 -24 50 -144 65 -213 17 -78
20 -332 6 -410 -17 -94 -50 -171 -84 -200 -138 -116 -195 -236 -121 -251 49
-11 151 -10 205 2 93 20 147 98 105 153 -8 11 -15 28 -15 38 0 15 8 18 49 18
l48 0 12 59 c12 60 10 81 -14 156 -8 24 -16 141 -21 300 -9 287 -8 346 5 421
6 31 6 79 0 125 -11 83 -9 494 2 482 14 -16 89 -373 89 -425 0 -15 14 -64 31
-110 96 -260 128 -453 107 -648 -14 -130 -29 -189 -60 -234 -15 -22 -28 -45
-28 -50 0 -5 -22 -31 -50 -57 -61 -59 -64 -82 -12 -97 56 -17 188 -22 248 -10
51 10 54 13 60 47 6 27 2 46 -17 81 -34 64 -27 103 21 110 32 5 35 8 38 40 2
19 -4 67 -13 105 -9 39 -28 192 -43 341 -23 228 -26 288 -18 374 7 72 6 140
-4 238 -14 150 -16 347 -5 540 l8 125 111 -6 c63 -4 174 -20 256 -37 177 -37
376 -49 561 -31 124 12 188 23 413 76 110 25 124 26 175 15 31 -8 68 -24 83
-38 22 -20 33 -23 60 -18 119 24 105 35 186 -144 16 -36 41 -82 55 -103 14
-21 37 -70 52 -110 45 -121 96 -250 116 -293 10 -23 19 -46 19 -53 0 -6 4 -11
9 -11 5 0 12 -13 16 -29 3 -16 15 -46 26 -67 10 -21 19 -46 19 -56 0 -10 5
-18 10 -18 6 0 10 -38 11 -92 0 -51 4 -145 9 -208 9 -126 1 -185 -60 -425 -29
-116 -42 -151 -82 -225 -11 -19 -33 -64 -50 -100 -17 -36 -38 -72 -47 -81 -17
-18 -27 -29 -81 -99 -19 -25 -50 -58 -68 -74 -63 -56 -25 -111 85 -122 65 -7
165 8 194 29 36 27 52 104 29 146 -7 14 -5 23 8 35 15 13 23 14 50 4 17 -7 34
-10 37 -7 8 9 25 98 35 184 9 88 25 169 39 200 6 11 24 67 41 125 18 58 35
110 39 115 4 6 14 37 21 69 8 33 24 70 36 83 12 13 34 61 49 106 15 45 33 89
41 98 8 8 14 20 14 26 0 5 9 18 20 28 10 9 22 37 26 62 5 38 2 54 -24 106 -46
94 -92 241 -104 333 -10 81 -4 214 11 214 4 0 14 -12 22 -27 7 -16 24 -45 37
-66 13 -22 35 -60 49 -85 14 -26 40 -67 58 -92 69 -99 189 -484 225 -729 15
-96 8 -319 -10 -366 -6 -16 -25 -80 -40 -142 -30 -115 -41 -134 -150 -264 -17
-19 -33 -51 -36 -70 -5 -31 -3 -36 20 -47 42 -19 175 -15 248 8 85 26 96 45
74 128 l-15 61 30 33 c17 18 38 47 46 63 22 40 29 180 13 230 -9 26 -12 105
-12 249 1 194 9 288 42 518 14 94 12 138 -6 173 -74 135 -145 294 -170 375
-28 93 -4 289 50 403 l24 52 2 -60 c4 -149 43 -353 87 -452 24 -55 43 -114 58
-180 8 -35 26 -80 39 -102 l25 -39 90 91 c124 126 169 195 195 298 18 75 20
118 11 219 -5 50 -2 116 9 198 29 225 21 361 -38 602 -14 58 -30 131 -35 163
-27 149 -98 300 -190 401 -24 26 -124 96 -137 96 -3 0 -19 9 -35 21 -16 11
-44 25 -62 31 -33 10 -168 27 -271 33 -33 2 -71 9 -85 16 -15 6 -37 17 -51 23
-14 6 -27 13 -30 17 -6 6 -128 42 -220 63 -74 18 -307 35 -390 30 -30 -2 -122
-8 -205 -14 -82 -5 -220 -19 -305 -30 -221 -29 -530 -36 -694 -16 -70 9 -136
21 -146 26 -10 6 -26 7 -34 4 -9 -3 -38 6 -66 20 -27 14 -57 26 -66 26 -9 0
-31 8 -48 19 -17 10 -48 24 -69 31 -20 6 -59 28 -85 49 -26 20 -61 43 -79 50
-17 7 -41 23 -54 37 -12 13 -27 24 -32 24 -5 0 -29 18 -53 40 -24 22 -48 40
-53 40 -5 0 -17 24 -27 53 -23 70 -55 119 -103 158 -24 18 -45 47 -52 68 -13
40 -74 100 -101 101 -10 0 -18 7 -18 15 0 9 -11 20 -24 25 -14 5 -33 22 -42
37 -10 15 -32 44 -49 63 -18 19 -40 60 -50 90 -21 69 -30 80 -67 80 -36 0 -97
47 -143 112 -19 26 -49 54 -66 63 -35 19 -105 83 -243 223 -50 52 -99 98 -109
104 -25 13 -123 38 -150 38 -13 0 -27 4 -33 9 -5 5 -27 11 -49 15 -22 3 -78
12 -125 21 -47 9 -102 19 -124 23 -33 6 -40 12 -54 47 -8 22 -24 52 -34 67
-10 14 -18 33 -18 42 0 12 -10 16 -35 16 -34 0 -35 -1 -35 -40z m3961 -5220
c19 0 27 -4 23 -13 -5 -14 -74 -18 -74 -5 0 17 14 41 18 30 2 -7 17 -12 33
-12z m-135 -204 c10 -8 16 -18 11 -22 -8 -8 -57 15 -57 28 0 13 24 9 46 -6z"/>
</g>
</svg>
