<?xml version="1.0" standalone="no"?>
<!DOCTYPE svg PUBLIC "-//W3C//DTD SVG 20010904//EN"
 "http://www.w3.org/TR/2001/REC-SVG-20010904/DTD/svg10.dtd">
<svg version="1.0" xmlns="http://www.w3.org/2000/svg"
 width="462.000000pt" height="416.000000pt" viewBox="0 0 462.000000 416.000000"
 preserveAspectRatio="xMidYMid meet">
<metadata>
Created by potrace 1.13, written by Peter Selinger 2001-2015
</metadata>
<g transform="translate(0.000000,416.000000) scale(0.100000,-0.100000)"
fill="#000000" stroke="none">
<path d="M3892 4132 c-11 -10 -28 -36 -37 -58 -13 -33 -23 -42 -68 -58 -36
-14 -74 -19 -126 -18 -41 1 -101 -5 -133 -13 -84 -21 -274 -122 -410 -218
-204 -144 -278 -226 -369 -410 -56 -114 -139 -248 -183 -296 -11 -12 -39 -32
-61 -42 -22 -10 -52 -29 -67 -41 -14 -13 -39 -32 -54 -43 -15 -11 -42 -32 -61
-47 -42 -33 -110 -48 -216 -48 -96 0 -294 30 -387 58 -36 11 -96 25 -135 32
-38 6 -86 16 -105 21 -19 6 -94 13 -166 16 -114 5 -149 2 -280 -22 -153 -27
-225 -44 -304 -70 -82 -26 -178 -45 -232 -45 -64 0 -200 -32 -262 -60 -112
-53 -182 -186 -200 -380 -12 -121 -9 -383 4 -441 l13 -57 61 -6 c193 -19 206
-19 225 -2 11 10 44 20 75 23 l56 6 2 46 c1 25 2 58 2 73 1 40 13 43 20 6 6
-34 64 -222 118 -381 31 -92 31 -109 1 -177 -50 -113 -109 -229 -129 -257 -42
-55 -46 -79 -34 -175 10 -72 9 -125 -5 -286 -9 -108 -23 -227 -31 -264 -9 -46
-11 -82 -5 -113 8 -41 18 -59 59 -103 18 -20 15 -50 -8 -69 -33 -29 -27 -94
13 -140 17 -21 39 -43 47 -50 24 -19 88 -24 152 -13 60 11 88 27 88 50 0 13
-66 129 -116 205 l-34 50 -2 145 c-4 179 9 366 28 402 8 15 25 39 39 54 14 15
25 34 25 43 0 9 9 27 20 41 11 14 20 32 20 40 0 18 121 203 162 248 15 17 40
54 57 84 36 62 37 60 10 -52 -43 -183 -42 -167 -10 -250 52 -133 102 -309 143
-505 32 -149 50 -185 91 -185 28 0 67 -27 67 -46 0 -8 -7 -26 -16 -39 -24 -37
-11 -68 46 -110 27 -20 50 -41 50 -47 0 -10 22 -9 142 11 133 22 146 46 73
132 -25 29 -45 58 -45 65 0 7 -24 28 -52 47 -69 45 -94 74 -111 123 -8 22 -28
69 -44 104 -29 63 -66 191 -79 276 -4 25 0 69 10 112 9 39 16 106 16 149 0 60
7 99 30 167 17 49 37 130 46 180 8 50 20 114 25 143 l10 51 52 -5 c52 -5 53
-5 77 31 14 20 32 36 41 36 35 0 200 -40 299 -73 58 -19 141 -41 185 -48 112
-19 417 -16 520 5 94 19 320 22 331 5 11 -19 7 -367 -6 -420 -9 -37 -9 -61 -1
-94 16 -63 13 -254 -5 -365 -10 -61 -13 -118 -9 -159 6 -58 11 -67 46 -99 36
-32 52 -72 30 -72 -6 0 -13 -21 -17 -47 -7 -45 -6 -48 32 -81 63 -54 90 -63
178 -53 42 5 86 6 97 4 22 -6 39 10 39 37 0 9 -18 39 -40 69 -22 29 -40 59
-40 67 0 7 -20 30 -45 51 -50 42 -85 99 -85 141 0 15 -5 43 -10 62 -12 42 5
230 25 275 29 65 36 91 45 169 5 45 13 99 18 121 8 36 9 31 16 -55 7 -74 14
-105 37 -146 25 -48 29 -66 37 -201 5 -81 7 -171 5 -200 -4 -42 0 -63 22 -106
15 -31 36 -59 50 -65 13 -6 38 -23 54 -38 29 -25 30 -28 16 -55 -27 -51 -19
-71 43 -114 71 -50 99 -57 187 -43 127 19 159 70 86 137 -21 20 -44 46 -50 59
-7 12 -30 30 -52 38 -90 37 -147 158 -168 359 -10 99 -8 500 4 625 8 89 35
241 46 265 6 11 25 36 43 56 79 83 127 204 152 380 18 130 15 223 -15 374 -11
55 -21 123 -22 150 -3 56 8 165 21 210 5 17 11 93 14 170 2 77 9 156 15 176
14 44 65 100 108 118 29 12 37 11 86 -12 31 -15 87 -30 135 -36 45 -6 89 -15
99 -21 30 -17 136 -50 160 -50 43 0 93 -27 93 -50 0 -37 21 -47 85 -44 74 4
126 13 142 26 14 11 53 128 53 158 0 50 -91 191 -154 239 -28 21 -60 47 -71
57 -11 11 -38 32 -60 49 -22 16 -73 62 -114 102 -41 40 -102 92 -137 115 -35
23 -67 51 -70 62 -4 12 -13 29 -22 39 -14 15 -14 25 -4 63 17 65 16 84 -8 84
-11 0 -20 5 -20 10 0 17 -46 11 -68 -8z m-3366 -1523 c-32 -68 -39 -72 -21
-13 8 27 15 52 15 57 0 4 7 7 15 7 11 0 9 -10 -9 -51z m345 -386 c13 -16 12
-17 -3 -4 -10 7 -18 15 -18 17 0 8 8 3 21 -13z m929 7 c0 -5 -9 -10 -21 -10
-11 0 -17 5 -14 10 3 6 13 10 21 10 8 0 14 -4 14 -10z m-937 -65 c-3 -9 -8
-14 -10 -11 -3 3 -2 9 2 15 9 16 15 13 8 -4z"/>
</g>
</svg>
