<?xml version="1.0" standalone="no"?>
<!DOCTYPE svg PUBLIC "-//W3C//DTD SVG 20010904//EN"
 "http://www.w3.org/TR/2001/REC-SVG-20010904/DTD/svg10.dtd">
<svg version="1.0" xmlns="http://www.w3.org/2000/svg"
 width="623.000000pt" height="617.000000pt" viewBox="0 0 623.000000 617.000000"
 preserveAspectRatio="xMidYMid meet">
<metadata>
Created by potrace 1.13, written by Peter Selinger 2001-2015
</metadata>
<g transform="translate(0.000000,617.000000) scale(0.100000,-0.100000)"
fill="#000000" stroke="none">
<path d="M1870 4960 c0 -3 -13 -6 -28 -7 -37 -2 -56 -7 -62 -13 -3 -3 -26 -17
-52 -30 -27 -14 -48 -28 -48 -32 0 -5 -4 -8 -10 -8 -21 0 -113 -90 -202 -197
-33 -39 -71 -79 -84 -88 -14 -9 -22 -19 -20 -24 3 -4 -10 -25 -29 -46 -19 -20
-32 -41 -29 -46 3 -5 1 -9 -5 -9 -5 0 -12 -13 -16 -30 -4 -16 -11 -30 -17 -30
-6 0 2 -10 18 -22 41 -32 54 -45 54 -56 0 -6 7 -13 16 -16 8 -3 12 -10 9 -16
-3 -5 -3 -10 2 -10 4 0 26 -16 48 -35 38 -34 49 -39 69 -36 15 3 71 -27 90
-48 18 -20 18 -20 42 4 13 13 24 29 24 35 0 5 9 10 19 10 12 0 21 9 25 25 4
14 11 25 16 25 12 0 13 -14 3 -24 -5 -4 -8 -11 -9 -14 -1 -13 -39 -87 -46 -90
-4 -2 -4 -10 -1 -18 3 -8 0 -14 -7 -14 -6 0 -8 -4 -5 -10 3 -5 2 -10 -4 -10
-6 0 -8 -7 -5 -15 4 -8 1 -15 -6 -15 -7 0 -10 -7 -6 -15 3 -8 1 -15 -4 -15 -5
0 -7 -7 -4 -15 4 -8 1 -15 -6 -15 -6 0 -8 -4 -5 -10 3 -5 1 -10 -4 -10 -6 0
-11 -7 -11 -15 0 -8 -4 -15 -10 -15 -5 0 -7 -7 -4 -15 4 -8 1 -15 -5 -15 -6 0
-8 -7 -5 -15 4 -8 1 -15 -6 -15 -6 0 -8 -4 -5 -10 3 -5 2 -10 -4 -10 -6 0 -8
-7 -5 -15 4 -8 1 -15 -6 -15 -7 0 -10 -7 -6 -15 3 -8 1 -15 -4 -15 -5 0 -7 -6
-5 -13 3 -7 -10 -21 -30 -31 -19 -11 -35 -23 -35 -28 0 -4 -9 -8 -19 -8 -11 0
-23 -5 -26 -10 -4 -6 -11 -8 -16 -5 -5 4 -9 3 -9 -2 0 -4 -15 -14 -32 -22 -18
-8 -52 -22 -75 -32 -23 -11 -47 -19 -52 -19 -6 0 -11 -4 -11 -10 0 -5 -6 -7
-14 -4 -8 3 -17 0 -21 -5 -3 -6 -10 -9 -15 -6 -18 11 -110 -50 -110 -73 0 -5
-11 -22 -24 -37 -14 -16 -23 -32 -21 -35 5 -9 -246 -266 -257 -262 -4 1 -8 -2
-8 -8 0 -8 -86 -98 -96 -99 -2 -1 -8 -1 -14 -1 -5 0 -10 -7 -10 -16 0 -8 -4
-13 -9 -10 -9 6 -38 -23 -33 -33 1 -3 -5 -14 -14 -25 -17 -19 -23 -83 -10
-104 4 -7 2 -12 -5 -12 -7 0 -10 -3 -6 -6 8 -8 -16 -33 -25 -27 -5 2 -8 0 -8
-5 0 -6 -8 -8 -18 -5 -19 5 -71 -46 -73 -70 -4 -68 -3 -97 3 -97 3 0 5 -7 4
-16 -3 -19 52 -84 70 -84 7 0 19 -6 26 -13 25 -23 68 -47 68 -38 0 6 6 8 13 6
23 -9 38 12 43 61 2 27 9 64 14 83 5 19 7 38 4 43 -3 4 0 8 7 8 10 0 10 3 1
12 -7 7 -8 17 -1 29 5 10 9 22 8 26 -4 25 5 43 41 83 22 24 40 50 40 57 0 8
13 27 30 43 16 16 30 33 30 37 0 5 9 15 21 23 31 22 116 107 146 146 14 19 32
34 39 34 8 0 14 5 14 11 0 5 4 8 9 4 5 -3 12 -1 15 3 3 5 20 10 38 11 18 1 39
3 46 3 6 1 12 7 12 15 0 7 7 13 15 13 20 0 95 33 95 42 0 4 6 5 14 2 8 -3 17
0 21 5 3 6 11 9 16 6 5 -4 9 -1 9 5 0 6 6 10 13 9 19 -3 87 12 87 20 0 4 8 7
18 8 17 2 63 9 105 17 12 2 47 13 77 25 l55 20 -25 -20 c-14 -12 -45 -37 -68
-57 -24 -21 -47 -36 -51 -35 -4 1 -25 -14 -46 -33 -28 -25 -44 -52 -61 -101
-12 -37 -20 -71 -18 -75 3 -4 1 -8 -5 -8 -6 0 -13 -11 -17 -25 -3 -14 -10 -25
-16 -25 -5 0 -7 -4 -4 -8 3 -5 -1 -20 -9 -35 -7 -14 -11 -28 -7 -31 3 -3 0 -6
-7 -6 -8 0 -11 -7 -7 -15 3 -8 2 -15 -3 -15 -8 0 -24 -43 -18 -46 1 -1 -7 -11
-17 -23 -11 -12 -15 -21 -11 -21 4 0 1 -8 -7 -17 -9 -10 -19 -28 -22 -40 -4
-13 -11 -23 -15 -23 -4 0 -7 -10 -8 -22 -1 -11 -7 -24 -14 -28 -6 -4 -8 -13
-5 -19 4 -6 2 -11 -3 -11 -6 0 -11 -7 -11 -15 0 -8 -4 -15 -9 -15 -9 0 -42
-71 -48 -104 -2 -11 -6 -22 -8 -25 -3 -2 6 -16 19 -30 30 -31 39 -71 20 -89
-8 -7 -14 -10 -14 -6 0 3 -6 2 -12 -4 -7 -6 -17 -10 -23 -10 -21 1 -33 -42
-23 -85 6 -23 12 -57 13 -75 3 -35 24 -57 65 -67 14 -4 34 -15 45 -25 11 -10
41 -28 67 -39 45 -19 47 -19 63 -1 22 24 29 224 8 256 -8 12 -13 26 -12 30 1
5 0 11 -1 14 -6 16 -4 70 3 70 5 0 6 4 2 9 -3 5 -1 12 5 16 6 4 8 10 5 15 -3
5 -1 11 5 15 6 4 8 11 5 16 -4 5 -2 9 4 9 6 0 8 7 5 15 -4 8 -2 15 4 15 5 0 8
11 7 25 -2 14 1 27 6 31 5 3 7 10 4 15 -4 5 -2 9 4 9 6 0 8 7 5 15 -4 8 -2 15
3 15 6 0 16 18 23 40 7 22 17 40 22 40 5 0 6 5 3 11 -4 6 1 17 11 24 11 8 16
15 11 15 -4 0 5 19 19 42 27 42 54 74 54 64 0 -6 44 32 93 80 52 51 97 104 97
114 0 6 4 9 9 8 12 -4 91 44 91 54 0 5 9 8 20 8 11 0 20 5 20 10 0 6 5 10 10
10 12 0 24 9 76 58 20 17 40 32 44 32 5 0 18 14 30 30 12 17 26 28 31 25 5 -4
9 1 9 9 0 9 9 16 20 16 11 0 20 5 20 10 0 6 18 -7 40 -29 36 -35 44 -39 66
-31 14 6 30 8 35 4 5 -3 9 0 9 6 0 15 39 -7 47 -26 6 -17 35 -53 76 -95 15
-16 24 -29 20 -29 -4 0 -1 -6 7 -13 8 -7 16 -18 18 -25 6 -30 117 -186 177
-248 36 -37 65 -71 65 -76 0 -4 3 -8 8 -8 4 0 23 -15 43 -33 62 -55 103 -87
111 -87 9 0 24 -11 62 -46 12 -12 32 -25 44 -28 12 -4 22 -12 22 -17 0 -5 7
-9 15 -9 20 0 57 -24 125 -80 30 -25 65 -54 79 -65 61 -50 63 -55 38 -89 -28
-40 -37 -51 -67 -85 -42 -46 -117 -135 -140 -164 -12 -15 -26 -27 -32 -27 -11
0 -79 -65 -80 -77 -2 -20 -25 -60 -45 -80 -13 -12 -23 -25 -23 -28 0 -3 -10
-16 -22 -29 -13 -12 -38 -41 -57 -64 -18 -23 -42 -44 -52 -47 -10 -4 -19 -13
-19 -21 0 -8 -4 -14 -10 -14 -17 0 -120 -106 -120 -123 0 -10 -4 -17 -9 -17
-12 0 -33 -62 -23 -69 7 -5 8 -37 4 -79 -1 -7 -8 -12 -14 -10 -17 3 -66 -30
-78 -53 -7 -12 -6 -37 4 -77 16 -69 32 -102 50 -102 7 0 30 -15 51 -32 21 -18
42 -33 46 -33 5 0 15 -10 24 -22 18 -26 51 -20 61 11 4 11 8 44 9 71 1 28 7
62 13 76 6 15 8 30 5 33 -5 5 -11 41 -15 91 -1 23 14 80 23 83 5 2 9 10 9 18
0 8 5 14 10 14 6 0 10 6 10 14 0 8 7 22 16 30 8 9 13 16 9 16 -3 0 2 11 11 25
9 14 23 25 30 25 8 0 14 7 14 15 0 8 4 15 9 15 4 0 28 19 52 43 24 23 69 55
99 71 30 16 76 51 103 77 26 27 50 49 53 49 3 0 19 13 37 30 38 36 50 31 14
-6 -15 -15 -24 -30 -21 -35 3 -5 0 -9 -5 -9 -6 0 -11 -4 -11 -9 0 -6 -10 -21
-23 -35 -12 -13 -24 -39 -25 -56 -1 -18 -6 -38 -10 -44 -4 -6 -7 -18 -7 -26 0
-8 -12 -31 -28 -51 -15 -20 -27 -39 -27 -42 0 -8 -25 -39 -62 -77 -15 -15 -30
-39 -33 -53 -4 -15 -15 -29 -25 -32 -27 -9 -85 -84 -87 -115 -1 -15 -6 -38
-11 -51 -6 -15 -5 -34 3 -54 20 -47 25 -93 11 -104 -7 -6 -16 -8 -19 -4 -4 3
-7 1 -7 -6 0 -7 -4 -10 -9 -6 -5 3 -16 -4 -24 -15 -12 -18 -12 -29 0 -82 8
-34 15 -66 16 -71 3 -16 51 -67 63 -67 6 0 19 -9 29 -20 10 -11 26 -20 36 -20
9 0 19 -4 21 -10 5 -15 81 -19 95 -4 18 18 11 188 -11 237 -9 21 -14 42 -11
47 3 5 1 11 -5 15 -6 3 -7 14 -2 23 4 9 7 28 7 42 0 14 2 27 5 30 9 9 40 81
40 93 0 7 14 28 30 47 16 19 30 40 30 45 0 6 12 23 26 38 14 16 23 31 20 34
-3 3 6 16 19 29 14 13 25 26 25 29 0 10 57 65 69 65 6 0 11 4 11 9 0 5 16 26
35 46 19 21 37 47 41 59 7 23 58 76 74 76 5 0 10 5 10 11 0 7 11 22 25 35 14
13 25 26 25 29 0 10 30 38 30 28 0 -11 70 69 70 81 0 5 3 7 6 3 7 -6 22 5 59
41 12 12 26 22 30 22 4 0 14 8 21 17 7 10 17 19 23 19 6 1 12 2 14 4 5 4 43
11 77 15 19 2 36 4 38 5 1 2 7 4 12 5 6 1 12 4 15 5 3 1 8 3 13 4 23 5 102 42
102 49 0 5 5 5 10 2 6 -3 10 -2 10 4 0 6 16 18 35 27 19 9 35 20 35 25 0 5 6
9 13 9 6 0 21 13 32 29 10 16 22 29 25 28 3 -1 17 10 31 24 14 14 29 28 35 30
11 5 85 96 100 124 19 36 39 70 44 75 5 5 23 42 31 65 2 6 9 17 16 25 7 8 12
17 11 20 -2 4 28 43 58 74 6 6 9 17 6 24 -2 7 0 11 5 10 9 -3 19 5 89 70 25
23 49 42 54 42 4 0 32 29 61 65 29 36 58 65 64 65 6 0 18 15 26 33 8 17 20 31
27 30 6 -2 12 4 12 12 0 8 6 15 14 15 7 0 19 7 26 15 7 8 16 12 21 9 5 -3 9 0
9 6 0 7 7 10 15 6 8 -3 15 -2 15 3 0 7 53 6 100 -2 26 -4 40 -18 40 -38 0 -10
5 -19 12 -19 6 0 8 -3 5 -6 -7 -7 29 -63 48 -76 5 -4 6 -8 1 -8 -5 0 12 -19
37 -42 25 -24 47 -50 49 -58 2 -8 13 -29 25 -46 12 -18 24 -38 25 -45 2 -8 20
-31 40 -51 20 -21 34 -38 32 -38 -3 0 1 -9 9 -21 15 -20 12 -59 -3 -59 -4 0
-7 -11 -6 -25 1 -17 10 -28 29 -36 15 -6 27 -16 27 -21 0 -10 26 -39 35 -38 3
0 6 0 8 -1 1 0 11 -2 21 -4 10 -2 22 -9 26 -16 9 -14 80 -4 80 12 0 6 5 7 10
4 6 -3 10 -3 10 2 0 4 21 22 45 38 25 17 43 36 40 43 -2 6 0 12 6 12 6 0 8 4
5 8 -3 5 1 31 8 58 14 53 14 173 1 195 -5 7 -10 29 -11 49 -1 19 -3 35 -4 35
-1 0 -4 14 -6 30 -3 17 -11 51 -19 78 -10 35 -11 47 -2 47 8 0 8 3 2 8 -5 4
-10 23 -9 42 0 19 -2 39 -4 44 -3 6 -6 26 -8 45 -1 20 -7 49 -13 65 -6 16 -9
31 -7 34 3 2 -1 16 -8 31 -7 14 -12 35 -10 46 2 11 6 35 8 53 6 37 17 50 64
77 30 18 45 55 21 55 -6 0 -9 6 -6 14 12 30 -57 55 -90 33 -7 -5 -13 -5 -13
-1 0 4 -9 -1 -20 -11 -11 -10 -20 -15 -20 -10 0 4 -7 2 -15 -5 -9 -7 -15 -8
-15 -2 0 8 -11 13 -62 27 -5 2 -14 3 -21 4 -18 1 -63 41 -60 52 2 5 -1 9 -5 9
-5 0 -22 11 -38 25 -15 13 -30 22 -33 20 -2 -3 -12 5 -22 17 -11 11 -19 18
-19 15 0 -4 -22 2 -50 13 -27 11 -50 17 -50 14 0 -4 -6 -2 -12 3 -7 5 -20 9
-28 8 -8 -1 -28 3 -45 8 -57 16 -96 23 -165 31 -253 28 -358 26 -500 -9 -8 -2
-15 -4 -15 -5 0 -1 -7 -3 -15 -5 -8 -2 -28 -8 -45 -15 -16 -6 -32 -12 -35 -12
-3 0 -17 -9 -32 -20 -16 -11 -28 -16 -28 -12 0 3 -7 1 -15 -6 -8 -7 -15 -9
-15 -4 0 5 -4 4 -8 -2 -4 -6 -52 -24 -107 -42 -160 -49 -187 -54 -225 -40 -14
5 -48 11 -75 12 -28 1 -56 5 -63 10 -6 4 -12 3 -12 -1 0 -5 -30 -6 -67 -2 -68
6 -135 31 -163 59 -8 8 -37 33 -65 55 -27 22 -52 43 -54 48 -2 5 -25 31 -52
58 -27 27 -49 54 -49 59 0 5 -8 15 -19 22 -10 7 -35 40 -56 73 -52 81 -132
182 -150 189 -8 3 -15 12 -15 20 0 15 -106 126 -159 166 -18 14 -43 35 -55 46
-13 12 -32 25 -44 28 -12 4 -22 12 -22 17 0 6 -4 8 -9 5 -5 -3 -19 2 -32 12
-13 10 -31 21 -39 25 -8 3 -37 20 -65 37 -27 16 -57 33 -65 36 -8 4 -35 16
-60 27 -25 12 -48 20 -52 19 -5 -1 -8 3 -8 9 0 5 -4 8 -9 4 -5 -3 -12 -1 -16
5 -4 6 -10 8 -15 5 -5 -3 -11 -1 -15 5 -3 5 -34 23 -69 40 -35 16 -78 44 -96
60 -18 17 -49 38 -69 47 -20 9 -44 23 -53 31 -10 8 -18 12 -18 7 0 -4 -6 -3
-12 2 -37 28 -188 62 -188 43z m266 -292 c4 -7 3 -8 -4 -4 -7 4 -12 2 -12 -3
0 -6 -9 -11 -20 -11 -11 0 -20 -5 -20 -12 0 -6 -3 -8 -7 -5 -3 4 -11 -1 -18
-10 -10 -13 -13 -14 -20 -2 -5 8 -5 11 -1 8 4 -4 21 6 39 22 34 31 52 36 63
17z m-66 -572 c0 -3 -4 -8 -10 -11 -5 -3 -10 -1 -10 4 0 6 5 11 10 11 6 0 10
-2 10 -4z m754 -553 c6 -15 4 -15 -18 -7 -20 8 -21 21 -1 21 8 0 16 -6 19 -14z"/>
</g>
</svg>
