<?xml version="1.0" standalone="no"?>
<!DOCTYPE svg PUBLIC "-//W3C//DTD SVG 20010904//EN"
 "http://www.w3.org/TR/2001/REC-SVG-20010904/DTD/svg10.dtd">
<svg version="1.0" xmlns="http://www.w3.org/2000/svg"
 width="417.000000pt" height="404.000000pt" viewBox="0 0 417.000000 404.000000"
 preserveAspectRatio="xMidYMid meet">
<metadata>
Created by potrace 1.13, written by Peter Selinger 2001-2015
</metadata>
<g transform="translate(0.000000,404.000000) scale(0.100000,-0.100000)"
fill="#000000" stroke="none">
<path d="M1730 3905 c-7 -8 -16 -12 -21 -9 -5 3 -16 -1 -24 -10 -15 -14 -39
-65 -37 -77 0 -3 -4 -6 -11 -7 -22 -2 -42 -7 -54 -15 -7 -5 -13 -5 -13 0 0 4
-4 2 -9 -5 -4 -7 -18 -14 -29 -15 -12 -1 -22 -4 -22 -8 0 -4 -13 -10 -30 -14
-16 -4 -30 -11 -30 -16 0 -5 -7 -9 -16 -9 -9 0 -32 -16 -51 -35 -20 -20 -38
-33 -41 -31 -2 3 -11 -1 -19 -9 -13 -13 -13 -17 0 -30 8 -8 16 -13 18 -12 3 1
-2 -4 -10 -10 -8 -7 -20 -13 -26 -13 -6 0 -17 -6 -23 -12 -7 -7 -16 -13 -20
-14 -40 -5 -122 -71 -122 -98 0 -9 -4 -16 -10 -16 -14 0 -13 -27 2 -32 14 -5
19 -48 5 -48 -16 0 87 -80 112 -87 17 -4 29 0 40 14 19 23 68 45 75 34 6 -10
79 -4 118 9 15 5 40 5 56 1 16 -5 45 -7 65 -5 36 4 37 3 38 -28 4 -147 3 -188
-4 -188 -5 0 -5 -4 -2 -10 3 -5 3 -10 -2 -10 -4 0 -9 -15 -9 -32 -1 -18 -5
-61 -9 -95 -6 -51 -5 -63 6 -63 8 0 10 -3 4 -8 -5 -4 -11 -16 -12 -27 -5 -55
-36 -135 -53 -135 -6 0 -10 -5 -10 -10 0 -6 -9 -20 -19 -31 -10 -11 -26 -41
-36 -67 -9 -26 -24 -63 -33 -82 -9 -19 -17 -38 -18 -42 -1 -5 -3 -11 -4 -15
-1 -5 -2 -11 -1 -15 0 -3 -17 -9 -39 -13 -22 -4 -40 -11 -40 -16 0 -6 -4 -8
-9 -4 -5 3 -12 1 -16 -4 -3 -5 -13 -10 -23 -9 -9 0 -27 -2 -39 -5 -21 -5 -129
-10 -148 -7 -5 1 -29 2 -53 2 -40 0 -86 -24 -127 -67 -17 -17 -36 -66 -30 -76
4 -5 1 -9 -5 -9 -7 0 -10 -6 -7 -12 2 -7 -5 -21 -15 -30 -11 -9 -19 -19 -18
-23 2 -10 -43 -94 -60 -113 -9 -9 -15 -23 -12 -30 2 -6 -1 -12 -7 -12 -6 0
-11 -6 -11 -14 0 -7 -6 -19 -14 -25 -15 -12 -10 -61 7 -61 6 0 7 -3 4 -7 -4
-3 -2 -12 4 -20 9 -10 8 -13 -2 -13 -12 0 -12 -2 0 -9 8 -5 12 -18 8 -30 -3
-12 -1 -21 5 -21 6 0 8 -7 4 -15 -3 -8 -1 -15 4 -15 6 0 10 -7 10 -16 0 -8 16
-31 36 -50 31 -28 39 -32 52 -22 22 19 63 87 64 106 1 36 -12 76 -32 95 -18
16 -21 27 -16 64 3 25 12 56 21 69 8 13 12 24 8 24 -4 0 5 13 20 28 15 16 25
31 23 33 -3 3 5 16 17 30 24 27 77 63 77 53 0 -4 7 -1 15 6 8 6 18 9 24 6 5
-3 11 -1 13 5 2 7 12 7 28 1 14 -5 40 -8 58 -7 17 1 32 -1 32 -4 0 -3 19 -6
43 -7 57 -1 126 -10 157 -21 14 -5 32 -9 40 -8 8 1 19 -1 25 -4 5 -3 27 -4 48
-2 31 2 37 0 31 -11 -5 -7 -9 -16 -10 -20 -1 -5 -3 -10 -4 -13 -1 -3 -3 -8 -4
-12 -1 -5 -10 -25 -19 -47 -9 -21 -17 -41 -17 -45 0 -3 -11 -27 -25 -53 -14
-27 -26 -51 -26 -55 -3 -18 -13 -39 -30 -61 -19 -25 -54 -129 -50 -149 1 -7
-3 -13 -10 -13 -6 0 -9 -7 -5 -15 3 -8 2 -15 -2 -15 -4 0 -20 -29 -37 -65 -16
-36 -33 -65 -37 -65 -4 0 -8 -7 -8 -15 0 -8 -9 -24 -21 -36 -11 -11 -18 -23
-15 -26 7 -8 -16 -29 -42 -37 -12 -4 -22 -12 -22 -18 0 -5 -7 -7 -16 -4 -9 4
-23 1 -32 -6 -8 -7 -18 -12 -21 -10 -12 7 -80 -21 -86 -35 -11 -31 53 -103 95
-106 11 -1 20 -4 20 -8 0 -3 11 -4 25 -1 14 2 25 8 25 13 0 5 7 9 15 9 13 0
20 20 13 35 -5 9 37 33 43 24 3 -5 23 4 45 20 38 28 60 59 66 91 2 8 8 18 13
22 6 4 10 11 11 15 3 23 27 73 36 73 5 0 6 5 3 10 -3 6 -1 10 4 10 6 0 11 7
11 15 0 8 5 15 11 15 6 0 9 5 7 12 -5 13 10 34 55 81 15 16 25 33 21 38 -3 5
-1 9 5 9 6 0 19 17 30 38 11 20 28 47 40 58 11 12 17 25 14 28 -4 3 3 14 15
24 12 11 18 22 14 26 -4 4 1 12 11 17 9 6 17 17 17 24 0 8 16 33 36 55 35 39
36 39 56 20 12 -11 26 -16 32 -13 6 3 8 3 4 -2 -4 -4 2 -17 15 -27 68 -60 91
-78 96 -78 4 0 11 -10 16 -22 6 -13 16 -22 23 -20 7 1 12 -4 12 -11 0 -11 37
-41 52 -42 4 0 16 -8 27 -17 21 -18 60 -41 76 -44 6 -1 28 -10 50 -20 22 -10
43 -17 48 -16 4 1 7 -2 7 -7 0 -5 8 -8 18 -6 9 1 23 -2 30 -8 6 -5 12 -7 12
-4 0 3 13 1 29 -4 26 -9 28 -13 21 -40 -5 -16 -6 -29 -3 -29 3 0 0 -7 -7 -15
-7 -8 -9 -15 -5 -15 4 0 2 -6 -4 -13 -6 -8 -8 -17 -4 -20 3 -4 0 -7 -7 -7 -7
0 -11 -3 -7 -6 9 -10 -14 -66 -55 -128 -21 -33 -38 -65 -38 -73 0 -7 -5 -13
-11 -13 -5 0 -8 -4 -5 -8 8 -14 -16 -93 -30 -99 -8 -3 -12 -9 -9 -14 5 -8 -10
-31 -45 -67 -8 -9 -15 -19 -15 -23 0 -5 -8 -18 -17 -29 -10 -11 -18 -25 -18
-30 0 -6 -6 -10 -14 -10 -17 0 -80 -32 -84 -42 -2 -5 -10 -8 -18 -8 -7 0 -28
-9 -46 -19 -17 -11 -35 -18 -40 -15 -4 3 -8 -2 -8 -11 0 -9 -4 -14 -9 -10 -5
3 -12 1 -15 -3 -6 -10 -46 -14 -116 -13 -57 0 -150 -17 -171 -32 -16 -12 -22
-47 -7 -47 4 0 8 -5 8 -11 0 -7 16 -26 36 -43 48 -40 107 -45 130 -11 16 24
27 26 58 8 12 -7 29 -8 42 -3 12 5 25 6 28 3 3 -3 15 6 27 21 12 15 24 25 26
22 3 -3 12 1 20 9 8 8 23 15 33 15 10 0 20 6 23 14 3 8 19 17 36 21 17 4 31
11 31 16 0 6 5 7 10 4 6 -3 16 -3 23 2 6 4 14 8 17 9 36 11 50 18 50 23 0 4 7
8 15 8 21 0 95 25 95 32 0 4 12 8 27 9 31 2 49 25 86 112 15 36 34 70 42 76 8
6 12 13 9 17 -11 10 93 120 106 112 5 -3 10 -1 12 4 1 4 12 11 23 15 24 7 24
5 28 -101 2 -40 0 -73 -3 -73 -4 0 -6 -21 -4 -48 1 -26 3 -47 4 -47 4 0 13
-104 12 -140 -3 -175 -18 -269 -45 -287 -6 -3 -12 -12 -13 -20 -5 -35 -57
-128 -93 -168 -22 -25 -41 -47 -41 -50 0 -4 -17 -12 -37 -19 -39 -14 -42 -16
-87 -56 -24 -21 -26 -26 -12 -31 9 -3 16 -12 16 -20 0 -13 39 -40 53 -36 4 1
7 -2 7 -7 0 -17 44 -20 74 -4 44 22 64 49 59 76 -4 20 -1 23 19 22 26 -2 57
29 85 86 10 22 22 39 27 39 4 0 6 7 2 15 -3 8 -1 15 3 15 9 0 35 59 32 73 0 4
4 7 10 7 6 0 9 7 5 15 -3 8 -1 15 4 15 5 0 12 11 16 25 3 14 11 25 17 25 6 0
7 3 4 6 -4 4 11 29 33 57 22 27 40 56 40 63 0 8 3 14 8 14 12 0 34 40 37 71 2
16 1 29 -3 29 -19 0 -20 285 -2 308 2 1 3 5 4 10 8 28 32 63 48 68 12 3 17 12
14 20 -3 8 -1 14 4 14 13 0 50 37 50 50 0 6 5 9 12 8 7 -2 17 7 23 20 5 12 18
25 27 28 10 3 18 12 18 20 0 8 4 14 9 14 5 0 12 8 15 18 3 9 28 32 56 51 27
19 50 40 50 48 0 7 5 13 10 13 6 0 10 7 10 15 0 8 4 15 9 15 7 0 13 14 21 48
1 4 8 14 15 22 14 15 15 19 15 45 0 10 9 14 25 13 19 -2 25 -8 26 -28 1 -14 2
-32 3 -40 1 -8 4 -20 8 -26 11 -16 -56 -144 -75 -144 -14 0 -147 -142 -141
-151 3 -5 0 -9 -5 -9 -6 0 -11 -6 -11 -14 0 -8 -11 -27 -24 -43 -13 -15 -27
-39 -31 -53 -4 -14 -11 -29 -15 -35 -4 -5 -8 -22 -8 -37 0 -16 -10 -36 -25
-50 -27 -26 -65 -91 -69 -123 -2 -11 -7 -26 -12 -34 -5 -7 -10 -33 -12 -58 -3
-46 -33 -133 -46 -133 -4 0 -5 -7 -2 -15 4 -8 1 -15 -6 -15 -6 0 -8 -4 -5 -10
3 -5 1 -10 -5 -10 -7 0 -10 -7 -6 -15 3 -8 2 -15 -3 -15 -14 0 -5 -91 10 -101
8 -5 10 -9 4 -9 -5 0 1 -9 14 -19 28 -21 58 -17 66 10 3 10 12 16 19 13 7 -3
31 13 53 35 22 23 43 41 47 41 7 0 31 25 69 70 10 11 15 25 12 29 -3 5 1 11 8
14 6 2 21 28 32 56 11 28 23 51 27 51 4 0 5 7 2 15 -4 8 -1 15 6 15 7 0 10 7
6 15 -3 8 -2 15 3 15 4 0 14 18 21 40 7 22 17 40 23 40 5 0 7 7 3 15 -3 8 -2
15 2 15 4 1 22 25 41 54 19 29 46 61 60 71 14 9 40 35 56 57 17 21 41 50 55
64 14 13 25 28 25 32 0 4 11 25 25 47 24 38 28 50 32 88 1 9 6 17 10 17 3 0 7
8 7 18 0 9 2 35 4 57 3 22 0 46 -5 53 -6 6 -7 12 -3 12 4 0 2 7 -5 15 -7 8
-10 15 -6 15 13 0 -29 57 -78 105 -61 59 -108 92 -141 101 -27 7 -68 51 -60
64 3 4 -2 11 -11 14 -8 3 -13 10 -9 15 3 5 -4 12 -15 16 -11 3 -19 9 -17 13 2
7 -10 23 -45 63 -10 10 -18 24 -18 29 0 6 -3 10 -8 10 -12 0 -92 77 -92 89 0
6 -4 11 -8 11 -12 0 -52 35 -52 46 -1 8 -71 55 -95 64 -5 1 -27 14 -47 27 -21
13 -38 20 -38 17 0 -4 -9 1 -20 11 -11 10 -20 15 -20 11 0 -4 -10 3 -22 15
-13 12 -35 26 -50 31 -16 6 -28 14 -28 20 0 5 -4 7 -9 4 -5 -3 -22 8 -40 24
-17 17 -38 30 -46 30 -8 0 -15 4 -15 9 0 5 -16 26 -36 48 -48 52 -65 73 -59
73 3 0 -6 18 -20 40 -14 22 -22 40 -18 40 5 0 4 4 -2 8 -10 7 -25 31 -54 87
-9 16 -18 32 -21 35 -14 13 -65 86 -64 90 1 3 -7 11 -16 17 -21 15 -73 101
-73 120 0 7 -4 13 -9 13 -4 0 -8 9 -8 20 0 11 -4 20 -9 20 -5 0 -8 8 -6 18 1
9 -2 23 -8 30 -5 6 -6 12 -2 12 4 0 2 7 -5 15 -8 10 -9 15 -1 15 7 0 8 8 1 25
-5 14 -7 25 -4 25 4 0 1 7 -6 15 -10 12 -10 15 0 15 10 0 10 3 0 15 -8 10 -9
15 -2 15 20 0 -37 94 -93 154 -30 32 -52 62 -49 67 3 5 1 9 -4 9 -5 0 -17 20
-28 45 -10 25 -22 45 -27 45 -4 0 -6 4 -3 8 3 5 -3 16 -12 25 -9 9 -30 30 -47
47 -16 16 -33 30 -37 30 -5 0 -8 7 -8 15 0 9 -12 27 -26 42 -14 14 -23 27 -21
30 3 2 1 18 -3 34 -5 17 -5 29 0 29 11 0 1 30 -16 47 -9 10 -15 9 -24 -2z
m-240 -307 c0 -4 -4 -8 -9 -8 -6 0 -12 4 -15 8 -3 5 1 9 9 9 8 0 15 -4 15 -9z
m377 -75 c7 -6 13 -19 13 -27 0 -9 3 -16 8 -16 4 0 8 -30 8 -68 1 -37 -1 -61
-3 -54 -4 10 -15 5 -37 -17 l-32 -31 2 75 c2 41 0 75 -4 75 -4 0 -8 25 -8 56
l-2 55 21 -18 c12 -10 27 -23 34 -30z m29 -237 c-10 -31 -10 -48 -3 -55 13
-13 -11 -63 -26 -54 -6 3 -2 12 9 20 24 17 24 19 -1 37 -13 10 -15 15 -6 16 7
0 11 6 7 15 -3 8 -1 15 5 15 6 0 8 4 5 9 -8 12 3 41 15 41 4 0 2 -20 -5 -44z
m-64 -53 c-2 -6 -10 -9 -18 -6 -11 4 -11 9 -2 26 6 12 11 23 10 25 -1 1 -1 8
-1 15 1 6 4 -1 8 -18 4 -16 5 -35 3 -42z m33 -473 c3 -6 -4 -10 -17 -10 -18 0
-20 2 -8 10 19 12 18 12 25 0z m-128 -40 c2 -18 -1 -19 -20 -8 -21 11 -21 11
-2 19 11 4 20 8 20 8 1 1 1 -8 2 -19z m-95 -30 c-24 -22 -42 -26 -42 -8 0 6 3
8 6 5 4 -3 16 0 28 8 29 21 34 18 8 -5z m323 -71 c4 -6 14 -8 22 -5 8 4 11 1
7 -5 -13 -21 -48 -27 -61 -10 -8 12 -9 18 0 23 16 11 25 10 32 -3z m-115 -60
c0 -5 -4 -7 -10 -4 -5 3 -10 3 -10 -2 -1 -19 -52 -65 -61 -56 -11 11 -1 46 11
38 4 -2 15 4 25 15 19 21 45 27 45 9z m-100 -54 c0 -8 -9 -15 -20 -15 -22 0
-27 15 -7 23 21 9 27 7 27 -8z m695 -105 c4 7 19 3 43 -12 24 -15 37 -18 40
-10 2 8 9 9 21 2 10 -5 30 -7 45 -4 14 2 26 0 26 -5 0 -5 15 -16 33 -26 57
-29 76 -41 95 -58 10 -10 25 -17 32 -17 17 0 4 -13 -15 -16 -8 -1 -15 3 -15 9
0 7 -8 3 -17 -8 -12 -16 -14 -17 -10 -3 11 30 -46 45 -75 20 -12 -10 -18 -9
-28 3 -18 22 -25 19 -69 -25 -22 -22 -45 -39 -52 -38 -15 4 -49 -61 -42 -79 3
-7 0 -13 -7 -13 -6 0 -9 -4 -5 -9 3 -5 1 -12 -5 -16 -5 -3 -11 -1 -11 4 -1 6
-2 17 -3 24 -1 6 2 21 7 32 6 10 11 26 12 35 1 8 7 28 13 44 11 24 10 30 -5
41 -10 8 -15 16 -11 20 4 4 1 13 -5 20 -13 14 -52 1 -43 -14 3 -4 -4 -18 -15
-30 -11 -12 -18 -25 -15 -30 3 -4 -6 -13 -19 -19 -14 -7 -25 -17 -26 -24 0 -7
-2 -24 -3 -38 -2 -14 2 -28 8 -32 8 -6 7 -8 -1 -8 -7 0 -10 -8 -8 -17 3 -10
-1 -4 -9 12 -19 38 -19 56 -2 80 8 11 12 25 9 32 -3 7 2 13 11 13 19 0 43 77
27 93 -11 11 -45 -9 -37 -22 3 -4 -11 -24 -31 -46 -19 -22 -42 -50 -50 -62 -8
-13 -19 -21 -23 -18 -5 3 -11 1 -15 -5 -3 -5 -13 -10 -22 -10 -14 0 -14 2 1
23 9 12 20 31 25 42 5 11 30 44 55 73 48 56 53 67 36 77 -5 3 -10 12 -10 18 0
8 3 8 9 -2 6 -10 10 -10 16 -1 4 6 13 9 21 6 8 -3 14 0 14 6 0 7 5 6 15 -2 12
-10 15 -10 15 3 0 14 5 14 34 -4 23 -13 36 -16 41 -9z m-925 12 c0 -13 -12
-22 -22 -16 -10 6 -1 24 13 24 5 0 9 -4 9 -8z m729 -6 c10 -11 1 -25 -44 -68
-30 -30 -52 -57 -49 -61 3 -3 -3 -16 -15 -28 -16 -17 -18 -25 -9 -31 10 -6 10
-8 -1 -8 -7 0 -11 -6 -8 -13 2 -6 -2 -18 -9 -25 -13 -12 -15 -11 -13 4 0 3 -8
12 -18 19 -17 13 -17 14 0 32 9 11 17 23 17 28 0 7 35 52 94 120 14 17 26 33
26 38 0 12 17 8 29 -7z m-1179 -56 c-8 -5 -19 -10 -25 -10 -5 0 -3 5 5 10 8 5
20 10 25 10 6 0 3 -5 -5 -10z m1543 -119 c-6 -3 -9 -14 -8 -23 2 -9 -3 -22
-11 -29 -8 -7 -11 -20 -8 -35 4 -16 2 -24 -7 -24 -8 0 -2 -11 14 -25 30 -27
47 -32 47 -14 0 6 7 18 16 27 15 15 16 14 9 -8 -5 -14 -8 -31 -8 -38 0 -6 -2
-10 -5 -7 -2 2 -12 -3 -20 -12 -12 -11 -17 -12 -20 -4 -3 8 -12 5 -28 -10 -13
-12 -21 -26 -18 -30 3 -5 0 -9 -5 -9 -6 0 -12 -10 -12 -22 -1 -16 -3 -18 -6
-6 -2 9 3 30 11 46 11 22 12 32 3 41 -6 6 -7 11 -3 11 5 0 3 7 -5 16 -8 10 -9
18 -3 22 16 11 24 41 14 47 -15 9 -12 18 18 50 15 16 26 32 26 35 -1 3 1 12 4
19 4 12 7 12 10 2 2 -7 0 -16 -5 -20z m-197 -5 c-4 -23 -33 -86 -40 -86 -8 0
3 43 19 74 23 42 27 45 21 12z m263 -47 c-6 -3 -9 -10 -8 -15 3 -20 -2 -34
-12 -34 -7 0 -9 9 -5 23 7 22 14 47 15 57 1 3 5 -2 11 -10 6 -9 5 -17 -1 -21z
m277 -24 c64 -53 169 -157 169 -167 0 -4 15 -24 32 -43 37 -41 65 -90 56 -99
-4 -3 -1 -6 7 -6 9 0 10 -3 1 -13 -6 -8 -10 -16 -8 -18 1 -2 -6 4 -16 14 -10
9 -22 17 -27 17 -6 0 -9 3 -9 8 1 4 -6 26 -16 49 -12 28 -25 43 -42 48 -14 3
-23 9 -19 12 3 3 -2 12 -11 18 -14 11 -20 10 -30 -4 -12 -14 -13 -12 -9 16 2
20 -1 37 -10 44 -11 9 -19 6 -37 -17 -12 -16 -21 -34 -19 -40 1 -7 -2 -15 -8
-19 -13 -8 19 -65 38 -65 8 0 10 -5 5 -12 -13 -22 -11 -34 7 -46 15 -9 20 -8
26 6 4 9 8 22 8 27 1 15 29 12 34 -4 3 -8 0 -11 -6 -7 -16 9 -33 -27 -21 -45
14 -23 10 -32 -7 -15 -21 21 -26 20 -53 -8 -28 -29 -62 -37 -77 -17 -8 10 -4
27 17 68 23 45 25 55 14 67 -8 7 -11 16 -8 20 3 3 0 12 -7 21 -19 23 -24 64
-18 140 3 28 1 30 -27 27 -21 -2 -26 0 -16 7 9 5 12 18 8 32 -6 22 9 52 23 47
4 -2 29 -21 56 -43z m105 -232 c6 -15 3 -23 -8 -27 -12 -5 -14 -1 -11 19 3 13
1 26 -4 29 -5 2 -3 3 3 2 7 -1 16 -12 20 -23z m-450 -35 c-5 -13 -17 -25 -27
-27 -16 -3 -15 1 6 23 31 31 31 32 21 4z m-20 -145 c-8 -15 -10 -15 -11 -2 0
17 10 32 18 25 2 -3 -1 -13 -7 -23z m42 -38 c-3 -9 -8 -14 -10 -11 -3 3 -2 9
2 15 9 16 15 13 8 -4z m-34 -9 c8 -10 9 -16 1 -21 -5 -3 -10 -1 -10 6 0 8 -3
9 -13 0 -8 -6 -16 -9 -18 -6 -3 2 -20 -9 -38 -26 -35 -32 -56 -32 -28 -1 10
10 14 22 10 26 -4 4 -1 4 8 1 8 -3 26 3 39 15 27 24 34 25 49 6z m861 -56 c15
-11 29 -69 18 -76 -6 -4 -8 -3 -5 3 4 6 0 14 -9 17 -8 3 -12 10 -9 16 3 5 2
10 -3 10 -12 0 -20 30 -14 50 5 13 6 13 10 0 3 -8 8 -17 12 -20z m-1043 -284
c-3 -8 -15 -20 -26 -26 -18 -9 -21 -8 -21 10 0 13 7 20 20 20 11 0 20 5 20 12
0 6 3 9 6 5 4 -3 4 -13 1 -21z m-63 -29 c-5 -15 -44 -20 -44 -6 0 6 5 7 10 4
6 -3 13 1 16 9 3 9 10 14 15 11 4 -3 6 -11 3 -18z"/>
</g>
</svg>
