<?xml version="1.0" standalone="no"?>
<!DOCTYPE svg PUBLIC "-//W3C//DTD SVG 20010904//EN"
 "http://www.w3.org/TR/2001/REC-SVG-20010904/DTD/svg10.dtd">
<svg version="1.0" xmlns="http://www.w3.org/2000/svg"
 width="79.000000pt" height="104.000000pt" viewBox="0 0 79.000000 104.000000"
 preserveAspectRatio="xMidYMid meet">
<metadata>
Created by potrace 1.13, written by Peter Selinger 2001-2015
</metadata>
<g transform="translate(0.000000,104.000000) scale(0.100000,-0.100000)"
fill="#000000" stroke="none">
<path d="M307 1019 c-105 -25 -228 -133 -266 -233 -45 -122 -38 -201 34 -403
19 -50 37 -112 40 -138 6 -37 13 -49 36 -60 36 -19 67 -19 112 0 81 34 84 67
27 239 -57 170 -52 236 24 309 67 66 152 53 211 -31 28 -41 30 -49 29 -135 0
-73 -6 -109 -27 -171 -47 -136 -33 -202 50 -230 25 -9 56 -16 67 -16 31 0 70
64 62 102 -3 18 4 58 19 106 14 42 33 102 42 132 12 38 18 87 18 155 0 92 -3
106 -34 172 -32 69 -81 126 -142 165 -66 42 -207 60 -302 37z m35 -94 c55 -29
70 -30 128 -10 24 8 51 13 60 10 26 -8 95 -77 120 -120 30 -51 49 -151 40
-201 -4 -22 -8 -31 -9 -20 -1 15 -7 17 -35 14 -33 -4 -34 -3 -38 34 -3 33 -1
37 22 40 20 2 26 9 28 36 3 30 1 32 -28 32 -18 0 -33 -6 -37 -15 -4 -12 -11
-8 -29 19 -39 57 -80 76 -167 76 -94 0 -111 -7 -166 -62 -65 -65 -84 -150 -62
-265 8 -40 7 -43 -15 -43 -12 0 -29 -2 -36 -5 -9 -4 -17 7 -24 32 -10 38 -10
38 21 38 28 0 30 3 30 35 0 31 -3 35 -25 34 -14 -1 -32 -4 -41 -8 -13 -6 -18
0 -23 28 -19 102 66 260 174 325 45 27 55 26 112 -4z m333 -412 c-4 -10 -10
-27 -12 -39 -4 -16 -11 -19 -34 -16 -21 3 -29 9 -25 19 3 8 6 23 6 34 0 15 7
19 36 19 31 0 35 -3 29 -17z m-445 -204 c7 -23 4 -28 -24 -42 l-33 -15 -20 64
-20 64 24 0 c13 0 27 8 30 17 6 16 18 -8 43 -88z m395 9 l1 -60 -30 6 c-46 9
-51 20 -36 68 18 58 17 56 42 51 21 -4 23 -10 23 -65z"/>
<path d="M520 861 c-23 -44 -4 -69 45 -57 18 5 25 13 25 29 0 45 -50 65 -70
28z"/>
<path d="M183 863 c-26 -10 -11 -73 17 -73 45 0 60 22 44 64 -6 15 -36 20 -61
9z"/>
<path d="M84 726 c-13 -33 0 -51 39 -54 38 -3 38 -3 35 30 -3 29 -7 33 -36 36
-22 2 -34 -2 -38 -12z"/>
</g>
</svg>
