<?xml version="1.0" standalone="no"?>
<!DOCTYPE svg PUBLIC "-//W3C//DTD SVG 20010904//EN"
 "http://www.w3.org/TR/2001/REC-SVG-20010904/DTD/svg10.dtd">
<svg version="1.0" xmlns="http://www.w3.org/2000/svg"
 width="91.000000pt" height="108.000000pt" viewBox="0 0 91.000000 108.000000"
 preserveAspectRatio="xMidYMid meet">
<metadata>
Created by potrace 1.13, written by Peter Selinger 2001-2015
</metadata>
<g transform="translate(0.000000,108.000000) scale(0.100000,-0.100000)"
fill="#000000" stroke="none">
<path d="M355 1054 c-139 -30 -203 -74 -276 -187 -101 -155 -91 -372 28 -650
18 -43 33 -94 33 -112 0 -25 9 -41 40 -69 57 -51 56 -51 153 36 23 21 45 38
49 38 15 0 8 33 -21 94 -68 142 -97 359 -58 437 36 73 161 107 234 64 58 -34
74 -73 75 -177 0 -78 -5 -108 -32 -187 -17 -52 -42 -119 -56 -148 -13 -30 -24
-59 -24 -66 0 -17 159 -117 187 -117 12 0 23 5 23 11 0 6 9 24 21 40 15 21 20
39 16 62 -4 25 9 60 59 162 102 209 125 335 86 475 -23 81 -83 176 -139 219
-93 69 -270 103 -398 75z m10 -120 c97 -26 101 -27 152 -10 26 9 69 19 95 22
58 8 102 -16 151 -84 50 -69 65 -101 78 -176 19 -112 -7 -210 -106 -401 -44
-85 -56 -116 -52 -140 5 -28 -11 -65 -27 -65 -4 0 -29 15 -55 33 l-49 32 18
35 c32 64 81 221 90 292 10 83 -1 176 -27 221 -10 18 -40 47 -67 65 -38 25
-58 32 -98 32 -84 0 -137 -19 -183 -66 -48 -48 -65 -99 -65 -192 0 -74 40
-259 72 -332 l24 -54 -44 -38 c-24 -21 -46 -38 -48 -38 -16 0 -38 37 -44 74
-4 22 -9 48 -12 56 -3 8 -3 12 -1 8 6 -10 45 -10 67 -2 27 10 18 84 -10 84
-29 0 -64 -24 -65 -44 -1 -27 -37 52 -73 158 -34 101 -39 255 -11 326 22 54
94 168 122 193 24 21 71 37 93 31 9 -2 42 -11 75 -20z"/>
<path d="M192 858 c-7 -7 -12 -24 -12 -39 0 -58 98 -49 100 10 0 32 -63 54
-88 29z"/>
<path d="M650 851 c-21 -17 -23 -23 -15 -48 12 -33 35 -40 76 -23 33 14 36 30
13 65 -19 30 -40 31 -74 6z"/>
<path d="M110 659 c-7 -11 -9 -32 -6 -46 6 -21 11 -24 44 -21 35 3 37 5 40 39
3 31 -1 37 -20 43 -37 10 -47 7 -58 -15z"/>
<path d="M720 610 l0 -40 45 0 45 0 0 40 0 40 -45 0 -45 0 0 -40z"/>
<path d="M112 433 c3 -36 5 -38 38 -38 33 0 35 2 38 38 l3 37 -41 0 -41 0 3
-37z"/>
<path d="M686 435 c-12 -32 -6 -55 18 -67 34 -15 53 -5 61 32 8 38 7 39 -37
46 -27 5 -37 2 -42 -11z"/>
<path d="M608 244 c-16 -34 0 -59 38 -59 22 0 31 6 39 28 8 24 6 31 -10 43
-29 21 -54 17 -67 -12z"/>
</g>
</svg>
