<?xml version="1.0" standalone="no"?>
<!DOCTYPE svg PUBLIC "-//W3C//DTD SVG 20010904//EN"
 "http://www.w3.org/TR/2001/REC-SVG-20010904/DTD/svg10.dtd">
<svg version="1.0" xmlns="http://www.w3.org/2000/svg"
 width="332.000000pt" height="248.000000pt" viewBox="0 0 332.000000 248.000000"
 preserveAspectRatio="xMidYMid meet">
<metadata>
Created by potrace 1.13, written by Peter Selinger 2001-2015
</metadata>
<g transform="translate(0.000000,248.000000) scale(0.100000,-0.100000)"
fill="#000000" stroke="none">
<path d="M180 2451 c0 -11 -6 -21 -12 -23 -10 -4 -10 -16 -2 -56 8 -42 8 -56
-3 -72 -32 -45 -97 -188 -104 -225 -4 -22 -10 -55 -14 -74 -8 -32 -7 -34 17
-29 l25 5 -32 -71 c-41 -91 -47 -118 -39 -172 5 -34 11 -44 25 -44 10 0 24 -9
31 -20 10 -16 24 -20 71 -20 74 0 97 12 97 50 0 23 16 45 79 107 44 43 98 93
121 112 l42 34 32 -34 c55 -60 101 -122 145 -198 24 -41 57 -88 73 -105 48
-49 69 -102 78 -190 4 -45 22 -123 39 -175 30 -92 30 -94 12 -120 -10 -14 -21
-35 -25 -46 -8 -27 -86 -109 -156 -165 -73 -58 -77 -64 -90 -125 -9 -44 -8
-60 5 -91 17 -42 36 -121 61 -262 16 -90 18 -94 50 -110 19 -8 34 -19 34 -24
0 -4 7 -8 15 -8 8 0 15 -4 15 -10 0 -5 20 -21 43 -35 46 -26 120 -34 132 -14
4 6 4 35 0 65 -8 66 -50 114 -100 114 -44 0 -80 62 -95 164 -14 90 -8 136 24
182 24 35 207 164 296 209 30 15 67 39 82 53 15 14 29 24 32 21 11 -13 91
-283 101 -343 3 -21 17 -61 30 -90 36 -79 71 -216 80 -311 3 -40 -13 -105 -26
-105 -11 0 -69 -105 -69 -124 0 -19 38 -36 83 -36 74 0 137 65 108 112 -15 23
-14 24 10 47 29 27 36 102 15 164 -20 61 -59 274 -51 286 5 9 0 53 -31 247 -8
50 -14 110 -14 132 0 39 2 41 33 44 17 2 79 0 137 -4 58 -3 138 -4 179 -2 81
4 217 42 294 81 47 23 49 23 62 6 26 -35 75 -179 84 -245 5 -38 21 -94 36
-125 19 -43 29 -87 37 -168 l10 -110 -29 -65 c-16 -36 -41 -92 -54 -125 -23
-56 -95 -145 -118 -145 -16 0 -91 -107 -91 -130 0 -26 35 -40 99 -40 64 0 101
28 101 76 0 28 4 35 28 40 36 9 72 47 72 79 0 34 107 268 145 315 6 8 19 32
29 52 9 20 21 40 26 43 16 10 12 54 -11 125 -11 36 -23 103 -26 150 -5 75 -3
91 16 128 16 31 25 40 34 32 46 -37 69 -62 100 -110 19 -31 67 -85 106 -120
40 -35 83 -85 98 -110 14 -25 40 -60 58 -78 20 -20 37 -52 45 -80 6 -26 20
-76 31 -112 28 -95 26 -199 -6 -275 -35 -87 -34 -102 14 -110 63 -10 114 9
134 50 22 47 21 68 -3 90 -20 18 -20 18 1 33 19 13 21 21 15 76 -3 33 -21 119
-40 191 -20 77 -37 169 -41 227 l-7 97 -40 38 c-173 161 -220 238 -211 348 2
22 5 99 7 170 3 72 9 143 15 158 13 32 1 128 -23 197 -20 57 -20 57 3 63 13 3
30 -5 48 -24 15 -16 33 -29 38 -29 6 0 16 -25 23 -55 10 -43 10 -77 1 -161
-11 -108 -10 -121 23 -284 6 -30 19 -63 29 -72 12 -12 15 -28 12 -60 -6 -52
25 -152 69 -220 16 -26 37 -73 45 -105 27 -106 52 -152 91 -168 52 -23 81 -19
88 9 3 14 3 30 -1 35 -3 6 0 11 8 11 17 0 29 81 30 200 1 58 -7 100 -32 185
-59 193 -62 216 -56 371 7 175 -3 240 -51 337 -27 56 -46 80 -70 93 -19 10
-34 21 -34 25 0 25 -188 41 -277 23 -64 -13 -78 -13 -117 0 -93 32 -330 62
-446 58 -30 -1 -95 -11 -145 -21 -253 -54 -345 -56 -472 -11 -211 77 -252 90
-328 104 -114 23 -285 111 -285 146 0 6 -5 10 -11 10 -6 0 -26 16 -44 36 -36
39 -128 74 -194 74 -20 0 -75 16 -121 36 -61 25 -106 37 -158 41 -40 3 -75 10
-78 14 -3 5 -18 9 -33 9 -20 0 -39 12 -65 40 -40 43 -76 53 -76 21z m381 -213
c37 -22 110 -98 94 -98 -11 0 -15 -11 -15 -42 l0 -42 -17 23 c-33 43 -142 151
-153 151 -5 0 -10 5 -10 10 0 14 76 12 101 -2z m154 -171 c5 -17 14 -27 25
-27 12 0 19 -10 22 -30 3 -16 1 -30 -4 -30 -4 0 -8 9 -8 21 0 12 -8 23 -18 25
-15 5 -52 74 -52 99 0 16 28 -30 35 -58z m-515 -7 c0 -5 -8 -10 -17 -10 -15 0
-16 2 -3 10 19 12 20 12 20 0z m468 -29 c23 -19 28 -36 14 -45 -5 -3 -16 10
-25 29 -19 40 -18 42 11 16z m1767 -141 c169 -30 219 -47 228 -79 4 -16 0 -17
-32 -10 -77 17 -91 22 -91 29 0 4 -25 7 -55 7 -47 0 -55 -3 -55 -18 0 -12 7
-19 19 -19 21 0 47 -27 37 -38 -4 -4 -13 1 -20 11 -7 9 -18 17 -24 17 -6 0
-19 14 -29 30 -9 17 -25 30 -35 30 -14 0 -18 -8 -18 -40 0 -22 5 -40 10 -40 6
0 10 -9 10 -19 0 -13 9 -21 30 -26 16 -4 34 -4 39 -1 5 3 11 -3 14 -14 3 -12
14 -20 27 -20 20 0 22 4 16 35 -6 28 -4 35 8 35 12 0 14 -7 10 -28 -5 -23 -1
-30 18 -39 l23 -12 -27 0 c-25 -1 -28 -5 -28 -34 0 -38 -27 -75 -51 -70 -9 3
-20 25 -28 63 -11 47 -17 60 -32 60 -11 0 -19 4 -19 9 0 5 -13 14 -30 20 -16
5 -30 15 -30 20 0 6 -5 11 -11 11 -17 0 -35 23 -43 53 -7 29 -46 40 -46 12 0
-8 -4 -15 -10 -15 -5 0 -10 9 -10 20 0 11 -7 20 -15 20 -9 0 -15 9 -15 25 l0
25 108 -1 c59 0 130 -4 157 -9z m-385 -19 c0 -5 -9 -13 -20 -16 -11 -3 -20
-14 -21 -23 0 -11 -3 -12 -6 -4 -7 19 -34 14 -54 -10 -22 -24 -25 -82 -6 -100
8 -6 11 -22 9 -35 -3 -16 0 -23 12 -23 9 0 16 -8 16 -20 0 -16 7 -20 35 -20
32 0 35 2 35 30 0 19 -7 33 -20 40 -11 6 -20 20 -20 30 0 11 -4 20 -10 20 -5
0 -7 7 -3 16 5 13 10 9 23 -17 9 -19 26 -49 37 -67 22 -36 20 -82 -5 -82 -12
0 -14 -9 -8 -47 3 -26 12 -51 19 -56 9 -6 8 -7 -3 -5 -8 3 -19 21 -24 41 -5
20 -15 37 -23 37 -7 0 -13 5 -13 10 0 6 -6 10 -14 10 -7 0 -16 14 -19 30 -4
17 -13 30 -20 30 -10 0 -16 20 -21 70 -6 59 -10 70 -26 70 -15 0 -20 -11 -25
-65 -4 -36 -12 -65 -17 -65 -12 0 -1 -72 12 -80 13 -8 22 -50 11 -50 -14 0
-41 41 -41 62 0 10 -4 18 -9 18 -5 0 -12 16 -15 35 -6 29 -11 35 -31 35 -14 0
-25 5 -25 10 0 6 -9 10 -21 10 -19 0 -20 -4 -13 -47 4 -27 7 -64 6 -83 -1 -36
17 -73 51 -102 26 -23 9 -23 -23 -1 -32 22 -40 33 -40 61 0 12 -5 22 -11 22
-6 0 -8 9 -4 20 9 28 -15 90 -35 90 -15 0 -16 -13 -12 -102 3 -81 1 -107 -11
-123 -9 -11 -19 -17 -22 -13 -4 4 -10 57 -13 118 -4 102 -7 112 -26 120 -12 5
-15 9 -8 9 6 1 12 7 12 14 0 7 9 19 20 27 11 8 20 20 20 27 0 7 11 13 25 13
14 0 33 9 42 20 10 11 30 20 45 20 18 0 28 5 28 15 0 8 7 15 16 15 9 0 24 8
33 18 11 14 45 23 121 34 58 9 106 16 108 17 1 1 2 -3 2 -8z m923 -44 c18 -8
38 -21 45 -30 12 -14 11 -15 -15 -8 -48 15 -61 22 -67 37 -7 17 -3 17 37 1z
m-1873 -162 c-7 -8 -17 -15 -23 -15 -6 0 -2 7 9 15 25 19 30 19 14 0z m-75
-14 c-3 -6 -11 -11 -17 -11 -6 0 -6 6 2 15 14 17 26 13 15 -4z m185 -45 c-7
-18 -16 -26 -28 -24 -25 5 -21 32 6 36 12 2 22 8 22 14 0 6 2 9 5 6 3 -3 1
-17 -5 -32z m345 -71 c0 -70 4 -108 12 -113 6 -4 15 -20 18 -35 7 -27 6 -28
-21 -21 -16 4 -31 8 -33 10 -2 2 -6 62 -10 133 -6 126 -5 131 14 131 19 0 20
-7 20 -105z m236 65 c4 -3 10 -23 14 -45 6 -37 6 -38 -8 -20 -8 11 -17 38 -20
60 -4 22 -4 33 0 25 3 -8 9 -17 14 -20z m-831 -61 c0 -5 -9 -9 -20 -9 -13 0
-18 5 -14 14 6 15 34 11 34 -5z m175 -89 c0 -41 -3 -50 -17 -50 -10 0 -18 -6
-18 -14 0 -8 -7 -16 -15 -20 -10 -4 -15 1 -15 14 0 11 7 20 15 20 10 0 16 16
21 50 4 28 12 50 18 50 7 0 11 -20 11 -50z m-241 13 c-6 -25 -24 -56 -24 -41
0 10 22 68 26 68 2 0 1 -12 -2 -27z m1258 -25 c-9 -9 -12 -4 -11 23 0 32 1 33
11 11 8 -17 8 -26 0 -34z m80 -73 c3 -14 1 -25 -3 -25 -5 0 -9 11 -9 25 0 14
2 25 4 25 2 0 6 -11 8 -25z m55 -27 c-3 -8 -6 -5 -6 6 -1 11 2 17 5 13 3 -3 4
-12 1 -19z m-7 -26 c0 -4 -9 -14 -20 -22 -13 -9 -20 -26 -20 -45 0 -17 -6 -39
-13 -49 -12 -17 -14 -15 -13 18 1 20 4 36 9 36 4 0 7 9 7 19 0 33 11 51 31 51
10 0 19 -4 19 -8z m-1301 -161 c-15 -5 -22 6 -14 19 6 9 10 9 16 -1 5 -8 4
-15 -2 -18z m1371 -221 c0 -10 -7 -25 -15 -34 -8 -8 -15 -19 -15 -24 0 -5 -7
-16 -16 -23 -15 -12 -16 -11 -9 11 4 14 11 27 15 30 4 3 11 20 15 38 7 33 25
35 25 2z m-1680 -100 c-6 -11 -13 -20 -16 -20 -2 0 0 9 6 20 6 11 13 20 16 20
2 0 0 -9 -6 -20z"/>
</g>
</svg>
