<?xml version="1.0" standalone="no"?>
<!DOCTYPE svg PUBLIC "-//W3C//DTD SVG 20010904//EN"
 "http://www.w3.org/TR/2001/REC-SVG-20010904/DTD/svg10.dtd">
<svg version="1.0" xmlns="http://www.w3.org/2000/svg"
 width="830.000000pt" height="784.000000pt" viewBox="0 0 830.000000 784.000000"
 preserveAspectRatio="xMidYMid meet">
<metadata>
Created by potrace 1.13, written by Peter Selinger 2001-2015
</metadata>
<g transform="translate(0.000000,784.000000) scale(0.100000,-0.100000)"
fill="#000000" stroke="none">
<path d="M1382 6524 c-17 -19 -8 -31 53 -69 32 -21 42 -32 35 -41 -6 -6 -8
-18 -5 -26 7 -17 -36 -22 -47 -5 -5 9 -10 9 -20 -1 -14 -14 -42 -16 -33 -3 8
14 -35 35 -46 24 -12 -12 -19 -50 -13 -68 3 -7 17 -16 32 -20 14 -3 22 -9 16
-13 -11 -8 -12 -32 -1 -48 4 -7 0 -25 -8 -40 -15 -28 -14 -30 10 -49 14 -11
45 -39 70 -62 25 -24 51 -43 59 -43 8 0 30 -22 50 -50 20 -27 41 -50 47 -50 6
0 9 -6 6 -12 -2 -7 3 -22 12 -33 9 -11 12 -17 7 -13 -5 4 -15 1 -23 -7 -13
-13 -13 -17 1 -30 8 -8 17 -15 21 -15 16 0 92 -41 113 -60 12 -11 22 -18 22
-14 0 3 16 -6 35 -20 19 -15 35 -24 35 -20 0 5 15 -6 33 -23 17 -18 39 -33 47
-35 8 -2 26 -13 40 -25 13 -13 29 -23 35 -23 9 0 24 -12 105 -84 14 -12 27
-22 30 -23 3 -1 17 -4 33 -8 15 -4 27 -11 27 -16 0 -5 3 -8 8 -7 4 2 23 -9 43
-25 20 -15 41 -27 46 -27 6 0 16 -6 22 -14 10 -12 66 -31 84 -27 4 0 7 -4 7
-11 0 -6 3 -9 6 -5 3 3 24 -5 45 -19 21 -13 39 -22 39 -18 0 3 19 -5 43 -19
24 -14 58 -28 77 -30 19 -3 35 -6 35 -7 0 -2 18 -4 100 -14 17 -2 30 -5 30 -6
0 -1 7 -3 15 -5 8 -2 29 -9 45 -16 17 -7 36 -11 42 -10 7 1 23 -4 35 -11 13
-7 26 -13 31 -14 4 -1 8 -2 10 -4 1 -1 9 -3 17 -5 33 -7 106 -43 119 -59 7 -9
20 -16 28 -16 8 0 27 -13 44 -28 25 -23 27 -28 12 -29 -29 -3 -69 -11 -91 -17
-23 -8 -57 -15 -87 -20 -11 -2 -33 -9 -50 -16 -16 -8 -33 -14 -37 -15 -5 -2
-10 -4 -13 -5 -3 -1 -8 -3 -12 -5 -5 -1 -16 -5 -25 -8 -10 -4 -26 -10 -35 -14
-10 -3 -21 -5 -25 -5 -5 1 -8 -2 -8 -7 0 -5 -12 -12 -26 -15 -14 -4 -43 -18
-64 -31 -21 -13 -41 -21 -44 -18 -3 4 -6 0 -6 -7 0 -7 -3 -10 -6 -7 -4 4 -19
-2 -33 -12 -14 -10 -50 -30 -79 -45 -29 -15 -55 -33 -59 -41 -3 -8 -9 -13 -13
-10 -4 3 -19 -5 -34 -16 -19 -15 -38 -20 -69 -18 -37 3 -103 29 -117 48 -3 3
-32 29 -65 56 -33 28 -68 58 -79 68 -11 9 -25 17 -32 17 -7 0 -26 16 -41 35
-15 19 -34 35 -42 35 -8 0 -11 3 -7 7 4 4 -8 14 -25 23 -17 8 -31 19 -30 23 4
14 -89 81 -117 85 -14 2 -33 7 -41 12 -8 4 -26 4 -39 -1 -13 -5 -28 -7 -33 -3
-5 3 -9 1 -9 -5 0 -13 -43 -28 -97 -33 -13 -1 -23 -6 -23 -11 0 -5 -7 -7 -15
-4 -8 4 -17 2 -21 -4 -3 -6 -12 -8 -20 -5 -8 3 -14 2 -14 -3 0 -5 -20 -14 -44
-20 -25 -6 -47 -15 -51 -21 -3 -5 -12 -7 -20 -3 -8 3 -15 1 -15 -5 0 -5 -11
-8 -25 -7 -14 2 -27 -1 -31 -6 -3 -5 -9 -7 -14 -4 -4 3 -27 -2 -50 -10 -23 -8
-44 -14 -48 -14 -4 1 -9 0 -12 -1 -8 -3 -44 -11 -65 -14 -11 -2 -22 -5 -25 -6
-3 -1 -9 -3 -15 -4 -5 -1 -25 -5 -44 -10 -43 -10 -101 -13 -101 -5 0 6 -54 4
-132 -5 -21 -2 -35 0 -32 5 3 5 -2 12 -10 15 -9 3 -16 11 -16 18 0 6 -9 18
-21 26 -11 8 -30 23 -41 33 -25 20 -30 21 -125 16 -13 -1 -23 -5 -23 -9 0 -3
-6 -7 -12 -8 -77 -5 -155 -55 -160 -101 -2 -17 7 -28 42 -48 25 -14 49 -27 55
-28 19 -4 50 -17 102 -42 29 -14 57 -22 62 -18 6 3 17 3 24 -2 13 -8 20 -10
82 -19 21 -4 57 -13 80 -21 59 -22 115 -32 115 -20 0 5 7 4 15 -3 12 -10 15
-10 15 0 0 7 7 10 15 6 8 -3 15 -1 15 5 0 6 5 7 10 4 6 -4 17 -2 24 4 7 6 23
13 37 15 13 3 24 5 24 6 0 1 14 4 30 5 17 2 40 6 53 9 12 3 32 8 45 11 75 17
317 26 317 11 0 -5 2 -7 5 -4 5 4 75 -10 130 -26 6 -1 28 -6 50 -11 25 -5 55
-22 80 -46 22 -22 43 -39 47 -39 4 0 21 -20 38 -44 40 -59 204 -224 258 -260
24 -16 80 -65 124 -108 45 -43 87 -78 94 -78 6 0 28 -16 49 -35 21 -19 42 -32
47 -29 4 3 8 1 8 -3 0 -11 126 -76 146 -76 8 0 14 -4 14 -9 0 -4 3 -7 8 -7 4
1 9 1 12 -1 13 -5 69 -12 102 -13 21 -1 38 -4 38 -7 0 -3 62 -6 137 -7 75 -2
139 -5 141 -8 3 -3 6 -13 7 -23 1 -9 5 -25 9 -34 4 -9 8 -22 10 -30 1 -7 5
-19 9 -26 5 -7 11 -25 13 -40 3 -15 12 -40 20 -56 8 -16 14 -33 14 -37 0 -4 5
-20 12 -36 6 -15 10 -34 9 -40 -1 -7 4 -13 11 -13 10 0 10 -2 0 -9 -8 -4 -13
-11 -13 -15 4 -26 -1 -47 -14 -60 -8 -8 -15 -17 -15 -20 0 -3 -10 -16 -22 -29
-13 -13 -32 -34 -43 -48 -87 -106 -140 -165 -154 -172 -9 -4 -26 -23 -38 -40
-13 -18 -38 -50 -58 -71 -19 -21 -33 -42 -30 -46 3 -5 1 -11 -4 -15 -13 -8 4
-56 26 -73 9 -6 13 -12 8 -12 -10 0 86 -89 97 -90 3 0 22 -22 42 -50 20 -27
42 -50 48 -50 16 0 68 -44 68 -58 0 -5 7 -13 16 -16 8 -3 13 -10 10 -15 -4 -5
-3 -11 1 -13 11 -4 95 -118 88 -118 -3 0 8 -14 25 -30 17 -17 27 -30 23 -30
-4 0 -1 -6 7 -13 8 -7 24 -28 34 -47 11 -19 28 -42 38 -51 10 -9 18 -24 18
-33 0 -10 13 -31 29 -47 16 -16 28 -29 26 -29 -2 0 12 -15 31 -34 33 -33 34
-38 18 -98 -10 -40 -11 -63 -3 -73 4 -5 8 -14 8 -20 2 -23 15 -51 27 -60 7 -5
27 -21 44 -35 18 -14 42 -34 54 -45 11 -12 24 -22 28 -23 4 -2 27 -11 50 -22
36 -16 46 -17 62 -6 11 7 21 21 23 32 9 48 10 65 2 69 -4 3 -8 13 -8 23 0 9
-2 33 -6 52 -4 19 -7 41 -7 48 -1 6 -5 12 -10 12 -4 0 -8 7 -8 15 0 14 -44 93
-59 105 -21 17 -52 85 -57 124 -2 16 -11 40 -19 53 -9 13 -12 23 -8 23 4 0 -3
7 -15 16 -12 8 -22 19 -22 24 0 5 -21 31 -47 59 -81 84 -113 121 -113 129 0 4
-9 14 -20 22 -11 8 -20 20 -20 27 0 7 -5 13 -11 13 -5 0 -8 4 -5 8 3 5 -4 16
-15 25 -10 9 -19 24 -19 32 0 8 -5 15 -11 15 -5 0 -8 4 -4 9 3 6 -1 13 -9 18
-8 4 -14 12 -14 16 0 7 -5 21 -28 82 -4 11 -9 35 -11 53 -5 36 14 58 75 88 18
9 37 25 43 35 5 11 14 19 20 19 5 0 23 12 38 28 16 15 48 43 71 62 24 19 53
46 66 60 13 14 24 20 24 15 0 -6 3 -6 8 0 4 6 29 29 57 50 67 54 75 61 75 77
1 7 8 0 17 -17 9 -16 15 -31 15 -33 -5 -6 51 -102 59 -102 5 0 8 -3 7 -7 -3
-11 13 -57 21 -63 4 -3 15 -22 24 -42 10 -21 22 -38 27 -38 6 0 10 -6 10 -13
0 -7 9 -23 20 -35 11 -12 20 -26 20 -32 0 -5 5 -10 11 -10 5 0 8 -4 4 -9 -3
-6 0 -13 7 -18 7 -4 26 -25 42 -46 15 -21 44 -54 62 -73 19 -19 32 -34 28 -34
-4 0 5 -10 20 -21 15 -12 25 -23 22 -26 -2 -2 16 -24 41 -49 25 -24 43 -44 40
-44 -6 0 10 -23 38 -54 19 -21 56 -76 51 -76 -4 0 21 -33 54 -69 16 -17 17
-27 6 -53 -4 -9 -8 -22 -10 -30 -1 -7 -5 -19 -9 -25 -5 -7 -5 -13 -1 -13 4 0
-1 -8 -10 -19 -9 -10 -16 -22 -15 -27 1 -5 -7 -31 -19 -57 -12 -27 -22 -53
-22 -58 0 -5 -4 -9 -10 -9 -5 0 -7 -7 -4 -15 4 -8 1 -15 -5 -15 -6 0 -8 -6 -5
-14 3 -7 -1 -20 -9 -27 -7 -8 -12 -20 -9 -27 2 -6 -2 -12 -8 -12 -7 0 -10 -7
-6 -15 3 -8 1 -15 -4 -15 -5 0 -7 -7 -4 -15 4 -8 2 -15 -3 -15 -5 0 -9 -10
-10 -22 -1 -11 -6 -24 -10 -27 -4 -3 -9 -17 -11 -31 -1 -14 -7 -27 -12 -28 -6
-2 -8 -8 -4 -13 3 -5 0 -9 -6 -9 -7 0 -9 -7 -5 -17 5 -14 3 -15 -6 -6 -6 6
-13 26 -15 43 -2 17 -7 37 -11 43 -4 7 -8 19 -10 27 -1 8 -5 31 -9 50 -5 19
-9 40 -10 45 -1 6 -2 12 -3 15 -1 3 -3 38 -4 78 -1 40 -7 76 -12 80 -6 4 -18
22 -29 40 -18 33 -18 34 5 60 13 15 29 30 34 34 6 5 6 8 1 8 -6 0 -5 5 1 11
11 11 0 84 -17 104 -4 5 -8 14 -8 18 0 18 -55 119 -68 124 -8 3 -12 8 -9 13 2
4 -9 19 -26 34 -49 44 -90 22 -106 -56 -1 -10 -5 -28 -7 -40 -3 -13 -5 -23 -6
-23 -1 0 -4 -11 -8 -25 -9 -40 -6 -152 7 -195 17 -57 22 -84 26 -135 2 -25 4
-46 5 -47 3 -4 6 -13 15 -50 4 -18 12 -33 18 -33 6 0 8 -3 4 -6 -3 -4 0 -22 8
-41 8 -19 14 -37 13 -41 -1 -4 3 -17 10 -30 7 -12 10 -27 7 -32 -3 -5 -1 -11
4 -15 5 -3 8 -14 6 -25 -2 -11 -1 -20 3 -20 4 0 8 -8 9 -17 1 -10 9 -47 17
-83 9 -36 19 -78 22 -95 8 -40 12 -59 14 -65 1 -3 2 -8 1 -12 0 -5 3 -8 8 -8
5 0 11 -10 15 -23 6 -24 61 -52 103 -52 12 0 24 -3 27 -6 6 -6 38 -4 89 4 10
2 23 10 28 18 5 8 9 10 9 6 0 -26 67 79 81 128 2 6 13 21 25 34 13 14 21 27
19 31 -2 3 7 19 21 35 13 15 24 34 24 42 0 7 4 13 9 13 5 0 13 10 17 23 3 12
14 29 23 38 9 9 28 31 43 50 14 19 38 48 52 64 14 17 26 34 26 38 0 4 6 2 14
-5 7 -7 13 -19 11 -27 -1 -8 4 -26 10 -38 8 -15 11 -48 8 -86 -4 -59 -2 -65
25 -92 71 -71 145 -140 147 -135 2 5 86 -61 123 -97 13 -13 28 -23 35 -23 7 0
30 -16 52 -35 22 -19 44 -35 50 -35 5 0 33 -21 60 -45 28 -25 55 -45 61 -45 6
0 31 -18 55 -40 24 -22 49 -40 55 -40 7 0 27 -14 45 -31 19 -18 44 -38 56 -46
13 -9 20 -19 17 -24 -3 -5 -1 -9 4 -9 9 0 26 -55 23 -72 0 -5 3 -8 9 -8 5 0
10 -7 10 -15 0 -8 4 -15 8 -15 9 0 47 -62 44 -72 -1 -5 2 -8 8 -8 5 0 10 -9
10 -20 0 -11 4 -20 8 -20 7 0 11 -16 14 -57 1 -7 5 -13 9 -13 4 0 8 -8 8 -17
1 -30 7 -58 15 -71 4 -7 2 -12 -6 -12 -9 0 -9 -3 -2 -8 11 -7 24 -47 30 -91 2
-13 9 -28 16 -32 10 -7 10 -9 -1 -9 -10 0 -11 -3 -2 -13 6 -8 9 -16 6 -19 -3
-3 -1 -27 5 -54 5 -27 12 -69 15 -94 3 -25 7 -56 9 -69 2 -13 16 -34 31 -47
15 -12 24 -27 21 -33 -4 -5 -1 -13 5 -17 7 -4 2 -15 -15 -31 -18 -17 -25 -31
-21 -44 4 -11 2 -19 -5 -19 -7 0 -8 -6 0 -19 7 -14 7 -22 0 -26 -7 -4 -8 -11
-1 -18 5 -7 9 -15 8 -18 -2 -8 94 -129 102 -129 4 0 24 -16 44 -35 20 -19 37
-32 37 -28 0 4 5 2 11 -4 9 -9 17 -6 31 12 14 18 20 43 21 90 1 37 6 65 12 65
6 0 7 3 0 8 -5 4 -11 24 -13 45 -1 21 -9 48 -17 61 -8 12 -12 26 -8 30 4 4 2
11 -5 15 -7 4 -14 17 -17 29 -2 11 -8 29 -13 39 -5 10 -7 24 -5 31 3 6 1 12
-4 12 -4 0 -8 14 -8 30 0 17 4 30 8 30 5 0 5 6 1 12 -5 7 -9 19 -10 28 -4 23
-10 42 -23 75 -7 17 -15 50 -18 75 -3 25 -8 47 -12 50 -3 3 -7 16 -8 30 0 14
-6 50 -13 80 -6 30 -13 71 -14 91 -2 20 -6 41 -9 46 -4 6 -5 24 -2 42 2 17 -1
31 -7 31 -5 0 -8 6 -5 14 3 8 3 17 -1 20 -8 9 -11 96 -3 96 3 0 5 15 4 32 -1
18 -2 33 -3 33 -2 0 -5 17 -13 68 -2 10 -21 32 -43 50 -21 17 -49 41 -60 52
-12 11 -35 30 -50 42 -43 33 -88 73 -82 73 3 0 -16 22 -41 49 -97 104 -113
122 -132 156 -12 19 -24 35 -28 35 -4 0 -22 25 -40 55 -18 30 -36 55 -40 55
-4 0 -14 13 -24 29 -17 29 -17 29 11 39 15 5 38 19 51 31 13 11 30 21 38 21 7
0 13 5 13 11 0 5 5 7 10 4 6 -3 10 -3 10 2 0 4 20 30 45 58 25 27 45 46 45 42
0 -4 10 1 22 12 11 11 24 18 28 16 4 -3 13 2 20 10 7 8 19 15 26 15 8 0 14 5
14 10 0 6 6 10 14 10 7 0 21 11 29 24 9 13 28 37 43 53 26 27 49 71 46 85 -1
5 3 8 9 8 6 0 9 5 7 12 -3 7 3 20 11 30 9 10 16 22 17 26 2 25 45 93 81 130
24 23 43 40 43 37 0 -3 18 6 39 19 21 14 42 22 45 19 3 -4 6 0 6 8 0 8 23 25
51 39 28 14 56 32 63 40 6 8 18 16 25 18 8 2 25 14 38 28 13 14 23 22 23 18 0
-4 9 3 20 16 11 13 20 19 20 15 0 -4 11 5 25 21 14 16 25 25 25 20 0 -4 9 2
20 15 10 13 19 20 20 16 0 -5 15 8 34 27 18 20 38 36 44 36 6 0 16 9 22 20 6
11 17 20 25 20 8 0 15 7 15 15 0 8 9 15 20 15 11 0 20 7 20 15 0 8 6 15 13 15
7 0 23 10 37 23 34 31 108 63 120 51 4 -5 11 -31 14 -59 9 -72 11 -84 19 -91
4 -4 7 -15 7 -25 0 -9 15 -30 33 -45 17 -15 31 -29 30 -30 -2 -2 -3 -5 -2 -6
0 -2 2 -39 4 -83 1 -44 3 -80 4 -80 4 0 13 -59 12 -75 -1 -32 -8 -51 -22 -68
-9 -10 -14 -23 -11 -30 2 -7 -1 -12 -7 -12 -20 0 -11 -41 16 -78 49 -65 103
-103 103 -72 0 6 5 10 10 10 6 0 10 -6 10 -14 0 -8 14 -26 31 -40 17 -14 27
-26 24 -26 -4 0 -3 -6 3 -13 15 -17 83 -13 94 7 5 8 15 13 23 10 8 -4 15 -1
15 5 0 6 3 10 8 9 4 -1 24 6 45 15 26 11 42 27 50 47 6 16 14 30 18 30 3 0 5
11 4 23 -2 13 6 48 16 77 10 29 16 57 13 61 -3 5 -1 9 4 9 10 0 38 79 34 98
-2 6 1 12 5 12 4 0 8 13 9 29 1 16 5 37 9 47 7 17 12 43 17 97 1 9 5 17 8 17
3 0 5 15 6 33 1 55 10 101 28 135 9 17 17 34 17 37 0 2 4 18 9 35 5 16 6 30 2
30 -4 0 -7 63 -8 140 0 77 4 140 8 140 5 0 6 6 2 12 -5 7 -9 19 -10 28 -4 28
-15 75 -19 78 -2 2 1 18 7 35 11 39 16 87 8 87 -3 0 -5 16 -4 36 2 27 -4 43
-23 62 -24 24 -25 24 -42 6 -10 -11 -16 -24 -14 -29 2 -6 -2 -18 -9 -28 -11
-14 -13 -3 -12 70 2 69 -1 90 -14 99 -13 9 -20 6 -39 -16 -13 -15 -23 -33 -23
-39 0 -6 -4 -11 -10 -11 -5 0 -7 -7 -4 -15 4 -8 1 -15 -6 -15 -6 0 -8 -4 -5
-10 3 -5 -6 -23 -21 -39 -22 -25 -32 -29 -58 -24 -17 3 -34 11 -38 17 -4 6 -8
7 -8 2 0 -5 -7 -3 -15 4 -8 7 -15 9 -15 5 0 -5 -8 -1 -17 7 -17 15 -83 33
-110 31 -7 0 -13 3 -13 7 0 4 -30 8 -68 10 -88 3 -146 7 -149 10 -2 1 -6 3
-10 4 -44 12 -100 29 -108 34 -5 3 -41 7 -80 8 -38 1 -82 5 -98 7 -19 4 -30 1
-37 -12 -5 -10 -6 -21 -3 -25 4 -3 -7 -4 -23 -1 -16 4 -40 7 -54 9 -14 1 -38
8 -55 16 -16 7 -36 14 -43 16 -19 4 -73 -46 -65 -60 3 -6 -5 -1 -19 12 -13 12
-28 19 -31 15 -4 -3 -7 0 -7 7 0 7 -2 11 -5 8 -4 -3 -25 -1 -48 4 -57 14 -97
16 -97 6 0 -4 -3 -7 -7 -6 -5 1 -18 -4 -31 -11 -13 -7 -29 -10 -36 -8 -7 3
-18 -3 -24 -14 -11 -18 -14 -18 -47 -2 -19 9 -35 19 -35 23 0 3 -9 6 -21 7
-24 2 -36 -22 -20 -41 18 -22 0 -26 -23 -5 -28 27 -83 50 -101 43 -19 -8 -19
-30 0 -38 8 -3 15 -11 15 -18 0 -9 -3 -9 -10 2 -5 8 -12 11 -16 8 -4 -4 -15
-3 -25 3 -21 11 -59 -4 -59 -22 0 -18 -25 -36 -45 -33 -11 2 -30 5 -42 6 -13
1 -23 5 -23 8 0 3 -17 6 -38 7 -44 2 -119 10 -164 19 -18 3 -38 7 -45 8 -6 1
-22 10 -35 19 -24 18 -67 47 -124 82 -18 11 -53 39 -79 63 -26 23 -51 42 -57
42 -5 0 -6 5 -3 10 3 6 -1 13 -9 16 -9 3 -16 11 -16 18 0 6 -13 26 -29 43 -16
18 -26 34 -23 37 3 3 0 6 -6 6 -7 0 -12 4 -12 10 0 9 -19 35 -47 65 -7 8 -13
18 -13 24 0 5 -8 17 -17 27 -10 10 -18 20 -18 23 -1 13 -40 71 -48 71 -4 0 -6
4 -3 8 3 5 -4 18 -14 30 -11 12 -20 26 -20 32 0 5 -4 10 -10 10 -5 0 -10 7
-10 15 0 8 -5 15 -11 15 -5 0 -8 4 -5 8 3 5 -13 30 -35 55 -22 25 -40 48 -39
52 0 3 -23 25 -52 48 -29 23 -66 54 -82 69 -15 15 -31 26 -35 25 -8 -2 -95 54
-99 64 -2 5 -12 9 -22 9 -10 0 -20 4 -22 10 -1 5 -13 11 -25 13 -12 2 -31 11
-41 20 -10 9 -26 17 -35 17 -9 0 -17 5 -17 10 0 6 -5 10 -11 10 -6 0 -40 14
-76 30 -35 17 -66 30 -69 30 -2 0 -12 7 -21 15 -10 8 -21 15 -25 15 -4 0 -28
11 -52 25 -25 14 -53 27 -63 28 -27 6 -54 18 -94 43 -20 13 -39 21 -41 19 -2
-2 -28 18 -58 45 -30 28 -58 50 -62 50 -5 0 -8 6 -8 13 0 7 -15 21 -32 32 -44
26 -51 31 -117 95 -31 30 -79 73 -105 95 -27 22 -55 46 -62 53 -7 7 -15 11
-17 10 -3 -2 -19 8 -37 22 -18 14 -34 23 -35 20 -2 -3 -12 3 -22 13 -11 9 -22
15 -25 12 -2 -3 -17 9 -33 25 -16 17 -35 30 -43 30 -7 0 -19 6 -26 13 -34 32
-74 62 -87 65 -7 2 -16 7 -19 11 -3 5 -15 11 -27 15 -13 4 -23 11 -23 16 0 7
-26 17 -65 25 -6 2 -28 20 -51 41 -22 22 -58 55 -80 75 -21 20 -44 43 -51 50
-6 8 -24 24 -40 36 -15 12 -38 31 -50 43 -13 11 -23 18 -23 15 0 -4 -18 4 -40
16 -22 13 -40 28 -40 34 0 6 -9 17 -21 25 -12 8 -42 34 -68 57 -25 24 -60 49
-77 57 -16 8 -39 25 -50 37 -20 22 -94 64 -106 61 -5 -1 -8 2 -8 7 0 9 -48 26
-62 23 -5 -1 -8 2 -8 7 0 5 -8 12 -17 15 -16 5 -35 19 -90 66 -7 5 -21 11 -32
13 -11 2 -29 11 -39 20 -10 9 -22 17 -25 17 -4 0 -25 11 -47 25 -46 29 -41 28
-58 9z m-698 -1619 c34 -15 53 -41 20 -28 -9 3 -23 7 -32 8 -31 4 -62 17 -62
26 0 14 33 11 74 -6z m151 -29 c6 3 17 -1 23 -9 10 -12 6 -14 -20 -12 -18 2
-41 3 -51 4 -10 0 -15 6 -12 11 4 6 11 8 16 5 5 -4 9 -1 9 6 0 10 3 10 11 2 6
-6 17 -9 24 -7z m4961 -1038 c4 -6 -2 -7 -17 -3 -35 10 -45 23 -15 18 15 -3
29 -10 32 -15z m1324 -508 c0 -10 -6 -22 -12 -26 -7 -4 -10 -4 -6 1 4 4 3 15
-2 25 -5 10 -7 20 -3 23 10 10 23 -3 23 -23z m-3663 -886 c0 -18 -2 -17 -21 2
-22 21 -20 37 2 23 10 -7 19 -18 19 -25z m39 -160 c-3 -8 2 -21 11 -30 14 -13
14 -17 2 -25 -8 -5 -22 -9 -33 -9 -17 0 -17 2 -4 23 10 15 12 31 7 50 -7 24
-6 27 7 16 8 -7 13 -18 10 -25z"/>
</g>
</svg>
