<?xml version="1.0" standalone="no"?>
<!DOCTYPE svg PUBLIC "-//W3C//DTD SVG 20010904//EN"
 "http://www.w3.org/TR/2001/REC-SVG-20010904/DTD/svg10.dtd">
<svg version="1.0" xmlns="http://www.w3.org/2000/svg"
 width="180.000000pt" height="167.000000pt" viewBox="0 0 180.000000 167.000000"
 preserveAspectRatio="xMidYMid meet">
<metadata>
Created by potrace 1.13, written by Peter Selinger 2001-2015
</metadata>
<g transform="translate(0.000000,167.000000) scale(0.100000,-0.100000)"
fill="#000000" stroke="none">
<path d="M755 1645 c-364 -69 -602 -344 -622 -718 -6 -101 0 -163 28 -297 14
-68 60 -233 70 -253 5 -9 19 -43 31 -74 36 -96 131 -264 162 -285 6 -4 32 -8
57 -8 42 0 50 4 83 40 39 44 40 49 26 159 -7 52 -18 86 -35 112 -14 20 -29 54
-32 75 -3 22 -16 62 -28 89 -70 161 -50 362 57 567 41 80 45 84 113 120 64 33
79 37 182 43 96 6 126 4 196 -13 112 -27 143 -40 207 -87 55 -40 73 -67 113
-168 29 -76 39 -255 20 -372 -28 -175 -67 -341 -90 -380 -32 -56 -30 -100 6
-136 16 -16 39 -29 50 -29 11 0 23 -4 26 -10 3 -5 21 -10 39 -10 54 0 103 64
172 226 113 264 146 481 109 714 -27 165 -71 274 -160 390 -128 167 -279 260
-495 306 -80 17 -192 16 -285 -1z"/>
</g>
</svg>
