<?xml version="1.0" standalone="no"?>
<!DOCTYPE svg PUBLIC "-//W3C//DTD SVG 20010904//EN"
 "http://www.w3.org/TR/2001/REC-SVG-20010904/DTD/svg10.dtd">
<svg version="1.0" xmlns="http://www.w3.org/2000/svg"
 width="426.000000pt" height="401.000000pt" viewBox="0 0 426.000000 401.000000"
 preserveAspectRatio="xMidYMid meet">
<metadata>
Created by potrace 1.13, written by Peter Selinger 2001-2015
</metadata>
<g transform="translate(0.000000,401.000000) scale(0.100000,-0.100000)"
fill="#000000" stroke="none">
<path d="M537 3139 c-12 -10 -17 -18 -10 -19 6 0 9 -9 6 -20 -3 -11 -1 -20 4
-20 9 0 23 -11 85 -66 15 -13 33 -24 39 -24 14 0 31 -18 48 -52 9 -18 22 -28
37 -28 13 0 33 -10 46 -22 13 -13 32 -25 43 -26 11 -2 27 -10 36 -18 8 -8 21
-14 27 -14 6 0 18 -8 27 -17 10 -9 25 -17 35 -18 10 -1 25 -7 33 -14 9 -7 25
-13 36 -14 12 -1 21 -4 21 -8 0 -4 10 -11 22 -15 12 -3 32 -19 45 -35 14 -16
27 -28 31 -27 4 1 18 -4 32 -12 14 -7 27 -13 30 -13 3 0 15 -3 28 -8 13 -5 29
-9 35 -9 7 0 27 -9 46 -21 18 -11 46 -21 62 -22 16 -1 29 -5 29 -9 0 -5 3 -7
8 -7 4 1 9 0 12 -1 5 -2 52 -9 93 -13 9 -1 17 -7 17 -14 0 -7 -3 -12 -7 -11
-15 4 -53 -14 -53 -24 0 -6 -3 -8 -7 -5 -3 4 -21 -4 -39 -18 -18 -14 -37 -25
-43 -25 -6 0 -11 -4 -11 -10 0 -5 -9 -10 -20 -10 -11 0 -20 -4 -20 -10 0 -5
-9 -10 -20 -10 -11 0 -20 -4 -20 -8 0 -9 -64 -44 -111 -61 -18 -7 -30 -6 -38
2 -6 6 -11 7 -11 2 0 -4 -9 0 -21 11 -12 10 -24 18 -28 17 -3 -1 -18 9 -32 22
-40 35 -66 47 -74 34 -4 -6 -13 -8 -21 -5 -8 3 -14 1 -14 -5 0 -6 -6 -9 -12
-6 -7 2 -21 0 -31 -5 -10 -5 -31 -12 -45 -14 -15 -3 -32 -10 -39 -15 -7 -6
-17 -8 -23 -4 -5 3 -10 1 -10 -5 0 -7 -7 -10 -15 -6 -8 3 -15 2 -15 -2 0 -4
-8 -8 -17 -9 -10 0 -36 -4 -58 -8 -22 -4 -58 -8 -80 -10 -22 -1 -49 -6 -60 -9
-13 -5 -27 -1 -40 11 -20 18 -67 25 -80 11 -4 -4 -13 -4 -21 -1 -8 3 -14 0
-14 -6 0 -6 -7 -8 -15 -5 -8 4 -15 2 -15 -4 0 -5 -9 -12 -19 -15 -10 -2 -27
-16 -36 -31 -19 -28 -15 -36 37 -70 37 -24 276 -30 320 -8 16 8 40 15 54 16
13 0 24 3 24 6 0 6 9 7 85 9 43 2 100 -4 100 -9 0 -1 8 -3 18 -5 10 -2 26 -12
35 -22 9 -10 40 -37 67 -58 28 -22 53 -44 57 -50 4 -5 8 -6 8 -1 0 5 10 0 23
-12 12 -11 26 -21 30 -20 16 0 72 -26 92 -43 22 -19 108 -38 152 -32 167 20
320 24 332 9 5 -6 8 -22 7 -36 -1 -14 0 -29 3 -35 6 -12 10 -30 14 -65 2 -19
-11 -39 -52 -80 -30 -30 -67 -75 -82 -99 l-28 -43 32 -27 c18 -14 38 -30 45
-36 7 -5 23 -19 35 -30 12 -11 44 -38 72 -60 60 -48 110 -95 102 -95 -3 0 7
-14 22 -31 26 -28 39 -79 21 -79 -10 0 -6 -79 5 -105 11 -24 42 -52 73 -65 36
-15 61 14 58 70 -1 25 1 52 6 61 4 9 4 19 1 23 -8 8 -12 25 -17 87 -2 26 -9
55 -14 65 -11 21 -58 64 -69 64 -14 0 -73 45 -73 56 0 6 -11 20 -25 32 -30 26
-32 42 -5 49 11 3 20 10 20 15 0 5 4 7 10 3 5 -3 25 1 45 9 35 15 35 15 68
-22 45 -52 110 -112 119 -112 4 0 8 -6 8 -12 0 -7 15 -24 33 -38 17 -14 57
-50 88 -80 31 -30 77 -74 103 -97 29 -26 48 -53 52 -72 4 -17 11 -31 17 -31 6
0 8 -3 4 -6 -16 -16 38 -104 64 -104 5 0 5 -10 0 -22 -4 -13 -6 -36 -4 -52 5
-33 -10 -46 -41 -40 -12 2 -34 7 -50 9 -15 3 -35 12 -43 20 -7 8 -24 21 -35
29 -19 14 -20 17 -7 33 8 10 14 25 14 33 -2 29 -35 78 -76 111 -32 25 -45 30
-58 22 -9 -6 -16 -16 -16 -24 0 -8 -3 -18 -6 -24 -10 -16 -4 -115 6 -123 6 -4
11 -18 13 -32 1 -14 5 -32 9 -40 3 -8 7 -21 9 -29 5 -26 46 -59 82 -67 43 -9
51 -11 55 -14 1 -1 9 -3 17 -5 8 -2 26 -6 40 -9 14 -3 52 -13 85 -24 59 -18
108 -14 126 11 3 5 8 7 11 5 10 -6 60 63 62 85 1 18 6 22 23 19 12 -2 28 -10
34 -18 6 -8 18 -14 25 -14 8 0 14 -5 14 -10 0 -6 3 -9 8 -8 12 3 85 -40 121
-72 18 -16 30 -30 25 -30 -5 0 -1 -5 9 -11 9 -6 15 -14 12 -20 -4 -5 -2 -9 3
-9 5 0 15 -24 21 -52 10 -47 15 -81 25 -168 1 -14 8 -38 15 -54 6 -16 8 -38 4
-50 -10 -30 -11 -66 0 -66 4 0 6 -4 2 -10 -3 -5 3 -18 15 -30 11 -11 20 -23
20 -26 0 -10 53 -48 71 -51 9 -1 23 4 30 13 14 17 20 134 7 134 -5 0 -7 4 -4
8 3 5 -1 19 -8 33 -7 13 -12 48 -11 77 1 28 -2 52 -7 52 -4 0 -5 7 -2 15 4 8
1 21 -5 29 -6 7 -8 16 -4 19 3 4 1 7 -5 7 -6 0 -10 8 -10 18 1 19 -7 62 -20
107 -5 17 -8 40 -7 52 1 13 -2 23 -7 23 -5 0 -7 4 -4 8 12 20 -46 138 -63 128
-5 -3 -25 9 -46 27 -20 17 -50 39 -66 47 l-29 15 20 30 c11 17 20 26 20 22 0
-8 13 2 51 35 10 10 19 15 19 11 0 -3 9 5 21 18 11 13 29 35 40 47 11 13 21
32 22 42 1 11 11 21 24 25 13 3 23 10 23 15 0 6 7 10 15 10 8 0 15 7 15 15 0
9 9 15 25 15 14 0 25 5 25 10 0 6 7 10 15 10 8 0 15 4 15 9 0 5 15 15 33 22
17 7 41 21 51 31 11 10 28 20 38 24 10 3 18 10 18 15 0 6 4 8 8 5 5 -3 25 6
44 19 20 13 38 22 41 19 3 -4 15 3 27 14 12 11 28 18 36 15 8 -3 14 0 14 7 0
6 5 8 10 5 6 -4 8 -10 5 -15 -3 -4 2 -11 11 -14 8 -3 13 -9 11 -13 -3 -5 20
-26 50 -48 30 -22 85 -68 121 -102 36 -35 71 -63 76 -63 7 0 6 -3 -1 -8 -14
-9 47 -92 79 -107 16 -7 24 -4 40 18 16 23 22 25 45 16 24 -9 30 -6 62 32 20
23 37 46 37 50 1 5 2 10 4 12 12 15 4 45 -18 64 -15 13 -22 23 -17 23 6 0 4 4
-4 9 -8 5 -16 16 -17 24 -1 8 -11 24 -23 36 -12 12 -21 27 -21 35 0 8 -5 16
-11 18 -6 2 -12 28 -14 58 -1 30 -4 57 -5 60 -1 3 -2 8 -1 13 0 4 -4 7 -10 7
-5 0 -8 4 -5 9 3 5 -6 17 -19 27 -14 10 -25 24 -25 30 0 7 -7 15 -16 18 -8 3
-12 10 -9 16 3 5 2 10 -4 10 -5 0 -23 23 -40 50 -17 28 -28 50 -25 50 3 0 -2
7 -11 16 -11 12 -19 13 -28 5 -14 -11 -58 -11 -52 0 5 7 -65 64 -77 63 -4 -1
-13 -2 -18 -2 -6 -1 -15 -14 -20 -28 -8 -20 -13 -24 -24 -15 -7 6 -16 8 -19 4
-4 -3 -7 -1 -7 6 0 17 -25 41 -47 46 -10 2 -45 9 -78 16 -33 7 -66 19 -73 26
-7 7 -18 13 -23 13 -5 0 -22 11 -37 25 l-26 24 -29 -29 c-34 -34 -40 -36 -61
-15 -8 8 -19 15 -24 15 -5 0 -22 10 -38 23 -34 26 -27 25 -48 8 -12 -11 -14
-17 -5 -28 16 -19 3 -29 -17 -12 -15 13 -29 17 -66 21 -10 1 -18 6 -18 10 0 4
-3 7 -7 6 -5 -1 -18 3 -30 10 -25 14 -35 -2 -26 -39 l6 -23 -23 22 c-27 25
-36 27 -43 9 -3 -8 -16 -13 -29 -11 -12 1 -31 3 -40 3 -9 1 -23 7 -30 14 -14
15 -20 17 -42 17 -8 0 -22 7 -30 16 -9 8 -16 12 -16 8 0 -4 -9 1 -20 11 -12
11 -27 20 -34 21 -8 1 -27 13 -42 27 -83 73 -100 87 -106 87 -5 0 -8 6 -8 13
0 7 -9 19 -20 27 -11 8 -20 20 -20 27 0 7 -5 13 -12 13 -6 0 -9 3 -5 6 11 12
-135 147 -172 159 -12 3 -21 10 -21 15 0 4 -16 11 -35 14 -19 4 -35 11 -35 17
0 6 -4 8 -9 4 -5 -3 -12 -1 -15 4 -3 5 -45 21 -93 35 -118 37 -177 58 -183 66
-6 9 -68 41 -76 39 -4 0 -10 4 -13 10 -4 5 -19 12 -35 15 -16 3 -33 11 -38 18
-4 7 -8 9 -8 4 0 -5 -7 -3 -15 4 -8 7 -15 9 -15 5 0 -4 -6 -3 -12 3 -7 6 -15
10 -18 10 -14 0 -71 16 -116 32 -29 11 -55 16 -58 13 -3 -4 -6 -1 -6 5 0 7 -3
11 -7 10 -10 -2 -45 12 -62 26 -7 5 -19 11 -27 12 -24 4 -74 29 -74 37 0 5 -4
6 -9 2 -5 -3 -12 -1 -15 4 -4 5 -14 8 -24 7 -9 -2 -33 7 -53 20 -20 13 -40 20
-43 17 -3 -4 -6 -2 -6 4 0 6 -20 18 -45 27 -25 10 -45 23 -45 28 0 6 -3 8 -6
5 -4 -4 -19 2 -34 13 -16 11 -32 20 -37 20 -6 0 -18 9 -28 20 -10 11 -20 18
-23 15 -3 -3 -14 2 -24 12 -10 9 -18 13 -18 10 0 -3 -15 -1 -32 4 -18 6 -38
11 -45 13 -7 1 -16 5 -19 9 -4 4 -16 7 -26 7 -10 0 -18 5 -18 10 0 6 -3 9 -7
9 -5 -1 -10 0 -13 1 -3 2 -29 4 -58 5 -39 1 -59 -3 -75 -16z"/>
</g>
</svg>
