<?xml version="1.0" standalone="no"?>
<!DOCTYPE svg PUBLIC "-//W3C//DTD SVG 20010904//EN"
 "http://www.w3.org/TR/2001/REC-SVG-20010904/DTD/svg10.dtd">
<svg version="1.0" xmlns="http://www.w3.org/2000/svg"
 width="114.000000pt" height="107.000000pt" viewBox="0 0 114.000000 107.000000"
 preserveAspectRatio="xMidYMid meet">
<metadata>
Created by potrace 1.13, written by Peter Selinger 2001-2015
</metadata>
<g transform="translate(0.000000,107.000000) scale(0.100000,-0.100000)"
fill="#000000" stroke="none">
<path d="M848 1063 c-42 -4 -48 -7 -48 -27 0 -12 4 -26 9 -31 16 -17 59 -158
75 -244 50 -264 -16 -426 -190 -467 -150 -35 -254 84 -254 292 0 76 29 235 57
315 10 26 14 51 10 55 -3 4 -29 9 -56 12 -70 6 -57 28 14 24 l55 -4 0 30 c0
28 -2 30 -54 36 -89 12 -103 4 -142 -81 -35 -77 -81 -212 -109 -320 -28 -110
-9 -315 38 -407 8 -14 29 -44 48 -67 19 -23 36 -44 39 -48 20 -26 102 -78 149
-93 82 -28 230 -35 310 -14 179 46 315 214 328 406 7 90 -11 259 -37 350 -26
94 -78 224 -99 248 -18 22 -64 43 -84 40 -7 -1 -33 -3 -59 -5z m112 -67 c0 -8
-61 -12 -66 -4 -3 4 11 8 30 8 20 0 36 -2 36 -4z m50 -117 c0 -4 -18 -9 -39
-11 -31 -3 -41 0 -44 14 -4 13 3 18 32 20 32 3 50 -6 51 -23z m-594 1 c18 0
24 -5 24 -22 0 -17 -2 -20 -9 -9 -6 10 -20 12 -45 8 -39 -6 -39 -6 -30 18 4 9
13 14 21 11 8 -3 26 -6 39 -6z m627 -110 c5 -4 -10 -11 -33 -15 -40 -7 -41 -8
-38 -43 3 -36 5 -37 45 -40 33 -2 42 1 46 15 3 10 5 3 6 -14 1 -32 0 -33 -40
-33 l-40 0 3 -42 c3 -43 3 -43 46 -46 l42 -3 0 -74 c0 -64 -5 -84 -35 -147
-44 -92 -49 -101 -109 -165 -73 -78 -134 -104 -249 -105 -147 -1 -221 30 -315
132 -29 32 -79 136 -91 191 -12 49 -13 219 -2 179 6 -22 12 -25 51 -25 l45 0
3 43 3 42 -45 0 c-36 0 -46 -4 -46 -17 0 -9 -3 -14 -6 -10 -3 3 -3 25 1 48 6
33 9 39 17 26 12 -23 48 -22 49 1 0 10 3 12 6 5 2 -7 13 -13 23 -13 15 0 18
-13 22 -107 9 -181 61 -276 177 -317 124 -44 285 17 336 128 46 101 57 159 51
261 -3 55 -8 114 -12 130 l-6 31 44 -4 c24 -2 47 -8 51 -12z m-664 -5 l42 7
-7 -29 c-8 -34 -14 -42 -14 -20 0 13 -10 17 -45 17 -48 0 -48 0 -39 25 5 12 9
13 14 5 5 -8 21 -10 49 -5z"/>
</g>
</svg>
