<?xml version="1.0" standalone="no"?>
<!DOCTYPE svg PUBLIC "-//W3C//DTD SVG 20010904//EN"
 "http://www.w3.org/TR/2001/REC-SVG-20010904/DTD/svg10.dtd">
<svg version="1.0" xmlns="http://www.w3.org/2000/svg"
 width="114.000000pt" height="107.000000pt" viewBox="0 0 114.000000 107.000000"
 preserveAspectRatio="xMidYMid meet">
<metadata>
Created by potrace 1.13, written by Peter Selinger 2001-2015
</metadata>
<g transform="translate(0.000000,107.000000) scale(0.100000,-0.100000)"
fill="#000000" stroke="none">
<path d="M331 1045 c-172 -48 -306 -219 -318 -405 -11 -148 21 -328 86 -496
49 -127 75 -146 180 -137 54 5 61 8 61 27 0 12 -4 26 -9 31 -16 17 -59 158
-75 244 -50 264 16 426 190 467 150 35 254 -84 254 -292 0 -76 -29 -235 -57
-315 -10 -26 -14 -51 -10 -55 3 -4 29 -9 56 -12 70 -6 57 -28 -14 -24 l-55 4
0 -30 c0 -28 2 -30 54 -36 89 -12 103 -4 142 81 35 77 81 212 109 320 28 110
9 315 -38 407 -8 14 -29 44 -48 67 -19 23 -36 44 -39 48 -20 26 -102 78 -149
94 -77 26 -247 32 -320 12z m260 -45 c116 -28 235 -164 268 -311 12 -49 13
-219 2 -179 -6 22 -12 25 -51 25 l-45 0 -3 -42 -3 -43 45 0 c36 0 46 4 46 17
0 9 3 14 6 10 3 -3 3 -25 -1 -48 -6 -33 -9 -39 -17 -26 -12 23 -48 22 -49 0 0
-11 -3 -13 -6 -5 -2 6 -13 12 -23 12 -15 0 -18 13 -22 108 -9 180 -61 275
-177 316 -124 44 -285 -17 -336 -128 -46 -101 -57 -159 -51 -261 3 -55 8 -114
12 -130 l6 -31 -44 4 c-59 5 -68 18 -18 27 40 7 41 8 38 43 -3 36 -5 37 -45
40 -33 2 -42 -1 -46 -15 -3 -10 -5 -3 -6 15 -1 31 0 32 40 32 l40 0 -3 42 c-3
43 -3 43 -46 46 l-42 3 0 74 c0 64 5 84 35 147 19 40 40 82 47 93 32 48 115
127 157 147 71 35 187 42 292 18z m195 -670 c45 0 51 -4 34 -30 -8 -12 -10
-12 -10 -1 0 10 -11 12 -46 6 -41 -6 -46 -5 -40 10 3 9 7 24 7 33 1 15 2 15 6
0 3 -14 15 -18 49 -18z m-32 -117 c20 3 36 3 36 -1 -1 -20 -19 -28 -52 -24
-31 3 -38 8 -38 26 0 16 2 18 9 7 6 -10 20 -12 45 -8z m-573 -43 c-33 -5 -50
3 -51 22 0 4 17 8 38 10 26 2 39 -2 43 -12 5 -11 -3 -16 -30 -20z m64 -90 c4
-6 -9 -10 -32 -9 -38 1 -38 1 -8 9 17 4 31 8 32 9 1 0 5 -3 8 -9z"/>
</g>
</svg>
