<?xml version="1.0" standalone="no"?>
<!DOCTYPE svg PUBLIC "-//W3C//DTD SVG 20010904//EN"
 "http://www.w3.org/TR/2001/REC-SVG-20010904/DTD/svg10.dtd">
<svg version="1.0" xmlns="http://www.w3.org/2000/svg"
 width="286.000000pt" height="261.000000pt" viewBox="0 0 286.000000 261.000000"
 preserveAspectRatio="xMidYMid meet">
<metadata>
Created by potrace 1.13, written by Peter Selinger 2001-2015
</metadata>
<g transform="translate(0.000000,261.000000) scale(0.100000,-0.100000)"
fill="#000000" stroke="none">
<path d="M333 2590 c-82 -7 -134 -36 -178 -100 -24 -34 -29 -37 -42 -25 -15
16 -35 18 -70 9 -29 -8 -31 -54 -5 -104 15 -26 17 -41 9 -65 -6 -21 -5 -45 4
-75 7 -25 11 -53 10 -64 -6 -42 9 -65 50 -77 32 -10 42 -10 48 0 6 10 15 6 34
-13 14 -14 30 -26 34 -26 14 0 70 -112 77 -154 8 -40 25 -76 38 -76 4 0 26 -8
48 -17 30 -13 40 -24 40 -40 0 -13 8 -28 18 -34 15 -9 17 -27 16 -137 -1 -129
9 -187 42 -223 13 -15 12 -18 -8 -31 -45 -29 -196 -88 -224 -88 -16 0 -39 -7
-51 -15 -23 -16 -63 -88 -83 -150 -7 -22 -21 -53 -31 -70 -10 -16 -35 -62 -55
-102 -47 -93 -47 -88 40 -348 20 -61 26 -70 49 -73 29 -4 66 29 92 81 18 37
10 99 -16 123 -11 9 -19 23 -19 31 0 7 -5 13 -10 13 -6 0 -8 11 -4 25 3 14 -1
42 -9 63 -15 38 -15 40 23 113 27 54 47 79 73 94 20 12 45 29 56 39 13 12 59
25 123 37 57 10 103 19 104 19 4 1 -30 -207 -41 -250 -8 -32 -15 -77 -15 -101
-1 -60 -51 -233 -76 -261 -38 -43 -72 -66 -104 -73 -18 -4 -43 -17 -56 -30
-22 -22 -64 -96 -64 -113 0 -5 38 -12 85 -16 79 -6 88 -4 116 16 17 13 33 35
36 50 3 17 11 27 22 26 64 -5 101 34 101 107 0 38 42 169 89 280 11 28 43 111
70 185 28 74 56 149 62 167 10 24 24 36 56 48 24 9 43 23 43 31 0 18 1 18 128
-7 59 -12 115 -29 125 -37 16 -14 33 -14 155 -4 75 7 160 12 187 12 29 0 76
10 110 23 l59 23 33 -41 c18 -22 55 -74 82 -115 76 -116 77 -117 138 -146 94
-46 105 -67 51 -99 -18 -10 -35 -22 -38 -26 -6 -9 -149 -39 -185 -39 -36 0
-86 -55 -135 -149 -42 -80 -47 -115 -34 -215 8 -53 21 -58 91 -29 36 15 46 27
68 74 27 61 31 84 15 94 -12 7 79 99 117 119 16 8 75 28 133 45 62 18 138 49
185 75 58 34 81 42 87 33 11 -16 10 -54 -1 -75 -5 -9 -19 -36 -30 -59 -44 -91
-87 -143 -138 -164 -18 -8 -33 -17 -33 -20 0 -3 -19 -12 -42 -20 -57 -18 -134
-99 -145 -150 -9 -47 9 -59 92 -59 72 0 73 0 78 30 7 30 76 90 105 90 23 0
104 79 139 138 18 29 33 56 33 59 0 9 81 105 101 120 25 19 79 137 79 174 0
30 -7 38 -52 69 -63 43 -113 93 -133 134 -15 28 -14 32 5 56 76 95 112 154
136 225 24 73 26 90 22 193 l-5 112 26 0 c56 -1 101 -47 119 -122 25 -98 11
-173 -43 -234 -19 -21 -38 -48 -41 -59 -4 -11 -10 -22 -14 -25 -11 -7 -23
-160 -13 -160 4 0 9 -12 9 -27 3 -41 26 -123 36 -123 12 0 36 -63 49 -130 9
-48 15 -60 31 -60 10 0 22 10 27 22 l8 23 8 -24 c4 -14 2 -33 -6 -47 -15 -28
-10 -35 17 -28 41 11 58 123 30 201 l-14 40 25 -5 c25 -5 26 -4 19 42 -6 36
-4 46 7 46 10 0 16 18 19 65 4 39 13 76 24 92 76 113 90 300 34 446 -31 81
-115 167 -190 193 -63 21 -167 24 -223 5 -37 -12 -38 -12 -86 32 -96 86 -250
137 -372 123 l-59 -7 0 30 c0 44 -34 49 -139 21 -191 -51 -208 -50 -339 22
-65 36 -77 39 -121 33 -39 -5 -49 -3 -54 9 -4 9 -17 16 -29 16 -27 0 -88 52
-88 75 0 19 -46 111 -60 120 -5 3 -10 14 -10 24 0 10 -6 24 -14 30 -8 7 -26
36 -40 66 -14 30 -32 55 -41 55 -8 0 -29 13 -47 28 -58 49 -112 81 -153 90
-22 5 -80 21 -129 36 -91 27 -146 30 -293 16z m193 -541 c3 -41 3 -72 1 -69
-10 9 -25 112 -20 131 9 32 13 17 19 -62z m2124 -1184 c0 -8 -9 -15 -20 -15
-20 0 -26 11 -13 23 12 13 33 7 33 -8z m-2551 -104 c0 -20 -3 -29 -6 -21 -3 8
-12 27 -19 41 -12 25 -12 27 6 22 16 -4 20 -14 19 -42z m1606 -101 c-3 -5 -12
-10 -18 -10 -7 0 -6 4 3 10 19 12 23 12 15 0z m-1215 -195 c0 -14 -28 -24 -47
-18 -8 3 -7 10 5 22 18 19 42 17 42 -4z m1645 -25 c-3 -5 -23 -10 -43 -9 -30
0 -33 2 -17 9 28 12 67 12 60 0z"/>
</g>
</svg>
