<?xml version="1.0" standalone="no"?>
<!DOCTYPE svg PUBLIC "-//W3C//DTD SVG 20010904//EN"
 "http://www.w3.org/TR/2001/REC-SVG-20010904/DTD/svg10.dtd">
<svg version="1.0" xmlns="http://www.w3.org/2000/svg"
 width="843.000000pt" height="828.000000pt" viewBox="0 0 843.000000 828.000000"
 preserveAspectRatio="xMidYMid meet">
<metadata>
Created by potrace 1.13, written by Peter Selinger 2001-2015
</metadata>
<g transform="translate(0.000000,828.000000) scale(0.100000,-0.100000)"
fill="#000000" stroke="none">
<path d="M3655 7926 c-49 -56 -65 -79 -65 -96 0 -9 -3 -20 -7 -24 -5 -4 -8
-11 -9 -14 -2 -16 -18 -47 -27 -54 -6 -3 -22 -4 -36 -1 -44 8 -92 4 -108 -10
-7 -5 -13 -6 -13 -2 0 4 -10 -5 -22 -21 -13 -16 -26 -30 -30 -32 -5 -2 -8 -9
-8 -16 0 -7 -9 -23 -20 -36 -11 -13 -20 -19 -20 -15 0 4 -15 -7 -33 -26 -19
-19 -42 -36 -53 -37 -10 -2 -22 -9 -26 -15 -4 -7 -8 -7 -8 -2 0 6 -5 3 -10 -5
-5 -8 -13 -15 -17 -15 -4 -1 -37 -14 -73 -30 -36 -17 -68 -29 -72 -27 -5 1 -8
-2 -8 -6 0 -5 -6 -9 -12 -9 -7 0 -31 -8 -53 -18 -22 -10 -47 -19 -55 -21 -8
-1 -40 -10 -70 -19 -30 -9 -75 -18 -98 -20 -63 -5 -84 -28 -78 -81 4 -28 1
-48 -8 -56 -8 -8 -12 -33 -11 -65 2 -49 5 -54 67 -117 36 -36 71 -66 77 -66 7
0 19 -7 28 -15 12 -13 58 -15 71 -5 1 2 7 3 12 4 6 0 15 8 20 16 5 8 10 11 10
5 0 -5 4 -4 9 4 11 17 88 17 105 0 3 -3 38 -3 78 -1 40 2 82 4 93 4 36 2 99
-12 106 -23 3 -6 21 -13 40 -16 19 -2 39 -9 45 -14 11 -9 55 -19 97 -22 9 -1
17 -4 17 -8 0 -3 10 -6 23 -6 60 -1 58 1 55 -63 -2 -33 -6 -60 -10 -60 -4 0
-6 -13 -4 -30 2 -16 0 -30 -5 -30 -4 0 -14 -18 -20 -40 -7 -22 -16 -40 -21
-40 -5 0 -7 -4 -4 -9 3 -4 -3 -16 -14 -26 -11 -10 -17 -21 -15 -26 3 -4 1 -10
-5 -14 -6 -4 -8 -11 -5 -16 4 -5 -1 -12 -9 -15 -9 -3 -14 -10 -11 -14 3 -4 -2
-23 -10 -42 -9 -23 -11 -38 -4 -45 6 -6 3 -19 -11 -35 -11 -15 -20 -30 -20
-35 0 -4 -13 -22 -28 -40 -15 -17 -34 -40 -43 -50 -15 -18 -31 -51 -33 -65 -1
-4 -8 -15 -16 -25 -9 -10 -15 -21 -15 -25 0 -4 -8 -16 -17 -27 -9 -11 -13 -22
-10 -26 4 -3 0 -10 -8 -16 -13 -7 -13 -10 -1 -18 8 -5 10 -14 6 -21 -4 -7 -2
-16 6 -21 12 -8 12 -11 -1 -18 -12 -9 -12 -11 3 -17 10 -4 16 -12 13 -20 -3
-7 1 -18 9 -24 10 -8 11 -18 5 -36 -6 -14 -12 -36 -14 -50 -3 -15 -12 -34 -20
-43 -8 -9 -18 -32 -21 -51 -3 -19 -11 -37 -16 -41 -6 -3 -9 -9 -7 -12 1 -4 -5
-16 -14 -27 -10 -11 -18 -24 -18 -30 0 -5 -6 -13 -13 -17 -7 -4 -23 -24 -35
-43 -24 -40 -106 -120 -122 -120 -5 0 -10 -4 -10 -8 0 -5 -20 -30 -45 -58 -25
-27 -48 -59 -51 -71 -3 -13 -10 -23 -15 -23 -5 0 -9 -6 -9 -14 0 -8 -7 -22
-16 -31 -9 -8 -17 -27 -18 -40 0 -14 -7 -27 -13 -30 -7 -2 -13 -9 -13 -15 0
-6 -8 -23 -17 -37 -10 -15 -18 -31 -18 -37 -1 -6 -6 -23 -12 -37 -12 -28 -24
-81 -26 -116 0 -13 -4 -23 -7 -23 -3 0 -5 -20 -5 -45 1 -25 -2 -45 -6 -45 -4
0 -6 -10 -3 -22 3 -13 5 -35 6 -50 1 -16 4 -28 7 -28 3 0 6 -20 7 -45 0 -25
-3 -45 -8 -45 -4 0 -8 -5 -8 -11 0 -7 -10 -20 -22 -31 -13 -11 -24 -24 -24
-29 -1 -5 -3 -11 -4 -14 -1 -3 -3 -8 -5 -12 -6 -23 -20 -50 -33 -65 -8 -10
-12 -18 -7 -18 4 0 2 -7 -5 -15 -7 -8 -9 -15 -5 -15 4 0 2 -7 -5 -15 -7 -8 -9
-15 -5 -15 5 0 1 -8 -8 -17 -8 -10 -19 -30 -22 -45 -4 -16 -11 -28 -17 -28 -5
0 -6 -5 -3 -11 4 -6 -2 -17 -14 -25 -12 -9 -19 -19 -16 -24 3 -5 1 -11 -5 -15
-6 -4 -8 -10 -5 -14 2 -5 -6 -20 -20 -35 -13 -15 -23 -28 -22 -31 1 -2 -6 -14
-15 -25 -10 -11 -18 -22 -18 -24 0 -2 -13 -18 -30 -36 -16 -18 -30 -36 -30
-41 0 -8 -20 -35 -47 -64 -7 -7 -10 -15 -7 -18 3 -3 -3 -14 -13 -25 -33 -35
-53 -62 -53 -72 0 -6 -5 -9 -11 -7 -5 1 -20 -16 -32 -38 -12 -22 -25 -42 -30
-43 -4 -2 -5 -8 -1 -13 3 -5 1 -9 -5 -9 -6 0 -8 -7 -5 -15 4 -8 2 -15 -2 -15
-5 0 -10 -14 -10 -32 -1 -18 -9 -37 -19 -45 -10 -7 -16 -15 -13 -19 6 -6 -5
-22 -49 -72 -13 -14 -23 -30 -23 -36 0 -6 -18 -31 -40 -56 -22 -25 -40 -50
-40 -56 0 -18 -99 -116 -110 -109 -6 3 -10 1 -10 -4 0 -6 -5 -11 -11 -11 -12
0 -69 -40 -114 -81 -26 -23 -49 -31 -130 -43 -11 -2 -20 -4 -20 -6 0 -1 -13
-4 -30 -6 -16 -3 -32 -10 -36 -16 -3 -5 -10 -10 -15 -10 -21 0 -37 -17 -39
-42 -2 -14 1 -26 5 -26 9 0 30 -33 52 -82 19 -42 78 -57 196 -47 26 2 42 8 42
16 0 7 3 12 8 12 22 -4 34 3 28 16 -3 8 -2 15 2 15 7 0 11 16 14 57 2 18 20
22 48 11 31 -13 80 -18 80 -9 0 3 16 22 34 42 34 36 62 91 61 119 0 8 10 26
22 39 12 14 20 28 17 33 -3 4 0 8 5 8 6 0 11 5 11 10 0 6 10 21 22 34 43 43
69 78 65 83 -8 7 25 43 35 37 4 -3 11 3 15 13 6 19 133 149 133 137 0 -4 8 2
18 12 9 11 31 30 47 43 68 51 168 155 159 164 -5 5 20 38 66 87 8 8 28 32 43
53 15 20 33 37 40 37 7 0 23 16 36 36 24 35 61 63 61 46 0 -5 -7 -15 -15 -22
-8 -7 -15 -17 -15 -22 0 -29 -42 -98 -93 -151 -15 -16 -25 -32 -22 -37 3 -5 2
-10 -3 -12 -10 -4 -54 -119 -48 -126 3 -2 -2 -11 -10 -19 -8 -9 -13 -22 -10
-29 3 -8 1 -14 -5 -14 -6 0 -8 -3 -5 -8 3 -6 -4 -53 -17 -108 -2 -7 -9 -19
-16 -28 -7 -9 -10 -16 -5 -16 4 0 -2 -10 -14 -23 -12 -13 -19 -27 -15 -30 3
-4 1 -7 -5 -7 -7 0 -12 -7 -12 -15 0 -8 -4 -15 -10 -15 -5 0 -10 -6 -10 -12 0
-7 -11 -26 -25 -42 -14 -16 -25 -34 -25 -41 0 -7 -9 -20 -20 -30 -11 -10 -18
-21 -15 -25 2 -4 -11 -24 -30 -45 -19 -21 -35 -40 -35 -42 0 -2 -7 -11 -15
-19 -8 -9 -15 -12 -15 -7 0 4 -7 -3 -16 -15 -8 -12 -21 -22 -28 -22 -15 0 -31
-28 -27 -45 2 -5 -1 -7 -5 -3 -4 4 -15 -2 -25 -14 -26 -29 -65 -48 -113 -53
-75 -9 -91 -12 -111 -22 -11 -6 -30 -9 -42 -8 -13 1 -23 -3 -23 -8 0 -5 -7 -7
-15 -3 -8 3 -15 1 -15 -5 0 -5 -6 -9 -13 -7 -6 2 -22 -7 -35 -20 l-22 -22 43
-44 c24 -24 63 -56 88 -71 24 -15 47 -32 50 -37 3 -5 9 -9 13 -9 3 1 7 1 9 0
21 -8 107 -8 107 0 0 6 3 10 8 8 7 -2 53 39 51 48 0 3 2 19 6 35 5 23 12 30
31 30 13 0 26 -1 27 -2 2 -2 11 3 20 10 8 7 18 9 21 4 3 -5 17 -7 31 -4 15 2
25 0 25 -7 0 -8 11 -6 31 6 22 13 41 39 65 91 19 40 35 81 37 91 2 11 9 26 16
35 7 9 10 16 6 16 -5 0 0 9 10 20 10 11 15 20 11 20 -11 0 23 72 43 89 10 9
21 25 24 36 4 11 18 32 32 47 14 15 25 31 25 36 0 5 11 22 24 37 14 16 24 32
23 36 -1 3 13 23 31 42 17 20 32 41 32 47 0 5 7 10 15 10 7 0 19 8 24 18 6 9
11 13 11 9 0 -17 53 34 81 78 16 25 35 48 43 51 8 3 18 19 21 35 4 16 10 29
15 29 4 0 11 8 14 18 4 9 18 35 31 57 14 22 30 50 36 63 7 12 16 22 21 22 4 0
8 7 8 15 0 8 5 15 11 15 6 0 9 5 7 12 -3 7 5 21 17 33 11 11 26 31 33 45 25
49 40 72 69 103 33 37 133 127 133 120 0 -2 7 2 15 11 8 8 15 19 15 25 0 6 3
11 8 12 4 0 15 2 26 4 10 2 30 -1 45 -7 14 -6 28 -12 31 -13 33 -11 100 -48
118 -65 12 -11 22 -18 22 -15 0 6 54 -36 129 -100 20 -16 69 -66 111 -110 41
-43 101 -106 133 -138 31 -33 57 -63 57 -67 0 -4 17 -20 38 -36 20 -15 39 -31
42 -34 3 -3 32 -28 65 -55 33 -28 66 -56 73 -62 7 -7 19 -13 26 -13 7 0 21 -9
32 -21 10 -12 53 -37 94 -56 41 -20 81 -40 89 -46 7 -6 18 -12 25 -13 6 -1 39
-14 73 -28 35 -14 72 -26 83 -26 11 0 20 -5 20 -11 0 -5 4 -8 8 -5 5 3 20 -1
35 -9 15 -8 27 -12 27 -10 0 2 16 -3 35 -11 19 -8 35 -11 35 -7 0 5 4 3 8 -2
4 -6 32 -21 62 -35 30 -14 58 -29 62 -35 4 -5 8 -6 8 -2 0 9 21 -5 70 -46 31
-27 34 -35 28 -92 -1 -8 -4 -15 -8 -15 -3 0 -5 -12 -5 -27 1 -16 -1 -32 -4
-38 -15 -28 -18 -134 -7 -207 4 -24 2 -38 -5 -38 -5 0 -8 -4 -4 -9 3 -5 1 -12
-5 -16 -5 -3 -20 -27 -31 -53 -12 -26 -27 -50 -33 -54 -7 -4 -18 -25 -26 -48
-7 -22 -17 -40 -22 -40 -5 0 -6 -4 -3 -10 3 -5 1 -10 -5 -10 -7 0 -10 -6 -7
-14 3 -8 1 -16 -4 -18 -6 -2 -12 -16 -12 -31 -1 -15 -6 -27 -10 -27 -5 0 -5
-4 -2 -10 3 -5 2 -10 -4 -10 -6 0 -8 -7 -5 -15 4 -8 1 -15 -5 -15 -6 0 -8 -7
-5 -15 4 -8 1 -15 -5 -15 -6 0 -8 -7 -5 -15 4 -8 2 -21 -3 -28 -6 -6 -16 -33
-23 -59 -7 -29 -19 -50 -30 -53 -10 -3 -21 -16 -24 -29 -3 -14 -22 -40 -41
-60 -19 -20 -35 -40 -35 -45 0 -4 -9 -20 -21 -35 -11 -14 -17 -26 -13 -26 4 0
0 -8 -9 -18 -10 -10 -14 -22 -11 -25 4 -4 -1 -9 -10 -13 -9 -3 -16 -12 -16
-20 0 -8 -7 -14 -15 -14 -8 0 -19 -9 -25 -20 -6 -11 -14 -18 -19 -16 -4 3 -19
-6 -34 -20 -14 -13 -30 -24 -35 -24 -6 0 -12 -7 -16 -15 -3 -8 -12 -15 -20
-15 -8 0 -16 -3 -18 -7 -4 -11 -78 -65 -78 -58 0 3 -16 -11 -35 -31 -19 -19
-35 -32 -35 -27 0 4 -4 3 -8 -2 -11 -16 -90 -65 -104 -65 -17 0 -102 -42 -110
-54 -4 -6 -8 -8 -8 -3 0 4 -16 -2 -36 -12 -19 -11 -46 -18 -60 -16 -13 1 -24
-2 -24 -8 0 -5 -5 -5 -13 2 -8 6 -16 9 -18 6 -3 -2 -21 -5 -42 -7 -20 -1 -37
-5 -37 -8 0 -3 -12 -5 -27 -5 -16 1 -33 -3 -40 -8 -7 -5 -17 -6 -23 -2 -5 3
-10 1 -10 -5 0 -7 -6 -10 -14 -7 -8 3 -16 2 -18 -3 -2 -6 -16 -11 -31 -12 -43
-4 -73 -50 -40 -62 8 -3 11 -10 8 -16 -3 -5 -2 -10 3 -10 5 0 27 -16 48 -35
21 -19 34 -35 30 -35 -5 0 11 -15 35 -34 36 -28 48 -32 68 -24 14 5 44 10 68
11 24 1 43 4 43 7 0 4 9 16 21 28 11 12 17 27 14 32 -5 9 8 12 31 9 4 0 10 4
13 9 13 22 58 17 90 -11 34 -28 51 -34 51 -16 0 5 4 8 9 5 16 -10 130 112 123
132 -2 7 4 12 12 12 9 0 19 7 22 15 4 8 9 13 14 10 4 -2 16 3 26 13 27 24 92
72 98 72 2 0 18 13 34 30 17 16 38 30 46 30 9 0 16 5 16 10 0 6 6 10 14 10 8
0 16 3 18 8 2 4 22 20 46 36 23 16 42 33 42 38 0 5 4 7 9 3 5 -3 12 -1 15 3 3
5 19 8 36 7 16 -1 30 1 30 4 0 4 12 8 26 9 15 1 33 7 40 13 8 6 14 8 14 3 0
-4 7 1 15 12 8 10 15 16 15 12 0 -4 9 0 20 10 12 9 23 16 25 15 3 -1 25 6 50
17 25 11 45 17 45 15 0 -3 21 15 46 40 39 39 74 61 61 38 -3 -5 0 -19 5 -33
13 -31 16 -80 5 -80 -4 0 -7 -6 -6 -12 2 -7 0 -26 -4 -43 -9 -43 -20 -116 -21
-142 -1 -13 -5 -23 -9 -23 -5 0 -6 -4 -3 -8 3 -4 1 -26 -4 -48 -5 -21 -12 -55
-15 -74 -3 -19 -10 -37 -15 -40 -5 -3 -11 -16 -13 -28 -2 -13 -11 -31 -19 -42
-9 -10 -14 -21 -11 -24 4 -3 1 -6 -5 -6 -7 0 -12 -7 -12 -15 0 -8 -4 -15 -10
-15 -5 0 -12 -11 -16 -25 -3 -13 -14 -27 -24 -30 -11 -3 -22 -15 -26 -27 -6
-20 -29 -51 -71 -94 -13 -13 -23 -25 -23 -28 0 -2 -10 -16 -22 -31 -48 -56
-78 -87 -78 -81 0 11 -54 -27 -73 -51 -10 -13 -25 -23 -32 -23 -8 0 -26 -11
-40 -24 -15 -14 -34 -25 -43 -25 -39 -1 -52 -5 -52 -14 0 -5 -6 -7 -14 -4 -8
3 -17 -1 -20 -9 -3 -9 -10 -12 -16 -9 -5 3 -10 1 -10 -4 0 -6 -3 -10 -7 -9 -5
1 -26 -6 -48 -16 -22 -9 -49 -18 -60 -19 -19 -2 -55 -26 -55 -37 0 -4 21 -31
46 -61 45 -52 116 -103 128 -91 3 3 6 0 6 -7 0 -16 117 -12 135 5 7 7 15 10
19 7 3 -4 6 -2 6 3 0 6 8 19 18 30 10 10 23 33 30 49 19 45 47 60 78 40 13 -8
24 -13 24 -9 0 4 6 1 14 -5 10 -8 16 -9 21 -1 3 6 10 8 15 5 4 -3 11 2 14 11
3 8 10 12 16 9 5 -3 10 -1 10 5 0 6 11 21 23 33 27 24 81 107 71 107 -4 0 -1
6 5 13 6 8 8 17 4 20 -3 4 -1 7 6 7 8 0 11 7 7 15 -3 8 -1 15 4 15 6 0 9 3 8
8 -3 14 20 57 45 84 39 41 67 85 60 92 -6 5 12 10 30 7 4 0 7 6 7 14 0 8 5 15
11 15 5 0 7 4 4 10 -5 8 21 43 73 96 6 7 12 15 12 18 0 10 64 71 72 68 4 -1 8
2 8 8 0 5 25 25 55 45 34 22 53 40 49 47 -4 6 -3 8 3 5 6 -4 25 7 42 23 17 17
31 28 31 25 0 -3 6 0 14 7 8 7 13 15 11 16 -2 2 5 12 16 23 12 12 17 29 15 49
-2 16 1 30 5 30 5 0 8 31 7 70 -2 38 -5 70 -8 70 -3 0 -6 8 -7 18 -2 41 -8 72
-13 72 -3 0 -6 15 -7 33 0 17 -3 55 -5 82 -2 29 3 71 13 100 11 34 13 54 7 63
-7 8 -7 12 1 12 6 0 10 3 10 8 -1 4 0 9 1 12 1 3 4 19 6 35 3 17 15 38 27 47
12 10 28 23 35 28 6 6 12 8 12 5 0 -8 63 27 72 40 4 6 8 7 8 3 0 -3 14 7 31
23 18 16 37 28 43 26 6 -2 16 1 23 7 36 32 48 41 54 41 4 0 11 3 15 7 4 5 16
8 27 8 10 0 21 9 24 20 3 11 13 20 23 20 10 0 20 7 24 15 3 8 10 15 16 15 6 0
29 12 51 26 22 14 49 26 60 27 10 1 19 7 19 15 0 7 4 11 8 8 5 -3 19 4 30 15
12 11 22 17 22 13 0 -3 6 -1 13 5 8 6 16 9 18 6 3 -2 16 6 31 18 14 12 47 40
73 62 83 69 139 136 169 199 10 23 23 44 28 47 5 3 9 9 9 13 -1 3 -1 7 0 9 0
1 2 13 5 27 2 14 9 36 14 50 5 14 11 36 12 50 2 14 7 31 11 38 5 6 6 12 2 12
-3 0 -1 9 5 20 6 11 16 18 21 14 6 -3 8 -9 5 -12 -4 -3 1 -16 9 -28 10 -16 11
-25 4 -30 -7 -4 -3 -13 10 -25 20 -19 19 -46 -3 -61 -7 -5 -7 -8 2 -8 7 0 12
-8 11 -17 -1 -10 -1 -20 0 -23 1 -3 4 -27 6 -55 3 -27 9 -51 13 -53 12 -4 2
-55 -12 -64 -6 -4 -4 -9 7 -14 13 -5 15 -10 7 -19 -8 -9 -7 -17 4 -28 11 -11
12 -17 3 -26 -9 -9 -9 -16 1 -31 7 -11 8 -20 3 -20 -13 0 -7 -33 6 -37 8 -3 8
-15 0 -39 -9 -29 -8 -37 4 -45 8 -5 20 -6 28 -4 11 5 12 3 1 -10 -14 -17 -20
-105 -7 -105 4 0 3 -9 -3 -19 -7 -13 -7 -22 0 -26 5 -3 10 -15 10 -26 0 -10 9
-24 19 -31 16 -10 17 -13 5 -26 -13 -12 -11 -19 11 -47 14 -19 25 -40 25 -48
0 -8 7 -17 15 -21 8 -3 15 -1 15 4 0 6 5 10 10 10 15 0 31 15 103 89 34 35 82
84 107 110 25 25 74 82 110 125 73 89 235 256 248 256 5 0 20 14 33 32 13 17
30 37 37 45 7 7 10 13 6 13 -4 0 0 8 8 18 33 39 51 103 51 175 -1 84 -5 117
-14 117 -4 0 -9 11 -13 24 -3 13 -21 34 -41 47 -19 13 -35 27 -35 32 0 4 -6 7
-14 7 -7 0 -19 7 -26 15 -7 8 -15 13 -19 10 -4 -2 -19 2 -34 10 -76 39 -277
77 -277 51 0 -4 -7 -3 -15 4 -12 10 -15 10 -15 -1 0 -9 -3 -10 -11 -2 -6 6
-24 8 -42 4 -26 -5 -132 -7 -132 -1 0 0 -21 3 -47 5 -26 2 -61 11 -78 20 -16
8 -31 14 -34 13 -8 -6 -65 45 -60 53 3 5 0 9 -5 9 -6 0 -11 8 -11 18 0 11 -11
32 -25 48 -14 16 -25 32 -25 36 0 3 -10 28 -22 55 -12 26 -21 51 -20 56 1 4
-2 7 -6 7 -5 0 -30 35 -57 78 -27 42 -53 79 -57 80 -4 2 -8 9 -8 16 0 7 -10
23 -22 36 -13 14 -22 28 -21 32 2 5 -2 8 -9 8 -6 0 -9 2 -6 5 3 3 -10 22 -29
43 -19 20 -36 47 -39 59 -3 12 -15 25 -25 28 -10 4 -19 11 -19 16 0 12 -11 25
-75 93 -49 51 -168 130 -179 119 -3 -4 -6 -1 -6 5 0 6 -16 14 -35 18 -19 3
-35 9 -35 13 0 4 -10 7 -22 8 -11 1 -24 6 -27 10 -3 4 -19 10 -36 12 -16 1
-35 7 -41 12 -6 5 -14 6 -17 2 -4 -3 -7 -1 -7 6 0 7 -4 10 -8 7 -5 -3 -20 1
-33 8 -14 7 -33 12 -42 10 -9 -1 -17 2 -17 7 0 5 -7 9 -15 9 -8 0 -26 12 -40
26 -14 14 -32 27 -39 28 -7 1 -32 17 -55 36 -23 19 -44 33 -47 32 -3 -2 -18 7
-32 20 -15 13 -50 39 -79 58 -28 19 -51 38 -50 44 1 5 -7 14 -19 20 -40 21
-114 81 -119 97 -3 9 -21 27 -40 40 -19 13 -40 34 -46 46 -7 13 -16 23 -21 23
-5 0 -7 4 -3 9 3 6 0 13 -7 18 -21 13 -68 80 -68 97 0 9 -5 16 -11 16 -5 0 -7
5 -4 10 3 6 -1 13 -9 16 -9 3 -13 10 -10 15 3 5 1 9 -4 9 -9 0 -26 55 -23 73
0 4 -4 7 -10 7 -6 0 -9 6 -6 14 3 8 3 17 -1 20 -3 4 -7 17 -9 29 -2 12 -10 40
-19 62 -9 22 -18 51 -21 65 -2 13 -8 29 -14 36 -5 6 -6 14 -2 17 3 4 1 7 -5 7
-7 0 -12 8 -12 18 -1 26 -58 123 -106 179 -44 51 -54 64 -54 72 0 5 -3 11 -7
13 -15 6 -64 66 -67 79 -9 42 -35 95 -75 152 -21 30 -34 60 -34 82 -1 21 -7
37 -16 40 -14 5 -14 7 -1 15 8 6 10 10 4 10 -6 0 -10 12 -8 26 1 15 -2 37 -6
50 -6 16 -6 24 1 24 6 0 7 5 4 11 -4 6 -9 45 -10 87 -2 42 -4 77 -5 77 -2 0
-4 23 -5 51 -1 29 -5 56 -7 60 -3 5 -4 19 -3 32 1 12 -1 22 -4 22 -3 0 -6 15
-7 33 0 17 -4 55 -8 82 -4 28 -9 61 -10 75 -2 14 -7 33 -11 43 -4 10 -5 21 -1
24 3 3 2 11 -3 17 -5 6 -14 38 -21 71 -7 33 -15 64 -18 70 -3 5 -7 16 -8 25
-3 19 -12 54 -14 58 -2 1 -3 5 -5 10 -1 4 -4 14 -7 22 -4 8 -9 24 -14 35 -4
11 -6 23 -6 28 1 4 -2 7 -7 7 -5 0 -12 10 -16 23 -4 12 -8 24 -9 27 -1 3 -10
21 -21 40 -11 19 -18 38 -17 43 1 4 -2 7 -8 7 -8 0 -40 50 -41 64 0 6 -44 58
-75 92 -12 13 -19 25 -17 28 3 3 -2 8 -11 12 -9 3 -16 10 -16 15 0 11 -16 31
-42 56 -9 9 -15 20 -12 25 3 4 1 8 -3 8 -5 0 -10 21 -10 48 -3 71 -10 142 -16
149 -3 3 -3 11 0 19 3 8 0 14 -6 14 -6 0 -10 3 -9 8 4 19 -15 59 -34 71 -29
18 -49 -4 -53 -62 -4 -55 -32 -108 -52 -100 -8 3 -12 12 -8 21 3 8 0 21 -6 28
-8 10 -8 14 -1 14 6 0 9 6 6 13 -9 25 -10 97 0 97 5 0 -3 9 -17 20 -14 11 -27
20 -29 20 -2 0 -17 -15 -33 -34z"/>
<path d="M4447 3376 c-9 -23 15 -37 36 -21 18 13 18 14 -2 24 -25 14 -28 14
-34 -3z"/>
</g>
</svg>
