<?xml version="1.0" standalone="no"?>
<!DOCTYPE svg PUBLIC "-//W3C//DTD SVG 20010904//EN"
 "http://www.w3.org/TR/2001/REC-SVG-20010904/DTD/svg10.dtd">
<svg version="1.0" xmlns="http://www.w3.org/2000/svg"
 width="211.000000pt" height="144.000000pt" viewBox="0 0 211.000000 144.000000"
 preserveAspectRatio="xMidYMid meet">
<metadata>
Created by potrace 1.13, written by Peter Selinger 2001-2015
</metadata>
<g transform="translate(0.000000,144.000000) scale(0.100000,-0.100000)"
fill="#000000" stroke="none">
<path d="M220 1406 c-8 -23 -11 -24 -39 -13 -27 10 -33 9 -46 -8 -8 -11 -15
-28 -15 -37 0 -10 -4 -18 -8 -18 -12 0 -42 -66 -42 -91 0 -12 -13 -41 -30 -66
-50 -74 -35 -143 31 -143 29 0 89 24 99 40 6 9 114 60 127 60 14 0 49 -87 68
-170 10 -41 17 -111 17 -155 0 -47 5 -93 13 -110 7 -16 20 -47 29 -67 8 -21
20 -38 25 -38 6 0 11 -9 11 -19 0 -10 7 -22 15 -25 14 -5 15 -29 10 -178 -2
-95 -10 -198 -15 -228 -19 -100 -21 -95 35 -95 47 0 50 1 49 25 -3 38 15 171
27 209 8 25 14 30 20 20 13 -21 10 -95 -6 -169 -8 -36 -14 -68 -15 -72 0 -5
22 -8 49 -8 l50 0 -2 98 c0 53 3 154 8 224 l8 128 56 17 c31 9 67 25 80 35 13
10 33 18 45 18 12 0 37 13 57 29 20 17 47 33 60 36 25 6 25 6 59 -61 16 -31
18 -34 80 -109 l42 -50 -5 -91 c-4 -65 -11 -103 -26 -132 -17 -34 -18 -42 -6
-52 7 -6 29 -10 47 -8 31 3 33 5 30 40 -2 20 4 50 12 67 9 16 16 39 16 49 0
11 10 31 21 46 17 22 21 37 17 77 -3 27 -1 52 3 55 5 3 -2 22 -16 42 -37 55
-31 63 25 34 28 -14 50 -29 50 -34 0 -4 6 -8 13 -8 7 0 25 -24 41 -52 22 -43
30 -74 39 -160 7 -79 7 -114 -1 -132 -9 -21 -8 -26 8 -31 28 -9 69 5 69 23 2
255 4 282 17 299 22 29 17 50 -26 111 l-40 57 -5 122 c-4 92 -11 141 -30 200
-13 42 -22 79 -20 82 11 10 56 -20 65 -43 5 -14 7 -47 3 -74 -10 -86 35 -249
75 -271 13 -8 17 -24 16 -75 0 -56 2 -66 17 -66 10 0 20 11 24 27 3 15 15 34
26 44 24 21 43 105 43 189 0 55 -5 76 -37 138 -20 39 -37 84 -37 98 0 14 -12
50 -26 81 -30 63 -64 83 -140 83 -43 0 -52 -4 -88 -43 l-41 -42 -65 6 c-36 4
-85 3 -110 -3 -25 -5 -66 -13 -92 -17 -46 -8 -46 -8 -37 16 14 37 11 51 -12
63 -27 15 -66 5 -73 -18 -6 -18 -68 -62 -87 -62 -7 0 -23 12 -36 26 -20 22
-30 25 -60 21 -19 -4 -41 -14 -49 -24 -13 -17 -13 -17 -14 2 -1 27 -23 55 -44
55 -9 0 -16 6 -16 13 0 26 -71 111 -152 183 -28 26 -79 48 -129 58 -25 4 -39
13 -42 26 -8 30 -55 27 -67 -4z m-96 -257 c-16 -18 -44 -26 -44 -13 0 21 22
42 40 37 20 -5 20 -7 4 -24z m276 10 c0 -5 7 -9 15 -9 8 0 15 -9 15 -19 0 -11
6 -26 13 -33 8 -7 12 -19 9 -26 -2 -7 -1 -24 2 -37 7 -29 46 -35 47 -7 0 14 1
14 8 -3 21 -54 21 -71 -6 -99 -28 -30 -43 -23 -43 22 0 12 -4 22 -10 22 -5 0
-10 8 -10 18 0 9 -7 26 -15 36 -8 11 -15 37 -15 58 0 21 -4 38 -10 38 -5 0
-10 9 -10 20 0 11 -4 20 -10 20 -5 0 -10 4 -10 10 0 5 7 7 15 4 8 -4 15 -10
15 -15z m880 -239 c8 -25 19 -48 23 -51 15 -11 13 -109 -2 -118 -20 -13 4
-101 28 -101 15 0 51 -32 51 -46 0 -3 9 -18 20 -34 24 -34 44 -84 30 -75 -6 3
-10 12 -10 20 0 7 -11 22 -25 33 -14 11 -25 23 -25 27 0 13 -77 83 -98 89 -12
4 -23 19 -27 36 -4 17 -11 30 -16 30 -5 0 -9 7 -9 16 0 26 -42 134 -51 134 -5
0 -9 9 -9 20 0 11 5 20 10 20 6 0 10 9 10 19 0 14 8 21 28 24 49 8 57 3 72
-43z m-630 -90 c11 0 20 7 20 15 0 9 6 12 15 9 9 -4 15 -19 15 -40 0 -24 5
-34 15 -34 9 0 15 -9 15 -24 0 -14 10 -32 22 -40 l22 -16 -22 0 c-12 0 -27 9
-34 20 -7 11 -18 20 -24 20 -7 0 -15 16 -18 35 -5 25 -12 35 -25 35 -14 0 -20
-10 -24 -44 -4 -24 -3 -57 2 -72 9 -32 7 -162 -3 -171 -3 -4 -6 1 -6 9 0 9 -6
18 -14 21 -7 3 -16 26 -20 51 -3 25 -9 66 -12 91 -5 35 -10 45 -25 45 -12 0
-21 -9 -25 -25 -3 -14 -10 -25 -15 -25 -5 0 -10 11 -10 25 -1 14 -2 29 -3 35
-1 5 26 38 59 72 l60 63 8 -27 c5 -19 14 -28 27 -28z m270 30 c0 -5 -4 -10
-10 -10 -5 0 -10 5 -10 10 0 6 5 10 10 10 6 0 10 -4 10 -10z m-150 -274 c0
-11 -46 -36 -66 -36 -1 0 0 9 3 19 3 12 16 22 32 24 14 2 27 5 29 6 1 0 2 -5
2 -13z"/>
</g>
</svg>
