<?xml version="1.0" standalone="no"?>
<!DOCTYPE svg PUBLIC "-//W3C//DTD SVG 20010904//EN"
 "http://www.w3.org/TR/2001/REC-SVG-20010904/DTD/svg10.dtd">
<svg version="1.0" xmlns="http://www.w3.org/2000/svg"
 width="315.000000pt" height="266.000000pt" viewBox="0 0 315.000000 266.000000"
 preserveAspectRatio="xMidYMid meet">
<metadata>
Created by potrace 1.13, written by Peter Selinger 2001-2015
</metadata>
<g transform="translate(0.000000,266.000000) scale(0.100000,-0.100000)"
fill="#000000" stroke="none">
<path d="M351 2633 c-6 -10 -11 -12 -11 -5 0 18 -37 15 -44 -4 -3 -9 -6 -29
-6 -44 0 -21 -8 -33 -30 -47 -18 -10 -30 -26 -30 -38 0 -37 -12 -63 -29 -68
-20 -5 -91 -140 -91 -172 0 -12 -10 -35 -22 -50 -11 -15 -24 -43 -28 -64 -4
-20 -18 -64 -31 -99 -21 -56 -22 -66 -10 -100 19 -54 29 -62 72 -62 21 0 49
-5 63 -11 34 -16 89 10 106 50 7 18 22 32 38 36 15 3 38 14 52 23 32 22 194
79 209 74 6 -2 11 -13 11 -25 1 -46 39 -159 73 -217 l36 -60 -19 -36 c-22 -37
-26 -79 -10 -89 6 -3 10 -27 10 -53 0 -30 9 -64 23 -92 13 -25 32 -76 42 -115
17 -67 33 -99 65 -137 18 -22 69 -251 74 -338 2 -36 17 -110 34 -165 41 -134
45 -186 27 -291 -13 -76 -20 -94 -49 -124 -45 -47 -76 -102 -76 -132 0 -23 5
-26 48 -30 51 -5 133 3 227 21 105 21 97 13 90 95 l-7 72 37 33 c35 31 37 34
30 77 -3 25 -13 61 -21 80 -17 40 -18 90 -10 359 5 160 20 315 31 335 2 3 77
0 167 -6 167 -11 303 -1 368 27 29 13 200 39 200 30 0 -3 12 -19 26 -36 14
-16 37 -50 51 -75 14 -25 50 -65 79 -90 69 -58 129 -136 143 -186 14 -49 15
-204 1 -204 -5 0 -10 -8 -10 -18 0 -21 -65 -150 -108 -212 -17 -25 -47 -61
-66 -79 -61 -59 -44 -119 36 -128 76 -9 117 3 123 35 9 43 38 93 63 111 82 57
82 56 81 139 0 65 6 95 41 192 22 63 45 119 50 124 16 16 12 54 -11 98 l-21
42 23 -16 c20 -12 79 -107 106 -168 3 -8 11 -21 17 -29 18 -23 32 -120 31
-216 -1 -78 -5 -97 -28 -141 -15 -29 -27 -56 -27 -61 0 -5 -16 -32 -35 -59
-41 -57 -44 -82 -12 -112 20 -19 35 -22 104 -22 75 0 82 2 97 25 9 14 18 46
19 70 2 36 6 45 20 45 10 0 26 8 35 17 22 22 19 137 -5 202 -14 36 -18 90 -21
243 -3 196 -4 197 -30 225 -27 29 -122 206 -122 226 0 7 11 33 24 59 l23 48 7
-78 c3 -42 11 -78 16 -80 6 -2 10 -10 10 -18 0 -8 3 -14 8 -14 4 0 13 -19 20
-42 7 -23 22 -48 32 -55 10 -7 21 -27 25 -43 4 -17 10 -30 14 -30 5 0 15 -21
23 -47 13 -40 20 -49 42 -51 29 -4 32 7 17 71 -10 42 0 49 17 12 8 -17 20 -25
38 -25 30 0 30 7 -1 140 -14 61 -17 130 -19 365 -1 280 -2 292 -24 340 -42 91
-93 148 -166 184 -39 20 -87 36 -118 39 -33 3 -70 15 -99 33 -68 42 -124 59
-203 61 -83 2 -266 -17 -316 -33 -19 -7 -64 -15 -100 -19 -36 -4 -108 -13
-160 -20 -140 -17 -312 1 -394 42 -34 17 -79 45 -101 62 -22 17 -59 44 -82 59
-105 67 -125 82 -166 126 -37 40 -117 101 -131 101 -3 0 -27 13 -53 28 -26 15
-68 34 -93 41 -25 7 -54 17 -65 22 -11 4 -42 15 -70 23 -91 27 -129 44 -133
57 -22 72 -59 100 -81 62z m272 -457 c3 -8 -2 -16 -14 -19 -21 -6 -22 -5 -13
17 8 20 20 21 27 2z m77 -82 c0 -11 -5 -14 -16 -10 -9 3 -21 6 -27 7 -7 0 -3
4 8 9 29 13 35 12 35 -6z m-60 -29 c0 -16 -6 -25 -15 -25 -8 0 -15 7 -15 15 0
8 -6 15 -12 16 -7 0 -4 4 7 9 31 13 35 12 35 -15z m100 -41 c0 -12 -2 -12 -14
-2 -8 7 -12 16 -9 21 7 11 23 -2 23 -19z m1614 -44 c21 0 66 -25 66 -36 0 -7
11 -19 25 -28 14 -9 25 -23 25 -31 0 -8 5 -15 11 -15 11 0 2 -41 -12 -50 -4
-3 -7 -29 -6 -58 2 -28 0 -52 -4 -52 -12 0 -36 44 -44 80 -4 19 -18 55 -31 80
-13 25 -24 52 -24 61 0 8 -11 25 -25 37 -14 12 -25 27 -25 33 0 6 7 3 16 -5 8
-9 21 -16 28 -16z m-1629 -7 c-14 -33 -18 -113 -6 -113 6 0 11 -5 11 -11 0 -8
-5 -8 -15 1 -8 7 -15 17 -15 23 0 5 -8 17 -18 26 -18 15 -42 53 -42 65 0 3 7
6 15 6 8 0 15 -4 15 -10 0 -5 9 -10 20 -10 13 0 20 7 20 20 0 11 5 20 11 20 7
0 8 -7 4 -17z m518 -35 c-8 -29 -23 -71 -33 -93 -31 -68 -42 -125 -35 -176 l7
-49 -46 0 c-32 0 -48 -5 -52 -15 -4 -8 -17 -15 -30 -15 -17 0 -24 -6 -24 -20
0 -11 -4 -20 -10 -20 -5 0 -10 -9 -10 -20 0 -12 -7 -20 -16 -20 -20 0 -44 -24
-44 -44 0 -9 -8 -16 -20 -16 -14 0 -20 -7 -20 -22 0 -40 -12 -67 -31 -73 -24
-8 -27 -65 -4 -65 8 0 15 -9 15 -20 0 -11 5 -20 11 -20 8 0 10 -16 5 -50 -6
-47 -5 -50 16 -51 13 0 17 -3 11 -6 -7 -2 -13 -13 -13 -24 0 -10 -7 -19 -15
-19 -8 0 -15 8 -15 18 0 10 -4 22 -9 27 -4 6 -16 49 -26 98 -10 48 -22 87 -27
87 -17 0 -42 31 -30 39 18 11 26 62 11 72 -12 7 -11 9 1 9 27 1 37 14 44 56 7
40 6 41 -24 48 -27 5 -30 9 -24 28 9 30 29 48 53 48 11 0 22 9 26 20 3 11 15
20 25 20 12 0 22 9 26 23 4 19 11 23 29 20 16 -4 25 1 29 14 5 17 66 43 101
43 9 0 15 9 15 25 0 15 6 25 14 25 8 0 17 7 20 16 10 25 7 84 -4 84 -25 0 -6
18 25 24 20 4 35 13 35 21 0 12 17 21 47 24 9 1 8 -13 -4 -51z m927 37 c0 -10
10 -15 31 -15 29 0 30 -2 24 -31 -5 -22 -2 -36 11 -50 15 -17 19 -40 20 -122
1 -56 5 -116 9 -133 4 -20 3 -34 -4 -38 -6 -4 -11 -2 -11 3 0 6 -9 11 -20 11
-11 0 -20 -4 -20 -10 0 -5 -9 -10 -20 -10 -11 0 -20 5 -20 11 0 7 -11 9 -31 5
-21 -4 -35 -1 -46 9 -8 8 -10 15 -4 15 8 0 9 18 5 54 -4 35 -3 56 5 60 16 10
13 46 -4 46 -8 0 -15 5 -15 10 0 6 5 10 10 10 15 0 12 38 -3 47 -7 4 -18 25
-24 46 -10 34 -10 37 9 37 21 0 48 22 48 39 0 8 16 16 43 20 4 0 7 -6 7 -14z
m-374 -65 c8 0 14 -9 14 -20 0 -13 7 -20 20 -20 11 0 20 5 20 10 0 6 7 10 15
10 8 0 15 -5 15 -11 0 -7 10 -9 25 -7 17 4 25 1 25 -8 0 -8 -4 -14 -10 -14
-15 0 -12 -29 5 -46 8 -9 15 -19 15 -24 0 -5 -7 -15 -15 -24 -8 -8 -15 -31
-15 -50 0 -32 -3 -36 -25 -36 -22 0 -25 -5 -26 -37 -2 -31 -3 -33 -6 -10 -4
26 -6 27 -74 27 -62 0 -69 -2 -69 -20 0 -12 7 -20 17 -20 9 0 13 -3 10 -6 -4
-4 -19 -2 -34 4 -15 6 -45 13 -65 17 -43 7 -52 25 -13 25 18 0 25 5 25 19 0
11 -4 21 -8 23 -13 5 -24 58 -12 58 5 0 10 9 10 20 0 11 -6 20 -14 20 -8 0
-17 4 -21 9 -8 14 16 61 32 61 8 0 13 12 13 30 0 25 5 31 33 38 18 5 36 5 42
1 16 -15 45 -10 46 9 1 11 3 9 6 -5 2 -13 11 -23 19 -23z m-975 -28 c-11 -16
-27 -35 -36 -42 -13 -11 -15 -8 -15 23 0 37 9 45 48 46 l23 1 -20 -28z m1934
-127 c6 -31 5 -37 -5 -29 -6 7 -13 28 -14 48 -2 45 10 33 19 -19z m-255 -85
c0 -5 -4 -10 -10 -10 -5 0 -10 -6 -10 -14 0 -8 -7 -16 -15 -20 -11 -4 -15 1
-15 19 0 21 10 29 43 34 4 0 7 -3 7 -9z m-1296 -182 c-7 -25 -34 -23 -34 2 0
11 5 20 10 20 6 0 10 12 11 28 l1 27 9 -30 c5 -16 6 -38 3 -47z m1096 -52 c0
-8 9 -17 19 -21 11 -3 21 -16 23 -28 2 -13 13 -24 28 -28 16 -4 19 -7 8 -8
-22 -1 -25 -41 -3 -41 8 0 15 -7 15 -16 0 -9 8 -24 18 -33 10 -9 21 -24 25
-34 4 -9 19 -22 34 -28 16 -7 23 -13 16 -16 -7 -3 -13 -13 -13 -24 0 -14 7
-19 25 -19 14 0 25 -4 25 -10 0 -5 -9 -10 -20 -10 -11 0 -20 -6 -21 -12 0 -10
-2 -10 -6 0 -2 6 -11 12 -19 12 -8 0 -14 5 -14 10 0 6 -15 10 -32 9 -71 -5
-88 0 -108 34 -34 56 -43 66 -67 72 -18 4 -23 12 -23 35 0 25 -4 30 -25 30
-18 0 -25 5 -25 20 0 10 -9 24 -20 30 -11 6 -20 17 -20 25 0 8 -4 15 -10 15
-5 0 -10 9 -10 19 0 18 6 19 85 15 55 -3 85 -1 85 6 0 5 7 10 15 10 8 0 15 -6
15 -14z m427 -88 c-3 -8 -6 -5 -6 6 -1 11 2 17 5 13 3 -3 4 -12 1 -19z m-200
-270 c-3 -7 -5 -2 -5 12 0 14 2 19 5 13 2 -7 2 -19 0 -25z m-227 -512 c0 -15
-7 -26 -19 -29 -17 -4 -18 -2 -9 24 12 35 28 38 28 5z m-1187 -61 c4 -46 3
-65 -3 -55 -9 14 -15 139 -6 129 2 -2 6 -35 9 -74z m1582 -41 c0 -24 -5 -34
-20 -38 -10 -3 -20 -4 -22 -3 -1 2 0 26 4 54 5 48 7 50 22 36 9 -9 16 -31 16
-49z m-1692 -35 l22 0 -22 -9 c-13 -5 -23 -16 -23 -25 0 -8 -4 -15 -10 -15
-12 0 -13 24 -3 60 6 19 8 21 11 8 2 -10 13 -18 25 -19z"/>
<path d="M2220 1398 c0 -30 13 -58 26 -58 8 0 14 -9 14 -20 0 -13 7 -20 20
-20 11 0 20 -7 20 -15 0 -8 9 -15 20 -15 13 0 20 7 20 20 0 13 -7 20 -20 20
-11 0 -20 7 -20 15 0 8 -6 15 -14 15 -8 0 -17 15 -20 35 -5 26 -12 35 -26 35
-11 0 -20 -6 -20 -12z"/>
<path d="M2390 1200 c0 -13 7 -20 20 -20 13 0 20 7 20 20 0 13 -7 20 -20 20
-13 0 -20 -7 -20 -20z"/>
</g>
</svg>
