<?xml version="1.0" standalone="no"?>
<!DOCTYPE svg PUBLIC "-//W3C//DTD SVG 20010904//EN"
 "http://www.w3.org/TR/2001/REC-SVG-20010904/DTD/svg10.dtd">
<svg version="1.0" xmlns="http://www.w3.org/2000/svg"
 width="632.000000pt" height="562.000000pt" viewBox="0 0 632.000000 562.000000"
 preserveAspectRatio="xMidYMid meet">
<metadata>
Created by potrace 1.13, written by Peter Selinger 2001-2015
</metadata>
<g transform="translate(0.000000,562.000000) scale(0.100000,-0.100000)"
fill="#000000" stroke="none">
<path d="M890 5570 c0 -22 5 -40 10 -40 6 0 10 -15 9 -32 0 -30 -3 -27 -24 27
-26 68 -48 80 -76 44 -19 -24 -26 -95 -11 -101 5 -1 12 -21 15 -43 l7 -41 -73
-36 c-63 -31 -183 -114 -224 -154 -7 -7 -13 -21 -13 -32 0 -27 -68 -112 -90
-112 -6 0 -10 -4 -10 -10 0 -5 -5 -10 -10 -10 -6 0 -20 -9 -31 -19 -12 -11
-46 -33 -77 -50 -71 -39 -93 -53 -110 -68 -7 -7 -20 -13 -29 -13 -25 0 -91
-53 -107 -85 -32 -67 -40 -114 -28 -161 7 -24 12 -55 12 -68 0 -20 9 -28 48
-42 26 -10 54 -23 62 -30 8 -6 43 -15 78 -19 53 -6 67 -4 98 14 19 12 46 21
60 21 13 0 24 6 24 13 0 9 22 19 58 27 31 6 75 19 97 27 97 37 123 42 187 33
65 -9 133 0 240 34 l47 15 50 -47 c53 -50 112 -161 126 -237 3 -22 22 -78 40
-125 18 -47 37 -101 40 -120 7 -32 45 -136 81 -217 51 -114 77 -190 95 -278
22 -107 22 -155 -1 -390 -9 -92 -9 -141 0 -211 12 -93 24 -123 102 -264 19
-36 50 -110 69 -164 19 -55 43 -109 54 -121 11 -12 31 -34 45 -50 14 -17 46
-48 72 -70 46 -40 46 -41 98 -225 29 -102 59 -196 65 -210 15 -28 60 -205 76
-295 26 -142 65 -308 78 -332 14 -24 50 -144 65 -213 17 -78 20 -332 6 -410
-17 -94 -50 -171 -84 -200 -138 -116 -195 -236 -121 -251 49 -11 151 -10 205
2 93 20 147 98 105 153 -8 11 -15 28 -15 38 0 15 8 18 49 18 l48 0 12 59 c12
60 10 81 -14 156 -8 24 -16 141 -21 300 -9 287 -8 346 5 421 6 31 6 79 0 125
-11 83 -9 494 2 482 14 -16 89 -373 89 -425 0 -15 14 -64 31 -110 96 -260 128
-453 107 -648 -14 -130 -29 -189 -60 -234 -15 -22 -28 -45 -28 -50 0 -5 -22
-31 -50 -57 -61 -59 -64 -82 -12 -97 56 -17 188 -22 248 -10 51 10 54 13 60
47 6 27 2 46 -17 81 -34 64 -27 103 21 110 32 5 35 8 38 40 2 19 -4 67 -13
105 -9 39 -28 192 -43 341 -23 228 -26 288 -18 374 7 72 6 140 -4 238 -14 150
-16 347 -5 540 l8 125 111 -6 c63 -4 174 -20 256 -37 177 -37 376 -49 561 -31
124 12 188 23 413 76 110 25 124 26 175 15 31 -8 68 -24 83 -38 22 -20 33 -23
60 -18 119 24 105 35 186 -144 16 -36 41 -82 55 -103 14 -21 37 -70 52 -110
45 -121 96 -250 116 -293 10 -23 19 -46 19 -53 0 -6 4 -11 9 -11 5 0 12 -13
16 -29 3 -16 15 -46 26 -67 10 -21 19 -46 19 -56 0 -10 5 -18 10 -18 6 0 10
-38 11 -92 0 -51 4 -145 9 -208 9 -126 1 -185 -60 -425 -29 -116 -42 -151 -82
-225 -11 -19 -33 -64 -50 -100 -17 -36 -38 -72 -47 -81 -17 -18 -27 -29 -81
-99 -19 -25 -50 -58 -68 -74 -63 -56 -25 -111 85 -122 65 -7 165 8 194 29 36
27 52 104 29 146 -7 14 -5 23 8 35 15 13 23 14 50 4 17 -7 34 -10 37 -7 8 9
25 98 35 184 9 88 25 169 39 200 6 11 24 67 41 125 18 58 35 110 39 115 4 6
14 37 21 69 8 33 24 70 36 83 12 13 34 61 49 106 15 45 33 89 41 98 8 8 14 20
14 26 0 5 9 18 20 28 10 9 22 37 26 62 5 38 2 54 -24 106 -46 94 -92 241 -104
333 -10 81 -4 214 11 214 4 0 14 -12 22 -27 7 -16 24 -45 37 -66 13 -22 35
-60 49 -85 14 -26 40 -67 58 -92 69 -99 189 -484 225 -729 15 -96 8 -319 -10
-366 -6 -16 -25 -80 -40 -142 -30 -115 -41 -134 -150 -264 -17 -19 -33 -51
-36 -70 -5 -31 -3 -36 20 -47 42 -19 175 -15 248 8 85 26 96 45 74 128 l-15
61 30 33 c17 18 38 47 46 63 22 40 29 180 13 230 -9 26 -12 105 -12 249 1 194
9 288 42 518 14 94 12 138 -6 173 -74 135 -145 294 -170 375 -28 93 -4 289 50
403 l24 52 2 -60 c4 -149 43 -353 87 -452 42 -98 73 -224 73 -304 0 -42 3 -49
19 -49 11 0 22 8 24 18 4 16 12 -119 9 -163 -2 -40 8 -65 28 -65 13 0 22 -9
26 -27 4 -16 12 -31 18 -35 18 -13 46 -9 46 6 0 9 8 12 24 9 15 -3 31 3 47 19
13 13 43 30 66 37 23 8 44 20 47 27 3 8 13 14 23 14 15 0 22 16 36 78 9 42 20
95 23 117 9 54 14 296 7 315 -8 21 -13 55 -19 135 -2 39 -10 81 -17 94 -13 26
-14 119 -6 686 4 298 3 314 -20 420 -13 61 -33 130 -43 155 -45 103 -53 120
-60 120 -5 0 -8 7 -8 15 0 8 -4 15 -10 15 -5 0 -10 6 -10 13 0 15 -83 97 -98
97 -6 0 -12 3 -14 8 -6 13 -67 52 -82 52 -8 0 -19 6 -23 14 -4 7 -32 21 -61
31 -45 14 -73 16 -160 10 -59 -3 -123 -11 -143 -16 -50 -13 -141 -14 -165 -1
-10 5 -32 16 -49 23 -16 8 -32 16 -35 20 -6 6 -128 42 -220 63 -74 18 -307 35
-390 30 -30 -2 -122 -8 -205 -14 -82 -5 -220 -19 -305 -30 -218 -29 -530 -36
-689 -16 -122 15 -224 45 -301 89 -19 11 -46 26 -60 33 -14 7 -39 27 -55 45
-17 17 -46 39 -65 50 -19 10 -57 39 -84 64 -27 25 -55 45 -63 45 -7 0 -13 5
-13 10 0 6 -9 10 -20 10 -11 0 -20 5 -20 10 0 6 -5 10 -10 10 -6 0 -20 9 -32
20 -12 11 -28 20 -35 20 -7 0 -13 5 -13 10 0 6 -11 10 -25 10 -14 0 -25 5 -25
10 0 6 -5 10 -11 10 -5 0 -22 13 -37 29 -15 15 -54 49 -87 76 -84 66 -150 124
-188 165 -18 19 -49 50 -69 70 -21 20 -38 39 -38 43 0 4 -7 15 -15 25 -9 9
-26 28 -38 42 -12 14 -41 34 -65 45 -34 15 -49 30 -73 76 -17 32 -51 76 -75
98 -23 23 -50 54 -59 69 -9 15 -32 39 -51 52 -20 13 -47 40 -62 61 -15 20 -47
50 -72 65 -25 15 -47 31 -50 35 -3 3 -25 17 -50 29 -25 12 -47 25 -50 29 -9
11 -84 59 -125 80 -169 87 -240 115 -329 129 -33 6 -40 12 -54 47 -8 22 -24
52 -34 67 -10 14 -18 33 -18 42 0 12 -10 16 -35 16 -34 0 -35 -1 -35 -40z
m3961 -5220 c19 0 27 -4 23 -13 -5 -14 -74 -18 -74 -5 0 17 14 41 18 30 2 -7
17 -12 33 -12z m-135 -204 c10 -8 16 -18 11 -22 -8 -8 -57 15 -57 28 0 13 24
9 46 -6z"/>
</g>
</svg>
