<?xml version="1.0" standalone="no"?>
<!DOCTYPE svg PUBLIC "-//W3C//DTD SVG 20010904//EN"
 "http://www.w3.org/TR/2001/REC-SVG-20010904/DTD/svg10.dtd">
<svg version="1.0" xmlns="http://www.w3.org/2000/svg"
 width="62.000000pt" height="61.000000pt" viewBox="0 0 62.000000 61.000000"
 preserveAspectRatio="xMidYMid meet">
<metadata>
Created by potrace 1.13, written by Peter Selinger 2001-2015
</metadata>
<g transform="translate(0.000000,61.000000) scale(0.100000,-0.100000)"
fill="#000000" stroke="none">
<path d="M219 580 c-147 -77 -207 -297 -128 -474 27 -62 44 -76 90 -76 39 0
39 0 39 38 0 21 -5 43 -12 50 -16 16 -22 159 -9 208 33 122 144 181 214 112
88 -85 102 -182 51 -336 -25 -75 -21 -84 33 -80 l48 3 35 80 c28 66 35 95 38
166 5 106 -8 153 -57 219 -64 86 -97 102 -210 106 -78 2 -103 -1 -132 -16z"/>
</g>
</svg>
