<?xml version="1.0" standalone="no"?>
<!DOCTYPE svg PUBLIC "-//W3C//DTD SVG 20010904//EN"
 "http://www.w3.org/TR/2001/REC-SVG-20010904/DTD/svg10.dtd">
<svg version="1.0" xmlns="http://www.w3.org/2000/svg"
 width="360.000000pt" height="275.000000pt" viewBox="0 0 360.000000 275.000000"
 preserveAspectRatio="xMidYMid meet">
<metadata>
Created by potrace 1.13, written by Peter Selinger 2001-2015
</metadata>
<g transform="translate(0.000000,275.000000) scale(0.100000,-0.100000)"
fill="#000000" stroke="none">
<path d="M650 2710 c-15 -22 -30 -30 -50 -30 -16 0 -44 -6 -62 -14 -56 -24
-260 -74 -328 -80 -36 -4 -88 -12 -116 -17 -48 -11 -51 -13 -68 -61 -21 -61
-14 -106 18 -114 18 -4 22 -11 18 -29 -8 -44 82 -82 127 -54 23 15 157 -3 204
-27 24 -13 49 -15 111 -11 55 4 83 2 91 -7 28 -27 95 -165 105 -216 15 -73 82
-273 111 -332 22 -47 22 -48 5 -109 -29 -105 -31 -174 -7 -263 12 -44 21 -90
21 -103 0 -13 7 -34 15 -47 14 -21 13 -28 -25 -100 -41 -78 -88 -157 -99 -166
-3 -3 -22 -30 -42 -60 -20 -30 -44 -68 -55 -84 -10 -16 -27 -41 -36 -55 -28
-42 -45 -74 -53 -101 -10 -34 -105 -167 -149 -209 -20 -19 -36 -40 -36 -47 0
-16 -48 -51 -81 -59 -44 -11 -69 -73 -53 -132 6 -21 12 -23 68 -23 75 0 98 14
101 62 3 45 11 58 38 58 30 1 50 19 67 59 28 70 95 157 204 263 38 38 82 85
98 106 94 119 174 202 233 240 22 14 52 36 66 49 22 20 29 22 57 12 26 -9 38
-26 75 -102 25 -51 65 -153 90 -227 24 -74 54 -153 65 -175 34 -67 72 -163 72
-184 0 -11 4 -22 9 -25 19 -12 21 -69 4 -95 -18 -28 -53 -60 -66 -61 -15 0
-87 -83 -87 -101 0 -24 20 -29 109 -29 86 0 101 8 101 55 0 33 25 65 52 65 9
0 18 12 22 31 9 48 7 137 -4 144 -15 9 -71 196 -72 240 0 22 -13 96 -30 164
-30 124 -47 240 -40 275 4 17 14 18 230 11 256 -8 335 1 489 57 70 25 89 29
109 19 29 -13 61 -14 66 -3 2 4 16 17 31 29 l28 22 52 -48 c175 -161 186 -170
221 -176 20 -4 42 -5 49 -2 14 5 198 -11 206 -18 4 -5 -12 -73 -41 -162 -12
-38 -17 -71 -12 -85 17 -55 154 -198 189 -198 29 0 35 16 35 96 0 72 -25 114
-67 114 -20 0 -23 5 -23 40 0 23 12 77 27 122 l26 80 48 -5 c67 -8 102 -47
133 -147 10 -30 24 -71 31 -90 8 -19 21 -61 30 -92 15 -54 20 -59 91 -108 42
-28 90 -54 107 -57 18 -3 35 -11 38 -16 4 -5 19 -7 33 -3 20 5 26 13 26 34 -1
61 -68 162 -107 162 -20 0 -103 74 -103 91 0 4 -11 48 -25 96 -14 48 -31 137
-39 197 -17 135 -21 140 -122 133 l-72 -5 5 38 c5 33 2 40 -21 55 -23 15 -32
16 -74 5 -26 -7 -54 -14 -63 -16 -14 -4 -15 10 -12 118 8 209 -26 365 -93 433
-29 28 -7 28 43 0 85 -49 176 -92 255 -119 88 -30 108 -32 108 -11 0 12 13 14
75 9 49 -3 75 -1 75 6 0 5 9 10 20 10 11 0 20 5 20 10 0 6 9 10 19 10 19 0 31
18 31 46 0 8 -7 14 -15 14 -8 0 -15 5 -15 10 0 6 9 10 19 10 16 0 19 7 19 45
0 32 -4 45 -14 45 -8 0 -14 5 -14 10 0 6 -6 10 -14 10 -8 0 -16 6 -19 13 -3 8
-41 18 -103 26 -55 6 -124 16 -154 21 -118 18 -188 12 -309 -27 l-113 -37 -82
18 c-97 22 -162 33 -274 46 -70 9 -101 7 -200 -10 -167 -29 -252 -34 -377 -21
-87 9 -123 18 -173 42 -111 54 -131 70 -125 102 5 23 2 27 -16 27 -11 0 -21 5
-21 10 0 6 -9 10 -21 10 -12 0 -23 8 -26 20 -3 11 -13 20 -23 20 -11 0 -22 12
-29 30 -7 20 -17 30 -30 30 -12 0 -21 7 -21 15 0 8 -8 15 -17 16 -10 0 -3 5
15 10 22 7 32 16 32 29 0 16 -7 20 -35 20 -19 0 -35 5 -35 10 0 6 -7 10 -15
10 -20 0 -65 47 -65 68 0 16 -44 48 -124 88 -21 10 -40 25 -43 32 -3 6 -26 21
-50 32 -25 11 -60 35 -77 53 -32 34 -118 79 -174 91 -30 7 -31 9 -17 29 8 12
15 38 15 59 0 41 -13 48 -51 28 -15 -8 -19 -7 -19 5 0 26 -37 17 -60 -15z
m-311 -167 c-7 -10 -15 -20 -16 -22 -2 -2 -3 5 -3 17 0 14 6 22 16 22 14 0 15
-3 3 -17z m-69 -43 c0 -11 -7 -20 -15 -20 -27 0 -18 30 13 39 1 1 2 -8 2 -19z
m667 -296 c4 -30 2 -44 -6 -44 -6 0 -11 17 -11 40 0 22 -4 40 -9 40 -4 0 -6
11 -3 25 2 15 0 25 -7 25 -7 0 -9 5 -5 12 10 16 33 -38 41 -98z m28 -94 c4
-22 10 -40 15 -40 10 0 22 -40 20 -67 -1 -13 3 -23 9 -23 6 0 8 -7 5 -15 -8
-20 12 -68 35 -84 10 -8 16 -21 14 -31 -3 -10 0 -27 6 -39 7 -12 8 -21 4 -21
-4 0 -16 20 -26 45 -11 25 -23 45 -27 45 -9 0 -34 60 -31 75 3 12 -21 88 -30
95 -10 8 -19 100 -10 100 5 0 12 -18 16 -40z m160 -38 c-8 -8 -25 10 -25 26 0
13 2 13 14 -4 8 -10 13 -21 11 -22z m55 -38 c0 -2 -7 -4 -15 -4 -8 0 -15 4
-15 10 0 5 7 7 15 4 8 -4 15 -8 15 -10z m1456 -269 c27 -25 43 -45 36 -45 -7
0 -15 7 -18 15 -4 8 -10 15 -15 15 -4 0 -30 14 -56 30 -42 27 -44 30 -21 30
17 0 43 -16 74 -45z m-1499 -10 c-9 -8 -26 -15 -38 -15 -30 0 -48 -27 -49 -72
0 -21 -4 -38 -10 -38 -13 0 -13 76 0 101 6 11 21 19 35 19 14 0 25 4 25 8 0
13 44 31 48 21 2 -5 -3 -16 -11 -24z m1813 21 c0 -9 -8 -12 -25 -8 -14 2 -25
8 -25 13 0 5 11 9 25 9 14 0 25 -6 25 -14z m-1439 -86 c16 0 29 -4 29 -9 0 -5
8 -12 18 -14 13 -4 11 -5 -5 -6 -16 -1 -23 -7 -23 -21 0 -11 -4 -20 -10 -20
-5 0 -10 9 -10 20 0 13 -7 20 -17 20 -18 -1 -53 -22 -53 -33 0 -9 -46 -57 -55
-57 -4 0 -2 7 5 15 7 8 10 28 8 45 -3 20 0 30 9 30 7 0 13 6 13 14 0 8 9 17
19 21 11 3 23 13 27 23 6 15 8 14 11 -5 3 -18 11 -23 34 -23z m-129 0 c-2 -17
-10 -30 -18 -30 -8 0 -14 -9 -14 -20 0 -15 -7 -20 -25 -20 -15 0 -25 -6 -25
-14 0 -15 -21 -26 -51 -26 -27 0 -24 7 21 50 22 21 40 43 40 49 0 6 9 11 20
11 11 0 20 7 20 15 0 8 8 15 18 15 15 0 18 -6 14 -30z m1108 15 c0 -8 7 -15
15 -15 8 0 15 -7 15 -15 0 -8 7 -15 15 -15 9 0 15 -9 15 -21 0 -15 6 -20 23
-18 35 3 57 -11 57 -37 0 -15 6 -24 15 -24 8 0 15 -4 15 -10 0 -5 -7 -10 -15
-10 -8 0 -16 -10 -16 -22 l-2 -23 -4 23 c-2 12 -11 22 -19 22 -8 0 -14 7 -14
16 0 13 -7 15 -30 11 -26 -6 -31 -3 -36 18 -3 14 -10 25 -14 25 -5 0 -12 9
-15 20 -4 14 -15 20 -36 20 -22 0 -29 -5 -29 -20 0 -11 -4 -20 -10 -20 -24 0
-4 83 23 97 32 16 47 15 47 -2z m210 -4 c0 -5 15 -14 33 -22 32 -13 115 -89
96 -89 -11 0 -59 49 -59 60 0 4 -15 11 -33 14 -29 5 -71 46 -47 46 5 0 10 -4
10 -9z m-1477 -139 c-6 -4 -15 -20 -18 -35 -4 -15 -11 -27 -16 -27 -5 0 -9 -7
-9 -15 0 -8 -4 -15 -10 -15 -5 0 -12 -11 -16 -25 -3 -14 -11 -25 -16 -25 -5 0
-18 -10 -29 -22 l-18 -23 -1 23 c0 12 -4 22 -10 22 -5 0 -7 7 -4 15 4 8 15 15
25 15 10 0 19 5 19 10 0 6 7 10 15 10 8 0 15 9 15 20 0 12 7 20 16 20 12 0 15
7 12 25 -5 25 3 33 37 34 12 0 16 -2 8 -7z m-343 -47 c0 -8 -7 -15 -15 -15 -9
0 -12 6 -9 15 4 8 10 15 15 15 5 0 9 -7 9 -15z m1825 -42 c11 -79 11 -87 -7
-91 -14 -3 -17 4 -15 40 1 24 -1 55 -6 71 -6 20 -4 27 7 27 10 0 17 -16 21
-47z m-1710 -29 l-16 -29 5 34 c4 18 6 41 7 50 0 12 3 11 11 -5 7 -16 6 -29
-7 -50z m975 32 c0 -8 14 -19 30 -25 30 -10 42 -43 20 -56 -14 -9 -60 40 -60
64 0 11 -6 22 -12 24 -8 3 -6 6 5 6 9 1 17 -5 17 -13z m-1070 -10 c0 -8 5 -16
12 -18 6 -2 9 -9 7 -16 -6 -16 -25 -1 -33 26 -5 13 -3 22 3 22 6 0 11 -6 11
-14z m720 -1 c0 -8 -4 -15 -10 -15 -5 0 -10 7 -10 15 0 8 5 15 10 15 6 0 10
-7 10 -15z m966 -73 c-13 -12 -17 8 -10 40 l9 33 3 -33 c2 -19 1 -36 -2 -40z
m-1666 -12 c8 -5 11 -10 5 -10 -5 0 -17 5 -25 10 -8 5 -10 10 -5 10 6 0 17 -5
25 -10z m1227 -35 c6 -20 7 -35 2 -35 -5 0 -9 9 -9 20 0 11 -4 20 -10 20 -5 0
-10 7 -10 15 0 28 17 15 27 -20z m450 -27 c-3 -7 -5 -2 -5 12 0 14 2 19 5 13
2 -7 2 -19 0 -25z m-1677 12 c10 -6 11 -10 3 -10 -7 0 -13 -11 -13 -25 0 -14
-4 -25 -10 -25 -5 0 -10 16 -10 35 0 37 5 41 30 25z m442 -9 c-5 -3 -12 -16
-16 -28 -4 -13 -13 -23 -21 -23 -7 0 -15 -6 -18 -12 -8 -24 -15 -3 -10 30 4
26 10 32 29 32 13 0 24 5 24 11 0 5 5 7 11 3 7 -4 7 -9 1 -13z m1177 1 c-24
-8 -29 -25 -24 -72 5 -39 4 -42 -6 -20 -15 34 -14 91 2 100 7 5 19 5 28 2 13
-5 13 -6 0 -10z m-305 -17 c16 -12 17 -15 4 -15 -8 0 -21 7 -28 15 -16 19 -1
19 24 0z m356 -15 c0 -5 -4 -10 -10 -10 -5 0 -10 5 -10 10 0 6 5 10 10 10 6 0
10 -4 10 -10z m-957 -70 c-4 -4 -17 -4 -28 0 -19 8 -19 9 3 9 14 1 22 8 23 19
1 15 2 15 6 -2 3 -10 1 -22 -4 -26z m-343 10 c0 -5 -4 -10 -10 -10 -5 0 -10 5
-10 10 0 6 5 10 10 10 6 0 10 -4 10 -10z m290 -19 c0 -5 -7 -11 -15 -15 -9 -3
-15 0 -15 9 0 8 7 15 15 15 8 0 15 -4 15 -9z m993 -28 c-7 -2 -13 -11 -13 -19
0 -8 -7 -14 -15 -14 -8 0 -15 9 -15 20 0 15 6 20 28 19 15 0 21 -3 15 -6z
m-1677 -69 c-4 -9 -9 -15 -11 -12 -3 3 -3 13 1 22 4 9 9 15 11 12 3 -3 3 -13
-1 -22z m346 8 c-7 -2 -12 -23 -13 -50 0 -42 -1 -44 -10 -22 -6 14 -8 39 -4
57 4 25 10 31 22 26 11 -4 13 -8 5 -11z m-369 -47 c-3 -9 -8 -14 -10 -11 -3 3
-2 9 2 15 9 16 15 13 8 -4z m2095 -39 c-17 -9 -23 -20 -22 -44 2 -36 -1 -38
-23 -16 -13 13 -14 17 -3 24 7 4 10 17 8 28 -6 22 12 32 45 24 16 -4 15 -6 -5
-16z m430 -480 c5 -6 12 -23 14 -38 4 -24 3 -26 -13 -17 -21 11 -49 48 -49 65
0 14 35 7 48 -10z"/>
</g>
</svg>
