<?xml version="1.0" standalone="no"?>
<!DOCTYPE svg PUBLIC "-//W3C//DTD SVG 20010904//EN"
 "http://www.w3.org/TR/2001/REC-SVG-20010904/DTD/svg10.dtd">
<svg version="1.0" xmlns="http://www.w3.org/2000/svg"
 width="512.000000pt" height="512.000000pt" viewBox="0 0 512.000000 512.000000"
 preserveAspectRatio="xMidYMid meet">
<metadata>
Created by potrace 1.13, written by Peter Selinger 2001-2015
</metadata>
<g transform="translate(0.000000,512.000000) scale(0.100000,-0.100000)"
fill="#000000" stroke="none">
<path d="M2360 4114 c-248 -28 -382 -59 -496 -114 -189 -91 -192 -205 -9 -296
l73 -36 -87 -86 c-262 -261 -339 -613 -206 -952 28 -72 34 -106 44 -228 32
-401 160 -765 352 -1001 33 -41 47 -67 40 -69 -29 -10 -81 -65 -81 -87 0 -54
104 -109 267 -142 124 -25 452 -25 576 0 116 23 190 52 233 89 46 40 44 68 -6
111 -36 31 -39 36 -24 48 9 7 36 39 60 71 183 237 304 591 335 980 10 122 16
156 44 228 134 341 56 692 -210 955 l-91 91 54 24 c31 13 72 40 93 60 140 133
-33 268 -431 335 -90 15 -451 28 -530 19z"/>
</g>
</svg>
