<?xml version="1.0" standalone="no"?>
<!DOCTYPE svg PUBLIC "-//W3C//DTD SVG 20010904//EN"
 "http://www.w3.org/TR/2001/REC-SVG-20010904/DTD/svg10.dtd">
<svg version="1.0" xmlns="http://www.w3.org/2000/svg"
 width="512.000000pt" height="512.000000pt" viewBox="0 0 512.000000 512.000000"
 preserveAspectRatio="xMidYMid meet">
<metadata>
Created by potrace 1.13, written by Peter Selinger 2001-2015
</metadata>
<g transform="translate(0.000000,512.000000) scale(0.100000,-0.100000)"
fill="#000000" stroke="none">
<path d="M2145 3824 c-51 -8 -109 -27 -160 -53 -44 -21 -123 -60 -175 -85 -52
-26 -120 -67 -150 -91 -30 -25 -68 -54 -83 -66 -39 -30 -130 -145 -158 -199
-12 -25 -30 -56 -40 -70 -9 -14 -22 -45 -29 -70 -7 -25 -24 -63 -38 -86 l-27
-41 -60 19 c-33 10 -72 18 -87 18 -18 0 -38 11 -58 34 -17 18 -54 46 -83 62
-47 26 -61 29 -147 29 -135 0 -173 -21 -257 -137 -64 -90 -93 -151 -93 -201 0
-15 -6 -40 -14 -55 -9 -19 -16 -90 -21 -233 -6 -171 -5 -211 8 -235 8 -16 17
-58 21 -93 7 -76 43 -159 91 -212 18 -21 41 -51 49 -67 18 -35 64 -71 137
-107 82 -40 108 -46 184 -39 70 7 70 7 133 70 63 64 71 68 147 78 22 3 55 8
73 12 26 5 32 3 32 -10 0 -9 11 -37 24 -63 14 -27 29 -59 35 -73 47 -109 169
-257 235 -286 23 -10 66 -34 96 -54 30 -20 73 -48 95 -63 22 -14 65 -33 95
-42 30 -9 69 -20 85 -26 17 -6 77 -21 135 -35 92 -20 130 -23 315 -23 149 0
227 4 270 14 33 8 76 15 96 15 19 0 44 7 55 15 10 8 35 19 55 25 20 5 54 22
75 37 22 14 59 32 83 40 25 7 52 20 61 28 8 8 41 25 72 39 31 14 59 30 63 35
3 6 14 11 24 11 20 0 85 47 181 130 36 32 79 64 96 73 34 18 243 220 316 306
l46 55 23 -28 c41 -47 160 -61 229 -26 63 32 110 80 136 138 13 30 40 76 59
102 19 26 42 67 50 90 19 54 19 228 1 325 -53 274 -79 340 -174 443 l-58 62
-64 0 c-69 0 -84 -7 -158 -67 l-39 -32 -34 35 c-19 20 -50 47 -69 59 -19 13
-60 42 -90 64 -30 22 -93 59 -140 82 -47 23 -96 50 -110 60 -122 83 -377 209
-465 229 -27 7 -90 32 -140 57 -144 71 -223 86 -470 89 -142 1 -236 -2 -290
-12z"/>
</g>
</svg>
