<?xml version="1.0" standalone="no"?>
<!DOCTYPE svg PUBLIC "-//W3C//DTD SVG 20010904//EN"
 "http://www.w3.org/TR/2001/REC-SVG-20010904/DTD/svg10.dtd">
<svg version="1.0" xmlns="http://www.w3.org/2000/svg"
 width="512.000000pt" height="512.000000pt" viewBox="0 0 512.000000 512.000000"
 preserveAspectRatio="xMidYMid meet">
<metadata>
Created by potrace 1.13, written by Peter Selinger 2001-2015
</metadata>
<g transform="translate(0.000000,512.000000) scale(0.100000,-0.100000)"
fill="#000000" stroke="none">
<path d="M1987 4445 c-15 -14 -39 -25 -51 -25 -68 0 -106 -85 -112 -249 l-4
-104 -62 -52 c-35 -29 -89 -80 -122 -113 l-58 -60 -42 19 c-103 46 -227 -4
-316 -128 -31 -44 -40 -50 -44 -36 -18 51 -112 123 -161 123 -35 0 -92 -34
-130 -78 -35 -38 -99 -173 -129 -267 -167 -527 -167 -1413 0 -1940 30 -94 94
-229 129 -267 38 -44 95 -78 130 -78 49 0 143 72 161 123 4 14 13 8 44 -36 89
-124 214 -175 315 -128 l40 18 99 -95 98 -95 2 -121 c2 -103 7 -133 31 -205
70 -206 235 -369 442 -437 77 -25 103 -29 208 -29 105 0 131 4 208 29 263 86
453 325 474 597 3 43 9 79 14 79 4 0 47 31 96 68 118 92 249 233 336 362 66
98 197 350 197 378 0 7 18 19 40 28 102 41 181 209 226 479 26 154 26 486 0
640 -49 293 -148 484 -253 485 -13 0 -33 33 -73 117 -136 289 -368 557 -602
694 -43 26 -46 30 -53 84 -13 105 -32 152 -82 198 -25 23 -49 43 -54 45 -5 2
-34 -8 -65 -22 -55 -25 -56 -27 -51 -59 4 -17 13 -53 21 -78 l14 -46 -76 20
c-61 15 -112 20 -242 20 -195 1 -279 -15 -452 -88 -25 -10 -24 25 2 107 24 78
26 134 4 142 -32 12 -70 5 -97 -19z m125 -3664 c147 -60 235 -75 418 -75 143
1 178 4 258 26 l94 25 -7 -46 c-23 -151 -131 -286 -275 -343 -78 -31 -232 -31
-310 0 -111 44 -210 143 -251 252 -26 70 -39 206 -18 198 8 -3 48 -20 91 -37z"/>
</g>
</svg>
