<?xml version="1.0" standalone="no"?>
<!DOCTYPE svg PUBLIC "-//W3C//DTD SVG 20010904//EN"
 "http://www.w3.org/TR/2001/REC-SVG-20010904/DTD/svg10.dtd">
<svg version="1.0" xmlns="http://www.w3.org/2000/svg"
 width="512.000000pt" height="512.000000pt" viewBox="0 0 512.000000 512.000000"
 preserveAspectRatio="xMidYMid meet">
<metadata>
Created by potrace 1.13, written by Peter Selinger 2001-2015
</metadata>
<g transform="translate(0.000000,512.000000) scale(0.100000,-0.100000)"
fill="#000000" stroke="none">
<path d="M2420 4651 c-63 -3 -125 -12 -137 -18 -12 -7 -34 -13 -50 -13 -50 0
-111 -29 -201 -93 -116 -84 -137 -122 -137 -257 0 -86 3 -100 29 -147 16 -29
44 -66 62 -83 23 -20 34 -40 34 -58 0 -15 8 -54 18 -87 l19 -60 -41 -27 c-23
-14 -61 -31 -86 -38 -25 -7 -56 -20 -70 -29 -14 -10 -45 -28 -70 -40 -54 -28
-169 -119 -199 -158 -12 -15 -41 -53 -66 -83 -24 -30 -65 -98 -91 -150 -25
-52 -64 -131 -85 -175 -56 -115 -71 -219 -66 -467 4 -229 21 -314 90 -453 25
-49 50 -112 57 -140 20 -88 146 -343 229 -465 10 -14 37 -63 60 -110 23 -47
60 -110 82 -140 22 -30 51 -71 64 -90 12 -19 39 -50 59 -69 l35 -34 -32 -39
c-60 -74 -67 -89 -67 -158 l0 -64 62 -58 c103 -95 169 -121 443 -174 97 -18
271 -18 325 1 23 8 64 31 90 50 26 19 72 46 102 59 58 26 106 73 138 136 35
69 21 188 -26 229 l-28 23 55 46 c86 73 288 282 306 316 9 17 41 60 73 96 83
96 130 161 130 181 0 10 5 21 11 24 5 4 21 32 35 63 14 31 31 64 39 72 8 9 21
36 28 61 8 24 26 61 40 83 15 21 32 55 37 75 6 20 17 45 25 55 8 11 15 36 15
55 0 20 7 63 15 96 10 43 14 121 14 270 0 185 -3 223 -23 315 -14 58 -29 119
-35 135 -6 17 -17 55 -26 85 -9 30 -28 73 -42 95 -15 22 -43 65 -63 95 -20 30
-44 73 -54 96 -29 66 -177 188 -286 235 -14 6 -46 21 -73 35 -26 13 -54 24
-63 24 -13 0 -15 6 -10 33 4 17 9 50 12 72 10 76 14 84 78 147 63 63 63 63 70
133 7 76 1 102 -39 184 -36 73 -72 119 -107 137 -16 8 -46 31 -67 49 -53 48
-136 84 -212 91 -35 4 -76 13 -91 20 -28 15 -113 16 -338 5z"/>
</g>
</svg>
