<?xml version="1.0" standalone="no"?>
<!DOCTYPE svg PUBLIC "-//W3C//DTD SVG 20010904//EN"
 "http://www.w3.org/TR/2001/REC-SVG-20010904/DTD/svg10.dtd">
<svg version="1.0" xmlns="http://www.w3.org/2000/svg"
 width="512.000000pt" height="512.000000pt" viewBox="0 0 512.000000 512.000000"
 preserveAspectRatio="xMidYMid meet">
<metadata>
Created by potrace 1.13, written by Peter Selinger 2001-2015
</metadata>
<g transform="translate(0.000000,512.000000) scale(0.100000,-0.100000)"
fill="#000000" stroke="none">
<path d="M2295 4479 c-232 -18 -482 -62 -650 -115 -94 -30 -229 -94 -267 -129
-44 -38 -78 -95 -78 -130 0 -49 72 -143 123 -161 14 -4 8 -13 -36 -44 -124
-89 -174 -213 -128 -316 l19 -42 -60 -58 c-33 -33 -84 -87 -113 -122 l-52 -62
-104 -4 c-164 -6 -249 -44 -249 -112 0 -12 -11 -36 -25 -52 -24 -29 -31 -64
-19 -96 8 -22 64 -20 142 4 82 26 117 27 107 3 -73 -174 -89 -258 -88 -453 0
-130 5 -181 20 -242 l20 -76 -46 14 c-25 8 -61 17 -78 21 -32 5 -34 4 -59 -51
-14 -31 -24 -60 -22 -65 2 -5 22 -29 45 -54 46 -50 93 -69 198 -82 54 -7 58
-10 84 -53 137 -234 405 -466 694 -602 84 -40 117 -60 117 -73 1 -105 192
-204 485 -253 154 -26 486 -26 640 0 269 45 432 121 477 223 10 24 24 43 31
43 27 0 280 132 377 197 129 87 270 218 362 336 37 49 68 92 68 96 0 5 36 11
79 14 272 21 511 211 597 474 25 77 29 103 29 208 0 105 -4 131 -29 209 -68
206 -231 371 -437 441 -72 24 -102 29 -205 31 l-121 2 -95 98 -95 99 18 40
c47 101 -4 226 -128 315 -44 31 -50 40 -36 44 51 18 123 112 123 161 0 35 -34
92 -78 130 -38 35 -173 99 -267 129 -324 102 -842 149 -1290 115z m2205 -1398
c109 -41 208 -140 252 -251 31 -78 31 -232 0 -310 -57 -144 -192 -252 -343
-275 l-46 -7 25 94 c22 80 25 115 26 258 0 183 -15 271 -75 418 -17 43 -34 83
-37 91 -8 21 128 8 198 -18z"/>
</g>
</svg>
