<?xml version="1.0" standalone="no"?>
<!DOCTYPE svg PUBLIC "-//W3C//DTD SVG 20010904//EN"
 "http://www.w3.org/TR/2001/REC-SVG-20010904/DTD/svg10.dtd">
<svg version="1.0" xmlns="http://www.w3.org/2000/svg"
 width="512.000000pt" height="512.000000pt" viewBox="0 0 512.000000 512.000000"
 preserveAspectRatio="xMidYMid meet">
<metadata>
Created by potrace 1.13, written by Peter Selinger 2001-2015
</metadata>
<g transform="translate(0.000000,512.000000) scale(0.100000,-0.100000)"
fill="#000000" stroke="none">
<path d="M2360 4647 c-14 -8 -54 -17 -89 -21 -76 -7 -159 -43 -212 -91 -21
-18 -51 -41 -67 -49 -35 -18 -71 -64 -107 -137 -40 -82 -46 -108 -39 -184 7
-70 7 -70 70 -133 64 -63 68 -71 78 -147 3 -22 8 -55 12 -72 5 -27 3 -33 -10
-33 -9 0 -37 -11 -63 -24 -27 -14 -59 -29 -73 -35 -109 -47 -257 -169 -286
-235 -10 -23 -34 -66 -54 -96 -20 -30 -48 -73 -63 -95 -14 -22 -33 -65 -42
-95 -9 -30 -20 -68 -26 -85 -6 -16 -21 -77 -35 -135 -20 -92 -23 -130 -23
-315 0 -149 4 -227 14 -270 8 -33 15 -76 15 -96 0 -19 7 -44 15 -55 8 -10 19
-35 25 -55 5 -20 22 -54 37 -75 14 -22 32 -59 40 -83 7 -25 20 -52 28 -61 8
-8 25 -41 39 -72 14 -31 30 -59 35 -63 6 -3 11 -14 11 -24 0 -20 47 -85 130
-181 32 -36 64 -79 73 -96 18 -34 220 -243 306 -316 l55 -46 -28 -23 c-47 -41
-61 -160 -26 -229 32 -63 80 -110 138 -136 30 -13 76 -40 102 -59 26 -19 67
-42 90 -50 54 -19 228 -19 325 -1 274 53 340 79 443 174 l62 58 0 64 c0 69 -7
84 -67 158 l-32 39 35 34 c20 19 47 50 59 69 13 19 42 60 64 90 22 30 59 93
82 140 23 47 50 96 60 110 83 122 209 377 229 465 7 28 32 91 57 140 69 139
86 224 90 453 5 248 -10 352 -66 467 -21 44 -60 123 -85 175 -26 52 -67 120
-91 150 -25 30 -54 68 -66 83 -30 39 -145 130 -199 158 -25 12 -56 30 -70 40
-14 9 -45 22 -70 29 -25 7 -63 24 -86 38 l-41 27 19 60 c10 33 18 72 18 87 0
18 11 38 34 58 18 17 46 54 62 83 26 47 29 61 29 147 0 135 -21 173 -137 257
-90 64 -151 93 -201 93 -15 0 -40 6 -55 14 -41 21 -438 31 -472 13z"/>
</g>
</svg>
