<?xml version="1.0" standalone="no"?>
<!DOCTYPE svg PUBLIC "-//W3C//DTD SVG 20010904//EN"
 "http://www.w3.org/TR/2001/REC-SVG-20010904/DTD/svg10.dtd">
<svg version="1.0" xmlns="http://www.w3.org/2000/svg"
 width="512.000000pt" height="512.000000pt" viewBox="0 0 512.000000 512.000000"
 preserveAspectRatio="xMidYMid meet">
<metadata>
Created by potrace 1.13, written by Peter Selinger 2001-2015
</metadata>
<g transform="translate(0.000000,512.000000) scale(0.100000,-0.100000)"
fill="#000000" stroke="none">
<path d="M2489 3836 c-3 -3 -45 -14 -94 -25 -54 -12 -126 -38 -180 -64 -49
-25 -112 -50 -140 -57 -88 -20 -343 -146 -465 -229 -14 -10 -63 -37 -110 -60
-47 -23 -110 -60 -140 -82 -30 -22 -71 -51 -90 -64 -19 -12 -50 -39 -69 -59
l-34 -35 -39 32 c-74 60 -89 67 -158 67 l-64 0 -58 -62 c-95 -103 -121 -169
-174 -443 -18 -97 -18 -271 1 -325 8 -23 31 -64 50 -90 19 -26 46 -72 59 -102
26 -58 73 -106 136 -138 69 -35 188 -21 229 26 l23 28 46 -55 c73 -86 282
-288 316 -306 17 -9 60 -41 96 -73 96 -83 161 -130 181 -130 10 0 21 -5 24
-11 4 -5 32 -21 63 -35 31 -14 64 -31 72 -39 9 -8 36 -21 61 -28 24 -8 61 -26
83 -40 21 -15 55 -32 75 -37 20 -6 45 -17 55 -25 11 -8 36 -15 55 -15 20 0 63
-7 96 -15 43 -10 121 -14 270 -14 185 0 223 3 315 23 58 14 119 29 135 35 17
6 55 17 85 26 30 9 73 28 95 42 22 15 65 43 95 63 30 20 73 44 96 54 66 29
188 177 235 286 6 14 21 46 35 73 13 26 24 54 24 63 0 13 6 15 33 10 17 -4 50
-9 72 -12 76 -10 84 -14 147 -78 63 -63 63 -63 133 -70 76 -7 102 -1 184 39
73 36 119 72 137 107 8 16 31 46 49 67 48 53 84 136 91 212 4 35 13 77 21 93
13 24 14 64 8 235 -5 143 -12 214 -21 233 -8 15 -14 40 -14 55 0 50 -29 111
-93 201 -84 116 -122 137 -257 137 -86 0 -100 -3 -147 -29 -29 -16 -66 -44
-83 -62 -20 -23 -40 -34 -58 -34 -15 0 -54 -8 -87 -18 l-60 -19 -27 41 c-14
23 -31 61 -38 86 -7 25 -20 56 -29 70 -10 14 -28 45 -40 70 -28 54 -119 169
-158 199 -15 12 -53 41 -83 66 -30 24 -98 65 -150 91 -52 25 -131 64 -175 85
-109 53 -208 69 -451 69 -105 0 -193 -2 -195 -4z"/>
</g>
</svg>
