<?xml version="1.0" standalone="no"?>
<!DOCTYPE svg PUBLIC "-//W3C//DTD SVG 20010904//EN"
 "http://www.w3.org/TR/2001/REC-SVG-20010904/DTD/svg10.dtd">
<svg version="1.0" xmlns="http://www.w3.org/2000/svg"
 width="512.000000pt" height="512.000000pt" viewBox="0 0 512.000000 512.000000"
 preserveAspectRatio="xMidYMid meet">
<metadata>
Created by potrace 1.13, written by Peter Selinger 2001-2015
</metadata>
<g transform="translate(0.000000,512.000000) scale(0.100000,-0.100000)"
fill="#000000" stroke="none">
<path d="M2185 4479 c-232 -18 -482 -62 -650 -115 -94 -30 -229 -94 -267 -129
-44 -38 -78 -95 -78 -130 0 -49 72 -143 123 -161 14 -4 8 -13 -36 -44 -124
-89 -175 -214 -128 -315 l18 -40 -95 -99 -95 -98 -121 -2 c-103 -2 -133 -7
-205 -31 -206 -70 -369 -235 -437 -441 -25 -78 -29 -104 -29 -209 0 -105 4
-131 29 -209 86 -262 325 -452 597 -473 43 -3 79 -9 79 -14 0 -4 31 -47 68
-96 92 -118 233 -249 362 -336 97 -65 350 -197 377 -197 7 0 21 -19 31 -43 45
-102 208 -178 477 -223 154 -26 486 -26 640 0 293 49 484 148 485 253 0 13 33
33 117 73 289 136 557 368 694 602 26 43 30 46 84 53 105 13 152 32 198 82 23
25 43 49 45 54 2 5 -8 34 -22 65 -25 55 -27 56 -59 51 -17 -4 -53 -13 -78 -21
l-46 -14 20 76 c15 61 20 112 20 242 1 195 -15 279 -88 453 -10 24 25 23 107
-3 78 -24 134 -26 142 -4 12 32 5 67 -19 96 -14 16 -25 40 -25 52 0 68 -85
106 -249 112 l-104 4 -52 62 c-29 35 -80 89 -113 122 l-60 58 19 42 c46 103
-4 227 -128 316 -44 31 -50 40 -36 44 51 18 123 112 123 161 0 35 -34 92 -78
130 -38 35 -173 99 -267 129 -324 102 -842 149 -1290 115z m-1368 -1381 c-100
-246 -111 -299 -111 -508 1 -143 4 -178 26 -258 l25 -94 -46 7 c-200 30 -352
195 -368 400 -19 246 178 461 426 464 39 1 52 -2 48 -11z"/>
</g>
</svg>
