<?xml version="1.0" standalone="no"?>
<!DOCTYPE svg PUBLIC "-//W3C//DTD SVG 20010904//EN"
 "http://www.w3.org/TR/2001/REC-SVG-20010904/DTD/svg10.dtd">
<svg version="1.0" xmlns="http://www.w3.org/2000/svg"
 width="512.000000pt" height="512.000000pt" viewBox="0 0 512.000000 512.000000"
 preserveAspectRatio="xMidYMid meet">
<metadata>
Created by potrace 1.13, written by Peter Selinger 2001-2015
</metadata>
<g transform="translate(0.000000,512.000000) scale(0.100000,-0.100000)"
fill="#000000" stroke="none">
<path d="M2305 4704 c-376 -25 -620 -80 -620 -139 0 -31 93 -72 214 -93 105
-18 105 -18 72 -32 -50 -20 -91 -59 -91 -85 0 -14 13 -34 32 -50 26 -22 30
-30 20 -43 -407 -580 -556 -1522 -377 -2393 80 -392 252 -785 434 -990 l41
-47 -20 -43 c-24 -53 -25 -88 -5 -137 42 -98 182 -179 390 -224 35 -7 127 -13
220 -13 216 0 373 37 492 114 70 46 97 74 118 123 21 52 19 87 -9 142 l-24 48
53 67 c201 248 365 663 436 1100 l23 140 47 31 c254 164 412 701 358 1220 -35
342 -151 633 -307 771 -81 71 -135 94 -227 94 -84 0 -128 -16 -201 -72 l-32
-24 -37 53 c-24 32 -33 54 -26 56 28 9 71 55 71 76 0 28 -32 59 -87 84 l-43
19 100 17 c115 20 205 60 205 91 0 48 -149 92 -413 121 -132 15 -673 26 -807
18z m1415 -758 c57 -37 123 -132 161 -229 136 -352 87 -867 -104 -1082 l-44
-49 -6 159 c-17 414 -103 830 -232 1120 l-24 55 29 20 c45 32 72 40 127 37 36
-3 64 -12 93 -31z"/>
</g>
</svg>
