<?xml version="1.0" standalone="no"?>
<!DOCTYPE svg PUBLIC "-//W3C//DTD SVG 20010904//EN"
 "http://www.w3.org/TR/2001/REC-SVG-20010904/DTD/svg10.dtd">
<svg version="1.0" xmlns="http://www.w3.org/2000/svg"
 width="512.000000pt" height="512.000000pt" viewBox="0 0 512.000000 512.000000"
 preserveAspectRatio="xMidYMid meet">
<metadata>
Created by potrace 1.13, written by Peter Selinger 2001-2015
</metadata>
<g transform="translate(0.000000,512.000000) scale(0.100000,-0.100000)"
fill="#000000" stroke="none">
<path d="M2400 4444 c-19 -2 -84 -9 -145 -15 -433 -43 -837 -202 -959 -377
-66 -95 -71 -167 -22 -283 5 -12 -11 -27 -68 -63 -181 -113 -372 -288 -495
-456 -75 -101 -171 -294 -203 -405 l-23 -81 -31 31 c-25 26 -32 42 -37 94 -11
99 -46 237 -71 273 -12 18 -30 33 -41 33 -45 0 -89 -125 -117 -335 -16 -125
-16 -585 0 -710 48 -361 140 -443 201 -181 12 49 24 117 28 152 5 53 11 68 39
95 l32 33 26 -84 c103 -328 373 -649 731 -865 443 -268 1054 -400 1610 -350
250 23 520 81 721 155 144 53 364 163 478 239 55 36 102 66 106 66 3 0 15 -38
27 -84 57 -220 148 -366 228 -366 35 0 84 38 118 92 l34 52 -39 36 c-25 24
-38 46 -38 63 0 38 44 83 103 105 l51 20 18 68 c107 424 137 1173 72 1774 -60
558 -197 911 -339 876 -67 -17 -139 -132 -190 -301 -15 -50 -30 -100 -33 -111
-7 -21 -13 -18 -112 48 -58 38 -104 75 -103 81 1 7 9 30 17 52 101 266 -303
525 -955 611 -108 14 -543 27 -619 18z m668 -229 c348 -50 537 -152 467 -252
l-15 -21 -58 22 c-388 152 -1048 178 -1499 60 -151 -40 -143 -39 -143 -16 0
96 250 188 602 222 137 13 513 5 646 -15z"/>
</g>
</svg>
