<?xml version="1.0" standalone="no"?>
<!DOCTYPE svg PUBLIC "-//W3C//DTD SVG 20010904//EN"
 "http://www.w3.org/TR/2001/REC-SVG-20010904/DTD/svg10.dtd">
<svg version="1.0" xmlns="http://www.w3.org/2000/svg"
 width="512.000000pt" height="512.000000pt" viewBox="0 0 512.000000 512.000000"
 preserveAspectRatio="xMidYMid meet">
<metadata>
Created by potrace 1.13, written by Peter Selinger 2001-2015
</metadata>
<g transform="translate(0.000000,512.000000) scale(0.100000,-0.100000)"
fill="#000000" stroke="none">
<path d="M2220 3629 c-535 -43 -1017 -199 -1362 -441 -13 -10 -21 -6 -43 20
-16 19 -36 32 -50 32 -26 0 -65 -41 -85 -91 -14 -33 -14 -33 -32 72 -21 121
-62 214 -93 214 -48 0 -91 -145 -122 -420 -13 -114 -17 -234 -17 -500 0 -266
4 -386 17 -500 31 -275 74 -420 122 -420 31 0 71 90 91 205 l17 100 19 -43
c25 -55 56 -87 84 -87 21 0 67 43 76 71 2 7 24 -2 56 -26 l53 -37 -24 -32
c-56 -73 -72 -117 -72 -201 0 -92 23 -146 94 -227 138 -156 429 -272 771 -307
519 -54 1056 104 1220 358 l31 47 140 23 c437 71 852 235 1100 436 l67 53 48
-24 c55 -28 90 -30 142 -9 98 42 179 182 224 390 7 35 13 127 13 220 0 216
-37 373 -114 492 -46 70 -74 97 -123 118 -49 20 -84 19 -137 -5 l-43 -20 -47
41 c-117 104 -355 236 -562 313 -423 156 -962 225 -1459 185z m-808 -2064
c283 -99 611 -157 963 -172 l159 -6 -49 -44 c-257 -228 -931 -243 -1224 -28
-86 63 -116 112 -116 190 0 50 5 69 27 103 l28 41 55 -24 c30 -14 101 -41 157
-60z"/>
</g>
</svg>
