<?xml version="1.0" standalone="no"?>
<!DOCTYPE svg PUBLIC "-//W3C//DTD SVG 20010904//EN"
 "http://www.w3.org/TR/2001/REC-SVG-20010904/DTD/svg10.dtd">
<svg version="1.0" xmlns="http://www.w3.org/2000/svg"
 width="512.000000pt" height="512.000000pt" viewBox="0 0 512.000000 512.000000"
 preserveAspectRatio="xMidYMid meet">
<metadata>
Created by potrace 1.13, written by Peter Selinger 2001-2015
</metadata>
<g transform="translate(0.000000,512.000000) scale(0.100000,-0.100000)"
fill="#000000" stroke="none">
<path d="M2390 4114 c-248 -28 -382 -59 -496 -114 -113 -54 -156 -110 -139
-177 9 -39 72 -95 137 -123 l54 -24 -91 -91 c-266 -263 -344 -614 -210 -955
28 -72 34 -106 44 -228 31 -389 152 -743 335 -980 24 -32 51 -64 60 -71 15
-12 12 -17 -24 -48 -50 -43 -52 -71 -6 -111 43 -37 117 -66 233 -89 124 -25
452 -25 576 0 163 33 267 88 267 142 0 22 -52 77 -81 87 -7 2 7 28 40 69 192
236 320 600 352 1001 10 122 16 156 44 228 133 339 56 691 -206 952 l-87 86
73 36 c275 136 119 313 -345 391 -90 15 -451 28 -530 19z"/>
</g>
</svg>
