<?xml version="1.0" standalone="no"?>
<!DOCTYPE svg PUBLIC "-//W3C//DTD SVG 20010904//EN"
 "http://www.w3.org/TR/2001/REC-SVG-20010904/DTD/svg10.dtd">
<svg version="1.0" xmlns="http://www.w3.org/2000/svg"
 width="512.000000pt" height="512.000000pt" viewBox="0 0 512.000000 512.000000"
 preserveAspectRatio="xMidYMid meet">
<metadata>
Created by potrace 1.13, written by Peter Selinger 2001-2015
</metadata>
<g transform="translate(0.000000,512.000000) scale(0.100000,-0.100000)"
fill="#000000" stroke="none">
<path d="M2138 4425 c-51 -49 -70 -95 -83 -200 -7 -54 -10 -58 -53 -84 -234
-137 -466 -405 -602 -694 -40 -84 -60 -117 -73 -117 -105 -1 -204 -192 -253
-485 -26 -154 -26 -486 0 -640 45 -270 124 -438 226 -479 22 -9 40 -21 40 -28
0 -28 131 -280 197 -378 87 -129 218 -270 336 -362 49 -37 92 -68 96 -68 5 0
11 -36 14 -79 21 -272 211 -511 474 -597 77 -25 103 -29 208 -29 105 0 131 4
208 29 207 68 372 231 442 437 24 72 29 102 31 205 l2 121 98 95 99 95 40 -18
c101 -47 226 4 315 128 31 44 40 50 44 36 18 -51 112 -123 161 -123 35 0 92
34 130 78 35 38 99 173 129 267 167 527 167 1413 0 1940 -30 94 -94 229 -129
267 -38 44 -95 78 -130 78 -49 0 -143 -72 -161 -123 -4 -14 -13 -8 -44 36 -89
124 -213 174 -316 128 l-42 -19 -58 60 c-33 33 -87 84 -122 113 l-62 52 -4
104 c-6 164 -44 249 -112 249 -12 0 -36 11 -52 25 -29 24 -64 31 -96 19 -22
-8 -20 -64 4 -142 26 -82 27 -117 3 -107 -174 73 -258 89 -453 88 -130 0 -181
-5 -242 -20 l-76 -20 14 46 c8 25 17 61 21 78 5 31 3 34 -48 58 -30 14 -58 25
-64 25 -5 0 -31 -21 -57 -45z m969 -3677 c-13 -172 -119 -317 -277 -380 -78
-31 -232 -31 -310 0 -144 57 -252 192 -275 343 l-7 46 94 -25 c80 -22 115 -25
258 -26 186 0 279 17 425 78 44 19 84 35 89 35 5 1 6 -31 3 -71z"/>
</g>
</svg>
