<?xml version="1.0" standalone="no"?>
<!DOCTYPE svg PUBLIC "-//W3C//DTD SVG 20010904//EN"
 "http://www.w3.org/TR/2001/REC-SVG-20010904/DTD/svg10.dtd">
<svg version="1.0" xmlns="http://www.w3.org/2000/svg"
 width="512.000000pt" height="512.000000pt" viewBox="0 0 512.000000 512.000000"
 preserveAspectRatio="xMidYMid meet">
<metadata>
Created by potrace 1.13, written by Peter Selinger 2001-2015
</metadata>
<g transform="translate(0.000000,512.000000) scale(0.100000,-0.100000)"
fill="#000000" stroke="none">
<path d="M1990 3531 c-175 -38 -317 -117 -452 -252 l-86 -87 -36 73 c-37 75
-79 120 -122 131 -114 29 -212 -146 -270 -481 -25 -141 -25 -539 0 -680 49
-285 129 -458 222 -481 61 -15 131 40 174 138 l24 54 91 -91 c263 -266 614
-344 955 -210 72 28 106 34 228 44 389 31 743 152 980 335 32 24 64 51 71 60
12 15 17 12 48 -24 43 -50 71 -52 111 -6 37 43 66 117 89 233 25 124 25 452 0
576 -33 163 -88 267 -142 267 -22 0 -77 -52 -87 -81 -2 -7 -28 7 -69 40 -236
192 -600 320 -1001 352 -122 10 -156 16 -228 44 -165 65 -337 80 -500 46z"/>
</g>
</svg>
