<?xml version="1.0" standalone="no"?>
<!DOCTYPE svg PUBLIC "-//W3C//DTD SVG 20010904//EN"
 "http://www.w3.org/TR/2001/REC-SVG-20010904/DTD/svg10.dtd">
<svg version="1.0" xmlns="http://www.w3.org/2000/svg"
 width="512.000000pt" height="512.000000pt" viewBox="0 0 512.000000 512.000000"
 preserveAspectRatio="xMidYMid meet">
<metadata>
Created by potrace 1.13, written by Peter Selinger 2001-2015
</metadata>
<g transform="translate(0.000000,512.000000) scale(0.100000,-0.100000)"
fill="#000000" stroke="none">
<path d="M2780 3531 c-47 -10 -119 -32 -160 -49 -63 -25 -98 -32 -218 -41
-400 -32 -765 -160 -1001 -352 -41 -33 -67 -47 -69 -40 -10 29 -65 81 -87 81
-54 0 -109 -104 -142 -267 -25 -124 -25 -452 0 -576 23 -116 52 -190 89 -233
40 -46 68 -44 111 6 31 36 36 39 48 24 7 -9 39 -36 71 -60 237 -183 591 -304
980 -335 122 -10 156 -16 228 -44 341 -134 692 -56 955 210 l91 91 24 -54 c13
-31 40 -72 60 -93 134 -141 266 30 336 436 25 141 25 539 0 680 -49 285 -129
458 -222 481 -62 16 -119 -28 -170 -131 l-36 -73 -86 87 c-221 221 -512 313
-802 252z"/>
</g>
</svg>
