<?xml version="1.0" standalone="no"?>
<!DOCTYPE svg PUBLIC "-//W3C//DTD SVG 20010904//EN"
 "http://www.w3.org/TR/2001/REC-SVG-20010904/DTD/svg10.dtd">
<svg version="1.0" xmlns="http://www.w3.org/2000/svg"
 width="512.000000pt" height="512.000000pt" viewBox="0 0 512.000000 512.000000"
 preserveAspectRatio="xMidYMid meet">
<metadata>
Created by potrace 1.13, written by Peter Selinger 2001-2015
</metadata>
<g transform="translate(0.000000,512.000000) scale(0.100000,-0.100000)"
fill="#000000" stroke="none">
<path d="M2290 4444 c-19 -2 -84 -9 -145 -15 -258 -25 -548 -103 -722 -193
-232 -120 -333 -273 -277 -421 8 -22 16 -45 17 -52 1 -6 -45 -43 -103 -81 -99
-66 -105 -69 -112 -48 -3 11 -18 61 -33 111 -51 169 -123 284 -190 301 -201
50 -375 -663 -375 -1541 0 -402 44 -856 108 -1109 l18 -68 51 -20 c59 -22 103
-67 103 -105 0 -17 -13 -39 -38 -63 l-39 -36 34 -52 c34 -54 83 -92 118 -92
80 0 171 146 228 366 12 46 24 84 27 84 4 0 51 -30 106 -66 322 -214 746 -353
1199 -394 306 -28 636 0 951 80 503 128 916 384 1179 732 84 111 173 280 211
403 l26 84 32 -33 c28 -27 34 -42 39 -95 11 -99 46 -237 71 -273 12 -18 30
-33 41 -33 45 0 89 125 117 335 16 125 16 585 0 710 -48 361 -140 443 -201
181 -12 -49 -24 -117 -28 -152 -5 -52 -12 -68 -37 -94 l-31 -31 -23 81 c-32
111 -128 304 -203 405 -123 168 -314 343 -495 456 -57 36 -73 51 -68 63 37 87
42 140 20 204 -75 210 -445 385 -957 453 -108 14 -543 27 -619 18z m528 -229
c290 -41 482 -124 482 -207 0 -23 8 -24 -143 16 -451 118 -1111 92 -1499 -60
l-58 -22 -15 21 c-79 113 172 227 587 267 137 13 513 5 646 -15z"/>
</g>
</svg>
