<?xml version="1.0" standalone="no"?>
<!DOCTYPE svg PUBLIC "-//W3C//DTD SVG 20010904//EN"
 "http://www.w3.org/TR/2001/REC-SVG-20010904/DTD/svg10.dtd">
<svg version="1.0" xmlns="http://www.w3.org/2000/svg"
 width="512.000000pt" height="512.000000pt" viewBox="0 0 512.000000 512.000000"
 preserveAspectRatio="xMidYMid meet">
<metadata>
Created by potrace 1.13, written by Peter Selinger 2001-2015
</metadata>
<g transform="translate(0.000000,512.000000) scale(0.100000,-0.100000)"
fill="#000000" stroke="none">
<path d="M2310 3629 c-302 -24 -613 -90 -869 -185 -207 -77 -445 -209 -562
-313 l-47 -41 -43 20 c-53 24 -88 25 -137 5 -98 -42 -179 -182 -224 -390 -7
-35 -13 -127 -13 -220 0 -216 37 -373 114 -492 46 -70 74 -97 123 -118 52 -21
87 -19 142 9 l48 24 67 -53 c248 -201 663 -365 1100 -436 l140 -23 31 -47
c164 -254 701 -412 1220 -358 342 35 633 151 771 307 71 81 94 135 94 227 0
84 -16 128 -72 201 l-24 32 53 37 c32 24 54 33 56 26 9 -28 55 -71 76 -71 28
0 59 32 84 87 l19 43 17 -100 c20 -115 60 -205 91 -205 48 0 91 145 122 420
24 212 24 788 0 1000 -31 275 -74 420 -122 420 -31 0 -72 -93 -93 -214 -18
-105 -18 -105 -32 -72 -20 50 -59 91 -85 91 -14 0 -34 -13 -50 -32 -22 -26
-30 -30 -43 -20 -474 332 -1215 500 -1952 441z m1661 -2068 c66 -199 -229
-379 -651 -398 -279 -12 -548 59 -685 180 l-49 44 159 6 c413 17 840 105 1117
231 l53 24 22 -27 c13 -14 28 -41 34 -60z"/>
</g>
</svg>
