<?xml version="1.0" standalone="no"?>
<!DOCTYPE svg PUBLIC "-//W3C//DTD SVG 20010904//EN"
 "http://www.w3.org/TR/2001/REC-SVG-20010904/DTD/svg10.dtd">
<svg version="1.0" xmlns="http://www.w3.org/2000/svg"
 width="512.000000pt" height="512.000000pt" viewBox="0 0 512.000000 512.000000"
 preserveAspectRatio="xMidYMid meet">
<metadata>
Created by potrace 1.13, written by Peter Selinger 2001-2015
</metadata>
<g transform="translate(0.000000,512.000000) scale(0.100000,-0.100000)"
fill="#000000" stroke="none">
<path d="M2232 4759 c-709 -43 -1200 -197 -1158 -364 17 -67 132 -139 301
-190 50 -15 100 -30 111 -33 21 -7 18 -13 -48 -112 -38 -58 -75 -104 -81 -103
-7 1 -30 9 -52 17 -273 104 -535 -321 -617 -999 -17 -144 -17 -576 0 -720 65
-535 243 -923 459 -1001 64 -22 117 -17 204 20 12 5 27 -11 63 -68 113 -181
288 -372 456 -495 101 -75 294 -171 405 -203 l81 -23 -31 -31 c-26 -25 -42
-32 -94 -37 -99 -11 -237 -46 -273 -71 -18 -12 -33 -30 -33 -41 0 -45 125 -89
335 -117 125 -16 585 -16 710 0 361 48 443 140 181 201 -49 12 -117 24 -152
28 -53 5 -68 11 -95 39 l-33 32 84 26 c115 36 286 124 387 198 462 341 763
944 828 1663 35 385 -25 848 -155 1201 -53 144 -163 364 -239 478 -36 55 -66
102 -66 106 0 3 38 15 84 27 220 57 366 148 366 228 0 35 -38 84 -92 118 l-52
34 -36 -39 c-24 -25 -46 -38 -63 -38 -38 0 -83 44 -105 103 l-20 51 -68 18
c-341 86 -984 128 -1492 97z m-1075 -1224 l21 -15 -22 -58 c-152 -388 -178
-1048 -60 -1499 40 -151 39 -143 16 -143 -83 0 -165 190 -209 487 -24 166 -24
590 0 756 53 355 154 542 254 472z"/>
</g>
</svg>
