<?xml version="1.0" standalone="no"?>
<!DOCTYPE svg PUBLIC "-//W3C//DTD SVG 20010904//EN"
 "http://www.w3.org/TR/2001/REC-SVG-20010904/DTD/svg10.dtd">
<svg version="1.0" xmlns="http://www.w3.org/2000/svg"
 width="512.000000pt" height="512.000000pt" viewBox="0 0 512.000000 512.000000"
 preserveAspectRatio="xMidYMid meet">
<metadata>
Created by potrace 1.13, written by Peter Selinger 2001-2015
</metadata>
<g transform="translate(0.000000,512.000000) scale(0.100000,-0.100000)"
fill="#000000" stroke="none">
<path d="M2122 4759 c-260 -16 -564 -56 -726 -97 l-68 -18 -20 -51 c-22 -59
-67 -103 -105 -103 -17 0 -39 13 -63 38 l-36 39 -52 -34 c-54 -34 -92 -83 -92
-118 0 -80 146 -171 366 -228 46 -12 84 -24 84 -27 0 -4 -30 -51 -66 -106
-214 -322 -353 -746 -394 -1199 -28 -306 0 -636 80 -951 129 -509 394 -931
748 -1192 101 -74 272 -162 387 -198 l84 -26 -33 -32 c-27 -28 -42 -34 -95
-39 -99 -11 -237 -46 -273 -71 -18 -12 -33 -30 -33 -41 0 -45 125 -89 335
-117 125 -16 585 -16 710 0 361 48 443 140 181 201 -49 12 -117 24 -152 28
-52 5 -68 12 -94 37 l-31 31 81 23 c111 32 304 128 405 203 168 123 343 314
456 495 36 57 51 73 63 68 87 -37 140 -42 204 -20 216 78 394 466 459 1001 7
64 13 214 13 360 0 356 -34 602 -120 862 -126 383 -318 570 -510 497 -22 -8
-45 -16 -52 -17 -6 -1 -43 45 -81 103 -66 99 -69 105 -48 112 11 3 61 18 111
33 169 51 284 123 301 190 35 142 -318 279 -876 339 -317 35 -727 44 -1048 25z
m1937 -1235 c65 -54 122 -223 158 -461 24 -166 24 -590 0 -756 -44 -297 -126
-487 -209 -487 -23 0 -24 -8 16 143 118 451 92 1111 -60 1499 l-22 58 21 15
c31 22 61 18 96 -11z"/>
</g>
</svg>
