<?xml version="1.0" standalone="no"?>
<!DOCTYPE svg PUBLIC "-//W3C//DTD SVG 20010904//EN"
 "http://www.w3.org/TR/2001/REC-SVG-20010904/DTD/svg10.dtd">
<svg version="1.0" xmlns="http://www.w3.org/2000/svg"
 width="512.000000pt" height="512.000000pt" viewBox="0 0 512.000000 512.000000"
 preserveAspectRatio="xMidYMid meet">
<metadata>
Created by potrace 1.13, written by Peter Selinger 2001-2015
</metadata>
<g transform="translate(0.000000,512.000000) scale(0.100000,-0.100000)"
fill="#000000" stroke="none">
<path d="M2215 4704 c-376 -25 -620 -80 -620 -139 0 -31 90 -71 205 -91 l100
-17 -43 -19 c-55 -25 -87 -56 -87 -84 0 -21 43 -67 71 -76 7 -2 -2 -24 -26
-56 l-37 -53 -32 24 c-73 56 -117 72 -201 72 -92 0 -146 -23 -227 -94 -156
-138 -272 -429 -307 -771 -54 -519 104 -1056 358 -1220 l47 -31 23 -140 c71
-437 235 -852 436 -1100 l53 -67 -24 -48 c-28 -55 -30 -90 -9 -142 42 -98 182
-179 390 -224 79 -17 361 -17 440 0 155 34 291 97 352 163 28 31 53 90 53 126
0 15 -9 48 -20 72 l-20 43 41 47 c182 205 354 598 434 990 179 871 30 1813
-377 2393 -10 13 -6 21 20 43 19 16 32 36 32 50 0 26 -41 65 -91 85 -33 14
-33 14 72 32 121 21 214 62 214 93 0 48 -149 92 -413 121 -132 15 -673 26
-807 18z m-606 -757 l40 -27 -24 -55 c-129 -290 -215 -706 -232 -1120 l-6
-159 -44 49 c-206 232 -244 796 -78 1140 89 183 224 251 344 172z"/>
</g>
</svg>
