<?xml version="1.0" standalone="no"?>
<!DOCTYPE svg PUBLIC "-//W3C//DTD SVG 20010904//EN"
 "http://www.w3.org/TR/2001/REC-SVG-20010904/DTD/svg10.dtd">
<svg version="1.0" xmlns="http://www.w3.org/2000/svg"
 width="464.000000pt" height="276.000000pt" viewBox="0 0 464.000000 276.000000"
 preserveAspectRatio="xMidYMid meet">
<metadata>
Created by potrace 1.13, written by Peter Selinger 2001-2015
</metadata>
<g transform="translate(0.000000,276.000000) scale(0.100000,-0.100000)"
fill="#000000" stroke="none">
<path d="M1390 2129 c-521 -33 -626 -42 -647 -55 -34 -21 -49 -61 -57 -144
-10 -103 -10 -786 -1 -1050 10 -277 15 -289 132 -296 38 -2 127 -8 198 -13 72
-6 240 -15 375 -22 l245 -11 56 24 c51 23 58 30 87 92 18 37 32 70 32 73 0 3
11 30 25 59 14 29 30 63 35 76 18 44 56 101 70 109 8 4 59 11 113 17 l98 9 43
46 43 47 79 1 c43 0 176 2 294 4 118 2 422 4 675 4 253 0 485 5 515 10 64 10
78 24 148 148 7 13 26 30 41 38 39 19 42 35 24 94 -20 60 -75 136 -122 168
-39 27 21 25 -1008 24 -686 -1 -685 -1 -759 54 -25 19 -47 24 -115 29 -111 6
-166 16 -177 30 -16 19 -92 272 -92 305 0 45 -23 94 -55 119 -31 25 -65 26
-295 11z"/>
</g>
</svg>
