<?xml version="1.0" standalone="no"?>
<!DOCTYPE svg PUBLIC "-//W3C//DTD SVG 20010904//EN"
 "http://www.w3.org/TR/2001/REC-SVG-20010904/DTD/svg10.dtd">
<svg version="1.0" xmlns="http://www.w3.org/2000/svg"
 width="406.000000pt" height="259.000000pt" viewBox="0 0 406.000000 259.000000"
 preserveAspectRatio="xMidYMid meet">
<metadata>
Created by potrace 1.13, written by Peter Selinger 2001-2015
</metadata>
<g transform="translate(0.000000,259.000000) scale(0.100000,-0.100000)"
fill="#000000" stroke="none">
<path d="M995 2165 c-17 -16 -25 -35 -25 -57 0 -30 -5 -36 -42 -53 -30 -15
-45 -29 -53 -52 -13 -40 -27 -54 -67 -67 -31 -11 -39 -21 -71 -97 -13 -30 -23
-38 -60 -49 -25 -6 -58 -25 -73 -41 -15 -15 -39 -31 -53 -34 -40 -9 -100 -51
-190 -136 l-81 -77 0 -88 c-1 -49 -5 -123 -10 -164 -15 -129 -1 -154 145 -251
88 -58 238 -176 244 -191 1 -5 21 -20 42 -34 21 -13 50 -42 64 -63 13 -22 37
-47 53 -56 16 -10 40 -36 54 -60 25 -42 27 -42 93 -47 90 -8 128 4 153 46 11
19 37 42 57 51 20 10 42 30 50 45 8 15 48 49 90 75 69 43 82 47 143 48 57 2
73 6 104 31 30 22 54 30 110 36 68 8 73 10 114 54 l42 46 98 0 c55 -1 221 -7
369 -15 149 -8 376 -19 505 -25 129 -5 330 -14 445 -21 235 -12 245 -10 284
47 13 19 41 48 61 64 62 49 57 98 -21 191 -64 76 -92 92 -192 105 -82 12 -91
15 -133 54 -52 47 -80 60 -136 60 -28 0 -51 -8 -74 -25 -38 -29 -56 -31 -90
-8 -20 13 -58 17 -179 21 -147 4 -155 4 -190 -18 -34 -21 -42 -22 -84 -12 -89
22 -121 24 -170 11 -43 -11 -55 -10 -88 4 -21 9 -56 19 -78 23 -60 10 -93 31
-109 68 -20 48 -42 58 -83 38 -45 -21 -63 -9 -84 53 -14 45 -19 50 -65 66 -27
10 -66 18 -86 18 -39 1 -88 19 -88 32 0 12 -55 39 -78 39 -22 0 -132 58 -132
70 0 4 -24 24 -54 44 -46 30 -54 41 -60 75 -5 33 -13 44 -51 67 -24 16 -50 42
-57 58 -43 104 -157 158 -213 101z"/>
</g>
</svg>
