<?xml version="1.0" standalone="no"?>
<!DOCTYPE svg PUBLIC "-//W3C//DTD SVG 20010904//EN"
 "http://www.w3.org/TR/2001/REC-SVG-20010904/DTD/svg10.dtd">
<svg version="1.0" xmlns="http://www.w3.org/2000/svg"
 width="440.000000pt" height="256.000000pt" viewBox="0 0 440.000000 256.000000"
 preserveAspectRatio="xMidYMid meet">
<metadata>
Created by potrace 1.13, written by Peter Selinger 2001-2015
</metadata>
<g transform="translate(0.000000,256.000000) scale(0.100000,-0.100000)"
fill="#000000" stroke="none">
<path d="M1220 2123 c-163 -16 -343 -68 -489 -140 -76 -38 -109 -62 -177 -129
-45 -46 -89 -93 -98 -106 -8 -13 -37 -87 -65 -166 -48 -133 -51 -148 -51 -237
0 -95 21 -201 54 -270 109 -229 104 -221 196 -308 70 -67 107 -93 182 -130
157 -76 387 -122 580 -115 146 5 217 33 298 118 79 83 126 190 154 350 9 53
20 89 31 96 18 14 132 19 665 33 360 10 366 10 410 34 37 21 64 26 155 30 61
3 124 10 140 16 43 14 195 43 230 44 63 0 221 -20 242 -31 12 -7 31 -12 43
-12 22 0 107 40 151 71 14 10 37 21 51 24 39 10 62 39 50 62 -20 37 -112 113
-167 138 l-56 26 -97 -20 c-140 -29 -221 -35 -257 -20 -36 15 -124 26 -300 37
-97 6 -139 13 -165 27 -33 18 -58 19 -435 16 -318 -2 -405 -6 -427 -17 -33
-17 -53 -18 -70 -1 -30 27 -78 57 -93 57 -29 0 -74 30 -89 59 -8 15 -31 76
-50 134 -41 123 -65 166 -130 225 -98 90 -232 124 -416 105z"/>
</g>
</svg>
