<?xml version="1.0" standalone="no"?>
<!DOCTYPE svg PUBLIC "-//W3C//DTD SVG 20010904//EN"
 "http://www.w3.org/TR/2001/REC-SVG-20010904/DTD/svg10.dtd">
<svg version="1.0" xmlns="http://www.w3.org/2000/svg"
 width="422.000000pt" height="266.000000pt" viewBox="0 0 422.000000 266.000000"
 preserveAspectRatio="xMidYMid meet">
<metadata>
Created by potrace 1.13, written by Peter Selinger 2001-2015
</metadata>
<g transform="translate(0.000000,266.000000) scale(0.100000,-0.100000)"
fill="#000000" stroke="none">
<path d="M1070 1976 c-102 -30 -142 -53 -232 -130 -64 -55 -184 -187 -212
-234 -4 -7 -23 -92 -41 -188 -30 -159 -32 -181 -23 -252 14 -103 74 -242 131
-301 23 -24 88 -85 145 -137 92 -83 110 -96 170 -113 37 -11 112 -24 168 -30
100 -10 102 -10 230 25 71 19 137 37 146 40 28 8 197 149 259 215 68 71 88 74
138 20 45 -48 70 -61 116 -61 52 0 72 14 100 70 13 27 33 51 43 55 11 3 190
-6 398 -19 209 -14 478 -26 599 -28 l220 -3 60 28 c83 38 150 85 169 119 10
17 19 61 23 112 l6 85 -64 67 c-110 115 -106 114 -488 114 -254 0 -372 5 -540
21 -138 13 -244 19 -293 15 -75 -6 -78 -6 -82 16 -3 13 -8 36 -11 52 -3 16
-19 41 -35 57 -23 23 -37 29 -72 29 -48 0 -76 -16 -121 -67 -31 -35 -61 -42
-91 -20 -9 7 -41 51 -69 97 -47 76 -64 94 -162 167 -154 116 -218 147 -361
178 -65 14 -126 25 -134 24 -8 0 -49 -10 -90 -23z"/>
</g>
</svg>
