<?xml version="1.0" standalone="no"?>
<!DOCTYPE svg PUBLIC "-//W3C//DTD SVG 20010904//EN"
 "http://www.w3.org/TR/2001/REC-SVG-20010904/DTD/svg10.dtd">
<svg version="1.0" xmlns="http://www.w3.org/2000/svg"
 width="400.000000pt" height="259.000000pt" viewBox="0 0 400.000000 259.000000"
 preserveAspectRatio="xMidYMid meet">
<metadata>
Created by potrace 1.13, written by Peter Selinger 2001-2015
</metadata>
<g transform="translate(0.000000,259.000000) scale(0.100000,-0.100000)"
fill="#000000" stroke="none">
<path d="M1000 2005 c-119 -33 -292 -148 -421 -282 -94 -97 -98 -102 -125
-189 -24 -76 -29 -109 -32 -226 l-4 -138 52 -111 c84 -185 235 -386 322 -430
116 -59 187 -76 353 -83 149 -7 172 -5 370 26 171 26 214 36 231 53 11 11 41
79 67 150 26 72 53 141 60 155 l13 25 155 0 154 0 50 32 c28 17 76 36 110 43
33 6 79 18 103 26 42 16 43 15 76 -9 50 -39 157 -51 293 -32 59 8 126 20 148
26 35 9 47 7 95 -15 45 -21 70 -26 136 -26 l82 0 68 53 c38 30 95 70 127 90
47 30 57 42 57 64 0 40 -31 85 -113 168 -67 67 -76 73 -136 85 -66 14 -61 14
-184 -23 -33 -10 -43 -8 -80 10 -23 11 -64 26 -92 33 -27 7 -67 18 -87 23 -52
15 -190 -5 -225 -33 -35 -27 -69 -25 -139 9 -32 16 -82 38 -110 49 -29 11 -68
32 -88 47 -36 28 -38 28 -100 17 -85 -16 -218 -15 -238 1 -33 25 -96 145 -103
193 -15 106 -57 138 -258 203 l-97 31 -223 -1 c-142 -1 -238 -6 -267 -14z"/>
</g>
</svg>
