<?xml version="1.0" standalone="no"?>
<!DOCTYPE svg PUBLIC "-//W3C//DTD SVG 20010904//EN"
 "http://www.w3.org/TR/2001/REC-SVG-20010904/DTD/svg10.dtd">
<svg version="1.0" xmlns="http://www.w3.org/2000/svg"
 width="434.000000pt" height="221.000000pt" viewBox="0 0 434.000000 221.000000"
 preserveAspectRatio="xMidYMid meet">
<metadata>
Created by potrace 1.13, written by Peter Selinger 2001-2015
</metadata>
<g transform="translate(0.000000,221.000000) scale(0.100000,-0.100000)"
fill="#000000" stroke="none">
<path d="M1596 1649 c-60 -5 -123 -13 -140 -18 -17 -5 -56 -12 -86 -16 -131
-14 -385 -88 -400 -115 -5 -10 -36 -26 -67 -35 -99 -29 -141 -45 -178 -71 -20
-13 -40 -24 -45 -24 -13 0 -89 -69 -101 -92 -19 -35 -28 -128 -30 -302 l-1
-174 38 -47 c22 -25 62 -59 89 -75 52 -29 215 -89 380 -139 33 -10 116 -26
126 -23 3 0 28 -5 55 -12 27 -7 58 -10 69 -6 23 8 43 3 66 -17 10 -9 57 -15
139 -19 85 -4 133 -11 154 -21 37 -19 314 -35 358 -20 37 12 90 80 132 168 42
87 87 128 160 144 41 9 55 18 73 46 51 81 162 159 225 159 13 0 39 -11 58 -23
31 -21 45 -24 135 -22 91 1 104 4 139 28 48 34 73 34 138 1 41 -21 59 -24 97
-19 28 3 64 0 91 -8 40 -12 51 -11 100 6 87 29 137 63 165 111 14 24 34 51 45
61 40 36 18 90 -53 128 -42 22 -45 22 -624 27 l-582 5 -33 31 c-18 18 -47 39
-65 48 -21 11 -35 28 -43 53 -12 37 -54 120 -99 194 -12 20 -39 49 -61 64 -38
27 -46 28 -178 31 -75 1 -186 -2 -246 -7z"/>
</g>
</svg>
