<?xml version="1.0" standalone="no"?>
<!DOCTYPE svg PUBLIC "-//W3C//DTD SVG 20010904//EN"
 "http://www.w3.org/TR/2001/REC-SVG-20010904/DTD/svg10.dtd">
<svg version="1.0" xmlns="http://www.w3.org/2000/svg"
 width="438.000000pt" height="248.000000pt" viewBox="0 0 438.000000 248.000000"
 preserveAspectRatio="xMidYMid meet">
<metadata>
Created by potrace 1.13, written by Peter Selinger 2001-2015
</metadata>
<g transform="translate(0.000000,248.000000) scale(0.100000,-0.100000)"
fill="#000000" stroke="none">
<path d="M1575 1919 c-82 -4 -202 -12 -265 -17 -668 -58 -717 -67 -740 -125
-52 -135 -67 -299 -33 -375 28 -63 39 -236 31 -482 -5 -150 -4 -243 3 -280 6
-30 17 -90 23 -133 7 -43 19 -84 27 -92 22 -22 109 -35 238 -35 64 0 211 -7
326 -15 116 -8 304 -15 418 -15 237 -1 291 9 368 65 64 46 74 85 60 236 -6 62
-11 138 -11 167 0 46 3 54 24 63 21 10 35 6 93 -22 89 -44 184 -52 225 -20 15
12 32 37 38 56 9 29 18 37 53 46 35 9 51 8 92 -6 36 -12 71 -15 120 -12 39 3
156 10 260 16 500 29 673 41 705 51 19 6 82 10 140 8 65 -1 113 3 126 10 66
36 110 143 101 248 -6 81 -38 145 -90 185 l-42 31 -95 -9 c-52 -4 -183 -9
-290 -9 -420 -3 -745 -14 -820 -29 -163 -33 -250 -22 -320 39 -14 12 -41 27
-61 34 -31 11 -41 9 -85 -11 -68 -33 -138 -51 -168 -43 -45 11 -54 40 -66 219
-12 188 -24 222 -84 251 -36 17 -54 17 -301 5z"/>
</g>
</svg>
