<?xml version="1.0" standalone="no"?>
<!DOCTYPE svg PUBLIC "-//W3C//DTD SVG 20010904//EN"
 "http://www.w3.org/TR/2001/REC-SVG-20010904/DTD/svg10.dtd">
<svg version="1.0" xmlns="http://www.w3.org/2000/svg"
 width="479.000000pt" height="253.000000pt" viewBox="0 0 479.000000 253.000000"
 preserveAspectRatio="xMidYMid meet">
<metadata>
Created by potrace 1.13, written by Peter Selinger 2001-2015
</metadata>
<g transform="translate(0.000000,253.000000) scale(0.100000,-0.100000)"
fill="#000000" stroke="none">
<path d="M1695 2309 c-308 -17 -443 -43 -593 -114 -77 -36 -222 -132 -222
-146 0 -4 -33 -43 -73 -86 -82 -88 -170 -216 -216 -314 -85 -179 -103 -515
-41 -734 61 -216 238 -451 443 -590 97 -65 265 -131 384 -150 218 -35 569 -5
780 66 49 17 102 34 120 40 37 11 90 61 104 96 5 13 9 87 9 164 0 124 3 150
30 245 16 59 35 113 41 120 9 11 45 14 148 14 131 0 138 1 176 26 22 15 49 35
60 45 22 20 325 129 359 129 12 0 37 -11 56 -24 56 -37 75 -40 120 -14 l40 23
39 -22 c32 -18 56 -23 113 -23 68 0 76 2 117 35 24 19 47 35 50 35 3 0 35 -5
70 -10 60 -8 70 -7 140 20 90 35 109 36 161 10 22 -11 49 -20 60 -20 24 0 280
227 280 248 0 28 -269 242 -305 242 -6 0 -28 -9 -50 -20 -54 -27 -75 -25 -164
14 -64 29 -89 35 -156 37 -136 3 -255 -13 -299 -40 -31 -20 -52 -24 -103 -23
-50 0 -72 -5 -106 -24 -60 -34 -102 -31 -199 16 -46 21 -99 42 -119 45 -20 3
-54 19 -75 36 l-39 31 -140 -7 c-154 -8 -208 0 -249 38 -14 12 -55 76 -91 143
l-65 121 0 89 c0 93 -11 125 -64 182 -48 53 -83 62 -243 61 -81 -1 -211 -6
-288 -10z"/>
</g>
</svg>
