<?xml version="1.0" standalone="no"?>
<!DOCTYPE svg PUBLIC "-//W3C//DTD SVG 20010904//EN"
 "http://www.w3.org/TR/2001/REC-SVG-20010904/DTD/svg10.dtd">
<svg version="1.0" xmlns="http://www.w3.org/2000/svg"
 width="416.000000pt" height="264.000000pt" viewBox="0 0 416.000000 264.000000"
 preserveAspectRatio="xMidYMid meet">
<metadata>
Created by potrace 1.13, written by Peter Selinger 2001-2015
</metadata>
<g transform="translate(0.000000,264.000000) scale(0.100000,-0.100000)"
fill="#000000" stroke="none">
<path d="M1532 1999 c-8 -9 -42 -14 -100 -16 -48 0 -100 -6 -115 -12 -16 -6
-90 -14 -165 -18 -88 -4 -160 -13 -202 -25 -36 -10 -96 -27 -134 -38 -45 -12
-74 -26 -85 -41 -28 -40 -54 -112 -56 -159 -2 -25 -8 -72 -15 -105 -7 -34 -12
-142 -12 -250 0 -305 3 -388 18 -417 8 -15 14 -47 14 -72 0 -25 6 -50 13 -56
41 -34 130 -85 176 -101 30 -11 64 -25 75 -32 12 -8 35 -19 51 -25 205 -74
195 -72 312 -72 193 0 325 51 372 143 11 23 36 85 56 137 45 123 75 153 169
169 40 7 101 9 154 5 83 -6 89 -5 126 20 22 14 55 27 75 28 20 1 54 2 76 4 22
1 54 7 70 14 17 7 63 16 103 20 53 5 82 14 110 34 50 34 66 33 91 -9 20 -35
21 -35 90 -35 39 0 96 -7 128 -16 36 -10 108 -17 186 -19 119 -3 131 -1 173
21 25 13 50 21 56 18 21 -13 165 -22 235 -14 78 8 112 28 159 93 38 52 76 139
77 179 2 46 -43 97 -119 134 -48 24 -62 25 -340 34 -159 5 -494 15 -744 20
-498 12 -598 19 -651 44 -35 16 -81 82 -109 156 -71 185 -137 255 -254 267
-35 3 -55 1 -64 -8z"/>
</g>
</svg>
