<?xml version="1.0" standalone="no"?>
<!DOCTYPE svg PUBLIC "-//W3C//DTD SVG 20010904//EN"
 "http://www.w3.org/TR/2001/REC-SVG-20010904/DTD/svg10.dtd">
<svg version="1.0" xmlns="http://www.w3.org/2000/svg"
 width="460.000000pt" height="267.000000pt" viewBox="0 0 460.000000 267.000000"
 preserveAspectRatio="xMidYMid meet">
<metadata>
Created by potrace 1.13, written by Peter Selinger 2001-2015
</metadata>
<g transform="translate(0.000000,267.000000) scale(0.100000,-0.100000)"
fill="#000000" stroke="none">
<path d="M1210 2000 c-103 -14 -168 -39 -194 -73 -24 -32 -58 -147 -72 -242
-9 -68 -16 -79 -80 -121 -97 -65 -119 -91 -147 -179 -36 -115 -26 -171 51
-284 33 -48 74 -95 99 -112 60 -42 67 -59 59 -149 -6 -72 -5 -78 23 -122 27
-42 36 -48 108 -72 115 -38 426 -52 672 -30 102 9 185 21 202 29 20 11 34 33
54 84 38 101 83 137 220 179 28 8 30 12 30 58 l0 49 39 3 c22 2 166 -4 320
-12 155 -8 518 -18 808 -22 l527 -7 28 30 c15 17 40 38 56 48 15 9 27 24 27
33 0 8 -26 49 -59 91 -32 42 -68 95 -80 118 -11 23 -29 46 -39 51 -24 13 -239
-6 -273 -23 -42 -22 -70 -18 -104 15 -26 25 -46 33 -116 45 -128 23 -158 20
-235 -21 -46 -24 -74 -34 -90 -30 -13 4 -24 11 -24 16 0 22 -79 60 -155 75
-105 20 -137 19 -183 -5 -43 -23 -68 -18 -125 22 -26 18 -34 20 -61 10 -51
-19 -64 -15 -71 21 -16 80 -37 127 -58 132 -12 3 -75 16 -140 30 -65 13 -124
29 -132 35 -9 8 -15 31 -15 60 0 38 -8 59 -39 107 -68 105 -75 108 -306 132
-184 18 -265 25 -415 35 -30 2 -80 1 -110 -4z"/>
</g>
</svg>
