<?xml version="1.0" standalone="no"?>
<!DOCTYPE svg PUBLIC "-//W3C//DTD SVG 20010904//EN"
 "http://www.w3.org/TR/2001/REC-SVG-20010904/DTD/svg10.dtd">
<svg version="1.0" xmlns="http://www.w3.org/2000/svg"
 width="379.000000pt" height="230.000000pt" viewBox="0 0 379.000000 230.000000"
 preserveAspectRatio="xMidYMid meet">
<metadata>
Created by potrace 1.13, written by Peter Selinger 2001-2015
</metadata>
<g transform="translate(0.000000,230.000000) scale(0.100000,-0.100000)"
fill="#000000" stroke="none">
<path d="M1080 1885 c-119 -19 -274 -60 -334 -88 -28 -13 -71 -32 -96 -43 -25
-10 -58 -31 -75 -45 -16 -14 -42 -29 -56 -32 -27 -7 -62 -71 -89 -167 -7 -25
-19 -65 -26 -89 -20 -63 -29 -392 -14 -501 6 -47 15 -112 19 -145 9 -71 18
-89 63 -132 41 -39 228 -133 323 -163 125 -38 261 -60 374 -60 127 0 127 0
213 113 55 72 69 99 110 220 25 76 53 149 62 162 l16 25 793 0 c579 1 807 4
849 13 44 9 69 23 112 60 31 27 56 54 56 62 0 27 -40 106 -57 112 -10 3 -39
29 -64 57 l-46 51 -94 8 c-112 9 -136 9 -214 1 -59 -5 -61 -5 -119 40 -85 67
-126 65 -225 -11 -38 -29 -51 -33 -103 -33 -58 0 -61 2 -104 45 l-43 45 -85 0
c-62 0 -95 -5 -127 -20 -56 -25 -110 -25 -151 0 -18 11 -49 20 -68 20 -63 0
-123 24 -141 56 -14 26 -22 30 -77 34 -33 3 -67 11 -73 17 -15 15 -80 122
-109 179 -20 40 -50 75 -126 145 -77 71 -138 85 -274 64z"/>
</g>
</svg>
