<?xml version="1.0" standalone="no"?>
<!DOCTYPE svg PUBLIC "-//W3C//DTD SVG 20010904//EN"
 "http://www.w3.org/TR/2001/REC-SVG-20010904/DTD/svg10.dtd">
<svg version="1.0" xmlns="http://www.w3.org/2000/svg"
 width="460.000000pt" height="268.000000pt" viewBox="0 0 460.000000 268.000000"
 preserveAspectRatio="xMidYMid meet">
<metadata>
Created by potrace 1.13, written by Peter Selinger 2001-2015
</metadata>
<g transform="translate(0.000000,268.000000) scale(0.100000,-0.100000)"
fill="#000000" stroke="none">
<path d="M1195 2121 c-11 -5 -44 -25 -74 -45 -29 -20 -61 -36 -72 -36 -21 0
-185 -109 -262 -173 -82 -68 -195 -184 -222 -227 -13 -21 -35 -44 -47 -51 -28
-14 -78 -60 -78 -71 0 -5 -11 -25 -24 -46 -21 -32 -25 -56 -35 -192 -14 -191
-5 -256 47 -359 28 -58 56 -94 121 -155 46 -45 128 -125 182 -178 88 -87 158
-138 189 -138 5 0 52 -20 104 -44 124 -59 154 -66 266 -66 77 0 106 5 153 24
138 57 260 169 387 356 76 112 91 127 140 152 32 17 105 38 175 52 127 26 155
43 155 91 0 28 33 71 69 90 36 18 300 65 369 65 51 0 57 -3 99 -45 42 -43 46
-45 101 -44 31 0 103 4 159 8 99 7 103 8 143 45 45 41 52 41 123 0 45 -26 105
-30 187 -14 34 6 54 18 80 48 19 22 45 45 57 51 12 6 99 16 195 21 195 12 250
26 329 80 96 66 120 126 76 191 -18 27 -39 40 -97 61 -87 31 -172 35 -265 13
-33 -8 -87 -15 -120 -15 -33 0 -76 -5 -95 -10 -19 -6 -86 -15 -148 -21 -62 -5
-125 -15 -140 -21 -15 -6 -88 -14 -162 -19 -74 -5 -160 -15 -190 -24 -30 -8
-89 -15 -130 -15 -41 0 -104 -7 -140 -16 -41 -9 -138 -17 -260 -21 l-195 -5
-42 31 c-24 17 -49 31 -56 31 -7 0 -21 6 -32 14 -12 8 -63 16 -124 19 -103 6
-104 7 -159 49 -53 41 -100 93 -221 241 -30 37 -90 93 -134 124 -44 32 -111
88 -148 124 -59 57 -74 67 -115 73 -60 8 -94 7 -119 -3z"/>
</g>
</svg>
