<?xml version="1.0" standalone="no"?>
<!DOCTYPE svg PUBLIC "-//W3C//DTD SVG 20010904//EN"
 "http://www.w3.org/TR/2001/REC-SVG-20010904/DTD/svg10.dtd">
<svg version="1.0" xmlns="http://www.w3.org/2000/svg"
 width="395.000000pt" height="232.000000pt" viewBox="0 0 395.000000 232.000000"
 preserveAspectRatio="xMidYMid meet">
<metadata>
Created by potrace 1.13, written by Peter Selinger 2001-2015
</metadata>
<g transform="translate(0.000000,232.000000) scale(0.100000,-0.100000)"
fill="#000000" stroke="none">
<path d="M889 1857 c-170 -116 -189 -133 -189 -169 0 -21 -12 -41 -45 -72 -38
-38 -45 -50 -45 -83 0 -41 -20 -67 -70 -93 -14 -7 -75 -46 -137 -86 -142 -93
-147 -101 -145 -249 1 -60 7 -125 13 -142 16 -49 80 -97 198 -147 176 -76 173
-74 192 -136 12 -43 24 -60 52 -79 26 -17 41 -37 53 -73 9 -29 24 -53 37 -59
12 -6 36 -27 53 -46 36 -41 78 -51 206 -52 75 -1 78 0 121 37 24 21 70 66 103
99 95 99 126 120 201 133 37 6 78 19 92 29 59 40 139 78 176 84 90 15 112 26
152 78 74 98 116 109 428 110 159 1 191 4 275 26 97 26 135 42 180 74 29 21
68 24 225 16 67 -3 125 -11 147 -21 88 -38 198 -6 277 79 l41 45 0 109 0 109
-39 35 c-29 26 -53 38 -88 43 -94 14 -1296 -29 -1423 -51 -47 -8 -108 -15
-136 -15 -46 0 -57 5 -113 50 -37 30 -72 50 -87 50 -59 0 -115 23 -141 56 -25
34 -26 34 -104 34 -71 0 -81 3 -111 28 -18 15 -45 33 -60 39 -27 12 -49 46
-62 93 -3 14 -21 34 -38 45 -18 11 -38 31 -45 45 -27 55 -87 66 -144 27z"/>
</g>
</svg>
