<?xml version="1.0" standalone="no"?>
<!DOCTYPE svg PUBLIC "-//W3C//DTD SVG 20010904//EN"
 "http://www.w3.org/TR/2001/REC-SVG-20010904/DTD/svg10.dtd">
<svg version="1.0" xmlns="http://www.w3.org/2000/svg"
 width="393.000000pt" height="261.000000pt" viewBox="0 0 393.000000 261.000000"
 preserveAspectRatio="xMidYMid meet">
<metadata>
Created by potrace 1.13, written by Peter Selinger 2001-2015
</metadata>
<g transform="translate(0.000000,261.000000) scale(0.100000,-0.100000)"
fill="#000000" stroke="none">
<path d="M1330 1831 c-115 -6 -130 -8 -185 -38 -109 -57 -269 -175 -371 -275
-127 -124 -157 -181 -173 -335 -16 -149 5 -280 64 -407 41 -88 50 -98 139
-175 63 -54 120 -94 170 -116 l75 -35 323 0 c325 0 384 5 420 37 10 9 39 55
64 102 79 146 119 199 162 212 20 6 92 14 160 16 l123 5 24 38 c34 53 108 100
160 100 55 0 130 -26 179 -61 32 -23 51 -29 92 -29 45 0 56 5 95 38 24 21 55
46 69 55 34 24 130 23 178 -2 43 -21 127 -41 178 -41 43 0 59 8 152 78 76 57
120 119 105 147 -13 23 -149 134 -178 145 -58 22 -168 1 -240 -47 -44 -29
-120 0 -192 73 -40 40 -46 43 -118 49 -94 9 -120 4 -181 -35 -26 -16 -59 -30
-72 -30 -13 0 -72 27 -132 61 -60 33 -126 65 -147 70 -21 5 -89 9 -151 9
l-114 0 -32 33 c-21 20 -41 57 -55 100 -15 45 -39 87 -72 127 -54 64 -33 54
-269 126 -25 8 -63 13 -85 12 -22 -1 -96 -4 -165 -7z"/>
</g>
</svg>
