<?xml version="1.0" standalone="no"?>
<!DOCTYPE svg PUBLIC "-//W3C//DTD SVG 20010904//EN"
 "http://www.w3.org/TR/2001/REC-SVG-20010904/DTD/svg10.dtd">
<svg version="1.0" xmlns="http://www.w3.org/2000/svg"
 width="420.000000pt" height="224.000000pt" viewBox="0 0 420.000000 224.000000"
 preserveAspectRatio="xMidYMid meet">
<metadata>
Created by potrace 1.13, written by Peter Selinger 2001-2015
</metadata>
<g transform="translate(0.000000,224.000000) scale(0.100000,-0.100000)"
fill="#000000" stroke="none">
<path d="M939 1739 c-179 -26 -369 -156 -459 -312 -52 -91 -94 -265 -94 -392
0 -83 39 -208 84 -270 16 -22 39 -57 50 -78 11 -20 25 -37 30 -37 5 0 35 -24
67 -54 63 -58 205 -127 305 -147 29 -6 70 -15 92 -19 44 -10 193 13 238 36 59
30 264 158 291 180 28 23 33 24 222 24 l193 0 42 47 c48 55 74 72 111 73 14 0
54 11 88 25 34 14 93 30 131 34 37 5 99 21 136 36 51 20 76 25 103 20 20 -3
77 -8 126 -10 50 -1 118 -8 153 -14 44 -9 73 -9 100 -2 60 17 83 13 147 -26
l60 -38 143 -3 c182 -5 219 0 273 43 24 18 80 52 125 74 105 52 110 58 94 118
-16 55 -120 217 -150 233 -26 14 -1497 34 -1768 24 l-184 -6 -44 48 c-24 26
-47 59 -50 73 -10 49 -29 76 -100 147 -146 145 -338 205 -555 173z"/>
</g>
</svg>
