<?xml version="1.0" standalone="no"?>
<!DOCTYPE svg PUBLIC "-//W3C//DTD SVG 20010904//EN"
 "http://www.w3.org/TR/2001/REC-SVG-20010904/DTD/svg10.dtd">
<svg version="1.0" xmlns="http://www.w3.org/2000/svg"
 width="412.000000pt" height="275.000000pt" viewBox="0 0 412.000000 275.000000"
 preserveAspectRatio="xMidYMid meet">
<metadata>
Created by potrace 1.13, written by Peter Selinger 2001-2015
</metadata>
<g transform="translate(0.000000,275.000000) scale(0.100000,-0.100000)"
fill="#000000" stroke="none">
<path d="M1290 2074 c-63 -7 -169 -17 -235 -23 -66 -5 -174 -17 -240 -26 -120
-16 -120 -16 -157 -56 -67 -73 -119 -291 -143 -599 -20 -260 -19 -354 6 -518
28 -189 30 -194 89 -226 55 -30 132 -45 626 -126 295 -48 303 -48 370 -35 57
12 74 20 97 47 58 69 77 106 111 218 31 101 40 120 75 153 l40 37 90 0 c88 0
90 0 111 30 l21 30 372 0 c205 0 453 -5 551 -10 156 -9 185 -8 221 5 34 13 55
14 122 6 70 -9 91 -8 148 8 76 21 86 29 109 89 19 49 20 100 5 174 -23 116
-42 134 -185 170 -99 25 -256 32 -929 44 l-359 6 -56 28 c-30 15 -88 33 -127
40 -41 7 -79 20 -86 29 -17 20 -83 222 -92 278 -4 27 -27 75 -62 128 -52 80
-58 86 -106 100 -62 18 -223 18 -387 -1z"/>
</g>
</svg>
