<?xml version="1.0" standalone="no"?>
<!DOCTYPE svg PUBLIC "-//W3C//DTD SVG 20010904//EN"
 "http://www.w3.org/TR/2001/REC-SVG-20010904/DTD/svg10.dtd">
<svg version="1.0" xmlns="http://www.w3.org/2000/svg"
 width="415.000000pt" height="248.000000pt" viewBox="0 0 415.000000 248.000000"
 preserveAspectRatio="xMidYMid meet">
<metadata>
Created by potrace 1.13, written by Peter Selinger 2001-2015
</metadata>
<g transform="translate(0.000000,248.000000) scale(0.100000,-0.100000)"
fill="#000000" stroke="none">
<path d="M1295 2014 c-16 -2 -140 -8 -275 -14 -333 -14 -452 -25 -493 -45 -48
-22 -67 -66 -67 -152 0 -37 -7 -101 -17 -141 -16 -70 -16 -76 1 -124 16 -45
17 -95 17 -515 0 -289 4 -473 10 -487 30 -64 119 -77 587 -83 397 -5 432 -2
447 35 4 10 15 71 26 137 23 149 35 192 57 204 9 5 80 21 157 36 180 33 167
28 190 77 l20 43 450 6 c248 4 626 8 841 8 370 2 392 3 423 22 49 30 64 76 65
201 1 126 -9 147 -92 190 l-53 27 -827 -2 c-778 -2 -828 -1 -845 16 -11 11
-15 25 -11 41 9 38 -25 66 -73 59 -37 -5 -207 11 -237 23 -25 10 -34 56 -40
206 -5 162 -16 197 -66 223 -27 14 -111 18 -195 9z"/>
</g>
</svg>
