<?xml version="1.0" standalone="no"?>
<!DOCTYPE svg PUBLIC "-//W3C//DTD SVG 20010904//EN"
 "http://www.w3.org/TR/2001/REC-SVG-20010904/DTD/svg10.dtd">
<svg version="1.0" xmlns="http://www.w3.org/2000/svg"
 width="394.000000pt" height="216.000000pt" viewBox="0 0 394.000000 216.000000"
 preserveAspectRatio="xMidYMid meet">
<metadata>
Created by potrace 1.13, written by Peter Selinger 2001-2015
</metadata>
<g transform="translate(0.000000,216.000000) scale(0.100000,-0.100000)"
fill="#000000" stroke="none">
<path d="M837 1656 c-92 -46 -175 -90 -183 -97 -8 -6 -39 -57 -68 -113 -131
-245 -139 -515 -25 -786 49 -115 53 -121 107 -160 37 -26 68 -40 88 -40 18 0
38 -8 48 -19 28 -31 157 -90 222 -102 73 -14 223 -5 283 16 24 8 68 35 97 60
29 25 57 45 63 45 21 0 83 65 107 112 14 27 38 57 54 67 16 9 38 29 49 43 19
23 27 25 109 27 86 1 89 0 138 -34 27 -19 54 -35 61 -35 21 0 74 52 91 89 l17
36 110 9 c61 4 134 8 164 7 58 -1 76 7 135 53 36 29 43 31 126 31 93 0 116 -9
122 -48 2 -18 10 -22 48 -24 25 -2 61 -8 81 -14 31 -10 39 -8 72 14 22 15 59
27 92 32 53 6 57 5 92 -25 34 -30 40 -32 87 -26 28 3 77 6 108 6 l56 0 99 100
c54 55 102 111 107 124 19 48 -87 189 -155 206 -19 5 -61 16 -94 25 -50 13
-147 16 -569 20 -398 4 -536 8 -630 21 -83 11 -163 15 -254 12 l-134 -5 -9 25
c-5 13 -18 36 -29 50 -11 13 -20 32 -20 40 0 12 -85 114 -160 193 -24 25 -117
89 -129 89 -6 0 -36 12 -68 27 -53 25 -70 28 -198 30 l-140 3 -168 -84z"/>
</g>
</svg>
