<?xml version="1.0" standalone="no"?>
<!DOCTYPE svg PUBLIC "-//W3C//DTD SVG 20010904//EN"
 "http://www.w3.org/TR/2001/REC-SVG-20010904/DTD/svg10.dtd">
<svg version="1.0" xmlns="http://www.w3.org/2000/svg"
 width="411.000000pt" height="250.000000pt" viewBox="0 0 411.000000 250.000000"
 preserveAspectRatio="xMidYMid meet">
<metadata>
Created by potrace 1.13, written by Peter Selinger 2001-2015
</metadata>
<g transform="translate(0.000000,250.000000) scale(0.100000,-0.100000)"
fill="#000000" stroke="none">
<path d="M1315 1983 c-284 -63 -460 -123 -705 -240 -195 -93 -195 -93 -209
-286 -21 -280 -6 -662 27 -700 24 -28 96 -64 236 -119 219 -86 333 -117 535
-143 l183 -24 82 25 c44 14 87 31 94 38 21 21 42 116 42 196 0 132 25 147 258
162 109 6 190 16 232 29 45 13 123 22 250 29 103 6 223 19 270 29 52 12 124
19 185 19 70 0 111 5 137 16 29 13 47 14 89 6 66 -13 195 -13 218 -1 12 7 32
5 61 -5 33 -11 64 -14 120 -8 l75 6 122 127 c67 69 122 132 123 138 0 7 -14
44 -31 83 -26 56 -40 76 -77 100 l-45 30 -241 0 c-133 0 -295 5 -361 10 -79 6
-188 6 -320 -1 -174 -10 -223 -9 -371 7 l-171 17 -66 -23 c-55 -19 -69 -21
-81 -10 -9 7 -16 20 -16 29 0 38 -25 51 -145 76 -177 37 -165 27 -165 141 0
88 -3 101 -31 154 -27 50 -38 61 -81 79 -49 20 -163 27 -223 14z"/>
</g>
</svg>
