<?xml version="1.0" standalone="no"?>
<!DOCTYPE svg PUBLIC "-//W3C//DTD SVG 20010904//EN"
 "http://www.w3.org/TR/2001/REC-SVG-20010904/DTD/svg10.dtd">
<svg version="1.0" xmlns="http://www.w3.org/2000/svg"
 width="441.000000pt" height="209.000000pt" viewBox="0 0 441.000000 209.000000"
 preserveAspectRatio="xMidYMid meet">
<metadata>
Created by potrace 1.13, written by Peter Selinger 2001-2015
</metadata>
<g transform="translate(0.000000,209.000000) scale(0.100000,-0.100000)"
fill="#000000" stroke="none">
<path d="M3715 1685 c-88 -7 -230 -18 -315 -24 -85 -6 -249 -18 -365 -26 -115
-9 -316 -24 -445 -35 -239 -19 -434 -32 -775 -50 -246 -13 -449 -27 -605 -41
-204 -17 -210 -18 -335 -23 -136 -5 -262 -27 -309 -53 -21 -12 -42 -40 -63
-83 -39 -79 -40 -106 -13 -337 26 -224 47 -471 49 -562 1 -81 17 -120 63 -154
21 -16 51 -22 135 -28 294 -21 813 -40 1020 -37 l231 3 43 30 c36 25 48 44 79
120 20 50 54 126 74 170 22 47 51 139 71 223 18 79 39 150 46 158 17 20 158
19 207 -2 48 -21 192 -25 215 -6 21 18 77 129 77 154 0 11 11 23 25 28 14 5
54 34 90 65 75 63 101 68 184 35 52 -20 85 -19 192 10 31 9 47 7 91 -11 42
-16 75 -21 158 -21 104 -1 107 0 180 38 68 35 81 38 143 36 65 -3 68 -2 105
34 20 20 56 52 80 71 51 43 52 55 12 159 -44 113 -52 126 -89 151 -38 26 -32
25 -256 8z"/>
</g>
</svg>
