<?xml version="1.0" standalone="no"?>
<!DOCTYPE svg PUBLIC "-//W3C//DTD SVG 20010904//EN"
 "http://www.w3.org/TR/2001/REC-SVG-20010904/DTD/svg10.dtd">
<svg version="1.0" xmlns="http://www.w3.org/2000/svg"
 width="318.000000pt" height="248.000000pt" viewBox="0 0 318.000000 248.000000"
 preserveAspectRatio="xMidYMid meet">
<metadata>
Created by potrace 1.13, written by Peter Selinger 2001-2015
</metadata>
<g transform="translate(0.000000,248.000000) scale(0.100000,-0.100000)"
fill="#000000" stroke="none">
<path d="M2324 2466 c-66 -29 -111 -113 -169 -316 -41 -143 -57 -228 -53 -294
l3 -63 -36 10 -37 9 21 49 c20 47 20 51 5 77 -23 38 -62 51 -87 28 -11 -10
-21 -27 -23 -39 -2 -16 -7 -13 -23 19 -27 50 -74 67 -106 38 -18 -16 -20 -27
-15 -68 4 -38 3 -47 -6 -38 -13 13 -59 15 -96 6 -21 -6 -23 -11 -17 -48 8 -47
26 -72 61 -80 19 -5 24 -13 25 -41 1 -19 2 -40 3 -47 1 -17 45 -38 79 -38 17
0 27 -5 27 -14 0 -8 6 -27 14 -43 8 -15 24 -59 37 -98 28 -90 53 -125 86 -125
30 0 27 -20 -7 -37 -21 -10 -27 -5 -96 87 -41 55 -74 103 -74 107 0 4 -16 19
-36 33 -20 13 -32 26 -26 28 13 4 -1 65 -22 97 -9 14 -28 28 -41 31 -19 5 -24
11 -20 24 4 11 -4 29 -20 46 -15 16 -30 35 -35 43 -14 26 -58 -3 -79 -51 l-19
-43 -12 47 c-16 61 -42 88 -85 88 -64 0 -82 -61 -43 -147 43 -94 43 -88 1 -63
-55 32 -122 37 -152 11 -23 -20 -23 -23 -11 -60 13 -42 58 -71 108 -71 50 0
56 -15 12 -35 -67 -30 -101 -113 -62 -148 35 -32 96 -18 138 31 21 23 22 23
52 8 21 -11 58 -16 117 -16 47 0 85 -2 85 -5 0 -19 -32 -74 -54 -94 -14 -14
-26 -30 -26 -37 0 -7 -4 -14 -8 -16 -18 -7 -54 -71 -70 -125 l-18 -58 -54 -3
c-54 -3 -104 7 -167 34 -17 8 -40 14 -51 14 -11 0 -25 7 -32 15 -7 8 -27 15
-45 15 -18 0 -38 7 -45 15 -7 8 -25 15 -39 15 -15 0 -37 9 -49 21 -12 11 -30
19 -40 17 -10 -1 -30 5 -44 14 -14 9 -38 16 -54 16 -16 -1 -44 7 -62 16 -17 9
-44 15 -59 14 -16 -1 -53 4 -83 12 -40 10 -55 10 -58 1 -2 -6 -27 -11 -62 -11
-32 0 -62 -4 -65 -10 -3 -5 -18 -10 -33 -10 -15 0 -38 -7 -52 -15 -32 -18 -36
-20 -93 -41 -26 -9 -47 -22 -47 -29 0 -7 -10 -15 -23 -19 -28 -7 -124 -95
-144 -133 -77 -143 -113 -251 -113 -342 0 -58 27 -166 57 -225 50 -99 142
-199 178 -194 27 4 31 35 8 56 -68 61 -123 170 -130 257 -6 74 10 204 25 214
6 3 16 22 25 42 20 48 88 121 162 174 61 43 79 50 170 64 87 13 231 -1 250
-25 6 -7 29 -18 53 -24 23 -6 42 -16 42 -23 0 -7 20 -19 45 -26 25 -7 45 -19
45 -26 0 -8 16 -19 35 -26 19 -7 35 -16 35 -20 0 -4 14 -12 30 -19 17 -7 30
-18 30 -24 0 -6 20 -18 45 -25 25 -7 45 -17 45 -22 0 -5 20 -14 45 -21 25 -7
45 -18 45 -25 0 -8 14 -13 40 -13 29 0 40 -4 40 -15 0 -11 12 -15 45 -15 25 0
45 -4 45 -10 0 -5 22 -10 49 -10 46 0 54 -4 103 -51 29 -28 81 -70 115 -93 60
-41 62 -43 43 -59 -37 -31 -146 -43 -192 -20 -34 16 -90 17 -106 1 -22 -22
-14 -75 14 -97 15 -12 34 -21 43 -21 10 0 26 -7 37 -15 19 -14 19 -14 -1 -15
-28 -1 -52 -21 -65 -54 -17 -45 -13 -73 13 -80 34 -9 76 -7 98 5 19 9 19 9 10
-10 -6 -11 -11 -35 -11 -54 0 -29 5 -37 30 -47 38 -16 75 -2 92 35 14 31 25
32 34 3 3 -13 21 -36 38 -51 26 -23 38 -27 76 -25 l45 3 3 47 c3 39 -1 49 -20
62 -22 15 -21 16 33 16 59 0 79 11 79 46 0 36 -11 55 -39 66 l-26 10 35 13
c19 8 45 14 57 14 12 1 28 7 35 13 7 7 30 22 51 32 20 11 37 25 37 32 0 7 5
14 11 16 17 6 -6 112 -32 147 -20 27 -20 31 -6 45 9 9 29 16 45 16 16 0 35 7
42 15 9 11 22 14 42 10 20 -5 35 -1 54 14 15 12 34 21 42 21 22 0 112 60 147
97 16 18 34 33 40 33 6 0 16 12 22 28 7 15 25 41 40 57 33 36 73 106 73 129 0
9 7 19 15 23 13 4 14 15 9 50 -4 29 -2 53 6 69 12 21 18 23 54 18 23 -3 58
-10 80 -16 l38 -9 -26 -28 c-34 -35 -34 -73 0 -100 33 -26 54 -26 87 -1 l26
20 3 -22 c4 -29 57 -46 93 -30 21 10 25 18 25 55 0 24 -6 49 -12 56 -11 11 -9
11 11 1 29 -15 95 -8 116 13 23 23 19 83 -6 101 l-22 15 22 27 c11 15 21 35
21 45 0 21 -19 60 -35 71 -16 12 -54 9 -78 -7 -22 -14 -22 -13 -23 32 -1 55
-23 77 -69 68 -43 -8 -50 -20 -50 -80 0 -30 -3 -55 -7 -55 -12 0 -68 35 -68
43 0 4 -6 7 -12 7 -10 0 -13 24 -13 88 0 94 -14 127 -77 180 -37 31 -39 83 -4
101 50 27 90 188 61 248 -7 16 -21 46 -31 68 -15 34 -87 148 -104 165 -3 3
-16 27 -30 55 -27 55 -100 148 -139 180 -53 43 -122 55 -177 31z m-224 -778
c33 -2 46 -8 48 -20 2 -10 -3 -18 -10 -18 -7 0 -31 -9 -52 -21 -21 -11 -40
-18 -42 -16 -2 2 -7 26 -11 53 -5 42 -4 47 8 37 8 -6 35 -13 59 -15z"/>
</g>
</svg>
