<?xml version="1.0" standalone="no"?>
<!DOCTYPE svg PUBLIC "-//W3C//DTD SVG 20010904//EN"
 "http://www.w3.org/TR/2001/REC-SVG-20010904/DTD/svg10.dtd">
<svg version="1.0" xmlns="http://www.w3.org/2000/svg"
 width="494.000000pt" height="256.000000pt" viewBox="0 0 494.000000 256.000000"
 preserveAspectRatio="xMidYMid meet">
<metadata>
Created by potrace 1.13, written by Peter Selinger 2001-2015
</metadata>
<g transform="translate(0.000000,256.000000) scale(0.100000,-0.100000)"
fill="#000000" stroke="none">
<path d="M3628 2554 c-3 -3 -37 -10 -74 -15 -52 -7 -83 -19 -129 -48 -33 -21
-75 -45 -92 -52 -18 -8 -33 -17 -33 -21 0 -5 -4 -8 -10 -8 -25 0 -140 -62
-166 -89 -48 -50 -54 -59 -54 -81 0 -52 98 -90 283 -110 93 -10 180 -42 192
-69 10 -25 -5 -25 -88 2 -214 70 -576 122 -941 136 -427 16 -650 -1 -1079 -84
-30 -6 -37 -5 -37 9 0 9 -4 16 -10 16 -5 0 -10 9 -10 20 0 11 -6 20 -14 20 -8
0 -16 5 -18 12 -3 8 -33 14 -81 16 -69 4 -82 1 -140 -27 -35 -17 -78 -31 -95
-31 -17 0 -34 -4 -37 -10 -3 -5 -22 6 -42 25 -34 33 -41 35 -100 35 -61 0 -63
-1 -63 -25 0 -14 5 -25 11 -25 14 0 39 -25 39 -39 0 -6 -7 -11 -15 -11 -8 0
-15 4 -15 9 0 11 -108 41 -151 41 -19 0 -50 -4 -69 -9 -19 -5 -52 -12 -72 -16
-21 -3 -38 -11 -38 -16 0 -6 -7 -18 -16 -26 -33 -33 8 -113 56 -113 24 0 26
-3 22 -30 -3 -23 0 -30 12 -30 31 0 15 -18 -21 -24 -21 -3 -49 -12 -63 -19
-14 -7 -54 -23 -90 -36 -69 -25 -172 -89 -205 -128 -11 -13 -41 -47 -68 -75
-26 -28 -47 -57 -47 -64 0 -8 -4 -14 -10 -14 -5 0 -12 -17 -16 -37 -4 -21 -12
-41 -18 -45 -7 -5 -11 -57 -11 -151 0 -123 2 -146 17 -161 10 -10 18 -28 18
-41 0 -12 7 -25 15 -29 8 -3 15 -12 15 -21 0 -8 5 -15 10 -15 6 0 10 -7 10
-15 0 -9 7 -18 15 -21 8 -4 15 -11 15 -18 0 -6 8 -19 18 -28 9 -9 22 -23 28
-30 7 -7 28 -26 49 -43 20 -16 51 -42 68 -57 16 -15 40 -31 51 -34 12 -4 23
-10 26 -14 11 -14 223 -110 300 -135 30 -9 69 -23 85 -30 29 -12 138 -42 235
-64 107 -24 184 -42 243 -56 34 -8 106 -21 160 -30 178 -28 586 -113 618 -129
18 -9 39 -16 49 -16 9 0 20 -4 25 -9 6 -5 46 -22 90 -36 119 -40 208 -105 208
-151 0 -73 -123 -87 -290 -34 -34 11 -78 20 -98 20 -32 0 -36 -3 -33 -22 2
-18 18 -28 82 -49 184 -64 343 -61 412 6 30 29 34 39 34 85 0 28 -5 56 -10 63
-45 53 -61 68 -102 96 -26 17 -51 31 -57 31 -6 0 -11 5 -11 10 0 6 -4 10 -10
10 -5 0 -33 11 -62 24 -29 13 -73 30 -98 36 -25 7 -59 19 -77 26 -17 8 -40 14
-51 14 -12 0 -24 4 -27 10 -3 6 -15 10 -25 10 -10 0 -72 18 -137 40 -65 22
-161 52 -213 66 -52 14 -99 29 -104 35 -6 5 -23 9 -38 9 -15 0 -28 5 -28 10 0
6 -8 10 -17 10 -10 0 -61 14 -113 30 -52 16 -102 30 -112 30 -9 0 -18 3 -20 8
-1 4 -55 25 -118 46 -63 21 -152 56 -197 77 -45 22 -89 39 -97 39 -9 0 -16 5
-16 10 0 6 -7 10 -15 10 -8 0 -15 4 -15 9 0 5 -12 12 -27 16 -38 9 -143 77
-143 93 0 6 -7 12 -15 12 -8 0 -15 4 -15 8 0 8 -14 27 -52 72 -20 23 -17 142
4 164 10 10 18 22 18 27 0 14 95 109 109 109 6 0 11 4 11 9 0 5 11 12 25 15
14 4 25 11 25 16 0 6 5 10 11 10 5 0 36 12 67 26 165 75 431 71 556 -8 34 -22
64 -33 102 -36 43 -4 55 -8 60 -25 4 -12 20 -33 36 -47 16 -14 40 -35 53 -46
13 -12 45 -32 71 -45 27 -12 61 -34 75 -49 52 -49 81 -70 99 -70 12 0 20 -8
22 -22 2 -18 11 -24 37 -26 20 -2 37 2 43 10 11 17 0 77 -18 95 -22 23 -17 34
14 27 85 -18 156 -47 182 -74 16 -17 32 -30 35 -30 10 0 35 -28 35 -39 0 -7
24 -11 60 -11 57 0 60 1 60 24 0 35 -10 56 -26 56 -8 0 -14 4 -14 8 0 4 -14
16 -30 26 -17 9 -42 28 -57 42 -21 20 -23 24 -8 24 10 0 25 -9 34 -19 9 -10
36 -24 59 -30 25 -7 42 -18 42 -26 0 -10 10 -15 30 -15 20 0 30 5 30 15 0 8 5
15 10 15 20 0 9 32 -22 64 -21 21 -55 40 -90 52 -40 12 -58 23 -58 34 0 15 20
17 188 18 l188 1 -4 -29 c-2 -17 -8 -30 -13 -30 -4 0 -11 -21 -15 -47 -7 -50
-25 -72 -60 -73 -24 0 -64 -34 -64 -55 0 -7 3 -20 6 -29 8 -21 70 -22 78 -1 3
8 16 15 29 15 13 0 28 5 34 11 6 6 23 9 39 7 27 -3 29 -5 26 -43 -2 -22 -8
-41 -13 -43 -5 -2 -9 -17 -9 -34 l0 -31 63 7 c34 3 64 11 65 16 2 6 10 17 18
24 7 8 16 32 20 55 7 43 17 49 46 27 12 -8 18 -30 20 -72 l3 -59 35 -2 c58 -5
75 17 75 95 l0 68 30 -15 c17 -9 32 -20 34 -25 2 -4 12 -16 22 -24 11 -9 19
-24 19 -34 0 -14 8 -18 35 -18 19 0 35 5 35 10 0 6 7 10 15 10 11 0 15 11 15
36 0 38 -36 84 -66 84 -15 0 -17 7 -15 55 2 50 -11 59 -89 63 -65 4 -70 6 -64
24 15 48 29 53 112 46 91 -8 212 -23 302 -37 36 -6 176 -11 311 -11 194 0 256
3 289 15 23 8 54 15 68 15 31 0 92 -21 92 -32 0 -4 26 -20 58 -35 85 -40 141
-80 197 -139 62 -64 85 -95 85 -110 0 -7 7 -14 15 -18 29 -11 15 -21 -24 -18
-28 3 -48 -3 -75 -20 -32 -20 -36 -28 -36 -65 0 -42 0 -43 35 -43 23 0 35 5
35 14 0 15 30 26 72 26 25 0 27 -3 30 -52 3 -52 4 -53 37 -56 27 -3 39 2 58
24 12 15 23 35 23 46 0 13 8 18 30 18 28 0 30 -2 31 -42 1 -24 0 -53 -1 -65
-1 -21 3 -23 44 -23 39 0 46 3 46 20 0 13 9 22 25 26 20 5 25 13 25 38 1 28 2
29 14 14 7 -10 18 -18 25 -18 6 0 11 -4 11 -10 0 -5 11 -10 25 -10 16 0 25 -6
25 -15 0 -16 35 -20 64 -9 28 11 19 62 -16 97 -30 31 -31 32 -10 35 13 2 22
11 22 20 -1 49 -95 87 -155 62 -20 -8 -39 7 -75 60 -28 42 -127 136 -173 166
-26 16 -50 37 -53 47 -3 9 -10 17 -15 17 -5 0 -9 8 -9 18 0 28 -37 71 -130
153 -32 28 -34 31 -17 43 9 7 17 18 17 23 0 5 9 20 20 33 11 13 20 29 20 36 0
7 6 14 13 16 16 6 18 495 1 506 -6 4 -14 24 -18 45 -4 20 -11 37 -15 37 -5 0
-12 16 -15 35 -4 19 -11 35 -15 35 -5 0 -12 11 -15 25 -4 14 -11 25 -16 25 -6
0 -10 7 -10 15 0 21 -88 105 -110 105 -6 0 -10 5 -10 10 0 6 -7 10 -15 10 -8
0 -15 3 -15 8 0 7 -29 21 -110 56 -19 8 -65 19 -101 25 -68 11 -262 15 -271 5z
m-2961 -480 c16 -5 24 -17 29 -43 4 -20 12 -40 18 -44 8 -6 7 -10 -1 -14 -7
-2 -13 -11 -13 -19 0 -18 -11 -18 -36 1 -10 8 -38 15 -61 15 -34 0 -43 4 -43
18 0 35 12 59 38 75 30 18 37 19 69 11z"/>
</g>
</svg>
