<?xml version="1.0" standalone="no"?>
<!DOCTYPE svg PUBLIC "-//W3C//DTD SVG 20010904//EN"
 "http://www.w3.org/TR/2001/REC-SVG-20010904/DTD/svg10.dtd">
<svg version="1.0" xmlns="http://www.w3.org/2000/svg"
 width="418.000000pt" height="408.000000pt" viewBox="0 0 418.000000 408.000000"
 preserveAspectRatio="xMidYMid meet">
<metadata>
Created by potrace 1.13, written by Peter Selinger 2001-2015
</metadata>
<g transform="translate(0.000000,408.000000) scale(0.100000,-0.100000)"
fill="#000000" stroke="none">
<path d="M1591 3524 c-11 -8 -21 -12 -21 -7 -1 8 -24 -27 -25 -37 0 -3 -4 -11
-8 -17 -5 -7 -5 -13 0 -13 4 0 2 -4 -4 -8 -10 -7 -10 -12 1 -27 13 -18 14 -18
45 4 18 13 46 24 64 25 31 1 32 0 31 -39 -1 -21 -7 -41 -13 -43 -6 -2 -11 -8
-11 -14 0 -11 -29 -37 -42 -38 -4 0 -8 12 -10 27 -2 17 -13 33 -30 43 -25 14
-28 13 -42 -5 -11 -15 -12 -23 -3 -34 10 -11 8 -13 -8 -8 -100 32 -260 41
-314 19 -36 -14 -67 -23 -88 -24 -7 -1 -13 -6 -13 -11 0 -5 -6 -7 -14 -4 -8 3
-23 -3 -34 -13 -11 -10 -22 -17 -24 -15 -2 3 -22 -11 -43 -30 -22 -19 -44 -35
-48 -35 -8 0 -67 -57 -67 -65 0 -6 -28 -40 -61 -74 -14 -14 -24 -32 -21 -39 2
-6 0 -12 -6 -12 -5 0 -15 -18 -22 -40 -7 -22 -17 -40 -22 -40 -5 0 -8 -6 -6
-12 4 -22 -12 -68 -23 -68 -8 0 -7 -5 1 -15 8 -9 8 -15 2 -15 -6 0 -11 -8 -11
-17 0 -10 -3 -62 -6 -115 -4 -69 -1 -116 10 -165 9 -37 17 -76 18 -85 1 -10 5
-18 9 -18 4 0 5 -7 2 -15 -4 -8 -1 -15 6 -15 6 0 9 -4 6 -8 -3 -5 1 -20 9 -35
7 -14 11 -28 7 -31 -3 -3 1 -6 8 -6 7 0 11 -3 7 -6 -3 -4 0 -19 8 -34 8 -15
11 -30 8 -34 -4 -3 -2 -6 3 -6 6 0 19 -19 29 -42 10 -24 27 -51 36 -62 10 -10
16 -22 14 -26 -3 -4 4 -15 15 -25 11 -10 20 -24 20 -32 0 -7 5 -13 11 -13 5 0
8 -4 4 -9 -3 -6 3 -14 12 -20 10 -6 15 -11 10 -11 -4 0 -1 -10 8 -23 8 -13 12
-26 9 -29 -3 -4 4 -9 15 -13 12 -3 19 -11 16 -16 -4 -5 1 -12 9 -15 9 -3 16
-10 16 -16 0 -11 51 -81 63 -86 4 -2 7 -10 7 -18 0 -8 5 -14 11 -14 5 0 7 -5
4 -10 -3 -6 1 -13 9 -16 9 -3 13 -10 10 -15 -3 -5 2 -12 10 -15 9 -3 14 -10
11 -14 -3 -5 3 -13 12 -19 10 -6 14 -11 10 -11 -4 0 1 -10 13 -22 11 -12 20
-28 20 -35 0 -7 5 -13 10 -13 6 0 10 -7 10 -15 0 -8 5 -15 12 -15 6 0 8 -3 5
-7 -4 -3 0 -17 8 -30 9 -13 13 -23 10 -23 -4 0 1 -10 9 -22 9 -12 16 -32 16
-43 0 -12 5 -26 12 -33 7 -7 8 -12 4 -12 -5 0 -3 -7 4 -14 26 -32 33 -162 9
-177 -8 -5 -9 -9 -4 -9 16 -1 -23 -21 -50 -26 -18 -3 -35 5 -62 31 -20 19 -34
35 -29 35 4 0 0 7 -8 16 -9 8 -16 22 -16 30 0 8 -4 14 -10 14 -5 0 -10 7 -10
16 0 9 -9 25 -21 35 -16 14 -24 15 -34 6 -31 -29 72 -213 133 -239 15 -7 45
-12 67 -12 34 -1 46 5 84 42 25 25 44 54 45 68 0 13 4 24 8 24 9 0 -2 168 -12
178 -1 1 -4 11 -5 22 -1 11 -4 23 -5 28 -1 4 -2 10 -1 15 0 4 -2 7 -7 7 -9 0
-47 88 -44 103 1 4 -2 7 -8 7 -5 0 -10 7 -10 16 0 8 -7 22 -15 31 -8 8 -13 19
-9 24 3 5 -2 12 -10 15 -9 3 -13 10 -10 15 2 5 -1 19 -8 31 -7 13 -13 25 -13
28 -1 17 -29 70 -36 70 -5 0 -8 3 -7 8 0 4 -8 27 -20 52 -12 25 -22 51 -22 58
0 7 -7 15 -15 18 -8 4 -12 10 -10 15 3 5 -1 22 -10 39 -8 16 -15 33 -14 36 0
4 -3 10 -8 13 -8 5 -66 133 -69 151 0 3 -5 16 -11 30 -27 62 -43 107 -46 125
-2 11 -7 28 -11 37 -4 9 -5 21 -2 26 3 6 0 12 -7 15 -8 3 -13 16 -12 29 1 12
0 28 -4 33 -6 11 -8 21 -16 84 -3 26 0 50 6 58 9 10 8 13 0 13 -7 0 -9 5 -6
10 7 11 17 56 18 78 0 6 4 12 9 12 4 0 8 5 8 11 0 13 50 87 50 74 0 -6 6 -3
13 5 11 14 81 54 99 56 4 1 9 2 11 3 25 21 237 19 265 -2 6 -5 12 -6 12 -3 0
4 7 0 16 -8 8 -9 21 -16 29 -16 15 0 101 -81 97 -92 -1 -5 2 -8 6 -8 16 0 46
-67 49 -110 3 -32 11 -51 28 -67 22 -19 24 -25 14 -50 -14 -34 -18 -153 -6
-153 5 0 7 -6 4 -12 -2 -7 0 -25 4 -40 4 -16 4 -28 0 -28 -9 0 -7 -51 3 -68 4
-7 2 -12 -6 -12 -8 -1 -6 -6 6 -15 11 -8 15 -15 9 -15 -14 0 -24 -26 -17 -45
10 -25 44 -17 62 15 9 16 21 30 25 30 5 0 5 4 2 10 -3 5 -2 17 3 26 5 9 12 13
15 8 36 -61 50 -96 52 -131 2 -27 -1 -43 -9 -43 -7 0 -6 -3 2 -8 9 -6 10 -16
3 -34 -7 -19 -6 -28 8 -40 32 -27 41 -29 59 -12 14 14 17 33 15 96 -1 53 2 78
10 75 6 -2 11 -16 12 -33 0 -16 6 -39 13 -51 9 -17 9 -22 -1 -26 -9 -3 -8 -9
4 -21 14 -16 17 -15 43 5 15 12 25 23 22 26 -3 3 -1 16 5 30 6 17 4 34 -8 61
-15 34 -17 46 -14 72 2 20 22 9 58 -30 21 -22 42 -40 48 -40 5 0 30 -20 55
-43 25 -23 44 -41 42 -41 -2 1 -19 -14 -38 -34 -19 -19 -34 -31 -34 -27 0 4
-8 -1 -17 -12 -24 -26 -53 -36 -68 -23 -20 17 -74 -8 -81 -37 -6 -24 17 -55
24 -33 2 5 14 5 29 -1 14 -5 28 -7 31 -4 9 9 32 -17 32 -37 0 -10 -4 -17 -8
-14 -5 3 -15 -6 -22 -19 -7 -13 -16 -22 -20 -20 -4 2 -16 -6 -28 -20 -20 -23
-20 -24 -1 -41 10 -9 19 -14 19 -9 0 4 6 2 14 -4 10 -8 21 -7 45 5 17 8 31 20
31 25 0 6 4 8 9 4 5 -3 16 4 24 15 7 11 17 17 20 13 15 -14 5 -43 -28 -84 -20
-23 -34 -48 -30 -56 3 -8 5 -17 5 -19 0 -2 9 -4 19 -4 32 0 76 31 105 74 16
23 25 33 22 24 -3 -10 -1 -20 5 -23 5 -4 7 -18 3 -33 -3 -15 -6 -34 -6 -42 -1
-8 -6 -18 -11 -22 -6 -4 -4 -12 6 -22 9 -9 18 -12 22 -7 3 6 11 8 18 6 20 -7
52 47 52 91 1 29 9 51 27 72 32 38 28 60 -18 91 l-34 24 39 20 40 21 33 -35
c18 -19 32 -37 30 -41 -1 -5 2 -8 8 -8 5 0 10 -7 10 -15 0 -8 4 -15 8 -15 13
0 53 -36 47 -42 -3 -3 6 -17 20 -32 14 -15 25 -31 25 -37 0 -5 3 -9 8 -9 4 0
23 -15 42 -33 19 -17 55 -49 80 -69 25 -20 59 -48 75 -62 17 -14 35 -30 42
-36 7 -5 20 -11 30 -13 10 -1 24 -6 31 -10 6 -5 12 -5 12 -2 0 3 9 -3 21 -13
13 -13 22 -36 24 -63 2 -24 4 -44 5 -44 4 0 22 -122 22 -150 0 -5 -3 -32 -7
-60 -4 -27 -8 -58 -9 -67 0 -10 -4 -18 -9 -18 -4 0 -5 -4 -2 -10 3 -5 1 -10
-5 -10 -6 0 -10 -6 -9 -13 4 -33 -1 -41 -14 -23 -24 33 -117 24 -117 -11 0 -7
-4 -13 -10 -13 -15 0 -12 -26 4 -39 11 -9 15 -8 20 6 6 15 8 15 16 3 6 -8 10
-11 10 -6 0 5 9 1 20 -9 19 -18 19 -18 -11 -57 -40 -50 -34 -73 18 -63 20 3
42 13 50 21 22 21 49 -1 31 -25 -7 -9 -16 -20 -21 -26 -4 -5 -16 -21 -28 -34
-19 -25 -19 -25 0 -44 18 -19 20 -19 37 -3 9 9 22 15 29 12 7 -2 22 4 34 15
12 11 21 18 22 17 0 -2 1 -27 3 -56 2 -64 19 -80 54 -52 20 16 30 45 34 97 1
8 7 9 20 2 15 -8 20 -5 27 13 5 13 5 32 1 43 -8 21 -10 30 -10 44 0 5 -13 11
-28 14 -20 4 -28 12 -28 26 0 12 5 21 10 21 5 0 7 3 3 6 -3 3 -2 16 3 28 10
28 24 143 20 176 -5 51 2 120 12 120 7 0 23 59 20 73 -1 4 3 7 9 7 8 0 8 5 -1
15 -7 8 -9 15 -4 15 5 0 9 23 8 50 0 45 3 51 23 56 13 4 23 10 23 14 0 4 13
10 29 13 15 3 45 22 65 41 20 20 36 33 36 29 0 -3 11 7 25 23 14 16 25 32 25
35 0 3 21 27 46 55 26 27 58 64 73 83 14 19 36 45 49 57 12 13 22 28 22 34 0
12 39 71 54 81 5 4 5 12 2 18 -4 6 -2 11 4 11 7 0 10 7 6 15 -3 8 -1 15 4 15
5 0 12 11 16 25 3 14 10 25 15 25 5 0 6 7 3 15 -4 8 -1 15 6 15 6 0 9 4 6 9
-3 5 0 24 8 42 10 27 16 184 6 184 -1 0 -3 8 -5 17 -7 40 -27 88 -36 88 -5 0
-9 6 -9 14 0 8 -7 17 -16 20 -9 4 -14 9 -11 12 7 7 -3 17 -62 64 -24 19 -53
36 -63 37 -11 2 -26 10 -35 18 -8 8 -19 13 -24 10 -5 -4 -9 -2 -9 3 0 5 -12 8
-27 6 -46 -5 -93 -5 -188 -1 -97 5 -185 -14 -185 -39 0 -8 -4 -14 -9 -14 -5 0
-11 -9 -14 -20 -3 -11 -1 -20 4 -20 6 0 9 -6 7 -13 -4 -17 32 -88 52 -104 8
-7 11 -13 6 -13 -6 0 5 -11 24 -25 19 -14 30 -25 24 -25 -5 0 -2 -6 6 -13 8
-7 16 -23 16 -37 1 -14 3 -29 4 -35 6 -26 -1 -44 -15 -39 -8 3 -14 9 -13 12 1
4 -4 18 -12 32 -7 14 -13 26 -13 27 3 8 -11 43 -16 43 -9 0 -56 83 -53 93 1 4
-5 10 -13 13 -8 4 -15 11 -15 18 0 6 -9 17 -20 24 -12 7 -18 17 -15 22 3 6 1
10 -4 10 -6 0 -11 5 -11 10 0 6 -19 30 -42 53 -23 23 -40 42 -38 42 6 0 -31
44 -60 71 -14 13 -28 24 -32 24 -5 0 -8 5 -8 11 0 12 -6 19 -87 85 -34 29 -60
54 -57 57 3 3 -5 11 -18 18 -12 7 -31 21 -40 31 -9 11 -19 19 -23 18 -6 -1
-59 39 -92 70 -9 8 -18 13 -19 10 -2 -3 -13 3 -24 13 -11 9 -23 17 -26 17 -3
0 -19 9 -35 21 -16 11 -29 17 -29 14 0 -4 -7 1 -16 9 -8 9 -22 16 -30 16 -8 0
-14 5 -14 12 0 6 -3 8 -7 5 -3 -4 -17 0 -30 8 -13 9 -23 13 -23 9 0 -3 -15 4
-34 15 -18 12 -40 21 -49 21 -25 0 -29 16 -13 55 8 19 16 37 18 39 2 1 -3 10
-11 19 -7 10 -10 17 -6 17 4 0 -9 13 -29 29 -23 18 -46 28 -61 26 -14 -1 -25
1 -25 5 0 4 -10 5 -23 3 -13 -3 -29 2 -36 11 -7 8 -18 13 -26 10 -10 -4 -13 6
-12 40 0 38 -4 50 -28 70 -29 25 -29 25 -43 5 -8 -11 -12 -28 -10 -37 3 -10
-1 -23 -9 -30 -7 -7 -13 -11 -14 -10 0 2 -3 14 -5 28 -9 47 -54 102 -89 108
-11 2 -32 10 -46 17 -22 12 -29 12 -48 -1z"/>
</g>
</svg>
