<?xml version="1.0" standalone="no"?>
<!DOCTYPE svg PUBLIC "-//W3C//DTD SVG 20010904//EN"
 "http://www.w3.org/TR/2001/REC-SVG-20010904/DTD/svg10.dtd">
<svg version="1.0" xmlns="http://www.w3.org/2000/svg"
 width="329.000000pt" height="256.000000pt" viewBox="0 0 329.000000 256.000000"
 preserveAspectRatio="xMidYMid meet">
<metadata>
Created by potrace 1.13, written by Peter Selinger 2001-2015
</metadata>
<g transform="translate(0.000000,256.000000) scale(0.100000,-0.100000)"
fill="#000000" stroke="none">
<path d="M685 2547 c-63 -19 -100 -43 -159 -103 -59 -60 -88 -120 -127 -261
-18 -65 -22 -111 -26 -276 -4 -221 4 -290 41 -366 l25 -53 -38 -51 c-43 -58
-65 -99 -75 -139 -3 -15 -30 -54 -59 -88 -30 -34 -73 -97 -96 -141 -37 -69
-45 -78 -61 -69 -29 15 -43 12 -73 -15 -30 -28 -36 -65 -11 -65 13 0 12 -5 -6
-35 -28 -46 -24 -99 7 -103 16 -2 23 2 23 12 0 9 5 16 11 16 7 0 22 12 35 28
l24 27 0 -31 c0 -19 6 -34 15 -38 8 -3 15 -15 15 -26 0 -16 7 -20 31 -20 25 0
30 4 29 23 -1 12 -2 41 -1 65 1 35 4 42 21 42 11 0 20 -7 20 -15 0 -9 7 -30
16 -46 11 -22 21 -29 37 -27 19 3 22 10 25 56 3 43 6 52 22 52 29 0 50 -11 50
-26 0 -8 9 -14 20 -14 17 0 20 7 20 43 0 54 -34 92 -74 85 -15 -3 -26 -4 -26
-2 0 1 19 40 42 86 42 82 87 135 193 225 53 46 83 52 125 28 36 -21 334 -21
413 0 32 8 69 15 83 15 14 0 33 4 42 9 10 5 39 11 66 12 49 3 50 3 66 -36 l17
-40 -42 3 c-54 5 -77 -16 -74 -67 2 -28 -4 -43 -24 -63 -44 -44 -32 -128 17
-128 9 0 16 6 16 14 0 21 30 69 54 87 21 16 21 16 18 -40 -3 -69 14 -106 48
-106 23 0 25 4 28 60 5 87 34 117 46 45 12 -77 32 -99 90 -100 16 0 18 5 11
57 -4 31 -9 62 -12 69 -3 8 2 17 11 20 18 7 86 -22 86 -36 0 -22 40 -9 46 14
7 31 -9 62 -43 78 -23 11 -29 24 -43 95 l-17 82 129 -1 c114 -1 128 -3 128
-18 0 -10 -16 -24 -40 -35 -51 -23 -84 -73 -75 -115 5 -21 13 -30 26 -30 10 0
19 7 19 16 0 8 13 20 30 25 16 6 32 19 35 30 4 10 13 19 21 19 19 0 11 -15
-43 -75 -30 -32 -43 -56 -43 -76 0 -27 3 -29 40 -29 26 0 40 4 40 13 0 14 42
69 72 96 14 12 122 61 135 61 3 0 -3 -7 -11 -15 -20 -21 -39 -91 -31 -116 9
-28 49 -22 53 8 2 13 9 23 15 23 7 1 26 19 42 41 17 22 41 50 55 62 56 49 101
102 117 139 14 31 22 38 45 38 18 0 42 13 67 35 63 58 186 82 281 56 25 -7 68
-27 95 -44 162 -103 230 -268 166 -405 -14 -29 -28 -52 -33 -52 -4 0 -8 -6 -8
-14 0 -7 -21 -32 -47 -55 -27 -23 -58 -51 -70 -61 -12 -11 -25 -20 -29 -20 -4
0 -27 -15 -53 -33 -25 -19 -84 -53 -131 -78 -47 -24 -87 -46 -90 -49 -3 -3
-41 -21 -85 -40 -44 -19 -81 -38 -83 -42 -2 -4 -8 -8 -14 -8 -11 0 -40 -13
-203 -90 -271 -127 -333 -161 -388 -211 -72 -65 -97 -111 -97 -180 0 -111 75
-158 199 -126 83 22 151 61 151 87 0 26 -33 26 -87 0 -63 -30 -123 -41 -152
-27 -35 17 -51 53 -40 87 13 36 73 94 129 123 25 13 70 37 100 54 53 30 241
91 425 138 129 33 364 117 448 161 71 37 186 111 240 156 64 52 150 179 190
278 35 88 40 112 44 220 7 153 -16 247 -87 365 -59 98 -121 156 -216 205 -38
19 -71 36 -74 38 -2 2 1 7 9 11 7 5 11 19 9 32 -2 19 -10 25 -34 27 -19 2 -36
-3 -44 -12 -29 -36 -43 -1 -28 68 17 78 81 68 94 -16 9 -52 39 -53 60 -1 13
31 14 43 3 75 -11 33 -18 39 -65 53 -28 8 -59 15 -68 15 -24 0 -96 -31 -96
-41 0 -5 -4 -9 -10 -9 -15 0 -12 27 5 44 8 8 15 24 15 35 0 18 -6 21 -40 21
-34 0 -43 -5 -64 -36 -14 -21 -27 -31 -31 -25 -3 6 -15 11 -26 11 -10 0 -38
14 -61 30 -74 54 -156 36 -172 -38 -8 -33 -19 -38 -58 -23 -100 39 -309 78
-455 84 -110 5 -351 -8 -448 -23 -155 -25 -336 -76 -427 -121 -49 -23 -63 -23
-53 2 14 31 64 58 128 69 73 11 144 39 170 65 39 39 -1 132 -81 187 -59 41
-75 53 -132 105 -28 25 -64 47 -91 54 -62 17 -187 20 -234 6z"/>
</g>
</svg>
