<?xml version="1.0" standalone="no"?>
<!DOCTYPE svg PUBLIC "-//W3C//DTD SVG 20010904//EN"
 "http://www.w3.org/TR/2001/REC-SVG-20010904/DTD/svg10.dtd">
<svg version="1.0" xmlns="http://www.w3.org/2000/svg"
 width="376.000000pt" height="308.000000pt" viewBox="0 0 376.000000 308.000000"
 preserveAspectRatio="xMidYMid meet">
<metadata>
Created by potrace 1.13, written by Peter Selinger 2001-2015
</metadata>
<g transform="translate(0.000000,308.000000) scale(0.100000,-0.100000)"
fill="#000000" stroke="none">
<path d="M1535 3066 c-5 -2 -22 -7 -37 -10 -15 -3 -50 -29 -79 -57 -47 -46
-138 -99 -171 -99 -7 0 -22 -7 -32 -15 -11 -8 -26 -15 -33 -15 -7 0 -36 -11
-65 -24 -29 -13 -84 -29 -123 -36 -38 -6 -88 -15 -110 -19 -54 -11 -211 -75
-255 -106 -39 -27 -110 -107 -110 -124 0 -6 -4 -11 -10 -11 -5 0 -16 -12 -25
-27 -9 -16 -25 -41 -35 -58 -11 -16 -26 -42 -32 -57 -7 -16 -16 -28 -20 -28
-4 0 -8 -6 -8 -13 0 -7 -22 -39 -49 -71 -35 -41 -53 -73 -62 -110 -6 -28 -25
-85 -42 -126 -29 -75 -29 -75 -18 -175 6 -55 11 -134 11 -175 0 -88 7 -120 26
-120 29 0 12 -64 -60 -223 -29 -65 -33 -97 -11 -97 8 0 15 -7 15 -15 0 -8 9
-15 20 -15 35 0 130 222 130 307 0 24 12 43 54 87 30 30 58 65 62 78 4 12 24
45 44 73 21 27 41 60 45 73 3 12 10 22 15 22 4 0 16 23 26 50 10 28 22 50 26
50 5 0 24 16 42 35 19 19 41 35 50 35 9 0 16 5 16 10 0 6 5 10 12 10 7 0 30
17 51 38 l39 37 -21 -40 c-14 -26 -21 -58 -21 -93 0 -62 13 -92 40 -92 16 0
20 7 20 31 0 39 16 69 37 69 13 0 14 -3 5 -12 -13 -13 -16 -75 -6 -102 13 -33
41 -18 53 28 l11 43 47 -9 c77 -15 235 -15 240 0 3 6 11 12 18 12 19 0 61 60
74 105 6 22 11 74 11 115 0 41 4 81 9 89 9 15 29 13 216 -19 28 -5 73 -9 100
-9 63 -1 241 -56 265 -81 3 -3 16 -11 30 -18 14 -6 57 -30 95 -52 39 -22 81
-44 95 -50 14 -5 36 -16 50 -24 14 -8 44 -24 67 -35 l41 -21 -5 -57 c-5 -52
-1 -66 30 -131 20 -41 39 -83 43 -95 l6 -22 -21 23 c-27 27 -86 30 -114 5 -15
-14 -33 -17 -81 -15 -51 3 -66 0 -89 -18 -15 -12 -27 -30 -27 -41 0 -15 -7
-19 -30 -19 -67 0 -120 -39 -120 -89 0 -25 31 -29 50 -6 17 20 27 19 35 -5 5
-16 15 -20 52 -20 77 0 39 -13 -58 -20 -105 -8 -132 -26 -144 -97 -6 -41 -6
-43 18 -43 16 0 28 7 32 19 3 11 13 25 21 32 14 11 18 10 30 -5 12 -17 23 -18
88 -13 41 3 83 10 94 16 36 19 197 9 220 -14 4 -3 0 -10 -8 -15 -9 -6 -15 -32
-18 -75 -4 -65 -4 -67 19 -63 16 2 25 11 27 25 2 12 13 25 25 29 12 3 29 12
37 19 17 15 97 61 185 106 85 45 111 76 124 151 6 35 8 73 5 86 -8 27 7 28 81
8 68 -18 103 -38 150 -85 22 -22 43 -40 47 -41 16 0 155 -134 198 -191 14 -18
30 -37 35 -43 17 -17 85 -132 85 -143 0 -6 7 -24 15 -41 60 -119 26 -344 -75
-495 -67 -101 -175 -211 -235 -240 -84 -42 -204 -78 -275 -84 -86 -7 -279 26
-365 62 -16 7 -58 23 -92 35 -35 12 -63 26 -63 31 0 5 -9 9 -19 9 -11 0 -22 4
-25 9 -3 4 -33 16 -66 25 -33 9 -68 25 -78 35 -47 48 -232 144 -359 186 -72
24 -141 49 -153 55 -42 22 -185 58 -240 59 -30 1 -57 5 -60 10 -11 18 -153 23
-210 8 -30 -8 -56 -11 -58 -6 -5 11 -42 12 -42 1 0 -5 -44 -12 -97 -15 -54 -3
-111 -10 -128 -16 -16 -5 -66 -17 -110 -26 -92 -20 -109 -24 -225 -64 -63 -21
-114 -30 -195 -35 -146 -9 -165 -13 -165 -36 0 -31 33 -40 149 -40 85 0 149 8
283 34 274 55 295 58 434 57 127 -1 255 -18 332 -42 94 -30 129 -41 147 -49
11 -5 49 -20 85 -33 72 -27 203 -95 208 -108 2 -5 10 -9 18 -9 8 0 14 -4 14
-8 0 -4 16 -14 35 -21 19 -7 35 -16 35 -20 0 -10 101 -71 150 -91 19 -8 37
-17 40 -21 8 -11 250 -132 310 -155 114 -45 177 -64 240 -74 98 -15 337 -12
417 5 70 15 166 47 186 63 7 5 41 19 77 32 36 13 82 34 102 47 21 13 40 23 43
23 3 0 11 4 18 10 7 5 35 28 63 49 29 22 65 58 80 81 16 22 38 52 50 66 24 29
104 189 127 254 39 109 53 456 24 607 -14 76 -33 123 -86 216 -11 21 -21 39
-21 42 0 2 22 14 50 27 35 16 54 33 67 58 10 19 21 37 24 40 25 21 41 82 45
171 4 93 3 99 -16 99 -14 0 -27 -16 -46 -60 l-28 -59 -43 100 c-23 55 -49 126
-57 157 -28 103 -77 137 -138 92 -30 -22 -30 -22 -51 -2 -27 24 -106 52 -150
52 -33 0 -54 16 -77 60 -6 12 -19 31 -28 43 -21 27 -190 196 -255 255 -26 23
-47 44 -47 46 0 8 -81 86 -90 86 -5 0 -10 5 -10 10 0 6 -6 10 -13 10 -7 0 -23
14 -37 30 -14 17 -28 30 -33 30 -4 0 -20 11 -35 25 -15 14 -38 28 -52 32 -14
3 -27 9 -30 13 -3 3 -48 29 -100 57 -146 78 -218 94 -450 100 -124 3 -204 9
-220 17 -26 13 -48 24 -88 45 -24 12 -109 24 -127 17z m-435 -791 c0 -14 -6
-25 -14 -25 -7 0 -25 -9 -39 -20 -15 -12 -40 -20 -62 -20 -24 0 -55 -11 -87
-30 -26 -16 -50 -30 -53 -30 -3 0 12 18 34 40 28 29 57 46 102 60 35 11 75 27
89 35 14 8 26 14 28 15 1 0 2 -11 2 -25z m2370 -195 c0 -5 -2 -10 -4 -10 -3 0
-8 5 -11 10 -3 6 -1 10 4 10 6 0 11 -4 11 -10z m-1365 -470 c3 -5 1 -10 -4
-10 -6 0 -11 5 -11 10 0 6 2 10 4 10 3 0 8 -4 11 -10z"/>
</g>
</svg>
