<?xml version="1.0" standalone="no"?>
<!DOCTYPE svg PUBLIC "-//W3C//DTD SVG 20010904//EN"
 "http://www.w3.org/TR/2001/REC-SVG-20010904/DTD/svg10.dtd">
<svg version="1.0" xmlns="http://www.w3.org/2000/svg"
 width="514.000000pt" height="376.000000pt" viewBox="0 0 514.000000 376.000000"
 preserveAspectRatio="xMidYMid meet">
<metadata>
Created by potrace 1.13, written by Peter Selinger 2001-2015
</metadata>
<g transform="translate(0.000000,376.000000) scale(0.100000,-0.100000)"
fill="#000000" stroke="none">
<path d="M1362 3460 c-45 -11 -70 -42 -68 -88 1 -35 3 -37 36 -38 121 -2 141
-5 159 -23 17 -17 24 -76 9 -76 -3 0 -13 -6 -22 -14 -15 -13 -19 -13 -27 0 -5
8 -9 19 -9 25 0 6 -14 17 -31 24 -24 10 -36 11 -50 2 -10 -7 -27 -12 -36 -12
-17 -1 -17 -1 0 -11 9 -6 15 -15 11 -20 -4 -6 -11 -5 -21 2 -9 8 -45 13 -91
12 -42 0 -80 5 -83 10 -14 20 -211 11 -254 -13 -27 -15 -100 -40 -133 -46 -8
-1 -20 -11 -28 -21 -7 -10 -14 -14 -14 -9 0 12 -50 -42 -50 -54 0 -5 -6 -7
-12 -5 -16 6 -33 -18 -93 -128 -43 -80 -58 -135 -56 -207 3 -70 7 -110 12
-110 3 0 4 -11 1 -25 -2 -14 0 -25 6 -25 6 0 9 -9 7 -20 -2 -11 2 -33 10 -48
23 -46 39 -86 40 -99 0 -6 13 -30 28 -53 15 -23 27 -46 27 -51 0 -5 5 -9 10
-9 6 0 10 -7 10 -15 0 -8 5 -15 12 -15 6 0 9 -3 6 -6 -4 -3 1 -14 10 -24 49
-53 72 -81 72 -88 0 -4 33 -43 73 -85 41 -42 72 -77 69 -77 -9 0 112 -110 121
-110 5 0 6 -3 4 -7 -3 -5 12 -19 34 -32 21 -14 36 -27 35 -30 -2 -3 13 -17 35
-30 21 -14 36 -28 33 -32 -2 -4 5 -10 16 -14 11 -3 20 -10 20 -15 0 -5 9 -12
20 -15 11 -4 18 -11 15 -16 -4 -5 -2 -9 4 -9 5 0 25 -15 45 -32 47 -44 58 -53
85 -67 12 -7 31 -20 41 -29 10 -9 28 -25 41 -34 43 -32 69 -53 103 -83 19 -16
47 -39 62 -50 15 -11 39 -31 54 -45 15 -14 39 -34 54 -45 15 -11 43 -33 62
-50 18 -16 49 -43 69 -60 19 -16 35 -34 35 -39 0 -4 17 -24 37 -42 20 -19 33
-34 29 -34 -11 0 91 -99 128 -125 16 -11 36 -27 45 -36 9 -9 48 -32 86 -51 58
-29 75 -34 98 -26 15 5 27 14 27 19 0 5 6 9 14 9 25 0 43 89 24 123 -7 12 -11
25 -10 30 1 4 -2 7 -8 7 -5 0 -10 8 -10 19 0 10 -7 24 -15 31 -8 7 -15 16 -15
21 0 4 -16 35 -35 67 -30 52 -37 59 -60 54 -23 -4 -25 -8 -19 -36 3 -17 10
-33 15 -34 5 -2 7 -8 3 -13 -3 -5 -1 -9 5 -9 6 0 13 -16 17 -35 3 -19 10 -35
14 -35 11 0 32 -83 28 -110 l-3 -23 -25 21 c-62 54 -74 62 -92 62 -10 0 -23
11 -29 24 -6 13 -22 29 -35 36 -13 7 -22 16 -19 20 3 5 -33 46 -94 105 -6 6
-44 44 -85 85 -42 41 -80 80 -85 85 -6 6 -35 37 -65 70 -31 33 -59 63 -63 67
-4 4 -36 34 -70 66 -35 33 -63 63 -63 69 0 5 -11 16 -25 23 -14 7 -25 19 -25
27 0 7 -4 13 -8 13 -10 0 -153 140 -144 140 4 1 -4 7 -18 15 -14 7 -25 18 -25
23 0 5 -14 23 -32 39 -18 17 -30 33 -27 36 3 3 -4 8 -15 12 -12 3 -21 10 -21
15 0 5 -22 32 -50 59 -27 27 -50 54 -50 60 0 6 -5 11 -12 11 -6 0 -9 3 -6 6 4
3 -1 14 -10 24 -46 50 -77 86 -78 90 -4 21 -22 49 -46 72 -16 15 -28 28 -27
30 1 2 -9 23 -21 48 -13 25 -25 50 -25 55 -1 6 -3 13 -5 18 -1 4 -4 16 -5 27
-1 11 -3 21 -5 23 -4 5 -10 43 -14 82 -8 93 120 242 244 284 8 3 50 5 92 4 73
-1 81 -3 183 -58 59 -32 115 -65 125 -74 30 -27 102 -88 155 -131 73 -59 82
-69 106 -114 25 -48 44 -68 89 -91 28 -14 31 -21 27 -45 -4 -15 -3 -31 1 -35
4 -4 7 -10 8 -13 0 -4 6 -20 12 -35 7 -16 12 -35 12 -43 0 -8 5 -14 10 -14 6
0 10 -5 10 -10 0 -11 39 -70 52 -80 4 -3 9 -15 11 -25 9 -46 20 -75 28 -75 5
0 9 -9 9 -20 0 -10 9 -24 20 -30 16 -9 18 -15 10 -30 -8 -15 -4 -23 22 -41 22
-16 33 -19 36 -11 2 7 8 10 12 7 13 -8 29 57 23 91 -3 16 -10 36 -16 44 -6 8
3 3 19 -12 108 -101 144 -138 143 -145 -2 -9 5 -30 26 -77 7 -16 11 -35 8 -42
-3 -8 15 -23 46 -38 60 -31 57 -30 66 -8 13 31 16 62 6 62 -5 0 -12 14 -16 30
-4 17 -10 30 -15 30 -6 0 -19 30 -24 60 -1 3 -5 11 -10 18 -7 12 -4 12 14 2
12 -6 19 -14 16 -17 -3 -4 -1 -12 5 -20 6 -7 8 -13 4 -13 -4 0 9 -15 29 -34
20 -20 34 -41 31 -49 -8 -20 35 -37 60 -23 26 15 35 28 27 41 -3 5 -7 15 -9
20 -1 6 -4 20 -7 33 -3 12 -25 42 -49 66 -33 33 -42 48 -35 60 8 14 13 14 51
-5 23 -12 50 -30 60 -40 10 -10 30 -22 45 -25 15 -4 61 -25 104 -47 72 -38 76
-41 66 -63 -6 -13 -16 -24 -22 -24 -10 0 -66 -59 -66 -70 0 -10 -59 -10 -65 0
-7 11 -52 3 -71 -12 -7 -5 -14 -19 -16 -32 -4 -19 2 -27 29 -40 18 -9 33 -11
33 -6 0 12 37 13 44 1 3 -4 16 -6 28 -4 13 2 32 -2 43 -10 19 -15 19 -15 0
-51 -11 -20 -25 -36 -32 -36 -17 0 -37 -40 -26 -51 16 -16 112 -47 115 -37 2
5 11 10 20 12 18 2 58 43 58 58 0 18 27 7 40 -16 11 -22 10 -30 -14 -70 -33
-56 -33 -62 4 -81 53 -28 92 -4 131 80 10 22 19 32 19 23 0 -10 8 -23 18 -29
12 -8 17 -20 14 -35 -2 -13 0 -24 6 -24 10 0 9 -31 -2 -49 -7 -10 38 -28 72
-29 14 -1 27 9 36 26 17 33 15 62 -6 94 l-17 25 33 -11 c18 -6 41 -19 50 -29
10 -9 29 -17 43 -17 13 0 32 -9 42 -21 12 -15 28 -21 54 -21 24 0 37 -5 37
-13 0 -24 31 -45 66 -45 20 0 42 -7 51 -15 8 -9 29 -15 48 -13 20 1 39 -5 49
-15 10 -9 24 -17 33 -17 9 0 40 -14 69 -31 72 -41 130 -58 214 -64 25 -2 47
-4 50 -5 3 -1 15 -1 26 -1 15 2 28 -9 44 -36 13 -21 32 -48 43 -60 11 -13 17
-23 12 -23 -4 0 1 -8 11 -18 29 -26 79 -116 76 -134 -1 -5 2 -8 8 -8 5 0 12
-16 16 -35 3 -19 10 -35 14 -35 8 0 34 -74 36 -105 1 -11 5 -28 9 -37 4 -11 3
-18 -5 -18 -6 0 -9 4 -6 9 8 12 -65 42 -89 37 -11 -3 -27 -5 -35 -5 -8 -1 -25
-18 -37 -40 l-22 -38 34 -16 c28 -13 34 -14 39 -2 4 11 12 12 36 5 57 -16 62
-26 37 -76 l-22 -45 25 -19 c27 -21 60 -26 60 -10 0 5 6 7 14 4 9 -3 20 3 28
15 15 24 27 26 52 8 16 -12 15 -16 -12 -68 l-30 -55 39 -22 c34 -20 39 -20 47
-6 7 12 18 15 36 12 22 -4 30 -1 38 18 6 13 15 21 20 18 4 -3 6 -10 3 -15 -4
-5 0 -12 9 -15 8 -3 12 -12 10 -19 -3 -7 4 -16 16 -20 14 -5 19 -12 15 -25 -6
-18 8 -28 51 -36 16 -3 24 3 33 24 11 26 10 39 -5 91 -6 21 -5 22 14 12 16 -8
21 -7 26 5 10 27 7 44 -14 66 -10 12 -17 24 -15 28 5 8 -39 30 -75 37 -31 5
-30 3 -34 49 -3 21 -5 39 -6 39 -1 0 -3 11 -5 25 -1 14 -7 37 -14 53 -6 15 -8
27 -5 27 4 0 -1 11 -10 25 -9 14 -14 25 -11 25 3 0 -2 15 -12 33 -9 17 -16 35
-15 40 1 4 -3 7 -8 7 -6 0 -10 7 -10 15 0 8 -3 15 -8 15 -4 0 -6 21 -5 48 2
52 -14 151 -28 168 -5 6 -6 14 -2 17 3 4 1 7 -5 7 -6 0 -9 9 -7 20 2 11 -1 20
-6 20 -6 0 -9 8 -7 18 2 9 10 17 18 17 8 0 23 9 33 19 9 11 20 16 24 13 3 -4
14 3 24 14 10 12 22 18 27 15 5 -3 15 8 22 24 7 17 16 30 21 30 8 0 48 69 46
80 0 3 11 23 25 46 34 53 110 204 103 204 -3 0 0 10 7 23 7 12 14 33 15 47 1
14 5 50 8 80 10 93 12 125 6 134 -2 5 -5 26 -6 45 0 20 -9 51 -18 69 -10 17
-14 32 -10 32 4 0 -2 7 -13 15 -10 8 -15 15 -11 15 5 0 -1 13 -12 29 -12 16
-21 32 -21 35 0 4 -14 22 -31 40 -17 19 -29 37 -27 41 1 4 -10 14 -26 22 -30
16 -44 26 -74 54 -9 9 -57 37 -107 62 -78 40 -115 55 -210 84 -22 7 -107 7
-144 1 -13 -3 -42 -2 -63 2 -21 4 -38 3 -38 -2 0 -4 -10 -6 -23 -3 -33 9 -167
13 -167 6 0 -4 -20 -12 -44 -20 -53 -15 -71 -46 -51 -82 8 -13 20 -34 26 -46
7 -13 20 -25 30 -28 10 -4 26 -16 36 -28 10 -12 45 -40 78 -62 33 -22 66 -46
73 -52 7 -7 17 -13 22 -13 4 0 17 -14 28 -32 17 -26 18 -33 7 -45 -12 -11 -24
-3 -80 52 -37 36 -70 65 -74 65 -4 0 -29 20 -57 44 -27 25 -57 51 -66 60 -9 8
-26 19 -37 26 -12 6 -34 24 -51 40 -16 15 -38 31 -49 35 -12 3 -21 10 -21 15
0 5 -15 17 -32 26 -18 9 -35 20 -38 23 -3 3 -32 24 -65 45 -33 21 -85 54 -115
73 -30 20 -104 62 -163 94 -60 33 -115 66 -124 74 -8 8 -17 15 -21 16 -28 3
-43 10 -61 28 -12 12 -28 21 -37 21 -9 0 -55 20 -103 44 -47 24 -108 53 -136
64 -27 11 -70 28 -95 38 -24 11 -47 19 -50 19 -5 0 -32 10 -85 31 -11 4 -24 8
-30 9 -5 0 -19 6 -30 12 -11 6 -33 13 -50 16 -16 3 -41 10 -55 16 -14 5 -44
15 -68 21 -36 9 -42 14 -37 31 4 11 2 19 -6 19 -9 0 -9 3 0 14 10 11 7 22 -11
49 -32 50 -115 88 -203 94 -38 3 -81 11 -95 18 -14 7 -30 10 -36 8 -8 -3 -10
10 -7 41 4 34 1 53 -13 73 -10 16 -25 41 -34 58 -8 16 -27 36 -42 45 -25 13
-31 13 -55 0 -37 -21 -50 -60 -36 -110 5 -22 6 -37 2 -34 -5 3 -9 11 -9 17 -1
26 -51 67 -125 101 -81 38 -89 39 -143 26z m303 -170 c3 -6 -1 -7 -9 -4 -18 7
-21 14 -7 14 6 0 13 -4 16 -10z"/>
</g>
</svg>
