<?xml version="1.0" standalone="no"?>
<!DOCTYPE svg PUBLIC "-//W3C//DTD SVG 20010904//EN"
 "http://www.w3.org/TR/2001/REC-SVG-20010904/DTD/svg10.dtd">
<svg version="1.0" xmlns="http://www.w3.org/2000/svg"
 width="376.000000pt" height="308.000000pt" viewBox="0 0 376.000000 308.000000"
 preserveAspectRatio="xMidYMid meet">
<metadata>
Created by potrace 1.13, written by Peter Selinger 2001-2015
</metadata>
<g transform="translate(0.000000,308.000000) scale(0.100000,-0.100000)"
fill="#000000" stroke="none">
<path d="M2140 3064 c-28 -10 -65 -26 -85 -37 -11 -6 -31 -16 -45 -23 -16 -8
-96 -14 -220 -17 -232 -6 -304 -22 -450 -100 -52 -28 -97 -54 -100 -57 -3 -4
-16 -10 -30 -13 -14 -4 -37 -18 -52 -32 -15 -14 -31 -25 -35 -25 -5 0 -19 -13
-33 -30 -14 -16 -30 -30 -37 -30 -7 0 -13 -4 -13 -10 0 -5 -5 -10 -10 -10 -9
0 -90 -78 -90 -86 0 -2 -21 -23 -47 -46 -65 -59 -234 -228 -255 -255 -9 -12
-22 -31 -28 -43 -23 -44 -44 -60 -77 -60 -44 0 -123 -28 -150 -52 -21 -20 -21
-20 -51 2 -61 45 -110 11 -138 -92 -8 -31 -34 -102 -57 -157 l-43 -100 -28 59
c-19 44 -32 60 -46 60 -19 0 -20 -6 -16 -99 4 -89 20 -150 45 -171 3 -3 14
-21 24 -40 13 -25 32 -42 67 -58 28 -13 50 -25 50 -27 0 -3 -10 -21 -21 -42
-53 -93 -72 -140 -86 -216 -29 -151 -15 -498 24 -607 23 -65 103 -225 127
-254 12 -14 34 -44 50 -66 15 -23 51 -59 80 -81 28 -21 56 -44 63 -49 7 -6 15
-10 18 -10 3 0 22 -10 43 -23 20 -13 66 -34 102 -47 36 -13 70 -27 77 -32 20
-16 116 -48 186 -63 80 -17 319 -20 417 -5 63 10 126 29 240 74 60 23 302 144
310 155 3 4 21 13 40 21 49 20 150 81 150 91 0 4 16 13 35 20 19 7 35 17 35
21 0 4 6 8 14 8 8 0 16 4 18 9 5 13 136 81 208 108 36 13 74 28 85 33 18 8 53
19 147 49 77 24 205 41 332 42 139 1 160 -2 434 -57 134 -26 198 -34 283 -34
116 0 149 9 149 40 0 23 -19 27 -165 36 -81 5 -132 14 -195 35 -116 40 -133
44 -225 64 -44 9 -93 21 -110 26 -16 6 -74 13 -127 16 -54 3 -98 10 -98 15 0
11 -37 10 -42 -1 -1 -5 -28 -2 -58 6 -57 15 -199 10 -210 -8 -3 -5 -30 -9 -60
-10 -55 -1 -198 -37 -240 -59 -12 -6 -81 -31 -153 -55 -127 -42 -312 -138
-359 -186 -10 -10 -45 -26 -78 -35 -33 -9 -63 -21 -66 -25 -3 -5 -14 -9 -25
-9 -10 0 -19 -4 -19 -9 0 -5 -28 -19 -62 -31 -35 -12 -76 -28 -93 -35 -86 -36
-279 -69 -365 -62 -71 6 -191 42 -275 84 -60 29 -168 139 -235 240 -101 151
-135 376 -75 495 8 17 15 35 15 41 0 11 68 126 85 143 5 6 21 25 35 43 43 57
182 191 198 191 4 1 25 19 47 41 47 47 82 67 150 85 74 20 89 19 81 -8 -3 -13
-1 -51 5 -86 13 -75 39 -106 124 -151 88 -45 168 -91 185 -106 8 -7 25 -16 37
-19 12 -4 23 -17 25 -29 2 -14 11 -23 27 -25 23 -4 23 -2 19 63 -3 43 -9 69
-18 75 -8 5 -12 12 -8 15 23 23 184 33 220 14 11 -6 53 -13 94 -16 65 -5 76
-4 88 13 12 15 16 16 30 5 8 -7 18 -21 21 -32 4 -12 16 -19 32 -19 24 0 24 2
18 43 -12 71 -39 89 -144 97 -97 7 -135 20 -58 20 37 0 47 4 52 20 8 24 18 25
35 5 19 -23 50 -19 50 6 0 50 -53 89 -120 89 -23 0 -30 4 -30 19 0 11 -12 29
-27 41 -23 18 -38 21 -89 18 -48 -2 -66 1 -81 15 -28 25 -87 22 -114 -5 l-21
-23 6 22 c4 12 23 54 43 95 31 65 35 79 30 131 l-5 57 41 21 c23 11 53 27 67
35 14 8 36 19 50 24 14 6 57 28 95 50 39 22 81 46 95 52 14 7 27 15 30 18 24
25 202 80 265 81 28 0 73 4 100 9 187 32 207 34 216 19 5 -8 9 -48 9 -89 0
-41 5 -93 11 -115 13 -45 55 -105 74 -105 7 0 15 -6 18 -12 5 -15 163 -15 240
0 l47 9 11 -43 c12 -46 40 -61 53 -28 10 27 7 89 -6 102 -9 9 -8 12 5 12 21 0
37 -30 37 -69 0 -24 4 -31 20 -31 27 0 40 30 40 92 0 35 -7 67 -21 93 l-21 40
39 -37 c21 -21 44 -38 51 -38 7 0 12 -4 12 -10 0 -5 7 -10 16 -10 9 0 31 -16
50 -35 18 -19 37 -35 42 -35 4 0 16 -22 26 -50 10 -27 22 -50 26 -50 5 0 12
-10 15 -22 4 -13 24 -46 45 -73 20 -28 40 -61 44 -73 4 -13 32 -48 62 -78 42
-44 54 -63 54 -87 0 -50 24 -125 69 -219 31 -67 46 -88 61 -88 11 0 20 7 20
15 0 8 7 15 15 15 22 0 18 32 -11 97 -72 159 -89 223 -60 223 19 0 26 32 26
120 0 41 5 120 11 175 11 100 11 100 -18 175 -17 41 -36 98 -42 126 -9 37 -27
69 -62 110 -27 32 -49 64 -49 71 0 7 -4 13 -8 13 -4 0 -13 12 -20 28 -6 15
-21 41 -32 57 -10 17 -26 42 -35 58 -9 15 -20 27 -25 27 -6 0 -10 5 -10 11 0
17 -71 97 -110 124 -44 31 -201 95 -255 106 -22 4 -71 13 -110 19 -38 7 -94
23 -123 36 -29 13 -58 24 -65 24 -7 0 -22 7 -33 15 -10 8 -25 15 -32 15 -31 0
-126 53 -160 89 -20 21 -48 45 -62 54 -26 17 -124 31 -150 21z m648 -818 c37
-11 66 -28 93 -56 21 -22 37 -40 34 -40 -3 0 -27 14 -53 30 -32 19 -63 30 -87
30 -22 0 -47 8 -62 20 -14 11 -32 20 -39 20 -8 0 -14 11 -14 25 l0 25 38 -19
c20 -10 61 -26 90 -35z m-2478 -160 c0 -3 -4 -8 -10 -11 -5 -3 -10 -1 -10 4 0
6 5 11 10 11 6 0 10 -2 10 -4z m1360 -476 c0 -5 -5 -10 -11 -10 -5 0 -7 5 -4
10 3 6 8 10 11 10 2 0 4 -4 4 -10z"/>
</g>
</svg>
