<?xml version="1.0" standalone="no"?>
<!DOCTYPE svg PUBLIC "-//W3C//DTD SVG 20010904//EN"
 "http://www.w3.org/TR/2001/REC-SVG-20010904/DTD/svg10.dtd">
<svg version="1.0" xmlns="http://www.w3.org/2000/svg"
 width="328.000000pt" height="300.000000pt" viewBox="0 0 328.000000 300.000000"
 preserveAspectRatio="xMidYMid meet">
<metadata>
Created by potrace 1.13, written by Peter Selinger 2001-2015
</metadata>
<g transform="translate(0.000000,300.000000) scale(0.100000,-0.100000)"
fill="#000000" stroke="none">
<path d="M674 2879 c-3 -5 -9 -7 -14 -4 -4 3 -19 -10 -32 -28 -26 -34 -42 -77
-28 -77 5 0 6 -13 4 -30 -3 -17 -1 -30 5 -30 6 0 14 -18 17 -40 4 -22 11 -40
17 -40 6 0 7 -3 4 -6 -4 -4 4 -21 16 -38 12 -17 21 -32 20 -33 -3 -3 5 -30 17
-58 8 -17 25 -76 37 -125 9 -36 14 -66 14 -82 0 -10 6 -18 12 -18 8 0 7 -3 -2
-9 -10 -6 -22 -2 -39 15 -27 24 -52 18 -52 -12 0 -8 -10 -14 -24 -14 -48 0
-54 -40 -8 -54 12 -4 20 -12 16 -17 -3 -6 -12 -8 -19 -5 -7 2 -21 -4 -30 -14
-24 -26 -3 -46 45 -44 43 2 54 -4 41 -20 -8 -9 -7 -18 3 -31 12 -16 16 -17 30
-6 37 31 125 13 134 -27 4 -21 33 -62 44 -62 5 0 6 -5 3 -10 -3 -6 1 -13 9
-16 9 -3 16 -12 16 -20 0 -8 5 -14 10 -14 6 0 10 -7 10 -15 0 -8 -9 -15 -20
-15 -27 0 -47 -38 -25 -47 14 -5 11 -10 -15 -26 -35 -22 -37 -51 -2 -53 12 -1
25 3 28 7 3 5 10 9 16 9 6 0 2 -11 -11 -23 -18 -20 -19 -26 -8 -36 8 -6 21 -9
28 -7 8 2 27 7 42 10 25 6 27 5 18 -13 -8 -14 -7 -22 4 -31 11 -9 20 -5 47 20
46 45 70 52 112 35 19 -8 38 -19 41 -25 4 -6 10 -8 14 -5 5 2 16 -4 26 -15 10
-11 22 -17 26 -14 5 3 9 0 9 -7 0 -7 3 -9 6 -6 4 3 16 1 28 -5 11 -7 24 -11
29 -10 4 1 7 -3 7 -8 0 -6 6 -10 14 -10 8 0 21 -6 28 -14 8 -7 29 -22 47 -32
49 -27 63 -36 99 -62 17 -13 32 -21 32 -17 0 15 54 -46 57 -65 2 -17 -1 -21
-19 -18 -13 2 -23 10 -23 18 0 18 -49 64 -53 51 -2 -6 -10 -7 -18 -4 -7 3 -12
9 -9 13 5 9 -50 53 -70 56 -25 4 -27 -29 -2 -50 24 -22 39 -50 31 -59 -3 -3
-21 9 -39 26 -35 31 -51 37 -120 41 -45 2 -67 -6 -97 -36 -29 -29 -17 -49 24
-40 34 7 100 7 130 0 30 -7 31 -17 2 -16 -61 1 -164 -48 -150 -71 3 -5 -1 -11
-9 -15 -21 -8 -20 -79 1 -97 22 -18 36 4 34 56 -1 11 25 33 33 28 4 -2 7 1 7
7 0 7 7 10 15 7 8 -4 17 -2 20 3 6 9 95 10 95 0 0 -3 10 -6 21 -7 31 -3 50
-23 21 -23 -21 0 -52 -43 -52 -73 0 -23 26 -27 41 -6 23 32 93 46 127 25 17
-10 101 -15 107 -6 4 6 11 8 16 5 5 -4 12 1 15 9 3 9 12 16 19 16 7 0 15 7 19
15 3 8 12 15 21 15 8 0 15 5 15 11 0 5 5 7 10 4 6 -4 8 -10 5 -15 -3 -4 -1
-10 5 -12 5 -1 11 -14 14 -28 2 -14 5 -27 6 -30 2 -3 2 -9 1 -13 -1 -4 3 -16
8 -26 11 -19 23 -73 25 -103 0 -10 4 -18 8 -18 4 0 6 -10 4 -22 -2 -13 1 -29
6 -35 7 -9 7 -13 -2 -13 -9 0 -10 -3 -1 -13 6 -8 9 -16 6 -18 -2 -3 0 -21 4
-42 6 -24 5 -37 -1 -37 -7 0 -7 -4 -1 -12 5 -7 11 -31 12 -53 4 -48 9 -89 11
-92 2 -2 3 -11 4 -20 1 -10 5 -24 9 -30 5 -7 6 -13 2 -13 -3 0 1 -13 9 -29 9
-16 12 -31 9 -35 -4 -3 0 -6 7 -6 7 0 11 -3 7 -6 -3 -3 3 -21 14 -40 10 -19
19 -41 19 -48 0 -8 3 -16 8 -18 4 -1 25 -27 46 -56 21 -28 46 -58 55 -65 20
-14 109 -87 125 -103 6 -6 16 -11 21 -12 6 -1 18 -9 27 -17 17 -14 28 -18 93
-31 43 -8 98 -11 110 -5 5 2 28 4 51 2 23 -1 45 2 49 8 3 6 11 9 16 5 5 -3 23
2 40 10 17 9 35 14 39 11 4 -3 13 2 20 10 7 8 17 15 22 15 9 0 13 3 53 38 28
24 85 99 85 111 0 6 4 11 10 11 5 0 7 7 4 15 -4 8 -1 15 6 15 6 0 10 6 8 12
-3 7 2 19 9 27 8 7 12 20 9 27 -3 8 -2 14 2 14 4 0 6 28 5 62 0 35 -2 63 -3
63 -3 0 -10 47 -13 78 -1 15 -6 27 -11 27 -4 0 -6 7 -3 15 4 8 2 17 -3 20 -4
3 -7 13 -5 23 1 9 -6 29 -16 43 -10 14 -16 29 -12 32 3 4 -1 9 -10 13 -8 3
-14 14 -12 24 2 10 -3 21 -11 24 -9 3 -12 10 -9 16 3 5 1 10 -4 10 -6 0 -11 7
-11 15 0 8 -4 15 -8 15 -5 0 -23 22 -41 50 -18 27 -42 57 -54 65 -12 8 -18 15
-14 15 6 0 -12 26 -40 55 -7 8 -13 16 -13 18 0 3 -18 24 -40 46 -23 23 -37 41
-33 41 4 0 -8 14 -27 30 -19 16 -31 30 -26 30 5 0 -4 10 -20 22 -16 12 -33 28
-37 35 -9 15 -37 42 -81 78 -27 22 -31 22 -42 7 -10 -14 -9 -19 7 -30 10 -7
19 -18 19 -23 0 -11 82 -119 120 -158 14 -14 32 -38 40 -53 7 -15 20 -36 29
-45 51 -57 180 -253 166 -253 -3 0 8 -27 25 -60 16 -33 30 -66 30 -75 0 -8 5
-15 10 -15 6 0 10 -8 10 -18 0 -10 5 -23 11 -29 9 -9 8 -18 -4 -36 -15 -23
-14 -26 4 -46 11 -11 16 -21 10 -21 -5 0 -12 -11 -15 -25 -4 -14 -12 -25 -18
-25 -7 0 -4 -6 6 -13 16 -12 16 -14 -4 -34 -11 -12 -20 -27 -20 -33 0 -18 -80
-90 -100 -90 -11 0 -20 -4 -20 -9 0 -16 -120 -16 -160 -1 -3 1 -8 2 -12 1 -5
0 -8 3 -8 9 0 5 -8 10 -17 10 -20 0 -93 62 -93 78 0 5 -7 12 -15 16 -15 5 -40
53 -36 70 1 4 -5 19 -14 33 -9 14 -14 31 -11 38 3 8 2 17 -3 19 -9 6 -9 196 0
211 4 6 5 18 4 27 -2 10 2 18 8 18 7 0 8 3 1 10 -5 5 -8 25 -6 44 3 25 8 33
20 31 10 -2 18 -4 20 -5 1 -2 5 -3 10 -4 19 -4 52 -32 52 -44 0 -7 6 -20 14
-27 12 -12 16 -11 30 10 9 14 12 25 6 25 -5 0 -10 9 -10 20 0 11 -4 20 -10 20
-5 0 -10 5 -10 10 0 6 7 10 15 10 8 0 15 -5 15 -11 0 -5 4 -8 8 -5 5 3 21 -6
36 -19 15 -13 32 -25 36 -27 17 -6 21 -66 5 -82 -14 -14 -11 -46 5 -46 4 0 19
9 33 20 29 23 43 66 26 86 -9 11 -7 14 9 14 22 0 44 30 40 51 -5 23 -59 83
-76 85 -4 0 -20 6 -35 12 -16 7 -33 12 -39 12 -6 0 -4 8 5 18 19 20 7 42 -23
42 -9 0 -24 6 -35 14 -10 7 -30 12 -44 10 -25 -3 -26 -2 -25 51 1 33 -2 55 -9
55 -6 0 -7 3 -4 7 8 8 -33 38 -52 38 -8 0 -15 9 -17 19 -1 11 -6 31 -10 45 -4
14 -8 28 -8 31 -1 3 -4 10 -8 15 -3 6 -9 28 -14 50 -4 22 -13 49 -20 60 -8 11
-14 25 -14 32 0 7 -8 22 -17 33 -10 11 -16 22 -13 23 6 3 -60 99 -74 109 -6 4
-8 8 -4 8 9 0 -60 78 -106 120 -22 19 -58 53 -80 75 -22 22 -43 40 -47 40 -4
0 -20 11 -36 25 -16 14 -36 26 -44 28 -8 2 -21 10 -30 18 -8 8 -21 14 -27 14
-7 0 -12 4 -12 9 0 5 -10 13 -22 17 -13 3 -31 13 -40 22 -10 8 -18 11 -18 7 0
-5 -11 2 -25 15 -14 13 -25 20 -25 16 0 -5 -7 -3 -15 4 -8 7 -15 9 -15 5 0 -5
-9 0 -20 10 -11 10 -20 15 -20 11 0 -4 -7 0 -16 8 -8 9 -22 16 -30 16 -8 0
-14 5 -14 10 0 6 -8 10 -17 10 -20 0 -93 62 -93 79 0 6 -5 11 -11 11 -5 0 -7
5 -4 10 3 6 2 10 -3 10 -9 0 -38 115 -34 133 1 4 -2 7 -8 7 -5 0 -10 8 -10 18
0 31 -58 119 -102 153 -24 19 -51 41 -61 49 -10 8 -20 13 -24 12 -3 -2 -9 1
-12 6 -3 6 -13 12 -21 14 -8 2 -23 11 -34 20 -10 10 -23 15 -28 12 -4 -3 -8 0
-8 5 0 6 -3 10 -7 9 -5 -1 -18 3 -30 10 -13 7 -23 10 -23 7 0 -4 -7 1 -16 9
-13 14 -42 21 -66 17 -5 0 -8 3 -8 8 0 5 -8 8 -17 7 -9 -2 -34 0 -55 4 -21 4
-41 3 -44 -1z m1861 -1858 c10 -25 0 -21 -40 15 l-40 35 37 -18 c21 -10 40
-24 43 -32z"/>
</g>
</svg>
