<?xml version="1.0" standalone="no"?>
<!DOCTYPE svg PUBLIC "-//W3C//DTD SVG 20010904//EN"
 "http://www.w3.org/TR/2001/REC-SVG-20010904/DTD/svg10.dtd">
<svg version="1.0" xmlns="http://www.w3.org/2000/svg"
 width="440.000000pt" height="739.000000pt" viewBox="0 0 440.000000 739.000000"
 preserveAspectRatio="xMidYMid meet">
<metadata>
Created by potrace 1.13, written by Peter Selinger 2001-2015
</metadata>
<g transform="translate(0.000000,739.000000) scale(0.100000,-0.100000)"
fill="#000000" stroke="none">
<path d="M869 7327 c-78 -38 -109 -81 -109 -152 0 -27 -11 -97 -24 -155 -34
-142 -54 -269 -60 -365 -2 -44 -14 -109 -26 -145 -39 -121 -36 -222 10 -318
11 -23 20 -45 20 -50 0 -5 8 -20 19 -33 10 -13 21 -42 24 -64 2 -22 10 -71 17
-108 13 -65 12 -70 -11 -110 -21 -37 -24 -55 -24 -143 l0 -101 -35 18 c-19 9
-55 20 -80 24 -74 12 -80 18 -73 73 4 37 2 52 -12 65 -19 19 -85 23 -102 6 -7
-7 -13 9 -18 56 -9 86 -28 108 -92 104 -39 -3 -47 0 -61 24 -20 33 -58 49
-108 45 -31 -2 -40 -7 -42 -24 -2 -15 3 -23 17 -27 13 -3 21 -13 21 -27 0 -12
8 -34 19 -48 10 -15 24 -38 31 -51 12 -23 12 -23 -11 -7 -57 40 -154 -2 -147
-63 3 -23 9 -27 49 -31 41 -5 117 -50 141 -85 4 -5 -11 -21 -32 -35 -44 -28
-66 -61 -56 -85 4 -12 14 -16 32 -12 50 9 214 -80 290 -159 76 -79 219 -133
351 -134 41 0 75 -5 79 -11 7 -11 12 -102 14 -264 1 -57 17 -168 42 -300 21
-115 45 -246 53 -289 8 -44 19 -91 24 -105 6 -14 17 -48 25 -76 49 -179 128
-319 253 -453 23 -25 40 -48 38 -52 -3 -4 -24 -10 -47 -13 -84 -12 -164 -67
-187 -130 -23 -61 0 -181 40 -206 13 -9 26 -20 27 -24 9 -20 103 -127 165
-188 l68 -66 -29 -6 c-16 -3 -38 -4 -48 -1 -26 7 -74 72 -74 101 0 12 -4 23
-9 23 -5 0 -11 9 -14 20 -7 28 -71 53 -111 44 -40 -8 -56 -22 -56 -46 0 -17 5
-20 30 -14 27 5 30 3 30 -20 0 -14 5 -34 11 -45 9 -19 9 -19 -10 -10 -28 15
-67 70 -75 106 -4 17 -19 42 -34 58 -21 22 -34 27 -73 27 -111 0 -141 -28 -75
-69 19 -12 45 -35 58 -52 12 -17 36 -47 52 -65 15 -19 23 -34 17 -34 -16 0
-74 30 -86 45 -5 6 -29 26 -52 43 -27 21 -53 55 -74 98 -40 79 -65 98 -128 98
-55 0 -91 -18 -91 -44 0 -16 7 -20 35 -20 27 0 35 -4 35 -18 0 -11 9 -27 20
-37 11 -10 33 -38 48 -62 15 -23 30 -43 35 -43 4 0 7 -5 7 -10 0 -11 32 -60
60 -92 9 -9 36 -26 62 -38 50 -22 75 -45 59 -54 -23 -14 -217 -3 -269 15 -29
11 -63 19 -75 19 -13 0 -47 16 -76 35 -70 44 -98 50 -150 29 -50 -20 -81 -57
-81 -97 0 -28 2 -29 35 -24 19 3 37 2 40 -3 2 -4 26 -11 52 -14 27 -4 88 -23
137 -42 174 -70 430 -92 791 -68 164 11 215 0 243 -51 10 -16 20 -31 24 -33 4
-2 21 -47 38 -100 18 -53 40 -115 49 -137 10 -22 26 -60 36 -85 10 -25 25 -52
32 -61 7 -8 13 -28 13 -42 0 -23 4 -27 30 -27 23 0 33 7 45 30 19 37 20 124 1
143 -29 29 -56 83 -56 113 0 17 -5 46 -11 65 -10 33 -14 43 -38 102 -18 46
-13 66 35 129 l46 60 2 96 c1 80 -3 105 -20 143 -21 44 -21 46 -3 42 10 -3 19
-11 19 -18 0 -7 16 -30 36 -51 20 -22 50 -56 67 -78 18 -21 48 -57 67 -80 30
-36 83 -101 100 -124 3 -4 23 -20 45 -36 22 -16 54 -43 70 -60 34 -35 186
-155 260 -206 28 -19 69 -49 93 -67 24 -18 73 -49 110 -70 37 -20 71 -43 75
-50 4 -7 17 -13 27 -13 11 0 20 -3 20 -8 0 -4 15 -14 33 -23 125 -59 254 -124
265 -132 7 -5 52 -28 100 -51 219 -104 465 -257 569 -353 100 -93 172 -204
208 -323 9 -30 21 -64 27 -74 25 -47 57 -200 65 -311 11 -151 -45 -304 -174
-473 -74 -97 -121 -135 -211 -172 -105 -44 -182 -58 -300 -54 -180 6 -376 76
-482 171 -26 23 -52 43 -57 43 -5 0 -29 24 -53 54 -25 29 -57 62 -71 72 -15
10 -34 30 -44 46 -9 15 -23 28 -31 28 -8 0 -14 4 -14 10 0 5 -12 24 -27 41
-105 119 -129 150 -137 176 -4 12 -15 25 -25 28 -10 3 -27 21 -37 40 -10 19
-23 35 -29 35 -6 0 -15 10 -20 22 -6 13 -20 27 -32 32 -11 6 -28 25 -37 43 -9
18 -22 33 -30 33 -8 0 -18 9 -21 20 -4 11 -17 28 -31 36 -13 9 -24 22 -24 28
0 7 -12 25 -27 40 -16 14 -40 41 -55 59 -112 132 -193 217 -207 217 -6 0 -11
6 -11 14 0 8 -9 17 -19 21 -11 3 -26 17 -35 30 -9 14 -25 25 -36 25 -11 0 -20
6 -20 13 -1 12 -34 57 -43 57 -3 0 -27 21 -53 46 -27 26 -60 54 -74 62 -14 9
-29 22 -33 29 -4 7 -14 13 -21 13 -7 0 -23 11 -36 25 -13 14 -32 25 -41 25
-10 0 -23 8 -28 19 -6 10 -22 22 -36 25 -14 4 -25 13 -25 21 0 8 -5 15 -11 15
-10 0 -73 35 -177 97 -20 13 -46 27 -57 33 -11 6 -36 20 -55 32 -19 11 -69 39
-110 61 -41 22 -82 46 -91 53 -8 8 -21 14 -27 14 -7 0 -12 4 -12 8 0 5 -12 15
-28 22 -15 8 -39 22 -54 32 -14 10 -31 18 -37 18 -5 0 -22 11 -37 25 -15 14
-31 25 -36 25 -5 0 -24 11 -42 25 -18 14 -36 25 -41 25 -22 0 -200 159 -262
235 -55 67 -86 72 -91 15 -2 -20 2 -38 10 -45 7 -5 20 -23 28 -39 23 -45 203
-223 299 -296 18 -14 38 -30 44 -36 7 -6 36 -26 64 -46 29 -20 59 -42 66 -50
7 -7 28 -24 46 -38 18 -14 38 -30 44 -35 20 -17 91 -69 112 -82 11 -7 47 -28
80 -48 69 -40 94 -57 109 -68 82 -61 203 -147 208 -147 5 0 18 -9 30 -19 34
-28 161 -134 175 -146 7 -5 39 -35 71 -65 32 -30 76 -71 98 -91 52 -48 122
-124 164 -179 19 -24 55 -70 80 -100 25 -31 53 -67 62 -80 115 -161 200 -270
211 -270 4 0 7 -4 7 -9 0 -11 56 -97 83 -126 10 -11 31 -38 48 -60 51 -67 120
-147 187 -214 35 -36 73 -76 84 -90 11 -14 50 -49 86 -78 37 -29 74 -59 83
-68 9 -8 21 -15 27 -15 7 0 12 -5 12 -10 0 -14 246 -130 275 -130 8 0 15 -4
15 -9 0 -4 15 -11 33 -14 17 -3 64 -13 102 -21 119 -25 338 -39 398 -26 51 12
138 44 167 61 8 5 27 14 43 20 15 6 27 14 27 19 0 4 8 10 18 14 18 6 49 25 67
41 7 6 25 19 40 30 72 51 198 192 234 263 11 22 25 43 31 47 17 11 88 169 110
246 11 41 27 132 35 202 18 174 -2 378 -49 492 -41 97 -60 144 -71 175 -12 30
-24 54 -80 148 -5 10 -20 32 -32 49 -13 17 -23 37 -23 45 0 7 -16 30 -35 50
-19 20 -35 40 -35 43 0 10 -160 187 -189 210 -15 11 -30 25 -36 31 -5 6 -26
22 -45 35 -19 13 -42 29 -50 36 -35 28 -105 79 -134 97 -17 10 -39 26 -48 36
-10 10 -31 27 -48 36 -16 10 -30 22 -30 26 0 4 -4 8 -10 8 -5 0 -36 17 -69 38
-33 20 -83 51 -112 67 -28 17 -60 38 -70 47 -9 9 -37 27 -61 41 -130 73 -268
164 -298 196 -8 9 -39 35 -68 58 -29 23 -80 67 -114 98 l-61 56 39 -6 c22 -4
112 -25 200 -46 89 -21 174 -39 190 -39 32 0 130 -35 154 -54 8 -7 56 -25 105
-41 85 -26 139 -53 186 -93 42 -35 118 -141 121 -168 4 -38 39 -45 62 -12 17
24 23 162 8 184 -13 22 -209 151 -238 158 -16 4 -63 26 -104 50 -97 54 -198
97 -280 117 l-65 16 37 7 c66 14 258 -21 258 -46 0 -5 4 -8 10 -8 5 0 41 -20
79 -45 80 -52 108 -56 117 -21 13 54 -31 127 -96 161 -39 20 -131 45 -168 45
-47 0 -72 11 -72 31 0 11 -4 19 -10 19 -5 0 -10 9 -10 20 0 24 -45 70 -68 70
-45 -2 -179 -27 -199 -38 -35 -19 -53 -15 -53 13 0 14 -7 28 -15 31 -8 4 -15
15 -15 25 0 24 -20 24 -75 -1 -42 -19 -57 -19 -134 -4 -18 4 -21 8 -12 17 6 6
11 17 11 25 0 7 7 20 15 28 8 9 15 25 15 38 0 12 4 26 9 31 5 6 16 42 24 80 8
39 23 86 33 105 26 49 25 180 -2 235 -24 51 -73 78 -130 72 -47 -5 -178 -65
-223 -102 l-30 -26 -6 48 c-16 121 -115 475 -136 489 -5 3 -9 16 -9 30 0 13
-4 24 -10 24 -5 0 -10 9 -10 19 0 11 -4 23 -10 26 -5 3 -10 15 -10 27 0 25
-69 202 -81 206 -5 2 -9 15 -9 28 0 15 -6 24 -15 24 -8 0 -15 3 -16 8 0 4 -2
21 -3 37 -4 33 -41 125 -111 272 -25 52 -45 98 -45 103 0 4 -3 10 -7 12 -5 2
-25 37 -45 78 -21 41 -52 98 -68 125 -52 86 -54 94 -25 121 47 43 59 121 30
192 -16 37 -52 82 -66 82 -4 0 -24 16 -44 35 -21 19 -45 37 -55 40 -27 8 -34
129 -19 300 14 149 14 246 0 255 -5 3 -11 15 -15 28 -4 12 -12 22 -17 22 -5 0
-9 18 -9 40 0 93 -53 225 -125 310 -26 30 -54 64 -63 75 -10 11 -26 40 -37 65
-11 24 -44 80 -72 123 -29 43 -53 82 -53 87 0 18 -64 82 -101 101 -50 25 -103
24 -160 -4z m151 -181 c0 -3 -4 -8 -10 -11 -5 -3 -10 -1 -10 4 0 6 5 11 10 11
6 0 10 -2 10 -4z m-180 -146 l-11 -25 6 25 c2 14 5 34 6 45 2 19 2 19 6 0 2
-12 -1 -32 -7 -45z m216 -177 c-11 -11 -17 4 -9 23 7 18 8 18 11 1 2 -10 1
-21 -2 -24z m30 -120 c-11 -11 -24 9 -18 29 l5 22 9 -24 c5 -12 6 -25 4 -27z
m-69 15 c-3 -8 -6 -5 -6 6 -1 11 2 17 5 13 3 -3 4 -12 1 -19z m-77 -988 c0 -5
-5 -10 -11 -10 -5 0 -7 5 -4 10 3 6 8 10 11 10 2 0 4 -4 4 -10z m-292 -201
c-3 -8 -7 -3 -11 10 -4 17 -3 21 5 13 5 -5 8 -16 6 -23z m82 -52 c0 -4 -7 -2
-15 7 -8 8 -15 21 -15 28 1 14 30 -20 30 -35z m510 -299 c1 -36 43 -311 55
-357 15 -57 14 -84 -1 -69 -9 10 -33 120 -34 155 0 20 -8 40 -22 53 -13 12
-17 20 -9 20 17 0 10 152 -7 173 -12 14 -7 27 10 27 4 0 8 -1 8 -2z m83 -488
c3 -13 0 -20 -9 -20 -8 0 -14 2 -14 4 0 2 -3 11 -6 20 -4 10 -1 16 9 16 8 0
17 -9 20 -20z m17 -92 c0 -5 -4 -8 -10 -8 -5 0 -10 10 -10 23 0 18 2 19 10 7
5 -8 10 -18 10 -22z m56 -198 c32 -104 90 -262 116 -312 18 -38 18 -38 -2 -38
-15 0 -20 7 -20 28 0 15 -8 43 -18 62 -9 19 -24 55 -31 80 -8 25 -20 52 -27
60 -6 8 -19 42 -27 75 -9 33 -23 85 -31 115 -9 30 -16 69 -15 85 0 25 3 22 15
-20 8 -27 26 -88 40 -135z m197 -474 c4 -9 1 -16 -6 -16 -11 0 -57 103 -57
126 0 9 52 -81 63 -110z m647 -1006 c0 -5 -2 -10 -4 -10 -3 0 -8 5 -11 10 -3
6 -1 10 4 10 6 0 11 -4 11 -10z m46 -56 c-4 -9 -9 -15 -11 -12 -3 3 -3 13 1
22 4 9 9 15 11 12 3 -3 3 -13 -1 -22z m249 -24 c3 -5 1 -10 -4 -10 -6 0 -11 5
-11 10 0 6 2 10 4 10 3 0 8 -4 11 -10z m-165 -30 c0 -5 -4 -10 -10 -10 -5 0
-10 5 -10 10 0 6 5 10 10 10 6 0 10 -4 10 -10z m80 -91 c0 -15 -4 -19 -16 -15
-9 3 -18 6 -20 6 -2 0 -4 7 -4 15 0 8 9 15 20 15 14 0 20 -7 20 -21z m317 -65
c-3 -3 -12 -4 -19 -1 -8 3 -5 6 6 6 11 1 17 -2 13 -5z m106 -71 c-7 -2 -21 -2
-30 0 -10 3 -4 5 12 5 17 0 24 -2 18 -5z m-260 -10 c-7 -2 -19 -2 -25 0 -7 3
-2 5 12 5 14 0 19 -2 13 -5z m340 -37 c10 -8 14 -17 8 -20 -8 -5 -41 18 -41
30 0 8 15 3 33 -10z m77 -40 c0 -3 -4 -8 -10 -11 -5 -3 -10 -1 -10 4 0 6 5 11
10 11 6 0 10 -2 10 -4z m180 -286 c0 -5 -5 -10 -11 -10 -5 0 -7 5 -4 10 3 6 8
10 11 10 2 0 4 -4 4 -10z m420 -90 c0 -5 -10 -10 -22 -10 -19 0 -20 2 -8 10
19 13 30 13 30 0z m-210 -9 c0 -18 -17 -20 -36 -6 -18 14 -18 14 9 15 15 0 27
-4 27 -9z m66 -55 c10 -8 16 -17 12 -21 -4 -4 -17 2 -29 14 -26 24 -13 29 17
7z m81 -55 c7 -10 9 -22 6 -25 -6 -6 -32 23 -33 37 0 14 15 7 27 -12z m83 -67
c0 -12 -4 -12 -19 -2 -11 7 -18 15 -15 20 7 11 34 -3 34 -18z m337 -471 c-3
-10 -5 -4 -5 12 0 17 2 24 5 18 2 -7 2 -21 0 -30z m104 -390 c-8 -15 -10 -15
-11 -2 0 17 10 32 18 25 2 -3 -1 -13 -7 -23z"/>
<path d="M1612 6218 c2 -15 11 -24 26 -26 20 -3 23 0 20 20 -2 15 -11 24 -26
26 -20 3 -23 0 -20 -20z"/>
</g>
</svg>
