<?xml version="1.0" standalone="no"?>
<!DOCTYPE svg PUBLIC "-//W3C//DTD SVG 20010904//EN"
 "http://www.w3.org/TR/2001/REC-SVG-20010904/DTD/svg10.dtd">
<svg version="1.0" xmlns="http://www.w3.org/2000/svg"
 width="488.000000pt" height="479.000000pt" viewBox="0 0 488.000000 479.000000"
 preserveAspectRatio="xMidYMid meet">
<metadata>
Created by potrace 1.13, written by Peter Selinger 2001-2015
</metadata>
<g transform="translate(0.000000,479.000000) scale(0.100000,-0.100000)"
fill="#000000" stroke="none">
<path d="M2135 4080 c-2 -4 -18 -6 -35 -5 -16 1 -35 -4 -41 -11 -6 -8 -15 -11
-20 -8 -11 6 -92 -17 -100 -29 -3 -5 -9 -8 -13 -8 -26 4 -47 -1 -59 -14 -8 -8
-17 -11 -21 -8 -3 3 -12 0 -20 -6 -8 -7 -20 -10 -26 -6 -5 3 -10 3 -10 -2 0
-4 -18 -9 -40 -11 -22 -1 -52 -8 -67 -14 -16 -6 -31 -12 -34 -12 -3 -1 -12 -8
-21 -16 -24 -23 -70 -55 -77 -54 -3 1 -23 -10 -43 -22 -21 -13 -42 -24 -46
-24 -10 0 -51 -50 -51 -63 0 -4 -12 -20 -26 -35 -14 -15 -25 -33 -25 -40 0 -7
-10 -23 -22 -36 -13 -12 -35 -38 -49 -57 -15 -19 -36 -43 -46 -54 -11 -11 -18
-26 -15 -33 2 -6 -2 -12 -10 -12 -8 0 -6 -5 5 -11 18 -10 18 -12 1 -30 -9 -11
-29 -25 -43 -32 -14 -8 -42 -23 -63 -35 -20 -11 -39 -18 -42 -15 -3 4 -6 1 -6
-5 0 -7 -7 -12 -15 -12 -9 0 -33 -11 -54 -24 -32 -21 -38 -30 -36 -54 1 -16 5
-34 9 -40 7 -12 42 -8 60 8 7 5 15 8 18 5 3 -3 11 1 18 10 7 8 21 15 31 15 11
0 19 4 19 10 0 5 3 9 8 8 11 -2 45 13 65 30 9 8 17 12 17 8 0 -3 23 18 52 46
28 29 53 48 55 42 2 -7 18 -8 51 -2 26 5 55 9 64 9 10 0 20 5 23 10 4 5 11 7
16 4 5 -4 9 -2 9 4 0 6 23 13 50 17 28 4 50 11 50 16 0 5 5 6 11 2 6 -3 14 -1
18 5 4 6 22 13 41 16 18 2 37 10 41 17 5 7 9 9 9 5 0 -5 14 1 30 13 17 12 30
17 30 12 0 -9 51 -7 78 3 6 2 12 1 12 -3 0 -8 25 -11 88 -13 15 -1 22 -7 22
-21 0 -10 -4 -17 -8 -14 -11 7 -77 -73 -84 -102 -4 -15 -1 -25 12 -32 24 -13
30 -13 30 1 0 15 26 39 34 32 3 -4 6 -1 6 4 0 14 27 10 43 -6 9 -10 9 -11 -3
-7 -8 3 -20 2 -25 -2 -19 -13 -55 -69 -48 -76 3 -3 0 -6 -8 -6 -11 0 -11 -2 1
-10 22 -14 34 -12 58 10 12 12 22 18 22 14 0 -3 8 0 17 7 9 8 14 9 10 2 -4 -6
4 -20 19 -32 15 -12 23 -21 19 -21 -4 0 8 -13 28 -29 20 -15 34 -31 31 -33 -3
-3 13 -20 36 -38 22 -17 40 -29 40 -25 0 4 6 3 13 -2 6 -6 19 -10 27 -10 8 0
20 -2 25 -3 18 -6 85 12 85 22 0 5 5 6 10 3 6 -3 13 1 16 9 3 9 11 16 17 16
11 0 27 16 88 91 17 21 38 39 46 39 15 0 103 -86 103 -101 0 -5 4 -9 10 -9 5
0 9 -4 7 -8 -1 -4 32 -42 73 -83 80 -80 110 -115 110 -127 0 -4 14 -27 30 -51
16 -24 27 -47 24 -52 -3 -5 0 -9 6 -9 7 0 10 -7 6 -15 -3 -8 -1 -15 4 -15 6 0
10 -7 10 -15 0 -8 5 -15 11 -15 5 0 8 -4 5 -9 -3 -4 3 -31 13 -60 11 -28 17
-51 13 -51 -3 0 3 -6 13 -14 11 -8 16 -19 12 -30 -4 -10 -1 -19 8 -22 8 -4 12
-10 9 -15 -3 -5 1 -11 8 -14 8 -3 15 -13 16 -23 4 -37 23 -92 31 -92 4 0 7 -9
8 -20 1 -11 -3 -20 -8 -20 -10 0 -18 -7 -52 -47 -16 -18 -43 -97 -53 -153 -6
-35 -17 -59 -24 -55 -5 3 -6 14 -3 25 9 34 -57 83 -93 70 -16 -7 -24 -6 -24 1
0 13 -69 78 -84 80 -51 6 -63 5 -77 -8 -15 -12 -19 -12 -33 2 -9 9 -22 18 -29
19 -6 1 -21 6 -32 12 -24 11 -45 12 -62 1 -7 -5 -13 -5 -13 -1 0 4 -6 -1 -14
-12 -18 -23 -4 -44 30 -44 12 0 26 -4 29 -10 3 -5 2 -10 -4 -10 -17 0 0 -33
33 -63 17 -16 24 -25 16 -20 -8 4 -20 8 -26 9 -7 1 -26 15 -44 30 -18 16 -38
34 -44 39 -31 28 -87 27 -128 -2 -44 -30 -45 -34 -18 -58 11 -10 20 -13 20 -8
0 13 45 22 61 13 6 -4 9 -14 7 -21 -7 -20 47 -66 112 -97 67 -33 149 -92 150
-109 0 -7 4 -13 8 -13 5 0 14 -11 20 -24 10 -23 9 -25 -19 -31 -16 -4 -29 -10
-29 -13 0 -4 -16 -23 -35 -44 -30 -31 -32 -37 -17 -44 30 -13 40 -12 46 2 4
10 12 11 36 3 16 -6 37 -9 44 -6 8 3 17 3 20 -1 7 -6 10 -7 81 -17 45 -6 80
-13 80 -15 0 -4 45 -11 93 -14 64 -5 92 2 92 21 0 8 4 12 9 8 6 -3 15 4 21 15
6 11 15 20 21 20 16 0 41 29 35 39 -3 5 1 11 9 15 9 3 25 -8 42 -32 16 -20 31
-38 36 -40 4 -2 7 -10 7 -18 0 -8 5 -14 12 -14 6 0 8 -3 5 -7 -4 -3 -2 -12 3
-18 5 -7 12 -34 14 -61 3 -27 5 -51 6 -54 1 -3 2 -13 1 -23 -1 -9 2 -17 8 -17
6 0 9 -13 7 -30 -2 -16 0 -30 4 -30 4 0 8 -17 8 -37 3 -74 4 -83 16 -83 7 0 7
-3 1 -8 -6 -4 -11 -43 -12 -87 -1 -108 -6 -155 -17 -155 -5 0 -3 -7 4 -15 10
-12 10 -15 0 -15 -8 0 -10 -3 -7 -6 3 -4 0 -16 -8 -26 -7 -11 -11 -27 -8 -34
3 -8 0 -14 -6 -14 -6 0 -8 -7 -5 -15 4 -8 1 -15 -6 -15 -6 0 -9 -4 -6 -8 3 -5
-4 -18 -14 -30 -11 -12 -20 -26 -20 -31 0 -5 -22 -32 -50 -60 -27 -28 -50 -48
-50 -45 0 6 -25 -14 -47 -38 -9 -9 -20 -15 -24 -13 -4 3 -12 -2 -19 -10 -7 -8
-19 -15 -26 -15 -8 0 -14 -4 -14 -10 0 -5 -3 -9 -7 -8 -5 1 -20 -4 -36 -10
-15 -7 -40 -14 -55 -17 -38 -8 -57 -13 -57 -15 0 -5 -47 -11 -90 -12 -27 0
-54 -4 -60 -8 -15 -10 -95 -9 -95 2 0 5 -4 6 -10 3 -5 -3 -48 7 -94 24 -47 16
-87 26 -90 23 -3 -3 -6 -1 -6 5 0 6 -8 13 -17 17 -41 13 -180 116 -159 116 4
0 -9 16 -27 35 -19 20 -48 55 -63 78 -16 23 -37 51 -46 61 -10 11 -19 23 -19
28 -1 4 -2 11 -3 16 0 4 -11 21 -22 37 -33 47 -55 95 -49 105 4 6 -1 13 -9 16
-9 3 -16 14 -16 24 0 11 -5 22 -10 25 -6 4 -8 11 -5 16 4 5 2 9 -3 9 -12 0
-45 50 -45 67 0 7 -3 13 -7 13 -3 0 -5 14 -4 30 1 17 -2 30 -7 30 -5 0 -9 10
-9 23 0 13 -4 27 -9 33 -5 5 -11 18 -13 29 -1 11 -6 22 -10 25 -4 3 -9 16 -11
28 -2 12 -6 24 -9 28 -4 3 -4 12 -1 20 3 8 0 14 -6 14 -6 0 -11 7 -11 15 0 8
-5 15 -11 15 -5 0 -7 5 -4 10 3 5 1 10 -4 10 -6 0 -11 7 -11 15 0 8 -5 15 -11
15 -5 0 -8 4 -4 9 3 6 0 13 -7 18 -7 4 -22 25 -32 45 -11 21 -23 38 -28 38 -4
0 -8 7 -8 15 0 8 -5 15 -11 15 -5 0 -8 4 -4 9 3 5 1 12 -5 16 -5 3 -10 14 -10
24 0 9 -8 26 -18 37 -20 22 -52 70 -54 81 0 5 -8 13 -17 20 -9 7 -12 13 -7 13
5 0 -12 16 -38 35 -25 20 -46 42 -46 49 0 19 -117 134 -143 141 -39 11 -67 28
-67 40 0 7 -7 18 -15 25 -12 10 -15 10 -15 0 0 -12 -91 55 -98 72 -2 5 -9 8
-16 8 -8 0 -25 9 -38 20 -14 10 -28 16 -32 13 -3 -3 -6 -1 -6 6 0 7 -4 10 -8
7 -5 -3 -18 3 -29 13 -11 10 -34 22 -51 26 -18 3 -32 10 -32 15 0 4 -11 11
-25 14 -14 4 -25 11 -25 16 0 6 -10 10 -22 10 -12 0 -29 7 -39 16 -9 8 -26 16
-38 17 -11 1 -21 6 -21 11 0 5 -3 7 -6 4 -8 -9 -110 35 -136 58 -13 11 -49 37
-80 57 -31 21 -62 44 -68 52 -7 8 -16 12 -21 9 -5 -3 -9 0 -9 6 0 8 -6 8 -20
0 -21 -11 -28 -40 -10 -40 6 0 9 -4 8 -9 -3 -9 6 -18 83 -83 24 -20 55 -46 68
-57 13 -12 30 -21 36 -21 7 0 18 -7 25 -15 7 -9 15 -13 17 -11 3 2 13 -3 24
-12 11 -9 23 -16 27 -15 4 1 15 -6 25 -14 9 -9 17 -12 17 -8 0 5 11 -2 25 -15
14 -13 25 -20 25 -15 0 4 9 0 20 -10 11 -10 20 -15 20 -10 0 4 7 1 16 -6 22
-18 53 -36 87 -50 15 -6 27 -15 27 -20 0 -5 6 -9 13 -9 8 0 23 -8 34 -17 11
-10 40 -34 64 -55 24 -20 55 -46 69 -58 14 -12 40 -33 57 -48 18 -14 31 -27
29 -29 -2 -3 14 -22 35 -44 21 -22 39 -42 39 -45 0 -3 9 -14 20 -26 10 -12 17
-25 14 -29 -2 -4 4 -14 13 -21 10 -7 25 -26 33 -43 8 -16 21 -36 28 -43 7 -8
10 -17 7 -22 -2 -4 6 -19 20 -34 13 -14 22 -26 19 -26 -2 0 3 -11 12 -25 9
-14 12 -25 8 -25 -5 0 -2 -5 6 -10 8 -5 16 -14 16 -20 1 -5 3 -12 4 -15 1 -3
3 -8 4 -12 1 -5 7 -17 13 -28 6 -11 13 -29 14 -40 2 -11 7 -22 11 -25 4 -3 9
-16 11 -28 2 -12 6 -24 9 -28 4 -3 4 -12 1 -20 -3 -8 0 -14 6 -14 6 0 10 -3 9
-7 0 -5 2 -15 5 -23 4 -8 8 -26 10 -40 2 -14 9 -36 14 -50 6 -14 9 -28 6 -32
-2 -5 1 -8 6 -8 6 0 11 -7 11 -15 0 -9 8 -30 17 -48 9 -18 18 -40 20 -50 2
-10 10 -31 18 -47 8 -16 15 -36 15 -45 0 -8 5 -15 10 -15 6 0 9 -3 8 -8 -1 -7
14 -50 32 -87 5 -11 14 -31 20 -45 5 -14 23 -47 40 -75 16 -27 39 -70 52 -94
20 -38 43 -67 121 -151 7 -8 25 -24 38 -35 24 -20 122 -102 167 -140 13 -11
27 -19 30 -18 4 1 14 -4 22 -10 28 -23 80 -48 108 -53 14 -3 29 -9 32 -15 4
-5 26 -12 50 -15 24 -4 64 -15 88 -25 25 -11 61 -22 81 -25 20 -3 39 -8 43
-11 9 -5 138 -16 178 -15 14 0 36 3 50 7 14 4 33 7 43 7 9 -1 17 3 17 7 0 5
10 7 23 7 12 -1 27 0 32 3 6 3 12 6 15 7 8 1 43 15 98 40 28 12 52 20 52 16 0
-4 4 -2 8 3 4 6 18 16 32 23 55 27 103 59 112 75 5 10 13 15 19 12 5 -4 9 -2
9 3 0 13 55 72 68 72 7 0 12 4 12 9 0 5 34 44 75 86 41 42 75 81 75 88 0 7 13
26 28 42 16 17 27 36 24 43 -2 6 1 12 7 12 6 0 11 7 11 15 0 8 4 15 8 15 7 0
34 44 36 60 1 3 5 11 9 17 5 7 5 13 1 13 -3 0 0 10 8 23 7 12 13 34 13 49 -1
16 2 28 5 28 5 0 9 21 10 63 1 15 6 18 28 12 15 -4 38 -9 51 -11 14 -3 28 -7
33 -10 4 -3 21 2 39 11 30 16 61 26 87 27 6 1 12 5 12 10 0 4 6 8 13 8 6 0 23
14 37 30 14 17 44 50 68 74 34 35 40 45 29 54 -15 13 -87 -2 -87 -18 0 -6 -9
-10 -19 -10 -11 0 -22 -6 -25 -12 -3 -7 -3 -3 0 9 2 12 6 30 8 40 2 10 13 47
25 82 11 35 18 67 15 72 -3 5 -1 9 4 9 9 0 38 60 49 100 19 68 -1 101 -64 105
-34 2 -37 5 -41 36 -2 19 -7 36 -11 39 -4 3 -16 21 -27 40 -10 19 -31 45 -46
58 -24 20 -27 29 -22 65 2 22 7 43 9 46 3 2 0 10 -6 18 -6 7 -8 13 -3 13 5 0
9 27 9 60 0 33 -2 60 -6 60 -3 0 -5 25 -4 56 1 30 -2 57 -6 60 -4 2 -6 16 -3
29 2 14 1 25 -3 25 -5 0 -9 26 -11 58 -8 162 -10 189 -21 215 -6 15 -10 31
-10 35 1 4 0 9 -1 12 -1 3 -3 19 -5 35 -1 17 -3 30 -5 30 -1 0 -3 11 -4 25 -4
37 -17 74 -30 82 -6 4 -11 15 -12 25 0 10 -9 36 -19 58 -10 22 -18 44 -17 48
3 10 -60 131 -70 135 -5 2 -8 10 -8 17 0 7 -7 16 -16 19 -9 4 -14 9 -11 12 3
3 -13 25 -36 49 -23 24 -49 52 -58 62 -9 10 -27 26 -40 36 -79 59 -202 176
-208 197 -2 8 -5 23 -6 33 -1 10 -6 22 -12 25 -6 4 -13 17 -17 28 -8 26 -62
84 -77 84 -6 0 -17 7 -26 16 -9 8 -25 14 -37 12 -11 -1 -27 1 -33 5 -7 5 -13
5 -13 0 0 -15 -125 -7 -180 12 -60 21 -64 22 -84 24 -8 0 -21 7 -28 14 -7 6
-19 13 -25 14 -6 1 -26 5 -43 8 -18 3 -53 18 -79 32 -25 15 -59 34 -76 42 -16
9 -41 24 -54 33 -13 10 -28 15 -33 12 -4 -3 -8 0 -8 6 0 6 -4 9 -9 5 -5 -3
-12 -1 -16 5 -4 6 -10 8 -15 5 -5 -3 -11 -1 -15 5 -4 6 -11 8 -16 5 -5 -4 -9
-2 -9 4 0 5 -8 8 -17 6 -10 -1 -23 1 -28 6 -23 17 -171 34 -180 19z m75 -557
c25 -11 62 -23 83 -27 38 -7 38 -8 21 -27 -10 -11 -22 -16 -28 -11 -6 4 -24 8
-41 8 -19 -1 -41 9 -59 25 -22 20 -44 28 -89 34 -34 3 -56 10 -49 13 22 15
117 6 162 -15z m-220 7 c0 -5 -4 -10 -10 -10 -5 0 -10 5 -10 10 0 6 5 10 10
10 6 0 10 -4 10 -10z m667 -1215 c0 -8 -4 -12 -9 -9 -5 3 -6 10 -3 15 9 13 12
11 12 -6z m1353 -515 c0 -5 -2 -10 -4 -10 -3 0 -8 5 -11 10 -3 6 -1 10 4 10 6
0 11 -4 11 -10z"/>
</g>
</svg>
