<?xml version="1.0" standalone="no"?>
<!DOCTYPE svg PUBLIC "-//W3C//DTD SVG 20010904//EN"
 "http://www.w3.org/TR/2001/REC-SVG-20010904/DTD/svg10.dtd">
<svg version="1.0" xmlns="http://www.w3.org/2000/svg"
 width="264.000000pt" height="328.000000pt" viewBox="0 0 264.000000 328.000000"
 preserveAspectRatio="xMidYMid meet">
<metadata>
Created by potrace 1.13, written by Peter Selinger 2001-2015
</metadata>
<g transform="translate(0.000000,328.000000) scale(0.100000,-0.100000)"
fill="#000000" stroke="none">
<path d="M1357 3248 c-18 -18 -41 -46 -51 -62 -10 -16 -41 -50 -68 -75 -28
-25 -54 -55 -58 -66 -4 -11 -6 22 -4 73 4 86 3 92 -16 92 -27 0 -90 -66 -90
-95 0 -8 -8 -15 -19 -15 -38 0 -44 -21 -42 -140 0 -8 -2 -37 -5 -64 -6 -44 -4
-51 22 -73 l29 -25 -61 7 c-66 8 -144 -5 -201 -31 -64 -31 -53 -96 29 -168
l49 -43 -93 -7 c-116 -8 -174 -23 -267 -70 -154 -77 -257 -179 -331 -329 -65
-129 -80 -217 -56 -321 9 -37 16 -81 16 -97 0 -16 11 -60 24 -98 l24 -68 -67
5 c-52 3 -71 1 -83 -11 -30 -30 -40 -124 -33 -292 4 -88 7 -206 8 -262 2 -111
7 -121 55 -87 17 12 22 25 22 59 0 67 16 55 83 -64 22 -40 41 -61 56 -61 6 0
11 -12 11 -26 0 -21 4 -25 22 -22 21 3 23 8 23 70 0 36 3 64 7 61 5 -2 8 -11
8 -19 0 -8 9 -14 20 -14 16 0 20 7 20 35 0 39 -32 110 -52 118 -7 3 4 6 25 6
29 1 37 5 37 20 0 19 -58 61 -84 61 -8 0 -11 12 -8 36 l4 36 -43 -7 c-23 -4
-49 -14 -57 -21 -7 -8 -14 -14 -16 -14 -4 0 11 124 19 152 l7 28 82 -42 c44
-23 104 -56 131 -73 152 -94 341 -165 445 -166 109 -2 617 19 632 25 21 9 48
66 48 99 0 51 -63 102 -240 193 -41 21 -83 48 -92 60 -19 23 -51 38 -113 53
-22 5 -71 20 -110 34 -38 13 -104 30 -145 37 -77 13 -103 25 -85 38 6 4 19 26
29 50 16 35 24 42 48 42 15 0 28 3 28 8 0 4 79 8 175 10 153 3 175 1 175 -12
0 -9 -4 -16 -10 -16 -5 0 -10 -18 -10 -40 0 -33 3 -40 20 -40 11 0 25 9 32 20
7 11 18 20 25 20 7 0 15 15 19 34 3 19 17 56 30 82 39 77 26 147 -32 179 -43
23 -44 35 -1 25 133 -34 168 -45 217 -67 76 -35 146 -91 206 -165 6 -8 40 -72
75 -144 35 -71 67 -130 72 -132 4 -2 7 -8 7 -14 0 -18 59 -138 92 -186 17 -26
47 -64 67 -84 20 -20 50 -51 66 -68 17 -18 43 -41 59 -53 15 -12 39 -32 52
-45 12 -12 27 -22 33 -22 5 0 11 -3 13 -8 2 -4 23 -23 48 -42 40 -30 118 -107
160 -157 45 -53 60 -86 71 -152 11 -64 10 -80 -6 -129 -30 -96 -91 -177 -185
-248 -96 -72 -165 -104 -310 -148 -120 -36 -265 -30 -410 17 -55 18 -297 147
-333 178 -34 28 -133 99 -140 99 -4 0 -18 9 -30 21 -43 40 -233 161 -312 199
-150 70 -176 80 -248 96 -196 41 -407 38 -407 -7 0 -17 7 -19 53 -19 28 1 120
-7 203 -18 119 -16 165 -27 219 -51 37 -17 74 -31 81 -31 8 0 14 -4 14 -9 0
-5 15 -15 34 -21 19 -6 36 -14 38 -18 3 -6 60 -46 187 -131 20 -13 38 -28 39
-33 2 -4 10 -8 18 -8 8 0 14 -4 14 -10 0 -5 4 -10 10 -10 9 0 40 -23 74 -56 6
-5 19 -13 29 -17 9 -3 17 -11 17 -17 0 -5 4 -10 10 -10 11 0 133 -82 138 -92
2 -5 8 -8 13 -8 6 0 48 -22 95 -50 47 -27 88 -50 93 -50 4 0 21 -7 37 -14 67
-34 147 -46 305 -46 159 0 221 9 362 54 128 41 327 207 380 316 71 148 84 312
34 422 -24 50 -88 145 -108 158 -4 3 -66 61 -139 130 -73 69 -136 127 -141
128 -5 2 -9 9 -9 15 0 7 -11 22 -25 35 -40 38 -134 235 -180 380 -25 75 -45
142 -45 148 0 22 -102 209 -121 223 -10 7 -19 22 -19 33 0 21 -69 130 -115
183 -45 51 -101 109 -133 137 -34 30 -159 108 -173 108 -5 0 -17 4 -27 9 -9 5
-38 17 -65 26 -26 9 -52 26 -59 38 -15 28 -75 85 -110 103 -16 8 -28 16 -28
18 0 2 19 13 43 25 45 23 79 43 87 52 3 3 23 13 45 23 22 10 49 29 60 42 11
12 29 24 40 26 12 2 21 12 23 26 3 21 0 22 -65 22 -65 0 -69 -1 -95 -32 -14
-18 -29 -31 -32 -28 -7 8 22 152 34 164 5 5 10 16 10 23 0 19 41 73 56 73 6 0
25 16 40 35 16 20 39 47 52 61 12 14 22 32 22 40 0 12 8 13 35 8 32 -6 35 -4
35 19 0 27 -20 37 -78 37 -24 0 -42 -9 -65 -32z m-267 -194 c0 -8 -5 -12 -10
-9 -6 4 -8 11 -5 16 9 14 15 11 15 -7z m-148 -1069 c5 -23 2 -24 -46 -27 -44
-3 -51 -6 -54 -25 -3 -19 1 -23 22 -23 16 0 26 -6 26 -15 0 -9 -9 -15 -23 -15
-12 0 -33 -7 -46 -17 -19 -13 -28 -14 -42 -5 -26 16 -64 15 -99 -3 -37 -19
-38 -8 -5 31 14 16 28 37 31 47 3 9 10 17 15 17 5 0 23 10 39 22 29 21 81 34
146 37 26 1 32 -3 36 -24z m-63 -201 c2 -2 -12 -4 -33 -4 -22 0 -35 4 -31 10
5 9 52 4 64 -6z"/>
</g>
</svg>
