<?xml version="1.0" standalone="no"?>
<!DOCTYPE svg PUBLIC "-//W3C//DTD SVG 20010904//EN"
 "http://www.w3.org/TR/2001/REC-SVG-20010904/DTD/svg10.dtd">
<svg version="1.0" xmlns="http://www.w3.org/2000/svg"
 width="684.000000pt" height="479.000000pt" viewBox="0 0 684.000000 479.000000"
 preserveAspectRatio="xMidYMid meet">
<metadata>
Created by potrace 1.13, written by Peter Selinger 2001-2015
</metadata>
<g transform="translate(0.000000,479.000000) scale(0.100000,-0.100000)"
fill="#000000" stroke="none">
<path d="M2995 4082 c-2 -2 -27 -6 -55 -7 -27 -1 -56 -8 -63 -14 -8 -6 -17 -8
-20 -5 -8 8 -137 -17 -137 -26 0 -4 -14 -7 -31 -8 -45 -1 -89 -12 -89 -22 0
-5 -7 -7 -15 -4 -8 4 -22 1 -30 -6 -8 -7 -22 -10 -30 -6 -8 3 -15 2 -15 -2 0
-4 -25 -8 -56 -9 -31 -2 -75 -8 -98 -15 -22 -6 -47 -13 -55 -14 -8 -1 -17 -7
-20 -12 -3 -5 -16 -12 -28 -16 -13 -4 -23 -11 -23 -16 0 -7 -29 -17 -57 -21
-5 -1 -32 -12 -62 -25 -29 -13 -60 -24 -68 -24 -7 0 -16 -7 -19 -15 -4 -8 -10
-15 -15 -15 -6 0 -19 -9 -31 -20 -12 -11 -18 -20 -13 -20 7 0 -27 -33 -50 -48
-6 -4 -16 -19 -22 -34 -7 -15 -23 -30 -36 -33 -14 -4 -30 -16 -36 -28 -7 -12
-27 -32 -46 -45 -19 -12 -35 -27 -35 -32 0 -6 -7 -10 -15 -10 -9 0 -12 -6 -9
-15 4 -10 0 -15 -12 -16 -13 0 -10 -4 9 -11 l28 -10 -35 -24 c-19 -13 -40 -24
-45 -24 -10 0 -79 -29 -124 -52 -10 -5 -22 -6 -27 -3 -6 4 -10 1 -10 -4 0 -6
-11 -11 -25 -11 -14 0 -33 -4 -43 -10 -9 -5 -34 -17 -54 -26 -36 -15 -51 -34
-28 -34 6 0 10 -7 10 -15 0 -8 -6 -15 -12 -15 -7 0 -3 -7 8 -15 22 -15 62 -12
96 6 10 5 18 7 18 3 0 -3 11 1 25 10 13 9 36 16 50 16 14 0 25 5 25 11 0 5 4
8 10 4 5 -3 17 -2 27 4 41 21 79 34 91 32 6 -1 12 3 12 9 0 6 11 15 25 20 14
5 25 13 25 18 0 13 83 57 87 46 2 -6 28 -7 71 -2 37 5 76 9 87 9 10 0 25 5 32
10 6 6 17 8 23 4 5 -3 10 -2 10 4 0 5 32 13 70 17 39 3 70 11 70 16 0 6 8 7
17 4 9 -4 19 -2 23 3 3 6 30 12 59 15 30 3 57 9 60 13 3 4 13 9 21 11 8 2 27
9 43 17 15 7 27 10 27 5 0 -8 92 -4 118 5 6 2 12 1 12 -3 0 -6 56 -13 123 -14
20 -1 27 -6 27 -20 0 -11 -4 -17 -9 -13 -5 3 -22 -7 -38 -21 -15 -15 -38 -33
-50 -41 -13 -9 -23 -24 -23 -34 0 -11 -6 -19 -12 -19 -16 -1 7 -15 40 -24 16
-6 22 -3 22 8 0 9 7 16 15 16 8 0 15 5 15 11 0 6 7 9 15 5 8 -3 15 -2 15 3 0
10 49 6 61 -6 4 -4 -5 -8 -20 -9 -27 -1 -113 -73 -88 -75 7 0 3 -4 -8 -8 -17
-7 -16 -8 9 -15 28 -7 86 11 86 28 0 4 7 6 15 3 8 -4 17 -2 20 3 4 6 12 10 18
9 7 0 6 -3 -2 -6 -9 -4 -1 -13 25 -29 21 -13 35 -24 29 -24 -5 0 2 -7 18 -15
15 -8 39 -21 53 -29 14 -8 20 -16 14 -18 -11 -3 83 -61 105 -64 6 -1 15 -3 20
-4 6 -2 21 -4 35 -6 14 -1 32 -4 40 -5 26 -5 120 13 120 23 0 5 4 7 9 3 5 -3
16 2 24 10 9 8 23 15 32 15 8 0 18 7 21 15 4 8 11 15 16 15 6 0 24 14 40 30
15 17 31 30 34 30 2 0 14 9 26 20 24 22 62 26 81 10 7 -6 27 -24 46 -40 19
-17 41 -30 48 -30 7 0 13 -7 13 -15 0 -8 8 -15 18 -15 13 0 14 -2 3 -9 -11 -7
-9 -10 8 -16 11 -3 21 -11 21 -16 0 -5 7 -9 15 -9 8 0 23 -9 32 -20 10 -11 23
-20 30 -20 7 0 13 -4 13 -10 0 -5 5 -10 10 -10 12 0 27 -11 76 -57 19 -18 39
-33 44 -33 6 0 10 -6 10 -13 0 -8 18 -33 40 -56 22 -23 38 -46 35 -52 -4 -5 1
-9 9 -9 19 0 21 -16 4 -23 -8 -3 -6 -6 5 -6 9 -1 17 -8 17 -16 0 -8 8 -15 18
-15 14 0 14 -2 3 -9 -12 -8 -12 -12 2 -26 10 -9 17 -23 17 -31 0 -9 7 -22 15
-31 8 -8 13 -18 10 -23 -3 -5 4 -11 15 -15 22 -7 28 -34 8 -36 -7 0 1 -7 17
-14 17 -8 23 -14 15 -15 -11 0 -10 -4 5 -13 11 -7 22 -21 23 -32 2 -11 9 -23
15 -27 8 -5 7 -8 -3 -8 -12 -1 -11 -3 3 -11 9 -5 17 -17 17 -24 0 -8 6 -15 13
-15 7 0 13 -9 14 -20 1 -14 -4 -20 -18 -20 -10 0 -19 -4 -19 -10 0 -5 -4 -10
-10 -10 -25 0 -77 -67 -89 -115 -7 -27 -18 -53 -24 -57 -9 -6 -9 -10 1 -17 11
-7 11 -9 -2 -14 -9 -4 -16 -14 -16 -23 0 -8 -6 -14 -12 -11 -7 2 -12 14 -10
26 6 40 -75 86 -127 71 -24 -7 -31 -6 -31 6 0 8 -7 14 -15 14 -8 0 -15 5 -15
10 0 6 -7 10 -15 10 -8 0 -15 3 -15 8 0 13 -61 35 -104 37 -23 2 -51 -3 -63
-11 -28 -17 -28 -17 -47 2 -9 8 -26 16 -39 18 -13 1 -28 6 -35 10 -21 12 -86
15 -100 4 -7 -6 -15 -8 -18 -5 -3 3 -13 -2 -23 -11 -15 -15 -15 -18 -1 -29 8
-7 29 -13 47 -13 17 0 35 -4 38 -10 3 -5 2 -10 -3 -10 -23 0 3 -42 33 -54 18
-8 36 -20 41 -27 6 -11 5 -12 -7 -3 -8 6 -25 11 -38 12 -13 0 -27 5 -30 9 -3
4 -16 14 -28 21 -13 6 -33 18 -45 25 -13 6 -25 14 -28 17 -6 6 -30 10 -80 15
-36 3 -140 -37 -140 -54 0 -13 48 -42 52 -32 3 9 42 14 82 12 13 -1 17 -6 13
-21 -3 -13 0 -20 9 -20 8 0 14 -3 14 -7 0 -14 93 -61 155 -78 33 -10 71 -25
85 -35 14 -9 44 -25 67 -36 23 -10 43 -23 43 -27 0 -4 12 -20 27 -35 l27 -27
-39 -9 c-35 -8 -61 -24 -107 -68 -10 -10 -24 -18 -30 -18 -7 0 0 -7 15 -15 31
-16 45 -16 64 2 9 8 23 9 46 2 17 -5 46 -9 62 -9 17 1 44 -1 60 -4 17 -2 59
-7 95 -11 88 -10 105 -12 105 -15 0 -9 190 -20 227 -13 16 3 28 12 28 20 0 10
6 13 15 9 9 -3 23 3 32 14 10 11 25 20 35 20 10 0 18 5 18 10 0 6 7 10 16 10
10 0 14 6 11 14 -8 20 22 29 42 14 9 -7 28 -25 42 -40 14 -16 31 -28 37 -28 7
0 12 -7 12 -15 0 -8 5 -15 11 -15 5 0 8 -4 4 -9 -3 -6 1 -14 10 -18 9 -5 16
-27 18 -57 2 -27 10 -52 18 -57 10 -6 10 -9 2 -9 -7 0 -13 -7 -13 -15 0 -8 7
-15 15 -15 10 0 14 -9 11 -30 -2 -16 1 -30 5 -30 5 0 7 -13 4 -29 -3 -20 1
-35 12 -47 13 -12 14 -19 5 -22 -18 -6 -15 -20 6 -25 14 -4 14 -5 -3 -6 -17
-1 -18 -3 -5 -11 13 -9 13 -11 0 -20 -13 -9 -13 -10 0 -10 13 0 13 -1 0 -10
-13 -9 -13 -11 0 -20 13 -9 13 -10 0 -10 -12 0 -13 -2 -1 -9 11 -7 11 -9 0
-14 -12 -4 -11 -7 1 -16 13 -10 13 -11 0 -11 -13 0 -13 -1 0 -10 12 -8 12 -12
3 -18 -7 -4 -14 -25 -15 -45 -2 -20 -7 -37 -12 -37 -5 0 -3 -7 4 -15 9 -11 9
-15 1 -15 -7 0 -10 -4 -7 -8 3 -5 -4 -16 -14 -25 -11 -9 -17 -23 -14 -32 4
-10 0 -15 -12 -16 -11 0 -14 -3 -6 -6 17 -7 15 -23 -3 -23 -8 0 -14 -3 -13 -7
3 -16 -15 -43 -28 -43 -8 0 -14 -4 -14 -10 0 -14 -33 -50 -46 -50 -6 0 -23
-11 -38 -25 -15 -14 -31 -25 -37 -25 -5 0 -9 -4 -9 -10 0 -5 -7 -7 -15 -4 -8
4 -15 1 -15 -4 0 -6 -10 -14 -22 -18 -13 -4 -26 -11 -29 -16 -3 -4 -16 -11
-29 -13 -13 -2 -28 -9 -34 -15 -5 -5 -18 -10 -28 -10 -10 0 -18 -5 -18 -10 0
-6 -6 -10 -12 -9 -7 2 -31 -3 -53 -9 -22 -6 -56 -14 -75 -16 -19 -3 -46 -8
-60 -11 -41 -10 -91 -16 -160 -20 -36 -3 -95 -7 -132 -9 -42 -3 -68 -1 -68 5
0 6 -8 8 -18 5 -10 -4 -63 5 -116 19 -54 14 -109 26 -122 27 -13 1 -24 6 -24
10 0 4 -11 8 -24 8 -13 0 -29 7 -36 15 -7 8 -21 15 -31 15 -10 0 -38 11 -61
25 -24 14 -51 28 -60 32 -10 3 -18 9 -18 14 0 5 -8 9 -17 9 -14 0 -15 2 -4 9
11 7 9 10 -7 15 -11 4 -44 29 -73 56 -30 28 -56 50 -60 50 -4 0 -11 9 -14 20
-3 11 -11 20 -16 20 -13 0 -51 39 -53 56 -1 7 -19 29 -39 49 -20 20 -37 40
-37 45 0 5 -7 16 -17 25 -13 14 -14 18 -3 25 10 6 7 10 -13 15 -17 5 -27 14
-27 25 0 11 -5 22 -10 25 -6 4 -8 11 -5 16 4 5 0 9 -7 9 -18 0 -70 59 -62 71
3 5 -3 9 -13 10 -10 0 -13 3 -5 6 6 2 12 11 12 19 0 8 -6 14 -12 14 -9 0 -8 4
2 10 13 8 12 10 -2 10 -12 0 -18 8 -18 21 0 12 -7 27 -15 33 -9 6 -17 21 -18
34 0 12 -7 22 -14 22 -7 0 -14 7 -14 15 -3 32 -4 36 -19 45 -10 7 -11 10 -2
10 6 0 12 5 12 10 0 6 -7 10 -15 10 -8 0 -15 7 -15 15 0 8 -8 15 -17 15 -15 0
-16 2 -3 10 13 8 12 10 -2 10 -10 0 -18 7 -18 15 0 8 -7 15 -16 15 -8 0 -12 5
-9 11 4 6 -2 13 -14 16 -12 3 -21 11 -21 18 0 15 -45 65 -60 65 -5 0 -10 7
-10 15 0 8 -8 15 -17 15 -14 0 -15 2 -5 9 11 7 11 9 -2 14 -9 4 -16 15 -16 24
0 19 -32 53 -49 53 -6 0 -13 9 -16 20 -3 11 -15 25 -26 31 -11 5 -17 14 -14
18 2 5 -5 11 -16 14 -12 3 -19 10 -16 14 3 5 -19 22 -50 38 -30 16 -58 36 -61
45 -8 20 -20 32 -64 59 -21 12 -38 27 -38 32 0 5 -7 9 -15 9 -8 0 -15 3 -15 8
0 8 -73 42 -92 42 -24 0 -78 25 -78 36 0 18 -30 40 -38 27 -5 -7 -24 -1 -57
18 -27 17 -58 32 -67 36 -10 3 -18 9 -18 14 0 5 -8 9 -18 9 -9 0 -34 9 -54 19
-19 11 -39 17 -42 14 -3 -4 -6 -1 -6 6 0 6 -6 11 -12 9 -18 -3 -58 12 -58 21
0 5 -22 11 -50 15 -27 4 -50 11 -50 15 0 5 -16 12 -35 15 -19 4 -35 11 -35 16
0 6 -15 10 -33 10 -18 0 -42 7 -55 15 -12 9 -35 17 -52 18 -16 1 -30 6 -30 10
0 5 -4 6 -8 3 -20 -12 -212 57 -212 76 0 5 -4 8 -10 8 -14 0 -140 60 -171 81
-14 10 -29 15 -33 11 -4 -3 -10 -1 -14 5 -10 15 -52 -2 -52 -22 0 -8 5 -15 11
-15 5 0 7 -5 4 -11 -4 -6 2 -13 14 -16 12 -3 21 -8 21 -12 0 -4 20 -15 45 -26
25 -11 45 -22 45 -25 0 -3 20 -16 45 -30 25 -14 45 -28 45 -31 0 -4 15 -10 32
-14 18 -4 43 -13 56 -21 12 -8 27 -12 32 -9 6 3 10 2 10 -3 0 -9 29 -22 55
-26 6 -1 20 -7 31 -14 12 -6 24 -9 27 -6 3 4 18 -3 33 -15 14 -11 31 -18 36
-15 5 3 18 -2 29 -12 10 -9 22 -14 25 -11 4 4 19 1 33 -7 57 -29 97 -46 124
-52 15 -3 27 -10 27 -14 0 -4 16 -11 35 -14 19 -4 35 -10 35 -14 0 -4 14 -13
30 -20 17 -8 36 -19 43 -26 6 -6 23 -17 37 -24 28 -13 62 -34 70 -42 3 -3 23
-14 45 -25 22 -11 46 -26 53 -32 7 -7 19 -13 25 -13 7 0 6 -4 -3 -10 -13 -8
-13 -10 2 -10 10 0 31 -14 48 -30 17 -17 37 -30 45 -30 8 0 15 -6 15 -13 0 -7
11 -21 25 -31 13 -10 22 -22 19 -27 -3 -5 6 -14 20 -21 14 -6 26 -17 26 -24 0
-6 7 -14 15 -18 8 -3 15 -12 15 -21 0 -8 7 -15 15 -15 8 0 16 -4 16 -10 3 -22
5 -26 24 -47 11 -13 25 -23 33 -23 7 0 11 -4 8 -8 -3 -5 4 -19 15 -30 13 -15
15 -22 7 -22 -7 -1 1 -7 17 -15 17 -7 23 -14 15 -14 -12 -1 -11 -4 3 -12 9 -6
15 -14 13 -18 -3 -4 4 -18 15 -30 11 -12 21 -30 22 -41 1 -11 7 -20 14 -20 7
0 14 -7 14 -15 3 -28 4 -33 11 -40 4 -4 4 -13 1 -21 -3 -9 2 -14 13 -14 14 0
16 -2 6 -9 -11 -7 -11 -9 2 -14 9 -4 16 -17 16 -31 0 -13 6 -27 13 -29 8 -4 8
-6 -2 -6 -12 -1 -11 -4 3 -14 9 -7 18 -22 19 -35 0 -12 7 -22 14 -22 7 0 13
-8 13 -18 0 -10 10 -30 22 -45 12 -15 23 -36 25 -47 3 -20 9 -30 41 -65 6 -7
12 -21 12 -29 0 -9 5 -16 11 -16 5 0 7 -5 4 -10 -3 -6 0 -13 9 -16 8 -3 18
-18 21 -34 3 -16 12 -31 19 -33 8 -3 16 -17 20 -32 4 -15 20 -39 35 -53 16
-15 32 -36 35 -48 3 -11 17 -27 31 -34 13 -7 29 -26 36 -41 6 -16 15 -29 20
-29 5 0 9 -7 9 -15 0 -8 6 -15 13 -15 6 0 25 -14 40 -30 16 -17 35 -30 42 -30
8 0 16 -9 20 -19 3 -11 18 -24 33 -31 47 -19 72 -34 72 -42 0 -5 4 -8 9 -8 9
0 162 -89 171 -100 6 -7 62 -33 75 -35 6 0 24 -7 40 -14 77 -35 96 -41 136
-46 24 -3 46 -10 49 -15 3 -5 33 -12 65 -15 33 -4 90 -15 126 -26 37 -10 88
-22 115 -25 27 -3 52 -8 56 -10 7 -5 197 -17 253 -16 17 0 48 3 70 7 22 4 50
6 63 6 12 0 22 3 22 8 0 4 15 7 33 6 17 -2 37 2 44 7 7 5 17 7 22 4 5 -4 12
-2 16 4 3 5 16 10 28 10 12 0 53 11 91 25 38 13 73 22 78 19 4 -3 8 0 8 5 0 6
7 11 16 11 9 0 35 9 58 19 23 11 59 27 81 37 22 9 44 23 48 31 5 7 13 11 18 7
5 -3 22 8 36 25 15 17 33 31 40 31 7 0 13 5 13 10 0 6 8 10 18 10 9 1 28 14
42 30 13 17 30 30 37 30 7 0 13 4 13 10 0 5 16 16 35 24 19 8 38 22 41 31 3 8
10 15 15 15 14 0 49 33 49 46 0 6 12 20 28 30 39 25 49 37 44 52 -2 6 3 12 12
12 9 0 16 7 16 15 0 8 7 15 15 15 8 0 15 5 15 10 0 6 9 19 20 30 12 12 15 20
8 20 -9 0 -9 3 1 9 8 5 16 17 17 27 2 10 9 21 17 25 8 5 13 21 12 39 -1 16 2
30 6 30 5 0 6 6 3 14 -3 7 2 21 11 30 9 9 12 16 6 16 -6 0 -11 5 -11 11 0 8
13 9 43 4 23 -3 55 -8 71 -10 15 -3 36 -7 45 -10 10 -3 34 2 54 10 32 13 83
24 125 27 6 1 12 5 12 10 0 4 9 8 20 8 23 0 36 9 85 57 18 18 36 33 41 33 5 0
22 11 38 25 16 14 34 25 40 25 6 0 1 7 -11 15 -18 12 -31 13 -72 4 -28 -6 -51
-15 -51 -20 0 -5 -13 -9 -29 -9 -16 0 -32 -6 -35 -12 -3 -7 -3 -2 0 12 4 14
12 28 18 32 7 5 6 8 -4 8 -10 0 -11 3 -4 8 6 4 17 25 25 47 8 22 18 43 22 46
5 4 10 18 10 33 1 14 7 26 13 26 6 0 17 15 25 32 7 18 17 36 23 40 5 3 11 15
12 25 2 9 8 19 13 21 15 5 14 32 -1 32 -10 0 -10 2 -1 8 22 14 -46 45 -101 47
-30 1 -52 7 -52 13 -1 7 -2 23 -3 37 0 14 -7 25 -15 25 -8 0 -17 9 -21 19 -3
11 -12 22 -20 25 -8 3 -15 11 -15 18 0 7 -12 19 -27 26 -49 22 -70 42 -54 51
11 7 11 9 0 14 -10 4 -11 8 -3 14 20 15 23 52 6 63 -14 8 -14 9 -2 10 20 0 23
120 3 120 -7 0 -13 5 -13 10 0 6 6 10 13 10 9 0 8 3 -2 9 -11 7 -11 9 0 14 12
4 11 7 -1 16 -13 10 -13 11 0 11 13 0 13 1 0 10 -12 8 -13 12 -2 19 11 7 11 9
-2 14 -10 4 -13 15 -10 31 2 15 1 26 -4 26 -4 0 -8 23 -7 52 0 30 -6 57 -13
65 -8 8 -9 13 -3 13 15 0 14 27 -1 33 -10 4 -9 8 2 16 10 7 11 11 3 11 -7 0
-13 9 -13 19 0 11 6 22 13 25 8 3 7 8 -5 16 -10 6 -18 17 -18 25 0 7 -6 16
-12 18 -10 4 -10 8 0 15 11 8 11 10 -1 15 -7 3 -13 16 -12 29 1 12 0 27 -3 33
-4 5 -7 23 -9 40 -1 16 -7 31 -12 33 -6 2 -11 10 -11 17 0 7 -9 15 -20 18 -13
3 -18 11 -15 25 2 11 -4 28 -14 38 -9 11 -20 27 -24 37 -3 9 -12 17 -19 17
-10 0 -9 3 1 9 12 8 12 12 -2 26 -10 9 -17 20 -17 25 0 5 -13 23 -30 40 -16
17 -30 35 -30 40 0 6 -4 10 -10 10 -5 0 -10 6 -10 14 0 8 -12 17 -27 21 -21 5
-24 8 -12 16 12 7 11 9 -3 9 -9 0 -21 6 -25 13 -4 8 -21 22 -38 33 -16 10 -40
28 -52 41 -12 12 -33 25 -47 29 -14 3 -26 10 -26 15 0 5 -6 9 -13 9 -8 0 -26
10 -41 23 -15 13 -49 35 -76 48 -28 13 -50 27 -50 32 0 4 -7 7 -15 7 -8 0 -15
5 -15 10 0 6 -7 10 -15 10 -8 0 -20 9 -27 20 -7 11 -19 20 -26 20 -7 0 -11 4
-7 9 3 5 -2 17 -12 26 -13 13 -14 18 -3 25 9 6 7 10 -9 15 -11 3 -21 11 -21
16 0 19 -78 88 -107 95 -15 4 -31 12 -35 18 -4 5 -29 11 -57 12 -28 2 -55 5
-61 9 -5 3 -10 3 -10 -2 0 -15 -183 -7 -250 11 -36 10 -75 20 -87 21 -44 6
-83 17 -83 24 0 4 -8 7 -17 7 -51 3 -120 16 -147 29 -16 8 -33 15 -37 15 -5 0
-33 11 -63 25 -30 14 -59 25 -63 25 -5 0 -26 9 -47 20 -22 10 -43 17 -47 14
-5 -3 -9 -1 -9 5 0 5 -8 10 -17 9 -10 0 -29 3 -43 7 -14 4 -33 7 -42 7 -10 -1
-18 3 -18 7 0 5 -10 7 -22 7 -13 -1 -30 1 -39 5 -32 16 -232 33 -244 21z m50
-542 c14 -11 112 -37 170 -45 l49 -7 -24 -18 c-14 -11 -31 -15 -40 -11 -8 4
-35 7 -60 6 -25 0 -47 2 -50 5 -24 27 -84 49 -154 55 -43 4 -74 10 -68 14 15
9 165 10 177 1z m-255 -10 c0 -5 -7 -10 -15 -10 -8 0 -15 5 -15 10 0 6 7 10
15 10 8 0 15 -4 15 -10z m37 4 c-3 -3 -12 -4 -19 -1 -8 3 -5 6 6 6 11 1 17 -2
13 -5z m890 -1219 c0 -8 -4 -12 -9 -9 -5 3 -6 10 -3 15 9 13 12 11 12 -6z
m1893 -515 c0 -5 -2 -10 -4 -10 -3 0 -8 5 -11 10 -3 6 -1 10 4 10 6 0 11 -4
11 -10z"/>
</g>
</svg>
