<?xml version="1.0" standalone="no"?>
<!DOCTYPE svg PUBLIC "-//W3C//DTD SVG 20010904//EN"
 "http://www.w3.org/TR/2001/REC-SVG-20010904/DTD/svg10.dtd">
<svg version="1.0" xmlns="http://www.w3.org/2000/svg"
 width="412.000000pt" height="376.000000pt" viewBox="0 0 412.000000 376.000000"
 preserveAspectRatio="xMidYMid meet">
<metadata>
Created by potrace 1.13, written by Peter Selinger 2001-2015
</metadata>
<g transform="translate(0.000000,376.000000) scale(0.100000,-0.100000)"
fill="#000000" stroke="none">
<path d="M1176 3115 c-17 -13 -18 -19 -9 -49 9 -28 8 -34 -3 -29 -8 3 -14 13
-14 22 0 26 -21 41 -54 41 -43 0 -79 -51 -65 -89 6 -14 18 -32 27 -40 18 -14
18 -14 -47 4 -70 20 -113 26 -214 28 -66 2 -90 -1 -96 -12 -5 -8 -16 -11 -23
-8 -29 11 -109 -15 -145 -46 -81 -72 -143 -140 -143 -156 0 -5 -6 -16 -12 -23
-20 -20 -53 -101 -65 -158 -10 -49 -13 -223 -3 -235 5 -7 7 -15 4 -18 -3 -3
-2 -12 2 -19 5 -7 9 -22 10 -33 5 -49 54 -199 85 -257 5 -10 9 -30 9 -45 0
-16 9 -41 20 -58 11 -16 20 -38 20 -47 0 -10 5 -18 10 -18 6 0 10 -9 10 -19 0
-11 4 -23 10 -26 6 -3 10 -15 10 -25 0 -10 7 -25 15 -34 8 -8 15 -21 15 -29 0
-21 28 -84 40 -92 5 -3 10 -13 10 -22 0 -9 9 -37 21 -62 11 -25 24 -55 29 -66
4 -11 13 -33 19 -48 6 -15 11 -37 11 -49 0 -24 57 -128 71 -128 5 0 9 -11 9
-24 0 -14 5 -28 10 -31 6 -3 10 -15 10 -26 0 -10 9 -38 20 -62 25 -53 80 -275
80 -322 0 -43 -15 -45 -91 -11 -38 17 -76 47 -127 100 -83 88 -109 95 -105 31
3 -47 43 -107 91 -137 20 -12 59 -42 86 -65 28 -24 56 -48 63 -53 6 -5 35 -19
64 -30 49 -18 54 -18 71 -3 10 9 28 37 38 61 34 76 24 191 -31 368 -10 34 -19
75 -19 90 0 31 -30 121 -56 167 -9 16 -18 43 -21 60 -3 18 -9 37 -14 43 -5 6
-6 14 -2 17 3 4 -1 7 -11 7 -12 0 -15 6 -12 25 3 14 0 25 -5 25 -6 0 -7 5 -4
10 3 6 1 10 -6 10 -6 0 -9 8 -6 20 3 11 0 23 -6 28 -7 4 -13 14 -14 22 -3 29
-12 59 -21 77 -6 10 -10 21 -11 26 -1 4 -1 8 -2 10 0 1 -3 13 -5 27 -2 13 -11
35 -20 47 -8 13 -12 28 -9 33 3 5 2 18 -4 27 -5 10 -10 32 -12 48 -2 17 -7 36
-12 43 -5 6 -6 12 -3 12 4 0 0 7 -9 16 -10 11 -13 19 -6 23 6 4 7 12 1 21 -6
8 -10 25 -10 38 0 12 -4 22 -8 22 -13 0 -35 159 -28 205 12 86 52 207 77 234
11 11 19 23 19 27 0 4 16 24 35 45 19 22 35 36 35 32 0 -3 9 2 21 13 33 29
148 27 214 -5 28 -13 52 -25 55 -26 33 -11 58 -26 74 -44 11 -11 25 -21 32
-21 7 0 18 -9 24 -20 6 -11 16 -20 21 -20 6 0 28 -13 49 -30 21 -16 42 -30 47
-30 5 0 22 -22 38 -50 21 -34 45 -57 78 -76 37 -20 48 -31 44 -45 -7 -24 53
-144 92 -187 17 -18 33 -43 35 -55 7 -36 17 -55 32 -61 8 -3 14 -15 14 -26 0
-12 7 -20 16 -20 12 0 15 -7 12 -24 -4 -18 2 -28 22 -40 27 -15 28 -15 39 12
11 28 10 59 -4 102 -7 24 -7 24 12 7 11 -9 25 -17 31 -17 7 0 12 -4 12 -8 0
-5 11 -15 25 -22 13 -7 27 -22 31 -32 3 -10 9 -16 13 -14 4 3 13 -10 20 -27
43 -105 52 -119 87 -133 20 -8 38 -14 40 -12 12 13 5 71 -14 107 -26 49 -22
65 7 33 10 -12 24 -22 30 -22 8 0 10 -8 6 -19 -10 -31 31 -34 55 -3 11 14 17
28 12 31 -5 3 -12 19 -16 34 -3 15 -26 47 -49 70 -23 23 -42 48 -41 55 3 25 4
26 16 14 7 -7 19 -12 29 -12 9 0 28 -9 42 -20 14 -11 36 -20 49 -20 13 0 29
-5 36 -12 7 -7 12 -9 12 -5 0 4 10 2 23 -5 12 -7 25 -12 29 -13 3 0 10 -3 14
-7 4 -5 15 -8 25 -8 15 0 17 -4 9 -24 -5 -13 -6 -27 -3 -30 4 -3 -1 -6 -10 -6
-9 0 -17 -7 -17 -15 0 -8 -5 -15 -11 -15 -6 0 -9 -6 -6 -13 10 -28 -49 -70
-64 -46 -5 9 -15 7 -35 -8 -34 -25 -39 -70 -9 -80 33 -11 45 -12 39 -2 -3 5
17 9 45 9 27 0 53 -5 56 -10 8 -13 -14 -82 -28 -92 -14 -9 -19 -46 -8 -53 6
-3 30 -9 55 -14 37 -7 46 -6 46 6 0 8 4 12 9 9 9 -6 31 36 31 58 0 22 25 26
38 6 9 -14 9 -33 0 -76 -11 -54 -10 -58 12 -76 18 -15 25 -16 38 -6 8 7 18 12
21 10 3 -2 8 6 13 17 4 12 5 21 2 21 -3 0 2 10 10 22 9 12 17 34 17 48 1 16 3
19 6 8 2 -9 13 -20 23 -23 11 -4 16 -12 13 -24 -3 -10 0 -22 5 -25 6 -3 8 -21
5 -39 -3 -17 -2 -29 2 -25 4 4 17 2 28 -3 14 -8 22 -8 27 1 4 6 10 11 14 11 3
-1 6 2 7 7 1 4 5 15 10 25 6 9 6 23 2 30 -4 6 -9 21 -10 32 -2 11 -10 23 -18
28 -19 10 -55 80 -55 105 0 24 37 72 56 72 8 0 31 -15 51 -33 46 -40 169 -117
187 -117 8 0 19 -6 26 -14 6 -8 17 -13 24 -10 14 5 82 -21 91 -35 3 -6 12 -8
20 -4 9 3 27 -3 43 -13 15 -10 31 -17 36 -16 9 3 51 -12 126 -45 56 -24 72
-30 118 -42 30 -9 46 -19 52 -37 5 -13 17 -24 27 -24 18 0 63 -56 63 -78 0 -7
-9 -12 -19 -12 -23 0 -61 -45 -61 -71 0 -10 10 -30 23 -45 19 -22 29 -26 51
-20 16 4 30 15 33 26 3 11 11 16 19 13 9 -3 12 -13 8 -29 -6 -25 12 -84 27
-84 4 0 17 14 29 30 25 35 40 31 40 -9 0 -34 34 -81 59 -81 36 0 68 65 47 98
-15 24 2 24 18 0 9 -13 30 -42 46 -65 21 -30 37 -43 53 -43 36 0 58 22 60 60
2 33 0 35 -40 44 -52 12 -55 31 -8 50 40 17 43 33 14 70 -15 19 -30 26 -53 26
-22 0 -46 10 -71 30 -20 16 -46 32 -57 36 -11 3 -17 8 -14 11 3 3 -2 12 -11
21 -14 14 -14 16 1 22 14 4 14 8 2 32 -8 15 -12 29 -8 32 3 3 0 6 -7 6 -7 0
-9 5 -6 10 3 6 1 10 -5 10 -6 0 -9 4 -6 9 4 5 1 11 -6 13 -7 3 -9 12 -5 22 4
11 13 16 22 12 8 -3 14 -2 14 2 -4 27 3 44 16 38 10 -3 17 3 21 19 3 14 10 23
14 20 4 -3 13 9 19 25 25 68 31 86 34 107 2 12 6 26 10 29 4 4 7 18 7 30 0 45
64 190 103 234 12 14 42 39 66 57 24 17 67 55 96 82 29 28 58 51 64 51 16 0
15 137 -1 144 -10 5 -10 7 0 12 6 3 12 15 12 26 0 10 -6 26 -12 33 -7 8 -19
22 -27 31 -7 8 -22 13 -32 11 -11 -3 -21 -2 -24 3 -3 4 -23 17 -45 29 -35 18
-58 21 -175 21 -73 0 -146 -5 -161 -10 -14 -6 -70 -20 -123 -31 -94 -20 -181
-54 -181 -71 0 -4 -8 -8 -18 -8 -20 0 -62 -39 -62 -58 0 -6 -9 -16 -20 -22
-11 -6 -20 -17 -20 -25 0 -31 -104 -8 -127 27 -4 7 -17 18 -28 25 -11 6 -19
16 -17 22 1 6 -3 11 -8 11 -6 0 -18 6 -26 13 -31 25 -40 33 -74 58 -19 14 -45
29 -57 33 -13 4 -23 15 -23 23 0 9 -3 14 -6 10 -4 -3 -13 0 -21 8 -8 8 -23 15
-34 15 -10 0 -19 7 -19 15 0 8 -3 15 -7 16 -27 2 -47 9 -52 16 -9 12 -151 83
-167 83 -8 0 -14 4 -14 10 0 10 -29 24 -125 61 -33 12 -76 33 -96 45 -20 13
-40 20 -43 17 -3 -3 -14 0 -23 9 -10 8 -43 20 -73 27 -30 8 -72 22 -92 32 -21
11 -41 18 -45 17 -5 0 -15 2 -23 5 -14 6 -77 22 -125 32 -11 3 -42 10 -70 15
-27 6 -61 13 -74 16 -14 3 -28 7 -33 10 -4 3 -8 0 -8 -6 0 -6 -9 -4 -23 5 -13
8 -26 12 -29 9 -11 -10 -147 -13 -154 -3 -3 5 -15 7 -25 4 -19 -6 -20 -6 -3
13 9 11 23 18 29 15 7 -2 16 0 20 6 4 8 11 6 21 -4 14 -13 19 -13 45 0 27 14
29 20 29 73 0 48 -3 59 -22 72 -27 17 -85 23 -93 9 -4 -5 -13 -9 -21 -9 -16 0
-52 -30 -37 -30 10 -1 -68 -39 -80 -40 -5 0 -2 7 7 15 8 8 22 15 30 15 22 0
20 37 -2 49 -18 10 -50 -2 -64 -23 -4 -7 -14 -4 -26 7 -25 23 -52 12 -52 -22
l-1 -26 -19 24 c-11 13 -20 32 -20 42 0 23 -18 24 -44 4z m761 -1234 c2 -15
-1 -21 -9 -19 -7 3 -13 9 -13 14 0 5 -4 14 -8 21 -4 7 -1 10 10 9 9 -2 18 -13
20 -25z"/>
</g>
</svg>
