<?xml version="1.0" standalone="no"?>
<!DOCTYPE svg PUBLIC "-//W3C//DTD SVG 20010904//EN"
 "http://www.w3.org/TR/2001/REC-SVG-20010904/DTD/svg10.dtd">
<svg version="1.0" xmlns="http://www.w3.org/2000/svg"
 width="538.000000pt" height="774.000000pt" viewBox="0 0 538.000000 774.000000"
 preserveAspectRatio="xMidYMid meet">
<metadata>
Created by potrace 1.13, written by Peter Selinger 2001-2015
</metadata>
<g transform="translate(0.000000,774.000000) scale(0.100000,-0.100000)"
fill="#000000" stroke="none">
<path d="M4107 7575 c-14 -7 -28 -11 -30 -9 -2 3 -17 -12 -33 -33 -33 -45 -54
-67 -54 -58 0 3 -10 -3 -22 -15 -12 -11 -25 -20 -30 -20 -4 0 -17 -8 -27 -17
-11 -10 -40 -36 -66 -58 -27 -22 -53 -45 -59 -51 -6 -5 -19 -13 -28 -17 -10
-3 -18 -11 -18 -17 0 -5 -7 -10 -15 -10 -8 0 -15 -4 -15 -8 0 -5 -16 -25 -35
-45 -19 -20 -35 -41 -35 -47 0 -5 -4 -10 -8 -10 -9 0 -44 -25 -73 -52 -11 -10
-22 -17 -25 -16 -12 3 -134 -97 -134 -109 0 -7 -5 -13 -11 -13 -6 0 -9 -7 -5
-15 3 -8 2 -15 -2 -15 -11 0 -40 -60 -48 -100 -3 -19 -10 -39 -14 -45 -12 -15
-16 -48 -7 -62 5 -8 4 -13 -2 -13 -6 0 -11 -5 -11 -11 0 -7 -8 -18 -17 -25
-10 -7 -19 -17 -19 -23 -1 -6 -3 -13 -4 -16 -1 -3 -3 -8 -4 -12 -1 -5 -15 -29
-31 -55 -21 -34 -39 -49 -67 -59 -21 -7 -43 -18 -49 -26 -6 -7 -18 -13 -25
-13 -8 0 -14 -5 -14 -10 0 -6 -11 -21 -25 -34 -14 -13 -25 -28 -25 -35 0 -6
-4 -11 -9 -11 -5 0 -13 -9 -16 -21 -8 -23 -27 -21 -31 5 -3 23 -32 66 -45 66
-6 0 -7 5 -4 10 3 6 0 13 -9 16 -8 3 -19 18 -24 34 -9 25 -7 31 23 54 48 38
49 59 8 100 -23 22 -42 32 -52 28 -14 -5 -14 -4 -1 14 8 10 17 21 20 24 3 3
15 24 27 47 27 50 19 85 -26 110 -25 15 -29 23 -28 62 0 26 -4 46 -11 49 -7 2
-10 8 -7 12 3 5 -11 21 -30 36 -33 25 -37 26 -52 11 -12 -12 -14 -19 -5 -30 9
-10 8 -18 -2 -33 -7 -10 -16 -41 -19 -68 -4 -27 -12 -54 -18 -60 -9 -8 -10 -8
-5 1 9 15 -10 51 -38 74 -26 22 -96 16 -110 -9 -17 -29 -15 -38 15 -58 22 -14
31 -32 40 -74 18 -82 19 -99 6 -95 -60 21 -137 7 -137 -25 0 -20 23 -43 33
-34 7 7 32 -45 29 -58 -1 -5 2 -8 8 -8 6 0 9 -3 8 -7 -1 -5 3 -18 10 -31 7
-12 10 -27 7 -32 -3 -6 -1 -10 6 -10 7 0 9 -3 6 -7 -4 -3 -2 -12 4 -20 6 -7 8
-13 4 -13 -4 0 -3 -6 3 -13 17 -20 23 -67 9 -67 -9 0 -9 -2 0 -8 6 -4 10 -20
9 -35 -2 -15 0 -30 5 -32 4 -3 6 -14 4 -25 -2 -11 0 -20 4 -20 5 0 12 -10 16
-22 10 -31 12 -37 15 -43 1 -3 3 -8 4 -12 2 -10 36 -60 59 -84 9 -10 17 -22
17 -25 0 -7 15 -21 72 -67 48 -40 52 -58 19 -84 -9 -6 -16 -15 -16 -20 0 -4
-9 -18 -20 -30 -35 -38 -45 -52 -45 -63 0 -5 -4 -10 -8 -10 -4 0 -19 -18 -32
-40 -14 -22 -30 -40 -36 -40 -6 0 -22 -20 -35 -45 -13 -25 -27 -45 -31 -45 -5
0 -8 -6 -8 -14 0 -8 -7 -22 -16 -30 -8 -9 -13 -16 -9 -16 3 0 -3 -13 -14 -29
-11 -15 -18 -31 -14 -35 3 -3 2 -6 -4 -6 -6 0 -16 -13 -23 -30 -7 -16 -17 -30
-22 -30 -5 0 -7 -4 -3 -10 3 -5 -1 -17 -10 -27 -8 -10 -14 -20 -13 -23 1 -3
-6 -15 -17 -27 -10 -12 -20 -32 -22 -43 -2 -12 -10 -28 -17 -36 -8 -8 -25 -34
-37 -59 -12 -25 -27 -45 -32 -45 -5 0 -7 -7 -3 -15 3 -8 1 -15 -4 -15 -5 0 -7
-7 -4 -15 4 -8 1 -15 -6 -15 -6 0 -8 -5 -5 -11 4 -5 -2 -18 -13 -27 -10 -9
-17 -23 -15 -29 3 -7 0 -13 -7 -13 -6 0 -9 -4 -6 -9 5 -8 -22 -90 -34 -101 -3
-3 -6 -14 -7 -25 -4 -30 -14 -85 -20 -109 -11 -42 -16 -181 -9 -263 3 -36 -12
-43 -38 -18 -8 8 -22 15 -30 15 -9 0 -16 4 -16 9 0 9 -73 26 -100 23 -49 -4
-82 -11 -94 -21 -7 -6 -16 -8 -19 -4 -4 3 -7 2 -7 -4 0 -6 -12 -22 -26 -37
-15 -14 -23 -26 -19 -26 4 0 2 -7 -5 -15 -7 -8 -9 -15 -5 -15 5 0 1 -8 -9 -19
-17 -19 -19 -81 -3 -81 5 0 6 -8 2 -17 -10 -27 -13 -63 -5 -68 4 -2 5 -17 3
-32 -8 -54 -5 -168 6 -188 9 -17 10 -55 0 -55 -5 0 -9 4 -9 9 0 5 -10 11 -22
13 -13 2 -22 9 -21 16 2 6 -1 12 -6 12 -4 0 -8 23 -7 50 0 28 4 50 8 50 4 0 8
7 8 15 0 8 6 15 13 15 8 0 7 4 -3 10 -10 7 -12 12 -4 18 26 17 -6 86 -51 110
-36 19 -65 25 -65 13 0 -5 -8 -12 -17 -15 -15 -6 -15 -4 2 14 10 11 15 20 10
20 -4 0 -3 6 3 13 20 24 3 80 -36 115 -34 31 -71 52 -92 52 -16 0 -20 -32 -7
-63 7 -18 11 -54 10 -82 -1 -27 -3 -65 -3 -82 0 -18 -3 -33 -6 -33 -7 0 -36
70 -39 95 -1 11 -6 38 -10 59 -12 62 -12 78 2 121 14 40 19 88 12 114 -5 18
-44 61 -56 61 -5 0 -14 5 -21 12 -18 18 -52 20 -67 4 -12 -12 -10 -17 15 -36
24 -18 28 -26 18 -37 -6 -7 -12 -53 -14 -101 -1 -48 -3 -87 -4 -87 -1 0 -3
-15 -5 -33 -2 -19 -6 -40 -9 -48 -3 -8 -2 -14 2 -14 4 0 8 -17 9 -37 1 -20 8
-40 15 -44 7 -5 9 -9 3 -9 -5 0 -3 -6 5 -13 21 -17 22 -67 1 -59 -20 7 -58 39
-96 79 -17 18 -35 33 -39 33 -17 0 -68 68 -82 113 -4 9 -10 17 -14 17 -14 0
-43 53 -47 84 -6 54 -46 102 -97 115 -66 16 -84 14 -113 -15 -24 -25 -25 -26
-7 -43 11 -10 24 -18 29 -17 6 0 10 -6 10 -14 0 -8 8 -22 18 -31 9 -9 17 -21
17 -27 0 -6 9 -13 20 -17 11 -3 19 -9 18 -13 -5 -19 93 -188 121 -209 9 -7 13
-13 9 -13 -3 0 11 -18 33 -40 21 -21 39 -43 39 -47 0 -4 15 -19 32 -33 18 -14
55 -47 83 -75 77 -76 120 -112 141 -119 10 -3 31 -17 46 -31 15 -14 30 -25 34
-25 7 0 83 -58 104 -80 8 -9 30 -27 49 -39 35 -25 78 -103 60 -109 -6 -3 -5
-9 2 -18 9 -11 9 -14 -1 -14 -7 0 -10 -6 -7 -14 7 -17 -37 -139 -52 -144 -6
-2 -9 -7 -6 -12 2 -4 -9 -46 -25 -94 -16 -47 -26 -86 -23 -86 3 0 -1 -10 -9
-23 -8 -12 -14 -31 -12 -42 2 -11 -4 -31 -13 -44 -15 -23 -14 -25 8 -42 15
-11 28 -14 35 -8 6 5 14 6 17 2 4 -3 7 -1 7 5 0 7 5 12 11 12 13 0 68 60 69
75 7 84 11 109 26 135 10 16 22 30 26 30 4 0 8 6 8 13 0 6 6 23 13 37 7 14 12
32 12 40 0 8 4 18 9 22 5 3 11 14 12 24 5 32 27 64 46 65 30 2 36 4 43 11 4 4
13 4 20 2 7 -3 16 -1 19 5 4 6 13 8 20 5 27 -10 148 122 161 176 0 3 6 15 13
26 6 12 8 25 4 29 -4 5 1 5 11 2 10 -4 22 -7 25 -7 4 0 2 -4 -5 -8 -12 -8 -26
-92 -15 -92 4 0 6 -26 4 -57 -1 -32 -2 -80 -1 -108 0 -27 0 -54 0 -60 -5 -118
1 -192 17 -220 3 -5 7 -28 8 -50 2 -39 9 -87 19 -132 11 -49 15 -69 21 -98 3
-16 8 -37 11 -45 4 -8 7 -22 7 -30 1 -8 4 -19 7 -25 9 -15 23 -68 20 -81 -1
-7 4 -25 10 -40 7 -16 11 -35 10 -41 -1 -7 3 -13 9 -13 5 0 9 -3 8 -7 -3 -14
14 -73 21 -73 8 0 11 -16 12 -55 0 -11 5 -22 10 -26 6 -3 12 -12 13 -20 10
-48 20 -75 33 -86 8 -6 14 -13 14 -15 -2 -13 13 -48 20 -48 4 0 6 -9 4 -20 -2
-11 0 -20 4 -20 5 0 12 -10 16 -23 4 -12 8 -24 10 -27 1 -3 5 -13 8 -22 4 -10
10 -26 14 -35 3 -10 7 -20 8 -23 2 -3 6 -15 10 -27 4 -13 11 -23 16 -23 4 0 6
-9 4 -20 -2 -11 0 -20 4 -20 7 0 20 -27 25 -52 0 -4 9 -16 18 -27 9 -11 14
-22 11 -25 -3 -3 2 -17 11 -31 9 -14 14 -25 10 -25 -4 0 -1 -7 6 -15 7 -8 10
-22 6 -30 -3 -8 -2 -15 3 -15 7 0 22 -36 20 -49 0 -2 4 -7 10 -10 6 -4 12 -16
14 -26 1 -11 6 -26 10 -32 5 -7 6 -13 3 -13 -3 0 1 -18 9 -40 8 -22 12 -40 8
-40 -3 0 0 -7 7 -15 7 -8 9 -15 6 -15 -4 0 -2 -9 4 -21 15 -28 28 -87 33 -149
1 -14 5 -29 8 -35 8 -14 4 -141 -6 -200 -5 -27 -9 -57 -9 -65 -1 -8 -5 -21 -9
-27 -5 -7 -5 -13 0 -13 4 0 2 -4 -4 -8 -7 -4 -14 -17 -16 -28 -1 -12 -10 -32
-19 -46 -9 -13 -17 -38 -19 -54 -2 -16 -12 -41 -22 -56 -10 -16 -15 -28 -12
-28 3 0 -3 -14 -15 -30 -12 -17 -18 -30 -13 -30 4 -1 -2 -9 -14 -19 -13 -11
-24 -30 -25 -43 -2 -12 -11 -32 -22 -43 -10 -11 -30 -36 -45 -55 -14 -19 -34
-41 -43 -48 -9 -7 -24 -19 -32 -27 -8 -8 -19 -15 -25 -15 -6 0 -11 -4 -11 -9
0 -12 -121 -70 -161 -78 -16 -3 -29 -9 -29 -13 0 -3 -7 -7 -15 -8 -8 -1 -22
-3 -30 -4 -8 -1 -15 -4 -15 -8 0 -3 -8 -6 -17 -7 -20 -1 -66 -9 -103 -18 -23
-6 -90 -7 -152 -3 -16 1 -28 6 -28 11 0 4 -4 6 -9 2 -5 -3 -12 -1 -16 5 -4 6
-10 8 -15 5 -5 -3 -11 -1 -15 5 -4 6 -11 8 -16 5 -5 -4 -9 -2 -9 2 0 5 -10 9
-21 10 -12 1 -30 10 -40 19 -11 9 -19 13 -19 9 0 -5 -12 2 -26 16 -14 13 -27
23 -30 22 -11 -7 -25 -2 -19 7 3 5 -8 16 -24 25 -16 8 -36 24 -44 35 -7 10
-31 33 -52 50 -21 16 -35 30 -31 30 9 0 -32 60 -56 81 -10 9 -18 19 -18 21 0
3 -17 41 -37 84 -20 43 -38 88 -40 98 -2 11 -7 24 -11 30 -4 6 -7 31 -7 56 0
25 -5 50 -11 57 -6 6 -10 42 -9 82 1 39 -1 73 -5 76 -4 2 -6 28 -5 57 2 29 0
58 -4 63 -9 15 -8 28 1 47 4 9 4 19 -1 23 -11 6 -11 45 0 45 4 0 4 15 0 33 -9
41 -6 105 7 137 6 16 6 31 -2 42 -7 12 -7 29 0 57 9 34 8 41 -5 46 -10 4 -12
8 -5 13 16 10 11 61 -6 72 -13 8 -13 10 -1 10 8 0 12 3 9 6 -4 3 -2 19 2 35 5
17 5 31 -1 34 -5 4 -7 24 -4 46 3 23 1 39 -5 39 -7 0 -7 6 -1 18 10 19 7 153
-3 171 -4 6 -3 11 1 11 5 0 8 30 6 67 -1 38 -3 92 -3 121 -1 28 -4 52 -9 52
-4 0 -7 16 -6 35 2 19 -1 38 -6 41 -5 3 -6 20 -3 38 4 25 1 35 -12 40 -11 4
-13 10 -7 19 5 6 8 26 6 42 -1 17 -5 48 -7 70 -2 22 -5 40 -6 40 -1 0 -3 17
-6 38 -2 20 -8 46 -13 56 -6 10 -7 27 -4 39 3 13 1 22 -6 22 -6 0 -11 12 -11
26 0 14 -6 35 -12 47 -7 12 -13 31 -13 42 -1 11 -7 30 -13 43 -7 12 -10 27 -7
32 7 12 -16 70 -27 70 -4 0 -5 7 -2 15 4 8 2 15 -3 15 -5 0 -10 6 -11 13 -2
30 -21 89 -32 103 -7 8 -10 17 -7 21 4 3 0 18 -7 32 -16 29 -29 61 -31 76 -1
6 -7 21 -12 35 -6 14 -9 28 -6 33 2 4 -1 7 -6 7 -6 0 -11 8 -11 19 0 10 -7 24
-15 31 -9 7 -13 15 -11 18 3 2 -1 17 -9 32 -8 15 -11 30 -8 33 3 4 1 13 -5 20
-7 8 -9 17 -6 20 3 3 2 12 -2 19 -5 7 -9 18 -11 23 -6 30 -30 81 -41 88 -9 6
-9 13 -2 28 8 14 8 19 -1 19 -6 0 -8 7 -5 15 3 9 -1 18 -8 21 -8 3 -13 16 -11
30 1 13 -2 24 -6 24 -5 0 -8 3 -7 8 1 4 -4 21 -11 37 -7 17 -14 44 -16 60 -1
17 -6 43 -10 59 -4 15 -8 45 -9 65 -1 20 -4 41 -7 46 -4 6 -6 50 -5 98 1 78
-1 90 -18 99 -15 8 -24 5 -47 -20 -17 -18 -25 -34 -19 -37 6 -3 7 -17 4 -29
-11 -45 -11 -111 0 -118 6 -5 7 -8 1 -8 -6 0 -9 -17 -8 -37 2 -21 4 -50 4 -65
1 -16 5 -28 8 -28 3 0 7 -12 7 -27 1 -28 11 -105 17 -133 1 -8 6 -21 10 -27 5
-8 3 -13 -5 -13 -9 0 -9 -3 -2 -8 17 -11 25 -42 11 -42 -8 0 -8 -3 2 -9 7 -5
11 -13 7 -19 -3 -6 -2 -13 3 -16 7 -5 17 -38 27 -91 1 -5 3 -12 4 -15 1 -3 3
-21 4 -40 2 -19 6 -42 9 -50 3 -8 9 -31 12 -50 14 -79 18 -90 25 -90 5 0 7 -8
5 -17 -1 -10 2 -24 8 -30 5 -7 7 -13 3 -13 -4 0 1 -11 10 -25 8 -13 13 -29 9
-35 -3 -5 -1 -10 5 -10 6 0 8 -4 5 -10 -3 -6 -1 -10 5 -10 6 0 10 -6 9 -12 -2
-7 3 -33 10 -58 8 -25 15 -52 16 -60 2 -8 4 -15 5 -15 2 0 5 -16 14 -58 5 -28
22 -88 33 -117 3 -8 7 -19 8 -25 1 -5 3 -12 4 -15 1 -3 4 -21 7 -40 5 -40 12
-75 14 -75 3 0 21 -112 24 -155 1 -14 5 -31 9 -37 5 -8 3 -13 -3 -13 -6 0 -8
-5 -3 -12 4 -7 8 -17 9 -23 1 -5 5 -35 9 -65 10 -65 10 -451 0 -565 -4 -44 -7
-128 -8 -187 -1 -60 -4 -108 -7 -108 -3 0 -5 -19 -4 -43 0 -23 -3 -49 -7 -58
-5 -9 -3 -21 3 -27 9 -9 8 -12 -3 -12 -11 0 -11 -2 -1 -8 9 -6 10 -16 4 -33
-9 -27 -8 -198 1 -223 4 -9 2 -16 -3 -16 -5 0 -7 -10 -5 -22 3 -12 7 -49 10
-83 3 -33 7 -72 9 -87 2 -16 -1 -28 -5 -28 -5 0 -4 -12 2 -27 6 -16 10 -29 10
-30 -1 -2 0 -5 0 -8 1 -3 3 -14 4 -25 1 -11 4 -21 5 -22 1 -2 3 -14 4 -28 0
-14 5 -31 9 -38 5 -7 5 -21 2 -32 -4 -11 -2 -20 4 -20 6 0 11 -8 11 -17 0 -18
22 -85 30 -93 3 -3 6 -12 8 -20 2 -8 18 -40 35 -70 17 -30 32 -58 32 -62 0 -4
7 -15 15 -25 8 -10 15 -23 15 -30 0 -6 12 -25 28 -42 15 -17 27 -35 27 -41 0
-5 5 -10 10 -10 6 0 9 -4 8 -8 -2 -5 21 -32 50 -60 28 -29 52 -55 52 -60 0 -4
10 -14 21 -22 20 -14 40 -33 102 -98 12 -12 32 -25 45 -28 12 -4 22 -10 22
-16 0 -5 4 -7 8 -4 5 3 18 -2 28 -12 10 -10 26 -17 34 -17 8 1 21 -3 28 -8 6
-5 12 -6 12 -2 0 4 11 0 25 -9 13 -9 34 -16 47 -16 38 0 73 -6 86 -14 7 -4 16
-4 22 -1 5 3 19 1 30 -5 15 -8 20 -8 20 1 0 7 4 8 13 2 21 -16 264 -2 277 15
3 4 16 7 30 6 14 -1 34 2 45 6 11 4 23 7 26 6 3 0 13 5 21 11 8 7 32 15 54 18
21 2 40 9 42 15 2 5 12 10 22 10 10 0 22 5 25 10 4 6 11 8 16 5 5 -4 9 -1 9 4
0 6 9 11 20 11 11 0 20 5 20 11 0 5 4 8 9 5 5 -3 12 1 15 10 4 9 9 14 13 10 6
-6 71 38 85 58 4 6 8 7 8 2 0 -5 25 16 57 47 31 32 59 57 63 57 4 0 12 11 19
24 7 13 24 29 37 35 13 6 30 23 37 38 6 16 23 41 37 57 14 16 24 32 23 36 -1
4 11 22 27 40 17 19 30 40 30 47 0 7 5 13 11 13 6 0 9 7 5 15 -3 8 -1 15 4 15
5 0 15 18 21 40 7 22 16 40 21 40 5 0 7 4 4 8 -3 5 3 32 14 60 11 28 22 66 25
84 3 18 10 37 15 44 6 6 7 14 3 17 -3 4 -2 7 4 7 5 0 9 14 8 30 -1 17 1 30 5
30 4 0 7 15 7 33 -1 18 2 37 6 43 3 6 5 21 2 33 -2 11 1 21 7 21 7 0 7 5 -1
14 -9 11 -9 15 1 18 10 4 13 47 12 189 0 101 -4 199 -7 217 -4 17 -9 44 -12
60 -3 15 -7 37 -10 49 -20 88 -27 117 -33 127 -3 6 -7 25 -8 44 -1 19 -6 37
-11 41 -4 3 -9 15 -11 26 -4 34 -18 104 -22 115 -1 3 -2 9 -1 14 1 4 -2 13 -7
20 -6 6 -13 27 -18 46 -4 19 -8 37 -9 40 -1 3 -9 23 -19 45 -9 21 -19 48 -21
60 -2 11 -4 21 -6 23 -1 1 -2 5 -3 10 -1 4 -5 13 -10 20 -4 8 -10 26 -11 40
-5 38 -9 54 -23 80 -7 12 -10 22 -6 22 3 0 1 7 -6 15 -7 8 -9 15 -5 15 4 0 2
6 -4 13 -6 8 -8 17 -4 20 3 4 1 7 -5 7 -7 0 -12 11 -12 24 0 14 -4 27 -10 31
-5 3 -7 12 -3 20 3 8 1 15 -4 15 -5 0 -9 8 -10 18 -1 18 -10 57 -13 57 -3 0
-10 41 -15 88 -3 27 -7 52 -10 56 -2 4 -7 21 -9 37 -3 16 -8 39 -10 50 -2 12
-5 43 -7 70 -1 27 -6 54 -11 61 -5 7 -5 14 2 18 5 3 10 2 10 -3 0 -5 12 -21
26 -36 15 -14 24 -26 21 -26 -3 0 6 -12 20 -27 14 -16 39 -49 55 -75 16 -27
34 -48 39 -48 5 0 9 -4 9 -10 0 -9 18 -35 46 -64 6 -6 10 -14 10 -18 -1 -4 14
-19 33 -33 19 -14 32 -25 28 -25 -4 0 4 -18 17 -39 14 -21 22 -42 19 -45 -4
-3 -1 -6 5 -6 7 0 12 -9 12 -19 0 -11 7 -27 16 -35 8 -9 12 -16 7 -16 -4 0 -1
-6 7 -13 8 -7 16 -18 18 -25 1 -7 18 -37 38 -67 20 -29 33 -59 29 -64 -3 -6
-2 -11 3 -11 12 0 30 -127 21 -142 -4 -7 -3 -18 3 -25 6 -7 6 -13 1 -13 -5 0
-7 -15 -5 -33 2 -22 -2 -38 -12 -46 -31 -26 -9 -72 29 -62 29 8 65 34 65 46 0
6 9 17 20 25 11 8 20 20 20 26 0 7 6 14 14 17 8 3 13 16 11 29 -7 57 -18 98
-27 98 -5 0 -7 4 -4 9 8 12 -32 143 -46 153 -7 4 -8 8 -3 8 6 0 1 7 -9 15 -11
8 -16 15 -12 15 5 0 4 6 -2 13 -6 7 -13 24 -16 39 -2 14 -16 50 -30 80 -14 30
-26 60 -26 66 0 7 -4 12 -10 12 -5 0 -10 7 -10 15 0 8 -5 15 -11 15 -5 0 -8 4
-5 9 7 10 -52 101 -66 101 -5 0 -6 5 -3 10 3 6 -1 13 -9 16 -9 3 -16 10 -16
14 0 11 37 -8 70 -35 35 -28 120 -130 120 -144 0 -6 4 -11 10 -11 5 0 7 -7 4
-15 -3 -8 -2 -20 2 -27 5 -7 9 -16 10 -20 1 -5 3 -10 4 -13 1 -3 4 -9 5 -15 1
-5 3 -11 4 -12 2 -2 4 -13 7 -26 5 -28 30 -79 43 -86 31 -20 81 62 77 125 -3
41 -41 129 -55 129 -6 0 -11 7 -11 15 0 8 -4 15 -10 15 -5 0 -9 4 -7 9 1 4
-18 27 -42 51 -31 30 -40 45 -32 53 6 6 11 21 11 34 0 13 4 23 9 23 4 0 7 10
6 23 -1 12 -3 31 -4 43 -1 14 -16 28 -46 44 -25 13 -45 27 -45 32 0 5 -4 7 -8
4 -5 -3 -21 6 -36 19 -16 14 -32 22 -37 19 -5 -2 -22 2 -39 11 -28 15 -29 17
-15 32 10 9 14 25 11 36 -3 12 0 27 5 34 15 17 -7 37 -46 41 -16 2 -35 8 -41
13 -6 5 -14 6 -17 2 -4 -3 -7 -2 -7 3 0 5 -13 24 -30 42 -32 35 -39 58 -16 49
8 -3 17 1 20 9 3 8 16 14 28 14 13 0 29 9 36 21 7 12 16 18 19 15 7 -7 63 25
63 36 0 4 5 8 10 8 6 0 21 10 33 23 21 22 41 34 60 35 22 1 103 74 106 95 0 4
9 16 19 27 21 22 43 86 39 110 -5 25 -34 74 -56 94 -12 11 -21 16 -21 12 0 -3
-12 0 -28 8 -15 8 -44 17 -66 20 -21 4 -43 9 -49 13 -6 4 -31 8 -57 9 -25 2
-48 3 -52 3 -10 1 32 71 43 71 5 0 9 5 9 12 0 15 69 158 86 178 7 8 13 18 13
23 1 4 7 22 14 40 8 17 22 55 32 82 11 28 22 52 25 55 3 3 5 14 5 25 0 11 5
28 12 39 6 10 9 25 6 32 -3 8 0 14 6 14 6 0 11 8 11 18 0 10 11 40 24 68 23
47 42 111 38 127 -1 4 3 7 9 7 5 0 8 4 4 9 -3 5 -1 12 4 16 6 3 8 12 4 20 -3
9 0 21 6 29 6 7 8 21 5 30 -4 10 1 25 12 37 10 11 19 30 21 42 2 12 12 46 23
75 11 30 18 58 15 63 -4 5 -1 9 5 9 6 0 8 5 5 10 -3 6 -2 10 3 10 9 0 12 20
13 73 0 9 5 17 10 17 6 0 7 5 4 10 -3 6 -3 10 2 10 7 0 11 16 16 80 1 14 6 28
10 31 5 4 10 24 12 45 2 22 4 41 5 44 2 3 2 8 1 13 0 4 3 7 8 7 5 0 8 14 7 30
-1 17 2 30 7 30 5 0 4 6 -2 14 -7 9 -8 15 -2 18 6 1 12 21 15 43 2 22 5 41 7
43 1 1 2 7 3 14 1 10 22 15 84 20 18 2 78 63 95 96 16 33 22 128 8 136 -6 4
-7 14 -4 22 3 9 0 20 -8 25 -11 7 -11 9 -1 9 8 0 10 5 5 13 -4 6 -9 21 -10 32
-2 10 -9 23 -16 27 -9 6 -9 8 1 8 6 0 12 7 12 15 0 8 4 15 9 15 5 0 13 9 16
21 6 19 29 50 63 85 6 7 12 17 12 23 0 10 14 15 33 12 4 0 7 2 7 7 0 4 16 25
35 47 19 22 35 44 35 48 0 5 4 6 9 3 4 -3 19 8 31 24 13 17 29 30 35 30 7 0
15 10 19 23 3 12 15 32 26 45 11 12 16 22 9 22 -8 0 -8 4 -2 13 6 6 9 22 8 34
-1 12 8 34 21 48 24 29 71 120 77 151 2 10 7 27 11 36 4 9 5 22 1 28 -3 5 -2
10 4 10 7 0 10 35 8 95 -1 52 2 95 7 95 5 0 3 6 -3 14 -8 10 -9 16 -1 21 6 3
8 11 5 16 -4 5 -2 9 2 9 5 0 10 8 10 18 1 9 5 35 8 57 3 22 7 50 8 63 0 12 4
22 7 22 3 0 4 20 2 45 -3 27 0 45 7 45 15 0 5 119 -13 155 -23 46 -66 79 -116
92 -44 11 -100 10 -123 -2z m-2417 -3326 c0 -5 4 -8 9 -4 13 7 26 -16 14 -24
-6 -3 -17 -19 -26 -36 -9 -16 -17 -25 -17 -20 -5 39 -7 81 -3 88 6 11 23 9 23
-4z"/>
</g>
</svg>
