<?xml version="1.0" standalone="no"?>
<!DOCTYPE svg PUBLIC "-//W3C//DTD SVG 20010904//EN"
 "http://www.w3.org/TR/2001/REC-SVG-20010904/DTD/svg10.dtd">
<svg version="1.0" xmlns="http://www.w3.org/2000/svg"
 width="514.000000pt" height="376.000000pt" viewBox="0 0 514.000000 376.000000"
 preserveAspectRatio="xMidYMid meet">
<metadata>
Created by potrace 1.13, written by Peter Selinger 2001-2015
</metadata>
<g transform="translate(0.000000,376.000000) scale(0.100000,-0.100000)"
fill="#000000" stroke="none">
<path d="M1473 3118 c-25 -12 -28 -24 -13 -62 7 -20 6 -24 -5 -19 -8 3 -15 13
-15 23 0 22 -52 48 -88 42 -16 -2 -36 -16 -49 -34 -18 -25 -19 -35 -11 -60 6
-16 20 -34 32 -39 17 -8 15 -8 -9 -3 -16 3 -40 8 -52 10 -13 2 -35 7 -50 10
-43 9 -118 15 -231 17 -79 2 -105 -1 -111 -12 -5 -8 -16 -11 -25 -8 -22 9
-138 -13 -154 -29 -7 -8 -33 -25 -57 -39 -24 -14 -46 -32 -49 -40 -3 -8 -12
-15 -20 -15 -9 0 -22 -12 -30 -27 -8 -16 -15 -24 -16 -20 0 16 -29 -21 -35
-46 -4 -14 -12 -24 -18 -21 -11 4 -67 -107 -74 -145 -1 -9 -5 -29 -9 -46 -10
-51 -12 -125 -2 -125 5 0 4 -9 -2 -21 -9 -16 -8 -24 4 -38 9 -10 13 -20 10
-24 -3 -3 -2 -12 2 -19 5 -7 9 -22 11 -33 4 -36 69 -206 76 -199 4 4 10 -7 13
-25 4 -17 11 -34 15 -37 5 -3 9 -14 9 -26 0 -21 58 -130 72 -136 4 -2 8 -12 8
-23 0 -11 7 -22 15 -25 8 -4 15 -14 15 -24 0 -10 7 -25 15 -34 8 -8 15 -24 15
-35 0 -12 4 -21 9 -21 5 0 14 -12 20 -27 7 -16 27 -55 45 -88 50 -88 63 -116
76 -160 7 -22 19 -53 28 -70 15 -29 22 -38 60 -81 24 -27 52 -82 52 -104 0 -9
13 -35 29 -57 16 -23 27 -43 25 -46 -9 -9 40 -87 57 -92 9 -3 20 -13 23 -23
17 -46 68 -102 94 -102 5 0 15 -7 22 -15 7 -9 18 -14 24 -12 6 3 19 0 29 -5
60 -31 103 -12 143 62 10 19 24 42 30 50 24 31 32 116 20 196 -6 40 -14 56
-36 73 -16 11 -31 21 -34 21 -3 0 -4 -49 -3 -108 1 -102 0 -111 -23 -140 -21
-25 -31 -30 -59 -28 -19 2 -39 10 -45 19 -6 8 -18 25 -26 37 -8 13 -24 35 -36
49 -20 25 -33 51 -30 61 0 3 -8 16 -20 28 -11 12 -26 47 -33 77 -8 37 -17 55
-27 55 -8 0 -12 4 -9 10 3 5 -1 21 -10 34 -9 14 -18 31 -19 38 -2 7 -9 27 -16
43 -7 17 -13 33 -12 38 1 4 -5 7 -14 7 -10 0 -14 6 -10 15 3 8 0 15 -7 15 -8
0 -6 4 3 10 13 8 12 10 -3 10 -10 0 -15 5 -12 10 3 6 1 10 -6 10 -7 0 -9 8 -6
21 3 12 0 22 -8 25 -8 3 -12 11 -9 19 3 7 -2 20 -11 29 -9 9 -14 16 -10 16 3
0 -1 14 -10 30 -9 17 -13 30 -9 30 4 0 1 7 -6 15 -7 8 -9 15 -4 15 5 0 4 4 -1
8 -13 9 -39 62 -40 82 -2 25 -17 74 -28 87 -5 7 -6 13 -2 13 4 0 2 7 -5 15 -7
8 -9 15 -6 15 4 0 0 7 -9 16 -11 11 -13 19 -6 24 8 4 6 12 -4 26 -8 10 -15 27
-15 37 0 9 -4 17 -8 17 -10 0 -39 166 -34 190 18 91 28 123 56 183 16 32 37
63 47 70 10 6 19 17 19 23 0 11 73 74 87 75 5 0 16 8 27 17 14 13 37 17 105
17 90 -1 121 -6 180 -31 20 -9 41 -17 46 -18 31 -7 63 -21 90 -40 16 -11 36
-21 45 -23 8 -1 21 -11 29 -22 7 -12 21 -21 30 -21 9 0 36 -14 61 -30 25 -16
50 -30 56 -30 11 0 84 -79 84 -91 0 -3 27 -19 61 -34 54 -24 60 -29 55 -50 -4
-17 -1 -27 11 -34 10 -6 14 -11 10 -11 -5 0 1 -13 12 -29 12 -16 21 -32 21
-36 0 -3 6 -12 13 -19 6 -7 24 -27 39 -43 14 -17 31 -32 36 -34 6 -2 12 -13
14 -24 3 -20 11 -33 39 -63 9 -9 19 -25 22 -34 4 -10 14 -18 23 -18 12 0 15
-7 12 -24 -4 -19 2 -27 29 -40 32 -15 33 -15 48 8 18 28 13 87 -11 125 l-17
26 27 -24 c14 -14 33 -26 42 -27 8 -1 23 -11 32 -21 9 -10 23 -19 31 -21 8 -2
23 -13 33 -24 10 -12 18 -17 18 -12 0 10 44 -68 61 -109 11 -27 34 -45 67 -52
9 -2 24 -6 32 -9 11 -5 19 3 27 24 6 16 7 30 2 30 -4 0 -5 7 -2 17 4 11 3 14
-5 9 -7 -4 -12 -1 -12 7 0 7 -9 23 -20 35 -11 12 -20 25 -20 31 0 5 -7 12 -16
15 -9 4 -14 9 -11 13 4 3 2 12 -4 19 -7 9 -6 12 8 10 10 -2 18 -7 18 -13 0
-16 39 -63 52 -63 7 0 13 -4 13 -10 0 -5 7 -10 16 -10 11 0 14 -6 9 -20 -3
-11 -3 -20 2 -21 4 0 16 -2 25 -4 9 -2 30 8 45 23 26 24 26 26 8 33 -11 4 -17
8 -12 8 9 1 -20 60 -37 76 -6 5 -27 21 -47 34 -35 24 -47 60 -18 52 8 -2 28
-7 45 -11 16 -4 42 -15 56 -24 14 -9 41 -18 59 -20 46 -5 74 -13 98 -26 12 -6
21 -7 21 -3 0 4 5 2 12 -5 7 -7 22 -12 35 -12 20 0 21 -3 13 -24 -5 -13 -6
-27 -3 -30 4 -3 0 -6 -8 -6 -17 0 -52 -37 -45 -48 2 -4 -2 -16 -10 -27 -8 -10
-14 -16 -14 -12 0 4 -9 3 -21 -3 -15 -8 -24 -8 -34 0 -22 18 -78 -19 -79 -53
-2 -27 6 -33 53 -42 12 -2 19 0 16 5 -3 5 24 9 60 9 35 0 67 -5 71 -10 9 -15
-16 -78 -35 -88 -23 -13 -24 -49 0 -61 10 -6 19 -9 19 -7 0 2 20 1 45 -3 33
-5 45 -3 49 7 3 8 10 12 15 8 5 -3 12 4 16 15 3 11 11 20 16 20 5 0 9 9 9 19
0 26 20 31 42 9 18 -18 16 -72 -3 -84 -5 -3 -9 -16 -9 -29 0 -29 47 -59 70
-45 8 5 18 6 23 3 4 -3 11 4 14 16 3 12 10 21 16 21 6 0 7 3 4 6 -3 4 0 16 8
28 8 11 15 31 15 43 l0 23 20 -20 c11 -11 24 -20 29 -20 5 0 7 -9 4 -20 -3
-12 1 -22 10 -26 10 -4 14 -15 10 -35 -2 -16 -1 -28 4 -27 4 1 19 -2 32 -6 13
-5 26 -4 30 0 3 5 12 9 19 9 6 0 11 2 10 5 -1 3 4 15 11 28 8 16 9 27 3 35 -6
7 -10 16 -10 21 1 5 -10 20 -23 34 -24 25 -24 25 -1 13 12 -7 31 -9 42 -6 12
4 22 0 28 -12 7 -12 20 -17 41 -15 17 1 42 -5 55 -13 15 -10 35 -13 60 -10 28
5 36 3 36 -9 0 -24 35 -37 80 -30 22 4 40 2 40 -3 0 -13 62 -16 70 -3 5 8 12
6 24 -5 9 -9 37 -18 63 -21 26 -2 51 -8 57 -13 13 -9 59 -23 96 -28 26 -3 115
-6 115 -3 0 1 28 3 63 6 34 2 62 0 62 -5 0 -5 17 -26 38 -47 20 -20 36 -41 34
-46 -1 -4 5 -8 13 -8 8 0 15 -5 15 -11 0 -5 5 -7 10 -4 6 3 10 -1 10 -9 0 -8
9 -20 20 -26 11 -6 20 -17 20 -25 0 -8 9 -19 20 -25 11 -6 18 -15 15 -21 -4
-5 -1 -9 4 -9 6 0 11 -7 11 -15 0 -8 5 -15 10 -15 6 0 10 -9 10 -21 0 -11 4
-18 9 -14 5 3 17 -13 27 -35 10 -22 22 -40 27 -40 5 0 7 -9 4 -20 -3 -12 1
-24 11 -29 15 -8 15 -12 3 -23 -8 -8 -11 -8 -7 -1 4 7 -3 15 -16 19 -35 11
-98 13 -98 3 0 -5 -6 -9 -14 -9 -8 0 -17 -8 -21 -18 -13 -31 -24 -75 -18 -69
3 4 18 0 33 -8 25 -13 28 -13 32 3 4 15 13 17 41 14 48 -5 64 -24 48 -58 -16
-37 -14 -62 8 -74 25 -13 61 -13 61 0 0 5 6 7 13 4 7 -2 19 7 27 21 8 15 22
25 36 25 29 0 39 -16 24 -35 -7 -8 -10 -15 -7 -15 3 0 0 -20 -7 -45 -12 -39
-12 -45 0 -45 8 0 23 -6 35 -13 17 -10 22 -9 33 5 7 9 25 18 40 21 28 3 49 24
40 39 -3 4 2 5 10 2 9 -3 13 -10 10 -15 -3 -5 2 -9 10 -9 9 0 13 -6 10 -15 -4
-9 3 -16 20 -21 20 -5 25 -11 21 -25 -5 -14 -1 -19 12 -20 10 0 26 -2 36 -4
17 -3 53 46 41 57 -2 3 -7 16 -9 29 -3 13 -9 25 -15 27 -5 2 -10 10 -10 18 0
11 4 12 19 5 15 -8 20 -7 25 5 10 25 7 32 -23 63 -16 16 -26 33 -23 38 4 4 3
5 -2 1 -5 -4 -21 -1 -37 8 -16 8 -29 10 -29 5 0 -5 -8 -7 -19 -4 -21 5 -39 39
-35 65 1 10 -4 18 -11 18 -7 0 -12 8 -10 17 1 10 -3 25 -10 33 -7 8 -15 24
-17 35 -1 11 -12 28 -22 37 -10 10 -16 18 -12 18 4 0 -4 15 -18 33 -14 19 -23
37 -19 40 3 4 1 7 -6 7 -7 0 -18 6 -24 13 -12 12 -15 25 -21 77 -4 38 -38 124
-53 133 -7 5 -11 12 -8 18 4 5 1 9 -5 9 -6 0 -8 4 -5 10 3 5 1 10 -5 10 -6 0
-9 4 -6 9 4 5 1 11 -6 13 -7 3 -9 12 -5 22 5 11 13 16 23 12 8 -3 13 -2 10 2
-7 11 21 45 32 38 10 -6 27 22 23 38 -1 5 4 6 12 3 13 -5 62 84 70 128 4 20 6
26 34 100 19 49 43 140 48 178 2 15 8 34 14 41 6 7 8 16 5 19 -5 5 -13 93 -18
192 0 17 -6 33 -12 37 -6 4 -9 19 -6 33 3 16 0 25 -8 25 -7 0 -10 6 -7 14 3 8
-5 24 -19 37 -13 12 -22 24 -20 26 7 8 -100 124 -127 138 -11 5 -19 14 -18 19
4 12 -20 26 -46 26 -12 0 -23 4 -25 9 -1 5 -10 11 -18 13 -8 2 -19 8 -25 15
-5 7 -22 14 -37 17 -14 2 -36 9 -47 16 -12 6 -21 8 -21 4 0 -3 -11 1 -25 10
-13 9 -53 18 -87 21 -35 3 -72 9 -83 12 -34 10 -89 11 -102 0 -7 -5 -13 -7
-13 -3 0 3 -15 0 -32 -7 -18 -7 -53 -14 -78 -16 -25 -2 -47 -6 -50 -10 -3 -4
-24 -7 -48 -6 -24 0 -46 -3 -48 -7 -3 -5 -16 -6 -29 -4 -13 2 -32 -2 -42 -9
-10 -8 -26 -15 -35 -15 -10 0 -18 -4 -18 -10 0 -5 -11 -13 -26 -16 -22 -6 -25
-11 -22 -42 3 -32 7 -38 40 -47 20 -5 40 -13 44 -17 4 -5 14 -8 22 -8 9 0 57
-20 108 -45 67 -32 107 -59 143 -97 63 -65 66 -88 14 -88 -42 0 -123 33 -123
50 0 5 -8 10 -19 10 -21 0 -45 23 -34 33 3 4 1 7 -6 7 -6 0 -37 16 -67 35 -30
19 -58 35 -63 35 -5 0 -14 7 -21 15 -7 8 -21 15 -31 15 -11 0 -27 9 -36 19 -9
11 -20 18 -25 15 -4 -3 -8 -1 -8 5 0 5 -15 13 -32 17 -18 3 -37 13 -43 21 -5
7 -24 16 -40 19 -17 3 -31 9 -33 15 -2 5 -10 9 -18 9 -8 0 -22 4 -32 9 -9 5
-35 17 -57 26 -22 10 -48 22 -57 26 -10 5 -26 9 -37 9 -10 0 -24 7 -31 15 -7
8 -19 15 -26 15 -8 0 -22 4 -32 9 -9 5 -51 19 -92 32 -41 12 -95 32 -120 44
-25 12 -51 20 -58 18 -7 -3 -21 2 -30 10 -9 8 -35 17 -57 19 -22 3 -50 10 -61
16 -12 6 -24 9 -26 6 -3 -2 -26 4 -51 15 -25 11 -54 20 -64 20 -10 0 -49 7
-88 16 -38 9 -79 18 -90 19 -11 2 -31 6 -45 9 -14 4 -43 8 -65 10 -22 2 -46 6
-53 11 -6 4 -12 5 -12 2 0 -2 -13 -1 -30 4 -18 5 -30 5 -30 -1 0 -5 -12 -3
-27 4 -17 8 -42 11 -63 7 -19 -3 -66 -5 -105 -3 -125 5 -115 3 -98 23 9 10 23
15 33 13 10 -3 21 0 24 6 5 7 14 6 29 -3 34 -22 82 1 91 44 11 58 7 77 -21 95
-29 20 -109 29 -118 14 -4 -5 -16 -9 -28 -9 -21 -1 -71 -30 -51 -30 13 -1 -45
-25 -81 -34 -29 -7 -29 -7 -10 8 11 8 30 16 43 16 30 0 28 25 -3 46 -23 15
-27 15 -60 -5 -33 -19 -38 -20 -59 -6 -29 19 -54 10 -62 -21 -8 -30 -25 -19
-44 26 -13 32 -22 35 -57 18z"/>
</g>
</svg>
