<?xml version="1.0" standalone="no"?>
<!DOCTYPE svg PUBLIC "-//W3C//DTD SVG 20010904//EN"
 "http://www.w3.org/TR/2001/REC-SVG-20010904/DTD/svg10.dtd">
<svg version="1.0" xmlns="http://www.w3.org/2000/svg"
 width="329.000000pt" height="256.000000pt" viewBox="0 0 329.000000 256.000000"
 preserveAspectRatio="xMidYMid meet">
<metadata>
Created by potrace 1.13, written by Peter Selinger 2001-2015
</metadata>
<g transform="translate(0.000000,256.000000) scale(0.100000,-0.100000)"
fill="#000000" stroke="none">
<path d="M2417 2554 c-3 -3 -25 -10 -48 -15 -28 -7 -60 -25 -89 -52 -57 -52
-73 -64 -132 -105 -80 -55 -120 -148 -81 -187 26 -26 97 -54 170 -65 64 -11
114 -38 128 -69 10 -25 -4 -25 -53 -2 -91 45 -272 96 -427 121 -97 15 -338 28
-448 23 -146 -6 -355 -45 -455 -84 -39 -15 -50 -10 -58 23 -16 74 -98 92 -172
38 -23 -16 -51 -30 -61 -30 -11 0 -23 -5 -26 -11 -4 -6 -17 4 -31 25 -21 31
-30 36 -64 36 -34 0 -40 -3 -40 -21 0 -11 7 -27 15 -35 17 -17 20 -44 5 -44
-5 0 -10 4 -10 9 0 10 -72 41 -96 41 -9 0 -40 -7 -68 -15 -47 -14 -54 -20 -65
-53 -11 -32 -10 -44 3 -75 21 -52 51 -51 60 1 13 84 77 94 94 16 15 -69 1
-104 -28 -68 -8 9 -25 14 -44 12 -24 -2 -32 -8 -34 -27 -2 -13 2 -27 9 -32 8
-4 11 -9 9 -11 -3 -2 -36 -19 -74 -38 -95 -49 -157 -107 -216 -205 -71 -118
-94 -212 -87 -365 4 -108 9 -132 44 -220 40 -99 126 -226 190 -278 54 -45 169
-119 240 -156 84 -44 319 -128 448 -161 184 -47 372 -108 425 -138 30 -17 75
-41 100 -54 56 -29 116 -87 129 -123 11 -34 -5 -70 -40 -87 -29 -14 -89 -3
-152 27 -54 26 -87 26 -87 0 0 -26 68 -65 151 -87 124 -32 199 15 199 126 0
69 -25 115 -97 180 -55 50 -117 84 -388 211 -163 77 -192 90 -203 90 -6 0 -12
4 -14 8 -2 4 -39 23 -83 42 -44 19 -82 37 -85 40 -3 3 -43 25 -90 49 -47 25
-106 59 -131 78 -26 18 -49 33 -53 33 -4 0 -17 9 -29 20 -12 10 -43 38 -70 61
-26 23 -47 48 -47 55 0 8 -4 14 -8 14 -5 0 -19 23 -33 52 -64 137 4 302 166
405 28 17 70 37 95 44 95 26 218 2 281 -56 25 -22 49 -35 67 -35 23 0 31 -7
45 -38 16 -37 61 -90 117 -139 14 -12 39 -40 55 -62 17 -22 35 -40 42 -41 6 0
13 -10 15 -22 4 -31 44 -37 53 -9 8 25 -11 95 -31 116 -8 8 -14 15 -11 15 13
0 121 -49 135 -61 30 -27 72 -82 72 -96 0 -9 14 -13 40 -13 37 0 40 2 40 29 0
20 -13 44 -42 76 -55 60 -63 75 -44 75 8 0 17 -9 21 -19 3 -11 19 -24 35 -30
17 -5 30 -17 30 -25 0 -9 9 -16 19 -16 13 0 21 9 26 30 9 42 -24 92 -75 115
-24 11 -40 25 -40 35 0 15 14 17 128 18 l129 1 -17 -82 c-14 -71 -20 -84 -43
-95 -34 -16 -50 -47 -43 -78 6 -23 46 -36 46 -14 0 14 68 43 86 36 9 -3 14
-12 11 -20 -3 -7 -8 -38 -12 -69 -7 -52 -5 -57 11 -57 58 1 78 23 90 100 12
72 41 42 46 -45 3 -56 5 -60 28 -60 34 0 51 37 48 106 -3 56 -3 56 18 40 24
-18 54 -66 54 -87 0 -8 7 -14 16 -14 49 0 61 84 17 128 -20 20 -26 35 -24 63
3 51 -20 72 -74 67 l-42 -3 17 40 c16 39 17 39 66 36 27 -1 56 -7 66 -12 9 -5
28 -9 42 -9 14 0 51 -7 83 -15 79 -21 377 -21 413 0 42 24 72 18 125 -28 106
-90 151 -143 193 -225 23 -46 42 -85 42 -86 0 -2 -11 -1 -26 2 -40 7 -74 -31
-74 -85 0 -36 3 -43 20 -43 11 0 20 6 20 14 0 15 21 26 50 26 16 0 19 -9 22
-52 3 -46 6 -53 25 -56 16 -2 26 5 37 27 9 16 16 37 16 46 0 8 9 15 20 15 17
0 20 -7 21 -42 1 -24 0 -53 -1 -65 -1 -19 4 -23 29 -23 24 0 31 4 31 20 0 11
7 23 15 26 9 4 15 19 15 38 l0 31 24 -27 c13 -16 28 -28 35 -28 6 0 11 -7 11
-16 0 -10 7 -14 23 -12 31 4 35 57 7 103 -18 30 -19 35 -6 35 25 0 19 37 -11
65 -30 27 -44 30 -73 15 -16 -9 -24 0 -61 69 -23 44 -66 107 -96 141 -29 34
-56 73 -59 88 -10 40 -32 81 -75 139 l-38 51 25 53 c37 76 45 145 41 366 -4
211 -15 273 -73 417 -41 104 -147 200 -246 224 -49 12 -170 16 -181 6z"/>
</g>
</svg>
