<?xml version="1.0" standalone="no"?>
<!DOCTYPE svg PUBLIC "-//W3C//DTD SVG 20010904//EN"
 "http://www.w3.org/TR/2001/REC-SVG-20010904/DTD/svg10.dtd">
<svg version="1.0" xmlns="http://www.w3.org/2000/svg"
 width="264.000000pt" height="328.000000pt" viewBox="0 0 264.000000 328.000000"
 preserveAspectRatio="xMidYMid meet">
<metadata>
Created by potrace 1.13, written by Peter Selinger 2001-2015
</metadata>
<g transform="translate(0.000000,328.000000) scale(0.100000,-0.100000)"
fill="#000000" stroke="none">
<path d="M1158 3273 c-11 -3 -18 -14 -18 -30 0 -23 2 -25 35 -19 27 5 35 4 35
-8 0 -8 10 -26 23 -40 12 -14 35 -41 51 -61 15 -19 34 -35 40 -35 15 0 56 -54
56 -73 0 -7 5 -18 10 -23 12 -12 41 -156 34 -164 -3 -3 -18 10 -32 28 -26 31
-30 32 -95 32 -65 0 -68 -1 -65 -22 2 -14 11 -24 23 -26 11 -2 29 -14 40 -26
11 -13 38 -32 60 -42 22 -10 42 -20 45 -23 8 -9 42 -29 88 -52 23 -12 42 -23
42 -25 0 -2 -12 -10 -27 -18 -36 -18 -96 -75 -111 -103 -7 -12 -33 -29 -59
-38 -27 -9 -56 -21 -65 -26 -10 -5 -22 -9 -27 -9 -14 0 -139 -78 -173 -108
-107 -94 -248 -276 -248 -320 0 -11 -9 -26 -19 -33 -19 -14 -121 -201 -121
-223 0 -6 -20 -73 -45 -148 -46 -145 -140 -342 -180 -380 -14 -13 -25 -28 -25
-35 0 -6 -4 -13 -9 -15 -5 -1 -68 -59 -141 -128 -73 -69 -135 -127 -139 -130
-20 -13 -84 -108 -108 -158 -50 -110 -37 -274 34 -422 53 -109 252 -275 380
-316 141 -45 203 -54 362 -54 158 0 238 12 305 46 16 7 33 14 37 14 5 0 46 23
93 50 47 28 89 50 95 50 5 0 11 3 13 8 5 10 127 92 138 92 6 0 10 5 10 10 0 6
8 14 17 17 16 6 48 31 79 61 7 6 17 12 23 12 6 0 11 5 11 10 0 6 6 10 14 10 8
0 16 4 18 8 2 5 19 20 39 33 127 85 184 125 187 131 2 4 19 12 38 18 19 6 34
16 34 21 0 5 6 9 14 9 7 0 44 14 81 31 54 24 100 35 219 51 83 11 175 19 204
18 45 0 52 2 52 19 0 45 -211 48 -407 7 -72 -16 -98 -26 -248 -96 -79 -38
-269 -159 -312 -199 -12 -12 -26 -21 -30 -21 -7 0 -106 -71 -140 -99 -36 -31
-278 -160 -333 -178 -145 -47 -290 -53 -410 -17 -145 44 -214 76 -310 148 -94
71 -155 152 -185 248 -16 49 -17 65 -6 129 11 66 26 99 71 152 42 50 120 127
160 157 25 19 47 38 48 42 2 5 8 8 13 8 6 0 21 10 33 23 13 12 37 32 52 44 16
12 43 35 59 53 17 17 46 48 66 68 20 20 50 58 67 84 33 48 92 168 92 186 0 6
3 12 8 14 4 2 36 61 71 132 35 72 69 136 75 144 60 74 130 130 206 165 49 22
84 33 218 67 42 10 41 -2 -2 -25 -58 -32 -71 -102 -32 -179 13 -26 27 -63 30
-82 4 -19 12 -34 19 -34 7 0 18 -9 25 -20 7 -11 21 -20 32 -20 17 0 20 7 20
40 0 22 -4 40 -10 40 -5 0 -10 7 -10 16 0 13 22 15 175 12 96 -2 175 -6 175
-10 0 -5 13 -8 28 -8 24 0 32 -7 48 -42 10 -24 23 -46 29 -50 18 -13 -8 -25
-85 -38 -41 -7 -106 -24 -145 -37 -38 -14 -88 -29 -110 -34 -62 -15 -94 -30
-113 -53 -9 -12 -51 -39 -92 -60 -177 -91 -240 -142 -240 -193 0 -33 27 -90
48 -99 15 -6 523 -27 632 -25 104 1 293 72 445 166 28 17 87 50 131 73 l82 42
7 -28 c8 -28 23 -152 19 -152 -2 0 -9 6 -16 14 -8 7 -34 17 -57 21 l-43 7 4
-36 c3 -24 0 -36 -8 -36 -26 0 -84 -42 -84 -61 0 -15 8 -19 38 -20 20 0 31 -3
24 -6 -20 -8 -52 -79 -52 -118 0 -28 4 -35 20 -35 11 0 20 6 20 14 0 8 3 17 8
19 4 3 7 -25 7 -61 0 -62 2 -67 23 -70 18 -3 22 1 22 22 0 14 5 26 11 26 15 0
34 21 56 61 67 119 83 131 83 64 0 -34 5 -47 22 -59 48 -34 53 -24 55 87 1 56
4 174 8 262 7 168 -3 262 -33 292 -12 12 -31 14 -83 11 l-67 -5 24 68 c13 38
24 82 24 98 0 16 7 60 16 97 24 104 9 192 -56 321 -74 150 -177 252 -331 329
-93 47 -151 62 -267 70 l-93 7 49 43 c82 72 93 137 29 168 -57 26 -135 39
-201 31 l-61 -7 29 25 c26 22 28 29 22 73 -3 27 -5 56 -5 64 2 119 -4 140 -42
140 -11 0 -19 7 -19 15 0 29 -63 95 -90 95 -19 0 -20 -6 -16 -92 2 -51 0 -84
-4 -73 -4 11 -30 41 -58 66 -27 25 -58 59 -68 75 -10 16 -33 44 -51 62 -32 32
-70 40 -125 25z m407 -212 c3 -5 1 -12 -5 -16 -5 -3 -10 1 -10 9 0 18 6 21 15
7z m299 -1080 c16 -9 37 -20 47 -26 11 -5 21 -17 24 -25 3 -8 16 -28 30 -44
33 -39 32 -50 -5 -31 -35 18 -73 19 -99 3 -14 -9 -23 -8 -42 5 -13 10 -34 17
-46 17 -14 0 -23 6 -23 15 0 9 10 15 26 15 21 0 25 4 22 23 -3 19 -10 22 -54
25 -49 3 -51 4 -46 28 5 26 6 26 71 19 36 -4 79 -15 95 -24z m-39 -191 c4 -6
-9 -10 -32 -9 -34 1 -35 2 -13 9 35 11 38 11 45 0z"/>
</g>
</svg>
