<?xml version="1.0" standalone="no"?>
<!DOCTYPE svg PUBLIC "-//W3C//DTD SVG 20010904//EN"
 "http://www.w3.org/TR/2001/REC-SVG-20010904/DTD/svg10.dtd">
<svg version="1.0" xmlns="http://www.w3.org/2000/svg"
 width="440.000000pt" height="739.000000pt" viewBox="0 0 440.000000 739.000000"
 preserveAspectRatio="xMidYMid meet">
<metadata>
Created by potrace 1.13, written by Peter Selinger 2001-2015
</metadata>
<g transform="translate(0.000000,739.000000) scale(0.100000,-0.100000)"
fill="#000000" stroke="none">
<path d="M3369 7330 c-36 -19 -99 -83 -99 -100 0 -5 -24 -44 -52 -87 -29 -43
-62 -99 -73 -123 -11 -25 -27 -54 -37 -65 -9 -11 -37 -45 -63 -75 -72 -85
-125 -217 -125 -310 0 -22 -4 -40 -9 -40 -5 0 -13 -10 -17 -22 -4 -13 -10 -25
-15 -28 -14 -9 -14 -106 0 -255 15 -171 8 -292 -19 -300 -10 -3 -34 -21 -55
-40 -20 -19 -40 -35 -44 -35 -14 0 -50 -45 -66 -82 -29 -71 -17 -149 30 -192
29 -27 27 -35 -25 -121 -16 -27 -47 -84 -68 -125 -20 -41 -40 -76 -44 -78 -5
-2 -8 -8 -8 -12 0 -5 -20 -51 -45 -103 -70 -147 -107 -239 -111 -272 -1 -16
-3 -33 -3 -37 -1 -5 -8 -8 -16 -8 -9 0 -15 -9 -15 -24 0 -13 -4 -26 -9 -28
-12 -4 -81 -181 -81 -206 0 -12 -4 -24 -10 -27 -5 -3 -10 -15 -10 -26 0 -10
-4 -19 -10 -19 -5 0 -10 -11 -10 -24 0 -14 -4 -27 -9 -30 -21 -14 -120 -368
-136 -489 l-6 -48 -30 26 c-45 37 -176 97 -223 102 -57 6 -106 -21 -130 -72
-27 -55 -28 -186 -2 -235 10 -19 25 -66 33 -105 8 -38 19 -74 24 -80 5 -5 9
-19 9 -31 0 -13 7 -29 15 -38 8 -8 15 -21 15 -28 0 -8 5 -19 11 -25 9 -9 6
-13 -12 -17 -77 -15 -92 -15 -134 4 -55 25 -75 25 -75 1 0 -10 -7 -21 -15 -25
-8 -3 -15 -17 -15 -31 0 -28 -18 -32 -53 -13 -20 11 -154 36 -199 38 -23 0
-68 -46 -68 -70 0 -11 -4 -20 -10 -20 -5 0 -10 -8 -10 -19 0 -20 -25 -31 -72
-31 -37 0 -129 -25 -168 -45 -65 -34 -109 -107 -96 -161 9 -35 37 -31 117 21
38 25 74 45 79 45 6 0 10 3 10 8 0 25 192 60 258 46 l37 -7 -65 -16 c-82 -20
-183 -63 -280 -117 -41 -24 -88 -46 -104 -50 -29 -7 -225 -136 -238 -158 -15
-22 -9 -160 8 -184 23 -33 58 -26 62 12 3 27 79 133 121 168 47 40 101 67 186
93 50 16 97 34 105 41 24 19 122 54 154 54 16 0 101 18 190 39 88 21 178 42
200 46 l39 6 -61 -56 c-34 -31 -85 -75 -114 -98 -29 -23 -60 -49 -68 -58 -30
-32 -168 -123 -298 -196 -24 -14 -52 -32 -61 -41 -10 -9 -42 -30 -70 -47 -29
-16 -79 -47 -112 -67 -33 -21 -64 -38 -69 -38 -6 0 -10 -4 -10 -8 0 -4 -14
-16 -30 -26 -17 -9 -38 -26 -48 -36 -9 -10 -31 -26 -48 -36 -29 -18 -99 -69
-134 -97 -8 -7 -31 -23 -50 -36 -19 -13 -39 -29 -45 -35 -5 -6 -21 -20 -36
-31 -29 -23 -189 -200 -189 -210 0 -3 -16 -23 -35 -43 -19 -20 -35 -43 -35
-50 0 -8 -10 -28 -22 -45 -13 -17 -27 -39 -33 -49 -56 -94 -68 -118 -80 -148
-11 -31 -30 -78 -71 -175 -24 -59 -35 -112 -49 -237 -23 -217 11 -436 95 -614
22 -46 45 -86 50 -89 6 -4 20 -25 31 -47 36 -71 162 -212 234 -263 15 -11 33
-24 40 -30 18 -16 49 -35 67 -41 10 -4 18 -10 18 -14 0 -5 12 -13 27 -19 16
-6 35 -15 43 -20 29 -17 116 -49 167 -61 60 -13 279 1 398 26 39 8 85 18 103
21 17 3 32 10 32 14 0 5 7 9 15 9 29 0 275 116 275 130 0 5 5 10 12 10 6 0 18
7 27 15 9 9 46 39 83 68 36 29 75 64 86 78 11 14 49 54 84 90 67 67 136 147
187 214 17 22 38 49 48 60 27 29 83 115 83 126 0 5 3 9 8 9 10 0 95 109 210
270 9 13 37 49 62 80 25 30 61 76 80 100 42 55 112 131 164 179 22 20 66 61
98 91 32 30 64 60 71 65 14 12 141 118 175 146 12 10 25 19 30 19 5 0 126 86
208 147 15 11 40 28 109 68 33 20 69 41 80 48 21 13 92 65 112 82 6 5 26 21
44 35 18 14 39 31 46 38 7 8 37 30 66 50 28 20 57 40 64 46 6 6 26 22 44 36
96 73 276 251 299 296 8 16 21 34 28 39 8 7 12 25 10 45 -5 57 -36 52 -91 -15
-62 -76 -240 -235 -262 -235 -5 0 -23 -11 -41 -25 -18 -14 -37 -25 -42 -25 -5
0 -21 -11 -36 -25 -15 -14 -32 -25 -37 -25 -6 0 -23 -8 -37 -18 -15 -10 -39
-24 -54 -32 -16 -7 -28 -17 -28 -22 0 -4 -5 -8 -12 -8 -6 0 -19 -6 -27 -14 -9
-7 -50 -31 -91 -53 -41 -22 -91 -50 -110 -61 -19 -12 -44 -26 -55 -32 -11 -6
-37 -20 -57 -33 -104 -62 -167 -97 -177 -97 -6 0 -11 -7 -11 -15 0 -8 -11 -17
-25 -21 -14 -3 -30 -15 -36 -25 -5 -11 -18 -19 -28 -19 -9 0 -28 -11 -41 -25
-13 -14 -29 -25 -36 -25 -7 0 -17 -6 -21 -13 -4 -7 -19 -20 -33 -29 -14 -8
-47 -36 -74 -62 -26 -25 -50 -46 -53 -46 -9 0 -42 -45 -43 -57 0 -7 -9 -13
-20 -13 -11 0 -27 -11 -36 -25 -9 -13 -24 -27 -35 -30 -10 -4 -19 -13 -19 -21
0 -8 -5 -14 -11 -14 -14 0 -95 -85 -207 -217 -15 -18 -39 -45 -55 -59 -15 -15
-27 -33 -27 -40 0 -6 -11 -19 -24 -28 -14 -8 -27 -25 -31 -36 -3 -11 -13 -20
-21 -20 -8 0 -21 -15 -30 -33 -9 -18 -26 -37 -37 -43 -12 -5 -26 -19 -32 -32
-5 -12 -14 -22 -20 -22 -6 0 -19 -16 -29 -35 -10 -19 -27 -37 -37 -40 -10 -3
-21 -16 -25 -28 -8 -26 -32 -57 -136 -176 -16 -17 -28 -36 -28 -41 0 -6 -6
-10 -14 -10 -8 0 -22 -13 -31 -28 -10 -16 -29 -36 -44 -46 -14 -10 -46 -43
-71 -72 -24 -30 -48 -54 -53 -54 -5 0 -31 -20 -57 -43 -106 -95 -302 -165
-482 -171 -118 -4 -195 10 -300 54 -90 37 -137 75 -211 172 -129 169 -185 322
-174 473 8 111 40 264 65 311 6 10 18 44 27 74 36 119 108 230 208 323 104 96
350 249 569 353 48 23 93 46 100 51 11 8 140 73 266 132 17 9 32 19 32 23 0 5
9 8 20 8 10 0 23 6 27 13 4 7 38 30 75 50 37 21 86 52 110 70 24 18 66 48 93
67 74 51 226 171 260 206 17 17 48 44 70 60 22 16 42 32 45 36 17 23 70 88
100 124 19 23 49 59 67 80 17 22 47 56 67 78 20 21 36 44 36 51 0 7 9 15 19
18 18 4 18 2 -3 -42 -17 -38 -21 -63 -20 -143 l2 -96 46 -60 c48 -63 53 -83
35 -129 -24 -59 -28 -69 -38 -102 -6 -19 -11 -48 -11 -65 0 -30 -27 -84 -56
-113 -19 -19 -18 -106 1 -143 12 -23 22 -30 45 -30 26 0 30 4 30 27 0 14 6 34
13 42 7 9 22 36 32 61 10 25 26 63 36 85 9 22 31 84 49 137 17 53 34 98 38
100 4 2 14 17 24 33 28 51 79 62 243 51 361 -24 617 -2 791 68 49 19 110 38
137 42 26 3 50 10 52 14 3 5 21 6 40 3 33 -5 35 -4 35 24 0 40 -31 77 -81 97
-52 21 -80 15 -150 -29 -29 -19 -63 -35 -76 -35 -12 0 -46 -8 -75 -19 -52 -18
-246 -29 -269 -15 -16 9 9 32 59 54 26 12 53 29 62 38 28 32 60 81 60 92 0 5
3 10 8 10 4 0 19 20 34 43 15 24 37 52 48 62 11 10 20 26 20 37 0 14 8 18 35
18 28 0 35 4 35 20 0 26 -36 44 -91 44 -63 0 -88 -19 -128 -98 -21 -43 -47
-77 -74 -98 -23 -17 -46 -37 -52 -43 -12 -15 -70 -45 -86 -45 -6 0 2 15 17 34
16 18 40 48 52 65 13 17 39 40 58 52 66 41 36 69 -75 69 -39 0 -52 -5 -73 -28
-15 -15 -30 -40 -34 -57 -8 -36 -47 -91 -75 -106 -19 -9 -19 -9 -10 10 6 11
11 31 11 45 0 23 3 25 30 20 25 -6 30 -3 30 14 0 24 -16 38 -56 46 -40 9 -104
-16 -111 -44 -3 -11 -9 -20 -14 -20 -5 0 -9 -11 -9 -23 0 -29 -48 -94 -74
-101 -10 -3 -32 -2 -48 1 l-29 6 68 66 c62 61 156 168 165 188 1 4 14 15 27
24 40 25 63 145 40 206 -23 63 -103 118 -187 130 -23 3 -44 9 -47 13 -2 4 15
27 38 52 125 134 204 274 253 453 8 28 19 62 25 76 5 14 16 61 24 105 8 43 32
174 53 289 25 132 41 243 42 300 2 162 7 253 14 264 4 6 38 11 79 11 132 1
275 55 351 134 76 79 240 168 290 159 18 -4 28 0 32 12 10 24 -12 57 -56 85
-21 14 -36 30 -32 35 24 35 100 80 141 85 40 4 46 8 49 31 7 61 -90 103 -147
63 -23 -16 -23 -16 -11 7 7 13 21 36 31 51 11 14 19 36 19 48 0 14 8 24 21 27
14 4 19 12 17 27 -2 17 -11 22 -42 24 -50 4 -88 -12 -108 -45 -14 -24 -22 -27
-61 -24 -64 4 -83 -18 -92 -104 -5 -47 -11 -63 -18 -56 -17 17 -83 13 -102 -6
-14 -13 -16 -28 -12 -65 7 -55 1 -61 -73 -73 -25 -4 -61 -15 -80 -24 l-35 -18
0 101 c0 88 -3 106 -24 143 -23 40 -24 45 -11 110 7 37 15 86 17 108 3 22 14
51 24 64 11 13 19 28 19 33 0 5 9 27 20 50 46 96 49 197 10 318 -12 36 -24
101 -26 145 -6 96 -26 223 -60 365 -13 58 -24 128 -24 155 0 71 -31 114 -109
152 -56 28 -114 29 -162 3z m31 -190 c0 -5 -2 -10 -4 -10 -3 0 -8 5 -11 10 -3
6 -1 10 4 10 6 0 11 -4 11 -10z m163 -125 c5 -28 4 -34 -3 -20 -8 19 -14 73
-6 64 2 -2 6 -22 9 -44z m-203 -187 c0 -5 -4 -8 -10 -8 -5 0 -10 10 -10 23 0
18 2 19 10 7 5 -8 10 -18 10 -22z m-31 -122 c-13 -15 -19 -3 -12 24 6 22 7 22
14 4 3 -10 3 -23 -2 -28z m58 12 c-3 -8 -6 -5 -6 6 -1 11 2 17 5 13 3 -3 4
-12 1 -19z m88 -988 c3 -5 1 -10 -4 -10 -6 0 -11 5 -11 10 0 6 2 10 4 10 3 0
8 -4 11 -10z m288 -190 c-3 -12 -8 -19 -11 -16 -5 6 5 36 12 36 2 0 2 -9 -1
-20z m-77 -56 c-19 -18 -21 -11 -4 19 7 14 13 17 15 10 3 -7 -3 -20 -11 -29z
m-503 -311 c4 -3 2 -12 -5 -20 -17 -21 -24 -173 -7 -173 8 0 4 -8 -9 -20 -14
-13 -22 -33 -22 -53 -1 -35 -25 -145 -34 -155 -15 -15 -16 12 -1 69 12 46 54
321 55 357 0 5 17 2 23 -5z m-73 -467 c0 -2 -3 -11 -6 -20 -9 -24 -33 -20 -27
4 4 16 33 30 33 16z m-34 -113 c-11 -11 -17 4 -9 23 7 18 8 18 11 1 2 -10 1
-21 -2 -24z m-31 -120 c-9 -32 -23 -85 -32 -118 -8 -33 -21 -67 -27 -75 -7 -8
-19 -35 -27 -60 -7 -25 -22 -61 -31 -80 -10 -19 -18 -47 -18 -62 0 -21 -5 -28
-20 -28 -20 0 -20 0 -2 38 40 78 120 312 154 447 10 40 14 44 16 23 2 -14 -4
-52 -13 -85z m-197 -502 c-12 -33 -28 -61 -35 -61 -14 0 -11 9 27 82 32 64 37
53 8 -21z m-668 -1045 c0 -3 -4 -8 -10 -11 -5 -3 -10 -1 -10 4 0 6 5 11 10 11
6 0 10 -2 10 -4z m-50 -69 c0 -5 -4 -5 -10 -2 -5 3 -10 14 -10 23 0 15 2 15
10 2 5 -8 10 -19 10 -23z m-250 -17 c0 -5 -5 -10 -11 -10 -5 0 -7 5 -4 10 3 6
8 10 11 10 2 0 4 -4 4 -10z m170 -30 c0 -5 -4 -10 -10 -10 -5 0 -10 5 -10 10
0 6 5 10 10 10 6 0 10 -4 10 -10z m-60 -84 c0 -8 -7 -17 -16 -20 -23 -9 -24
-8 -24 14 0 13 7 20 20 20 11 0 20 -6 20 -14z m-333 -72 c-3 -3 -12 -4 -19 -1
-8 3 -5 6 6 6 11 1 17 -2 13 -5z m-94 -71 c-7 -2 -21 -2 -30 0 -10 3 -4 5 12
5 17 0 24 -2 18 -5z m250 -10 c-7 -2 -19 -2 -25 0 -7 3 -2 5 12 5 14 0 19 -2
13 -5z m-333 -27 c0 -12 -33 -35 -41 -30 -6 3 -2 12 8 20 18 13 33 18 33 10z
m-90 -56 c0 -5 -2 -10 -4 -10 -3 0 -8 5 -11 10 -3 6 -1 10 4 10 6 0 11 -4 11
-10z m-185 -280 c3 -5 1 -10 -4 -10 -6 0 -11 5 -11 10 0 6 2 10 4 10 3 0 8 -4
11 -10z m-405 -90 c12 -8 11 -10 -7 -10 -13 0 -23 5 -23 10 0 13 11 13 30 0z
m216 -15 c-19 -14 -36 -12 -36 6 0 5 12 9 28 9 26 -1 26 -1 8 -15z m-85 -56
c-12 -12 -25 -18 -29 -14 -4 4 2 13 12 21 30 22 43 17 17 -7z m-71 -36 c-1
-14 -27 -43 -33 -37 -7 7 14 44 25 44 5 0 8 -3 8 -7z m-87 -78 c-12 -9 -19
-10 -22 -3 -4 12 20 29 32 21 4 -3 0 -11 -10 -18z m-356 -472 c-3 -10 -5 -4
-5 12 0 17 2 24 5 18 2 -7 2 -21 0 -30z m-97 -391 c0 -15 -2 -15 -10 -2 -13
20 -13 33 0 25 6 -3 10 -14 10 -23z"/>
</g>
</svg>
