<?xml version="1.0" standalone="no"?>
<!DOCTYPE svg PUBLIC "-//W3C//DTD SVG 20010904//EN"
 "http://www.w3.org/TR/2001/REC-SVG-20010904/DTD/svg10.dtd">
<svg version="1.0" xmlns="http://www.w3.org/2000/svg"
 width="416.000000pt" height="421.000000pt" viewBox="0 0 416.000000 421.000000"
 preserveAspectRatio="xMidYMid meet">
<metadata>
Created by potrace 1.13, written by Peter Selinger 2001-2015
</metadata>
<g transform="translate(0.000000,421.000000) scale(0.100000,-0.100000)"
fill="#000000" stroke="none">
<path d="M2971 3452 c-11 -21 -3 -33 34 -46 15 -5 16 -9 6 -15 -16 -10 -20
-173 -4 -178 13 -5 7 -95 -7 -103 -7 -4 -11 -10 -10 -14 4 -16 -13 -66 -22
-66 -6 0 -8 -6 -5 -13 3 -7 -4 -19 -14 -25 -10 -7 -19 -19 -19 -27 0 -18 -20
-20 -21 -2 -1 6 0 27 1 45 1 17 -2 32 -7 32 -4 0 -25 16 -47 35 -21 19 -44 35
-51 35 -22 0 -27 -32 -8 -52 10 -11 16 -31 15 -45 -2 -13 6 -44 17 -69 12 -24
23 -54 25 -67 3 -12 5 -23 7 -24 1 -2 2 -6 3 -10 1 -5 8 -19 16 -33 25 -44 22
-46 -58 -44 -41 0 -92 -3 -112 -8 -30 -8 -45 -6 -81 11 -23 12 -50 21 -59 21
-9 0 -20 3 -23 7 -4 3 -17 8 -29 9 -13 2 -43 7 -68 11 -72 14 -268 1 -340 -22
-10 -3 -28 -8 -39 -10 -12 -3 -30 -7 -40 -9 -11 -3 -29 -10 -40 -16 -12 -6
-21 -7 -21 -3 0 4 -7 -2 -15 -14 -12 -17 -22 -21 -44 -17 -16 4 -32 1 -35 -5
-4 -6 -12 -9 -17 -6 -5 4 -9 2 -9 -3 0 -6 -12 -13 -26 -16 -42 -11 -144 -59
-144 -68 0 -4 -7 -8 -15 -8 -8 0 -15 -3 -15 -8 0 -4 -27 -22 -60 -40 -33 -19
-60 -38 -60 -43 0 -6 -4 -7 -10 -4 -5 3 -10 2 -10 -3 0 -6 -11 -13 -25 -16
-14 -4 -25 -11 -25 -16 0 -6 -7 -10 -15 -10 -8 0 -15 -5 -15 -10 0 -6 -3 -9
-7 -8 -5 0 -16 -2 -25 -5 -10 -4 -26 -10 -35 -14 -10 -3 -20 -7 -23 -8 -3 -1
-23 -10 -45 -20 -22 -10 -43 -20 -47 -21 -5 -1 -10 -3 -13 -4 -3 -1 -9 -4 -15
-5 -5 -1 -11 -4 -12 -5 -2 -1 -16 -4 -33 -6 -16 -2 -52 -7 -80 -12 -27 -4 -74
-7 -102 -7 -29 0 -53 -2 -53 -5 0 -3 -33 -5 -73 -6 -143 -1 -287 -24 -287 -45
0 -5 -3 -8 -7 -7 -15 4 -53 -13 -53 -23 0 -6 -4 -8 -10 -4 -11 7 -132 -114
-125 -125 2 -4 -4 -16 -14 -26 -9 -11 -16 -25 -13 -32 2 -6 -1 -12 -7 -12 -6
0 -10 -3 -9 -7 1 -5 -4 -21 -11 -38 -7 -16 -18 -41 -23 -55 -27 -64 -8 -341
25 -362 6 -4 9 -8 5 -8 -11 0 22 -94 47 -132 14 -20 26 -43 27 -50 2 -7 11
-19 20 -26 10 -7 18 -19 18 -26 0 -8 7 -17 16 -20 9 -4 14 -9 11 -12 -7 -7 61
-76 128 -129 28 -22 60 -49 71 -60 56 -53 174 -119 234 -131 8 -1 33 -7 55
-13 22 -6 65 -14 95 -17 30 -3 62 -9 70 -14 8 -4 35 -8 60 -9 83 -5 117 -8
126 -13 5 -2 37 -4 71 -4 35 1 63 -3 63 -8 0 -5 6 -3 13 3 8 6 16 8 20 5 3 -3
27 -7 54 -9 26 -2 48 -4 48 -5 0 -1 25 -3 55 -5 85 -5 148 -12 159 -20 6 -3
11 -1 11 6 0 8 5 7 17 -2 9 -8 18 -13 20 -11 1 1 6 1 11 1 4 -1 16 -2 27 -3
11 -1 32 -7 47 -14 15 -6 38 -13 50 -15 57 -10 158 -60 207 -104 14 -13 31
-23 38 -23 6 0 18 -6 25 -13 7 -6 31 -24 53 -38 22 -15 53 -38 69 -52 27 -24
31 -24 42 -9 10 13 9 19 -5 29 -9 7 -13 13 -8 13 11 0 -78 90 -90 90 -10 0
-44 24 -77 56 -13 12 -32 25 -44 28 -12 4 -22 12 -22 17 0 5 -7 9 -15 9 -9 0
-34 12 -57 26 -39 25 -85 44 -118 48 -9 1 -20 5 -26 8 -6 4 -22 9 -37 12 -15
2 -30 7 -35 10 -8 5 -40 12 -100 22 -12 2 -34 6 -50 9 -45 8 -164 18 -224 19
-32 1 -58 3 -58 6 0 3 -8 6 -17 6 -82 2 -248 18 -248 24 0 1 -13 3 -30 5 -16
1 -30 3 -30 5 0 1 -13 3 -30 5 -16 2 -41 6 -55 9 -14 4 -38 9 -54 11 -16 2
-32 9 -36 15 -4 7 -10 11 -14 10 -4 -1 -17 1 -29 5 -12 4 -25 7 -29 6 -5 -1
-8 4 -8 10 0 5 -4 8 -9 4 -5 -3 -16 1 -23 9 -8 7 -24 17 -36 20 -12 4 -22 11
-22 16 0 4 -10 10 -22 14 -26 6 -108 78 -108 94 0 6 -9 14 -20 17 -11 3 -20
13 -20 21 0 8 -4 14 -9 14 -5 0 -13 10 -16 23 -4 12 -15 31 -25 42 -21 24 -75
127 -72 138 1 4 -3 7 -9 7 -5 0 -7 4 -4 10 3 5 0 20 -7 32 -7 13 -13 26 -14
31 -1 4 -3 8 -4 10 -1 1 -3 13 -4 27 -2 14 -6 39 -11 55 -9 35 -10 113 -2 172
6 50 28 113 39 113 4 0 5 7 2 15 -4 8 -1 15 5 15 6 0 11 7 11 15 0 8 4 15 10
15 5 0 20 11 34 25 14 14 29 25 35 25 5 0 11 5 13 12 2 6 12 13 21 15 25 5 51
11 57 14 3 1 10 3 15 4 6 2 12 4 15 5 3 1 29 4 59 6 30 2 67 8 83 13 15 5 30
6 32 2 3 -4 34 -7 70 -6 37 1 66 -2 66 -7 0 -5 6 -6 13 -1 16 10 38 10 58 1 9
-4 19 -5 22 -1 3 3 37 7 74 9 37 2 89 5 115 6 27 2 48 7 48 12 0 4 6 6 14 3 8
-3 17 -3 21 1 4 4 11 8 16 8 5 1 10 2 12 4 3 2 40 11 55 12 6 1 12 4 12 8 0 4
18 13 40 20 22 7 40 16 40 21 0 4 12 10 26 13 25 7 67 24 164 70 25 11 48 20
53 18 4 -1 7 2 7 6 0 5 7 9 15 10 8 1 22 3 30 4 8 1 15 6 15 11 0 5 6 7 14 4
8 -3 16 -1 18 5 4 12 173 18 206 6 13 -4 37 -10 53 -13 17 -3 36 -7 42 -8 7
-1 14 -5 17 -8 5 -6 89 -45 103 -47 14 -2 67 -36 67 -43 0 -4 -15 -5 -32 -2
-18 3 -35 5 -38 5 -17 2 -70 -29 -70 -39 0 -7 -4 -13 -8 -13 -10 0 -34 -65
-39 -104 -2 -17 -8 -33 -15 -37 -22 -14 -9 -119 15 -119 19 0 63 53 49 58 -8
2 -8 7 1 16 9 11 20 6 57 -23 25 -20 65 -57 90 -82 25 -25 55 -49 68 -53 12
-4 21 -12 19 -19 -1 -6 8 -16 21 -22 12 -5 21 -14 19 -20 -2 -5 5 -17 16 -26
16 -12 18 -21 12 -45 -5 -16 -9 -32 -10 -36 -2 -5 -4 -11 -5 -15 -1 -5 -2 -16
-1 -25 2 -20 -23 -15 -47 9 -8 7 -17 11 -22 8 -4 -3 -13 2 -20 10 -7 8 -17 15
-23 15 -6 0 -18 7 -28 16 -9 8 -26 16 -38 17 -11 1 -21 4 -21 8 0 4 -24 14
-52 24 -29 9 -76 28 -104 41 -34 17 -63 24 -86 21 -33 -4 -193 24 -193 33 0 4
-67 10 -134 14 -57 3 -68 0 -90 -21 -15 -13 -27 -28 -27 -33 -1 -6 -3 -13 -4
-17 -14 -38 -3 -69 41 -112 40 -41 104 -96 161 -141 11 -8 38 -32 61 -53 23
-20 57 -47 74 -60 18 -12 33 -26 33 -31 0 -13 82 -92 92 -88 4 1 8 -2 8 -7 0
-11 150 -87 163 -83 4 1 7 -2 7 -6 0 -5 6 -9 13 -9 6 0 30 -5 52 -11 22 -6 55
-14 74 -17 19 -3 38 -8 43 -11 13 -8 110 -24 166 -27 6 0 12 -3 12 -7 0 -3 10
-6 23 -7 12 -1 38 -5 57 -9 19 -4 38 -8 42 -8 16 -2 18 -15 7 -42 -7 -16 -12
-32 -11 -35 1 -3 -12 -19 -28 -34 -17 -16 -30 -36 -30 -44 0 -13 -2 -14 -9 -2
-5 8 -7 20 -4 27 2 6 -5 18 -16 26 -12 8 -19 17 -16 19 2 3 -5 10 -15 17 -17
10 -20 10 -20 -3 0 -8 -4 -15 -10 -15 -5 0 -10 -7 -10 -15 0 -12 -4 -13 -19
-5 -11 5 -38 12 -60 14 -52 5 -64 -19 -25 -51 22 -18 24 -21 8 -19 -10 2 -25
-2 -33 -8 -8 -6 -17 -10 -20 -10 -14 3 -51 -20 -51 -32 0 -6 -7 -14 -15 -18
-8 -3 -15 -10 -15 -15 0 -13 32 -23 39 -12 4 6 12 6 21 1 13 -8 13 -10 -1 -10
-9 0 -27 -16 -40 -35 -13 -19 -27 -35 -31 -35 -12 0 -1 -32 15 -41 12 -7 19
-4 27 11 7 12 16 18 23 13 13 -8 59 -5 67 6 3 3 10 6 15 7 26 2 75 17 75 23 0
4 11 8 25 9 31 2 32 -14 3 -39 -39 -34 -16 -121 25 -97 10 5 15 13 13 17 -3 4
4 17 14 29 11 12 20 23 20 26 0 9 64 71 72 68 4 -1 8 5 8 13 0 8 9 15 20 15
11 0 20 5 20 10 0 6 10 21 23 34 12 12 36 39 52 60 17 21 39 48 50 61 36 40
51 60 50 66 0 4 9 16 19 28 11 12 16 21 13 21 -3 0 0 12 7 26 13 24 11 64 -3
64 -3 0 -18 11 -32 24 -14 13 -35 27 -47 30 -18 6 -20 10 -9 20 16 17 60 41
69 38 4 -1 29 22 57 50 28 29 51 49 51 45 0 -4 13 6 30 23 16 16 33 30 37 30
11 0 43 37 43 49 0 5 12 23 26 40 14 17 23 31 19 31 -4 0 -2 6 4 13 6 8 8 17
4 20 -3 4 -1 7 6 7 8 0 11 7 7 15 -3 8 0 15 6 15 6 0 9 3 6 6 -3 3 -2 21 4 41
13 48 17 70 24 123 7 56 7 54 4 60 -1 3 -3 30 -5 60 -5 64 -32 179 -47 197 -6
7 -8 19 -5 27 3 8 -1 17 -9 20 -9 3 -12 10 -9 16 3 5 2 10 -3 10 -9 0 -25 37
-23 53 1 4 -2 7 -7 7 -4 0 -18 18 -32 40 -14 22 -33 43 -42 46 -10 3 -18 10
-18 15 0 6 -21 30 -46 53 -36 33 -42 44 -30 49 8 3 18 2 21 -3 3 -5 11 -7 18
-5 7 2 31 6 54 9 50 6 81 24 89 50 7 21 -15 96 -28 96 -4 0 -8 5 -8 11 0 14
-96 109 -111 109 -6 0 -17 6 -25 14 -12 12 -9 14 19 13 25 -2 38 5 60 29 15
18 27 37 27 44 0 14 38 50 52 50 4 0 8 6 8 14 0 8 6 21 13 28 18 18 19 55 1
62 -11 4 -12 11 -6 23 15 28 8 123 -8 133 -23 15 -29 12 -36 -15 -3 -14 -11
-25 -16 -25 -12 0 -47 -41 -48 -56 0 -6 -8 -18 -17 -25 -15 -12 -15 -12 -6 4
6 12 7 38 2 68 -4 28 -5 57 -2 65 3 7 0 14 -7 14 -6 0 -8 4 -5 10 3 5 8 40 9
77 3 63 2 68 -28 99 -41 42 -71 51 -85 26z m209 -412 c0 -5 -4 -10 -10 -10 -5
0 -10 5 -10 10 0 6 5 10 10 10 6 0 10 -4 10 -10z m-530 -924 c7 -9 9 -16 5
-16 -3 0 7 -12 24 -26 17 -14 31 -32 31 -40 0 -8 4 -14 9 -14 5 0 8 -11 5 -25
-2 -14 0 -25 6 -25 6 0 9 -15 6 -37 -3 -21 -5 -50 -5 -65 -1 -38 -14 -35 -29
5 -12 32 -54 63 -72 52 -7 -4 -20 17 -22 35 0 3 -9 17 -20 32 -24 35 -15 53
16 33 48 -32 50 23 2 60 -33 25 -34 27 -18 44 18 19 38 14 62 -13z m-86 -217
c-3 -5 -12 -2 -20 6 -9 8 -20 15 -25 15 -5 0 -9 4 -9 9 0 5 14 3 30 -6 17 -8
28 -19 24 -24z"/>
</g>
</svg>
