<?xml version="1.0" standalone="no"?>
<!DOCTYPE svg PUBLIC "-//W3C//DTD SVG 20010904//EN"
 "http://www.w3.org/TR/2001/REC-SVG-20010904/DTD/svg10.dtd">
<svg version="1.0" xmlns="http://www.w3.org/2000/svg"
 width="527.000000pt" height="308.000000pt" viewBox="0 0 527.000000 308.000000"
 preserveAspectRatio="xMidYMid meet">
<metadata>
Created by potrace 1.13, written by Peter Selinger 2001-2015
</metadata>
<g transform="translate(0.000000,308.000000) scale(0.100000,-0.100000)"
fill="#000000" stroke="none">
<path d="M2985 3063 c-16 -2 -34 -9 -39 -14 -6 -5 -20 -9 -33 -9 -12 0 -39 -9
-59 -20 -47 -27 -72 -29 -369 -34 -173 -3 -278 -9 -340 -21 -88 -16 -240 -60
-260 -75 -5 -4 -40 -17 -77 -29 -38 -13 -68 -27 -68 -32 0 -5 -12 -9 -26 -9
-29 0 -114 -39 -114 -52 0 -4 -11 -8 -25 -8 -14 0 -29 -8 -35 -20 -6 -11 -17
-20 -25 -20 -8 0 -15 -4 -15 -10 0 -5 -9 -10 -20 -10 -11 0 -20 -4 -20 -10 0
-5 -11 -10 -25 -10 -13 0 -29 -8 -34 -18 -5 -10 -26 -27 -45 -37 -20 -11 -36
-25 -36 -32 0 -7 -5 -13 -12 -13 -7 0 -38 -18 -69 -40 -32 -22 -62 -40 -68
-40 -6 0 -11 -4 -11 -10 0 -5 -6 -10 -14 -10 -8 0 -16 -4 -18 -8 -1 -4 -20
-18 -40 -31 -21 -12 -38 -27 -38 -32 0 -5 -7 -9 -15 -9 -8 0 -15 -4 -15 -10 0
-5 -4 -10 -10 -10 -17 0 -88 -54 -101 -77 -7 -13 -17 -23 -22 -23 -11 0 -47
-39 -47 -52 0 -4 -6 -8 -14 -8 -8 0 -16 -6 -19 -13 -3 -9 -31 -16 -79 -20 -88
-6 -152 -23 -191 -50 -27 -18 -28 -18 -70 2 -65 32 -108 28 -150 -13 -24 -23
-37 -47 -42 -75 -4 -22 -11 -41 -16 -41 -5 0 -9 -6 -9 -14 0 -8 -6 -21 -13
-28 -7 -7 -19 -28 -26 -45 -7 -18 -17 -33 -22 -33 -5 0 -9 -6 -9 -13 0 -8 -9
-24 -20 -37 -11 -13 -20 -30 -20 -38 0 -11 -6 -8 -20 8 -11 13 -20 29 -20 37
0 7 -4 13 -8 13 -5 0 -15 11 -22 25 -9 18 -22 25 -42 25 l-28 0 4 -99 c4 -101
5 -105 53 -156 13 -13 23 -27 23 -30 0 -13 59 -65 74 -65 8 0 17 -4 20 -9 3
-5 26 -14 51 -20 25 -6 45 -16 45 -21 0 -6 -5 -10 -10 -10 -6 0 -14 -8 -17
-17 -6 -15 -15 -26 -58 -74 -8 -9 -15 -19 -15 -23 0 -4 -7 -14 -15 -22 -8 -9
-18 -33 -21 -55 -4 -21 -10 -39 -15 -39 -4 0 -11 -36 -15 -80 -3 -44 -11 -80
-15 -80 -5 0 -9 -29 -9 -65 0 -36 4 -65 9 -65 4 0 11 -51 15 -112 4 -62 11
-114 17 -116 5 -2 9 -15 9 -30 0 -31 21 -92 32 -92 4 0 8 -9 8 -20 0 -11 6
-23 14 -26 8 -3 20 -19 26 -35 7 -16 16 -29 21 -29 4 0 11 -9 14 -21 4 -12 14
-29 23 -39 10 -10 26 -29 37 -43 11 -14 25 -26 32 -27 6 0 15 -9 18 -20 3 -11
9 -20 13 -20 4 0 26 -17 48 -38 23 -20 72 -53 110 -72 38 -19 70 -38 72 -42 2
-5 10 -8 17 -8 7 0 35 -10 62 -21 26 -12 93 -34 148 -49 55 -15 118 -34 140
-42 127 -48 283 -68 522 -68 271 0 404 17 593 74 25 8 60 17 78 21 18 4 45 13
60 21 15 8 33 14 40 14 8 0 28 7 45 15 18 8 57 23 87 34 119 41 155 54 160 61
3 3 25 12 50 18 25 7 54 17 65 22 37 17 110 47 128 53 9 4 17 11 17 16 0 5 23
15 50 22 28 7 50 16 50 21 0 4 9 8 20 8 11 0 20 4 20 9 0 5 12 12 28 16 15 3
41 13 57 20 63 29 137 53 245 79 36 9 74 20 85 25 11 5 56 16 100 26 44 9 97
21 117 26 86 22 286 39 463 39 180 1 269 -7 560 -50 222 -32 307 -40 442 -40
162 0 203 8 203 39 0 24 -25 28 -225 36 -112 5 -180 14 -270 35 -151 35 -213
48 -295 61 -36 5 -92 14 -125 20 -119 20 -202 28 -287 29 -52 0 -88 4 -88 10
0 12 -47 13 -52 1 -2 -5 -29 -4 -63 3 -70 13 -306 11 -315 -4 -3 -5 -42 -10
-85 -11 -82 -2 -286 -38 -353 -63 -20 -8 -82 -24 -137 -37 -55 -12 -134 -30
-175 -41 -82 -21 -375 -142 -397 -164 -8 -7 -30 -16 -51 -20 -20 -3 -62 -13
-92 -21 -30 -8 -66 -17 -80 -20 -14 -3 -27 -9 -30 -14 -3 -4 -46 -18 -95 -30
-50 -12 -99 -26 -110 -30 -59 -25 -364 -69 -473 -69 -88 0 -213 21 -342 58
-136 39 -185 61 -240 111 -25 23 -53 44 -64 47 -24 8 -173 159 -181 184 -3 11
-11 20 -16 20 -5 0 -9 9 -9 19 0 11 -6 26 -13 33 -16 16 -37 94 -37 137 0 17
-4 31 -10 31 -5 0 -10 14 -10 30 0 17 5 30 10 30 6 0 10 13 10 29 0 37 20 94
37 104 7 4 13 14 13 22 0 15 14 34 68 93 17 19 32 39 32 43 0 5 5 9 10 9 6 0
24 13 40 30 16 16 34 30 39 30 5 0 13 9 16 20 3 11 13 20 21 20 8 0 14 5 14
10 0 6 6 10 14 10 8 0 16 7 20 15 3 8 10 15 16 15 12 0 93 52 98 63 2 4 10 7
18 7 8 0 14 5 14 10 0 6 9 10 19 10 11 0 26 7 35 15 8 8 17 15 21 15 3 0 21
11 39 25 45 34 94 53 184 70 121 23 117 25 119 -46 1 -34 5 -64 11 -68 5 -3
12 -18 16 -33 3 -16 13 -28 21 -28 8 0 15 -4 15 -10 0 -5 7 -10 15 -10 8 0 15
-4 15 -9 0 -5 24 -17 53 -26 60 -20 199 -76 272 -111 28 -12 62 -26 77 -29 17
-5 28 -15 30 -28 2 -17 11 -23 36 -25 l32 -3 0 48 c0 62 -9 93 -26 93 -22 0
-16 17 9 24 48 14 244 19 278 7 19 -7 83 -15 142 -18 98 -5 109 -4 121 13 13
16 17 17 40 5 14 -8 28 -22 32 -33 4 -13 15 -18 41 -18 l35 0 -7 42 c-13 73
-63 97 -210 99 -111 1 -173 17 -73 18 57 1 68 4 73 21 7 24 23 25 49 5 30 -23
66 -19 66 6 0 11 -5 29 -10 39 -12 23 -97 50 -157 50 -36 0 -43 3 -43 20 0 38
-46 55 -151 56 -76 0 -104 5 -125 18 -37 25 -138 19 -158 -10 -8 -10 -18 -15
-22 -11 -5 4 -4 11 1 15 6 4 17 21 25 37 8 17 20 35 25 42 6 7 15 18 21 26 28
33 36 62 32 120 -3 55 -1 62 17 65 22 3 39 10 105 40 25 11 61 23 80 27 19 4
44 13 55 19 11 7 33 16 50 20 27 7 62 21 152 62 17 8 38 14 47 14 9 0 16 4 16
8 0 18 284 82 370 83 63 0 97 3 322 29 136 16 134 17 140 -115 3 -64 8 -100
16 -103 7 -2 12 -9 12 -16 0 -18 69 -76 90 -76 10 0 20 -6 23 -12 4 -15 230
-15 333 0 68 9 78 4 89 -46 5 -27 11 -32 35 -32 32 0 40 14 40 70 0 27 -6 42
-17 49 -16 9 -14 10 9 11 32 0 48 -24 48 -69 0 -27 3 -31 28 -31 42 0 62 31
62 95 0 30 -4 55 -10 55 -5 0 -10 6 -10 13 0 7 -9 23 -20 35 -29 31 -17 27 39
-13 26 -19 56 -35 65 -35 9 0 16 -4 16 -9 0 -5 16 -12 36 -15 19 -4 44 -16 55
-27 10 -10 24 -19 29 -19 6 0 10 -4 10 -10 0 -5 9 -10 20 -10 11 0 20 -6 20
-14 0 -8 6 -21 14 -28 7 -8 17 -24 20 -36 4 -12 13 -22 21 -22 8 0 17 -9 20
-21 7 -22 103 -119 117 -119 4 0 8 -7 8 -15 0 -21 84 -100 127 -120 30 -15 33
-20 33 -60 0 -25 4 -45 9 -45 5 0 12 -18 16 -40 4 -22 10 -40 15 -40 4 0 13
-15 21 -32 7 -18 19 -37 26 -41 7 -4 13 -14 13 -21 0 -8 7 -16 15 -20 8 -3 15
-12 15 -20 0 -8 7 -22 16 -30 20 -21 64 -21 64 -1 0 9 9 15 25 15 20 0 25 5
25 25 0 14 -4 25 -10 25 -5 0 -12 11 -16 25 -3 14 -10 25 -14 25 -4 0 -13 14
-20 30 -7 16 -16 30 -21 30 -5 0 -11 11 -15 25 -3 14 -9 25 -13 25 -9 0 -31
61 -31 88 0 15 6 22 19 22 25 0 31 26 31 142 0 59 4 98 11 100 6 2 11 41 12
94 2 74 -1 93 -15 108 -10 10 -18 24 -18 32 0 8 -5 14 -10 14 -6 0 -15 20 -22
45 -7 25 -15 45 -19 45 -3 0 -9 14 -13 30 -5 30 -25 52 -105 119 -23 19 -41
41 -41 48 0 7 -6 13 -14 13 -8 0 -16 10 -20 23 -3 13 -17 29 -31 37 -14 7 -25
19 -25 25 0 6 -11 21 -25 33 -14 12 -25 26 -25 31 0 5 -9 13 -20 16 -11 3 -20
13 -20 21 0 8 -4 14 -9 14 -5 0 -24 14 -42 32 -19 17 -56 44 -83 60 -54 32
-289 105 -381 118 -33 5 -114 16 -179 25 -66 9 -125 20 -130 24 -6 5 -36 14
-66 21 -30 7 -71 18 -90 26 -19 7 -53 16 -75 20 -22 4 -44 10 -50 14 -5 4 -31
13 -57 20 -27 7 -48 17 -48 21 0 5 -6 9 -13 9 -7 0 -18 9 -25 20 -7 11 -19 20
-27 20 -8 0 -15 3 -15 8 0 28 -181 59 -265 45z m792 -782 c26 -10 84 -26 128
-35 44 -9 85 -23 91 -31 6 -8 16 -15 23 -15 6 0 11 -4 11 -10 0 -5 7 -10 15
-10 8 0 15 -4 15 -10 0 -5 7 -10 17 -10 9 0 13 -3 10 -7 -4 -3 -17 -1 -30 5
-80 39 -121 52 -171 52 -38 0 -66 6 -88 20 -18 11 -43 20 -55 20 -18 0 -23 6
-23 25 0 30 -3 30 57 6z m-3347 -195 c0 -3 -4 -8 -10 -11 -5 -3 -10 -1 -10 4
0 6 5 11 10 11 6 0 10 -2 10 -4z m1910 -476 c0 -5 -7 -10 -16 -10 -8 0 -12 5
-9 10 3 6 10 10 16 10 5 0 9 -4 9 -10z"/>
</g>
</svg>
