<?xml version="1.0" standalone="no"?>
<!DOCTYPE svg PUBLIC "-//W3C//DTD SVG 20010904//EN"
 "http://www.w3.org/TR/2001/REC-SVG-20010904/DTD/svg10.dtd">
<svg version="1.0" xmlns="http://www.w3.org/2000/svg"
 width="269.000000pt" height="269.000000pt" viewBox="0 0 269.000000 269.000000"
 preserveAspectRatio="xMidYMid meet">
<metadata>
Created by potrace 1.13, written by Peter Selinger 2001-2015
</metadata>
<g transform="translate(0.000000,269.000000) scale(0.100000,-0.100000)"
fill="#000000" stroke="none">
<path d="M2105 2460 c-23 -9 -71 -66 -100 -119 -11 -20 -29 -50 -40 -66 -12
-17 -26 -41 -32 -55 -6 -14 -20 -46 -32 -72 -11 -25 -25 -50 -32 -53 -6 -4
-19 -28 -30 -53 -13 -30 -56 -82 -121 -149 -56 -57 -106 -103 -110 -103 -5 0
2 19 14 41 13 23 29 52 36 65 7 13 11 28 8 33 -10 15 -67 21 -89 9 -12 -6 -40
-15 -62 -19 -123 -23 -224 -54 -262 -81 -64 -43 -100 -80 -114 -113 -18 -46
-20 -221 -3 -282 16 -57 13 -73 -16 -91 -17 -11 -26 -6 -75 38 -72 65 -141 88
-204 65 -95 -33 -156 -133 -144 -233 3 -29 12 -59 19 -67 7 -7 21 -32 30 -56
10 -24 23 -51 31 -60 7 -8 13 -20 13 -25 0 -5 -35 -43 -77 -84 -42 -41 -110
-120 -150 -174 -40 -54 -91 -115 -113 -134 -44 -37 -70 -79 -70 -112 0 -11
-10 -39 -21 -62 -17 -33 -20 -52 -15 -92 8 -70 22 -81 105 -80 147 1 342 86
457 199 17 16 53 47 80 68 49 38 49 39 126 34 l77 -4 78 86 c43 47 81 91 86
96 4 6 32 41 62 78 30 38 52 73 49 79 -12 19 -91 -5 -136 -41 -10 -8 -18 -11
-18 -7 0 8 46 71 68 95 8 8 32 39 55 69 81 107 83 108 174 114 90 7 106 15
182 88 48 47 87 118 100 182 20 96 33 155 42 184 14 45 11 62 -11 74 -16 8
-23 7 -37 -10 -32 -37 -45 -22 -16 18 91 125 220 239 310 273 37 14 76 45 165
131 77 75 79 78 72 115 -11 64 -76 148 -191 247 -24 20 -87 29 -118 16z"/>
</g>
</svg>
