<?xml version="1.0" standalone="no"?>
<!DOCTYPE svg PUBLIC "-//W3C//DTD SVG 20010904//EN"
 "http://www.w3.org/TR/2001/REC-SVG-20010904/DTD/svg10.dtd">
<svg version="1.0" xmlns="http://www.w3.org/2000/svg"
 width="161.000000pt" height="452.000000pt" viewBox="0 0 161.000000 452.000000"
 preserveAspectRatio="xMidYMid meet">
<metadata>
Created by potrace 1.13, written by Peter Selinger 2001-2015
</metadata>
<g transform="translate(0.000000,452.000000) scale(0.100000,-0.100000)"
fill="#000000" stroke="none">
<path d="M1128 4360 c-21 -22 -38 -46 -38 -53 0 -7 -7 -22 -15 -33 -8 -10 -15
-26 -15 -35 0 -9 -6 -22 -14 -28 -7 -6 -19 -32 -26 -57 -7 -24 -21 -49 -30
-54 -10 -5 -20 -20 -23 -32 -9 -37 -32 -95 -44 -109 -6 -8 -14 -32 -17 -54 -4
-22 -9 -56 -12 -75 -4 -19 -12 -42 -19 -50 -13 -16 -29 -112 -46 -274 -5 -54
-18 -125 -29 -157 -11 -32 -20 -72 -20 -88 0 -16 -5 -42 -11 -58 -8 -21 -12
-24 -19 -13 -5 8 -5 21 0 30 6 11 4 24 -6 39 -8 11 -13 29 -10 39 7 22 -27 71
-91 130 -46 43 -62 43 -63 2 0 -9 -8 -27 -17 -40 -10 -15 -25 -71 -35 -135 -9
-60 -24 -146 -32 -190 -9 -44 -21 -109 -27 -144 -6 -36 -19 -81 -30 -100 -10
-20 -23 -79 -29 -131 -6 -52 -15 -104 -20 -116 -4 -12 -4 -28 2 -38 7 -12 7
-26 -1 -43 -8 -17 -8 -30 -1 -44 8 -13 7 -25 0 -39 -15 -27 -20 -178 -7 -220
28 -95 88 -181 155 -222 24 -15 30 -23 21 -29 -8 -4 -23 0 -37 12 -32 25 -41
24 -52 -6 -6 -15 -17 -25 -29 -25 -11 0 -32 -13 -46 -29 -16 -16 -35 -27 -44
-24 -28 7 -44 -24 -57 -113 -17 -116 0 -237 38 -268 14 -12 28 -33 32 -47 3
-15 17 -34 31 -43 14 -9 25 -21 25 -27 0 -6 11 -25 24 -42 21 -27 23 -38 17
-73 -4 -22 -11 -47 -16 -54 -5 -7 -19 -81 -31 -164 -12 -83 -28 -169 -34 -191
-7 -22 -16 -74 -22 -115 -5 -40 -16 -83 -24 -94 -8 -11 -14 -30 -14 -41 0 -12
-4 -25 -9 -30 -25 -28 -34 -342 -11 -370 12 -15 120 -17 138 -2 9 7 17 6 28
-5 12 -12 14 -23 6 -51 -12 -42 -8 -47 30 -47 20 0 31 6 37 22 5 13 21 34 36
48 15 14 31 34 36 45 5 11 13 27 18 35 20 32 51 107 51 123 0 10 11 22 24 26
15 6 25 20 30 42 3 18 11 38 18 46 6 8 24 51 39 95 26 77 27 92 28 266 0 101
3 187 6 192 3 5 22 12 43 16 20 4 45 13 55 22 13 12 22 13 41 4 21 -9 28 -6
60 22 33 31 36 37 38 102 1 38 5 74 10 80 4 6 7 71 5 145 -2 110 -5 140 -20
162 -25 38 -44 34 -94 -20 -24 -25 -46 -43 -50 -39 -4 3 -1 43 5 89 14 95 19
142 26 252 8 120 16 146 56 172 87 56 113 78 136 114 13 21 24 48 24 61 0 12
7 29 15 38 8 9 17 35 19 57 2 22 6 45 10 52 11 17 17 172 18 441 0 135 4 252
9 260 4 9 3 23 -2 31 -4 9 -9 68 -10 133 -2 98 -5 119 -21 136 -11 11 -23 18
-29 15 -14 -9 -49 -86 -49 -109 -1 -23 -33 -122 -44 -133 -10 -10 -7 68 5 112
6 22 21 63 34 90 12 28 25 66 29 86 4 21 13 42 21 49 8 7 17 27 21 46 3 19 10
37 15 40 5 3 9 16 9 28 0 13 6 29 14 35 7 6 17 42 21 79 4 36 13 76 21 87 8
10 14 31 14 45 0 14 4 32 9 39 6 9 6 22 -1 34 -6 13 -6 27 1 46 18 42 23 178
8 209 -8 15 -12 34 -10 44 2 9 -1 19 -6 23 -6 3 -11 21 -11 40 0 66 -43 135
-84 135 -12 0 -38 -18 -58 -40z"/>
</g>
</svg>
