<?xml version="1.0" standalone="no"?>
<!DOCTYPE svg PUBLIC "-//W3C//DTD SVG 20010904//EN"
 "http://www.w3.org/TR/2001/REC-SVG-20010904/DTD/svg10.dtd">
<svg version="1.0" xmlns="http://www.w3.org/2000/svg"
 width="269.000000pt" height="122.000000pt" viewBox="0 0 269.000000 122.000000"
 preserveAspectRatio="xMidYMid meet">
<metadata>
Created by potrace 1.13, written by Peter Selinger 2001-2015
</metadata>
<g transform="translate(0.000000,122.000000) scale(0.100000,-0.100000)"
fill="#000000" stroke="none">
<path d="M1590 1011 c-96 -11 -250 -39 -272 -52 -10 -5 -24 -9 -31 -9 -22 0
-71 -28 -94 -52 -18 -21 -28 -48 -51 -140 l-7 -28 -32 26 c-18 14 -33 34 -33
44 0 26 -76 114 -106 122 -31 8 -127 -8 -166 -28 -38 -20 -78 -86 -77 -126 3
-63 -15 -123 -36 -125 -34 -5 -167 -31 -240 -48 -38 -9 -99 -20 -135 -24 -80
-11 -95 -16 -115 -47 -8 -13 -22 -24 -30 -24 -8 0 -33 -18 -55 -40 -31 -31
-40 -48 -40 -73 0 -41 17 -57 91 -90 84 -37 102 -39 333 -39 l212 0 11 -29
c21 -55 69 -60 253 -25 133 25 239 58 252 78 10 16 -18 38 -49 38 -13 0 -23 5
-23 10 0 6 11 10 24 10 14 0 27 4 30 9 3 5 20 11 38 13 28 5 37 0 73 -39 37
-41 45 -45 106 -53 64 -7 148 3 229 28 258 80 300 97 300 122 0 25 -22 36 -95
44 -33 4 -82 13 -110 20 -47 12 -48 14 -26 25 13 7 96 27 185 43 144 27 184
30 371 32 240 1 248 4 300 93 24 39 28 57 26 112 -1 36 -8 75 -15 87 -8 11
-16 31 -18 44 -2 14 -18 34 -38 48 -30 21 -43 23 -94 19 -32 -3 -63 -10 -69
-16 -6 -6 -22 -11 -36 -11 -13 0 -47 -11 -75 -24 -110 -52 -304 -114 -401
-129 -121 -19 -195 -26 -195 -19 0 3 36 39 80 81 44 42 80 84 80 92 0 46 -85
65 -230 50z"/>
</g>
</svg>
