<?xml version="1.0" standalone="no"?>
<!DOCTYPE svg PUBLIC "-//W3C//DTD SVG 20010904//EN"
 "http://www.w3.org/TR/2001/REC-SVG-20010904/DTD/svg10.dtd">
<svg version="1.0" xmlns="http://www.w3.org/2000/svg"
 width="336.000000pt" height="243.000000pt" viewBox="0 0 336.000000 243.000000"
 preserveAspectRatio="xMidYMid meet">
<metadata>
Created by potrace 1.13, written by Peter Selinger 2001-2015
</metadata>
<g transform="translate(0.000000,243.000000) scale(0.100000,-0.100000)"
fill="#000000" stroke="none">
<path d="M2888 2154 c-90 -32 -302 -178 -343 -236 -7 -11 -32 -40 -56 -66 -25
-26 -62 -69 -83 -95 -36 -44 -160 -127 -172 -115 -2 3 26 34 64 69 38 35 74
73 79 83 15 28 -10 66 -40 61 -12 -2 -44 -6 -71 -10 -50 -7 -163 -38 -201 -55
-11 -5 -41 -16 -68 -24 -26 -9 -75 -27 -108 -41 -33 -14 -102 -39 -152 -56
-51 -16 -116 -43 -145 -59 -60 -35 -139 -129 -148 -178 -4 -18 -10 -35 -15
-38 -5 -2 -13 -24 -19 -47 -19 -73 -32 -98 -49 -95 -11 2 -15 12 -13 30 3 21
-8 38 -52 81 -51 50 -58 54 -100 52 -32 -1 -53 -8 -69 -23 -13 -12 -30 -22
-38 -22 -20 0 -79 -37 -107 -66 -32 -33 -80 -141 -107 -238 l-22 -79 -139 -81
c-76 -45 -166 -101 -199 -126 -32 -25 -86 -61 -119 -80 -67 -40 -162 -144
-171 -187 -4 -16 -10 -36 -16 -45 -5 -10 -9 -24 -9 -32 0 -23 39 -83 64 -99
51 -34 213 -44 326 -20 69 14 148 48 251 108 l114 67 42 -15 c48 -18 47 -18
216 81 49 29 94 52 100 52 20 1 190 104 189 115 0 6 -10 12 -22 15 l-22 5 24
21 c30 27 95 64 113 64 7 0 28 12 45 26 28 24 34 26 68 16 78 -24 88 -25 127
-23 46 3 168 58 232 104 23 18 77 57 118 87 41 30 91 66 111 80 20 14 50 37
67 51 18 14 46 33 62 42 31 15 72 57 114 113 16 22 21 38 16 54 -6 18 -12 21
-44 16 -20 -2 -58 -17 -84 -32 -26 -14 -51 -23 -55 -19 -4 4 -1 10 7 13 8 3
33 22 55 42 50 46 128 93 182 109 21 7 48 16 59 21 11 5 49 21 85 35 160 65
341 201 375 281 17 42 20 80 5 89 -5 3 -10 17 -10 31 0 26 -26 74 -47 87 -7 4
-13 16 -13 27 0 10 -16 32 -36 48 -41 34 -96 44 -146 26z"/>
</g>
</svg>
