<?xml version="1.0" standalone="no"?>
<!DOCTYPE svg PUBLIC "-//W3C//DTD SVG 20010904//EN"
 "http://www.w3.org/TR/2001/REC-SVG-20010904/DTD/svg10.dtd">
<svg version="1.0" xmlns="http://www.w3.org/2000/svg"
 width="194.000000pt" height="194.000000pt" viewBox="0 0 194.000000 194.000000"
 preserveAspectRatio="xMidYMid meet">
<metadata>
Created by potrace 1.13, written by Peter Selinger 2001-2015
</metadata>
<g transform="translate(0.000000,194.000000) scale(0.100000,-0.100000)"
fill="#000000" stroke="none">
<path d="M162 1685 c-26 -29 -29 -39 -22 -62 15 -52 42 -108 60 -128 10 -11
50 -54 89 -96 42 -44 71 -84 71 -97 0 -11 5 -24 10 -27 6 -4 23 -25 37 -48 33
-53 123 -148 133 -142 5 3 6 14 3 25 -7 27 1 25 44 -7 84 -64 156 -150 149
-176 -3 -12 2 -46 10 -76 20 -67 72 -125 168 -189 39 -26 73 -49 76 -52 3 -3
19 -14 35 -25 98 -66 135 -59 110 22 -13 41 18 26 81 -39 33 -35 80 -94 104
-133 62 -101 153 -191 210 -209 67 -22 156 -31 165 -16 10 17 9 79 -3 93 -6 6
-13 29 -17 50 -6 31 -42 90 -72 119 -57 54 -137 115 -173 131 -25 10 -70 38
-100 61 -68 51 -72 55 -94 88 -16 25 -17 28 -2 34 9 3 38 -2 66 -12 46 -17 52
-17 66 -2 22 22 7 65 -50 143 -72 99 -115 146 -216 241 -38 35 -78 46 -157 45
-44 -1 -74 2 -78 9 -4 7 6 26 21 43 62 68 76 122 41 155 -36 34 -132 47 -205
28 l-57 -15 -30 27 c-16 15 -51 47 -77 72 -26 25 -68 61 -95 80 -26 19 -61 50
-78 67 -23 24 -45 35 -84 43 -89 17 -106 14 -139 -25z"/>
</g>
</svg>
