<?xml version="1.0" standalone="no"?>
<!DOCTYPE svg PUBLIC "-//W3C//DTD SVG 20010904//EN"
 "http://www.w3.org/TR/2001/REC-SVG-20010904/DTD/svg10.dtd">
<svg version="1.0" xmlns="http://www.w3.org/2000/svg"
 width="230.000000pt" height="229.000000pt" viewBox="0 0 230.000000 229.000000"
 preserveAspectRatio="xMidYMid meet">
<metadata>
Created by potrace 1.13, written by Peter Selinger 2001-2015
</metadata>
<g transform="translate(0.000000,229.000000) scale(0.100000,-0.100000)"
fill="#000000" stroke="none">
<path d="M1910 1960 c-25 -3 -62 -14 -82 -23 -47 -20 -182 -156 -228 -230 -19
-31 -37 -56 -40 -57 -3 0 -14 16 -24 35 -10 19 -27 37 -38 41 -25 8 -74 -4
-89 -22 -6 -8 -19 -14 -29 -14 -23 0 -94 -39 -137 -75 -7 -5 -41 -32 -76 -60
-58 -46 -109 -100 -163 -175 -12 -16 -25 -50 -29 -76 -8 -55 -24 -94 -38 -94
-6 0 -21 10 -34 22 -16 15 -37 22 -70 23 -129 4 -222 -90 -238 -241 -6 -48 -4
-63 9 -73 9 -8 16 -18 16 -23 0 -5 -37 -51 -82 -102 -119 -135 -144 -168 -185
-243 -20 -38 -42 -75 -49 -83 -16 -19 -22 -53 -26 -146 -2 -67 -1 -73 27 -102
25 -27 38 -32 74 -32 77 0 236 91 371 213 80 72 110 89 166 90 47 0 39 -7 169
134 46 50 54 64 41 69 -9 3 -28 -1 -42 -11 -30 -20 -40 -15 -25 13 15 28 182
182 197 182 7 0 18 9 24 19 7 14 25 21 67 26 56 7 125 42 188 97 11 9 35 29
53 44 48 39 162 183 162 204 0 35 -26 44 -78 28 -26 -9 -49 -14 -51 -12 -6 6
41 54 53 54 5 0 22 11 36 25 15 14 49 34 76 44 27 11 75 30 108 42 65 25 154
100 194 163 14 22 31 63 38 91 30 110 10 163 -79 214 -56 32 -62 33 -137 21z"/>
</g>
</svg>
