<?xml version="1.0" standalone="no"?>
<!DOCTYPE svg PUBLIC "-//W3C//DTD SVG 20010904//EN"
 "http://www.w3.org/TR/2001/REC-SVG-20010904/DTD/svg10.dtd">
<svg version="1.0" xmlns="http://www.w3.org/2000/svg"
 width="260.000000pt" height="260.000000pt" viewBox="0 0 260.000000 260.000000"
 preserveAspectRatio="xMidYMid meet">
<metadata>
Created by potrace 1.13, written by Peter Selinger 2001-2015
</metadata>
<g transform="translate(0.000000,260.000000) scale(0.100000,-0.100000)"
fill="#000000" stroke="none">
<path d="M296 2369 c-23 -18 -26 -28 -26 -80 0 -55 31 -171 51 -194 5 -5 9
-18 9 -28 0 -11 13 -36 28 -56 16 -20 39 -54 52 -76 44 -77 75 -120 100 -140
49 -39 73 -71 101 -132 16 -35 29 -69 29 -77 0 -13 23 -45 93 -131 48 -59 140
-155 149 -155 14 0 9 34 -12 72 -11 20 -16 39 -11 42 10 7 40 -27 66 -74 36
-65 87 -130 112 -142 18 -9 30 -27 38 -55 7 -24 26 -64 42 -90 17 -27 35 -61
42 -78 15 -40 86 -108 141 -136 25 -12 68 -41 95 -64 56 -46 177 -123 245
-155 25 -12 56 -28 70 -36 41 -23 53 -18 45 18 -4 18 -12 39 -18 46 -5 7 -7
15 -3 19 3 3 75 -62 159 -145 83 -83 170 -163 192 -178 22 -14 51 -36 65 -48
14 -12 37 -28 52 -36 63 -31 166 36 219 142 22 43 27 63 20 76 -11 20 -78 84
-130 122 -18 14 -47 37 -65 51 -32 27 -185 127 -223 148 -27 14 -30 29 -7 27
26 -2 27 19 1 50 -13 16 -35 49 -50 74 -14 25 -36 57 -49 72 -13 15 -40 51
-60 80 -21 29 -52 73 -70 97 -18 24 -38 53 -45 65 -7 11 -18 25 -25 31 -8 5
-23 25 -35 44 -45 72 -119 135 -205 173 -46 20 -104 42 -130 49 -49 14 -64 29
-28 29 28 0 60 35 60 65 0 13 -13 44 -29 67 -16 24 -27 46 -25 49 13 21 -156
119 -205 119 -17 0 -40 4 -53 9 -13 5 -36 12 -51 16 -16 3 -45 25 -65 48 -63
71 -235 241 -277 272 -22 17 -51 42 -65 56 -14 15 -34 31 -46 37 -50 26 -143
52 -180 50 -23 0 -45 2 -51 5 -6 4 -22 -3 -37 -14z"/>
</g>
</svg>
