<?xml version="1.0" standalone="no"?>
<!DOCTYPE svg PUBLIC "-//W3C//DTD SVG 20010904//EN"
 "http://www.w3.org/TR/2001/REC-SVG-20010904/DTD/svg10.dtd">
<svg version="1.0" xmlns="http://www.w3.org/2000/svg"
 width="640.000000pt" height="480.000000pt" viewBox="0 0 640.000000 480.000000"
 preserveAspectRatio="xMidYMid meet">
<metadata>
Created by potrace 1.13, written by Peter Selinger 2001-2015
</metadata>
<g transform="translate(0.000000,480.000000) scale(0.100000,-0.100000)"
fill="#000000" stroke="none">
<path d="M990 4169 c0 -7 -3 -10 -6 -7 -3 3 -31 -3 -62 -15 -59 -21 -153 -26
-276 -15 -38 4 -74 1 -98 -8 -21 -7 -38 -11 -38 -7 0 3 -7 -1 -17 -8 -9 -8
-18 -13 -20 -11 -30 21 -117 -53 -167 -143 -58 -104 -71 -206 -31 -253 14 -17
25 -33 25 -36 0 -4 9 -19 20 -35 12 -15 22 -37 23 -49 1 -12 4 -22 7 -22 3 0
6 -12 7 -26 1 -24 74 -104 95 -104 4 0 8 -7 8 -15 0 -8 14 -21 30 -30 16 -9
30 -22 30 -29 0 -8 7 -17 16 -20 8 -3 12 -10 9 -16 -3 -6 1 -13 9 -16 9 -3 16
-12 16 -18 0 -14 85 -105 139 -148 18 -16 30 -28 27 -28 -5 0 14 -18 83 -80 9
-8 30 -24 46 -34 36 -22 38 -25 136 -120 43 -41 88 -80 100 -86 25 -13 27 -15
97 -80 23 -22 46 -40 50 -40 15 0 43 -72 48 -124 13 -132 31 -205 62 -243 26
-34 197 -143 223 -143 14 0 119 -61 119 -69 0 -3 20 -17 45 -31 25 -14 45 -28
45 -31 0 -4 63 -43 140 -88 77 -44 150 -90 162 -101 13 -12 30 -27 38 -34 47
-42 120 -49 144 -15 28 41 15 63 -103 171 -16 15 -32 41 -36 58 -4 16 -11 30
-16 30 -6 0 -8 4 -5 8 3 5 -6 16 -20 26 -13 11 -24 24 -24 31 0 6 -11 18 -25
25 -13 7 -27 21 -30 31 -3 9 -13 20 -21 23 -8 3 -12 10 -9 16 4 6 12 7 18 3
13 -8 17 -9 62 -17 17 -3 48 -15 70 -25 22 -11 63 -29 90 -42 28 -12 67 -31
87 -41 21 -11 40 -18 43 -17 4 0 27 -9 53 -22 55 -26 78 -35 112 -44 23 -6 81
-31 142 -62 14 -7 31 -13 38 -13 19 0 58 -50 65 -83 4 -18 15 -45 25 -62 9
-16 22 -50 28 -75 6 -25 18 -62 27 -83 8 -20 15 -40 14 -43 0 -4 3 -10 8 -13
5 -3 14 -17 21 -31 18 -38 35 -61 59 -85 13 -12 20 -25 16 -28 -3 -4 -1 -7 5
-7 6 0 13 -9 17 -19 3 -10 19 -24 36 -31 16 -7 33 -18 37 -25 4 -7 36 -30 72
-51 36 -21 70 -43 75 -49 19 -22 202 -123 236 -130 19 -4 43 -12 54 -19 11 -7
40 -18 65 -26 25 -7 50 -17 55 -20 6 -4 24 -11 40 -15 17 -5 32 -9 35 -10 3
-1 23 -10 45 -20 22 -10 60 -27 85 -38 25 -11 62 -29 84 -40 27 -14 63 -20
130 -22 50 -2 96 -4 101 -5 6 -2 12 -2 15 -1 3 1 27 4 54 7 32 3 59 13 77 28
26 22 27 25 12 47 -9 13 -25 34 -37 47 -12 12 -28 30 -37 40 -27 29 -68 99
-62 106 4 3 1 6 -5 6 -6 0 -9 7 -6 15 4 8 2 15 -4 15 -6 0 -20 21 -33 48 -12
26 -27 50 -33 54 -6 4 -12 12 -12 18 -1 5 -2 11 -4 13 -1 1 -3 9 -5 18 -1 9
-6 27 -10 39 -6 20 -5 22 11 15 21 -9 62 -16 111 -19 18 -1 47 -14 65 -28 18
-15 50 -30 70 -33 21 -4 40 -11 44 -16 3 -5 14 -9 24 -9 11 0 27 -8 37 -18 10
-10 75 -51 144 -90 135 -78 177 -120 199 -202 6 -22 14 -40 19 -40 9 0 35 -51
33 -62 -1 -4 27 -37 62 -73 36 -36 62 -65 59 -65 -3 0 4 -9 17 -20 13 -11 20
-20 16 -20 -9 0 7 -19 79 -93 65 -68 130 -110 185 -122 19 -4 38 -12 42 -18 3
-6 17 -12 30 -14 36 -6 63 -11 63 -13 0 -1 11 -3 25 -5 14 -1 43 -6 65 -10 22
-4 94 -9 160 -11 66 -1 129 -5 140 -7 18 -4 109 15 145 30 8 3 18 5 23 5 4 -1
7 3 7 9 0 5 5 7 10 4 6 -3 10 -2 10 4 0 5 8 12 18 15 30 10 87 70 119 126 17
30 32 58 32 63 0 4 7 20 15 35 7 15 11 38 9 52 -9 49 -9 85 -1 102 5 10 5 18
0 18 -4 0 -8 8 -9 18 -2 19 -4 30 -28 142 -14 66 -59 155 -104 207 -6 7 -11
16 -11 22 0 12 -89 101 -101 101 -6 0 -8 4 -4 9 3 5 -4 12 -15 16 -11 3 -20
10 -20 14 0 11 -120 84 -137 84 -7 0 -13 4 -13 9 0 4 -7 8 -16 8 -8 0 -25 5
-37 12 -12 7 -28 13 -34 15 -7 2 -19 5 -25 6 -7 2 -26 7 -43 12 -16 4 -34 11
-40 14 -5 4 -17 7 -25 6 -8 0 -43 14 -77 31 -60 32 -93 40 -198 48 -69 6 -118
16 -130 27 -12 12 -92 12 -100 -1 -10 -15 -175 89 -227 144 -26 28 -48 54 -48
57 0 7 31 17 75 25 11 2 51 5 88 8 140 10 190 79 162 224 -10 52 -44 104 -122
188 -12 13 -20 24 -17 24 3 0 -5 10 -16 23 -40 43 -100 125 -100 136 0 12
-139 153 -189 191 -18 14 -38 30 -45 35 -67 58 -271 183 -310 191 -10 2 -29
10 -42 19 -13 8 -28 15 -34 15 -7 0 -38 16 -71 35 -32 19 -59 32 -59 29 0 -3
-21 6 -47 21 -54 30 -69 35 -133 41 -25 2 -70 7 -100 11 -69 9 -143 5 -210
-10 -14 -4 -86 -16 -120 -20 -8 -2 -20 -6 -27 -10 -6 -4 -23 -8 -37 -9 -14 -1
-26 -6 -26 -10 0 -4 -6 -8 -13 -8 -7 0 -32 -9 -56 -20 l-42 -21 -39 22 c-21
12 -41 31 -44 42 -5 21 46 122 57 111 3 -3 14 3 24 13 10 10 31 28 46 40 25
20 27 24 15 45 -7 13 -17 26 -22 30 -41 29 14 127 67 119 4 0 7 3 7 9 0 5 7 7
15 4 28 -11 15 15 -15 31 -16 9 -30 21 -30 28 0 8 -18 23 -40 36 -31 17 -38
26 -31 38 9 18 3 53 -9 53 -5 0 3 21 17 46 28 50 20 70 -21 55 -33 -12 -82 -5
-119 18 -31 19 -34 25 -33 68 1 37 5 48 19 51 22 4 22 18 0 26 -10 4 -20 1
-25 -9 -7 -12 -14 -13 -29 -5 -14 8 -19 8 -19 -1 0 -13 -79 31 -81 46 0 6 -5
15 -10 22 -7 7 -6 14 1 18 5 3 10 10 10 15 0 12 -43 8 -52 -5 -4 -5 -41 -9
-83 -10 -87 -1 -122 14 -105 45 8 15 6 18 -15 16 -14 0 -28 -9 -31 -18 -3 -9
-11 -15 -18 -12 -7 3 -16 -2 -19 -10 -4 -9 -13 -16 -22 -16 -8 0 -15 -4 -15
-10 0 -5 -7 -10 -15 -10 -9 0 -20 -11 -27 -25 -6 -13 -14 -22 -19 -20 -7 5
-36 -21 -156 -135 -17 -16 -35 -30 -40 -30 -5 0 -16 -11 -23 -25 -13 -23 -15
-24 -36 -10 -13 8 -40 17 -61 19 -22 2 -63 17 -93 34 -30 17 -58 31 -62 32
-25 2 -46 12 -168 75 -91 48 -104 53 -140 59 -49 9 -50 10 -95 33 -22 11 -43
21 -48 22 -4 0 -21 8 -37 16 -16 8 -32 15 -35 15 -3 0 -6 0 -7 1 -2 1 -19 2
-38 4 -47 4 -74 11 -102 26 -13 7 -27 14 -33 15 -5 2 -20 5 -33 8 -12 3 -49
21 -80 40 -71 43 -151 78 -166 73 -6 -3 -19 0 -28 5 -12 6 -18 5 -18 -3z"/>
</g>
</svg>
