<?xml version="1.0" standalone="no"?>
<!DOCTYPE svg PUBLIC "-//W3C//DTD SVG 20010904//EN"
 "http://www.w3.org/TR/2001/REC-SVG-20010904/DTD/svg10.dtd">
<svg version="1.0" xmlns="http://www.w3.org/2000/svg"
 width="309.000000pt" height="114.000000pt" viewBox="0 0 309.000000 114.000000"
 preserveAspectRatio="xMidYMid meet">
<metadata>
Created by potrace 1.13, written by Peter Selinger 2001-2015
</metadata>
<g transform="translate(0.000000,114.000000) scale(0.100000,-0.100000)"
fill="#000000" stroke="none">
<path d="M2700 966 c-90 -16 -137 -31 -212 -68 -84 -41 -214 -78 -274 -78 -29
0 -12 16 46 44 62 29 71 44 45 66 -35 29 -334 10 -665 -42 -182 -29 -237 -58
-281 -147 -13 -28 -29 -50 -35 -51 -5 0 -25 19 -42 43 -18 23 -42 49 -55 57
-29 18 -142 15 -191 -5 -43 -18 -116 -81 -116 -101 0 -7 -10 -24 -23 -38 -18
-22 -38 -28 -122 -41 -55 -9 -120 -22 -145 -30 -25 -8 -74 -19 -109 -25 -35
-6 -71 -15 -80 -19 -33 -17 -93 -33 -134 -35 -23 -2 -57 -11 -74 -20 -18 -9
-39 -16 -48 -16 -9 0 -18 -7 -21 -15 -4 -8 -15 -15 -25 -15 -10 0 -19 -4 -19
-10 0 -5 -13 -25 -30 -43 -16 -19 -30 -41 -30 -49 0 -21 37 -53 95 -81 83 -41
319 -52 474 -23 l84 16 35 -27 c81 -65 112 -72 177 -43 11 5 43 14 70 19 97
19 145 35 145 46 0 19 -25 35 -64 42 -20 3 -36 9 -36 12 0 4 57 17 128 30 70
12 136 26 147 31 11 5 56 16 99 24 79 14 80 14 135 -12 46 -22 70 -26 136 -26
69 1 165 17 215 36 38 15 119 37 160 43 25 3 54 10 65 15 11 5 56 21 100 36
44 14 88 31 98 36 30 16 19 36 -24 43 -89 15 -13 25 226 28 262 4 282 8 393
58 90 41 118 199 49 279 -66 77 -108 85 -267 56z"/>
</g>
</svg>
