<?xml version="1.0" standalone="no"?>
<!DOCTYPE svg PUBLIC "-//W3C//DTD SVG 20010904//EN"
 "http://www.w3.org/TR/2001/REC-SVG-20010904/DTD/svg10.dtd">
<svg version="1.0" xmlns="http://www.w3.org/2000/svg"
 width="389.000000pt" height="386.000000pt" viewBox="0 0 389.000000 386.000000"
 preserveAspectRatio="xMidYMid meet">
<metadata>
Created by potrace 1.13, written by Peter Selinger 2001-2015
</metadata>
<g transform="translate(0.000000,386.000000) scale(0.100000,-0.100000)"
fill="#000000" stroke="none">
<path d="M3215 3485 c-16 -8 -42 -16 -56 -19 -42 -9 -78 -44 -90 -89 -7 -23
-20 -51 -29 -62 -27 -33 -50 -73 -50 -88 0 -8 -7 -21 -16 -28 -9 -7 -20 -22
-25 -34 -19 -41 -65 -114 -86 -137 -13 -14 -23 -29 -23 -36 0 -6 -9 -22 -20
-34 -63 -70 -110 -130 -110 -140 0 -14 -176 -188 -191 -188 -6 0 -57 -47 -115
-105 -126 -127 -143 -134 -107 -43 9 24 22 50 30 59 7 8 13 25 13 36 0 11 14
37 30 58 17 21 30 46 30 56 0 10 4 20 9 24 14 8 41 65 41 86 0 35 -34 41 -81
15 -23 -13 -47 -22 -54 -20 -6 3 -28 -7 -49 -21 -20 -14 -43 -25 -50 -25 -8 0
-19 -7 -26 -15 -7 -8 -20 -15 -30 -15 -10 0 -25 -11 -34 -25 -10 -14 -27 -30
-39 -35 -28 -13 -55 -30 -90 -57 -16 -13 -34 -23 -42 -23 -7 0 -15 -7 -18 -15
-4 -8 -21 -21 -39 -30 -18 -8 -55 -28 -83 -44 -27 -16 -66 -37 -85 -46 -19 -9
-46 -26 -60 -39 -14 -13 -40 -32 -58 -42 -50 -28 -73 -83 -79 -192 -4 -69 -2
-96 8 -108 8 -9 15 -31 16 -48 5 -68 16 -116 29 -127 8 -6 14 -20 14 -31 0
-11 4 -27 9 -37 8 -14 0 -27 -39 -66 -27 -26 -53 -44 -59 -41 -14 9 -51 81
-51 100 0 8 -11 27 -24 43 -19 23 -42 33 -103 48 -43 10 -93 22 -112 26 -19 5
-39 4 -45 0 -6 -5 -29 -12 -51 -16 -55 -10 -84 -27 -125 -72 -57 -62 -60 -72
-45 -139 27 -122 75 -228 137 -307 27 -33 48 -63 48 -67 0 -4 -45 -51 -100
-104 -55 -53 -100 -102 -100 -109 0 -7 -31 -45 -70 -85 -38 -40 -79 -89 -91
-108 -12 -19 -32 -42 -45 -51 -13 -8 -24 -23 -24 -32 0 -16 -51 -51 -74 -51
-33 0 -81 -86 -73 -129 4 -19 1 -33 -8 -41 -8 -7 -15 -20 -15 -30 0 -9 -11
-34 -25 -54 -14 -20 -25 -49 -25 -64 0 -16 -5 -33 -11 -39 -9 -9 -7 -19 7 -40
10 -15 17 -34 16 -41 -4 -18 17 -42 37 -42 9 0 29 -7 46 -16 42 -22 138 -10
216 27 33 16 67 29 75 29 8 0 17 7 20 15 4 8 12 15 19 15 6 0 20 9 29 19 10
11 43 35 73 53 65 39 198 168 301 291 40 48 81 87 90 87 9 -1 28 -7 42 -15 15
-8 53 -14 93 -15 l67 0 112 115 c62 63 117 123 122 133 5 9 24 34 43 55 18 20
33 42 33 48 0 7 40 51 90 100 65 64 90 95 90 113 0 14 -4 27 -8 30 -5 3 -36
-8 -70 -25 -34 -16 -66 -29 -71 -29 -6 0 -38 -27 -72 -61 -33 -33 -64 -58 -67
-55 -2 3 17 30 44 61 27 31 69 84 94 119 25 34 54 73 65 85 40 45 100 62 158
46 31 -8 101 9 128 32 8 7 20 13 25 13 11 0 314 298 314 309 0 4 20 29 45 55
25 27 45 54 45 61 0 6 10 20 21 31 17 15 80 105 113 161 9 16 -10 53 -28 53
-7 0 -34 -11 -60 -24 -26 -13 -64 -27 -84 -31 -20 -4 -59 -16 -85 -27 -50 -22
-69 -18 -49 10 7 9 16 26 21 38 5 11 32 40 60 63 28 24 51 51 51 60 0 9 29 46
65 81 35 36 64 70 65 76 0 14 120 134 133 134 6 0 45 33 87 73 42 39 114 99
159 132 89 65 175 133 204 162 29 29 77 90 77 98 0 4 8 19 19 33 28 40 33 138
10 182 -33 63 -144 156 -204 170 -16 4 -37 10 -45 13 -8 3 -28 0 -45 -8z"/>
</g>
</svg>
