<?xml version="1.0" standalone="no"?>
<!DOCTYPE svg PUBLIC "-//W3C//DTD SVG 20010904//EN"
 "http://www.w3.org/TR/2001/REC-SVG-20010904/DTD/svg10.dtd">
<svg version="1.0" xmlns="http://www.w3.org/2000/svg"
 width="460.000000pt" height="458.000000pt" viewBox="0 0 460.000000 458.000000"
 preserveAspectRatio="xMidYMid meet">
<metadata>
Created by potrace 1.13, written by Peter Selinger 2001-2015
</metadata>
<g transform="translate(0.000000,458.000000) scale(0.100000,-0.100000)"
fill="#000000" stroke="none">
<path d="M3824 4145 c-4 -10 -14 -15 -25 -12 -39 10 -106 -24 -164 -83 -77
-78 -125 -131 -135 -151 -13 -24 -24 -38 -52 -70 -10 -10 -18 -28 -18 -39 0
-11 -4 -20 -10 -20 -19 0 -50 -40 -50 -64 0 -13 -7 -26 -15 -30 -8 -3 -15 -14
-15 -25 0 -11 -8 -25 -18 -30 -10 -5 -27 -28 -37 -50 -10 -23 -22 -41 -27 -41
-4 0 -8 -9 -8 -20 0 -12 -13 -34 -30 -50 -16 -16 -30 -37 -30 -46 0 -9 -13
-29 -30 -44 -16 -15 -30 -37 -30 -49 0 -12 -4 -21 -8 -21 -19 0 -54 -41 -63
-74 -5 -19 -17 -37 -27 -41 -9 -3 -30 -21 -47 -41 -16 -19 -46 -50 -65 -69
-19 -19 -42 -41 -50 -50 -8 -8 -30 -29 -48 -47 -18 -18 -49 -50 -70 -70 -20
-21 -52 -52 -70 -70 -54 -55 -73 -70 -80 -63 -10 9 -10 125 0 125 4 0 8 11 8
25 0 14 4 25 8 25 12 0 32 47 32 75 0 15 7 26 20 30 33 11 22 48 -21 71 -30
15 -109 10 -109 -7 0 -5 -11 -9 -25 -9 -14 0 -25 -4 -25 -8 0 -9 -55 -35 -97
-47 -13 -4 -23 -10 -23 -14 0 -5 -22 -11 -50 -15 -27 -4 -56 -13 -64 -21 -8
-8 -23 -15 -34 -15 -11 0 -22 -7 -26 -15 -3 -8 -14 -15 -25 -15 -11 0 -26 -7
-35 -15 -8 -8 -23 -15 -34 -15 -11 0 -22 -7 -26 -15 -3 -8 -13 -15 -22 -15 -8
0 -35 -19 -59 -42 -24 -24 -48 -47 -54 -53 -11 -10 -57 -63 -77 -88 -20 -24
-34 -55 -34 -76 0 -12 -4 -21 -10 -21 -5 0 -10 -11 -10 -24 0 -13 -5 -26 -12
-28 -8 -3 -8 -24 1 -89 6 -46 14 -103 17 -127 4 -24 13 -46 20 -49 22 -8 44
-57 37 -81 -3 -13 -1 -22 6 -22 6 0 11 -7 11 -16 0 -9 8 -23 17 -30 17 -11 16
-14 -10 -38 -15 -14 -27 -29 -27 -34 0 -15 -57 -34 -80 -27 -12 4 -46 32 -76
63 -29 32 -59 63 -66 70 -30 30 -81 72 -88 72 -5 0 -15 7 -23 15 -26 26 -98
45 -121 33 -12 -6 -37 -15 -56 -19 -82 -19 -94 -23 -112 -39 -29 -26 -35 -32
-65 -67 -57 -65 -55 -59 -43 -123 6 -33 8 -65 5 -70 -3 -5 3 -27 15 -49 11
-22 20 -47 20 -56 0 -9 7 -18 15 -21 8 -4 15 -14 15 -24 0 -10 9 -21 20 -25
12 -4 24 -21 30 -44 6 -24 19 -42 34 -49 13 -6 27 -20 31 -31 3 -12 10 -21 14
-21 5 0 14 -13 21 -29 11 -28 10 -32 -22 -61 -41 -38 -36 -33 -98 -100 -66
-71 -59 -65 -102 -104 -21 -18 -38 -39 -38 -46 0 -7 -11 -23 -25 -36 -14 -13
-25 -33 -25 -44 0 -12 -16 -36 -35 -54 -19 -19 -35 -41 -35 -49 0 -18 -64 -87
-80 -87 -6 0 -10 -11 -10 -25 0 -14 -4 -25 -8 -25 -5 0 -17 -18 -27 -40 -12
-27 -24 -40 -38 -40 -24 0 -77 -56 -77 -81 0 -10 -9 -23 -20 -29 -13 -7 -20
-21 -20 -40 0 -16 -7 -35 -15 -44 -8 -8 -15 -32 -15 -55 0 -23 -4 -41 -10 -41
-5 0 -10 -9 -10 -21 0 -11 -7 -27 -15 -35 -8 -9 -15 -33 -15 -54 0 -26 -6 -42
-16 -48 -27 -15 -7 -51 42 -75 24 -11 44 -25 44 -29 0 -10 168 0 189 11 9 5
40 12 69 16 28 4 52 11 52 16 0 5 11 9 23 9 16 0 28 9 35 25 6 14 18 25 27 25
27 0 125 54 131 72 3 10 14 18 25 18 21 0 35 9 74 48 12 12 28 22 35 22 6 0
31 19 55 43 52 50 64 60 95 77 40 22 220 210 220 230 0 26 24 26 50 0 11 -11
26 -20 34 -20 8 0 16 -4 18 -9 2 -5 21 -12 43 -15 41 -7 63 3 103 45 8 9 30
33 49 53 18 20 38 36 43 36 6 0 10 9 10 20 0 13 29 49 70 90 50 50 70 76 70
95 0 14 4 25 10 25 15 0 120 107 120 123 0 9 7 22 15 30 8 8 21 34 29 57 18
53 4 95 -28 86 -12 -3 -27 -6 -34 -6 -7 0 -18 -11 -24 -25 -7 -17 -24 -29 -50
-35 -29 -8 -39 -17 -44 -38 -6 -24 -17 -39 -62 -84 -48 -47 -60 -58 -68 -58
-5 0 -14 -10 -19 -22 -6 -13 -20 -27 -32 -33 -12 -5 -24 -17 -26 -27 -3 -10
-12 -18 -20 -18 -8 0 -17 -9 -20 -20 -3 -11 -12 -20 -21 -20 -9 0 -16 -6 -16
-13 0 -14 -31 -47 -43 -47 -4 0 -7 5 -7 10 0 6 7 10 15 10 8 0 15 6 15 13 0
18 109 127 127 127 7 0 13 4 13 10 0 16 64 108 113 161 9 10 17 28 17 39 0 11
4 20 9 20 16 0 77 64 96 100 23 45 39 60 65 60 25 0 58 25 97 73 15 19 143 41
187 33 25 -5 35 -3 40 9 3 9 18 15 35 15 18 0 40 11 61 30 18 16 40 30 49 30
9 0 32 18 51 40 19 22 43 40 52 40 10 0 42 26 73 58 30 31 64 66 75 78 11 12
20 28 20 37 0 9 9 21 20 27 11 6 20 18 20 27 0 9 11 26 25 39 14 13 25 32 25
44 0 11 8 28 18 39 37 41 52 66 52 92 0 15 6 34 14 42 8 8 16 36 18 63 3 48 2
49 -27 52 -20 2 -39 -4 -54 -17 -13 -11 -32 -23 -42 -26 -11 -4 -19 -11 -19
-16 0 -5 -10 -9 -21 -9 -12 0 -27 -6 -33 -14 -7 -8 -40 -16 -88 -19 -65 -5
-78 -3 -78 10 0 16 75 93 91 93 5 0 9 11 9 25 0 24 69 105 90 105 5 0 14 16
19 36 9 33 43 74 62 74 5 0 22 27 39 60 17 33 35 60 40 60 5 0 25 17 45 38 72
77 143 142 155 142 8 0 62 46 116 99 12 12 27 21 34 21 7 0 23 10 36 23 12 12
27 27 33 32 6 6 24 25 40 43 17 17 37 32 46 32 22 0 280 262 304 308 11 22 26
42 32 44 7 2 13 34 14 86 2 68 -1 86 -16 104 -11 11 -19 27 -19 35 0 58 -113
180 -179 193 -20 4 -44 11 -53 15 -12 5 -20 2 -24 -10z"/>
</g>
</svg>
