<?xml version="1.0" standalone="no"?>
<!DOCTYPE svg PUBLIC "-//W3C//DTD SVG 20010904//EN"
 "http://www.w3.org/TR/2001/REC-SVG-20010904/DTD/svg10.dtd">
<svg version="1.0" xmlns="http://www.w3.org/2000/svg"
 width="660.000000pt" height="658.000000pt" viewBox="0 0 660.000000 658.000000"
 preserveAspectRatio="xMidYMid meet">
<metadata>
Created by potrace 1.13, written by Peter Selinger 2001-2015
</metadata>
<g transform="translate(0.000000,658.000000) scale(0.100000,-0.100000)"
fill="#000000" stroke="none">
<path d="M5286 5653 c-16 -3 -35 -11 -43 -18 -9 -9 -25 -12 -43 -8 -17 3 -30
1 -30 -4 0 -5 -11 -15 -25 -21 -33 -15 -143 -117 -195 -181 -14 -17 -33 -33
-43 -36 -9 -4 -27 -25 -38 -47 -11 -22 -32 -52 -45 -65 -13 -13 -24 -33 -24
-43 0 -11 -9 -24 -19 -30 -12 -6 -22 -26 -26 -51 -4 -23 -15 -49 -24 -59 -35
-39 -41 -50 -41 -70 0 -22 -17 -61 -31 -70 -5 -3 -21 -46 -38 -95 -34 -106
-51 -145 -63 -145 -4 0 -8 -13 -8 -30 0 -16 -4 -30 -10 -30 -5 0 -14 -18 -20
-40 -6 -22 -15 -40 -20 -40 -5 0 -11 -9 -15 -19 -3 -11 -19 -34 -36 -52 -16
-17 -29 -38 -29 -46 0 -20 -54 -73 -75 -73 -8 0 -18 -7 -21 -15 -4 -8 -15 -15
-25 -15 -10 0 -19 -4 -19 -9 0 -18 -59 -71 -78 -71 -12 0 -23 -9 -27 -20 -4
-11 -21 -24 -43 -30 -50 -13 -55 -13 -48 6 4 9 1 44 -5 77 -7 39 -7 62 -1 66
6 3 10 26 11 51 0 86 2 100 11 100 6 0 10 9 10 21 0 11 6 27 14 34 8 8 17 42
21 75 4 33 10 60 14 60 5 0 16 19 25 43 10 23 26 61 37 85 10 23 19 58 19 77
0 21 6 38 18 45 12 8 13 13 5 16 -8 3 -13 24 -13 49 0 35 -4 45 -20 50 -11 3
-27 13 -35 21 -12 12 -25 13 -77 4 -97 -16 -103 -18 -127 -39 -13 -12 -45 -22
-81 -26 -33 -4 -60 -10 -60 -14 0 -4 -22 -18 -50 -31 -27 -13 -50 -27 -50 -32
0 -4 -13 -8 -30 -8 -16 0 -30 -4 -30 -10 0 -5 -19 -14 -41 -20 -23 -6 -51 -22
-64 -36 -12 -13 -29 -24 -38 -24 -9 0 -21 -9 -27 -20 -6 -11 -19 -20 -30 -20
-10 0 -25 -6 -32 -14 -8 -7 -33 -23 -56 -35 -23 -12 -42 -26 -42 -31 0 -6 -11
-16 -25 -22 -13 -6 -27 -19 -30 -30 -4 -11 -16 -18 -31 -18 -22 0 -29 -10 -25
-33 1 -5 -3 -6 -8 -3 -5 4 -16 -1 -23 -9 -21 -26 -44 -48 -78 -75 -17 -14 -39
-32 -47 -41 -106 -111 -185 -189 -193 -189 -5 0 -17 -15 -26 -32 -9 -18 -26
-43 -38 -55 -28 -29 -41 -45 -55 -70 -6 -12 -20 -24 -31 -28 -11 -4 -24 -20
-28 -38 -5 -18 -15 -31 -21 -29 -7 1 -10 -2 -6 -7 3 -6 -28 -44 -69 -84 -41
-41 -79 -84 -85 -94 -17 -33 -61 -170 -61 -192 0 -11 -6 -26 -14 -33 -7 -8
-13 -35 -13 -63 0 -101 -8 -175 -19 -179 -7 -3 -9 -22 -6 -55 3 -37 1 -51 -8
-51 -10 0 -11 -15 -7 -60 7 -64 4 -67 -37 -49 -35 16 -67 123 -69 228 -1 44
-6 77 -10 74 -4 -2 -5 -12 -2 -22 3 -12 -4 -20 -28 -29 -44 -17 -60 5 -54 71
2 26 0 50 -5 53 -5 3 -7 13 -4 21 4 8 1 11 -5 8 -6 -4 -8 -13 -5 -21 3 -8 -4
-19 -17 -25 -12 -7 -28 -18 -35 -26 -20 -19 -38 -10 -34 17 1 13 -3 27 -9 30
-6 4 -12 35 -12 68 -1 33 -6 58 -10 55 -4 -2 -5 -13 -2 -24 4 -13 2 -19 -9
-19 -8 0 -26 -11 -40 -25 -41 -41 -66 -29 -66 31 0 13 -4 24 -9 24 -10 0 -27
-39 -23 -52 1 -5 -3 -7 -10 -5 -7 1 -15 -14 -18 -34 -4 -21 -14 -44 -23 -54
-9 -9 -17 -29 -17 -45 0 -35 -19 -49 -35 -27 -36 49 -47 4 -59 -228 -1 -27 -6
-60 -10 -72 -9 -28 -36 -30 -36 -3 0 11 -4 20 -9 20 -14 0 -21 -27 -21 -76 0
-24 -4 -44 -8 -44 -10 0 -10 -163 0 -170 4 -3 3 -35 -2 -70 -5 -35 -5 -67 -1
-70 5 -3 8 -26 7 -52 -1 -40 -6 -51 -41 -82 -22 -20 -43 -40 -47 -44 -33 -35
-92 -92 -116 -112 -16 -14 -34 -35 -40 -47 -7 -12 -21 -25 -32 -28 -11 -3 -20
-15 -20 -26 0 -10 -9 -28 -20 -39 -11 -11 -20 -31 -20 -45 0 -14 -4 -25 -10
-25 -17 0 -60 -50 -60 -71 0 -11 -11 -24 -25 -31 -17 -8 -25 -19 -25 -37 0
-15 -9 -33 -20 -41 -11 -8 -20 -24 -20 -37 0 -13 -8 -24 -20 -28 -13 -4 -20
-15 -20 -31 0 -30 -16 -63 -41 -85 -10 -8 -29 -47 -42 -85 -65 -182 -88 -230
-116 -239 -11 -3 -23 -15 -26 -26 -4 -10 -15 -24 -26 -29 -14 -8 -19 -21 -19
-51 0 -26 -5 -42 -15 -45 -8 -4 -15 -16 -15 -28 -1 -11 -7 -32 -15 -46 -8 -14
-14 -37 -15 -51 0 -14 -9 -36 -20 -49 -11 -13 -20 -31 -20 -41 0 -10 -8 -22
-17 -28 -14 -8 -15 -13 -5 -35 6 -14 16 -26 22 -26 6 0 7 -17 4 -43 -5 -34 -2
-47 12 -61 18 -19 21 -18 134 4 58 12 120 14 129 4 3 -3 -3 -12 -14 -19 -11
-8 -25 -19 -32 -25 -7 -5 -21 -10 -33 -10 -11 0 -20 -5 -20 -10 0 -6 -11 -15
-24 -22 -32 -14 -38 -32 -24 -63 12 -26 14 -26 143 -26 78 0 233 24 264 41 9
4 42 11 73 15 32 4 58 11 58 16 0 5 14 9 30 9 17 0 30 4 30 9 0 5 14 14 30 21
16 7 30 16 30 21 0 5 11 9 25 9 16 0 39 13 60 34 19 19 43 37 55 41 11 3 20
11 20 16 0 5 12 9 26 9 16 0 37 11 52 28 15 16 38 35 51 42 29 15 45 27 76 57
12 13 28 23 35 23 6 0 31 19 55 43 24 23 48 47 54 52 6 6 25 26 43 46 18 20
49 44 68 54 35 18 110 90 110 105 0 5 12 9 27 9 76 1 245 11 303 18 36 4 77 6
93 4 15 -1 27 3 27 9 0 8 11 10 33 6 17 -3 61 1 97 10 36 8 80 15 98 15 17 -1
32 4 32 9 0 6 11 10 25 10 14 0 25 4 25 10 0 5 19 19 41 31 23 11 53 32 66 45
13 13 30 21 36 18 7 -4 9 -4 5 1 -13 13 21 65 43 65 11 0 22 7 25 15 4 8 14
15 24 15 19 0 30 19 30 50 0 10 8 21 18 24 10 4 28 26 39 50 12 24 30 47 41
50 19 6 42 45 42 70 0 26 -27 24 -126 -10 -54 -18 -111 -33 -126 -34 -16 0
-28 -4 -28 -10 0 -5 -11 -10 -25 -10 -14 0 -42 -8 -63 -19 -20 -10 -58 -21
-84 -25 -26 -4 -54 -14 -62 -22 -8 -8 -26 -14 -40 -14 -14 0 -26 -4 -26 -10 0
-5 -11 -10 -25 -10 -13 0 -45 -10 -70 -22 -24 -12 -47 -19 -50 -16 -10 10 6
37 26 43 10 4 24 16 31 28 6 12 24 33 41 47 16 14 39 35 52 47 12 13 28 23 35
23 10 0 30 17 110 96 7 7 30 30 52 52 22 22 44 44 50 50 34 34 48 54 48 68 0
16 55 74 71 74 5 0 9 11 9 25 0 31 30 63 67 70 16 3 41 10 57 15 16 5 36 6 45
2 21 -10 140 -5 211 8 30 6 85 12 122 15 37 2 73 7 80 11 16 10 103 25 142 25
15 0 35 6 43 14 8 8 21 15 29 15 27 0 115 50 108 62 -4 6 -3 8 4 4 6 -3 17 1
25 9 9 8 25 15 36 15 12 0 21 5 21 10 0 6 11 15 24 21 13 6 34 33 46 60 13 27
32 51 42 55 10 3 23 14 28 25 6 10 20 19 31 19 11 0 22 7 25 15 4 8 16 15 28
15 15 0 27 9 34 25 6 14 15 25 20 25 5 0 19 9 32 20 12 11 27 17 32 14 4 -3 7
0 6 8 -2 7 7 14 20 16 13 2 28 14 34 28 7 16 19 24 36 24 23 0 82 51 82 71 0
5 9 9 20 9 12 0 28 6 36 13 26 21 88 84 114 116 14 17 35 31 48 31 14 0 22 6
22 16 0 9 10 27 23 40 12 12 27 28 33 34 7 7 29 29 50 50 22 21 50 52 64 68
14 16 34 34 46 40 11 6 29 29 39 51 10 23 22 41 27 41 4 0 8 9 8 20 0 11 9 29
20 40 11 11 20 31 20 44 0 16 7 27 20 31 13 4 20 15 20 31 0 13 4 24 10 24 5
0 9 11 8 23 -2 22 -5 23 -35 17 -34 -8 -53 -23 -70 -55 -7 -12 -32 -26 -60
-34 -51 -15 -105 -39 -113 -51 -9 -14 -69 -40 -90 -40 -12 0 -34 -7 -50 -15
-43 -22 -109 -43 -162 -50 -35 -5 -49 -12 -54 -27 -4 -15 -12 -19 -32 -15 -15
3 -40 -2 -55 -10 -16 -8 -40 -12 -52 -9 -14 4 -29 0 -38 -9 -10 -10 -32 -13
-72 -11 -34 2 -61 -2 -68 -9 -16 -15 -87 -27 -87 -14 0 13 19 33 48 48 12 6
22 20 22 31 0 11 10 25 23 31 12 7 33 25 47 41 14 16 42 46 62 66 20 20 50 48
66 62 16 14 34 35 40 46 6 12 25 24 41 27 17 4 38 15 48 26 10 11 28 32 41 46
12 14 34 25 47 25 28 0 95 30 95 42 0 4 14 8 30 8 17 0 30 5 30 10 0 6 12 10
26 10 14 0 32 6 40 14 8 8 35 18 61 22 26 4 53 13 61 20 7 7 35 16 62 20 28 4
50 10 50 13 0 11 68 41 90 41 24 0 90 31 90 42 0 4 14 8 30 8 17 0 30 4 30 9
0 5 22 11 50 15 27 4 55 13 63 20 7 8 33 24 57 36 24 12 50 29 58 36 7 8 17
14 22 14 13 0 80 68 80 81 0 5 11 14 24 20 18 9 25 22 30 59 3 26 15 58 26 70
11 12 23 45 26 71 4 27 10 49 14 49 4 0 11 8 15 18 11 25 44 193 45 221 0 14
5 39 11 56 14 38 6 78 -21 105 -13 13 -20 33 -20 56 0 19 -7 42 -15 50 -8 9
-17 26 -20 40 -3 13 -7 35 -10 49 -4 16 -12 25 -25 25 -10 0 -22 9 -25 20 -3
11 -11 20 -16 20 -5 0 -9 11 -9 25 0 21 -5 25 -30 25 -20 0 -33 7 -41 23 -19
35 -50 57 -80 57 -31 0 -63 26 -52 43 3 7 3 9 -1 6 -4 -4 -31 2 -59 13 -29 11
-69 27 -91 34 -21 8 -51 21 -67 29 -15 8 -34 13 -41 10 -12 -5 -79 5 -118 17
-8 3 -28 3 -44 1z"/>
</g>
</svg>
