<?xml version="1.0" standalone="no"?>
<!DOCTYPE svg PUBLIC "-//W3C//DTD SVG 20010904//EN"
 "http://www.w3.org/TR/2001/REC-SVG-20010904/DTD/svg10.dtd">
<svg version="1.0" xmlns="http://www.w3.org/2000/svg"
 width="256.000000pt" height="113.000000pt" viewBox="0 0 256.000000 113.000000"
 preserveAspectRatio="xMidYMid meet">
<metadata>
Created by potrace 1.13, written by Peter Selinger 2001-2015
</metadata>
<g transform="translate(0.000000,113.000000) scale(0.100000,-0.100000)"
fill="#000000" stroke="none">
<path d="M1345 882 c-52 -11 -88 -25 -102 -38 -11 -12 -26 -23 -32 -25 -6 -2
-14 -17 -17 -33 -3 -16 -12 -42 -20 -58 -8 -16 -12 -38 -9 -49 7 -22 -10 -49
-31 -49 -20 0 -44 53 -44 97 0 29 -8 46 -34 74 -47 50 -84 63 -151 54 -64 -8
-115 -43 -115 -80 0 -13 -4 -26 -9 -29 -5 -3 -14 -36 -21 -73 -14 -82 -22 -93
-69 -93 -53 0 -178 -26 -241 -50 -119 -46 -161 -59 -175 -54 -25 10 -190 -95
-198 -127 -9 -33 39 -86 108 -119 71 -34 163 -44 300 -32 50 4 114 6 143 4 49
-4 54 -6 67 -38 11 -28 19 -34 44 -34 44 0 169 26 233 49 32 12 68 21 82 21
30 0 56 27 33 36 -15 5 -207 -11 -259 -22 -16 -4 -28 -2 -28 4 0 5 28 15 63
21 34 7 71 16 82 21 11 5 58 15 105 24 47 8 116 24 154 34 l69 20 47 -24 c92
-48 195 -48 290 0 25 13 63 32 85 42 128 60 149 94 60 94 -30 0 -55 4 -55 8 0
9 48 26 115 41 22 5 67 17 100 27 52 16 89 18 278 15 186 -3 222 -1 252 13 46
22 53 53 26 109 -12 24 -21 59 -21 78 0 19 0 51 0 71 0 52 -16 88 -39 88 -29
0 -122 -32 -161 -55 -19 -12 -55 -27 -80 -34 -47 -14 -68 -21 -110 -39 -49
-20 -131 -43 -139 -38 -4 3 -70 -6 -146 -19 -121 -22 -160 -25 -144 -12 2 2
37 25 77 51 40 26 76 55 79 63 11 28 -39 60 -104 67 -157 15 -259 15 -338 -2z"/>
</g>
</svg>
