<?xml version="1.0" standalone="no"?>
<!DOCTYPE svg PUBLIC "-//W3C//DTD SVG 20010904//EN"
 "http://www.w3.org/TR/2001/REC-SVG-20010904/DTD/svg10.dtd">
<svg version="1.0" xmlns="http://www.w3.org/2000/svg"
 width="237.000000pt" height="168.000000pt" viewBox="0 0 237.000000 168.000000"
 preserveAspectRatio="xMidYMid meet">
<metadata>
Created by potrace 1.13, written by Peter Selinger 2001-2015
</metadata>
<g transform="translate(0.000000,168.000000) scale(0.100000,-0.100000)"
fill="#000000" stroke="none">
<path d="M2045 1381 c-69 -17 -243 -110 -342 -183 -50 -37 -64 -32 -33 12 12
17 19 37 16 45 -6 16 -61 21 -70 6 -3 -4 -20 -11 -38 -15 -18 -3 -49 -13 -68
-22 -37 -17 -65 -30 -140 -60 -25 -9 -88 -42 -141 -71 -81 -45 -102 -63 -145
-119 -37 -50 -63 -73 -106 -95 l-57 -29 -71 15 c-154 32 -185 18 -214 -99 -15
-59 -26 -82 -52 -105 -17 -16 -33 -33 -35 -38 -2 -5 -50 -48 -105 -96 -200
-172 -316 -331 -259 -354 46 -17 265 55 395 131 67 39 112 58 155 65 66 11
104 18 150 27 35 8 120 61 155 99 23 25 24 27 7 36 -9 6 -15 14 -12 19 3 5 45
32 94 59 49 28 94 58 101 66 9 11 33 15 85 15 72 0 111 11 225 63 166 76 203
105 167 135 -7 6 -25 12 -40 14 -15 2 -28 8 -29 14 -2 14 155 90 266 129 98
34 239 108 284 149 33 29 60 86 57 116 -2 14 -4 29 -4 33 -1 4 -13 19 -27 32
-32 30 -67 31 -169 6z"/>
</g>
</svg>
