<?xml version="1.0" standalone="no"?>
<!DOCTYPE svg PUBLIC "-//W3C//DTD SVG 20010904//EN"
 "http://www.w3.org/TR/2001/REC-SVG-20010904/DTD/svg10.dtd">
<svg version="1.0" xmlns="http://www.w3.org/2000/svg"
 width="147.000000pt" height="348.000000pt" viewBox="0 0 147.000000 348.000000"
 preserveAspectRatio="xMidYMid meet">
<metadata>
Created by potrace 1.13, written by Peter Selinger 2001-2015
</metadata>
<g transform="translate(0.000000,348.000000) scale(0.100000,-0.100000)"
fill="#000000" stroke="none">
<path d="M900 3352 c-25 -2 -54 -11 -65 -21 -11 -10 -26 -20 -34 -23 -29 -9
-55 -125 -53 -243 1 -137 10 -242 22 -278 16 -47 6 -257 -14 -295 -9 -17 -23
-83 -31 -145 -14 -116 -28 -167 -44 -167 -13 0 -32 98 -32 164 0 16 -6 37 -14
48 -7 11 -11 27 -8 34 7 18 -14 44 -36 44 -23 0 -80 -56 -87 -87 -4 -15 -13
-38 -20 -52 -8 -14 -14 -36 -14 -47 0 -12 -7 -27 -15 -34 -8 -7 -15 -21 -15
-31 0 -31 -27 -122 -53 -179 -38 -84 -48 -124 -52 -205 -2 -54 1 -77 11 -86 8
-6 14 -17 14 -24 0 -26 58 -97 123 -150 56 -46 67 -61 67 -86 0 -41 -23 -47
-61 -15 -17 14 -36 26 -44 26 -7 0 -18 7 -25 15 -14 17 -105 21 -115 5 -3 -5
-14 -10 -23 -11 -22 0 -82 -82 -95 -128 -5 -20 -10 -71 -10 -113 -1 -66 3 -81
21 -101 12 -13 22 -29 22 -36 0 -6 15 -18 34 -26 19 -8 37 -19 40 -24 6 -9
111 -62 150 -75 13 -4 16 -11 11 -24 -16 -38 -36 -214 -50 -457 -2 -33 -11
-77 -20 -98 -19 -45 -13 -99 16 -139 10 -15 19 -35 19 -45 0 -10 7 -29 16 -41
9 -13 13 -29 10 -37 -3 -9 9 -25 30 -41 l35 -27 42 23 c48 27 60 36 92 67 12
13 26 23 30 23 14 0 46 45 52 73 3 15 14 32 24 37 22 13 38 60 66 205 3 17 9
35 13 40 4 6 11 40 15 77 3 38 13 72 21 79 8 6 14 23 14 38 0 38 14 55 40 48
33 -8 100 29 99 56 0 20 10 77 41 237 5 30 12 110 14 177 l3 123 -23 0 c-13 0
-28 -8 -33 -18 -16 -30 -41 -105 -41 -124 0 -10 -4 -18 -10 -18 -6 0 -8 36 -4
98 5 102 18 167 34 177 6 3 10 15 10 25 0 11 12 27 28 37 42 27 112 95 112
108 0 7 6 18 14 24 19 16 39 189 31 265 -8 76 -24 136 -42 157 -7 8 -13 30
-13 47 0 19 -5 32 -13 32 -15 0 -87 -75 -112 -118 -22 -37 -41 -43 -30 -9 12
39 26 128 21 136 -6 9 31 328 40 351 4 8 12 49 20 90 9 49 19 79 32 90 12 9
28 49 41 97 12 46 29 99 37 118 8 20 17 72 19 116 3 67 1 85 -15 112 -11 18
-20 40 -20 49 0 10 -19 35 -41 57 -34 32 -51 41 -93 46 -28 4 -58 8 -66 9 -8
1 -35 1 -60 -2z"/>
</g>
</svg>
