<?xml version="1.0" standalone="no"?>
<!DOCTYPE svg PUBLIC "-//W3C//DTD SVG 20010904//EN"
 "http://www.w3.org/TR/2001/REC-SVG-20010904/DTD/svg10.dtd">
<svg version="1.0" xmlns="http://www.w3.org/2000/svg"
 width="323.000000pt" height="168.000000pt" viewBox="0 0 323.000000 168.000000"
 preserveAspectRatio="xMidYMid meet">
<metadata>
Created by potrace 1.13, written by Peter Selinger 2001-2015
</metadata>
<g transform="translate(0.000000,168.000000) scale(0.100000,-0.100000)"
fill="#000000" stroke="none">
<path d="M1357 1350 c-36 -35 -85 -70 -138 -99 -20 -11 -49 -36 -65 -56 -16
-20 -50 -59 -75 -88 -52 -58 -83 -112 -73 -128 3 -6 -1 -18 -9 -27 -9 -9 -23
-36 -32 -59 -19 -47 -22 -49 -119 -59 -38 -4 -94 -17 -123 -30 -30 -13 -66
-24 -82 -24 -16 0 -34 -7 -41 -15 -7 -8 -25 -15 -40 -15 -15 0 -33 -7 -40 -15
-7 -8 -25 -15 -41 -15 -15 0 -31 -5 -35 -11 -4 -7 -20 -8 -41 -4 -60 11 -133
-28 -133 -72 0 -17 -11 -30 -35 -44 -20 -12 -40 -30 -46 -40 -5 -11 -18 -19
-28 -19 -10 0 -26 -9 -36 -20 -17 -19 -17 -21 0 -57 40 -84 119 -153 175 -153
12 0 31 -5 43 -11 26 -14 69 -17 252 -17 77 0 161 -1 186 -1 33 0 69 -12 128
-42 73 -36 88 -40 134 -36 74 8 211 32 224 40 6 4 57 9 113 11 97 4 190 22
190 37 0 4 -11 17 -25 28 -27 21 -70 20 -127 -1 -18 -7 -33 -6 -47 2 -16 8
-27 8 -42 -1 -27 -14 -249 -24 -249 -11 0 6 17 12 38 15 161 24 225 37 280 56
48 17 67 19 83 11 11 -6 28 -9 37 -6 10 3 42 -4 72 -15 48 -19 136 -39 165
-39 35 0 86 14 96 26 6 8 26 14 45 14 18 0 48 6 66 14 58 24 102 38 153 48 28
6 57 17 66 24 8 8 22 14 30 15 24 1 122 53 133 71 17 28 -8 68 -43 68 -16 0
-32 4 -35 9 -7 11 17 21 54 21 16 0 30 6 32 13 4 11 137 38 181 37 52 -1 69 0
152 14 138 23 153 27 166 42 6 8 25 14 41 14 36 0 83 34 110 80 12 19 42 56
67 83 38 39 44 50 35 65 -7 10 -15 37 -19 61 -10 62 -33 111 -53 117 -9 3 -41
16 -70 30 -29 13 -59 24 -68 24 -8 0 -28 7 -44 15 -44 23 -158 2 -207 -37 -20
-15 -44 -28 -54 -28 -10 0 -21 -5 -25 -11 -3 -6 -25 -20 -48 -31 -22 -11 -79
-39 -126 -63 -47 -24 -100 -44 -118 -44 -18 -1 -41 -5 -50 -10 -25 -13 -152
-25 -152 -14 0 10 63 43 83 43 21 0 67 54 67 78 0 12 -11 29 -24 37 -23 15
-109 36 -150 36 -10 0 -31 6 -45 13 -14 8 -46 17 -71 21 -62 11 -215 8 -239
-5 -11 -5 -33 -10 -49 -10 -16 0 -35 -7 -42 -15 -7 -8 -23 -15 -36 -15 -14 0
-28 -9 -35 -22 -7 -13 -36 -49 -64 -81 -29 -32 -55 -70 -58 -85 -3 -15 -13
-36 -21 -47 -14 -17 -17 -18 -26 -5 -5 8 -7 22 -5 31 3 8 -1 29 -9 45 -13 26
-13 41 0 129 13 81 20 104 39 120 22 19 49 107 37 120 -12 12 -34 3 -65 -25z"/>
</g>
</svg>
