<?xml version="1.0" standalone="no"?>
<!DOCTYPE svg PUBLIC "-//W3C//DTD SVG 20010904//EN"
 "http://www.w3.org/TR/2001/REC-SVG-20010904/DTD/svg10.dtd">
<svg version="1.0" xmlns="http://www.w3.org/2000/svg"
 width="304.000000pt" height="111.000000pt" viewBox="0 0 304.000000 111.000000"
 preserveAspectRatio="xMidYMid meet">
<metadata>
Created by potrace 1.13, written by Peter Selinger 2001-2015
</metadata>
<g transform="translate(0.000000,111.000000) scale(0.100000,-0.100000)"
fill="#000000" stroke="none">
<path d="M2615 944 c-79 -7 -186 -27 -191 -35 -3 -5 -15 -9 -28 -9 -13 0 -36
-6 -52 -14 -16 -8 -54 -26 -84 -40 -59 -29 -67 -33 -146 -83 -46 -30 -150 -60
-162 -48 -7 7 34 39 101 81 31 19 57 38 57 40 0 17 -23 44 -38 44 -10 0 -23 5
-29 11 -27 27 -230 20 -353 -11 -19 -5 -78 -17 -130 -26 -52 -9 -104 -20 -115
-24 -11 -5 -41 -16 -66 -25 -57 -21 -149 -92 -169 -131 -32 -64 -51 -86 -66
-73 -8 6 -14 17 -14 23 0 13 -19 41 -66 94 -23 26 -39 35 -70 38 -95 8 -148
-32 -180 -133 -26 -84 -39 -100 -87 -108 -23 -4 -46 -11 -52 -15 -5 -4 -57
-15 -115 -24 -58 -10 -123 -23 -145 -31 -22 -7 -59 -16 -82 -20 -24 -4 -45
-11 -49 -16 -3 -5 -15 -9 -26 -9 -31 0 -140 -54 -167 -84 -20 -21 -22 -28 -11
-41 9 -11 10 -18 1 -29 -9 -11 -5 -18 21 -34 75 -46 280 -68 445 -48 65 8 74
7 98 -12 32 -25 92 -23 259 8 126 23 149 35 117 61 -12 10 -21 19 -21 22 0 3
33 11 73 17 39 7 77 16 82 20 6 4 42 13 80 20 39 7 76 17 83 23 12 9 70 -4
150 -34 36 -14 139 -11 177 5 19 8 56 18 82 22 26 3 53 10 58 14 6 4 27 11 49
14 21 4 46 11 55 15 9 5 34 14 56 21 65 19 162 69 169 86 10 26 -1 33 -65 40
-32 4 -62 10 -64 15 -10 15 39 20 233 23 264 4 406 29 542 95 107 52 166 105
176 158 7 39 -8 83 -30 83 -8 0 -43 13 -79 29 -66 30 -138 41 -212 35z"/>
</g>
</svg>
