<?xml version="1.0" standalone="no"?>
<!DOCTYPE svg PUBLIC "-//W3C//DTD SVG 20010904//EN"
 "http://www.w3.org/TR/2001/REC-SVG-20010904/DTD/svg10.dtd">
<svg version="1.0" xmlns="http://www.w3.org/2000/svg"
 width="213.000000pt" height="104.000000pt" viewBox="0 0 213.000000 104.000000"
 preserveAspectRatio="xMidYMid meet">
<metadata>
Created by potrace 1.13, written by Peter Selinger 2001-2015
</metadata>
<g transform="translate(0.000000,104.000000) scale(0.100000,-0.100000)"
fill="#000000" stroke="none">
<path d="M800 904 c-36 -12 -67 -31 -91 -54 -14 -14 -44 -38 -65 -53 -35 -25
-45 -28 -90 -22 -27 3 -106 6 -175 6 -149 0 -206 -17 -283 -85 l-49 -43 13
-49 c14 -51 69 -113 102 -114 9 0 20 -4 23 -10 3 -5 15 -10 26 -10 10 0 27 -4
37 -9 45 -23 166 -61 194 -61 8 0 36 -18 61 -40 35 -31 59 -43 104 -51 32 -6
69 -17 83 -25 33 -18 119 -54 131 -54 5 0 9 6 9 13 0 6 -30 26 -66 42 -36 17
-70 38 -75 48 -5 9 -16 17 -24 17 -7 0 -17 5 -21 12 -5 8 6 9 42 4 27 -4 89
-10 139 -13 102 -6 117 -11 142 -54 28 -47 108 -94 184 -107 83 -15 246 -16
254 -1 9 13 -21 46 -49 55 -27 9 -76 45 -76 57 0 5 19 6 43 1 44 -7 57 -8 196
-19 71 -5 96 -12 149 -41 84 -45 160 -54 240 -29 31 10 69 30 83 45 41 43 47
151 9 175 -6 4 -15 18 -20 31 -7 16 -17 24 -34 24 -14 0 -27 4 -30 9 -6 10
-63 20 -159 28 -75 6 -74 6 -162 0 -38 -2 -77 -1 -85 4 -8 4 -31 10 -51 14
-19 3 -44 12 -55 20 -26 20 -8 31 67 39 59 7 73 14 61 32 -9 13 -141 94 -153
94 -5 0 -12 7 -15 15 -10 25 -134 77 -189 79 -51 3 -110 -19 -136 -50 -6 -8
-17 -14 -24 -14 -7 0 -18 -7 -25 -15 -16 -19 -49 -19 -56 0 -3 8 3 27 15 43
25 36 16 82 -20 98 -29 14 -108 25 -129 18z"/>
</g>
</svg>
