<?xml version="1.0" standalone="no"?>
<!DOCTYPE svg PUBLIC "-//W3C//DTD SVG 20010904//EN"
 "http://www.w3.org/TR/2001/REC-SVG-20010904/DTD/svg10.dtd">
<svg version="1.0" xmlns="http://www.w3.org/2000/svg"
 width="1116.000000pt" height="417.000000pt" viewBox="0 0 1116.000000 417.000000"
 preserveAspectRatio="xMidYMid meet">
<metadata>
Created by potrace 1.13, written by Peter Selinger 2001-2015
</metadata>
<g transform="translate(0.000000,417.000000) scale(0.100000,-0.100000)"
fill="#000000" stroke="none">
<path d="M9930 3585 c-9 -11 -33 -15 -90 -15 -57 0 -81 -4 -90 -15 -9 -11 -33
-15 -89 -15 -73 0 -79 -2 -106 -30 -20 -21 -38 -30 -61 -30 -17 0 -37 -7 -44
-15 -7 -8 -20 -15 -30 -15 -10 0 -23 -7 -30 -15 -8 -9 -30 -15 -59 -15 -39 0
-52 -5 -76 -30 -20 -21 -38 -30 -61 -30 -17 0 -37 -7 -44 -15 -7 -8 -20 -15
-30 -15 -10 0 -23 -7 -30 -15 -7 -8 -20 -15 -30 -15 -10 0 -23 -7 -30 -15 -6
-8 -34 -15 -63 -17 -45 -3 -52 -6 -57 -28 -5 -22 -12 -25 -56 -28 -41 -2 -57
-9 -79 -32 -27 -28 -33 -30 -106 -30 -80 0 -100 -8 -74 -30 26 -22 6 -30 -74
-30 -58 0 -82 -4 -91 -15 -9 -11 -33 -15 -90 -15 -57 0 -81 -4 -90 -15 -7 -8
-27 -15 -45 -15 -18 0 -38 -7 -45 -15 -12 -14 -15 -14 -31 1 -20 18 -18 20
-34 -31 -3 -12 -22 -15 -83 -15 -59 0 -83 -4 -92 -15 -9 -11 -33 -15 -90 -15
-57 0 -81 -4 -90 -15 -10 -12 -37 -15 -120 -15 -83 0 -110 -3 -120 -15 -7 -8
-27 -15 -45 -15 -18 0 -38 -7 -45 -15 -13 -15 -71 -21 -84 -8 -3 4 13 27 38
52 24 25 46 55 48 66 2 11 12 21 25 23 12 2 27 10 33 18 7 8 20 14 29 14 21 0
61 40 61 61 0 25 44 59 76 59 21 0 40 10 59 30 16 17 36 30 46 30 9 0 22 7 29
15 7 8 20 15 30 15 10 0 23 7 30 15 7 8 20 15 29 15 10 0 28 11 40 24 18 19
22 33 19 72 -3 49 -3 49 -40 52 -20 2 -42 10 -48 18 -17 19 -104 19 -120 -1
-7 -8 -20 -15 -30 -15 -10 0 -23 7 -30 15 -8 9 -30 15 -60 15 -30 0 -52 -6
-60 -15 -9 -10 -32 -15 -75 -15 -44 0 -66 -5 -75 -15 -12 -14 -15 -14 -30 0
-23 21 -133 21 -150 0 -9 -11 -33 -15 -90 -15 -57 0 -81 -4 -90 -15 -12 -14
-15 -14 -30 0 -23 21 -133 21 -150 0 -9 -10 -32 -15 -75 -15 -43 0 -66 -5 -75
-15 -9 -11 -33 -15 -90 -15 -57 0 -81 -4 -90 -15 -17 -21 -133 -21 -150 0 -12
14 -15 14 -30 0 -12 -11 -38 -15 -92 -15 -55 0 -79 -4 -88 -15 -16 -19 -74
-19 -90 0 -12 14 -15 14 -30 0 -15 -14 -18 -14 -30 0 -12 14 -15 14 -30 0 -11
-10 -37 -15 -77 -15 -41 0 -64 -5 -73 -15 -8 -10 -37 -15 -93 -17 -77 -3 -81
-4 -87 -28 -6 -24 -10 -25 -87 -28 -56 -2 -85 -7 -93 -17 -8 -9 -30 -15 -59
-15 -42 0 -51 -4 -91 -45 -24 -25 -52 -45 -61 -45 -9 0 -22 -6 -29 -14 -6 -8
-21 -16 -33 -18 -12 -2 -23 -12 -25 -23 -2 -11 -20 -37 -40 -57 -27 -28 -44
-38 -67 -38 -33 0 -75 -34 -75 -60 0 -7 -7 -22 -16 -32 -14 -14 -14 -18 -3
-22 56 -17 55 -14 14 -56 -21 -21 -47 -40 -59 -42 -12 -2 -22 -12 -24 -23 -2
-11 -17 -33 -32 -50 -18 -18 -30 -43 -32 -65 -2 -27 -8 -36 -24 -38 -12 -2
-34 -16 -49 -33 -20 -20 -38 -29 -61 -29 -17 0 -37 -7 -44 -15 -12 -14 -16
-13 -37 6 -15 15 -23 34 -23 55 0 17 -7 37 -15 44 -8 7 -15 27 -15 45 0 18 -7
38 -15 45 -8 7 -15 27 -15 45 0 40 -9 49 -30 30 -15 -13 -21 -10 -60 30 -24
25 -51 45 -60 45 -9 0 -29 13 -45 30 -16 16 -36 30 -46 30 -9 0 -22 6 -29 14
-6 8 -21 16 -33 18 -13 2 -23 13 -27 28 -3 14 -14 26 -25 28 -11 2 -27 10 -36
18 -14 13 -18 12 -29 -1 -16 -19 -74 -19 -90 0 -7 8 -27 15 -45 15 -18 0 -38
-7 -45 -15 -9 -10 -32 -15 -74 -15 -56 0 -65 -3 -91 -30 -20 -21 -38 -30 -61
-30 -17 0 -37 -7 -44 -15 -7 -8 -20 -15 -29 -15 -21 0 -61 -40 -61 -61 0 -20
-41 -59 -61 -59 -25 0 -59 -44 -59 -76 0 -22 -12 -41 -45 -74 -35 -34 -45 -52
-45 -76 0 -17 -7 -37 -15 -44 -8 -7 -15 -27 -15 -45 0 -18 -7 -38 -15 -45 -8
-7 -15 -20 -15 -29 0 -30 -72 -91 -107 -91 -17 0 -36 -7 -43 -15 -9 -11 -33
-15 -90 -15 -57 0 -81 -4 -90 -15 -9 -11 -33 -15 -90 -15 -57 0 -81 -4 -90
-15 -9 -11 -33 -15 -88 -15 -71 0 -78 -2 -107 -30 -28 -27 -33 -29 -45 -15
-16 19 -74 20 -90 0 -7 -9 -35 -15 -78 -17 -61 -3 -67 -5 -72 -28 -6 -24 -10
-25 -85 -28 -51 -2 -85 -8 -95 -17 -10 -9 -44 -15 -95 -17 -75 -3 -79 -4 -85
-28 -5 -23 -11 -25 -72 -28 -43 -2 -71 -8 -78 -17 -9 -11 -34 -15 -90 -15 -57
0 -81 -4 -90 -15 -8 -9 -30 -15 -60 -15 -30 0 -52 -6 -60 -15 -7 -8 -20 -15
-30 -15 -10 0 -23 -7 -30 -15 -9 -11 -33 -15 -90 -15 -57 0 -81 -4 -90 -15 -8
-9 -30 -15 -60 -15 -30 0 -52 6 -60 15 -16 19 -44 19 -60 0 -9 -10 -31 -15
-74 -15 l-62 0 -59 -60 c-32 -32 -68 -60 -79 -62 -12 -2 -22 -12 -24 -23 -5
-27 -42 -65 -63 -65 -9 0 -22 7 -29 15 -11 13 -15 14 -29 1 -9 -8 -25 -16 -36
-18 -11 -2 -22 -14 -25 -28 -6 -24 -10 -25 -90 -30 l-85 -5 -3 -35 c-4 -38
-36 -80 -62 -80 -20 0 -60 -41 -60 -62 0 -9 -7 -21 -15 -28 -16 -14 -20 -46
-6 -54 5 -3 14 1 21 9 15 18 30 11 30 -14 0 -21 -40 -61 -61 -61 -9 0 -26 -11
-38 -24 -31 -33 -26 -88 9 -96 14 -3 26 -14 28 -25 5 -26 72 -95 92 -95 9 0
29 -14 45 -30 20 -21 38 -30 61 -30 17 0 37 -7 44 -15 7 -8 20 -15 30 -15 10
0 23 -7 30 -15 8 -9 30 -15 60 -15 30 0 52 -6 60 -15 7 -8 20 -15 30 -15 10 0
23 -7 30 -15 8 -9 30 -15 60 -15 30 0 52 -6 60 -15 7 -8 27 -15 45 -15 18 0
38 -7 45 -15 9 -11 35 -15 105 -15 71 0 96 -4 105 -15 12 -14 15 -14 30 0 21
19 74 19 90 0 16 -19 74 -19 90 0 16 19 74 19 90 0 16 -19 74 -19 90 0 16 19
74 19 90 0 16 -19 74 -19 90 0 9 10 32 15 75 15 43 0 66 5 75 15 9 10 32 15
75 15 43 0 66 5 75 15 9 11 33 15 90 15 57 0 81 4 90 15 9 11 33 15 89 15 73
0 79 2 106 30 26 27 35 30 91 30 42 0 65 5 74 15 17 20 103 20 120 0 7 -8 20
-15 29 -15 9 0 57 -40 106 -90 81 -81 91 -88 106 -74 14 13 18 13 29 -1 7 -8
20 -15 29 -15 10 0 30 -14 46 -30 28 -30 30 -30 136 -30 82 0 109 3 119 15 9
10 32 15 75 15 43 0 66 5 75 15 7 8 27 15 45 15 18 0 38 7 45 15 7 8 20 15 30
15 10 0 23 7 30 15 9 11 33 15 90 15 57 0 81 4 90 15 9 11 33 15 90 15 57 0
81 4 90 15 7 8 27 15 45 15 18 0 38 6 45 14 6 8 21 16 33 18 40 6 32 38 -24
94 -53 54 -54 54 -115 54 -43 0 -65 5 -74 15 -9 10 -32 15 -75 15 -42 0 -66 5
-75 15 -6 8 -33 15 -61 17 -71 4 -61 22 15 26 41 2 69 8 76 17 9 11 34 15 90
15 57 0 81 4 90 15 9 10 32 15 75 15 43 0 66 5 75 15 9 11 33 15 90 15 57 0
81 4 90 15 9 11 33 15 90 15 57 0 81 4 90 15 9 11 33 15 90 15 57 0 81 4 90
15 7 8 20 15 30 15 10 0 23 7 30 15 7 8 27 15 45 15 18 0 38 7 45 15 9 11 33
15 90 15 57 0 81 4 90 15 18 22 127 21 152 -1 19 -18 17 -21 33 31 3 12 22 15
84 15 82 0 107 11 75 34 -12 9 -14 15 -5 20 6 4 14 0 17 -8 4 -11 19 -16 42
-16 27 0 44 -8 67 -30 28 -27 33 -29 45 -15 19 23 43 18 75 -15 16 -16 36 -30
46 -30 9 0 22 -7 29 -15 12 -14 15 -14 30 0 15 14 18 14 30 0 7 -8 20 -15 30
-15 10 0 23 -7 30 -15 7 -8 20 -15 30 -15 10 0 23 -7 30 -15 12 -14 15 -14 30
0 15 14 18 14 30 0 7 -8 20 -15 30 -15 10 0 23 -7 30 -15 9 -10 32 -15 75 -15
43 0 66 -5 75 -15 7 -8 20 -15 30 -15 10 0 23 -7 30 -15 12 -14 15 -14 30 0
21 19 44 19 60 0 17 -20 103 -20 120 0 17 20 103 20 120 0 16 -19 44 -19 60 0
7 8 27 15 45 15 18 0 38 7 45 15 7 8 27 15 45 15 18 0 38 7 45 15 8 9 30 15
60 15 30 0 52 6 60 15 7 8 20 15 30 15 10 0 23 7 30 15 9 10 32 15 75 15 43 0
66 5 75 15 7 8 27 15 45 15 18 0 38 7 45 15 7 8 27 15 45 15 18 0 38 7 45 15
9 11 33 15 90 15 56 0 81 4 90 15 7 9 35 15 78 17 61 3 67 5 72 28 5 23 11 25
70 28 37 2 71 9 80 17 10 9 45 15 95 17 75 3 79 4 85 28 5 22 12 25 57 28 29
2 57 9 63 17 7 8 20 15 29 15 10 0 30 13 46 29 15 17 37 31 49 33 11 2 22 12
24 23 2 11 10 27 18 36 16 18 9 29 -16 29 -10 0 -23 7 -30 15 -7 8 -20 15 -30
15 -10 0 -23 7 -30 15 -12 14 -15 14 -30 0 -15 -14 -18 -14 -30 0 -7 8 -27 15
-45 15 -18 0 -38 7 -45 15 -16 19 -44 19 -60 0 -12 -14 -15 -14 -30 0 -9 8
-24 15 -32 15 -9 0 -21 7 -28 15 -8 10 -37 15 -91 17 -81 3 -113 21 -47 26 20
2 42 10 48 18 9 10 35 14 90 14 57 0 81 4 90 15 9 11 33 15 90 15 57 0 81 4
90 15 18 22 127 21 152 -1 19 -18 18 -19 34 34 2 8 25 12 67 12 45 0 68 5 77
15 9 11 33 15 90 15 57 0 81 4 90 15 9 11 33 15 90 15 57 0 81 4 90 15 9 10
32 15 75 15 43 0 66 5 75 15 9 10 32 15 75 15 44 0 66 5 75 15 12 14 15 14 30
0 23 -21 133 -21 150 0 16 19 74 19 90 0 16 -19 74 -19 90 0 17 20 103 20 120
0 16 -19 44 -19 60 0 9 10 32 15 75 15 44 0 66 5 75 15 12 14 15 14 30 0 23
-21 133 -21 150 0 17 20 103 20 120 0 16 -19 44 -19 60 0 9 11 33 15 90 15 57
0 81 4 90 15 7 8 20 15 30 15 10 0 23 7 30 15 7 8 20 15 29 15 9 0 37 20 61
45 24 25 52 45 61 45 9 0 22 7 29 15 7 8 20 15 29 15 10 0 27 11 40 23 19 21
20 25 6 37 -18 15 -11 30 13 30 21 0 152 130 152 151 0 8 27 41 60 74 62 61
71 83 45 105 -26 21 -18 73 15 105 26 25 28 30 15 45 -9 10 -15 43 -17 95 -3
75 -4 79 -28 85 -23 5 -25 11 -28 72 -2 43 -8 71 -17 78 -8 7 -15 20 -15 29 0
21 -70 91 -91 91 -8 0 -28 14 -44 30 -16 17 -36 30 -46 30 -9 0 -22 7 -29 15
-8 9 -30 15 -59 15 -39 0 -52 5 -76 30 -16 17 -36 30 -46 30 -9 0 -22 7 -29
15 -8 9 -30 15 -60 15 -30 0 -52 6 -60 15 -10 12 -38 15 -135 15 -97 0 -125
-3 -135 -15z"/>
</g>
</svg>
