<?xml version="1.0" standalone="no"?>
<!DOCTYPE svg PUBLIC "-//W3C//DTD SVG 20010904//EN"
 "http://www.w3.org/TR/2001/REC-SVG-20010904/DTD/svg10.dtd">
<svg version="1.0" xmlns="http://www.w3.org/2000/svg"
 width="699.000000pt" height="309.000000pt" viewBox="0 0 699.000000 309.000000"
 preserveAspectRatio="xMidYMid meet">
<metadata>
Created by potrace 1.13, written by Peter Selinger 2001-2015
</metadata>
<g transform="translate(0.000000,309.000000) scale(0.100000,-0.100000)"
fill="#000000" stroke="none">
<path d="M6465 2460 c-26 -27 -35 -30 -91 -30 -42 0 -65 -5 -74 -15 -7 -9 -35
-15 -78 -17 -61 -3 -67 -5 -72 -28 -5 -23 -11 -25 -72 -28 -43 -2 -71 -8 -78
-17 -7 -8 -20 -15 -30 -15 -10 0 -23 -7 -30 -15 -6 -8 -34 -15 -63 -17 -45 -3
-52 -6 -57 -28 -5 -19 -13 -26 -39 -28 -20 -2 -40 3 -51 13 -15 14 -18 14 -30
0 -7 -8 -20 -15 -30 -15 -10 0 -23 -7 -30 -15 -7 -8 -20 -15 -29 -15 -10 0
-30 -13 -46 -30 -20 -21 -38 -30 -61 -30 -17 0 -37 -7 -44 -15 -7 -8 -20 -15
-30 -15 -10 0 -23 -7 -30 -15 -7 -8 -27 -15 -45 -15 -18 0 -38 -7 -45 -15 -8
-9 -30 -15 -60 -15 -30 0 -52 6 -60 15 -7 8 -20 15 -30 15 -10 0 -23 -7 -30
-15 -9 -10 -32 -15 -75 -15 -43 0 -66 -5 -75 -15 -9 -11 -33 -15 -90 -15 -57
0 -81 -4 -90 -15 -9 -10 -32 -15 -75 -15 -44 0 -66 -5 -75 -15 -12 -14 -15
-14 -30 0 -23 21 -133 21 -150 0 -13 -16 -130 -22 -144 -8 -10 10 155 173 175
173 9 0 22 7 29 15 7 8 20 15 29 15 9 0 34 17 54 38 32 32 37 44 37 83 0 55
-30 89 -77 89 -17 0 -36 7 -43 15 -16 19 -74 19 -90 0 -12 -14 -15 -14 -30 0
-23 21 -133 21 -150 0 -17 -21 -133 -21 -150 0 -12 14 -15 14 -30 0 -21 -19
-74 -19 -90 0 -16 19 -44 19 -60 0 -12 -14 -15 -14 -30 0 -23 21 -133 21 -150
0 -12 -14 -15 -14 -30 0 -15 14 -19 14 -29 1 -7 -9 -34 -16 -64 -18 -45 -3
-52 -6 -57 -28 -4 -15 -14 -26 -27 -28 -12 -2 -27 -10 -33 -18 -7 -8 -20 -14
-30 -14 -10 0 -23 -6 -30 -14 -6 -8 -21 -16 -33 -18 -13 -2 -23 -13 -27 -28
-4 -15 -15 -26 -30 -30 -14 -3 -26 -14 -28 -25 -2 -11 -24 -41 -48 -66 -40
-40 -43 -47 -30 -59 9 -7 16 -27 16 -44 0 -26 -13 -44 -68 -99 -37 -37 -75
-67 -84 -67 -8 0 -21 -7 -28 -15 -10 -12 -31 -15 -94 -13 l-81 3 -3 111 -3
110 -44 44 c-25 24 -45 52 -45 61 0 9 -7 22 -15 29 -8 7 -15 20 -15 30 0 10
-7 23 -15 30 -8 7 -15 20 -15 29 0 10 -11 27 -23 40 -22 19 -25 20 -37 6 -12
-14 -15 -14 -30 0 -9 8 -30 15 -47 15 -17 0 -36 7 -43 15 -12 14 -15 14 -30 0
-21 -19 -74 -19 -90 0 -21 26 -73 18 -105 -15 -20 -21 -38 -30 -61 -30 -17 0
-37 -6 -44 -14 -6 -8 -21 -16 -33 -18 -13 -2 -23 -11 -25 -24 -2 -11 -23 -40
-47 -64 -44 -43 -45 -46 -45 -106 0 -43 -5 -65 -15 -74 -14 -12 -14 -15 0 -30
14 -15 14 -18 0 -30 -8 -7 -15 -27 -15 -45 0 -18 -7 -38 -15 -45 -10 -8 -15
-37 -17 -93 l-3 -82 -37 -3 c-20 -2 -42 -10 -49 -18 -10 -13 -14 -12 -30 2
-20 18 -19 19 -35 -33 -2 -9 -25 -13 -67 -13 -45 0 -68 -5 -77 -15 -7 -8 -20
-15 -30 -15 -10 0 -23 7 -30 15 -17 20 -103 20 -120 0 -9 -11 -33 -15 -89 -15
-73 0 -79 -2 -106 -30 -26 -27 -35 -30 -91 -30 -42 0 -65 -5 -74 -15 -8 -9
-30 -15 -59 -15 -39 0 -52 -5 -76 -30 -26 -27 -35 -30 -90 -30 -55 0 -64 -3
-90 -30 -32 -34 -84 -41 -105 -15 -19 23 -53 14 -60 -15 -5 -20 -13 -26 -41
-28 -28 -2 -48 -15 -94 -63 -48 -47 -66 -59 -91 -59 -17 0 -37 -7 -44 -15 -7
-8 -20 -15 -29 -15 -9 0 -37 -20 -61 -45 -34 -34 -52 -45 -75 -45 -20 0 -40
-9 -54 -23 -19 -22 -20 -25 -6 -37 14 -12 14 -15 0 -30 -8 -9 -15 -24 -15 -32
0 -9 -7 -21 -15 -28 -14 -12 -14 -15 0 -30 8 -9 15 -23 15 -31 0 -9 13 -28 30
-44 16 -16 30 -36 30 -45 0 -20 101 -120 122 -120 8 0 21 -7 28 -15 7 -8 27
-15 45 -15 18 0 38 -7 45 -15 7 -8 20 -15 30 -15 10 0 23 -7 30 -15 12 -14 15
-14 30 0 21 19 74 19 90 0 9 -11 35 -15 105 -15 70 0 96 -4 105 -15 16 -19 44
-19 60 0 16 19 44 19 60 0 7 -8 27 -15 45 -15 18 0 38 -7 45 -15 12 -14 15
-14 30 0 11 10 37 15 77 15 42 0 64 5 73 15 10 12 43 15 180 15 138 0 170 3
180 15 10 13 32 15 109 13 l96 -3 3 -37 c2 -20 10 -42 18 -48 8 -8 14 -31 14
-59 0 -37 5 -53 23 -69 20 -19 35 -22 113 -22 87 0 91 1 119 30 27 28 33 30
106 30 56 0 80 4 89 15 9 11 33 15 90 15 57 0 81 4 90 15 9 11 33 15 88 15 71
0 78 2 107 30 28 27 33 29 45 15 21 -26 73 -19 105 15 26 27 30 28 45 15 15
-14 19 -14 29 -1 7 8 22 16 34 18 12 2 23 11 25 21 5 23 -35 67 -59 67 -9 0
-22 7 -29 15 -16 19 -74 19 -90 0 -12 -14 -15 -14 -30 0 -24 22 -282 22 -300
0 -9 -10 -32 -15 -75 -15 -44 0 -66 -5 -75 -16 -9 -9 -26 -14 -47 -12 -38 3
-49 21 -16 26 12 2 27 10 33 18 9 9 33 14 74 14 56 0 65 3 91 30 27 28 33 30
106 30 56 0 80 4 89 15 9 10 32 15 75 15 43 0 66 5 75 15 7 8 27 15 45 15 18
0 38 7 45 15 7 8 27 15 45 15 18 0 38 7 45 15 9 11 33 15 90 15 57 0 81 4 90
15 8 9 30 15 60 15 30 0 52 6 60 15 7 8 20 15 29 15 21 0 61 -40 61 -61 0 -28
73 -89 106 -89 21 0 39 -10 59 -30 16 -16 36 -30 46 -30 9 0 22 -7 29 -15 9
-10 32 -15 75 -15 43 0 66 -5 75 -15 7 -8 27 -15 45 -15 18 0 38 7 45 15 9 11
33 15 89 15 73 0 79 2 106 30 20 21 38 30 60 30 22 0 40 9 60 30 24 25 37 30
76 30 29 0 51 6 59 15 7 8 20 15 29 15 9 0 37 20 61 45 38 39 49 44 94 47 43
3 51 6 54 24 2 11 23 40 47 64 51 50 55 67 22 98 -19 18 -35 22 -84 22 -42 0
-64 5 -73 15 -7 8 -20 15 -30 15 -10 0 -23 7 -30 15 -16 20 -56 19 -64 -1 -3
-8 -11 -12 -17 -8 -9 5 -8 10 4 18 8 7 17 23 19 36 3 24 6 25 85 28 56 2 85 7
93 17 9 11 34 15 90 15 57 0 81 4 90 15 7 8 20 15 30 15 10 0 23 7 30 15 7 8
20 15 30 15 10 0 23 7 30 15 9 11 33 15 90 15 57 0 81 4 90 15 9 11 33 15 90
15 57 0 81 4 90 15 9 11 33 15 90 15 57 0 81 4 90 15 9 10 32 15 75 15 43 0
66 5 75 15 9 11 33 15 90 15 57 0 81 4 90 15 7 8 20 15 30 15 10 0 23 -7 30
-15 17 -20 103 -20 120 0 7 8 27 15 45 15 18 0 38 -7 45 -15 7 -8 27 -15 45
-15 18 0 38 7 45 15 7 8 20 15 30 15 10 0 23 -7 30 -15 16 -19 74 -19 90 0 7
8 20 15 30 15 10 0 23 -7 30 -15 10 -12 37 -15 120 -15 83 0 110 -3 120 -15
16 -19 44 -19 60 0 9 11 33 15 89 15 76 0 77 1 114 38 32 32 37 44 37 83 0 39
-5 50 -37 81 -21 20 -47 38 -58 40 -19 3 -20 13 -25 148 -5 144 -5 144 -30
150 -20 5 -26 13 -28 41 -2 23 3 40 12 49 12 9 16 32 16 90 0 58 4 81 16 90
23 20 15 84 -12 88 -12 2 -34 16 -49 33 -16 16 -36 29 -46 29 -9 0 -22 7 -29
15 -19 23 -43 18 -75 -15z"/>
</g>
</svg>
