<?xml version="1.0" standalone="no"?>
<!DOCTYPE svg PUBLIC "-//W3C//DTD SVG 20010904//EN"
 "http://www.w3.org/TR/2001/REC-SVG-20010904/DTD/svg10.dtd">
<svg version="1.0" xmlns="http://www.w3.org/2000/svg"
 width="331.000000pt" height="403.000000pt" viewBox="0 0 331.000000 403.000000"
 preserveAspectRatio="xMidYMid meet">
<metadata>
Created by potrace 1.13, written by Peter Selinger 2001-2015
</metadata>
<g transform="translate(0.000000,403.000000) scale(0.100000,-0.100000)"
fill="#000000" stroke="none">
<path d="M1130 4004 c-243 -72 -564 -275 -815 -515 -38 -37 -92 -79 -118 -93
-124 -68 -197 -134 -197 -179 0 -36 41 -87 129 -160 217 -181 308 -305 362
-489 17 -59 22 -116 29 -298 11 -312 15 -319 143 -277 45 15 103 27 130 27 91
0 196 -52 299 -148 27 -25 49 -39 53 -33 3 6 17 11 31 11 60 0 51 -115 -31
-425 -162 -608 -196 -766 -197 -919 0 -132 29 -190 101 -202 58 -9 126 -33
281 -96 501 -206 488 -202 705 -202 175 1 252 15 443 85 109 39 434 200 529
261 76 49 89 70 74 111 -12 30 -93 93 -169 131 -131 66 -416 159 -737 241 -77
19 -146 37 -152 40 -34 12 81 231 154 295 81 71 123 85 248 85 119 0 116 0
475 -131 89 -32 118 -38 186 -39 70 0 85 3 117 25 55 38 84 99 95 203 12 104
1 209 -27 272 -31 69 -71 122 -185 243 -145 153 -209 256 -231 374 l-7 35 67
31 c104 49 232 137 296 205 98 103 120 197 69 296 -24 49 -110 134 -167 168
-24 14 -43 27 -43 29 0 2 22 48 49 102 78 154 88 220 36 244 -57 26 -140 -12
-600 -272 -151 -86 -259 -135 -331 -151 -44 -10 -55 -9 -90 9 -57 30 -109 88
-144 163 -37 80 -52 152 -81 374 -36 286 -80 403 -185 488 -97 79 -203 107
-404 106 -82 0 -124 -6 -190 -25z"/>
</g>
</svg>
