<?xml version="1.0" standalone="no"?>
<!DOCTYPE svg PUBLIC "-//W3C//DTD SVG 20010904//EN"
 "http://www.w3.org/TR/2001/REC-SVG-20010904/DTD/svg10.dtd">
<svg version="1.0" xmlns="http://www.w3.org/2000/svg"
 width="336.000000pt" height="403.000000pt" viewBox="0 0 336.000000 403.000000"
 preserveAspectRatio="xMidYMid meet">
<metadata>
Created by potrace 1.13, written by Peter Selinger 2001-2015
</metadata>
<g transform="translate(0.000000,403.000000) scale(0.100000,-0.100000)"
fill="#000000" stroke="none">
<path d="M1197 4011 c-240 -67 -573 -273 -815 -505 -46 -44 -112 -98 -149
-119 -83 -50 -172 -139 -204 -203 -32 -66 -33 -151 -1 -215 27 -55 106 -118
190 -150 53 -21 75 -22 297 -24 267 -2 365 -15 520 -66 189 -63 285 -161 241
-246 -48 -94 -306 -163 -605 -163 l-98 0 -6 -82 c-7 -95 -42 -242 -82 -344
-15 -38 -78 -166 -141 -284 -62 -118 -122 -246 -133 -284 -25 -81 -27 -182 -6
-252 17 -56 75 -155 122 -208 32 -36 34 -36 58 -20 37 24 91 33 133 22 55 -15
117 -88 200 -235 130 -230 209 -305 338 -324 109 -16 164 -35 415 -139 130
-54 272 -109 315 -123 331 -105 654 -36 1173 250 152 83 186 112 177 151 -25
106 -371 253 -916 388 -85 21 -156 39 -158 40 -1 1 9 32 23 69 52 140 131 237
233 287 41 20 62 23 157 23 119 -1 123 -2 475 -131 89 -32 117 -38 186 -39 70
0 85 3 117 25 55 38 84 99 95 203 12 104 1 209 -27 272 -31 69 -71 122 -185
243 -145 153 -209 256 -231 374 l-7 35 67 31 c179 84 338 220 376 322 44 117
-12 234 -161 335 -30 20 -57 38 -58 40 -2 2 19 45 46 97 77 142 114 243 116
311 1 53 -2 61 -27 83 -39 34 -113 32 -290 -7 -198 -44 -245 -43 -327 5 -69
40 -153 101 -209 151 -62 55 -86 76 -130 118 -122 114 -285 214 -411 250 -115
33 -237 48 -430 52 -169 4 -204 2 -263 -14z"/>
</g>
</svg>
