<?xml version="1.0" standalone="no"?>
<!DOCTYPE svg PUBLIC "-//W3C//DTD SVG 20010904//EN"
 "http://www.w3.org/TR/2001/REC-SVG-20010904/DTD/svg10.dtd">
<svg version="1.0" xmlns="http://www.w3.org/2000/svg"
 width="317.000000pt" height="403.000000pt" viewBox="0 0 317.000000 403.000000"
 preserveAspectRatio="xMidYMid meet">
<metadata>
Created by potrace 1.13, written by Peter Selinger 2001-2015
</metadata>
<g transform="translate(0.000000,403.000000) scale(0.100000,-0.100000)"
fill="#000000" stroke="none">
<path d="M1129 4010 c-108 -66 -157 -245 -194 -710 -22 -274 -39 -391 -62
-426 -24 -35 -240 -111 -338 -119 -50 -5 -84 -2 -120 9 -27 8 -51 13 -53 11
-3 -2 2 -50 9 -107 17 -136 18 -455 1 -533 -29 -133 -79 -266 -154 -410 -205
-392 -232 -467 -211 -592 14 -79 56 -168 118 -246 l45 -57 33 16 c82 43 147
35 206 -26 20 -21 68 -92 105 -157 95 -164 132 -217 188 -269 61 -57 118 -83
211 -94 78 -9 165 -40 405 -144 305 -131 439 -164 631 -153 202 12 405 78 691
225 175 89 290 160 301 186 41 90 -165 207 -591 334 -91 27 -234 67 -317 88
-132 34 -153 42 -153 59 0 41 88 200 142 256 70 72 131 100 233 107 100 6 190
-15 405 -97 187 -70 245 -85 315 -79 109 9 167 82 183 231 13 118 0 215 -38
292 -33 69 -73 118 -203 255 -51 54 -107 122 -125 153 -31 51 -82 183 -82 210
0 7 43 35 96 62 167 87 271 173 332 275 51 86 32 193 -50 281 -25 27 -117 101
-156 125 -2 2 19 44 46 96 67 123 110 236 118 303 6 51 5 56 -24 84 -27 28
-37 31 -91 31 -33 0 -122 -14 -198 -31 -76 -17 -167 -31 -203 -32 -59 -1 -71
3 -135 41 -95 56 -166 111 -281 217 -285 265 -462 338 -844 351 -146 5 -157 4
-191 -16z"/>
</g>
</svg>
