<?xml version="1.0" standalone="no"?>
<!DOCTYPE svg PUBLIC "-//W3C//DTD SVG 20010904//EN"
 "http://www.w3.org/TR/2001/REC-SVG-20010904/DTD/svg10.dtd">
<svg version="1.0" xmlns="http://www.w3.org/2000/svg"
 width="340.000000pt" height="403.000000pt" viewBox="0 0 340.000000 403.000000"
 preserveAspectRatio="xMidYMid meet">
<metadata>
Created by potrace 1.13, written by Peter Selinger 2001-2015
</metadata>
<g transform="translate(0.000000,403.000000) scale(0.100000,-0.100000)"
fill="#000000" stroke="none">
<path d="M1340 4023 c-47 -9 -182 -65 -242 -99 -33 -19 -62 -34 -65 -34 -9 0
-187 -122 -253 -173 -120 -93 -267 -226 -343 -309 -212 -232 -300 -384 -302
-521 l-1 -67 -62 -37 c-66 -39 -81 -59 -58 -81 18 -18 117 -20 506 -8 323 10
431 2 529 -37 74 -30 99 -70 81 -130 -6 -23 -23 -56 -36 -74 -13 -17 -24 -40
-24 -51 0 -10 -10 -34 -22 -52 -39 -56 -69 -61 -368 -58 l-265 3 -56 -26 c-84
-39 -149 -128 -192 -259 -88 -269 -49 -660 96 -970 54 -115 131 -217 151 -201
6 5 33 16 59 25 38 13 57 14 85 6 66 -17 99 -57 212 -255 120 -210 198 -284
320 -305 119 -20 154 -31 300 -90 80 -32 207 -84 283 -115 213 -87 265 -98
447 -99 140 -1 166 2 265 28 177 46 405 143 634 272 131 73 165 104 157 142
-25 106 -331 238 -889 381 -162 42 -182 49 -179 66 1 11 25 66 53 123 82 164
171 230 322 239 102 7 195 -15 397 -92 184 -71 251 -88 322 -83 112 8 170 80
186 231 12 104 1 209 -27 272 -31 70 -75 128 -186 244 -142 149 -208 255 -230
372 -6 34 -6 34 62 68 111 54 231 138 294 204 150 157 125 300 -76 447 -33 24
-62 45 -63 46 -2 2 19 44 46 96 77 142 114 243 116 311 1 53 -2 61 -27 83 -39
34 -115 32 -286 -7 -174 -39 -253 -41 -307 -10 -45 28 -147 94 -154 101 -3 3
-30 25 -60 50 -30 24 -86 74 -123 109 -189 182 -355 268 -587 307 -87 15 -395
27 -440 17z"/>
</g>
</svg>
