<?xml version="1.0" standalone="no"?>
<!DOCTYPE svg PUBLIC "-//W3C//DTD SVG 20010904//EN"
 "http://www.w3.org/TR/2001/REC-SVG-20010904/DTD/svg10.dtd">
<svg version="1.0" xmlns="http://www.w3.org/2000/svg"
 width="322.000000pt" height="403.000000pt" viewBox="0 0 322.000000 403.000000"
 preserveAspectRatio="xMidYMid meet">
<metadata>
Created by potrace 1.13, written by Peter Selinger 2001-2015
</metadata>
<g transform="translate(0.000000,403.000000) scale(0.100000,-0.100000)"
fill="#000000" stroke="none">
<path d="M1055 4010 c-239 -63 -627 -307 -850 -536 -27 -28 -70 -63 -95 -77
-77 -45 -110 -83 -110 -130 0 -60 59 -109 239 -198 495 -244 523 -259 662
-370 198 -157 293 -331 292 -529 -1 -151 -63 -282 -197 -415 -88 -87 -205
-170 -446 -315 -281 -169 -367 -237 -411 -322 -38 -75 -22 -163 48 -255 l24
-33 41 21 c22 11 60 21 84 22 80 1 142 -63 249 -258 117 -215 213 -297 368
-314 75 -9 98 -17 542 -199 198 -81 273 -97 455 -96 171 1 250 17 449 90 209
77 574 275 591 320 19 50 -23 98 -150 167 -128 70 -470 182 -803 263 -137 34
-132 22 -66 160 48 102 118 180 196 219 54 28 66 30 168 30 119 0 114 1 475
-131 89 -32 118 -38 186 -39 70 0 85 3 117 25 75 50 116 204 96 361 -15 125
-53 188 -213 357 -145 153 -209 256 -231 374 l-7 35 67 31 c104 49 233 138
297 205 97 103 119 197 68 296 -24 49 -110 134 -167 168 -24 14 -43 26 -43 28
0 2 28 59 63 127 73 143 101 224 102 291 0 41 -4 53 -28 73 -39 34 -112 32
-285 -7 -75 -17 -166 -31 -202 -32 -58 -1 -72 3 -130 37 -36 21 -96 62 -135
91 -67 50 -93 72 -195 168 -158 149 -293 226 -474 272 -184 47 -511 60 -641
25z"/>
</g>
</svg>
