<?xml version="1.0" standalone="no"?>
<!DOCTYPE svg PUBLIC "-//W3C//DTD SVG 20010904//EN"
 "http://www.w3.org/TR/2001/REC-SVG-20010904/DTD/svg10.dtd">
<svg version="1.0" xmlns="http://www.w3.org/2000/svg"
 width="329.000000pt" height="404.000000pt" viewBox="0 0 329.000000 404.000000"
 preserveAspectRatio="xMidYMid meet">
<metadata>
Created by potrace 1.13, written by Peter Selinger 2001-2015
</metadata>
<g transform="translate(0.000000,404.000000) scale(0.100000,-0.100000)"
fill="#000000" stroke="none">
<path d="M1150 4021 c-251 -72 -564 -265 -819 -506 -47 -45 -115 -99 -151
-119 -141 -82 -195 -147 -170 -205 12 -31 33 -51 171 -171 186 -162 262 -275
317 -475 27 -95 23 -353 -6 -469 -32 -126 -78 -237 -172 -411 -159 -294 -185
-368 -178 -497 4 -67 11 -90 46 -160 23 -46 59 -103 81 -127 l38 -45 51 22
c122 53 174 16 308 -218 42 -74 93 -156 113 -181 77 -98 159 -147 247 -150 61
-2 164 -38 401 -140 332 -142 467 -176 653 -165 213 12 422 82 730 243 234
123 270 149 270 199 0 101 -313 238 -893 389 -93 24 -171 46 -174 48 -7 7 33
103 73 174 110 196 276 250 529 172 39 -12 134 -45 212 -75 229 -87 327 -92
395 -22 49 50 68 103 68 191 0 120 -37 176 -140 212 -23 8 -113 22 -199 30
-185 19 -227 28 -289 59 -58 30 -95 68 -121 126 -28 62 -26 75 12 91 117 48
351 244 469 394 231 293 264 573 82 711 l-35 27 -227 1 c-198 1 -232 3 -270
20 -89 39 -86 79 21 279 27 50 37 81 37 113 0 40 -3 47 -40 72 -126 86 -206
148 -295 232 -185 172 -298 244 -465 293 -125 38 -203 47 -420 52 -169 4 -204
2 -260 -14z"/>
</g>
</svg>
