<?xml version="1.0" standalone="no"?>
<!DOCTYPE svg PUBLIC "-//W3C//DTD SVG 20010904//EN"
 "http://www.w3.org/TR/2001/REC-SVG-20010904/DTD/svg10.dtd">
<svg version="1.0" xmlns="http://www.w3.org/2000/svg"
 width="351.000000pt" height="405.000000pt" viewBox="0 0 351.000000 405.000000"
 preserveAspectRatio="xMidYMid meet">
<metadata>
Created by potrace 1.13, written by Peter Selinger 2001-2015
</metadata>
<g transform="translate(0.000000,405.000000) scale(0.100000,-0.100000)"
fill="#000000" stroke="none">
<path d="M1935 4023 c-15 -23 -17 -42 -11 -142 17 -306 18 -349 7 -405 -30
-161 -117 -252 -269 -285 -124 -26 -210 -9 -491 96 -365 136 -488 175 -576
181 -82 5 -83 5 -145 -34 -306 -191 -450 -403 -450 -660 0 -184 74 -319 222
-410 90 -55 198 -78 343 -71 66 2 127 8 137 12 13 5 18 -4 28 -51 22 -103 87
-208 320 -514 95 -125 141 -212 148 -281 4 -48 3 -51 -39 -92 -74 -70 -175
-92 -484 -106 -213 -10 -256 -19 -273 -55 -11 -25 6 -72 37 -100 16 -15 21
-15 47 -1 37 19 97 19 134 0 55 -28 123 -133 211 -328 120 -262 214 -396 312
-445 25 -13 70 -25 99 -28 65 -7 167 -43 397 -141 327 -139 455 -171 650 -160
223 12 503 114 831 300 175 100 195 126 145 185 -81 96 -395 221 -850 337 -99
25 -186 48 -192 50 -17 6 22 115 68 191 80 131 186 194 327 194 102 0 166 -17
379 -96 210 -78 282 -94 351 -75 90 24 137 96 150 232 21 207 -18 303 -205
500 -72 77 -139 159 -162 197 -37 65 -81 177 -81 207 0 9 35 32 82 56 168 84
301 194 349 289 32 61 32 140 1 200 -30 57 -61 90 -142 152 -36 27 -65 53 -65
56 1 4 13 34 29 67 51 111 61 154 61 260 0 90 -3 106 -29 159 -87 178 -319
302 -761 406 -329 77 -418 100 -444 114 -144 78 -168 83 -196 39z"/>
</g>
</svg>
