<?xml version="1.0" standalone="no"?>
<!DOCTYPE svg PUBLIC "-//W3C//DTD SVG 20010904//EN"
 "http://www.w3.org/TR/2001/REC-SVG-20010904/DTD/svg10.dtd">
<svg version="1.0" xmlns="http://www.w3.org/2000/svg"
 width="331.000000pt" height="355.000000pt" viewBox="0 0 331.000000 355.000000"
 preserveAspectRatio="xMidYMid meet">
<metadata>
Created by potrace 1.13, written by Peter Selinger 2001-2015
</metadata>
<g transform="translate(0.000000,355.000000) scale(0.100000,-0.100000)"
fill="#000000" stroke="none">
<path d="M2075 3509 c-315 -77 -570 -93 -830 -52 -225 36 -422 53 -607 53
-207 0 -290 -15 -363 -63 -27 -19 -72 -47 -100 -62 -120 -68 -175 -122 -175
-171 0 -33 50 -91 147 -170 165 -136 261 -256 316 -394 73 -187 77 -433 9
-652 -35 -110 -61 -167 -177 -388 -62 -118 -123 -246 -134 -284 -25 -82 -27
-187 -5 -253 32 -95 151 -262 168 -234 4 6 30 17 58 26 106 31 164 -15 283
-225 135 -239 224 -321 362 -336 75 -8 126 -24 303 -96 501 -206 488 -202 705
-202 175 1 253 16 443 85 104 38 430 198 525 258 75 48 91 68 81 106 -25 100
-382 250 -906 380 -79 20 -148 38 -155 40 -15 5 2 59 50 154 70 141 182 221
318 229 101 6 187 -14 388 -89 291 -108 366 -115 444 -41 45 42 65 92 75 186
23 209 -17 309 -204 507 -68 71 -139 156 -159 189 -34 56 -85 184 -85 214 0 7
34 30 75 51 170 84 311 200 358 295 29 59 29 140 0 196 -26 49 -115 139 -172
174 -22 14 -41 28 -41 32 0 4 13 29 29 55 40 65 111 226 127 288 20 74 17 101
-14 136 -26 29 -33 31 -92 31 -36 0 -128 -14 -205 -31 -203 -45 -230 -43 -368
24 -184 89 -234 93 -472 34z"/>
</g>
</svg>
