<?xml version="1.0" standalone="no"?>
<!DOCTYPE svg PUBLIC "-//W3C//DTD SVG 20010904//EN"
 "http://www.w3.org/TR/2001/REC-SVG-20010904/DTD/svg10.dtd">
<svg version="1.0" xmlns="http://www.w3.org/2000/svg"
 width="347.000000pt" height="403.000000pt" viewBox="0 0 347.000000 403.000000"
 preserveAspectRatio="xMidYMid meet">
<metadata>
Created by potrace 1.13, written by Peter Selinger 2001-2015
</metadata>
<g transform="translate(0.000000,403.000000) scale(0.100000,-0.100000)"
fill="#000000" stroke="none">
<path d="M1150 4011 c-117 -33 -263 -100 -396 -182 -116 -70 -331 -236 -417
-320 -53 -52 -107 -94 -152 -117 -81 -43 -185 -140 -185 -173 0 -38 39 -87
129 -162 231 -193 322 -322 372 -535 18 -75 21 -108 16 -237 -8 -235 -41 -336
-222 -675 -57 -107 -115 -230 -129 -272 -30 -89 -34 -187 -11 -264 16 -55 80
-161 127 -210 l29 -31 41 20 c22 11 59 20 82 20 81 0 119 -39 237 -243 131
-227 205 -299 329 -320 121 -21 155 -31 315 -96 88 -36 214 -87 280 -114 196
-80 265 -95 440 -94 121 0 167 4 240 22 185 46 378 127 627 263 197 108 218
136 153 208 -84 92 -412 218 -880 336 -82 21 -153 41 -157 44 -10 9 72 196
116 265 106 163 248 282 453 377 48 23 196 77 328 121 281 93 377 139 458 220
73 72 96 123 97 209 0 73 -18 104 -68 115 -15 3 -33 7 -40 10 -25 8 -172 -25
-273 -61 -488 -173 -564 -195 -676 -195 -81 1 -136 27 -163 80 -11 22 -18 45
-15 49 3 5 29 23 59 40 101 57 131 130 83 202 -41 61 -205 170 -437 290 -25
13 -89 47 -142 77 l-97 53 38 62 c193 315 352 498 538 620 51 33 93 67 93 74
0 16 -54 65 -113 103 -71 45 -124 98 -203 201 -83 110 -128 149 -205 179 -96
39 -185 50 -414 55 -193 4 -228 2 -285 -14z"/>
</g>
</svg>
