<?xml version="1.0" standalone="no"?>
<!DOCTYPE svg PUBLIC "-//W3C//DTD SVG 20010904//EN"
 "http://www.w3.org/TR/2001/REC-SVG-20010904/DTD/svg10.dtd">
<svg version="1.0" xmlns="http://www.w3.org/2000/svg"
 width="333.000000pt" height="384.000000pt" viewBox="0 0 333.000000 384.000000"
 preserveAspectRatio="xMidYMid meet">
<metadata>
Created by potrace 1.13, written by Peter Selinger 2001-2015
</metadata>
<g transform="translate(0.000000,384.000000) scale(0.100000,-0.100000)"
fill="#000000" stroke="none">
<path d="M1150 3820 c-248 -67 -570 -268 -828 -514 -40 -39 -103 -87 -140
-109 -90 -52 -150 -103 -169 -143 -27 -56 -2 -92 157 -224 192 -158 292 -314
336 -521 22 -105 15 -324 -15 -438 -31 -117 -79 -236 -152 -371 -183 -343
-194 -371 -194 -511 0 -93 1 -98 42 -180 24 -46 60 -104 82 -129 l39 -45 46
23 c55 26 96 28 141 6 46 -22 86 -74 168 -217 140 -247 216 -320 354 -336 37
-5 138 -27 223 -49 345 -89 623 -82 955 25 208 67 536 221 820 383 61 35 146
83 190 108 96 53 127 80 123 106 -9 59 -328 81 -803 56 -204 -11 -493 -37
-506 -46 -15 -9 61 198 111 304 87 183 132 225 281 266 98 27 163 117 214 296
49 173 100 240 182 240 17 0 38 9 48 20 18 19 18 28 6 121 -7 56 -11 102 -9
103 2 2 41 22 88 46 299 151 420 324 340 484 -27 52 -134 158 -186 183 l-31
15 47 87 c101 187 143 316 121 373 -25 66 -114 73 -329 23 -185 -42 -216 -43
-287 -5 -105 55 -206 134 -354 272 -162 153 -306 234 -486 276 -188 44 -505
55 -625 22z"/>
</g>
</svg>
