<?xml version="1.0" standalone="no"?>
<!DOCTYPE svg PUBLIC "-//W3C//DTD SVG 20010904//EN"
 "http://www.w3.org/TR/2001/REC-SVG-20010904/DTD/svg10.dtd">
<svg version="1.0" xmlns="http://www.w3.org/2000/svg"
 width="331.000000pt" height="403.000000pt" viewBox="0 0 331.000000 403.000000"
 preserveAspectRatio="xMidYMid meet">
<metadata>
Created by potrace 1.13, written by Peter Selinger 2001-2015
</metadata>
<g transform="translate(0.000000,403.000000) scale(0.100000,-0.100000)"
fill="#000000" stroke="none">
<path d="M1150 4011 c-245 -69 -571 -273 -835 -521 -45 -42 -106 -88 -140
-105 -72 -36 -175 -134 -175 -166 0 -38 39 -87 129 -162 231 -193 322 -322
372 -535 18 -75 21 -108 16 -237 -8 -235 -41 -336 -222 -675 -57 -107 -115
-230 -129 -272 -30 -89 -34 -187 -11 -264 16 -55 80 -161 127 -210 l29 -31 41
20 c22 11 59 20 82 20 81 0 119 -39 237 -243 131 -227 205 -299 329 -320 144
-25 133 -21 557 -194 239 -98 287 -109 473 -110 139 -1 166 2 264 27 184 48
359 122 601 255 199 109 223 137 168 203 -82 96 -399 221 -870 340 -151 38
-173 46 -173 63 0 11 20 61 44 111 81 166 185 244 336 253 95 5 195 -18 395
-94 182 -69 255 -87 321 -82 106 9 164 79 184 222 21 149 -4 267 -77 370 -21
30 -85 103 -143 163 -108 113 -155 180 -195 280 -41 104 -41 115 5 141 22 12
47 34 56 48 16 23 15 26 -2 45 -42 46 -130 76 -394 134 -394 86 -452 100 -575
137 -71 22 -163 55 -203 74 l-73 33 52 83 c29 46 62 100 75 120 26 41 135 187
174 233 67 79 194 192 278 247 55 37 92 68 92 78 0 20 -29 46 -102 93 -83 53
-124 93 -204 198 -40 53 -92 113 -115 133 -90 77 -219 104 -519 111 -188 4
-223 2 -280 -14z"/>
</g>
</svg>
