<?xml version="1.0" standalone="no"?>
<!DOCTYPE svg PUBLIC "-//W3C//DTD SVG 20010904//EN"
 "http://www.w3.org/TR/2001/REC-SVG-20010904/DTD/svg10.dtd">
<svg version="1.0" xmlns="http://www.w3.org/2000/svg"
 width="348.000000pt" height="403.000000pt" viewBox="0 0 348.000000 403.000000"
 preserveAspectRatio="xMidYMid meet">
<metadata>
Created by potrace 1.13, written by Peter Selinger 2001-2015
</metadata>
<g transform="translate(0.000000,403.000000) scale(0.100000,-0.100000)"
fill="#000000" stroke="none">
<path d="M1154 4011 c-243 -66 -574 -270 -829 -511 -44 -42 -118 -98 -163
-125 -92 -55 -162 -122 -162 -156 0 -38 40 -88 129 -162 221 -184 319 -320
370 -514 35 -132 30 -337 -13 -498 -35 -131 -62 -192 -186 -425 -60 -113 -120
-240 -134 -282 -46 -137 -31 -260 46 -381 49 -77 98 -129 112 -118 6 5 33 16
59 25 99 33 153 -6 261 -188 113 -191 130 -217 178 -265 68 -68 129 -98 224
-110 80 -10 127 -27 524 -191 210 -87 289 -105 465 -104 130 0 165 3 258 27
183 46 409 143 662 285 147 83 166 119 97 186 -47 45 -101 77 -212 123 -170
71 -382 137 -668 209 l-153 39 5 29 c10 48 93 214 140 280 102 142 255 262
436 342 55 24 202 78 327 119 126 42 261 92 301 112 88 43 163 108 211 183 32
50 35 63 39 143 10 195 -55 254 -365 332 -196 49 -282 86 -337 143 -37 37 -86
127 -86 156 0 9 25 26 60 42 33 15 59 29 57 31 -2 2 -83 -17 -180 -42 -386
-100 -701 -112 -882 -35 l-45 19 61 98 c177 285 335 464 517 584 58 39 92 68
92 80 0 18 -40 52 -120 104 -67 42 -140 119 -204 212 -43 65 -121 132 -182
159 -87 38 -208 55 -434 60 -180 4 -214 2 -276 -15z"/>
</g>
</svg>
