<?xml version="1.0" standalone="no"?>
<!DOCTYPE svg PUBLIC "-//W3C//DTD SVG 20010904//EN"
 "http://www.w3.org/TR/2001/REC-SVG-20010904/DTD/svg10.dtd">
<svg version="1.0" xmlns="http://www.w3.org/2000/svg"
 width="331.000000pt" height="375.000000pt" viewBox="0 0 331.000000 375.000000"
 preserveAspectRatio="xMidYMid meet">
<metadata>
Created by potrace 1.13, written by Peter Selinger 2001-2015
</metadata>
<g transform="translate(0.000000,375.000000) scale(0.100000,-0.100000)"
fill="#000000" stroke="none">
<path d="M1130 3725 c-248 -75 -560 -273 -813 -515 -38 -36 -91 -78 -119 -93
-115 -64 -181 -123 -194 -172 -8 -33 24 -82 88 -136 256 -216 344 -331 400
-524 20 -70 23 -101 22 -250 0 -153 -3 -180 -27 -269 -37 -132 -69 -206 -189
-430 -122 -227 -158 -323 -158 -422 0 -39 7 -93 15 -120 16 -55 80 -161 127
-210 l29 -31 37 19 c28 14 52 18 95 16 82 -6 121 -45 212 -213 132 -245 252
-355 387 -355 15 0 58 -5 95 -11 79 -13 113 -4 140 38 15 22 19 56 24 178 6
167 18 209 73 247 22 16 49 24 96 26 58 4 77 -1 165 -36 55 -22 208 -91 340
-155 362 -173 549 -242 727 -268 86 -13 201 -7 258 12 49 17 117 65 125 89 34
107 -297 259 -887 408 -217 54 -204 34 -127 189 58 116 108 170 196 210 121
56 239 42 515 -60 207 -77 262 -91 333 -85 108 9 167 82 183 228 22 211 -19
315 -204 510 -119 126 -153 169 -187 235 -24 49 -57 146 -57 171 0 7 30 26 66
43 103 48 234 138 297 204 99 105 119 205 62 303 -28 48 -95 114 -158 157 -22
15 -42 29 -44 31 -2 1 28 65 66 141 107 212 124 307 64 355 -37 29 -118 26
-282 -11 -75 -17 -165 -32 -201 -32 -57 -2 -72 2 -123 32 -85 48 -201 137
-292 223 -296 279 -461 344 -895 354 -188 4 -198 3 -280 -21z"/>
</g>
</svg>
