<?xml version="1.0" standalone="no"?>
<!DOCTYPE svg PUBLIC "-//W3C//DTD SVG 20010904//EN"
 "http://www.w3.org/TR/2001/REC-SVG-20010904/DTD/svg10.dtd">
<svg version="1.0" xmlns="http://www.w3.org/2000/svg"
 width="331.000000pt" height="403.000000pt" viewBox="0 0 331.000000 403.000000"
 preserveAspectRatio="xMidYMid meet">
<metadata>
Created by potrace 1.13, written by Peter Selinger 2001-2015
</metadata>
<g transform="translate(0.000000,403.000000) scale(0.100000,-0.100000)"
fill="#000000" stroke="none">
<path d="M1130 4005 c-247 -75 -565 -276 -815 -516 -38 -37 -92 -79 -118 -93
-124 -68 -197 -134 -197 -179 0 -36 41 -87 129 -160 218 -182 308 -304 363
-494 20 -67 23 -101 23 -243 0 -251 -32 -354 -215 -700 -60 -113 -120 -240
-134 -282 -30 -89 -34 -187 -11 -265 26 -87 152 -262 169 -234 4 6 30 17 58
26 73 21 115 8 170 -54 24 -27 57 -73 74 -102 158 -274 198 -326 291 -373 28
-14 78 -28 110 -32 75 -8 126 -24 303 -96 501 -206 488 -202 705 -202 141 1
172 4 258 27 148 39 255 81 432 168 294 144 415 227 415 283 0 47 -104 103
-227 122 -24 4 -43 8 -43 10 0 15 100 285 126 340 55 113 85 134 140 98 41
-27 67 -7 113 88 47 98 65 214 50 330 -15 124 -53 187 -213 356 -145 153 -209
256 -231 374 l-7 35 67 31 c104 49 232 137 296 205 98 103 120 197 69 296 -24
49 -110 134 -167 168 -24 14 -43 27 -43 30 0 3 22 46 49 96 76 141 113 243
115 310 1 53 -2 61 -27 83 -39 34 -113 32 -290 -7 -78 -17 -169 -32 -202 -32
-53 -1 -68 4 -130 40 -96 56 -164 109 -272 208 -126 118 -168 152 -243 200
-177 114 -338 153 -660 161 -188 4 -198 3 -280 -21z"/>
</g>
</svg>
