<?xml version="1.0" standalone="no"?>
<!DOCTYPE svg PUBLIC "-//W3C//DTD SVG 20010904//EN"
 "http://www.w3.org/TR/2001/REC-SVG-20010904/DTD/svg10.dtd">
<svg version="1.0" xmlns="http://www.w3.org/2000/svg"
 width="351.000000pt" height="403.000000pt" viewBox="0 0 351.000000 403.000000"
 preserveAspectRatio="xMidYMid meet">
<metadata>
Created by potrace 1.13, written by Peter Selinger 2001-2015
</metadata>
<g transform="translate(0.000000,403.000000) scale(0.100000,-0.100000)"
fill="#000000" stroke="none">
<path d="M1335 4006 c-252 -75 -561 -269 -810 -507 -38 -37 -110 -94 -160
-127 -153 -100 -280 -254 -337 -407 -18 -51 -22 -81 -22 -195 -1 -132 0 -137
31 -203 35 -73 73 -125 107 -144 11 -7 17 -13 11 -13 -18 -1 98 -70 151 -89
84 -32 201 -44 309 -32 52 6 96 11 99 11 2 0 9 -23 15 -50 21 -99 90 -211 301
-487 128 -167 170 -246 170 -317 -2 -121 -187 -185 -540 -186 -201 0 -282 -32
-259 -99 6 -16 20 -38 33 -50 21 -20 25 -21 59 -6 107 44 192 -20 283 -214
158 -334 210 -427 284 -497 55 -54 111 -81 191 -93 80 -12 122 -27 390 -139
118 -49 251 -101 295 -115 214 -68 440 -60 685 24 219 75 631 287 659 340 59
108 -291 272 -910 425 -85 21 -156 39 -158 40 -1 1 9 32 23 69 52 140 131 237
233 287 41 20 62 23 157 23 119 -1 123 -2 475 -131 89 -32 117 -38 186 -39 70
0 85 3 117 25 75 50 116 204 96 361 -15 125 -53 188 -213 357 -145 153 -209
256 -231 374 l-7 35 67 31 c179 84 338 220 376 322 44 117 -12 234 -161 335
-30 20 -57 38 -58 40 -2 2 19 45 46 97 77 142 114 243 116 311 1 53 -2 61 -27
83 -39 34 -113 32 -290 -7 -198 -44 -245 -43 -327 5 -69 40 -153 101 -209 151
-62 55 -86 76 -130 118 -122 114 -285 214 -411 250 -116 34 -237 49 -430 53
-183 4 -200 3 -275 -20z"/>
</g>
</svg>
