<?xml version="1.0" standalone="no"?>
<!DOCTYPE svg PUBLIC "-//W3C//DTD SVG 20010904//EN"
 "http://www.w3.org/TR/2001/REC-SVG-20010904/DTD/svg10.dtd">
<svg version="1.0" xmlns="http://www.w3.org/2000/svg"
 width="331.000000pt" height="431.000000pt" viewBox="0 0 331.000000 431.000000"
 preserveAspectRatio="xMidYMid meet">
<metadata>
Created by potrace 1.13, written by Peter Selinger 2001-2015
</metadata>
<g transform="translate(0.000000,431.000000) scale(0.100000,-0.100000)"
fill="#000000" stroke="none">
<path d="M1857 4303 c-3 -5 -10 -34 -17 -66 -28 -138 -133 -183 -460 -196
-181 -7 -202 -10 -287 -39 -130 -44 -271 -118 -425 -221 -73 -49 -142 -98
-153 -108 -11 -10 -45 -38 -75 -63 -30 -24 -87 -75 -126 -113 -40 -38 -95 -81
-124 -96 -81 -43 -159 -107 -177 -147 -17 -34 -17 -37 2 -72 11 -20 54 -65 95
-100 205 -176 289 -277 349 -418 49 -114 64 -216 58 -378 -8 -225 -44 -335
-218 -665 -122 -230 -159 -329 -159 -426 0 -108 51 -227 141 -329 l30 -35 32
19 c49 28 98 34 140 16 58 -24 103 -80 192 -241 122 -222 215 -306 356 -320
78 -8 137 -28 349 -117 367 -155 479 -188 646 -188 197 0 427 67 704 204 272
135 360 193 360 236 0 94 -309 236 -795 365 -227 60 -277 74 -281 78 -5 5 17
61 59 147 19 40 54 89 92 126 76 78 140 104 254 104 97 0 181 -21 389 -99 192
-72 280 -91 341 -73 90 27 136 99 149 233 13 120 0 209 -42 294 -38 76 -50 92
-165 210 -101 104 -143 158 -176 225 -30 59 -65 155 -65 176 0 8 32 30 70 49
170 86 304 194 355 287 40 73 42 153 3 218 -29 51 -102 122 -166 165 -23 15
-42 29 -42 30 0 1 18 40 40 87 49 105 70 190 70 289 0 144 -58 267 -184 386
-139 133 -300 221 -659 364 -109 43 -218 90 -240 103 -75 45 -201 106 -218
106 -10 0 -20 -3 -22 -7z"/>
</g>
</svg>
