<?xml version="1.0" standalone="no"?>
<!DOCTYPE svg PUBLIC "-//W3C//DTD SVG 20010904//EN"
 "http://www.w3.org/TR/2001/REC-SVG-20010904/DTD/svg10.dtd">
<svg version="1.0" xmlns="http://www.w3.org/2000/svg"
 width="256.000000pt" height="256.000000pt" viewBox="0 0 256.000000 256.000000"
 preserveAspectRatio="xMidYMid meet">
<metadata>
Created by potrace 1.13, written by Peter Selinger 2001-2015
</metadata>
<g transform="translate(0.000000,256.000000) scale(0.100000,-0.100000)"
fill="#000000" stroke="none">
<path d="M1117 2390 c-60 -15 -134 -57 -181 -103 l-44 -42 -118 3 c-129 4
-173 -4 -269 -51 -71 -34 -222 -184 -255 -253 -12 -24 -26 -46 -31 -49 -4 -3
-14 -25 -21 -48 -6 -23 -17 -51 -24 -62 -7 -11 -15 -34 -18 -50 -6 -26 -2 -33
23 -48 17 -10 47 -38 68 -63 32 -40 38 -44 44 -27 4 10 8 41 9 68 0 28 7 59
15 69 8 11 15 27 15 36 0 9 11 31 25 50 14 19 25 41 25 51 0 25 148 171 200
198 36 19 66 25 148 28 l102 5 0 -30 c0 -27 -4 -31 -46 -41 -26 -7 -63 -20
-83 -31 -43 -22 -122 -103 -143 -145 -8 -16 -39 -68 -68 -115 -58 -93 -65
-121 -90 -375 -13 -127 -30 -194 -71 -283 -17 -35 -33 -77 -36 -93 -3 -16 -9
-32 -13 -34 -11 -7 0 -42 25 -82 16 -28 25 -33 57 -33 31 0 38 4 38 19 0 11 4
23 10 26 5 3 14 25 21 47 6 23 22 65 36 92 33 68 70 202 78 284 19 200 37 296
63 341 51 89 110 176 133 198 47 43 120 57 138 26 8 -14 3 -25 -24 -53 -64
-66 -140 -219 -154 -310 -16 -95 -13 -275 5 -393 22 -147 13 -225 -36 -297
-20 -30 -45 -71 -55 -90 -17 -33 -17 -35 0 -45 10 -5 38 -25 62 -42 24 -18 45
-33 47 -33 2 0 9 15 15 32 7 18 34 67 61 108 44 67 51 86 62 158 9 70 8 105
-7 224 -23 181 -17 365 14 430 60 125 115 193 146 182 20 -8 19 -19 -7 -111
-29 -102 -32 -295 -6 -334 43 -66 42 -498 -1 -623 -37 -105 -31 -116 69 -116
l57 0 7 41 c4 23 13 54 22 71 22 43 37 361 24 498 -13 125 -18 147 -38 179
-11 19 -13 44 -9 112 6 88 33 209 47 209 24 0 69 -74 86 -141 16 -64 19 -108
17 -329 0 -140 -4 -331 -7 -425 -4 -102 -3 -176 3 -184 8 -12 16 -13 49 -3 22
7 52 12 68 12 l29 0 3 158 c1 86 3 283 5 437 2 267 1 284 -22 365 -13 47 -29
97 -37 112 -20 38 -18 44 16 58 27 11 32 10 61 -15 58 -48 88 -102 121 -212
31 -107 31 -110 29 -311 -2 -178 1 -213 19 -278 11 -41 20 -83 20 -93 0 -10
10 -42 23 -70 l23 -52 56 55 c45 43 56 59 51 78 -3 12 -14 55 -24 95 -17 61
-19 100 -17 275 l2 203 -41 142 c-43 148 -62 184 -145 261 -30 29 -35 38 -25
53 10 16 14 16 38 3 15 -7 37 -29 49 -49 12 -19 50 -69 84 -110 57 -69 65 -84
89 -173 14 -53 29 -125 33 -158 8 -77 76 -321 89 -324 6 -2 22 41 37 94 14 53
31 103 37 110 7 8 7 24 1 47 -4 19 -11 59 -15 89 -11 93 -65 283 -93 325 -14
22 -49 69 -79 105 -29 36 -67 85 -85 110 -21 28 -51 54 -81 68 -37 18 -47 27
-47 47 0 34 17 32 103 -10 39 -19 77 -35 85 -35 24 0 226 -211 249 -260 24
-51 48 -134 57 -199 4 -24 9 -48 13 -54 7 -11 123 111 123 130 0 30 -40 152
-66 203 -19 36 -72 98 -155 182 -105 105 -134 128 -170 138 -24 6 -62 22 -84
35 -45 25 -140 55 -179 55 -17 0 -41 16 -76 51 -73 73 -159 110 -263 115 -45
2 -99 -1 -120 -6z"/>
</g>
</svg>
