<?xml version="1.0" standalone="no"?>
<!DOCTYPE svg PUBLIC "-//W3C//DTD SVG 20010904//EN"
 "http://www.w3.org/TR/2001/REC-SVG-20010904/DTD/svg10.dtd">
<svg version="1.0" xmlns="http://www.w3.org/2000/svg"
 width="256.000000pt" height="256.000000pt" viewBox="0 0 256.000000 256.000000"
 preserveAspectRatio="xMidYMid meet">
<metadata>
Created by potrace 1.13, written by Peter Selinger 2001-2015
</metadata>
<g transform="translate(0.000000,256.000000) scale(0.100000,-0.100000)"
fill="#000000" stroke="none">
<path d="M1117 2390 c-60 -15 -134 -57 -181 -103 l-44 -42 -118 3 c-129 4
-173 -4 -269 -51 -71 -34 -222 -184 -255 -253 -12 -24 -26 -46 -31 -49 -4 -3
-14 -25 -21 -48 -6 -23 -18 -51 -24 -62 -13 -21 -16 -34 -35 -200 -6 -55 -19
-118 -29 -140 -10 -22 -24 -63 -31 -92 -11 -45 -10 -54 4 -77 22 -33 63 -43
96 -25 18 10 32 33 46 74 11 33 26 70 33 82 13 24 41 201 42 268 0 22 7 49 15
59 8 11 15 27 15 36 0 9 11 31 25 50 14 19 25 41 25 51 0 25 148 171 200 198
36 19 66 25 148 28 l102 5 0 -30 c0 -27 -4 -31 -46 -41 -26 -7 -63 -20 -83
-31 -43 -22 -122 -103 -143 -145 -8 -16 -39 -68 -68 -115 -58 -93 -65 -121
-90 -375 -13 -125 -30 -194 -70 -280 -15 -33 -30 -71 -34 -85 -8 -26 -22 -60
-53 -124 -18 -38 -70 -97 -131 -147 -21 -18 -32 -36 -32 -53 0 -33 41 -76 71
-76 59 0 184 118 229 215 12 28 28 61 35 75 7 14 15 38 19 53 4 16 18 52 32
80 34 69 71 203 79 285 19 200 37 296 63 341 51 89 110 176 133 198 47 43 120
57 138 26 8 -14 3 -25 -24 -53 -64 -66 -140 -219 -154 -310 -16 -95 -13 -275
5 -393 22 -150 13 -225 -39 -301 -22 -33 -61 -108 -87 -167 -35 -82 -59 -121
-98 -163 -59 -63 -66 -93 -27 -131 41 -42 71 -34 145 42 56 58 71 83 108 173
24 58 66 139 93 181 43 65 50 85 61 157 9 70 8 105 -7 224 -23 181 -17 365 14
430 60 125 115 193 146 182 20 -8 19 -19 -7 -111 -29 -102 -32 -295 -6 -334
43 -66 42 -498 -1 -623 -12 -33 -21 -70 -21 -82 0 -13 -4 -43 -10 -66 -49
-214 -48 -201 -15 -233 28 -29 64 -32 94 -8 23 20 50 109 71 233 6 41 18 95
27 120 27 83 33 144 35 345 2 208 -10 321 -39 364 -13 20 -15 42 -10 112 6 88
33 209 47 209 24 0 69 -74 86 -141 16 -64 19 -109 18 -329 -1 -140 -5 -315 -9
-389 -14 -254 26 -507 86 -540 33 -18 74 -8 96 25 16 24 16 30 0 88 -26 96
-40 279 -32 417 4 68 8 248 9 399 1 261 0 279 -23 360 -13 47 -29 97 -37 112
-20 38 -18 44 16 58 27 11 32 10 61 -15 58 -48 88 -102 121 -212 31 -107 31
-110 29 -311 -2 -178 1 -213 19 -278 11 -41 20 -82 20 -91 0 -23 48 -149 84
-223 28 -59 130 -160 161 -160 33 0 75 41 75 74 0 23 -56 104 -93 135 -10 7
-17 21 -17 30 0 9 -6 25 -13 36 -14 22 -35 87 -67 207 -18 67 -20 101 -18 280
l2 203 -41 142 c-43 148 -62 184 -145 261 -30 29 -35 38 -25 53 10 16 14 16
38 3 15 -7 37 -29 49 -49 12 -19 50 -69 84 -110 57 -69 65 -84 89 -173 14 -53
29 -124 32 -157 8 -69 80 -336 103 -380 57 -114 165 -235 208 -235 31 0 74 42
74 72 0 24 -45 98 -59 98 -5 0 -28 30 -52 66 -32 50 -51 97 -79 197 -20 73
-40 159 -44 192 -12 97 -65 287 -94 330 -14 22 -49 69 -79 105 -29 36 -67 85
-85 110 -21 28 -51 54 -81 68 -37 18 -47 27 -47 47 0 34 17 32 103 -10 39 -19
77 -35 85 -35 24 0 226 -211 249 -260 23 -50 48 -133 57 -195 12 -82 38 -145
95 -232 87 -133 134 -161 186 -108 33 32 31 67 -4 107 -58 67 -110 159 -121
216 -52 259 -77 309 -241 474 -105 105 -134 128 -170 138 -24 6 -62 22 -84 35
-45 25 -140 55 -179 55 -17 0 -41 16 -76 51 -73 73 -159 110 -263 115 -45 2
-99 -1 -120 -6z"/>
</g>
</svg>
