<?xml version="1.0" standalone="no"?>
<!DOCTYPE svg PUBLIC "-//W3C//DTD SVG 20010904//EN"
 "http://www.w3.org/TR/2001/REC-SVG-20010904/DTD/svg10.dtd">
<svg version="1.0" xmlns="http://www.w3.org/2000/svg"
 width="256.000000pt" height="256.000000pt" viewBox="0 0 256.000000 256.000000"
 preserveAspectRatio="xMidYMid meet">
<metadata>
Created by potrace 1.13, written by Peter Selinger 2001-2015
</metadata>
<g transform="translate(0.000000,256.000000) scale(0.100000,-0.100000)"
fill="#000000" stroke="none">
<path d="M1743 2221 c-36 -11 -77 -31 -98 -49 -20 -18 -40 -32 -46 -32 -5 0
-32 -21 -60 -47 -57 -53 -115 -145 -136 -215 l-14 -48 -58 0 c-56 0 -59 1 -84
38 -67 100 -209 214 -336 269 -168 73 -385 72 -528 -1 -36 -19 -71 -22 -130
-11 -37 6 -45 4 -67 -18 -53 -53 -24 -109 68 -133 55 -14 65 -14 120 1 34 9
70 22 81 29 73 45 278 48 375 6 94 -42 183 -101 238 -159 51 -55 61 -71 43
-71 -6 0 -39 -22 -75 -49 l-65 -50 -48 40 c-63 52 -95 61 -238 66 -120 5 -121
5 -190 -28 -69 -32 -83 -44 -246 -216 -32 -35 -47 -43 -75 -43 -24 0 -43 -8
-59 -25 -52 -51 -13 -125 66 -125 81 0 146 46 277 198 60 70 112 92 211 92
108 0 129 -6 180 -49 l44 -37 -17 -51 c-9 -28 -20 -79 -24 -114 l-7 -63 -59
-17 c-47 -14 -70 -29 -113 -73 -73 -74 -93 -142 -93 -309 0 -76 -5 -129 -14
-150 -23 -56 -153 -178 -231 -217 -81 -40 -100 -72 -74 -118 24 -43 58 -49
121 -22 81 35 136 75 217 159 110 114 124 151 131 337 5 146 6 152 34 193 31
44 44 54 87 64 23 6 28 2 45 -36 10 -23 40 -70 67 -105 l47 -63 -19 -26 c-56
-71 -77 -215 -47 -326 39 -145 41 -214 9 -263 -19 -30 -95 -65 -160 -73 -88
-12 -121 -73 -68 -126 29 -30 76 -33 156 -9 180 53 269 187 239 358 -7 39 -19
96 -26 127 -26 108 -14 200 33 242 19 16 24 16 84 1 45 -12 86 -15 139 -11 70
6 78 4 120 -23 36 -23 48 -38 58 -73 12 -40 11 -50 -9 -108 -17 -49 -23 -94
-27 -192 -4 -126 -4 -129 23 -170 47 -72 162 -167 203 -167 31 0 72 43 72 75
0 26 -7 35 -98 117 l-52 47 0 87 c0 87 13 152 37 189 17 26 17 135 -1 160 -7
11 -16 32 -20 47 -3 15 -22 43 -41 62 l-34 34 33 25 c18 14 48 48 67 76 19 28
37 51 41 51 15 0 108 -100 108 -117 0 -10 8 -30 17 -43 13 -19 18 -54 23 -155
5 -127 6 -132 38 -182 43 -67 166 -184 223 -211 58 -28 84 -28 114 3 45 44 29
94 -40 126 -25 12 -75 53 -115 95 l-70 74 0 103 c0 94 -12 163 -38 213 -5 11
-18 37 -28 59 -19 41 -134 160 -163 170 -13 4 -16 23 -17 112 0 85 -5 119 -21
161 l-21 52 36 30 c31 26 45 30 95 30 108 0 185 -78 227 -230 28 -104 44 -131
114 -197 44 -41 66 -54 110 -64 48 -10 58 -10 80 5 53 34 41 111 -20 131 -17
6 -51 26 -75 46 -40 33 -46 44 -68 125 -27 103 -88 206 -148 250 -21 16 -53
41 -72 57 -33 28 -35 29 -141 25 -105 -3 -108 -4 -164 -41 l-56 -37 -58 42
c-31 23 -59 43 -60 44 -7 4 18 77 40 119 29 56 63 90 142 143 59 39 76 46 120
46 65 0 160 -29 211 -66 22 -16 64 -46 93 -68 29 -21 71 -41 93 -45 124 -21
214 61 144 131 -23 23 -31 25 -78 19 -50 -6 -54 -4 -99 33 -70 59 -137 98
-193 112 -27 7 -59 19 -70 27 -27 18 -117 15 -192 -6z"/>
</g>
</svg>
