<?xml version="1.0" standalone="no"?>
<!DOCTYPE svg PUBLIC "-//W3C//DTD SVG 20010904//EN"
 "http://www.w3.org/TR/2001/REC-SVG-20010904/DTD/svg10.dtd">
<svg version="1.0" xmlns="http://www.w3.org/2000/svg"
 width="256.000000pt" height="256.000000pt" viewBox="0 0 256.000000 256.000000"
 preserveAspectRatio="xMidYMid meet">
<metadata>
Created by potrace 1.13, written by Peter Selinger 2001-2015
</metadata>
<g transform="translate(0.000000,256.000000) scale(0.100000,-0.100000)"
fill="#000000" stroke="none">
<path d="M1105 2114 c-293 -31 -541 -103 -712 -206 -87 -52 -175 -139 -214
-210 -31 -57 -34 -71 -34 -143 0 -72 3 -86 34 -143 33 -61 121 -153 179 -188
l29 -16 -20 -57 c-28 -77 -41 -391 -17 -398 8 -2 39 -13 68 -25 29 -11 56 -17
60 -13 4 3 8 75 10 158 2 154 17 257 35 257 6 0 25 -5 42 -12 l32 -11 -13 -51
c-9 -33 -14 -108 -14 -208 0 -177 -8 -162 89 -177 39 -6 51 -5 56 6 3 8 5 85
6 171 1 192 5 208 45 204 16 -2 32 -7 36 -11 7 -6 1 -57 -25 -186 -6 -33 -11
-93 -12 -134 l0 -74 65 -18 c36 -10 68 -18 72 -19 3 0 8 42 11 93 3 50 11 119
17 152 7 33 15 80 18 105 8 49 20 56 76 46 l32 -6 -9 -53 c-5 -28 -11 -122
-14 -208 l-4 -157 48 -10 c26 -6 62 -13 78 -16 l30 -5 -4 136 c-2 79 2 162 9
197 6 34 13 71 16 84 4 20 10 22 68 22 62 0 64 -1 90 -38 14 -21 26 -50 26
-65 0 -15 13 -76 29 -135 16 -59 33 -131 36 -161 7 -53 7 -53 37 -47 17 3 51
6 75 6 l44 0 -6 57 c-4 32 -18 96 -31 143 -13 47 -29 113 -34 147 -6 34 -13
70 -16 80 -4 10 5 1 20 -19 14 -20 26 -43 26 -50 0 -8 8 -30 19 -50 18 -36 39
-113 63 -235 11 -59 14 -63 39 -63 16 0 31 4 34 10 3 5 24 14 46 20 32 9 39
15 34 30 -3 10 -10 42 -15 72 -11 72 -44 186 -64 223 -9 17 -16 37 -16 45 0 9
-7 26 -16 38 -13 19 -13 22 0 22 19 0 61 -71 76 -130 7 -25 22 -65 35 -90 13
-25 33 -78 45 -118 l21 -73 32 7 c18 3 41 13 52 20 11 8 27 14 37 14 10 0 18
3 18 8 -1 23 -51 173 -68 202 -11 19 -26 55 -32 80 -7 25 -18 57 -26 73 -14
26 -14 27 10 27 25 0 66 -44 66 -72 0 -7 6 -22 13 -33 8 -11 22 -49 31 -85 10
-36 24 -74 31 -86 8 -12 17 -38 20 -58 8 -38 19 -53 29 -37 4 5 32 17 62 26
l56 16 -6 42 c-4 23 -13 51 -20 63 -8 11 -22 49 -31 85 -10 35 -24 74 -31 86
-8 12 -14 28 -14 35 0 7 -13 33 -29 57 l-29 44 71 34 c141 68 250 163 304 265
23 45 28 65 28 133 0 72 -3 86 -34 143 -39 71 -127 158 -214 210 -137 82 -353
154 -562 187 -96 15 -447 28 -530 19z"/>
</g>
</svg>
