<?xml version="1.0" standalone="no"?>
<!DOCTYPE svg PUBLIC "-//W3C//DTD SVG 20010904//EN"
 "http://www.w3.org/TR/2001/REC-SVG-20010904/DTD/svg10.dtd">
<svg version="1.0" xmlns="http://www.w3.org/2000/svg"
 width="256.000000pt" height="256.000000pt" viewBox="0 0 256.000000 256.000000"
 preserveAspectRatio="xMidYMid meet">
<metadata>
Created by potrace 1.13, written by Peter Selinger 2001-2015
</metadata>
<g transform="translate(0.000000,256.000000) scale(0.100000,-0.100000)"
fill="#000000" stroke="none">
<path d="M1137 2380 c-307 -49 -570 -247 -684 -515 -55 -129 -66 -317 -27
-460 18 -67 73 -183 110 -232 l25 -32 -34 -14 c-50 -21 -135 -134 -158 -210
-20 -67 -24 -147 -10 -193 6 -16 19 -62 31 -102 16 -54 25 -72 38 -72 10 0 26
-6 37 -13 11 -8 29 -16 40 -19 11 -3 28 -9 37 -13 27 -11 23 42 -12 165 -43
149 -39 195 22 275 29 38 105 91 116 80 2 -2 -12 -18 -32 -35 -72 -64 -86
-212 -39 -398 15 -59 28 -108 28 -108 0 -1 34 -5 76 -9 l76 -7 -8 48 c-4 27
-17 80 -28 119 -13 44 -21 99 -21 148 0 75 1 80 31 108 17 16 42 29 55 29 24
0 32 -14 15 -25 -16 -9 -41 -110 -41 -162 0 -26 11 -84 25 -128 14 -44 25 -92
25 -107 0 -31 7 -33 103 -42 l57 -5 -6 42 c-3 23 -17 82 -31 131 -30 107 -27
180 9 207 33 26 51 14 33 -21 -23 -44 -18 -125 11 -205 14 -38 31 -89 37 -112
l12 -43 74 0 74 0 -6 43 c-3 24 -20 77 -37 119 -32 82 -36 114 -19 162 l11 31
128 0 128 0 11 -36 c15 -50 14 -58 -14 -145 -14 -42 -25 -97 -25 -121 l0 -45
48 6 c102 14 99 13 106 64 3 26 16 65 27 87 18 33 20 50 16 105 -3 36 -9 76
-13 89 l-7 25 33 -24 33 -23 -6 -91 c-3 -58 -13 -111 -27 -145 -19 -49 -19
-53 -3 -46 10 4 52 17 93 29 l75 22 7 44 c3 25 7 86 7 135 1 81 -2 94 -24 127
-14 20 -25 39 -25 42 0 31 93 -62 119 -118 8 -19 14 -68 15 -122 l1 -91 35 17
c19 8 55 26 79 39 l43 23 -6 69 c-9 86 -43 166 -97 224 -42 46 -45 67 -6 57
75 -19 166 -129 193 -234 10 -38 20 -67 23 -65 4 2 33 16 66 31 33 16 61 30
63 31 2 2 -4 29 -13 61 -29 101 -109 214 -188 265 -46 30 -47 33 -32 53 188
262 205 557 47 830 -43 74 -159 197 -235 248 -82 56 -209 114 -302 138 -92 24
-295 34 -388 20z"/>
</g>
</svg>
