<?xml version="1.0" standalone="no"?>
<!DOCTYPE svg PUBLIC "-//W3C//DTD SVG 20010904//EN"
 "http://www.w3.org/TR/2001/REC-SVG-20010904/DTD/svg10.dtd">
<svg version="1.0" xmlns="http://www.w3.org/2000/svg"
 width="256.000000pt" height="256.000000pt" viewBox="0 0 256.000000 256.000000"
 preserveAspectRatio="xMidYMid meet">
<metadata>
Created by potrace 1.13, written by Peter Selinger 2001-2015
</metadata>
<g transform="translate(0.000000,256.000000) scale(0.100000,-0.100000)"
fill="#000000" stroke="none">
<path d="M1214 2461 c-178 -46 -332 -239 -394 -494 -24 -96 -36 -295 -23 -382
l9 -60 -82 0 c-79 0 -84 -1 -140 -40 -32 -22 -75 -64 -95 -93 l-37 -53 16 -38
c23 -50 78 -115 91 -107 6 4 16 28 23 54 8 32 25 59 56 90 l44 45 67 -6 c72
-6 101 -14 101 -28 0 -5 -8 -9 -18 -9 -10 0 -27 -7 -38 -15 -10 -8 -27 -15
-37 -15 -24 0 -110 -87 -135 -137 l-21 -40 42 -35 c24 -19 52 -38 65 -42 19
-6 24 -2 38 33 19 49 91 101 139 101 46 0 48 -8 9 -42 -43 -38 -73 -80 -84
-117 -8 -28 -6 -30 57 -61 67 -33 82 -31 83 11 0 23 42 58 78 65 36 7 41 -3
18 -39 -8 -12 -18 -39 -21 -59 -8 -43 0 -49 93 -65 l52 -10 0 32 c0 42 30 70
66 61 56 -14 113 -49 136 -82 l23 -35 72 3 c80 4 93 10 75 38 -7 11 -12 27
-12 36 0 9 -14 29 -32 45 -18 18 -27 34 -22 39 13 13 87 22 99 13 20 -14 55
-71 55 -87 0 -24 6 -21 66 39 l55 55 -18 31 c-23 40 -63 84 -83 91 -33 11 1
19 35 8 23 -8 45 -26 62 -51 14 -21 29 -39 33 -39 4 0 28 23 53 51 l47 52 -21
33 c-27 44 -72 81 -109 89 -54 12 -32 25 41 25 69 0 72 -1 110 -39 l38 -38 45
42 c24 24 50 45 57 48 20 7 -44 72 -106 108 -39 22 -62 29 -106 29 l-57 0 11
43 c6 23 11 114 11 202 0 131 -4 176 -22 247 -74 298 -251 493 -456 503 -39 3
-85 1 -102 -4z"/>
</g>
</svg>
