<?xml version="1.0" standalone="no"?>
<!DOCTYPE svg PUBLIC "-//W3C//DTD SVG 20010904//EN"
 "http://www.w3.org/TR/2001/REC-SVG-20010904/DTD/svg10.dtd">
<svg version="1.0" xmlns="http://www.w3.org/2000/svg"
 width="256.000000pt" height="256.000000pt" viewBox="0 0 256.000000 256.000000"
 preserveAspectRatio="xMidYMid meet">
<metadata>
Created by potrace 1.13, written by Peter Selinger 2001-2015
</metadata>
<g transform="translate(0.000000,256.000000) scale(0.100000,-0.100000)"
fill="#000000" stroke="none">
<path d="M1214 2461 c-178 -46 -332 -239 -394 -494 -24 -96 -36 -295 -23 -382
l9 -60 -81 0 c-78 0 -85 -2 -138 -38 -64 -42 -121 -113 -139 -172 -6 -22 -17
-49 -24 -60 -25 -42 -34 -124 -32 -285 3 -188 1 -193 -75 -242 -73 -47 -87
-89 -42 -133 34 -34 59 -31 131 16 64 42 114 104 130 164 4 17 8 113 8 215 1
154 4 189 18 210 9 14 19 40 23 59 4 20 25 51 52 79 l45 45 67 -6 c72 -6 101
-14 101 -28 0 -5 -8 -9 -18 -9 -10 0 -27 -7 -38 -15 -10 -8 -27 -15 -37 -15
-24 0 -110 -87 -135 -136 -55 -109 -67 -258 -32 -386 23 -83 26 -192 7 -256
-9 -30 -24 -50 -50 -67 -43 -30 -56 -68 -36 -104 22 -40 62 -49 106 -26 96 51
132 125 140 287 4 81 1 112 -17 180 -17 65 -21 100 -18 163 7 108 28 157 86
195 40 27 99 40 114 25 2 -3 -19 -29 -48 -59 -68 -70 -89 -134 -88 -266 1 -90
20 -187 43 -214 17 -20 34 -156 26 -210 -7 -59 -13 -71 -65 -131 -24 -27 -40
-56 -40 -71 0 -33 42 -74 76 -74 35 0 107 73 149 150 28 52 29 61 29 170 0
111 -18 203 -44 235 -5 7 -15 49 -22 94 -19 137 13 222 90 237 37 8 41 -3 15
-43 -15 -23 -18 -50 -18 -168 1 -128 3 -146 29 -215 16 -45 32 -114 38 -170
10 -92 9 -97 -15 -145 -62 -123 -62 -123 -51 -152 12 -35 52 -58 86 -50 38 10
88 61 88 90 0 13 12 50 26 82 25 55 26 62 19 169 -4 61 -14 127 -22 146 -39
89 -53 157 -53 251 0 84 3 98 20 114 20 18 22 18 77 0 106 -36 144 -96 151
-237 5 -96 4 -99 -32 -171 -32 -65 -36 -82 -36 -148 0 -82 18 -155 50 -199 11
-15 20 -35 20 -44 0 -26 46 -66 75 -66 14 0 37 11 52 26 22 22 24 31 19 67 -4
23 -19 60 -33 82 -19 29 -27 56 -31 106 -4 60 -1 73 29 135 34 68 34 70 34
209 0 117 -3 146 -18 168 -9 14 -17 34 -17 43 0 9 -14 29 -31 45 -36 33 -32
44 16 53 49 9 67 2 90 -36 48 -79 54 -151 29 -308 -9 -52 -18 -142 -20 -200
l-4 -105 44 -70 c49 -80 81 -99 124 -74 15 8 31 27 37 43 8 23 4 38 -24 90
-31 59 -33 68 -28 132 3 38 12 114 21 169 21 133 20 206 -3 287 -21 73 -90
183 -121 193 -11 3 -20 11 -20 16 0 12 10 11 49 -2 47 -17 88 -83 101 -164 6
-38 14 -73 18 -79 4 -6 9 -112 12 -236 6 -221 6 -226 33 -277 41 -78 87 -94
132 -48 30 29 31 58 5 110 -18 35 -20 59 -20 228 0 129 -5 208 -14 250 -8 34
-20 87 -27 117 -12 60 -75 166 -120 204 -16 14 -42 27 -59 31 -53 12 -32 25
39 25 61 0 73 -3 102 -27 46 -39 57 -76 69 -222 11 -150 14 -165 47 -245 29
-71 115 -201 138 -210 31 -12 56 -6 80 19 35 34 31 61 -18 135 -71 107 -85
152 -97 300 -14 194 -36 257 -109 323 -60 54 -112 77 -175 77 l-54 0 11 43 c6
23 11 114 11 202 0 131 -4 176 -22 247 -74 298 -251 493 -456 503 -39 3 -85 1
-102 -4z"/>
</g>
</svg>
