<?xml version="1.0" standalone="no"?>
<!DOCTYPE svg PUBLIC "-//W3C//DTD SVG 20010904//EN"
 "http://www.w3.org/TR/2001/REC-SVG-20010904/DTD/svg10.dtd">
<svg version="1.0" xmlns="http://www.w3.org/2000/svg"
 width="256.000000pt" height="256.000000pt" viewBox="0 0 256.000000 256.000000"
 preserveAspectRatio="xMidYMid meet">
<metadata>
Created by potrace 1.13, written by Peter Selinger 2001-2015
</metadata>
<g transform="translate(0.000000,256.000000) scale(0.100000,-0.100000)"
fill="#000000" stroke="none">
<path d="M1007 2052 c-31 -34 -51 -122 -27 -122 11 0 140 -130 140 -142 0 -4
-4 -8 -9 -8 -6 0 -39 -22 -75 -49 l-65 -50 -48 40 c-50 41 -86 56 -163 65 -66
9 -78 -9 -59 -84 14 -57 14 -57 59 -65 30 -6 60 -21 89 -46 l44 -37 -17 -51
c-9 -28 -20 -79 -24 -114 l-7 -63 -60 -18 c-49 -14 -69 -28 -116 -77 -88 -92
-92 -169 -8 -191 22 -6 46 -13 54 -16 8 -4 15 5 20 24 10 49 62 110 103 121
20 6 37 9 38 8 1 -1 13 -25 27 -53 14 -27 44 -74 67 -102 l41 -53 -20 -25
c-28 -36 -61 -128 -61 -171 0 -45 21 -62 76 -63 46 0 74 22 74 59 0 31 24 83
47 104 19 16 24 16 84 1 46 -12 86 -15 140 -11 71 6 78 4 119 -23 32 -21 47
-40 58 -72 19 -57 29 -68 64 -68 69 0 115 57 85 104 -8 11 -17 33 -21 48 -3
15 -22 43 -41 62 l-34 34 33 25 c18 14 48 48 67 76 19 28 37 51 42 51 4 0 33
-27 66 -59 70 -72 97 -82 140 -50 44 32 45 46 10 100 -27 43 -139 149 -157
149 -4 0 -7 48 -8 108 0 84 -5 118 -21 160 l-21 52 36 30 c29 24 46 30 82 30
39 0 51 5 78 33 38 39 39 55 10 92 -20 26 -24 27 -98 23 -69 -3 -82 -7 -134
-41 l-56 -37 -58 42 c-31 23 -58 43 -60 44 -14 9 54 160 83 184 26 21 17 49
-24 76 -61 40 -88 31 -133 -41 -20 -33 -44 -84 -53 -112 l-16 -53 -58 0 c-56
0 -59 1 -84 38 -37 55 -121 142 -169 174 -51 33 -50 33 -71 10z"/>
</g>
</svg>
