<?xml version="1.0" standalone="no"?>
<!DOCTYPE svg PUBLIC "-//W3C//DTD SVG 20010904//EN"
 "http://www.w3.org/TR/2001/REC-SVG-20010904/DTD/svg10.dtd">
<svg version="1.0" xmlns="http://www.w3.org/2000/svg"
 width="256.000000pt" height="256.000000pt" viewBox="0 0 256.000000 256.000000"
 preserveAspectRatio="xMidYMid meet">
<metadata>
Created by potrace 1.13, written by Peter Selinger 2001-2015
</metadata>
<g transform="translate(0.000000,256.000000) scale(0.100000,-0.100000)"
fill="#000000" stroke="none">
<path d="M1117 2390 c-60 -15 -134 -57 -181 -103 l-44 -42 -118 3 c-129 4
-174 -4 -269 -51 -62 -31 -114 -76 -191 -164 -45 -52 -45 -53 -33 -90 8 -21
19 -47 26 -58 7 -11 13 -29 13 -41 0 -12 3 -30 6 -39 5 -13 11 -9 30 17 13 17
24 39 24 49 0 25 148 171 200 198 36 19 66 25 148 28 l102 5 0 -30 c0 -27 -4
-31 -46 -41 -26 -7 -63 -20 -83 -31 -43 -22 -122 -103 -143 -145 -8 -16 -39
-68 -68 -115 -68 -108 -79 -167 -44 -220 13 -19 24 -39 24 -45 1 -5 18 -30 40
-54 l38 -44 6 34 c3 19 11 70 17 114 7 52 20 96 37 125 51 88 110 175 133 197
47 43 120 57 138 26 8 -14 3 -25 -24 -53 -19 -19 -48 -60 -65 -90 -86 -153
-100 -210 -100 -400 l0 -115 38 -30 c99 -82 138 -96 125 -48 -5 16 -8 107 -8
203 1 190 -1 183 70 310 31 56 80 101 100 94 20 -8 19 -19 -7 -111 -29 -102
-32 -295 -6 -334 14 -22 38 -187 38 -260 0 -19 33 -31 114 -43 l39 -5 -7 102
c-9 139 -24 227 -43 256 -13 20 -15 42 -10 112 5 86 33 209 46 209 22 0 66
-66 84 -127 17 -58 21 -105 24 -310 l5 -243 75 0 75 0 -4 248 c-4 220 -7 256
-27 327 -13 44 -30 92 -37 107 -20 38 -18 44 16 58 27 11 32 10 61 -15 58 -48
88 -102 121 -212 30 -103 31 -116 30 -266 l-2 -159 33 29 c17 16 54 51 81 78
l48 50 -6 90 c-4 57 -21 140 -45 227 -41 143 -61 179 -143 256 -30 29 -35 38
-25 53 10 16 14 16 38 3 15 -7 37 -29 49 -49 12 -19 50 -69 84 -110 57 -69 65
-84 89 -173 14 -53 29 -126 33 -161 l7 -65 27 33 c30 36 36 55 55 181 18 124
7 154 -112 301 -29 35 -67 84 -85 109 -21 28 -51 54 -81 68 -37 18 -47 27 -47
47 0 34 17 32 103 -10 39 -19 77 -35 85 -35 8 0 61 -47 119 -104 102 -102 104
-104 113 -80 6 14 10 31 10 37 0 7 6 21 13 32 35 51 30 60 -71 155 -70 66
-107 93 -136 101 -23 6 -59 21 -81 34 -45 25 -140 55 -179 55 -17 0 -41 16
-76 51 -73 73 -159 110 -263 115 -45 2 -99 -1 -120 -6z"/>
</g>
</svg>
