<?xml version="1.0" standalone="no"?>
<!DOCTYPE svg PUBLIC "-//W3C//DTD SVG 20010904//EN"
 "http://www.w3.org/TR/2001/REC-SVG-20010904/DTD/svg10.dtd">
<svg version="1.0" xmlns="http://www.w3.org/2000/svg"
 width="256.000000pt" height="256.000000pt" viewBox="0 0 256.000000 256.000000"
 preserveAspectRatio="xMidYMid meet">
<metadata>
Created by potrace 1.13, written by Peter Selinger 2001-2015
</metadata>
<g transform="translate(0.000000,256.000000) scale(0.100000,-0.100000)"
fill="#000000" stroke="none">
<path d="M1105 2114 c-293 -31 -541 -103 -712 -206 -87 -52 -175 -139 -214
-210 -31 -57 -34 -71 -34 -143 0 -72 3 -86 34 -143 33 -61 121 -153 179 -188
l29 -16 -20 -57 c-16 -44 -21 -99 -28 -261 -4 -113 -13 -225 -19 -250 -22 -86
-23 -100 -8 -100 8 0 40 -8 70 -18 l54 -18 13 35 c24 68 31 127 36 306 6 182
20 285 38 285 6 0 25 -5 43 -12 30 -11 31 -13 22 -42 -6 -17 -14 -121 -18
-231 -5 -110 -11 -243 -15 -296 l-8 -95 29 -11 c62 -22 115 -31 119 -19 6 20
17 208 24 413 3 114 11 207 16 212 7 7 22 7 40 2 25 -7 30 -13 28 -37 -2 -36
-22 -157 -34 -204 -5 -19 -9 -119 -9 -222 l0 -186 48 -10 c26 -6 61 -13 77
-16 l30 -5 0 207 c0 133 5 230 14 272 7 36 16 85 19 110 8 49 20 56 76 46 l32
-6 -8 -53 c-19 -119 -20 -156 -13 -380 l7 -233 37 -13 c20 -7 53 -15 75 -18
l39 -5 -8 265 c-5 190 -4 281 5 323 6 33 14 69 16 82 4 20 10 22 68 22 62 0
64 -1 90 -38 14 -21 26 -50 26 -65 0 -15 15 -78 32 -140 31 -106 33 -121 33
-274 l0 -162 30 6 c17 3 38 10 47 14 9 5 26 9 37 9 37 0 44 34 38 184 -5 110
-12 160 -32 226 -14 47 -30 113 -35 147 -6 34 -13 70 -16 80 -4 10 5 1 20 -19
14 -20 26 -43 26 -50 0 -8 8 -30 19 -50 17 -34 34 -96 60 -223 6 -27 14 -96
17 -152 4 -57 7 -103 8 -103 1 0 19 7 41 15 22 8 55 14 74 15 l34 0 -7 93
c-10 143 -53 341 -88 407 -10 19 -18 42 -18 50 0 9 -7 26 -16 38 -13 19 -13
22 0 22 19 0 61 -71 76 -130 7 -25 22 -65 35 -90 23 -45 58 -145 97 -275 11
-38 21 -71 23 -73 1 -1 15 4 31 12 16 8 46 22 66 32 42 20 42 23 6 124 -10 30
-30 89 -42 130 -13 41 -33 91 -44 110 -11 19 -26 55 -32 80 -7 25 -18 57 -26
73 -14 26 -14 27 10 27 25 0 66 -44 66 -72 0 -7 6 -22 13 -33 8 -11 22 -49 31
-85 10 -36 24 -74 31 -85 7 -11 16 -36 20 -55 9 -43 62 -130 79 -130 7 0 21 9
31 20 10 12 34 30 52 41 l33 21 -24 31 c-13 18 -27 48 -31 67 -4 19 -13 44
-20 56 -7 11 -21 49 -30 85 -10 35 -24 74 -31 86 -8 12 -14 28 -14 35 0 7 -13
33 -29 57 l-29 44 71 34 c141 68 250 163 304 265 23 45 28 65 28 133 0 72 -3
86 -34 143 -39 71 -127 158 -214 210 -137 82 -353 154 -562 187 -96 15 -447
28 -530 19z"/>
</g>
</svg>
