<?xml version="1.0" standalone="no"?>
<!DOCTYPE svg PUBLIC "-//W3C//DTD SVG 20010904//EN"
 "http://www.w3.org/TR/2001/REC-SVG-20010904/DTD/svg10.dtd">
<svg version="1.0" xmlns="http://www.w3.org/2000/svg"
 width="256.000000pt" height="256.000000pt" viewBox="0 0 256.000000 256.000000"
 preserveAspectRatio="xMidYMid meet">
<metadata>
Created by potrace 1.13, written by Peter Selinger 2001-2015
</metadata>
<g transform="translate(0.000000,256.000000) scale(0.100000,-0.100000)"
fill="#000000" stroke="none">
<path d="M1117 2390 c-60 -15 -134 -57 -181 -103 l-44 -42 -119 3 c-84 3 -134
-1 -169 -11 l-49 -14 3 -79 c2 -44 5 -81 8 -83 2 -2 16 5 31 15 21 14 52 19
131 22 l102 4 0 -30 c0 -27 -4 -31 -47 -41 -25 -7 -60 -19 -77 -28 -41 -20
-126 -103 -126 -123 0 -20 37 -89 63 -118 l21 -22 27 42 c14 24 37 53 50 65
48 43 121 57 138 25 8 -15 4 -25 -23 -51 -19 -18 -42 -49 -52 -69 -11 -21 -27
-49 -37 -64 -17 -26 -17 -27 15 -49 18 -12 45 -33 59 -46 l26 -24 32 49 c17
27 31 54 31 59 0 19 69 73 85 67 19 -8 19 -19 -4 -106 -31 -118 -32 -142 -9
-157 11 -7 44 -15 73 -18 l53 -6 7 49 c9 67 36 164 45 164 24 0 69 -73 85
-139 l17 -71 69 0 c49 0 71 4 75 13 6 16 -32 159 -52 199 -20 38 -18 44 16 58
27 11 32 10 61 -15 45 -37 85 -96 99 -142 l12 -40 34 33 c19 20 39 55 48 84
l15 51 -35 47 c-20 26 -49 57 -65 70 -24 20 -27 26 -17 42 11 16 15 17 38 5
14 -7 43 -39 63 -70 36 -53 57 -63 57 -27 0 10 9 34 19 55 33 65 33 80 -1 121
-17 21 -51 46 -75 57 -34 15 -43 23 -43 44 0 34 17 32 103 -10 39 -19 76 -35
83 -35 7 0 18 25 24 57 7 32 14 62 17 69 8 22 -185 104 -249 104 -19 0 -42 15
-78 51 -73 73 -159 110 -263 115 -45 2 -99 -1 -120 -6z"/>
</g>
</svg>
