<?xml version="1.0" standalone="no"?>
<!DOCTYPE svg PUBLIC "-//W3C//DTD SVG 20010904//EN"
 "http://www.w3.org/TR/2001/REC-SVG-20010904/DTD/svg10.dtd">
<svg version="1.0" xmlns="http://www.w3.org/2000/svg"
 width="256.000000pt" height="256.000000pt" viewBox="0 0 256.000000 256.000000"
 preserveAspectRatio="xMidYMid meet">
<metadata>
Created by potrace 1.13, written by Peter Selinger 2001-2015
</metadata>
<g transform="translate(0.000000,256.000000) scale(0.100000,-0.100000)"
fill="#000000" stroke="none">
<path d="M1743 2221 c-36 -11 -77 -31 -98 -49 -20 -18 -40 -32 -46 -32 -5 0
-32 -21 -60 -47 -57 -53 -115 -145 -136 -215 l-14 -48 -58 0 c-56 0 -59 1 -84
38 -48 72 -133 151 -216 202 -95 58 -130 74 -216 101 -80 25 -89 24 -141 -12
-43 -29 -45 -33 -42 -72 l3 -42 70 -6 c118 -11 270 -90 363 -188 51 -55 61
-71 43 -71 -6 0 -39 -22 -75 -49 l-65 -50 -48 40 c-63 52 -95 61 -238 66 -105
4 -126 2 -165 -16 -41 -18 -45 -24 -62 -83 -22 -76 -23 -114 -4 -121 8 -3 22
3 31 13 35 39 100 60 184 60 108 0 129 -6 180 -49 l44 -37 -17 -51 c-9 -28
-20 -79 -24 -114 l-7 -63 -59 -17 c-47 -14 -70 -29 -113 -73 -72 -74 -93 -143
-93 -304 0 -158 15 -177 141 -177 1 0 4 70 8 156 6 151 7 157 35 198 31 44 44
54 87 64 23 6 28 2 45 -36 10 -23 40 -70 67 -105 l47 -63 -19 -26 c-58 -73
-77 -212 -45 -336 8 -34 19 -75 23 -91 10 -43 59 -55 107 -26 40 25 43 50 19
140 -28 104 -15 201 32 243 19 16 24 16 84 1 45 -12 86 -15 139 -11 70 6 78 4
120 -23 36 -23 48 -38 58 -73 12 -39 11 -51 -8 -111 -12 -37 -23 -82 -24 -99
-1 -30 1 -32 48 -38 70 -11 90 0 106 58 7 26 19 57 27 68 17 26 17 135 -1 160
-7 11 -16 32 -20 47 -3 15 -22 43 -41 62 l-34 34 33 25 c18 14 48 48 67 76 19
28 37 51 41 51 15 0 108 -100 108 -117 0 -10 8 -29 17 -43 12 -17 18 -51 21
-110 4 -84 5 -85 39 -107 42 -28 45 -28 70 -1 23 27 43 91 43 139 0 34 -20
110 -38 145 -5 11 -18 37 -28 59 -19 41 -134 160 -163 170 -13 4 -16 23 -17
112 0 85 -5 119 -21 161 l-21 52 36 30 c31 26 45 30 95 30 49 0 66 -5 102 -30
46 -32 105 -107 105 -134 0 -23 66 -49 89 -35 21 14 51 65 51 87 0 28 -86 148
-127 178 -21 16 -53 41 -72 57 -33 28 -35 29 -141 25 -105 -3 -108 -4 -164
-41 l-56 -37 -58 42 c-31 23 -59 43 -60 44 -7 4 18 77 40 119 12 22 33 53 47
68 44 48 143 109 195 122 66 15 77 46 38 110 -15 25 -31 44 -37 44 -5 0 -38
-8 -72 -18z"/>
</g>
</svg>
