<?xml version="1.0" standalone="no"?>
<!DOCTYPE svg PUBLIC "-//W3C//DTD SVG 20010904//EN"
 "http://www.w3.org/TR/2001/REC-SVG-20010904/DTD/svg10.dtd">
<svg version="1.0" xmlns="http://www.w3.org/2000/svg"
 width="256.000000pt" height="256.000000pt" viewBox="0 0 256.000000 256.000000"
 preserveAspectRatio="xMidYMid meet">
<metadata>
Created by potrace 1.13, written by Peter Selinger 2001-2015
</metadata>
<g transform="translate(0.000000,256.000000) scale(0.100000,-0.100000)"
fill="#000000" stroke="none">
<path d="M1137 2380 c-307 -49 -570 -247 -684 -515 -55 -129 -66 -317 -27
-460 18 -67 73 -183 110 -232 l25 -32 -34 -14 c-50 -21 -135 -134 -158 -210
-26 -86 -24 -145 11 -262 32 -109 38 -188 16 -232 -8 -15 -20 -41 -28 -57 -13
-28 -103 -124 -167 -177 -20 -18 -31 -36 -31 -53 0 -33 41 -76 71 -76 31 0
105 50 159 107 48 50 120 151 120 168 0 6 9 28 20 50 30 59 27 156 -10 285
-43 149 -39 195 22 275 29 38 105 91 116 80 2 -2 -12 -18 -32 -35 -70 -62 -87
-217 -42 -385 33 -124 40 -179 26 -223 -17 -53 -45 -110 -80 -162 -36 -55 -38
-83 -5 -115 44 -45 82 -33 134 44 115 172 132 275 75 471 -16 57 -24 109 -24
163 0 75 1 80 31 108 17 16 42 29 55 29 24 0 32 -14 15 -25 -16 -9 -41 -110
-41 -162 0 -26 9 -77 20 -113 20 -61 28 -98 49 -222 11 -64 -1 -146 -29 -199
-26 -52 -25 -75 5 -104 55 -56 120 -12 156 107 35 115 28 221 -28 422 -30 107
-27 180 9 207 34 26 51 14 32 -24 -24 -46 -14 -144 24 -240 28 -68 32 -93 38
-212 5 -98 3 -151 -6 -190 -11 -48 -11 -57 4 -79 39 -61 111 -41 138 39 35
103 18 363 -31 487 -33 82 -37 114 -20 162 l11 31 128 0 128 0 11 -36 c15 -50
14 -58 -14 -145 -22 -67 -25 -94 -25 -217 0 -111 4 -154 20 -208 35 -116 100
-160 155 -104 31 30 31 52 3 107 -21 39 -23 56 -23 203 0 149 2 163 24 207 20
40 23 56 18 110 -3 35 -9 74 -13 87 l-7 25 33 -24 33 -23 -6 -91 c-3 -59 -13
-110 -27 -146 -19 -48 -21 -67 -16 -144 6 -84 9 -94 49 -155 58 -91 129 -161
162 -161 32 0 75 41 75 72 0 25 -45 98 -59 98 -5 0 -23 22 -40 48 -44 69 -52
150 -21 218 17 39 23 75 27 171 6 120 5 123 -21 163 -29 44 -31 50 -15 50 16
0 91 -87 108 -124 14 -32 16 -102 10 -332 -4 -135 -7 -127 85 -242 66 -82 115
-94 152 -36 25 37 11 87 -41 140 -53 56 -62 102 -44 224 25 173 -7 312 -92
405 -42 46 -45 67 -6 57 72 -18 165 -128 191 -226 10 -34 21 -112 25 -173 7
-89 14 -122 36 -169 61 -128 151 -234 201 -234 32 0 74 42 74 74 0 15 -18 46
-49 80 -78 90 -108 162 -114 281 -12 205 -94 375 -220 457 -46 29 -47 32 -32
52 188 262 205 557 47 830 -43 74 -159 197 -235 248 -82 56 -209 114 -302 138
-92 24 -295 34 -388 20z"/>
</g>
</svg>
