<?xml version="1.0" standalone="no"?>
<!DOCTYPE svg PUBLIC "-//W3C//DTD SVG 20010904//EN"
 "http://www.w3.org/TR/2001/REC-SVG-20010904/DTD/svg10.dtd">
<svg version="1.0" xmlns="http://www.w3.org/2000/svg"
 width="256.000000pt" height="256.000000pt" viewBox="0 0 256.000000 256.000000"
 preserveAspectRatio="xMidYMid meet">
<metadata>
Created by potrace 1.13, written by Peter Selinger 2001-2015
</metadata>
<g transform="translate(0.000000,256.000000) scale(0.100000,-0.100000)"
fill="#000000" stroke="none">
<path d="M1743 2221 c-36 -11 -77 -31 -98 -49 -20 -18 -40 -32 -46 -32 -5 0
-32 -21 -60 -47 -57 -53 -115 -145 -136 -215 l-14 -48 -58 0 c-56 0 -59 1 -84
38 -48 72 -133 151 -216 202 -155 94 -236 120 -380 120 -99 0 -208 -19 -237
-42 -19 -14 -26 -74 -14 -118 11 -42 23 -48 55 -27 68 46 277 50 375 7 94 -42
183 -101 238 -159 51 -55 61 -71 43 -71 -6 0 -39 -22 -75 -49 l-65 -50 -48 40
c-63 52 -95 61 -238 66 -120 5 -121 5 -190 -28 -47 -22 -92 -54 -138 -99 -62
-61 -67 -69 -67 -108 0 -32 7 -52 27 -78 16 -18 33 -34 40 -34 6 0 22 14 35
31 103 136 157 169 277 169 108 0 129 -6 180 -49 l44 -37 -17 -51 c-9 -28 -20
-79 -24 -114 l-7 -63 -59 -17 c-47 -14 -70 -29 -113 -73 -73 -74 -93 -142 -93
-309 0 -137 -8 -162 -74 -230 -25 -26 -46 -50 -46 -53 0 -4 23 -29 51 -56 l51
-49 55 58 c30 32 67 83 81 113 24 49 27 70 32 206 5 146 6 152 34 193 31 44
44 54 87 64 23 6 28 2 45 -36 10 -23 40 -70 67 -105 l47 -63 -19 -26 c-56 -71
-77 -215 -47 -326 51 -190 42 -258 -39 -301 -28 -15 -34 -24 -29 -40 9 -30 45
-105 53 -110 3 -2 32 11 63 30 66 40 110 103 128 183 13 56 7 117 -26 252 -26
108 -14 200 33 242 19 16 24 16 84 1 45 -12 86 -15 139 -11 70 6 78 4 120 -23
36 -23 48 -38 58 -73 12 -40 11 -50 -9 -108 -32 -92 -40 -314 -12 -345 15 -17
26 -21 61 -17 63 7 75 31 73 148 -2 93 10 161 36 200 17 26 17 135 -1 160 -7
11 -16 32 -20 47 -3 15 -22 43 -41 62 l-34 34 33 25 c18 14 48 48 67 76 19 28
37 51 41 51 15 0 108 -100 108 -117 0 -10 8 -30 17 -43 13 -19 18 -54 23 -155
5 -126 6 -132 37 -180 18 -28 51 -68 73 -90 l42 -40 30 35 c66 77 66 74 14
131 l-46 51 0 102 c0 93 -12 162 -38 212 -5 11 -18 37 -28 59 -19 41 -134 160
-163 170 -13 4 -16 23 -17 112 0 85 -5 119 -21 161 l-21 52 36 30 c31 26 45
30 95 30 108 0 185 -78 227 -230 13 -47 32 -99 42 -117 19 -32 73 -83 88 -83
10 0 39 60 46 100 4 17 2 41 -4 53 -6 12 -22 61 -36 109 -28 99 -84 191 -144
235 -20 15 -52 40 -71 56 -33 28 -35 29 -141 25 -105 -3 -108 -4 -164 -41
l-56 -37 -58 42 c-31 23 -59 43 -60 44 -7 4 18 77 40 119 29 56 63 90 142 143
59 39 76 46 120 46 28 0 78 -8 111 -19 58 -18 87 -35 185 -109 l45 -34 23 55
c23 55 23 56 5 91 -23 43 -118 109 -186 128 -29 8 -64 21 -79 29 -35 20 -118
18 -195 -4z"/>
</g>
</svg>
