<?xml version="1.0" standalone="no"?>
<!DOCTYPE svg PUBLIC "-//W3C//DTD SVG 20010904//EN"
 "http://www.w3.org/TR/2001/REC-SVG-20010904/DTD/svg10.dtd">
<svg version="1.0" xmlns="http://www.w3.org/2000/svg"
 width="256.000000pt" height="256.000000pt" viewBox="0 0 256.000000 256.000000"
 preserveAspectRatio="xMidYMid meet">
<metadata>
Created by potrace 1.13, written by Peter Selinger 2001-2015
</metadata>
<g transform="translate(0.000000,256.000000) scale(0.100000,-0.100000)"
fill="#000000" stroke="none">
<path d="M1214 2461 c-178 -46 -332 -239 -394 -494 -24 -96 -36 -295 -23 -382
l9 -60 -81 0 c-78 0 -85 -2 -138 -38 -64 -42 -121 -113 -139 -172 -6 -22 -17
-49 -24 -60 -26 -44 -37 -128 -31 -242 7 -151 0 -217 -27 -246 -28 -30 -24
-92 8 -132 l23 -29 36 23 c38 23 89 97 103 146 4 17 8 113 8 215 1 154 4 189
18 210 9 14 19 40 23 59 4 20 25 51 52 79 l45 45 67 -6 c72 -6 101 -14 101
-28 0 -5 -8 -9 -18 -9 -10 0 -27 -7 -38 -15 -10 -8 -27 -15 -37 -15 -24 0
-110 -87 -135 -136 -55 -109 -67 -258 -32 -386 37 -133 21 -281 -33 -317 l-27
-17 28 -26 c15 -14 49 -31 76 -38 47 -13 49 -12 67 11 31 40 51 119 56 221 4
81 1 112 -17 180 -17 65 -21 100 -18 163 7 108 28 157 86 195 40 27 99 40 114
25 2 -3 -19 -29 -48 -59 -68 -70 -89 -134 -88 -266 1 -90 20 -187 43 -214 17
-20 34 -156 26 -210 -3 -28 -15 -66 -27 -84 l-20 -32 44 -19 c23 -11 56 -21
73 -23 25 -3 32 3 54 42 23 41 26 55 25 160 0 111 -18 203 -44 235 -5 7 -15
49 -22 94 -19 137 13 222 90 237 37 8 41 -3 15 -43 -15 -23 -18 -50 -18 -168
1 -128 3 -146 29 -215 17 -46 32 -112 38 -172 10 -96 10 -98 -16 -142 -14 -25
-26 -49 -26 -54 0 -12 70 -32 114 -32 35 0 38 3 63 56 24 53 25 61 18 168 -4
61 -14 127 -22 146 -39 89 -53 157 -53 251 0 84 3 98 20 114 20 18 22 18 77 0
106 -36 144 -96 151 -237 5 -96 4 -99 -32 -171 -31 -64 -36 -83 -36 -145 0
-39 5 -92 12 -117 l12 -45 67 0 c37 0 75 3 84 6 14 6 14 9 -1 32 -10 15 -19
54 -22 93 -4 60 -1 73 29 135 34 68 34 70 34 209 0 117 -3 146 -18 168 -9 14
-17 34 -17 43 0 9 -14 29 -31 45 -36 33 -32 44 16 53 49 9 67 2 90 -36 48 -79
54 -151 29 -308 -9 -52 -18 -141 -21 -198 -5 -99 -4 -105 21 -143 22 -32 32
-39 59 -39 26 1 37 8 60 41 23 33 25 43 16 61 -13 24 -8 119 15 263 21 133 20
206 -3 287 -21 73 -90 183 -121 193 -11 3 -20 11 -20 16 0 12 10 11 49 -2 47
-17 88 -83 101 -164 6 -38 14 -73 18 -79 4 -6 9 -113 12 -238 3 -124 8 -229
12 -233 3 -4 35 15 70 42 l63 50 3 169 c2 122 -1 187 -12 234 -8 36 -20 90
-26 120 -13 60 -76 166 -121 204 -16 14 -42 27 -59 31 -53 12 -32 25 39 25 61
0 73 -3 102 -27 46 -39 57 -76 69 -222 5 -72 12 -143 16 -158 11 -46 53 -143
81 -185 l26 -39 53 52 52 51 -31 62 c-20 42 -33 85 -38 136 -4 41 -12 116 -18
166 -12 113 -40 181 -96 233 -62 57 -114 81 -179 81 l-54 0 11 43 c6 23 11
114 11 202 0 131 -4 176 -22 247 -74 298 -251 493 -456 503 -39 3 -85 1 -102
-4z"/>
</g>
</svg>
