<?xml version="1.0" standalone="no"?>
<!DOCTYPE svg PUBLIC "-//W3C//DTD SVG 20010904//EN"
 "http://www.w3.org/TR/2001/REC-SVG-20010904/DTD/svg10.dtd">
<svg version="1.0" xmlns="http://www.w3.org/2000/svg"
 width="256.000000pt" height="256.000000pt" viewBox="0 0 256.000000 256.000000"
 preserveAspectRatio="xMidYMid meet">
<metadata>
Created by potrace 1.13, written by Peter Selinger 2001-2015
</metadata>
<g transform="translate(0.000000,256.000000) scale(0.100000,-0.100000)"
fill="#000000" stroke="none">
<path d="M1105 2114 c-293 -31 -541 -103 -712 -206 -87 -52 -175 -139 -214
-210 -31 -57 -34 -71 -34 -143 0 -72 3 -86 34 -143 33 -61 121 -153 179 -188
l29 -16 -20 -57 c-16 -44 -21 -98 -27 -258 -5 -111 -11 -216 -15 -235 -12 -59
-38 -132 -55 -158 -30 -46 -60 -110 -60 -131 0 -28 44 -69 76 -69 28 0 78 46
90 83 4 12 15 34 26 49 22 32 56 124 69 188 4 25 11 126 14 225 6 182 20 285
38 285 6 0 25 -5 42 -12 l32 -11 -13 -51 c-8 -30 -14 -104 -14 -181 0 -266
-31 -492 -77 -560 -20 -30 -16 -63 12 -90 56 -57 116 -14 160 113 32 91 42
187 53 484 4 120 12 222 17 227 7 7 22 7 40 2 27 -7 30 -12 28 -42 -3 -37 -18
-127 -35 -199 -5 -26 -8 -147 -7 -285 3 -212 1 -244 -14 -272 -23 -44 -21 -70
8 -98 49 -50 102 -25 137 65 20 51 21 73 22 310 1 172 5 276 14 320 8 36 17
85 20 110 8 49 20 56 76 46 l33 -6 -11 -58 c-6 -33 -11 -206 -11 -412 -1 -195
-4 -369 -9 -387 -7 -27 -4 -36 17 -57 49 -49 110 -24 130 54 8 30 12 162 12
385 0 187 4 358 8 380 5 22 10 50 13 63 4 20 10 22 68 22 62 0 64 -1 90 -38
14 -21 26 -50 26 -65 0 -15 15 -78 32 -140 32 -110 33 -116 33 -327 1 -211 6
-250 39 -320 25 -53 103 -49 128 5 9 20 9 34 -2 63 -9 25 -14 106 -15 267 -2
217 -4 235 -29 315 -14 47 -31 113 -36 147 -6 34 -13 70 -16 80 -4 10 5 1 20
-19 14 -20 26 -43 26 -50 0 -8 8 -30 19 -50 17 -34 35 -100 60 -223 6 -27 13
-93 17 -145 14 -221 98 -366 183 -319 46 26 49 59 12 132 -28 56 -34 82 -47
203 -20 202 -50 337 -88 409 -9 17 -16 37 -16 45 0 9 -7 26 -16 38 -13 19 -13
22 0 22 19 0 61 -71 76 -130 7 -25 22 -65 35 -90 25 -48 58 -144 104 -301 32
-107 68 -169 116 -199 43 -26 71 -25 100 5 35 34 32 68 -12 113 -29 30 -43 59
-64 133 -47 159 -79 251 -110 313 -16 32 -29 66 -29 75 0 9 -9 35 -20 59 l-19
42 24 0 c24 0 65 -45 65 -72 0 -7 6 -22 13 -33 8 -11 22 -49 31 -85 10 -36 24
-74 31 -85 7 -11 16 -36 20 -55 12 -61 110 -193 171 -230 42 -26 70 -25 99 5
38 37 32 68 -23 123 -69 69 -99 112 -107 152 -4 19 -13 44 -20 56 -7 11 -21
49 -30 85 -10 35 -24 74 -31 86 -8 12 -14 28 -14 35 0 7 -13 33 -29 57 l-29
44 71 34 c141 68 250 163 304 265 23 45 28 65 28 133 0 72 -3 86 -34 143 -39
71 -127 158 -214 210 -137 82 -353 154 -562 187 -96 15 -447 28 -530 19z"/>
</g>
</svg>
