<?xml version="1.0" standalone="no"?>
<!DOCTYPE svg PUBLIC "-//W3C//DTD SVG 20010904//EN"
 "http://www.w3.org/TR/2001/REC-SVG-20010904/DTD/svg10.dtd">
<svg version="1.0" xmlns="http://www.w3.org/2000/svg"
 width="256.000000pt" height="256.000000pt" viewBox="0 0 256.000000 256.000000"
 preserveAspectRatio="xMidYMid meet">
<metadata>
Created by potrace 1.13, written by Peter Selinger 2001-2015
</metadata>
<g transform="translate(0.000000,256.000000) scale(0.100000,-0.100000)"
fill="#000000" stroke="none">
<path d="M1137 2380 c-307 -49 -570 -247 -684 -515 -55 -129 -66 -317 -27
-460 18 -67 73 -183 110 -232 l25 -32 -34 -15 c-19 -7 -43 -26 -55 -41 -25
-31 -28 -19 37 -119 l25 -38 28 31 c27 30 98 75 106 66 3 -2 -10 -17 -28 -32
-35 -29 -60 -78 -60 -117 0 -17 11 -32 33 -47 17 -13 48 -39 67 -58 l35 -35 5
68 c4 61 8 70 35 92 17 13 40 24 53 24 22 0 30 -14 13 -25 -15 -8 -41 -108
-41 -153 0 -35 4 -43 36 -61 19 -12 41 -21 47 -21 7 0 30 -9 51 -19 l37 -19
-8 31 c-4 18 -8 61 -8 95 1 55 4 66 25 82 35 27 54 16 35 -20 -18 -34 -19
-121 -2 -170 9 -27 17 -35 35 -34 12 0 47 1 77 2 l54 2 -14 41 c-18 50 -19 82
-4 123 l11 31 128 0 128 0 11 -36 c14 -46 14 -75 1 -100 -10 -18 -7 -19 40
-19 28 0 67 7 87 15 l36 15 -6 53 c-4 28 -9 63 -13 76 l-7 25 31 -23 c28 -19
32 -28 32 -68 l0 -46 31 7 c17 3 51 15 75 25 41 19 44 23 44 58 0 24 -9 52
-25 75 -28 41 -30 48 -14 48 14 0 98 -91 99 -107 1 -36 66 -6 111 50 23 31 23
32 -39 99 -37 39 -36 60 1 50 29 -7 97 -52 97 -64 0 -5 23 8 50 30 28 23 56
42 62 44 20 7 -9 44 -62 78 -48 31 -50 34 -35 54 188 262 205 557 47 830 -43
74 -159 197 -235 248 -82 56 -209 114 -302 138 -92 24 -295 34 -388 20z"/>
</g>
</svg>
