<?xml version="1.0" standalone="no"?>
<!DOCTYPE svg PUBLIC "-//W3C//DTD SVG 20010904//EN"
 "http://www.w3.org/TR/2001/REC-SVG-20010904/DTD/svg10.dtd">
<svg version="1.0" xmlns="http://www.w3.org/2000/svg"
 width="256.000000pt" height="256.000000pt" viewBox="0 0 256.000000 256.000000"
 preserveAspectRatio="xMidYMid meet">
<metadata>
Created by potrace 1.13, written by Peter Selinger 2001-2015
</metadata>
<g transform="translate(0.000000,256.000000) scale(0.100000,-0.100000)"
fill="#000000" stroke="none">
<path d="M1137 2380 c-307 -49 -570 -247 -684 -515 -55 -129 -66 -317 -27
-460 18 -67 73 -183 110 -232 l25 -32 -34 -14 c-50 -21 -135 -134 -158 -210
-26 -86 -24 -145 11 -262 32 -109 38 -188 16 -232 -8 -15 -20 -41 -27 -57 -8
-15 -31 -46 -51 -67 -21 -22 -38 -42 -38 -47 0 -8 63 -61 93 -78 16 -9 24 -6
47 15 31 29 100 130 100 146 0 6 9 28 20 50 30 59 27 156 -10 285 -43 149 -39
195 22 275 29 38 105 91 116 80 2 -2 -12 -18 -32 -35 -70 -62 -87 -217 -42
-385 50 -188 44 -232 -53 -383 -19 -29 -32 -54 -30 -56 2 -2 39 -6 81 -9 86
-7 87 -7 134 88 60 119 65 214 18 375 -16 57 -24 109 -24 163 0 75 1 80 31
108 17 16 42 29 55 29 24 0 32 -14 15 -25 -16 -9 -41 -110 -41 -162 0 -26 9
-77 20 -113 20 -61 28 -98 49 -222 11 -65 -1 -144 -30 -203 -12 -25 -20 -47
-18 -49 8 -9 140 -27 149 -21 18 11 52 146 53 208 1 72 -15 165 -50 291 -30
107 -27 180 9 207 34 26 51 14 32 -24 -24 -46 -14 -144 25 -242 31 -77 33 -86
34 -235 1 -85 -2 -167 -7 -182 l-8 -28 75 0 c50 0 78 4 84 13 13 20 16 196 5
302 -7 70 -19 123 -41 177 -33 82 -37 114 -20 162 l11 31 128 0 128 0 11 -36
c15 -50 14 -58 -14 -145 -22 -67 -25 -94 -25 -218 0 -107 5 -155 18 -201 l19
-60 77 2 c43 1 80 4 83 6 2 3 -6 24 -19 48 -21 41 -23 56 -23 204 0 149 2 163
24 207 20 40 23 56 18 110 -3 35 -9 74 -13 87 l-7 25 33 -24 33 -23 -6 -91
c-3 -59 -13 -110 -27 -146 -19 -48 -21 -67 -16 -144 6 -86 8 -93 54 -163 l47
-73 56 0 c75 0 119 10 119 26 0 7 -15 29 -34 47 -91 91 -118 190 -76 283 17
39 23 75 27 171 6 120 5 123 -21 163 -29 44 -31 50 -15 50 16 0 91 -87 108
-124 14 -32 16 -102 10 -332 -4 -131 0 -142 73 -225 l23 -27 73 21 c43 12 72
25 72 33 0 8 -20 34 -44 60 -54 56 -63 102 -45 224 25 173 -7 312 -92 405 -42
46 -45 67 -6 57 72 -18 165 -128 191 -226 10 -34 21 -112 25 -173 9 -120 28
-173 99 -280 l35 -53 26 19 c14 11 39 33 55 50 28 29 28 31 12 56 -58 89 -68
119 -77 228 -17 224 -93 385 -222 468 -46 30 -47 33 -32 53 188 262 205 557
47 830 -43 74 -159 197 -235 248 -82 56 -209 114 -302 138 -92 24 -295 34
-388 20z"/>
</g>
</svg>
