<?xml version="1.0" standalone="no"?>
<!DOCTYPE svg PUBLIC "-//W3C//DTD SVG 20010904//EN"
 "http://www.w3.org/TR/2001/REC-SVG-20010904/DTD/svg10.dtd">
<svg version="1.0" xmlns="http://www.w3.org/2000/svg"
 width="256.000000pt" height="256.000000pt" viewBox="0 0 256.000000 256.000000"
 preserveAspectRatio="xMidYMid meet">
<metadata>
Created by potrace 1.13, written by Peter Selinger 2001-2015
</metadata>
<g transform="translate(0.000000,256.000000) scale(0.100000,-0.100000)"
fill="#000000" stroke="none">
<path d="M1214 2461 c-178 -46 -332 -239 -394 -494 -24 -96 -36 -295 -23 -382
l9 -60 -81 0 c-78 0 -85 -2 -138 -38 -64 -42 -121 -113 -139 -172 -6 -22 -17
-49 -24 -60 -26 -44 -35 -122 -31 -273 l4 -153 65 -44 66 -44 8 37 c4 20 8
118 8 217 1 150 4 184 18 205 9 14 19 40 23 59 4 20 25 51 52 79 l45 45 67 -6
c72 -6 101 -14 101 -28 0 -5 -8 -9 -18 -9 -10 0 -27 -7 -38 -15 -10 -8 -27
-15 -37 -15 -24 0 -110 -87 -135 -136 -55 -109 -67 -258 -32 -386 11 -40 20
-82 20 -93 1 -13 23 -36 70 -67 37 -27 71 -48 74 -48 15 0 4 156 -15 227 -16
59 -20 95 -17 157 7 109 28 158 86 196 40 27 99 40 114 25 2 -3 -19 -29 -48
-59 -68 -70 -89 -134 -88 -266 1 -91 20 -187 44 -215 6 -7 13 -36 17 -64 5
-48 8 -51 42 -61 20 -5 55 -10 78 -10 l43 0 -6 48 c-8 58 -30 140 -44 157 -5
7 -15 49 -22 94 -19 137 13 222 90 237 37 8 41 -3 15 -43 -14 -21 -19 -53 -21
-148 -3 -123 2 -152 60 -317 l13 -38 72 0 c71 0 73 1 73 25 0 14 -7 42 -16 63
-40 91 -54 158 -54 253 0 84 3 98 20 114 20 18 22 18 77 0 107 -37 144 -96
151 -240 4 -96 3 -102 -26 -157 l-31 -58 40 0 c23 0 65 7 94 15 52 16 53 17
66 67 16 70 7 270 -15 303 -9 13 -16 32 -16 41 0 9 -14 29 -31 45 -17 16 -28
33 -25 38 8 12 72 23 94 17 39 -13 82 -118 82 -201 -1 -51 -24 -221 -36 -264
-6 -22 -5 -23 17 -17 13 3 37 9 52 13 32 7 84 55 98 91 5 13 12 70 15 126 6
84 3 113 -14 172 -22 79 -89 189 -122 199 -11 3 -20 11 -20 16 0 12 10 11 49
-2 47 -17 88 -83 101 -164 6 -38 14 -73 18 -79 4 -6 9 -64 12 -128 l5 -118 72
48 73 47 0 58 c0 32 -6 86 -14 120 -8 34 -20 87 -27 117 -12 60 -75 166 -120
204 -16 14 -42 27 -59 31 -53 12 -32 25 39 25 61 0 73 -3 102 -27 46 -39 57
-76 69 -225 5 -73 14 -149 20 -168 15 -53 32 -90 40 -90 8 0 64 92 86 140 13
29 2 224 -17 292 -35 133 -145 228 -263 228 l-54 0 11 43 c6 23 11 114 11 202
0 131 -4 176 -22 247 -74 298 -251 493 -456 503 -39 3 -85 1 -102 -4z"/>
</g>
</svg>
