<?xml version="1.0" standalone="no"?>
<!DOCTYPE svg PUBLIC "-//W3C//DTD SVG 20010904//EN"
 "http://www.w3.org/TR/2001/REC-SVG-20010904/DTD/svg10.dtd">
<svg version="1.0" xmlns="http://www.w3.org/2000/svg"
 width="256.000000pt" height="256.000000pt" viewBox="0 0 256.000000 256.000000"
 preserveAspectRatio="xMidYMid meet">
<metadata>
Created by potrace 1.13, written by Peter Selinger 2001-2015
</metadata>
<g transform="translate(0.000000,256.000000) scale(0.100000,-0.100000)"
fill="#000000" stroke="none">
<path d="M1105 2114 c-293 -31 -541 -103 -712 -206 -87 -52 -175 -139 -214
-210 -31 -57 -34 -71 -34 -143 0 -72 3 -86 34 -143 33 -61 121 -153 179 -188
l29 -16 -19 -57 c-10 -31 -21 -74 -24 -96 -5 -34 -2 -42 17 -54 44 -27 112
-61 120 -61 5 0 9 22 9 50 0 58 20 140 34 140 5 0 24 -5 41 -12 l32 -11 -13
-51 c-8 -28 -14 -72 -14 -98 0 -54 5 -58 91 -81 l57 -14 4 88 c2 49 9 94 14
99 6 6 22 6 39 1 27 -7 30 -12 28 -42 -2 -19 -8 -60 -14 -92 -15 -72 -10 -77
76 -77 l61 0 12 58 c6 31 13 68 14 82 3 28 23 35 72 26 l32 -6 -7 -48 c-4 -26
-11 -66 -14 -88 l-7 -41 48 -11 c99 -22 104 -21 104 4 0 12 5 46 11 76 6 29
13 63 15 76 4 20 10 22 68 22 62 0 64 -1 90 -38 14 -21 26 -51 26 -66 0 -16 5
-46 12 -67 l11 -39 75 0 75 0 -7 33 c-4 17 -11 56 -16 85 -5 30 -12 64 -16 75
-3 14 4 8 20 -15 14 -20 26 -43 26 -49 0 -7 8 -31 19 -53 10 -23 21 -49 25
-59 5 -17 13 -18 69 -12 34 4 66 10 70 12 12 7 -1 69 -24 112 -10 20 -19 43
-19 51 0 9 -7 26 -16 38 -13 19 -13 22 0 22 20 0 60 -71 80 -142 16 -56 18
-58 49 -57 43 1 112 22 112 34 -1 19 -38 130 -52 158 -13 26 -12 27 11 27 25
0 66 -45 66 -72 0 -8 7 -23 15 -34 8 -10 15 -27 15 -38 0 -15 6 -18 33 -13 45
7 107 45 107 66 0 9 -7 26 -15 37 -8 10 -15 26 -15 34 0 8 -13 35 -29 59 l-29
44 71 34 c141 68 250 163 304 265 23 45 28 65 28 133 0 72 -3 86 -34 143 -39
71 -127 158 -214 210 -137 82 -353 154 -562 187 -96 15 -447 28 -530 19z"/>
</g>
</svg>
