<?xml version="1.0" standalone="no"?>
<!DOCTYPE svg PUBLIC "-//W3C//DTD SVG 20010904//EN"
 "http://www.w3.org/TR/2001/REC-SVG-20010904/DTD/svg10.dtd">
<svg version="1.0" xmlns="http://www.w3.org/2000/svg"
 width="424.000000pt" height="170.000000pt" viewBox="0 0 424.000000 170.000000"
 preserveAspectRatio="xMidYMid meet">
<metadata>
Created by potrace 1.13, written by Peter Selinger 2001-2015
</metadata>
<g transform="translate(0.000000,170.000000) scale(0.100000,-0.100000)"
fill="#000000" stroke="none">
<path d="M3465 1078 c-11 -6 -33 -23 -50 -39 -28 -26 -37 -28 -140 -33 -462
-21 -1179 -37 -1830 -40 -814 -3 -1004 -12 -1224 -56 -96 -19 -131 -39 -131
-72 0 -62 64 -94 217 -109 127 -13 786 -8 1748 15 352 9 897 20 1211 26 315 5
603 14 640 20 38 5 91 13 118 16 68 8 96 38 96 102 0 79 -6 82 -210 100 -59 6
-80 12 -98 30 -28 28 -45 28 -78 -3 -25 -23 -35 -26 -93 -23 -62 3 -67 5 -80
33 -8 17 -19 33 -25 37 -16 11 -48 9 -71 -4z"/>
</g>
</svg>
