<?xml version="1.0" standalone="no"?>
<!DOCTYPE svg PUBLIC "-//W3C//DTD SVG 20010904//EN"
 "http://www.w3.org/TR/2001/REC-SVG-20010904/DTD/svg10.dtd">
<svg version="1.0" xmlns="http://www.w3.org/2000/svg"
 width="239.000000pt" height="358.000000pt" viewBox="0 0 239.000000 358.000000"
 preserveAspectRatio="xMidYMid meet">
<metadata>
Created by potrace 1.13, written by Peter Selinger 2001-2015
</metadata>
<g transform="translate(0.000000,358.000000) scale(0.100000,-0.100000)"
fill="#000000" stroke="none">
<path d="M780 3139 c-126 -12 -145 -17 -174 -46 -34 -34 -33 -50 8 -136 19
-40 53 -115 76 -167 67 -154 111 -252 135 -305 54 -116 85 -186 85 -191 0 -3
18 -44 40 -90 22 -47 56 -125 76 -172 20 -48 42 -98 49 -112 13 -24 90 -197
170 -380 40 -93 45 -104 105 -234 63 -136 86 -185 114 -253 31 -75 73 -170 88
-201 7 -13 35 -43 62 -69 115 -103 140 -131 179 -198 22 -38 47 -76 56 -82 25
-22 79 -16 106 12 31 30 31 33 1 120 -19 57 -23 84 -19 145 10 139 -5 191
-133 468 -19 41 -34 76 -34 78 0 2 -16 39 -36 81 -43 93 -59 129 -113 251 -23
50 -59 131 -80 180 -22 48 -114 254 -204 457 -212 476 -228 510 -318 703 -52
109 -62 124 -93 137 -19 8 -41 14 -48 14 -7 -1 -51 -5 -98 -10z"/>
</g>
</svg>
