<?xml version="1.0" standalone="no"?>
<!DOCTYPE svg PUBLIC "-//W3C//DTD SVG 20010904//EN"
 "http://www.w3.org/TR/2001/REC-SVG-20010904/DTD/svg10.dtd">
<svg version="1.0" xmlns="http://www.w3.org/2000/svg"
 width="490.000000pt" height="177.000000pt" viewBox="0 0 490.000000 177.000000"
 preserveAspectRatio="xMidYMid meet">
<metadata>
Created by potrace 1.13, written by Peter Selinger 2001-2015
</metadata>
<g transform="translate(0.000000,177.000000) scale(0.100000,-0.100000)"
fill="#000000" stroke="none">
<path d="M1840 1170 c-168 -5 -359 -14 -425 -21 -66 -7 -145 -13 -175 -13 -77
-1 -221 -49 -266 -88 -49 -43 -64 -77 -64 -146 0 -51 5 -67 33 -108 50 -72
156 -126 257 -130 30 -1 170 -7 310 -14 140 -6 379 -12 531 -12 268 -1 277 -1
304 20 15 12 41 24 59 26 17 3 225 8 461 11 870 11 1042 37 1114 166 29 51 33
125 8 162 -24 37 -86 74 -154 92 -125 33 -212 36 -843 29 -575 -7 -628 -6
-658 10 -44 23 -131 26 -492 16z"/>
</g>
</svg>
