<?xml version="1.0" standalone="no"?>
<!DOCTYPE svg PUBLIC "-//W3C//DTD SVG 20010904//EN"
 "http://www.w3.org/TR/2001/REC-SVG-20010904/DTD/svg10.dtd">
<svg version="1.0" xmlns="http://www.w3.org/2000/svg"
 width="455.000000pt" height="148.000000pt" viewBox="0 0 455.000000 148.000000"
 preserveAspectRatio="xMidYMid meet">
<metadata>
Created by potrace 1.13, written by Peter Selinger 2001-2015
</metadata>
<g transform="translate(0.000000,148.000000) scale(0.100000,-0.100000)"
fill="#000000" stroke="none">
<path d="M631 971 c-40 -43 -62 -111 -68 -211 -6 -98 9 -154 47 -181 23 -16
68 -17 615 -18 1246 -1 1421 -2 1777 -12 356 -10 369 -9 455 11 118 28 207 75
211 113 3 26 -2 30 -74 63 -137 62 -189 75 -335 85 -74 4 -205 13 -290 19 -85
5 -363 24 -619 40 -256 17 -505 37 -555 45 -49 8 -175 19 -280 25 -231 13
-648 38 -768 46 l-88 6 -28 -31z"/>
</g>
</svg>
