<?xml version="1.0" standalone="no"?>
<!DOCTYPE svg PUBLIC "-//W3C//DTD SVG 20010904//EN"
 "http://www.w3.org/TR/2001/REC-SVG-20010904/DTD/svg10.dtd">
<svg version="1.0" xmlns="http://www.w3.org/2000/svg"
 width="506.000000pt" height="190.000000pt" viewBox="0 0 506.000000 190.000000"
 preserveAspectRatio="xMidYMid meet">
<metadata>
Created by potrace 1.13, written by Peter Selinger 2001-2015
</metadata>
<g transform="translate(0.000000,190.000000) scale(0.100000,-0.100000)"
fill="#000000" stroke="none">
<path d="M3685 1264 c-11 -4 -403 -47 -635 -69 -322 -31 -458 -46 -514 -56
-32 -6 -64 -8 -71 -5 -7 2 -102 -4 -211 -15 -110 -11 -224 -18 -254 -14 -101
10 -204 6 -352 -13 -124 -15 -156 -23 -208 -50 -33 -18 -73 -32 -88 -32 -15 0
-54 -14 -87 -31 -103 -54 -155 -79 -162 -79 -9 0 -65 -29 -174 -88 -42 -23
-88 -42 -102 -42 -38 0 -79 -18 -75 -33 3 -8 36 -14 94 -18 56 -4 163 -25 290
-57 173 -44 216 -51 310 -53 243 -4 304 -3 419 10 99 12 126 18 154 39 36 27
36 27 356 57 88 8 221 22 295 30 192 21 776 82 965 100 205 20 203 20 211 53
11 44 21 50 102 57 129 10 161 16 177 31 29 29 13 176 -22 202 -14 11 -44 13
-140 8 l-122 -6 -17 27 c-10 16 -24 34 -33 41 -14 11 -83 16 -106 6z"/>
</g>
</svg>
