<?xml version="1.0" standalone="no"?>
<!DOCTYPE svg PUBLIC "-//W3C//DTD SVG 20010904//EN"
 "http://www.w3.org/TR/2001/REC-SVG-20010904/DTD/svg10.dtd">
<svg version="1.0" xmlns="http://www.w3.org/2000/svg"
 width="239.000000pt" height="358.000000pt" viewBox="0 0 239.000000 358.000000"
 preserveAspectRatio="xMidYMid meet">
<metadata>
Created by potrace 1.13, written by Peter Selinger 2001-2015
</metadata>
<g transform="translate(0.000000,358.000000) scale(0.100000,-0.100000)"
fill="#000000" stroke="none">
<path d="M618 3105 c-14 -8 -36 -30 -48 -50 -25 -40 -22 -65 16 -151 13 -30
24 -68 24 -83 0 -16 16 -60 37 -98 49 -92 124 -242 166 -333 19 -41 48 -104
65 -140 82 -177 100 -217 107 -240 4 -14 11 -29 15 -35 4 -5 48 -102 98 -215
49 -113 101 -230 115 -260 14 -30 49 -108 77 -173 28 -66 71 -160 94 -210 24
-51 71 -155 105 -232 56 -130 67 -146 129 -206 37 -36 91 -86 121 -112 31 -26
68 -71 87 -104 50 -92 87 -80 44 15 -15 32 -21 82 -29 212 -12 193 -1 159
-166 515 -53 116 -108 234 -122 264 -14 30 -40 89 -58 131 -18 42 -44 101 -58
131 -14 30 -46 98 -71 153 -25 54 -46 100 -46 102 0 2 -48 109 -106 236 -58
128 -123 273 -145 321 -22 49 -59 134 -81 190 -45 115 -82 186 -106 203 -9 7
-28 40 -42 75 -14 36 -36 71 -52 82 -36 27 -132 34 -170 12z"/>
</g>
</svg>
