<?xml version="1.0" standalone="no"?>
<!DOCTYPE svg PUBLIC "-//W3C//DTD SVG 20010904//EN"
 "http://www.w3.org/TR/2001/REC-SVG-20010904/DTD/svg10.dtd">
<svg version="1.0" xmlns="http://www.w3.org/2000/svg"
 width="487.000000pt" height="186.000000pt" viewBox="0 0 487.000000 186.000000"
 preserveAspectRatio="xMidYMid meet">
<metadata>
Created by potrace 1.13, written by Peter Selinger 2001-2015
</metadata>
<g transform="translate(0.000000,186.000000) scale(0.100000,-0.100000)"
fill="#000000" stroke="none">
<path d="M3705 1304 c-55 -7 -101 -13 -102 -13 -1 -1 -9 -14 -18 -31 -18 -36
-33 -37 -69 -9 -31 24 -58 24 -256 -5 -58 -8 -152 -20 -210 -26 -58 -6 -179
-20 -270 -30 -91 -11 -205 -24 -255 -30 -89 -10 -650 -65 -775 -75 -36 -4
-121 -13 -190 -21 -69 -8 -237 -25 -375 -39 -276 -27 -279 -28 -565 -152 -63
-28 -137 -53 -165 -57 -58 -7 -85 -27 -67 -49 9 -11 29 -13 83 -9 70 5 124 -3
368 -50 105 -20 119 -20 306 2 44 5 150 17 235 25 85 9 165 21 177 27 11 6 26
7 31 4 11 -7 140 3 372 29 74 8 203 22 285 31 83 9 204 22 270 30 66 7 199 22
295 33 96 11 231 27 300 36 69 9 189 22 267 29 78 7 148 18 156 25 8 6 18 23
21 36 8 33 33 32 68 -2 l28 -27 131 15 c183 20 182 18 143 256 -10 67 -31 71
-219 47z"/>
</g>
</svg>
