<?xml version="1.0" standalone="no"?>
<!DOCTYPE svg PUBLIC "-//W3C//DTD SVG 20010904//EN"
 "http://www.w3.org/TR/2001/REC-SVG-20010904/DTD/svg10.dtd">
<svg version="1.0" xmlns="http://www.w3.org/2000/svg"
 width="488.000000pt" height="185.000000pt" viewBox="0 0 488.000000 185.000000"
 preserveAspectRatio="xMidYMid meet">
<metadata>
Created by potrace 1.13, written by Peter Selinger 2001-2015
</metadata>
<g transform="translate(0.000000,185.000000) scale(0.100000,-0.100000)"
fill="#000000" stroke="none">
<path d="M4340 1193 c-30 -1 -280 -7 -555 -13 -355 -7 -520 -14 -570 -24 -48
-10 -215 -18 -540 -25 -538 -13 -624 -15 -1320 -36 -977 -29 -1084 -34 -1104
-44 -11 -6 -47 -11 -81 -11 -51 0 -65 -4 -85 -25 -22 -21 -25 -33 -25 -101 0
-75 1 -79 40 -130 22 -30 51 -56 65 -60 40 -10 1524 4 1595 15 41 6 408 10
1005 11 517 0 1149 3 1404 6 l465 6 37 24 c63 39 69 55 69 179 0 123 -17 195
-53 220 -21 14 -164 18 -347 8z"/>
</g>
</svg>
