<?xml version="1.0" standalone="no"?>
<!DOCTYPE svg PUBLIC "-//W3C//DTD SVG 20010904//EN"
 "http://www.w3.org/TR/2001/REC-SVG-20010904/DTD/svg10.dtd">
<svg version="1.0" xmlns="http://www.w3.org/2000/svg"
 width="239.000000pt" height="358.000000pt" viewBox="0 0 239.000000 358.000000"
 preserveAspectRatio="xMidYMid meet">
<metadata>
Created by potrace 1.13, written by Peter Selinger 2001-2015
</metadata>
<g transform="translate(0.000000,358.000000) scale(0.100000,-0.100000)"
fill="#000000" stroke="none">
<path d="M725 2984 c-22 -8 -47 -22 -56 -32 -17 -18 -59 -124 -59 -148 0 -13
73 -193 171 -423 27 -63 49 -118 49 -123 0 -4 11 -31 25 -60 13 -29 56 -132
95 -228 39 -96 75 -184 80 -195 17 -39 99 -232 135 -320 20 -49 51 -124 70
-165 18 -41 48 -111 65 -155 17 -44 40 -99 51 -122 10 -24 31 -72 45 -107 22
-55 39 -77 117 -149 51 -47 123 -110 160 -142 41 -35 80 -78 98 -111 47 -83
82 -63 42 24 -14 30 -19 77 -23 237 l-5 200 -64 145 c-35 80 -69 159 -76 175
-61 136 -370 857 -464 1080 -49 119 -132 311 -151 350 -5 11 -23 54 -40 95
-32 76 -56 114 -105 163 -23 22 -36 27 -74 26 -25 0 -64 -7 -86 -15z"/>
</g>
</svg>
