<?xml version="1.0" standalone="no"?>
<!DOCTYPE svg PUBLIC "-//W3C//DTD SVG 20010904//EN"
 "http://www.w3.org/TR/2001/REC-SVG-20010904/DTD/svg10.dtd">
<svg version="1.0" xmlns="http://www.w3.org/2000/svg"
 width="522.000000pt" height="189.000000pt" viewBox="0 0 522.000000 189.000000"
 preserveAspectRatio="xMidYMid meet">
<metadata>
Created by potrace 1.13, written by Peter Selinger 2001-2015
</metadata>
<g transform="translate(0.000000,189.000000) scale(0.100000,-0.100000)"
fill="#000000" stroke="none">
<path d="M982 1309 c-102 -16 -167 -45 -207 -93 -81 -99 -98 -206 -46 -287 38
-60 66 -83 134 -114 80 -37 204 -44 743 -45 l441 0 39 31 39 31 210 -6 c116
-3 344 -9 508 -13 286 -6 300 -5 345 14 35 16 95 25 232 37 234 21 264 20 334
-4 60 -20 79 -18 106 14 15 19 79 14 209 -15 l84 -20 66 40 c36 21 84 47 105
57 47 23 64 57 38 80 -9 8 -48 38 -87 65 -78 57 -60 55 -273 22 -103 -16 -103
-16 -134 7 -22 16 -37 20 -56 15 -58 -16 -194 -16 -289 -1 -239 39 -290 49
-323 61 -25 10 -121 16 -325 20 -159 4 -315 8 -345 10 -382 18 -358 15 -418
48 l-57 31 -230 7 c-441 15 -780 18 -843 8z"/>
</g>
</svg>
