<?xml version="1.0" standalone="no"?>
<!DOCTYPE svg PUBLIC "-//W3C//DTD SVG 20010904//EN"
 "http://www.w3.org/TR/2001/REC-SVG-20010904/DTD/svg10.dtd">
<svg version="1.0" xmlns="http://www.w3.org/2000/svg"
 width="485.000000pt" height="217.000000pt" viewBox="0 0 485.000000 217.000000"
 preserveAspectRatio="xMidYMid meet">
<metadata>
Created by potrace 1.13, written by Peter Selinger 2001-2015
</metadata>
<g transform="translate(0.000000,217.000000) scale(0.100000,-0.100000)"
fill="#000000" stroke="none">
<path d="M3955 1419 c-49 -5 -108 -16 -131 -24 -23 -9 -121 -22 -230 -30 -527
-42 -711 -57 -839 -66 -77 -5 -241 -18 -365 -29 -203 -18 -362 -30 -755 -60
-71 -5 -186 -14 -255 -20 -69 -5 -278 -21 -466 -35 -404 -30 -552 -48 -576
-73 -22 -22 -34 -126 -19 -164 22 -58 116 -75 311 -56 47 4 175 15 285 23 110
9 250 20 310 26 61 5 171 14 245 19 74 6 243 19 375 30 460 39 1107 91 1355
110 69 5 199 17 290 25 91 9 239 16 329 16 158 0 285 11 496 44 159 24 204 34
304 68 182 61 208 141 60 184 -65 18 -577 27 -724 12z"/>
</g>
</svg>
