<?xml version="1.0" standalone="no"?>
<!DOCTYPE svg PUBLIC "-//W3C//DTD SVG 20010904//EN"
 "http://www.w3.org/TR/2001/REC-SVG-20010904/DTD/svg10.dtd">
<svg version="1.0" xmlns="http://www.w3.org/2000/svg"
 width="250.000000pt" height="359.000000pt" viewBox="0 0 250.000000 359.000000"
 preserveAspectRatio="xMidYMid meet">
<metadata>
Created by potrace 1.13, written by Peter Selinger 2001-2015
</metadata>
<g transform="translate(0.000000,359.000000) scale(0.100000,-0.100000)"
fill="#000000" stroke="none">
<path d="M766 2958 c-9 -29 -27 -199 -29 -273 -1 -73 2 -89 42 -190 24 -60 54
-139 67 -175 13 -36 51 -139 85 -230 34 -91 75 -201 91 -245 16 -44 86 -222
155 -395 69 -173 134 -340 145 -370 20 -54 46 -116 74 -175 8 -16 37 -46 65
-65 27 -19 67 -48 87 -63 40 -31 105 -67 121 -67 19 0 31 38 46 137 27 182 25
204 -29 333 -27 63 -56 133 -66 155 -10 22 -79 191 -153 375 -75 184 -159 391
-187 460 -28 69 -59 145 -67 170 -9 25 -19 50 -24 55 -4 6 -18 42 -32 80 -107
308 -104 302 -176 359 -69 54 -192 136 -205 136 -3 0 -8 -6 -10 -12z"/>
</g>
</svg>
