<?xml version="1.0" standalone="no"?>
<!DOCTYPE svg PUBLIC "-//W3C//DTD SVG 20010904//EN"
 "http://www.w3.org/TR/2001/REC-SVG-20010904/DTD/svg10.dtd">
<svg version="1.0" xmlns="http://www.w3.org/2000/svg"
 width="441.000000pt" height="195.000000pt" viewBox="0 0 441.000000 195.000000"
 preserveAspectRatio="xMidYMid meet">
<metadata>
Created by potrace 1.13, written by Peter Selinger 2001-2015
</metadata>
<g transform="translate(0.000000,195.000000) scale(0.100000,-0.100000)"
fill="#000000" stroke="none">
<path d="M280 1379 c-38 -15 -60 -49 -60 -95 0 -68 37 -93 229 -158 90 -30
173 -64 185 -75 12 -10 46 -27 76 -36 30 -10 80 -26 110 -37 352 -122 512
-146 1045 -157 251 -6 363 -13 470 -28 77 -12 181 -26 230 -32 50 -7 117 -16
150 -21 81 -13 256 -37 390 -55 61 -8 144 -19 185 -24 41 -6 91 -15 110 -21
55 -16 452 -12 680 8 l205 17 0 25 c0 36 -59 62 -242 109 -113 28 -160 45
-183 65 -17 14 -40 26 -50 26 -11 0 -218 36 -462 79 -625 112 -960 164 -2028
316 -63 9 -128 23 -145 30 -18 8 -80 16 -150 19 -66 3 -181 15 -255 27 -151
24 -448 36 -490 18z"/>
</g>
</svg>
