<?xml version="1.0" standalone="no"?>
<!DOCTYPE svg PUBLIC "-//W3C//DTD SVG 20010904//EN"
 "http://www.w3.org/TR/2001/REC-SVG-20010904/DTD/svg10.dtd">
<svg version="1.0" xmlns="http://www.w3.org/2000/svg"
 width="498.000000pt" height="257.000000pt" viewBox="0 0 498.000000 257.000000"
 preserveAspectRatio="xMidYMid meet">
<metadata>
Created by potrace 1.13, written by Peter Selinger 2001-2015
</metadata>
<g transform="translate(0.000000,257.000000) scale(0.100000,-0.100000)"
fill="#000000" stroke="none">
<path d="M2280 2129 c-166 -13 -233 -32 -294 -81 -54 -44 -195 -187 -299 -301
-34 -38 -73 -75 -87 -82 -32 -16 -105 -28 -355 -60 -193 -24 -248 -32 -565
-76 -212 -30 -223 -41 -229 -223 -3 -108 -6 -124 -26 -147 -12 -15 -25 -46
-29 -70 -9 -55 24 -125 73 -154 19 -11 59 -45 90 -76 56 -56 71 -64 197 -98
32 -8 50 -23 80 -62 47 -62 110 -98 188 -106 77 -8 140 11 209 63 54 42 60 44
126 44 37 0 128 -6 202 -14 74 -8 195 -20 269 -26 78 -7 144 -18 157 -26 13
-8 27 -32 33 -56 31 -119 65 -177 146 -243 103 -84 287 -116 395 -68 112 50
201 146 249 268 43 107 61 115 133 60 55 -42 137 -66 193 -56 36 7 140 57 173
84 17 14 383 20 416 7 14 -5 27 -26 39 -61 35 -111 84 -166 183 -211 37 -17
66 -21 130 -21 92 1 124 15 197 82 35 33 86 124 86 155 0 7 10 22 23 34 19 18
35 22 84 22 83 0 123 27 141 95 11 45 10 56 -9 110 -19 51 -22 79 -20 191 2
150 -11 212 -61 290 -39 61 -194 293 -297 444 -91 132 -193 234 -251 250 -22
6 -130 19 -242 30 -207 21 -255 24 -793 60 -170 11 -357 25 -415 30 -58 6
-112 9 -120 9 -8 -1 -62 -6 -120 -10z"/>
</g>
</svg>
