<?xml version="1.0" standalone="no"?>
<!DOCTYPE svg PUBLIC "-//W3C//DTD SVG 20010904//EN"
 "http://www.w3.org/TR/2001/REC-SVG-20010904/DTD/svg10.dtd">
<svg version="1.0" xmlns="http://www.w3.org/2000/svg"
 width="400.000000pt" height="223.000000pt" viewBox="0 0 400.000000 223.000000"
 preserveAspectRatio="xMidYMid meet">
<metadata>
Created by potrace 1.13, written by Peter Selinger 2001-2015
</metadata>
<g transform="translate(0.000000,223.000000) scale(0.100000,-0.100000)"
fill="#000000" stroke="none">
<path d="M2040 1995 c-255 -25 -294 -33 -360 -76 -34 -22 -100 -68 -147 -104
-48 -36 -98 -68 -112 -71 -74 -15 -116 -39 -135 -78 -16 -32 -17 -44 -8 -69 6
-16 9 -33 7 -37 -2 -4 -67 -10 -144 -14 -77 -4 -153 -11 -168 -16 -16 -5 -67
-21 -115 -35 l-87 -26 -80 -96 c-51 -61 -86 -114 -96 -144 -9 -26 -25 -55 -35
-64 -18 -16 -20 -31 -19 -139 0 -67 5 -137 12 -156 11 -33 15 -35 71 -42 69
-9 79 -16 94 -65 7 -21 25 -61 42 -90 28 -50 33 -53 102 -75 52 -16 94 -22
145 -21 77 2 92 8 189 77 l62 43 193 7 c107 3 235 9 284 12 l91 6 51 -50 c28
-27 80 -64 116 -81 60 -29 75 -31 209 -37 151 -7 261 5 305 32 13 8 39 46 58
85 46 90 77 110 287 182 157 53 272 76 311 62 9 -4 21 -24 27 -44 11 -42 82
-101 121 -101 51 0 184 44 210 69 28 29 46 120 86 433 3 25 -8 76 -36 165 -39
125 -43 132 -95 181 -52 49 -58 52 -108 52 -51 0 -56 3 -98 46 -80 82 -209
185 -303 240 l-91 54 -350 -1 c-200 -1 -409 -7 -486 -14z"/>
</g>
</svg>
