<?xml version="1.0" standalone="no"?>
<!DOCTYPE svg PUBLIC "-//W3C//DTD SVG 20010904//EN"
 "http://www.w3.org/TR/2001/REC-SVG-20010904/DTD/svg10.dtd">
<svg version="1.0" xmlns="http://www.w3.org/2000/svg"
 width="559.000000pt" height="261.000000pt" viewBox="0 0 559.000000 261.000000"
 preserveAspectRatio="xMidYMid meet">
<metadata>
Created by potrace 1.13, written by Peter Selinger 2001-2015
</metadata>
<g transform="translate(0.000000,261.000000) scale(0.100000,-0.100000)"
fill="#000000" stroke="none">
<path d="M2740 2100 c-151 -26 -265 -79 -488 -229 -178 -120 -149 -111 -372
-110 -189 1 -407 -13 -500 -32 -25 -5 -83 -16 -130 -23 -47 -8 -98 -19 -113
-25 -16 -6 -38 -11 -50 -11 -66 -1 -269 -122 -351 -209 -68 -74 -86 -173 -45
-254 63 -125 170 -237 273 -286 45 -22 66 -39 80 -65 10 -19 38 -55 61 -79 80
-84 229 -109 332 -56 42 21 81 24 133 9 83 -24 275 -60 371 -70 231 -23 270
-28 284 -40 9 -7 20 -32 26 -56 16 -63 92 -152 159 -185 149 -74 324 -59 482
42 49 32 138 125 138 145 0 6 11 21 25 34 24 23 36 25 193 32 174 8 387 27
565 52 57 8 114 12 128 9 30 -7 59 -32 59 -50 0 -24 102 -124 152 -149 84 -43
240 -28 329 30 48 32 122 120 153 183 21 40 34 54 66 67 22 9 50 16 61 16 33
0 67 43 75 96 4 27 19 78 34 114 39 95 44 132 25 198 -27 93 -84 166 -254 326
-119 112 -230 199 -321 251 -29 17 -73 42 -99 57 -44 26 -68 38 -156 77 -57
26 -225 74 -320 91 -27 6 -71 14 -97 20 -26 5 -83 14 -125 20 -43 5 -112 15
-153 20 -41 6 -104 13 -140 15 -36 3 -114 9 -175 15 -178 15 -267 18 -315 10z"/>
</g>
</svg>
