<?xml version="1.0" standalone="no"?>
<!DOCTYPE svg PUBLIC "-//W3C//DTD SVG 20010904//EN"
 "http://www.w3.org/TR/2001/REC-SVG-20010904/DTD/svg10.dtd">
<svg version="1.0" xmlns="http://www.w3.org/2000/svg"
 width="498.000000pt" height="247.000000pt" viewBox="0 0 498.000000 247.000000"
 preserveAspectRatio="xMidYMid meet">
<metadata>
Created by potrace 1.13, written by Peter Selinger 2001-2015
</metadata>
<g transform="translate(0.000000,247.000000) scale(0.100000,-0.100000)"
fill="#000000" stroke="none">
<path d="M2370 1919 c-107 -12 -181 -33 -217 -63 -15 -13 -44 -31 -63 -41 -67
-34 -136 -87 -239 -183 -57 -53 -113 -102 -125 -108 -11 -6 -59 -16 -106 -22
-342 -46 -384 -49 -378 -27 2 6 16 9 31 7 40 -3 82 22 97 59 12 27 11 36 -1
58 -12 21 -23 27 -60 29 -60 4 -99 -25 -99 -72 0 -40 -50 -114 -82 -120 -13
-3 -45 -8 -73 -11 -63 -7 -139 -21 -233 -43 -62 -14 -76 -21 -88 -44 -8 -16
-19 -28 -24 -28 -20 0 -60 -99 -60 -147 0 -40 -5 -52 -32 -81 -30 -30 -33 -39
-33 -97 0 -75 13 -93 86 -124 27 -12 49 -26 49 -31 0 -15 86 -61 142 -75 42
-12 62 -25 110 -75 70 -74 106 -90 198 -90 80 0 126 16 178 61 35 31 37 31
106 25 39 -3 171 -9 294 -13 l224 -6 23 -36 c44 -66 60 -80 130 -113 65 -31
77 -33 175 -33 83 0 113 4 143 19 59 29 143 111 178 174 50 90 65 102 121 102
48 0 108 -19 138 -44 19 -16 89 -36 126 -36 40 1 113 35 151 72 31 30 38 31
145 40 119 9 297 10 311 1 4 -3 18 -28 31 -57 50 -112 140 -176 249 -176 67 0
116 22 163 72 38 40 84 125 84 154 0 29 16 40 68 49 27 4 61 21 92 46 62 49
74 93 42 151 -17 28 -22 54 -22 110 0 40 -5 90 -9 112 -14 57 -71 111 -152
141 -62 24 -82 40 -221 178 -225 222 -257 243 -418 277 -61 13 -101 19 -375
49 -204 22 -603 27 -775 10z"/>
</g>
</svg>
