<?xml version="1.0" standalone="no"?>
<!DOCTYPE svg PUBLIC "-//W3C//DTD SVG 20010904//EN"
 "http://www.w3.org/TR/2001/REC-SVG-20010904/DTD/svg10.dtd">
<svg version="1.0" xmlns="http://www.w3.org/2000/svg"
 width="471.000000pt" height="243.000000pt" viewBox="0 0 471.000000 243.000000"
 preserveAspectRatio="xMidYMid meet">
<metadata>
Created by potrace 1.13, written by Peter Selinger 2001-2015
</metadata>
<g transform="translate(0.000000,243.000000) scale(0.100000,-0.100000)"
fill="#000000" stroke="none">
<path d="M2017 1786 c-22 -8 -49 -23 -60 -34 -12 -11 -33 -26 -47 -33 -29 -16
-170 -166 -215 -229 -16 -23 -43 -57 -60 -76 -34 -39 -14 -35 -335 -79 -183
-25 -289 -42 -425 -70 -38 -8 -101 -19 -140 -25 -83 -14 -171 -36 -203 -52
-47 -24 -102 -133 -102 -205 0 -9 -18 -35 -40 -59 -36 -39 -40 -49 -40 -93 0
-42 5 -56 32 -87 35 -40 71 -58 158 -81 42 -11 67 -26 110 -67 81 -78 110 -90
206 -91 71 0 85 3 123 28 23 15 45 25 50 23 5 -3 48 -12 97 -21 49 -8 141 -24
204 -36 77 -14 157 -21 242 -21 l128 0 41 -62 c58 -86 78 -106 127 -128 60
-27 181 -39 240 -23 114 30 186 86 233 181 18 36 36 67 40 69 15 10 116 27
269 45 354 44 384 48 593 80 70 10 134 17 143 13 8 -3 28 -25 44 -48 33 -48
119 -95 173 -95 84 0 159 49 202 132 37 72 50 85 93 93 85 15 220 67 247 95
24 25 26 33 20 72 -3 24 -9 95 -13 158 -6 98 -11 120 -30 147 -13 18 -35 36
-50 39 -15 3 -43 11 -62 19 -19 7 -59 18 -88 25 -59 14 -62 16 -161 170 -50
77 -84 117 -127 151 -57 45 -133 79 -174 79 -10 0 -29 4 -42 9 -13 5 -77 14
-143 20 -66 7 -194 21 -285 32 -214 27 -390 39 -690 45 -197 3 -252 2 -283
-10z"/>
</g>
</svg>
