<?xml version="1.0" standalone="no"?>
<!DOCTYPE svg PUBLIC "-//W3C//DTD SVG 20010904//EN"
 "http://www.w3.org/TR/2001/REC-SVG-20010904/DTD/svg10.dtd">
<svg version="1.0" xmlns="http://www.w3.org/2000/svg"
 width="481.000000pt" height="234.000000pt" viewBox="0 0 481.000000 234.000000"
 preserveAspectRatio="xMidYMid meet">
<metadata>
Created by potrace 1.13, written by Peter Selinger 2001-2015
</metadata>
<g transform="translate(0.000000,234.000000) scale(0.100000,-0.100000)"
fill="#000000" stroke="none">
<path d="M2360 2058 c-69 -4 -152 -12 -186 -18 -33 -5 -81 -10 -105 -10 -85
-1 -164 -24 -248 -76 -86 -52 -222 -164 -331 -274 -96 -97 -122 -112 -214
-126 -204 -33 -264 -43 -306 -53 -25 -6 -99 -22 -165 -36 -66 -14 -145 -34
-175 -45 -30 -10 -89 -28 -130 -41 -91 -27 -206 -82 -241 -115 -38 -36 -51
-90 -39 -154 18 -95 14 -129 -20 -158 -23 -20 -30 -35 -30 -62 0 -47 16 -66
70 -85 31 -11 63 -34 100 -74 65 -69 138 -102 241 -109 64 -4 69 -7 139 -64
102 -82 123 -92 205 -92 78 0 93 6 161 65 35 30 52 39 68 34 42 -13 152 -36
226 -47 44 -6 269 -13 543 -15 l468 -3 55 -45 c55 -45 55 -45 133 -45 117 0
217 52 241 124 21 63 22 64 290 75 415 18 552 28 666 51 l110 22 51 -31 c40
-25 61 -31 104 -31 76 0 119 31 163 118 l34 68 94 32 c52 18 103 32 115 32 11
0 38 19 62 45 47 51 53 88 22 139 -11 19 -21 59 -24 105 -10 130 -76 201 -245
266 -76 29 -80 33 -272 229 -237 241 -292 280 -441 311 -41 9 -110 24 -154 34
-128 30 -218 42 -405 52 -236 13 -478 16 -630 7z"/>
</g>
</svg>
