<?xml version="1.0" standalone="no"?>
<!DOCTYPE svg PUBLIC "-//W3C//DTD SVG 20010904//EN"
 "http://www.w3.org/TR/2001/REC-SVG-20010904/DTD/svg10.dtd">
<svg version="1.0" xmlns="http://www.w3.org/2000/svg"
 width="487.000000pt" height="245.000000pt" viewBox="0 0 487.000000 245.000000"
 preserveAspectRatio="xMidYMid meet">
<metadata>
Created by potrace 1.13, written by Peter Selinger 2001-2015
</metadata>
<g transform="translate(0.000000,245.000000) scale(0.100000,-0.100000)"
fill="#000000" stroke="none">
<path d="M2085 2220 c-12 -13 -28 -59 -41 -118 -19 -90 -22 -97 -45 -98 -13
-1 -94 -5 -179 -8 -396 -17 -485 -36 -747 -162 -141 -67 -281 -155 -478 -298
-107 -78 -158 -105 -201 -106 -11 0 -31 -11 -44 -25 -23 -24 -23 -29 -24 -227
-1 -244 5 -267 77 -312 31 -19 65 -31 100 -34 62 -5 83 -21 92 -70 20 -111
133 -208 256 -219 71 -7 180 31 231 81 56 54 62 56 173 36 55 -10 168 -31 250
-46 276 -50 475 -91 488 -102 7 -6 21 -35 32 -64 22 -62 114 -161 183 -196 66
-34 170 -49 224 -32 80 25 123 52 188 116 49 47 74 65 95 66 17 1 98 -6 180
-15 200 -22 503 -41 590 -37 108 6 203 4 286 -5 81 -8 107 -1 189 51 24 16 98
35 240 64 113 22 222 48 243 56 21 8 69 39 106 68 52 41 70 63 79 94 16 53 15
72 -7 123 -14 32 -19 68 -19 132 -1 117 -21 181 -78 251 -147 178 -340 240
-984 317 -91 10 -204 25 -252 32 l-88 12 -87 86 c-49 48 -109 100 -134 117
-25 17 -52 38 -60 48 -8 9 -39 33 -69 53 -137 88 -271 133 -442 146 -62 5 -90
11 -100 23 -20 23 -38 91 -38 139 0 62 -17 77 -96 81 -61 4 -71 1 -89 -18z"/>
</g>
</svg>
