<?xml version="1.0" standalone="no"?>
<!DOCTYPE svg PUBLIC "-//W3C//DTD SVG 20010904//EN"
 "http://www.w3.org/TR/2001/REC-SVG-20010904/DTD/svg10.dtd">
<svg version="1.0" xmlns="http://www.w3.org/2000/svg"
 width="497.000000pt" height="241.000000pt" viewBox="0 0 497.000000 241.000000"
 preserveAspectRatio="xMidYMid meet">
<metadata>
Created by potrace 1.13, written by Peter Selinger 2001-2015
</metadata>
<g transform="translate(0.000000,241.000000) scale(0.100000,-0.100000)"
fill="#000000" stroke="none">
<path d="M2360 2003 c-73 -13 -332 -123 -371 -159 -8 -8 -20 -14 -25 -14 -13
0 -269 -173 -312 -211 -18 -16 -42 -29 -52 -29 -17 0 -20 7 -20 44 0 32 -6 50
-25 70 -50 54 -191 24 -284 -59 -43 -39 -51 -64 -26 -85 17 -14 20 -36 6 -44
-5 -4 -49 -13 -98 -21 -142 -24 -291 -65 -393 -107 -175 -73 -235 -109 -333
-206 -70 -67 -107 -124 -107 -162 0 -55 124 -180 200 -200 38 -10 70 -31 194
-124 47 -36 72 -64 92 -103 30 -60 61 -86 143 -119 65 -27 145 -31 212 -11 39
12 61 11 165 -5 69 -11 217 -22 354 -27 210 -7 241 -10 285 -30 74 -33 214
-61 302 -61 84 0 260 20 413 46 122 20 147 13 156 -48 9 -55 73 -124 151 -164
51 -26 68 -29 148 -29 82 0 96 3 151 32 76 40 166 121 201 182 15 25 37 60 50
77 13 17 23 35 23 40 0 5 10 22 23 37 17 22 41 33 117 52 139 36 144 35 185
-29 62 -97 138 -136 264 -136 82 0 151 30 203 87 35 40 108 181 121 235 4 15
31 47 61 73 67 57 88 100 151 308 28 93 30 177 7 272 -26 103 -45 163 -61 200
-10 22 -22 51 -26 65 -10 34 -43 68 -85 90 -45 22 -200 66 -265 75 -27 4 -149
26 -270 50 -121 24 -272 48 -335 54 -119 12 -225 25 -345 42 -38 6 -110 14
-160 19 -49 5 -137 14 -195 19 -109 11 -546 22 -590 14z"/>
</g>
</svg>
