<?xml version="1.0" standalone="no"?>
<!DOCTYPE svg PUBLIC "-//W3C//DTD SVG 20010904//EN"
 "http://www.w3.org/TR/2001/REC-SVG-20010904/DTD/svg10.dtd">
<svg version="1.0" xmlns="http://www.w3.org/2000/svg"
 width="400.000000pt" height="221.000000pt" viewBox="0 0 400.000000 221.000000"
 preserveAspectRatio="xMidYMid meet">
<metadata>
Created by potrace 1.13, written by Peter Selinger 2001-2015
</metadata>
<g transform="translate(0.000000,221.000000) scale(0.100000,-0.100000)"
fill="#000000" stroke="none">
<path d="M1985 1719 c-322 -30 -477 -62 -573 -120 -20 -12 -68 -52 -107 -89
-68 -65 -72 -67 -135 -73 -88 -9 -115 -30 -115 -88 l0 -44 -75 -6 c-41 -3
-118 -18 -170 -32 -52 -14 -151 -34 -219 -43 l-124 -18 -58 -47 c-39 -33 -61
-60 -69 -86 -17 -52 -27 -63 -85 -89 -62 -27 -68 -34 -89 -105 l-16 -57 41
-93 c23 -52 46 -100 52 -107 20 -26 87 -52 131 -52 38 0 48 -4 68 -31 13 -18
53 -63 89 -100 l66 -69 96 0 97 0 60 55 60 55 127 0 c71 0 184 -5 253 -10
l125 -10 60 -64 c52 -56 69 -67 125 -85 36 -11 110 -23 165 -26 l100 -7 90 64
c77 55 92 69 103 106 10 30 20 43 35 46 12 2 110 16 217 30 156 21 223 35 337
71 142 45 143 46 269 43 135 -3 137 -4 148 -58 3 -17 20 -34 45 -48 33 -19 54
-22 138 -22 94 0 102 2 145 30 56 37 155 147 169 189 9 24 21 33 62 47 29 9
65 28 81 43 28 25 106 137 106 151 0 4 -13 21 -30 38 l-30 32 0 129 c0 115 -2
131 -21 155 -20 26 -22 26 -155 26 l-135 0 -169 163 -170 164 -92 26 c-91 25
-100 26 -463 30 -299 3 -406 0 -560 -14z"/>
</g>
</svg>
