<?xml version="1.0" standalone="no"?>
<!DOCTYPE svg PUBLIC "-//W3C//DTD SVG 20010904//EN"
 "http://www.w3.org/TR/2001/REC-SVG-20010904/DTD/svg10.dtd">
<svg version="1.0" xmlns="http://www.w3.org/2000/svg"
 width="400.000000pt" height="259.000000pt" viewBox="0 0 400.000000 259.000000"
 preserveAspectRatio="xMidYMid meet">
<metadata>
Created by potrace 1.13, written by Peter Selinger 2001-2015
</metadata>
<g transform="translate(0.000000,259.000000) scale(0.100000,-0.100000)"
fill="#000000" stroke="none">
<path d="M1719 2250 c-31 -4 -76 -23 -140 -62 -81 -49 -121 -84 -294 -260
-126 -128 -213 -225 -236 -263 -35 -59 -38 -61 -130 -99 -158 -65 -259 -124
-327 -190 -93 -90 -108 -125 -122 -288 l-11 -136 33 -67 c29 -56 42 -71 84
-93 40 -22 50 -32 52 -57 2 -17 22 -64 45 -105 l43 -75 112 -3 112 -3 44 42
c25 22 57 61 71 85 43 73 67 77 215 39 79 -21 119 -25 239 -25 174 0 181 -3
276 -125 36 -46 71 -85 79 -88 7 -3 54 -8 104 -12 83 -7 94 -6 128 14 21 13
67 54 103 93 63 68 202 181 245 198 40 17 252 59 401 80 83 11 160 23 173 25
23 6 36 -5 94 -73 26 -31 28 -32 109 -32 83 0 211 29 237 54 17 17 35 215 27
313 -5 63 -12 89 -28 110 -20 24 -23 44 -28 173 -4 105 -17 209 -47 377 -22
128 -45 240 -51 250 -12 24 -159 165 -195 188 -27 18 -62 19 -700 20 -369 0
-692 -2 -717 -5z"/>
</g>
</svg>
