<?xml version="1.0" standalone="no"?>
<!DOCTYPE svg PUBLIC "-//W3C//DTD SVG 20010904//EN"
 "http://www.w3.org/TR/2001/REC-SVG-20010904/DTD/svg10.dtd">
<svg version="1.0" xmlns="http://www.w3.org/2000/svg"
 width="400.000000pt" height="209.000000pt" viewBox="0 0 400.000000 209.000000"
 preserveAspectRatio="xMidYMid meet">
<metadata>
Created by potrace 1.13, written by Peter Selinger 2001-2015
</metadata>
<g transform="translate(0.000000,209.000000) scale(0.100000,-0.100000)"
fill="#000000" stroke="none">
<path d="M1455 1499 c-82 -10 -173 -18 -201 -18 -151 -2 -742 -252 -846 -358
-56 -57 -68 -86 -68 -160 0 -56 44 -272 62 -306 5 -10 37 -36 71 -59 l62 -40
88 6 c116 9 162 28 187 76 11 21 26 40 34 43 9 4 41 -3 73 -14 70 -24 178 -35
416 -45 l178 -7 22 -27 c12 -15 29 -40 38 -56 10 -19 46 -46 101 -76 l85 -47
80 9 c102 11 156 33 196 80 17 20 42 42 55 49 12 6 128 21 256 32 233 20 235
20 273 1 21 -11 47 -30 58 -42 42 -46 60 -49 190 -34 105 13 128 20 197 56 97
50 118 75 118 139 0 27 9 72 20 101 11 29 20 64 20 78 0 14 -23 71 -52 128
-44 88 -62 112 -122 166 -110 98 -111 98 -273 85 -173 -14 -192 -13 -223 11
-44 34 -93 52 -130 46 -28 -4 -57 5 -145 44 -91 42 -118 50 -168 50 -74 0
-307 51 -387 85 -68 29 -65 29 -265 4z"/>
</g>
</svg>
