<?xml version="1.0" standalone="no"?>
<!DOCTYPE svg PUBLIC "-//W3C//DTD SVG 20010904//EN"
 "http://www.w3.org/TR/2001/REC-SVG-20010904/DTD/svg10.dtd">
<svg version="1.0" xmlns="http://www.w3.org/2000/svg"
 width="488.000000pt" height="224.000000pt" viewBox="0 0 488.000000 224.000000"
 preserveAspectRatio="xMidYMid meet">
<metadata>
Created by potrace 1.13, written by Peter Selinger 2001-2015
</metadata>
<g transform="translate(0.000000,224.000000) scale(0.100000,-0.100000)"
fill="#000000" stroke="none">
<path d="M2071 2069 c-57 -4 -140 -16 -185 -26 -75 -17 -85 -22 -143 -77 -56
-52 -165 -188 -218 -271 -10 -16 -34 -49 -54 -72 -29 -35 -43 -44 -85 -52 -61
-11 -249 -41 -326 -52 -482 -67 -580 -93 -672 -178 -39 -35 -68 -74 -88 -116
-28 -58 -30 -69 -22 -119 8 -49 6 -62 -15 -105 -23 -46 -24 -51 -9 -80 9 -17
30 -37 46 -46 16 -8 46 -35 67 -60 44 -53 107 -87 208 -111 58 -15 79 -26 120
-65 65 -61 119 -88 200 -100 57 -8 73 -6 123 12 100 37 141 36 407 -6 185 -29
236 -35 313 -35 89 0 96 -4 129 -80 29 -67 100 -133 178 -164 84 -34 205 -37
263 -7 66 35 181 135 219 191 20 30 44 60 52 67 22 16 121 22 421 28 140 3
317 10 395 15 77 5 179 10 226 10 91 0 108 -8 123 -56 24 -79 119 -150 218
-164 138 -20 251 32 331 150 41 61 64 78 117 86 58 8 96 28 116 60 14 20 16
38 10 97 -4 40 -7 115 -6 167 2 183 -46 316 -164 449 -32 36 -83 97 -114 134
-83 102 -266 263 -412 361 -88 59 -117 72 -175 80 -27 4 -63 11 -80 16 -37 11
-219 40 -277 45 -40 3 -198 23 -350 45 -37 6 -93 10 -125 10 -32 0 -74 4 -93
9 -48 13 -540 20 -669 10z"/>
</g>
</svg>
