<?xml version="1.0" standalone="no"?>
<!DOCTYPE svg PUBLIC "-//W3C//DTD SVG 20010904//EN"
 "http://www.w3.org/TR/2001/REC-SVG-20010904/DTD/svg10.dtd">
<svg version="1.0" xmlns="http://www.w3.org/2000/svg"
 width="400.000000pt" height="203.000000pt" viewBox="0 0 400.000000 203.000000"
 preserveAspectRatio="xMidYMid meet">
<metadata>
Created by potrace 1.13, written by Peter Selinger 2001-2015
</metadata>
<g transform="translate(0.000000,203.000000) scale(0.100000,-0.100000)"
fill="#000000" stroke="none">
<path d="M1935 1639 c-38 -5 -122 -11 -185 -13 -173 -5 -213 -24 -388 -186
l-138 -127 -64 -5 c-41 -3 -84 -14 -115 -29 -49 -24 -50 -25 -50 -69 l0 -45
-110 -6 c-60 -4 -164 -14 -230 -22 -66 -9 -146 -18 -178 -22 -43 -5 -63 -12
-75 -28 -9 -12 -46 -51 -82 -86 -62 -61 -65 -68 -70 -120 -5 -55 -6 -56 -51
-78 -43 -20 -46 -25 -52 -68 -5 -34 -1 -67 14 -119 37 -121 41 -126 104 -126
51 0 85 -16 85 -41 0 -16 150 -108 203 -124 67 -20 209 -20 247 0 16 8 43 35
61 60 18 25 37 46 43 46 6 1 117 1 246 0 130 -2 275 2 323 9 104 13 112 9 128
-56 6 -24 18 -49 26 -56 21 -17 292 -24 364 -9 46 10 62 19 87 50 24 30 48 45
104 65 62 22 100 27 258 36 102 6 223 15 270 20 47 5 133 10 192 10 107 0 107
0 127 -29 32 -44 104 -65 205 -58 45 2 93 10 108 17 24 11 58 64 72 112 3 11
15 18 30 18 13 0 53 9 89 20 53 16 73 29 105 65 l39 44 6 143 7 142 -37 79
c-21 44 -51 91 -70 108 -33 28 -37 29 -138 29 l-104 0 -43 38 c-25 20 -89 90
-144 156 -88 106 -168 177 -240 214 -11 6 -120 20 -242 31 -234 22 -600 27
-737 10z"/>
</g>
</svg>
