<?xml version="1.0" standalone="no"?>
<!DOCTYPE svg PUBLIC "-//W3C//DTD SVG 20010904//EN"
 "http://www.w3.org/TR/2001/REC-SVG-20010904/DTD/svg10.dtd">
<svg version="1.0" xmlns="http://www.w3.org/2000/svg"
 width="400.000000pt" height="227.000000pt" viewBox="0 0 400.000000 227.000000"
 preserveAspectRatio="xMidYMid meet">
<metadata>
Created by potrace 1.13, written by Peter Selinger 2001-2015
</metadata>
<g transform="translate(0.000000,227.000000) scale(0.100000,-0.100000)"
fill="#000000" stroke="none">
<path d="M2240 2043 c-366 -18 -481 -38 -632 -113 -81 -41 -119 -67 -175 -122
-60 -60 -77 -71 -110 -73 -79 -5 -134 -18 -158 -37 -32 -25 -31 -38 0 -68 15
-14 25 -33 23 -45 -2 -16 -14 -21 -63 -28 -33 -5 -143 -22 -244 -38 -166 -26
-195 -34 -289 -77 -84 -37 -109 -54 -127 -82 -12 -19 -51 -69 -85 -110 -35
-41 -75 -102 -91 -135 -26 -57 -27 -63 -17 -135 13 -92 44 -156 99 -204 34
-29 51 -36 85 -36 63 0 72 -6 108 -79 19 -36 42 -73 52 -83 11 -9 59 -28 108
-42 82 -24 96 -25 153 -15 41 7 81 22 111 43 42 28 48 36 52 76 l5 45 70 -1
c178 -3 601 -27 611 -35 6 -5 16 -28 23 -51 18 -59 32 -72 117 -108 l74 -31
116 15 c162 22 247 68 259 143 18 110 13 105 135 122 47 7 176 27 286 46 237
40 431 66 450 58 15 -6 20 -19 29 -85 5 -37 14 -53 42 -79 35 -30 39 -31 102
-25 36 3 87 6 113 6 42 0 49 3 62 29 8 15 20 56 25 90 11 70 52 129 179 264
63 66 73 82 69 105 -45 232 -72 335 -100 392 -32 65 -32 65 -77 68 -80 4 -88
9 -138 84 -40 61 -68 87 -190 179 -189 142 -218 152 -509 173 -116 9 -224 15
-240 15 -15 -1 -156 -8 -313 -16z"/>
</g>
</svg>
