<?xml version="1.0" standalone="no"?>
<!DOCTYPE svg PUBLIC "-//W3C//DTD SVG 20010904//EN"
 "http://www.w3.org/TR/2001/REC-SVG-20010904/DTD/svg10.dtd">
<svg version="1.0" xmlns="http://www.w3.org/2000/svg"
 width="400.000000pt" height="209.000000pt" viewBox="0 0 400.000000 209.000000"
 preserveAspectRatio="xMidYMid meet">
<metadata>
Created by potrace 1.13, written by Peter Selinger 2001-2015
</metadata>
<g transform="translate(0.000000,209.000000) scale(0.100000,-0.100000)"
fill="#000000" stroke="none">
<path d="M2120 1899 c-220 -8 -401 -29 -509 -59 -113 -32 -236 -122 -373 -276
-61 -68 -118 -126 -127 -130 -9 -3 -84 -21 -168 -39 -173 -38 -381 -115 -458
-170 -66 -47 -135 -140 -135 -181 0 -17 -7 -53 -15 -80 -23 -77 -19 -103 28
-179 l42 -70 94 -32 c85 -29 100 -37 146 -87 l51 -56 82 0 c67 0 95 5 157 30
75 30 78 30 268 30 105 1 239 7 297 14 58 7 112 11 120 8 8 -3 34 -23 57 -44
24 -21 51 -38 61 -38 10 0 41 -16 68 -35 45 -32 55 -35 119 -35 141 0 169 8
220 59 25 25 56 62 68 81 17 26 37 40 77 54 30 10 105 38 166 62 85 33 157 51
307 79 108 19 219 35 248 35 48 0 55 -3 97 -46 73 -72 56 -70 247 -35 76 14
105 42 105 101 0 62 23 94 105 145 106 66 114 85 115 269 0 130 -2 142 -25
181 -29 50 -33 52 -148 76 -131 27 -180 54 -320 177 -133 117 -129 115 -318
168 -9 2 -85 11 -170 19 -163 16 -263 17 -579 4z"/>
</g>
</svg>
