<?xml version="1.0" standalone="no"?>
<!DOCTYPE svg PUBLIC "-//W3C//DTD SVG 20010904//EN"
 "http://www.w3.org/TR/2001/REC-SVG-20010904/DTD/svg10.dtd">
<svg version="1.0" xmlns="http://www.w3.org/2000/svg"
 width="400.000000pt" height="219.000000pt" viewBox="0 0 400.000000 219.000000"
 preserveAspectRatio="xMidYMid meet">
<metadata>
Created by potrace 1.13, written by Peter Selinger 2001-2015
</metadata>
<g transform="translate(0.000000,219.000000) scale(0.100000,-0.100000)"
fill="#000000" stroke="none">
<path d="M2010 1945 c-265 -31 -431 -61 -502 -91 -37 -15 -108 -65 -199 -139
-119 -98 -145 -115 -175 -115 -46 0 -70 -14 -89 -50 -17 -33 -48 -44 -155 -55
-111 -11 -260 -52 -384 -104 -65 -28 -128 -57 -140 -64 -36 -24 -77 -116 -70
-158 5 -28 1 -41 -20 -66 -53 -63 -58 -91 -36 -197 21 -102 43 -166 63 -178 7
-4 24 -8 38 -8 36 0 75 -33 117 -99 66 -105 57 -101 206 -101 l131 0 65 38
c48 28 67 45 73 67 19 64 2 60 268 56 134 -2 251 -7 261 -12 9 -5 29 -30 45
-56 26 -41 40 -52 97 -76 56 -23 81 -27 160 -27 86 0 96 2 132 28 22 16 66 59
98 95 84 96 126 111 316 112 80 0 261 6 404 14 142 7 269 10 283 6 16 -4 30
-20 43 -50 22 -52 32 -58 134 -79 88 -18 149 -20 175 -7 18 10 48 70 78 156
17 47 23 52 86 83 75 37 93 61 133 186 20 63 20 73 8 109 -9 26 -14 84 -14
168 l0 128 -55 65 c-58 68 -92 86 -165 86 -42 0 -75 20 -94 58 -18 35 -261
186 -377 235 l-85 36 -301 16 c-354 18 -309 19 -553 -10z"/>
</g>
</svg>
