<?xml version="1.0" standalone="no"?>
<!DOCTYPE svg PUBLIC "-//W3C//DTD SVG 20010904//EN"
 "http://www.w3.org/TR/2001/REC-SVG-20010904/DTD/svg10.dtd">
<svg version="1.0" xmlns="http://www.w3.org/2000/svg"
 width="488.000000pt" height="231.000000pt" viewBox="0 0 488.000000 231.000000"
 preserveAspectRatio="xMidYMid meet">
<metadata>
Created by potrace 1.13, written by Peter Selinger 2001-2015
</metadata>
<g transform="translate(0.000000,231.000000) scale(0.100000,-0.100000)"
fill="#000000" stroke="none">
<path d="M2445 1700 c-32 -6 -84 -17 -115 -26 -55 -16 -90 -31 -365 -154 -189
-85 -222 -96 -331 -110 -196 -25 -556 -123 -699 -191 -34 -16 -67 -29 -72 -29
-6 0 -34 -16 -62 -35 -28 -19 -74 -44 -103 -56 -55 -21 -128 -71 -164 -111
-38 -41 -48 -145 -22 -213 21 -52 54 -79 125 -100 32 -9 74 -23 93 -30 19 -6
72 -20 118 -31 68 -16 92 -27 135 -62 29 -23 71 -51 94 -62 48 -22 129 -26
178 -9 33 12 18 15 345 -72 123 -33 204 -36 390 -15 69 8 154 16 189 18 64 3
64 3 72 -26 12 -42 75 -103 128 -123 31 -12 72 -18 126 -17 140 1 273 72 345
184 18 28 41 55 52 61 23 13 184 37 318 49 52 4 136 14 185 21 50 7 108 13
130 13 38 1 40 -1 70 -59 28 -52 39 -64 91 -90 51 -26 70 -30 139 -30 71 1 86
4 136 32 74 43 134 105 173 177 25 49 45 70 106 113 91 65 177 154 202 212 30
65 19 98 -51 162 -117 109 -133 121 -229 181 -53 33 -106 69 -117 78 -49 44
-353 190 -427 205 -18 4 -71 18 -118 32 -225 65 -908 137 -1065 113z"/>
</g>
</svg>
