<?xml version="1.0" standalone="no"?>
<!DOCTYPE svg PUBLIC "-//W3C//DTD SVG 20010904//EN"
 "http://www.w3.org/TR/2001/REC-SVG-20010904/DTD/svg10.dtd">
<svg version="1.0" xmlns="http://www.w3.org/2000/svg"
 width="450.000000pt" height="184.000000pt" viewBox="0 0 450.000000 184.000000"
 preserveAspectRatio="xMidYMid meet">
<metadata>
Created by potrace 1.13, written by Peter Selinger 2001-2015
</metadata>
<g transform="translate(0.000000,184.000000) scale(0.100000,-0.100000)"
fill="#000000" stroke="none">
<path d="M1650 1639 c-65 -8 -261 -68 -354 -108 -31 -14 -81 -53 -134 -104
-81 -79 -226 -265 -261 -337 -24 -48 -48 -139 -61 -235 -6 -44 -15 -108 -21
-143 -10 -53 -9 -66 5 -87 9 -14 26 -71 37 -128 26 -124 38 -149 89 -183 35
-23 45 -25 92 -19 78 11 97 21 155 81 l53 54 104 0 c57 0 189 -7 293 -15 304
-24 286 -21 345 -70 28 -25 84 -58 124 -75 63 -26 85 -30 163 -30 121 0 179
14 252 62 85 55 89 55 251 68 114 8 173 8 291 -4 85 -8 156 -20 166 -28 10 -7
38 -28 62 -46 44 -33 44 -33 129 -27 209 15 199 12 253 71 33 35 65 59 96 70
85 32 95 56 60 141 -11 27 -11 45 4 122 29 149 -1 263 -84 322 -71 50 -166 95
-299 140 -169 58 -171 59 -322 176 -125 97 -311 202 -437 247 -179 64 -809
115 -1051 85z"/>
</g>
</svg>
