<?xml version="1.0" standalone="no"?>
<!DOCTYPE svg PUBLIC "-//W3C//DTD SVG 20010904//EN"
 "http://www.w3.org/TR/2001/REC-SVG-20010904/DTD/svg10.dtd">
<svg version="1.0" xmlns="http://www.w3.org/2000/svg"
 width="549.000000pt" height="237.000000pt" viewBox="0 0 549.000000 237.000000"
 preserveAspectRatio="xMidYMid meet">
<metadata>
Created by potrace 1.13, written by Peter Selinger 2001-2015
</metadata>
<g transform="translate(0.000000,237.000000) scale(0.100000,-0.100000)"
fill="#000000" stroke="none">
<path d="M2642 2139 c-109 -10 -163 -29 -253 -88 -108 -70 -291 -237 -389
-354 -69 -82 -92 -103 -120 -109 -42 -9 -161 -23 -370 -43 -85 -8 -193 -19
-240 -25 -105 -12 -197 -13 -204 -1 -3 4 7 38 21 75 25 63 26 70 12 94 -19 35
-58 39 -155 17 -87 -19 -120 -50 -154 -144 -12 -33 -30 -67 -39 -75 -18 -16
-114 -36 -173 -36 -57 0 -156 -49 -201 -99 -57 -64 -70 -102 -72 -209 l-2 -94
-34 -26 c-89 -69 -113 -125 -85 -194 19 -45 79 -88 123 -88 51 0 79 -16 112
-63 18 -24 48 -51 67 -60 36 -17 172 -37 258 -37 48 0 52 -2 115 -69 106 -110
193 -141 345 -123 93 10 126 27 219 109 21 19 48 38 60 42 26 10 575 -7 596
-18 8 -4 27 -38 42 -75 31 -77 83 -144 155 -198 92 -71 199 -91 334 -64 98 20
138 39 202 95 56 50 105 123 143 214 16 38 37 73 47 78 10 5 44 11 75 12 49 2
64 -2 93 -24 69 -51 138 -74 225 -74 116 0 184 25 257 93 33 31 45 35 115 43
43 4 112 8 154 8 87 1 96 -5 145 -102 33 -67 102 -135 170 -168 28 -13 82 -26
134 -32 79 -8 94 -7 153 12 78 26 145 75 187 136 27 40 90 181 90 203 0 21 39
40 95 46 113 13 205 37 236 63 41 35 52 59 56 124 4 47 0 62 -20 92 -22 33
-24 47 -26 157 -3 195 -39 259 -201 350 -41 23 -90 51 -109 62 -79 45 -149 93
-195 134 -26 24 -52 44 -57 44 -4 0 -35 24 -67 53 -150 133 -299 220 -457 266
-142 42 -260 58 -500 70 -248 11 -795 12 -913 0z"/>
</g>
</svg>
