<?xml version="1.0" standalone="no"?>
<!DOCTYPE svg PUBLIC "-//W3C//DTD SVG 20010904//EN"
 "http://www.w3.org/TR/2001/REC-SVG-20010904/DTD/svg10.dtd">
<svg version="1.0" xmlns="http://www.w3.org/2000/svg"
 width="515.000000pt" height="253.000000pt" viewBox="0 0 515.000000 253.000000"
 preserveAspectRatio="xMidYMid meet">
<metadata>
Created by potrace 1.13, written by Peter Selinger 2001-2015
</metadata>
<g transform="translate(0.000000,253.000000) scale(0.100000,-0.100000)"
fill="#000000" stroke="none">
<path d="M2235 2323 c-109 -38 -214 -137 -435 -409 -106 -130 -108 -131 -310
-159 -106 -15 -481 -89 -680 -134 -47 -10 -155 -34 -240 -52 -145 -31 -157
-35 -190 -68 -39 -39 -56 -84 -65 -175 -7 -61 -14 -71 -84 -124 -61 -46 -63
-147 -6 -211 18 -20 55 -64 82 -98 86 -108 148 -147 291 -183 32 -8 60 -28
115 -84 57 -57 83 -75 122 -87 72 -20 187 -17 262 9 48 16 69 19 95 11 18 -5
46 -9 63 -9 16 0 68 -13 115 -29 47 -15 121 -34 165 -41 44 -6 114 -19 155
-27 49 -10 138 -16 253 -17 175 -1 179 -1 198 -25 10 -13 19 -31 19 -40 0 -9
13 -35 28 -59 77 -115 226 -180 353 -153 142 30 281 139 341 267 16 34 37 69
48 79 26 24 297 74 645 120 61 8 142 19 180 26 204 32 225 30 253 -23 9 -18
39 -54 65 -80 62 -61 121 -76 233 -60 59 8 87 18 130 46 64 43 136 136 155
201 16 52 29 67 89 98 31 16 50 35 68 69 l24 47 -20 58 c-18 53 -19 68 -9 166
12 119 2 231 -26 283 -8 16 -29 57 -46 91 -64 131 -149 256 -292 433 -161 199
-182 208 -529 246 -74 8 -169 19 -210 24 -183 23 -258 32 -305 35 -160 14
-386 28 -565 35 -493 21 -481 21 -535 3z"/>
</g>
</svg>
