<?xml version="1.0" standalone="no"?>
<!DOCTYPE svg PUBLIC "-//W3C//DTD SVG 20010904//EN"
 "http://www.w3.org/TR/2001/REC-SVG-20010904/DTD/svg10.dtd">
<svg version="1.0" xmlns="http://www.w3.org/2000/svg"
 width="146.000000pt" height="196.000000pt" viewBox="0 0 146.000000 196.000000"
 preserveAspectRatio="xMidYMid meet">
<metadata>
Created by potrace 1.13, written by Peter Selinger 2001-2015
</metadata>
<g transform="translate(0.000000,196.000000) scale(0.100000,-0.100000)"
fill="#000000" stroke="none">
<path d="M660 1931 c-82 -22 -116 -40 -163 -86 -59 -57 -71 -111 -43 -180 19
-45 55 -77 137 -126 68 -40 89 -63 63 -73 -8 -3 -14 -12 -14 -19 0 -19 -54
-27 -123 -20 -61 6 -93 -6 -107 -42 -5 -13 -27 -36 -50 -50 -60 -38 -78 -53
-163 -137 -65 -64 -85 -93 -121 -170 -71 -151 -85 -345 -35 -500 10 -33 19
-73 19 -89 0 -42 187 -299 217 -299 13 0 42 -12 66 -27 23 -15 68 -39 100 -55
32 -16 57 -34 57 -43 0 -13 32 -15 234 -15 221 0 235 1 241 19 3 10 34 33 68
51 74 39 183 117 216 156 34 39 105 142 124 180 39 75 76 222 74 294 -1 71
-19 208 -32 247 -76 222 -265 405 -479 463 -32 9 -50 20 -54 32 -2 10 -10 18
-18 18 -7 0 -11 6 -8 13 7 17 72 57 92 57 35 0 135 66 154 100 35 67 18 153
-42 211 -98 95 -261 131 -410 90z m272 -139 c86 -50 99 -83 47 -126 -38 -32
-51 -33 -64 -4 -14 31 -59 51 -128 56 -72 6 -147 -20 -147 -49 0 -26 -20 -24
-53 6 -48 46 -34 73 63 119 49 23 65 26 150 23 74 -3 103 -8 132 -25z m-211
-576 c-7 -8 -11 -27 -9 -43 3 -24 9 -29 43 -35 22 -4 52 -5 68 -2 23 5 27 10
27 40 0 19 3 34 6 34 10 0 104 -42 104 -47 0 -2 -7 -11 -16 -20 -8 -9 -14 -25
-12 -37 2 -17 10 -21 38 -21 30 0 35 4 40 28 l5 27 54 -48 53 -48 -26 -19
c-25 -19 -36 -55 -16 -55 6 0 10 -8 10 -18 0 -27 20 -42 57 -42 27 0 33 4 33
23 1 20 2 19 17 -8 9 -16 22 -54 29 -82 l12 -53 -43 0 -43 0 0 -48 c-1 -65 8
-76 52 -69 32 5 36 3 32 -11 -2 -9 -8 -33 -11 -52 -4 -19 -14 -52 -22 -73 -15
-37 -16 -37 -33 -17 -25 29 -56 26 -65 -7 -3 -15 -15 -33 -26 -41 -26 -18 -26
-69 1 -77 28 -9 25 -19 -16 -54 -31 -25 -39 -27 -50 -16 -8 7 -14 18 -14 24 0
19 -51 13 -57 -7 -3 -14 -12 -17 -33 -14 -25 3 -30 0 -36 -22 -4 -17 -1 -31
11 -43 17 -16 17 -17 -6 -23 -85 -23 -79 -24 -79 19 l0 40 -75 0 c-65 0 -75
-3 -80 -20 -4 -10 -4 -28 0 -38 5 -18 4 -19 -37 -6 -66 20 -98 37 -98 52 0 7
5 13 11 13 18 0 5 62 -16 74 -11 6 -24 17 -28 24 -4 6 -23 12 -41 12 -26 0
-35 -5 -40 -22 -6 -22 -8 -21 -41 16 -19 22 -43 53 -53 71 l-19 31 27 -4 c22
-3 28 1 33 20 10 35 8 48 -6 48 -9 0 -12 9 -9 28 2 18 -2 35 -13 45 -18 19
-50 22 -60 7 -15 -24 -25 6 -25 70 0 68 13 99 25 60 17 -53 72 -2 81 75 l7 55
-37 0 c-20 0 -36 2 -36 6 0 3 10 22 22 43 21 36 22 37 40 19 25 -25 68 -24 75
2 3 11 12 20 19 20 10 0 14 13 14 40 0 37 -2 40 -27 40 l-26 0 23 25 c30 32
32 31 48 -5 15 -33 58 -42 68 -15 4 8 15 15 25 15 26 0 34 24 21 65 l-10 34
52 11 c28 5 62 12 76 14 14 2 29 4 34 5 5 0 3 -5 -3 -13z m-4 -1002 c-3 -3
-12 -4 -19 -1 -8 3 -5 6 6 6 11 1 17 -2 13 -5z"/>
<path d="M645 1101 c-11 -5 -38 -14 -60 -21 -50 -16 -95 -47 -95 -66 0 -8 -9
-14 -20 -14 -11 0 -20 -4 -20 -8 0 -5 -11 -22 -25 -38 -14 -16 -25 -39 -25
-50 0 -12 -6 -24 -14 -27 -14 -6 -24 -41 -33 -118 l-5 -47 68 2 69 1 6 37 c3
21 14 56 24 78 14 32 21 38 32 29 7 -6 13 -20 13 -30 0 -12 11 -21 33 -27 28
-7 32 -12 29 -36 -3 -26 -1 -27 30 -24 30 3 33 0 36 -27 4 -36 26 -55 64 -55
24 0 32 7 44 35 14 34 17 35 49 29 28 -5 35 -3 35 10 0 17 85 60 100 51 6 -3
10 -30 10 -59 l0 -53 73 -6 c39 -3 73 -4 74 -3 7 6 -21 176 -28 176 -5 0 -9 7
-9 15 0 8 -6 15 -13 15 -9 0 -12 11 -9 35 3 26 0 35 -11 35 -8 0 -18 11 -21
25 -8 33 -27 32 -66 -5 -36 -34 -70 -40 -70 -12 1 20 33 62 49 62 17 0 13 31
-6 46 -30 22 -47 16 -68 -27 -10 -23 -25 -44 -32 -46 -31 -12 0 -62 40 -63 9
0 17 -7 17 -15 0 -8 9 -20 20 -27 11 -7 20 -18 20 -25 0 -17 -52 -43 -85 -43
-14 0 -35 -9 -47 -19 -15 -15 -29 -18 -52 -15 -50 9 -56 12 -56 33 0 14 -8 21
-27 23 -22 2 -29 9 -31 30 -3 27 -9 31 -67 40 -14 3 -3 12 40 33 49 25 72 30
128 29 l67 -1 0 49 c0 26 5 48 10 48 16 0 11 37 -6 44 -22 9 -155 6 -179 -3z
m22 -57 c3 -8 1 -20 -6 -27 -8 -8 -11 -8 -11 0 0 6 -3 18 -6 27 -3 9 -1 16 5
16 7 0 14 -7 18 -16z m-134 -68 c9 -7 17 -21 17 -30 0 -19 -1 -19 -34 -7 -18
8 -23 15 -19 30 6 24 12 25 36 7z m-65 -108 c2 -19 -2 -27 -17 -31 -25 -6 -38
26 -19 47 18 21 32 14 36 -16z"/>
<path d="M437 694 c-3 -4 -24 -6 -47 -6 -53 1 -53 -8 -4 -150 4 -10 13 -18 20
-18 8 0 14 -9 14 -20 0 -13 7 -20 19 -20 13 0 20 -9 25 -30 3 -18 12 -30 21
-30 8 0 15 -4 15 -10 0 -5 7 -10 15 -10 8 0 15 -4 15 -10 0 -5 9 -10 20 -10
11 0 20 -4 20 -10 0 -5 7 -10 15 -10 8 0 15 -4 15 -10 0 -5 9 -10 19 -10 17 0
19 9 20 75 1 47 -3 75 -10 75 -5 0 -22 14 -36 30 -14 17 -35 30 -47 30 -19 0
-25 11 -44 75 -17 58 -26 75 -40 75 -10 0 -21 -3 -25 -6z m83 -157 c0 -2 -11
-17 -25 -33 -14 -16 -25 -25 -25 -20 0 6 10 20 22 33 20 22 28 27 28 20z"/>
<path d="M980 636 c0 -13 -3 -26 -7 -28 -5 -1 -20 -20 -35 -40 -29 -38 -36
-68 -17 -68 5 0 27 -11 47 -25 37 -25 72 -33 72 -16 0 6 11 22 25 37 14 15 25
33 25 40 0 8 5 14 10 14 6 0 10 10 10 23 0 15 -9 26 -28 35 -16 6 -38 21 -50
32 -29 28 -52 26 -52 -4z"/>
<path d="M856 482 c-3 -5 -5 -36 -4 -70 1 -53 4 -62 19 -62 10 0 24 6 31 13 7
8 26 17 41 21 38 9 34 35 -10 74 -37 31 -67 41 -77 24z"/>
<path d="M687 464 c-4 -4 -7 -24 -7 -45 0 -21 -4 -41 -10 -44 -5 -3 -10 -15
-10 -26 0 -17 8 -19 90 -19 83 0 90 2 90 20 0 10 -6 23 -12 27 -7 4 -21 25
-30 46 -10 20 -24 37 -32 37 -7 0 -26 3 -42 6 -16 3 -32 2 -37 -2z"/>
</g>
</svg>
