<?xml version="1.0" standalone="no"?>
<!DOCTYPE svg PUBLIC "-//W3C//DTD SVG 20010904//EN"
 "http://www.w3.org/TR/2001/REC-SVG-20010904/DTD/svg10.dtd">
<svg version="1.0" xmlns="http://www.w3.org/2000/svg"
 width="155.000000pt" height="212.000000pt" viewBox="0 0 155.000000 212.000000"
 preserveAspectRatio="xMidYMid meet">
<metadata>
Created by potrace 1.13, written by Peter Selinger 2001-2015
</metadata>
<g transform="translate(0.000000,212.000000) scale(0.100000,-0.100000)"
fill="#000000" stroke="none">
<path d="M512 2073 c-77 -66 -97 -110 -97 -209 0 -92 7 -107 115 -226 33 -36
60 -68 60 -71 0 -3 -17 -8 -37 -11 -69 -13 -214 -92 -286 -157 -325 -294 -346
-792 -45 -1103 74 -77 78 -83 72 -118 l-5 -36 58 -17 c400 -117 576 -144 658
-99 38 21 94 55 310 188 l96 59 -6 37 c-4 24 -2 41 5 45 14 9 74 129 98 198
33 94 48 252 34 370 -13 114 -27 161 -78 261 -50 98 -117 180 -199 243 -40 31
-155 93 -209 113 -24 9 -26 13 -15 26 7 9 32 29 55 45 23 15 55 50 70 76 26
44 29 56 29 138 -1 81 -4 96 -32 150 -30 58 -62 95 -113 128 -21 15 -57 17
-255 17 l-230 0 -53 -47z"/>
</g>
</svg>
