<?xml version="1.0" standalone="no"?>
<!DOCTYPE svg PUBLIC "-//W3C//DTD SVG 20010904//EN"
 "http://www.w3.org/TR/2001/REC-SVG-20010904/DTD/svg10.dtd">
<svg version="1.0" xmlns="http://www.w3.org/2000/svg"
 width="324.000000pt" height="465.000000pt" viewBox="0 0 324.000000 465.000000"
 preserveAspectRatio="xMidYMid meet">
<metadata>
Created by potrace 1.13, written by Peter Selinger 2001-2015
</metadata>
<g transform="translate(0.000000,465.000000) scale(0.100000,-0.100000)"
fill="#000000" stroke="none">
<path d="M1500 4630 c-328 -54 -515 -199 -551 -431 -16 -102 -7 -166 34 -252
42 -87 108 -153 198 -198 35 -18 70 -41 77 -50 16 -23 94 -63 192 -99 65 -25
75 -31 74 -52 -1 -12 -8 -78 -15 -145 -12 -114 -15 -123 -34 -123 -31 0 -45
-19 -45 -62 0 -44 -18 -50 -51 -19 -24 22 -91 41 -145 41 -40 0 -90 -15 -139
-41 -32 -17 -84 -84 -85 -109 0 -8 -21 -23 -48 -34 -73 -29 -215 -112 -305
-179 -264 -195 -451 -460 -571 -810 -69 -200 -95 -488 -62 -686 40 -238 97
-401 213 -608 63 -113 215 -290 326 -379 125 -99 172 -134 183 -134 4 0 21
-11 38 -24 17 -12 46 -31 63 -40 27 -14 33 -22 33 -50 0 -41 4 -42 111 -51 46
-4 129 -20 184 -36 250 -71 540 -77 805 -18 106 23 172 32 245 33 55 1 106 5
113 10 8 5 12 22 10 43 -2 30 1 37 27 49 27 12 69 39 172 109 189 128 408 392
521 628 23 48 45 99 48 112 3 14 13 25 21 25 12 0 14 7 10 29 -4 16 2 60 12
98 66 241 64 606 -5 875 -19 77 -112 282 -170 379 -47 78 -224 318 -279 381
-99 110 -321 238 -485 278 -47 12 -114 30 -150 40 -36 11 -74 21 -85 22 -16 3
-19 11 -18 35 4 49 -12 80 -45 88 l-29 6 -17 140 c-10 78 -16 142 -14 144 2 2
37 13 78 25 97 28 198 77 205 98 4 15 32 35 108 79 48 27 110 101 145 172 36
73 37 78 37 186 -1 112 -6 133 -52 220 -67 124 -191 203 -410 261 -82 22 -124
27 -258 30 -88 1 -185 -1 -215 -6z m443 -204 c124 -37 173 -63 233 -122 108
-106 114 -222 18 -332 -65 -74 -74 -77 -128 -45 -40 25 -45 32 -46 64 0 35 -2
36 -88 77 l-87 42 -139 0 -138 0 -99 -51 c-93 -48 -99 -53 -99 -82 -1 -28 -7
-35 -46 -53 l-45 -22 -42 32 c-52 39 -102 121 -110 178 -14 97 62 212 180 270
36 18 104 42 152 55 76 20 104 22 241 19 132 -3 168 -7 243 -30z m-533 -536
c0 -6 12 -16 28 -23 15 -6 30 -15 33 -20 3 -5 37 -17 75 -27 l69 -18 -62 -1
c-36 -1 -63 3 -63 9 0 6 -9 10 -20 10 -11 0 -20 -4 -20 -10 0 -5 -9 -10 -20
-10 -11 0 -20 5 -20 10 0 6 -9 10 -20 10 -11 0 -20 -4 -20 -10 0 -5 -16 -10
-35 -10 -28 0 -35 4 -35 20 0 13 7 20 19 20 10 0 21 7 25 15 3 8 12 15 21 15
8 0 15 7 15 15 0 8 7 15 15 15 8 0 15 -5 15 -10z m583 -87 c-13 -2 -33 -2 -45
0 -13 2 -3 4 22 4 25 0 35 -2 23 -4z m-185 -10 c-10 -2 -28 -2 -40 0 -13 2 -5
4 17 4 22 1 32 -1 23 -4z m-143 -190 c-13 -45 -13 -157 -1 -165 8 -5 7 -8 -1
-8 -19 0 -16 -51 5 -66 12 -9 13 -13 3 -14 -10 0 -12 -9 -7 -33 l6 -33 -41 4
c-36 4 -40 7 -35 26 3 11 6 31 6 44 0 13 6 22 15 22 8 0 15 9 15 20 0 11 -7
20 -15 20 -16 0 -21 26 -5 32 6 2 6 30 2 76 -5 40 -4 72 1 72 4 0 15 7 23 15
24 24 37 18 29 -12z m-5 -373 c-36 -3 -71 -10 -78 -14 -6 -4 -24 0 -39 8 -26
14 -22 15 77 14 97 -1 100 -1 40 -8z m-253 -326 c-3 -3 -12 -4 -19 -1 -8 3 -5
6 6 6 11 1 17 -2 13 -5z m199 -70 c-30 -30 -9 -104 29 -104 7 0 15 -16 17 -35
4 -34 3 -35 -29 -35 -31 0 -33 2 -33 35 0 28 -4 35 -19 35 -11 0 -23 -5 -26
-10 -8 -13 14 -110 25 -110 17 0 20 -144 4 -200 -9 -30 -18 -66 -21 -80 l-5
-25 110 -1 111 0 -6 65 c-6 81 11 251 26 260 6 4 12 25 14 47 2 34 -1 39 -20
42 -20 3 -23 -1 -23 -32 0 -34 -2 -36 -31 -36 -28 0 -31 3 -25 23 3 12 6 30 6
39 0 11 10 18 28 20 26 3 27 6 27 56 0 48 2 53 20 48 11 -4 38 -9 60 -12 86
-13 225 -58 322 -104 l103 -49 -18 -30 c-9 -17 -20 -31 -24 -31 -5 0 -8 -10
-8 -22 0 -30 -33 -97 -47 -98 -7 0 -13 -4 -13 -10 0 -15 -151 -240 -161 -240
-19 0 -8 -38 16 -54 35 -23 52 -20 58 12 6 28 132 224 148 230 5 2 9 14 9 26
0 39 23 75 50 78 20 2 28 12 38 46 8 23 17 42 20 42 4 0 19 -10 34 -23 14 -12
46 -38 70 -56 77 -62 173 -164 231 -248 42 -59 52 -80 38 -76 -11 3 -28 -4
-40 -16 -12 -12 -28 -21 -36 -21 -10 0 -15 -10 -15 -28 0 -21 -7 -33 -27 -43
-20 -11 -27 -11 -30 -1 -5 14 -35 16 -48 3 -19 -18 -242 -131 -259 -131 -9 0
-16 -8 -16 -20 0 -11 4 -20 9 -20 5 0 14 -14 20 -30 13 -39 36 -47 72 -26 83
49 207 106 232 106 28 0 36 20 18 50 -15 22 56 45 76 24 34 -34 103 -4 103 45
1 30 32 -47 56 -139 8 -30 19 -69 25 -86 23 -75 50 -336 31 -308 -4 6 -33 12
-64 13 -45 1 -58 -2 -58 -14 0 -8 -9 -15 -19 -15 -11 0 -26 -3 -35 -6 -13 -5
-16 1 -16 31 0 22 4 34 10 30 6 -4 24 -4 40 0 24 5 30 12 30 32 0 23 -3 25
-31 19 -17 -3 -38 -6 -45 -6 -8 0 -14 -9 -14 -20 0 -28 -42 -32 -195 -21 -71
5 -130 8 -131 8 -1 -1 -4 -39 -7 -84 l-6 -83 68 0 c37 0 116 -3 174 -7 l107
-6 0 31 c0 31 0 31 33 20 17 -6 38 -20 46 -30 11 -17 21 -19 62 -13 l49 7 -6
-49 c-12 -87 -73 -284 -117 -370 -23 -46 -43 -77 -45 -69 -2 10 -14 16 -33 16
-22 0 -29 5 -29 20 0 27 -33 26 -52 -2 -14 -21 -15 -21 -40 -2 -23 17 -24 21
-11 41 12 18 19 20 39 12 38 -14 54 -11 54 11 0 23 -28 40 -69 40 -19 0 -56
18 -103 48 -40 27 -87 56 -104 65 -17 9 -36 23 -43 31 -14 17 -51 22 -51 8 0
-11 -77 -129 -90 -137 -17 -11 -12 -45 8 -45 23 0 262 -161 262 -176 0 -19 29
-44 51 -44 27 0 25 35 -4 57 -23 17 -23 17 -4 39 19 22 21 22 42 6 18 -14 20
-20 12 -43 -16 -40 12 -77 60 -81 l37 -3 -105 -105 c-117 -119 -143 -141 -214
-187 -43 -28 -50 -30 -53 -15 -2 9 -10 22 -17 27 -7 6 -14 19 -16 30 -5 23
-43 32 -65 15 -11 -10 -14 -10 -14 0 0 8 -7 21 -16 31 -14 16 -14 18 5 24 26
8 27 29 4 53 -64 65 -73 84 -73 150 0 96 -18 155 -76 248 -39 62 -63 86 -130
129 -108 70 -272 95 -400 61 -112 -30 -234 -125 -286 -222 -14 -26 -30 -44
-40 -44 -10 0 -18 -7 -18 -15 0 -16 -138 -227 -152 -233 -4 -2 -8 -10 -8 -18
0 -8 -7 -14 -15 -14 -16 0 -35 -30 -35 -54 0 -25 39 -19 51 8 11 23 12 23 39
8 18 -11 26 -22 22 -34 -2 -10 -8 -18 -13 -18 -5 0 -9 -10 -9 -22 0 -20 -1
-21 -13 -4 -9 12 -23 17 -47 14 -28 -2 -36 -8 -38 -27 -7 -48 -25 -53 -73 -18
-85 62 -239 233 -302 333 l-25 40 54 -4 54 -4 0 40 c0 34 4 41 25 46 14 4 25
11 25 17 0 6 7 4 15 -5 8 -8 15 -22 15 -30 0 -9 6 -16 13 -16 6 0 -3 -9 -20
-20 -36 -22 -46 -60 -15 -60 22 0 62 27 62 43 0 19 98 96 204 163 43 26 47 32
42 59 -10 49 -60 154 -74 155 -8 0 -26 -8 -40 -19 -46 -32 -201 -101 -227
-101 -14 0 -25 -6 -25 -14 0 -7 -15 -17 -32 -22 -40 -12 -54 -54 -18 -54 12 0
30 5 41 10 17 10 21 6 34 -22 13 -31 12 -33 -6 -36 -11 -2 -23 -10 -26 -18 -8
-20 -23 -17 -23 5 0 22 -19 31 -62 31 -33 0 -58 -20 -58 -47 0 -47 -82 178
-95 262 -4 22 -9 48 -12 58 -2 9 0 17 6 17 6 0 11 -9 11 -19 0 -19 6 -19 118
-14 64 2 131 6 147 7 17 1 40 3 53 4 15 1 22 8 22 22 0 14 -7 20 -22 21 -13 1
2 5 32 9 30 5 57 7 59 4 2 -2 -3 -4 -12 -4 -11 0 -17 -8 -17 -21 0 -21 3 -21
88 -14 121 9 132 13 132 41 0 13 5 24 10 24 6 0 10 -9 10 -20 0 -15 7 -20 29
-20 25 0 30 5 34 28 4 26 4 26 6 -4 0 -19 8 -34 17 -38 26 -10 62 -7 76 7 7 8
29 14 48 14 19 1 55 2 79 3 24 2 46 -2 50 -8 12 -19 114 -8 148 16 30 21 34
22 55 8 30 -20 128 -33 128 -17 0 6 7 11 15 11 8 0 15 5 15 10 0 6 5 10 11 10
23 0 47 41 53 90 6 48 17 62 31 40 10 -16 55 -12 55 5 0 10 10 15 29 15 26 0
30 5 40 46 19 75 44 124 63 124 10 0 18 5 18 10 0 6 6 10 14 10 8 0 23 18 32
40 12 26 27 43 41 46 13 4 23 12 23 20 0 8 9 14 20 14 11 0 20 5 20 10 0 6 7
10 15 10 8 0 15 5 15 10 0 6 7 10 15 10 8 0 15 8 15 19 0 13 9 20 30 25 24 4
30 11 30 31 0 22 3 25 25 19 37 -9 55 11 55 62 0 51 -18 58 -60 25 -217 -170
-307 -231 -340 -231 -20 0 -31 -6 -35 -20 -3 -11 -14 -20 -24 -20 -10 0 -21
-3 -24 -7 -4 -3 -19 -7 -34 -9 -136 -11 -147 -19 -141 -100 l4 -51 -73 5 c-71
5 -73 4 -103 -28 -16 -18 -30 -39 -30 -47 0 -13 -2 -13 -15 0 -27 28 -74 31
-106 8 -15 -12 -35 -21 -44 -21 -8 0 -15 -7 -15 -15 0 -12 -14 -15 -69 -15
-39 0 -73 -4 -76 -10 -3 -5 -27 -10 -52 -10 -36 0 -46 -4 -50 -20 -4 -15 -11
-18 -27 -14 -12 3 -35 0 -51 -6 -17 -6 -161 -29 -322 -50 -160 -21 -296 -41
-302 -44 -11 -7 -20 130 -10 146 4 7 18 4 37 -7 40 -24 82 -14 82 20 0 22 4
25 35 25 33 0 35 -2 35 -35 0 -31 -3 -35 -35 -41 -25 -4 -35 -11 -35 -25 0
-15 7 -19 40 -19 36 0 40 3 40 25 0 34 39 39 200 25 72 -6 133 -10 135 -8 1 1
6 36 9 77 l7 74 -38 -7 c-125 -22 -181 -17 -265 22 -27 12 -38 23 -38 40 0 19
-5 22 -40 22 -33 0 -40 -4 -40 -19 0 -20 18 -31 51 -31 14 0 19 -7 19 -28 0
-26 -2 -28 -34 -24 -29 3 -36 9 -41 33 -7 32 -48 50 -68 30 -6 -6 -19 -11 -29
-11 -24 0 -24 39 3 147 20 80 101 279 132 324 12 17 15 17 20 4 4 -8 16 -15
27 -15 11 0 20 -7 20 -15 0 -20 56 -20 64 0 5 14 8 14 30 -1 20 -13 24 -21 19
-45 -4 -23 -2 -29 11 -29 10 0 50 -14 91 -31 54 -22 86 -43 120 -80 48 -52 71
-61 82 -31 4 9 9 19 13 22 14 12 40 61 40 76 0 13 -7 15 -35 10 -51 -10 -118
24 -189 94 -63 64 -86 74 -87 38 0 -13 -3 -17 -6 -10 -3 8 -19 22 -37 33 -17
10 -25 19 -18 19 18 0 15 60 -5 82 -9 10 -24 18 -35 18 -26 0 -23 6 28 69 66
80 149 155 225 206 90 60 96 62 110 31 7 -14 16 -26 21 -26 4 0 8 -7 8 -15 0
-10 10 -15 29 -15 22 0 30 -6 35 -24 3 -14 13 -26 22 -28 8 -2 -1 -8 -21 -14
-34 -11 -37 -10 -51 17 -20 39 -54 40 -54 1 0 -35 23 -57 68 -67 24 -5 43 -21
71 -58 53 -73 59 -85 67 -155 7 -69 22 -79 64 -42 13 11 35 23 49 27 14 3 32
10 39 16 16 12 16 47 -1 47 -17 0 -122 209 -118 235 2 11 8 23 14 27 18 11
-12 88 -35 88 -14 0 -18 -8 -18 -33 0 -18 5 -38 10 -43 7 -7 -1 -14 -25 -21
-33 -11 -35 -10 -35 13 0 16 -8 28 -22 34 -22 9 -22 9 3 9 15 1 32 8 39 16 17
20 4 66 -20 72 -36 9 -21 31 35 52 30 11 67 23 82 27 15 4 33 10 38 15 12 9
161 37 225 42 106 8 103 9 86 -9z m-696 -39 c-27 -14 -36 -13 -25 4 3 6 16 11
28 11 21 -1 21 -1 -3 -15z m-101 -67 c-19 -15 -37 -28 -41 -28 -17 0 -7 36 13
50 11 8 28 20 37 27 14 9 18 9 21 -5 2 -9 -11 -28 -30 -44z m-99 -82 c0 -2 -7
-6 -15 -10 -8 -3 -15 -1 -15 4 0 6 7 10 15 10 8 0 15 -2 15 -4z m947 -148 c-3
-8 -6 -5 -6 6 -1 11 2 17 5 13 3 -3 4 -12 1 -19z m-1137 -158 c0 -5 -5 -10
-11 -10 -5 0 -7 5 -4 10 3 6 8 10 11 10 2 0 4 -4 4 -10z m-90 -145 c0 -8 -4
-15 -10 -15 -5 0 -7 7 -4 15 4 8 8 15 10 15 2 0 4 -7 4 -15z m2320 -25 c0 -5
-5 -10 -11 -10 -5 0 -7 5 -4 10 3 6 8 10 11 10 2 0 4 -4 4 -10z m-2420 -207
c-11 -17 -11 -17 -6 0 3 10 6 24 7 30 0 9 2 9 5 0 3 -7 0 -20 -6 -30z m-33
-135 c-3 -7 -5 -2 -5 12 0 14 2 19 5 13 2 -7 2 -19 0 -25z m1460 -50 c-3 -8
-6 -5 -6 6 -1 11 2 17 5 13 3 -3 4 -12 1 -19z m-1480 -230 c-3 -7 -5 -2 -5 12
0 14 2 19 5 13 2 -7 2 -19 0 -25z m13 -99 c0 -6 -4 -7 -10 -4 -5 3 -10 11 -10
16 0 6 5 7 10 4 6 -3 10 -11 10 -16z m1265 -271 c10 -31 13 -33 63 -36 57 -3
82 8 82 39 0 23 0 23 50 3 32 -13 40 -21 40 -41 0 -22 4 -25 26 -20 19 3 35
-3 56 -22 27 -24 29 -30 19 -49 -6 -12 -16 -22 -21 -22 -17 0 -11 -27 13 -64
19 -31 27 -36 56 -34 38 3 49 -12 50 -69 1 -29 -2 -33 -24 -33 -18 0 -25 -5
-25 -20 0 -13 7 -20 20 -20 23 0 25 -13 9 -59 -10 -28 -39 -44 -39 -21 0 23
-41 9 -53 -17 -6 -16 -17 -32 -24 -36 -16 -10 -17 -59 -1 -75 9 -9 8 -15 -8
-27 -35 -28 -54 -37 -54 -25 0 5 -9 10 -20 10 -13 0 -20 -7 -20 -20 0 -20 -20
-32 -75 -46 -21 -5 -24 -2 -27 28 l-3 33 -62 3 c-60 3 -63 2 -69 -23 -7 -29
-10 -30 -56 -10 -30 12 -35 18 -30 40 4 24 2 26 -32 23 -29 -2 -43 4 -67 29
l-31 31 26 -5 c24 -5 26 -3 26 31 0 43 -22 91 -45 100 -9 3 -28 6 -41 6 -20 0
-24 5 -24 29 0 16 -3 36 -6 45 -4 12 0 16 15 16 12 0 21 6 21 15 0 18 8 19 90
1 121 -26 160 -38 160 -51 0 -23 51 -55 86 -55 38 0 84 18 84 34 0 6 7 0 16
-12 10 -15 25 -22 48 -22 42 0 56 15 56 60 0 48 -35 70 -77 51 -22 -10 -28
-10 -32 0 -17 52 -87 74 -143 45 -28 -15 -31 -14 -207 23 -51 11 -96 22 -98
25 -3 3 0 13 7 21 9 11 16 13 24 5 16 -16 56 -12 63 8 4 9 13 23 20 30 16 16
17 64 2 79 -8 8 -1 18 24 37 39 30 47 32 47 11 0 -8 9 -15 20 -15 14 0 20 7
20 24 0 21 25 40 60 45 3 1 10 -14 15 -31z m-1147 -163 c-3 -3 -9 2 -12 12 -6
14 -5 15 5 6 7 -7 10 -15 7 -18z m152 -225 c0 -5 -2 -10 -4 -10 -3 0 -8 5 -11
10 -3 6 -1 10 4 10 6 0 11 -4 11 -10z m541 -135 c21 -7 25 -20 9 -30 -5 -3
-10 -19 -10 -36 0 -22 5 -29 19 -29 25 0 44 48 36 96 -5 38 -5 38 24 -19 22
-43 29 -67 24 -89 -5 -27 -4 -30 19 -27 17 3 38 -8 69 -34 24 -21 76 -54 115
-74 46 -22 76 -44 83 -60 10 -21 9 -24 -6 -19 -10 2 -38 8 -63 11 -91 14 -215
53 -331 106 l-66 31 10 39 c5 21 13 39 18 39 5 0 9 11 9 25 0 14 -4 25 -9 25
-5 0 -7 9 -4 20 3 11 9 20 14 20 5 0 10 10 10 23 1 16 3 17 6 5 2 -9 13 -20
24 -23z m959 -20 c0 -8 8 -15 18 -15 23 0 46 -49 26 -57 -19 -7 -18 -67 1 -83
8 -7 15 -19 15 -26 0 -8 6 -14 13 -15 6 0 -17 -12 -53 -26 -91 -36 -249 -71
-352 -79 -84 -7 -88 -6 -88 13 0 18 10 23 65 33 94 18 196 70 254 130 37 38
50 47 55 35 3 -8 15 -15 26 -15 24 0 28 35 5 60 -8 9 -12 25 -8 38 6 25 23 30
23 7z m120 -95 c0 -5 -4 -10 -10 -10 -5 0 -10 5 -10 10 0 6 5 10 10 10 6 0 10
-4 10 -10z"/>
<path d="M1432 2683 c2 -31 7 -39 26 -41 16 -3 22 2 22 15 0 39 -13 63 -32 63
-16 0 -19 -6 -16 -37z"/>
<path d="M1305 2679 c-9 -28 13 -69 37 -69 19 0 23 24 12 68 -8 28 -40 29 -49
1z"/>
<path d="M1876 2674 c-13 -34 -7 -64 14 -64 20 0 40 33 40 66 0 19 -46 18 -54
-2z"/>
<path d="M1986 2644 c-13 -33 -7 -64 12 -64 18 0 42 37 42 65 0 20 -46 19 -54
-1z"/>
<path d="M2100 2601 c-17 -33 -13 -71 8 -71 20 0 42 38 42 70 0 26 -36 26 -50
1z"/>
<path d="M897 2493 c-22 -21 11 -73 46 -73 21 0 22 37 3 63 -13 17 -37 22 -49
10z"/>
<path d="M2296 2474 c-23 -23 -21 -64 3 -64 22 0 51 35 51 62 0 23 -33 24 -54
2z"/>
<path d="M800 2392 c0 -23 30 -52 53 -52 21 0 23 36 3 56 -21 21 -56 18 -56
-4z"/>
<path d="M2377 2392 c-10 -10 -17 -26 -17 -35 0 -21 36 -23 56 -3 8 8 14 24
14 35 0 27 -31 28 -53 3z"/>
<path d="M720 2304 c0 -31 25 -53 58 -54 29 0 29 30 -1 58 -33 31 -57 29 -57
-4z"/>
<path d="M2452 2308 c-19 -19 -15 -58 6 -58 47 1 76 70 29 70 -13 0 -28 -5
-35 -12z"/>
<path d="M2522 2208 c-17 -17 -15 -48 4 -48 27 0 54 20 54 40 0 23 -38 28 -58
8z"/>
<path d="M600 2100 c0 -20 27 -40 54 -40 21 0 21 46 0 54 -31 12 -54 6 -54
-14z"/>
<path d="M540 1990 c0 -20 33 -40 66 -40 19 0 18 46 -2 54 -34 13 -64 7 -64
-14z"/>
<path d="M2628 2003 c-27 -7 -23 -43 5 -43 42 0 67 12 67 31 0 19 -28 24 -72
12z"/>
<path d="M500 1880 c0 -20 33 -40 66 -40 19 0 18 46 -2 54 -34 13 -64 7 -64
-14z"/>
<path d="M2673 1893 c-14 -3 -23 -12 -23 -23 0 -25 15 -33 50 -25 23 5 30 12
30 31 0 25 -7 27 -57 17z"/>
<path d="M2683 1783 c-7 -2 -13 -16 -13 -30 0 -23 3 -25 31 -19 17 3 35 6 40
6 5 0 9 11 9 25 0 21 -5 25 -27 24 -16 0 -34 -3 -40 -6z"/>
<path d="M2670 1422 c0 -22 18 -32 57 -32 20 0 24 4 21 23 -2 18 -10 23 -40
25 -32 3 -38 0 -38 -16z"/>
<path d="M2670 1311 c0 -19 18 -31 46 -31 19 0 18 36 -2 44 -28 11 -44 6 -44
-13z"/>
<path d="M523 1313 c-7 -2 -13 -13 -13 -24 0 -13 7 -19 24 -19 37 0 56 10 56
31 0 14 -7 19 -27 18 -16 0 -34 -3 -40 -6z"/>
<path d="M2620 1201 c0 -21 19 -31 56 -31 32 0 33 35 2 44 -41 11 -58 7 -58
-13z"/>
<path d="M752 888 c-21 -21 -14 -48 11 -48 28 0 47 17 47 42 0 21 -39 25 -58
6z"/>
<path d="M2370 822 c0 -25 19 -42 47 -42 18 0 23 6 23 24 0 24 -16 36 -51 36
-12 0 -19 -7 -19 -18z"/>
<path d="M842 808 c-19 -19 -15 -58 6 -58 23 0 52 30 52 53 0 20 -40 23 -58 5z"/>
<path d="M2290 743 c1 -27 26 -55 47 -51 23 4 29 34 9 53 -21 21 -56 19 -56
-2z"/>
<path d="M2200 676 c0 -23 16 -36 46 -36 17 0 19 31 2 48 -21 21 -48 14 -48
-12z"/>
</g>
</svg>
