<?xml version="1.0" standalone="no"?>
<!DOCTYPE svg PUBLIC "-//W3C//DTD SVG 20010904//EN"
 "http://www.w3.org/TR/2001/REC-SVG-20010904/DTD/svg10.dtd">
<svg version="1.0" xmlns="http://www.w3.org/2000/svg"
 width="183.000000pt" height="271.000000pt" viewBox="0 0 183.000000 271.000000"
 preserveAspectRatio="xMidYMid meet">
<metadata>
Created by potrace 1.13, written by Peter Selinger 2001-2015
</metadata>
<g transform="translate(0.000000,271.000000) scale(0.100000,-0.100000)"
fill="#000000" stroke="none">
<path d="M744 2521 c-76 -28 -106 -46 -151 -91 -73 -72 -91 -169 -50 -263 29
-65 90 -120 185 -167 66 -33 70 -37 75 -75 3 -22 2 -44 -4 -49 -5 -6 -9 -20
-9 -33 0 -33 -62 -50 -125 -34 -61 15 -128 -7 -151 -51 -8 -16 -38 -44 -67
-62 -139 -89 -270 -215 -287 -276 -5 -19 -18 -40 -28 -47 -23 -14 -73 -139
-98 -248 -14 -61 -19 -115 -18 -225 1 -136 3 -151 33 -240 57 -166 104 -242
231 -371 62 -64 209 -169 235 -169 8 0 15 -4 17 -8 2 -5 34 -21 73 -36 38 -15
79 -39 92 -52 l23 -25 207 5 c115 2 209 4 211 5 1 1 7 12 11 25 7 17 20 25 48
29 52 9 196 79 263 130 100 75 203 190 259 290 40 72 91 242 101 338 5 52 6
95 2 97 -4 1 -6 31 -4 66 3 61 -26 214 -48 254 -5 10 -30 60 -55 112 -52 105
-98 169 -204 281 -80 86 -162 131 -267 148 -32 6 -90 16 -129 23 l-70 13 -7
45 c-15 81 -8 101 37 117 22 7 53 26 70 42 16 16 44 36 60 44 68 35 107 107
108 202 0 51 -6 70 -36 125 -41 74 -90 108 -193 135 -83 22 -273 19 -340 -4z
m344 -141 c80 -43 102 -70 102 -127 0 -38 -5 -50 -39 -85 -46 -46 -76 -46 -86
3 -9 41 -38 53 -135 53 -116 1 -138 -6 -145 -48 -10 -48 -46 -63 -85 -35 -40
30 -54 69 -45 126 8 52 31 79 100 115 64 34 85 38 180 35 80 -3 97 -7 153 -37z
m-100 -655 c3 -3 -29 -5 -71 -5 -43 0 -77 4 -77 8 0 8 140 5 148 -3z m-328
-40 c-46 -18 -64 -17 -25 0 17 8 37 14 45 14 8 0 -1 -7 -20 -14z m-60 -19 c0
-2 -7 -7 -16 -10 -8 -3 -12 -2 -9 4 6 10 25 14 25 6z m340 -16 c0 -5 -4 -10
-10 -10 -5 0 -10 5 -10 10 0 6 5 10 10 10 6 0 10 -4 10 -10z m-79 -30 c15 0
19 -7 19 -33 0 -18 4 -37 9 -42 5 -6 11 -21 13 -35 2 -17 10 -26 26 -28 18 -3
23 2 28 27 4 16 12 32 20 35 8 3 14 20 14 41 0 40 5 42 82 21 86 -24 114 -33
152 -51 34 -16 35 -18 21 -38 -8 -12 -15 -29 -15 -39 0 -10 -7 -18 -15 -18 -9
0 -15 -9 -15 -25 0 -15 -6 -25 -14 -25 -7 0 -16 -14 -20 -30 -5 -28 -40 -87
-59 -101 -18 -13 -2 -44 24 -47 23 -3 30 3 49 45 13 26 30 56 38 65 8 10 12
26 9 37 -3 13 1 21 14 24 11 3 19 14 19 26 0 12 6 21 15 21 8 0 15 9 15 19 0
47 42 26 135 -66 28 -27 56 -61 64 -76 8 -15 21 -28 30 -28 9 -1 3 -4 -14 -8
-18 -3 -34 -15 -40 -29 -12 -28 -45 -30 -45 -2 0 13 -7 20 -20 20 -13 0 -20
-7 -20 -20 0 -11 7 -20 15 -20 8 0 15 -8 14 -17 0 -11 -3 -13 -6 -5 -8 21 -36
14 -90 -23 -29 -19 -57 -35 -63 -35 -13 0 -13 -46 0 -71 10 -19 55 -27 62 -11
6 15 76 52 98 52 20 0 22 4 17 30 -6 27 -4 30 21 31 15 1 36 1 47 0 11 -1 30
7 42 18 l21 20 7 -37 c4 -20 14 -50 23 -67 8 -16 21 -58 28 -92 11 -61 11 -63
-10 -63 -11 0 -45 -3 -73 -6 -42 -5 -53 -4 -53 7 0 12 -19 15 -95 14 l-96 0 7
-55 c4 -30 7 -56 8 -56 0 -1 38 -4 83 -7 l82 -5 6 27 c5 24 10 27 38 23 18 -3
36 -11 40 -18 4 -8 22 -14 39 -14 l31 0 -7 -47 c-8 -61 -49 -200 -54 -185 -2
7 -10 12 -18 12 -8 0 -14 5 -14 10 0 6 -6 10 -14 10 -7 0 -16 11 -18 25 -4 18
-1 25 10 25 10 0 13 7 10 25 -3 14 -1 25 4 25 5 0 8 10 6 23 -2 14 -11 23 -26
25 -20 3 -23 0 -20 -20 2 -13 -2 -27 -9 -33 -6 -5 -15 -27 -18 -47 -6 -33 -4
-39 16 -48 l24 -11 -25 6 c-14 2 -31 5 -38 5 -9 0 -10 5 -2 19 18 35 12 51
-19 51 -34 0 -101 26 -101 40 0 6 -8 10 -18 10 -11 0 -26 -16 -40 -45 -25 -52
-28 -75 -8 -75 19 0 106 -50 106 -61 0 -5 6 -9 14 -9 8 0 16 -10 18 -23 4 -31
48 -38 48 -7 0 14 -8 24 -20 27 -16 4 -19 11 -14 27 9 32 22 41 17 12 -4 -21
0 -26 21 -32 17 -4 26 -13 26 -25 0 -14 9 -21 30 -25 l29 -6 -22 -33 c-28 -41
-95 -114 -131 -143 -24 -18 -30 -19 -42 -7 -8 7 -14 18 -14 24 0 6 -11 11 -24
11 -13 0 -26 7 -30 15 -3 8 -16 16 -28 16 -17 1 -18 2 -5 6 25 7 21 31 -11 58
-16 13 -40 40 -53 59 -49 73 -81 24 -39 -59 11 -22 20 -48 20 -58 0 -16 6 -18
30 -15 29 4 29 4 36 -53 4 -39 12 -60 22 -64 13 -5 13 -8 -4 -19 -28 -19 -141
-54 -202 -62 l-53 -7 7 28 c5 20 2 31 -9 39 -8 7 -17 23 -19 36 -2 19 -9 25
-28 25 -21 0 -25 -5 -25 -27 1 -16 -3 -28 -7 -28 -4 0 -10 -16 -14 -36 l-7
-36 -51 7 c-94 12 -246 71 -246 95 0 5 7 16 16 25 9 9 14 25 11 35 -3 11 -1
23 4 26 5 3 9 15 9 27 0 16 3 18 12 9 27 -27 43 -12 66 61 28 89 28 104 0 128
-31 25 -68 25 -68 0 0 -24 -47 -81 -66 -81 -24 0 -16 -40 14 -65 20 -18 23
-24 11 -25 -9 0 -19 -6 -22 -14 -3 -7 -19 -16 -36 -19 -18 -4 -31 -13 -31 -22
0 -42 -58 4 -136 108 l-45 60 30 13 c17 7 31 20 31 29 0 8 5 15 10 15 6 0 10
-9 10 -20 0 -26 40 -27 47 -2 3 14 11 18 29 14 16 -3 24 0 24 9 0 8 20 30 45
49 47 37 53 55 34 109 -13 37 -29 39 -94 11 -26 -11 -56 -20 -67 -20 -17 0
-19 -4 -13 -39 6 -36 5 -39 -22 -46 -15 -5 -35 -7 -44 -6 -9 1 -27 -3 -41 -8
-23 -9 -27 -7 -36 17 -14 38 -32 142 -32 182 0 26 3 31 12 22 17 -17 49 -15
63 5 8 11 14 13 19 5 4 -7 2 -12 -3 -12 -6 0 -11 -9 -11 -21 0 -16 5 -20 28
-17 25 3 27 6 27 53 0 47 -2 50 -30 56 -22 5 -24 7 -8 8 43 2 53 -9 53 -60 0
-42 3 -49 20 -49 11 0 20 5 20 11 0 8 19 10 65 6 63 -6 65 -6 65 17 0 21 5 24
45 28 42 3 45 1 51 -24 8 -38 51 -49 74 -20 16 20 18 20 77 4 33 -10 67 -25
77 -34 23 -23 89 -24 107 -2 8 9 19 53 24 97 10 80 10 81 43 89 26 7 32 14 32
35 0 15 -7 34 -15 43 -14 15 -14 19 -1 29 8 7 22 46 32 87 10 41 21 74 26 74
4 0 8 9 8 20 0 23 -25 27 -43 7 -21 -23 -74 -131 -82 -164 -5 -26 -12 -33 -30
-33 -28 0 -39 -27 -30 -70 4 -18 2 -30 -3 -30 -6 0 -13 -13 -17 -29 -9 -41
-37 -50 -127 -38 -66 8 -78 12 -78 28 0 12 -10 21 -25 25 -27 7 -55 -10 -55
-32 0 -10 -6 -11 -25 -4 -18 7 -196 30 -231 30 -2 0 -4 7 -4 15 0 10 -10 15
-30 15 -16 0 -30 -4 -30 -10 0 -5 -18 -10 -40 -10 -22 0 -40 4 -40 9 0 18 32
136 42 155 7 13 13 15 21 7 6 -6 26 -11 44 -11 25 0 33 4 34 18 0 13 2 12 9
-5 6 -13 18 -23 30 -23 13 0 20 -7 20 -20 0 -16 7 -20 30 -20 18 0 42 -11 63
-30 42 -36 72 -39 81 -7 12 44 7 55 -28 61 -57 11 -134 116 -84 116 16 0 19 5
16 23 -4 20 -1 23 19 19 18 -3 23 0 23 17 0 14 6 21 20 21 13 0 20 7 20 20 0
15 6 20 28 19 27 0 27 -1 5 -11 -24 -12 -33 -58 -11 -58 27 0 58 -43 58 -82 0
-45 9 -47 68 -16 42 23 55 51 28 61 -7 3 -24 31 -37 62 -21 52 -26 56 -51 53
-27 -4 -28 -3 -34 54 -4 32 -11 61 -15 64 -15 9 -10 22 11 29 12 4 20 16 21
28 0 12 3 16 6 10 9 -23 43 -15 44 10 1 18 2 19 6 4 4 -16 11 -18 41 -12 60
10 72 16 73 33 1 15 2 15 6 0 2 -10 13 -18 24 -18z m-331 -140 c11 -11 20 -24
20 -30 0 -5 9 -10 20 -10 11 0 20 -4 20 -10 0 -5 -11 -10 -25 -10 -18 0 -25
-5 -25 -20 0 -15 -7 -20 -25 -20 -16 0 -25 -6 -25 -15 0 -9 -9 -15 -21 -15
-17 0 -20 -5 -17 -25 4 -19 1 -25 -13 -25 -14 0 -19 -7 -19 -25 0 -16 -6 -25
-15 -25 -8 0 -15 9 -15 20 0 12 -10 25 -24 32 -24 10 -24 11 -8 37 18 28 30
44 50 66 6 7 12 18 12 24 0 6 7 11 15 11 8 0 15 4 15 9 0 5 9 13 20 16 11 3
20 13 20 21 0 20 17 17 40 -6z m-313 -166 c-3 -3 -12 -4 -19 -1 -8 3 -5 6 6 6
11 1 17 -2 13 -5z m237 -89 c-4 -8 -8 -15 -10 -15 -2 0 -4 7 -4 15 0 8 4 15
10 15 5 0 7 -7 4 -15z m-334 -185 c0 -11 -4 -20 -10 -20 -5 0 -10 9 -10 20 0
11 5 20 10 20 6 0 10 -9 10 -20z m30 -345 c7 -22 25 -68 41 -102 29 -65 26
-88 -3 -30 -26 49 -68 159 -68 176 0 24 16 0 30 -44z m279 -22 c10 -19 9 -23
-4 -23 -10 0 -15 9 -15 27 0 29 2 29 19 -4z"/>
<path d="M842 1513 c2 -20 9 -29 26 -31 14 -2 22 2 22 11 0 29 -12 47 -32 47
-15 0 -19 -6 -16 -27z"/>
<path d="M780 1500 c0 -25 4 -30 25 -30 17 0 25 -6 25 -16 0 -9 7 -22 15 -28
18 -13 20 -34 10 -91 l-7 -41 69 0 68 0 0 88 0 88 -76 0 -76 0 -6 30 c-5 21
-12 30 -27 30 -16 0 -20 -7 -20 -30z"/>
<path d="M980 1505 c0 -18 5 -25 20 -25 15 0 20 7 20 25 0 18 -5 25 -20 25
-15 0 -20 -7 -20 -25z"/>
<path d="M1040 1495 c0 -18 5 -25 20 -25 15 0 20 7 20 25 0 18 -5 25 -20 25
-15 0 -20 -7 -20 -25z"/>
<path d="M720 1485 c0 -18 5 -25 20 -25 15 0 20 7 20 25 0 18 -5 25 -20 25
-15 0 -20 -7 -20 -25z"/>
<path d="M1097 1503 c-4 -3 -7 -17 -7 -30 0 -16 6 -23 19 -23 19 0 31 18 31
46 0 14 -31 20 -43 7z"/>
<path d="M662 1473 c2 -20 9 -29 26 -31 20 -3 23 0 20 25 -2 20 -9 29 -26 31
-20 3 -23 0 -20 -25z"/>
<path d="M1150 1465 c0 -18 5 -25 20 -25 15 0 20 7 20 25 0 18 -5 25 -20 25
-15 0 -20 -7 -20 -25z"/>
<path d="M1260 1380 c0 -13 7 -20 20 -20 13 0 20 7 20 20 0 13 -7 20 -20 20
-13 0 -20 -7 -20 -20z"/>
<path d="M1317 1373 c-4 -3 -7 -15 -7 -25 0 -14 6 -19 23 -16 29 4 38 48 9 48
-10 0 -22 -3 -25 -7z"/>
<path d="M1350 1310 c0 -15 7 -20 25 -20 18 0 25 5 25 20 0 15 -7 20 -25 20
-18 0 -25 -5 -25 -20z"/>
<path d="M350 1160 c0 -16 7 -20 30 -20 23 0 30 4 30 20 0 16 -7 20 -30 20
-23 0 -30 -4 -30 -20z"/>
<path d="M1440 1160 c0 -16 7 -20 30 -20 23 0 30 4 30 20 0 16 -7 20 -30 20
-23 0 -30 -4 -30 -20z"/>
<path d="M330 1101 c0 -19 18 -31 46 -31 8 0 14 10 14 25 0 21 -5 25 -30 25
-23 0 -30 -5 -30 -19z"/>
<path d="M1470 1100 c0 -15 7 -20 25 -20 18 0 25 5 25 20 0 15 -7 20 -25 20
-18 0 -25 -5 -25 -20z"/>
<path d="M1480 1050 c0 -15 7 -20 25 -20 18 0 25 5 25 20 0 15 -7 20 -25 20
-18 0 -25 -5 -25 -20z"/>
<path d="M1490 1000 c0 -15 7 -20 25 -20 18 0 25 5 25 20 0 15 -7 20 -25 20
-18 0 -25 -5 -25 -20z"/>
<path d="M1482 868 c2 -17 11 -24 31 -26 23 -3 27 0 27 22 0 22 -4 26 -31 26
-26 0 -30 -3 -27 -22z"/>
<path d="M300 840 c0 -16 7 -20 30 -20 23 0 30 4 30 20 0 16 -7 20 -30 20 -23
0 -30 -4 -30 -20z"/>
<path d="M317 803 c-4 -3 -7 -15 -7 -25 0 -30 54 -21 58 10 3 17 -1 22 -21 22
-13 0 -27 -3 -30 -7z"/>
<path d="M433 593 c-7 -2 -13 -14 -13 -24 0 -31 54 -22 58 9 3 22 -14 28 -45
15z"/>
<path d="M1352 538 c2 -15 11 -24 26 -26 20 -3 23 0 20 20 -2 15 -11 24 -26
26 -20 3 -23 0 -20 -20z"/>
<path d="M467 543 c-4 -3 -7 -15 -7 -25 0 -13 7 -18 25 -18 18 0 25 -5 25 -20
0 -13 7 -20 20 -20 13 0 20 7 20 20 0 13 -7 20 -20 20 -15 0 -20 7 -20 25 0
18 -5 25 -18 25 -10 0 -22 -3 -25 -7z"/>
<path d="M864 460 l1 -90 63 0 c55 0 62 2 62 20 0 11 -4 20 -10 20 -5 0 -10 9
-10 20 0 10 -5 42 -11 70 l-11 50 -43 0 -43 0 2 -90z"/>
<path d="M1310 507 c0 -29 12 -47 32 -47 30 0 21 54 -9 58 -15 2 -23 -2 -23
-11z"/>
<path d="M1262 458 c2 -15 11 -24 26 -26 20 -3 23 0 20 20 -2 15 -11 24 -26
26 -20 3 -23 0 -20 -20z"/>
<path d="M620 400 c0 -13 7 -20 20 -20 13 0 20 7 20 20 0 13 -7 20 -20 20 -13
0 -20 -7 -20 -20z"/>
<path d="M1142 388 c2 -15 11 -24 26 -26 20 -3 23 0 20 20 -2 15 -11 24 -26
26 -20 3 -23 0 -20 -20z"/>
<path d="M690 380 c0 -13 7 -20 20 -20 13 0 20 7 20 20 0 13 -7 20 -20 20 -13
0 -20 -7 -20 -20z"/>
<path d="M1082 358 c2 -15 11 -24 26 -26 20 -3 23 0 20 20 -2 15 -11 24 -26
26 -20 3 -23 0 -20 -20z"/>
<path d="M750 350 c0 -15 7 -20 25 -20 18 0 25 5 25 20 0 15 -7 20 -25 20 -18
0 -25 -5 -25 -20z"/>
<path d="M1030 340 c0 -23 4 -30 20 -30 16 0 20 7 20 30 0 23 -4 30 -20 30
-16 0 -20 -7 -20 -30z"/>
<path d="M827 353 c-4 -3 -7 -15 -7 -25 0 -14 6 -19 23 -16 29 4 38 48 9 48
-10 0 -22 -3 -25 -7z"/>
<path d="M960 346 c0 -28 12 -46 31 -46 19 0 24 16 13 44 -8 20 -44 21 -44 2z"/>
</g>
</svg>
