<?xml version="1.0" standalone="no"?>
<!DOCTYPE svg PUBLIC "-//W3C//DTD SVG 20010904//EN"
 "http://www.w3.org/TR/2001/REC-SVG-20010904/DTD/svg10.dtd">
<svg version="1.0" xmlns="http://www.w3.org/2000/svg"
 width="155.000000pt" height="212.000000pt" viewBox="0 0 155.000000 212.000000"
 preserveAspectRatio="xMidYMid meet">
<metadata>
Created by potrace 1.13, written by Peter Selinger 2001-2015
</metadata>
<g transform="translate(0.000000,212.000000) scale(0.100000,-0.100000)"
fill="#000000" stroke="none">
<path d="M729 2101 c-62 -19 -106 -54 -145 -117 -16 -24 -32 -44 -36 -44 -12
0 -10 -58 2 -65 6 -3 10 -19 10 -34 0 -45 47 -126 91 -157 31 -21 39 -32 35
-48 -3 -12 -6 -28 -6 -37 0 -11 -21 -20 -82 -33 -171 -36 -340 -147 -442 -290
-218 -304 -190 -715 66 -980 74 -77 78 -83 72 -118 l-5 -36 58 -17 c155 -46
452 -119 483 -119 29 -1 36 3 38 22 5 30 36 29 50 -3 21 -45 4 -53 397 189
l96 59 -6 37 c-4 24 -2 41 5 45 14 9 74 129 98 198 33 94 48 252 34 370 -13
114 -27 161 -78 261 -50 99 -117 180 -200 244 -64 49 -193 110 -279 132 -43
11 -79 21 -79 23 -27 64 -26 67 15 92 50 32 85 86 99 153 7 29 18 59 26 66 21
22 17 36 -18 71 -18 17 -44 46 -57 64 -48 65 -157 97 -242 72z m115 -95 c51
-21 76 -54 76 -98 0 -21 5 -38 10 -38 17 0 11 -37 -10 -72 l-20 -33 6 31 c5
27 1 35 -34 62 -57 45 -112 43 -174 -7 -11 -9 -18 -28 -18 -50 l-1 -36 -19 35
c-24 43 -25 64 -4 85 10 9 14 25 11 38 -7 27 8 48 53 76 41 24 77 27 124 7z
m-99 -572 c3 -20 4 -39 1 -42 -3 -3 -6 3 -6 13 0 14 -6 16 -31 11 -17 -3 -38
-6 -45 -6 -25 0 -15 -40 17 -71 27 -27 31 -35 25 -67 -3 -20 -10 -38 -16 -40
-5 -2 -10 -12 -10 -23 0 -18 7 -20 103 -17 l102 3 3 69 c3 70 16 96 47 96 11
0 15 7 13 23 -4 28 -44 36 -51 10 -4 -16 -6 -15 -12 5 -4 12 -13 22 -20 22 -8
0 -11 8 -8 21 5 19 11 21 57 14 28 -3 55 -10 61 -14 5 -4 32 -16 58 -25 33
-12 47 -23 45 -34 -4 -19 -68 -23 -68 -4 0 6 -12 12 -26 12 -21 0 -25 -4 -22
-22 2 -15 11 -24 26 -26 12 -2 22 -8 22 -13 0 -5 12 -9 28 -9 15 0 22 -4 16
-8 -5 -4 -27 -35 -48 -69 -21 -35 -42 -63 -47 -63 -20 0 -7 -38 16 -48 37 -17
55 -15 55 7 0 27 46 104 66 111 30 11 64 -1 64 -21 0 -12 7 -19 20 -19 11 0
20 -7 20 -14 0 -20 -62 -66 -89 -66 -12 0 -25 -8 -28 -17 -8 -20 -21 -32 -176
-155 -77 -63 -117 -88 -136 -88 -15 0 -31 -3 -34 -7 -13 -13 -122 -2 -133 13
-10 12 -27 13 -94 8 -64 -6 -84 -4 -90 7 -8 11 -16 11 -57 0 -84 -24 -87 -23
-118 3 -17 14 -24 26 -17 26 6 0 12 11 12 25 0 20 -5 25 -24 25 -20 0 -24 -6
-30 -40 -5 -35 -10 -40 -32 -40 -24 0 -25 2 -19 33 11 49 36 121 46 132 5 5 9
17 9 27 0 22 26 24 34 2 9 -24 7 -54 -4 -54 -5 0 -10 -11 -10 -25 0 -18 5 -25
20 -25 13 0 20 7 20 20 0 13 7 20 20 20 11 0 20 5 20 10 0 6 9 10 20 10 26 0
90 -57 90 -81 0 -34 37 -23 46 13 3 18 15 39 25 46 11 7 19 24 19 36 0 22 -4
23 -57 24 -47 0 -61 5 -75 22 -22 28 -24 80 -3 80 9 0 15 9 15 25 0 18 -5 25
-20 25 -13 0 -20 -7 -20 -19 0 -24 -28 -31 -60 -14 -14 7 -19 13 -12 13 6 0
12 7 12 15 0 8 7 15 15 15 8 0 15 3 15 8 0 10 56 72 66 72 4 0 16 8 26 17 17
16 20 16 36 -1 16 -16 16 -18 0 -27 -10 -6 -18 -17 -18 -24 0 -8 -7 -15 -15
-15 -16 0 -20 -27 -6 -49 6 -9 18 -11 34 -7 17 4 33 -1 52 -15 24 -20 26 -26
20 -70 -6 -40 -4 -49 8 -49 25 0 47 11 47 24 0 7 16 18 35 25 19 7 35 16 35
20 0 5 9 11 20 14 22 6 28 47 7 47 -17 0 -62 88 -59 113 4 19 -20 47 -40 47
-7 0 -19 9 -25 20 -11 16 -10 21 5 28 21 11 118 40 152 45 55 9 58 8 65 -29z
m95 -34 c0 -5 -7 -10 -15 -10 -8 0 -15 5 -15 10 0 6 7 10 15 10 8 0 15 -4 15
-10z m-52 -127 l-3 -28 -11 30 c-8 21 -8 37 -1 55 l11 25 4 -27 c2 -16 2 -40
0 -55z m393 59 c42 -27 139 -135 139 -154 0 -22 -19 -33 -33 -19 -6 6 -18 11
-28 11 -12 0 -15 6 -11 25 3 20 0 25 -17 25 -14 0 -21 6 -21 20 0 15 -7 20
-25 20 -18 0 -25 5 -25 20 0 13 -7 20 -20 20 -23 0 -24 3 -8 30 15 24 16 24
49 2z m-623 -92 l21 -41 -29 18 c-19 11 -30 25 -30 40 0 34 14 28 38 -17z
m662 -124 c0 -2 -7 -7 -16 -10 -8 -3 -12 -2 -9 4 6 10 25 14 25 6z m177 -65
c10 -16 24 -79 36 -162 2 -14 -1 -29 -7 -35 -17 -15 -46 -5 -46 17 0 11 -7 19
-17 20 -17 1 -17 2 0 6 28 7 22 43 -8 43 -18 0 -25 -5 -25 -20 0 -11 -4 -20
-10 -20 -5 0 -10 -6 -10 -14 0 -14 -42 -14 -119 -1 l-36 6 0 -79 0 -80 77 6
c55 3 78 1 78 -7 0 -6 15 -11 35 -11 24 0 35 5 35 15 0 9 9 15 25 15 33 0 33
-28 -1 -128 -30 -89 -38 -100 -57 -84 -15 13 -11 72 5 72 6 0 8 11 6 24 -3 15
0 27 8 30 8 3 14 15 14 26 0 15 -7 20 -29 20 -27 0 -30 -3 -36 -50 -6 -45 -9
-50 -33 -50 -32 0 -112 46 -112 65 0 27 -40 17 -52 -12 -7 -16 -25 -47 -40
-70 -33 -49 -36 -73 -8 -73 11 0 40 -14 65 -32 35 -25 45 -38 45 -60 0 -23 -4
-28 -25 -28 -16 0 -25 -6 -25 -15 0 -9 -9 -15 -22 -15 -16 0 -37 18 -68 60
-24 33 -50 60 -56 60 -7 0 -22 21 -34 46 -14 28 -38 56 -63 72 -35 23 -51 27
-112 27 -62 -1 -76 -4 -112 -30 -42 -31 -73 -72 -73 -98 0 -9 -13 -2 -36 19
-39 38 -70 44 -78 16 -4 -10 -23 -35 -45 -56 -28 -27 -40 -34 -44 -23 -3 8 15
33 44 62 45 44 61 78 41 87 -19 8 -62 128 -62 175 l0 50 53 -9 c28 -5 56 -14
62 -19 5 -5 48 -9 95 -9 60 0 92 -4 106 -15 10 -8 36 -15 56 -15 31 0 39 4 44
23 5 17 233 212 263 225 4 1 15 -14 25 -33 19 -35 49 -47 59 -22 9 23 88 57
133 57 37 0 44 3 44 19 0 17 11 27 30 30 3 1 10 -7 17 -18z m-1084 -248 c-7
-2 -21 -2 -30 0 -10 3 -4 5 12 5 17 0 24 -2 18 -5z m-131 -65 c2 -36 7 -44 26
-46 15 -2 22 2 22 12 0 9 5 16 10 16 6 0 10 7 10 15 0 12 13 15 60 15 44 0 60
-4 60 -14 0 -18 -90 -56 -134 -56 -32 0 -36 -3 -36 -25 0 -19 5 -25 23 -26 12
0 16 -3 10 -6 -7 -2 -13 -13 -13 -24 0 -10 -2 -19 -4 -19 -2 0 -11 -3 -19 -6
-11 -4 -20 11 -36 58 -11 35 -23 82 -27 106 -6 40 -5 42 19 42 23 0 26 -4 29
-42z m578 -163 c0 -8 9 -15 20 -15 11 0 20 7 20 15 0 8 7 15 15 15 10 0 15
-10 15 -26 0 -24 3 -26 30 -20 22 4 30 2 30 -9 0 -7 -4 -17 -10 -20 -5 -3 -10
-15 -10 -27 0 -16 5 -19 25 -16 14 3 28 1 31 -3 3 -5 -2 -9 -10 -9 -8 0 -22
-7 -31 -16 -15 -16 -19 -16 -51 -1 -19 9 -34 21 -34 27 0 5 -11 10 -25 10 -14
0 -29 8 -35 20 -6 11 -21 20 -35 20 -26 0 -40 14 -29 31 4 8 9 8 17 0 6 -6 20
-11 30 -11 15 0 18 5 15 25 -4 17 -1 25 8 25 8 0 14 -7 14 -15z m-90 -100 c0
-8 -8 -11 -20 -8 -11 3 -20 11 -20 18 0 8 8 11 20 8 11 -3 20 -11 20 -18z
m-369 -15 c5 0 9 -9 9 -20 0 -13 7 -20 20 -20 13 0 20 -7 20 -20 0 -15 7 -20
25 -20 28 0 32 -16 9 -45 -15 -19 -18 -18 -79 50 -44 47 -60 72 -52 77 7 4 18
6 25 3 8 -3 18 -5 23 -5z m437 -35 c12 -14 33 -25 46 -25 14 0 32 -8 42 -17
17 -17 17 -18 0 -21 -15 -3 -17 -11 -13 -38 3 -19 2 -34 -4 -34 -5 0 -9 9 -9
20 0 15 -7 20 -25 20 -19 0 -25 -5 -25 -21 0 -11 -4 -17 -10 -14 -5 3 -7 19
-3 35 5 27 3 30 -21 30 -14 0 -26 -4 -26 -10 0 -5 -7 -10 -17 -10 -15 0 -15 1
0 18 10 10 17 27 17 36 0 15 -6 17 -35 12 -22 -4 -35 -3 -35 4 0 5 14 10 30
10 20 0 30 5 30 15 0 23 34 18 58 -10z m538 9 l25 -17 -65 -63 c-36 -35 -69
-64 -75 -64 -6 0 -11 -5 -11 -12 0 -8 -5 -7 -15 3 -13 12 -13 19 -3 42 7 15
21 27 31 27 10 0 17 8 17 19 0 13 8 21 23 23 17 2 22 9 22 31 -1 31 14 34 51
11z m-346 -34 c0 -5 -4 -10 -9 -10 -6 0 -13 5 -16 10 -3 6 1 10 9 10 9 0 16
-4 16 -10z m-340 -33 c0 -8 16 -30 35 -50 24 -25 31 -37 20 -37 -9 0 -15 -9
-15 -25 0 -34 46 -36 53 -2 4 19 4 18 6 -5 0 -16 5 -28 10 -28 4 0 6 -11 3
-25 -2 -14 -7 -25 -11 -25 -17 0 -120 33 -159 51 -40 18 -43 23 -37 47 9 37
25 52 25 24 0 -17 6 -22 25 -22 14 0 25 -4 25 -10 0 -5 11 -10 25 -10 20 0 25
5 25 26 0 23 -4 26 -24 22 -29 -6 -38 10 -29 52 5 30 23 42 23 17z m390 -46
c0 -35 -2 -38 -25 -33 -22 4 -25 1 -25 -23 0 -26 2 -27 38 -22 24 4 43 1 56
-8 11 -8 18 -17 15 -19 -8 -8 -156 -46 -178 -46 -26 0 -49 20 -43 38 2 6 15
12 28 12 19 0 24 5 25 28 2 23 2 24 6 5 3 -15 12 -23 25 -23 17 0 20 5 15 33
-3 22 1 37 13 47 9 8 20 25 24 38 11 33 26 17 26 -27z m-91 30 c11 -7 10 -11
-7 -20 -16 -9 -21 -7 -25 9 -5 21 8 26 32 11z"/>
<path d="M590 1370 c0 -15 7 -20 25 -20 18 0 25 5 25 20 0 15 -7 20 -25 20
-18 0 -25 -5 -25 -20z"/>
<path d="M1320 985 c0 -18 5 -25 20 -25 15 0 20 7 20 25 0 18 -5 25 -20 25
-15 0 -20 -7 -20 -25z"/>
</g>
</svg>
