<?xml version="1.0" standalone="no"?>
<!DOCTYPE svg PUBLIC "-//W3C//DTD SVG 20010904//EN"
 "http://www.w3.org/TR/2001/REC-SVG-20010904/DTD/svg10.dtd">
<svg version="1.0" xmlns="http://www.w3.org/2000/svg"
 width="179.000000pt" height="251.000000pt" viewBox="0 0 179.000000 251.000000"
 preserveAspectRatio="xMidYMid meet">
<metadata>
Created by potrace 1.13, written by Peter Selinger 2001-2015
</metadata>
<g transform="translate(0.000000,251.000000) scale(0.100000,-0.100000)"
fill="#000000" stroke="none">
<path d="M771 2489 c-123 -21 -256 -120 -280 -205 -31 -111 5 -212 102 -290
22 -18 75 -44 89 -44 7 0 39 -12 71 -27 60 -29 62 -32 57 -108 -2 -45 -12 -55
-55 -55 -16 0 -61 -9 -98 -19 -57 -16 -81 -17 -140 -10 -81 10 -127 -1 -127
-32 0 -10 -14 -40 -30 -66 -17 -26 -30 -50 -30 -54 0 -4 -37 -45 -83 -91 -98
-97 -161 -204 -203 -343 -25 -82 -28 -105 -28 -255 0 -146 2 -173 22 -235 27
-81 74 -188 85 -193 4 -2 7 -9 7 -14 0 -16 102 -149 147 -191 21 -20 64 -56
95 -79 47 -35 57 -48 58 -73 1 -53 10 -58 112 -61 51 -1 118 -10 148 -19 30
-9 107 -19 170 -22 98 -5 127 -2 197 16 52 13 113 21 166 21 89 0 107 8 107
47 0 17 13 32 48 54 73 46 163 127 226 204 72 86 97 131 126 220 12 39 25 79
30 90 4 11 13 68 20 126 22 177 -7 340 -92 518 -18 36 -36 68 -40 69 -4 2 -8
8 -8 14 0 5 -6 15 -12 23 -7 7 -22 25 -33 41 -11 15 -31 41 -45 58 -14 17 -32
39 -40 49 -51 62 -243 155 -400 192 -41 10 -81 19 -87 21 -8 2 -11 13 -7 32 3
16 1 32 -4 36 -7 4 -7 16 1 35 9 24 28 37 102 71 141 64 200 128 212 231 10
85 -12 150 -70 208 -28 28 -56 51 -64 51 -7 0 -13 4 -13 9 0 4 -30 18 -67 31
-78 25 -251 35 -342 19z m303 -143 c79 -38 126 -90 126 -141 0 -36 -23 -86
-53 -113 -22 -21 -27 -22 -46 -10 -12 7 -21 22 -21 34 0 54 -69 77 -209 68
-113 -7 -141 -21 -141 -69 0 -51 -61 -41 -93 15 -43 72 -6 160 87 205 105 51
256 56 350 11z m-369 -1190 c-11 -8 -24 -12 -28 -9 -11 7 12 23 32 23 11 0 9
-4 -4 -14z m565 -31 c11 -13 8 -15 -20 -15 -28 0 -31 2 -20 15 7 8 16 15 20
15 4 0 13 -7 20 -15z m-365 -51 c-9 -9 -19 -13 -23 -10 -3 4 0 11 8 16 24 15
33 11 15 -6z m560 6 c-3 -5 -12 -7 -20 -3 -21 7 -19 13 6 13 11 0 18 -4 14
-10z m-285 -80 c0 -19 -19 -40 -36 -40 -12 0 -23 47 -17 67 6 16 53 -9 53 -27z
m-384 -78 c-11 -10 -14 3 -8 33 l7 30 3 -28 c2 -16 1 -31 -2 -35z m511 52 c-3
-3 -12 -4 -19 -1 -8 3 -5 6 6 6 11 1 17 -2 13 -5z m-44 -24 c-3 -12 -8 -19
-11 -16 -5 6 5 36 12 36 2 0 2 -9 -1 -20z m-698 -74 c15 -28 20 -48 14 -57 -5
-8 -9 -31 -9 -51 0 -21 -4 -38 -10 -38 -5 0 -10 7 -10 15 0 20 -45 65 -65 65
-8 0 -15 -9 -15 -20 0 -11 5 -20 10 -20 6 0 10 -4 10 -10 0 -5 -7 -10 -15 -10
-8 0 -15 -4 -15 -10 0 -5 -7 -10 -16 -10 -17 0 -33 -14 -53 -45 -10 -17 -11
-8 -7 52 8 91 28 143 69 174 61 46 70 43 112 -35z m575 -4 c0 -5 -10 -20 -21
-33 l-21 -24 7 25 c4 14 13 28 19 32 14 10 16 10 16 0z m60 -40 c0 -14 -41
-53 -50 -47 -14 9 -2 31 23 43 28 14 27 13 27 4z"/>
</g>
</svg>
