<?xml version="1.0" standalone="no"?>
<!DOCTYPE svg PUBLIC "-//W3C//DTD SVG 20010904//EN"
 "http://www.w3.org/TR/2001/REC-SVG-20010904/DTD/svg10.dtd">
<svg version="1.0" xmlns="http://www.w3.org/2000/svg"
 width="83.000000pt" height="104.000000pt" viewBox="0 0 83.000000 104.000000"
 preserveAspectRatio="xMidYMid meet">
<metadata>
Created by potrace 1.13, written by Peter Selinger 2001-2015
</metadata>
<g transform="translate(0.000000,104.000000) scale(0.100000,-0.100000)"
fill="#000000" stroke="none">
<path d="M293 1010 c-70 -31 -73 -105 -6 -134 46 -19 73 -39 73 -55 0 -14 -37
-15 -42 0 -6 19 -78 0 -78 -21 0 -11 -18 -29 -42 -43 -176 -105 -238 -331
-144 -523 35 -70 130 -174 160 -174 6 0 24 -14 39 -31 l28 -32 127 6 c153 8
202 15 202 32 0 7 12 20 26 30 50 33 130 120 151 166 72 153 44 343 -69 465
-45 48 -164 114 -208 114 -50 0 -42 25 18 57 59 31 72 53 58 108 -13 53 -204
76 -293 35z m222 -60 c3 -5 2 -10 -4 -10 -5 0 -13 5 -16 10 -3 6 -2 10 4 10 5
0 13 -4 16 -10z m-144 -247 c1 -10 0 -30 -1 -45 -1 -26 1 -28 34 -28 l36 0 0
-55 c0 -48 -2 -55 -20 -55 -22 0 -29 -40 -7 -40 6 -1 0 -8 -15 -16 -47 -25
-35 -104 15 -104 10 0 21 -9 24 -20 3 -11 12 -20 19 -20 8 0 28 -15 44 -32 24
-27 28 -39 24 -68 -3 -19 -1 -47 5 -62 9 -24 7 -29 -10 -39 -24 -13 -22 -15
-38 39 -12 43 -12 43 -54 40 l-42 -3 1 -48 c0 -37 -3 -47 -14 -42 -7 3 -18 5
-24 5 -7 0 -8 19 -3 55 4 39 3 55 -5 55 -6 0 -18 7 -26 15 -24 23 -51 18 -74
-15 -21 -30 -40 -39 -40 -20 0 6 11 22 25 36 24 24 33 59 18 66 -5 2 -15 17
-24 33 -15 30 -33 35 -84 24 -13 -3 -21 2 -23 15 -4 17 0 18 42 12 44 -7 46
-6 46 17 0 14 3 39 6 56 l7 32 -41 -2 c-48 -3 -56 2 -47 30 7 24 43 28 51 6
11 -27 51 -18 66 15 7 17 21 30 30 30 10 0 18 4 18 9 0 5 11 12 25 15 30 8 32
28 4 72 l-21 34 24 9 c35 15 48 13 49 -6z m169 -8 c8 -10 6 -22 -7 -48 l-19
-34 -12 25 c-7 15 -12 38 -12 53 0 22 4 26 20 22 10 -3 24 -11 30 -18z m120
-85 c0 -5 -13 -16 -30 -25 -25 -13 -30 -22 -30 -50 0 -29 4 -35 21 -35 11 0
34 8 50 17 32 19 44 13 54 -29 7 -27 5 -28 -28 -28 -57 0 -67 -8 -67 -51 l0
-39 50 0 c50 0 60 -9 42 -37 -5 -8 -13 -9 -22 -3 -8 6 -32 10 -52 10 -31 0
-38 -4 -38 -20 0 -15 -7 -20 -24 -20 -27 0 -66 42 -66 71 0 11 -9 19 -22 21
-27 4 -45 63 -21 72 8 3 14 16 13 28 -5 53 0 78 15 78 8 0 15 5 15 10 0 6 10
10 23 10 17 0 28 10 40 36 l17 35 30 -21 c17 -12 30 -25 30 -30z m-420 -10 c0
-13 -7 -20 -20 -20 -24 0 -44 32 -28 48 16 16 48 -4 48 -28z m404 -401 c-20
-22 -37 -24 -53 -5 -9 11 -6 12 14 8 18 -3 25 0 25 12 0 10 6 13 15 9 14 -5
14 -8 -1 -24z"/>
</g>
</svg>
