<?xml version="1.0" standalone="no"?>
<!DOCTYPE svg PUBLIC "-//W3C//DTD SVG 20010904//EN"
 "http://www.w3.org/TR/2001/REC-SVG-20010904/DTD/svg10.dtd">
<svg version="1.0" xmlns="http://www.w3.org/2000/svg"
 width="201.000000pt" height="283.000000pt" viewBox="0 0 201.000000 283.000000"
 preserveAspectRatio="xMidYMid meet">
<metadata>
Created by potrace 1.13, written by Peter Selinger 2001-2015
</metadata>
<g transform="translate(0.000000,283.000000) scale(0.100000,-0.100000)"
fill="#000000" stroke="none">
<path d="M900 2811 c-89 -15 -159 -50 -218 -109 -77 -77 -97 -119 -95 -196 5
-118 54 -200 149 -248 34 -17 65 -40 67 -49 3 -11 19 -20 43 -25 63 -11 74
-20 67 -54 -3 -19 -1 -30 6 -30 16 0 14 -25 -4 -40 -9 -7 -15 -29 -15 -55 l0
-42 -62 -9 c-35 -4 -88 -7 -118 -5 -85 4 -161 -29 -232 -100 -32 -33 -62 -59
-67 -59 -5 0 -47 -37 -93 -82 -134 -131 -226 -280 -279 -453 -32 -105 -34
-116 -32 -255 2 -189 22 -300 76 -410 56 -115 80 -152 162 -245 87 -100 115
-126 187 -172 44 -29 59 -46 67 -75 7 -21 20 -42 31 -48 10 -5 57 -10 104 -10
47 0 128 -7 178 -16 117 -21 311 -23 403 -5 77 15 88 15 187 5 l67 -6 12 41
c7 24 23 48 38 57 123 79 311 248 311 279 0 7 3 15 8 17 14 6 85 147 105 208
45 138 52 183 52 355 0 154 -3 178 -26 255 -79 255 -189 414 -382 551 -40 28
-103 66 -142 84 -82 38 -225 85 -261 85 -22 0 -24 4 -24 43 0 24 -5 48 -12 55
-8 8 -8 15 1 26 8 9 10 27 6 46 -6 28 -4 31 39 50 25 10 46 23 46 27 0 5 22
16 48 25 75 27 136 79 167 143 24 48 27 64 23 127 -4 86 -30 145 -87 206 -75
79 -168 111 -336 117 -66 2 -140 0 -165 -4z m103 -48 c-7 -2 -21 -2 -30 0 -10
3 -4 5 12 5 17 0 24 -2 18 -5z m110 0 c-13 -2 -33 -2 -45 0 -13 2 -3 4 22 4
25 0 35 -2 23 -4z m28 -103 c185 -35 273 -197 153 -279 -43 -30 -85 -25 -102
12 -7 15 -20 27 -28 27 -7 0 -14 4 -14 9 0 5 -35 9 -78 10 -83 1 -166 -18
-185 -43 -14 -17 -53 -23 -82 -13 -33 12 -58 57 -63 112 -4 47 -2 53 29 84 82
80 216 110 370 81z m329 -1232 c53 -53 69 -74 57 -76 -10 -2 -17 -10 -17 -18
0 -8 -2 -14 -5 -14 -2 0 -35 30 -72 68 -60 59 -67 70 -58 90 5 12 13 22 16 22
4 0 39 -33 79 -72z m152 -236 c18 -42 41 -122 36 -127 -2 -2 -15 -6 -29 -10
-25 -6 -27 -4 -44 62 -10 37 -22 76 -27 85 -6 12 -3 18 10 21 33 9 37 7 54
-31z m41 -289 c-8 -61 -36 -154 -45 -153 -5 0 -19 0 -32 0 l-25 0 20 57 c10
31 19 73 19 94 0 35 2 38 33 42 17 2 33 5 34 5 2 1 0 -19 -4 -45z m-127 -273
c26 0 15 -19 -52 -89 l-65 -70 -20 20 -20 20 55 56 c31 31 56 61 56 66 0 5 7
6 16 3 9 -3 22 -6 30 -6z m-263 -205 c17 -23 17 -25 0 -33 -28 -14 -83 -31
-135 -41 l-48 -8 0 33 c0 30 3 34 26 34 31 0 105 20 119 32 13 12 18 10 38
-17z"/>
</g>
</svg>
