<?xml version="1.0" standalone="no"?>
<!DOCTYPE svg PUBLIC "-//W3C//DTD SVG 20010904//EN"
 "http://www.w3.org/TR/2001/REC-SVG-20010904/DTD/svg10.dtd">
<svg version="1.0" xmlns="http://www.w3.org/2000/svg"
 width="210.000000pt" height="312.000000pt" viewBox="0 0 210.000000 312.000000"
 preserveAspectRatio="xMidYMid meet">
<metadata>
Created by potrace 1.13, written by Peter Selinger 2001-2015
</metadata>
<g transform="translate(0.000000,312.000000) scale(0.100000,-0.100000)"
fill="#000000" stroke="none">
<path d="M960 3096 c-121 -39 -204 -113 -259 -231 -36 -75 -41 -217 -11 -304
37 -111 115 -200 205 -238 33 -13 43 -22 39 -33 -4 -8 -9 -51 -11 -96 l-5 -81
-67 -13 c-258 -50 -491 -199 -641 -410 -204 -285 -253 -642 -134 -982 8 -25
23 -54 33 -65 9 -10 32 -45 50 -78 74 -133 208 -280 314 -343 15 -9 27 -20 27
-25 0 -15 44 -46 66 -47 12 0 33 -9 47 -20 93 -73 326 -116 544 -99 464 37
848 392 929 859 20 119 15 333 -11 430 -82 306 -272 547 -542 684 -43 22 -73
44 -76 56 -3 11 -13 23 -24 26 -10 3 -28 11 -41 17 -18 8 -28 8 -43 -1 -13 -8
-36 -11 -63 -7 l-42 7 -12 69 c-18 105 -17 118 16 125 28 7 142 82 142 94 0 4
11 20 25 36 38 44 55 87 72 181 53 286 -130 506 -417 502 -41 -1 -91 -6 -110
-13z m245 -112 c76 -35 122 -81 161 -159 35 -70 37 -79 31 -142 -3 -38 -12
-82 -19 -99 -17 -39 -74 -115 -106 -139 l-25 -18 22 29 c11 16 26 54 33 84 29
143 -72 269 -219 270 -92 0 -165 -46 -210 -133 -20 -40 -14 -157 12 -207 l17
-35 -31 30 c-102 95 -130 238 -73 360 28 58 84 119 134 146 78 42 198 48 273
13z m-115 -604 c0 -16 -4 -30 -10 -30 -5 0 -10 -7 -10 -15 0 -8 -4 -15 -9 -15
-4 0 -4 20 2 45 12 51 27 60 27 15z m4 -122 c6 -5 2 -8 -11 -8 -25 0 -26 3
-16 40 l8 25 3 -25 c2 -14 9 -28 16 -32z m6 -116 c0 -9 -88 -7 -97 2 -4 3 17
6 45 6 29 0 52 -3 52 -8z m-149 -391 c20 -18 20 -18 -9 -30 -30 -13 -112 -88
-112 -103 0 -22 -19 -3 -44 45 l-27 52 33 14 c31 13 113 38 131 40 4 1 17 -7
28 -18z m310 -3 c101 -34 205 -98 160 -98 -6 0 -11 -4 -11 -10 0 -15 -53 -88
-68 -95 -20 -8 -30 2 -37 36 -7 30 -89 122 -128 144 -12 7 -16 16 -12 28 9 22
18 22 96 -5z m-535 -125 c-4 -4 -11 -1 -16 7 -16 25 -11 35 7 17 9 -9 13 -20
9 -24z m405 -15 c50 -28 84 -93 76 -145 -4 -20 -10 -40 -15 -45 -5 -5 -32 13
-64 45 -31 30 -63 57 -72 60 -9 4 -21 18 -26 32 -7 19 -17 25 -39 25 -16 0
-32 -5 -34 -10 -3 -6 -4 -5 -3 2 4 23 68 58 104 58 19 0 52 -10 73 -22z m-479
-24 c38 -26 43 -41 38 -101 -1 -15 4 -23 13 -23 26 0 47 11 47 25 0 7 9 15 19
18 21 5 21 5 36 -88 4 -21 13 -51 20 -65 28 -55 111 -120 152 -120 17 0 24 -7
29 -27 3 -16 9 -38 14 -50 6 -15 5 -23 -6 -27 -9 -3 -14 -20 -14 -44 0 -32 -6
-44 -38 -72 -20 -18 -50 -45 -66 -59 l-28 -26 16 33 c41 80 28 212 -27 284
-41 53 -124 98 -181 98 -42 0 -42 1 -38 30 4 28 2 30 -29 30 -78 0 -105 11
-121 45 -14 31 -13 34 14 66 46 54 92 99 102 99 6 0 27 -12 48 -26z m872 11
c3 -8 11 -15 18 -15 7 0 23 -16 36 -35 12 -19 27 -35 32 -35 6 0 10 -5 10 -11
0 -6 9 -24 21 -40 11 -16 18 -36 16 -44 -8 -18 -103 -65 -133 -65 -17 0 -24
-6 -24 -20 0 -17 -7 -20 -38 -20 -135 0 -239 -104 -250 -249 -4 -58 -1 -75 22
-123 14 -31 38 -67 52 -81 30 -30 105 -67 136 -67 30 0 54 -15 39 -24 -26 -17
-9 -52 50 -99 32 -27 59 -54 59 -61 0 -19 -81 -96 -101 -96 -9 0 -41 29 -70
65 -30 36 -62 65 -71 65 -15 0 -18 9 -18 45 0 95 -52 180 -136 221 -46 23 -69
27 -131 27 l-75 -1 44 39 c23 21 52 39 62 39 52 0 74 72 34 109 -12 12 -27 36
-33 56 -11 30 -10 35 4 39 9 2 37 9 63 16 90 23 178 138 178 230 0 38 12 52
25 30 8 -12 55 -13 55 -1 0 5 19 34 42 65 41 55 70 70 82 41z m-494 -131 c0
-8 7 -14 16 -14 15 0 104 -69 104 -81 0 -10 -65 -39 -88 -39 -13 0 -27 13 -39
38 -26 48 -36 92 -23 92 5 0 10 7 10 16 0 8 5 12 10 9 6 -3 10 -13 10 -21z
m-82 -41 c14 -44 10 -52 -10 -21 -24 37 -29 58 -14 58 7 0 18 -17 24 -37z
m-441 -91 c10 -12 7 -18 -15 -36 -41 -31 -69 -65 -88 -108 -18 -40 -21 -43
-42 -29 -10 6 -9 24 9 87 30 112 31 113 81 107 24 -3 48 -12 55 -21z m133 -46
c0 -7 -11 -16 -25 -18 -24 -5 -34 10 -18 25 12 12 43 7 43 -7z m1098 -49 c21
-98 23 -125 10 -129 -7 -3 -21 17 -34 49 -12 29 -35 66 -52 81 l-31 29 32 15
c48 23 63 13 75 -45z m-258 18 c0 -8 -4 -15 -10 -15 -5 0 -10 7 -10 15 0 8 5
15 10 15 6 0 10 -7 10 -15z m-678 -22 c35 -31 14 -47 -22 -16 -11 10 -20 21
-20 25 0 14 23 9 42 -9z m568 -9 c0 -8 -5 -12 -10 -9 -6 4 -8 11 -5 16 9 14
15 11 15 -7z m-661 -17 c43 -21 82 -80 83 -124 2 -151 -194 -209 -272 -81 -20
34 -28 118 -11 118 18 0 81 -42 91 -61 6 -10 24 -19 42 -21 29 -3 32 -7 33
-33 0 -23 5 -31 23 -33 15 -2 22 2 22 12 0 9 8 16 20 16 23 0 25 17 8 55 -8
18 -19 25 -38 25 -19 0 -29 6 -33 20 -3 14 -14 20 -32 20 -14 0 -46 11 -71 24
l-45 24 33 25 c51 39 89 42 147 14z m827 -29 c41 -20 57 -38 34 -38 -5 0 -24
-13 -42 -29 -19 -16 -45 -31 -58 -33 -17 -2 -26 -10 -28 -26 -2 -12 -16 -29
-33 -37 -20 -11 -29 -23 -29 -40 0 -22 4 -25 39 -25 36 0 39 2 45 35 5 24 12
35 24 35 10 0 25 8 33 18 9 9 32 32 52 49 l36 33 9 -33 c32 -122 -109 -232
-216 -167 -102 62 -95 206 13 260 51 25 68 25 121 -2z m-236 -39 c0 -5 -7 -9
-15 -9 -9 0 -12 6 -9 15 6 15 24 11 24 -6z m-430 -83 c0 -16 -14 -36 -26 -36
-16 0 -16 2 -8 24 5 14 34 24 34 12z m410 -27 c0 -5 -7 -9 -15 -9 -8 0 -15 7
-15 15 0 9 6 12 15 9 8 -4 15 -10 15 -15z m-822 -11 c-6 -18 -28 -21 -28 -4 0
9 7 16 16 16 9 0 14 -5 12 -12z m-12 -114 l22 -22 -40 -18 c-45 -20 -58 -12
-58 39 0 15 -4 27 -10 27 -5 0 -10 13 -10 29 0 45 30 45 54 1 10 -19 29 -45
42 -56z m1280 -44 c-14 -40 -27 -75 -30 -78 -3 -3 -23 3 -45 12 l-39 18 42 41
c23 23 48 56 55 74 11 28 15 30 27 18 12 -11 10 -24 -10 -85z m-417 69 c-16
-10 -23 -4 -14 10 3 6 11 8 17 5 6 -4 5 -9 -3 -15z m-538 -32 c-13 -13 -26 -3
-16 12 3 6 11 8 17 5 6 -4 6 -10 -1 -17z m-161 -22 c0 -17 -2 -18 -24 -9 -23
9 -20 24 4 24 11 0 20 -7 20 -15z m770 1 c0 -3 -4 -8 -10 -11 -5 -3 -10 -1
-10 4 0 6 5 11 10 11 6 0 10 -2 10 -4z m-330 -56 c22 0 40 3 40 8 0 4 4 13 9
21 11 16 51 -2 51 -24 0 -7 10 -15 21 -17 17 -2 9 -12 -43 -49 -35 -25 -75
-49 -88 -52 -14 -3 -29 -16 -35 -28 -5 -13 -25 -30 -42 -38 -25 -12 -33 -23
-33 -43 0 -38 32 -37 72 2 16 17 38 30 48 30 11 0 24 8 29 18 6 11 35 38 66
61 50 38 55 40 55 20 0 -17 5 -20 25 -16 l26 4 -21 -19 c-21 -19 -28 -78 -10
-78 6 0 10 -4 10 -10 0 -5 -9 -10 -21 -10 -16 0 -20 -5 -17 -24 4 -30 -28 -66
-57 -66 -13 0 -25 -7 -29 -15 -6 -18 -36 -9 -36 11 0 25 -66 12 -73 -15 -3
-10 -5 -7 -6 8 -1 20 -5 23 -29 18 -42 -8 -102 49 -72 68 6 3 10 15 10 27 0
16 -5 19 -25 16 -14 -3 -25 -1 -25 3 0 5 9 9 20 9 17 0 20 7 20 45 0 25 5 45
10 45 14 0 12 37 -2 43 -9 3 -4 14 15 33 15 16 27 23 27 16 0 -6 9 -12 20 -12
13 0 20 7 20 18 0 28 13 36 22 12 6 -16 16 -20 48 -20z m495 30 c3 -5 1 -10
-4 -10 -6 0 -11 5 -11 10 0 6 2 10 4 10 3 0 8 -4 11 -10z m-785 -25 c-7 -8
-19 -15 -26 -15 -8 0 -14 -4 -14 -8 0 -19 -36 -47 -57 -44 -17 3 -26 -4 -36
-30 -19 -44 -102 -124 -112 -108 -5 7 16 36 54 74 59 60 76 98 49 109 -7 3 5
6 27 7 22 1 58 7 80 15 22 7 42 13 44 14 2 1 -2 -6 -9 -14z m22 -126 l-4 -56
-34 16 c-38 18 -43 39 -15 63 18 15 55 38 56 35 1 -1 -1 -27 -3 -58z m-114
-71 c-59 -76 -73 -89 -91 -82 -9 3 -17 12 -17 18 0 17 109 103 133 105 5 1 -6
-18 -25 -41z m665 -116 c15 -37 27 -70 27 -74 0 -7 -92 -44 -148 -58 -33 -8
-47 -8 -58 1 -24 20 -16 34 36 68 51 33 82 69 94 109 4 12 11 22 15 22 4 0 20
-30 34 -68z m-389 -86 c37 -14 46 -22 46 -42 0 -13 -5 -24 -10 -24 -14 0 -138
35 -174 49 -30 12 -32 29 -7 94 l11 29 44 -45 c24 -24 65 -51 90 -61z"/>
<path d="M30 2710 c0 -13 7 -20 20 -20 13 0 20 7 20 20 0 13 -7 20 -20 20 -13
0 -20 -7 -20 -20z"/>
</g>
</svg>
