<?xml version="1.0" standalone="no"?>
<!DOCTYPE svg PUBLIC "-//W3C//DTD SVG 20010904//EN"
 "http://www.w3.org/TR/2001/REC-SVG-20010904/DTD/svg10.dtd">
<svg version="1.0" xmlns="http://www.w3.org/2000/svg"
 width="64.000000pt" height="90.000000pt" viewBox="0 0 64.000000 90.000000"
 preserveAspectRatio="xMidYMid meet">
<metadata>
Created by potrace 1.13, written by Peter Selinger 2001-2015
</metadata>
<g transform="translate(0.000000,90.000000) scale(0.100000,-0.100000)"
fill="#000000" stroke="none">
<path d="M305 868 c-4 -14 -18 -29 -35 -35 -54 -20 -68 -110 -25 -161 33 -40
32 -49 -12 -57 -82 -15 -149 -72 -192 -164 -36 -77 -37 -200 -2 -278 27 -61
84 -117 150 -146 65 -29 187 -35 246 -12 73 27 139 86 172 152 25 51 28 69 28
148 -1 74 -5 98 -24 137 -43 86 -121 148 -208 166 l-37 8 32 33 c27 29 32 41
32 83 0 39 -5 54 -25 73 -13 14 -28 25 -34 25 -5 0 -11 10 -13 23 -4 32 -45
36 -53 5z m39 -94 c28 7 51 -15 42 -39 -5 -15 -8 -15 -28 -1 -28 20 -47 20
-68 1 -15 -14 -18 -14 -23 -2 -3 8 1 24 10 36 12 17 18 19 29 10 7 -6 25 -9
38 -5z m-7 -106 c-3 -8 -6 -5 -6 6 -1 11 2 17 5 13 3 -3 4 -12 1 -19z m-46
-168 c6 0 9 -32 7 -77 l-3 -78 -81 -3 c-63 -2 -84 1 -94 13 -7 8 -19 15 -26
15 -7 0 -11 6 -8 14 3 8 19 13 42 12 35 -1 37 1 40 32 3 29 1 32 -24 32 l-27
0 23 20 c19 17 24 17 37 5 19 -20 49 -19 57 1 10 27 7 42 -11 47 -12 2 -6 7
17 14 34 9 35 8 38 -19 2 -15 8 -28 13 -28z m103 54 c9 -3 16 -17 16 -29 0
-36 11 -55 31 -55 14 0 19 7 19 25 0 29 27 35 37 8 4 -10 11 -21 17 -25 7 -5
7 -8 -1 -8 -7 0 -13 -9 -13 -19 0 -38 11 -51 46 -51 26 0 32 -3 28 -15 -4 -8
-12 -15 -19 -15 -14 0 -30 -64 -20 -80 3 -6 13 -10 21 -10 16 0 18 -28 4 -50
-7 -11 -10 -12 -10 -2 0 25 -44 8 -54 -20 -8 -23 -6 -31 8 -41 16 -12 15 -14
-8 -35 l-26 -22 0 25 c0 21 -5 25 -29 25 -28 0 -30 -3 -33 -42 -2 -35 -7 -44
-25 -46 -17 -3 -22 2 -25 25 -2 20 -9 29 -26 31 -18 3 -26 -3 -35 -27 -11 -31
-22 -36 -51 -25 -11 4 -16 19 -16 45 0 27 -4 39 -14 39 -28 0 -46 -12 -46 -32
0 -17 -2 -18 -15 -4 -12 12 -13 19 -4 33 7 12 8 30 2 53 -7 28 -15 36 -36 38
-24 3 -27 0 -28 -25 0 -24 -2 -25 -8 -8 -10 26 -2 55 15 55 7 0 17 8 22 17 9
15 18 15 98 5 152 -21 139 -24 137 28 -1 25 -2 74 -4 110 -1 37 4 79 12 98 7
17 14 32 15 32 1 0 9 -3 18 -6z"/>
</g>
</svg>
