<?xml version="1.0" standalone="no"?>
<!DOCTYPE svg PUBLIC "-//W3C//DTD SVG 20010904//EN"
 "http://www.w3.org/TR/2001/REC-SVG-20010904/DTD/svg10.dtd">
<svg version="1.0" xmlns="http://www.w3.org/2000/svg"
 width="147.000000pt" height="205.000000pt" viewBox="0 0 147.000000 205.000000"
 preserveAspectRatio="xMidYMid meet">
<metadata>
Created by potrace 1.13, written by Peter Selinger 2001-2015
</metadata>
<g transform="translate(0.000000,205.000000) scale(0.100000,-0.100000)"
fill="#000000" stroke="none">
<path d="M605 2021 c-33 -10 -70 -23 -82 -29 -27 -15 -68 -68 -78 -102 -4 -14
-12 -31 -18 -38 -13 -16 -2 -93 19 -135 21 -41 54 -68 132 -108 l62 -32 0 -52
c0 -53 0 -53 -36 -59 -19 -4 -50 -2 -69 4 -52 17 -117 -8 -129 -49 -5 -17 -15
-31 -22 -31 -7 0 -53 -30 -102 -67 -99 -74 -178 -171 -220 -270 -30 -72 -52
-202 -52 -311 0 -226 135 -484 313 -599 23 -15 44 -31 47 -34 3 -4 41 -22 85
-40 44 -18 85 -40 92 -49 9 -12 40 -15 178 -15 119 0 168 3 173 12 4 7 39 24
77 38 109 41 191 92 259 159 60 59 146 176 146 197 0 6 8 23 18 37 46 67 64
172 59 337 -5 147 -21 206 -91 339 -77 148 -252 306 -338 306 -25 0 -178 36
-186 44 -2 3 -1 27 3 54 5 40 11 51 28 56 12 3 53 28 92 56 83 60 108 101 108
181 0 96 -57 166 -166 203 -63 21 -221 20 -302 -3z m275 -121 c76 -38 97 -80
68 -132 -30 -53 -64 -61 -79 -19 -13 36 -19 38 -113 47 -87 8 -126 -8 -126
-50 0 -25 -19 -39 -36 -28 -24 17 -54 67 -54 91 1 44 49 89 119 112 47 15 172
3 221 -21z m-243 -516 c-3 -3 -12 -4 -19 -1 -8 3 -5 6 6 6 11 1 17 -2 13 -5z
m63 -88 c0 -8 3 -21 6 -30 4 -11 1 -16 -10 -16 -9 0 -16 -8 -17 -17 0 -11 -3
-13 -6 -5 -5 13 -43 17 -43 3 0 -4 -11 -6 -25 -3 -18 3 -25 0 -25 -11 0 -10
-6 -13 -21 -10 -12 4 -25 0 -30 -8 -6 -10 -9 -7 -9 13 0 15 -5 30 -11 34 -20
12 9 27 88 44 100 23 103 23 103 6z m229 -29 c61 -21 85 -42 64 -56 -6 -3 -13
-13 -16 -21 -4 -11 -6 -11 -6 4 -1 14 -7 17 -26 14 -14 -3 -25 -2 -25 2 0 4
-27 13 -60 19 -57 11 -60 13 -60 41 0 28 2 29 33 24 17 -3 61 -16 96 -27z
m-496 -115 c-3 -13 -13 -22 -24 -22 -12 0 -19 -7 -19 -20 0 -11 -7 -20 -15
-20 -8 0 -15 -9 -15 -20 0 -24 -35 -27 -64 -5 -19 14 -19 15 7 39 15 14 27 32
27 41 0 8 7 15 15 15 8 0 15 6 15 13 0 7 12 18 28 23 32 12 54 -10 45 -44z
m443 13 c24 -3 44 -10 44 -16 0 -5 10 -10 23 -10 16 -1 18 -2 5 -6 -10 -2 -18
-9 -18 -13 0 -5 -9 -24 -20 -42 l-21 -33 7 38 c5 33 4 37 -14 37 -12 0 -23 -9
-27 -22 -4 -11 -20 -43 -36 -70 -16 -27 -29 -57 -29 -67 0 -12 -10 -21 -25
-25 -28 -7 -44 -49 -26 -70 8 -10 9 -16 1 -21 -5 -3 -10 -15 -10 -26 0 -17 -7
-19 -75 -19 -68 0 -75 2 -75 19 0 11 -5 23 -11 26 -17 11 -59 -4 -59 -21 0
-12 -5 -14 -17 -8 -10 4 -55 10 -101 14 -89 8 -103 13 -84 32 7 7 12 20 12 29
0 29 49 38 95 17 14 -6 25 -17 25 -25 0 -7 9 -13 20 -13 11 0 20 7 20 15 0 8
5 15 10 15 6 0 10 11 10 24 0 18 -8 25 -32 32 -19 5 -37 19 -43 32 -5 12 -15
22 -22 22 -7 0 -13 5 -13 10 0 6 7 10 15 10 8 0 15 9 15 20 0 11 7 20 15 20 8
0 15 7 15 15 0 22 16 18 50 -12 22 -19 30 -35 30 -60 0 -39 13 -42 70 -13 26
13 40 27 40 40 0 11 -5 20 -11 20 -20 0 -38 34 -39 73 0 30 3 37 20 37 11 0
20 4 20 9 0 4 11 6 24 4 26 -5 36 -34 36 -104 0 -38 1 -39 34 -39 56 0 66 8
66 51 0 22 4 47 9 57 5 9 13 26 17 37 6 17 8 17 11 4 3 -11 19 -19 49 -24z
m218 3 c23 -17 58 -52 79 -77 35 -44 36 -46 17 -55 -11 -5 -20 -13 -20 -18 0
-4 -4 -8 -10 -8 -5 0 -10 9 -10 20 0 11 -4 20 -10 20 -5 0 -10 9 -10 20 0 13
-7 20 -20 20 -11 0 -20 5 -20 10 0 6 -7 10 -15 10 -11 0 -13 8 -8 30 4 23 2
30 -11 30 -9 0 -16 7 -16 15 0 21 8 19 54 -17z m-68 -88 c8 0 14 -4 14 -10 0
-5 7 -10 16 -10 18 0 44 -24 44 -41 0 -15 -28 -40 -74 -64 -20 -11 -36 -26
-36 -33 0 -27 21 -52 44 -52 29 0 106 48 106 67 0 7 5 13 10 13 6 0 10 -7 10
-15 0 -8 6 -15 13 -16 10 0 10 -2 0 -6 -15 -6 -17 -43 -3 -43 6 0 10 -9 10
-20 0 -16 7 -20 30 -20 23 0 30 4 30 20 0 12 -7 20 -17 21 -11 0 -13 3 -5 6
14 6 16 43 2 43 -5 0 -10 9 -10 19 0 11 -6 22 -12 24 -7 3 1 6 19 6 40 1 49
-14 66 -108 l14 -69 -39 -4 c-32 -3 -38 -1 -38 15 0 17 -4 18 -37 11 -21 -5
-62 -8 -90 -7 l-53 1 0 -60 0 -60 31 6 c17 3 49 6 70 6 28 0 39 4 39 15 0 9 9
15 23 14 16 -1 18 -2 5 -6 -29 -7 -23 -43 7 -43 15 0 25 6 25 14 0 7 13 16 28
18 26 4 28 1 25 -21 -11 -69 -37 -151 -49 -151 -17 0 -46 42 -35 50 5 3 12 22
16 43 7 34 6 37 -17 37 -22 0 -26 -7 -40 -62 -11 -46 -16 -55 -17 -33 -1 25
-7 32 -38 43 -82 29 -90 28 -108 -14 -9 -21 -14 -44 -13 -52 2 -8 27 -24 55
-36 36 -14 53 -27 53 -38 0 -11 -8 -18 -20 -18 -11 0 -20 -7 -20 -15 0 -8 -4
-15 -10 -15 -5 0 -10 -7 -10 -15 0 -8 -9 -15 -20 -15 -13 0 -20 -7 -20 -20 0
-11 -4 -20 -10 -20 -5 0 -10 8 -10 18 0 30 -52 91 -77 92 -28 0 -29 -19 -8
-80 13 -38 21 -114 8 -82 -7 19 -43 15 -44 -5 0 -11 -3 -13 -6 -5 -6 16 -43
16 -43 -1 0 -10 -10 -12 -32 -8 -22 3 -27 6 -14 9 15 3 17 10 12 35 -4 18 -9
49 -13 70 -4 28 -11 39 -29 43 -46 12 -54 0 -54 -76 0 -56 -3 -70 -15 -70 -10
0 -15 -10 -15 -30 0 -23 4 -30 20 -30 15 0 20 -7 20 -25 0 -31 -22 -32 -101
-6 -88 30 -139 59 -133 76 4 8 10 15 15 15 5 0 10 10 10 23 1 16 2 18 6 4 2
-9 13 -17 24 -17 12 0 19 -7 19 -20 0 -26 40 -28 41 -2 0 11 4 7 11 -10 12
-36 45 -38 54 -4 8 33 -3 49 -32 43 -16 -3 -24 0 -24 9 0 8 -9 14 -20 14 -11
0 -20 5 -20 11 0 7 -10 9 -25 7 -14 -3 -25 -1 -25 3 0 5 10 9 23 9 16 0 27 11
40 39 21 47 22 79 0 103 -24 27 -49 22 -79 -17 -14 -19 -33 -35 -40 -35 -8 0
-15 -10 -15 -22 -1 -17 -2 -19 -6 -6 -2 10 -9 18 -14 18 -5 0 -9 9 -9 20 0 11
-4 20 -10 20 -15 0 -12 30 3 30 6 0 25 14 41 30 16 17 33 30 38 30 11 0 10 31
-3 69 -8 23 -17 31 -34 31 -13 0 -26 -4 -29 -9 -3 -5 -22 -12 -42 -16 -35 -6
-36 -8 -31 -41 3 -19 2 -34 -2 -34 -10 0 -21 49 -21 90 0 16 -3 30 -7 32 -5 2
-5 23 -2 48 l6 45 1 -42 c2 -36 5 -43 22 -43 11 0 20 4 20 10 0 6 18 7 45 3
38 -5 45 -3 45 11 0 9 8 16 18 16 9 0 27 3 40 6 17 5 22 2 22 -14 0 -21 18
-32 51 -32 11 0 19 7 19 16 0 12 5 14 18 9 9 -5 31 -10 49 -13 19 -2 38 -14
48 -28 12 -18 24 -24 54 -24 48 0 65 19 58 65 -3 19 -3 51 0 70 5 28 10 35 29
35 27 0 42 36 27 67 -6 11 -5 37 2 68 9 37 14 45 20 33 9 -22 55 -24 55 -4 0
22 34 76 48 76 6 0 13 8 13 18 1 16 2 16 6 0 2 -10 11 -18 19 -18z m-895 -97
c-8 -15 -10 -15 -11 -2 0 17 10 32 18 25 2 -3 -1 -13 -7 -23z m152 -49 c3 -17
0 -24 -11 -24 -10 0 -13 -7 -10 -25 4 -16 1 -25 -8 -25 -7 0 -14 -4 -16 -9 -1
-5 -15 -7 -29 -4 -24 4 -25 7 -19 41 4 21 12 49 18 64 10 25 14 26 41 17 19
-7 31 -19 34 -35z m-180 -56 c-8 -46 -13 -48 -13 -5 0 21 4 37 10 37 5 0 7
-14 3 -32z m-16 -110 c-3 -8 -6 -5 -6 6 -1 11 2 17 5 13 3 -3 4 -12 1 -19z
m128 -38 c19 0 21 -6 21 -52 0 -31 5 -53 12 -56 13 -4 17 -42 5 -42 -5 0 -18
-3 -30 -6 -17 -5 -22 0 -28 25 -4 17 -10 31 -13 31 -4 0 -7 27 -8 60 0 41 3
57 10 50 5 -5 19 -10 31 -10z m140 -190 c3 -5 1 -10 -4 -10 -6 0 -11 5 -11 10
0 6 2 10 4 10 3 0 8 -4 11 -10z m-51 -60 c30 0 33 -2 28 -25 -3 -18 0 -25 12
-25 9 0 16 -7 16 -15 0 -8 7 -15 16 -15 12 0 15 -6 10 -22 -3 -13 -6 -29 -6
-35 0 -7 -7 -13 -15 -13 -8 0 -15 4 -15 8 0 4 -16 25 -35 45 -19 20 -35 42
-35 47 0 6 -4 10 -8 10 -5 0 -14 12 -21 26 -10 23 -10 26 4 20 9 -3 31 -6 49
-6z m869 -74 c-85 -94 -133 -127 -133 -91 0 8 -7 15 -15 15 -8 0 -15 5 -15 10
0 6 9 10 20 10 11 0 20 5 20 10 0 6 9 10 20 10 13 0 20 7 20 20 0 13 7 20 20
20 13 0 20 7 20 20 0 11 5 20 10 20 6 0 10 9 10 20 0 17 2 17 26 -7 l25 -25
-28 -32z m-708 -6 c3 -5 1 -10 -4 -10 -6 0 -11 5 -11 10 0 6 2 10 4 10 3 0 8
-4 11 -10z m502 -138 c10 -17 5 -21 -50 -40 -34 -12 -78 -24 -98 -27 -33 -6
-37 -5 -41 19 -4 20 -1 26 13 26 11 0 19 3 19 8 0 4 21 8 47 9 27 1 49 7 51
13 6 17 46 11 59 -8z"/>
</g>
</svg>
