<?xml version="1.0" standalone="no"?>
<!DOCTYPE svg PUBLIC "-//W3C//DTD SVG 20010904//EN"
 "http://www.w3.org/TR/2001/REC-SVG-20010904/DTD/svg10.dtd">
<svg version="1.0" xmlns="http://www.w3.org/2000/svg"
 width="130.000000pt" height="390.000000pt" viewBox="0 0 130.000000 390.000000"
 preserveAspectRatio="xMidYMid meet">
<metadata>
Created by potrace 1.13, written by Peter Selinger 2001-2015
</metadata>
<g transform="translate(0.000000,390.000000) scale(0.100000,-0.100000)"
fill="#000000" stroke="none">
<path d="M534 3872 c-50 -21 -124 -71 -124 -84 0 -6 -9 -17 -20 -26 -11 -10
-30 -44 -41 -77 -19 -55 -20 -66 -9 -135 7 -41 22 -94 34 -116 21 -41 92 -130
150 -186 27 -27 28 -31 22 -92 -4 -34 -14 -75 -22 -91 -8 -15 -14 -45 -14 -66
0 -36 -2 -39 -27 -39 -40 0 -108 -45 -148 -97 -92 -120 -186 -406 -244 -743
-63 -363 -59 -863 10 -1195 56 -270 180 -655 211 -655 5 0 8 -9 8 -20 0 -11 7
-23 15 -26 8 -4 15 -13 15 -21 0 -30 104 -131 173 -169 94 -51 314 -44 429 13
41 20 75 72 83 128 3 28 13 60 21 72 20 32 88 206 114 293 97 325 125 544 123
965 -1 473 -44 735 -175 1064 -55 141 -121 251 -202 338 -30 32 -65 65 -79 72
-16 8 -27 25 -31 45 -3 17 -13 66 -23 108 l-17 78 38 39 c21 22 53 45 70 52
34 14 96 71 96 88 0 6 4 11 8 11 10 0 38 81 46 130 8 49 -26 170 -60 217 -47
62 -56 69 -124 104 -60 31 -73 34 -165 36 -75 1 -110 -2 -141 -15z m233 -165
c23 -15 47 -35 52 -45 9 -18 7 -18 -47 -9 -31 5 -103 6 -159 4 -57 -3 -103 -2
-103 2 0 4 12 19 28 34 54 52 159 58 229 14z m83 -978 c0 -18 -2 -19 -15 -9
-8 7 -15 16 -15 21 0 5 7 9 15 9 9 0 15 -9 15 -21z m46 -89 c8 0 14 -9 14 -20
0 -15 -7 -20 -24 -20 -14 0 -28 5 -31 10 -3 6 -1 10 4 10 6 0 12 12 12 28 1
16 3 20 6 10 2 -10 11 -18 19 -18z m-508 -50 c-13 -3 -27 -16 -33 -28 -5 -12
-13 -22 -17 -22 -5 0 -8 -9 -8 -20 0 -11 7 -20 15 -20 12 0 15 -14 15 -64 0
-64 0 -64 -31 -71 -17 -4 -32 -5 -35 -3 -6 7 -21 163 -16 177 2 6 12 11 23 11
21 0 69 42 69 60 0 6 7 6 20 -2 20 -13 20 -13 -2 -18z m427 -10 c26 -50 21
-60 -32 -60 l-47 0 22 20 c12 11 26 20 33 20 7 0 9 10 7 25 -7 33 -2 32 17 -5z
m-263 -58 c17 -25 43 -70 59 -101 l29 -56 -25 -3 c-14 -2 -32 -13 -40 -25 -17
-24 -20 -57 -5 -57 6 0 10 -28 10 -65 0 -37 -4 -65 -10 -65 -5 0 -10 -9 -10
-20 0 -17 7 -20 40 -20 l39 0 3 113 3 112 33 -130 c17 -71 32 -133 32 -137 0
-4 -17 -8 -37 -10 -34 -3 -38 -6 -46 -42 -10 -40 5 -116 23 -116 11 0 -4 -55
-25 -86 -25 -38 -20 -58 13 -50 15 4 41 10 57 13 17 3 36 10 43 15 15 13 13
22 21 -100 5 -90 4 -101 -8 -83 -7 12 -21 21 -29 21 -12 0 -11 4 6 16 12 8 22
24 22 36 0 17 -5 19 -32 14 -18 -3 -57 -8 -86 -12 -43 -5 -55 -11 -66 -33 -10
-18 -31 -32 -68 -45 -29 -10 -59 -21 -65 -23 -7 -3 -13 2 -13 10 0 9 -9 22
-19 29 -16 11 -23 38 -35 135 -9 67 -16 139 -16 161 0 32 -4 41 -22 47 -20 6
-20 8 -5 12 14 4 17 16 17 63 0 37 -5 60 -12 63 -8 3 -6 6 5 6 14 1 17 11 17
61 0 47 -3 60 -15 60 -8 0 -15 5 -15 10 0 6 4 10 10 10 15 0 24 49 11 64 -10
12 -4 15 31 22 24 4 65 7 92 6 52 -1 75 15 76 52 0 15 -5 17 -35 12 l-35 -7
20 46 c23 53 26 114 8 135 -11 12 -10 12 5 0 10 -8 32 -34 49 -58z m382 13 c3
-8 1 -15 -4 -15 -6 0 -10 7 -10 15 0 8 2 15 4 15 2 0 6 -7 10 -15z m-702 -115
c-2 -22 -8 -40 -12 -40 -5 0 -11 -10 -13 -22 -3 -17 -5 -14 -6 10 0 17 4 32 9
32 6 0 10 14 10 30 0 17 3 30 8 30 4 0 6 -18 4 -40z m200 5 c-2 -14 -8 -25
-13 -25 -10 0 -12 34 -2 43 13 14 20 6 15 -18z m-245 -177 c-3 -8 -6 -5 -6 6
-1 11 2 17 5 13 3 -3 4 -12 1 -19z m122 -65 c-1 -33 -2 -35 -8 -13 -4 14 -6
31 -3 38 8 22 12 13 11 -25z m648 -95 c-3 -7 -5 -2 -5 12 0 14 2 19 5 13 2 -7
2 -19 0 -25z m-708 -10 c0 -18 -3 -27 -6 -20 -8 20 -43 14 -43 -8 0 -11 -7
-20 -15 -20 -8 0 -15 7 -15 15 0 8 -5 15 -11 15 -6 0 -9 8 -7 18 2 11 16 19
43 23 22 3 43 7 48 8 4 0 7 -14 6 -31z m491 -204 c0 -26 -4 -34 -18 -34 -29 0
-32 9 -15 46 20 40 33 35 33 -12z m-436 -259 c4 -15 1 -25 -10 -29 -12 -4 -14
-19 -12 -68 3 -62 3 -63 42 -81 57 -27 88 -20 99 23 5 19 19 45 31 57 27 27
96 58 96 43 0 -5 -9 -10 -20 -10 -13 0 -20 -7 -20 -20 0 -13 7 -20 20 -20 11
0 20 4 20 9 0 5 18 12 39 16 28 5 41 13 46 28 6 21 7 21 17 -5 6 -19 17 -28
31 -28 20 -1 21 -2 5 -14 -21 -16 -24 -46 -4 -46 7 0 16 -9 19 -19 4 -16 -1
-21 -22 -23 -22 -2 -27 -9 -29 -38 -6 -57 48 -80 89 -39 l22 22 -5 -132 c-3
-73 -8 -135 -12 -138 -15 -15 -19 6 -24 120 -2 29 -6 37 -21 37 -14 0 -25 -20
-50 -97 -40 -126 -40 -143 -1 -143 31 0 41 -16 15 -26 -8 -4 -15 -15 -15 -25
0 -15 7 -19 39 -19 l39 0 -14 -72 c-8 -40 -21 -93 -28 -118 l-15 -45 0 35 c-1
20 -6 41 -12 47 -8 8 -8 17 0 31 23 44 15 53 -39 46 -45 -6 -50 -5 -50 12 0
47 -22 205 -35 258 -18 69 -59 154 -83 172 -9 8 -34 14 -55 14 -40 0 -65 -19
-91 -68 -18 -36 -46 -151 -47 -200 -1 -34 -2 -32 -11 16 -5 28 -14 52 -19 52
-6 0 -5 8 1 20 12 22 4 87 -13 108 -5 6 -20 12 -33 12 -19 0 -24 5 -24 25 0
18 5 25 20 25 13 0 20 7 20 20 0 11 -4 20 -10 20 -19 0 -10 32 10 37 22 6 28
43 8 43 -9 0 -9 3 1 9 12 8 13 16 2 52 -9 31 -10 44 -2 47 16 5 14 42 -3 42
-10 0 -12 11 -8 45 4 42 3 45 -18 45 l-23 0 21 19 c26 21 29 51 6 51 -21 0
-44 -24 -45 -47 0 -14 -2 -15 -6 -3 -3 8 -11 18 -17 22 -7 5 -4 8 7 8 10 0 17
8 17 19 0 15 10 20 60 25 59 7 59 7 67 44 6 31 9 20 19 -72 7 -60 15 -119 18
-131z m-147 29 c-3 -3 -12 -4 -19 -1 -8 3 -5 6 6 6 11 1 17 -2 13 -5z m600
-146 c-3 -8 -6 -5 -6 6 -1 11 2 17 5 13 3 -3 4 -12 1 -19z m-607 -48 c0 -5 -4
-10 -10 -10 -5 0 -10 5 -10 10 0 6 5 10 10 10 6 0 10 -4 10 -10z m7 -96 c-3
-3 -12 -4 -19 -1 -8 3 -5 6 6 6 11 1 17 -2 13 -5z m247 -263 c-8 -77 -14 -92
-14 -32 0 35 -4 43 -25 51 -14 5 -25 17 -25 28 0 26 5 29 41 24 l30 -4 -7 -67z
m53 27 c-3 -8 -6 -5 -6 6 -1 11 2 17 5 13 3 -3 4 -12 1 -19z m-83 -130 c-4
-18 -8 -54 -8 -80 -1 -37 -5 -48 -17 -48 -24 0 -24 147 0 153 31 9 33 7 25
-25z m113 -43 c-1 -71 -2 -74 -27 -77 -22 -3 -25 -8 -28 -50 -3 -47 -3 -48 27
-48 29 0 30 -2 24 -32 -7 -38 -14 -48 -20 -30 -3 6 -14 12 -26 12 -21 0 -22 2
-15 77 5 43 11 108 14 145 5 58 9 67 28 71 11 2 22 5 23 6 1 0 1 -33 0 -74z
m250 53 c-3 -8 -6 -5 -6 6 -1 11 2 17 5 13 3 -3 4 -12 1 -19z m-487 -48 c0
-50 0 -50 -32 -49 -31 0 -32 1 -10 11 23 11 31 48 10 48 -6 0 -3 9 7 20 10 11
20 20 22 20 1 0 3 -22 3 -50z m0 -160 c0 -11 -4 -20 -10 -20 -5 0 -10 9 -10
20 0 11 5 20 10 20 6 0 10 -9 10 -20z m370 -54 c0 -9 -12 -16 -27 -18 -22 -2
-29 -9 -31 -32 -6 -53 5 -76 38 -76 17 0 30 -4 30 -9 0 -24 -21 -61 -35 -61
-8 0 -15 -7 -15 -16 0 -19 -46 -67 -74 -77 -15 -6 -17 -4 -12 15 4 13 9 41 13
63 3 22 13 65 23 95 10 30 21 69 25 87 6 30 10 33 58 42 4 0 7 -5 7 -13z
m-280 -126 c0 -9 -37 -20 -44 -13 -3 3 1 11 7 18 12 13 37 9 37 -5z m30 -45
c0 -8 5 -15 10 -15 6 0 10 -11 10 -24 0 -14 4 -36 9 -49 8 -20 6 -26 -7 -29
-10 -3 -23 1 -30 9 -8 7 -8 13 -2 13 5 0 10 9 10 20 0 11 -5 20 -11 20 -6 0
-17 7 -26 16 -14 14 -14 17 3 34 23 23 34 25 34 5z"/>
<path d="M1230 2990 c0 -13 7 -20 20 -20 13 0 20 7 20 20 0 13 -7 20 -20 20
-13 0 -20 -7 -20 -20z"/>
</g>
</svg>
