<?xml version="1.0" standalone="no"?>
<!DOCTYPE svg PUBLIC "-//W3C//DTD SVG 20010904//EN"
 "http://www.w3.org/TR/2001/REC-SVG-20010904/DTD/svg10.dtd">
<svg version="1.0" xmlns="http://www.w3.org/2000/svg"
 width="270.000000pt" height="375.000000pt" viewBox="0 0 270.000000 375.000000"
 preserveAspectRatio="xMidYMid meet">
<metadata>
Created by potrace 1.13, written by Peter Selinger 2001-2015
</metadata>
<g transform="translate(0.000000,375.000000) scale(0.100000,-0.100000)"
fill="#000000" stroke="none">
<path d="M1250 3727 c-106 -36 -213 -147 -261 -272 -29 -75 -31 -86 -27 -185
4 -91 8 -114 35 -170 32 -69 103 -156 147 -179 14 -8 26 -23 26 -32 0 -22 34
-46 78 -55 39 -8 55 -26 50 -56 -2 -17 -11 -24 -30 -26 -15 -2 -34 -12 -41
-22 -10 -14 -34 -22 -83 -29 -86 -13 -202 -42 -274 -71 -86 -33 -240 -111
-240 -121 0 -5 -5 -9 -11 -9 -16 0 -105 -65 -158 -114 -79 -75 -181 -186 -181
-198 0 -4 -6 -13 -13 -20 -43 -43 -147 -239 -181 -341 -97 -287 -99 -635 -7
-907 29 -85 123 -273 163 -325 69 -91 161 -199 197 -233 56 -52 281 -202 336
-224 22 -9 58 -23 80 -31 22 -9 59 -21 83 -27 32 -8 42 -16 42 -31 0 -48 7
-48 351 -46 l324 2 3 28 c2 19 9 27 23 27 69 0 407 160 475 225 6 5 24 19 40
30 42 29 188 180 220 229 16 22 36 50 45 61 27 31 129 226 129 246 0 9 3 19 8
21 14 6 61 171 82 288 111 627 -272 1273 -875 1475 -72 25 -128 40 -206 59
-15 3 -29 15 -32 27 -3 11 -14 23 -25 26 -21 5 -37 43 -24 54 4 4 24 12 45 19
20 6 37 17 37 23 0 7 26 26 58 44 114 62 185 164 212 305 19 94 3 225 -35 305
-37 74 -122 159 -205 203 -64 34 -67 34 -205 37 -89 1 -153 -2 -175 -10z m250
-183 c39 -12 68 -29 101 -63 61 -61 79 -98 86 -179 5 -60 2 -74 -25 -132 -49
-104 -50 -105 -108 -78 -42 18 -68 22 -174 22 -69 1 -136 -1 -149 -4 -20 -4
-29 3 -54 44 -24 39 -31 63 -35 121 -4 67 -2 77 27 131 69 128 192 179 331
138z m-483 -286 c-3 -8 -6 -5 -6 6 -1 11 2 17 5 13 3 -3 4 -12 1 -19z m374
-204 c31 -2 73 -8 95 -13 31 -8 22 -8 -38 -4 -68 5 -78 4 -78 -11 0 -9 -4 -16
-10 -16 -5 0 -10 7 -10 15 0 11 -14 15 -57 16 -32 1 -50 3 -40 6 9 2 17 9 17
15 0 7 12 8 33 3 17 -4 57 -9 88 -11z m-253 -443 c27 -23 28 -31 2 -31 -11 0
-20 4 -20 9 0 5 -3 16 -6 25 -8 21 -2 20 24 -3z m192 0 c0 -9 -23 -21 -40 -21
-4 0 -10 7 -14 15 -4 11 2 15 24 15 17 0 30 -4 30 -9z m-250 -20 c0 -15 -13
-23 -52 -36 -29 -9 -61 -20 -70 -26 -10 -5 -24 -9 -32 -9 -12 0 -142 -59 -176
-81 -8 -5 -25 -13 -37 -19 -13 -5 -23 -18 -23 -29 0 -14 -5 -18 -19 -14 -20 5
-28 0 -82 -49 -16 -16 -32 -28 -35 -28 -10 0 -34 -28 -34 -39 0 -6 -7 -11 -15
-11 -8 0 -15 -8 -15 -19 0 -13 -9 -20 -30 -24 -20 -4 -30 -13 -30 -24 0 -10
-10 -23 -22 -28 -29 -13 -36 -51 -11 -58 10 -3 1 -5 -19 -6 -27 -1 -38 -6 -38
-16 0 -21 -18 -19 -22 3 -4 20 20 52 39 52 7 0 13 7 13 15 0 8 7 15 15 15 9 0
15 9 15 24 0 16 7 27 22 32 28 9 68 49 68 69 0 9 9 15 25 15 16 0 25 6 25 15
0 8 7 15 15 15 8 0 15 7 15 15 0 8 9 15 20 15 11 0 20 7 20 15 0 8 9 15 20 15
15 0 20 7 20 25 0 23 4 25 40 25 29 0 40 4 40 15 0 21 145 90 182 87 18 -2 28
3 28 11 0 8 29 22 68 34 37 12 68 22 70 22 1 1 2 -8 2 -18z m140 9 c0 -5 -2
-10 -4 -10 -3 0 -8 5 -11 10 -3 6 -1 10 4 10 6 0 11 -4 11 -10z m304 -90 c5
-5 -44 -6 -120 -3 -193 8 -389 -34 -571 -123 -136 -67 -299 -207 -408 -349
-222 -290 -277 -722 -141 -1095 22 -58 77 -158 138 -247 60 -86 209 -233 238
-233 11 0 20 -6 20 -14 0 -7 18 -26 40 -41 51 -35 52 -44 3 -14 -44 27 -131
97 -189 154 -147 142 -277 372 -319 562 -4 21 -13 33 -23 34 -11 0 -12 2 -4 6
6 2 12 20 12 39 0 26 -4 34 -17 34 -12 0 -14 3 -6 8 8 5 12 52 12 148 0 78 5
152 9 165 5 13 12 49 16 79 4 30 12 60 17 66 5 7 11 33 12 58 1 31 6 46 16 46
9 0 12 8 9 25 -4 17 -1 25 8 25 8 0 14 9 14 20 0 11 3 20 8 20 4 0 19 21 32
48 14 26 27 49 30 52 22 21 60 82 60 94 0 9 5 16 10 16 14 0 160 147 160 160
0 6 7 10 15 10 8 0 15 5 15 10 0 6 5 10 11 10 6 0 33 16 59 35 26 19 53 35 59
35 6 0 11 4 11 8 0 4 16 14 35 21 19 7 35 17 35 22 0 5 8 9 18 9 10 0 22 4 28
9 26 25 218 77 359 97 94 14 273 10 289 -6z m96 -16 c0 -2 -11 -4 -25 -4 -14
0 -25 4 -25 9 0 4 11 6 25 3 14 -2 25 -6 25 -8z m37 -10 c-3 -3 -12 -4 -19 -1
-8 3 -5 6 6 6 11 1 17 -2 13 -5z m-295 -41 c3 -26 6 -28 53 -28 44 0 50 3 53
23 2 14 10 22 23 22 15 0 19 -7 19 -31 0 -26 3 -30 23 -27 14 2 23 11 25 26 2
12 7 22 12 22 22 0 40 -14 40 -31 0 -12 7 -19 20 -19 12 0 20 7 20 16 0 11 5
14 16 10 9 -3 20 -6 25 -6 5 0 9 -16 9 -35 0 -29 4 -35 21 -35 13 0 23 8 26
20 3 13 12 20 22 18 12 -3 15 -13 13 -41 -2 -27 1 -37 12 -37 25 0 46 12 46
26 0 18 11 18 36 -1 15 -12 16 -16 6 -24 -22 -14 -10 -45 22 -56 23 -8 30 -6
41 9 12 16 16 16 34 4 14 -10 17 -18 10 -28 -5 -8 -9 -23 -9 -32 0 -25 39 -23
48 1 7 19 8 18 35 -5 26 -22 26 -24 8 -24 -16 0 -21 -6 -21 -25 0 -20 5 -25
25 -25 16 0 25 6 25 15 0 21 9 19 31 -7 17 -19 18 -23 4 -38 -8 -9 -15 -24
-15 -33 0 -22 46 -23 58 -1 8 14 12 12 30 -14 l22 -30 -21 -5 c-15 -4 -20 -12
-17 -29 4 -28 35 -36 52 -13 11 15 13 14 26 -10 13 -24 13 -28 -3 -40 -37 -27
-1 -85 53 -85 23 0 33 -6 39 -22 7 -20 4 -24 -20 -31 -20 -5 -29 -14 -29 -29
0 -18 4 -20 40 -15 22 3 40 2 40 -1 0 -4 3 -17 6 -29 5 -19 2 -23 -15 -23 -16
0 -21 -6 -21 -26 0 -24 3 -26 30 -20 17 3 30 2 30 -2 0 -4 3 -17 6 -29 5 -20
2 -23 -20 -23 -21 0 -26 -5 -26 -25 0 -22 4 -25 34 -25 31 0 34 -3 40 -37 13
-83 1 -123 -38 -123 -12 0 -16 -11 -16 -50 0 -48 1 -51 31 -57 21 -4 28 -10
25 -20 -4 -8 -6 -19 -6 -24 0 -5 -13 -9 -30 -9 -23 0 -30 -4 -30 -20 0 -15 7
-20 25 -20 21 0 25 -5 25 -30 0 -28 -3 -30 -35 -30 -28 0 -35 -4 -35 -20 0
-13 9 -22 26 -26 17 -4 23 -11 20 -21 -3 -8 -6 -19 -6 -24 0 -6 -15 -7 -36 -3
-33 6 -36 5 -32 -17 2 -16 11 -25 26 -27 25 -4 26 -6 12 -32 -8 -15 -17 -18
-40 -13 -26 5 -30 3 -30 -17 0 -13 8 -24 19 -27 17 -4 18 -9 9 -29 -11 -25
-28 -32 -28 -13 0 19 -45 5 -49 -16 -2 -11 -9 -24 -17 -28 -17 -10 -18 -49 -3
-64 7 -7 9 -19 5 -29 -5 -13 -9 -15 -18 -6 -7 7 -20 12 -30 12 -22 0 -25 -35
-4 -47 12 -7 11 -12 -5 -32 -14 -17 -19 -19 -19 -7 0 10 -9 16 -25 16 -29 0
-36 -33 -10 -48 13 -7 12 -12 -10 -32 -21 -19 -25 -21 -25 -7 0 11 -8 17 -25
17 -29 0 -35 -33 -9 -48 13 -7 12 -11 -9 -25 -22 -14 -26 -14 -31 -2 -8 23
-56 19 -56 -4 0 -10 7 -22 17 -25 14 -6 14 -8 -3 -21 -25 -19 -54 -19 -54 0 0
19 -39 20 -46 1 -3 -8 -17 -17 -31 -21 -23 -5 -25 -10 -20 -40 3 -19 3 -35 -1
-35 -4 0 -17 -3 -29 -6 -17 -5 -23 -2 -23 10 0 11 -9 16 -26 16 -24 0 -26 -3
-21 -28 5 -24 2 -30 -24 -39 -26 -10 -29 -9 -29 8 0 12 -7 19 -20 19 -14 0
-20 -7 -20 -24 0 -23 -16 -36 -46 -36 -8 0 -14 9 -14 20 0 13 -7 20 -20 20
-15 0 -20 -7 -20 -25 0 -14 -4 -25 -9 -25 -5 0 -16 -3 -25 -6 -12 -5 -16 0
-16 20 0 21 -5 26 -25 26 -20 0 -25 -5 -25 -25 0 -21 -5 -25 -29 -25 -25 0
-28 3 -24 25 6 28 -14 35 -82 32 -33 -2 -41 -6 -43 -25 -3 -18 -10 -22 -36
-22 -30 0 -32 2 -28 30 4 27 1 30 -22 30 -21 0 -26 -5 -26 -25 0 -14 -4 -25
-9 -25 -25 0 -41 14 -41 36 0 17 -6 24 -20 24 -13 0 -20 -7 -20 -20 0 -23 0
-23 -33 -11 -20 8 -23 15 -19 40 4 28 2 31 -22 31 -21 0 -26 -5 -26 -24 0 -24
-2 -24 -31 -14 -26 9 -29 12 -15 20 9 5 16 18 16 28 0 13 7 20 20 20 23 0 29
37 6 42 -10 2 -4 26 25 98 21 52 41 110 45 127 5 29 4 33 -15 33 -11 0 -21 5
-21 10 0 14 -90 70 -112 70 -10 0 -18 -6 -18 -14 0 -23 -120 -196 -136 -196
-27 0 -14 -37 23 -63 38 -27 38 -27 10 -27 -16 0 -27 -5 -27 -14 0 -20 -47 -8
-53 15 -3 10 -1 19 4 19 5 0 9 11 9 25 0 27 -26 35 -48 13 -10 -9 -16 -8 -29
5 -16 16 -16 17 0 17 10 0 17 8 17 20 0 15 -7 20 -25 20 -14 0 -25 -5 -25 -12
0 -6 -11 -1 -25 12 -22 20 -23 25 -10 32 23 13 19 48 -5 48 -11 0 -23 -7 -26
-15 -5 -12 -10 -10 -24 8 -18 21 -18 22 1 29 10 4 19 14 19 21 0 10 8 13 25 9
20 -3 25 0 25 15 0 11 13 30 28 42 162 124 177 150 123 219 -16 20 -34 54 -41
75 -13 42 -46 52 -52 16 -2 -13 -25 -32 -68 -55 -36 -20 -75 -42 -88 -50 -20
-13 -23 -13 -28 1 -3 8 -15 15 -25 15 -23 0 -25 -27 -4 -77 19 -46 20 -43 -18
-43 -26 0 -36 6 -45 25 -16 34 -16 33 11 37 14 2 23 11 25 27 4 22 1 23 -31
18 -26 -4 -37 -2 -41 10 -11 27 -6 41 14 46 31 8 27 47 -5 47 -14 0 -26 -6
-26 -12 -1 -7 -4 1 -8 17 -5 25 -3 31 14 35 13 4 21 16 23 34 3 27 2 28 -27
23 -28 -6 -31 -4 -31 18 0 18 5 25 20 25 13 0 20 7 20 20 0 15 -7 20 -25 20
-21 0 -25 5 -25 30 0 25 4 30 25 30 28 0 39 26 33 81 -3 29 -7 34 -28 34 -23
0 -25 3 -22 27 4 23 9 28 33 28 24 0 29 4 29 25 0 20 -5 25 -23 25 -20 0 -23
4 -19 28 3 25 7 27 38 24 29 -4 34 -1 34 16 0 13 -9 22 -26 26 -18 5 -24 12
-20 22 3 9 6 21 6 28 0 8 12 11 36 8 33 -4 35 -2 32 19 -2 16 -11 25 -25 27
-20 3 -21 6 -11 28 10 21 16 23 45 18 31 -6 33 -4 33 20 0 19 -5 26 -20 26
-23 0 -25 9 -7 33 9 13 20 16 44 11 31 -6 32 -8 18 -27 -28 -40 -20 -57 28
-56 75 1 102 -10 126 -51 11 -20 27 -43 35 -49 7 -6 11 -22 8 -36 -4 -21 0
-25 18 -25 25 0 49 25 50 52 0 9 11 29 25 44 29 31 34 74 9 74 -36 0 -140 45
-161 69 -12 14 -22 39 -23 55 0 26 -3 28 -30 24 -20 -3 -30 0 -30 8 0 7 -8 17
-18 23 -12 7 -14 13 -6 21 8 8 14 7 24 -5 16 -19 50 -20 50 -1 0 26 -12 46
-28 46 -15 0 -15 1 0 16 13 13 19 14 35 3 11 -7 28 -9 37 -6 17 7 23 47 6 47
-12 0 -13 11 0 30 7 12 12 12 22 2 20 -20 58 -15 58 8 0 11 -7 23 -16 27 -15
6 -15 7 1 20 15 11 21 11 34 0 9 -8 35 -19 58 -27 60 -18 114 -85 119 -145 2
-24 -1 -47 -6 -50 -6 -3 -10 -15 -10 -26 0 -15 7 -19 32 -19 17 0 39 6 47 13
9 7 46 27 83 43 69 30 90 59 47 66 -29 4 -119 160 -119 206 0 27 -4 32 -23 32
-13 0 -28 -5 -35 -12 -9 -9 -12 -4 -12 23 0 28 5 38 24 47 21 10 26 8 31 -8 4
-11 15 -20 27 -20 17 0 20 5 16 28 -4 26 0 30 34 39 34 9 38 8 38 -8 0 -12 7
-19 20 -19 26 0 28 40 3 41 -12 1 -10 4 7 9 42 13 57 11 63 -10 3 -11 14 -20
25 -20 17 0 20 -9 26 -67 26 -276 25 -347 -3 -394 -27 -44 -26 -90 2 -142 34
-64 36 -97 10 -124 -17 -16 -23 -34 -23 -65 0 -58 18 -88 65 -115 22 -13 35
-23 29 -23 -6 0 -22 -16 -35 -35 -27 -39 -49 -46 -49 -14 0 30 -68 109 -94
109 -36 0 -126 -53 -132 -77 -5 -19 -13 -23 -43 -23 -26 0 -44 -8 -64 -29 -30
-31 -74 -41 -183 -41 l-64 0 7 75 c6 72 5 75 -16 75 -11 0 -21 -6 -21 -14 0
-15 -88 -46 -129 -46 -34 0 -91 32 -91 52 0 11 -7 18 -19 18 -23 0 -31 -40
-31 -167 0 -93 0 -93 25 -93 19 0 25 5 25 23 0 21 3 22 100 22 89 0 100 -2
100 -17 0 -25 36 -23 43 1 4 18 16 20 118 23 108 3 115 2 134 -19 16 -18 32
-23 68 -23 39 0 47 -3 47 -19 0 -10 17 -30 41 -46 34 -22 50 -26 81 -22 45 6
98 56 98 93 0 31 31 32 45 2 17 -36 73 -60 129 -55 42 4 55 10 83 41 30 32 33
42 33 94 0 52 -4 63 -29 90 -16 16 -39 33 -50 37 -20 6 -30 25 -13 25 13 0 32
63 32 106 0 21 -9 54 -20 72 -11 18 -20 44 -20 57 0 23 -4 25 -42 25 -26 0
-52 8 -67 19 l-23 18 30 -5 c23 -3 37 2 56 21 37 37 35 86 -4 130 -16 19 -30
41 -30 50 0 8 -7 20 -15 27 -8 7 -15 21 -15 31 0 18 16 22 80 21 3 0 40 -3 83
-7 74 -6 77 -6 77 14 0 12 -5 21 -11 21 -17 0 -8 209 10 219 7 5 11 17 9 27
-4 23 -54 32 -180 33 -82 1 -88 0 -88 -19 0 -11 4 -20 9 -20 5 0 19 -27 31
-61 23 -59 23 -62 6 -115 -16 -49 -36 -72 -36 -41 0 6 -7 66 -15 132 -17 142
-19 195 -5 195 6 0 10 -9 10 -20 0 -13 7 -20 20 -20 25 0 27 37 3 43 -10 3 3
5 29 6 44 1 47 -1 50 -26z m423 1 c22 -16 14 -19 -13 -5 -9 5 -28 14 -42 20
-24 10 -24 10 5 4 17 -3 39 -12 50 -19z m-415 -103 c0 -6 -4 -13 -10 -16 -5
-3 -10 1 -10 9 0 9 5 16 10 16 6 0 10 -4 10 -9z m-546 -77 c15 3 26 11 26 16
0 6 7 10 16 10 13 0 11 -4 -7 -17 -65 -48 -94 -54 -104 -22 -9 28 15 45 32 23
8 -11 20 -14 37 -10z m-515 -236 c-7 -13 -20 -33 -29 -45 -15 -20 -19 -21 -24
-7 -4 11 1 18 15 21 16 4 20 12 16 29 -3 18 0 24 15 24 16 0 17 -3 7 -22z
m-59 -97 c0 -5 -11 -31 -24 -58 -24 -47 -43 -102 -67 -193 -8 -27 -14 -38 -16
-27 -3 9 -8 17 -13 17 -5 0 -7 7 -4 15 4 8 12 15 20 15 13 0 16 10 19 70 2 43
17 80 31 80 20 0 17 38 -3 43 -11 3 -7 5 10 6 20 1 27 6 27 21 0 11 5 20 10
20 6 0 10 -4 10 -9z m250 -1 c0 -5 -4 -10 -10 -10 -5 0 -10 5 -10 10 0 6 5 10
10 10 6 0 10 -4 10 -10z m802 -17 c22 -20 23 -36 3 -53 -12 -10 -16 -9 -21 4
-9 24 -42 20 -47 -6 -4 -20 -4 -19 -6 4 0 16 8 35 21 48 26 24 27 24 50 3z
m-612 -143 c0 -5 -2 -10 -4 -10 -3 0 -8 5 -11 10 -3 6 -1 10 4 10 6 0 11 -4
11 -10z m626 -76 c19 -15 19 -15 -1 -6 -11 5 -27 12 -35 15 -13 5 -13 6 1 6 8
1 24 -6 35 -15z m-16 -54 c12 -8 13 -13 3 -30 -19 -29 -16 -50 6 -50 29 0 51
27 51 63 0 24 3 28 10 17 16 -25 11 -46 -15 -73 -37 -36 -60 -39 -90 -11 -48
45 -18 118 35 84z m-1163 -47 c-3 -10 -5 -4 -5 12 0 17 2 24 5 18 2 -7 2 -21
0 -30z m-16 -113 c-6 -40 -9 -46 -10 -22 0 18 -6 32 -13 32 -8 1 -6 6 5 14 9
7 18 26 18 42 1 19 3 22 6 9 2 -11 0 -45 -6 -75z m929 -45 c0 -8 -4 -15 -9
-15 -13 0 -22 16 -14 24 11 11 23 6 23 -9z m95 -14 c3 -5 1 -12 -5 -16 -5 -3
-10 1 -10 9 0 18 6 21 15 7z m-652 -48 c-7 -2 -19 -2 -25 0 -7 3 -2 5 12 5 14
0 19 -2 13 -5z m-371 -133 c4 -42 -6 -54 -17 -20 -6 18 1 60 10 60 1 0 5 -18
7 -40z m923 30 c3 -5 1 -10 -4 -10 -6 0 -11 5 -11 10 0 6 2 10 4 10 3 0 8 -4
11 -10z m-915 -120 c0 -5 -4 -10 -9 -10 -6 0 -13 5 -16 10 -3 6 1 10 9 10 9 0
16 -4 16 -10z m6 -68 c-11 -10 -15 4 -8 28 l7 25 3 -23 c2 -13 1 -26 -2 -30z
m34 -82 c0 -13 -5 -17 -14 -14 -24 9 -28 34 -6 34 13 0 20 -7 20 -20z m31 -87
c5 -14 5 -23 -1 -23 -6 0 -10 4 -10 9 0 5 -8 17 -17 26 -16 16 -15 17 2 14 10
-2 21 -14 26 -26z m279 -103 c3 -3 11 -15 18 -27 11 -21 10 -23 -12 -23 -15 0
-26 -7 -28 -17 -3 -14 -8 -10 -21 15 -15 28 -16 32 -2 32 17 0 22 55 5 65 -5
3 -10 12 -10 18 0 7 10 -4 22 -23 12 -19 25 -37 28 -40z m466 -148 c-17 -16
-18 -16 -5 5 7 12 15 20 18 17 3 -2 -3 -12 -13 -22z m-121 -192 c18 -8 17 -9
-7 -9 -16 -1 -28 4 -28 9 0 12 8 12 35 0z m45 -30 c0 -5 12 -11 28 -11 23 -2
24 -2 5 -6 -14 -3 -25 -14 -29 -28 -5 -21 -9 -22 -30 -13 -24 11 -34 38 -14
38 6 0 10 7 10 15 0 8 7 15 15 15 8 0 15 -4 15 -10z m-2 -126 c-5 -5 -98 45
-98 52 0 2 23 -7 51 -22 28 -14 49 -27 47 -30z m67 -24 c3 -5 2 -10 -4 -10 -5
0 -13 5 -16 10 -3 6 -2 10 4 10 5 0 13 -4 16 -10z m272 -66 c-3 -3 -12 -4 -19
-1 -8 3 -5 6 6 6 11 1 17 -2 13 -5z"/>
<path d="M1821 2233 c2 -36 -85 -189 -111 -196 -11 -3 -20 -13 -20 -24 0 -21
60 -63 91 -63 18 0 20 4 16 28 -7 35 88 202 116 202 30 0 20 37 -17 59 -49 31
-77 28 -75 -6z"/>
<path d="M2170 1913 c0 -24 -162 -119 -196 -115 -21 3 -24 -1 -24 -26 0 -16 6
-35 14 -41 8 -6 19 -25 26 -41 9 -21 19 -30 36 -30 13 0 24 4 24 9 0 11 191
121 209 121 33 0 -32 133 -68 138 -15 2 -21 -2 -21 -15z"/>
<path d="M2400 1470 c0 -15 7 -20 25 -20 18 0 25 5 25 20 0 15 -7 20 -25 20
-18 0 -25 -5 -25 -20z"/>
<path d="M2330 1440 c0 -19 -7 -20 -110 -20 -67 0 -110 4 -110 10 0 6 -9 10
-20 10 -16 0 -20 -7 -20 -34 0 -18 -3 -61 -6 -95 -6 -56 -5 -61 13 -61 10 0
23 4 28 8 6 4 56 6 112 4 90 -3 103 -6 108 -23 4 -10 15 -19 26 -19 18 0 19 8
19 120 0 113 -1 120 -20 120 -13 0 -20 -7 -20 -20z"/>
<path d="M1998 1043 c-12 -27 -26 -52 -30 -58 -5 -5 -17 -21 -28 -34 -22 -26
-27 -71 -8 -71 6 0 54 -25 105 -56 64 -39 93 -63 93 -75 0 -12 7 -19 20 -19
20 0 56 51 113 156 35 67 35 85 -1 82 -32 -2 -202 90 -202 110 0 6 -9 12 -20
12 -14 0 -26 -14 -42 -47z"/>
<path d="M1700 703 c0 -25 43 -180 60 -214 4 -8 6 -27 3 -42 -4 -22 -2 -27 15
-27 11 0 27 7 36 15 8 8 19 15 25 15 19 0 12 37 -8 43 -16 4 -51 63 -51 85 0
3 18 -12 40 -33 22 -21 40 -45 40 -52 0 -20 25 -15 74 15 57 34 64 68 12 59
-32 -5 -40 0 -122 79 -93 89 -124 103 -124 57z"/>
<path d="M1238 505 c4 -132 4 -135 -17 -135 -14 0 -21 -6 -21 -20 0 -19 7 -20
130 -20 123 0 130 1 130 20 0 13 -7 20 -19 20 -15 0 -20 10 -25 53 -4 28 -14
86 -24 128 l-16 77 -45 6 c-24 3 -56 6 -70 6 l-27 0 4 -135z m85 48 c-8 -52
-13 -54 -13 -5 0 23 4 42 9 42 6 0 7 -17 4 -37z m23 -181 c-12 -11 -18 7 -10
30 l8 23 4 -23 c2 -13 1 -26 -2 -30z"/>
</g>
</svg>
