<?xml version="1.0" standalone="no"?>
<!DOCTYPE svg PUBLIC "-//W3C//DTD SVG 20010904//EN"
 "http://www.w3.org/TR/2001/REC-SVG-20010904/DTD/svg10.dtd">
<svg version="1.0" xmlns="http://www.w3.org/2000/svg"
 width="140.000000pt" height="212.000000pt" viewBox="0 0 140.000000 212.000000"
 preserveAspectRatio="xMidYMid meet">
<metadata>
Created by potrace 1.13, written by Peter Selinger 2001-2015
</metadata>
<g transform="translate(0.000000,212.000000) scale(0.100000,-0.100000)"
fill="#000000" stroke="none">
<path d="M585 2102 c-57 -8 -125 -45 -172 -94 -93 -97 -88 -249 12 -336 19
-18 41 -49 48 -69 10 -30 18 -39 40 -41 18 -2 32 -12 39 -28 6 -13 18 -24 27
-24 13 0 15 -10 13 -60 -3 -51 -7 -60 -22 -60 -31 0 -125 -27 -166 -48 -25
-13 -51 -18 -72 -15 -40 6 -62 -10 -62 -47 0 -16 -7 -30 -15 -34 -8 -3 -15
-12 -15 -21 0 -8 -6 -15 -13 -15 -38 0 -144 -164 -185 -285 -23 -71 -26 -95
-26 -215 0 -100 5 -151 18 -195 17 -59 63 -165 75 -175 3 -3 13 -18 21 -35 22
-44 147 -166 207 -202 229 -139 560 -124 773 35 197 147 313 410 281 637 -21
154 -87 303 -176 403 -25 27 -45 59 -45 71 0 12 -4 21 -9 21 -6 0 -30 18 -55
39 -29 25 -59 42 -85 46 -23 4 -41 11 -41 17 0 5 -17 8 -37 7 -21 -2 -57 0
-80 5 l-43 8 0 56 c1 56 1 57 38 74 20 9 47 19 60 23 17 5 22 14 22 41 0 19 4
34 8 34 19 0 94 75 114 114 62 117 -11 285 -152 348 -40 18 -244 30 -325 20z
m237 -132 c44 -13 93 -52 113 -91 19 -35 19 -96 0 -129 l-14 -25 -1 26 c-1 72
-106 117 -249 106 -123 -10 -170 -37 -171 -99 l-1 -23 -14 25 c-47 82 12 183
121 209 54 13 172 13 216 1z m-175 -382 c-3 -8 -6 -5 -6 6 -1 11 2 17 5 13 3
-3 4 -12 1 -19z m2 -410 c-1 -24 -3 -35 -6 -25 -4 17 -43 25 -43 8 0 -4 -12
-6 -26 -3 -22 4 -25 2 -22 -19 3 -21 8 -24 40 -22 32 2 38 -2 52 -32 23 -47 8
-85 -33 -85 -23 0 -33 7 -45 32 -9 17 -16 39 -16 50 0 11 -7 18 -20 18 -17 0
-19 5 -14 25 3 14 1 31 -5 39 -14 16 -2 23 79 41 30 7 56 13 58 14 1 1 1 -18
1 -41z m201 18 c66 -19 87 -31 71 -40 -6 -4 -12 -17 -12 -29 -1 -17 -2 -18 -6
-4 -2 9 -13 17 -24 17 -10 0 -19 4 -19 10 0 5 -22 12 -50 16 -45 6 -50 9 -50
31 0 18 4 23 18 19 9 -2 42 -11 72 -20z m-30 -76 c0 -5 7 -10 16 -10 8 0 22
-6 30 -14 12 -13 12 -20 -7 -56 -19 -36 -25 -41 -53 -38 -31 3 -31 4 -34 66
-3 61 -2 62 23 62 14 0 25 -4 25 -10z m267 -84 c18 -22 29 -44 25 -48 -11 -11
-52 3 -52 18 0 8 -9 14 -20 14 -13 0 -20 7 -20 20 0 11 -6 20 -14 20 -13 0
-26 28 -26 58 0 20 69 -33 107 -82z m-657 37 c0 -7 -9 -13 -20 -13 -11 0 -20
-7 -20 -15 0 -9 -9 -15 -21 -15 -15 0 -20 -5 -17 -22 4 -31 48 -39 48 -9 0 12
4 21 9 21 25 0 73 -25 83 -44 11 -20 10 -20 -9 -3 -45 40 -73 3 -33 -43 11
-13 19 -25 17 -26 -2 -2 -20 1 -41 7 -24 7 -40 18 -43 30 -3 12 -14 19 -29 19
-17 0 -24 6 -24 20 0 10 -8 23 -17 29 -15 8 -11 16 36 63 50 50 53 52 67 33 8
-10 14 -25 14 -32z m526 -33 c8 0 14 -7 14 -15 0 -8 9 -15 20 -15 11 0 20 -7
20 -15 0 -8 7 -15 15 -15 37 0 2 -56 -49 -78 -27 -12 -30 -10 -62 22 l-34 35
28 51 c15 27 28 46 30 40 2 -5 10 -10 18 -10z m-149 -99 c46 -25 60 -36 96
-79 33 -41 34 -52 2 -52 -18 0 -25 -5 -25 -19 0 -17 -4 -18 -38 -9 -27 7 -49
6 -77 -4 -43 -14 -85 -13 -85 3 0 15 -26 39 -41 39 -10 0 -10 3 -1 12 23 23
13 56 -23 81 l-36 24 28 11 c69 27 141 24 200 -7z m-543 -27 c9 -3 16 -15 16
-25 0 -16 8 -19 51 -19 41 0 56 -5 71 -22 10 -12 16 -28 13 -36 -3 -7 -5 -17
-5 -22 0 -14 -59 -32 -84 -26 -18 4 -26 14 -28 34 -2 20 -9 28 -27 30 -20 3
-23 0 -19 -20 5 -26 -12 -48 -37 -48 -14 0 -15 8 -9 47 7 45 30 113 38 113 3
0 11 -3 20 -6z m916 -40 c14 -36 13 -44 -10 -44 -12 0 -22 9 -26 24 -11 47 20
64 36 20z m-84 -18 c8 -8 14 -19 14 -24 0 -16 -53 -21 -73 -7 -18 13 -18 14 9
29 36 19 33 19 50 2z m-561 -82 c15 -4 31 -1 40 6 11 9 15 9 15 1 0 -7 11 -22
24 -34 14 -13 28 -36 32 -53 4 -16 12 -32 18 -36 6 -4 0 -8 -14 -8 -30 0 -109
-44 -127 -71 -8 -10 -18 -19 -23 -19 -17 0 -48 74 -55 131 -6 47 -3 65 15 105
l21 49 14 -32 c9 -20 23 -35 40 -39z m673 -12 c3 -16 -2 -22 -16 -22 -24 0
-38 30 -20 42 19 12 33 4 36 -20z m-103 -12 c-11 -5 -27 -9 -35 -9 -9 0 -8 4
5 9 11 5 27 9 35 9 9 0 8 -4 -5 -9z m-145 -64 c0 -29 -35 -109 -54 -125 -12
-10 -17 -8 -25 7 -14 25 -99 82 -123 82 -36 0 -8 17 38 24 26 3 52 10 58 15 6
5 27 11 46 14 19 2 41 5 48 5 6 1 12 -9 12 -22z m-576 -22 c9 -3 16 -16 16
-28 0 -31 -60 -59 -106 -50 -30 5 -34 4 -34 -15 0 -11 5 -21 10 -21 22 0 9
-38 -14 -42 -20 -4 -25 1 -34 31 -6 20 -14 55 -18 79 -6 41 -6 42 17 34 13 -5
25 -19 27 -31 2 -13 11 -21 23 -21 14 0 19 7 19 29 0 16 6 32 13 34 18 8 63 8
81 1z m706 -24 c0 -5 6 -10 14 -10 9 0 12 -8 8 -25 -2 -14 -8 -25 -13 -25 -5
0 -9 -7 -9 -15 0 -19 -3 -19 -51 5 -42 22 -55 40 -45 65 6 17 96 22 96 5z
m106 -37 c-9 -55 -37 -113 -53 -113 -19 0 -35 44 -17 48 8 2 14 9 14 15 0 7 5
29 11 50 7 27 15 37 31 37 18 0 20 -4 14 -37z m-549 -39 c-3 -3 -12 -4 -19 -1
-8 3 -5 6 6 6 11 1 17 -2 13 -5z m157 -27 c34 -32 48 -67 26 -67 -5 0 -10 9
-10 20 0 13 -7 20 -20 20 -26 0 -28 -39 -2 -41 16 -1 16 -2 0 -6 -15 -4 -18
-16 -18 -64 0 -52 2 -59 20 -59 11 0 20 -4 20 -10 0 -5 -9 -14 -20 -20 -17 -9
-20 -8 -20 10 0 12 -7 20 -17 20 -13 0 -14 3 -5 12 18 18 15 46 -8 65 -11 10
-20 21 -20 25 0 5 -15 22 -32 38 l-33 31 55 -3 c50 -3 55 -1 58 20 2 15 -2 22
-12 22 -9 0 -16 5 -16 10 0 18 17 11 54 -23z m-315 -46 c12 -7 12 -15 0 -51
-15 -45 -48 -76 -56 -52 -3 6 -13 12 -24 12 -28 0 -24 15 17 60 39 43 42 44
63 31z m484 -13 c48 -33 61 -58 32 -58 -8 0 -15 -7 -15 -15 0 -8 -7 -15 -15
-15 -8 0 -15 -8 -15 -17 0 -10 -4 -14 -8 -8 -4 6 -16 15 -27 21 -22 12 -39
100 -20 108 21 9 38 5 68 -16z m-313 -60 c0 -11 8 -22 19 -25 17 -4 35 -46 24
-57 -3 -2 -18 0 -34 6 -16 5 -35 8 -43 5 -10 -4 -12 0 -8 15 2 11 -1 23 -7 28
-10 5 -10 17 -1 51 l12 44 19 -24 c10 -13 19 -32 19 -43z m-310 -8 c0 -11 7
-20 15 -20 8 0 15 -7 15 -15 0 -8 9 -15 20 -15 21 0 27 -24 10 -50 -7 -12 -13
-11 -36 10 -47 42 -73 75 -63 78 5 2 9 10 9 18 0 8 7 14 15 14 8 0 15 -9 15
-20z m729 -13 c18 -23 -94 -125 -114 -105 -11 11 10 48 26 48 11 0 19 7 19 15
0 8 7 15 15 15 8 0 15 9 15 20 0 23 22 27 39 7z m-509 -38 c0 -11 -4 -17 -10
-14 -5 3 -10 13 -10 21 0 8 5 14 10 14 6 0 10 -9 10 -21z m40 -44 c0 -9 -6
-12 -15 -9 -8 4 -15 10 -15 15 0 5 7 9 15 9 8 0 15 -7 15 -15z m160 -29 c0 -2
-7 -6 -15 -10 -8 -3 -15 -1 -15 4 0 6 7 10 15 10 8 0 15 -2 15 -4z m-190 -30
c8 -7 27 -18 43 -26 39 -19 34 -33 -10 -26 -108 20 -127 31 -100 61 13 15 41
11 67 -9z m281 -27 c-11 -11 -112 -41 -118 -35 -11 11 7 36 25 36 11 0 25 6
32 14 16 21 54 24 61 6 4 -8 4 -18 0 -21z"/>
</g>
</svg>
