<?xml version="1.0" standalone="no"?>
<!DOCTYPE svg PUBLIC "-//W3C//DTD SVG 20010904//EN"
 "http://www.w3.org/TR/2001/REC-SVG-20010904/DTD/svg10.dtd">
<svg version="1.0" xmlns="http://www.w3.org/2000/svg"
 width="106.000000pt" height="149.000000pt" viewBox="0 0 106.000000 149.000000"
 preserveAspectRatio="xMidYMid meet">
<metadata>
Created by potrace 1.13, written by Peter Selinger 2001-2015
</metadata>
<g transform="translate(0.000000,149.000000) scale(0.100000,-0.100000)"
fill="#000000" stroke="none">
<path d="M417 1465 c-57 -21 -98 -54 -113 -91 -36 -86 -3 -154 104 -214 34
-19 42 -29 42 -51 0 -34 -23 -48 -65 -42 -47 7 -112 -35 -228 -149 -93 -93
-146 -229 -147 -380 0 -134 49 -255 145 -353 55 -57 143 -125 161 -125 21 0
84 -36 84 -48 0 -12 23 -14 136 -10 83 2 138 8 142 15 4 6 38 24 75 41 204 93
320 290 304 517 -10 133 -59 243 -162 366 -66 78 -98 99 -165 110 -142 23
-130 18 -130 56 0 27 5 35 25 43 81 31 125 93 125 176 -1 71 -22 102 -90 133
-54 25 -183 28 -243 6z m182 -75 c23 0 71 -44 71 -66 -1 -59 -25 -81 -48 -44
-11 19 -21 20 -94 18 -81 -3 -85 -5 -105 -46 0 -2 -10 3 -22 10 -27 17 -27 55
2 90 24 29 98 50 151 42 16 -2 36 -4 45 -4z m-282 -426 c-3 -3 -12 -4 -19 -1
-8 3 -5 6 6 6 11 1 17 -2 13 -5z m177 -54 c3 -17 1 -53 -5 -81 -13 -60 -7 -81
23 -79 57 5 65 1 60 -26 -2 -14 -15 -30 -29 -37 -16 -7 -23 -18 -22 -31 5 -44
-10 -66 -47 -66 -19 0 -34 4 -34 9 0 17 -41 23 -71 11 -38 -16 -139 -5 -139
16 0 8 -9 14 -20 14 -11 0 -20 -7 -20 -15 0 -8 -9 -15 -20 -15 -16 0 -20 7
-20 31 0 33 19 59 44 59 10 0 16 -9 16 -21 0 -19 4 -20 39 -14 28 5 42 2 54
-9 19 -20 34 -20 53 -2 21 22 17 43 -11 50 -33 8 -51 51 -30 72 21 21 55 1 55
-31 0 -20 5 -25 26 -25 57 0 79 34 49 74 -8 11 -15 28 -15 39 0 10 -9 21 -20
24 -11 3 -20 11 -20 18 0 8 -7 21 -16 29 -8 9 -14 16 -12 16 2 1 25 3 52 5 27
3 51 7 54 10 12 11 20 3 26 -25z m155 9 c47 -16 24 -33 -33 -25 -33 5 -44 11
-39 22 6 17 29 18 72 3z m131 -76 c59 -52 78 -93 36 -77 -9 3 -16 12 -16 20 0
8 -7 14 -15 14 -8 0 -15 5 -15 10 0 6 -9 10 -20 10 -13 0 -20 -7 -20 -20 0
-11 5 -20 10 -20 6 0 17 -6 24 -12 11 -11 9 -17 -10 -35 -13 -12 -31 -26 -40
-31 -12 -7 -15 -17 -10 -36 8 -31 39 -35 85 -8 28 15 33 15 41 2 25 -39 3 -60
-63 -60 -27 0 -28 -2 -25 -42 l3 -43 48 -3 c39 -3 47 -6 47 -23 0 -19 -4 -20
-56 -14 -47 6 -57 5 -69 -11 -24 -31 -18 -63 13 -77 38 -17 60 -39 44 -45 -6
-2 -12 -10 -12 -18 0 -8 -2 -14 -5 -14 -13 0 -62 30 -74 44 -8 9 -22 16 -34
16 -17 0 -19 -5 -14 -37 3 -21 9 -48 12 -59 5 -17 1 -23 -23 -32 -31 -11 -32
-10 -58 85 -3 13 -59 27 -74 18 -5 -3 -10 -31 -10 -61 0 -52 -1 -55 -22 -48
-44 13 -52 30 -38 80 12 42 11 46 -10 64 -32 28 -44 25 -83 -15 -19 -19 -39
-35 -46 -35 -6 0 -11 -10 -11 -21 0 -19 4 -21 30 -15 19 3 29 2 25 -4 -3 -6
-15 -10 -25 -10 -10 0 -22 -5 -25 -11 -7 -10 -55 37 -55 54 0 4 0 10 0 15 1 4
12 6 25 4 20 -3 25 1 25 17 0 12 6 21 14 21 8 0 27 10 41 23 23 19 25 27 19
65 -7 47 -27 54 -74 27 -33 -19 -50 -19 -50 0 0 8 -9 15 -20 15 -22 0 -25 -16
-11 -53 8 -21 6 -26 -9 -30 -26 -7 -30 0 -30 49 0 51 7 55 99 47 62 -5 71 -4
71 11 0 20 24 21 43 2 9 -9 31 -14 60 -13 31 1 51 -4 64 -16 24 -21 42 -22 70
-2 17 12 22 25 20 56 -1 29 4 45 16 54 9 7 17 24 17 38 0 41 21 77 44 77 15 0
27 14 44 50 12 27 22 61 22 75 0 34 13 32 60 -12z m-467 4 c16 -6 17 -9 3 -22
-8 -8 -17 -15 -21 -15 -11 0 -35 -28 -35 -40 0 -6 -10 -2 -22 10 l-22 20 34
35 c19 19 36 31 39 27 3 -5 14 -11 24 -15z m345 -12 c9 -7 -24 -55 -38 -55 -9
0 -21 -5 -28 -12 -9 -9 -12 -5 -12 18 0 16 3 39 6 51 5 19 9 20 37 11 18 -6
33 -12 35 -13z m242 -160 c23 -60 24 -77 4 -73 -23 4 -50 98 -28 98 8 0 19
-11 24 -25z m24 -177 c-3 -18 -10 -47 -15 -64 -9 -30 -11 -31 -39 -21 -36 14
-39 37 -5 37 22 0 25 4 25 34 0 24 5 36 18 39 9 3 18 5 19 6 1 0 0 -14 -3 -31z
m-105 -222 c-34 -38 -59 -47 -59 -21 0 8 5 15 10 15 6 0 10 7 10 15 0 8 5 15
11 15 6 0 17 7 26 16 10 10 19 12 25 6 7 -7 -1 -23 -23 -46z m-429 -36 c0 -11
7 -20 15 -20 8 0 15 -4 15 -10 0 -5 16 -12 35 -16 22 -4 35 -12 35 -21 0 -18
-37 -13 -107 13 -42 16 -46 29 -19 61 16 18 26 15 26 -7z m265 -67 c-42 -16
-75 -16 -75 1 0 17 22 26 61 26 25 0 29 4 30 28 1 24 2 23 8 -8 6 -32 4 -36
-24 -47z"/>
<path d="M440 870 c0 -13 7 -20 20 -20 13 0 20 7 20 20 0 13 -7 20 -20 20 -13
0 -20 -7 -20 -20z"/>
</g>
</svg>
