<?xml version="1.0" standalone="no"?>
<!DOCTYPE svg PUBLIC "-//W3C//DTD SVG 20010904//EN"
 "http://www.w3.org/TR/2001/REC-SVG-20010904/DTD/svg10.dtd">
<svg version="1.0" xmlns="http://www.w3.org/2000/svg"
 width="99.000000pt" height="108.000000pt" viewBox="0 0 99.000000 108.000000"
 preserveAspectRatio="xMidYMid meet">
<metadata>
Created by potrace 1.13, written by Peter Selinger 2001-2015
</metadata>
<g transform="translate(0.000000,108.000000) scale(0.100000,-0.100000)"
fill="#000000" stroke="none">
<path d="M510 1048 c-54 -27 -72 -59 -66 -112 3 -29 14 -49 40 -73 19 -18 38
-33 41 -33 10 0 35 -28 35 -39 0 -13 -11 -15 -61 -12 -24 2 -42 -3 -50 -14
-20 -23 -33 -35 -87 -80 -49 -40 -69 -67 -106 -140 -16 -32 -20 -60 -20 -135
0 -82 3 -104 29 -165 16 -38 36 -78 44 -89 39 -47 90 -89 141 -113 30 -15 58
-31 62 -37 8 -12 199 -1 207 12 3 5 26 18 51 29 25 11 56 30 70 42 51 44 90
85 90 97 0 7 4 14 9 16 15 5 51 158 50 213 -1 82 -32 173 -74 222 -5 6 -21 25
-34 43 -13 17 -45 40 -70 52 -25 11 -49 25 -52 30 -3 5 -25 12 -48 15 -31 4
-41 10 -41 24 0 11 7 19 15 19 21 0 92 72 100 100 3 14 0 43 -7 64 -26 80
-169 113 -268 64z m193 -76 c19 -20 19 -22 3 -46 -20 -32 -34 -33 -38 -3 -3
19 -9 22 -48 22 -39 0 -45 -3 -48 -22 -2 -13 -7 -23 -11 -23 -16 0 -43 40 -37
55 17 45 139 56 179 17z m-133 -384 c0 -19 -2 -20 -10 -8 -13 19 -13 30 0 30
6 0 10 -10 10 -22z m134 1 c-8 -14 -44 -10 -44 5 0 9 8 12 25 8 14 -2 22 -8
19 -13z m-270 4 c-5 -5 -12 -12 -16 -18 -4 -6 -8 -2 -8 8 0 9 7 17 17 17 9 0
12 -3 7 -7z m54 -73 c-2 -7 -11 -5 -26 8 -16 14 -19 21 -10 25 16 6 42 -17 36
-33z m280 20 c13 0 12 -4 -6 -18 -33 -25 -27 -67 8 -66 14 0 31 3 39 5 7 2 16
-2 18 -8 3 -9 -8 -13 -37 -13 l-42 0 4 -40 c2 -22 0 -41 -3 -42 -4 -2 -10 -19
-14 -39 -6 -31 -4 -36 19 -47 14 -6 26 -16 26 -22 0 -17 -25 -11 -40 10 -15
21 -45 27 -55 11 -3 -5 -2 -35 1 -65 5 -42 11 -56 23 -57 9 0 3 -5 -13 -10
-17 -4 -32 -6 -35 -4 -2 3 1 5 7 5 7 0 12 9 12 20 0 11 -4 20 -9 20 -5 0 -15
16 -21 35 -10 31 -16 35 -46 35 -29 0 -34 -4 -34 -22 0 -31 -15 -52 -29 -43
-8 4 -10 18 -6 36 9 42 -2 69 -30 69 -19 0 -24 7 -30 46 -8 54 -3 62 29 45 13
-7 33 -10 44 -7 11 4 23 2 27 -4 3 -5 21 -10 40 -10 31 0 35 4 44 38 6 20 11
43 11 50 0 6 5 12 10 12 6 0 10 11 10 25 0 16 6 25 15 25 9 0 21 12 27 26 7
15 14 21 16 15 2 -6 11 -11 20 -11z m-135 -19 c-13 -11 -23 -30 -23 -43 0 -43
-9 -46 -112 -40 -54 2 -98 9 -98 13 0 5 -11 9 -25 9 -25 0 -35 23 -15 35 6 3
10 0 10 -8 0 -11 15 -15 65 -16 58 -1 65 1 65 18 0 13 9 21 30 26 16 4 32 11
35 16 4 5 25 9 48 9 l42 -1 -22 -18z m247 -47 c0 -8 -4 -14 -10 -14 -5 0 -10
9 -10 21 0 11 5 17 10 14 6 -3 10 -13 10 -21z m7 -106 c-3 -8 -6 -5 -6 6 -1
11 2 17 5 13 3 -3 4 -12 1 -19z m-537 3 c0 -5 8 -12 18 -14 10 -3 6 -5 -10 -6
-19 -1 -28 4 -28 14 0 8 5 15 10 15 6 0 10 -4 10 -9z m480 -20 c0 -5 -9 -7
-20 -4 -11 3 -20 7 -20 9 0 2 9 4 20 4 11 0 20 -4 20 -9z m47 -36 c-4 -8 -12
-15 -19 -14 -10 0 -10 2 0 6 6 2 12 12 12 21 0 8 3 13 6 9 4 -3 4 -13 1 -22z
m-420 -60 c-7 -14 -15 -25 -19 -25 -5 0 -8 -7 -8 -17 0 -14 -2 -14 -20 2 -24
22 -26 35 -5 35 8 0 15 4 15 9 0 8 15 15 42 20 3 0 1 -10 -5 -24z m358 -45
c-10 -11 -22 -20 -27 -20 -5 0 2 11 14 24 28 28 39 25 13 -4z m-292 -67 c-7
-2 -19 -2 -25 0 -7 3 -2 5 12 5 14 0 19 -2 13 -5z"/>
</g>
</svg>
