<?xml version="1.0" standalone="no"?>
<!DOCTYPE svg PUBLIC "-//W3C//DTD SVG 20010904//EN"
 "http://www.w3.org/TR/2001/REC-SVG-20010904/DTD/svg10.dtd">
<svg version="1.0" xmlns="http://www.w3.org/2000/svg"
 width="364.000000pt" height="534.000000pt" viewBox="0 0 364.000000 534.000000"
 preserveAspectRatio="xMidYMid meet">
<metadata>
Created by potrace 1.13, written by Peter Selinger 2001-2015
</metadata>
<g transform="translate(0.000000,534.000000) scale(0.100000,-0.100000)"
fill="#000000" stroke="none">
<path d="M1685 5311 c-191 -52 -324 -149 -439 -320 -66 -98 -87 -171 -93 -326
-6 -145 11 -251 53 -336 13 -26 24 -50 24 -54 0 -12 73 -108 115 -151 52 -53
129 -114 144 -114 6 0 11 -3 11 -8 0 -4 27 -18 60 -31 l60 -24 -6 -47 c-6 -45
-4 -49 25 -71 32 -23 42 -59 17 -59 -15 0 -26 -21 -26 -50 0 -9 -7 -23 -15
-30 -9 -8 -15 -29 -15 -56 0 -37 -3 -44 -22 -48 -13 -3 -52 -10 -88 -17 -36
-7 -95 -23 -131 -36 -37 -12 -75 -23 -86 -23 -48 0 -310 -127 -438 -213 -382
-255 -642 -611 -763 -1042 -55 -194 -57 -209 -56 -450 0 -223 1 -234 32 -363
42 -176 118 -397 166 -482 10 -19 25 -46 32 -60 64 -124 244 -336 368 -435 21
-16 48 -41 59 -53 28 -31 182 -142 196 -142 6 0 11 -4 11 -8 0 -24 409 -202
464 -202 9 0 24 -4 34 -9 82 -44 609 -63 767 -28 98 21 193 46 220 57 11 5 47
18 80 30 33 11 69 25 80 30 55 25 115 50 120 50 9 0 140 84 143 92 2 4 9 8 15
8 39 0 347 267 420 363 34 45 115 164 133 196 8 14 24 40 34 56 28 42 110 212
125 260 7 22 23 65 34 95 125 337 117 824 -20 1183 -34 86 -131 281 -155 308
-8 8 -14 19 -14 22 0 15 -154 207 -222 278 -134 138 -325 274 -510 365 -57 28
-58 29 -58 71 0 41 -2 43 -47 64 -27 11 -67 23 -91 26 -40 5 -43 4 -53 -26 -6
-18 -17 -30 -23 -28 -23 9 -131 36 -196 50 l-65 13 3 40 c2 27 -3 47 -16 64
-11 14 -23 35 -26 48 -4 13 -19 27 -33 33 -24 9 -24 11 -10 32 8 12 24 23 36
25 18 3 21 10 21 58 0 36 4 54 13 54 6 0 24 6 38 14 14 7 36 16 50 19 39 10
140 79 195 133 72 72 101 114 148 217 37 79 45 107 55 203 15 144 3 244 -41
354 -39 97 -77 154 -155 235 -79 82 -152 129 -264 172 -87 32 -104 36 -224 39
-106 4 -143 1 -200 -15z m192 -57 c-3 -3 -12 -4 -19 -1 -8 3 -5 6 6 6 11 1 17
-2 13 -5z m-114 -11 c-7 -2 -21 -2 -30 0 -10 3 -4 5 12 5 17 0 24 -2 18 -5z
m254 -9 c-3 -3 -12 -4 -19 -1 -8 3 -5 6 6 6 11 1 17 -2 13 -5z m-74 -64 c150
-22 300 -116 385 -243 66 -98 95 -192 94 -312 0 -99 -25 -193 -78 -282 -50
-88 -184 -203 -264 -228 -32 -10 -26 39 10 76 69 73 99 191 75 297 -28 117
-78 178 -190 228 -100 44 -239 28 -330 -37 -158 -114 -179 -369 -39 -495 31
-28 46 -64 26 -64 -13 0 -107 62 -143 95 -146 131 -219 353 -174 530 52 203
210 371 395 418 118 30 134 31 233 17z m-149 -674 c-3 -15 -8 -25 -11 -23 -2
3 -1 17 3 31 3 15 8 25 11 23 2 -3 1 -17 -3 -31z m58 -376 c-3 -46 -7 -60 -19
-60 -14 0 -15 -13 -10 -90 l6 -90 -46 0 -46 0 7 68 c4 37 10 100 13 140 l6 72
38 0 c21 0 41 5 44 10 10 16 10 13 7 -50z m-52 -310 c0 -11 5 -20 10 -20 6 0
10 -4 10 -10 0 -5 -9 -10 -20 -10 -16 0 -20 7 -20 30 0 17 5 30 10 30 6 0 10
-9 10 -20z m70 -120 c0 -5 -7 -10 -15 -10 -8 0 -15 -7 -15 -16 0 -8 -6 -22
-14 -30 -16 -16 -76 -19 -76 -4 0 5 -11 20 -25 34 l-25 25 48 4 c97 7 122 7
122 -3z m148 -380 c105 -14 252 -52 356 -93 115 -45 240 -111 244 -128 2 -10
-38 5 -113 42 -387 191 -821 210 -1225 52 -257 -100 -491 -281 -663 -513 -139
-188 -251 -465 -276 -685 -19 -169 -19 -225 0 -370 17 -133 58 -295 95 -378
17 -36 15 -55 -4 -43 -5 3 -20 32 -32 63 -12 32 -26 67 -30 78 -12 28 -47 178
-59 255 -15 93 -13 320 4 420 29 175 78 320 154 460 22 41 47 89 56 105 22 44
121 173 185 243 160 173 400 335 600 403 220 76 317 94 525 97 55 1 138 -3
183 -8z m60 -91 c55 -9 72 -16 72 -28 0 -12 16 -20 55 -29 31 -7 70 -20 88
-28 22 -10 24 -13 7 -8 -14 3 -45 7 -69 9 -24 2 -47 8 -51 15 -4 7 -17 10 -28
7 -12 -2 -22 -1 -24 4 -6 17 -178 39 -298 39 -113 0 -289 -24 -395 -53 -94
-26 -325 -132 -325 -149 0 -4 -6 -8 -14 -8 -22 0 -166 -107 -240 -179 -89 -86
-186 -207 -186 -232 0 -10 -7 -19 -15 -19 -8 0 -15 -7 -15 -15 0 -8 -4 -15 -9
-15 -5 0 -13 -10 -17 -22 -4 -13 -10 -25 -14 -28 -4 -3 -22 -35 -40 -73 -18
-37 -35 -65 -37 -63 -17 17 142 271 235 378 246 281 565 444 965 493 26 4 47
11 47 17 0 14 199 5 308 -13z m-60 -94 c121 -18 215 -44 320 -88 73 -31 239
-121 252 -136 3 -3 25 -19 50 -35 66 -44 217 -199 286 -296 98 -137 145 -235
207 -425 42 -132 54 -425 23 -570 -46 -211 -152 -442 -274 -598 -23 -29 -191
-198 -223 -223 -150 -121 -354 -216 -584 -270 -113 -28 -391 -25 -523 4 -385
86 -695 313 -900 657 -62 105 -122 258 -148 380 -22 99 -30 333 -15 436 29
201 100 388 208 549 51 77 58 86 103 140 163 194 378 339 620 420 199 66 402
85 598 55z m407 -46 c5 -5 -5 -4 -23 2 -17 6 -32 13 -32 16 0 7 43 -8 55 -18z
m-1922 -804 c-9 -28 -20 -59 -24 -70 -15 -36 -38 -138 -55 -240 -17 -109 -14
-260 10 -410 12 -69 25 -117 76 -279 21 -65 -10 -6 -35 68 -53 157 -67 239
-70 423 -3 150 0 185 20 280 22 100 66 251 81 274 14 22 12 1 -3 -46z m2814
-277 c-3 -8 -6 -5 -6 6 -1 11 2 17 5 13 3 -3 4 -12 1 -19z m10 -120 c-3 -8 -6
-5 -6 6 -1 11 2 17 5 13 3 -3 4 -12 1 -19z m-120 -410 c-3 -7 -5 -2 -5 12 0
14 2 19 5 13 2 -7 2 -19 0 -25z m-30 -100 c-3 -8 -6 -5 -6 6 -1 11 2 17 5 13
3 -3 4 -12 1 -19z m-2601 -224 c55 -104 89 -156 161 -241 30 -35 50 -63 46
-63 -28 1 -263 354 -263 394 0 16 8 2 56 -90z m274 -368 c0 -5 -13 3 -30 19
-16 16 -30 30 -30 32 0 2 14 -6 30 -19 17 -12 30 -26 30 -32z m51 -43 l24 -28
-30 25 c-16 14 -32 26 -34 28 -2 1 0 2 6 2 5 0 20 -12 34 -27z m59 -48 c13
-14 21 -25 18 -25 -2 0 -15 11 -28 25 -13 14 -21 25 -18 25 2 0 15 -11 28 -25z
m97 -67 c23 -15 44 -28 47 -28 3 0 27 -13 53 -29 167 -103 493 -178 723 -167
47 2 68 2 48 -1 -26 -3 -38 -9 -38 -20 0 -14 -15 -15 -127 -10 -149 6 -259 26
-387 69 -114 38 -296 128 -310 154 -6 10 -16 22 -22 26 -6 4 -22 17 -35 28
-29 26 -9 17 48 -22z m1478 -38 c-3 -5 -12 -10 -18 -10 -7 0 -6 4 3 10 19 12
23 12 15 0z m-265 -120 c-8 -5 -19 -10 -25 -10 -5 0 -3 5 5 10 8 5 20 10 25
10 6 0 3 -5 -5 -10z m-53 -16 c-3 -3 -12 -4 -19 -1 -8 3 -5 6 6 6 11 1 17 -2
13 -5z m-92 -24 c-11 -5 -31 -8 -45 -8 -23 0 -22 1 5 8 42 11 65 11 40 0z
m-87 -17 c-10 -2 -26 -2 -35 0 -10 3 -2 5 17 5 19 0 27 -2 18 -5z"/>
<path d="M1634 3095 c-271 -42 -521 -166 -716 -354 -49 -46 -88 -90 -88 -97 0
-8 -4 -14 -10 -14 -10 0 -100 -118 -100 -132 0 -4 -9 -17 -20 -28 -11 -11 -20
-29 -20 -40 0 -11 -4 -20 -8 -20 -21 0 -92 -176 -128 -315 -26 -101 -29 -125
-29 -295 0 -198 6 -237 57 -405 120 -397 464 -734 866 -851 264 -76 544 -71
803 16 209 69 359 160 504 305 406 403 514 985 280 1500 -58 127 -147 249
-274 375 -154 153 -344 259 -586 329 -137 39 -373 51 -531 26z m143 -127 c-3
-8 -6 -5 -6 6 -1 11 2 17 5 13 3 -3 4 -12 1 -19z m-76 -29 c11 -11 19 -22 19
-26 0 -5 -30 -21 -66 -37 -76 -34 -152 -105 -184 -171 l-22 -45 -49 97 c-27
52 -49 103 -49 113 0 31 317 125 329 97 2 -5 12 -18 22 -28z m464 -2 c28 -8
89 -31 136 -51 77 -33 87 -41 91 -67 3 -19 -5 -46 -25 -81 -16 -29 -39 -71
-51 -92 -11 -21 -33 -52 -48 -69 -16 -16 -28 -34 -28 -41 0 -16 65 -56 91 -56
18 0 20 5 16 26 -3 19 11 52 55 128 33 55 70 111 82 122 l23 22 54 -45 c150
-124 262 -254 252 -293 -5 -18 -246 -170 -271 -170 -7 0 -12 -7 -12 -15 0 -11
-12 -15 -45 -15 -58 0 -156 -33 -210 -70 -84 -58 -148 -148 -174 -245 -19 -70
-14 -207 11 -272 59 -159 215 -271 383 -274 33 0 54 -3 48 -6 -7 -2 -13 -11
-13 -18 0 -7 -12 -26 -27 -43 -36 -38 -53 -67 -53 -88 0 -13 6 -15 30 -10 24
4 49 -5 130 -52 121 -70 143 -88 133 -106 -18 -32 -154 -166 -203 -199 -13 -9
-39 -17 -56 -17 -29 0 -42 11 -116 102 -45 56 -92 111 -104 122 -17 17 -22 37
-26 96 -6 96 -47 186 -115 252 -49 47 -113 88 -137 88 -8 0 -16 5 -18 10 -2 6
-35 16 -74 21 -192 29 -370 -60 -455 -228 -26 -51 -33 -79 -37 -143 -4 -70
-13 -97 -24 -72 -6 15 -75 52 -97 52 -17 0 -21 -5 -19 -28 2 -37 -124 -228
-156 -234 -15 -3 -35 7 -64 33 l-42 37 69 66 c83 81 105 97 145 106 27 5 31
10 31 37 0 38 39 83 72 83 28 0 63 33 63 60 0 12 17 37 38 58 373 360 358 347
417 353 62 7 94 35 95 81 0 32 -41 84 -75 92 -18 5 -26 15 -31 44 -4 20 -18
68 -31 106 -12 38 -23 71 -23 73 0 2 24 3 53 3 152 0 297 90 363 225 27 56 29
68 29 175 0 110 -1 118 -33 182 -40 79 -107 145 -180 179 -43 20 -52 28 -51
49 0 14 3 19 6 13 2 -7 14 -13 25 -13 17 0 20 5 16 28 l-4 29 60 -13 c34 -7
84 -19 111 -27z m-329 -13 c-4 -9 -9 -15 -11 -12 -3 3 -3 13 1 22 4 9 9 15 11
12 3 -3 3 -13 -1 -22z m117 -100 c-3 -8 -16 -14 -29 -14 -19 0 -24 5 -24 24 0
23 2 24 29 15 20 -7 28 -15 24 -25z m-638 -84 c19 -38 33 -70 31 -70 -14 0
-74 68 -79 88 -5 22 0 52 9 52 2 0 20 -31 39 -70z m292 15 c9 -25 -4 -29 -17
-6 -7 15 -7 21 0 21 6 0 13 -7 17 -15z m309 0 c97 -40 168 -142 168 -240 0
-50 -28 -145 -44 -145 -4 0 -36 23 -71 51 -52 41 -65 58 -72 90 -10 48 -44 74
-84 65 -23 -5 -38 0 -71 26 -23 18 -42 40 -42 50 0 23 -41 33 -72 18 -13 -6
-2 9 25 34 27 25 63 50 80 55 50 14 144 12 183 -4z m-721 -70 c26 -22 50 -42
55 -45 11 -7 34 -111 32 -142 -2 -24 1 -28 25 -28 30 1 63 20 63 37 0 6 11 13
24 15 22 5 24 2 29 -58 10 -131 99 -257 223 -316 60 -28 61 -29 79 -91 10 -34
24 -81 31 -105 18 -55 17 -67 -2 -97 -8 -13 -17 -43 -19 -67 -3 -40 -10 -49
-128 -163 -69 -66 -159 -152 -199 -191 -40 -39 -86 -75 -103 -81 -21 -7 -33
-19 -41 -43 -15 -46 -65 -89 -95 -83 -21 3 -27 -3 -42 -41 -21 -51 -163 -204
-177 -190 -5 5 -24 29 -44 53 -32 41 -34 47 -21 70 16 31 34 47 118 103 34 24
74 54 90 67 32 29 36 70 7 78 -37 10 -21 18 27 15 160 -11 333 94 403 244 90
192 35 404 -141 539 -58 45 -145 75 -215 75 -58 0 -65 7 -34 35 11 10 20 28
20 40 0 19 -9 22 -82 34 -46 8 -101 16 -123 18 -52 6 -94 44 -87 78 3 16 0 25
-8 25 -20 0 36 68 141 172 112 110 113 110 194 43z m892 38 c-9 -9 -20 -13
-24 -9 -4 4 -1 11 7 16 25 16 35 11 17 -7z m-567 -133 c0 -13 -11 -13 -30 0
-12 8 -11 10 8 10 12 0 22 -4 22 -10z m162 -11 c40 -22 66 -52 72 -84 5 -26
14 -36 38 -44 17 -6 38 -11 47 -11 9 0 50 -26 93 -58 l76 -58 -31 -21 c-57
-39 -106 -54 -165 -51 -54 3 -57 5 -60 30 -2 15 -13 35 -25 43 -23 16 -63 138
-46 143 15 6 10 45 -11 80 -28 46 -26 51 12 31z m-312 -41 c0 -12 -25 -9 -38
4 -7 7 -12 18 -12 25 0 11 6 9 25 -4 13 -10 25 -21 25 -25z m224 -78 c20 0 25
-9 41 -65 27 -102 2 -97 -50 10 -18 37 -24 64 -23 105 l2 55 3 -52 c4 -48 6
-53 27 -53z m-89 -30 c-27 -12 -35 -12 -35 0 0 6 12 10 28 9 24 0 25 -1 7 -9z
m620 -30 c3 -5 1 -10 -4 -10 -6 0 -11 5 -11 10 0 6 2 10 4 10 3 0 8 -4 11 -10z
m-1418 -32 c-3 -7 -5 -2 -5 12 0 14 2 19 5 13 2 -7 2 -19 0 -25z m176 -73 c36
-5 58 -15 84 -40 l35 -33 -58 -28 c-98 -48 -181 -144 -219 -253 l-12 -35 -27
27 c-15 15 -31 27 -35 27 -20 0 67 303 95 329 12 12 44 19 69 15 11 -2 42 -6
68 -9z m2060 -68 c26 -61 60 -187 70 -259 5 -33 3 -38 -14 -38 -10 0 -19 -4
-19 -9 0 -5 -6 -11 -14 -14 -11 -4 -19 7 -29 41 -27 94 -114 201 -200 245
l-27 14 77 44 c105 59 123 57 156 -24z m-1883 27 c0 -14 -3 -14 -15 -4 -8 7
-15 14 -15 16 0 2 7 4 15 4 8 0 15 -7 15 -16z m550 -4 c0 -5 -5 -10 -11 -10
-5 0 -7 5 -4 10 3 6 8 10 11 10 2 0 4 -4 4 -10z m830 -70 c0 -5 -5 -10 -11
-10 -5 0 -7 5 -4 10 3 6 8 10 11 10 2 0 4 -4 4 -10z m157 4 c-3 -3 -12 -4 -19
-1 -8 3 -5 6 6 6 11 1 17 -2 13 -5z m-1547 -47 c0 -38 -3 -44 -29 -54 -28 -10
-30 -9 -45 26 l-14 36 36 17 c51 24 52 23 52 -25z m261 13 l39 -21 -20 -21
c-11 -12 -20 -27 -20 -34 0 -10 -7 -9 -28 1 -25 13 -27 19 -24 55 2 22 6 40 8
40 3 0 23 -9 45 -20z m1424 -20 c3 -5 1 -10 -4 -10 -6 0 -11 5 -11 10 0 6 2
10 4 10 3 0 8 -4 11 -10z m-145 -10 c0 -5 -4 -10 -10 -10 -5 0 -10 5 -10 10 0
6 5 10 10 10 6 0 10 -4 10 -10z m-295 -10 c-3 -5 -11 -10 -16 -10 -6 0 -7 5
-4 10 3 6 11 10 16 10 6 0 7 -4 4 -10z m520 -49 c-6 -5 -25 10 -25 20 0 5 6 4
14 -3 8 -7 12 -15 11 -17z m-105 9 c0 -5 -4 -10 -10 -10 -5 0 -10 5 -10 10 0
6 5 10 10 10 6 0 10 -4 10 -10z m-127 -15 c49 -15 123 -61 131 -82 8 -19 -144
-103 -187 -103 -39 0 -67 -21 -67 -50 0 -22 -47 -50 -83 -50 -25 0 -47 -33
-47 -70 0 -21 34 -28 45 -10 3 6 14 10 25 10 10 0 32 13 50 30 24 23 37 28 60
24 29 -6 70 22 70 49 0 11 156 117 173 117 9 0 27 -70 27 -106 0 -102 -82
-208 -192 -245 l-67 -23 -68 22 c-37 12 -80 33 -95 47 -15 14 -31 25 -35 25
-4 0 -18 22 -30 49 -41 90 -28 214 29 281 39 47 140 98 193 99 11 1 42 -6 68
-14z m-1357 -11 c101 -42 164 -130 164 -229 -1 -100 -50 -179 -141 -225 -65
-34 -128 -37 -196 -9 -72 29 -97 51 -134 114 -24 42 -29 61 -29 118 0 38 4 67
10 67 6 0 46 -15 90 -32 56 -23 80 -39 84 -53 8 -31 48 -49 82 -38 37 12 84
-5 84 -30 0 -15 7 -18 48 -15 39 3 47 6 50 24 4 25 -37 74 -62 74 -9 0 -16 -4
-16 -9 0 -19 -61 14 -66 36 -6 23 -50 39 -81 29 -19 -6 -176 57 -181 72 -3 11
36 54 73 80 62 42 156 53 221 26z m1550 -24 c8 0 14 -4 14 -10 0 -5 -6 -10
-13 -10 -20 0 -36 21 -29 39 6 14 7 14 10 -1 2 -10 10 -18 18 -18z m-600 -77
c-11 -11 -17 4 -9 23 7 18 8 18 11 1 2 -10 1 -21 -2 -24z m-1299 21 c-3 -3
-12 -4 -19 -1 -8 3 -5 6 6 6 11 1 17 -2 13 -5z m1367 -29 c-4 -8 -8 -15 -10
-15 -2 0 -4 7 -4 15 0 8 4 15 10 15 5 0 7 -7 4 -15z m-725 -62 c1 -21 -4 -23
-44 -23 -41 0 -45 2 -45 24 0 18 7 25 30 30 17 3 34 14 37 23 6 15 8 14 14 -7
4 -14 7 -35 8 -47z m1381 46 c0 -5 -4 -9 -10 -9 -5 0 -10 7 -10 16 0 8 5 12
10 9 6 -3 10 -10 10 -16z m-2075 0 c31 -12 32 -12 22 -56 -8 -34 -14 -42 -26
-37 -9 4 -26 9 -38 11 -25 6 -27 13 -17 62 7 34 13 36 59 20z m2015 -9 c0 -5
-4 -10 -10 -10 -5 0 -10 5 -10 10 0 6 5 10 10 10 6 0 10 -4 10 -10z m70 -100
c0 -22 -4 -40 -10 -40 -5 0 -10 7 -10 15 0 8 -7 15 -15 15 -19 0 -19 6 3 29
26 29 32 25 32 -19z m-1383 8 c-3 -8 -6 -5 -6 6 -1 11 2 17 5 13 3 -3 4 -12 1
-19z m-970 -95 c-2 -21 -4 -6 -4 32 0 39 2 55 4 38 2 -18 2 -50 0 -70z m1593
61 c0 -8 -4 -14 -10 -14 -5 0 -10 9 -10 21 0 11 5 17 10 14 6 -3 10 -13 10
-21z m64 1 c3 -9 0 -15 -9 -15 -8 0 -15 7 -15 15 0 8 4 15 9 15 5 0 11 -7 15
-15z m-1498 -77 c12 -57 63 -152 105 -194 l40 -41 -56 -21 c-83 -32 -111 -30
-123 11 -22 70 -41 165 -45 214 -4 46 -2 52 17 56 48 10 54 7 62 -25z m2274 7
c0 -8 6 -15 14 -15 40 0 -66 -370 -109 -379 -18 -3 -195 77 -195 89 0 3 17 14
38 25 46 25 142 113 142 131 0 8 4 14 8 14 11 0 52 95 52 118 0 24 9 32 32 32
10 0 18 -7 18 -15z m-100 -30 c0 -17 -2 -18 -24 -9 -23 9 -20 24 4 24 11 0 20
-7 20 -15z m-630 -36 c0 -5 -4 -9 -10 -9 -5 0 -10 7 -10 16 0 8 5 12 10 9 6
-3 10 -10 10 -16z m-1693 -26 c-3 -10 -5 -4 -5 12 0 17 2 24 5 18 2 -7 2 -21
0 -30z m865 14 c7 -8 20 -16 27 -18 11 -4 6 -14 -16 -39 l-31 -34 -7 32 c-4
18 -13 32 -21 32 -12 0 -12 4 -4 20 12 23 33 26 52 7z m772 -9 c11 -44 6 -53
-14 -20 -24 39 -24 42 -6 42 7 0 16 -10 20 -22z m-1344 -19 c0 -7 12 -10 30
-7 35 5 37 -1 11 -42 l-19 -31 -25 25 c-17 17 -24 32 -20 46 6 21 23 28 23 9z
m1980 -14 c0 -12 -19 -12 -23 0 -4 9 -1 12 9 8 7 -3 14 -7 14 -8z m-2263 -37
c-3 -8 -6 -5 -6 6 -1 11 2 17 5 13 3 -3 4 -12 1 -19z m1761 -9 c-22 -12 -24
-49 -3 -49 8 0 15 -7 15 -15 0 -20 -9 -19 -45 5 -21 14 -25 20 -12 20 9 0 17
6 17 13 0 16 20 37 35 37 5 0 2 -5 -7 -11z m-948 -23 c0 -3 -4 -8 -10 -11 -5
-3 -10 -1 -10 4 0 6 5 11 10 11 6 0 10 -2 10 -4z m1360 -16 c0 -5 -4 -10 -10
-10 -5 0 -10 5 -10 10 0 6 5 10 10 10 6 0 10 -4 10 -10z m-260 -10 c0 -5 -4
-10 -10 -10 -5 0 -10 5 -10 10 0 6 5 10 10 10 6 0 10 -4 10 -10z m-1140 -4 c0
-2 -7 -6 -15 -10 -8 -3 -15 -1 -15 4 0 6 7 10 15 10 8 0 15 -2 15 -4z m-157
-13 c-19 -7 -16 -41 5 -46 9 -3 0 -5 -20 -6 -33 -1 -38 2 -38 22 0 30 7 37 39
36 14 0 20 -3 14 -6z m97 -23 c-8 -5 -19 -10 -25 -10 -5 0 -3 5 5 10 8 5 20
10 25 10 6 0 3 -5 -5 -10z m1340 -5 c0 -8 -4 -15 -10 -15 -5 0 -7 7 -4 15 4 8
8 15 10 15 2 0 4 -7 4 -15z m-130 -15 c0 -5 -9 -10 -21 -10 -11 0 -17 5 -14
10 3 6 13 10 21 10 8 0 14 -4 14 -10z m-750 -19 c0 -28 20 -39 73 -39 45 0 48
1 54 29 6 33 17 35 73 13 40 -16 49 -27 30 -39 -5 -3 -10 -17 -10 -31 0 -30
25 -32 49 -3 l16 21 19 -21 c11 -12 17 -22 15 -24 -2 -2 -29 -21 -59 -42 -30
-21 -77 -55 -105 -76 -34 -26 -63 -39 -90 -41 -36 -3 -41 -7 -51 -37 -12 -38
-49 -70 -79 -71 -29 0 -65 -28 -65 -50 0 -36 12 -50 42 -50 22 0 41 12 78 50
37 38 56 50 79 50 33 0 61 22 61 50 0 10 15 28 33 39 18 11 46 31 62 45 17 14
33 26 36 26 3 0 26 16 50 35 40 32 45 33 57 18 19 -26 14 -43 -13 -43 -20 0
-25 -5 -25 -26 0 -24 2 -26 34 -20 29 6 35 3 41 -14 8 -25 9 -25 -30 -37 -28
-9 -30 -14 -33 -61 -3 -50 -2 -52 22 -52 30 0 32 -11 11 -44 -14 -20 -22 -23
-55 -19 -35 5 -40 3 -40 -15 0 -12 9 -23 20 -27 28 -9 25 -16 -16 -56 l-36
-34 -15 23 c-9 12 -24 22 -35 22 -16 0 -19 -6 -16 -37 3 -32 0 -37 -24 -44
-24 -6 -27 -4 -30 20 -3 25 -6 26 -63 26 -58 0 -60 -1 -63 -27 l-3 -26 -50 20
c-49 20 -58 31 -39 43 6 3 10 17 10 31 0 31 -34 33 -51 3 l-11 -21 -25 24
c-43 40 -47 56 -18 70 14 6 25 20 25 31 0 17 -5 19 -40 13 -22 -3 -40 -4 -40
-2 0 2 -3 11 -6 20 -4 10 -1 16 9 16 17 0 41 74 35 111 -2 18 -10 25 -30 27
-31 4 -33 13 -17 61 9 24 15 30 28 25 9 -3 26 -9 39 -11 18 -5 22 -1 22 20 0
17 -7 28 -20 32 -11 3 -20 9 -20 13 1 13 38 52 49 52 6 0 11 5 11 12 0 6 10 2
23 -10 29 -27 57 -29 57 -3 0 11 -4 23 -10 26 -19 12 -10 33 18 43 41 15 52
14 52 -7z m502 -485 c31 -60 73 -174 70 -192 -4 -27 -128 -77 -257 -103 -75
-15 -91 -16 -93 -5 -2 8 -13 14 -25 14 -14 0 -26 10 -33 25 -11 23 -10 25 40
39 104 31 203 117 248 218 10 22 18 48 19 57 0 10 4 7 11 -9 5 -14 15 -34 20
-44z m-809 -20 c31 -75 143 -172 237 -205 37 -12 31 -51 -12 -70 -35 -16 -102
-4 -227 38 l-76 26 1 45 c2 46 43 210 53 210 4 0 14 -20 24 -44z m340 -246
c-3 -12 -8 -19 -11 -16 -5 6 5 36 12 36 2 0 2 -9 -1 -20z m56 -37 c0 -25 -1
-25 -8 -8 -5 11 -7 23 -4 28 8 14 13 7 12 -20z"/>
</g>
</svg>
