<?xml version="1.0" standalone="no"?>
<!DOCTYPE svg PUBLIC "-//W3C//DTD SVG 20010904//EN"
 "http://www.w3.org/TR/2001/REC-SVG-20010904/DTD/svg10.dtd">
<svg version="1.0" xmlns="http://www.w3.org/2000/svg"
 width="272.000000pt" height="372.000000pt" viewBox="0 0 272.000000 372.000000"
 preserveAspectRatio="xMidYMid meet">
<metadata>
Created by potrace 1.13, written by Peter Selinger 2001-2015
</metadata>
<g transform="translate(0.000000,372.000000) scale(0.100000,-0.100000)"
fill="#000000" stroke="none">
<path d="M1219 3687 c-204 -69 -339 -303 -294 -514 13 -61 52 -154 77 -183 49
-57 137 -110 208 -124 29 -6 39 -15 58 -53 l23 -47 -23 -18 c-13 -10 -32 -18
-43 -18 -28 0 -65 -28 -65 -48 0 -13 -15 -20 -65 -30 -61 -11 -100 -22 -210
-59 -96 -32 -309 -155 -395 -229 -136 -116 -282 -303 -347 -444 -39 -83 -91
-238 -110 -322 -25 -116 -25 -409 0 -523 31 -142 51 -215 59 -215 4 0 8 -9 8
-20 0 -11 5 -20 10 -20 6 0 10 -7 10 -15 0 -20 81 -175 92 -175 4 0 8 -6 8
-12 0 -21 87 -140 148 -202 69 -71 236 -201 312 -244 200 -113 498 -180 741
-168 184 9 431 68 539 129 19 11 57 32 84 46 88 47 121 70 220 153 107 90 250
255 293 340 50 98 103 220 103 236 0 10 4 22 8 28 5 5 17 50 26 99 10 50 19
98 21 108 2 10 -1 102 -7 205 -5 103 -9 206 -9 230 1 23 -2 42 -6 42 -4 0 -8
19 -9 43 0 24 -8 57 -17 73 -22 39 -57 135 -57 157 0 9 -4 17 -10 17 -5 0 -22
24 -36 53 -65 128 -172 264 -293 370 -17 15 -35 27 -40 27 -5 0 -11 6 -14 14
-7 17 -126 96 -214 143 -70 36 -160 73 -248 100 -27 9 -55 21 -62 28 -6 7 -37
16 -67 20 -53 6 -56 8 -56 34 0 29 -30 51 -69 51 -10 0 -26 9 -35 19 -16 18
-16 20 8 46 15 16 26 31 26 35 0 4 18 13 40 20 22 7 40 16 40 21 0 4 11 10 25
13 30 8 109 79 136 123 38 61 69 172 69 248 0 163 -58 270 -199 368 -100 69
-263 87 -392 44z m244 -36 c6 -6 19 -11 29 -11 30 0 65 -25 140 -98 16 -15 28
-32 28 -39 0 -6 10 -19 22 -27 49 -34 64 -191 28 -292 -24 -69 -89 -172 -112
-180 -10 -3 -18 -10 -18 -15 0 -5 -4 -9 -10 -9 -19 0 -10 17 15 28 14 7 29 20
32 29 4 10 13 24 20 31 20 21 16 52 -7 52 -11 0 -20 -5 -20 -10 0 -6 -16 -26
-35 -44 -19 -19 -35 -39 -35 -45 0 -6 -4 -11 -10 -11 -22 0 -8 36 20 52 61 35
79 151 31 202 -11 12 -21 29 -21 38 0 20 -20 28 -100 39 -81 11 -220 -7 -220
-28 0 -8 -13 -25 -29 -38 -40 -34 -55 -75 -47 -129 7 -44 28 -70 80 -101 14
-8 15 -13 4 -27 -12 -17 -17 -15 -63 20 -72 55 -110 133 -110 226 0 55 5 81
23 115 61 116 158 184 266 185 96 2 196 -54 252 -139 34 -52 56 -138 48 -195
-6 -46 -5 -50 14 -50 50 0 36 182 -21 275 -36 61 -63 85 -147 132 -65 37 -66
37 -169 35 -117 -3 -149 -14 -209 -71 -38 -36 -86 -96 -109 -138 -11 -19 -25
-85 -40 -182 -4 -21 -1 -36 7 -41 8 -5 13 -24 12 -44 -1 -24 4 -39 17 -48 12
-8 16 -19 12 -31 -6 -16 -9 -15 -21 10 -8 15 -18 30 -21 33 -8 7 -34 132 -30
145 1 5 7 34 13 65 30 163 158 300 313 335 60 14 162 12 178 -4z m-223 -461
c0 -20 -5 -30 -15 -30 -18 0 -20 26 -2 45 17 19 17 19 17 -15z m111 -268 c-6
-2 -11 -10 -11 -18 0 -8 -10 -14 -25 -14 -18 0 -25 5 -25 20 0 11 5 20 10 20
6 0 10 8 10 18 0 9 10 22 23 27 20 9 22 7 25 -20 2 -16 -1 -31 -7 -33z m-124
-4 c-3 -8 -6 -5 -6 6 -1 11 2 17 5 13 3 -3 4 -12 1 -19z m133 -418 c0 -5 -26
-10 -57 -10 -94 0 -284 -45 -386 -90 -118 -53 -127 -56 -98 -31 13 12 31 21
40 21 9 0 21 4 26 9 15 13 143 58 215 75 134 33 260 45 260 26z m145 1 c37 -8
35 -9 -27 -10 -40 -1 -68 3 -68 9 0 12 39 12 95 1z m187 -35 c95 -25 235 -82
225 -92 -3 -3 -30 6 -61 20 -70 32 -162 62 -246 80 -36 8 -53 15 -39 15 15 1
69 -10 121 -23z m-332 -35 c0 -19 -25 -31 -67 -31 -25 0 -30 -19 -13 -50 15
-28 17 -167 2 -182 -7 -7 -12 -22 -12 -35 0 -20 5 -23 36 -23 l37 0 -7 -132
c-3 -73 -12 -166 -18 -207 -8 -54 -8 -86 0 -120 6 -25 14 -76 18 -114 l6 -67
-33 -14 c-19 -8 -41 -24 -49 -36 -39 -56 -32 -54 -96 -40 -77 16 -106 16 -184
2 -36 -7 -98 -12 -139 -12 -66 0 -76 3 -97 25 -30 32 -96 35 -121 5 -23 -27
-33 -25 -33 6 0 29 4 29 -107 -2 -59 -17 -64 -17 -98 -1 -20 9 -42 17 -50 17
-8 0 -15 5 -15 10 0 6 -9 10 -20 10 -16 0 -20 -7 -20 -36 0 -35 1 -36 30 -31
16 4 32 2 35 -3 7 -11 -6 -13 -43 -10 -22 1 -23 -1 -20 -57 l3 -58 148 -3 147
-3 0 36 c0 19 5 35 10 35 6 0 10 -4 10 -10 0 -25 41 -50 81 -50 33 0 47 6 69
30 25 27 34 30 88 30 33 0 96 -7 141 -15 73 -14 86 -14 133 0 71 21 118 20
118 -2 1 -72 143 -120 211 -72 85 61 74 204 -18 240 -20 7 -23 16 -23 61 0 29
7 81 15 116 11 47 12 73 5 105 -5 23 -13 115 -17 205 l-6 162 26 0 c56 0 57 2
57 136 0 76 4 124 10 124 6 0 10 9 10 20 0 17 -7 20 -45 20 -39 0 -45 3 -45
21 0 21 3 22 83 16 83 -6 199 -36 298 -78 74 -31 244 -127 279 -159 16 -14 37
-32 47 -41 97 -84 220 -250 280 -381 79 -168 112 -424 82 -618 -11 -70 -60
-222 -90 -282 -10 -20 -19 -42 -19 -48 0 -5 -16 -33 -35 -60 -19 -27 -35 -54
-35 -59 0 -5 -3 -11 -7 -13 -5 -2 -26 -28 -49 -58 -75 -100 -189 -198 -309
-265 -328 -183 -651 -209 -989 -79 -77 30 -219 104 -236 123 -3 3 -25 22 -50
42 -25 20 -64 55 -88 78 -23 22 -47 41 -52 41 -6 0 -10 5 -10 11 0 6 -27 47
-59 92 -138 190 -204 400 -203 640 2 234 67 438 200 627 62 88 213 236 300
293 172 115 396 192 570 196 35 1 42 -2 42 -18z m673 -122 c26 -17 50 -36 54
-42 4 -6 -7 -1 -24 11 -17 12 -36 22 -42 22 -6 0 -11 4 -11 8 0 5 -10 14 -22
20 -13 6 -18 11 -12 11 6 1 32 -13 57 -30z m-1273 11 c0 -5 -5 -10 -11 -10
-20 0 -157 -110 -218 -176 -63 -67 -134 -153 -150 -182 -5 -9 -13 -14 -16 -10
-4 4 -2 13 4 20 6 7 31 40 57 73 66 84 212 224 283 270 40 27 51 30 51 15z
m1455 -160 c10 -11 14 -20 9 -20 -5 0 -15 9 -22 20 -7 11 -11 20 -9 20 2 0 12
-9 22 -20z m40 -48 c-3 -3 -11 0 -18 7 -9 10 -8 11 6 5 10 -3 15 -9 12 -12z
m66 -79 c13 -16 12 -17 -3 -4 -10 7 -18 15 -18 17 0 8 8 3 21 -13z m38 -57
c-3 -3 -11 5 -18 17 -13 21 -12 21 5 5 10 -10 16 -20 13 -22z m63 -108 c49
-94 100 -253 112 -350 3 -27 9 -69 12 -95 11 -88 -5 -38 -20 63 -19 124 -54
246 -100 347 -38 83 -41 104 -4 35z m-2082 8 c0 -3 -9 -20 -20 -39 -52 -88
-97 -249 -116 -414 -7 -66 -24 -87 -24 -30 0 47 18 155 35 207 8 25 22 70 31
100 9 30 27 78 40 107 13 28 24 57 24 62 0 6 7 11 15 11 8 0 15 -2 15 -4z
m363 -530 c7 -19 -18 -40 -38 -32 -15 6 -20 28 -8 39 12 12 41 7 46 -7z m-193
-26 c0 -5 -19 -9 -42 -9 l-43 2 40 7 c22 4 41 8 43 9 1 0 2 -3 2 -9z m2040
-11 c0 -11 -4 -17 -10 -14 -5 3 -10 13 -10 21 0 8 5 14 10 14 6 0 10 -9 10
-21z m-2346 -46 c3 -21 8 -63 11 -94 3 -31 17 -96 31 -145 38 -131 38 -132 25
-114 -36 50 -108 390 -83 390 6 0 13 -17 16 -37z m2321 -137 c-9 -50 -21 -98
-26 -106 -8 -12 -9 -10 -4 6 11 41 35 176 36 207 1 26 3 28 6 8 3 -13 -3 -65
-12 -115z m-44 -167 c-5 -13 -10 -19 -10 -12 -1 15 10 45 15 40 3 -2 0 -15 -5
-28z m-37 -93 c-15 -31 -28 -55 -30 -53 -3 2 7 30 22 61 14 32 28 55 30 53 3
-3 -7 -30 -22 -61z m-2126 -43 c17 -35 27 -63 23 -63 -8 0 -61 105 -61 122 0
17 5 9 38 -59z m2041 -115 c-45 -65 -121 -159 -103 -128 22 37 71 107 92 130
12 14 22 29 22 34 0 5 3 7 6 3 3 -3 -4 -21 -17 -39z m-1934 -63 c25 -36 53
-65 61 -65 7 0 14 -5 14 -11 0 -16 145 -156 169 -164 12 -3 21 -10 21 -14 0
-4 16 -16 35 -27 19 -10 35 -22 35 -27 0 -24 -152 92 -238 182 -65 68 -161
191 -149 191 3 0 26 -29 52 -65z m1515 -320 c0 -2 -10 -9 -22 -15 -22 -11 -22
-10 -4 4 21 17 26 19 26 11z m-1010 -65 c67 -26 244 -68 335 -78 44 -5 63 -10
43 -11 -98 -3 -280 36 -393 84 -16 7 -47 20 -67 29 -21 8 -38 18 -38 21 0 3
17 -2 38 -11 20 -8 57 -24 82 -34z m955 31 c-9 -8 -39 -20 -90 -35 -11 -4 3 5
30 18 52 26 76 33 60 17z m-258 -87 c-3 -3 -12 -4 -19 -1 -8 3 -5 6 6 6 11 1
17 -2 13 -5z m-54 -11 c-7 -2 -19 -2 -25 0 -7 3 -2 5 12 5 14 0 19 -2 13 -5z
m-60 -10 c-7 -2 -21 -2 -30 0 -10 3 -4 5 12 5 17 0 24 -2 18 -5z m-65 -10
c-10 -2 -28 -2 -40 0 -13 2 -5 4 17 4 22 1 32 -1 23 -4z"/>
<path d="M842 2287 c-19 -9 -23 -17 -19 -40 3 -26 2 -28 -8 -14 -15 20 -34 21
-57 3 -21 -15 -24 -46 -5 -47 16 0 113 -119 109 -132 -2 -6 0 -33 3 -59 6 -42
10 -48 31 -48 17 0 24 6 24 19 0 11 -4 23 -10 26 -5 3 -10 14 -10 23 0 13 3
12 16 -6 8 -12 25 -22 37 -22 27 1 67 33 67 54 0 8 -22 56 -49 105 -27 50 -55
104 -63 121 -14 32 -28 36 -66 17z m53 -132 l18 -30 -21 19 c-12 11 -22 26
-22 34 0 17 -1 18 25 -23z"/>
<path d="M1796 2173 c-31 -64 -56 -126 -54 -137 4 -31 50 -33 64 -4 5 13 34
69 63 126 29 56 50 109 47 117 -3 9 -18 15 -34 15 -27 0 -33 -8 -86 -117z"/>
<path d="M2235 1940 c-3 -5 -55 -37 -115 -71 -101 -56 -110 -63 -110 -90 0
-17 6 -32 15 -35 8 -4 15 -15 15 -25 0 -36 50 -21 167 49 122 72 130 84 93
132 -11 14 -20 31 -20 38 0 14 -36 16 -45 2z"/>
<path d="M457 1923 c-4 -3 -7 -12 -7 -20 0 -7 -9 -22 -20 -33 -11 -11 -20 -29
-20 -39 0 -19 28 -31 133 -56 15 -4 27 -14 27 -24 1 -21 55 -81 75 -81 20 0
19 38 -1 61 -15 16 -13 17 25 12 40 -5 41 -5 41 23 0 28 -4 31 -77 53 -71 21
-80 27 -106 67 -26 40 -53 55 -70 37z"/>
<path d="M2140 1341 l0 -90 155 1 155 1 0 88 0 89 -155 0 -155 0 0 -89z"/>
<path d="M2073 1033 c-4 -10 -9 -20 -13 -23 -14 -11 -60 -111 -60 -130 0 -11
8 -24 18 -27 19 -7 150 -85 194 -115 37 -25 54 -23 67 10 7 15 27 52 47 82 19
30 33 63 32 74 -3 21 -225 146 -259 146 -11 0 -23 -8 -26 -17z"/>
<path d="M595 1011 c-6 -4 -41 -25 -80 -46 -150 -80 -160 -93 -110 -147 14
-15 25 -31 25 -36 0 -18 65 -112 78 -112 21 0 222 173 222 192 0 10 -4 18 -10
18 -5 0 -10 11 -10 25 0 14 -7 28 -15 31 -8 4 -15 15 -15 25 0 10 -4 19 -10
19 -5 0 -10 9 -10 20 0 15 -7 20 -28 20 -15 0 -32 -4 -37 -9z"/>
<path d="M1311 931 c-30 -30 -29 -94 1 -115 28 -20 77 -20 103 0 15 11 20 26
19 60 -1 54 -10 64 -62 71 -32 4 -44 1 -61 -16z"/>
<path d="M810 595 c-35 -58 -67 -108 -72 -111 -22 -14 -5 -40 37 -59 25 -11
45 -23 45 -27 0 -18 40 -6 59 18 12 15 21 22 21 16 0 -6 -4 -14 -10 -17 -16
-10 -12 -52 6 -59 41 -16 52 -7 75 62 12 37 32 91 45 121 13 29 24 60 24 67 0
28 -43 13 -81 -28 l-40 -43 31 51 c16 28 30 58 30 66 0 14 -64 48 -91 48 -9 0
-44 -47 -79 -105z"/>
<path d="M1770 641 c0 -16 14 -71 30 -121 17 -50 30 -101 30 -112 0 -30 54
-21 58 10 2 12 -1 22 -6 22 -6 0 -15 12 -20 28 -5 15 -13 36 -18 46 -5 14 4
10 29 -14 20 -18 37 -41 37 -52 0 -23 23 -23 61 -1 26 15 41 53 22 53 -9 0
-52 37 -136 116 -66 62 -87 68 -87 25z"/>
<path d="M1265 420 l0 -150 53 0 c52 0 53 1 51 28 -1 15 -1 38 0 52 l3 25 8
-25 c4 -14 5 -37 2 -52 -4 -27 -3 -28 37 -28 37 0 41 2 41 25 0 14 -9 65 -19
113 -10 48 -22 104 -25 125 -5 27 -12 37 -26 37 -14 0 -21 -13 -33 -62 l-15
-63 -1 63 -1 62 -37 0 -38 0 0 -150z"/>
</g>
</svg>
