<?xml version="1.0" standalone="no"?>
<!DOCTYPE svg PUBLIC "-//W3C//DTD SVG 20010904//EN"
 "http://www.w3.org/TR/2001/REC-SVG-20010904/DTD/svg10.dtd">
<svg version="1.0" xmlns="http://www.w3.org/2000/svg"
 width="308.000000pt" height="446.000000pt" viewBox="0 0 308.000000 446.000000"
 preserveAspectRatio="xMidYMid meet">
<metadata>
Created by potrace 1.13, written by Peter Selinger 2001-2015
</metadata>
<g transform="translate(0.000000,446.000000) scale(0.100000,-0.100000)"
fill="#000000" stroke="none">
<path d="M1420 4319 c-213 -21 -399 -134 -466 -282 -25 -56 -28 -73 -28 -178
-1 -115 -1 -116 29 -150 17 -19 46 -58 65 -87 19 -29 42 -54 51 -57 8 -3 24
-13 35 -23 10 -10 37 -24 59 -33 31 -11 41 -21 43 -40 2 -21 17 -33 75 -62 40
-19 87 -38 105 -42 31 -6 32 -8 32 -61 0 -30 5 -54 10 -54 6 0 10 -7 10 -15 0
-8 -4 -15 -10 -15 -15 0 -50 -38 -50 -55 0 -9 11 -21 25 -27 19 -9 24 -16 19
-32 -19 -61 -21 -62 -86 -74 -237 -41 -370 -78 -492 -138 -48 -24 -94 -44
-101 -44 -29 0 -119 -56 -149 -93 -41 -52 -80 -90 -130 -129 -76 -59 -215
-248 -289 -393 -41 -81 -87 -210 -131 -365 -27 -98 -39 -246 -33 -415 6 -184
10 -203 82 -425 51 -158 118 -300 184 -390 87 -119 292 -330 321 -330 5 0 10
-4 12 -8 2 -5 33 -28 71 -51 55 -35 67 -47 67 -69 0 -60 42 -82 150 -82 52 0
95 -5 111 -14 84 -43 263 -75 474 -83 174 -6 273 3 410 40 59 15 103 20 170
19 85 -3 92 -1 118 23 15 14 27 36 27 48 0 18 17 30 81 62 124 62 303 209 387
320 54 70 56 72 83 105 72 86 189 292 223 391 98 290 116 514 65 804 -33 186
-83 315 -204 530 -43 76 -138 198 -202 257 -31 29 -60 58 -64 63 -76 93 -119
129 -188 161 -129 60 -155 76 -196 121 -33 37 -48 46 -85 50 -25 3 -55 12 -67
20 -13 9 -48 14 -90 14 -37 1 -96 3 -130 6 l-62 5 -7 35 c-4 22 -2 44 5 54 16
26 14 43 -8 68 -17 20 -18 25 -5 49 8 15 14 46 14 69 0 38 3 43 28 49 88 19
170 51 192 74 14 15 47 39 74 55 70 39 192 166 206 213 20 67 29 175 18 232
-12 69 -61 170 -102 212 -39 40 -173 123 -224 138 -20 7 -50 16 -67 21 -44 14
-354 19 -465 8z m390 -56 c103 -15 148 -31 180 -63 3 -3 23 -19 45 -35 70 -52
84 -67 111 -118 61 -118 72 -231 28 -313 -14 -27 -33 -56 -41 -64 -13 -13 -13
-11 0 10 9 14 21 55 27 90 5 36 13 77 16 93 4 15 2 27 -3 27 -6 0 -8 11 -5 25
2 15 0 25 -7 25 -6 0 -11 16 -11 35 0 22 -6 38 -15 41 -8 4 -15 12 -15 18 0 7
-11 23 -25 36 -14 13 -25 29 -25 36 0 34 -158 112 -270 132 -110 21 -287 26
-369 12 -82 -14 -221 -67 -221 -84 0 -8 -16 -24 -35 -37 -19 -13 -35 -27 -35
-31 0 -4 -14 -23 -30 -42 -58 -66 -95 -190 -70 -236 7 -13 16 -37 21 -54 l8
-31 -17 24 c-53 77 -60 160 -19 242 15 31 27 61 27 67 0 5 34 36 75 67 42 31
88 68 102 81 14 13 37 24 50 24 13 0 31 5 41 10 21 12 165 27 282 29 47 0 137
-7 200 -16z m-32 -139 c23 -8 48 -14 55 -14 7 0 39 -13 72 -29 107 -50 195
-168 195 -260 0 -56 -35 -135 -79 -175 -31 -30 -31 -30 -66 -13 -20 9 -45 17
-55 17 -17 0 -20 7 -20 48 0 59 -13 73 -90 99 -43 14 -85 18 -190 18 -121 0
-139 -2 -177 -23 -41 -21 -43 -25 -43 -67 0 -37 -3 -45 -19 -45 -10 0 -38 -7
-61 -15 -40 -14 -45 -14 -77 6 -47 30 -72 57 -94 104 -25 54 -24 88 7 152 46
94 132 154 269 188 144 36 281 39 373 9z m-395 -545 c10 -26 22 -39 34 -39 11
0 25 -6 32 -12 9 -10 59 -13 184 -12 164 1 169 0 117 -13 -88 -21 -183 -27
-252 -14 -59 11 -228 86 -228 102 0 10 73 37 86 32 6 -2 18 -22 27 -44z m467
-43 c0 -2 -9 -6 -20 -9 -11 -3 -18 -1 -14 4 5 9 34 13 34 5z m-260 -228 c0
-14 -5 -18 -16 -14 -9 3 -24 6 -35 6 -27 0 -24 28 4 32 33 6 47 -2 47 -24z
m-53 -84 c-3 -3 -12 -4 -19 -1 -8 3 -5 6 6 6 11 1 17 -2 13 -5z m13 -169 c0
-57 -3 -61 -47 -49 -30 8 -35 27 -17 69 11 27 20 35 39 35 24 0 25 -3 25 -55z
m-133 -61 c-3 -3 -12 -4 -19 -1 -8 3 -5 6 6 6 11 1 17 -2 13 -5z m-40 -10 c-3
-3 -12 -4 -19 -1 -8 3 -5 6 6 6 11 1 17 -2 13 -5z m-60 -10 c-3 -3 -12 -4 -19
-1 -8 3 -5 6 6 6 11 1 17 -2 13 -5z m-60 -10 c-3 -3 -12 -4 -19 -1 -8 3 -5 6
6 6 11 1 17 -2 13 -5z m-40 -10 c-3 -3 -12 -4 -19 -1 -8 3 -5 6 6 6 11 1 17
-2 13 -5z m-40 -10 c-3 -3 -12 -4 -19 -1 -8 3 -5 6 6 6 11 1 17 -2 13 -5z
m-50 -10 c-3 -3 -12 -4 -19 -1 -8 3 -5 6 6 6 11 1 17 -2 13 -5z m583 -4 c134
-10 160 -15 160 -34 0 -9 -19 -11 -67 -7 -163 12 -438 5 -532 -12 -143 -27
-399 -123 -459 -172 -9 -8 -59 -44 -111 -81 -145 -103 -251 -219 -341 -374
-54 -92 -140 -296 -140 -330 0 -14 -4 -30 -8 -35 -13 -15 -31 -145 -42 -290
-8 -116 0 -312 15 -353 2 -6 -2 -12 -9 -12 -42 0 -45 411 -5 575 6 22 15 60
20 85 23 113 114 336 155 381 8 8 14 19 14 24 0 31 185 234 301 329 145 120
383 232 584 275 175 37 283 45 465 31z m-690 -30 c-20 -13 -33 -13 -25 0 3 6
14 10 23 10 15 0 15 -2 2 -10z m-50 -17 c-8 -3 -51 -24 -95 -45 -44 -22 -75
-35 -70 -30 15 16 148 81 165 81 13 -1 13 -1 0 -6z m-290 -157 c0 -2 -8 -10
-17 -17 -16 -13 -17 -12 -4 4 13 16 21 21 21 13z m-155 -134 c-27 -26 -67 -67
-87 -90 -21 -23 -38 -37 -38 -32 0 11 158 170 168 170 4 0 -15 -22 -43 -48z
m-169 -190 c-17 -16 -18 -16 -5 5 7 12 15 20 18 17 3 -2 -3 -12 -13 -22z
m-108 -177 c-12 -24 -23 -43 -26 -41 -4 5 36 86 43 86 3 0 -5 -20 -17 -45z
m2016 18 c-5 -5 -12 -12 -16 -18 -4 -6 -8 -2 -8 8 0 9 7 17 17 17 9 0 12 -3 7
-7z m-1581 -68 c-3 -9 -8 -14 -10 -11 -3 3 -2 9 2 15 9 16 15 13 8 -4z m-509
-132 c-24 -71 -50 -157 -58 -193 -10 -46 -14 -56 -15 -33 -2 50 96 353 113
353 2 0 -16 -57 -40 -127z m1841 107 c8 -13 -5 -13 -25 0 -13 8 -13 10 2 10 9
0 20 -4 23 -10z m-1095 -330 c0 -5 -5 -10 -11 -10 -5 0 -7 5 -4 10 3 6 8 10
11 10 2 0 4 -4 4 -10z m-831 -135 c-11 -83 -8 -359 5 -430 3 -16 -2 -5 -10 25
-21 73 -24 373 -5 448 7 29 15 51 18 49 2 -3 -1 -44 -8 -92z m808 59 c-3 -3
-12 -4 -19 -1 -8 3 -5 6 6 6 11 1 17 -2 13 -5z m-72 -73 c-3 -6 -11 -11 -17
-11 -6 0 -6 6 2 15 14 17 26 13 15 -4z m1195 -41 c10 0 21 8 23 18 3 10 5 6 6
-10 1 -25 -3 -28 -29 -28 -28 0 -30 2 -29 38 2 30 3 32 6 10 3 -19 10 -28 23
-28z m-970 -444 c0 -2 -7 -7 -16 -10 -8 -3 -12 -2 -9 4 6 10 25 14 25 6z
m1070 -41 c0 -8 -2 -15 -4 -15 -2 0 -6 7 -10 15 -3 8 -1 15 4 15 6 0 10 -7 10
-15z m-1188 -35 c-2 -16 -8 -30 -12 -30 -14 0 -21 32 -9 46 18 22 26 16 21
-16z m171 -23 c-3 -5 -9 -3 -14 4 -4 7 -5 17 -2 22 3 5 9 3 14 -4 4 -7 5 -17
2 -22z m-147 -68 c8 -14 -11 -33 -25 -25 -11 7 -4 36 9 36 5 0 12 -5 16 -11z
m104 -14 c0 -8 -4 -15 -9 -15 -13 0 -22 16 -14 24 11 11 23 6 23 -9z"/>
</g>
</svg>
