<?xml version="1.0" standalone="no"?>
<!DOCTYPE svg PUBLIC "-//W3C//DTD SVG 20010904//EN"
 "http://www.w3.org/TR/2001/REC-SVG-20010904/DTD/svg10.dtd">
<svg version="1.0" xmlns="http://www.w3.org/2000/svg"
 width="90.000000pt" height="128.000000pt" viewBox="0 0 90.000000 128.000000"
 preserveAspectRatio="xMidYMid meet">
<metadata>
Created by potrace 1.13, written by Peter Selinger 2001-2015
</metadata>
<g transform="translate(0.000000,128.000000) scale(0.100000,-0.100000)"
fill="#000000" stroke="none">
<path d="M368 1224 c-28 -20 -39 -37 -47 -73 -17 -71 13 -152 64 -171 23 -9
43 -59 31 -78 -3 -5 -25 -12 -48 -16 -45 -7 -187 -66 -188 -78 0 -4 -21 -29
-48 -55 -26 -26 -59 -73 -73 -103 -34 -70 -53 -185 -45 -262 9 -78 73 -201
135 -261 180 -174 455 -168 631 13 159 164 160 456 3 615 -64 64 -139 110
-199 121 -55 10 -87 75 -44 89 11 3 33 23 50 43 25 30 30 45 30 90 0 110 -42
152 -152 152 -52 0 -70 -5 -100 -26z m152 -79 c10 -18 11 -33 4 -52 -11 -33
-34 -42 -34 -14 0 29 -36 28 -43 -1 -5 -18 -8 -20 -22 -8 -12 10 -15 24 -11
49 6 40 19 51 62 51 23 0 34 -7 44 -25z m-130 -430 c0 -29 4 -35 21 -35 11 0
18 -4 15 -9 -3 -4 -2 -46 2 -93 6 -64 4 -88 -5 -97 -7 -6 -13 -22 -13 -35 0
-13 -10 -31 -21 -42 -12 -10 -35 -38 -51 -61 -16 -24 -36 -43 -45 -43 -21 0
-53 -29 -53 -47 0 -7 -7 -13 -15 -13 -21 0 -19 8 15 47 31 35 40 73 16 73 -7
0 -16 14 -20 31 -6 30 -8 31 -46 26 -33 -4 -40 -2 -40 12 0 13 8 15 46 12 l47
-3 -6 31 c-4 18 -2 31 3 31 6 0 10 9 10 20 0 14 -7 20 -24 20 -45 0 -56 9 -44
36 14 29 38 31 45 4 3 -11 14 -20 24 -20 12 0 19 7 19 20 0 11 7 20 15 20 8 0
15 7 15 15 0 8 7 15 15 15 8 0 15 4 15 9 0 5 9 11 20 14 21 6 27 41 10 67 -6
9 -5 17 3 22 22 14 27 8 27 -27z m170 19 c40 -16 40 -17 25 -40 -21 -32 -19
-54 4 -54 21 0 51 25 51 41 0 10 13 -1 39 -33 12 -16 10 -20 -9 -36 -18 -15
-22 -24 -16 -46 7 -29 22 -31 67 -12 11 5 19 -1 27 -19 16 -35 17 -35 -23 -35
-41 0 -50 -14 -41 -65 6 -32 10 -35 41 -35 39 0 39 1 25 -35 -9 -25 -11 -25
-32 -11 -37 26 -64 17 -81 -26 -3 -10 -11 -18 -17 -18 -20 0 -9 -40 16 -56 17
-12 22 -20 15 -27 -8 -8 -19 -3 -39 16 -15 15 -36 27 -46 27 -17 0 -18 -6 -13
-55 3 -30 2 -55 -3 -55 -5 0 -15 -3 -23 -6 -10 -4 -16 4 -21 28 -10 53 -19 60
-60 53 -34 -7 -36 -9 -36 -46 0 -40 -8 -46 -39 -29 -15 7 -18 20 -16 59 3 52
10 64 118 184 25 27 28 37 23 72 -11 70 -9 199 3 203 6 2 11 19 11 38 0 40 -2
39 50 18z m-280 -81 c0 -13 -3 -13 -15 -3 -8 7 -15 16 -15 21 0 5 7 6 15 3 8
-4 15 -13 15 -21z"/>
</g>
</svg>
