<?xml version="1.0" standalone="no"?>
<!DOCTYPE svg PUBLIC "-//W3C//DTD SVG 20010904//EN"
 "http://www.w3.org/TR/2001/REC-SVG-20010904/DTD/svg10.dtd">
<svg version="1.0" xmlns="http://www.w3.org/2000/svg"
 width="352.000000pt" height="288.000000pt" viewBox="0 0 352.000000 288.000000"
 preserveAspectRatio="xMidYMid meet">
<metadata>
Created by potrace 1.13, written by Peter Selinger 2001-2015
</metadata>
<g transform="translate(0.000000,288.000000) scale(0.100000,-0.100000)"
fill="#000000" stroke="none">
<path d="M1690 2463 c-14 -9 -28 -22 -32 -27 -19 -28 -38 -121 -38 -190 0 -80
22 -142 75 -215 14 -19 25 -47 25 -62 0 -42 -76 -207 -119 -259 -20 -25 -50
-67 -67 -95 -16 -27 -35 -59 -42 -70 -13 -21 -21 -38 -55 -115 -11 -25 -27
-53 -35 -62 -8 -10 -12 -24 -9 -33 11 -26 93 -18 207 21 58 20 119 40 135 44
17 4 38 11 48 15 15 6 17 1 17 -36 -1 -45 -7 -58 -72 -171 -48 -83 -66 -134
-74 -216 -4 -36 -13 -77 -21 -91 -7 -14 -13 -53 -13 -86 0 -52 5 -68 33 -111
53 -80 53 -84 6 -84 -22 0 -51 8 -66 17 -17 12 -53 18 -112 21 -82 4 -89 3
-118 -22 -34 -28 -58 -82 -42 -92 17 -10 450 -4 471 7 15 8 18 17 13 37 -3 15
-9 57 -12 93 l-5 66 38 6 c22 4 67 7 102 7 l62 0 0 -48 c0 -28 -8 -62 -20 -85
-32 -60 -28 -67 38 -67 31 0 138 -5 236 -10 191 -10 210 -7 204 34 -2 11 -19
31 -38 44 -32 22 -42 23 -150 19 -63 -3 -130 -8 -147 -12 l-33 -7 0 41 c0 51
19 99 51 127 21 19 39 22 154 26 113 4 138 8 186 30 63 29 85 55 124 148 40
95 62 178 70 267 4 43 12 84 18 91 6 8 33 25 60 38 40 21 46 28 37 40 -23 26
-49 14 -118 -53 -77 -77 -86 -96 -101 -207 -13 -90 -40 -158 -79 -199 -46 -49
-73 -57 -180 -57 -82 0 -102 3 -115 18 -20 22 -87 169 -87 191 0 10 -16 44
-36 77 -45 73 -59 159 -28 181 28 20 77 16 101 -10 47 -49 111 -124 133 -157
68 -102 104 -109 93 -19 -7 57 3 62 66 29 35 -17 41 -18 51 -4 18 20 -2 62
-32 68 -130 27 -127 25 -207 106 -75 78 -77 79 -139 86 l-62 7 0 38 c0 36 3
40 48 63 58 30 115 90 132 141 12 35 14 37 49 31 20 -3 82 -9 139 -12 174 -11
210 15 246 173 20 91 21 234 1 272 -20 39 -122 131 -170 152 -49 22 -77 24
-113 5 -48 -26 -155 -144 -188 -208 -8 -16 -23 -28 -34 -28 -19 0 -20 7 -20
106 l0 105 -47 50 c-67 69 -149 99 -276 99 -71 0 -98 -4 -117 -17z"/>
</g>
</svg>
