<?xml version="1.0" standalone="no"?>
<!DOCTYPE svg PUBLIC "-//W3C//DTD SVG 20010904//EN"
 "http://www.w3.org/TR/2001/REC-SVG-20010904/DTD/svg10.dtd">
<svg version="1.0" xmlns="http://www.w3.org/2000/svg"
 width="352.000000pt" height="288.000000pt" viewBox="0 0 352.000000 288.000000"
 preserveAspectRatio="xMidYMid meet">
<metadata>
Created by potrace 1.13, written by Peter Selinger 2001-2015
</metadata>
<g transform="translate(0.000000,288.000000) scale(0.100000,-0.100000)"
fill="#000000" stroke="none">
<path d="M1597 2460 c-15 -17 -29 -44 -33 -58 -3 -15 -14 -49 -24 -77 -51
-136 -64 -230 -34 -259 8 -9 22 -16 29 -16 8 0 26 -19 39 -43 15 -25 42 -53
66 -66 22 -12 40 -27 40 -33 0 -5 -14 -30 -30 -55 -62 -92 -73 -122 -130 -362
-7 -29 -30 -97 -50 -150 -28 -69 -36 -99 -28 -108 7 -8 36 -13 81 -13 62 0 76
4 119 31 27 17 51 29 55 26 3 -4 8 -29 11 -55 3 -37 0 -56 -14 -78 -18 -26
-23 -58 -40 -229 -8 -90 14 -173 57 -209 16 -14 29 -32 29 -40 0 -14 -24 -16
-183 -16 -205 0 -211 -2 -242 -70 -26 -58 -10 -72 48 -43 37 20 62 23 215 26
103 3 178 9 184 15 17 17 50 113 55 158 l5 41 60 7 c112 11 138 9 138 -15 0
-11 -8 -33 -19 -47 -33 -47 -61 -110 -55 -125 5 -14 12 -15 329 -33 119 -7
126 -5 139 47 10 46 -9 52 -151 47 -71 -3 -136 -8 -145 -13 -16 -6 -18 0 -18
64 0 83 17 131 51 148 14 7 82 14 159 16 143 4 187 13 241 50 49 32 68 80 78
193 5 55 14 112 20 127 6 16 11 57 11 91 0 63 0 64 49 109 41 39 47 48 35 58
-19 16 -90 -15 -112 -49 -8 -13 -23 -76 -33 -139 -19 -123 -38 -170 -113 -285
-31 -47 -50 -66 -76 -75 -49 -17 -211 -17 -234 0 -12 9 -26 49 -41 123 -13 60
-35 152 -49 204 -38 139 -38 140 30 140 30 0 63 -4 73 -9 10 -6 50 -51 90
-100 40 -50 77 -91 82 -91 7 0 8 12 4 30 l-7 30 54 0 c56 0 78 12 78 41 0 33
-39 49 -117 49 l-73 0 -42 65 c-29 46 -49 67 -67 71 -14 3 -39 10 -55 15 -16
5 -40 9 -52 9 -40 0 -29 34 20 65 51 32 73 73 90 165 l12 65 40 -3 c21 -2 77
-5 124 -8 l85 -4 44 42 c116 110 153 308 82 434 -23 40 -41 56 -91 82 -59 30
-69 32 -168 32 -95 0 -110 -3 -149 -25 -52 -31 -75 -71 -82 -150 -6 -56 -8
-60 -31 -60 -23 0 -25 4 -30 60 -5 63 -32 118 -87 183 -37 44 -108 68 -226 77
l-93 7 -27 -32z"/>
</g>
</svg>
