<?xml version="1.0" standalone="no"?>
<!DOCTYPE svg PUBLIC "-//W3C//DTD SVG 20010904//EN"
 "http://www.w3.org/TR/2001/REC-SVG-20010904/DTD/svg10.dtd">
<svg version="1.0" xmlns="http://www.w3.org/2000/svg"
 width="352.000000pt" height="288.000000pt" viewBox="0 0 352.000000 288.000000"
 preserveAspectRatio="xMidYMid meet">
<metadata>
Created by potrace 1.13, written by Peter Selinger 2001-2015
</metadata>
<g transform="translate(0.000000,288.000000) scale(0.100000,-0.100000)"
fill="#000000" stroke="none">
<path d="M1704 2495 c-10 -8 -30 -15 -44 -15 -30 0 -134 -104 -156 -155 -8
-19 -14 -64 -14 -101 0 -59 5 -75 41 -140 33 -61 49 -78 90 -101 27 -16 49
-33 49 -38 0 -6 -16 -42 -37 -79 -34 -65 -36 -77 -44 -195 -5 -92 -14 -145
-32 -196 -45 -132 -51 -159 -52 -239 0 -99 13 -107 77 -44 57 56 99 88 115 88
10 0 13 -24 13 -98 0 -89 -3 -103 -29 -153 -52 -98 -52 -230 0 -295 19 -24 29
-48 29 -70 l0 -34 -70 0 c-46 0 -86 7 -120 20 -65 26 -109 25 -164 -2 -32 -15
-49 -32 -62 -60 -23 -51 -11 -74 37 -70 19 1 104 7 189 12 151 8 228 16 262
26 24 7 42 67 29 93 -6 11 -11 36 -11 55 0 28 6 39 28 53 15 10 30 21 33 26 7
9 40 12 102 9 l37 -2 0 -69 c0 -46 -6 -83 -19 -111 -11 -24 -17 -49 -14 -56 3
-8 41 -14 121 -18 64 -3 165 -8 224 -12 103 -6 107 -5 118 17 11 19 9 28 -5
56 -10 19 -29 36 -43 40 -27 6 -242 -3 -284 -13 -26 -6 -26 -6 -14 29 6 19 26
48 44 65 26 24 32 38 32 70 l0 41 58 10 c31 6 80 18 108 26 28 8 67 15 87 15
39 0 139 40 170 68 37 34 57 88 57 159 1 108 16 197 43 257 22 46 32 58 66 72
42 17 53 40 25 51 -24 9 -96 -19 -125 -48 -41 -44 -87 -167 -103 -276 -17
-120 -49 -184 -107 -214 -34 -17 -56 -19 -152 -17 l-112 3 -6 45 c-8 57 -54
260 -74 324 -8 27 -15 71 -15 98 0 46 1 48 29 48 27 0 34 -9 101 -137 40 -76
77 -141 83 -145 18 -11 37 12 37 43 0 28 2 29 46 29 52 0 79 12 94 41 18 32
-4 49 -64 49 -50 0 -55 2 -111 58 -32 31 -68 71 -82 88 -13 18 -38 38 -56 44
-18 7 -47 20 -64 28 l-33 14 33 22 c39 26 111 159 104 193 -4 22 -1 23 48 23
58 0 212 46 276 82 52 29 80 96 87 209 3 65 1 92 -11 115 -22 41 -130 150
-168 170 -41 21 -105 13 -177 -22 -73 -36 -124 -88 -158 -161 -41 -89 -60 -85
-66 12 -7 108 -45 177 -124 227 -129 82 -161 92 -200 63z"/>
</g>
</svg>
