<?xml version="1.0" standalone="no"?>
<!DOCTYPE svg PUBLIC "-//W3C//DTD SVG 20010904//EN"
 "http://www.w3.org/TR/2001/REC-SVG-20010904/DTD/svg10.dtd">
<svg version="1.0" xmlns="http://www.w3.org/2000/svg"
 width="352.000000pt" height="288.000000pt" viewBox="0 0 352.000000 288.000000"
 preserveAspectRatio="xMidYMid meet">
<metadata>
Created by potrace 1.13, written by Peter Selinger 2001-2015
</metadata>
<g transform="translate(0.000000,288.000000) scale(0.100000,-0.100000)"
fill="#000000" stroke="none">
<path d="M1745 2465 c-27 -13 -62 -29 -77 -34 -16 -6 -37 -25 -48 -43 -38 -62
-22 -328 19 -328 6 0 27 -14 47 -32 34 -30 36 -34 32 -84 -5 -58 -41 -139
-103 -229 -23 -33 -62 -89 -86 -125 -76 -110 -91 -146 -87 -220 3 -64 4 -65
32 -68 41 -5 108 15 201 60 69 33 135 49 135 32 0 -11 -21 -44 -44 -69 -13
-13 -32 -51 -43 -82 -12 -32 -33 -92 -49 -133 -23 -63 -28 -95 -32 -198 -5
-143 -2 -156 38 -207 16 -21 30 -43 30 -50 0 -9 -42 -11 -172 -8 -161 4 -175
3 -205 -16 -35 -22 -42 -51 -18 -71 21 -18 439 -10 457 8 15 15 36 126 37 200
l1 52 90 0 90 0 0 -30 c0 -17 -11 -53 -25 -80 -27 -54 -35 -146 -13 -168 9 -9
78 -12 249 -12 201 0 238 2 249 15 11 13 8 21 -21 52 -64 67 -144 80 -277 43
-69 -19 -112 -25 -112 -15 0 11 81 118 128 169 l51 56 108 0 c173 0 231 26
290 128 28 50 32 66 33 132 0 82 18 162 44 202 13 20 28 27 66 32 37 5 54 13
66 31 24 36 -3 81 -57 95 -49 13 -87 1 -126 -39 -47 -50 -63 -92 -92 -256 -10
-56 -61 -193 -86 -231 -16 -24 -17 -25 -152 -22 -108 2 -138 6 -144 18 -5 8
-24 51 -44 95 -36 78 -47 135 -62 298 -6 66 -5 67 19 67 28 0 103 -73 178
-173 24 -32 52 -63 62 -68 27 -15 48 6 48 48 0 31 2 33 21 23 25 -14 49 2 49
34 0 47 -36 66 -124 66 l-65 0 -20 43 c-10 23 -38 62 -61 85 -40 43 -42 44
-95 40 -30 -1 -55 1 -55 6 0 5 34 50 75 100 131 159 128 156 168 156 20 0 39
-5 42 -10 22 -36 130 -49 225 -29 83 18 84 23 77 269 -4 114 -11 220 -17 234
-5 15 -22 32 -37 38 -16 7 -31 17 -35 22 -8 12 -206 8 -233 -6 -11 -5 -45 -37
-75 -70 l-55 -59 -52 7 -53 7 0 79 c0 90 -15 135 -56 166 -16 12 -38 30 -49
41 -51 48 -121 54 -200 16z"/>
</g>
</svg>
