<?xml version="1.0" standalone="no"?>
<!DOCTYPE svg PUBLIC "-//W3C//DTD SVG 20010904//EN"
 "http://www.w3.org/TR/2001/REC-SVG-20010904/DTD/svg10.dtd">
<svg version="1.0" xmlns="http://www.w3.org/2000/svg"
 width="352.000000pt" height="288.000000pt" viewBox="0 0 352.000000 288.000000"
 preserveAspectRatio="xMidYMid meet">
<metadata>
Created by potrace 1.13, written by Peter Selinger 2001-2015
</metadata>
<g transform="translate(0.000000,288.000000) scale(0.100000,-0.100000)"
fill="#000000" stroke="none">
<path d="M1740 2465 c-80 -32 -96 -47 -125 -112 -56 -126 -41 -222 45 -286 45
-34 50 -41 50 -76 0 -27 -8 -49 -24 -68 -40 -48 -87 -151 -149 -328 -32 -93
-65 -191 -72 -217 -7 -25 -18 -55 -24 -66 -7 -13 -7 -22 1 -30 18 -18 29 -15
84 20 27 17 78 42 114 56 76 28 200 53 200 40 0 -20 -72 -164 -94 -188 -55
-60 -108 -191 -121 -300 -8 -63 17 -141 61 -192 40 -48 33 -54 -63 -61 -89 -7
-171 -25 -210 -46 -23 -12 -38 -45 -28 -60 7 -13 356 -2 373 12 8 6 12 41 12
110 0 126 0 126 133 127 90 0 98 -1 93 -18 -4 -10 -10 -62 -15 -115 -5 -53
-12 -101 -16 -107 -3 -5 -3 -19 0 -30 6 -19 15 -20 235 -20 221 0 229 1 244
21 13 20 12 25 -20 69 -19 26 -41 51 -50 54 -9 3 -71 6 -139 6 l-124 0 -7 35
c-9 50 1 79 44 120 l37 36 116 -6 c111 -6 119 -5 165 19 78 40 108 76 149 178
28 71 39 115 45 183 9 114 26 148 79 163 49 15 97 68 80 88 -18 22 -51 17
-101 -15 -57 -36 -71 -57 -98 -142 -11 -36 -33 -96 -50 -132 -16 -37 -30 -74
-30 -83 0 -30 -89 -130 -138 -154 -39 -20 -63 -24 -141 -24 l-95 -1 -24 60
c-20 49 -26 87 -33 205 -5 80 -11 157 -15 173 -6 26 -5 27 30 27 31 0 38 -5
55 -37 10 -21 28 -46 40 -57 11 -10 24 -35 27 -55 9 -48 20 -68 46 -82 18 -10
24 -8 40 11 10 12 18 31 18 42 0 20 9 21 72 2 22 -7 52 38 43 65 -9 31 -123
91 -171 91 -35 0 -46 7 -93 54 -30 30 -67 60 -83 67 -24 10 -28 17 -28 50 0
33 5 41 42 66 23 15 54 48 69 73 15 26 32 43 40 41 27 -7 297 -14 320 -8 36 9
79 85 79 138 0 24 7 89 15 144 20 140 19 218 -2 244 -25 30 -205 91 -270 91
-70 0 -97 -26 -163 -157 -29 -57 -58 -103 -66 -103 -11 0 -14 19 -14 82 0 88
-26 171 -76 245 -44 66 -82 85 -176 89 -71 4 -92 1 -148 -21z"/>
</g>
</svg>
