<?xml version="1.0" standalone="no"?>
<!DOCTYPE svg PUBLIC "-//W3C//DTD SVG 20010904//EN"
 "http://www.w3.org/TR/2001/REC-SVG-20010904/DTD/svg10.dtd">
<svg version="1.0" xmlns="http://www.w3.org/2000/svg"
 width="352.000000pt" height="288.000000pt" viewBox="0 0 352.000000 288.000000"
 preserveAspectRatio="xMidYMid meet">
<metadata>
Created by potrace 1.13, written by Peter Selinger 2001-2015
</metadata>
<g transform="translate(0.000000,288.000000) scale(0.100000,-0.100000)"
fill="#000000" stroke="none">
<path d="M0 1440 l0 -1440 1760 0 1760 0 0 1440 0 1440 -1760 0 -1760 0 0
-1440z m1800 1058 c43 -51 84 -123 101 -181 17 -53 27 -70 46 -78 51 -19 71
-11 111 44 56 74 80 93 150 122 96 39 118 35 206 -39 57 -48 91 -111 105 -192
6 -33 13 -76 17 -96 13 -72 -1 -104 -62 -144 -55 -37 -57 -37 -179 -42 l-123
-5 -7 -36 c-9 -50 -60 -143 -108 -197 -22 -25 -38 -46 -36 -48 2 -2 44 -25 93
-51 86 -46 90 -51 115 -107 l26 -58 82 0 c61 0 86 -4 97 -16 19 -19 20 -38 4
-52 -11 -8 -106 -17 -144 -13 -15 1 -151 110 -188 150 -17 17 -40 31 -53 31
-22 0 -23 -3 -23 -92 0 -72 4 -101 21 -135 11 -23 25 -75 31 -114 5 -40 15
-88 21 -108 l12 -36 140 3 c77 2 147 5 155 8 27 7 86 97 109 163 14 44 21 90
21 145 1 120 31 176 113 211 41 17 69 9 87 -24 11 -21 0 -34 -36 -45 -12 -4
-28 -14 -36 -24 -28 -31 -55 -136 -62 -232 -5 -83 -11 -105 -44 -170 l-37 -74
-80 -35 c-73 -32 -88 -35 -175 -34 -52 0 -112 4 -132 8 -34 6 -39 5 -47 -16
-5 -13 -25 -53 -45 -87 -20 -35 -36 -72 -36 -83 0 -27 50 -33 200 -25 140 8
138 9 161 -56 19 -55 7 -62 -114 -66 -74 -3 -117 0 -157 12 -29 9 -79 16 -111
16 -91 0 -117 41 -75 116 16 28 26 62 26 85 l0 39 -54 0 c-29 0 -66 3 -82 6
-26 5 -30 2 -43 -33 -7 -21 -16 -66 -18 -100 -3 -34 -11 -67 -18 -73 -40 -33
-430 -56 -454 -26 -17 21 -3 45 42 67 36 19 52 20 141 15 56 -3 118 -8 139
-12 l37 -6 0 68 c0 52 -6 82 -25 122 -14 30 -25 71 -25 91 0 58 57 240 85 271
8 9 15 33 15 53 0 36 -1 37 -36 37 -24 0 -53 -11 -88 -35 -52 -34 -80 -42
-102 -27 -20 13 -34 50 -34 89 0 38 6 51 69 139 31 43 35 57 42 138 5 70 15
111 43 180 43 108 51 198 16 189 -32 -8 -95 61 -114 127 -23 77 -22 257 2 285
41 48 110 87 169 95 92 12 141 11 153 -2z"/>
</g>
</svg>
