<?xml version="1.0" standalone="no"?>
<!DOCTYPE svg PUBLIC "-//W3C//DTD SVG 20010904//EN"
 "http://www.w3.org/TR/2001/REC-SVG-20010904/DTD/svg10.dtd">
<svg version="1.0" xmlns="http://www.w3.org/2000/svg"
 width="352.000000pt" height="288.000000pt" viewBox="0 0 352.000000 288.000000"
 preserveAspectRatio="xMidYMid meet">
<metadata>
Created by potrace 1.13, written by Peter Selinger 2001-2015
</metadata>
<g transform="translate(0.000000,288.000000) scale(0.100000,-0.100000)"
fill="#000000" stroke="none">
<path d="M1790 2454 c-63 -21 -88 -39 -122 -90 -44 -66 -52 -111 -46 -243 5
-105 21 -150 64 -177 21 -15 23 -19 11 -33 -7 -9 -42 -63 -76 -121 -34 -58
-66 -112 -72 -120 -10 -16 -19 -35 -55 -115 -12 -27 -40 -88 -62 -135 -48 -98
-44 -110 30 -110 35 0 76 11 142 40 105 44 176 60 176 40 0 -8 -13 -36 -29
-64 -15 -28 -44 -92 -64 -142 -33 -81 -38 -106 -47 -233 -9 -133 -9 -144 10
-181 11 -21 31 -51 45 -66 16 -18 25 -38 25 -60 0 -33 -1 -34 -38 -34 -22 0
-61 7 -88 15 -31 9 -91 15 -162 15 -102 0 -114 -2 -134 -22 l-21 -21 27 -24
c27 -23 31 -23 236 -23 l210 0 17 27 c13 20 19 55 23 127 l5 101 70 8 c114 13
115 12 115 -92 0 -55 -6 -102 -15 -123 -22 -54 -11 -58 153 -58 79 0 174 -5
212 -11 83 -14 118 -7 126 25 9 36 -26 100 -56 105 -26 3 -151 -13 -257 -34
l-63 -13 0 49 c0 51 25 106 66 145 20 19 36 22 166 26 135 4 146 6 196 33 30
16 63 42 74 57 39 56 69 175 93 375 6 49 11 56 66 104 62 53 69 66 44 75 -70
27 -204 -164 -277 -394 l-32 -103 -52 -29 c-49 -28 -57 -30 -167 -30 -83 0
-116 3 -119 13 -3 6 -11 44 -17 82 -13 72 -41 215 -67 340 -18 90 -19 85 16
85 24 0 35 -8 56 -42 36 -58 171 -215 191 -222 24 -10 43 13 43 52 l0 35 55
-6 c41 -4 59 -2 70 9 19 19 19 29 -1 48 -12 12 -37 16 -103 16 l-88 0 -11 38
c-6 20 -32 58 -57 84 -37 39 -53 48 -93 53 -73 10 -82 14 -82 39 0 19 14 31
69 60 76 40 103 68 122 123 11 34 13 35 48 28 20 -4 73 -9 119 -12 76 -4 86
-2 127 21 57 34 76 59 115 157 29 73 32 90 28 153 -4 51 -14 88 -34 131 -29
59 -30 60 -79 67 -28 3 -80 7 -116 7 -88 1 -159 -35 -262 -134 -43 -41 -80
-75 -82 -75 -3 0 -5 41 -5 90 0 100 -9 127 -58 174 -17 15 -36 41 -42 57 -9
22 -23 31 -54 39 -22 6 -51 15 -64 20 -24 10 -66 12 -92 4z"/>
</g>
</svg>
