<?xml version="1.0" standalone="no"?>
<!DOCTYPE svg PUBLIC "-//W3C//DTD SVG 20010904//EN"
 "http://www.w3.org/TR/2001/REC-SVG-20010904/DTD/svg10.dtd">
<svg version="1.0" xmlns="http://www.w3.org/2000/svg"
 width="352.000000pt" height="288.000000pt" viewBox="0 0 352.000000 288.000000"
 preserveAspectRatio="xMidYMid meet">
<metadata>
Created by potrace 1.13, written by Peter Selinger 2001-2015
</metadata>
<g transform="translate(0.000000,288.000000) scale(0.100000,-0.100000)"
fill="#000000" stroke="none">
<path d="M1659 2446 c-25 -17 -49 -50 -78 -104 -39 -77 -41 -84 -41 -170 0
-86 1 -92 29 -119 15 -16 47 -37 70 -47 36 -17 41 -23 41 -51 0 -18 -13 -66
-28 -106 -16 -41 -37 -99 -47 -129 -10 -30 -36 -95 -58 -145 -39 -88 -40 -93
-46 -238 -4 -104 -3 -152 5 -158 7 -6 42 5 97 31 47 22 88 40 91 40 13 0 5
-53 -14 -98 -32 -77 -49 -156 -56 -270 -7 -117 2 -166 36 -197 11 -10 20 -24
20 -32 0 -18 -81 -17 -127 2 -51 22 -67 19 -141 -22 -71 -39 -83 -50 -79 -72
2 -11 43 -13 220 -12 135 1 228 6 243 13 23 11 24 15 24 108 l0 98 31 6 c17 3
58 6 90 6 70 0 70 -2 37 -114 -33 -114 -46 -108 220 -104 249 3 262 6 262 59
0 34 -32 59 -74 59 -16 0 -61 -11 -100 -24 -39 -13 -99 -27 -133 -31 l-63 -7
0 44 c0 41 2 45 44 68 44 24 66 54 66 90 0 18 7 20 79 20 89 0 124 10 161 45
14 13 48 35 75 49 62 31 112 82 125 127 6 18 10 66 10 105 0 39 7 93 15 121
19 64 70 141 112 169 24 16 29 24 20 33 -18 18 -50 13 -98 -17 -55 -36 -74
-57 -94 -106 -18 -43 -75 -266 -75 -294 0 -17 -35 -60 -80 -96 -35 -28 -83
-39 -192 -43 l-98 -4 0 50 c0 33 -12 83 -35 145 -48 126 -65 196 -65 261 0 55
0 55 31 55 25 0 42 -11 80 -50 27 -28 49 -55 49 -60 0 -5 17 -27 38 -48 20
-22 49 -54 64 -72 23 -27 31 -30 43 -20 8 7 15 26 15 42 0 28 2 30 33 25 17
-3 42 -8 54 -12 16 -5 29 0 47 19 28 27 30 34 17 54 -13 22 -130 44 -199 38
l-62 -5 -25 49 c-20 39 -39 58 -100 97 -41 26 -74 52 -75 56 0 4 13 15 29 25
41 23 57 55 76 152 10 47 19 86 20 88 2 2 13 -6 24 -17 14 -14 34 -21 59 -21
44 0 163 45 175 66 4 8 33 32 63 55 57 42 66 57 90 147 20 76 18 105 -11 136
-14 15 -25 31 -25 35 0 18 -81 106 -112 123 -25 13 -58 17 -139 18 -101 0
-108 -1 -145 -28 -55 -41 -65 -55 -83 -125 -16 -59 -18 -62 -49 -65 l-32 -3 0
68 c0 97 -14 139 -53 159 -18 9 -48 29 -67 44 -86 67 -167 79 -231 36z"/>
</g>
</svg>
