<?xml version="1.0" standalone="no"?>
<!DOCTYPE svg PUBLIC "-//W3C//DTD SVG 20010904//EN"
 "http://www.w3.org/TR/2001/REC-SVG-20010904/DTD/svg10.dtd">
<svg version="1.0" xmlns="http://www.w3.org/2000/svg"
 width="352.000000pt" height="288.000000pt" viewBox="0 0 352.000000 288.000000"
 preserveAspectRatio="xMidYMid meet">
<metadata>
Created by potrace 1.13, written by Peter Selinger 2001-2015
</metadata>
<g transform="translate(0.000000,288.000000) scale(0.100000,-0.100000)"
fill="#000000" stroke="none">
<path d="M1741 2514 c-58 -25 -120 -83 -148 -137 -27 -54 -41 -153 -29 -202 4
-14 36 -56 71 -91 41 -42 65 -74 65 -88 0 -12 -27 -67 -59 -122 -32 -54 -62
-114 -66 -133 -4 -19 -20 -55 -36 -80 -25 -42 -83 -174 -130 -296 -10 -27 -16
-57 -13 -67 2 -9 24 -24 48 -33 l44 -17 88 44 c49 25 123 68 164 96 89 62 101
52 42 -36 -45 -65 -75 -133 -121 -270 -28 -84 -31 -105 -31 -215 0 -148 8
-179 57 -223 32 -27 35 -33 18 -34 -11 0 -47 11 -80 25 -72 29 -197 35 -244
10 -29 -14 -59 -73 -44 -84 5 -4 106 -4 226 -1 179 4 219 8 227 20 5 8 10 54
10 103 l0 87 120 0 c66 0 120 -3 120 -6 0 -4 -19 -48 -43 -98 -24 -50 -42 -97
-39 -104 2 -8 37 -12 120 -12 64 0 164 -5 223 -12 124 -14 145 -7 135 45 -11
56 -14 57 -197 57 -93 0 -169 3 -169 6 0 4 20 29 45 55 26 28 45 58 45 71 0
48 11 51 113 44 114 -8 161 2 234 50 28 19 56 34 61 34 6 0 24 11 40 25 35 30
66 128 82 261 5 51 19 112 30 137 19 42 62 89 91 99 19 6 0 28 -24 28 -32 0
-63 -25 -94 -73 -52 -82 -151 -285 -158 -324 -5 -30 -18 -51 -51 -83 -55 -52
-99 -69 -185 -70 l-67 0 -25 48 c-79 147 -81 153 -88 262 -4 58 -10 115 -14
128 -7 21 -5 22 46 22 l54 0 35 -71 c40 -83 87 -149 104 -149 17 0 37 46 29
66 -7 18 -8 18 70 -2 27 -7 60 19 55 43 -3 15 -108 63 -139 63 -17 0 -79 63
-79 80 0 11 -136 81 -192 99 -21 7 -38 16 -38 21 0 8 51 54 67 62 18 7 103
131 103 150 0 18 5 19 68 14 261 -24 284 -20 321 53 42 82 79 368 53 407 -25
39 -185 84 -295 84 -123 0 -170 -31 -183 -118 -9 -64 -21 -84 -47 -80 -21 3
-22 7 -22 138 0 114 -3 140 -19 170 -32 58 -80 118 -104 129 -35 17 -210 13
-251 -5z"/>
</g>
</svg>
