<?xml version="1.0" standalone="no"?>
<!DOCTYPE svg PUBLIC "-//W3C//DTD SVG 20010904//EN"
 "http://www.w3.org/TR/2001/REC-SVG-20010904/DTD/svg10.dtd">
<svg version="1.0" xmlns="http://www.w3.org/2000/svg"
 width="352.000000pt" height="288.000000pt" viewBox="0 0 352.000000 288.000000"
 preserveAspectRatio="xMidYMid meet">
<metadata>
Created by potrace 1.13, written by Peter Selinger 2001-2015
</metadata>
<g transform="translate(0.000000,288.000000) scale(0.100000,-0.100000)"
fill="#000000" stroke="none">
<path d="M1774 2471 c-53 -13 -117 -55 -137 -89 -15 -26 -21 -59 -25 -147 -5
-130 0 -146 68 -191 49 -32 52 -64 17 -145 -13 -30 -29 -76 -36 -102 -14 -56
-22 -71 -113 -191 -63 -83 -98 -155 -98 -198 0 -9 -9 -32 -19 -49 -30 -49 -20
-60 42 -44 93 24 160 34 254 39 l92 5 -26 -42 c-14 -23 -43 -67 -63 -97 -63
-93 -70 -113 -70 -193 0 -40 -4 -77 -9 -82 -16 -17 -51 -128 -51 -160 1 -16 9
-55 20 -85 11 -30 19 -61 20 -67 0 -10 -26 -13 -96 -13 -72 0 -103 -4 -124
-17 -30 -18 -58 -59 -47 -70 4 -3 46 1 95 10 51 10 136 17 204 17 134 0 155 9
143 64 -3 17 -9 51 -12 76 -4 41 -2 47 19 57 35 18 99 33 141 33 36 0 37 -1
37 -35 0 -20 -10 -51 -24 -73 -63 -98 -41 -122 114 -122 58 0 123 -4 145 -9
22 -5 70 -12 106 -16 71 -7 99 6 99 45 0 44 -22 50 -191 50 l-159 0 0 33 c0
22 8 41 24 56 13 12 31 40 41 62 l18 39 63 0 c61 0 191 25 285 56 42 13 49 21
79 79 29 56 33 78 44 202 7 76 17 147 23 159 7 11 32 39 57 62 37 35 42 43 30
53 -32 26 -158 -147 -173 -237 -11 -63 -42 -133 -71 -159 -12 -11 -29 -33 -37
-48 -23 -45 -88 -67 -194 -67 l-89 0 -35 73 c-19 41 -35 83 -35 94 0 31 -35
126 -64 171 -20 32 -26 55 -26 97 0 52 1 55 25 55 32 0 135 -76 135 -99 0 -26
27 -58 87 -103 55 -40 56 -40 83 -24 16 9 37 16 48 16 23 0 37 15 45 49 9 38
-9 51 -73 51 -57 0 -57 0 -75 40 -10 22 -22 40 -27 40 -5 0 -27 17 -51 38 -51
47 -149 102 -179 102 -18 0 -13 6 22 26 61 34 106 79 137 137 l26 47 136 1
c75 1 147 4 161 8 18 5 36 27 62 76 51 96 52 158 3 280 -38 95 -96 190 -125
205 -46 25 -163 -3 -220 -52 -27 -23 -80 -114 -80 -136 0 -15 -6 -22 -19 -22
-46 0 -51 9 -51 86 0 100 -26 172 -81 225 -76 73 -147 93 -245 70z"/>
</g>
</svg>
