<?xml version="1.0" standalone="no"?>
<!DOCTYPE svg PUBLIC "-//W3C//DTD SVG 20010904//EN"
 "http://www.w3.org/TR/2001/REC-SVG-20010904/DTD/svg10.dtd">
<svg version="1.0" xmlns="http://www.w3.org/2000/svg"
 width="352.000000pt" height="288.000000pt" viewBox="0 0 352.000000 288.000000"
 preserveAspectRatio="xMidYMid meet">
<metadata>
Created by potrace 1.13, written by Peter Selinger 2001-2015
</metadata>
<g transform="translate(0.000000,288.000000) scale(0.100000,-0.100000)"
fill="#000000" stroke="none">
<path d="M1603 2423 c-57 -62 -73 -105 -73 -210 0 -84 12 -143 30 -143 4 0 31
-19 59 -42 50 -41 52 -45 48 -83 -3 -22 -13 -67 -22 -100 -9 -33 -25 -96 -35
-140 -28 -127 -85 -292 -133 -390 -76 -154 -83 -206 -25 -192 34 9 158 85 196
121 32 30 34 30 45 11 7 -11 15 -29 19 -40 10 -32 9 -113 -2 -120 -19 -12 -70
-226 -70 -295 0 -28 9 -42 50 -81 28 -26 50 -51 50 -56 0 -5 -10 -19 -23 -31
-34 -32 -98 -30 -131 3 -23 23 -32 25 -116 25 -78 0 -93 -3 -111 -21 -13 -13
-19 -30 -17 -51 l3 -31 218 -1 c226 -1 256 4 222 37 -20 20 -20 112 -1 159
l15 35 92 6 c51 4 95 5 97 2 3 -3 7 -29 10 -58 3 -44 -1 -63 -23 -106 -22 -45
-24 -56 -13 -66 9 -10 73 -14 233 -17 l220 -3 3 31 c2 19 -4 40 -16 54 -19 23
-21 24 -83 12 -35 -6 -110 -14 -166 -18 -119 -7 -123 -4 -68 65 32 39 65 121
65 159 0 11 12 13 58 8 203 -20 181 -23 244 26 31 23 69 50 85 59 22 12 37 35
60 95 26 67 32 97 37 204 8 141 9 144 90 183 66 32 82 50 62 66 -11 10 -27 6
-74 -18 -33 -17 -69 -42 -80 -56 -29 -37 -49 -113 -61 -233 -8 -88 -13 -107
-33 -125 -13 -12 -45 -50 -71 -84 l-48 -63 -52 0 c-33 0 -68 8 -92 20 -22 11
-57 20 -80 20 -52 0 -56 8 -95 162 -23 91 -32 149 -33 223 -2 100 -2 100 23
102 19 2 37 -11 75 -53 28 -30 74 -80 104 -111 l55 -56 17 22 c20 24 44 26 79
6 52 -30 103 -8 80 34 -16 30 -56 48 -130 56 -72 8 -129 44 -150 95 -13 30
-77 81 -139 109 l-40 18 22 30 c12 16 37 50 56 75 18 25 44 51 56 58 25 13 45
50 45 82 0 18 4 19 43 14 23 -3 76 -9 118 -12 85 -7 66 -19 159 101 48 63 90
157 90 200 0 22 -12 50 -35 81 -19 27 -47 72 -62 101 -33 64 -73 84 -184 91
-75 4 -78 4 -143 -35 -66 -40 -126 -102 -126 -132 0 -9 -9 -27 -20 -41 -17
-21 -21 -23 -30 -10 -5 8 -10 44 -10 80 0 78 -14 131 -39 154 -10 9 -49 28
-86 41 -54 20 -87 25 -163 25 l-94 0 -35 -37z"/>
</g>
</svg>
