<?xml version="1.0" standalone="no"?>
<!DOCTYPE svg PUBLIC "-//W3C//DTD SVG 20010904//EN"
 "http://www.w3.org/TR/2001/REC-SVG-20010904/DTD/svg10.dtd">
<svg version="1.0" xmlns="http://www.w3.org/2000/svg"
 width="352.000000pt" height="288.000000pt" viewBox="0 0 352.000000 288.000000"
 preserveAspectRatio="xMidYMid meet">
<metadata>
Created by potrace 1.13, written by Peter Selinger 2001-2015
</metadata>
<g transform="translate(0.000000,288.000000) scale(0.100000,-0.100000)"
fill="#000000" stroke="none">
<path d="M1747 2437 c-55 -59 -77 -88 -123 -166 -39 -67 -44 -83 -44 -136 0
-69 14 -96 60 -115 38 -16 39 -41 4 -104 -66 -118 -133 -324 -148 -456 -4 -30
-17 -81 -30 -112 -23 -56 -20 -78 10 -78 15 0 233 97 250 111 7 6 29 19 49 29
l35 18 0 -50 c0 -33 -10 -72 -30 -118 -16 -38 -30 -72 -30 -77 0 -4 -16 -49
-35 -98 -48 -120 -65 -200 -65 -296 0 -60 5 -89 20 -119 11 -22 20 -44 20 -50
0 -6 -57 -10 -164 -10 -122 0 -172 -4 -197 -15 -51 -22 -83 -50 -76 -67 4 -13
44 -16 239 -20 132 -3 245 -1 261 5 31 10 34 20 41 129 3 56 11 90 28 120 l23
43 74 3 74 3 -5 -78 c-3 -43 -13 -99 -22 -125 -27 -76 -30 -75 187 -82 106 -3
220 -9 255 -12 57 -5 62 -4 62 14 0 10 -13 34 -29 52 l-28 33 -177 -5 -176 -4
0 24 c0 16 18 44 50 78 28 29 53 67 56 83 7 33 7 33 158 46 84 7 251 68 272
100 8 12 23 55 35 96 79 281 115 359 164 359 9 0 30 7 46 16 25 12 28 18 18
30 -23 27 -96 13 -127 -25 -34 -43 -126 -269 -149 -367 -9 -38 -47 -72 -113
-99 -133 -55 -201 -76 -252 -78 l-52 -2 -8 40 c-4 22 -15 85 -24 140 -10 55
-28 130 -41 167 -16 48 -23 90 -23 143 l0 76 51 -3 51 -3 20 -50 c27 -69 62
-111 103 -125 19 -6 46 -26 60 -43 24 -30 27 -31 39 -14 7 9 20 17 29 17 33 0
66 24 77 54 10 27 8 33 -12 50 -20 16 -34 18 -99 13 l-77 -6 -43 48 c-24 27
-52 61 -63 76 -20 30 -71 55 -111 55 -43 0 -32 35 22 67 26 15 55 34 64 43 10
8 28 22 41 31 22 15 50 61 62 101 5 16 8 16 48 -2 24 -11 60 -20 81 -20 39 0
130 23 155 39 7 4 29 49 47 99 33 88 35 98 35 221 0 137 -7 161 -49 161 -10 0
-34 6 -52 14 -19 8 -64 17 -101 21 -61 7 -71 5 -117 -20 -75 -41 -116 -83
-131 -137 -14 -46 -16 -48 -52 -48 l-38 0 0 86 c0 64 -6 107 -26 169 l-25 82
-83 32 c-58 22 -100 31 -141 31 -52 0 -60 -3 -88 -33z"/>
</g>
</svg>
