<?xml version="1.0" standalone="no"?>
<!DOCTYPE svg PUBLIC "-//W3C//DTD SVG 20010904//EN"
 "http://www.w3.org/TR/2001/REC-SVG-20010904/DTD/svg10.dtd">
<svg version="1.0" xmlns="http://www.w3.org/2000/svg"
 width="352.000000pt" height="288.000000pt" viewBox="0 0 352.000000 288.000000"
 preserveAspectRatio="xMidYMid meet">
<metadata>
Created by potrace 1.13, written by Peter Selinger 2001-2015
</metadata>
<g transform="translate(0.000000,288.000000) scale(0.100000,-0.100000)"
fill="#000000" stroke="none">
<path d="M1740 2496 c-14 -8 -36 -33 -49 -55 -28 -51 -61 -204 -61 -287 0 -53
4 -66 30 -99 17 -21 38 -44 48 -51 16 -12 16 -15 -2 -46 -46 -81 -86 -166 -95
-203 -19 -83 -122 -303 -186 -399 -21 -33 -33 -60 -29 -70 3 -9 7 -16 8 -16 1
0 40 16 86 35 62 26 110 39 175 45 50 6 107 12 128 14 l38 4 -59 -111 c-109
-209 -130 -269 -136 -385 -7 -111 4 -150 44 -172 12 -6 20 -21 20 -35 l0 -25
-152 0 c-84 0 -158 -4 -165 -8 -6 -4 -21 -29 -32 -55 -17 -39 -18 -49 -7 -53
8 -3 23 -1 35 5 28 15 141 13 236 -4 159 -29 159 -29 165 122 l5 118 93 5 93
5 -5 -65 c-2 -36 -8 -81 -11 -102 -11 -57 5 -61 224 -57 102 2 204 -1 225 -5
l39 -9 -7 34 c-9 46 -22 57 -90 71 -55 11 -173 2 -263 -19 -20 -4 -23 -1 -23
25 0 23 8 36 30 52 16 12 41 41 55 64 l25 43 113 6 c120 5 219 32 294 80 76
49 77 51 84 231 3 88 12 176 19 193 7 19 33 48 61 69 40 29 47 39 38 50 -16
19 -33 18 -77 -6 -79 -42 -108 -82 -117 -160 -8 -63 -48 -220 -70 -273 -11
-26 -30 -45 -68 -67 -51 -29 -55 -30 -171 -28 l-118 3 -28 110 c-16 61 -33
124 -38 142 -6 18 -14 77 -17 133 l-8 100 35 0 c29 0 43 -9 86 -54 28 -29 58
-70 66 -91 9 -20 30 -55 47 -76 39 -49 59 -39 59 28 0 45 0 45 23 29 53 -38
94 -55 106 -43 38 38 -8 99 -99 130 -48 17 -79 36 -118 75 -63 62 -99 82 -161
91 -45 6 -46 7 -49 47 -3 40 -2 41 40 54 101 32 148 73 148 128 0 17 10 20 98
24 138 7 203 29 246 81 19 24 40 55 45 70 24 61 6 197 -36 282 -25 50 -64 84
-120 105 -67 25 -133 26 -181 1 -46 -23 -60 -40 -103 -118 -30 -56 -37 -63
-64 -63 -56 0 -61 10 -46 92 29 155 30 150 -35 218 -74 78 -140 110 -226 110
-35 -1 -74 -7 -88 -14z"/>
</g>
</svg>
