<?xml version="1.0" standalone="no"?>
<!DOCTYPE svg PUBLIC "-//W3C//DTD SVG 20010904//EN"
 "http://www.w3.org/TR/2001/REC-SVG-20010904/DTD/svg10.dtd">
<svg version="1.0" xmlns="http://www.w3.org/2000/svg"
 width="352.000000pt" height="288.000000pt" viewBox="0 0 352.000000 288.000000"
 preserveAspectRatio="xMidYMid meet">
<metadata>
Created by potrace 1.13, written by Peter Selinger 2001-2015
</metadata>
<g transform="translate(0.000000,288.000000) scale(0.100000,-0.100000)"
fill="#000000" stroke="none">
<path d="M1638 2470 c-21 -13 -92 -117 -113 -165 -9 -22 -15 -67 -15 -110 0
-81 23 -129 73 -153 28 -14 77 -80 77 -105 0 -7 -4 -17 -9 -23 -12 -12 -54
-123 -81 -214 -12 -41 -26 -86 -30 -100 -5 -14 -11 -61 -15 -105 -3 -44 -13
-130 -22 -192 -13 -92 -14 -115 -3 -128 21 -26 45 -17 116 41 64 53 69 55 82
37 10 -13 12 -42 10 -103 -3 -69 -10 -100 -38 -165 -28 -68 -33 -92 -34 -160
0 -73 3 -86 33 -139 l34 -58 -54 4 c-30 3 -80 11 -111 18 -76 17 -123 7 -165
-35 -26 -26 -34 -41 -31 -62 l3 -28 210 4 c124 2 215 7 223 13 16 14 15 58 -3
101 -8 20 -15 64 -15 97 l0 60 115 0 115 0 0 -27 c-1 -41 -25 -134 -44 -171
-27 -53 -14 -59 137 -66 72 -4 175 -9 228 -12 93 -6 97 -5 113 17 23 33 20 66
-9 94 -20 21 -34 25 -83 25 -33 0 -79 -7 -102 -15 -23 -8 -71 -15 -106 -15
-61 0 -64 1 -64 24 0 26 12 41 65 82 19 14 39 41 45 60 l12 34 72 0 c93 0 146
16 243 75 131 79 152 120 162 315 8 154 23 203 66 214 31 8 28 27 -6 40 -35
12 -94 -15 -113 -52 -8 -16 -20 -63 -25 -103 -16 -117 -40 -250 -51 -284 -6
-18 -31 -47 -61 -69 l-50 -39 -92 6 -92 6 -37 43 c-20 24 -44 59 -52 78 -15
33 -63 251 -73 333 -5 36 -4 37 26 37 36 0 61 -24 173 -167 89 -113 116 -119
92 -19 -7 28 -6 29 27 22 73 -15 94 -13 97 12 6 43 -13 52 -108 52 l-88 0 -23
48 c-36 78 -84 120 -162 143 -77 23 -77 22 -7 89 68 65 110 129 110 166 0 33
1 34 39 34 41 0 229 54 245 70 6 6 18 10 28 10 11 0 30 11 43 25 23 22 25 32
25 115 0 58 -5 104 -15 127 -8 19 -15 44 -15 55 0 20 -44 113 -58 122 -4 2
-66 7 -137 11 l-130 7 -50 -34 c-27 -18 -55 -44 -62 -58 -6 -14 -20 -43 -31
-65 -14 -30 -26 -41 -46 -43 -41 -5 -53 12 -61 90 -15 161 -107 239 -278 238
-29 0 -59 -5 -69 -10z"/>
</g>
</svg>
