<?xml version="1.0" standalone="no"?>
<!DOCTYPE svg PUBLIC "-//W3C//DTD SVG 20010904//EN"
 "http://www.w3.org/TR/2001/REC-SVG-20010904/DTD/svg10.dtd">
<svg version="1.0" xmlns="http://www.w3.org/2000/svg"
 width="352.000000pt" height="288.000000pt" viewBox="0 0 352.000000 288.000000"
 preserveAspectRatio="xMidYMid meet">
<metadata>
Created by potrace 1.13, written by Peter Selinger 2001-2015
</metadata>
<g transform="translate(0.000000,288.000000) scale(0.100000,-0.100000)"
fill="#000000" stroke="none">
<path d="M1616 2446 c-55 -58 -105 -174 -113 -260 -6 -74 -6 -76 32 -134 23
-34 54 -67 77 -80 47 -28 48 -45 3 -113 -29 -45 -35 -62 -35 -109 0 -31 -7
-81 -15 -113 -8 -31 -22 -83 -30 -114 -8 -31 -22 -110 -30 -177 -9 -66 -19
-124 -21 -128 -3 -5 0 -15 6 -23 14 -17 105 -21 115 -6 7 13 110 61 129 61 20
0 20 -3 -4 -50 -11 -22 -27 -68 -35 -102 -8 -35 -24 -87 -35 -116 -28 -73 -28
-207 0 -262 11 -22 20 -55 20 -75 0 -33 -2 -35 -35 -35 -20 0 -49 10 -70 24
-58 40 -105 43 -166 10 -56 -31 -83 -62 -73 -87 9 -25 32 -28 77 -10 28 11 90
18 187 23 80 3 153 10 163 14 24 11 32 53 18 91 -17 47 -14 99 7 118 14 13 39
17 105 17 47 0 89 -4 92 -10 3 -5 9 -32 12 -60 5 -46 3 -54 -21 -79 -31 -33
-45 -91 -24 -108 9 -8 83 -9 246 -6 250 6 255 8 268 60 17 65 -79 76 -219 25
-50 -18 -108 -32 -133 -32 l-44 0 0 60 c0 55 2 60 29 74 33 18 81 71 81 92 0
11 18 14 86 14 73 0 95 4 154 30 38 17 76 30 85 30 8 0 33 9 53 19 31 16 43
31 65 86 23 56 29 90 36 205 5 75 14 147 20 158 6 11 27 26 46 32 65 22 86 90
28 90 -44 0 -116 -59 -148 -119 -27 -54 -63 -176 -70 -241 -6 -48 -17 -81 -44
-127 -31 -52 -41 -62 -71 -67 -96 -16 -167 -3 -231 43 -35 24 -37 29 -43 96
-6 63 -27 136 -82 278 -23 57 -13 80 35 85 38 4 59 -11 78 -57 19 -45 83 -131
123 -165 36 -30 60 -22 60 20 0 21 5 23 51 26 40 2 55 8 66 25 13 20 12 23 -9
37 -14 9 -59 19 -102 22 -76 7 -77 7 -96 43 -28 56 -123 141 -157 141 -28 0
-28 0 15 36 63 53 82 98 82 189 0 69 2 75 15 61 9 -8 31 -18 50 -22 27 -5 40
-1 68 20 19 14 39 26 46 26 25 0 110 50 135 80 26 31 26 34 26 181 0 194 -4
204 -102 252 -87 43 -136 47 -188 16 -19 -12 -37 -24 -40 -28 -3 -4 -17 -14
-32 -24 -28 -18 -65 -81 -87 -149 -16 -47 -27 -55 -52 -32 -15 14 -19 31 -19
83 0 121 -67 214 -174 246 -27 8 -85 15 -129 15 -77 0 -81 -1 -111 -34z"/>
</g>
</svg>
