<?xml version="1.0" standalone="no"?>
<!DOCTYPE svg PUBLIC "-//W3C//DTD SVG 20010904//EN"
 "http://www.w3.org/TR/2001/REC-SVG-20010904/DTD/svg10.dtd">
<svg version="1.0" xmlns="http://www.w3.org/2000/svg"
 width="352.000000pt" height="288.000000pt" viewBox="0 0 352.000000 288.000000"
 preserveAspectRatio="xMidYMid meet">
<metadata>
Created by potrace 1.13, written by Peter Selinger 2001-2015
</metadata>
<g transform="translate(0.000000,288.000000) scale(0.100000,-0.100000)"
fill="#000000" stroke="none">
<path d="M1743 2472 c-7 -5 -38 -57 -68 -117 -75 -149 -73 -206 9 -325 20 -29
36 -56 36 -61 0 -5 -15 -55 -34 -112 -19 -56 -42 -129 -52 -162 -16 -50 -30
-71 -90 -130 -89 -87 -108 -123 -101 -184 7 -62 23 -101 41 -101 33 0 129 44
198 90 60 41 81 50 116 50 43 0 44 -1 37 -27 -9 -39 -80 -187 -123 -258 -37
-61 -57 -143 -68 -285 -5 -61 -3 -68 26 -112 18 -27 36 -48 41 -48 5 0 9 -13
9 -30 l0 -30 -122 0 c-137 0 -263 -25 -263 -51 0 -12 33 -14 200 -14 206 0
243 4 269 31 14 13 14 20 -4 67 -22 58 -25 99 -10 128 10 17 22 19 110 19
l100 0 0 -28 c0 -15 -9 -53 -20 -85 -23 -64 -26 -120 -7 -134 40 -32 325 -47
409 -21 45 13 54 27 38 57 -22 42 -58 51 -165 41 -53 -6 -114 -14 -134 -20
-20 -5 -52 -10 -71 -10 l-34 0 36 38 c20 20 52 71 71 114 19 42 43 81 54 86
10 5 92 12 183 14 98 3 178 10 198 18 54 20 71 74 92 287 16 158 37 221 92
279 23 25 26 33 16 42 -10 8 -24 6 -55 -8 -37 -16 -43 -25 -72 -98 -41 -107
-50 -152 -51 -247 -1 -44 -6 -96 -13 -115 -11 -33 -16 -36 -97 -57 -47 -13
-101 -28 -121 -34 -20 -6 -73 -10 -117 -8 -75 4 -84 7 -112 34 -29 29 -30 35
-40 160 -9 103 -16 139 -35 178 -32 62 -35 137 -6 137 32 0 140 -89 208 -170
35 -41 72 -79 83 -84 28 -13 52 9 44 41 -7 24 -6 25 33 19 40 -7 92 6 104 26
4 6 3 23 -3 38 -12 35 -73 60 -149 60 -65 0 -84 15 -94 75 -10 52 -16 59 -67
74 -80 24 -88 31 -88 71 0 21 8 48 18 61 10 13 38 59 61 102 23 42 47 77 53
77 10 0 122 -50 170 -76 37 -20 112 -18 157 5 29 15 43 32 60 70 18 43 21 69
21 189 0 136 -1 139 -27 174 -39 51 -123 90 -205 96 -63 4 -70 3 -118 -28 -32
-20 -58 -47 -71 -72 -23 -46 -37 -53 -84 -44 -34 7 -35 8 -35 57 0 84 -17 111
-142 222 l-76 67 -68 0 c-38 0 -75 -4 -81 -8z"/>
</g>
</svg>
