<?xml version="1.0" standalone="no"?>
<!DOCTYPE svg PUBLIC "-//W3C//DTD SVG 20010904//EN"
 "http://www.w3.org/TR/2001/REC-SVG-20010904/DTD/svg10.dtd">
<svg version="1.0" xmlns="http://www.w3.org/2000/svg"
 width="352.000000pt" height="288.000000pt" viewBox="0 0 352.000000 288.000000"
 preserveAspectRatio="xMidYMid meet">
<metadata>
Created by potrace 1.13, written by Peter Selinger 2001-2015
</metadata>
<g transform="translate(0.000000,288.000000) scale(0.100000,-0.100000)"
fill="#000000" stroke="none">
<path d="M1778 2499 c-32 -3 -84 -19 -115 -35 -72 -36 -82 -60 -82 -202 -1
-117 6 -138 83 -236 65 -84 64 -112 -10 -187 -31 -32 -67 -74 -80 -96 -49 -81
-84 -153 -84 -174 0 -12 -7 -42 -15 -68 -61 -189 -75 -245 -65 -260 12 -21
161 33 211 76 79 68 106 83 149 83 39 0 40 -1 40 -35 0 -19 -16 -76 -36 -127
-19 -51 -39 -109 -44 -128 -5 -20 -27 -76 -50 -127 -36 -82 -40 -99 -40 -172
0 -74 2 -84 25 -106 13 -14 29 -25 35 -25 5 0 10 -6 10 -14 0 -19 -42 -26
-200 -35 -122 -7 -179 -19 -181 -39 0 -4 -2 -15 -4 -24 -3 -17 13 -18 225 -18
265 0 256 -3 246 90 -3 33 -9 87 -12 120 l-6 60 68 0 c38 0 75 -4 82 -9 11 -6
13 -36 10 -127 -4 -136 -9 -127 108 -159 48 -14 90 -16 190 -13 136 4 182 18
204 57 13 26 6 41 -38 74 -44 34 -68 33 -216 -13 -54 -16 -116 -30 -138 -30
-39 0 -40 1 -33 27 3 15 14 37 23 49 89 112 117 144 131 149 9 4 59 11 111 15
128 12 200 40 267 106 43 44 55 64 74 125 12 41 37 105 56 144 18 38 33 81 33
95 0 56 21 101 55 121 36 22 38 44 3 55 -67 21 -149 -74 -162 -186 -7 -68 -31
-138 -74 -212 -17 -32 -32 -61 -32 -66 0 -11 -50 -57 -77 -71 -32 -17 -268
-15 -285 2 -7 8 -19 49 -26 93 -26 159 -36 200 -59 246 -12 26 -23 59 -23 73
0 21 5 25 28 25 15 -1 38 -7 52 -15 14 -8 38 -14 53 -15 34 0 62 -28 113 -116
43 -73 73 -95 99 -74 12 10 15 23 10 47 l-6 33 55 0 c66 0 86 7 86 29 0 32
-70 61 -146 61 -91 0 -123 19 -147 88 -20 60 -57 87 -141 104 -63 14 -62 24 9
58 61 29 112 85 135 148 11 29 20 57 20 62 0 23 30 7 49 -25 l20 -35 86 0 c97
0 133 12 188 61 50 45 117 165 117 212 0 41 -15 85 -36 107 -8 8 -38 47 -68
85 -76 100 -102 108 -251 81 -89 -16 -120 -36 -152 -102 -26 -53 -43 -63 -72
-45 -12 8 -14 30 -12 105 l3 95 -43 27 c-23 14 -58 33 -78 41 -19 8 -60 31
-90 52 -76 50 -69 48 -133 40z"/>
</g>
</svg>
