<?xml version="1.0" standalone="no"?>
<!DOCTYPE svg PUBLIC "-//W3C//DTD SVG 20010904//EN"
 "http://www.w3.org/TR/2001/REC-SVG-20010904/DTD/svg10.dtd">
<svg version="1.0" xmlns="http://www.w3.org/2000/svg"
 width="352.000000pt" height="288.000000pt" viewBox="0 0 352.000000 288.000000"
 preserveAspectRatio="xMidYMid meet">
<metadata>
Created by potrace 1.13, written by Peter Selinger 2001-2015
</metadata>
<g transform="translate(0.000000,288.000000) scale(0.100000,-0.100000)"
fill="#000000" stroke="none">
<path d="M1655 2448 c-34 -17 -65 -64 -90 -137 -21 -58 -25 -90 -25 -179 0
-121 9 -144 66 -168 19 -8 34 -20 34 -27 0 -7 -13 -49 -29 -93 -15 -45 -31
-108 -35 -140 -10 -85 -35 -210 -56 -280 -25 -82 -30 -192 -10 -204 30 -19 86
-11 131 20 l44 29 7 -22 c12 -41 8 -76 -11 -109 -20 -35 -36 -105 -47 -205 -8
-81 11 -157 53 -207 23 -28 33 -50 33 -74 l0 -35 -174 6 c-190 8 -206 4 -206
-47 0 -42 22 -50 100 -37 38 6 130 11 205 11 l135 0 20 33 c13 20 18 40 14 52
-4 11 -9 46 -11 77 -4 54 -3 58 21 69 18 9 43 10 84 3 l57 -9 3 -75 c1 -41 4
-84 7 -96 7 -32 48 -44 148 -44 51 0 124 -7 162 -15 39 -8 80 -15 92 -15 28 0
57 42 48 68 -11 38 -56 46 -216 39 -136 -6 -149 -5 -149 10 0 10 11 26 25 38
26 20 55 103 55 158 l0 27 79 0 c150 0 275 45 353 127 39 41 48 74 48 169 0
61 6 99 19 132 10 26 24 61 31 79 8 22 25 39 55 53 24 12 49 28 55 36 18 21
-5 44 -44 44 -90 0 -155 -103 -208 -330 -11 -47 -22 -103 -25 -126 -4 -35 -9
-42 -36 -52 -48 -17 -155 -39 -222 -47 -51 -5 -63 -4 -77 12 -25 27 -74 184
-94 301 -20 116 -18 122 43 122 25 0 36 -7 53 -35 12 -19 25 -35 30 -35 5 0
19 -24 33 -52 24 -54 72 -93 94 -80 7 4 16 20 22 35 9 23 16 27 51 27 31 0 43
5 56 24 21 33 15 68 -16 83 -14 7 -55 13 -91 13 l-66 0 -32 50 c-48 74 -68 86
-160 94 -45 4 -83 11 -86 16 -2 4 8 13 25 20 51 21 143 120 163 175 9 28 17
58 17 68 0 14 9 17 58 17 35 0 74 8 101 20 24 11 54 20 66 20 13 0 43 9 68 19
63 27 77 72 77 243 0 109 -3 135 -20 168 -31 61 -55 71 -173 77 -96 5 -105 4
-152 -20 -28 -15 -60 -35 -72 -45 -32 -28 -63 -84 -63 -114 0 -25 -3 -28 -35
-28 l-35 0 0 55 c0 74 -54 186 -102 211 -77 40 -225 57 -273 32z"/>
</g>
</svg>
