<?xml version="1.0" standalone="no"?>
<!DOCTYPE svg PUBLIC "-//W3C//DTD SVG 20010904//EN"
 "http://www.w3.org/TR/2001/REC-SVG-20010904/DTD/svg10.dtd">
<svg version="1.0" xmlns="http://www.w3.org/2000/svg"
 width="352.000000pt" height="288.000000pt" viewBox="0 0 352.000000 288.000000"
 preserveAspectRatio="xMidYMid meet">
<metadata>
Created by potrace 1.13, written by Peter Selinger 2001-2015
</metadata>
<g transform="translate(0.000000,288.000000) scale(0.100000,-0.100000)"
fill="#000000" stroke="none">
<path d="M1656 2467 c-62 -34 -84 -52 -105 -88 -25 -42 -26 -51 -26 -184 1
-166 8 -189 77 -225 27 -14 48 -32 48 -40 0 -13 -19 -69 -67 -195 -8 -22 -24
-80 -34 -129 -11 -49 -24 -97 -29 -106 -12 -22 -30 -175 -30 -253 0 -43 4 -59
16 -64 8 -3 53 13 99 36 46 22 88 41 93 41 25 0 30 -75 6 -101 -34 -37 -43
-91 -43 -244 0 -123 3 -160 19 -205 29 -81 27 -100 -10 -100 -18 0 -33 6 -36
15 -8 19 -65 35 -126 35 -35 0 -54 -6 -76 -25 -34 -28 -59 -82 -46 -95 5 -5
51 0 108 12 90 19 109 20 190 10 78 -10 93 -9 106 4 13 13 12 22 -8 79 -25 72
-26 89 -11 134 l11 31 114 0 114 0 0 -64 c0 -43 -7 -79 -21 -111 -34 -76 -31
-77 233 -86 123 -4 227 -4 232 1 10 10 -10 75 -31 95 -20 20 -78 19 -171 -4
-42 -11 -103 -21 -134 -24 -51 -3 -58 -1 -58 14 0 10 11 29 25 43 14 14 25 36
25 49 0 13 5 49 11 80 10 49 15 57 42 66 16 6 92 11 167 11 123 0 140 2 163
20 14 11 29 31 33 43 4 12 21 45 39 72 41 62 70 156 80 255 9 91 33 143 75
160 27 11 29 15 17 27 -38 39 -117 -71 -173 -240 -51 -155 -88 -216 -149 -241
-41 -17 -144 -28 -193 -20 -36 6 -42 11 -55 48 -9 22 -18 66 -22 96 -4 30 -27
105 -51 165 -24 61 -44 123 -44 138 0 25 3 27 45 27 36 0 47 -5 62 -25 10 -14
47 -60 81 -103 35 -42 70 -90 78 -105 12 -23 18 -26 30 -16 8 6 14 27 14 45 0
26 4 34 18 34 10 0 23 -5 28 -10 18 -18 71 -29 83 -17 17 17 13 93 -5 111 -11
11 -35 16 -82 16 l-66 0 -71 73 c-52 54 -84 79 -120 92 -28 10 -53 21 -58 25
-11 9 16 69 53 115 47 58 61 92 63 142 l2 44 101 -7 c111 -7 137 0 185 53 59
63 83 148 77 280 -3 88 -7 105 -34 153 -74 130 -156 131 -330 4 -77 -56 -123
-111 -147 -174 -6 -17 -17 -30 -24 -30 -10 0 -13 25 -13 95 0 108 -14 147 -72
202 -105 99 -167 108 -292 40z"/>
</g>
</svg>
