<?xml version="1.0" standalone="no"?>
<!DOCTYPE svg PUBLIC "-//W3C//DTD SVG 20010904//EN"
 "http://www.w3.org/TR/2001/REC-SVG-20010904/DTD/svg10.dtd">
<svg version="1.0" xmlns="http://www.w3.org/2000/svg"
 width="352.000000pt" height="288.000000pt" viewBox="0 0 352.000000 288.000000"
 preserveAspectRatio="xMidYMid meet">
<metadata>
Created by potrace 1.13, written by Peter Selinger 2001-2015
</metadata>
<g transform="translate(0.000000,288.000000) scale(0.100000,-0.100000)"
fill="#000000" stroke="none">
<path d="M1833 2505 c-71 -22 -154 -85 -198 -149 l-40 -59 0 -131 0 -131 43
-68 c41 -65 45 -82 19 -82 -14 0 -77 -94 -77 -115 0 -9 -18 -54 -41 -101 -49
-100 -79 -178 -79 -201 0 -10 -12 -47 -26 -84 -40 -98 -30 -101 111 -39 51 23
121 35 195 35 65 0 70 -1 56 -16 -9 -8 -16 -24 -16 -35 0 -11 -14 -48 -32 -82
-51 -101 -88 -216 -88 -275 0 -29 -5 -96 -12 -148 l-11 -94 30 -43 c51 -72 48
-96 -8 -66 -45 24 -168 49 -244 49 -89 0 -149 -24 -143 -58 3 -14 20 -18 103
-23 55 -4 129 -12 165 -18 99 -17 215 -14 230 5 8 9 15 55 18 120 l5 104 92 0
c106 0 105 1 105 -88 0 -39 -6 -66 -19 -86 -31 -47 -21 -53 107 -60 64 -4 163
-12 219 -18 115 -12 133 -6 133 42 0 48 -19 55 -189 60 l-156 5 -3 78 c-4 107
0 111 108 104 47 -3 129 -11 184 -18 89 -11 102 -10 131 5 41 22 73 88 84 176
8 60 53 203 105 340 21 54 23 55 86 77 78 26 85 47 18 51 -68 4 -105 -18 -133
-81 -13 -29 -27 -68 -30 -87 -4 -20 -19 -58 -35 -85 -16 -28 -46 -86 -68 -130
-22 -44 -53 -95 -70 -114 l-31 -33 -141 7 -141 7 -15 30 c-24 47 -44 172 -44
279 l0 99 39 0 c44 0 51 -6 91 -87 22 -44 40 -65 70 -82 33 -18 44 -20 55 -11
8 7 15 19 15 26 0 9 12 14 33 14 17 0 47 9 64 20 27 16 31 23 24 42 -12 33
-62 57 -128 60 -55 3 -58 4 -79 42 -24 43 -102 93 -188 122 l-49 17 39 33 c21
18 59 42 84 54 25 12 59 38 77 59 31 35 35 36 120 42 115 9 189 31 229 70 77
75 132 244 120 366 -10 92 -27 120 -94 150 -47 22 -74 27 -177 31 -179 7 -201
-10 -231 -178 -7 -41 -13 -76 -14 -77 0 -2 -36 -3 -80 -3 l-80 0 6 28 c3 15
22 65 40 112 l34 85 -35 51 c-19 28 -35 56 -35 62 0 17 -60 81 -91 98 -33 17
-60 17 -116 -1z"/>
</g>
</svg>
