<?xml version="1.0" standalone="no"?>
<!DOCTYPE svg PUBLIC "-//W3C//DTD SVG 20010904//EN"
 "http://www.w3.org/TR/2001/REC-SVG-20010904/DTD/svg10.dtd">
<svg version="1.0" xmlns="http://www.w3.org/2000/svg"
 width="337.000000pt" height="413.000000pt" viewBox="0 0 337.000000 413.000000"
 preserveAspectRatio="xMidYMid meet">
<metadata>
Created by potrace 1.13, written by Peter Selinger 2001-2015
</metadata>
<g transform="translate(0.000000,413.000000) scale(0.100000,-0.100000)"
fill="#000000" stroke="none">
<path d="M1523 4022 c-100 -95 -136 -120 -278 -190 -38 -19 -91 -50 -116 -68
-26 -19 -52 -34 -58 -34 -6 0 -11 -6 -11 -14 0 -7 -15 -20 -32 -27 -18 -7 -38
-18 -45 -24 -22 -19 -38 -30 -83 -60 -25 -16 -56 -40 -70 -52 -14 -13 -30 -23
-37 -23 -7 0 -13 -4 -13 -8 0 -5 -16 -17 -35 -28 -19 -10 -35 -22 -35 -26 0
-5 -4 -8 -10 -8 -5 0 -38 -19 -72 -42 -55 -38 -86 -55 -189 -111 -26 -13 -139
-90 -173 -116 -25 -20 -137 -133 -151 -153 -12 -17 -23 -35 -72 -113 -33 -54
-37 -69 -41 -141 l-4 -80 71 -146 c39 -80 82 -162 96 -182 14 -20 25 -39 25
-43 0 -3 22 -33 49 -67 27 -34 55 -75 63 -92 7 -16 22 -42 34 -59 13 -16 41
-66 64 -109 38 -74 126 -215 141 -226 3 -3 18 -25 33 -49 28 -44 267 -291 282
-291 5 0 27 -16 49 -35 55 -49 101 -68 141 -62 32 5 45 -5 24 -18 -6 -4 -24
-34 -42 -68 -22 -45 -31 -77 -32 -114 0 -60 15 -78 74 -88 19 -4 46 -11 60
-16 14 -5 69 -11 122 -12 86 -2 97 -4 102 -21 4 -16 11 -18 45 -13 l41 5 21
-71 c55 -188 151 -360 264 -472 96 -96 165 -144 274 -190 80 -33 245 -75 299
-75 52 0 132 -19 132 -31 0 -5 16 -9 35 -9 24 0 35 -5 35 -15 0 -10 11 -15 35
-15 19 0 35 -4 35 -9 0 -4 21 -14 48 -21 26 -8 51 -19 55 -27 4 -7 21 -13 37
-13 17 0 30 -4 30 -10 0 -5 13 -10 29 -10 16 0 31 -6 33 -12 3 -9 27 -13 74
-13 62 0 69 2 72 21 3 24 -79 94 -110 94 -10 0 -18 4 -18 9 0 5 -12 14 -27 20
-16 6 -35 15 -43 20 -16 9 -55 26 -80 34 -11 4 -11 6 3 6 53 3 214 101 300
184 66 64 110 148 129 250 7 37 16 67 20 67 5 0 8 18 8 40 0 22 -4 40 -9 40
-4 0 -12 32 -15 71 -9 85 -35 169 -109 349 -64 158 -68 172 -69 276 0 63 5 90
25 135 48 108 139 179 232 179 78 0 107 -60 73 -149 -17 -47 -27 -116 -21
-159 5 -35 9 -42 28 -42 21 0 24 6 27 57 3 32 15 85 27 118 46 121 8 227 -85
241 -65 9 -137 -1 -197 -29 -67 -31 -98 -60 -134 -122 -57 -98 -68 -141 -67
-260 0 -109 1 -112 67 -307 66 -194 67 -200 67 -301 0 -163 -34 -253 -131
-349 -72 -72 -140 -103 -261 -119 -81 -10 -104 -10 -178 5 -250 51 -420 215
-524 504 -14 40 -26 86 -26 102 l0 29 103 -1 c94 -1 108 2 180 32 85 35 112
63 104 107 -6 35 -34 151 -43 180 -6 21 -3 23 30 23 31 0 105 35 126 61 3 3
44 31 91 63 104 68 194 148 234 207 17 24 40 55 53 69 12 14 22 29 22 35 0 5
11 20 23 32 33 30 107 141 107 158 0 8 4 15 8 15 5 0 14 10 21 23 11 21 21 38
96 161 45 73 96 148 117 170 10 11 18 26 18 33 0 7 4 13 9 13 5 0 13 9 16 20
6 18 60 108 82 135 20 25 43 89 43 118 0 18 -11 55 -24 83 -13 27 -31 68 -39
90 -54 143 -278 403 -387 451 -187 82 -429 227 -511 308 -26 25 -54 45 -62 45
-8 0 -37 21 -63 46 -48 45 -99 83 -289 214 -55 37 -106 74 -113 82 -8 7 -38
39 -68 71 -76 81 -85 80 -211 -41z"/>
</g>
</svg>
