<?xml version="1.0" standalone="no"?>
<!DOCTYPE svg PUBLIC "-//W3C//DTD SVG 20010904//EN"
 "http://www.w3.org/TR/2001/REC-SVG-20010904/DTD/svg10.dtd">
<svg version="1.0" xmlns="http://www.w3.org/2000/svg"
 width="370.000000pt" height="465.000000pt" viewBox="0 0 370.000000 465.000000"
 preserveAspectRatio="xMidYMid meet">
<metadata>
Created by potrace 1.13, written by Peter Selinger 2001-2015
</metadata>
<g transform="translate(0.000000,465.000000) scale(0.100000,-0.100000)"
fill="#000000" stroke="none">
<path d="M1846 4600 c-15 -22 -50 -71 -79 -108 -29 -37 -84 -107 -122 -157
-39 -49 -95 -117 -125 -150 -59 -66 -118 -137 -162 -195 -14 -19 -37 -47 -50
-61 -12 -15 -34 -41 -48 -59 -14 -18 -45 -56 -70 -83 -25 -27 -52 -58 -60 -69
-21 -28 -134 -149 -205 -222 -48 -49 -163 -148 -220 -188 -5 -4 -35 -28 -65
-52 -30 -25 -84 -67 -120 -93 -210 -153 -425 -360 -477 -460 -46 -85 -46 -156
-2 -225 17 -26 35 -48 40 -48 5 0 19 -12 32 -26 21 -24 123 -89 247 -157 30
-17 66 -38 80 -47 14 -10 99 -62 190 -117 238 -143 314 -192 410 -262 300
-217 409 -278 485 -269 32 4 35 2 35 -22 0 -14 -5 -43 -10 -65 -11 -49 -2
-115 18 -122 8 -3 27 1 42 10 27 16 28 16 34 -8 4 -14 11 -25 16 -25 6 0 10
-9 10 -19 0 -10 16 -33 35 -50 19 -17 35 -35 35 -41 0 -6 18 -29 39 -50 34
-34 41 -49 52 -112 7 -43 12 -152 12 -268 0 -257 -13 -312 -111 -496 -16 -29
-91 -96 -138 -121 -12 -7 -46 -15 -75 -19 -52 -5 -56 -4 -109 36 -93 70 -134
68 -128 -5 4 -53 -9 -57 -71 -26 -34 18 -56 39 -113 110 -21 25 -73 29 -86 6
-7 -14 -11 -13 -27 5 -38 42 -78 15 -56 -38 46 -110 269 -220 468 -230 198 -9
354 59 461 203 63 85 104 154 117 195 4 13 14 30 21 37 20 20 41 96 28 100 -7
2 -7 31 2 91 7 48 15 125 18 171 3 46 9 87 14 90 5 3 13 30 17 58 6 48 5 53
-13 53 -16 0 -19 7 -20 48 0 26 4 80 10 119 9 59 14 73 29 73 20 0 57 42 65
75 l6 22 37 -20 c23 -12 45 -18 56 -14 16 7 17 18 13 125 l-5 118 47 22 c26
12 70 40 97 62 28 22 55 40 61 40 6 0 12 3 14 8 6 14 286 188 515 321 71 40
162 95 203 121 41 27 113 68 160 92 47 23 87 46 88 51 2 4 8 7 14 7 32 0 195
157 222 214 25 52 31 136 16 193 -8 27 -16 50 -19 53 -4 3 -19 22 -34 43 -31
41 -35 45 -158 162 -169 160 -326 303 -394 361 -106 88 -405 391 -475 480 -79
102 -79 101 -120 159 -19 27 -41 56 -50 65 -8 9 -35 40 -60 70 -25 30 -75 86
-111 125 -81 86 -113 123 -213 248 -26 31 -54 70 -64 85 -80 126 -103 137
-146 72z m99 -1672 c34 -15 32 -25 -7 -31 -40 -6 -55 6 -37 27 17 19 13 18 44
4z m-228 -70 c-3 -8 -6 -5 -6 6 -1 11 2 17 5 13 3 -3 4 -12 1 -19z m232 -28
c-1 -17 -3 -19 -6 -7 -5 20 -39 23 -46 5 -3 -7 -6 -4 -6 7 -1 16 5 20 29 20
26 0 30 -4 29 -25z m178 -12 c-3 -8 -6 -5 -6 6 -1 11 2 17 5 13 3 -3 4 -12 1
-19z m-924 -3 c-3 -9 -8 -14 -10 -11 -3 3 -2 9 2 15 9 16 15 13 8 -4z m-33
-55 c0 -5 -4 -10 -10 -10 -5 0 -10 5 -10 10 0 6 5 10 10 10 6 0 10 -4 10 -10z
m680 -215 c0 -8 -4 -15 -10 -15 -5 0 -7 7 -4 15 4 8 8 15 10 15 2 0 4 -7 4
-15z m30 -109 c0 -3 -7 -6 -15 -6 -9 0 -15 9 -15 21 0 18 2 19 15 5 8 -8 15
-17 15 -20z m-530 -36 c-19 -13 -30 -13 -30 0 0 6 10 10 23 10 18 0 19 -2 7
-10z m670 -10 c0 -5 -7 -10 -15 -10 -8 0 -15 5 -15 10 0 6 7 10 15 10 8 0 15
-4 15 -10z m-143 -22 c-3 -8 -6 -5 -6 6 -1 11 2 17 5 13 3 -3 4 -12 1 -19z
m33 -142 c0 -10 -7 -12 -22 -8 -21 5 -21 6 -2 13 10 4 20 8 22 8 1 1 2 -5 2
-13z m-73 -38 c-3 -8 -6 -5 -6 6 -1 11 2 17 5 13 3 -3 4 -12 1 -19z"/>
</g>
</svg>
