<?xml version="1.0" standalone="no"?>
<!DOCTYPE svg PUBLIC "-//W3C//DTD SVG 20010904//EN"
 "http://www.w3.org/TR/2001/REC-SVG-20010904/DTD/svg10.dtd">
<svg version="1.0" xmlns="http://www.w3.org/2000/svg"
 width="337.000000pt" height="413.000000pt" viewBox="0 0 337.000000 413.000000"
 preserveAspectRatio="xMidYMid meet">
<metadata>
Created by potrace 1.13, written by Peter Selinger 2001-2015
</metadata>
<g transform="translate(0.000000,413.000000) scale(0.100000,-0.100000)"
fill="#000000" stroke="none">
<path d="M1600 3932 c-20 -20 -51 -51 -70 -68 -19 -17 -53 -55 -75 -84 -35
-46 -119 -119 -235 -205 -104 -76 -263 -165 -297 -165 -10 0 -40 -14 -68 -29
-72 -42 -190 -101 -223 -111 -63 -20 -136 -50 -151 -63 -9 -8 -45 -27 -81 -43
-36 -16 -77 -43 -92 -60 -44 -49 -147 -212 -165 -258 -8 -22 -26 -63 -39 -90
-13 -28 -24 -65 -24 -83 0 -29 23 -93 43 -118 22 -27 76 -117 82 -135 3 -11
11 -20 16 -20 5 0 9 -6 9 -13 0 -7 8 -22 18 -33 21 -22 72 -97 117 -170 75
-123 85 -140 96 -161 7 -13 16 -23 21 -23 4 0 8 -7 8 -15 0 -17 74 -128 107
-158 12 -12 23 -27 23 -32 0 -6 10 -21 23 -35 12 -14 35 -45 52 -69 40 -59
130 -139 234 -207 47 -32 88 -60 91 -63 21 -26 95 -61 126 -61 33 0 36 -2 30
-22 -9 -30 -37 -146 -43 -181 -8 -44 19 -72 104 -107 72 -30 86 -33 181 -32
l102 1 0 -29 c0 -16 -12 -62 -26 -102 -104 -289 -274 -453 -524 -504 -74 -15
-97 -15 -178 -5 -121 16 -189 47 -261 119 -98 97 -131 186 -131 351 1 102 3
113 54 264 34 97 50 157 42 157 -14 0 -126 -111 -126 -125 0 -6 -15 -33 -33
-60 -40 -60 -64 -136 -73 -227 -4 -38 -11 -68 -15 -68 -5 0 -9 -18 -9 -40 0
-22 3 -40 8 -40 4 0 13 -30 20 -68 28 -146 104 -251 252 -347 123 -79 174 -91
426 -101 150 -6 165 -5 262 20 117 30 199 62 275 109 195 120 346 333 426 604
l21 71 41 -5 c34 -5 41 -3 45 13 5 17 16 19 102 21 53 1 108 7 122 12 14 5 41
12 60 16 59 10 74 28 74 88 -1 37 -10 69 -32 114 -18 34 -36 64 -42 68 -21 13
-8 23 24 18 40 -6 86 13 141 62 22 19 44 35 49 35 15 0 254 247 282 291 15 24
30 46 33 49 15 11 103 152 141 226 23 43 51 93 64 109 12 17 27 43 34 59 8 17
36 58 63 92 27 34 49 64 49 67 0 4 11 23 25 43 14 20 57 102 96 182 l71 146
-4 80 c-4 84 -4 83 -91 220 -22 36 -32 47 -89 108 -48 51 -65 63 -120 79 -99
29 -158 49 -218 74 -30 13 -71 26 -90 30 -19 4 -59 18 -88 31 -29 13 -69 26
-90 30 -40 8 -256 108 -284 131 -9 8 -30 22 -46 31 -17 10 -48 27 -70 39 -21
12 -78 67 -126 122 -69 80 -115 121 -220 196 -157 112 -179 118 -236 57z"/>
</g>
</svg>
