<?xml version="1.0" standalone="no"?>
<!DOCTYPE svg PUBLIC "-//W3C//DTD SVG 20010904//EN"
 "http://www.w3.org/TR/2001/REC-SVG-20010904/DTD/svg10.dtd">
<svg version="1.0" xmlns="http://www.w3.org/2000/svg"
 width="443.000000pt" height="465.000000pt" viewBox="0 0 443.000000 465.000000"
 preserveAspectRatio="xMidYMid meet">
<metadata>
Created by potrace 1.13, written by Peter Selinger 2001-2015
</metadata>
<g transform="translate(0.000000,465.000000) scale(0.100000,-0.100000)"
fill="#000000" stroke="none">
<path d="M2152 4633 c-7 -3 -36 -28 -65 -56 -29 -29 -64 -59 -78 -68 -14 -10
-68 -68 -120 -129 -311 -371 -577 -619 -782 -730 -21 -12 -55 -36 -75 -54 -20
-18 -52 -41 -71 -51 -19 -9 -39 -21 -45 -26 -27 -22 -146 -94 -201 -121 -158
-77 -207 -105 -307 -174 -132 -92 -220 -178 -317 -309 -41 -55 -79 -103 -85
-107 -17 -11 15 -88 65 -159 26 -37 54 -80 63 -95 48 -86 177 -256 246 -324
60 -59 310 -293 379 -356 30 -27 73 -67 96 -89 104 -101 366 -275 415 -275 5
0 19 -9 31 -21 18 -18 25 -19 67 -9 26 6 59 14 74 17 31 6 164 129 202 187 24
36 26 37 26 13 0 -80 -61 -190 -172 -312 -15 -16 -37 -49 -49 -72 -22 -43 -22
-43 -3 -78 22 -41 46 -50 111 -40 64 9 93 32 128 100 l30 57 7 -49 c3 -26 7
-71 7 -99 2 -82 50 -221 86 -246 16 -12 65 -9 70 5 30 85 50 129 53 115 2 -9
-3 -29 -11 -45 -8 -15 -18 -50 -21 -76 -14 -92 13 -135 74 -122 26 6 32 14 50
76 17 56 19 76 11 107 -13 45 -14 122 -2 141 7 11 12 5 19 -22 11 -41 -4 -265
-19 -282 -5 -5 -9 -24 -9 -42 0 -18 -4 -41 -10 -51 -25 -46 -50 -114 -50 -138
0 -19 -18 -45 -64 -93 -36 -36 -80 -83 -99 -104 -23 -24 -44 -37 -61 -37 -15
0 -38 -13 -58 -33 -38 -37 -100 -66 -208 -96 -80 -22 -94 -21 -174 14 -46 20
-86 13 -86 -15 0 -16 -4 -18 -22 -11 -13 4 -44 11 -70 15 -46 7 -48 6 -48 -17
0 -25 -1 -25 -85 -24 -47 1 -85 5 -85 10 0 4 -7 7 -15 7 -8 0 -35 16 -61 35
-25 19 -58 37 -72 40 -15 3 -47 12 -72 20 -68 23 -90 20 -90 -10 0 -14 -3 -25
-6 -25 -8 0 -43 43 -44 53 -1 22 -55 86 -78 92 -41 10 -82 44 -113 93 -40 63
-39 122 2 203 41 81 89 128 178 174 98 49 143 96 139 144 -3 31 -7 36 -30 39
-25 3 -87 -30 -96 -50 -2 -5 -18 -8 -35 -8 -57 -1 -155 -27 -200 -53 -53 -31
-81 -67 -133 -167 -38 -74 -39 -77 -39 -185 0 -104 2 -113 30 -164 46 -83 110
-148 174 -177 31 -15 63 -30 71 -35 120 -70 152 -86 190 -99 25 -9 54 -21 65
-27 34 -18 119 -41 152 -41 17 -1 61 -10 98 -21 37 -12 89 -21 115 -21 45 0
47 -1 42 -25 -4 -25 -4 -25 72 -25 43 0 87 5 99 12 33 17 211 38 219 25 8 -14
65 3 161 47 40 19 112 51 161 72 49 21 102 51 118 66 16 15 37 28 47 28 21 0
54 29 95 83 16 20 33 37 40 37 6 0 29 28 50 63 22 34 57 89 78 121 21 32 43
79 49 102 6 24 15 44 19 44 8 0 28 85 36 150 10 94 37 227 55 280 6 15 7 -26
4 -107 -7 -160 -2 -173 59 -173 62 0 70 14 64 108 -5 65 -4 71 5 39 8 -29 15
-37 34 -37 64 0 97 64 169 329 l18 65 17 -40 c10 -21 18 -48 19 -59 1 -26 63
-73 106 -81 19 -3 49 -3 67 0 29 5 36 12 45 45 15 49 15 96 0 124 -6 12 -49
72 -94 134 -46 62 -86 125 -90 140 -6 26 -4 25 30 -14 20 -23 65 -64 99 -90
54 -41 68 -47 111 -47 35 0 51 5 58 17 5 9 15 17 22 17 18 0 94 38 149 75 27
18 102 85 166 148 65 63 130 123 146 133 15 10 59 49 99 88 39 39 107 103 151
141 116 102 289 280 375 385 25 30 47 57 51 60 12 10 87 127 109 170 12 25 27
53 31 63 20 38 22 106 5 142 -19 38 -90 115 -175 185 -29 25 -59 50 -65 55
-37 34 -107 85 -146 107 -52 29 -95 53 -166 95 -28 17 -61 34 -72 38 -12 3
-22 10 -22 14 0 4 -18 16 -40 26 -22 10 -40 21 -40 25 0 4 -18 10 -40 14 -22
3 -40 10 -40 15 0 5 -13 11 -30 14 -16 4 -47 24 -69 46 -22 22 -80 62 -130 90
-50 27 -117 69 -149 93 -31 24 -68 51 -82 59 -14 9 -92 79 -175 155 -82 76
-161 147 -174 158 -13 12 -42 37 -65 57 -22 19 -70 57 -106 82 -111 80 -167
138 -299 312 -30 39 -61 76 -69 83 -16 12 -75 15 -100 5z"/>
</g>
</svg>
