<?xml version="1.0" standalone="no"?>
<!DOCTYPE svg PUBLIC "-//W3C//DTD SVG 20010904//EN"
 "http://www.w3.org/TR/2001/REC-SVG-20010904/DTD/svg10.dtd">
<svg version="1.0" xmlns="http://www.w3.org/2000/svg"
 width="228.000000pt" height="309.000000pt" viewBox="0 0 228.000000 309.000000"
 preserveAspectRatio="xMidYMid meet">
<metadata>
Created by potrace 1.13, written by Peter Selinger 2001-2015
</metadata>
<g transform="translate(0.000000,309.000000) scale(0.100000,-0.100000)"
fill="#000000" stroke="none">
<path d="M1024 2682 c-58 -31 -132 -92 -160 -130 -34 -47 -130 -142 -143 -142
-5 0 -36 -23 -68 -50 -32 -28 -74 -55 -93 -60 -90 -27 -253 -145 -404 -294
-145 -144 -148 -149 -141 -215 14 -125 29 -155 119 -244 46 -46 97 -93 112
-105 82 -63 123 -92 157 -109 39 -22 149 -94 157 -104 3 -4 29 -17 58 -29 29
-13 56 -28 60 -34 14 -22 141 -68 192 -69 40 -2 49 -5 44 -17 -3 -8 -8 -49
-11 -91 l-6 -76 39 -6 c23 -4 44 -15 52 -27 7 -11 19 -20 27 -20 8 0 15 -6 15
-14 0 -7 6 -25 13 -39 9 -17 14 -72 16 -158 1 -73 6 -154 11 -182 6 -27 7 -60
4 -74 -5 -17 0 -31 14 -46 11 -12 28 -38 37 -57 33 -65 72 -112 127 -154 34
-25 40 -27 72 -16 20 6 38 15 41 19 6 11 -28 77 -57 110 -54 63 -87 163 -96
294 -10 133 -1 221 27 251 11 12 21 27 21 33 0 6 11 18 23 26 13 9 29 29 36
45 10 25 18 30 44 28 32 -1 32 0 31 44 0 25 -4 66 -9 92 l-8 46 39 -4 c71 -9
197 53 309 152 17 14 57 47 90 72 33 25 71 58 85 73 14 14 54 53 90 84 198
176 209 188 231 245 11 30 25 63 29 72 5 9 12 46 16 81 l7 65 -65 64 c-58 58
-270 208 -357 253 -19 9 -39 21 -45 26 -37 30 -129 84 -181 106 -33 14 -76 38
-95 53 -46 36 -74 50 -99 50 -11 0 -64 35 -118 78 -153 120 -157 122 -210 122
-27 0 -62 -8 -79 -18z m127 -1618 c10 -13 10 -17 -2 -25 -23 -14 -29 -11 -29
16 0 29 12 32 31 9z"/>
</g>
</svg>
