<?xml version="1.0" standalone="no"?>
<!DOCTYPE svg PUBLIC "-//W3C//DTD SVG 20010904//EN"
 "http://www.w3.org/TR/2001/REC-SVG-20010904/DTD/svg10.dtd">
<svg version="1.0" xmlns="http://www.w3.org/2000/svg"
 width="337.000000pt" height="413.000000pt" viewBox="0 0 337.000000 413.000000"
 preserveAspectRatio="xMidYMid meet">
<metadata>
Created by potrace 1.13, written by Peter Selinger 2001-2015
</metadata>
<g transform="translate(0.000000,413.000000) scale(0.100000,-0.100000)"
fill="#000000" stroke="none">
<path d="M1636 4063 c-30 -32 -60 -64 -68 -71 -7 -8 -58 -45 -113 -82 -190
-131 -241 -169 -289 -214 -26 -25 -55 -46 -63 -46 -8 0 -36 -20 -61 -45 -83
-81 -325 -226 -512 -308 -109 -48 -333 -308 -387 -451 -8 -22 -26 -63 -39 -90
-13 -28 -24 -65 -24 -83 0 -29 23 -93 43 -118 22 -27 76 -117 82 -135 3 -11
11 -20 16 -20 5 0 9 -6 9 -13 0 -7 8 -22 18 -33 21 -22 72 -97 117 -170 75
-123 85 -140 96 -161 7 -13 16 -23 21 -23 4 0 8 -7 8 -15 0 -17 74 -128 107
-158 12 -12 23 -27 23 -32 0 -6 10 -21 23 -35 12 -14 35 -45 52 -69 40 -59
130 -139 234 -207 47 -32 88 -60 91 -63 21 -26 95 -61 126 -61 33 0 36 -2 30
-22 -9 -30 -37 -146 -43 -181 -8 -44 19 -72 104 -107 72 -30 86 -33 181 -32
l102 1 0 -29 c0 -16 -12 -62 -26 -102 -104 -289 -274 -453 -524 -504 -74 -15
-97 -15 -178 -5 -121 16 -189 47 -261 119 -97 96 -131 186 -131 349 0 101 1
107 67 301 66 195 67 198 67 307 1 119 -10 162 -67 260 -36 62 -67 91 -134
122 -60 28 -132 38 -197 29 -93 -14 -131 -120 -85 -241 12 -33 24 -86 27 -117
3 -52 6 -58 27 -58 19 0 23 7 28 42 6 43 -4 112 -21 159 -34 89 -5 149 73 149
93 0 184 -71 232 -179 20 -45 25 -72 25 -135 -1 -104 -5 -118 -69 -276 -74
-180 -100 -264 -109 -349 -3 -39 -11 -71 -15 -71 -5 0 -9 -18 -9 -40 0 -22 3
-40 8 -40 4 0 13 -30 20 -67 19 -102 63 -186 129 -250 86 -83 247 -181 300
-184 14 0 14 -2 3 -6 -25 -8 -64 -25 -80 -34 -8 -5 -27 -14 -43 -20 -15 -6
-27 -15 -27 -20 0 -5 -8 -9 -18 -9 -31 0 -113 -70 -110 -94 3 -19 10 -21 72
-21 47 0 71 4 74 13 2 6 17 12 33 12 16 0 29 5 29 10 0 6 13 10 30 10 16 0 33
6 37 13 4 8 29 19 56 27 26 7 47 17 47 21 0 5 16 9 35 9 24 0 35 5 35 15 0 10
11 15 35 15 19 0 35 4 35 9 0 12 80 31 132 31 96 0 305 68 411 133 195 120
346 333 426 604 l21 71 41 -5 c34 -5 41 -3 45 13 5 17 16 19 102 21 53 1 108
7 122 12 14 5 41 12 60 16 59 10 74 28 74 88 -1 37 -10 69 -32 114 -18 34 -36
64 -42 68 -21 13 -8 23 24 18 40 -6 86 13 141 62 22 19 44 35 49 35 15 0 254
247 282 291 15 24 30 46 33 49 15 11 103 152 141 226 23 43 51 93 64 109 12
17 27 43 34 59 8 17 36 58 63 92 27 34 49 64 49 67 0 4 11 23 25 43 14 20 57
102 96 182 l71 146 -4 80 c-4 72 -8 87 -41 141 -49 78 -60 96 -72 113 -14 20
-126 133 -151 153 -34 26 -147 103 -173 116 -103 56 -134 73 -189 111 -34 23
-67 42 -72 42 -6 0 -10 3 -10 8 0 4 -16 16 -35 26 -19 11 -35 23 -35 28 0 4
-6 8 -13 8 -7 0 -23 10 -37 23 -14 12 -45 36 -70 52 -25 17 -50 35 -57 40 -7
6 -18 15 -25 20 -7 6 -28 17 -45 24 -18 7 -33 20 -33 27 0 8 -5 14 -11 14 -6
0 -32 15 -58 34 -25 18 -77 49 -116 68 -142 70 -178 95 -278 190 -126 121
-135 122 -211 41z"/>
</g>
</svg>
