<?xml version="1.0" standalone="no"?>
<!DOCTYPE svg PUBLIC "-//W3C//DTD SVG 20010904//EN"
 "http://www.w3.org/TR/2001/REC-SVG-20010904/DTD/svg10.dtd">
<svg version="1.0" xmlns="http://www.w3.org/2000/svg"
 width="376.000000pt" height="385.000000pt" viewBox="0 0 376.000000 385.000000"
 preserveAspectRatio="xMidYMid meet">
<metadata>
Created by potrace 1.13, written by Peter Selinger 2001-2015
</metadata>
<g transform="translate(0.000000,385.000000) scale(0.100000,-0.100000)"
fill="#000000" stroke="none">
<path d="M2765 3116 c-11 -7 -24 -14 -30 -15 -5 -1 -35 -13 -65 -28 -82 -40
-134 -57 -200 -67 -40 -6 -75 -14 -75 -16 0 -1 -13 -4 -30 -6 -41 -4 -58 -8
-71 -17 -7 -4 -40 -9 -75 -12 -35 -3 -66 -9 -69 -13 -6 -8 -30 -11 -141 -15
-41 -2 -81 -7 -87 -11 -7 -4 -12 -2 -12 4 0 6 -4 9 -10 5 -12 -8 -148 -10
-156 -2 -3 3 -17 2 -30 -3 -13 -5 -24 -6 -24 -2 0 9 -208 7 -315 -2 -129 -11
-208 -37 -191 -65 3 -5 0 -11 -7 -14 -7 -3 -24 -27 -37 -53 -14 -27 -27 -51
-30 -54 -8 -7 -6 -194 2 -200 3 -3 9 -34 13 -70 3 -35 9 -69 13 -75 8 -13 14
-42 16 -77 0 -16 4 -28 8 -28 3 0 9 -13 13 -30 4 -17 11 -30 16 -30 5 0 8 -3
7 -7 -3 -14 26 -133 32 -133 4 0 6 -10 5 -22 -1 -13 5 -28 12 -33 8 -6 15 -17
17 -25 2 -8 8 -26 13 -40 7 -16 7 -27 1 -31 -5 -3 -2 -9 7 -13 9 -3 14 -10 11
-14 -3 -5 6 -25 20 -45 14 -20 21 -37 17 -37 -4 0 4 -11 19 -24 15 -12 25 -26
22 -29 -4 -3 5 -12 20 -18 14 -7 26 -15 26 -18 0 -3 -16 -17 -35 -30 -38 -26
-105 -103 -105 -121 0 -12 25 -41 35 -40 20 1 25 -1 20 -9 -3 -5 0 -21 7 -36
9 -21 9 -28 -1 -34 -7 -5 -12 -11 -11 -15 4 -17 -13 -66 -24 -66 -6 0 -18 -9
-26 -20 -10 -14 -17 -17 -27 -8 -9 8 -13 7 -13 -1 0 -7 -7 -19 -15 -28 -9 -9
-13 -23 -10 -34 4 -12 2 -19 -6 -19 -7 0 -10 -3 -6 -6 3 -3 -5 -18 -19 -33
-13 -14 -27 -35 -31 -46 -3 -11 -14 -27 -23 -35 -9 -8 -15 -19 -13 -25 1 -5
-9 -18 -25 -28 -24 -17 -27 -25 -26 -73 0 -30 -2 -54 -6 -54 -3 0 -7 -23 -9
-52 -1 -28 -4 -55 -7 -59 -2 -4 1 -11 7 -15 8 -4 7 -9 -2 -15 -8 -5 -9 -9 -3
-9 6 0 10 -11 9 -25 -2 -14 1 -25 7 -25 6 0 8 -7 4 -15 -3 -8 -1 -15 4 -15 4
0 11 -13 15 -28 5 -26 47 -80 107 -140 25 -25 163 -96 191 -98 9 -1 18 -3 20
-4 1 -1 16 -4 32 -5 17 -2 30 -4 30 -5 0 -1 21 -3 48 -4 26 -1 47 1 47 6 0 4
6 8 13 8 8 0 22 9 32 20 16 17 16 21 2 35 -9 8 -24 16 -35 18 -10 1 -30 14
-43 27 -26 27 -40 29 -80 12 -27 -11 -89 -14 -89 -4 0 3 7 13 16 23 14 16 13
20 -13 47 -22 24 -32 28 -50 21 -14 -5 -23 -5 -23 1 0 6 -3 9 -7 8 -5 -1 -22
1 -39 4 -23 5 -33 14 -38 33 -4 14 -10 25 -15 25 -4 0 -7 11 -6 25 2 14 0 25
-5 25 -5 0 -6 24 -4 53 3 28 6 62 7 75 0 12 5 22 9 22 4 0 8 4 8 9 0 5 5 22
12 38 6 15 12 30 13 33 5 21 74 119 98 139 9 9 17 19 17 23 0 14 83 97 92 92
4 -3 8 1 8 9 0 9 10 13 30 12 17 -1 33 2 36 7 3 4 18 8 33 8 16 0 45 7 65 15
22 10 36 11 36 5 0 -19 24 -37 42 -32 10 2 18 11 18 18 0 8 4 14 10 14 5 0 12
11 16 25 3 14 10 25 15 25 5 0 9 6 9 13 1 19 40 65 40 47 0 -14 43 -54 59 -56
3 0 24 -8 46 -18 22 -10 63 -20 90 -21 28 -2 50 -4 50 -5 0 -7 354 -6 367 1 9
5 19 5 22 0 3 -4 22 -6 43 -4 21 3 80 6 131 6 50 1 92 4 92 7 0 3 23 6 50 7
69 2 78 4 84 20 3 8 10 11 16 8 5 -3 10 -2 10 3 0 5 15 16 33 23 17 7 38 21
45 31 7 10 19 18 25 18 38 1 59 97 43 190 -8 48 -14 75 -16 75 -1 0 -4 11 -7
25 -7 38 -11 55 -13 58 -2 1 -3 5 -4 10 -1 4 -5 13 -9 20 -5 6 -5 12 -1 12 3
0 2 6 -3 13 -6 6 -9 20 -8 30 2 9 0 17 -4 17 -4 0 -13 21 -21 48 -15 54 -14
51 -25 77 -5 11 -13 23 -19 27 -7 5 -6 8 3 8 10 0 11 3 2 13 -6 8 -8 17 -4 20
3 4 1 7 -5 7 -7 0 -11 3 -10 8 3 10 -21 103 -33 125 -6 11 -6 17 2 17 8 0 8 5
-1 15 -7 9 -10 27 -7 45 4 16 3 32 -2 34 -5 3 -7 17 -6 31 2 14 0 25 -3 25 -4
0 -7 34 -7 75 0 41 2 75 5 75 8 0 4 225 -4 238 -4 7 -4 12 1 12 4 0 9 17 9 38
1 20 5 64 8 97 4 33 8 66 8 73 1 6 6 12 11 12 5 0 7 7 3 15 -3 8 0 15 6 15 7
0 6 5 -2 15 -7 8 -9 15 -5 15 5 0 -2 9 -15 20 -27 24 -30 24 -55 6z m-1185
-1557 c0 -12 -7 -19 -20 -19 -23 0 -26 14 -7 34 15 17 27 11 27 -15z"/>
</g>
</svg>
