<?xml version="1.0" standalone="no"?>
<!DOCTYPE svg PUBLIC "-//W3C//DTD SVG 20010904//EN"
 "http://www.w3.org/TR/2001/REC-SVG-20010904/DTD/svg10.dtd">
<svg version="1.0" xmlns="http://www.w3.org/2000/svg"
 width="635.000000pt" height="638.000000pt" viewBox="0 0 635.000000 638.000000"
 preserveAspectRatio="xMidYMid meet">
<metadata>
Created by potrace 1.13, written by Peter Selinger 2001-2015
</metadata>
<g transform="translate(0.000000,638.000000) scale(0.100000,-0.100000)"
fill="#000000" stroke="none">
<path d="M4610 4961 c-19 -9 -38 -20 -42 -26 -5 -7 -8 -7 -8 0 0 6 -7 2 -14
-8 -8 -10 -18 -17 -22 -16 -17 4 -64 -13 -64 -23 0 -6 -7 -8 -15 -5 -8 4 -17
2 -20 -4 -4 -5 -10 -7 -15 -4 -8 5 -40 9 -135 19 -16 2 -46 6 -65 10 -91 19
-188 27 -194 17 -3 -4 -25 -7 -50 -6 -25 0 -46 -4 -46 -9 0 -5 -3 -6 -7 -3 -3
4 -12 2 -20 -4 -9 -8 -13 -8 -13 -1 0 8 -15 7 -45 -2 -25 -8 -45 -12 -45 -10
0 3 -8 0 -18 -5 -18 -9 -58 -20 -92 -24 -8 -1 -17 -5 -20 -9 -7 -9 -49 -18
-125 -28 -33 -4 -71 -10 -83 -14 -13 -5 -40 -9 -61 -10 -20 -1 -42 -5 -49 -10
-7 -4 -12 -2 -12 5 0 9 -3 9 -14 0 -8 -7 -37 -13 -65 -14 -28 -1 -51 -6 -51
-11 0 -5 -6 -4 -13 2 -7 6 -18 7 -25 3 -7 -4 -30 -6 -50 -4 -20 2 -53 5 -72 6
-19 2 -40 5 -45 8 -6 3 -20 4 -32 3 -13 0 -23 2 -23 5 0 3 -12 7 -27 7 -16 1
-46 5 -68 9 -22 4 -46 8 -52 8 -7 0 -13 4 -13 8 0 5 -11 4 -25 -1 -14 -5 -25
-6 -25 -1 0 4 -10 7 -22 7 -13 -1 -27 0 -32 3 -6 2 -28 6 -50 7 -23 2 -54 5
-71 8 -39 7 -135 19 -157 20 -10 0 -18 3 -18 6 0 3 -12 5 -27 6 -43 2 -89 10
-103 19 -8 5 -59 10 -114 12 -56 2 -127 5 -159 6 -32 2 -61 -1 -64 -6 -2 -4
-11 -3 -19 4 -10 8 -14 8 -14 0 0 -6 -8 -11 -18 -11 -10 0 -38 -18 -62 -40
-24 -22 -47 -40 -52 -40 -5 0 -7 -4 -4 -9 4 -5 2 -20 -3 -34 -5 -14 -7 -28 -3
-31 3 -4 7 -26 9 -49 2 -23 10 -69 18 -102 9 -33 18 -71 20 -85 3 -14 8 -38
12 -55 4 -16 7 -51 7 -78 1 -26 5 -47 9 -47 5 0 6 -4 2 -9 -3 -5 -1 -12 5 -16
5 -3 10 -14 10 -24 0 -10 6 -23 13 -29 14 -12 17 -148 4 -169 -4 -6 -4 -14 1
-17 4 -2 5 -34 2 -70 -3 -36 -2 -76 1 -90 4 -15 4 -26 1 -26 -10 0 -8 -52 1
-67 5 -7 5 -13 0 -13 -10 0 -10 -111 0 -127 5 -7 4 -13 -1 -13 -5 0 -8 -15 -6
-32 3 -37 30 -173 34 -173 1 0 3 -8 5 -17 8 -44 30 -96 51 -125 13 -17 24 -36
24 -41 0 -5 12 -21 28 -35 15 -15 38 -38 52 -52 14 -14 50 -40 80 -57 30 -18
58 -36 62 -42 4 -6 8 -8 8 -4 0 4 12 3 27 -3 24 -9 60 -15 111 -18 6 -1 12 -6
12 -12 0 -5 -4 -7 -10 -4 -5 3 -10 1 -10 -4 0 -6 -4 -11 -9 -11 -15 0 -89 -66
-147 -131 -25 -28 -29 -40 -22 -58 4 -13 6 -26 3 -31 -12 -20 69 -34 86 -14 6
7 15 11 20 8 15 -9 49 6 49 21 0 11 6 12 23 6 18 -7 27 -5 37 9 7 10 19 16 26
13 10 -4 8 -10 -6 -25 -11 -12 -16 -26 -13 -32 3 -6 3 -8 -2 -4 -8 8 -41 -24
-91 -88 -16 -20 -41 -50 -57 -66 -15 -16 -25 -33 -22 -39 4 -5 2 -9 -4 -9 -6
0 -8 -7 -5 -15 4 -8 2 -15 -3 -15 -5 0 -9 -10 -10 -22 -1 -11 -7 -24 -12 -28
-14 -8 -24 -90 -11 -90 5 0 10 -4 10 -10 0 -5 -11 -10 -25 -10 -15 0 -25 -6
-25 -14 0 -8 -6 -17 -12 -19 -10 -4 -10 -8 1 -16 12 -8 9 -11 -13 -17 -16 -4
-38 -7 -49 -8 -30 -2 -46 -32 -24 -48 15 -11 11 -13 -30 -12 -53 0 -83 -10
-83 -29 0 -7 -16 -13 -40 -14 -43 -1 -74 -19 -63 -36 4 -6 -2 -8 -15 -5 -26 7
-65 -19 -58 -38 7 -19 -14 -18 -36 3 -26 23 -73 24 -87 1 -7 -11 -7 -18 -1
-18 5 0 10 -4 10 -10 0 -14 -20 -8 -42 11 -23 20 -52 18 -78 -6 -11 -10 -20
-13 -20 -7 0 7 -3 11 -7 10 -5 -1 -18 3 -30 10 -18 10 -24 9 -37 -4 -19 -18
-46 -12 -71 16 -18 20 -18 20 -35 0 -18 -20 -18 -20 -59 20 -37 37 -52 45 -74
41 -4 -1 -23 11 -42 25 -28 21 -35 23 -35 10 0 -30 -19 -16 -62 47 -22 33 -25
47 -23 103 1 35 -1 66 -5 69 -4 2 -6 16 -5 30 2 14 -1 25 -6 25 -5 0 -9 7 -9
15 0 8 -10 23 -22 35 -12 11 -18 20 -13 20 5 0 0 7 -11 15 -10 8 -15 15 -10
15 20 0 -86 76 -111 78 -15 1 -30 7 -33 13 -8 12 -5 58 4 66 3 4 1 12 -5 20
-9 10 -8 13 1 13 9 0 9 4 2 13 -6 6 -11 15 -11 20 -1 4 -1 8 -2 10 0 1 -2 10
-4 20 -3 17 -12 28 -83 104 -30 32 -37 34 -70 28 -42 -8 -73 -31 -66 -50 3 -7
-2 -15 -10 -18 -11 -5 -16 0 -16 13 0 11 -16 36 -35 56 -19 19 -35 33 -35 30
0 -3 -14 7 -32 24 -17 17 -33 28 -36 25 -2 -2 -19 2 -36 9 -39 16 -67 7 -111
-37 l-33 -33 24 -31 c13 -17 44 -39 69 -49 25 -9 45 -21 45 -26 0 -5 4 -7 9
-4 4 3 28 -11 52 -32 24 -20 52 -43 61 -51 9 -8 15 -18 12 -23 -3 -4 -1 -8 4
-8 4 0 19 -14 31 -31 13 -18 19 -29 13 -25 -5 3 -13 -2 -16 -11 -6 -14 -9 -15
-15 -4 -7 11 -11 9 -20 -7 -10 -18 -8 -24 13 -38 14 -8 29 -13 34 -10 5 3 18
-1 28 -9 16 -12 17 -17 6 -34 -7 -12 -8 -21 -4 -21 12 0 82 -61 82 -71 0 -5
-12 -4 -26 1 -38 15 -62 -5 -38 -31 10 -11 23 -19 29 -19 7 0 18 -7 25 -15 7
-9 22 -14 33 -13 13 2 21 -3 23 -15 2 -13 -1 -15 -9 -8 -8 6 -18 5 -31 -5 -19
-13 -19 -14 -2 -33 10 -11 21 -20 25 -19 3 1 23 -6 44 -16 34 -15 36 -18 23
-32 -14 -14 -14 -17 4 -36 11 -12 20 -27 20 -33 0 -7 9 -20 20 -30 16 -14 23
-15 34 -6 22 19 41 3 22 -18 -14 -15 -13 -18 7 -31 12 -8 25 -13 30 -12 4 1 7
-5 7 -13 0 -8 11 -17 25 -21 14 -3 25 -11 25 -16 0 -6 6 -5 15 2 12 10 15 10
15 -3 0 -8 -6 -17 -12 -20 -10 -3 -10 -9 -3 -22 6 -10 14 -16 17 -14 4 2 17
-6 30 -19 14 -12 28 -19 31 -15 4 3 7 -1 7 -9 0 -9 18 -23 43 -33 23 -9 54
-28 70 -43 15 -14 27 -23 27 -19 0 4 12 2 26 -3 16 -7 32 -7 44 0 15 8 20 6
25 -10 3 -11 12 -20 18 -21 32 -3 75 4 99 17 16 8 28 10 28 5 0 -5 -4 -11 -10
-13 -5 -1 -6 -9 -1 -16 12 -20 78 -18 101 3 11 10 20 13 20 7 0 -6 -6 -12 -12
-15 -10 -3 -10 -7 0 -19 13 -16 62 -13 62 4 0 5 5 6 11 3 6 -4 21 3 35 16 13
12 24 18 24 12 0 -6 -5 -13 -12 -15 -9 -3 -8 -8 2 -20 11 -11 22 -13 44 -7 16
5 32 12 35 16 3 5 16 14 28 21 19 10 23 10 23 -2 0 -26 84 -38 92 -14 4 10 10
9 28 -3 21 -14 25 -14 48 8 13 12 28 21 31 18 4 -2 20 7 36 21 15 13 25 24 20
24 -4 0 -2 7 5 15 18 22 30 18 30 -9 0 -29 19 -44 31 -25 5 8 9 10 9 4 0 -5 7
-1 15 9 8 11 15 16 15 12 0 -10 18 9 54 57 15 21 30 36 33 33 3 -3 1 -12 -6
-19 -9 -11 -8 -17 3 -26 15 -12 59 -1 71 19 3 5 10 8 14 6 4 -3 15 13 25 35
10 21 21 37 26 34 5 -3 10 0 12 5 2 6 14 1 26 -10 23 -21 32 -20 62 10 3 3 14
10 25 16 11 6 27 24 35 40 15 30 28 42 44 42 5 0 12 4 15 9 3 4 20 16 38 26
l32 18 -14 -41 c-8 -22 -12 -40 -9 -40 3 0 -4 -10 -16 -22 -11 -12 -20 -24
-21 -27 0 -3 -2 -19 -5 -36 -2 -16 -2 -40 1 -53 5 -21 10 -23 38 -17 18 4 39
13 47 20 8 8 22 15 30 17 8 2 21 11 29 21 7 10 19 16 27 13 8 -3 14 -1 14 5 0
6 5 7 10 4 6 -3 10 -3 10 2 0 4 28 22 61 38 34 17 64 36 66 43 3 6 11 12 18
12 6 0 22 14 35 30 13 17 28 30 35 30 6 0 18 11 25 25 14 26 33 35 24 12 -3
-8 2 -20 11 -27 13 -11 13 -15 3 -21 -10 -6 -10 -13 -2 -26 7 -11 8 -27 3 -40
-5 -15 -3 -23 7 -27 11 -4 12 -10 5 -24 -10 -20 -9 -47 2 -58 4 -4 7 -16 7
-26 0 -10 6 -25 13 -32 13 -15 12 -16 73 44 17 16 36 30 42 30 10 0 26 29 24
43 -1 4 2 7 8 7 5 0 10 7 10 15 0 8 4 15 9 15 9 0 24 37 22 55 -1 6 10 -3 23
-19 14 -17 23 -34 20 -38 -3 -4 2 -11 10 -14 9 -3 13 -10 10 -15 -3 -5 0 -9 5
-9 6 0 11 -5 11 -11 0 -15 67 -72 87 -75 8 -1 22 -11 31 -22 16 -18 92 -57 92
-47 0 2 17 -2 38 -9 21 -8 55 -13 75 -12 21 2 37 -1 37 -6 0 -5 6 -6 13 -1 6
4 22 6 35 4 13 -1 56 3 95 10 40 6 79 12 87 12 8 0 20 3 25 7 6 4 20 6 33 5
12 -1 22 3 22 8 0 5 6 7 14 4 7 -3 26 1 41 9 15 8 31 11 36 8 5 -3 9 0 9 6 0
6 4 9 9 5 5 -3 12 -1 16 5 4 6 10 8 15 5 4 -3 27 2 50 10 23 8 46 13 50 10 5
-3 11 -1 15 4 3 5 14 8 25 6 11 -2 22 0 24 4 3 4 30 7 61 5 34 -2 55 1 55 8 0
7 6 6 15 -2 8 -7 15 -8 15 -3 0 16 205 13 263 -3 29 -8 84 -17 122 -19 39 -2
70 -4 70 -5 0 -1 9 -3 20 -6 28 -6 108 17 118 33 5 7 12 11 17 8 14 -8 73 97
74 133 1 17 5 32 9 32 5 0 5 6 0 13 -4 6 -8 35 -10 62 -1 43 -8 83 -18 120 -1
6 -6 25 -10 43 -4 17 -12 32 -17 32 -5 0 -7 4 -4 8 3 5 -6 40 -20 78 -14 38
-27 74 -28 79 -1 6 -12 29 -24 51 -11 23 -18 44 -15 48 4 3 1 6 -6 6 -7 0 -10
4 -7 9 3 5 -4 21 -17 37 -12 16 -21 30 -20 31 6 7 -10 63 -18 63 -5 0 -8 3 -7
8 1 4 -4 21 -11 37 -7 17 -14 35 -16 40 -12 42 -18 55 -24 55 -4 0 -7 8 -8 18
0 9 -4 28 -8 42 -4 14 -9 37 -12 53 -3 15 -9 27 -13 27 -5 0 -7 8 -5 18 1 9 0
21 -3 27 -5 9 -11 36 -15 80 -2 11 -5 25 -8 30 -3 6 -5 34 -5 62 1 29 -2 53
-5 53 -6 0 -7 5 -10 60 -1 19 -6 41 -12 48 -6 8 -6 12 3 12 9 0 9 4 3 13 -6 6
-10 26 -10 43 0 16 -3 35 -7 42 -4 7 -2 12 4 12 7 0 10 7 6 15 -3 8 -1 15 5
15 6 0 8 9 4 20 -4 12 -1 27 5 35 7 8 10 21 7 29 -3 7 0 19 6 25 8 8 7 11 -3
11 -9 0 -6 8 9 24 20 22 21 24 4 30 -14 6 -15 9 -4 15 7 5 10 14 7 20 -4 6 -3
11 2 11 5 0 7 11 4 25 -2 15 0 25 7 25 7 0 9 5 4 13 -4 6 -8 21 -8 32 0 11 -4
26 -8 33 -5 7 -4 12 2 12 7 0 9 18 6 50 -3 33 -1 50 6 50 8 0 8 4 0 14 -6 7
-9 21 -5 30 3 9 -1 27 -9 40 -12 17 -13 26 -4 35 8 8 8 11 -2 11 -9 0 -11 8
-8 21 6 20 -5 47 -30 79 -6 8 -11 17 -11 20 0 3 -9 27 -21 53 -12 26 -19 52
-16 57 3 5 1 11 -5 15 -6 4 -7 11 -4 17 4 6 1 14 -6 18 -9 6 -9 13 -2 26 8 14
7 23 -3 34 -15 16 -10 60 6 60 5 0 4 11 -1 25 -6 15 -6 26 1 30 5 4 7 10 4 15
-3 5 -1 11 4 15 5 3 8 14 6 25 -2 11 -1 20 4 20 18 0 4 67 -19 90 -49 48 -52
49 -90 31z m-600 -481 c0 -5 -8 -10 -17 -10 -15 0 -16 2 -3 10 19 12 20 12 20
0z m313 -105 c-3 -9 -8 -14 -10 -11 -3 3 -2 9 2 15 9 16 15 13 8 -4z m-13 -39
c0 -2 -8 -10 -17 -17 -16 -13 -17 -12 -4 4 13 16 21 21 21 13z m-410 -50 c0
-4 -7 -6 -15 -2 -8 3 -15 0 -15 -6 0 -6 -3 -9 -6 -6 -3 3 0 15 7 27 10 14 15
17 21 8 4 -7 8 -16 8 -21z m377 -21 c0 -8 -4 -15 -9 -15 -10 0 -11 14 -1 23 9
10 10 9 10 -8z m118 -113 c14 -9 17 -52 4 -52 -5 0 -22 -11 -36 -25 -17 -15
-31 -21 -38 -15 -6 5 -17 5 -25 0 -50 -32 -7 21 49 60 12 8 21 20 21 27 0 14
10 16 25 5z m111 -48 c-11 -7 -22 -11 -25 -8 -3 3 3 12 13 20 11 7 22 11 25 8
3 -3 -3 -12 -13 -20z m-403 -414 c3 -11 3 -20 1 -20 -2 0 -8 9 -14 20 -6 11
-7 20 -2 20 6 0 12 -9 15 -20z m-320 -131 c-25 -9 -39 7 -23 26 13 16 15 15
27 -1 12 -16 11 -19 -4 -25z m-226 -307 c-10 -10 -17 -23 -17 -29 0 -10 -22
-23 -40 -23 -5 0 -2 14 7 30 8 17 18 28 23 25 4 -3 13 2 20 10 7 9 15 13 18
10 3 -3 -2 -13 -11 -23z m-84 -86 c4 -10 0 -12 -14 -9 -10 3 -16 9 -13 14 8
13 21 11 27 -5z m832 -535 c-6 -5 -25 10 -25 20 0 5 6 4 14 -3 8 -7 12 -15 11
-17z m120 -81 c3 -5 -1 -10 -10 -10 -9 0 -13 5 -10 10 3 6 8 10 10 10 2 0 7
-4 10 -10z m105 -75 c11 -13 10 -14 -4 -9 -9 3 -16 10 -16 15 0 13 6 11 20 -6z
m-71 -28 c9 -12 8 -16 -4 -20 -8 -4 -14 -3 -14 1 4 22 -3 32 -22 32 -11 0 -17
5 -14 10 7 11 35 -1 54 -23z m-2197 -24 c-18 -8 -36 -13 -39 -9 -11 10 18 26
47 26 23 0 23 -1 -8 -17z m2373 -37 c20 -18 20 -18 -5 -5 -14 7 -29 12 -34 11
-5 -2 -17 5 -27 14 -15 13 -16 19 -7 25 12 8 23 1 73 -45z m-81 -22 c5 -14 4
-15 -9 -4 -17 14 -19 20 -6 20 5 0 12 -7 15 -16z m-2397 -30 c-3 -3 -12 -4
-19 -1 -8 3 -5 6 6 6 11 1 17 -2 13 -5z m-285 -436 c-18 -19 -22 -20 -22 -6 0
9 8 21 17 27 27 15 29 3 5 -21z"/>
</g>
</svg>
