<?xml version="1.0" standalone="no"?>
<!DOCTYPE svg PUBLIC "-//W3C//DTD SVG 20010904//EN"
 "http://www.w3.org/TR/2001/REC-SVG-20010904/DTD/svg10.dtd">
<svg version="1.0" xmlns="http://www.w3.org/2000/svg"
 width="228.000000pt" height="309.000000pt" viewBox="0 0 228.000000 309.000000"
 preserveAspectRatio="xMidYMid meet">
<metadata>
Created by potrace 1.13, written by Peter Selinger 2001-2015
</metadata>
<g transform="translate(0.000000,309.000000) scale(0.100000,-0.100000)"
fill="#000000" stroke="none">
<path d="M1136 3034 c-9 -8 -16 -21 -16 -29 0 -18 -131 -215 -160 -240 -12
-11 -61 -69 -108 -130 -48 -60 -95 -118 -107 -128 -11 -10 -43 -40 -70 -66
-28 -27 -82 -69 -120 -95 -39 -25 -75 -50 -81 -55 -6 -5 -26 -17 -45 -26 -87
-45 -299 -195 -357 -253 l-65 -64 7 -65 c4 -35 11 -72 16 -81 4 -9 18 -42 29
-72 22 -57 33 -69 231 -245 36 -31 76 -70 90 -84 14 -15 52 -48 85 -73 33 -25
74 -58 90 -72 112 -99 238 -161 309 -152 l39 4 -8 -46 c-5 -26 -9 -67 -9 -92
-1 -44 -1 -45 31 -44 26 2 34 -3 44 -28 7 -16 23 -36 36 -45 12 -8 23 -20 23
-26 0 -6 10 -21 21 -33 28 -30 37 -118 27 -251 -11 -147 -45 -240 -112 -306
-75 -74 -110 -80 -180 -32 -52 35 -100 32 -104 -7 -3 -27 -4 -27 -29 -11 -14
9 -36 34 -50 56 -23 37 -27 39 -63 34 -21 -3 -43 0 -48 5 -17 17 -57 5 -60
-17 -5 -34 39 -85 107 -126 108 -65 224 -89 338 -70 125 22 226 99 288 221 9
19 25 43 34 54 10 11 17 38 18 70 3 90 21 210 32 214 13 4 15 72 2 72 -17 0
-21 73 -6 104 8 16 15 35 15 43 0 7 7 13 15 13 8 0 20 9 27 19 9 14 16 17 25
10 6 -6 22 -9 35 -7 22 3 23 7 23 78 0 41 -3 89 -7 105 l-6 30 49 2 c50 1 178
47 191 69 4 6 31 21 60 34 29 12 55 25 58 29 8 10 118 82 157 104 34 17 75 46
157 109 15 12 66 59 112 105 90 89 105 119 119 244 6 51 4 59 -22 90 -58 70
-214 218 -304 287 -101 77 -155 122 -223 186 -24 23 -54 51 -67 63 -13 12 -34
34 -47 50 -12 15 -36 44 -53 63 -26 31 -96 120 -206 263 -30 40 -64 103 -112
210 -18 41 -25 47 -50 47 -16 0 -37 -7 -45 -16z m24 -1979 c0 -27 -6 -30 -29
-16 -12 8 -12 12 -2 25 19 23 31 20 31 -9z"/>
</g>
</svg>
