<?xml version="1.0" standalone="no"?>
<!DOCTYPE svg PUBLIC "-//W3C//DTD SVG 20010904//EN"
 "http://www.w3.org/TR/2001/REC-SVG-20010904/DTD/svg10.dtd">
<svg version="1.0" xmlns="http://www.w3.org/2000/svg"
 width="228.000000pt" height="309.000000pt" viewBox="0 0 228.000000 309.000000"
 preserveAspectRatio="xMidYMid meet">
<metadata>
Created by potrace 1.13, written by Peter Selinger 2001-2015
</metadata>
<g transform="translate(0.000000,309.000000) scale(0.100000,-0.100000)"
fill="#000000" stroke="none">
<path d="M1095 2677 c-16 -12 -74 -57 -128 -99 -54 -43 -107 -78 -118 -78 -25
0 -53 -14 -99 -50 -19 -15 -62 -39 -95 -53 -52 -22 -144 -76 -181 -106 -6 -5
-26 -17 -45 -26 -87 -45 -299 -195 -357 -253 l-65 -64 7 -65 c4 -35 11 -72 16
-81 4 -9 18 -42 29 -72 22 -57 33 -69 231 -245 36 -31 76 -70 90 -84 14 -15
52 -48 85 -73 33 -25 74 -58 90 -72 112 -99 238 -161 309 -152 l39 4 -8 -46
c-5 -26 -9 -67 -9 -92 -1 -44 -1 -45 31 -44 26 2 34 -3 44 -28 7 -16 23 -36
36 -45 12 -8 23 -20 23 -26 0 -6 10 -21 21 -33 28 -30 37 -118 27 -251 -9
-131 -42 -231 -96 -294 -29 -33 -63 -99 -57 -110 3 -4 21 -13 41 -19 32 -11
38 -9 72 16 55 42 94 89 127 154 9 19 26 45 37 57 14 15 19 29 14 46 -3 14 -2
47 4 74 5 28 10 109 11 182 2 86 7 141 16 158 7 14 13 32 13 39 0 8 7 14 15
14 8 0 20 9 27 20 8 12 29 23 52 27 l39 6 -6 76 c-3 42 -8 83 -11 91 -5 12 4
15 44 17 51 1 178 47 192 69 4 6 31 21 60 34 29 12 55 25 58 29 8 10 118 82
157 104 34 17 75 46 157 109 15 12 66 59 112 105 90 89 105 119 119 244 7 66
4 71 -141 215 -151 149 -314 267 -404 294 -19 5 -61 32 -93 60 -32 27 -63 50
-68 50 -13 0 -109 95 -143 142 -28 38 -102 99 -160 130 -45 26 -123 23 -161
-5z m65 -1622 c0 -27 -6 -30 -29 -16 -12 8 -12 12 -2 25 19 23 31 20 31 -9z"/>
</g>
</svg>
