<?xml version="1.0" standalone="no"?>
<!DOCTYPE svg PUBLIC "-//W3C//DTD SVG 20010904//EN"
 "http://www.w3.org/TR/2001/REC-SVG-20010904/DTD/svg10.dtd">
<svg version="1.0" xmlns="http://www.w3.org/2000/svg"
 width="585.000000pt" height="595.000000pt" viewBox="0 0 585.000000 595.000000"
 preserveAspectRatio="xMidYMid meet">
<metadata>
Created by potrace 1.13, written by Peter Selinger 2001-2015
</metadata>
<g transform="translate(0.000000,595.000000) scale(0.100000,-0.100000)"
fill="#000000" stroke="none">
<path d="M4390 4729 c-77 -20 -126 -30 -142 -30 -10 0 -18 -3 -18 -7 0 -4 -8
-8 -17 -9 -31 -1 -87 -11 -128 -21 -22 -6 -56 -13 -76 -16 -20 -3 -47 -9 -60
-14 -13 -5 -48 -10 -77 -11 -30 -1 -65 -6 -78 -11 -14 -6 -28 -9 -32 -9 -4 1
-9 0 -12 -1 -3 -1 -18 -3 -35 -4 -16 -1 -46 -7 -65 -13 -19 -6 -56 -14 -83
-17 -26 -3 -51 -7 -56 -10 -5 -3 -26 -8 -47 -11 -22 -3 -50 -8 -64 -11 -14 -3
-43 -7 -65 -9 -22 -2 -40 -4 -40 -5 0 -2 -54 -11 -72 -12 -7 -1 -13 -6 -13
-11 0 -5 -7 -4 -15 3 -8 7 -15 8 -15 4 0 -5 -15 -10 -32 -11 -42 -2 -153 -12
-153 -14 0 -8 -174 -14 -181 -6 -4 3 -14 2 -24 -3 -10 -5 -20 -7 -23 -3 -3 3
-75 7 -159 9 -84 1 -153 4 -153 5 0 1 -84 2 -187 4 -104 1 -188 -2 -188 -7 0
-5 -5 -6 -12 -2 -12 8 -80 6 -122 -2 -11 -2 -46 -8 -76 -13 -30 -5 -73 -19
-95 -29 -22 -11 -43 -18 -47 -15 -5 2 -8 1 -8 -4 0 -4 -18 -28 -39 -52 -26
-29 -38 -51 -36 -67 1 -13 -1 -24 -4 -24 -6 0 -6 -69 -1 -80 2 -3 4 -16 5 -30
3 -37 13 -78 22 -92 4 -7 9 -22 10 -32 2 -11 8 -25 13 -31 5 -7 7 -15 3 -18
-3 -4 -1 -7 6 -7 7 0 10 -4 7 -9 -3 -5 2 -26 11 -47 9 -22 16 -42 15 -46 -1
-5 2 -8 8 -8 6 0 9 -3 8 -7 -2 -10 13 -65 21 -78 3 -5 6 -17 6 -25 1 -8 10
-33 20 -55 10 -22 19 -47 19 -55 1 -8 5 -21 9 -27 5 -7 6 -13 3 -13 -3 0 1
-12 9 -27 8 -15 12 -30 9 -35 -3 -4 0 -8 6 -8 6 0 9 -3 6 -8 -2 -4 4 -25 14
-47 10 -22 16 -43 14 -47 -3 -5 -1 -8 4 -8 6 0 9 -6 9 -12 -1 -24 15 -78 24
-78 4 0 6 -9 4 -20 -2 -11 1 -22 6 -25 5 -4 7 -11 4 -16 -4 -5 -2 -9 3 -9 7 0
24 -58 36 -130 1 -3 4 -9 7 -15 4 -5 5 -18 4 -27 -2 -10 1 -18 7 -18 6 0 8 -7
4 -15 -3 -8 -2 -15 3 -15 5 0 9 -10 9 -22 2 -33 7 -56 15 -64 4 -4 7 -18 7
-30 0 -13 5 -26 10 -29 6 -4 10 -14 9 -23 -1 -10 0 -20 1 -24 1 -5 3 -11 5
-15 1 -5 4 -15 8 -23 3 -8 11 -35 17 -59 7 -24 19 -55 27 -68 8 -12 13 -23 9
-23 -3 0 13 -20 36 -44 24 -24 47 -42 52 -39 11 7 -1 -15 -22 -39 -8 -10 -19
-15 -23 -12 -5 3 -9 -2 -9 -10 0 -14 -12 -20 -32 -17 -5 0 -8 -6 -8 -14 0 -8
-4 -15 -10 -15 -5 0 -7 -6 -4 -14 3 -7 -2 -16 -10 -19 -9 -4 -16 -11 -16 -17
0 -14 21 -35 38 -36 40 -3 43 -5 35 -16 -4 -7 -8 -22 -9 -33 -1 -11 -4 -27 -8
-35 -7 -17 -2 -72 8 -89 4 -6 2 -11 -4 -11 -7 0 -10 -7 -6 -15 3 -8 1 -15 -5
-15 -6 0 -7 -5 -3 -11 10 -17 12 -99 2 -99 -4 0 -8 -7 -8 -15 0 -8 -9 -24 -20
-35 -11 -11 -17 -20 -14 -20 8 0 -38 -64 -53 -73 -7 -5 -11 -12 -8 -17 3 -4
-6 -15 -20 -24 -14 -9 -24 -20 -22 -25 1 -5 -13 -27 -31 -50 -34 -41 -162
-174 -162 -167 0 2 -16 -12 -36 -31 -40 -37 -128 -86 -138 -76 -3 4 -6 2 -6
-4 0 -11 -37 -26 -57 -24 -7 1 -13 -2 -13 -7 0 -11 -8 -12 -100 -13 -86 -1
-91 0 -146 28 -39 21 -61 40 -63 56 -1 4 -1 8 -2 10 -2 6 -10 54 -11 70 -1 9
-6 17 -11 17 -4 0 -6 4 -3 9 6 9 -38 61 -51 61 -4 0 -19 -16 -33 -35 -14 -19
-28 -35 -33 -35 -11 0 -47 62 -41 72 3 4 0 8 -5 8 -6 0 -9 10 -7 22 2 13 0 35
-5 51 -4 15 -4 27 0 27 4 0 6 14 5 30 -3 38 -39 73 -67 64 -14 -5 -19 -2 -15
7 16 42 -34 78 -62 44 -7 -8 -10 -15 -7 -15 3 0 2 -13 -3 -29 -5 -19 -4 -33 3
-40 8 -8 8 -11 0 -11 -7 0 -6 -15 4 -47 8 -27 15 -54 16 -60 0 -7 4 -13 9 -13
5 0 7 -4 3 -9 -3 -5 7 -31 23 -58 16 -26 28 -50 28 -53 0 -10 39 -70 46 -70 4
0 8 -5 8 -12 0 -22 162 -166 181 -161 5 2 9 -1 9 -6 0 -9 48 -26 63 -23 4 1 7
-2 7 -7 0 -8 11 -12 63 -26 4 -2 8 -4 10 -5 4 -4 61 -10 102 -11 49 -1 87 5
103 15 7 4 16 5 21 1 5 -3 12 -1 16 4 3 6 12 8 20 4 8 -3 15 -1 15 4 0 5 10 9
23 10 32 1 67 14 67 25 0 5 5 6 10 3 6 -4 17 -1 25 5 8 7 15 9 15 5 0 -5 8 -1
18 7 9 8 36 20 60 28 23 7 42 18 42 23 0 6 3 8 6 4 12 -12 33 17 22 31 -8 9
-6 12 6 12 9 0 16 7 16 15 0 8 4 15 10 15 5 0 29 18 52 40 24 22 46 40 50 40
5 0 8 5 8 11 0 13 58 69 72 69 6 0 7 7 4 16 -3 8 -2 12 4 9 6 -3 13 1 16 10 5
12 9 13 20 4 11 -9 14 -8 14 3 0 8 11 20 24 26 33 15 51 48 31 56 -9 3 -12 12
-9 21 4 9 9 14 11 11 8 -8 29 17 37 42 4 12 12 22 17 22 5 0 9 7 9 15 0 8 3
14 8 14 20 -3 32 3 32 17 0 8 4 13 9 10 4 -3 16 3 26 14 13 14 21 17 26 9 10
-16 52 -14 90 5 36 18 39 17 42 -13 1 -11 5 -21 9 -21 4 0 8 -6 8 -14 0 -30
30 -24 64 12 64 69 95 106 90 113 -2 3 5 14 15 23 15 14 24 15 40 6 12 -6 21
-8 21 -4 0 3 6 2 13 -3 6 -5 22 -8 35 -7 12 0 22 -1 22 -5 0 -3 26 -6 58 -7
53 0 187 -11 187 -14 0 -1 14 -3 30 -5 27 -2 67 -8 145 -21 14 -2 43 -6 65 -9
22 -2 54 -7 70 -10 17 -3 57 -10 90 -16 33 -6 71 -12 85 -15 37 -7 92 -16 120
-19 14 -2 25 -4 25 -5 0 -2 14 -4 30 -5 17 -2 30 -4 30 -5 0 -1 18 -3 40 -5
22 -2 54 -6 70 -10 17 -3 44 -8 60 -10 28 -3 41 -6 83 -22 9 -3 31 -7 47 -8
17 0 35 -4 40 -6 6 -3 55 -5 110 -4 99 1 205 21 205 37 0 5 4 7 9 4 5 -3 11 1
15 9 3 8 12 15 21 15 8 0 15 3 15 8 0 4 14 22 31 39 16 18 27 33 23 33 -3 0
-1 7 6 15 7 8 9 15 5 15 -4 0 -2 6 4 13 11 15 22 187 11 187 -3 0 -6 17 -7 38
0 33 -4 76 -18 177 -10 68 -17 142 -17 168 0 15 -3 27 -7 27 -3 0 -8 24 -10
53 -5 76 -8 112 -11 112 -1 0 -3 11 -4 25 -2 14 -7 41 -11 60 -5 19 -8 41 -6
48 1 8 -3 20 -10 28 -9 11 -9 14 0 14 7 0 9 5 4 13 -4 6 -8 26 -8 42 -1 17 -3
35 -6 40 -3 6 -5 38 -5 73 1 34 -2 62 -5 62 -3 0 -6 15 -7 33 -2 60 -11 222
-12 222 -1 0 -2 15 -3 33 -1 17 1 32 5 32 4 0 3 14 -2 30 -5 17 -6 30 -2 30 4
0 7 29 7 65 -1 36 2 65 5 65 8 0 5 304 -4 318 -4 7 -3 12 2 12 9 0 10 28 1 45
-12 23 2 549 15 563 6 6 -20 32 -31 31 -4 -1 -24 -5 -43 -10z m-1635 -949 c-3
-5 -12 -10 -18 -10 -7 0 -6 4 3 10 19 12 23 12 15 0z m-65 -14 c0 -11 -19 -15
-25 -6 -3 5 1 10 9 10 9 0 16 -2 16 -4z m483 -281 c-3 -9 -8 -14 -10 -11 -3 3
-2 9 2 15 9 16 15 13 8 -4z m215 -100 c6 -13 8 -25 6 -28 -9 -9 -64 24 -64 37
0 23 47 15 58 -9z m-781 -22 c-7 -6 -46 10 -41 18 3 5 14 3 24 -3 11 -7 18
-13 17 -15z m701 -2 c-2 -5 6 -16 16 -24 19 -14 19 -15 2 -33 -18 -17 -18 -17
-12 3 4 13 1 25 -9 33 -12 10 -15 10 -15 0 0 -8 -3 -10 -6 -7 -4 4 -1 13 6 22
14 17 21 19 18 6z m155 -166 c-3 -9 -8 -14 -10 -11 -3 3 -2 9 2 15 9 16 15 13
8 -4z m-393 -35 c0 -5 -8 -10 -17 -10 -15 0 -16 2 -3 10 19 12 20 12 20 0z
m-50 -104 c-14 -14 -24 0 -16 21 6 15 8 15 16 3 6 -9 5 -19 0 -24z m-30 -46
c0 -5 -5 -10 -11 -10 -5 0 -7 5 -4 10 3 6 8 10 11 10 2 0 4 -4 4 -10z m108
-78 c2 -7 -2 -10 -12 -6 -9 3 -16 11 -16 16 0 13 23 5 28 -10z m-267 -45 c-10
-9 -11 -8 -5 6 3 10 9 15 12 12 3 -3 0 -11 -7 -18z m77 -7 c15 0 15 -2 2 -10
-15 -9 -30 4 -29 25 0 6 3 4 6 -2 2 -7 12 -13 21 -13z"/>
</g>
</svg>
