<?xml version="1.0" standalone="no"?>
<!DOCTYPE svg PUBLIC "-//W3C//DTD SVG 20010904//EN"
 "http://www.w3.org/TR/2001/REC-SVG-20010904/DTD/svg10.dtd">
<svg version="1.0" xmlns="http://www.w3.org/2000/svg"
 width="526.000000pt" height="533.000000pt" viewBox="0 0 526.000000 533.000000"
 preserveAspectRatio="xMidYMid meet">
<metadata>
Created by potrace 1.13, written by Peter Selinger 2001-2015
</metadata>
<g transform="translate(0.000000,533.000000) scale(0.100000,-0.100000)"
fill="#000000" stroke="none">
<path d="M2420 4369 c0 -3 -31 -5 -70 -4 -38 0 -70 -2 -70 -6 0 -4 -21 -9 -47
-12 -75 -7 -253 -67 -303 -101 -25 -17 -47 -29 -50 -28 -27 11 -107 -60 -115
-103 -18 -87 -27 -148 -26 -177 1 -16 -2 -28 -6 -28 -5 0 -9 -12 -10 -27 -1
-16 -4 -70 -7 -121 -3 -51 -8 -98 -13 -104 -4 -7 -8 -33 -9 -58 -1 -25 -4 -55
-8 -66 -3 -10 -8 -39 -11 -64 -3 -25 -7 -58 -10 -75 -13 -74 -17 -115 -18
-182 -1 -40 -4 -73 -7 -73 -3 0 -5 -30 -4 -68 0 -37 -3 -74 -7 -83 -5 -9 -5
-19 -1 -23 3 -4 7 -17 7 -29 2 -56 18 -147 25 -147 4 0 6 -8 3 -19 -3 -10 0
-22 6 -25 5 -4 8 -13 4 -21 -3 -8 0 -15 6 -15 6 0 10 -3 10 -7 -1 -5 0 -11 1
-15 5 -15 7 -24 14 -70 5 -27 12 -48 16 -48 5 0 7 -8 5 -17 -1 -10 2 -24 8
-30 5 -7 6 -13 2 -13 -3 0 7 -11 24 -25 18 -15 28 -32 24 -40 -3 -8 -9 -13
-13 -10 -5 3 -21 -6 -37 -20 -36 -32 -40 -35 -90 -70 -24 -17 -41 -36 -38 -42
2 -7 0 -13 -5 -13 -5 0 -3 -17 5 -37 20 -57 39 -93 48 -93 5 0 6 -4 2 -9 -3
-5 10 -25 29 -45 18 -20 31 -36 27 -36 -7 -1 20 -17 34 -21 6 -1 27 -19 49
-39 38 -37 38 -37 20 -59 -19 -22 -70 -54 -78 -49 -3 2 -12 -6 -20 -17 -9 -11
-16 -16 -16 -11 0 5 -9 1 -20 -9 -11 -10 -20 -15 -20 -11 0 4 -13 -2 -30 -14
-16 -12 -30 -18 -30 -14 0 3 -6 2 -12 -4 -17 -13 -140 -53 -146 -47 -3 3 -11
0 -19 -6 -10 -9 -13 -8 -13 1 0 9 -4 9 -12 2 -7 -6 -30 -9 -50 -8 -21 1 -38
-2 -38 -7 0 -5 -10 -5 -22 -1 -13 4 -29 7 -35 7 -7 0 -13 3 -13 7 0 3 -15 5
-32 5 -18 -1 -61 8 -96 20 -34 13 -62 21 -62 18 0 -2 -7 3 -16 11 -8 9 -22 16
-30 16 -8 0 -14 4 -14 9 0 5 -10 13 -22 17 -22 6 -95 64 -83 64 4 0 -12 18
-34 40 -39 39 -87 116 -83 133 1 4 -2 7 -8 7 -6 0 -9 3 -8 8 1 4 -2 22 -6 41
-12 51 -13 101 -1 101 6 0 5 3 -1 8 -13 8 -11 44 5 85 6 15 8 27 5 27 -4 0 -1
7 6 15 7 8 9 15 5 15 -4 0 -2 7 5 15 7 8 9 15 4 15 -5 0 -1 5 9 11 9 6 15 14
13 18 -3 4 4 17 14 29 11 12 20 23 20 26 0 2 12 17 28 33 15 16 38 43 52 61
14 17 31 31 38 32 6 0 12 5 12 10 0 6 7 10 15 10 8 0 15 4 15 10 0 5 11 12 25
16 14 3 25 10 25 14 0 5 10 12 22 16 12 3 28 13 36 20 7 8 20 14 28 14 8 0 14
4 14 9 0 5 8 11 18 15 29 10 86 47 100 64 6 9 12 13 12 9 0 -15 104 91 127
131 14 23 29 42 35 42 6 0 8 7 4 15 -3 8 -1 15 4 15 5 0 7 7 4 15 -4 8 -1 15
5 15 6 0 10 3 10 8 -1 4 0 9 1 12 3 10 20 95 24 125 1 11 -2 26 -7 33 -6 8 -5
12 2 12 8 0 8 6 2 18 -14 25 -24 56 -23 65 1 4 -3 7 -8 7 -6 0 -10 6 -10 13 0
7 -8 22 -18 33 -10 10 -18 22 -18 26 1 3 -12 17 -29 29 -16 13 -36 29 -43 36
-7 7 -20 13 -28 13 -8 0 -14 4 -14 9 0 6 -10 8 -22 6 -62 -12 -78 -17 -78 -26
0 -6 -4 -8 -9 -4 -5 3 -20 -9 -32 -27 -13 -18 -28 -36 -34 -40 -6 -5 -6 -8 0
-8 6 0 4 -4 -3 -9 -8 -5 -15 -20 -15 -35 -1 -14 -6 -26 -11 -26 -4 0 -6 -7 -2
-15 3 -8 1 -15 -5 -15 -6 0 -8 -4 -5 -9 4 -5 3 -11 -1 -13 -5 -1 -20 -19 -35
-39 -26 -34 -26 -38 -10 -52 15 -14 20 -13 50 14 17 16 32 32 32 37 0 5 9 18
20 30 12 12 18 22 14 22 -3 0 -1 7 6 15 7 8 9 15 5 15 -4 0 -2 6 4 13 6 8 8
17 4 20 -3 4 -1 7 5 7 7 0 12 5 12 11 0 17 50 60 61 54 5 -4 9 -1 9 6 0 8 5 7
17 -2 9 -8 18 -13 20 -11 5 4 73 -55 74 -65 1 -5 6 -19 11 -33 27 -69 26 -150
-2 -224 -5 -15 -8 -26 -5 -26 2 0 -7 -12 -20 -26 -13 -14 -23 -29 -22 -33 1
-3 -2 -7 -6 -8 -4 -1 -22 -20 -40 -42 -18 -22 -36 -40 -40 -40 -5 -1 -23 -12
-40 -25 -18 -13 -63 -39 -102 -57 -38 -19 -72 -37 -73 -42 -2 -4 -8 -5 -13 -1
-5 3 -9 0 -9 -5 0 -6 -4 -11 -9 -11 -18 0 -151 -82 -151 -93 0 -5 -3 -8 -6 -5
-3 3 -30 -18 -61 -47 -31 -29 -62 -51 -70 -48 -7 3 -13 0 -13 -7 0 -6 -7 -18
-15 -27 -9 -8 -14 -20 -12 -26 2 -6 -4 -19 -12 -29 -9 -10 -17 -22 -17 -26 -5
-25 -18 -52 -24 -52 -7 0 -23 -50 -21 -65 1 -3 -5 -20 -12 -38 -13 -31 -14
-67 -3 -157 9 -71 16 -102 29 -124 6 -12 10 -27 9 -33 -2 -7 2 -13 8 -13 6 0
8 -5 5 -11 -8 -11 44 -119 57 -119 4 0 8 -5 8 -12 0 -9 -3 -9 -12 0 -7 7 -22
12 -35 12 -13 0 -23 4 -23 9 0 4 -10 7 -23 7 -12 -1 -28 2 -34 7 -7 5 -22 7
-33 4 -11 -3 -26 0 -33 7 -10 10 -82 14 -133 7 -21 -2 -22 -38 -2 -52 11 -8
29 -22 40 -31 12 -10 27 -18 35 -18 7 0 13 -5 13 -12 0 -9 3 -9 11 -1 9 9 15
8 26 -3 8 -8 25 -14 38 -14 13 0 25 -5 27 -12 3 -7 18 -13 34 -14 16 -1 30 -3
32 -4 1 -2 5 -3 10 -5 4 -1 20 -7 35 -13 15 -7 31 -11 35 -10 4 1 20 -6 35
-16 21 -14 31 -16 36 -8 5 9 16 5 37 -13 16 -14 30 -21 32 -16 2 6 19 1 38 -9
19 -11 34 -17 34 -14 0 2 12 -7 28 -21 29 -28 102 -70 115 -67 4 1 7 -2 7 -7
0 -8 19 -18 50 -26 3 -1 25 -11 50 -23 25 -11 57 -23 72 -26 15 -2 33 -8 40
-13 7 -4 22 -8 33 -8 11 0 25 -3 30 -7 6 -3 19 -4 29 -2 11 1 27 -1 36 -6 11
-6 21 -5 28 2 8 8 12 8 12 2 0 -11 92 -10 166 1 21 3 47 7 57 8 9 1 17 5 17 9
0 4 8 7 18 7 37 1 52 5 52 12 0 5 7 6 15 3 8 -4 15 -2 15 3 0 5 6 10 13 11 12
1 47 9 57 12 3 1 8 2 13 1 4 0 7 3 7 7 0 5 18 15 40 22 22 7 40 17 40 21 0 4
12 12 28 18 29 12 59 29 79 48 7 6 26 17 43 25 16 7 30 17 30 23 0 5 11 -3 24
-20 24 -30 46 -38 57 -22 3 4 23 -8 44 -28 22 -19 43 -35 48 -35 5 0 25 -13
44 -30 18 -16 40 -30 49 -30 8 0 27 -9 43 -20 41 -31 82 -33 114 -6 15 13 27
28 27 33 0 6 7 16 15 23 9 7 13 15 11 17 -2 3 1 24 9 48 7 24 10 46 7 49 -3 4
1 6 8 6 10 0 11 3 3 11 -12 12 -7 39 8 39 5 0 9 -6 9 -14 0 -24 71 -49 150
-53 41 -2 91 -5 110 -7 19 -1 51 3 71 10 27 9 40 9 48 1 8 -8 11 -8 11 2 0 10
3 11 14 2 9 -8 16 -8 20 -2 4 6 13 8 21 4 9 -3 22 0 30 7 9 8 15 8 15 2 0 -7
10 -8 31 -2 18 5 36 7 40 4 5 -3 24 2 42 11 18 8 46 17 63 19 59 8 230 66 297
101 16 8 33 13 38 9 5 -3 9 0 9 6 0 7 7 10 15 6 8 -3 15 -2 15 2 0 4 12 8 26
9 15 0 29 5 33 10 8 13 41 25 71 28 14 1 25 3 25 5 0 1 9 3 20 4 11 2 40 9 65
17 25 7 50 14 55 15 29 6 55 17 55 26 0 5 4 7 9 3 5 -3 12 -1 16 4 3 6 12 8
20 4 8 -3 15 1 15 8 0 7 3 10 6 6 3 -3 22 3 41 14 19 11 39 17 44 14 5 -4 12
1 15 9 3 9 10 13 15 10 5 -3 9 0 9 5 0 6 9 11 20 11 11 0 20 5 20 10 0 6 3 9
8 8 15 -3 62 14 62 23 0 6 12 22 28 38 44 45 59 66 54 79 -2 7 0 12 6 12 5 0
9 6 10 13 0 6 3 35 7 62 3 28 7 71 8 97 1 27 4 48 7 48 10 0 -6 166 -18 184
-3 6 -7 22 -8 36 -1 14 -5 33 -8 42 -4 9 -9 22 -10 30 -2 7 -6 20 -10 29 -4 9
-6 20 -5 25 1 5 -5 26 -15 46 -9 21 -17 41 -17 45 -1 5 -6 17 -12 28 -6 11
-10 24 -9 29 2 5 -1 12 -7 15 -5 4 -12 18 -14 31 -10 52 -19 80 -27 80 -4 0
-6 11 -5 25 2 14 -1 25 -7 25 -6 0 -8 6 -5 14 3 8 0 22 -8 32 -7 10 -11 24 -8
31 3 7 1 13 -5 13 -6 0 -8 8 -5 19 3 10 0 22 -6 25 -5 4 -8 13 -4 21 3 8 1 15
-5 15 -5 0 -8 11 -7 25 2 14 0 25 -5 25 -4 0 -7 10 -6 23 1 12 -2 25 -6 28 -5
3 -11 25 -14 50 -3 24 -13 52 -22 62 -8 9 -12 17 -7 17 4 0 2 6 -4 14 -9 10
-9 16 -1 21 7 5 8 11 1 19 -5 6 -15 34 -21 61 -11 54 -41 125 -52 125 -4 0 -5
9 -3 19 2 11 -3 22 -11 25 -7 3 -11 12 -8 21 3 8 1 15 -6 15 -6 0 -9 4 -5 10
3 5 1 17 -5 27 -19 33 -33 78 -34 108 -1 17 -4 35 -7 40 -3 6 -5 34 -4 62 0
29 -3 53 -6 53 -4 0 -6 17 -4 37 2 28 -4 43 -22 61 -13 13 -30 21 -38 18 -8
-3 -15 -1 -15 4 0 5 -15 4 -35 -1 -19 -6 -39 -7 -44 -4 -5 3 -12 1 -16 -4 -3
-6 -12 -8 -20 -4 -8 3 -15 0 -15 -7 0 -6 -4 -9 -9 -6 -8 5 -82 14 -181 22 -25
2 -70 6 -100 9 -104 10 -260 12 -260 3 0 -5 -6 -6 -12 -1 -29 17 -128 27 -128
11 0 -7 -5 -6 -15 2 -9 7 -15 8 -15 2 0 -6 -8 -9 -17 -7 -10 2 -18 4 -18 5 0
3 -42 10 -95 15 -76 6 -169 21 -202 31 -28 8 -62 15 -88 18 -14 2 -36 8 -50
13 -14 6 -28 9 -32 6 -5 -2 -8 0 -8 4 0 5 -8 10 -17 11 -21 2 -58 10 -58 12 0
1 -17 2 -38 3 -20 1 -37 -1 -37 -4z"/>
</g>
</svg>
