<?xml version="1.0" standalone="no"?>
<!DOCTYPE svg PUBLIC "-//W3C//DTD SVG 20010904//EN"
 "http://www.w3.org/TR/2001/REC-SVG-20010904/DTD/svg10.dtd">
<svg version="1.0" xmlns="http://www.w3.org/2000/svg"
 width="406.000000pt" height="532.000000pt" viewBox="0 0 406.000000 532.000000"
 preserveAspectRatio="xMidYMid meet">
<metadata>
Created by potrace 1.13, written by Peter Selinger 2001-2015
</metadata>
<g transform="translate(0.000000,532.000000) scale(0.100000,-0.100000)"
fill="#000000" stroke="none">
<path d="M1950 5271 c-7 -23 -17 -41 -22 -41 -5 0 -9 -12 -8 -27 2 -34 -9 -73
-21 -73 -5 0 -9 -11 -9 -25 0 -14 -4 -25 -9 -25 -5 0 -12 -11 -15 -25 -4 -14
-11 -25 -16 -25 -6 0 -10 -6 -10 -13 0 -33 -149 -128 -222 -141 -24 -4 -38
-13 -38 -21 0 -8 -4 -15 -10 -15 -15 0 -50 -33 -50 -46 0 -7 -13 -25 -28 -41
-16 -15 -32 -40 -35 -54 -8 -32 -121 -139 -147 -139 -10 0 -27 -11 -37 -24
-10 -13 -51 -44 -90 -69 -40 -26 -73 -50 -73 -55 0 -5 -26 -23 -57 -39 -116
-61 -128 -68 -143 -85 -9 -9 -29 -20 -44 -24 -15 -3 -30 -13 -33 -20 -3 -8
-12 -14 -20 -14 -8 0 -31 -11 -51 -25 -20 -14 -40 -25 -44 -25 -13 0 -190 -81
-223 -102 -55 -36 -106 -65 -160 -91 -33 -16 -84 -41 -112 -55 -29 -14 -53
-29 -53 -34 0 -4 -6 -8 -14 -8 -19 0 -86 -65 -120 -115 -33 -50 -35 -117 -6
-194 22 -55 123 -206 169 -251 14 -14 38 -41 52 -60 15 -19 41 -51 59 -70 18
-19 83 -98 145 -175 62 -77 128 -156 147 -176 18 -20 43 -48 55 -62 11 -14 27
-29 35 -33 7 -5 25 -27 40 -49 49 -73 257 -275 284 -275 5 0 29 -14 54 -30 51
-34 70 -36 130 -15 24 8 45 13 48 10 3 -2 -9 -20 -26 -39 -20 -23 -41 -69 -62
-136 -18 -55 -30 -103 -28 -106 3 -2 24 -2 48 2 31 5 54 19 91 54 38 37 55 46
74 43 14 -3 38 3 58 16 19 12 44 21 55 21 11 0 23 4 27 10 3 5 15 0 26 -11 15
-15 19 -28 14 -47 -3 -15 -10 -54 -16 -87 -5 -33 -12 -67 -15 -75 -8 -20 -13
-250 -5 -250 10 0 5 -65 -7 -87 -7 -12 -12 -33 -12 -47 0 -23 4 -26 33 -26 33
0 91 43 116 85 11 17 12 15 7 -18 -3 -21 -25 -71 -49 -110 -24 -40 -50 -94
-57 -122 -13 -47 -44 -114 -59 -125 -17 -13 -30 -101 -22 -147 5 -26 12 -96
16 -154 l7 -106 40 -44 c22 -24 44 -54 49 -66 5 -14 17 -23 29 -23 11 0 20 1
20 3 0 10 34 238 44 302 l14 80 2 -55 c1 -30 1 -77 0 -105 -1 -27 6 -67 15
-87 10 -26 13 -51 9 -79 -6 -35 -4 -41 14 -46 20 -5 32 -30 32 -68 0 -11 10
-25 23 -30 12 -6 26 -24 31 -42 6 -19 18 -34 30 -37 12 -3 29 -19 39 -36 10
-17 30 -42 43 -55 14 -14 36 -50 50 -81 33 -74 108 -148 217 -212 97 -58 127
-65 127 -29 0 37 31 49 81 32 23 -8 48 -15 55 -15 19 0 18 44 -2 81 -8 17 -14
37 -12 46 6 28 54 -22 78 -82 12 -30 26 -55 31 -55 5 0 9 -5 9 -11 0 -9 39
-67 65 -95 6 -6 21 -25 34 -42 13 -18 30 -32 37 -32 8 0 14 -4 14 -8 0 -10 45
-32 65 -32 9 0 15 9 15 21 0 23 0 23 88 -2 51 -14 60 -8 44 33 -10 28 -10 29
6 15 9 -8 35 -23 57 -33 22 -10 44 -24 48 -31 4 -7 17 -13 27 -13 15 0 20 7
20 25 0 14 -6 25 -12 25 -7 0 -24 19 -37 42 -61 108 -223 254 -351 318 -25 12
-53 31 -63 41 -10 11 -27 19 -38 19 -10 0 -78 23 -151 50 -72 28 -164 59 -204
70 -40 10 -83 24 -96 31 -51 26 -158 121 -158 140 0 4 -6 14 -13 21 -21 21
-69 169 -71 218 -1 25 -5 50 -9 57 -4 7 -1 39 8 72 8 32 15 72 15 88 0 16 4
33 9 38 4 6 14 31 21 58 7 26 17 50 21 53 5 3 9 18 9 35 0 16 5 29 10 29 6 0
10 7 10 15 0 8 5 15 10 15 6 0 10 11 10 24 0 14 5 28 10 31 6 3 10 14 10 24 0
9 11 40 24 67 13 28 34 84 47 124 12 40 28 85 35 99 8 14 14 32 14 39 0 7 4
20 9 30 6 9 20 61 31 114 21 91 40 121 40 62 0 -35 42 -218 51 -222 5 -2 5
-10 2 -18 -3 -9 -1 -25 5 -37 12 -26 35 -79 54 -127 31 -75 77 -261 96 -395
36 -237 42 -293 42 -376 0 -91 19 -149 47 -149 27 0 43 20 43 53 0 46 28 87
92 131 23 16 23 18 20 214 -2 145 -6 201 -16 212 -25 29 -97 193 -106 243 -6
27 -10 69 -10 93 l0 43 58 -33 c69 -39 127 -53 148 -35 17 14 18 51 3 66 -7 7
-13 29 -14 50 -1 21 -7 56 -13 78 -6 22 -14 62 -17 88 -4 28 -15 57 -26 68
-10 10 -19 28 -19 38 0 11 -4 23 -10 26 -12 7 -31 76 -34 125 -3 35 -2 36 31
32 25 -3 33 0 33 12 0 9 7 16 15 16 8 0 15 -4 15 -10 0 -16 71 -24 81 -9 7 11
11 10 22 -5 11 -15 22 -18 57 -13 45 6 47 5 105 -51 37 -36 70 -40 89 -9 8 13
6 27 -11 60 -11 23 -24 56 -28 72 -3 17 -19 49 -35 71 l-29 41 72 5 c40 3 88
12 107 21 33 16 150 118 150 130 0 4 18 24 40 47 22 22 50 55 62 74 13 19 50
63 83 98 33 35 85 93 115 128 30 35 91 104 135 153 44 49 96 108 115 130 19
23 55 63 80 88 25 26 59 68 75 95 17 26 38 59 47 73 9 14 17 33 17 41 1 8 7
27 15 41 7 15 14 59 15 100 1 70 -1 77 -37 127 -40 57 -44 60 -252 161 -69 33
-208 111 -310 172 -102 61 -205 119 -230 129 -47 19 -181 89 -190 100 -3 3
-34 26 -70 50 -36 24 -99 69 -140 99 -41 31 -91 67 -110 80 -19 13 -43 33 -53
45 -10 11 -29 33 -43 48 -13 15 -32 44 -43 63 -32 61 -121 143 -194 181 -38
19 -78 44 -90 54 -11 11 -25 20 -30 20 -20 0 -89 81 -98 115 -6 19 -14 35 -19
35 -6 0 -10 13 -10 29 0 17 -4 33 -10 36 -5 3 -10 16 -10 28 -1 43 -49 83
-111 92 l-45 7 -14 -41z m70 -431 c0 -5 -5 -10 -11 -10 -5 0 -7 5 -4 10 3 6 8
10 11 10 2 0 4 -4 4 -10z m-46 -205 c-4 -8 -8 -15 -10 -15 -2 0 -4 7 -4 15 0
8 4 15 10 15 5 0 7 -7 4 -15z m86 -25 c0 -5 -4 -10 -10 -10 -5 0 -10 5 -10 10
0 6 5 10 10 10 6 0 10 -4 10 -10z m10 -192 c0 -5 -4 -8 -10 -8 -5 0 -10 10
-10 23 0 18 2 19 10 7 5 -8 10 -18 10 -22z m-61 -20 c0 -13 -3 -17 -6 -10 -2
6 -12 12 -21 13 -14 0 -13 2 3 9 11 5 21 9 23 9 1 1 2 -9 1 -21z m-69 -121
c10 -4 8 -6 -7 -6 -16 -1 -23 5 -23 17 0 10 3 13 8 6 4 -6 14 -14 22 -17z
m-583 -13 c-3 -3 -12 -4 -19 -1 -8 3 -5 6 6 6 11 1 17 -2 13 -5z m-210 -46
c-3 -8 -6 -5 -6 6 -1 11 2 17 5 13 3 -3 4 -12 1 -19z m-20 -80 c-3 -8 -6 -5
-6 6 -1 11 2 17 5 13 3 -3 4 -12 1 -19z m120 -24 c-3 -3 -12 -4 -19 -1 -8 3
-5 6 6 6 11 1 17 -2 13 -5z m-160 -36 c-3 -8 -6 -5 -6 6 -1 11 2 17 5 13 3 -3
4 -12 1 -19z m250 -24 c-3 -3 -12 -4 -19 -1 -8 3 -5 6 6 6 11 1 17 -2 13 -5z
m-487 -184 c0 -5 -8 -10 -17 -10 -15 0 -16 2 -3 10 19 12 20 12 20 0z m590
-130 c0 -5 -5 -10 -11 -10 -5 0 -7 5 -4 10 3 6 8 10 11 10 2 0 4 -4 4 -10z
m-254 -74 c16 -17 18 -26 4 -26 -5 0 -14 9 -20 20 -12 23 -5 26 16 6z m97
-743 c-7 -2 -19 -2 -25 0 -7 3 -2 5 12 5 14 0 19 -2 13 -5z m1393 -289 c19
-20 34 -41 34 -45 0 -5 6 -9 13 -10 9 0 9 -2 0 -6 -13 -5 -103 59 -116 83 -17
30 35 13 69 -22z m-1136 -16 c-32 -26 -38 -13 -9 18 15 16 25 21 28 13 2 -7
-6 -21 -19 -31z m36 -1324 c-8 -21 -15 -32 -15 -23 -1 22 22 86 26 73 2 -5 -3
-28 -11 -50z m91 -91 c-3 -10 -5 -2 -5 17 0 19 2 27 5 18 2 -10 2 -26 0 -35z"/>
</g>
</svg>
