<?xml version="1.0" standalone="no"?>
<!DOCTYPE svg PUBLIC "-//W3C//DTD SVG 20010904//EN"
 "http://www.w3.org/TR/2001/REC-SVG-20010904/DTD/svg10.dtd">
<svg version="1.0" xmlns="http://www.w3.org/2000/svg"
 width="337.000000pt" height="413.000000pt" viewBox="0 0 337.000000 413.000000"
 preserveAspectRatio="xMidYMid meet">
<metadata>
Created by potrace 1.13, written by Peter Selinger 2001-2015
</metadata>
<g transform="translate(0.000000,413.000000) scale(0.100000,-0.100000)"
fill="#000000" stroke="none">
<path d="M1533 3875 c-103 -75 -151 -117 -219 -196 -48 -55 -105 -110 -126
-122 -22 -12 -53 -29 -70 -39 -16 -9 -37 -23 -46 -31 -28 -23 -244 -123 -284
-131 -21 -4 -61 -17 -90 -30 -29 -13 -69 -27 -88 -31 -19 -4 -60 -17 -90 -30
-60 -25 -119 -45 -218 -74 -55 -16 -72 -28 -120 -79 -57 -61 -67 -72 -89 -108
-87 -137 -87 -136 -91 -220 l-4 -80 71 -146 c39 -80 82 -162 96 -182 14 -20
25 -39 25 -43 0 -3 22 -33 49 -67 27 -34 55 -75 63 -92 7 -16 22 -42 34 -59
13 -16 41 -66 64 -109 38 -74 126 -215 141 -226 3 -3 18 -25 33 -49 28 -44
267 -291 282 -291 5 0 27 -16 49 -35 55 -49 101 -68 141 -62 32 5 45 -5 24
-18 -6 -4 -24 -34 -42 -68 -22 -45 -31 -77 -32 -114 0 -60 15 -78 74 -88 19
-4 46 -11 60 -16 14 -5 69 -11 122 -12 86 -2 97 -4 102 -21 4 -16 11 -18 45
-13 l41 5 21 -71 c55 -188 151 -360 264 -472 132 -133 237 -190 437 -241 97
-25 112 -26 262 -20 252 10 303 22 426 101 148 96 224 201 252 347 7 38 16 68
20 68 5 0 8 18 8 40 0 22 -4 40 -9 40 -4 0 -11 30 -15 68 -9 91 -33 167 -73
227 -18 27 -33 54 -33 60 0 14 -113 125 -127 125 -6 0 11 -66 43 -157 51 -151
53 -162 54 -264 0 -165 -33 -254 -131 -351 -72 -72 -140 -103 -261 -119 -81
-10 -104 -10 -178 5 -250 51 -420 215 -524 504 -14 40 -26 86 -26 102 l0 29
103 -1 c94 -1 108 2 180 32 85 35 112 63 104 107 -6 35 -34 151 -43 181 -6 20
-3 22 30 22 31 0 105 35 126 61 3 3 44 31 91 63 104 68 194 148 234 207 17 24
40 55 53 69 12 14 22 29 22 35 0 5 11 20 23 32 33 30 107 141 107 158 0 8 4
15 8 15 5 0 14 10 21 23 11 21 21 38 96 161 45 73 96 148 117 170 10 11 18 26
18 33 0 7 4 13 9 13 5 0 13 9 16 20 6 18 60 108 82 135 20 25 43 89 43 118 0
18 -11 55 -24 83 -13 27 -31 68 -39 90 -18 46 -121 209 -165 258 -15 17 -56
44 -92 60 -36 16 -72 35 -81 43 -15 13 -88 43 -151 63 -33 10 -151 69 -223
111 -27 15 -58 29 -68 29 -34 0 -193 89 -297 165 -116 86 -200 159 -235 205
-22 29 -56 67 -75 84 -19 17 -50 48 -70 69 -59 59 -80 54 -237 -58z"/>
</g>
</svg>
