<?xml version="1.0" standalone="no"?>
<!DOCTYPE svg PUBLIC "-//W3C//DTD SVG 20010904//EN"
 "http://www.w3.org/TR/2001/REC-SVG-20010904/DTD/svg10.dtd">
<svg version="1.0" xmlns="http://www.w3.org/2000/svg"
 width="654.000000pt" height="670.000000pt" viewBox="0 0 654.000000 670.000000"
 preserveAspectRatio="xMidYMid meet">
<metadata>
Created by potrace 1.13, written by Peter Selinger 2001-2015
</metadata>
<g transform="translate(0.000000,670.000000) scale(0.100000,-0.100000)"
fill="#000000" stroke="none">
<path d="M2545 5510 c-11 -4 -23 -6 -27 -4 -4 3 -9 0 -13 -5 -3 -6 -12 -8 -20
-4 -8 3 -15 1 -15 -3 0 -5 -12 -10 -27 -11 -15 0 -33 -9 -40 -20 -7 -10 -21
-27 -31 -38 -21 -22 -57 -119 -56 -147 1 -10 -2 -18 -5 -18 -4 0 -5 -15 -3
-32 2 -18 -1 -52 -6 -75 -7 -28 -6 -45 1 -52 8 -8 7 -11 -2 -11 -10 0 -11 -3
-3 -13 7 -8 7 -18 2 -27 -5 -8 -6 -19 -3 -24 11 -17 9 -126 -2 -126 -6 0 -6
-3 0 -8 10 -7 12 -259 2 -307 -2 -11 -1 -32 4 -47 4 -16 5 -28 1 -28 -4 0 -7
-20 -7 -45 0 -25 2 -45 5 -45 3 0 5 -31 4 -70 0 -38 3 -70 8 -70 4 0 4 -10 0
-22 -13 -35 -5 -223 13 -338 1 -8 5 -22 9 -31 4 -9 6 -20 5 -25 -2 -14 13 -54
20 -54 4 0 8 -8 9 -17 7 -66 25 -90 82 -110 58 -20 65 -39 16 -41 -46 -2 -58
-5 -73 -19 -7 -6 -29 -21 -50 -34 -21 -13 -40 -25 -43 -28 -3 -4 -18 -13 -35
-21 -34 -18 -36 -31 -7 -45 11 -6 26 -16 33 -22 14 -10 117 -10 145 1 8 3 14
0 14 -8 0 -15 34 -34 74 -40 16 -3 34 -10 40 -16 5 -5 21 -10 36 -11 14 0 19
-3 13 -6 -9 -3 -10 -10 -3 -23 7 -14 6 -23 -6 -34 -8 -9 -19 -16 -24 -16 -5 0
-32 -22 -60 -50 -28 -27 -54 -50 -58 -51 -27 -6 -50 -24 -45 -35 3 -8 0 -14
-6 -14 -6 0 -11 -5 -11 -11 0 -6 -7 -17 -15 -25 -8 -9 -15 -13 -15 -9 0 4 -7
0 -15 -9 -8 -8 -15 -19 -15 -25 0 -6 -9 -16 -20 -23 -11 -7 -20 -20 -20 -28 0
-9 -9 -22 -19 -30 -11 -7 -18 -17 -15 -22 3 -4 0 -9 -5 -9 -21 -3 -26 -5 -48
-19 -49 -31 -11 -73 67 -75 25 -1 50 1 55 4 26 14 36 9 20 -10 -10 -10 -22
-16 -26 -13 -5 3 -9 1 -9 -5 0 -6 -12 -14 -27 -17 -16 -4 -37 -12 -48 -18 -23
-12 -27 -13 -54 -15 -11 0 -26 -8 -35 -16 -8 -8 -19 -15 -25 -15 -6 0 -11 -4
-11 -10 0 -5 -9 -10 -20 -10 -12 0 -20 -7 -20 -17 0 -9 -3 -13 -6 -10 -4 3
-15 2 -26 -4 -11 -6 -32 -13 -46 -15 -15 -3 -36 -13 -47 -23 -11 -10 -27 -21
-36 -24 -9 -3 -27 -27 -40 -54 -13 -26 -35 -60 -49 -75 -14 -15 -32 -39 -40
-55 -8 -15 -23 -35 -32 -44 -10 -9 -18 -21 -18 -28 0 -6 -4 -11 -8 -11 -5 0
-8 -10 -6 -22 1 -13 3 -23 4 -23 1 0 2 -21 3 -48 1 -26 -1 -47 -5 -47 -13 0
-9 -38 5 -43 18 -6 43 11 108 76 33 32 59 55 59 50 0 -4 5 0 11 10 5 9 17 17
24 17 8 0 15 5 15 11 0 12 30 44 30 32 0 -4 5 0 11 9 5 10 20 23 32 29 16 8
13 3 -10 -21 -18 -18 -33 -36 -33 -40 0 -4 -18 -26 -40 -49 -22 -22 -40 -50
-40 -60 0 -11 -5 -23 -10 -26 -6 -4 -8 -10 -5 -15 3 -4 -10 -21 -29 -36 -29
-24 -32 -32 -25 -53 7 -18 4 -32 -11 -59 -12 -19 -17 -38 -13 -41 12 -9 12
-61 0 -61 -5 0 -6 -12 -3 -27 12 -46 14 -83 7 -83 -9 0 -8 -30 1 -45 3 -6 4
-19 2 -30 -2 -11 -5 -30 -6 -42 -1 -13 -6 -23 -10 -23 -4 0 -5 -7 -2 -15 4 -8
2 -15 -3 -15 -4 0 -9 -34 -9 -75 0 -41 3 -75 6 -75 4 0 6 -10 5 -23 -1 -12 1
-26 5 -32 4 -5 10 -23 14 -40 14 -60 50 -143 68 -154 14 -9 18 -8 18 4 0 8 3
15 8 16 4 0 15 2 24 4 19 3 61 -28 51 -38 -3 -4 2 -9 11 -13 9 -3 14 -10 11
-14 -3 -4 1 -13 9 -19 10 -8 18 -6 35 8 13 11 20 25 16 30 -3 6 -2 11 3 11 6
0 10 6 9 13 -2 73 29 57 38 -19 1 -13 -2 -24 -7 -24 -5 0 -7 -4 -3 -9 3 -5 1
-12 -5 -16 -6 -4 -8 -11 -5 -16 4 -5 2 -9 -3 -9 -5 0 -8 -12 -6 -27 1 -15 -1
-34 -6 -43 -6 -11 -5 -21 2 -28 7 -7 8 -12 2 -12 -5 0 -9 -36 -10 -80 0 -44 4
-80 9 -80 4 0 6 -8 3 -17 -7 -22 42 -85 50 -65 9 21 34 13 47 -16 6 -15 22
-38 35 -52 l23 -25 19 25 c19 24 24 19 19 -17 0 -3 6 -10 15 -15 8 -5 13 -15
10 -23 -4 -8 -1 -15 6 -15 6 0 10 -10 8 -21 -3 -22 25 -49 38 -36 8 8 15 99
15 207 0 70 -2 92 -17 173 -3 17 -6 39 -8 47 -1 9 -5 20 -8 25 -3 6 -9 27 -13
48 -4 20 -11 37 -16 37 -5 0 -8 3 -7 8 1 8 -9 39 -23 64 -6 12 -6 18 2 18 8 0
9 4 0 13 -6 8 -8 16 -5 20 3 3 -3 8 -13 11 -17 6 -60 82 -55 99 1 4 -3 7 -8 7
-6 0 -10 7 -10 15 0 8 -5 15 -11 15 -5 0 -7 5 -4 10 3 6 1 10 -4 10 -6 0 -11
7 -11 15 0 8 -4 15 -8 15 -4 0 -13 15 -20 34 -7 18 -24 46 -37 60 -14 15 -25
31 -25 37 0 5 -8 17 -17 27 -23 23 -55 91 -48 102 3 5 1 11 -5 15 -5 3 -10 16
-10 29 0 12 -5 27 -12 34 -7 7 -8 12 -2 12 5 0 10 9 11 20 1 11 -2 20 -7 20
-6 0 -6 10 -1 23 4 12 7 32 6 45 -1 13 2 25 7 28 4 3 6 10 3 15 -4 5 -1 9 5 9
7 0 10 7 6 15 -3 8 -2 15 3 15 8 0 36 76 35 95 -1 6 5 16 12 23 8 7 14 9 14 5
0 -4 9 5 19 21 11 17 18 33 16 37 -3 4 20 24 50 44 30 21 62 49 70 62 9 13 20
21 25 18 4 -3 15 2 23 10 9 8 20 15 26 15 6 0 11 5 11 11 0 5 4 8 9 5 5 -3 11
1 15 9 3 8 12 12 19 9 8 -3 23 6 34 20 11 14 23 23 26 19 4 -3 13 -1 21 6 11
9 15 9 18 -1 3 -8 9 -5 17 10 6 12 20 22 30 22 11 0 21 7 25 15 3 8 14 15 25
15 11 0 21 3 23 8 3 6 64 38 86 44 4 1 16 10 26 20 10 9 23 15 28 12 4 -3 8 1
8 8 0 13 44 38 67 38 7 0 13 5 13 11 0 5 4 8 9 5 5 -3 11 1 15 9 3 8 13 15 21
15 9 0 33 16 53 35 20 19 42 35 47 35 6 0 24 14 42 30 18 17 34 30 37 30 13 0
5 -27 -12 -46 -10 -10 -19 -23 -20 -29 -1 -5 -8 -17 -15 -25 -7 -9 -12 -21 -9
-28 2 -7 -2 -12 -8 -12 -7 0 -10 -7 -6 -15 3 -8 2 -15 -2 -15 -11 0 -43 -61
-37 -70 3 -4 -2 -10 -10 -14 -8 -3 -15 -14 -15 -25 0 -11 -4 -22 -9 -25 -7 -5
-25 -84 -21 -95 1 -2 -3 -7 -9 -10 -6 -4 -12 -16 -14 -26 -1 -11 -6 -26 -10
-32 -5 -7 -5 -13 -2 -13 4 0 -2 -12 -13 -27 -11 -16 -25 -46 -32 -68 -7 -22
-20 -48 -29 -59 -9 -10 -15 -21 -13 -25 1 -3 -3 -13 -10 -22 -22 -27 -38 -53
-53 -86 -9 -18 -20 -33 -26 -33 -5 0 -7 -4 -4 -10 3 -5 -3 -19 -14 -31 -11
-12 -18 -25 -16 -29 3 -4 -5 -16 -16 -26 -12 -11 -30 -36 -40 -56 -11 -21 -24
-38 -30 -38 -6 0 -9 -5 -7 -12 5 -13 -9 -31 -54 -78 -16 -16 -28 -31 -28 -35
0 -3 -9 -15 -19 -27 -11 -11 -24 -33 -30 -48 -19 -56 42 -90 70 -39 5 11 16
19 24 19 8 0 15 5 15 11 0 5 5 7 10 4 6 -3 10 -2 10 2 0 11 90 10 106 0 7 -4
15 0 18 9 3 8 10 13 15 10 9 -6 26 22 23 37 -1 4 5 7 13 7 8 0 19 9 25 19 5
11 16 25 22 33 7 7 25 31 39 53 15 22 44 60 67 84 38 41 50 75 55 149 1 12 5
22 10 22 4 0 7 11 7 25 0 14 4 25 8 25 5 0 8 14 7 30 -1 17 2 30 7 30 4 0 8 6
8 14 0 8 6 21 13 28 7 7 18 25 24 41 7 15 17 27 23 27 5 0 10 5 10 11 0 11 29
44 31 35 4 -17 7 -24 24 -61 10 -22 17 -45 16 -52 -1 -6 9 -19 21 -27 12 -9
18 -16 13 -16 -16 -1 28 -24 48 -25 9 -1 17 4 17 12 0 7 4 13 10 13 5 0 8 10
7 22 -3 13 5 30 20 42 12 12 24 30 26 42 1 11 17 43 35 71 18 27 32 55 32 61
0 7 5 12 11 12 5 0 7 5 4 10 -3 6 -1 10 5 10 7 0 8 6 1 18 -7 14 -6 25 4 39 8
11 12 23 10 25 -8 8 36 101 59 125 19 20 21 20 36 3 8 -9 26 -17 40 -16 19 1
24 -4 22 -16 -2 -10 2 -18 8 -18 5 0 10 -7 10 -15 0 -14 5 -17 40 -19 8 -1 15
-11 15 -23 0 -23 39 -63 63 -63 8 0 12 -6 8 -15 -3 -8 -2 -15 3 -15 4 0 7 -16
6 -35 -2 -19 1 -38 6 -41 5 -3 7 -10 4 -15 -11 -17 24 -41 49 -35 23 6 36 33
41 89 1 11 8 22 15 27 7 4 10 12 6 18 -3 6 -1 12 5 14 6 2 11 27 12 55 1 47 3
50 21 41 11 -6 30 -21 43 -34 13 -13 30 -24 38 -24 8 0 15 -4 15 -9 0 -17 166
-35 176 -20 2 4 17 5 34 3 16 -2 30 0 30 4 0 4 12 8 28 9 45 3 117 11 120 13
1 1 7 4 12 5 6 1 11 3 13 5 6 5 47 11 97 14 30 2 55 5 55 6 0 2 42 9 95 14 25
3 56 8 70 11 38 10 92 17 125 19 17 0 32 4 35 8 3 3 37 9 75 12 39 3 90 10
114 15 25 5 51 7 58 4 7 -3 13 -1 13 4 0 4 17 8 38 8 20 -1 62 7 92 17 30 10
65 19 77 20 13 2 23 6 23 10 0 4 9 8 20 8 11 0 23 6 26 14 3 8 17 17 32 21 33
8 54 24 46 36 -3 5 2 9 10 9 9 0 16 3 16 8 0 4 11 19 25 34 39 43 50 129 25
211 -8 26 -18 47 -22 47 -4 0 -8 7 -8 16 0 9 -8 28 -18 42 -20 30 -68 143 -78
185 -3 15 -10 27 -16 27 -5 0 -7 4 -3 9 3 5 1 12 -5 16 -6 4 -8 10 -5 15 3 5
1 11 -5 15 -6 4 -8 11 -5 16 4 5 1 9 -5 9 -6 0 -8 4 -5 10 3 5 0 20 -7 32 -7
13 -11 29 -10 36 2 6 -1 12 -5 12 -5 0 -9 9 -10 19 -1 11 -10 37 -21 58 -10
22 -18 47 -16 56 1 10 -2 17 -7 17 -6 0 -9 6 -7 13 1 6 -9 35 -22 62 -13 28
-22 53 -22 58 1 4 -1 7 -6 7 -11 0 -34 58 -27 70 3 5 2 10 -3 10 -9 0 -25 37
-23 53 1 4 -4 7 -10 7 -7 0 -9 10 -7 25 3 14 1 25 -4 25 -5 0 -8 6 -6 13 1 6
-4 23 -11 35 -7 13 -10 26 -7 29 2 3 0 17 -6 32 -9 23 -14 45 -22 91 -1 9 -5
20 -9 26 -3 6 -9 30 -12 53 -3 23 -10 52 -17 64 -6 12 -13 45 -14 74 -1 28 -4
55 -7 60 -3 5 -2 15 3 23 5 9 5 19 -2 27 -6 8 -6 13 -1 13 5 0 9 10 8 23 -1
12 1 27 5 32 6 9 6 70 0 70 -1 0 -3 25 -5 55 -1 30 -3 56 -5 58 -1 1 -3 7 -4
12 0 6 -6 14 -11 18 -6 4 -11 14 -12 22 -1 24 -15 60 -22 60 -4 0 -8 17 -9 37
-2 21 -8 40 -14 44 -6 4 -8 16 -5 28 3 12 1 21 -3 21 -10 0 -4 85 7 103 4 7 8
22 9 35 0 12 8 30 17 40 10 10 14 21 11 25 -4 4 0 17 8 29 24 37 16 90 -21
136 -31 40 -33 41 -57 26 -13 -9 -24 -12 -24 -8 0 5 -5 1 -11 -9 -6 -9 -14
-15 -20 -12 -14 9 -42 -23 -33 -37 4 -7 4 -10 0 -6 -9 7 -68 -11 -77 -24 -3
-5 -12 -10 -20 -11 -8 -2 -20 -6 -26 -10 -26 -16 -132 -36 -138 -26 -3 4 -14
6 -25 4 -11 -2 -20 -1 -20 3 0 4 -8 8 -17 8 -39 2 -85 15 -118 34 -31 17 -35
18 -35 4 0 -12 -4 -14 -12 -7 -18 13 -61 14 -69 1 -4 -6 -27 -11 -53 -12 -25
0 -46 -4 -46 -9 0 -24 -188 -47 -215 -26 -5 4 -35 7 -65 7 -54 0 -133 8 -157
17 -7 2 -15 0 -18 -5 -4 -7 -53 -7 -62 1 -2 1 -7 3 -13 4 -5 1 -11 3 -12 4 -2
2 -16 4 -33 6 -16 2 -46 7 -65 11 -36 7 -81 12 -135 17 -16 1 -32 5 -36 9 -3
4 -25 9 -50 11 -24 2 -55 9 -69 17 -14 7 -26 13 -27 12 -2 -1 -4 -2 -5 -1 -9
2 -37 9 -62 14 -16 3 -34 9 -40 13 -13 8 -31 12 -71 16 -16 2 -30 5 -30 6 0 2
-43 9 -90 14 -30 4 -70 13 -70 16 0 1 -13 4 -30 6 -16 3 -47 11 -68 20 -21 8
-42 12 -46 10 -4 -3 -13 -1 -21 4 -9 5 -19 5 -27 -2 -9 -8 -13 -7 -13 2 0 8
-3 11 -6 8 -3 -4 -18 -3 -32 1 -15 5 -36 5 -47 1z m1056 -393 c-10 -9 -11 -8
-5 6 3 10 9 15 12 12 3 -3 0 -11 -7 -18z m-64 -49 c-3 -8 -6 -5 -6 6 -1 11 2
17 5 13 3 -3 4 -12 1 -19z m-57 -2 c0 -2 -8 -10 -17 -17 -16 -13 -17 -12 -4 4
13 16 21 21 21 13z m-330 -21 c0 -12 -19 -12 -23 0 -4 9 -1 12 9 8 7 -3 14 -7
14 -8z m635 -23 c-3 -3 -11 0 -18 7 -9 10 -8 11 6 5 10 -3 15 -9 12 -12z m882
12 c-3 -3 -12 -4 -19 -1 -8 3 -5 6 6 6 11 1 17 -2 13 -5z m-1057 -54 c0 -5 -2
-10 -4 -10 -3 0 -8 5 -11 10 -3 6 -1 10 4 10 6 0 11 -4 11 -10z m900 -64 c0
-2 -7 -9 -15 -16 -13 -11 -14 -10 -9 4 5 14 24 23 24 12z m-872 -51 c-3 -3 -9
2 -12 12 -6 14 -5 15 5 6 7 -7 10 -15 7 -18z m912 -31 c0 -8 -5 -12 -10 -9 -6
4 -8 11 -5 16 9 14 15 11 15 -7z m-160 -119 c0 -1 -6 -8 -14 -14 -11 -9 -15
-7 -19 8 -3 14 0 17 14 14 11 -3 19 -7 19 -8z m41 -38 c-8 -8 -11 -7 -11 4 0
20 13 34 18 19 3 -7 -1 -17 -7 -23z m-1157 -9 c-4 -34 -4 -34 -13 -19 -10 15
-4 41 8 41 4 0 7 -10 5 -22z m961 2 c-3 -5 -1 -10 4 -10 6 0 11 -5 11 -11 0
-8 -5 -8 -15 1 -17 14 -20 30 -4 30 5 0 7 -4 4 -10z m-720 -100 c-3 -5 -12
-10 -18 -10 -7 0 -6 4 3 10 19 12 23 12 15 0z m-645 -525 c11 -13 10 -14 -4
-9 -9 3 -16 10 -16 15 0 13 6 11 20 -6z m27 -399 c-10 -8 -27 -12 -37 -9 -32
8 -23 19 18 21 33 2 35 1 19 -12z m851 -716 c0 -22 3 -44 7 -49 3 -5 0 -13 -6
-17 -8 -4 -7 -9 2 -16 12 -8 12 -9 0 -6 -15 4 -53 138 -39 138 5 0 6 6 2 13
-4 6 2 4 13 -6 14 -12 21 -31 21 -57z m-1658 -300 c0 -5 -7 -10 -15 -10 -8 0
-15 -4 -15 -9 0 -5 -7 -11 -15 -15 -10 -3 -15 1 -15 11 0 9 3 13 6 10 4 -3 16
0 28 8 24 18 26 18 26 5z m-24 -156 c-19 -19 -21 -11 -4 16 7 11 14 16 16 10
2 -5 -4 -17 -12 -26z"/>
</g>
</svg>
