<?xml version="1.0" standalone="no"?>
<!DOCTYPE svg PUBLIC "-//W3C//DTD SVG 20010904//EN"
 "http://www.w3.org/TR/2001/REC-SVG-20010904/DTD/svg10.dtd">
<svg version="1.0" xmlns="http://www.w3.org/2000/svg"
 width="437.000000pt" height="464.000000pt" viewBox="0 0 437.000000 464.000000"
 preserveAspectRatio="xMidYMid meet">
<metadata>
Created by potrace 1.13, written by Peter Selinger 2001-2015
</metadata>
<g transform="translate(0.000000,464.000000) scale(0.100000,-0.100000)"
fill="#000000" stroke="none">
<path d="M2141 4581 c-11 -27 -21 -57 -21 -65 0 -9 -4 -16 -9 -16 -5 0 -14
-15 -22 -32 -15 -39 -68 -91 -110 -110 -16 -7 -29 -16 -29 -20 0 -5 -7 -8 -15
-8 -8 0 -15 -4 -15 -8 0 -4 -21 -19 -47 -33 -86 -45 -98 -52 -101 -61 -2 -4
-8 -8 -14 -8 -10 0 -38 -25 -38 -35 0 -3 -17 -23 -37 -44 -21 -22 -50 -54 -66
-73 -15 -18 -36 -44 -47 -57 -11 -13 -20 -27 -20 -31 0 -6 -9 -18 -49 -66 -5
-6 -11 -20 -15 -31 -4 -11 -28 -43 -54 -71 -26 -28 -54 -59 -62 -70 -24 -31
-142 -162 -180 -200 -55 -54 -126 -105 -243 -171 -59 -34 -146 -88 -195 -120
-152 -100 -299 -191 -361 -221 -33 -17 -81 -48 -107 -71 -26 -22 -64 -51 -83
-64 -46 -30 -105 -86 -120 -113 -6 -12 -16 -45 -21 -74 -12 -61 0 -100 40
-135 14 -11 43 -37 65 -57 22 -20 43 -36 47 -36 4 0 13 -6 20 -12 7 -7 30 -26
51 -42 22 -16 61 -50 87 -75 27 -26 68 -56 92 -66 24 -11 46 -24 50 -30 4 -6
23 -28 42 -49 20 -20 36 -40 36 -44 0 -4 12 -21 28 -37 15 -17 47 -55 72 -85
24 -30 48 -56 52 -58 5 -2 8 -9 8 -16 0 -6 8 -19 18 -27 9 -9 33 -36 52 -60
95 -120 244 -235 348 -269 154 -50 336 -27 452 57 23 18 24 18 16 -2 -16 -36
-35 -149 -36 -202 0 -60 7 -83 26 -83 8 0 14 -5 14 -11 0 -6 12 -9 28 -7 19 2
31 12 42 35 8 18 21 33 28 33 7 0 12 13 12 29 0 21 6 32 20 36 13 4 20 15 20
31 0 13 6 24 13 24 9 0 12 -39 12 -162 0 -136 3 -171 19 -213 31 -82 40 -98
59 -103 19 -5 22 -17 7 -27 -13 -8 -13 -65 0 -65 16 0 12 -14 -15 -42 -31 -33
-33 -68 -5 -68 16 0 13 -7 -20 -37 -27 -24 -40 -43 -38 -56 2 -12 -9 -33 -25
-51 -19 -19 -27 -37 -24 -52 2 -13 -3 -26 -15 -33 -19 -12 -25 -61 -7 -61 5 0
7 -5 4 -10 -3 -6 -18 -10 -33 -10 -15 0 -38 -7 -50 -16 -25 -17 -30 -54 -6
-54 8 0 12 -4 9 -10 -3 -5 -19 -10 -34 -10 -30 0 -61 -27 -61 -53 0 -11 -12
-18 -35 -23 -29 -5 -37 -12 -42 -35 -5 -27 -9 -29 -49 -29 -41 0 -44 -2 -44
-26 0 -26 0 -26 -58 -19 -47 5 -62 3 -75 -9 -8 -9 -32 -16 -51 -16 -29 0 -36
-4 -36 -19 0 -17 -4 -18 -41 -10 -60 14 -96 35 -121 73 -52 75 -130 114 -250
123 -56 5 -71 2 -95 -15 l-28 -20 -35 48 c-19 27 -48 57 -65 67 -34 20 -159
45 -191 37 -35 -9 -76 -104 -44 -104 5 0 7 -7 3 -15 -5 -14 -8 -14 -27 -2 -30
20 -174 21 -203 2 -12 -8 -29 -15 -37 -15 -20 0 -33 -25 -41 -84 -6 -36 -4
-50 6 -57 21 -13 78 -11 133 6 95 29 285 10 278 -27 -2 -10 -8 -18 -13 -18 -5
0 -9 -9 -9 -20 0 -25 44 -28 66 -5 22 22 54 19 54 -5 0 -16 8 -19 63 -22 60
-3 61 -3 35 -17 -16 -8 -28 -23 -28 -34 0 -18 5 -19 52 -13 29 4 58 12 65 18
7 5 17 6 24 2 8 -5 7 -9 -5 -16 -9 -5 -16 -18 -16 -28 0 -24 27 -26 85 -5 22
8 41 15 43 15 1 0 2 -8 2 -18 0 -12 15 -23 49 -35 64 -22 81 -22 81 3 0 11 7
20 15 20 8 0 15 -9 15 -21 0 -19 5 -20 67 -16 38 2 69 9 71 16 7 21 22 11 22
-15 0 -25 2 -25 43 -19 23 4 56 7 72 7 17 -1 46 4 65 10 19 6 47 11 63 10 36
-3 86 23 97 51 5 12 9 16 9 10 2 -39 101 18 101 58 0 10 5 21 10 24 6 3 10 -1
10 -9 0 -41 75 0 89 49 8 25 9 26 10 8 2 -58 79 12 82 74 2 24 2 25 6 5 10
-50 66 -10 79 56 5 23 10 28 28 25 12 -3 33 5 49 18 25 19 28 26 22 59 -4 23
-2 41 4 45 7 4 11 -5 11 -24 0 -24 4 -31 20 -31 14 0 20 7 20 23 0 13 7 38 16
56 9 19 13 42 10 57 -4 15 -1 33 9 47 l15 21 0 -27 c0 -20 5 -27 19 -27 23 0
46 74 39 123 -3 17 -2 41 3 52 7 19 8 19 8 -2 1 -16 7 -23 21 -23 27 0 43 36
45 100 3 80 2 80 33 80 26 0 30 4 42 54 7 30 10 66 6 81 -4 17 1 48 16 87 l22
61 17 -39 c10 -21 18 -52 18 -67 1 -26 21 -67 48 -94 21 -23 43 -14 59 25 9
20 20 45 25 54 5 10 9 29 9 43 0 14 4 25 9 25 5 0 17 21 26 48 10 26 24 61 31
78 8 18 19 79 26 135 7 57 14 96 16 87 2 -10 12 -18 22 -18 10 0 20 -9 23 -20
3 -11 12 -20 20 -20 9 0 19 -9 22 -20 3 -11 13 -20 21 -20 8 0 19 -11 24 -25
5 -14 21 -30 35 -35 14 -5 25 -14 25 -20 0 -5 11 -10 23 -10 22 0 25 6 36 83
9 66 9 94 -2 145 -8 34 -13 62 -11 62 1 0 33 -12 70 -26 62 -23 78 -25 154
-20 91 7 198 42 243 80 14 11 40 32 58 46 17 14 35 27 38 30 33 27 180 214
204 259 11 20 23 38 26 41 4 3 23 28 41 55 38 55 219 240 290 296 25 20 70 48
100 62 78 38 191 120 216 157 30 43 37 91 24 157 -11 50 -20 63 -93 137 -93
92 -213 169 -447 286 -182 91 -345 185 -380 220 -3 3 -27 23 -55 45 -27 22
-68 58 -91 80 -22 22 -77 73 -122 113 -54 49 -83 83 -87 103 -4 16 -13 29 -21
29 -8 0 -14 10 -14 25 0 14 -4 25 -10 25 -5 0 -10 7 -10 15 0 8 -4 15 -10 15
-5 0 -10 11 -10 25 0 14 -6 25 -13 25 -7 0 -19 16 -26 35 -7 19 -17 35 -22 35
-5 0 -9 5 -9 11 0 6 -13 24 -30 39 -16 15 -30 31 -30 35 0 4 -13 20 -30 35
-16 15 -30 32 -30 38 0 5 -7 12 -15 16 -8 3 -15 12 -15 20 0 8 -13 17 -30 21
-16 4 -30 13 -30 21 0 8 -7 14 -15 14 -8 0 -15 6 -15 13 0 16 -41 37 -70 37
-11 0 -20 5 -20 10 0 6 -9 10 -20 10 -11 0 -20 4 -20 9 0 5 -13 12 -30 16 -16
4 -30 13 -30 21 0 8 -7 14 -15 14 -8 0 -15 5 -15 10 0 6 -6 10 -14 10 -8 0
-18 9 -21 20 -3 11 -15 20 -25 20 -13 0 -22 9 -26 28 -4 15 -15 34 -26 43 -10
9 -18 20 -18 25 0 14 -52 108 -64 116 -6 4 -34 8 -62 8 l-52 0 -21 -49z m166
-633 c-3 -8 -6 -5 -6 6 -1 11 2 17 5 13 3 -3 4 -12 1 -19z m10 -50 c-3 -8 -6
-5 -6 6 -1 11 2 17 5 13 3 -3 4 -12 1 -19z m299 -46 c-12 -11 -18 7 -10 30 l8
23 4 -23 c2 -13 1 -26 -2 -30z m-272 -7 c3 -8 1 -15 -4 -15 -6 0 -10 7 -10 15
0 8 2 15 4 15 2 0 6 -7 10 -15z m-344 -10 c0 -8 -4 -15 -10 -15 -5 0 -7 7 -4
15 4 8 8 15 10 15 2 0 4 -7 4 -15z m528 -8 c19 -23 2 -89 -31 -120 -16 -15
-27 -20 -23 -12 3 8 8 44 12 80 7 65 19 80 42 52z m-496 -216 c-5 -3 -12 -13
-15 -21 -3 -8 -6 0 -6 19 -1 29 1 32 14 21 9 -7 12 -16 7 -19z m553 -329 c-6
-7 -34 11 -29 19 3 5 11 3 19 -4 7 -6 12 -13 10 -15z m-165 -281 c-1 -34 -40
-36 -40 -1 0 13 5 17 20 13 11 -3 20 -8 20 -12z m22 -453 c-3 -10 -8 -18 -12
-18 -15 0 -19 46 -7 79 l12 35 5 -40 c3 -21 4 -47 2 -56z m1251 85 c-7 -2 -19
-2 -25 0 -7 3 -2 5 12 5 14 0 19 -2 13 -5z m125 0 c-16 -2 -28 -9 -28 -14 0
-5 -11 -9 -25 -9 -16 0 -25 6 -25 15 0 12 12 15 53 14 28 -1 40 -4 25 -6z
m-258 -13 c0 -5 -4 -10 -10 -10 -5 0 -10 5 -10 10 0 6 5 10 10 10 6 0 10 -4
10 -10z m-147 -7 c-7 -2 -19 -2 -25 0 -7 3 -2 5 12 5 14 0 19 -2 13 -5z m247
-60 c0 -14 -2 -15 -9 -4 -6 9 -18 11 -35 7 -15 -4 -26 -2 -26 4 0 5 16 10 35
10 27 0 35 -4 35 -17z m113 10 c-7 -2 -19 -2 -25 0 -7 3 -2 5 12 5 14 0 19 -2
13 -5z m-1341 -85 c-9 -9 -15 -9 -24 0 -9 9 -7 12 12 12 19 0 21 -3 12 -12z
m-451 -1340 c-5 -14 -17 -28 -25 -31 -14 -6 -15 -3 -5 16 26 50 48 61 30 15z
m-21 -138 c0 -5 -5 -10 -11 -10 -5 0 -7 5 -4 10 3 6 8 10 11 10 2 0 4 -4 4
-10z"/>
</g>
</svg>
