<?xml version="1.0" standalone="no"?>
<!DOCTYPE svg PUBLIC "-//W3C//DTD SVG 20010904//EN"
 "http://www.w3.org/TR/2001/REC-SVG-20010904/DTD/svg10.dtd">
<svg version="1.0" xmlns="http://www.w3.org/2000/svg"
 width="228.000000pt" height="309.000000pt" viewBox="0 0 228.000000 309.000000"
 preserveAspectRatio="xMidYMid meet">
<metadata>
Created by potrace 1.13, written by Peter Selinger 2001-2015
</metadata>
<g transform="translate(0.000000,309.000000) scale(0.100000,-0.100000)"
fill="#000000" stroke="none">
<path d="M1049 3003 c-48 -107 -82 -170 -112 -210 -110 -143 -180 -232 -206
-263 -17 -19 -41 -48 -53 -63 -13 -16 -34 -38 -47 -50 -13 -12 -43 -40 -67
-63 -68 -64 -122 -109 -223 -186 -90 -69 -246 -217 -304 -287 -26 -31 -28 -39
-22 -90 14 -125 29 -155 119 -244 46 -46 97 -93 112 -105 82 -63 123 -92 157
-109 39 -22 149 -94 157 -104 3 -4 29 -17 58 -29 29 -13 56 -28 60 -34 13 -22
141 -68 191 -69 l49 -2 -6 -30 c-4 -16 -7 -64 -7 -105 0 -71 1 -75 23 -78 13
-2 29 1 35 7 9 7 16 4 25 -10 7 -10 19 -19 27 -19 8 0 15 -6 15 -13 0 -8 7
-27 15 -43 15 -31 11 -104 -6 -104 -13 0 -11 -68 2 -72 11 -4 29 -124 32 -214
1 -32 8 -59 18 -70 9 -11 25 -35 34 -54 98 -193 288 -269 511 -204 113 32 229
126 222 179 -3 22 -43 34 -60 17 -5 -5 -27 -8 -48 -5 -36 5 -40 3 -63 -34 -14
-22 -36 -47 -50 -56 -25 -16 -26 -16 -29 11 -4 39 -52 42 -104 7 -70 -48 -105
-42 -180 32 -67 66 -101 159 -112 306 -10 133 -1 221 27 251 11 12 21 27 21
33 0 6 11 18 23 26 13 9 29 29 36 45 10 25 18 30 44 28 32 -1 32 0 31 44 0 25
-4 66 -9 92 l-8 46 39 -4 c71 -9 197 53 309 152 17 14 57 47 90 72 33 25 71
58 85 73 14 14 54 53 90 84 198 176 209 188 231 245 11 30 25 63 29 72 5 9 12
46 16 81 l7 65 -65 64 c-58 58 -270 208 -357 253 -19 9 -39 21 -45 26 -6 5
-42 30 -81 55 -38 26 -92 68 -120 95 -27 26 -59 56 -70 66 -12 10 -59 68 -107
128 -47 61 -96 119 -108 130 -29 25 -160 222 -160 240 0 23 -30 45 -61 45 -25
0 -32 -6 -50 -47z m102 -1939 c10 -13 10 -17 -2 -25 -23 -14 -29 -11 -29 16 0
29 12 32 31 9z"/>
</g>
</svg>
