<?xml version="1.0" standalone="no"?>
<!DOCTYPE svg PUBLIC "-//W3C//DTD SVG 20010904//EN"
 "http://www.w3.org/TR/2001/REC-SVG-20010904/DTD/svg10.dtd">
<svg version="1.0" xmlns="http://www.w3.org/2000/svg"
 width="443.000000pt" height="465.000000pt" viewBox="0 0 443.000000 465.000000"
 preserveAspectRatio="xMidYMid meet">
<metadata>
Created by potrace 1.13, written by Peter Selinger 2001-2015
</metadata>
<g transform="translate(0.000000,465.000000) scale(0.100000,-0.100000)"
fill="#000000" stroke="none">
<path d="M2145 4592 c-47 -51 -153 -122 -181 -122 -9 0 -37 -18 -63 -40 -26
-22 -51 -40 -55 -40 -10 0 -158 -64 -201 -86 -16 -9 -69 -36 -117 -61 -49 -25
-88 -49 -88 -53 0 -4 -21 -29 -48 -56 -26 -27 -58 -65 -72 -84 -13 -19 -32
-44 -42 -54 -10 -11 -37 -46 -60 -79 -24 -33 -64 -82 -90 -110 -27 -27 -48
-52 -48 -56 0 -5 -9 -19 -21 -32 -12 -13 -34 -42 -49 -64 -25 -35 -123 -133
-174 -173 -9 -7 -32 -16 -51 -19 -19 -3 -35 -9 -35 -13 0 -4 -18 -15 -40 -25
-22 -10 -40 -22 -40 -26 0 -4 -10 -11 -22 -14 -11 -4 -44 -21 -72 -38 -71 -42
-114 -66 -166 -95 -39 -22 -109 -73 -146 -107 -6 -5 -36 -30 -65 -55 -85 -70
-156 -147 -175 -185 -17 -36 -15 -104 5 -142 4 -10 19 -38 31 -63 22 -43 97
-160 109 -170 4 -3 26 -30 51 -60 86 -105 259 -283 375 -385 44 -38 112 -102
151 -141 40 -39 84 -78 99 -88 16 -10 81 -70 146 -133 64 -63 139 -130 166
-148 55 -37 131 -75 149 -75 7 0 17 -8 22 -17 7 -12 23 -17 58 -17 43 0 57 6
111 47 34 26 79 67 99 90 34 39 36 40 30 14 -4 -15 -44 -78 -90 -140 -45 -62
-88 -122 -94 -134 -15 -28 -15 -75 0 -124 9 -33 16 -40 45 -45 18 -3 48 -3 67
0 43 8 105 55 106 81 1 11 9 38 19 59 l17 40 18 -65 c72 -265 105 -329 169
-329 19 0 26 8 34 37 9 32 10 26 5 -39 -6 -94 2 -108 64 -108 61 0 66 13 59
173 -3 81 -2 122 4 107 18 -53 45 -186 55 -280 8 -65 28 -150 36 -150 4 0 13
-20 19 -44 6 -23 28 -70 49 -102 21 -32 56 -87 78 -121 21 -35 44 -63 50 -63
7 0 24 -17 40 -38 41 -53 74 -82 95 -82 10 0 31 -13 47 -28 16 -15 69 -45 118
-66 49 -21 121 -53 161 -72 96 -44 153 -61 161 -47 8 13 186 -8 219 -25 12 -7
56 -12 99 -12 76 0 76 0 72 25 -5 24 -3 25 42 25 26 0 78 9 115 21 37 11 81
20 98 21 37 0 154 35 162 49 4 5 14 9 23 9 22 0 134 53 187 89 23 15 53 31 67
34 36 9 182 157 207 210 12 24 21 60 21 80 0 33 -3 37 -25 37 -16 0 -39 -14
-64 -40 -21 -22 -44 -40 -50 -40 -6 0 -49 -18 -96 -40 -47 -22 -89 -40 -93
-40 -10 0 -62 -74 -62 -87 -1 -10 -36 -53 -44 -53 -3 0 -6 11 -6 25 0 30 -22
33 -90 10 -25 -8 -57 -17 -72 -20 -14 -3 -47 -21 -72 -40 -26 -19 -53 -35 -61
-35 -8 0 -15 -3 -15 -7 0 -5 -38 -9 -85 -10 -84 -1 -85 -1 -85 24 0 23 -2 24
-47 17 -27 -4 -58 -11 -70 -15 -19 -7 -23 -5 -23 11 0 28 -40 35 -86 15 -80
-35 -94 -36 -174 -14 -108 30 -170 59 -208 96 -20 20 -43 33 -58 33 -17 0 -38
13 -61 37 -19 21 -63 68 -99 104 -46 48 -64 74 -64 93 0 24 -25 92 -50 138 -6
10 -10 33 -10 51 0 18 -4 37 -9 42 -15 17 -30 241 -19 282 7 27 12 33 19 22
12 -19 11 -96 -2 -141 -8 -31 -6 -51 11 -107 18 -62 24 -70 50 -76 61 -13 88
30 74 122 -3 26 -13 61 -21 76 -8 16 -13 36 -11 45 3 14 23 -30 53 -115 5 -14
54 -17 70 -5 36 25 84 164 86 246 0 28 4 73 7 99 l7 49 30 -57 c35 -68 64 -91
128 -100 65 -10 89 -1 111 40 19 35 19 35 -3 78 -12 23 -34 56 -49 72 -111
122 -172 232 -172 312 0 24 2 23 26 -13 38 -58 171 -181 202 -187 15 -3 48
-11 74 -17 42 -10 49 -9 67 9 12 12 26 21 31 21 49 0 311 174 415 275 23 22
66 62 96 89 69 63 319 297 379 356 69 68 198 238 246 324 9 15 37 58 63 95 50
71 82 148 65 159 -6 4 -44 52 -85 107 -97 131 -185 217 -317 309 -100 69 -149
97 -307 174 -33 16 -88 48 -123 70 -35 22 -66 42 -71 44 -4 2 -26 29 -49 60
-23 31 -58 72 -77 91 -19 19 -35 37 -35 40 0 4 -19 26 -43 49 -23 24 -95 113
-159 198 -162 218 -254 296 -498 425 -199 106 -246 135 -315 201 -52 49 -66
58 -107 62 -45 4 -48 3 -93 -46z m95 -242 c0 -5 -5 -10 -11 -10 -5 0 -7 5 -4
10 3 6 8 10 11 10 2 0 4 -4 4 -10z m-1073 -762 c-3 -8 -6 -5 -6 6 -1 11 2 17
5 13 3 -3 4 -12 1 -19z m1503 -533 c0 -8 -4 -15 -10 -15 -5 0 -7 7 -4 15 4 8
8 15 10 15 2 0 4 -7 4 -15z"/>
</g>
</svg>
