<?xml version="1.0" standalone="no"?>
<!DOCTYPE svg PUBLIC "-//W3C//DTD SVG 20010904//EN"
 "http://www.w3.org/TR/2001/REC-SVG-20010904/DTD/svg10.dtd">
<svg version="1.0" xmlns="http://www.w3.org/2000/svg"
 width="639.000000pt" height="642.000000pt" viewBox="0 0 639.000000 642.000000"
 preserveAspectRatio="xMidYMid meet">
<metadata>
Created by potrace 1.13, written by Peter Selinger 2001-2015
</metadata>
<g transform="translate(0.000000,642.000000) scale(0.100000,-0.100000)"
fill="#000000" stroke="none">
<path d="M3797 5144 c-2 -2 -25 -6 -53 -8 -70 -7 -126 -16 -134 -21 -4 -2 -20
-7 -36 -9 -16 -3 -40 -8 -54 -11 -14 -3 -36 -8 -50 -10 -14 -2 -36 -8 -50 -13
-14 -5 -28 -10 -32 -11 -5 0 -9 -1 -10 -2 -2 -1 -23 -2 -48 -4 -65 -4 -110
-15 -110 -27 0 -6 -6 -6 -15 2 -12 10 -15 10 -15 0 0 -7 -6 -10 -14 -7 -8 3
-17 3 -21 -1 -4 -4 -10 -7 -13 -8 -4 0 -25 -3 -47 -7 -22 -4 -66 -9 -97 -11
-31 -2 -61 -7 -67 -10 -5 -4 -12 -2 -16 3 -3 5 -15 8 -27 6 -12 -3 -27 0 -35
6 -7 7 -13 8 -13 5 0 -4 -8 0 -17 10 -11 11 -18 13 -21 5 -2 -6 -9 -8 -15 -4
-14 9 -26 12 -82 19 -59 9 -80 12 -80 14 0 2 -36 10 -80 16 -59 8 -80 12 -80
14 0 1 -13 3 -30 5 -16 2 -43 6 -59 10 -46 10 -136 11 -136 2 0 -4 -6 -5 -12
0 -16 9 -251 3 -278 -7 -3 -1 -9 -2 -13 -1 -4 1 -18 -4 -30 -11 -12 -7 -28
-13 -35 -14 -17 -3 -40 -32 -48 -61 -3 -13 -10 -23 -15 -23 -5 0 -6 -6 -3 -14
3 -7 -1 -20 -8 -27 -7 -8 -14 -27 -14 -44 -1 -16 -5 -46 -9 -65 -4 -19 -8 -54
-8 -77 0 -24 -5 -43 -9 -43 -5 0 -6 -5 -2 -11 3 -6 7 -68 8 -139 0 -71 4 -131
8 -135 3 -4 2 -20 -2 -36 -5 -16 -6 -29 -2 -29 4 0 7 -28 7 -63 -1 -70 14
-148 29 -159 7 -5 7 -8 1 -8 -5 0 -10 -13 -10 -30 0 -16 3 -30 7 -30 4 0 7 -8
6 -17 0 -10 3 -43 7 -73 10 -79 14 -118 19 -175 3 -27 9 -65 15 -84 6 -19 8
-38 5 -42 -3 -5 -1 -9 3 -9 5 0 9 -13 8 -30 0 -16 -4 -30 -10 -30 -5 0 -5 -4
2 -8 10 -6 15 -43 28 -197 2 -16 4 -30 5 -30 3 0 12 -38 13 -57 1 -10 5 -18
10 -18 4 0 7 -6 5 -12 -1 -7 6 -27 15 -45 9 -18 17 -39 17 -47 0 -8 5 -16 12
-18 6 -2 12 -14 13 -27 1 -12 6 -26 11 -29 5 -4 14 -16 20 -27 6 -11 15 -20
20 -20 5 0 14 -4 20 -8 7 -4 29 -7 50 -7 22 0 59 -1 84 -1 60 -1 94 3 100 12
3 5 12 4 19 0 11 -7 9 -10 -8 -16 -11 -3 -21 -10 -21 -15 0 -5 -8 -8 -17 -8
-15 0 -84 -16 -208 -48 -11 -3 -29 -7 -40 -8 -11 -2 -24 -4 -28 -5 -16 -2 -77
-71 -77 -86 0 -8 -4 -15 -10 -15 -5 0 -7 -7 -4 -15 4 -9 1 -15 -7 -15 -8 0 -5
-6 7 -15 10 -8 15 -15 10 -15 -18 0 67 -60 88 -61 68 -5 83 -3 105 13 13 10
30 18 37 18 8 0 14 4 14 9 0 5 7 12 16 15 12 5 14 1 8 -17 -4 -12 -10 -23 -15
-25 -4 -2 -5 -10 -2 -18 3 -8 1 -14 -5 -14 -5 0 -13 -10 -17 -22 -4 -13 -8
-25 -10 -28 -1 -3 -5 -14 -10 -25 -5 -11 -19 -44 -31 -72 -13 -29 -20 -53 -17
-53 3 0 0 -6 -6 -13 -10 -13 -16 -51 -12 -89 0 -10 11 -27 23 -38 21 -20 23
-20 35 -4 7 10 13 14 13 8 0 -5 7 0 15 10 8 11 15 16 15 10 -1 -12 -25 -44
-34 -44 -15 0 -65 -67 -66 -87 0 -21 49 -65 76 -69 14 -2 74 51 74 65 0 6 5
11 11 11 6 0 9 5 7 12 -3 7 7 24 21 38 38 39 61 69 61 80 0 6 4 10 9 10 6 0 6
-12 0 -30 -6 -16 -15 -30 -21 -30 -6 0 -8 -7 -4 -15 3 -8 1 -15 -4 -15 -5 0
-12 -11 -16 -25 -3 -14 -11 -25 -16 -25 -5 0 -8 -5 -6 -12 3 -7 -7 -25 -21
-41 -14 -16 -27 -33 -27 -38 -1 -5 -2 -16 -3 -25 0 -8 -4 -13 -8 -11 -11 7
-27 -14 -31 -38 -2 -11 -8 -21 -13 -23 -5 -2 -9 -10 -9 -18 0 -8 -4 -14 -10
-14 -5 0 -7 -7 -4 -15 4 -8 1 -15 -5 -15 -7 0 -11 -6 -10 -13 3 -17 -12 -67
-20 -67 -4 0 -7 -8 -8 -17 -3 -45 -15 -130 -20 -153 -3 -14 -7 -46 -8 -73 -1
-26 -4 -50 -8 -53 -3 -3 1 -17 9 -32 7 -15 10 -28 6 -29 -6 -3 -7 -93 -1 -100
1 -2 2 -6 3 -10 1 -5 10 -20 19 -35 10 -14 17 -32 16 -40 -5 -23 12 -78 23
-78 6 0 9 -3 5 -6 -3 -4 5 -28 19 -55 13 -27 24 -52 23 -55 0 -4 5 -10 13 -15
7 -5 13 -12 13 -16 0 -4 22 -52 49 -105 34 -70 53 -98 66 -98 10 0 35 -16 54
-35 20 -19 34 -35 30 -35 -3 0 13 -18 35 -40 23 -23 41 -48 41 -58 0 -9 25
-35 55 -57 30 -22 54 -43 55 -47 0 -14 30 4 30 18 0 17 23 7 56 -24 11 -11 30
-23 42 -26 12 -4 22 -12 22 -17 0 -5 3 -8 8 -8 4 1 9 1 12 -1 3 -1 16 -4 29
-6 14 -2 32 -11 41 -19 9 -8 22 -15 29 -15 7 0 10 -3 8 -7 -7 -11 14 -27 38
-31 11 -2 33 -10 49 -18 16 -8 37 -14 46 -14 10 0 37 -9 61 -19 24 -11 60 -22
79 -25 19 -4 49 -9 65 -12 17 -3 41 -7 55 -8 14 -2 36 -7 50 -13 38 -15 187
-4 269 19 26 8 59 28 78 47 30 31 32 36 18 51 -16 17 -91 24 -100 9 -6 -8 -45
0 -45 10 0 4 -8 8 -17 9 -19 2 -54 9 -63 12 -3 1 -8 2 -12 1 -5 0 -8 3 -8 8 0
4 -10 7 -22 7 -13 -1 -27 1 -33 4 -22 15 -58 18 -88 8 -47 -14 -56 -17 -65
-19 -4 0 -15 -5 -25 -10 -25 -14 -41 -1 -22 17 23 23 19 29 -32 54 -27 13 -64
32 -84 41 -20 10 -62 21 -95 23 -92 7 -97 9 -128 43 -16 18 -33 33 -39 33 -6
0 -21 10 -33 21 -20 19 -21 23 -8 36 7 8 14 19 14 24 0 8 -5 10 -25 9 -3 0
-15 9 -27 20 -13 12 -33 23 -45 26 -22 6 -33 24 -14 24 6 0 9 9 8 19 -1 13
-14 25 -37 34 -57 24 -105 42 -112 42 -9 0 -48 51 -48 62 0 5 -8 18 -19 29
-25 28 -71 111 -64 118 3 3 -1 8 -10 11 -10 4 -14 15 -11 34 5 29 -4 55 -34
106 -17 26 -22 98 -9 111 2 3 -1 29 -8 59 -9 36 -10 55 -3 55 7 0 7 5 1 13
-10 14 -10 22 1 55 4 12 11 22 17 22 5 0 12 18 15 40 4 22 10 40 15 40 5 0 6
7 3 15 -4 8 -1 15 4 15 6 0 9 9 7 19 -2 11 7 29 20 41 13 12 21 28 19 35 -3 7
2 19 10 28 9 9 16 20 16 25 0 6 7 13 16 16 8 3 13 10 10 15 -3 5 12 28 33 52
21 24 39 47 39 52 2 12 21 43 22 34 0 -5 7 -1 16 7 8 9 23 16 32 16 13 0 14
-2 4 -9 -8 -4 -13 -12 -13 -17 0 -5 -9 -19 -19 -32 -11 -12 -20 -27 -20 -32 0
-6 -9 -10 -19 -10 -10 0 -22 -7 -25 -16 -3 -8 -10 -13 -15 -10 -4 3 -15 -11
-23 -32 -9 -20 -23 -54 -32 -74 -15 -36 -15 -37 13 -67 20 -21 34 -28 49 -24
23 6 84 68 75 77 -4 3 3 14 15 24 12 11 19 21 17 24 -8 7 16 68 26 68 8 0 6
-10 -8 -48 -3 -9 -7 -19 -8 -22 -1 -3 -7 -18 -14 -34 -10 -25 -9 -32 9 -51 12
-12 29 -21 38 -20 36 3 115 41 146 70 23 21 30 25 46 25 6 0 10 7 10 15 0 8 4
15 8 15 4 0 16 13 25 30 10 16 22 29 26 27 5 -1 21 12 36 28 l26 30 -7 -40
c-3 -22 -7 -48 -7 -57 -1 -10 -5 -18 -10 -18 -4 0 -6 -4 -3 -8 3 -5 7 -21 10
-37 3 -16 16 -37 28 -47 13 -10 19 -18 14 -18 -5 0 8 -14 29 -30 27 -21 41
-27 50 -20 6 5 15 7 18 3 4 -3 7 -1 7 6 0 7 6 11 14 8 34 -13 45 38 50 233 1
69 8 139 15 155 27 66 36 85 43 85 5 0 8 7 8 15 0 8 4 15 9 15 5 0 8 -10 6
-22 -10 -54 -12 -99 -5 -103 4 -2 6 -16 5 -30 -2 -14 0 -25 4 -25 4 0 7 -9 7
-20 0 -11 -4 -20 -9 -20 -5 0 -4 -7 3 -15 7 -8 10 -24 7 -35 -3 -13 3 -26 19
-39 14 -11 25 -23 24 -28 0 -4 8 -17 17 -28 9 -11 16 -21 15 -23 -7 -8 25 -29
33 -22 6 4 37 0 69 -10 33 -11 63 -17 68 -14 4 3 8 0 8 -6 0 -6 8 -10 18 -9 9
1 19 1 22 0 5 -2 61 -7 165 -15 104 -9 152 -9 163 -2 7 4 12 2 12 -4 0 -6 5
-8 12 -4 7 4 55 9 107 10 53 2 130 6 171 9 41 3 120 8 175 11 194 8 260 13
285 19 43 12 110 22 110 17 0 -2 6 1 14 7 7 6 25 12 40 13 14 1 26 6 26 10 0
4 7 5 15 2 8 -4 15 -1 15 5 0 6 6 8 14 5 8 -3 17 0 21 5 3 6 10 9 15 6 5 -3
26 2 47 11 21 10 41 16 45 16 4 -1 19 3 33 8 14 5 38 12 53 15 45 10 47 10 60
18 6 5 24 15 40 22 30 17 28 3 36 230 3 98 1 154 -6 162 -7 9 -7 13 0 13 6 0
9 8 7 18 -2 9 -4 17 -5 17 -2 0 -6 21 -14 70 -4 21 -10 42 -14 45 -4 3 -8 12
-8 20 -4 33 -14 79 -28 117 -8 23 -12 44 -9 47 4 3 0 6 -7 6 -7 0 -10 3 -7 7
4 3 2 12 -4 20 -6 7 -9 13 -5 13 3 0 -3 16 -14 36 -11 19 -18 39 -15 44 3 5
-3 13 -12 19 -10 6 -15 11 -10 11 4 0 0 12 -10 27 -9 14 -18 31 -19 37 -1 6
-12 37 -23 69 -11 31 -18 57 -15 57 2 0 -5 18 -16 40 -11 23 -18 45 -15 50 4
7 7 139 4 205 0 11 1 32 4 48 2 15 1 27 -2 27 -4 0 -7 41 -6 90 0 50 2 90 5
90 3 0 6 39 6 88 1 48 4 113 6 145 3 31 3 59 0 62 -2 2 -6 26 -8 52 -6 64 -10
95 -17 113 -3 8 -11 40 -18 70 -7 30 -16 62 -20 70 -7 14 -20 47 -24 63 -2 4
-4 9 -5 12 -1 3 -3 8 -5 13 -1 4 -10 25 -19 47 -51 114 -57 132 -63 159 -2 11
-7 24 -12 30 -5 6 -7 19 -6 29 2 9 -1 17 -6 17 -5 0 -9 9 -9 20 0 11 -3 20 -7
20 -5 0 -8 23 -8 51 1 28 -2 52 -6 55 -4 2 -6 16 -3 29 2 14 0 25 -6 25 -5 0
-9 4 -7 9 1 5 -11 20 -27 34 -24 21 -36 24 -70 20 -84 -10 -196 -5 -196 10 0
4 -5 5 -10 2 -6 -4 -21 -1 -33 7 -13 8 -48 13 -84 12 -37 0 -63 3 -63 9 0 6
-3 8 -6 5 -3 -4 -21 0 -40 8 -19 8 -36 14 -39 14 -3 0 -6 0 -7 1 -2 0 -13 2
-25 5 -44 8 -48 9 -53 16 -3 4 -21 10 -40 12 -19 3 -46 8 -60 11 -14 3 -34 7
-46 9 -11 2 -26 6 -31 9 -12 8 -90 17 -96 11z m-584 -279 c-3 -9 -8 -14 -10
-11 -3 3 -2 9 2 15 9 16 15 13 8 -4z m1302 -105 c3 -5 1 -10 -4 -10 -6 0 -11
5 -11 10 0 6 2 10 4 10 3 0 8 -4 11 -10z m-500 -1270 c-3 -5 -11 -10 -16 -10
-6 0 -7 5 -4 10 3 6 11 10 16 10 6 0 7 -4 4 -10z"/>
</g>
</svg>
