<?xml version="1.0" standalone="no"?>
<!DOCTYPE svg PUBLIC "-//W3C//DTD SVG 20010904//EN"
 "http://www.w3.org/TR/2001/REC-SVG-20010904/DTD/svg10.dtd">
<svg version="1.0" xmlns="http://www.w3.org/2000/svg"
 width="523.000000pt" height="297.000000pt" viewBox="0 0 523.000000 297.000000"
 preserveAspectRatio="xMidYMid meet">
<metadata>
Created by potrace 1.13, written by Peter Selinger 2001-2015
</metadata>
<g transform="translate(0.000000,297.000000) scale(0.100000,-0.100000)"
fill="#000000" stroke="none">
<path d="M2585 2774 c-22 -13 -57 -33 -77 -44 -63 -34 -95 -96 -118 -231 -8
-48 -9 -77 -1 -106 6 -23 8 -48 5 -57 -13 -34 -143 -124 -211 -147 -38 -12
-147 -62 -243 -112 l-175 -90 -130 -8 c-137 -8 -267 -35 -615 -125 -182 -47
-220 -64 -335 -150 -55 -40 -90 -59 -240 -130 -71 -33 -124 -91 -143 -156 -8
-29 -17 -114 -19 -190 -5 -131 -4 -140 25 -230 17 -51 34 -109 37 -128 12 -62
46 -108 124 -168 138 -107 230 -159 299 -171 50 -8 72 -18 102 -45 97 -88 596
-199 694 -155 19 9 29 8 47 -5 62 -43 400 10 568 89 41 20 107 58 145 86 148
104 207 137 274 154 37 9 92 24 122 32 33 10 96 17 155 18 55 1 154 5 220 10
66 4 164 4 218 0 l98 -7 96 -64 c71 -48 104 -64 130 -64 19 0 46 -6 61 -14 68
-35 336 -47 527 -25 124 15 275 50 331 77 111 52 243 183 291 289 28 62 68
206 77 278 6 51 33 131 80 240 24 57 26 69 26 233 0 234 -27 347 -125 522 -29
52 -69 129 -88 171 -48 106 -114 171 -206 200 l-69 22 -148 -37 c-203 -50
-253 -49 -454 8 -85 24 -202 51 -260 61 -58 10 -147 33 -199 51 -130 47 -204
47 -293 1 -35 -19 -85 -41 -113 -51 -36 -11 -55 -25 -67 -47 -15 -25 -23 -30
-49 -27 -29 3 -35 9 -59 69 -45 112 -93 156 -200 183 -73 19 -65 20 -115 -10z"/>
</g>
</svg>
