<?xml version="1.0" standalone="no"?>
<!DOCTYPE svg PUBLIC "-//W3C//DTD SVG 20010904//EN"
 "http://www.w3.org/TR/2001/REC-SVG-20010904/DTD/svg10.dtd">
<svg version="1.0" xmlns="http://www.w3.org/2000/svg"
 width="508.000000pt" height="237.000000pt" viewBox="0 0 508.000000 237.000000"
 preserveAspectRatio="xMidYMid meet">
<metadata>
Created by potrace 1.13, written by Peter Selinger 2001-2015
</metadata>
<g transform="translate(0.000000,237.000000) scale(0.100000,-0.100000)"
fill="#000000" stroke="none">
<path d="M2490 1991 c-76 -24 -197 -82 -305 -147 l-90 -53 -190 -11 c-241 -14
-431 -39 -605 -79 -25 -5 -88 -12 -140 -15 -52 -3 -158 -17 -235 -31 -385 -71
-541 -135 -628 -258 -17 -23 -43 -55 -58 -72 -15 -16 -43 -61 -61 -100 -32
-67 -33 -75 -33 -185 1 -138 20 -198 89 -289 41 -53 149 -143 233 -193 15 -10
35 -22 43 -27 68 -43 430 -169 564 -196 44 -9 83 -18 88 -21 5 -3 70 -15 146
-26 155 -23 402 -27 492 -8 30 7 73 16 95 20 22 5 60 15 85 24 167 59 372 118
470 137 136 26 376 31 534 10 127 -16 141 -22 196 -82 41 -45 52 -51 125 -69
109 -27 471 -86 629 -102 135 -15 304 -5 406 22 108 29 239 131 287 223 49 96
113 317 113 393 0 19 16 83 35 142 45 136 55 238 38 380 -32 272 -89 372 -258
453 -44 21 -134 52 -200 69 -66 17 -132 37 -147 45 -14 8 -35 15 -46 15 -12 0
-38 10 -59 23 -38 22 -43 22 -451 25 -395 3 -415 2 -470 -17 -32 -12 -81 -21
-108 -21 -27 0 -58 -7 -68 -15 -11 -8 -32 -15 -47 -15 -15 0 -40 -5 -55 -10
-26 -10 -257 -41 -323 -44 -26 -1 -35 4 -42 22 -7 18 -3 29 21 54 48 50 26 60
-70 29z"/>
</g>
</svg>
