<?xml version="1.0" standalone="no"?>
<!DOCTYPE svg PUBLIC "-//W3C//DTD SVG 20010904//EN"
 "http://www.w3.org/TR/2001/REC-SVG-20010904/DTD/svg10.dtd">
<svg version="1.0" xmlns="http://www.w3.org/2000/svg"
 width="508.000000pt" height="294.000000pt" viewBox="0 0 508.000000 294.000000"
 preserveAspectRatio="xMidYMid meet">
<metadata>
Created by potrace 1.13, written by Peter Selinger 2001-2015
</metadata>
<g transform="translate(0.000000,294.000000) scale(0.100000,-0.100000)"
fill="#000000" stroke="none">
<path d="M2184 2636 c-64 -20 -129 -73 -174 -139 -39 -58 -40 -63 -40 -144 0
-79 -2 -86 -27 -106 -66 -55 -92 -86 -102 -125 -9 -32 -19 -46 -44 -57 -18 -9
-43 -22 -57 -30 -14 -8 -54 -27 -90 -42 -36 -15 -88 -47 -116 -70 -86 -69 -90
-70 -299 -77 -104 -4 -251 -11 -325 -17 -74 -6 -208 -12 -297 -15 l-162 -5
-25 -30 c-15 -17 -26 -39 -26 -48 0 -18 -75 -138 -106 -168 -30 -31 -37 -69
-42 -240 -5 -199 -1 -229 36 -271 15 -17 44 -52 66 -77 44 -53 90 -85 123 -85
16 0 31 -13 50 -44 37 -58 51 -70 259 -212 47 -32 92 -48 246 -85 23 -6 47 -5
63 1 23 9 30 6 56 -19 35 -36 66 -46 189 -65 52 -8 134 -22 181 -31 87 -15 87
-15 220 14 158 35 265 74 358 130 43 26 79 41 100 41 19 0 73 5 121 12 83 11
88 10 117 -11 37 -28 118 -40 314 -49 165 -8 148 -1 284 -122 80 -72 138 -111
245 -166 70 -36 82 -39 185 -44 81 -4 117 -11 135 -23 21 -15 52 -17 220 -17
182 0 288 8 402 30 108 21 308 229 385 399 39 86 43 104 43 173 0 43 -8 128
-17 190 -21 137 -21 169 -3 230 17 56 8 79 -59 168 -38 50 -42 59 -35 95 3 22
10 60 14 85 6 35 2 69 -22 159 -35 137 -40 148 -134 277 -128 176 -223 247
-280 209 -14 -9 -33 -30 -42 -46 -27 -47 -93 -61 -238 -49 -65 5 -136 14 -158
20 -113 33 -268 106 -389 183 -185 118 -214 133 -287 152 -36 9 -91 26 -123
37 -46 17 -71 20 -125 15 -109 -11 -238 -63 -286 -116 -19 -21 -51 -28 -59
-13 -3 4 -1 30 5 58 9 44 7 57 -12 103 -14 32 -33 57 -49 65 -41 21 -121 27
-167 12z"/>
</g>
</svg>
