<?xml version="1.0" standalone="no"?>
<!DOCTYPE svg PUBLIC "-//W3C//DTD SVG 20010904//EN"
 "http://www.w3.org/TR/2001/REC-SVG-20010904/DTD/svg10.dtd">
<svg version="1.0" xmlns="http://www.w3.org/2000/svg"
 width="515.000000pt" height="278.000000pt" viewBox="0 0 515.000000 278.000000"
 preserveAspectRatio="xMidYMid meet">
<metadata>
Created by potrace 1.13, written by Peter Selinger 2001-2015
</metadata>
<g transform="translate(0.000000,278.000000) scale(0.100000,-0.100000)"
fill="#000000" stroke="none">
<path d="M2688 2440 c-53 -55 -102 -100 -108 -100 -6 0 -32 -20 -58 -44 -37
-35 -61 -47 -114 -61 -37 -9 -77 -13 -89 -10 -43 14 -110 -16 -169 -74 -76
-76 -169 -151 -187 -151 -8 0 -28 -8 -46 -17 -19 -10 -103 -26 -210 -39 -99
-13 -250 -41 -344 -64 -91 -22 -230 -54 -308 -70 -174 -37 -330 -82 -410 -120
-67 -32 -275 -200 -318 -258 -75 -98 -108 -210 -109 -370 -1 -130 16 -195 72
-280 50 -74 165 -169 272 -222 23 -12 57 -33 75 -46 17 -13 40 -24 51 -24 10
0 77 -20 148 -44 279 -96 510 -137 774 -139 198 -1 287 10 450 57 47 14 144
41 215 61 72 20 146 43 165 52 74 34 304 64 534 70 244 7 345 -5 378 -41 11
-12 27 -29 36 -40 26 -29 69 -42 172 -55 52 -6 151 -17 220 -25 132 -16 587
-25 607 -13 6 4 23 2 37 -4 21 -10 29 -9 43 4 10 8 54 32 97 51 44 20 99 52
123 72 48 40 143 186 143 221 0 13 11 45 25 72 14 27 28 66 32 87 3 22 14 69
25 107 16 55 19 82 13 150 -4 45 -8 159 -10 252 -8 434 -15 471 -114 608 -47
65 -66 82 -116 106 -87 43 -211 73 -520 126 -161 27 -201 32 -380 45 -71 5
-197 21 -280 36 -82 14 -179 30 -215 35 -36 4 -108 17 -160 28 -116 25 -242
27 -305 5 -80 -27 -86 -16 -27 49 29 31 52 66 52 77 0 19 -27 40 -52 40 -7 0
-57 -45 -110 -100z"/>
</g>
</svg>
