<?xml version="1.0" standalone="no"?>
<!DOCTYPE svg PUBLIC "-//W3C//DTD SVG 20010904//EN"
 "http://www.w3.org/TR/2001/REC-SVG-20010904/DTD/svg10.dtd">
<svg version="1.0" xmlns="http://www.w3.org/2000/svg"
 width="473.000000pt" height="280.000000pt" viewBox="0 0 473.000000 280.000000"
 preserveAspectRatio="xMidYMid meet">
<metadata>
Created by potrace 1.13, written by Peter Selinger 2001-2015
</metadata>
<g transform="translate(0.000000,280.000000) scale(0.100000,-0.100000)"
fill="#000000" stroke="none">
<path d="M3325 2470 c-55 -9 -129 -25 -165 -35 -40 -10 -80 -14 -106 -10 -56
8 -175 -18 -232 -51 -57 -34 -195 -165 -235 -224 -17 -25 -52 -68 -79 -97 -26
-28 -48 -56 -48 -61 0 -12 -202 -180 -238 -198 -22 -10 -108 -15 -372 -19
-384 -6 -455 -13 -650 -56 -603 -136 -678 -159 -779 -235 -74 -56 -101 -91
-158 -210 -43 -87 -47 -105 -51 -183 -4 -82 -2 -91 28 -150 61 -122 225 -255
427 -348 314 -144 598 -215 853 -216 135 0 190 9 345 55 55 16 127 38 161 48
33 10 74 25 90 33 34 17 177 44 286 53 82 7 108 -1 108 -35 0 -9 5 -32 10 -53
18 -64 63 -61 81 6 26 95 17 90 132 82 56 -4 127 -12 157 -19 50 -11 56 -16
66 -47 21 -65 41 -71 389 -130 330 -55 506 -61 662 -21 148 38 251 150 309
337 14 48 35 89 58 116 72 83 89 191 86 526 -2 152 -2 152 29 212 17 32 31 66
31 75 0 9 12 43 26 77 31 75 27 115 -17 153 -24 20 -34 39 -44 90 -8 35 -21
81 -31 100 -25 53 -99 132 -185 195 -85 63 -286 166 -399 204 -169 57 -360 70
-545 36z"/>
</g>
</svg>
