<?xml version="1.0" standalone="no"?>
<!DOCTYPE svg PUBLIC "-//W3C//DTD SVG 20010904//EN"
 "http://www.w3.org/TR/2001/REC-SVG-20010904/DTD/svg10.dtd">
<svg version="1.0" xmlns="http://www.w3.org/2000/svg"
 width="460.000000pt" height="254.000000pt" viewBox="0 0 460.000000 254.000000"
 preserveAspectRatio="xMidYMid meet">
<metadata>
Created by potrace 1.13, written by Peter Selinger 2001-2015
</metadata>
<g transform="translate(0.000000,254.000000) scale(0.100000,-0.100000)"
fill="#000000" stroke="none">
<path d="M2127 2253 c-3 -5 -8 -37 -12 -73 -9 -78 -28 -160 -61 -255 -17 -52
-33 -78 -61 -102 l-38 -33 -105 2 c-208 5 -457 -12 -615 -42 -82 -16 -202 -36
-265 -45 -503 -72 -632 -146 -741 -423 -34 -87 -43 -123 -46 -192 -10 -179 45
-310 158 -377 70 -42 181 -95 244 -118 28 -10 54 -22 60 -27 5 -4 17 -8 26 -8
9 0 41 -11 70 -24 59 -25 188 -58 201 -50 4 3 16 0 27 -6 80 -42 469 -68 586
-39 22 6 65 14 95 19 66 11 255 76 292 102 14 10 33 18 41 18 8 0 40 12 72 26
91 42 191 65 312 71 129 7 157 -3 168 -59 3 -18 11 -47 16 -65 17 -55 61 -54
79 3 9 25 17 34 34 34 12 0 26 -4 31 -9 18 -18 197 -71 239 -71 23 0 65 -7 93
-15 82 -24 138 -34 298 -49 201 -20 303 -6 430 59 87 44 130 91 200 219 44 82
62 125 130 316 28 77 32 168 23 508 -5 176 -10 227 -21 240 -15 17 -55 108
-76 174 -8 23 -20 40 -34 44 -21 6 -67 32 -145 83 -20 13 -64 30 -97 37 -33 6
-91 19 -130 29 -38 9 -99 20 -135 25 -36 5 -81 11 -100 14 -19 3 -197 9 -395
12 -198 3 -387 7 -420 8 -37 0 -82 -7 -118 -19 -57 -19 -58 -19 -93 0 -32 17
-38 18 -62 4 -14 -8 -48 -47 -75 -87 -27 -39 -53 -69 -58 -66 -6 3 -7 49 -3
110 5 72 4 104 -4 104 -6 0 -13 -3 -15 -7z"/>
</g>
</svg>
