<?xml version="1.0" standalone="no"?>
<!DOCTYPE svg PUBLIC "-//W3C//DTD SVG 20010904//EN"
 "http://www.w3.org/TR/2001/REC-SVG-20010904/DTD/svg10.dtd">
<svg version="1.0" xmlns="http://www.w3.org/2000/svg"
 width="551.000000pt" height="307.000000pt" viewBox="0 0 551.000000 307.000000"
 preserveAspectRatio="xMidYMid meet">
<metadata>
Created by potrace 1.13, written by Peter Selinger 2001-2015
</metadata>
<g transform="translate(0.000000,307.000000) scale(0.100000,-0.100000)"
fill="#000000" stroke="none">
<path d="M3730 2498 c-158 -22 -466 -88 -525 -112 -21 -9 -62 -15 -93 -14 -72
2 -92 -9 -142 -77 -30 -41 -47 -55 -66 -55 -34 0 -39 19 -24 104 9 55 10 78 1
94 -22 41 -71 14 -71 -38 0 -18 -12 -43 -31 -65 -27 -30 -30 -40 -25 -70 5
-25 1 -45 -13 -72 -11 -21 -23 -50 -26 -65 -9 -45 -42 -50 -363 -53 -238 -2
-300 -6 -325 -18 -31 -15 -408 -90 -612 -122 -128 -21 -361 -79 -445 -112 -36
-14 -83 -38 -105 -53 -22 -15 -57 -35 -78 -43 -23 -10 -41 -26 -47 -43 -6 -15
-25 -43 -42 -63 -49 -55 -98 -173 -114 -270 -20 -120 -17 -190 8 -268 19 -59
32 -78 97 -144 66 -66 92 -84 191 -132 63 -30 140 -63 170 -73 30 -9 115 -37
188 -61 72 -24 145 -43 161 -43 17 0 41 -4 56 -10 39 -15 225 -49 265 -48 19
0 67 -5 105 -11 47 -9 122 -11 225 -7 198 8 294 22 347 52 23 13 50 24 61 24
33 0 171 49 210 75 78 51 340 90 564 83 113 -3 117 -4 160 -36 23 -18 59 -44
78 -57 42 -29 215 -75 282 -75 26 0 76 -7 111 -15 89 -21 414 -37 502 -25 209
28 282 57 381 152 53 51 77 84 120 171 30 60 63 129 73 155 10 26 35 72 55
102 20 30 50 90 67 133 l30 79 -6 203 c-6 228 -23 311 -71 356 -14 13 -34 40
-44 60 -21 39 -163 178 -271 265 -90 72 -262 159 -404 205 -141 46 -388 62
-565 37z"/>
</g>
</svg>
