<?xml version="1.0" standalone="no"?>
<!DOCTYPE svg PUBLIC "-//W3C//DTD SVG 20010904//EN"
 "http://www.w3.org/TR/2001/REC-SVG-20010904/DTD/svg10.dtd">
<svg version="1.0" xmlns="http://www.w3.org/2000/svg"
 width="472.000000pt" height="271.000000pt" viewBox="0 0 472.000000 271.000000"
 preserveAspectRatio="xMidYMid meet">
<metadata>
Created by potrace 1.13, written by Peter Selinger 2001-2015
</metadata>
<g transform="translate(0.000000,271.000000) scale(0.100000,-0.100000)"
fill="#000000" stroke="none">
<path d="M2380 1971 c-14 -4 -40 -15 -57 -24 -18 -10 -45 -17 -61 -17 -16 0
-46 -11 -66 -25 -20 -14 -41 -25 -46 -25 -5 0 -26 15 -46 33 -34 29 -43 32
-103 32 -149 -1 -281 -94 -281 -198 0 -46 -13 -54 -90 -61 -120 -12 -244 -27
-330 -41 -47 -8 -149 -23 -228 -34 -249 -36 -382 -96 -498 -228 -84 -95 -89
-110 -89 -250 0 -119 1 -122 30 -164 17 -24 58 -66 90 -92 77 -63 286 -164
445 -215 119 -39 160 -49 309 -72 36 -6 76 -16 90 -23 19 -9 77 -12 201 -11
152 2 187 6 265 27 107 30 195 60 251 86 122 57 365 96 534 86 151 -10 183
-20 225 -71 20 -24 46 -49 58 -56 35 -19 328 -50 497 -54 226 -5 329 20 418
101 21 18 47 53 59 77 57 115 104 230 114 279 6 30 22 80 36 113 54 129 73
364 43 520 -11 61 -18 74 -54 108 -53 48 -103 65 -235 78 -168 16 -454 30
-601 30 -156 0 -513 38 -641 69 -102 24 -204 34 -239 22z"/>
</g>
</svg>
