<?xml version="1.0" standalone="no"?>
<!DOCTYPE svg PUBLIC "-//W3C//DTD SVG 20010904//EN"
 "http://www.w3.org/TR/2001/REC-SVG-20010904/DTD/svg10.dtd">
<svg version="1.0" xmlns="http://www.w3.org/2000/svg"
 width="473.000000pt" height="279.000000pt" viewBox="0 0 473.000000 279.000000"
 preserveAspectRatio="xMidYMid meet">
<metadata>
Created by potrace 1.13, written by Peter Selinger 2001-2015
</metadata>
<g transform="translate(0.000000,279.000000) scale(0.100000,-0.100000)"
fill="#000000" stroke="none">
<path d="M3045 2563 c-178 -22 -330 -85 -440 -182 -29 -25 -78 -62 -110 -81
-31 -19 -75 -56 -97 -82 -28 -33 -47 -48 -64 -48 -18 0 -30 -9 -42 -32 -9 -18
-34 -48 -54 -68 -20 -19 -46 -54 -56 -78 -11 -24 -41 -62 -69 -85 l-50 -43
-164 -12 c-441 -34 -454 -36 -676 -123 -85 -34 -194 -69 -242 -79 -97 -19
-293 -70 -391 -102 -164 -53 -334 -174 -388 -277 -48 -89 -65 -171 -60 -283 4
-86 9 -106 39 -164 37 -74 106 -141 191 -187 28 -15 56 -31 62 -36 22 -16 191
-72 324 -107 75 -19 141 -39 146 -43 14 -12 126 -32 137 -25 5 2 59 -3 121
-12 72 -11 175 -18 283 -18 211 -1 272 13 526 119 311 130 427 155 765 162
207 5 232 4 247 -11 9 -10 17 -28 17 -42 0 -30 44 -59 114 -74 229 -49 585
-74 733 -51 154 24 251 86 310 198 35 65 98 243 113 319 5 27 26 108 45 179
34 127 58 329 52 439 -2 37 0 40 31 48 31 8 32 10 32 62 0 46 3 56 25 70 18
12 25 25 25 49 0 32 -46 182 -69 225 -15 28 -62 52 -100 52 -25 0 -39 11 -83
66 -96 119 -246 197 -563 292 -187 56 -297 73 -467 71 -68 -1 -136 -4 -153 -6z"/>
<path d="M3778 3 c6 -2 18 -2 25 0 6 3 1 5 -13 5 -14 0 -19 -2 -12 -5z"/>
</g>
</svg>
