<?xml version="1.0" standalone="no"?>
<!DOCTYPE svg PUBLIC "-//W3C//DTD SVG 20010904//EN"
 "http://www.w3.org/TR/2001/REC-SVG-20010904/DTD/svg10.dtd">
<svg version="1.0" xmlns="http://www.w3.org/2000/svg"
 width="460.000000pt" height="255.000000pt" viewBox="0 0 460.000000 255.000000"
 preserveAspectRatio="xMidYMid meet">
<metadata>
Created by potrace 1.13, written by Peter Selinger 2001-2015
</metadata>
<g transform="translate(0.000000,255.000000) scale(0.100000,-0.100000)"
fill="#000000" stroke="none">
<path d="M2420 2100 c-72 -80 -97 -102 -277 -240 -50 -39 -107 -89 -126 -112
l-35 -42 -119 -7 c-65 -4 -132 -11 -148 -17 -17 -5 -71 -12 -120 -16 -50 -4
-115 -13 -145 -21 -30 -7 -120 -23 -200 -35 -80 -12 -180 -30 -223 -41 -43
-10 -104 -19 -136 -19 -36 0 -77 -7 -103 -19 -24 -10 -85 -28 -135 -39 -130
-30 -176 -57 -270 -156 -77 -81 -81 -88 -92 -149 -6 -35 -11 -93 -11 -128 0
-156 125 -290 385 -413 363 -172 727 -244 1045 -206 119 14 162 26 328 89 74
28 191 65 260 83 115 29 142 32 287 32 181 1 178 2 283 -83 66 -53 135 -81
206 -81 23 -1 59 -8 81 -16 22 -9 72 -20 110 -25 39 -5 113 -14 165 -21 129
-17 380 -16 450 1 116 29 192 87 231 175 10 23 31 94 48 158 26 97 31 137 31
228 0 84 4 120 19 157 34 87 36 150 7 244 -21 69 -24 98 -20 162 3 51 -1 97
-10 134 -28 105 -63 134 -212 173 -195 51 -289 59 -721 65 -459 7 -731 19
-745 33 -19 19 -20 95 -3 142 29 78 30 90 7 90 -12 0 -47 -31 -92 -80z"/>
</g>
</svg>
