<?xml version="1.0" standalone="no"?>
<!DOCTYPE svg PUBLIC "-//W3C//DTD SVG 20010904//EN"
 "http://www.w3.org/TR/2001/REC-SVG-20010904/DTD/svg10.dtd">
<svg version="1.0" xmlns="http://www.w3.org/2000/svg"
 width="538.000000pt" height="268.000000pt" viewBox="0 0 538.000000 268.000000"
 preserveAspectRatio="xMidYMid meet">
<metadata>
Created by potrace 1.13, written by Peter Selinger 2001-2015
</metadata>
<g transform="translate(0.000000,268.000000) scale(0.100000,-0.100000)"
fill="#000000" stroke="none">
<path d="M2800 2280 c-145 -45 -181 -53 -212 -44 -48 14 -69 8 -123 -37 -26
-22 -53 -38 -59 -36 -5 2 -14 17 -18 34 -16 62 -49 53 -188 -52 -109 -82 -124
-102 -115 -144 10 -45 -10 -52 -177 -62 -164 -9 -238 -18 -418 -49 -63 -10
-209 -33 -325 -50 -376 -55 -583 -106 -688 -168 -75 -45 -188 -160 -222 -228
-27 -54 -30 -70 -34 -175 -3 -108 -1 -119 22 -165 69 -137 366 -336 658 -442
281 -102 495 -145 724 -145 199 0 281 16 575 112 117 38 220 67 229 64 9 -4
37 -24 62 -45 26 -21 52 -38 57 -38 13 0 85 42 162 95 l55 37 180 -5 c175 -6
383 -33 436 -57 14 -6 35 -34 49 -63 14 -28 36 -59 50 -69 28 -20 366 -90 525
-108 55 -7 161 -12 235 -13 219 -1 349 43 459 153 65 66 91 106 91 140 0 14
12 70 27 125 18 67 28 128 29 185 1 47 9 120 18 162 20 95 21 225 2 338 -14
84 -24 119 -65 215 -11 28 -25 69 -31 92 -6 26 -21 50 -38 63 -15 11 -52 41
-82 65 -119 97 -135 105 -226 105 -50 0 -95 6 -117 15 -27 11 -80 15 -209 16
-95 0 -198 5 -228 10 -111 20 -206 31 -260 30 -57 -1 -96 5 -245 37 -49 11
-156 34 -237 51 -80 16 -163 37 -183 46 -40 16 -104 19 -145 5z"/>
</g>
</svg>
