<?xml version="1.0" standalone="no"?>
<!DOCTYPE svg PUBLIC "-//W3C//DTD SVG 20010904//EN"
 "http://www.w3.org/TR/2001/REC-SVG-20010904/DTD/svg10.dtd">
<svg version="1.0" xmlns="http://www.w3.org/2000/svg"
 width="524.000000pt" height="250.000000pt" viewBox="0 0 524.000000 250.000000"
 preserveAspectRatio="xMidYMid meet">
<metadata>
Created by potrace 1.13, written by Peter Selinger 2001-2015
</metadata>
<g transform="translate(0.000000,250.000000) scale(0.100000,-0.100000)"
fill="#000000" stroke="none">
<path d="M3960 2123 c-408 -45 -921 -121 -1085 -161 -82 -19 -170 -35 -195
-34 -49 2 -89 -8 -190 -44 -36 -13 -101 -28 -145 -34 -44 -6 -98 -15 -120 -20
-22 -6 -147 -15 -278 -20 -216 -9 -477 -33 -496 -44 -10 -7 -279 -44 -371 -51
-363 -30 -560 -89 -682 -203 -61 -57 -97 -117 -114 -191 -31 -127 -9 -242 64
-350 21 -31 41 -61 43 -67 5 -15 76 -72 154 -125 76 -51 337 -178 435 -212
451 -154 781 -205 1045 -162 117 19 184 42 326 115 282 143 396 164 940 164
329 1 348 0 368 -18 19 -17 21 -27 15 -75 -5 -48 -3 -60 16 -84 29 -36 48 -43
200 -72 247 -47 307 -53 435 -45 154 10 236 35 300 92 49 43 95 124 95 167 0
15 18 40 55 73 45 41 60 65 84 127 68 179 79 425 26 576 -13 39 -25 76 -25 83
0 12 -18 58 -85 212 -13 30 -31 76 -40 102 -46 131 -222 256 -414 292 -77 15
-266 19 -361 9z"/>
</g>
</svg>
