<?xml version="1.0" standalone="no"?>
<!DOCTYPE svg PUBLIC "-//W3C//DTD SVG 20010904//EN"
 "http://www.w3.org/TR/2001/REC-SVG-20010904/DTD/svg10.dtd">
<svg version="1.0" xmlns="http://www.w3.org/2000/svg"
 width="418.000000pt" height="283.000000pt" viewBox="0 0 418.000000 283.000000"
 preserveAspectRatio="xMidYMid meet">
<metadata>
Created by potrace 1.13, written by Peter Selinger 2001-2015
</metadata>
<g transform="translate(0.000000,283.000000) scale(0.100000,-0.100000)"
fill="#000000" stroke="none">
<path d="M2915 2315 c-275 -44 -596 -191 -686 -314 -43 -60 -72 -127 -64 -151
12 -37 -15 -129 -47 -166 -34 -39 -57 -52 -168 -102 -62 -27 -98 -35 -210 -47
-230 -25 -356 -44 -467 -70 -579 -138 -694 -180 -829 -302 -80 -73 -115 -140
-134 -257 -6 -36 -13 -72 -16 -81 -4 -9 -2 -35 4 -58 6 -23 16 -68 22 -99 28
-141 194 -237 565 -328 237 -58 390 -81 571 -87 236 -8 327 14 571 135 137 69
185 82 257 74 57 -7 61 -9 80 -47 12 -22 29 -41 38 -43 25 -5 55 31 69 80 20
71 23 73 177 76 196 5 222 -3 237 -70 7 -34 31 -41 225 -65 200 -24 417 -23
490 1 95 33 129 59 204 161 117 157 166 272 188 440 20 153 16 219 -20 326
-17 52 -38 114 -46 139 -8 25 -32 88 -53 140 l-38 95 0 165 c0 155 -1 167 -23
202 -41 65 -221 169 -378 218 -158 48 -351 62 -519 35z"/>
</g>
</svg>
