<?xml version="1.0" standalone="no"?>
<!DOCTYPE svg PUBLIC "-//W3C//DTD SVG 20010904//EN"
 "http://www.w3.org/TR/2001/REC-SVG-20010904/DTD/svg10.dtd">
<svg version="1.0" xmlns="http://www.w3.org/2000/svg"
 width="514.000000pt" height="270.000000pt" viewBox="0 0 514.000000 270.000000"
 preserveAspectRatio="xMidYMid meet">
<metadata>
Created by potrace 1.13, written by Peter Selinger 2001-2015
</metadata>
<g transform="translate(0.000000,270.000000) scale(0.100000,-0.100000)"
fill="#000000" stroke="none">
<path d="M2950 2197 c-55 -13 -203 -67 -250 -93 -14 -7 -55 -29 -92 -48 -75
-40 -98 -66 -98 -113 0 -45 -30 -73 -77 -73 -21 -1 -157 -7 -303 -15 -263 -13
-352 -25 -545 -70 -65 -15 -149 -26 -240 -30 -167 -8 -292 -23 -560 -69 -283
-49 -362 -80 -451 -179 -76 -84 -107 -164 -120 -303 -19 -207 95 -372 345
-502 47 -24 92 -49 99 -55 8 -6 35 -19 60 -28 26 -10 79 -30 117 -45 213 -81
403 -138 570 -169 44 -8 102 -19 128 -25 169 -35 415 -42 546 -15 90 18 197
54 343 114 114 47 299 103 418 128 65 13 136 17 297 18 239 0 252 -4 278 -77
30 -89 72 -117 217 -143 619 -112 879 -98 1052 58 52 48 108 136 132 211 9 28
29 75 45 103 16 29 29 63 29 77 0 13 7 43 16 67 10 26 18 83 19 141 2 53 7
102 11 110 15 24 28 131 28 228 0 110 -37 266 -83 359 -60 117 -200 217 -381
271 -65 20 -389 61 -510 66 -104 4 -507 65 -532 80 -4 3 -92 9 -195 15 -103 5
-204 11 -223 14 -19 2 -60 -1 -90 -8z"/>
</g>
</svg>
