<?xml version="1.0" standalone="no"?>
<!DOCTYPE svg PUBLIC "-//W3C//DTD SVG 20010904//EN"
 "http://www.w3.org/TR/2001/REC-SVG-20010904/DTD/svg10.dtd">
<svg version="1.0" xmlns="http://www.w3.org/2000/svg"
 width="486.000000pt" height="249.000000pt" viewBox="0 0 486.000000 249.000000"
 preserveAspectRatio="xMidYMid meet">
<metadata>
Created by potrace 1.13, written by Peter Selinger 2001-2015
</metadata>
<g transform="translate(0.000000,249.000000) scale(0.100000,-0.100000)"
fill="#000000" stroke="none">
<path d="M2763 2254 c-34 -19 -65 -39 -68 -44 -4 -6 -21 -10 -40 -10 -37 0
-82 -32 -104 -73 -8 -14 -25 -27 -42 -31 -32 -6 -109 -71 -109 -92 0 -7 -15
-21 -32 -30 -46 -23 -68 -44 -68 -64 0 -24 -32 -50 -63 -50 -19 0 -33 -11 -54
-42 -26 -38 -33 -43 -73 -46 -24 -2 -53 -10 -64 -18 -11 -8 -30 -14 -41 -14
-11 0 -47 -9 -80 -20 -38 -12 -125 -25 -240 -34 -125 -10 -197 -21 -236 -35
-32 -11 -124 -32 -205 -46 -401 -70 -591 -120 -770 -207 -118 -56 -181 -110
-243 -209 l-35 -54 0 -130 c-1 -122 1 -134 27 -189 76 -164 246 -281 567 -391
369 -126 778 -188 1034 -156 122 16 214 42 445 125 311 113 560 160 816 154
l120 -3 3 -45 c5 -96 7 -97 152 -119 329 -51 700 -60 853 -23 98 24 130 39
200 90 56 40 102 114 118 190 6 29 24 85 40 124 40 97 70 203 63 221 -6 16 11
81 61 232 41 124 54 258 32 332 -38 124 -104 249 -150 283 -20 15 -50 45 -66
67 -55 75 -91 84 -536 129 -143 14 -293 32 -334 40 -78 14 -305 83 -451 136
-292 105 -327 109 -427 52z"/>
</g>
</svg>
