<?xml version="1.0" standalone="no"?>
<!DOCTYPE svg PUBLIC "-//W3C//DTD SVG 20010904//EN"
 "http://www.w3.org/TR/2001/REC-SVG-20010904/DTD/svg10.dtd">
<svg version="1.0" xmlns="http://www.w3.org/2000/svg"
 width="463.000000pt" height="237.000000pt" viewBox="0 0 463.000000 237.000000"
 preserveAspectRatio="xMidYMid meet">
<metadata>
Created by potrace 1.13, written by Peter Selinger 2001-2015
</metadata>
<g transform="translate(0.000000,237.000000) scale(0.100000,-0.100000)"
fill="#000000" stroke="none">
<path d="M2468 1946 c-20 -7 -51 -25 -68 -39 -17 -15 -53 -33 -81 -41 -27 -8
-59 -22 -71 -30 -28 -20 -54 -20 -62 -1 -8 22 -41 18 -74 -10 -22 -19 -41 -25
-76 -25 -33 0 -61 -8 -99 -30 -78 -46 -80 -47 -109 -59 -16 -6 -33 -24 -42
-45 -12 -29 -21 -36 -53 -42 -21 -4 -47 -12 -58 -18 -12 -6 -96 -11 -215 -12
-153 -1 -209 -5 -258 -19 -48 -14 -76 -16 -120 -10 -79 11 -149 10 -272 -4
-124 -14 -220 -41 -310 -86 -73 -37 -91 -54 -113 -106 -9 -23 -33 -49 -62 -69
-55 -38 -76 -79 -100 -195 -29 -142 -7 -233 84 -354 22 -29 41 -56 43 -60 4
-9 127 -74 244 -130 56 -27 105 -54 108 -60 4 -6 20 -11 36 -11 16 0 82 -15
147 -33 188 -54 519 -96 561 -73 9 5 75 11 147 12 144 2 166 6 375 69 143 43
226 62 385 87 110 17 419 16 524 -1 80 -13 84 -15 97 -47 27 -64 87 -87 298
-115 129 -17 490 -7 576 16 147 39 239 104 281 201 31 69 71 242 80 339 4 50
17 126 30 170 21 75 21 87 11 200 -13 137 -38 220 -84 279 -48 61 -167 166
-233 205 l-58 35 -196 8 c-107 4 -227 12 -266 17 -138 20 -233 31 -405 46 -96
8 -231 24 -300 35 -145 23 -191 24 -242 6z"/>
</g>
</svg>
