<?xml version="1.0" standalone="no"?>
<!DOCTYPE svg PUBLIC "-//W3C//DTD SVG 20010904//EN"
 "http://www.w3.org/TR/2001/REC-SVG-20010904/DTD/svg10.dtd">
<svg version="1.0" xmlns="http://www.w3.org/2000/svg"
 width="404.000000pt" height="255.000000pt" viewBox="0 0 404.000000 255.000000"
 preserveAspectRatio="xMidYMid meet">
<metadata>
Created by potrace 1.13, written by Peter Selinger 2001-2015
</metadata>
<g transform="translate(0.000000,255.000000) scale(0.100000,-0.100000)"
fill="#000000" stroke="none">
<path d="M2344 2267 c-11 -9 -33 -36 -49 -61 -21 -34 -41 -50 -79 -67 -68 -28
-102 -62 -122 -122 -13 -41 -24 -54 -61 -76 -25 -14 -64 -42 -87 -62 -34 -30
-47 -36 -73 -32 -35 6 -40 0 -62 -83 -8 -30 -26 -54 -73 -95 -81 -71 -83 -72
-148 -80 -30 -4 -134 -17 -230 -28 -129 -16 -186 -19 -219 -12 -26 5 -54 6
-68 0 -12 -4 -108 -13 -211 -19 -207 -11 -233 -17 -350 -81 -180 -100 -249
-217 -259 -444 -8 -164 8 -220 82 -292 143 -139 610 -285 960 -300 212 -9 301
14 590 152 134 64 170 74 183 48 9 -18 2 -128 -12 -169 -3 -11 0 -45 7 -74 14
-54 14 -54 30 -29 18 29 33 98 42 199 4 41 14 86 22 99 l15 24 169 -5 c200 -5
205 -7 217 -103 6 -50 11 -62 32 -72 41 -19 296 -72 437 -90 199 -26 322 -4
445 80 61 41 85 96 109 247 10 63 26 153 34 200 13 65 14 92 6 114 -9 21 -8
46 4 102 24 116 15 287 -22 414 -9 30 -17 84 -18 120 -2 126 -83 240 -248 351
-146 97 -193 118 -452 193 -153 44 -235 58 -380 63 -114 4 -144 2 -161 -10z"/>
</g>
</svg>
