<?xml version="1.0" standalone="no"?>
<!DOCTYPE svg PUBLIC "-//W3C//DTD SVG 20010904//EN"
 "http://www.w3.org/TR/2001/REC-SVG-20010904/DTD/svg10.dtd">
<svg version="1.0" xmlns="http://www.w3.org/2000/svg"
 width="437.000000pt" height="262.000000pt" viewBox="0 0 437.000000 262.000000"
 preserveAspectRatio="xMidYMid meet">
<metadata>
Created by potrace 1.13, written by Peter Selinger 2001-2015
</metadata>
<g transform="translate(0.000000,262.000000) scale(0.100000,-0.100000)"
fill="#000000" stroke="none">
<path d="M3085 2265 c-38 -8 -118 -27 -176 -44 -58 -17 -127 -31 -152 -31
-108 0 -266 -77 -316 -154 -38 -59 -122 -141 -162 -157 -101 -42 -188 -94
-231 -140 l-46 -49 -89 -1 c-184 -1 -569 -38 -658 -63 -27 -8 -120 -24 -205
-36 -285 -38 -348 -49 -424 -74 -93 -31 -109 -39 -170 -90 -129 -108 -155
-146 -186 -281 -26 -110 -26 -216 -1 -272 37 -81 176 -203 274 -242 23 -9 62
-28 87 -43 55 -33 172 -78 203 -78 12 0 38 -8 58 -19 49 -26 184 -63 244 -66
28 -2 77 -10 110 -19 78 -21 399 -32 470 -16 28 6 60 21 73 33 19 17 36 21
100 22 86 2 172 29 216 70 30 28 83 45 140 45 l39 0 -7 -54 c-5 -42 -3 -56 10
-67 23 -19 44 -2 80 65 17 32 37 62 45 67 19 12 151 11 182 0 13 -5 27 -20 31
-34 3 -13 30 -47 59 -75 63 -59 115 -78 252 -92 50 -6 124 -15 165 -21 105
-15 322 -12 425 6 47 9 108 27 135 40 27 14 56 25 64 25 8 0 24 19 36 43 11
23 31 60 45 82 28 47 119 338 130 413 4 31 2 72 -5 101 -9 40 -8 63 5 127 20
94 13 192 -17 274 -11 30 -22 81 -23 113 -2 32 -10 68 -18 80 -41 63 -60 141
-61 252 l-2 110 -42 55 c-74 98 -143 139 -307 181 -99 25 -281 32 -380 14z"/>
</g>
</svg>
