<?xml version="1.0" standalone="no"?>
<!DOCTYPE svg PUBLIC "-//W3C//DTD SVG 20010904//EN"
 "http://www.w3.org/TR/2001/REC-SVG-20010904/DTD/svg10.dtd">
<svg version="1.0" xmlns="http://www.w3.org/2000/svg"
 width="480.000000pt" height="263.000000pt" viewBox="0 0 480.000000 263.000000"
 preserveAspectRatio="xMidYMid meet">
<metadata>
Created by potrace 1.13, written by Peter Selinger 2001-2015
</metadata>
<g transform="translate(0.000000,263.000000) scale(0.100000,-0.100000)"
fill="#000000" stroke="none">
<path d="M2339 2058 c-24 -17 -67 -51 -95 -75 -28 -23 -60 -43 -70 -43 -10 0
-48 -14 -84 -31 -36 -17 -87 -37 -115 -44 -27 -8 -86 -25 -130 -39 -74 -23
-129 -31 -370 -57 -49 -5 -126 -18 -170 -29 -44 -11 -114 -24 -155 -30 -244
-33 -418 -83 -575 -163 -149 -76 -222 -159 -254 -289 -13 -53 -16 -238 -5
-283 18 -77 92 -164 201 -237 273 -185 814 -330 1108 -297 109 11 374 65 525
105 118 31 228 50 390 64 102 10 159 9 310 -4 200 -17 218 -24 205 -75 -12
-47 6 -56 235 -111 125 -30 501 -40 617 -16 100 20 194 62 250 110 47 41 124
174 143 246 7 25 27 80 46 124 28 64 35 93 38 160 2 46 -2 96 -9 116 -7 19
-15 67 -19 105 -3 39 -13 95 -21 125 -8 30 -15 73 -15 95 0 28 -14 70 -44 131
-72 148 -136 189 -396 260 -247 67 -559 115 -830 130 -128 6 -445 -9 -509 -25
-20 -5 -55 -12 -79 -15 -51 -8 -62 8 -39 56 18 37 8 68 -22 68 -10 0 -38 -14
-62 -32z"/>
</g>
</svg>
