<?xml version="1.0" standalone="no"?>
<!DOCTYPE svg PUBLIC "-//W3C//DTD SVG 20010904//EN"
 "http://www.w3.org/TR/2001/REC-SVG-20010904/DTD/svg10.dtd">
<svg version="1.0" xmlns="http://www.w3.org/2000/svg"
 width="467.000000pt" height="225.000000pt" viewBox="0 0 467.000000 225.000000"
 preserveAspectRatio="xMidYMid meet">
<metadata>
Created by potrace 1.13, written by Peter Selinger 2001-2015
</metadata>
<g transform="translate(0.000000,225.000000) scale(0.100000,-0.100000)"
fill="#000000" stroke="none">
<path d="M2191 2031 c-6 -11 -11 -44 -11 -73 0 -59 -8 -73 -57 -107 -38 -26
-41 -37 -13 -44 29 -8 25 -32 -11 -57 -28 -20 -29 -24 -15 -39 21 -23 20 -34
-4 -56 -16 -15 -46 -20 -164 -26 -79 -4 -159 -10 -178 -14 -18 -3 -103 -10
-188 -15 -112 -6 -180 -16 -245 -34 -190 -52 -284 -77 -410 -106 -381 -88
-487 -130 -584 -229 -105 -106 -140 -176 -149 -297 -4 -62 -1 -79 21 -127 49
-108 146 -186 343 -275 282 -129 701 -232 942 -232 133 0 222 23 482 122 113
44 236 78 356 98 97 16 341 29 470 24 199 -7 224 -14 224 -61 0 -37 16 -60 50
-72 63 -21 252 -36 480 -35 268 0 334 10 429 69 31 19 64 35 74 35 14 0 17 10
17 68 0 73 -9 50 151 362 l64 125 -1 250 c0 210 -3 257 -17 294 -9 24 -17 57
-17 73 0 39 -76 119 -139 147 -69 29 -219 53 -336 53 -261 -1 -301 1 -317 9
-9 5 -74 9 -145 9 -70 0 -223 5 -338 12 -240 13 -337 6 -472 -37 -63 -20 -87
-24 -102 -16 -11 6 -33 11 -50 11 -50 0 -41 34 19 71 32 20 50 38 50 50 0 30
-28 34 -61 10 -17 -12 -34 -21 -39 -19 -5 2 -20 23 -32 48 -26 51 -60 65 -77
31z"/>
</g>
</svg>
