<?xml version="1.0" standalone="no"?>
<!DOCTYPE svg PUBLIC "-//W3C//DTD SVG 20010904//EN"
 "http://www.w3.org/TR/2001/REC-SVG-20010904/DTD/svg10.dtd">
<svg version="1.0" xmlns="http://www.w3.org/2000/svg"
 width="256.000000pt" height="256.000000pt" viewBox="0 0 256.000000 256.000000"
 preserveAspectRatio="xMidYMid meet">
<metadata>
Created by potrace 1.13, written by Peter Selinger 2001-2015
</metadata>
<g transform="translate(0.000000,256.000000) scale(0.100000,-0.100000)"
fill="#000000" stroke="none">
<path d="M1219 2391 c-51 -32 -85 -84 -119 -181 -20 -59 -22 -77 -16 -190 7
-142 16 -182 52 -236 42 -62 54 -117 54 -255 0 -69 -3 -147 -6 -173 -6 -42
-11 -49 -50 -72 -63 -37 -111 -109 -151 -227 l-36 -102 -1 -195 c0 -174 2
-203 21 -268 28 -90 61 -150 136 -241 74 -90 119 -115 207 -115 124 1 231 87
328 264 38 70 56 183 56 360 l0 165 -47 98 c-50 105 -134 222 -169 233 -20 6
-20 11 -14 118 3 61 9 179 12 261 5 112 11 159 24 185 27 55 44 156 44 265 1
93 -1 104 -31 161 -45 87 -109 153 -158 164 -64 15 -88 12 -136 -19z"/>
</g>
</svg>
