<?xml version="1.0" standalone="no"?>
<!DOCTYPE svg PUBLIC "-//W3C//DTD SVG 20010904//EN"
 "http://www.w3.org/TR/2001/REC-SVG-20010904/DTD/svg10.dtd">
<svg version="1.0" xmlns="http://www.w3.org/2000/svg"
 width="256.000000pt" height="256.000000pt" viewBox="0 0 256.000000 256.000000"
 preserveAspectRatio="xMidYMid meet">
<metadata>
Created by potrace 1.13, written by Peter Selinger 2001-2015
</metadata>
<g transform="translate(0.000000,256.000000) scale(0.100000,-0.100000)"
fill="#000000" stroke="none">
<path d="M2247 2416 c-21 -8 -55 -25 -75 -38 -20 -14 -56 -37 -80 -53 -40 -26
-130 -126 -272 -299 -30 -37 -74 -83 -97 -102 -91 -75 -430 -432 -457 -481
-14 -27 -82 -102 -244 -267 l-145 -148 -46 21 c-70 32 -173 51 -272 51 -85 0
-94 -2 -169 -40 -96 -48 -148 -98 -192 -182 -30 -59 -32 -71 -36 -187 -4 -131
8 -219 39 -281 26 -53 152 -193 217 -242 135 -103 194 -136 277 -153 118 -26
234 -18 304 20 194 106 269 297 211 540 -34 143 -51 183 -122 273 -42 54 -48
66 -37 80 7 9 73 79 148 154 145 146 209 217 227 251 28 51 306 345 420 444
32 29 84 82 114 119 110 134 232 274 239 274 4 0 28 14 54 31 44 29 48 30 69
15 56 -39 148 5 148 71 0 49 -20 101 -47 123 -31 24 -116 27 -176 6z"/>
</g>
</svg>
