<?xml version="1.0" standalone="no"?>
<!DOCTYPE svg PUBLIC "-//W3C//DTD SVG 20010904//EN"
 "http://www.w3.org/TR/2001/REC-SVG-20010904/DTD/svg10.dtd">
<svg version="1.0" xmlns="http://www.w3.org/2000/svg"
 width="256.000000pt" height="256.000000pt" viewBox="0 0 256.000000 256.000000"
 preserveAspectRatio="xMidYMid meet">
<metadata>
Created by potrace 1.13, written by Peter Selinger 2001-2015
</metadata>
<g transform="translate(0.000000,256.000000) scale(0.100000,-0.100000)"
fill="#000000" stroke="none">
<path d="M1200 2410 c-44 -10 -110 -81 -153 -164 -30 -57 -32 -68 -31 -161 0
-109 17 -210 44 -265 13 -26 19 -73 24 -185 3 -82 9 -200 12 -261 6 -107 6
-112 -14 -118 -35 -11 -119 -128 -169 -233 l-47 -98 0 -165 c0 -225 17 -299
98 -433 35 -57 104 -124 166 -159 71 -41 162 -45 227 -10 45 24 140 132 186
212 59 103 72 175 71 390 l-1 195 -36 102 c-40 118 -88 190 -151 227 -39 23
-44 30 -50 72 -3 26 -6 104 -6 173 0 138 12 193 54 255 36 54 45 94 52 236 6
113 4 131 -16 190 -34 97 -68 149 -119 181 -46 30 -77 34 -141 19z"/>
</g>
</svg>
