<?xml version="1.0" standalone="no"?>
<!DOCTYPE svg PUBLIC "-//W3C//DTD SVG 20010904//EN"
 "http://www.w3.org/TR/2001/REC-SVG-20010904/DTD/svg10.dtd">
<svg version="1.0" xmlns="http://www.w3.org/2000/svg"
 width="256.000000pt" height="256.000000pt" viewBox="0 0 256.000000 256.000000"
 preserveAspectRatio="xMidYMid meet">
<metadata>
Created by potrace 1.13, written by Peter Selinger 2001-2015
</metadata>
<g transform="translate(0.000000,256.000000) scale(0.100000,-0.100000)"
fill="#000000" stroke="none">
<path d="M365 2300 c-43 -14 -122 -85 -146 -132 -17 -33 -20 -54 -17 -117 5
-84 13 -112 66 -219 57 -113 236 -277 392 -358 l75 -39 140 1 c110 1 147 5
173 18 32 16 33 16 55 -9 77 -89 316 -309 360 -331 40 -21 82 -54 219 -169
122 -103 192 -156 228 -175 14 -7 37 -24 52 -38 54 -50 238 -149 295 -158 92
-14 193 55 193 133 0 31 -8 44 -50 85 -27 26 -84 66 -127 88 -43 22 -105 60
-138 85 -33 24 -76 54 -95 65 -76 45 -108 66 -141 91 -19 14 -47 33 -64 42
-16 8 -53 35 -82 59 -105 87 -230 176 -293 208 -36 18 -82 48 -103 66 -20 19
-42 34 -48 34 -5 0 -34 23 -64 51 -52 49 -53 51 -43 87 13 45 5 152 -15 210
-37 106 -163 240 -284 301 -83 41 -104 50 -243 97 -82 29 -241 41 -295 24z"/>
</g>
</svg>
