<?xml version="1.0" standalone="no"?>
<!DOCTYPE svg PUBLIC "-//W3C//DTD SVG 20010904//EN"
 "http://www.w3.org/TR/2001/REC-SVG-20010904/DTD/svg10.dtd">
<svg version="1.0" xmlns="http://www.w3.org/2000/svg"
 width="256.000000pt" height="256.000000pt" viewBox="0 0 256.000000 256.000000"
 preserveAspectRatio="xMidYMid meet">
<metadata>
Created by potrace 1.13, written by Peter Selinger 2001-2015
</metadata>
<g transform="translate(0.000000,256.000000) scale(0.100000,-0.100000)"
fill="#000000" stroke="none">
<path d="M2154 2341 c-83 -20 -290 -121 -346 -169 -9 -7 -42 -26 -74 -42 -33
-17 -88 -55 -124 -85 -36 -30 -81 -64 -100 -75 -126 -75 -190 -127 -339 -283
-66 -70 -139 -143 -161 -163 -21 -19 -42 -44 -45 -55 -4 -10 -12 -19 -20 -19
-13 0 -84 -65 -294 -270 -59 -58 -150 -141 -202 -185 -125 -107 -193 -176
-215 -222 -11 -21 -32 -56 -47 -78 -97 -139 -157 -242 -157 -270 0 -38 33 -92
65 -107 33 -15 135 3 208 36 29 13 63 29 77 35 25 11 50 27 167 105 32 22 89
60 126 85 37 25 78 59 91 75 13 17 47 54 75 83 27 29 59 69 69 90 18 36 46
164 73 333 12 74 13 76 66 118 30 24 65 61 78 82 13 21 31 42 38 47 8 4 70 67
138 138 135 142 219 213 304 258 17 8 59 41 95 71 36 31 94 71 130 88 36 17
73 39 83 47 21 17 81 53 168 100 63 33 159 61 214 61 27 0 44 8 66 29 40 41
40 91 0 132 -26 25 -37 29 -83 28 -29 0 -85 -8 -124 -18z"/>
</g>
</svg>
