<?xml version="1.0" standalone="no"?>
<!DOCTYPE svg PUBLIC "-//W3C//DTD SVG 20010904//EN"
 "http://www.w3.org/TR/2001/REC-SVG-20010904/DTD/svg10.dtd">
<svg version="1.0" xmlns="http://www.w3.org/2000/svg"
 width="256.000000pt" height="256.000000pt" viewBox="0 0 256.000000 256.000000"
 preserveAspectRatio="xMidYMid meet">
<metadata>
Created by potrace 1.13, written by Peter Selinger 2001-2015
</metadata>
<g transform="translate(0.000000,256.000000) scale(0.100000,-0.100000)"
fill="#000000" stroke="none">
<path d="M1768 2400 c-26 -27 -66 -84 -88 -127 -22 -43 -60 -105 -85 -138 -24
-33 -54 -76 -65 -95 -45 -76 -66 -108 -91 -141 -14 -19 -33 -47 -42 -64 -8
-16 -35 -53 -59 -82 -87 -105 -176 -230 -208 -293 -18 -36 -48 -82 -66 -103
-19 -20 -34 -42 -34 -48 0 -5 -23 -34 -51 -64 -49 -52 -51 -53 -87 -43 -45 13
-152 5 -210 -15 -106 -37 -240 -163 -301 -284 -41 -83 -50 -106 -97 -243 -30
-87 -42 -224 -25 -285 14 -51 81 -130 133 -156 33 -17 54 -20 117 -17 84 5
112 13 219 66 113 57 277 236 358 392 l39 75 -1 140 c-1 110 -5 147 -18 173
-16 32 -16 33 9 55 89 77 309 316 331 360 21 40 54 82 169 219 103 122 156
192 175 228 7 14 24 37 38 52 50 54 149 238 158 295 14 92 -55 193 -133 193
-31 0 -44 -8 -85 -50z"/>
</g>
</svg>
