<?xml version="1.0" standalone="no"?>
<!DOCTYPE svg PUBLIC "-//W3C//DTD SVG 20010904//EN"
 "http://www.w3.org/TR/2001/REC-SVG-20010904/DTD/svg10.dtd">
<svg version="1.0" xmlns="http://www.w3.org/2000/svg"
 width="256.000000pt" height="256.000000pt" viewBox="0 0 256.000000 256.000000"
 preserveAspectRatio="xMidYMid meet">
<metadata>
Created by potrace 1.13, written by Peter Selinger 2001-2015
</metadata>
<g transform="translate(0.000000,256.000000) scale(0.100000,-0.100000)"
fill="#000000" stroke="none">
<path d="M1750 2391 c-54 -17 -132 -63 -170 -101 -22 -22 -58 -76 -80 -120
-38 -75 -40 -84 -40 -169 0 -99 19 -202 51 -272 l21 -46 -148 -145 c-165 -162
-240 -230 -267 -244 -49 -27 -406 -366 -481 -457 -19 -23 -65 -67 -102 -97
-173 -142 -273 -232 -299 -272 -16 -24 -39 -60 -53 -80 -55 -84 -70 -202 -32
-251 22 -27 74 -47 123 -47 66 0 110 92 71 148 -15 21 -14 25 15 69 17 26 31
50 31 54 0 7 140 129 274 239 37 30 90 82 119 114 99 114 393 392 444 420 34
18 105 82 251 227 75 75 145 141 154 148 14 11 26 5 80 -37 90 -71 130 -88
273 -122 243 -58 434 17 540 211 24 45 30 68 33 139 6 128 -18 227 -76 315
-83 125 -132 184 -215 256 -94 81 -120 97 -197 115 -59 14 -278 17 -320 5z"/>
</g>
</svg>
