<?xml version="1.0" standalone="no"?>
<!DOCTYPE svg PUBLIC "-//W3C//DTD SVG 20010904//EN"
 "http://www.w3.org/TR/2001/REC-SVG-20010904/DTD/svg10.dtd">
<svg version="1.0" xmlns="http://www.w3.org/2000/svg"
 width="256.000000pt" height="256.000000pt" viewBox="0 0 256.000000 256.000000"
 preserveAspectRatio="xMidYMid meet">
<metadata>
Created by potrace 1.13, written by Peter Selinger 2001-2015
</metadata>
<g transform="translate(0.000000,256.000000) scale(0.100000,-0.100000)"
fill="#000000" stroke="none">
<path d="M137 2410 c-27 -22 -47 -74 -47 -123 0 -66 92 -110 148 -71 21 15 25
14 69 -15 26 -17 50 -31 54 -31 7 0 129 -140 239 -274 30 -37 82 -90 114 -119
114 -99 392 -393 420 -444 18 -34 82 -105 227 -251 75 -75 141 -145 148 -154
11 -14 5 -26 -37 -80 -71 -90 -88 -130 -122 -273 -58 -243 17 -434 211 -540
70 -38 186 -46 304 -20 83 17 142 50 277 153 65 49 191 189 217 242 31 62 43
150 39 281 -4 116 -6 128 -36 187 -44 84 -96 134 -192 182 -75 38 -84 40 -169
40 -99 0 -202 -19 -272 -51 l-46 -21 -145 148 c-162 165 -230 240 -244 267
-27 49 -366 406 -457 481 -23 19 -67 65 -97 102 -140 171 -232 272 -269 297
-23 15 -59 39 -80 53 -87 57 -205 73 -254 34z"/>
</g>
</svg>
