<?xml version="1.0" standalone="no"?>
<!DOCTYPE svg PUBLIC "-//W3C//DTD SVG 20010904//EN"
 "http://www.w3.org/TR/2001/REC-SVG-20010904/DTD/svg10.dtd">
<svg version="1.0" xmlns="http://www.w3.org/2000/svg"
 width="256.000000pt" height="256.000000pt" viewBox="0 0 256.000000 256.000000"
 preserveAspectRatio="xMidYMid meet">
<metadata>
Created by potrace 1.13, written by Peter Selinger 2001-2015
</metadata>
<g transform="translate(0.000000,256.000000) scale(0.100000,-0.100000)"
fill="#000000" stroke="none">
<path d="M199 2331 c-40 -41 -40 -91 0 -132 22 -21 39 -29 66 -29 55 0 151
-28 214 -61 87 -47 147 -83 168 -100 10 -8 47 -30 83 -47 36 -17 94 -57 130
-88 36 -30 79 -63 95 -71 85 -45 169 -116 304 -258 68 -71 130 -134 138 -138
7 -5 25 -26 38 -47 13 -21 48 -58 78 -82 53 -42 54 -44 66 -118 27 -169 55
-297 73 -333 10 -21 42 -61 69 -90 28 -29 62 -66 75 -83 13 -16 54 -50 91 -75
37 -25 94 -63 126 -85 117 -78 142 -94 167 -105 14 -6 48 -22 77 -35 73 -33
175 -51 208 -36 32 15 65 69 65 107 0 28 -60 131 -157 270 -15 22 -36 57 -47
78 -22 46 -90 115 -215 222 -52 44 -143 127 -202 185 -210 205 -281 270 -294
270 -8 0 -16 9 -20 19 -3 11 -24 36 -45 55 -22 20 -95 93 -161 163 -149 156
-213 208 -339 283 -19 11 -64 45 -100 75 -36 30 -91 68 -124 85 -32 16 -65 35
-74 42 -60 51 -274 153 -359 172 -112 25 -159 22 -194 -13z"/>
</g>
</svg>
