<?xml version="1.0" standalone="no"?>
<!DOCTYPE svg PUBLIC "-//W3C//DTD SVG 20010904//EN"
 "http://www.w3.org/TR/2001/REC-SVG-20010904/DTD/svg10.dtd">
<svg version="1.0" xmlns="http://www.w3.org/2000/svg"
 width="256.000000pt" height="256.000000pt" viewBox="0 0 256.000000 256.000000"
 preserveAspectRatio="xMidYMid meet">
<metadata>
Created by potrace 1.13, written by Peter Selinger 2001-2015
</metadata>
<g transform="translate(0.000000,256.000000) scale(0.100000,-0.100000)"
fill="#000000" stroke="none">
<path d="M374 1641 c-118 -29 -222 -121 -284 -252 -39 -83 -39 -122 -1 -160
37 -37 51 -36 214 2 116 27 155 32 317 36 155 4 222 1 417 -21 407 -46 736
-28 1153 61 l215 46 43 42 c34 35 42 49 42 79 0 78 -92 124 -153 76 -41 -32
-312 -88 -557 -116 -237 -26 -428 -30 -592 -12 l-106 11 -69 65 c-81 77 -151
111 -286 141 -118 25 -252 26 -353 2z"/>
</g>
</svg>
