<?xml version="1.0" standalone="no"?>
<!DOCTYPE svg PUBLIC "-//W3C//DTD SVG 20010904//EN"
 "http://www.w3.org/TR/2001/REC-SVG-20010904/DTD/svg10.dtd">
<svg version="1.0" xmlns="http://www.w3.org/2000/svg"
 width="256.000000pt" height="256.000000pt" viewBox="0 0 256.000000 256.000000"
 preserveAspectRatio="xMidYMid meet">
<metadata>
Created by potrace 1.13, written by Peter Selinger 2001-2015
</metadata>
<g transform="translate(0.000000,256.000000) scale(0.100000,-0.100000)"
fill="#000000" stroke="none">
<path d="M2199 2361 c-21 -22 -29 -39 -29 -66 0 -55 -28 -151 -61 -214 -47
-87 -83 -147 -100 -168 -8 -10 -30 -47 -47 -83 -17 -36 -57 -94 -88 -130 -30
-36 -63 -78 -71 -95 -45 -85 -116 -169 -258 -304 -71 -68 -134 -130 -138 -138
-5 -7 -26 -25 -47 -38 -21 -13 -58 -48 -82 -78 -42 -53 -44 -54 -118 -66 -169
-27 -297 -55 -333 -73 -21 -10 -61 -42 -90 -69 -29 -28 -66 -62 -83 -75 -16
-13 -50 -54 -75 -91 -25 -37 -63 -94 -85 -126 -78 -117 -94 -142 -105 -167 -6
-14 -22 -48 -35 -77 -33 -73 -51 -175 -36 -208 15 -32 69 -65 107 -65 28 0
131 60 270 157 22 15 57 36 78 47 46 22 115 90 222 215 44 52 127 143 185 202
205 210 270 281 270 294 0 8 9 16 19 20 11 3 36 24 55 45 20 22 93 95 163 161
156 149 208 213 283 339 11 19 45 64 75 100 30 36 68 91 85 124 16 32 35 65
42 74 19 22 72 117 117 207 42 86 71 196 71 270 0 61 -40 105 -95 105 -27 0
-44 -8 -66 -29z"/>
</g>
</svg>
