<?xml version="1.0" standalone="no"?>
<!DOCTYPE svg PUBLIC "-//W3C//DTD SVG 20010904//EN"
 "http://www.w3.org/TR/2001/REC-SVG-20010904/DTD/svg10.dtd">
<svg version="1.0" xmlns="http://www.w3.org/2000/svg"
 width="256.000000pt" height="256.000000pt" viewBox="0 0 256.000000 256.000000"
 preserveAspectRatio="xMidYMid meet">
<metadata>
Created by potrace 1.13, written by Peter Selinger 2001-2015
</metadata>
<g transform="translate(0.000000,256.000000) scale(0.100000,-0.100000)"
fill="#000000" stroke="none">
<path d="M1978 2299 c-34 -8 -89 -26 -196 -64 -23 -8 -80 -34 -125 -56 -121
-61 -247 -195 -284 -301 -20 -58 -28 -165 -15 -210 10 -36 9 -38 -43 -87 -30
-28 -59 -51 -64 -51 -6 0 -28 -15 -48 -34 -21 -18 -67 -48 -103 -66 -63 -32
-188 -121 -293 -208 -29 -24 -65 -51 -82 -59 -16 -9 -45 -28 -64 -42 -33 -25
-65 -46 -141 -91 -19 -11 -62 -41 -95 -65 -33 -25 -95 -63 -138 -85 -43 -22
-100 -62 -127 -88 -42 -41 -50 -54 -50 -85 0 -78 101 -147 193 -133 57 9 241
108 295 158 15 14 38 31 52 38 36 19 106 72 228 175 137 115 179 148 219 169
44 22 283 242 360 331 22 25 23 25 55 9 26 -13 63 -17 173 -18 l140 -1 75 39
c156 81 335 245 392 358 53 107 61 135 66 219 3 63 0 84 -17 117 -25 50 -105
119 -151 132 -42 12 -160 11 -212 -1z"/>
</g>
</svg>
