<?xml version="1.0" standalone="no"?>
<!DOCTYPE svg PUBLIC "-//W3C//DTD SVG 20010904//EN"
 "http://www.w3.org/TR/2001/REC-SVG-20010904/DTD/svg10.dtd">
<svg version="1.0" xmlns="http://www.w3.org/2000/svg"
 width="256.000000pt" height="256.000000pt" viewBox="0 0 256.000000 256.000000"
 preserveAspectRatio="xMidYMid meet">
<metadata>
Created by potrace 1.13, written by Peter Selinger 2001-2015
</metadata>
<g transform="translate(0.000000,256.000000) scale(0.100000,-0.100000)"
fill="#000000" stroke="none">
<path d="M630 1694 c-79 -9 -197 -38 -230 -56 -121 -66 -183 -122 -232 -208
-41 -71 -45 -162 -10 -227 24 -45 132 -140 212 -186 103 -59 175 -72 390 -71
l195 1 102 36 c118 40 190 88 227 151 23 39 30 44 72 50 26 3 104 6 173 6 138
0 193 -12 255 -54 54 -36 94 -45 236 -52 116 -6 130 -5 196 19 98 34 148 69
180 122 23 41 25 52 19 103 -6 51 -12 62 -56 104 -26 26 -77 62 -111 80 -59
31 -69 33 -163 32 -109 0 -210 -17 -265 -44 -26 -13 -73 -19 -185 -24 -82 -3
-200 -9 -261 -12 -107 -6 -112 -6 -118 14 -11 35 -128 120 -233 168 l-98 46
-130 3 c-71 2 -146 1 -165 -1z"/>
</g>
</svg>
