<?xml version="1.0" standalone="no"?>
<!DOCTYPE svg PUBLIC "-//W3C//DTD SVG 20010904//EN"
 "http://www.w3.org/TR/2001/REC-SVG-20010904/DTD/svg10.dtd">
<svg version="1.0" xmlns="http://www.w3.org/2000/svg"
 width="256.000000pt" height="256.000000pt" viewBox="0 0 256.000000 256.000000"
 preserveAspectRatio="xMidYMid meet">
<metadata>
Created by potrace 1.13, written by Peter Selinger 2001-2015
</metadata>
<g transform="translate(0.000000,256.000000) scale(0.100000,-0.100000)"
fill="#000000" stroke="none">
<path d="M630 2414 c-45 -41 -65 -97 -56 -157 9 -57 108 -241 158 -295 14 -15
31 -38 38 -52 19 -36 72 -106 175 -228 115 -137 148 -179 169 -219 22 -44 242
-283 331 -360 25 -22 25 -23 9 -55 -13 -26 -17 -63 -18 -173 l-1 -140 39 -75
c81 -156 245 -335 358 -392 107 -53 135 -61 219 -66 63 -3 84 0 117 17 52 26
119 105 133 156 17 61 5 198 -25 285 -47 137 -56 160 -97 243 -61 121 -195
247 -301 284 -58 20 -165 28 -210 15 -36 -10 -38 -9 -87 43 -28 30 -51 59 -51
64 0 6 -15 28 -34 48 -18 21 -48 67 -66 103 -32 63 -121 188 -208 293 -24 29
-51 66 -59 82 -9 17 -28 45 -42 64 -25 33 -46 65 -91 141 -11 19 -41 62 -65
95 -25 33 -63 95 -85 138 -22 43 -62 100 -88 127 -63 65 -102 68 -162 14z"/>
</g>
</svg>
