<?xml version="1.0" standalone="no"?>
<!DOCTYPE svg PUBLIC "-//W3C//DTD SVG 20010904//EN"
 "http://www.w3.org/TR/2001/REC-SVG-20010904/DTD/svg10.dtd">
<svg version="1.0" xmlns="http://www.w3.org/2000/svg"
 width="256.000000pt" height="256.000000pt" viewBox="0 0 256.000000 256.000000"
 preserveAspectRatio="xMidYMid meet">
<metadata>
Created by potrace 1.13, written by Peter Selinger 2001-2015
</metadata>
<g transform="translate(0.000000,256.000000) scale(0.100000,-0.100000)"
fill="#000000" stroke="none">
<path d="M229 2361 c-35 -35 -38 -82 -13 -194 19 -85 121 -299 172 -359 7 -9
26 -42 42 -74 17 -33 55 -88 85 -124 30 -36 64 -81 75 -100 75 -126 127 -190
283 -339 70 -66 143 -139 163 -161 19 -21 44 -42 55 -45 10 -4 19 -12 19 -20
0 -13 65 -84 270 -294 58 -59 141 -150 185 -202 107 -125 176 -193 222 -215
21 -11 56 -32 78 -47 139 -97 242 -157 270 -157 38 0 92 33 107 65 15 33 -3
135 -36 208 -13 29 -29 63 -35 77 -11 25 -27 50 -105 167 -22 32 -60 89 -85
126 -25 37 -59 78 -75 91 -17 13 -54 47 -83 75 -29 27 -69 59 -90 69 -36 18
-164 46 -333 73 -74 12 -76 13 -118 66 -24 30 -61 65 -82 78 -21 13 -42 31
-47 38 -4 8 -66 70 -138 138 -142 135 -213 219 -258 304 -8 17 -41 59 -71 95
-31 36 -71 94 -88 130 -17 36 -39 73 -47 83 -17 21 -53 81 -100 168 -33 63
-61 159 -61 214 0 51 -44 95 -95 95 -27 0 -44 -8 -66 -29z"/>
</g>
</svg>
