<?xml version="1.0" standalone="no"?>
<!DOCTYPE svg PUBLIC "-//W3C//DTD SVG 20010904//EN"
 "http://www.w3.org/TR/2001/REC-SVG-20010904/DTD/svg10.dtd">
<svg version="1.0" xmlns="http://www.w3.org/2000/svg"
 width="256.000000pt" height="256.000000pt" viewBox="0 0 256.000000 256.000000"
 preserveAspectRatio="xMidYMid meet">
<metadata>
Created by potrace 1.13, written by Peter Selinger 2001-2015
</metadata>
<g transform="translate(0.000000,256.000000) scale(0.100000,-0.100000)"
fill="#000000" stroke="none">
<path d="M485 2386 c-72 -18 -100 -35 -192 -115 -83 -72 -132 -131 -215 -256
-58 -88 -82 -187 -76 -315 3 -71 9 -94 33 -139 106 -194 297 -269 540 -211
143 34 183 51 273 122 54 42 66 48 80 37 9 -7 79 -73 154 -148 146 -145 217
-209 251 -227 51 -28 345 -306 444 -420 29 -32 82 -84 119 -114 134 -110 274
-232 274 -239 0 -4 14 -28 31 -54 29 -44 30 -48 15 -69 -39 -56 5 -148 71
-148 49 0 101 20 123 47 39 50 23 167 -36 256 -15 23 -39 59 -53 80 -23 36
-127 129 -295 267 -37 30 -83 74 -102 97 -75 91 -432 430 -481 457 -27 14
-102 82 -267 244 l-148 145 21 46 c32 70 51 173 51 272 0 85 -2 94 -40 169
-48 96 -98 148 -182 192 -61 32 -66 33 -203 35 -88 1 -159 -3 -190 -11z"/>
</g>
</svg>
