<?xml version="1.0" standalone="no"?>
<!DOCTYPE svg PUBLIC "-//W3C//DTD SVG 20010904//EN"
 "http://www.w3.org/TR/2001/REC-SVG-20010904/DTD/svg10.dtd">
<svg version="1.0" xmlns="http://www.w3.org/2000/svg"
 width="256.000000pt" height="256.000000pt" viewBox="0 0 256.000000 256.000000"
 preserveAspectRatio="xMidYMid meet">
<metadata>
Created by potrace 1.13, written by Peter Selinger 2001-2015
</metadata>
<g transform="translate(0.000000,256.000000) scale(0.100000,-0.100000)"
fill="#000000" stroke="none">
<path d="M1655 1691 c-105 -20 -334 -159 -351 -213 -6 -20 -11 -20 -118 -14
-61 3 -178 9 -261 12 -112 5 -159 11 -185 24 -55 27 -156 44 -265 44 -94 1
-104 -1 -163 -32 -34 -18 -85 -54 -111 -80 -44 -42 -50 -53 -56 -104 -6 -51
-4 -62 19 -103 32 -53 82 -88 180 -122 66 -24 80 -25 196 -19 142 7 182 16
236 52 62 42 117 54 255 54 69 0 147 -3 173 -6 42 -6 49 -11 72 -50 37 -63
109 -111 227 -151 l102 -36 195 -1 c215 -1 287 12 390 71 80 46 188 141 212
186 34 64 31 156 -7 222 -35 61 -108 140 -155 166 -19 11 -50 29 -69 41 -56
35 -173 57 -331 62 -80 3 -163 1 -185 -3z"/>
</g>
</svg>
