<?xml version="1.0" standalone="no"?>
<!DOCTYPE svg PUBLIC "-//W3C//DTD SVG 20010904//EN"
 "http://www.w3.org/TR/2001/REC-SVG-20010904/DTD/svg10.dtd">
<svg version="1.0" xmlns="http://www.w3.org/2000/svg"
 width="256.000000pt" height="423.000000pt" viewBox="0 0 256.000000 423.000000"
 preserveAspectRatio="xMidYMid meet">
<metadata>
Created by potrace 1.13, written by Peter Selinger 2001-2015
</metadata>
<g transform="translate(0.000000,423.000000) scale(0.100000,-0.100000)"
fill="#000000" stroke="none">
<path d="M780 4001 c-30 -4 -66 -12 -80 -18 -23 -11 -70 -25 -185 -55 -77 -20
-202 -88 -251 -137 -100 -98 -122 -130 -166 -246 -29 -76 -47 -238 -28 -250 6
-3 10 -16 10 -29 0 -12 7 -31 15 -42 8 -10 15 -28 15 -40 0 -22 53 -128 74
-149 6 -7 30 -32 52 -57 23 -25 60 -52 83 -61 51 -21 177 -23 200 -4 9 8 32
20 51 27 60 22 120 53 120 62 0 4 5 8 11 8 12 0 80 51 120 90 48 47 109 208
109 287 0 47 -36 119 -89 177 -106 114 -127 131 -207 164 -75 30 -148 42 -156
25 -1 -5 -25 -24 -53 -43 -27 -19 -61 -48 -74 -63 -14 -16 -31 -35 -38 -42 -7
-8 -13 -16 -13 -20 0 -4 -6 -13 -14 -20 -7 -8 -19 -42 -25 -77 -12 -64 -12
-64 26 -143 48 -100 81 -125 162 -125 78 0 126 34 150 106 15 47 8 79 -21 95
-28 15 -68 -6 -68 -37 0 -12 -8 -32 -18 -44 -16 -19 -24 -22 -55 -16 -31 6
-39 14 -60 57 -22 47 -23 55 -12 112 13 67 32 107 52 107 7 0 13 4 13 8 0 35
144 58 170 27 7 -8 22 -15 34 -15 24 0 115 -90 161 -159 23 -33 29 -53 27 -87
-2 -54 -30 -154 -43 -154 -5 0 -9 -6 -9 -14 0 -34 -173 -166 -219 -166 -10 0
-24 -7 -31 -15 -9 -11 -34 -15 -95 -15 -81 0 -82 0 -120 38 -46 46 -85 105
-85 131 0 10 -7 24 -15 31 -8 7 -15 23 -15 35 0 12 -6 41 -14 63 -13 35 -12
50 3 131 10 51 23 97 29 103 7 7 12 19 12 28 0 16 93 139 116 153 7 4 19 13
26 20 34 32 152 80 263 107 28 7 66 18 85 25 73 26 194 38 267 26 64 -11 72
-15 116 -64 73 -79 75 -83 87 -129 7 -24 17 -52 23 -63 6 -11 13 -84 15 -163
3 -112 1 -153 -12 -191 -9 -27 -14 -56 -11 -63 3 -7 -1 -36 -10 -63 -8 -28
-15 -67 -15 -88 0 -21 -5 -48 -12 -60 -6 -12 -15 -56 -19 -97 -4 -41 -12 -93
-18 -115 -6 -22 -11 -72 -11 -112 0 -39 -5 -75 -10 -78 -6 -3 -10 -25 -10 -48
-4 -346 -10 -531 -18 -536 -30 -19 -48 -192 -46 -451 1 -92 21 -135 100 -210
55 -52 80 -93 69 -111 -3 -5 2 -30 11 -56 9 -27 16 -57 16 -68 -1 -10 4 -25
10 -32 5 -7 12 -40 14 -74 2 -34 7 -66 12 -73 5 -6 13 -33 17 -60 3 -27 10
-56 15 -65 5 -9 14 -50 20 -91 7 -41 18 -93 26 -115 8 -23 14 -49 14 -58 0
-24 38 -107 49 -107 5 0 15 -17 22 -37 19 -59 102 -148 165 -178 53 -25 61
-26 192 -22 172 5 187 8 243 59 10 10 21 18 23 18 11 0 120 103 167 157 40 46
85 139 104 215 20 75 16 138 -11 191 -20 38 -134 153 -162 161 -11 4 -27 15
-37 26 -10 11 -26 20 -36 20 -10 0 -20 4 -24 9 -3 5 -38 19 -78 30 -39 12 -86
26 -103 31 -85 27 -180 -3 -270 -86 -76 -69 -84 -87 -84 -184 1 -94 28 -235
55 -278 26 -41 104 -112 124 -112 10 0 40 -11 67 -25 73 -37 110 -34 193 16
34 20 111 95 111 108 0 6 4 11 9 11 5 0 18 16 30 36 41 69 20 204 -41 268 -64
68 -156 85 -202 40 -14 -15 -26 -33 -26 -40 0 -8 -6 -14 -13 -14 -14 0 -39
-46 -57 -108 -15 -48 -2 -87 32 -98 21 -6 58 20 58 41 0 30 34 115 47 115 7 0
13 7 13 15 0 27 37 16 69 -20 28 -32 31 -42 31 -98 0 -56 -4 -66 -33 -98 -53
-59 -100 -89 -140 -89 -49 0 -143 46 -171 84 -28 37 -48 124 -54 228 l-3 77
45 43 c25 24 54 49 65 56 40 24 207 9 258 -24 12 -8 31 -14 42 -14 11 0 25 -9
31 -19 5 -11 20 -23 32 -27 13 -4 35 -19 49 -34 14 -15 35 -33 45 -41 32 -24
44 -56 44 -116 0 -133 -50 -215 -217 -363 -68 -60 -100 -70 -229 -70 -93 0
-122 4 -152 19 -37 19 -82 63 -82 80 0 5 -7 11 -15 15 -8 3 -15 15 -15 26 0
11 -10 30 -21 41 -23 23 -46 84 -60 159 -17 95 -31 156 -40 172 -5 10 -9 30
-9 45 0 16 -6 39 -13 53 -8 15 -17 42 -20 60 -3 19 -9 45 -13 58 -5 18 -2 22
15 22 27 0 51 51 51 107 0 21 9 65 19 98 13 42 18 84 17 140 -2 44 2 93 7 108
13 39 -9 168 -39 233 -13 28 -24 61 -24 73 0 45 -49 128 -118 201 -66 69 -76
101 -80 250 -2 74 2 185 8 245 6 61 13 135 15 165 6 88 17 154 28 168 5 6 7
25 4 41 -3 15 1 50 10 77 8 27 17 70 18 95 2 26 11 63 20 82 9 20 14 41 11 46
-4 6 0 40 9 76 20 87 20 281 -1 360 -8 33 -20 79 -25 102 -6 23 -21 53 -35 68
-13 14 -24 30 -24 34 0 4 -11 18 -25 31 -14 13 -25 29 -25 37 0 7 -5 13 -11
13 -7 0 -21 10 -33 23 -35 38 -102 59 -201 62 -49 2 -115 0 -145 -4z"/>
</g>
</svg>
