<?xml version="1.0" standalone="no"?>
<!DOCTYPE svg PUBLIC "-//W3C//DTD SVG 20010904//EN"
 "http://www.w3.org/TR/2001/REC-SVG-20010904/DTD/svg10.dtd">
<svg version="1.0" xmlns="http://www.w3.org/2000/svg"
 width="640.000000pt" height="480.000000pt" viewBox="0 0 640.000000 480.000000"
 preserveAspectRatio="xMidYMid meet">
<metadata>
Created by potrace 1.13, written by Peter Selinger 2001-2015
</metadata>
<g transform="translate(0.000000,480.000000) scale(0.100000,-0.100000)"
fill="#000000" stroke="none">
<path d="M1195 3838 c-27 -10 -61 -23 -75 -27 -14 -5 -43 -20 -64 -35 -21 -14
-46 -26 -55 -26 -23 0 -94 -51 -153 -109 -28 -28 -56 -51 -61 -51 -12 0 -200
-193 -252 -258 -49 -62 -76 -130 -80 -198 -3 -65 -22 -123 -48 -151 -35 -39
-47 -129 -54 -397 -6 -277 13 -356 178 -710 85 -181 153 -283 243 -359 96 -82
335 -205 530 -272 l109 -37 126 10 c172 14 289 51 481 152 25 13 57 32 72 42
15 10 55 27 90 38 74 24 183 94 252 163 28 26 62 55 76 62 14 7 39 34 55 59
16 25 32 46 36 46 5 0 25 25 45 56 20 31 43 58 51 61 7 3 39 43 70 90 31 47
62 87 70 90 16 6 83 105 83 122 0 7 9 24 20 38 11 14 20 32 20 40 0 16 31 60
75 107 30 33 65 102 105 211 27 75 53 125 102 195 21 30 38 62 38 71 0 9 22
50 50 90 27 41 50 82 50 91 0 9 11 27 25 40 16 15 38 65 64 145 44 134 60 170
115 253 78 120 141 161 312 204 91 23 255 21 330 -4 32 -11 67 -20 77 -20 24
0 80 -29 90 -46 4 -8 31 -26 60 -40 29 -15 55 -33 60 -40 4 -7 34 -27 66 -44
33 -18 82 -55 109 -83 28 -29 62 -64 77 -79 15 -14 30 -30 35 -35 4 -4 82 -83
172 -175 90 -91 177 -186 193 -210 16 -24 45 -59 64 -78 34 -34 59 -68 114
-157 44 -70 77 -123 103 -162 14 -22 32 -59 40 -82 8 -23 24 -53 34 -67 11
-14 20 -31 20 -40 0 -8 9 -42 19 -76 11 -33 25 -81 31 -106 6 -25 16 -59 21
-76 5 -17 9 -66 9 -109 0 -43 -4 -92 -9 -109 -5 -17 -14 -49 -20 -71 -28 -109
-46 -164 -67 -202 -31 -54 -161 -183 -185 -183 -11 0 -36 -16 -56 -36 -21 -19
-51 -42 -68 -51 -16 -8 -37 -22 -46 -30 -15 -12 -73 -37 -154 -65 -54 -18
-119 -30 -195 -35 -65 -4 -88 -1 -175 28 -55 18 -107 38 -115 45 -9 7 -58 27
-110 44 -141 46 -188 81 -240 182 -45 87 -66 282 -39 367 27 85 89 186 156
254 88 90 132 110 243 111 74 1 92 -3 142 -27 71 -35 132 -95 154 -152 19 -51
16 -163 -7 -229 -15 -43 -24 -47 -135 -70 -69 -15 -80 -11 -118 39 l-27 35 32
45 c27 38 31 50 23 72 -5 14 -21 35 -36 46 -42 31 -72 17 -118 -56 -42 -66
-52 -125 -28 -170 23 -45 103 -129 139 -148 54 -27 90 -25 260 19 110 28 169
144 169 332 0 123 -55 226 -166 310 -115 86 -230 115 -369 91 -103 -18 -154
-49 -260 -159 -5 -6 -21 -21 -34 -34 -45 -44 -135 -206 -160 -289 -14 -44 -14
-191 -1 -282 11 -77 96 -259 130 -277 11 -6 30 -20 44 -33 43 -40 109 -73 216
-107 58 -19 112 -39 120 -46 8 -7 64 -29 124 -49 97 -32 117 -36 185 -32 109
7 152 18 329 82 24 8 55 24 70 34 15 10 53 35 85 55 31 20 57 41 57 46 0 5 16
14 36 19 53 15 222 188 263 269 17 34 31 71 31 82 0 12 5 31 12 43 6 12 15 40
19 62 4 22 13 60 20 85 17 65 22 208 10 252 -6 21 -16 57 -22 81 -6 23 -19 70
-30 103 -10 34 -19 72 -19 86 0 13 -16 48 -35 78 -19 30 -35 62 -35 70 0 9
-14 39 -32 66 -17 27 -42 66 -55 87 -12 20 -34 54 -47 75 -13 20 -36 59 -52
86 -16 27 -53 74 -82 105 -30 31 -61 70 -69 86 -9 17 -87 102 -173 190 -87 88
-209 213 -272 277 -80 84 -130 127 -173 150 -33 17 -64 37 -68 45 -4 7 -31 25
-60 39 -29 15 -56 33 -60 40 -12 21 -55 40 -172 79 -98 33 -114 35 -233 35
-174 0 -332 -42 -441 -117 -29 -21 -66 -44 -80 -52 -14 -8 -53 -39 -86 -69
-33 -29 -80 -65 -105 -78 -25 -13 -56 -32 -68 -42 -33 -26 -135 -173 -181
-262 -21 -41 -51 -86 -66 -100 -15 -14 -42 -51 -60 -82 -19 -32 -52 -80 -75
-109 -45 -57 -122 -211 -164 -329 -55 -151 -98 -236 -249 -485 -193 -320 -271
-429 -347 -490 -28 -22 -65 -52 -83 -66 -47 -38 -60 -44 -229 -100 -84 -27
-157 -54 -162 -59 -5 -5 -14 -6 -22 -3 -7 2 -41 -5 -75 -17 -51 -18 -74 -21
-128 -16 -36 4 -83 16 -104 26 -21 11 -48 20 -61 20 -13 0 -40 12 -61 26 -21
14 -49 30 -62 35 -13 5 -23 13 -23 18 0 11 -83 69 -117 82 -13 5 -23 13 -23
19 0 5 -18 21 -40 35 -22 14 -46 38 -55 55 -8 16 -28 36 -44 45 -40 20 -202
264 -225 337 -10 31 -24 62 -32 69 -8 6 -14 19 -14 28 0 10 -6 26 -14 36 -7
10 -11 26 -9 36 3 9 -1 28 -8 40 -7 13 -12 32 -10 41 1 10 -4 28 -11 40 -6 13
-11 29 -10 35 2 7 -3 32 -11 55 -9 30 -13 85 -11 178 2 124 5 145 39 255 38
119 82 277 93 325 3 14 13 36 23 49 11 13 19 29 19 36 0 14 188 205 202 205 5
0 36 27 70 59 33 33 75 65 92 71 17 6 42 18 56 25 30 17 77 40 124 59 40 17
203 23 232 9 10 -5 53 -20 94 -33 41 -14 100 -41 130 -62 30 -21 61 -38 68
-38 8 0 25 -9 39 -20 14 -11 31 -20 38 -20 7 0 20 -11 29 -25 9 -14 27 -27 41
-31 14 -3 25 -13 25 -21 0 -8 26 -40 59 -72 32 -32 62 -67 65 -78 4 -12 13
-27 21 -33 8 -7 15 -20 15 -29 0 -9 18 -42 40 -74 22 -31 40 -63 40 -70 0 -7
6 -22 14 -32 7 -10 11 -26 9 -36 -3 -9 1 -28 8 -40 7 -13 12 -32 10 -42 -1
-10 4 -28 12 -40 17 -27 16 -221 -1 -254 -7 -12 -12 -31 -12 -43 0 -40 -49
-168 -75 -194 -14 -14 -25 -34 -25 -44 0 -19 -93 -120 -135 -148 -25 -16 -134
-53 -192 -65 -24 -5 -64 -14 -90 -20 -27 -6 -87 -13 -135 -16 -94 -5 -136 9
-195 63 -15 14 -36 33 -46 42 -9 8 -33 49 -52 89 -29 61 -35 85 -35 139 0 121
46 200 135 234 48 18 114 -8 186 -75 46 -43 69 -82 69 -117 0 -40 -39 -104
-74 -123 -31 -17 -40 -17 -91 -6 -49 11 -59 11 -80 -3 -55 -36 -35 -108 36
-133 56 -20 139 -16 179 8 90 54 157 146 167 228 7 65 -18 149 -55 184 -15 13
-40 41 -56 62 -20 25 -56 50 -120 82 -85 42 -95 44 -150 39 -65 -7 -84 -17
-163 -84 -92 -78 -123 -149 -123 -289 0 -95 3 -106 64 -233 35 -74 159 -189
244 -227 49 -22 66 -24 151 -20 53 3 117 10 144 16 26 6 66 15 90 20 77 16
223 69 262 96 61 41 185 171 185 194 0 11 11 30 25 43 24 23 78 165 97 258 16
78 17 242 1 267 -7 13 -11 33 -7 47 3 13 0 35 -7 48 -7 12 -12 31 -10 40 1 10
-4 28 -10 40 -7 13 -12 32 -11 44 2 11 -6 32 -18 46 -11 14 -20 32 -20 40 0 7
-17 38 -38 68 -21 31 -42 68 -46 83 -3 15 -17 34 -31 43 -14 9 -25 23 -25 30
0 18 -105 124 -123 124 -7 0 -18 13 -24 30 -6 16 -24 35 -40 42 -15 7 -40 25
-55 40 -14 16 -33 28 -42 28 -9 0 -42 18 -73 40 -32 22 -64 40 -72 40 -8 0
-22 6 -30 14 -20 18 -169 69 -185 63 -7 -3 -20 1 -31 9 -29 22 -178 17 -240
-8z"/>
</g>
</svg>
