<?xml version="1.0" standalone="no"?>
<!DOCTYPE svg PUBLIC "-//W3C//DTD SVG 20010904//EN"
 "http://www.w3.org/TR/2001/REC-SVG-20010904/DTD/svg10.dtd">
<svg version="1.0" xmlns="http://www.w3.org/2000/svg"
 width="353.000000pt" height="582.000000pt" viewBox="0 0 353.000000 582.000000"
 preserveAspectRatio="xMidYMid meet">
<metadata>
Created by potrace 1.13, written by Peter Selinger 2001-2015
</metadata>
<g transform="translate(0.000000,582.000000) scale(0.100000,-0.100000)"
fill="#000000" stroke="none">
<path d="M2065 5666 c-88 -41 -266 -201 -305 -276 -7 -14 -22 -31 -33 -39 -23
-16 -56 -87 -57 -120 0 -13 -11 -55 -25 -93 -14 -40 -30 -112 -35 -167 -5 -53
-14 -116 -19 -141 -5 -25 -12 -93 -15 -151 -2 -58 -12 -135 -22 -170 -14 -53
-15 -93 -10 -234 3 -106 11 -185 20 -210 11 -31 14 -113 16 -360 0 -176 5
-396 10 -490 6 -93 14 -253 19 -355 5 -102 14 -212 19 -245 6 -34 10 -310 11
-645 1 -620 -9 -809 -49 -985 -10 -44 -22 -105 -26 -135 -7 -57 -40 -125 -81
-166 -12 -13 -23 -32 -23 -42 0 -10 -25 -50 -55 -89 -47 -60 -64 -74 -119 -98
-62 -26 -69 -27 -208 -23 -155 5 -218 21 -269 69 -15 13 -40 35 -58 49 -28 23
-62 57 -149 149 -55 59 -99 148 -117 240 -25 121 -11 194 47 248 13 12 38 35
57 53 18 17 51 40 72 50 21 11 42 26 46 34 4 8 27 22 51 30 23 9 61 23 85 32
60 24 121 36 207 40 88 5 110 -5 211 -100 l62 -58 -7 -87 c-14 -197 -53 -331
-104 -363 -51 -33 -57 -36 -111 -59 -33 -15 -73 -24 -101 -23 -41 0 -56 7
-110 50 -35 27 -78 69 -96 93 -29 38 -34 52 -34 101 0 77 15 119 58 157 41 38
62 41 80 13 10 -17 10 -25 -3 -43 -9 -13 -15 -44 -15 -80 0 -51 4 -62 29 -88
26 -25 37 -29 86 -29 97 0 174 56 162 117 -4 16 -10 49 -15 75 -12 62 -33 92
-89 124 -27 15 -63 40 -81 56 -95 81 -293 -17 -337 -168 -8 -28 -15 -90 -15
-137 0 -83 1 -86 42 -148 50 -75 112 -137 185 -185 98 -66 173 -71 278 -21 39
19 84 37 100 41 18 4 56 35 97 77 78 81 96 127 123 310 20 139 19 231 -1 272
-26 53 -157 171 -234 211 -68 36 -73 37 -153 33 -99 -6 -150 -16 -242 -50 -38
-14 -90 -32 -115 -41 -25 -9 -52 -25 -61 -35 -8 -10 -31 -26 -50 -36 -19 -10
-47 -29 -63 -44 -93 -84 -159 -156 -172 -187 -25 -60 -29 -160 -10 -255 19
-90 93 -247 132 -278 11 -9 33 -35 47 -57 14 -23 38 -51 54 -63 38 -29 125
-101 168 -140 75 -67 172 -91 370 -91 l149 0 81 40 c67 32 94 52 142 107 61
69 93 120 93 148 0 8 9 23 21 33 25 21 51 71 68 132 7 25 16 59 21 75 5 17 12
48 15 70 10 67 27 115 42 115 8 0 13 12 13 33 0 17 9 52 20 76 14 30 20 65 20
116 0 40 7 109 15 152 34 177 55 360 55 479 0 69 5 134 11 145 8 15 22 312 19
412 -1 16 -1 49 -1 97 0 11 1 52 1 90 0 39 -1 79 -1 90 0 11 0 34 0 50 0 17 0
39 0 50 0 11 0 34 0 50 0 17 0 39 0 50 0 11 1 52 1 90 0 39 0 78 0 88 0 37 -8
78 -20 105 -10 21 -11 33 -2 53 8 16 9 31 3 42 -5 9 -8 50 -6 91 2 40 -2 88
-7 105 -6 17 -12 102 -14 189 -2 100 -10 180 -20 220 -31 124 -52 277 -53 390
-1 76 0 80 30 108 30 28 31 29 25 106 -6 86 -6 83 -6 183 0 39 0 78 0 88 -2
49 12 78 43 88 43 13 68 52 77 120 11 85 51 166 115 234 7 9 38 24 67 34 29
10 103 43 165 74 l112 55 73 -18 c40 -9 86 -23 103 -30 16 -7 79 -25 139 -39
121 -29 250 -85 323 -141 70 -54 149 -151 187 -230 38 -80 52 -131 65 -232 8
-62 6 -84 -14 -160 -28 -105 -56 -181 -83 -225 -30 -47 -127 -142 -154 -150
-52 -14 -178 -8 -216 11 -20 10 -48 21 -62 24 -36 9 -187 107 -236 153 -65 62
-96 126 -128 266 -15 64 -14 69 5 110 11 24 35 63 53 88 49 68 167 180 196
187 14 3 42 14 62 24 47 24 111 24 164 0 53 -24 122 -92 129 -128 4 -15 11
-41 16 -57 5 -16 9 -37 9 -47 0 -15 -4 -16 -32 -7 -64 21 -113 43 -140 61 -39
29 -72 16 -108 -41 -42 -67 -40 -110 7 -163 45 -49 105 -85 184 -110 88 -27
125 -25 160 10 16 16 29 40 29 53 0 13 12 45 26 72 25 47 26 53 16 123 -5 40
-19 92 -31 115 -31 65 -146 185 -223 234 -80 51 -130 57 -216 24 -171 -66
-154 -56 -222 -123 -14 -14 -45 -48 -70 -76 -25 -27 -59 -65 -76 -84 -35 -38
-83 -134 -91 -182 -11 -71 68 -312 131 -398 11 -16 37 -38 56 -50 19 -11 39
-27 43 -34 11 -18 142 -101 197 -125 25 -11 73 -33 108 -49 55 -26 74 -29 160
-29 134 0 194 19 230 70 15 22 35 42 44 45 23 8 106 119 130 175 11 25 26 65
33 90 16 55 33 105 51 148 18 41 17 93 -1 207 -16 103 -21 122 -64 224 -47
111 -198 284 -301 344 -22 12 -44 32 -49 44 -6 12 -30 32 -53 44 -24 11 -61
38 -83 59 -55 52 -154 120 -176 120 -10 0 -21 5 -24 10 -17 27 -122 67 -240
90 -33 6 -78 16 -100 20 -22 5 -83 9 -135 9 -79 1 -103 -3 -145 -23z m-196
-2393 c1 -7 -3 -13 -9 -13 -5 0 -10 15 -9 33 0 27 2 29 9 12 5 -11 9 -26 9
-32z m-149 -323 c0 -5 -4 -10 -9 -10 -6 0 -13 5 -16 10 -3 6 1 10 9 10 9 0 16
-4 16 -10z"/>
</g>
</svg>
