<?xml version="1.0" standalone="no"?>
<!DOCTYPE svg PUBLIC "-//W3C//DTD SVG 20010904//EN"
 "http://www.w3.org/TR/2001/REC-SVG-20010904/DTD/svg10.dtd">
<svg version="1.0" xmlns="http://www.w3.org/2000/svg"
 width="582.000000pt" height="353.000000pt" viewBox="0 0 582.000000 353.000000"
 preserveAspectRatio="xMidYMid meet">
<metadata>
Created by potrace 1.13, written by Peter Selinger 2001-2015
</metadata>
<g transform="translate(0.000000,353.000000) scale(0.100000,-0.100000)"
fill="#000000" stroke="none">
<path d="M905 3184 c-76 -17 -237 -96 -264 -130 -9 -11 -35 -33 -57 -47 -23
-14 -51 -38 -63 -54 -29 -38 -101 -125 -140 -168 -67 -75 -91 -172 -91 -370
l0 -149 40 -81 c32 -67 52 -94 107 -142 69 -61 120 -93 148 -93 8 0 23 -9 33
-21 21 -25 71 -51 132 -68 25 -7 59 -16 75 -21 17 -5 48 -12 70 -15 67 -10
115 -27 115 -42 0 -8 12 -13 33 -13 17 0 52 -9 76 -20 30 -14 65 -20 116 -20
40 0 109 -7 152 -15 177 -34 360 -55 479 -55 69 0 134 -5 145 -11 15 -8 312
-22 412 -19 16 1 49 1 97 1 11 0 52 -1 90 -1 39 0 79 1 90 1 11 0 34 0 50 0
17 0 39 0 50 0 11 0 34 0 50 0 17 0 39 0 50 0 11 0 52 -1 90 -1 39 0 78 0 88
0 37 0 78 8 105 20 21 10 33 11 53 2 16 -8 31 -9 42 -3 9 5 50 8 91 6 40 -2
88 2 105 7 17 6 102 12 189 14 100 2 180 10 220 20 34 8 85 19 112 23 28 3 56
10 62 14 7 5 127 13 265 18 540 22 550 22 596 6 64 -22 153 -79 170 -108 9
-15 30 -32 48 -38 18 -6 35 -18 38 -26 3 -8 18 -21 33 -29 49 -25 124 -108
141 -156 12 -33 16 -78 15 -170 -1 -121 -12 -185 -52 -295 -6 -16 -22 -77 -36
-134 -29 -118 -86 -247 -140 -318 -54 -70 -151 -149 -230 -187 -80 -38 -131
-52 -232 -65 -62 -8 -84 -6 -160 14 -105 28 -181 56 -225 83 -47 30 -142 127
-150 154 -14 52 -8 178 11 216 10 20 21 48 24 62 9 36 107 187 153 236 62 65
126 96 266 128 64 15 69 14 110 -5 24 -11 63 -35 88 -53 68 -49 180 -167 187
-196 3 -14 14 -42 24 -62 24 -47 24 -111 0 -164 -24 -53 -92 -122 -128 -130
-15 -3 -41 -10 -58 -15 -57 -16 -109 -12 -167 14 -62 29 -88 57 -88 98 0 47
11 59 66 75 82 24 106 72 59 119 -28 29 -64 32 -126 10 -85 -30 -139 -107
-139 -199 0 -102 50 -176 145 -216 28 -12 68 -31 91 -42 37 -19 47 -20 112
-10 40 6 91 20 115 31 64 31 184 147 233 223 51 80 57 130 24 216 -66 171 -56
154 -123 222 -14 14 -48 45 -76 70 -27 25 -65 59 -84 76 -38 35 -134 83 -182
91 -71 11 -312 -68 -398 -131 -16 -11 -38 -37 -50 -56 -11 -19 -27 -39 -34
-43 -18 -11 -101 -142 -125 -197 -11 -25 -33 -73 -49 -108 -26 -55 -29 -74
-29 -160 0 -134 19 -194 70 -230 22 -15 42 -35 45 -44 8 -23 119 -106 175
-130 25 -11 65 -26 90 -33 55 -16 105 -33 148 -51 41 -18 93 -17 207 1 210 33
343 106 497 274 76 83 145 224 188 381 17 63 42 149 55 190 46 137 58 372 24
470 -7 19 -17 48 -22 64 -19 53 -149 186 -196 201 -12 3 -21 11 -21 16 0 15
-62 49 -89 49 -13 0 -59 18 -103 40 -43 22 -102 47 -131 54 -28 8 -68 21 -87
29 -111 47 -226 88 -303 106 -111 26 -289 28 -392 4 -55 -12 -141 -17 -395
-20 -179 -2 -413 -8 -520 -13 -107 -6 -276 -14 -375 -19 -99 -5 -207 -14 -240
-19 -34 -6 -310 -10 -645 -11 -620 -1 -809 9 -985 49 -44 10 -105 22 -135 26
-57 7 -125 40 -166 81 -13 12 -32 23 -42 23 -10 0 -50 25 -89 55 -60 47 -74
64 -98 119 -26 62 -27 69 -23 208 5 155 21 218 69 269 13 15 35 40 49 58 23
28 57 62 149 149 59 55 148 99 240 117 121 25 194 11 248 -47 12 -13 35 -38
53 -57 17 -18 40 -51 50 -72 11 -21 26 -42 34 -46 8 -4 22 -28 31 -53 9 -25
24 -63 32 -85 23 -58 35 -120 39 -205 5 -88 -5 -110 -100 -211 l-58 -62 -87 7
c-197 14 -331 53 -363 104 -33 51 -36 57 -59 111 -15 33 -24 73 -23 101 0 41
7 56 50 110 27 35 69 78 93 96 38 29 52 34 101 34 77 0 119 -15 158 -58 39
-43 40 -63 7 -97 -35 -34 -71 -51 -129 -60 -54 -7 -96 -41 -96 -75 0 -30 44
-70 77 -70 49 0 170 47 208 80 103 92 105 94 105 155 0 46 -6 68 -31 111 -63
110 -148 154 -302 154 -83 0 -86 -1 -148 -42 -75 -50 -137 -112 -185 -185 -66
-98 -71 -173 -21 -278 19 -39 37 -83 41 -100 4 -18 35 -56 77 -97 81 -78 127
-96 310 -123 139 -20 231 -19 272 1 53 26 171 157 211 234 36 68 37 73 33 153
-6 99 -16 150 -50 242 -14 39 -32 90 -41 115 -9 25 -25 52 -35 61 -10 8 -26
31 -36 50 -10 19 -29 47 -44 63 -84 94 -156 159 -189 173 -53 22 -183 26 -267
7z m2051 -1371 c-10 -10 -19 5 -10 18 6 11 8 11 12 0 2 -7 1 -15 -2 -18z m349
-143 c-28 -12 -45 -12 -45 0 0 6 15 10 33 9 27 0 29 -2 12 -9z"/>
</g>
</svg>
