<?xml version="1.0" standalone="no"?>
<!DOCTYPE svg PUBLIC "-//W3C//DTD SVG 20010904//EN"
 "http://www.w3.org/TR/2001/REC-SVG-20010904/DTD/svg10.dtd">
<svg version="1.0" xmlns="http://www.w3.org/2000/svg"
 width="176.000000pt" height="291.000000pt" viewBox="0 0 176.000000 291.000000"
 preserveAspectRatio="xMidYMid meet">
<metadata>
Created by potrace 1.13, written by Peter Selinger 2001-2015
</metadata>
<g transform="translate(0.000000,291.000000) scale(0.100000,-0.100000)"
fill="#000000" stroke="none">
<path d="M1089 2740 c-37 -19 -109 -92 -109 -110 0 -6 -9 -23 -19 -38 -11 -15
-27 -56 -36 -92 -9 -36 -25 -89 -36 -118 -10 -29 -19 -67 -19 -85 0 -18 -7
-67 -15 -110 -24 -125 -36 -334 -35 -602 2 -277 3 -314 10 -310 3 2 6 -58 8
-133 2 -75 10 -166 18 -202 8 -36 19 -153 25 -260 12 -218 8 -248 -41 -300
-17 -18 -30 -35 -30 -39 0 -3 -18 -27 -40 -53 -33 -38 -49 -48 -92 -58 -56
-11 -117 -7 -188 15 -25 8 -77 23 -116 34 -85 25 -141 61 -187 121 -78 103
-89 204 -35 330 11 25 33 60 51 78 27 28 37 32 83 32 59 0 118 -23 182 -69 52
-39 78 -79 93 -148 12 -50 11 -54 -16 -95 -51 -77 -124 -128 -183 -128 -38 0
-90 40 -103 79 -6 18 -9 54 -5 79 5 35 2 50 -11 64 -23 26 -30 23 -53 -22 -22
-43 -20 -90 6 -140 15 -29 90 -103 121 -119 59 -30 156 7 234 89 97 102 107
149 57 275 -27 68 -93 126 -198 176 -57 27 -72 31 -136 27 -67 -3 -74 -6 -104
-38 -57 -61 -76 -93 -104 -173 -25 -73 -27 -83 -17 -148 28 -175 149 -301 336
-348 28 -7 66 -19 85 -26 98 -36 236 -27 299 19 36 27 101 109 101 128 0 7 7
27 16 43 9 17 26 59 39 95 13 36 33 92 46 125 18 46 23 79 22 145 -1 123 -19
542 -33 778 -17 279 -8 831 14 927 19 81 35 125 47 125 4 0 11 10 15 23 10 32
52 80 83 94 32 15 170 17 206 3 15 -6 34 -17 43 -26 123 -113 150 -155 159
-239 4 -39 1 -60 -12 -82 -36 -61 -195 -143 -279 -143 -25 0 -47 10 -80 38
-39 33 -45 42 -45 78 -1 62 17 146 37 174 23 31 78 59 118 60 23 0 42 -11 78
-46 47 -44 48 -47 43 -92 -6 -52 -37 -87 -68 -77 -11 4 -19 2 -19 -4 0 -5 -8
-17 -17 -27 -16 -15 -16 -17 2 -30 27 -20 62 -17 100 6 47 29 66 64 72 129 4
50 2 61 -24 99 -41 60 -117 112 -163 112 -85 0 -188 -74 -211 -150 -5 -19 -12
-74 -16 -121 l-6 -85 34 -39 c51 -57 115 -95 163 -95 40 0 203 51 215 67 3 4
26 22 50 38 25 17 58 48 74 70 27 37 29 45 25 110 -6 94 -41 159 -131 248 -94
92 -127 107 -247 106 -74 0 -103 -4 -131 -19z"/>
</g>
</svg>
