<?xml version="1.0" standalone="no"?>
<!DOCTYPE svg PUBLIC "-//W3C//DTD SVG 20010904//EN"
 "http://www.w3.org/TR/2001/REC-SVG-20010904/DTD/svg10.dtd">
<svg version="1.0" xmlns="http://www.w3.org/2000/svg"
 width="199.000000pt" height="121.000000pt" viewBox="0 0 199.000000 121.000000"
 preserveAspectRatio="xMidYMid meet">
<metadata>
Created by potrace 1.13, written by Peter Selinger 2001-2015
</metadata>
<g transform="translate(0.000000,121.000000) scale(0.100000,-0.100000)"
fill="#000000" stroke="none">
<path d="M1350 1063 c-14 -2 -65 -13 -114 -25 -135 -32 -261 -126 -331 -245
-11 -18 -23 -33 -27 -33 -4 0 -28 -39 -53 -87 -111 -213 -192 -321 -302 -399
-51 -37 -69 -44 -108 -44 -87 0 -166 49 -214 134 -36 62 -39 98 -11 144 24 39
54 52 125 52 46 0 56 -4 75 -27 46 -58 4 -136 -63 -119 -31 7 -36 32 -8 41 45
14 31 65 -18 65 -40 0 -62 -21 -68 -66 -10 -77 41 -120 131 -111 41 4 55 10
83 41 29 31 33 43 33 89 0 44 -6 62 -30 95 -42 58 -60 65 -155 60 -95 -5 -130
-24 -170 -92 -37 -64 -34 -123 10 -202 61 -109 148 -165 267 -172 l77 -5 72
49 c74 50 152 135 216 234 20 30 44 67 53 81 10 14 34 58 54 97 46 90 156 235
210 274 66 48 105 64 215 88 145 31 189 26 279 -34 82 -54 109 -84 118 -132 9
-46 0 -75 -39 -126 -31 -41 -36 -43 -99 -50 -84 -10 -135 6 -165 52 -73 107
50 206 160 128 31 -22 33 -31 11 -52 -20 -20 -64 -21 -64 -1 0 8 -9 19 -21 25
-47 26 -69 -48 -26 -88 26 -25 89 -30 132 -10 39 18 68 72 61 113 -11 56 -100
115 -175 115 -44 0 -119 -41 -145 -79 -45 -65 -29 -170 36 -227 46 -42 103
-55 196 -48 78 6 88 10 122 40 20 18 49 56 64 85 25 45 28 59 23 110 -6 74
-34 118 -104 171 -101 74 -157 98 -227 97 -33 -1 -72 -3 -86 -6z"/>
</g>
</svg>
