<?xml version="1.0" standalone="no"?>
<!DOCTYPE svg PUBLIC "-//W3C//DTD SVG 20010904//EN"
 "http://www.w3.org/TR/2001/REC-SVG-20010904/DTD/svg10.dtd">
<svg version="1.0" xmlns="http://www.w3.org/2000/svg"
 width="280.000000pt" height="166.000000pt" viewBox="0 0 280.000000 166.000000"
 preserveAspectRatio="xMidYMid meet">
<metadata>
Created by potrace 1.13, written by Peter Selinger 2001-2015
</metadata>
<g transform="translate(0.000000,166.000000) scale(0.100000,-0.100000)"
fill="#000000" stroke="none">
<path d="M2205 1563 c-22 -16 -53 -49 -70 -74 -16 -24 -34 -47 -38 -50 -16
-12 -67 -175 -67 -215 0 -48 38 -112 95 -163 l39 -34 85 6 c47 4 102 11 121
16 76 23 150 126 150 211 0 46 -52 122 -112 163 -38 26 -49 28 -99 24 -31 -3
-68 -13 -83 -22 -34 -22 -66 -76 -66 -110 0 -47 91 -115 153 -115 22 0 47 16
47 31 0 16 -33 39 -55 39 -13 0 -36 10 -51 23 -23 20 -25 26 -15 46 14 25 49
41 92 41 42 0 119 -81 119 -124 -1 -40 -29 -95 -60 -118 -28 -20 -112 -38
-174 -37 -36 0 -45 6 -78 45 -28 33 -38 55 -38 80 0 84 82 243 143 279 22 13
43 16 82 12 84 -9 126 -36 239 -159 9 -9 20 -28 26 -43 13 -35 13 -166 -1
-202 -11 -29 -66 -82 -86 -83 -6 0 -19 -7 -27 -16 -9 -9 -98 -36 -198 -61
-171 -43 -182 -44 -194 -28 -16 22 -113 43 -249 55 -108 9 -170 3 -225 -22
-19 -9 -54 -21 -77 -27 -23 -6 -62 -30 -91 -56 -28 -25 -69 -52 -92 -60 -94
-33 -409 -5 -740 66 -25 6 -88 13 -140 15 -208 12 -366 -73 -400 -217 -14 -56
-6 -162 15 -219 7 -19 19 -57 26 -85 22 -89 57 -154 114 -214 67 -70 137 -106
234 -122 65 -10 75 -8 148 17 80 28 112 47 173 104 32 30 35 37 38 104 4 64 0
79 -27 136 -50 105 -108 171 -176 198 -83 33 -135 38 -179 17 -63 -30 -152
-123 -175 -183 -35 -88 -28 -116 43 -190 75 -79 138 -96 213 -58 26 13 56 33
66 44 27 29 32 83 12 121 -27 54 -113 77 -129 35 -8 -22 0 -32 40 -49 91 -38
-18 -119 -117 -86 -39 13 -79 65 -79 103 0 59 51 132 128 183 41 27 45 28 95
16 69 -15 109 -41 148 -93 46 -64 69 -123 69 -182 0 -46 -4 -56 -32 -83 -18
-18 -53 -40 -78 -51 -126 -54 -227 -43 -330 35 -60 46 -96 102 -121 187 -11
39 -26 91 -34 116 -22 71 -26 132 -15 188 24 110 150 170 332 159 119 -8 156
-13 191 -26 16 -6 32 -9 37 -6 5 3 21 0 37 -6 15 -6 49 -12 74 -13 25 -2 50
-5 56 -9 5 -3 39 -9 74 -12 35 -4 84 -9 109 -12 25 -3 117 -7 206 -8 104 -2
169 -7 184 -15 13 -7 59 -14 104 -16 45 -2 107 -6 138 -9 85 -9 130 8 199 71
43 40 65 53 79 49 10 -3 21 -1 25 5 3 6 11 8 16 5 5 -4 15 -3 21 1 13 9 20 10
85 18 24 2 48 8 55 12 7 4 22 9 34 10 64 7 287 68 308 85 13 10 29 19 35 19
19 0 92 72 112 111 15 30 19 59 19 131 0 118 -15 152 -107 245 -89 90 -154
125 -248 131 -65 4 -73 2 -110 -25z"/>
</g>
</svg>
