<?xml version="1.0" standalone="no"?>
<!DOCTYPE svg PUBLIC "-//W3C//DTD SVG 20010904//EN"
 "http://www.w3.org/TR/2001/REC-SVG-20010904/DTD/svg10.dtd">
<svg version="1.0" xmlns="http://www.w3.org/2000/svg"
 width="309.000000pt" height="430.000000pt" viewBox="0 0 309.000000 430.000000"
 preserveAspectRatio="xMidYMid meet">
<metadata>
Created by potrace 1.13, written by Peter Selinger 2001-2015
</metadata>
<g transform="translate(0.000000,430.000000) scale(0.100000,-0.100000)"
fill="#000000" stroke="none">
<path d="M2115 3511 c-60 -10 -143 -29 -183 -44 -83 -30 -181 -83 -188 -102
-3 -7 -18 -15 -34 -18 -32 -7 -109 -80 -215 -205 -74 -88 -101 -130 -110 -175
-3 -15 -16 -36 -28 -47 -41 -36 -208 -409 -268 -600 -130 -408 -124 -378 -124
-670 1 -206 4 -266 18 -315 9 -33 19 -87 23 -120 4 -33 13 -78 21 -100 8 -22
17 -86 20 -142 6 -96 4 -110 -37 -272 l-43 -170 -61 -60 c-102 -101 -111 -106
-198 -110 -132 -6 -205 32 -265 140 -49 86 -58 141 -45 259 6 56 17 112 26
125 19 28 110 75 148 75 52 0 92 -25 132 -84 l39 -57 -18 -81 c-21 -90 -41
-110 -92 -92 -24 8 -28 17 -38 78 -17 101 -67 135 -121 81 -24 -24 -25 -29
-19 -108 8 -88 19 -115 61 -144 15 -10 44 -35 66 -57 39 -38 40 -39 104 -33
80 6 104 21 153 100 106 167 96 138 99 285 4 130 3 133 -28 201 -39 83 -76
121 -155 158 -79 36 -225 45 -306 18 -59 -20 -131 -80 -160 -135 -93 -176
-119 -265 -119 -412 0 -104 15 -147 75 -227 19 -25 63 -89 97 -141 59 -89 67
-97 133 -130 l69 -35 146 0 c143 0 146 0 215 33 80 38 109 62 135 113 11 20
41 58 68 85 27 27 61 65 75 84 14 20 43 54 64 77 57 62 101 142 145 259 65
177 69 226 78 884 9 661 11 687 86 925 61 192 215 454 314 534 42 34 212 118
294 146 87 30 242 57 326 59 84 1 86 0 135 -37 83 -62 113 -98 154 -182 61
-128 76 -242 47 -365 -11 -48 -19 -60 -61 -92 -57 -43 -212 -109 -299 -128
-54 -11 -123 -9 -228 6 -31 5 -94 42 -120 71 -4 5 -27 31 -52 58 -55 60 -90
108 -111 154 -16 35 -16 35 17 60 125 100 262 149 435 158 l113 6 25 -58 c46
-104 43 -195 -8 -209 -12 -3 -59 -6 -104 -6 l-83 0 11 24 c24 51 -23 115 -74
102 -32 -8 -107 -102 -107 -135 0 -44 41 -105 80 -118 53 -18 278 -16 331 2
55 20 75 39 106 100 23 44 25 58 20 131 -4 67 -11 95 -44 165 -24 50 -53 95
-72 112 -32 26 -36 27 -156 27 -99 0 -142 -5 -221 -26 -151 -39 -286 -110
-386 -205 -35 -34 -38 -41 -38 -90 0 -67 41 -143 127 -237 32 -36 69 -77 83
-92 14 -15 45 -52 70 -81 116 -137 230 -235 326 -279 62 -29 81 -33 184 -37
111 -5 117 -4 169 24 37 19 66 44 89 77 33 48 82 177 82 219 0 11 4 34 9 51
25 83 33 118 43 201 6 50 11 151 12 225 1 128 0 138 -27 194 -15 33 -47 82
-70 110 -23 28 -55 70 -71 93 -15 23 -44 54 -63 69 -40 30 -173 90 -248 110
-68 19 -262 16 -400 -5z"/>
</g>
</svg>
