<?xml version="1.0" standalone="no"?>
<!DOCTYPE svg PUBLIC "-//W3C//DTD SVG 20010904//EN"
 "http://www.w3.org/TR/2001/REC-SVG-20010904/DTD/svg10.dtd">
<svg version="1.0" xmlns="http://www.w3.org/2000/svg"
 width="393.000000pt" height="318.000000pt" viewBox="0 0 393.000000 318.000000"
 preserveAspectRatio="xMidYMid meet">
<metadata>
Created by potrace 1.13, written by Peter Selinger 2001-2015
</metadata>
<g transform="translate(0.000000,318.000000) scale(0.100000,-0.100000)"
fill="#000000" stroke="none">
<path d="M2725 2960 c-16 -5 -48 -15 -70 -24 -22 -8 -48 -15 -58 -16 -26 0
-158 -69 -191 -99 -15 -14 -39 -36 -52 -48 -13 -12 -26 -34 -29 -50 -3 -15
-13 -50 -22 -78 -11 -36 -17 -101 -21 -230 -6 -240 2 -261 134 -393 72 -71
110 -100 166 -127 69 -33 78 -35 178 -35 120 0 176 19 249 85 90 81 159 267
149 399 -9 101 -72 198 -167 254 -38 22 -60 27 -137 30 -89 4 -95 3 -148 -28
-66 -37 -104 -94 -112 -166 -5 -41 -2 -55 18 -84 32 -47 78 -76 144 -91 52
-12 79 -8 142 17 15 7 16 -31 1 -74 -15 -44 -83 -70 -138 -54 -42 13 -135 110
-189 198 -87 140 -57 276 74 340 47 23 73 28 160 32 115 5 140 -1 241 -65 67
-42 83 -65 129 -176 l39 -92 0 -205 c0 -184 -2 -214 -23 -290 -46 -166 -109
-243 -256 -313 -163 -79 -358 -107 -599 -88 -239 19 -241 20 -322 102 -96 96
-162 129 -258 129 -61 0 -80 -4 -109 -23 -19 -13 -46 -27 -61 -30 -20 -6 -54
-41 -72 -74 0 -1 -43 2 -95 7 -147 13 -936 14 -990 0 -61 -15 -120 -51 -217
-132 -142 -118 -170 -200 -165 -488 5 -259 39 -364 160 -483 145 -142 282
-205 472 -214 180 -9 320 39 429 148 56 55 72 83 152 254 40 86 42 96 47 203
4 108 3 115 -24 168 -46 90 -94 137 -196 190 -79 41 -103 48 -166 52 -50 3
-94 -1 -140 -12 -37 -10 -87 -22 -112 -28 -88 -22 -159 -69 -211 -142 -24 -33
-29 -49 -29 -100 0 -257 113 -406 308 -406 61 0 99 17 136 60 21 26 26 42 26
87 0 47 -4 58 -30 85 -23 23 -37 29 -62 26 -27 -2 -34 1 -42 23 -5 14 -5 56
-2 92 l8 67 61 0 c84 0 125 -29 171 -117 32 -63 13 -197 -40 -278 -20 -31
-119 -98 -177 -120 -47 -18 -49 -18 -85 2 -20 11 -49 23 -63 27 -15 3 -44 24
-65 47 -22 23 -52 53 -68 68 -111 99 -132 126 -156 200 -21 67 -22 80 -12 139
11 70 42 122 129 227 78 92 81 93 556 101 l394 7 29 -59 c35 -70 69 -95 167
-124 40 -12 83 -26 97 -32 62 -25 114 -39 138 -37 15 2 37 -2 49 -9 12 -7 55
-12 95 -12 95 1 144 23 188 84 18 25 34 46 35 46 1 0 31 -9 66 -21 90 -29 364
-39 436 -16 26 8 84 25 128 36 44 11 104 30 133 41 28 11 75 29 104 40 28 11
61 28 72 38 12 10 41 31 65 48 43 28 141 121 208 196 42 47 74 112 113 227 30
89 31 99 27 220 -2 69 -9 146 -16 171 -7 25 -16 68 -20 95 -4 28 -12 60 -19
72 -7 12 -12 31 -12 42 0 11 -9 40 -19 63 -11 24 -27 62 -37 86 -10 24 -25 49
-34 55 -10 7 -25 28 -35 47 -10 19 -29 48 -44 64 -14 15 -36 39 -48 52 -12 13
-29 34 -37 46 -22 31 -76 69 -161 115 -69 36 -71 37 -200 39 -71 2 -143 -1
-160 -6z"/>
</g>
</svg>
