<?xml version="1.0" standalone="no"?>
<!DOCTYPE svg PUBLIC "-//W3C//DTD SVG 20010904//EN"
 "http://www.w3.org/TR/2001/REC-SVG-20010904/DTD/svg10.dtd">
<svg version="1.0" xmlns="http://www.w3.org/2000/svg"
 width="582.000000pt" height="353.000000pt" viewBox="0 0 582.000000 353.000000"
 preserveAspectRatio="xMidYMid meet">
<metadata>
Created by potrace 1.13, written by Peter Selinger 2001-2015
</metadata>
<g transform="translate(0.000000,353.000000) scale(0.100000,-0.100000)"
fill="#000000" stroke="none">
<path d="M905 3184 c-76 -17 -237 -96 -264 -130 -9 -11 -35 -33 -57 -47 -23
-14 -51 -38 -63 -54 -29 -38 -101 -125 -140 -168 -67 -75 -91 -172 -91 -370
l0 -149 40 -81 c32 -67 52 -94 107 -142 69 -61 120 -93 148 -93 8 0 23 -9 33
-21 20 -25 71 -51 130 -67 23 -7 59 -17 80 -22 20 -6 60 -15 87 -20 28 -5 70
-14 95 -20 25 -6 64 -15 88 -21 23 -5 63 -14 90 -20 26 -6 59 -12 73 -13 14
-1 30 -5 36 -9 28 -17 105 -37 126 -32 12 4 44 -1 70 -10 26 -9 53 -15 60 -13
6 1 22 -4 35 -10 12 -7 30 -12 40 -10 9 1 24 -2 32 -7 8 -5 40 -10 70 -11 l55
-1 88 -91 c68 -69 103 -97 150 -118 72 -32 181 -43 252 -25 25 6 111 12 191
12 158 0 268 16 311 44 24 16 54 18 320 16 241 -2 300 1 337 13 29 10 62 13
89 10 27 -4 53 -2 67 6 12 7 66 13 119 15 99 4 177 15 200 29 8 5 50 10 95 11
52 1 104 10 146 24 36 12 75 19 88 16 13 -3 51 4 85 16 34 13 85 24 112 25 28
1 70 8 95 15 55 15 365 17 430 2 25 -6 65 -17 90 -26 25 -8 57 -17 71 -21 14
-3 40 -19 57 -36 18 -16 36 -30 40 -30 5 0 32 -23 61 -52 73 -72 85 -112 84
-268 -1 -121 -12 -185 -52 -295 -6 -16 -22 -77 -36 -134 -29 -118 -86 -247
-140 -318 -54 -70 -151 -149 -230 -187 -80 -38 -131 -52 -232 -65 -62 -8 -84
-6 -160 14 -105 28 -181 56 -225 83 -47 30 -142 127 -150 154 -14 52 -8 178
11 216 10 20 21 48 24 62 9 36 107 187 153 236 62 65 126 96 266 128 64 15 69
14 110 -5 24 -11 63 -35 88 -53 68 -49 180 -167 187 -196 3 -14 14 -42 24 -62
24 -47 24 -111 0 -164 -24 -53 -92 -122 -128 -130 -15 -3 -41 -10 -58 -15 -57
-16 -109 -12 -167 14 -62 29 -88 57 -88 98 0 47 11 59 66 75 82 24 106 72 59
119 -28 29 -64 32 -126 10 -85 -30 -139 -107 -139 -199 0 -102 50 -176 145
-216 28 -12 68 -31 91 -42 37 -19 47 -20 112 -10 40 6 91 20 115 31 64 31 184
147 233 223 51 80 57 130 24 216 -66 171 -56 154 -123 222 -14 14 -48 45 -76
70 -27 25 -65 59 -84 76 -38 35 -134 83 -182 91 -71 11 -312 -68 -398 -131
-16 -11 -38 -37 -50 -56 -11 -19 -27 -39 -34 -43 -18 -11 -101 -142 -125 -197
-11 -25 -33 -73 -49 -108 -26 -55 -29 -74 -29 -160 0 -134 19 -194 70 -230 22
-15 42 -35 45 -44 8 -23 119 -106 175 -130 25 -11 65 -26 90 -33 55 -16 105
-33 148 -51 41 -18 93 -17 207 1 210 33 343 106 497 274 76 83 145 224 188
381 17 63 42 149 55 190 46 137 58 372 24 470 -7 19 -17 48 -22 64 -13 37 -61
93 -142 166 -11 9 -31 23 -45 30 -14 7 -29 19 -33 27 -11 19 -101 63 -129 63
-13 0 -43 8 -68 17 -25 9 -65 20 -90 26 -64 14 -348 20 -390 8 -19 -5 -61 -17
-92 -26 -31 -9 -66 -14 -77 -10 -11 3 -54 -6 -97 -20 -44 -15 -88 -24 -101
-20 -13 3 -56 -6 -98 -20 -55 -18 -86 -23 -118 -19 -28 4 -53 2 -68 -7 -13 -7
-36 -12 -51 -10 -14 1 -46 -4 -70 -13 -30 -10 -64 -13 -104 -9 -40 4 -69 1
-84 -7 -27 -14 -107 -20 -395 -26 -265 -6 -317 7 -430 112 -107 99 -225 164
-299 164 -16 0 -37 6 -45 14 -18 16 -84 42 -146 57 -82 21 -454 10 -529 -15
-27 -9 -94 -23 -149 -31 -109 -16 -143 -32 -153 -70 -7 -29 -17 -30 -80 -9
-25 8 -52 13 -60 10 -7 -3 -16 -1 -19 4 -6 10 -56 27 -122 41 -74 16 -127 28
-173 39 -25 6 -74 18 -110 25 -36 8 -83 18 -105 23 -49 11 -77 25 -109 57 -14
14 -34 25 -44 25 -10 0 -50 25 -89 55 -60 47 -74 64 -98 119 -26 62 -27 69
-23 208 5 155 21 218 69 269 13 15 35 40 49 58 23 28 57 62 149 149 59 55 148
99 240 117 121 25 194 11 248 -47 12 -13 35 -38 53 -57 17 -18 40 -51 50 -72
11 -21 26 -42 34 -46 8 -4 22 -28 31 -53 9 -25 24 -63 32 -85 23 -58 35 -120
39 -205 5 -88 -5 -110 -100 -211 l-58 -62 -87 7 c-197 14 -331 53 -363 104
-33 51 -36 57 -59 111 -15 33 -24 73 -23 101 0 41 7 56 50 110 27 35 69 78 93
96 38 29 52 34 101 34 77 0 119 -15 158 -58 39 -43 40 -63 7 -97 -35 -34 -71
-51 -129 -60 -54 -7 -96 -41 -96 -75 0 -30 44 -70 77 -70 49 0 170 47 208 80
103 92 105 94 105 155 0 46 -6 68 -31 111 -63 110 -148 154 -302 154 -83 0
-86 -1 -148 -42 -75 -50 -137 -112 -185 -185 -66 -98 -71 -173 -21 -278 19
-39 37 -83 41 -100 4 -18 35 -56 77 -97 81 -78 127 -96 310 -123 139 -20 231
-19 272 1 53 26 171 157 211 234 36 68 37 73 33 153 -6 99 -16 150 -50 242
-14 39 -32 90 -41 115 -9 25 -25 52 -35 61 -10 8 -26 31 -36 50 -10 19 -29 47
-44 63 -84 94 -156 159 -189 173 -53 22 -183 26 -267 7z"/>
</g>
</svg>
