<?xml version="1.0" standalone="no"?>
<!DOCTYPE svg PUBLIC "-//W3C//DTD SVG 20010904//EN"
 "http://www.w3.org/TR/2001/REC-SVG-20010904/DTD/svg10.dtd">
<svg version="1.0" xmlns="http://www.w3.org/2000/svg"
 width="231.000000pt" height="454.000000pt" viewBox="0 0 231.000000 454.000000"
 preserveAspectRatio="xMidYMid meet">
<metadata>
Created by potrace 1.13, written by Peter Selinger 2001-2015
</metadata>
<g transform="translate(0.000000,454.000000) scale(0.100000,-0.100000)"
fill="#000000" stroke="none">
<path d="M1045 4476 c-92 -23 -183 -83 -287 -189 -73 -75 -118 -239 -118 -434
0 -117 2 -131 39 -246 59 -181 73 -228 81 -272 5 -22 22 -78 40 -125 17 -47
35 -96 40 -110 5 -14 18 -50 30 -80 21 -55 75 -212 82 -239 2 -11 -9 -14 -54
-12 -50 2 -61 -1 -83 -23 -32 -32 -32 -70 0 -101 22 -23 32 -25 117 -25 l93 0
24 -35 c33 -49 32 -67 -6 -77 -18 -4 -38 -17 -46 -28 -8 -12 -27 -25 -43 -30
-59 -18 -137 -49 -160 -65 -50 -32 -39 -109 19 -129 27 -10 102 12 167 49 14
8 41 22 60 31 19 9 47 22 62 29 l26 13 28 -86 c15 -48 32 -96 37 -107 6 -11
12 -31 13 -45 5 -50 22 -116 48 -192 14 -42 26 -86 26 -98 0 -12 5 -31 12 -43
6 -12 13 -33 14 -47 5 -47 20 -116 29 -130 5 -8 8 -29 6 -47 -1 -17 3 -41 9
-52 6 -12 13 -54 15 -94 3 -39 10 -101 16 -137 6 -36 13 -121 16 -190 7 -193
-22 -345 -71 -373 -30 -17 -323 -22 -400 -7 -67 13 -207 81 -247 120 -14 14
-47 44 -72 68 -26 24 -47 50 -47 58 0 8 -14 43 -32 77 -26 51 -32 77 -36 145
-5 86 12 221 32 258 23 44 73 75 128 81 83 8 155 -24 234 -104 54 -55 67 -75
84 -132 23 -79 26 -148 6 -194 -14 -34 -78 -97 -99 -97 -7 0 -32 16 -56 35
-37 30 -40 35 -22 35 28 0 81 52 81 78 0 30 -58 140 -79 152 -48 25 -154 -5
-186 -53 -9 -14 -19 -57 -22 -95 -7 -86 7 -113 100 -194 110 -97 179 -118 256
-78 55 28 130 106 157 165 47 101 21 296 -53 394 -69 92 -139 154 -213 190
-70 34 -81 36 -170 36 -85 0 -100 -3 -140 -27 -61 -36 -115 -94 -139 -148 -29
-66 -44 -184 -39 -301 4 -99 6 -108 46 -187 24 -46 49 -85 57 -89 8 -3 15 -15
15 -27 0 -59 124 -170 268 -241 146 -72 180 -78 407 -73 183 3 192 4 241 30
114 60 160 207 151 483 -5 150 -17 251 -31 274 -5 8 -11 47 -12 85 -2 77 -15
153 -29 176 -5 8 -8 27 -6 42 2 24 -20 106 -37 132 -3 6 -5 23 -3 38 1 15 -11
67 -28 116 -17 49 -31 97 -31 106 0 24 -31 115 -41 121 -4 3 -6 12 -3 19 3 8
-8 55 -25 104 -17 49 -31 92 -31 96 0 3 23 6 50 6 41 0 56 5 75 25 29 28 31
51 11 100 -21 50 -53 62 -113 41 -69 -25 -75 -24 -84 8 -4 15 -16 37 -25 47
-20 23 -25 19 56 53 100 43 124 83 77 130 -33 33 -129 44 -182 22 -21 -9 -40
-14 -43 -12 -2 3 -22 56 -44 118 -21 62 -43 124 -48 138 -5 14 -18 50 -30 80
-21 54 -41 118 -81 255 -11 39 -38 125 -60 192 -36 113 -39 130 -39 238 0 179
35 309 101 372 109 104 180 133 329 133 68 0 95 -5 135 -24 68 -31 202 -167
245 -247 29 -55 32 -68 27 -117 -8 -78 -74 -205 -146 -280 -47 -49 -65 -61
-110 -72 -109 -26 -223 1 -313 73 -32 26 -38 36 -38 69 0 84 41 186 94 230 12
10 48 31 80 48 92 47 169 39 206 -22 27 -45 26 -113 -3 -169 -19 -36 -29 -45
-55 -47 -21 -2 -41 4 -58 17 -35 27 -59 26 -89 -4 -68 -68 15 -155 148 -155
87 0 133 33 182 130 31 61 35 79 35 144 0 90 -17 136 -73 194 -61 64 -103 82
-186 82 -108 0 -185 -36 -289 -134 -112 -107 -166 -301 -112 -406 25 -49 136
-140 210 -171 47 -21 71 -24 170 -24 166 0 219 25 330 158 100 118 160 256
160 365 -1 110 -46 189 -200 342 -64 64 -114 105 -155 125 -56 28 -68 30 -185
32 -76 1 -144 -3 -175 -11z"/>
</g>
</svg>
