<?xml version="1.0" standalone="no"?>
<!DOCTYPE svg PUBLIC "-//W3C//DTD SVG 20010904//EN"
 "http://www.w3.org/TR/2001/REC-SVG-20010904/DTD/svg10.dtd">
<svg version="1.0" xmlns="http://www.w3.org/2000/svg"
 width="211.000000pt" height="128.000000pt" viewBox="0 0 211.000000 128.000000"
 preserveAspectRatio="xMidYMid meet">
<metadata>
Created by potrace 1.13, written by Peter Selinger 2001-2015
</metadata>
<g transform="translate(0.000000,128.000000) scale(0.100000,-0.100000)"
fill="#000000" stroke="none">
<path d="M1586 1220 c-74 -29 -132 -83 -142 -134 -7 -39 24 -120 69 -184 51
-71 162 -112 220 -80 46 24 114 99 125 137 19 62 15 78 -36 131 -43 44 -53 50
-90 50 -77 0 -120 -28 -129 -83 -4 -28 0 -39 21 -60 30 -31 73 -36 83 -10 4 9
1 19 -5 21 -6 2 -22 12 -34 23 l-23 19 24 20 c33 28 94 27 121 -2 25 -27 34
-59 25 -88 -10 -30 -63 -88 -97 -106 -44 -23 -126 3 -162 51 -36 47 -56 97
-56 141 0 75 113 134 220 114 30 -6 69 -20 87 -33 44 -29 87 -94 102 -154 7
-26 17 -58 22 -71 5 -13 9 -56 9 -96 0 -73 0 -74 -40 -108 -74 -66 -156 -71
-405 -23 -113 21 -252 34 -375 35 -59 0 -110 4 -115 9 -6 5 -67 12 -136 16
l-127 6 -51 -45 c-33 -30 -61 -46 -78 -46 -14 0 -42 -4 -62 -10 -20 -5 -98
-23 -173 -41 -76 -17 -140 -35 -143 -40 -3 -4 -22 -16 -41 -25 -20 -10 -48
-35 -62 -57 -23 -35 -27 -51 -26 -113 0 -62 4 -78 28 -113 70 -101 161 -161
244 -161 77 0 158 97 183 219 15 70 7 97 -47 155 l-35 38 -77 -7 c-102 -9
-143 -35 -170 -106 -10 -28 -17 -62 -14 -74 6 -34 56 -90 98 -110 70 -33 153
13 154 85 0 29 -6 39 -34 58 -23 16 -45 22 -68 20 -44 -4 -43 -30 2 -44 46
-15 60 -38 38 -60 -28 -29 -77 -22 -110 14 -32 36 -36 71 -12 111 23 39 42 48
115 56 l65 7 27 -39 c31 -46 33 -63 10 -132 -19 -60 -72 -126 -108 -135 -52
-13 -106 12 -172 78 -56 58 -62 68 -68 119 -9 71 13 119 70 153 52 31 43 28
172 60 91 22 117 25 135 16 44 -22 146 -42 214 -42 88 0 202 39 268 91 l49 39
106 0 c114 -1 170 -7 356 -40 177 -32 221 -34 293 -16 81 21 136 60 162 113
26 55 25 99 -4 210 -41 158 -97 232 -206 274 -62 23 -120 23 -184 -1z"/>
</g>
</svg>
