<?xml version="1.0" standalone="no"?>
<!DOCTYPE svg PUBLIC "-//W3C//DTD SVG 20010904//EN"
 "http://www.w3.org/TR/2001/REC-SVG-20010904/DTD/svg10.dtd">
<svg version="1.0" xmlns="http://www.w3.org/2000/svg"
 width="640.000000pt" height="480.000000pt" viewBox="0 0 640.000000 480.000000"
 preserveAspectRatio="xMidYMid meet">
<metadata>
Created by potrace 1.13, written by Peter Selinger 2001-2015
</metadata>
<g transform="translate(0.000000,480.000000) scale(0.100000,-0.100000)"
fill="#000000" stroke="none">
<path d="M1020 4170 c-8 -5 -33 -10 -55 -10 -61 0 -167 -41 -210 -80 -117
-108 -147 -140 -156 -173 -5 -20 -14 -37 -19 -37 -11 0 -120 -163 -120 -180 0
-6 -9 -23 -20 -37 -11 -14 -20 -32 -20 -39 0 -7 -18 -40 -41 -73 -22 -33 -39
-68 -37 -79 2 -11 -12 -43 -31 -71 -20 -32 -31 -60 -28 -71 3 -11 2 -22 -3
-25 -14 -8 -41 -106 -35 -125 3 -11 0 -38 -7 -62 -6 -24 -13 -70 -13 -103 -1
-33 -6 -69 -12 -80 -13 -23 -12 -243 1 -264 5 -8 10 -39 12 -70 6 -107 44
-241 88 -305 14 -22 26 -46 26 -56 0 -19 99 -174 130 -202 11 -10 20 -28 20
-39 0 -11 22 -43 50 -71 28 -28 50 -59 50 -70 0 -11 30 -51 68 -89 37 -39 78
-84 92 -101 14 -17 34 -40 45 -52 11 -12 36 -42 56 -67 47 -57 146 -109 210
-109 56 0 120 44 151 105 12 22 29 46 39 53 10 7 23 27 28 45 5 18 19 57 31
87 12 30 26 69 31 86 5 18 19 44 30 58 19 25 48 90 69 160 5 16 18 35 29 42
11 8 29 45 41 83 11 37 32 83 45 102 14 18 25 40 25 49 0 10 14 31 30 48 17
18 30 40 30 50 0 11 23 55 52 98 28 43 62 96 75 117 58 93 79 123 95 135 10 7
22 30 28 51 5 21 22 52 37 68 27 30 48 55 103 121 34 42 238 246 276 277 18
14 39 25 48 25 9 0 28 11 42 25 14 14 44 32 67 41 129 46 248 84 264 84 10 0
38 7 62 16 25 8 56 12 72 9 15 -4 38 -1 51 6 19 11 180 19 341 19 9 0 49 0 87
0 39 0 79 -1 90 -1 11 0 34 0 50 0 17 0 39 0 50 0 11 0 52 1 90 1 39 0 79 -1
90 -1 11 0 34 0 50 0 17 0 39 0 50 0 11 0 34 0 50 0 17 0 39 0 50 0 11 0 34 0
50 0 17 0 39 0 50 0 11 0 34 0 50 0 65 0 76 0 110 -2 19 -1 44 -7 55 -13 11
-6 47 -10 80 -10 33 1 66 -3 74 -9 8 -5 44 -10 80 -11 36 0 76 -6 89 -13 12
-7 30 -11 40 -10 9 2 27 -3 40 -10 12 -6 30 -11 40 -10 26 4 112 -35 182 -81
48 -32 67 -41 118 -61 54 -20 334 -295 368 -361 8 -15 20 -31 28 -35 20 -11
146 -202 146 -222 0 -9 15 -38 34 -65 19 -28 31 -57 29 -67 -3 -10 9 -39 26
-65 17 -26 31 -54 31 -61 0 -8 5 -24 11 -35 7 -12 13 -40 15 -62 1 -23 7 -69
11 -104 5 -34 5 -66 1 -70 -4 -4 -17 -36 -28 -71 -11 -35 -37 -89 -57 -120
-45 -69 -159 -181 -183 -181 -9 0 -29 -9 -43 -20 -14 -11 -31 -20 -39 -20 -8
0 -23 -6 -33 -14 -10 -7 -26 -11 -36 -9 -9 3 -28 -1 -40 -8 -13 -7 -32 -12
-41 -10 -10 1 -28 -4 -40 -10 -13 -7 -31 -12 -41 -10 -10 1 -28 -4 -40 -12
-16 -10 -52 -13 -132 -12 -60 1 -117 -2 -126 -6 -10 -5 -36 -1 -66 10 -30 11
-73 18 -111 17 -52 -1 -67 3 -103 27 -46 31 -124 61 -143 54 -6 -3 -20 1 -31
9 -10 8 -26 14 -35 14 -10 0 -37 13 -61 30 -24 16 -49 30 -56 30 -6 0 -52 27
-101 60 -48 33 -96 60 -104 60 -9 0 -58 40 -108 89 -50 49 -96 93 -100 98 -5
4 -22 23 -37 42 -15 18 -38 44 -50 58 -13 13 -30 37 -38 53 -8 16 -22 33 -31
38 -25 14 -55 118 -48 166 7 43 61 166 74 166 4 0 23 14 41 32 32 29 87 56
166 79 18 5 38 18 46 29 14 20 225 97 419 152 48 14 175 5 213 -14 24 -13 77
-56 117 -96 67 -67 108 -118 108 -133 0 -11 13 -33 29 -50 59 -61 76 -192 36
-268 -24 -46 -86 -100 -129 -113 -84 -25 -216 -10 -230 27 -3 8 -20 22 -38 31
-18 9 -38 25 -45 34 -7 10 -25 23 -41 29 -30 13 -52 47 -52 81 0 30 37 58 109
80 123 38 163 80 127 135 -26 40 -59 42 -140 7 -39 -16 -84 -35 -101 -41 -37
-14 -110 -87 -124 -124 -18 -46 -13 -109 10 -147 29 -48 79 -97 111 -111 15
-6 29 -17 32 -24 3 -8 20 -22 38 -31 18 -9 37 -23 41 -30 16 -27 107 -65 171
-71 98 -9 241 35 278 85 7 9 31 32 54 49 52 41 84 119 91 223 5 63 2 83 -14
115 -11 22 -23 53 -27 68 -4 15 -20 42 -36 59 -17 17 -30 39 -30 50 0 18 -38
62 -136 162 -130 132 -177 157 -302 164 -88 5 -96 3 -272 -54 -242 -78 -316
-106 -332 -125 -9 -11 -30 -24 -45 -29 -72 -22 -139 -51 -158 -69 -92 -85
-134 -134 -162 -191 -39 -82 -50 -168 -30 -237 19 -65 54 -133 72 -139 7 -3
18 -18 25 -34 6 -15 21 -37 33 -49 12 -11 33 -35 47 -52 54 -69 266 -269 285
-269 7 0 54 -27 103 -60 48 -33 94 -60 100 -60 7 0 35 -16 62 -35 53 -37 134
-70 154 -62 6 3 20 -1 31 -9 10 -8 26 -14 35 -14 9 0 37 -14 63 -31 25 -17 54
-29 64 -28 10 2 28 -3 41 -10 13 -7 35 -10 51 -6 16 3 49 -1 76 -10 37 -13 54
-14 72 -6 14 7 31 8 41 3 27 -14 217 -9 235 6 9 8 26 10 40 7 14 -4 36 -1 49
6 12 7 31 12 40 10 10 -1 28 4 40 10 13 7 31 12 40 10 10 -1 28 4 40 10 13 7
32 12 44 11 11 -2 32 6 46 18 14 11 33 20 41 20 8 0 26 9 40 20 14 11 32 20
41 20 23 0 163 143 214 219 41 61 96 197 90 224 -1 7 4 23 11 36 18 32 -2 198
-27 223 -6 6 -8 16 -6 23 8 20 -21 97 -54 146 -16 23 -27 50 -25 60 3 11 -9
39 -26 65 -17 26 -31 54 -31 62 0 16 -147 242 -158 242 -4 0 -18 17 -32 38
-13 20 -50 63 -81 94 -32 31 -65 70 -74 87 -8 17 -28 37 -43 45 -15 8 -54 40
-87 73 -67 65 -132 113 -156 113 -14 0 -69 32 -141 81 -31 22 -112 51 -131 47
-6 -1 -22 4 -35 10 -12 7 -30 12 -40 11 -9 -2 -27 3 -40 10 -12 6 -30 11 -40
10 -9 -2 -26 2 -37 8 -11 5 -47 10 -80 9 -33 -1 -69 4 -80 10 -12 7 -49 11
-90 10 -50 -2 -77 1 -94 12 -18 13 -29 13 -53 4 -22 -8 -36 -8 -54 0 -18 8
-31 8 -49 0 -19 -9 -31 -9 -50 0 -19 8 -31 8 -50 0 -19 -9 -31 -9 -50 0 -19 8
-31 8 -50 0 -19 -9 -31 -9 -50 0 -19 8 -31 8 -51 0 -15 -8 -32 -9 -42 -3 -9 5
-46 7 -82 5 -36 -2 -73 -4 -82 -4 -17 1 -55 1 -98 1 -11 0 -51 -1 -90 -1 -38
0 -78 0 -87 0 -10 0 -83 2 -163 4 -86 1 -153 -1 -165 -7 -11 -6 -49 -12 -85
-13 -101 -4 -148 -17 -440 -119 -25 -9 -53 -25 -62 -36 -10 -11 -34 -25 -55
-31 -35 -9 -78 -47 -236 -204 -30 -30 -107 -115 -137 -152 -33 -40 -68 -82
-102 -120 -15 -17 -31 -46 -36 -65 -5 -18 -20 -45 -33 -59 -13 -14 -37 -47
-53 -74 -39 -66 -64 -106 -119 -190 -26 -39 -47 -77 -47 -86 0 -8 -14 -29 -30
-46 -17 -18 -30 -40 -30 -51 0 -10 -12 -35 -26 -57 -14 -21 -35 -65 -45 -98
-11 -32 -28 -65 -39 -73 -10 -7 -24 -28 -29 -46 -20 -68 -52 -143 -72 -170
-11 -16 -25 -41 -29 -55 -5 -15 -18 -52 -30 -82 -12 -30 -25 -67 -30 -81 -4
-14 -18 -37 -29 -50 -12 -13 -33 -37 -45 -54 l-24 -29 -41 19 c-40 18 -85 59
-148 134 -15 19 -58 65 -95 104 -38 38 -68 78 -68 89 0 10 -22 42 -50 70 -28
28 -50 59 -50 70 0 10 -12 31 -27 46 -41 41 -111 150 -122 189 -6 20 -17 43
-26 53 -19 21 -55 116 -55 145 0 11 -7 40 -16 64 -8 25 -13 55 -9 68 3 13 -1
43 -8 66 -17 50 -15 223 3 256 6 12 9 35 5 50 -3 15 1 48 10 74 8 25 13 57 10
70 -4 12 1 44 10 70 9 26 15 53 13 61 -2 7 12 37 31 65 18 29 31 60 28 70 -2
10 11 39 29 67 19 27 34 55 34 62 0 8 9 25 20 39 11 14 20 32 20 39 0 17 98
161 133 196 15 15 27 36 27 47 0 17 13 33 96 108 58 53 119 70 295 79 82 5 88
4 103 -18 9 -12 16 -32 16 -43 0 -11 7 -38 14 -60 11 -32 12 -63 5 -145 -10
-125 -18 -167 -59 -327 -5 -21 -13 -56 -19 -78 -39 -160 -68 -246 -90 -262
-10 -7 -24 -25 -31 -40 -19 -44 -84 -93 -156 -119 -92 -34 -105 -32 -153 22
-36 41 -41 53 -41 96 0 63 18 101 79 168 43 47 50 52 51 32 0 -29 42 -72 70
-72 36 0 70 44 70 90 0 55 -13 76 -68 111 -78 49 -142 36 -203 -43 -18 -24
-39 -46 -46 -51 -6 -4 -29 -35 -50 -69 -35 -58 -38 -69 -41 -153 l-3 -90 39
-58 c21 -32 63 -78 92 -103 l54 -46 70 4 c94 5 232 64 276 117 17 20 39 45 49
56 10 11 24 31 31 45 7 14 19 29 27 33 18 11 53 81 53 107 0 12 6 33 14 48 8
15 19 50 25 77 10 48 20 93 41 173 25 100 30 122 45 192 17 79 19 249 3 308
-36 141 -45 158 -101 202 l-50 40 -96 0 c-53 0 -103 -5 -111 -10z"/>
</g>
</svg>
