<?xml version="1.0" standalone="no"?>
<!DOCTYPE svg PUBLIC "-//W3C//DTD SVG 20010904//EN"
 "http://www.w3.org/TR/2001/REC-SVG-20010904/DTD/svg10.dtd">
<svg version="1.0" xmlns="http://www.w3.org/2000/svg"
 width="176.000000pt" height="291.000000pt" viewBox="0 0 176.000000 291.000000"
 preserveAspectRatio="xMidYMid meet">
<metadata>
Created by potrace 1.13, written by Peter Selinger 2001-2015
</metadata>
<g transform="translate(0.000000,291.000000) scale(0.100000,-0.100000)"
fill="#000000" stroke="none">
<path d="M1041 2734 c-46 -19 -141 -122 -141 -151 0 -7 -11 -36 -24 -65 -73
-158 -111 -298 -102 -378 3 -30 10 -165 15 -300 5 -135 14 -333 21 -442 7
-118 10 -327 7 -525 -5 -358 -17 -456 -64 -520 -13 -17 -23 -35 -23 -39 0 -19
-56 -78 -86 -90 -40 -17 -119 -18 -180 -3 -49 13 -152 104 -193 171 -24 40
-37 121 -27 162 9 35 111 111 184 135 95 32 140 28 192 -16 l43 -37 -6 -77
c-9 -113 -24 -141 -91 -174 -50 -24 -59 -26 -86 -15 -16 7 -46 30 -66 52 -32
36 -36 45 -31 80 5 40 31 78 52 78 19 0 47 -37 54 -71 7 -36 30 -55 55 -46 33
13 12 99 -40 156 -71 80 -194 -4 -194 -133 0 -36 7 -53 39 -94 43 -54 92 -89
138 -98 40 -8 127 29 174 73 45 42 58 83 66 199 l6 92 -39 40 c-86 88 -148
101 -280 57 -83 -28 -115 -48 -189 -117 l-50 -47 0 -83 c0 -65 5 -92 22 -123
52 -98 169 -207 249 -231 76 -23 176 -18 233 11 43 21 111 93 111 117 0 5 9
21 19 36 11 15 27 56 36 92 9 36 20 74 25 85 4 11 13 33 19 48 6 15 11 41 11
57 0 16 9 85 19 152 25 155 33 324 31 598 -2 246 -3 280 -10 280 -3 0 -7 62
-8 137 -2 76 -10 167 -18 203 -8 36 -20 153 -25 262 -13 245 -15 238 132 402
35 38 40 40 105 44 54 3 94 -3 184 -27 185 -50 256 -96 309 -200 60 -116 34
-271 -58 -353 -47 -43 -91 -49 -156 -22 -41 17 -111 60 -136 84 -45 44 -78
146 -61 191 30 78 158 170 217 155 76 -19 120 -119 83 -190 -15 -29 -24 -36
-47 -36 -23 0 -30 6 -37 33 -18 61 -83 40 -69 -22 3 -17 21 -42 38 -57 26 -22
38 -25 79 -22 59 6 74 18 104 86 21 47 22 60 14 99 -6 25 -25 63 -43 85 -38
48 -108 98 -135 98 -46 0 -133 -44 -175 -88 -23 -24 -49 -52 -58 -61 -37 -37
-51 -82 -44 -137 15 -123 88 -209 235 -276 56 -26 73 -29 128 -25 57 4 67 9
103 43 51 50 81 102 108 188 19 59 21 78 13 130 -21 135 -113 261 -227 311
-163 73 -373 104 -454 69z"/>
</g>
</svg>
