<?xml version="1.0" standalone="no"?>
<!DOCTYPE svg PUBLIC "-//W3C//DTD SVG 20010904//EN"
 "http://www.w3.org/TR/2001/REC-SVG-20010904/DTD/svg10.dtd">
<svg version="1.0" xmlns="http://www.w3.org/2000/svg"
 width="283.000000pt" height="370.000000pt" viewBox="0 0 283.000000 370.000000"
 preserveAspectRatio="xMidYMid meet">
<metadata>
Created by potrace 1.13, written by Peter Selinger 2001-2015
</metadata>
<g transform="translate(0.000000,370.000000) scale(0.100000,-0.100000)"
fill="#000000" stroke="none">
<path d="M750 3568 c-25 -5 -54 -11 -65 -13 -11 -3 -54 -27 -96 -54 -114 -75
-249 -243 -304 -379 -21 -53 -25 -78 -25 -171 l0 -109 35 -44 c19 -24 43 -56
53 -72 42 -69 114 -157 201 -246 52 -52 109 -120 127 -151 19 -31 73 -98 121
-149 48 -51 92 -100 97 -109 16 -30 160 -181 173 -181 4 0 7 -35 5 -78 -3 -72
-1 -80 26 -118 16 -22 50 -54 76 -71 43 -28 53 -31 140 -32 51 -1 106 3 121 9
25 9 35 6 90 -30 34 -22 82 -64 106 -93 23 -29 57 -68 75 -87 156 -169 181
-208 234 -360 7 -19 19 -48 26 -65 13 -26 12 -42 -1 -115 -34 -188 -54 -231
-165 -353 -68 -75 -107 -92 -215 -92 -87 0 -92 1 -142 36 -29 20 -75 56 -101
81 l-49 44 -7 129 c-6 115 -4 135 15 192 27 83 55 114 130 148 110 49 201 19
250 -82 36 -73 33 -162 -9 -234 -37 -65 -70 -88 -105 -72 -28 13 -57 69 -57
110 0 24 6 31 32 38 42 13 73 55 64 89 -22 89 -180 60 -222 -41 -24 -56 -18
-140 15 -210 24 -50 40 -69 85 -99 51 -34 60 -36 115 -32 102 7 184 88 231
228 58 171 -19 362 -180 445 -22 12 -65 20 -116 23 -67 4 -89 1 -130 -17 -131
-58 -186 -117 -236 -254 l-30 -82 7 -155 c6 -120 12 -163 26 -191 27 -55 162
-165 266 -218 59 -30 213 -30 293 0 30 12 69 21 85 20 17 0 62 15 100 33 101
50 140 103 333 465 l45 84 -6 96 c-4 70 -14 119 -36 183 -17 47 -31 93 -31
101 0 27 -71 156 -99 179 -15 13 -31 35 -34 49 -4 14 -27 48 -53 75 -26 27
-62 76 -82 109 -58 99 -140 203 -185 234 -39 27 -42 32 -39 68 4 51 -38 116
-114 175 -85 65 -101 72 -184 80 -127 13 -134 15 -175 38 -51 28 -254 217
-357 332 -163 181 -254 317 -289 430 -18 60 -20 83 -14 164 8 105 7 103 124
181 76 50 113 63 178 63 66 0 129 -26 178 -76 29 -29 34 -42 45 -120 7 -48 10
-112 7 -143 -5 -49 -10 -60 -43 -89 -47 -40 -99 -57 -156 -48 -69 11 -89 35
-95 111 -7 79 11 115 51 108 17 -4 26 -12 26 -25 0 -25 44 -68 70 -68 37 0 70
44 70 93 0 87 -54 131 -175 144 -62 6 -104 -19 -152 -91 -31 -45 -33 -54 -33
-130 0 -101 13 -147 52 -192 53 -61 110 -87 199 -92 71 -4 84 -2 136 24 89 43
160 115 180 183 19 68 13 236 -12 320 -21 68 -101 151 -191 199 -58 30 -67 32
-160 31 -55 -1 -119 -6 -144 -11z"/>
</g>
</svg>
