<?xml version="1.0" standalone="no"?>
<!DOCTYPE svg PUBLIC "-//W3C//DTD SVG 20010904//EN"
 "http://www.w3.org/TR/2001/REC-SVG-20010904/DTD/svg10.dtd">
<svg version="1.0" xmlns="http://www.w3.org/2000/svg"
 width="176.000000pt" height="291.000000pt" viewBox="0 0 176.000000 291.000000"
 preserveAspectRatio="xMidYMid meet">
<metadata>
Created by potrace 1.13, written by Peter Selinger 2001-2015
</metadata>
<g transform="translate(0.000000,291.000000) scale(0.100000,-0.100000)"
fill="#000000" stroke="none">
<path d="M520 2825 c-68 -17 -144 -56 -207 -107 -26 -21 -64 -51 -83 -66 -113
-87 -173 -181 -192 -298 -8 -52 -6 -71 13 -130 27 -86 57 -138 108 -188 36
-34 46 -39 103 -43 55 -4 72 -1 128 25 147 67 220 153 235 276 7 55 -7 100
-44 137 -9 9 -35 37 -58 61 -42 44 -129 88 -175 88 -10 0 -38 -13 -61 -29 -93
-64 -144 -169 -112 -231 8 -16 15 -36 15 -44 0 -48 105 -38 167 17 39 34 43
72 13 105 -25 27 -22 27 -62 2 -18 -11 -41 -20 -51 -20 -28 0 -13 58 24 92 40
38 70 43 124 22 48 -18 129 -97 147 -143 17 -45 -16 -147 -61 -191 -25 -24
-95 -67 -136 -84 -65 -27 -109 -21 -156 22 -92 82 -118 237 -58 353 52 103
125 150 303 198 l108 29 71 -34 c39 -19 77 -34 84 -34 19 0 73 -89 73 -120 0
-31 25 -70 46 -70 16 0 16 -4 15 -137 -1 -76 2 -94 15 -101 14 -8 16 -20 11
-73 -3 -35 -13 -98 -21 -139 -8 -41 -16 -135 -18 -207 -2 -73 -5 -133 -8 -133
-7 0 -8 -34 -10 -280 -2 -274 6 -443 31 -598 10 -67 19 -136 19 -152 0 -16 5
-42 11 -57 6 -15 15 -37 19 -48 5 -11 16 -49 25 -85 9 -36 25 -77 36 -92 10
-15 19 -31 19 -36 0 -24 68 -96 111 -117 57 -29 157 -34 233 -11 80 24 197
133 249 231 17 31 22 58 22 123 l0 83 -50 47 c-74 69 -106 89 -189 117 -132
44 -194 31 -280 -57 l-39 -40 6 -92 c8 -116 21 -157 66 -199 47 -44 134 -81
174 -73 46 9 95 44 138 98 32 41 39 58 39 94 0 60 -21 106 -62 138 -46 35 -86
33 -142 -5 -55 -36 -52 -33 -61 -91 -7 -45 -6 -47 23 -62 17 -9 42 -16 55 -16
46 0 71 55 47 101 -9 15 -7 21 5 26 25 9 56 -28 62 -74 5 -36 1 -45 -31 -81
-20 -22 -50 -45 -66 -52 -27 -11 -36 -9 -86 15 -67 33 -82 61 -91 174 l-6 77
43 37 c52 44 97 48 192 16 73 -24 175 -100 184 -135 10 -41 -3 -122 -27 -162
-41 -67 -144 -158 -193 -171 -61 -15 -140 -14 -180 3 -30 12 -86 71 -86 90 0
4 -10 22 -23 39 -47 64 -59 162 -64 520 -3 196 0 409 7 525 13 222 32 661 33
767 0 112 -33 377 -52 413 -6 12 -11 30 -11 41 0 28 -97 145 -155 186 -45 32
-54 35 -119 34 -39 -1 -96 -7 -126 -14z"/>
</g>
</svg>
