<?xml version="1.0" standalone="no"?>
<!DOCTYPE svg PUBLIC "-//W3C//DTD SVG 20010904//EN"
 "http://www.w3.org/TR/2001/REC-SVG-20010904/DTD/svg10.dtd">
<svg version="1.0" xmlns="http://www.w3.org/2000/svg"
 width="461.000000pt" height="286.000000pt" viewBox="0 0 461.000000 286.000000"
 preserveAspectRatio="xMidYMid meet">
<metadata>
Created by potrace 1.13, written by Peter Selinger 2001-2015
</metadata>
<g transform="translate(0.000000,286.000000) scale(0.100000,-0.100000)"
fill="#000000" stroke="none">
<path d="M3147 2714 c-7 -7 -48 -15 -82 -15 -62 -2 -183 -36 -210 -60 -11 -10
-24 -18 -28 -18 -5 1 -24 -10 -43 -23 -24 -16 -39 -37 -50 -73 -9 -27 -20 -54
-24 -60 -15 -20 -32 -152 -27 -210 17 -194 25 -234 61 -295 21 -37 92 -110
107 -110 5 0 11 -10 15 -22 6 -23 54 -60 93 -73 12 -3 21 -11 21 -16 0 -5 10
-9 23 -9 13 0 28 -5 34 -11 14 -14 136 -17 173 -5 14 4 37 10 52 13 14 3 37
16 49 29 12 13 27 24 33 24 19 0 73 54 81 80 4 14 11 30 15 35 15 19 33 160
25 190 -5 17 -8 33 -7 36 1 4 -8 15 -18 24 -11 10 -20 23 -20 28 0 17 -72 78
-121 103 -50 26 -108 31 -141 13 -18 -10 -28 -17 -84 -66 -26 -22 -36 -80 -23
-128 12 -43 60 -70 92 -53 20 10 75 -6 89 -26 11 -15 10 -56 -1 -56 -5 0 -12
-11 -15 -25 -4 -14 -13 -25 -21 -25 -21 0 -27 -1 -52 -11 -13 -5 -35 -4 -54 3
-36 13 -88 65 -89 89 0 9 -8 23 -17 30 -16 13 -73 127 -80 159 -2 8 -4 45 -4
82 -1 50 3 71 15 83 9 9 16 20 16 25 0 16 46 59 76 71 80 33 136 36 254 16 58
-9 113 -22 122 -27 10 -6 24 -10 32 -10 20 0 90 -68 109 -105 47 -94 69 -142
74 -160 33 -134 14 -505 -27 -505 -4 0 -8 -19 -8 -43 1 -42 -28 -127 -43 -127
-4 0 -10 -13 -14 -29 -9 -44 -92 -128 -155 -157 -8 -4 -27 -16 -42 -26 -16
-11 -28 -17 -28 -14 0 3 -26 -7 -57 -21 -63 -28 -92 -31 -373 -35 -85 -2 -184
0 -220 4 -113 13 -210 30 -210 38 0 4 -38 12 -85 19 -47 7 -102 22 -122 32
-20 10 -45 19 -55 19 -10 0 -18 5 -18 10 0 6 -13 10 -30 10 -16 0 -30 5 -30
10 0 6 -13 10 -30 10 -16 0 -30 5 -30 10 0 6 -8 10 -19 10 -10 0 -24 7 -31 15
-7 8 -20 15 -29 15 -9 0 -21 4 -26 9 -6 4 -32 17 -60 27 -27 10 -65 26 -83 36
-18 10 -41 18 -52 18 -10 0 -22 5 -25 10 -3 6 -16 10 -28 10 -12 0 -28 9 -35
20 -7 12 -18 18 -24 13 -16 -9 -79 -5 -94 7 -6 6 -32 13 -58 16 -25 4 -46 11
-46 15 0 5 -11 9 -25 9 -14 0 -33 4 -43 9 -22 12 -117 41 -134 41 -8 0 -31 9
-51 19 -21 11 -60 22 -87 26 -28 4 -50 10 -50 15 0 4 -24 8 -54 8 -34 0 -64 7
-80 18 -35 22 -214 54 -244 43 -12 -5 -22 -6 -22 -3 0 4 -11 -1 -25 -10 -13
-9 -33 -16 -44 -16 -11 0 -23 -5 -26 -10 -4 -6 -34 -25 -67 -43 -34 -17 -68
-37 -78 -42 -29 -18 -76 -69 -95 -105 -33 -63 -35 -69 -35 -94 0 -13 -4 -26
-8 -28 -5 -1 -18 -56 -29 -121 -20 -118 -25 -319 -9 -392 9 -37 42 -110 70
-150 11 -16 21 -35 22 -43 2 -7 13 -24 26 -37 13 -13 45 -46 71 -74 27 -28 53
-51 58 -51 6 0 8 -4 5 -9 -3 -5 6 -12 20 -15 15 -4 33 -13 40 -21 8 -7 48 -19
89 -26 41 -7 75 -16 75 -20 0 -9 101 -24 150 -22 68 2 110 10 126 24 10 8 19
12 21 10 7 -6 67 22 98 45 123 94 210 190 248 274 19 43 37 145 32 183 -2 16
-11 37 -19 46 -9 10 -13 20 -10 24 12 12 -20 123 -43 148 -12 14 -23 30 -23
36 0 6 -11 20 -25 31 -14 11 -25 25 -25 31 0 6 -11 17 -25 23 -14 6 -25 15
-25 20 0 16 -62 35 -165 52 -102 17 -178 16 -213 -3 -11 -6 -22 -8 -25 -5 -8
8 -115 -62 -142 -94 -40 -46 -59 -263 -30 -337 7 -16 16 -39 20 -50 5 -11 9
-23 9 -27 1 -6 48 -52 90 -85 8 -7 22 -13 30 -13 8 0 17 -4 21 -9 3 -5 34 -13
69 -16 58 -6 68 -5 109 20 45 26 54 41 71 118 8 33 -14 78 -46 95 -23 13 -61
12 -74 -1 -13 -12 -33 -8 -68 15 -67 44 -70 150 -6 167 67 17 90 18 144 10 89
-15 111 -26 142 -72 35 -52 36 -57 36 -137 0 -54 -5 -76 -30 -123 -34 -64 -80
-117 -100 -117 -8 0 -28 -10 -45 -22 -18 -13 -32 -22 -32 -20 0 2 -7 1 -15 -2
-15 -4 -77 -16 -115 -22 -48 -7 -205 37 -205 58 0 4 -6 8 -14 8 -8 0 -37 22
-65 50 -28 27 -48 50 -44 50 3 0 -1 8 -9 18 -53 61 -104 260 -73 280 18 12 45
60 45 81 0 11 4 22 9 25 5 3 12 17 15 31 4 14 14 34 24 45 9 11 35 42 57 68
27 33 53 54 80 62 22 8 52 19 67 27 24 12 93 24 143 25 11 0 74 -10 140 -22
66 -11 134 -21 150 -22 17 0 131 -18 255 -39 203 -36 258 -50 312 -79 10 -6
25 -10 33 -10 8 0 15 -4 15 -10 0 -5 13 -10 29 -10 17 0 32 -4 35 -9 3 -4 20
-11 38 -15 43 -8 172 -58 176 -68 2 -5 14 -8 27 -8 13 0 27 -5 30 -10 3 -6 17
-10 31 -10 13 0 24 -4 24 -9 0 -5 25 -12 55 -16 30 -3 55 -10 55 -14 0 -5 25
-11 55 -14 36 -4 65 -14 87 -31 46 -34 138 -76 170 -76 14 0 28 -4 30 -9 4
-11 235 -50 273 -46 17 2 62 7 100 10 183 16 320 40 361 64 10 6 48 24 84 41
102 47 128 64 189 120 15 14 40 31 54 39 15 8 27 17 27 20 0 4 14 22 30 41 42
49 50 58 50 64 0 3 16 32 35 65 19 32 35 66 35 75 0 9 4 16 8 16 8 0 48 213
44 240 -1 8 -4 65 -7 125 -6 150 -12 211 -21 226 -4 7 -8 26 -10 43 -6 58 -14
81 -34 98 -12 9 -20 18 -20 20 7 15 -17 82 -33 93 -11 8 -18 18 -14 21 4 4 -3
21 -16 38 -12 17 -29 44 -37 61 -13 25 -64 79 -143 150 -32 29 -118 61 -197
74 -86 15 -175 22 -183 15z"/>
</g>
</svg>
