<?xml version="1.0" standalone="no"?>
<!DOCTYPE svg PUBLIC "-//W3C//DTD SVG 20010904//EN"
 "http://www.w3.org/TR/2001/REC-SVG-20010904/DTD/svg10.dtd">
<svg version="1.0" xmlns="http://www.w3.org/2000/svg"
 width="352.000000pt" height="240.000000pt" viewBox="0 0 352.000000 240.000000"
 preserveAspectRatio="xMidYMid meet">
<metadata>
Created by potrace 1.13, written by Peter Selinger 2001-2015
</metadata>
<g transform="translate(0.000000,240.000000) scale(0.100000,-0.100000)"
fill="#000000" stroke="none">
<path d="M2596 1338 c-9 -12 -16 -33 -16 -45 0 -26 32 -63 54 -63 8 0 31 -22
51 -50 24 -33 47 -52 68 -58 18 -5 47 -19 66 -30 l34 -21 -27 -12 c-14 -7 -43
-35 -63 -63 l-37 -51 3 -114 3 -114 -33 -29 c-36 -33 -32 -40 33 -59 41 -11
53 0 74 69 13 45 15 79 10 165 l-7 107 28 0 c15 0 53 7 83 15 72 19 71 19 58
-10 -9 -20 -8 -33 6 -64 19 -41 98 -124 156 -163 69 -46 120 -92 120 -108 0
-39 52 -54 70 -20 8 14 8 32 -1 63 -14 53 -23 64 -60 72 -18 4 -47 27 -77 62
-26 30 -59 61 -74 69 l-28 15 0 115 c0 63 -5 124 -10 135 -18 32 -93 98 -125
108 -16 5 -77 17 -135 27 -90 16 -108 22 -130 46 -30 35 -72 37 -94 6z"/>
</g>
</svg>
