<?xml version="1.0" standalone="no"?>
<!DOCTYPE svg PUBLIC "-//W3C//DTD SVG 20010904//EN"
 "http://www.w3.org/TR/2001/REC-SVG-20010904/DTD/svg10.dtd">
<svg version="1.0" xmlns="http://www.w3.org/2000/svg"
 width="352.000000pt" height="240.000000pt" viewBox="0 0 352.000000 240.000000"
 preserveAspectRatio="xMidYMid meet">
<metadata>
Created by potrace 1.13, written by Peter Selinger 2001-2015
</metadata>
<g transform="translate(0.000000,240.000000) scale(0.100000,-0.100000)"
fill="#000000" stroke="none">
<path d="M2494 1352 c-6 -4 -19 -22 -28 -41 -25 -47 -14 -97 25 -119 16 -9 29
-25 29 -36 0 -26 70 -93 106 -101 16 -4 35 -8 42 -11 21 -6 13 -30 -13 -42
-14 -6 -34 -26 -45 -44 -18 -29 -20 -51 -20 -181 l0 -147 -25 -10 c-14 -5 -25
-16 -25 -25 0 -12 14 -15 75 -15 92 0 95 5 66 98 -17 53 -21 86 -19 157 l3 90
55 5 c30 3 65 11 77 18 34 19 63 15 63 -7 0 -11 12 -51 26 -89 21 -59 30 -71
61 -86 46 -22 83 -9 106 39 25 52 87 83 185 91 69 6 82 10 82 24 0 11 -14 24
-37 33 -21 9 -53 27 -72 41 -46 34 -56 33 -85 -11 -13 -21 -42 -58 -65 -83
-39 -43 -41 -44 -56 -26 -10 13 -15 42 -15 83 0 77 -21 123 -84 184 -105 104
-153 129 -241 129 -52 0 -65 3 -65 16 0 8 -13 29 -29 45 -29 29 -55 36 -77 21z"/>
</g>
</svg>
