<?xml version="1.0" standalone="no"?>
<!DOCTYPE svg PUBLIC "-//W3C//DTD SVG 20010904//EN"
 "http://www.w3.org/TR/2001/REC-SVG-20010904/DTD/svg10.dtd">
<svg version="1.0" xmlns="http://www.w3.org/2000/svg"
 width="352.000000pt" height="240.000000pt" viewBox="0 0 352.000000 240.000000"
 preserveAspectRatio="xMidYMid meet">
<metadata>
Created by potrace 1.13, written by Peter Selinger 2001-2015
</metadata>
<g transform="translate(0.000000,240.000000) scale(0.100000,-0.100000)"
fill="#000000" stroke="none">
<path d="M2648 1288 c-19 -16 -58 -81 -58 -97 0 -13 95 -61 119 -61 8 0 26
-11 40 -24 35 -33 119 -76 147 -76 53 0 37 -30 -37 -70 -21 -11 -47 -36 -60
-57 -12 -21 -29 -45 -36 -53 -8 -8 -29 -37 -46 -65 -28 -43 -38 -51 -77 -58
-64 -12 -68 -20 -40 -72 40 -73 70 -70 97 7 13 34 31 60 61 85 24 20 55 59 72
92 24 48 36 60 72 75 24 10 58 24 76 32 45 19 46 19 60 -20 19 -51 105 -81
268 -95 91 -8 97 -10 133 -45 20 -20 42 -36 48 -36 6 0 14 -6 16 -12 3 -7 6
42 6 110 l1 122 -29 0 c-16 0 -44 -12 -66 -30 -36 -29 -41 -30 -140 -30 l-101
0 -26 58 c-15 31 -34 79 -44 106 -37 106 -136 173 -268 183 -39 3 -89 14 -112
24 -48 22 -55 23 -76 7z"/>
</g>
</svg>
