<?xml version="1.0" standalone="no"?>
<!DOCTYPE svg PUBLIC "-//W3C//DTD SVG 20010904//EN"
 "http://www.w3.org/TR/2001/REC-SVG-20010904/DTD/svg10.dtd">
<svg version="1.0" xmlns="http://www.w3.org/2000/svg"
 width="352.000000pt" height="240.000000pt" viewBox="0 0 352.000000 240.000000"
 preserveAspectRatio="xMidYMid meet">
<metadata>
Created by potrace 1.13, written by Peter Selinger 2001-2015
</metadata>
<g transform="translate(0.000000,240.000000) scale(0.100000,-0.100000)"
fill="#000000" stroke="none">
<path d="M2307 1590 c-21 -14 -47 -62 -47 -90 0 -35 35 -60 85 -60 50 0 53 -4
57 -95 3 -48 5 -51 48 -74 25 -13 69 -39 98 -58 46 -32 52 -39 52 -71 0 -48
-39 -97 -100 -123 -59 -25 -79 -46 -90 -93 -7 -32 -3 -43 30 -94 21 -31 65
-84 99 -117 50 -48 61 -65 61 -92 0 -25 -8 -38 -35 -59 -20 -15 -35 -35 -35
-47 0 -18 5 -19 43 -14 96 14 177 53 177 84 0 21 -83 152 -108 171 -38 28
-132 127 -132 139 0 22 49 35 155 40 l100 5 99 -98 c90 -90 113 -106 240 -174
l141 -75 1 -73 c0 -39 5 -77 11 -83 16 -16 79 44 98 95 21 54 17 87 -13 102
-13 6 -44 38 -70 70 -36 45 -65 69 -123 99 -42 22 -110 62 -151 88 -66 43 -77
54 -87 90 -7 23 -42 102 -79 176 l-67 133 -102 67 c-56 36 -123 79 -148 94
-27 18 -53 44 -65 68 -31 60 -101 94 -143 69z"/>
</g>
</svg>
