<?xml version="1.0" standalone="no"?>
<!DOCTYPE svg PUBLIC "-//W3C//DTD SVG 20010904//EN"
 "http://www.w3.org/TR/2001/REC-SVG-20010904/DTD/svg10.dtd">
<svg version="1.0" xmlns="http://www.w3.org/2000/svg"
 width="352.000000pt" height="240.000000pt" viewBox="0 0 352.000000 240.000000"
 preserveAspectRatio="xMidYMid meet">
<metadata>
Created by potrace 1.13, written by Peter Selinger 2001-2015
</metadata>
<g transform="translate(0.000000,240.000000) scale(0.100000,-0.100000)"
fill="#000000" stroke="none">
<path d="M2360 1461 c-17 -16 -30 -36 -30 -44 0 -20 57 -67 81 -67 18 0 23
-11 31 -65 3 -19 37 -40 211 -130 58 -31 67 -39 67 -63 0 -23 -8 -32 -45 -50
-28 -13 -50 -33 -61 -54 -9 -18 -25 -44 -35 -57 -29 -37 -23 -83 21 -167 31
-58 40 -87 40 -123 0 -48 0 -48 -45 -66 -25 -9 -49 -25 -55 -34 -8 -15 -2 -19
41 -29 101 -24 129 -13 129 48 -1 34 -30 162 -67 284 -17 58 -17 60 2 70 11 6
37 29 57 50 33 34 38 37 43 20 4 -10 15 -41 25 -69 10 -27 22 -61 25 -75 14
-47 45 -99 66 -111 19 -9 30 -5 78 28 85 60 134 73 277 73 78 0 125 4 130 11
9 15 -45 118 -72 136 -28 18 -49 9 -112 -49 -55 -50 -133 -86 -197 -90 l-50
-3 -5 155 c-4 123 -9 162 -23 188 -10 17 -22 32 -27 32 -5 0 -42 31 -84 69
-75 70 -117 91 -182 91 -40 0 -59 16 -86 70 -22 43 -25 45 -71 48 -41 3 -51
-1 -77 -27z"/>
</g>
</svg>
