<?xml version="1.0" standalone="no"?>
<!DOCTYPE svg PUBLIC "-//W3C//DTD SVG 20010904//EN"
 "http://www.w3.org/TR/2001/REC-SVG-20010904/DTD/svg10.dtd">
<svg version="1.0" xmlns="http://www.w3.org/2000/svg"
 width="352.000000pt" height="240.000000pt" viewBox="0 0 352.000000 240.000000"
 preserveAspectRatio="xMidYMid meet">
<metadata>
Created by potrace 1.13, written by Peter Selinger 2001-2015
</metadata>
<g transform="translate(0.000000,240.000000) scale(0.100000,-0.100000)"
fill="#000000" stroke="none">
<path d="M2646 1275 c-21 -22 -22 -98 0 -119 8 -9 26 -16 38 -16 13 0 58 -16
100 -35 89 -41 97 -60 41 -111 -34 -31 -35 -33 -35 -113 0 -80 -17 -147 -47
-182 -21 -24 -16 -45 18 -73 23 -19 35 -24 44 -16 20 16 35 115 35 226 l0 103
54 25 c30 14 57 26 60 26 3 0 6 -19 6 -41 0 -35 6 -47 36 -76 20 -19 62 -47
93 -63 65 -33 176 -142 185 -182 8 -34 31 -36 47 -5 21 38 38 134 26 146 -6 6
-34 11 -61 11 -49 0 -53 2 -102 55 -33 36 -62 57 -82 61 l-32 7 0 77 c0 65 3
80 21 96 46 42 44 49 -34 105 -92 68 -129 81 -252 89 -55 4 -109 10 -121 14
-14 5 -27 2 -38 -9z"/>
</g>
</svg>
