<?xml version="1.0" standalone="no"?>
<!DOCTYPE svg PUBLIC "-//W3C//DTD SVG 20010904//EN"
 "http://www.w3.org/TR/2001/REC-SVG-20010904/DTD/svg10.dtd">
<svg version="1.0" xmlns="http://www.w3.org/2000/svg"
 width="352.000000pt" height="240.000000pt" viewBox="0 0 352.000000 240.000000"
 preserveAspectRatio="xMidYMid meet">
<metadata>
Created by potrace 1.13, written by Peter Selinger 2001-2015
</metadata>
<g transform="translate(0.000000,240.000000) scale(0.100000,-0.100000)"
fill="#000000" stroke="none">
<path d="M2402 1429 c-46 -48 -37 -85 26 -113 22 -10 45 -29 51 -42 5 -13 23
-27 38 -30 47 -12 173 -106 173 -130 0 -7 -37 -32 -81 -56 -45 -24 -92 -53
-106 -65 -21 -21 -23 -28 -17 -75 4 -29 15 -79 25 -112 28 -86 25 -103 -15
-123 -41 -19 -55 -53 -23 -53 12 0 43 -7 69 -14 64 -20 71 -10 58 80 -5 38
-16 87 -25 109 -8 22 -14 66 -15 97 0 64 -4 61 100 78 129 20 135 18 209 -59
68 -70 131 -108 276 -166 88 -35 149 -84 187 -153 17 -29 35 -51 42 -49 6 2
13 26 16 53 3 27 12 59 19 72 19 36 -1 52 -65 52 -52 0 -54 1 -118 65 -40 40
-84 73 -118 88 -59 26 -120 93 -163 178 -13 25 -46 70 -72 100 -27 30 -72 81
-100 115 -29 33 -69 73 -91 87 -39 28 -101 38 -134 23 -14 -6 -18 -4 -18 12 0
27 -22 43 -68 49 -32 4 -43 1 -60 -18z"/>
</g>
</svg>
