<?xml version="1.0" standalone="no"?>
<!DOCTYPE svg PUBLIC "-//W3C//DTD SVG 20010904//EN"
 "http://www.w3.org/TR/2001/REC-SVG-20010904/DTD/svg10.dtd">
<svg version="1.0" xmlns="http://www.w3.org/2000/svg"
 width="352.000000pt" height="240.000000pt" viewBox="0 0 352.000000 240.000000"
 preserveAspectRatio="xMidYMid meet">
<metadata>
Created by potrace 1.13, written by Peter Selinger 2001-2015
</metadata>
<g transform="translate(0.000000,240.000000) scale(0.100000,-0.100000)"
fill="#000000" stroke="none">
<path d="M2315 1524 c-25 -26 -14 -47 40 -75 48 -24 50 -27 55 -76 3 -28 11
-58 19 -67 7 -8 45 -32 85 -51 71 -36 146 -105 146 -135 0 -8 -43 -46 -95 -85
-52 -38 -97 -77 -101 -85 -3 -8 -9 -63 -14 -122 -12 -142 -24 -181 -61 -195
-30 -12 -51 -44 -31 -51 6 -2 30 -19 54 -38 48 -38 73 -43 86 -17 10 19 25
105 42 248 17 140 20 155 33 155 7 0 29 11 49 25 25 17 51 25 81 25 39 0 47
-5 86 -47 24 -27 54 -61 68 -76 42 -46 94 -67 168 -67 36 0 118 -12 182 -26
65 -14 136 -28 158 -31 38 -6 129 -62 139 -86 2 -7 5 20 5 59 1 104 -11 114
-138 114 -80 0 -117 6 -199 30 -56 17 -108 30 -116 30 -18 0 -56 49 -132 170
-32 52 -73 111 -90 130 -17 19 -42 56 -55 82 -15 30 -52 70 -101 112 -69 59
-83 66 -141 76 -55 10 -66 15 -71 35 -4 15 -20 28 -46 39 -51 20 -84 20 -105
0z"/>
</g>
</svg>
