<?xml version="1.0" standalone="no"?>
<!DOCTYPE svg PUBLIC "-//W3C//DTD SVG 20010904//EN"
 "http://www.w3.org/TR/2001/REC-SVG-20010904/DTD/svg10.dtd">
<svg version="1.0" xmlns="http://www.w3.org/2000/svg"
 width="352.000000pt" height="240.000000pt" viewBox="0 0 352.000000 240.000000"
 preserveAspectRatio="xMidYMid meet">
<metadata>
Created by potrace 1.13, written by Peter Selinger 2001-2015
</metadata>
<g transform="translate(0.000000,240.000000) scale(0.100000,-0.100000)"
fill="#000000" stroke="none">
<path d="M2466 1305 c-22 -23 -29 -54 -15 -71 7 -8 32 -27 56 -41 25 -14 43
-32 43 -43 0 -24 18 -37 67 -48 23 -5 55 -19 72 -31 26 -18 31 -29 31 -61 0
-33 -7 -46 -41 -79 l-40 -41 27 -47 c15 -27 31 -52 35 -58 7 -11 27 -89 36
-141 3 -20 -1 -36 -11 -47 -15 -14 -11 -16 41 -23 110 -13 115 17 33 190 -33
70 -57 132 -54 137 3 5 12 9 19 9 8 0 30 14 48 30 44 38 61 39 54 3 -3 -16 -9
-55 -12 -88 -6 -50 -4 -63 9 -75 15 -11 21 -10 44 8 68 55 74 57 169 60 63 3
98 0 108 -8 26 -22 45 -4 45 42 0 52 -5 60 -48 82 -38 20 -52 14 -124 -45 -26
-22 -52 -39 -59 -39 -9 0 -10 26 -5 109 l6 109 -52 47 c-59 53 -102 75 -148
75 -17 0 -47 8 -68 19 -20 10 -58 21 -84 25 -27 4 -48 11 -48 16 0 15 -56 40
-89 40 -16 0 -36 -7 -45 -15z"/>
</g>
</svg>
