<?xml version="1.0" standalone="no"?>
<!DOCTYPE svg PUBLIC "-//W3C//DTD SVG 20010904//EN"
 "http://www.w3.org/TR/2001/REC-SVG-20010904/DTD/svg10.dtd">
<svg version="1.0" xmlns="http://www.w3.org/2000/svg"
 width="352.000000pt" height="240.000000pt" viewBox="0 0 352.000000 240.000000"
 preserveAspectRatio="xMidYMid meet">
<metadata>
Created by potrace 1.13, written by Peter Selinger 2001-2015
</metadata>
<g transform="translate(0.000000,240.000000) scale(0.100000,-0.100000)"
fill="#000000" stroke="none">
<path d="M2652 1278 c-31 -31 -18 -52 128 -204 19 -20 20 -34 20 -225 l-1
-204 -32 -20 c-47 -30 -43 -59 7 -63 91 -8 105 13 98 144 -4 95 5 129 60 207
25 35 58 37 58 2 0 -52 27 -94 74 -117 45 -21 45 -21 88 -2 23 10 70 41 103
67 l60 49 68 -5 c73 -5 73 -5 56 55 -16 59 -38 58 -169 -6 -130 -65 -160 -70
-160 -28 1 15 7 38 15 52 27 47 19 64 -57 126 -94 76 -169 114 -223 114 -34 0
-46 5 -59 25 -23 36 -110 57 -134 33z"/>
</g>
</svg>
