<?xml version="1.0" standalone="no"?>
<!DOCTYPE svg PUBLIC "-//W3C//DTD SVG 20010904//EN"
 "http://www.w3.org/TR/2001/REC-SVG-20010904/DTD/svg10.dtd">
<svg version="1.0" xmlns="http://www.w3.org/2000/svg"
 width="352.000000pt" height="240.000000pt" viewBox="0 0 352.000000 240.000000"
 preserveAspectRatio="xMidYMid meet">
<metadata>
Created by potrace 1.13, written by Peter Selinger 2001-2015
</metadata>
<g transform="translate(0.000000,240.000000) scale(0.100000,-0.100000)"
fill="#000000" stroke="none">
<path d="M2415 1425 c-29 -28 -31 -54 -10 -95 17 -33 43 -50 74 -50 14 0 21
-6 21 -20 0 -13 12 -27 31 -38 37 -20 159 -122 159 -133 0 -4 -24 -15 -52 -25
-98 -31 -122 -48 -145 -101 -43 -98 -61 -149 -73 -205 l-11 -58 -54 0 c-30 0
-57 -5 -61 -11 -7 -13 44 -57 103 -90 58 -32 73 -18 73 66 0 51 6 74 30 120
17 32 33 75 36 97 11 65 16 68 159 87 144 20 145 20 232 -59 60 -55 90 -75
137 -90 34 -11 94 -31 135 -45 40 -14 83 -25 95 -25 53 0 93 -21 133 -69 30
-38 43 -47 51 -39 15 15 15 113 1 141 -17 31 -28 37 -77 37 -23 0 -61 9 -82
20 -22 11 -79 34 -127 52 -71 25 -97 40 -133 77 -25 25 -66 62 -91 80 -25 19
-58 55 -73 80 -36 60 -60 87 -121 136 -27 22 -65 54 -83 70 -41 37 -57 43
-105 44 -25 1 -43 8 -55 22 -34 42 -44 49 -68 49 -14 0 -36 -11 -49 -25z"/>
</g>
</svg>
