<?xml version="1.0" standalone="no"?>
<!DOCTYPE svg PUBLIC "-//W3C//DTD SVG 20010904//EN"
 "http://www.w3.org/TR/2001/REC-SVG-20010904/DTD/svg10.dtd">
<svg version="1.0" xmlns="http://www.w3.org/2000/svg"
 width="352.000000pt" height="240.000000pt" viewBox="0 0 352.000000 240.000000"
 preserveAspectRatio="xMidYMid meet">
<metadata>
Created by potrace 1.13, written by Peter Selinger 2001-2015
</metadata>
<g transform="translate(0.000000,240.000000) scale(0.100000,-0.100000)"
fill="#000000" stroke="none">
<path d="M2596 1329 c-32 -47 -23 -63 82 -132 53 -35 116 -74 140 -86 43 -22
57 -56 28 -67 -26 -10 -86 -96 -86 -124 0 -16 15 -45 35 -71 28 -36 35 -53 35
-90 0 -26 -7 -59 -15 -75 -21 -42 -24 -42 108 -7 23 6 21 26 -7 71 -13 20 -31
60 -40 88 -9 29 -26 60 -36 69 -11 10 -20 22 -20 26 0 11 65 44 112 57 l37 10
3 -96 c3 -109 -9 -93 121 -152 51 -24 74 -41 92 -70 14 -22 25 -47 25 -55 0
-21 30 -31 41 -14 13 21 11 103 -3 117 -7 7 -20 12 -30 12 -9 0 -27 13 -40 30
-12 16 -31 33 -42 36 -12 4 -36 17 -53 31 -30 22 -33 29 -33 75 0 41 5 57 24
77 14 16 26 44 30 71 6 44 5 47 -41 97 -71 75 -124 102 -219 109 -74 6 -81 8
-109 40 -23 26 -41 35 -76 40 -41 6 -48 4 -63 -17z"/>
</g>
</svg>
