<?xml version="1.0" standalone="no"?>
<!DOCTYPE svg PUBLIC "-//W3C//DTD SVG 20010904//EN"
 "http://www.w3.org/TR/2001/REC-SVG-20010904/DTD/svg10.dtd">
<svg version="1.0" xmlns="http://www.w3.org/2000/svg"
 width="352.000000pt" height="240.000000pt" viewBox="0 0 352.000000 240.000000"
 preserveAspectRatio="xMidYMid meet">
<metadata>
Created by potrace 1.13, written by Peter Selinger 2001-2015
</metadata>
<g transform="translate(0.000000,240.000000) scale(0.100000,-0.100000)"
fill="#000000" stroke="none">
<path d="M2407 1449 c-17 -10 -47 -59 -47 -78 0 -18 31 -40 70 -51 27 -7 43
-19 52 -38 8 -17 25 -31 48 -37 19 -5 61 -35 94 -66 l60 -56 -47 -16 c-59 -20
-90 -44 -127 -99 -46 -67 -37 -104 31 -138 22 -12 44 -31 48 -43 5 -13 23 -44
40 -69 30 -45 41 -88 21 -88 -18 0 -50 -39 -50 -61 0 -20 4 -21 44 -17 51 6
115 36 130 60 7 12 6 22 -6 35 -9 10 -32 56 -51 103 -25 65 -41 90 -65 105
-17 11 -31 23 -32 26 0 3 19 12 43 19 23 8 67 24 99 36 l56 22 6 -42 c10 -65
55 -132 117 -171 29 -19 63 -38 74 -41 11 -3 54 -22 96 -41 83 -38 89 -47 89
-132 0 -81 52 -71 95 19 30 63 28 97 -8 104 -12 3 -34 7 -49 10 -14 3 -57 31
-95 62 -37 31 -81 63 -98 71 -16 9 -45 26 -62 40 -29 21 -33 29 -33 72 0 60
-20 109 -71 173 -21 27 -39 54 -39 59 0 36 -159 156 -251 188 -40 14 -55 26
-64 48 -7 17 -20 33 -30 37 -24 9 -67 7 -88 -5z"/>
</g>
</svg>
