<?xml version="1.0" standalone="no"?>
<!DOCTYPE svg PUBLIC "-//W3C//DTD SVG 20010904//EN"
 "http://www.w3.org/TR/2001/REC-SVG-20010904/DTD/svg10.dtd">
<svg version="1.0" xmlns="http://www.w3.org/2000/svg"
 width="352.000000pt" height="240.000000pt" viewBox="0 0 352.000000 240.000000"
 preserveAspectRatio="xMidYMid meet">
<metadata>
Created by potrace 1.13, written by Peter Selinger 2001-2015
</metadata>
<g transform="translate(0.000000,240.000000) scale(0.100000,-0.100000)"
fill="#000000" stroke="none">
<path d="M2450 1420 c-27 -27 -25 -66 3 -94 13 -13 29 -37 36 -54 7 -17 23
-34 34 -38 26 -8 157 -141 157 -158 0 -8 -37 -27 -82 -45 -130 -49 -136 -54
-198 -179 -57 -115 -64 -122 -127 -122 -17 0 -35 -5 -39 -11 -8 -14 105 -122
122 -115 7 3 16 18 19 33 9 43 18 55 65 88 35 25 49 45 74 106 17 41 35 80 39
87 5 7 32 12 65 12 31 0 86 9 120 20 67 21 122 26 122 11 0 -4 16 -29 36 -55
25 -33 53 -55 92 -73 53 -24 70 -27 239 -32 l183 -6 47 -50 48 -50 3 47 c3 45
-15 90 -43 110 -5 4 -67 8 -137 8 -151 0 -228 21 -293 79 -41 36 -95 104 -95
119 0 16 -86 129 -131 173 -112 109 -168 148 -211 149 -18 0 -31 8 -39 23 -7
12 -17 25 -23 29 -21 14 -66 8 -86 -12z"/>
<path d="M11 744 c0 -11 3 -14 6 -6 3 7 2 16 -1 19 -3 4 -6 -2 -5 -13z"/>
</g>
</svg>
