<?xml version="1.0" standalone="no"?>
<!DOCTYPE svg PUBLIC "-//W3C//DTD SVG 20010904//EN"
 "http://www.w3.org/TR/2001/REC-SVG-20010904/DTD/svg10.dtd">
<svg version="1.0" xmlns="http://www.w3.org/2000/svg"
 width="352.000000pt" height="240.000000pt" viewBox="0 0 352.000000 240.000000"
 preserveAspectRatio="xMidYMid meet">
<metadata>
Created by potrace 1.13, written by Peter Selinger 2001-2015
</metadata>
<g transform="translate(0.000000,240.000000) scale(0.100000,-0.100000)"
fill="#000000" stroke="none">
<path d="M2444 1352 c-16 -11 -34 -48 -34 -71 0 -22 52 -61 80 -61 9 0 20 -14
25 -32 8 -25 27 -42 90 -80 44 -26 86 -48 93 -48 6 0 12 -7 12 -15 0 -8 -6
-15 -14 -15 -8 0 -44 -26 -80 -57 -50 -44 -69 -68 -77 -98 -6 -22 -20 -56 -31
-75 -11 -19 -29 -59 -39 -89 -10 -29 -31 -65 -46 -80 l-28 -26 48 -3 c64 -4
77 8 77 73 0 40 5 56 21 71 26 24 69 106 69 134 0 16 7 20 30 20 17 0 62 16
100 35 38 19 74 35 79 35 5 0 15 -16 21 -35 12 -36 100 -119 157 -149 60 -30
105 -16 152 49 29 41 35 44 98 54 38 6 93 12 123 13 31 2 55 8 55 14 0 11
-142 134 -154 134 -12 0 -37 -24 -55 -53 -10 -16 -39 -38 -64 -49 -26 -12 -59
-29 -74 -39 -41 -29 -58 -25 -58 15 0 18 -8 44 -19 57 -10 13 -22 35 -26 48
-4 13 -49 69 -100 125 -124 135 -204 179 -266 145 -17 -9 -27 -4 -60 25 -38
35 -79 46 -105 28z"/>
</g>
</svg>
