<?xml version="1.0" standalone="no"?>
<!DOCTYPE svg PUBLIC "-//W3C//DTD SVG 20010904//EN"
 "http://www.w3.org/TR/2001/REC-SVG-20010904/DTD/svg10.dtd">
<svg version="1.0" xmlns="http://www.w3.org/2000/svg"
 width="352.000000pt" height="240.000000pt" viewBox="0 0 352.000000 240.000000"
 preserveAspectRatio="xMidYMid meet">
<metadata>
Created by potrace 1.13, written by Peter Selinger 2001-2015
</metadata>
<g transform="translate(0.000000,240.000000) scale(0.100000,-0.100000)"
fill="#000000" stroke="none">
<path d="M2576 1384 c-9 -8 -16 -24 -16 -35 0 -29 27 -89 40 -89 14 0 97 -86
105 -108 3 -9 26 -29 50 -44 39 -24 45 -32 45 -61 0 -23 -8 -41 -26 -58 -45
-42 -131 -162 -154 -216 -19 -45 -26 -53 -49 -53 -15 0 -36 -6 -47 -14 -19
-14 -19 -15 3 -53 12 -21 33 -47 47 -57 23 -18 27 -18 49 -3 16 10 32 37 42
69 9 29 27 69 40 88 36 57 65 118 65 138 0 15 13 21 80 31 45 8 83 11 86 8 3
-3 16 -25 28 -49 13 -24 39 -52 58 -63 19 -11 46 -28 59 -37 15 -10 61 -21
119 -27 89 -10 97 -12 122 -42 34 -40 51 -34 68 26 21 73 12 79 -110 83 -84 2
-107 6 -128 22 -13 11 -35 20 -48 20 -27 0 -31 11 -37 110 -5 68 -36 146 -62
157 -8 3 -15 16 -15 30 0 27 -40 70 -102 109 -20 13 -39 28 -43 34 -9 15 -91
50 -115 50 -11 0 -36 11 -56 25 -42 29 -76 32 -98 9z"/>
</g>
</svg>
