<?xml version="1.0" standalone="no"?>
<!DOCTYPE svg PUBLIC "-//W3C//DTD SVG 20010904//EN"
 "http://www.w3.org/TR/2001/REC-SVG-20010904/DTD/svg10.dtd">
<svg version="1.0" xmlns="http://www.w3.org/2000/svg"
 width="352.000000pt" height="240.000000pt" viewBox="0 0 352.000000 240.000000"
 preserveAspectRatio="xMidYMid meet">
<metadata>
Created by potrace 1.13, written by Peter Selinger 2001-2015
</metadata>
<g transform="translate(0.000000,240.000000) scale(0.100000,-0.100000)"
fill="#000000" stroke="none">
<path d="M2411 1371 c-25 -25 -38 -88 -22 -104 7 -7 33 -17 59 -22 43 -9 47
-13 50 -43 4 -39 42 -67 106 -76 31 -5 48 -15 69 -41 l27 -34 -43 -19 c-58
-26 -131 -98 -147 -147 -7 -22 -31 -68 -53 -102 -40 -62 -41 -63 -87 -63 -70
0 -77 -15 -33 -69 21 -25 42 -49 47 -53 19 -13 44 12 67 69 12 32 42 80 66
106 23 27 48 67 53 88 6 22 16 42 23 44 7 1 46 10 87 20 41 9 92 23 114 32 33
15 39 15 46 2 5 -7 22 -31 38 -52 17 -21 32 -42 34 -48 2 -5 30 -20 63 -34 85
-35 180 -34 272 1 37 15 101 31 141 37 95 14 97 37 8 106 -47 38 -81 39 -126
6 -19 -14 -46 -25 -62 -25 -15 0 -50 -9 -78 -20 -81 -32 -95 -28 -138 36 -52
79 -50 76 -57 106 -3 15 -21 42 -41 60 -19 18 -52 51 -72 73 -20 22 -58 62
-84 89 l-48 49 -70 -5 c-53 -4 -70 -2 -70 8 0 44 -102 62 -139 25z"/>
</g>
</svg>
