<?xml version="1.0" standalone="no"?>
<!DOCTYPE svg PUBLIC "-//W3C//DTD SVG 20010904//EN"
 "http://www.w3.org/TR/2001/REC-SVG-20010904/DTD/svg10.dtd">
<svg version="1.0" xmlns="http://www.w3.org/2000/svg"
 width="352.000000pt" height="240.000000pt" viewBox="0 0 352.000000 240.000000"
 preserveAspectRatio="xMidYMid meet">
<metadata>
Created by potrace 1.13, written by Peter Selinger 2001-2015
</metadata>
<g transform="translate(0.000000,240.000000) scale(0.100000,-0.100000)"
fill="#000000" stroke="none">
<path d="M2592 1368 c-7 -7 -12 -18 -12 -24 0 -16 69 -82 93 -90 9 -3 17 -15
17 -28 0 -28 12 -39 60 -55 52 -18 90 -58 90 -98 0 -18 -4 -33 -8 -33 -5 0
-29 -14 -55 -31 -50 -33 -87 -83 -87 -118 0 -22 -47 -150 -62 -166 -4 -5 -29
-12 -56 -15 -26 -3 -47 -10 -47 -17 0 -12 50 -52 92 -74 26 -14 53 2 53 29 0
9 9 25 20 37 25 27 59 122 67 187 6 46 7 49 57 71 28 13 77 27 108 30 51 6 56
5 51 -11 -5 -21 28 -103 48 -118 8 -6 32 -16 54 -22 22 -6 76 -40 120 -75 132
-105 175 -119 175 -55 0 68 -70 138 -138 138 -18 0 -50 9 -72 20 -22 11 -46
20 -55 20 -13 0 -15 18 -15 109 0 114 -6 132 -49 146 -10 3 -21 18 -24 33 -15
74 -124 150 -231 160 -39 4 -55 11 -74 33 -19 24 -32 29 -66 29 -23 0 -47 -5
-54 -12z"/>
</g>
</svg>
