<?xml version="1.0" standalone="no"?>
<!DOCTYPE svg PUBLIC "-//W3C//DTD SVG 20010904//EN"
 "http://www.w3.org/TR/2001/REC-SVG-20010904/DTD/svg10.dtd">
<svg version="1.0" xmlns="http://www.w3.org/2000/svg"
 width="352.000000pt" height="240.000000pt" viewBox="0 0 352.000000 240.000000"
 preserveAspectRatio="xMidYMid meet">
<metadata>
Created by potrace 1.13, written by Peter Selinger 2001-2015
</metadata>
<g transform="translate(0.000000,240.000000) scale(0.100000,-0.100000)"
fill="#000000" stroke="none">
<path d="M2586 1405 c-30 -30 -29 -55 3 -100 17 -24 31 -52 31 -62 1 -31 23
-60 85 -108 33 -25 63 -54 67 -63 14 -37 8 -70 -17 -86 -13 -9 -41 -51 -62
-94 -38 -79 -134 -226 -157 -239 -7 -5 -18 -18 -24 -29 -9 -17 -8 -25 6 -37
36 -33 110 -47 142 -27 9 6 16 36 21 90 12 138 98 270 177 270 28 0 62 -42 62
-77 0 -17 7 -36 15 -43 8 -6 65 -20 126 -31 79 -13 135 -29 185 -53 52 -25 75
-31 83 -23 16 16 13 75 -5 124 -23 59 -47 64 -133 24 -48 -22 -83 -31 -119
-31 -28 0 -54 -4 -57 -10 -3 -5 -11 -10 -17 -10 -6 0 -8 36 -4 108 3 59 7 118
7 132 2 40 -26 134 -47 159 -71 83 -159 141 -211 141 -22 0 -33 7 -41 25 -6
13 -29 33 -51 45 -48 24 -46 24 -65 5z"/>
</g>
</svg>
