<?xml version="1.0" standalone="no"?>
<!DOCTYPE svg PUBLIC "-//W3C//DTD SVG 20010904//EN"
 "http://www.w3.org/TR/2001/REC-SVG-20010904/DTD/svg10.dtd">
<svg version="1.0" xmlns="http://www.w3.org/2000/svg"
 width="352.000000pt" height="240.000000pt" viewBox="0 0 352.000000 240.000000"
 preserveAspectRatio="xMidYMid meet">
<metadata>
Created by potrace 1.13, written by Peter Selinger 2001-2015
</metadata>
<g transform="translate(0.000000,240.000000) scale(0.100000,-0.100000)"
fill="#000000" stroke="none">
<path d="M2366 1498 c-32 -45 -6 -118 40 -118 21 0 39 -22 63 -76 19 -40 101
-113 168 -147 15 -8 39 -27 52 -41 23 -24 23 -27 8 -44 -9 -10 -41 -36 -71
-58 -69 -50 -81 -71 -100 -174 -8 -47 -25 -119 -38 -159 -21 -68 -27 -77 -63
-96 -26 -13 -40 -27 -40 -40 0 -22 61 -67 84 -63 19 4 49 97 51 153 0 22 10
60 22 85 11 25 28 74 37 110 l17 65 69 37 c39 21 73 38 76 38 4 0 12 -14 20
-32 18 -45 84 -118 137 -153 42 -28 54 -30 154 -34 62 -2 128 2 154 8 25 7 83
15 127 18 45 3 85 11 89 16 11 18 -29 83 -60 96 -26 11 -39 9 -107 -18 -66
-27 -89 -31 -170 -31 l-94 0 -24 33 c-25 33 -61 126 -73 187 -24 125 -204 314
-327 344 -16 4 -33 17 -39 31 -14 31 -93 85 -124 85 -13 0 -30 -10 -38 -22z"/>
</g>
</svg>
