<?xml version="1.0" standalone="no"?>
<!DOCTYPE svg PUBLIC "-//W3C//DTD SVG 20010904//EN"
 "http://www.w3.org/TR/2001/REC-SVG-20010904/DTD/svg10.dtd">
<svg version="1.0" xmlns="http://www.w3.org/2000/svg"
 width="360.000000pt" height="243.000000pt" viewBox="0 0 360.000000 243.000000"
 preserveAspectRatio="xMidYMid meet">
<metadata>
Created by potrace 1.13, written by Peter Selinger 2001-2015
</metadata>
<g transform="translate(0.000000,243.000000) scale(0.100000,-0.100000)"
fill="#000000" stroke="none">
<path d="M1563 2210 c-87 -40 -91 -72 -21 -146 24 -26 29 -38 26 -70 l-3 -39
-102 4 c-119 4 -140 -5 -173 -69 -15 -29 -20 -59 -20 -117 0 -107 13 -151 48
-159 15 -3 53 -16 84 -28 45 -16 60 -27 67 -49 6 -15 20 -41 31 -57 16 -22 20
-41 18 -76 -3 -46 -4 -47 -48 -60 -48 -15 -178 -19 -196 -6 -6 4 -16 23 -23
44 -7 20 -31 57 -55 82 -42 45 -44 47 -87 40 -66 -10 -145 -49 -165 -80 -14
-20 -19 -53 -22 -126 -4 -95 -3 -101 28 -164 35 -72 55 -86 150 -104 72 -14
176 -68 201 -106 10 -16 19 -42 19 -57 0 -30 21 -77 51 -116 22 -28 25 -106 8
-173 l-11 -43 -51 45 c-67 59 -162 153 -214 212 -48 55 -67 58 -137 29 -89
-39 -102 -137 -38 -275 22 -44 48 -89 60 -99 15 -14 22 -36 27 -85 9 -85 32
-137 83 -192 l42 -43 77 7 c198 18 368 77 393 135 16 39 34 40 50 1 7 -16 20
-31 29 -34 85 -23 135 -28 225 -23 129 7 165 19 173 59 6 28 7 29 17 10 6 -11
34 -37 61 -57 28 -21 65 -52 83 -70 18 -18 55 -45 83 -60 44 -23 59 -27 104
-22 48 5 128 38 165 69 20 16 70 102 70 120 0 19 58 129 80 153 25 27 60 104
60 134 0 32 -54 124 -93 157 -31 26 -31 27 -12 38 11 6 37 27 57 47 34 33 38
42 38 88 0 72 -18 101 -130 216 -101 103 -151 172 -171 234 -7 20 -17 39 -23
43 -6 4 -48 8 -93 8 l-83 0 -24 39 c-14 21 -31 41 -37 43 -9 3 -8 16 6 50 16
39 25 46 59 56 63 17 155 79 162 109 4 14 2 48 -5 75 -14 63 -14 121 0 135 23
23 -1 51 -56 68 -49 14 -55 18 -55 43 0 15 -9 41 -20 57 -11 17 -20 40 -20 53
0 29 -47 122 -62 122 -6 0 -52 -19 -102 -42 l-91 -43 -128 0 -129 0 -42 41
c-59 56 -108 62 -193 24z"/>
</g>
</svg>
