<?xml version="1.0" standalone="no"?>
<!DOCTYPE svg PUBLIC "-//W3C//DTD SVG 20010904//EN"
 "http://www.w3.org/TR/2001/REC-SVG-20010904/DTD/svg10.dtd">
<svg version="1.0" xmlns="http://www.w3.org/2000/svg"
 width="360.000000pt" height="243.000000pt" viewBox="0 0 360.000000 243.000000"
 preserveAspectRatio="xMidYMid meet">
<metadata>
Created by potrace 1.13, written by Peter Selinger 2001-2015
</metadata>
<g transform="translate(0.000000,243.000000) scale(0.100000,-0.100000)"
fill="#000000" stroke="none">
<path d="M1614 2249 c-46 -23 -84 -140 -84 -258 l0 -71 -75 0 c-96 0 -130 -16
-146 -69 -10 -35 -9 -47 11 -98 48 -121 85 -163 140 -163 18 0 20 -7 20 -58 0
-50 5 -66 30 -100 36 -50 36 -52 9 -52 -34 0 -132 -31 -151 -47 -28 -25 -44
-9 -68 63 -33 97 -53 114 -137 114 -57 0 -75 -4 -106 -25 -49 -34 -63 -64 -87
-187 -30 -153 -28 -176 20 -237 51 -64 77 -77 170 -84 41 -3 98 -12 127 -19
l51 -12 6 -51 c3 -27 8 -99 11 -160 6 -108 6 -110 -12 -85 -23 33 -112 114
-140 129 -24 12 -241 15 -259 3 -6 -4 -19 -23 -29 -41 -33 -66 -4 -201 60
-271 24 -27 89 -150 100 -190 4 -14 21 -48 37 -76 39 -65 76 -83 185 -91 l84
-6 163 82 162 83 33 -32 32 -33 80 7 c43 3 90 11 105 16 14 6 48 10 75 10 35
0 54 5 69 20 19 19 19 19 48 -8 163 -152 207 -180 280 -181 55 -1 100 22 119
62 31 67 53 101 86 136 100 106 157 230 157 345 0 55 -2 61 -40 99 l-41 40 35
36 c54 56 70 119 42 169 -7 13 -46 60 -88 105 -169 184 -208 231 -208 254 0
35 -41 55 -131 63 -44 4 -83 10 -87 14 -4 4 -9 45 -10 90 l-4 82 51 24 c29 13
60 37 71 54 11 17 31 46 45 65 29 40 41 94 29 130 -8 21 -6 28 11 36 33 17 31
58 -5 99 -31 35 -117 86 -146 86 -9 0 -14 11 -14 30 0 38 -34 106 -59 120 -44
23 -116 5 -169 -44 -20 -18 -36 -21 -105 -21 -87 0 -118 9 -260 81 -37 19 -68
34 -70 33 -1 0 -11 -5 -23 -10z"/>
</g>
</svg>
