<?xml version="1.0" standalone="no"?>
<!DOCTYPE svg PUBLIC "-//W3C//DTD SVG 20010904//EN"
 "http://www.w3.org/TR/2001/REC-SVG-20010904/DTD/svg10.dtd">
<svg version="1.0" xmlns="http://www.w3.org/2000/svg"
 width="360.000000pt" height="243.000000pt" viewBox="0 0 360.000000 243.000000"
 preserveAspectRatio="xMidYMid meet">
<metadata>
Created by potrace 1.13, written by Peter Selinger 2001-2015
</metadata>
<g transform="translate(0.000000,243.000000) scale(0.100000,-0.100000)"
fill="#000000" stroke="none">
<path d="M1588 2219 c-49 -25 -61 -50 -54 -108 3 -25 9 -77 12 -114 l6 -68
-65 7 c-59 6 -69 4 -117 -22 -63 -34 -100 -76 -100 -114 0 -38 39 -202 52
-217 5 -7 41 -13 81 -15 l72 -3 5 -52 c3 -29 13 -60 24 -71 9 -11 16 -30 14
-43 -3 -25 -64 -46 -160 -56 l-57 -5 -14 33 c-8 19 -36 58 -64 87 -43 46 -54
52 -89 52 -84 0 -145 -34 -180 -101 -13 -25 -18 -63 -21 -149 l-3 -115 38 -75
c56 -113 107 -140 266 -140 78 0 91 -3 112 -22 23 -22 24 -28 24 -183 l0 -159
-44 43 c-24 23 -54 63 -66 89 -26 51 -61 91 -99 111 -36 20 -117 5 -181 -33
l-55 -32 -3 -94 c-3 -89 9 -150 29 -150 5 0 24 -14 43 -30 36 -32 59 -86 72
-170 13 -89 83 -179 128 -165 12 3 71 8 131 12 99 6 118 10 191 44 45 20 85
42 88 48 11 17 63 13 106 -9 31 -16 58 -20 127 -19 138 1 199 12 228 39 l25
24 28 -32 c43 -49 149 -129 216 -162 58 -28 64 -29 122 -20 79 13 166 51 193
86 26 33 143 272 165 337 19 56 20 123 3 154 -7 12 -27 37 -44 57 -18 19 -33
39 -33 44 0 5 13 33 30 63 36 66 36 77 6 166 -37 108 -92 185 -180 251 -47 36
-55 47 -70 102 -18 62 -18 62 -49 55 -18 -3 -52 -9 -77 -12 -41 -4 -49 -2 -82
30 -21 19 -43 37 -49 39 -7 2 -14 30 -17 65 l-4 60 32 12 c18 6 40 11 49 11
28 0 138 57 144 75 21 54 -2 165 -38 178 -19 8 -19 41 0 57 20 16 19 27 -5 75
-10 22 -22 52 -25 67 -3 18 -14 29 -35 36 -29 11 -30 13 -30 71 0 68 -12 87
-65 97 -57 10 -178 -17 -258 -59 -54 -28 -148 -34 -208 -14 -24 8 -70 29 -103
46 -68 36 -69 36 -118 10z"/>
</g>
</svg>
