<?xml version="1.0" standalone="no"?>
<!DOCTYPE svg PUBLIC "-//W3C//DTD SVG 20010904//EN"
 "http://www.w3.org/TR/2001/REC-SVG-20010904/DTD/svg10.dtd">
<svg version="1.0" xmlns="http://www.w3.org/2000/svg"
 width="360.000000pt" height="243.000000pt" viewBox="0 0 360.000000 243.000000"
 preserveAspectRatio="xMidYMid meet">
<metadata>
Created by potrace 1.13, written by Peter Selinger 2001-2015
</metadata>
<g transform="translate(0.000000,243.000000) scale(0.100000,-0.100000)"
fill="#000000" stroke="none">
<path d="M2145 2210 c-34 -25 -49 -29 -105 -30 -110 0 -303 20 -334 36 -16 8
-36 14 -44 14 -18 0 -124 -58 -134 -73 -3 -6 -4 -43 -1 -84 5 -67 4 -76 -17
-98 -20 -21 -33 -25 -82 -25 -76 0 -120 -19 -148 -65 -21 -33 -22 -45 -17
-117 10 -128 49 -175 160 -194 32 -5 41 -13 59 -48 11 -22 27 -49 35 -58 10
-11 13 -26 8 -47 -5 -25 -12 -31 -33 -31 -15 0 -58 -14 -97 -30 -38 -17 -75
-30 -81 -30 -7 0 -15 17 -19 39 -8 47 -62 136 -91 150 -26 12 -147 -28 -177
-58 -23 -23 -56 -161 -56 -238 -1 -59 42 -165 80 -199 22 -20 186 -74 223 -74
41 0 48 -29 61 -255 l6 -100 -23 37 c-37 58 -146 168 -184 184 -54 23 -170
-11 -194 -55 -5 -11 -10 -45 -10 -75 0 -44 10 -79 51 -173 28 -65 56 -141 64
-169 15 -57 39 -109 55 -119 6 -4 19 -23 30 -44 28 -55 60 -65 183 -57 67 4
109 12 126 23 13 9 66 37 116 62 l91 47 29 -18 c26 -15 55 -18 214 -18 157 0
187 2 202 16 17 15 20 15 43 1 14 -9 37 -33 52 -52 29 -39 68 -62 160 -96 47
-18 71 -21 136 -16 57 4 85 10 99 23 11 10 48 74 82 142 34 68 81 160 104 205
23 45 42 96 43 114 0 46 -27 143 -46 164 -15 17 -14 22 25 71 30 36 41 58 37
73 -3 11 -6 41 -6 67 0 41 -6 54 -49 106 -65 78 -155 169 -214 216 -29 24 -50
50 -55 70 -8 30 -11 31 -63 33 -93 5 -139 13 -139 27 0 7 -11 25 -24 39 -14
15 -27 35 -31 46 -9 28 39 74 112 106 68 30 138 96 149 139 4 18 -2 39 -20 70
-28 47 -33 94 -15 128 18 34 -15 92 -74 131 -27 17 -62 40 -76 49 -14 9 -44
46 -66 82 -22 36 -47 65 -55 65 -8 0 -33 -14 -55 -29z"/>
</g>
</svg>
