<?xml version="1.0" standalone="no"?>
<!DOCTYPE svg PUBLIC "-//W3C//DTD SVG 20010904//EN"
 "http://www.w3.org/TR/2001/REC-SVG-20010904/DTD/svg10.dtd">
<svg version="1.0" xmlns="http://www.w3.org/2000/svg"
 width="360.000000pt" height="243.000000pt" viewBox="0 0 360.000000 243.000000"
 preserveAspectRatio="xMidYMid meet">
<metadata>
Created by potrace 1.13, written by Peter Selinger 2001-2015
</metadata>
<g transform="translate(0.000000,243.000000) scale(0.100000,-0.100000)"
fill="#000000" stroke="none">
<path d="M1527 2289 c-9 -5 -24 -24 -33 -41 -14 -26 -14 -37 -4 -68 7 -21 10
-54 6 -74 -20 -117 -14 -106 -60 -106 -52 0 -160 -51 -183 -86 -22 -34 -11
-152 20 -214 l22 -45 71 -3 70 -3 20 -71 c10 -39 25 -77 32 -85 11 -11 11 -16
-2 -28 -8 -8 -18 -24 -21 -35 -6 -17 -15 -20 -74 -20 -67 0 -69 1 -74 28 -7
35 -40 77 -90 113 l-39 28 -87 -44 c-113 -56 -116 -62 -108 -239 6 -156 17
-190 77 -231 35 -24 55 -30 111 -33 l68 -4 10 -50 c6 -27 11 -95 11 -152 0
-89 3 -107 21 -130 41 -52 4 -24 -70 53 -92 95 -137 115 -199 87 -36 -17 -112
-97 -112 -120 0 -28 29 -155 42 -186 9 -19 50 -80 93 -135 42 -55 85 -117 96
-137 24 -48 40 -51 197 -46 150 5 170 13 221 89 20 30 42 54 50 54 8 0 22 -13
31 -30 15 -27 22 -30 61 -29 24 1 127 5 229 9 217 9 233 6 306 -64 28 -27 61
-54 73 -60 36 -20 113 -41 149 -41 65 0 156 67 206 153 16 26 31 47 34 47 4 0
19 24 34 53 88 172 95 215 49 313 -38 82 -39 103 -2 179 l28 61 -22 67 c-17
53 -33 80 -72 120 -28 29 -64 66 -79 83 -16 17 -62 55 -101 83 -60 43 -73 58
-73 80 0 14 -7 37 -16 49 -14 20 -22 22 -56 17 -22 -4 -64 -4 -94 0 -44 5 -54
10 -54 25 0 10 -7 25 -15 34 -36 36 4 105 70 120 86 20 116 38 141 87 29 58
34 161 8 197 -13 20 -13 22 0 22 26 0 7 28 -44 65 -34 25 -50 44 -52 63 -2 18
-15 35 -40 51 -21 13 -38 30 -38 37 0 20 -40 108 -53 116 -20 13 -48 9 -91
-11 -83 -39 -162 -47 -288 -31 -74 9 -113 20 -164 46 -69 34 -115 42 -147 23z"/>
</g>
</svg>
