<?xml version="1.0" standalone="no"?>
<!DOCTYPE svg PUBLIC "-//W3C//DTD SVG 20010904//EN"
 "http://www.w3.org/TR/2001/REC-SVG-20010904/DTD/svg10.dtd">
<svg version="1.0" xmlns="http://www.w3.org/2000/svg"
 width="360.000000pt" height="243.000000pt" viewBox="0 0 360.000000 243.000000"
 preserveAspectRatio="xMidYMid meet">
<metadata>
Created by potrace 1.13, written by Peter Selinger 2001-2015
</metadata>
<g transform="translate(0.000000,243.000000) scale(0.100000,-0.100000)"
fill="#000000" stroke="none">
<path d="M1581 2214 c-47 -39 -53 -56 -36 -98 8 -19 15 -60 15 -89 l0 -54 -42
-5 c-65 -8 -165 -48 -200 -80 -29 -27 -30 -31 -26 -96 3 -57 10 -79 43 -138
33 -57 49 -74 93 -97 36 -20 52 -34 52 -48 0 -11 7 -34 16 -50 8 -17 14 -48
12 -72 -3 -41 -3 -41 -68 -64 -36 -13 -81 -22 -100 -21 -33 3 -36 7 -78 93
-66 137 -90 154 -158 117 -42 -23 -79 -68 -110 -137 -34 -74 -40 -122 -24
-207 20 -103 51 -141 189 -225 27 -17 52 -23 98 -23 54 0 64 -3 77 -22 19 -31
39 -170 34 -243 l-3 -60 -25 26 c-14 15 -53 56 -88 92 -66 70 -101 87 -177 87
-59 -1 -118 -17 -132 -36 -30 -41 0 -187 62 -303 13 -25 41 -84 60 -131 20
-47 55 -109 77 -137 l40 -53 107 0 c148 0 204 17 254 75 37 43 41 45 93 45 35
0 69 -7 94 -20 33 -17 59 -20 174 -20 144 0 185 8 193 40 8 29 18 25 81 -28
59 -50 92 -73 174 -117 37 -19 62 -25 110 -25 116 0 166 50 284 285 l56 110
-6 100 c-3 55 -8 121 -12 147 -4 30 -2 48 4 48 16 0 52 65 52 94 0 47 -47 111
-201 274 -90 95 -148 165 -149 178 0 28 -19 44 -54 44 -64 1 -122 24 -154 61
-37 43 -40 61 -12 96 11 14 20 32 20 39 0 7 26 21 58 31 55 17 58 20 104 97
l46 78 -15 44 c-8 24 -19 46 -24 50 -5 3 -9 21 -9 39 0 26 -6 39 -25 51 -14 9
-34 36 -44 59 -10 24 -27 46 -37 49 -11 4 -39 41 -64 84 -52 89 -52 89 -164
40 -66 -29 -74 -30 -175 -25 -95 4 -114 8 -186 41 -96 43 -132 45 -174 10z"/>
</g>
</svg>
