<?xml version="1.0" standalone="no"?>
<!DOCTYPE svg PUBLIC "-//W3C//DTD SVG 20010904//EN"
 "http://www.w3.org/TR/2001/REC-SVG-20010904/DTD/svg10.dtd">
<svg version="1.0" xmlns="http://www.w3.org/2000/svg"
 width="360.000000pt" height="243.000000pt" viewBox="0 0 360.000000 243.000000"
 preserveAspectRatio="xMidYMid meet">
<metadata>
Created by potrace 1.13, written by Peter Selinger 2001-2015
</metadata>
<g transform="translate(0.000000,243.000000) scale(0.100000,-0.100000)"
fill="#000000" stroke="none">
<path d="M1672 2255 c-17 -8 -53 -28 -78 -46 l-46 -31 6 -52 c15 -126 18 -196
9 -196 -6 0 -32 7 -59 15 -67 20 -107 19 -154 -5 -63 -32 -74 -57 -66 -146 5
-57 14 -89 37 -128 31 -57 60 -76 113 -76 30 0 34 -3 40 -34 4 -19 15 -45 26
-59 29 -36 26 -92 -5 -121 -26 -24 -109 -46 -175 -46 -36 0 -38 1 -44 43 -11
66 -48 114 -112 142 -51 23 -58 23 -84 10 -75 -39 -130 -154 -130 -274 0 -118
16 -135 223 -241 92 -47 170 -92 173 -100 4 -8 9 -91 11 -185 3 -139 1 -167
-9 -151 -7 11 -29 38 -49 60 -20 23 -48 62 -64 89 -39 69 -56 77 -151 77 -80
0 -83 -1 -109 -32 -25 -30 -27 -37 -23 -107 4 -80 29 -147 83 -220 14 -19 28
-46 32 -60 3 -14 26 -63 52 -108 32 -58 54 -86 74 -94 42 -18 196 -6 249 19
23 11 54 22 68 26 14 3 49 23 79 46 29 22 58 40 65 40 6 0 36 -18 65 -40 66
-50 80 -53 194 -48 77 3 100 8 141 31 65 36 101 36 120 -2 19 -37 109 -117
160 -143 32 -16 50 -19 101 -13 87 9 118 31 145 102 26 69 71 145 116 193 67
72 92 187 59 267 -17 41 -20 109 -5 118 19 12 50 84 50 116 0 37 -25 81 -94
166 -28 34 -76 94 -106 134 -30 39 -65 81 -77 92 -13 12 -23 32 -23 48 0 38
-15 45 -103 53 -92 7 -110 15 -127 55 -7 17 -21 33 -31 36 -14 5 -19 16 -19
41 l0 34 63 0 c77 0 105 17 158 95 42 63 49 106 25 153 -24 49 -29 72 -13 72
8 0 20 6 26 14 15 18 -22 64 -84 103 -26 16 -45 36 -45 46 0 10 -11 28 -25 41
-14 13 -25 33 -25 45 0 31 -27 90 -44 97 -8 3 -36 -11 -62 -31 l-48 -37 -175
7 c-96 4 -179 8 -185 9 -20 3 -37 17 -34 29 4 21 -13 57 -30 66 -11 6 -29 4
-50 -4z"/>
</g>
</svg>
