<?xml version="1.0" standalone="no"?>
<!DOCTYPE svg PUBLIC "-//W3C//DTD SVG 20010904//EN"
 "http://www.w3.org/TR/2001/REC-SVG-20010904/DTD/svg10.dtd">
<svg version="1.0" xmlns="http://www.w3.org/2000/svg"
 width="360.000000pt" height="243.000000pt" viewBox="0 0 360.000000 243.000000"
 preserveAspectRatio="xMidYMid meet">
<metadata>
Created by potrace 1.13, written by Peter Selinger 2001-2015
</metadata>
<g transform="translate(0.000000,243.000000) scale(0.100000,-0.100000)"
fill="#000000" stroke="none">
<path d="M1588 2249 c-24 -14 -38 -71 -39 -164 -1 -44 -4 -93 -8 -110 -6 -28
-10 -31 -66 -38 -97 -14 -131 -33 -165 -92 -39 -69 -47 -128 -26 -193 13 -38
24 -53 47 -62 28 -12 85 -10 122 5 13 5 17 2 17 -12 0 -20 48 -100 83 -140 19
-21 19 -22 1 -41 -11 -11 -37 -23 -59 -27 -22 -3 -73 -13 -113 -22 -86 -18
-90 -16 -128 66 -38 81 -49 91 -105 91 -41 0 -51 -4 -77 -34 -50 -57 -87 -175
-94 -295 -3 -55 0 -65 17 -75 11 -6 39 -23 63 -39 68 -43 112 -63 187 -86 121
-37 118 -31 109 -214 l-7 -157 -27 36 c-28 38 -126 105 -218 150 -46 22 -57
24 -81 14 -33 -13 -63 -63 -86 -144 -25 -85 -15 -171 26 -245 96 -169 228
-271 351 -271 101 0 230 42 286 93 17 16 40 22 86 25 57 4 65 2 75 -17 20 -36
64 -51 151 -51 85 0 146 17 156 45 7 18 71 21 109 3 14 -6 43 -35 65 -64 57
-75 85 -88 197 -89 78 0 96 3 120 21 47 35 93 126 149 296 64 192 71 262 29
303 l-24 25 27 14 c52 27 72 54 72 97 0 59 -40 129 -109 188 -33 28 -72 71
-88 95 -16 24 -67 86 -113 139 l-85 97 -76 0 -76 0 -7 38 c-3 20 -6 55 -6 78
l0 41 78 35 c42 19 84 43 92 53 19 23 22 227 3 246 -10 10 -9 15 4 25 19 13
15 18 -99 146 -22 25 -51 70 -64 100 -22 54 -60 88 -98 88 -10 0 -35 -10 -55
-22 -30 -19 -54 -23 -138 -26 -117 -5 -201 13 -292 60 -58 31 -68 32 -93 17z"/>
</g>
</svg>
