<?xml version="1.0" standalone="no"?>
<!DOCTYPE svg PUBLIC "-//W3C//DTD SVG 20010904//EN"
 "http://www.w3.org/TR/2001/REC-SVG-20010904/DTD/svg10.dtd">
<svg version="1.0" xmlns="http://www.w3.org/2000/svg"
 width="360.000000pt" height="243.000000pt" viewBox="0 0 360.000000 243.000000"
 preserveAspectRatio="xMidYMid meet">
<metadata>
Created by potrace 1.13, written by Peter Selinger 2001-2015
</metadata>
<g transform="translate(0.000000,243.000000) scale(0.100000,-0.100000)"
fill="#000000" stroke="none">
<path d="M2184 2226 c-17 -8 -46 -27 -66 -44 -43 -38 -97 -51 -210 -52 -82 0
-89 2 -120 29 -64 56 -160 77 -237 50 -39 -14 -47 -42 -27 -100 9 -24 16 -68
16 -96 l0 -53 -72 0 c-58 0 -79 -5 -114 -25 -62 -36 -94 -95 -94 -172 0 -93
13 -118 86 -164 35 -23 64 -45 64 -50 0 -5 24 -24 53 -43 79 -51 83 -57 61
-112 -11 -25 -28 -50 -38 -56 -24 -13 -248 -6 -253 9 -2 5 -18 34 -36 64 -32
54 -33 54 -85 57 -70 4 -90 -10 -134 -95 -41 -79 -54 -118 -63 -189 -6 -47 -4
-54 21 -77 58 -54 121 -76 244 -84 l114 -8 10 -35 c5 -19 11 -107 13 -195 4
-154 3 -159 -14 -135 -9 14 -22 30 -28 35 -7 6 -29 31 -49 57 -77 96 -137 110
-226 53 -60 -39 -74 -59 -85 -123 -6 -37 -2 -53 28 -115 35 -74 72 -172 90
-242 18 -72 27 -89 68 -132 l41 -43 92 0 c108 0 162 15 323 90 58 28 113 50
122 50 9 0 22 -10 30 -21 13 -21 18 -22 167 -17 123 5 158 9 173 22 25 22 28
21 50 -21 27 -52 43 -67 144 -124 105 -59 152 -64 250 -24 122 50 205 168 257
366 36 139 37 163 5 223 -33 62 -32 81 10 127 19 22 35 49 35 61 0 32 -36 100
-78 150 -53 61 -72 93 -72 123 0 37 -44 101 -90 131 -27 18 -43 38 -53 67
l-14 42 -61 -3 c-59 -4 -62 -3 -104 37 -24 22 -56 45 -71 50 -23 9 -27 16 -27
51 0 40 0 40 38 40 92 0 156 40 197 121 32 61 31 68 -5 136 -35 66 -36 73 -11
73 50 0 27 63 -39 108 -19 12 -40 36 -46 52 -8 18 -23 32 -38 36 -18 4 -26 13
-26 28 0 23 -58 118 -75 122 -5 2 -24 -3 -41 -10z m-834 -1641 c7 -9 8 -15 2
-15 -5 0 -12 7 -16 15 -3 8 -4 15 -2 15 2 0 9 -7 16 -15z"/>
</g>
</svg>
