<?xml version="1.0" standalone="no"?>
<!DOCTYPE svg PUBLIC "-//W3C//DTD SVG 20010904//EN"
 "http://www.w3.org/TR/2001/REC-SVG-20010904/DTD/svg10.dtd">
<svg version="1.0" xmlns="http://www.w3.org/2000/svg"
 width="360.000000pt" height="243.000000pt" viewBox="0 0 360.000000 243.000000"
 preserveAspectRatio="xMidYMid meet">
<metadata>
Created by potrace 1.13, written by Peter Selinger 2001-2015
</metadata>
<g transform="translate(0.000000,243.000000) scale(0.100000,-0.100000)"
fill="#000000" stroke="none">
<path d="M1578 2226 c-17 -16 -38 -117 -38 -180 0 -21 -8 -51 -17 -67 -16 -27
-67 -53 -91 -47 -22 6 -90 -46 -118 -91 -26 -41 -29 -54 -29 -130 0 -64 4 -86
15 -92 8 -4 49 -11 91 -14 74 -6 76 -7 87 -39 7 -18 28 -50 48 -70 47 -49 45
-86 -6 -99 -19 -5 -56 -18 -82 -28 -26 -10 -62 -19 -81 -19 -29 0 -36 5 -46
30 -6 17 -16 43 -22 60 -13 33 -54 50 -126 50 -35 0 -47 -6 -77 -37 -65 -68
-80 -113 -81 -238 l0 -110 65 -32 c36 -17 90 -39 120 -49 67 -21 153 -103 169
-161 6 -21 11 -92 11 -157 l0 -119 -21 19 c-12 10 -46 50 -77 88 -60 75 -111
105 -178 106 -49 0 -53 -4 -83 -93 -29 -85 -26 -186 7 -239 12 -18 35 -58 52
-88 85 -153 84 -153 146 -187 53 -30 67 -33 141 -33 112 0 180 26 252 97 30
29 60 53 67 53 7 0 42 -16 77 -35 65 -36 151 -54 254 -55 41 0 57 5 73 22 11
12 20 25 20 30 0 17 38 7 60 -17 12 -13 51 -34 86 -45 34 -12 68 -28 76 -37 7
-9 40 -29 73 -45 80 -37 155 -39 190 -3 14 13 25 31 25 39 0 9 6 30 14 48 7
18 22 60 32 93 10 33 34 83 53 110 38 54 101 197 101 230 0 11 -9 35 -21 54
l-20 34 20 48 c16 35 21 69 21 129 l0 81 -72 70 c-40 38 -82 77 -93 88 -31 27
-158 188 -174 219 -19 37 -28 41 -70 30 -79 -21 -98 -21 -120 1 -19 19 -21 31
-19 104 l3 82 78 37 c71 34 80 42 99 84 28 65 37 163 15 176 -10 5 -17 19 -17
31 0 14 -17 39 -41 62 -22 22 -50 56 -61 75 -12 19 -35 51 -52 71 -17 20 -39
50 -48 67 -22 40 -39 40 -118 0 -62 -32 -66 -33 -195 -33 l-132 0 -57 39 c-65
44 -132 58 -158 32z"/>
</g>
</svg>
