<?xml version="1.0" standalone="no"?>
<!DOCTYPE svg PUBLIC "-//W3C//DTD SVG 20010904//EN"
 "http://www.w3.org/TR/2001/REC-SVG-20010904/DTD/svg10.dtd">
<svg version="1.0" xmlns="http://www.w3.org/2000/svg"
 width="360.000000pt" height="243.000000pt" viewBox="0 0 360.000000 243.000000"
 preserveAspectRatio="xMidYMid meet">
<metadata>
Created by potrace 1.13, written by Peter Selinger 2001-2015
</metadata>
<g transform="translate(0.000000,243.000000) scale(0.100000,-0.100000)"
fill="#000000" stroke="none">
<path d="M1572 2214 c-37 -16 -52 -47 -52 -109 0 -33 5 -47 21 -58 19 -14 19
-18 8 -57 -15 -51 -31 -62 -134 -90 -132 -36 -130 -33 -133 -122 -2 -62 1 -85
17 -115 37 -70 74 -100 102 -82 7 5 26 9 42 9 20 0 27 -5 27 -19 0 -11 5 -23
10 -26 6 -3 10 -25 10 -47 0 -24 7 -49 16 -59 20 -22 12 -46 -18 -58 -13 -5
-61 -10 -107 -12 l-84 -4 -13 38 c-32 92 -83 127 -184 127 -94 0 -113 -12
-153 -99 -27 -56 -31 -78 -31 -141 0 -78 4 -90 58 -173 42 -67 108 -101 259
-132 36 -7 80 -54 115 -120 23 -44 27 -64 30 -170 2 -66 0 -130 -5 -143 -8
-21 -13 -18 -90 58 -45 44 -98 105 -118 135 -42 65 -59 75 -118 75 -58 0 -105
-32 -135 -90 -27 -54 -24 -107 13 -215 12 -38 31 -104 40 -145 31 -133 51
-154 213 -231 84 -40 90 -41 162 -36 104 8 140 22 147 58 5 26 10 29 42 29 47
0 108 40 95 62 -10 15 23 8 80 -17 50 -22 70 -25 179 -25 107 0 130 4 182 25
88 36 114 29 171 -51 63 -89 79 -98 161 -90 38 4 81 15 99 26 17 11 38 20 47
20 23 0 75 80 98 150 11 33 44 106 74 163 31 58 55 117 55 133 0 17 -15 54
-35 84 -42 67 -44 96 -9 112 33 15 54 57 54 107 0 53 -11 79 -52 124 -19 21
-41 50 -49 65 -7 15 -46 64 -87 108 -51 58 -78 97 -91 135 l-18 54 -84 10
c-71 8 -88 14 -111 38 -15 15 -36 27 -48 27 -17 0 -20 6 -20 44 l0 44 73 22
c81 25 166 68 168 84 4 40 -4 168 -13 205 -10 38 -9 46 5 56 10 7 17 17 17 22
0 21 -72 103 -95 109 -30 7 -46 32 -75 114 -13 36 -27 69 -31 74 -4 4 -50 -13
-103 -38 -92 -44 -102 -46 -182 -46 -47 0 -104 4 -127 10 -147 33 -184 44
-206 61 -28 22 -35 22 -79 3z"/>
</g>
</svg>
