<?xml version="1.0" standalone="no"?>
<!DOCTYPE svg PUBLIC "-//W3C//DTD SVG 20010904//EN"
 "http://www.w3.org/TR/2001/REC-SVG-20010904/DTD/svg10.dtd">
<svg version="1.0" xmlns="http://www.w3.org/2000/svg"
 width="360.000000pt" height="243.000000pt" viewBox="0 0 360.000000 243.000000"
 preserveAspectRatio="xMidYMid meet">
<metadata>
Created by potrace 1.13, written by Peter Selinger 2001-2015
</metadata>
<g transform="translate(0.000000,243.000000) scale(0.100000,-0.100000)"
fill="#000000" stroke="none">
<path d="M1586 2200 c-43 -28 -54 -55 -62 -156 -3 -49 -10 -94 -15 -100 -8
-10 -89 -39 -139 -48 -17 -4 -33 -20 -49 -49 -60 -111 22 -254 161 -282 48 -9
58 -29 58 -118 l0 -82 -53 -13 c-29 -6 -80 -12 -114 -12 -68 0 -73 5 -73 70 0
31 -7 45 -32 69 -39 37 -68 39 -128 9 -65 -33 -109 -123 -117 -235 -5 -74 -4
-84 22 -131 66 -122 181 -212 271 -212 l41 0 7 -62 c3 -35 9 -103 13 -153 l6
-90 -24 18 c-13 10 -44 30 -69 45 -25 15 -73 55 -108 90 -69 67 -96 76 -150
48 -60 -31 -65 -45 -60 -168 4 -109 6 -116 46 -195 23 -46 42 -90 42 -98 0 -8
18 -51 40 -95 29 -58 52 -88 81 -110 74 -53 111 -58 250 -32 80 15 250 126
234 153 -9 14 5 11 70 -16 52 -21 76 -25 173 -25 119 0 143 6 175 47 26 33 46
29 98 -21 46 -43 97 -76 120 -76 6 0 41 -20 78 -43 82 -54 97 -60 124 -45 61
32 155 111 177 148 14 22 39 60 56 83 17 23 46 71 64 107 32 63 32 65 28 181
-3 87 -8 123 -21 142 -24 38 -21 55 18 98 19 22 35 46 35 54 0 40 -45 103
-111 154 -58 46 -130 127 -188 215 -39 57 -85 108 -111 121 -19 10 -58 15
-107 15 l-79 0 -13 35 c-7 19 -17 35 -22 35 -6 0 -9 12 -7 27 3 25 10 29 64
44 83 21 117 44 180 124 60 75 60 75 0 154 -25 34 -25 34 -5 50 18 14 19 20 9
43 -7 14 -24 32 -38 39 -27 15 -212 213 -212 228 0 23 -35 20 -61 -5 -28 -26
-31 -27 -156 -27 -130 -1 -143 2 -271 49 -76 29 -108 30 -146 4z"/>
</g>
</svg>
