<?xml version="1.0" standalone="no"?>
<!DOCTYPE svg PUBLIC "-//W3C//DTD SVG 20010904//EN"
 "http://www.w3.org/TR/2001/REC-SVG-20010904/DTD/svg10.dtd">
<svg version="1.0" xmlns="http://www.w3.org/2000/svg"
 width="360.000000pt" height="243.000000pt" viewBox="0 0 360.000000 243.000000"
 preserveAspectRatio="xMidYMid meet">
<metadata>
Created by potrace 1.13, written by Peter Selinger 2001-2015
</metadata>
<g transform="translate(0.000000,243.000000) scale(0.100000,-0.100000)"
fill="#000000" stroke="none">
<path d="M1555 2248 c-11 -6 -26 -18 -32 -26 -18 -22 -16 -92 3 -147 8 -25 14
-65 12 -88 l-3 -42 -55 -6 c-131 -15 -170 -42 -186 -129 -4 -19 -16 -54 -26
-77 -11 -24 -16 -52 -13 -63 10 -31 70 -61 135 -67 33 -3 60 -10 60 -16 0 -5
24 -33 53 -61 85 -82 106 -126 59 -126 -9 0 -55 -16 -102 -35 -47 -19 -86 -35
-87 -35 -2 0 -3 26 -3 58 0 32 -6 66 -13 76 -15 20 -112 46 -175 46 -35 0 -49
-6 -72 -28 -40 -40 -80 -172 -80 -263 0 -128 48 -192 176 -236 127 -42 134
-54 133 -207 0 -76 -3 -95 -10 -75 -10 27 -46 49 -78 49 -10 0 -24 7 -32 16
-29 35 -93 53 -134 38 -29 -12 -95 -125 -95 -164 0 -20 -5 -41 -12 -48 -9 -9
-7 -18 10 -39 25 -31 102 -177 102 -193 0 -5 14 -40 30 -78 l31 -68 102 -52
c68 -35 119 -55 154 -59 51 -6 52 -5 105 44 73 68 152 123 175 123 11 0 28 -9
39 -21 34 -38 69 -49 156 -49 46 0 99 4 118 9 19 5 47 12 62 15 15 4 36 16 47
27 19 20 21 20 36 5 22 -22 90 -56 111 -56 9 0 34 -16 55 -35 57 -52 106 -72
191 -79 60 -5 84 -3 107 9 36 18 90 107 155 255 46 102 47 108 53 230 5 111 4
128 -12 143 -16 17 -15 19 19 57 42 46 42 52 16 144 -23 83 -30 91 -137 163
-69 46 -93 70 -141 139 -31 45 -65 96 -74 113 -17 30 -18 31 -76 25 -64 -7
-95 4 -144 50 -55 50 -27 156 40 156 70 0 92 18 133 105 39 83 45 124 36 231
-5 50 -13 64 -36 64 -23 0 -67 48 -75 82 -4 17 -21 35 -51 52 -34 21 -45 33
-45 52 0 33 -42 74 -76 74 -15 0 -48 -12 -72 -27 -40 -23 -59 -27 -161 -31
-130 -5 -191 7 -225 42 -11 13 -31 28 -43 34 -27 15 -112 15 -138 0z"/>
</g>
</svg>
