<?xml version="1.0" standalone="no"?>
<!DOCTYPE svg PUBLIC "-//W3C//DTD SVG 20010904//EN"
 "http://www.w3.org/TR/2001/REC-SVG-20010904/DTD/svg10.dtd">
<svg version="1.0" xmlns="http://www.w3.org/2000/svg"
 width="360.000000pt" height="243.000000pt" viewBox="0 0 360.000000 243.000000"
 preserveAspectRatio="xMidYMid meet">
<metadata>
Created by potrace 1.13, written by Peter Selinger 2001-2015
</metadata>
<g transform="translate(0.000000,243.000000) scale(0.100000,-0.100000)"
fill="#000000" stroke="none">
<path d="M2134 2222 c-6 -4 -17 -20 -25 -37 l-14 -30 -183 0 -183 0 -27 33
c-24 29 -33 32 -77 32 -30 0 -60 -7 -74 -16 -22 -16 -23 -21 -16 -93 9 -105
-8 -146 -67 -161 -88 -23 -107 -32 -154 -73 -46 -40 -80 -99 -69 -117 3 -6 11
-37 16 -71 18 -111 35 -127 158 -147 32 -5 45 -12 47 -26 5 -33 25 -74 40 -80
8 -3 14 -14 14 -24 0 -15 -17 -22 -97 -39 -169 -37 -161 -37 -177 0 -7 17 -31
51 -53 75 -37 39 -44 42 -92 42 -86 0 -122 -29 -156 -128 -23 -68 -42 -242
-30 -275 9 -21 66 -55 135 -77 135 -44 207 -74 232 -95 15 -13 32 -25 37 -27
9 -3 18 -48 47 -228 l6 -35 -47 45 c-26 25 -53 57 -61 72 -22 42 -73 67 -152
74 -93 9 -140 -10 -184 -75 -28 -42 -30 -50 -24 -103 6 -64 43 -164 75 -204
12 -15 21 -32 21 -39 0 -20 39 -103 71 -151 35 -50 23 -47 236 -69 l162 -17
43 26 c24 14 57 38 73 53 59 56 62 57 85 35 38 -35 138 -65 250 -74 l105 -8
27 30 c36 39 61 38 111 -6 68 -58 173 -103 270 -116 105 -14 122 -6 167 84 18
34 40 73 51 86 10 14 19 33 19 43 0 10 15 47 34 82 41 76 65 154 67 224 2 43
-2 58 -25 88 l-28 36 20 22 c32 34 52 91 52 150 l0 53 -98 104 c-106 113 -186
225 -197 278 -11 53 -28 62 -111 62 -59 0 -78 4 -93 19 -10 10 -25 21 -32 23
-26 9 2 61 37 70 33 8 80 66 108 133 14 31 16 55 11 110 -4 39 -12 79 -17 89
-9 16 -8 18 8 11 53 -21 75 -24 80 -10 11 27 -76 147 -133 181 -23 15 -43 41
-62 81 -42 88 -112 136 -157 105z"/>
</g>
</svg>
