<?xml version="1.0" standalone="no"?>
<!DOCTYPE svg PUBLIC "-//W3C//DTD SVG 20010904//EN"
 "http://www.w3.org/TR/2001/REC-SVG-20010904/DTD/svg10.dtd">
<svg version="1.0" xmlns="http://www.w3.org/2000/svg"
 width="360.000000pt" height="243.000000pt" viewBox="0 0 360.000000 243.000000"
 preserveAspectRatio="xMidYMid meet">
<metadata>
Created by potrace 1.13, written by Peter Selinger 2001-2015
</metadata>
<g transform="translate(0.000000,243.000000) scale(0.100000,-0.100000)"
fill="#000000" stroke="none">
<path d="M1571 2201 l-31 -29 0 -117 0 -117 -42 6 c-24 3 -60 8 -81 12 -51 9
-82 -14 -112 -83 -47 -106 -25 -273 39 -289 18 -4 39 2 70 20 55 32 56 32 56
1 0 -14 12 -35 27 -49 26 -24 28 -31 28 -113 0 -83 -1 -88 -25 -100 -15 -8
-64 -13 -127 -13 -94 0 -103 2 -117 22 -9 12 -16 32 -16 43 0 12 -13 42 -30
68 -28 45 -32 47 -74 47 -36 0 -52 -6 -80 -30 -47 -42 -90 -154 -84 -219 6
-64 48 -147 100 -199 52 -52 169 -128 219 -142 55 -15 77 -75 81 -216 l3 -111
-27 36 c-37 51 -127 125 -167 139 -43 15 -108 15 -143 -1 -15 -7 -41 -29 -57
-51 -40 -50 -42 -111 -6 -182 14 -27 37 -85 50 -129 53 -168 61 -182 138 -236
64 -45 75 -49 126 -49 122 0 283 70 324 140 20 34 42 38 68 14 34 -30 146 -54
257 -54 96 0 105 2 127 25 14 13 25 29 25 35 0 38 73 -31 145 -138 16 -24 38
-48 49 -54 25 -14 201 -5 238 12 17 8 60 63 117 149 50 75 101 149 114 164 19
25 22 40 22 130 0 117 -14 169 -51 186 -31 14 -25 25 27 52 62 31 79 53 79
101 -1 57 -30 119 -70 149 -78 57 -130 122 -198 246 -7 13 -24 31 -38 39 -13
9 -24 24 -24 34 0 30 -23 39 -109 42 -88 3 -89 4 -111 58 -6 14 -17 36 -25 49
-14 24 -10 55 6 45 14 -9 90 30 148 76 l54 43 -6 118 c-4 94 -2 121 9 130 8 6
14 20 14 31 0 22 -51 78 -72 78 -28 0 -90 67 -121 130 -39 79 -57 85 -111 36
-49 -43 -58 -45 -237 -53 -168 -7 -191 -3 -207 32 -11 24 -85 65 -117 65 -7 0
-27 -13 -44 -29z"/>
</g>
</svg>
