<?xml version="1.0" standalone="no"?>
<!DOCTYPE svg PUBLIC "-//W3C//DTD SVG 20010904//EN"
 "http://www.w3.org/TR/2001/REC-SVG-20010904/DTD/svg10.dtd">
<svg version="1.0" xmlns="http://www.w3.org/2000/svg"
 width="360.000000pt" height="243.000000pt" viewBox="0 0 360.000000 243.000000"
 preserveAspectRatio="xMidYMid meet">
<metadata>
Created by potrace 1.13, written by Peter Selinger 2001-2015
</metadata>
<g transform="translate(0.000000,243.000000) scale(0.100000,-0.100000)"
fill="#000000" stroke="none">
<path d="M1584 2212 c-33 -23 -44 -58 -44 -141 0 -75 -3 -89 -25 -122 -22 -31
-33 -37 -75 -42 -64 -8 -84 -19 -120 -69 -35 -48 -39 -98 -14 -172 14 -40 23
-51 58 -67 22 -10 57 -19 77 -19 36 0 36 0 42 -51 4 -28 13 -62 22 -75 8 -13
15 -39 15 -57 0 -39 -9 -43 -136 -54 l-71 -6 -43 72 c-65 109 -97 117 -176 44
-75 -70 -94 -114 -94 -216 0 -68 4 -92 23 -128 26 -49 88 -89 170 -111 29 -7
58 -23 70 -38 12 -14 36 -35 54 -48 37 -26 50 -72 59 -222 6 -89 5 -100 -10
-100 -21 0 -132 99 -140 125 -3 11 -19 34 -35 52 -29 30 -33 31 -93 26 -102
-8 -137 -20 -144 -49 -4 -13 -4 -66 -2 -117 5 -96 25 -152 91 -248 13 -19 32
-56 42 -81 9 -26 30 -58 45 -73 28 -26 30 -27 117 -21 48 4 134 9 191 12 98 6
104 7 119 32 24 39 43 52 74 52 18 0 30 -6 34 -19 3 -10 29 -29 58 -41 47 -20
63 -22 162 -17 61 3 131 10 156 17 41 10 54 9 128 -15 64 -21 96 -39 146 -81
62 -53 65 -54 127 -54 l63 0 85 97 c191 217 210 252 210 385 0 75 -4 99 -20
126 -27 43 -25 58 9 97 36 41 48 108 26 141 -8 13 -15 30 -15 37 0 8 -12 30
-27 50 -16 19 -47 62 -70 94 -49 68 -84 105 -143 152 -25 20 -50 52 -62 80
-23 55 -31 61 -84 61 -55 0 -103 21 -118 51 -8 17 -21 25 -44 27 -28 3 -32 7
-32 31 0 23 8 32 43 49 23 11 61 25 84 32 23 6 48 17 55 25 7 7 32 34 56 59
23 24 42 52 42 61 0 22 -19 57 -39 72 -13 10 -14 15 -3 30 6 10 15 24 19 32
11 24 -35 95 -96 149 -46 40 -61 60 -70 96 -7 27 -19 50 -32 56 -26 14 -70 5
-104 -22 -25 -19 -36 -20 -204 -16 -166 4 -181 6 -232 30 -104 49 -131 57
-155 40z"/>
</g>
</svg>
