<?xml version="1.0" standalone="no"?>
<!DOCTYPE svg PUBLIC "-//W3C//DTD SVG 20010904//EN"
 "http://www.w3.org/TR/2001/REC-SVG-20010904/DTD/svg10.dtd">
<svg version="1.0" xmlns="http://www.w3.org/2000/svg"
 width="360.000000pt" height="243.000000pt" viewBox="0 0 360.000000 243.000000"
 preserveAspectRatio="xMidYMid meet">
<metadata>
Created by potrace 1.13, written by Peter Selinger 2001-2015
</metadata>
<g transform="translate(0.000000,243.000000) scale(0.100000,-0.100000)"
fill="#000000" stroke="none">
<path d="M1600 2223 c-14 -9 -27 -18 -30 -20 -3 -3 -7 -55 -10 -116 l-5 -112
-95 -8 c-164 -12 -200 -42 -200 -164 1 -136 80 -243 180 -243 34 0 63 -39 80
-108 7 -29 11 -54 9 -56 -11 -9 -132 -46 -152 -46 -15 0 -29 11 -40 29 -26 44
-87 103 -129 125 -32 18 -42 18 -90 8 -29 -7 -59 -16 -66 -20 -21 -14 -52
-118 -52 -174 0 -50 21 -184 35 -219 17 -43 184 -130 278 -143 l47 -7 0 -160
c0 -87 -4 -159 -9 -159 -17 0 -111 76 -138 112 -38 50 -61 58 -140 51 -84 -7
-101 -16 -119 -58 -41 -100 23 -407 111 -526 46 -64 126 -109 194 -109 93 0
300 80 361 140 38 37 54 38 85 3 23 -28 24 -28 171 -31 161 -4 219 5 229 38 4
11 11 20 16 20 21 0 77 -35 149 -93 41 -33 98 -71 127 -84 l52 -24 73 35 c103
49 198 138 243 228 19 39 35 77 35 84 0 7 9 28 19 46 45 76 35 190 -19 228
-39 28 -39 62 0 107 38 43 39 84 4 176 -23 59 -35 75 -88 118 -69 55 -187 196
-209 250 l-14 34 -108 0 -109 0 -10 27 c-6 16 -6 52 0 94 l9 68 45 11 c62 16
102 39 150 84 35 33 40 43 40 83 0 31 -7 54 -21 72 -16 20 -17 26 -6 26 24 0
41 28 31 49 -5 11 -46 47 -91 80 -46 34 -83 65 -83 71 0 5 -13 16 -29 24 -20
11 -37 35 -57 81 -16 36 -33 65 -39 65 -6 0 -27 -12 -46 -26 -58 -44 -74 -46
-249 -39 l-165 7 -40 44 c-45 48 -74 55 -115 27z"/>
</g>
</svg>
