<?xml version="1.0" standalone="no"?>
<!DOCTYPE svg PUBLIC "-//W3C//DTD SVG 20010904//EN"
 "http://www.w3.org/TR/2001/REC-SVG-20010904/DTD/svg10.dtd">
<svg version="1.0" xmlns="http://www.w3.org/2000/svg"
 width="360.000000pt" height="243.000000pt" viewBox="0 0 360.000000 243.000000"
 preserveAspectRatio="xMidYMid meet">
<metadata>
Created by potrace 1.13, written by Peter Selinger 2001-2015
</metadata>
<g transform="translate(0.000000,243.000000) scale(0.100000,-0.100000)"
fill="#000000" stroke="none">
<path d="M1591 2231 c-45 -45 -60 -93 -54 -172 7 -90 -4 -104 -87 -112 -84 -8
-128 -33 -156 -89 -36 -70 -42 -154 -15 -204 39 -74 68 -94 134 -94 28 0 34
-5 50 -44 10 -25 30 -56 44 -70 18 -19 24 -32 19 -49 -5 -22 -9 -23 -60 -19
-64 5 -98 -2 -120 -24 -15 -14 -16 -11 -16 30 0 57 -18 76 -94 105 -74 27
-124 27 -166 -2 -63 -42 -75 -76 -78 -228 l-4 -136 44 -40 c23 -23 57 -53 75
-67 46 -39 159 -89 212 -94 l47 -4 19 -82 c10 -44 20 -123 22 -174 4 -87 3
-92 -16 -92 -15 0 -29 16 -52 62 -48 95 -110 185 -136 197 -45 21 -116 13
-180 -19 -81 -41 -97 -75 -91 -197 4 -82 9 -96 61 -205 90 -190 155 -248 294
-263 49 -6 74 -3 129 14 73 24 175 73 213 102 37 30 89 25 127 -12 35 -34 83
-48 163 -49 42 0 65 7 107 30 29 17 56 40 59 50 9 28 16 25 57 -22 52 -63 132
-106 234 -129 115 -25 178 -25 203 0 58 58 130 196 148 286 8 38 23 97 34 130
10 33 21 93 23 134 5 69 8 77 36 99 47 37 51 52 36 124 -13 62 -57 148 -75
148 -19 0 -102 90 -152 165 -112 168 -164 203 -285 190 -37 -4 -64 -2 -68 3
-3 6 -9 31 -12 55 -9 62 19 102 77 111 52 8 113 39 133 68 11 15 16 45 16 96
0 75 -8 101 -43 139 -16 18 -17 25 -8 36 16 20 6 38 -39 70 -22 16 -40 34 -40
42 0 7 -11 26 -23 42 -13 15 -27 40 -30 54 -5 18 -25 38 -58 60 l-51 33 -72
-12 c-39 -6 -91 -16 -116 -21 -25 -6 -78 -10 -118 -11 -63 0 -83 5 -145 34
-99 47 -131 52 -156 27z"/>
</g>
</svg>
