<?xml version="1.0" standalone="no"?>
<!DOCTYPE svg PUBLIC "-//W3C//DTD SVG 20010904//EN"
 "http://www.w3.org/TR/2001/REC-SVG-20010904/DTD/svg10.dtd">
<svg version="1.0" xmlns="http://www.w3.org/2000/svg"
 width="360.000000pt" height="243.000000pt" viewBox="0 0 360.000000 243.000000"
 preserveAspectRatio="xMidYMid meet">
<metadata>
Created by potrace 1.13, written by Peter Selinger 2001-2015
</metadata>
<g transform="translate(0.000000,243.000000) scale(0.100000,-0.100000)"
fill="#000000" stroke="none">
<path d="M1590 2224 c-19 -8 -38 -20 -42 -27 -4 -7 -8 -47 -8 -89 0 -101 -20
-148 -65 -148 -17 0 -63 -15 -102 -34 -64 -31 -73 -38 -82 -73 -6 -21 -11 -70
-11 -108 0 -59 4 -76 25 -108 32 -46 71 -67 128 -67 37 0 46 -4 55 -25 7 -14
12 -41 12 -60 0 -21 8 -41 20 -53 l20 -19 -21 -19 c-15 -13 -40 -20 -89 -22
l-69 -4 -25 56 c-20 44 -32 59 -56 67 -16 6 -30 17 -30 24 0 24 -24 22 -94 -9
-61 -27 -73 -37 -112 -95 -50 -74 -55 -116 -30 -215 20 -76 31 -93 74 -115 20
-11 55 -37 77 -57 22 -20 69 -52 106 -71 44 -22 69 -42 73 -56 4 -12 9 -91 13
-174 7 -172 8 -171 -66 -134 -47 24 -54 33 -96 119 -19 39 -42 73 -52 76 -21
6 -148 -25 -164 -41 -11 -11 5 -279 22 -343 10 -42 119 -179 181 -227 l43 -35
95 4 c86 3 102 7 164 38 42 21 83 52 105 78 37 45 66 54 75 24 4 -10 31 -29
63 -42 54 -22 60 -23 179 -12 67 6 132 15 143 21 24 13 68 14 76 2 3 -5 20
-13 37 -16 21 -5 56 -31 100 -76 49 -49 80 -72 111 -80 23 -7 47 -11 52 -10 6
2 39 10 75 19 48 11 72 23 95 47 47 49 75 86 75 96 0 5 15 30 34 56 18 27 52
91 76 143 39 88 41 100 37 160 -3 36 -15 89 -26 118 -12 29 -21 56 -21 61 0 4
20 29 45 54 25 26 45 55 45 65 0 9 -21 59 -46 109 -49 96 -91 143 -233 257
-34 27 -61 55 -61 62 0 8 -9 23 -20 34 -17 17 -33 20 -99 20 l-79 0 -21 35
c-13 22 -28 35 -41 35 -20 0 -21 4 -14 48 9 65 21 92 41 98 51 15 124 56 162
90 65 59 67 67 32 129 -34 60 -40 100 -16 109 8 3 15 12 15 20 0 18 -66 71
-113 91 -32 13 -77 63 -118 133 -23 40 -42 40 -86 2 -40 -36 -54 -37 -267 -14
l-150 15 -43 40 c-47 43 -61 46 -113 23z"/>
</g>
</svg>
