<?xml version="1.0" standalone="no"?>
<!DOCTYPE svg PUBLIC "-//W3C//DTD SVG 20010904//EN"
 "http://www.w3.org/TR/2001/REC-SVG-20010904/DTD/svg10.dtd">
<svg version="1.0" xmlns="http://www.w3.org/2000/svg"
 width="360.000000pt" height="243.000000pt" viewBox="0 0 360.000000 243.000000"
 preserveAspectRatio="xMidYMid meet">
<metadata>
Created by potrace 1.13, written by Peter Selinger 2001-2015
</metadata>
<g transform="translate(0.000000,243.000000) scale(0.100000,-0.100000)"
fill="#000000" stroke="none">
<path d="M2155 2236 c-66 -45 -313 -64 -400 -29 -128 51 -246 3 -206 -83 6
-14 11 -67 11 -119 l0 -93 -102 -4 c-65 -2 -114 -9 -133 -18 -28 -14 -30 -19
-33 -83 -2 -56 2 -78 24 -127 34 -76 48 -88 108 -92 45 -3 50 -6 57 -32 5 -16
17 -38 28 -50 25 -27 36 -87 21 -115 -10 -20 -18 -22 -103 -19 l-92 3 -41 68
c-47 79 -56 87 -104 87 -63 0 -121 -38 -153 -100 -27 -51 -29 -61 -25 -145 3
-71 10 -102 31 -149 48 -104 84 -139 187 -180 49 -20 104 -36 120 -36 l30 0 0
-126 0 -126 -52 45 c-112 93 -149 103 -253 67 -75 -26 -101 -43 -120 -81 -14
-27 -14 -35 0 -91 33 -129 159 -393 213 -445 l36 -36 106 6 c96 5 173 23 221
53 37 22 119 89 119 96 0 21 45 4 74 -27 l33 -35 141 0 141 0 23 30 c25 35 53
39 68 10 6 -11 34 -32 63 -46 29 -15 76 -49 105 -75 63 -58 81 -64 175 -56 60
5 79 12 123 43 30 20 70 59 89 88 20 28 49 70 66 93 68 96 89 150 89 229 0 50
-6 90 -20 124 -27 68 -26 101 5 130 14 13 29 39 34 57 17 59 -12 104 -178 273
-84 85 -166 176 -183 203 -29 43 -35 47 -72 48 -89 1 -120 12 -138 49 -39 80
-10 128 103 168 58 21 67 28 97 77 32 53 32 55 17 91 -8 20 -15 59 -15 85 0
64 -54 172 -104 212 -20 15 -47 49 -60 76 -29 57 -97 121 -129 121 -12 0 -31
-6 -42 -14z"/>
</g>
</svg>
