<?xml version="1.0" standalone="no"?>
<!DOCTYPE svg PUBLIC "-//W3C//DTD SVG 20010904//EN"
 "http://www.w3.org/TR/2001/REC-SVG-20010904/DTD/svg10.dtd">
<svg version="1.0" xmlns="http://www.w3.org/2000/svg"
 width="208.000000pt" height="512.000000pt" viewBox="0 0 208.000000 512.000000"
 preserveAspectRatio="xMidYMid meet">
<metadata>
Created by potrace 1.13, written by Peter Selinger 2001-2015
</metadata>
<g transform="translate(0.000000,512.000000) scale(0.100000,-0.100000)"
fill="#000000" stroke="none">
<path d="M740 4705 c-5 -14 -10 -52 -10 -83 0 -127 -42 -496 -60 -532 -5 -8
-21 -55 -36 -105 -15 -49 -31 -97 -35 -105 -19 -38 -39 -89 -39 -98 0 -17 -39
-99 -54 -111 -7 -6 -21 -37 -31 -69 -10 -31 -33 -87 -51 -124 -52 -104 -36
-119 88 -83 111 33 121 33 106 -2 -6 -16 -16 -53 -24 -83 -38 -162 -138 -439
-164 -455 -6 -3 -10 -13 -10 -22 0 -15 -18 -54 -55 -122 -14 -25 -78 -102
-133 -158 -36 -38 -38 -45 -17 -63 10 -9 38 -10 97 -6 118 10 146 10 209 1
l56 -8 -45 -116 c-24 -64 -48 -125 -53 -136 -4 -11 -13 -38 -19 -60 -6 -22
-15 -49 -20 -60 -4 -11 -23 -63 -41 -114 -19 -52 -44 -110 -56 -128 -13 -19
-23 -38 -23 -44 0 -5 -4 -17 -9 -27 -5 -9 -17 -33 -26 -52 -21 -45 -38 -74
-52 -91 -31 -37 -22 -151 11 -157 26 -5 125 27 160 51 34 24 272 147 284 147
5 0 12 -75 16 -167 4 -93 11 -220 16 -283 5 -63 10 -291 10 -506 0 -296 3
-394 13 -407 17 -24 115 -26 132 -4 13 19 23 445 25 1087 1 212 2 386 4 387 2
2 86 -20 141 -38 17 -6 62 -13 101 -16 64 -5 80 -2 157 27 78 29 93 32 152 25
62 -6 65 -5 76 17 9 20 6 33 -16 74 -52 93 -117 194 -126 194 -5 0 -9 5 -9 10
0 6 -13 29 -30 52 -16 22 -30 45 -30 49 0 11 -60 100 -82 122 -10 10 -18 27
-18 37 0 11 -11 27 -25 36 -14 9 -25 22 -25 30 0 7 -18 43 -40 79 -22 36 -40
70 -40 75 0 6 -11 27 -24 48 -24 39 -61 110 -77 150 l-9 23 43 -26 c68 -42
147 -75 180 -75 17 0 39 -7 49 -16 14 -14 20 -14 33 -4 17 14 20 46 6 55 -14
8 -68 90 -95 144 -13 25 -36 59 -50 74 -14 15 -26 32 -26 36 0 5 -9 30 -21 57
-11 27 -25 60 -30 74 -6 14 -21 46 -35 73 -13 26 -24 53 -24 61 0 8 -16 46
-36 85 -38 74 -39 105 -4 116 11 3 29 1 40 -5 35 -19 132 -31 147 -19 29 25
14 84 -57 227 -38 77 -70 143 -70 147 0 4 -6 21 -14 38 -8 18 -29 75 -45 127
-45 138 -49 151 -56 190 -4 19 -19 71 -35 115 -35 98 -56 190 -71 304 -18 140
-46 196 -69 136z"/>
</g>
</svg>
