<?xml version="1.0" standalone="no"?>
<!DOCTYPE svg PUBLIC "-//W3C//DTD SVG 20010904//EN"
 "http://www.w3.org/TR/2001/REC-SVG-20010904/DTD/svg10.dtd">
<svg version="1.0" xmlns="http://www.w3.org/2000/svg"
 width="256.000000pt" height="256.000000pt" viewBox="0 0 256.000000 256.000000"
 preserveAspectRatio="xMidYMid meet">
<metadata>
Created by potrace 1.13, written by Peter Selinger 2001-2015
</metadata>
<g transform="translate(0.000000,256.000000) scale(0.100000,-0.100000)"
fill="#000000" stroke="none">
<path d="M1156 2444 c-15 -19 -41 -53 -56 -75 -15 -23 -45 -55 -67 -73 -22
-17 -62 -55 -89 -85 -109 -121 -209 -211 -237 -212 -39 -2 41 -18 143 -30 52
-5 100 -15 107 -21 24 -20 15 -58 -18 -76 -18 -9 -52 -32 -78 -50 -25 -18 -59
-40 -75 -50 -15 -9 -67 -45 -114 -80 -47 -35 -93 -67 -104 -73 -10 -5 -18 -18
-18 -28 0 -17 14 -19 180 -23 155 -5 183 -8 200 -23 33 -30 25 -62 -28 -113
-45 -45 -100 -111 -132 -158 -8 -12 -39 -57 -67 -99 -29 -42 -53 -81 -53 -86
0 -5 51 -9 114 -9 198 0 292 -36 330 -125 30 -69 36 -87 36 -108 0 -13 4 -27
9 -33 11 -11 14 -247 6 -402 -9 -149 -11 -147 138 -156 360 -21 333 -22 351 6
29 44 1 145 -90 336 -24 50 -46 104 -48 120 -3 15 -13 52 -23 82 -21 65 -23
221 -3 245 18 22 64 31 355 75 231 35 212 30 190 42 -35 18 -98 62 -172 118
-83 64 -115 87 -198 139 -61 39 -85 72 -85 114 0 44 14 47 209 48 103 1 199 4
215 8 l29 6 -44 23 c-24 12 -51 27 -59 31 -8 5 -26 14 -40 20 -28 13 -80 46
-170 109 -34 24 -71 47 -83 52 -12 4 -48 31 -79 60 -97 87 -78 121 77 139 143
18 147 19 132 42 -6 10 -20 19 -30 19 -24 0 -121 52 -177 95 -25 19 -65 48
-90 64 -103 69 -165 119 -213 172 l-52 56 -29 -33z"/>
</g>
</svg>
