<?xml version="1.0" standalone="no"?>
<!DOCTYPE svg PUBLIC "-//W3C//DTD SVG 20010904//EN"
 "http://www.w3.org/TR/2001/REC-SVG-20010904/DTD/svg10.dtd">
<svg version="1.0" xmlns="http://www.w3.org/2000/svg"
 width="256.000000pt" height="256.000000pt" viewBox="0 0 256.000000 256.000000"
 preserveAspectRatio="xMidYMid meet">
<metadata>
Created by potrace 1.13, written by Peter Selinger 2001-2015
</metadata>
<g transform="translate(0.000000,256.000000) scale(0.100000,-0.100000)"
fill="#000000" stroke="none">
<path d="M1305 2370 c-125 -30 -306 -60 -353 -60 -71 0 -78 -8 -92 -107 -8
-56 -10 -127 -6 -196 6 -101 5 -107 -11 -99 -51 25 -153 43 -233 40 -77 -3
-85 -5 -88 -24 -2 -12 13 -42 35 -72 21 -28 52 -72 68 -98 17 -26 35 -55 40
-63 6 -9 19 -29 30 -46 10 -16 43 -58 72 -92 29 -33 53 -65 53 -69 0 -4 8 -16
17 -27 17 -19 17 -19 -2 -14 -153 45 -175 31 -107 -70 20 -31 42 -66 49 -77
14 -25 100 -107 138 -132 15 -9 38 -39 53 -66 48 -89 59 -108 70 -121 7 -8 18
-30 27 -50 l15 -36 -29 9 c-15 4 -38 13 -49 19 -30 16 -77 14 -92 -4 -16 -20
-8 -40 57 -132 26 -38 53 -76 58 -85 24 -38 112 -163 133 -188 12 -15 22 -33
22 -38 0 -6 11 -27 24 -47 34 -50 57 -125 59 -193 2 -49 5 -57 21 -57 15 0 22
12 32 56 18 80 128 274 185 325 10 9 19 22 19 27 0 6 37 60 83 121 105 141
120 164 113 182 -7 17 -29 17 -78 0 -34 -12 -38 -12 -38 2 0 22 38 138 66 199
13 29 27 65 30 80 4 16 15 44 26 63 10 19 18 39 18 45 0 6 20 46 45 90 66 115
49 131 -75 71 -38 -19 -70 -33 -70 -31 0 14 32 70 72 128 27 37 48 70 48 75 0
4 14 25 30 46 17 22 30 45 30 53 0 13 30 56 115 166 47 62 56 93 29 104 -9 3
-58 -3 -108 -15 -50 -12 -134 -24 -186 -27 -52 -4 -123 -15 -157 -26 -34 -10
-65 -19 -68 -19 -3 0 -5 107 -5 238 0 244 -3 263 -39 261 -9 0 -52 -9 -96 -19z"/>
</g>
</svg>
