<?xml version="1.0" standalone="no"?>
<!DOCTYPE svg PUBLIC "-//W3C//DTD SVG 20010904//EN"
 "http://www.w3.org/TR/2001/REC-SVG-20010904/DTD/svg10.dtd">
<svg version="1.0" xmlns="http://www.w3.org/2000/svg"
 width="256.000000pt" height="256.000000pt" viewBox="0 0 256.000000 256.000000"
 preserveAspectRatio="xMidYMid meet">
<metadata>
Created by potrace 1.13, written by Peter Selinger 2001-2015
</metadata>
<g transform="translate(0.000000,256.000000) scale(0.100000,-0.100000)"
fill="#000000" stroke="none">
<path d="M1153 2435 c-11 -8 -24 -27 -28 -42 -3 -15 -16 -40 -27 -56 -11 -16
-28 -44 -38 -64 -9 -19 -39 -61 -66 -92 -70 -83 -128 -120 -264 -171 -82 -31
-102 -49 -80 -75 19 -22 59 -15 145 24 37 17 69 31 72 31 3 0 27 16 53 35 26
19 50 35 53 35 16 0 -20 -196 -49 -265 -17 -41 -120 -184 -211 -295 -63 -76
-144 -152 -191 -180 -38 -23 -49 -45 -32 -65 9 -11 22 -14 38 -10 33 8 169
133 243 223 34 41 63 72 65 69 5 -5 -13 -91 -26 -122 -5 -11 -18 -51 -30 -90
-12 -38 -25 -79 -30 -90 -5 -11 -14 -38 -21 -60 -13 -42 -74 -139 -136 -217
-165 -203 -174 -213 -248 -253 -63 -34 -79 -49 -72 -69 13 -33 39 -29 129 20
15 8 54 41 87 72 93 90 207 121 442 122 l77 0 7 -82 c4 -46 13 -128 21 -183 7
-55 14 -134 14 -176 0 -110 4 -113 184 -117 129 -4 143 -2 166 16 23 18 23 22
13 73 -6 30 -16 70 -22 89 -26 92 -31 124 -31 253 l0 139 183 -5 c195 -4 282
-20 300 -53 15 -29 108 -116 147 -139 18 -11 44 -27 56 -35 18 -12 25 -12 38
-1 9 7 16 19 16 26 0 7 -40 44 -90 81 -49 37 -90 71 -90 75 0 4 -19 29 -42 56
-24 26 -47 55 -53 64 -5 9 -39 55 -75 103 -65 86 -116 169 -147 236 -17 38
-48 199 -39 207 3 3 26 -13 52 -36 26 -22 51 -41 56 -41 11 0 148 -102 172
-129 22 -25 39 -27 56 -6 27 33 19 40 -263 247 -67 49 -113 111 -195 264 -27
51 -41 97 -56 183 -9 52 -14 96 -13 98 2 1 41 -13 87 -33 102 -45 150 -53 170
-29 21 26 2 46 -60 62 -30 8 -64 20 -75 27 -11 7 -37 18 -57 25 -69 23 -152
131 -202 266 -30 79 -42 88 -83 60z"/>
</g>
</svg>
