<?xml version="1.0" standalone="no"?>
<!DOCTYPE svg PUBLIC "-//W3C//DTD SVG 20010904//EN"
 "http://www.w3.org/TR/2001/REC-SVG-20010904/DTD/svg10.dtd">
<svg version="1.0" xmlns="http://www.w3.org/2000/svg"
 width="256.000000pt" height="256.000000pt" viewBox="0 0 256.000000 256.000000"
 preserveAspectRatio="xMidYMid meet">
<metadata>
Created by potrace 1.13, written by Peter Selinger 2001-2015
</metadata>
<g transform="translate(0.000000,256.000000) scale(0.100000,-0.100000)"
fill="#000000" stroke="none">
<path d="M1162 2318 c-7 -7 -12 -16 -12 -20 0 -5 -19 -34 -42 -65 -24 -30 -53
-70 -64 -87 -33 -48 -107 -121 -153 -150 -61 -39 -51 -76 22 -76 35 0 38 -2
31 -22 -10 -33 -130 -201 -154 -216 -11 -7 -20 -18 -20 -24 0 -7 -12 -25 -27
-40 -22 -23 -25 -32 -16 -46 8 -13 24 -17 72 -15 33 1 61 -1 61 -3 0 -3 -11
-22 -25 -42 -14 -20 -25 -40 -25 -44 0 -12 -100 -170 -150 -238 -27 -36 -67
-83 -89 -105 -23 -21 -41 -44 -41 -51 0 -31 33 -39 164 -40 72 0 181 -4 243
-9 l111 -7 5 -142 c11 -311 25 -458 44 -477 26 -24 233 -38 251 -16 13 15 5
122 -18 277 -6 36 -11 127 -13 202 l-2 137 155 5 c464 17 458 16 445 68 -3 13
-37 66 -76 117 -38 52 -69 98 -69 103 0 5 -13 28 -28 51 -16 23 -32 50 -35 60
-4 10 -28 47 -53 83 l-46 64 30 0 c16 0 40 9 53 19 22 18 23 21 9 46 -8 15
-50 64 -92 110 -43 45 -98 108 -123 141 l-44 59 41 5 c25 3 45 12 52 23 9 15
5 24 -29 54 -95 85 -125 116 -214 217 -52 58 -100 106 -106 106 -6 0 -16 -5
-23 -12z"/>
</g>
</svg>
