<?xml version="1.0" standalone="no"?>
<!DOCTYPE svg PUBLIC "-//W3C//DTD SVG 20010904//EN"
 "http://www.w3.org/TR/2001/REC-SVG-20010904/DTD/svg10.dtd">
<svg version="1.0" xmlns="http://www.w3.org/2000/svg"
 width="421.000000pt" height="414.000000pt" viewBox="0 0 421.000000 414.000000"
 preserveAspectRatio="xMidYMid meet">
<metadata>
Created by potrace 1.13, written by Peter Selinger 2001-2015
</metadata>
<g transform="translate(0.000000,414.000000) scale(0.100000,-0.100000)"
fill="#000000" stroke="none">
<path d="M1485 3805 c-20 -19 -25 -34 -25 -73 0 -42 -19 -151 -49 -272 -11
-49 -52 -140 -62 -140 -4 0 -24 -24 -44 -54 -20 -30 -69 -88 -108 -129 -40
-40 -87 -90 -106 -111 -18 -20 -51 -46 -72 -56 -50 -26 -62 -50 -53 -106 12
-82 24 -88 171 -94 l128 -5 -23 -20 c-13 -11 -35 -42 -49 -70 -14 -27 -32 -54
-39 -58 -8 -4 -29 -31 -48 -60 -36 -56 -210 -237 -227 -237 -6 0 -32 -22 -59
-48 -26 -26 -59 -53 -72 -60 -12 -7 -43 -25 -68 -40 -25 -16 -58 -32 -73 -35
-59 -15 -73 -90 -23 -122 20 -13 42 -15 132 -8 60 4 184 7 275 5 l166 -3 -61
-63 c-120 -125 -166 -175 -166 -184 0 -12 -240 -252 -252 -252 -5 0 -32 -23
-61 -51 -29 -28 -82 -71 -118 -95 -87 -56 -99 -85 -54 -129 28 -29 89 -34 120
-11 10 7 26 11 36 9 9 -3 28 1 40 8 13 7 46 11 72 10 31 -2 57 3 73 13 15 11
33 14 50 10 18 -5 34 0 54 15 23 16 48 22 112 26 84 4 146 14 206 34 19 5 72
13 119 17 l85 7 -7 -44 c-3 -24 -1 -66 5 -94 7 -27 13 -75 15 -105 5 -74 19
-162 29 -178 4 -8 7 -157 7 -333 l-2 -319 25 -25 c21 -21 34 -25 86 -25 46 0
68 -5 90 -21 39 -29 71 -19 109 33 l30 41 2 146 c4 556 10 1015 13 1018 2 2
56 -3 120 -12 136 -17 407 -20 438 -4 11 6 90 12 176 14 280 7 321 22 320 122
-1 60 -11 81 -51 99 -33 14 -84 46 -198 122 -35 23 -83 48 -106 54 -24 7 -43
16 -43 21 0 18 -51 57 -74 57 -14 0 -30 8 -35 18 -5 9 -43 39 -85 67 -42 27
-76 53 -76 57 0 4 -26 24 -57 45 -92 59 -168 122 -159 130 1 1 18 -2 37 -8 19
-6 54 -15 79 -19 25 -5 79 -17 120 -26 94 -22 122 -15 156 36 36 54 28 80 -40
125 -29 19 -56 35 -60 35 -4 0 -44 37 -89 83 -45 45 -94 90 -109 100 -15 9
-35 31 -43 47 -8 16 -28 36 -43 44 -35 19 -106 86 -98 94 3 3 87 4 186 3 l180
-2 25 25 c49 49 25 96 -89 173 -50 34 -220 206 -247 250 -12 18 -26 36 -32 40
-16 10 -49 59 -72 103 -9 19 -25 44 -36 55 -65 71 -83 94 -100 127 -10 20 -25
41 -33 45 -16 9 -76 148 -76 176 0 25 -44 67 -70 67 -11 0 -32 -11 -45 -25z"/>
</g>
</svg>
