<?xml version="1.0" standalone="no"?>
<!DOCTYPE svg PUBLIC "-//W3C//DTD SVG 20010904//EN"
 "http://www.w3.org/TR/2001/REC-SVG-20010904/DTD/svg10.dtd">
<svg version="1.0" xmlns="http://www.w3.org/2000/svg"
 width="256.000000pt" height="256.000000pt" viewBox="0 0 256.000000 256.000000"
 preserveAspectRatio="xMidYMid meet">
<metadata>
Created by potrace 1.13, written by Peter Selinger 2001-2015
</metadata>
<g transform="translate(0.000000,256.000000) scale(0.100000,-0.100000)"
fill="#000000" stroke="none">
<path d="M1187 2513 c-8 -10 -19 -31 -23 -48 -7 -29 -15 -44 -82 -168 -33 -58
-41 -110 -21 -123 25 -15 -22 -246 -66 -326 -8 -14 -15 -35 -15 -45 0 -10 -5
-24 -11 -30 -11 -11 -9 -47 6 -119 5 -20 -2 -59 -19 -115 -14 -46 -39 -154
-56 -238 l-30 -155 26 -27 c26 -27 26 -29 22 -151 -5 -137 -11 -155 -106 -369
-56 -124 -50 -129 133 -129 l143 0 4 -119 c4 -131 14 -156 71 -192 38 -23 67
-19 114 17 l32 25 -2 118 c-1 66 0 121 3 123 3 2 66 1 140 -2 165 -8 173 -4
147 67 -9 27 -17 55 -17 63 0 8 -6 27 -14 42 -16 31 -50 176 -71 303 -20 122
-19 194 2 217 13 15 14 23 5 43 -6 14 -18 53 -26 87 -8 35 -26 97 -39 138 -48
147 -47 217 5 276 l30 34 -26 52 c-14 29 -35 95 -46 147 -11 52 -23 98 -26
103 -4 5 -14 44 -25 86 -18 75 -18 76 1 89 27 19 25 37 -8 86 -16 23 -44 85
-62 137 -44 127 -58 141 -93 103z"/>
</g>
</svg>
