<?xml version="1.0" standalone="no"?>
<!DOCTYPE svg PUBLIC "-//W3C//DTD SVG 20010904//EN"
 "http://www.w3.org/TR/2001/REC-SVG-20010904/DTD/svg10.dtd">
<svg version="1.0" xmlns="http://www.w3.org/2000/svg"
 width="256.000000pt" height="256.000000pt" viewBox="0 0 256.000000 256.000000"
 preserveAspectRatio="xMidYMid meet">
<metadata>
Created by potrace 1.13, written by Peter Selinger 2001-2015
</metadata>
<g transform="translate(0.000000,256.000000) scale(0.100000,-0.100000)"
fill="#000000" stroke="none">
<path d="M1182 2438 c-6 -6 -12 -27 -12 -45 0 -33 -27 -118 -61 -188 -47 -97
-81 -142 -144 -190 -43 -32 -261 -145 -280 -145 -6 0 -22 -11 -35 -25 -34 -37
-18 -58 51 -67 56 -8 148 -1 186 13 l22 8 -21 -37 c-12 -20 -34 -60 -49 -89
-52 -100 -116 -170 -237 -255 -113 -81 -109 -103 20 -114 46 -4 101 -2 142 6
37 7 69 10 73 7 9 -9 -37 -77 -99 -145 -32 -35 -58 -70 -58 -78 0 -7 -21 -30
-47 -51 -26 -21 -56 -47 -68 -58 -11 -11 -51 -44 -88 -73 -37 -30 -67 -59 -67
-66 0 -7 9 -21 20 -31 17 -16 31 -17 117 -11 150 11 289 44 393 94 30 15 59
28 64 31 5 2 6 -86 3 -215 -8 -239 4 -450 25 -469 8 -8 59 -15 131 -18 118 -5
119 -5 149 22 l30 27 -11 105 c-10 98 -24 499 -17 499 2 0 19 -6 37 -14 19 -7
92 -28 162 -46 113 -28 141 -31 237 -28 88 2 113 6 127 21 26 26 6 51 -50 59
-57 8 -142 62 -161 103 -8 17 -27 48 -41 69 -32 47 -44 76 -55 136 -5 25 -12
53 -15 63 -6 15 -4 16 20 7 15 -6 83 -15 152 -22 120 -11 125 -11 145 10 23
22 19 48 -9 60 -74 30 -157 123 -183 204 -6 21 -33 80 -60 132 -45 89 -46 94
-23 85 13 -5 51 -9 83 -9 104 0 135 56 46 86 -40 14 -170 105 -198 138 -10 12
-25 37 -34 56 -9 19 -30 54 -45 77 -16 23 -33 52 -38 65 -5 13 -33 57 -63 99
-31 42 -62 89 -70 105 -8 16 -20 40 -28 54 -7 14 -16 32 -20 40 -9 20 -32 24
-48 8z"/>
</g>
</svg>
