<?xml version="1.0" standalone="no"?>
<!DOCTYPE svg PUBLIC "-//W3C//DTD SVG 20010904//EN"
 "http://www.w3.org/TR/2001/REC-SVG-20010904/DTD/svg10.dtd">
<svg version="1.0" xmlns="http://www.w3.org/2000/svg"
 width="256.000000pt" height="256.000000pt" viewBox="0 0 256.000000 256.000000"
 preserveAspectRatio="xMidYMid meet">
<metadata>
Created by potrace 1.13, written by Peter Selinger 2001-2015
</metadata>
<g transform="translate(0.000000,256.000000) scale(0.100000,-0.100000)"
fill="#000000" stroke="none">
<path d="M1238 2493 c-25 -27 -53 -62 -61 -78 -8 -17 -44 -60 -79 -95 -84 -87
-138 -154 -138 -172 0 -24 22 -38 62 -38 21 0 38 -3 38 -7 0 -15 -56 -123 -91
-175 -22 -31 -39 -61 -39 -67 0 -12 -68 -97 -113 -141 -20 -19 -37 -40 -37
-46 0 -23 37 -44 78 -44 23 0 42 -4 42 -9 0 -20 -47 -120 -113 -243 -15 -26
-58 -93 -97 -148 -98 -141 -94 -180 19 -162 34 5 61 7 61 5 0 -11 -63 -94
-113 -150 -58 -65 -118 -150 -152 -216 -15 -29 -17 -41 -9 -55 10 -15 29 -17
150 -17 127 0 142 -2 169 -22 34 -25 87 -38 190 -48 l70 -7 -3 -167 c-3 -132
-1 -169 9 -178 23 -18 114 -33 199 -33 69 0 82 3 107 24 l27 24 -2 138 c-2 76
-5 141 -7 144 -2 4 20 12 50 19 29 7 65 21 78 32 34 26 91 24 211 -6 103 -26
194 -32 224 -15 9 5 29 14 45 20 47 17 45 38 -9 88 -48 45 -124 181 -144 257
-5 17 -13 45 -19 64 l-10 34 53 -6 c44 -4 57 -2 70 12 24 26 21 34 -34 94 -37
40 -58 76 -81 138 -18 46 -36 88 -40 94 -5 5 -9 15 -9 23 0 8 -7 28 -15 45
-16 35 -58 217 -52 224 3 2 22 7 43 10 79 12 83 40 19 119 -25 30 -45 59 -45
65 0 5 -9 29 -20 51 -11 23 -20 46 -20 51 0 4 -11 23 -25 41 -14 18 -25 38
-25 44 0 6 -11 32 -25 57 l-26 45 34 0 c18 0 38 5 45 12 28 28 12 50 -118 172
-95 89 -161 157 -198 204 -44 55 -66 54 -124 -5z"/>
</g>
</svg>
