<?xml version="1.0" standalone="no"?>
<!DOCTYPE svg PUBLIC "-//W3C//DTD SVG 20010904//EN"
 "http://www.w3.org/TR/2001/REC-SVG-20010904/DTD/svg10.dtd">
<svg version="1.0" xmlns="http://www.w3.org/2000/svg"
 width="256.000000pt" height="256.000000pt" viewBox="0 0 256.000000 256.000000"
 preserveAspectRatio="xMidYMid meet">
<metadata>
Created by potrace 1.13, written by Peter Selinger 2001-2015
</metadata>
<g transform="translate(0.000000,256.000000) scale(0.100000,-0.100000)"
fill="#000000" stroke="none">
<path d="M1207 2393 c-3 -16 -17 -44 -31 -63 -14 -19 -37 -56 -51 -82 -14 -26
-40 -64 -57 -84 -49 -56 -167 -146 -218 -167 -25 -11 -63 -27 -85 -38 l-40
-19 50 4 c28 3 80 10 118 16 117 21 126 -16 43 -179 -30 -58 -63 -127 -74
-152 -14 -31 -43 -66 -89 -105 -37 -33 -71 -63 -75 -69 -14 -19 36 -16 102 5
89 29 146 36 165 20 33 -27 13 -96 -49 -175 -18 -22 -50 -67 -71 -100 -39 -60
-132 -159 -170 -182 -17 -10 -11 -12 38 -12 131 -2 312 -29 343 -53 21 -16 33
-124 39 -358 6 -251 20 -342 62 -399 21 -27 26 -28 163 -41 170 -16 170 -16
177 87 4 51 -1 88 -17 148 -16 60 -24 125 -30 260 -5 99 -14 203 -21 232 -11
46 -10 55 5 78 16 24 22 26 54 20 50 -9 241 -18 258 -11 9 4 -30 49 -117 133
-144 141 -221 245 -223 301 -1 46 22 61 66 43 82 -33 116 -42 173 -48 40 -4
70 -1 85 7 23 12 22 13 -29 38 -62 31 -188 158 -226 229 -15 26 -39 71 -55 98
-29 50 -70 164 -70 195 0 21 20 40 43 40 10 0 42 -16 71 -35 28 -19 72 -37 96
-41 l45 -7 -130 132 c-72 72 -142 153 -156 179 -14 26 -35 65 -47 87 -12 22
-22 47 -22 55 0 16 -18 40 -31 40 -3 0 -9 -12 -12 -27z"/>
</g>
</svg>
