<?xml version="1.0" standalone="no"?>
<!DOCTYPE svg PUBLIC "-//W3C//DTD SVG 20010904//EN"
 "http://www.w3.org/TR/2001/REC-SVG-20010904/DTD/svg10.dtd">
<svg version="1.0" xmlns="http://www.w3.org/2000/svg"
 width="256.000000pt" height="256.000000pt" viewBox="0 0 256.000000 256.000000"
 preserveAspectRatio="xMidYMid meet">
<metadata>
Created by potrace 1.13, written by Peter Selinger 2001-2015
</metadata>
<g transform="translate(0.000000,256.000000) scale(0.100000,-0.100000)"
fill="#000000" stroke="none">
<path d="M1226 2423 c-4 -4 -38 -70 -77 -148 -81 -163 -86 -173 -159 -283 -30
-47 -59 -92 -65 -101 -5 -9 -35 -47 -65 -84 -145 -178 -149 -186 -111 -207 31
-16 113 -12 140 7 13 9 22 12 20 7 -2 -5 -17 -43 -33 -84 -16 -41 -41 -88 -57
-105 -15 -16 -52 -77 -81 -135 -30 -58 -67 -118 -82 -135 -43 -45 -59 -73 -52
-90 8 -22 90 -19 168 5 34 11 64 20 66 20 2 0 -8 -15 -22 -33 -15 -19 -26 -43
-26 -53 0 -11 -28 -59 -62 -107 -35 -49 -70 -100 -78 -115 -24 -43 -152 -170
-183 -181 -21 -8 -28 -17 -25 -34 3 -19 8 -22 43 -19 22 1 63 8 90 16 114 33
160 38 374 43 l224 6 -7 -44 c-29 -179 -35 -359 -13 -377 6 -5 66 -13 132 -16
66 -3 139 -8 163 -12 68 -10 75 2 67 115 -10 131 -29 261 -44 289 -11 20 -10
22 18 22 17 0 81 -6 143 -14 62 -8 196 -16 297 -18 167 -3 185 -1 195 15 9 15
3 25 -41 65 -57 51 -157 186 -180 242 -8 19 -30 58 -49 87 -19 28 -34 54 -34
57 0 3 21 -4 47 -15 26 -11 56 -19 67 -17 34 5 32 48 -4 92 -16 21 -30 43 -30
47 0 15 -85 122 -131 165 -57 53 -109 119 -109 137 0 7 -3 17 -6 20 -5 5 -40
96 -44 114 0 0 23 -7 50 -18 88 -33 130 -22 130 33 0 29 -41 118 -68 151 -9 9
-29 39 -46 66 -17 27 -65 93 -106 147 -95 125 -125 170 -159 239 -55 110 -110
200 -124 203 -8 2 -17 12 -20 23 -5 19 -27 26 -41 12z"/>
</g>
</svg>
