<?xml version="1.0" standalone="no"?>
<!DOCTYPE svg PUBLIC "-//W3C//DTD SVG 20010904//EN"
 "http://www.w3.org/TR/2001/REC-SVG-20010904/DTD/svg10.dtd">
<svg version="1.0" xmlns="http://www.w3.org/2000/svg"
 width="425.000000pt" height="394.000000pt" viewBox="0 0 425.000000 394.000000"
 preserveAspectRatio="xMidYMid meet">
<metadata>
Created by potrace 1.13, written by Peter Selinger 2001-2015
</metadata>
<g transform="translate(0.000000,394.000000) scale(0.100000,-0.100000)"
fill="#000000" stroke="none">
<path d="M1770 3799 c-45 -18 -56 -40 -63 -124 -3 -44 -10 -81 -16 -83 -6 -2
-13 -26 -17 -53 -4 -27 -10 -49 -15 -49 -5 0 -12 -18 -15 -40 -4 -22 -10 -40
-15 -40 -4 0 -11 -10 -15 -22 -3 -12 -10 -26 -15 -32 -34 -41 -47 -53 -71 -65
-15 -8 -30 -22 -33 -31 -3 -9 -16 -23 -30 -30 -14 -7 -27 -21 -30 -31 -3 -9
-16 -20 -28 -23 -12 -3 -32 -14 -44 -26 -12 -11 -26 -20 -32 -20 -5 0 -19 -11
-32 -25 -13 -13 -29 -25 -35 -25 -11 0 -42 -24 -94 -70 -21 -20 -74 -46 -130
-65 -24 -9 -52 -24 -62 -35 -19 -21 -25 -60 -8 -60 6 0 10 -11 10 -24 0 -28
22 -53 57 -67 13 -5 103 -9 198 -9 151 0 174 -2 169 -15 -4 -8 -13 -15 -20
-15 -15 0 -57 -40 -82 -76 -7 -10 -16 -23 -20 -29 -4 -5 -24 -19 -44 -29 -21
-11 -38 -22 -38 -26 0 -13 -46 -57 -88 -85 -23 -15 -42 -32 -42 -36 0 -5 -7
-9 -15 -9 -8 0 -23 -8 -33 -17 -9 -10 -30 -24 -45 -30 -15 -7 -27 -17 -27 -21
0 -10 -120 -72 -139 -72 -6 0 -19 -8 -29 -17 -10 -10 -35 -27 -55 -37 -20 -11
-37 -23 -37 -28 0 -4 -8 -8 -17 -8 -9 0 -35 -9 -57 -19 -63 -30 -149 -61 -169
-61 -11 0 -34 -7 -53 -16 -58 -28 -57 -81 1 -108 30 -15 57 -16 202 -9 139 7
704 2 652 -5 -8 -1 -25 -11 -37 -22 -12 -11 -25 -20 -30 -20 -4 0 -17 -8 -28
-18 -10 -9 -31 -23 -46 -31 -15 -8 -30 -22 -33 -32 -3 -9 -16 -20 -28 -23 -12
-3 -31 -13 -42 -23 -11 -10 -32 -24 -47 -32 -15 -8 -30 -22 -33 -31 -3 -9 -17
-23 -30 -30 -14 -7 -25 -17 -25 -22 0 -4 -6 -8 -13 -8 -7 0 -23 -9 -35 -20
-12 -11 -25 -20 -30 -20 -5 0 -20 -10 -33 -22 -14 -13 -37 -29 -52 -35 -15 -7
-27 -17 -27 -23 0 -5 -7 -10 -15 -10 -8 0 -23 -8 -33 -18 -19 -18 -63 -41
-125 -66 -20 -8 -37 -20 -37 -25 0 -6 -7 -11 -15 -11 -8 0 -23 -8 -33 -18 -10
-9 -34 -24 -53 -34 -78 -38 -148 -68 -158 -68 -14 0 -61 -45 -61 -59 0 -18 32
-48 63 -60 40 -15 111 -14 152 3 18 8 43 12 54 9 11 -3 37 1 58 8 21 7 70 12
109 10 48 -2 83 3 110 14 26 10 51 14 76 10 28 -5 50 -1 81 14 35 17 68 22
168 25 121 5 217 15 309 35 25 5 105 13 178 17 131 7 132 7 132 -15 0 -11 -4
-21 -10 -21 -5 0 -10 -16 -10 -35 0 -19 5 -35 10 -35 6 0 10 -13 10 -29 0 -16
7 -36 15 -45 17 -17 20 -46 5 -46 -16 0 -12 -50 5 -66 8 -9 15 -33 15 -55 0
-23 7 -47 15 -55 9 -9 15 -34 15 -60 0 -24 5 -44 10 -44 6 0 10 -9 10 -20 0
-11 -4 -20 -10 -20 -6 0 -10 -92 -10 -255 0 -231 2 -258 18 -275 28 -30 67
-40 158 -40 65 0 93 -5 121 -20 64 -34 104 -25 171 38 36 34 42 45 42 81 0 22
-4 41 -10 41 -5 0 -10 7 -10 15 0 8 5 15 10 15 6 0 10 28 10 65 0 37 -4 65
-10 65 -15 0 -12 29 4 46 12 12 15 83 15 441 1 234 3 428 5 430 2 3 85 -3 184
-11 215 -19 617 -22 659 -4 18 7 86 10 193 9 166 -2 405 13 470 29 58 15 78
41 78 100 0 60 -21 86 -77 96 -20 4 -40 10 -46 14 -5 4 -39 18 -75 31 -36 12
-76 30 -90 39 -14 9 -41 23 -60 30 -19 7 -55 22 -80 33 -24 11 -73 24 -107 30
-44 8 -65 16 -68 28 -7 23 -65 49 -107 49 -22 0 -41 8 -57 25 -13 14 -28 25
-34 25 -6 0 -30 9 -54 20 -24 11 -64 30 -90 42 -27 12 -57 30 -67 40 -11 10
-24 18 -30 18 -19 0 -268 120 -278 135 -11 15 -5 16 48 4 27 -5 81 -14 119
-19 39 -4 122 -16 185 -26 142 -21 178 -16 231 35 21 21 39 44 39 51 0 16 -47
60 -63 60 -7 0 -28 9 -48 19 -20 11 -55 24 -77 31 -23 6 -42 15 -42 20 0 6
-20 19 -45 31 -25 12 -45 25 -45 31 0 5 -15 15 -33 23 -18 7 -44 25 -59 38
-15 14 -41 28 -57 32 -17 4 -51 26 -76 51 -25 24 -51 44 -57 44 -17 0 -101 43
-120 63 -10 9 -25 17 -33 17 -8 0 -15 5 -15 10 0 12 22 13 316 10 201 -2 237
0 268 15 38 18 53 48 42 83 -6 18 -195 122 -221 122 -6 0 -25 14 -43 30 -18
17 -39 30 -45 30 -7 0 -30 16 -51 35 -22 19 -44 35 -48 35 -5 0 -19 9 -31 20
-12 12 -32 23 -44 26 -13 4 -23 10 -23 15 0 11 -70 79 -82 79 -10 0 -94 85
-122 124 -11 14 -29 29 -42 32 -13 3 -26 14 -29 23 -3 10 -18 24 -33 32 -29
15 -92 75 -92 88 0 4 -12 14 -27 22 -34 17 -63 47 -63 66 0 7 -4 13 -10 13 -5
0 -10 6 -10 13 0 8 -9 24 -20 37 -11 13 -20 32 -20 42 0 24 -28 54 -63 67 -34
13 -54 13 -87 0z"/>
</g>
</svg>
