<?xml version="1.0" standalone="no"?>
<!DOCTYPE svg PUBLIC "-//W3C//DTD SVG 20010904//EN"
 "http://www.w3.org/TR/2001/REC-SVG-20010904/DTD/svg10.dtd">
<svg version="1.0" xmlns="http://www.w3.org/2000/svg"
 width="256.000000pt" height="256.000000pt" viewBox="0 0 256.000000 256.000000"
 preserveAspectRatio="xMidYMid meet">
<metadata>
Created by potrace 1.13, written by Peter Selinger 2001-2015
</metadata>
<g transform="translate(0.000000,256.000000) scale(0.100000,-0.100000)"
fill="#000000" stroke="none">
<path d="M1226 2338 c-3 -7 -7 -29 -10 -49 -5 -27 -33 -66 -112 -158 -58 -66
-109 -121 -114 -121 -5 0 -22 -12 -37 -26 -15 -14 -47 -39 -70 -56 -47 -32
-55 -61 -22 -79 21 -11 95 -8 137 6 l24 8 -28 -53 c-15 -29 -80 -109 -145
-178 -132 -141 -148 -165 -132 -190 8 -13 28 -18 93 -20 48 -2 87 1 94 8 28
28 35 -7 11 -54 -8 -15 -15 -33 -15 -40 0 -17 -87 -145 -130 -192 -51 -55
-112 -152 -108 -172 7 -36 46 -43 196 -37 87 4 157 12 178 21 l34 14 2 -262 3
-263 176 -3 c152 -2 178 0 189 14 12 13 11 19 -1 37 -10 16 -16 70 -21 187 -4
91 -10 184 -14 208 l-6 43 106 -7 c154 -10 346 27 354 68 4 21 -46 48 -90 48
-49 1 -160 59 -176 93 -7 15 -17 27 -23 27 -5 0 -9 6 -9 14 0 7 -16 44 -35 81
-33 62 -63 160 -53 170 2 3 35 -7 74 -21 42 -15 85 -24 109 -22 35 3 40 6 40
28 0 20 -9 27 -55 45 -83 32 -186 160 -233 292 -8 21 -22 55 -31 75 l-16 37
58 -26 c75 -33 159 -43 168 -19 9 24 -10 40 -81 66 -33 12 -68 29 -77 37 -46
41 -98 170 -98 242 0 15 -12 50 -26 77 -15 27 -30 62 -33 79 -7 31 -38 47 -45
23z"/>
</g>
</svg>
