<?xml version="1.0" standalone="no"?>
<!DOCTYPE svg PUBLIC "-//W3C//DTD SVG 20010904//EN"
 "http://www.w3.org/TR/2001/REC-SVG-20010904/DTD/svg10.dtd">
<svg version="1.0" xmlns="http://www.w3.org/2000/svg"
 width="256.000000pt" height="256.000000pt" viewBox="0 0 256.000000 256.000000"
 preserveAspectRatio="xMidYMid meet">
<metadata>
Created by potrace 1.13, written by Peter Selinger 2001-2015
</metadata>
<g transform="translate(0.000000,256.000000) scale(0.100000,-0.100000)"
fill="#000000" stroke="none">
<path d="M1182 2468 c-6 -8 -17 -53 -22 -99 -21 -171 -42 -282 -96 -509 -40
-169 -42 -203 -14 -223 19 -13 19 -15 1 -103 -27 -128 -82 -347 -90 -359 -15
-21 -33 -94 -27 -110 3 -9 15 -19 26 -22 22 -6 21 -17 -5 -83 -13 -30 -35
-116 -78 -303 -17 -73 -8 -81 99 -88 114 -8 141 -16 148 -42 3 -12 6 -69 6
-128 0 -110 7 -129 45 -129 40 0 45 18 45 147 l0 123 38 0 c47 0 136 24 168
44 26 18 31 51 11 75 -7 9 -21 52 -31 96 -10 44 -26 105 -37 136 -23 66 -23
69 -5 69 7 0 19 7 26 15 14 17 9 48 -23 145 -19 56 -110 462 -105 464 40 15
43 23 42 109 -1 47 -9 107 -17 134 -8 26 -18 83 -22 125 -3 42 -15 123 -26
180 -12 57 -26 159 -33 227 -9 102 -13 121 -24 109z"/>
</g>
</svg>
