<?xml version="1.0" standalone="no"?>
<!DOCTYPE svg PUBLIC "-//W3C//DTD SVG 20010904//EN"
 "http://www.w3.org/TR/2001/REC-SVG-20010904/DTD/svg10.dtd">
<svg version="1.0" xmlns="http://www.w3.org/2000/svg"
 width="256.000000pt" height="256.000000pt" viewBox="0 0 256.000000 256.000000"
 preserveAspectRatio="xMidYMid meet">
<metadata>
Created by potrace 1.13, written by Peter Selinger 2001-2015
</metadata>
<g transform="translate(0.000000,256.000000) scale(0.100000,-0.100000)"
fill="#000000" stroke="none">
<path d="M1255 2441 c-8 -16 -22 -51 -31 -78 -9 -26 -33 -72 -53 -101 -53 -79
-120 -213 -121 -243 0 -15 11 -35 25 -49 52 -49 21 -163 -65 -245 -83 -78
-100 -110 -100 -184 0 -63 11 -104 55 -206 25 -59 17 -173 -18 -242 -15 -28
-31 -54 -37 -58 -6 -4 -24 -32 -41 -63 -16 -31 -40 -71 -52 -88 -20 -29 -56
-88 -65 -106 -2 -5 28 -8 66 -8 58 0 79 5 128 31 32 17 71 44 85 60 l26 29 40
-53 c39 -53 40 -55 47 -168 18 -294 32 -427 45 -443 16 -19 54 -21 69 -3 8 9
7 65 -3 197 -8 102 -18 223 -22 269 l-6 84 64 -6 c35 -4 83 -14 107 -22 57
-20 83 -12 144 45 l50 47 -23 26 c-53 58 -83 108 -109 182 -3 11 -19 45 -33
75 -40 82 -36 116 27 234 29 56 56 114 60 129 8 34 -15 107 -48 150 -48 63
-86 163 -86 225 0 54 3 61 36 93 l36 34 -5 86 c-5 82 -9 93 -71 217 -36 72
-70 133 -76 137 -5 3 -10 15 -10 26 0 28 -17 23 -35 -10z"/>
</g>
</svg>
