<?xml version="1.0" standalone="no"?>
<!DOCTYPE svg PUBLIC "-//W3C//DTD SVG 20010904//EN"
 "http://www.w3.org/TR/2001/REC-SVG-20010904/DTD/svg10.dtd">
<svg version="1.0" xmlns="http://www.w3.org/2000/svg"
 width="256.000000pt" height="256.000000pt" viewBox="0 0 256.000000 256.000000"
 preserveAspectRatio="xMidYMid meet">
<metadata>
Created by potrace 1.13, written by Peter Selinger 2001-2015
</metadata>
<g transform="translate(0.000000,256.000000) scale(0.100000,-0.100000)"
fill="#000000" stroke="none">
<path d="M1152 2488 c-7 -7 -12 -15 -12 -20 0 -14 -74 -171 -143 -306 -15 -29
-17 -39 -7 -58 10 -18 8 -32 -9 -80 -12 -31 -30 -69 -40 -83 -10 -14 -26 -47
-36 -74 -17 -46 -17 -48 0 -67 18 -20 17 -24 -23 -148 -58 -177 -58 -178 -33
-194 12 -7 21 -20 21 -28 0 -22 -35 -110 -76 -190 -19 -38 -34 -78 -32 -87 2
-12 32 -37 45 -38 1 0 -5 -27 -12 -59 -15 -65 -26 -94 -63 -175 -27 -59 -23
-83 17 -89 11 -2 21 -5 21 -6 0 -9 -36 -67 -65 -106 -53 -70 -79 -128 -66
-144 13 -15 59 -26 131 -31 25 -2 52 -6 61 -10 9 -3 40 -2 68 3 44 8 53 7 68
-10 16 -18 26 -19 83 -14 l65 7 2 -152 c0 -84 6 -156 11 -161 13 -13 67 -1 82
17 8 10 11 55 8 140 l-3 125 41 16 c38 14 44 14 102 -5 66 -23 127 -27 137
-11 4 7 38 8 96 4 78 -6 92 -5 109 11 26 23 26 51 0 67 -11 7 -20 19 -20 26 0
7 -4 20 -9 30 -5 9 -15 39 -21 66 -9 42 -9 51 6 68 16 17 16 24 5 71 -12 49
-33 117 -51 162 -4 11 -13 39 -19 63 -11 40 -10 44 10 61 l23 18 -24 64 c-21
57 -54 135 -82 196 -8 16 -6 27 6 44 23 33 20 70 -8 112 -34 49 -51 89 -82
185 l-26 83 21 15 c32 23 27 70 -19 158 l-39 78 27 23 27 24 -25 48 c-14 26
-37 66 -51 88 -15 22 -30 55 -33 72 -4 18 -12 35 -17 38 -5 4 -9 13 -9 22 0 9
-11 31 -25 49 -14 18 -25 38 -25 44 0 15 -46 60 -63 60 -7 0 -18 -5 -25 -12z"/>
</g>
</svg>
