<?xml version="1.0" standalone="no"?>
<!DOCTYPE svg PUBLIC "-//W3C//DTD SVG 20010904//EN"
 "http://www.w3.org/TR/2001/REC-SVG-20010904/DTD/svg10.dtd">
<svg version="1.0" xmlns="http://www.w3.org/2000/svg"
 width="256.000000pt" height="256.000000pt" viewBox="0 0 256.000000 256.000000"
 preserveAspectRatio="xMidYMid meet">
<metadata>
Created by potrace 1.13, written by Peter Selinger 2001-2015
</metadata>
<g transform="translate(0.000000,256.000000) scale(0.100000,-0.100000)"
fill="#000000" stroke="none">
<path d="M1227 2474 c-4 -4 -7 -15 -7 -24 0 -9 -11 -27 -24 -40 -14 -12 -28
-36 -32 -52 -3 -17 -14 -49 -25 -72 -10 -23 -27 -84 -38 -136 -37 -168 -57
-230 -117 -353 -45 -95 -38 -114 28 -77 24 12 51 30 61 38 9 8 20 13 23 10 8
-9 -21 -98 -51 -153 -96 -175 -114 -233 -115 -358 0 -74 21 -73 91 1 57 61 58
61 53 30 -3 -18 -10 -44 -14 -58 -14 -39 -67 -268 -80 -345 -6 -38 -16 -89
-21 -112 -12 -56 -11 -110 2 -118 5 -4 25 0 44 9 18 9 67 19 108 22 l76 7 5
-34 c3 -19 11 -86 17 -149 6 -63 15 -125 20 -138 5 -13 9 -47 9 -76 0 -81 15
-90 139 -83 54 3 109 10 121 17 20 11 22 17 15 53 -4 23 -10 100 -13 172 -6
103 -11 139 -28 173 l-21 42 84 0 c86 0 123 10 123 34 0 8 -7 20 -16 27 -9 7
-33 47 -54 89 -20 41 -49 97 -64 124 -14 27 -26 57 -26 66 0 9 -3 20 -7 24 -8
8 -30 68 -42 116 -5 19 -16 56 -24 82 l-15 47 24 -9 c13 -5 37 -16 54 -25 58
-30 86 -9 53 41 -18 28 -66 157 -83 222 -4 19 -16 42 -26 53 -10 11 -32 53
-50 94 -27 63 -30 73 -14 65 27 -15 70 -12 76 4 3 8 -1 25 -9 38 -11 17 -16
65 -20 178 -2 85 -9 169 -15 185 -6 17 -13 42 -16 57 -3 14 -25 50 -48 79 -36
45 -46 67 -59 134 -14 76 -31 100 -52 79z"/>
</g>
</svg>
