<?xml version="1.0" standalone="no"?>
<!DOCTYPE svg PUBLIC "-//W3C//DTD SVG 20010904//EN"
 "http://www.w3.org/TR/2001/REC-SVG-20010904/DTD/svg10.dtd">
<svg version="1.0" xmlns="http://www.w3.org/2000/svg"
 width="256.000000pt" height="256.000000pt" viewBox="0 0 256.000000 256.000000"
 preserveAspectRatio="xMidYMid meet">
<metadata>
Created by potrace 1.13, written by Peter Selinger 2001-2015
</metadata>
<g transform="translate(0.000000,256.000000) scale(0.100000,-0.100000)"
fill="#000000" stroke="none">
<path d="M1197 2504 c-4 -4 -7 -19 -7 -33 0 -14 -6 -37 -13 -51 -7 -14 -24
-59 -37 -100 -13 -41 -29 -84 -37 -95 -7 -11 -13 -25 -13 -33 0 -26 -91 -150
-175 -236 -50 -52 -85 -96 -83 -105 3 -13 18 -16 87 -16 l84 1 -5 -126 c-3
-69 -9 -134 -15 -145 -6 -11 -23 -60 -39 -110 -47 -149 -94 -223 -162 -252
-25 -10 -33 -19 -30 -36 3 -21 6 -22 131 -21 109 1 127 -1 122 -14 -3 -8 -12
-49 -21 -90 -9 -42 -22 -94 -29 -117 -28 -82 -85 -290 -85 -310 0 -11 -9 -26
-20 -33 -22 -13 -26 -37 -10 -47 6 -4 50 -2 98 4 48 6 129 12 180 15 88 3 92
3 92 -18 0 -11 7 -53 16 -91 9 -39 19 -113 23 -165 l6 -95 55 1 c30 1 115 7
189 13 166 14 174 19 168 106 -2 34 -18 97 -36 145 -18 47 -36 100 -40 117
l-9 32 137 3 136 3 -1 46 c-1 28 -12 65 -28 95 -14 27 -26 52 -26 57 0 4 -23
36 -50 71 -52 67 -70 101 -100 197 l-18 58 47 6 c163 21 169 28 88 108 -30 30
-66 72 -80 93 -13 22 -32 45 -41 53 -9 7 -16 17 -16 22 0 5 -11 27 -24 48 -22
34 -103 266 -121 345 -6 26 -4 28 17 21 47 -14 125 -17 147 -5 39 20 23 50
-48 90 -35 20 -71 47 -81 60 -26 36 -97 171 -105 200 -14 48 -78 175 -119 236
-23 33 -46 69 -52 80 -12 20 -35 29 -47 18z"/>
</g>
</svg>
