<?xml version="1.0" standalone="no"?>
<!DOCTYPE svg PUBLIC "-//W3C//DTD SVG 20010904//EN"
 "http://www.w3.org/TR/2001/REC-SVG-20010904/DTD/svg10.dtd">
<svg version="1.0" xmlns="http://www.w3.org/2000/svg"
 width="256.000000pt" height="256.000000pt" viewBox="0 0 256.000000 256.000000"
 preserveAspectRatio="xMidYMid meet">
<metadata>
Created by potrace 1.13, written by Peter Selinger 2001-2015
</metadata>
<g transform="translate(0.000000,256.000000) scale(0.100000,-0.100000)"
fill="#000000" stroke="none">
<path d="M1200 2097 c-25 -44 -48 -91 -52 -104 -14 -50 -106 -173 -207 -276
l-106 -108 43 7 c47 7 72 -6 72 -38 0 -19 -55 -122 -111 -208 -16 -25 -31 -52
-35 -60 -32 -78 -74 -144 -147 -230 l-58 -69 72 -3 c113 -5 118 -36 22 -159
-32 -41 -66 -85 -75 -99 -9 -14 -48 -60 -87 -103 -39 -43 -71 -81 -71 -86 0
-4 17 -15 37 -24 30 -12 96 -17 308 -22 328 -9 324 -9 350 15 25 24 58 26 75
5 12 -15 9 -239 -6 -333 -5 -34 -2 -47 11 -62 24 -27 41 -25 62 6 13 21 17 58
21 193 4 147 7 169 25 195 20 29 20 29 103 23 46 -3 96 -13 111 -21 42 -21
200 -31 262 -16 28 6 51 14 51 17 0 3 -22 33 -49 68 -27 34 -59 80 -70 101
-12 22 -25 46 -30 54 -5 8 -20 42 -34 75 -13 33 -32 77 -41 99 -26 60 -31 119
-12 135 16 13 66 11 125 -5 20 -6 22 -4 15 9 -12 21 -123 145 -197 220 -50 51
-81 91 -122 156 -5 9 -20 30 -32 47 -28 40 -39 99 -22 120 10 13 25 14 81 9
37 -4 68 -4 68 0 0 4 -31 37 -69 73 -95 91 -141 162 -171 262 -7 25 -19 64
-26 88 -8 23 -17 60 -20 82 -4 22 -9 42 -13 44 -3 2 -26 -32 -51 -77z"/>
</g>
</svg>
