<?xml version="1.0" standalone="no"?>
<!DOCTYPE svg PUBLIC "-//W3C//DTD SVG 20010904//EN"
 "http://www.w3.org/TR/2001/REC-SVG-20010904/DTD/svg10.dtd">
<svg version="1.0" xmlns="http://www.w3.org/2000/svg"
 width="256.000000pt" height="256.000000pt" viewBox="0 0 256.000000 256.000000"
 preserveAspectRatio="xMidYMid meet">
<metadata>
Created by potrace 1.13, written by Peter Selinger 2001-2015
</metadata>
<g transform="translate(0.000000,256.000000) scale(0.100000,-0.100000)"
fill="#000000" stroke="none">
<path d="M1316 2505 c-20 -14 -40 -25 -45 -25 -4 0 -19 -13 -34 -28 -24 -25
-144 -92 -190 -106 -24 -7 -33 -35 -18 -57 9 -15 8 -27 -3 -53 -26 -63 -114
-122 -226 -149 -62 -16 -81 -36 -60 -62 8 -10 22 -20 32 -24 14 -5 9 -13 -31
-42 -48 -36 -81 -47 -256 -90 -133 -32 -138 -34 -148 -51 -8 -12 -7 -21 3 -33
11 -14 24 -16 63 -11 l49 7 -19 -25 c-18 -24 -175 -140 -222 -164 -63 -31
-105 -59 -115 -74 -27 -43 56 -65 260 -70 89 -2 123 1 186 19 78 23 87 23 148
-5 27 -13 67 -17 174 -17 l139 0 -7 -99 c-4 -68 -3 -103 5 -112 9 -11 77 -14
359 -14 333 0 348 1 365 20 18 20 18 42 -1 144 l-7 39 34 -6 c117 -21 185 -28
208 -22 14 3 49 22 78 42 l52 36 98 -16 c182 -30 235 -32 262 -10 30 25 23 47
-21 68 -97 45 -186 113 -224 170 l-16 25 40 0 c24 0 45 6 53 16 22 27 -2 47
-72 61 -60 12 -68 17 -129 80 -57 60 -62 68 -43 71 50 7 55 54 8 72 -100 38
-179 87 -239 148 -62 63 -64 67 -49 85 26 28 8 45 -84 81 -76 30 -183 93 -183
108 0 11 -110 98 -125 98 -6 0 -29 -11 -49 -25z"/>
</g>
</svg>
