<?xml version="1.0" standalone="no"?>
<!DOCTYPE svg PUBLIC "-//W3C//DTD SVG 20010904//EN"
 "http://www.w3.org/TR/2001/REC-SVG-20010904/DTD/svg10.dtd">
<svg version="1.0" xmlns="http://www.w3.org/2000/svg"
 width="352.000000pt" height="288.000000pt" viewBox="0 0 352.000000 288.000000"
 preserveAspectRatio="xMidYMid meet">
<metadata>
Created by potrace 1.13, written by Peter Selinger 2001-2015
</metadata>
<g transform="translate(0.000000,288.000000) scale(0.100000,-0.100000)"
fill="#000000" stroke="none">
<path d="M2475 1319 c-22 -4 -59 -8 -82 -8 -49 -1 -73 -21 -73 -61 0 -26 -4
-29 -52 -41 -29 -7 -124 -15 -210 -18 -86 -3 -158 -8 -160 -11 -22 -27 -48
-97 -43 -117 5 -22 10 -23 85 -23 78 0 80 -1 80 -25 0 -20 -7 -26 -39 -35 -48
-13 -55 -29 -41 -97 13 -60 27 -74 47 -47 13 18 15 18 69 -1 53 -18 58 -18 86
-2 42 24 110 22 133 -3 14 -15 31 -20 71 -20 52 0 60 4 89 45 11 17 27 20 109
23 l96 4 29 -31 c16 -17 36 -31 45 -31 27 0 56 38 56 73 0 21 7 36 20 45 35
21 19 112 -20 112 -4 0 -11 11 -14 25 -4 16 -16 27 -34 31 -59 13 -62 15 -62
45 0 18 -7 33 -20 41 -16 10 -20 24 -20 63 0 28 -5 56 -12 63 -13 13 -72 14
-133 1z"/>
</g>
</svg>
