<?xml version="1.0" standalone="no"?>
<!DOCTYPE svg PUBLIC "-//W3C//DTD SVG 20010904//EN"
 "http://www.w3.org/TR/2001/REC-SVG-20010904/DTD/svg10.dtd">
<svg version="1.0" xmlns="http://www.w3.org/2000/svg"
 width="352.000000pt" height="288.000000pt" viewBox="0 0 352.000000 288.000000"
 preserveAspectRatio="xMidYMid meet">
<metadata>
Created by potrace 1.13, written by Peter Selinger 2001-2015
</metadata>
<g transform="translate(0.000000,288.000000) scale(0.100000,-0.100000)"
fill="#000000" stroke="none">
<path d="M2677 1327 c-16 -27 -40 -52 -53 -57 -26 -10 -147 -37 -309 -70 -60
-12 -117 -25 -125 -29 -20 -10 -25 -74 -8 -89 8 -6 38 -12 68 -14 47 -3 55 -6
58 -24 3 -18 -5 -23 -42 -33 -53 -13 -66 -32 -66 -93 0 -72 13 -81 111 -79 66
1 90 6 111 21 32 24 80 26 111 6 14 -10 64 -17 139 -22 96 -6 121 -4 140 8 29
19 106 39 176 45 47 4 52 3 52 -15 0 -34 28 -54 64 -46 48 10 56 22 56 80 0
52 1 53 31 56 18 2 37 11 43 21 9 14 4 23 -32 55 -23 21 -42 44 -42 53 0 31
-30 59 -65 59 -27 0 -37 6 -54 35 -11 19 -25 35 -31 35 -5 0 -10 7 -10 15 0 8
-9 23 -20 32 -12 11 -20 30 -20 50 0 17 -4 34 -10 38 -5 3 -62 7 -126 8 l-117
2 -30 -48z"/>
</g>
</svg>
