<?xml version="1.0" standalone="no"?>
<!DOCTYPE svg PUBLIC "-//W3C//DTD SVG 20010904//EN"
 "http://www.w3.org/TR/2001/REC-SVG-20010904/DTD/svg10.dtd">
<svg version="1.0" xmlns="http://www.w3.org/2000/svg"
 width="352.000000pt" height="288.000000pt" viewBox="0 0 352.000000 288.000000"
 preserveAspectRatio="xMidYMid meet">
<metadata>
Created by potrace 1.13, written by Peter Selinger 2001-2015
</metadata>
<g transform="translate(0.000000,288.000000) scale(0.100000,-0.100000)"
fill="#000000" stroke="none">
<path d="M2543 1354 c-93 -13 -151 -34 -158 -57 -2 -7 -6 -24 -9 -39 -6 -28
-7 -28 -85 -28 -114 0 -224 -23 -279 -59 -68 -44 -72 -49 -72 -84 0 -50 13
-57 97 -50 l73 6 0 -31 c0 -28 -4 -32 -37 -38 -21 -3 -48 -12 -59 -20 -19 -12
-21 -18 -13 -60 5 -26 14 -53 20 -60 16 -19 130 -18 176 1 43 18 193 21 211 3
8 -8 32 -8 98 1 50 7 124 9 178 6 81 -6 95 -4 124 14 23 15 32 28 32 48 0 21
8 33 30 45 39 22 39 57 1 100 -15 18 -31 43 -35 55 -5 14 -18 25 -34 29 -51
10 -72 23 -72 44 0 11 -11 27 -24 35 -18 12 -25 28 -31 70 -3 30 -13 62 -21
70 -9 8 -16 14 -17 14 -1 -1 -44 -8 -94 -15z"/>
</g>
</svg>
