<?xml version="1.0" standalone="no"?>
<!DOCTYPE svg PUBLIC "-//W3C//DTD SVG 20010904//EN"
 "http://www.w3.org/TR/2001/REC-SVG-20010904/DTD/svg10.dtd">
<svg version="1.0" xmlns="http://www.w3.org/2000/svg"
 width="352.000000pt" height="288.000000pt" viewBox="0 0 352.000000 288.000000"
 preserveAspectRatio="xMidYMid meet">
<metadata>
Created by potrace 1.13, written by Peter Selinger 2001-2015
</metadata>
<g transform="translate(0.000000,288.000000) scale(0.100000,-0.100000)"
fill="#000000" stroke="none">
<path d="M2629 1351 c-91 -6 -97 -8 -122 -36 -15 -16 -29 -37 -32 -46 -5 -13
-25 -18 -98 -23 -222 -16 -281 -26 -304 -49 -12 -12 -29 -28 -38 -35 -18 -15
-20 -83 -3 -100 7 -7 40 -12 80 -12 61 0 68 -2 68 -20 0 -11 -7 -20 -15 -20
-30 0 -86 -35 -91 -57 -8 -31 3 -88 21 -103 7 -6 53 -14 102 -17 76 -5 91 -3
106 12 15 14 30 16 100 11 113 -8 198 -6 218 5 10 5 58 9 108 9 78 0 94 -3
111 -20 11 -11 29 -20 41 -20 24 0 79 52 79 75 0 9 13 21 29 26 36 13 47 36
27 58 -8 9 -16 30 -18 46 -2 20 -11 33 -25 40 -13 5 -23 17 -23 25 0 23 -20
40 -47 40 -18 0 -23 6 -23 24 0 28 -16 43 -50 48 -23 3 -25 8 -28 63 -4 68
-14 86 -51 83 -14 -1 -69 -4 -122 -7z"/>
</g>
</svg>
