<?xml version="1.0" standalone="no"?>
<!DOCTYPE svg PUBLIC "-//W3C//DTD SVG 20010904//EN"
 "http://www.w3.org/TR/2001/REC-SVG-20010904/DTD/svg10.dtd">
<svg version="1.0" xmlns="http://www.w3.org/2000/svg"
 width="352.000000pt" height="288.000000pt" viewBox="0 0 352.000000 288.000000"
 preserveAspectRatio="xMidYMid meet">
<metadata>
Created by potrace 1.13, written by Peter Selinger 2001-2015
</metadata>
<g transform="translate(0.000000,288.000000) scale(0.100000,-0.100000)"
fill="#000000" stroke="none">
<path d="M2876 1405 c-81 -24 -92 -32 -102 -75 -13 -51 -30 -60 -121 -60 -118
0 -274 -38 -360 -87 -50 -29 -55 -40 -38 -80 17 -40 29 -47 95 -53 71 -6 75
-29 8 -48 -54 -15 -61 -29 -56 -103 l3 -44 75 -9 c56 -6 97 -4 165 8 118 21
228 21 245 1 8 -10 31 -15 67 -15 45 0 58 4 80 26 22 22 30 25 45 15 22 -14
54 -7 62 14 4 11 21 15 61 15 54 0 55 -1 55 -29 0 -46 21 -56 79 -36 54 18 61
28 61 85 0 29 6 41 26 54 33 22 31 76 -3 91 -13 5 -23 13 -23 17 0 14 -65 68
-82 68 -12 0 -18 8 -18 23 0 27 -17 47 -40 47 -33 0 -52 36 -57 107 -3 37 -10
74 -16 81 -15 19 -123 13 -211 -13z"/>
</g>
</svg>
