<?xml version="1.0" standalone="no"?>
<!DOCTYPE svg PUBLIC "-//W3C//DTD SVG 20010904//EN"
 "http://www.w3.org/TR/2001/REC-SVG-20010904/DTD/svg10.dtd">
<svg version="1.0" xmlns="http://www.w3.org/2000/svg"
 width="352.000000pt" height="288.000000pt" viewBox="0 0 352.000000 288.000000"
 preserveAspectRatio="xMidYMid meet">
<metadata>
Created by potrace 1.13, written by Peter Selinger 2001-2015
</metadata>
<g transform="translate(0.000000,288.000000) scale(0.100000,-0.100000)"
fill="#000000" stroke="none">
<path d="M2580 1345 c-7 -8 -18 -32 -25 -52 -16 -47 -30 -51 -210 -59 -151 -6
-230 -24 -240 -53 -3 -10 -14 -26 -25 -36 -24 -22 -26 -53 -5 -82 13 -19 22
-21 75 -16 59 6 60 5 60 -19 0 -22 -6 -26 -39 -32 -48 -7 -71 -36 -71 -88 0
-62 16 -70 139 -64 150 8 170 8 317 1 115 -6 132 -5 147 10 12 11 41 18 91 22
73 6 73 5 80 -21 6 -24 10 -26 64 -26 32 0 63 5 70 12 7 7 12 31 12 54 0 37 4
45 27 56 35 17 40 42 14 65 -13 11 -21 29 -21 49 0 35 -12 48 -53 58 -35 8
-92 64 -100 98 -4 15 -16 29 -26 33 -10 3 -22 18 -26 33 -3 15 -13 37 -21 50
-13 20 -22 22 -118 22 -80 0 -106 -3 -116 -15z"/>
</g>
</svg>
