<?xml version="1.0" standalone="no"?>
<!DOCTYPE svg PUBLIC "-//W3C//DTD SVG 20010904//EN"
 "http://www.w3.org/TR/2001/REC-SVG-20010904/DTD/svg10.dtd">
<svg version="1.0" xmlns="http://www.w3.org/2000/svg"
 width="352.000000pt" height="288.000000pt" viewBox="0 0 352.000000 288.000000"
 preserveAspectRatio="xMidYMid meet">
<metadata>
Created by potrace 1.13, written by Peter Selinger 2001-2015
</metadata>
<g transform="translate(0.000000,288.000000) scale(0.100000,-0.100000)"
fill="#000000" stroke="none">
<path d="M2547 1337 c-15 -13 -36 -45 -46 -73 l-19 -49 -188 -3 c-187 -2 -189
-3 -212 -27 -12 -14 -27 -25 -31 -25 -26 0 -16 -74 12 -92 7 -4 40 -8 75 -8
l63 0 -3 -37 -3 -37 -62 -11 c-35 -7 -66 -14 -69 -18 -11 -11 5 -51 33 -84 26
-30 34 -33 106 -39 l77 -7 34 37 35 36 101 0 c96 0 103 -1 121 -24 11 -14 28
-28 39 -31 26 -8 97 12 104 30 7 20 161 22 173 3 34 -53 83 -58 107 -10 22 45
29 127 11 142 -8 7 -15 24 -15 39 0 35 -43 97 -80 116 -17 9 -30 20 -30 26 0
6 -18 27 -40 46 -31 28 -40 44 -40 68 0 49 -13 55 -125 55 -89 -1 -103 -3
-128 -23z"/>
</g>
</svg>
