<?xml version="1.0" standalone="no"?>
<!DOCTYPE svg PUBLIC "-//W3C//DTD SVG 20010904//EN"
 "http://www.w3.org/TR/2001/REC-SVG-20010904/DTD/svg10.dtd">
<svg version="1.0" xmlns="http://www.w3.org/2000/svg"
 width="352.000000pt" height="288.000000pt" viewBox="0 0 352.000000 288.000000"
 preserveAspectRatio="xMidYMid meet">
<metadata>
Created by potrace 1.13, written by Peter Selinger 2001-2015
</metadata>
<g transform="translate(0.000000,288.000000) scale(0.100000,-0.100000)"
fill="#000000" stroke="none">
<path d="M2864 1392 c-6 -4 -16 -17 -23 -29 -13 -26 -106 -73 -144 -73 -14 0
-28 -4 -32 -9 -3 -6 -13 -10 -23 -10 -98 -2 -264 -21 -294 -34 -44 -19 -58
-42 -58 -100 0 -61 15 -71 90 -64 55 6 60 5 60 -13 0 -13 -12 -25 -35 -34 -42
-18 -75 -69 -75 -116 0 -41 7 -53 37 -69 36 -18 87 -13 127 14 44 30 105 33
211 10 39 -8 106 -18 150 -21 73 -6 83 -4 115 18 21 14 38 36 44 56 l9 33 21
-26 c26 -32 91 -44 138 -24 27 11 32 11 36 -1 9 -27 51 -60 76 -60 33 0 56 34
56 82 0 30 4 38 18 38 29 0 42 21 42 70 0 55 -13 72 -45 60 -19 -7 -26 -4 -39
15 -9 13 -28 25 -42 27 -23 2 -29 11 -41 51 -11 36 -23 53 -53 73 -22 15 -41
34 -44 43 -2 9 -7 29 -11 46 -12 52 -18 55 -144 55 -64 0 -121 -4 -127 -8z"/>
</g>
</svg>
