<?xml version="1.0" standalone="no"?>
<!DOCTYPE svg PUBLIC "-//W3C//DTD SVG 20010904//EN"
 "http://www.w3.org/TR/2001/REC-SVG-20010904/DTD/svg10.dtd">
<svg version="1.0" xmlns="http://www.w3.org/2000/svg"
 width="352.000000pt" height="288.000000pt" viewBox="0 0 352.000000 288.000000"
 preserveAspectRatio="xMidYMid meet">
<metadata>
Created by potrace 1.13, written by Peter Selinger 2001-2015
</metadata>
<g transform="translate(0.000000,288.000000) scale(0.100000,-0.100000)"
fill="#000000" stroke="none">
<path d="M2792 1378 c-7 -7 -12 -17 -12 -23 0 -6 -10 -21 -22 -33 -13 -11 -29
-28 -36 -36 -10 -13 -37 -16 -140 -16 -116 0 -132 -2 -182 -26 -30 -14 -76
-32 -102 -40 -52 -16 -78 -44 -78 -84 0 -39 18 -50 82 -50 40 0 58 -4 58 -12
0 -22 -14 -35 -42 -42 -35 -8 -54 -64 -44 -130 11 -69 46 -95 81 -60 13 13 21
14 44 4 24 -10 35 -8 69 9 22 11 43 25 47 31 3 5 28 10 54 10 41 0 50 -4 69
-30 22 -29 26 -30 98 -30 93 0 141 18 157 60 12 33 31 37 61 15 11 -8 34 -15
51 -15 17 0 40 7 51 15 10 8 33 14 49 14 24 1 33 -6 45 -32 16 -34 36 -43 76
-33 29 8 54 58 54 108 0 25 6 36 22 43 13 6 27 22 32 37 14 41 -6 58 -70 58
-51 0 -56 2 -74 33 -10 17 -25 39 -32 47 -7 8 -18 23 -23 35 -6 11 -25 27 -42
35 -31 14 -33 18 -33 67 0 77 -10 83 -144 83 -74 0 -116 -4 -124 -12z"/>
</g>
</svg>
