<?xml version="1.0" standalone="no"?>
<!DOCTYPE svg PUBLIC "-//W3C//DTD SVG 20010904//EN"
 "http://www.w3.org/TR/2001/REC-SVG-20010904/DTD/svg10.dtd">
<svg version="1.0" xmlns="http://www.w3.org/2000/svg"
 width="352.000000pt" height="288.000000pt" viewBox="0 0 352.000000 288.000000"
 preserveAspectRatio="xMidYMid meet">
<metadata>
Created by potrace 1.13, written by Peter Selinger 2001-2015
</metadata>
<g transform="translate(0.000000,288.000000) scale(0.100000,-0.100000)"
fill="#000000" stroke="none">
<path d="M2757 1389 c-10 -13 -17 -33 -17 -44 0 -11 -9 -39 -20 -60 l-20 -40
-83 -6 c-45 -3 -143 -11 -217 -18 -123 -11 -137 -15 -162 -39 -30 -28 -38 -78
-16 -100 7 -7 39 -12 75 -12 61 0 63 -1 63 -25 0 -23 -3 -25 -48 -25 -26 0
-53 -5 -60 -12 -32 -32 7 -159 55 -181 17 -8 33 -8 56 0 18 6 51 14 74 18 22
4 49 13 60 20 26 21 113 18 164 -4 42 -18 91 -25 152 -22 18 0 39 13 57 33 26
29 32 30 55 20 36 -17 53 -15 72 8 11 12 30 20 50 20 28 0 33 -4 33 -23 0 -33
19 -47 62 -47 53 0 81 29 72 75 -6 33 -5 35 20 35 47 0 86 91 51 120 -8 7 -15
22 -15 34 0 34 -20 46 -74 46 -57 0 -64 4 -89 43 -10 15 -24 27 -32 27 -8 0
-15 6 -15 14 0 7 -7 19 -15 26 -9 8 -15 30 -15 60 0 27 -6 52 -13 59 -8 6 -65
14 -129 17 -113 7 -115 6 -131 -17z"/>
</g>
</svg>
