<?xml version="1.0" standalone="no"?>
<!DOCTYPE svg PUBLIC "-//W3C//DTD SVG 20010904//EN"
 "http://www.w3.org/TR/2001/REC-SVG-20010904/DTD/svg10.dtd">
<svg version="1.0" xmlns="http://www.w3.org/2000/svg"
 width="352.000000pt" height="288.000000pt" viewBox="0 0 352.000000 288.000000"
 preserveAspectRatio="xMidYMid meet">
<metadata>
Created by potrace 1.13, written by Peter Selinger 2001-2015
</metadata>
<g transform="translate(0.000000,288.000000) scale(0.100000,-0.100000)"
fill="#000000" stroke="none">
<path d="M2845 1400 c-55 -4 -110 -10 -121 -14 -11 -3 -33 -32 -49 -65 -29
-56 -32 -59 -82 -70 -28 -7 -111 -18 -185 -24 -143 -14 -170 -25 -217 -87 -32
-43 -9 -60 80 -60 67 0 69 -1 69 -25 0 -15 -6 -25 -14 -25 -20 0 -110 -41
-118 -54 -14 -20 -9 -123 6 -135 16 -14 161 -10 301 8 195 24 187 24 238 2 61
-26 59 -26 96 5 22 18 40 24 63 22 26 -2 35 2 43 20 8 18 18 22 57 22 46 0 47
-1 58 -39 11 -41 24 -51 69 -51 41 0 50 15 44 79 l-5 56 33 10 c20 6 40 21 49
38 14 27 14 29 -11 50 -14 12 -29 30 -32 40 -4 9 -15 20 -24 24 -10 4 -24 15
-31 25 -7 10 -19 18 -27 18 -31 0 -62 23 -74 55 -6 19 -21 37 -31 40 -17 5
-20 16 -20 64 0 61 -12 82 -44 80 -12 -1 -66 -5 -121 -9z"/>
</g>
</svg>
