<?xml version="1.0" standalone="no"?>
<!DOCTYPE svg PUBLIC "-//W3C//DTD SVG 20010904//EN"
 "http://www.w3.org/TR/2001/REC-SVG-20010904/DTD/svg10.dtd">
<svg version="1.0" xmlns="http://www.w3.org/2000/svg"
 width="352.000000pt" height="288.000000pt" viewBox="0 0 352.000000 288.000000"
 preserveAspectRatio="xMidYMid meet">
<metadata>
Created by potrace 1.13, written by Peter Selinger 2001-2015
</metadata>
<g transform="translate(0.000000,288.000000) scale(0.100000,-0.100000)"
fill="#000000" stroke="none">
<path d="M2977 1401 c-54 -8 -64 -18 -73 -73 l-7 -38 -116 0 c-188 0 -346 -35
-358 -80 -3 -9 -16 -23 -29 -29 -33 -15 -62 -75 -45 -95 9 -11 20 -12 44 -5
18 5 51 9 75 9 43 0 43 0 40 -32 -3 -28 -9 -35 -47 -49 -57 -21 -71 -41 -71
-104 0 -79 17 -95 98 -95 74 0 142 15 142 32 0 7 63 9 207 6 l206 -4 16 28
c18 32 54 37 82 12 26 -24 65 -11 77 26 9 24 17 30 41 30 27 0 31 -4 31 -25 0
-14 11 -37 25 -51 22 -22 31 -24 73 -18 64 9 72 18 72 78 0 41 4 54 21 64 16
11 20 21 17 60 -3 41 -7 49 -33 61 -16 8 -36 23 -43 33 -7 10 -25 18 -41 18
-21 0 -31 7 -42 32 -10 22 -24 35 -45 40 -37 9 -53 40 -46 91 3 24 -1 46 -12
62 -16 24 -20 25 -114 24 -53 -1 -119 -5 -145 -8z"/>
</g>
</svg>
