<?xml version="1.0" standalone="no"?>
<!DOCTYPE svg PUBLIC "-//W3C//DTD SVG 20010904//EN"
 "http://www.w3.org/TR/2001/REC-SVG-20010904/DTD/svg10.dtd">
<svg version="1.0" xmlns="http://www.w3.org/2000/svg"
 width="352.000000pt" height="288.000000pt" viewBox="0 0 352.000000 288.000000"
 preserveAspectRatio="xMidYMid meet">
<metadata>
Created by potrace 1.13, written by Peter Selinger 2001-2015
</metadata>
<g transform="translate(0.000000,288.000000) scale(0.100000,-0.100000)"
fill="#000000" stroke="none">
<path d="M2712 1393 c-61 -5 -76 -21 -86 -94 l-7 -46 -137 -6 c-144 -5 -196
-17 -224 -48 -9 -11 -25 -19 -36 -19 -28 0 -75 -19 -84 -33 -12 -19 -9 -65 4
-73 7 -4 44 -8 83 -8 65 -1 70 -3 73 -23 3 -19 -1 -23 -25 -23 -39 0 -95 -17
-105 -32 -15 -25 -7 -73 21 -123 31 -56 19 -53 156 -34 148 20 280 22 314 5
47 -25 111 -20 185 14 36 16 66 34 66 40 0 5 19 10 43 10 34 0 44 -4 52 -22 8
-19 19 -24 61 -26 56 -3 84 13 84 49 0 14 7 19 28 19 38 0 52 17 52 61 0 42
-21 69 -52 69 -20 0 -52 28 -74 66 -6 11 -25 21 -42 24 -17 3 -40 17 -51 32
-24 31 -61 138 -61 177 0 15 -5 32 -12 39 -12 12 -100 13 -226 5z"/>
</g>
</svg>
