<?xml version="1.0" standalone="no"?>
<!DOCTYPE svg PUBLIC "-//W3C//DTD SVG 20010904//EN"
 "http://www.w3.org/TR/2001/REC-SVG-20010904/DTD/svg10.dtd">
<svg version="1.0" xmlns="http://www.w3.org/2000/svg"
 width="352.000000pt" height="288.000000pt" viewBox="0 0 352.000000 288.000000"
 preserveAspectRatio="xMidYMid meet">
<metadata>
Created by potrace 1.13, written by Peter Selinger 2001-2015
</metadata>
<g transform="translate(0.000000,288.000000) scale(0.100000,-0.100000)"
fill="#000000" stroke="none">
<path d="M2567 1375 c-9 -8 -18 -28 -22 -45 -5 -21 -14 -32 -31 -36 -13 -3
-28 -13 -33 -22 -5 -10 -25 -16 -52 -17 -24 -1 -71 -7 -104 -14 -33 -6 -89
-11 -125 -11 -36 0 -70 -4 -76 -8 -32 -21 -47 -115 -22 -140 7 -7 36 -12 65
-12 45 0 53 -3 53 -19 0 -12 -9 -21 -25 -25 -47 -12 -65 -40 -65 -104 0 -36 6
-66 16 -80 16 -23 43 -29 60 -12 8 8 20 6 40 -6 35 -20 76 -13 102 16 15 18
29 20 144 20 l127 0 21 -30 c12 -16 26 -30 32 -30 6 0 26 16 44 36 33 34 37
35 111 37 74 2 77 1 83 -23 13 -53 86 -64 130 -20 15 15 20 34 20 75 0 48 2
55 20 55 25 0 60 34 60 59 0 27 -27 51 -57 51 -14 0 -36 9 -50 20 -14 11 -31
20 -38 20 -6 0 -17 18 -24 40 -8 27 -21 45 -37 52 -30 14 -54 56 -54 96 0 65
-57 92 -202 92 -72 0 -100 -4 -111 -15z"/>
</g>
</svg>
