<?xml version="1.0" standalone="no"?>
<!DOCTYPE svg PUBLIC "-//W3C//DTD SVG 20010904//EN"
 "http://www.w3.org/TR/2001/REC-SVG-20010904/DTD/svg10.dtd">
<svg version="1.0" xmlns="http://www.w3.org/2000/svg"
 width="352.000000pt" height="288.000000pt" viewBox="0 0 352.000000 288.000000"
 preserveAspectRatio="xMidYMid meet">
<metadata>
Created by potrace 1.13, written by Peter Selinger 2001-2015
</metadata>
<g transform="translate(0.000000,288.000000) scale(0.100000,-0.100000)"
fill="#000000" stroke="none">
<path d="M2492 1343 c-17 -7 -42 -57 -42 -86 0 -31 -10 -35 -122 -43 -137 -10
-288 -51 -313 -87 -28 -40 -20 -46 63 -49 75 -3 77 -4 80 -29 3 -25 -1 -27
-56 -38 -32 -6 -64 -17 -70 -23 -22 -22 -14 -94 14 -127 25 -31 27 -31 119
-31 84 0 95 2 108 21 14 19 21 20 120 13 94 -6 106 -9 111 -27 4 -18 10 -19
58 -13 59 8 74 17 82 50 7 27 38 36 127 36 53 0 59 -2 71 -27 9 -19 20 -27 33
-25 32 6 65 31 65 50 0 9 10 22 23 27 23 10 23 14 13 76 -7 42 -40 89 -62 89
-18 0 -80 60 -88 87 -4 11 -17 25 -30 31 -16 7 -27 25 -35 59 -7 26 -17 53
-23 60 -7 9 -43 13 -122 12 -61 0 -117 -3 -124 -6z"/>
</g>
</svg>
