<?xml version="1.0" standalone="no"?>
<!DOCTYPE svg PUBLIC "-//W3C//DTD SVG 20010904//EN"
 "http://www.w3.org/TR/2001/REC-SVG-20010904/DTD/svg10.dtd">
<svg version="1.0" xmlns="http://www.w3.org/2000/svg"
 width="352.000000pt" height="288.000000pt" viewBox="0 0 352.000000 288.000000"
 preserveAspectRatio="xMidYMid meet">
<metadata>
Created by potrace 1.13, written by Peter Selinger 2001-2015
</metadata>
<g transform="translate(0.000000,288.000000) scale(0.100000,-0.100000)"
fill="#000000" stroke="none">
<path d="M2452 1328 c-7 -7 -12 -20 -12 -30 0 -37 -22 -67 -49 -66 -14 0 -48
-6 -76 -15 -27 -8 -95 -20 -150 -27 -118 -13 -171 -33 -191 -71 -26 -52 -7
-67 96 -71 47 -3 55 -6 58 -24 2 -14 -5 -24 -22 -32 -26 -12 -69 -109 -64
-145 5 -30 33 -45 58 -29 17 10 25 9 49 -9 34 -25 76 -20 85 9 5 14 24 21 84
30 106 17 136 15 174 -8 40 -24 61 -25 79 -4 15 18 78 16 247 -6 110 -15 122
-9 122 55 0 39 3 43 29 48 20 4 32 15 41 38 20 47 5 63 -64 67 -57 3 -58 4
-77 45 -10 23 -19 50 -19 59 0 27 -29 48 -66 48 l-34 0 0 63 c0 36 -5 68 -12
75 -8 8 -54 12 -143 12 -89 0 -135 -4 -143 -12z"/>
</g>
</svg>
