<?xml version="1.0" standalone="no"?>
<!DOCTYPE svg PUBLIC "-//W3C//DTD SVG 20010904//EN"
 "http://www.w3.org/TR/2001/REC-SVG-20010904/DTD/svg10.dtd">
<svg version="1.0" xmlns="http://www.w3.org/2000/svg"
 width="352.000000pt" height="288.000000pt" viewBox="0 0 352.000000 288.000000"
 preserveAspectRatio="xMidYMid meet">
<metadata>
Created by potrace 1.13, written by Peter Selinger 2001-2015
</metadata>
<g transform="translate(0.000000,288.000000) scale(0.100000,-0.100000)"
fill="#000000" stroke="none">
<path d="M2330 1313 c-38 -7 -50 -22 -50 -63 l0 -37 -67 -6 c-38 -4 -99 -7
-138 -7 -71 0 -145 -15 -145 -29 0 -4 -14 -23 -30 -42 -23 -25 -30 -42 -28
-64 3 -33 0 -32 111 -19 57 7 59 6 55 -15 -2 -17 -16 -27 -57 -41 -29 -10 -57
-24 -62 -31 -13 -22 -11 -125 4 -137 16 -13 120 -26 151 -18 14 3 28 15 31 26
6 17 15 20 76 20 56 0 73 -4 89 -20 41 -41 174 -16 229 44 27 29 64 34 83 11
7 -9 19 -22 26 -30 37 -41 115 -21 120 30 2 20 11 34 25 40 25 11 35 58 16 81
-6 8 -24 14 -40 14 -26 0 -29 3 -29 34 0 38 -21 66 -51 66 -13 0 -19 7 -19 24
0 14 -11 38 -25 54 -16 19 -25 42 -25 64 0 19 -5 39 -12 46 -12 12 -181 15
-238 5z"/>
</g>
</svg>
