<?xml version="1.0" standalone="no"?>
<!DOCTYPE svg PUBLIC "-//W3C//DTD SVG 20010904//EN"
 "http://www.w3.org/TR/2001/REC-SVG-20010904/DTD/svg10.dtd">
<svg version="1.0" xmlns="http://www.w3.org/2000/svg"
 width="352.000000pt" height="288.000000pt" viewBox="0 0 352.000000 288.000000"
 preserveAspectRatio="xMidYMid meet">
<metadata>
Created by potrace 1.13, written by Peter Selinger 2001-2015
</metadata>
<g transform="translate(0.000000,288.000000) scale(0.100000,-0.100000)"
fill="#000000" stroke="none">
<path d="M2435 1343 c-55 -7 -85 -24 -90 -52 -18 -89 -16 -88 -221 -90 -129
-1 -144 -3 -174 -23 -43 -30 -54 -49 -46 -81 10 -43 32 -57 92 -57 53 0 54 -1
54 -29 0 -25 -5 -30 -35 -35 -19 -4 -41 -14 -50 -22 -18 -19 -21 -108 -2 -120
6 -5 50 -9 95 -9 75 0 86 2 102 23 16 19 28 22 87 22 58 0 75 -4 103 -25 49
-36 126 -35 171 2 27 23 44 28 99 31 66 4 67 4 79 -26 16 -39 35 -46 71 -27
32 16 50 43 50 72 0 10 9 24 20 31 15 9 20 23 20 55 0 50 -13 67 -52 67 -20 0
-28 5 -28 18 0 10 -12 29 -27 43 -16 14 -47 47 -70 72 -38 41 -43 51 -43 95 0
26 -5 53 -12 60 -11 11 -122 14 -193 5z"/>
</g>
</svg>
