<?xml version="1.0" standalone="no"?>
<!DOCTYPE svg PUBLIC "-//W3C//DTD SVG 20010904//EN"
 "http://www.w3.org/TR/2001/REC-SVG-20010904/DTD/svg10.dtd">
<svg version="1.0" xmlns="http://www.w3.org/2000/svg"
 width="352.000000pt" height="288.000000pt" viewBox="0 0 352.000000 288.000000"
 preserveAspectRatio="xMidYMid meet">
<metadata>
Created by potrace 1.13, written by Peter Selinger 2001-2015
</metadata>
<g transform="translate(0.000000,288.000000) scale(0.100000,-0.100000)"
fill="#000000" stroke="none">
<path d="M2586 1348 c-8 -13 -16 -39 -19 -58 -3 -30 -7 -35 -28 -34 -52 4
-325 -45 -382 -68 -36 -14 -57 -45 -57 -83 0 -43 16 -55 76 -55 43 0 53 -3 57
-20 4 -15 -2 -22 -28 -30 -39 -13 -45 -25 -45 -90 0 -39 4 -52 22 -64 29 -21
121 -21 181 0 34 11 66 14 119 10 40 -4 116 -9 169 -12 88 -5 98 -3 110 14 20
27 174 39 188 14 6 -10 29 -18 66 -22 72 -8 90 6 82 61 -4 31 -1 39 13 44 24
8 42 59 27 74 -6 6 -37 16 -69 22 l-58 12 0 39 c0 34 -6 46 -37 74 -20 19 -41
34 -45 34 -4 0 -8 16 -8 35 0 39 -24 105 -43 117 -7 4 -72 8 -144 8 -127 0
-133 -1 -147 -22z"/>
</g>
</svg>
