<?xml version="1.0" standalone="no"?>
<!DOCTYPE svg PUBLIC "-//W3C//DTD SVG 20010904//EN"
 "http://www.w3.org/TR/2001/REC-SVG-20010904/DTD/svg10.dtd">
<svg version="1.0" xmlns="http://www.w3.org/2000/svg"
 width="509.000000pt" height="498.000000pt" viewBox="0 0 509.000000 498.000000"
 preserveAspectRatio="xMidYMid meet">
<metadata>
Created by potrace 1.13, written by Peter Selinger 2001-2015
</metadata>
<g transform="translate(0.000000,498.000000) scale(0.100000,-0.100000)"
fill="#000000" stroke="none">
<path d="M2081 4866 c-11 -13 -13 -96 -1 -96 3 0 5 -15 5 -32 -1 -19 10 -52
25 -78 15 -25 33 -60 41 -77 7 -18 17 -33 21 -33 7 0 33 -79 30 -92 -1 -5 2
-8 8 -8 6 0 10 -8 10 -18 0 -11 9 -44 19 -75 l19 -55 -24 4 c-13 2 -24 0 -24
-6 0 -5 -3 -9 -8 -8 -14 5 -50 -36 -57 -65 l-7 -28 -24 32 c-13 18 -21 36 -18
40 3 5 0 9 -6 9 -6 0 -8 5 -5 10 3 6 1 10 -4 10 -6 0 -11 7 -11 15 0 8 -4 15
-10 15 -5 0 -10 9 -10 20 0 11 -4 20 -9 20 -4 0 -8 8 -8 18 1 22 -24 74 -43
89 -8 7 -11 13 -6 13 5 0 -1 8 -12 19 -12 10 -22 22 -22 27 0 11 -71 60 -82
57 -4 -2 -8 2 -8 9 0 6 -3 9 -6 6 -3 -4 -19 -2 -35 2 -16 5 -29 5 -29 1 0 -3
-12 -8 -26 -9 -30 -2 -84 -32 -84 -46 0 -5 -3 -7 -6 -3 -7 7 -15 -1 -56 -51
-23 -27 -27 -41 -27 -96 0 -63 -15 -141 -31 -161 -5 -5 -8 -12 -9 -15 0 -15
-17 -47 -33 -64 -35 -38 -11 -74 37 -56 23 9 26 8 21 -5 -3 -8 -2 -15 3 -15 8
0 7 -21 -2 -72 -3 -16 -44 -74 -75 -104 -8 -8 -9 -15 -2 -19 17 -11 54 -15 60
-7 8 13 74 41 80 35 3 -3 -1 -8 -7 -10 -7 -3 -13 -10 -13 -16 0 -7 -10 -18
-22 -26 -21 -13 -21 -14 -3 -27 10 -7 23 -10 29 -7 6 4 3 -4 -6 -17 -9 -14
-21 -24 -27 -23 -6 2 -11 -3 -11 -11 0 -8 -7 -16 -15 -20 -23 -9 -18 -23 13
-33 30 -10 62 -6 62 7 0 5 6 7 13 4 8 -3 20 2 27 11 7 8 19 15 26 15 8 0 14 4
14 9 0 5 9 13 20 16 11 3 20 13 20 21 0 8 4 14 8 14 4 0 14 16 21 35 16 46 37
45 39 -2 1 -20 5 -39 10 -42 5 -3 9 -19 10 -36 0 -16 3 -50 5 -75 2 -25 0 -53
-5 -62 -5 -10 -5 -18 -1 -18 4 0 8 -17 9 -38 0 -45 11 -136 20 -177 4 -16 7
-38 8 -47 0 -10 3 -18 6 -18 3 0 5 -24 5 -53 0 -28 3 -57 7 -62 10 -16 16 -95
7 -95 -5 0 -6 -7 -3 -15 4 -8 1 -22 -6 -30 -7 -8 -9 -15 -5 -15 4 0 2 -6 -4
-14 -10 -12 -8 -17 11 -27 13 -7 29 -12 36 -11 17 4 15 -23 -3 -42 -8 -8 -15
-19 -15 -24 0 -6 -6 -12 -12 -14 -10 -4 -9 -8 2 -20 22 -21 49 -8 92 41 l34
40 -6 -49 c-4 -29 -2 -54 4 -60 7 -7 6 -10 -2 -10 -9 0 -10 -5 -2 -19 5 -11 7
-22 2 -25 -8 -5 -6 -220 2 -311 13 -129 17 -173 21 -215 2 -25 4 -45 5 -45 4
0 18 -71 25 -130 11 -93 23 -158 36 -192 6 -15 10 -29 10 -30 -1 -2 0 -5 0 -8
1 -3 2 -13 3 -22 1 -10 5 -24 9 -30 5 -7 6 -13 2 -13 -3 0 2 -16 10 -37 8 -20
13 -38 10 -41 -3 -3 0 -11 5 -17 12 -14 2 -48 -11 -40 -4 3 -16 -6 -25 -20 -9
-13 -20 -22 -25 -19 -5 3 -9 0 -9 -6 0 -6 -8 -14 -17 -17 -22 -9 -123 -109
-123 -123 0 -5 -4 -10 -9 -10 -9 0 -20 -23 -28 -60 -2 -8 -5 -49 -7 -90 -2
-41 -8 -87 -14 -101 -9 -21 -7 -29 9 -43 17 -14 20 -14 25 -1 3 8 10 12 15 9
5 -3 9 1 9 8 0 10 2 10 9 -1 14 -21 -1 -56 -36 -85 -34 -29 -37 -44 -14 -62
17 -13 51 -7 51 9 0 6 3 7 6 4 4 -3 14 -2 23 3 13 6 17 4 17 -11 0 -10 -4 -19
-9 -19 -5 0 -4 -6 2 -14 9 -11 4 -20 -26 -44 -34 -27 -36 -31 -21 -46 19 -18
76 -12 85 10 3 8 10 14 15 14 16 0 -1 -52 -22 -70 -18 -16 -18 -17 -1 -32 16
-14 21 -13 52 3 52 27 79 68 82 127 0 12 5 22 10 22 5 0 5 6 -1 13 -13 16 -6
68 11 79 7 4 8 8 3 8 -5 0 -4 6 2 12 6 7 10 15 10 18 0 13 38 90 44 90 5 0 8
6 8 14 0 8 9 18 20 21 11 3 20 11 20 16 0 5 4 8 8 6 5 -1 24 15 43 35 49 51
79 42 104 -32 17 -50 62 -72 150 -74 62 -1 65 -2 77 -31 7 -16 12 -33 10 -38
-1 -4 3 -7 8 -7 6 0 10 -7 10 -15 0 -8 4 -15 10 -15 5 0 9 -3 7 -8 -1 -4 13
-24 31 -44 19 -20 33 -38 32 -40 -5 -7 64 -128 73 -128 6 0 8 -3 4 -6 -3 -3 7
-27 23 -52 16 -26 43 -70 60 -98 27 -46 120 -137 120 -118 0 4 8 0 18 -8 9 -9
33 -18 53 -22 21 -4 50 -16 65 -28 15 -13 34 -23 42 -25 8 -1 18 -6 21 -12 7
-11 91 -32 102 -25 9 5 6 -23 -4 -32 -3 -3 1 -13 9 -21 31 -32 160 25 146 65
-2 7 1 12 8 12 6 0 9 4 6 8 -3 5 8 24 25 43 16 19 30 43 31 54 6 78 -3 103
-79 233 -23 39 -40 72 -38 72 2 0 -13 18 -35 40 -22 22 -37 40 -34 40 3 0 -4
13 -15 29 -21 29 -40 72 -47 104 -2 11 -13 28 -26 39 -13 11 -23 26 -23 33 0
18 -40 55 -58 55 -8 0 -22 11 -31 25 -9 14 -13 25 -10 25 4 0 -3 8 -14 19 -12
10 -22 22 -22 26 0 4 -7 13 -14 19 -8 6 -16 18 -18 26 -2 8 -18 27 -36 41 -24
21 -29 28 -17 33 8 3 15 2 15 -3 0 -14 104 -65 108 -53 2 7 8 10 13 6 5 -3 9
0 9 5 0 6 5 11 10 11 23 0 68 67 77 115 2 10 7 22 12 25 11 7 30 67 24 74 -4
3 -1 6 6 6 8 0 11 7 7 15 -3 8 -1 15 4 15 5 0 7 7 4 15 -4 8 -2 15 4 15 5 0
12 8 16 18 3 9 14 31 24 47 34 54 139 355 125 355 -3 0 0 7 7 15 7 8 9 15 4
15 -5 0 -3 4 5 9 8 5 14 36 17 87 2 44 7 113 10 154 3 41 7 95 8 120 2 25 10
64 19 86 10 26 14 65 12 105 -4 80 -14 159 -21 170 -3 5 -8 22 -10 37 -3 15
-9 29 -15 30 -5 2 -7 8 -4 13 3 5 2 17 -3 26 -5 10 -12 38 -15 63 -3 25 -10
57 -16 73 -6 15 -8 27 -5 27 4 0 1 6 -5 13 -6 8 -13 31 -16 53 -9 58 -36 147
-52 165 -7 8 -13 21 -13 27 0 7 -4 12 -8 12 -4 0 -13 15 -20 34 -7 18 -24 46
-37 60 -14 15 -25 29 -25 32 0 5 -14 24 -42 55 -10 10 -18 24 -18 29 0 6 -4
10 -9 10 -5 0 -13 10 -17 22 -3 12 -13 37 -22 57 -9 20 -15 39 -14 42 0 3 -10
18 -24 34 -13 15 -24 34 -24 42 0 7 -4 13 -10 13 -5 0 -10 6 -10 14 0 8 -7 17
-16 20 -9 4 -14 9 -11 12 5 6 -22 41 -70 91 -13 13 -23 28 -23 32 0 5 -17 21
-37 37 -21 15 -40 30 -43 33 -9 10 -55 32 -72 35 -9 1 -36 19 -60 39 -23 20
-47 37 -52 37 -5 0 -17 6 -25 13 -9 7 -36 20 -61 27 -25 7 -51 18 -57 23 -7 5
-13 6 -13 2 0 -4 -6 -2 -13 4 -8 6 -17 8 -20 4 -4 -3 -7 -1 -7 5 0 7 -3 11 -7
11 -5 -1 -10 0 -13 1 -3 1 -19 3 -37 5 -18 2 -45 16 -63 34 -18 17 -37 28 -42
25 -4 -3 -8 -2 -7 3 2 14 -13 53 -21 53 -5 0 -7 8 -6 17 2 9 -4 24 -13 33 -31
32 -61 70 -61 77 0 3 -24 29 -52 56 -29 28 -53 53 -52 56 1 10 -75 124 -95
143 -16 14 -21 15 -30 4z m180 -1496 c3 -38 -20 -110 -33 -110 -10 0 -3 115 8
143 9 26 23 9 25 -33z m-49 -337 c1 -4 8 -13 15 -19 13 -9 11 -15 -11 -41 -22
-26 -24 -32 -11 -43 8 -6 19 -9 25 -5 14 8 13 35 -2 35 -6 0 -8 3 -5 6 4 4 13
1 22 -6 12 -10 15 -10 15 3 0 22 27 29 36 9 10 -25 12 -52 2 -52 -4 0 -8 -5
-8 -10 0 -6 -9 -20 -19 -31 -16 -17 -23 -19 -40 -10 -17 10 -23 7 -37 -14 -9
-14 -21 -25 -28 -25 -6 0 -5 4 3 9 7 5 10 14 7 20 -4 6 -3 11 2 11 13 0 9 45
-6 62 -7 9 -8 18 -2 24 5 5 11 23 13 40 5 43 27 71 29 37z m68 -3 c0 -11 0
-23 1 -27 1 -16 -19 -13 -25 4 -4 10 -2 19 3 21 6 2 9 8 5 13 -3 5 0 9 5 9 6
0 11 -9 11 -20z m50 -302 c0 -4 8 -8 18 -8 24 0 46 -25 61 -69 9 -29 8 -39 -8
-65 -10 -17 -17 -39 -16 -48 4 -24 -4 -23 -32 4 -15 14 -23 17 -23 8 0 -7 -3
-10 -7 -7 -3 4 -12 2 -18 -3 -14 -12 -65 6 -65 22 0 5 -9 18 -20 30 -15 16
-17 25 -8 35 8 10 8 20 0 36 -25 53 -24 56 19 54 22 -2 44 2 49 8 10 12 50 15
50 3z m16 -327 c-3 -5 4 -16 17 -24 12 -8 33 -24 46 -36 13 -11 28 -18 32 -15
5 3 9 -1 10 -8 2 -39 12 -76 25 -96 9 -13 17 -32 19 -43 4 -18 2 -18 -24 3
-16 13 -27 25 -25 27 2 2 -11 16 -29 32 -17 15 -43 37 -56 48 -13 12 -28 21
-34 21 -5 0 -6 11 -3 25 4 14 3 25 -2 25 -4 0 -8 9 -9 20 -1 11 2 18 7 15 5
-3 11 -1 15 5 3 5 8 10 11 10 3 0 3 -4 0 -9z m329 -390 c-6 -5 -25 10 -25 20
0 5 6 4 14 -3 8 -7 12 -15 11 -17z m530 -999 c-3 -3 -11 0 -18 7 -9 10 -8 11
6 5 10 -3 15 -9 12 -12z m95 -102 c18 -12 2 -12 -25 0 -13 6 -15 9 -5 9 8 0
22 -4 30 -9z"/>
<path d="M2295 2673 c-5 -21 -2 -31 11 -38 9 -5 27 -20 39 -32 20 -19 25 -20
35 -8 21 25 -2 69 -47 93 -29 16 -30 16 -38 -15z"/>
</g>
</svg>
