<?xml version="1.0" standalone="no"?>
<!DOCTYPE svg PUBLIC "-//W3C//DTD SVG 20010904//EN"
 "http://www.w3.org/TR/2001/REC-SVG-20010904/DTD/svg10.dtd">
<svg version="1.0" xmlns="http://www.w3.org/2000/svg"
 width="513.000000pt" height="493.000000pt" viewBox="0 0 513.000000 493.000000"
 preserveAspectRatio="xMidYMid meet">
<metadata>
Created by potrace 1.13, written by Peter Selinger 2001-2015
</metadata>
<g transform="translate(0.000000,493.000000) scale(0.100000,-0.100000)"
fill="#000000" stroke="none">
<path d="M1872 4163 c-17 -25 -20 -38 -13 -47 6 -7 9 -15 6 -17 -2 -3 3 -41
11 -84 17 -89 23 -185 12 -185 -4 0 -5 -7 -2 -15 4 -8 1 -15 -6 -15 -6 0 -9
-4 -6 -9 3 -4 0 -31 -8 -60 -7 -28 -10 -51 -6 -51 5 0 2 -19 -5 -42 -7 -24
-11 -67 -9 -96 l3 -53 -27 17 c-14 9 -36 27 -49 38 -12 12 -29 27 -38 34 -21
18 -75 33 -75 22 0 -5 -7 -7 -15 -4 -8 4 -15 1 -15 -5 0 -6 -7 -11 -15 -11 -8
0 -15 -4 -15 -9 0 -9 -48 -26 -62 -23 -5 1 -8 -1 -8 -5 0 -5 -14 -24 -30 -43
-16 -19 -30 -39 -30 -44 0 -17 -32 -45 -45 -40 -7 3 -18 -4 -24 -15 -9 -16 -8
-22 6 -30 10 -5 30 -8 45 -6 26 3 27 2 25 -55 -2 -49 -7 -63 -35 -95 -17 -21
-32 -42 -32 -46 0 -12 51 -23 59 -13 9 13 41 14 42 0 2 -17 -1 -39 -8 -56 -4
-8 -7 -18 -7 -21 -1 -3 -9 -14 -19 -23 -22 -22 -18 -36 11 -47 17 -6 22 -5 22
7 0 8 4 13 9 9 5 -3 17 2 25 11 9 8 16 12 17 7 0 -4 2 -16 4 -25 2 -10 0 -18
-4 -18 -10 0 -29 -62 -23 -78 7 -23 28 -12 67 35 22 26 40 50 41 53 2 21 40
80 51 80 7 0 13 4 13 9 0 14 50 3 67 -14 8 -8 21 -15 29 -15 8 0 14 -7 14 -15
0 -8 5 -15 11 -15 5 0 7 -4 4 -10 -3 -5 -1 -10 5 -10 6 0 15 -10 21 -23 6 -12
23 -31 39 -42 27 -18 40 -52 45 -117 0 -3 3 -9 7 -13 4 -4 4 -13 1 -21 -3 -8
-1 -14 3 -14 5 0 10 -12 11 -27 2 -29 10 -78 13 -78 1 0 4 -13 6 -30 2 -16 9
-39 14 -50 8 -17 38 -116 40 -130 0 -3 0 -6 1 -7 0 -2 2 -12 3 -23 1 -11 6
-38 11 -60 5 -22 8 -43 7 -47 -1 -5 3 -8 9 -8 5 0 8 -4 5 -8 -3 -5 1 -19 8
-33 7 -13 11 -30 8 -37 -2 -6 1 -12 8 -12 6 0 8 -4 5 -10 -3 -5 -2 -10 2 -10
14 0 46 -98 40 -120 -3 -11 0 -20 6 -20 6 0 8 -3 4 -6 -3 -3 8 -45 25 -93 17
-47 32 -93 33 -101 2 -8 4 -17 5 -20 1 -3 2 -8 1 -12 0 -5 3 -8 8 -8 10 0 27
-39 23 -52 -1 -5 2 -8 8 -8 6 0 9 -3 8 -7 -1 -5 6 -26 16 -48 10 -22 20 -47
21 -56 1 -9 11 -33 23 -53 12 -21 20 -42 17 -47 -4 -5 -1 -9 4 -9 6 0 11 -6
11 -12 0 -9 -20 -13 -65 -13 l-66 0 -47 -55 c-25 -30 -66 -73 -90 -96 -43 -41
-43 -41 -24 -64 18 -23 18 -23 -25 -68 -49 -50 -46 -67 13 -78 36 -7 39 -17
11 -47 -18 -18 -18 -19 0 -36 19 -19 30 -21 51 -7 12 7 12 4 2 -15 -11 -19
-10 -24 6 -36 25 -18 88 -10 115 16 13 12 35 27 51 33 15 7 35 27 43 43 16 34
46 65 67 69 7 1 22 7 34 13 11 7 31 13 45 15 13 2 30 7 37 11 6 5 12 5 12 1 0
-4 7 1 15 12 8 10 15 15 15 10 0 -5 9 1 19 13 16 18 21 19 32 8 8 -7 30 -20
49 -30 43 -21 70 -41 70 -53 0 -5 9 -15 20 -22 11 -7 20 -19 20 -28 0 -8 9
-24 20 -36 10 -12 17 -24 15 -28 -3 -5 2 -11 11 -14 8 -3 13 -10 9 -16 -3 -5
3 -18 15 -30 11 -11 18 -20 15 -20 -3 0 15 -21 40 -47 25 -25 44 -51 42 -58
-3 -6 1 -19 9 -29 7 -11 11 -23 8 -27 -2 -4 7 -16 21 -26 14 -10 40 -31 56
-47 17 -16 42 -30 56 -32 14 -1 29 -7 32 -12 3 -5 20 -8 36 -7 30 3 115 -31
115 -46 0 -6 40 -20 70 -24 14 -1 76 -30 80 -37 3 -4 24 -10 45 -14 22 -3 59
-9 83 -14 25 -4 42 -4 42 2 0 5 5 6 10 3 6 -4 18 -1 27 7 12 9 15 10 9 0 -9
-14 12 -37 35 -37 8 0 26 7 40 16 13 9 41 21 62 28 20 7 37 17 37 21 0 5 7 7
15 4 8 -4 15 -1 15 5 0 6 7 11 16 11 31 0 64 141 37 158 -6 4 -9 14 -8 23 2 9
-8 29 -21 44 -13 15 -29 40 -36 56 -7 16 -16 29 -20 29 -5 0 -8 6 -8 14 0 13
-17 25 -31 22 -4 0 -17 8 -29 19 -12 11 -25 18 -27 15 -3 -3 -11 4 -17 14 -6
11 -18 27 -26 36 -17 19 -50 77 -49 87 0 3 -5 10 -13 14 -10 7 -10 11 0 17 9
7 8 13 -8 27 -12 11 -27 20 -34 21 -8 1 -33 20 -56 41 l-41 40 25 17 c14 9 26
14 26 10 0 -3 14 9 31 27 19 20 29 40 26 51 -3 10 -2 18 2 18 17 0 7 42 -13
55 -13 9 -28 27 -34 41 -14 30 -16 91 -2 99 9 6 66 113 69 130 0 6 6 24 11 41
6 17 11 51 13 77 1 26 5 47 9 47 3 0 5 14 4 30 -1 17 0 30 3 30 12 0 -1 110
-15 121 -20 17 -18 32 21 130 43 106 52 186 36 300 -13 88 -45 160 -81 179
-17 9 -20 21 -20 71 0 33 -9 85 -19 117 -10 31 -22 75 -26 98 -8 49 -39 104
-60 104 -10 0 -15 10 -15 28 0 46 -30 134 -59 170 -23 30 -55 62 -163 164 -16
15 -42 35 -58 45 -17 9 -30 21 -30 25 0 4 -15 14 -34 23 -29 14 -33 20 -27 38
18 49 -94 158 -225 219 -54 25 -96 51 -100 61 -3 10 -18 25 -32 34 -15 9 -41
31 -58 49 -19 19 -48 36 -75 42 -24 6 -84 22 -134 36 -49 14 -125 28 -168 32
-61 5 -82 10 -95 26 -39 45 -97 69 -194 77 -52 4 -99 10 -104 14 -5 3 -20 -10
-32 -30z"/>
</g>
</svg>
