<?xml version="1.0" standalone="no"?>
<!DOCTYPE svg PUBLIC "-//W3C//DTD SVG 20010904//EN"
 "http://www.w3.org/TR/2001/REC-SVG-20010904/DTD/svg10.dtd">
<svg version="1.0" xmlns="http://www.w3.org/2000/svg"
 width="434.000000pt" height="277.000000pt" viewBox="0 0 434.000000 277.000000"
 preserveAspectRatio="xMidYMid meet">
<metadata>
Created by potrace 1.13, written by Peter Selinger 2001-2015
</metadata>
<g transform="translate(0.000000,277.000000) scale(0.100000,-0.100000)"
fill="#000000" stroke="none">
<path d="M1665 2688 c-33 -6 -74 -17 -91 -26 -27 -13 -40 -13 -94 -3 -131 26
-336 -36 -452 -137 -25 -21 -59 -44 -76 -51 -17 -7 -34 -22 -37 -32 -12 -37
-54 -59 -114 -59 -129 0 -158 -27 -147 -136 6 -62 46 -164 67 -172 5 -2 9 -9
9 -16 0 -7 9 -21 20 -31 10 -9 36 -50 55 -89 20 -39 40 -73 44 -76 5 -3 18
-24 29 -46 12 -23 35 -54 51 -70 16 -15 28 -31 25 -36 -3 -4 -43 -8 -90 -8
-79 0 -87 -2 -109 -26 -14 -15 -25 -31 -25 -36 0 -5 -10 -30 -21 -56 -19 -40
-21 -57 -15 -124 4 -51 3 -78 -4 -78 -5 0 -10 -11 -10 -25 0 -31 29 -34 55 -5
10 11 21 20 24 20 4 0 21 -19 39 -42 27 -35 32 -50 32 -95 0 -44 3 -53 18 -53
9 0 29 14 43 32 l26 31 18 -26 c10 -15 20 -48 23 -73 4 -39 8 -45 26 -42 14 2
24 14 31 39 13 47 30 40 50 -22 13 -37 21 -49 37 -49 20 0 20 4 14 87 -3 49
-8 102 -12 118 -7 42 13 65 67 75 31 6 57 4 89 -6 24 -8 61 -14 81 -13 29 3
46 -5 90 -39 77 -61 79 -62 144 -113 33 -25 78 -56 100 -69 38 -23 107 -75
149 -112 25 -23 142 -91 184 -108 18 -7 46 -25 62 -40 32 -30 111 -84 170
-116 19 -10 37 -21 40 -24 3 -3 78 -41 167 -85 89 -44 162 -82 162 -85 0 -3
-17 -18 -38 -34 -21 -15 -43 -38 -49 -50 -6 -11 -13 -76 -15 -144 l-4 -123 26
-5 c26 -6 27 -7 23 -70 -5 -71 3 -78 57 -49 33 17 41 12 41 -27 0 -23 4 -28
24 -28 14 0 32 7 40 16 15 14 16 14 16 -5 0 -30 34 -27 68 7 36 35 57 111 54
191 -2 61 1 68 44 138 25 40 48 88 51 106 5 32 8 34 67 46 35 7 80 10 102 6
44 -8 154 -44 169 -55 6 -5 47 -14 92 -20 45 -7 88 -18 94 -26 6 -8 18 -14 25
-14 8 0 14 -4 14 -9 0 -6 38 -10 85 -10 47 0 85 4 85 10 0 5 11 9 25 9 15 0
36 11 49 25 17 19 39 27 90 34 37 5 73 14 80 20 7 6 38 17 70 25 86 23 196 94
196 128 0 10 2 10 9 0 17 -28 46 -7 78 58 18 36 33 70 33 77 0 6 5 13 11 15 7
2 12 24 13 48 1 86 -51 133 -197 180 -58 19 -74 20 -118 11 -52 -12 -80 -9
-139 14 -19 7 -47 16 -62 19 -16 4 -28 13 -28 21 0 13 -14 14 -87 9 -49 -3
-93 -7 -99 -9 -7 -2 -3 14 7 35 11 22 19 58 19 80 0 38 -6 47 -63 102 -34 33
-74 64 -88 70 -22 8 -28 18 -34 56 -15 102 -177 362 -225 362 -13 0 -19 12
-24 43 -7 45 -46 133 -80 181 -41 57 -63 76 -117 96 -45 18 -59 29 -84 72 -66
110 -257 268 -325 268 -25 0 -49 13 -99 53 -85 68 -105 80 -170 102 -41 13
-70 16 -121 11 -63 -5 -71 -4 -141 31 -118 58 -245 74 -394 51z"/>
</g>
</svg>
