<?xml version="1.0" standalone="no"?>
<!DOCTYPE svg PUBLIC "-//W3C//DTD SVG 20010904//EN"
 "http://www.w3.org/TR/2001/REC-SVG-20010904/DTD/svg10.dtd">
<svg version="1.0" xmlns="http://www.w3.org/2000/svg"
 width="428.000000pt" height="246.000000pt" viewBox="0 0 428.000000 246.000000"
 preserveAspectRatio="xMidYMid meet">
<metadata>
Created by potrace 1.13, written by Peter Selinger 2001-2015
</metadata>
<g transform="translate(0.000000,246.000000) scale(0.100000,-0.100000)"
fill="#000000" stroke="none">
<path d="M1145 2444 c-93 -15 -186 -57 -235 -107 -27 -27 -96 -54 -163 -62
-44 -6 -144 -51 -162 -72 -8 -10 -40 -3 -145 33 -116 40 -146 47 -210 46 -97
-1 -214 -31 -218 -56 -6 -27 12 -34 93 -35 84 -1 151 -19 206 -55 21 -14 42
-26 45 -26 4 0 21 -11 38 -24 17 -12 45 -30 61 -39 59 -30 113 -91 159 -181
25 -48 58 -103 73 -122 16 -19 40 -49 55 -67 l26 -33 -46 -18 c-26 -10 -65
-26 -87 -36 -22 -10 -71 -31 -110 -46 -104 -41 -235 -131 -235 -162 0 -7 -4
-12 -8 -12 -4 0 -14 -20 -21 -44 -12 -40 -11 -47 6 -70 10 -14 25 -28 34 -31
9 -3 21 -15 26 -28 6 -12 32 -48 59 -80 54 -64 87 -73 92 -25 3 27 3 27 23 7
10 -10 19 -26 19 -34 0 -8 6 -15 13 -15 8 0 24 -20 37 -45 32 -62 70 -59 70 6
0 34 17 20 49 -41 44 -83 81 -81 81 3 l0 31 31 -42 c19 -26 39 -42 51 -42 19
0 20 4 14 43 -12 78 -46 153 -83 182 -7 6 -23 31 -37 56 l-24 46 52 17 c29 9
65 16 79 16 32 0 139 27 146 37 3 5 30 8 60 9 45 1 60 -3 80 -22 14 -13 31
-24 38 -24 7 0 13 -5 13 -11 0 -6 12 -21 27 -33 47 -36 177 -116 190 -116 7 0
13 -3 13 -7 0 -10 42 -35 225 -133 130 -70 162 -86 220 -109 33 -13 76 -33 95
-44 41 -23 147 -58 245 -80 39 -9 138 -32 220 -51 83 -19 173 -38 200 -41 28
-4 83 -18 124 -31 40 -13 107 -26 148 -30 68 -6 72 -8 58 -24 -8 -9 -15 -22
-15 -28 0 -7 -4 -12 -9 -12 -6 0 -24 -29 -42 -65 -29 -60 -31 -71 -27 -143 3
-57 9 -84 24 -101 25 -30 99 -67 151 -75 81 -12 137 -37 174 -77 55 -61 85
-47 59 28 -10 28 -9 28 6 5 9 -12 25 -22 35 -22 32 0 26 69 -9 108 -16 18 -33
32 -38 32 -5 0 -14 8 -21 19 -6 10 -31 23 -55 29 -50 13 -95 41 -65 42 9 0 22
11 28 24 6 13 20 27 31 29 10 3 24 19 31 36 6 17 17 31 24 31 8 0 16 14 20 30
4 20 11 30 24 30 18 0 27 23 44 102 l5 27 35 -20 c19 -12 49 -34 67 -51 l32
-29 126 3 c121 4 128 5 156 31 16 15 38 27 49 28 11 0 67 4 125 9 91 7 113 12
165 41 34 19 75 33 95 34 40 0 60 28 60 86 0 20 7 58 15 85 26 87 22 98 -42
132 -79 41 -160 56 -259 48 -62 -4 -85 -3 -100 9 -10 8 -37 15 -59 15 -52 0
-161 18 -202 32 l-31 11 5 72 6 73 -39 12 c-56 18 -156 74 -179 102 -37 43
-80 103 -99 138 -22 40 -74 111 -165 225 -57 71 -70 82 -120 98 -31 11 -60 22
-66 26 -5 5 -66 37 -135 72 -103 53 -139 78 -208 144 l-84 79 -71 1 c-68 0
-128 18 -219 66 -10 5 -25 9 -33 9 -19 0 -69 34 -113 77 -30 30 -36 32 -81 26
-34 -4 -67 0 -101 11 -28 9 -74 21 -102 26 -28 6 -74 24 -102 41 -42 26 -55
30 -76 22 -20 -7 -46 -4 -106 13 -78 23 -261 39 -329 28z m1535 -729 c0 -8 -2
-15 -4 -15 -2 0 -6 7 -10 15 -3 8 -1 15 4 15 6 0 10 -7 10 -15z m-1600 -100
c0 -8 -4 -15 -10 -15 -5 0 -10 7 -10 15 0 8 5 15 10 15 6 0 10 -7 10 -15z
m-440 -375 c0 -5 -16 -10 -35 -10 -19 0 -35 5 -35 10 0 6 16 10 35 10 19 0 35
-4 35 -10z m2720 -139 c0 -3 -4 -12 -9 -19 -6 -10 -10 -7 -13 11 -4 18 -1 24
9 20 7 -3 13 -8 13 -12z m114 -31 c17 -6 24 -14 20 -25 -9 -21 -35 -19 -41 4
-3 11 -12 22 -22 24 -14 4 -14 5 1 6 9 0 28 -3 42 -9z m-1054 -130 c0 -5 -8
-10 -17 -10 -15 0 -16 2 -3 10 19 12 20 12 20 0z m-380 -10 c0 -5 -4 -10 -10
-10 -5 0 -10 5 -10 10 0 6 5 10 10 10 6 0 10 -4 10 -10z m-110 -15 c0 -17 -2
-18 -24 -9 -23 9 -20 24 4 24 11 0 20 -7 20 -15z m1496 -5 c8 0 11 -6 7 -16
-6 -15 -8 -15 -20 2 -7 10 -13 23 -12 28 0 6 3 5 6 -1 2 -7 11 -13 19 -13z
m-453 -75 c-3 -9 -8 -14 -10 -11 -3 3 -2 9 2 15 9 16 15 13 8 -4z m983 -165
c45 0 54 -3 53 -17 0 -11 -3 -13 -6 -5 -7 17 -43 15 -43 -3 0 -18 -17 -20 -23
-2 -3 9 -15 8 -53 -6 -61 -21 -104 -22 -104 -2 0 16 85 47 108 39 8 -2 38 -4
68 -4z"/>
</g>
</svg>
