<?xml version="1.0" standalone="no"?>
<!DOCTYPE svg PUBLIC "-//W3C//DTD SVG 20010904//EN"
 "http://www.w3.org/TR/2001/REC-SVG-20010904/DTD/svg10.dtd">
<svg version="1.0" xmlns="http://www.w3.org/2000/svg"
 width="329.000000pt" height="310.000000pt" viewBox="0 0 329.000000 310.000000"
 preserveAspectRatio="xMidYMid meet">
<metadata>
Created by potrace 1.13, written by Peter Selinger 2001-2015
</metadata>
<g transform="translate(0.000000,310.000000) scale(0.100000,-0.100000)"
fill="#000000" stroke="none">
<path d="M582 2649 c-7 -11 -8 -19 -2 -19 5 0 9 -3 9 -7 -1 -5 0 -11 1 -15 1
-5 3 -12 4 -17 2 -13 89 -91 96 -86 4 2 16 -3 26 -13 10 -9 46 -40 79 -67 33
-28 63 -54 67 -60 4 -5 24 -29 46 -53 40 -44 46 -75 24 -120 -13 -25 -7 -91
12 -135 18 -40 27 -97 17 -97 -4 0 -7 -9 -8 -20 -1 -11 2 -20 6 -20 4 0 13
-16 19 -36 10 -35 10 -35 -11 -22 -42 26 -84 22 -127 -12 -22 -17 -40 -38 -40
-46 0 -8 -4 -14 -10 -14 -5 0 -12 -11 -16 -25 -3 -14 -10 -25 -15 -25 -5 0 -4
-12 1 -26 6 -15 13 -43 15 -63 3 -20 9 -37 15 -39 6 -2 8 -8 4 -13 -3 -5 1
-12 9 -15 20 -7 14 -51 -8 -68 -22 -16 -13 -46 13 -46 11 0 30 9 44 19 16 13
29 17 39 10 11 -7 11 -9 1 -9 -8 0 -12 -5 -10 -12 3 -7 -6 -23 -19 -36 -13
-12 -23 -27 -23 -31 0 -15 33 -22 41 -10 4 6 11 9 17 5 5 -3 21 8 35 25 14 17
30 28 36 24 13 -7 3 -29 -29 -63 -21 -22 -21 -25 -6 -40 9 -9 16 -11 16 -5 0
12 25 12 36 0 11 -11 44 -8 44 4 0 5 4 8 8 5 12 -7 68 58 81 94 5 17 8 44 5
59 -6 27 -4 29 28 29 24 0 44 -9 71 -33 20 -18 37 -38 37 -44 0 -10 14 -15 32
-12 5 0 7 -2 6 -7 -1 -4 4 -18 12 -32 8 -14 15 -34 17 -44 2 -11 21 -37 42
-58 22 -21 36 -38 33 -38 -10 -1 69 -70 79 -70 5 0 8 -4 7 -8 -4 -10 31 -44
97 -97 28 -22 60 -49 72 -60 36 -34 66 -55 79 -55 6 0 24 -7 40 -14 15 -8 31
-13 35 -10 11 6 54 -53 54 -74 0 -9 -4 -23 -9 -29 -4 -7 -5 -13 0 -13 4 0 -2
-10 -14 -22 -33 -36 -85 -150 -88 -192 -1 -21 4 -50 11 -64 11 -21 11 -27 -1
-39 -15 -16 -19 -33 -6 -34 4 0 17 -2 30 -5 12 -2 22 1 22 6 0 6 8 5 19 -2 15
-9 17 -16 10 -29 -13 -26 20 -43 43 -22 10 9 25 12 37 8 17 -5 18 -9 9 -24
-14 -23 -4 -51 17 -51 22 0 43 22 37 38 -3 11 0 11 16 1 16 -10 23 -10 34 2
17 17 39 75 31 83 -4 3 -2 6 4 6 5 0 9 9 8 19 -2 30 -28 62 -52 64 -21 1 -21
2 -6 37 24 56 31 74 31 84 0 5 5 12 11 15 6 4 13 18 15 31 2 14 5 27 6 30 5
11 7 26 8 52 2 25 3 26 39 15 28 -9 37 -9 41 1 2 8 9 9 22 2 12 -6 29 -6 49 1
37 13 65 5 57 -16 -3 -8 -2 -15 2 -15 4 0 25 -16 46 -35 22 -19 43 -32 48 -29
4 3 5 -1 2 -9 -8 -22 21 -41 35 -23 11 13 17 12 49 -1 20 -8 40 -19 43 -24 3
-5 14 0 24 11 10 11 13 20 7 20 -7 0 -6 9 3 27 8 15 12 30 9 34 -11 19 43 37
101 33 104 -7 115 -9 115 -18 0 -5 7 -3 15 4 8 7 15 8 15 3 0 -11 19 -10 80 2
19 4 52 7 73 6 25 -1 40 4 43 14 4 8 10 12 15 9 5 -3 9 -2 9 3 0 4 15 25 34
46 32 36 53 93 47 127 -3 13 -38 45 -52 45 -6 0 -67 48 -96 75 -9 8 -18 14
-20 12 -4 -3 -57 37 -90 68 -9 8 -19 14 -22 12 -3 -1 -13 3 -21 10 -8 7 -33
14 -55 16 -108 8 -155 7 -155 -1 0 -5 -6 -7 -14 -4 -7 3 -18 1 -23 -4 -6 -6
-10 -4 -10 6 0 8 5 15 10 15 6 0 5 5 -1 13 -5 6 -12 46 -15 87 -3 44 -14 94
-27 122 -11 26 -21 51 -21 55 -1 5 -6 17 -12 28 -6 11 -10 23 -9 28 1 4 -2 7
-7 7 -5 0 -14 14 -21 31 -8 17 -21 39 -31 48 -21 20 -59 87 -59 105 0 8 -3 16
-7 18 -11 4 -43 67 -43 83 0 7 -7 16 -16 19 -8 3 -13 10 -9 16 3 5 -35 50 -85
100 -49 49 -90 93 -90 96 0 13 -86 92 -117 108 -18 9 -45 29 -61 44 -63 61
-193 148 -204 136 -3 -2 -15 7 -28 21 -13 14 -29 25 -36 25 -7 0 -19 6 -26 13
-18 16 -100 57 -115 57 -6 0 -13 4 -15 9 -6 17 -85 48 -101 40 -9 -6 -29 -3
-51 6 -20 8 -36 12 -36 9 0 -4 -7 -1 -15 6 -9 8 -15 8 -15 2 0 -13 -50 -24
-101 -24 -32 1 -43 -5 -75 -43 -35 -42 -38 -43 -63 -30 -15 7 -47 16 -71 20
-42 5 -64 11 -115 31 -11 4 -22 8 -25 9 -8 2 -84 18 -95 20 -5 1 -13 3 -17 5
-5 1 -12 4 -18 5 -5 1 -12 4 -15 5 -3 1 -9 3 -14 4 -5 0 -22 12 -38 26 -43 39
-48 40 -61 19z"/>
</g>
</svg>
