<?xml version="1.0" standalone="no"?>
<!DOCTYPE svg PUBLIC "-//W3C//DTD SVG 20010904//EN"
 "http://www.w3.org/TR/2001/REC-SVG-20010904/DTD/svg10.dtd">
<svg version="1.0" xmlns="http://www.w3.org/2000/svg"
 width="545.000000pt" height="527.000000pt" viewBox="0 0 545.000000 527.000000"
 preserveAspectRatio="xMidYMid meet">
<metadata>
Created by potrace 1.13, written by Peter Selinger 2001-2015
</metadata>
<g transform="translate(0.000000,527.000000) scale(0.100000,-0.100000)"
fill="#000000" stroke="none">
<path d="M2399 4405 c-4 -3 -28 -8 -55 -10 -78 -7 -141 -20 -212 -45 -30 -11
-58 -17 -62 -15 -5 3 -11 -2 -14 -11 -4 -9 -9 -14 -13 -11 -3 4 -12 2 -20 -4
-7 -6 -13 -9 -13 -5 0 3 -18 -5 -39 -18 -21 -14 -42 -22 -45 -19 -3 4 -6 -1
-6 -10 0 -10 -3 -16 -7 -15 -12 4 -83 -40 -83 -52 0 -5 -7 -10 -15 -10 -8 0
-15 -4 -15 -10 0 -5 -7 -10 -15 -10 -9 0 -18 -7 -22 -15 -3 -11 -18 -15 -42
-15 -37 1 -53 -2 -83 -15 -10 -4 -25 -5 -33 -2 -8 4 -17 2 -20 -4 -4 -5 -10
-7 -15 -4 -5 3 -12 0 -15 -6 -4 -5 -13 -8 -21 -5 -8 3 -14 0 -14 -6 0 -9 -3
-9 -11 -1 -6 6 -18 9 -26 6 -8 -3 -31 13 -56 40 -38 41 -44 44 -67 35 -14 -6
-40 -12 -59 -13 -18 -2 -37 -9 -41 -16 -5 -7 -26 -32 -47 -57 -21 -24 -38 -48
-38 -52 0 -11 -86 -90 -97 -90 -4 0 -8 -5 -8 -10 0 -6 -12 -22 -27 -36 -26
-24 -28 -32 -26 -91 1 -36 5 -69 10 -72 4 -3 8 -10 8 -16 0 -5 11 -30 24 -54
21 -40 21 -45 6 -60 -13 -13 -34 -16 -113 -13 -123 3 -181 7 -188 15 -3 3 -11
4 -17 1 -7 -2 -32 -6 -57 -8 -72 -8 -77 -10 -108 -49 -16 -20 -32 -34 -34 -31
-6 6 -51 -53 -62 -81 -15 -37 -24 -85 -16 -85 6 0 5 -41 -4 -115 -3 -26 14
-43 49 -47 21 -2 29 -9 30 -25 1 -13 -2 -23 -6 -23 -4 0 -5 -8 -2 -18 4 -18
52 -55 67 -52 5 1 16 -10 25 -23 17 -26 71 -73 71 -62 0 3 10 -3 22 -14 11
-11 25 -18 30 -15 4 3 8 1 8 -5 0 -15 28 -7 49 15 10 10 33 30 50 44 17 14 31
30 31 37 0 7 5 13 10 13 6 0 9 3 9 8 -5 29 3 39 31 37 17 -1 38 6 49 17 11 10
25 18 30 18 6 0 15 8 20 18 7 14 21 18 55 17 25 0 46 3 46 6 0 9 16 6 68 -16
23 -10 42 -24 42 -32 0 -7 5 -13 11 -13 5 0 8 -4 4 -10 -3 -5 3 -18 14 -29 11
-11 17 -22 14 -25 -3 -3 2 -8 11 -12 9 -3 16 -11 16 -18 0 -6 9 -18 19 -26 11
-7 18 -17 16 -21 -3 -4 1 -9 9 -12 8 -3 17 -19 21 -36 4 -17 11 -31 17 -31 6
0 8 -7 5 -15 -4 -8 0 -27 8 -42 8 -15 15 -34 15 -40 0 -7 4 -13 10 -13 5 0 7
-7 4 -15 -4 -8 -1 -22 6 -30 7 -8 10 -15 6 -15 -4 0 1 -12 11 -27 9 -14 18
-32 19 -39 1 -8 12 -25 23 -40 11 -14 19 -30 16 -34 -3 -4 2 -11 11 -14 8 -3
12 -10 9 -16 -3 -5 -1 -10 4 -10 6 0 11 -7 11 -15 0 -8 5 -15 10 -15 6 0 9 -3
8 -8 -2 -4 6 -18 18 -30 12 -12 30 -40 40 -62 10 -22 22 -40 27 -40 4 0 7 -6
7 -14 0 -8 7 -16 15 -20 8 -3 15 -12 15 -20 0 -7 7 -17 16 -20 8 -3 12 -11 9
-16 -4 -6 3 -19 14 -29 12 -10 21 -22 21 -26 0 -4 25 -31 56 -61 30 -30 52
-54 48 -54 -4 0 6 -10 22 -22 16 -12 31 -25 34 -28 19 -20 120 -100 120 -95 0
4 14 -5 31 -19 17 -14 35 -24 40 -20 5 3 9 0 9 -5 0 -6 4 -10 9 -9 9 3 127
-70 171 -107 l26 -20 -108 2 c-59 1 -133 7 -165 14 -70 15 -72 16 -75 19 -2 1
-28 3 -58 5 -30 2 -57 4 -60 6 -13 6 -150 4 -150 -2 0 -4 -9 -9 -21 -12 -15
-4 -20 -12 -17 -30 2 -17 -8 -39 -27 -63 -17 -21 -30 -40 -30 -43 0 -3 -4 -11
-8 -18 -4 -7 0 -20 10 -31 10 -11 33 -37 52 -60 19 -23 38 -39 42 -36 4 2 10
0 14 -6 3 -6 0 -13 -8 -16 -21 -8 -9 -44 25 -74 51 -46 57 -50 76 -53 10 -1
40 -20 66 -42 44 -36 53 -39 118 -42 39 -2 76 1 83 7 7 5 33 8 58 6 26 -3 60
-1 77 4 17 5 28 5 26 1 -9 -14 29 -27 76 -27 27 1 48 -2 48 -5 0 -8 32 -5 47
4 6 4 15 3 18 -3 5 -8 12 -7 23 2 11 10 16 10 19 1 2 -7 10 -10 16 -7 7 2 18
-4 26 -14 12 -17 35 -19 76 -7 6 1 14 3 19 3 5 0 12 6 17 13 9 16 49 20 49 5
0 -6 7 -2 15 8 8 11 15 16 15 11 0 -5 7 0 15 11 8 10 15 15 15 11 0 -5 7 -1
16 7 8 9 28 16 44 16 16 0 30 7 34 16 3 8 10 13 15 10 5 -4 11 -2 13 4 2 6 27
1 63 -13 33 -12 67 -22 75 -22 8 1 21 -3 28 -8 6 -5 12 -6 12 -2 0 4 6 3 13
-2 6 -6 22 -9 35 -8 12 1 22 -3 22 -8 0 -6 3 -7 7 -4 3 4 21 -3 40 -14 18 -11
33 -17 33 -14 0 4 7 2 15 -5 18 -15 109 -20 143 -8 20 7 22 5 18 -16 -3 -16 1
-27 10 -30 9 -3 13 -10 9 -15 -3 -5 -1 -12 5 -16 6 -4 8 -10 5 -15 -3 -4 2
-11 11 -14 14 -6 14 -9 -6 -26 -13 -11 -29 -20 -36 -20 -7 0 -14 -5 -16 -10
-2 -6 -26 -13 -53 -15 -145 -13 -170 -20 -202 -55 -34 -38 -33 -57 3 -66 13
-3 24 -10 24 -16 0 -5 4 -7 8 -4 4 2 13 1 20 -3 8 -5 2 -17 -19 -40 l-31 -34
33 -28 c25 -21 40 -27 63 -23 22 4 27 3 17 -4 -22 -16 -22 -60 0 -67 10 -4 19
-10 19 -14 0 -9 45 -7 78 3 12 4 23 4 23 -1 1 -4 3 -21 5 -36 5 -45 20 -57 56
-46 18 5 35 14 40 21 4 7 8 9 8 4 0 -5 8 -2 17 5 9 8 14 9 10 3 -4 -7 5 -23
19 -37 l26 -26 71 56 c40 31 73 58 75 59 2 1 -4 15 -13 31 -17 28 -17 28 2 7
11 -12 30 -25 44 -29 13 -4 31 -13 39 -19 8 -7 29 -13 45 -15 17 -2 32 -7 35
-11 17 -27 146 -33 162 -7 4 6 8 8 8 2 0 -5 6 -3 13 5 7 9 27 22 45 29 17 7
32 17 32 22 0 5 3 8 8 6 4 -1 17 8 30 21 12 12 19 22 16 22 -4 0 -1 7 6 15 7
8 10 15 7 15 -3 0 3 26 13 58 10 32 17 73 16 90 -1 18 2 32 7 32 4 0 5 5 2 10
-3 6 -2 10 3 10 17 0 3 92 -25 156 -9 21 -16 42 -15 47 1 4 -3 7 -8 7 -6 0
-10 5 -10 10 0 6 -9 20 -20 32 -10 12 -17 24 -15 28 3 5 -2 10 -10 14 -8 3
-15 11 -15 18 0 10 2 10 9 0 14 -22 35 15 38 67 1 25 5 54 7 64 2 9 1 17 -4
17 -4 0 -6 10 -6 22 1 13 -1 30 -6 39 -6 13 -2 18 17 23 14 4 25 12 26 19 0 6
3 21 5 32 6 24 16 127 18 173 1 17 3 32 6 32 3 0 6 8 7 18 1 9 4 40 8 67 9 68
9 110 0 175 -8 49 -9 269 -2 345 1 17 -1 48 -5 70 -4 22 -10 87 -14 145 -3 58
-9 119 -13 135 -4 17 -6 41 -4 55 8 50 4 103 -9 111 -11 7 -10 9 1 9 10 0 10
5 -3 25 -9 14 -14 25 -11 25 3 0 -1 13 -9 29 -9 16 -12 31 -9 35 4 3 1 6 -6 6
-7 0 -10 4 -7 8 5 8 -59 142 -72 152 -11 8 -44 70 -37 70 4 0 -2 12 -12 28
-18 25 -26 42 -59 120 -23 54 -49 107 -54 112 -10 10 -31 45 -36 63 -4 9 -10
17 -15 17 -5 0 -9 6 -9 14 0 8 -7 17 -16 20 -9 4 -15 9 -12 12 7 7 -44 64 -57
64 -5 0 -24 14 -42 30 -18 17 -38 30 -45 30 -7 0 -34 20 -60 43 -64 58 -90 77
-106 77 -7 0 -11 4 -7 9 3 5 -6 18 -20 29 -13 11 -21 22 -18 26 3 3 2 6 -3 6
-13 0 -80 89 -77 101 2 5 -1 9 -6 9 -5 0 -23 14 -41 30 -18 17 -38 30 -46 30
-8 0 -14 4 -14 9 0 5 -14 11 -31 15 -16 3 -37 13 -45 21 -9 8 -24 16 -35 16
-20 2 -37 5 -41 9 -4 2 -32 7 -88 14 -71 9 -114 17 -131 27 -9 4 -26 6 -38 4
-11 -2 -21 0 -21 6 0 5 -3 8 -7 8 -5 -1 -10 -1 -13 1 -3 1 -16 4 -30 6 -45 9
-55 11 -75 19 -11 4 -33 13 -50 20 -16 6 -47 11 -68 10 -21 -1 -40 2 -42 6 -3
4 -16 6 -30 4 -14 -1 -25 2 -25 6 0 5 -11 4 -24 -1 -16 -6 -26 -5 -28 1 -2 6
-6 8 -9 4z m44 -180 c-3 -9 -8 -14 -10 -11 -3 3 -2 9 2 15 9 16 15 13 8 -4z
m232 -301 c18 -3 49 -33 42 -40 -3 -4 -12 -2 -19 2 -17 11 -32 12 -39 1 -8
-11 -39 3 -39 18 0 7 -5 15 -12 17 -9 3 -8 9 2 20 14 15 17 15 33 0 10 -9 24
-17 32 -18z m-208 -116 c2 -23 -13 -48 -28 -48 -16 0 -9 49 9 59 9 6 17 11 17
11 1 0 1 -10 2 -22z m869 -4 c-3 -7 -1 -16 4 -19 6 -4 10 -12 10 -18 0 -7 -7
-3 -15 7 -17 23 -20 60 -4 51 6 -4 8 -13 5 -21z m-228 -223 c12 -11 22 -24 22
-29 0 -6 6 -12 13 -15 6 -2 9 -7 6 -10 -3 -4 -22 11 -42 33 -38 42 -38 53 1
21z m-62 -29 c16 -16 45 -47 64 -68 34 -39 35 -41 17 -60 -12 -13 -17 -14 -15
-5 2 8 -10 21 -27 30 -38 18 -56 42 -44 57 6 7 2 19 -10 33 -16 18 -21 20 -33
8 -17 -17 -38 -11 -38 12 0 29 53 25 86 -7z m-96 -7 c0 -8 -6 -15 -14 -15 -7
0 -19 -7 -26 -15 -7 -9 -15 -13 -18 -10 -3 3 -12 0 -21 -7 -9 -6 2 5 24 25 44
40 55 44 55 22z m236 -25 c0 -12 -4 -16 -9 -11 -5 5 -6 14 -3 20 10 15 12 14
12 -9z m-347 -51 c-19 -11 -24 -3 -8 14 8 9 16 11 18 5 2 -6 -3 -14 -10 -19z
m-220 -3 c9 -11 7 -13 -11 -12 -13 1 -31 -2 -40 -6 -12 -6 -18 -5 -18 2 0 6
10 15 23 20 30 12 33 12 46 -4z m94 -10 c9 -7 17 -17 17 -21 0 -5 -8 -1 -18 8
-10 10 -22 14 -25 10 -4 -3 -7 -1 -7 5 0 15 11 15 33 -2z m91 -1 c-4 -8 -14
-15 -23 -15 -14 1 -13 3 3 15 25 19 27 19 20 0z m196 -18 c0 -12 9 -28 20 -35
12 -7 18 -17 15 -22 -9 -15 -42 -12 -78 7 -18 9 -39 17 -49 18 -9 0 -19 3 -23
6 -8 9 63 42 74 35 5 -3 12 1 15 10 8 21 26 8 26 -19z m590 -7 c0 -5 -4 -10
-10 -10 -5 0 -10 -6 -10 -13 0 -7 -9 -18 -20 -24 -16 -11 -21 -10 -29 5 -6 11
-6 24 0 33 7 11 9 11 9 0 0 -11 4 -10 23 2 26 19 37 21 37 7z m80 -71 c0 -5
-4 -9 -8 -9 -5 0 -9 7 -9 15 0 8 4 12 9 9 4 -3 8 -9 8 -15z m-547 -57 c-4 -19
-43 -49 -43 -34 0 5 3 12 8 16 4 4 8 12 8 17 3 17 4 19 18 19 9 0 12 -7 9 -18z
m-1131 -242 c14 -16 23 -30 20 -30 -4 0 0 -6 8 -13 8 -7 21 -22 27 -34 10 -18
10 -21 -1 -17 -7 3 -18 16 -24 30 -7 13 -16 24 -22 24 -5 0 -10 5 -10 11 0 15
-26 39 -34 32 -3 -4 -6 1 -6 10 0 25 12 21 42 -13z m1198 -15 c0 -8 -4 -15 -9
-15 -13 0 -22 16 -14 24 11 11 23 6 23 -9z m-1270 -50 c11 -13 10 -14 -4 -9
-9 3 -16 10 -16 15 0 13 6 11 20 -6z m-65 -45 c-3 -6 1 -17 9 -26 20 -19 20
-29 0 -48 -19 -20 -37 -11 -29 14 3 10 1 21 -5 25 -16 10 -12 33 8 38 9 3 18
5 20 6 2 0 0 -4 -3 -9z m250 -30 c11 -17 -5 -11 -28 11 l-22 21 22 -11 c12 -6
25 -16 28 -21z m1068 -65 c-3 -9 -8 -14 -10 -11 -3 3 -2 9 2 15 9 16 15 13 8
-4z m527 -15 c22 -11 40 -26 41 -33 0 -6 2 -20 4 -30 3 -15 -2 -17 -28 -13
-18 2 -34 5 -36 5 -2 1 2 7 8 15 9 11 6 20 -14 41 -38 42 -34 45 25 15z m-95
-60 c-3 -5 -11 -10 -16 -10 -6 0 -7 5 -4 10 3 6 11 10 16 10 6 0 7 -4 4 -10z
m-1476 -68 c-21 -15 -21 -16 -3 -29 18 -14 18 -15 -6 -34 -14 -11 -34 -28 -45
-38 -12 -9 -28 -20 -38 -24 -14 -5 -15 -4 -4 13 6 11 16 20 20 20 5 0 7 5 5
12 -3 7 8 25 24 42 15 16 26 31 23 34 -9 10 17 31 31 25 12 -4 10 -9 -7 -21z
m1461 -34 c-17 -28 -17 -34 -4 -52 19 -28 18 -46 -3 -46 -14 0 -15 2 -4 9 11
7 11 13 0 32 -12 22 -13 74 -3 91 3 4 11 5 19 2 11 -5 10 -11 -5 -36z m-1080
-47 c0 -5 -12 -16 -26 -26 -17 -11 -24 -12 -18 -4 21 34 44 50 44 30z m-91
-161 c5 0 25 -16 46 -34 21 -19 47 -36 58 -38 11 -2 22 -9 25 -16 3 -10 -2
-10 -25 0 -15 7 -31 16 -34 21 -3 5 -8 8 -10 6 -3 -2 -76 29 -87 37 -2 1 0 18
4 36 7 28 9 29 12 11 2 -13 7 -23 11 -23z m111 14 c0 -2 -9 0 -20 6 -11 6 -20
13 -20 16 0 2 9 0 20 -6 11 -6 20 -13 20 -16z m-139 -84 c10 -6 19 -15 19 -21
0 -6 -4 -8 -9 -5 -5 3 -22 -1 -37 -9 -31 -16 -40 -13 -28 7 5 7 9 16 10 21 3
16 4 17 15 17 6 0 19 -5 30 -10z m894 -10 c-4 -6 -10 -8 -15 -5 -5 3 -11 1
-15 -5 -3 -5 -11 -10 -16 -10 -5 0 -4 7 3 15 15 16 53 21 43 5z m-65 -24 c0
-3 -4 -8 -10 -11 -5 -3 -10 -1 -10 4 0 6 5 11 10 11 6 0 10 -2 10 -4z m-52
-20 c-10 -7 -18 -18 -18 -24 0 -6 -5 -14 -11 -18 -15 -9 0 38 15 48 20 13 32
8 14 -6z m242 -28 c0 -5 4 -7 9 -3 5 3 12 1 16 -5 4 -6 10 -8 15 -5 5 3 11 1
15 -4 10 -18 -50 0 -70 20 -17 17 -17 19 -2 13 9 -3 17 -10 17 -16z m-140 -51
c0 -5 -5 -5 -10 -2 -6 4 -25 1 -44 -5 -55 -18 -76 -20 -76 -7 0 7 12 14 26 15
15 1 32 6 38 11 28 22 65 15 66 -12z m47 -7 c3 -10 2 -11 -4 -4 -4 6 -15 14
-23 17 -11 5 -9 6 4 4 11 -1 21 -9 23 -17z m286 -36 c16 -14 26 -28 24 -31 -8
-7 -39 12 -61 36 -29 32 2 27 37 -5z m-603 -4 c13 -8 13 -10 -2 -10 -9 0 -20
5 -23 10 -8 13 5 13 25 0z m340 -18 c14 -6 32 -17 39 -26 7 -9 17 -14 21 -11
4 3 13 -2 20 -10 22 -27 -12 -18 -44 11 -21 20 -39 27 -74 28 -26 1 -47 6 -50
14 -4 14 45 10 88 -6z m146 -6 c8 -1 20 -8 26 -14 7 -7 17 -12 24 -12 6 0 17
-7 24 -15 9 -10 9 -15 1 -15 -6 0 -11 5 -11 10 0 6 -6 10 -12 10 -7 0 -35 11
-63 25 -27 14 -39 22 -26 19 13 -3 30 -7 37 -8z m-520 -51 c7 -5 10 -13 7 -17
-5 -9 -43 13 -43 24 0 10 21 6 36 -7z m536 -19 c3 2 8 -2 11 -9 4 -11 0 -13
-13 -10 -10 3 -21 12 -25 20 -4 12 -3 13 8 5 8 -7 16 -9 19 -6z m-197 -16 c3
-6 -4 -10 -17 -10 -18 0 -20 2 -8 10 19 12 18 12 25 0z m298 -31 c4 -5 4 -7 1
-4 -4 3 -14 -1 -22 -7 -24 -20 -44 -19 -37 3 4 11 2 19 -4 19 -6 0 -11 4 -11
9 0 11 60 -6 73 -20z m-263 -44 c17 -9 30 -20 30 -25 0 -16 -13 -11 -45 15
-34 28 -28 32 15 10z m-110 -35 c0 -5 -2 -10 -4 -10 -3 0 -8 5 -11 10 -3 6 -1
10 4 10 6 0 11 -4 11 -10z m221 -17 c15 -9 31 -24 34 -32 5 -12 2 -11 -13 2
-10 9 -23 17 -29 17 -6 0 -16 7 -23 15 -16 20 -5 19 31 -2z m-431 -136 c0 -5
9 -2 20 8 11 10 20 13 20 7 0 -6 -8 -15 -17 -19 -22 -10 -53 -10 -53 0 0 4 0
11 0 17 0 5 7 7 15 4 8 -4 15 -11 15 -17z m-85 3 c3 -6 -1 -7 -9 -4 -18 7 -21
14 -7 14 6 0 13 -4 16 -10z m35 0 c0 -5 -5 -10 -11 -10 -5 0 -7 5 -4 10 3 6 8
10 11 10 2 0 4 -4 4 -10z m465 -160 c3 -6 -1 -7 -9 -4 -18 7 -21 14 -7 14 6 0
13 -4 16 -10z m180 -40 c3 -6 -1 -7 -9 -4 -18 7 -21 14 -7 14 6 0 13 -4 16
-10z m-1305 -75 c0 -2 -9 -9 -20 -15 -12 -6 -20 -7 -20 -1 0 5 8 12 18 14 9 3
18 5 20 6 1 0 2 -1 2 -4z m-14 -135 c8 0 14 -4 14 -9 0 -5 -6 -8 -14 -7 -18 2
-46 26 -46 38 0 5 7 2 16 -6 8 -9 22 -16 30 -16z m1468 -111 c28 -33 31 -44
16 -54 -14 -9 0 -37 16 -31 9 3 14 -2 14 -14 0 -10 5 -22 10 -25 6 -4 7 -11 4
-17 -4 -7 -9 -7 -13 1 -5 7 -14 4 -29 -9 -12 -12 -22 -16 -22 -11 0 5 5 13 10
16 8 5 7 12 -2 22 -6 8 -13 22 -14 31 -2 8 -7 18 -13 21 -10 7 -9 24 4 54 5
12 2 22 -11 32 -11 8 -14 15 -7 15 6 0 23 -14 37 -31z m-58 -377 c19 -13 25
-42 8 -42 -9 0 -12 5 -8 12 4 6 -1 17 -11 25 -19 13 -9 19 11 5z m275 -49 c17
-16 41 -28 52 -28 28 -1 49 -14 42 -25 -14 -23 -95 10 -95 39 0 5 -9 13 -20
16 -11 3 -20 11 -20 16 0 14 8 11 41 -18z"/>
<path d="M491 2926 c-10 -12 -8 -17 8 -25 22 -12 37 0 27 24 -7 19 -20 19 -35
1z"/>
</g>
</svg>
