<?xml version="1.0" standalone="no"?>
<!DOCTYPE svg PUBLIC "-//W3C//DTD SVG 20010904//EN"
 "http://www.w3.org/TR/2001/REC-SVG-20010904/DTD/svg10.dtd">
<svg version="1.0" xmlns="http://www.w3.org/2000/svg"
 width="303.000000pt" height="149.000000pt" viewBox="0 0 303.000000 149.000000"
 preserveAspectRatio="xMidYMid meet">
<metadata>
Created by potrace 1.13, written by Peter Selinger 2001-2015
</metadata>
<g transform="translate(0.000000,149.000000) scale(0.100000,-0.100000)"
fill="#000000" stroke="none">
<path d="M1359 1485 c-3 -2 -66 -6 -140 -8 -74 -2 -154 -9 -179 -15 -25 -6
-85 -18 -135 -27 -162 -29 -224 -47 -231 -67 -3 -10 -12 -18 -19 -18 -23 0
-84 -34 -85 -47 0 -7 -20 -32 -45 -56 -43 -43 -45 -48 -45 -101 0 -45 -3 -56
-16 -56 -9 0 -46 -15 -83 -34 -179 -93 -267 -129 -323 -134 -67 -5 -78 -26
-28 -55 26 -16 47 -17 182 -11 193 8 293 -5 325 -43 13 -14 23 -34 23 -43 0
-20 50 -68 112 -106 26 -16 52 -40 58 -54 6 -14 28 -33 53 -44 39 -18 40 -20
17 -24 -74 -13 -111 -91 -87 -188 10 -43 20 -58 58 -87 25 -19 62 -40 82 -46
34 -12 37 -15 37 -52 0 -32 3 -39 20 -39 21 0 40 27 40 59 0 12 6 21 14 21 15
0 26 -30 26 -72 0 -20 5 -28 18 -28 21 0 42 43 42 87 0 23 5 33 15 33 11 0 15
-12 15 -50 0 -42 3 -50 19 -50 10 0 21 7 25 15 3 8 14 15 24 15 24 0 42 40 42
95 0 53 -16 92 -49 121 l-25 21 22 7 c12 4 22 12 22 18 0 7 30 8 88 4 93 -6
132 -14 132 -26 0 -23 223 -50 420 -50 111 0 144 4 188 20 107 41 136 23 156
-100 21 -128 43 -179 89 -203 27 -14 37 -25 37 -43 0 -29 32 -33 52 -6 20 29
48 35 48 12 0 -33 36 -25 49 10 12 37 37 39 45 4 5 -19 12 -25 29 -22 18 2 22
9 21 35 -1 23 3 33 17 36 26 7 24 38 -6 97 -27 54 -58 70 -94 51 -19 -11 -22
-7 -36 46 -24 88 -46 145 -66 175 -24 34 -24 34 11 47 17 5 30 17 30 25 0 9 8
16 18 16 11 0 27 14 38 35 19 36 32 43 51 24 6 -6 36 -9 72 -7 34 1 61 0 61
-4 0 -5 9 -8 20 -8 13 0 20 7 20 20 0 13 7 20 19 20 11 0 23 5 26 10 3 6 17
10 31 10 17 0 24 5 24 20 0 11 -4 20 -9 20 -5 0 -12 14 -16 30 -4 16 -11 30
-15 30 -34 0 59 104 108 121 17 6 32 15 32 20 0 5 5 9 11 9 7 0 45 34 87 75
74 76 74 76 79 139 6 71 -17 151 -46 161 -9 2 -97 -2 -197 -9 -166 -13 -184
-17 -219 -40 -21 -14 -43 -26 -50 -26 -12 0 -57 -46 -86 -86 -14 -22 -16 -21
-84 48 -56 56 -90 79 -173 119 -57 27 -124 54 -150 59 -26 5 -60 15 -77 23
-30 15 -88 40 -135 59 -14 6 -34 15 -44 20 -11 6 -72 14 -135 19 -64 5 -129
14 -145 19 -30 10 -119 14 -127 5z"/>
</g>
</svg>
