<?xml version="1.0" standalone="no"?>
<!DOCTYPE svg PUBLIC "-//W3C//DTD SVG 20010904//EN"
 "http://www.w3.org/TR/2001/REC-SVG-20010904/DTD/svg10.dtd">
<svg version="1.0" xmlns="http://www.w3.org/2000/svg"
 width="345.000000pt" height="175.000000pt" viewBox="0 0 345.000000 175.000000"
 preserveAspectRatio="xMidYMid meet">
<metadata>
Created by potrace 1.13, written by Peter Selinger 2001-2015
</metadata>
<g transform="translate(0.000000,175.000000) scale(0.100000,-0.100000)"
fill="#000000" stroke="none">
<path d="M1390 1737 c-14 -6 -63 -29 -110 -50 -125 -57 -133 -60 -159 -58 -34
4 -153 -19 -176 -34 -57 -35 -167 -162 -255 -292 -22 -34 -42 -53 -55 -53 -28
0 -117 -43 -136 -66 -9 -10 -27 -53 -39 -94 -32 -106 -40 -120 -65 -120 -41 0
-64 -31 -81 -105 -26 -113 -29 -198 -9 -218 24 -24 60 -21 72 6 10 21 11 21
26 -16 24 -55 6 -145 -37 -188 -57 -57 -68 -60 -193 -65 -143 -6 -173 -16
-173 -54 0 -27 2 -28 68 -33 37 -3 96 -11 132 -18 81 -17 172 -14 230 6 34 12
46 13 49 3 2 -6 14 -22 27 -35 13 -13 28 -32 33 -42 15 -26 82 -35 127 -16 20
8 45 15 55 15 39 0 89 73 89 130 0 21 6 30 23 35 12 4 50 20 85 36 35 16 67
29 71 29 4 0 24 16 44 35 33 32 41 35 74 29 21 -4 50 -19 66 -34 29 -30 134
-57 183 -47 14 2 49 -2 78 -9 74 -20 253 -17 361 5 57 11 113 16 153 13 67 -5
168 12 215 35 16 8 31 12 34 9 6 -6 -25 -91 -58 -162 -10 -23 -19 -56 -19 -75
0 -29 6 -59 35 -186 9 -38 49 -50 175 -49 l114 1 10 39 c6 26 5 61 -3 104 -12
63 -11 65 16 99 15 19 36 47 45 61 9 15 21 32 25 37 12 14 53 103 53 115 0 6
4 18 10 28 5 9 15 30 20 46 l11 29 34 -33 c26 -26 35 -42 35 -67 0 -37 20 -82
45 -103 19 -16 132 -23 140 -9 4 5 13 9 22 9 14 0 43 27 91 84 34 41 21 116
-33 191 -12 17 -31 51 -42 76 -12 26 -26 50 -32 53 -18 11 -13 22 17 35 15 7
57 32 93 56 73 49 128 65 229 67 115 2 217 72 219 150 1 35 -8 58 -24 58 -7 0
-24 13 -38 29 -47 57 -139 85 -277 86 l-95 0 -100 -60 c-86 -52 -154 -84 -176
-85 -4 0 -10 10 -13 23 -6 22 -81 78 -124 91 -12 4 -22 14 -22 22 0 8 -4 14
-8 14 -4 0 -15 12 -24 28 -9 15 -66 78 -127 140 -106 108 -113 113 -168 125
-37 7 -83 28 -128 56 -134 86 -128 84 -243 78 -78 -5 -113 -2 -145 9 -83 30
-233 64 -277 63 -25 0 -56 -5 -70 -12z m-153 -253 c-3 -3 -12 -4 -19 -1 -8 3
-5 6 6 6 11 1 17 -2 13 -5z m933 -68 c0 -20 -16 -36 -36 -36 -26 0 -30 10 -12
28 11 11 48 17 48 8z m-60 -50 c0 -2 -7 -7 -16 -10 -8 -3 -12 -2 -9 4 6 10 25
14 25 6z m50 -196 c0 -5 -4 -10 -10 -10 -5 0 -10 5 -10 10 0 6 5 10 10 10 6 0
10 -4 10 -10z m-225 -222 c6 -4 2 -8 -7 -8 -10 0 -18 7 -18 17 0 9 3 12 8 7 4
-5 12 -12 17 -16z"/>
</g>
</svg>
