<?xml version="1.0" standalone="no"?>
<!DOCTYPE svg PUBLIC "-//W3C//DTD SVG 20010904//EN"
 "http://www.w3.org/TR/2001/REC-SVG-20010904/DTD/svg10.dtd">
<svg version="1.0" xmlns="http://www.w3.org/2000/svg"
 width="333.000000pt" height="186.000000pt" viewBox="0 0 333.000000 186.000000"
 preserveAspectRatio="xMidYMid meet">
<metadata>
Created by potrace 1.13, written by Peter Selinger 2001-2015
</metadata>
<g transform="translate(0.000000,186.000000) scale(0.100000,-0.100000)"
fill="#000000" stroke="none">
<path d="M1845 1840 c-33 -6 -105 -22 -160 -36 -55 -14 -125 -32 -156 -39 -58
-12 -191 -72 -244 -110 -16 -11 -41 -26 -55 -32 -14 -6 -69 -51 -122 -99 -100
-93 -150 -132 -226 -175 -42 -24 -105 -83 -113 -107 -3 -7 -33 -1 -92 18 -80
27 -100 30 -222 30 -128 0 -135 -1 -163 -25 -19 -16 -42 -25 -63 -25 -19 0
-47 -9 -64 -20 -16 -11 -38 -20 -48 -20 -43 0 -86 -31 -97 -69 -12 -42 -14
-171 -2 -171 4 0 13 -12 20 -27 13 -28 76 -81 141 -119 20 -11 46 -28 57 -38
27 -23 168 -80 236 -96 29 -7 73 -19 97 -26 25 -8 55 -14 69 -14 20 0 23 -4
18 -27 -12 -60 -8 -200 8 -268 29 -124 29 -117 -8 -158 -19 -20 -38 -37 -43
-37 -16 0 -53 -58 -53 -84 0 -29 9 -31 148 -45 119 -13 174 2 217 56 l30 38
-2 179 c-2 201 1 208 65 208 42 0 144 -20 152 -31 13 -18 138 -45 265 -57 171
-17 310 -18 446 -3 57 6 149 12 204 13 366 10 432 21 534 90 30 20 46 26 49
17 2 -6 14 -24 27 -39 12 -15 29 -41 38 -58 8 -16 36 -49 61 -72 25 -23 46
-49 46 -57 0 -8 9 -20 20 -27 11 -7 20 -20 20 -30 0 -18 -39 -91 -52 -96 -13
-6 -9 -42 5 -42 9 0 12 -11 9 -35 -4 -32 -2 -35 21 -35 14 0 29 6 34 13 5 8 9
2 13 -18 7 -39 41 -46 64 -13 13 18 16 19 16 5 0 -28 44 -20 88 15 22 18 65
52 96 75 42 32 56 49 56 68 0 14 4 25 10 25 5 0 7 27 3 68 -5 58 -11 74 -45
118 -21 28 -65 73 -99 99 -33 26 -66 57 -74 68 -15 24 -23 102 -12 113 4 4 60
11 124 16 156 11 163 13 163 44 0 29 -20 51 -72 83 -38 23 -43 51 -8 51 19 0
30 19 30 50 0 10 -23 45 -51 77 -53 60 -87 123 -139 258 -40 101 -99 196 -154
244 -16 14 -65 62 -110 107 -131 132 -188 156 -501 220 -86 18 -369 26 -450
14z"/>
</g>
</svg>
