<?xml version="1.0" standalone="no"?>
<!DOCTYPE svg PUBLIC "-//W3C//DTD SVG 20010904//EN"
 "http://www.w3.org/TR/2001/REC-SVG-20010904/DTD/svg10.dtd">
<svg version="1.0" xmlns="http://www.w3.org/2000/svg"
 width="343.000000pt" height="325.000000pt" viewBox="0 0 343.000000 325.000000"
 preserveAspectRatio="xMidYMid meet">
<metadata>
Created by potrace 1.13, written by Peter Selinger 2001-2015
</metadata>
<g transform="translate(0.000000,325.000000) scale(0.100000,-0.100000)"
fill="#000000" stroke="none">
<path d="M638 2659 c-16 -4 -28 -5 -28 -2 0 2 -13 -5 -30 -17 -16 -12 -30 -18
-30 -13 0 4 -11 -4 -25 -19 -14 -15 -22 -33 -19 -41 3 -8 -2 -20 -10 -27 -9
-7 -13 -16 -10 -21 3 -5 1 -9 -4 -9 -7 0 -9 -39 -2 -47 2 -2 3 -7 4 -13 2 -15
67 -81 75 -75 5 2 17 -2 27 -10 10 -8 25 -15 32 -15 7 0 24 -11 37 -24 44 -44
89 -72 160 -99 39 -15 86 -42 106 -60 20 -17 46 -39 58 -47 20 -14 31 -47 11
-35 -5 3 -10 2 -10 -4 0 -5 -28 -27 -62 -49 -35 -22 -74 -49 -87 -61 -13 -11
-28 -18 -32 -15 -5 3 -9 -2 -9 -11 0 -9 -4 -14 -9 -10 -5 3 -17 -5 -25 -17
-12 -16 -27 -23 -54 -24 -63 -2 -68 -3 -93 -26 -23 -22 -36 -88 -17 -88 4 0 8
-5 8 -11 0 -12 12 -24 53 -56 15 -12 28 -24 27 -28 -1 -10 25 -32 48 -39 12
-4 22 -11 22 -15 0 -10 42 -29 80 -36 39 -8 90 4 90 21 0 8 4 13 9 10 5 -3 27
12 50 33 22 21 41 37 41 34 0 -2 7 2 15 11 8 8 15 20 15 26 0 6 4 9 9 5 6 -3
24 8 41 25 18 17 33 30 34 28 107 -154 126 -188 106 -188 -29 0 -33 -1 -55
-13 -11 -6 -24 -11 -29 -12 -5 0 -14 -8 -20 -17 -8 -14 -3 -24 26 -52 20 -20
39 -45 43 -56 3 -11 11 -20 16 -20 5 0 9 -7 9 -15 0 -8 4 -15 8 -15 12 0 54
-37 50 -44 -6 -11 63 -47 75 -39 7 4 23 9 37 11 14 2 32 13 41 24 l17 21 27
-21 c15 -12 25 -22 22 -22 -3 0 9 -15 26 -33 55 -57 91 -102 89 -109 -1 -5 2
-8 8 -8 5 0 10 -4 10 -10 0 -11 26 -44 53 -69 9 -8 17 -21 17 -27 0 -6 7 -17
15 -24 9 -7 14 -15 12 -17 -2 -2 11 -20 30 -41 19 -20 42 -53 51 -72 9 -19 32
-50 52 -70 20 -19 49 -53 65 -75 16 -22 42 -53 57 -69 15 -15 26 -32 23 -36
-3 -5 1 -13 10 -17 8 -5 16 -22 19 -38 3 -29 6 -37 32 -103 13 -32 11 -36 -22
-31 -3 0 -19 -14 -35 -32 -19 -21 -25 -35 -18 -40 8 -5 8 -8 -1 -14 -31 -19
12 -87 105 -163 17 -13 73 -31 79 -25 3 4 6 2 6 -3 0 -5 8 -11 18 -12 23 -2
44 -8 62 -16 9 -3 25 -5 37 -3 28 4 93 55 93 73 0 25 19 15 46 -25 31 -48 52
-58 70 -34 12 17 12 72 -1 93 -3 5 18 21 47 34 32 15 69 43 93 72 22 26 46 53
53 60 7 8 10 18 7 24 -3 5 -2 10 3 10 12 0 34 59 27 70 -3 5 0 21 6 37 10 24
19 78 22 121 0 6 5 12 10 12 6 0 7 3 4 7 -4 3 -2 12 4 20 6 7 8 13 5 13 -4 0
2 13 14 30 12 16 19 30 15 30 -3 0 5 10 18 22 13 13 22 29 20 36 -3 6 0 12 6
12 6 0 11 7 11 15 0 8 5 15 11 15 5 0 7 5 4 10 -3 6 -2 10 4 10 5 0 15 17 22
38 6 20 16 46 22 57 6 11 12 27 14 35 17 92 21 169 12 225 -4 22 -9 54 -12 70
-7 47 -29 115 -37 115 -4 0 -7 6 -7 13 1 12 -33 88 -44 97 -4 3 -24 28 -45 55
-20 28 -57 69 -82 93 -24 24 -42 46 -39 48 3 3 -19 28 -49 57 -29 28 -52 53
-49 55 2 2 -19 23 -48 45 -29 23 -62 50 -73 62 -12 11 -31 27 -44 35 -28 19
-93 80 -85 80 3 0 -14 20 -38 45 -24 24 -42 46 -40 49 3 2 -7 12 -21 21 -14
10 -23 21 -20 26 3 5 2 9 -3 9 -4 0 -30 21 -58 45 -27 25 -79 59 -115 77 -36
18 -68 37 -72 43 -4 5 -8 6 -8 1 0 -5 -8 -3 -17 6 -25 20 -73 39 -83 33 -5 -3
-10 -1 -12 5 -1 5 -12 11 -23 13 -11 1 -24 5 -30 8 -5 4 -19 5 -30 2 -11 -2
-31 -5 -45 -8 -14 -2 -26 -4 -27 -6 -4 -2 -12 -4 -63 -14 -64 -12 -84 -13 -95
-6 -5 3 -21 7 -34 9 -13 2 -34 10 -47 18 -27 19 -37 14 -84 -40 -80 -94 -94
-104 -136 -104 -21 0 -45 5 -53 11 -8 7 -15 10 -17 7 -3 -6 -86 64 -157 134
-29 28 -65 61 -79 73 -25 21 -113 63 -126 62 -4 -1 -9 0 -12 1 -16 6 -50 11
-85 13 -22 1 -44 5 -50 8 -5 4 -22 3 -37 -2z"/>
</g>
</svg>
