<?xml version="1.0" standalone="no"?>
<!DOCTYPE svg PUBLIC "-//W3C//DTD SVG 20010904//EN"
 "http://www.w3.org/TR/2001/REC-SVG-20010904/DTD/svg10.dtd">
<svg version="1.0" xmlns="http://www.w3.org/2000/svg"
 width="306.000000pt" height="296.000000pt" viewBox="0 0 306.000000 296.000000"
 preserveAspectRatio="xMidYMid meet">
<metadata>
Created by potrace 1.13, written by Peter Selinger 2001-2015
</metadata>
<g transform="translate(0.000000,296.000000) scale(0.100000,-0.100000)"
fill="#000000" stroke="none">
<path d="M232 2329 c-41 -19 -43 -22 -42 -62 1 -23 -2 -65 -5 -92 -8 -60 -4
-66 82 -99 43 -16 59 -28 61 -44 2 -16 10 -22 27 -22 13 0 37 -13 53 -30 17
-16 38 -30 48 -30 9 0 14 -3 11 -7 -9 -8 13 -34 23 -28 4 2 20 -9 35 -25 16
-17 35 -30 42 -30 11 0 47 -27 88 -67 7 -7 19 -14 26 -15 22 -5 61 -42 71 -68
5 -14 14 -47 19 -74 5 -27 18 -56 29 -66 11 -10 20 -22 20 -29 0 -6 5 -11 10
-11 6 0 10 -6 10 -14 0 -8 6 -21 14 -28 12 -12 11 -19 -2 -49 -8 -19 -14 -42
-13 -52 1 -10 -2 -24 -8 -31 -10 -12 -18 -43 -20 -73 -1 -10 -7 -10 -26 -1
-23 10 -29 8 -66 -31 -26 -27 -42 -53 -44 -74 -2 -18 -7 -46 -10 -63 -5 -27
-1 -35 29 -58 38 -29 57 -32 89 -14 42 22 87 27 103 11 11 -12 18 -12 29 -3 8
7 23 10 34 7 12 -3 27 7 47 31 16 19 28 38 27 43 -2 5 2 9 8 9 5 0 8 3 6 8 -2
4 1 22 7 41 l12 33 31 -26 c26 -22 48 -31 84 -35 4 -1 24 -17 45 -36 35 -31
54 -39 92 -38 6 1 12 -3 12 -8 0 -5 3 -8 8 -7 4 0 14 -2 22 -5 47 -20 103 -36
111 -31 5 3 9 0 9 -5 0 -6 3 -10 8 -9 4 1 18 -4 32 -12 14 -7 27 -13 30 -12 3
1 23 -3 45 -9 22 -6 58 -13 80 -15 58 -5 105 -13 116 -19 5 -4 9 -1 9 5 0 6 5
8 13 3 15 -9 28 -12 92 -18 63 -6 116 -14 133 -20 6 -2 12 0 12 5 0 5 16 2 35
-6 19 -8 37 -14 40 -14 20 -1 89 -50 70 -50 -3 0 2 -11 10 -24 15 -23 14 -25
-20 -61 -35 -35 -67 -103 -62 -128 3 -15 30 -37 38 -31 4 2 5 -5 2 -16 -3 -11
-1 -21 3 -21 5 -1 20 -3 34 -4 13 -1 26 -7 28 -13 4 -14 32 -4 32 12 0 6 9 17
20 23 16 11 18 10 14 -2 -4 -9 -1 -22 6 -30 14 -16 40 -9 40 12 0 8 4 12 9 8
5 -3 12 -1 15 3 3 5 19 8 35 7 18 -1 32 4 35 12 3 8 10 11 16 8 5 -3 10 -3 10
2 0 4 14 23 30 42 17 18 31 39 31 45 1 6 3 34 4 61 2 28 5 55 6 61 4 12 -59
74 -74 74 -21 0 7 20 28 20 13 0 27 5 30 10 4 6 10 8 15 5 5 -3 15 4 24 16 13
19 21 21 60 16 25 -4 68 -18 96 -32 27 -14 65 -25 85 -25 29 0 35 4 35 21 0
12 -16 43 -35 70 -47 65 -52 92 -25 119 l22 22 -21 22 c-12 12 -21 32 -21 44
0 32 -29 201 -42 242 -19 63 -67 161 -100 203 -42 53 -153 161 -195 190 -18
12 -33 25 -33 29 0 4 -26 34 -57 67 -32 33 -82 85 -111 115 -29 31 -60 56 -68
56 -8 0 -14 4 -14 9 0 11 -60 33 -60 23 0 -4 -4 -1 -9 6 -4 7 -25 14 -47 16
-23 2 -68 21 -112 46 -88 52 -153 69 -297 77 -60 3 -117 9 -126 14 -47 24
-122 26 -155 4 -12 -8 -44 -19 -71 -26 -26 -6 -68 -20 -93 -32 -25 -11 -61
-20 -80 -19 -37 2 -102 9 -110 12 -31 13 -140 -22 -140 -45 0 -6 -11 -17 -24
-23 -20 -9 -26 -7 -45 19 -12 17 -32 34 -44 39 -22 8 -33 16 -109 78 -32 26
-49 32 -86 32 -26 0 -90 2 -142 5 -81 4 -101 2 -138 -16z"/>
</g>
</svg>
