<?xml version="1.0" standalone="no"?>
<!DOCTYPE svg PUBLIC "-//W3C//DTD SVG 20010904//EN"
 "http://www.w3.org/TR/2001/REC-SVG-20010904/DTD/svg10.dtd">
<svg version="1.0" xmlns="http://www.w3.org/2000/svg"
 width="252.000000pt" height="174.000000pt" viewBox="0 0 252.000000 174.000000"
 preserveAspectRatio="xMidYMid meet">
<metadata>
Created by potrace 1.13, written by Peter Selinger 2001-2015
</metadata>
<g transform="translate(0.000000,174.000000) scale(0.100000,-0.100000)"
fill="#000000" stroke="none">
<path d="M1295 1730 c-50 -10 -95 -28 -115 -44 -8 -7 -51 -18 -95 -25 -70 -12
-108 -23 -240 -74 -38 -15 -111 -65 -140 -96 -13 -13 -29 -30 -36 -38 -8 -8
-29 -24 -48 -36 -24 -15 -42 -40 -60 -82 -14 -33 -43 -90 -63 -126 -33 -58
-45 -70 -93 -94 -101 -49 -135 -88 -145 -164 l-5 -44 -94 -3 c-93 -3 -131 -17
-131 -48 0 -6 -7 -23 -15 -39 -19 -37 -21 -266 -1 -292 21 -29 121 -32 209 -7
40 11 118 23 175 26 110 7 124 3 184 -52 15 -13 48 -28 74 -33 87 -16 124 -45
124 -95 0 -8 7 -17 15 -20 8 -4 15 -16 15 -28 0 -12 7 -31 15 -42 21 -27 18
-42 -7 -46 -21 -3 -23 -9 -26 -69 -2 -47 1 -71 11 -81 8 -8 22 -28 31 -46 15
-29 21 -32 62 -32 49 0 69 13 79 53 8 31 48 67 75 67 11 0 20 7 20 15 0 8 9
24 20 35 24 24 26 78 6 118 -7 15 -17 37 -20 50 -7 20 -4 22 32 22 22 0 53 7
68 15 16 8 52 15 79 15 28 0 64 7 80 16 17 8 57 24 89 35 33 11 69 27 80 35
11 8 28 14 36 14 23 0 114 45 183 91 32 21 61 39 63 39 3 0 10 5 17 10 7 6 55
38 107 72 52 34 97 64 100 68 3 3 28 16 56 28 52 22 81 20 131 -6 17 -9 19
-19 15 -64 -6 -73 21 -133 60 -133 15 -1 30 -4 34 -8 11 -11 44 -8 44 3 0 6
12 10 26 10 20 0 25 5 24 23 -1 12 -2 31 -1 42 1 18 2 19 12 3 16 -28 49 -23
49 6 0 14 12 39 27 57 23 27 28 44 31 99 4 62 2 70 -24 101 -16 19 -34 43 -40
54 -8 15 -25 21 -69 25 -52 4 -57 7 -44 20 24 27 39 59 39 86 0 31 13 57 55
109 31 38 39 63 52 148 l5 39 -62 -3 c-62 -3 -63 -2 -99 38 -20 23 -47 45 -61
48 -29 9 -163 74 -170 84 -12 16 -108 79 -137 90 -18 7 -40 11 -48 7 -8 -3
-52 1 -98 9 -45 7 -138 18 -207 24 -69 6 -141 15 -160 21 -40 11 -97 12 -155
0z"/>
</g>
</svg>
