<?xml version="1.0" standalone="no"?>
<!DOCTYPE svg PUBLIC "-//W3C//DTD SVG 20010904//EN"
 "http://www.w3.org/TR/2001/REC-SVG-20010904/DTD/svg10.dtd">
<svg version="1.0" xmlns="http://www.w3.org/2000/svg"
 width="379.000000pt" height="356.000000pt" viewBox="0 0 379.000000 356.000000"
 preserveAspectRatio="xMidYMid meet">
<metadata>
Created by potrace 1.13, written by Peter Selinger 2001-2015
</metadata>
<g transform="translate(0.000000,356.000000) scale(0.100000,-0.100000)"
fill="#000000" stroke="none">
<path d="M1707 2843 c-3 -5 -23 -9 -42 -8 -20 1 -38 -2 -41 -7 -3 -5 -12 -4
-20 3 -11 9 -14 9 -14 0 0 -7 -6 -11 -12 -10 -14 2 -33 -2 -138 -29 -36 -9
-68 -17 -72 -18 -5 -1 -9 -2 -10 -4 -12 -9 -46 -6 -58 5 -16 14 -45 22 -116
32 -36 5 -49 1 -87 -25 -24 -17 -47 -28 -51 -25 -3 4 -6 2 -6 -4 0 -6 -19 -21
-41 -32 -36 -19 -44 -20 -63 -8 -36 23 -72 15 -123 -28 -26 -22 -50 -39 -53
-38 -3 1 -26 -21 -52 -50 -52 -55 -59 -84 -29 -111 15 -14 24 -15 40 -6 24 12
26 5 10 -36 -13 -36 -98 -114 -115 -107 -8 3 -14 -1 -14 -8 0 -9 -3 -10 -11
-2 -6 6 -24 8 -42 4 -37 -8 -67 -4 -67 10 0 5 -7 9 -15 9 -8 0 -19 9 -25 20
-6 11 -17 20 -26 20 -8 0 -33 17 -55 38 -22 20 -56 45 -77 54 -35 16 -37 16
-54 -4 -10 -12 -18 -23 -18 -25 0 -6 19 -24 55 -52 17 -12 29 -25 28 -27 -3
-4 5 -14 62 -77 19 -20 35 -40 35 -44 0 -13 49 -47 113 -76 57 -27 67 -35 61
-52 -5 -20 -6 -25 -1 -80 3 -42 42 -92 77 -100 16 -4 33 -6 36 -5 4 1 10 -3
14 -9 9 -15 70 -33 70 -21 0 5 7 7 15 4 8 -4 15 -1 15 6 0 6 4 9 8 6 11 -7 62
38 62 54 0 10 3 10 15 0 8 -7 15 -9 15 -5 0 4 6 2 13 -4 8 -6 17 -8 20 -4 4 3
7 1 7 -6 0 -7 8 -11 18 -10 9 1 20 0 25 -1 4 -1 12 -4 17 -5 6 -1 11 -3 13 -5
8 -7 50 -13 97 -14 30 -1 64 -7 75 -14 11 -6 16 -12 11 -12 -5 0 -1 -9 9 -20
10 -11 19 -35 20 -55 3 -48 99 -167 127 -158 5 2 8 -4 8 -12 0 -8 5 -15 10
-15 6 0 10 -5 10 -11 0 -21 199 -201 228 -205 8 -2 18 -7 21 -12 3 -5 16 -12
29 -16 12 -4 22 -11 22 -16 0 -4 10 -11 23 -15 12 -4 24 -8 27 -10 3 -1 13 -5
22 -9 10 -5 16 -11 13 -16 -2 -4 12 -20 32 -36 20 -16 41 -33 48 -39 15 -14
105 -59 122 -61 30 -5 45 -14 40 -27 -2 -6 -8 -12 -13 -12 -18 -1 -94 -46 -94
-55 0 -6 -3 -9 -7 -9 -5 1 -11 0 -15 -1 -5 -1 -12 -3 -17 -4 -23 -3 -74 -51
-87 -82 -8 -19 -19 -34 -24 -34 -5 0 -7 -7 -4 -15 4 -8 2 -15 -4 -15 -5 0 -13
-11 -16 -25 -4 -14 -10 -25 -15 -25 -8 0 -8 -32 1 -73 3 -10 19 -27 36 -37 18
-11 32 -24 32 -29 0 -5 10 -13 22 -17 23 -7 48 -28 48 -39 0 -12 28 -35 42
-35 18 0 100 69 93 79 -2 5 4 17 14 27 9 11 16 25 14 31 -5 13 53 34 97 35 16
1 30 5 30 10 0 5 4 7 9 3 5 -3 13 0 16 6 4 5 13 8 21 5 7 -3 16 -1 19 4 4 6
15 10 26 10 10 0 19 5 19 10 0 6 6 10 14 10 8 0 22 8 32 17 9 10 22 18 28 18
18 2 50 18 58 29 11 16 18 3 24 -47 3 -30 1 -47 -6 -47 -5 0 -10 -7 -10 -15 0
-8 -4 -15 -9 -15 -10 0 -17 -18 -25 -60 -5 -33 19 -90 37 -90 8 0 21 -10 30
-23 8 -12 23 -24 33 -25 82 -9 111 -8 132 4 17 11 22 12 22 2 1 -8 5 -7 14 4
7 10 16 15 19 12 8 -9 36 38 39 66 2 14 6 27 10 30 3 3 9 31 11 62 3 31 10 65
15 75 5 10 9 33 8 51 -1 31 1 32 29 28 17 -2 30 -5 30 -6 0 -2 18 -4 40 -5 76
-5 165 -24 165 -36 0 -5 6 -9 14 -9 7 0 29 -13 47 -30 19 -16 39 -30 45 -30 6
0 18 -9 25 -21 8 -11 23 -22 34 -24 11 -2 20 -4 20 -5 0 -2 16 -4 93 -13 22
-3 32 0 32 9 0 7 6 11 13 8 28 -10 82 65 58 81 -6 3 -10 25 -9 49 0 23 -6 54
-13 67 -7 13 -12 27 -11 32 1 4 -2 7 -8 7 -5 0 -10 5 -10 12 0 6 -18 29 -40
50 -22 22 -40 43 -40 48 0 4 -17 20 -37 36 -21 15 -41 33 -45 38 -4 6 -8 7 -8
2 0 -5 -6 -3 -14 3 -8 7 -29 14 -48 16 -18 2 -54 8 -79 13 -25 5 -53 8 -62 6
-9 -1 -17 2 -17 7 0 6 -4 8 -9 5 -5 -4 -30 3 -56 14 -34 15 -45 24 -38 33 10
14 11 57 1 73 -4 6 -9 22 -12 37 -2 15 -8 32 -13 39 -4 7 -9 69 -10 138 -2
141 -9 245 -16 257 -3 5 -2 15 3 22 5 9 -2 23 -21 42 -17 16 -26 29 -22 29 4
0 -3 9 -15 20 -12 12 -23 27 -23 35 -2 23 -4 29 -17 51 -6 12 -14 40 -18 63
-4 22 -10 41 -14 41 -4 0 -11 16 -14 35 -4 19 -11 35 -15 35 -8 0 -22 12 -86
68 -16 15 -31 24 -32 22 -2 -3 -14 3 -28 14 -13 10 -22 22 -19 27 3 5 0 9 -5
9 -6 0 -11 7 -11 15 0 8 -4 15 -10 15 -5 0 -10 7 -10 15 0 8 -5 15 -11 15 -5
0 -8 4 -5 9 3 5 -1 12 -10 15 -8 3 -13 10 -10 15 3 5 -1 12 -10 15 -9 4 -14 9
-10 13 3 3 -3 12 -14 20 -11 8 -20 19 -20 25 0 7 -20 31 -46 54 -43 40 -79 56
-209 90 -42 10 -44 11 -50 14 -3 1 -8 3 -12 4 -5 1 -22 5 -39 10 -17 4 -42 18
-55 32 -30 32 -145 87 -169 81 -11 -3 -21 0 -23 6 -2 8 -5 8 -10 0z m204 -270
c13 -16 12 -17 -3 -4 -10 7 -18 15 -18 17 0 8 8 3 21 -13z m667 -650 c9 -9 8
-14 -7 -22 -14 -8 -22 -6 -35 8 -9 10 -13 20 -10 24 10 9 40 4 52 -10z m-158
-189 c0 -8 -5 -12 -10 -9 -6 4 -8 11 -5 16 9 14 15 11 15 -7z m-318 -19 c3
-13 1 -22 -3 -19 -9 5 -13 44 -5 44 2 0 6 -11 8 -25z"/>
</g>
</svg>
