<?xml version="1.0" standalone="no"?>
<!DOCTYPE svg PUBLIC "-//W3C//DTD SVG 20010904//EN"
 "http://www.w3.org/TR/2001/REC-SVG-20010904/DTD/svg10.dtd">
<svg version="1.0" xmlns="http://www.w3.org/2000/svg"
 width="449.000000pt" height="311.000000pt" viewBox="0 0 449.000000 311.000000"
 preserveAspectRatio="xMidYMid meet">
<metadata>
Created by potrace 1.13, written by Peter Selinger 2001-2015
</metadata>
<g transform="translate(0.000000,311.000000) scale(0.100000,-0.100000)"
fill="#000000" stroke="none">
<path d="M1585 3070 c-85 -22 -135 -42 -135 -52 0 -4 -5 -8 -12 -8 -6 0 -25
-10 -42 -23 -40 -30 -259 -140 -311 -157 -101 -32 -274 -171 -347 -278 -17
-26 -34 -49 -37 -52 -7 -5 -17 -24 -60 -103 -31 -59 -73 -181 -92 -274 -10
-46 -19 -65 -35 -74 -13 -6 -30 -27 -39 -45 -9 -19 -20 -34 -25 -34 -6 0 -22
-19 -37 -42 -38 -62 -50 -68 -122 -65 -54 2 -65 -1 -75 -17 -6 -11 -21 -31
-34 -44 -22 -23 -23 -32 -21 -121 1 -53 -2 -139 -6 -192 l-8 -96 43 -47 c23
-25 49 -46 56 -46 8 0 14 -4 14 -8 0 -4 22 -16 50 -26 52 -19 61 -36 37 -66
-15 -18 -75 -69 -107 -90 -12 -8 -28 -19 -34 -25 -6 -5 -33 -25 -60 -44 -56
-39 -100 -80 -114 -107 -5 -10 -13 -57 -17 -104 -8 -99 4 -136 59 -193 19 -20
40 -48 48 -64 15 -32 58 -43 78 -19 18 23 27 20 45 -14 14 -27 21 -30 60 -30
25 0 45 4 45 10 0 6 10 6 28 -1 30 -12 130 -4 167 13 20 9 24 20 30 88 5 52 3
85 -5 99 -9 18 -7 26 14 51 14 17 28 49 31 73 14 90 133 169 202 134 16 -9 65
-23 108 -31 69 -14 138 -39 155 -56 13 -13 131 -81 180 -103 78 -35 311 -112
405 -133 17 -4 35 -10 40 -14 49 -35 430 -48 545 -18 36 9 103 20 150 24 l85
6 -40 -30 c-22 -16 -58 -46 -80 -66 -22 -20 -75 -55 -119 -79 -86 -46 -93 -50
-151 -89 -72 -48 -114 -92 -121 -126 -5 -24 -3 -33 10 -38 11 -4 16 -19 16
-53 0 -81 4 -86 76 -100 35 -7 75 -10 89 -7 20 5 25 3 25 -13 0 -34 24 -43 97
-37 37 4 99 9 138 12 55 5 74 11 94 30 13 13 28 24 34 24 14 0 57 49 57 65 0
7 9 17 20 20 11 3 20 11 20 16 0 5 6 9 14 9 8 0 22 13 32 29 12 20 23 27 35
24 20 -6 68 21 82 44 4 7 14 13 20 13 7 0 19 9 27 20 8 11 20 20 27 20 7 0 13
6 13 14 0 15 34 29 62 26 24 -2 54 28 73 72 8 20 21 41 28 45 8 4 22 33 32 63
10 30 23 58 30 62 7 4 16 24 19 43 4 21 13 35 21 35 8 0 48 16 89 35 41 19 79
35 84 35 5 0 15 7 22 15 7 8 28 17 49 21 62 12 135 49 168 87 23 27 34 33 41
24 6 -7 31 -21 56 -32 27 -12 46 -27 46 -36 0 -42 -38 -96 -132 -188 -35 -33
-38 -41 -38 -90 l0 -54 33 6 c17 4 42 9 55 13 21 6 22 3 22 -40 l0 -46 41 0
c30 0 46 6 60 22 18 22 18 22 19 2 0 -28 19 -44 50 -44 26 0 48 16 75 55 13
20 14 20 42 -7 45 -43 70 -34 92 35 10 30 16 36 26 27 8 -6 26 -10 41 -8 26 3
29 8 45 83 23 102 23 105 0 105 -11 0 -23 5 -27 11 -4 7 0 9 14 5 19 -6 117
16 152 35 8 4 27 10 43 14 39 8 104 70 112 107 4 16 16 50 27 75 25 57 20 90
-27 185 -83 170 -123 207 -280 260 -44 15 -74 27 -67 28 45 1 -36 123 -122
183 -8 5 -7 10 3 16 21 14 7 51 -52 138 -30 43 -73 112 -97 153 -40 68 -112
151 -165 190 -11 8 -32 31 -46 50 -15 19 -37 46 -49 60 -12 14 -30 36 -39 50
-27 42 -31 47 -191 211 -85 88 -173 180 -195 204 -22 25 -43 45 -46 45 -4 0
-44 21 -90 47 -45 25 -112 56 -148 69 -77 27 -178 70 -241 104 -61 33 -129 58
-232 86 -77 21 -96 22 -169 14 -135 -16 -296 -13 -379 6 -111 25 -175 26 -255
4z m403 -259 c-11 -4 -48 28 -48 41 0 5 13 -1 28 -14 16 -13 25 -25 20 -27z
m517 -109 c-6 -6 -35 18 -35 29 0 5 9 1 20 -8 11 -9 17 -19 15 -21z m-105 -26
c0 -39 -2 -44 -19 -39 -25 6 -34 30 -15 37 8 3 14 15 14 26 0 11 5 20 10 20 6
0 10 -20 10 -44z m-1393 -98 c-3 -8 -6 -5 -6 6 -1 11 2 17 5 13 3 -3 4 -12 1
-19z m1027 -53 c3 -8 1 -15 -4 -15 -6 0 -10 7 -10 15 0 8 2 15 4 15 2 0 6 -7
10 -15z m-49 -15 c27 -7 28 -8 5 -8 -14 -1 -43 3 -65 7 l-40 9 35 0 c19 0 49
-4 65 -8z m-545 -10 c0 -5 -8 -10 -19 -10 -10 0 -25 -9 -32 -21 -11 -16 -20
-19 -42 -14 -40 10 -37 43 6 48 63 8 87 7 87 -3z m547 -51 c47 -8 63 -15 63
-28 0 -13 -12 -17 -56 -19 -49 -2 -56 0 -61 18 -8 29 -63 29 -63 0 0 -11 -6
-20 -14 -20 -8 0 -21 -21 -31 -50 -9 -27 -19 -50 -21 -50 -10 0 9 77 28 118
19 37 25 42 56 42 20 0 64 -5 99 -11z m-51 -104 c9 -8 29 -15 45 -15 16 0 29
-4 29 -8 0 -17 -36 -40 -73 -47 -20 -4 -40 -11 -43 -16 -3 -5 -9 -9 -15 -9
-15 0 -10 26 11 53 11 14 20 32 20 41 0 20 7 20 26 1z m995 -24 l20 -19 -22
-16 c-29 -20 -39 -20 -39 -2 0 15 -21 26 -51 26 -29 0 -23 18 9 23 54 8 63 7
83 -12z m-806 -2 c4 -5 4 -22 0 -37 l-8 -27 -7 25 c-5 14 -8 31 -9 38 -1 15
15 16 24 1z m-815 -68 c0 -25 -25 -28 -34 -5 -4 9 -4 25 -1 35 6 17 8 17 21 5
8 -8 14 -24 14 -35z m486 2 c-11 -11 -17 4 -9 23 7 18 8 18 11 1 2 -10 1 -21
-2 -24z m-20 -50 c-11 -11 -17 4 -9 23 7 18 8 18 11 1 2 -10 1 -21 -2 -24z
m1054 17 c0 -5 -4 -10 -10 -10 -5 0 -10 5 -10 10 0 6 5 10 10 10 6 0 10 -4 10
-10z m-494 -78 c-12 -11 -18 7 -10 30 l8 23 4 -23 c2 -13 1 -26 -2 -30z m-596
24 c0 -2 -13 -6 -30 -8 -16 -3 -30 -1 -30 4 0 4 14 8 30 8 17 0 30 -2 30 -4z
m1140 -15 c0 -11 3 -28 7 -38 4 -13 1 -12 -15 6 -26 28 -28 51 -7 51 8 0 15
-9 15 -19z m-1252 -53 c-14 -13 -28 -30 -31 -38 -4 -12 -6 -11 -6 3 -1 30 18
57 41 57 20 0 20 -1 -4 -22z m1310 -10 c15 -15 16 -28 2 -28 -5 0 -10 6 -10
14 0 8 -8 17 -17 19 -14 4 -14 5 -2 6 8 0 20 -4 27 -11z m-491 -90 c-3 -8 -6
-5 -6 6 -1 11 2 17 5 13 3 -3 4 -12 1 -19z m773 -208 c0 -5 -20 -10 -45 -10
-25 0 -45 5 -45 10 0 6 20 10 45 10 25 0 45 -4 45 -10z m-200 -35 c-14 -8 -38
-14 -55 -14 -26 1 -24 2 15 13 61 18 70 18 40 1z m-204 -68 c-12 -24 -22 -40
-24 -37 -4 10 28 80 37 80 4 0 -1 -19 -13 -43z m339 13 c-33 -11 -69 -19 -80
-19 -28 1 84 38 115 38 14 0 -1 -8 -35 -19z m118 -34 c-6 -28 -33 -44 -33 -20
0 12 -6 15 -25 10 -68 -17 -74 -14 -20 8 78 31 83 31 78 2z m-338 -23 c-24 -6
-55 -37 -80 -80 -20 -35 -41 -48 -50 -33 -4 6 -2 10 3 10 4 0 18 18 31 40 23
41 61 68 96 68 l20 0 -20 -5z m175 -18 c-14 -8 -43 -14 -66 -15 -29 0 -49 -7
-70 -25 -29 -25 -54 -33 -54 -16 0 14 82 51 116 52 16 1 40 5 54 9 39 13 47
11 20 -5z m-334 -30 c1 -41 -1 -42 -16 -14 -9 15 -8 24 1 35 15 18 14 19 15
-21z m254 -87 c-8 -7 -20 -20 -28 -28 -12 -13 -13 -13 -6 0 12 25 26 40 37 40
6 0 5 -6 -3 -12z m225 2 c-16 -4 -41 -8 -55 -8 -23 -1 -23 0 -5 8 11 5 36 8
55 8 l35 0 -30 -8z m-109 -29 c-5 -8 -86 -21 -86 -13 0 1 10 7 23 12 29 12 70
12 63 1z m-1681 -91 l70 -19 -55 6 c-30 4 -67 7 -82 8 -16 0 -28 6 -28 13 0
16 12 15 95 -8z m624 8 c0 -7 -4 -22 -9 -33 -7 -17 -9 -15 -9 13 -1 17 4 32 9
32 6 0 10 -6 9 -12z m641 2 c-20 -13 -33 -13 -25 0 3 6 14 10 23 10 15 0 15
-2 2 -10z m310 -10 c0 -5 -5 -10 -11 -10 -5 0 -7 5 -4 10 3 6 8 10 11 10 2 0
4 -4 4 -10z m-1452 -27 c-10 -2 -26 -2 -35 0 -10 3 -2 5 17 5 19 0 27 -2 18
-5z m1979 1 c-3 -3 -12 -4 -19 -1 -8 3 -5 6 6 6 11 1 17 -2 13 -5z m-802 -44
c-3 -5 -18 -10 -33 -10 -21 0 -24 2 -12 10 20 13 53 13 45 0z m-1362 -17 c-7
-2 -19 -2 -25 0 -7 3 -2 5 12 5 14 0 19 -2 13 -5z m780 0 c-7 -2 -19 -2 -25 0
-7 3 -2 5 12 5 14 0 19 -2 13 -5z m1214 -29 c-3 -3 -12 -4 -19 -1 -8 3 -5 6 6
6 11 1 17 -2 13 -5z m-1644 -31 c-22 -8 -15 -43 8 -43 19 0 21 -4 15 -37 -4
-21 -12 -54 -19 -73 -11 -34 -11 -33 -23 55 -13 90 -9 106 21 104 6 0 4 -3 -2
-6z m417 -13 c38 0 72 5 75 10 7 12 35 13 35 2 0 -8 -170 -55 -176 -49 -1 1
-5 16 -8 32 -3 17 -3 24 0 18 4 -9 29 -13 74 -13z m-765 -10 c23 0 36 -23 28
-47 -6 -18 -33 -16 -33 2 0 8 -9 15 -20 15 -21 0 -24 8 -13 36 4 11 8 13 11 6
2 -7 14 -12 27 -12z m2498 -5 c18 -4 27 -12 27 -25 0 -22 35 -28 43 -7 3 7 6
5 6 -5 1 -11 9 -18 21 -18 11 0 20 -4 20 -10 0 -5 -4 -10 -9 -10 -5 0 -14 -12
-19 -27 -9 -25 -10 -26 -11 -5 -1 15 -7 22 -21 22 -11 0 -20 5 -20 10 0 6 -11
10 -25 10 -20 0 -27 6 -31 30 -5 21 -12 30 -25 30 -11 0 -19 4 -19 9 0 5 8 8
18 6 9 -2 29 -6 45 -10z m-899 -69 c-6 -16 -74 -58 -74 -46 0 5 5 10 10 10 6
0 10 7 10 15 0 8 9 15 20 15 14 0 20 7 20 23 0 17 2 19 9 8 5 -8 7 -19 5 -25z
m-834 4 c0 -5 -4 -10 -10 -10 -5 0 -10 -7 -10 -16 0 -8 -7 -22 -15 -30 -12
-12 -15 -12 -15 -2 0 7 -3 23 -6 35 -4 15 -1 22 13 26 31 8 43 7 43 -3z m745
-70 c-3 -5 -12 -10 -18 -10 -7 0 -6 4 3 10 19 12 23 12 15 0z m1515 -28 c0 -4
-9 -16 -21 -25 -17 -15 -31 -17 -75 -11 -64 8 -73 21 -10 16 30 -3 48 1 57 12
15 16 49 22 49 8z m-312 -171 c11 -7 11 -9 -2 -14 -9 -4 -16 -2 -16 3 0 5 -10
11 -22 13 -22 4 -21 4 2 5 14 1 31 -2 38 -7z m-1512 -437 c-4 -9 -9 -15 -11
-12 -3 3 -3 13 1 22 4 9 9 15 11 12 3 -3 3 -13 -1 -22z m94 -94 c-8 -6 -28 -9
-45 -9 l-30 1 33 8 c18 4 36 10 39 14 4 3 9 4 12 0 3 -3 -1 -9 -9 -14z"/>
<path d="M350 340 c0 -13 7 -20 20 -20 13 0 20 7 20 20 0 13 -7 20 -20 20 -13
0 -20 -7 -20 -20z"/>
</g>
</svg>
