<?xml version="1.0" standalone="no"?>
<!DOCTYPE svg PUBLIC "-//W3C//DTD SVG 20010904//EN"
 "http://www.w3.org/TR/2001/REC-SVG-20010904/DTD/svg10.dtd">
<svg version="1.0" xmlns="http://www.w3.org/2000/svg"
 width="376.000000pt" height="358.000000pt" viewBox="0 0 376.000000 358.000000"
 preserveAspectRatio="xMidYMid meet">
<metadata>
Created by potrace 1.13, written by Peter Selinger 2001-2015
</metadata>
<g transform="translate(0.000000,358.000000) scale(0.100000,-0.100000)"
fill="#000000" stroke="none">
<path d="M790 3022 c-14 -2 -32 -10 -41 -18 -9 -8 -19 -11 -22 -7 -4 3 -7 2
-7 -3 0 -5 -12 -23 -27 -41 -58 -65 -59 -66 -57 -133 2 -57 8 -99 14 -107 2
-2 3 -6 4 -10 1 -5 7 -24 14 -44 14 -39 23 -77 24 -96 1 -7 5 -13 10 -13 5 0
7 -4 3 -9 -3 -6 1 -13 9 -18 8 -4 15 -11 16 -15 8 -34 14 -48 21 -48 5 0 9 -7
9 -15 0 -19 68 -115 82 -115 5 0 6 -5 3 -10 -3 -6 1 -13 9 -16 9 -3 14 -10 11
-14 -3 -5 3 -13 12 -19 10 -6 14 -11 9 -11 -6 0 0 -9 12 -20 19 -18 21 -57 2
-45 -4 3 -20 -12 -36 -33 -36 -47 -46 -57 -65 -64 -8 -3 -21 -24 -29 -47 -7
-23 -17 -41 -22 -41 -4 0 -8 -6 -8 -14 0 -8 -7 -22 -16 -30 -8 -9 -12 -20 -9
-26 3 -5 1 -10 -4 -10 -6 0 -11 -6 -11 -14 0 -20 -26 -39 -55 -38 -14 0 -25
-5 -25 -10 0 -6 -7 -5 -15 2 -10 9 -15 9 -15 1 0 -8 -5 -8 -19 0 -14 10 -26 8
-57 -7 -49 -24 -53 -46 -15 -83 17 -17 31 -34 31 -38 0 -4 18 -21 40 -37 22
-17 40 -36 40 -43 0 -7 11 -15 25 -19 14 -3 25 -10 25 -16 0 -5 4 -7 9 -3 5 3
12 1 16 -4 3 -6 29 -8 57 -5 56 4 109 34 129 71 7 13 16 23 21 23 4 0 8 6 8
14 0 8 7 16 15 20 8 3 15 13 15 21 0 9 4 14 8 11 5 -3 15 7 23 22 25 50 78
109 96 107 37 -4 74 -25 82 -47 6 -13 23 -37 40 -54 16 -18 28 -34 25 -37 -3
-2 9 -25 26 -50 16 -25 30 -50 30 -55 0 -6 9 -14 20 -17 11 -4 18 -10 15 -14
-2 -4 11 -20 30 -36 19 -15 35 -33 35 -41 0 -8 5 -14 11 -14 5 0 36 -26 67
-57 32 -32 78 -75 102 -96 25 -20 61 -50 80 -67 19 -16 40 -30 45 -30 6 0 25
-14 44 -30 18 -17 38 -30 43 -30 5 0 21 -11 36 -25 15 -14 37 -28 50 -31 12
-4 22 -10 22 -15 0 -6 13 -22 29 -37 46 -42 59 -51 63 -46 3 2 19 -9 36 -26
18 -17 32 -28 32 -25 0 11 40 -19 143 -108 11 -9 26 -17 34 -17 7 0 13 -4 13
-8 0 -4 14 -9 31 -10 18 -1 37 -6 43 -9 5 -4 24 -8 41 -10 58 -7 70 -11 67
-24 -10 -40 -20 -200 -13 -213 8 -18 9 -66 0 -66 -10 0 -7 -36 4 -46 11 -12
-44 -51 -83 -58 -3 -1 -11 -5 -17 -9 -8 -5 -13 -3 -13 5 -1 8 -6 6 -15 -6 -9
-12 -11 -24 -6 -29 6 -6 0 -19 -16 -33 -23 -21 -24 -25 -10 -39 9 -8 23 -15
31 -15 9 0 16 -4 16 -10 0 -5 -4 -10 -9 -10 -5 0 -11 -8 -13 -18 -8 -30 33
-52 57 -32 11 9 12 7 9 -8 -9 -33 21 -45 116 -46 50 -1 90 -3 90 -6 0 -12 72
3 77 16 3 8 14 14 24 14 12 0 23 10 29 25 5 14 14 25 20 25 5 0 10 5 10 11 0
6 7 18 16 26 8 9 13 24 11 34 -3 11 -2 19 2 19 10 0 4 107 -9 160 -18 72 -17
133 1 151 9 9 21 25 27 35 8 14 13 15 24 7 14 -12 17 -13 54 -13 14 0 23 -4
19 -9 -3 -5 -1 -12 5 -16 6 -4 8 -11 4 -16 -7 -11 33 -49 51 -49 16 0 65 -53
65 -72 0 -10 19 -21 58 -32 90 -25 102 -23 102 18 0 19 5 38 10 41 16 10 12
91 -5 105 -8 7 -15 19 -15 26 0 8 -4 14 -10 14 -5 0 -10 11 -10 25 0 28 2 29
48 16 21 -7 32 -6 32 1 0 6 6 6 15 -2 12 -10 15 -10 15 4 0 9 4 16 10 16 5 0
7 7 4 15 -4 8 -1 15 4 15 6 0 2 23 -9 55 -18 52 -18 59 -4 101 8 24 15 66 15
92 0 26 7 90 16 142 29 177 32 205 33 297 1 98 -17 195 -50 271 -41 93 -63
137 -75 152 -6 8 -19 38 -28 65 -16 52 -139 206 -181 229 -11 6 -61 47 -111
91 -147 130 -135 120 -235 174 -116 63 -227 106 -329 128 -36 7 -83 18 -105
24 -52 13 -240 27 -384 28 -101 1 -118 -2 -162 -24 -27 -13 -49 -20 -49 -16 0
7 -48 6 -147 -1 -7 -1 -13 -4 -13 -7 0 -4 -9 -12 -21 -19 -18 -12 -27 -7 -92
50 -40 34 -94 88 -122 118 -74 82 -127 130 -142 130 -8 0 -31 17 -52 38 -51
48 -71 64 -71 56 0 -4 -8 -1 -17 7 -32 25 -57 35 -83 31z"/>
</g>
</svg>
