<?xml version="1.0" standalone="no"?>
<!DOCTYPE svg PUBLIC "-//W3C//DTD SVG 20010904//EN"
 "http://www.w3.org/TR/2001/REC-SVG-20010904/DTD/svg10.dtd">
<svg version="1.0" xmlns="http://www.w3.org/2000/svg"
 width="488.000000pt" height="465.000000pt" viewBox="0 0 488.000000 465.000000"
 preserveAspectRatio="xMidYMid meet">
<metadata>
Created by potrace 1.13, written by Peter Selinger 2001-2015
</metadata>
<g transform="translate(0.000000,465.000000) scale(0.100000,-0.100000)"
fill="#000000" stroke="none">
<path d="M1642 4208 c-13 -13 -16 -51 -4 -62 4 -4 8 -12 8 -17 1 -5 3 -11 4
-14 1 -3 3 -13 4 -22 1 -10 5 -23 9 -30 4 -7 14 -30 22 -52 10 -30 11 -41 2
-45 -8 -3 -8 -5 1 -5 7 -1 11 -5 8 -10 -3 -4 -1 -22 4 -39 4 -18 5 -34 0 -37
-4 -3 -11 -22 -15 -42 -5 -21 -9 -45 -11 -53 -11 -55 -15 -95 -17 -167 -2 -72
-4 -82 -19 -77 -9 2 -26 7 -37 9 -12 2 -27 7 -34 12 -6 4 -19 9 -27 10 -8 1
-24 4 -35 5 -11 2 -27 8 -35 13 -8 5 -24 11 -35 12 -10 2 -22 7 -25 11 -3 4
-18 9 -35 11 -16 1 -34 6 -40 10 -5 4 -20 6 -32 5 -13 0 -23 1 -23 5 0 9 -143
7 -157 -2 -7 -5 -18 -5 -23 -2 -6 3 -13 -1 -16 -9 -3 -9 -11 -16 -18 -16 -22
0 -39 -18 -41 -43 -2 -14 -6 -30 -9 -36 -4 -5 -2 -12 3 -15 5 -4 8 -53 6 -112
-4 -110 4 -136 35 -126 8 3 20 12 27 21 11 14 12 13 8 -6 -2 -13 1 -23 7 -23
7 0 7 -4 1 -12 -5 -7 -9 -30 -8 -51 1 -21 -1 -40 -5 -42 -4 -2 -6 -14 -4 -27
1 -13 3 -26 3 -30 2 -17 41 -7 55 14 12 16 16 18 20 7 6 -17 3 -69 -4 -69 -3
0 -5 -17 -5 -37 0 -31 4 -39 21 -41 14 -2 29 6 42 23 24 30 32 17 22 -32 -6
-24 -3 -36 9 -47 20 -18 36 -10 46 24 4 14 11 27 15 30 5 3 10 14 12 25 1 11
7 23 12 26 5 4 10 46 11 95 2 49 7 90 13 92 5 1 8 12 5 22 -5 19 -4 19 23 5
16 -8 35 -15 42 -15 6 0 12 -5 12 -12 0 -6 3 -9 6 -5 3 3 24 -8 47 -24 22 -16
46 -29 53 -29 7 0 20 -7 29 -16 8 -9 24 -14 35 -11 13 3 27 -5 43 -25 14 -16
28 -29 31 -29 17 1 34 -13 29 -25 -3 -8 -1 -14 5 -14 5 0 8 -11 7 -25 -2 -14
1 -25 7 -25 5 0 7 -8 3 -19 -3 -10 -1 -38 6 -62 6 -24 11 -52 12 -61 1 -10 5
-18 9 -18 4 0 10 -17 14 -37 4 -21 11 -44 17 -50 5 -7 6 -13 1 -13 -4 0 1 -7
12 -15 12 -9 14 -14 6 -15 -10 0 -10 -5 2 -21 8 -12 12 -28 9 -35 -3 -8 0 -14
6 -14 6 0 10 -3 9 -7 -1 -5 4 -21 10 -36 7 -16 12 -33 12 -38 0 -5 4 -17 10
-27 12 -22 50 -109 50 -116 0 -2 4 -15 9 -28 5 -13 10 -27 11 -33 1 -5 7 -19
13 -30 6 -11 11 -23 12 -27 0 -4 7 -16 16 -27 10 -10 20 -29 24 -42 4 -12 16
-36 26 -53 11 -17 19 -41 19 -54 0 -12 7 -25 15 -28 8 -4 12 -10 9 -15 -3 -5
2 -12 10 -15 9 -3 16 -12 16 -19 0 -8 16 -34 35 -59 19 -26 35 -49 35 -52 0
-4 10 -15 22 -25 11 -11 17 -19 12 -19 -5 0 3 -10 17 -23 14 -12 47 -53 74
-92 26 -38 57 -78 68 -88 11 -9 16 -17 11 -17 -5 0 0 -7 10 -15 11 -8 16 -15
12 -15 -4 0 16 -24 43 -52 28 -29 51 -56 51 -59 0 -9 67 -108 88 -132 10 -10
33 -34 52 -53 l35 -34 -27 0 c-16 0 -28 -5 -28 -11 0 -6 -6 -9 -14 -6 -8 3
-17 3 -20 -1 -4 -3 -16 -7 -27 -9 -32 -5 -82 -34 -107 -62 -13 -14 -34 -38
-47 -54 -14 -15 -22 -27 -19 -27 4 0 2 -6 -4 -12 -13 -17 -9 -101 6 -106 7 -2
10 -7 7 -12 -5 -8 30 -63 80 -125 17 -20 30 -40 31 -43 0 -4 4 -15 9 -25 4
-11 8 -40 8 -65 1 -26 5 -50 11 -54 12 -8 46 13 46 29 0 6 5 15 11 18 6 4 10
1 8 -6 -6 -47 19 -53 50 -13 15 19 21 40 19 71 -1 24 -5 46 -9 49 -5 2 -6 11
-3 18 7 18 -23 76 -38 76 -6 0 -9 3 -5 6 3 4 -1 20 -9 36 -15 29 -15 29 7 18
17 -10 23 -9 30 1 5 8 9 10 9 5 0 -5 7 -3 15 4 9 8 15 8 15 2 0 -13 57 -7 74
7 9 7 16 7 24 -1 9 -9 12 -9 12 2 0 7 3 10 7 7 3 -4 12 1 18 10 11 14 16 15
28 4 13 -10 21 -9 46 3 16 9 34 22 38 30 9 15 54 32 52 19 -1 -4 0 -10 1 -13
3 -10 11 -46 15 -70 2 -14 5 -34 7 -45 2 -11 12 -28 23 -37 38 -33 44 -38 48
-38 3 0 24 -18 47 -40 23 -22 48 -40 55 -40 7 0 17 -6 24 -13 6 -8 26 -12 49
-10 28 2 45 -3 60 -17 12 -11 25 -20 30 -20 5 0 20 -9 33 -21 51 -44 84 -69
93 -68 5 0 12 -4 15 -9 3 -5 24 -12 46 -15 22 -3 52 -10 67 -16 14 -5 29 -7
32 -4 3 3 9 -2 12 -11 4 -10 16 -21 28 -25 25 -10 56 8 107 62 20 20 40 37 45
37 13 0 74 56 74 68 0 5 -7 22 -14 38 -8 15 -13 31 -10 36 3 4 0 8 -6 8 -6 0
-8 5 -5 10 3 6 1 10 -4 10 -6 0 -11 7 -11 15 0 8 -4 15 -10 15 -5 0 -10 5 -10
10 0 6 -8 19 -17 29 -10 11 -23 26 -30 33 -16 18 -85 73 -92 73 -3 0 -17 8
-31 18 -13 9 -21 17 -16 17 5 0 3 7 -4 15 -7 8 -9 15 -4 15 5 0 -11 20 -36 43
-59 57 -120 127 -120 137 0 5 -7 15 -15 24 -14 13 -10 20 35 66 27 28 50 53
50 56 0 2 -14 28 -30 57 -17 30 -27 57 -23 60 3 4 1 7 -5 7 -8 0 -12 23 -12
70 0 54 6 82 23 118 13 26 34 81 47 122 13 41 31 86 39 100 14 20 16 66 16
300 0 269 -6 332 -37 425 -20 56 -139 294 -174 346 -18 28 -34 59 -34 69 0 20
-69 152 -115 219 -84 122 -370 413 -454 461 -24 14 -57 36 -73 49 -29 24 -209
101 -236 101 -7 0 -25 9 -39 20 -14 11 -34 20 -44 20 -11 0 -52 10 -92 21 -39
12 -108 28 -152 36 -44 8 -98 23 -120 33 -37 18 -92 30 -140 33 -11 1 -28 11
-37 23 -10 12 -41 33 -70 47 -29 13 -64 37 -77 51 -28 29 -32 31 -49 14z m968
-429 c0 -6 -4 -7 -10 -4 -5 3 -10 11 -10 16 0 6 5 7 10 4 6 -3 10 -11 10 -16z
m-1331 -448 c13 -11 18 -22 12 -25 -10 -7 -51 22 -51 36 0 13 16 9 39 -11z
m595 -26 c-4 -8 -10 -13 -15 -10 -4 3 -6 12 -3 20 4 8 10 13 15 10 4 -3 6 -12
3 -20z m1316 -344 c-1 -11 -50 50 -50 62 0 6 11 -4 25 -23 14 -19 25 -36 25
-39z m320 -375 c0 -26 -6 -18 -14 19 -5 22 -4 26 4 15 5 -8 10 -24 10 -34z
m-60 -38 c0 -5 -4 -8 -10 -8 -5 0 -10 10 -10 23 0 18 2 19 10 7 5 -8 10 -18
10 -22z m-23 -50 c-3 -7 -5 -2 -5 12 0 14 2 19 5 13 2 -7 2 -19 0 -25z m100 0
c-3 -8 -6 -5 -6 6 -1 11 2 17 5 13 3 -3 4 -12 1 -19z m-357 -133 c0 -8 -4 -15
-10 -15 -5 0 -7 7 -4 15 4 8 8 15 10 15 2 0 4 -7 4 -15z m-1094 -141 c-12 -13
-30 -8 -21 7 4 5 1 9 -5 9 -6 0 -8 4 -5 10 4 6 13 5 24 -2 14 -9 16 -14 7 -24z
m94 -54 c0 -5 -4 -10 -10 -10 -5 0 -10 5 -10 10 0 6 5 10 10 10 6 0 10 -4 10
-10z m288 -245 c-3 -3 -9 2 -12 12 -6 14 -5 15 5 6 7 -7 10 -15 7 -18z m828
-482 c-11 -11 -17 4 -9 23 7 18 8 18 11 1 2 -10 1 -21 -2 -24z m65 -84 c17
-24 19 -33 9 -39 -29 -18 -46 7 -27 38 5 7 4 12 -2 12 -6 0 -11 5 -11 10 0 17
8 11 31 -21z m-135 -94 c1 -16 -3 -25 -13 -25 -8 0 -12 3 -10 8 2 4 7 15 10
25 9 23 12 22 13 -8z m170 -466 c3 -5 14 -9 25 -9 11 0 18 -4 15 -8 -3 -5 13
-23 34 -41 26 -21 40 -40 39 -54 l-2 -22 -4 22 c-5 23 -29 38 -38 22 -4 -5
-11 -6 -17 -3 -7 4 -6 9 2 14 9 6 3 13 -19 24 -17 9 -31 14 -31 11 0 -4 -6 -3
-12 2 -7 4 -15 8 -18 8 -3 0 -18 9 -32 21 -19 15 -24 24 -16 32 11 11 63 -2
74 -19z"/>
</g>
</svg>
