<?xml version="1.0" standalone="no"?>
<!DOCTYPE svg PUBLIC "-//W3C//DTD SVG 20010904//EN"
 "http://www.w3.org/TR/2001/REC-SVG-20010904/DTD/svg10.dtd">
<svg version="1.0" xmlns="http://www.w3.org/2000/svg"
 width="266.000000pt" height="189.000000pt" viewBox="0 0 266.000000 189.000000"
 preserveAspectRatio="xMidYMid meet">
<metadata>
Created by potrace 1.13, written by Peter Selinger 2001-2015
</metadata>
<g transform="translate(0.000000,189.000000) scale(0.100000,-0.100000)"
fill="#000000" stroke="none">
<path d="M1519 1881 c-15 -5 -51 -27 -80 -48 l-54 -40 -26 19 c-39 30 -151 30
-208 0 -48 -25 -71 -45 -71 -61 0 -6 -4 -11 -9 -11 -4 0 -21 -18 -36 -40 -23
-33 -32 -39 -51 -34 -35 9 -65 -1 -102 -36 -18 -16 -40 -30 -47 -30 -15 0 -55
-21 -124 -64 -22 -15 -45 -26 -51 -26 -6 0 -22 -7 -35 -16 -23 -15 -29 -14
-87 5 -57 19 -131 34 -241 48 -23 3 -50 -1 -71 -11 -19 -9 -41 -16 -49 -16
-18 0 -76 -25 -99 -43 -24 -19 -48 -79 -48 -121 0 -70 41 -129 139 -198 24
-17 52 -39 63 -50 10 -10 25 -18 34 -18 12 0 8 -9 -15 -32 -17 -18 -51 -73
-75 -122 -38 -79 -44 -100 -45 -159 -1 -67 15 -146 32 -158 4 -3 8 -29 9 -57
0 -38 4 -52 14 -52 12 0 13 -12 8 -63 -7 -67 5 -107 31 -107 8 0 20 -9 27 -20
15 -23 48 -27 48 -5 0 12 16 15 80 15 44 0 80 3 80 8 0 4 19 18 41 32 73 44
81 124 19 195 -9 11 -20 31 -23 45 -7 28 12 90 27 90 5 0 48 -26 95 -58 100
-67 257 -146 321 -160 46 -11 111 -33 165 -57 98 -43 226 -75 298 -75 35 0 37
-2 37 -32 0 -36 -14 -84 -41 -144 -27 -59 -23 -144 7 -144 8 0 14 -4 14 -9 0
-12 81 -26 89 -15 3 5 22 10 41 11 123 7 161 13 176 27 8 9 19 16 24 16 5 0
18 16 30 36 20 31 22 44 16 101 -4 36 -12 75 -17 85 -14 27 -9 29 35 16 27 -9
41 -20 48 -38 13 -40 80 -67 196 -80 89 -11 107 -10 152 5 28 9 59 26 69 36
17 19 18 19 30 -4 18 -33 64 -50 119 -43 98 12 167 32 170 49 2 9 12 17 22 17
28 0 35 66 16 134 -13 43 -23 59 -52 76 -34 21 -84 87 -84 110 0 7 8 9 19 5
11 -3 31 -3 45 1 20 5 26 12 26 35 0 16 -4 29 -9 29 -5 0 -17 26 -26 58 -9 31
-30 91 -46 132 -17 41 -35 95 -40 120 -6 25 -18 61 -28 80 -10 19 -22 53 -26
75 -3 21 -22 71 -40 110 -33 69 -86 128 -159 178 -14 10 -38 40 -51 68 -37 72
-63 98 -130 128 -36 16 -72 42 -88 63 -31 39 -112 88 -146 88 -12 0 -28 12
-38 28 -10 15 -20 29 -23 32 -3 3 -11 17 -17 32 -7 15 -23 34 -37 43 -29 19
-129 29 -167 16z"/>
</g>
</svg>
