<?xml version="1.0" standalone="no"?>
<!DOCTYPE svg PUBLIC "-//W3C//DTD SVG 20010904//EN"
 "http://www.w3.org/TR/2001/REC-SVG-20010904/DTD/svg10.dtd">
<svg version="1.0" xmlns="http://www.w3.org/2000/svg"
 width="402.000000pt" height="310.000000pt" viewBox="0 0 402.000000 310.000000"
 preserveAspectRatio="xMidYMid meet">
<metadata>
Created by potrace 1.13, written by Peter Selinger 2001-2015
</metadata>
<g transform="translate(0.000000,310.000000) scale(0.100000,-0.100000)"
fill="#000000" stroke="none">
<path d="M1215 3078 c-16 -5 -70 -14 -120 -19 -88 -9 -126 -20 -270 -79 -85
-35 -147 -40 -195 -15 -42 22 -171 55 -214 55 -17 0 -72 12 -121 26 -50 15
-107 29 -127 31 -59 8 -51 -24 22 -87 44 -38 84 -61 148 -85 92 -35 125 -52
231 -121 54 -36 60 -43 42 -49 -26 -8 -38 -64 -23 -112 10 -32 9 -34 -11 -28
-30 9 -48 16 -157 68 -146 70 -230 83 -304 47 -67 -32 -106 -112 -106 -216 0
-42 5 -56 31 -85 62 -69 94 -139 107 -234 8 -61 36 -73 64 -28 10 15 18 22 18
16 0 -7 6 -13 13 -13 27 0 57 -74 57 -140 0 -57 1 -61 21 -58 23 3 29 10 56
73 l17 40 4 -47 c2 -39 7 -48 22 -48 10 0 21 6 24 13 3 6 3 -16 0 -50 -5 -57
-4 -63 13 -63 42 0 76 51 94 139 11 50 11 68 0 97 -17 47 -2 62 29 29 13 -14
29 -25 35 -25 6 0 36 -28 66 -61 83 -94 179 -190 234 -234 28 -22 72 -61 98
-87 27 -27 53 -48 58 -48 12 0 57 -72 65 -104 5 -20 12 -26 34 -26 16 0 31 6
33 13 9 21 27 -15 27 -55 0 -31 4 -38 20 -38 27 0 43 42 38 99 l-3 43 25 -33
c14 -18 36 -45 50 -60 14 -14 30 -33 35 -41 36 -55 87 -114 160 -188 124 -126
238 -236 256 -246 9 -5 52 -41 95 -81 43 -40 131 -109 194 -153 63 -45 116
-83 118 -84 1 -2 -6 -48 -18 -101 -11 -54 -20 -130 -20 -170 0 -61 4 -77 29
-116 15 -24 40 -56 54 -71 14 -15 30 -43 37 -63 15 -45 54 -50 64 -8 7 25 8
25 24 9 12 -12 17 -34 17 -74 0 -51 2 -57 22 -60 17 -3 27 6 44 40 21 41 22
42 32 21 6 -13 14 -23 20 -23 6 0 7 -20 3 -50 -6 -48 -6 -50 17 -50 30 0 47
19 57 63 l7 32 12 -28 c6 -16 11 -39 11 -53 0 -18 5 -24 23 -24 17 0 26 9 35
33 24 68 7 137 -49 190 -25 24 -63 151 -62 207 1 73 15 164 25 178 14 17 32
15 84 -9 31 -14 55 -18 76 -14 34 8 113 59 126 81 7 12 14 11 47 -6 51 -26
131 -50 167 -50 15 0 28 -4 28 -10 0 -5 7 -10 16 -10 9 0 28 -7 42 -15 28 -15
94 -39 227 -82 91 -29 186 -29 242 1 18 9 69 23 113 30 47 9 92 23 110 36 l31
22 6 -21 c3 -14 13 -21 29 -21 34 0 79 78 70 123 -4 17 -9 57 -13 87 -9 79
-41 123 -113 154 -85 36 -199 74 -240 81 -53 8 -169 52 -188 72 -7 7 -26 13
-42 13 -16 0 -32 5 -35 10 -4 6 -34 10 -68 9 -34 -1 -91 6 -127 16 -36 9 -84
19 -107 22 -61 7 -53 19 18 27 57 7 61 9 75 41 24 59 15 117 -42 260 -13 33
-30 92 -38 130 -13 69 -87 286 -104 308 -5 7 -19 39 -31 72 -19 51 -150 243
-173 253 -5 2 -8 10 -8 17 0 8 -13 29 -28 47 -16 18 -39 59 -51 90 -27 68
-105 146 -238 237 -48 34 -124 88 -168 121 -176 129 -254 166 -435 205 -41 9
-106 31 -145 49 -172 82 -405 126 -500 94z m26 -1059 c28 -36 46 -89 30 -89
-6 0 -18 14 -28 30 -9 17 -20 30 -24 30 -8 0 -19 24 -30 70 -9 39 -12 41 52
-41z m229 -238 c0 -4 16 -15 35 -24 21 -10 36 -26 39 -39 3 -13 7 -35 10 -49
5 -23 2 -28 -20 -33 -23 -6 -26 -11 -22 -46 2 -22 3 -40 2 -40 -1 0 -12 20
-24 45 -15 30 -28 45 -41 45 -12 0 -19 7 -19 20 0 11 -3 20 -8 20 -8 0 -36 59
-31 65 10 9 59 -9 59 -21 0 -8 9 -14 20 -14 13 0 20 7 20 20 0 13 -7 20 -20
20 -11 0 -20 4 -20 9 0 5 -3 17 -6 25 -5 12 -2 15 10 10 9 -3 16 -9 16 -13z
m334 -202 c29 -17 36 -27 36 -51 0 -16 8 -37 17 -46 16 -16 15 -17 -15 -20
-24 -2 -33 -9 -38 -27 -11 -44 -126 -42 -132 3 -2 14 -10 22 -23 22 -10 0 -28
9 -39 20 -16 16 -17 20 -5 20 9 0 18 7 21 15 4 8 12 15 20 15 8 0 14 8 14 19
0 48 84 66 144 30z m298 -271 c10 -10 26 -18 36 -18 9 0 26 -8 37 -17 19 -14
16 -15 -35 -9 -30 3 -88 6 -127 6 -58 0 -73 3 -73 15 0 8 -6 15 -14 15 -18 0
-28 14 -21 32 4 9 23 12 70 10 47 -3 65 0 65 9 0 12 16 0 62 -43z m318 -54 c0
-2 -7 -4 -15 -4 -8 0 -15 4 -15 10 0 5 7 7 15 4 8 -4 15 -8 15 -10z m1047
-420 c-3 -3 -12 -4 -19 -1 -8 3 -5 6 6 6 11 1 17 -2 13 -5z m143 -24 c-20 -13
-33 -13 -25 0 3 6 14 10 23 10 15 0 15 -2 2 -10z"/>
<path d="M1450 1680 c0 -13 7 -20 20 -20 13 0 20 7 20 20 0 13 -7 20 -20 20
-13 0 -20 -7 -20 -20z"/>
<path d="M1700 1543 c0 -33 15 -42 68 -41 44 0 52 3 52 19 0 24 -29 39 -79 39
-32 0 -41 -4 -41 -17z"/>
</g>
</svg>
