<?xml version="1.0" standalone="no"?>
<!DOCTYPE svg PUBLIC "-//W3C//DTD SVG 20010904//EN"
 "http://www.w3.org/TR/2001/REC-SVG-20010904/DTD/svg10.dtd">
<svg version="1.0" xmlns="http://www.w3.org/2000/svg"
 width="321.000000pt" height="305.000000pt" viewBox="0 0 321.000000 305.000000"
 preserveAspectRatio="xMidYMid meet">
<metadata>
Created by potrace 1.13, written by Peter Selinger 2001-2015
</metadata>
<g transform="translate(0.000000,305.000000) scale(0.100000,-0.100000)"
fill="#000000" stroke="none">
<path d="M1167 2564 c-17 -9 -39 -13 -53 -10 -13 4 -24 3 -24 -2 0 -4 -12 -8
-27 -8 -52 -1 -283 -71 -283 -85 0 -5 -7 -9 -15 -9 -18 0 -75 -52 -75 -69 0
-7 -4 -10 -9 -7 -5 3 -20 -8 -33 -24 -18 -22 -38 -32 -77 -40 -29 -5 -57 -7
-62 -4 -5 3 -9 1 -9 -5 0 -6 -6 -8 -14 -5 -21 8 -47 -51 -40 -95 3 -21 1 -31
-4 -24 -4 7 -19 15 -32 17 -14 2 -27 5 -30 6 -3 2 -8 2 -12 1 -5 0 -8 3 -8 7
0 11 -40 9 -57 -1 -15 -9 -6 -33 23 -67 13 -14 23 -29 23 -33 0 -5 16 -21 35
-37 28 -21 32 -29 21 -34 -23 -8 -39 -57 -23 -68 7 -4 9 -8 4 -8 -5 0 -3 -7 4
-15 7 -8 9 -15 4 -15 -4 0 2 -9 14 -20 12 -12 22 -24 22 -29 0 -4 20 -30 44
-57 27 -29 40 -51 33 -53 -7 -2 -18 -13 -25 -23 -7 -10 -18 -16 -23 -13 -5 4
-9 2 -9 -3 0 -6 -12 -24 -26 -40 -39 -44 -42 -105 -8 -149 42 -55 105 -112
119 -107 12 5 55 -44 55 -63 0 -5 5 -14 12 -21 9 -9 16 -8 30 5 10 9 18 22 18
29 0 8 6 11 15 8 8 -4 15 -12 15 -19 0 -7 8 -23 18 -35 17 -21 19 -21 35 -5 9
9 17 23 17 31 0 8 4 14 9 14 5 0 9 11 9 25 0 14 -4 25 -9 25 -5 0 -9 8 -9 19
0 10 -10 31 -21 46 -26 33 -31 66 -13 82 11 11 18 9 37 -10 12 -12 29 -23 37
-25 8 -2 22 -9 30 -16 8 -7 23 -16 33 -19 10 -4 16 -11 13 -16 -5 -8 16 -23
36 -25 3 -1 21 -15 40 -31 18 -17 46 -40 61 -52 15 -12 28 -25 29 -30 0 -4 17
-21 37 -38 20 -16 46 -41 58 -55 13 -14 38 -42 57 -62 19 -21 32 -38 28 -38
-5 0 6 -10 69 -63 14 -12 30 -23 36 -24 6 -1 33 -15 61 -32 27 -16 64 -32 83
-37 19 -4 37 -9 42 -10 4 -1 9 -3 12 -4 3 -1 11 -3 17 -4 7 0 14 -9 16 -19 4
-19 -27 -74 -43 -77 -28 -6 -43 -16 -75 -51 -37 -39 -44 -75 -26 -129 9 -25
42 -60 58 -60 4 0 7 -4 6 -8 -3 -10 54 -66 91 -91 18 -11 26 -12 28 -4 3 9 11
8 28 -3 22 -15 26 -15 40 0 9 9 21 16 26 16 5 0 7 10 5 22 -2 13 1 31 6 42 7
12 7 21 0 25 -5 3 -12 15 -16 27 -5 16 10 38 74 104 44 46 80 89 80 96 0 18
37 37 45 24 4 -6 11 -8 16 -5 5 4 9 1 9 -4 0 -6 3 -10 8 -10 4 1 9 0 12 -1 29
-11 72 -14 91 -6 11 5 27 -10 58 -54 56 -79 82 -106 104 -105 9 0 17 -4 17 -8
-1 -6 34 -39 75 -70 6 -4 30 -25 55 -48 87 -78 135 -103 198 -104 53 -1 60 2
95 37 21 21 43 38 48 38 5 0 9 5 9 11 0 7 9 20 20 29 16 13 22 34 25 80 3 34
7 65 10 70 3 5 1 11 -5 15 -6 4 -8 10 -5 15 3 4 -2 13 -10 20 -8 7 -15 19 -15
26 0 8 -4 14 -10 14 -5 0 -10 5 -10 11 0 5 -11 26 -24 45 -13 20 -23 47 -21
60 1 13 -2 24 -6 24 -5 0 -9 6 -9 14 0 8 -7 17 -16 20 -9 4 -14 9 -11 13 4 3
-8 17 -25 30 -18 12 -28 23 -22 23 5 0 -4 12 -21 26 -16 14 -40 34 -53 45 -12
10 -26 19 -31 19 -4 0 -18 9 -31 20 -13 11 -29 20 -37 20 -16 0 -16 1 1 35 10
20 12 35 5 52 -5 14 -7 28 -4 33 3 5 1 10 -5 12 -5 1 -11 14 -14 28 -2 14 -5
26 -7 28 -1 1 -2 5 -3 10 -1 4 -5 13 -9 20 -5 6 -6 12 -2 12 3 0 -2 16 -10 36
-8 20 -13 40 -10 44 3 5 2 11 -3 14 -5 3 -8 20 -7 38 1 18 0 37 -3 43 -3 5 -7
25 -8 45 0 19 -11 73 -24 120 -12 47 -23 90 -24 95 -11 43 -19 65 -26 65 -8 0
-23 38 -21 53 1 4 -4 7 -9 7 -6 0 -10 6 -10 13 0 7 -9 19 -20 27 -11 8 -20 20
-20 27 0 6 -9 15 -20 18 -11 3 -20 11 -20 17 0 10 -54 64 -213 213 -83 78
-117 105 -130 105 -5 0 -18 9 -28 21 -10 11 -24 22 -31 23 -7 1 -22 7 -33 13
-47 26 -171 55 -237 57 -21 1 -38 3 -38 6 0 3 -15 6 -32 7 -41 1 -61 6 -69 16
-12 16 -84 17 -112 1z"/>
</g>
</svg>
