<?xml version="1.0" standalone="no"?>
<!DOCTYPE svg PUBLIC "-//W3C//DTD SVG 20010904//EN"
 "http://www.w3.org/TR/2001/REC-SVG-20010904/DTD/svg10.dtd">
<svg version="1.0" xmlns="http://www.w3.org/2000/svg"
 width="327.000000pt" height="317.000000pt" viewBox="0 0 327.000000 317.000000"
 preserveAspectRatio="xMidYMid meet">
<metadata>
Created by potrace 1.13, written by Peter Selinger 2001-2015
</metadata>
<g transform="translate(0.000000,317.000000) scale(0.100000,-0.100000)"
fill="#000000" stroke="none">
<path d="M1004 2800 c-68 -15 -118 -61 -129 -119 -2 -12 -9 -29 -16 -37 -6 -8
-7 -14 -2 -14 6 0 9 -11 8 -25 -2 -14 0 -27 5 -30 4 -2 5 -16 2 -30 -2 -14 0
-25 5 -25 5 0 9 -8 10 -17 4 -48 10 -81 17 -91 4 -7 4 -12 0 -12 -4 0 0 -6 9
-12 15 -12 13 -13 -15 -15 -42 -3 -60 -7 -73 -14 -17 -11 -90 -33 -98 -31 -4
1 -10 -5 -13 -13 -3 -8 -10 -12 -15 -9 -5 3 -9 0 -9 -5 0 -6 -9 -11 -20 -11
-11 0 -20 -3 -20 -7 0 -5 -22 -31 -48 -59 -26 -28 -46 -56 -44 -63 2 -6 -1
-11 -7 -11 -6 0 -8 -7 -5 -15 4 -8 1 -15 -6 -15 -8 0 -10 -8 -7 -21 3 -12 0
-22 -9 -26 -8 -3 -14 -11 -14 -18 0 -6 -9 -20 -20 -30 -14 -13 -17 -21 -9 -31
7 -9 5 -16 -6 -26 -9 -7 -24 -21 -33 -32 -9 -10 -23 -25 -31 -33 -15 -16 -24
-63 -11 -63 4 0 10 -11 12 -25 3 -14 1 -25 -4 -25 -5 0 -3 -6 4 -14 8 -9 19
-11 28 -6 13 8 55 -18 112 -70 11 -10 35 -15 68 -15 27 0 50 -3 50 -8 0 -27
93 57 98 89 1 10 4 29 6 42 2 12 -1 25 -5 28 -5 3 -2 12 6 20 8 9 15 22 15 30
0 8 6 14 14 14 8 0 22 7 31 16 9 10 20 13 24 8 11 -12 51 -133 51 -154 0 -9 8
-32 18 -52 10 -19 17 -43 16 -52 -1 -9 2 -16 7 -16 5 0 9 -7 9 -15 0 -8 5 -15
10 -15 6 0 10 -9 10 -20 0 -11 5 -20 11 -20 5 0 7 -4 4 -10 -3 -5 -2 -10 4
-10 6 0 8 -6 6 -12 -3 -7 10 -29 27 -49 18 -20 34 -42 36 -49 1 -7 14 -28 27
-48 13 -19 22 -39 20 -43 -3 -4 2 -10 11 -13 8 -3 13 -10 9 -16 -3 -5 3 -20
15 -32 11 -13 23 -33 26 -45 4 -13 10 -23 15 -23 5 0 9 -6 9 -13 0 -7 9 -19
20 -27 11 -8 20 -19 20 -24 0 -5 22 -31 49 -57 l49 -48 -29 -30 c-16 -17 -36
-31 -44 -31 -8 0 -19 -9 -25 -21 -7 -11 -14 -18 -17 -15 -4 3 -12 1 -20 -5 -7
-6 -13 -8 -13 -3 0 5 -4 5 -8 -1 -4 -5 -15 -14 -25 -20 -10 -5 -26 -23 -35
-40 -9 -16 -21 -33 -27 -37 -5 -4 -2 -10 7 -13 9 -4 14 -13 12 -20 -7 -18 35
-65 58 -65 10 0 18 -4 18 -10 0 -12 55 -41 63 -34 3 3 10 -4 16 -15 24 -44
104 -68 167 -49 35 10 93 67 86 86 -2 7 1 12 6 12 10 0 25 32 27 54 0 5 6 11
14 14 8 3 11 0 7 -7 -4 -6 0 -14 8 -17 9 -3 13 -10 10 -15 -3 -5 1 -12 10 -15
12 -5 12 -10 1 -37 -12 -28 -11 -36 10 -77 31 -61 151 -185 198 -205 20 -8 37
-12 37 -9 0 4 6 2 13 -3 6 -6 26 -9 42 -6 17 2 26 0 20 -4 -12 -9 -11 -39 0
-68 13 -33 74 -81 126 -100 27 -9 49 -21 49 -25 0 -14 33 -21 41 -9 4 8 12 8
25 1 13 -7 21 -6 32 4 7 8 18 12 23 9 5 -4 9 1 9 9 0 9 4 16 10 16 5 0 12 11
16 25 3 14 10 25 16 25 5 0 7 4 3 9 -3 5 -1 12 4 15 10 7 6 80 -6 99 -10 16
-11 47 -2 47 4 0 6 11 5 25 -4 31 21 55 30 30 11 -28 54 -38 75 -19 14 13 16
20 8 31 -9 10 -8 13 0 13 7 0 9 5 5 11 -3 6 -2 14 4 18 5 3 12 15 14 26 1 11
6 22 10 26 13 9 59 149 53 160 -4 5 -1 9 5 9 6 0 9 4 5 9 -3 5 -1 12 4 16 13
7 41 64 41 82 0 7 7 30 17 51 9 20 17 39 17 42 1 3 7 15 14 27 6 12 14 32 16
45 3 13 5 23 6 23 3 0 11 39 13 62 1 13 6 23 10 23 5 0 6 4 2 9 -4 8 -9 44
-17 129 -1 6 -5 12 -9 12 -11 0 -4 86 10 129 8 27 8 37 -2 43 -6 4 -7 8 -2 8
6 0 10 14 10 30 0 17 -3 30 -6 30 -3 0 -11 16 -19 35 -8 19 -17 35 -20 35 -8
0 -8 4 -13 85 -3 63 -38 155 -57 155 -11 0 -10 53 4 134 3 17 -2 43 -12 60 -9
17 -15 34 -14 39 1 4 -2 7 -6 7 -5 0 -22 11 -38 25 -15 13 -30 22 -32 20 -3
-2 -10 2 -18 10 -12 11 -54 17 -141 17 -12 0 -22 3 -21 7 3 25 -6 46 -32 71
-16 16 -30 32 -30 35 0 14 -28 33 -58 40 -18 3 -32 10 -32 14 0 4 -10 7 -22 6
-13 -1 -29 2 -35 8 -9 6 -13 6 -13 -1 0 -6 -6 -9 -14 -6 -8 3 -17 0 -21 -5 -3
-6 -10 -9 -15 -6 -5 3 -30 0 -56 -6 -41 -11 -48 -10 -56 4 -15 28 -62 46 -102
41 -20 -2 -47 1 -59 8 -23 12 -29 14 -87 22 -61 8 -89 14 -102 22 -7 5 -20 9
-28 9 -44 4 -50 6 -50 20 0 8 -5 15 -11 15 -5 0 -8 4 -4 9 3 6 -2 14 -11 19
-9 5 -14 11 -12 14 4 7 -41 66 -75 96 -15 14 -25 27 -23 30 11 10 -83 87 -108
88 -15 1 -35 8 -44 16 -26 22 -83 35 -118 28z"/>
</g>
</svg>
