<?xml version="1.0" standalone="no"?>
<!DOCTYPE svg PUBLIC "-//W3C//DTD SVG 20010904//EN"
 "http://www.w3.org/TR/2001/REC-SVG-20010904/DTD/svg10.dtd">
<svg version="1.0" xmlns="http://www.w3.org/2000/svg"
 width="530.000000pt" height="168.000000pt" viewBox="0 0 530.000000 168.000000"
 preserveAspectRatio="xMidYMid meet">
<metadata>
Created by potrace 1.13, written by Peter Selinger 2001-2015
</metadata>
<g transform="translate(0.000000,168.000000) scale(0.100000,-0.100000)"
fill="#000000" stroke="none">
<path d="M2842 1220 c-34 -16 -77 -45 -96 -64 -32 -34 -37 -36 -98 -36 -55 0
-69 -4 -89 -24 -24 -23 -27 -23 -374 -35 -192 -6 -435 -16 -540 -22 -457 -26
-522 -26 -983 -6 -337 15 -459 17 -477 9 -33 -15 -76 -82 -82 -129 -11 -85 50
-195 117 -213 59 -15 399 -32 705 -36 424 -4 906 -22 1345 -50 220 -14 260
-19 288 -36 26 -16 42 -19 81 -13 47 6 50 5 100 -39 61 -54 71 -60 170 -95
l76 -28 93 32 c51 18 105 43 120 57 51 47 75 58 126 58 39 0 56 5 75 24 26 23
26 23 496 40 259 9 524 21 590 26 66 5 161 10 210 10 50 0 95 4 101 8 21 13
34 85 34 182 0 105 -19 155 -62 164 -13 3 -97 7 -188 11 -356 12 -646 26 -890
41 -215 13 -260 19 -286 35 -17 10 -49 19 -71 19 -34 0 -52 9 -107 53 -81 65
-145 87 -247 87 -60 -1 -86 -6 -137 -30z"/>
</g>
</svg>
