<?xml version="1.0" standalone="no"?>
<!DOCTYPE svg PUBLIC "-//W3C//DTD SVG 20010904//EN"
 "http://www.w3.org/TR/2001/REC-SVG-20010904/DTD/svg10.dtd">
<svg version="1.0" xmlns="http://www.w3.org/2000/svg"
 width="516.000000pt" height="218.000000pt" viewBox="0 0 516.000000 218.000000"
 preserveAspectRatio="xMidYMid meet">
<metadata>
Created by potrace 1.13, written by Peter Selinger 2001-2015
</metadata>
<g transform="translate(0.000000,218.000000) scale(0.100000,-0.100000)"
fill="#000000" stroke="none">
<path d="M1145 1529 c-221 -13 -427 -40 -465 -59 -52 -26 -142 -50 -190 -50
-99 0 -109 -26 -109 -270 1 -244 -10 -229 172 -232 183 -3 247 1 281 18 40 19
151 17 326 -6 80 -11 195 -27 256 -35 60 -7 121 -18 135 -23 13 -5 67 -13 119
-17 52 -3 109 -10 125 -15 101 -28 188 -56 240 -78 58 -24 72 -25 370 -34 404
-12 534 -7 574 21 16 12 38 21 49 21 11 0 37 7 58 16 43 18 151 31 374 45 85
5 225 14 310 20 85 5 207 13 270 17 63 4 125 13 137 20 12 6 46 12 75 12 30 0
125 9 213 20 88 11 185 20 216 20 42 0 75 8 124 30 37 17 75 30 85 30 24 0 79
47 90 76 6 14 4 38 -5 66 -7 25 -18 84 -24 131 -10 88 -40 160 -71 173 -8 3
-45 7 -83 9 -37 2 -83 9 -102 14 -19 6 -50 15 -67 20 -47 14 -234 6 -298 -13
-100 -28 -329 -75 -522 -107 -105 -17 -171 -20 -389 -20 l-262 0 -61 31 c-34
18 -75 45 -92 62 -28 26 -43 31 -115 39 -46 5 -138 16 -204 24 -93 11 -161 12
-305 6 -220 -11 -316 -34 -396 -95 l-49 -38 -125 7 c-170 9 -251 28 -330 74
-128 76 -153 81 -335 70z"/>
</g>
</svg>
