<?xml version="1.0" standalone="no"?>
<!DOCTYPE svg PUBLIC "-//W3C//DTD SVG 20010904//EN"
 "http://www.w3.org/TR/2001/REC-SVG-20010904/DTD/svg10.dtd">
<svg version="1.0" xmlns="http://www.w3.org/2000/svg"
 width="500.000000pt" height="202.000000pt" viewBox="0 0 500.000000 202.000000"
 preserveAspectRatio="xMidYMid meet">
<metadata>
Created by potrace 1.13, written by Peter Selinger 2001-2015
</metadata>
<g transform="translate(0.000000,202.000000) scale(0.100000,-0.100000)"
fill="#000000" stroke="none">
<path d="M2699 1627 c-26 -7 -61 -25 -79 -40 -17 -15 -77 -49 -133 -76 -87
-42 -125 -54 -262 -80 -196 -37 -423 -59 -695 -67 -560 -16 -696 -16 -764 -1
-47 10 -81 11 -108 5 -22 -4 -43 -6 -49 -3 -11 8 -136 16 -248 16 -62 1 -87
-3 -99 -14 -12 -13 -15 -51 -15 -231 0 -226 1 -234 47 -258 13 -7 73 -11 162
-10 99 1 157 -3 199 -13 32 -9 108 -18 169 -22 61 -3 120 -9 131 -13 11 -4 35
-3 53 2 22 6 44 6 65 -2 18 -6 127 -13 252 -16 121 -3 233 -9 249 -15 41 -13
133 -11 159 3 34 19 325 46 502 47 l111 1 74 -70 c76 -71 165 -125 255 -155
28 -9 69 -27 92 -41 57 -33 100 -31 140 5 18 16 58 39 90 50 32 11 76 31 98
43 56 30 160 115 175 142 21 41 66 59 154 61 82 2 106 4 386 31 182 18 453 36
528 34 29 0 71 4 92 10 49 13 57 38 40 118 -6 31 -14 128 -17 214 -4 102 -10
161 -18 168 -17 14 -96 16 -340 5 -240 -9 -243 -10 -330 -6 -33 1 -94 2 -135
3 -41 0 -93 2 -115 4 -272 18 -290 21 -338 63 -35 31 -87 59 -168 92 -68 27
-240 36 -310 16z"/>
</g>
</svg>
