<?xml version="1.0" standalone="no"?>
<!DOCTYPE svg PUBLIC "-//W3C//DTD SVG 20010904//EN"
 "http://www.w3.org/TR/2001/REC-SVG-20010904/DTD/svg10.dtd">
<svg version="1.0" xmlns="http://www.w3.org/2000/svg"
 width="480.000000pt" height="166.000000pt" viewBox="0 0 480.000000 166.000000"
 preserveAspectRatio="xMidYMid meet">
<metadata>
Created by potrace 1.13, written by Peter Selinger 2001-2015
</metadata>
<g transform="translate(0.000000,166.000000) scale(0.100000,-0.100000)"
fill="#000000" stroke="none">
<path d="M2606 1131 c-58 -15 -75 -25 -110 -63 -35 -38 -48 -46 -92 -52 -28
-3 -58 -4 -66 -1 -7 3 -45 -2 -83 -11 -122 -28 -185 -34 -385 -40 -267 -7
-849 24 -877 47 -19 17 -283 16 -321 0 -26 -11 -60 -12 -155 -7 -67 4 -170 9
-228 12 -140 6 -137 10 -139 -161 -2 -160 -3 -152 16 -159 21 -8 377 -36 434
-34 25 0 76 -4 113 -11 45 -8 104 -11 170 -6 164 10 225 10 342 -3 98 -11 410
-29 660 -37 182 -6 290 -17 314 -33 29 -18 155 -42 224 -42 38 0 51 -5 70 -26
27 -31 61 -50 139 -75 l59 -20 82 25 c60 19 93 35 122 62 28 27 53 40 85 45
165 26 199 33 285 59 17 5 98 12 180 15 83 3 213 10 290 16 77 5 223 12 325
14 238 6 306 12 327 33 14 14 15 34 10 147 -3 71 -8 138 -12 147 -13 34 -77
41 -219 23 -122 -15 -303 -23 -591 -27 -172 -3 -357 9 -453 27 -45 9 -87 13
-92 10 -22 -13 -85 16 -120 55 -27 32 -51 46 -108 65 -87 29 -104 30 -196 6z"/>
</g>
</svg>
