<?xml version="1.0" standalone="no"?>
<!DOCTYPE svg PUBLIC "-//W3C//DTD SVG 20010904//EN"
 "http://www.w3.org/TR/2001/REC-SVG-20010904/DTD/svg10.dtd">
<svg version="1.0" xmlns="http://www.w3.org/2000/svg"
 width="500.000000pt" height="180.000000pt" viewBox="0 0 500.000000 180.000000"
 preserveAspectRatio="xMidYMid meet">
<metadata>
Created by potrace 1.13, written by Peter Selinger 2001-2015
</metadata>
<g transform="translate(0.000000,180.000000) scale(0.100000,-0.100000)"
fill="#000000" stroke="none">
<path d="M2075 1383 c-45 -6 -85 -28 -129 -67 -21 -20 -43 -36 -48 -36 -5 0
-26 -13 -46 -30 -20 -16 -57 -38 -82 -49 -43 -19 -68 -20 -531 -19 -521 0
-523 0 -536 -50 -3 -13 -1 -33 5 -45 22 -45 24 -87 7 -114 -15 -22 -17 -42
-12 -111 4 -66 1 -90 -11 -112 -14 -23 -14 -31 -3 -44 12 -14 50 -16 305 -17
300 -1 547 -11 627 -27 42 -8 109 -45 117 -64 2 -4 8 -8 14 -8 5 0 22 -8 36
-19 15 -10 61 -28 102 -40 60 -18 105 -32 105 -32 0 0 29 -7 65 -14 36 -8 119
-14 185 -15 103 0 138 5 240 31 66 17 158 37 205 45 47 7 117 20 155 28 39 9
78 16 87 16 10 0 51 16 92 35 l75 35 591 0 c618 0 623 0 658 42 6 8 18 63 27
123 14 89 14 117 4 147 -6 20 -9 43 -6 52 3 8 2 18 -3 21 -6 4 -10 23 -10 44
0 62 -18 71 -149 71 -62 0 -154 5 -204 10 -51 6 -247 12 -437 14 -190 2 -403
9 -474 15 -113 10 -136 15 -190 43 -192 100 -234 115 -371 129 -100 11 -413
19 -460 12z"/>
</g>
</svg>
