<?xml version="1.0" standalone="no"?>
<!DOCTYPE svg PUBLIC "-//W3C//DTD SVG 20010904//EN"
 "http://www.w3.org/TR/2001/REC-SVG-20010904/DTD/svg10.dtd">
<svg version="1.0" xmlns="http://www.w3.org/2000/svg"
 width="520.000000pt" height="170.000000pt" viewBox="0 0 520.000000 170.000000"
 preserveAspectRatio="xMidYMid meet">
<metadata>
Created by potrace 1.13, written by Peter Selinger 2001-2015
</metadata>
<g transform="translate(0.000000,170.000000) scale(0.100000,-0.100000)"
fill="#000000" stroke="none">
<path d="M2720 1434 c-41 -7 -91 -15 -110 -18 -51 -6 -153 -62 -220 -122 -44
-39 -69 -54 -102 -59 -24 -4 -74 -17 -113 -30 -115 -37 -215 -66 -240 -71 -14
-2 -37 -9 -52 -15 -19 -7 -60 -7 -138 2 -89 9 -118 17 -150 38 -39 25 -44 25
-190 24 -82 -1 -209 -10 -282 -19 -105 -13 -144 -14 -196 -5 -35 6 -126 11
-203 11 -129 0 -143 -2 -201 -27 -70 -30 -103 -75 -103 -138 0 -22 -8 -47 -20
-62 -16 -21 -20 -41 -20 -104 0 -76 1 -80 40 -132 34 -46 49 -57 103 -75 84
-29 297 -33 369 -6 44 17 48 17 85 0 30 -13 75 -19 184 -22 79 -2 155 -5 169
-6 14 0 48 2 75 6 28 4 131 11 231 14 126 5 186 11 197 20 11 10 37 12 94 8
43 -3 130 -8 193 -11 103 -6 126 -11 224 -48 84 -32 120 -53 160 -89 64 -59
125 -89 250 -122 117 -31 137 -32 263 -7 54 11 133 25 175 32 65 10 92 21 171
68 75 45 114 62 193 80 54 13 125 32 157 43 44 14 87 18 175 18 64 -1 141 4
171 9 29 6 136 11 236 11 192 0 227 6 283 47 l32 24 0 132 c0 92 -6 164 -20
236 -12 58 -22 107 -25 109 -2 2 -41 15 -86 28 -67 19 -106 24 -203 24 -67 0
-159 7 -205 14 -71 12 -100 12 -185 0 -56 -7 -116 -18 -135 -25 -36 -13 -159
-6 -224 12 -42 11 -147 58 -272 121 -44 22 -120 53 -170 69 -76 24 -106 29
-190 28 -55 -1 -134 -7 -175 -15z"/>
</g>
</svg>
