<?xml version="1.0" standalone="no"?>
<!DOCTYPE svg PUBLIC "-//W3C//DTD SVG 20010904//EN"
 "http://www.w3.org/TR/2001/REC-SVG-20010904/DTD/svg10.dtd">
<svg version="1.0" xmlns="http://www.w3.org/2000/svg"
 width="507.000000pt" height="160.000000pt" viewBox="0 0 507.000000 160.000000"
 preserveAspectRatio="xMidYMid meet">
<metadata>
Created by potrace 1.13, written by Peter Selinger 2001-2015
</metadata>
<g transform="translate(0.000000,160.000000) scale(0.100000,-0.100000)"
fill="#000000" stroke="none">
<path d="M2320 1285 c-13 -14 -39 -27 -59 -31 -107 -17 -272 -90 -294 -129 -4
-8 -14 -15 -22 -15 -7 0 -24 -14 -36 -31 -20 -28 -25 -30 -63 -24 -116 18
-211 20 -616 10 -334 -9 -399 -8 -481 5 -52 8 -78 7 -123 -5 -31 -8 -74 -15
-95 -15 -42 0 -51 -11 -51 -61 0 -17 -5 -39 -10 -49 -32 -59 -22 -292 13 -327
12 -12 115 -15 641 -17 701 -3 639 4 692 -76 24 -36 89 -107 137 -150 34 -30
86 -38 322 -49 147 -8 185 -7 207 5 15 8 32 14 38 14 19 0 153 61 173 78 9 8
26 20 36 26 10 6 35 24 55 40 l37 29 427 0 c353 -1 1053 -10 1192 -16 79 -3
147 4 166 17 18 13 19 29 20 240 1 123 -2 230 -6 236 -11 18 -158 31 -273 24
-56 -3 -118 -6 -137 -6 -19 0 -324 2 -676 5 -731 5 -659 -4 -758 97 -27 27
-57 50 -66 50 -9 0 -27 11 -40 25 -18 19 -34 25 -65 25 -22 0 -49 6 -60 14
-11 7 -38 19 -60 26 -22 7 -50 23 -63 36 -30 32 -72 31 -102 -1z"/>
</g>
</svg>
