<?xml version="1.0" standalone="no"?>
<!DOCTYPE svg PUBLIC "-//W3C//DTD SVG 20010904//EN"
 "http://www.w3.org/TR/2001/REC-SVG-20010904/DTD/svg10.dtd">
<svg version="1.0" xmlns="http://www.w3.org/2000/svg"
 width="480.000000pt" height="233.000000pt" viewBox="0 0 480.000000 233.000000"
 preserveAspectRatio="xMidYMid meet">
<metadata>
Created by potrace 1.13, written by Peter Selinger 2001-2015
</metadata>
<g transform="translate(0.000000,233.000000) scale(0.100000,-0.100000)"
fill="#000000" stroke="none">
<path d="M2298 1730 c-132 -16 -267 -74 -345 -149 -45 -43 -47 -43 -147 -55
-66 -8 -156 -10 -261 -5 -98 4 -167 3 -178 -3 -12 -6 -54 -6 -118 1 -55 6
-170 11 -255 11 -178 0 -215 -9 -232 -59 -6 -17 -18 -39 -27 -47 -22 -22 -19
-77 6 -105 17 -19 20 -33 17 -71 -3 -25 -12 -54 -21 -62 -32 -33 -30 -126 3
-126 6 0 10 -13 10 -29 0 -16 7 -34 14 -41 31 -25 728 -42 851 -20 44 8 181
-1 250 -15 11 -3 46 -29 78 -59 70 -64 179 -121 262 -136 33 -6 83 -23 112
-37 l51 -27 55 27 c31 15 65 27 77 27 78 0 237 72 310 139 60 56 63 57 165 66
110 10 137 10 354 -4 250 -16 624 -11 661 9 33 17 37 25 50 88 6 28 16 52 21
52 5 0 9 9 9 20 0 11 -4 20 -8 20 -15 0 -32 50 -32 96 0 47 20 124 32 124 13
0 9 21 -7 37 -9 8 -19 28 -22 44 -10 49 -43 62 -162 62 -58 0 -158 0 -221 0
-286 2 -431 2 -510 -2 -138 -7 -218 6 -265 42 -22 17 -45 39 -52 48 -21 28
-124 84 -198 107 -60 19 -219 45 -250 41 -5 -1 -40 -5 -77 -9z"/>
</g>
</svg>
