<?xml version="1.0" standalone="no"?>
<!DOCTYPE svg PUBLIC "-//W3C//DTD SVG 20010904//EN"
 "http://www.w3.org/TR/2001/REC-SVG-20010904/DTD/svg10.dtd">
<svg version="1.0" xmlns="http://www.w3.org/2000/svg"
 width="500.000000pt" height="233.000000pt" viewBox="0 0 500.000000 233.000000"
 preserveAspectRatio="xMidYMid meet">
<metadata>
Created by potrace 1.13, written by Peter Selinger 2001-2015
</metadata>
<g transform="translate(0.000000,233.000000) scale(0.100000,-0.100000)"
fill="#000000" stroke="none">
<path d="M2625 1619 c-49 -4 -110 -12 -135 -19 -75 -19 -190 -87 -235 -139
-19 -21 -31 -24 -115 -26 -390 -13 -892 -27 -930 -26 -212 8 -472 11 -497 6
-28 -5 -34 -12 -43 -46 -6 -22 -9 -53 -5 -68 3 -15 7 -114 9 -220 3 -175 5
-195 21 -208 24 -17 104 -17 465 3 160 8 334 13 388 11 217 -10 448 -28 470
-37 13 -6 63 -10 111 -10 77 0 90 -3 107 -21 40 -45 179 -128 214 -129 9 0 33
-9 53 -19 21 -11 60 -25 87 -32 51 -13 89 -7 165 26 17 7 59 25 95 40 79 34
127 64 160 100 34 37 75 57 104 49 13 -3 53 2 88 11 55 15 138 17 648 20 322
2 593 6 603 10 9 4 19 17 22 29 7 28 13 437 7 454 -13 38 -138 57 -178 27 -24
-18 -44 -19 -80 0 -24 11 -63 13 -204 9 -189 -6 -190 -6 -360 1 -240 10 -358
15 -465 18 -134 5 -148 9 -207 62 -54 48 -229 138 -261 133 -7 -1 -52 -5 -102
-9z"/>
</g>
</svg>
