<?xml version="1.0" standalone="no"?>
<!DOCTYPE svg PUBLIC "-//W3C//DTD SVG 20010904//EN"
 "http://www.w3.org/TR/2001/REC-SVG-20010904/DTD/svg10.dtd">
<svg version="1.0" xmlns="http://www.w3.org/2000/svg"
 width="470.000000pt" height="219.000000pt" viewBox="0 0 470.000000 219.000000"
 preserveAspectRatio="xMidYMid meet">
<metadata>
Created by potrace 1.13, written by Peter Selinger 2001-2015
</metadata>
<g transform="translate(0.000000,219.000000) scale(0.100000,-0.100000)"
fill="#000000" stroke="none">
<path d="M4334 1956 c-17 -8 -46 -17 -65 -21 -19 -4 -41 -13 -50 -21 -9 -8
-35 -16 -58 -18 -24 -2 -66 -16 -93 -30 -39 -20 -64 -26 -118 -26 -56 0 -73
-4 -106 -27 -28 -18 -101 -42 -249 -80 -254 -65 -528 -141 -572 -160 -35 -14
-93 -18 -93 -5 0 19 -73 55 -110 54 -21 -1 -57 5 -80 13 -24 8 -77 15 -119 15
-96 0 -173 -34 -258 -114 -33 -30 -75 -66 -94 -78 -21 -14 -43 -43 -58 -75
-21 -45 -29 -52 -60 -58 -144 -25 -490 -117 -761 -203 -156 -50 -289 -90 -390
-118 -207 -58 -699 -252 -758 -299 -88 -71 -97 -224 -16 -294 20 -18 46 -31
61 -31 15 0 121 31 237 69 116 38 245 80 286 92 41 12 82 26 90 30 8 5 51 18
95 29 113 30 304 84 410 115 117 35 312 86 500 131 83 20 194 47 248 60 120
29 143 30 150 5 9 -35 64 -60 118 -54 26 3 62 0 80 -6 18 -6 64 -14 103 -18
39 -3 81 -12 93 -20 20 -13 23 -12 45 17 13 18 35 38 50 46 14 7 52 40 83 73
39 41 66 61 90 65 39 8 75 47 75 83 0 44 38 68 156 96 122 30 449 126 607 178
32 11 85 19 122 19 56 0 68 4 97 28 42 36 82 50 133 45 31 -4 49 1 78 21 40
27 71 33 82 16 7 -11 44 -7 140 17 101 25 133 71 136 195 2 68 0 79 -35 141
-50 90 -84 117 -144 117 -26 -1 -61 -7 -78 -14z"/>
</g>
</svg>
