<?xml version="1.0" standalone="no"?>
<!DOCTYPE svg PUBLIC "-//W3C//DTD SVG 20010904//EN"
 "http://www.w3.org/TR/2001/REC-SVG-20010904/DTD/svg10.dtd">
<svg version="1.0" xmlns="http://www.w3.org/2000/svg"
 width="480.000000pt" height="199.000000pt" viewBox="0 0 480.000000 199.000000"
 preserveAspectRatio="xMidYMid meet">
<metadata>
Created by potrace 1.13, written by Peter Selinger 2001-2015
</metadata>
<g transform="translate(0.000000,199.000000) scale(0.100000,-0.100000)"
fill="#000000" stroke="none">
<path d="M1939 1485 c-81 -13 -155 -44 -231 -97 -14 -10 -30 -18 -35 -18 -4 0
-23 -16 -42 -35 -18 -19 -50 -40 -70 -46 -42 -12 -205 -27 -381 -35 -69 -2
-140 -9 -158 -15 -18 -6 -49 -8 -70 -4 -29 5 -43 2 -60 -13 -24 -21 -29 -58
-9 -64 8 -3 13 -33 14 -94 3 -111 13 -184 24 -184 5 0 9 -7 9 -15 0 -8 -4 -15
-10 -15 -5 0 -10 -15 -10 -33 0 -25 6 -37 24 -46 13 -8 29 -10 36 -6 7 4 64 9
128 11 65 3 142 8 172 13 30 5 123 8 205 7 135 -2 154 -4 185 -24 111 -69 260
-122 343 -122 20 0 56 -5 80 -12 37 -9 49 -9 77 5 18 10 39 17 47 17 23 0 146
42 181 62 40 22 143 97 157 114 34 40 481 73 1014 73 178 0 257 4 267 12 9 7
31 9 62 5 40 -5 52 -3 69 14 20 18 21 27 16 92 -3 40 -10 75 -15 76 -11 5 -10
52 2 52 13 0 13 37 0 42 -6 2 -11 45 -13 98 l-2 95 -95 8 c-60 6 -134 5 -200
-2 -58 -6 -235 -18 -395 -26 -701 -37 -739 -36 -798 7 -127 93 -331 133 -518
103z"/>
</g>
</svg>
