<?xml version="1.0" standalone="no"?>
<!DOCTYPE svg PUBLIC "-//W3C//DTD SVG 20010904//EN"
 "http://www.w3.org/TR/2001/REC-SVG-20010904/DTD/svg10.dtd">
<svg version="1.0" xmlns="http://www.w3.org/2000/svg"
 width="500.000000pt" height="245.000000pt" viewBox="0 0 500.000000 245.000000"
 preserveAspectRatio="xMidYMid meet">
<metadata>
Created by potrace 1.13, written by Peter Selinger 2001-2015
</metadata>
<g transform="translate(0.000000,245.000000) scale(0.100000,-0.100000)"
fill="#000000" stroke="none">
<path d="M2330 1715 c-7 -8 -31 -20 -54 -26 -22 -6 -57 -16 -76 -22 -39 -13
-170 -96 -170 -107 0 -4 -21 -25 -46 -45 l-46 -38 -32 17 c-27 14 -49 16 -141
11 -195 -11 -528 -35 -610 -45 -44 -5 -123 -14 -175 -19 -257 -24 -250 -21
-250 -118 0 -42 4 -73 10 -73 6 0 10 -18 10 -39 0 -56 20 -192 31 -213 8 -15
24 -18 102 -18 51 0 135 7 187 15 60 10 201 17 382 20 261 5 409 14 494 31 25
5 38 0 65 -23 19 -15 43 -34 54 -41 11 -7 34 -21 50 -32 137 -91 381 -97 530
-13 22 13 49 27 60 32 12 5 39 30 60 55 67 79 56 77 525 77 228 0 471 -3 540
-6 69 -2 199 -6 290 -9 225 -6 208 -25 211 229 2 185 1 198 -17 208 -20 12
-106 14 -798 21 -241 2 -450 1 -465 -3 -14 -4 -79 -5 -143 -2 -100 5 -121 9
-145 28 -99 79 -174 113 -280 129 -26 4 -57 13 -68 20 -26 18 -69 18 -85 -1z"/>
</g>
</svg>
