<?xml version="1.0" standalone="no"?>
<!DOCTYPE svg PUBLIC "-//W3C//DTD SVG 20010904//EN"
 "http://www.w3.org/TR/2001/REC-SVG-20010904/DTD/svg10.dtd">
<svg version="1.0" xmlns="http://www.w3.org/2000/svg"
 width="472.000000pt" height="284.000000pt" viewBox="0 0 472.000000 284.000000"
 preserveAspectRatio="xMidYMid meet">
<metadata>
Created by potrace 1.13, written by Peter Selinger 2001-2015
</metadata>
<g transform="translate(0.000000,284.000000) scale(0.100000,-0.100000)"
fill="#000000" stroke="none">
<path d="M2615 1740 c-16 -11 -43 -20 -58 -20 -18 0 -38 -10 -55 -29 -15 -16
-46 -40 -68 -54 -23 -14 -68 -55 -100 -91 l-58 -66 -110 0 c-61 0 -169 7 -241
16 -71 8 -215 21 -320 29 -104 8 -215 20 -245 26 -62 13 -521 16 -540 4 -9 -5
-11 -27 -7 -73 3 -36 0 -77 -5 -91 -15 -37 -19 -252 -6 -268 6 -7 33 -25 61
-39 50 -24 51 -25 170 -14 66 6 138 8 161 4 47 -8 151 -15 215 -14 24 0 60 -5
79 -11 19 -6 69 -13 111 -15 42 -2 112 -5 156 -8 44 -2 167 -7 273 -10 165 -6
200 -9 233 -26 21 -11 49 -20 62 -20 13 0 37 -15 57 -35 41 -43 140 -90 220
-106 144 -28 277 15 407 134 50 45 83 68 105 71 37 5 509 22 713 25 91 2 134
6 143 15 10 10 14 58 15 187 2 143 -1 184 -16 230 l-18 56 -72 7 c-40 3 -129
2 -197 -4 -152 -14 -622 -5 -653 12 -12 6 -41 29 -65 50 -50 46 -125 83 -202
100 -30 6 -66 20 -79 30 -29 22 -29 22 -66 -2z"/>
</g>
</svg>
