<?xml version="1.0" standalone="no"?>
<!DOCTYPE svg PUBLIC "-//W3C//DTD SVG 20010904//EN"
 "http://www.w3.org/TR/2001/REC-SVG-20010904/DTD/svg10.dtd">
<svg version="1.0" xmlns="http://www.w3.org/2000/svg"
 width="514.000000pt" height="160.000000pt" viewBox="0 0 514.000000 160.000000"
 preserveAspectRatio="xMidYMid meet">
<metadata>
Created by potrace 1.13, written by Peter Selinger 2001-2015
</metadata>
<g transform="translate(0.000000,160.000000) scale(0.100000,-0.100000)"
fill="#000000" stroke="none">
<path d="M2490 1286 c-54 -14 -105 -44 -167 -98 -24 -21 -54 -38 -67 -38 -12
0 -45 -6 -72 -14 -135 -40 -920 -63 -1521 -45 -100 3 -188 2 -194 -2 -9 -5 -6
-15 11 -36 20 -26 21 -35 15 -108 -10 -117 -21 -167 -40 -181 -28 -20 -11 -42
37 -48 24 -3 171 -10 328 -16 157 -6 312 -13 346 -15 33 -3 263 -10 510 -15
247 -5 484 -12 526 -16 74 -6 81 -9 146 -58 42 -32 92 -59 128 -70 32 -10 74
-28 92 -39 l33 -20 57 28 c127 61 159 80 206 118 53 44 67 48 256 71 86 11
303 16 865 20 413 2 768 9 790 13 45 10 45 7 25 123 -6 36 -12 105 -13 154 -2
70 -7 92 -19 100 -11 7 -85 6 -235 -2 -220 -11 -564 -5 -908 17 -82 5 -240 15
-350 21 -296 16 -356 25 -407 64 -130 97 -251 127 -378 92z"/>
</g>
</svg>
