<?xml version="1.0" standalone="no"?>
<!DOCTYPE svg PUBLIC "-//W3C//DTD SVG 20010904//EN"
 "http://www.w3.org/TR/2001/REC-SVG-20010904/DTD/svg10.dtd">
<svg version="1.0" xmlns="http://www.w3.org/2000/svg"
 width="533.000000pt" height="241.000000pt" viewBox="0 0 533.000000 241.000000"
 preserveAspectRatio="xMidYMid meet">
<metadata>
Created by potrace 1.13, written by Peter Selinger 2001-2015
</metadata>
<g transform="translate(0.000000,241.000000) scale(0.100000,-0.100000)"
fill="#000000" stroke="none">
<path d="M2852 1651 c-77 -26 -124 -48 -145 -69 -39 -37 -61 -48 -112 -56 -22
-4 -67 -15 -100 -26 -33 -10 -89 -24 -125 -30 -36 -7 -96 -18 -135 -26 -124
-24 -300 -50 -555 -81 -190 -23 -603 -23 -720 -1 -47 9 -99 22 -115 28 -36 14
-212 25 -248 16 -14 -3 -43 -21 -65 -38 -22 -18 -48 -38 -58 -44 -15 -9 -20
-33 -30 -140 -9 -98 -9 -135 0 -154 l11 -25 170 0 c98 -1 198 -6 235 -14 102
-20 697 -19 1020 2 146 9 333 17 415 17 169 0 380 -24 410 -46 11 -8 35 -25
52 -38 46 -34 171 -59 258 -54 82 6 224 58 326 119 39 23 89 44 120 49 79 15
240 29 254 23 19 -7 33 -49 41 -122 7 -72 28 -101 72 -101 37 0 103 12 327 59
171 35 214 41 430 51 261 12 271 15 301 72 18 35 21 81 10 173 -6 52 -17 83
-56 165 -8 16 -8 16 -190 10 -102 -3 -239 12 -394 44 -39 8 -118 22 -176 31
-58 8 -123 20 -146 25 -22 5 -101 14 -175 21 -74 6 -146 18 -161 25 -15 8 -35
14 -45 14 -47 1 -180 43 -236 76 -58 34 -116 51 -247 74 -83 15 -96 13 -218
-29z"/>
</g>
</svg>
