<?xml version="1.0" standalone="no"?>
<!DOCTYPE svg PUBLIC "-//W3C//DTD SVG 20010904//EN"
 "http://www.w3.org/TR/2001/REC-SVG-20010904/DTD/svg10.dtd">
<svg version="1.0" xmlns="http://www.w3.org/2000/svg"
 width="990.000000pt" height="378.000000pt" viewBox="0 0 990.000000 378.000000"
 preserveAspectRatio="xMidYMid meet">
<metadata>
Created by potrace 1.13, written by Peter Selinger 2001-2015
</metadata>
<g transform="translate(0.000000,378.000000) scale(0.100000,-0.100000)"
fill="#000000" stroke="none">
<path d="M4460 2840 c0 -5 -13 -10 -28 -10 -16 0 -34 -8 -42 -20 -8 -11 -25
-20 -38 -20 -14 0 -36 -13 -52 -30 -15 -16 -35 -30 -44 -30 -9 0 -16 -4 -16
-10 0 -6 -43 -10 -110 -10 -67 0 -110 -4 -110 -10 0 -5 -13 -10 -30 -10 -16 0
-30 -4 -30 -10 0 -5 -7 -10 -15 -10 -8 0 -15 -4 -15 -10 0 -5 -7 -10 -15 -10
-9 0 -45 -29 -80 -65 -37 -36 -74 -65 -85 -65 -11 0 -20 -4 -20 -10 0 -6 -27
-10 -60 -10 -33 0 -60 4 -60 9 0 5 -45 12 -100 16 -55 4 -100 11 -100 16 0 5
-13 9 -30 9 -16 0 -30 5 -30 10 0 6 -43 10 -110 10 -67 0 -110 4 -110 10 0 6
-38 10 -95 10 -57 0 -95 4 -95 10 0 7 -168 10 -485 10 -317 0 -485 3 -485 10
0 6 -60 10 -160 10 -100 0 -160 -4 -160 -10 0 -6 -27 -10 -60 -10 -33 0 -60
-4 -60 -10 0 -5 -18 -10 -40 -10 -22 0 -40 -4 -40 -10 0 -6 -47 -10 -120 -10
-73 0 -120 -4 -120 -10 0 -6 -48 -10 -125 -10 -69 0 -125 -4 -125 -9 0 -5 -22
-11 -50 -15 -27 -4 -50 -11 -50 -16 0 -6 -27 -10 -60 -10 -33 0 -60 -4 -60
-10 0 -5 -7 -10 -15 -10 -20 0 -85 -65 -85 -85 0 -8 -4 -15 -10 -15 -6 0 -10
-27 -10 -60 0 -33 -4 -60 -10 -60 -5 0 -10 -13 -10 -30 0 -16 -4 -30 -10 -30
-6 0 -10 -37 -10 -90 0 -53 4 -90 10 -90 6 0 10 -18 10 -40 0 -22 5 -40 10
-40 6 0 10 -32 10 -75 0 -43 4 -75 10 -75 6 0 10 -7 10 -15 0 -20 45 -65 65
-65 8 0 15 -4 15 -10 0 -6 88 -10 245 -10 157 0 245 4 245 10 0 6 73 10 200
10 127 0 200 -4 200 -10 0 -5 18 -10 40 -10 22 0 40 5 40 10 0 6 14 10 30 10
17 0 30 5 30 10 0 6 9 10 20 10 11 0 20 5 20 10 0 6 9 10 20 10 11 0 20 5 20
10 0 6 85 10 235 10 150 0 235 -4 235 -10 0 -6 60 -10 160 -10 100 0 160 -4
160 -10 0 -6 43 -10 110 -10 67 0 110 -4 110 -10 0 -6 38 -10 95 -10 57 0 95
-4 95 -10 0 -6 37 -10 90 -10 53 0 90 -4 90 -10 0 -6 37 -10 90 -10 53 0 90
-4 90 -10 0 -6 40 -10 100 -10 60 0 100 -4 100 -10 0 -5 18 -10 40 -10 22 0
40 -4 40 -10 0 -5 7 -10 16 -10 8 0 37 -22 64 -50 27 -27 54 -50 60 -50 16 0
60 -47 60 -65 0 -10 10 -15 30 -15 17 0 30 -4 30 -10 0 -5 6 -10 13 -10 7 0
19 -9 27 -20 8 -11 21 -20 28 -20 7 0 31 -18 52 -40 34 -35 44 -40 83 -40 25
0 47 -5 49 -10 2 -6 29 -14 61 -17 31 -3 57 -10 57 -14 0 -5 50 -9 110 -9 62
0 110 4 110 9 0 6 32 13 70 17 39 3 70 11 70 15 0 5 50 9 110 9 67 0 110 4
110 10 0 6 9 10 20 10 11 0 20 5 20 10 0 6 7 10 15 10 8 0 15 7 15 16 0 20 24
44 44 44 9 0 16 5 16 10 0 6 14 10 30 10 17 0 30 5 30 10 0 6 7 10 15 10 18 0
85 64 85 80 0 16 47 60 65 60 8 0 15 5 15 10 0 6 23 10 50 10 28 0 50 5 50 10
0 6 70 10 190 10 120 0 190 4 190 10 0 6 68 10 185 10 117 0 185 4 185 10 0 7
168 10 485 10 317 0 485 -3 485 -10 0 -6 127 -10 360 -10 233 0 360 -4 360
-10 0 -6 68 -10 185 -10 117 0 185 -4 185 -10 0 -6 43 -10 110 -10 67 0 110
-4 110 -10 0 -6 60 -10 160 -10 100 0 160 -4 160 -10 0 -6 58 -10 155 -10 97
0 155 -4 155 -10 0 -6 37 -10 90 -10 53 0 90 4 90 10 0 6 9 10 20 10 11 0 20
5 20 10 0 6 7 10 15 10 9 0 36 20 60 45 36 36 45 51 45 80 0 19 5 35 10 35 6
0 10 9 10 20 0 11 5 20 10 20 6 0 10 35 10 85 0 50 -4 85 -10 85 -5 0 -10 14
-10 30 0 17 -4 30 -10 30 -5 0 -10 18 -10 40 0 22 -4 40 -10 40 -5 0 -10 9
-10 20 0 11 -4 20 -10 20 -5 0 -10 7 -10 15 0 20 -85 105 -105 105 -8 0 -15 5
-15 10 0 6 -9 10 -20 10 -11 0 -20 5 -20 10 0 6 -9 10 -20 10 -11 0 -20 5 -20
10 0 6 -13 10 -30 10 -16 0 -30 5 -30 10 0 6 -18 10 -40 10 -22 0 -40 5 -40
10 0 6 -32 10 -75 10 -43 0 -75 4 -75 10 0 6 -22 10 -50 10 -27 0 -50 5 -50
10 0 6 -27 10 -60 10 -33 0 -60 4 -60 10 0 6 -37 10 -90 10 -53 0 -90 4 -90
10 0 6 -27 10 -60 10 -33 0 -60 4 -60 10 0 6 -27 10 -60 10 -33 0 -60 4 -60
10 0 6 -33 10 -80 10 -47 0 -80 4 -80 10 0 6 -38 10 -95 10 -57 0 -95 4 -95
10 0 6 -83 10 -229 10 -175 0 -230 3 -233 13 -7 18 -1419 18 -1425 0 -3 -9
-30 -13 -89 -13 -49 0 -84 -4 -84 -10 0 -6 -57 -10 -150 -10 -93 0 -150 -4
-150 -10 0 -6 -33 -10 -80 -10 -47 0 -80 4 -80 10 0 6 -12 10 -26 10 -15 0
-34 8 -43 18 -9 11 -28 22 -43 26 -22 5 -28 12 -28 32 0 28 -21 54 -42 54 -8
0 -20 9 -28 20 -8 11 -21 20 -30 20 -9 0 -22 9 -30 20 -8 11 -22 20 -32 20
-10 0 -18 5 -18 10 0 6 -9 10 -19 10 -11 0 -23 9 -26 20 -3 11 -15 20 -26 20
-10 0 -19 5 -19 10 0 6 -9 10 -20 10 -11 0 -20 5 -20 10 0 6 -13 10 -30 10
-16 0 -30 5 -30 10 0 6 -27 10 -60 10 -33 0 -60 4 -60 10 0 6 -13 10 -30 10
-16 0 -30 5 -30 10 0 6 -33 10 -80 10 -47 0 -80 -4 -80 -10z"/>
</g>
</svg>
