<?xml version="1.0" standalone="no"?>
<!DOCTYPE svg PUBLIC "-//W3C//DTD SVG 20010904//EN"
 "http://www.w3.org/TR/2001/REC-SVG-20010904/DTD/svg10.dtd">
<svg version="1.0" xmlns="http://www.w3.org/2000/svg"
 width="520.000000pt" height="224.000000pt" viewBox="0 0 520.000000 224.000000"
 preserveAspectRatio="xMidYMid meet">
<metadata>
Created by potrace 1.13, written by Peter Selinger 2001-2015
</metadata>
<g transform="translate(0.000000,224.000000) scale(0.100000,-0.100000)"
fill="#000000" stroke="none">
<path d="M2454 1590 c-12 -5 -25 -13 -28 -19 -4 -6 -31 -18 -61 -27 -31 -8
-87 -38 -127 -67 -95 -68 -148 -95 -211 -108 -29 -6 -63 -18 -76 -26 -14 -9
-35 -13 -55 -9 -17 3 -67 1 -111 -5 -119 -16 -232 -11 -277 12 -48 24 -74 24
-123 -3 -33 -17 -66 -23 -185 -29 -80 -5 -158 -11 -175 -13 -16 -3 -68 -10
-115 -17 -97 -12 -140 -33 -140 -65 0 -12 5 -24 11 -26 6 -2 13 -41 15 -93 10
-197 16 -261 27 -273 9 -11 52 -13 216 -8 113 3 238 9 277 12 53 4 81 1 109
-10 49 -21 63 -20 110 5 22 11 67 25 100 30 90 13 314 14 360 1 22 -6 65 -16
95 -22 30 -6 82 -26 115 -45 33 -19 76 -43 95 -54 53 -29 185 -53 245 -46 107
14 173 41 255 105 61 48 134 86 195 101 28 7 62 20 76 30 22 16 32 17 58 8 19
-7 57 -9 94 -5 34 4 105 8 157 10 52 2 106 7 120 12 14 4 72 9 130 10 157 3
242 10 274 23 16 6 106 18 199 26 164 14 172 15 196 42 16 17 21 28 13 31 -14
4 -16 52 -2 52 13 0 13 47 -1 52 -6 2 -12 44 -14 98 -5 119 -13 166 -31 181
-11 9 -82 9 -307 1 -161 -7 -321 -16 -357 -22 -36 -5 -105 -12 -155 -15 -49
-3 -107 -12 -127 -20 -27 -11 -45 -12 -63 -5 -29 11 -140 3 -171 -12 -15 -7
-34 -5 -68 6 -26 9 -55 16 -66 16 -31 0 -117 37 -196 86 -51 30 -97 49 -146
59 -40 9 -79 22 -88 30 -18 17 -35 18 -66 5z"/>
</g>
</svg>
