<?xml version="1.0" standalone="no"?>
<!DOCTYPE svg PUBLIC "-//W3C//DTD SVG 20010904//EN"
 "http://www.w3.org/TR/2001/REC-SVG-20010904/DTD/svg10.dtd">
<svg version="1.0" xmlns="http://www.w3.org/2000/svg"
 width="530.000000pt" height="201.000000pt" viewBox="0 0 530.000000 201.000000"
 preserveAspectRatio="xMidYMid meet">
<metadata>
Created by potrace 1.13, written by Peter Selinger 2001-2015
</metadata>
<g transform="translate(0.000000,201.000000) scale(0.100000,-0.100000)"
fill="#000000" stroke="none">
<path d="M2835 1391 c-64 -20 -156 -87 -182 -132 -22 -37 -49 -46 -73 -24 -15
13 -30 16 -61 12 -23 -3 -76 2 -118 10 -57 12 -139 16 -326 17 -257 1 -393
-10 -585 -45 -58 -11 -179 -24 -270 -29 -287 -17 -723 -85 -842 -132 -18 -7
-36 -28 -52 -62 -64 -131 -30 -306 64 -338 40 -13 618 -4 793 12 56 5 260 16
452 25 193 8 422 20 510 26 206 13 329 15 383 5 37 -8 48 -6 72 13 l29 21 43
-46 c48 -51 135 -100 197 -110 22 -4 46 -13 52 -20 6 -8 17 -14 24 -14 23 0
209 101 228 124 83 95 87 98 114 81 19 -13 39 -15 81 -11 172 17 445 28 652
28 448 -2 462 -1 489 12 14 7 72 16 128 19 91 4 106 3 127 -14 18 -14 48 -20
124 -25 l101 -7 34 34 c42 42 57 91 57 187 0 167 -78 312 -167 312 -17 0 -59
-10 -94 -22 -93 -32 -247 -31 -304 3 -44 27 -54 27 -465 16 -249 -7 -366 -14
-514 -33 -65 -8 -138 -12 -162 -8 -31 4 -58 1 -94 -12 l-51 -18 -43 47 c-27
28 -68 58 -107 77 -56 26 -75 30 -144 29 -44 -1 -89 -4 -100 -8z"/>
</g>
</svg>
