<?xml version="1.0" standalone="no"?>
<!DOCTYPE svg PUBLIC "-//W3C//DTD SVG 20010904//EN"
 "http://www.w3.org/TR/2001/REC-SVG-20010904/DTD/svg10.dtd">
<svg version="1.0" xmlns="http://www.w3.org/2000/svg"
 width="510.000000pt" height="180.000000pt" viewBox="0 0 510.000000 180.000000"
 preserveAspectRatio="xMidYMid meet">
<metadata>
Created by potrace 1.13, written by Peter Selinger 2001-2015
</metadata>
<g transform="translate(0.000000,180.000000) scale(0.100000,-0.100000)"
fill="#000000" stroke="none">
<path d="M2844 1481 c-126 -26 -136 -30 -217 -85 -59 -40 -104 -63 -144 -72
-89 -21 -534 -27 -1183 -16 -478 8 -580 7 -602 -4 -16 -8 -59 -14 -105 -14
-61 0 -85 -4 -108 -20 -16 -11 -39 -20 -49 -20 -30 0 -125 -50 -146 -78 -25
-32 -25 -70 0 -252 12 -89 26 -150 35 -160 8 -9 15 -22 15 -28 0 -7 17 -24 38
-39 l38 -28 915 1 c502 0 963 4 1022 9 l109 8 76 -79 c57 -59 99 -92 163 -126
78 -42 96 -48 207 -62 146 -19 235 -11 357 33 44 16 104 37 133 46 43 14 56
23 72 55 14 28 36 47 83 73 l64 35 517 4 c445 3 518 5 527 18 7 10 8 102 4
270 l-6 255 -29 27 c-52 48 -83 51 -560 55 -410 4 -536 7 -567 11 -6 1 -33 30
-60 65 -44 55 -58 65 -129 94 -76 31 -93 33 -284 48 -36 2 -101 -6 -186 -24z"/>
</g>
</svg>
