<?xml version="1.0" standalone="no"?>
<!DOCTYPE svg PUBLIC "-//W3C//DTD SVG 20010904//EN"
 "http://www.w3.org/TR/2001/REC-SVG-20010904/DTD/svg10.dtd">
<svg version="1.0" xmlns="http://www.w3.org/2000/svg"
 width="559.000000pt" height="257.000000pt" viewBox="0 0 559.000000 257.000000"
 preserveAspectRatio="xMidYMid meet">
<metadata>
Created by potrace 1.13, written by Peter Selinger 2001-2015
</metadata>
<g transform="translate(0.000000,257.000000) scale(0.100000,-0.100000)"
fill="#000000" stroke="none">
<path d="M2960 1665 c-126 -56 -149 -67 -166 -87 -10 -10 -31 -18 -49 -18 -21
0 -40 -9 -56 -26 -50 -54 -104 -71 -275 -88 -87 -9 -235 -20 -329 -25 -206
-12 -763 -12 -860 -1 -178 22 -359 52 -504 85 -175 39 -209 42 -250 20 -29
-15 -61 -76 -61 -118 0 -70 50 -151 114 -184 47 -24 261 -70 481 -103 239 -35
387 -41 1030 -42 l629 -1 36 -39 c29 -32 45 -40 80 -44 25 -3 77 -20 115 -37
56 -25 87 -32 156 -35 99 -5 156 10 229 58 25 16 54 30 66 30 44 0 86 23 110
61 13 21 34 40 47 43 12 2 186 16 387 31 283 20 398 25 510 19 109 -5 178 -2
278 10 74 9 193 18 265 19 130 2 133 2 169 32 38 30 75 100 85 161 4 24 -3 51
-26 101 -39 83 -55 101 -107 123 -58 25 -416 23 -483 -3 -24 -9 -73 -22 -110
-28 -36 -5 -95 -18 -131 -29 -51 -15 -126 -21 -360 -29 -162 -6 -343 -11 -403
-11 -114 0 -106 -3 -155 59 -14 18 -33 26 -80 32 -34 5 -80 18 -102 29 -22 11
-62 25 -89 31 -27 6 -55 17 -62 25 -17 20 -45 16 -129 -21z"/>
</g>
</svg>
