<svg xmlns="http://www.w3.org/2000/svg" id="1" width="1680" height="953">
    <rect width="100%" height="100%" fill="#fff"/>
    
<path d="M800 269 L800 270 L800 276 L800 285 L797 298 L787 318 L782 329 L774 346 L767 362 L759 378 L750 396 L737 420 L723 445 L716 460 L713 469 L710 475 L708 477 L708 478 L707 478 L708 478 L712 478 L724 477 L757 472 L787 466 L815 462 L845 459 L881 456 L900 456 L914 456 L928 456 L935 456 L938 456 L944 456 L948 456 L953 456 L956 456 L958 456 L959 456 L959 455 L958 455 L957 453 L954 450 L949 445 L945 438 L939 431 L933 424 L926 414 L919 405 L913 395 L905 383 L897 370 L888 358 L881 348 L872 337 L865 326 L859 319 L852 311 L845 304 L838 296 L832 289 L828 283 L823 278 L820 273 L815 268 L813 264 L810 261 L808 257 L806 255 L805 252 L804 250 L803 247 L802 247 L802 248 L802 249 L801 251 L800 255 L799 261" fill="none" stroke="#0064FF" stroke-width="1"/></svg>