<svg xmlns="http://www.w3.org/2000/svg" id="1" width="1680" height="909">
    <rect width="100%" height="100%" fill="#fff"/>
    
<path d="M744 372 L744 374 L744 388 L744 413 L744 434 L744 466 L744 495 L744 518 L744 541 L744 557 L744 573 L744 582 L744 593 L744 599 L744 603 L744 606 L744 607 L744 608 L745 608 L746 608 L747 608 L749 606 L752 605 L758 603 L768 603 L780 602 L794 602 L807 602 L820 602 L833 602 L841 602 L848 602 L852 602 L856 602 L859 602 L864 602 L867 602 L870 602 L872 602 L874 601 L877 600 L881 600 L883 600 L885 600 L887 600 L889 600 L890 600 L893 600 L895 600 L897 600 L898 600 L899 600 L900 600 L901 600 L902 600 L903 600 L905 600 L909 600 L913 600 L919 600 L923 600 L926 599 L927 599 L928 599 L928 598 L928 597 L928 596 L928 594 L929 590 L929 585 L930 579 L930 574 L930 569 L930 558 L929 536 L928 519 L927 503 L925 487 L925 478 L924 470 L924 465 L924 459 L924 455 L924 449 L924 442 L924 433 L924 427 L924 419 L924 415 L924 413 L924 411 L924 408 L924 406 L924 403 L924 397 L924 390 L923 383 L923 377 L923 374 L923 373 L922 372 L921 372 L920 372 L919 372 L917 372 L913 372 L907 372 L898 372 L889 372 L881 371 L874 371 L866 371 L859 371 L852 371 L845 371 L839 371 L833 371 L828 371 L822 371 L817 372 L812 372 L808 372 L804 372 L800 372 L795 372 L791 372 L786 372 L782 372 L778 372 L776 372 L773 372 L770 372 L768 372 L765 372 L764 372 L761 372 L758 372 L755 372 L753 372 L751 372 L750 372 L749 372 L748 372 L747 372 L747 373 L746 373" fill="none" stroke="#0064FF" stroke-width="1"/></svg>