<svg xmlns="http://www.w3.org/2000/svg" id="1" width="1680" height="909">
    <rect width="100%" height="100%" fill="#fff"/>
    
<path d="M819 298 L818 298 L815 303 L809 311 L801 321 L795 331 L787 342 L771 361 L755 384 L739 406 L726 422 L720 430 L715 436 L712 439 L712 440 L711 441 L711 441 L714 441 L732 441 L768 441 L822 441 L865 441 L898 440 L926 437 L939 437 L953 435 L960 433 L965 432 L971 431 L977 431 L982 430 L987 429 L992 429 L994 429 L995 428 L995 427 L995 425 L995 424 L992 422 L986 418 L976 411 L962 399 L943 383 L930 374 L914 365 L902 357 L891 351 L882 345 L875 338 L869 334 L864 330 L857 324 L850 317 L844 310 L837 305 L832 300 L828 297 L826 295 L823 292 L821 291 L818 289 L817 287 L816 287 L816 286 L816 286" fill="none" stroke="#0064FF" stroke-width="1"/><path d="M709 444 L709 445 L709 453 L709 479 L709 498 L709 524 L709 549 L709 568 L709 580 L709 591 L709 599 L709 602 L709 604 L710 604 L712 604 L722 604 L750 604 L780 604 L818 604 L849 608 L892 613 L929 613 L957 613 L976 613 L989 613 L998 613 L1005 612 L1013 611 L1020 610 L1025 610 L1031 609 L1036 608 L1042 606 L1047 605 L1049 604 L1049 603 L1049 602 L1047 600 L1047 596 L1045 593 L1043 587 L1040 576 L1035 557 L1031 542 L1028 528 L1025 516 L1023 506 L1020 494 L1018 484 L1017 476 L1017 473 L1017 471 L1017 470 L1017 469 L1016 463 L1015 458 L1012 447 L1010 440 L1009 433 L1008 429 L1007 427 L1007 426 L1006 426" fill="none" stroke="#0064FF" stroke-width="1"/><path d="M773 499 L773 500 L773 507 L773 525 L773 537 L773 547 L773 554 L773 557 L773 558 L773 562 L773 567 L773 572 L773 575 L773 577 L773 578 L773 581 L773 584 L773 588 L773 591 L773 592 L773 594 L773 595 L773 596 L773 597" fill="none" stroke="#0064FF" stroke-width="1"/><path d="M771 487 L773 487 L779 487 L788 487 L795 487 L798 487 L801 487 L803 487 L804 487 L805 487 L806 487 L807 487 L808 487 L812 487 L818 487 L826 487 L833 487 L838 487 L840 487 L841 487 L842 487 L842 488 L840 493 L839 501 L838 515 L838 530 L838 553 L838 568 L838 585 L838 593 L838 598 L838 600 L838 601 L838 602 L838 603" fill="none" stroke="#0064FF" stroke-width="1"/><path d="M785 534 L785 535 L785 536 L786 536 L786 537 L787 538 L789 538 L789 538 L790 538 L791 538 L793 538 L795 538 L797 537 L798 536 L799 534 L801 533 L801 532 L802 531 L802 529 L802 527 L802 525 L802 524 L802 523 L802 522 L802 521 L802 520 L801 520 L800 520 L799 520 L798 520 L797 520 L796 520 L795 521 L794 522 L793 524 L792 526 L791 526 L790 527 L790 528 L789 529 L788 529 L787 530 L787 531 L786 532 L785 533 L785 534 L784 534 L784 535" fill="none" stroke="#0064FF" stroke-width="1"/></svg>