<svg xmlns="http://www.w3.org/2000/svg" id="1" width="1680" height="909">
    <rect width="100%" height="100%" fill="#fff"/>
    
<path d="M677 289" fill="none" stroke="#0064FF" stroke-width="1"/><path d="M677 289 L676 289 L673 289 L668 289 L661 295 L652 302 L647 307 L640 315 L629 325 L622 333 L610 344 L604 351 L597 361 L589 373 L583 383 L578 394 L574 405 L570 417 L568 430 L568 442 L568 456 L572 472 L578 485 L584 495 L593 505 L607 516 L619 524 L633 531 L649 538 L661 543 L679 547 L703 550 L724 550 L745 550 L760 550 L778 546 L795 543 L812 537 L825 533 L838 527 L848 521 L856 512 L863 502 L870 484 L875 466 L879 444 L881 427 L883 403 L883 385 L883 373 L881 361 L876 347 L870 335 L863 326 L855 316 L847 309 L838 302 L829 298 L820 295 L810 293 L802 291 L793 290 L785 290 L779 290 L775 290 L770 290 L767 291 L764 293 L759 294 L755 296 L748 297 L741 297 L734 297 L730 297 L723 296 L717 295 L712 295 L708 295 L704 295 L700 295 L697 295 L694 296 L691 297 L687 299 L683 300 L680 301 L675 302 L672 303 L669 304 L666 305 L664 305 L663 305" fill="none" stroke="#0064FF" stroke-width="1"/><path d="M676 291 L676 291 L676 286 L676 280 L675 271 L674 260 L673 250 L671 242 L670 235 L669 231 L668 228 L667 225 L666 223 L666 222 L666 221" fill="none" stroke="#0064FF" stroke-width="1"/><path d="M624 342 L624 342 L621 342 L620 342 L618 342 L615 342 L612 342 L608 342 L603 342 L597 342 L590 342 L582 342 L576 342 L567 342 L562 341 L556 340 L550 339 L547 338 L543 337 L540 336 L538 335 L536 335 L535 334 L534 334 L533 334" fill="none" stroke="#0064FF" stroke-width="1"/><path d="M571 446 L569 446 L563 446 L551 446 L538 447 L525 450 L510 456 L498 460 L484 463 L473 465 L465 467 L461 467 L456 467 L452 467 L450 467 L449 467 L449 468" fill="none" stroke="#0064FF" stroke-width="1"/><path d="M615 517 L615 518 L615 527 L614 538 L610 556 L605 575 L602 588 L599 604 L597 614 L596 619 L595 623 L594 628 L594 631" fill="none" stroke="#0064FF" stroke-width="1"/><path d="M726 548 L726 550 L726 558 L726 575 L726 586 L726 600 L726 607 L726 614 L726 617 L726 619 L726 621 L726 623 L726 626 L726 628" fill="none" stroke="#0064FF" stroke-width="1"/><path d="M833 530 L833 531 L836 538 L841 547 L849 558 L854 567 L857 572 L860 577 L862 579 L862 580" fill="none" stroke="#0064FF" stroke-width="1"/><path d="M818 297 L818 296 L818 286 L820 272 L828 257 L833 244 L835 235 L838 229 L839 225" fill="none" stroke="#0064FF" stroke-width="1"/><path d="M885 370 L886 370 L898 370 L912 370 L932 370 L953 369 L968 368 L985 367 L993 367 L998 367 L999 366 L1000 366 L999 367" fill="none" stroke="#0064FF" stroke-width="1"/><path d="M882 445 L884 447 L895 454 L909 463 L926 477 L945 490 L961 502 L971 508 L977 512 L981 515" fill="none" stroke="#0064FF" stroke-width="1"/><path d="M578 406 L579 406 L582 406 L588 406 L594 406 L601 406 L608 406 L614 406 L619 406 L622 406 L624 406 L626 406 L628 406 L630 406 L631 406 L632 406 L632 407" fill="none" stroke="#0064FF" stroke-width="1"/><path d="M638 378 L638 379 L638 385 L638 395 L638 405 L638 416 L638 421 L638 431 L638 437 L638 442 L638 448 L638 453 L638 458 L638 461 L638 464 L638 465 L638 468 L639 469 L640 469 L644 469 L649 469 L658 469 L669 465 L679 462 L690 459 L698 457 L705 455 L713 452 L718 451 L722 450 L724 449 L725 448 L726 448 L726 446 L726 441 L726 433 L724 420 L723 407 L721 392 L720 380 L719 373 L718 366 L716 362 L714 360 L712 359 L709 359 L703 359 L696 359 L683 359 L675 361 L667 362 L660 362 L655 363 L652 364 L650 364 L649 364 L648 365 L646 368 L644 370 L642 371 L641 372 L640 372 L639 373 L639 373" fill="none" stroke="#0064FF" stroke-width="1"/><path d="M726 401 L727 401 L730 401 L736 401 L743 401 L748 401 L753 401 L756 401 L760 401 L761 401 L762 401 L763 401 L764 401" fill="none" stroke="#0064FF" stroke-width="1"/><path d="M766 355 L766 355 L766 357 L766 364 L766 372 L766 379 L766 385 L766 393 L766 399 L766 407 L766 414 L766 418 L766 425 L767 428 L767 431 L767 433 L767 434 L768 436 L768 438 L769 438 L770 439 L772 440 L773 441 L775 442 L777 442 L779 445 L781 446 L784 446 L786 447 L788 448 L791 449 L794 449 L798 449 L802 449 L807 449 L811 449 L817 445 L822 441 L829 437 L835 432 L840 427 L842 424 L844 420 L846 415 L847 412 L847 408 L847 404 L846 400 L843 394 L839 388 L835 383 L832 377 L829 370 L826 367 L823 364 L820 362 L817 360 L814 357 L810 356 L806 355 L801 354 L798 353 L794 353 L789 353 L785 352 L781 352 L777 352 L774 352 L773 352 L772 352 L771 352" fill="none" stroke="#0064FF" stroke-width="1"/><path d="M846 407 L847 407 L850 407 L855 407 L860 407 L865 407 L869 407 L871 407 L873 407 L874 407 L875 407 L876 407 L877 407 L877 407 L878 407 L879 407 L880 407 L881 407" fill="none" stroke="#0064FF" stroke-width="1"/><path d="M711 486 L711 488 L712 491 L716 497 L721 502 L729 506 L736 508 L744 509 L754 509 L761 509 L768 507 L772 504 L775 502 L776 500 L778 499 L780 498 L780 496 L781 493 L782 492 L782 491 L783 491" fill="none" stroke="#0064FF" stroke-width="1"/><path d="M657 325 L658 325 L664 325 L673 329 L683 333 L692 337 L698 338 L703 339 L706 341 L707 341 L708 342" fill="none" stroke="#0064FF" stroke-width="1"/><path d="M767 343 L768 343 L772 342 L778 341 L786 339 L795 336 L802 335 L806 334 L812 333 L816 332 L818 332 L819 332" fill="none" stroke="#0064FF" stroke-width="1"/></svg>