<svg xmlns="http://www.w3.org/2000/svg" id="1" width="1680" height="909">
    <rect width="100%" height="100%" fill="#fff"/>
    
<path d="M388 196" fill="none" stroke="#0064FF" stroke-width="1"/><path d="M561 603 L563 603 L572 603 L586 603 L600 605 L617 607 L632 607 L647 608 L664 608 L680 608 L693 608 L706 608 L719 608 L730 608 L742 608 L752 608 L763 608 L772 608 L781 609 L789 610 L795 611 L800 611 L803 611 L805 611 L807 611 L809 611 L810 611 L811 611 L812 611 L814 611 L816 611 L820 611 L823 611 L830 610 L836 609 L842 608 L848 608 L855 607 L860 607 L864 606 L867 606 L868 606 L872 606 L880 606 L889 606 L904 606 L918 606 L934 607 L949 608 L954 610 L959 611 L961 611 L961 611" fill="none" stroke="#0064FF" stroke-width="1"/><path d="M555 605 L555 603 L555 593 L555 579 L555 562 L555 546 L555 537 L555 525 L555 518 L555 513 L555 511 L555 510 L555 511 L555 512 L556 512 L559 515 L568 521 L579 532 L595 545 L611 560 L622 569 L630 577 L635 581 L637 583 L638 584 L639 584 L639 585 L639 583 L640 575 L646 558 L657 523 L671 486 L682 457 L691 434 L698 408 L701 395 L703 386 L704 382 L704 381 L704 382 L704 384 L704 388 L704 393 L705 399 L707 409 L710 427 L716 449 L724 477 L735 507 L741 526 L746 538 L751 549 L753 554 L755 555 L755 556 L755 554 L760 541 L770 509 L785 464 L802 404 L816 341 L827 297 L832 264 L835 243 L836 232 L837 228 L837 226 L837 227 L837 231 L837 244 L836 262 L835 288 L835 322 L835 360 L835 399 L839 428 L843 453 L846 465 L849 478 L850 485 L853 490 L853 493 L854 498 L855 503 L856 508 L856 513 L857 518 L858 523 L859 527 L859 530 L859 531 L859 532 L860 532 L860 530 L864 518 L873 489 L882 463 L893 432 L904 404 L909 388 L914 378 L917 368 L919 365 L919 364 L920 364 L920 364 L921 371 L924 384 L927 402 L931 422 L933 438 L936 457 L938 473 L940 486 L942 494 L943 501 L944 506 L944 509 L944 510 L945 511 L945 509 L950 502 L959 487 L971 467 L981 447 L987 436 L991 428 L994 423 L995 421 L996 421 L997 421 L998 422 L1001 431 L1004 447 L1007 469 L1010 495 L1012 516 L1013 538 L1013 553 L1013 562 L1013 571 L1013 576 L1013 581 L1013 585 L1013 585 L1013 586 L1013 587 L1013 588 L1013 592 L1013 594 L1012 597 L1012 600 L1012 604 L1012 608 L1012 611 L1012 613 L1012 614 L1012 615 L1012 617 L1012 618 L1012 619 L1012 620 L1011 620 L1005 620 L998 620 L990 617 L982 615 L976 613 L970 610 L965 608 L960 606 L957 605 L955 604 L953 604 L952 604 L952 603 L951 603" fill="none" stroke="#0064FF" stroke-width="1"/><path d="M598 539 L598 537 L598 532 L598 525 L598 516 L598 504 L598 488 L598 470 L598 448 L598 430 L598 414 L598 403 L598 392 L598 384 L598 376 L597 369 L597 363 L596 357 L596 350 L596 344 L596 336 L596 328 L596 322 L596 314 L596 309 L596 305 L596 302 L596 301" fill="none" stroke="#0064FF" stroke-width="1"/><path d="M628 307 L628 308 L628 312 L628 318 L628 327 L628 339 L628 352 L628 364 L628 376 L628 388 L628 403 L628 416 L628 429 L629 442 L629 457 L630 470 L631 481 L631 487 L631 492 L631 493 L631 499 L631 505 L631 513 L632 523 L633 529 L633 536 L634 540 L634 544 L634 546 L634 549 L634 551 L634 552 L634 553" fill="none" stroke="#0064FF" stroke-width="1"/><path d="M587 303 L586 303 L583 303 L576 303 L569 303 L557 299 L547 290 L536 278 L525 264 L517 254 L510 241 L506 229 L502 222 L500 214 L498 209 L497 207 L497 206 L497 204 L498 201 L504 197 L511 193 L518 189 L527 186 L536 183 L547 180 L556 177 L566 173 L574 169 L582 166 L590 163 L599 161 L609 161 L618 161 L627 161 L636 162 L646 165 L656 171 L668 179 L675 185 L682 193 L688 200 L691 208 L692 217 L692 226 L692 235 L692 243 L692 252 L692 259 L692 265 L692 272 L691 276 L689 280 L685 284 L680 287 L674 290 L669 293 L663 297 L659 300 L655 303 L651 307 L648 310 L645 313 L643 315 L641 315 L640 316 L640 317" fill="none" stroke="#0064FF" stroke-width="1"/><path d="M557 178 L557 176 L557 171 L557 164 L557 156 L557 150 L559 143 L561 136 L566 129 L570 124 L572 120 L573 119 L575 117 L577 117 L581 117 L587 117 L595 117 L604 117 L611 119 L619 123 L627 126 L633 130 L638 134 L641 140 L643 147 L644 153 L644 158 L644 161 L644 163 L644 164 L647 162 L653 157 L663 146 L673 134 L684 122 L692 115 L704 108 L714 102 L724 98 L733 98 L741 98 L747 101 L753 107 L757 115 L760 126 L761 136 L761 148 L761 158 L761 168 L755 179 L747 186 L739 193 L731 198 L727 200 L723 201 L722 202 L721 202 L719 202 L717 202 L712 203 L707 204 L703 204 L700 205 L699 206 L699 207 L703 207 L709 209 L716 211 L725 217 L732 225 L738 233 L741 241 L744 251 L745 260 L745 270 L744 279 L738 288 L733 294 L727 299 L721 300 L715 302 L711 303 L707 303 L702 303 L700 303 L698 303 L698 303 L697 303 L696 303 L693 302 L691 302 L688 299 L685 299 L684 298 L683 298 L682 298 L682 297 L681 297 L679 297 L677 296 L673 295 L668 294 L664 293 L660 291 L658 290 L657 289 L657 288 L657 287 L656 287" fill="none" stroke="#0064FF" stroke-width="1"/><path d="M557 173 L557 172 L554 169 L549 163 L537 152 L526 142 L518 137 L507 131 L497 126 L490 124 L484 123 L480 123 L475 123 L472 123 L467 124 L464 127 L461 132 L459 139 L455 146 L451 154 L448 164 L447 170 L446 180 L446 187 L447 193 L452 199 L460 206 L468 212 L475 219 L483 223 L490 226 L496 227 L502 229 L508 229 L513 229 L519 229 L523 229 L525 229 L527 229 L527 230 L527 231 L525 231 L521 232 L516 234 L510 237 L504 243 L495 251 L485 263 L480 272 L474 283 L471 295 L470 307 L470 318 L471 328 L478 337 L487 344 L499 348 L515 349 L533 349 L553 349 L568 346 L579 341 L589 334 L597 327 L600 324 L602 320 L602 316 L603 315 L603 314 L603 312 L604 308 L606 305 L606 303 L607 302 L607 300" fill="none" stroke="#0064FF" stroke-width="1"/><path d="M587 196 L587 197 L587 201 L587 204 L587 210 L587 214 L587 217 L587 219 L587 221 L587 222" fill="none" stroke="#0064FF" stroke-width="1"/><path d="M642 192 L642 193 L642 196 L642 201 L642 205 L642 209 L642 212 L642 216 L642 220 L642 224 L642 227 L642 229 L642 231 L642 233" fill="none" stroke="#0064FF" stroke-width="1"/><path d="M579 257 L579 258 L582 262 L586 266 L592 273 L600 277 L604 279 L609 281 L613 281 L618 281 L623 281 L628 278 L633 275 L635 272 L638 270 L640 268 L641 268 L641 267" fill="none" stroke="#0064FF" stroke-width="1"/><path d="M595 440 L592 439 L587 439 L581 437 L573 435 L563 429 L555 426 L546 421 L539 417 L531 415 L525 415 L518 414 L510 414 L505 414 L500 414 L495 414 L491 416 L488 418 L486 421 L483 424 L481 428 L480 432 L480 437 L480 441 L482 446 L488 451 L494 456 L503 462 L513 468 L524 472 L535 475 L546 478 L556 481 L566 484 L576 486 L585 488 L594 491 L602 494 L608 496 L615 498 L619 500 L621 501 L622 501" fill="none" stroke="#0064FF" stroke-width="1"/><path d="M494 422 L495 422 L498 423 L502 427 L507 430 L513 434 L518 437 L523 440 L527 443 L531 445 L538 447 L541 449 L546 452 L549 454 L554 456 L559 458 L563 461 L568 463 L571 464 L575 466 L579 467 L582 468 L584 469 L586 471" fill="none" stroke="#0064FF" stroke-width="1"/><path d="M543 416 L543 418 L543 422 L543 425 L543 429 L543 431 L543 432 L543 433 L543 434 L543 435 L543 435 L543 436 L543 438 L544 438" fill="none" stroke="#0064FF" stroke-width="1"/><path d="M569 438 L569 439 L569 442 L569 444 L569 447 L569 449 L569 450" fill="none" stroke="#0064FF" stroke-width="1"/><path d="M526 451 L525 451 L523 451 L520 451 L518 451 L517 451" fill="none" stroke="#0064FF" stroke-width="1"/><path d="M564 473 L563 473 L562 473 L560 473 L558 473 L556 473 L554 474 L552 474 L549 475 L547 475 L546 475" fill="none" stroke="#0064FF" stroke-width="1"/><path d="M631 407 L631 406 L631 403 L631 397 L635 387 L640 379 L643 371 L648 364 L651 359 L654 356 L654 355 L656 353 L658 352 L660 350 L664 349 L668 347 L672 346 L677 345 L683 344 L688 344 L693 344 L697 344 L700 346 L703 347 L705 349 L707 352 L709 354 L710 357 L711 360 L711 364 L711 370 L709 375 L706 381 L702 386 L698 393 L695 399 L692 404 L687 411 L681 418 L675 423 L669 429 L664 433 L659 438 L656 441 L651 446 L648 449 L644 452 L642 454 L639 457 L635 460 L633 462 L631 463 L630 464 L629 464" fill="none" stroke="#0064FF" stroke-width="1"/><path d="M634 435 L634 434 L636 427 L640 420 L643 413 L646 406 L649 401 L652 397 L653 395 L654 392 L656 390 L656 389 L656 388 L657 388 L657 388 L661 387 L665 383 L670 381 L673 379 L677 376 L680 374 L682 372 L685 368 L687 366 L688 365 L688 364 L689 363 L690 363 L690 362" fill="none" stroke="#0064FF" stroke-width="1"/><path d="M659 359 L659 360 L659 363 L659 366 L659 369 L659 372 L659 373 L659 374 L659 375 L659 377 L659 381 L659 383 L659 386 L659 388" fill="none" stroke="#0064FF" stroke-width="1"/><path d="M642 379 L642 379 L642 381 L642 384 L642 388 L642 390 L642 392 L642 394 L642 395 L642 396 L642 397 L642 398 L642 399" fill="none" stroke="#0064FF" stroke-width="1"/><path d="M654 407 L656 407 L659 407 L664 407 L668 407 L673 407 L677 407 L679 407 L680 407" fill="none" stroke="#0064FF" stroke-width="1"/><path d="M673 383 L675 383 L680 383 L685 383 L691 383 L697 383 L700 383 L702 383 L703 383" fill="none" stroke="#0064FF" stroke-width="1"/></svg>