<svg xmlns="http://www.w3.org/2000/svg" id="1" width="1680" height="953">
    <rect width="100%" height="100%" fill="#fff"/>
    
<path d="M1032 575 L1031 575 L1012 575 L955 575 L909 575 L847 575 L809 575 L769 575 L739 575 L710 575 L691 575 L679 575 L668 575 L662 575 L661 575 L660 575 L658 575 L651 575 L639 574 L629 573 L620 572 L614 571 L612 571 L611 571 L611 570 L611 568 L611 560 L612 548 L612 528 L612 511 L612 494 L612 478 L613 457 L615 442 L616 432 L617 423 L618 419 L618 417 L618 416 L619 416 L619 415 L619 414 L620 414 L621 414 L622 416 L626 422 L636 432 L643 439 L652 448 L665 462 L671 468 L676 474 L680 478 L681 479 L682 480 L683 480 L685 480 L694 470 L708 457 L721 444 L734 431 L745 419 L753 410 L761 401 L765 396 L768 393 L769 392 L769 393 L769 401 L768 429 L768 463 L767 489 L767 504 L767 516 L767 519 L768 516 L779 498 L796 471 L816 440 L833 416 L850 391 L863 379 L873 367 L878 363 L881 361 L882 360 L882 361 L882 367 L882 385 L882 407 L882 425 L882 435 L882 444 L883 446 L883 447 L885 447 L887 444 L891 435 L902 420 L911 403 L926 381 L936 367 L947 358 L951 355 L955 352 L957 352 L957 355 L957 361 L957 375 L960 393 L969 430 L975 456 L978 469 L982 486 L984 492 L985 493 L987 493 L989 490 L992 483 L998 473 L1008 458 L1017 448 L1024 441 L1033 433 L1037 431 L1041 429 L1044 427 L1045 427 L1046 427 L1046 428 L1046 434 L1046 443 L1046 460 L1048 477 L1049 498 L1051 518 L1052 530 L1052 537 L1052 541 L1052 543 L1052 544 L1052 545 L1052 546 L1052 547 L1052 548 L1052 549 L1052 557 L1052 572 L1052 587 L1052 596 L1052 603 L1052 606 L1052 607 L1052 606 L1052 605 L1052 603 L1052 602 L1052 600 L1052 599 L1052 598 L1051 597 L1048 596 L1043 595 L1035 594 L1027 594 L1021 593 L1015 592 L1011 592 L1011 592" fill="none" stroke="#0064FF" stroke-width="1"/><path d="M675 454 L675 453 L675 442 L675 405 L675 366 L675 357 L675 349 L675 343 L675 342 L676 342 L676 341 L677 339 L677 336 L677 331 L678 329 L678 326 L679 325" fill="none" stroke="#0064FF" stroke-width="1"/><path d="M728 430 L728 429 L728 423 L728 412 L728 404 L728 400 L728 394 L728 392 L728 388 L728 380 L728 368 L728 356 L728 349 L729 344 L729 341 L729 340 L729 339 L730 339 L730 338 L730 337 L730 337 L731 337 L731 335 L731 332 L731 330 L731 329 L731 329 L731 328 L731 327" fill="none" stroke="#0064FF" stroke-width="1"/><path d="M671 202 L672 202 L675 202 L678 202 L683 202 L684 202 L685 202 L687 202 L690 202 L693 202 L696 202 L701 202 L708 204 L715 207 L723 210 L728 212 L733 214 L735 216 L737 218 L738 220 L738 222 L739 225 L740 226 L741 229 L742 232 L744 234 L745 237 L745 240 L746 243 L747 249 L749 251 L750 255 L751 258 L751 261 L752 265 L752 268 L752 270 L752 272 L752 275 L752 279 L751 283 L750 288 L748 292 L746 295 L743 298 L741 300 L738 302 L735 304 L730 306 L723 308 L717 311 L711 313 L702 314 L692 314 L680 314 L670 314 L664 314 L656 313 L651 311 L645 308 L640 306 L636 304 L632 301 L629 297 L626 291 L624 288 L622 283 L621 279 L620 271 L620 255 L620 243 L620 232 L620 226 L620 219 L621 211 L624 204 L628 196 L633 189 L639 182 L645 177 L650 174 L654 173 L657 173 L660 173 L661 173 L662 175 L664 177 L666 179 L668 181 L672 185 L675 187 L677 190 L679 191 L680 191 L680 192 L681 193 L682 194 L684 195 L686 195" fill="none" stroke="#0064FF" stroke-width="1"/><path d="M558 179 L554 179 L553 179 L552 179 L551 179 L550 180 L549 184 L548 186 L547 192 L546 195 L546 199 L546 205 L546 212 L546 218 L546 224 L546 231 L546 236 L546 241 L547 245 L549 249 L550 250 L552 252 L556 254 L564 257 L572 260 L579 261 L586 262 L595 263 L601 263 L606 263 L610 263 L612 263 L613 263 L614 263 L615 263 L615 262" fill="none" stroke="#0064FF" stroke-width="1"/><path d="M626 188 L625 188 L621 188 L616 188 L611 188 L607 188 L602 188 L597 188 L594 188 L591 188 L588 188 L586 188 L584 187 L582 186 L580 186 L578 186 L576 185 L575 185 L574 185 L573 184 L572 184 L571 184 L570 184 L570 183" fill="none" stroke="#0064FF" stroke-width="1"/><path d="M661 172 L661 171 L661 169 L662 166 L664 162 L665 161 L666 160 L669 159 L671 158 L675 156 L680 154 L684 151 L690 147 L699 144 L704 142 L711 141 L717 140 L725 138 L731 137 L736 137 L740 137 L744 137 L748 137 L753 137 L759 137 L762 137 L766 138 L768 141 L769 142 L769 143 L769 145 L769 146 L769 148 L769 151 L769 154 L769 158 L769 162 L769 165 L767 170 L765 174 L763 180 L761 185 L757 190 L755 196 L752 201 L749 204 L747 206 L745 208 L742 210 L740 212 L738 213 L737 214 L736 214" fill="none" stroke="#0064FF" stroke-width="1"/><path d="M736 214 L737 214 L741 214 L749 214 L757 214 L769 214 L778 214 L786 214 L792 214 L795 214 L799 214 L801 215 L803 217 L805 219 L807 221 L808 223 L809 226 L809 227 L809 229 L809 232 L809 234 L809 238 L809 240 L809 243 L809 245 L809 248 L809 252 L809 254 L808 255 L804 256 L801 257 L794 257 L790 257 L784 257 L779 257 L775 257 L772 257 L769 257 L765 257 L762 257" fill="none" stroke="#0064FF" stroke-width="1"/><path d="M615 278 L614 278 L607 278 L601 282 L596 285 L590 289 L588 291 L585 292 L585 293 L585 294 L585 298 L583 303 L583 307 L582 311 L582 315 L582 320 L582 325 L582 330 L582 334 L582 338 L582 339 L583 340 L583 341 L585 341 L588 341 L596 341 L606 342 L616 342 L628 342 L638 342 L648 338 L654 334 L658 331 L662 329 L666 325 L669 322 L672 318 L676 314 L679 310 L682 308 L684 306 L685 305 L686 303 L686 302" fill="none" stroke="#0064FF" stroke-width="1"/><path d="M756 277 L757 277 L760 277 L764 277 L768 277 L776 277 L781 279 L788 282 L797 287 L803 291 L807 295 L810 299 L811 302 L811 304 L812 306 L812 307 L812 309 L812 311 L811 313 L811 316 L810 318 L809 321 L808 322 L807 324 L804 327 L801 329 L796 332 L791 333 L787 335 L780 336 L774 336 L769 336 L761 331 L755 328 L749 326 L745 323 L740 321 L737 319 L733 318 L730 314 L726 311 L723 309 L720 307 L719 306" fill="none" stroke="#0064FF" stroke-width="1"/></svg>