<svg xmlns="http://www.w3.org/2000/svg" id="1" width="1680" height="909">
    <rect width="100%" height="100%" fill="#fff"/>
    
<path d="M646 554 L646 551 L646 549 L646 533 L646 514 L646 507 L646 497 L646 493 L646 490 L646 490 L646 489 L646 488 L646 482 L643 458 L642 450 L639 444 L638 439 L638 438 L637 438" fill="none" stroke="#0064FF" stroke-width="1"/><path d="M637 438 L638 438 L641 438 L644 438 L650 441 L655 445 L661 449 L667 455 L671 458 L674 462 L675 463 L676 464 L676 465 L676 465 L677 469 L680 473 L683 476 L685 479 L686 480 L687 480 L688 480 L688 480 L689 477 L695 471 L702 459 L715 443 L727 429 L742 414 L755 401 L764 393 L771 386 L775 382 L777 380 L778 379 L778 380 L778 382 L776 388 L775 401 L775 422 L775 448 L775 467 L775 488 L775 501 L775 507 L775 510 L775 511 L776 510 L786 498 L801 484 L816 467 L830 451 L853 430 L877 406 L892 388 L901 379 L907 372 L909 369 L910 369 L911 369 L911 370 L911 375 L908 385 L904 401 L899 427 L896 449 L890 471 L889 480 L888 484 L887 486 L890 484 L898 475 L909 462 L918 452 L927 441 L939 429 L951 414 L960 404 L967 396 L972 391 L976 389 L977 388 L978 388 L978 389 L978 392 L978 402 L978 419 L978 444 L978 462 L980 480 L980 490 L981 496 L982 499 L984 499 L988 494 L996 484 L1006 472 L1016 458 L1024 448 L1033 439 L1040 432 L1044 428 L1048 425 L1051 422 L1055 420 L1058 418 L1059 417 L1060 416 L1061 416 L1062 416 L1063 416 L1064 416 L1064 418 L1064 422 L1064 430 L1064 443 L1064 457 L1065 468 L1066 477 L1066 482 L1066 486 L1066 487 L1066 488 L1066 490 L1067 495 L1068 499 L1069 506 L1070 513 L1071 520 L1072 525 L1073 530 L1073 534 L1073 537 L1073 539 L1073 541 L1073 542 L1073 543 L1073 543 L1073 542 L1073 540 L1073 539 L1069 537 L1063 536 L1050 535 L1039 535 L1024 535 L1004 535 L990 535 L972 535 L956 534 L939 533 L925 533 L913 532 L897 531 L884 530 L870 530 L852 530 L831 530 L814 530 L792 530 L774 530 L761 530 L743 530 L729 530 L713 531 L706 531 L700 532 L697 532 L695 532 L691 532 L688 532 L685 532 L683 532 L682 532 L681 532 L679 533 L676 533 L673 533 L668 534 L665 535 L661 535 L659 535 L658 536 L657 536 L651 536 L644 536 L636 534" fill="none" stroke="#0064FF" stroke-width="1"/><path d="M713 307 L713 308 L713 315 L713 334 L713 359 L713 374 L713 382 L713 391 L713 397 L713 403 L713 408 L713 413 L713 416 L713 420 L713 423 L713 428 L713 430 L713 431 L713 432 L712 432" fill="none" stroke="#0064FF" stroke-width="1"/><path d="M771 256 L771 257 L771 264 L771 274 L771 284 L771 295 L771 305 L771 311 L771 320 L771 326 L771 331 L771 335 L771 338 L771 341 L771 343 L771 346 L771 348 L771 349 L771 351 L771 355 L771 359 L770 363 L770 367 L770 368 L770 369 L770 367" fill="none" stroke="#0064FF" stroke-width="1"/><path d="M716 244 L716 246 L716 250 L716 254 L716 257 L716 261 L716 265 L716 268 L716 273 L716 277 L716 280 L716 284 L716 286 L716 288 L716 290 L714 293 L714 295 L714 298 L714 300 L713 302 L713 303 L713 304 L713 305 L713 306 L713 309 L713 311 L713 312 L713 313" fill="none" stroke="#0064FF" stroke-width="1"/><path d="M713 313 L712 313 L710 313 L705 312 L703 310 L698 308 L694 306 L692 305 L687 304 L682 302 L680 302 L674 300 L670 298 L665 296 L660 295 L653 294 L647 294 L642 293 L636 292 L631 292 L629 292 L625 292 L621 292 L616 295 L611 298 L608 302 L605 306 L601 312 L598 321 L596 328 L595 335 L595 342 L595 347 L595 352 L595 355 L596 359 L599 363 L602 366 L607 370 L612 375 L620 378 L632 381 L644 382 L658 382 L672 382 L685 379 L692 376 L700 373 L704 370 L709 367 L713 364 L718 361 L723 357 L727 354 L729 351 L730 351 L731 351 L731 350" fill="none" stroke="#0064FF" stroke-width="1"/><path d="M772 303 L774 303 L782 294 L788 291 L793 287 L797 285 L799 285 L800 285 L807 285 L813 285 L819 287 L826 290 L836 295 L842 297 L848 300 L852 302 L854 304 L857 307 L859 309 L861 312 L864 315 L865 320 L867 324 L867 328 L868 332 L868 336 L868 341 L867 345 L864 349 L860 352 L852 354 L843 355 L834 355 L822 355 L810 355 L801 352 L791 350 L786 348 L781 346 L778 344 L776 343 L775 343 L774 343" fill="none" stroke="#0064FF" stroke-width="1"/><path d="M729 137 L730 137 L734 137 L738 137 L741 137 L746 137 L750 139 L753 141 L756 143 L760 147 L762 149 L765 152 L767 155 L769 159 L772 161 L773 166 L775 169 L776 172 L778 176 L780 179 L780 184 L782 186 L782 189 L783 192 L784 197 L784 201 L784 205 L784 208 L784 212 L784 215 L781 218 L778 221 L774 224 L769 228 L764 231 L758 234 L751 237 L742 239 L735 240 L727 241 L717 241 L705 239 L696 235 L688 231 L680 226 L671 221 L662 216 L657 213 L652 209 L651 206 L649 200 L648 192 L648 185 L648 176 L649 169 L652 164 L659 155 L662 152 L669 145 L678 137 L683 133 L690 130 L695 129 L700 127 L704 127 L708 127 L713 127 L719 129 L723 130 L727 132 L731 133 L733 134 L736 134" fill="none" stroke="#0064FF" stroke-width="1"/><path d="M663 140 L662 140 L660 140 L657 140 L654 138 L651 137 L647 136 L644 135 L640 132 L636 130 L630 128 L627 127 L624 127 L622 126 L620 126 L617 126 L614 126 L610 126 L606 126 L600 126 L596 128 L592 132 L588 136 L585 140 L582 146 L581 150 L580 154 L579 159 L579 161 L579 163 L579 165 L579 166 L581 167 L583 168 L586 168 L596 169 L604 170 L613 173 L619 175 L624 176 L632 178 L637 179 L641 180 L644 181 L646 182 L647 183 L647 182 L647 181 L648 181 L648 180" fill="none" stroke="#0064FF" stroke-width="1"/><path d="M638 189 L637 190 L636 190 L635 190 L634 192 L634 193 L634 194 L634 196 L634 198 L634 202 L634 208 L634 215 L634 222 L634 232 L634 237 L634 242 L635 245 L635 247 L635 247 L636 249 L636 251 L636 254 L637 255 L638 256 L638 256 L639 256 L643 257 L650 257 L657 257 L667 257 L675 257 L683 255 L689 252 L694 249 L697 246 L700 244 L701 242 L703 240 L704 239 L705 237 L706 237 L707 236 L708 235" fill="none" stroke="#0064FF" stroke-width="1"/><path d="M785 202 L787 202 L793 202 L800 202 L809 202 L816 202 L820 203 L825 206 L827 207 L828 209 L829 211 L830 213 L830 215 L830 217 L830 219 L830 221 L830 223 L829 228 L828 231 L826 236 L825 239 L823 242 L819 245 L813 247 L806 250 L799 252 L790 253 L780 255 L770 255 L761 255 L753 255 L749 255 L745 253 L743 252 L742 250 L741 250 L741 248" fill="none" stroke="#0064FF" stroke-width="1"/><path d="M776 167 L777 167 L778 167 L780 167 L781 166 L782 162 L784 157 L784 152 L786 149 L787 147 L789 143 L790 140 L792 137 L793 135 L796 132 L798 129 L799 126 L800 123 L801 121 L802 119 L802 117 L802 113 L802 111 L802 108 L802 107 L802 106 L801 105 L799 104 L797 102 L795 101 L790 99 L784 96 L780 95 L774 94 L770 94 L766 94 L762 94 L759 95 L755 97 L753 100 L749 104 L746 108 L743 112 L741 116 L739 120 L737 124 L736 126 L735 127 L734 127" fill="none" stroke="#0064FF" stroke-width="1"/><path d="M734 121 L734 119 L734 117 L734 113 L733 110 L732 108 L732 107 L731 107 L730 107 L729 107 L726 107 L720 104 L716 102 L710 100 L705 98 L700 98 L694 96 L687 94 L682 92 L676 89 L671 87 L666 87 L662 86 L658 86 L655 86 L653 86 L653 87 L653 91 L653 94 L653 99 L653 103 L653 106 L653 110 L653 114 L653 116 L653 120 L654 122 L655 125 L656 127 L657 128 L658 129" fill="none" stroke="#0064FF" stroke-width="1"/><path d="M691 155 L691 156 L691 157 L691 160 L691 161 L691 162 L691 164 L691 166 L691 168 L691 170 L691 171 L691 172 L691 171" fill="none" stroke="#0064FF" stroke-width="1"/><path d="M737 156 L737 158 L737 161 L737 164 L737 167 L737 169 L737 172 L737 174 L737 176 L737 178 L737 178 L738 177" fill="none" stroke="#0064FF" stroke-width="1"/><path d="M758 203" fill="none" stroke="#0064FF" stroke-width="1"/><path d="M758 203 L757 203 L754 203 L749 203 L746 203 L742 203 L739 204 L733 205 L727 206 L723 206 L716 206 L712 206 L707 206 L704 206 L700 206 L695 206 L692 206 L689 206 L686 206 L682 206 L679 206 L678 206 L677 206 L676 206 L676 205 L677 204" fill="none" stroke="#0064FF" stroke-width="1"/><path d="M853 334 L851 334 L847 334 L836 334 L829 334 L821 334 L811 334 L808 334 L804 334 L803 334 L801 334 L800 334 L799 334 L799 334 L798 334 L795 334 L792 334 L787 333 L785 333 L783 333 L783 332" fill="none" stroke="#0064FF" stroke-width="1"/><path d="M843 308 L843 309 L843 312" fill="none" stroke="#0064FF" stroke-width="1"/><path d="M605 337 L607 337 L614 337 L623 337 L633 337 L644 337 L650 337 L659 337 L663 337 L669 337 L673 337 L676 337 L677 337 L678 337 L679 337 L680 337 L681 337 L682 337 L684 338 L686 339 L689 339 L692 340 L695 341 L698 342 L701 342 L705 343" fill="none" stroke="#0064FF" stroke-width="1"/></svg>