<svg xmlns="http://www.w3.org/2000/svg" id="1" width="1680" height="909">
    <rect width="100%" height="100%" fill="#fff"/>
    
<path d="M822 295 L822 294 L822 289 L822 282 L822 278 L822 275 L822 274 L822 273 L822 272 L823 269 L826 265 L830 260 L836 255 L840 250 L845 245 L851 241 L860 238 L866 235 L872 234 L878 233 L885 233 L892 233 L898 237 L902 241 L906 245 L908 248 L909 250 L911 254 L913 259 L915 265 L920 273 L922 279 L924 285 L925 290 L926 293 L926 296 L926 299 L926 304 L925 309 L922 315 L917 320 L911 326 L903 330 L898 332 L891 334 L884 335 L876 335 L870 335 L864 335 L858 332 L853 330 L848 327 L845 324 L843 323 L841 322 L841 321 L839 320 L837 318 L836 316 L834 315 L834 314 L834 313 L834 312 L834 311 L834 310 L834 309 L828 299 L826 293 L824 290 L823 288 L823 287" fill="none" stroke="#0064FF" stroke-width="1"/><path d="M606 480 L606 478 L606 472 L606 469 L606 467 L606 466 L607 464 L611 460 L619 452 L628 444 L639 436 L652 429 L669 419 L682 413 L693 409 L704 406 L713 406 L719 406 L723 406 L726 408 L728 412 L729 415 L731 421 L733 426 L735 435 L736 444 L737 455 L737 467 L737 479 L737 492 L733 502 L728 512 L721 518 L714 525 L706 529 L700 530 L691 532 L682 533 L675 533 L665 532 L657 528 L649 522 L637 514 L629 503 L623 494 L619 489 L616 483 L615 481 L614 479 L614 478 L614 477 L614 477" fill="none" stroke="#0064FF" stroke-width="1"/><path d="M933 458 L933 455 L933 451 L933 443 L933 438 L933 433 L933 427 L933 423 L933 419 L934 413 L939 408 L946 403 L953 399 L960 396 L975 393 L987 392 L1003 390 L1012 390 L1022 390 L1031 390 L1040 390 L1049 394 L1054 397 L1059 400 L1063 405 L1065 409 L1067 413 L1070 422 L1072 437 L1074 449 L1075 461 L1075 473 L1075 484 L1075 490 L1070 500 L1065 507 L1056 515 L1049 523 L1041 527 L1031 531 L1021 534 L1014 535 L1007 535 L1000 534 L991 527 L984 521 L978 516 L970 508 L964 498 L960 482 L956 472 L953 463 L952 458 L951 457 L951 455 L951 454 L951 454" fill="none" stroke="#0064FF" stroke-width="1"/></svg>