<svg xmlns="http://www.w3.org/2000/svg" id="1" width="1680" height="909">
    <rect width="100%" height="100%" fill="#fff"/>
    
<path d="M656 419 L656 418 L656 410 L656 396 L656 390 L656 386 L656 380 L656 378 L661 373 L665 369 L674 363 L684 357 L699 350 L716 346 L736 341 L763 339 L790 339 L819 339 L845 341 L860 346 L873 351 L885 362 L894 372 L903 387 L912 406 L919 429 L924 453 L927 481 L927 499 L927 518 L921 539 L911 552 L897 564 L878 576 L852 584 L825 590 L797 592 L770 592 L733 582 L711 574 L693 567 L676 557 L662 545 L657 537 L649 521 L643 506 L637 486 L630 466 L625 451 L621 441 L620 435 L620 431 L620 430 L623 426 L631 420 L640 409 L647 401 L653 395 L657 391 L660 390 L661 389 L663 389" fill="none" stroke="#0064FF" stroke-width="1"/></svg>