<svg xmlns="http://www.w3.org/2000/svg" id="1" width="1680" height="909">
    <rect width="100%" height="100%" fill="#fff"/>
    
<path d="M833 335 L830 335 L821 339 L805 350 L785 364 L763 383 L747 396 L720 416 L699 433 L676 452 L659 466 L652 470 L644 477 L638 480 L637 481 L636 482 L637 482 L647 486 L669 501 L700 522 L741 544 L768 559 L789 569 L801 574 L811 578 L814 579 L815 580 L818 579 L833 566 L852 549 L869 532 L889 516 L915 491 L930 475 L942 463 L949 456 L954 452 L957 450 L959 449 L960 448 L961 448 L962 447 L963 446 L967 443 L970 441 L973 439 L974 438 L975 437 L976 437 L977 437 L977 436 L977 435 L976 434 L974 433 L971 431 L967 428 L959 423 L950 417 L939 408 L927 399 L913 390 L901 379 L887 366 L879 356 L869 347 L862 341 L856 334 L852 331 L842 322 L832 313 L824 307 L819 304 L815 301 L813 300 L812 300 L813 300 L815 298" fill="none" stroke="#0064FF" stroke-width="1"/><path d="M935 389 L936 388 L940 382 L950 373 L958 364 L969 357 L975 353 L988 346 L995 341 L1002 337 L1008 330 L1011 326 L1015 323 L1018 319 L1023 316 L1027 312 L1030 309 L1034 306 L1036 305 L1037 304 L1038 304 L1038 305 L1038 307 L1040 309 L1041 313 L1042 315 L1045 318 L1050 322 L1053 325 L1057 328 L1061 331 L1065 334 L1068 335 L1069 336 L1070 337 L1071 337 L1072 337 L1073 337 L1073 336 L1073 336 L1072 336 L1069 336 L1065 336 L1059 340 L1052 346 L1043 353 L1036 361 L1030 367 L1025 372 L1019 376 L1016 379 L1013 382 L1010 384 L1007 387 L1004 389 L1001 391 L998 394 L995 396 L991 399 L988 401 L986 402 L985 403 L984 404 L984 406 L983 406 L982 406 L979 407 L976 409 L974 411 L971 412 L970 413 L969 414 L968 415 L968 416 L967 416 L967 417" fill="none" stroke="#0064FF" stroke-width="1"/></svg>