<svg xmlns="http://www.w3.org/2000/svg" id="1" width="1680" height="953">
    <rect width="100%" height="100%" fill="#fff"/>
    
<path d="M700 349 L700 361 L700 402 L700 442 L700 503 L700 535 L700 560 L700 571 L700 578 L700 580" fill="none" stroke="#0064FF" stroke-width="1"/><path d="M695 351 L695 352 L712 361 L733 373 L737 373 L747 376 L750 376 L751 376 L753 376 L760 382 L770 390 L780 394 L786 396 L792 398 L795 399 L796 399 L798 399 L801 400 L804 401 L811 405 L823 411 L833 417 L842 421 L849 425 L853 426 L854 426 L855 427 L856 427 L857 427 L858 429 L861 432 L867 437 L876 442 L884 447 L891 452 L898 456 L903 458 L908 460 L912 461 L915 461 L916 461 L917 461 L920 460" fill="none" stroke="#0064FF" stroke-width="1"/><path d="M702 580 L715 577 L747 561 L803 532 L817 526 L836 520 L852 514 L862 514 L866 514 L868 514 L869 514 L870 514 L871 514 L872 514 L873 514 L875 513 L881 510 L889 506 L899 501 L908 497 L915 494 L921 489 L926 485 L932 482 L934 481 L935 480 L936 479 L937 479 L938 479 L939 479 L942 479 L944 478 L947 476 L950 475 L953 474 L955 473 L956 472 L957 472 L957 471 L956 470 L951 468 L942 466 L932 464 L916 459 L901 452 L889 448" fill="none" stroke="#0064FF" stroke-width="1"/></svg>