<svg xmlns="http://www.w3.org/2000/svg" id="1" width="1680" height="909">
    <rect width="100%" height="100%" fill="#fff"/>
    
<path d="M647 311 L647 312 L647 320 L647 346 L647 369 L647 400 L647 432 L647 463 L647 498 L647 529 L647 557 L647 577 L645 597 L644 607 L643 620 L642 628 L641 635 L641 641 L641 648 L641 651 L641 653 L641 654 L642 654 L651 654 L681 655 L728 655 L765 654 L810 651 L852 648 L889 646 L908 643 L916 642 L924 641 L926 641 L928 640 L929 640 L929 639 L929 638 L929 637 L929 634 L929 613 L931 584 L933 545 L935 501 L936 466 L936 433 L936 396 L936 382 L936 362 L936 344 L936 332 L936 318 L936 302 L936 292 L936 285 L936 282 L936 280 L935 280 L933 280 L930 280 L919 280 L892 279 L841 276 L805 276 L763 276 L739 276 L716 276 L698 276 L689 276 L684 277 L682 277 L681 278 L680 278 L679 278 L676 278 L672 278 L667 278 L665 278 L664 279 L664 279" fill="none" stroke="#0064FF" stroke-width="1"/><path d="M687 316 L687 317 L687 321 L687 324 L687 328 L687 336 L687 342 L687 353 L687 371 L687 382 L687 395 L687 407 L687 419 L687 431 L687 443 L686 450 L685 458 L685 466 L683 477 L680 489 L678 503 L677 510 L676 517 L676 520 L676 522 L676 522 L681 522 L697 522 L716 521 L734 520 L760 517 L778 515 L794 513 L807 511 L817 510 L822 509 L828 508 L835 508 L841 507 L847 507 L854 507 L858 507 L863 506 L867 506 L871 505 L872 504 L873 504 L873 504 L873 503 L873 501 L874 494 L875 482 L876 460 L878 432 L878 400 L879 379 L879 359 L879 343 L879 334 L879 320 L879 313 L879 306 L879 302 L879 300 L879 299 L878 299 L877 299 L875 300 L870 301 L858 301 L840 301 L825 301 L805 301 L786 301 L769 301 L757 301 L748 301 L740 301 L733 301 L728 301 L724 301 L718 301 L714 301 L709 301 L706 301 L705 301 L704 301" fill="none" stroke="#0064FF" stroke-width="1"/><path d="M796 568 L798 568 L800 568 L802 568 L803 568 L803 569 L803 572 L805 575 L807 578 L809 582 L810 584 L811 586 L812 587 L812 588 L812 589 L811 590 L809 592 L807 596 L802 602 L799 607 L795 612 L791 615 L786 619 L782 621 L777 622 L774 623 L771 623 L769 623 L767 623 L765 622 L762 619 L759 616 L755 612 L751 607 L748 603 L746 600 L745 599 L745 598 L745 597 L745 595 L745 590 L745 587 L745 584 L745 582 L745 581 L746 581 L748 579 L750 576 L753 573 L755 572 L757 571 L758 571 L761 571 L764 570 L769 569 L774 567 L778 566 L780 566 L781 566 L783 566 L786 566 L790 566 L795 566 L801 566 L807 566 L812 565" fill="none" stroke="#0064FF" stroke-width="1"/></svg>