<svg xmlns="http://www.w3.org/2000/svg" id="1" width="1680" height="909">
    <rect width="100%" height="100%" fill="#fff"/>
    
<path d="M784 301 L783 303 L778 309 L767 325 L755 346 L740 371 L722 401 L693 450 L677 477 L657 510 L647 528 L640 539 L636 547 L634 551 L633 553 L632 553 L631 554 L626 561 L620 568 L616 575 L613 579 L612 581 L612 581 L611 581 L612 581 L617 581 L630 581 L665 580 L711 574 L745 569 L785 564 L824 558 L861 552 L888 549 L910 546 L920 545 L928 542 L934 542 L938 541 L943 541 L944 541 L945 541 L946 541 L946 540 L946 539 L946 538 L945 537 L943 534 L939 527 L932 517 L924 505 L914 491 L901 475 L890 460 L878 447 L868 436 L857 425 L850 417 L842 406 L835 397 L828 387 L822 378 L816 368 L812 358 L809 353 L804 343 L802 340 L801 338 L801 337 L801 336 L800 336 L790 315 L785 302 L782 296 L780 292 L779 290" fill="none" stroke="#0064FF" stroke-width="1"/><path d="M847 420 L846 420 L844 420 L833 420 L813 421 L788 425 L773 429 L763 431 L754 433 L745 434 L740 437 L736 437 L732 438 L727 439 L723 440 L719 441 L714 441 L710 441 L706 442 L702 442 L700 444 L699 444 L698 444 L698 444 L698 445 L705 450 L711 456 L722 466 L735 478 L749 492 L763 503 L771 511 L778 517 L783 520 L785 521 L786 522 L786 523 L786 524 L786 525 L789 530 L793 534 L795 539 L797 542 L797 543 L798 543 L798 541 L802 534 L805 528 L807 523 L809 518 L811 511 L813 502 L815 493 L817 485 L819 480 L820 477 L821 476 L822 476 L823 475 L824 473 L827 464 L831 454 L834 446 L838 439 L840 434 L841 431 L842 431 L843 431 L843 430 L844 430 L844 429 L845 425 L846 420 L848 416 L848 413 L849 411 L849 410 L850 410" fill="none" stroke="#0064FF" stroke-width="1"/><path d="M769 437 L769 438 L769 441 L768 445 L766 449 L764 454 L761 460 L759 463 L757 468 L756 472 L753 479 L751 483 L750 487 L749 489 L749 491 L748 492 L748 493 L749 493 L754 493 L763 493 L776 493 L790 493 L798 493 L806 493 L811 493 L815 493 L818 493 L820 493 L821 493 L822 493 L823 493 L823 492 L823 491 L823 489 L823 486 L823 484 L823 482 L823 480 L820 477 L815 472 L808 466 L802 459 L795 451 L789 445 L783 440 L779 435 L777 431 L774 429 L773 428 L773 427 L772 427" fill="none" stroke="#0064FF" stroke-width="1"/></svg>