<svg xmlns="http://www.w3.org/2000/svg" id="1" width="1680" height="909">
    <rect width="100%" height="100%" fill="#fff"/>
    
<path d="M838 360 L839 360 L840 360 L841 360 L843 360 L844 360 L845 361 L846 364 L847 367 L849 372 L853 380 L855 386 L858 393 L859 397 L860 400 L860 401 L860 402 L860 407 L860 413 L860 419 L858 426 L855 434 L850 439 L844 445 L837 450 L827 453 L816 455 L799 456 L786 456 L773 456 L759 453 L750 450 L741 445 L737 442 L734 438 L732 436 L732 434 L732 433 L732 431 L733 415 L734 406 L736 399 L738 393 L739 391 L740 391 L743 388 L748 383 L752 377 L756 373 L759 371 L762 369 L767 366 L771 363 L777 361 L784 360 L790 360 L798 360 L804 360 L810 360 L813 362 L814 363 L815 364" fill="none" stroke="#0064FF" stroke-width="1"/><path d="M806 460 L806 463 L806 481 L806 519 L806 552 L806 591 L806 626 L806 646 L806 663 L806 674 L806 677 L806 679" fill="none" stroke="#0064FF" stroke-width="1"/><path d="M800 567 L800 566 L783 551 L757 531 L748 524 L736 517 L725 512 L722 512 L721 512 L721 511" fill="none" stroke="#0064FF" stroke-width="1"/><path d="M801 569 L801 570 L801 566 L804 561 L812 553 L822 540 L835 529 L840 523 L842 520 L844 517 L845 517 L846 517 L847 516 L849 516" fill="none" stroke="#0064FF" stroke-width="1"/><path d="M800 670 L794 672 L774 686 L755 697 L740 707 L738 709 L733 712 L732 712" fill="none" stroke="#0064FF" stroke-width="1"/><path d="M802 668 L804 668 L810 670 L825 680 L835 686 L848 693 L853 695 L858 697 L859 697 L861 697" fill="none" stroke="#0064FF" stroke-width="1"/></svg>