<svg xmlns="http://www.w3.org/2000/svg" id="1" width="1680" height="953">
    <rect width="100%" height="100%" fill="#fff"/>
    
<path d="M712 395 L715 395 L735 395 L763 395 L798 395 L815 395 L837 395 L846 395 L852 395 L855 395 L856 395 L857 395 L858 395 L859 395 L859 395 L860 394" fill="none" stroke="#0064FF" stroke-width="1"/><path d="M860 394 L860 401 L855 427 L851 447 L851 453 L849 459 L849 464 L848 465 L846 467 L843 470 L842 472 L840 473 L840 474 L839 475 L838 475 L838 477 L837 477 L837 478 L837 478 L837 479 L836 480 L835 482 L831 488 L827 495 L825 500 L822 505 L820 508 L819 509 L819 511 L818 511 L818 512 L818 513 L817 514 L817 516 L816 517 L814 520 L813 523 L810 525 L810 527 L809 528 L809 529 L810 529" fill="none" stroke="#0064FF" stroke-width="1"/><path d="M707 394 L707 396 L707 404 L713 417 L720 433 L725 445 L730 458 L734 467 L738 474 L741 480 L744 485 L747 490 L750 497 L754 503 L759 510 L764 517 L768 523 L774 529 L780 535 L784 540 L787 544 L789 547 L792 550 L793 553 L795 555 L796 556 L796 557 L796 558 L797 558 L798 558 L799 557 L800 555 L802 553 L803 551 L804 549 L805 547 L805 546 L806 544 L807 544 L807 543 L807 542 L808 541 L808 540 L808 539 L808 538 L809 537 L809 536 L809 535 L809 534 L809 534 L810 533 L812 532 L812 531 L812 531 L812 530" fill="none" stroke="#0064FF" stroke-width="1"/></svg>