<svg xmlns="http://www.w3.org/2000/svg" id="1" width="1680" height="909">
    <rect width="100%" height="100%" fill="#fff"/>
    
<path d="M728 350 L730 350 L731 350 L740 350 L748 350 L761 350 L773 350 L786 349 L800 347 L817 346 L839 346 L868 346 L890 348 L911 353 L926 357 L941 364 L960 378 L968 385 L978 395 L985 406 L991 419 L995 431 L1000 444 L1004 460 L1008 475 L1010 492 L1012 511 L1012 528 L1012 542 L1012 554 L1010 566 L1005 577 L1000 586 L994 597 L988 606 L979 617 L967 629 L954 641 L939 653 L921 663 L899 671 L874 678 L848 683 L822 684 L780 684 L739 677 L712 670 L692 663 L675 658 L664 653 L657 646 L651 637 L642 628 L633 613 L626 597 L619 580 L616 564 L613 544 L612 517 L612 495 L612 474 L617 448 L621 428 L626 411 L629 405 L632 398 L636 393 L641 390 L645 387 L649 384 L654 382 L659 378 L663 375 L666 374 L671 372 L675 371 L680 370 L685 368 L690 367 L696 365 L701 363 L706 362 L712 361 L715 359 L718 359 L719 358 L720 358 L723 357" fill="none" stroke="#0064FF" stroke-width="1"/><path d="M747 408 L747 410 L747 411 L747 413 L747 418 L747 424 L747 432 L747 437 L747 442 L747 446 L747 450 L747 452 L747 454 L744 456 L742 459 L736 462 L727 469 L724 471 L716 475 L710 478 L707 480 L705 480 L704 480 L703 480 L701 480 L699 478 L695 476 L693 474 L692 471 L692 468 L692 464 L692 462 L692 459 L692 456 L692 449 L692 445 L692 442 L692 439 L692 438 L693 437 L696 436 L702 430 L710 424 L717 416 L721 413 L726 410 L730 409 L734 409 L736 409 L739 409 L741 409 L745 409 L748 409 L752 409 L754 409 L757 409" fill="none" stroke="#0064FF" stroke-width="1"/><path d="M888 410 L890 410 L892 410 L895 410 L898 413 L901 415 L902 416 L903 418 L905 421 L905 424 L907 426 L907 428 L907 431 L907 434 L907 439 L907 447 L907 457 L907 468 L906 474 L904 481 L903 484 L901 487 L900 489 L898 492 L895 494 L892 495 L889 496 L885 497 L881 497 L875 497 L870 496 L865 493 L859 488 L855 483 L851 476 L848 472 L846 468 L845 464 L845 460 L845 456 L845 455 L845 452 L845 442 L845 435 L845 427 L846 422 L847 419 L849 416 L852 413 L856 410 L859 409 L862 408 L864 408 L867 408 L870 408 L872 408 L874 408" fill="none" stroke="#0064FF" stroke-width="1"/><path d="M737 574 L737 575 L741 578 L745 581 L748 584 L755 588 L760 593 L766 597 L772 600 L777 602 L782 605 L787 606 L793 608 L797 609 L801 610 L806 612 L811 613 L816 614 L822 614 L828 614 L835 614 L841 614 L848 614 L852 614 L857 612 L863 611 L867 608 L872 606 L875 604 L878 602 L882 598 L887 595 L890 591 L892 589 L894 586 L895 584 L895 583 L896 582 L897 580 L898 578 L899 577 L900 577 L900 575 L901 573 L902 572 L902 571 L903 571 L904 571 L905 571" fill="none" stroke="#0064FF" stroke-width="1"/></svg>