<svg xmlns="http://www.w3.org/2000/svg" id="1" width="1680" height="909">
    <rect width="100%" height="100%" fill="#fff"/>
    
<path d="M769 305 L775 305 L783 305 L800 305 L814 305 L827 305 L836 305 L845 305 L851 305 L857 312 L868 328 L885 363 L900 394 L912 422 L924 455 L931 484 L937 511 L938 538 L938 558 L938 570 L935 585 L930 591 L919 596 L904 602 L869 609 L837 613 L803 616 L782 616 L749 616 L726 615 L691 600 L656 572 L642 556 L629 538 L617 517 L612 506 L608 491 L605 480 L604 470 L604 461 L604 444 L611 423 L617 406 L620 397 L622 389 L624 385 L626 383 L631 379 L637 374 L644 365 L651 358 L661 348 L670 341 L680 335 L688 331 L694 327 L701 323 L708 319 L712 316 L716 313 L721 312 L726 309 L730 308 L733 307 L736 307 L740 307 L744 306 L749 305 L754 305 L757 305 L759 305 L761 305 L764 303" fill="none" stroke="#0064FF" stroke-width="1"/><path d="M749 402 L749 401 L749 399 L748 399 L747 399 L746 399 L745 399 L742 399 L737 399 L731 398 L726 398 L719 398 L715 398 L711 398 L706 398 L701 398 L696 399 L693 401 L689 404 L686 407 L683 411 L681 417 L679 422 L678 427 L676 433 L675 438 L674 441 L674 443 L673 445 L673 446 L673 447" fill="none" stroke="#0064FF" stroke-width="1"/><path d="M874 425 L874 425 L874 424 L874 423 L874 422 L874 421 L873 419 L871 417 L868 414 L865 411 L862 408 L858 405 L856 402 L852 400 L850 398 L847 398 L845 397 L840 396 L835 394 L831 393 L827 393 L824 393 L819 393 L815 393 L812 395 L808 397 L805 400 L802 403 L799 406 L797 408 L794 413 L790 416 L788 419 L786 421 L785 422" fill="none" stroke="#0064FF" stroke-width="1"/><path d="M841 495 L841 496 L839 498 L838 500 L837 500 L834 503 L831 504 L827 508 L823 509 L818 511 L811 515 L805 518 L798 521 L789 524 L784 526 L778 527 L773 529 L769 530 L763 531 L759 531 L755 531 L753 531 L751 531 L748 531 L743 530 L738 526 L734 523 L728 519 L722 514 L717 511 L714 508 L713 506 L712 506 L712 505 L712 504 L712 503" fill="none" stroke="#0064FF" stroke-width="1"/></svg>