<svg xmlns="http://www.w3.org/2000/svg" id="1" width="1680" height="909">
    <rect width="100%" height="100%" fill="#fff"/>
    
<path d="M744 313 L745 313 L747 313 L751 313 L758 312 L764 311 L772 311 L783 311 L797 310 L813 309 L828 309 L849 309 L867 312 L901 325 L937 339 L959 352 L983 369 L1002 385 L1018 403 L1030 417 L1038 432 L1044 444 L1047 458 L1049 472 L1050 489 L1051 509 L1051 528 L1051 542 L1050 555 L1047 563 L1044 573 L1039 581 L1029 592 L1018 605 L1004 620 L985 635 L965 646 L944 658 L918 668 L890 677 L871 682 L850 686 L829 688 L810 688 L790 681 L774 677 L762 672 L752 667 L740 657 L728 644 L720 633 L710 620 L698 601 L688 578 L682 557 L677 534 L673 516 L671 493 L671 479 L671 461 L671 449 L672 439 L673 434 L675 428 L678 423 L681 416 L684 410 L688 403 L692 397 L698 392 L704 384 L712 376 L719 369 L725 363 L731 357 L737 350 L744 344 L747 341 L752 336 L756 331 L762 326 L767 321 L770 317 L774 314 L777 312 L781 310 L783 309 L784 309 L786 308" fill="none" stroke="#0064FF" stroke-width="1"/><path d="M788 420 L790 420 L792 420 L798 422 L802 425 L805 429 L807 430 L810 433 L811 435 L812 437 L812 438 L812 440 L812 442 L812 444 L812 445 L812 448 L810 452 L807 456 L804 462 L800 469 L795 475 L789 480 L782 485 L777 488 L772 490 L768 491 L762 492 L757 492 L752 492 L747 492 L743 489 L740 486 L739 482 L738 479 L738 476 L738 473 L738 470 L738 466 L738 458 L738 449 L738 441 L738 436 L738 433 L738 432 L738 431 L739 431 L743 428 L746 424 L750 420 L752 418 L756 415 L758 414 L761 414 L764 414 L768 414 L772 414 L777 414 L780 414 L783 414 L785 414" fill="none" stroke="#0064FF" stroke-width="1"/><path d="M932 402 L933 402 L936 402 L939 402 L943 404 L946 408 L951 411 L952 413 L954 416 L956 417 L957 419 L957 421 L957 423 L957 424 L957 425 L957 426 L957 428 L957 430 L957 432 L955 434 L954 437 L952 440 L948 445 L944 450 L940 454 L936 458 L931 461 L927 463 L923 465 L920 466 L916 468 L914 468 L912 466 L908 463 L906 460 L903 456 L901 453 L898 449 L896 446 L896 441 L895 438 L895 435 L895 432 L894 425 L894 419 L894 414 L894 412 L894 409 L898 405 L901 401 L905 397 L908 395 L910 393 L913 393 L918 392 L922 390 L928 390" fill="none" stroke="#0064FF" stroke-width="1"/><path d="M827 572 L830 572 L834 572 L839 572 L844 572 L846 572 L849 572 L852 572 L853 572 L857 572 L862 572 L867 572 L871 572 L875 572 L877 572 L878 572 L878 572 L879 572 L882 570" fill="none" stroke="#0064FF" stroke-width="1"/></svg>