<svg xmlns="http://www.w3.org/2000/svg" id="1" width="1680" height="909">
    <rect width="100%" height="100%" fill="#fff"/>
    
<path d="M796 245 L795 245 L784 251 L765 268 L751 280 L741 292 L735 298 L727 305 L720 315 L713 324 L708 331 L705 335 L701 340 L699 342 L699 343 L698 343 L700 343 L709 343 L724 343 L760 343 L808 343 L872 343 L912 341 L942 341 L960 341 L974 340 L981 340 L987 340 L989 339 L990 339 L990 338 L990 336 L990 335 L989 333 L983 330 L971 322 L957 312 L937 298 L923 289 L906 279 L893 273 L884 268 L877 263 L871 260 L866 257 L862 254 L857 249 L851 243 L844 237 L837 230 L834 227 L830 224 L826 221 L823 218 L821 215 L817 213 L815 211 L815 210 L814 210 L814 211 L813 212 L813 213 L812 215 L810 218 L807 222 L800 227 L790 235 L780 244 L775 250 L771 254 L770 256" fill="none" stroke="#0064FF" stroke-width="1"/><path d="M698 340 L698 342 L698 358 L698 376 L698 403 L698 435 L698 467 L698 497 L698 517 L698 528 L698 538 L698 543 L698 546 L698 547 L699 547 L700 546 L704 545 L718 544 L741 544 L774 544 L807 544 L844 544 L867 544 L881 544 L894 544 L901 544 L908 544 L913 544 L918 544 L923 544 L930 544 L938 543 L949 542 L955 542 L961 542 L964 541 L966 541 L967 541 L968 541 L969 540 L969 540 L970 539 L975 539 L979 539 L982 539 L985 539 L986 539 L987 538 L988 538 L988 537 L988 536 L989 535 L989 534 L990 532 L991 528 L992 517 L992 495 L992 468 L992 448 L992 422 L992 399 L992 385 L992 375 L992 369 L992 367 L992 366 L992 365 L992 360 L991 355 L990 341 L988 329 L986 322 L985 317 L984 316 L984 317" fill="none" stroke="#0064FF" stroke-width="1"/><path d="M734 386 L734 389 L734 393 L734 402 L734 412 L734 421 L734 428 L734 433 L734 439 L734 442 L734 445 L734 448 L734 448 L734 449 L734 450 L734 450 L734 451 L734 452 L734 453 L733 456 L733 461 L733 475 L733 488 L732 505 L732 514 L732 520 L732 523 L732 524 L731 526 L731 526 L731 527 L731 527" fill="none" stroke="#0064FF" stroke-width="1"/><path d="M730 389 L733 389 L745 389 L764 389 L769 389 L780 389 L784 389 L787 389 L788 389 L788 389 L788 391 L788 396 L788 409 L788 433 L788 464 L788 484 L788 511 L789 529 L789 538 L789 546 L789 554 L789 559 L789 562 L789 565 L789 567 L789 568 L789 569 L791 569 L795 564" fill="none" stroke="#0064FF" stroke-width="1"/><path d="M740 455 L740 456 L740 457 L740 458 L740 459 L741 459 L742 460 L743 460 L744 460 L745 460 L748 460 L751 460 L756 458 L759 454 L761 452 L762 451 L763 447 L764 445 L764 443 L764 441 L764 440 L764 440 L764 439 L763 439 L761 439 L760 439 L759 439 L759 439 L758 439 L757 439 L756 439 L755 438 L754 438 L753 438 L752 438 L751 438 L750 439 L749 440 L749 442 L748 443 L746 446 L745 447 L744 449 L743 450 L742 451 L742 452 L741 453 L740 456 L740 457 L740 457 L739 458 L741 458" fill="none" stroke="#0064FF" stroke-width="1"/></svg>