<svg xmlns="http://www.w3.org/2000/svg" id="1" width="1680" height="909">
    <rect width="100%" height="100%" fill="#fff"/>
    
<path d="M995 469 L994 469 L993 469 L986 469 L962 469 L935 469 L886 469 L837 469 L809 469 L789 469 L774 469 L766 469 L759 469 L752 469 L749 469 L746 469 L743 469 L742 469 L741 469 L740 469 L737 469 L733 469 L729 469 L723 469 L713 469 L707 468 L703 468 L699 468 L698 468 L697 468 L698 468 L704 473 L713 483 L732 505 L753 527 L768 543 L775 550 L783 558 L787 561 L788 562 L788 561 L789 561 L792 560 L802 559 L820 557 L838 554 L860 552 L878 551 L889 551 L898 550 L902 550 L904 549 L905 549 L906 549 L907 549 L908 549 L910 549 L912 549 L916 549 L919 549 L922 549 L926 549 L927 549 L928 549 L927 549 L927 549 L927 548 L927 547 L927 543 L929 541 L931 538 L935 533 L939 529 L943 524 L951 514 L957 505 L961 500 L965 495 L969 491 L971 488 L975 484 L979 479 L982 476 L986 469 L987 467 L989 464 L990 462 L991 461 L992 461 L993 460 L994 460 L994 459 L995 459" fill="none" stroke="#0064FF" stroke-width="1"/><path d="M857 402 L857 403 L857 406 L857 409 L857 413 L857 418 L857 421 L857 425 L857 428 L857 431 L857 433 L857 434 L857 437 L857 439 L857 440 L857 441 L857 441 L857 442 L857 443 L857 445 L856 446 L856 447 L856 449 L856 450 L856 453 L856 454" fill="none" stroke="#0064FF" stroke-width="1"/><path d="M850 400 L849 400 L846 400 L841 400 L835 400 L832 400 L827 400 L825 400 L821 400 L819 400 L817 400 L816 400 L815 400 L814 400 L813 400 L812 400 L809 400 L806 400 L803 400 L799 400 L796 400 L794 400 L793 400 L792 400 L791 400 L791 401 L791 402 L791 403 L791 404 L791 406 L791 408 L791 410 L791 412 L791 415 L791 418 L791 422 L791 426 L791 429 L792 434 L792 438 L792 443 L792 447 L792 450 L792 452 L792 453 L792 454 L792 454 L792 455 L792 456 L792 457 L792 457 L793 457 L793 456" fill="none" stroke="#0064FF" stroke-width="1"/><path d="M813 393 L813 392 L813 390 L813 386 L813 378 L813 375 L813 371 L813 369 L813 370 L813 371 L813 372 L812 372 L811 372 L810 374 L808 374 L805 374 L802 374 L798 374 L795 374 L792 374 L791 374 L790 374 L789 374 L790 374 L791 374 L791 375 L792 375 L793 375 L793 375 L794 375 L794 376 L795 376 L795 377 L795 378 L795 380 L794 382 L793 383 L793 385 L792 386 L792 387 L792 389 L791 390 L791 391" fill="none" stroke="#0064FF" stroke-width="1"/></svg>