<svg xmlns="http://www.w3.org/2000/svg" id="1" width="1680" height="909">
    <rect width="100%" height="100%" fill="#fff"/>
    
<path d="M643 376 L643 379 L643 389 L643 403 L643 417 L643 430 L643 444 L643 460 L643 478 L643 490 L643 513 L643 528 L643 540 L643 555 L643 563 L643 569 L643 573 L643 576 L643 578 L643 579 L643 580 L644 580 L645 580 L647 580 L656 578 L688 576 L718 574 L755 574 L788 573 L808 573 L829 573 L838 573 L845 572 L847 571 L849 571 L850 571 L850 570 L851 569 L851 567 L854 562 L856 557 L857 552 L859 541 L860 517 L860 477 L860 443 L859 428 L858 410 L857 399 L856 393 L856 387 L855 380 L854 375 L854 372 L854 369 L854 369 L854 368 L854 367 L853 367 L852 367 L851 367 L850 368 L845 368 L834 368 L820 366 L806 364 L790 360 L774 359 L759 358 L746 357 L738 357 L732 357 L724 356 L716 356 L707 354 L699 351 L693 350 L688 349 L680 349 L675 349 L671 349 L666 349 L665 349 L662 349 L660 349 L658 349 L656 349 L654 349 L651 350 L649 350 L647 350 L646 350 L645 351 L645 352 L645 353 L645 355 L645 357 L645 360 L645 363 L645 366 L645 370 L646 374 L646 378 L649 381" fill="none" stroke="#0064FF" stroke-width="1"/><path d="M777 218 L777 219 L777 224 L777 231 L777 240 L777 249 L777 256 L777 261 L777 269 L777 273 L777 279 L777 287 L777 297 L777 302 L777 309 L777 314 L777 319 L777 322 L777 324 L777 326 L777 329 L777 334 L777 336 L777 338 L777 339 L776 340 L776 341 L776 342 L776 342 L776 343 L776 344 L776 344 L775 344 L775 345 L775 346 L775 347 L775 348 L774 349 L774 349 L777 347" fill="none" stroke="#0064FF" stroke-width="1"/><path d="M776 211 L777 211 L781 211 L788 211 L792 211 L796 211 L799 211 L800 211 L802 211 L804 211 L804 211 L805 211 L806 211 L806 211 L807 211 L808 211 L808 210 L809 210 L809 209 L810 209 L811 209 L812 209 L812 209 L813 209 L814 209 L814 208 L815 208 L815 209 L813 212 L811 214 L810 219 L807 226 L806 236 L806 251 L806 266 L806 277 L806 287 L806 294 L806 299 L806 302 L806 304 L806 307 L806 309 L806 312 L807 316 L807 319 L807 322 L808 325 L808 327 L808 329 L808 332 L808 334 L808 335 L808 337 L808 338 L808 340 L808 342 L808 345 L808 347 L808 349 L808 352 L808 353 L808 355 L808 357 L808 358 L808 359 L808 359 L809 359 L816 355" fill="none" stroke="#0064FF" stroke-width="1"/></svg>