<svg xmlns="http://www.w3.org/2000/svg" id="1" width="1680" height="953">
    <rect width="100%" height="100%" fill="#fff"/>
    
<path d="M765 480 L765 481" fill="none" stroke="#0064FF" stroke-width="1"/><path d="M736 319 L736 323 L736 334 L733 374 L729 402 L724 430 L721 445 L721 450 L721 454" fill="none" stroke="#0064FF" stroke-width="1"/><path d="M739 322 L739 325 L739 334 L739 340 L742 353 L746 367 L751 379 L753 387 L754 393 L755 395 L755 397 L757 402 L760 408 L763 412 L765 416 L766 417 L767 418 L767 420 L767 421 L767 424 L768 430 L769 434 L770 438 L771 438 L774 438" fill="none" stroke="#0064FF" stroke-width="1"/><path d="M727 414 L729 414 L732 414 L736 414 L739 414 L741 414 L744 414 L746 414 L748 414 L749 414 L750 414 L751 414 L752 414 L752 414 L753 414 L754 414 L755 414 L758 414 L759 414 L760 414 L761 414 L761 414 L761 413 L762 413 L763 413 L765 412 L766 412 L766 411" fill="none" stroke="#0064FF" stroke-width="1"/></svg>