<svg xmlns="http://www.w3.org/2000/svg" id="1" width="1680" height="909">
    <rect width="100%" height="100%" fill="#fff"/>
    
<path d="M616 614 L616 608 L616 596 L616 581 L618 557 L626 524 L628 502 L628 490 L630 480 L631 474 L635 466 L639 459 L644 452 L648 443 L653 437 L657 432 L661 427 L663 422 L664 419 L665 418 L666 417 L666 419 L670 426 L682 439 L705 462 L731 491 L749 512 L769 537 L779 551 L791 567 L796 575 L800 582 L802 586 L804 589 L805 590 L805 591 L807 591 L808 591 L808 590" fill="none" stroke="#0064FF" stroke-width="1"/><path d="M619 558 L622 558 L639 558 L656 558 L669 558 L686 558 L692 558 L700 558 L704 558 L707 558 L710 558 L712 558 L714 558 L715 558 L716 558 L717 558 L718 558 L719 558 L721 558 L723 558 L724 558 L725 558 L726 558" fill="none" stroke="#0064FF" stroke-width="1"/></svg>