<svg xmlns="http://www.w3.org/2000/svg" id="1" width="1680" height="909">
    <rect width="100%" height="100%" fill="#fff"/>
    
<path d="M590 609 L590 603 L590 588 L590 567 L590 542 L590 514 L591 457 L594 422 L597 395 L599 376 L600 367 L604 355 L606 344 L608 334 L610 328 L612 324 L612 321 L613 320 L614 319 L614 320 L614 324 L621 340 L643 384 L677 448 L701 496 L719 530 L729 551 L735 567 L738 575 L740 580 L740 582 L741 583 L741 584 L741 585 L741 585 L742 585" fill="none" stroke="#0064FF" stroke-width="1"/><path d="M595 573 L599 573 L613 572 L638 567 L655 563 L666 562 L672 561 L680 561 L682 561 L684 561 L685 561 L686 561 L687 561 L689 561 L694 561 L701 560 L708 558 L714 556 L719 554 L721 553 L723 552 L723 551" fill="none" stroke="#0064FF" stroke-width="1"/></svg>