<svg xmlns="http://www.w3.org/2000/svg" id="1" width="1680" height="909">
    <rect width="100%" height="100%" fill="#fff"/>
    
<path d="M508 569 L508 568 L512 549 L519 524 L532 496 L543 470 L569 434 L581 416 L590 400 L595 392 L597 386 L599 383 L599 382 L600 382 L600 383 L602 386 L607 390 L636 415 L667 442 L710 477 L737 501 L758 518 L772 527 L781 533 L785 535 L787 535 L787 535 L788 535" fill="none" stroke="#0064FF" stroke-width="1"/><path d="M537 489 L537 490 L540 490 L558 490 L573 490 L600 490 L627 490 L639 490 L649 490 L653 490 L655 490" fill="none" stroke="#0064FF" stroke-width="1"/></svg>