<svg xmlns="http://www.w3.org/2000/svg" id="1" width="1680" height="909">
    <rect width="100%" height="100%" fill="#fff"/>
    
<path d="M678 406" fill="none" stroke="#0064FF" stroke-width="1"/><path d="M686 358 L686 359 L686 361 L686 375 L686 429 L686 479 L686 531 L686 581 L686 601 L686 614 L686 621 L686 620" fill="none" stroke="#0064FF" stroke-width="1"/><path d="M693 378 L695 378 L701 378 L710 378 L725 378 L739 378 L752 378 L758 378 L763 378 L766 378 L768 380 L769 383 L770 388 L771 392 L772 398 L772 404 L772 410 L772 416 L771 422 L766 427 L758 433 L747 441 L738 445 L727 450 L717 454 L706 458 L696 461 L685 464 L679 466 L673 468 L670 469 L668 470 L668 471 L670 471 L676 471 L690 471 L710 471 L735 475 L774 485 L797 493 L821 504 L836 512 L848 521 L856 531 L860 542 L863 555 L864 568 L864 587 L861 601 L850 613 L835 623 L823 629 L801 636 L785 638 L767 639 L757 640 L748 640 L739 640 L732 640 L728 640 L722 639 L717 637 L713 636 L709 635 L705 634 L703 633 L702 633 L701 633 L701 633" fill="none" stroke="#0064FF" stroke-width="1"/></svg>