<svg xmlns="http://www.w3.org/2000/svg" id="1" width="1680" height="909">
    <rect width="100%" height="100%" fill="#fff"/>
    
<path d="M478 366 L478 370 L478 401 L478 455 L478 505 L478 548 L478 581 L478 598 L478 609 L478 612 L478 613" fill="none" stroke="#0064FF" stroke-width="1"/><path d="M475 379 L476 379 L480 379 L487 379 L493 379 L500 379 L508 379 L515 379 L524 379 L537 379 L551 379 L563 379 L576 379 L585 379 L590 379 L595 381 L597 382 L599 385 L601 389 L603 393 L605 397 L607 402 L607 406 L608 412 L608 417 L608 423 L608 431 L606 438 L601 444 L593 452 L585 457 L571 463 L561 467 L548 471 L538 475 L526 477 L517 479 L511 480 L503 481 L498 482 L495 483 L493 483 L490 483 L488 483 L487 483 L486 483 L486 484 L485 484 L484 485 L483 485 L482 486 L480 486 L480 487 L482 487 L488 487 L495 485 L508 483 L524 481 L543 479 L570 479 L593 479 L616 479 L640 483 L655 487 L671 492 L685 498 L695 503 L707 508 L715 511 L723 515 L728 520 L732 523 L734 526 L737 527 L738 529 L738 530 L738 533 L735 537 L730 545 L722 554 L706 563 L675 581 L651 589 L628 597 L607 601 L590 604 L577 604 L564 604 L554 604 L547 604 L540 602 L534 602 L530 602 L526 601 L524 601 L522 601 L521 601 L520 601 L519 601 L515 601 L510 601 L505 601 L500 600 L495 600 L494 599 L492 599 L491 599 L490 599 L488 599 L488 598" fill="none" stroke="#0064FF" stroke-width="1"/></svg>