<svg xmlns="http://www.w3.org/2000/svg" id="1" width="1680" height="909">
    <rect width="100%" height="100%" fill="#fff"/>
    
<path d="M778 360 L777 360 L771 360 L761 360 L754 360 L745 360 L735 360 L727 360 L721 360 L713 360 L706 362 L699 366 L693 370 L688 375 L682 381 L677 388 L674 396 L670 404 L667 414 L664 426 L663 441 L661 457 L661 471 L661 484 L661 497 L664 507 L669 517 L675 526 L688 535 L703 541 L716 544 L732 546 L747 547 L762 547 L773 540" fill="none" stroke="#0064FF" stroke-width="1"/></svg>