<svg xmlns="http://www.w3.org/2000/svg" id="1" width="1680" height="909">
    <rect width="100%" height="100%" fill="#fff"/>
    
<path d="M694 361 L694 364 L694 381 L694 418 L694 466 L694 500 L694 522 L694 543 L694 558 L694 566 L694 572 L694 580 L694 584 L694 586" fill="none" stroke="#0064FF" stroke-width="1"/><path d="M694 357 L695 357 L696 357 L699 357 L701 357 L711 360 L725 367 L741 373 L751 378 L758 384 L767 388 L772 394 L776 398 L778 401 L779 405 L781 410 L781 418 L781 425 L780 434 L775 448 L768 462 L760 476 L751 491 L743 502 L735 512 L726 522 L716 531 L707 539 L700 546 L693 552 L690 555 L685 558 L681 561 L678 563 L677 565 L676 565 L675 566 L676 566" fill="none" stroke="#0064FF" stroke-width="1"/></svg>