<svg xmlns="http://www.w3.org/2000/svg" id="1" width="1680" height="909">
    <rect width="100%" height="100%" fill="#fff"/>
    
<path d="M501 454 L501 460 L501 465 L501 495 L501 521 L501 567 L501 596 L501 619 L501 626 L501 630" fill="none" stroke="#0064FF" stroke-width="1"/><path d="M502 461 L505 461 L515 461 L538 461 L563 461 L596 461 L616 461 L635 461 L641 462 L646 465 L649 468 L650 470 L650 472 L651 476 L651 481 L640 502 L606 538 L570 573 L538 602 L519 618 L499 631 L486 636 L478 639 L470 640 L466 640 L464 641 L463 641" fill="none" stroke="#0064FF" stroke-width="1"/></svg>