<svg xmlns="http://www.w3.org/2000/svg" id="1" width="1680" height="909">
    <rect width="100%" height="100%" fill="#fff"/>
    
<path d="M648 378 L648 379 L654 379 L677 379 L695 379 L721 379 L743 379 L755 379 L767 379 L773 379 L776 379" fill="none" stroke="#0064FF" stroke-width="1"/><path d="M654 384 L654 385 L654 396 L654 415 L654 434 L654 462 L654 476 L654 484 L654 491 L654 495 L654 499 L654 501 L654 504 L654 507 L654 509 L654 510 L656 510 L664 508 L680 507 L701 505 L719 505 L737 505 L751 505 L761 505 L770 505 L779 504 L788 502 L799 500 L809 498 L819 494" fill="none" stroke="#0064FF" stroke-width="1"/><path d="M653 439 L654 439 L663 439 L677 439 L697 439 L708 439 L720 439 L723 439 L726 439 L727 439" fill="none" stroke="#0064FF" stroke-width="1"/></svg>