<svg xmlns="http://www.w3.org/2000/svg" id="1" width="1680" height="909">
    <rect width="100%" height="100%" fill="#fff"/>
    
<path d="M765 376 L764 376 L755 376 L740 376 L723 376 L710 376 L696 376 L685 382 L673 390 L667 398 L661 407 L655 423 L650 444 L645 470 L641 491 L638 512 L638 531 L638 552 L645 576 L650 593 L657 608 L669 620 L684 625 L703 628 L724 629 L748 625 L768 613 L780 602 L791 590 L796 577 L799 560 L799 550 L799 539 L793 531 L787 526 L781 523 L774 521 L766 518 L757 516 L745 516 L738 516 L732 516 L729 516 L728 516 L728 517 L728 517 L729 517 L734 517 L746 519 L759 519 L772 519 L781 519 L788 519 L792 519 L794 519 L795 519 L795 519 L798 519 L800 520 L802 520 L803 520 L804 520 L804 521 L804 521 L804 531 L804 542 L804 559 L804 575 L805 586" fill="none" stroke="#0064FF" stroke-width="1"/></svg>