<svg xmlns="http://www.w3.org/2000/svg" id="1" width="1680" height="909">
    <rect width="100%" height="100%" fill="#fff"/>
    
<path d="M592 432 L592 433 L592 453 L592 492 L592 521 L592 552 L592 565 L592 575 L592 582 L592 583" fill="none" stroke="#0064FF" stroke-width="1"/><path d="M669 454 L669 458 L669 474 L669 487 L669 504 L669 516 L669 525 L669 527" fill="none" stroke="#0064FF" stroke-width="1"/><path d="M595 503 L596 503 L601 503 L606 503 L612 503 L616 503 L619 503 L622 503 L625 503 L628 503 L631 503 L633 503 L635 503 L637 503 L638 503 L639 503 L640 503 L641 503 L643 503 L646 503 L650 503 L654 503 L659 503 L663 503 L664 503 L665 503 L668 503 L670 503 L673 502 L675 502 L676 502 L677 501 L677 500 L677 499" fill="none" stroke="#0064FF" stroke-width="1"/></svg>