<svg xmlns="http://www.w3.org/2000/svg" id="1" width="1680" height="909">
    <rect width="100%" height="100%" fill="#fff"/>
    
<path d="M708 492 L708 493 L710 494 L712 496 L714 497 L715 498 L716 499 L717 500 L717 501 L717 502 L717 502 L717 503 L717 504 L717 505 L716 505 L716 506 L715 507 L715 509 L715 512 L714 514 L714 516 L714 519 L714 520 L714 521 L714 522 L713 523" fill="none" stroke="#0064FF" stroke-width="1"/><path d="M711 575 L711 576 L711 580 L711 585 L711 589 L711 593 L711 599 L711 603 L711 610 L711 619 L711 627 L711 636 L711 645 L712 650 L713 654 L714 657 L716 660 L717 663 L720 667 L722 669 L725 672 L727 674 L730 676 L734 677 L736 678 L737 678 L738 678 L739 678 L739 677" fill="none" stroke="#0064FF" stroke-width="1"/></svg>