<svg xmlns="http://www.w3.org/2000/svg" id="1" width="1680" height="909">
    <rect width="100%" height="100%" fill="#fff"/>
    
<path d="M700 344 L700 345 L700 350 L700 360 L700 362 L700 364" fill="none" stroke="#0064FF" stroke-width="1"/><path d="M703 399 L703 402 L703 406 L703 418 L703 436 L703 449 L703 464 L703 475 L703 484 L703 493 L701 500 L696 507 L689 512 L679 515 L663 517 L648 517 L631 512 L613 503 L602 495 L596 491 L592 487 L590 486 L589 485" fill="none" stroke="#0064FF" stroke-width="1"/></svg>