<svg xmlns="http://www.w3.org/2000/svg" id="1" width="1680" height="909">
    <rect width="100%" height="100%" fill="#fff"/>
    
<path d="M590 368 L590 373 L590 417 L590 458 L590 493 L590 515 L590 528 L590 537 L590 540 L590 541" fill="none" stroke="#0064FF" stroke-width="1"/><path d="M644 384 L643 386 L641 391 L637 397 L637 400 L636 401 L635 404 L635 405 L635 406 L634 407 L633 408 L631 409 L630 411 L627 414 L625 416 L622 418 L619 422 L615 427 L609 433 L605 437 L602 440 L601 442 L599 443 L599 444 L598 445 L598 446 L598 447 L597 447" fill="none" stroke="#0064FF" stroke-width="1"/><path d="M610 438 L612 438 L621 449 L631 465 L638 474 L648 488 L657 497 L662 502 L667 506 L669 508 L670 509 L671 509 L672 509 L675 506 L678 500" fill="none" stroke="#0064FF" stroke-width="1"/></svg>