<?xml version="1.0" encoding="iso-8859-1"?>
<!-- Generator: Adobe Illustrator 19.0.0, SVG Export Plug-In . SVG Version: 6.00 Build 0)  -->
<svg version="1.1" id="Layer_1" xmlns="http://www.w3.org/2000/svg" xmlns:xlink="http://www.w3.org/1999/xlink" x="0px" y="0px"
	 viewBox="0 0 512 512" style="enable-background:new 0 0 512 512;" xml:space="preserve">
<g>
	<g>
		<path d="M408.626,0H121.868C92.425,0,68.47,23.954,68.47,53.398v12.897h-8.295c-5.633,0-10.199,4.567-10.199,10.199
			s4.566,10.199,10.199,10.199h8.295v338.614h-8.295c-5.633,0-10.199,4.567-10.199,10.199s4.566,10.199,10.199,10.199h8.295v12.897
			c0,29.444,23.955,53.398,53.398,53.398h250.336c19.157,0,34.744-15.585,34.744-34.744v-33.801
			c23.281-1.327,41.817-20.68,41.817-44.288V106.7c1.314-0.224,2.642-0.412,3.991-0.535c5.25-0.481,9.268-4.884,9.268-10.156v-42.61
			C462.024,23.954,438.069,0,408.626,0z M127.626,491.602h-5.757c-18.196,0-33-14.804-33-33v-12.897h5.984
			c5.633,0,10.199-4.567,10.199-10.199s-4.566-10.199-10.199-10.199h-5.984V86.693h5.984c5.633,0,10.199-4.567,10.199-10.199
			s-4.566-10.199-10.199-10.199h-5.984V53.398c0-18.195,14.803-33,33-33h5.757V491.602z M428.367,399.166
			c0,12.354-9.397,22.556-21.418,23.834v-45.762h21.418V399.166z M428.367,356.84h-21.418v-45.896h21.418V356.84z M428.367,290.545
			h-21.418v-45.896h21.418V290.545z M428.367,224.25h-21.418v-45.896h21.418V224.25z M428.367,157.955h-21.418v-1.53
			c0-17.11,8.366-32.241,21.418-41.373V157.955z M441.625,87.325c-13.934,3.174-26.629,10.514-36.435,21.199
			c-12.021,13.1-18.641,30.111-18.641,47.902v320.831c0,7.911-6.436,14.345-14.345,14.345H148.024V20.398h260.602
			c18.195,0,33,14.804,33,33V87.325z"/>
	</g>
</g>
<g>
	<g>
		<path d="M366.224,309.386l-46.158-46.158c-2.619-2.618-6.451-3.614-10.014-2.595l-6.874,1.964c-1.016,0.29-1.981,0.737-2.86,1.324
			l-14.007,9.347c-16.955-11.92-31.779-26.997-43.413-44.152l9.896-9.897c1.226-1.225,2.118-2.743,2.595-4.409l1.964-6.874
			c1.018-3.562,0.024-7.394-2.595-10.014l-46.158-46.158c-2.828-2.826-7.047-3.741-10.794-2.338l-7.856,2.947
			c-1.364,0.511-2.602,1.309-3.632,2.339c-1.887,1.888-3.7,3.918-5.391,6.034c-22.885,28.652-20.568,69.834,5.392,95.794
			l75.129,75.129c14.004,14.003,32.433,21.128,50.94,21.127c15.801-0.003,31.658-5.196,44.856-15.738
			c2.118-1.693,4.147-3.506,6.03-5.388c1.03-1.03,1.828-2.269,2.339-3.633l2.947-7.857
			C369.966,316.433,369.051,312.214,366.224,309.386z M344.514,321.121c-20.527,16.395-50.035,14.728-68.641-3.878l-75.128-75.129
			c-18.605-18.605-20.273-48.114-3.879-68.639c0.68-0.851,1.387-1.682,2.114-2.486l36.598,36.598l-12.92,12.92
			c-3.331,3.332-3.947,8.511-1.49,12.53c14.929,24.43,35.533,45.55,59.586,61.078c3.414,2.203,7.812,2.17,11.193-0.085
			l18.039-12.037l37.014,37.014C346.197,319.734,345.365,320.441,344.514,321.121z"/>
	</g>
</g>
<g>
	<g>
		<path d="M246.821,459.852h-5.1c-5.633,0-10.199,4.567-10.199,10.199c0,5.632,4.566,10.199,10.199,10.199h5.1
			c5.633,0,10.199-4.567,10.199-10.199C257.02,464.419,252.454,459.852,246.821,459.852z"/>
	</g>
</g>
<g>
	<g>
		<path d="M364.112,459.852h-81.594c-5.633,0-10.199,4.567-10.199,10.199c0,5.632,4.566,10.199,10.199,10.199h81.594
			c5.633,0,10.199-4.567,10.199-10.199C374.311,464.419,369.745,459.852,364.112,459.852z"/>
	</g>
</g>
<g>
</g>
<g>
</g>
<g>
</g>
<g>
</g>
<g>
</g>
<g>
</g>
<g>
</g>
<g>
</g>
<g>
</g>
<g>
</g>
<g>
</g>
<g>
</g>
<g>
</g>
<g>
</g>
<g>
</g>
</svg>
