<?xml version="1.0" encoding="iso-8859-1"?>
<!-- Generator: Adobe Illustrator 19.0.0, SVG Export Plug-In . SVG Version: 6.00 Build 0)  -->
<svg version="1.1" id="Layer_1" xmlns="http://www.w3.org/2000/svg" xmlns:xlink="http://www.w3.org/1999/xlink" x="0px" y="0px"
	 viewBox="0 0 512 512" style="enable-background:new 0 0 512 512;" xml:space="preserve">
<g>
	<g>
		<path d="M501.801,408.009h-19.326V118.071c0-5.632-4.566-10.199-10.199-10.199h-63.48c-5.633,0-10.199,4.567-10.199,10.199
			v289.938h-26.503V146.687c0-5.632-4.566-10.199-10.199-10.199h-63.48c-5.633,0-10.199,4.567-10.199,10.199v261.321h-26.503V96.607
			c0-5.632-4.566-10.199-10.199-10.199h-63.48c-5.633,0-10.199,4.567-10.199,10.199v311.401h-26.503V181.437
			c0-5.632-4.566-10.199-10.199-10.199h-63.48c-5.633,0-10.199,4.567-10.199,10.199v226.571H40.84V93.791
			c0-5.632-4.566-10.199-10.199-10.199s-10.199,4.567-10.199,10.199v13.057H10.199C4.566,106.848,0,111.416,0,117.048
			s4.566,10.199,10.199,10.199h10.242v24.572H10.199C4.566,151.819,0,156.386,0,162.018s4.566,10.199,10.199,10.199h10.242v24.572
			H10.199C4.566,196.789,0,201.356,0,206.988c0,5.632,4.566,10.199,10.199,10.199h10.242v24.571H10.199
			C4.566,241.758,0,246.326,0,251.958c0,5.632,4.566,10.199,10.199,10.199h10.242v24.572H10.199C4.566,286.729,0,291.296,0,296.928
			c0,5.632,4.566,10.199,10.199,10.199h10.242v24.572H10.199C4.566,331.699,0,336.266,0,341.898s4.566,10.199,10.199,10.199h10.242
			v24.571H10.199C4.566,376.668,0,381.235,0,386.867s4.566,10.199,10.199,10.199h10.242v21.142c0,5.632,4.566,10.199,10.199,10.199
			h471.16c5.633,0,10.199-4.567,10.199-10.199S507.434,408.009,501.801,408.009z M130.934,408.008H87.853V237.628h43.081V408.008z
			 M130.934,217.229H87.853c0,0,0-25.593,0-25.593h43.081V217.229z M241.315,408.008h-43.081V194.897h43.081V408.008z
			 M241.315,174.499h-43.081v-67.692h43.081V174.499z M351.695,408.008h-43.081V275.443h43.081V408.008z M351.695,255.045h-43.081
			v-98.158h43.081V255.045z M462.076,408.008h-43.081V225.363h43.081V408.008z M462.076,204.965h-43.081V128.27h43.081V204.965z"/>
	</g>
</g>
<g>
</g>
<g>
</g>
<g>
</g>
<g>
</g>
<g>
</g>
<g>
</g>
<g>
</g>
<g>
</g>
<g>
</g>
<g>
</g>
<g>
</g>
<g>
</g>
<g>
</g>
<g>
</g>
<g>
</g>
</svg>
