<?xml version="1.0" encoding="iso-8859-1"?>
<!-- Generator: Adobe Illustrator 19.0.0, SVG Export Plug-In . SVG Version: 6.00 Build 0)  -->
<svg version="1.1" id="Layer_1" xmlns="http://www.w3.org/2000/svg" xmlns:xlink="http://www.w3.org/1999/xlink" x="0px" y="0px"
	 viewBox="0 0 512 512" style="enable-background:new 0 0 512 512;" xml:space="preserve">
<g>
	<g>
		<path d="M461.098,42.42H50.902C22.835,42.42,0,65.254,0,93.322v49.695c0,5.632,4.567,10.199,10.199,10.199h8.159v281.177
			c0,19.402,15.785,35.187,35.187,35.187h404.908c19.402,0,35.187-15.785,35.187-35.187V153.216h8.159
			c5.632,0,10.199-4.567,10.199-10.199V93.322C512,65.254,489.165,42.42,461.098,42.42z M473.243,434.392
			c0,8.154-6.635,14.789-14.789,14.789H53.546c-8.154,0-14.789-6.635-14.789-14.789V153.216h434.486V434.392z M491.602,132.818
			H20.398V93.322c0-16.819,13.684-30.504,30.504-30.504h410.196c16.82,0,30.504,13.684,30.504,30.504V132.818z"/>
	</g>
</g>
<g>
	<g>
		<path d="M313.022,179.922H198.978c-24.234,0-43.95,19.716-43.95,43.95c0,24.234,19.716,43.95,43.95,43.95h114.043
			c24.234,0,43.95-19.716,43.95-43.95C356.972,199.638,337.256,179.922,313.022,179.922z M313.022,247.424H198.978
			c-12.986,0-23.552-10.565-23.552-23.552c0-12.987,10.565-23.552,23.552-23.552h114.043c12.986,0,23.552,10.565,23.552,23.552
			C336.574,236.859,326.008,247.424,313.022,247.424z"/>
	</g>
</g>
<g>
	<g>
		<path d="M366.151,298.232H145.849c-5.632,0-10.199,4.567-10.199,10.199v101.992c0,5.633,4.567,10.199,10.199,10.199h220.303
			c5.632,0,10.199-4.567,10.199-10.199V308.432C376.351,302.8,371.783,298.232,366.151,298.232z M355.952,400.224H156.048v-81.594
			h199.904V400.224z"/>
	</g>
</g>
<g>
	<g>
		<path d="M321.275,348.208h-6.12c-5.632,0-10.199,4.567-10.199,10.199c0,5.632,4.567,10.199,10.199,10.199h6.12
			c5.632,0,10.199-4.567,10.199-10.199C331.474,352.776,326.907,348.208,321.275,348.208z"/>
	</g>
</g>
<g>
	<g>
		<path d="M275.378,348.208h-84.653c-5.632,0-10.199,4.567-10.199,10.199c0,5.632,4.567,10.199,10.199,10.199h84.653
			c5.632,0,10.199-4.567,10.199-10.199C285.578,352.776,281.01,348.208,275.378,348.208z"/>
	</g>
</g>
<g>
</g>
<g>
</g>
<g>
</g>
<g>
</g>
<g>
</g>
<g>
</g>
<g>
</g>
<g>
</g>
<g>
</g>
<g>
</g>
<g>
</g>
<g>
</g>
<g>
</g>
<g>
</g>
<g>
</g>
</svg>
