<?xml version="1.0" encoding="iso-8859-1"?>
<!-- Generator: Adobe Illustrator 19.0.0, SVG Export Plug-In . SVG Version: 6.00 Build 0)  -->
<svg version="1.1" id="Layer_1" xmlns="http://www.w3.org/2000/svg" xmlns:xlink="http://www.w3.org/1999/xlink" x="0px" y="0px"
	 viewBox="0 0 512 512" style="enable-background:new 0 0 512 512;" xml:space="preserve">
<g>
	<g>
		<path d="M511.995,149.408c-0.002-3.998-2.334-7.632-5.981-9.286L260.213,28.642c-2.702-1.225-5.771-1.194-8.425,0.011
			c0-0.001-0.002-0.011-0.002-0.011L5.986,140.122c-3.647,1.654-5.98,5.29-5.981,9.289H0v213.717c0,4.009,2.35,7.646,6.004,9.296
			l245.801,110.937c1.339,0.605,2.769,0.904,4.194,0.904c1.436,0,2.867-0.306,4.194-0.905l0.002,0.002l0.032-0.014
			c0.004-0.002,0.009-0.004,0.013-0.006l245.756-110.916c3.654-1.649,6.004-5.287,6.004-9.296V149.41
			C512.001,149.41,511.996,149.408,511.995,149.408z M245.802,458.272L20.399,356.541V164.95l15.177,6.582l210.225,91.161V458.272z
			 M245.802,240.457l-12.143-5.266L55.598,157.979h190.204V240.457z M245.802,137.58H60.976l184.826-83.825V137.58z M266.2,157.98
			h91.793c5.632,0,10.199-4.567,10.199-10.199c0-5.632-4.567-10.199-10.199-10.199H266.2V53.755l210.447,95.446l-198.304,85.991
			l-12.143,5.266V157.98z M491.603,356.541L266.2,458.271v-195.58l210.225-91.159l15.177-6.582V356.541z"/>
	</g>
</g>
<g>
	<g>
		<path d="M400.83,137.58h-7.139c-5.632,0-10.199,4.567-10.199,10.199s4.567,10.199,10.199,10.199h7.139
			c5.632,0,10.199-4.567,10.199-10.199S406.462,137.58,400.83,137.58z"/>
	</g>
</g>
<g>
	<g>
		<path d="M429.686,250.189c-2.872-1.885-6.502-2.196-9.655-0.83l-77.817,33.743c-3.728,1.618-6.141,5.293-6.141,9.358v69.036
			c0,3.464,1.757,6.69,4.666,8.567c1.675,1.082,3.599,1.632,5.534,1.632c1.425,0,2.856-0.299,4.195-0.904l77.816-35.122
			c3.655-1.649,6.004-5.287,6.004-9.296v-67.658C434.289,255.28,432.558,252.074,429.686,250.189z M413.891,319.788l-57.418,25.915
			v-46.55l57.418-24.897V319.788z"/>
	</g>
</g>
<g>
</g>
<g>
</g>
<g>
</g>
<g>
</g>
<g>
</g>
<g>
</g>
<g>
</g>
<g>
</g>
<g>
</g>
<g>
</g>
<g>
</g>
<g>
</g>
<g>
</g>
<g>
</g>
<g>
</g>
</svg>
