<?xml version="1.0" encoding="iso-8859-1"?>
<!-- Generator: Adobe Illustrator 19.0.0, SVG Export Plug-In . SVG Version: 6.00 Build 0)  -->
<svg version="1.1" id="Layer_1" xmlns="http://www.w3.org/2000/svg" xmlns:xlink="http://www.w3.org/1999/xlink" x="0px" y="0px"
	 viewBox="0 0 512 512" style="enable-background:new 0 0 512 512;" xml:space="preserve">
<g>
	<g>
		<path d="M397.553,0H114.447c-5.632,0-10.199,4.566-10.199,10.199v491.602c0,5.633,4.567,10.199,10.199,10.199h283.105
			c5.632,0,10.199-4.566,10.199-10.199V10.199C407.752,4.566,403.185,0,397.553,0z M124.646,62.725h23.242v357.992h-23.242V62.725z
			 M387.354,491.602h-23.242v-18.869c0-5.633-4.567-10.199-10.199-10.199s-10.199,4.566-10.199,10.199v18.869h-28.558v-18.869
			c0-5.633-4.567-10.199-10.199-10.199s-10.199,4.566-10.199,10.199v18.869h-28.558v-18.869c0-5.633-4.567-10.199-10.199-10.199
			c-5.632,0-10.199,4.566-10.199,10.199v18.869h-28.558v-18.869c0-5.633-4.567-10.199-10.199-10.199s-10.199,4.566-10.199,10.199
			v18.869h-28.558v-18.869c0-5.633-4.567-10.199-10.199-10.199s-10.199,4.566-10.199,10.199v18.869h-23.242v-50.486h262.707V491.602
			z M168.287,420.717V62.725h28.558v357.992H168.287z M217.243,420.717V62.725h28.558v357.992H217.243z M266.199,420.717V62.725
			h28.558v357.992H266.199z M387.354,420.717h-23.242V134.12c0-5.633-4.567-10.199-10.199-10.199s-10.199,4.566-10.199,10.199
			v286.598h-28.558V62.725h72.198V420.717z M387.354,42.327H124.646V20.398h262.707V42.327z"/>
	</g>
</g>
<g>
	<g>
		<path d="M353.912,84.143c-5.632,0-10.199,4.566-10.199,10.199v5.1c0,5.633,4.567,10.199,10.199,10.199s10.199-4.566,10.199-10.199
			v-5.1C364.112,88.71,359.544,84.143,353.912,84.143z"/>
	</g>
</g>
<g>
</g>
<g>
</g>
<g>
</g>
<g>
</g>
<g>
</g>
<g>
</g>
<g>
</g>
<g>
</g>
<g>
</g>
<g>
</g>
<g>
</g>
<g>
</g>
<g>
</g>
<g>
</g>
<g>
</g>
</svg>
