<?xml version="1.0" encoding="iso-8859-1"?>
<!-- Generator: Adobe Illustrator 19.0.0, SVG Export Plug-In . SVG Version: 6.00 Build 0)  -->
<svg version="1.1" id="Layer_1" xmlns="http://www.w3.org/2000/svg" xmlns:xlink="http://www.w3.org/1999/xlink" x="0px" y="0px"
	 viewBox="0 0 512 512" style="enable-background:new 0 0 512 512;" xml:space="preserve">
<g>
	<g>
		<path d="M458.602,100.972h-12.897V79.554c0-5.632-4.567-10.199-10.199-10.199s-10.199,4.567-10.199,10.199v21.418H86.693V79.554
			c0-5.632-4.567-10.199-10.199-10.199s-10.199,4.567-10.199,10.199v21.418H53.398C23.954,100.972,0,124.926,0,154.369v234.878
			c0,29.444,23.954,53.398,53.398,53.398h405.203c29.445,0,53.399-23.954,53.399-53.398V154.37
			C512,124.926,488.046,100.972,458.602,100.972z M491.602,389.247c0,18.195-14.804,33-33,33H53.398c-18.195,0-33-14.804-33-33
			V180.526h471.203V389.247z M491.602,160.127H20.398v-5.758c0-18.194,14.804-32.998,33-32.998h12.897v13.259
			c0,5.632,4.567,10.199,10.199,10.199s10.199-4.567,10.199-10.199v-13.259h338.614v13.259c0,5.632,4.567,10.199,10.199,10.199
			s10.199-4.567,10.199-10.199v-13.259h12.897c18.195,0,33,14.804,33,32.998V160.127z"/>
	</g>
</g>
<g>
	<g>
		<path d="M244.721,297.03c11.477-5.373,19.779-19.779,19.779-41.023c0-31.743-19.29-43.219-46.639-43.219
			c-39.557,0-49.568,25.639-49.568,40.29c0,8.057,1.953,10.499,10.743,10.499c7.081,0,9.768-3.663,9.768-9.034
			c0-10.255,5.616-23.44,28.569-23.44c18.314,0,27.347,8.79,27.347,28.569c0,23.441-10.988,29.301-28.324,29.301
			c-5.127,0-7.08,4.395-7.08,8.546c0,4.396,1.953,8.546,7.08,8.546c19.779,0,32.72,8.547,32.72,29.791v4.64
			c0,23.44-11.232,33.696-32.72,33.696c-23.686,0-31.987-13.918-31.987-24.418c0-5.127-2.198-8.057-10.5-8.057
			c-6.837,0-9.523,1.954-9.523,9.523c0.001,18.555,15.872,41.509,52.011,41.509c29.301,0,53.231-14.163,53.231-52.254v-4.64
			C269.627,314.611,259.128,302.89,244.721,297.03z"/>
	</g>
</g>
<g>
	<g>
		<path d="M314.802,212.543c-2.93,0-4.64,1.466-6.349,3.174l-22.465,26.616c-2.197,1.709-4.396,5.616-4.396,8.546
			c0,4.396,3.174,8.547,7.57,8.547c1.466,0,3.419-0.733,5.128-2.686l9.033-13.43v140.647c0,4.883,5.128,7.326,10.256,7.326
			c5.128,0,10.255-2.443,10.255-7.326V219.868C323.836,215.229,319.196,212.543,314.802,212.543z"/>
	</g>
</g>
<g>
</g>
<g>
</g>
<g>
</g>
<g>
</g>
<g>
</g>
<g>
</g>
<g>
</g>
<g>
</g>
<g>
</g>
<g>
</g>
<g>
</g>
<g>
</g>
<g>
</g>
<g>
</g>
<g>
</g>
</svg>
