<?xml version="1.0" encoding="iso-8859-1"?>
<!-- Generator: Adobe Illustrator 19.0.0, SVG Export Plug-In . SVG Version: 6.00 Build 0)  -->
<svg version="1.1" id="Layer_1" xmlns="http://www.w3.org/2000/svg" xmlns:xlink="http://www.w3.org/1999/xlink" x="0px" y="0px"
	 viewBox="0 0 512 512" style="enable-background:new 0 0 512 512;" xml:space="preserve">
<g>
	<g>
		<path d="M486.39,193.715h-84.415V91.743c0-14.122-11.489-25.61-25.61-25.61H25.61C11.489,66.131,0,77.621,0,91.742v200.933
			c0,14.122,11.489,25.61,25.61,25.61h84.415v101.971c0,14.122,11.489,25.61,25.61,25.61H486.39c14.122,0,25.61-11.489,25.61-25.61
			V219.325C512,205.203,500.511,193.715,486.39,193.715z M25.61,297.888c-2.874,0-5.212-2.339-5.212-5.213V91.742
			c0-2.874,2.338-5.212,5.212-5.212h350.754c2.874,0,5.212,2.338,5.212,5.212v200.933c0,2.873-2.338,5.212-5.212,5.212H25.61z
			 M491.602,420.258c0,2.874-2.338,5.212-5.212,5.212H135.635c-2.874,0-5.212-2.338-5.212-5.212v-13.015h361.178V420.258z
			 M491.602,386.844H130.423v-31.102h361.178V386.844z M491.602,335.343H130.423v-17.057h245.942c14.122,0,25.61-11.489,25.61-25.61
			v-78.562h84.415c2.874,0,5.212,2.338,5.212,5.212V335.343z"/>
	</g>
</g>
<g>
	<g>
		<path d="M322.717,107.097c-10.896,0-20.709,4.72-27.506,12.222c-6.797-7.502-16.61-12.222-27.506-12.222
			c-20.468,0-37.12,16.652-37.12,37.121c0,20.469,16.652,37.121,37.12,37.121c10.896,0,20.709-4.72,27.506-12.222
			c6.797,7.502,16.61,12.222,27.506,12.222c20.468,0,37.121-16.652,37.121-37.121C359.838,123.749,343.186,107.097,322.717,107.097z
			 M267.705,160.942c-9.22,0-16.722-7.501-16.722-16.723c0-9.221,7.502-16.723,16.722-16.723c9.221,0,16.723,7.502,16.723,16.723
			C284.427,153.44,276.926,160.942,267.705,160.942z M322.717,160.942c-9.22,0-16.722-7.501-16.722-16.723
			c0-9.221,7.502-16.723,16.722-16.723c9.221,0,16.723,7.502,16.723,16.723C339.44,153.44,331.938,160.942,322.717,160.942z"/>
	</g>
</g>
<g>
	<g>
		<path d="M101.544,237.022H52.336c-5.633,0-10.199,4.567-10.199,10.199s4.566,10.199,10.199,10.199h49.208
			c5.633,0,10.199-4.567,10.199-10.199S107.177,237.022,101.544,237.022z"/>
	</g>
</g>
<g>
	<g>
		<path d="M184.632,237.022h-49.207c-5.633,0-10.199,4.567-10.199,10.199s4.566,10.199,10.199,10.199h49.208
			c5.633,0,10.199-4.567,10.199-10.199S190.265,237.022,184.632,237.022z"/>
	</g>
</g>
<g>
	<g>
		<path d="M267.721,237.022h-49.208c-5.633,0-10.199,4.567-10.199,10.199s4.566,10.199,10.199,10.199h49.208
			c5.633,0,10.199-4.567,10.199-10.199S273.354,237.022,267.721,237.022z"/>
	</g>
</g>
<g>
	<g>
		<path d="M350.809,237.022h-49.208c-5.633,0-10.199,4.567-10.199,10.199s4.566,10.199,10.199,10.199h49.208
			c5.633,0,10.199-4.567,10.199-10.199S356.442,237.022,350.809,237.022z"/>
	</g>
</g>
<g>
	<g>
		<path d="M86.573,110.611H64.919c-11.271,0-20.441,9.169-20.441,20.44v21.654c0,11.271,9.17,20.44,20.441,20.44h21.654
			c11.271,0,20.441-9.169,20.441-20.44v-21.654C107.014,119.78,97.844,110.611,86.573,110.611z M86.592,152.746
			c0,0-0.006,0.001-0.02,0.001l-21.697-0.042l0.044-21.696l21.696,0.042L86.592,152.746z"/>
	</g>
</g>
<g>
</g>
<g>
</g>
<g>
</g>
<g>
</g>
<g>
</g>
<g>
</g>
<g>
</g>
<g>
</g>
<g>
</g>
<g>
</g>
<g>
</g>
<g>
</g>
<g>
</g>
<g>
</g>
<g>
</g>
</svg>
