<?xml version="1.0" encoding="iso-8859-1"?>
<!-- Generator: Adobe Illustrator 19.0.0, SVG Export Plug-In . SVG Version: 6.00 Build 0)  -->
<svg version="1.1" id="Layer_1" xmlns="http://www.w3.org/2000/svg" xmlns:xlink="http://www.w3.org/1999/xlink" x="0px" y="0px"
	 viewBox="0 0 512 512" style="enable-background:new 0 0 512 512;" xml:space="preserve">
<g>
	<g>
		<path d="M379.537,141.607l76.016-102.958c2.287-3.096,2.634-7.217,0.9-10.653c-1.734-3.436-5.256-5.603-9.105-5.603H117.991
			C113.699,9.403,101.452,0,87.043,0C69.072,0,54.452,14.621,54.452,32.591v446.819c0,17.97,14.621,32.591,32.592,32.591
			s32.592-14.621,32.592-32.591V264.672h327.714c3.818,0,7.315-2.132,9.065-5.525c1.75-3.392,1.458-7.478-0.756-10.589
			L379.537,141.607z M99.236,479.409h-0.001c0,6.723-5.47,12.192-12.193,12.192c-6.723,0-12.193-5.469-12.193-12.192V32.591
			c0.001-6.723,5.471-12.192,12.194-12.192s12.193,5.469,12.193,12.192V479.409z M119.634,244.274V42.79h307.505l-68.404,92.65
			c-2.619,3.548-2.662,8.379-0.105,11.972l68.94,96.863H119.634z"/>
	</g>
</g>
<g>
	<g>
		<path d="M258.035,210.686H145.058c-5.633,0-10.199,4.567-10.199,10.199c0,5.632,4.566,10.199,10.199,10.199h112.978
			c5.633,0,10.199-4.567,10.199-10.199C268.235,215.253,263.668,210.686,258.035,210.686z"/>
	</g>
</g>
<g>
	<g>
		<path d="M296.711,210.686h-5.089c-5.633,0-10.199,4.567-10.199,10.199c0,5.632,4.566,10.199,10.199,10.199h5.089
			c5.633,0,10.199-4.567,10.199-10.199C306.911,215.253,302.344,210.686,296.711,210.686z"/>
	</g>
</g>
<g>
</g>
<g>
</g>
<g>
</g>
<g>
</g>
<g>
</g>
<g>
</g>
<g>
</g>
<g>
</g>
<g>
</g>
<g>
</g>
<g>
</g>
<g>
</g>
<g>
</g>
<g>
</g>
<g>
</g>
</svg>
