<?xml version="1.0" encoding="iso-8859-1"?>
<!-- Generator: Adobe Illustrator 19.0.0, SVG Export Plug-In . SVG Version: 6.00 Build 0)  -->
<svg version="1.1" id="Layer_1" xmlns="http://www.w3.org/2000/svg" xmlns:xlink="http://www.w3.org/1999/xlink" x="0px" y="0px"
	 viewBox="0 0 511.999 511.999" style="enable-background:new 0 0 511.999 511.999;" xml:space="preserve">
<g>
	<g>
		<path d="M255.435,359.376c-19.334,0-35.062,15.729-35.062,35.062s15.728,35.062,35.062,35.062
			c19.334,0,35.062-15.729,35.062-35.062C290.497,375.105,274.768,359.376,255.435,359.376z M255.435,409.101
			c-8.085,0-14.663-6.577-14.663-14.663s6.578-14.663,14.663-14.663c8.086,0,14.663,6.578,14.663,14.663
			S263.521,409.101,255.435,409.101z"/>
	</g>
</g>
<g>
	<g>
		<path d="M297.249,71.197H213.62c-5.633,0-10.199,4.567-10.199,10.199v142.395c0,5.632,4.566,10.199,10.199,10.199h83.628
			c5.632,0,10.199-4.567,10.199-10.199V81.396C307.448,75.763,302.882,71.197,297.249,71.197z M287.049,213.592h-63.23V91.595h63.23
			V213.592z"/>
	</g>
</g>
<g>
	<g>
		<path d="M266.171,108.49h-21.472c-5.633,0-10.199,4.567-10.199,10.199s4.566,10.199,10.199,10.199h21.472
			c5.632,0,10.199-4.567,10.199-10.199S271.803,108.49,266.171,108.49z"/>
	</g>
</g>
<g>
	<g>
		<path d="M266.171,141.264h-21.472c-5.633,0-10.199,4.567-10.199,10.199s4.566,10.199,10.199,10.199h21.472
			c5.632,0,10.199-4.567,10.199-10.199S271.803,141.264,266.171,141.264z"/>
	</g>
</g>
<g>
	<g>
		<path d="M266.171,174.037h-21.472c-5.633,0-10.199,4.567-10.199,10.199c0,5.632,4.566,10.199,10.199,10.199h21.472
			c5.632,0,10.199-4.567,10.199-10.199C276.37,178.604,271.803,174.037,266.171,174.037z"/>
	</g>
</g>
<g>
	<g>
		<path d="M479.105,21.471H360.631c-8.914,0-17.012,3.51-22.979,9.201c-5.968-5.691-14.065-9.201-22.979-9.201H196.198
			c-8.655,0-16.535,3.365-22.414,8.849c-5.879-5.483-13.759-8.849-22.414-8.849H32.896C14.757,21.471,0,36.228,0,54.367v403.264
			c0,18.139,14.757,32.896,32.896,32.896h118.474c8.655,0,16.535-3.365,22.414-8.849c5.879,5.484,13.759,8.849,22.414,8.849h118.475
			c8.914,0,17.012-3.51,22.979-9.201c5.968,5.691,14.065,9.201,22.979,9.201h118.474c18.138,0,32.895-14.757,32.895-32.896V54.367
			C512,36.228,497.243,21.471,479.105,21.471z M163.454,460.759c-1.393,5.379-6.276,9.369-12.084,9.369H32.896
			c-6.891,0-12.497-5.607-12.497-12.498V54.367c0-6.891,5.607-12.497,12.497-12.497h118.474c5.809,0,10.691,3.99,12.085,9.37
			c-0.098,1.03-0.153,2.073-0.153,3.127v403.264C163.302,458.687,163.357,459.729,163.454,460.759z M327.453,457.631
			c0,6.774-5.853,12.497-12.781,12.497H196.198c-5.809,0-10.691-3.99-12.085-9.37c0.098-1.03,0.153-2.073,0.153-3.128V54.367
			c0-1.056-0.055-2.098-0.153-3.127c1.394-5.379,6.276-9.37,12.085-9.37h118.475c6.927,0,12.78,5.723,12.78,12.497V457.631z
			 M491.602,457.63c0,6.892-5.607,12.498-12.497,12.498H360.631c-6.927,0-12.78-5.723-12.78-12.498V54.367
			c0-6.774,5.852-12.497,12.78-12.497h118.474c6.891,0,12.497,5.607,12.497,12.497V457.63z"/>
	</g>
</g>
<g>
	<g>
		<path d="M419.868,359.376c-19.333,0-35.062,15.729-35.062,35.062s15.729,35.062,35.062,35.062
			c19.333,0,35.062-15.729,35.062-35.062C454.929,375.105,439.2,359.376,419.868,359.376z M419.868,409.101
			c-8.086,0-14.663-6.577-14.663-14.663s6.577-14.663,14.663-14.663s14.663,6.578,14.663,14.663S427.953,409.101,419.868,409.101z"
			/>
	</g>
</g>
<g>
	<g>
		<path d="M461.681,71.197h-83.628c-5.632,0-10.199,4.567-10.199,10.199v142.395c0,5.632,4.567,10.199,10.199,10.199h83.628
			c5.632,0,10.199-4.567,10.199-10.199V81.396C471.88,75.763,467.314,71.197,461.681,71.197z M451.482,213.592h-63.23V91.595h63.23
			V213.592z"/>
	</g>
</g>
<g>
	<g>
		<path d="M430.604,108.49h-21.472c-5.632,0-10.199,4.567-10.199,10.199s4.566,10.199,10.199,10.199h21.472
			c5.632,0,10.199-4.567,10.199-10.199S436.236,108.49,430.604,108.49z"/>
	</g>
</g>
<g>
	<g>
		<path d="M430.604,141.264h-21.472c-5.632,0-10.199,4.567-10.199,10.199s4.566,10.199,10.199,10.199h21.472
			c5.632,0,10.199-4.567,10.199-10.199S436.236,141.264,430.604,141.264z"/>
	</g>
</g>
<g>
	<g>
		<path d="M430.604,174.037h-21.472c-5.632,0-10.199,4.567-10.199,10.199c0,5.632,4.566,10.199,10.199,10.199h21.472
			c5.632,0,10.199-4.567,10.199-10.199C440.803,178.604,436.236,174.037,430.604,174.037z"/>
	</g>
</g>
<g>
	<g>
		<path d="M92.132,359.376c-19.334,0-35.062,15.729-35.062,35.062S72.799,429.5,92.132,429.5s35.062-15.729,35.062-35.062
			C127.194,375.105,111.466,359.376,92.132,359.376z M92.132,409.101c-8.085,0-14.663-6.577-14.663-14.663
			s6.578-14.663,14.663-14.663s14.663,6.578,14.663,14.663S100.218,409.101,92.132,409.101z"/>
	</g>
</g>
<g>
	<g>
		<path d="M133.947,71.197H50.318c-5.633,0-10.199,4.567-10.199,10.199v142.395c0,5.632,4.566,10.199,10.199,10.199h83.629
			c5.633,0,10.199-4.567,10.199-10.199V81.396C144.146,75.763,139.58,71.197,133.947,71.197z M60.517,213.592V91.595h63.231
			c0,0,0,121.997,0,121.997H60.517z"/>
	</g>
</g>
<g>
	<g>
		<path d="M102.869,108.49H81.397c-5.633,0-10.199,4.567-10.199,10.199s4.566,10.199,10.199,10.199h21.472
			c5.633,0,10.199-4.567,10.199-10.199S108.502,108.49,102.869,108.49z"/>
	</g>
</g>
<g>
	<g>
		<path d="M102.869,141.264H81.397c-5.633,0-10.199,4.567-10.199,10.199s4.566,10.199,10.199,10.199h21.472
			c5.633,0,10.199-4.567,10.199-10.199S108.502,141.264,102.869,141.264z"/>
	</g>
</g>
<g>
	<g>
		<path d="M102.869,174.037H81.397c-5.633,0-10.199,4.567-10.199,10.199c0,5.632,4.566,10.199,10.199,10.199h21.472
			c5.633,0,10.199-4.567,10.199-10.199C113.068,178.604,108.502,174.037,102.869,174.037z"/>
	</g>
</g>
<g>
	<g>
		<path d="M49.976,249.93c-5.633,0-10.199,4.567-10.199,10.199v62.215c0,5.632,4.566,10.199,10.199,10.199
			c5.633,0,10.199-4.567,10.199-10.199V260.13C60.175,254.498,55.609,249.93,49.976,249.93z"/>
	</g>
</g>
<g>
	<g>
		<path d="M49.976,341.723c-5.633,0-10.199,4.567-10.199,10.199v2.04c0,5.632,4.566,10.199,10.199,10.199
			c5.633,0,10.199-4.567,10.199-10.199v-2.04C60.175,346.29,55.609,341.723,49.976,341.723z"/>
	</g>
</g>
<g>
</g>
<g>
</g>
<g>
</g>
<g>
</g>
<g>
</g>
<g>
</g>
<g>
</g>
<g>
</g>
<g>
</g>
<g>
</g>
<g>
</g>
<g>
</g>
<g>
</g>
<g>
</g>
<g>
</g>
</svg>
