<?xml version="1.0" encoding="iso-8859-1"?>
<!-- Generator: Adobe Illustrator 19.0.0, SVG Export Plug-In . SVG Version: 6.00 Build 0)  -->
<svg version="1.1" id="Layer_1" xmlns="http://www.w3.org/2000/svg" xmlns:xlink="http://www.w3.org/1999/xlink" x="0px" y="0px"
	 viewBox="0 0 512.001 512.001" style="enable-background:new 0 0 512.001 512.001;" xml:space="preserve">
<g>
	<g>
		<path d="M365.262,146.411V55.212c11.607-1.3,20.661-11.169,20.661-23.116v-8.829C385.922,10.437,375.484,0,362.656,0h-213.31
			c-12.83,0-23.266,10.437-23.266,23.266v8.829c0,11.947,9.054,21.816,20.661,23.116v91.198c0,16.307,6.972,31.893,19.129,42.76
			l74.83,66.898l-74.83,66.899c-12.156,10.867-19.129,26.454-19.129,42.76v91.062c-11.607,1.3-20.661,11.169-20.661,23.117v8.829
			c0,12.829,10.437,23.266,23.266,23.266h213.31c12.829,0,23.266-10.437,23.266-23.266v-8.829c0-11.947-9.054-21.816-20.661-23.117
			v-91.061c0-16.306-6.972-31.893-19.129-42.76l-74.83-66.899l74.83-66.899C358.289,178.303,365.262,162.717,365.262,146.411z
			 M149.345,34.963c-1.582,0-2.868-1.286-2.868-2.868v-8.829c0-1.581,1.286-2.868,2.868-2.868h213.31
			c1.581,0,2.868,1.287,2.868,2.868v8.829c0,1.582-1.287,2.868-2.868,2.868H149.345z M362.656,477.037
			c1.581,0,2.868,1.286,2.868,2.868v8.829c0,1.581-1.287,2.868-2.868,2.868h-213.31c-1.582,0-2.868-1.287-2.868-2.868v-8.829
			c0-1.582,1.286-2.868,2.868-2.868H362.656z M332.537,338.174c7.834,7.004,12.326,17.046,12.326,27.553v90.912H167.138v-90.912
			c0-10.507,4.493-20.549,12.326-27.553l16.092-14.386h120.889L332.537,338.174z M293.629,303.389h-75.256l37.627-33.639
			L293.629,303.389z M256.001,242.387l-39.671-35.466h79.342L256.001,242.387z M344.863,146.411
			c0,10.507-4.492,20.549-12.326,27.553l-14.049,12.559H193.513l-14.049-12.559c-7.833-7.004-12.326-17.046-12.326-27.553V55.361
			h177.725V146.411z"/>
	</g>
</g>
<g>
	<g>
		<path d="M186.646,362.072c-5.633,0-10.199,4.567-10.199,10.199v3.06c0,5.632,4.566,10.199,10.199,10.199
			c5.633,0,10.199-4.567,10.199-10.199v-3.06C196.845,366.639,192.279,362.072,186.646,362.072z"/>
	</g>
</g>
<g>
	<g>
		<path d="M186.646,395.729c-5.633,0-10.199,4.567-10.199,10.199v32.637c0,5.632,4.566,10.199,10.199,10.199
			c5.633,0,10.199-4.567,10.199-10.199v-32.637C196.845,400.296,192.279,395.729,186.646,395.729z"/>
	</g>
</g>
<g>
</g>
<g>
</g>
<g>
</g>
<g>
</g>
<g>
</g>
<g>
</g>
<g>
</g>
<g>
</g>
<g>
</g>
<g>
</g>
<g>
</g>
<g>
</g>
<g>
</g>
<g>
</g>
<g>
</g>
</svg>
