<?xml version="1.0" encoding="iso-8859-1"?>
<!-- Generator: Adobe Illustrator 19.0.0, SVG Export Plug-In . SVG Version: 6.00 Build 0)  -->
<svg version="1.1" id="Layer_1" xmlns="http://www.w3.org/2000/svg" xmlns:xlink="http://www.w3.org/1999/xlink" x="0px" y="0px"
	 viewBox="0 0 512 512" style="enable-background:new 0 0 512 512;" xml:space="preserve">
<g>
	<g>
		<path d="M501.801,186.675H311.222L457.507,40.389c3.983-3.983,3.983-10.441,0-14.425c-3.984-3.982-10.44-3.982-14.425,0
			l-160.71,160.711h-52.235L69.427,25.966c-3.984-3.982-10.44-3.982-14.425,0c-3.983,3.983-3.983,10.441,0,14.425l146.286,146.286
			H10.199C4.567,186.677,0,191.244,0,196.876v281.947c0,5.632,4.567,10.199,10.199,10.199h491.602
			c5.632,0,10.199-4.567,10.199-10.199V196.875C512,191.243,507.433,186.675,501.801,186.675z M491.602,468.623H20.398V207.074
			h241.575l-13.187,13.187c-3.983,3.983-3.983,10.441,0,14.425c1.992,1.991,4.602,2.987,7.212,2.987s5.22-0.996,7.212-2.987
			l27.61-27.61h200.781V468.623z"/>
	</g>
</g>
<g>
	<g>
		<path d="M188.884,259.592c-9.161-9.778-22.1-15.385-35.497-15.385h-35.388c-13.398,0-26.335,5.608-35.496,15.385
			c-9.16,9.778-13.915,23.053-13.043,36.423l1.574,24.117v0.001l3.672,56.316c1.365,20.932,13.153,39.465,31.534,49.575
			c9.222,5.071,19.338,7.607,29.453,7.607c10.117,0,20.233-2.536,29.454-7.608c18.38-10.109,30.169-28.642,31.534-49.574
			l4.196-64.353v-0.001l1.048-16.08C202.797,282.645,198.044,269.369,188.884,259.592z M89.814,294.686
			c-0.513-7.877,2.175-15.387,7.573-21.148c5.397-5.76,12.717-8.933,20.611-8.933h31.79l-7.171,19.123
			c-1.986,3.079-14.52,20.056-51.909,24.666L89.814,294.686z M176.326,375.122c-0.91,13.945-8.764,26.292-21.01,33.028
			c-12.288,6.757-26.961,6.758-39.245,0.001c-12.246-6.736-20.101-19.084-21.01-33.029l-3.023-46.354
			c29.443-3.446,47.292-13.876,57.409-22.61c2.398,2.069,5.309,3.992,8.725,5.757c4.729,2.444,11.909,4.887,21.792,7.418
			L176.326,375.122z M181.57,294.686l-0.255,3.901c-8.122-2.236-12.012-3.882-13.781-4.796c-3.202-1.653-4.769-2.988-5.496-3.76
			l7.61-20.292c1.554,1.102,3.012,2.369,4.35,3.798C179.396,279.3,182.084,286.809,181.57,294.686z"/>
	</g>
</g>
<g>
	<g>
		<path d="M450.805,267.249h-9.179c-5.632,0-10.199,4.567-10.199,10.199c0,5.632,4.567,10.199,10.199,10.199h9.179
			c5.632,0,10.199-4.567,10.199-10.199C461.004,271.816,456.437,267.249,450.805,267.249z"/>
	</g>
</g>
<g>
	<g>
		<path d="M406.948,267.249H259.06c-5.632,0-10.199,4.567-10.199,10.199c0,5.632,4.567,10.199,10.199,10.199h147.888
			c5.632,0,10.199-4.567,10.199-10.199C417.147,271.816,412.58,267.249,406.948,267.249z"/>
	</g>
</g>
<g>
	<g>
		<path d="M450.805,360.155h-85.079c-5.632,0-10.199,4.567-10.199,10.199c0,5.632,4.567,10.199,10.199,10.199h85.079
			c5.632,0,10.199-4.567,10.199-10.199C461.004,364.722,456.437,360.155,450.805,360.155z"/>
	</g>
</g>
<g>
	<g>
		<path d="M450.805,392.699h-85.079c-5.632,0-10.199,4.567-10.199,10.199c0,5.632,4.567,10.199,10.199,10.199h85.079
			c5.632,0,10.199-4.567,10.199-10.199C461.004,397.267,456.437,392.699,450.805,392.699z"/>
	</g>
</g>
<g>
	<g>
		<path d="M310.056,299.979H259.06c-5.632,0-10.199,4.567-10.199,10.199s4.567,10.199,10.199,10.199h50.996
			c5.632,0,10.199-4.567,10.199-10.199S315.688,299.979,310.056,299.979z"/>
	</g>
</g>
<g>
</g>
<g>
</g>
<g>
</g>
<g>
</g>
<g>
</g>
<g>
</g>
<g>
</g>
<g>
</g>
<g>
</g>
<g>
</g>
<g>
</g>
<g>
</g>
<g>
</g>
<g>
</g>
<g>
</g>
</svg>
