<?xml version="1.0" encoding="iso-8859-1"?>
<!-- Generator: Adobe Illustrator 19.0.0, SVG Export Plug-In . SVG Version: 6.00 Build 0)  -->
<svg version="1.1" id="Layer_1" xmlns="http://www.w3.org/2000/svg" xmlns:xlink="http://www.w3.org/1999/xlink" x="0px" y="0px"
	 viewBox="0 0 512.001 512.001" style="enable-background:new 0 0 512.001 512.001;" xml:space="preserve">
<g>
	<g>
		<path d="M256.001,0C151.75,0,66.937,84.814,66.937,189.064c0,78.063,47.557,145.223,115.219,174.041v70.101
			c0,21.088,15.819,38.538,36.211,41.138v2.218c0,19.541,15.897,35.438,35.438,35.438s35.438-15.898,35.438-35.438v-2.218
			c20.392-2.601,36.211-20.051,36.211-41.138V364.91c69.986-27.74,119.609-96.106,119.609-175.846
			C445.064,84.814,360.251,0,256.001,0z M253.806,491.602c-8.293,0-15.04-6.747-15.04-15.04v-1.872h30.079v1.872h0.001
			C268.845,484.855,262.099,491.602,253.806,491.602z M305.057,433.206c0,11.627-9.46,21.087-21.087,21.087h-60.328v-0.001
			c-8.995,0-16.671-5.672-19.696-13.619h43.276c5.633,0,10.199-4.566,10.199-10.199c0-5.633-4.566-10.199-10.199-10.199h-44.667
			v-15.813h44.667c5.633,0,10.199-4.566,10.199-10.199c0-5.633-4.566-10.199-10.199-10.199h-44.667v-13.642
			c16.955,5.006,34.89,7.706,53.446,7.706c16.962,0,33.404-2.258,49.056-6.467V433.206z M256.001,357.728
			c-6.581,0-13.071-0.392-19.458-1.129c0.07-0.97,0.007-1.964-0.216-2.962l-33.443-149.985h16.904c2.705,0,5.299-1.075,7.212-2.987
			l10.894-10.894l32.841,32.84c3.983,3.983,10.441,3.983,14.424,0l18.958-18.959h4.999l-19.252,86.34
			c-1.226,5.498,2.237,10.949,7.735,12.175c5.499,1.226,10.948-2.237,12.175-7.735l22.021-98.759
			c0.674-3.02-0.061-6.184-1.997-8.599c-1.936-2.415-4.863-3.821-7.958-3.821h-21.947c-2.705,0-5.299,1.075-7.212,2.987
			l-14.734,14.735l-32.841-32.84c-1.912-1.912-4.507-2.987-7.212-2.987c-2.705,0-5.299,1.075-7.212,2.987l-15.118,15.118H190.16
			c-3.095,0-6.023,1.405-7.958,3.821c-1.936,2.415-2.67,5.578-1.997,8.599l35.02,157.062
			C141.858,334.451,87.333,268.01,87.333,189.064c0.002-93.002,75.665-168.665,168.667-168.665s168.665,75.663,168.665,168.665
			S349.003,357.728,256.001,357.728z"/>
	</g>
</g>
<g>
	<g>
		<path d="M295.434,311.886c-5.501-1.23-10.949,2.237-12.175,7.734l-1.468,6.583c-1.226,5.497,2.237,10.949,7.734,12.175
			c0.748,0.167,1.494,0.247,2.23,0.247c4.672,0,8.886-3.231,9.945-7.981l1.468-6.583
			C304.394,318.563,300.931,313.112,295.434,311.886z"/>
	</g>
</g>
<g>
</g>
<g>
</g>
<g>
</g>
<g>
</g>
<g>
</g>
<g>
</g>
<g>
</g>
<g>
</g>
<g>
</g>
<g>
</g>
<g>
</g>
<g>
</g>
<g>
</g>
<g>
</g>
<g>
</g>
</svg>
