<?xml version="1.0" encoding="iso-8859-1"?>
<!-- Generator: Adobe Illustrator 19.0.0, SVG Export Plug-In . SVG Version: 6.00 Build 0)  -->
<svg version="1.1" id="Layer_1" xmlns="http://www.w3.org/2000/svg" xmlns:xlink="http://www.w3.org/1999/xlink" x="0px" y="0px"
	 viewBox="0 0 512 512" style="enable-background:new 0 0 512 512;" xml:space="preserve">
<g>
	<g>
		<path d="M501.801,419.45h-33.092v-19.624c0-5.632-4.566-10.199-10.199-10.199h-25.341l0.03-5.582
			c0.086-16.11,6.37-31.292,17.696-42.749c15.211-15.389,23.588-35.779,23.588-57.416V157.938
			c11.632-3.212,20.203-13.882,20.203-26.522c0-15.172-12.344-27.516-27.516-27.516h-25.579
			c-17.084-49.223-63.922-84.66-118.887-84.66H125.804C56.435,19.241,0,75.677,0,145.045v25.815c0,5.632,4.566,10.199,10.199,10.199
			h428.107c5.633,0,10.199-4.567,10.199-10.199v-11.927h5.577V283.88c0,16.233-6.285,31.531-17.697,43.076
			c-15.095,15.272-23.471,35.508-23.586,56.979l-0.031,5.691h-24.488c-5.633,0-10.199,4.567-10.199,10.199v19.624h-33.094
			c-5.633,0-10.199,4.567-10.199,10.199v52.911c0,5.632,4.566,10.199,10.199,10.199h156.813c5.633,0,10.199-4.567,10.199-10.199
			v-52.911C512,424.016,507.434,419.45,501.801,419.45z M20.398,160.66v-15.616c0-58.119,47.284-105.405,105.406-105.405h196.897
			c58.121,0,105.406,47.284,105.406,105.406v15.615H20.398z M448.339,138.535c-0.247-4.822-0.776-9.57-1.553-14.235h20.382v-0.001
			c3.925,0,7.118,3.193,7.118,7.118s-3.192,7.118-7.118,7.118H448.339z M398.48,410.025h49.83v9.425h-49.83V410.025z
			 M491.602,472.361H355.187v-32.513h136.414V472.361z"/>
	</g>
</g>
<g>
	<g>
		<path d="M160.277,129.876h-3.848c-5.633,0-10.199,4.567-10.199,10.199c0,5.632,4.566,10.199,10.199,10.199h3.848
			c5.633,0,10.199-4.567,10.199-10.199S165.91,129.876,160.277,129.876z"/>
	</g>
</g>
<g>
	<g>
		<path d="M124.682,129.876h-79.85c-5.633,0-10.199,4.567-10.199,10.199c0,5.632,4.566,10.199,10.199,10.199h79.85
			c5.633,0,10.199-4.567,10.199-10.199S130.315,129.876,124.682,129.876z"/>
	</g>
</g>
<g>
</g>
<g>
</g>
<g>
</g>
<g>
</g>
<g>
</g>
<g>
</g>
<g>
</g>
<g>
</g>
<g>
</g>
<g>
</g>
<g>
</g>
<g>
</g>
<g>
</g>
<g>
</g>
<g>
</g>
</svg>
