<?xml version="1.0" encoding="iso-8859-1"?>
<!-- Generator: Adobe Illustrator 19.0.0, SVG Export Plug-In . SVG Version: 6.00 Build 0)  -->
<svg version="1.1" id="Layer_1" xmlns="http://www.w3.org/2000/svg" xmlns:xlink="http://www.w3.org/1999/xlink" x="0px" y="0px"
	 viewBox="0 0 512 512" style="enable-background:new 0 0 512 512;" xml:space="preserve">
<g>
	<g>
		<path d="M501.921,349.228h-24.693V133.291c0-23.202-18.876-42.079-42.079-42.079H76.85c-23.202,0-42.079,18.876-42.079,42.079
			v215.937H10.079C4.512,349.228,0,353.741,0,359.307v2.016c0,32.789,26.675,59.465,59.465,59.465h393.071
			c32.789,0,59.465-26.675,59.465-59.465v-2.016C512,353.741,507.488,349.228,501.921,349.228z M54.929,133.291
			c0-12.087,9.834-21.921,21.921-21.921H435.15c12.087,0,21.921,9.834,21.921,21.921v215.937H54.929V133.291z M452.535,400.63
			H59.465c-18.912,0-34.746-13.424-38.476-31.244h470.022C487.282,387.206,471.447,400.63,452.535,400.63z"/>
	</g>
</g>
<g>
	<g>
		<path d="M433.386,125.48H78.614c-5.567,0-10.079,4.512-10.079,10.079v189.48c0,5.567,4.512,10.079,10.079,10.079h354.772
			c5.567,0,10.079-4.512,10.079-10.079v-189.48C443.465,129.993,438.952,125.48,433.386,125.48z M423.307,314.961H88.693V145.638
			h334.614V314.961z"/>
	</g>
</g>
<g>
	<g>
		<path d="M268.094,375.433h-24.189c-5.566,0-10.079,4.512-10.079,10.079c0,5.567,4.512,10.079,10.079,10.079h24.189
			c5.567,0,10.079-4.512,10.079-10.079C278.173,379.945,273.661,375.433,268.094,375.433z"/>
	</g>
</g>
<g>
	<g>
		<path d="M138.079,273.638c-5.566,0-10.079,4.512-10.079,10.079v6.597c0,5.566,4.512,10.079,10.079,10.079
			s10.079-4.512,10.079-10.079v-6.597C148.157,278.151,143.645,273.638,138.079,273.638z"/>
	</g>
</g>
<g>
	<g>
		<path d="M214.098,284.724c-5.567,0-10.079,4.512-10.079,10.079v2.016c0,5.566,4.512,10.079,10.079,10.079
			c5.566,0,10.079-4.512,10.079-10.079v-2.016C224.176,289.237,219.664,284.724,214.098,284.724z"/>
	</g>
</g>
<g>
	<g>
		<path d="M214.098,232.42c-5.567,0-10.079,4.512-10.079,10.079v2.016c0,5.566,4.512,10.079,10.079,10.079
			c5.566,0,10.079-4.512,10.079-10.079v-2.016C224.176,236.932,219.664,232.42,214.098,232.42z"/>
	</g>
</g>
<g>
	<g>
		<path d="M289.178,284.22c-5.567,0-10.079,4.512-10.079,10.079v2.52c0,5.566,4.512,10.079,10.079,10.079
			c5.566,0,10.079-4.512,10.079-10.079v-2.52C299.257,288.733,294.745,284.22,289.178,284.22z"/>
	</g>
</g>
<g>
	<g>
		<path d="M289.178,247.29c-5.567,0-10.079,4.512-10.079,10.079v2.52c0,5.567,4.512,10.079,10.079,10.079
			c5.566,0,10.079-4.512,10.079-10.079v-2.52C299.257,251.802,294.745,247.29,289.178,247.29z"/>
	</g>
</g>
<g>
	<g>
		<path d="M369.89,284.22c-5.567,0-10.079,4.512-10.079,10.079v2.52c0,5.566,4.512,10.079,10.079,10.079
			c5.566,0,10.079-4.512,10.079-10.079v-2.52C379.969,288.733,375.456,284.22,369.89,284.22z"/>
	</g>
</g>
<g>
	<g>
		<path d="M369.89,242.975c-5.567,0-10.079,4.512-10.079,10.079v5.892c0,5.566,4.512,10.079,10.079,10.079
			c5.566,0,10.079-4.512,10.079-10.079v-5.892C379.969,247.487,375.456,242.975,369.89,242.975z"/>
	</g>
</g>
<g>
	<g>
		<path d="M369.89,205.102c-5.567,0-10.079,4.512-10.079,10.079v2.52c0,5.566,4.512,10.079,10.079,10.079
			c5.566,0,10.079-4.512,10.079-10.079v-2.52C379.969,209.615,375.456,205.102,369.89,205.102z"/>
	</g>
</g>
<g>
	<g>
		<path d="M376.438,168.545c-2.934-4.731-9.149-6.187-13.877-3.252l-75.688,46.946l-72.185-22.795
			c-2.838-0.897-5.926-0.493-8.439,1.103l-74.583,47.37c-4.699,2.984-6.089,9.213-3.104,13.912c1.922,3.025,5.185,4.678,8.519,4.678
			c1.847,0,3.719-0.508,5.394-1.572l70.62-44.853l72.122,22.775c2.8,0.885,5.85,0.503,8.347-1.046l79.622-49.386
			C377.915,179.488,379.372,173.275,376.438,168.545z"/>
	</g>
</g>
<g>
</g>
<g>
</g>
<g>
</g>
<g>
</g>
<g>
</g>
<g>
</g>
<g>
</g>
<g>
</g>
<g>
</g>
<g>
</g>
<g>
</g>
<g>
</g>
<g>
</g>
<g>
</g>
<g>
</g>
</svg>
