<?xml version="1.0" encoding="iso-8859-1"?>
<!-- Generator: Adobe Illustrator 19.0.0, SVG Export Plug-In . SVG Version: 6.00 Build 0)  -->
<svg version="1.1" id="Layer_1" xmlns="http://www.w3.org/2000/svg" xmlns:xlink="http://www.w3.org/1999/xlink" x="0px" y="0px"
	 viewBox="0 0 512 512" style="enable-background:new 0 0 512 512;" xml:space="preserve">
<g>
	<g>
		<path d="M501.801,144.293H273.028c-4.515-17.006-20.037-29.578-38.446-29.578h-45.504c-18.409,0-33.93,12.572-38.446,29.578
			H10.199C4.566,144.293,0,148.86,0,154.492s4.566,10.199,10.199,10.199h140.433c4.515,17.006,20.037,29.578,38.446,29.578h45.504
			c18.409,0,33.93-12.572,38.446-29.578h228.773c5.632,0,10.199-4.567,10.199-10.199S507.433,144.293,501.801,144.293z
			 M234.582,173.871h-45.504c-10.686,0-19.378-8.693-19.378-19.378s8.693-19.378,19.378-19.378h45.504
			c10.686,0,19.378,8.693,19.378,19.378S245.267,173.871,234.582,173.871z"/>
	</g>
</g>
<g>
	<g>
		<path d="M231.169,144.293h-38.678c-5.633,0-10.199,4.567-10.199,10.199s4.566,10.199,10.199,10.199h38.678
			c5.633,0,10.199-4.567,10.199-10.199S236.802,144.293,231.169,144.293z"/>
	</g>
</g>
<g>
	<g>
		<path d="M501.801,245.316H346.462c-4.515-17.006-20.037-29.578-38.446-29.578h-45.504c-18.409,0-33.93,12.572-38.446,29.578
			H10.199C4.566,245.316,0,249.884,0,255.516c0,5.632,4.566,10.199,10.199,10.199h213.867c4.515,17.006,20.037,29.578,38.446,29.578
			h45.504c18.409,0,33.93-12.572,38.446-29.578h155.339c5.632,0,10.199-4.567,10.199-10.199
			C512,249.884,507.433,245.316,501.801,245.316z M308.016,274.894h-45.504c-10.686,0-19.378-8.693-19.378-19.378
			c0-10.686,8.693-19.379,19.378-19.379h45.504c10.686,0,19.378,8.693,19.378,19.379S318.702,274.894,308.016,274.894z"/>
	</g>
</g>
<g>
	<g>
		<path d="M304.603,245.316h-38.679c-5.632,0-10.199,4.567-10.199,10.199c0,5.632,4.567,10.199,10.199,10.199h38.68
			c5.632,0,10.199-4.567,10.199-10.199C314.802,249.884,310.236,245.316,304.603,245.316z"/>
	</g>
</g>
<g>
	<g>
		<path d="M501.801,347.308h-9.179c-5.632,0-10.199,4.567-10.199,10.199s4.567,10.199,10.199,10.199h9.179
			c5.632,0,10.199-4.567,10.199-10.199S507.433,347.308,501.801,347.308z"/>
	</g>
</g>
<g>
	<g>
		<path d="M451.825,347.308H194.494c-4.515-17.006-20.037-29.578-38.446-29.578h-45.504c-18.409,0-33.93,12.572-38.446,29.578
			H10.199C4.566,347.308,0,351.876,0,357.508s4.566,10.199,10.199,10.199h61.899c4.515,17.006,20.037,29.578,38.446,29.578h45.504
			c18.409,0,33.93-12.572,38.446-29.578h257.331c5.632,0,10.199-4.567,10.199-10.199S457.457,347.308,451.825,347.308z
			 M156.048,376.886h-45.504c-10.686,0-19.378-8.693-19.378-19.378c0-10.686,8.693-19.378,19.378-19.378h45.504
			c10.686,0,19.379,8.693,19.379,19.378C175.426,368.193,166.734,376.886,156.048,376.886z"/>
	</g>
</g>
<g>
	<g>
		<path d="M152.635,347.308h-38.678c-5.633,0-10.199,4.567-10.199,10.199s4.566,10.199,10.199,10.199h38.678
			c5.633,0,10.199-4.567,10.199-10.199S158.268,347.308,152.635,347.308z"/>
	</g>
</g>
<g>
</g>
<g>
</g>
<g>
</g>
<g>
</g>
<g>
</g>
<g>
</g>
<g>
</g>
<g>
</g>
<g>
</g>
<g>
</g>
<g>
</g>
<g>
</g>
<g>
</g>
<g>
</g>
<g>
</g>
</svg>
