<?xml version="1.0" encoding="iso-8859-1"?>
<!-- Generator: Adobe Illustrator 19.0.0, SVG Export Plug-In . SVG Version: 6.00 Build 0)  -->
<svg version="1.1" id="Layer_1" xmlns="http://www.w3.org/2000/svg" xmlns:xlink="http://www.w3.org/1999/xlink" x="0px" y="0px"
	 viewBox="0 0 512 512" style="enable-background:new 0 0 512 512;" xml:space="preserve">
<g>
	<g>
		<path d="M431.279,0H80.721c-5.633,0-10.199,4.566-10.199,10.199v491.602c0,5.633,4.566,10.199,10.199,10.199h266.562
			c2.705,0,5.299-1.075,7.212-2.987l83.997-83.998c1.912-1.912,2.987-4.506,2.987-7.212V10.199C441.479,4.566,436.912,0,431.279,0z
			 M357.463,477.197l-0.044-49.258l49.257,0.045L357.463,477.197z M421.081,407.599l-73.862-0.067c-0.003,0-0.006,0-0.009,0
			c-2.705,0-5.299,1.075-7.212,2.987c-1.915,1.915-2.99,4.513-2.987,7.222l0.066,73.861H90.92V20.398h330.161V407.599z"/>
	</g>
</g>
<g>
	<g>
		<path d="M309.539,42.889h-69.322c-5.633,0-10.199,4.566-10.199,10.199c0,5.633,4.566,10.199,10.199,10.199h69.322
			c5.633,0,10.199-4.566,10.199-10.199C319.738,47.455,315.172,42.889,309.539,42.889z"/>
	</g>
</g>
<g>
	<g>
		<path d="M390.63,79.554H240.217c-5.633,0-10.199,4.566-10.199,10.199s4.566,10.199,10.199,10.199H390.63
			c5.633,0,10.199-4.566,10.199-10.199S396.263,79.554,390.63,79.554z"/>
	</g>
</g>
<g>
	<g>
		<path d="M390.63,116.271H240.217c-5.633,0-10.199,4.566-10.199,10.199c0,5.633,4.566,10.199,10.199,10.199H390.63
			c5.633,0,10.199-4.566,10.199-10.199C400.829,120.837,396.263,116.271,390.63,116.271z"/>
	</g>
</g>
<g>
	<g>
		<path d="M201.944,39.777H122.39c-5.633,0-10.199,4.566-10.199,10.199v79.554c0,5.633,4.566,10.199,10.199,10.199h79.554
			c5.633,0,10.199-4.566,10.199-10.199V49.976C212.143,44.343,207.577,39.777,201.944,39.777z M191.745,119.331H132.59V60.175
			h59.155V119.331z"/>
	</g>
</g>
<g>
	<g>
		<path d="M177.462,89.434l4.241-4.241c3.983-3.983,3.984-10.441,0-14.424c-3.983-3.984-10.441-3.983-14.424,0l-4.241,4.241
			l-4.241-4.241c-3.983-3.983-10.441-3.983-14.424,0s-3.983,10.441,0,14.424l4.241,4.241l-4.241,4.241
			c-3.983,3.983-3.984,10.441,0,14.424c1.992,1.992,4.602,2.987,7.212,2.987c2.61,0,5.221-0.996,7.212-2.987l4.241-4.241
			l4.241,4.241c1.992,1.992,4.602,2.987,7.212,2.987s5.221-0.996,7.212-2.987c3.983-3.983,3.983-10.441,0-14.424L177.462,89.434z"/>
	</g>
</g>
<g>
	<g>
		<path d="M309.539,170.379h-69.322c-5.633,0-10.199,4.566-10.199,10.199c0,5.633,4.566,10.199,10.199,10.199h69.322
			c5.633,0,10.199-4.566,10.199-10.199C319.738,174.945,315.172,170.379,309.539,170.379z"/>
	</g>
</g>
<g>
	<g>
		<path d="M390.63,207.044H240.217c-5.633,0-10.199,4.566-10.199,10.199s4.566,10.199,10.199,10.199H390.63
			c5.633,0,10.199-4.566,10.199-10.199S396.263,207.044,390.63,207.044z"/>
	</g>
</g>
<g>
	<g>
		<path d="M390.63,243.761H240.217c-5.633,0-10.199,4.566-10.199,10.199c0,5.633,4.566,10.199,10.199,10.199H390.63
			c5.633,0,10.199-4.566,10.199-10.199C400.829,248.327,396.263,243.761,390.63,243.761z"/>
	</g>
</g>
<g>
	<g>
		<path d="M201.944,167.267H122.39c-5.633,0-10.199,4.566-10.199,10.199v79.554c0,5.633,4.566,10.199,10.199,10.199h79.554
			c5.633,0,10.199-4.566,10.199-10.199v-79.554C212.143,171.833,207.577,167.267,201.944,167.267z M191.745,246.821H132.59v-59.155
			h59.155V246.821z"/>
	</g>
</g>
<g>
	<g>
		<path d="M348.297,296.849h-3.577c-5.633,0-10.199,4.566-10.199,10.199s4.566,10.199,10.199,10.199h3.577
			c5.633,0,10.199-4.566,10.199-10.199S353.93,296.849,348.297,296.849z"/>
	</g>
</g>
<g>
	<g>
		<path d="M309.539,296.849h-69.322c-5.633,0-10.199,4.566-10.199,10.199s4.566,10.199,10.199,10.199h69.322
			c5.633,0,10.199-4.566,10.199-10.199S315.172,296.849,309.539,296.849z"/>
	</g>
</g>
<g>
	<g>
		<path d="M390.63,333.514H240.217c-5.633,0-10.199,4.566-10.199,10.199c0,5.633,4.566,10.199,10.199,10.199H390.63
			c5.633,0,10.199-4.566,10.199-10.199C400.829,338.08,396.263,333.514,390.63,333.514z"/>
	</g>
</g>
<g>
	<g>
		<path d="M390.63,370.231H240.217c-5.633,0-10.199,4.566-10.199,10.199c0,5.633,4.566,10.199,10.199,10.199H390.63
			c5.633,0,10.199-4.566,10.199-10.199C400.829,374.797,396.263,370.231,390.63,370.231z"/>
	</g>
</g>
<g>
	<g>
		<path d="M201.944,293.737H122.39c-5.633,0-10.199,4.566-10.199,10.199v79.554c0,5.633,4.566,10.199,10.199,10.199h79.554
			c5.633,0,10.199-4.566,10.199-10.199v-79.554C212.143,298.303,207.577,293.737,201.944,293.737z M191.745,373.291H132.59v-59.155
			h59.155V373.291z"/>
	</g>
</g>
<g>
</g>
<g>
</g>
<g>
</g>
<g>
</g>
<g>
</g>
<g>
</g>
<g>
</g>
<g>
</g>
<g>
</g>
<g>
</g>
<g>
</g>
<g>
</g>
<g>
</g>
<g>
</g>
<g>
</g>
</svg>
