<?xml version="1.0" encoding="iso-8859-1"?>
<!-- Generator: Adobe Illustrator 19.0.0, SVG Export Plug-In . SVG Version: 6.00 Build 0)  -->
<svg version="1.1" id="Layer_1" xmlns="http://www.w3.org/2000/svg" xmlns:xlink="http://www.w3.org/1999/xlink" x="0px" y="0px"
	 viewBox="0 0 512.001 512.001" style="enable-background:new 0 0 512.001 512.001;" xml:space="preserve">
<g>
	<g>
		<path d="M157.52,11.328C150.774,4.13,141.247,0,131.381,0h-23.583C97.933,0,88.406,4.13,81.66,11.328
			c-6.745,7.201-10.245,16.976-9.604,26.821l1.049,16.071l2.447,37.53c0.986,15.114,9.499,28.496,22.77,35.796
			c6.659,3.664,13.962,5.494,21.268,5.494c7.304,0,14.609-1.832,21.267-5.493c13.272-7.3,21.784-20.681,22.771-35.797l2.797-42.887
			l0.699-10.714C167.765,28.304,164.264,18.528,157.52,11.328z M92.412,36.821c-0.28-4.3,1.187-8.401,4.134-11.545
			c2.947-3.145,6.943-4.877,11.253-4.877h16.275l-2.911,7.763c-1.469,2.092-8.673,10.831-28.395,14.121L92.412,36.821z
			 M143.271,90.423c-0.529,8.128-5.108,15.324-12.245,19.25c-7.162,3.938-15.713,3.938-22.874,0
			c-7.137-3.927-11.715-11.122-12.245-19.25L94.1,62.704c16.773-2.455,27.814-8.199,34.787-13.621
			c1.247,0.868,2.621,1.689,4.119,2.463c2.907,1.502,7.035,2.986,12.507,4.492L143.271,90.423z M142.371,33.423
			c-0.455-0.235-0.827-0.449-1.155-0.647l2.385-6.359c1.953,2.525,3.056,5.539,3.187,8.722
			C144.273,34.321,142.975,33.736,142.371,33.423z"/>
	</g>
</g>
<g>
	<g>
		<path d="M226.973,214.855l-3.905-21.56c0,0,0,0,0-0.001c-4.852-26.779-26.068-48.152-52.791-53.184
			c-4.033-0.76-8.159-1.145-12.266-1.145h-11.763c-2.705,0-5.299,1.075-7.212,2.987l-19.447,19.447l-19.447-19.447
			c-1.912-1.912-4.507-2.987-7.212-2.987H81.168c-4.106,0-8.233,0.386-12.264,1.145c-26.725,5.032-47.94,26.405-52.792,53.185
			l-3.906,21.56c-0.539,2.974,0.269,6.035,2.208,8.355c1.938,2.319,4.805,3.661,7.828,3.661h194.695
			c3.023-0.001,5.891-1.341,7.828-3.661C226.703,220.89,227.512,217.829,226.973,214.855z M34.455,206.473l1.729-9.542
			c3.354-18.517,18.021-33.296,36.497-36.774c2.791-0.526,5.646-0.792,8.488-0.792h7.538l23.671,23.672
			c3.983,3.982,10.441,3.982,14.425,0l23.671-23.672h7.538c2.841,0,5.696,0.267,8.49,0.792c18.474,3.478,33.14,18.257,36.495,36.774
			l1.729,9.542H34.455z"/>
	</g>
</g>
<g>
	<g>
		<path d="M430.341,296.457c-6.747-7.2-16.274-11.328-26.139-11.328h-23.583c-9.866,0-19.393,4.13-26.138,11.328
			c-6.745,7.201-10.245,16.976-9.604,26.82l1.047,16.072l2.448,37.53c0.986,15.115,9.498,28.498,22.771,35.798
			c6.658,3.662,13.963,5.492,21.267,5.492c7.305,0,14.609-1.831,21.268-5.493c13.272-7.3,21.783-20.681,22.77-35.797l2.797-42.887
			l0.699-10.714C440.586,313.433,437.086,303.658,430.341,296.457z M365.233,321.95c-0.281-4.301,1.188-8.401,4.135-11.545
			c2.947-3.145,6.943-4.877,11.252-4.877h16.275l-2.911,7.763c-1.469,2.092-8.673,10.831-28.395,14.122L365.233,321.95z
			 M416.091,375.552c-0.528,8.129-5.106,15.324-12.243,19.25c-7.162,3.939-15.714,3.938-22.875,0
			c-7.137-3.926-11.715-11.121-12.245-19.25l-1.808-27.718c16.772-2.456,27.814-8.2,34.786-13.621
			c1.248,0.868,2.622,1.689,4.122,2.464c2.907,1.501,7.035,2.985,12.505,4.49L416.091,375.552z M415.192,318.552
			c-0.455-0.235-0.827-0.449-1.155-0.647l2.385-6.359c1.953,2.524,3.057,5.538,3.187,8.722
			C417.094,319.449,415.795,318.864,415.192,318.552z"/>
	</g>
</g>
<g>
	<g>
		<path d="M499.795,499.982l-3.906-21.559v0.001c-4.851-26.779-26.067-48.152-52.793-53.185c-4.037-0.76-8.163-1.145-12.263-1.145
			h-11.762c-2.705,0-5.299,1.075-7.212,2.987l-19.448,19.447l-19.447-19.447c-1.912-1.912-4.507-2.987-7.212-2.987H353.99
			c-4.1,0-8.226,0.386-12.265,1.145c-26.725,5.033-47.94,26.407-52.792,53.185l-3.906,21.559c-0.539,2.975,0.269,6.036,2.208,8.356
			c1.938,2.319,4.805,3.661,7.828,3.661h194.696c3.023,0,5.89-1.341,7.828-3.661C499.525,506.018,500.333,502.957,499.795,499.982z
			 M307.275,491.602l1.729-9.541c3.354-18.517,18.021-33.296,36.494-36.775c2.798-0.526,5.653-0.792,8.491-0.792h7.538
			l23.671,23.672c1.912,1.912,4.507,2.987,7.212,2.987s5.299-1.075,7.212-2.987l23.672-23.672h7.537c2.837,0,5.694,0.267,8.49,0.792
			c18.474,3.479,33.14,18.258,36.495,36.775c0,0,0,0,0,0.001l1.729,9.54H307.275z"/>
	</g>
</g>
<g>
	<g>
		<path d="M462.751,254.462c-0.286-5.626-5.093-9.97-10.704-9.668c-5.626,0.287-9.954,5.079-9.668,10.705
			c0.17,3.339,0.256,6.734,0.256,10.086c0,5.632,4.566,10.199,10.199,10.199c5.633,0,10.199-4.567,10.199-10.199
			C463.034,261.888,462.939,258.146,462.751,254.462z"/>
	</g>
</g>
<g>
	<g>
		<path d="M453.154,200.92c-13.448-42.765-40.746-81.147-76.867-108.075c-33.7-25.123-73.165-39.562-114.87-42.157l6.034-6.034
			c3.983-3.983,3.983-10.441,0-14.425c-3.983-3.982-10.441-3.982-14.425,0l-23.815,23.815c-3.983,3.983-3.983,10.441,0,14.425
			l23.815,23.815c1.992,1.991,4.602,2.987,7.212,2.987c2.61,0,5.221-0.996,7.212-2.987c3.983-3.983,3.983-10.441,0-14.425
			l-6.772-6.775c80.098,5.223,148.671,58.529,173.017,135.955c1.37,4.356,5.391,7.143,9.727,7.143c1.014,0,2.044-0.152,3.062-0.473
			C451.857,212.02,454.844,206.293,453.154,200.92z"/>
	</g>
</g>
<g>
	<g>
		<path d="M261.295,461.675l-23.813-23.815c-3.983-3.982-10.441-3.982-14.425,0c-3.983,3.983-3.983,10.441,0,14.425l7.464,7.464
			c-99.465-8.731-177.746-92.47-177.746-194.163c0-5.632-4.566-10.199-10.199-10.199c-5.633,0-10.199,4.567-10.199,10.199
			c0,112.259,86.355,204.712,196.122,214.462l-5.443,5.443c-3.983,3.983-3.983,10.441,0,14.425c1.992,1.991,4.602,2.987,7.212,2.987
			s5.221-0.996,7.212-2.987l23.815-23.815C265.278,472.117,265.278,465.659,261.295,461.675z"/>
	</g>
</g>
<g>
</g>
<g>
</g>
<g>
</g>
<g>
</g>
<g>
</g>
<g>
</g>
<g>
</g>
<g>
</g>
<g>
</g>
<g>
</g>
<g>
</g>
<g>
</g>
<g>
</g>
<g>
</g>
<g>
</g>
</svg>
