<?xml version="1.0" encoding="iso-8859-1"?>
<!-- Generator: Adobe Illustrator 19.0.0, SVG Export Plug-In . SVG Version: 6.00 Build 0)  -->
<svg version="1.1" id="Layer_1" xmlns="http://www.w3.org/2000/svg" xmlns:xlink="http://www.w3.org/1999/xlink" x="0px" y="0px"
	 viewBox="0 0 512.001 512.001" style="enable-background:new 0 0 512.001 512.001;" xml:space="preserve">
<g>
	<g>
		<path d="M306.982,14.866C298.13,5.419,285.628,0,272.68,0H238.8c-12.946,0-25.448,5.419-34.3,14.866
			c-8.853,9.449-13.446,22.276-12.602,35.195l1.506,23.089l3.516,53.916c1.316,20.189,12.686,38.063,30.413,47.815
			c8.894,4.891,18.65,7.336,28.407,7.336c9.757,0,19.514-2.446,28.409-7.337c17.728-9.75,29.097-27.625,30.413-47.814l4.018-61.611
			l1.004-15.393C320.425,37.143,315.833,24.315,306.982,14.866z M213.079,61.393l-0.826-12.658
			c-0.483-7.42,2.05-14.496,7.134-19.922c5.083-5.426,11.979-8.414,19.414-8.414h29.806l-6.643,17.715
			C260.303,40.659,248.383,56.885,213.079,61.393z M294.207,125.74c-0.861,13.202-8.296,24.89-19.888,31.267
			c-11.635,6.398-25.525,6.397-37.155,0.001c-11.593-6.378-19.029-18.066-19.889-31.268l-2.867-43.969
			c27.76-3.328,44.752-13.139,54.496-21.458c2.266,1.912,4.988,3.691,8.156,5.329c4.5,2.325,11.291,4.648,20.607,7.047
			L294.207,125.74z M299.229,48.735l-0.209,3.202c-7.384-2.056-10.954-3.568-12.595-4.415c-2.781-1.437-4.23-2.605-4.957-3.324
			l6.983-18.624c1.293,0.959,2.515,2.036,3.644,3.24C297.179,34.24,299.713,41.315,299.229,48.735z"/>
	</g>
</g>
<g>
	<g>
		<path d="M405.628,292.689l-5.612-30.971c-6.643-36.668-35.691-65.934-72.284-72.823c-5.526-1.041-11.176-1.569-16.795-1.569
			h-22.897c-2.711,0-5.31,1.08-7.224,2.999l-25.152,25.237l-25.774-25.313c-1.907-1.873-4.473-2.922-7.147-2.922h-22.2
			c-5.62,0-11.271,0.528-16.796,1.569c-0.001,0-0.003,0.001-0.004,0.001c-36.59,6.893-65.637,36.156-72.28,72.822l-5.611,30.972
			c-0.539,2.974,0.27,6.035,2.207,8.355c1.939,2.319,4.806,3.661,7.829,3.661h279.703c3.023,0,5.89-1.341,7.829-3.661
			C405.358,298.724,406.167,295.664,405.628,292.689z M218.573,207.723l30.022,29.485c3.998,3.926,10.414,3.891,14.371-0.076
			l29.31-29.408h10.339l-46.873,46.874l-46.874-46.874H218.573z M128.103,284.308l3.433-18.954
			c4.832-26.673,24.967-48.289,50.867-55.246l66.126,66.126c1.992,1.991,4.602,2.987,7.212,2.987c2.61,0,5.22-0.996,7.212-2.987
			l66.125-66.126c25.902,6.957,46.035,28.573,50.867,55.245c0,0,0,0,0,0.001l3.434,18.954H128.103z"/>
	</g>
</g>
<g>
	<g>
		<path d="M297.2,349.605h-6.219c-5.632,0-10.199,4.567-10.199,10.199s4.567,10.199,10.199,10.199h6.218
			c5.632,0,10.199-4.567,10.199-10.199S302.832,349.605,297.2,349.605z"/>
	</g>
</g>
<g>
	<g>
		<path d="M265.94,437.027V333.892c0-5.632-4.567-10.199-10.199-10.199c-5.632,0-10.199,4.567-10.199,10.199v15.713H93.793
			c-25.77,0-46.735,20.966-46.735,46.734v40.687c-16.117,4.473-27.985,19.266-27.985,36.79C19.073,494.87,36.202,512,57.257,512
			s38.184-17.13,38.184-38.184c0-17.522-11.868-32.315-27.985-36.789V396.34c0-14.522,11.815-26.335,26.336-26.335h151.749v67.023
			c-16.117,4.473-27.985,19.266-27.985,36.79c0,21.055,17.13,38.184,38.184,38.184c21.054,0,38.184-17.13,38.184-38.184
			C293.925,456.293,282.057,441.5,265.94,437.027z M75.042,473.816c0,9.807-7.978,17.785-17.785,17.785s-17.785-7.979-17.785-17.785
			c0-9.807,7.979-17.785,17.785-17.785S75.042,464.009,75.042,473.816z M255.741,491.602c-9.807,0-17.785-7.979-17.785-17.785
			c0-9.807,7.979-17.785,17.785-17.785c9.807,0,17.785,7.978,17.785,17.785C273.526,483.624,265.548,491.602,255.741,491.602z"/>
	</g>
</g>
<g>
	<g>
		<path d="M464.425,436.879v-40.54c0-25.769-20.965-46.734-46.735-46.734h-84.213c-5.632,0-10.199,4.567-10.199,10.199
			c0,5.632,4.567,10.199,10.199,10.199h84.213c14.522,0,26.336,11.814,26.336,26.335v40.835
			c-15.853,4.645-27.466,19.307-27.466,36.642c0,21.055,17.129,38.184,38.184,38.184c21.055,0,38.184-17.13,38.184-38.184
			C492.928,456.105,480.806,441.176,464.425,436.879z M454.743,491.602c-9.807,0-17.785-7.979-17.785-17.785
			c0-9.807,7.978-17.785,17.785-17.785s17.785,7.978,17.785,17.785C472.528,483.624,464.55,491.602,454.743,491.602z"/>
	</g>
</g>
<g>
</g>
<g>
</g>
<g>
</g>
<g>
</g>
<g>
</g>
<g>
</g>
<g>
</g>
<g>
</g>
<g>
</g>
<g>
</g>
<g>
</g>
<g>
</g>
<g>
</g>
<g>
</g>
<g>
</g>
</svg>
