<?xml version="1.0" encoding="iso-8859-1"?>
<!-- Generator: Adobe Illustrator 19.0.0, SVG Export Plug-In . SVG Version: 6.00 Build 0)  -->
<svg version="1.1" id="Layer_1" xmlns="http://www.w3.org/2000/svg" xmlns:xlink="http://www.w3.org/1999/xlink" x="0px" y="0px"
	 viewBox="0 0 512 512" style="enable-background:new 0 0 512 512;" xml:space="preserve">
<g>
	<g>
		<path d="M412.131,0H99.869C78.901,0,61.844,17.058,61.844,38.025v435.951c0,20.966,17.057,38.025,38.025,38.025h312.263
			c20.968,0,38.025-17.058,38.025-38.025V38.025C450.156,17.058,433.099,0,412.131,0z M311.082,20.398h47.93v56.838L342.69,61.252
			c-3.926-3.843-10.186-3.888-14.164-0.106l-17.445,16.585V20.398z M429.758,473.975c0,9.719-7.907,17.626-17.626,17.626H99.869
			c-9.719,0-17.626-7.907-17.626-17.626V38.025c0-9.719,7.907-17.626,17.626-17.626h190.815v81.101c0,4.079,2.429,7.765,6.178,9.372
			c3.748,1.608,8.094,0.829,11.049-1.98l27.54-26.18l26.625,26.074c1.945,1.904,4.521,2.912,7.138,2.912
			c1.332,0,2.674-0.261,3.95-0.797c3.785-1.592,6.247-5.296,6.247-9.403v-81.1h32.721c9.719,0,17.626,7.907,17.626,17.626V473.975z"
			/>
	</g>
</g>
<g>
	<g>
		<path d="M107.092,142.993c-5.632,0-10.199,4.567-10.199,10.199v313.116c0,5.632,4.567,10.199,10.199,10.199
			c5.632,0,10.199-4.567,10.199-10.199V153.192C117.291,147.56,112.724,142.993,107.092,142.993z"/>
	</g>
</g>
<g>
	<g>
		<path d="M107.092,96.076c-5.632,0-10.199,4.567-10.199,10.199v10.199c0,5.632,4.567,10.199,10.199,10.199
			c5.632,0,10.199-4.567,10.199-10.199v-10.199C117.291,100.644,112.724,96.076,107.092,96.076z"/>
	</g>
</g>
<g>
	<g>
		<path d="M320.765,130.754h-129.53c-18.278,0-33.147,14.869-33.147,33.147v31.21c0,18.278,14.869,33.147,33.147,33.147h129.53
			c18.278,0,33.147-14.869,33.147-33.147v-31.21C353.912,145.623,339.043,130.754,320.765,130.754z M333.514,195.111
			c0,7.03-5.719,12.749-12.749,12.749h-129.53c-7.03,0-12.749-5.719-12.749-12.749v-31.21c0-7.03,5.719-12.749,12.749-12.749h129.53
			c7.03,0,12.749,5.719,12.749,12.749V195.111z"/>
	</g>
</g>
<g>
	<g>
		<path d="M306.996,169.511H205.004c-5.632,0-10.199,4.567-10.199,10.199s4.567,10.199,10.199,10.199h101.992
			c5.632,0,10.199-4.567,10.199-10.199S312.628,169.511,306.996,169.511z"/>
	</g>
</g>
<g>
</g>
<g>
</g>
<g>
</g>
<g>
</g>
<g>
</g>
<g>
</g>
<g>
</g>
<g>
</g>
<g>
</g>
<g>
</g>
<g>
</g>
<g>
</g>
<g>
</g>
<g>
</g>
<g>
</g>
</svg>
