<?xml version="1.0" encoding="iso-8859-1"?>
<!-- Generator: Adobe Illustrator 19.0.0, SVG Export Plug-In . SVG Version: 6.00 Build 0)  -->
<svg version="1.1" id="Layer_1" xmlns="http://www.w3.org/2000/svg" xmlns:xlink="http://www.w3.org/1999/xlink" x="0px" y="0px"
	 viewBox="0 0 512 512" style="enable-background:new 0 0 512 512;" xml:space="preserve">
<g>
	<g>
		<path d="M412.009,65.683C370.22,23.895,314.66,0.882,255.561,0.882c-59.097,0-114.658,23.013-156.448,64.802
			c-1.912,1.912-2.987,4.507-2.987,7.212s1.075,5.298,2.987,7.212l149.237,149.236c1.912,1.912,4.507,2.987,7.212,2.987
			c2.705,0,5.299-1.075,7.212-2.987L412.009,80.107c1.912-1.913,2.987-4.507,2.987-7.212S413.921,67.597,412.009,65.683z
			 M255.562,207.706L120.929,73.074c36.977-33.479,84.396-51.795,134.634-51.795c50.237,0,97.655,18.316,134.633,51.795
			L255.562,207.706z"/>
	</g>
</g>
<g>
	<g>
		<path d="M228.462,248.788L79.226,99.551c-1.912-1.912-4.507-2.987-7.212-2.987s-5.299,1.075-7.212,2.987
			C23.013,141.34,0,196.902,0,256s23.013,114.659,64.803,156.448c1.912,1.912,4.507,2.987,7.212,2.987s5.299-1.074,7.212-2.986
			l149.236-149.236C232.445,259.229,232.445,252.77,228.462,248.788z M72.193,390.633C38.714,353.656,20.398,306.237,20.398,256
			s18.316-97.656,51.795-134.634L206.827,256L72.193,390.633z"/>
	</g>
</g>
<g>
	<g>
		<path d="M412.01,431.892L262.774,282.656c-1.912-1.912-4.507-2.987-7.212-2.987c-2.705,0-5.299,1.075-7.212,2.987L99.115,431.893
			c-1.912,1.913-2.987,4.507-2.987,7.212s1.075,5.3,2.987,7.212c41.789,41.788,97.35,64.802,156.448,64.802
			c59.098,0,114.658-23.014,156.448-64.803c1.912-1.913,2.987-4.507,2.987-7.212S413.922,433.805,412.01,431.892z M255.562,490.72
			c-50.237,0-97.656-18.316-134.634-51.795l134.634-134.633l134.633,134.633C353.219,472.404,305.8,490.72,255.562,490.72z"/>
	</g>
</g>
<g>
	<g>
		<path d="M447.197,99.551c-1.912-1.912-4.507-2.987-7.212-2.987s-5.3,1.075-7.212,2.987L283.538,248.787
			c-3.983,3.984-3.983,10.442,0,14.425l149.236,149.236c1.912,1.912,4.507,2.987,7.212,2.987s5.299-1.074,7.212-2.986
			C488.987,370.659,512,315.097,512,256S488.987,141.34,447.197,99.551z M439.807,390.633L305.173,256l134.634-134.634
			c33.479,36.977,51.795,84.396,51.795,134.634C491.602,306.237,473.286,353.656,439.807,390.633z"/>
	</g>
</g>
<g>
	<g>
		<path d="M411.101,312.022l-2.039-2.039c-3.984-3.982-10.442-3.982-14.425,0c-3.983,3.984-3.983,10.442,0,14.425l2.039,2.039
			c1.991,1.991,4.602,2.987,7.212,2.987c2.61,0,5.221-0.996,7.213-2.987C415.084,322.463,415.084,316.005,411.101,312.022z"/>
	</g>
</g>
<g>
	<g>
		<path d="M385.602,286.523l-36.717-36.716c-3.983-3.982-10.441-3.982-14.424,0c-3.984,3.984-3.983,10.442,0,14.425l36.717,36.716
			c1.992,1.991,4.602,2.987,7.212,2.987s5.22-0.996,7.212-2.987C389.586,296.964,389.585,290.505,385.602,286.523z"/>
	</g>
</g>
<g>
</g>
<g>
</g>
<g>
</g>
<g>
</g>
<g>
</g>
<g>
</g>
<g>
</g>
<g>
</g>
<g>
</g>
<g>
</g>
<g>
</g>
<g>
</g>
<g>
</g>
<g>
</g>
<g>
</g>
</svg>
