<?xml version="1.0" encoding="iso-8859-1"?>
<!-- Generator: Adobe Illustrator 19.0.0, SVG Export Plug-In . SVG Version: 6.00 Build 0)  -->
<svg version="1.1" id="Layer_1" xmlns="http://www.w3.org/2000/svg" xmlns:xlink="http://www.w3.org/1999/xlink" x="0px" y="0px"
	 viewBox="0 0 512 512" style="enable-background:new 0 0 512 512;" xml:space="preserve">
<g>
	<g>
		<path d="M437.019,74.982C388.667,26.628,324.381,0,256,0S123.333,26.628,74.982,74.982C26.628,123.333,0,187.619,0,256
			c0,45.004,11.852,89.274,34.273,128.024c22.107,38.207,53.893,70.251,91.922,92.667C165.381,499.791,210.268,512,256,512
			s90.619-12.209,129.805-35.308c38.03-22.417,69.816-54.46,91.922-92.667C500.149,345.274,512,301.004,512,256
			C512,187.619,485.372,123.333,437.019,74.982z M20.398,256c0-126.494,100.204-230.024,225.402-235.383v229.495L47.019,364.878
			C29.576,331.428,20.398,294.001,20.398,256z M256,491.602c-80.429,0-155.664-41.538-198.766-109.067l189.068-109.159l9.697-5.599
			l9.697,5.599l189.068,109.159C411.664,450.063,336.429,491.602,256,491.602z M464.981,364.878L266.199,250.112V20.617
			C391.397,25.976,491.602,129.506,491.602,256C491.602,294.001,482.424,331.428,464.981,364.878z"/>
	</g>
</g>
<g>
	<g>
		<path d="M412.076,292.06l-3.512-2.043c-4.869-2.833-11.113-1.18-13.944,3.687c-2.832,4.87-1.181,11.113,3.687,13.945l3.512,2.043
			c1.614,0.939,3.378,1.385,5.119,1.385c3.514,0,6.932-1.818,8.825-5.073C418.596,301.136,416.944,294.892,412.076,292.06z"/>
	</g>
</g>
<g>
	<g>
		<path d="M380.459,273.664l-80.572-46.879c-4.871-2.834-11.113-1.181-13.945,3.686c-2.833,4.87-1.183,11.113,3.686,13.946
			l80.572,46.879c1.615,0.939,3.379,1.385,5.12,1.385c3.513,0,6.932-1.817,8.825-5.072
			C386.977,282.74,385.327,276.496,380.459,273.664z"/>
	</g>
</g>
<g>
</g>
<g>
</g>
<g>
</g>
<g>
</g>
<g>
</g>
<g>
</g>
<g>
</g>
<g>
</g>
<g>
</g>
<g>
</g>
<g>
</g>
<g>
</g>
<g>
</g>
<g>
</g>
<g>
</g>
</svg>
