<?xml version="1.0" encoding="iso-8859-1"?>
<!-- Generator: Adobe Illustrator 19.0.0, SVG Export Plug-In . SVG Version: 6.00 Build 0)  -->
<svg version="1.1" id="Layer_1" xmlns="http://www.w3.org/2000/svg" xmlns:xlink="http://www.w3.org/1999/xlink" x="0px" y="0px"
	 viewBox="0 0 511.998 511.998" style="enable-background:new 0 0 511.998 511.998;" xml:space="preserve">
<g>
	<g>
		<path d="M483.8,143.359h-15.217c-6.441,0-12.383,2.169-17.136,5.817c-15.275-29.665-39.716-55.962-70.47-75.453
			C342.515,49.349,296.7,36.465,248.485,36.465c-58.755,0-114.071,19.263-155.758,54.241C80.295,101.137,69.524,112.6,60.492,124.86
			c-22.379-1.625-40.094-20.337-40.094-43.121c0-5.632-4.566-10.199-10.199-10.199C4.566,71.539,0,76.106,0,81.738
			c0,29.848,20.657,54.95,48.423,61.793c-13.841,24.725-21.143,51.96-21.143,80.176c0,54.823,27.93,106.266,76.831,141.911v72.806
			c0,20.463,16.646,37.109,37.108,37.109h35.261c20.462,0,37.108-16.646,37.108-37.109v-29.802
			c22.324,2.997,45.273,3.086,67.567,0.297v29.505c0,20.463,16.647,37.109,37.109,37.109h35.26
			c20.462,0,37.108-16.646,37.108-37.109v-71.219c26.552-18.838,47.252-42.337,60.85-68.939c4.747,3.632,10.677,5.791,17.101,5.791
			h15.217c15.55,0,28.2-12.651,28.2-28.201V171.559C512,156.009,499.35,143.359,483.8,143.359z M483.8,283.657h-15.217
			c-4.302,0-7.802-3.5-7.802-7.802v-1.128c0-4.959-3.568-9.201-8.454-10.049c-4.887-0.847-9.675,1.939-11.347,6.609
			c-11.584,32.339-34.491,60.732-66.244,82.11c-2.815,1.895-4.504,5.067-4.504,8.46v76.566c0,9.214-7.496,16.71-16.709,16.71h-35.26
			c-9.214,0-16.71-7.496-16.71-16.71v-41.332c0-3.009-1.329-5.866-3.632-7.802c-1.852-1.559-4.183-2.397-6.567-2.397
			c-0.578,0-1.162,0.049-1.741,0.149c-27.573,4.775-56.738,4.661-84.392-0.39c-2.976-0.546-6.041,0.262-8.364,2.2
			c-2.323,1.937-3.668,4.807-3.668,7.833v41.739c0,9.214-7.496,16.71-16.709,16.71h-35.261c-9.214,0-16.709-7.496-16.709-16.71
			v-78.071c0-3.347-1.642-6.482-4.395-8.387c-46.034-31.858-72.436-78.607-72.436-128.259c0-91.998,90.08-166.845,200.805-166.845
			c88.193,0,167.35,49.045,192.495,119.267c1.672,4.668,6.46,7.453,11.347,6.61c4.886-0.849,8.454-5.089,8.454-10.049v-1.132
			c0-4.302,3.5-7.801,7.802-7.801h15.217c4.302,0,7.801,3.5,7.801,7.801v104.297h0.002
			C491.602,280.158,488.101,283.657,483.8,283.657z"/>
	</g>
</g>
<g>
	<g>
		<path d="M266.982,72.017c-4.733-0.318-9.556-0.478-14.334-0.478c-31.157,0-61.851,6.861-88.765,19.841
			c-5.073,2.446-7.203,8.543-4.756,13.617c1.758,3.646,5.401,5.772,9.195,5.771c1.486,0,2.996-0.325,4.423-1.015
			c24.167-11.656,51.797-17.816,79.904-17.816c4.326,0,8.689,0.146,12.969,0.432c5.638,0.369,10.482-3.875,10.858-9.494
			S272.601,72.393,266.982,72.017z"/>
	</g>
</g>
<g>
	<g>
		<path d="M310.313,79.549c-2.303-0.66-4.669-1.294-7.034-1.882c-5.461-1.366-11,1.969-12.359,7.436
			c-1.36,5.466,1.971,11,7.437,12.358c2.13,0.53,4.259,1.099,6.33,1.694c0.94,0.27,1.887,0.399,2.819,0.399
			c4.434,0,8.514-2.914,9.798-7.388C318.857,86.752,315.728,81.103,310.313,79.549z"/>
	</g>
</g>
<g>
	<g>
		<path d="M368.74,123.872c-18.518,0-33.582,15.065-33.582,33.583c0,18.517,15.065,33.582,33.582,33.582
			c18.517,0,33.582-15.065,33.582-33.582C402.322,138.938,387.258,123.872,368.74,123.872z M368.74,170.639
			c-7.269,0-13.183-5.914-13.183-13.183c0-7.27,5.915-13.185,13.183-13.185c7.269,0,13.184,5.915,13.184,13.185
			C381.923,164.724,376.01,170.639,368.74,170.639z"/>
	</g>
</g>
<g>
	<g>
		<path d="M473.107,194.021c-5.633,0-10.199,4.567-10.199,10.199v11.134c0,5.632,4.566,10.199,10.199,10.199
			c5.633,0,10.199-4.567,10.199-10.199v-11.134C483.307,198.589,478.74,194.021,473.107,194.021z"/>
	</g>
</g>
<g>
</g>
<g>
</g>
<g>
</g>
<g>
</g>
<g>
</g>
<g>
</g>
<g>
</g>
<g>
</g>
<g>
</g>
<g>
</g>
<g>
</g>
<g>
</g>
<g>
</g>
<g>
</g>
<g>
</g>
</svg>
