<?xml version="1.0" encoding="iso-8859-1"?>
<!-- Generator: Adobe Illustrator 19.0.0, SVG Export Plug-In . SVG Version: 6.00 Build 0)  -->
<svg version="1.1" id="Layer_1" xmlns="http://www.w3.org/2000/svg" xmlns:xlink="http://www.w3.org/1999/xlink" x="0px" y="0px"
	 viewBox="0 0 512 512" style="enable-background:new 0 0 512 512;" xml:space="preserve">
<g>
	<g>
		<path d="M505.09,137.899L374.107,6.915c-5.343-5.344-12.991-7.816-20.452-6.61c-7.461,1.206-13.94,5.957-17.331,12.713
			l-44.001,87.676L181.341,211.676l-75.406,21.892c-5.057,1.469-8.858,5.391-10.168,10.492c-1.31,5.1,0.132,10.368,3.854,14.091
			l53.285,53.285L2.309,495.334c-3.322,4.056-3.028,9.968,0.678,13.674c1.982,1.981,4.593,2.987,7.214,2.987
			c2.283,0,4.572-0.763,6.46-2.309l183.897-150.599l53.295,53.294c2.819,2.819,6.521,4.329,10.367,4.329
			c1.234,0,2.485-0.155,3.723-0.473c5.102-1.31,9.024-5.111,10.494-10.171l21.891-75.402l110.982-110.984l87.676-44.001
			c6.756-3.39,11.508-9.87,12.713-17.331C512.906,150.888,510.434,143.244,505.09,137.899z M83.006,428.99l84.397-103.058
			l18.661,18.66L83.006,428.99z M261.514,391.195L120.808,250.491l62.945-18.274l96.034,96.034L261.514,391.195z M291.265,310.88
			l-90.139-90.139l99.574-99.573l90.138,90.138L291.265,310.88z M491.563,155.099c-0.098,0.604-0.451,1.712-1.725,2.352
			l-82.569,41.438l-94.151-94.151l41.438-82.569c0.64-1.274,1.748-1.628,2.352-1.725c0.607-0.097,1.768-0.109,2.775,0.898
			l130.983,130.983C491.674,153.331,491.661,154.495,491.563,155.099z"/>
	</g>
</g>
<g>
	<g>
		<path d="M368.054,203.699c-3.984-3.982-10.44-3.982-14.425,0l-42.455,42.454c-3.983,3.983-3.983,10.441,0,14.425
			c1.993,1.992,4.603,2.987,7.213,2.987c2.611,0,5.22-0.996,7.212-2.987l42.455-42.455
			C372.037,214.141,372.037,207.683,368.054,203.699z"/>
	</g>
</g>
<g>
	<g>
		<path d="M304.372,267.382c-3.983-3.982-10.439-3.982-14.424,0l-3.931,3.931c-3.983,3.983-3.983,10.441,0,14.425
			c1.992,1.991,4.602,2.987,7.212,2.987s5.22-0.996,7.212-2.987l3.931-3.931C308.355,277.824,308.355,271.365,304.372,267.382z"/>
	</g>
</g>
<g>
</g>
<g>
</g>
<g>
</g>
<g>
</g>
<g>
</g>
<g>
</g>
<g>
</g>
<g>
</g>
<g>
</g>
<g>
</g>
<g>
</g>
<g>
</g>
<g>
</g>
<g>
</g>
<g>
</g>
</svg>
