<?xml version="1.0" encoding="iso-8859-1"?>
<!-- Generator: Adobe Illustrator 19.0.0, SVG Export Plug-In . SVG Version: 6.00 Build 0)  -->
<svg version="1.1" id="Layer_1" xmlns="http://www.w3.org/2000/svg" xmlns:xlink="http://www.w3.org/1999/xlink" x="0px" y="0px"
	 viewBox="0 0 512.001 512.001" style="enable-background:new 0 0 512.001 512.001;" xml:space="preserve">
<g>
	<g>
		<path d="M510.316,436.805L264.516,63.968c-1.887-2.863-5.086-4.586-8.515-4.586s-6.628,1.723-8.515,4.586L1.684,436.805
			c-2.065,3.132-2.244,7.146-0.465,10.449c1.779,3.303,5.228,5.364,8.98,5.364h491.602c3.752,0,7.202-2.06,8.98-5.364
			C512.56,443.951,512.382,439.937,510.316,436.805z M364.971,253.399h-12.442l-69.355-69.355h36.073L364.971,253.399z
			 M323.68,253.399h-39.996l-69.355-69.355h40.154c0.286,0.378,0.589,0.748,0.934,1.092L323.68,253.399z M256,88.112l49.798,75.535
			h-99.595L256,88.112z M189.865,188.428l64.971,64.971h-41.016v0l-40.252-40.252L189.865,188.428z M162.105,230.533l22.866,22.866
			h-37.94L162.105,230.533z M133.582,273.797h244.837l45.051,68.335H88.531L133.582,273.797z M29.139,432.219l45.943-69.688h43.995
			L49.39,432.219H29.139z M78.238,432.219l68.703-68.703c0.312-0.312,0.592-0.645,0.855-0.985h46.863l-69.688,69.688H78.238z
			 M153.821,432.219l68.703-68.703c0.312-0.312,0.592-0.645,0.855-0.985h46.648l-69.688,69.688H153.821z M303.75,432.218
			l19.639-19.639c3.983-3.983,3.983-10.441,0-14.425c-3.984-3.982-10.44-3.982-14.425,0L274.9,432.218h-45.713l68.703-68.703
			c0.312-0.312,0.592-0.645,0.855-0.985h121.21l-69.688,69.688H303.75z M379.115,432.219l62.525-62.525l20.146,30.559
			l-31.966,31.966H379.115z M458.669,432.219l14.58-14.58l9.612,14.58H458.669z"/>
	</g>
</g>
<g>
	<g>
		<path d="M345.826,375.717c-3.984-3.982-10.44-3.982-14.425,0l-1.02,1.02c-3.983,3.983-3.983,10.441,0,14.425
			c1.992,1.991,4.602,2.987,7.212,2.987s5.22-0.996,7.212-2.987l1.02-1.02C349.809,386.158,349.809,379.7,345.826,375.717z"/>
	</g>
</g>
<g>
</g>
<g>
</g>
<g>
</g>
<g>
</g>
<g>
</g>
<g>
</g>
<g>
</g>
<g>
</g>
<g>
</g>
<g>
</g>
<g>
</g>
<g>
</g>
<g>
</g>
<g>
</g>
<g>
</g>
</svg>
