<?xml version="1.0" encoding="iso-8859-1"?>
<!-- Generator: Adobe Illustrator 19.0.0, SVG Export Plug-In . SVG Version: 6.00 Build 0)  -->
<svg version="1.1" id="Layer_1" xmlns="http://www.w3.org/2000/svg" xmlns:xlink="http://www.w3.org/1999/xlink" x="0px" y="0px"
	 viewBox="0 0 512 512" style="enable-background:new 0 0 512 512;" xml:space="preserve">
<g>
	<g>
		<path d="M443.809,67.676C400.168,24.033,342.144,0,280.426,0c-61.717,0-119.741,24.033-163.382,67.676
			c-43.64,43.64-67.675,101.665-67.675,163.382c0,58.444,21.565,113.568,60.911,156.311l-9.245,9.245l-4.055-4.055
			c-1.912-1.912-4.507-2.987-7.212-2.987s-5.299,1.075-7.212,2.987L8.262,466.852c-4.996,4.995-7.746,11.636-7.746,18.701
			c0,7.064,2.751,13.706,7.746,18.7c4.996,4.995,11.636,7.746,18.7,7.746c7.065,0,13.706-2.751,18.701-7.746l74.294-74.294
			c3.983-3.983,3.983-10.441,0-14.425l-4.499-4.499l9.267-9.266c42.656,38.988,97.535,60.344,155.701,60.344
			c61.718,0,119.742-24.033,163.382-67.676c43.641-43.64,67.676-101.665,67.676-163.381
			C511.483,169.339,487.45,111.316,443.809,67.676z M31.239,489.831c-1.142,1.142-2.661,1.771-4.277,1.771
			c-1.615,0-3.134-0.628-4.276-1.772c-1.142-1.142-1.772-2.661-1.772-4.276c0-1.616,0.629-3.134,1.772-4.276l67.081-67.082
			l8.554,8.554L31.239,489.831z M214.463,30.987c-11.094,10.666-21.327,24.119-30.399,40.179
			c-22.784,40.337-35.934,92.985-37.412,149.234H70.035C74.466,131.927,133.738,57.67,214.463,30.987z M70.001,240.799h58.769
			c-23.46,17.425-39.156,44.739-40.868,75.722C77.505,293.193,71.23,267.644,70.001,240.799z M108.139,322.175
			c0-44.618,36.3-80.918,80.918-80.918c44.618,0,80.918,36.3,80.918,80.918s-36.3,80.918-80.918,80.918
			C144.439,403.094,108.139,366.794,108.139,322.175z M194.431,423.351c3.882-0.205,7.705-0.634,11.462-1.265
			c2.824,3.221,5.711,6.244,8.654,9.069C207.681,428.889,200.967,426.285,194.431,423.351z M270.226,439.02
			c-14.739-2.498-29.069-10.399-42.283-23.292c16.881-7.044,31.467-18.523,42.283-32.981V439.02z M270.226,261.603
			c-5.914-7.904-12.956-14.917-20.882-20.805h20.882V261.603z M270.226,220.401H167.055c1.452-52.752,13.669-101.843,34.77-139.201
			c18.963-33.573,42.944-53.818,68.401-58.102V220.401z M490.817,220.401h-76.617c-1.478-56.249-14.628-108.898-37.412-149.234
			c-9.071-16.06-19.305-29.512-30.399-40.179C427.116,57.67,486.387,131.927,490.817,220.401z M290.625,439.018V23.098
			c25.458,4.284,49.439,24.529,68.402,58.102c21.102,37.358,33.319,86.448,34.771,139.201h-41.891
			c-5.632,0-10.199,4.567-10.199,10.199s4.567,10.199,10.199,10.199h41.911c-1.335,53.1-13.566,102.543-34.79,140.117
			C340.063,414.489,316.082,434.733,290.625,439.018z M346.39,431.126c11.094-10.666,21.327-24.118,30.399-40.179
			c22.907-40.555,36.073-93.556,37.43-150.15h76.633C486.786,329.674,427.393,404.352,346.39,431.126z"/>
	</g>
</g>
<g>
	<g>
		<path d="M318.916,220.401h-5.499c-5.632,0-10.199,4.567-10.199,10.199s4.567,10.199,10.199,10.199h5.499
			c5.632,0,10.199-4.567,10.199-10.199S324.548,220.401,318.916,220.401z"/>
	</g>
</g>
<g>
</g>
<g>
</g>
<g>
</g>
<g>
</g>
<g>
</g>
<g>
</g>
<g>
</g>
<g>
</g>
<g>
</g>
<g>
</g>
<g>
</g>
<g>
</g>
<g>
</g>
<g>
</g>
<g>
</g>
</svg>
