<?xml version="1.0" encoding="iso-8859-1"?>
<!-- Generator: Adobe Illustrator 19.0.0, SVG Export Plug-In . SVG Version: 6.00 Build 0)  -->
<svg version="1.1" id="Layer_1" xmlns="http://www.w3.org/2000/svg" xmlns:xlink="http://www.w3.org/1999/xlink" x="0px" y="0px"
	 viewBox="0 0 512 512" style="enable-background:new 0 0 512 512;" xml:space="preserve">
<g>
	<g>
		<path d="M345.72,0c-91.052,0-165.128,74.077-165.128,165.128c0,42.226,15.94,80.795,42.108,110.024l-32.769,32.769l-15.068-15.068
			c-3.983-3.982-10.441-3.982-14.425,0L13.529,439.762c-16.503,16.504-16.503,43.358,0,59.86C21.781,507.874,32.62,512,43.459,512
			s21.678-4.126,29.931-12.377l146.909-146.909c3.983-3.983,3.983-10.441,0-14.425l-15.944-15.944l32.855-32.854
			c29.04,25.372,67.01,40.765,108.511,40.765c91.052,0,165.128-74.077,165.128-165.128S436.772,0,345.72,0z M58.967,485.198
			c-8.549,8.55-22.462,8.55-31.012,0c-8.549-8.549-8.549-22.461,0-31.011l139.697-139.697l31.012,31.011L58.967,485.198z
			 M345.72,309.857c-79.804,0-144.728-64.925-144.728-144.728S265.917,20.399,345.72,20.399s144.728,64.925,144.728,144.728
			S425.525,309.857,345.72,309.857z"/>
	</g>
</g>
<g>
	<g>
		<path d="M175.486,333.965c-3.983-3.982-10.441-3.982-14.425,0l-44.367,44.368c-3.983,3.983-3.983,10.441,0,14.425
			c1.992,1.991,4.602,2.987,7.212,2.987c2.61,0,5.221-0.997,7.212-2.987l44.368-44.368
			C179.469,344.407,179.469,337.949,175.486,333.965z"/>
	</g>
</g>
<g>
	<g>
		<path d="M109.188,399.943c-3.983-3.982-10.441-3.982-14.424,0l-4.909,4.909c-3.983,3.983-3.983,10.441,0,14.425
			c1.992,1.991,4.602,2.987,7.212,2.987c2.61,0,5.221-0.997,7.212-2.987l4.909-4.909
			C113.171,410.385,113.171,403.927,109.188,399.943z"/>
	</g>
</g>
<g>
	<g>
		<path d="M352.184,152.478v-46.371c14.847,0.814,20.542,7.525,24.813,7.525c4.678,0,7.322-6.1,7.322-9.355
			c0-8.136-17.694-12.814-32.134-13.424v-5.694c0-2.237-2.644-4.272-5.289-4.272c-3.051,0-5.289,2.034-5.289,4.272v6.101
			c-18.304,1.627-37.625,10.575-37.625,36.201c0,26.032,19.525,32.745,37.625,39.049v54.1c-23.186-1.017-28.066-16.27-33.762-16.27
			c-3.865,0-7.525,5.288-7.525,9.355c0,8.542,15.863,22.576,41.287,22.983v6.711c0,2.237,2.237,4.272,5.289,4.272
			c2.644,0,5.289-2.034,5.289-4.272v-7.322c21.152-2.848,35.796-16.067,35.796-40.88
			C387.979,167.326,369.471,158.783,352.184,152.478z M342.422,149.02c-12-4.475-22.169-9.153-22.169-23.186
			c0-13.017,9.966-18.303,22.169-19.525V149.02z M351.37,220.204v-49.829c11.186,4.679,20.338,10.984,20.338,26.44
			C371.709,210.238,364.184,218.171,351.37,220.204z"/>
	</g>
</g>
<g>
</g>
<g>
</g>
<g>
</g>
<g>
</g>
<g>
</g>
<g>
</g>
<g>
</g>
<g>
</g>
<g>
</g>
<g>
</g>
<g>
</g>
<g>
</g>
<g>
</g>
<g>
</g>
<g>
</g>
</svg>
