<?xml version="1.0" encoding="iso-8859-1"?>
<!-- Generator: Adobe Illustrator 19.0.0, SVG Export Plug-In . SVG Version: 6.00 Build 0)  -->
<svg version="1.1" id="Layer_1" xmlns="http://www.w3.org/2000/svg" xmlns:xlink="http://www.w3.org/1999/xlink" x="0px" y="0px"
	 viewBox="0 0 512 512" style="enable-background:new 0 0 512 512;" xml:space="preserve">
<g>
	<g>
		<path d="M453.013,7.231C448.68,2.636,442.574,0,436.258,0H75.743c-6.316,0-12.422,2.636-16.756,7.231
			c-4.332,4.594-6.604,10.845-6.233,17.151l21.553,366.016c0.437,7.402,4.443,14.181,10.717,18.132L243.73,508.48
			c3.727,2.347,7.999,3.52,12.27,3.52c4.272,0,8.544-1.174,12.271-3.521l158.705-99.951c6.275-3.951,10.28-10.729,10.717-18.132
			l21.553-366.015C459.617,18.077,457.346,11.825,453.013,7.231z M417.33,389.198c-0.05,0.845-0.507,1.619-1.223,2.07
			l-158.704,99.951c-0.851,0.535-1.952,0.535-2.803,0L95.894,391.267c-0.716-0.451-1.173-1.225-1.223-2.07L73.119,23.183
			c-0.055-0.936,0.357-1.58,0.712-1.957c0.355-0.377,0.975-0.826,1.912-0.826h360.515c0.937,0,1.559,0.45,1.913,0.826
			c0.355,0.376,0.766,1.021,0.711,1.957L417.33,389.198z"/>
	</g>
</g>
<g>
	<g>
		<path d="M399.607,57.938c-1.927-2.032-4.603-3.182-7.403-3.182H119.795c-2.8,0-5.476,1.151-7.403,3.182
			c-1.926,2.032-2.931,4.766-2.782,7.562l15.978,298.523c0.177,3.307,1.948,6.322,4.75,8.086l120.227,75.718
			c1.66,1.045,3.547,1.569,5.435,1.569c1.888,0,3.775-0.523,5.434-1.569l120.227-75.718c2.802-1.766,4.573-4.78,4.75-8.086
			L402.389,65.5C402.539,62.704,401.532,59.97,399.607,57.938z M366.324,357.66L256,427.141L145.676,357.66l-15.12-282.506h250.889
			L366.324,357.66z"/>
	</g>
</g>
<g>
	<g>
		<path d="M270.73,91.934H160.255c-5.633,0-10.2,4.567-10.2,10.2c0,5.632,4.566,10.2,10.2,10.2h110.476
			c5.633,0,10.199-4.567,10.199-10.2C280.93,96.502,276.364,91.934,270.73,91.934z"/>
	</g>
</g>
<g>
	<g>
		<path d="M318.533,91.934h-11.685c-5.633,0-10.2,4.567-10.2,10.2c0,5.632,4.566,10.2,10.2,10.2h11.685
			c5.633,0,10.2-4.567,10.2-10.2C328.733,96.502,324.166,91.934,318.533,91.934z"/>
	</g>
</g>
<g>
	<g>
		<path d="M262.292,234.303v-59.721c19.121,1.048,26.455,9.692,31.955,9.692c6.025,0,9.43-7.858,9.43-12.049
			c0-10.476-22.788-16.501-41.385-17.287v-7.334c0-2.881-3.405-5.501-6.81-5.501c-3.929,0-6.81,2.62-6.81,5.501v7.858
			c-23.574,2.096-48.457,13.622-48.457,46.625c0,33.527,25.146,42.171,48.457,50.291v69.675
			c-29.86-1.31-36.146-20.955-43.481-20.955c-4.975,0-9.691,6.809-9.691,12.049c0,11.001,20.43,29.074,53.172,29.598h0v8.642
			c0,2.882,2.881,5.501,6.81,5.501c3.406,0,6.81-2.619,6.81-5.501v-9.43c27.241-3.667,46.1-20.692,46.1-52.648
			C308.392,253.424,284.557,242.423,262.292,234.303z M249.719,229.853c-15.453-5.764-28.551-11.788-28.551-29.861
			c0-16.763,12.835-23.573,28.551-25.145V229.853z M261.244,321.528v-64.174c14.407,6.026,26.194,14.146,26.194,34.051
			C287.437,308.693,277.746,318.909,261.244,321.528z"/>
	</g>
</g>
<g>
</g>
<g>
</g>
<g>
</g>
<g>
</g>
<g>
</g>
<g>
</g>
<g>
</g>
<g>
</g>
<g>
</g>
<g>
</g>
<g>
</g>
<g>
</g>
<g>
</g>
<g>
</g>
<g>
</g>
</svg>
