<?xml version="1.0" encoding="iso-8859-1"?>
<!-- Generator: Adobe Illustrator 19.0.0, SVG Export Plug-In . SVG Version: 6.00 Build 0)  -->
<svg version="1.1" id="Layer_1" xmlns="http://www.w3.org/2000/svg" xmlns:xlink="http://www.w3.org/1999/xlink" x="0px" y="0px"
	 viewBox="0 0 512 512" style="enable-background:new 0 0 512 512;" xml:space="preserve">
<g>
	<g>
		<path d="M308.321,74.122H130.647c-21.551,0-39.084,17.532-39.084,39.084v359.71c0,21.552,17.533,39.084,39.084,39.084h177.674
			c21.551,0,39.084-17.532,39.084-39.084v-359.71C347.405,91.654,329.872,74.122,308.321,74.122z M111.961,113.206
			c0-10.304,8.383-18.686,18.686-18.686h177.674c10.304,0,18.686,8.383,18.686,18.686V422.93H111.961V113.206z M327.008,472.916
			c0,10.304-8.383,18.686-18.686,18.686H130.647c-10.304,0-18.686-8.383-18.686-18.686v-29.587h215.047V472.916z"/>
	</g>
</g>
<g>
	<g>
		<path d="M219.484,258.336c-44.992,0-81.596,36.605-81.596,81.597c0,5.632,4.566,10.199,10.199,10.199h142.794
			c5.633,0,10.199-4.567,10.199-10.199C301.081,294.941,264.477,258.336,219.484,258.336z M159.136,329.733
			c4.87-28.907,30.077-50.999,60.348-50.999s55.478,22.092,60.348,50.999H159.136z"/>
	</g>
</g>
<g>
	<g>
		<path d="M219.484,162.413c-22.753,0-41.265,18.51-41.265,41.265c0,22.754,18.512,41.265,41.265,41.265
			s41.265-18.511,41.265-41.265C260.749,180.924,242.237,162.413,219.484,162.413z M219.484,224.545
			c-11.506,0-20.867-9.361-20.867-20.867s9.361-20.867,20.867-20.867s20.867,9.361,20.867,20.867S230.99,224.545,219.484,224.545z"
			/>
	</g>
</g>
<g>
	<g>
		<path d="M228.204,456.721h-17.441c-5.633,0-10.199,4.567-10.199,10.199c0,5.632,4.567,10.199,10.199,10.199h17.441
			c5.633,0,10.199-4.567,10.199-10.199C238.403,461.289,233.837,456.721,228.204,456.721z"/>
	</g>
</g>
<g>
	<g>
		<path d="M311.046,39.241c-5.633,0-10.199,4.567-10.199,10.199c0,5.632,4.566,10.199,10.199,10.199
			c27.433,0,49.752,22.319,49.752,49.752c0,5.632,4.566,10.199,10.199,10.199c5.633,0,10.199-4.567,10.199-10.199
			C381.196,70.71,349.728,39.241,311.046,39.241z"/>
	</g>
</g>
<g>
	<g>
		<path d="M420.335,104.614c-0.242-5.628-5.002-9.989-10.627-9.754c-5.628,0.242-9.994,5-9.753,10.628
			c0.055,1.295,0.084,2.609,0.084,3.902c0,5.632,4.566,10.199,10.199,10.199s10.199-4.567,10.199-10.199
			C420.438,107.807,420.403,106.2,420.335,104.614z"/>
	</g>
</g>
<g>
	<g>
		<path d="M414.275,73.113C398.907,29.382,357.423,0,311.046,0c-5.633,0-10.199,4.567-10.199,10.199
			c0,5.632,4.566,10.199,10.199,10.199c37.732,0,71.482,23.903,83.984,59.477c1.475,4.196,5.414,6.821,9.623,6.821
			c1.121,0,2.262-0.188,3.381-0.579C413.348,84.25,416.143,78.427,414.275,73.113z"/>
	</g>
</g>
<g>
</g>
<g>
</g>
<g>
</g>
<g>
</g>
<g>
</g>
<g>
</g>
<g>
</g>
<g>
</g>
<g>
</g>
<g>
</g>
<g>
</g>
<g>
</g>
<g>
</g>
<g>
</g>
<g>
</g>
</svg>
