<?xml version="1.0" encoding="iso-8859-1"?>
<!-- Generator: Adobe Illustrator 19.0.0, SVG Export Plug-In . SVG Version: 6.00 Build 0)  -->
<svg version="1.1" id="Layer_1" xmlns="http://www.w3.org/2000/svg" xmlns:xlink="http://www.w3.org/1999/xlink" x="0px" y="0px"
	 viewBox="0 0 512 512" style="enable-background:new 0 0 512 512;" xml:space="preserve">
<g>
	<g>
		<path d="M365.584,123.899c-16.934-25.928-45.506-41.408-76.431-41.408c-5.633,0-10.199,4.567-10.199,10.199v81.035
			c0,3.742,2.05,7.184,5.34,8.967c1.52,0.824,3.19,1.232,4.859,1.232c1.943,0,3.883-0.555,5.57-1.654l67.891-44.25
			c2.267-1.478,3.854-3.797,4.412-6.445C367.583,128.925,367.064,126.164,365.584,123.899z M299.353,154.903v-51.283
			c16.646,2.402,31.838,10.636,42.96,23.282L299.353,154.903z"/>
	</g>
</g>
<g>
	<g>
		<path d="M347.762,171.967c-3.078-4.713-9.393-6.041-14.109-2.968l-67.456,43.966v-80.511c0-5.633-4.566-10.2-10.199-10.2
			c-24.995,0-49.448,8.648-68.853,24.352c-25.853,20.92-40.68,51.967-40.68,85.182c0,60.397,49.137,109.533,109.533,109.533
			s109.533-49.137,109.533-109.533C365.533,210.452,359.388,189.767,347.762,171.967z M245.8,143.218v59.723l-37.54-46.449
			C219.643,149.225,232.364,144.727,245.8,143.218z M255.999,320.921c-49.149,0-89.135-39.986-89.135-89.135
			c0-23.599,9.2-45.854,25.542-62.457l55.66,68.868c3.288,4.068,9.12,4.989,13.502,2.134l74.196-48.361
			c6.153,12.303,9.37,25.888,9.37,39.816C345.134,280.934,305.148,320.921,255.999,320.921z"/>
	</g>
</g>
<g>
	<g>
		<path d="M430.422,438.033h-2.379V20.398h9.37c5.633,0,10.199-4.567,10.199-10.199C447.611,4.567,443.045,0,437.412,0H74.587
			c-5.633,0-10.199,4.567-10.199,10.199c0,5.632,4.566,10.199,10.199,10.199h9.371v417.635h-2.379
			c-16.447,0-29.83,13.381-29.83,29.829v14.308c0,16.448,13.381,29.83,29.83,29.83h348.843c16.447,0,29.83-13.381,29.83-29.83
			v-14.308C460.251,451.415,446.87,438.033,430.422,438.033z M104.355,20.398h303.288v417.635H104.355V20.398z M439.852,482.17
			c0,5.201-4.231,9.431-9.431,9.431H81.577c-5.201,0-9.431-4.231-9.431-9.431v-14.308c0-5.201,4.231-9.43,9.431-9.43h348.843
			c5.201,0,9.431,4.23,9.431,9.43V482.17z"/>
	</g>
</g>
<g>
	<g>
		<path d="M368.935,360.779H143.064c-5.633,0-10.199,4.567-10.199,10.199s4.566,10.199,10.199,10.199h225.871
			c5.633,0,10.199-4.567,10.199-10.199S374.568,360.779,368.935,360.779z"/>
	</g>
</g>
<g>
	<g>
		<path d="M368.935,39.859h-4.735c-5.633,0-10.199,4.567-10.199,10.199s4.566,10.199,10.199,10.199h4.735
			c5.633,0,10.199-4.567,10.199-10.199S374.568,39.859,368.935,39.859z"/>
	</g>
</g>
<g>
	<g>
		<path d="M327.407,39.859H143.064c-5.633,0-10.199,4.567-10.199,10.199s4.566,10.199,10.199,10.199h184.342
			c5.633,0,10.199-4.567,10.199-10.199S333.04,39.859,327.407,39.859z"/>
	</g>
</g>
<g>
	<g>
		<path d="M368.935,398.596H143.064c-5.633,0-10.199,4.567-10.199,10.199s4.566,10.199,10.199,10.199h225.871
			c5.633,0,10.199-4.567,10.199-10.199S374.568,398.596,368.935,398.596z"/>
	</g>
</g>
<g>
</g>
<g>
</g>
<g>
</g>
<g>
</g>
<g>
</g>
<g>
</g>
<g>
</g>
<g>
</g>
<g>
</g>
<g>
</g>
<g>
</g>
<g>
</g>
<g>
</g>
<g>
</g>
<g>
</g>
</svg>
