<?xml version="1.0" encoding="iso-8859-1"?>
<!-- Generator: Adobe Illustrator 19.0.0, SVG Export Plug-In . SVG Version: 6.00 Build 0)  -->
<svg version="1.1" id="Layer_1" xmlns="http://www.w3.org/2000/svg" xmlns:xlink="http://www.w3.org/1999/xlink" x="0px" y="0px"
	 viewBox="0 0 512 512" style="enable-background:new 0 0 512 512;" xml:space="preserve">
<g>
	<g>
		<path d="M256,230.566c-14.025,0-25.434,11.41-25.434,25.434s11.41,25.435,25.435,25.435c14.025,0,25.434-11.411,25.434-25.435
			S270.025,230.566,256,230.566z M256,261.036c-2.777,0-5.036-2.259-5.036-5.036c0-2.777,2.259-5.035,5.036-5.035
			c2.777,0,5.036,2.258,5.036,5.035C261.036,258.777,258.777,261.036,256,261.036z"/>
	</g>
</g>
<g>
	<g>
		<path d="M498.741,43.857h-29.578V14.279c0-5.633-4.567-10.199-10.199-10.199c-5.632,0-10.199,4.566-10.199,10.199V49.83
			L307.944,190.653c-3.983,3.983-3.983,10.441,0,14.425c1.992,1.991,4.601,2.986,7.212,2.986c2.611,0,5.22-0.995,7.212-2.987
			L463.19,64.255h35.551c5.632,0,10.199-4.566,10.199-10.199C508.94,48.423,504.373,43.857,498.741,43.857z"/>
	</g>
</g>
<g>
	<g>
		<path d="M300.949,212.07c-3.984-3.983-10.44-3.983-14.424,0.001l-2.04,2.04c-3.983,3.983-3.983,10.441,0,14.425
			c1.992,1.991,4.601,2.986,7.212,2.986c2.611,0,5.22-0.995,7.212-2.987l2.04-2.04C304.932,222.512,304.932,216.054,300.949,212.07z
			"/>
	</g>
</g>
<g>
	<g>
		<path d="M460.73,102.295c-1.775-2.361-4.487-3.837-7.434-4.044c-2.945-0.206-5.84,0.873-7.929,2.962l-27.302,27.301
			c-3.521,3.521-3.985,9.07-1.096,13.126c23.861,33.522,36.472,73.067,36.472,114.36c0,108.869-88.572,197.44-197.44,197.44
			S58.56,364.869,58.56,256S147.132,58.56,256,58.56c41.845,0,81.83,12.934,115.633,37.403c4.058,2.937,9.649,2.493,13.193-1.049
			L412.1,67.64c2.081-2.081,3.162-4.959,2.964-7.895c-0.197-2.935-1.652-5.644-3.992-7.428C366.182,18.09,312.56,0,256,0
			C187.619,0,123.333,26.628,74.982,74.98C26.628,123.333,0,187.62,0,256s26.628,132.667,74.982,181.02
			C123.333,485.372,187.619,512,256,512s132.667-26.628,181.019-74.98C485.372,388.667,512,324.38,512,256
			C512,200.052,494.271,146.902,460.73,102.295z M256,491.602c-129.911,0-235.602-105.69-235.602-235.602S126.089,20.398,256,20.398
			c48.126,0,93.941,14.232,133.224,41.268l-12.797,12.796C340.694,50.683,299.246,38.161,256,38.161
			C135.883,38.161,38.161,135.883,38.161,256S135.883,473.839,256,473.839S473.839,376.117,473.839,256
			c0-42.654-12.204-83.627-35.373-119.04l12.813-12.813c26.42,38.98,40.323,84.317,40.323,131.853
			C491.602,385.911,385.911,491.602,256,491.602z"/>
	</g>
</g>
<g>
	<g>
		<path d="M405.491,158.468c-1.68-2.571-4.431-4.248-7.486-4.564c-3.057-0.318-6.091,0.761-8.263,2.933l-27.9,27.901
			c-3.245,3.244-3.924,8.257-1.657,12.247c10.165,17.902,15.536,38.308,15.536,59.015c0,66.015-53.706,119.721-119.721,119.721
			S136.279,322.015,136.279,256S189.985,136.279,256,136.279c21.249,0,42.125,5.643,60.367,16.319
			c4.001,2.343,9.083,1.689,12.365-1.59l27.83-27.83c2.159-2.16,3.237-5.173,2.938-8.212c-0.3-3.039-1.946-5.784-4.485-7.48
			C325.661,87.877,291.421,77.514,256,77.514c-98.417,0-178.486,80.069-178.486,178.486S157.583,434.486,256,434.486
			S434.486,354.417,434.486,256C434.486,221.212,424.46,187.486,405.491,158.468z M256,414.088
			c-87.17,0-158.088-70.918-158.088-158.088S168.831,97.912,256,97.912c27.161,0,53.535,6.878,76.99,19.988l-13.281,13.28
			c-19.64-10.032-41.502-15.301-63.708-15.301c-77.262,0-140.12,62.858-140.12,140.12S178.738,396.12,256,396.12
			S396.12,333.262,396.12,256c0-21.604-5.002-42.938-14.524-62.169l13.325-13.325c12.573,23.084,19.166,48.937,19.166,75.495
			C414.088,343.17,343.17,414.088,256,414.088z"/>
	</g>
</g>
<g>
	<g>
		<path d="M348.494,218.07c-1.296-3.157-4.085-5.456-7.429-6.127c-3.345-0.673-6.806,0.375-9.218,2.787l-32.174,32.174
			c-2.004,2.004-3.083,4.753-2.98,7.586l0.005,0.14c0.017,0.455,0.036,0.91,0.036,1.369c0,22.46-18.273,40.734-40.734,40.734
			S215.267,278.46,215.267,256s18.273-40.733,40.734-40.733c0.971,0,2.039,0.047,3.265,0.145c2.963,0.236,5.906-0.844,8.018-2.955
			l31.615-31.615c2.387-2.389,3.438-5.803,2.807-9.12s-2.864-6.106-5.96-7.451c-12.578-5.457-25.951-8.224-39.745-8.224
			c-55.113,0-99.952,44.838-99.952,99.952s44.839,99.952,99.952,99.952s99.952-44.838,99.952-99.952
			C355.952,242.887,353.443,230.125,348.494,218.07z M256.001,335.554c-43.867,0-79.554-35.688-79.554-79.554
			c0-43.866,35.687-79.554,79.554-79.554c5.671,0,11.249,0.586,16.694,1.75l-16.674,16.673c-0.007,0-0.014,0-0.021,0
			c-33.708,0-61.132,27.424-61.132,61.131s27.424,61.132,61.132,61.132c32.924,0,59.853-26.165,61.088-58.793l17.102-17.102
			c0.908,4.834,1.365,9.767,1.365,14.763C335.555,299.866,299.868,335.554,256.001,335.554z"/>
	</g>
</g>
<g>
</g>
<g>
</g>
<g>
</g>
<g>
</g>
<g>
</g>
<g>
</g>
<g>
</g>
<g>
</g>
<g>
</g>
<g>
</g>
<g>
</g>
<g>
</g>
<g>
</g>
<g>
</g>
<g>
</g>
</svg>
