<?xml version="1.0" encoding="iso-8859-1"?>
<!-- Generator: Adobe Illustrator 19.0.0, SVG Export Plug-In . SVG Version: 6.00 Build 0)  -->
<svg version="1.1" id="Layer_1" xmlns="http://www.w3.org/2000/svg" xmlns:xlink="http://www.w3.org/1999/xlink" x="0px" y="0px"
	 viewBox="0 0 511.999 511.999" style="enable-background:new 0 0 511.999 511.999;" xml:space="preserve">
<g>
	<g>
		<path d="M495.85,499.982l-8.941-49.349c-5.045-27.848-18.284-53.128-38.287-73.106c-19.769-19.744-44.682-32.904-72.046-38.056
			c-0.001,0-0.003-0.001-0.004-0.001c-8.434-1.589-17.06-2.394-25.642-2.394h-26.923c-2.705,0-5.299,1.075-7.212,2.987
			l-53.811,53.811l-53.812-53.811c-1.913-1.912-4.507-2.987-7.212-2.987h-26.924c-8.578,0-17.204,0.806-25.64,2.394
			c-27.366,5.153-52.282,18.313-72.051,38.057c-20.003,19.978-33.243,45.258-38.288,73.106l-8.94,49.348
			c-0.539,2.975,0.27,6.035,2.207,8.356c1.938,2.32,4.806,3.661,7.829,3.661h445.659c3.023,0,5.89-1.341,7.829-3.661
			C495.58,506.018,496.389,502.957,495.85,499.982z M270.191,415.516c0.002-0.002,0.003-0.003,0.005-0.005l58.036-58.035h22.699
			c0.447,0,0.893,0.002,1.339,0.007l-89.287,89.287l-12.023-12.023L270.191,415.516z M175.036,357.475h22.699l50.825,50.824
			l-12.023,12.023l-62.839-62.839C174.144,357.478,174.59,357.475,175.036,357.475z M52.368,491.602l6.762-37.331
			c8.328-45.964,43.709-82.989,88.853-93.653l107.789,107.788c1.992,1.991,4.602,2.987,7.212,2.987c2.611,0,5.22-0.996,7.212-2.987
			l107.789-107.788c45.145,10.665,80.526,47.689,88.852,93.653l6.763,37.331H52.368z"/>
	</g>
</g>
<g>
	<g>
		<path d="M340.21,73.089c-13.154-14.041-30.995-21.773-50.236-21.773h-53.981c-3.688,0-7.355,0.3-10.969,0.878
			C204.799,20.819,169.548,0,129.524,0C66.918,0,15.986,50.933,15.986,113.539s50.933,113.539,113.539,113.539
			c15.548,0,30.374-3.144,43.881-8.825l1.896,29.078c1.962,30.095,18.911,56.739,45.336,71.274
			c13.258,7.291,27.802,10.938,42.346,10.938c14.545,0,29.089-3.646,42.347-10.938c26.425-14.535,43.374-41.179,45.336-71.274
			l6.402-98.166l1.599-24.528C359.921,105.435,353.366,87.13,340.21,73.089z M235.994,71.714h53.981
			c0.744,0,1.484,0.023,2.221,0.056l-13.828,36.876c-1.749,2.859-11.664,17.429-37.83,28.729c1.649-7.689,2.525-15.662,2.525-23.837
			c0-14.751-2.83-28.853-7.972-41.794C235.393,71.739,235.692,71.714,235.994,71.714z M129.524,206.679
			c-51.357,0-93.14-41.782-93.14-93.14s41.783-93.14,93.14-93.14s93.14,41.782,93.14,93.14
			C222.664,164.896,180.881,206.679,129.524,206.679z M330.31,246.002c-1.505,23.109-14.52,43.569-34.811,54.729
			c-20.359,11.198-44.67,11.198-65.031,0c-20.291-11.16-33.305-31.62-34.813-54.729l-2.509-38.471
			c16.694-11.335,30.219-26.999,38.96-45.362c25.755-7.941,42.171-19.612,51.999-28.999c3.781,4.105,9.003,7.887,15.627,11.31
			c7.528,3.89,19.498,7.823,36.419,11.965L330.31,246.002z M338.314,123.307l-0.812,12.45c-16.299-4.146-24.399-7.33-28.407-9.401
			c-9.085-4.695-11.595-8.609-11.871-9.902l14.799-39.464c4.903,2.512,9.398,5.879,13.302,10.045
			C334.582,96.916,339.195,109.797,338.314,123.307z"/>
	</g>
</g>
<g>
	<g>
		<path d="M194.712,78.06c0-1.314-0.228-2.638-0.752-3.899c-1.579-3.811-5.297-6.296-9.423-6.296h-33.934
			c-5.632,0-10.199,4.566-10.199,10.199c0,5.633,4.567,10.199,10.199,10.199h9.31l-33.987,33.988l-14.382-14.382
			c-3.984-3.983-10.44-3.982-14.425,0l-31.876,31.876c-3.983,3.983-3.983,10.441,0,14.425c1.992,1.991,4.601,2.986,7.212,2.986
			c2.611,0,5.22-0.995,7.212-2.987l24.664-24.664l14.382,14.382c3.984,3.983,10.44,3.982,14.425,0l41.2-41.2v7.253
			c0,5.633,4.567,10.199,10.199,10.199s10.199-4.566,10.199-10.199V78.064C194.737,78.064,194.726,78.062,194.712,78.06z"/>
	</g>
</g>
<g>
	<g>
		<path d="M403.553,460.657h-67.864c-5.632,0-10.199,4.566-10.199,10.199c0,5.633,4.567,10.199,10.199,10.199h67.864
			c5.632,0,10.199-4.566,10.199-10.199C413.753,465.223,409.185,460.657,403.553,460.657z"/>
	</g>
</g>
<g>
	<g>
		<path d="M445.713,460.657h-5.141c-5.632,0-10.199,4.566-10.199,10.199c0,5.633,4.567,10.199,10.199,10.199h5.141
			c5.632,0,10.199-4.566,10.199-10.199C455.912,465.223,451.345,460.657,445.713,460.657z"/>
	</g>
</g>
<g>
</g>
<g>
</g>
<g>
</g>
<g>
</g>
<g>
</g>
<g>
</g>
<g>
</g>
<g>
</g>
<g>
</g>
<g>
</g>
<g>
</g>
<g>
</g>
<g>
</g>
<g>
</g>
<g>
</g>
</svg>
