<svg xmlns="http://www.w3.org/2000/svg" id="1" width="1680" height="909">
    <rect width="100%" height="100%" fill="#fff"/>
    
<path d="M733 309 L735 309 L747 309 L765 309 L788 309 L817 309 L843 309 L859 309 L878 308 L889 307 L897 307 L899 307 L900 307 L901 307 L899 307 L894 310 L882 322 L855 350 L812 392 L755 445 L734 466 L722 477 L706 493 L701 498 L700 500 L701 500 L710 500 L730 500 L774 500 L806 500 L833 500 L849 500 L861 501 L865 502 L866 503 L867 504 L867 505 L864 509 L851 522 L817 560 L780 598 L749 627 L739 635 L724 648 L718 653 L716 654 L716 655 L717 655 L722 655 L737 655 L774 656 L806 659 L831 662 L845 663 L858 665 L863 667 L864 667 L865 667 L863 667 L856 672 L839 686 L811 709 L773 740 L748 762 L740 772 L728 785 L723 790 L722 791 L722 792" fill="none" stroke="#0064FF" stroke-width="2"/></svg>