<svg xmlns="http://www.w3.org/2000/svg" id="1" width="1680" height="909">
    <rect width="100%" height="100%" fill="#fff"/>
    
<path d="M646 386 L648 386 L652 382 L660 377 L669 373 L679 369 L690 366 L703 365 L720 362 L743 359 L778 358 L803 358 L832 365 L849 371 L874 383 L888 394 L902 404 L912 414 L924 430 L932 445 L938 461 L944 475 L949 489 L953 502 L955 515 L957 527 L958 537 L959 548 L959 555 L959 563 L959 571 L957 580 L954 589 L950 596 L943 607 L933 617 L923 630 L909 643 L894 656 L879 668 L862 677 L847 685 L827 691 L813 694 L796 696 L779 698 L761 699 L742 699 L723 699 L707 699 L696 698 L685 694 L672 684 L659 673 L651 666 L641 656 L634 646 L629 638 L624 628 L622 618 L619 607 L617 595 L616 582 L615 568 L615 555 L615 544 L615 537 L615 529 L615 522 L615 515 L615 509 L615 504 L615 500 L615 495 L615 490 L615 487 L615 483 L615 482 L615 481 L616 480 L617 476 L619 471 L622 462 L624 453 L626 449 L627 444 L628 441 L629 441 L630 441 L630 440 L630 439 L631 434 L632 430 L634 424 L634 421 L635 419 L636 419 L636 418 L637 417 L640 413 L641 411 L644 408 L647 405 L652 402 L655 399 L659 395 L663 392 L666 389 L669 386 L672 383 L674 382" fill="none" stroke="#0064FF" stroke-width="2"/><path d="M694 466 L696 466 L699 466 L702 466 L705 466 L708 466 L710 466 L711 467 L712 470 L714 475 L715 482 L716 486 L717 492 L719 499 L719 506 L719 513 L716 521 L712 528 L707 536 L702 539 L696 542 L688 544 L682 544 L675 543 L668 537 L663 533 L658 528 L656 524 L654 520 L654 515 L654 511 L654 505 L654 497 L654 485 L654 479 L654 472 L654 467 L656 465 L661 463 L667 460 L671 459 L676 457 L678 457 L680 457 L681 457" fill="none" stroke="#0064FF" stroke-width="2"/><path d="M854 455 L854 455 L854 457 L854 459 L854 464 L854 466 L854 470 L854 476 L854 481 L854 487 L855 492 L855 496 L855 501 L855 505 L855 507 L854 510 L852 512 L847 515 L841 518 L833 521 L828 522 L820 523 L813 525 L808 525 L804 524 L801 522 L799 521 L798 519 L798 517 L798 512 L798 508 L797 501 L797 493 L797 486 L797 476 L797 469 L799 464 L801 457 L805 452 L811 447 L817 443 L824 440 L830 439 L833 438 L837 438 L841 438 L844 440 L848 441" fill="none" stroke="#0064FF" stroke-width="2"/><path d="M728 630 L729 630 L731 630 L732 630 L734 630 L739 630 L746 630 L751 630 L755 630 L759 630 L762 630 L765 630 L768 630 L770 630 L772 630 L773 630 L774 630 L774 629 L775 628" fill="none" stroke="#0064FF" stroke-width="2"/><path d="M757 509 L757 510 L757 514 L757 518 L757 519 L757 521 L757 523 L757 525 L757 526 L757 527 L757 527 L757 531 L757 539 L757 546 L756 553 L756 557 L756 559 L756 559 L751 559 L742 559 L733 559 L727 560 L726 560 L725 560 L727 560 L733 560 L741 560 L751 560 L761 560 L768 560 L774 560 L780 559 L783 559 L785 559 L786 559 L787 559 L788 559 L790 559 L792 559 L795 559" fill="none" stroke="#0064FF" stroke-width="2"/><path d="M649 398 L649 394 L646 384 L636 373 L631 366 L622 358 L619 355 L616 354 L615 352 L613 352 L613 352 L613 353 L613 358 L613 380 L613 403 L616 434 L619 452 L621 463 L623 469 L624 470 L624 471 L625 471" fill="none" stroke="#0064FF" stroke-width="2"/><path d="M838 376 L838 374 L838 368 L844 360 L847 354 L851 346 L856 341 L860 336 L867 331 L871 328 L875 325 L878 323 L880 320 L883 319 L885 317 L886 316 L887 316 L887 317 L885 323 L884 335 L883 348 L882 360 L882 372 L881 377 L881 380 L880 381 L879 381 L879 382" fill="none" stroke="#0064FF" stroke-width="2"/></svg>