<svg xmlns="http://www.w3.org/2000/svg" id="1" width="1680" height="909">
    <rect width="100%" height="100%" fill="#fff"/>
    
<path d="M616 362 L618 362 L638 371 L691 406 L750 452 L783 482 L814 509 L832 523 L836 527 L838 529 L840 529 L846 533 L854 540 L861 545 L866 548 L869 550 L870 550 L871 552 L874 553 L877 555 L879 556 L882 556" fill="none" stroke="#0064FF" stroke-width="2"/><path d="M829 344 L829 345 L823 350 L814 363 L799 383 L790 400 L778 423 L768 445 L760 467 L756 482 L751 496 L748 508 L746 511 L742 517 L740 520 L737 525 L732 531 L727 538 L723 544 L721 548 L718 552 L716 555 L714 558 L713 559 L713 559" fill="none" stroke="#0064FF" stroke-width="2"/></svg>