<svg xmlns="http://www.w3.org/2000/svg" id="1" width="1680" height="909">
    <rect width="100%" height="100%" fill="#fff"/>
    
<path d="M646 386 L648 386 L652 382 L660 377 L669 373 L679 369 L690 366 L703 365 L720 362 L743 359 L778 358 L803 358 L832 365 L849 371 L874 383 L888 394 L902 404 L912 414 L924 430 L932 445 L938 461 L944 475 L949 489 L953 502 L955 515 L957 527 L958 537 L959 548 L959 555 L959 563 L959 571 L957 580 L954 589 L950 596 L943 607 L933 617 L923 630 L909 643 L894 656 L879 668 L862 677 L847 685 L827 691 L813 694 L796 696 L779 698 L761 699 L742 699 L723 699 L707 699 L696 698 L685 694 L672 684 L659 673 L651 666 L641 656 L634 646 L629 638 L624 628 L622 618 L619 607 L617 595 L616 582 L615 568 L615 555 L615 544 L615 537 L615 529 L615 522 L615 515 L615 509 L615 504 L615 500 L615 495 L615 490 L615 487 L615 483 L615 482 L615 481 L616 480 L617 476 L619 471 L622 462 L624 453 L626 449 L627 444 L628 441 L629 441 L630 441 L630 440 L630 439 L631 434 L632 430 L634 424 L634 421 L635 419 L636 419 L636 418 L637 417 L640 413 L641 411 L644 408 L647 405 L652 402 L655 399 L659 395 L663 392 L666 389 L669 386 L672 383 L674 382" fill="none" stroke="#0064FF" stroke-width="2"/></svg>