<svg xmlns="http://www.w3.org/2000/svg" id="1" width="1680" height="909">
    <rect width="100%" height="100%" fill="#fff"/>
    
<path d="M574 352 L574 354 L574 370 L574 423 L576 466 L578 528 L580 564 L580 586 L580 596 L580 599" fill="none" stroke="#0064FF" stroke-width="2"/><path d="M595 338 L597 338 L636 338 L699 338 L780 338 L806 338 L836 338 L863 338 L872 338 L877 338 L876 339 L875 339 L873 340 L871 343 L866 360 L863 400 L860 474 L859 546 L859 609 L859 627 L859 648 L859 658 L859 660 L859 661 L858 660 L851 660 L834 660 L792 660 L743 661 L709 664 L681 667 L654 670 L633 672 L617 674 L608 675 L602 676 L599 676 L597 676 L596 676 L596 677 L595 677 L593 677 L591 677 L589 677 L587 677 L586 677 L586 670 L586 654 L586 630 L587 610 L587 600 L589 590 L589 586 L589 585" fill="none" stroke="#0064FF" stroke-width="2"/></svg>