<svg xmlns="http://www.w3.org/2000/svg" id="1" width="1680" height="909">
    <rect width="100%" height="100%" fill="#fff"/>
    
<path d="M688 359 L688 360 L688 375 L688 407 L688 450 L688 477 L688 494 L688 501 L688 505" fill="none" stroke="#0064FF" stroke-width="2"/><path d="M696 364 L697 364 L723 364 L765 364 L799 364 L823 364 L840 364 L849 364 L856 364 L859 364 L860 364 L860 365 L859 368 L857 378 L855 417 L854 475 L854 525 L853 575 L852 602 L852 614 L851 623 L851 626 L851 627 L851 626 L846 625 L833 625 L801 625 L772 625 L735 625 L713 625 L693 625 L679 625 L672 625 L669 625 L667 625 L666 626 L665 626 L665 625 L666 624 L667 620 L670 612 L672 599 L674 581 L677 562 L678 543 L679 532 L679 519 L680 515 L681 510 L681 508 L681 506 L681 504 L681 503" fill="none" stroke="#0064FF" stroke-width="2"/><path d="M682 502 L687 502 L711 502 L736 502 L772 502 L800 502 L812 502 L820 502 L828 502 L831 502 L832 502 L832 502" fill="none" stroke="#0064FF" stroke-width="2"/><path d="M779 392 L779 396 L779 420 L779 459 L779 505 L779 528 L779 542 L779 549 L779 553" fill="none" stroke="#0064FF" stroke-width="2"/></svg>