<svg xmlns="http://www.w3.org/2000/svg" id="1" width="1680" height="909">
    <rect width="100%" height="100%" fill="#fff"/>
    
<path d="M825 255 L824 255 L821 255 L815 261 L797 282 L780 307 L758 336 L733 371 L718 392 L681 439 L654 472 L631 496 L624 503 L614 512 L610 515 L609 517" fill="none" stroke="#0064FF" stroke-width="2"/><path d="M1030 355 L1029 355 L1021 356 L1000 372 L942 419 L906 449 L853 494 L808 538 L786 560 L766 582 L755 595 L748 607 L743 611 L740 616 L739 617 L739 618 L739 618" fill="none" stroke="#0064FF" stroke-width="2"/><path d="M691 253 L690 253 L690 254 L702 265 L757 318 L826 394 L876 450 L913 487 L934 512 L936 515 L941 520 L943 522 L944 523 L945 524 L948 527 L951 530" fill="none" stroke="#0064FF" stroke-width="2"/><path d="M572 355 L576 357 L608 399 L673 486 L748 587 L799 645 L835 685 L843 692 L852 700 L857 702 L858 702 L859 702" fill="none" stroke="#0064FF" stroke-width="2"/></svg>