<svg xmlns="http://www.w3.org/2000/svg" id="1" width="1680" height="909">
    <rect width="100%" height="100%" fill="#fff"/>
    
<path d="M574 352 L574 354 L574 370 L574 423 L576 466 L578 528 L580 564 L580 586 L580 596 L580 599" fill="none" stroke="#0064FF" stroke-width="2"/><path d="M595 338 L597 338 L636 338 L699 338 L780 338 L806 338 L836 338 L863 338 L872 338 L877 338 L876 339 L875 339 L873 340 L871 343 L866 360 L863 400 L860 474 L859 546 L859 609 L859 627 L859 648 L859 658 L859 660 L859 661 L858 660 L851 660 L834 660 L792 660 L743 661 L709 664 L681 667 L654 670 L633 672 L617 674 L608 675 L602 676 L599 676 L597 676 L596 676 L596 677 L595 677 L593 677 L591 677 L589 677 L587 677 L586 677 L586 670 L586 654 L586 630 L587 610 L587 600 L589 590 L589 586 L589 585" fill="none" stroke="#0064FF" stroke-width="2"/><path d="M711 416 L711 417 L711 420 L709 428 L706 436 L704 442 L701 451 L698 459 L692 469 L689 477 L684 489 L679 495 L676 501 L673 509 L670 517 L664 527 L658 537 L653 547 L650 551 L648 555 L647 557 L646 558 L645 559 L644 562 L642 564 L641 566 L639 568 L639 569 L637 570 L636 572 L635 573 L635 574 L634 574 L634 575 L637 575 L647 575 L664 575 L679 575 L698 575 L718 574 L744 573 L760 571 L773 569 L783 568 L792 567 L797 566 L801 566 L803 566 L804 566 L805 566 L806 566 L808 566 L811 566 L814 566 L815 566 L816 566 L816 565 L814 562 L809 556 L801 546 L790 533 L783 524 L775 513 L763 499 L756 490 L748 481 L745 477 L741 473 L739 468 L737 465 L735 461 L732 457 L728 451 L724 445 L722 441 L719 435 L716 431 L714 427 L712 423 L712 422 L710 419 L708 416 L706 414 L705 411 L704 409 L702 408 L702 407" fill="none" stroke="#0064FF" stroke-width="2"/><path d="M683 489 L684 489 L686 489 L690 489 L693 489 L698 489 L702 489 L705 489 L709 489 L712 489 L716 489 L719 489 L721 489 L723 489 L724 489 L726 489 L727 489 L729 489 L731 489 L732 489 L734 489 L737 489 L739 489 L740 488 L742 488 L743 487 L744 487 L745 487 L747 486 L748 486 L749 486 L750 486 L751 486 L750 486 L746 491 L742 502 L738 511 L732 524 L727 535 L722 546 L717 556 L713 566 L711 571 L709 576 L708 578 L707 580 L707 581 L707 580 L707 579 L707 578 L707 574 L707 569 L707 561 L707 555 L704 547 L701 538 L696 525 L693 514 L691 507 L686 500 L684 495 L682 493 L682 492 L681 492" fill="none" stroke="#0064FF" stroke-width="2"/></svg>