<svg xmlns="http://www.w3.org/2000/svg" id="1" width="1680" height="953">
    <rect width="100%" height="100%" fill="#fff"/>
    
<path d="M716 302 L718 302 L725 302 L737 302 L753 302 L768 302 L782 302 L798 302 L815 308 L828 316 L842 327 L848 335 L858 346 L864 359 L869 372 L873 386 L874 408 L874 436 L872 464 L858 502 L839 531 L812 558 L787 576 L756 589 L714 592 L675 592 L615 568 L581 547 L556 528 L534 507 L518 482 L506 455 L501 433 L496 397 L496 368 L496 338 L499 305 L502 283 L509 261 L516 249 L524 241 L538 233 L547 227 L558 223 L570 221 L583 220 L597 220 L610 221 L620 224 L628 228 L635 233 L642 238 L650 245 L658 251 L666 258 L672 267 L679 273 L684 279 L689 285 L691 288 L695 290 L696 292 L697 293 L697 294 L698 294 L698 296 L698 300 L699 307 L700 315 L700 321 L701 326 L702 329 L702 330 L703 331 L704 331 L704 334 L704 369 L702 406 L699 436 L699 459 L699 477 L699 484 L699 487 L699 488 L699 487 L701 487 L702 486 L688 486 L656 481 L617 479 L595 477 L580 477 L569 477 L564 477 L562 477 L561 477 L568 477 L594 483 L672 489 L737 489 L789 488 L824 486 L855 486 L868 486 L874 486 L878 486 L879 486 L879 485 L880 485 L880 484" fill="none" stroke="#0064FF" stroke-width="2"/><path d="M595 340 L596 340 L596 341 L596 344 L596 347 L596 350 L596 353 L596 355 L596 358 L597 360 L597 361 L597 361 L597 363 L597 367 L595 370 L593 374 L589 377 L585 379 L583 381 L582 382 L581 382 L581 383 L581 384 L585 384 L589 384 L594 385 L600 386 L606 386 L611 386 L615 386 L619 386 L621 385 L623 384 L625 381 L626 379 L628 374 L629 369 L630 364 L630 359 L630 353 L630 349 L628 345 L625 340 L622 336 L618 333 L614 331 L612 330 L609 330 L607 330 L604 330 L602 331 L600 332 L599 333 L597 336 L596 338 L594 340 L593 341" fill="none" stroke="#0064FF" stroke-width="2"/><path d="M763 360 L763 362 L763 364 L764 367 L764 371 L767 377 L769 382 L772 389 L775 395 L776 399 L777 403 L778 405 L778 406 L778 407 L778 408 L777 410 L775 412 L772 414 L769 415 L766 416 L765 416 L766 416 L770 415 L775 413 L778 411 L781 410 L783 408 L783 407 L782 407 L778 406 L771 405 L764 402 L758 401 L753 399 L748 396 L746 395 L745 393 L745 392 L745 391 L745 389 L745 388 L746 384 L747 380 L749 376 L751 373 L753 372 L756 370 L760 368 L762 365 L765 363 L766 362 L768 362 L769 362" fill="none" stroke="#0064FF" stroke-width="2"/></svg>