<?xml version="1.0"?>
<svg xmlns="http://www.w3.org/2000/svg" width="2070" height="1530">
  <g transform="translate(509,444.3)">
    <path d="m 0,0 4,2.4 m 35.7,61.8 0,4.7 M -109.6,44.3 -28.2,-2.8 m 56.3,97.5 -81.5,47 m -96.3,-100.9 24.5,-14.1 m 79.3,137.3 -24.5,14.1 m -108.2,-112.3 16,-9.3 m 72.1,124.9 -16.1,9.3 M -212.8,77.2 -182.2,59.6 m 79.2,137.3 -30.5,17.6 m -39.7,-3.9 -2,-1.2 m -54,-93.5 0,-2.4 M -39.8,23 l 0.1,3.8 0.4,3.9 0.6,3.9 0.9,4.1 1.2,4.1 1.3,4.2 1.6,4.1 1.9,4.1 2,4 2.2,4 2.4,3.8 2.6,3.7 2.7,3.5 2.8,3.4 2.9,3.1 3.1,3 3.1,2.7 3.2,2.4 3.2,2.1 3.2,1.9 3.1,1.5 3.2,1.2 3.1,0.9 3.1,0.6 2.9,0.3 2.8,-0.1 2.7,-0.4 2.6,-0.8 2.4,-1 2.2,-1.4 2,-1.7 1.9,-2 1.6,-2.3 1.3,-2.5 1.2,-2.8 0.9,-3.1 0.6,-3.2 0.4,-3.5 0.1,-3.6 M 0,0 -1.6,-0.9 -4.8,-2.4 -8,-3.6 l -3.1,-1 -3.1,-0.5 -2.9,-0.3 -2.8,0.1 -2.7,0.4 -2.6,0.8 -2.4,1 -2.2,1.4 -2,1.7 -1.9,2 -1.6,2.3 -1.3,2.5 -1.2,2.8 -0.9,3.1 -0.6,3.2 -0.4,3.5 -0.1,3.6 m 8.1,0 0.2,-3.4 0.3,-3.3 0.7,-3 0.9,-2.9 1.1,-2.6 1.4,-2.3 1.5,-2.1 1.9,-1.7 2,-1.5 2.1,-1.2 2.4,-0.8 2.5,-0.5 2.7,-0.2 2.7,0.2 2.9,0.4 2.9,0.9 3,1.1 3,1.4 3,1.8 3.1,2 2.9,2.3 3,2.6 2.8,2.8 2.8,3.1 2.6,3.2 2.6,3.4 2.3,3.6 2.2,3.6 2,3.8 1.8,3.9 1.6,3.9 1.4,3.9 1.1,3.9 0.9,3.9 0.6,3.7 0.4,3.7 0.1,3.6 -0.1,3.4 -0.4,3.3 -0.6,3 -0.9,2.9 -1.1,2.6 -1.4,2.3 -1.6,2.1 -1.8,1.7 -2,1.5 -2.2,1.2 -2.3,0.8 -2.6,0.5 -2.6,0.2 -2.8,-0.2 -2.8,-0.5 -3,-0.8 -2.9,-1.1 -3.1,-1.4 -3,-1.8 -3,-2 -3,-2.3 -2.9,-2.6 -2.9,-2.8 -2.7,-3.1 -2.7,-3.2 -2.5,-3.4 -2.4,-3.6 -2.1,-3.7 -2,-3.7 -1.9,-3.9 -1.5,-3.9 -1.4,-3.9 -1.1,-3.9 -0.9,-3.9 -0.7,-3.7 -0.3,-3.7 -0.2,-3.6 m -89.6,47 0.2,3.8 0.3,3.9 0.7,4 0.9,4 1.1,4.2 1.4,4.1 1.6,4.1 1.8,4.1 2,4 2.2,4 2.4,3.8 2.6,3.7 2.7,3.6 2.8,3.3 3,3.2 3,2.9 3.1,2.7 3.2,2.4 3.2,2.1 3.2,1.9 3.2,1.5 3.1,1.3 3.2,0.9 3,0.6 2.9,0.2 2.9,-0.1 2.7,-0.4 2.5,-0.7 2.4,-1.1 0.6,-0.3 m -56.2,-97.4 -1.7,1 -2,1.7 -1.8,2 -1.6,2.3 -1.4,2.5 -1.1,2.9 -0.9,3 -0.7,3.2 -0.3,3.5 -0.2,3.6 m 98.7,-41.7 0.1,3.1 0.4,3.2 0.6,3.3 0.9,3.3 1.1,3.4 1.4,3.4 1.5,3.3 1.8,3.2 1.9,3.2 2.1,3 2.3,2.8 2.3,2.7 2.5,2.4 2.5,2.2 2.6,2 2.6,1.6 2.6,1.4 2.6,1 2.6,0.8 2.4,0.4 2.4,0 2.2,-0.2 2.1,-0.6 2,-0.9 1.7,-1.2 1.6,-1.6 1.3,-1.8 1.1,-2.1 0.9,-2.3 0.7,-2.6 0.3,-2.7 0.2,-3 -0.2,-3 -0.3,-3.3 -0.7,-3.2 -0.9,-3.4 -1.1,-3.4 -1.3,-3.3 -1.6,-3.4 -1.7,-3.2 -2,-3.2 -2.1,-3 L 16.6,23.8 14.2,21.1 11.8,18.7 9.2,16.5 6.6,14.6 4,12.9 1.4,11.5 -1.2,10.5 -3.7,9.8 -6.2,9.4 -8.5,9.3 l -2.3,0.2 -2.1,0.6 -1.9,0.9 -1.8,1.3 -1.5,1.5 -1.4,1.8 -1.1,2.1 -0.9,2.3 -0.6,2.6 -0.4,2.7 -0.1,3 m 0,1.2 0.1,-1.7 0.4,-2.7 0.7,-2.4 0.8,-2.2 1.2,-2 1.3,-1.7 1.6,-1.4 1.8,-1.1 1.9,-0.7 2.1,-0.4 2.3,-0.1 2.3,0.2 2.4,0.6 2.5,0.9 2.6,1.3 2.5,1.5 2.5,1.8 2.5,2.1 2.4,2.4 2.3,2.5 2.1,2.8 2,2.9 1.9,3.1 1.7,3.1 1.4,3.3 1.3,3.2 1,3.3 0.8,3.2 0.5,3.2 0.3,3.1 0,2.9 -0.3,2.7 -0.5,2.6 -0.8,2.4 -1,2 -1.3,1.9 -1.4,1.5 -1.7,1.2 -1.9,1 -2,0.5 -2.1,0.3 L 11.3,76.5 8.9,76.1 6.4,75.3 3.9,74.3 3,73.8 M -141.6,63 l 0.1,4.4 0.4,4.6 0.6,4.7 0.9,4.7 1.1,4.8 1.4,4.9 1.6,4.9 1.8,4.9 2.1,4.8 2.3,4.9 2.4,4.7 2.7,4.6 2.8,4.6 3,4.4 3.2,4.2 3.2,4.1 3.4,3.9 3.5,3.7 3.6,3.4 3.7,3.3 3.7,2.9 3.8,2.7 3.8,2.4 3.8,2.1 3.7,1.8 3.8,1.5 3.7,1.2 3.6,0.9 3.6,0.5 3.4,0.2 3.4,-0.1 3.2,-0.5 3,-0.8 3,-1.1 2.7,-1.4 2.6,-1.7 2.3,-2.1 2.2,-2.3 1.9,-2.7 1.8,-2.9 1.5,-3.1 1.2,-3.4 1,-3.6 0.8,-3.9 0.5,-4 0.3,-4.2 0,-2 m -56.3,-97.4 -0.7,-0.5 -3.8,-1.9 -3.8,-1.7 -3.7,-1.3 -3.7,-1 -3.6,-0.7 -3.5,-0.4 -3.4,0 -3.2,0.3 -3.2,0.6 -3,0.9 -2.8,1.3 -2.7,1.6 -2.4,1.9 -2.3,2.2 -2.1,2.5 -1.8,2.7 -1.6,3.1 -1.4,3.2 -1.1,3.5 -0.9,3.8 -0.6,3.9 -0.4,4.2 -0.1,4.3 m 8.1,0 0.1,-4.2 0.4,-4 0.7,-3.8 0.9,-3.6 1.1,-3.3 1.4,-3.2 1.6,-2.8 1.9,-2.6 2,-2.3 2.3,-2 2.5,-1.7 2.7,-1.4 2.8,-1 3,-0.8 3.1,-0.4 3.3,0 3.4,0.2 3.4,0.6 3.6,1 3.6,1.2 3.6,1.6 0.2,0.1 m 56.2,97.4 -0.1,1.2 -0.5,3.9 -0.8,3.7 -1,3.4 -1.3,3.3 -1.5,3 -1.7,2.7 -2,2.4 -2.2,2.2 -2.4,1.8 -2.5,1.6 -2.8,1.2 -2.9,0.9 -3.1,0.6 -3.2,0.2 -3.3,-0.1 -3.4,-0.5 -3.5,-0.7 -3.6,-1.1 -3.6,-1.4 -3.7,-1.8 -3.6,-2 -3.7,-2.4 -3.6,-2.6 -3.6,-2.9 -3.6,-3.1 -3.4,-3.4 -3.4,-3.7 -3.3,-3.8 -3.1,-4 -3,-4.2 -2.8,-4.3 -2.7,-4.5 -2.5,-4.5 -2.3,-4.7 -2,-4.6 -1.9,-4.8 -1.6,-4.7 -1.4,-4.7 -1.1,-4.7 -0.9,-4.7 -0.7,-4.5 -0.4,-4.4 -0.1,-4.3 m -32.6,14.1 0.1,4.4 0.4,4.6 0.7,4.7 0.9,4.7 1.1,4.9 1.4,4.8 1.6,4.9 1.8,4.9 2.1,4.9 2.2,4.8 2.5,4.7 2.7,4.7 2.8,4.5 3,4.4 3.1,4.3 3.3,4 3.4,3.9 3.5,3.7 3.6,3.5 3.7,3.2 3.7,2.9 3.8,2.7 3.7,2.4 3.8,2.1 3.8,1.8 3.7,1.5 3.7,1.2 3.7,0.9 3.5,0.5 3.5,0.2 3.3,-0.1 3.2,-0.5 3.1,-0.8 2.9,-1.1 2.4,-1.2 m -79.3,-137.3 -1.6,1 -2.5,1.9 -2.2,2.2 -2.1,2.5 -1.8,2.7 -1.6,3.1 -1.4,3.2 -1.1,3.6 -0.9,3.7 -0.7,3.9 -0.4,4.2 -0.1,4.3 m -27.5,21.7 0.2,4.2 0.3,4.4 0.7,4.4 0.8,4.6 1.2,4.6 1.3,4.6 1.6,4.7 1.8,4.6 2.1,4.6 2.2,4.5 2.4,4.5 2.7,4.4 2.7,4.2 3,4.1 3,3.9 3.2,3.8 3.3,3.5 3.4,3.4 3.5,3.1 3.5,2.8 3.6,2.6 3.6,2.3 3.6,2 3.6,1.7 3.5,1.4 3.5,1.1 3.5,0.7 3.3,0.4 3.3,0.1 3.1,-0.2 3,-0.5 2.9,-0.9 2.7,-1.2 0.9,-0.5 m -72,-124.9 -0.4,0.2 -2.4,1.7 -2.2,1.9 -2.1,2.3 -1.8,2.5 -1.6,2.8 -1.3,3.1 -1.2,3.3 -0.8,3.5 -0.7,3.7 -0.3,3.9 -0.2,4.1 m 28,-13.6 -0.4,2.4 -0.6,2.6 -0.8,2.6 -1.2,2.6 -1.3,2.4 -1.6,2.2 -1.7,2 -1.9,1.5 -2,1.1 -2,0.6 -2,0.2 -1.9,-0.3 -1.7,-0.6 -1.6,-1.1 -1.2,-1.5 -0.9,-1.8 -0.6,-2.1 -0.1,-2.2 0.3,-2.3 0.7,-2.4 1,-2.4 1.3,-2.4 1.6,-2.3 1.9,-2.1 1.9,-2 2.1,-1.7 2,-1.4 2,-1 1.8,-0.6 1.6,-0.3 1.4,0.1 1.3,0.4 1.1,0.9 0.8,1.4 0.3,1.1 m 27.9,90.5 2.1,-0.9 2.4,-0.8 2.6,-0.3 2.7,-0.1 2.8,0.2 2.8,0.5 2.7,0.6 2.5,0.9 1,0.5 m 5.1,3.3 0.8,0.9 0.8,1.3 0.3,1.3 -0.2,1.4 -0.7,1.3 -1,1.3 -1.6,1.3 -1.8,1.2 -2.2,1 -2.4,0.9 -2.6,0.8 -2.7,0.5 -2.8,0.3 -2.8,0 -2.7,-0.4 -2.4,-0.6 -2.3,-0.9 -1.8,-1.2 -1.5,-1.5 -1.1,-1.6 -0.6,-1.8 -0.3,-1.8 0.3,-1.9 0.7,-1.8 1.2,-1.7 2.7,-2.2 m -60.6,-73.4 0.2,4.4 0.3,4.6 0.7,4.7 0.9,4.7 1.1,4.9 1.4,4.8 1.6,4.9 1.8,4.9 2.1,4.9 2.3,4.8 2.4,4.7 2.7,4.7 2.8,4.5 3,4.4 3.1,4.3 3.3,4 3.4,3.9 3.5,3.7 3.6,3.5 3.7,3.2 3.7,2.9 3.8,2.7 3.8,2.4 3.7,2.1 3.8,1.8 3.8,1.5 3.7,1.2 3.6,0.9 3.5,0.5 3.5,0.2 3.3,-0.1 3.2,-0.5 3.1,-0.8 2.9,-1.1 2.8,-1.4 2.5,-1.7 2.4,-2.1 2.2,-2.3 1.9,-2.6 1.7,-2.9 1.5,-3.2 0.2,-0.5 m -72.2,-125.2 -3.2,-0.3 -3.4,0 -3.3,0.3 -3.1,0.6 -3,0.9 -2.8,1.3 -2.7,1.6 -2.4,1.9 -2.3,2.2 -2.1,2.5 -1.8,2.7 -1.6,3.1 -1.4,3.2 -1.1,3.6 -0.9,3.7 -0.7,3.9 -0.3,4.2 -0.2,4.3 m 65.2,118.6 -1,0.6 -2.9,1.3 -2.9,0.9 -3.2,0.6 -3.3,0.3 -3.4,0 -3.5,-0.4 -3.6,-0.7 -3.6,-1 -3.8,-1.3 -3.7,-1.7 -3.8,-1.9 -3.8,-2.3 -3.8,-2.6 -3.7,-2.8 -3.7,-3.1 -3.6,-3.3 -3.6,-3.6 -3.4,-3.8 -3.4,-3.9 -3.2,-4.2 -3.1,-4.3 -2.9,-4.5 -2.7,-4.6 -2.6,-4.7 -2.4,-4.8 -2.1,-4.8 -2,-4.9 -1.7,-4.9 -1.5,-4.9 -1.2,-4.8 -1.1,-4.8 -0.7,-4.7 -0.5,-4.7 -0.3,-4.5 0,-4.4 0.3,-4.2 0.5,-4 0.7,-3.9 1.1,-3.6 1.2,-3.4 1.5,-3.1 1.7,-2.9 2,-2.7 2.1,-2.3 2.4,-2.1 2.6,-1.7 0.3,-0.2 m -16.4,38.7 0,2.1 0.3,4.5 0.5,4.5 0.8,4.7 1,4.7 1.2,4.8 1.5,4.8 1.8,4.8 1.9,4.8 2.2,4.8 2.4,4.7 2.5,4.6 2.8,4.5 2.9,4.3 3.1,4.3 3.2,4 3.3,3.9 3.5,3.6 3.5,3.5 3.6,3.1 3.7,3 3.7,2.6 3.7,2.4 0.9,0.5" connector-curvature="0" id="path696" style="fill:none;stroke:#000000;stroke-width:0.70899999;stroke-linecap:round;stroke-linejoin:round;stroke-miterlimit:10;stroke-opacity:1;stroke-dasharray:none"/>
  </g>
</svg>
