<?xml version="1.0"?>
<svg xmlns="http://www.w3.org/2000/svg" width="2070" height="1530">
  <g transform="translate(509,444.3)">
    <path d="m 0,0 -2.9,-2.9 m 0,-152.8 2.9,-2.9 m 89.3,0 34.5,0 M 123.8,0 89.3,0 M 0,-158.6 l 43.2,0 M 43.2,0 0,0 m 123.8,-158.6 5.8,5.7 m 0,147.1 -5.8,5.8 m -40.9,-151.4 6.4,0 m -46.1,0 6.4,0 m 0,144.2 -6.4,0 m 46.1,0 -6.4,0 m 161.9,-128.4 5.7,5.8 m 0,101 -5.7,5.7 m -115.2,-112.5 115.2,0 m 0,112.5 -115.2,0 m -132.5,-9.1 -0.1,-0.5 -0.1,-0.6 -0.3,-0.5 -0.3,-0.4 -0.5,-0.3 -0.5,-0.3 -0.5,-0.2 -0.6,0 m 0,-88.6 0.6,-0.1 0.5,-0.1 0.5,-0.3 0.5,-0.4 0.3,-0.4 0.3,-0.5 0.1,-0.5 0.1,-0.6 m -13,91.5 -12.9,-13 m 0,-62.7 12.9,-12.9 m 0,0 10.1,0 m 0,88.6 -10.1,0 m 13,-120.7 0,0 0,0.3 0,0.6 0,1 0,1.3 0,1.7 0,2.1 0,2.3 0,2.7 0,3 0,3.3 0,3.6 0,3.8 0,4.1 0,4.3 0,4.5 0,4.6 0,4.9 0,4.9 0,5.1 0,5.2 0,5.2 0,5.2 0,5.3 0,5.3 0,5.2 0,5.2 0,5 0,5 0,4.8 0,4.7 0,4.5 0,4.3 0,4 0,3.9 0,3.5 0,3.3 0,3 0,2.7 0,2.4 0,2 0,1.7 0,1.4 0,1 0,0.6 0,0.3 M 0,0 l 0,-0.1 0,-0.5 0,-0.8 0,-1.2 0,-1.5 0,-1.8 0,-2.2 0,-2.6 0,-2.8 0,-3.1 0,-3.4 0,-3.7 0,-4 0,-4.2 0,-4.4 0,-4.5 0,-4.8 0,-4.9 0,-5.1 0,-5.2 0,-5.2 0,-5.3 0,-5.3 0,-5.4 0,-5.3 0,-5.4 0,-5.2 0,-5.2 0,-5 0,-4.9 0,-4.8 0,-4.6 0,-4.4 0,-4.2 0,-3.9 0,-3.7 0,-3.4 0,-3.2 0,-2.8 0,-2.5 0,-2.2 0,-1.9 0,-1.5 0,-1.1 0,-0.9 0,-0.4 0,-0.1 m 123.8,79.3 0,5.3 0,5.4 0,5.2 0,5.2 0,5.2 0,4.9 0,4.9 0,4.7 0,4.5 0,4.3 0,4 0,3.8 0,3.6 0,3.3 0,3 0,2.6 0,2.4 0,2 0,1.7 0,1.4 0,0.9 0,0.7 0,0.2 0,0.1 m 0,-158.6 0,0 0,0.3 0,0.6 0,1 0,1.3 0,1.7 0,2.1 0,2.3 0,2.7 0,3 0,3.3 0,3.5 0,3.8 0,4.1 0,4.3 0,4.5 0,4.7 0,4.8 0,5 0,5.1 0,5.2 0,5.3 0,5.3 0,5.4 m -34.5,0 0,5.3 0,5.4 0,5.2 0,5.2 0,5.2 0,4.9 0,4.9 0,4.7 0,4.5 0,4.3 0,4 0,3.8 0,3.6 0,3.3 0,3 0,2.6 0,2.4 0,2 0,1.7 0,1.4 0,0.9 0,0.7 0,0.2 0,0.1 m 0,-158.6 0,0 0,0.3 0,0.6 0,1 0,1.3 0,1.7 0,2.1 0,2.3 0,2.7 0,3 0,3.3 0,3.5 0,3.8 0,4.1 0,4.3 0,4.5 0,4.7 0,4.8 0,5 0,5.1 0,5.2 0,5.3 0,5.3 0,5.4 m -46.1,0 0,5.3 0,5.4 0,5.2 0,5.2 0,5.2 0,4.9 0,4.9 0,4.7 0,4.5 0,4.3 0,4 0,3.8 0,3.6 0,3.3 0,3 0,2.6 0,2.4 0,2 0,1.7 0,1.4 0,0.9 0,0.7 0,0.2 0,0.1 m 0,-158.6 0,0 0,0.3 0,0.6 0,1 0,1.3 0,1.7 0,2.1 0,2.3 0,2.7 0,3 0,3.3 0,3.5 0,3.8 0,4.1 0,4.3 0,4.5 0,4.7 0,4.8 0,5 0,5.1 0,5.2 0,5.3 0,5.3 0,5.4 m 86.4,0 0,-5.2 0,-5.2 0,-5.1 0,-5 0,-4.9 0,-4.8 0,-4.7 0,-4.5 0,-4.3 0,-4 0,-3.9 0,-3.5 0,-3.3 0,-3 0,-2.7 0,-2.4 0,-2.1 0,-1.7 0,-1.3 0,-1 0,-0.7 0,-0.2 0,-0.1 m 0,147.1 0,0 0,-0.3 0,-0.6 0,-1 0,-1.4 0,-1.7 0,-2 0,-2.4 0,-2.7 0,-3 0,-3.3 0,-3.6 0,-3.8 0,-4.1 0,-4.3 0,-4.5 0,-4.6 0,-4.8 0,-4.9 0,-5.1 0,-5.1 0,-5.1 0,-5.2 m -63.4,70.1 2.7,0.1 2.8,0.1 2.5,0.3 2.3,0.3 2,0.3 1.8,0.3 1.3,0.3 0.9,0.2 0.4,0.1 0,-0.1 m -33.3,0.1 0.1,-0.1 0.6,-0.1 1,-0.2 1.4,-0.3 1.8,-0.3 2.2,-0.3 2.4,-0.3 2.7,-0.2 4.4,-0.2 m 16.7,-142.2 -0.1,0 -0.5,0.1 -0.9,0.2 -1.3,0.3 -1.8,0.3 -2.1,0.4 -2.4,0.3 -2.6,0.2 -2.8,0.1 -2.7,0.1 -2.8,-0.1 -2.6,-0.2 -2.5,-0.2 -2.2,-0.3 -2,-0.4 -1.7,-0.3 -1.3,-0.3 -0.7,-0.1 -0.4,-0.1 0.1,0 m 33.3,72.2 -0.2,2.7 -0.7,2.7 -1.1,2.5 -1.5,2.3 -1.9,2.1 -2.2,1.7 -2.5,1.3 -2.7,0.9 -2.8,0.4 -2.8,0 -2.7,-0.5 -2.6,-1 -2.4,-1.3 -2.1,-1.7 -1.9,-2.2 -1.5,-2.4 -1,-2.6 -0.6,-2.8 -0.2,-2.7 0.4,-2.8 0.7,-2.6 1.2,-2.5 1.6,-2.2 1.9,-2 2.3,-1.7 2.6,-1.2 2.7,-0.8 2.8,-0.3 2.8,0.1 2.7,0.6 2.5,1 2.3,1.4 2.1,1.9 1.8,2.1 1.4,2.5 1,2.6 0.6,4.5 m 161.9,-0.1 0,4.5 0,4.5 0,4.4 0,4.4 0,4.2 0,4.1 0,3.9 0,3.8 0,3.5 0,3.2 0,3 0,2.8 0,2.4 0,2.1 0,1.8 0,1.4 0,1.1 0,0.7 0,0.4 m 0,-112.5 0,0.1 0,0.3 0,0.8 0,1 0,1.5 0,1.8 0,2.1 0,2.4 0,2.7 0,3 0,3.3 0,3.5 0,3.7 0,3.9 0,4.1 0,4.3 0,4.3 0,4.5 0,4.4 0,4.6 m 5.7,0 0,-4.3 0,-4.3 0,-4.1 0,-4.1 0,-4 0,-3.8 0,-3.7 0,-3.4 0,-3.3 0,-2.9 0,-2.7 0,-2.4 0,-2.1 0,-1.8 0,-1.4 0,-1.1 0,-0.7 0,-0.4 m 0,101 0,-0.1 0,-0.3 0,-0.8 0,-1.1 0,-1.4 0,-1.7 0,-2.1 0,-2.4 0,-2.7 0,-3 0,-3.2 0,-3.5 0,-3.6 0,-3.8 0,-4 0,-4.1 0,-4.2 0,-4.2 0,-4.3 m -279.3,-31.4 0,0.1 0,0.4 0,0.7 0,1.1 0,1.4 0,1.7 0,2.1 0,2.3 0,2.6 0,2.8 0,3 0,3.2 0,3.2 0,3.4 0,3.4 0,3.4 0,3.3 0,3.3 0,3.1 0,3 0,2.8 0,2.6 0,2.4 0,2 0,1.8 0,1.4 0,1.1 0,0.7 0,0.4 m 12.9,13 0,-0.1 0,-0.5 0,-0.8 0,-1.2 0,-1.5 0,-1.9 0,-2.1 0,-2.5 0,-2.8 0,-3 0,-3.2 0,-3.5 0,-3.6 0,-3.7 0,-3.9 0,-4 0,-4 0,-4 0,-4.1 0,-3.9 0,-3.9 0,-3.8 0,-3.6 0,-3.4 0,-3.3 0,-3 0,-2.7 0,-2.5 0,-2.2 0,-1.8 0,-1.6 0,-1.1 0,-0.9 0,-0.4 0,-0.1" connector-curvature="0" id="path692" style="fill:none;stroke:#000000;stroke-width:0.70899999;stroke-linecap:round;stroke-linejoin:round;stroke-miterlimit:10;stroke-opacity:1;stroke-dasharray:none"/>
  </g>
</svg>
