<?xml version="1.0"?>
<svg xmlns="http://www.w3.org/2000/svg" width="2070" height="1530">
  <g transform="translate(509,444.3)">
    <path d="m 0,0 6.4,0 m -39.8,0 0.2,0 0.7,0.3 1,0.3 1.5,0.5 1.7,0.5 2.2,0.6 2.5,0.5 2.8,0.3 2.7,0.2 2.8,0 2.5,-0.1 2.6,-0.4 2.3,-0.4 2.1,-0.5 2,-0.5 L -2.2,0.7 -1,0.3 -0.2,0.1 0,0 m -39.7,0 6.3,0 m 0,86.4 -6.3,0 m 39.7,0 0,0 -0.2,-0.1 -0.6,-0.3 -1.1,-0.3 -1.4,-0.5 -1.8,-0.5 -2.2,-0.6 -2.4,-0.5 -2.8,-0.4 -2.7,-0.2 -2.9,0 -2.5,0.2 -2.5,0.3 -2.3,0.5 -2.2,0.5 -1.9,0.5 -1.6,0.6 -1.2,0.4 -0.8,0.3 -0.3,0.1 m 39.8,0 -6.4,0 m -16.7,-26.6 2.7,-0.2 2.6,-0.7 2.5,-1 2.2,-1.4 2.1,-1.9 1.7,-2.1 1.4,-2.5 1,-2.8 0.5,-2.7 0,-2.8 -0.4,-2.6 -0.9,-2.5 -1.2,-2.3 -1.5,-2.1 -2,-2 -2.3,-1.6 -2.6,-1.2 -2.9,-0.8 -2.7,-0.2 -2.7,0.2 -2.5,0.6 -2.4,0.9 -2.3,1.4 -2,1.7 -1.9,2.2 -1.4,2.4 -1,2.7 -0.6,2.8 0,2.7 0.3,2.7 0.8,2.5 1.1,2.4 1.6,2.2 1.9,1.9 2.3,1.7 2.6,1.2 2.9,0.9 3.1,0.3 m -16.7,26.6 0,28.9 m 33.4,0 0,0 -0.2,-0.1 -0.7,-0.2 -1.1,-0.2 -1.5,-0.3 -1.9,-0.3 -2.2,-0.3 -2.5,-0.3 -2.7,-0.2 -2.8,-0.1 -2.8,0 -2.7,0.1 -2.6,0.2 -2.3,0.3 -2.2,0.3 -1.8,0.3 -1.6,0.3 -1,0.3 -0.6,0.1 -0.2,0.1 M 0,115.3 0,86.4 M 0,0 0,-28.9 m -33.4,0 0.3,0 0.6,0.2 1.1,0.2 1.6,0.3 1.8,0.3 2.3,0.3 2.4,0.3 2.8,0.2 2.7,0.1 2.8,0 2.7,-0.1 2.6,-0.2 2.4,-0.3 2.2,-0.3 1.8,-0.3 1.5,-0.3 1.1,-0.3 0.6,-0.1 0.1,0 m -33.4,0 0,28.9 m 0,115.3 -6.3,0 m 0,-144.2 6.3,0 m 33.4,0 6.4,0 m 0,144.2 -6.4,0 M 6.4,8.4 l 158.4,0 m 0,0 2.8,-2.9 m 0,-12.8 0,12.8 m 0,-12.8 -5.7,-5.8 m -115.2,0 115.2,0 m -115.2,-17.3 0,17.3 m 0,-17.3 -5.8,-5.7 m -34.5,0 34.5,0 m -34.5,7.2 0,-7.2 m 0,36.1 0,8.4 m 34.5,114.1 -34.5,0 m -89.3,-158.6 43.2,0 m 0,158.6 -43.2,0 m 0,-158.6 -2.9,2.9 m 0,29.2 0,-29.2 m -2.9,32.1 0.6,-0.1 0.5,-0.1 0.5,-0.3 0.5,-0.4 0.3,-0.4 0.3,-0.5 0.1,-0.5 0.1,-0.6 m -13,2.9 10.1,0 m -10.1,0 -12.9,12.9 m 0,31.3 0,-31.3 m 72,31.3 -72,0 m 72,0 0,-43.1 m 0,-36.1 0,7.2 m 80.6,151.4 5.8,-5.8 m -132.5,2.9 2.9,2.9 m 244.8,-23.1 -115.2,0 m 115.2,0 5.7,-5.7 m -253.4,-3.4 -0.1,-0.5 -0.1,-0.6 -0.3,-0.5 -0.3,-0.4 -0.5,-0.4 -0.5,-0.2 -0.5,-0.2 -0.6,0 m 0,0 -10.1,0 m -12.9,-13 12.9,13 M 164.8,78 6.4,78 m 158.4,-69.6 0,0.1 0,0.5 0,0.9 0,1.1 0,1.5 0,1.7 0,2 0,2.3 0,2.6 0,2.7 0,2.9 0,3.1 0,3.3 0,3.3 0,3.4 0,3.4 0,3.4 0,3.4 0,3.3 0,3.2 0,3.1 0,2.9 0,2.8 0,2.5 0,2.3 0,2 0,1.8 0,1.4 0,1.2 0,0.8 0,0.5 0,0.2 m -158.4,0 0,-0.2 0,-0.5 0,-0.8 0,-1.2 0,-1.4 0,-1.8 0,-2 0,-2.3 0,-2.5 0,-2.8 0,-2.9 0,-3.1 0,-3.2 0,-3.3 0,-3.4 0,-3.4 0,-3.4 0,-3.4 0,-3.3 0,-3.3 0,-3.1 0,-2.9 0,-2.7 0,-2.6 0,-2.3 0,-2 0,-1.7 0,-1.5 0,-1.1 0,-0.9 0,-0.5 0,-0.1 M 167.6,80.8 164.8,78 m 2.8,2.8 0,-0.1 0,-0.5 0,-0.9 0,-1.1 0,-1.5 0,-1.8 0,-2.1 0,-2.3 0,-2.6 0,-2.9 0,-3 0,-3.2 0,-3.3 0,-3.4 0,-3.6 0,-3.5 0,-3.6 0,-3.6 0,-3.5 0,-3.5 0,-3.3 0,-3.2 0,-3 0,-2.8 0,-2.6 0,-2.4 0,-2.1 0,-1.7 0,-1.5 0,-1.2 0,-0.8 0,-0.5 0,-0.2 m -279.3,37.8 72,0 m -72,0 0,-0.1 0,-0.1 m 72,0.2 0,-0.1 0,-0.1 m -72,31.4 0,-31.2 m 72,43.1 0,-43.1 m -46.1,76.3 0,-29.3 m 46.1,25 0,7.2 M 6.4,78 l 0,8.4 m 161.2,-5.6 0,12.9 m -120.9,5.7 0,17.3 m -40.3,5.8 0,-7.2" connector-curvature="0" id="path704" style="fill:none;stroke:#000000;stroke-width:0.70899999;stroke-linecap:round;stroke-linejoin:round;stroke-miterlimit:10;stroke-opacity:1;stroke-dasharray:none"/>
  </g>
</svg>
