<?xml version="1.0"?>
<svg xmlns="http://www.w3.org/2000/svg" width="2070" height="1530">
  <g transform="translate(509,444.3)">
    <path d="m 0,0 -38.3,-11.4 m 111.5,-405.7 46.9,13.9 m 23.3,16.2 2.3,2.9 M 31.9,-1.9 28.4,-0.8 M 44.2,-1.9 37.5,-4 m 111.8,-375.4 6.8,2.1 m 34.3,37.4 1.7,4.4 m -94.8,318.3 -3.9,2.7 M -17,-158.4 -17.6,-160 m 35.4,-118.9 1.4,-1 M 0.3,-143 l -4.5,-1.4 m 41.8,-140.2 4.5,1.3 m -30.6,143.6 -7,-2.1 m 41.8,-140.2 7,2.1 m -24.4,147.9 -16,-4.7 m 43.2,-145 18.5,5.5 m -149.9,254.1 -11.3,-3.3 m 120.3,-403.9 1.5,0.4 m 93.8,390.6 -6.9,-2.1 m -133.5,-25 -0.1,0.3 0,0.3 -0.1,0.3 -0.2,0.3 -0.1,0.3 -0.1,0.3 -0.2,0.2 -0.2,0.2 m 0,0 -0.5,0.6 -0.6,0.7 -0.6,0.6 -0.6,0.6 -0.6,0.6 -0.6,0.6 -0.6,0.6 -0.6,0.6 m -1.1,-0.2 0.1,0.2 0.1,0.1 0.1,0.1 0.1,0.1 0.2,0 0.2,-0.1 0.1,-0.1 0.2,-0.1 m -3,-5.3 1.9,5.1 m -10.8,2.5 1.2,-0.9 1.1,-0.9 1.1,-0.9 1.1,-0.9 1.1,-1 1.1,-1 1.1,-1 1.1,-1 m -10.6,15.9 1.7,-8.3 m -1.7,8.3 0,0.3 -0.1,0.3 -0.2,0.3 -0.1,0.3 -0.2,0.2 -0.1,0.3 -0.2,0.1 -0.1,0.2 m 0,0 -0.6,0.4 -0.6,0.5 -0.6,0.4 -0.6,0.4 -0.6,0.4 -0.6,0.5 -0.6,0.4 -0.6,0.4 m -1,-0.6 0.1,0.2 0.1,0.2 0.1,0.1 0.1,0.1 0.1,0.1 0.2,0 0.1,-0.1 0.2,0 m -2.1,-6.9 1.1,6.3 m -9.9,-1.5 1.1,-0.5 1.1,-0.5 1.1,-0.6 1.1,-0.6 1.1,-0.6 1.1,-0.6 1.1,-0.7 1.1,-0.7 m -11.2,13 2.4,-8.2 m -2.4,8.2 -0.1,0.3 -0.1,0.3 -0.1,0.3 -0.2,0.2 -0.2,0.3 -0.1,0.1 -0.2,0.2 -0.2,0.1 m 0,0 -0.5,0.2 -0.6,0.3 -0.6,0.2 -0.6,0.2 -0.6,0.2 -0.5,0.2 -0.6,0.3 -0.6,0.2 m -0.8,-1.1 0,0.3 0.1,0.2 0.1,0.2 0.1,0.2 0.1,0.1 0.1,0.1 0.2,0 0.1,0 m -1.1,-8.2 0.3,7.1 m -8.6,-5.3 1,-0.1 1,-0.2 1.1,-0.2 1,-0.2 1,-0.2 1.1,-0.3 1.1,-0.3 1,-0.3 m -11.4,9.6 3.1,-7.8 m -3.1,7.8 -0.1,0.3 -0.2,0.3 -0.1,0.3 -0.2,0.2 -0.1,0.1 -0.2,0.2 -0.2,0 -0.1,0.1 m 0,0 -0.6,0 -0.5,0.1 -0.6,0 -0.5,0 -0.5,0 -0.6,0 -0.5,0 -0.6,0 m -0.6,-1.4 0,0.3 0.1,0.3 0,0.2 0.1,0.2 0.1,0.2 0.1,0.1 0.1,0.1 0.1,0 m -0.1,-9.1 -0.5,7.7 m -7.1,-9 0.9,0.2 1,0.2 0.9,0.2 1,0.2 0.9,0.1 1,0.2 1,0.1 0.9,0.1 m -11.2,5.9 3.6,-7.2 m -3.6,7.2 -0.1,0.3 -0.2,0.2 -0.1,0.2 -0.2,0.2 -0.2,0.1 -0.2,0.1 -0.1,0 -0.2,0 m 0,0 -0.4,-0.2 -0.5,-0.2 -0.5,-0.2 -0.5,-0.1 -0.5,-0.2 -0.5,-0.2 -0.4,-0.2 -0.5,-0.3 m -0.4,-1.7 -0.1,0.3 0,0.3 0.1,0.3 0,0.2 0.1,0.3 0,0.1 0.1,0.2 0.2,0 m 0.9,-9.8 -1.3,8.1 m -5.4,-12.5 0.8,0.7 0.8,0.6 0.8,0.5 0.9,0.6 0.8,0.5 0.9,0.5 0.8,0.5 0.9,0.5 m -10.7,2 4,-6.4 m -4,6.4 -0.1,0.3 -0.2,0.2 -0.2,0.1 -0.1,0.1 -0.2,0.1 -0.2,0 -0.1,0 -0.1,-0.1 m 0,0 -0.5,-0.4 -0.4,-0.4 -0.4,-0.3 -0.4,-0.4 -0.4,-0.4 -0.4,-0.4 -0.4,-0.4 -0.4,-0.4 m -0.2,-2 -0.1,0.3 0,0.3 0,0.3 0,0.3 0,0.2 0.1,0.2 0.1,0.2 0.1,0.2 m 1.9,-10.3 -2.1,8.3 m -3.4,-15.5 0.6,1 0.7,0.9 0.6,1 0.7,0.9 0.7,0.9 0.7,0.8 0.7,0.9 0.8,0.8 m -9.8,-1.9 4.3,-5.3 m -4.3,5.3 -0.2,0.2 -0.1,0.1 -0.2,0.1 -0.2,0.1 -0.1,0 -0.1,0 -0.2,-0.1 -0.1,-0.2 m 0,0 -0.3,-0.5 -0.3,-0.6 -0.4,-0.6 -0.3,-0.5 -0.3,-0.6 -0.3,-0.6 -0.4,-0.6 -0.3,-0.6 m 0.1,-2.2 -0.1,0.3 -0.1,0.3 0,0.4 0,0.3 0,0.2 0,0.3 0,0.2 0.1,0.2 m 2.8,-10.2 -2.7,8 m -1.4,-17.9 0.5,1.3 0.5,1.3 0.5,1.2 0.5,1.3 0.5,1.2 0.5,1.2 0.6,1.2 0.5,1.2 m -8.5,-5.8 4.4,-4.1 m -4.4,4.1 -0.1,0.1 -0.2,0.1 -0.2,0 -0.1,0 -0.2,0 -0.1,-0.1 -0.1,-0.2 -0.1,-0.2 m 0,0 -0.2,-0.7 -0.2,-0.7 -0.3,-0.8 -0.2,-0.7 -0.2,-0.8 -0.2,-0.7 -0.3,-0.8 -0.2,-0.7 m 0.3,-2.4 -0.1,0.3 -0.1,0.4 -0.1,0.3 0,0.3 0,0.3 0,0.3 0,0.2 0,0.3 m 3.6,-10 -3.3,7.6 m 0.7,-19.7 0.3,1.5 0.3,1.6 0.3,1.5 0.3,1.6 0.4,1.5 0.3,1.5 0.4,1.5 0.3,1.4 m -6.9,-9.5 4.3,-2.6 m -4.3,2.6 -0.2,0.1 -0.1,0.1 -0.2,-0.1 -0.1,0 -0.1,-0.1 -0.1,-0.2 -0.1,-0.2 -0.1,-0.2 m 0,0 -0.1,-0.9 -0.1,-0.9 -0.1,-0.8 -0.2,-0.9 -0.1,-0.9 -0.1,-0.9 -0.1,-0.9 -0.1,-0.9 m 0.5,-2.4 -0.1,0.3 -0.2,0.3 -0.1,0.3 0,0.3 -0.1,0.3 0,0.3 0,0.3 0,0.3 m 4.3,-9.3 -3.8,6.9 m 2.8,-21 0.1,1.8 0.1,1.8 0.1,1.8 0.1,1.8 0.1,1.7 0.2,1.8 0.1,1.7 0.2,1.7 m -5.2,-12.8 4.2,-1.3 m -4.2,1.3 -0.1,0 -0.2,0 -0.1,-0.1 -0.1,-0.1 -0.1,-0.2 -0.1,-0.2 0,-0.2 -0.1,-0.3 m 0,0 0,-1 0,-1 0,-1 0,-1 0,-1 0,-1 -0.1,-1 0,-1 m 0.8,-2.4 -0.2,0.3 -0.1,0.3 -0.1,0.3 -0.1,0.3 -0.1,0.3 -0.1,0.3 0,0.3 -0.1,0.3 m 4.9,-8.3 -4.1,5.9 m 4.7,-21.4 -0.1,2 -0.1,1.9 -0.1,2 -0.1,1.9 0,2 -0.1,1.9 -0.1,1.9 0,1.9 m -3.2,-15.8 3.8,0.3 m -3.8,-0.3 -0.2,0 -0.1,-0.1 -0.1,-0.1 -0.1,-0.2 0,-0.2 -0.1,-0.3 0,-0.2 0,-0.3 m 0,0 0.1,-1.1 0.1,-1.1 0.1,-1 0.1,-1.1 0.1,-1.1 0.1,-1.1 0.1,-1.1 0.1,-1 m 0.9,-2.3 -0.2,0.2 -0.1,0.2 -0.2,0.3 -0.1,0.3 -0.1,0.3 -0.1,0.3 -0.1,0.3 0,0.4 m 5.2,-7.1 -4.3,4.8 m 6.6,-21.2 -0.3,2.1 -0.3,2.1 -0.3,2 -0.3,2.1 -0.3,2 -0.3,2.1 -0.2,2 -0.3,2 m -1.1,-18.2 3.4,1.8 m -3.4,-1.8 -0.1,-0.1 -0.1,-0.1 -0.1,-0.2 -0.1,-0.2 0,-0.3 0,-0.2 0,-0.3 0,-0.3 m 0,0 0.2,-1.2 0.2,-1.1 0.2,-1.1 0.2,-1.1 0.2,-1.1 0.2,-1.1 0.3,-1.2 0.2,-1.1 m 1,-2 -0.1,0.1 -0.2,0.2 -0.2,0.2 -0.1,0.3 -0.1,0.3 -0.2,0.3 -0.1,0.3 0,0.3 m 5.4,-5.5 -4.4,3.5 m 8.2,-20.2 -0.5,2.1 -0.5,2.1 -0.5,2 -0.5,2.1 -0.4,2.1 -0.5,2.1 -0.5,2.1 -0.4,2.1 m 1,-20 2.8,3.3 m -2.8,-3.3 -0.1,-0.1 -0.1,-0.2 -0.1,-0.2 0,-0.3 0,-0.3 0,-0.3 0.1,-0.3 0,-0.3 m 0,0 0.3,-1.1 0.3,-1.2 0.3,-1.1 0.3,-1.1 0.3,-1.1 0.4,-1.1 0.3,-1.2 0.3,-1.1 m 1.1,-1.8 -0.1,0.1 -0.2,0.2 -0.2,0.2 -0.1,0.2 -0.2,0.2 -0.1,0.3 -0.1,0.3 -0.1,0.3 m 5.4,-3.8 -4.3,2 m 9.6,-18.5 -0.7,2.1 -0.7,2 -0.7,2.1 -0.6,2 -0.7,2.1 -0.6,2 -0.6,2.1 -0.7,2.1 m 3.1,-21.1 2.2,4.6 m -2.2,-4.6 -0.1,-0.2 -0.1,-0.2 0,-0.3 0,-0.3 0,-0.3 0.1,-0.3 0.1,-0.3 0.1,-0.3 m 0,0 0.4,-1.1 0.3,-1.1 0.4,-1.1 0.4,-1.1 0.4,-1.1 0.4,-1 0.4,-1.1 0.4,-1.1 m 1.3,-1.5 -0.2,0.1 -0.2,0 -0.1,0.2 -0.2,0.2 -0.2,0.2 -0.1,0.2 -0.2,0.3 -0.1,0.3 m 5.3,-2 -4,0.5 m 10.5,-16.2 -0.9,1.9 -0.8,2 -0.8,1.9 -0.8,2 -0.8,1.9 -0.8,2 -0.8,2 -0.8,2 m 5,-21.5 1.5,5.8 m -1.5,-5.8 0,-0.2 -0.1,-0.3 0.1,-0.3 0,-0.3 0,-0.3 0.1,-0.3 0.1,-0.3 0.2,-0.3 m 0,0 0.4,-1 0.5,-1.1 0.4,-1 0.5,-1 0.5,-1 0.5,-1 0.4,-1 0.5,-1 m 1.3,-1.1 -0.2,-0.1 -0.1,0.1 -0.2,0.1 -0.2,0.1 -0.1,0.2 -0.2,0.2 -0.1,0.2 -0.2,0.3 m 5,-0.2 -3.7,-0.9 m 11.1,-13.4 -0.9,1.8 -1,1.7 -0.9,1.8 -1,1.8 -0.9,1.8 -0.9,1.8 -0.9,1.8 -0.9,1.8 m 6.7,-21 0.7,6.7 m -0.7,-6.7 0,-0.3 0,-0.3 0.1,-0.3 0,-0.3 0.1,-0.4 0.1,-0.3 0.2,-0.3 0.1,-0.2 m 0,0 0.5,-1 0.6,-0.9 0.5,-0.9 0.5,-0.9 0.5,-0.9 0.6,-0.9 0.5,-0.9 0.5,-0.9 m 1.3,-0.7 -0.1,-0.1 -0.2,0 -0.1,0 -0.2,0.1 -0.2,0.1 -0.1,0.2 -0.2,0.2 -0.2,0.2 m 4.5,1.8 -3.2,-2.5 m 11.4,-10 -1,1.5 -1.1,1.5 -1,1.5 -1.1,1.6 -1,1.6 -1,1.5 -1,1.6 -1,1.7 m 8.3,-20.1 -0.1,7.6 m 0.1,-7.6 0.1,-0.3 0,-0.3 0.1,-0.3 0.1,-0.3 0.1,-0.3 0.1,-0.3 0.1,-0.3 0.2,-0.2 m 0,0 0.6,-0.8 0.5,-0.8 0.6,-0.7 0.6,-0.8 0.5,-0.8 0.6,-0.7 0.6,-0.8 0.6,-0.8 m 1.2,-0.2 -0.1,-0.2 -0.2,-0.1 -0.1,0 -0.2,0 -0.1,0.1 -0.2,0.1 -0.2,0.2 -0.1,0.1 m 3.7,3.6 -2.5,-3.8 m 11.2,-6.4 -1.1,1.2 -1.1,1.2 -1.1,1.3 -1,1.3 -1.1,1.2 -1.1,1.4 -1.1,1.3 -1.1,1.3 m 9.7,-18.2 -1,8 m 1,-8 0,-0.4 0.1,-0.3 0.1,-0.3 0.1,-0.3 0.1,-0.3 0.2,-0.2 0.1,-0.3 0.2,-0.2 m 0,0 0.6,-0.6 0.6,-0.6 0.6,-0.6 0.6,-0.6 0.6,-0.6 0.6,-0.6 0.6,-0.6 0.6,-0.6 m 1.1,0.1 -0.1,-0.1 -0.1,-0.2 -0.2,-0.1 -0.1,0 -0.1,0 -0.2,0.1 -0.2,0 -0.1,0.2 m 2.9,5.3 -1.8,-5.2 m 10.7,-2.5 -1.1,0.9 -1.1,0.9 -1.1,0.9 -1.1,1 -1.1,1 -1.2,1 -1.1,1 -1.1,1 m 10.6,-15.9 -1.7,8.2 m 1.7,-8.2 0.1,-0.3 0.1,-0.3 0.1,-0.3 0.1,-0.3 0.2,-0.3 0.2,-0.2 0.1,-0.2 0.2,-0.1 m 0,0 0.6,-0.5 0.6,-0.4 0.6,-0.4 0.6,-0.5 0.6,-0.4 0.6,-0.4 0.6,-0.4 0.6,-0.4 m 0.9,0.6 0,-0.2 -0.1,-0.2 -0.1,-0.2 -0.1,-0.1 -0.2,0 -0.1,0 -0.2,0 -0.1,0.1 m 2,6.8 -1.1,-6.2 m 9.9,1.4 -1.1,0.5 -1.1,0.6 -1.1,0.6 -1.1,0.5 -1.1,0.7 -1.1,0.6 -1.1,0.6 -1.1,0.7 m 11.2,-13 -2.4,8.2 m 2.4,-8.2 0.1,-0.3 0.2,-0.3 0.1,-0.2 0.1,-0.3 0.2,-0.2 0.2,-0.2 0.1,-0.1 0.2,-0.1 m 0,0 0.6,-0.3 0.6,-0.2 0.5,-0.2 0.6,-0.3 0.6,-0.2 0.6,-0.2 0.6,-0.2 0.5,-0.2 m 0.8,1 0,-0.3 0,-0.2 -0.1,-0.2 -0.1,-0.1 -0.1,-0.1 -0.2,-0.1 -0.1,0 -0.2,0 m 1.1,8.1 -0.3,-7.1 m 8.7,5.4 -1,0.1 -1.1,0.2 -1,0.1 -1.1,0.3 -1,0.2 -1.1,0.2 -1,0.3 -1.1,0.3 m 11.4,-9.6 -3,7.9 m 3,-7.9 0.2,-0.3 0.1,-0.3 0.2,-0.2 0.1,-0.2 0.2,-0.2 0.2,-0.1 0.1,-0.1 0.2,0 m 0,0 0.5,-0.1 0.6,0 0.5,0 0.6,0 0.5,-0.1 0.5,0 0.6,0 0.5,0 m 0.6,1.4 0,-0.3 0,-0.2 0,-0.3 -0.1,-0.2 -0.1,-0.1 -0.1,-0.2 -0.2,0 -0.1,-0.1 m 0.1,9.2 0.5,-7.8 m 7.2,9.1 -1,-0.2 -0.9,-0.3 -1,-0.2 -0.9,-0.1 -1,-0.2 -0.9,-0.1 -1,-0.1 -1,-0.1 m 11.2,-5.9 -3.5,7.2 m 3.5,-7.2 0.2,-0.3 0.1,-0.2 0.2,-0.3 0.2,-0.1 0.1,-0.1 0.2,-0.1 0.2,0 0.1,0 m 0,0 0.5,0.2 0.5,0.1 0.5,0.2 0.5,0.2 0.4,0.2 0.5,0.2 0.5,0.2 0.5,0.2 m 0.4,1.7 0,-0.3 0,-0.3 0,-0.2 0,-0.3 -0.1,-0.2 -0.1,-0.2 -0.1,-0.1 -0.1,-0.1 m -0.9,9.9 1.3,-8.2 m 5.4,12.5 -0.9,-0.6 -0.8,-0.6 -0.8,-0.6 -0.8,-0.5 -0.9,-0.6 -0.8,-0.5 -0.9,-0.5 -0.8,-0.4 m 10.6,-2.1 -3.9,6.4 m 3.9,-6.4 0.2,-0.2 0.2,-0.2 0.1,-0.2 0.2,-0.1 0.2,0 0.1,0 0.2,0 0.1,0.1 m 0,0 0.4,0.3 0.4,0.4 0.4,0.4 0.4,0.4 0.5,0.4 0.4,0.4 0.4,0.4 0.4,0.4 m 0.1,2 0.1,-0.3 0,-0.3 0.1,-0.3 0,-0.3 -0.1,-0.3 0,-0.2 -0.1,-0.2 -0.1,-0.1 m -1.9,10.2 2,-8.2 m 3.5,15.5 -0.7,-1 -0.6,-1 -0.7,-0.9 -0.7,-0.9 -0.7,-0.9 -0.7,-0.9 -0.7,-0.8 -0.7,-0.9 m 9.7,1.9 -4.2,5.4 m 4.2,-5.4 0.2,-0.1 0.2,-0.2 0.1,-0.1 0.2,0 0.2,-0.1 0.1,0.1 0.1,0.1 0.1,0.1 m 0,0 0.4,0.6 0.3,0.5 0.3,0.6 0.3,0.6 0.4,0.6 0.3,0.6 0.3,0.5 0.3,0.6 m -0.1,2.2 0.1,-0.3 0.1,-0.3 0.1,-0.3 0,-0.3 0,-0.3 0,-0.2 -0.1,-0.3 -0.1,-0.2 m -2.8,10.3 2.7,-8.1 m 1.4,18 -0.4,-1.3 -0.5,-1.3 -0.5,-1.3 -0.5,-1.2 -0.5,-1.2 -0.6,-1.2 -0.5,-1.2 -0.6,-1.2 m 8.5,5.8 -4.4,4.1 m 4.4,-4.1 0.2,-0.1 0.2,-0.1 0.1,-0.1 0.2,0 0.1,0.1 0.1,0.1 0.1,0.1 0.1,0.2 m 0,0 0.2,0.7 0.3,0.8 0.2,0.7 0.2,0.8 0.3,0.7 0.2,0.8 0.2,0.7 0.2,0.8 m -0.3,2.3 0.1,-0.3 0.1,-0.3 0.1,-0.3 0.1,-0.3 0,-0.3 0,-0.3 0,-0.3 -0.1,-0.2 m -3.6,9.9 3.3,-7.6 m -0.7,19.8 -0.3,-1.6 -0.3,-1.5 -0.3,-1.6 -0.3,-1.5 -0.3,-1.5 -0.4,-1.5 -0.3,-1.5 -0.4,-1.5 m 7,9.5 -4.4,2.7 m 4.4,-2.7 0.1,-0.1 0.2,0 0.1,0 0.2,0.1 0.1,0.1 0.1,0.1 0,0.2 0.1,0.3 m 0,0 0.1,0.8 0.2,0.9 0.1,0.9 0.1,0.9 0.1,0.9 0.1,0.9 0.2,0.9 0.1,0.9 m -0.6,2.3 0.2,-0.2 0.1,-0.3 0.1,-0.3 0.1,-0.4 0,-0.3 0.1,-0.3 0,-0.3 0,-0.2 m -4.3,9.2 3.7,-6.9 m -2.7,21 -0.1,-1.8 -0.1,-1.8 -0.1,-1.8 -0.1,-1.7 -0.2,-1.8 -0.1,-1.7 -0.2,-1.7 -0.1,-1.8 m 5.1,12.9 -4.1,1.2 m 4.1,-1.2 0.2,0 0.1,0 0.2,0.1 0.1,0.1 0.1,0.2 0,0.2 0.1,0.2 0,0.3 m 0,0 0,1 0,0.9 0.1,1 0,1 0,1 0,1 0,1 0,1 m -0.7,2.4 0.1,-0.2 0.2,-0.3 0.1,-0.3 0.1,-0.3 0.1,-0.3 0,-0.3 0.1,-0.4 0,-0.3 m -4.9,8.4 4.2,-6 m -4.8,21.4 0.1,-1.9 0.1,-2 0.1,-1.9 0.1,-2 0.1,-1.9 0.1,-1.9 0,-1.9 0,-1.9 m 3.3,15.7 -3.9,-0.3 m 3.9,0.3 0.1,0.1 0.1,0.1 0.1,0.1 0.1,0.2 0.1,0.2 0,0.2 0,0.3 0,0.3 m 0,0 -0.1,1.1 0,1 -0.1,1.1 -0.1,1.1 -0.1,1.1 -0.1,1 -0.1,1.1 -0.2,1.1 m -0.9,2.2 0.2,-0.2 0.2,-0.2 0.1,-0.3 0.1,-0.3 0.1,-0.3 0.1,-0.3 0.1,-0.3 0,-0.3 m -5.2,7 4.3,-4.8 m -6.6,21.2 0.4,-2 0.3,-2.1 0.3,-2.1 0.3,-2 0.3,-2.1 0.2,-2 0.3,-2 0.2,-2.1 m 1.2,18.2 -3.5,-1.8 m 3.5,1.8 0.1,0.1 0.1,0.2 0.1,0.1 0,0.3 0.1,0.2 0,0.3 0,0.3 -0.1,0.3 m 0,0 -0.2,1.1 -0.2,1.1 -0.2,1.1 -0.2,1.2 -0.2,1.1 -0.2,1.1 -0.2,1.1 -0.2,1.1 m -1.1,2.1 0.2,-0.2 0.2,-0.2 0.1,-0.2 0.2,-0.2 0.1,-0.3 0.1,-0.3 0.1,-0.4 0.1,-0.3 m -5.5,5.6 4.4,-3.5 m -8.2,20.2 0.5,-2.1 0.5,-2.1 0.5,-2.1 0.5,-2.1 0.5,-2.1 0.5,-2.1 0.4,-2 0.4,-2.1 m -0.9,19.9 -2.9,-3.2 m 2.9,3.2 0.1,0.2 0.1,0.2 0,0.2 0,0.3 0,0.2 0,0.3 0,0.3 -0.1,0.4 m 0,0 -0.3,1.1 -0.3,1.1 -0.3,1.1 -0.3,1.2 -0.3,1.1 -0.3,1.1 -0.3,1.1 -0.3,1.1 m -1.2,1.8 0.2,-0.1 0.1,-0.1 0.2,-0.2 0.2,-0.2 0.1,-0.3 0.1,-0.3 0.2,-0.3 0.1,-0.3 m -5.5,3.9 4.3,-2.1 m -9.5,18.5 0.7,-2 0.7,-2 0.6,-2.1 0.7,-2.1 0.6,-2 0.7,-2.1 0.6,-2 0.6,-2.1 m -3,21 -2.2,-4.6 m 2.2,4.6 0.1,0.2 0,0.3 0,0.2 0,0.3 0,0.3 -0.1,0.3 0,0.4 -0.1,0.3 m 0,0 -0.4,1.1 -0.4,1 -0.4,1.1 -0.4,1.1 -0.4,1.1 -0.4,1.1 -0.4,1.1 -0.4,1 m -1.2,1.5 0.1,0 0.2,-0.1 0.2,-0.1 0.1,-0.2 0.2,-0.2 0.2,-0.3 0.1,-0.3 0.1,-0.3 m -5.3,2.1 4.1,-0.6 m -10.5,16.2 0.8,-1.9 0.8,-1.9 0.9,-2 0.8,-1.9 0.8,-2 0.8,-2 0.8,-1.9 0.7,-2 m -5,21.4 -1.4,-5.8 m 1.4,5.8 0.1,0.3 0,0.2 0,0.3 0,0.3 -0.1,0.3 -0.1,0.4 -0.1,0.3 -0.1,0.3 m 0,0 -0.5,1 -0.4,1 -0.5,1 -0.5,1 -0.4,1.1 -0.5,1 -0.5,1 -0.5,1 m -1.2,1.1 0.1,0 0.2,0 0.1,-0.1 0.2,-0.1 0.2,-0.2 0.1,-0.2 0.2,-0.3 0.1,-0.2 m -4.9,0.1 3.7,1 m -11.2,13.3 1,-1.7 0.9,-1.8 1,-1.7 0.9,-1.8 0.9,-1.8 1,-1.8 0.9,-1.9 0.9,-1.8 m -6.8,21.1 -0.7,-6.8 m 0.7,6.8 0,0.3 0,0.3 0,0.3 -0.1,0.3 -0.1,0.3 -0.1,0.3 -0.1,0.3 -0.2,0.3 m 0,0 -0.5,0.9 -0.5,0.9 -0.5,0.9 -0.6,0.9 -0.5,1 -0.5,0.9 -0.6,0.8 -0.5,0.9 m -1.3,0.8 0.2,0 0.1,0.1 0.2,-0.1 0.1,0 0.2,-0.2 0.2,-0.1 0.1,-0.2 0.2,-0.3 m -4.4,-1.7 3.1,2.5 m -11.3,10 1,-1.5 1,-1.5 1.1,-1.6 1,-1.5 1,-1.6 1,-1.6 1.1,-1.6 1,-1.6 m -8.4,20 0.2,-7.5 m -0.2,7.5 0,0.3 0,0.3 -0.1,0.3 -0.1,0.4 -0.1,0.3 -0.1,0.3 -0.2,0.2 -0.1,0.3 m 0,0 -0.6,0.7 -0.6,0.8 -0.6,0.8 -0.5,0.8 -0.6,0.7 -0.6,0.8 -0.5,0.8 -0.6,0.7 m -1.2,0.3 0.1,0.1 0.1,0.1 0.2,0 0.1,0 0.2,0 0.1,-0.1 0.2,-0.2 0.2,-0.2 m -1.2,0.3 -2.6,-3.9 m -8.7,10.3 1.1,-1.2 1.1,-1.3 1.1,-1.2 1.1,-1.3 1.1,-1.3 1.1,-1.3 1,-1.3 1.1,-1.4 m -9.6,18.3 0.9,-8 m 13.5,-2.5 0.3,1.6 m 0,0 0.6,-0.8 0.5,-0.7 0.6,-0.7 0.5,-0.8 0.6,-0.7 0.5,-0.8 0.6,-0.7 0.5,-0.8 m 0,0 -0.3,-1.5 m 0,0 1.8,-2.6 1.8,-2.6 1.8,-2.6 1.8,-2.7 1.8,-2.7 1.8,-2.8 1.7,-2.8 1.7,-2.9 m 0,0 0.5,1.3 m 0,0 0.6,-0.9 0.5,-0.9 0.5,-0.8 0.5,-0.9 0.5,-0.9 0.5,-0.9 0.5,-0.9 0.5,-0.9 m 0,0 -0.5,-1.2 m 0,0 1.7,-3 1.7,-3 1.6,-3 1.6,-3.1 1.6,-3.1 1.6,-3.2 1.6,-3.2 1.5,-3.2 m 0,0 0.7,0.9 m 0,0 0.5,-1 0.5,-0.9 0.4,-1 0.5,-1 0.4,-1 0.5,-1 0.4,-0.9 0.5,-1 m 0,0 -0.7,-0.9 m 0,0 1.5,-3.3 1.4,-3.4 1.4,-3.3 1.4,-3.4 1.4,-3.4 1.4,-3.4 1.3,-3.5 1.3,-3.5 m 0,0 0.9,0.6 m 0,0 0.4,-1.1 0.4,-1 0.3,-1 0.4,-1.1 0.4,-1 0.4,-1.1 0.4,-1.1 0.3,-1 m 0,0 -0.8,-0.6 m 0,0 1.2,-3.5 1.2,-3.5 1.2,-3.6 1.1,-3.5 1.1,-3.6 1.1,-3.6 1.1,-3.6 1,-3.6 m 0,0 1,0.2 m 0,0 0.3,-1.1 0.3,-1.1 0.3,-1 0.3,-1.1 0.3,-1.1 0.3,-1.1 0.2,-1.1 0.3,-1.1 m 0,0 -0.9,-0.1 m 0,0 0.9,-3.6 0.9,-3.7 0.9,-3.6 0.8,-3.6 0.8,-3.6 0.8,-3.6 0.7,-3.6 0.8,-3.6 m 0,0 1,-0.3 m 0,0 0.2,-1.1 0.2,-1 0.2,-1.1 0.2,-1.1 0.2,-1.1 0.2,-1.1 0.2,-1 0.2,-1.1 m 0,0 -1.1,0.2 m 0,0 0.6,-3.6 0.6,-3.6 0.6,-3.5 0.5,-3.6 0.4,-3.5 0.5,-3.5 0.4,-3.5 0.4,-3.5 m 0,0 1.1,-0.6 m 0,0 0.1,-1.1 0.1,-1 0.1,-1.1 0.1,-1 0.1,-1.1 0,-1 0.1,-1 0.1,-1.1 m 0,0 -1.1,0.6 m 0,0 0.3,-3.4 0.2,-3.4 0.2,-3.4 0.2,-3.4 0.1,-3.3 0.1,-3.3 0,-3.3 0,-3.3 m 0,0 1.2,-0.9 m 0,0 0,-1 0,-1 -0.1,-1 0,-0.9 0,-1 0,-1 0,-0.9 0,-1 m 0,0 -1.1,1 m 0,0 -0.1,-3.2 -0.2,-3.1 -0.1,-3.1 -0.2,-3.1 -0.3,-3 -0.2,-3 -0.3,-3 -0.4,-2.9 m 0,0 1.1,-1.3 m 0,0 -0.1,-0.8 -0.1,-0.9 -0.1,-0.9 -0.1,-0.8 -0.1,-0.9 -0.2,-0.8 -0.1,-0.9 -0.1,-0.8 m 0,0 -1.1,1.2 m 0,0 -0.5,-2.7 -0.4,-2.8 -0.5,-2.7 -0.6,-2.7 -0.6,-2.6 -0.6,-2.5 -0.6,-2.6 -0.7,-2.4 m 0,0 1,-1.6 m 0,0 -0.2,-0.7 -0.2,-0.8 -0.2,-0.7 -0.2,-0.7 -0.2,-0.8 -0.3,-0.7 -0.2,-0.7 -0.2,-0.7 m 0,0 -1.1,1.6 m 0,0 -0.7,-2.3 -0.9,-2.3 -0.8,-2.2 -0.9,-2.2 -0.9,-2.1 -0.9,-2.1 -1,-2 -1,-1.9 m 0,0 1,-1.8 m 0,0 -0.3,-0.6 -0.4,-0.6 -0.3,-0.5 -0.3,-0.6 -0.3,-0.5 -0.3,-0.6 -0.3,-0.5 -0.4,-0.6 m 0,0 -0.9,1.8 m 0,0 -1.1,-1.8 -1.1,-1.7 -1.2,-1.6 -1.1,-1.6 -1.2,-1.5 -1.3,-1.5 -1.2,-1.4 -1.3,-1.4 m 0,0 0.8,-2 m 0,0 -0.4,-0.4 -0.4,-0.4 -0.4,-0.3 -0.4,-0.4 -0.4,-0.4 -0.4,-0.4 -0.4,-0.3 -0.4,-0.4 m 0,0 -0.8,2 m 0,0 -1.3,-1.2 -1.4,-1.1 -1.4,-1 -1.5,-1 -1.4,-0.9 -1.5,-0.8 -1.5,-0.8 -1.5,-0.7 m 0,0 0.6,-2.1 m 0,0 -0.5,-0.2 -0.4,-0.2 -0.5,-0.2 -0.4,-0.2 -0.5,-0.2 -0.5,-0.1 -0.5,-0.2 -0.4,-0.2 m 0,0 -0.7,2.1 m 0,0 -1.6,-0.5 -1.6,-0.5 -1.6,-0.3 -1.7,-0.4 -1.6,-0.2 -1.7,-0.2 -1.7,-0.1 -1.7,-0.1 m 0,0 0.5,-2.1 m 0,0 -0.6,0 -0.5,0 -0.5,0 -0.5,0.1 -0.5,0 -0.6,0 -0.5,0 -0.5,0.1 m 0,0 -0.5,2 m 0,0 -1.8,0.2 -1.7,0.2 -1.8,0.3 -1.8,0.4 -1.8,0.4 -1.9,0.5 -1.8,0.5 -1.8,0.6 m 0,0 0.2,-2 m 0,0 -0.5,0.2 -0.6,0.2 -0.5,0.2 -0.6,0.2 -0.6,0.2 -0.5,0.2 -0.6,0.3 -0.5,0.2 m 0,0 -0.3,2 m 0,0 -1.9,0.9 -1.9,0.9 -1.9,0.9 -1.9,1 -1.9,1.1 -1.9,1.1 -1.9,1.2 -1.9,1.3 m 0,0 0.1,-2 m 0,0 -0.6,0.4 -0.6,0.4 -0.5,0.4 -0.6,0.4 -0.6,0.4 -0.6,0.4 -0.5,0.5 -0.6,0.4 m 0,0 -0.1,1.9 m 0,0 -1.9,1.5 -1.9,1.5 -2,1.6 -1.9,1.6 -1.9,1.7 -1.9,1.7 -2,1.8 -1.9,1.9 m 0,0 -0.1,-1.8 m 0,0 -0.6,0.6 -0.6,0.6 -0.5,0.5 -0.6,0.6 -0.6,0.6 -0.5,0.6 -0.6,0.6 -0.6,0.6 m 0,0 0.1,1.8 m 0,0 -1.9,2 -1.9,2.1 -1.9,2.1 -1.9,2.2 -1.8,2.3 -1.9,2.3 -1.9,2.3 -1.8,2.4 m 0,0 -0.4,-1.5 m 0,0 -0.5,0.7 -0.6,0.8 -0.5,0.7 -0.6,0.7 -0.5,0.8 -0.6,0.7 -0.5,0.8 -0.6,0.8 m 0,0 0.3,1.5 m 0,0 -1.8,2.5 -1.8,2.6 -1.8,2.7 -1.8,2.7 -1.7,2.7 -1.8,2.8 -1.8,2.8 -1.7,2.8 m 0,0 -0.5,-1.2 m 0,0 -0.5,0.9 -0.5,0.8 -0.5,0.9 -0.6,0.9 -0.5,0.9 -0.5,0.8 -0.5,0.9 -0.5,0.9 m 0,0 0.5,1.2 m 0,0 -1.7,3 -1.6,3 -1.7,3.1 -1.6,3.1 -1.6,3.1 -1.6,3.2 -1.5,3.1 -1.6,3.2 m 0,0 -0.7,-0.9 m 0,0 -0.4,1 -0.5,1 -0.5,1 -0.4,0.9 -0.5,1 -0.4,1 -0.5,1 -0.4,1 m 0,0 0.7,0.9 m 0,0 -1.5,3.3 -1.5,3.3 -1.4,3.4 -1.4,3.4 -1.4,3.4 -1.3,3.4 -1.4,3.4 -1.3,3.5 m 0,0 -0.8,-0.5 m 0,0 -0.4,1 -0.4,1.1 -0.4,1 -0.4,1.1 -0.4,1 -0.3,1.1 -0.4,1 -0.4,1.1 m 0,0 0.9,0.5 m 0,0 -1.3,3.5 -1.2,3.6 -1.1,3.5 -1.2,3.6 -1.1,3.5 -1.1,3.6 -1,3.6 -1.1,3.6 m 0,0 -0.9,-0.2 m 0,0 -0.3,1.1 -0.3,1.1 -0.3,1.1 -0.3,1.1 -0.3,1.1 -0.3,1 -0.3,1.1 -0.3,1.1 m 0,0 1,0.2 m 0,0 -1,3.6 -0.9,3.6 -0.8,3.6 -0.9,3.6 -0.8,3.7 -0.8,3.6 -0.7,3.6 -0.7,3.6 m 0,0 -1.1,0.2 m 0,0 -0.2,1.1 -0.2,1.1 -0.2,1.1 -0.2,1.1 -0.2,1 -0.2,1.1 -0.2,1.1 -0.1,1.1 m 0,0 1,-0.2 m 0,0 -0.6,3.5 -0.6,3.6 -0.5,3.6 -0.5,3.5 -0.5,3.6 -0.4,3.5 -0.4,3.5 -0.4,3.5 m 0,0 -1.1,0.6 m 0,0 -0.1,1 -0.1,1.1 -0.1,1 -0.1,1.1 -0.1,1 -0.1,1.1 -0.1,1 -0.1,1 m 0,0 1.1,-0.6 m 0,0 -0.2,3.5 -0.3,3.4 -0.2,3.4 -0.1,3.3 -0.1,3.4 -0.1,3.3 -0.1,3.3 0,3.2 m 0,0 -1.1,1 m 0,0 0,1 0,1 0,0.9 0,1 0,1 0,0.9 0.1,1 0,0.9 m 0,0 1.1,-0.9 m 0,0 0.1,3.1 0.1,3.2 0.2,3.1 0.2,3 0.2,3.1 0.3,3 0.3,2.9 0.3,2.9 m 0,0 -1.1,1.3 m 0,0 0.1,0.9 0.1,0.9 0.2,0.8 0.1,0.9 0.1,0.8 0.1,0.9 0.1,0.9 0.2,0.8 m 0,0 1.1,-1.3 m 0,0 0.4,2.8 0.5,2.7 0.5,2.8 0.5,2.6 0.6,2.6 0.6,2.6 0.7,2.5 0.6,2.5 m 0,0 -1,1.6 m 0,0 0.2,0.7 0.2,0.7 0.3,0.8 0.2,0.7 0.2,0.7 0.2,0.7 0.2,0.7 0.3,0.7 m 0,0 1,-1.5 m 0,0 0.8,2.3 0.8,2.3 0.8,2.2 0.9,2.1 0.9,2.1 1,2.1 0.9,2 1,2 m 0,0 -0.9,1.8 m 0,0 0.3,0.5 0.3,0.6 0.3,0.6 0.3,0.5 0.3,0.6 0.4,0.5 0.3,0.6 0.3,0.5 m 0,0 0.9,-1.8 m 0,0 1.1,1.8 1.2,1.7 1.1,1.7 1.2,1.6 1.2,1.5 1.2,1.5 1.3,1.4 1.2,1.4 m 0,0 -0.8,1.9 m 0,0 0.4,0.4 0.4,0.4 0.4,0.4 0.4,0.4 0.4,0.4 0.4,0.3 0.4,0.4 0.4,0.3 m 0,0 0.8,-1.9 m 0,0 1.4,1.1 1.4,1.1 1.4,1.1 1.4,0.9 1.5,0.9 1.5,0.9 1.5,0.8 1.5,0.7 m 0,0 -0.7,2.1 m 0,0 0.5,0.2 0.5,0.2 0.4,0.2 0.5,0.1 0.5,0.2 0.4,0.2 0.5,0.2 0.5,0.1 m 0,0 0.6,-2 m 0,0 1.6,0.5 1.6,0.4 1.7,0.4 1.6,0.3 1.7,0.3 1.7,0.2 1.7,0.1 1.7,0 m 0,0 -0.5,2.1 m 0,0 0.5,0 0.5,0 0.5,0 0.6,0 0.5,0 0.5,0 0.5,-0.1 0.6,0 m 0,0 0.4,-2.1 m 0,0 1.8,-0.2 1.8,-0.2 1.8,-0.3 1.8,-0.3 1.8,-0.4 1.8,-0.5 1.8,-0.6 1.9,-0.6 m 0,0 -0.3,2.1 m 0,0 0.6,-0.2 0.5,-0.2 0.6,-0.2 0.5,-0.2 0.6,-0.3 0.6,-0.2 0.5,-0.2 0.6,-0.2 m 0,0 0.3,-2.1 m 0,0 1.8,-0.8 1.9,-0.9 1.9,-0.9 1.9,-1.1 1.9,-1 1.9,-1.2 1.9,-1.2 1.9,-1.2 m 0,0 0,1.9 m 0,0 0.5,-0.4 0.6,-0.4 0.6,-0.4 0.6,-0.4 0.5,-0.4 0.6,-0.4 0.6,-0.4 0.6,-0.4 m 0,0 0,-2 m 0,0 2,-1.4 1.9,-1.5 1.9,-1.6 1.9,-1.6 2,-1.7 1.9,-1.8 1.9,-1.8 1.9,-1.8 m 0,0 0.1,1.7 m 0,0 0.6,-0.5 0.6,-0.6 0.6,-0.6 0.5,-0.6 0.6,-0.6 0.6,-0.6 0.6,-0.5 0.5,-0.7 m 0,0 -0.1,-1.7 m 0,0 1.9,-2.1 1.9,-2 1.9,-2.2 1.9,-2.2 1.9,-2.2 1.9,-2.3 1.8,-2.4 1.9,-2.4 m 160.4,-264.8 1.6,8.4 1.3,8.9 0.9,9.2 0.7,9.6 0.2,9.9 0,10.2 -0.4,10.4 -0.7,10.7 -1.1,10.9 -1.4,11 -1.7,11.1 -2,11.3 -2.3,11.3 -2.6,11.3 -3,11.3 -3.2,11.2 -3.5,11.2 -3.8,11 -4,10.9 -4.2,10.7 -4.5,10.4 -4.7,10.3 -4.9,9.9 -5.1,9.6 -5.3,9.3 -5.4,8.9 -5.6,8.5 -5.6,8.1 -5.8,7.6 -5.9,7.1 -5.9,6.7 -5.9,6.1 -6,5.6 -6.1,5 -6,4.5 -5.9,3.9 -6,3.3 -5.8,2.6 L 28,-0.7 22.3,0.7 16.7,1.6 11.3,1.8 6,1.3 0.9,0.2 0,0 m 120.1,-403.2 1.6,0.5 4.8,2 4.7,2.6 4.4,3.3 4.2,3.8 3.9,4.4 3.7,5 3.4,5.5 3.1,6.1 2.8,6.6 2.6,7.1 2.2,7.5 1.9,8.1 M 31.9,-1.9 l 2.4,-0.8 5.8,-2.4 5.8,-2.9 5.9,-3.6 6,-4.1 5.9,-4.7 6,-5.3 5.9,-5.8 5.9,-6.3 5.8,-6.8 5.8,-7.4 5.6,-7.7 5.6,-8.2 5.4,-8.6 5.3,-9 5.1,-9.4 5,-9.7 4.7,-10 4.6,-10.2 4.3,-10.5 4.1,-10.7 3.9,-10.8 3.6,-11 3.3,-11.1 3,-11.1 2.8,-11.2 2.5,-11.2 2.1,-11.2 1.9,-11.1 1.5,-10.9 1.2,-10.9 0.9,-10.6 0.5,-10.5 0.2,-10.2 -0.1,-9.9 -0.4,-9.7 -0.8,-9.3 -1.1,-9 -1.4,-8.6 -1.8,-8.1 -2,-7.7 -2.4,-7.3 -2.6,-6.8 -3,-6.2 -3.2,-5.8 -3.5,-5.2 -2.2,-2.7 m -190.9,316.6 1.9,7.8 0.5,1.7 m 102.1,-325.6 -5.5,4.5 -1.2,1 m -10,9.5 -0.6,0.7 -5.8,6.4 -5.8,6.8 -5.7,7.4 -5.6,7.8 -5.5,8.3 -5.3,8.6 -5.2,9.1 -5.1,9.3 -4.8,9.7 -4.7,10 -4.4,10.3 -4.2,10.4 -4,10.7 -3.8,10.8 -3.4,10.9 -3.2,11.1 -2.9,11 -2.7,11.1 -2.3,11.1 -2,11.1 -1.7,10.9 -1.4,10.9 -1,10.6 -0.8,10.5 -0.4,10.3 0,10 0.2,9.8 0.6,9.4 0.9,9.1 0.4,2.7 m 2.2,13.3 0.2,1 m 6.7,-9 1.9,7.6 2.1,7.1 2.4,6.7 2,4.6 m 94.3,-324.8 -3.6,2.5 -5.7,4.5 -5.7,5.1 -5.7,5.6 -5.6,6.1 -5.6,6.7 -5.6,7.1 -5.4,7.6 -5.3,8 -5.1,8.4 -5,8.8 -4.9,9.1 -4.6,9.5 -4.5,9.7 -4.3,10 -4,10.2 -3.7,10.3 -3.6,10.6 -3.2,10.6 -3,10.7 -2.7,10.7 -2.4,10.8 -2,10.7 -1.8,10.6 -1.4,10.6 -1.2,10.3 -0.8,10.3 -0.4,10 -0.2,9.7 0.2,9.5 0.6,9.1 0.8,8.9 1.2,8.4 1.5,8.1 m 95,-102.2 34.3,10.3 m 9,-28.5 -34.3,-10.3 m 34.3,10.3 -1,3.6 -1.1,3.5 -1.1,3.6 -1.1,3.6 -1.1,3.6 -1.2,3.5 -1.2,3.5 -1.2,3.6 m -46.6,166.5 0.6,0.1 4.9,1.1 5.1,0.4 5.3,-0.2 5.4,-0.8 5.5,-1.5 5.6,-2.1 5.6,-2.7 5.8,-3.3 5.8,-3.8 5.8,-4.5 5.8,-5 5.8,-5.6 5.7,-6.2 5.7,-6.6 5.6,-7.1 5.5,-7.6 5.4,-8 5.3,-8.4 5.2,-8.9 4.9,-9.1 4.8,-9.5 4.6,-9.8 4.4,-10.1 4.2,-10.3 3.9,-10.4 3.6,-10.7 3.4,-10.7 3.2,-10.9 2.8,-10.9 2.5,-10.9 2.3,-10.9 1.9,-10.8 1.6,-10.8 1.3,-10.6 0.9,-10.4 0.6,-10.3 0.3,-10 0,-9.7 -0.4,-9.5 -0.7,-9.1 -1.1,-8.8 -1.3,-8.4 -1.7,-7.9 -2.1,-7.5 -2.3,-7.1 -2.6,-6.5 -2.9,-6.1 -3.2,-5.5 -3.5,-5 -3.8,-4.3 -3.9,-3.8 -4.3,-3.3 -4.4,-2.6 -4.7,-1.9 -1.8,-0.6 m -47.4,142.8 -34.2,-10.2 m 34.2,10.2 -0.7,3.6 -0.7,3.6 -0.8,3.6 -0.8,3.6 -0.9,3.6 -0.8,3.7 -0.9,3.6 -1,3.6 M -34.4,-77 l -1.5,-8 -1.2,-8.5 -0.8,-8.8 -0.5,-9.1 -0.2,-9.5 0.1,-9.8 0.5,-10 0.8,-10.2 1.2,-10.4 1.5,-10.5 1.8,-10.6 2.1,-10.7 2.4,-10.7 2.7,-10.8 3,-10.6 3.3,-10.6 3.5,-10.5 3.8,-10.3 4.1,-10.2 4.3,-9.9 4.5,-9.7 4.7,-9.3 4.8,-9.1 5.1,-8.7 5.2,-8.3 5.3,-7.9 5.4,-7.4 5.5,-7 5.6,-6.5 5.7,-6 5.7,-5.5 5.7,-4.9 5.7,-4.3 3,-2 m -96.7,316.8 -2.1,-5.7 -2.1,-7.2 -1.9,-7.6 m 76.7,-66.1 34.3,10.2 m 11.1,-27.1 -1.3,3.4 -1.3,3.5 -1.4,3.4 -1.4,3.4 -1.4,3.4 -1.4,3.3 -1.5,3.4 -1.4,3.3 m -7.8,-82.8 34.3,10.2 m -36.6,-1.5 34.2,10.2 m 2.4,-8.7 -0.3,1.1 -0.3,1.1 -0.3,1.1 -0.3,1.1 -0.2,1.1 -0.3,1.1 -0.3,1 -0.4,1.1 m -43.4,18.7 34.3,10.2 m -37.3,-1.8 34.3,10.2 m 3,-8.4 -0.4,1.1 -0.3,1 -0.4,1.1 -0.4,1 -0.4,1.1 -0.4,1 -0.4,1.1 -0.3,1 m 25.6,-112 -34.2,-10.2 m 34.2,10.2 -0.3,3.5 -0.4,3.5 -0.5,3.5 -0.5,3.5 -0.5,3.6 -0.5,3.6 -0.6,3.5 -0.5,3.1 m -9.7,46.9 -0.9,-0.1 m -9,28.5 0.8,0.5 m -14.5,-85.7 34.3,10.2 m -35.9,-1.6 34.3,10.2 m 1.6,-8.6 -0.2,1.1 -0.2,1.1 -0.2,1 -0.2,1.1 -0.2,1.1 -0.2,1.1 -0.2,1.1 -0.2,1 m 0,0 -1.1,0.3 M 43,-142.2 77.2,-132 m -37.9,-2.4 34.3,10.2 m 3.6,-7.8 -0.4,1 -0.5,1 -0.4,0.9 -0.5,1 -0.4,1 -0.5,1 -0.4,1 -0.5,0.9 m -47.9,13.7 34.3,10.2 m 12.6,-24.2 -1.2,2.6 -1.6,3.2 -1.6,3.2 -1.6,3.1 -1.6,3.1 -1.7,3 -1.6,3 -1.7,3 m 16.6,-32.6 0.6,0.9 m 20.1,114.8 1.4,-1.1 5.7,-4.5 5.8,-5.1 5.7,-5.6 5.6,-6.2 5.6,-6.7 5.6,-7.1 5.4,-7.6 5.3,-8 5.2,-8.4 5,-8.9 4.9,-9.1 4.6,-9.5 4.5,-9.7 4.3,-10 4,-10.2 3.8,-10.4 3.5,-10.6 3.2,-10.6 3,-10.8 2.7,-10.7 2.4,-10.8 2.1,-10.7 1.8,-10.7 1.4,-10.5 1.1,-10.5 0.8,-10.2 0.5,-10 0.1,-9.8 -0.2,-9.5 -0.5,-9.2 -0.9,-8.8 -1.2,-8.5 -1.5,-8 -1.8,-7.7 -2.2,-7.2 -1.9,-5.4 m -125,10.8 -1.1,0.3 -1.8,1.2 -1.8,2.4 -1.2,3 -0.5,1.7 m 21.1,25.4 34.3,10.2 m -35,-1.8 34.2,10.2 m 0.8,-8.4 -0.1,1.1 -0.1,1 -0.1,1 -0.1,1.1 -0.1,1 -0.1,1.1 -0.1,1 -0.1,1.1 m 0.8,-34.6 -34.3,-10.2 m 34.3,10.2 0,3.3 -0.1,3.3 0,3.3 -0.2,3.3 -0.1,3.4 -0.2,3.4 -0.2,3.4 -0.2,2.5 m 0.2,8.7 -1.1,0.6 m -88,162.2 34.3,10.3 m -38.4,-3.2 34.3,10.2 m 4.1,-7 -0.5,0.8 -0.5,0.9 -0.5,0.9 -0.5,0.9 -0.5,0.9 -0.5,0.8 -0.6,0.9 -0.5,0.9 m 3.6,-8.3 0.5,1.3 m 0.2,-217.1 -0.7,2.5 -0.3,2.5 0,2.3 0.3,1.9 0.7,1.5 0.9,0.9 1.2,0.2 1.2,-0.3 1.4,-0.9 1.3,-1.5 1.2,-2 1.1,-2.3 0.8,-2.5 0.6,-2.5 0.2,-2.4 -0.1,-2.2 -0.5,-1.8 -0.7,-1.3 -1,-0.7 -1.2,0 M 7.4,-81.8 41.7,-71.6 m 13.7,-20.7 -1.2,1.9 -1.8,2.8 -1.7,2.8 -1.8,2.7 -1.8,2.7 -1.8,2.6 -1.8,2.6 -1.8,2.6 m 35.9,-217.3 -4.4,-1.4 m 9.7,-35.3 34.2,10.2 m -34.1,-2.4 34.2,10.2 m -0.1,-7.8 0.1,1 0,0.9 0,1 0,1 0,0.9 0,1 0,1 0,1 m 0,0 -1.1,0.9 m -100.4,198.1 4.6,1.4 m 94,-231.6 L 80,-349 m 34.3,10.2 0.3,2.9 0.3,3 0.3,3 0.2,3 0.2,3.1 0.2,3.1 0.1,3.1 0.1,1.9 M 7.7,-80.3 42,-70.1 m -38.7,-4.2 34.3,10.2 m 4.4,-6 -0.5,0.8 -0.6,0.7 -0.6,0.8 -0.5,0.7 -0.6,0.8 -0.5,0.7 -0.6,0.7 -0.5,0.8 m 4.1,-7.5 0.3,1.5 m 36.6,-250.3 -4.9,-1.5 m -85.8,263.8 34.3,10.2 m 14.2,-16.6 -1,1.2 -1.9,2.4 -1.8,2.3 -1.9,2.2 -1.9,2.2 -1.9,2.2 -1.9,2.1 -1.9,2 m -24,-35.8 5.3,1.6 m 76.7,-275 34.3,10.2 m -33.4,-3.4 34.3,10.2 m -0.9,-6.8 0.1,0.8 0.1,0.9 0.1,0.8 0.2,0.9 0.1,0.8 0.1,0.9 0.1,0.9 0.1,0.8 m 0,0 -1.1,1.3 m -5.4,-27.9 -34.3,-10.2 m 34.3,10.2 0.7,2.4 0.6,2.6 0.6,2.5 0.6,2.7 0.5,2.6 0.5,2.7 0.5,2.8 0.2,1.1 M -12,-56.4 22.3,-46.1 m -0.1,-1.8 0.1,1.8 m -38.9,-5.6 34.3,10.2 m 4.6,-4.6 -0.6,0.6 -0.5,0.6 -0.6,0.6 -0.6,0.5 -0.6,0.6 -0.5,0.6 -0.6,0.6 -0.6,0.5 m 58.8,-307.1 -5.8,-1.7 M -32.1,-40.2 2.2,-30 m 14,-11.9 -0.5,0.5 -1.9,1.8 -2,1.8 -1.9,1.7 -1.9,1.6 -1.9,1.6 -2,1.5 -1.9,1.4 m -22.3,-33.6 6.4,1.9 m 89.3,-316.8 34.3,10.2 m 0,0 -1,1.6 m -35,-17.6 34.2,10.2 m 0,0 0.3,0.7 0.2,0.7 0.2,0.8 0.2,0.7 0.3,0.7 0.2,0.7 0.2,0.8 0.2,0.7 m -9.9,-21.3 -34.3,-10.2 m 34.3,10.2 1,2 1,2 0.9,2 0.9,2.1 0.9,2.2 0.8,2.2 0.8,2.3 0.1,0.2 M -32.1,-38.2 2.1,-28 m 0.1,-2 -0.1,2 m -38.8,-7 34.2,10.2 m 4.6,-3.2 -0.5,0.4 -0.6,0.4 -0.6,0.4 -0.6,0.5 -0.5,0.4 -0.6,0.4 -0.6,0.4 -0.6,0.3 m 74.2,-347.6 -7.3,-2.1 m 13.2,86.7 -0.8,0.9 -4.4,5.4 -2.9,3.8 m -43.2,144.9 0.3,5.1 m -78.4,99.1 34.2,10.2 m 13,-6.9 -1.6,1.1 -1.9,1.1 -1.9,1.1 -1.9,1 -1.9,0.9 -1.9,0.9 -1.9,0.8 m -21,-30.8 7.7,2.3 m 97.6,-354.7 34.2,10.2 m 0,0 -0.9,1.8 m -35.9,-16.5 34.3,10.2 m 0,0 0.3,0.6 0.4,0.5 0.3,0.6 0.3,0.5 0.3,0.6 0.3,0.6 0.3,0.5 0.3,0.6 M 88,-406.6 53.7,-416.8 m 34.3,10.2 1.3,1.4 1.2,1.4 1.2,1.5 1.2,1.5 1.2,1.6 1.2,1.7 0.6,0.9 m -115.8,229 1.2,4.6 1.5,4.1 1.8,3.6 2.1,3 2.3,2.5 2.5,1.9 2.8,1.3 3,0.7 3.1,0.1 3.3,-0.6 3.3,-1.2 3.5,-1.8 3.5,-2.4 3.5,-3 3.4,-3.5 3.5,-4 3.3,-4.5 3.2,-4.9 3.1,-5.4 3,-5.6 2.7,-6 2.5,-6.2 2.3,-6.4 2,-6.5 1.7,-6.6 1.4,-6.5 1.1,-6.6 0.8,-6.4 0.4,-6.2 0.2,-6 -0.2,-5.7 -0.6,-5.4 -0.8,-5 -1.2,-4.6 -1.5,-4.1 -1.8,-3.6 -2.1,-3.1 -2.3,-2.5 -2.5,-1.9 -2.8,-1.3 -3,-0.7 -3.1,0 -3.3,0.6 -3.3,1.2 -3.5,1.8 -3.5,2.4 -3.5,2.9 -3.4,3.5 -3.5,4.1 -3.3,4.5 -3.2,4.9 -3.1,5.3 -3,5.7 -2.7,6 -2.5,6.2 -2.2,6.3 -2,6.5 -1.8,6.6 -1.4,6.6 -1.1,6.5 -0.8,6.4 -0.4,6.3 -0.2,6 0.2,5.7 0.6,5.4 0.8,5 m 2.9,9.2 0.4,1.1 1.8,3.6 2.1,3.1 2.3,2.6 2.6,1.9 2.7,1.4 3,0.8 3.1,0.1 3.3,-0.5 3.4,-1.1 3.4,-1.7 3.5,-2.3 3.6,-2.9 3.5,-3.4 3.4,-4 3.4,-4.4 3.3,-4.8 3.2,-5.3 3,-5.6 2.8,-6 2.6,-6.1 2.4,-6.4 2.1,-6.5 1.8,-6.6 1.5,-6.7 1.3,-6.6 0.9,-6.5 0.6,-6.3 0.3,-6.2 -0.1,-5.9 -0.3,-5.6 -0.8,-5.2 -1,-4.9 -1.3,-4.4 -1.7,-3.9 -1.9,-3.3 -2.2,-2.9 -2.4,-2.2 -2.7,-1.7 -2.9,-1.1 -3,-0.4 -3.2,0.2 -3.4,0.8 -3.4,1.4 -3.5,2 -1.3,0.9 M 0.3,-143 l 2.1,0.4 3.2,0.1 3.2,-0.4 3.4,-1.1 3.5,-1.8 3.5,-2.3 3.5,-2.8 3.5,-3.5 3.5,-3.9 3.4,-4.4 3.3,-4.9 3.1,-5.3 3,-5.6 2.8,-5.9 2.6,-6.2 2.4,-6.4 2.1,-6.5 1.8,-6.6 1.6,-6.6 1.2,-6.6 0.9,-6.5 0.6,-6.4 0.3,-6.1 0,-5.9 -0.4,-5.6 -0.7,-5.3 -1.1,-4.8 -1.3,-4.4 -1.6,-3.9 -2,-3.4 -2.2,-2.8 -2.4,-2.3 -2.7,-1.7 -2.3,-0.9 m -51.1,83.9 1.3,-10.3 m 0,0 0.1,-0.3 0,-0.3 0.2,-0.4 0.1,-0.3 0.2,-0.2 0.2,-0.3 0.1,-0.1 0.2,-0.2 m 0,0 3.5,-1.5 m 0,0 -0.7,-2.3 m 0,0 0,-0.2 0.1,-0.1 0,-0.2 0,-0.1 0.1,-0.2 0,-0.1 0.1,-0.2 0,-0.1 m 0,0 0,0 m 0,0 2.1,-2.5 m 0,-0.1 0,0 0,0.1 m 0,-0.1 -0.4,-3.2 m 0,0 0,-0.2 0.1,-0.1 0,-0.2 0.1,-0.1 0,-0.1 0.1,-0.2 0,-0.1 0.1,-0.2 m 0,0 0,0 m 0,0 2.1,-1.9 m 0.1,-0.1 0,0 -0.1,0.1 m 0.1,-0.1 -0.1,-3.6 m 0,0 0.1,-0.1 0,-0.2 0.1,-0.1 0,-0.1 0.1,-0.2 0.1,-0.1 0,-0.1 0.1,-0.2 m 0,0 0,0 m 0,0 2.1,-1.2 m 0.1,-0.2 0,0 -0.1,0.1 0,0.1 m 0.1,-0.2 0.3,-3.8 m 0,0 0,-0.1 0.1,-0.2 0.1,-0.1 0,-0.1 0.1,-0.1 0.1,-0.2 0,-0.1 0.1,-0.1 m 0,0 0,0 m 0,0 2,-0.6 m 0.1,-0.1 0,0 0,0.1 -0.1,0 m 0.1,-0.1 0.7,-4 m 0,0 0,-0.1 0.1,-0.1 0.1,-0.1 0.1,-0.1 0,-0.2 0.1,-0.1 0.1,-0.1 0.1,-0.1 m 0,0 0,0 m 0,0 1.8,0.1 m 0.1,-0.1 0,0.1 -0.1,0 m 0.1,-0.1 1,-4 m 0,0 0.1,-0.1 0.1,-0.1 0.1,-0.1 0,-0.1 0.1,-0.1 0.1,0 0.1,-0.1 0.1,-0.1 m 0,0 0,0 m 0,0 1.6,0.8 m 0.1,-0.1 0,0 0,0.1 -0.1,0 m 0.1,-0.1 1.3,-3.9 m 0,0 0.1,-0.1 0.1,-0.1 0.1,0 0.1,-0.1 0,-0.1 0.1,-0.1 0.1,0 0.1,-0.1 m 0,0 0,0 m 0,0 1.4,1.5 m 0.1,0 0,0 -0.1,0 m 0.1,0 1.6,-3.8 m 0,0 0.1,0 0,-0.1 0.1,0 0.1,-0.1 0.1,0 0,-0.1 0.1,0 0.1,-0.1 m 0,0 0,0 m 0,0 1.1,2.2 m 0.1,-0.1 0,0 0,0.1 -0.1,0 m 0.1,-0.1 1.8,-3.4 m 0,0 0.1,0 0.1,0 0.1,-0.1 0.1,0 0.1,0 0.1,0 0,-0.1 m 0,0 0,0 m 0,0 0.8,2.7 m 0.1,0 0,0 -0.1,0 m 0.1,0 2,-3 m 0,0 0.1,0 0.1,0 0.1,0 0.1,0 0.1,0 0.1,0 m 0,0 0,0 m 0,0 0.3,2.8 m 0,0 2.5,-6.4 m 0,0 0.1,-0.4 0.2,-0.2 0.1,-0.3 0.2,-0.2 0.2,-0.1 0.2,-0.1 0.1,0 0.2,0.1 m 0,0 4.1,3 m 0,0 0.1,0.2 0.1,0.2 0.1,0.2 0,0.3 0,0.3 -0.1,0.3 -0.1,0.4 -0.1,0.3 m 0,0 -2.4,6.4 m 0,0 1.8,-1 m 0,0 0.1,0 0,0.1 0.1,0.1 0,0.1 0.1,0.1 0,0.1 0.1,0.1 m 0,0 0,0 m 0,0 -0.7,4 m 0,0.1 0,0 0,-0.1 m 0,0.1 2.1,-0.6 m 0,0 0,0.1 0,0.1 0.1,0.1 0,0.1 0,0.1 0.1,0.1 0,0.1 0,0.1 m 0,0 0,0 m 0,0 -1,4 m 0,0.1 0,0 0,-0.1 m 0,0.1 1.9,0.2 m 0,0 0.1,0.1 0,0.1 0,0.1 0,0.1 0,0.1 0,0.2 0,0.1 0.1,0.1 m 0,0 0,0 m 0,0 -1.4,3.9 m 0.1,0.2 0,-0.1 -0.1,0 0,-0.1 m 0.1,0.2 1.6,0.8 m 0,0 0,0.1 0.1,0.2 0,0.1 0,0.1 0,0.1 0,0.2 0,0.1 0,0.1 m 0,0 0,0 m 0,0 -1.6,3.8 m 0,0.1 0,0 0,-0.1 m 0,0.1 1.4,1.5 m 0,0 0,0.2 0,0.1 0,0.1 0,0.2 0,0.1 -0.1,0.2 0,0.1 0,0.2 m 0,0 0,0 m 0,0 -1.8,3.4 m 0,0.1 0,0 0,-0.1 m 0,0.1 1.1,2.1 m 0,0 0,0.2 0,0.1 -0.1,0.2 0,0.1 0,0.2 0,0.1 -0.1,0.2 0,0.1 m 0,0 0,0 m 0,0 -2,3 m 0,0.2 0,0 0,-0.1 0,-0.1 m 0,0.2 0.8,2.7 m 0,0 0,0.1 -0.1,0.2 0,0.1 0,0.2 -0.1,0.1 0,0.2 -0.1,0.1 0,0.2 m 0,0 0,0 m 0,0 -2.1,2.5 m 0,0.1 0,0 0,-0.1 m 0,0.1 0.4,3.2 m 0,0 0,0.1 -0.1,0.2 0,0.1 -0.1,0.1 0,0.2 -0.1,0.1 0,0.2 -0.1,0.1 m 0,0 0,0 m 0,0 -2.1,1.9 m -0.1,0.2 0,0 0,-0.1 0.1,0 0,-0.1 m -0.1,0.2 0.1,3.5 m 0,0 -0.1,0.2 0,0.1 -0.1,0.1 0,0.2 -0.1,0.1 -0.1,0.2 0,0.1 -0.1,0.1 m 0,0 0,0 m 0,0 -2.1,1.3 m -0.1,0.1 0.1,0 0,-0.1 m -0.1,0.1 -0.3,3.9 m 0,0 0,0.1 -0.1,0.1 -0.1,0.1 0,0.2 -0.1,0.1 -0.1,0.1 0,0.1 -0.1,0.2 m 0,0 0,0 m 0,0 -1.8,0.5 m 0,0 1.1,4.9 m 0,0 0,0.2 0,0.3 0,0.4 -0.1,0.3 -0.1,0.4 -0.1,0.3 -0.2,0.3 -0.1,0.2 m 0,0 -5.4,7.2 m 0,0 -0.2,0.3 -0.1,0.1 -0.2,0.1 -0.2,0 -0.1,0 -0.2,-0.1 -0.1,-0.2 0,-0.2 m 0,0 -1.1,-4.9 m 0,0 -1.1,3.4 m 0,0 -0.1,0.1 -0.1,0 -0.1,0.1 0,0.1 -0.1,0 -0.1,0.1 -0.1,0.1 -0.1,0 m 0,0 0,0 m 0,0 -1.4,-1.5 m -0.1,0.1 0,0 0.1,0 0,-0.1 m -0.1,0.1 -1.6,3.7 m 0,0 0,0.1 -0.1,0 -0.1,0.1 -0.1,0 -0.1,0.1 -0.1,0.1 -0.1,0 m 0,0 0,0 m 0,0 -1.1,-2.1 m -0.1,0 0,0 0.1,0 m -0.1,0 -1.8,3.4 m 0,0 -0.1,0.1 -0.1,0 -0.1,0 -0.1,0.1 -0.1,0 -0.1,0 m 0,0 0,0 m 0,0 -0.8,-2.7 m -0.1,0 0,0 0.1,0 m -0.1,0 -2,3 m 0,0 -0.1,0 -0.1,0 -0.1,0 -0.1,0 -0.1,0 -0.1,0 m 0,0 0,0 m 0,0 -0.4,-3.2 m -0.1,0 0,0 0.1,0 m -0.1,0 -2.1,2.5 m 0,0 0,0 -0.1,0 -0.1,-0.1 -0.1,0 0,-0.1 -0.1,0 -0.1,0 m 0,0 0,0 m 0,0 0,-3.6 m -0.1,0 0,0 0.1,0 m -0.1,0 -2.1,1.9 m 0,0 -0.1,-0.1 -0.1,-0.1 -0.1,0 0,-0.1 -0.1,-0.1 -0.1,-0.1 m 0,0 0,0 m 0,0 0.3,-3.8 m 0,-0.1 0,0 0,0.1 m 0,-0.1 -2.1,1.3 m 0,0 -0.1,-0.1 0,-0.1 -0.1,0 0,-0.1 0,-0.1 -0.1,-0.1 0,-0.1 -0.1,0 m 0,0 0,0 m 0,0 0.7,-4 m 0,-0.1 0,0 0,0.1 m 0,-0.1 -2.1,0.6 m 0,0 0,-0.1 0,-0.1 -0.1,-0.1 0,-0.1 0,-0.1 -0.1,-0.1 0,-0.1 0,-0.1 m 0,0 0,0 m 0,0 1,-4.1 m 0,-0.1 0,0 0,0.1 m 0,-0.1 -1.9,-0.1 m 0,0 0,-0.1 -0.1,-0.1 0,-0.2 0,-0.1 0,-0.1 0,-0.1 0,-0.1 -0.1,-0.1 m 0,0 0,0 m 0,0 1.4,-4 m 0,-0.1 0,0 0,0.1 m 0,-0.1 -1.7,-0.8 m 0,0 0,-0.2 0,-0.1 0,-0.1 -0.1,-0.2 0,-0.1 0,-0.1 0,-0.2 0,-0.1 m 0,0 0,0 m 0,0 1.4,-3.2 m 0,0 -3.5,1.5 m 0,0 -0.1,0 -0.2,0 -0.1,-0.1 -0.1,-0.1 -0.1,-0.2 -0.1,-0.3 0,-0.3 0,-0.3 m 218.8,36.7 0.5,0.3 0.8,0.9 0.5,1.2 0.1,1.3 -0.3,1.3 -0.7,1.1 -1,0.9 -1.2,0.4 -0.4,0 m -145.4,-236.2 -7.6,-2.2 m -107.2,367.2 34.3,10.2 m 0.2,-2.1 -0.2,2.1 m -38.8,-8.5 34.3,10.2 m 4.5,-1.7 -0.6,0.2 -0.6,0.2 -0.5,0.3 -0.6,0.2 -0.5,0.2 -0.6,0.2 -0.6,0.2 -0.5,0.2 m 24.8,-128 1.1,0.5 3,0.8 3.1,0.1 3.3,-0.5 3.4,-1.1 3.4,-1.7 3.5,-2.3 3.6,-2.9 3.5,-3.4 3.4,-4 3.4,-4.4 3.3,-4.9 3.2,-5.2 3,-5.6 2.8,-6 2.6,-6.1 2.4,-6.4 2.1,-6.5 1.8,-6.6 1.5,-6.7 1.3,-6.6 0.9,-6.5 0.6,-6.3 0.3,-6.2 -0.1,-5.9 -0.3,-5.6 -0.8,-5.2 -1,-4.9 -1.3,-4.4 -1.7,-3.9 -1.9,-3.4 -2.2,-2.8 -2.4,-2.3 -2.7,-1.6 -2.9,-1.1 -1.5,-0.3 m -32.7,142.8 2.1,0.4 3.1,0.2 3.3,-0.5 3.4,-1.1 3.4,-1.7 3.5,-2.3 3.6,-2.9 3.5,-3.4 2,-2.3 m 30.6,-88.3 -0.1,-3.3 -0.3,-5.6 -0.7,-5.2 -1.1,-4.9 -1.3,-4.4 -1.7,-3.9 -1.9,-3.4 -2.2,-2.8 -2.4,-2.3 -2.7,-1.6 -2.3,-0.9 m -39.3,135.1 0.5,-0.2 3.4,-1.3 3.4,-1.9 3.5,-2.5 3.4,-3 3.5,-3.6 3.4,-4.2 3.3,-4.6 3.2,-5 3,-5.4 2.8,-5.7 2.7,-6 2.4,-6.2 2.2,-6.4 1.8,-6.5 1.6,-6.5 1.3,-6.6 1,-6.4 0.6,-6.3 0.3,-6.1 0,-5.9 -0.3,-5.5 -0.7,-5.2 -1,-4.7 -1.4,-4.4 -1.6,-3.8 -1.9,-3.3 -1.9,-2.3 m -47,132.8 0.8,0.8 2.6,2.1 2.8,1.4 3,0.9 3.2,0.2 3.3,-0.4 3.4,-1.1 3.5,-1.6 3.6,-2.2 3.6,-2.8 3.6,-3.4 1.6,-1.7 m 32.4,-102.2 -0.3,-2.6 -0.1,-0.7 m -2,-9.1 -1.5,-4.3 -1.9,-3.7 -2,-3.2 -2.4,-2.6 -2.6,-2.1 -2.8,-1.4 -3,-0.9 -3.1,-0.2 -3.4,0.4 -0.6,0.2 m -41.7,140.2 0.8,0.8 2.6,2.1 2.8,1.4 3,0.9 3.2,0.2 3.3,-0.4 3.4,-1.1 3.5,-1.6 3.6,-2.2 3.6,-2.8 3.6,-3.4 1.6,-1.7 m 32.4,-102.2 -0.3,-2.6 -0.1,-0.7 m -2,-9.1 -1.5,-4.3 -1.9,-3.7 -2,-3.2 -2.4,-2.6 -2.6,-2.1 -2.8,-1.4 -3,-0.9 -3.1,-0.2 -3.4,0.4 -0.6,0.2 m -30.9,135.5 1.3,-0.5 3.4,-1.9 3.5,-2.5 3.4,-3 3.5,-3.6 3.3,-4.1 3.3,-4.6 3.2,-5 3,-5.3 2.8,-5.7 2.6,-6 2.4,-6.2 2.2,-6.4 1.9,-6.4 1.6,-6.5 1.2,-6.5 1,-6.4 0.6,-6.3 0.4,-6.1 -0.1,-5.8 -0.3,-5.5 -0.7,-5.1 -1,-4.8 -1.3,-4.3 -1.7,-3.8 -1.9,-3.3 -0.1,-0.1 m -124.6,248.1 34.3,10.2 m 11.1,-2 -0.3,0.1 -1.8,0.5 -1.8,0.4 -1.9,0.3 -1.7,0.3 -1.8,0.3 -1.8,0.1 m -20.2,-27.2 7.6,2.3 m 233.8,-122.1 40.8,12.1 m -43.3,-4.3 40.8,12.1 m 0,0 0.3,-0.9 0.3,-1 0.3,-1 0.4,-1 0.3,-0.9 0.3,-1 0.3,-1 0.3,-1 m -35.6,-30.5 40.7,12.2 m -42.9,-4.3 40.9,12.2 m 0,0 0.2,-1 0.3,-1 0.2,-1 0.3,-1 0.3,-1 0.2,-1 0.3,-1 0.2,-0.9 m -51.9,24.2 40.6,12.1 m -43.4,-4.5 40.4,12 m 0,0 0.4,-0.9 0.4,-1 0.3,-0.9 0.4,-0.9 0.4,-1 0.4,-0.9 0.3,-0.9 0.4,-1 m -25.1,-66.8 40.3,12 m -42.1,-4.1 40.6,12 m 0,0 0.2,-1 0.2,-1 0.2,-0.9 0.1,-1 0.2,-1 0.2,-1 0.2,-1 0.2,-1 m -180,-233.5 34.3,10.2 m 0,0 -0.8,2 m 96.8,245.5 38.3,11.4 m 0,0 2.4,1.2 m -37.9,-22 38.2,11.4 m 2.8,0.2 -2.8,-0.2 m -174.5,-262.7 34.3,10.2 m 0,0 0.4,0.4 0.4,0.3 0.4,0.4 0.4,0.4 0.4,0.4 0.4,0.4 0.4,0.4 0.4,0.3 m 123.4,246.4 1.2,0.7 0.8,1.2 0.4,1.4 -0.1,1.5 -0.7,1.4 -1.1,1 -1.4,0.5 -1.4,-0.1 m 0,0 -1.2,-0.3 m 0,0 -1.2,-0.7 -0.9,-1.2 -0.3,-1.4 0.1,-1.5 0.7,-1.4 1.1,-1 1.3,-0.5 1.4,0.1 m 0,0 1.3,0.3 m 13.6,3.1 -2.7,9.4 m -44,5.9 38,11.3 m 0,0 2.2,2 m 1.1,-10.9 -3.3,8.9 m -25,-55.5 37.9,11.3 m 3,-0.7 -3,0.7 m 0,0 -2,9.1 m -55.9,42.4 40,11.9 m -43.1,-4.7 39.7,11.8 m 0,0 0.4,-0.9 0.5,-0.9 0.4,-0.8 0.4,-0.9 0.4,-0.9 0.5,-0.9 0.4,-0.9 0.4,-0.9 m -14.5,-101.9 39.5,11.8 m -40.9,-4.2 39.9,11.9 m 0,0 0.1,-0.9 0.2,-1 0.1,-1 0.1,-0.9 0.1,-1 0.1,-1 0.2,-0.9 0.1,-1 m -64.3,76.2 37.5,11.2 m 3.3,-7.8 -3.3,7.8 m 0,0 1.8,2.7 m -16.3,-92 37.3,11.1 m 0,0 -1.3,8.1 m 4.3,-9.6 -3,1.5 M 73.2,-417.1 39,-427.3 m 34.2,10.2 1.6,0.7 1.5,0.8 1.4,0.8 1.5,0.9 1,0.7 m 84.7,304.4 39.1,11.6 m -42.2,-4.9 38.5,11.4 m 0,0 0.5,-0.7 0.5,-0.9 0.4,-0.8 0.5,-0.8 0.4,-0.8 0.5,-0.8 0.5,-0.8 0.4,-0.9 M 50.6,-405 43,-407.3 m 123.1,295.9 36.5,10.8 m 3.3,-6.4 -3.3,6.4 m -2.6,-131.7 38.3,11.5 m -39.2,-4.2 38.8,11.5 m 0,0 0.1,-0.9 0,-0.9 0.1,-0.9 0,-1 0.1,-0.9 0,-0.9 0.1,-0.9 0,-0.9 m -39.7,-1.2 36.2,10.7 m 0,0 -0.6,7.1 m -31.6,103.6 1.4,3.4 m 33.9,-116.3 -3.1,2.2 m -306,189.6 34.2,10.2 m 0.5,-2.1 -0.5,2.1 m -38.4,-10.1 34.3,10.2 m 4.1,-0.1 -0.5,0 -0.5,0.1 -0.5,0 -0.6,0 -0.5,0 -0.5,0 -0.5,0 -0.5,0 m 200.3,-85.5 35,10.4 m 3.1,-5 -3.1,5 m 6.4,-151.3 34.7,10.4 m 0,0 -0.1,5.6 m -77.7,128.1 37.8,11.3 m -41,-5.3 37,11.1 m 0,0 0.5,-0.7 0.5,-0.8 0.5,-0.7 0.5,-0.7 0.5,-0.7 0.5,-0.8 0.5,-0.7 0.5,-0.7 m 15.1,-80.3 1.8,0.5 m -18,75.7 1.1,4.1 m 6.2,-165.8 36.7,10.9 m -37.2,-4.2 37.4,11.1 m 0,0 0,-0.9 0,-0.8 -0.1,-0.9 0,-0.9 0,-0.8 0,-0.9 -0.1,-0.8 0,-0.9 m 0.2,6.9 -3.1,3 m -309.1,188.7 7.8,2.3 m 218.2,-47.5 33.1,9.9 m -7.3,-6.6 -0.2,0.4 -1,0.9 -1.4,0.6 -1.5,0.3 -1.5,-0.2 m 0,0 -1.2,-0.4 m 0,0 -1.2,-0.6 -0.7,-0.9 -0.1,-1 0.5,-1.1 0.3,-0.4 m 18,5.4 -2.7,3.6 m 16.5,-178.3 32.7,9.8 m -13.4,-3.2 1.4,0.6 1.1,1 0.8,1.3 0.4,1.3 0,0.2 m -8,-2.4 0,-0.2 0.1,-1.1 0.7,-0.9 1,-0.3 1.3,0.1 m 0,0 1.2,0.4 m 13.4,3.2 0.3,4.2 m -84.7,158.2 35.9,10.7 m -0.7,-4.6 0.7,4.6 m -39.1,-5.4 35,10.4 m 0,0 0.5,-0.6 0.5,-0.6 0.5,-0.6 0.5,-0.7 0.5,-0.6 0.5,-0.6 0.5,-0.7 0.6,-0.6 m -154,-136.7 0,0 m -2.6,6.7 0,0 m 172.8,-63.3 34.5,10.3 m -34.7,-4.3 35.5,10.6 m 0,0 -0.1,-0.8 -0.1,-0.8 -0.1,-0.8 -0.1,-0.8 -0.1,-0.8 -0.1,-0.8 -0.1,-0.8 -0.1,-0.7 m 0.8,6.3 -3,3.6 m -194.9,-186.9 34.3,10.2 m 0,0 -0.7,2.1 m -46.8,224 0,0 m 9.5,-237.8 34.2,10.2 m 0,0 0.5,0.2 0.5,0.2 0.5,0.1 0.4,0.2 0.5,0.2 0.5,0.2 0.4,0.2 0.5,0.2 m 71.6,346.7 30.6,9.1 m 2,-2.1 -2,2.1 M 22.3,-181.6 17.5,-183 m 184.8,-82.1 30,8.9 m 0,0 0.5,2.6 m -89.9,185.3 33.4,10 m -0.2,-5.1 0.2,5.1 m -140,-181.6 -2,-0.6 m 105.6,176.7 32.2,9.6 m 0,0 0.5,-0.5 0.6,-0.5 0.5,-0.5 0.5,-0.5 0.5,-0.6 0.6,-0.5 0.5,-0.5 0.5,-0.5 m -139.9,-354 -7.9,-2.4 m 173.8,144.5 32.9,9.8 m 0,0 -2.9,4.2 m -30,-19.2 31.6,9.4 m 1.3,5.6 -0.1,-0.7 -0.2,-0.7 -0.1,-0.7 -0.2,-0.7 -0.2,-0.7 -0.2,-0.7 -0.1,-0.7 -0.2,-0.7 m -218.2,86.9 0,0 m 0.8,-0.8 -2.2,-0.7 m 20.9,-63.6 -2.2,-0.6 m 3.3,-167.2 -0.2,0 -0.9,-0.1 -1,-0.1 -1,-0.1 m -12.4,-3.7 12.4,3.7 m -122,388.4 34.3,10.2 m 0.5,-1.5 -0.5,1.5 m 193.9,-49.3 27.3,8.2 m 0.9,-0.8 -0.9,0.8 M 12,-176.4 l 0,0 m 1.1,-1.4 -2.2,-0.7 m 22.6,-69.4 -2,-0.6 m 170.8,-27.6 26.6,8 m 0,0 0.3,0.7 m -93,209 30.3,9 m 0.2,-5.4 -0.2,5.4 m -243.3,10 -0.1,0.3 m -12.3,-4 12.4,3.7 m 210.5,-15.4 28.6,8.5 m 0,0 0.5,-0.4 0.6,-0.3 0.5,-0.4 0.5,-0.4 0.5,-0.4 0.6,-0.4 0.5,-0.4 0.5,-0.4 m 35.6,-232.3 29.6,8.9 m 0,0 -2.8,4.7 m -220.5,93.2 0,0 m 1.5,-2 -2.3,-0.7 m 194.3,-108.3 27.9,8.3 m 1.9,4.8 -0.2,-0.7 -0.3,-0.6 -0.2,-0.6 -0.2,-0.6 -0.3,-0.6 -0.2,-0.5 -0.3,-0.6 -0.2,-0.6 m -313.3,233.8 0.8,0.7 0.8,0.6 0.9,0.5 0.8,0.6 0.8,0.5 0.9,0.5 0.8,0.5 0.9,0.5 m -6.7,-4.4 -12.4,-3.7 M 7.1,-177 4.5,-177.8 m 0.4,3.2 0,0 m 21.1,-77.9 6.3,1.9 m -108.7,209 0.8,0.6 0.8,0.6 0.9,0.5 0.8,0.6 0.8,0.5 0.9,0.5 0.8,0.5 m -5.8,-3.8 -1.1,1.8 m 100,-393.4 12.9,3.9 m 95.1,378.6 26.2,7.9 m 0.6,-5 -0.6,5 M 2.4,-175.4 1.8,-175.5 m 5.6,-1.9 -5.6,-1.7 m 0.6,3.7 -0.6,-0.1 m 23.9,-79.6 -0.6,-0.2 m 103.3,207.3 24.2,7.2 m 0,0 0.5,-0.2 0.5,-0.2 0.6,-0.3 0.5,-0.3 0.5,-0.2 0.5,-0.3 0.5,-0.3 0.5,-0.2 m -222,4.5 -11.1,-3.3 m 108.4,-208 -8.9,-2.7 m 178.4,-38.6 25.4,7.6 m 0,0 -2.1,4.2 M 7.4,-177.4 1.7,-179.1 m 30.2,-70.5 -8.9,-2.7 m 178.2,-41.7 23.3,6.9 m 2.4,3.8 -0.3,-0.5 -0.3,-0.5 -0.3,-0.5 -0.3,-0.5 -0.3,-0.4 -0.3,-0.5 -0.3,-0.5 -0.3,-0.4 m -199,-127.5 -1,2.5 m 0,0 -12.4,-3.6 m -12.3,238.2 -0.7,-0.2 m 11.5,-0.5 -11.2,-3.3 m 0.4,4 -0.7,-0.2 m 23.3,-76.9 -0.8,-0.2 m 11.8,7.5 -13.6,-4.1 m -9.1,73.2 -11.3,-3.4 m 25.1,-230.5 -1,0.2 -1.1,0.2 -1,0.1 -1,0.3 -1.1,0.2 -1,0.2 -1.1,0.3 -1,0.3 m -12.5,-3.7 12.5,3.7 m 17.2,163 -13.7,-4 M 14,-180 -2.4,-184.9 m 0.3,4.2 -1,-0.2 m 1,0.2 -1,-0.2 m -101.2,147.9 5.4,1.6 M 19,-252.8 l -1,-0.3 m 17.1,9.3 -18.7,-5.5 m -2.3,69.2 -16.5,-4.9 m 128.5,140 21.1,6.3 m 0.6,-3.5 -0.6,3.5 m -124.1,-373.2 0.2,3.7 m 8.3,-1.7 -1,0.1 -1.1,0.2 -1,0.2 -1,0.2 -1.1,0.2 -1,0.3 -1.1,0.2 -1,0.3 m 8.3,-1.7 1,-2.6 m 2.5,168.8 -18.8,-5.6 m 34.1,-155 -18.8,-5.6 m 93,366.6 18.6,5.6 m 0,0 0.5,-0.1 0.5,-0.1 0.5,-0.2 0.5,-0.1 0.5,-0.1 0.5,-0.1 0.5,-0.2 0.5,-0.1 M 17.5,-183 -3.7,-189.3 m 0.5,4.5 -1.5,-0.4 m 1.5,0.4 -1.5,-0.4 m 20.6,-64.5 -1.7,-0.5 m 22.1,10.9 -23.4,-7 m 188,-51.2 20,5.9 m 0,0 -1.2,3.1 m -309.8,238.4 -1,4.1 m -11.4,-7.8 12.4,3.7 m 112.5,-131.5 -26.1,-7.8 m 27,-218.8 27.1,8.1 m -14.1,160.9 -23.5,-7 m 187.8,-53.4 17.5,5.2 m 2.8,2.8 -0.3,-0.3 -0.4,-0.4 -0.3,-0.4 -0.4,-0.3 -0.3,-0.4 -0.4,-0.3 -0.4,-0.3 -0.3,-0.4 m -192.8,108.9 -29.7,-8.9 m 27,12.4 -28.4,-8.4 m -89.8,133.1 0.6,1 0.7,0.9 0.7,1 0.6,0.9 0.7,0.9 0.7,0.8 0.7,0.9 0.8,0.8 m -5.5,-7.2 -12.4,-3.7 m 144.1,-177.7 -25.6,-7.6 m 26.3,12.2 -27.3,-8.2 m 13.1,60.3 -28.4,-8.4 m 31.1,4.8 -29.7,-8.9 m 29.8,8.6 -31.5,-9.4 M 36.8,-234 9.4,-242.2 m 27.4,8.6 -29.2,-8.7 m 18.1,55.4 -31.9,-9.5 m 1.4,-3.2 29.8,8.9 M 36.4,-232.6 7,-241.4 m 29.2,12.9 -29.9,-8.9 m 19.4,50.5 -31.9,-9.5 m 42.6,-31.9 -30.2,-9 m 30.3,10.2 -32.3,-9.6 M -84,-43.9 -83,-48 m -5.5,-7.2 0.6,1 0.7,0.9 0.7,1 0.6,0.9 0.7,0.9 0.7,0.9 0.7,0.8 0.8,0.8 m -5.5,-7.2 -2.9,3.6 m 8.4,3.6 25.2,7.5 M 36,-226.1 3.7,-235.7 m 31.5,13.3 -31.8,-9.5 m 31.9,9.7 -32,-9.5 m 32.3,11.5 -34.4,-10.3 M 35,-219.2 0.7,-229.4 m 33.2,13.4 -33.1,-9.8 m 122.4,184.2 14.9,4.4 m 0.5,-1.9 -0.5,1.9 M 33.9,-215.8 0.7,-225.7 m 33.4,12.5 -35.5,-10.6 m 34.7,11.7 -35.1,-10.5 m 33.9,13.1 -33.5,-9.9 m 31.2,15.9 -32.9,-9.8 m 34.2,8.1 -34.9,-10.4 m 35.9,6.3 -33.5,-10 m 33.5,13.1 -35.6,-10.6 m 7.1,-213.1 3.2,0.9 m -54.5,386 -40.8,-12.2 m 211,14.4 11.8,3.5 m 0,0 0.5,0.1 0.4,0 0.5,0 0.5,0 0.4,0.1 0.5,0 0.5,0 0.5,-0.1 m -106,-169 -35.6,-10.6 m 203.9,-84.7 13.6,4.1 m 0,0 -0.6,1.6 M 8.5,-412.5 l -1.7,5.8 m 0,0 -12.4,-3.7 m 205.9,108.1 10.4,3.1 m 3.3,1.8 -0.4,-0.3 -0.4,-0.2 -0.4,-0.2 -0.5,-0.3 -0.4,-0.2 -0.4,-0.2 -0.4,-0.2 -0.4,-0.2 M 6.8,-406.7 l -1.1,0.5 -1.1,0.6 -1.1,0.6 -1.1,0.5 -1,0.7 -1.1,0.6 -1.1,0.6 -1.1,0.7 m -12.5,-3.7 12.5,3.7 m 6.1,-3.5 1,5.6 m 8.7,-4.8 -1.1,0.6 -1.1,0.5 -1.1,0.6 -1.1,0.6 -1,0.6 -1.1,0.6 -1.1,0.7 -1.1,0.6 m 8.7,-4.8 1.8,-5.8 m -3.5,-1.1 -0.3,0.2 -1.6,0.8 -1.6,1 -1.2,0.7 m -124.6,360.1 2.5,0.8 M 62.3,-390.2 13.9,-404.6 m 108.2,364.2 7.4,2.2 m 0.2,-0.5 -0.2,0.5 m -230.4,-28.4 -2.4,7 m -10,-10.7 12.4,3.7 m 106.1,-333.2 55.7,16.7 m 68.1,344.8 0.1,0 0.4,0.1 m 70.7,-264.3 5.9,1.7 m 0,0 -0.1,0.2 m -311,224.1 0.5,1.3 0.5,1.3 0.5,1.2 0.5,1.3 0.5,1.2 0.5,1.2 0.6,1.2 0.5,1.2 m -4.1,-9.9 -12.4,-3.7 m 21.3,22.7 2.3,-7 m -4.1,-9.9 0.5,1.3 0.5,1.3 0.5,1.2 0.5,1.3 0.5,1.2 0.5,1.2 0.6,1.2 0.5,1.2 m -4.1,-9.9 -4.4,4.1 m -0.2,0.1 0.1,0 0.1,-0.1 m 1.1,4.6 0.5,1.4 0.8,1.8 0.8,1.8 0.8,1.8 0.4,0.9 m 4.1,-6.5 54,16.1 m -1.4,-9.1 -56.7,-16.9 m 56.7,16.9 0.4,1.3 0.5,1.2 0.5,1.3 0.5,1.3 0.5,1.2 0.6,1.2 0.5,1.1 m 21.5,-370.9 2,0.6 m 4.3,15.9 -1.7,8.2 m 1.7,-8.2 -12.4,-3.7 m 10.7,11.9 -12.4,-3.7 m 12.4,3.7 -1.1,0.9 -1.1,0.9 -1.1,0.9 -1.1,1 -1.1,1 -1.1,0.9 -1.2,1.1 -1.1,1 m -12.4,-3.7 12.4,3.7 m 10.6,-15.9 0.1,-0.1 0,-0.1 0,-0.2 0.1,-0.1 0,-0.1 0,-0.1 0.1,-0.1 0,-0.1 m 7.1,2.2 0,0 -0.1,0.1 0,0.1 0,0.1 -0.1,0.2 0,0.1 0,0.1 -0.1,0.1 m 56.7,16.9 -56.7,-16.9 m 56.7,16.9 0,-0.3 0.1,-0.3 0.1,-0.3 m -69.3,-5.2 1.8,5.1 m 8.9,-7.7 -1.1,0.9 -1.1,0.9 -1.1,1 -1.1,0.9 -1.1,1 -1.1,1 -1.2,1 -1.1,1 m 8.9,-7.7 1.7,-8.2 m 0.3,-0.9 -1.6,1.2 -1.6,1.3 -1.7,1.4 -1.6,1.4 -1.6,1.4 -1.7,1.5 -1.6,1.5 -1.6,1.6 m 0,0 0,0 0.1,0 0,0.1 0.1,0.1 0,0.1 0.1,0.1 m 67.4,14.3 -56.7,-16.9 m 58.4,8.7 -1.7,8.2 m -68.6,-15 0.9,0.3 m -111.3,320.3 1.7,0.6 m 13.2,-11.1 -12.5,-3.7 m 15.8,-3.9 -3.3,7.6 m -9.2,-11.3 12.5,3.7 m 95.2,-296.7 56.7,16.9 m 8.9,-7.7 -1.2,0.9 -1.1,0.9 -1.1,0.9 -1.1,1 -1.1,1 -1.1,0.9 -1.1,1 -1.1,1.1 m -154.5,267.7 0.2,1.5 0.3,1.6 0.3,1.5 0.4,1.6 0.3,1.5 0.3,1.5 0.4,1.5 0.4,1.4 m -2.6,-12.1 -12.5,-3.7 m 75.5,42.4 -56.6,-16.8 m -0.3,0.9 0,-0.1 0,-0.2 0,-0.1 0.1,-0.1 0,-0.1 0.1,-0.1 0,-0.1 0.1,-0.1 m -7.4,-1.2 7.1,2.1 m -6.8,-3.1 -0.1,0.1 0,0.2 -0.1,0.1 0,0.1 -0.1,0.1 0,0.1 0,0.2 0,0.1 m 64,18 -0.1,0.3 -0.1,0.3 -0.1,0.4 -0.1,0.3 0,0.3 0,0.3 0,0.2 0.1,0.2 m -56.3,-19.1 3.3,-7.6 m -2.6,-12.2 0.2,1.5 0.3,1.6 0.3,1.6 0.4,1.5 0.3,1.5 0.3,1.5 0.4,1.5 0.4,1.5 m -2.6,-12.2 -4.4,2.7 m -0.5,0.1 0.1,0 0.1,0 0.1,0 0,-0.1 0.1,0 0.1,0 m -0.5,0.1 0.4,2.3 0.4,2.3 0.5,2.3 0.5,2.3 0.4,2.2 0.6,2.2 0.5,2.2 0.6,2.1 m 3.6,-8.5 56.6,16.8 m 0,0 -3.3,7.6 m -62.2,-34.3 1.4,0.5 m 61.5,14 -56.6,-16.8 m 56.6,16.8 0.3,1.6 0.3,1.6 0.3,1.5 0.3,1.6 0.3,1.5 0.4,1.5 0.3,1.5 0.4,1.4 m 80.5,-299.3 -76.2,-22.7 m 76.2,22.7 0.5,-0.6 0.6,-0.6 0.2,-0.2 m -66,-15.3 -1,8 m 1,-8 -12.4,-3.7 m 11.4,11.7 -12.4,-3.7 m 6.1,-21.8 1.5,0.5 m 4.8,25 -1.1,1.2 -1,1.2 -1.1,1.3 -1.1,1.3 -1.1,1.2 -1.1,1.4 -1.1,1.3 -1.1,1.3 m -12.4,-3.7 12.4,3.7 m 9.7,-18.2 0,-0.2 0,-0.1 0,-0.1 0.1,-0.1 0,-0.1 0,-0.1 0.1,-0.2 0,-0.1 m 0,0 7.1,2.1 m 0,0 0,0.2 -0.1,0.1 0,0.1 0,0.1 -0.1,0.1 0,0.1 0,0.2 0,0.1 m 56.6,16.9 -56.6,-16.9 m 56.6,16.9 0.1,-0.4 0,-0.3 0.1,-0.3 0.1,-0.3 0.2,-0.3 0.1,-0.2 0.2,-0.3 0.2,-0.2 m -89.4,282.1 -76.1,-22.7 m 76.5,26 0,-0.6 -0.2,-0.9 -0.1,-0.9 -0.1,-0.9 m 19.6,-282.3 2.5,3.8 m 8.7,-10.2 -1.1,1.2 -1,1.2 -1.1,1.3 -1.1,1.3 -1.1,1.3 -1.1,1.3 -1.1,1.3 -1.1,1.3 m 8.7,-10.2 1,-8 m 0.2,-1 -1.6,1.8 -1.6,1.8 -1.6,1.8 -1.6,1.9 -1.6,1.9 -1.6,1.9 -1.6,2 -1.6,2 m 0,0 0.1,0 0.1,0.1 0.1,0 0,0.1 0.1,0.1 m -80,239.9 0.1,1.8 0.1,1.8 0.1,1.8 0.1,1.8 0.1,1.7 0.2,1.8 0.1,1.7 0.2,1.7 m -1,-14.1 -12.4,-3.7 m 1,14.1 12.4,3.7 M 33.7,-358.6 -23,-375.5 m 57.6,8.9 -0.9,8 m -150.7,250.4 -12.4,-3.7 m 16.2,-3.2 -3.8,6.9 m 80.3,-261.8 2.1,0.6 m 2.9,4.1 56.7,16.9 m 8.7,-10.2 -1.1,1.2 -1.1,1.2 -1.1,1.3 -1.1,1.2 -1.1,1.3 -1.1,1.3 -1,1.4 -1.1,1.3 m -158.1,250.8 1.3,0.4 m 78.6,8 -56.7,-16.9 m -0.3,0.9 0,-0.1 0,-0.1 0.1,-0.1 0,-0.2 0.1,-0.1 0,-0.1 0.1,-0.1 0,-0.1 m -7.4,-1.2 7.1,2.1 m -6.8,-3 0,0.1 -0.1,0.1 0,0.1 -0.1,0.1 0,0.1 -0.1,0.2 0,0.1 0,0.1 m 64.1,18.1 -0.2,0.3 -0.1,0.3 -0.1,0.3 -0.1,0.3 0,0.3 -0.1,0.3 0,0.3 0,0.3 m -56.1,-19.3 3.8,-6.9 m -1,-14 0.1,1.8 0.1,1.7 0.1,1.8 0.1,1.8 0.1,1.7 0.2,1.8 0.1,1.7 0.2,1.7 m -1,-14 -4.2,1.2 m -0.4,-0.1 0,0 0.1,0.1 0.1,0 0.1,0 0.1,0 m -0.4,-0.1 0.1,2.7 0.1,2.6 0.2,2.7 0.1,2.6 0.2,2.5 0.2,2.6 0.3,2.5 0.3,2.5 m -3.9,-21.4 2.4,0.7 m 61.2,15.7 -56.6,-16.8 m 1,14 56.6,16.9 m -1,-14.1 0.1,1.8 0.1,1.8 0.1,1.8 0.1,1.8 0.2,1.7 0.1,1.8 0.2,1.7 0.1,1.7 m 0,0 -3.7,6.9 m 5.3,-273.3 -0.1,7.6 m 0.1,-7.6 -12.4,-3.7 m 12.3,11.3 -12.4,-3.7 m 77,12.8 -76.1,-22.7 m 76.1,22.7 0.6,-0.8 0.6,-0.8 0.5,-0.8 0.6,-0.7 0.6,-0.8 0.2,-0.3 m -67.7,-4.9 -1,1.5 -1.1,1.5 -1,1.5 -1,1.6 -1.1,1.6 -1,1.5 -1,1.6 -1,1.7 m -12.4,-3.7 12.4,3.7 m 8.3,-20.1 0,-0.1 0.1,-0.1 0,-0.1 0,-0.1 0,-0.1 0,-0.1 0,-0.2 0.1,-0.1 m 0,0 7.1,2.1 m 0,0 -0.1,0.2 0,0.1 0,0.1 0,0.1 0,0.1 0,0.1 0,0.1 -0.1,0.2 m 56.7,16.8 -56.7,-16.8 m 56.7,16.8 0,-0.3 0,-0.3 0.1,-0.3 0.1,-0.3 0.1,-0.3 0.1,-0.3 0.2,-0.3 0.1,-0.2 m -72.9,-34.6 1.3,0.4 m -58.7,219.2 -0.2,2 -0.1,1.9 -0.1,2 -0.1,1.9 0,2 -0.1,1.9 0,1.9 -0.1,1.9 m 0.7,-15.5 -12.5,-3.7 m -0.6,15.5 12.4,3.7 m 58.9,27.3 -76.2,-22.7 m 76.3,29 -0.1,-0.3 0,-1 0,-1 0,-1 0,-1 0,-1 0,-1 m 3.2,-224.8 3.2,2.5 m 8.2,-12.5 -1,1.5 -1.1,1.5 -1,1.5 -1,1.6 -1.1,1.6 -1,1.6 -1,1.6 -1,1.6 m 8.2,-12.5 0.1,-7.5 m 0.2,-1 -1.6,2.2 -1.5,2.2 -1.5,2.3 -1.5,2.3 -1.6,2.3 -1.5,2.3 -1.4,2.4 -1.5,2.4 m 0,0 0,0 0.1,0 0.1,0 0.1,0 0.1,0.1 m -66.2,203.4 -12.4,-3.7 m 16.5,-2.2 -4.1,5.9 M 15.7,-336 -40.9,-352.8 m 56.8,9.3 -0.2,7.5 m -64.8,-4.3 56.6,16.8 m 8.2,-12.5 -1,1.6 -1,1.5 -1.1,1.5 -1,1.6 -1,1.5 -1.1,1.6 -1,1.6 -1,1.6 m -62.9,-20.2 2.7,0.8 m -2.1,222.5 -56.6,-16.8 m -0.4,0.8 0,-0.1 0.1,-0.2 0,-0.1 0.1,-0.1 0,-0.1 0.1,-0.1 0,-0.1 0.1,0 m -7.5,-1.3 7.1,2.1 m -6.7,-3 -0.1,0.1 0,0.1 -0.1,0.1 0,0.1 -0.1,0.1 0,0.1 -0.1,0.1 0,0.2 m 64.1,18.1 -0.1,0.3 -0.2,0.2 -0.1,0.3 -0.1,0.4 -0.1,0.3 -0.1,0.3 0,0.3 0,0.3 m -80.3,-11.2 1.1,0.4 m 69.9,-199 -0.9,1.8 -1,1.7 -0.9,1.8 -1,1.8 -0.9,1.8 -0.9,1.8 -0.9,1.8 -0.9,1.8 m 7.4,-14.3 -12.4,-3.7 m -7.4,14.3 12.4,3.7 m -38.7,154.3 -0.2,2.9 -0.2,2.9 -0.1,2.9 -0.2,2.8 -0.1,2.9 0,2.8 -0.1,2.8 0,2.8 m -2,-23.7 2.9,0.9 m -0.5,22 4.1,-6 m 0.7,-15.5 -0.2,2 -0.1,2 -0.1,1.9 -0.1,1.9 0,2 -0.1,1.9 0,1.9 -0.1,1.9 m 0.7,-15.5 -3.9,-0.3 m -0.4,-0.2 0.1,0 0,0.1 0.1,0 0,0.1 0.1,0 0.1,0 m 60.5,17.2 -56.6,-16.9 m -0.7,15.5 56.6,16.9 m 0.7,-15.5 -0.1,2 -0.1,1.9 -0.1,2 -0.1,1.9 -0.1,1.9 -0.1,2 0,1.9 -0.1,1.9 m -14.7,-208.2 0.6,6.7 m -0.6,-6.7 -12.5,-3.7 m -32,143.6 -0.3,2.1 -0.3,2.1 -0.3,2 -0.3,2.1 -0.3,2 -0.3,2.1 -0.2,2 -0.2,2 m 2.2,-16.4 -12.4,-3.7 m -2.3,16.4 12.5,3.7 m 111,-139.8 -76.2,-22.6 m 76.2,22.6 0.5,-0.9 0.5,-0.9 0.5,-0.9 0.6,-0.9 0.5,-0.9 0.5,-0.9 0.6,-0.9 0.3,-0.5 m -53.6,198.5 -4.1,5.9 m -10.6,-215 7.1,2.1 m 0,0 0,0.1 0,0.1 0,0.1 0,0.1 -0.1,0.2 0.1,0.1 0,0.1 0,0.1 m 56.6,16.8 -56.6,-16.8 m -7.1,-2.1 0,-0.1 -0.1,-0.2 0,-0.1 0.1,-0.1 0,-0.1 0,-0.1 0,-0.1 0,-0.1 m 63.7,19.8 0,-0.2 0,-0.3 0,-0.3 0.1,-0.4 0.1,-0.3 0.1,-0.3 0.1,-0.3 0.2,-0.3 m -115.4,144.6 -12.4,-3.7 m 16.8,-1.1 -4.4,4.8 m 62.8,21.2 -76.1,-22.6 m 75.4,31.3 -76.2,-22.7 m 76.2,22.7 0,-1.1 0.1,-1.1 0.1,-1.1 0.1,-1 0.1,-1.1 0.1,-1.1 0.1,-1.1 0.1,-1.1 m -15.1,-160.1 3.7,1 m 7.4,-14.4 -0.9,1.8 -1,1.7 -0.9,1.8 -1,1.8 -0.9,1.8 -0.9,1.8 -0.9,1.8 -0.9,1.9 m 7.4,-14.4 -0.6,-6.7 m 0,-0.9 -1.4,2.5 -1.4,2.6 -1.4,2.6 -1.4,2.6 -1.4,2.7 -1.3,2.7 -1.4,2.7 -1.3,2.7 m 0,0 0.1,-0.1 0.1,0 0.1,0 0.1,0 0.1,0 m -11,15.2 -0.9,1.9 -0.8,2 -0.8,1.9 -0.8,2 -0.8,1.9 -0.8,2 -0.8,2 -0.8,2 m 6.5,-15.7 -12.4,-3.7 m -6.5,15.7 12.4,3.7 m 31.9,138.3 0,-0.1 0,-0.3 m -21.5,-170.9 -12.4,-3.7 m 16.1,4.6 -3.7,-0.9 m 0.8,-38.1 1.1,0.3 m 73,43.4 -56.7,-16.9 m -7.4,14.4 56.6,16.8 m 7.5,-14.3 -1,1.7 -0.9,1.8 -1,1.8 -0.9,1.8 -0.9,1.8 -1,1.8 -0.9,1.8 -0.9,1.8 m -67.9,-19.8 7.1,2.1 m -33.5,82.9 -0.5,2.1 -0.5,2.1 -0.5,2 -0.5,2.1 -0.4,2.1 -0.5,2.1 -0.4,2.1 -0.5,2.1 m 3.8,-16.7 -12.4,-3.7 m -3.8,16.7 12.4,3.7 m 104.9,-103 0.7,6.8 m -91.6,44.9 -0.7,2.1 -0.7,2 -0.7,2.1 -0.6,2 -0.7,2.1 -0.6,2 -0.6,2.1 -0.6,2.1 m 5.2,-16.5 -12.4,-3.7 m -5.3,16.5 12.5,3.7 m 45.1,93 -56.7,-16.9 m -0.4,0.7 0,-0.1 0.1,-0.1 0,-0.1 0.1,-0.1 0.1,-0.1 0.1,-0.1 0,-0.1 m -7.5,-1.4 7.1,2.1 m -6.7,-2.8 0,0.1 -0.1,0.1 -0.1,0 0,0.1 -0.1,0.1 0,0.1 -0.1,0.1 0,0.1 m 64.2,18.3 -0.2,0.2 -0.2,0.2 -0.1,0.3 -0.1,0.3 -0.1,0.3 -0.1,0.3 -0.1,0.3 -0.1,0.3 m -52.8,-42.5 -0.5,3.1 -0.5,3 -0.4,3 -0.5,3.1 -0.4,3 -0.4,3 -0.3,3 -0.3,2.9 m -3.8,-26.2 7.1,2.1 m 60.3,19.1 -56.6,-16.8 m 0,0 -0.3,2 -0.3,2.1 -0.3,2 -0.3,2.1 -0.3,2 -0.3,2.1 -0.2,2 -0.2,2 m 0,0 56.6,16.9 m 2.2,-16.4 -0.3,2.1 -0.3,2.1 -0.3,2 -0.3,2.1 -0.3,2 -0.2,2 -0.3,2.1 -0.2,2 m -61,-12.1 4.4,-4.8 m 2.2,-16.3 -3.4,-1.9 m -0.3,-0.4 0,0.1 0.1,0.1 0,0.1 0.1,0 0,0.1 0.1,0 m -7.1,-2.1 -12.4,-3.7 m 12.4,3.7 3.4,1.8 m 28.6,-108.3 1.5,5.8 m -1.5,-5.8 -12.4,-3.7 m -41.1,142.5 1.1,0.3 M -13.4,-294.3 -89.6,-317 m 72.4,30.8 -76.1,-22.7 m 76.1,22.7 0.5,-1 0.4,-1.1 0.5,-1 0.5,-1 0.4,-1 0.5,-1 0.5,-1 0.5,-1 m 1.2,-1.2 -56.6,-16.8 m -7.1,-2.1 -0.1,-0.1 -0.1,0 0,0.1 -0.1,0 -0.1,0 -0.1,0.1 m 64.2,18.8 -0.1,0 -0.2,0.1 -0.1,0 -0.2,0.2 -0.2,0.1 -0.1,0.3 -0.2,0.2 -0.1,0.3 m -97.6,85.2 -12.4,-3.7 m 16.8,0.2 -4.4,3.5 m 20.7,-71.8 -12.4,-3.7 m 16.4,3.2 -4,0.5 m 41.9,121.7 -4.3,4.8 m 36.6,-123.7 -56.6,-16.9 m 0,0 -0.9,2 -0.8,1.9 -0.8,1.9 -0.8,2 -0.8,2 -0.8,1.9 -0.8,2 -0.8,2 m 0,0 56.7,16.9 m 6.4,-15.7 -0.8,1.9 -0.9,2 -0.8,1.9 -0.8,2 -0.8,1.9 -0.8,2 -0.8,2 -0.7,2 m -60.7,-16.4 4,-0.5 m 6.5,-15.7 -1.5,-5.8 m 0,-0.7 0,0.1 0,0.1 0,0.1 0,0.1 0,0.1 0,0.1 0,0.1 m 0,-0.7 -1.3,2.8 -1.2,2.8 -1.2,2.9 -1.2,2.8 -1.2,2.9 -1.1,2.9 -1.2,3 -1.1,2.9 m 0,0 0,-0.1 0.1,0 0.1,-0.1 0.1,0 0.1,0 0,-0.1 0.1,0 m 74.7,-15.7 -3.7,-1 m -36.1,107.4 -76.1,-22.7 m 74.5,31.7 -76.2,-22.7 m 76.2,22.7 0.2,-1.2 0.2,-1.1 0.2,-1.1 0.2,-1.1 0.2,-1.1 0.2,-1.1 0.2,-1.2 0.2,-1.1 m -33,-115.6 7.1,2.2 m -16.6,20.9 7.1,2.1 m -21.9,45.9 -12.4,-3.7 m 12.4,3.7 2.8,3.3 m 85.3,-54.6 -56.7,-16.9 m -7.1,-2.1 0,-0.1 0,-0.1 0,-0.1 0,-0.1 0,-0.1 0,-0.2 0,-0.1 m 63.8,19.8 -0.1,-0.2 0,-0.3 0,-0.3 0,-0.3 0.1,-0.3 0.1,-0.3 0.1,-0.3 0.1,-0.3 m -77.6,17.7 -12.4,-3.7 m 12.4,3.7 2.2,4.6 m -9.5,18.5 -12.5,-3.7 m 16.8,1.7 -4.3,2 m 63.1,35.1 -56.7,-16.9 m 0,0 -0.5,2.1 -0.5,2.1 -0.5,2.1 -0.5,2 -0.4,2.1 -0.5,2.1 -0.4,2.1 -0.5,2.1 m 0,0 56.7,16.9 m 3.8,-16.7 -0.6,2.1 -0.5,2 -0.4,2.1 -0.5,2.1 -0.5,2.1 -0.5,2.1 -0.4,2.1 -0.4,2.1 m -61.1,-13.4 4.4,-3.5 m 3.8,-16.7 -2.8,-3.3 m -0.2,-0.5 0,0.1 0,0.1 0,0.1 0.1,0.1 0,0.1 0.1,0 m -0.2,-0.5 -0.8,3 -0.8,3.1 -0.7,3.1 -0.7,3.1 -0.7,3 -0.7,3.1 -0.6,3.1 -0.6,3.1 m 0,0 0,-0.1 0.1,-0.1 0,-0.1 0.1,-0.1 0.1,0 0,-0.1 0.1,-0.1 m 54.3,29.6 -56.6,-16.9 m -7.1,-2.1 0,0 -0.1,0 0,-0.1 -0.1,0 0,-0.1 -0.1,-0.1 0,-0.1 m 64,19.4 -0.1,-0.1 -0.1,-0.1 -0.1,-0.2 0,-0.2 -0.1,-0.3 0,-0.2 0,-0.3 0.1,-0.3 m -56,-54 7.2,2.1 m -12.7,22.4 7.1,2.2 m 9.3,-36.9 4.3,-2 m 5.2,-16.5 -0.7,2.1 -0.7,2 -0.7,2.1 -0.6,2 -0.7,2.1 -0.6,2 -0.6,2.1 -0.6,2.1 m 5.2,-16.5 -2.2,-4.6 m -0.2,-0.7 0,0.1 0,0.1 0.1,0.1 0,0.1 0,0.1 0,0.1 0,0.1 0.1,0 m -0.2,-0.7 -1,3 -1,3 -1,3.1 -1,3 -0.9,3 -0.9,3.1 -1,3 -0.8,3.1 m 0,0 0,-0.1 0.1,-0.1 0.1,-0.1 0.1,-0.1 0.1,0 0.1,-0.1 m 66.1,-1.6 -56.6,-16.9 m -5.2,16.5 56.6,16.9 m 5.2,-16.5 -0.7,2 -0.7,2.1 -0.6,2 -0.7,2.1 -0.6,2.1 -0.7,2 -0.6,2.1 -0.6,2.1 m -60.9,-40.8 7.1,2.1 m -14.7,22.1 7.1,2.2 m 48.3,52.6 -56.7,-16.8 m -7.1,-2.1 0,0 -0.1,0.1 -0.1,0.1 -0.1,0.1 0,0.1 -0.1,0 0,0.1 m 64.2,18.4 -0.2,0.2 -0.2,0.2 -0.1,0.2 -0.2,0.3 -0.1,0.3 -0.1,0.3 -0.1,0.3 -0.1,0.3 m 20.5,-72.3 -76.2,-22.7 m 73,31.4 -76.1,-22.7 m 76.1,22.7 0.4,-1.1 0.4,-1.1 0.4,-1.1 0.4,-1.1 0.4,-1.1 0.4,-1 0.4,-1.1 0.4,-1.1 m -21.8,83 3.4,1.8 m -46.1,-144.8 1,0.3 m 73.8,36.2 1.4,5.8 m -23.5,53.5 -76.1,-22.7 m 73.7,31.7 -76.2,-22.7 m 76.2,22.7 0.3,-1.1 0.3,-1.2 0.3,-1.1 0.3,-1.1 0.3,-1.1 0.3,-1.1 0.3,-1.2 0.3,-1.1 m 13,-37.3 -56.6,-16.9 m -7.1,-2.1 -0.1,0 -0.1,0.1 -0.1,0 -0.1,0.1 -0.1,0 0,0.1 m 64.2,18.7 -0.1,0 -0.2,0.1 -0.2,0.2 -0.2,0.2 -0.1,0.2 -0.2,0.2 -0.1,0.3 -0.1,0.3 m -3.3,10.9 -56.6,-16.9 m -7.1,-2.1 -0.1,-0.1 0,-0.1 0,-0.1 0,-0.1 -0.1,-0.1 0,-0.1 0,-0.1 m 63.9,19.7 -0.1,-0.2 0,-0.2 0,-0.3 0,-0.3 0,-0.3 0,-0.3 0.1,-0.3 0.1,-0.3 m -10.9,38.1 -56.6,-16.9 m -7.1,-2.1 -0.1,0 0,-0.1 -0.1,-0.1 0,-0.1 0,-0.1 0,-0.1 -0.1,0 m 64,19.5 -0.1,-0.1 -0.1,-0.2 0,-0.3 0,-0.2 -0.1,-0.3 0.1,-0.3 0,-0.3 0.1,-0.3 m 3.6,-10.8 -56.6,-16.9 m -7.1,-2.1 -0.1,0 -0.1,0.1 -0.1,0.1 -0.1,0 0,0.1 -0.1,0.1 m 64.2,18.6 -0.2,0.1 -0.1,0.2 -0.2,0.1 -0.2,0.3 -0.1,0.2 -0.2,0.3 -0.1,0.3 -0.1,0.3 m -3.2,31 -4.4,3.4 m 24.7,-72.2 -4.1,0.5 m -103.4,60.8 0.9,0.3 m 87.2,-12.8 2.9,3.3 m 7.9,-39.2 2.2,4.6 m -5.2,16.5 -4.3,2 m -68.8,-58.6 0.9,0.2 m -15.5,45.7 0.9,0.3 M 75,-349 l -0.3,0.3 -5.6,6 -5.6,6.5 -5.6,7 -5.4,7.4 -5.3,7.9 -5.2,8.3 -5,8.7 -4.9,9 -1.5,2.9 m -40.8,137.1 -0.5,4.9 -0.8,10.2 -0.5,10 -0.2,9.8 0.2,9.4 0.5,9.2 0.9,8.8 1.2,8.4 0.3,2.2 m 69.8,-241.1 -5.3,7.7 -5.1,8 -4.9,8.5 -4.5,8.3 m -41.8,140.2 -0.2,2 -0.7,9.9 -0.4,9.8 -0.1,9.4 0.3,9.2 0.6,8.9 0.9,8.5 0.3,2.5 M 73,-332 l -0.5,0.6 -5.4,6.7 m 11.6,8.5 -3.6,4.1 -5,6.1 -4.9,6.7 -4.8,7.1 -4.7,7.5 -1.6,2.6 m -43.1,144.6 -0.3,8.7 0.1,8.7 0.3,8.3 0.7,8.1 0.1,0.9 m 65.3,-187.1 -0.1,-0.1 m -57.9,184 -0.4,-0.1 M 78.3,-323 77.8,-323.1 M 1.4,-79.6 0.8,-79.8 m 72.6,-213.9 -2.1,3 -4.7,7 -2.7,4.4 m -43.2,144.9 -0.1,3.2 0,8.5 0.3,8.3 0.5,5.4 m 54.5,-243.7 -0.8,-0.3 m 0,63.3 0,0.1 -4.7,7.1 -2.7,4.3 m -43.2,144.9 -0.1,3.2 0,6.6 m 0,2.1 0.3,6.6 m -42,56.6 -0.9,-0.3 m 88.1,-319.8 -1.1,-0.3 m -105,336 -1.3,-0.3 m 98.4,-355.7 -1.6,-0.5 m -113.7,366 -2,-0.6 m 106.3,-379.1 -3,-0.9 m 163.9,251.1 0.1,0.1 M -69.9,-29.7 -74.3,-31 m 93.8,-146.8 -0.9,-0.3 m 19,-242.2 -5.6,-1.6 m 138.3,339 0.9,3.9 m 46.2,-164.5 2.5,-2.6 m -48.3,163.6 0.8,3.9 m 46.2,-164.5 2.5,-2.6 m -306.7,213.8 -4.5,-1.4 m 5.3,0 -5.7,-1.7 m 123.8,-222.5 -4.8,-1.4 m -7.6,-166.2 -0.2,-0.1 m 0.6,1.6 -4.9,-1.4 m 4.8,3.2 -6.1,-1.8 m -115.9,383.3 -0.3,-0.1 m 1.8,-1.6 -5.1,-1.5 m 6.1,-0.2 -6.3,-1.8 M 3.2,-421.9 2.6,-422.1 m 0.9,3.4 -5.5,-1.6 m 31.9,219.4 -36.5,-10.9 m 35.2,12.9 -36.3,-10.8 m 0.9,11 -2.2,-0.7 m 12.6,-217.1 -6.8,-2.1 m 26.3,7.9 -2.4,-0.7 m -133.5,356.1 -0.7,-0.2 m 22.8,3 -1.9,-0.6 m -17.6,-5.2 -5.9,-1.8 m 7.4,0 -7.3,-2.2 m 26.8,8 -5.5,-1.6 m 79.1,-356.2 -0.8,-0.3 m 21.3,11.1 -5.3,-1.5 m -14.2,-4.3 -6.6,-1.9 m -81.1,338.7 -0.2,0 m -19.4,-5.8 -1,-0.3 m 25,2 -7.1,-2 m -12.4,-3.8 -7.3,-2.1 m 109.5,-307.9 -1.6,-0.5 m -17.9,-5.4 -1.1,-0.3 m -72.3,300.2 -2.4,-0.7 m -17.1,-5.1 -1.4,-0.4 m 95.3,-265.9 -3.5,-1.1 m -16,-4.7 -1.7,-0.6 m -54.9,248.5 -4.3,-1.3 m -15.3,-4.6 -2.2,-0.6 M -50,-341 l -6,-1.8 m -13.5,-4 -3.6,-1.1" connector-curvature="0" id="path1486" style="fill:none;stroke:#000000;stroke-width:0.70899999;stroke-linecap:round;stroke-linejoin:round;stroke-miterlimit:10;stroke-opacity:1;stroke-dasharray:none"/>
  </g>
</svg>
