<?xml version="1.0"?>
<svg xmlns="http://www.w3.org/2000/svg" width="2070" height="1530">
  <g transform="translate(509,444.3)">
    <path d="m 0,0 -0.2,0.3 -0.2,0.3 -0.2,0.2 -0.3,0.1 -0.3,0.1 -0.4,0.1 -0.3,0 -0.3,0 m 0,0 L -3.4,0.9 -4.5,0.7 -5.7,0.5 -6.8,0.3 -7.9,0.1 l -1.2,-0.2 -1.1,-0.3 -1.2,-0.2 m -1.6,-1.8 0,0.3 0.1,0.3 0.2,0.3 0.2,0.3 0.3,0.2 0.2,0.2 0.3,0.1 0.3,0.1 m -2.9,-10.2 1.3,8.4 m -23.4,-6.6 -0.2,0.2 -0.3,0.2 -0.2,0.2 -0.4,0.1 -0.3,0 -0.3,0 -0.3,0 -0.4,-0.1 m 0,0 -1,-0.4 -1.1,-0.4 -1.1,-0.4 -1.1,-0.4 -1.1,-0.4 -1.1,-0.5 -1,-0.4 -1.1,-0.4 m -1.4,-2.1 0.1,0.3 0,0.3 0.1,0.3 0.2,0.3 0.2,0.3 0.2,0.2 0.3,0.2 0.3,0.2 m -1,-10.7 -0.4,8.6 m -15.1,-16.3 1.9,1.1 1.9,1 1.9,1 2,1 1.9,0.9 2,0.9 1.9,1 2,0.8 m -22.1,-2.2 6.6,-5.5 m -9,5.7 -1,-0.6 -1,-0.6 -1,-0.6 -1,-0.7 -1,-0.6 -1,-0.6 -1,-0.6 -0.9,-0.6 m -1,-2.3 0,0.3 0,0.3 0,0.3 0.1,0.4 0.2,0.3 0.2,0.2 0.2,0.3 0.3,0.2 m 1,-10.6 -2,8.3 m -11.8,-18.8 1.6,1.4 1.7,1.4 1.7,1.3 1.7,1.3 1.8,1.3 1.7,1.3 1.8,1.2 1.8,1.3 m -23.8,-6.6 -0.8,-0.8 -0.9,-0.7 -0.9,-0.8 -0.8,-0.8 -0.9,-0.8 -0.8,-0.8 -0.9,-0.8 -0.8,-0.8 m -0.5,-2.4 -0.1,0.3 -0.1,0.3 0,0.4 0,0.3 0.1,0.3 0.2,0.3 0.1,0.3 0.3,0.2 m 2.9,-10.2 -3.4,7.8 m -8.3,-20.6 1.4,1.7 1.4,1.6 1.5,1.6 1.4,1.6 1.5,1.6 1.5,1.6 1.5,1.5 1.5,1.6 m -22.1,-10.8 -0.7,-0.9 -0.8,-1 -0.7,-0.9 -0.7,-0.9 -0.7,-0.9 -0.7,-1 -0.6,-0.9 -0.7,-0.9 m -0.1,-2.5 -0.1,0.3 -0.1,0.3 -0.1,0.3 0,0.3 0,0.4 0.1,0.3 0.1,0.3 0.2,0.3 m 4.7,-9.6 -4.8,7.1 m -4.3,-21.8 1.1,1.9 1.1,1.9 1.1,1.8 1.1,1.9 1.2,1.8 1.1,1.8 1.2,1.8 1.2,1.8 m -17.5,-13.5 -0.4,0 -0.3,0 -0.3,-0.1 -0.3,-0.2 -0.3,-0.1 -0.2,-0.2 -0.2,-0.3 -0.2,-0.3 m 0,0 -0.6,-1 -0.5,-1 -0.5,-1.1 -0.5,-1 -0.6,-1 -0.5,-1.1 -0.5,-1 -0.5,-1.1 m 0.5,-2.4 -0.3,0.2 -0.1,0.3 -0.2,0.3 0,0.3 -0.1,0.4 0,0.3 0.1,0.3 0.1,0.3 m 6.5,-8.5 -6,6.1 m -0.3,-22.2 0.7,2 0.7,2.1 0.8,2 0.8,2 0.7,2 0.9,2 0.8,2 0.9,2 m -14.8,-16.5 -0.3,-0.1 -0.3,-0.1 -0.3,-0.1 -0.3,-0.2 -0.3,-0.2 -0.2,-0.3 -0.1,-0.2 -0.2,-0.4 m 0,0 -0.3,-1.1 -0.3,-1.1 -0.4,-1.1 -0.3,-1.1 -0.3,-1.1 -0.3,-1.1 -0.3,-1.2 -0.3,-1.1 m 0.9,-2.3 -0.3,0.2 -0.2,0.2 -0.2,0.3 -0.1,0.3 -0.1,0.3 -0.1,0.4 0,0.3 0.1,0.3 m 7.9,-7.2 -7,4.9 m 3.8,-21.8 0.3,2.1 0.3,2.1 0.4,2.2 0.4,2.1 0.4,2.1 0.4,2.1 0.5,2.1 0.5,2.1 m -11.5,-18.9 8.3,2 m -8.3,-2 -0.3,-0.1 -0.3,-0.2 -0.3,-0.2 -0.2,-0.2 -0.2,-0.3 -0.2,-0.3 -0.1,-0.3 0,-0.3 m 0,0 -0.2,-1.1 -0.1,-1.2 -0.1,-1.2 -0.1,-1.1 -0.1,-1.2 -0.1,-1.1 -0.1,-1.2 -0.1,-1.1 m 1.3,-2.2 -0.3,0.2 -0.3,0.2 -0.2,0.2 -0.2,0.3 -0.1,0.3 -0.1,0.3 -0.1,0.3 0,0.4 m 9.1,-5.7 -7.8,3.5 m 7.8,-20.7 -0.1,2.1 -0.1,2.2 0,2.1 0,2.2 0,2.2 0,2.1 0.1,2.2 0.1,2.1 m -7.8,-20.7 7.8,3.5 m -7.8,-3.5 -0.3,-0.2 -0.3,-0.2 -0.2,-0.2 -0.2,-0.3 -0.1,-0.3 -0.1,-0.3 -0.1,-0.3 0,-0.3 m 0,0 0.1,-1.2 0.1,-1.2 0.1,-1.1 0.1,-1.2 0.1,-1.1 0.1,-1.2 0.1,-1.1 0.2,-1.2 m 1.6,-1.8 -0.3,0.1 -0.3,0.1 -0.3,0.2 -0.2,0.2 -0.2,0.3 -0.2,0.3 -0.1,0.3 0,0.3 m 9.9,-3.8 -8.3,2 m 11.5,-19 -0.5,2.1 -0.5,2.1 -0.4,2.1 -0.4,2.1 -0.4,2.2 -0.4,2.1 -0.3,2.1 -0.3,2.2 m -3.8,-21.9 7,4.9 m -7,-4.9 -0.3,-0.2 -0.2,-0.2 -0.2,-0.3 -0.1,-0.3 -0.1,-0.3 -0.1,-0.3 0,-0.4 0.1,-0.3 m 0,0 0.3,-1.1 0.3,-1.1 0.3,-1.2 0.3,-1.1 0.3,-1.1 0.4,-1.1 0.3,-1.1 0.3,-1.1 m 2,-1.6 -0.3,0.1 -0.3,0.1 -0.3,0.1 -0.3,0.2 -0.3,0.2 -0.2,0.3 -0.1,0.3 -0.2,0.3 m 10.5,-2 -8.5,0.4 m 14.8,-16.5 -0.9,2 -0.8,2 -0.9,2 -0.7,2 -0.8,2 -0.8,2 -0.7,2.1 -0.7,2 m 0.3,-22.2 6,6.1 m -6,-6.1 -0.3,-0.2 -0.1,-0.3 -0.2,-0.3 0,-0.3 -0.1,-0.3 0,-0.4 0.1,-0.3 0.1,-0.3 m 0,0 0.5,-1.1 0.5,-1 0.5,-1 0.6,-1.1 0.5,-1 0.5,-1.1 0.5,-1 0.6,-1 m 2.2,-1.2 -0.4,0 -0.3,0.1 -0.3,0 -0.3,0.2 -0.3,0.1 -0.2,0.2 -0.2,0.3 -0.2,0.3 m 10.6,0 -8.4,-1.2 m 17.5,-13.5 -1.2,1.8 -1.2,1.8 -1.1,1.8 -1.2,1.8 -1.1,1.9 -1.1,1.8 -1.1,1.9 -1.1,1.9 m 4.3,-21.8 4.8,7.1 m -4.8,-7.1 -0.1,-0.3 -0.1,-0.3 -0.1,-0.3 0,-0.3 0,-0.3 0.1,-0.4 0.1,-0.3 0.2,-0.2 m 0,0 0.7,-1 0.6,-0.9 0.7,-1 0.7,-0.9 0.7,-0.9 0.7,-0.9 0.8,-0.9 0.7,-1 m 2.3,-0.7 -0.3,-0.1 -0.3,0 -0.3,0 -0.4,0.1 -0.3,0.1 -0.2,0.2 -0.3,0.2 -0.2,0.2 m 10.4,2 -8.1,-2.7 m 19.8,-10.1 -1.5,1.6 -1.5,1.5 -1.5,1.6 -1.5,1.6 -1.4,1.6 -1.5,1.6 -1.4,1.6 -1.4,1.7 m 8.3,-20.6 3.4,7.8 m -3.4,-7.8 -0.1,-0.3 -0.1,-0.3 0,-0.4 0,-0.3 0.1,-0.3 0.2,-0.3 0.1,-0.3 0.3,-0.2 m 0,0 0.8,-0.8 0.9,-0.8 0.8,-0.8 0.9,-0.8 0.8,-0.8 0.9,-0.7 0.9,-0.8 0.8,-0.8 m 2.5,-0.2 -0.3,-0.2 -0.3,-0.1 -0.3,0 -0.4,0 -0.3,0.1 -0.3,0.1 -0.3,0.1 -0.3,0.2 m 10,3.9 -7.5,-4.1 m 21.3,-6.3 -1.8,1.2 -1.8,1.2 -1.7,1.3 -1.8,1.3 -1.7,1.3 -1.7,1.4 -1.7,1.3 -1.6,1.4 m 11.8,-18.8 2,8.4 m -2,-8.4 0,-0.3 0,-0.3 0,-0.3 0.1,-0.3 0.2,-0.3 0.2,-0.3 0.2,-0.2 0.3,-0.2 m 0,0 0.9,-0.7 1,-0.6 1,-0.6 1,-0.6 1,-0.6 1,-0.7 1,-0.5 1,-0.6 m 2.4,0.2 -0.2,-0.2 -0.3,-0.2 -0.3,-0.1 -0.4,0 -0.3,0 -0.3,0 -0.3,0.1 -0.3,0.2 m 9,5.6 -6.6,-5.4 m 22.1,-2.3 -2,0.9 -1.9,0.9 -2,0.9 -1.9,0.9 -2,1 -1.9,1 -1.9,1 -1.9,1.1 m 15.1,-16.3 0.4,8.6 m -0.4,-8.6 0.1,-0.3 0,-0.3 0.1,-0.3 0.2,-0.3 0.2,-0.3 0.2,-0.2 0.3,-0.2 0.3,-0.1 m 0,0 1.1,-0.5 1,-0.4 1.1,-0.4 1.1,-0.5 1.1,-0.4 1.1,-0.4 1.1,-0.4 1,-0.4 m 2.4,0.6 -0.2,-0.2 -0.3,-0.2 -0.2,-0.1 -0.4,-0.2 -0.3,0 -0.3,0 -0.3,0 -0.4,0.1 m 7.9,7.2 -5.5,-6.6 m 22.1,1.9 -2.1,0.5 -2.1,0.5 -2,0.6 -2.1,0.5 -2.1,0.6 -2.1,0.7 -2,0.6 -2.1,0.7 m 17.9,-13.2 -1.3,8.5 m 1.3,-8.5 0,-0.3 0.1,-0.3 0.2,-0.3 0.2,-0.3 0.3,-0.2 0.2,-0.2 0.3,-0.1 0.3,-0.1 m 0,0 1.2,-0.2 1.1,-0.3 1.2,-0.2 1.1,-0.2 1.1,-0.2 1.2,-0.2 1.1,-0.2 1.2,-0.2 m 2.2,1.1 -0.2,-0.3 -0.2,-0.2 -0.2,-0.3 -0.3,-0.1 -0.3,-0.1 -0.4,-0.1 -0.3,0 -0.3,0 m 6.4,8.5 -4.2,-7.4 m 21.4,5.8 -2.2,0.1 -2.1,0.2 -2.2,0.1 -2.1,0.2 -2.2,0.2 -2.1,0.3 -2.2,0.2 -2.1,0.3 m 20,-9.7 -2.8,8.1 m 2.8,-8.1 0.1,-0.3 0.2,-0.2 0.2,-0.3 0.2,-0.2 0.3,-0.2 0.3,-0.1 0.3,-0.1 0.3,0 m 0,0 1.2,-0.1 1.2,0 1.1,0 1.2,0 1.2,0 1.1,0 1.2,0 1.1,0.1 m 2,1.4 -0.1,-0.3 -0.2,-0.2 -0.2,-0.3 -0.2,-0.2 -0.3,-0.2 -0.3,-0.1 -0.3,-0.1 -0.4,0 m 4.8,9.5 -2.8,-8.1 m 20,9.7 -2.1,-0.3 -2.2,-0.2 -2.1,-0.3 -2.2,-0.2 -2.1,-0.2 -2.2,-0.1 -2.2,-0.2 -2.1,-0.1 m 21.4,-5.8 -4.2,7.4 m 4.2,-7.4 0.2,-0.3 0.2,-0.2 0.2,-0.3 0.3,-0.1 0.3,-0.1 0.4,-0.1 0.3,0 0.3,0 m 0,0 1.2,0.2 1.1,0.2 1.1,0.2 1.2,0.2 1.1,0.2 1.2,0.2 1.1,0.3 1.1,0.2 m 1.7,1.8 0,-0.3 -0.1,-0.3 -0.2,-0.3 -0.2,-0.3 -0.3,-0.2 -0.2,-0.2 -0.3,-0.1 -0.4,-0.1 m 3,10.3 -1.3,-8.5 m 17.9,13.2 -2.1,-0.7 -2,-0.6 -2.1,-0.7 -2.1,-0.6 -2.1,-0.5 -2,-0.6 -2.1,-0.5 -2.1,-0.5 m 22.1,-1.9 -5.5,6.6 m 5.5,-6.6 0.2,-0.2 0.3,-0.2 0.2,-0.1 0.4,-0.2 0.3,0 0.3,0 0.3,0 0.4,0.1 m 0,0 1,0.4 1.1,0.4 1.1,0.4 1.1,0.4 1.1,0.5 1.1,0.4 1,0.4 1.1,0.5 m 1.3,2 0,-0.3 0,-0.3 -0.1,-0.3 -0.2,-0.3 -0.2,-0.3 -0.2,-0.2 -0.3,-0.2 -0.3,-0.1 m 1,10.6 0.3,-8.6 m 15.2,16.3 -1.9,-1.1 -1.9,-1 -2,-1 -1.9,-1 -1.9,-0.9 -2,-0.9 -1.9,-0.9 -2,-0.9 m 31.4,17.6 1.9,-8.4 m 11.9,18.8 -1.6,-1.4 -1.7,-1.3 -1.7,-1.4 -1.8,-1.3 -1.7,-1.3 -1.7,-1.3 -1.8,-1.2 -1.8,-1.2 m 39.4,35.8 -1.4,-1.7 -1.5,-1.6 -1.4,-1.6 -1.4,-1.6 -1.5,-1.6 -1.5,-1.6 -1.5,-1.5 -1.5,-1.6 m 32.1,42.5 -1.1,-1.9 -1.1,-1.9 -1.1,-1.8 -1.1,-1.9 -1.2,-1.8 -1.1,-1.8 -1.2,-1.8 -1.2,-1.8 m 23.7,47.6 -0.7,-2 -0.7,-2.1 -0.8,-2 -0.8,-2 -0.7,-2 -0.9,-2 -0.8,-2 -0.9,-2 m 22.9,53.2 -8.3,-2 m 8.3,2 0.3,0.1 0.3,0.1 0.3,0.2 0.2,0.2 0.2,0.3 0.2,0.3 0.1,0.3 0,0.3 m 0,0 0.2,1.2 0.1,1.1 0.1,1.2 0.1,1.1 0.1,1.2 0.1,1.1 0.1,1.2 0.1,1.2 m -1.3,2.1 0.3,-0.2 0.3,-0.2 0.2,-0.2 0.2,-0.3 0.1,-0.3 0.1,-0.3 0.1,-0.3 0,-0.3 m -1.3,26.3 -7.8,-3.5 m 7.8,3.5 0.3,0.2 0.3,0.2 0.2,0.2 0.2,0.3 0.1,0.3 0.1,0.3 0.1,0.3 0,0.4 m 0,0 -0.1,1.1 -0.1,1.2 -0.1,1.1 -0.1,1.2 -0.1,1.1 -0.1,1.2 -0.1,1.2 -0.2,1.1 m -1.6,1.9 0.3,-0.1 0.3,-0.2 0.3,-0.2 0.2,-0.2 0.2,-0.3 0.2,-0.3 0.1,-0.3 0,-0.3 m -9.9,3.9 8.3,-2 m -11.5,18.9 0.5,-2.1 0.5,-2.1 0.4,-2.1 0.4,-2.1 0.4,-2.1 0.3,-2.2 0.4,-2.1 0.3,-2.1 m 3.8,21.8 -7,-4.9 m 7,4.9 0.3,0.2 0.2,0.2 0.2,0.3 0.1,0.3 0.1,0.3 0.1,0.4 0,0.3 -0.1,0.3 m 0,0 -0.3,1.1 -0.3,1.2 -0.3,1.1 -0.3,1.1 -0.3,1.1 -0.4,1.1 -0.3,1.1 -0.3,1.1 m -2,1.6 0.3,-0.1 0.3,-0.1 0.3,-0.1 0.3,-0.2 0.3,-0.2 0.2,-0.3 0.1,-0.2 0.2,-0.4 m -10.5,2 8.5,-0.4 m -14.8,16.5 0.9,-2 0.8,-2 0.9,-2 0.7,-2 0.8,-2 0.8,-2 0.7,-2.1 0.7,-2 m -0.3,22.2 -6,-6.1 m 6,6.1 0.3,0.2 0.1,0.3 0.2,0.3 0,0.3 0.1,0.4 -0.1,0.3 0,0.3 -0.1,0.3 m 0,0 -0.5,1.1 -0.5,1 -0.5,1.1 -0.6,1 -0.5,1 -0.5,1.1 -0.5,1 -0.6,1 m -2.2,1.2 0.3,0 0.4,0 0.3,-0.1 0.3,-0.2 0.3,-0.1 0.2,-0.2 0.2,-0.3 0.2,-0.3 m -10.6,0 8.4,1.2 m -17.5,13.5 1.2,-1.8 1.2,-1.8 1.1,-1.8 1.2,-1.8 1.1,-1.9 1.1,-1.8 1.1,-1.9 1.1,-1.9 m -4.3,21.8 -4.8,-7.1 m 4.8,7.1 0.1,0.3 0.1,0.3 0.1,0.3 0,0.3 0,0.4 -0.1,0.3 -0.1,0.3 -0.2,0.3 m 0,0 -0.7,0.9 -0.6,0.9 -0.7,1 -0.7,0.9 -0.7,0.9 -0.7,0.9 -0.8,1 -0.7,0.9 m -2.4,0.7 0.4,0.1 0.3,0 0.3,0 0.3,-0.1 0.4,-0.1 0.2,-0.2 0.3,-0.2 0.2,-0.2 m -10.4,-2 8,2.7 m -19.7,10.1 1.5,-1.6 1.5,-1.5 1.5,-1.6 1.5,-1.6 1.4,-1.6 1.4,-1.6 1.5,-1.6 1.4,-1.7 m -8.3,20.6 -3.4,-7.8 m 3.4,7.8 0.1,0.3 0.1,0.3 0,0.4 0,0.3 -0.1,0.3 -0.2,0.3 -0.2,0.3 -0.2,0.2 m 0,0 -0.8,0.8 -0.9,0.8 -0.8,0.8 -0.9,0.8 -0.8,0.8 -0.9,0.8 -0.9,0.7 -0.8,0.8 m -2.5,0.3 0.3,0.1 0.3,0.1 0.3,0 0.4,0 0.3,-0.1 0.3,-0.1 0.3,-0.1 0.3,-0.2 m -10,-3.9 7.5,4.2 m -21.3,6.3 1.8,-1.3 1.8,-1.2 1.7,-1.3 1.7,-1.3 1.8,-1.3 1.7,-1.3 1.7,-1.4 1.6,-1.4 m -11.9,18.8 -1.9,-8.3 m 1.9,8.3 0.1,0.3 0,0.3 -0.1,0.3 -0.1,0.4 -0.1,0.3 -0.2,0.2 -0.2,0.3 -0.3,0.2 m 0,0 -1,0.6 -0.9,0.6 -1,0.6 -1,0.6 -1,0.7 -1,0.6 -1,0.6 -1,0.6 m -2.4,-0.2 0.2,0.1 0.3,0.2 0.3,0.1 0.4,0 0.3,0 0.3,0 0.3,-0.1 0.3,-0.1 m -9,-5.7 6.6,5.5 m -22.1,2.2 2,-0.8 1.9,-1 2,-0.9 1.9,-0.9 1.9,-1 2,-1 1.9,-1 1.9,-1.1 m -15.2,16.3 -0.3,-8.6 m 0.3,8.6 0,0.3 0,0.3 -0.1,0.3 -0.2,0.3 -0.2,0.3 -0.2,0.2 -0.3,0.2 -0.3,0.2 m 0,0 -1.1,0.4 -1,0.4 -1.1,0.5 -1.1,0.4 -1.1,0.4 -1.1,0.4 -1.1,0.4 -1,0.4 M 98,-9 l 0.2,0.2 0.3,0.2 0.2,0.2 0.4,0.1 0.3,0 0.3,0 0.3,0 0.4,-0.1 M 92.5,-15.6 98,-9 m -22.1,-1.8 2.1,-0.5 2.1,-0.6 2,-0.5 2.1,-0.6 2.1,-0.6 2.1,-0.6 2,-0.7 2.1,-0.7 m -17.9,13.2 1.3,-8.4 m -1.3,8.4 0,0.3 -0.1,0.3 -0.2,0.3 -0.2,0.3 -0.3,0.2 -0.2,0.2 -0.3,0.1 -0.4,0.1 m 0,0 -1.1,0.2 -1.1,0.3 L 69.5,0.1 68.4,0.3 67.2,0.5 66.1,0.7 65,0.9 63.8,1.1 M 61.6,0 l 0.2,0.3 0.2,0.3 0.2,0.2 0.3,0.1 0.3,0.1 0.4,0.1 0.3,0 0.3,0 M 57.4,-7.4 61.6,0 m -21.4,-5.8 2.1,-0.1 2.2,-0.1 2.2,-0.2 2.1,-0.2 2.2,-0.2 2.1,-0.2 2.2,-0.3 2.1,-0.3 m -20,9.7 2.8,-8.1 m -2.8,8.1 -0.1,0.3 -0.2,0.3 -0.2,0.2 -0.2,0.2 -0.3,0.2 -0.3,0.1 -0.3,0.1 -0.4,0 m 0,0 -1.1,0.1 -1.2,0 -1.1,0 -1.2,0 -1.2,0 -1.1,0 -1.2,0 -1.2,-0.1 m -1.9,-1.4 0.1,0.3 0.2,0.3 0.2,0.2 0.2,0.2 0.3,0.2 0.3,0.1 0.3,0.1 0.3,0 M 24.2,2.3 21.4,-5.8 M 0,0 4.2,-7.4 m 22.1,17.3 0,2.1 m 0,0 1.1,0 1.1,0.1 1.2,0 1.1,0 1.1,0 1.1,0 1.2,-0.1 1.1,0 m 0,0 0,-2.1 m 29.8,-2.8 0.4,2.1 m 0,0 L 66.6,9 67.7,8.9 68.8,8.7 69.9,8.4 71,8.2 72.1,8 73.2,7.8 74.3,7.6 m 0,0 -0.4,-2.1 m 28.8,-8.2 0.8,2 m 0,0 1,-0.4 1.1,-0.4 1,-0.4 1.1,-0.4 1,-0.4 1.1,-0.4 1,-0.4 1.1,-0.5 m 0,0 -0.8,-2 m 26.8,-13.3 1.1,1.8 m 0,0 1,-0.6 0.9,-0.5 1,-0.6 1,-0.6 0.9,-0.6 1,-0.6 0.9,-0.6 1,-0.6 m 0,0 -1.2,-1.9 m 23.9,-18 1.4,1.6 m 0,0 0.9,-0.7 0.8,-0.8 0.9,-0.7 0.8,-0.8 0.8,-0.7 0.9,-0.8 0.8,-0.8 0.8,-0.7 m 0,0 -1.5,-1.6 m 20.2,-22.2 1.7,1.3 m 0,0 0.7,-0.8 0.7,-0.9 0.7,-0.9 0.7,-0.9 0.6,-0.9 0.7,-0.9 0.7,-0.9 0.6,-0.9 m 0,0 -1.7,-1.3 m 15.8,-25.5 1.9,1 m 0,0 0.5,-1 0.5,-1 0.5,-1 0.5,-1 0.5,-1 0.5,-1 0.5,-1 0.5,-1.1 m 0,0 -1.9,-0.9 m 10.8,-27.9 2.1,0.6 m 0,0 0.3,-1.1 0.3,-1.1 0.3,-1.1 0.3,-1 0.3,-1.1 0.3,-1.1 0.3,-1.1 0.3,-1.1 m 0,0 -2.1,-0.6 m 5.5,-29.4 2.2,0.2 m 0,0 0.1,-1.1 0.1,-1.1 0.2,-1.1 0.1,-1.2 0.1,-1.1 0.1,-1.1 0,-1.1 0.1,-1.1 m 0,0 -2.1,-0.2 m 0,-30 2.1,-0.2 m 0,0 -0.1,-1.1 0,-1.1 -0.1,-1.1 -0.1,-1.1 -0.1,-1.2 -0.2,-1.1 -0.1,-1.1 -0.1,-1.1 m 0,0 -2.2,0.2 m -5.5,-29.4 2.1,-0.6 m 0,0 -0.3,-1.1 -0.3,-1.1 -0.3,-1.1 -0.3,-1 -0.3,-1.1 -0.3,-1.1 -0.3,-1.1 -0.3,-1.1 m 0,0 -2.1,0.6 m -10.8,-27.9 1.9,-0.9 m 0,0 -0.5,-1 -0.5,-1.1 -0.5,-1 -0.5,-1 -0.5,-1 -0.5,-1 -0.5,-1 -0.5,-1 m 0,0 -1.9,1 m -15.8,-25.5 1.7,-1.3 m 0,0 -0.6,-0.9 -0.7,-0.9 -0.7,-0.9 -0.6,-0.9 -0.7,-0.9 -0.7,-0.9 -0.7,-0.9 -0.7,-0.8 m 0,0 -1.7,1.3 m -20.2,-22.1 1.5,-1.6 m 0,0 -0.8,-0.8 -0.8,-0.8 -0.9,-0.7 -0.8,-0.8 -0.8,-0.8 -0.9,-0.7 -0.8,-0.8 -0.9,-0.7 m 0,0 -1.4,1.6 m -23.9,-18 1.2,-1.9 m 0,0 -1,-0.6 -0.9,-0.6 -1,-0.6 -0.9,-0.6 -1,-0.6 -1,-0.6 -0.9,-0.5 -1,-0.6 m 0,0 -1.1,1.8 m -26.8,-13.3 0.8,-2 m 0,0 -1.1,-0.4 -1,-0.5 -1.1,-0.4 -1,-0.4 -1.1,-0.4 -1,-0.4 -1.1,-0.4 -1,-0.4 m 0,0 -0.8,2 m -28.8,-8.1 0.4,-2.2 m 0,0 -1.1,-0.2 -1.1,-0.2 -1.1,-0.2 -1.1,-0.2 -1.1,-0.2 -1.1,-0.2 -1.1,-0.2 -1.1,-0.2 m 0,0 -0.4,2.1 m -29.8,-2.8 0,-2.1 m 0,0 -1.1,0 -1.2,-0.1 -1.1,0 -1.1,0 -1.1,0 -1.2,0 -1.1,0.1 -1.1,0 m 0,0 0,2.1 m -29.8,2.8 -0.4,-2.1 m 0,0 -1.1,0.2 -1.1,0.2 -1.1,0.2 -1.1,0.2 -1.1,0.2 -1.1,0.2 -1.1,0.2 -1.1,0.2 m 0,0 0.4,2.2 m -28.8,8.1 -0.8,-2 m 0,0 -1,0.4 -1.1,0.4 -1,0.4 -1.1,0.4 -1,0.4 -1.1,0.4 -1,0.5 -1.1,0.4 m 0,0 0.8,2 m -26.8,13.3 -1.1,-1.8 m 0,0 -1,0.6 -0.9,0.5 -1,0.6 -1,0.6 -0.9,0.6 -1,0.6 -0.9,0.6 -1,0.6 m 0,0 1.2,1.9 m -23.9,18 -1.5,-1.6 m 0,0 -0.8,0.7 -0.8,0.8 -0.9,0.7 -0.8,0.8 -0.8,0.8 -0.9,0.7 -0.8,0.8 -0.8,0.8 m 0,0 1.5,1.6 m -20.2,22.1 -1.7,-1.3 m 0,0 -0.7,0.8 -0.7,0.9 -0.7,0.9 -0.7,0.9 -0.7,0.9 -0.6,0.9 -0.7,0.9 -0.6,0.9 m 0,0 1.7,1.3 m -15.8,25.5 -1.9,-1 m 0,0 -0.5,1 -0.5,1 -0.6,1 -0.5,1 -0.5,1 -0.4,1 -0.5,1.1 -0.5,1 m 0,0 1.9,0.9 m -10.8,27.9 -2.1,-0.6 m 0,0 -0.3,1.1 -0.3,1.1 -0.3,1.1 -0.3,1.1 -0.3,1 -0.3,1.1 -0.3,1.1 -0.3,1.1 m 0,0 2,0.6 m -5.4,29.4 -2.2,-0.2 m 0,0 -0.1,1.1 -0.1,1.1 -0.2,1.1 -0.1,1.2 -0.1,1.1 -0.1,1.1 0,1.1 -0.1,1.1 m 0,0 2.1,0.2 m 0,30 -2.1,0.2 m 0,0 0.1,1.1 0,1.1 0.1,1.1 0.1,1.1 0.1,1.2 0.2,1.1 0.1,1.1 0.1,1.1 m 0,0 2.2,-0.2 m 5.4,29.4 -2,0.6 m 0,0 0.3,1.1 0.3,1.1 0.3,1.1 0.3,1.1 0.3,1 0.3,1.1 0.3,1.1 0.3,1.1 m 0,0 2.1,-0.6 m 10.8,27.9 -1.9,0.9 m 0,0 0.5,1.1 0.5,1 0.4,1 0.5,1 0.5,1 0.6,1 0.5,1 0.5,1 m 0,0 1.9,-1 m 15.8,25.5 -1.7,1.3 m 0,0 0.6,0.9 0.7,0.9 0.6,0.9 0.7,0.9 0.7,0.9 0.7,0.9 0.7,0.9 0.7,0.8 m 0,0 1.7,-1.3 m 20.2,22.2 -1.5,1.6 m 0,0 0.8,0.7 0.8,0.8 0.9,0.8 0.8,0.7 0.8,0.8 0.9,0.7 0.8,0.8 0.8,0.7 m 0,0 1.5,-1.6 m 23.9,18 -1.2,1.9 m 0,0 1,0.6 0.9,0.6 1,0.6 0.9,0.6 1,0.6 1,0.6 0.9,0.5 1,0.6 m 0,0 1.1,-1.8 m 26.8,13.3 -0.8,2 m 0,0 1.1,0.5 1,0.4 1.1,0.4 1,0.4 1.1,0.4 1,0.4 1.1,0.4 1,0.4 m 0,0 0.8,-2 m 28.8,8.2 -0.4,2.1 m 0,0 1.1,0.2 1.1,0.2 1.1,0.2 1.1,0.2 1.1,0.3 1.1,0.2 1.1,0.1 1.1,0.2 m 0,0 0.4,-2.1 m -27.4,-22.7 2.1,0.7 2,0.7 2.1,0.6 2.1,0.6 2.1,0.6 2,0.5 2.1,0.6 2.1,0.5 m 18.5,3.4 2.1,0.3 2.2,0.3 2.1,0.2 2.2,0.2 2.1,0.2 2.2,0.2 2.1,0.1 2.2,0.1 m -57.8,-3.2 5.5,-6.6 m 163,-361.3 -6.6,5.4 m 100.3,179.3 0.1,-2.1 0.1,-2.2 0,-2.1 0,-2.2 0,-2.2 0,-2.1 -0.1,-2.2 -0.1,-2.1 m -93.7,-167.5 0.2,-0.2 0.3,-0.2 0.3,-0.1 0.4,0 0.3,0 0.3,0 0.3,0.1 0.3,0.2 m 8.8,7.1 0.1,-0.3 0,-0.3 -0.1,-0.3 -0.1,-0.3 -0.1,-0.3 -0.2,-0.3 -0.2,-0.2 -0.3,-0.2 m -7.9,-4.9 1,0.6 1,0.5 1,0.7 1,0.6 1,0.6 1,0.6 0.9,0.6 1,0.7 m 26.7,33.6 3.4,-7.8 m 51.6,118.3 -0.3,-2.2 -0.4,-2.1 -0.3,-2.1 -0.4,-2.2 -0.4,-2.1 -0.4,-2.1 -0.5,-2.1 -0.5,-2.1 m -58.2,-110.2 -7.5,4.1 m -225.7,326.6 -0.2,0.1 -0.3,0.2 -0.3,0.1 -0.4,0 -0.3,0 -0.3,0 -0.3,-0.1 -0.3,-0.1 m 235.6,-330.9 0.3,-0.2 0.3,-0.1 0.3,0 0.4,0 0.3,0.1 0.3,0.1 0.3,0.1 0.3,0.2 m 7.3,8.7 0.1,-0.3 0.1,-0.3 0,-0.4 0,-0.3 -0.1,-0.3 -0.2,-0.3 -0.2,-0.3 -0.2,-0.2 m -6.8,-6.3 0.8,0.8 0.9,0.8 0.9,0.7 0.8,0.8 0.9,0.8 0.8,0.8 0.9,0.8 0.8,0.8 m 20.1,38 4.8,-7.1 m -298,271.7 7.5,-4.2 m 282.4,-278.1 -8,2.7 m -281.9,279.6 -0.3,0.1 -0.3,0.1 -0.3,0 -0.4,0 -0.3,-0.1 -0.3,-0.1 -0.3,-0.1 -0.3,-0.2 m 292.4,-282 0.4,-0.1 0.3,0 0.3,0 0.3,0.1 0.4,0.1 0.2,0.2 0.3,0.2 0.2,0.2 m 5.7,9.9 0.1,-0.3 0.1,-0.3 0.1,-0.3 0,-0.3 0,-0.3 -0.1,-0.4 -0.1,-0.3 -0.2,-0.2 m -5.6,-7.5 0.7,1 0.8,0.9 0.7,0.9 0.7,0.9 0.7,0.9 0.7,1 0.6,0.9 0.7,1 m 12.7,41 6,-6.1 m -342.8,212.3 8.1,-2.7 m 328.8,-221.5 -8.4,1.2 m -328.5,223 -0.3,0.1 -0.3,0 -0.3,0 -0.4,-0.1 -0.3,-0.1 -0.2,-0.2 -0.3,-0.2 -0.2,-0.2 m 339.2,-223.5 0.3,0 0.4,0.1 0.3,0 0.3,0.2 0.3,0.1 0.2,0.2 0.2,0.3 0.2,0.3 m 3.7,10.7 0.3,-0.2 0.1,-0.3 0.2,-0.3 0,-0.3 0.1,-0.3 -0.1,-0.4 0,-0.3 -0.1,-0.3 m -4.2,-8.3 0.6,1 0.5,1 0.5,1.1 0.5,1 0.6,1.1 0.5,1 0.5,1 0.5,1.1 m 4.9,42.7 7,-4.9 m -375.9,145.7 8.4,-1.2 m 363.9,-157.3 -8.5,-0.4 m 25.2,77.4 0.2,-3.8 0.2,-3.7 0.1,-3.8 0,-3.7 0,-3.7 -0.1,-3.8 -0.2,-3.7 -0.2,-3.8 m -16.7,-47 0.3,0.1 0.3,0.1 0.3,0.1 0.3,0.2 0.3,0.2 0.2,0.3 0.1,0.3 0.2,0.3 m 1.6,11.2 0.3,-0.2 0.2,-0.2 0.2,-0.3 0.1,-0.3 0.1,-0.3 0.1,-0.3 0,-0.4 -0.1,-0.3 m -2.5,-8.9 0.3,1.1 0.3,1.1 0.4,1.1 0.3,1.1 0.3,1.1 0.3,1.2 0.3,1.1 0.3,1.1 m -3,42.9 7.8,-3.5 m -396.3,74.1 8.5,0.4 m 394.3,-86.3 -0.4,-3.7 -0.5,-3.7 -0.6,-3.7 -0.7,-3.7 -0.7,-3.7 -0.8,-3.6 -0.8,-3.7 -1,-3.6 m -2.4,-8.7 -1.1,-3.5 -1.2,-3.6 -1.3,-3.5 -1.3,-3.5 -1.4,-3.5 -1.5,-3.4 -1.5,-3.5 -1.5,-3.4 m -4,-8 -1.8,-3.3 -1.8,-3.3 -1.9,-3.2 -2,-3.2 -2,-3.2 -2,-3.1 -2.1,-3.1 -2.2,-3.1 m -5.4,-7.1 -2.3,-3 -2.4,-2.8 -2.5,-2.9 -2.5,-2.7 -2.5,-2.8 -2.6,-2.7 -2.7,-2.6 -2.7,-2.6 m -6.6,-6.1 -2.8,-2.4 -2.9,-2.4 -3,-2.4 -2.9,-2.2 -3,-2.3 -3.1,-2.1 -3.1,-2.2 -3.1,-2 m -7.6,-4.8 -3.3,-1.8 -3.2,-1.9 -3.3,-1.7 -3.4,-1.7 -3.3,-1.7 -3.4,-1.5 -3.5,-1.5 -3.4,-1.5 m -8.4,-3.3 -3.5,-1.2 -3.6,-1.2 -3.5,-1.1 -3.6,-1.1 -3.6,-1 -3.7,-0.9 -3.6,-0.8 -3.7,-0.8 m -8.8,-1.7 -3.7,-0.6 -3.7,-0.5 -3.7,-0.4 -3.8,-0.4 -3.7,-0.3 -3.7,-0.3 -3.8,-0.1 -3.7,-0.2 m -9,0 -3.7,0.2 -3.8,0.1 -3.7,0.3 -3.7,0.3 -3.8,0.4 -3.7,0.4 -3.7,0.5 -3.7,0.6 m -8.8,1.7 -3.7,0.8 -3.6,0.8 -3.7,0.9 -3.6,1 -3.6,1.1 -3.5,1.1 -3.6,1.2 -3.5,1.2 m -8.4,3.3 -3.4,1.5 -3.5,1.5 -3.4,1.5 -3.3,1.7 -3.4,1.7 -3.3,1.7 -3.2,1.9 -3.3,1.8 m -7.6,4.8 -3.1,2 -3.1,2.2 -3.1,2.1 -3,2.3 -2.9,2.2 -3,2.4 -2.9,2.4 -2.8,2.4 m -6.6,6.1 -2.7,2.6 -2.7,2.6 -2.6,2.7 -2.5,2.8 -2.5,2.7 -2.5,2.9 -2.4,2.8 -2.3,3 m -5.4,7.1 -2.2,3.1 -2.1,3.1 -2.1,3.1 -2,3.2 -1.9,3.2 -1.9,3.2 -1.8,3.3 -1.8,3.3 m -4,8 -1.5,3.4 -1.6,3.5 -1.4,3.4 -1.4,3.5 -1.3,3.5 -1.3,3.5 -1.2,3.6 -1.1,3.5 m -2.5,8.7 -0.9,3.6 -0.8,3.7 -0.8,3.6 -0.7,3.7 -0.7,3.7 -0.6,3.7 -0.5,3.7 -0.4,3.7 m -0.9,8.9 -0.2,3.8 -0.2,3.7 -0.1,3.8 0,3.7 0,3.7 0.1,3.8 0.2,3.7 0.2,3.8 m 0.9,8.9 0.4,3.7 0.5,3.7 0.6,3.7 0.7,3.7 0.7,3.7 0.8,3.7 0.8,3.6 0.9,3.6 m 2.5,8.7 1.1,3.6 1.2,3.5 1.3,3.5 1.3,3.5 1.4,3.5 1.4,3.5 1.6,3.4 1.5,3.4 m 4,8 1.8,3.3 1.8,3.3 1.9,3.2 1.9,3.2 2,3.2 2.1,3.1 2.1,3.1 2.2,3.1 m 5.4,7.1 2.3,3 2.4,2.8 2.5,2.9 2.5,2.8 2.5,2.7 2.6,2.7 2.7,2.7 2.7,2.6 m 6.6,6 2.8,2.5 2.9,2.3 3,2.4 2.9,2.3 3,2.2 3.1,2.2 3.1,2.1 3.1,2 m 7.6,4.8 3.3,1.9 3.2,1.8 3.3,1.7 3.4,1.7 3.3,1.7 3.4,1.5 3.5,1.6 3.4,1.4 m 8.4,3.3 3.5,1.2 3.6,1.2 3.5,1.1 3.6,1.1 3.6,1 3.7,0.9 3.6,0.9 3.7,0.8 m 8.8,1.6 3.7,0.6 3.7,0.5 3.7,0.4 3.8,0.4 3.7,0.3 3.7,0.3 3.8,0.2 3.7,0.1 m 9,0 L 39,9.8 42.8,9.6 46.5,9.3 50.2,9 54,8.6 57.7,8.2 61.4,7.7 65.1,7.1 m 8.8,-1.6 3.7,-0.8 3.6,-0.9 3.7,-0.9 3.6,-1 3.6,-1.1 3.5,-1.1 3.6,-1.2 3.5,-1.2 m 8.4,-3.3 3.4,-1.4 3.5,-1.6 3.4,-1.5 3.3,-1.7 3.4,-1.7 3.3,-1.7 3.2,-1.8 3.3,-1.9 m 7.6,-4.8 3.1,-2 3.1,-2.1 3.1,-2.2 3,-2.2 2.9,-2.3 3,-2.4 2.9,-2.3 2.8,-2.5 m 6.6,-6 2.7,-2.6 2.7,-2.7 2.6,-2.7 2.5,-2.7 2.5,-2.8 2.5,-2.9 2.4,-2.8 2.3,-3 m 5.4,-7.1 2.2,-3.1 2.1,-3.1 2,-3.1 2,-3.2 2,-3.2 1.9,-3.2 1.8,-3.3 1.8,-3.3 m 4,-8 1.5,-3.4 1.5,-3.4 1.5,-3.5 1.4,-3.5 1.3,-3.5 1.3,-3.5 1.2,-3.5 1.1,-3.6 m 2.4,-8.7 1,-3.6 0.8,-3.6 0.8,-3.7 0.7,-3.7 0.7,-3.7 0.6,-3.7 0.5,-3.7 0.4,-3.7 m -252.9,-42.8 5.5,-9.4 m 0,0 0.2,-0.3 0.2,-0.2 0.3,-0.2 0.4,-0.1 0.3,-0.1 0.4,0 0.3,0.1 0.3,0.1 m 0,0 6,3.5 m 0,0 -0.3,-3.6 m 0,0 0.1,-0.1 0.2,-0.1 0.1,-0.1 0.1,-0.1 0.1,-0.1 0.1,-0.1 0.1,-0.1 0.1,-0.2 m 0,0 0,0 m 0,0 4.2,0.4 m 0.1,-0.1 0,0 -0.1,0 0,0.1 m 0.1,-0.1 0.3,-4.1 m 0,0 0.2,-0.1 0.1,-0.1 0.1,-0.1 0.1,-0.1 0.2,-0.1 0.1,-0.1 0.1,-0.1 0.2,-0.1 m 0,0 0,0 m 0,0 4,1.1 m 0.1,0 0,0 -0.1,0 m 0.1,0 1.1,-4.1 m 0,0 0.1,0 0.2,-0.1 0.1,-0.1 0.1,0 0.2,-0.1 0.1,-0.1 0.2,0 0.1,-0.1 m 0,0 0,0 m 0,0 3.8,1.8 m 0.1,-0.1 0,0 -0.1,0 0,0.1 m 0.1,-0.1 1.8,-3.8 m 0,0 0.1,0 0.2,-0.1 0.1,0 0.2,0 0.1,-0.1 0.2,0 0.1,0 0.2,-0.1 m 0,0 0,0 m 0,0 3.4,2.4 m 0.1,0 0,0 -0.1,0 m 0.1,0 2.4,-3.4 m 0,0 0.2,-0.1 0.1,0 0.2,0 0.2,0 0.1,0 0.2,0 0.1,0 0.2,0 m 0,0 0,0 m 0,0 2.9,2.9 m 0.2,0 0,0 -0.1,0 -0.1,0 m 0.2,0 2.9,-2.9 m 0,0 0.2,0 0.1,0 0.2,0 0.1,0 0.2,0 0.1,0 0.2,0 0.2,0.1 m 0,0 0,0 m 0,0 2.3,3.4 m 0.2,0 0,0 -0.1,0 -0.1,0 m 0.2,0 3.4,-2.4 m 0,0 0.2,0.1 0.1,0 0.2,0 0.1,0.1 0.2,0 0.1,0 0.2,0.1 0.1,0 m 0,0 0,0 m 0,0 1.8,3.8 m 0.1,0.1 0,0 0,-0.1 -0.1,0 m 0.1,0.1 3.8,-1.8 m 0,0 0.1,0.1 0.2,0 0.1,0.1 0.1,0.1 0.2,0 0.1,0.1 0.2,0.1 0.1,0 m 0,0 0,0 m 0,0 1.1,4.1 m 0.1,0 0,0 -0.1,0 m 0.1,0 4,-1.1 m 0,0 0.2,0.1 0.1,0.1 0.1,0.1 0.1,0.1 0.2,0.1 0.1,0.1 0.1,0.1 0.2,0.1 m 0,0 0,0 m 0,0 0.3,4.1 m 0.1,0.1 0,0 0,-0.1 -0.1,0 m 0.1,0.1 4.2,-0.4 m 0,0 0.1,0.2 0.1,0.1 0.1,0.1 0.1,0.1 0.1,0.1 0.1,0.1 0.2,0.1 0.1,0.1 m 0,0 0,0 m 0,0 -0.4,3.6 m 0,0 6.1,-3.5 m 0,0 0.3,-0.1 0.3,-0.1 0.4,0 0.3,0.1 0.4,0.1 0.3,0.2 0.2,0.2 0.2,0.3 m 0,0 5.5,9.4 m 0,0 0.1,0.4 0.1,0.3 0,0.4 0,0.3 -0.2,0.3 -0.2,0.3 -0.2,0.3 -0.3,0.2 m 0,0 -6,3.5 m 0,0 3.3,1.5 m 0,0 0,0.1 0.1,0.2 0,0.1 0,0.2 0.1,0.1 0,0.2 0.1,0.1 0,0.2 m 0,0 0,0 m 0,0 -2.4,3.4 m 0,0.2 0,-0.1 0,-0.1 m 0,0.2 3.4,2.3 m 0,0 0.1,0.2 0,0.2 0,0.1 0,0.2 0,0.1 0,0.2 0,0.1 0,0.2 m 0,0 0,0 m -2.9,3.1 0,0 0,-0.1 0,-0.1 m 0,0.2 2.9,2.9 m 0,0 0,0.2 0,0.1 0,0.2 0,0.1 0,0.2 0,0.2 0,0.1 -0.1,0.2 m 0,0 0,0 m 0,0 -3.4,2.4 m 0,0.1 0,0 0,-0.1 m 0,0.1 2.4,3.4 m 0,0 0,0.2 -0.1,0.1 0,0.2 -0.1,0.1 0,0.2 0,0.1 -0.1,0.2 0,0.1 m 0,0 0,0 m 0,0 -3.8,1.8 m -0.1,0.1 0,0 0.1,0 0,-0.1 m -0.1,0.1 1.8,3.8 m 0,0 -0.1,0.1 0,0.2 -0.1,0.1 -0.1,0.2 0,0.1 -0.1,0.1 -0.1,0.2 0,0.1 m 0,0 0,0 m 0,0 -4.1,1.1 m 0,0.1 0,0 0,-0.1 m 0,0.1 1.1,4 m 0,0 -0.1,0.2 -0.1,0.1 -0.1,0.1 -0.1,0.2 -0.1,0.1 -0.1,0.1 -0.1,0.1 -0.1,0.2 m 0,0 0,0 m 0,0 -4.1,0.3 m -0.1,0.1 0,0 0.1,0 0,-0.1 m -0.1,0.1 0.4,4.2 m 0,0 -0.1,0.1 -0.2,0.1 -0.1,0.1 -0.1,0.1 -0.1,0.1 -0.1,0.2 -0.1,0.1 -0.1,0.1 m 0,0 0,0 m 0,0 -4.2,-0.4 m -0.1,0.1 0,0 0.1,0 0,-0.1 m -0.1,0.1 -0.3,4.2 m 0,0 -0.2,0 -0.1,0.1 -0.1,0.1 -0.2,0.1 -0.1,0.1 -0.1,0.1 -0.1,0.1 -0.2,0.1 m 0,0 0,0 m 0,0 -4,-1.1 m -0.1,0.1 0,-0.1 0.1,0 m -0.1,0.1 -1.1,4 m 0,0 -0.1,0.1 -0.2,0 -0.1,0.1 -0.2,0.1 -0.1,0 -0.1,0.1 -0.2,0 -0.1,0.1 m 0,0 0,0 m 0,0 -3.8,-1.8 m -0.1,0.1 0,0 0.1,0 0,-0.1 m -0.1,0.1 -1.8,3.8 m 0,0 -0.1,0 -0.2,0.1 -0.1,0 -0.2,0 -0.1,0.1 -0.2,0 -0.1,0.1 -0.2,0 m 0,0 0,0 m 0,0 -3,-2.1 m 0,0 0,7 m 0,0 0,0.3 -0.1,0.4 -0.2,0.3 -0.2,0.3 -0.3,0.2 -0.3,0.1 -0.3,0.1 -0.4,0.1 m 0,0 -10.9,0 m 0,0 -0.3,-0.1 -0.3,-0.1 -0.4,-0.1 -0.2,-0.2 -0.3,-0.3 -0.1,-0.3 -0.1,-0.4 -0.1,-0.3 m 0,0 0,-7 m 0,0 -2.9,2.1 m 0,0 -0.2,0 -0.1,-0.1 -0.2,0 -0.1,-0.1 -0.2,0 -0.1,0 -0.2,-0.1 -0.1,0 m 0,0 0,0 m 0,0 -1.8,-3.8 m -0.1,-0.1 0,0.1 0.1,0 m -3.9,1.7 -0.1,-0.1 -0.2,0 -0.1,-0.1 -0.2,0 -0.1,-0.1 -0.1,-0.1 -0.2,0 -0.1,-0.1 m 0,0 0,0 m -1.2,-4.1 0,0 0.1,0 0,0.1 m -5.2,0.3 0,0 m -0.4,-4.3 0,0 0,0.1 0.1,0 m -4.9,-4.9 0,0 0,0.1 0.1,0 m -5,-1.5 0,0 m 1,-4.1 0.1,0 0,0.1 m -2.9,-6.2 0,0 0,0.1 0.1,0 m -0.1,-0.1 -3.8,-1.8 m -0.3,-1.2 2.4,-3.4 m 0,-0.1 0,0 0,0.1 m -3.4,-2.5 -0.1,-0.2 0,-0.1 0,-0.2 0,-0.2 0,-0.1 0,-0.2 0,-0.1 -0.1,-0.2 m 0,0 0,0 m 3,-3.1 0,0.1 0,0.1 m -2.8,-4.4 0,0 m 0,0 3.4,-2.3 m 0,-0.2 0,0 0,0.1 0,0.1 m 1.2,-6.3 -6,-3.5 m 0,0 -0.3,-0.2 -0.3,-0.3 -0.1,-0.3 -0.2,-0.3 0,-0.3 0,-0.4 0.1,-0.3 0.1,-0.4 m -27.9,18.9 0.3,6.8 1,6.7 1.6,6.7 2.2,6.4 2.8,6.2 3.4,5.9 4,5.5 4.4,5.2 5,4.7 5.3,4.2 5.7,3.6 6.1,3.2 6.3,2.5 6.5,1.9 6.7,1.3 6.8,0.6 6.8,0 6.8,-0.6 6.7,-1.3 6.5,-1.9 6.3,-2.5 6.1,-3.2 5.7,-3.6 5.3,-4.2 5,-4.7 4.4,-5.2 4,-5.5 3.4,-5.9 2.8,-6.2 2.2,-6.4 1.6,-6.7 1,-6.7 0.3,-6.8 -0.3,-6.8 -1,-6.7 -1.6,-6.6 -2.2,-6.5 -2.8,-6.2 -3.4,-5.9 -4,-5.5 -4.4,-5.1 -5,-4.7 -5.3,-4.3 -5.7,-3.6 -6.1,-3.2 -6.3,-2.5 -6.5,-1.9 -6.7,-1.3 -6.8,-0.6 -6.8,0 -6.8,0.6 -6.7,1.3 -6.5,1.9 -6.3,2.5 -6.1,3.2 -5.7,3.6 -5.3,4.3 -5,4.7 -4.4,5.1 -4,5.5 -3.4,5.9 -2.8,6.2 -2.2,6.5 -1.6,6.6 -1,6.7 -0.3,6.8 m 29.8,3 3,-2.9 m 0.6,6.6 -3.4,-2.4 m -0.2,-7.3 0.1,-0.2 0,-0.1 0,-0.2 0,-0.1 0,-0.2 0,-0.1 0,-0.2 0.1,-0.2 m 1.3,15.7 0,-0.1 -0.1,-0.2 0,-0.1 0,-0.2 -0.1,-0.1 0,-0.2 -0.1,-0.1 0,-0.2 m 5.9,13.2 1.1,-4 m -5.2,-19.5 -3,-2.9 m 1.2,-7.2 0,-0.2 0.1,-0.1 0,-0.2 0.1,-0.1 0,-0.2 0,-0.1 0.1,-0.2 0,-0.1 m 22,49 -1.1,-4 m 6,2.7 -3.8,1.8 m -6.3,-3.5 -0.2,-0.1 -0.1,-0.1 -0.1,-0.1 -0.2,-0.1 -0.1,-0.1 -0.1,-0.1 -0.1,-0.1 -0.2,0 m -9.4,-9.4 0,-0.2 -0.1,-0.1 -0.1,-0.1 -0.1,-0.1 -0.1,-0.2 -0.1,-0.1 -0.1,-0.1 -0.1,-0.2 m 10.1,10.5 -0.3,-4.2 m 5.4,3.8 -4,1.1 m -5.7,-4.6 -0.1,-0.1 -0.1,-0.1 -0.1,-0.2 -0.1,-0.1 -0.1,-0.1 -0.1,-0.1 -0.2,-0.1 -0.1,-0.1 m 0,0 0,0 m 0,0 0.4,-4.2 m 4.7,4.7 -4.2,0.4 m -4.5,-10.7 -4,-1.1 m -0.5,-25 -2.4,-3.4 m 0,20.4 0,0 m 10.8,14.6 -4.2,-0.3 m -3.7,-6.3 -0.1,-0.1 0,-0.2 -0.1,-0.1 -0.1,-0.1 0,-0.2 -0.1,-0.1 0,-0.2 -0.1,-0.1 m 0,0 0,0 m 0,0 1.8,-3.8 m -3.9,-24.7 0,0 m 0,0 3.3,-1.5 m 78.5,9.9 -2.9,2.9 m -111.9,0.1 0.4,6.9 0.9,6.7 1.6,6.7 2.2,6.5 2.8,6.3 3.4,5.9 3.9,5.7 4.5,5.2 4.9,4.8 5.3,4.3 5.7,3.8 6.1,3.2 6.3,2.7 6.5,2 6.7,1.5 6.9,0.8 6.8,0.1 6.9,-0.4 6.7,-1.2 6.7,-1.7 6.4,-2.4 6.2,-2.9 5.9,-3.5 5.5,-4.1 5.1,-4.6 4.7,-5 4.2,-5.4 3.6,-5.8 3.1,-6.1 2.5,-6.4 2,-6.6 1.2,-6.7 0.7,-6.9 0,-6.8 -0.7,-6.9 -1.2,-6.7 -2,-6.6 -2.5,-6.4 -3.1,-6.1 -3.6,-5.8 -4.2,-5.4 -4.7,-5 -5.1,-4.6 -5.5,-4 -5.9,-3.6 -6.2,-2.9 -6.4,-2.4 -6.7,-1.7 -6.7,-1.1 -6.9,-0.5 -6.8,0.1 -6.9,0.8 -6.7,1.5 -6.5,2 -6.3,2.7 -6.1,3.2 -5.7,3.8 -5.3,4.3 -4.9,4.8 -4.5,5.3 -3.9,5.6 -3.4,5.9 -2.8,6.3 -2.2,6.5 -1.6,6.7 -0.9,6.8 -0.4,6.8 m -2.4,0 0.3,7 1,6.9 1.6,6.8 2.2,6.6 2.8,6.4 3.4,6.1 4,5.8 4.4,5.3 5,5 5.3,4.4 5.8,4 6.1,3.4 6.4,2.8 6.6,2.2 6.8,1.6 6.9,1 7,0.3 7,-0.3 6.9,-1 6.8,-1.6 6.6,-2.2 6.4,-2.8 6.1,-3.4 5.8,-4 5.3,-4.4 5,-5 4.4,-5.3 4,-5.8 3.4,-6.1 2.8,-6.4 2.2,-6.6 1.6,-6.8 1,-6.9 0.3,-7 -0.3,-7 -1,-6.9 -1.6,-6.8 -2.2,-6.6 -2.8,-6.4 -3.4,-6.1 -4,-5.8 -4.4,-5.3 -5,-5 -5.3,-4.4 -5.8,-4 -6.1,-3.4 -6.4,-2.8 -6.6,-2.2 -6.8,-1.6 -6.9,-1 -7,-0.3 -7,0.3 -6.9,1 -6.8,1.6 -6.6,2.2 -6.4,2.8 -6.1,3.4 -5.8,4 -5.3,4.4 -5,5 -4.4,5.3 -4,5.8 -3.4,6.1 -2.8,6.4 -2.2,6.6 -1.6,6.8 -1,6.9 -0.3,7 m 0,0 0.3,7 1,6.9 1.6,6.8 2.2,6.6 2.8,6.4 3.4,6.1 4,5.8 4.4,5.3 5,5 5.3,4.4 5.8,4 6.1,3.4 6.4,2.8 6.6,2.2 6.8,1.6 6.9,1 7,0.3 7,-0.3 6.9,-1 6.8,-1.6 6.6,-2.2 6.4,-2.8 6.1,-3.4 5.8,-4 5.3,-4.4 5,-5 4.4,-5.3 4,-5.8 3.4,-6.1 2.8,-6.4 2.2,-6.6 1.6,-6.8 1,-6.9 0.3,-7 -0.3,-7 -1,-6.9 -1.6,-6.8 -2.2,-6.6 -2.8,-6.4 -3.4,-6.1 -4,-5.8 -4.4,-5.3 -5,-5 -5.3,-4.4 -5.8,-4 -6.1,-3.4 -6.4,-2.8 -6.6,-2.2 -6.8,-1.6 -6.9,-1 -7,-0.3 -7,0.3 -6.9,1 -6.8,1.6 -6.6,2.2 -6.4,2.8 -6.1,3.4 -5.8,4 -5.3,4.4 -5,5 -4.4,5.3 -4,5.8 -3.4,6.1 -2.8,6.4 -2.2,6.6 -1.6,6.8 -1,6.9 -0.3,7 m -1.1,0 0.3,7.1 1,7 1.6,6.9 2.3,6.7 2.9,6.5 3.4,6.2 4,5.8 4.5,5.5 5,5 5.5,4.5 5.8,4 6.2,3.5 6.5,2.8 6.7,2.3 6.9,1.6 7,1 7.1,0.3 7.1,-0.3 7,-1 6.9,-1.6 6.7,-2.3 6.5,-2.8 6.2,-3.5 5.8,-4 5.5,-4.5 5,-5 4.5,-5.5 4,-5.8 3.4,-6.2 2.9,-6.5 2.3,-6.7 1.6,-6.9 1,-7 0.3,-7.1 -0.3,-7.1 -1,-7 -1.6,-6.9 -2.3,-6.7 -2.9,-6.5 -3.4,-6.2 -4,-5.8 -4.5,-5.5 -5,-5 -5.5,-4.5 -5.8,-4 -6.2,-3.4 -6.5,-2.9 -6.7,-2.3 -6.9,-1.6 -7,-1 -7.1,-0.3 -7.1,0.3 -7,1 -6.9,1.6 -6.7,2.3 -6.5,2.9 -6.2,3.4 -5.8,4 -5.5,4.5 -5,5 -4.5,5.5 -4,5.8 -3.4,6.2 -2.9,6.5 -2.3,6.7 -1.6,6.9 -1,7 -0.3,7.1 m -21.2,0 0.3,8 1,7.9 1.6,7.8 2.2,7.7 2.9,7.5 3.5,7.2 4,6.9 4.6,6.5 5.1,6.1 5.6,5.7 6,5.3 6.5,4.7 6.8,4.2 7.1,3.6 7.4,3 7.6,2.4 7.8,1.8 7.9,1.1 8,0.5 8,-0.1 7.9,-0.9 7.9,-1.4 7.7,-2.1 7.5,-2.7 7.3,-3.3 7,-3.9 6.6,-4.5 6.2,-5 5.9,-5.5 5.3,-5.9 4.9,-6.3 4.3,-6.8 3.7,-7 3.2,-7.3 2.6,-7.6 1.9,-7.8 1.3,-7.8 0.7,-8 0,-8 -0.7,-8 -1.3,-7.8 -1.9,-7.8 -2.6,-7.6 -3.2,-7.3 -3.7,-7 -4.3,-6.8 -4.9,-6.3 -5.3,-5.9 -5.9,-5.5 -6.2,-5 -6.6,-4.4 -7,-3.9 -7.3,-3.4 -7.5,-2.7 -7.7,-2.1 -7.9,-1.4 -7.9,-0.8 -8,-0.2 -8,0.5 -7.9,1.1 -7.8,1.8 -7.6,2.4 -7.4,3 -7.1,3.6 -6.8,4.2 -6.5,4.7 -6,5.3 -5.6,5.7 -5.1,6.1 -4.6,6.6 -4,6.8 -3.5,7.2 -2.9,7.5 -2.2,7.7 -1.6,7.8 -1,7.9 -0.3,8 m 104.4,-181.7 -1.6,-1.1 -3.1,-1 -3.6,0 -3.2,1.1 -1.5,1 m -114.8,181.7 0.3,8.9 1,8.8 1.6,8.7 2.2,8.6 2.9,8.3 3.5,8.2 4,7.9 4.6,7.5 5.2,7.2 5.6,6.9 6.2,6.3 6.6,6 7,5.4 7.4,4.9 7.7,4.3 8.1,3.8 8.2,3.1 8.5,2.6 8.7,1.9 8.7,1.3 8.9,0.6 8.8,0 8.9,-0.6 8.7,-1.3 8.7,-1.9 8.5,-2.6 8.2,-3.1 8.1,-3.8 7.7,-4.3 7.4,-4.9 7,-5.4 6.6,-6 6.1,-6.3 5.7,-6.9 5.2,-7.2 4.6,-7.5 4,-7.9 3.5,-8.2 2.9,-8.3 2.2,-8.6 1.6,-8.7 1,-8.8 0.3,-8.9 -0.3,-8.8 -1,-8.9 -1.6,-8.7 -2.2,-8.5 -2.9,-8.4 -3.5,-8.2 -4,-7.9 -4.6,-7.5 -5.2,-7.2 -5.7,-6.8 -6.1,-6.4 -6.6,-5.9 -7,-5.5 -7.4,-4.8 -7.7,-4.4 -8.1,-3.7 -8.2,-3.2 -8.5,-2.6 -8.7,-1.9 -8.7,-1.3 -8.9,-0.6 -8.8,0 -8.9,0.6 -8.7,1.3 -8.7,1.9 -8.5,2.6 -8.2,3.2 -8.1,3.7 -7.7,4.4 -7.4,4.8 -7,5.5 -6.6,5.9 -6.2,6.4 -5.6,6.8 -5.2,7.2 -4.6,7.5 -4,7.9 -3.5,8.2 -2.9,8.4 -2.2,8.5 -1.6,8.7 -1,8.9 -0.3,8.8 M 34,-87.9 l -0.2,1.2 -0.7,1.1 -1.1,0.7 -1.2,0.2 -1.2,-0.2 -1.1,-0.7 -0.7,-1.1 -0.2,-1.2 0.2,-1.3 0.7,-1 1.1,-0.7 1.2,-0.3 1.2,0.3 1.1,0.7 0.7,1 0.2,1.3 m 1.9,-220.6 -0.3,1.8 -1,1.6 -1.5,1.2 -1.8,0.5 -1.9,-0.2 -1.7,-0.8 -1.3,-1.4 -0.7,-1.8 0,-1.9 0.7,-1.7 1.3,-1.4 1.7,-0.9 1.9,-0.2 1.8,0.6 1.5,1.1 1,1.6 0.3,1.9 m -102.4,74.4 -0.4,1.9 -1,1.6 -1.5,1.1 -1.8,0.5 -1.9,-0.1 -1.7,-0.9 -1.3,-1.4 -0.6,-1.7 0,-1.9 0.6,-1.8 1.3,-1.4 1.7,-0.8 1.9,-0.2 1.8,0.5 1.5,1.1 1,1.7 0.4,1.8 m 39.1,120.5 -0.3,1.8 -1,1.6 -1.5,1.2 -1.9,0.5 -1.8,-0.2 -1.7,-0.8 -1.3,-1.4 -0.7,-1.8 0,-1.9 0.7,-1.7 1.3,-1.4 1.7,-0.9 1.8,-0.2 1.9,0.6 1.5,1.1 1,1.6 0.3,1.9 m 126.7,0 -0.4,1.8 -1,1.6 -1.5,1.2 -1.8,0.5 -1.9,-0.2 -1.7,-0.8 -1.2,-1.4 -0.7,-1.8 0,-1.9 0.7,-1.7 1.2,-1.4 1.7,-0.9 1.9,-0.2 1.8,0.6 1.5,1.1 1,1.6 0.4,1.9 m 39.1,-120.5 -0.3,1.9 -1,1.6 -1.5,1.1 -1.9,0.5 -1.8,-0.1 -1.7,-0.9 -1.3,-1.4 -0.7,-1.7 0,-1.9 0.7,-1.8 1.3,-1.4 1.7,-0.8 1.8,-0.2 1.9,0.5 1.5,1.1 1,1.7 0.3,1.8 m -256.9,33.3 0.3,9.9 1,9.8 1.6,9.7 2.2,9.7 2.9,9.4 3.6,9.2 4.1,9 4.7,8.7 5.2,8.3 5.8,8 6.4,7.6 6.8,7.2 7.2,6.7 7.7,6.2 8.1,5.6 8.5,5.2 8.7,4.5 9.1,4 9.2,3.3 9.5,2.8 9.7,2.1 9.8,1.5 9.8,0.8 9.9,0.1 9.8,-0.5 9.8,-1.1 9.8,-1.8 9.5,-2.4 9.4,-3.1 9.2,-3.6 8.9,-4.3 8.6,-4.8 8.3,-5.4 7.9,-6 7.4,-6.4 7.1,-6.9 6.6,-7.4 6,-7.8 5.6,-8.2 4.9,-8.5 4.5,-8.8 3.8,-9.2 3.2,-9.3 2.6,-9.5 1.9,-9.7 1.3,-9.8 0.7,-9.9 0,-9.8 -0.7,-9.9 -1.3,-9.8 -1.9,-9.7 -2.6,-9.5 -3.2,-9.3 -3.8,-9.1 -4.5,-8.9 -4.9,-8.5 -5.6,-8.2 -6,-7.8 -6.6,-7.3 -7.1,-7 -7.4,-6.4 -7.9,-6 -8.3,-5.4 -8.6,-4.8 -8.9,-4.3 -9.2,-3.6 -9.4,-3.1 -9.5,-2.4 -9.8,-1.8 -9.8,-1.1 -9.8,-0.5 -9.9,0.1 -9.8,0.9 -9.8,1.4 -9.7,2.1 -9.5,2.8 -9.2,3.3 -9.1,4 -8.7,4.6 -8.5,5.1 -8.1,5.7 -7.7,6.1 -7.2,6.7 -6.8,7.2 -6.4,7.6 -5.8,8 -5.2,8.3 -4.7,8.7 -4.1,9 -3.6,9.2 -2.9,9.5 -2.2,9.6 -1.6,9.7 -1,9.8 -0.3,9.9 m 142.8,-181.7 -1.9,1.9 -1.3,2.2 -0.8,2.5 -0.1,2.7 0.6,2.5 1.1,2.4 1.7,2 2.1,1.5 2.5,1 2.6,0.3 2.6,-0.3 2.5,-1 2.1,-1.5 1.7,-2 1.1,-2.4 0.6,-2.5 -0.1,-2.7 -0.8,-2.5 -1.3,-2.2 -1.9,-1.9 m -131.4,181.7 0.3,9 1,9 1.6,8.9 2.3,8.7 2.8,8.5 3.5,8.4 4.1,8 4.7,7.7 5.2,7.4 5.7,7 6.2,6.5 6.6,6.1 7.1,5.6 7.5,5.1 7.8,4.5 8.1,3.9 8.4,3.3 8.6,2.8 8.8,2.1 8.9,1.4 8.9,0.8 9.1,0.2 9,-0.5 8.9,-1.1 8.8,-1.8 8.7,-2.4 8.5,-3.1 8.3,-3.6 8,-4.2 7.6,-4.8 7.3,-5.3 6.8,-5.9 6.5,-6.3 5.9,-6.8 5.5,-7.1 4.9,-7.6 4.4,-7.9 3.8,-8.2 3.2,-8.4 2.5,-8.7 2,-8.8 1.3,-8.9 0.6,-9 0,-9 -0.6,-9 -1.3,-8.9 -2,-8.8 -2.5,-8.7 -3.2,-8.4 -3.8,-8.2 -4.4,-7.9 -4.9,-7.5 -5.5,-7.2 -5.9,-6.8 -6.5,-6.3 -6.8,-5.9 -7.3,-5.3 -7.6,-4.8 -8,-4.2 -8.3,-3.6 -8.5,-3.1 -8.7,-2.4 -8.8,-1.8 -8.9,-1.1 -9,-0.5 -9.1,0.2 -8.9,0.8 -8.9,1.4 -8.8,2.1 -8.6,2.8 -8.4,3.3 -8.1,3.9 -7.8,4.6 -7.5,5 -7.1,5.6 -6.6,6.1 -6.2,6.5 -5.7,7 -5.2,7.4 -4.7,7.7 -4.1,8.1 -3.5,8.3 -2.8,8.5 -2.3,8.8 -1.6,8.8 -1,9 -0.3,9" connector-curvature="0" id="path1470" style="fill:none;stroke:#000000;stroke-width:0.70899999;stroke-linecap:round;stroke-linejoin:round;stroke-miterlimit:10;stroke-opacity:1;stroke-dasharray:none"/>
  </g>
</svg>
