<?xml version="1.0"?>
<svg xmlns="http://www.w3.org/2000/svg" width="2070" height="1530">
  <g transform="translate(509,444.3)">
    <path d="m 0,0 0,0 -0.2,-0.1 -0.4,-0.3 -0.9,-0.5 -0.9,-0.5 -0.6,-0.1 -0.7,0.1 -0.7,0.2 -1,0.6 L -6,-0.2 -6.3,0 -6.4,0 m 0,0 0,14.6 m 6.4,0 -0.3,0 -0.8,0 -1,0 -1.1,0 -1.1,0 -1,0 -0.7,0 -0.4,0 M 0,14.6 0,0 m 0,0 0.1,0 m 0,0 0,-0.2 0,-0.7 0,-1.1 0,-1.2 0,-1.3 0,-1 0,-0.7 0,-0.3 m 0,0 -0.1,0 m 0,0.1 0,-0.1 m -6.3,0.1 0.4,0.2 0.6,0.4 0.8,0.5 0.7,0.3 0.6,0.1 0.7,-0.1 0.8,-0.4 0.9,-0.6 0.6,-0.3 0.2,-0.1 m -6.3,-0.1 0,0.1 m 0,-0.1 -42.7,0 m 0,6.5 0,-0.2 0,-0.7 0,-1.1 0,-1.2 0,-1.3 0,-1 0,-0.7 0,-0.3 m 0,6.5 42.6,0 m 23.5,7.7 5.8,0 m 3.9,0 -1.3,0 -1.2,0 -0.8,0 -0.5,0 -0.1,0 m 5.4,0 -1.5,0 m 5.4,0 0,0 -0.4,0 -0.8,0 -1,0 -1.3,0 -0.4,0 m 3.9,0 2.9,0 m 0,-247.6 0,0.2 0,0.8 0,1.3 0,1.9 0,2.3 0,2.9 0,3.3 0,3.9 0,4.2 0,4.8 0,5.1 0,5.5 0,6 0,6.2 0,6.6 0,6.9 0,7.1 0,7.4 0,7.6 0,7.8 0,7.8 0,8 0,8.1 0,8.1 0,8.1 0,8.1 0,8 0,7.9 0,7.7 0,7.6 0,7.4 0,7.1 0,6.9 0,6.6 0,6.3 0,5.9 0,5.5 0,5.2 0,4.7 0,4.3 0,3.8 0,3.3 0,2.9 0,2.3 0,1.9 0,1.3 0,0.8 0,0.2 m 0,-247.6 -18,0 m 11.2,221.2 1.3,-0.2 1.1,-0.4 0.9,-0.6 0.5,-0.8 0.1,-0.8 -0.4,-0.9 -0.8,-0.7 -1,-0.5 -1.3,-0.2 -0.4,0 m -1.5,5.1 1.5,0 m -1.5,-5.1 -1.3,0.1 -1.2,0.5 -0.8,0.6 -0.5,0.8 -0.1,0.9 0.4,0.8 0.7,0.7 1.1,0.4 1.3,0.3 0.4,0 m 1.5,-5.1 -1.5,0 m 1.5,-66.9 1.3,-0.2 1.1,-0.7 0.9,-0.9 0.5,-1.2 0.1,-1.3 -0.4,-1.3 -0.8,-1.1 -1,-0.7 -1.3,-0.4 -0.4,0 m -1.5,7.8 1.5,0 m -1.5,-7.8 -1.3,0.2 -1.2,0.7 -0.8,0.9 -0.5,1.3 -0.1,1.3 0.4,1.2 0.7,1.1 1.1,0.7 1.3,0.4 0.4,0 m 1.5,-7.8 -1.5,0 m 1.5,-76.1 1.3,-0.1 1.1,-0.6 0.9,-0.9 0.5,-1.1 0.1,-1.1 -0.4,-1.1 -0.8,-0.9 -1,-0.7 -1.3,-0.3 -0.4,0 m -1.5,6.8 1.5,0 m -1.5,-6.8 -1.3,0.2 -1.2,0.5 -0.8,0.9 -0.5,1 -0.1,1.2 0.4,1.1 0.7,0.9 1.1,0.7 1.3,0.3 0.4,0 m 1.5,-6.8 -1.5,0 m 1.5,-49.7 1.3,0 1.1,-0.3 0.9,-0.3 0.5,-0.5 0.1,-0.4 -0.4,-0.4 -0.8,-0.4 -1,-0.2 -1.3,-0.2 -0.4,0 m -1.5,2.7 1.5,0 m -1.5,-2.7 -1.3,0.1 -1.2,0.2 -0.8,0.3 -0.5,0.4 -0.1,0.5 0.4,0.4 0.7,0.4 1.1,0.3 1.3,0.1 0.4,0 m 1.5,-2.7 -1.5,0 m 1.5,241.5 0,6.9 m 3.9,0 -0.1,0 -0.2,0 -0.4,0 -0.4,0 -0.6,0 -0.7,0 -0.8,0 -0.7,0 m 3.9,0 0,-6.9 m -5.4,6.9 -0.8,0 -0.7,0 -0.7,0 -0.6,0 -0.5,0 -0.3,0 -0.3,0 m 3.9,-6.9 0,6.9 m -3.9,-6.9 0,6.9 M 35.1,7.7 38.7,5.9 m 5.1,0 0,8.7 m -5.1,-8.7 5.1,0 m 0,8.7 -11.6,0 m 6.5,-252.7 0,0.2 0,0.9 0,1.3 0,1.9 0,2.4 0,2.9 0,3.5 0,3.9 0,4.4 0,4.8 0,5.3 0,5.7 0,6 0,6.4 0,6.7 0,7.1 0,7.2 0,7.5 0,7.7 0,7.9 0,8 0,8.1 0,8.1 0,8.2 0,8.1 0,8.1 0,8 0,7.9 0,7.7 0,7.5 0,7.3 0,7 0,6.7 0,6.4 0,6 0,5.7 0,5.3 0,4.8 0,4.4 0,3.9 0,3.5 0,2.9 0,2.4 0,1.9 0,1.4 0,0.8 0,0.2 m 5.1,-244 -5.1,0 m 5.1,0 0,0.2 0,0.9 0,1.3 0,1.9 0,2.4 0,2.9 0,3.5 0,3.9 0,4.4 0,4.8 0,5.3 0,5.7 0,6 0,6.4 0,6.7 0,7.1 0,7.2 0,7.5 0,7.7 0,7.9 0,8 0,8.1 0,8.1 0,8.2 0,8.1 0,8.1 0,8 0,7.9 0,7.7 0,7.5 0,7.3 0,7 0,6.7 0,6.4 0,6 0,5.7 0,5.3 0,4.8 0,4.4 0,3.9 0,3.5 0,2.9 0,2.4 0,1.9 0,1.4 0,0.8 0,0.2 m -98.8,-36.5 29.6,0 m -29.6,-38.3 0,38.3 m -79.3,-38.3 79.3,0 m -79.3,24.3 0,-24.3 m 1.7,26 -1.7,-1.7 m 6.9,1.7 -5.2,0 m 5.2,-3.2 0,3.2 m 0.4,-3.6 -0.1,0 0,0.1 -0.1,0 -0.1,0 0,0.1 0,0.1 -0.1,0 0,0.1 m 4.5,-0.4 -4.1,0 m 4.5,0.4 0,-0.1 -0.1,-0.1 0,-0.1 -0.1,0 -0.1,-0.1 -0.1,0 m 0.4,3.6 0,-3.2 m 8.2,3.2 -8.2,0 m 10.6,2.4 -2.4,-2.4 m 2.4,2.4 0,0 m 43.1,0 -43.1,0 m 44.9,1.1 -0.1,-0.2 -0.2,-0.3 -0.2,-0.1 -0.2,-0.2 -0.3,-0.1 -0.3,-0.1 -0.2,-0.1 -0.3,0 m 14.1,22.3 -12.3,-21.2 m 14.4,21.2 -2.1,0 m 5.7,3.6 -0.1,-0.7 -0.2,-0.6 -0.3,-0.7 -0.5,-0.5 -0.5,-0.5 -0.7,-0.3 -0.6,-0.2 -0.7,-0.1 m 3.6,11.7 0,-8.1 m 49,8.1 -1.1,-0.6 -1.6,-0.9 -0.4,-0.1 -0.3,0 -0.5,0.2 -0.7,0.4 -1.4,0.8 -0.3,0.2 M 2,-3.2 0.1,-6.5 M 0.1,0 2,-3.2 m 15.1,-20.2 0,31.1 m 0,-31.1 -7.2,-7.2 m -22.4,0 22.4,0 m -25.2,1.7 2.8,-1.7 m -2.8,18.4 0,-16.7 m -7.2,16.7 7.2,0 m -7.2,-16.7 0,16.7 m -2.9,-18.4 2.9,1.7 M 22.9,14.6 0,14.6 m 38.7,-252.7 -3.6,-1.8 m -62.1,-1.1 0,-17.2 m -3.6,20.8 0.7,-0.1 0.7,-0.2 0.6,-0.3 0.5,-0.5 0.5,-0.5 0.3,-0.6 0.2,-0.7 0.1,-0.7 m -22,3.6 18.4,0 m -18.4,8.4 0,-8.4 m 33.7,8.4 -33.7,0 m 36.8,5.2 -3.1,-5.2 m 0,10.3 3.1,-5.1 m -3.1,20.5 0,-15.4 m 2.8,17.1 -2.8,-1.7 m 25.2,1.7 -22.4,0 m 22.4,0 7.2,-7.2 m 0,-31.1 0,31.1 m -29.9,-44.1 56.6,0 m -56.6,6.8 0,-6.8 m -6.7,6.8 6.7,0 m -6.7,-24.3 0,24.3 m -4.4,-26.8 4.4,2.5 m -10.8,-2.5 6.4,0 m -7.1,-0.7 0,0.1 0,0.2 0.1,0.1 0.1,0.1 0.1,0.1 0.1,0.1 0.1,0 0.2,0 m -0.7,-5.9 0,5.2 m -14.8,-5.2 14.8,0 m -14.8,6.2 0,-6.2 m 7.2,13.4 -1.4,-0.2 -1.4,-0.4 -1.2,-0.7 -1.1,-0.8 -0.9,-1.1 -0.7,-1.3 -0.4,-1.3 -0.1,-1.4 m 11.6,7.2 -4.4,0 m 11.6,7.2 -0.1,-1.4 -0.4,-1.4 -0.7,-1.2 -0.9,-1.1 -1.1,-0.9 -1.2,-0.7 -1.4,-0.4 -1.4,-0.1 m 78,12.5 0,14.8 m -33.9,36.5 0,0.3 0,0.7 0,1.4 0,1.8 0,2.3 0,2.8 0,3.3 0,3.7 0,4.2 0,4.5 0,5 0,5.2 0,5.6 0,5.9 0,6.1 0,6.3 0,6.4 0,6.6 0,6.7 0,6.7 0,6.7 0,6.7 0,6.6 0,6.4 0,6.3 0,6.1 0,5.9 0,5.6 0,5.2 0,5 0,4.5 0,4.2 0,3.7 0,3.3 0,2.8 0,2.3 0,1.9 0,1.3 0,0.8 0,0.2 m 7.2,7.2 0,-0.2 0,-0.9 0,-1.3 0,-1.9 0,-2.4 0,-2.9 0,-3.4 0,-3.9 0,-4.3 0,-4.7 0,-5.1 0,-5.5 0,-5.8 0,-6.1 0,-6.4 0,-6.6 0,-6.7 0,-6.9 0,-7.1 0,-7 0,-7.1 0,-7.1 0,-7 0,-7 0,-6.7 0,-6.6 0,-6.4 0,-6.1 0,-5.8 0,-5.5 0,-5.1 0,-4.7 0,-4.3 0,-3.9 0,-3.4 0,-2.9 0,-2.4 0,-1.9 0,-1.3 0,-0.8 0,-0.3 M 0,-6.4 l -0.5,0 -0.7,0 -0.9,0 -1.1,0 -1,0 -0.9,0 -0.8,0 -0.4,0 m -6.5,21 0,-0.7 M -49,5.2 -49,0 m 18.4,5.2 -18.4,0 m 22,3.6 -0.1,-0.7 -0.2,-0.7 -0.3,-0.6 -0.5,-0.5 -0.5,-0.5 -0.6,-0.3 -0.7,-0.2 -0.7,-0.1 m 3.6,20.9 0,-17.3 m -7.2,24.5 1.4,-0.2 1.4,-0.4 1.2,-0.7 1.1,-0.9 0.9,-1 0.7,-1.3 0.4,-1.3 0.1,-1.4 m -11.6,7.2 4.4,0 m -11.6,7.2 0.1,-1.5 0.4,-1.3 0.7,-1.2 0.9,-1.1 1.1,-0.9 1.2,-0.7 1.4,-0.4 1.4,-0.1 m -7.2,32.4 0,-25.2 m -7.2,32.4 1.4,-0.1 1.3,-0.4 1.3,-0.7 1.1,-0.9 0.9,-1.1 0.6,-1.2 0.4,-1.4 0.2,-1.4 m -38,7.2 30.8,0 m -30.8,0 -3.6,2.1 m 0,13.6 0,-13.6 m -6.8,13.6 6.8,0 m -6.8,-0.1 0,0.1 m -88.8,-0.1 88.8,0 m -88.8,8.3 0,-8.3 m 40,8.3 -40,0 m 40,-2.5 0,2.5 m 0,-2.5 60.9,0 m 3.7,-2.2 -3.7,2.2 m 3.7,-13.8 0,11.6 m 0.7,-12.3 -0.2,0 -0.1,0 -0.1,0.1 -0.1,0.1 -0.1,0.1 -0.1,0.1 0,0.1 0,0.2 m 43,-0.7 -42.3,0 m 46.7,-4.4 -4.4,4.4 m 4.4,-38.4 0,34 m 0.7,-34.7 -0.2,0 -0.1,0.1 -0.1,0 -0.1,0.1 -0.1,0.1 -0.1,0.1 0,0.2 0,0.1 m 7.1,-0.7 -6.4,0 m 10.8,-2.5 -4.4,2.5 m 4.4,-26.8 0,24.3 m 6.7,-24.3 -6.7,0 m 13.1,0.7 -6.4,0 m -2.5,-217.9 0,0.3 0,0.8 0,1.3 0,1.9 0,2.4 0,2.8 0,3.4 0,3.8 0,4.2 0,4.7 0,5 0,5.4 0,5.7 0,5.9 0,6.2 0,6.5 0,6.6 0,6.7 0,6.8 0,6.8 0,6.8 0,6.8 0,6.8 0,6.5 0,6.5 0,6.2 0,6 0,5.6 0,5.4 0,5.1 0,4.6 0,4.2 0,3.8 0,3.4 0,2.9 0,2.3 0,1.9 0,1.3 0,0.8 0,0.3 m 0,-191 0,-1.2 0,-1.4 0,-1.6 0,-1.5 0,-1.4 0,-1.1 0,-0.6 0,-0.3 m 0,10.3 0,0 0,-0.1 0,-0.1 0,-0.1 0,-0.2 0,-0.2 0,-0.2 0,-0.3 m -7.2,1.2 0,0 0,-0.1 0,-0.1 0,-0.1 0,-0.2 0,-0.2 0,-0.2 0,-0.3 m -26.5,1.2 0,-0.3 0,-0.9 0,-1.4 0,-1.6 0,-1.8 0,-1.7 0,-1.4 0,-0.9 0,-0.3 m 0,10.3 26.5,0 m 0,15.4 -2.9,1.7 m 2.9,-1.7 0,0.3 0,0.8 0,1.3 0,1.9 0,2.4 0,2.8 0,3.4 0,3.8 0,4.2 0,4.7 0,5 0,5.4 0,5.7 0,5.9 0,6.2 0,6.5 0,6.6 0,6.7 0,6.8 0,6.8 0,6.8 0,6.8 0,6.8 0,6.5 0,6.5 0,6.2 0,6 0,5.6 0,5.4 0,5.1 0,4.6 0,4.2 0,3.8 0,3.4 0,2.9 0,2.3 0,1.9 0,1.3 0,0.8 0,0.3 m -12.9,-283.1 4.4,4.4 m 5.6,106 -29.6,0 m 6,-16 0,-1.1 m -3.6,4.7 0.7,-0.1 0.6,-0.2 0.7,-0.3 0.5,-0.5 0.5,-0.5 0.3,-0.7 0.2,-0.6 0.1,-0.7 m -5.7,3.6 2.1,0 m -14.4,21.2 12.3,-21.2 m -14.1,22.3 0.3,0 0.2,-0.1 0.3,-0.1 0.3,-0.1 0.2,-0.1 0.2,-0.2 0.2,-0.2 0.1,-0.3 m -44.9,1.1 43.1,0 m -43.1,0 0,0 m -2.4,2.5 2.4,-2.5 m -10.6,2.5 8.2,0 m -8.2,3.1 0,-3.1 m -0.4,3.5 0.1,0 0.1,-0.1 0.1,0 0,-0.1 0.1,0 0,-0.1 0,-0.1 m -4.5,0.4 4.1,0 m -4.5,-0.4 0,0.1 0.1,0.1 0,0.1 0.1,0 0.1,0 0,0.1 0.1,0 m -0.4,-3.5 0,3.1 m -5.2,-3.1 5.2,0 m -6.9,1.6 1.7,-1.6 m -1.7,34.4 0,-32.8 m 79.3,32.8 -79.3,0 m 79.3,-46.8 0,46.8 m 32.5,-63.9 0,15.4 m -55.2,-108.7 42.3,0 m -10.4,39.4 0,0.2 0,0.8 0,1.3 0,1.9 0,2.3 0,2.9 0,3.4 0,3.8 0,4.3 0,4.8 0,5.2 0,4.3 m 0,242.6 0,4.3 0,5.2 0,4.8 0,4.3 0,3.8 0,3.4 0,2.9 0,2.3 0,1.9 0,1.3 0,0.8 0,0.3 m -32.6,-353.2 0,0.2 0,0.1 0.1,0.1 0.1,0.1 0.1,0.1 0.1,0.1 0.1,0 0.2,0 m -0.7,-12.3 0,11.6 m -3.7,-13.7 3.7,2.1 m -3.7,-2.1 -60.9,0 m 0,-2.6 0,2.6 m -40,-2.6 40,0 m -40,8.3 0,-8.3 m 88.8,8.3 -88.8,0 m 88.8,-0.1 0,0.1 m 6.8,-0.1 -6.8,0 m 6.8,13.6 0,-13.6 m 0,13.6 3.6,2.1 m 30.8,0 -30.8,0 m 37.7,5.1 -0.5,-1.1 -0.6,-1 -0.7,-0.9 -0.9,-0.7 -0.9,-0.6 -1.1,-0.5 -1.1,-0.2 -1.1,-0.1 m 22,5.1 -15.1,0 m 15.1,-7.6 0,7.6 m -15.1,0 0,0.1 0.2,1.1 0.1,1 m 0,0 0,1.7 0,2 0,2.2 0,2.4 0,2.4 0,2.2 0,2.1 0,1.7 0,1.2 0,0.8 0,0.3 m 14.8,-21.2 0,0.2 0,0.8 0,1.3 0,1.7 0,2 0,2.2 0,2.4 0,2.3 0,2.3 0,2 0,1.7 0,1.3 0,0.7 0,0.3 m -24,209.9 -79.3,0 m 0,0 0,0 m 79.3,0 0,0 m -79.3,-85.9 0,0 m 79.3,0 -79.3,0 m 79.3,0 0,0 m -32.4,-152.4 0,0.3 0,0.8 0,1.3 0,1.9 0,2.4 0,3 0,3.4 0,4 0,4.4 0,5 0,5.4 0,5.8 0,6.3 0,6.7 0,7.1 0,7.5 0,7.8 0,8.2 0,8.4 0,8.8 0,9 0,8 m 0,151.2 0,8 0,9 0,8.8 0,8.4 0,8.2 0,7.8 0,7.5 0,7.1 0,6.7 0,6.3 0,5.9 0,5.3 0,5 0,4.4 0,4 0,3.4 0,3 0,2.4 0,1.9 0,1.3 0,0.8 0,0.3 m -6.8,13.4 -88.8,0 m 0,0.1 0,0 0,-0.1 m 88.8,0.1 0,0 0,-0.1 m -88.8,-409 0,0 0,-0.1 m 88.8,0.1 -88.8,0 m 88.8,0 0,0 0,-0.1 m 78.9,169.4 -7.2,0 m 50.8,165.9 -1.5,0 m -81.8,-168.8 -79.3,0 m 0,0 0,-0.6 m 79.3,0.6 0,-0.6 M -183,87 l 0,0.3 0,0.3 0,0.2 0,0.2 0,0.2 0,0.1 0,0.1 m 88.8,-1.4 0,0.3 0,0.3 0,0.2 0,0.2 0,0.2 0,0.1 0,0.1 m -74.3,-407.6 0,-0.1 0,-0.1 0,-0.1 0,-0.1 0,-0.1 0,-0.1 0,-0.1 0,-0.1 m 8.3,0 0,0.1 0,0.1 0,0.1 0,0.1 0,0.1 0,0.1 0,0.1 0,0.1 m -22.8,0 0,-0.3 0,-0.2 0,-0.3 0,-0.2 0,-0.2 0,-0.1 0,-0.1 m 88.8,1.4 0,-0.3 0,-0.2 0,-0.3 0,-0.2 0,-0.2 0,-0.1 0,-0.1 m 81.4,341.2 56.6,0 m -56.6,0 0,-6 m 56.6,0 0,6 m -98.8,-91.3 -79.3,0 m 0,1.8 0,-0.1 0,-0.1 0,-0.1 0,-0.2 0,-0.3 0,-0.3 0,-0.4 0,-0.3 m 79.3,1.8 0,-0.1 0,-0.1 0,-0.1 0,-0.2 0,-0.3 0,-0.3 0,-0.4 0,-0.3 m -39.2,-240.4 -66,0 M -183,87 l 0,-8.1 m 14.5,-390 -14.5,0 m 0,-8.1 0,8.1 m 128,156.9 -79.3,0 m 0,0 0,0 m 79.3,0 0,0 m 0,76.5 -79.3,0 m 0,7 0,-7 m 79.3,7 0,-7 m -128,155 0,0.3 0,0.3 0,0.2 0,0.2 0,0.2 0,0.2 0,0.1 0,0.1 m 0,-390 0,0.1 0,0.2 0,0.1 0,0.2 0,0.2 0,0.3 0,0.2 0,0.3 m 128,229.8 -79.3,0 m 0,2 0,-2 m 79.3,2 0,-2 m 0,-72.8 -79.3,0 m 0,0 0,-1.7 m 79.3,1.7 0,-1.7 m 0,74.4 -79.3,0 m 0,0 0,0.1 m 79.3,-0.1 0,0.1 m 0,-72.7 -79.3,0 m 0,-0.1 0,0 0,0.1 m 79.3,-0.1 0,0 0,0.1 m 0,69.9 -79.3,0 m 0,2.7 0,-2.7 m 79.3,2.7 0,-2.7 m 0,-67.1 -79.3,0 m 0,0 0,-2.8 m 79.3,2.8 0,-2.8 m 0,69.8 -79.3,0 m 0,0 0,0 0,0.1 m 79.3,-0.1 0,0 0,0.1 m 0,-67.1 -79.3,0 m 0,0 0,0 m 79.3,0 0,0 m 0,63.2 -79.3,0 m 0,3.8 0,-3.8 m 79.3,3.8 0,-3.8 m 0,-59.4 -79.3,0 m 0,0 0,-3.8 m 79.3,3.8 0,-3.8 m 0,63.1 -79.3,0 m 0,0 0,0 0,0.1 m 79.3,-0.1 0,0 0,0.1 m 0,-59.3 -79.3,0 m 0,-0.1 0,0 0,0.1 m 79.3,-0.1 0,0 0,0.1 m 0,0.5 -79.3,0 m 0,0 0,-0.1 0,-0.1 0,-0.1 0,-0.1 0,-0.1 m 79.3,0.5 0,-0.1 0,-0.1 0,-0.1 0,-0.1 0,-0.1 m 0,58.7 -79.3,0 m 0,0.5 0,-0.1 0,-0.1 0,-0.1 0,-0.1 0,-0.1 m 79.3,0.5 0,-0.1 0,-0.1 0,-0.1 0,-0.1 0,-0.1 m 0,-4.3 -79.3,0 m 79.3,0.1 -79.3,0 m 0,-0.1 0,0 0,0.1 m 79.3,-0.1 0,0 0,0.1 m 0,4.2 -79.3,0 m 0,0 0,-4.2 m 79.3,4.2 0,-4.2 m 0,-50.4 -79.3,0 m 0,0 0,-3.6 m 79.3,3.6 0,-3.6 m 0,53.6 -79.3,0 m 0,0.3 0,-0.3 m 79.3,0.3 0,-0.3 m -79.3,4.6 0,0 m 79.3,0 0,0 m 0,-9.7 -79.3,0 m 79.3,4 -79.3,0 m 0,0 0,-4 m 79.3,4 0,-4 m 0,-0.1 -79.3,0 m 0,0 0,0 0,0.1 m 79.3,-0.1 0,0 0,0.1 m 0,-1.2 -79.3,0 m 0,1.1 0,-1.1 m 79.3,1.1 0,-1.1 m 0,5.2 -79.3,0 m 0,1.1 0,-0.2 0,-0.1 0,-0.1 0,-0.1 0,-0.2 0,-0.1 0,-0.1 0,-0.2 m 79.3,1.1 0,-0.2 0,-0.1 0,-0.1 0,-0.1 0,-0.2 0,-0.1 0,-0.1 0,-0.2 m -79.3,0 0,0 m 79.3,0 0,0 m 0,-10.1 -79.3,0 m 79.3,3.8 -79.3,0 m 0,0 0,-3.8 m 79.3,3.8 0,-3.8 m 0,-0.1 -79.3,0 m 0,0 0,0 0,0.1 m 79.3,-0.1 0,0 0,0.1 m 0,-1.9 -79.3,0 m 0,1.8 0,-1.8 m 79.3,1.8 0,-1.8 m 0,-27.8 -79.3,0 m 0,3.5 79.3,0 m -79.3,0 0,-3.5 m 79.3,3.5 0,-3.5 m 0,5 -79.3,0 m 0,0 0,-1.5 m 79.3,1.5 0,-1.5 m 0,30 -79.3,0 m 0,1.1 0,-0.1 0,-0.2 0,-0.1 0,-0.1 0,-0.2 0,-0.1 0,-0.2 0,-0.1 m 79.3,1.1 0,-0.1 0,-0.2 0,-0.1 0,-0.1 0,-0.2 0,-0.1 0,-0.2 0,-0.1 m 0,-10.4 -79.3,0 m 79.3,0.1 -79.3,0 m 0,-0.1 0,0 0,0.1 m 79.3,-0.1 0,0 0,0.1 m 0,3.4 -79.3,0 m 0,0 0,-3.4 m 79.3,3.4 0,-3.4 m 0,-13.6 -79.3,0 m 79.3,0.2 -79.3,0 m 0,-0.2 0,0 0,0.1 0,0.1 m 79.3,-0.2 0,0 0,0.1 0,0.1 m 0,-3.6 -79.3,0 m 0,3.4 0,-3.4 m 79.3,3.4 0,-3.4 m -79.3,27.3 0,0 m 79.3,0 0,0 m 0,-12.8 -79.3,0 m 0,2.4 0,-2.4 m 79.3,2.4 0,-2.4 m 0,-8.6 -79.3,0 m 0,0 0,-2.3 m 79.3,2.3 0,-2.3 m 0,-12.3 -79.3,0 m 0,0 0,-6.6 m 79.3,6.6 0,-6.6 m 0,25.4 -79.3,0 m 79.3,0.2 -79.3,0 m 0,-0.2 0,0.1 0,0.1 m 79.3,-0.2 0,0.1 0,0.1 m 0,2.9 -79.3,0 m 0,0 0,-2.9 m 79.3,2.9 0,-2.9 m 0,-3.1 -79.3,0 m 0,2.9 0,-2.9 m 79.3,2.9 0,-2.9 m -79.3,-7.2 0,-0.2 0,-0.1 0,-0.2 0,-0.1 0,-0.2 0,-0.1 0,-0.2 0,-0.1 m 79.3,1.2 0,-0.2 0,-0.1 0,-0.2 0,-0.1 0,-0.2 0,-0.1 0,-0.2 0,-0.1 m 0,21.6 -79.3,0 m 0,1.2 0,-0.1 0,-0.2 0,-0.1 0,-0.2 0,-0.1 0,-0.2 0,-0.1 0,-0.2 m 79.3,1.2 0,-0.1 0,-0.2 0,-0.1 0,-0.2 0,-0.1 0,-0.2 0,-0.1 0,-0.2 m -79.3,0 0,0 m 79.3,0 0,0 m -79.3,-13.2 0,-0.2 0,-0.1 0,-0.2 0,-0.1 0,-0.2 0,-0.1 0,-0.2 0,-0.2 m 79.3,1.3 0,-0.2 0,-0.1 0,-0.2 0,-0.1 0,-0.2 0,-0.1 0,-0.2 0,-0.2 m -79.3,8.6 0,-0.2 0,-0.1 0,-0.2 0,-0.2 0,-0.1 0,-0.2 0,-0.1 0,-0.2 m 79.3,1.3 0,-0.2 0,-0.1 0,-0.2 0,-0.2 0,-0.1 0,-0.2 0,-0.1 0,-0.2 m -79.3,-19.4 0,-0.2 0,-0.3 0,-0.3 0,-0.3 0,-0.3 0,-0.4 0,-0.3 0,-0.4 m 79.3,2.5 0,-0.2 0,-0.3 0,-0.3 0,-0.3 0,-0.3 0,-0.4 0,-0.3 0,-0.4 m -128,208.9 0,3.4 m 0,-386.8 0,3.5 m 0,375.1 0,0.7 0,0.7 0,0.6 0,0.6 0,0.6 0,0.5 0,0.6 0,0.5 m 0,-379.9 0,0.5 0,0.5 0,0.6 0,0.5 0,0.6 0,0.7 0,0.6 0,0.7 m 160.5,156.3 7.2,0 M -183,62.3 l 0,6.8 m 0,-14.5 0,1.1 0,1 0,1 0,1 0,0.9 0,0.9 0,1 0,0.8 m 0,-356.8 0,0.9 0,0.9 0,0.9 0,0.9 0,1 0,1 0,1 0,1.1 m 0,-14.5 0,6.8 m 211.3,116.5 1.5,-0.3 1.3,-0.7 0.6,-0.7 m -8.3,0 0.6,0.7 1.3,0.7 1.5,0.3 m 0,0 1.5,0 M -183,34.3 l 0,1.4 0,1.4 0,1.3 0,1.3 0,1.3 0,1.3 0,1.2 0,1.3 m 0,0 0,8.3 m 0,-338.4 0,8.4 m 0,0 0,1.2 0,1.2 0,1.3 0,1.3 0,1.3 0,1.4 0,1.3 0,1.4 m 0,319.6 0,0.3 0,0.3 0,0.3 0,0.4 0,0.2 m 0,-339.9 0,-0.3 0,-0.3 0,-0.3 0,-0.3 0,-0.3 m 211.3,188.3 0,1.2 m 3.9,3.4 -0.3,-1 -0.8,-1.3 -1.3,-0.8 -1.5,-0.3 m -1.5,0 -1.5,0.3 -1.3,0.8 -0.8,1.3 -0.3,1 m 3.9,-4.6 0,1.2 m 1.5,0 -1.5,0 M -183,34.3 l 0,0 0,-0.8 0,-0.8 0,-0.8 m 88.8,2.4 0,0 0,-0.8 0,-0.8 0,-0.8 m -88.8,-296 0,-0.8 0,-0.8 0,-0.8 m 88.8,2.4 0,-0.8 0,-0.8 0,-0.8 M -183,8.9 l 0,1.7 0,1.6 0,1.6 0,1.6 0,1.6 0,1.6 0,1.5 0,1.6 m 0,0 0,7.8 m 0,-291.2 0,7.8 m 0,0 0,1.6 0,1.5 0,1.6 0,1.6 0,1.6 0,1.6 0,1.6 0,1.7 m 0,270.6 0,0.3 0,0.3 0,0.4 0,0.3 0,0.3 0,0.3 0,0.3 0,0.2 m 0,-293.6 0,-0.3 0,-0.3 0,-0.4 0,-0.3 0,-0.3 0,-0.3 0,-0.3 0,-0.2 m 0,273 0,-0.8 0,-0.9 0,-0.9 0,-1 0,-0.9 0,-0.9 m 88.8,5.4 0,-0.8 0,-0.9 0,-0.9 0,-1 0,-0.9 0,-0.9 m -88.8,-239.1 0,-1 0,-0.9 0,-1 0,-0.9 0,-0.9 0,-0.8 m 88.8,5.5 0,-1 0,-0.9 0,-1 0,-0.9 0,-0.9 0,-0.8 m -88.8,235 0,7.1 m 0,-21.8 0,1.9 0,1.9 0,1.8 0,1.9 0,1.8 0,1.8 0,1.8 0,1.8 m 0,-220 0,1.8 0,1.8 0,1.8 0,1.8 0,1.9 0,1.8 0,1.9 0,1.9 m 0,-21.8 0,7.1 m 0,227.1 0,0.3 0,0.3 0,0.3 0,0.3 0,0.4 0,0.3 0,0.3 0,0.3 m 0,-236.7 0,-0.3 0,-0.3 0,-0.3 0,-0.3 0,-0.3 0,-0.4 0,-0.3 0,-0.2 m 0,181.9 0,2 0,2.1 0,2 0,2 0,2 0,2 0,2 0,2 m 0,0 0,6.1 m 0,-163.1 0,2 0,2 0,2 0,2 0,2 0,2 0,2.1 0,2 m 0,-22.2 0,6.1 m 0,173.8 0,-1 0,-1 0,-1.1 0,-1 0,-1 0,-1.1 0,-1 0,-1.1 m 88.8,8.3 0,-1 0,-1 0,-1.1 0,-1 0,-1 0,-1.1 0,-1 0,-1.1 m -88.8,-174 0,-1.1 0,-1 0,-1 0,-1.1 0,-1 0,-1.1 0,-1 0,-1 m 88.8,8.3 0,-1.1 0,-1 0,-1 0,-1.1 0,-1 0,-1.1 0,-1 0,-1 m -88.8,179.9 0,0.2 0,0.3 0,0.3 0,0.3 0,0.4 0,0.3 0,0.3 0,0.3 m 0,-171.6 0,-0.2 0,-0.3 0,-0.3 0,-0.3 0,-0.3 0,-0.4 0,-0.3 0,-0.3 m 0,149 0,0.4 m 0,-124.8 0,0.4 m 0,106.3 0,4.9 m 0,-21.8 0,2.1 0,2.1 0,2.2 0,2.1 0,2.1 0,2.1 0,2.1 0,2.1 m 0,-88.6 0,2.1 0,2.1 0,2.1 0,2.1 0,2.2 0,2.1 0,2.1 0,2.2 m 0,-21.9 0,4.9 m 0,69.7 0,2 m 0,-54.7 0,2 m 0,87.3 0,-0.1 0,-0.1 0,-0.1 0,-0.2 0,-0.2 0,-0.3 0,-0.2 0,-0.4 m 0,-122.4 0,0.1 0,0.1 0,0.1 0,0.2 0,0.2 0,0.3 0,0.3 0,0.3 m 0,51.8 0,2.1 0,2.2 0,2.1 0,2.2 0,2.2 0,2.1 0,2.2 0,2.1 m 0,0 0,3.5 m 0,-24.2 0,3.5 m 0,69 0,-1.1 0,-1.1 0,-1.1 0,-1.1 0,-1.1 0,-1.1 0,-1.2 0,-1.1 m 0,-103 0,-1.1 0,-1.1 0,-1.2 0,-1.1 0,-1.1 0,-1.1 0,-1.1 0,-1.1 m 0,109.6 0,0.2 0,0.2 0,0.3 0,0.3 0,0.3 0,0.4 0,0.3 0,0.3 m 0,-100.7 0,-0.2 0,-0.2 0,-0.3 0,-0.3 0,-0.3 0,-0.3 0,-0.4 0,-0.3 m 0,76.9 0,-0.1 0,-0.2 0,-0.2 0,-0.2 0,-0.3 0,-0.3 0,-0.3 0,-0.3 m 0,-48.8 0,0.1 0,0.1 0,0.2 0,0.2 0,0.3 0,0.3 0,0.3 0,0.3 m 0,35.6 0,0.2 0,0.2 0,0.2 0,0.3 0,0.3 0,0.3 0,0.3 0,0.4 m 0,-26.4 0,-0.2 0,-0.2 0,-0.2 0,-0.3 0,-0.3 0,-0.3 0,-0.3 0,-0.3 m 0,37.7 0,-1.1 0,-1.2 0,-1.2 0,-1.1 0,-1.2 0,-1.1 0,-1.2 0,-1.1 m 0,-28.5 0,-1.2 0,-1.2 0,-1.1 0,-1.2 0,-1.1 0,-1.2 0,-1.1 0,-1.2" connector-curvature="0" id="path1478" style="fill:none;stroke:#000000;stroke-width:0.70899999;stroke-linecap:round;stroke-linejoin:round;stroke-miterlimit:10;stroke-opacity:1;stroke-dasharray:none"/>
  </g>
</svg>
