<?xml version="1.0"?>
<svg xmlns="http://www.w3.org/2000/svg" width="2070" height="1530">
  <g transform="translate(509,444.3)">
    <path d="m 860.447,1012.968 -0.896,-0.337 -2.555,-0.874 -4.108,-1.122 -5.425,-0.902 -5.738,-0.197 -5.221,0.507 -4.611,0.973 -3.694,1.114 -2.041,0.734 -0.271,0.104 m 34.56,0 183.456,0 m 0,-1.502 0,0.35 0,0.305 0,0.258 0,0.212 0,0.165 0,0.118 0,0.07 0,0.024 m 11.52,-1.502 -11.52,0 m 11.52,0 0,-1.64 0,-2.21 0,-2.75 0,-3.252 0,-3.71 0,-4.118 0,-4.468 0,-4.759 0,-4.984 m -11.52,0 11.52,0 m -11.52,-23.041 0,2.838 0,2.874 0,2.898 0,2.91 0,2.911 0,2.898 0,2.874 0,2.838 m 11.52,-23.041 -11.52,0 m 11.52,0 0,-4.984 0,-4.759 0,-4.468 0,-4.118 0,-3.71 0,-3.252 0,-2.75 0,-2.21 0,-1.64 m -11.52,0 11.52,0 m -11.52,-1.502 0,0.023 0,0.071 0,0.118 0,0.165 0,0.212 0,0.258 0,0.305 0,0.35 m 0,-1.502 -118.368,0 m 0,0 -0.199,0.076 -1.638,0.598 -3.22,1.019 -4.762,1.098 -2.731,0.397 -2.982,0.232 -5.555,-0.137 -4.956,-0.742 -4.283,-1.088 -2.914,-0.962 m 0,0 -8.52,0 m -6.624,-0.491 0.368,0.053 1.063,0.136 1.65,0.161 2.06,0.116 1.483,0.025 m -6.624,-0.491 -85.824,0 m -6.624,0.491 2.179,-0.053 1.933,-0.137 1.484,-0.161 0.86,-0.116 0.168,-0.024 m -6.624,0.491 -5.472,0 m 0,89.336 0,-0.297 0,-0.888 0,-1.468 0,-2.027 0,-2.559 0,-3.059 0,-3.517 0,-3.928 0,-4.289 0,-4.591 0,-4.834 0,-5.012 0,-5.123 0,-5.168 0,-5.143 0,-5.051 0,-4.891 0,-4.667 0,-4.381 0,-4.037 0,-3.64 0,-3.194 0,-2.705 0,-2.183 0,-1.629 0,-1.055 m 0,89.336 46.656,0 m 17.28,-88.609 -2.738,0.055 -2.737,0.177 -2.501,0.299 -2.35,0.457 -2.118,0.643 -1.83,0.869 -1.442,1.105 -1.017,1.387 -0.48,1.494 -0.01,1.719 0.427,1.692 0.859,1.793 1.238,1.761 1.634,1.728 2.036,1.631 2.409,1.432 2.657,1.102 2.943,0.724 2.782,0.244 2.879,-0.186 2.58,-0.552 2.507,-0.911 2.332,-1.222 2.125,-1.502 1.874,-1.754 1.522,-1.927 1.033,-1.903 0.574,-1.921 0.064,-1.641 -0.393,-1.531 -0.787,-1.268 -1.2,-1.102 -1.591,-0.912 -1.978,-0.73 -2.352,-0.554 -2.701,-0.388 -3.001,-0.23 -3.249,-0.078 m 10.294,43.695 -2.352,-1.552 -2.646,-1.176 -2.733,-0.689 -2.903,-0.202 -2.674,0.282 -2.663,0.746 -2.445,1.14 -2.293,1.546 -2.11,1.965 -1.819,2.331 -1.423,2.59 -0.997,2.85 -0.459,2.708 0.01,2.781 0.445,2.47 0.875,2.381 1.254,2.148 1.651,1.947 2.052,1.708 2.424,1.407 2.665,1.022 2.948,0.641 2.78,0.201 2.872,-0.181 2.575,-0.514 2.5,-0.861 2.326,-1.201 2.116,-1.556 1.86,-1.937 1.505,-2.305 1.013,-2.48 0.552,-2.761 0.045,-2.615 -0.411,-2.716 -0.804,-2.518 -1.216,-2.456 -1.608,-2.297 -1.995,-2.081 -0.917,-0.766 m 65.088,0 -2.352,1.553 -2.646,1.176 -2.733,0.689 -2.903,0.202 -2.674,-0.282 -2.663,-0.746 -2.445,-1.14 -2.293,-1.546 -2.11,-1.965 -1.819,-2.331 -1.423,-2.59 -0.997,-2.85 -0.459,-2.708 0.01,-2.781 0.445,-2.47 0.875,-2.382 1.254,-2.147 1.651,-1.947 2.052,-1.708 2.424,-1.407 2.665,-1.022 2.948,-0.641 2.78,-0.201 2.872,0.181 2.575,0.514 2.5,0.861 2.326,1.201 2.116,1.555 1.86,1.938 1.505,2.305 1.013,2.48 0.552,2.761 0.045,2.615 -0.411,2.716 -0.804,2.518 -1.216,2.456 -1.608,2.297 -1.995,2.081 -0.917,0.765 m -10.294,23.382 5.474,0.815 4.851,2.223 3.949,3.327 2.459,3.886 0.489,3.513 -1.285,2.712 -2.873,1.955 -4.445,1.247 -2.703,0.362 -2.896,0.207 -5.661,0.016 -5.087,-0.443 -4.458,-1.042 -3.395,-1.938 -1.607,-2.868 0.328,-3.375 1.987,-3.518 3.57,-3.38 5.052,-2.632 3.064,-0.79 3.187,-0.277 m -15.96,-67.804 0,-12.534 m 33.24,-0.384 0,12.427 m 0,-12.427 -0.284,0.085 -1.861,0.524 -3.488,0.829 -4.924,0.816 -5.707,0.402 -5.593,-0.182 -5.022,-0.645 -4.151,-0.866 -2.21,-0.579 m -31.848,114.297 -0.925,-0.272 -2.649,-0.702 -4.201,-0.871 -5.404,-0.667 -5.746,-0.129 -5.357,0.422 -4.668,0.785 -3.564,0.851 -1.854,0.526 -0.192,0.057 m 34.56,0 0,-12.427 m -34.56,0 0,12.427 m -52.416,-9.005 -0.421,0.198 -4.544,1.349 -5.594,0.626 -5.679,-0.015 -5.168,-0.587 -4.44,-1.272 -3.229,-2.161 -1.409,-2.989 0.512,-3.42 2.213,-3.492 3.811,-3.214 5.179,-2.32 5.521,-0.778 5.544,0.785 4.915,2.163 2.789,2.084 m 0,-40.713 -2.254,2.292 -2.541,1.802 -2.818,1.326 -5.444,0.996 -5.468,-0.87 -4.889,-2.59 -4.003,-4.175 -2.505,-5.32 -0.564,-5.516 1.262,-4.996 2.904,-4.235 4.453,-3.204 5.553,-1.73 5.699,-0.061 5.208,1.429 4.498,2.865 0.909,0.884 m 0,-25.162 -4.433,0.955 -5.478,0.661 -5.711,0.055 -5.236,-0.52 -4.538,-0.88 -3.399,-0.907 -1.63,-0.507 -0.103,-0.034 m 0,0 -87.552,0 m 0,105.725 0,-0.29 0,-0.865 0,-1.432 0,-1.983 0,-2.512 0,-3.014 0,-3.482 0,-3.913 0,-4.3 0,-4.64 0,-4.93 0,-5.166 0,-5.345 0,-5.465 0,-5.526 0,-5.525 0,-5.465 0,-5.345 0,-5.166 0,-4.93 0,-4.64 0,-4.3 0,-3.913 0,-3.482 0,-3.014 0,-2.512 0,-1.983 0,-1.432 0,-0.865 0,-0.29 m 0,105.725 118.08,0 m 2.712,-104.624 -0.786,-0.115 -1.926,0.191 m 2.712,-14.382 0,14.306 m 0,-14.306 -0.962,0.226 -1.592,0.344 -2.004,0.381 -2.32,0.366 -2.658,0.319 -2.755,0.216 -2.952,0.101 -2.799,-0.03 -2.819,-0.153 -2.588,-0.249 -2.451,-0.33 -2.18,-0.369 -1.899,-0.38 -1.491,-0.334 -1.082,-0.263 -0.511,-0.13 -0.177,-0.046 m 0,13.536 0,-13.536 m 300.96,10.227 4.037,0 m 0,112.343 -4.037,0 m -183.456,1.169 183.456,0 m -251.424,0 33.408,0 m 51.264,-114.681 -84.672,0 m 91.296,0.384 -2.184,-0.042 -1.938,-0.107 -1.483,-0.127 -0.854,-0.089 -0.165,-0.019 m 15.144,0.384 -8.52,0 m 160.128,-0.384 -118.368,0 m -17.28,91.417 5.571,0.771 4.939,2.133 3.916,3.176 0.325,0.508 m -29.513,0.024 0.403,-0.606 3.902,-3.134 5.221,-2.193 5.236,-0.679 m 17.133,-49.857 -0.408,2.243 -0.931,2.618 -1.323,2.423 -1.74,2.261 -2.106,1.984 -2.474,1.66 -2.667,1.196 -2.924,0.734 -2.806,0.198 -2.884,-0.297 -2.643,-0.739 -2.555,-1.191 -2.329,-1.586 -2.099,-1.986 -1.765,-2.31 -1.396,-2.626 -0.898,-2.689 -0.301,-1.972 m -47.972,16.321 -2.786,0.237 -2.785,0.728 -2.548,1.147 -2.392,1.587 -2.106,1.949 -1.81,2.318 -1.39,2.543 -0.967,2.795 -0.339,2.054 m 34.26,-0.056 -0.473,-2.45 -0.936,-2.539 -1.369,-2.449 -1.754,-2.228 -2.149,-1.98 -2.45,-1.606 -2.771,-1.2 -2.549,-0.63 -2.686,-0.22 m -14.878,-41.194 0.406,0.527 1.74,1.656 2.106,1.498 2.475,1.285 2.667,0.943 2.923,0.587 2.807,0.159 2.884,-0.239 2.642,-0.589 2.555,-0.938 2.329,-1.226 2.099,-1.499 1.766,-1.692 0.385,-0.512 m -73.37,-25.295 -8.52,0 m 8.813,0 -0.293,0 m -116.064,132.466 116.357,0 m -42.053,-132.797 -74.304,0 m 91.584,108.108 5.609,0.748 4.974,2.082 3.731,2.961 m -28.61,0 0.166,-0.233 4.032,-3.001 5.273,-2.003 4.825,-0.551 m 17.039,-60.025 -1.307,4.714 -3.142,4.668 -4.629,3.556 -5.588,1.831 -5.71,-0.167 -5.238,-2.006 -4.404,-3.644 -3.062,-4.946 -0.934,-4.209 m -89.297,104.962 -0.123,-0.013 -0.377,-0.038 -0.602,-0.056 -0.841,-0.072 -1.016,-0.077 -1.216,-0.075 -1.318,-0.063 -1.457,-0.046 -1.466,-0.021 -1.523,0 -1.447,0.029 -1.418,0.053 -1.273,0.066 -1.162,0.078 -0.958,0.075 -0.777,0.069 -0.53,0.051 -0.298,0.03 -0.054,0.01 m 17.856,0 0,-16.351 m 0,0 -0.088,0.086 -0.77,0.605 -1.546,0.672 -1.916,0.181 m 0,0 -2.777,-0.125 -2.984,-0.014 -2.845,0.102 -2.404,0.174 -1.7,0.172 -0.786,0.093 -0.04,0 m 0,0 0,14.4 m 0,-158.487 0.256,0.032 1.179,0.132 2.021,0.182 2.65,0.154 2.964,0.055 2.928,-0.065 1.538,-0.083 m -13.536,-0.407 -88.992,0 m 0,0.52 0,-0.122 0,-0.105 0,-0.09 0,-0.073 0,-0.057 0,-0.04 0,-0.025 0,-0.008 m -11.52,0.52 11.52,0 m -11.52,143.047 0,-1.076 0,-1.655 0,-2.22 0,-2.766 0,-3.291 0,-3.787 0,-4.254 0,-4.685 0,-5.077 0,-5.428 0,-5.734 0,-5.993 0,-6.204 0,-6.362 0,-6.469 0,-6.523 0,-6.522 0,-6.469 0,-6.362 0,-6.204 0,-5.993 0,-5.734 0,-5.428 0,-5.078 0,-4.684 0,-4.254 0,-3.787 0,-3.291 0,-2.766 0,-2.22 0,-1.655 0,-1.076 m 11.52,143.047 -11.52,0 m 11.52,0.52 0,-0.01 0,-0.024 0,-0.04 0,-0.057 0,-0.074 0,-0.089 0,-0.106 0,-0.121 m 0,0.52 88.992,0 m 13.536,-143.68 1.845,0.163 1.622,0.693 0.799,0.634 0.054,0.053 m 0,0 0,-16.35 m -17.856,0 0.227,0.023 0.448,0.044 0.695,0.064 0.888,0.073 1.105,0.079 1.234,0.071 1.395,0.058 1.436,0.037 1.521,0.014 1.471,-0.013 1.47,-0.038 1.347,-0.057 1.262,-0.073 1.077,-0.076 0.916,-0.076 0.682,-0.062 0.463,-0.045 0.219,-0.023 m -17.856,0 0,14.4 m 17.856,158.487 7.205,0 m -114.053,0 88.992,0 m -88.992,-0.433 -11.52,0 m 0,-172.021 11.52,0 m 88.992,-0.433 -88.992,0 m 114.053,0 -7.205,0 m 223.2,29.103 0,12.427 m -85.824,-17.83 0,17.83 m 0,-17.83 -0.319,-0.151 -0.898,-0.436 -1.393,-0.703 -1.851,-0.985 -1.87,-1.049 m 7.483,3.989 -1.152,-0.665 m -6.331,129.142 7.483,-4.32 m -137.088,-128.362 -0.024,-0.519 -0.07,-0.516 -0.117,-0.507 -0.161,-0.494 -0.206,-0.478 -0.248,-0.457 -0.288,-0.433 -0.326,-0.406 m 0,140.186 0.326,-0.405 0.288,-0.433 0.248,-0.457 0.206,-0.478 0.161,-0.494 0.117,-0.507 0.07,-0.516 0.024,-0.519 m 5.765,20.16 7.483,-4.32 m 0,0 0,-15.725 m 123.84,-4.32 0,-4.738 m -13.248,-12.427 0,2.189 m -5.76,5.76 1.123,-0.111 1.081,-0.328 0.996,-0.532 0.873,-0.716 0.716,-0.873 0.532,-0.996 0.328,-1.08 0.111,-1.124 m -123.84,5.76 0,13.421 m -108.288,20.16 0,-14.4 m 121.536,-154.167 -7.483,-4.32 m 382.747,131.357 0,12.427 M 779.231,921.42 l -0.049,-0.752 -0.578,-1.886 -1.169,-1.579 -1.252,-0.91 m -2.712,25.238 2.219,3.174 1.66,5.317 0.14,2.774 -0.341,2.676 -1.752,4.413 -1.926,2.749 m 0,40.713 2.219,2.125 1.66,2.747 0.14,1.641 -0.341,1.835 -1.752,3.187 -1.926,1.508 m 19.008,-105.676 0,-4.738 m 251.424,4.738 0,12.427 m -388.512,-21.37 0,13.421 m 13.248,-13.536 0,-15.725 m -121.536,10.08 0,-14.4 m 232.128,39.809 0,2.212 m -243.648,130.433 0,-14.487 m 0,-143.047 0,-14.487 m 519.84,34.256 0,8.343 m -7.483,-12.76 4.773,2.815 2.71,1.602 m 0,103.509 -2.078,1.228 -5.405,3.189 m 7.483,-4.417 0,-8.343" connector-curvature="0" id="path1058" style="fill:none;stroke:#000000;stroke-width:0.70899999;stroke-linecap:round;stroke-linejoin:round;stroke-miterlimit:10;stroke-opacity:1;stroke-dasharray:none"/>
  </g>
</svg>
