<?xml version="1.0"?>
<svg xmlns="http://www.w3.org/2000/svg" width="2070" height="1530">
  <g transform="translate(509,444.3)">
    <path d="m 661.156,628.532 -125.573,0 m 0,-172.887 125.573,0 m 0,0 7.483,4.32 m 0,164.247 -7.483,4.32 m 123.84,-152.842 7.483,4.32 m 0,124.157 -7.483,4.32 m 0,0 -116.357,0 m 0,-132.797 116.357,0 m 258.907,123.739 -251.424,0 m 0,-114.681 251.424,0 m -382.747,-29.103 0,0.072 0,0.575 0,1.146 0,1.709 0,2.261 0,2.798 0,3.316 0,3.813 0,4.283 0,4.726 0,5.136 0,5.513 0,5.854 0,6.154 0,6.415 0,6.632 0,6.805 0,6.933 0,7.015 0,7.051 0,7.038 0,6.98 0,6.875 0,6.725 0,6.528 0,6.29 0,6.009 0,5.688 0,5.329 0,4.936 0,4.508 0,4.051 0,3.567 0,3.06 0,2.532 0,1.986 0,1.429 0,0.861 0,0.288 m -125.573,-95.084 0,-6.99 0,-6.887 0,-6.736 0,-6.541 0,-6.302 0,-6.022 0,-5.7 0,-5.342 0,-4.946 0,-4.519 0,-4.061 0,-3.576 0,-3.067 0,-2.538 0,-1.992 0,-1.432 0,-0.863 0,-0.289 m 0,77.803 11.52,0 m 0,0 0,2.156 0,2.159 0,2.162 0,2.163 0,2.164 0,2.162 0,2.159 0,2.155 m 0,0 -11.52,0 m 0,77.804 0,-0.289 0,-0.863 0,-1.432 0,-1.992 0,-2.538 0,-3.067 0,-3.576 0,-4.061 0,-4.519 0,-4.947 0,-5.341 0,-5.7 0,-6.022 0,-6.302 0,-6.541 0,-6.736 0,-6.887 0,-6.991 m 118.368,-8.64 -0.5,2.947 -1.443,2.614 -2.232,1.997 -2.775,1.148 -2.989,0.165 -2.865,-0.828 -2.435,-1.727 -1.735,-2.446 -0.828,-2.885 0.173,-2.985 1.143,-2.752 1.993,-2.229 2.629,-1.45 2.957,-0.497 2.941,0.506 2.609,1.446 1.993,2.234 1.145,2.777 0.219,1.965 m 14.688,82.124 0,-0.288 0,-0.862 0,-1.43 0,-1.988 0,-2.532 0,-3.058 0,-3.563 0,-4.043 0,-4.494 0,-4.914 0,-5.3 0,-5.648 0,-5.956 0,-6.224 0,-6.446 0,-6.625 0,-6.756 0,-6.84 0,-6.876 0,-6.865 0,-6.804 0,-6.696 0,-6.541 0,-6.341 0,-6.095 0,-5.807 0,-5.479 0,-5.111 0,-4.708 0,-4.273 0,-3.806 0,-3.313 0,-2.798 0,-2.262 0,-1.71 0,-1.147 0,-0.576 0,-0.072 m -133.056,73.483 0,-6.44 0,-6.316 0,-6.14 0,-5.914 0,-5.64 0,-5.318 0,-4.954 0,-4.548 0,-4.105 0,-3.629 0,-3.123 0,-2.59 0,-2.037 0,-1.468 0,-0.885 0,-0.296 m 0,144.087 0,-0.296 0,-0.885 0,-1.468 0,-2.037 0,-2.59 0,-3.123 0,-3.629 0,-4.105 0,-4.548 0,-4.954 0,-5.318 0,-5.64 0,-5.914 0,-6.14 0,-6.317 0,-6.44 m 255.744,-8.64 -0.319,-2.028 -0.898,-1.798 -1.393,-1.443 -1.851,-0.991 -1.87,-0.357 m 0,13.235 0,6.145 0,6.034 0,5.869 0,5.654 0,5.388 0,5.075 0,4.718 0,4.321 0,3.884 0,3.414 0,2.914 0,2.388 0,1.842 0,1.28 0,0.706 0,0.149 m 0,-132.797 0,0.149 0,0.706 0,1.28 0,1.842 0,2.388 0,2.914 0,3.414 0,3.884 0,4.32 0,4.719 0,5.075 0,5.388 0,5.653 0,5.87 0,6.033 0,6.146 m 7.483,68.696 0,-0.29 0,-0.867 0,-1.435 0,-1.991 0,-2.528 0,-3.041 0,-3.526 0,-3.977 0,-4.393 0,-4.766 0,-5.095 0,-5.378 0,-5.608 0,-5.788 0,-5.913 0,-5.982 0,-5.997 0,-5.955 0,-5.857 0,-5.705 0,-5.499 0,-5.243 0,-4.936 0,-4.585 0,-4.19 0,-3.756 0,-3.287 0,-2.788 0,-2.262 0,-1.715 0,-1.153 0,-0.578 0,-0.073 m -7.483,68.696 2.38,-0.557 2.103,-1.471 1.326,-2.013 0.507,-2.131 0.015,-0.446 m -15.144,6.624 8.52,0 m -8.52,-13.248 -0.962,-1.957 -3.596,-4.402 -4.978,-3.058 -5.707,-1.224 -5.618,0.695 -5.039,2.435 -4.079,4.032 -2.573,5.274 -0.688,4.829 0.937,5.613 2.689,4.978 4.236,3.898 5.394,2.316 5.755,0.388 5.412,-1.458 4.685,-3.137 3.507,-4.633 0.625,-1.341 m 8.52,-13.248 -8.52,0 m -15.96,72.937 5.609,-0.056 4.974,-0.238 3.902,-0.598 2.319,-1.144 0.39,-1.682 -1.462,-2.022 -3.142,-2.093 -4.629,-1.778 -5.588,-0.976 -5.71,0.09 -5.238,1.064 -4.404,1.805 -3.062,2.182 -1.224,2.054 0.694,1.57 2.441,1.019 4.032,0.548 5.273,0.215 4.825,0.04 m 0,-121.945 5.609,-0.522 4.974,-1.422 3.902,-2.022 2.319,-2.189 0.39,-1.873 -1.462,-1.33 -3.142,-0.804 -4.629,-0.386 -5.588,-0.123 -5.71,0.009 -5.238,0.143 -4.404,0.416 -3.062,0.897 -1.224,1.47 0.694,1.906 2.441,2.1 4.032,1.971 5.273,1.374 4.825,0.385 m 24.773,49.015 -0.293,-0.007 m 0,13.248 0.293,-0.006 m 98.779,0.006 8.52,0 m -15.144,-6.624 0.37,2.185 1.069,1.938 1.654,1.482 2.059,0.854 1.472,0.165 m 0,-13.248 -2.184,0.371 -1.938,1.068 -1.483,1.655 -0.854,2.059 -0.165,1.471 m 15.144,-6.624 -8.52,0 m 8.52,13.248 2.254,3.9 4.2,3.907 5.404,2.356 5.746,0.415 5.358,-1.404 4.668,-3.054 3.563,-4.586 1.854,-5.585 -0.091,-5.692 -1.861,-5.219 -3.488,-4.426 -4.924,-3.154 -5.707,-1.332 -5.593,0.588 -5.022,2.294 -4.151,3.902 -2.21,3.842 m -49.128,52.742 -5.571,-0.581 -4.94,-1.714 -3.916,-2.89 -2.357,-3.991 -0.419,-4.571 1.408,-4.59 3.063,-4.236 4.581,-3.379 5.59,-1.819 5.691,0.095 5.197,1.817 4.428,3.31 3.161,4.46 1.333,4.837 -0.585,4.431 -2.305,3.708 -3.903,2.845 -5.221,1.757 -5.235,0.511 m 0,-64.275 -2.786,-0.225 -2.785,-0.688 -2.548,-1.078 -2.392,-1.481 -2.106,-1.8 -1.81,-2.112 -1.39,-2.284 -0.967,-2.467 -0.447,-2.35 0.028,-2.368 0.478,-2.111 0.93,-2.001 1.323,-1.761 1.74,-1.566 2.106,-1.313 2.475,-1.057 2.667,-0.736 2.923,-0.443 2.807,-0.118 2.884,0.178 2.642,0.446 2.555,0.735 2.329,1.01 2.099,1.316 1.766,1.602 1.395,1.916 0.898,2.068 0.435,2.314 -0.059,2.264 -0.526,2.371 -0.936,2.246 -1.369,2.2 -1.754,2.032 -2.149,1.829 -2.45,1.498 -2.771,1.13 -2.549,0.595 -2.686,0.209 m 65.088,75.496 2.785,-0.002 2.786,-0.014 2.548,-0.04 2.391,-0.093 2.106,-0.175 1.81,-0.296 1.391,-0.437 0.967,-0.618 0.447,-0.741 -0.028,-0.915 -0.478,-0.972 -0.931,-1.076 -1.323,-1.088 -1.74,-1.092 -2.106,-1.019 -2.474,-0.895 -2.667,-0.669 -2.924,-0.421 -2.806,-0.115 -2.884,0.172 -2.643,0.423 -2.555,0.664 -2.329,0.854 -2.099,1.019 -1.765,1.115 -1.396,1.171 -0.898,1.093 -0.435,1.036 0.059,0.844 0.527,0.722 0.935,0.546 1.37,0.414 1.753,0.282 2.149,0.177 2.451,0.093 2.77,0.04 2.55,0.011 2.686,0.002 m 0,-103.998 2.785,-0.137 2.786,-0.417 2.548,-0.642 2.391,-0.857 2.106,-1.004 1.81,-1.123 1.391,-1.142 0.967,-1.143 0.447,-0.994 -0.028,-0.898 -0.478,-0.704 -0.931,-0.571 -1.323,-0.416 -1.74,-0.293 -2.106,-0.183 -2.474,-0.099 -2.667,-0.041 -2.924,-0.014 -2.806,-0.002 -2.884,0.004 -2.643,0.014 -2.555,0.044 -2.329,0.096 -2.099,0.184 -1.765,0.301 -1.396,0.46 -0.898,0.603 -0.435,0.79 0.059,0.877 0.527,1.019 0.935,1.051 1.37,1.104 1.753,1.082 2.149,1.02 2.451,0.869 2.77,0.673 2.55,0.361 2.686,0.128 m 135.648,-9.512 0,-0.511 0,-0.365 0,-0.22 0,-0.073 m 0,114.681 0,-0.073 0,-0.22 0,-0.365 0,-0.511 m 0,0 4.037,0 m 0,-44.652 0,5.88 0,5.684 0,5.425 0,5.105 0,4.727 0,4.297 0,3.818 0,3.296 0,2.738 0,2.148 0,1.534 m 0,-44.652 -4.037,0 m 0,0 0,-2.854 0,-2.876 0,-2.891 0,-2.899 0,-2.898 0,-2.891 0,-2.876 0,-2.855 m 0,0 4.037,0 m 0,-44.651 0,1.534 0,2.148 0,2.738 0,3.296 0,3.818 0,4.297 0,4.727 0,5.105 0,5.425 0,5.684 0,5.879 m 0,-44.651 -4.037,0 m 4.037,44.651 4.773,0 2.71,0 m 0,0 0,-5.776 0,-5.554 0,-5.262 0,-4.901 0,-4.478 0,-3.997 0,-3.466 0,-2.89 0,-2.276 0,-1.634 m 0,0 -2.71,-1.602 -4.773,-2.815 m 0,112.343 4.773,-2.816 2.71,-1.601 m 0,0 0,-1.634 0,-2.276 0,-2.89 0,-3.466 0,-3.997 0,-4.478 0,-4.901 0,-5.262 0,-5.554 0,-5.777 m 0,0 -2.71,0 -4.773,0 m -221.414,-41.446 0.704,-1.583 1.238,-1.694 1.634,-1.496 2.036,-1.278 2.409,-1.028 2.657,-0.734 2.943,-0.457 2.782,-0.15 2.879,0.114 2.58,0.346 2.507,0.595 2.332,0.851 2.125,1.13 1.874,1.452 1.522,1.782 1.033,1.983 0.05,0.196 m -16.664,68.245 -5.475,-0.509 -4.851,-1.517 -3.948,-2.671 -2.238,-3.533 m 32.99,-0.05 -1.606,2.938 -3.569,2.826 -5.053,1.844 -3.001,0.497 -3.249,0.175 m -88.239,-22.089 5.295,-0.874 5.225,0.867 m -0.289,-32.612 -2.247,0.763 -5.679,-0.051 -2.229,-0.768 m 163.197,2.562 -1.327,1.082 -2.703,1.291 -2.896,0.814 -5.661,0.066 -5.087,-1.682 -2.318,-1.665 m 10.046,24.336 5.474,0.932 4.616,2.458 m -20.143,0.144 3.802,-2.312 3.064,-0.906 3.187,-0.316 m -65.088,23.7 -2.738,0.153 -2.737,0.464 -2.501,0.709 -2.309,0.92 m 20.366,-0.056 -1.13,-0.509 -2.701,-0.874 -3.001,-0.591 -3.249,-0.216 m -10.206,-70.416 1.694,0.726 2.665,0.81 2.948,0.533 2.78,0.172 2.872,-0.155 2.575,-0.43 2.5,-0.691 2.326,-0.909 0.114,-0.058 m -74.204,42.954 0,-1.464 0,-5.16 0,-5.159 0,-1.465" connector-curvature="0" id="path1042" style="fill:none;stroke:#000000;stroke-width:0.70899999;stroke-linecap:round;stroke-linejoin:round;stroke-miterlimit:10;stroke-opacity:1;stroke-dasharray:none"/>
  </g>
</svg>
