<?xml version="1.0"?>
<svg xmlns="http://www.w3.org/2000/svg" width="2070" height="1530">
  <g transform="translate(509,444.3)">
    <path d="M 0,0 56.512,-32.624 M 48.069,40.937 29.741,51.518 M 86.253,18.894 57.233,35.647 M 92.414,1.75 l 0,3.527 M -5.278,4.967 -4.072,4.271 M 24.005,52.909 22.8,53.605 M -25.201,14.548 -6.109,3.527 M 23.631,55.045 4.54,66.067 m -14.874,-1.475 -1.527,-0.882 m -19.502,-33.78 0,-1.764 m 100.073,-59.778 -1.309,-0.181 -1.267,-0.04 -1.215,0.1 -1.158,0.24 -1.094,0.379 -1.022,0.516 -0.944,0.648 -0.861,0.778 -0.772,0.903 -0.679,1.022 -0.582,1.135 -0.481,1.241 -0.377,1.339 -0.271,1.43 -0.163,1.512 -0.055,1.584 0.055,1.647 0.163,1.7 0.271,1.743 0.377,1.775 0.481,1.796 0.582,1.807 0.679,1.806 0.772,1.794 0.861,1.772 0.944,1.739 1.022,1.696 1.094,1.641 1.158,1.578 1.215,1.503 1.267,1.422 1.309,1.33 m 0,-39.355 -2.645,-1.672 -0.41,-0.256 m 0,0 -1.44,-0.295 -1.403,-0.156 -1.358,-0.015 -1.307,0.125 -1.249,0.265 -1.184,0.403 -1.114,0.539 -1.037,0.673 -0.955,0.803 -0.869,0.929 -0.777,1.05 -0.682,1.166 -0.583,1.275 -0.481,1.378 -0.377,1.475 -0.271,1.562 -0.163,1.643 -0.054,1.714 0.054,1.777 0.163,1.831 0.271,1.875 0.377,1.909 0.481,1.934 0.583,1.949 0.682,1.953 0.777,1.947 0.869,1.932 0.955,1.906 1.037,1.87 1.114,1.825 1.184,1.771 1.249,1.707 1.307,1.634 1.358,1.553 1.403,1.463 1.44,1.368 m 0,0 3.055,-5.455 m -74.871,5.875 0.053,1.763 0.161,1.817 0.266,1.86 0.372,1.894 0.474,1.919 0.574,1.933 0.672,1.938 0.766,1.933 0.857,1.919 0.942,1.894 1.023,1.859 1.099,1.816 1.169,1.762 1.233,1.701 1.291,1.63 1.343,1.551 1.387,1.464 1.424,1.37 1.455,1.269 1.477,1.161 1.493,1.047 1.5,0.928 1.501,0.804 1.493,0.676 1.477,0.545 1.455,0.411 1.424,0.275 1.387,0.138 1.343,-0.001 1.291,-0.14 1.233,-0.277 1.169,-0.413 1.098,-0.546 M 0,0 l -0.001,0.001 -1.023,0.678 -0.942,0.806 -0.857,0.93 -0.766,1.049 -0.672,1.162 -0.574,1.27 -0.474,1.371 -0.372,1.466 -0.266,1.552 -0.161,1.631 -0.053,1.702 m 83.271,-40.545 -1.408,-1.213 -1.428,-1.111 -1.443,-1.006 -1.449,-0.894 -1.449,-0.779 -1.442,-0.66 -1.428,-0.537 -1.408,-0.413 m 11.455,53.35 1.44,0.296 1.403,0.156 1.358,0.015 1.307,-0.125 1.249,-0.265 1.184,-0.403 1.114,-0.539 1.037,-0.673 0.955,-0.803 0.869,-0.929 0.777,-1.05 0.682,-1.166 0.583,-1.275 0.481,-1.379 0.377,-1.474 0.271,-1.562 0.163,-1.643 0.054,-1.714 m -26.759,7.921 1.408,1.212 1.428,1.112 1.442,1.006 1.449,0.894 1.449,0.779 1.443,0.659 1.428,0.538 1.408,0.412 M 52.7,37.006 51.513,37.691 m 0,0 -0.802,1.046 -0.894,0.92 -0.983,0.791 -1.066,0.656 -1.143,0.519 -1.215,0.378 -1.279,0.236 -1.337,0.092 -1.389,-0.052 -1.432,-0.196 -1.467,-0.338 -1.496,-0.48 -1.517,-0.618 -1.528,-0.754 -1.533,-0.885 -1.528,-1.011 -1.516,-1.132 -1.496,-1.248 -1.468,-1.356 -1.432,-1.457 -1.388,-1.551 -1.338,-1.636 -1.279,-1.713 -1.215,-1.781 -1.143,-1.838 -1.066,-1.887 -0.982,-1.925 -0.895,-1.954 -0.802,-1.971 m 0,0 9.165,-5.29 m 0,0 0.801,1.971 0.895,1.953 0.982,1.926 1.066,1.887 1.143,1.838 1.215,1.781 1.279,1.712 1.338,1.637 1.388,1.551 1.432,1.457 1.468,1.356 1.496,1.248 1.516,1.132 1.528,1.011 1.533,0.885 1.528,0.753 1.517,0.619 1.496,0.479 1.468,0.339 1.431,0.196 1.389,0.052 1.337,-0.092 1.279,-0.236 1.215,-0.378 1.143,-0.519 0.301,-0.167 M 68.71,7.743 l 0,-39.355 m 8.4,4.685 0,46.737 m -8.019,-27.997 0.054,0.599 0.158,0.634 0.256,0.638 0.34,0.612 0.41,0.557 0.46,0.478 0.489,0.375 0.495,0.254 0.477,0.123 0.438,-0.016 0.378,-0.152 0.299,-0.282 0.208,-0.4 0.107,-0.497 0,-0.572 -0.107,-0.62 -0.208,-0.639 -0.299,-0.629 -0.378,-0.588 -0.438,-0.521 -0.477,-0.428 -0.495,-0.317 -0.489,-0.19 -0.46,-0.054 -0.41,0.085 -0.34,0.218 -0.256,0.343 -0.158,0.451 -0.054,0.538 m 11.074,22.543 -2.645,4.726 -0.41,0.728 m 3.055,-44.809 0,39.355 m -3.055,-41.283 3.055,1.928 m 0,39.355 1.308,0.181 1.267,0.04 1.215,-0.1 1.158,-0.24 1.094,-0.379 1.022,-0.516 0.944,-0.648 0.861,-0.779 0.772,-0.902 0.679,-1.022 0.582,-1.135 0.481,-1.241 0.377,-1.339 0.271,-1.43 0.163,-1.512 0.055,-1.584 -0.055,-1.647 -0.163,-1.7 -0.271,-1.743 -0.377,-1.775 -0.481,-1.796 -0.582,-1.807 -0.679,-1.806 -0.772,-1.794 -0.861,-1.773 -0.944,-1.739 -1.022,-1.695 -1.094,-1.641 -1.158,-1.578 -1.215,-1.504 -1.267,-1.421 -1.308,-1.33 m -28.652,62.69 -1.278,-0.737 m -23.653,-13.655 1.009,1.253 1.06,1.168 1.1,1.074 1.132,0.969 1.153,0.856 1.163,0.735 1.163,0.608 1.152,0.475 1.132,0.337 1.1,0.197 0.075,0.008 M 26.582,23.299 14.884,16.546 m 12.119,5.086 -0.048,0.029 -0.207,0.152 -0.165,0.176 -0.113,0.184 -0.068,0.196 -0.023,0.305 0.064,0.313 0.139,0.312 m 2.206,-2.697 -1.785,1.03 m -38.098,-3.808 0.053,1.704 0.159,1.756 0.263,1.799 0.367,1.832 0.469,1.856 0.567,1.869 0.663,1.872 0.756,1.866 0.843,1.849 0.928,1.823 1.007,1.787 1.08,1.741 1.148,1.686 1.209,1.622 1.265,1.55 1.313,1.469 1.355,1.38 1.389,1.285 1.416,1.181 1.434,1.072 1.447,0.958 1.45,0.837 1.447,0.713 1.434,0.584 1.416,0.453 1.389,0.319 1.355,0.184 1.313,0.047 1.265,-0.089 1.209,-0.226 1.148,-0.361 1.08,-0.494 0.258,-0.143 M -5.278,4.967 -6.027,5.448 -6.955,6.2 l -0.843,0.875 -0.756,0.994 -0.663,1.106 -0.567,1.214 -0.469,1.315 -0.367,1.408 -0.263,1.495 -0.159,1.573 -0.053,1.644 m -1.176,-0.679 0.054,1.763 0.16,1.817 0.267,1.86 0.371,1.894 0.474,1.918 0.575,1.934 0.672,1.938 0.766,1.933 0.856,1.919 0.942,1.893 1.023,1.86 1.099,1.816 1.169,1.762 1.233,1.701 1.292,1.63 1.342,1.551 1.387,1.464 1.425,1.37 1.454,1.269 1.478,1.16 1.493,1.047 1.5,0.928 1.5,0.805 1.493,0.676 1.478,0.545 1.454,0.411 1.425,0.275 1.387,0.137 1.342,-10e-4 1.292,-0.139 1.233,-0.277 1.169,-0.413 1.099,-0.547 1.023,-0.678 0.942,-0.806 0.771,-0.828 M -2.738,2.313 l -1.105,0.255 -1.169,0.413 -1.099,0.547 -1.023,0.678 -0.942,0.806 -0.856,0.93 -0.766,1.048 -0.672,1.163 -0.575,1.27 -0.474,1.371 -0.371,1.466 -0.267,1.552 -0.16,1.631 -0.054,1.702 m -19.092,11.021 0.054,1.764 0.161,1.816 0.266,1.86 0.371,1.894 0.475,1.919 0.574,1.933 0.672,1.939 0.766,1.933 0.856,1.918 0.942,1.894 1.024,1.859 1.098,1.816 1.169,1.763 1.234,1.701 1.291,1.63 1.342,1.551 1.387,1.464 1.425,1.37 1.455,1.268 1.477,1.161 1.493,1.047 1.5,0.928 1.5,0.804 1.493,0.677 1.478,0.545 1.454,0.411 1.425,0.275 1.387,0.137 1.343,-0.001 1.291,-0.139 1.233,-0.277 1.169,-0.413 1.098,-0.546 m -29.741,-51.519 -0.001,10e-4 -1.024,0.678 -0.942,0.806 -0.856,0.93 -0.766,1.049 -0.672,1.162 -0.574,1.27 -0.475,1.372 -0.371,1.465 -0.266,1.552 -0.161,1.632 -0.054,1.701 m 0,1.764 0.054,1.694 0.159,1.746 0.265,1.789 0.369,1.822 0.471,1.845 0.57,1.858 0.666,1.861 0.759,1.853 0.847,1.836 0.931,1.808 1.01,1.771 1.083,1.723 1.15,1.667 1.211,1.602 1.266,1.527 1.313,1.444 1.354,1.354 1.386,1.256 1.412,1.151 1.429,1.04 1.439,0.923 0.358,0.21" connector-curvature="0" id="path896" style="fill:none;stroke:#000000;stroke-width:0.70899999;stroke-linecap:round;stroke-linejoin:round;stroke-miterlimit:10;stroke-opacity:1;stroke-dasharray:none"/>
  </g>
</svg>
