<?xml version="1.0" standalone="no"?>
<!DOCTYPE svg PUBLIC "-//W3C//DTD SVG 20010904//EN"
 "http://www.w3.org/TR/2001/REC-SVG-20010904/DTD/svg10.dtd">
<svg version="1.0" xmlns="http://www.w3.org/2000/svg"
 width="256.000000pt" height="256.000000pt" viewBox="0 0 256.000000 256.000000"
 preserveAspectRatio="xMidYMid meet">
<metadata>
Created by potrace 1.13, written by Peter Selinger 2001-2015
</metadata>
<g transform="translate(0.000000,256.000000) scale(0.100000,-0.100000)"
fill="#000000" stroke="none">
<path d="M1063 2440 c-49 -22 -76 -60 -100 -140 l-16 -55 -13 31 c-23 57 -103
130 -167 153 -113 41 -262 22 -284 -36 -9 -22 33 -54 103 -78 31 -11 76 -32
101 -47 24 -15 48 -28 53 -28 5 0 30 -25 56 -55 49 -57 116 -100 140 -91 9 3
14 -2 14 -14 0 -17 -4 -18 -32 -12 -18 4 -85 7 -148 6 -98 0 -127 -5 -195 -28
-258 -88 -448 -304 -526 -596 -33 -122 -33 -348 0 -470 78 -292 268 -507 526
-596 70 -25 95 -28 205 -28 93 -1 140 4 184 17 52 16 67 17 130 6 134 -22 262
1 399 73 86 45 219 181 276 281 142 252 169 562 72 844 -84 243 -258 424 -481
499 -68 23 -254 26 -313 5 -21 -7 -41 -10 -45 -6 -4 4 -7 55 -7 114 0 101 2
110 28 150 31 46 80 81 115 81 15 0 22 6 22 20 0 26 -40 26 -97 0z"/>
</g>
</svg>
