<?xml version="1.0" standalone="no"?>
<!DOCTYPE svg PUBLIC "-//W3C//DTD SVG 20010904//EN"
 "http://www.w3.org/TR/2001/REC-SVG-20010904/DTD/svg10.dtd">
<svg version="1.0" xmlns="http://www.w3.org/2000/svg"
 width="256.000000pt" height="256.000000pt" viewBox="0 0 256.000000 256.000000"
 preserveAspectRatio="xMidYMid meet">
<metadata>
Created by potrace 1.13, written by Peter Selinger 2001-2015
</metadata>
<g transform="translate(0.000000,256.000000) scale(0.100000,-0.100000)"
fill="#000000" stroke="none">
<path d="M558 2400 c-46 -28 -68 -68 -68 -121 0 -16 50 -54 102 -77 44 -19
155 -42 202 -42 67 0 156 -20 206 -46 54 -28 78 -48 108 -91 l23 -33 -40 0
c-126 0 -317 -47 -442 -110 -262 -130 -434 -331 -516 -597 -24 -79 -26 -104
-26 -238 0 -134 2 -159 26 -238 132 -432 535 -711 1020 -707 50 0 144 -2 208
-6 483 -28 916 277 1041 733 31 112 31 344 0 456 -124 453 -557 760 -1036 734
-61 -4 -122 -9 -135 -13 -24 -7 -24 -7 -18 56 7 86 46 144 100 148 30 3 37 7
37 24 0 19 -4 20 -47 15 -38 -4 -52 -12 -80 -43 -43 -50 -73 -106 -74 -141 -1
-21 -3 -17 -10 16 -16 83 -85 171 -202 260 -103 77 -140 91 -244 91 -80 0 -92
-3 -135 -30z"/>
</g>
</svg>
