<?xml version="1.0" standalone="no"?>
<!DOCTYPE svg PUBLIC "-//W3C//DTD SVG 20010904//EN"
 "http://www.w3.org/TR/2001/REC-SVG-20010904/DTD/svg10.dtd">
<svg version="1.0" xmlns="http://www.w3.org/2000/svg"
 width="256.000000pt" height="256.000000pt" viewBox="0 0 256.000000 256.000000"
 preserveAspectRatio="xMidYMid meet">
<metadata>
Created by potrace 1.13, written by Peter Selinger 2001-2015
</metadata>
<g transform="translate(0.000000,256.000000) scale(0.100000,-0.100000)"
fill="#000000" stroke="none">
<path d="M765 2506 c-45 -20 -92 -73 -110 -124 -12 -36 -12 -48 -3 -54 7 -5
69 -7 138 -4 69 3 134 1 145 -4 15 -6 8 -9 -30 -9 -78 -2 -119 -18 -169 -66
-44 -44 -66 -92 -66 -145 0 -41 49 -63 150 -68 79 -4 88 -2 115 20 68 55 164
94 178 71 3 -4 8 -42 12 -83 l7 -75 -89 3 c-357 14 -699 -215 -836 -559 -48
-121 -61 -193 -61 -344 0 -257 75 -448 247 -631 210 -223 506 -317 797 -253
70 15 135 21 245 23 179 2 246 16 390 86 175 84 305 214 395 395 76 151 93
229 93 410 0 181 -17 259 -93 410 -90 181 -220 311 -395 395 -55 27 -129 56
-165 65 -124 31 -286 31 -417 -2 -22 -5 -23 -2 -23 53 0 71 17 103 98 183 61
60 169 121 215 121 24 0 26 2 18 19 -9 16 -17 18 -45 11 -31 -7 -112 -41 -146
-61 -8 -5 -34 -18 -57 -29 -43 -21 -92 -72 -116 -123 -14 -28 -14 -26 -19 45
-7 96 -41 177 -102 245 -67 74 -107 93 -198 93 -40 -1 -86 -7 -103 -14z"/>
</g>
</svg>
