<?xml version="1.0" standalone="no"?>
<!DOCTYPE svg PUBLIC "-//W3C//DTD SVG 20010904//EN"
 "http://www.w3.org/TR/2001/REC-SVG-20010904/DTD/svg10.dtd">
<svg version="1.0" xmlns="http://www.w3.org/2000/svg"
 width="256.000000pt" height="256.000000pt" viewBox="0 0 256.000000 256.000000"
 preserveAspectRatio="xMidYMid meet">
<metadata>
Created by potrace 1.13, written by Peter Selinger 2001-2015
</metadata>
<g transform="translate(0.000000,256.000000) scale(0.100000,-0.100000)"
fill="#000000" stroke="none">
<path d="M800 2515 c-11 -13 -11 -20 -2 -33 7 -10 19 -30 27 -47 24 -51 58
-84 100 -98 l40 -14 -70 -12 c-363 -61 -640 -325 -742 -706 -39 -146 -39 -374
0 -520 101 -376 376 -642 731 -704 77 -14 189 -14 257 0 30 6 122 12 204 13
167 2 232 16 351 71 382 176 602 621 529 1070 -54 331 -249 601 -529 730 -116
54 -186 69 -326 69 -69 1 -137 -2 -152 -7 -24 -6 -28 -4 -28 12 0 53 41 81
120 81 38 0 50 4 50 15 0 11 -12 15 -52 15 -71 0 -121 -15 -159 -48 -18 -15
-34 -22 -36 -17 -13 39 -44 83 -76 109 -35 28 -45 30 -130 34 -78 4 -95 2
-107 -13z"/>
</g>
</svg>
