<?xml version="1.0" standalone="no"?>
<!DOCTYPE svg PUBLIC "-//W3C//DTD SVG 20010904//EN"
 "http://www.w3.org/TR/2001/REC-SVG-20010904/DTD/svg10.dtd">
<svg version="1.0" xmlns="http://www.w3.org/2000/svg"
 width="256.000000pt" height="256.000000pt" viewBox="0 0 256.000000 256.000000"
 preserveAspectRatio="xMidYMid meet">
<metadata>
Created by potrace 1.13, written by Peter Selinger 2001-2015
</metadata>
<g transform="translate(0.000000,256.000000) scale(0.100000,-0.100000)"
fill="#000000" stroke="none">
<path d="M1118 2393 c-18 -4 -26 -23 -10 -23 8 0 10 -4 64 -115 40 -81 68
-173 68 -222 l0 -30 -137 -6 c-463 -19 -822 -286 -950 -704 -24 -79 -26 -104
-26 -238 0 -134 2 -159 26 -238 91 -297 308 -528 599 -637 148 -55 199 -62
473 -66 160 -3 289 0 335 7 412 61 746 378 815 774 89 514 -263 997 -794 1090
-46 8 -117 15 -157 15 -53 0 -74 4 -74 13 0 15 14 21 235 99 75 27 124 68 156
133 20 42 29 74 27 96 -3 33 -4 34 -52 37 -55 4 -172 -33 -236 -73 -69 -44
-139 -145 -140 -203 0 -27 -17 -62 -30 -62 -4 0 -13 24 -20 53 -32 151 -124
311 -172 300z"/>
</g>
</svg>
