<?xml version="1.0" standalone="no"?>
<!DOCTYPE svg PUBLIC "-//W3C//DTD SVG 20010904//EN"
 "http://www.w3.org/TR/2001/REC-SVG-20010904/DTD/svg10.dtd">
<svg version="1.0" xmlns="http://www.w3.org/2000/svg"
 width="256.000000pt" height="256.000000pt" viewBox="0 0 256.000000 256.000000"
 preserveAspectRatio="xMidYMid meet">
<metadata>
Created by potrace 1.13, written by Peter Selinger 2001-2015
</metadata>
<g transform="translate(0.000000,256.000000) scale(0.100000,-0.100000)"
fill="#000000" stroke="none">
<path d="M922 2428 c-19 -19 -14 -62 18 -143 17 -42 30 -84 30 -94 0 -29 95
-156 130 -173 56 -27 140 -109 140 -136 0 -21 -3 -24 -27 -18 -188 42 -317 45
-453 11 -240 -61 -458 -244 -561 -470 -57 -127 -73 -206 -73 -360 0 -154 16
-233 73 -360 103 -227 319 -407 566 -471 91 -24 314 -25 395 -1 52 15 59 14
130 -6 109 -31 322 -31 433 1 256 73 442 227 552 456 63 133 79 206 79 361 0
155 -16 228 -79 361 -110 229 -296 383 -552 456 -64 19 -103 22 -218 22 -78 0
-157 -5 -179 -11 l-38 -12 5 32 c3 18 19 70 36 117 17 47 31 104 31 126 0 36
5 46 42 78 30 24 64 41 110 53 87 22 103 48 25 40 -77 -8 -171 -57 -202 -107
-14 -22 -25 -44 -25 -50 0 -5 -4 -10 -10 -10 -5 0 -10 11 -10 24 0 14 -4 27
-9 30 -5 3 -12 21 -15 40 -8 39 -80 140 -123 172 -61 45 -193 70 -221 42z"/>
</g>
</svg>
