<?xml version="1.0" standalone="no"?>
<!DOCTYPE svg PUBLIC "-//W3C//DTD SVG 20010904//EN"
 "http://www.w3.org/TR/2001/REC-SVG-20010904/DTD/svg10.dtd">
<svg version="1.0" xmlns="http://www.w3.org/2000/svg"
 width="661.000000pt" height="393.000000pt" viewBox="0 0 661.000000 393.000000"
 preserveAspectRatio="xMidYMid meet">
<metadata>
Created by potrace 1.13, written by Peter Selinger 2001-2015
</metadata>
<g transform="translate(0.000000,393.000000) scale(0.100000,-0.100000)"
fill="#000000" stroke="none">
<path d="M910 3913 c-14 -2 -72 -10 -130 -19 -353 -52 -571 -120 -665 -206
-47 -42 -95 -111 -95 -136 0 -17 8 -19 63 -20 47 -1 77 -8 115 -27 28 -14 52
-29 54 -33 2 -4 15 -17 30 -28 63 -49 157 -198 158 -251 1 -24 23 -105 33
-120 5 -7 19 -13 33 -13 54 0 162 -36 224 -74 87 -53 210 -154 210 -171 0 -7
4 -15 8 -17 11 -4 69 -92 102 -153 32 -61 66 -193 75 -298 11 -118 27 -171 52
-175 13 -2 26 4 32 16 26 49 161 53 253 7 151 -76 243 -171 327 -337 65 -130
90 -224 97 -363 8 -147 -6 -243 -42 -292 -16 -21 -29 -39 -30 -41 -1 -2 -22 2
-48 9 -60 15 -92 6 -113 -34 -22 -40 -27 -133 -8 -141 8 -3 21 -21 30 -40 17
-35 19 -36 76 -36 50 0 59 3 59 18 0 10 -5 23 -11 29 -16 16 -4 43 20 43 11 0
40 9 66 20 26 11 55 20 66 20 23 0 42 -42 63 -144 9 -42 20 -85 26 -96 10 -18
28 -255 34 -440 5 -170 57 -370 96 -370 14 0 18 12 22 68 3 37 18 103 33 147
39 115 126 291 151 307 6 4 17 21 24 38 7 16 16 30 21 30 5 0 9 6 9 14 0 15
69 87 146 153 27 23 62 52 77 66 38 32 143 84 196 96 23 5 51 20 62 33 67 78
122 115 158 103 21 -6 86 -139 76 -155 -4 -6 -4 -22 -1 -36 6 -22 12 -24 59
-24 61 0 80 12 96 59 20 61 14 125 -14 155 -14 15 -25 35 -25 45 0 76 313 370
480 450 30 14 57 29 58 34 2 4 10 7 19 7 8 0 29 6 46 14 101 46 296 87 418 87
84 0 254 -25 274 -41 6 -4 27 -13 47 -19 61 -20 130 -60 170 -98 42 -41 75
-40 98 2 7 14 17 25 22 25 4 0 8 5 8 10 0 12 157 254 191 296 56 66 139 149
199 198 64 53 213 156 224 156 4 0 23 10 44 23 69 43 180 86 247 97 69 11 177
-1 202 -22 6 -5 24 -8 39 -6 21 2 30 11 40 41 7 21 32 54 55 75 23 20 54 48
69 62 72 67 205 109 348 110 47 0 52 2 52 22 0 41 -110 169 -210 244 -99 75
-321 186 -495 248 -206 73 -552 77 -909 11 -98 -19 -96 -19 -96 5 0 13 7 20
20 20 16 0 20 7 20 30 0 23 -5 31 -25 36 -60 15 -105 -27 -105 -99 0 -31 -4
-36 -47 -54 -27 -11 -70 -40 -98 -65 -27 -25 -70 -55 -95 -68 -57 -29 -238
-155 -267 -186 l-22 -24 6 50 6 50 -37 0 c-20 0 -36 -4 -36 -10 0 -18 -40 -10
-78 15 -20 14 -45 25 -54 25 -10 0 -18 5 -18 10 0 6 -8 10 -17 10 -10 0 -30 6
-45 14 -15 8 -42 17 -60 21 -18 4 -48 16 -66 27 -29 18 -43 20 -115 14 -94 -8
-187 -27 -187 -38 0 -5 -11 -8 -25 -8 -14 0 -25 -4 -25 -10 0 -5 -19 -14 -42
-21 -23 -6 -50 -20 -59 -30 -9 -10 -22 -19 -28 -19 -14 0 -95 -50 -99 -61 -2
-5 -9 -9 -16 -9 -6 0 -19 -8 -28 -17 -18 -20 -25 -25 -83 -68 -22 -17 -46 -36
-53 -42 -7 -7 -17 -13 -22 -13 -5 0 -20 -11 -34 -25 -14 -14 -29 -25 -33 -25
-13 0 -98 -82 -116 -113 -17 -26 -19 -26 -45 -13 -45 24 -88 73 -136 154 -54
93 -94 180 -180 387 -79 192 -119 268 -225 423 -63 94 -66 98 -51 85 8 -7 22
-13 32 -13 14 0 18 8 18 38 0 21 -6 46 -13 56 -16 22 -95 33 -125 17 -18 -9
-45 1 -184 68 -90 43 -212 97 -273 121 -60 23 -119 46 -130 51 -79 35 -234 74
-355 89 -80 9 -286 12 -340 3z"/>
</g>
</svg>
