<?xml version="1.0" standalone="no"?>
<!DOCTYPE svg PUBLIC "-//W3C//DTD SVG 20010904//EN"
 "http://www.w3.org/TR/2001/REC-SVG-20010904/DTD/svg10.dtd">
<svg version="1.0" xmlns="http://www.w3.org/2000/svg"
 width="593.000000pt" height="289.000000pt" viewBox="0 0 593.000000 289.000000"
 preserveAspectRatio="xMidYMid meet">
<metadata>
Created by potrace 1.13, written by Peter Selinger 2001-2015
</metadata>
<g transform="translate(0.000000,289.000000) scale(0.100000,-0.100000)"
fill="#000000" stroke="none">
<path d="M170 2854 c-119 -45 -160 -73 -160 -105 0 -19 15 -24 130 -49 58 -12
160 -57 160 -70 0 -4 16 -15 36 -25 20 -9 39 -26 41 -36 3 -10 9 -19 12 -19 9
0 111 -126 111 -137 0 -4 13 -41 30 -81 18 -44 32 -100 36 -146 l7 -74 46 -7
c73 -11 137 -43 245 -125 49 -37 159 -160 185 -206 29 -50 71 -175 71 -209 0
-10 11 -41 24 -69 13 -28 30 -70 37 -93 12 -41 13 -42 53 -41 49 2 191 -42
261 -82 28 -15 65 -36 84 -46 18 -11 47 -31 64 -46 18 -16 35 -28 39 -28 11 0
44 -28 94 -80 47 -48 81 -112 127 -236 20 -52 31 -170 23 -228 l-7 -46 -43 0
c-62 0 -80 -17 -74 -68 9 -60 30 -77 96 -75 30 1 64 9 77 17 21 14 24 13 39
-3 9 -10 16 -23 16 -29 0 -7 3 -12 8 -12 9 0 42 -74 42 -94 0 -7 13 -33 30
-57 16 -24 30 -48 30 -52 0 -5 7 -15 15 -23 8 -9 15 -24 15 -35 0 -10 4 -19 9
-19 5 0 19 -25 32 -55 30 -69 59 -82 92 -39 12 15 37 42 55 60 17 18 32 35 32
39 0 10 28 35 39 35 6 0 11 4 11 10 0 14 42 53 76 70 16 8 34 20 41 25 7 6 18
15 25 21 8 6 26 14 41 18 15 3 27 13 27 21 0 9 9 15 23 15 12 1 33 7 47 15 14
8 35 14 47 15 12 0 23 5 25 10 2 6 19 13 39 16 31 5 40 1 78 -35 44 -42 75
-51 112 -31 10 6 19 20 19 30 0 11 5 20 10 20 6 0 10 11 10 25 0 19 -11 32
-45 53 -25 15 -45 32 -45 38 0 25 59 95 112 135 32 23 63 55 70 71 8 17 23 31
38 34 14 3 39 11 56 19 18 8 48 17 68 20 22 5 38 14 41 26 4 10 10 19 15 19 5
0 12 9 15 20 3 11 12 20 19 20 18 0 66 46 66 63 0 19 23 28 41 16 39 -25 69 9
32 36 -16 12 -14 17 20 58 20 25 37 52 37 59 0 8 21 19 48 27 26 7 76 22 112
33 73 23 233 29 253 9 6 -6 24 -11 40 -11 24 0 48 18 121 89 131 127 191 173
297 223 173 84 282 107 419 89 51 -6 101 -16 111 -21 28 -15 49 -12 49 8 0 26
31 83 74 135 26 32 60 57 109 82 40 19 76 35 81 35 5 0 27 8 50 19 64 29 105
39 191 46 44 4 103 11 130 16 28 6 94 10 148 9 96 0 98 0 95 22 -4 29 -108 84
-197 104 -102 22 -302 60 -446 83 -71 12 -157 27 -190 33 -137 27 -515 6 -684
-38 -30 -8 -56 -13 -57 -11 -1 1 0 14 3 30 4 18 12 27 25 27 28 0 20 38 -14
63 -22 17 -33 19 -54 11 -33 -11 -40 -24 -54 -96 -11 -56 -12 -57 -40 -52 -16
4 -51 -1 -80 -11 -43 -14 -59 -27 -94 -74 -72 -96 -156 -175 -304 -285 -184
-138 -205 -150 -231 -137 -35 19 -50 12 -115 -55 -59 -62 -66 -66 -110 -68
-35 -1 -47 3 -51 15 -18 57 -97 109 -165 109 -63 0 -97 -23 -110 -73 -15 -62
-23 -72 -61 -75 -19 -1 -62 -7 -97 -12 -60 -8 -66 -7 -120 22 -101 54 -294
274 -409 468 -72 121 -181 337 -193 382 -13 47 -65 108 -92 108 -11 0 -37 10
-58 21 -38 22 -39 23 -33 70 5 42 3 50 -21 74 -21 21 -34 26 -64 23 -29 -2
-38 -8 -40 -24 -2 -15 4 -23 20 -27 17 -5 20 -9 11 -18 -9 -9 -47 6 -165 65
-84 42 -156 76 -161 76 -4 0 -56 21 -115 46 -238 102 -437 153 -604 155 -35 0
-85 4 -113 9 -59 11 -453 23 -475 14z"/>
</g>
</svg>
