<?xml version="1.0" standalone="no"?>
<!DOCTYPE svg PUBLIC "-//W3C//DTD SVG 20010904//EN"
 "http://www.w3.org/TR/2001/REC-SVG-20010904/DTD/svg10.dtd">
<svg version="1.0" xmlns="http://www.w3.org/2000/svg"
 width="503.000000pt" height="472.000000pt" viewBox="0 0 503.000000 472.000000"
 preserveAspectRatio="xMidYMid meet">
<metadata>
Created by potrace 1.13, written by Peter Selinger 2001-2015
</metadata>
<g transform="translate(0.000000,472.000000) scale(0.100000,-0.100000)"
fill="#000000" stroke="none">
<path d="M1322 4583 c-20 -22 -20 -22 2 -46 11 -14 23 -31 25 -38 1 -8 9 -33
16 -56 8 -25 9 -43 3 -43 -5 0 -7 -4 -4 -8 14 -23 15 -80 1 -158 -8 -47 -12
-90 -9 -95 3 -5 1 -9 -4 -9 -9 0 -9 1 -15 -77 -3 -35 -12 -59 -26 -74 -12 -13
-24 -34 -27 -46 -4 -13 -9 -23 -13 -23 -21 0 -2 -37 40 -80 34 -34 47 -55 44
-69 -2 -12 0 -21 5 -21 5 0 8 -13 6 -30 -2 -16 -1 -32 3 -35 3 -4 6 -48 7 -98
1 -51 3 -92 4 -92 1 0 2 -15 3 -33 1 -17 0 -32 -3 -32 -3 0 -5 -15 -6 -32 -1
-42 -7 -67 -22 -96 -7 -12 -10 -27 -7 -32 3 -6 1 -10 -4 -10 -6 0 -11 -6 -11
-13 0 -8 -11 -27 -24 -42 -14 -16 -22 -34 -19 -39 3 -6 3 -8 -1 -4 -13 11 -33
-15 -28 -34 2 -10 -2 -20 -12 -24 -9 -3 -16 -12 -16 -20 0 -8 -5 -14 -11 -14
-6 0 -9 -7 -5 -15 3 -8 1 -15 -4 -15 -6 0 -10 -6 -10 -14 0 -7 -7 -19 -15 -26
-9 -7 -13 -15 -10 -18 3 -3 1 -10 -4 -16 -13 -16 19 -57 47 -59 12 -1 22 -4
22 -8 0 -3 8 -6 18 -5 10 0 40 -17 66 -39 27 -22 51 -40 55 -40 10 -1 76 -72
79 -87 2 -7 10 -18 18 -24 7 -6 14 -16 14 -23 0 -6 5 -11 10 -11 6 0 10 -7 10
-15 0 -8 5 -15 11 -15 5 0 8 -4 4 -9 -3 -6 2 -14 11 -19 9 -5 16 -13 16 -18 1
-12 14 -46 36 -92 10 -21 18 -46 16 -55 -1 -10 1 -17 6 -17 4 0 11 -10 15 -23
10 -30 12 -36 15 -42 4 -7 6 -16 15 -60 4 -22 10 -44 14 -50 6 -10 7 -15 17
-75 10 -64 12 -100 3 -95 -4 3 -33 8 -63 11 -52 5 -56 4 -60 -18 -12 -50 2
-76 63 -116 21 -14 24 -14 33 2 9 16 12 15 34 -9 28 -30 29 -35 9 -81 -8 -19
-14 -37 -15 -39 0 -3 0 -6 -1 -7 -4 -15 -9 -37 -11 -53 -2 -11 -7 -23 -13 -27
-6 -5 -5 -8 4 -8 7 0 11 -6 7 -15 -3 -8 -2 -15 3 -15 5 0 12 -12 16 -27 4 -16
12 -34 18 -41 16 -19 56 -34 70 -25 7 4 17 8 22 9 6 1 15 3 20 5 16 4 65 -12
65 -22 0 -5 3 -8 8 -7 24 6 75 -18 102 -48 31 -36 38 -54 19 -54 -14 0 -2 -52
14 -62 39 -25 97 16 92 64 -2 14 2 28 8 30 19 7 103 11 219 12 60 1 108 5 108
9 0 5 5 5 12 1 7 -4 40 -8 73 -9 34 -1 66 -4 71 -7 5 -2 18 -4 29 -4 11 1 22
-2 25 -5 3 -4 32 -9 64 -13 33 -3 62 -9 65 -15 3 -5 24 -14 46 -20 33 -9 90
-49 129 -90 33 -36 45 -51 40 -51 -4 0 8 -14 25 -32 17 -17 31 -37 31 -43 0
-15 52 -43 70 -37 8 2 22 10 30 18 8 7 22 14 30 16 8 2 17 6 20 10 3 4 17 10
30 12 14 2 25 5 25 6 0 3 43 11 89 15 26 3 52 8 57 11 5 3 17 0 28 -6 13 -7
22 -7 26 0 4 6 11 8 16 5 5 -4 9 -1 9 6 0 8 4 8 15 -1 8 -7 15 -10 15 -6 0 3
12 1 27 -5 25 -9 81 -19 126 -22 9 -1 17 -5 17 -9 0 -4 3 -7 8 -7 4 1 10 0 15
-1 4 -1 10 -3 15 -4 28 -7 82 -31 82 -38 0 -4 6 -8 14 -8 7 0 24 -8 37 -19 13
-10 27 -19 32 -20 4 0 7 -3 7 -6 0 -3 19 -24 43 -48 23 -24 51 -55 61 -69 18
-25 20 -25 47 -9 16 9 29 22 29 30 0 8 3 11 7 8 3 -4 11 -2 18 3 6 5 21 11 33
13 12 2 24 6 27 9 9 9 146 -8 154 -20 3 -4 18 -13 34 -19 15 -7 27 -18 27 -25
1 -19 48 -51 66 -44 12 4 34 42 38 66 1 3 5 10 8 16 16 25 30 222 17 239 -4 6
-8 13 -8 18 -1 4 -1 8 -2 10 0 1 -3 13 -5 27 -2 13 -8 27 -12 30 -4 3 -8 12
-10 20 -4 25 -37 90 -44 90 -5 0 -8 6 -8 14 0 8 -7 16 -15 20 -8 3 -15 10 -15
16 0 6 -20 31 -44 55 -24 25 -42 45 -40 45 5 0 -70 82 -121 132 -27 26 -53 48
-57 48 -5 0 -8 4 -8 9 0 5 -21 32 -47 59 -45 47 -62 74 -45 70 16 -3 42 15 42
29 0 19 -36 52 -53 49 -7 -2 -25 -9 -42 -16 -40 -17 -54 -18 -91 -4 -23 9 -35
9 -43 1 -6 -6 -11 -7 -11 -1 0 10 -222 10 -239 -1 -6 -3 -11 -1 -11 5 0 6 -3
9 -8 7 -4 -3 -45 -8 -91 -11 -46 -4 -87 -9 -92 -11 -4 -3 -10 -2 -13 3 -2 4
-27 7 -53 7 -73 -3 -81 15 -27 56 24 18 44 39 44 46 0 7 5 13 10 13 6 0 10 7
10 15 0 8 4 15 9 15 9 0 27 57 23 73 -1 4 3 7 9 7 8 0 8 5 -1 15 -7 8 -10 25
-6 39 4 15 0 28 -9 36 -12 10 -15 10 -15 0 0 -7 -6 -10 -14 -7 -7 3 -30 2 -50
-3 -22 -5 -36 -4 -36 2 0 5 -5 6 -11 2 -6 -3 -32 -8 -57 -10 -75 -6 -88 -9
-118 -29 -16 -10 -34 -18 -41 -18 -7 0 -13 -6 -13 -13 0 -7 -15 -16 -32 -19
-36 -6 -98 -3 -98 5 0 3 -11 6 -25 6 -39 3 -75 13 -72 22 2 7 -9 23 -45 63
-10 10 -15 19 -10 19 4 0 -1 5 -11 11 -9 6 -15 14 -12 19 3 4 -2 11 -11 14 -8
3 -12 10 -9 16 3 5 1 10 -6 10 -7 0 -10 3 -6 6 3 4 -7 30 -23 59 -16 29 -26
55 -23 59 4 3 1 6 -5 6 -7 0 -12 7 -12 15 0 9 -9 25 -20 37 -11 12 -20 27 -20
34 0 7 -4 23 -9 36 -5 13 -10 28 -11 33 -1 6 -5 15 -10 20 -4 6 -6 19 -4 29 1
11 -5 35 -15 55 -10 20 -16 42 -13 50 3 8 -2 19 -9 25 -16 13 -42 66 -35 73 2
3 -4 28 -13 56 -10 29 -17 60 -15 70 1 9 -1 17 -6 17 -5 0 -11 19 -15 43 -4
23 -13 45 -19 49 -8 6 -8 8 0 8 12 0 11 27 -5 78 -5 18 -10 35 -10 37 -1 3 -1
6 -2 8 0 1 -2 11 -4 21 -2 11 -7 31 -11 45 -4 14 -6 30 -6 34 1 4 -2 17 -8 28
-7 13 -8 25 -1 37 6 9 11 13 11 8 0 -5 9 1 20 14 13 15 17 26 10 30 -6 4 -10
12 -8 17 3 11 -39 53 -52 53 -13 0 -32 -29 -26 -39 4 -5 2 -12 -2 -15 -8 -5
-41 43 -125 179 -6 11 -28 43 -48 70 -20 28 -39 60 -43 73 -4 12 -12 22 -17
22 -5 0 -9 6 -9 13 0 8 -9 22 -20 32 -11 10 -17 22 -14 26 3 5 2 9 -3 9 -4 0
-13 10 -19 23 -36 72 -49 94 -66 108 -10 9 -18 21 -18 28 0 6 -5 11 -11 11 -5
0 -7 5 -4 10 3 6 -1 13 -9 16 -9 3 -13 10 -10 15 3 5 -2 12 -10 15 -9 3 -13
10 -10 15 3 5 0 9 -5 9 -6 0 -11 5 -11 11 0 7 -12 22 -27 35 -16 13 -25 24
-22 24 10 0 -72 82 -126 125 -27 22 -63 52 -79 68 -16 15 -31 25 -33 23 -3 -2
-29 9 -58 25 -29 16 -63 29 -74 29 -12 0 -21 4 -21 8 0 5 -22 8 -49 8 -38 -1
-54 -6 -69 -23z"/>
</g>
</svg>
