<?xml version="1.0" standalone="no"?>
<!DOCTYPE svg PUBLIC "-//W3C//DTD SVG 20010904//EN"
 "http://www.w3.org/TR/2001/REC-SVG-20010904/DTD/svg10.dtd">
<svg version="1.0" xmlns="http://www.w3.org/2000/svg"
 width="791.000000pt" height="743.000000pt" viewBox="0 0 791.000000 743.000000"
 preserveAspectRatio="xMidYMid meet">
<metadata>
Created by potrace 1.13, written by Peter Selinger 2001-2015
</metadata>
<g transform="translate(0.000000,743.000000) scale(0.100000,-0.100000)"
fill="#000000" stroke="none">
<path d="M2182 7345 c-16 -19 -16 -18 20 -57 36 -39 91 -123 114 -175 10 -21
18 -40 19 -43 2 -3 6 -15 10 -27 4 -13 12 -23 17 -23 6 0 7 -7 4 -16 -4 -9 -1
-23 5 -30 6 -8 8 -14 5 -14 -4 0 3 -15 16 -32 13 -18 22 -34 21 -35 -6 -7 10
-63 18 -63 4 0 6 -9 4 -20 -2 -11 1 -22 6 -25 5 -4 7 -10 4 -15 -3 -4 2 -24
10 -44 8 -20 12 -36 9 -36 -4 0 0 -7 7 -17 8 -9 13 -18 12 -20 -2 -1 -3 -4 -2
-5 1 -4 8 -75 13 -136 3 -43 9 -57 32 -77 16 -14 26 -25 22 -25 -9 0 5 -17 58
-75 19 -20 34 -39 34 -42 0 -3 10 -14 22 -24 11 -11 17 -19 12 -19 -5 0 0 -7
10 -15 11 -8 17 -15 13 -15 -3 0 5 -12 18 -26 14 -15 22 -30 19 -35 -3 -5 0
-9 5 -9 6 0 10 -3 9 -7 -1 -5 3 -18 10 -31 7 -12 10 -26 8 -31 -3 -5 1 -12 10
-15 9 -4 14 -9 10 -13 -3 -3 0 -16 7 -27 12 -18 40 -89 42 -106 0 -3 3 -9 6
-15 7 -11 29 -137 31 -170 0 -11 -2 -50 -5 -87 -6 -66 -5 -68 18 -74 14 -3 23
-10 20 -14 -5 -8 24 -25 38 -21 5 1 6 -3 3 -7 -3 -5 5 -18 19 -28 13 -10 22
-21 19 -26 -3 -4 0 -8 5 -8 6 0 11 -6 11 -14 0 -8 7 -16 15 -20 8 -3 12 -12 9
-21 -3 -8 -1 -15 5 -15 6 0 10 -3 9 -7 -1 -5 3 -18 10 -30 7 -13 9 -23 5 -23
-4 0 -1 -5 7 -10 8 -5 16 -14 16 -20 1 -5 2 -11 3 -12 2 -2 5 -14 8 -28 7 -39
11 -55 13 -55 1 0 3 -9 5 -20 2 -11 7 -36 10 -55 4 -19 7 -43 7 -52 -1 -10 4
-18 9 -18 6 0 6 -7 -1 -19 -5 -11 -6 -22 -2 -25 7 -4 7 -51 -1 -183 0 -13 -5
-23 -10 -23 -4 0 -5 -5 -1 -11 3 -6 0 -15 -7 -20 -11 -7 -11 -9 -1 -9 8 0 10
-5 6 -12 -5 -7 -9 -19 -11 -28 -1 -8 -5 -30 -8 -49 -3 -19 -8 -37 -13 -40 -4
-3 -8 -15 -10 -26 -3 -22 -9 -49 -12 -52 -2 -2 -4 -7 -5 -13 -1 -5 -4 -13 -5
-17 -2 -5 -4 -12 -5 -18 -1 -5 -7 -23 -13 -38 -7 -16 -12 -35 -12 -43 0 -8 -6
-14 -13 -14 -8 0 -20 -11 -27 -25 -7 -13 -16 -23 -21 -22 -15 4 -98 -68 -94
-80 2 -7 0 -13 -4 -13 -12 0 -32 -60 -25 -71 3 -5 1 -9 -4 -9 -5 0 -8 -11 -7
-24 2 -15 -10 -38 -33 -66 -20 -23 -37 -49 -38 -57 -1 -8 -6 -22 -10 -31 -17
-41 -24 -123 -12 -139 11 -14 18 -63 9 -63 -14 0 -15 -124 -1 -160 1 -3 2 -8
1 -12 0 -5 4 -8 10 -8 5 0 8 -4 5 -8 -3 -5 1 -20 9 -35 8 -15 12 -27 9 -27 -2
0 5 -9 16 -20 12 -12 18 -25 15 -30 -4 -6 0 -12 7 -15 8 -3 13 -20 12 -43 0
-20 5 -46 12 -57 8 -12 16 -32 18 -45 2 -14 6 -25 7 -25 1 0 3 -28 4 -62 0
-35 -3 -63 -7 -63 -4 0 -7 -3 -6 -7 1 -5 -3 -18 -10 -31 -7 -12 -10 -27 -7
-32 3 -6 1 -10 -4 -10 -6 0 -11 -6 -11 -13 0 -7 -15 -36 -34 -65 -19 -28 -33
-52 -30 -52 2 0 -3 -11 -12 -25 -22 -34 -14 -89 20 -144 l27 -43 27 17 c15 10
32 24 38 31 10 12 13 11 19 -8 17 -56 33 -188 23 -188 -5 0 -6 -6 -1 -12 4 -7
8 -24 9 -38 3 -32 -24 -142 -36 -150 -5 -3 -13 -17 -19 -32 -8 -21 -7 -28 7
-34 29 -12 52 -14 52 -5 0 5 11 8 25 6 14 -1 28 2 31 7 3 4 9 6 14 3 5 -3 11
-1 14 4 6 10 89 7 106 -4 6 -4 23 -8 38 -11 37 -6 83 -29 108 -52 19 -18 109
-78 109 -73 0 1 13 -2 28 -8 16 -6 33 -11 38 -11 5 0 9 -5 9 -11 0 -5 4 -8 9
-5 10 6 85 -63 77 -72 -3 -3 -1 -11 5 -18 6 -8 9 -21 5 -29 -3 -8 -2 -15 2
-15 4 0 12 -10 17 -22 12 -27 56 -50 101 -53 26 -1 35 3 46 24 7 14 17 29 23
33 6 5 1 16 -12 30 -13 12 -23 17 -23 11 0 -7 -7 -10 -16 -6 -13 5 -13 7 -2
14 10 7 10 9 1 9 -7 0 -13 10 -13 23 -1 12 -7 33 -15 47 -8 14 -14 30 -15 36
0 19 124 140 171 164 13 7 29 20 36 29 7 9 13 12 13 6 0 -5 4 -4 9 4 5 8 17
16 26 17 9 1 26 9 39 17 26 17 126 49 126 40 0 -3 6 -1 12 5 7 6 16 11 21 11
4 1 8 1 10 1 1 1 40 3 86 5 45 3 87 8 92 11 5 3 9 0 9 -6 0 -6 5 -8 10 -5 18
11 147 6 220 -10 60 -12 90 -17 92 -14 2 1 22 -10 45 -24 24 -15 49 -27 57
-27 8 0 28 -11 44 -25 17 -14 33 -25 37 -25 5 0 24 -12 44 -27 20 -16 38 -28
41 -28 16 0 95 -76 121 -116 16 -26 36 -50 44 -52 16 -7 55 2 55 12 0 7 15 11
53 12 9 0 17 4 17 9 0 11 154 4 177 -9 11 -5 31 -11 45 -13 14 -2 33 -10 42
-17 9 -7 16 -11 16 -8 0 11 165 -84 180 -103 3 -3 22 -19 43 -35 21 -16 53
-49 70 -74 17 -25 36 -51 43 -58 13 -13 42 -12 52 3 14 19 102 25 157 9 22 -6
47 -10 55 -10 8 0 17 -2 20 -6 3 -3 35 -21 73 -39 37 -18 67 -36 67 -41 0 -5
4 -8 9 -7 8 3 46 -24 100 -71 13 -12 28 -21 33 -21 14 0 34 -18 165 -149 68
-68 121 -126 119 -129 -3 -2 5 -13 17 -22 12 -10 33 -39 45 -64 25 -49 51 -70
76 -60 12 5 14 14 10 38 -4 17 -6 39 -6 49 0 9 -3 17 -6 17 -8 0 -13 24 -15
73 0 15 -5 27 -9 27 -5 0 -8 6 -7 12 1 7 0 20 -4 28 -3 8 -18 53 -33 100 -15
47 -31 88 -36 91 -5 3 -9 8 -8 10 1 4 -7 33 -20 64 -25 61 -34 91 -32 98 1 4
-2 7 -8 7 -5 0 -10 9 -10 20 0 11 -5 20 -11 20 -5 0 -8 4 -4 9 3 5 1 12 -5 16
-5 3 -10 15 -10 26 0 10 -4 19 -10 19 -5 0 -10 6 -10 14 0 8 -7 16 -15 20 -8
3 -15 12 -15 19 0 8 -7 20 -15 27 -8 7 -13 15 -11 19 2 3 -11 17 -28 31 -18
13 -46 42 -62 63 -16 22 -49 55 -73 73 -24 19 -40 34 -35 34 8 0 -47 53 -81
78 -28 20 -94 82 -88 82 4 0 -2 6 -12 14 -11 8 -24 12 -29 9 -5 -4 -6 -2 -3 4
3 5 -9 21 -26 36 -39 33 -68 58 -126 105 -24 21 -50 43 -57 50 -7 6 -16 12
-21 12 -10 0 -43 24 -76 55 -12 11 -44 38 -72 60 -27 22 -57 47 -65 55 -62 62
-169 128 -184 113 -3 -4 -6 -1 -6 5 0 7 -3 11 -7 10 -16 -4 -73 14 -73 23 0 5
-3 8 -7 8 -22 -4 -43 3 -57 16 -8 9 -18 16 -21 15 -3 0 -6 0 -7 1 -2 0 -14 3
-27 5 -14 2 -32 11 -41 19 -9 8 -20 12 -23 9 -4 -4 -12 -2 -19 4 -7 5 -29 13
-48 16 -19 3 -36 10 -38 16 -2 5 -7 8 -12 5 -4 -3 -25 2 -46 11 -22 9 -48 18
-59 19 -11 2 -34 8 -52 13 -17 6 -34 8 -37 4 -3 -3 -6 0 -6 6 0 6 -9 9 -20 7
-11 -2 -22 1 -25 6 -4 5 -11 7 -16 4 -5 -4 -9 -1 -9 5 0 6 -4 9 -9 5 -5 -3
-12 -1 -16 5 -4 6 -10 8 -15 5 -5 -3 -11 -1 -15 4 -3 5 -14 8 -25 6 -11 -2
-20 1 -20 7 0 6 -3 8 -7 5 -3 -4 -12 -2 -20 4 -7 6 -13 9 -13 5 0 -3 -12 -1
-27 5 -16 6 -39 13 -51 15 -13 3 -35 12 -48 21 -13 8 -24 12 -24 8 0 -4 -7 -2
-15 5 -8 7 -15 10 -15 7 0 -3 -16 1 -35 9 -19 8 -35 11 -35 8 0 -4 -6 -1 -14
5 -8 7 -26 14 -39 17 -14 2 -47 13 -72 24 -25 11 -56 22 -68 24 -13 2 -40 12
-62 21 -22 10 -47 19 -56 21 -8 2 -29 10 -45 19 -16 8 -35 15 -41 15 -7 0 -13
5 -13 10 0 6 -6 10 -14 10 -8 0 -15 8 -15 18 1 29 -12 87 -20 92 -7 4 -20 47
-22 67 0 5 -7 12 -15 16 -8 4 -14 13 -14 18 0 6 -12 26 -26 45 -15 19 -23 34
-18 34 4 0 -1 7 -12 15 -10 8 -15 15 -11 15 4 0 -5 14 -22 32 -16 17 -27 37
-24 45 3 7 -5 22 -17 33 -15 13 -21 27 -17 39 3 15 -1 22 -17 27 -30 10 -65
37 -66 51 0 6 -12 25 -26 42 -14 17 -22 31 -18 31 4 0 -2 9 -14 20 -12 12 -23
26 -24 33 -1 15 -5 30 -8 37 -6 12 -21 199 -25 300 -6 150 -20 294 -31 311 -3
5 0 9 7 9 7 0 8 4 2 13 -5 6 -9 24 -8 40 0 15 -2 27 -5 27 -3 0 -6 21 -8 46
-1 26 -5 51 -8 56 -6 9 -10 42 -17 123 -1 17 -5 32 -9 35 -4 3 -10 23 -13 45
-7 54 -11 74 -25 115 -6 19 -13 48 -15 64 -3 16 -8 32 -13 35 -5 3 -8 16 -7
29 1 12 -2 22 -7 22 -4 0 -7 3 -7 8 1 4 0 10 -1 15 -1 4 -4 12 -5 17 -1 6 -3
11 -5 13 -4 5 -11 43 -12 65 0 12 -5 22 -11 22 -6 0 -8 3 -4 6 3 3 -1 23 -8
45 -8 22 -14 43 -14 47 0 22 -34 152 -40 152 -3 0 -7 8 -8 18 -2 29 -8 44 -51
130 -22 45 -41 84 -41 85 0 5 -19 59 -26 77 -2 3 -6 15 -10 28 -4 12 -11 22
-16 22 -4 0 -6 9 -4 20 2 11 0 20 -6 20 -5 0 -9 9 -9 20 0 11 -4 20 -10 20 -5
0 -9 3 -8 8 1 4 -4 23 -11 42 -8 19 -13 38 -12 43 0 4 -4 7 -9 7 -6 0 -10 9
-10 20 0 11 -4 20 -8 20 -5 0 -9 6 -9 13 0 8 -21 57 -46 110 -26 53 -47 101
-47 107 0 5 -4 10 -10 10 -5 0 -10 3 -9 8 2 15 -14 52 -22 52 -5 0 -9 7 -9 15
0 8 -5 15 -12 15 -6 0 -8 3 -5 7 4 3 0 17 -8 30 -9 13 -12 23 -8 23 4 0 -2 7
-13 15 -10 8 -16 15 -12 15 18 0 -146 170 -237 245 -27 22 -55 46 -62 53 -7 8
-20 15 -27 16 -8 1 -36 21 -63 44 -69 60 -72 63 -77 60 -3 -2 -16 6 -28 17
-13 10 -23 18 -23 16 0 -1 -13 2 -28 8 -51 20 -72 21 -85 6z"/>
</g>
</svg>
