<?xml version="1.0" standalone="no"?>
<!DOCTYPE svg PUBLIC "-//W3C//DTD SVG 20010904//EN"
 "http://www.w3.org/TR/2001/REC-SVG-20010904/DTD/svg10.dtd">
<svg version="1.0" xmlns="http://www.w3.org/2000/svg"
 width="395.000000pt" height="168.000000pt" viewBox="0 0 395.000000 168.000000"
 preserveAspectRatio="xMidYMid meet">
<metadata>
Created by potrace 1.13, written by Peter Selinger 2001-2015
</metadata>
<g transform="translate(0.000000,168.000000) scale(0.100000,-0.100000)"
fill="#000000" stroke="none">
<path d="M550 1660 c-70 -9 -113 -20 -277 -71 -108 -33 -273 -164 -273 -216 0
-27 22 -30 64 -8 17 9 59 17 95 18 79 2 167 -34 216 -88 44 -47 95 -147 95
-184 0 -30 2 -31 43 -31 24 0 52 -7 63 -15 10 -8 25 -15 32 -15 6 0 20 -8 30
-17 10 -10 40 -36 65 -58 26 -22 47 -44 47 -50 0 -5 12 -24 28 -42 15 -18 35
-56 45 -85 39 -111 31 -104 116 -103 83 0 120 -11 197 -61 57 -37 164 -136
188 -175 53 -84 55 -199 5 -267 -24 -32 -33 -38 -57 -34 -40 5 -109 -15 -116
-35 -4 -9 -2 -40 4 -70 12 -55 20 -61 62 -44 13 6 56 19 95 31 40 12 75 26 79
31 3 6 62 7 150 3 130 -6 144 -5 144 9 0 10 7 17 15 17 8 0 15 -9 15 -19 0
-17 10 -20 83 -26 45 -4 91 -6 102 -4 21 3 65 -17 76 -34 9 -12 91 -21 123
-13 23 6 26 11 26 52 0 30 -5 46 -15 50 -28 11 -15 31 28 45 23 7 51 22 62 32
11 11 43 29 71 42 28 12 54 27 58 33 7 11 77 46 114 57 12 3 22 11 22 16 0 5
9 9 20 9 11 0 20 7 20 15 0 9 7 18 15 21 8 4 15 13 15 21 0 23 31 42 67 43 17
0 34 6 36 13 4 9 6 9 6 0 1 -14 37 -18 43 -5 2 4 19 15 38 25 34 17 70 75 70
112 0 8 9 15 20 15 14 0 20 7 21 23 1 16 2 18 6 5 2 -10 13 -18 23 -18 16 0
30 17 93 114 13 21 82 91 113 117 37 29 109 58 177 70 60 11 77 10 144 -6 65
-16 77 -17 87 -4 19 23 50 37 115 50 49 11 70 10 113 0 57 -14 120 -40 129
-53 13 -19 74 -58 91 -58 26 0 23 49 -8 151 -20 61 -38 98 -69 134 -23 28 -47
60 -53 71 -12 23 -231 158 -342 211 -97 46 -235 91 -325 106 -70 12 -80 16
-83 35 -3 17 2 22 18 22 16 0 21 5 18 21 -2 12 -10 27 -19 32 -24 15 -85 -16
-93 -48 -6 -23 -11 -25 -60 -25 -40 0 -61 -6 -82 -22 -44 -34 -49 -40 -89
-104 -21 -32 -43 -63 -49 -69 -15 -14 -117 -142 -147 -185 -27 -39 -47 -64
-102 -124 -21 -22 -46 -53 -55 -69 -11 -18 -22 -25 -32 -21 -8 3 -32 8 -52 11
-41 6 -51 -6 -63 -79 -6 -40 -20 -51 -72 -61 -49 -9 -129 54 -258 207 -126
149 -173 225 -211 341 -14 44 -30 89 -35 100 -14 30 -98 83 -143 91 -31 5 -41
13 -52 39 -14 34 -31 45 -69 45 -34 0 -55 -10 -55 -27 0 -11 -8 -13 -27 -9
-203 39 -621 64 -773 46z"/>
</g>
</svg>
