<?xml version="1.0" standalone="no"?>
<!DOCTYPE svg PUBLIC "-//W3C//DTD SVG 20010904//EN"
 "http://www.w3.org/TR/2001/REC-SVG-20010904/DTD/svg10.dtd">
<svg version="1.0" xmlns="http://www.w3.org/2000/svg"
 width="740.000000pt" height="346.000000pt" viewBox="0 0 740.000000 346.000000"
 preserveAspectRatio="xMidYMid meet">
<metadata>
Created by potrace 1.13, written by Peter Selinger 2001-2015
</metadata>
<g transform="translate(0.000000,346.000000) scale(0.100000,-0.100000)"
fill="#000000" stroke="none">
<path d="M230 3440 c-129 -11 -214 -37 -218 -68 -4 -25 -6 -24 98 -47 65 -14
246 -88 260 -106 3 -4 32 -20 66 -37 61 -31 241 -150 273 -180 10 -10 31 -29
47 -44 16 -15 38 -37 48 -48 11 -11 30 -20 43 -20 13 0 52 -6 86 -14 34 -8
102 -22 151 -32 157 -30 386 -159 498 -279 21 -22 38 -46 38 -52 0 -7 9 -22
19 -32 15 -15 34 -19 89 -19 75 0 116 -10 199 -48 28 -13 57 -24 62 -24 6 0
11 -4 11 -10 0 -5 5 -10 11 -10 9 0 32 -16 97 -65 7 -5 29 -25 48 -42 20 -18
38 -33 40 -33 15 0 116 -126 145 -180 13 -25 27 -47 30 -50 7 -6 89 -177 89
-185 0 -4 6 -21 14 -38 45 -99 45 -98 17 -238 -10 -50 -9 -63 9 -112 11 -30
27 -61 35 -67 10 -8 15 -31 15 -64 0 -94 67 -226 114 -226 7 0 24 -21 39 -48
14 -26 35 -57 46 -68 34 -37 140 -96 162 -91 10 3 19 1 19 -4 0 -5 11 -14 24
-19 14 -5 32 -21 42 -35 9 -14 24 -25 33 -25 21 0 54 -24 106 -77 42 -43 76
-131 91 -233 15 -109 35 -142 102 -171 63 -27 71 -25 84 25 l12 45 30 -22 c28
-19 163 -153 193 -190 7 -9 21 -47 31 -84 14 -55 22 -69 39 -71 15 -2 27 6 40
25 78 121 159 170 303 183 47 4 116 17 154 29 37 11 82 21 98 21 29 0 79 -22
105 -47 33 -30 92 -25 141 14 20 16 22 24 16 61 -5 35 -10 42 -29 42 -13 0
-26 -7 -29 -16 -5 -12 -10 -11 -33 11 -16 14 -43 31 -62 38 l-33 12 6 83 c4
45 16 117 27 159 20 74 85 223 98 223 3 0 17 17 30 38 24 37 173 177 246 231
127 93 245 133 446 153 104 10 127 9 194 -7 42 -9 77 -16 79 -14 2 2 14 24 26
48 70 139 245 224 485 238 87 4 123 2 167 -11 78 -22 85 -21 98 19 20 62 124
129 245 160 83 22 321 38 435 30 121 -8 294 -38 345 -59 77 -33 116 8 53 55
-18 13 -59 45 -92 70 -121 90 -435 263 -549 301 -155 51 -591 75 -1112 60
-273 -7 -282 -8 -340 -34 -33 -15 -100 -38 -150 -53 -49 -15 -101 -32 -115
-37 -51 -22 -96 -41 -112 -49 -10 -5 -23 -9 -28 -9 -6 0 -55 -21 -108 -46 -53
-25 -113 -52 -132 -59 -19 -7 -73 -30 -120 -50 -47 -20 -96 -41 -110 -45 -14
-5 -101 -38 -195 -75 -173 -68 -238 -91 -333 -119 -46 -13 -54 -13 -59 -1 -3
8 -10 15 -17 15 -6 0 -18 9 -26 20 -8 11 -19 20 -25 20 -5 0 -37 14 -70 30
-33 16 -67 30 -75 30 -8 0 -40 9 -70 20 -30 11 -64 20 -76 20 -12 0 -24 7 -28
15 -3 8 -16 15 -30 15 -14 0 -32 7 -40 15 -11 12 -25 14 -52 9 -34 -6 -96 6
-136 27 -10 5 -28 9 -42 9 -27 0 -79 43 -185 155 -333 350 -552 546 -779 698
-70 47 -190 131 -267 186 -77 56 -158 109 -180 118 -41 18 -99 47 -410 209
-199 103 -400 193 -514 230 -65 21 -97 25 -265 28 -105 3 -238 1 -296 -4z"/>
</g>
</svg>
