<?xml version="1.0" standalone="no"?>
<!DOCTYPE svg PUBLIC "-//W3C//DTD SVG 20010904//EN"
 "http://www.w3.org/TR/2001/REC-SVG-20010904/DTD/svg10.dtd">
<svg version="1.0" xmlns="http://www.w3.org/2000/svg"
 width="851.000000pt" height="819.000000pt" viewBox="0 0 851.000000 819.000000"
 preserveAspectRatio="xMidYMid meet">
<metadata>
Created by potrace 1.13, written by Peter Selinger 2001-2015
</metadata>
<g transform="translate(0.000000,819.000000) scale(0.100000,-0.100000)"
fill="#000000" stroke="none">
<path d="M2984 8119 c-3 -5 -13 -9 -23 -9 -27 0 -49 -29 -31 -40 7 -4 14 -30
16 -56 2 -27 4 -51 5 -54 1 -3 1 -9 0 -14 -1 -5 12 -20 29 -34 16 -14 30 -31
30 -37 0 -7 7 -16 16 -19 8 -3 13 -10 10 -15 -3 -5 1 -12 10 -15 8 -3 13 -10
9 -15 -3 -5 -1 -12 5 -16 6 -4 8 -11 5 -16 -4 -5 -2 -9 3 -9 5 0 8 -10 8 -22
-1 -13 0 -27 3 -33 13 -24 21 -95 11 -95 -5 0 -8 -12 -6 -27 1 -16 -6 -44 -15
-64 -10 -20 -16 -38 -14 -41 2 -2 -2 -25 -10 -51 -8 -26 -11 -47 -8 -47 3 0 0
-6 -6 -13 -6 -8 -9 -16 -6 -19 3 -3 -4 -13 -15 -23 -11 -10 -20 -26 -20 -36 0
-10 -9 -25 -21 -33 -12 -8 -18 -19 -15 -24 3 -6 -1 -12 -9 -16 -8 -3 -15 -11
-15 -18 0 -16 -66 -78 -74 -70 -3 3 -6 0 -6 -6 0 -7 -5 -12 -10 -12 -6 0 -20
-9 -32 -20 -12 -10 -25 -17 -30 -14 -4 3 -8 2 -8 -3 0 -11 -76 -41 -118 -47
-19 -2 -36 -7 -40 -10 -3 -3 -11 -1 -19 5 -9 8 -13 8 -13 1 0 -6 -6 -9 -14 -6
-8 3 -26 -5 -40 -17 l-26 -23 21 -22 c12 -12 18 -27 15 -33 -4 -5 -1 -13 5
-16 5 -4 8 -13 5 -20 -3 -8 11 -46 30 -85 19 -39 38 -90 43 -113 9 -46 6 -192
-5 -217 -4 -8 -8 -17 -9 -20 -1 -3 -8 -18 -15 -35 -7 -16 -13 -33 -12 -37 1
-5 -2 -8 -7 -8 -5 0 -11 -10 -15 -22 -3 -13 -19 -38 -35 -56 -17 -18 -42 -48
-57 -67 -14 -19 -30 -33 -34 -30 -8 5 -24 -24 -22 -37 1 -5 -4 -8 -11 -8 -7 0
-19 -9 -27 -19 -7 -11 -17 -18 -22 -15 -4 3 -8 0 -8 -5 0 -6 -6 -11 -12 -11
-7 0 -22 -13 -33 -29 -10 -16 -22 -28 -26 -26 -3 3 -18 -10 -32 -28 -14 -18
-34 -42 -44 -53 -72 -84 -98 -116 -98 -124 0 -16 -35 -51 -45 -45 -6 3 -10 -1
-10 -9 0 -9 -4 -16 -9 -16 -5 0 -12 -8 -15 -17 -6 -15 7 -31 27 -31 5 -1 16
-9 25 -19 9 -10 31 -29 47 -42 17 -12 29 -26 29 -29 -1 -4 7 -13 17 -20 11 -7
19 -20 19 -28 0 -8 5 -14 11 -14 5 0 7 -5 3 -12 -4 -6 0 -16 8 -22 8 -6 16
-15 18 -21 1 -5 7 -23 13 -40 6 -16 9 -32 8 -34 -1 -2 2 -7 8 -11 6 -3 12 -32
14 -63 1 -31 5 -57 8 -57 3 0 6 -6 6 -12 2 -25 20 -123 23 -123 1 0 11 -70 12
-92 1 -7 5 -13 9 -13 5 0 7 -46 4 -102 -6 -158 -9 -188 -18 -188 -5 0 -6 -4
-3 -9 3 -5 -1 -27 -9 -50 -8 -23 -12 -41 -10 -41 2 0 -5 -25 -15 -55 -10 -30
-16 -55 -13 -55 3 0 0 -6 -6 -13 -6 -8 -8 -17 -4 -20 3 -4 1 -7 -5 -7 -6 0 -9
-7 -6 -15 4 -8 1 -15 -6 -15 -6 0 -9 -4 -5 -9 3 -5 1 -12 -5 -16 -6 -4 -8 -10
-5 -15 3 -5 1 -11 -5 -15 -6 -4 -8 -11 -5 -16 4 -5 1 -9 -5 -9 -7 0 -10 -5 -8
-12 3 -7 -2 -19 -9 -28 -7 -8 -12 -18 -11 -21 2 -3 -3 -13 -11 -22 -7 -10 -10
-17 -7 -17 4 0 -3 -10 -14 -22 -20 -22 -64 -106 -62 -119 1 -4 -10 -17 -23
-29 -14 -13 -25 -29 -25 -35 0 -6 -8 -20 -18 -31 -10 -11 -27 -38 -37 -60 -10
-23 -30 -48 -44 -57 -26 -15 -28 -15 -47 10 -28 39 -56 63 -65 57 -4 -2 -25 0
-47 4 -23 6 -46 6 -56 0 -10 -6 -16 -5 -16 1 0 17 -62 3 -82 -19 -20 -22 -49
-94 -45 -113 1 -7 8 -16 15 -22 7 -6 15 -24 18 -40 9 -49 28 -71 66 -73 34 -2
65 18 55 35 -7 11 14 38 33 45 18 6 73 -20 65 -31 -8 -13 25 -24 76 -25 25 -1
53 -7 62 -14 17 -15 14 -56 -6 -77 -7 -7 -30 -34 -52 -60 -22 -26 -53 -61 -68
-79 -15 -17 -30 -41 -33 -53 -4 -13 -10 -23 -15 -23 -5 0 -8 -3 -7 -7 3 -14
-13 -73 -21 -73 -4 0 -7 -20 -6 -45 0 -25 -3 -45 -7 -45 -4 0 -5 -10 -3 -22 3
-12 -2 -26 -12 -33 -15 -11 -15 -15 0 -47 9 -20 28 -43 41 -52 23 -14 26 -14
41 0 15 15 14 18 -6 40 -20 21 -20 24 -5 40 16 15 18 15 36 -1 18 -16 19 -16
31 4 8 12 17 17 24 12 22 -18 148 -53 176 -49 16 3 29 1 29 -4 0 -5 4 -7 9 -4
5 3 29 -5 54 -18 25 -14 48 -22 51 -19 3 4 6 1 6 -5 0 -7 3 -11 8 -10 4 1 16
-3 27 -9 11 -6 42 -14 70 -17 50 -7 108 -29 135 -52 8 -7 20 -13 25 -15 6 -1
21 -10 34 -20 24 -19 24 -19 5 -42 -10 -12 -23 -25 -28 -28 -5 -4 -5 -12 -2
-18 4 -6 3 -11 -3 -11 -6 0 -8 -7 -5 -15 4 -8 1 -15 -5 -15 -6 0 -8 -6 -5 -14
3 -7 -2 -21 -11 -30 -9 -9 -13 -20 -10 -26 3 -5 1 -10 -4 -10 -6 0 -11 -6 -11
-14 0 -25 -28 -40 -54 -28 -35 15 -45 -10 -33 -83 10 -62 37 -96 81 -102 11
-2 25 -8 33 -14 10 -9 13 -8 13 1 0 8 3 10 7 7 5 -6 59 29 89 58 7 6 12 39 12
74 0 34 4 67 10 73 6 6 8 17 5 24 -7 18 16 74 31 75 6 0 20 3 31 5 23 6 20 6
105 4 36 -1 67 -1 70 0 24 7 160 5 160 -3 0 -6 4 -6 13 0 13 10 96 9 137 -1
23 -6 90 -16 133 -19 9 -1 17 -5 17 -10 0 -4 4 -6 9 -3 5 3 37 -3 72 -14 34
-11 77 -23 93 -26 17 -3 51 -11 76 -18 25 -7 47 -13 50 -13 10 1 82 -25 108
-39 14 -7 29 -11 34 -8 4 3 8 0 8 -6 0 -6 4 -9 8 -6 5 3 19 -4 30 -15 12 -11
22 -18 22 -15 0 3 14 0 30 -5 17 -6 30 -16 30 -23 0 -6 9 -18 20 -26 11 -8 20
-20 20 -26 0 -7 6 -15 13 -17 6 -3 7 -6 1 -6 -5 -1 -9 -15 -8 -31 1 -17 -2
-30 -7 -30 -14 0 -11 -27 4 -32 30 -12 129 6 164 29 12 8 27 12 33 8 5 -3 10
-2 10 4 0 6 16 13 35 17 19 3 35 10 35 16 0 5 4 7 8 4 5 -3 21 1 36 9 24 13
103 39 129 44 4 0 9 2 12 2 3 1 10 3 15 4 6 1 11 3 13 4 1 2 13 4 27 6 32 6
65 13 65 15 0 1 18 3 40 6 22 2 52 9 67 13 14 5 38 8 52 7 14 -2 26 0 26 4 0
3 12 7 28 7 57 1 122 8 122 13 0 5 396 4 433 -1 9 -1 17 -6 17 -10 0 -8 38
-19 90 -26 19 -3 49 -13 65 -23 17 -9 45 -17 62 -15 39 2 45 -2 61 -38 6 -15
27 -35 45 -43 28 -13 29 -14 6 -11 -33 5 -56 -18 -39 -38 7 -8 16 -13 20 -10
5 3 16 -2 24 -11 9 -8 16 -12 16 -8 0 3 7 1 15 -6 8 -7 15 -9 15 -6 0 4 10 0
21 -8 17 -11 27 -12 45 -4 13 6 24 15 24 20 0 4 3 7 8 5 8 -2 52 40 51 51 0 4
-7 11 -15 15 -8 5 -12 12 -10 16 5 8 -93 56 -106 53 -5 -1 -8 6 -8 16 0 16 9
18 75 18 41 0 75 -3 75 -7 0 -6 39 -20 62 -23 3 -1 10 -4 14 -8 4 -5 13 -8 19
-8 7 0 30 -8 51 -17 22 -9 42 -16 47 -15 4 1 7 -2 7 -6 0 -5 6 -9 14 -9 24 0
106 -34 106 -44 0 -5 8 -9 18 -9 9 0 40 -21 67 -45 28 -25 54 -45 58 -45 5 0
5 -5 2 -10 -3 -6 1 -13 9 -16 9 -3 16 -11 16 -16 0 -6 12 -21 28 -34 15 -13
23 -24 19 -24 -4 0 1 -10 12 -22 11 -11 18 -24 16 -28 -3 -5 2 -11 11 -14 8
-3 12 -10 9 -16 -3 -5 -2 -10 3 -10 5 0 12 -19 15 -41 7 -55 32 -73 60 -44 8
8 17 12 20 9 3 -4 12 -2 19 2 7 5 22 10 32 11 11 2 32 10 48 17 17 9 28 10 28
4 0 -7 5 -6 15 2 8 6 19 9 25 5 5 -3 10 -2 10 3 0 8 14 12 53 13 9 0 17 4 17
9 0 5 17 14 38 21 20 7 52 18 69 26 18 7 34 12 35 11 2 -1 13 4 26 11 31 17
143 17 183 1 19 -8 43 -22 53 -32 11 -10 25 -18 31 -18 5 0 27 -9 48 -20 22
-12 61 -22 90 -23 48 -2 52 0 51 21 0 12 3 22 8 22 5 0 6 4 3 10 -3 5 -8 23
-10 40 -5 41 -47 112 -86 144 -17 14 -27 26 -23 26 3 0 -5 9 -19 20 -14 11
-29 20 -34 20 -5 0 -20 11 -33 25 -13 14 -26 23 -28 20 -3 -3 -11 0 -19 6 -7
6 -13 8 -13 3 0 -4 -10 2 -23 14 -19 18 -127 72 -142 72 -3 -1 -13 6 -21 15
-9 8 -22 15 -30 15 -23 0 -28 1 -49 13 -11 6 -28 12 -38 14 -10 2 -32 11 -50
20 -18 9 -36 16 -41 15 -5 -2 -16 4 -25 12 -9 8 -20 15 -26 16 -5 2 -21 7 -35
13 -14 6 -28 10 -32 9 -5 -1 -8 2 -8 7 0 8 -49 25 -59 21 -2 -1 -7 2 -10 7 -6
8 -76 43 -86 43 -3 0 -20 7 -38 17 -17 9 -35 16 -39 15 -5 -1 -8 3 -8 9 0 5
-4 8 -9 4 -5 -3 -12 -2 -15 3 -2 4 -19 9 -37 10 -18 2 -36 6 -39 10 -3 5 -15
8 -27 9 -13 0 -24 2 -25 3 -3 2 -25 5 -80 11 -16 2 -28 6 -28 9 0 3 -12 6 -27
6 -16 1 -41 4 -58 8 -16 3 -48 9 -70 12 -41 5 -76 11 -85 14 -3 1 -9 2 -14 1
-4 -1 -13 3 -20 8 -6 6 -25 12 -41 15 -17 3 -55 15 -85 27 -30 11 -62 22 -70
24 -8 2 -16 4 -17 5 -2 2 -6 3 -10 5 -38 10 -62 15 -83 18 -14 2 -42 11 -62
21 -21 9 -44 16 -53 16 -8 0 -15 4 -15 10 0 5 -3 9 -7 9 -5 -1 -11 0 -15 1 -5
1 -12 4 -18 5 -5 1 -11 3 -12 4 -2 2 -16 5 -33 7 -61 11 -70 12 -70 14 0 1
-16 3 -35 5 -19 3 -51 8 -70 11 -19 4 -41 6 -47 5 -7 -1 -13 3 -13 9 0 5 7 10
15 10 8 0 15 4 15 9 0 5 9 13 20 16 11 3 20 11 20 16 0 11 13 28 58 76 17 19
32 36 32 38 0 2 12 16 28 32 38 40 62 72 62 81 0 4 5 13 12 20 6 6 13 17 14
24 1 7 7 33 15 58 7 25 12 51 10 58 -1 6 2 12 6 12 13 0 10 44 -4 58 -10 11
-15 10 -27 -5 -72 -88 -86 -104 -86 -99 0 4 -11 -1 -24 -10 -28 -18 -79 -24
-116 -14 -14 4 -35 4 -47 -1 -37 -14 -60 -1 -55 30 3 21 -2 33 -20 47 -13 10
-30 34 -37 52 -8 18 -21 36 -29 41 -15 8 -15 12 -2 38 8 15 19 31 25 35 5 4 7
8 3 8 -4 0 -3 12 3 28 6 15 11 42 11 60 0 17 4 32 10 32 5 0 6 5 3 11 -4 5 -7
40 -8 77 0 37 -4 69 -7 72 -4 3 -10 23 -13 45 -9 58 -26 103 -43 109 -18 7
-68 -40 -59 -54 3 -6 1 -10 -5 -10 -6 0 -9 -4 -5 -10 3 -5 -2 -17 -12 -27 -15
-15 -34 -18 -93 -18 -41 1 -79 -1 -85 -4 -5 -3 -19 -6 -30 -6 -45 -3 -101 -19
-126 -36 -14 -10 -29 -16 -33 -12 -3 3 -6 -1 -6 -11 0 -9 -4 -15 -9 -12 -4 3
-23 -8 -41 -24 -26 -23 -36 -27 -47 -18 -10 8 -11 13 -2 18 21 14 -1 29 -37
25 -23 -2 -48 4 -70 17 -19 11 -34 18 -34 15 0 -3 -12 0 -27 8 -19 10 -32 11
-46 3 -10 -5 -38 -7 -61 -4 -22 4 -58 8 -78 10 -21 2 -39 4 -40 6 -9 7 -43 7
-66 1 -26 -8 -49 3 -48 21 1 4 -7 17 -17 28 -10 12 -15 25 -12 30 3 5 1 11 -5
15 -5 3 -10 16 -9 28 0 36 -22 131 -36 153 -11 17 -24 79 -27 129 -1 24 12
154 18 169 3 9 1 16 -5 16 -15 0 -14 16 2 32 7 7 13 22 13 33 1 11 3 27 6 35
13 35 31 107 35 140 3 19 10 44 16 55 6 11 10 23 9 27 -1 4 5 25 12 46 8 22
12 43 9 46 -4 3 -1 6 5 6 6 0 9 7 6 15 -4 8 -1 15 5 15 6 0 8 7 5 15 -4 9 0
15 7 15 11 0 11 3 -1 11 -11 8 -12 12 -2 16 6 2 10 9 6 14 -3 5 -1 9 5 9 6 0
8 7 5 15 -4 8 -1 15 5 15 6 0 8 6 5 14 -3 8 4 34 15 59 12 25 21 51 21 56 0 6
4 11 10 11 5 0 7 7 4 15 -4 8 -1 15 6 15 6 0 8 5 5 10 -3 6 -2 10 4 10 5 0 12
14 16 30 4 17 11 30 15 30 5 0 7 7 4 15 -4 8 -2 15 3 15 5 0 20 24 33 53 13
28 32 61 42 71 10 11 15 22 10 25 -4 3 -7 16 -6 29 1 12 -2 22 -6 22 -4 0 -8
12 -8 28 0 15 -2 56 -6 91 -5 61 -4 65 30 106 34 42 35 44 20 78 -8 19 -24 38
-35 42 -27 8 -40 34 -46 87 -3 24 -7 57 -10 73 -3 17 -7 47 -10 68 -2 22 -6
51 -9 65 -3 15 -8 41 -11 57 -10 65 -17 85 -28 85 -8 0 -8 3 -2 8 10 6 12 23
5 37 -1 3 -4 10 -5 15 -1 6 -3 11 -5 13 -1 1 -3 11 -5 22 -5 26 -13 60 -15 60
-3 0 -11 39 -13 62 -1 13 -5 23 -8 23 -3 0 -6 6 -6 13 -1 29 -42 190 -50 196
-4 3 -15 20 -23 36 -8 17 -21 36 -27 43 -7 7 -13 19 -13 26 0 7 -8 20 -18 30
-10 9 -32 41 -48 72 -16 31 -41 69 -57 85 -15 16 -24 29 -21 29 7 0 -40 84
-73 128 -13 17 -22 36 -19 41 3 5 -1 12 -10 15 -9 4 -14 9 -11 12 8 8 -42 104
-54 104 -6 0 -8 4 -4 9 3 5 -6 18 -20 29 -13 11 -22 22 -19 24 2 3 -11 16 -31
29 -19 13 -35 30 -35 36 0 7 -9 18 -20 25 -11 7 -20 18 -20 25 0 6 -3 13 -7
15 -5 2 -28 28 -52 58 -25 30 -54 63 -65 72 -12 10 -17 18 -13 18 11 0 -5 15
-68 65 -27 22 -53 45 -57 50 -4 6 -8 6 -8 1 0 -5 -8 -2 -17 6 -21 18 -71 29
-79 17z"/>
</g>
</svg>
