<?xml version="1.0" standalone="no"?>
<!DOCTYPE svg PUBLIC "-//W3C//DTD SVG 20010904//EN"
 "http://www.w3.org/TR/2001/REC-SVG-20010904/DTD/svg10.dtd">
<svg version="1.0" xmlns="http://www.w3.org/2000/svg"
 width="354.000000pt" height="358.000000pt" viewBox="0 0 354.000000 358.000000"
 preserveAspectRatio="xMidYMid meet">
<metadata>
Created by potrace 1.13, written by Peter Selinger 2001-2015
</metadata>
<g transform="translate(0.000000,358.000000) scale(0.100000,-0.100000)"
fill="#000000" stroke="none">
<path d="M1625 3263 c-8 -12 -15 -25 -15 -29 0 -4 -7 -16 -17 -26 -15 -17 -15
-19 2 -38 13 -14 22 -17 30 -10 19 16 52 6 79 -23 14 -15 22 -27 19 -27 -3 0
2 -9 11 -19 10 -11 15 -24 12 -30 -4 -5 3 -12 14 -16 13 -4 20 -15 20 -31 0
-13 8 -31 19 -40 18 -16 18 -17 1 -34 -18 -18 -21 -64 -6 -88 4 -7 3 -12 -1
-12 -5 0 -8 -18 -7 -40 0 -22 -2 -40 -5 -40 -4 0 -6 -20 -6 -45 1 -25 -1 -45
-4 -45 -10 0 -7 -85 3 -92 6 -4 6 -20 -1 -42 -9 -28 -8 -36 4 -40 8 -3 12 -10
9 -14 -3 -5 4 -19 15 -30 11 -12 17 -22 14 -22 -4 0 8 -12 27 -27 18 -15 35
-30 38 -33 3 -3 18 -15 33 -27 28 -21 28 -21 5 -29 -13 -4 -24 -2 -26 5 -2 6
-9 11 -17 11 -7 0 -18 6 -24 14 -7 9 -27 12 -59 10 -26 -2 -67 3 -92 10 -56
17 -133 13 -165 -8 -13 -9 -35 -18 -47 -20 -13 -3 -23 -5 -23 -6 0 -1 -10 -3
-23 -6 -13 -2 -33 -10 -45 -16 -12 -7 -24 -13 -27 -13 -3 0 -15 -6 -28 -13
-12 -7 -26 -10 -31 -8 -5 3 -12 -1 -15 -9 -3 -8 -9 -15 -13 -14 -4 1 -11 0
-15 -1 -5 -1 -11 -3 -15 -5 -18 -5 -49 -17 -65 -26 -10 -5 -24 -9 -32 -9 -7 0
-25 -9 -39 -20 -28 -22 -72 -27 -83 -8 -5 8 -11 6 -20 -6 -8 -11 -14 -13 -19
-6 -3 5 -11 8 -16 5 -5 -4 -9 -2 -9 3 0 6 -15 12 -32 15 -53 8 -79 16 -94 27
-7 7 -18 9 -23 6 -5 -4 -12 -2 -15 3 -3 5 -18 12 -32 15 -15 4 -35 17 -44 29
-15 18 -20 19 -34 8 -10 -8 -15 -24 -13 -40 2 -14 1 -36 -4 -48 -5 -15 -3 -25
7 -34 12 -10 18 -8 35 10 15 15 25 19 37 12 9 -5 20 -8 24 -8 4 1 16 -6 28
-15 11 -10 20 -16 20 -13 0 3 16 -1 35 -9 20 -9 41 -13 49 -10 7 3 18 -1 24
-9 7 -8 23 -13 37 -12 14 2 27 -1 31 -6 3 -5 18 -9 34 -9 38 0 44 -12 21 -41
-19 -25 -18 -49 3 -49 6 0 27 16 46 35 19 19 39 35 43 35 5 0 23 11 41 25 18
14 38 25 44 25 7 0 12 5 12 10 0 6 10 15 23 20 12 6 36 19 52 29 56 36 171 91
188 91 9 0 17 -4 17 -9 0 -5 12 -14 28 -19 15 -6 20 -11 12 -11 -17 -1 -110
-88 -110 -103 0 -5 -4 -7 -9 -4 -4 3 -21 -11 -37 -30 -55 -69 -49 -65 -126
-67 -16 -1 -28 -4 -28 -8 0 -4 -14 -9 -30 -12 -17 -4 -36 -8 -44 -9 -32 -8
-113 -74 -103 -85 5 -4 0 -12 -46 -66 -43 -51 -69 -86 -68 -91 1 -6 -30 -45
-66 -83 -13 -13 -23 -27 -23 -31 0 -4 -16 -31 -35 -60 -19 -29 -33 -55 -32
-57 1 -2 -6 -13 -15 -24 -9 -11 -14 -28 -11 -39 6 -25 -47 -57 -89 -54 -18 2
-28 -3 -28 -11 0 -9 -11 -13 -31 -12 -19 1 -33 -4 -36 -12 -4 -10 -14 -12 -33
-8 -16 3 -31 2 -34 -3 -3 -6 -21 -8 -40 -5 -19 2 -37 0 -40 -6 -4 -7 -15 -7
-30 -1 -13 5 -27 6 -30 3 -3 -4 -6 -1 -6 6 0 7 -5 9 -12 5 -7 -4 -8 -3 -4 5 4
6 0 23 -9 37 -14 22 -17 23 -31 9 -8 -8 -12 -19 -9 -25 3 -5 1 -10 -5 -10 -8
0 -10 -9 -6 -24 3 -14 3 -27 -2 -30 -4 -2 -9 -18 -10 -34 -3 -40 21 -48 46
-17 11 13 22 21 26 18 3 -3 26 -5 50 -5 25 1 47 -2 51 -8 3 -5 15 -6 28 -2 12
5 32 7 44 6 13 0 23 3 23 8 0 5 12 8 28 7 34 -3 72 9 72 23 0 7 4 7 13 -1 10
-8 24 -6 55 9 22 11 44 24 47 30 16 26 23 6 10 -30 -13 -36 -13 -41 4 -49 13
-7 22 -5 35 10 9 11 14 24 11 29 -4 6 -2 10 4 10 6 0 13 11 17 25 3 14 9 25
13 25 4 0 7 10 8 22 2 22 14 58 41 118 8 19 14 37 13 39 -2 2 1 7 6 10 8 6 29
47 32 66 1 6 12 20 23 33 12 12 17 22 12 22 -5 0 -1 7 10 15 10 7 15 18 11 24
-3 6 -1 11 4 11 6 0 11 7 11 15 0 8 5 15 10 15 6 0 10 5 10 11 0 6 10 23 23
38 17 20 28 26 42 21 11 -4 31 -3 44 2 17 6 27 5 32 -4 4 -7 4 -15 0 -18 -5
-3 -11 -15 -15 -27 -4 -13 -11 -23 -15 -23 -3 0 -7 -8 -8 -17 0 -10 -4 -36 -8
-58 -4 -22 -7 -69 -7 -105 1 -76 8 -126 27 -210 10 -46 17 -95 16 -117 0 -12
4 -25 9 -28 6 -4 8 -11 5 -16 -4 -5 -2 -9 3 -9 5 0 25 -13 43 -30 35 -30 80
-46 99 -35 5 3 10 2 10 -3 0 -5 20 -6 45 -2 25 4 45 3 45 -2 0 -5 4 -7 9 -3
16 9 71 13 71 4 0 -5 6 -6 13 -3 8 3 49 7 93 9 43 2 79 4 79 5 0 1 8 4 48 13
6 2 22 9 35 15 12 7 22 10 22 7 0 -3 23 13 51 35 28 22 54 40 58 40 4 0 8 -19
10 -42 1 -23 5 -45 9 -48 4 -3 7 -11 6 -17 -1 -7 -2 -18 -3 -24 0 -5 -4 -8 -8
-6 -5 3 -21 -13 -38 -34 -16 -21 -35 -38 -41 -39 -7 0 -15 -7 -18 -16 -3 -8
-10 -12 -16 -9 -6 3 -13 -1 -16 -9 -3 -9 -12 -16 -20 -16 -8 0 -14 -4 -14 -9
0 -4 -20 -19 -45 -32 -25 -13 -45 -27 -45 -31 0 -5 -7 -8 -15 -8 -8 0 -15 -4
-15 -8 0 -9 -37 -29 -54 -30 -5 0 -12 -4 -15 -9 -8 -11 -48 -33 -61 -33 -6 0
-24 -10 -40 -22 -31 -22 -39 -47 -17 -49 6 -1 19 -2 27 -3 8 -1 21 3 29 9 12
8 13 5 7 -19 -4 -17 -15 -35 -24 -42 -9 -7 -17 -29 -19 -55 -1 -24 -4 -69 -6
-99 -2 -30 -1 -67 4 -82 5 -17 4 -28 -2 -28 -6 0 -3 -7 5 -16 15 -14 20 -28
17 -46 0 -5 4 -8 10 -8 5 0 7 -5 4 -10 -3 -6 3 -23 13 -38 14 -19 18 -32 11
-44 -6 -11 -4 -21 7 -32 14 -15 18 -13 42 16 15 18 33 40 41 50 8 9 16 24 17
32 3 20 -22 41 -31 26 -9 -15 -25 -12 -25 4 0 8 -5 16 -10 18 -6 2 -13 21 -15
43 -3 21 -10 42 -16 46 -8 4 -8 9 -1 13 6 3 8 20 5 37 -2 17 1 37 8 45 6 8 7
14 2 14 -14 0 -8 61 7 70 7 4 9 13 6 19 -4 6 -3 11 3 11 5 0 12 14 16 31 6 27
9 29 23 16 15 -13 19 -13 30 -1 7 8 10 19 7 24 -3 6 -1 10 4 10 6 0 21 11 33
25 11 13 24 22 28 20 4 -3 15 7 24 20 9 14 21 23 26 20 6 -4 10 -2 10 4 0 5
11 22 25 37 14 15 25 24 25 20 0 -4 7 -1 15 8 8 8 15 19 15 25 0 6 3 11 8 11
20 0 125 117 117 130 -3 6 -2 10 3 10 12 0 67 55 68 69 1 6 2 12 4 14 13 15
19 217 6 235 -5 7 -4 12 3 12 7 0 10 4 7 9 -3 5 5 20 19 32 13 13 25 30 25 37
0 7 14 26 30 44 17 17 30 35 30 40 0 4 12 27 26 50 l27 42 15 -30 c8 -16 15
-31 14 -34 0 -3 6 -9 13 -13 10 -5 12 -14 5 -31 -5 -13 -6 -27 -3 -30 4 -3 1
-6 -5 -6 -6 0 -9 -7 -6 -15 4 -8 1 -15 -6 -15 -6 0 -9 -4 -5 -9 6 -11 -44
-143 -58 -152 -5 -4 -6 -12 -3 -18 4 -6 3 -11 -3 -11 -6 0 -8 -6 -5 -14 3 -7
-2 -16 -10 -19 -9 -4 -16 -12 -16 -18 0 -7 -16 -31 -35 -55 -34 -41 -35 -43
-16 -54 15 -8 22 -7 28 4 13 21 50 29 57 11 3 -8 3 -22 0 -30 -4 -8 3 -32 13
-52 11 -21 18 -44 16 -50 -3 -7 0 -13 5 -13 14 0 22 -40 9 -40 -7 -1 -1 -7 13
-15 14 -8 21 -14 17 -15 -4 0 -2 -10 5 -22 7 -13 11 -26 10 -31 -1 -4 2 -7 8
-7 5 0 10 -9 10 -20 0 -11 5 -20 10 -20 6 0 10 -7 10 -15 0 -8 5 -15 10 -15 7
0 7 -7 0 -20 -8 -16 -7 -24 4 -36 14 -13 17 -13 35 5 11 11 28 21 38 23 29 5
47 36 32 54 -9 11 -14 12 -20 3 -10 -17 -78 59 -74 83 2 10 -4 24 -15 30 -13
9 -16 16 -9 24 7 8 5 17 -5 27 -8 8 -12 24 -9 35 3 14 -1 22 -16 27 -16 5 -18
11 -12 27 5 14 2 36 -7 60 -13 33 -13 40 1 61 8 13 14 38 13 55 -1 18 2 32 8
32 5 0 7 3 3 6 -3 3 1 24 9 46 7 22 12 44 9 48 -3 5 0 10 5 12 6 2 13 26 16
53 4 28 9 57 13 65 4 8 7 33 6 55 0 22 5 46 12 53 8 8 9 22 3 42 -5 17 -9 33
-9 35 -1 3 -2 7 -2 10 -1 3 -2 8 -3 13 -4 21 -32 72 -39 72 -5 0 -5 5 -2 10 3
6 0 12 -7 15 -8 3 -13 19 -13 41 1 24 -6 43 -22 60 -13 14 -23 31 -23 38 0 6
-5 17 -11 23 -6 6 -7 13 -2 16 6 4 26 -9 46 -28 21 -19 43 -35 51 -35 7 0 19
-7 26 -15 25 -30 124 -62 136 -43 3 4 10 6 15 3 5 -4 12 1 15 10 4 9 11 12 18
7 6 -4 22 -7 36 -5 14 2 33 4 43 4 9 0 17 3 17 7 0 4 12 8 28 9 25 3 61 9 72
13 3 1 8 2 13 1 4 0 7 3 7 9 0 5 9 10 20 10 11 0 20 4 20 9 0 4 14 8 32 7 24
-1 35 5 44 21 6 13 13 21 15 19 2 -2 18 -6 34 -8 65 -8 254 -116 240 -138 -2
-4 4 -15 15 -25 14 -12 20 -14 20 -5 0 10 3 10 15 0 12 -10 18 -9 31 5 14 14
15 20 4 41 -8 13 -16 24 -19 24 -4 0 -24 15 -46 34 -22 19 -43 32 -47 29 -5
-2 -7 0 -6 5 4 12 -56 62 -74 62 -7 0 -24 7 -36 16 -12 8 -22 12 -22 8 0 -3
-12 1 -26 11 -14 9 -32 14 -39 11 -22 -8 -27 10 -9 29 15 14 15 18 3 31 -13
12 -20 10 -51 -11 -20 -14 -42 -25 -47 -25 -6 0 -11 -4 -11 -10 0 -5 -6 -10
-14 -10 -8 0 -16 -4 -18 -8 -4 -10 -139 -75 -155 -75 -7 0 -13 -4 -13 -9 0 -4
-3 -7 -7 -7 -5 1 -10 1 -13 -1 -27 -10 -57 -7 -79 7 -14 10 -29 18 -33 19 -5
1 -9 2 -10 3 -2 2 -14 5 -28 7 -13 2 -27 9 -31 15 -3 6 -9 10 -13 10 -3 -1 -8
0 -11 0 -3 1 -9 3 -15 4 -5 1 -15 3 -21 4 -7 0 1 11 17 23 45 35 56 47 50 57
-4 5 -2 11 3 13 16 5 21 59 8 82 -6 12 -11 25 -12 29 0 4 -7 12 -15 17 -13 9
-13 10 0 11 8 1 18 1 22 0 17 -2 50 61 44 84 -5 20 -3 24 11 21 37 -8 63 -19
63 -25 0 -6 46 -60 101 -119 12 -12 24 -20 27 -18 2 3 10 0 18 -7 33 -30 41
-34 61 -31 12 2 25 -1 28 -6 4 -6 11 -8 16 -5 5 4 9 1 9 -6 0 -8 4 -8 13 -2 6
6 21 8 32 6 19 -4 97 -4 118 0 6 1 19 10 29 20 10 9 26 17 37 17 10 0 26 11
35 24 8 14 26 35 40 49 32 32 39 59 22 83 -14 18 -15 18 -41 -11 -14 -17 -35
-47 -47 -67 -12 -21 -29 -39 -37 -39 -48 -4 -62 -7 -73 -16 -7 -6 -22 -7 -33
-3 -11 4 -29 4 -40 0 -13 -5 -28 -3 -39 6 -11 7 -23 11 -28 8 -5 -3 -20 1 -33
10 -13 9 -31 16 -40 16 -8 0 -14 5 -12 12 1 6 -8 17 -20 23 -12 6 -33 25 -45
41 -12 16 -30 36 -40 45 -10 9 -18 20 -18 23 0 12 -27 36 -34 31 -3 -3 -3 -2
0 3 3 4 9 7 12 7 4 1 17 6 28 13 12 6 24 8 28 5 3 -3 6 1 6 10 0 10 6 17 14
17 8 0 24 12 35 26 l21 26 -23 19 c-21 18 -22 18 -39 -2 -9 -11 -20 -18 -25
-17 -4 1 -19 -5 -33 -14 -26 -17 -83 -35 -65 -21 11 8 12 39 2 87 -6 30 -28
55 -65 75 -19 10 -23 8 -38 -21 -12 -22 -19 -28 -22 -18 -3 7 0 16 7 18 9 3 9
8 1 17 -8 9 -8 15 0 20 5 3 10 15 10 26 0 10 6 19 14 19 22 0 25 36 5 54 -11
9 -19 13 -19 10 0 -4 -6 -1 -14 5 -11 9 -15 8 -21 -6 -5 -10 -7 -21 -7 -25 1
-5 -2 -8 -8 -8 -5 0 -7 -7 -4 -15 4 -8 1 -15 -5 -15 -5 0 -15 -18 -21 -40 -6
-22 -14 -40 -18 -40 -11 1 -43 27 -42 34 0 4 -6 14 -15 22 -8 9 -15 13 -15 9
0 -4 -12 3 -26 14 -15 12 -32 21 -38 21 -23 0 -106 94 -106 120 0 9 -9 25 -20
35 -22 20 -27 45 -9 45 8 0 9 4 0 13 -6 8 -8 17 -4 20 3 4 2 7 -3 7 -11 0 -11
34 1 70 9 28 33 55 42 46 3 -3 14 4 24 16 11 11 19 18 19 14 0 -4 6 -1 14 6
23 22 -5 68 -36 60 -10 -2 -18 -11 -18 -18 0 -8 -9 -14 -20 -14 -11 0 -20 -3
-20 -7 0 -5 -14 -24 -30 -43 -17 -19 -28 -40 -26 -47 3 -6 -1 -17 -9 -23 -13
-10 -12 -70 1 -91 3 -5 1 -9 -4 -9 -6 0 -8 -9 -5 -20 3 -11 10 -20 15 -20 6 0
8 -7 4 -15 -3 -9 4 -25 15 -36 11 -11 18 -26 16 -33 -6 -16 66 -95 111 -121
17 -11 32 -23 32 -27 0 -4 7 -8 16 -8 9 0 29 -11 46 -25 16 -14 27 -25 24 -25
-4 0 1 -11 10 -25 9 -14 15 -25 13 -26 -2 0 -15 -3 -29 -5 -14 -3 -26 -9 -28
-14 -2 -6 -10 -10 -18 -10 -8 0 -14 -6 -14 -12 0 -7 -4 -19 -9 -27 -8 -12 -12
-12 -25 -2 -9 7 -23 11 -31 7 -8 -3 -15 -1 -15 3 0 5 -18 4 -40 -1 -48 -12
-100 -57 -100 -86 0 -12 -4 -23 -9 -26 -9 -6 -44 41 -44 59 0 5 -17 24 -38 40
l-39 30 6 60 c3 33 6 68 7 78 1 9 4 17 7 17 3 0 6 8 7 18 2 23 7 45 14 57 5 8
30 77 34 95 1 3 7 18 13 33 15 35 15 40 0 55 -8 8 -16 6 -29 -9 -18 -20 -18
-20 -29 19 -5 22 -17 43 -26 46 -8 3 -12 10 -9 16 3 5 1 10 -4 10 -6 0 -11 7
-11 15 0 8 -4 15 -10 15 -5 0 -9 3 -8 8 2 8 -61 77 -71 77 -4 0 -22 13 -41 28
-23 20 -30 31 -21 36 17 11 3 40 -20 38 -11 -1 -26 -11 -34 -24z"/>
</g>
</svg>
