<?xml version="1.0" standalone="no"?>
<!DOCTYPE svg PUBLIC "-//W3C//DTD SVG 20010904//EN"
 "http://www.w3.org/TR/2001/REC-SVG-20010904/DTD/svg10.dtd">
<svg version="1.0" xmlns="http://www.w3.org/2000/svg"
 width="229.000000pt" height="274.000000pt" viewBox="0 0 229.000000 274.000000"
 preserveAspectRatio="xMidYMid meet">
<metadata>
Created by potrace 1.13, written by Peter Selinger 2001-2015
</metadata>
<g transform="translate(0.000000,274.000000) scale(0.100000,-0.100000)"
fill="#000000" stroke="none">
<path d="M1793 2646 c7 -78 5 -85 -16 -107 -13 -13 -27 -32 -30 -42 -4 -9 -15
-20 -24 -24 -10 -4 -24 -15 -31 -25 -7 -10 -22 -18 -33 -18 -10 0 -19 -4 -19
-9 0 -25 -119 -33 -227 -14 -46 8 -87 12 -92 9 -5 -4 0 12 10 35 11 22 23 63
26 90 l6 49 -32 0 c-28 0 -31 -3 -31 -30 0 -16 -4 -30 -10 -30 -5 0 -10 -8
-10 -17 0 -10 -9 -31 -19 -47 -18 -27 -19 -27 -26 -7 -12 38 -67 71 -119 71
l-47 0 3 -35 c1 -19 -1 -37 -5 -41 -4 -4 -7 2 -7 14 0 12 -4 22 -10 22 -5 0
-10 8 -10 18 0 10 -3 22 -7 26 -4 4 -7 19 -8 34 0 21 -5 28 -25 30 -14 1 -31
-2 -39 -7 -15 -10 -10 -37 26 -135 l14 -39 -39 6 c-21 4 -65 2 -98 -4 -80 -14
-125 -16 -130 -7 -3 5 -16 8 -28 8 -13 0 -29 7 -36 15 -7 8 -26 15 -42 15 -21
0 -31 6 -35 20 -3 10 -13 22 -22 25 -38 12 -81 116 -52 127 5 2 12 22 16 45 6
40 5 43 -20 49 -15 4 -31 2 -37 -4 -15 -15 -23 -168 -9 -176 6 -4 11 -15 11
-25 0 -21 76 -101 95 -101 7 0 15 -7 19 -15 3 -8 16 -15 29 -15 14 0 30 -6 36
-14 17 -20 103 -27 193 -14 60 8 91 7 119 -1 42 -13 47 -22 25 -40 -21 -17
-29 -66 -16 -90 9 -19 8 -21 -14 -21 -40 0 -93 -60 -101 -114 -4 -27 -2 -52 5
-66 17 -31 6 -35 -43 -16 -23 9 -61 16 -84 16 -38 0 -45 4 -71 43 -41 60 -74
128 -112 235 -25 72 -37 92 -51 92 -14 0 -19 -7 -19 -26 0 -26 -1 -26 -23 -10
-26 19 -25 19 -102 42 -40 12 -88 17 -142 16 -77 -1 -83 0 -83 18 0 13 -7 20
-20 20 -25 0 -34 -35 -23 -91 7 -38 12 -44 36 -47 21 -3 27 1 27 16 0 12 9 22
21 25 25 7 129 -14 129 -25 0 -4 13 -8 29 -8 16 0 31 -6 35 -15 3 -8 18 -15
34 -15 26 0 28 -3 24 -29 -3 -22 1 -32 18 -41 12 -6 48 -53 81 -103 63 -95
113 -157 128 -157 5 0 11 -11 15 -23 8 -34 86 -57 188 -57 69 0 79 -2 68 -15
-6 -7 -32 -17 -56 -21 -29 -4 -55 -17 -75 -35 -17 -16 -54 -41 -83 -55 -63
-31 -91 -57 -107 -97 -7 -18 -23 -45 -35 -62 -12 -16 -52 -88 -89 -160 -36
-71 -71 -136 -77 -143 -6 -6 -13 -27 -17 -45 -5 -23 -15 -36 -38 -47 -18 -8
-33 -21 -33 -27 0 -7 -12 -16 -27 -19 -15 -4 -34 -13 -41 -21 -7 -7 -22 -13
-32 -13 -10 0 -22 -4 -25 -10 -3 -5 -17 -10 -31 -10 -13 0 -24 -4 -24 -9 0
-12 -74 -29 -104 -24 -22 5 -26 2 -26 -20 0 -14 8 -32 19 -39 10 -7 21 -23 25
-35 11 -35 46 -30 46 5 0 25 6 30 43 42 23 7 58 18 77 23 19 6 42 17 51 24 8
7 20 13 25 13 6 0 37 14 69 30 32 17 62 30 67 30 4 0 8 -16 8 -35 0 -27 4 -35
19 -35 14 0 20 12 29 58 27 151 126 428 155 437 7 2 24 6 38 9 26 6 26 5 18
-37 -4 -23 -11 -89 -15 -147 -4 -63 -12 -110 -20 -117 -39 -39 -86 -105 -104
-145 -19 -43 -19 -55 -10 -229 12 -225 39 -419 57 -419 7 0 13 -7 13 -15 0
-19 -29 -67 -47 -78 -7 -4 -13 -16 -13 -26 0 -10 -9 -26 -20 -36 -11 -10 -20
-26 -20 -37 0 -10 -7 -18 -15 -18 -9 0 -20 -11 -25 -24 -5 -13 -18 -27 -29
-31 -12 -3 -21 -13 -21 -20 0 -8 -17 -23 -38 -34 -31 -16 -39 -17 -50 -5 -7 8
-22 14 -34 14 -18 0 -20 -4 -14 -33 3 -17 13 -37 21 -43 8 -6 15 -17 15 -25 1
-21 25 -49 44 -49 12 0 16 9 16 34 0 25 5 36 19 41 10 3 26 14 36 25 10 11 26
20 37 20 10 0 18 4 18 9 0 4 14 22 30 39 17 18 30 36 30 41 0 5 8 12 19 16 10
3 21 19 25 35 3 17 12 30 19 30 15 0 47 61 47 90 0 31 15 23 29 -15 9 -25 18
-35 33 -35 19 0 20 4 14 52 -4 29 -20 81 -35 117 -32 76 -54 161 -82 310 -21
117 -24 161 -9 161 5 0 23 14 39 31 32 33 35 31 46 -21 18 -91 136 -241 253
-321 12 -9 39 -32 60 -51 21 -19 48 -40 59 -47 26 -13 102 -15 135 -2 21 8
232 184 283 236 56 56 90 117 106 192 7 32 14 60 15 62 2 2 22 -13 44 -33 22
-20 44 -36 49 -36 32 0 -51 -350 -113 -481 -14 -31 -29 -70 -32 -87 -6 -28 -4
-32 14 -32 11 0 29 11 40 25 l20 25 6 -23 c3 -12 6 -37 6 -54 0 -22 5 -33 14
-33 8 0 19 -14 25 -31 6 -18 22 -43 36 -57 14 -13 25 -31 25 -38 0 -8 6 -14
13 -14 7 0 23 -11 35 -25 12 -14 27 -25 33 -25 6 0 23 -9 38 -19 15 -11 39
-23 54 -26 17 -5 27 -14 27 -26 0 -14 7 -19 25 -19 24 0 25 3 25 59 0 33 -3
66 -6 75 -8 21 -44 21 -44 0 0 -11 -5 -14 -16 -10 -9 3 -27 9 -40 12 -13 3
-24 12 -24 20 0 7 -11 16 -25 20 -14 3 -25 12 -25 20 0 7 -9 18 -20 24 -11 6
-20 18 -20 26 0 9 -11 25 -25 36 -14 11 -25 28 -25 37 0 10 -7 37 -15 60 -13
39 -13 41 5 41 15 0 18 7 18 43 -1 23 7 92 16 152 10 61 20 177 22 258 4 130
2 153 -15 190 -17 38 -68 103 -127 163 -16 17 -23 44 -33 140 -6 66 -14 131
-17 146 l-6 27 51 -17 c50 -17 51 -18 85 -97 51 -122 77 -213 83 -292 5 -62 9
-73 24 -73 12 0 19 7 19 19 0 49 30 68 50 32 5 -11 28 -27 50 -37 22 -10 40
-21 40 -26 0 -4 9 -8 20 -8 11 0 23 -7 26 -15 4 -8 12 -15 20 -15 8 0 22 -4
32 -9 9 -5 44 -20 76 -33 36 -14 61 -30 64 -41 8 -32 45 -17 55 23 21 85 20
90 -1 90 -11 0 -22 -6 -25 -14 -5 -12 -14 -12 -49 -4 -24 6 -48 17 -54 24 -6
8 -21 14 -33 14 -12 0 -21 6 -21 15 0 9 -9 15 -25 15 -16 0 -25 6 -25 15 0 9
-10 15 -26 15 -17 0 -28 6 -31 20 -3 11 -10 20 -15 20 -21 0 -68 42 -68 62 0
11 -9 32 -20 47 -10 15 -37 66 -59 114 -22 47 -58 115 -80 150 -23 35 -41 69
-41 75 0 20 -78 77 -132 96 -29 11 -68 32 -86 48 -18 15 -41 28 -52 28 -23 0
-70 20 -70 30 0 4 42 10 92 14 105 8 172 33 189 69 6 14 34 49 63 79 28 30 67
83 86 117 19 35 43 71 54 81 11 12 17 27 13 39 -4 15 4 25 30 41 19 11 43 20
53 20 10 0 21 4 24 9 3 5 44 15 91 22 65 9 88 10 97 1 15 -15 58 -16 58 -2 0
6 7 10 15 10 22 0 19 47 -2 54 -10 3 -65 5 -123 5 -98 -1 -150 -9 -192 -30
-10 -5 -25 -9 -35 -9 -9 0 -25 -7 -35 -17 -17 -15 -18 -14 -18 15 0 24 -4 32
-18 32 -14 0 -25 -21 -46 -87 -32 -99 -99 -241 -127 -272 -11 -12 -30 -21 -43
-21 -13 0 -54 -11 -90 -25 -37 -14 -70 -25 -75 -25 -4 0 -4 20 2 44 14 61 -12
113 -71 143 -24 12 -38 24 -32 28 19 12 12 80 -11 101 l-20 18 33 12 c25 8 50
8 108 -2 86 -15 199 -8 207 12 3 8 13 14 23 14 9 0 30 11 46 25 16 14 32 25
36 25 14 0 77 75 78 91 0 8 7 24 15 35 17 23 20 145 5 175 -6 10 -20 19 -32
19 -20 0 -21 -3 -15 -84z"/>
</g>
</svg>
