<?xml version="1.0" standalone="no"?>
<!DOCTYPE svg PUBLIC "-//W3C//DTD SVG 20010904//EN"
 "http://www.w3.org/TR/2001/REC-SVG-20010904/DTD/svg10.dtd">
<svg version="1.0" xmlns="http://www.w3.org/2000/svg"
 width="138.000000pt" height="282.000000pt" viewBox="0 0 138.000000 282.000000"
 preserveAspectRatio="xMidYMid meet">
<metadata>
Created by potrace 1.13, written by Peter Selinger 2001-2015
</metadata>
<g transform="translate(0.000000,282.000000) scale(0.100000,-0.100000)"
fill="#000000" stroke="none">
<path d="M1143 2802 c-7 -4 -11 -30 -10 -65 1 -36 -3 -61 -11 -66 -6 -4 -18
-29 -26 -55 -8 -26 -21 -55 -28 -64 -8 -10 -23 -37 -33 -62 -10 -25 -25 -52
-32 -61 -7 -8 -13 -19 -13 -24 0 -10 -48 -55 -59 -55 -4 0 -17 -11 -29 -25
-12 -14 -26 -25 -30 -25 -5 0 -15 -11 -22 -25 -7 -14 -21 -25 -31 -25 -10 0
-24 -6 -31 -14 -11 -11 -17 -5 -38 38 -29 58 -76 92 -115 82 -14 -4 -25 -12
-25 -20 0 -7 -9 -21 -20 -31 -11 -10 -20 -22 -20 -26 0 -4 -5 -20 -10 -35 -10
-25 -12 -26 -29 -10 -9 9 -23 16 -29 16 -7 0 -17 9 -24 20 -7 11 -18 20 -25
20 -7 0 -13 4 -13 9 0 5 -8 17 -17 27 -10 10 -37 47 -60 83 -23 36 -49 73 -56
81 -8 8 -22 36 -32 63 -10 26 -22 47 -26 47 -5 0 -9 14 -9 30 0 17 -4 30 -10
30 -5 0 -12 27 -16 60 -6 52 -10 61 -30 66 -12 3 -32 3 -44 -1 -18 -6 -21 -12
-15 -33 3 -15 8 -38 11 -52 6 -27 21 -66 35 -90 10 -16 23 -44 47 -100 8 -19
21 -39 28 -43 8 -4 14 -15 14 -23 0 -9 6 -22 13 -29 27 -31 35 -43 50 -72 23
-44 136 -153 175 -170 26 -11 32 -17 23 -26 -15 -15 -14 -60 1 -75 9 -9 9 -12
-3 -12 -27 0 -61 -85 -57 -141 3 -46 2 -48 -12 -32 -8 10 -30 30 -49 45 -35
26 -53 70 -68 161 -3 21 -10 40 -14 43 -5 3 -9 21 -9 39 0 24 -6 38 -20 45
-11 6 -20 17 -20 26 0 8 -7 17 -15 20 -8 4 -15 11 -15 16 0 11 -78 88 -90 88
-10 0 -20 25 -20 51 0 32 -36 23 -59 -15 -28 -45 -27 -66 4 -66 17 0 32 -11
50 -37 14 -21 25 -41 25 -44 0 -4 12 -20 28 -37 17 -19 38 -65 56 -123 66
-210 136 -318 222 -341 32 -9 43 -18 47 -35 3 -19 0 -23 -20 -23 -54 0 -151
-144 -153 -227 0 -12 -12 -30 -28 -42 -28 -20 -58 -71 -82 -141 -7 -19 -30
-87 -52 -150 -21 -63 -37 -125 -35 -138 2 -12 0 -25 -4 -28 -5 -3 -9 -18 -9
-33 0 -16 -7 -34 -15 -41 -8 -7 -15 -18 -15 -25 0 -16 -29 -73 -41 -80 -5 -4
-9 -13 -9 -21 0 -9 -7 -22 -15 -30 -20 -20 -19 -70 1 -78 9 -3 36 -6 60 -6 41
0 44 2 44 26 0 23 -4 26 -25 22 -23 -5 -23 -4 -10 16 8 11 15 28 15 37 0 9 7
19 15 23 8 3 15 13 15 21 0 9 7 23 15 31 8 9 15 26 15 40 0 13 5 24 10 24 6 0
10 11 10 25 0 14 6 36 14 48 7 12 19 45 26 72 20 80 63 219 70 228 24 28 28
-586 6 -884 -4 -54 -37 -150 -59 -172 -14 -14 -17 -27 -13 -48 5 -27 3 -29
-24 -29 -40 0 -42 -36 -3 -51 15 -6 30 -15 33 -20 4 -6 28 -6 61 -2 47 7 54
11 57 32 3 21 0 23 -22 19 -31 -6 -33 5 -10 51 9 18 18 50 21 72 3 21 9 39 13
39 4 0 10 19 14 43 15 103 19 117 28 117 7 0 8 21 4 58 -7 72 -10 352 -3 359
3 3 18 -8 34 -24 85 -86 154 -110 273 -93 83 12 124 35 189 105 l40 43 16 -25
c14 -21 17 -55 17 -219 0 -155 2 -195 14 -205 8 -6 14 -27 14 -45 0 -19 3 -34
8 -34 4 0 8 -12 9 -27 0 -16 6 -47 12 -70 6 -24 15 -60 19 -80 5 -21 14 -48
20 -60 10 -18 9 -24 -4 -31 -9 -5 -14 -18 -12 -28 4 -22 49 -31 82 -16 12 5
35 13 51 18 20 7 31 17 33 33 3 21 0 23 -26 19 -28 -4 -31 -1 -42 36 -23 75
-43 131 -51 140 -4 5 -5 22 -2 37 3 17 1 29 -5 29 -13 0 -21 51 -27 175 -5 96
-13 189 -37 395 -12 108 -13 131 -5 215 3 33 6 79 6 103 1 48 19 56 28 12 3
-17 10 -33 14 -36 5 -3 9 -13 9 -22 0 -28 71 -242 81 -242 4 0 11 -16 15 -35
3 -19 9 -35 13 -35 4 0 15 -27 25 -60 10 -33 21 -60 25 -60 12 0 32 -65 21
-68 -13 -5 -13 -39 0 -47 5 -3 32 -3 60 1 44 6 50 10 50 30 0 14 -8 25 -20 29
-11 3 -23 18 -26 33 -4 15 -10 32 -14 37 -4 6 -10 22 -14 38 -3 15 -11 27 -16
27 -6 0 -10 9 -10 19 0 11 -4 23 -10 26 -5 3 -10 15 -10 25 0 10 -6 31 -14 47
-8 15 -29 73 -47 128 -17 55 -43 122 -56 149 -12 28 -23 58 -23 69 0 30 -31
87 -65 121 -21 20 -38 52 -50 91 -29 105 -88 175 -144 175 -16 0 -21 6 -21 25
0 19 5 25 21 25 50 0 146 76 186 148 53 94 61 115 79 207 17 82 21 91 66 137
26 27 48 51 48 54 0 3 9 15 20 27 15 15 30 21 50 19 24 -3 30 0 30 17 0 20
-48 61 -72 61 -7 0 -31 -20 -52 -45 -22 -25 -46 -45 -53 -45 -7 0 -13 -6 -13
-13 0 -6 -16 -25 -35 -41 -19 -16 -35 -35 -35 -42 0 -7 -9 -15 -19 -19 -17 -5
-20 -16 -20 -100 -1 -88 -13 -145 -33 -145 -5 0 -20 -11 -32 -24 -13 -12 -30
-26 -38 -29 -7 -4 -22 -13 -33 -21 -19 -15 -20 -13 -21 34 -2 44 -37 130 -53
130 -3 0 -4 23 -2 51 2 43 8 55 38 82 20 18 48 44 64 60 16 15 32 27 37 27 21
0 105 106 131 167 6 12 26 56 46 98 19 41 35 78 35 81 0 2 9 17 21 33 16 22
19 39 17 87 -3 55 -5 59 -28 62 -14 1 -30 -1 -37 -6z m-263 -1291 c0 -19 -25
-31 -47 -24 -19 7 7 30 45 42 1 1 2 -7 2 -18z"/>
</g>
</svg>
