<?xml version="1.0" standalone="no"?>
<!DOCTYPE svg PUBLIC "-//W3C//DTD SVG 20010904//EN"
 "http://www.w3.org/TR/2001/REC-SVG-20010904/DTD/svg10.dtd">
<svg version="1.0" xmlns="http://www.w3.org/2000/svg"
 width="269.000000pt" height="318.000000pt" viewBox="0 0 269.000000 318.000000"
 preserveAspectRatio="xMidYMid meet">
<metadata>
Created by potrace 1.13, written by Peter Selinger 2001-2015
</metadata>
<g transform="translate(0.000000,318.000000) scale(0.100000,-0.100000)"
fill="#000000" stroke="none">
<path d="M2567 2984 c-3 -3 -25 -7 -49 -9 -58 -4 -129 -21 -137 -32 -7 -10
-129 -73 -143 -73 -4 0 -25 -16 -45 -35 -20 -19 -44 -35 -53 -35 -8 0 -31 -16
-50 -35 -19 -19 -40 -35 -47 -35 -7 0 -33 -22 -59 -50 -26 -27 -55 -50 -65
-50 -11 0 -19 -6 -19 -12 -1 -16 -56 -78 -70 -78 -5 0 -26 -18 -46 -40 -20
-22 -41 -40 -47 -40 -10 0 -92 -63 -112 -86 -5 -7 -33 -17 -62 -24 -29 -6 -57
-18 -64 -26 -19 -23 -28 -16 -17 14 6 16 8 41 4 56 -6 24 -11 27 -39 24 -26
-2 -33 -8 -35 -28 -6 -52 -13 -70 -27 -70 -8 0 -15 7 -15 16 0 14 -8 16 -44
12 -48 -6 -56 1 -56 47 0 18 -7 25 -31 30 -17 4 -35 3 -41 -3 -12 -12 -1 -112
13 -112 5 0 9 -5 9 -11 0 -6 -13 0 -30 14 -16 14 -48 28 -72 32 -33 6 -51 18
-86 56 -24 27 -54 52 -67 55 -12 3 -41 25 -64 50 -22 24 -45 44 -50 44 -5 0
-25 18 -45 40 -20 22 -41 40 -47 40 -6 0 -27 17 -47 38 -20 20 -50 44 -65 52
-16 8 -39 27 -52 42 -13 15 -28 28 -34 28 -6 0 -19 8 -30 18 -59 55 -80 72
-91 72 -7 0 -35 14 -62 30 -26 17 -58 30 -71 30 -12 0 -42 9 -66 20 -31 15
-65 20 -121 20 -97 0 -110 -5 -110 -40 0 -25 5 -29 48 -39 31 -8 58 -8 80 -2
18 5 32 6 32 1 0 -5 27 -12 60 -16 41 -4 60 -11 60 -20 0 -8 7 -14 15 -14 8 0
15 -4 15 -9 0 -5 13 -12 29 -16 17 -3 45 -20 63 -36 18 -16 50 -37 70 -47 21
-9 38 -24 38 -32 1 -17 66 -70 86 -70 6 0 15 -11 18 -24 4 -16 20 -31 46 -43
22 -10 40 -25 40 -34 0 -16 60 -69 77 -69 4 0 14 -13 21 -30 7 -16 22 -32 33
-35 11 -4 45 -31 75 -61 31 -30 62 -54 69 -54 8 0 25 -10 39 -22 65 -59 81
-69 107 -75 27 -5 28 -7 14 -26 -19 -27 -19 -54 -1 -105 l15 -41 -30 -10 c-16
-5 -29 -15 -29 -20 0 -6 -30 5 -67 24 -38 19 -80 35 -94 35 -23 0 -30 9 -54
63 -40 92 -53 118 -80 162 -14 22 -28 48 -32 58 -4 14 -13 18 -34 15 -16 -3
-30 -2 -31 1 -5 9 -76 61 -84 61 -4 0 -16 8 -26 17 -16 14 -24 15 -48 6 -35
-13 -70 -6 -70 13 0 9 -11 14 -30 14 -26 0 -30 -3 -30 -29 0 -16 -3 -42 -6
-59 -6 -28 -3 -32 22 -38 18 -5 29 -3 32 4 6 19 40 14 47 -7 4 -12 19 -21 46
-25 22 -4 50 -15 62 -26 11 -11 27 -20 34 -20 7 0 13 -7 13 -15 0 -8 9 -15 19
-15 19 0 55 -48 116 -155 16 -27 40 -65 54 -83 31 -40 138 -121 201 -152 58
-29 57 -27 27 -50 -14 -11 -28 -34 -32 -50 -5 -21 -12 -30 -27 -30 -25 0 -148
-58 -148 -70 0 -5 -11 -20 -23 -34 -25 -27 -56 -120 -82 -244 -8 -40 -24 -90
-35 -112 -23 -45 -25 -67 -7 -73 9 -3 9 -7 0 -18 -6 -8 -14 -32 -18 -54 -4
-22 -13 -46 -19 -54 -9 -12 -39 -201 -33 -207 1 -2 24 -4 52 -6 42 -3 50 0 53
16 2 10 -3 23 -12 28 -10 6 -16 22 -16 43 0 30 3 35 24 35 21 0 24 5 30 60 4
33 11 60 16 60 6 0 10 14 10 30 0 24 4 30 21 30 19 0 21 4 16 43 -2 23 2 84 9
135 8 51 13 96 12 100 -1 4 6 34 16 68 l19 61 60 11 c34 6 62 10 64 9 1 -2 0
-112 -4 -245 -5 -206 -9 -244 -23 -260 -38 -41 -90 -126 -94 -155 -3 -18 -10
-64 -15 -104 -6 -39 -11 -152 -11 -249 0 -165 -7 -222 -31 -264 -5 -8 -12 -22
-16 -30 -4 -8 -17 -23 -29 -32 -12 -10 -24 -32 -27 -50 -10 -62 -31 -108 -49
-108 -12 0 -18 -8 -18 -22 0 -40 14 -49 66 -46 l49 3 0 45 c1 56 9 70 40 70
20 0 26 9 45 70 12 39 25 70 30 70 5 0 11 18 15 41 5 30 10 38 18 30 6 -6 20
-11 30 -11 22 0 21 12 -15 105 -21 55 -23 75 -22 237 1 174 2 178 25 197 13
11 27 20 32 21 4 0 7 -46 7 -101 0 -133 33 -332 63 -373 33 -47 57 -64 117
-81 30 -8 63 -20 72 -25 27 -15 51 -12 134 16 80 26 120 48 141 74 38 48 71
233 72 407 1 104 9 111 55 45 l26 -37 -9 -170 c-7 -134 -14 -183 -31 -230 -33
-92 -36 -115 -14 -115 12 0 25 12 33 31 10 23 16 28 22 18 5 -8 9 -25 9 -37 0
-13 7 -36 14 -50 15 -28 40 -84 50 -114 3 -10 14 -18 25 -18 21 0 41 -27 41
-54 0 -9 -7 -16 -15 -16 -21 0 -19 -38 3 -43 9 -3 42 -4 72 -3 49 1 55 3 58
24 2 15 -2 22 -12 22 -10 0 -16 9 -16 21 0 11 -11 35 -25 53 -14 18 -25 42
-25 54 0 11 -8 27 -18 34 -17 12 -25 25 -63 103 -11 22 -15 75 -17 205 -4 270
-22 412 -60 454 -70 76 -82 93 -83 116 -5 207 -10 320 -17 393 -8 86 -7 88 13
83 11 -2 41 -8 67 -11 45 -7 49 -10 57 -44 21 -80 43 -219 43 -274 0 -57 1
-59 24 -54 22 4 24 1 24 -39 0 -23 4 -45 10 -49 5 -3 12 -32 16 -65 6 -54 9
-60 29 -60 15 0 25 -8 29 -23 10 -37 7 -57 -9 -57 -20 0 -20 -39 0 -46 8 -4
36 -2 62 2 35 7 49 14 51 28 2 10 -1 22 -7 26 -7 4 -13 37 -14 76 -2 61 -5 70
-24 79 -13 5 -23 15 -23 23 0 7 -4 20 -9 30 -5 9 -14 35 -19 57 -6 22 -19 72
-30 110 -11 39 -34 122 -52 186 -20 73 -41 127 -56 144 -13 16 -24 31 -24 35
0 8 -72 40 -133 60 -23 7 -42 21 -46 33 -5 12 -18 31 -30 41 -36 33 -26 48 62
91 105 51 155 102 237 240 71 120 114 171 154 181 14 3 26 10 26 15 0 5 19 12
41 15 29 5 43 13 47 26 3 12 10 17 19 14 8 -3 17 -6 19 -6 2 0 4 -7 4 -16 0
-11 8 -14 26 -12 22 2 29 11 42 50 8 26 12 54 9 62 -7 18 -47 22 -47 5 0 -9
-20 -10 -70 -5 -59 5 -75 3 -105 -14 -20 -11 -40 -20 -46 -20 -6 0 -20 -11
-30 -25 -11 -13 -35 -27 -54 -31 -23 -4 -35 -12 -35 -23 0 -9 -29 -72 -63
-141 l-62 -124 -45 -12 c-25 -6 -65 -21 -89 -33 -28 -15 -46 -19 -50 -13 -4 6
-19 16 -35 22 -27 10 -28 12 -12 29 23 25 21 92 -4 124 l-20 25 45 11 c24 6
47 15 50 21 3 5 15 10 25 10 10 0 22 9 25 20 4 11 19 27 34 35 16 8 48 33 72
55 24 23 56 49 72 58 15 9 27 20 27 24 0 4 7 8 15 8 8 0 15 6 15 13 0 6 16 22
35 35 20 12 41 34 47 47 6 14 15 25 20 25 4 0 35 25 68 55 33 30 64 55 69 55
4 0 23 16 42 35 19 19 39 35 45 35 7 0 25 12 42 28 16 15 60 42 98 61 38 19
76 40 84 47 8 7 64 16 124 22 109 9 125 16 126 53 0 9 -11 21 -25 27 -27 13
-88 16 -98 6z m-1097 -688 c0 -2 -8 -10 -17 -17 -16 -13 -17 -12 -4 4 13 16
21 21 21 13z"/>
</g>
</svg>
