<?xml version="1.0" standalone="no"?>
<!DOCTYPE svg PUBLIC "-//W3C//DTD SVG 20010904//EN"
 "http://www.w3.org/TR/2001/REC-SVG-20010904/DTD/svg10.dtd">
<svg version="1.0" xmlns="http://www.w3.org/2000/svg"
 width="412.000000pt" height="418.000000pt" viewBox="0 0 412.000000 418.000000"
 preserveAspectRatio="xMidYMid meet">
<metadata>
Created by potrace 1.13, written by Peter Selinger 2001-2015
</metadata>
<g transform="translate(0.000000,418.000000) scale(0.100000,-0.100000)"
fill="#000000" stroke="none">
<path d="M2022 3855 c-10 -22 -8 -29 23 -59 20 -21 30 -38 24 -41 -7 -5 -6
-11 1 -20 7 -8 9 -19 5 -25 -3 -5 -1 -10 4 -10 6 0 11 -7 11 -15 0 -8 5 -15
10 -15 6 0 10 -8 10 -18 0 -31 31 -137 40 -140 6 -2 6 -10 1 -20 -5 -10 -6
-36 -1 -60 4 -23 5 -42 1 -42 -3 0 2 -5 12 -11 10 -6 14 -15 10 -22 -14 -22
-13 -48 3 -78 9 -18 12 -38 8 -47 -10 -23 -11 -35 -5 -47 3 -5 7 -19 8 -29 2
-11 8 -25 14 -32 7 -8 7 -14 -1 -19 -13 -8 -13 -37 2 -72 6 -15 13 -48 14 -73
3 -56 8 -80 28 -119 10 -18 12 -31 6 -31 -6 0 -3 -11 6 -25 12 -18 13 -25 4
-25 -9 0 -10 -3 -1 -13 6 -8 9 -16 6 -19 -3 -3 6 -17 19 -31 22 -24 23 -27 7
-27 -30 0 -67 -36 -80 -79 -8 -30 -17 -41 -31 -41 -11 0 -20 4 -20 8 0 5 -10
8 -22 8 -17 -1 -24 5 -26 22 -2 12 -8 22 -13 22 -5 0 -8 3 -7 8 4 15 -32 82
-50 93 -16 10 -18 18 -12 35 5 12 6 25 3 28 -4 3 -2 6 4 6 5 0 10 6 10 13 0 6
9 39 19 72 10 33 17 72 17 88 -1 15 2 27 7 27 5 0 7 11 4 24 -2 14 1 28 6 31
14 9 -7 35 -27 35 -9 0 -13 6 -9 15 3 8 2 15 -2 15 -4 0 -9 8 -10 18 -5 49
-10 66 -20 70 -6 2 -9 14 -6 27 3 19 -3 25 -32 37 -35 14 -38 14 -60 -9 -42
-42 -47 -60 -22 -83 12 -11 18 -20 13 -20 -5 0 0 -6 11 -14 10 -8 16 -18 12
-21 -4 -4 -1 -20 7 -36 8 -15 12 -35 9 -43 -3 -9 -1 -16 5 -16 10 0 10 -35 -1
-157 -1 -7 -4 -13 -7 -13 -17 0 -15 -197 2 -240 3 -8 8 -29 10 -46 3 -17 10
-41 16 -53 7 -11 9 -21 6 -21 -4 0 1 -7 9 -16 9 -8 16 -23 16 -33 0 -14 -7
-18 -35 -16 -21 1 -36 -4 -40 -12 -2 -8 -9 -12 -14 -9 -5 4 -11 0 -14 -6 -3
-10 -9 -9 -23 3 -20 16 -106 42 -139 41 -43 0 -135 -31 -135 -45 0 -4 -4 -6
-9 -3 -5 3 -12 -1 -15 -10 -3 -8 -10 -13 -15 -10 -5 3 -11 -1 -15 -9 -3 -8
-12 -15 -20 -15 -7 0 -17 -7 -20 -16 -4 -9 -9 -14 -12 -11 -4 3 -15 -4 -25
-16 -10 -12 -18 -19 -19 -15 0 3 -14 -7 -31 -23 -17 -16 -37 -29 -45 -29 -17
0 -56 -21 -66 -35 -4 -5 -5 -18 -2 -27 4 -13 1 -16 -9 -12 -8 3 -22 -2 -31
-11 -9 -9 -16 -13 -16 -8 0 4 -7 -3 -16 -15 -10 -14 -25 -22 -45 -22 -16 0
-29 -5 -29 -11 0 -14 -82 -94 -104 -102 -9 -4 -16 -13 -16 -21 0 -18 22 -31
66 -39 27 -5 31 -3 27 11 -2 9 6 27 17 40 20 21 24 22 39 8 15 -14 21 -11 63
28 33 30 50 40 58 32 7 -7 10 -6 10 3 0 7 6 19 14 27 13 12 16 12 29 0 13 -13
17 -12 36 10 11 13 21 27 21 31 0 13 122 123 131 117 5 -3 9 2 9 10 0 9 5 16
11 16 5 0 8 4 4 9 -3 5 10 14 29 21 19 6 37 18 40 26 3 8 10 13 15 10 5 -3 12
1 15 10 6 15 9 14 25 -5 11 -12 22 -22 25 -21 9 1 66 -30 66 -35 0 -6 -27 -40
-62 -77 -16 -16 -28 -33 -28 -39 0 -6 -4 -8 -9 -5 -4 3 -26 -15 -47 -41 -21
-25 -48 -56 -59 -68 -11 -13 -32 -38 -47 -56 -54 -69 -67 -80 -98 -84 -56 -7
-130 -28 -130 -37 0 -5 -4 -7 -9 -4 -10 7 -71 -47 -71 -62 0 -7 -6 -12 -14
-12 -13 0 -106 -84 -106 -96 0 -3 -10 -15 -22 -28 -13 -12 -36 -39 -53 -60
-16 -21 -42 -51 -58 -67 -15 -15 -27 -31 -27 -35 0 -10 -58 -64 -70 -64 -5 0
-19 -9 -30 -20 -12 -12 -25 -18 -30 -15 -6 4 -16 3 -22 -2 -7 -4 -26 -8 -42
-9 -15 -2 -37 -12 -48 -24 -10 -11 -23 -18 -29 -15 -5 4 -9 1 -9 -4 0 -6 -6
-11 -14 -11 -7 0 -19 -7 -26 -15 -9 -10 -17 -12 -30 -5 -13 7 -21 5 -31 -6
-15 -18 -23 -54 -11 -54 4 0 18 -10 32 -23 28 -25 43 -28 61 -9 7 6 10 12 5
12 -10 0 14 22 41 37 18 10 25 10 36 -2 14 -14 57 -10 57 5 0 5 10 12 22 16
12 3 30 15 41 24 10 10 24 17 31 14 6 -2 22 6 36 19 25 23 25 23 35 4 16 -31
34 -31 46 0 6 15 12 33 13 38 1 6 5 16 9 23 5 6 5 12 1 12 -4 0 0 8 9 18 10
10 14 22 11 25 -4 4 1 9 10 13 9 3 16 12 16 20 0 8 5 14 11 14 5 0 7 4 4 10
-3 5 4 20 17 33 41 42 68 77 68 87 0 9 14 14 33 11 4 0 7 2 7 7 0 4 15 25 34
46 24 28 43 40 65 42 40 3 46 -8 18 -37 -68 -72 -139 -169 -153 -211 -4 -10
-10 -18 -15 -18 -5 0 -9 -6 -9 -14 0 -8 -6 -21 -13 -28 -7 -7 -20 -27 -29 -45
-20 -40 -17 -158 4 -176 21 -17 58 -73 58 -87 0 -26 50 -56 83 -51 4 0 7 -3 7
-9 0 -5 4 -10 9 -10 5 0 22 -5 38 -12 15 -6 30 -12 33 -12 3 -1 10 -4 15 -7 6
-3 20 -4 33 -3 12 0 22 -4 22 -9 0 -8 4 -7 11 0 6 6 18 9 25 6 8 -3 14 0 14 7
0 6 4 9 9 5 6 -3 14 3 20 12 6 10 11 14 11 8 0 -5 4 -4 9 3 4 7 18 14 29 15
12 1 22 5 22 9 0 14 53 68 67 68 7 0 13 4 13 8 0 4 24 33 53 63 29 29 70 74
91 99 21 25 35 39 31 33 -3 -7 -2 -13 4 -13 8 0 9 -41 2 -94 -1 -4 -25 -32
-53 -60 -29 -29 -66 -70 -83 -91 -16 -21 -39 -45 -49 -54 -10 -9 -28 -25 -40
-36 -12 -11 -24 -19 -28 -17 -5 1 -8 -3 -8 -8 0 -6 -21 -20 -47 -33 -64 -30
-78 -44 -63 -62 10 -11 16 -11 45 1 32 13 34 13 28 -3 -4 -10 -15 -32 -26 -50
-10 -18 -16 -37 -13 -42 4 -5 2 -12 -4 -16 -6 -4 -8 -10 -5 -15 3 -5 1 -11 -4
-15 -6 -3 -8 -12 -5 -19 3 -7 -2 -18 -10 -25 -14 -12 -11 -51 5 -51 11 0 12
-41 1 -58 -5 -7 -19 -11 -32 -10 -19 2 -25 -2 -26 -20 -1 -21 27 -48 38 -37 3
3 11 -6 18 -20 17 -31 46 -41 65 -21 14 13 13 16 -2 25 -10 6 -12 11 -5 11 6
0 12 7 12 15 0 8 5 15 11 15 8 0 8 4 1 13 -7 8 -7 18 -2 27 5 8 7 18 4 22 -3
4 2 18 11 32 17 25 17 46 0 58 -6 5 -6 8 1 8 6 0 10 14 9 30 -1 17 2 30 6 30
5 0 11 16 15 35 3 19 12 39 18 43 6 4 16 17 21 28 10 21 76 103 123 151 12 13
22 26 22 28 0 3 9 15 19 27 11 13 29 34 40 47 12 13 21 28 21 32 0 5 10 20 23
35 12 14 21 29 20 32 -1 4 6 15 15 26 9 10 15 19 13 20 -3 0 2 12 11 26 11 18
15 47 14 100 -2 61 2 81 18 105 12 17 20 31 18 33 -1 1 0 1 1 0 8 -6 37 25 32
33 -3 4 4 13 15 19 11 6 20 17 20 24 0 8 11 21 25 30 14 9 25 22 25 29 0 6 13
26 28 43 15 18 41 53 57 78 16 25 33 46 37 46 4 0 8 7 8 15 0 8 5 15 11 15 5
0 7 6 3 13 -3 6 9 -6 27 -28 19 -22 41 -46 51 -54 14 -12 15 -18 2 -55 -8 -22
-21 -44 -30 -49 -8 -4 -12 -12 -9 -17 3 -5 1 -11 -4 -15 -6 -3 -20 -27 -33
-53 -24 -48 -34 -63 -80 -115 -20 -23 -24 -32 -15 -42 7 -7 15 -11 20 -8 16 9
6 -13 -18 -41 -14 -16 -25 -37 -25 -47 0 -10 -7 -25 -16 -33 -8 -9 -13 -16 -9
-16 4 0 -3 -12 -14 -26 -19 -24 -19 -54 1 -54 9 0 1 -41 -11 -50 -20 -15 -40
-92 -23 -88 4 1 20 -5 35 -12 24 -12 30 -12 38 1 5 8 6 20 4 28 -3 8 4 20 15
28 11 8 20 19 20 26 0 6 10 21 23 32 23 21 29 45 13 56 -5 4 -5 15 -1 25 5 11
7 23 6 27 -1 5 8 24 20 43 11 19 17 34 13 34 -4 0 0 8 8 18 8 9 26 44 39 77
12 33 29 67 35 75 7 8 16 27 19 43 4 15 11 27 17 27 5 0 7 4 3 9 -3 5 -1 12 5
16 6 4 8 11 5 16 -4 5 -1 9 4 9 6 0 11 6 11 13 0 6 6 23 13 38 8 14 13 33 11
42 -1 9 2 17 8 17 7 0 7 5 -1 13 -6 8 -8 17 -5 20 9 9 -17 97 -28 97 -5 0 -6
5 -3 10 3 6 -1 13 -9 16 -9 3 -14 10 -11 14 3 4 -1 10 -9 13 -9 4 -12 23 -11
70 3 73 9 90 33 83 10 -3 35 -8 57 -12 22 -3 45 -10 52 -16 7 -5 17 -7 22 -4
5 4 12 3 15 -2 8 -14 148 0 171 17 11 8 83 31 138 44 6 2 23 9 36 16 28 15
161 23 161 9 0 -5 6 -8 13 -7 27 3 46 -2 61 -17 24 -24 55 -8 77 39 18 42 18
42 -4 59 -12 10 -41 20 -64 24 -24 3 -43 11 -43 16 0 6 -8 7 -17 3 -28 -11
-63 -13 -63 -4 0 5 -3 8 -7 7 -5 -1 -18 3 -30 10 -18 10 -24 9 -30 -1 -8 -13
-29 -24 -47 -25 -5 0 -12 -6 -17 -13 -4 -7 -17 -14 -29 -16 -11 -2 -32 -10
-45 -19 -13 -8 -25 -15 -27 -14 -8 3 -68 -23 -68 -29 0 -12 -32 -6 -70 12 -20
10 -45 19 -55 22 -58 13 -78 23 -81 39 -1 10 -7 23 -13 29 -16 16 -13 37 3 31
8 -3 28 9 46 26 28 27 37 49 39 100 1 13 2 13 11 0 5 -8 10 -11 10 -6 0 5 8 2
18 -7 16 -14 71 -30 100 -27 30 2 61 3 112 1 30 -1 66 0 80 2 14 2 29 1 33 -1
15 -8 97 -8 97 -1 0 4 13 4 28 -1 18 -5 42 -3 64 4 19 7 43 10 54 6 10 -3 30
-5 44 -3 35 5 97 5 148 1 24 -2 45 -1 48 4 3 4 16 3 30 -2 14 -6 29 -8 34 -5
5 3 11 1 15 -4 3 -6 15 -7 28 -2 12 5 33 4 47 -1 14 -5 38 -11 54 -13 15 -3
35 -7 45 -9 9 -3 23 5 34 19 14 20 16 29 7 46 -7 11 -14 18 -17 15 -3 -2 -17
0 -32 6 -14 5 -39 12 -56 15 -16 3 -37 8 -45 13 -8 4 -39 6 -67 5 -29 -1 -53
1 -53 6 0 4 -24 6 -52 4 -33 -2 -61 2 -75 11 -13 8 -23 10 -25 4 -4 -14 -109
-18 -131 -6 -13 8 -20 7 -27 -4 -5 -8 -12 -12 -15 -8 -3 3 -21 2 -40 -2 -25
-6 -38 -4 -46 7 -7 8 -15 10 -18 4 -7 -11 -101 -21 -101 -11 0 4 -36 7 -81 6
-44 0 -83 2 -86 7 -2 4 -13 7 -24 7 -10 0 -19 5 -19 11 0 5 -4 8 -9 4 -5 -3
-12 -1 -16 5 -3 5 -17 10 -30 10 -13 0 -27 5 -31 12 -4 7 -3 8 4 4 14 -9 62
37 62 59 0 18 -23 45 -38 45 -6 0 -24 -13 -41 -29 -18 -17 -38 -28 -47 -24
-17 6 -18 20 -2 25 14 5 -30 48 -49 48 -18 0 -16 35 4 55 15 16 15 19 0 43
-21 35 -48 34 -67 -3 -8 -16 -19 -33 -25 -37 -14 -11 -27 -10 -21 1 3 5 -9 28
-27 52 -24 33 -32 56 -33 89 -2 58 -10 99 -23 114 -6 7 -12 40 -13 74 -1 34
-5 62 -9 62 -3 0 -6 18 -7 41 -1 22 -4 45 -8 50 -3 5 1 9 8 9 8 0 6 5 -5 11
-9 6 -15 14 -12 20 4 5 2 9 -3 9 -5 0 -8 19 -6 42 1 23 -2 51 -9 62 -6 12 -12
29 -13 39 -1 9 -2 18 -4 20 -7 9 -5 47 4 47 5 0 1 6 -9 14 -10 7 -16 20 -12
29 3 8 3 18 -1 21 -7 7 -12 29 -15 67 -1 14 -7 32 -13 40 -16 21 -45 99 -36
99 4 0 -5 11 -20 24 -16 13 -28 28 -28 33 0 17 -40 53 -59 53 -10 0 -23 -11
-29 -25z m395 -1137 c-3 -8 -6 -5 -6 6 -1 11 2 17 5 13 3 -3 4 -12 1 -19z"/>
</g>
</svg>
