<?xml version="1.0" standalone="no"?>
<!DOCTYPE svg PUBLIC "-//W3C//DTD SVG 20010904//EN"
 "http://www.w3.org/TR/2001/REC-SVG-20010904/DTD/svg10.dtd">
<svg version="1.0" xmlns="http://www.w3.org/2000/svg"
 width="59.000000pt" height="64.000000pt" viewBox="0 0 59.000000 64.000000"
 preserveAspectRatio="xMidYMid meet">
<metadata>
Created by potrace 1.13, written by Peter Selinger 2001-2015
</metadata>
<g transform="translate(0.000000,64.000000) scale(0.100000,-0.100000)"
fill="#000000" stroke="none">
<path d="M273 623 c-7 -2 -13 -13 -13 -23 0 -26 -10 -50 -22 -50 -20 0 -66
-41 -81 -72 -8 -18 -23 -75 -31 -127 -19 -110 -41 -163 -84 -210 -18 -18 -32
-44 -32 -57 0 -28 36 -41 159 -54 46 -5 89 -14 95 -20 13 -13 73 -13 81 0 3 6
27 10 53 10 26 1 76 6 112 13 80 15 88 35 40 96 -30 36 -34 52 -55 194 -23
161 -39 201 -82 218 -17 6 -23 16 -23 37 0 15 -5 33 -12 40 -12 12 -81 15
-105 5z"/>
</g>
</svg>
