<?xml version="1.0" standalone="no"?>
<!DOCTYPE svg PUBLIC "-//W3C//DTD SVG 20010904//EN"
 "http://www.w3.org/TR/2001/REC-SVG-20010904/DTD/svg10.dtd">
<svg version="1.0" xmlns="http://www.w3.org/2000/svg"
 width="640.000000pt" height="480.000000pt" viewBox="0 0 640.000000 480.000000"
 preserveAspectRatio="xMidYMid meet">
<metadata>
Created by potrace 1.13, written by Peter Selinger 2001-2015
</metadata>
<g transform="translate(0.000000,480.000000) scale(0.100000,-0.100000)"
fill="#000000" stroke="none">
<path d="M2765 3823 c-46 -25 -135 -103 -150 -134 -27 -51 -35 -110 -19 -140
8 -16 14 -42 14 -59 0 -41 -47 -90 -86 -90 -35 0 -99 -65 -108 -110 -3 -18 -6
-60 -6 -93 0 -126 -45 -372 -90 -492 -26 -69 -57 -202 -69 -290 -4 -33 -22
-100 -40 -150 -18 -49 -38 -110 -46 -135 -7 -25 -29 -83 -49 -130 -20 -46 -36
-89 -36 -95 0 -5 -19 -37 -42 -70 -52 -75 -94 -168 -78 -173 6 -2 34 -19 61
-38 28 -19 57 -34 65 -34 8 0 38 -12 66 -26 63 -32 155 -63 186 -64 13 0 32
-5 42 -10 30 -16 278 -70 321 -70 l39 0 0 -46 c0 -94 97 -139 161 -75 22 23
29 39 29 69 0 44 -8 40 125 66 63 13 110 25 310 80 33 10 99 30 147 47 47 16
96 29 108 29 21 0 80 26 80 35 0 3 -19 42 -42 88 -23 45 -47 105 -54 132 -7
28 -21 73 -32 100 -11 28 -26 66 -32 85 -7 19 -20 58 -30 85 -31 87 -68 218
-80 280 -7 33 -26 114 -42 180 -17 66 -36 158 -43 205 -8 47 -18 101 -24 120
-12 43 -31 236 -31 313 0 84 -17 127 -63 162 -22 17 -55 45 -74 63 -32 30 -35
35 -29 75 18 119 18 124 -4 166 -29 57 -86 118 -131 142 -49 25 -179 26 -224
2z"/>
</g>
</svg>
