<?xml version="1.0" standalone="no"?>
<!DOCTYPE svg PUBLIC "-//W3C//DTD SVG 20010904//EN"
 "http://www.w3.org/TR/2001/REC-SVG-20010904/DTD/svg10.dtd">
<svg version="1.0" xmlns="http://www.w3.org/2000/svg"
 width="70.000000pt" height="87.000000pt" viewBox="0 0 70.000000 87.000000"
 preserveAspectRatio="xMidYMid meet">
<metadata>
Created by potrace 1.13, written by Peter Selinger 2001-2015
</metadata>
<g transform="translate(0.000000,87.000000) scale(0.100000,-0.100000)"
fill="#000000" stroke="none">
<path d="M357 846 c-8 -8 -27 -16 -43 -18 -27 -3 -29 -6 -32 -55 -3 -44 -6
-53 -22 -53 -10 0 -21 -9 -25 -19 -3 -10 -17 -22 -30 -25 -29 -7 -43 -49 -25
-71 17 -21 7 -114 -20 -183 -28 -73 -71 -155 -87 -165 -7 -4 -13 -14 -13 -21
0 -7 -9 -25 -20 -39 -11 -14 -23 -39 -26 -55 -6 -28 -3 -32 32 -50 46 -22 107
-38 200 -51 43 -6 71 -16 76 -26 11 -19 67 -20 74 -1 3 8 13 12 25 9 28 -8
208 16 247 32 39 17 43 52 12 103 -11 18 -20 41 -20 51 0 10 -7 24 -15 31 -8
7 -15 21 -15 31 0 10 -4 20 -9 23 -30 19 -59 265 -33 274 25 8 9 88 -19 97
-11 4 -31 17 -44 31 -13 13 -28 24 -34 24 -5 0 -9 21 -8 48 2 44 0 47 -25 50
-20 2 -28 9 -28 23 0 14 -7 19 -29 19 -16 0 -36 -6 -44 -14z"/>
</g>
</svg>
