<?xml version="1.0" standalone="no"?>
<!DOCTYPE svg PUBLIC "-//W3C//DTD SVG 20010904//EN"
 "http://www.w3.org/TR/2001/REC-SVG-20010904/DTD/svg10.dtd">
<svg version="1.0" xmlns="http://www.w3.org/2000/svg"
 width="320.000000pt" height="420.000000pt" viewBox="0 0 320.000000 420.000000"
 preserveAspectRatio="xMidYMid meet">
<metadata>
Created by potrace 1.13, written by Peter Selinger 2001-2015
</metadata>
<g transform="translate(0.000000,420.000000) scale(0.100000,-0.100000)"
fill="#000000" stroke="none">
<path d="M1313 4165 c-7 -8 -13 -31 -13 -52 l0 -38 -112 3 -113 3 -54 -38
c-37 -26 -62 -54 -80 -88 -14 -27 -29 -51 -33 -53 -13 -6 -9 -199 4 -242 7
-22 16 -40 20 -40 5 0 8 -22 8 -50 0 -49 -1 -50 -30 -50 -41 0 -138 -51 -176
-92 -143 -155 -188 -288 -239 -698 -9 -74 -23 -174 -31 -223 -8 -48 -14 -104
-14 -125 0 -20 -11 -92 -25 -160 -23 -113 -25 -145 -25 -383 0 -166 -4 -259
-10 -259 -5 0 -10 -13 -10 -30 0 -16 -4 -30 -10 -30 -5 0 -10 -23 -10 -50 0
-64 -52 -184 -128 -294 -30 -43 -90 -147 -133 -231 -66 -126 -79 -160 -79
-198 0 -26 -4 -47 -10 -47 -5 0 -10 -22 -10 -50 0 -27 5 -50 10 -50 6 0 10 -7
10 -16 0 -20 24 -44 44 -44 9 0 16 -4 16 -10 0 -5 14 -10 30 -10 17 0 30 -4
30 -10 0 -5 9 -10 20 -10 11 0 20 -4 20 -10 0 -5 14 -10 30 -10 17 0 30 -4 30
-10 0 -5 23 -10 50 -10 28 0 50 -4 50 -10 0 -5 18 -10 40 -10 22 0 40 -4 40
-10 0 -5 14 -10 30 -10 17 0 30 -4 30 -10 0 -5 23 -10 50 -10 28 0 50 -4 50
-10 0 -5 14 -10 30 -10 17 0 30 -4 30 -10 0 -5 18 -10 40 -10 22 0 40 -4 40
-10 0 -6 27 -10 60 -10 33 0 60 -4 60 -10 0 -5 21 -10 47 -10 39 0 50 -5 75
-32 15 -17 28 -35 28 -39 0 -18 209 -193 262 -220 l57 -29 257 0 256 0 52 35
c78 52 227 210 257 272 23 51 25 52 67 53 23 0 42 5 42 10 0 6 33 10 80 10 47
0 80 4 80 10 0 6 27 10 60 10 33 0 60 4 60 10 0 6 18 10 40 10 22 0 40 5 40
10 0 6 14 10 30 10 17 0 30 5 30 10 0 6 23 10 50 10 28 0 50 5 50 10 0 6 14
10 30 10 17 0 30 5 30 10 0 6 14 10 30 10 17 0 30 5 30 10 0 6 14 10 30 10 17
0 30 5 30 10 0 6 17 10 38 10 26 0 42 6 52 20 8 12 26 20 42 20 15 0 28 5 28
10 0 6 9 10 20 10 11 0 20 5 20 10 0 6 9 10 20 10 18 0 20 7 20 60 0 33 -4 60
-10 60 -5 0 -10 18 -10 40 0 22 -4 40 -10 40 -5 0 -10 9 -10 20 0 11 -4 20
-10 20 -5 0 -10 7 -10 16 0 9 -13 29 -30 44 -16 15 -30 34 -30 42 0 7 -9 20
-20 28 -11 8 -20 21 -20 28 0 8 -13 27 -30 42 -16 15 -30 33 -30 40 0 7 -13
25 -30 40 -17 15 -30 33 -30 40 0 7 -13 25 -30 40 -18 17 -30 38 -30 54 0 14
-4 26 -10 26 -5 0 -10 9 -10 20 0 13 -7 20 -20 20 -16 0 -20 7 -20 30 0 21 -5
30 -16 30 -18 0 -44 24 -44 41 0 6 -8 19 -17 28 -10 9 -26 39 -37 66 -69 183
-112 316 -137 420 -15 66 -35 143 -44 170 -9 28 -20 95 -25 150 -6 55 -14 132
-20 170 -5 39 -17 138 -26 220 -27 258 -94 473 -178 576 -11 14 -47 58 -79 98
-63 77 -148 131 -207 131 -16 0 -30 2 -30 4 0 2 20 49 45 105 41 92 45 109 45
179 0 120 -20 173 -94 248 l-62 64 -81 0 c-68 0 -89 -4 -137 -28 l-56 -29 0
64 c0 35 -4 63 -10 63 -5 0 -10 9 -10 20 0 19 -7 20 -117 20 -89 -1 -121 -4
-130 -15z"/>
</g>
</svg>
