<?xml version="1.0" standalone="no"?>
<!DOCTYPE svg PUBLIC "-//W3C//DTD SVG 20010904//EN"
 "http://www.w3.org/TR/2001/REC-SVG-20010904/DTD/svg10.dtd">
<svg version="1.0" xmlns="http://www.w3.org/2000/svg"
 width="70.000000pt" height="87.000000pt" viewBox="0 0 70.000000 87.000000"
 preserveAspectRatio="xMidYMid meet">
<metadata>
Created by potrace 1.13, written by Peter Selinger 2001-2015
</metadata>
<g transform="translate(0.000000,87.000000) scale(0.100000,-0.100000)"
fill="#000000" stroke="none">
<path d="M270 841 c0 -14 -8 -21 -27 -23 -26 -3 -28 -6 -26 -50 1 -27 -3 -48
-8 -48 -6 0 -21 -11 -34 -24 -13 -14 -33 -27 -44 -31 -28 -9 -44 -89 -19 -97
26 -9 -3 -255 -33 -274 -5 -3 -9 -13 -9 -23 0 -10 -7 -24 -15 -31 -8 -7 -15
-21 -15 -31 0 -10 -9 -33 -20 -51 -31 -51 -27 -86 13 -103 38 -16 218 -40 246
-32 12 3 22 -1 25 -9 7 -19 63 -18 74 1 5 10 33 20 76 26 93 13 154 29 200 51
35 18 38 22 32 50 -3 16 -15 41 -26 55 -11 14 -20 32 -20 39 0 7 -6 17 -13 21
-16 10 -59 92 -87 165 -27 69 -37 162 -20 183 18 22 4 64 -25 71 -13 3 -27 15
-30 25 -4 10 -15 19 -25 19 -16 0 -19 9 -22 53 -3 49 -5 52 -32 55 -16 2 -35
10 -43 18 -8 8 -28 14 -44 14 -22 0 -29 -5 -29 -19z"/>
</g>
</svg>
