<?xml version="1.0" standalone="no"?>
<!DOCTYPE svg PUBLIC "-//W3C//DTD SVG 20010904//EN"
 "http://www.w3.org/TR/2001/REC-SVG-20010904/DTD/svg10.dtd">
<svg version="1.0" xmlns="http://www.w3.org/2000/svg"
 width="160.000000pt" height="210.000000pt" viewBox="0 0 160.000000 210.000000"
 preserveAspectRatio="xMidYMid meet">
<metadata>
Created by potrace 1.13, written by Peter Selinger 2001-2015
</metadata>
<g transform="translate(0.000000,210.000000) scale(0.100000,-0.100000)"
fill="#000000" stroke="none">
<path d="M816 2075 c-3 -9 -6 -30 -6 -46 0 -28 -1 -29 -52 -29 -81 0 -93 -7
-119 -62 -23 -49 -23 -50 -6 -116 22 -86 22 -92 -5 -92 -30 0 -38 -7 -72 -60
-16 -25 -40 -54 -53 -65 -27 -22 -40 -64 -53 -170 -5 -38 -12 -88 -15 -110
-29 -207 -32 -221 -81 -375 -26 -80 -111 -239 -131 -247 -7 -3 -13 -11 -13
-19 0 -8 -4 -14 -9 -14 -5 0 -13 -10 -16 -22 -4 -11 -39 -64 -78 -116 -71 -96
-96 -145 -97 -193 0 -21 8 -29 48 -46 149 -65 426 -123 592 -123 71 0 87 -16
82 -81 -6 -78 6 -89 93 -89 l75 0 0 65 0 64 33 5 c17 3 66 8 107 11 92 8 136
16 320 62 230 57 258 76 231 155 -11 32 -138 249 -151 258 -8 5 -21 67 -25
115 -1 17 -14 75 -28 130 -15 55 -27 114 -27 130 0 17 -4 35 -8 40 -10 11 -32
169 -37 265 -10 171 -22 256 -41 287 -10 18 -24 33 -31 33 -6 0 -21 21 -34 48
-26 53 -35 62 -66 62 -20 0 -22 4 -17 33 3 17 10 45 15 61 14 45 11 114 -7
141 -17 26 -104 50 -155 43 -26 -4 -28 -2 -31 36 l-3 41 -61 3 c-49 2 -63 0
-68 -13z"/>
</g>
</svg>
