<?xml version="1.0" standalone="no"?>
<!DOCTYPE svg PUBLIC "-//W3C//DTD SVG 20010904//EN"
 "http://www.w3.org/TR/2001/REC-SVG-20010904/DTD/svg10.dtd">
<svg version="1.0" xmlns="http://www.w3.org/2000/svg"
 width="252.000000pt" height="255.000000pt" viewBox="0 0 252.000000 255.000000"
 preserveAspectRatio="xMidYMid meet">
<metadata>
Created by potrace 1.13, written by Peter Selinger 2001-2015
</metadata>
<g transform="translate(0.000000,255.000000) scale(0.100000,-0.100000)"
fill="#000000" stroke="none">
<path d="M655 2067 c-38 -19 -77 -43 -87 -53 -46 -53 -65 -181 -34 -229 8 -12
33 -31 55 -42 l40 -20 -45 -44 c-24 -24 -44 -51 -44 -60 0 -9 -7 -22 -15 -29
-19 -16 -19 -44 0 -60 14 -12 14 -15 0 -30 -19 -21 -19 -74 0 -90 19 -16 19
-44 0 -60 -14 -12 -13 -16 11 -41 28 -29 63 -117 64 -158 0 -14 10 -35 21 -47
26 -28 69 -129 69 -163 0 -14 12 -37 27 -53 32 -34 56 -97 42 -114 -6 -7 -4
-16 6 -24 8 -7 15 -20 15 -30 0 -10 7 -23 15 -30 8 -7 15 -20 15 -30 0 -10 7
-24 16 -31 15 -12 16 -30 11 -136 -4 -71 -12 -131 -19 -143 -10 -16 -10 -24 0
-40 9 -15 10 -26 2 -40 -19 -36 -12 -99 15 -126 27 -27 77 -30 97 -7 6 7 17
13 26 13 8 0 23 7 33 16 10 9 32 17 49 19 17 1 36 7 43 14 6 6 19 11 28 11 9
0 22 7 29 15 7 8 20 15 30 15 10 0 23 7 30 15 12 14 15 14 30 0 15 -14 18 -14
30 0 7 8 20 15 29 15 10 0 30 13 46 30 16 16 36 30 46 30 9 0 22 7 29 15 7 8
20 15 30 15 10 0 23 7 30 15 10 12 15 12 39 -6 41 -30 118 -36 173 -12 61 28
101 94 96 161 -3 40 0 47 17 51 11 2 50 30 86 62 37 33 71 59 77 59 5 0 15 7
22 15 7 8 20 15 29 15 10 0 30 13 46 29 15 17 37 31 48 33 13 2 23 13 27 28 4
16 14 26 28 28 13 2 27 13 32 25 14 33 44 64 66 69 10 2 20 12 22 23 2 11 17
34 34 51 34 37 34 66 -2 74 -15 4 -26 15 -30 30 -4 15 -14 26 -27 28 -12 2
-27 10 -33 18 -7 8 -20 14 -30 14 -10 0 -23 7 -30 15 -16 19 -44 19 -60 0 -12
-14 -17 -12 -45 15 -17 16 -38 30 -47 30 -8 0 -21 7 -28 15 -7 8 -16 15 -21
15 -4 0 -35 27 -67 60 -41 42 -66 60 -83 60 -28 0 -65 34 -71 65 -2 11 -14 22
-28 25 -15 4 -26 14 -28 27 -2 12 -10 27 -18 33 -8 7 -14 20 -14 30 0 24 -11
32 -26 19 -11 -9 -16 -5 -24 16 -5 14 -10 29 -10 32 0 3 -10 18 -22 33 -13 15
-31 42 -40 59 -9 17 -33 38 -52 48 -21 9 -36 25 -38 37 -2 12 -12 22 -24 24
-11 2 -40 23 -64 47 -41 42 -45 44 -62 28 -19 -17 -17 -19 -32 31 -3 9 -29 15
-85 18 -44 3 -86 10 -94 16 -8 7 -17 9 -20 5 -9 -8 -75 -7 -110 2 -17 5 -33
19 -43 39 -40 83 -37 81 -111 84 -60 2 -76 -1 -138 -31z"/>
</g>
</svg>
