<?xml version="1.0" standalone="no"?>
<!DOCTYPE svg PUBLIC "-//W3C//DTD SVG 20010904//EN"
 "http://www.w3.org/TR/2001/REC-SVG-20010904/DTD/svg10.dtd">
<svg version="1.0" xmlns="http://www.w3.org/2000/svg"
 width="189.000000pt" height="222.000000pt" viewBox="0 0 189.000000 222.000000"
 preserveAspectRatio="xMidYMid meet">
<metadata>
Created by potrace 1.13, written by Peter Selinger 2001-2015
</metadata>
<g transform="translate(0.000000,222.000000) scale(0.100000,-0.100000)"
fill="#000000" stroke="none">
<path d="M880 2205 c-7 -8 -23 -15 -36 -15 -27 0 -98 -61 -120 -103 -17 -31
-21 -100 -9 -134 7 -21 4 -23 -32 -23 -27 0 -52 -8 -74 -25 -19 -13 -55 -36
-81 -50 -72 -38 -79 -56 -85 -199 -5 -105 -3 -136 15 -202 34 -129 37 -224 12
-324 -30 -117 -75 -233 -117 -299 -19 -31 -84 -103 -143 -161 -104 -102 -109
-108 -159 -220 -60 -135 -64 -173 -24 -221 63 -74 285 -137 543 -155 61 -4
111 -16 178 -40 92 -34 94 -34 264 -34 155 0 174 2 204 21 19 11 37 26 41 33
5 7 61 20 133 30 152 21 307 58 377 91 28 14 65 42 82 62 40 49 42 115 6 197
-14 31 -25 73 -25 92 0 29 -8 42 -42 72 -187 164 -184 160 -242 342 -33 106
-48 224 -42 336 18 314 18 383 0 442 -25 77 -77 133 -160 168 -51 22 -63 31
-57 43 4 9 9 51 11 94 l4 78 -39 38 c-59 59 -131 81 -262 81 -84 0 -111 -3
-121 -15z"/>
</g>
</svg>
