<?xml version="1.0" standalone="no"?>
<!DOCTYPE svg PUBLIC "-//W3C//DTD SVG 20010904//EN"
 "http://www.w3.org/TR/2001/REC-SVG-20010904/DTD/svg10.dtd">
<svg version="1.0" xmlns="http://www.w3.org/2000/svg"
 width="140.000000pt" height="167.000000pt" viewBox="0 0 140.000000 167.000000"
 preserveAspectRatio="xMidYMid meet">
<metadata>
Created by potrace 1.13, written by Peter Selinger 2001-2015
</metadata>
<g transform="translate(0.000000,167.000000) scale(0.100000,-0.100000)"
fill="#000000" stroke="none">
<path d="M660 1632 c0 -28 -2 -29 -61 -35 -100 -9 -120 -48 -80 -162 l19 -54
-25 -30 c-14 -17 -32 -31 -39 -31 -23 0 -93 -82 -109 -128 -9 -26 -25 -108
-35 -182 -39 -268 -108 -427 -246 -572 -28 -29 -56 -63 -62 -75 -14 -26 -16
-102 -2 -137 18 -48 142 -108 290 -141 50 -11 284 -35 342 -35 4 0 8 -11 8
-25 0 -23 4 -25 45 -25 41 0 45 2 45 25 0 24 3 25 63 25 73 0 280 25 340 41
70 18 126 38 165 59 69 36 74 44 80 115 l5 67 -75 76 c-101 102 -133 150 -156
230 -34 119 -42 159 -62 335 -11 94 -26 195 -35 224 -17 57 -68 110 -114 119
-17 4 -31 16 -40 35 -12 27 -11 36 8 81 12 28 21 72 21 98 0 56 -18 69 -101
75 -30 2 -57 4 -61 4 -4 1 -8 11 -10 24 -3 19 -10 22 -60 25 l-58 3 0 -29z"/>
</g>
</svg>
