<?xml version="1.0" standalone="no"?>
<!DOCTYPE svg PUBLIC "-//W3C//DTD SVG 20010904//EN"
 "http://www.w3.org/TR/2001/REC-SVG-20010904/DTD/svg10.dtd">
<svg version="1.0" xmlns="http://www.w3.org/2000/svg"
 width="390.000000pt" height="386.000000pt" viewBox="0 0 390.000000 386.000000"
 preserveAspectRatio="xMidYMid meet">
<metadata>
Created by potrace 1.13, written by Peter Selinger 2001-2015
</metadata>
<g transform="translate(0.000000,386.000000) scale(0.100000,-0.100000)"
fill="#000000" stroke="none">
<path d="M1858 3609 c-10 -6 -18 -7 -18 -4 0 3 -9 1 -19 -5 -14 -7 -22 -7 -26
0 -4 6 -9 8 -13 6 -4 -2 -25 -7 -46 -10 -21 -4 -59 -15 -82 -26 -24 -10 -44
-16 -44 -13 0 3 -6 1 -13 -6 -8 -6 -24 -9 -37 -6 -12 2 -32 -1 -44 -7 -11 -7
-24 -12 -29 -13 -4 0 -16 -13 -27 -30 l-19 -29 44 -28 c49 -31 85 -89 85 -138
0 -25 -12 -43 -59 -88 -32 -31 -83 -95 -113 -143 -34 -52 -81 -108 -122 -144
-37 -33 -80 -83 -97 -113 -36 -64 -90 -202 -84 -213 3 -4 1 -9 -5 -11 -8 -2
-21 -84 -23 -145 0 -7 -3 -13 -7 -13 -3 0 -6 -8 -7 -17 -2 -42 -8 -73 -13 -73
-3 0 -6 -23 -8 -51 -1 -27 -7 -59 -12 -70 -6 -11 -8 -24 -5 -29 3 -6 2 -10 -2
-10 -5 0 -8 -37 -8 -82 0 -46 -4 -86 -10 -90 -7 -5 -7 -8 0 -8 11 0 12 -131 1
-148 -3 -6 -2 -13 2 -16 5 -3 8 -15 7 -28 -1 -13 2 -31 6 -40 6 -10 5 -19 -2
-23 -6 -5 -4 -12 8 -21 13 -9 14 -13 4 -14 -9 0 -10 -4 -5 -12 5 -7 9 -28 9
-45 0 -18 3 -33 7 -33 14 0 9 -28 -8 -45 -9 -8 -13 -22 -11 -30 4 -9 -6 -18
-31 -26 -20 -6 -43 -16 -49 -22 -7 -5 -13 -6 -13 -1 0 4 -5 3 -12 -4 -9 -9
-17 -4 -33 21 -12 17 -25 46 -29 63 -8 35 -39 68 -74 79 -29 9 -42 -20 -16
-39 17 -13 17 -14 -5 -21 -15 -4 -28 -1 -40 9 -10 9 -23 16 -29 16 -7 0 -26
12 -43 28 -17 15 -35 26 -40 24 -5 -1 -9 2 -9 8 0 12 -29 2 -52 -18 -14 -11
-15 -18 -7 -28 6 -8 16 -11 22 -7 6 4 8 -2 4 -16 -4 -15 1 -24 16 -32 12 -6
31 -20 42 -30 11 -9 26 -19 34 -21 14 -3 25 -11 90 -67 13 -12 20 -21 15 -21
-5 0 -2 -4 6 -10 8 -5 11 -12 8 -16 -10 -10 -78 -12 -78 -3 0 5 -10 7 -22 5
-13 -3 -31 -5 -40 -5 -10 -1 -18 -8 -18 -16 0 -8 -5 -15 -10 -15 -6 0 -5 -6 2
-14 7 -7 19 -11 27 -8 8 3 12 1 8 -5 -11 -18 17 -32 71 -34 29 -2 55 -6 57 -9
3 -4 16 -6 30 -5 14 2 25 0 25 -3 0 -4 19 -7 43 -7 37 0 42 -3 43 -23 1 -25
30 -51 57 -52 14 0 17 9 17 46 0 59 40 104 93 104 42 0 124 -59 133 -95 14
-55 194 -175 284 -190 54 -9 144 -37 162 -52 7 -6 38 -15 68 -21 149 -29 164
-33 262 -81 37 -18 70 -32 74 -31 4 1 10 -3 14 -10 4 -6 16 -13 26 -15 10 -2
19 -4 19 -5 0 -1 7 -3 15 -5 67 -14 131 -41 165 -70 22 -19 47 -40 55 -47 8
-6 29 -24 46 -40 17 -16 44 -31 60 -34 16 -3 30 -7 32 -9 2 -2 17 1 33 5 16 5
29 5 29 0 0 -13 104 -4 108 9 2 6 8 9 13 5 5 -3 9 0 9 6 0 6 4 9 9 6 10 -6 65
20 89 42 7 6 20 12 28 12 8 0 14 5 14 11 0 5 5 7 10 4 6 -3 10 -1 10 4 0 6 5
11 10 11 10 0 32 21 71 67 8 11 14 24 11 31 -2 7 3 12 11 12 8 0 25 14 38 32
13 17 30 37 37 44 6 7 12 17 12 23 0 5 12 23 26 40 14 17 23 31 19 31 -4 0 -2
7 5 15 7 9 10 18 7 22 -4 3 -2 12 4 20 6 7 8 13 4 13 -4 0 -3 6 3 13 9 11 10
86 1 117 -5 16 -37 55 -47 56 -4 0 -23 4 -42 7 -57 11 -181 14 -186 5 -3 -4
-16 -8 -29 -8 -13 0 -26 -4 -30 -10 -3 -5 -12 -7 -19 -4 -8 3 -17 0 -21 -5 -3
-6 -10 -9 -15 -6 -5 3 -21 0 -37 -6 -15 -6 -49 -12 -74 -14 -26 -1 -51 -5 -56
-8 -9 -6 -99 35 -145 67 -16 10 -28 26 -28 36 0 9 -10 28 -23 42 -13 14 -22
33 -21 42 1 9 -2 16 -6 16 -9 0 -25 40 -22 53 1 4 -3 7 -8 7 -6 0 -10 6 -9 13
3 19 -13 77 -21 77 -3 0 -7 6 -7 13 -1 6 -8 39 -17 72 -9 32 -16 75 -16 95 0
19 -9 49 -20 65 -11 17 -20 44 -20 61 0 63 -81 319 -144 459 -15 33 -43 108
-62 167 -19 59 -47 134 -61 165 -15 32 -26 61 -25 66 1 4 -2 7 -7 7 -8 0 -13
10 -28 60 -11 37 -10 61 3 102 7 24 16 57 20 73 3 19 27 50 65 85 33 31 61 62
62 70 2 8 6 21 10 27 4 7 10 42 12 79 3 36 7 70 10 74 3 4 -2 24 -10 43 -9 21
-11 38 -6 42 6 3 8 14 6 25 -2 11 1 22 6 26 6 4 6 11 -2 20 -6 8 -9 23 -6 34
3 11 1 20 -5 20 -5 0 -7 4 -3 9 9 15 -15 24 -62 24 -24 -1 -43 4 -43 9 0 6 -6
6 -14 -1 -9 -7 -15 -8 -18 -2 -2 6 -9 6 -20 0z m-228 -458 c0 -22 26 -36 33
-18 3 8 10 7 22 -5 12 -11 15 -23 10 -35 -14 -33 -14 -62 1 -74 12 -10 12 -14
2 -20 -7 -4 -18 -3 -26 3 -17 14 -37 -4 -29 -26 7 -18 27 -22 27 -6 0 6 7 10
16 10 12 0 6 -9 -17 -29 -33 -29 -33 -29 -50 -10 -16 18 -18 18 -33 3 -12 -12
-20 -13 -30 -5 -7 6 -15 9 -17 7 -2 -2 -5 9 -6 25 -1 16 2 29 7 29 5 0 10 12
12 27 2 16 10 27 21 29 17 2 56 41 57 56 0 4 -8 12 -17 17 -12 7 -13 10 -4 11
7 0 11 6 7 15 -3 8 -1 15 4 15 6 0 10 -9 10 -19z m-40 -22 c0 -5 -9 -19 -20
-31 -18 -20 -21 -20 -38 -5 -10 10 -22 14 -27 10 -4 -5 -5 -2 -1 5 4 7 13 11
19 9 6 -2 19 5 29 15 18 18 38 17 38 -3z m-70 -90 c0 -6 -4 -7 -10 -4 -5 3
-10 11 -10 16 0 6 5 7 10 4 6 -3 10 -11 10 -16z m115 -1329 c-3 -5 -12 -10
-18 -10 -7 0 -6 4 3 10 19 12 23 12 15 0z m-555 -272 c0 -4 -5 -8 -12 -8 -6 0
-8 3 -5 7 4 3 2 12 -5 20 -9 11 -16 9 -40 -14 -20 -20 -31 -24 -39 -16 -8 8
-1 18 27 36 39 24 39 24 57 4 9 -11 17 -24 17 -29z m-191 8 c9 13 63 11 68 -2
2 -6 -6 -19 -17 -29 -18 -16 -23 -17 -30 -5 -7 11 -11 11 -24 1 -9 -7 -14 -17
-11 -21 3 -4 -1 -13 -9 -19 -10 -9 -16 -8 -26 4 -10 13 -8 21 3 13 2 -2 12 3
21 11 15 13 15 16 -6 39 l-23 25 24 -13 c13 -6 26 -8 30 -4z m355 -99 c3 4 4
-10 1 -30 -4 -26 -3 -37 6 -37 7 0 9 -3 6 -6 -4 -4 -19 7 -35 23 -21 23 -25
34 -18 46 7 11 14 13 22 7 6 -6 14 -7 18 -3z"/>
</g>
</svg>
