<?xml version="1.0" standalone="no"?>
<!DOCTYPE svg PUBLIC "-//W3C//DTD SVG 20010904//EN"
 "http://www.w3.org/TR/2001/REC-SVG-20010904/DTD/svg10.dtd">
<svg version="1.0" xmlns="http://www.w3.org/2000/svg"
 width="320.000000pt" height="252.000000pt" viewBox="0 0 320.000000 252.000000"
 preserveAspectRatio="xMidYMid meet">
<metadata>
Created by potrace 1.13, written by Peter Selinger 2001-2015
</metadata>
<g transform="translate(0.000000,252.000000) scale(0.100000,-0.100000)"
fill="#000000" stroke="none">
<path d="M605 2166 c-56 -18 -134 -74 -148 -105 -6 -14 -35 -49 -64 -77 -58
-56 -68 -90 -30 -99 12 -2 62 -7 110 -9 50 -2 95 -10 103 -17 52 -43 56 -130
14 -314 -43 -183 -57 -341 -41 -458 6 -50 15 -96 20 -102 4 -5 14 -26 21 -45
22 -56 77 -136 131 -193 28 -28 58 -62 66 -74 8 -13 45 -44 82 -69 36 -26 74
-58 85 -71 27 -35 161 -100 276 -135 42 -12 50 -23 50 -66 0 -24 -9 -42 -30
-63 -28 -28 -35 -30 -95 -28 -51 2 -69 -2 -85 -16 -11 -10 -20 -22 -20 -26 0
-9 49 -16 173 -25 91 -5 101 -8 142 -39 l43 -33 -8 29 c-5 16 -18 45 -29 63
-26 42 -26 76 -1 126 33 64 56 74 147 63 59 -7 88 -6 123 4 59 18 140 55 140
64 0 4 12 12 28 18 30 13 143 76 184 104 17 12 59 21 121 28 l94 9 199 -65
c238 -79 308 -89 396 -55 59 22 88 56 88 104 0 12 9 27 20 34 14 9 20 23 20
51 0 49 -27 72 -114 98 l-29 9 31 13 c23 10 32 20 32 36 0 23 -42 65 -65 65
-7 0 -10 11 -7 29 6 45 -20 53 -197 57 -86 3 -178 9 -204 14 -26 6 -68 10 -93
10 -63 0 -164 26 -256 66 -43 19 -80 34 -84 34 -5 0 -59 23 -229 100 -22 10
-105 46 -184 80 -146 62 -215 95 -235 111 -203 164 -246 230 -271 422 -20 150
-33 189 -88 260 -61 78 -224 119 -332 83z"/>
</g>
</svg>
