<?xml version="1.0" standalone="no"?>
<!DOCTYPE svg PUBLIC "-//W3C//DTD SVG 20010904//EN"
 "http://www.w3.org/TR/2001/REC-SVG-20010904/DTD/svg10.dtd">
<svg version="1.0" xmlns="http://www.w3.org/2000/svg"
 width="585.000000pt" height="583.000000pt" viewBox="0 0 585.000000 583.000000"
 preserveAspectRatio="xMidYMid meet">
<metadata>
Created by potrace 1.13, written by Peter Selinger 2001-2015
</metadata>
<g transform="translate(0.000000,583.000000) scale(0.100000,-0.100000)"
fill="#000000" stroke="none">
<path d="M2437 4394 c-2 -2 -37 -7 -78 -11 -71 -5 -104 -10 -104 -13 0 -1 -18
-3 -40 -5 -22 -2 -55 -6 -72 -9 -45 -8 -95 -17 -113 -20 -60 -10 -98 -20 -117
-32 -12 -8 -33 -14 -46 -14 -12 0 -28 -5 -33 -10 -6 -6 -25 -12 -42 -13 -18
-1 -32 -7 -32 -12 0 -6 -12 -12 -26 -13 -15 -1 -33 -7 -40 -13 -8 -6 -14 -8
-14 -3 0 5 -4 4 -8 -1 -6 -9 -55 -33 -139 -67 -18 -7 -33 -17 -33 -21 0 -5 -4
-6 -8 -3 -5 3 -25 -6 -45 -20 -20 -14 -37 -21 -37 -17 0 4 -7 -2 -15 -13 -8
-10 -15 -14 -15 -9 0 6 -4 4 -9 -3 -4 -7 -15 -14 -23 -16 -8 -1 -23 -9 -32
-19 -10 -9 -28 -20 -42 -23 -13 -3 -24 -10 -24 -15 0 -5 -7 -9 -15 -9 -8 0
-15 -4 -15 -10 0 -5 -6 -10 -13 -10 -7 0 -28 -12 -46 -27 -19 -16 -36 -28 -40
-28 -4 0 -13 -6 -21 -13 -8 -7 -26 -22 -40 -33 -14 -11 -37 -31 -52 -45 -15
-13 -35 -24 -43 -24 -8 0 -15 -7 -15 -17 0 -9 -3 -13 -7 -10 -3 4 -17 -3 -30
-15 -13 -12 -23 -17 -23 -12 0 5 -11 -8 -25 -28 -14 -20 -25 -42 -25 -47 0 -6
-4 -11 -8 -11 -18 0 -6 -49 18 -75 61 -65 118 -114 127 -107 2 1 11 -5 20 -13
13 -14 31 -16 101 -11 47 4 88 8 90 11 3 3 11 0 19 -6 7 -7 13 -7 13 -2 0 15
131 -52 169 -86 18 -17 38 -31 43 -31 5 0 7 -4 3 -9 -3 -5 6 -18 20 -29 13
-11 21 -22 18 -26 -4 -3 3 -17 15 -29 12 -13 20 -26 17 -29 -4 -3 6 -15 21
-27 15 -11 24 -21 20 -21 -4 0 0 -13 9 -29 8 -16 16 -43 17 -61 1 -17 8 -36
15 -42 17 -14 16 -28 -2 -48 -8 -9 -16 -26 -18 -38 -2 -12 -6 -25 -10 -28 -4
-4 -2 -13 4 -20 8 -10 0 -24 -34 -58 -25 -24 -43 -47 -40 -49 6 -7 -51 -67
-64 -67 -5 0 -16 -11 -23 -25 -7 -13 -17 -22 -22 -19 -4 3 -8 1 -8 -4 0 -5 -8
-13 -19 -18 -10 -5 -34 -21 -52 -36 -139 -113 -153 -122 -193 -124 -23 -1 -47
-3 -54 -3 -7 -1 -24 -12 -37 -25 -27 -27 -24 -56 6 -56 21 0 45 -35 29 -45 -5
-3 -7 -12 -3 -20 3 -9 0 -22 -7 -30 -7 -8 -9 -15 -5 -15 4 0 1 -7 -6 -17 -8
-9 -13 -18 -11 -20 1 -2 -5 -20 -13 -41 -10 -22 -14 -52 -11 -74 3 -22 0 -42
-7 -50 -19 -21 -8 -94 16 -110 14 -9 18 -36 6 -44 -5 -3 -7 -10 -4 -15 4 -5 2
-9 -4 -9 -6 0 -8 -7 -5 -15 4 -8 1 -15 -5 -15 -8 0 -8 -4 1 -14 16 -17 30 -15
52 7 10 9 22 15 27 12 5 -4 9 1 9 9 0 9 3 16 8 16 4 0 17 26 30 58 20 53 24
84 10 97 -7 8 2 88 12 98 13 15 60 -35 70 -74 6 -21 17 -45 25 -53 8 -8 15
-19 15 -25 0 -6 5 -11 10 -11 6 0 10 -6 10 -14 0 -8 14 -24 31 -37 26 -21 57
-64 61 -86 2 -11 89 -78 102 -79 6 0 17 4 23 9 9 6 16 1 23 -18 5 -14 10 -30
10 -35 0 -5 7 -16 16 -25 15 -14 18 -14 35 6 29 34 28 76 -4 129 -23 39 -33
49 -99 103 -26 21 -56 51 -68 67 l-21 29 28 -14 c15 -8 34 -15 42 -15 8 0 29
-11 47 -25 29 -22 33 -23 40 -7 4 9 8 32 10 51 1 29 -6 41 -49 83 -53 51 -87
73 -122 80 -26 4 -45 22 -45 42 0 9 -5 16 -11 16 -5 0 -7 5 -4 10 3 6 1 10 -5
10 -6 0 -8 12 -4 33 3 17 7 38 8 45 1 8 8 17 15 22 8 4 11 12 8 17 -3 4 11 22
30 38 20 17 53 46 73 65 21 19 55 50 76 68 106 90 119 96 147 67 8 -8 16 -12
19 -10 8 8 125 -90 121 -102 -2 -6 5 -14 16 -18 19 -6 81 -75 81 -90 0 -5 16
-27 35 -50 19 -23 35 -48 37 -56 2 -7 21 -31 42 -52 25 -25 41 -51 43 -70 2
-17 7 -35 12 -41 11 -13 41 -126 34 -126 -3 0 0 -7 7 -15 8 -9 8 -15 2 -15
-10 0 -8 -36 3 -67 2 -7 1 -13 -3 -13 -5 0 -5 -25 -2 -55 4 -36 2 -55 -4 -55
-8 0 -8 -3 0 -8 14 -9 11 -149 -4 -164 -7 -7 -19 -13 -29 -14 -44 -7 -63 -16
-92 -46 -17 -17 -31 -42 -31 -55 0 -25 27 -43 39 -26 11 17 46 20 60 6 8 -9
25 -13 41 -11 24 4 28 1 28 -21 0 -14 10 -34 25 -46 23 -21 43 -61 39 -77 -1
-5 2 -8 7 -8 7 0 20 -26 25 -52 0 -4 8 -15 16 -25 8 -10 17 -27 18 -38 2 -11
10 -27 18 -36 8 -9 13 -28 10 -42 -3 -16 1 -27 10 -31 8 -3 14 -14 14 -24 0
-46 55 -113 80 -97 5 3 7 -15 6 -44 -3 -38 0 -51 12 -56 16 -6 58 27 60 48 0
6 3 32 6 57 3 37 -1 55 -25 96 -16 28 -26 54 -22 57 3 4 2 7 -4 7 -10 0 -20
22 -28 60 -9 43 -15 61 -25 80 -10 19 -10 20 7 11 10 -5 37 -27 60 -48 23 -21
54 -48 70 -60 15 -12 46 -38 68 -57 22 -20 43 -36 48 -36 4 0 7 -7 7 -15 0 -8
4 -15 8 -15 4 0 16 -15 27 -32 22 -40 33 -48 62 -48 17 0 25 -9 33 -40 20 -73
60 -40 74 59 4 24 -10 59 -27 72 -5 3 -8 9 -8 13 1 3 0 8 0 11 -1 3 -3 10 -4
15 -1 6 -3 14 -4 19 0 5 -11 11 -23 15 -13 3 -34 16 -48 28 -14 13 -43 38 -65
57 -22 19 -39 36 -37 38 1 2 -12 16 -30 31 -18 15 -46 39 -63 55 l-30 28 55
-21 c42 -17 59 -19 77 -11 13 6 23 7 23 3 0 -4 12 -15 26 -25 25 -18 25 -18
44 3 19 22 19 23 -2 54 -28 39 -85 89 -106 93 -10 1 -32 4 -49 5 -18 2 -33 5
-33 8 0 3 -8 6 -17 7 -53 3 -107 14 -112 21 -3 5 -21 17 -38 27 -18 11 -34 25
-34 32 -2 17 -4 24 -14 46 -4 10 -5 21 -1 24 3 3 1 12 -5 20 -9 10 -8 13 0 13
7 0 9 5 4 13 -4 6 -8 18 -9 24 -5 33 -15 135 -20 203 -3 41 -8 78 -10 82 -3 4
0 8 7 8 9 0 10 3 3 10 -12 12 -6 70 8 70 5 0 7 4 4 9 -8 13 4 42 14 36 5 -3
11 -1 15 4 3 6 12 8 19 5 8 -3 17 0 21 5 3 6 10 9 15 6 4 -3 25 3 46 12 48 20
82 25 89 12 4 -5 18 -3 34 6 21 10 31 11 40 2 7 -7 11 -8 11 0 0 6 12 11 28
12 65 2 92 5 92 10 0 4 15 7 33 8 58 3 172 5 177 3 14 -4 90 -10 120 -9 66 3
75 4 87 12 6 4 14 3 18 -3 4 -6 12 -7 18 -3 7 4 62 9 122 11 102 3 230 10 230
12 0 5 48 12 91 14 27 1 55 6 61 9 7 4 14 3 18 -3 4 -6 11 -7 17 -4 6 4 29 9
52 12 23 2 43 7 46 11 3 3 23 7 44 8 22 1 42 7 46 13 6 9 9 9 14 1 5 -8 13 -8
27 -1 11 6 24 8 29 5 5 -3 23 1 40 10 17 9 45 14 65 12 20 -3 35 0 35 6 0 6 3
7 7 4 3 -4 13 -1 21 5 8 7 19 13 26 15 6 1 31 7 56 13 24 6 53 9 64 6 11 -3
25 -1 32 5 8 7 14 7 18 0 5 -7 15 -7 32 -1 14 6 29 8 34 5 4 -3 10 1 13 8 2 7
15 14 28 15 39 4 53 7 67 15 6 5 17 5 22 2 6 -3 10 -1 10 5 0 7 6 10 14 7 8
-3 17 1 20 9 3 8 12 14 21 14 8 0 15 5 15 10 0 6 5 10 11 10 6 0 24 9 40 21
16 11 29 17 29 12 0 -4 11 5 25 20 14 15 30 27 35 27 6 0 10 4 10 9 0 5 16 26
35 47 19 20 35 41 35 45 0 5 6 9 13 9 14 0 51 39 43 47 -2 3 9 20 25 38 17 18
36 41 43 50 10 14 28 18 79 19 37 1 67 5 67 10 0 5 6 3 13 -3 8 -6 16 -8 20
-5 3 3 21 7 39 8 19 1 40 6 46 10 7 4 12 2 12 -4 0 -6 11 -8 25 -6 13 3 27 1
30 -4 3 -5 16 -7 30 -4 19 3 35 -7 74 -46 27 -27 47 -50 43 -50 -3 0 4 -9 16
-20 25 -23 44 -18 69 18 14 22 18 47 17 125 0 53 3 97 7 97 32 0 40 248 9 258
-6 2 -8 8 -4 13 3 5 -4 25 -16 44 -12 19 -18 35 -15 35 4 0 2 7 -5 15 -7 8 -9
15 -4 15 5 0 -3 11 -18 24 -16 13 -28 26 -28 30 0 9 -79 86 -89 86 -4 0 -17 9
-29 20 -12 11 -25 21 -29 21 -5 1 -19 6 -33 12 -14 5 -34 11 -45 11 -11 1 -31
8 -45 16 -25 13 -213 23 -235 11 -5 -3 -21 -6 -35 -6 -14 0 -30 -4 -36 -7 -6
-4 -27 -6 -48 -5 -20 2 -36 1 -36 -2 0 -3 -11 -7 -24 -7 -13 -1 -51 -14 -85
-29 -33 -15 -75 -28 -93 -29 -19 -1 -39 -5 -46 -10 -6 -4 -12 -3 -12 2 0 9
-36 9 -46 0 -6 -7 -37 17 -88 68 -42 41 -105 113 -108 122 -3 11 -112 97 -119
95 -4 -1 -15 7 -24 17 -10 11 -26 20 -37 20 -10 0 -18 4 -18 8 0 8 -95 65
-102 62 -9 -4 -56 21 -76 40 -13 12 -30 23 -37 24 -8 1 -23 10 -35 21 -11 10
-20 15 -20 11 0 -4 -10 2 -22 13 -11 11 -24 18 -28 16 -4 -3 -13 2 -20 10 -7
8 -16 13 -20 10 -4 -3 -14 2 -21 11 -11 13 -102 66 -119 69 -13 2 -76 39 -81
47 -3 5 -9 10 -12 9 -4 0 -24 7 -44 16 -21 9 -44 16 -50 16 -7 0 -13 5 -13 10
0 6 -3 7 -7 4 -3 -4 -12 -2 -20 4 -7 6 -13 8 -13 4 0 -4 -6 -2 -14 4 -8 7 -27
14 -43 17 -41 8 -45 10 -83 27 -19 8 -48 17 -65 20 -16 3 -50 9 -75 14 -25 5
-54 9 -65 8 -11 0 -23 3 -26 7 -3 5 -27 11 -54 14 -27 3 -53 8 -58 11 -9 5
-35 10 -112 18 -27 3 -63 10 -80 14 -16 5 -37 9 -45 9 -8 1 -54 3 -101 6 -48
2 -89 3 -92 0z m1263 -578 c0 -10 -34 2 -38 13 -3 10 0 10 17 2 11 -7 21 -13
21 -15z m30 -140 c0 -10 -34 2 -38 13 -3 10 0 10 17 2 11 -7 21 -13 21 -15z
m1583 -597 l22 -21 -22 11 c-12 6 -25 16 -28 21 -11 17 5 11 28 -11z m-477
-55 c3 -16 2 -26 -1 -23 -3 4 -8 19 -11 35 -3 16 -2 26 1 23 3 -4 8 -19 11
-35z m-2101 -122 c-3 -3 -11 0 -18 7 -9 10 -8 11 6 5 10 -3 15 -9 12 -12z
m-515 -18 c0 -2 -9 0 -20 6 -11 6 -20 13 -20 16 0 2 9 0 20 -6 11 -6 20 -13
20 -16z m258 -61 c18 -3 34 -9 37 -12 4 -8 -48 -9 -55 -1 -3 3 -16 11 -30 18
-14 7 -16 10 -5 6 11 -3 35 -8 53 -11z m562 -35 c0 -12 -12 -9 -32 6 -26 19
-22 27 7 14 14 -6 25 -15 25 -20z m50 -170 c0 -4 7 -5 15 -2 8 3 24 -2 37 -11
23 -16 22 -16 -17 -10 -22 4 -47 8 -54 9 -23 4 -24 22 -1 22 11 0 20 -4 20 -8z
m-1950 -286 c0 -5 -7 -9 -15 -9 -8 0 -12 4 -9 9 3 4 9 8 15 8 5 0 9 -4 9 -8z
m1105 -712 c3 -5 -1 -10 -10 -10 -9 0 -13 5 -10 10 3 6 8 10 10 10 2 0 7 -4
10 -10z"/>
</g>
</svg>
