<?xml version="1.0" standalone="no"?>
<!DOCTYPE svg PUBLIC "-//W3C//DTD SVG 20010904//EN"
 "http://www.w3.org/TR/2001/REC-SVG-20010904/DTD/svg10.dtd">
<svg version="1.0" xmlns="http://www.w3.org/2000/svg"
 width="423.000000pt" height="296.000000pt" viewBox="0 0 423.000000 296.000000"
 preserveAspectRatio="xMidYMid meet">
<metadata>
Created by potrace 1.13, written by Peter Selinger 2001-2015
</metadata>
<g transform="translate(0.000000,296.000000) scale(0.100000,-0.100000)"
fill="#000000" stroke="none">
<path d="M600 2935 c-82 -24 -90 -27 -90 -36 0 -5 -7 -9 -15 -9 -23 0 -110
-85 -129 -125 -9 -18 -16 -49 -16 -69 0 -20 -4 -36 -9 -36 -5 0 -12 -20 -15
-45 -7 -43 -9 -46 -71 -75 -34 -16 -71 -30 -81 -30 -60 -1 -164 -82 -164 -127
0 -22 4 -23 63 -23 34 0 87 6 117 14 30 8 88 19 127 26 69 11 75 11 110 -11
64 -38 73 -49 73 -91 0 -27 -11 -58 -34 -98 -52 -89 -87 -194 -93 -282 -6 -78
12 -224 28 -234 5 -3 9 -16 9 -29 0 -13 5 -27 10 -30 6 -3 10 -18 10 -33 1
-26 11 -46 87 -173 62 -104 146 -177 300 -262 141 -78 188 -93 422 -137 209
-39 340 -34 666 24 131 23 149 24 176 10 44 -22 51 -37 39 -85 -7 -24 -17 -71
-24 -104 -12 -53 -23 -92 -56 -201 -6 -17 -10 -37 -10 -46 0 -8 -13 -41 -29
-74 -15 -32 -39 -84 -52 -115 l-24 -56 -39 13 c-21 8 -54 14 -72 14 -30 0 -34
-3 -34 -26 0 -18 7 -28 23 -32 13 -4 -13 -9 -65 -12 -65 -4 -91 -10 -107 -24
-24 -22 -27 -58 -6 -76 12 -10 11 -15 -10 -38 -32 -35 -33 -62 -1 -62 13 0 29
7 37 16 12 14 14 14 26 -3 11 -15 31 -19 110 -22 95 -3 96 -3 64 -19 -33 -15
-51 -46 -51 -83 0 -14 7 -19 25 -19 15 0 25 6 25 14 0 8 7 16 15 20 9 3 15 0
15 -9 0 -15 42 -31 58 -21 4 2 43 14 85 25 42 12 100 32 129 45 74 34 173 66
203 66 14 0 25 5 25 10 0 6 11 10 25 10 37 0 85 27 85 49 0 23 -40 41 -90 41
-22 0 -40 3 -40 6 0 18 93 193 150 281 36 56 89 139 118 185 29 46 68 103 87
128 19 25 53 77 76 115 24 39 49 76 56 83 7 7 13 31 13 52 0 34 -6 43 -55 85
-30 27 -55 53 -55 60 0 6 -17 31 -37 55 -21 24 -33 45 -26 47 23 8 128 75 131
84 2 5 10 9 18 9 8 0 14 5 14 10 0 6 7 10 15 10 8 0 52 24 97 54 105 68 293
156 334 156 14 0 139 40 184 58 14 6 88 18 165 27 196 23 399 54 470 70 79 19
105 48 105 115 0 47 -2 51 -33 63 -22 10 -82 15 -187 16 -149 1 -361 23 -330
33 8 3 47 15 85 27 39 11 99 30 134 41 35 11 69 20 75 20 6 0 35 11 64 25 53
25 53 25 50 67 -3 43 -3 43 -48 50 -69 10 -262 9 -380 -2 -304 -29 -391 -34
-440 -28 -30 3 -136 11 -235 18 -99 6 -202 17 -230 25 -62 18 -274 68 -375 89
-83 17 -258 42 -365 51 -38 3 -95 10 -125 15 -116 19 -241 20 -367 5 -69 -9
-133 -19 -142 -24 -9 -5 -34 -12 -56 -16 -21 -3 -66 -19 -100 -34 -48 -22 -66
-26 -92 -19 -38 10 -36 0 -37 168 -1 134 -12 179 -61 261 -14 24 -28 52 -31
61 -4 9 -18 22 -33 28 -14 6 -37 17 -51 25 -67 38 -95 45 -179 44 -47 0 -106
-6 -131 -14z m1333 -2812 c-7 -2 -19 -2 -25 0 -7 3 -2 5 12 5 14 0 19 -2 13
-5z"/>
</g>
</svg>
