<?xml version="1.0" standalone="no"?>
<!DOCTYPE svg PUBLIC "-//W3C//DTD SVG 20010904//EN"
 "http://www.w3.org/TR/2001/REC-SVG-20010904/DTD/svg10.dtd">
<svg version="1.0" xmlns="http://www.w3.org/2000/svg"
 width="416.000000pt" height="613.000000pt" viewBox="0 0 416.000000 613.000000"
 preserveAspectRatio="xMidYMid meet">
<metadata>
Created by potrace 1.13, written by Peter Selinger 2001-2015
</metadata>
<g transform="translate(0.000000,613.000000) scale(0.100000,-0.100000)"
fill="#000000" stroke="none">
<path d="M3451 5389 c-46 -11 -107 -32 -134 -47 -63 -34 -179 -145 -201 -192
-9 -19 -29 -55 -45 -80 -44 -71 -60 -134 -71 -278 -13 -182 -28 -236 -88 -332
-46 -73 -109 -130 -145 -130 -15 0 -35 -4 -45 -9 -19 -11 -175 -41 -209 -41
-12 0 -34 -7 -50 -15 -50 -26 -97 -43 -138 -50 -87 -14 -287 -76 -357 -111
-147 -72 -171 -85 -185 -99 -8 -8 -18 -15 -23 -15 -4 0 -25 -16 -46 -35 -22
-19 -47 -37 -56 -41 -10 -3 -18 -10 -18 -15 0 -5 -6 -9 -12 -9 -7 0 -27 -13
-45 -28 -18 -15 -41 -34 -51 -42 -11 -8 -42 -35 -70 -60 -27 -25 -67 -58 -88
-75 -58 -46 -284 -271 -284 -283 0 -6 -14 -26 -31 -44 -17 -18 -37 -48 -45
-65 -8 -18 -18 -33 -22 -33 -4 0 -12 -10 -18 -23 -18 -38 -59 -112 -65 -117
-3 -3 -17 -27 -31 -55 -31 -63 -51 -99 -59 -105 -4 -3 -16 -25 -29 -49 -12
-24 -38 -67 -57 -95 -42 -58 -143 -263 -143 -288 0 -22 -21 -68 -31 -68 -4 0
-9 -19 -12 -42 -3 -24 -13 -68 -22 -98 -10 -30 -19 -68 -22 -85 -3 -16 -11
-35 -19 -41 -8 -6 -18 -49 -24 -105 -6 -52 -17 -115 -26 -140 -8 -26 -14 -62
-13 -80 1 -19 -4 -68 -10 -109 -7 -41 -16 -109 -21 -150 -12 -99 -35 -170 -85
-255 -23 -38 -70 -124 -105 -190 -34 -66 -70 -131 -79 -145 -9 -14 -32 -56
-50 -94 -26 -55 -31 -76 -26 -107 6 -35 10 -39 43 -45 52 -10 88 -9 157 6 82
17 110 28 142 56 29 25 59 31 65 14 2 -7 42 -5 116 5 94 12 117 19 140 40 15
14 30 25 34 25 5 0 8 7 8 15 0 8 4 15 8 15 4 0 18 19 30 43 34 66 57 104 86
141 14 19 26 39 26 44 0 6 4 12 8 14 15 6 92 138 92 158 0 11 6 23 14 26 7 3
22 22 32 42 11 20 27 45 37 56 9 11 17 23 17 27 0 4 18 6 40 6 22 -1 40 -6 40
-11 0 -5 14 -6 31 -2 25 5 32 2 36 -14 3 -11 13 -20 22 -20 10 0 24 -11 31
-25 7 -14 22 -25 33 -25 10 0 21 -9 24 -20 3 -11 12 -20 20 -20 16 0 63 -44
63 -59 0 -5 9 -13 20 -16 11 -3 20 -13 20 -21 0 -8 7 -14 15 -14 8 0 15 -4 15
-10 0 -5 9 -10 20 -10 15 0 20 -7 20 -26 0 -32 23 -55 63 -63 57 -12 98 -101
138 -304 29 -146 23 -167 -59 -227 -37 -27 -77 -52 -90 -55 -32 -8 -82 -46
-82 -62 0 -7 -4 -13 -10 -13 -13 0 -13 -34 2 -81 16 -56 44 -53 52 6 5 30 14
48 27 56 12 6 21 9 22 7 33 -66 51 -64 140 18 l27 26 0 -24 c0 -12 3 -32 6
-44 4 -16 -9 -31 -65 -75 -38 -30 -70 -60 -70 -66 -1 -7 -8 -13 -16 -13 -17 0
-17 -4 -15 -143 2 -101 20 -157 50 -157 16 0 19 8 22 58 l3 57 35 3 c41 4 60
24 60 64 0 15 5 28 10 28 6 0 20 20 32 45 12 25 31 48 42 51 11 4 33 16 48 27
26 19 30 19 145 5 68 -9 137 -24 163 -36 25 -11 63 -23 84 -28 22 -4 60 -20
85 -35 65 -40 105 -47 127 -21 16 19 20 20 46 6 31 -16 68 -68 68 -96 0 -23
36 -24 44 -2 12 30 5 89 -13 131 -20 43 -90 103 -121 103 -10 0 -23 6 -29 14
-6 8 -26 16 -44 19 -52 8 -119 27 -136 38 -14 9 -13 10 3 5 36 -12 86 4 92 30
5 20 11 23 28 18 11 -4 28 -15 37 -25 9 -11 23 -19 32 -19 21 0 32 53 16 82
-43 82 -155 98 -294 42 -64 -26 -134 -32 -176 -16 -82 32 -155 212 -209 511
-25 141 -25 147 0 154 12 3 20 14 20 26 0 14 6 21 20 21 15 0 20 7 20 25 0 14
6 25 13 25 16 0 57 41 57 57 0 12 55 23 125 23 28 1 68 8 90 16 22 9 63 21 90
27 28 6 53 17 58 23 4 7 22 15 40 19 58 12 127 36 127 46 0 5 6 9 13 10 6 0
30 24 53 52 22 29 49 56 60 62 48 25 83 57 89 84 4 21 13 30 34 34 21 4 45 27
85 79 30 40 60 78 66 85 5 7 10 17 10 23 0 5 6 10 14 10 7 0 16 8 19 18 6 17
37 72 47 82 3 3 14 22 25 43 11 20 23 37 27 37 5 0 8 8 8 18 0 10 9 28 20 40
11 12 20 28 20 37 0 8 6 15 13 15 12 0 17 6 52 75 11 22 33 59 48 82 15 24 27
47 27 52 0 5 6 16 13 23 18 19 71 107 124 207 25 47 59 105 74 128 16 23 29
46 29 52 0 6 5 11 10 11 6 0 10 9 10 20 0 11 4 20 9 20 5 0 13 10 17 22 6 20
48 84 139 213 48 68 85 137 85 160 0 8 5 15 10 15 6 0 10 9 10 20 0 11 9 39
19 62 30 66 46 180 46 328 0 113 -4 145 -22 195 -11 33 -30 89 -41 125 -11 36
-34 103 -51 149 -19 49 -34 113 -38 155 -6 72 12 216 27 216 4 0 13 12 19 28
13 28 56 82 67 82 10 0 73 74 80 94 7 21 10 24 50 70 20 22 31 27 52 22 97
-20 92 -20 92 8 0 36 -46 82 -100 100 l-45 15 66 1 c57 0 68 -3 89 -25 25 -27
60 -34 60 -12 0 27 -31 113 -48 133 -10 11 -36 34 -59 51 -68 49 -107 86 -120
114 -15 35 -87 92 -153 123 -47 22 -68 26 -150 25 -55 0 -130 -9 -179 -20z
m74 -128 c-6 -5 -21 -12 -35 -15 l-25 -7 25 15 c28 17 50 21 35 7z m138 2 c-7
-2 -19 -2 -25 0 -7 3 -2 5 12 5 14 0 19 -2 13 -5z m-38 -153 c-3 -5 -14 -10
-23 -10 -15 0 -15 2 -2 10 20 13 33 13 25 0z m-74 -57 c-8 -15 -10 -15 -11 -2
0 17 10 32 18 25 2 -3 -1 -13 -7 -23z m249 17 c0 -5 -2 -10 -4 -10 -3 0 -8 5
-11 10 -3 6 -1 10 4 10 6 0 11 -4 11 -10z m-246 -146 c9 -29 16 -61 16 -72 0
-11 6 -23 13 -25 7 -3 5 -6 -5 -6 -10 -1 -18 4 -18 9 0 6 -9 10 -19 10 -16 0
-20 9 -23 53 -1 28 -1 68 1 87 4 39 4 37 35 -56z m6 -439 c0 -47 37 -213 55
-245 34 -60 38 -70 33 -75 -11 -11 -38 8 -38 26 0 10 -10 25 -21 33 -15 10
-22 27 -24 58 -6 77 -30 226 -37 234 -16 15 -7 24 12 14 14 -8 20 -21 20 -45z
m-501 -1708 c14 -18 4 -27 -31 -27 -31 0 -34 4 -15 25 15 18 32 19 46 2z
m-152 -13 c-3 -3 -12 -4 -19 -1 -8 3 -5 6 6 6 11 1 17 -2 13 -5z m-622 -14
c-3 -5 -12 -10 -18 -10 -7 0 -6 4 3 10 19 12 23 12 15 0z m675 -40 c0 -5 -8
-10 -17 -10 -15 0 -16 2 -3 10 19 12 20 12 20 0z m90 -30 c-14 -11 -29 -20
-35 -20 -5 0 1 9 15 20 14 11 30 20 35 20 6 0 -1 -9 -15 -20z m-280 -4 c0 -2
-11 -11 -25 -20 -20 -13 -23 -13 -19 -2 3 8 13 17 22 19 10 3 18 5 20 6 1 0 2
-1 2 -3z m100 -35 c0 -13 -46 -41 -67 -41 -14 1 -12 6 12 25 30 25 55 32 55
16z m-1182 -52 c-20 -13 -28 -11 -22 5 3 8 12 12 21 9 12 -5 12 -7 1 -14z
m463 0 c-13 -11 -26 -17 -28 -15 -8 8 21 35 37 35 10 0 8 -6 -9 -20z m949 17
c0 -2 -7 -7 -16 -10 -8 -3 -12 -2 -9 4 6 10 25 14 25 6z m-1194 -21 c-20 -15
-36 -19 -36 -10 0 5 38 23 50 24 3 0 -4 -6 -14 -14z m710 -14 c-8 -13 -71 -41
-92 -41 -27 0 -4 19 42 35 46 17 57 18 50 6z m104 1 c0 -5 -19 -29 -41 -53
-28 -29 -37 -36 -29 -19 11 23 59 80 67 80 2 0 3 -4 3 -8z m250 -26 c0 -2 -8
-10 -17 -17 -16 -13 -17 -12 -4 4 13 16 21 21 21 13z m-190 -10 c0 -3 -4 -8
-10 -11 -5 -3 -10 -1 -10 4 0 6 5 11 10 11 6 0 10 -2 10 -4z m259 -17 c-22
-14 -33 -10 -19 6 7 8 17 12 22 9 6 -4 5 -10 -3 -15z m-542 5 c-3 -3 -12 -4
-19 -1 -8 3 -5 6 6 6 11 1 17 -2 13 -5z m-153 -19 c-10 -8 -23 -15 -28 -15 -6
0 -1 7 10 15 10 8 23 15 28 15 6 0 1 -7 -10 -15z m46 -50 c-7 -8 -17 -15 -23
-15 -6 0 -2 7 9 15 25 19 30 19 14 0z m565 5 c-3 -5 -12 -10 -18 -10 -7 0 -6
4 3 10 19 12 23 12 15 0z m-155 -31 c0 -5 -9 -9 -20 -9 -22 0 -27 16 -7 23 15
5 27 -1 27 -14z m113 14 c-7 -2 -21 -2 -30 0 -10 3 -4 5 12 5 17 0 24 -2 18
-5z m-778 -42 c-3 -6 -11 -11 -17 -11 -6 0 -6 6 2 15 14 17 26 13 15 -4z m289
-10 c4 -5 -8 -12 -26 -16 -18 -4 -42 -8 -53 -11 -11 -2 -2 5 20 16 46 22 52
23 59 11z m276 -21 c-25 -16 -88 -22 -107 -11 -15 10 -15 11 7 6 14 -3 39 -1
55 4 17 5 37 10 45 10 13 1 13 0 0 -9z m313 -17 c-7 -2 -19 -2 -25 0 -7 3 -2
5 12 5 14 0 19 -2 13 -5z m-660 -43 l42 -1 -55 -24 c-64 -28 -89 -30 -115 -11
-19 14 -19 15 8 27 15 7 27 16 27 20 0 5 12 4 26 -1 14 -6 44 -10 67 -10z
m267 -19 c9 -18 5 -21 -47 -31 -49 -11 -61 -10 -92 6 l-36 18 67 6 c38 4 71
10 75 13 11 12 22 8 33 -12z m320 9 c-8 -5 -28 -10 -45 -10 -23 0 -27 3 -15
10 8 5 29 10 45 10 23 0 27 -3 15 -10z m-202 -50 c3 -18 0 -21 -13 -16 -9 3
-21 6 -26 6 -5 0 -4 9 3 20 16 25 32 21 36 -10z m82 10 c0 -5 11 -12 25 -16
25 -6 35 -24 14 -24 -12 0 -79 39 -79 46 0 2 9 4 20 4 11 0 20 -4 20 -10z
m-640 -26 c0 -6 -59 -34 -72 -34 -7 0 -1 12 15 25 15 13 34 22 42 19 8 -4 15
-8 15 -10z m233 2 c3 -8 20 -17 38 -21 23 -5 28 -10 18 -16 -22 -13 -101 -10
-129 6 l-25 14 33 7 c18 4 35 11 38 15 8 13 21 11 27 -5z m-158 -36 c-22 -36
-185 -91 -185 -63 0 6 25 13 56 16 38 4 66 14 87 31 33 26 53 34 42 16z m390
0 c4 -6 -11 -10 -37 -10 -31 0 -39 3 -28 10 20 13 57 13 65 0z m-310 -64 l30
-13 -42 -21 c-43 -22 -98 -29 -107 -13 -6 9 61 60 79 60 6 0 24 -6 40 -13z
m-311 -11 c4 -11 -10 -22 -47 -40 l-52 -26 45 40 c25 22 46 41 46 41 1 0 4 -7
8 -15z m451 5 c3 -5 -1 -10 -10 -10 -9 0 -13 5 -10 10 3 6 8 10 10 10 2 0 7
-4 10 -10z m52 -16 c-3 -3 -12 -4 -19 -1 -8 3 -5 6 6 6 11 1 17 -2 13 -5z
m-105 -39 c2 -16 -83 -55 -117 -54 l-30 1 30 10 c17 6 46 21 65 34 36 23 51
26 52 9z m-22 -100 c-14 -8 -36 -14 -50 -14 -20 0 -16 3 15 14 53 17 65 17 35
0z m405 -5 c3 -5 1 -10 -4 -10 -6 0 -11 5 -11 10 0 6 2 10 4 10 3 0 8 -4 11
-10z m-1381 -153 c-5 -14 -74 -63 -74 -52 0 6 74 74 77 71 2 -2 1 -10 -3 -19z
m215 10 c-2 -1 -13 -9 -24 -17 -19 -14 -19 -14 -6 3 7 9 18 17 24 17 6 0 8 -1
6 -3z m-726 -59 c-11 -13 -37 -48 -57 -78 -50 -75 -90 -128 -84 -110 25 69 42
99 64 108 13 7 24 18 24 27 0 8 5 15 10 15 6 0 10 6 10 14 0 8 10 22 22 30 31
22 35 20 11 -6z m147 -8 c-14 -11 -31 -20 -39 -20 -18 0 -13 5 24 24 40 21 45
20 15 -4z m-356 -125 c-4 -8 -8 -15 -10 -15 -2 0 -4 7 -4 15 0 8 4 15 10 15 5
0 7 -7 4 -15z m867 -8 c-10 -9 -11 -8 -5 6 3 10 9 15 12 12 3 -3 0 -11 -7 -18z
m-651 -27 c-14 -11 -38 -24 -55 -30 -29 -9 -29 -9 -10 6 19 15 74 43 85 43 3
0 -6 -8 -20 -19z m-230 3 c0 -5 -5 -15 -10 -23 -8 -12 -10 -11 -10 8 0 12 5
22 10 22 6 0 10 -3 10 -7z m116 -194 c-21 -47 -24 -49 -19 -19 9 49 36 109 40
89 2 -9 -7 -40 -21 -70z m-316 41 c0 -6 -7 -13 -15 -16 -8 -4 -15 -10 -15 -15
0 -6 -10 -20 -22 -32 l-22 -22 16 25 c8 14 21 35 29 48 15 23 29 29 29 12z
m240 -127 c-11 -17 -11 -17 -6 0 3 10 6 24 7 30 0 9 2 9 5 0 3 -7 0 -20 -6
-30z"/>
</g>
</svg>
