<?xml version="1.0" standalone="no"?>
<!DOCTYPE svg PUBLIC "-//W3C//DTD SVG 20010904//EN"
 "http://www.w3.org/TR/2001/REC-SVG-20010904/DTD/svg10.dtd">
<svg version="1.0" xmlns="http://www.w3.org/2000/svg"
 width="715.000000pt" height="739.000000pt" viewBox="0 0 715.000000 739.000000"
 preserveAspectRatio="xMidYMid meet">
<metadata>
Created by potrace 1.13, written by Peter Selinger 2001-2015
</metadata>
<g transform="translate(0.000000,739.000000) scale(0.100000,-0.100000)"
fill="#000000" stroke="none">
<path d="M5836 4663 c-4 -4 -38 -10 -91 -16 -11 -1 -26 -8 -33 -14 -7 -7 -20
-13 -27 -13 -8 0 -26 -5 -42 -12 -15 -6 -34 -12 -42 -14 -23 -4 -81 -38 -81
-46 0 -5 -5 -8 -11 -8 -6 0 -29 -18 -51 -40 -23 -22 -45 -40 -50 -40 -4 0 -8
-5 -8 -10 0 -16 -62 -80 -71 -74 -5 3 -9 1 -9 -5 0 -11 -58 -67 -65 -63 -3 1
-14 -7 -25 -18 -11 -11 -27 -20 -35 -20 -8 0 -15 -5 -15 -11 0 -5 -4 -8 -8 -5
-5 3 -21 -1 -35 -9 -15 -8 -30 -14 -32 -15 -3 0 -7 -1 -10 -1 -3 -1 -9 -3 -15
-4 -5 -1 -11 -3 -12 -5 -2 -1 -31 -3 -66 -4 -49 -2 -69 2 -87 16 -13 10 -29
18 -35 18 -12 0 -71 30 -80 41 -3 4 -15 9 -27 13 -13 4 -23 12 -23 17 0 5 -8
9 -17 9 -9 0 -26 9 -37 19 -12 11 -34 23 -51 26 -16 3 -35 7 -42 9 -7 1 -16 5
-19 9 -4 4 -13 7 -20 7 -7 0 -35 13 -63 29 -27 16 -52 27 -55 24 -3 -4 -6 -1
-6 5 0 7 -3 11 -7 10 -5 -1 -39 13 -78 32 -38 18 -73 33 -77 32 -5 -1 -8 3 -8
10 0 6 -3 9 -6 5 -3 -3 -23 1 -44 8 -21 7 -41 11 -44 8 -3 -4 -6 -2 -6 3 0 5
-14 11 -31 12 -18 1 -37 6 -43 9 -6 4 -21 6 -33 4 -13 -1 -23 1 -23 6 0 5 -15
10 -32 12 -18 1 -46 4 -63 6 -115 15 -435 23 -435 11 0 -5 -6 -4 -12 1 -7 5
-22 8 -33 7 -35 -5 -59 -5 -107 -1 -27 2 -48 1 -48 -3 0 -3 -26 -7 -57 -8 -59
-1 -148 -9 -148 -12 0 -1 -16 -3 -35 -5 -55 -6 -60 -8 -60 -18 0 -5 -9 -7 -20
-4 -11 3 -23 1 -26 -4 -3 -5 -9 -7 -14 -4 -5 3 -21 0 -37 -7 -15 -6 -32 -12
-38 -13 -5 0 -19 -6 -30 -12 -11 -6 -22 -11 -25 -11 -18 1 -90 -27 -90 -34 0
-5 -5 -6 -10 -3 -6 4 -29 -3 -51 -14 -22 -12 -46 -21 -54 -21 -8 0 -15 -5 -15
-11 0 -5 -5 -7 -10 -4 -6 3 -16 3 -22 -2 -7 -4 -22 -9 -33 -10 -10 -2 -22 -8
-26 -14 -3 -6 -9 -10 -13 -10 -3 0 -11 -1 -18 -4 -19 -6 -132 -38 -143 -41 -5
-1 -23 -8 -40 -15 -16 -7 -33 -12 -37 -11 -5 1 -8 -3 -8 -8 0 -6 -9 -10 -19
-10 -11 0 -27 -7 -35 -16 -9 -8 -16 -13 -16 -10 0 8 -82 -36 -104 -56 -10 -9
-23 -15 -28 -12 -4 3 -8 0 -8 -6 0 -6 -4 -8 -10 -5 -5 3 -23 -8 -40 -25 -16
-16 -36 -30 -45 -30 -8 0 -15 -4 -15 -10 0 -5 -6 -10 -13 -10 -7 0 -20 -9 -30
-20 -9 -11 -23 -20 -30 -20 -7 0 -19 -9 -27 -20 -8 -11 -24 -20 -36 -20 -11 0
-42 -21 -69 -47 -27 -27 -52 -47 -57 -46 -4 2 -8 -2 -8 -8 0 -12 -40 -48 -53
-49 -5 0 -14 -6 -21 -12 -8 -7 -23 -20 -35 -28 -11 -8 -21 -18 -21 -22 0 -9
-37 -48 -45 -48 -3 0 -25 -19 -49 -42 -24 -24 -52 -49 -64 -57 -11 -8 -26 -25
-33 -38 -7 -12 -21 -23 -31 -23 -10 0 -18 -7 -18 -16 0 -8 -4 -13 -9 -10 -4 3
-16 -3 -26 -14 -10 -11 -24 -20 -30 -20 -7 0 -18 -7 -25 -15 -6 -8 -15 -14
-18 -13 -12 2 -66 -14 -110 -34 -24 -11 -53 -20 -63 -21 -10 -1 -19 -4 -19 -8
0 -6 -29 -17 -41 -15 -3 1 -13 -5 -22 -13 -10 -7 -17 -10 -17 -5 0 5 -4 5 -8
-1 -8 -12 -100 -47 -124 -48 -10 -1 -18 -5 -18 -9 0 -4 -9 -8 -20 -8 -11 0
-20 -5 -20 -11 0 -5 -4 -7 -10 -4 -5 3 -10 1 -10 -5 0 -6 -6 -10 -12 -9 -29 5
-111 -46 -108 -67 1 -4 -4 -10 -10 -14 -7 -4 -9 -16 -6 -26 11 -33 70 -93 94
-97 12 -2 28 -9 34 -15 7 -7 17 -12 23 -12 7 0 20 -9 29 -19 10 -11 26 -18 37
-16 10 2 19 0 19 -4 0 -4 17 -7 38 -7 39 2 74 -12 66 -26 -6 -9 21 -40 28 -33
2 2 17 -7 32 -20 16 -14 33 -25 37 -25 4 0 21 -12 38 -26 17 -14 31 -23 31
-19 0 4 6 3 12 -3 7 -6 40 -8 73 -6 84 6 85 6 85 16 0 4 9 8 20 8 11 0 20 4
20 8 0 4 8 8 18 9 9 1 31 7 47 14 17 7 34 11 39 10 4 -1 13 2 20 7 6 4 21 7
33 6 15 -1 23 4 23 14 0 12 3 12 15 2 9 -7 15 -8 15 -2 0 5 17 13 38 18 44 9
39 8 77 23 16 7 33 17 36 23 4 6 20 12 36 13 43 4 83 16 83 27 0 5 4 7 9 4 5
-4 20 -2 33 2 24 10 48 6 48 -8 0 -14 54 -70 67 -70 9 0 11 -9 7 -30 -4 -16
-2 -30 3 -30 5 0 7 -15 5 -34 -2 -18 1 -37 7 -40 15 -10 14 -46 -1 -46 -7 -1
-2 -7 12 -15 14 -8 19 -14 12 -15 -8 0 -10 -5 -6 -12 4 -7 8 -38 9 -69 0 -32
3 -61 7 -64 4 -4 4 -13 1 -21 -3 -8 0 -14 6 -14 15 0 14 -25 -3 -39 -17 -14
-10 -59 14 -86 17 -19 18 -31 8 -117 -1 -10 -5 -18 -9 -18 -5 0 -16 -23 -23
-50 -6 -26 -41 -90 -49 -90 -5 0 -7 -7 -3 -15 3 -8 1 -15 -4 -15 -5 0 -12 -10
-16 -22 -4 -13 -10 -25 -14 -28 -4 -3 -13 -18 -21 -35 -8 -16 -24 -34 -37 -40
-12 -5 -22 -14 -22 -20 0 -6 -21 -10 -52 -9 -29 2 -53 3 -53 4 0 1 -18 3 -40
5 -22 1 -42 4 -45 5 -3 1 -8 2 -12 1 -5 0 -8 4 -8 9 0 7 -18 8 -47 5 -27 -3
-56 -5 -65 -6 -10 0 -18 -7 -18 -15 0 -8 -5 -14 -11 -14 -6 0 -9 -7 -5 -15 3
-8 1 -15 -5 -15 -6 0 -9 -6 -6 -14 3 -8 1 -17 -6 -19 -9 -3 -8 -8 2 -20 13
-16 15 -15 32 4 11 12 19 18 19 14 0 -5 9 1 20 12 12 14 27 19 40 16 23 -6 23
-8 10 -32 -6 -12 -5 -24 5 -38 12 -17 24 -20 84 -18 39 1 71 -2 71 -7 0 -4 -4
-8 -9 -8 -6 0 -16 -12 -23 -27 l-13 -28 -109 0 -108 0 -37 -34 c-20 -19 -36
-38 -36 -43 0 -6 -8 -15 -18 -22 -9 -7 -17 -18 -17 -25 0 -6 -4 -11 -9 -11
-10 0 -51 -83 -51 -104 0 -31 31 -25 66 14 42 46 50 48 75 19 20 -23 49 -19
82 9 10 9 25 17 33 18 9 1 23 6 32 10 43 18 81 24 88 13 3 -6 16 -8 29 -5 25
6 92 -33 88 -52 -2 -7 1 -12 5 -12 10 0 52 -35 52 -43 0 -3 17 -23 38 -44 21
-21 39 -41 40 -45 8 -28 38 -88 44 -88 5 0 8 -6 8 -14 0 -8 9 -17 19 -21 12
-4 18 -12 14 -21 -3 -8 0 -21 7 -29 7 -8 9 -15 6 -15 -8 0 35 -82 48 -91 5 -4
21 -5 36 -3 22 4 29 0 35 -18 15 -48 15 -68 0 -104 -32 -78 37 -65 82 15 12
23 20 41 17 41 -3 0 -1 7 4 16 13 23 -4 103 -29 137 -11 15 -17 32 -14 37 3 5
-3 18 -15 30 -11 11 -20 25 -20 30 0 6 -5 10 -12 10 -6 0 -8 3 -5 6 4 4 -1 14
-11 23 -23 21 -45 61 -38 69 3 3 6 0 6 -6 0 -7 14 -21 32 -32 28 -17 34 -17
60 -4 25 13 28 13 28 -1 0 -8 4 -15 8 -15 5 0 7 -13 6 -30 -3 -43 16 -54 50
-27 31 25 42 77 23 112 -6 11 -10 23 -9 28 1 4 -3 7 -8 7 -6 0 -10 6 -10 13 0
11 -45 51 -59 52 -3 1 -22 11 -41 23 -19 12 -42 22 -51 22 -9 0 -19 3 -23 7
-3 4 -16 8 -28 10 -12 2 -32 12 -43 23 -12 11 -25 17 -28 13 -4 -3 -7 1 -7 10
0 10 -4 17 -10 17 -17 0 -33 44 -35 97 -1 29 2 53 6 53 5 0 6 7 3 15 -4 8 -1
15 5 15 6 0 8 7 5 15 -4 8 -2 21 4 28 5 6 16 31 23 55 6 23 16 42 21 42 4 0 7
3 6 8 0 4 6 24 15 44 10 21 17 42 17 48 0 5 5 10 11 10 5 0 8 4 5 9 -3 5 0 14
7 19 7 6 19 27 27 47 7 19 17 35 22 35 4 0 8 7 8 15 0 8 5 15 11 15 5 0 8 4 5
8 -3 5 4 19 15 30 10 12 18 23 17 24 -1 2 4 12 12 24 11 15 21 19 35 14 13 -5
24 -2 31 9 10 13 14 13 29 1 15 -12 19 -12 29 1 7 10 24 15 45 13 19 -1 45 2
58 7 24 9 53 -7 53 -29 0 -5 14 -15 30 -21 16 -6 44 -16 60 -22 17 -7 48 -25
70 -40 21 -16 51 -31 65 -33 15 -3 32 -10 39 -15 7 -6 15 -8 19 -5 9 9 77 -16
77 -28 0 -6 3 -9 6 -6 3 4 22 0 41 -8 35 -15 89 -19 128 -10 11 2 20 5 20 6 0
6 82 6 122 -1 39 -6 54 -3 80 12 20 13 34 16 38 9 3 -6 10 -8 15 -5 5 3 11 1
14 -3 6 -10 36 -9 54 2 6 4 12 5 12 2 0 -2 15 0 33 5 29 9 55 15 97 22 9 2 21
7 29 11 8 5 16 4 21 -4 6 -9 10 -8 19 6 6 11 11 16 11 12 0 -4 26 2 58 13 31
11 64 22 73 24 9 2 38 13 64 25 26 12 50 19 53 16 3 -3 14 1 24 11 11 10 18
12 18 4 0 -9 5 -9 23 1 12 7 28 11 35 10 6 -2 12 1 12 5 0 5 10 9 22 10 11 1
24 6 27 10 3 4 15 9 26 11 19 3 39 10 88 32 12 6 32 12 45 13 12 0 22 5 22 10
0 5 7 7 15 4 8 -4 17 -2 20 4 4 5 11 7 16 4 5 -4 9 -1 9 5 0 7 7 10 15 6 8 -3
15 -1 15 5 0 6 7 8 15 5 9 -3 18 0 21 7 2 7 13 13 23 14 11 1 41 11 67 23 26
13 55 24 64 25 8 2 15 4 15 5 0 2 22 7 50 13 8 2 20 8 26 14 6 6 18 9 25 6 8
-3 17 2 20 11 5 13 9 14 20 5 9 -7 14 -7 14 -1 0 5 10 13 23 17 12 4 24 8 27
9 3 1 29 8 58 15 28 7 52 16 52 20 0 3 12 7 28 8 25 1 64 9 70 13 1 2 7 4 12
5 6 1 11 3 13 5 1 1 15 4 32 6 16 3 32 10 36 16 3 5 9 9 13 9 17 -3 25 1 45
18 13 11 29 17 37 14 8 -3 14 0 14 6 0 8 68 50 90 55 6 1 65 54 110 99 21 20
43 37 49 37 6 0 11 4 11 8 0 5 20 30 45 58 24 27 51 63 60 81 9 18 20 35 25
38 6 4 8 11 5 16 -4 5 -1 9 5 9 7 0 10 7 6 15 -3 8 -1 15 4 15 5 0 7 7 4 15
-4 8 -1 15 6 15 6 0 9 4 6 9 -3 5 1 14 9 21 8 7 15 19 15 27 0 8 7 29 15 46
21 46 57 142 54 142 -2 0 11 29 28 65 30 61 91 135 156 188 27 22 53 32 85 34
6 1 12 5 12 9 0 4 8 8 18 7 60 0 164 12 184 23 24 14 33 16 85 23 31 5 73 -19
73 -41 0 -6 9 -18 20 -28 26 -23 40 -11 50 42 4 28 1 48 -13 76 -10 20 -23 37
-28 37 -5 0 -9 5 -9 11 0 12 43 -17 81 -55 18 -18 25 -33 22 -49 -6 -32 23
-62 41 -44 8 6 11 18 9 24 -3 7 -1 13 5 13 22 0 37 115 21 157 -17 46 -29 151
-20 175 9 23 0 103 -16 138 -3 8 -7 17 -8 20 -21 61 -32 81 -73 133 -48 60
-214 172 -186 125 5 -8 0 -7 -10 2 -26 21 -101 41 -171 45 -33 2 -60 5 -60 5
0 4 -46 6 -49 3z m263 -199 c11 -11 -7 -10 -34 3 l-30 14 30 -6 c16 -4 32 -9
34 -11z m105 -90 c5 -14 4 -15 -9 -4 -17 14 -19 20 -6 20 5 0 12 -7 15 -16z
m-194 -78 c0 -3 -4 -8 -10 -11 -5 -3 -10 -1 -10 4 0 6 5 11 10 11 6 0 10 -2
10 -4z m64 -17 c-6 -11 -24 -2 -24 11 0 5 7 7 15 4 8 -4 12 -10 9 -15z m-144
-28 c0 -11 -7 -27 -16 -35 -8 -9 -12 -16 -8 -16 3 0 1 -6 -5 -13 -6 -8 -8 -17
-4 -20 3 -4 1 -7 -5 -7 -6 0 -9 -7 -6 -15 4 -8 1 -15 -5 -15 -6 0 -11 -7 -11
-15 0 -8 -6 -15 -12 -15 -9 0 -8 -4 2 -11 13 -9 13 -10 0 -6 -8 2 -14 11 -12
21 2 9 -2 16 -8 16 -18 0 -11 35 10 50 11 8 20 20 20 27 0 7 5 13 11 13 5 0 7
6 3 13 -4 6 -4 9 1 5 9 -8 35 15 35 31 0 6 2 11 5 11 3 0 5 -9 5 -19z m255
-110 c3 -5 2 -12 -3 -15 -5 -3 -9 1 -9 9 0 17 3 19 12 6z m-561 -300 c-13 -14
-27 -35 -30 -46 -4 -10 -13 -25 -20 -33 -8 -7 -14 -20 -14 -28 0 -8 -5 -14
-11 -14 -5 0 -7 -5 -3 -11 3 -6 2 -14 -3 -18 -18 -12 -43 -79 -39 -108 1 -16
-3 -34 -11 -41 -12 -12 -17 -8 -14 11 0 4 -4 7 -10 7 -8 0 -8 5 1 15 7 9 10
27 7 45 -4 16 -2 32 3 35 6 4 8 10 5 15 -3 4 3 10 13 12 11 3 23 22 30 47 7
22 17 41 23 41 5 0 15 14 20 30 6 17 15 30 20 30 5 0 9 5 9 11 0 6 7 17 15 25
8 8 12 22 9 32 -3 9 1 6 9 -7 13 -22 13 -27 -9 -50z m-2647 -228 c-4 -3 -1
-13 6 -22 10 -14 10 -14 -4 -4 -9 7 -18 10 -21 7 -3 -3 -9 0 -14 7 -4 7 -3 10
4 5 6 -3 13 -2 17 4 3 5 9 10 12 10 4 0 3 -3 0 -7z m-1657 -117 c0 -8 -8 -13
-17 -11 -10 1 -22 0 -28 -4 -17 -10 -35 -10 -35 1 0 6 7 8 15 4 8 -3 15 -1 15
5 0 6 7 9 15 6 8 -4 17 -2 20 3 9 14 15 12 15 -4z m290 4 c0 -5 -8 -10 -17
-10 -15 0 -16 2 -3 10 19 12 20 12 20 0z m-36 -19 c3 -5 -3 -11 -13 -14 -14
-3 -18 -1 -14 9 6 16 19 18 27 5z m281 -19 c-11 -2 -47 -12 -80 -22 -33 -11
-78 -22 -99 -25 -22 -2 -43 -10 -48 -17 -5 -9 -8 -9 -8 -2 0 14 75 55 84 47 3
-4 6 -1 6 6 0 7 5 9 13 4 18 -12 28 -11 72 7 22 9 49 14 60 11 20 -5 20 -5 0
-9z m1274 -6 c10 -12 8 -13 -8 -9 -12 3 -18 9 -15 14 7 12 10 11 23 -5z
m-1158 -93 c6 -6 -1 -8 -21 -5 -17 2 -32 8 -35 12 -7 11 44 5 56 -7z m-208
-32 c7 -7 -1 -8 -29 -4 -51 7 -67 23 -19 18 20 -2 42 -8 48 -14z m1774 3 c-3
-3 -12 -4 -19 -1 -8 3 -5 6 6 6 11 1 17 -2 13 -5z m-1937 -39 c0 -8 -11 -17
-25 -21 -14 -3 -25 -10 -25 -15 0 -5 -6 -9 -14 -9 -8 0 -17 -6 -19 -12 -3 -7
-6 -8 -6 -3 -1 19 47 60 87 74 1 1 2 -6 2 -14z m1746 4 c3 -5 -8 -8 -25 -7
-17 1 -31 5 -31 9 0 10 50 8 56 -2z m-1905 -52 c-10 -9 -11 -8 -5 6 3 10 9 15
12 12 3 -3 0 -11 -7 -18z m849 -68 c0 -11 -44 -19 -68 -12 -36 9 -25 18 23 18
25 0 45 -3 45 -6z m915 -9 c-3 -5 -16 -10 -28 -9 -20 1 -20 2 3 9 14 4 26 8
28 9 2 1 0 -3 -3 -9z m230 -68 c-3 -3 -11 0 -18 7 -9 10 -8 11 6 5 10 -3 15
-9 12 -12z m-507 -85 c-6 -12 -14 -15 -21 -10 -7 5 -25 10 -42 12 -55 5 -45
17 14 16 54 0 58 -2 49 -18z m189 -2 c14 -15 13 -16 -13 -11 -16 2 -30 5 -31
6 -2 2 -8 3 -15 4 -6 0 -13 6 -15 12 -6 17 55 7 74 -11z m428 15 c3 -5 1 -10
-4 -10 -6 0 -11 5 -11 10 0 6 2 10 4 10 3 0 8 -4 11 -10z m-307 -13 c6 3 12
-1 12 -7 0 -7 19 -30 41 -51 l41 -39 -41 15 c-22 8 -41 12 -41 9 0 -2 -13 2
-29 10 -16 9 -33 29 -39 45 -10 28 -10 29 16 22 15 -5 33 -6 40 -4z m417 -21
c20 -11 22 -15 10 -19 -8 -4 -15 -2 -15 4 0 6 -4 7 -10 4 -10 -6 -65 19 -74
34 -7 12 52 -4 89 -23z m-597 -44 c13 -7 27 -10 32 -7 5 3 11 1 15 -5 9 -15
-23 -12 -63 7 -47 21 -73 43 -66 55 4 5 18 -1 33 -14 14 -13 36 -29 49 -36z
m322 38 c3 -1 8 -2 12 -2 3 1 9 -5 11 -13 8 -20 -30 -15 -49 6 -14 16 -14 17
3 14 10 -2 20 -4 23 -5z m454 -18 c3 -5 -1 -9 -9 -9 -8 0 -15 4 -15 9 0 4 4 8
9 8 6 0 12 -4 15 -8z m181 -22 c3 -5 1 -10 -4 -10 -6 0 -11 5 -11 10 0 6 2 10
4 10 3 0 8 -4 11 -10z m-866 -21 c-7 -4 -17 -5 -22 -2 -5 3 -3 9 4 14 7 4 17
5 22 2 5 -3 3 -9 -4 -14z m601 -18 c0 -5 -13 -8 -30 -6 -16 2 -30 -1 -30 -6 0
-6 -4 -7 -10 -4 -22 13 -8 25 30 25 22 0 40 -4 40 -9z m-90 -11 c0 -5 -5 -10
-11 -10 -5 0 -7 5 -4 10 3 6 8 10 11 10 2 0 4 -4 4 -10z m-401 -18 c7 -7 20
-11 28 -7 12 4 14 -1 11 -19 -3 -16 0 -27 9 -30 8 -3 12 -10 9 -15 -4 -5 0
-12 6 -14 8 -3 6 -6 -4 -6 -22 -1 -98 71 -98 93 0 18 18 17 39 -2z m645 1 c3
-7 2 -15 -3 -17 -12 -8 -64 9 -68 21 -5 15 66 11 71 -4z m-746 -31 c33 -42 34
-52 7 -50 -14 1 -25 5 -25 8 0 3 -9 6 -20 7 -24 2 -69 34 -70 49 0 19 93 6
108 -14z m866 16 c-3 -4 -9 -8 -15 -8 -5 0 -9 4 -9 8 0 5 7 9 15 9 8 0 12 -4
9 -9z m116 -14 l0 -25 -30 18 c-16 9 -30 21 -30 25 0 4 14 8 30 8 26 0 30 -4
30 -26z m-735 -19 c22 -19 46 -35 53 -36 6 -1 17 -2 24 -3 14 -1 20 -36 7 -36
-6 0 -7 -6 -3 -12 5 -9 2 -9 -9 1 -9 7 -17 11 -17 8 0 -17 -77 49 -92 79 -21
43 -13 43 37 -1z m365 21 c0 -3 -4 -8 -10 -11 -5 -3 -10 -1 -10 4 0 6 5 11 10
11 6 0 10 -2 10 -4z m-210 -51 c17 -9 30 -21 29 -28 0 -9 -2 -9 -6 1 -2 6 -11
12 -18 12 -16 0 -55 39 -55 54 0 6 5 3 11 -7 5 -9 23 -24 39 -32z m536 -17 c3
-5 -9 -6 -27 -3 -44 8 -49 14 -10 13 18 -1 34 -5 37 -10z m-481 -8 c3 -5 1
-10 -4 -10 -6 0 -11 5 -11 10 0 6 2 10 4 10 3 0 8 -4 11 -10z m-510 -20 c6 -3
21 -7 35 -9 14 -1 34 -3 44 -4 11 -1 21 -8 24 -14 10 -31 -109 -3 -138 32 -11
13 -10 15 6 9 10 -4 24 -10 29 -14z m615 5 c0 -8 -4 -15 -9 -15 -5 0 -14 7
-21 15 -10 13 -9 15 9 15 12 0 21 -6 21 -15z m-440 -31 c0 -8 -5 -12 -10 -9
-6 4 -8 11 -5 16 9 14 15 11 15 -7z m144 -20 c9 -4 21 -15 27 -26 10 -18 9
-19 -13 -7 -47 25 -57 50 -14 33z m386 -9 c7 -8 9 -15 6 -15 -4 0 -14 7 -22
15 -9 8 -11 15 -6 15 5 0 15 -7 22 -15z m-505 -5 c3 -5 1 -10 -4 -10 -6 0 -11
5 -11 10 0 6 2 10 4 10 3 0 8 -4 11 -10z m755 0 c0 -5 -2 -10 -4 -10 -3 0 -8
5 -11 10 -3 6 -1 10 4 10 6 0 11 -4 11 -10z m-921 -36 c3 -2 -7 -3 -20 -2 -14
1 -33 10 -44 20 -19 18 -18 18 20 2 22 -9 42 -18 44 -20z m431 12 c0 -14 -20
-36 -33 -36 -4 0 -6 4 -2 9 3 5 1 12 -5 16 -15 9 -5 20 19 22 12 1 21 -4 21
-11z m300 8 c0 -8 -19 -13 -24 -6 -3 5 1 9 9 9 8 0 15 -2 15 -3z m100 -9 c0
-9 -6 -12 -15 -9 -8 4 -12 10 -9 15 8 14 24 10 24 -6z m-344 -60 c-2 -7 2 -23
11 -34 8 -12 12 -25 8 -29 -8 -9 -36 28 -30 39 3 4 1 10 -5 14 -17 10 -12 35
6 28 8 -3 13 -11 10 -18z m118 -36 c11 -11 13 -17 5 -15 -27 6 -48 18 -53 31
-6 18 21 8 48 -16z m91 -10 c11 -16 1 -19 -13 -3 -7 8 -8 14 -3 14 5 0 13 -5
16 -11z m-405 -169 c0 -5 -5 -10 -11 -10 -5 0 -7 5 -4 10 3 6 8 10 11 10 2 0
4 -4 4 -10z"/>
</g>
</svg>
