<?xml version="1.0" standalone="no"?>
<!DOCTYPE svg PUBLIC "-//W3C//DTD SVG 20010904//EN"
 "http://www.w3.org/TR/2001/REC-SVG-20010904/DTD/svg10.dtd">
<svg version="1.0" xmlns="http://www.w3.org/2000/svg"
 width="357.000000pt" height="439.000000pt" viewBox="0 0 357.000000 439.000000"
 preserveAspectRatio="xMidYMid meet">
<metadata>
Created by potrace 1.13, written by Peter Selinger 2001-2015
</metadata>
<g transform="translate(0.000000,439.000000) scale(0.100000,-0.100000)"
fill="#000000" stroke="none">
<path d="M2645 4378 c-137 -6 -202 -13 -206 -21 -4 -7 -57 -81 -119 -166 -90
-124 -132 -196 -220 -371 l-108 -217 -217 -662 -216 -662 -42 -38 c-577 -525
-1183 -1085 -1328 -1228 l-186 -184 36 -176 c27 -127 41 -177 52 -178 7 -1 79
-8 159 -15 211 -19 194 -3 149 -145 -51 -160 -54 -175 -36 -175 8 0 95 -31
193 -69 l179 -68 175 119 176 119 105 192 c94 172 137 269 399 917 l294 726
574 474 c316 261 637 521 714 579 135 101 145 111 268 269 l128 164 -70 212
c-39 116 -76 216 -82 222 -6 6 -90 19 -186 29 -96 9 -176 17 -176 18 -1 1 -30
70 -64 152 -77 185 -83 195 -118 193 -15 0 -117 -5 -227 -10z"/>
</g>
</svg>
