<?xml version="1.0" standalone="no"?>
<!DOCTYPE svg PUBLIC "-//W3C//DTD SVG 20010904//EN"
 "http://www.w3.org/TR/2001/REC-SVG-20010904/DTD/svg10.dtd">
<svg version="1.0" xmlns="http://www.w3.org/2000/svg"
 width="357.000000pt" height="439.000000pt" viewBox="0 0 357.000000 439.000000"
 preserveAspectRatio="xMidYMid meet">
<metadata>
Created by potrace 1.13, written by Peter Selinger 2001-2015
</metadata>
<g transform="translate(0.000000,439.000000) scale(0.100000,-0.100000)"
fill="#000000" stroke="none">
<path d="M2645 4378 c-109 -5 -200 -10 -200 -11 -1 -1 -54 -76 -119 -166
l-118 -164 91 -229 91 -228 -855 -1338 -856 -1338 -200 101 -200 101 -138
-139 -138 -140 37 -175 c26 -126 40 -176 51 -177 7 -1 79 -8 159 -15 211 -19
194 -3 149 -145 -51 -160 -54 -175 -36 -175 8 0 95 -31 193 -69 l179 -68 178
120 c98 67 176 126 174 132 -2 5 -28 116 -56 246 l-52 236 891 1319 891 1319
157 53 c134 45 190 58 382 88 124 19 235 37 247 39 21 5 20 10 -49 217 -39
117 -76 218 -82 224 -6 6 -89 19 -185 28 -96 9 -176 17 -177 19 -1 1 -30 70
-64 152 -77 185 -83 195 -118 193 -15 0 -117 -5 -227 -10z"/>
</g>
</svg>
