<?xml version="1.0" standalone="no"?>
<!DOCTYPE svg PUBLIC "-//W3C//DTD SVG 20010904//EN"
 "http://www.w3.org/TR/2001/REC-SVG-20010904/DTD/svg10.dtd">
<svg version="1.0" xmlns="http://www.w3.org/2000/svg"
 width="357.000000pt" height="313.000000pt" viewBox="0 0 357.000000 313.000000"
 preserveAspectRatio="xMidYMid meet">
<metadata>
Created by potrace 1.13, written by Peter Selinger 2001-2015
</metadata>
<g transform="translate(0.000000,313.000000) scale(0.100000,-0.100000)"
fill="#000000" stroke="none">
<path d="M2633 3120 l-183 -5 -124 -124 c-98 -97 -122 -127 -112 -135 8 -6 50
-77 95 -158 l82 -148 -179 -197 c-98 -109 -476 -531 -841 -938 -365 -407 -669
-746 -676 -753 -10 -11 -47 -1 -214 58 l-201 71 -122 -87 c-171 -122 -159
-108 -143 -157 8 -23 25 -80 39 -127 25 -84 25 -85 58 -85 112 0 318 -19 318
-29 0 -6 -18 -53 -41 -104 -22 -52 -39 -95 -37 -96 6 -4 371 -99 382 -99 13 0
300 136 332 158 l22 14 -54 172 c-45 142 -52 174 -42 187 46 56 1762 1858
1772 1860 7 2 132 -20 276 -47 253 -49 264 -50 284 -33 11 9 69 62 129 116 90
83 107 104 103 122 -3 12 -36 85 -74 161 l-67 138 -150 12 c-82 6 -164 12
-180 12 -28 1 -36 10 -100 119 -38 64 -73 120 -79 124 -6 4 -29 7 -51 6 -22
-1 -122 -5 -222 -8z"/>
</g>
</svg>
