<?xml version="1.0" standalone="no"?>
<!DOCTYPE svg PUBLIC "-//W3C//DTD SVG 20010904//EN"
 "http://www.w3.org/TR/2001/REC-SVG-20010904/DTD/svg10.dtd">
<svg version="1.0" xmlns="http://www.w3.org/2000/svg"
 width="357.000000pt" height="439.000000pt" viewBox="0 0 357.000000 439.000000"
 preserveAspectRatio="xMidYMid meet">
<metadata>
Created by potrace 1.13, written by Peter Selinger 2001-2015
</metadata>
<g transform="translate(0.000000,439.000000) scale(0.100000,-0.100000)"
fill="#000000" stroke="none">
<path d="M2645 4378 c-110 -5 -201 -12 -203 -16 -1 -4 -112 -166 -247 -359
-135 -194 -245 -354 -245 -355 0 -2 10 -4 23 -4 12 -1 110 -16 219 -34 l196
-33 -16 -26 c-10 -15 -394 -616 -855 -1337 l-838 -1310 -200 101 -200 101
-138 -139 -138 -140 37 -175 c26 -126 40 -176 51 -177 7 -1 79 -8 159 -15 211
-19 194 -3 149 -145 -51 -160 -54 -175 -36 -175 8 0 95 -31 193 -69 l179 -68
178 120 c98 67 176 126 174 132 -2 5 -28 116 -56 246 l-52 236 881 1304 c485
717 887 1309 893 1316 9 9 49 -43 174 -223 l161 -235 240 332 240 332 -70 211
c-39 116 -76 216 -82 222 -6 6 -90 19 -186 29 -96 9 -176 17 -176 18 -1 1 -30
70 -64 152 -77 185 -83 195 -118 193 -15 0 -117 -5 -227 -10z"/>
</g>
</svg>
