<?xml version="1.0" standalone="no"?>
<!DOCTYPE svg PUBLIC "-//W3C//DTD SVG 20010904//EN"
 "http://www.w3.org/TR/2001/REC-SVG-20010904/DTD/svg10.dtd">
<svg version="1.0" xmlns="http://www.w3.org/2000/svg"
 width="352.000000pt" height="288.000000pt" viewBox="0 0 352.000000 288.000000"
 preserveAspectRatio="xMidYMid meet">
<metadata>
Created by potrace 1.13, written by Peter Selinger 2001-2015
</metadata>
<g transform="translate(0.000000,288.000000) scale(0.100000,-0.100000)"
fill="#000000" stroke="none">
<path d="M1372 2218 c-8 -8 -12 -47 -12 -107 0 -87 -4 -107 -44 -221 -24 -69
-53 -150 -65 -180 -12 -30 -21 -63 -21 -73 0 -11 -15 -69 -34 -131 -56 -181
-76 -314 -76 -512 0 -195 1 -197 72 -209 24 -4 66 -16 93 -26 64 -24 177 -26
199 -3 10 9 16 33 16 57 0 23 9 88 20 145 11 56 25 180 31 275 12 188 5 267
-34 412 -19 71 -21 108 -22 320 0 132 -4 246 -8 253 -10 16 -99 16 -115 0z"/>
</g>
</svg>
