<?xml version="1.0" standalone="no"?>
<!DOCTYPE svg PUBLIC "-//W3C//DTD SVG 20010904//EN"
 "http://www.w3.org/TR/2001/REC-SVG-20010904/DTD/svg10.dtd">
<svg version="1.0" xmlns="http://www.w3.org/2000/svg"
 width="352.000000pt" height="288.000000pt" viewBox="0 0 352.000000 288.000000"
 preserveAspectRatio="xMidYMid meet">
<metadata>
Created by potrace 1.13, written by Peter Selinger 2001-2015
</metadata>
<g transform="translate(0.000000,288.000000) scale(0.100000,-0.100000)"
fill="#000000" stroke="none">
<path d="M1357 2206 c-8 -8 -17 -43 -21 -78 -4 -35 -14 -94 -22 -131 -8 -38
-14 -90 -14 -117 0 -58 -25 -127 -79 -216 -41 -68 -51 -108 -77 -309 -8 -60
-18 -132 -24 -160 -14 -79 -13 -391 3 -402 37 -28 297 -63 321 -43 14 11 21
43 50 250 27 184 36 296 36 438 0 136 -1 141 -32 208 l-32 69 -4 240 c-2 144
-8 245 -14 253 -14 17 -73 15 -91 -2z"/>
</g>
</svg>
