<?xml version="1.0" standalone="no"?>
<!DOCTYPE svg PUBLIC "-//W3C//DTD SVG 20010904//EN"
 "http://www.w3.org/TR/2001/REC-SVG-20010904/DTD/svg10.dtd">
<svg version="1.0" xmlns="http://www.w3.org/2000/svg"
 width="352.000000pt" height="288.000000pt" viewBox="0 0 352.000000 288.000000"
 preserveAspectRatio="xMidYMid meet">
<metadata>
Created by potrace 1.13, written by Peter Selinger 2001-2015
</metadata>
<g transform="translate(0.000000,288.000000) scale(0.100000,-0.100000)"
fill="#000000" stroke="none">
<path d="M1402 2228 c-7 -7 -12 -44 -12 -94 0 -46 -7 -113 -16 -151 -18 -78
-62 -213 -75 -229 -14 -18 -47 -118 -84 -254 -18 -69 -40 -145 -49 -170 -13
-40 -36 -306 -40 -475 -1 -55 1 -61 25 -72 14 -7 74 -19 135 -28 60 -8 123
-18 140 -21 46 -9 64 15 64 84 0 31 6 86 14 122 8 36 20 90 27 120 14 62 15
207 4 595 -7 259 -6 273 14 332 21 63 29 185 13 210 -21 34 -135 56 -160 31z"/>
</g>
</svg>
