<?xml version="1.0" standalone="no"?>
<!DOCTYPE svg PUBLIC "-//W3C//DTD SVG 20010904//EN"
 "http://www.w3.org/TR/2001/REC-SVG-20010904/DTD/svg10.dtd">
<svg version="1.0" xmlns="http://www.w3.org/2000/svg"
 width="352.000000pt" height="288.000000pt" viewBox="0 0 352.000000 288.000000"
 preserveAspectRatio="xMidYMid meet">
<metadata>
Created by potrace 1.13, written by Peter Selinger 2001-2015
</metadata>
<g transform="translate(0.000000,288.000000) scale(0.100000,-0.100000)"
fill="#000000" stroke="none">
<path d="M1280 1063 c-14 -2 -72 -11 -130 -20 -58 -8 -111 -20 -117 -26 -9 -6
-13 -44 -13 -123 0 -75 -4 -114 -11 -114 -6 0 -50 -37 -99 -82 -49 -46 -100
-92 -115 -103 -27 -21 -27 -21 -26 -145 1 -83 6 -129 14 -136 9 -9 34 -8 97 2
47 7 118 13 157 13 l73 1 66 -65 c58 -55 80 -69 163 -101 l96 -37 147 17 c82
9 202 28 267 41 169 35 360 36 429 1 26 -13 70 -31 99 -40 31 -10 79 -40 119
-72 48 -39 74 -54 88 -51 12 3 46 12 76 21 30 8 67 17 82 20 l26 6 -5 134 -6
134 122 125 122 126 -16 38 c-17 39 -43 122 -65 205 -7 26 -18 49 -24 51 -16
6 -225 -19 -275 -33 -80 -22 -102 -15 -210 65 -55 41 -112 80 -127 85 -55 21
-560 -62 -643 -105 -17 -8 -37 -15 -46 -15 -33 0 -93 41 -165 114 -76 78 -81
80 -150 69z"/>
</g>
</svg>
