<?xml version="1.0" standalone="no"?>
<!DOCTYPE svg PUBLIC "-//W3C//DTD SVG 20010904//EN"
 "http://www.w3.org/TR/2001/REC-SVG-20010904/DTD/svg10.dtd">
<svg version="1.0" xmlns="http://www.w3.org/2000/svg"
 width="352.000000pt" height="288.000000pt" viewBox="0 0 352.000000 288.000000"
 preserveAspectRatio="xMidYMid meet">
<metadata>
Created by potrace 1.13, written by Peter Selinger 2001-2015
</metadata>
<g transform="translate(0.000000,288.000000) scale(0.100000,-0.100000)"
fill="#000000" stroke="none">
<path d="M1121 1069 c-30 -5 -66 -15 -80 -22 -26 -12 -26 -13 -29 -139 l-3
-127 -32 -22 c-18 -13 -55 -44 -83 -69 -27 -26 -60 -51 -72 -54 -12 -4 -22
-11 -22 -16 0 -4 -16 -18 -36 -29 -32 -19 -35 -25 -30 -49 4 -15 13 -54 20
-87 25 -117 35 -127 102 -99 24 11 78 19 143 22 l104 5 75 -39 c41 -22 108
-67 149 -102 l73 -63 238 11 c139 6 258 16 287 25 84 23 237 45 316 45 122 0
231 -53 331 -159 38 -40 75 -71 86 -71 10 0 45 9 78 21 32 11 71 23 86 26 53
10 53 19 -20 197 l-16 39 104 99 c58 54 117 105 132 113 42 23 50 46 37 107
-10 54 -45 171 -59 198 -6 12 -46 16 -236 20 -254 6 -239 2 -366 87 l-66 44
-179 -11 c-104 -6 -199 -17 -228 -26 -27 -9 -104 -20 -170 -25 -66 -5 -143
-12 -171 -15 -55 -6 -46 -10 -179 75 -22 14 -59 42 -82 63 -38 34 -48 38 -95
37 -29 -1 -77 -5 -107 -10z"/>
</g>
</svg>
