<?xml version="1.0" standalone="no"?>
<!DOCTYPE svg PUBLIC "-//W3C//DTD SVG 20010904//EN"
 "http://www.w3.org/TR/2001/REC-SVG-20010904/DTD/svg10.dtd">
<svg version="1.0" xmlns="http://www.w3.org/2000/svg"
 width="352.000000pt" height="288.000000pt" viewBox="0 0 352.000000 288.000000"
 preserveAspectRatio="xMidYMid meet">
<metadata>
Created by potrace 1.13, written by Peter Selinger 2001-2015
</metadata>
<g transform="translate(0.000000,288.000000) scale(0.100000,-0.100000)"
fill="#000000" stroke="none">
<path d="M1234 2315 c-4 -8 -1 -21 5 -29 6 -8 22 -41 35 -74 l24 -60 -26 -24
c-15 -12 -39 -33 -55 -44 -15 -12 -59 -51 -97 -88 -38 -36 -74 -66 -80 -66
-21 0 -8 -33 39 -103 75 -111 74 -110 162 -93 41 8 110 20 154 26 l80 13 85
-40 c198 -93 206 -96 263 -83 29 6 75 18 102 25 28 8 108 21 179 30 70 8 136
20 146 25 10 5 49 12 87 16 61 5 73 3 113 -20 25 -13 95 -50 155 -82 l110 -56
105 7 c58 4 111 12 119 18 16 13 9 76 -16 152 l-16 49 41 36 c45 39 128 143
137 171 7 21 -30 137 -51 158 -11 12 -24 11 -92 -7 -44 -12 -90 -22 -104 -22
-14 0 -47 -11 -74 -25 -27 -14 -52 -25 -56 -25 -4 0 -40 29 -80 66 -40 36 -95
77 -122 91 -49 25 -51 25 -235 20 -201 -5 -335 -26 -465 -72 -38 -14 -80 -25
-93 -25 -13 0 -46 17 -73 38 -27 20 -76 54 -109 75 l-59 37 -116 0 c-95 0
-118 -3 -122 -15z"/>
</g>
</svg>
