<?xml version="1.0" standalone="no"?>
<!DOCTYPE svg PUBLIC "-//W3C//DTD SVG 20010904//EN"
 "http://www.w3.org/TR/2001/REC-SVG-20010904/DTD/svg10.dtd">
<svg version="1.0" xmlns="http://www.w3.org/2000/svg"
 width="352.000000pt" height="288.000000pt" viewBox="0 0 352.000000 288.000000"
 preserveAspectRatio="xMidYMid meet">
<metadata>
Created by potrace 1.13, written by Peter Selinger 2001-2015
</metadata>
<g transform="translate(0.000000,288.000000) scale(0.100000,-0.100000)"
fill="#000000" stroke="none">
<path d="M1053 1081 c-100 -35 -113 -59 -113 -219 l0 -120 -42 -38 c-22 -22
-70 -66 -105 -100 l-63 -61 0 -126 c0 -115 2 -129 21 -148 18 -18 29 -20 72
-15 29 3 110 9 181 12 156 8 222 -4 265 -47 49 -48 122 -101 155 -110 77 -22
352 -2 437 31 63 25 226 50 330 50 89 0 145 -21 255 -94 37 -25 75 -46 84 -46
9 0 25 -9 36 -21 16 -18 27 -20 94 -16 64 3 158 28 220 57 24 11 24 57 1 86
-18 23 -21 41 -21 126 0 108 -2 105 80 167 18 13 52 51 76 85 43 59 44 61 44
140 0 71 -3 85 -27 120 -16 23 -32 44 -36 47 -4 3 -89 9 -187 12 -145 6 -189
11 -230 27 -28 11 -58 20 -67 20 -9 0 -41 17 -71 38 l-55 37 -162 -1 -162 -2
-91 -37 c-92 -37 -93 -37 -210 -33 -128 5 -148 12 -370 121 -141 70 -251 89
-339 58z"/>
</g>
</svg>
