<?xml version="1.0" standalone="no"?>
<!DOCTYPE svg PUBLIC "-//W3C//DTD SVG 20010904//EN"
 "http://www.w3.org/TR/2001/REC-SVG-20010904/DTD/svg10.dtd">
<svg version="1.0" xmlns="http://www.w3.org/2000/svg"
 width="352.000000pt" height="288.000000pt" viewBox="0 0 352.000000 288.000000"
 preserveAspectRatio="xMidYMid meet">
<metadata>
Created by potrace 1.13, written by Peter Selinger 2001-2015
</metadata>
<g transform="translate(0.000000,288.000000) scale(0.100000,-0.100000)"
fill="#000000" stroke="none">
<path d="M1400 2353 c-30 -1 -81 -8 -112 -14 l-56 -11 5 -37 c3 -20 12 -48 19
-63 16 -31 18 -82 4 -107 -5 -10 -46 -46 -92 -80 -110 -81 -110 -81 -105 -95
3 -7 8 -43 12 -79 4 -37 12 -70 18 -74 6 -3 89 -5 186 -4 202 2 229 -5 352
-84 37 -25 79 -49 92 -54 14 -6 98 -6 203 -1 142 7 190 13 234 29 61 23 151
27 215 10 22 -6 61 -28 87 -50 25 -21 59 -44 75 -51 37 -15 274 -13 373 5 l75
13 3 132 3 132 74 73 c41 40 75 80 75 89 0 30 -44 124 -73 154 l-29 32 -202 3
c-182 4 -205 6 -230 24 -71 50 -82 55 -131 55 -28 0 -81 -12 -120 -26 -38 -14
-90 -32 -115 -41 -31 -11 -99 -17 -221 -20 -202 -6 -221 -1 -319 79 -30 25
-65 50 -77 56 -20 11 -89 13 -223 5z"/>
</g>
</svg>
