<?xml version="1.0" standalone="no"?>
<!DOCTYPE svg PUBLIC "-//W3C//DTD SVG 20010904//EN"
 "http://www.w3.org/TR/2001/REC-SVG-20010904/DTD/svg10.dtd">
<svg version="1.0" xmlns="http://www.w3.org/2000/svg"
 width="402.000000pt" height="419.000000pt" viewBox="0 0 402.000000 419.000000"
 preserveAspectRatio="xMidYMid meet">
<metadata>
Created by potrace 1.13, written by Peter Selinger 2001-2015
</metadata>
<g transform="translate(0.000000,419.000000) scale(0.100000,-0.100000)"
fill="#000000" stroke="none">
<path d="M647 4166 c-53 -20 -71 -34 -130 -107 -122 -150 -168 -351 -183 -790
-6 -163 -4 -216 11 -310 9 -63 24 -124 31 -136 8 -12 14 -28 14 -35 0 -7 6
-25 14 -40 14 -26 14 -27 -22 -39 -88 -28 -212 -155 -264 -269 -102 -221 -126
-372 -94 -585 30 -197 77 -292 204 -413 130 -122 269 -159 487 -128 164 23
247 53 603 221 61 30 112 51 112 47 0 -4 -43 -34 -96 -67 -317 -199 -410 -273
-502 -397 -41 -55 -78 -148 -68 -173 9 -26 106 -19 173 11 153 70 235 131 342
258 73 87 199 214 228 230 17 9 17 9 1 -15 -14 -19 -134 -217 -185 -304 -55
-93 -125 -254 -144 -330 -30 -123 -33 -311 -5 -370 46 -98 131 -202 219 -269
46 -35 159 -89 252 -121 73 -25 92 -27 220 -27 77 1 156 6 175 12 19 5 49 10
67 10 130 0 307 101 357 203 14 28 29 66 32 84 5 27 9 31 24 23 10 -6 24 -16
32 -22 52 -49 256 -118 478 -161 151 -28 182 -31 365 -32 215 0 277 10 407 68
164 73 251 247 203 405 -19 62 -75 172 -87 172 -5 0 -8 4 -8 10 0 11 -9 22
-91 119 -79 92 -184 194 -249 240 -422 302 -691 437 -1155 580 -142 44 -251
70 -315 78 -63 7 -102 22 -58 23 31 0 55 21 64 56 6 22 11 24 58 24 107 0 270
-35 571 -121 39 -11 79 -24 90 -29 53 -22 128 -40 146 -35 10 4 19 15 19 25 0
22 -29 40 -80 51 -19 4 -150 36 -291 72 -145 37 -300 71 -360 77 -154 17 -149
16 -149 50 0 23 -4 30 -20 30 -15 0 -20 7 -20 25 0 18 -5 25 -20 25 -16 0 -20
7 -20 33 -1 98 -12 270 -20 322 -5 33 -11 92 -15 130 -3 39 -9 99 -14 135 -37
257 -38 260 -71 260 -23 0 -26 -29 -11 -89 13 -49 42 -220 43 -251 0 -14 7
-72 14 -130 7 -58 15 -175 18 -261 l6 -156 -26 5 c-35 6 -71 -15 -83 -49 -20
-59 -41 -24 -41 69 0 135 -83 594 -151 835 -36 128 -88 290 -109 342 -52 123
-89 204 -127 275 -45 84 -102 180 -113 190 -3 3 -23 30 -45 60 -22 30 -42 57
-45 60 -3 3 -19 23 -35 45 -42 56 -135 147 -187 183 -88 61 -177 95 -258 99
-48 2 -88 -2 -113 -11z m592 -597 c-14 -8 -29 -3 -29 11 0 4 9 6 21 3 15 -4
17 -8 8 -14z m85 -88 c42 -86 49 -150 7 -71 -29 55 -62 150 -53 150 4 0 24
-36 46 -79z m-201 -18 c120 -124 170 -193 137 -193 -5 0 -14 9 -20 20 -6 11
-17 20 -25 20 -8 0 -15 5 -15 10 0 6 -7 10 -15 10 -8 0 -15 5 -15 11 0 16 -26
39 -44 39 -9 0 -16 -7 -16 -16 0 -17 23 -44 38 -44 10 0 24 -41 17 -49 -3 -2
-33 22 -67 55 -35 32 -84 77 -109 99 l-46 40 39 0 c28 0 38 -4 38 -15 0 -9 9
-22 20 -30 11 -8 20 -22 20 -32 0 -11 7 -18 20 -18 13 0 20 7 20 20 0 11 -4
20 -10 20 -5 0 -10 8 -10 18 0 10 -9 24 -20 32 -11 8 -20 22 -20 32 0 10 -4
18 -10 18 -5 0 -7 7 -4 15 4 8 10 15 14 15 5 0 42 -35 83 -77z m185 -105 c17
-32 26 -55 19 -52 -7 2 -21 19 -32 37 -24 42 -85 118 -107 135 -14 10 -15 16
-6 26 9 10 20 2 53 -38 22 -28 55 -77 73 -108z m-361 25 c128 -108 133 -114
119 -128 -15 -15 -92 -21 -121 -10 -11 5 -28 16 -38 27 -10 10 -30 18 -45 18
-32 0 -105 46 -99 63 9 26 112 -3 122 -34 4 -10 13 -19 21 -19 8 0 14 -4 14
-10 0 -5 11 -10 25 -10 14 0 25 -4 25 -10 0 -5 9 -10 20 -10 12 0 20 7 20 16
0 20 -24 44 -44 44 -9 0 -16 5 -16 10 0 6 -5 10 -10 10 -6 0 -22 11 -35 24
-13 14 -33 27 -45 31 -16 5 -18 10 -10 26 6 10 15 19 20 19 5 0 40 -26 77 -57z
m-314 -58 c20 -8 57 -28 82 -44 l45 -29 -30 -4 c-21 -3 -52 5 -96 25 -61 29
-79 49 -51 60 6 3 13 6 13 6 1 1 18 -6 37 -14z m-3 -111 c12 -12 12 -14 -7
-14 -36 0 -70 17 -75 38 -5 19 -4 19 31 5 20 -8 43 -21 51 -29z m443 -461 c9
-3 17 -14 17 -24 0 -12 7 -19 20 -19 11 0 20 -4 20 -8 0 -5 14 -24 30 -42 17
-18 30 -37 30 -42 0 -17 -43 -7 -122 30 -46 21 -107 49 -135 62 -74 33 -71 44
7 40 19 0 46 3 60 9 14 5 32 7 40 4 8 -3 23 -8 33 -10z m-58 -136 c134 -62
182 -83 208 -91 28 -9 22 -54 -8 -62 -14 -3 -25 -10 -25 -14 0 -4 -3 -22 -6
-39 -6 -29 -4 -31 20 -31 25 0 27 -2 20 -35 -5 -28 -3 -35 10 -35 11 0 16 -9
16 -30 0 -32 -4 -36 -23 -20 -53 43 -217 154 -350 236 -62 39 -66 42 -42 48
38 10 75 -3 75 -25 0 -12 7 -19 20 -19 13 0 20 7 20 20 0 11 -7 20 -15 20 -8
0 -15 9 -15 20 0 11 -5 20 -10 20 -6 0 -14 8 -17 18 -4 9 -18 27 -32 40 -22
19 -24 24 -11 32 19 13 23 12 165 -53z m-30 -383 c28 -18 70 -51 95 -73 l45
-42 -98 51 c-54 27 -104 50 -111 50 -9 0 -12 9 -9 24 4 20 -1 26 -31 37 -20 7
-36 19 -36 27 0 15 42 -7 145 -74z m-51 -83 c45 -21 106 -49 136 -62 30 -13
57 -26 60 -29 3 -4 16 -14 29 -23 l25 -16 -25 -9 c-13 -6 -28 -7 -34 -4 -5 4
-28 18 -50 33 -22 15 -70 37 -107 50 -57 20 -68 28 -68 46 0 16 -6 23 -20 23
-11 0 -20 -7 -20 -15 0 -8 -6 -15 -13 -15 -9 0 -12 10 -9 30 2 17 7 30 10 30
3 0 42 -18 86 -39z m270 -37 c3 -8 2 -12 -4 -9 -6 3 -10 10 -10 16 0 14 7 11
14 -7z m-249 -75 c39 -16 81 -36 94 -45 l23 -16 -31 -19 c-39 -23 -48 -23
-138 -2 -72 17 -96 33 -48 33 14 0 25 -4 25 -10 0 -5 9 -10 20 -10 13 0 20 7
20 20 0 13 -7 20 -18 20 -10 0 -24 10 -32 21 -8 12 -21 28 -29 36 -11 12 -9
13 15 7 16 -3 61 -19 99 -35z m241 -83 c8 -8 14 -19 14 -25 0 -6 9 -11 20 -11
13 0 20 7 20 20 0 11 7 20 15 20 11 0 13 -8 9 -30 -5 -23 -3 -30 10 -30 9 0
16 -2 16 -4 0 -2 3 -11 6 -20 10 -25 -56 -19 -159 13 l-89 27 59 27 c69 32 61
30 79 13z m-277 -52 c2 -2 -10 -4 -27 -4 -18 0 -32 5 -32 10 0 9 47 4 59 -6z
m201 -56 l33 -14 -119 -33 c-65 -19 -127 -36 -136 -39 -15 -4 -17 0 -12 27 4
20 3 31 -5 31 -21 0 -11 30 12 35 75 17 176 14 227 -7z m126 -57 c-3 -4 -24
-11 -46 -15 -32 -5 -40 -11 -40 -27 0 -16 5 -20 28 -17 18 2 27 -2 27 -11 0
-8 -47 -30 -125 -57 -142 -49 -140 -49 -140 -30 0 8 16 20 35 26 25 8 35 18
35 32 0 20 -19 22 -60 4 -9 -4 -23 -1 -33 6 -15 11 2 19 125 55 139 40 205 52
194 34z m101 -37 c5 -15 -50 -25 -59 -11 -4 6 -2 15 5 19 16 11 50 6 54 -8z
m-98 -97 c-2 -2 -33 -20 -69 -39 -36 -19 -91 -49 -122 -67 l-58 -33 0 34 0 33
108 36 c92 32 155 47 141 36z m56 -63 c-27 -14 -103 -29 -92 -18 4 5 29 20 55
34 40 22 48 23 53 11 4 -10 -2 -20 -16 -27z m390 -283 c-5 -22 -12 -31 -26
-31 -25 0 -25 30 1 37 11 3 20 12 20 21 0 8 3 13 6 9 3 -3 3 -19 -1 -36z m60
2 c-7 -30 -13 -39 -19 -32 -8 8 6 59 16 59 6 0 7 -11 3 -27z m-230 -32 c-8
-14 -28 -46 -44 -70 -25 -37 -31 -42 -37 -27 -4 10 1 34 10 54 31 66 44 81 65
75 19 -5 19 -7 6 -32z m355 -16 c24 -4 44 -14 50 -26 7 -11 7 -19 1 -19 -5 0
-19 -20 -31 -45 -12 -25 -25 -45 -29 -45 -4 0 -17 -9 -29 -20 l-22 -21 0 108
c1 75 4 103 10 91 6 -9 28 -19 50 -23z m-326 -59 c-3 -9 -10 -16 -15 -16 -6 0
-5 9 1 21 13 24 24 20 14 -5z m76 -10 c0 -8 3 -21 6 -30 4 -11 1 -16 -10 -16
-9 0 -16 -5 -16 -11 0 -6 -10 -33 -21 -60 -15 -34 -27 -49 -40 -49 -11 0 -19
5 -19 10 0 6 5 10 10 10 6 0 10 7 10 15 0 25 58 145 69 145 6 0 11 -6 11 -14z
m90 10 c0 -7 -48 -131 -70 -178 -11 -27 -25 -48 -30 -48 -12 0 -12 2 1 56 6
24 15 44 20 44 5 0 9 16 9 35 0 26 4 35 16 35 13 0 15 7 11 30 -6 27 -4 30 18
30 14 0 25 -2 25 -4z m54 -144 c-4 -22 -9 -30 -11 -19 -3 9 -14 17 -25 17 -12
0 -18 5 -15 13 2 6 13 36 23 65 l19 54 9 -46 c4 -26 5 -63 0 -84z m352 120
c16 -10 135 -195 172 -267 17 -33 34 -73 38 -90 l7 -29 -26 26 c-15 15 -27 32
-27 39 0 6 -14 31 -30 56 -17 25 -42 68 -57 97 -14 28 -33 62 -43 76 -57 84
-68 115 -34 92z m147 -23 c16 -7 27 -19 27 -30 0 -12 7 -19 20 -19 11 0 20 -7
20 -15 0 -8 3 -15 8 -15 4 0 13 -13 20 -30 8 -18 21 -30 33 -30 24 0 24 17 -1
75 -24 56 -24 55 -5 55 8 0 15 -9 15 -20 0 -13 7 -20 20 -20 11 0 20 5 20 12
0 7 11 -3 24 -21 43 -58 126 -331 100 -331 -14 0 -66 58 -82 90 -19 40 -39 59
-64 60 -23 0 -23 -18 1 -73 19 -43 19 -45 2 -50 -15 -3 -27 14 -62 91 -23 52
-67 132 -96 179 -29 46 -53 88 -53 94 0 5 -4 9 -10 9 -5 0 -10 4 -10 10 0 6 8
6 23 0 12 -6 34 -15 50 -21z m-272 -104 c25 -57 51 -153 46 -168 -3 -7 -6 -5
-6 6 -1 10 -9 17 -20 17 -15 0 -22 11 -31 52 -6 29 -22 76 -35 105 -28 58 -31
79 -12 86 11 4 17 -6 58 -98z m1435 60 c42 -32 44 -41 4 -20 -16 8 -35 15 -43
15 -7 0 -24 11 -37 25 l-23 24 33 -9 c17 -5 47 -21 66 -35z m-1913 28 c-7 -2
-19 -2 -25 0 -7 3 -2 5 12 5 14 0 19 -2 13 -5z m1047 -63 c0 -5 7 -10 14 -10
27 0 63 -44 70 -85 5 -22 12 -42 17 -46 15 -9 41 -123 29 -127 -5 -2 -10 -10
-10 -18 0 -8 -8 -14 -19 -14 -20 0 -28 19 -80 180 -16 53 -33 103 -37 113 -3
10 -1 17 5 17 6 0 11 -4 11 -10z m800 -47 c0 -13 -3 -13 -16 -3 -8 8 -20 22
-25 32 -10 19 -9 19 15 3 14 -10 26 -24 26 -32z m-1470 8 c0 -9 4 -21 9 -26
10 -12 31 -119 30 -154 l-1 -26 -8 25 c-4 14 -8 40 -9 58 -1 25 -5 32 -21 32
-11 0 -20 -4 -20 -10 0 -5 -7 -10 -15 -10 -23 0 -21 108 2 126 21 15 33 9 33
-15z m206 -43 c13 -25 13 -28 -1 -28 -8 0 -15 7 -15 15 0 9 -7 30 -15 48 -15
30 -15 31 0 12 9 -11 23 -32 31 -47z m1262 -78 c23 -30 46 -60 52 -67 5 -7 10
-18 10 -25 0 -11 -32 21 -67 67 -5 6 -31 39 -59 75 -28 36 -54 72 -58 80 -13
24 76 -70 122 -130z m-1667 73 c-12 -20 -14 -14 -5 12 4 9 9 14 11 11 3 -2 0
-13 -6 -23z m48 -35 c-7 -29 -14 -47 -17 -40 -5 15 18 105 26 98 2 -3 -1 -29
-9 -58z m1691 0 c0 -10 7 -18 15 -18 8 0 15 -9 15 -20 0 -11 7 -20 15 -20 8 0
15 -4 15 -10 0 -21 -30 -8 -52 23 -12 17 -30 41 -40 51 -21 23 -23 33 -5 39
15 5 36 -21 37 -45z m-200 5 c30 -35 150 -193 150 -197 0 -2 -7 -6 -15 -10
-11 -4 -29 15 -62 67 -25 39 -59 88 -74 108 -16 20 -29 40 -29 43 0 12 16 6
30 -11z m-17 -105 c15 -20 27 -39 27 -42 0 -3 14 -28 30 -54 37 -61 41 -91 7
-59 -29 27 -117 180 -117 202 0 19 9 11 53 -47z m-1039 -34 c3 -8 2 -12 -4 -9
-6 3 -10 10 -10 16 0 14 7 11 14 -7z m1035 -137 c41 -94 44 -117 16 -117 -19
0 -28 28 -30 86 -1 38 -9 64 -33 103 -18 28 -32 59 -32 69 0 25 29 -26 79
-141z m-44 -174 c4 -16 8 -36 10 -45 4 -23 -17 -68 -32 -68 -17 0 -36 97 -23
121 15 28 39 23 45 -8z m-95 -151 c-7 -13 -9 -8 -9 23 0 35 1 37 10 17 6 -15
5 -30 -1 -40z"/>
<path d="M960 2490 c0 -13 7 -20 20 -20 13 0 20 7 20 20 0 13 -7 20 -20 20
-13 0 -20 -7 -20 -20z"/>
<path d="M1100 2450 c0 -13 7 -20 20 -20 13 0 20 7 20 20 0 13 -7 20 -20 20
-13 0 -20 -7 -20 -20z"/>
<path d="M1040 1700 c0 -13 7 -20 20 -20 13 0 20 7 20 20 0 13 -7 20 -20 20
-13 0 -20 -7 -20 -20z"/>
</g>
</svg>
