<?xml version="1.0" standalone="no"?>
<!DOCTYPE svg PUBLIC "-//W3C//DTD SVG 20010904//EN"
 "http://www.w3.org/TR/2001/REC-SVG-20010904/DTD/svg10.dtd">
<svg version="1.0" xmlns="http://www.w3.org/2000/svg"
 width="335.000000pt" height="320.000000pt" viewBox="0 0 335.000000 320.000000"
 preserveAspectRatio="xMidYMid meet">
<metadata>
Created by potrace 1.13, written by Peter Selinger 2001-2015
</metadata>
<g transform="translate(0.000000,320.000000) scale(0.100000,-0.100000)"
fill="#000000" stroke="none">
<path d="M684 2519 c-3 -5 -14 -9 -25 -9 -10 0 -19 -5 -19 -12 0 -6 -3 -9 -6
-5 -7 6 -34 -17 -34 -29 0 -3 -9 -15 -21 -25 -11 -9 -20 -20 -20 -23 1 -3 1
-7 0 -8 -1 -2 -2 -30 -4 -62 -2 -60 18 -144 39 -158 6 -4 7 -8 2 -8 -5 0 -3
-7 4 -15 7 -8 9 -15 4 -15 -5 0 -2 -6 7 -13 16 -12 35 -55 31 -69 -1 -5 2 -8
8 -8 5 0 10 -7 10 -15 0 -8 5 -15 10 -15 6 0 10 -6 10 -14 0 -8 10 -36 22 -63
12 -26 21 -51 20 -55 -1 -5 2 -8 6 -8 5 0 9 -6 9 -12 2 -34 34 -143 43 -146 5
-2 10 -8 10 -13 0 -13 63 -68 78 -69 9 0 7 -8 -7 -26 -12 -15 -21 -33 -21 -40
0 -8 -4 -14 -10 -14 -5 0 -9 -3 -9 -7 1 -5 0 -10 -1 -13 -4 -11 -11 -46 -13
-67 -1 -13 -5 -23 -8 -23 -10 0 -2 -211 9 -222 6 -6 8 -17 5 -24 -3 -8 0 -14
6 -14 6 0 8 -7 5 -15 -4 -8 -1 -15 5 -15 6 0 11 -9 11 -20 0 -31 162 -184 208
-196 12 -3 22 -10 22 -14 0 -4 26 -15 58 -24 31 -10 66 -21 77 -25 28 -10 88
-3 115 14 8 5 22 10 30 12 8 1 25 13 37 27 12 15 26 26 31 26 6 0 18 12 28 27
27 42 53 67 61 60 3 -4 1 -7 -5 -7 -6 0 -11 -12 -10 -27 0 -16 -3 -43 -6 -61
-5 -26 -3 -34 11 -38 10 -3 25 -9 33 -13 16 -8 40 9 40 28 0 5 6 16 13 23 7 7
22 26 34 41 l22 28 -1 -30 c-1 -17 -4 -31 -8 -31 -6 0 -4 -46 4 -95 3 -19 6
-28 28 -87 6 -15 10 -31 10 -35 1 -4 9 -14 19 -21 11 -7 19 -19 19 -25 0 -12
37 -41 52 -42 4 0 15 -7 25 -15 10 -8 47 -28 83 -45 53 -24 79 -29 145 -30 44
-1 85 1 90 4 6 3 15 7 20 8 50 12 101 29 105 34 6 6 37 19 47 18 3 -1 10 6 15
15 5 9 16 16 23 16 8 0 15 7 15 15 0 8 4 15 10 15 16 0 67 55 62 68 -2 7 2 12
10 13 22 0 54 51 74 114 10 33 18 68 17 77 0 14 2 15 21 4 19 -12 41 -13 159
-3 9 1 17 4 17 7 0 8 83 55 93 52 4 -1 7 2 7 8 0 5 9 10 20 10 11 0 20 5 20
12 0 6 3 9 6 5 4 -3 23 2 43 13 20 10 55 21 76 25 22 4 50 13 62 21 12 8 31
14 43 14 11 0 20 4 20 9 0 7 27 19 46 19 3 1 13 9 22 20 52 60 98 116 105 128
13 22 16 98 5 112 -6 6 -7 12 -4 12 4 0 0 7 -8 15 -9 9 -19 21 -23 28 -10 15
-103 90 -103 83 0 -3 -9 2 -20 12 -12 9 -22 15 -24 12 -2 -3 -13 4 -25 14 -12
11 -21 16 -21 11 0 -4 -7 -1 -16 6 -18 14 -74 37 -114 45 -13 3 -27 8 -30 12
-6 8 -8 8 -73 16 -27 3 -53 8 -58 11 -5 3 -23 8 -41 10 -18 2 -53 7 -78 11
-25 4 -100 7 -167 8 -68 1 -123 5 -123 9 0 4 -8 4 -17 -1 -10 -4 -53 -8 -95
-8 -43 1 -78 -2 -78 -5 0 -3 -25 -5 -55 -5 -30 1 -55 -3 -55 -8 0 -4 -6 -3
-14 3 -8 7 -16 8 -18 3 -1 -5 -20 -12 -41 -16 l-39 -7 20 21 c11 12 26 22 33
24 8 1 20 6 28 11 8 4 29 10 45 11 31 3 71 11 71 14 0 1 8 3 18 5 10 2 26 7
35 11 9 4 25 8 35 9 9 2 18 4 20 5 1 1 31 4 66 6 46 3 71 0 88 -11 20 -13 23
-13 23 -1 0 8 6 16 12 18 9 3 8 9 -5 22 -9 10 -17 14 -17 10 0 -3 -7 -1 -15 6
-8 7 -15 9 -15 5 0 -4 -6 -3 -13 3 -7 6 -18 7 -25 3 -7 -4 -26 -7 -42 -6 -17
1 -30 -1 -30 -5 0 -4 -14 -6 -31 -5 -18 1 -33 -4 -36 -11 -3 -8 -9 -11 -14 -8
-6 3 -21 -2 -34 -10 -18 -12 -25 -13 -25 -4 0 9 -3 9 -11 1 -6 -6 -17 -9 -24
-7 -7 3 -16 1 -19 -5 -4 -6 -13 -8 -21 -4 -8 3 -15 0 -15 -7 0 -7 -6 -10 -14
-7 -8 3 -29 2 -46 -3 -17 -5 -28 -5 -26 -1 3 4 -4 15 -15 24 -10 9 -19 14 -19
12 0 -3 -9 -1 -19 5 -14 7 -20 7 -23 -2 -3 -8 -10 -7 -26 4 -12 8 -19 18 -16
21 4 4 -1 9 -10 13 -9 3 -14 10 -11 14 2 4 -4 15 -15 25 -11 10 -17 22 -14 26
3 5 -2 12 -10 15 -9 3 -16 12 -16 20 0 8 -4 14 -10 14 -5 0 -10 7 -10 15 0 19
-49 95 -62 95 -5 0 -7 4 -3 9 3 5 -6 18 -20 29 -14 11 -25 23 -25 27 0 10 -26
31 -63 51 -21 11 -32 12 -48 4 -20 -11 -20 -13 -3 -31 9 -10 20 -16 24 -14 16
10 108 -95 163 -185 64 -106 74 -122 100 -155 11 -15 14 -26 7 -30 -6 -4 -8
-11 -5 -16 4 -5 0 -9 -8 -9 -14 0 -57 44 -57 58 0 4 -9 14 -20 22 -11 8 -20
18 -20 22 0 8 -44 59 -92 109 -16 16 -28 32 -28 36 0 4 -14 17 -30 28 -16 11
-30 23 -30 28 0 11 -94 104 -165 162 -33 28 -68 58 -79 68 -11 9 -25 17 -31
17 -7 0 -20 9 -30 20 -10 11 -24 20 -30 20 -7 0 -18 7 -25 15 -7 8 -21 15 -31
15 -11 0 -19 4 -19 9 0 5 -11 12 -25 15 -14 4 -25 11 -25 16 0 6 -4 10 -9 10
-5 0 -22 5 -38 12 -15 6 -31 12 -35 13 -5 2 -11 4 -15 5 -5 1 -11 2 -15 1 -5
0 -8 4 -8 9 0 6 -3 9 -7 9 -5 -1 -10 0 -13 1 -9 3 -44 10 -62 12 -10 1 -18 5
-18 8 0 7 0 7 -83 14 -31 2 -60 0 -63 -5z m329 -158 c20 -7 37 -17 37 -22 0
-6 4 -8 9 -5 4 3 17 -4 27 -16 l19 -21 -32 17 c-18 9 -36 16 -39 15 -4 0 -10
4 -13 10 -4 5 -19 12 -35 15 -33 6 -57 24 -29 21 10 -1 35 -7 56 -14z m-138
-31 c0 -2 39 -9 72 -13 12 -1 25 -6 29 -10 4 -4 18 -7 31 -7 12 0 23 -4 23 -8
0 -9 70 -37 83 -34 4 1 7 -3 7 -8 0 -12 -36 -6 -93 16 -20 8 -41 13 -45 13 -4
-1 -9 0 -12 1 -3 1 -18 3 -35 6 -35 4 -70 12 -70 15 0 1 -13 3 -30 4 -16 2
-32 3 -34 4 -15 4 38 29 54 26 11 -2 20 -4 20 -5z m-155 -100 c-6 -12 -14 -20
-17 -17 -2 3 1 14 8 26 17 26 24 19 9 -9z m100 8 c0 -5 -9 -4 -20 2 -11 6 -20
12 -20 14 0 2 9 2 20 -1 11 -3 20 -9 20 -15z m117 0 c24 -2 43 -5 43 -8 0 -3
10 -6 21 -7 27 -2 33 -8 26 -27 -6 -15 -45 -14 -87 1 -8 3 -24 7 -36 8 -12 1
-28 5 -37 8 -22 8 -10 39 12 33 9 -3 35 -7 58 -8z m-213 -70 c7 11 66 3 66 -9
0 -5 -6 -9 -12 -9 -8 0 -5 -7 6 -15 18 -14 16 -15 -32 -15 -45 0 -54 3 -61 23
-11 28 -4 42 14 27 7 -6 16 -7 19 -2z m159 -11 c31 -6 38 -22 14 -36 -12 -8
-19 -10 -15 -6 4 5 0 14 -9 20 -14 10 -20 9 -33 -8 -17 -20 -17 -20 -22 10 -5
33 -5 33 65 20z m370 -237 c5 -4 -3 -9 -16 -12 -16 -3 -28 1 -36 14 -10 17 -9
18 16 12 16 -4 32 -10 36 -14z m77 -60 c3 -1 7 -3 10 -3 3 0 17 -13 32 -28
l28 -27 -78 3 c-94 3 -95 3 -87 14 3 5 1 12 -5 16 -21 13 -9 27 20 23 17 -3
30 -2 30 2 0 6 36 5 50 0z m-167 -104 c20 1 37 -2 37 -7 0 -12 -24 -13 -214
-9 -49 1 -39 12 15 16 23 2 43 5 45 7 3 2 21 1 42 -2 20 -4 54 -6 75 -5z m77
-2 c0 -8 -19 -13 -24 -6 -3 5 1 9 9 9 8 0 15 -2 15 -3z m-247 -145 c-14 -13
-53 -21 -53 -10 0 5 8 11 18 13 28 6 43 5 35 -3z m37 1 c0 -5 -5 -10 -11 -10
-5 0 -7 5 -4 10 3 6 8 10 11 10 2 0 4 -4 4 -10z m50 -6 c0 -2 -9 -4 -21 -4
-11 0 -18 4 -14 10 5 8 35 3 35 -6z m245 6 c3 -5 2 -10 -4 -10 -5 0 -13 5 -16
10 -3 6 -2 10 4 10 5 0 13 -4 16 -10z m240 -30 c3 -5 0 -10 -7 -10 -10 0 -10
-2 1 -9 10 -7 10 -10 1 -16 -7 -4 -16 -2 -21 6 -6 11 -9 10 -15 -4 -3 -9 -10
-14 -15 -11 -5 2 -17 0 -28 -6 -14 -7 -22 -7 -26 0 -5 8 -11 8 -20 0 -9 -8
-14 -5 -18 12 -4 12 -5 23 -3 25 1 1 28 4 60 7 31 2 60 7 63 10 9 9 21 7 28
-4z m1243 -17 c31 -15 60 -26 65 -25 10 3 9 -16 -3 -23 -5 -3 -6 -13 -3 -23 5
-15 3 -14 -18 3 -13 11 -27 25 -31 30 -4 6 -8 6 -8 2 0 -5 -14 1 -30 13 -17
12 -28 25 -25 30 3 5 -1 11 -7 13 -7 3 -9 6 -5 6 5 1 34 -11 65 -26z m138 -4
c6 -5 13 -6 16 -4 3 3 8 -3 11 -14 4 -17 2 -18 -14 -8 -10 6 -19 15 -19 19 0
5 -9 8 -20 8 -11 0 -20 4 -20 10 0 10 27 3 46 -11z m-1681 1 c4 -6 -10 -17
-30 -26 -34 -14 -39 -14 -56 2 -11 10 -28 15 -44 12 -14 -3 -25 -2 -25 3 0 4
30 10 68 12 37 2 70 4 74 5 4 1 10 -3 13 -8z m120 -9 c-3 -6 -14 -11 -23 -11
-13 0 -13 2 4 14 21 15 30 14 19 -3z m-291 -2 c-2 -4 -15 -6 -30 -6 -14 0 -21
2 -15 6 5 4 19 7 30 7 11 0 18 -3 15 -7z m-97 -13 c-2 -5 -16 -13 -32 -18 -15
-4 -32 -13 -36 -20 -6 -9 -10 -8 -15 6 -8 20 13 39 33 31 7 -2 15 -1 17 4 7
11 37 9 33 -3z m393 -21 c0 -8 -15 -18 -35 -24 -48 -13 -71 -37 -54 -57 9 -11
14 -12 19 -3 8 12 100 21 100 9 0 -13 -35 -39 -60 -43 -38 -6 -60 -18 -60 -32
0 -16 25 -26 48 -19 16 5 16 5 0 -9 -10 -8 -18 -18 -18 -22 0 -7 -33 -39 -73
-72 -8 -6 -18 -9 -22 -5 -3 4 -11 -2 -17 -12 -8 -15 -12 -16 -19 -5 -6 11 -15
7 -41 -16 -50 -46 -11 2 60 73 34 34 62 67 62 73 0 17 -28 40 -50 42 -27 2
-25 28 3 52 12 10 23 18 25 17 1 -1 11 7 22 18 12 12 25 18 30 15 6 -4 10 -1
10 5 0 7 8 9 19 5 10 -3 24 1 31 10 16 19 20 19 20 0z m1571 -34 c15 -12 15
-16 4 -28 -20 -19 -41 -18 -25 2 11 13 9 20 -11 42 -24 27 -13 22 32 -16z
m-1347 -4 c-6 -16 -57 -47 -76 -47 -7 1 4 10 25 21 20 11 37 24 37 29 0 6 4
10 10 10 5 0 7 -6 4 -13z m1206 -11 c0 5 4 4 8 -2 4 -6 21 -19 37 -28 17 -10
22 -15 11 -11 -10 3 -24 1 -31 -5 -14 -11 -51 3 -67 25 -12 16 12 37 28 24 8
-6 14 -8 14 -3z m-1641 -23 c-13 -15 -27 -30 -30 -33 -3 -3 -9 -12 -13 -20 -3
-8 -4 -5 -2 8 5 28 -28 51 -38 26 -3 -8 -10 -13 -15 -9 -5 3 -34 -4 -63 -15
-63 -24 -58 -23 -58 -7 0 14 76 43 180 67 61 14 65 12 39 -17z m290 -2 c-24
-19 -45 -19 -33 0 7 12 47 29 53 23 2 -2 -7 -12 -20 -23z m761 15 c8 1 17 3
20 4 22 11 50 5 55 -11 4 -11 9 -19 13 -19 4 0 28 -19 54 -43 26 -23 59 -52
75 -64 52 -41 86 -73 77 -73 -4 0 2 -7 14 -16 24 -16 41 -44 47 -75 5 -27 -7
-24 -46 11 -19 16 -37 30 -41 30 -5 0 -8 6 -8 14 0 21 -30 28 -47 11 -14 -14
-13 -18 8 -36 13 -12 32 -27 43 -34 10 -7 16 -19 14 -27 -3 -8 -27 10 -66 47
-86 85 -107 103 -148 127 -23 13 -31 23 -24 28 25 15 -22 89 -56 90 -21 0 -35
25 -22 38 7 7 14 9 17 4 3 -4 13 -6 21 -6z m220 -31 c14 -2 27 -4 30 -5 3 -1
8 -2 12 -2 7 2 38 -61 43 -90 4 -20 4 -20 -23 3 -14 13 -34 32 -43 41 -9 10
-18 15 -21 13 -3 -3 -22 9 -44 26 -39 32 -39 32 -9 24 17 -4 41 -9 55 -10z
m-860 -34 c-10 -20 -30 -37 -30 -27 0 6 33 46 38 46 1 0 -2 -9 -8 -19z m1409
-48 c2 -2 -1 -3 -7 -3 -12 0 -62 46 -62 57 0 4 15 -6 32 -23 18 -16 35 -30 37
-31z m-1889 37 c-20 -13 -33 -13 -25 0 3 6 14 10 23 10 15 0 15 -2 2 -10z
m880 0 c0 -5 9 -10 20 -10 11 0 19 -3 18 -7 -2 -5 13 -24 32 -44 20 -20 36
-46 37 -59 1 -13 8 -27 15 -31 10 -7 10 -9 -1 -9 -10 0 -11 -3 -2 -14 10 -12
8 -13 -8 -9 -13 3 -23 0 -27 -11 -3 -9 -10 -13 -15 -10 -5 3 -6 10 -3 16 4 6
1 14 -5 18 -7 4 -14 13 -15 21 -6 31 -26 68 -50 94 -18 20 -23 32 -16 40 5 6
7 15 3 18 -3 4 -1 7 5 7 7 0 12 -4 12 -10z m240 -24 c0 -8 -22 -3 -36 9 -8 7
-8 12 -1 17 9 6 37 -13 37 -26z m-750 4 c0 -10 -31 -23 -38 -15 -8 7 19 35 29
29 5 -3 9 -9 9 -14z m450 5 c7 -8 9 -22 6 -31 -4 -10 5 -26 25 -45 36 -34 34
-45 -5 -28 -17 8 -26 20 -26 36 0 12 -4 23 -8 23 -5 0 -8 10 -7 23 1 12 -3 25
-9 29 -8 6 -8 8 0 8 6 0 17 -7 24 -15z m-865 -5 c-3 -5 -12 -10 -20 -10 -7 0
-15 -3 -17 -7 -5 -14 -69 -43 -79 -37 -13 8 -11 21 4 21 6 0 28 7 47 15 30 14
56 24 68 27 2 1 0 -3 -3 -9z m1760 -2 c7 -7 26 -23 42 -35 15 -12 46 -38 68
-57 22 -20 43 -36 46 -36 4 0 10 -8 13 -17 6 -16 6 -16 -12 0 -10 9 -23 17
-29 17 -6 0 -30 18 -54 40 -33 30 -46 37 -56 28 -19 -15 -35 2 -38 41 -3 34 0
37 20 19z m-1639 -10 c3 -4 12 -4 20 -1 24 9 16 -7 -21 -41 -20 -19 -35 -28
-35 -20 0 8 6 14 13 14 8 0 7 4 -3 10 -26 17 -29 16 -107 -50 -7 -5 -16 -10
-22 -10 -5 0 -11 -5 -13 -11 -2 -5 -11 -7 -21 -3 -29 11 -15 25 64 65 40 21
79 43 84 47 11 10 31 10 41 0z m686 -23 c3 -14 2 -27 -1 -30 -4 -2 -8 10 -9
26 -3 36 4 38 10 4z m356 -82 c7 -7 18 -13 23 -13 6 0 8 -4 5 -8 -3 -5 13 -23
35 -42 22 -18 38 -35 35 -37 -4 -5 20 -36 57 -75 9 -10 17 -22 17 -27 0 -6 10
-17 22 -26 18 -12 21 -19 12 -33 -20 -31 -39 -24 -69 28 -17 27 -38 52 -48 56
-9 3 -15 9 -12 14 3 5 -21 36 -53 70 -46 47 -63 59 -78 53 -16 -6 -17 -4 -6 9
10 13 10 17 -3 22 -9 3 -13 10 -10 16 3 5 2 10 -3 10 -5 0 -9 6 -9 14 0 12 7
11 36 -2 20 -10 42 -23 49 -29z m-1097 4 c-8 -8 -11 -7 -11 4 0 20 13 34 18
19 3 -7 -1 -17 -7 -23z m753 8 c-2 -14 -1 -25 4 -25 11 0 15 -57 8 -105 -2
-11 -4 -30 -5 -43 0 -13 -5 -21 -11 -17 -6 3 -6 15 0 30 6 15 6 27 -1 30 -5 4
-7 10 -5 13 2 4 1 36 -3 70 -4 34 -5 64 -3 67 13 12 20 3 16 -20z m-792 -37
c-12 -13 -22 -17 -22 -11 0 15 31 46 38 38 3 -3 -4 -15 -16 -27z m888 1 c0 -6
7 -9 15 -5 11 4 15 -1 15 -18 0 -13 9 -33 20 -46 14 -16 17 -27 10 -35 -15
-18 18 -29 37 -13 13 10 12 14 -3 25 -14 10 -15 16 -6 25 15 15 33 -1 33 -28
-2 -81 -2 -83 -22 -81 -10 1 -19 4 -19 8 0 4 -9 11 -20 14 -11 4 -18 11 -15
16 4 5 -1 12 -9 15 -9 3 -16 12 -16 20 0 8 -5 14 -12 14 -6 0 -8 3 -5 7 4 3
-1 16 -11 27 -26 28 -33 54 -19 60 20 8 27 7 27 -5z m375 -15 c30 -20 63 -66
40 -58 -8 4 -15 10 -15 14 0 5 -9 12 -20 15 -11 3 -20 12 -20 20 0 7 -6 16
-12 18 -7 3 -9 6 -5 6 4 1 18 -6 32 -15z m-165 -46 c0 -6 7 -7 16 -4 11 4 15
2 11 -7 -3 -7 12 -32 33 -55 21 -22 36 -43 33 -46 -3 -2 4 -11 16 -18 12 -7
21 -21 21 -30 0 -10 5 -18 10 -18 6 0 10 -7 10 -15 0 -8 4 -15 8 -15 5 0 9 -6
9 -12 0 -7 4 -20 7 -29 5 -10 1 -19 -8 -22 -9 -4 -16 -2 -16 4 0 17 -28 40
-35 29 -10 -17 -21 -11 -22 12 -1 13 -7 24 -13 26 -5 2 -10 12 -10 22 0 10 -5
22 -11 25 -6 4 -8 13 -5 21 3 8 1 14 -4 14 -6 0 -10 7 -10 15 0 8 -5 15 -11
15 -5 0 -8 4 -5 9 6 8 -31 63 -46 69 -15 7 -8 31 7 26 8 -4 15 -11 15 -16z
m235 -38 c3 -6 -1 -7 -9 -4 -18 7 -21 14 -7 14 6 0 13 -4 16 -10z m-447 -50
c26 -46 27 -50 6 -50 -8 0 -13 4 -9 9 3 5 -3 16 -12 23 -18 13 -30 58 -15 58
4 0 17 -18 30 -40z m194 -7 c13 -27 25 -50 28 -53 3 -3 6 -9 7 -15 1 -5 14
-41 28 -80 43 -114 43 -131 -3 -114 -13 5 -22 15 -19 21 2 7 -2 26 -10 41 -8
15 -11 32 -8 38 8 13 -14 41 -27 33 -5 -3 -6 5 -2 20 6 25 -2 32 -29 27 -5 -1
-5 13 -1 31 4 18 8 48 8 66 1 17 2 32 3 32 1 0 12 -21 25 -47z m-82 -99 c0 -8
5 -14 11 -14 6 0 9 -9 6 -20 -3 -11 -1 -20 3 -20 7 0 22 -31 25 -50 0 -3 4
-11 9 -18 4 -7 5 -19 2 -27 -3 -8 -2 -15 3 -15 4 0 8 -13 9 -30 1 -50 -25 -34
-46 28 -8 24 -8 32 1 32 8 0 9 3 1 8 -6 4 -14 20 -18 35 -5 22 -11 27 -26 22
-11 -4 -20 -3 -21 2 0 4 -3 32 -5 61 l-4 53 25 -17 c14 -9 25 -23 25 -30z
m-90 -74 c0 -5 -5 -10 -11 -10 -5 0 -7 5 -4 10 3 6 8 10 11 10 2 0 4 -4 4 -10z
m320 -31 c0 -5 -4 -9 -8 -9 -5 0 -9 7 -9 15 0 8 4 12 9 9 4 -3 8 -9 8 -15z
m-255 -36 c-2 -10 -4 -22 -5 -28 -1 -5 -5 -1 -9 10 -9 21 -5 35 9 35 4 0 7 -8
5 -17z"/>
<path d="M1251 1436 c-9 -10 -8 -16 4 -26 20 -16 38 -1 29 23 -8 21 -18 22
-33 3z"/>
<path d="M2305 1359 c-8 -11 18 -44 75 -96 30 -27 37 -30 49 -18 12 11 5 22
-43 69 -58 57 -70 64 -81 45z"/>
</g>
</svg>
