<?xml version="1.0" standalone="no"?>
<!DOCTYPE svg PUBLIC "-//W3C//DTD SVG 20010904//EN"
 "http://www.w3.org/TR/2001/REC-SVG-20010904/DTD/svg10.dtd">
<svg version="1.0" xmlns="http://www.w3.org/2000/svg"
 width="373.000000pt" height="304.000000pt" viewBox="0 0 373.000000 304.000000"
 preserveAspectRatio="xMidYMid meet">
<metadata>
Created by potrace 1.13, written by Peter Selinger 2001-2015
</metadata>
<g transform="translate(0.000000,304.000000) scale(0.100000,-0.100000)"
fill="#000000" stroke="none">
<path d="M3315 2979 c-77 -11 -118 -25 -185 -61 -93 -50 -266 -189 -334 -267
-12 -13 -30 -31 -40 -40 -79 -66 -237 -236 -406 -435 -14 -16 -32 -37 -40 -46
-8 -9 -33 -38 -55 -65 -21 -28 -42 -52 -45 -55 -11 -11 -157 -236 -164 -255
-8 -18 -9 -17 -19 10 -6 16 -16 36 -24 43 -27 27 -51 88 -57 147 -19 159 -21
351 -7 410 17 67 14 85 -13 85 -38 0 -51 -47 -50 -180 0 -63 4 -155 10 -205 7
-70 3 -291 -4 -237 -1 8 -11 12 -24 10 -14 -2 -45 10 -76 29 -29 18 -57 33
-62 33 -6 0 -10 4 -10 9 0 5 -8 11 -17 15 -10 3 -25 10 -33 15 -8 5 -51 24
-95 42 -44 18 -105 43 -135 57 -58 25 -156 94 -178 124 -17 23 -62 24 -62 2 0
-20 38 -84 50 -84 5 0 15 -6 22 -13 32 -31 80 -57 178 -95 134 -51 198 -82
285 -135 75 -45 82 -59 70 -124 l-6 -34 -37 31 c-20 16 -40 30 -45 30 -4 0
-20 11 -35 25 -33 31 -72 34 -72 6 0 -11 10 -27 22 -35 32 -22 9 -20 -80 9
-181 58 -487 103 -762 111 -254 8 -409 -10 -520 -59 -44 -20 -174 -108 -192
-131 -73 -90 -80 -263 -13 -326 14 -13 25 -28 25 -34 0 -6 20 -24 44 -40 24
-17 59 -49 78 -73 18 -23 38 -42 43 -43 6 0 16 -9 23 -20 7 -11 17 -20 23 -20
5 0 41 -30 79 -68 93 -90 117 -112 130 -112 5 0 10 -4 10 -10 0 -5 15 -17 32
-25 18 -9 67 -34 108 -55 40 -22 86 -40 101 -40 15 0 29 -5 31 -10 2 -6 27
-13 55 -17 29 -3 51 -9 48 -13 -8 -13 -35 -156 -35 -187 0 -38 29 -166 39
-173 4 -3 14 -21 23 -40 9 -20 27 -47 39 -60 12 -14 33 -40 46 -57 14 -18 29
-33 33 -33 4 0 24 -16 45 -35 36 -35 107 -75 131 -75 7 0 14 -5 16 -12 3 -7
14 -9 31 -4 20 5 27 13 27 31 0 14 5 25 10 25 6 0 10 10 10 21 0 18 -4 21 -29
16 -20 -4 -31 -2 -34 7 -7 18 1 26 25 26 11 0 18 7 18 20 0 11 4 20 9 20 5 0
13 15 16 33 9 41 74 176 120 250 26 41 43 57 58 57 16 0 18 -3 9 -9 -8 -4 -15
-27 -15 -50 -2 -37 -5 -43 -28 -48 -22 -4 -29 -15 -47 -76 -29 -100 -37 -147
-23 -147 6 0 11 -7 11 -15 0 -8 -9 -15 -20 -15 -13 0 -20 -7 -20 -20 0 -15 7
-20 24 -20 30 0 41 -28 25 -64 -12 -25 -39 -36 -39 -16 0 6 7 10 15 10 8 0 15
9 15 20 0 13 -7 20 -20 20 -11 0 -20 -4 -20 -10 0 -5 -7 -10 -15 -10 -11 0
-15 -11 -15 -38 l0 -38 78 -25 c42 -13 79 -27 80 -31 6 -14 145 -9 173 6 15 7
73 24 130 36 67 14 110 29 122 41 10 10 23 19 30 19 21 0 103 92 133 150 16
30 31 57 34 60 18 16 60 237 60 314 0 29 0 30 20 10 40 -39 51 -45 88 -42 32
3 39 8 56 43 10 22 21 73 25 113 l6 72 45 -44 c25 -25 51 -45 58 -46 6 0 12
-7 12 -15 0 -8 6 -15 14 -15 8 0 16 -4 18 -8 5 -15 130 -89 194 -116 145 -60
358 -80 439 -42 52 24 112 50 151 65 17 7 50 29 72 49 23 20 60 53 81 72 22
19 42 45 46 57 3 12 14 24 24 28 19 6 81 94 81 115 0 6 4 10 8 10 5 0 13 15
19 33 6 17 21 57 32 87 21 55 51 223 51 287 0 18 5 33 10 33 6 0 10 9 10 20 0
11 -4 20 -10 20 -5 0 -10 9 -10 20 0 12 -7 34 -15 49 -20 40 -139 145 -194
173 -26 13 -48 24 -50 25 -5 3 62 63 70 63 11 0 69 96 80 132 20 64 29 155 40
393 20 445 6 586 -65 657 -55 55 -116 66 -251 47z m-163 -144 c-3 -17 0 -25 9
-25 14 0 -2 -16 -145 -144 -37 -33 -83 -74 -101 -91 -80 -74 -165 -139 -165
-126 0 6 4 11 10 11 5 0 12 11 16 25 3 14 11 25 16 25 6 0 8 11 6 25 -4 20 -1
25 14 25 11 0 33 15 50 33 79 86 99 107 104 107 3 0 18 12 33 28 15 15 42 38
60 52 18 14 47 37 64 53 17 15 32 27 33 27 1 0 -1 -11 -4 -25z m118 -106 c0
-22 7 -22 68 -4 12 4 22 3 22 -3 0 -5 -10 -12 -22 -15 -27 -5 -156 -50 -245
-84 -80 -30 -84 -29 -35 7 39 28 69 51 96 75 10 9 92 43 109 44 4 1 7 -9 7
-20z m150 -78 c23 -7 21 -8 -17 -15 -34 -6 -43 -12 -43 -28 0 -18 4 -19 40
-13 25 4 40 3 40 -4 0 -5 -17 -13 -37 -16 -21 -4 -49 -10 -63 -15 -14 -5 -40
-12 -57 -15 -18 -4 -33 -11 -33 -16 0 -5 -8 -9 -18 -9 -9 0 -42 -9 -72 -20
-30 -11 -56 -20 -57 -20 -2 0 -3 -10 -3 -21 0 -24 -9 -25 145 16 122 33 201
47 235 42 17 -2 5 -7 -37 -16 -50 -11 -63 -17 -63 -32 0 -22 51 -40 58 -21 4
14 42 16 42 3 0 -11 -18 -17 -75 -27 -35 -5 -110 -24 -227 -56 -28 -8 -38 -16
-38 -31 0 -22 2 -22 135 7 48 11 71 12 76 5 4 -8 21 -8 51 -2 28 6 53 6 69 0
23 -9 22 -10 -18 -19 -33 -7 -43 -14 -43 -29 0 -17 5 -19 55 -13 30 4 55 4 55
1 0 -16 -77 -40 -171 -52 -58 -8 -112 -17 -120 -19 -39 -14 -294 -45 -297 -36
-6 16 -42 12 -42 -5 0 -8 -4 -15 -10 -15 -5 0 -26 -15 -45 -32 -20 -18 -54
-49 -77 -68 -22 -19 -48 -42 -57 -50 -9 -8 -26 -14 -38 -12 -17 3 -23 -2 -23
-15 0 -13 -43 -44 -142 -103 -196 -118 -188 -114 -188 -95 0 8 5 15 10 15 6 0
22 11 35 25 14 13 25 29 25 35 0 5 5 10 10 10 6 0 22 11 36 25 14 14 34 25 45
25 11 0 26 6 34 13 7 6 25 21 39 31 14 10 26 25 26 32 0 8 4 14 10 14 17 0 50
34 50 52 0 10 -8 18 -17 19 -14 0 -13 2 5 9 24 10 36 19 83 63 16 15 34 27 39
27 6 0 10 9 10 20 0 13 -7 20 -20 20 -11 0 -20 -4 -20 -10 0 -5 -6 -10 -13
-10 -7 0 -20 -8 -29 -17 -21 -24 -60 -53 -70 -53 -4 0 -8 -7 -8 -15 0 -8 -7
-15 -15 -15 -8 0 -15 -7 -15 -15 0 -8 -7 -15 -15 -15 -8 0 -15 -4 -15 -10 0
-5 -5 -10 -11 -10 -7 0 -18 -8 -25 -17 -7 -10 -14 -13 -14 -7 0 6 14 25 30 42
17 18 30 34 30 38 0 7 27 34 34 34 14 0 46 36 46 52 0 27 -34 22 -56 -7 -10
-14 -24 -25 -31 -25 -7 0 -13 -4 -13 -10 0 -5 -20 -30 -45 -56 -25 -25 -45
-49 -45 -54 0 -5 -13 -7 -30 -3 -23 4 -30 2 -30 -11 0 -9 -4 -16 -10 -16 -5 0
-10 -7 -10 -15 0 -8 -7 -15 -15 -15 -8 0 -15 -9 -15 -20 0 -11 5 -20 10 -20 6
0 10 -4 10 -9 0 -4 -11 -6 -24 -4 -18 4 -26 0 -31 -16 -3 -12 -11 -21 -16 -21
-5 0 -9 -6 -9 -14 0 -8 -4 -16 -9 -18 -5 -1 -25 -34 -45 -71 -20 -38 -36 -62
-36 -53 0 15 20 67 30 76 3 3 14 22 24 43 11 20 23 37 28 37 4 0 8 8 8 18 0
10 14 32 30 50 17 18 30 36 30 39 0 20 162 191 239 253 56 45 133 88 147 83 6
-2 9 -15 6 -28 -3 -20 0 -25 17 -25 14 0 21 6 21 20 0 11 7 20 15 20 8 0 15
-4 15 -10 0 -19 35 -50 57 -50 12 0 25 -4 28 -10 3 -5 17 -10 31 -10 14 0 27
-7 30 -15 8 -19 44 -20 44 -2 0 8 32 26 70 41 55 22 70 32 70 48 0 24 -12 22
-102 -11 l-57 -21 -55 21 c-31 11 -58 24 -61 29 -5 8 121 65 160 72 22 4 35
48 14 48 -15 0 -121 -37 -176 -61 -24 -11 -52 -19 -64 -19 -23 0 -23 -1 81 79
14 11 35 29 47 40 20 19 135 71 156 71 5 0 23 7 40 15 52 24 190 65 219 65 16
0 28 5 28 10 0 11 43 12 80 1z m117 -147 c-3 -3 -12 -4 -19 -1 -8 3 -5 6 6 6
11 1 17 -2 13 -5z m-67 -355 l45 -12 -52 -16 c-38 -11 -53 -21 -53 -33 0 -14
9 -18 38 -19 33 -2 34 -2 7 -6 -16 -3 -34 -9 -40 -14 -5 -5 -18 -9 -29 -9 -11
0 -48 -5 -83 -11 -50 -9 -63 -15 -63 -29 0 -10 7 -21 16 -24 23 -9 62 -7 66 3
2 5 21 6 43 2 31 -5 41 -11 43 -29 3 -18 10 -22 43 -22 21 0 39 -4 39 -10 0
-5 7 -10 15 -10 8 0 15 -9 15 -20 0 -24 4 -24 -95 -4 -202 40 -675 -1 -675
-58 0 -22 11 -22 76 -4 118 34 454 51 544 27 25 -6 28 -9 13 -10 -45 -2 -18
-60 29 -62 77 -4 -185 -27 -322 -28 -152 -2 -274 -13 -425 -41 -33 -6 -87 -15
-119 -21 -33 -5 -62 -12 -66 -14 -14 -9 -179 -25 -194 -19 -14 5 42 45 351
244 42 28 72 40 97 40 29 0 36 4 36 19 0 11 -5 21 -12 23 -7 3 8 18 33 35 25
18 61 47 80 65 24 25 49 37 89 46 117 24 220 35 332 36 71 1 118 5 118 11 0 6
4 5 8 -1 4 -7 27 -18 52 -25z m-1000 -148 c0 -5 3 -16 6 -25 5 -13 -1 -16 -26
-16 -29 0 -30 1 -16 16 9 8 16 20 16 25 0 5 5 9 10 9 6 0 10 -4 10 -9z m-1622
-264 c4 -20 7 -19 -77 -22 -38 -1 -66 -7 -71 -15 -6 -9 -22 -11 -56 -6 -77 11
-97 18 -84 26 7 4 28 3 48 -3 25 -8 37 -8 39 -1 2 7 23 9 53 6 50 -5 50 -5 50
26 l0 30 47 -12 c31 -8 49 -18 51 -29z m479 -33 c-3 -3 -12 -4 -19 -1 -8 3 -5
6 6 6 11 1 17 -2 13 -5z m1926 -6 c20 0 37 -4 37 -8 0 -19 -111 -32 -355 -40
-236 -7 -274 -11 -404 -39 -80 -18 -152 -30 -160 -28 -9 2 2 7 24 11 22 4 94
22 160 38 251 64 355 78 515 72 80 -4 162 -7 183 -6z m-2688 -38 c14 -6 15 -9
5 -9 -9 -1 -23 -9 -32 -18 -33 -35 -49 -44 -86 -49 l-37 -5 33 18 c30 15 45
53 22 53 -5 0 -10 5 -10 10 0 12 77 12 105 0z m925 -4 l45 -15 -37 0 c-21 -1
-38 3 -38 8 0 5 -8 12 -17 14 -10 3 -13 5 -8 6 6 0 30 -6 55 -13z m-1070 -9
c0 -20 -46 -37 -80 -30 -37 7 -31 14 23 29 58 16 57 16 57 1z m310 -17 c0 -11
-7 -20 -15 -20 -8 0 -15 -5 -15 -11 0 -18 -24 -36 -58 -44 -21 -4 -32 -13 -32
-24 0 -23 -43 -46 -81 -43 -23 2 -29 -2 -29 -17 0 -12 -9 -20 -27 -24 -16 -3
-30 -4 -32 -2 -5 6 26 35 38 35 14 0 14 37 1 45 -20 12 -10 25 19 25 16 0 36
7 45 15 8 8 19 15 25 15 6 0 11 7 11 15 0 15 15 19 58 15 16 -1 22 4 22 19 0
17 6 21 35 21 28 0 35 -4 35 -20z m90 -4 c0 -3 -4 -8 -10 -11 -5 -3 -10 -1
-10 4 0 6 5 11 10 11 6 0 10 -2 10 -4z m500 -11 c0 -8 -4 -15 -10 -15 -5 0 -7
7 -4 15 4 8 8 15 10 15 2 0 4 -7 4 -15z m255 5 c3 -5 -1 -10 -9 -10 -9 0 -16
5 -16 10 0 6 4 10 9 10 6 0 13 -4 16 -10z m1605 -14 c0 -11 20 -14 87 -15 51
0 89 -5 91 -11 2 -5 21 -10 43 -10 27 0 39 -4 39 -14 0 -11 -23 -16 -92 -20
-51 -4 -189 -13 -306 -21 -117 -8 -250 -17 -295 -21 l-82 -6 43 32 c23 17 42
36 42 41 0 5 6 9 14 9 8 0 16 6 18 13 4 9 52 13 181 17 96 3 179 8 183 13 12
12 34 8 34 -7z m-1550 -27 c0 -5 -4 -9 -10 -9 -5 0 -10 7 -10 16 0 8 5 12 10
9 6 -3 10 -10 10 -16z m1050 -19 c-20 -17 -47 -30 -62 -30 -22 0 -28 -5 -29
-22 0 -22 -1 -22 -9 -3 -14 33 -11 45 10 45 11 0 20 4 20 9 0 8 60 27 95 30 6
0 -6 -13 -25 -29z m-2296 5 c-7 -16 -24 -21 -24 -6 0 8 7 13 27 20 1 1 0 -6
-3 -14z m468 -10 c-2 -14 -6 -25 -8 -25 -2 0 -4 11 -4 25 0 14 4 25 9 25 4 0
6 -11 3 -25z m276 -18 c12 -3 10 -5 -5 -6 -19 -1 -23 4 -22 27 1 22 2 23 6 5
2 -12 12 -24 21 -26z m29 21 c-3 -8 -6 -5 -6 6 -1 11 2 17 5 13 3 -3 4 -12 1
-19z m260 16 c-3 -3 -12 -4 -19 -1 -8 3 -5 6 6 6 11 1 17 -2 13 -5z m932 2
c-2 -2 -35 -6 -74 -9 -44 -4 -59 -3 -40 2 30 9 122 14 114 7z m-1129 -15 c0
-10 54 -19 148 -25 58 -4 62 -2 63 18 l2 21 4 -22 c5 -26 48 -38 85 -24 35 13
79 0 89 -27 7 -18 5 -22 -14 -22 -12 0 -46 -3 -74 -6 -45 -6 -53 -4 -53 10 0
11 -9 16 -32 16 -52 0 -78 -11 -78 -31 0 -11 -4 -19 -10 -19 -5 0 -10 7 -10
16 0 23 -25 44 -54 44 -13 0 -31 6 -38 13 -7 7 -21 16 -30 20 -19 7 -25 27 -8
27 6 0 10 -4 10 -9z m-470 -41 c0 -5 -7 -10 -15 -10 -8 0 -15 -4 -15 -9 0 -5
-12 -12 -27 -16 -15 -3 -30 -10 -33 -13 -9 -12 -102 -53 -108 -47 -7 7 -10 5
98 58 108 53 100 50 100 37z m1754 -6 c23 -9 20 -24 -4 -24 -11 0 -20 7 -20
15 0 17 2 18 24 9z m-819 -14 c3 -5 -3 -10 -14 -10 -12 0 -21 5 -21 10 0 6 6
10 14 10 8 0 18 -4 21 -10z m-890 -20 c-3 -5 -14 -10 -23 -9 -14 0 -13 2 3 9
27 11 27 11 20 0z m2705 -6 c64 -2 70 -4 70 -19 0 -7 8 -19 18 -25 14 -9 12
-10 -13 -6 -114 18 -125 18 -125 -2 0 -15 9 -22 35 -26 19 -4 35 -11 35 -16 0
-4 20 -8 44 -8 70 0 113 -32 64 -48 -30 -10 -110 -5 -123 7 -5 5 -18 9 -30 9
-11 0 -60 9 -110 20 -49 10 -164 25 -255 31 -179 12 -225 20 -271 48 l-30 18
173 12 c271 19 277 19 383 13 55 -3 116 -7 135 -8z m-2240 -14 c0 -5 -12 -10
-27 -9 l-28 1 25 8 c14 4 26 8 28 9 1 1 2 -3 2 -9z m1493 -24 c12 -8 40 -24
62 -35 36 -19 37 -21 14 -21 -48 0 -89 12 -89 26 0 8 -9 14 -20 14 -11 0 -20
-7 -20 -15 0 -11 -12 -15 -44 -15 -25 0 -46 -5 -48 -12 -6 -16 -38 -3 -38 15
0 10 8 13 25 9 20 -3 25 0 25 16 0 11 -4 22 -10 24 -5 2 20 4 56 5 42 2 72 -2
87 -11z m-393 -3 c-8 -3 -18 -10 -21 -16 -4 -6 -27 -6 -60 -1 l-54 9 55 6 c77
8 98 9 80 2z m-1422 -30 c2 -7 -3 -13 -12 -13 -9 0 -16 -4 -16 -10 0 -5 -12
-12 -27 -16 -51 -11 -83 -26 -83 -40 0 -8 -9 -14 -20 -14 -11 0 -20 -4 -20
-10 0 -5 -11 -10 -25 -10 -18 0 -25 -5 -25 -19 0 -11 8 -21 17 -23 28 -5 -25
-34 -77 -43 l-45 -7 33 31 c18 17 38 31 43 31 5 0 12 13 15 28 5 24 10 28 30
24 13 -2 24 0 24 6 0 5 12 13 26 16 21 6 25 12 21 31 -4 23 -1 25 30 25 19 0
41 7 50 16 18 17 54 15 61 -3z m-408 -7 c0 -2 -9 -6 -20 -9 -11 -3 -20 -1 -20
4 0 5 9 9 20 9 11 0 20 -2 20 -4z m86 -14 c-3 -5 -16 -12 -28 -15 l-23 -6 24
20 c23 19 39 20 27 1z m134 2 c0 -2 -7 -4 -15 -4 -8 0 -15 4 -15 10 0 5 7 7
15 4 8 -4 15 -8 15 -10z m297 -2 c-10 -10 -17 -24 -17 -30 0 -7 -7 -12 -15
-12 -8 0 -15 -4 -15 -10 0 -5 -16 -16 -35 -24 -19 -8 -35 -20 -35 -25 0 -6 -7
-11 -15 -11 -8 0 -15 -6 -15 -13 0 -8 -18 -20 -40 -27 -27 -9 -40 -19 -40 -32
0 -13 -7 -18 -25 -18 -14 0 -25 -6 -25 -12 0 -9 -4 -8 -10 2 -10 16 9 36 96
105 21 17 53 45 71 63 18 17 37 32 43 32 5 0 10 4 10 9 0 6 17 12 38 14 20 2
39 4 41 5 2 1 -3 -6 -12 -16z m126 -14 c-47 -38 -67 -47 -78 -34 -6 6 -9 21
-7 34 3 20 9 22 58 22 l56 0 -29 -22z m197 1 c11 -19 9 -20 -24 -13 -32 5 -36
4 -36 -15 0 -15 7 -21 23 -22 12 -1 0 -5 -28 -10 -27 -4 -51 -13 -53 -19 -2
-5 -10 -10 -18 -10 -8 0 -14 -9 -14 -19 0 -12 -9 -21 -25 -25 -14 -4 -25 -11
-25 -16 0 -6 -6 -10 -13 -10 -14 0 -45 -21 -82 -57 -13 -13 -36 -23 -50 -23
-16 0 -25 -6 -25 -15 0 -8 -9 -15 -20 -15 -12 0 -20 -7 -21 -17 0 -12 -2 -13
-6 -5 -3 7 12 28 33 46 22 19 59 52 84 75 25 22 51 41 57 41 7 0 13 6 13 14 0
8 9 18 20 21 11 3 25 15 30 26 6 10 15 19 21 19 5 0 15 5 22 10 19 16 101 58
114 59 7 1 17 -8 23 -20z m-660 1 c0 -5 -8 -10 -17 -10 -15 0 -16 2 -3 10 19
12 20 12 20 0z m-160 -20 c-8 -5 -19 -10 -25 -10 -5 0 -3 5 5 10 8 5 20 10 25
10 6 0 3 -5 -5 -10z m2675 -21 c187 -36 220 -43 225 -49 3 -4 19 -10 37 -13
43 -8 123 -47 123 -59 0 -6 -9 -7 -22 -3 -13 4 -42 10 -65 12 -38 4 -43 3 -43
-14 0 -22 29 -38 84 -48 20 -4 36 -11 36 -15 0 -14 -30 -20 -56 -10 -14 6 -40
10 -59 10 -19 0 -37 5 -40 10 -3 6 -17 10 -31 10 -13 0 -24 3 -24 8 0 7 -21
12 -208 51 -62 13 -106 28 -133 46 -21 15 -39 29 -39 30 0 1 23 0 50 -3 45 -4
50 -3 50 16 0 18 -8 21 -67 28 -37 4 -78 10 -92 15 -46 15 170 -2 274 -22z
m-550 -18 c-6 -5 -25 10 -25 20 0 5 6 4 14 -3 8 -7 12 -15 11 -17z m-1615 9
c0 -5 -4 -10 -10 -10 -5 0 -10 5 -10 10 0 6 5 10 10 10 6 0 10 -4 10 -10z
m1853 -26 c15 -3 27 -9 27 -14 0 -4 13 -13 29 -20 16 -6 37 -20 47 -31 16 -18
16 -19 -2 -21 -36 -3 -55 2 -70 17 -9 8 -25 15 -38 15 -12 0 -31 7 -42 15 -10
8 -27 15 -36 15 -12 0 -18 8 -18 21 0 22 4 22 103 3z m-2314 -26 c-9 -16 -14
-19 -17 -9 -2 7 2 17 9 22 20 13 21 11 8 -13z m431 -1 c0 -7 -15 -18 -34 -25
-19 -7 -36 -21 -39 -32 -3 -12 -13 -20 -24 -19 -17 1 -17 1 0 6 14 3 18 12 15
28 -4 17 1 25 16 31 17 6 52 18 64 23 1 1 2 -5 2 -12z m396 -7 c8 0 14 -4 14
-10 0 -5 -19 -10 -41 -10 -38 0 -41 -2 -37 -24 3 -15 0 -27 -8 -30 -8 -3 -14
-1 -14 4 0 6 -9 10 -20 10 -11 0 -20 -4 -20 -10 0 -5 -7 -10 -15 -10 -8 0 -15
-4 -15 -10 0 -5 -11 -10 -25 -10 -33 0 -32 13 3 28 15 7 38 19 52 28 64 39
105 59 108 52 2 -4 10 -8 18 -8z m1454 -70 c0 -5 -8 -10 -17 -10 -15 0 -16 2
-3 10 19 12 20 12 20 0z m-263 -13 c16 -9 20 -16 13 -27 -8 -13 -10 -12 -10 3
0 10 -8 17 -20 17 -11 0 -20 -4 -20 -10 0 -5 -7 -7 -15 -4 -8 4 -15 12 -15 20
0 17 37 18 67 1z m589 -12 c114 -24 200 -50 219 -67 5 -4 17 -8 27 -8 10 0 18
-4 18 -10 0 -5 9 -10 20 -10 13 0 22 -9 26 -25 3 -14 10 -25 15 -25 5 0 9 -11
9 -25 0 -22 -3 -24 -30 -18 -26 5 -30 3 -30 -17 0 -17 -4 -21 -17 -15 -10 4
-28 10 -40 12 -33 7 -31 -30 2 -47 14 -7 23 -15 20 -18 -2 -2 -20 5 -40 17
-20 11 -42 21 -50 21 -22 0 -120 61 -239 149 -86 64 -105 82 -90 86 10 4 26
10 34 15 21 12 17 13 146 -15z m-2328 -32 c-10 -2 -18 -9 -18 -14 0 -5 -8 -9
-17 -9 -15 0 -14 2 3 15 10 8 26 14 34 14 11 -1 10 -3 -2 -6z m2192 -78 c63
-46 130 -98 149 -114 19 -17 38 -31 43 -31 4 0 8 -4 8 -10 0 -5 6 -10 14 -10
8 0 18 -9 21 -20 3 -11 13 -20 21 -20 8 0 14 -7 14 -15 0 -7 7 -18 15 -22 8
-5 16 -20 17 -33 3 -21 -1 -25 -22 -22 -14 1 -26 7 -28 12 -2 6 -12 10 -23 10
-10 0 -19 5 -19 10 0 6 -6 10 -13 10 -7 0 -19 10 -27 21 -15 22 -68 49 -95 49
-8 0 -15 -9 -15 -20 0 -11 7 -20 15 -20 8 0 15 -5 15 -11 0 -11 25 -39 35 -39
3 0 17 -11 31 -25 14 -14 33 -25 44 -25 25 0 31 -12 14 -27 -11 -11 -18 -8
-38 12 -14 14 -30 25 -36 25 -5 0 -10 5 -10 10 0 6 -9 10 -20 10 -11 0 -20 5
-20 11 0 15 -26 39 -43 39 -8 0 -17 10 -20 21 -5 17 -11 20 -31 17 -14 -3 -26
-1 -26 3 0 5 7 9 15 9 22 0 18 38 -5 45 -11 3 -20 11 -20 17 0 6 -12 8 -30 5
-18 -4 -30 -2 -30 4 0 6 -10 19 -22 30 -13 10 -17 18 -10 19 6 0 12 -4 12 -10
0 -5 7 -10 15 -10 8 0 15 -4 15 -10 0 -5 9 -10 20 -10 13 0 20 7 20 20 0 11
-7 20 -15 20 -10 0 -15 10 -15 30 0 20 -5 30 -15 30 -8 0 -15 5 -15 10 0 6 -7
10 -15 10 -8 0 -15 5 -15 11 0 7 -10 9 -25 7 -14 -3 -25 -1 -25 3 0 5 5 9 10
9 17 0 11 38 -7 43 -10 3 2 5 27 6 41 0 55 -7 160 -84z m-1944 18 c-10 -10
-19 5 -10 18 6 11 8 11 12 0 2 -7 1 -15 -2 -18z m94 23 c0 -3 -13 -14 -30 -26
-22 -16 -28 -17 -24 -6 3 9 12 16 20 16 8 0 14 5 14 10 0 6 5 10 10 10 6 0 10
-2 10 -4z m1527 -42 c-3 -3 -12 -4 -19 -1 -8 3 -5 6 6 6 11 1 17 -2 13 -5z
m33 -29 c10 -12 10 -15 -4 -15 -9 0 -16 7 -16 15 0 8 2 15 4 15 2 0 9 -7 16
-15z m120 0 c0 -8 -7 -15 -15 -15 -26 0 -18 20 13 29 1 1 2 -6 2 -14z m-1224
-43 c-11 -10 -15 4 -8 28 l7 25 3 -23 c2 -13 1 -26 -2 -30z m-633 21 c-7 -2
-21 -2 -30 0 -10 3 -4 5 12 5 17 0 24 -2 18 -5z m231 -2 c3 -5 -1 -14 -9 -21
-13 -10 -15 -9 -15 9 0 21 14 28 24 12z m367 -31 c10 0 19 -2 19 -5 0 -11 -35
-45 -47 -45 -17 0 -17 -37 0 -43 6 -2 -3 -7 -20 -11 -21 -5 -33 -14 -34 -24 0
-9 -5 -4 -9 12 -7 21 -5 32 6 43 7 8 14 18 14 22 0 4 9 18 20 31 11 13 21 32
21 44 2 20 2 20 6 -1 3 -15 12 -23 24 -23z m1179 0 c0 -10 8 -20 19 -22 16 -3
80 -60 286 -253 28 -26 55 -65 55 -78 0 -3 -10 -7 -22 -10 -14 -4 -27 1 -38
13 -10 11 -21 20 -26 20 -5 0 -18 11 -30 25 -12 14 -35 28 -53 31 -26 6 -31 4
-31 -14 0 -13 9 -22 24 -26 14 -3 27 -15 31 -25 3 -10 15 -21 25 -24 26 -7 26
-27 -1 -27 -37 0 -57 17 -52 45 4 20 1 25 -13 25 -11 0 -24 10 -29 22 -6 12
-19 26 -30 32 -11 6 -24 17 -29 24 -5 9 -19 12 -40 8 -17 -3 -38 -1 -46 4 -10
6 -11 10 -2 10 6 0 12 9 12 20 0 11 5 20 10 20 6 0 10 10 10 23 0 15 3 18 8 9
8 -12 64 -32 89 -32 7 0 13 8 13 19 0 12 -9 20 -29 24 -31 7 -71 42 -71 64 0
7 -4 13 -9 13 -5 0 -23 14 -41 30 -18 17 -27 30 -21 30 6 0 11 7 11 16 0 8 5
12 10 9 6 -3 10 -15 10 -25z m-1860 -15 c0 -8 -4 -15 -10 -15 -5 0 -7 7 -4 15
4 8 8 15 10 15 2 0 4 -7 4 -15z m258 6 c15 -9 2 -20 -85 -75 -41 -25 -43 -25
-43 -6 0 15 7 20 25 20 16 0 25 6 25 16 0 44 42 68 78 45z m182 -81 c-24 -15
-37 -11 -16 5 11 8 22 12 25 9 3 -3 -1 -9 -9 -14z m1369 -5 c3 -17 2 -17 -13
-3 -19 20 -21 31 -3 26 6 -3 14 -13 16 -23z m49 -36 c17 -1 21 -3 10 -6 -10
-2 -18 -13 -18 -24 0 -10 -4 -19 -8 -19 -18 0 -29 22 -24 48 3 15 7 21 9 15 3
-7 17 -14 31 -14z m-1768 1 c-8 -5 -19 -10 -25 -10 -5 0 -3 5 5 10 8 5 20 10
25 10 6 0 3 -5 -5 -10z m932 -61 c5 -3 12 -25 15 -48 3 -22 10 -41 14 -41 5 0
9 -13 9 -30 0 -16 -4 -30 -9 -30 -11 0 -21 35 -21 73 0 15 -4 27 -10 27 -5 0
-10 9 -10 20 0 12 -7 20 -17 21 -11 0 -13 3 -5 6 6 2 13 14 13 26 1 21 2 21 6
2 3 -11 10 -23 15 -26z m-661 21 c5 0 9 -9 9 -20 0 -11 -7 -20 -15 -20 -9 0
-18 -7 -21 -15 -7 -16 -44 -21 -44 -6 0 5 -7 11 -17 13 -15 3 -15 4 0 17 15
12 17 11 17 -3 0 -9 8 -16 20 -16 13 0 20 7 20 20 0 11 -5 20 -11 20 -5 0 -7
5 -4 11 4 6 14 8 22 5 8 -3 19 -6 24 -6z m1286 -22 c-3 -8 -6 -5 -6 6 -1 11 2
17 5 13 3 -3 4 -12 1 -19z m123 -10 c0 -5 -9 -3 -20 4 -11 7 -20 16 -20 20 0
5 9 3 20 -4 11 -7 20 -16 20 -20z m-1313 -43 c1 -30 -2 -55 -8 -55 -5 0 -9 5
-9 10 0 6 -9 10 -20 10 -11 0 -20 -7 -20 -15 0 -8 -4 -15 -10 -15 -5 0 -10 -7
-10 -15 0 -8 -4 -15 -10 -15 -5 0 -10 -7 -10 -15 0 -8 -7 -15 -15 -15 -8 0
-15 -5 -15 -11 0 -6 -6 -17 -12 -24 -30 -33 -38 -45 -38 -55 0 -5 -7 -10 -15
-10 -8 0 -15 -9 -15 -20 0 -11 -7 -20 -15 -20 -9 0 -15 -9 -15 -25 0 -15 -6
-25 -14 -25 -8 0 -16 -5 -18 -12 -2 -6 -10 -9 -16 -7 -9 3 -8 10 5 24 11 11
34 43 53 70 35 51 91 126 101 135 3 3 24 30 47 60 23 30 50 65 59 77 10 12 18
22 18 23 0 0 1 -25 2 -55z m86 28 c-7 -3 -13 -11 -13 -19 0 -8 -4 -14 -9 -14
-6 0 -12 -15 -14 -32 -2 -21 -4 -12 -5 23 -2 56 -2 56 26 51 15 -3 21 -7 15
-9z m-293 -16 c0 -10 -78 -86 -83 -81 -3 3 11 23 31 44 33 33 52 47 52 37z
m1587 -46 c110 -112 107 -109 79 -104 -14 3 -26 9 -26 13 0 5 -9 12 -20 15
-11 3 -20 12 -20 20 0 7 -11 16 -24 19 -30 7 -57 76 -30 76 2 0 20 -17 41 -39z
m-82 -19 c4 -15 12 -30 18 -34 6 -4 8 -11 3 -15 -4 -4 -13 0 -20 10 -7 9 -17
17 -21 17 -10 0 -34 32 -35 46 0 7 10 9 24 7 16 -3 27 -14 31 -31z m-951 -12
c-6 -25 -3 -30 20 -36 28 -7 36 -24 11 -24 -8 0 -15 -9 -15 -20 0 -13 7 -20
20 -20 11 0 20 5 20 10 0 6 12 9 28 9 16 -1 20 -3 10 -6 -10 -2 -18 -13 -18
-24 0 -10 -4 -19 -10 -19 -5 0 -10 5 -10 10 0 6 -9 10 -20 10 -17 0 -20 -7
-20 -40 0 -29 4 -40 15 -40 13 0 15 -7 9 -35 -4 -23 -2 -35 5 -35 6 0 11 -13
11 -30 0 -24 4 -30 21 -30 21 0 21 3 14 95 -5 70 -4 95 5 95 8 0 10 -12 5 -40
-5 -28 -3 -40 5 -40 9 0 10 -13 6 -45 -5 -29 -3 -45 3 -45 6 0 14 -12 17 -27
4 -16 12 -31 18 -35 8 -5 7 -8 -1 -8 -7 0 -13 -10 -14 -22 0 -13 -3 -17 -6
-10 -3 7 -23 12 -49 12 -44 0 -44 0 -44 -35 0 -21 5 -35 13 -36 10 0 10 -2 0
-6 -8 -3 -13 -23 -13 -48 0 -31 -5 -45 -17 -49 -31 -12 -39 16 -31 106 5 45 5
164 2 264 -6 160 -2 224 11 224 3 0 2 -13 -1 -30z m-556 -12 c-2 -6 -10 -14
-16 -16 -7 -2 -10 2 -6 12 7 18 28 22 22 4z m442 -8 c0 -5 -4 -10 -10 -10 -5
0 -10 5 -10 10 0 6 5 10 10 10 6 0 10 -4 10 -10z m-230 -14 c0 -3 -4 -8 -10
-11 -5 -3 -10 -1 -10 4 0 6 5 11 10 11 6 0 10 -2 10 -4z m283 -43 c-7 -3 -13
-11 -13 -19 0 -8 -10 -14 -25 -14 -17 0 -25 5 -25 18 0 13 9 17 38 18 20 0 31
-1 25 -3z m275 -73 l0 -25 -8 25 c-4 14 -8 36 -8 50 l0 25 8 -25 c4 -14 8 -36
8 -50z m72 36 c0 -21 -6 -36 -15 -40 -9 -3 -15 0 -15 9 0 8 5 15 11 15 7 0 9
10 7 25 -3 14 -1 25 3 25 5 0 9 -15 9 -34z m-434 -81 c14 -13 13 -15 -10 -15
-14 0 -26 4 -26 9 0 5 -8 12 -17 14 -11 3 -7 5 10 6 16 0 35 -6 43 -14z m64 5
c0 -5 -7 -7 -15 -4 -8 4 -15 8 -15 10 0 2 7 4 15 4 8 0 15 -4 15 -10z m247
-37 c-3 -10 -5 -2 -5 17 0 19 2 27 5 18 2 -10 2 -26 0 -35z m-357 -24 c0 -11
7 -27 15 -35 18 -18 20 -44 4 -44 -8 0 -10 -18 -7 -55 3 -31 1 -58 -4 -61 -4
-3 -8 -14 -8 -25 0 -10 -5 -19 -11 -19 -7 0 -9 -10 -7 -25 3 -14 2 -25 -3 -25
-4 0 -10 -14 -14 -30 -4 -17 -13 -30 -21 -30 -24 0 -28 52 -10 135 10 44 22
105 27 135 14 84 19 100 29 100 6 0 10 -9 10 -21z m-450 -46 c0 -14 -19 -38
-25 -32 -8 8 5 39 16 39 5 0 9 -3 9 -7z m319 -115 c0 -16 -2 -18 -6 -8 -3 8
-11 18 -17 22 -7 5 -4 8 7 8 11 0 17 -7 16 -22z m188 -70 c-3 -8 -6 -5 -6 6
-1 11 2 17 5 13 3 -3 4 -12 1 -19z"/>
<path d="M3318 2463 c-20 -5 -25 -43 -5 -43 32 0 57 14 57 31 0 19 -14 22 -52
12z"/>
<path d="M3233 2443 c-15 -3 -23 -12 -23 -25 0 -18 4 -20 31 -14 17 3 35 6 40
6 5 0 9 9 9 20 0 20 -9 22 -57 13z"/>
<path d="M3150 2420 c0 -5 -13 -10 -29 -10 -43 0 -61 -10 -61 -32 0 -18 4 -19
43 -13 23 4 44 11 45 16 2 5 12 9 23 9 12 0 19 7 19 20 0 13 -7 20 -20 20 -11
0 -20 -4 -20 -10z"/>
<path d="M2920 2330 c0 -13 7 -20 20 -20 13 0 20 7 20 20 0 13 -7 20 -20 20
-13 0 -20 -7 -20 -20z"/>
<path d="M2620 2230 c0 -13 7 -20 20 -20 13 0 20 7 20 20 0 13 -7 20 -20 20
-13 0 -20 -7 -20 -20z"/>
<path d="M3190 2000 c0 -13 7 -20 20 -20 13 0 20 7 20 20 0 13 -7 20 -20 20
-13 0 -20 -7 -20 -20z"/>
<path d="M2970 1980 c0 -17 7 -20 40 -20 33 0 40 3 40 20 0 17 -7 20 -40 20
-33 0 -40 -3 -40 -20z"/>
<path d="M2880 1970 c0 -13 7 -20 20 -20 13 0 20 7 20 20 0 13 -7 20 -20 20
-13 0 -20 -7 -20 -20z"/>
<path d="M2780 1960 c0 -13 7 -20 20 -20 13 0 20 7 20 20 0 13 -7 20 -20 20
-13 0 -20 -7 -20 -20z"/>
<path d="M2690 1830 c-8 -5 -25 -10 -37 -10 -16 0 -23 -6 -23 -20 0 -14 7 -20
24 -20 42 0 86 21 86 41 0 21 -25 25 -50 9z"/>
<path d="M2505 1769 c-44 -16 -81 -34 -83 -39 -2 -6 -12 -10 -23 -10 -12 0
-19 -7 -19 -20 0 -13 7 -20 20 -20 11 0 20 5 20 10 0 6 5 10 11 10 6 0 51 15
100 33 65 23 89 37 89 50 0 24 -21 21 -115 -14z"/>
<path d="M3120 1300 c0 -13 7 -20 20 -20 13 0 20 7 20 20 0 13 -7 20 -20 20
-13 0 -20 -7 -20 -20z"/>
<path d="M3430 1210 c0 -13 7 -20 20 -20 13 0 20 7 20 20 0 13 -7 20 -20 20
-13 0 -20 -7 -20 -20z"/>
<path d="M1820 310 c0 -13 7 -20 20 -20 13 0 20 7 20 20 0 13 -7 20 -20 20
-13 0 -20 -7 -20 -20z"/>
</g>
</svg>
