<?xml version="1.0" standalone="no"?>
<!DOCTYPE svg PUBLIC "-//W3C//DTD SVG 20010904//EN"
 "http://www.w3.org/TR/2001/REC-SVG-20010904/DTD/svg10.dtd">
<svg version="1.0" xmlns="http://www.w3.org/2000/svg"
 width="704.000000pt" height="705.000000pt" viewBox="0 0 704.000000 705.000000"
 preserveAspectRatio="xMidYMid meet">
<metadata>
Created by potrace 1.13, written by Peter Selinger 2001-2015
</metadata>
<g transform="translate(0.000000,705.000000) scale(0.100000,-0.100000)"
fill="#000000" stroke="none">
<path d="M5572 4870 c-9 -3 -36 -5 -59 -5 -24 0 -43 -3 -43 -8 0 -5 -9 -5 -20
-2 -11 3 -20 2 -20 -3 0 -6 -15 -10 -32 -11 -43 -1 -58 -4 -86 -20 -13 -7 -30
-10 -38 -7 -8 3 -14 1 -14 -5 0 -6 -7 -9 -15 -5 -8 3 -15 1 -15 -4 0 -5 -11
-12 -25 -16 -14 -3 -25 -9 -25 -13 0 -4 -12 -8 -27 -9 -15 -1 -30 -8 -35 -15
-4 -6 -8 -8 -8 -3 0 6 -6 2 -13 -9 -8 -10 -19 -15 -25 -11 -7 4 -12 2 -12 -4
0 -7 -7 -10 -15 -6 -9 3 -23 -3 -33 -15 -18 -22 -80 -52 -92 -44 -4 2 -16 -3
-26 -13 -20 -17 -37 -24 -61 -25 -7 0 -13 -4 -13 -8 0 -4 -11 -10 -25 -13 -14
-4 -25 -11 -25 -16 0 -6 -6 -10 -14 -10 -8 0 -21 -6 -28 -13 -7 -7 -29 -20
-48 -29 -19 -10 -47 -28 -61 -42 -15 -14 -29 -22 -33 -19 -3 3 -8 -2 -12 -11
-3 -9 -11 -16 -18 -16 -6 0 -19 -8 -28 -17 -28 -30 -52 -48 -61 -45 -4 1 -10
-5 -13 -13 -4 -8 -10 -15 -15 -15 -5 0 -22 -13 -37 -30 -16 -16 -34 -30 -39
-30 -6 0 -23 -16 -38 -36 -15 -19 -32 -33 -38 -31 -12 4 -37 -16 -37 -28 0 -3
-30 -37 -67 -74 -38 -37 -82 -86 -100 -107 -17 -21 -41 -49 -52 -61 -12 -12
-21 -25 -21 -28 0 -3 -12 -17 -26 -30 -15 -14 -27 -35 -28 -47 -1 -13 -7 -23
-16 -23 -8 0 -19 -6 -23 -12 -4 -7 -15 -13 -22 -13 -8 0 -15 -7 -15 -15 0 -8
-5 -15 -11 -15 -5 0 -8 -4 -5 -8 3 -5 -10 -23 -29 -40 -19 -16 -35 -38 -35
-47 0 -9 -4 -14 -9 -11 -9 6 -41 -24 -38 -36 1 -3 -8 -18 -20 -32 -13 -15 -23
-28 -23 -31 0 -5 -49 -55 -54 -55 -2 0 -13 9 -26 20 -13 11 -18 20 -12 20 6 0
9 7 6 15 -4 8 -2 15 4 15 15 0 2 38 -15 44 -8 3 -11 10 -8 16 3 5 3 10 -2 10
-17 0 -78 63 -65 67 6 3 12 11 12 19 0 8 4 14 8 14 5 0 9 12 9 28 3 60 15 127
24 130 6 3 5 10 -2 18 -8 10 -8 14 0 14 6 0 10 3 10 8 -1 4 0 9 1 12 1 3 4 19
5 35 2 17 4 30 5 30 1 0 3 4 13 55 3 14 10 39 16 57 5 17 7 34 3 37 -3 3 1 6
8 6 7 0 10 3 7 7 -4 3 -2 11 3 18 5 6 11 20 13 31 1 11 13 38 27 59 13 22 24
43 24 47 1 4 9 16 18 27 9 11 14 22 11 25 -4 3 -1 6 6 6 8 0 11 11 10 28 -2
15 0 32 4 38 10 17 -15 33 -39 24 -12 -5 -26 -25 -34 -49 -7 -23 -18 -41 -23
-41 -6 0 -7 -3 -4 -7 4 -3 3 -11 -3 -17 -5 -7 -12 -27 -15 -46 -3 -19 -10 -37
-15 -40 -5 -3 -11 -15 -13 -25 -2 -11 -9 -30 -15 -43 -7 -12 -10 -27 -7 -32 3
-6 1 -10 -5 -10 -6 0 -8 -4 -5 -10 3 -5 1 -18 -5 -29 -7 -14 -7 -22 1 -26 7
-5 4 -14 -7 -26 -9 -10 -14 -19 -9 -19 4 0 2 -7 -5 -15 -7 -8 -9 -15 -5 -15 4
0 2 -7 -5 -15 -7 -9 -10 -18 -7 -22 4 -3 3 -11 -2 -17 -20 -26 -31 -79 -20
-92 9 -11 8 -14 0 -14 -7 0 -9 -4 -6 -10 3 -5 2 -10 -4 -10 -5 0 -9 -21 -8
-47 2 -42 -1 -48 -18 -48 -11 0 -26 -4 -33 -9 -8 -5 -18 -4 -24 2 -6 6 -17 8
-26 5 -10 -4 -13 -2 -8 5 4 7 2 12 -3 12 -6 0 -11 9 -11 20 0 11 -4 20 -8 20
-4 0 -14 16 -21 35 -12 33 -145 241 -173 268 -7 8 -24 29 -38 48 -14 19 -44
53 -67 77 -24 23 -40 42 -37 42 4 0 -19 25 -50 55 -52 50 -59 53 -82 43 -14
-7 -23 -17 -20 -25 3 -7 0 -13 -7 -13 -7 0 -3 -7 7 -15 11 -8 16 -15 11 -15
-10 0 47 -54 91 -85 15 -11 30 -19 34 -18 3 1 15 -10 25 -24 11 -14 34 -40 50
-58 17 -17 29 -39 27 -48 -2 -8 6 -18 17 -22 11 -3 20 -10 18 -15 -1 -4 8 -17
20 -27 13 -11 24 -30 26 -41 2 -12 13 -32 25 -45 12 -13 19 -26 16 -30 -4 -4
1 -9 10 -13 9 -3 16 -13 16 -21 0 -9 16 -37 36 -64 19 -27 33 -53 30 -57 -3
-5 4 -19 15 -30 16 -18 18 -26 9 -43 -10 -17 -8 -25 12 -46 l23 -26 -23 14
c-16 10 -25 11 -30 3 -4 -6 -15 -13 -24 -17 -20 -7 -23 -33 -9 -70 14 -35 3
-64 -25 -70 -13 -2 -24 -1 -24 3 0 14 -54 70 -67 70 -7 0 -13 4 -13 10 0 5
-11 12 -25 16 -14 3 -35 19 -46 35 -11 16 -24 27 -29 24 -5 -3 -18 7 -30 22
-11 15 -34 35 -50 44 -26 16 -65 47 -94 75 -6 6 -15 11 -19 11 -5 0 -25 14
-45 29 -19 16 -39 29 -43 29 -5 0 -17 8 -28 17 -11 9 -21 14 -24 12 -2 -2 -12
5 -22 16 -10 11 -24 20 -32 20 -7 0 -27 12 -44 28 -17 15 -34 27 -37 28 -4 0
-25 11 -47 25 -22 13 -43 23 -47 22 -4 -2 -16 11 -28 27 -11 16 -27 27 -34 24
-7 -3 -27 7 -44 21 -17 15 -39 25 -49 23 -19 -3 -84 20 -93 33 -3 4 -18 10
-34 13 -16 3 -32 9 -35 13 -3 4 -15 10 -26 11 -11 2 -23 8 -26 14 -3 5 -9 9
-13 9 -3 -1 -7 -1 -8 0 -2 0 -12 2 -23 4 -11 2 -21 9 -23 15 -2 5 -7 8 -12 5
-5 -3 -19 -1 -32 4 -63 25 -72 28 -97 30 -11 0 -27 8 -36 17 -9 10 -30 17 -46
18 -16 1 -29 3 -29 6 0 3 -10 6 -22 7 -12 1 -34 7 -50 14 -15 6 -34 9 -43 5
-8 -3 -15 -2 -15 3 0 5 -10 7 -23 7 -12 -1 -33 2 -47 7 -14 5 -65 11 -115 13
-49 3 -115 6 -145 8 -30 2 -61 -1 -67 -7 -9 -6 -13 -6 -13 2 0 7 -5 9 -11 5
-7 -4 -36 -7 -65 -6 -30 0 -54 -3 -54 -7 0 -3 -10 -7 -22 -8 -24 -2 -69 -10
-78 -13 -3 -1 -9 -3 -15 -4 -34 -7 -130 -50 -138 -63 -4 -7 -14 -13 -21 -13
-15 0 -29 -27 -21 -40 3 -4 -2 -11 -11 -14 -11 -4 -14 -13 -10 -30 3 -14 2
-26 -3 -28 -13 -4 -22 -86 -11 -93 5 -3 7 -12 3 -20 -3 -8 0 -15 5 -15 6 0 9
-10 7 -22 -3 -12 3 -28 13 -37 10 -9 33 -47 51 -84 34 -69 96 -141 112 -131 5
3 6 -1 3 -9 -3 -9 7 -23 25 -37 17 -12 31 -28 31 -36 0 -8 4 -14 9 -14 4 0 25
-16 45 -35 21 -19 42 -35 48 -35 6 0 8 -3 5 -7 -4 -4 6 -20 22 -37 62 -64 118
-126 115 -126 -13 0 29 -59 55 -79 17 -13 28 -28 25 -32 -3 -5 -1 -9 5 -9 10
0 75 -85 77 -101 1 -5 3 -12 4 -16 1 -5 2 -11 1 -15 0 -5 4 -8 9 -8 6 0 8 -10
4 -24 -6 -24 21 -86 38 -86 4 0 8 -7 8 -15 0 -8 4 -15 10 -15 5 0 9 -3 8 -7
-1 -5 4 -21 10 -36 7 -16 12 -35 12 -43 0 -9 12 -40 26 -70 14 -30 27 -60 28
-67 1 -7 8 -23 16 -37 8 -14 13 -29 12 -33 -3 -9 13 -29 52 -65 16 -15 35 -33
42 -39 7 -7 18 -13 25 -13 7 0 22 -9 33 -20 29 -26 96 -54 96 -39 0 8 4 8 13
1 6 -6 26 -12 42 -14 39 -4 42 -32 7 -67 -11 -12 -11 -16 3 -30 14 -14 17 -14
25 -1 16 26 11 6 -9 -33 -17 -34 -20 -36 -26 -17 -7 22 -13 24 -34 11 -7 -5
-11 -13 -7 -19 3 -6 -1 -18 -10 -26 -14 -15 -14 -17 0 -22 23 -9 20 -23 -4
-17 -16 4 -20 0 -22 -23 -3 -54 2 -99 12 -102 6 -2 8 -8 4 -13 -3 -5 -1 -9 4
-9 15 0 66 -92 66 -117 -1 -13 3 -23 8 -23 5 0 6 -5 3 -10 -6 -9 16 -40 29
-40 10 0 58 -53 60 -67 1 -7 10 -19 19 -25 9 -7 19 -30 21 -50 6 -50 11 -56
48 -57 55 -1 68 -4 68 -13 0 -5 4 -7 9 -4 11 7 44 -41 36 -53 -3 -5 0 -11 7
-13 7 -3 12 -21 12 -41 0 -45 27 -62 85 -54 23 3 41 1 41 -4 0 -5 4 -8 8 -6 5
1 32 -13 60 -31 l51 -33 -5 -77 c-5 -94 -9 -126 -17 -139 -7 -11 -18 -117 -17
-161 0 -26 21 -52 43 -52 17 0 50 35 54 58 5 26 16 124 17 150 1 12 3 22 6 22
3 0 6 8 7 18 3 42 8 62 15 62 4 0 5 7 2 15 -4 8 -1 15 5 15 6 0 11 6 11 13 0
6 14 20 30 29 18 10 30 13 30 6 0 -7 5 -7 14 1 8 7 15 8 18 2 1 -5 10 -11 18
-13 8 -2 23 -11 34 -20 16 -15 41 -17 66 -8 3 2 10 1 15 0 6 -1 19 -4 29 -6
23 -4 43 -23 48 -43 2 -8 16 -28 33 -45 27 -27 29 -35 28 -95 -3 -104 -5 -121
-15 -121 -7 0 -6 -5 1 -13 6 -8 8 -17 4 -20 -7 -8 -16 -59 -17 -104 -1 -18 -4
-33 -8 -33 -3 0 -5 -11 -3 -25 1 -14 -1 -25 -6 -25 -13 0 13 -64 34 -83 25
-22 33 -21 57 1 21 19 34 86 35 175 0 26 2 47 5 47 3 0 5 19 6 43 2 89 13 179
25 193 6 8 8 14 4 14 -5 0 0 9 10 20 10 11 15 20 11 20 -4 0 0 7 8 15 9 9 19
21 23 28 8 12 45 34 133 79 25 13 51 31 58 41 7 9 18 15 23 12 5 -4 9 -2 9 4
0 5 16 26 35 47 19 20 33 40 30 44 -3 4 2 13 9 20 8 6 18 25 21 41 4 16 10 29
13 29 6 0 10 19 15 73 1 9 4 17 8 17 4 0 6 11 4 25 -1 14 1 27 5 30 3 2 6 20
5 40 0 19 3 35 8 35 4 0 5 5 1 12 -7 11 -7 55 0 146 1 17 -2 32 -7 32 -4 0 -5
5 -1 12 8 12 7 55 -1 117 -4 37 -4 37 25 11 20 -17 25 -18 43 -5 29 21 32 19
34 -18 3 -31 9 -69 13 -74 2 -2 3 -6 4 -10 1 -5 5 -14 9 -20 5 -7 6 -17 3 -22
-3 -5 1 -23 10 -40 15 -30 24 -71 25 -115 0 -11 9 -32 20 -48 11 -15 17 -28
13 -28 -3 0 -1 -7 6 -15 7 -8 9 -15 4 -15 -4 0 1 -7 12 -15 10 -8 14 -15 7
-15 -10 0 20 -54 62 -109 27 -36 92 -92 113 -98 12 -3 22 -10 22 -16 0 -6 3
-7 7 -4 3 4 12 2 19 -3 11 -10 37 -18 79 -25 11 -2 22 -4 25 -5 3 -1 8 -2 13
-1 4 0 7 -2 7 -7 0 -4 15 -8 33 -8 19 -1 47 -8 63 -17 16 -8 43 -23 60 -31 26
-14 67 -79 69 -108 0 -4 8 -17 18 -28 10 -12 15 -25 12 -30 -4 -6 -1 -10 4
-10 6 0 11 -11 11 -24 0 -14 5 -28 10 -31 6 -4 8 -11 5 -16 -4 -5 -1 -9 4 -9
6 0 11 -7 11 -15 0 -8 5 -15 10 -15 6 0 10 -11 10 -25 0 -14 7 -28 15 -31 8
-4 13 -9 10 -13 -2 -4 2 -19 10 -34 8 -15 12 -27 9 -27 -3 0 1 -6 8 -14 7 -8
16 -12 20 -10 4 2 9 0 13 -6 9 -14 34 -12 50 4 18 17 27 64 14 72 -5 3 -7 9
-5 13 3 4 -4 18 -15 29 -11 12 -17 22 -14 22 3 0 -5 17 -18 37 -37 62 -45 76
-69 123 -13 25 -25 47 -28 50 -3 3 -7 14 -8 25 -2 11 -9 26 -14 33 -6 7 -12
36 -13 65 -3 44 1 57 24 84 19 23 37 33 61 35 19 1 40 9 47 18 9 11 12 12 13
2 0 -16 70 53 70 69 0 8 5 7 15 -1 10 -8 15 -9 15 -2 0 8 9 8 30 1 17 -6 30
-15 30 -21 0 -5 4 -6 10 -3 5 3 16 -7 22 -22 7 -15 18 -34 25 -41 13 -13 17
-28 14 -46 -1 -4 3 -14 9 -22 17 -20 50 -86 50 -100 0 -7 7 -15 16 -18 8 -3
13 -10 10 -15 -6 -9 15 -21 47 -27 10 -2 17 2 17 11 0 8 4 15 9 15 21 0 20 36
-4 77 -14 25 -25 52 -25 59 0 8 -5 14 -11 14 -5 0 -8 4 -5 9 3 5 -1 12 -10 15
-8 3 -12 10 -9 16 3 5 2 10 -3 10 -8 0 -14 12 -20 43 -1 4 -16 32 -33 62 -17
30 -26 55 -20 55 15 0 10 22 -9 37 -13 11 -13 12 1 7 16 -5 33 10 34 29 0 13
57 45 71 40 8 -3 14 0 14 6 0 7 6 11 13 10 25 -3 43 2 64 20 20 17 21 22 11
52 -9 25 -8 34 0 37 7 2 12 14 12 26 0 30 27 53 70 61 47 8 80 31 80 55 0 11
-3 20 -7 20 -5 0 -8 24 -8 53 0 52 19 97 42 97 6 0 21 13 32 29 18 24 19 30 6
35 -18 7 -20 46 -2 46 8 0 8 3 2 8 -12 8 -12 14 -1 60 4 17 11 32 15 32 4 0
18 8 29 19 28 24 28 58 1 66 -15 5 -19 13 -16 27 3 11 -2 27 -14 39 -10 10
-16 19 -12 19 4 0 -30 35 -75 78 -72 69 -102 106 -73 87 6 -3 13 1 18 8 11 19
51 39 63 32 6 -3 10 -1 10 4 0 6 7 11 15 11 8 0 15 4 15 10 0 5 13 16 28 24
30 15 142 145 142 164 0 6 7 15 16 20 9 5 17 21 17 36 0 14 3 26 6 26 4 0 7
31 7 70 -1 38 -4 70 -7 70 -3 0 -4 12 -3 28 2 15 6 56 9 90 3 35 8 69 12 74 3
6 8 32 10 57 2 25 8 48 14 49 5 2 7 8 3 13 -3 5 0 9 7 9 9 0 9 3 0 14 -8 10
-9 16 -1 21 6 3 8 11 4 16 -5 8 29 75 46 89 11 10 39 93 34 101 -3 5 0 9 6 9
7 0 10 6 7 14 -3 8 1 17 9 20 9 3 13 10 10 15 -3 5 1 14 9 21 8 7 13 16 10 20
-3 5 -1 11 5 15 6 4 8 10 5 15 -3 5 4 12 16 15 11 4 18 12 16 19 -3 7 3 19 13
26 10 7 16 19 13 27 -3 7 -1 13 4 13 5 0 10 10 10 22 1 13 7 24 13 26 5 2 10
10 10 18 0 8 5 14 11 14 6 0 9 5 7 12 -2 6 8 25 23 41 16 17 27 33 27 36 -1 3
9 24 23 46 13 22 23 43 21 48 -1 4 2 7 8 7 6 0 10 7 10 15 0 8 5 15 10 15 6 0
9 3 8 8 -4 16 14 72 24 72 7 0 6 5 -1 14 -8 9 -8 15 -2 18 17 5 34 145 19 154
-5 3 -6 9 -4 13 3 4 -7 31 -22 61 -25 49 -58 78 -102 88 -51 12 -203 20 -228
12z m-2056 -1353 c4 -4 -7 -10 -24 -13 -18 -4 -32 -11 -32 -16 0 -6 -7 -5 -15
2 -12 10 -15 10 -15 -1 0 -10 -3 -10 -11 -2 -6 6 -19 9 -28 7 -9 -2 2 4 23 14
39 18 89 22 102 9z m894 -539 c0 -4 3 -7 8 -7 4 1 9 1 12 -1 3 -1 15 -3 27 -6
43 -8 48 -9 53 -15 3 -3 37 -17 75 -30 39 -12 62 -25 53 -27 -10 -2 -18 -8
-18 -13 0 -5 -7 -9 -15 -9 -8 0 -36 -20 -61 -45 -45 -43 -64 -49 -64 -21 0 18
-70 71 -92 69 -34 -2 -38 -3 -38 -13 0 -5 10 -19 23 -31 l22 -23 -27 17 c-24
15 -28 15 -28 2 0 -8 -5 -15 -11 -15 -5 0 -7 -5 -3 -12 4 -7 3 -8 -5 -4 -7 5
-9 12 -3 19 4 7 8 19 7 27 -1 8 6 26 16 40 20 30 30 80 16 80 -5 0 -4 6 2 14
13 15 51 18 51 4z m-588 -220 c-7 -7 -12 -8 -12 -2 0 6 3 14 7 17 3 4 9 5 12
2 2 -3 -1 -11 -7 -17z m-1076 -26 c-3 -2 3 -17 14 -31 12 -18 16 -32 10 -41
-5 -9 -5 -20 2 -27 16 -19 3 -27 -22 -13 -26 14 -50 7 -50 -15 0 -8 -5 -15
-11 -15 -8 0 -7 -6 2 -17 12 -15 12 -16 -1 -8 -8 4 -23 15 -33 24 -15 13 -21
13 -39 2 -13 -8 -23 -9 -27 -3 -3 6 -18 14 -34 17 -15 4 -24 11 -21 16 3 5 10
7 15 4 5 -4 9 1 9 9 0 9 7 16 17 16 9 0 31 11 49 25 18 14 35 25 39 25 3 0 18
11 32 24 14 13 32 22 40 19 8 -3 12 -8 9 -11z m579 -71 c6 -1 3 -6 -5 -11 -13
-9 -13 -11 0 -20 12 -8 13 -10 1 -10 -8 0 -11 -3 -8 -7 4 -3 2 -12 -4 -19 -6
-7 -12 -37 -14 -66 -4 -68 -4 -66 -18 -43 -13 23 -16 75 -4 75 5 0 5 5 1 11
-3 6 0 15 7 20 8 5 9 9 3 9 -6 0 -11 11 -11 25 0 14 4 25 9 25 5 0 7 4 4 9 -4
5 2 8 11 6 10 -2 23 -4 28 -4z m117 -193 c-13 -13 -26 8 -17 30 6 16 7 16 17
-1 7 -13 7 -22 0 -29z m-1292 -540 c0 -5 -11 -1 -25 8 -14 9 -25 18 -25 20 0
2 11 -2 25 -8 14 -6 25 -15 25 -20z m2780 11 c0 -5 -7 -9 -16 -9 -9 0 -34 -14
-55 -31 -22 -17 -38 -26 -37 -18 3 14 40 54 50 54 3 0 9 2 12 5 9 10 46 9 46
-1z m-2615 -69 c3 -5 1 -10 -4 -10 -6 0 -11 5 -11 10 0 6 2 10 4 10 3 0 8 -4
11 -10z m719 -466 c3 -7 -3 -10 -15 -7 -10 3 -16 9 -13 14 3 5 -2 12 -10 15
-9 3 -16 10 -16 16 0 11 47 -22 54 -38z"/>
</g>
</svg>
