<?xml version="1.0" standalone="no"?>
<!DOCTYPE svg PUBLIC "-//W3C//DTD SVG 20010904//EN"
 "http://www.w3.org/TR/2001/REC-SVG-20010904/DTD/svg10.dtd">
<svg version="1.0" xmlns="http://www.w3.org/2000/svg"
 width="277.000000pt" height="255.000000pt" viewBox="0 0 277.000000 255.000000"
 preserveAspectRatio="xMidYMid meet">
<metadata>
Created by potrace 1.13, written by Peter Selinger 2001-2015
</metadata>
<g transform="translate(0.000000,255.000000) scale(0.100000,-0.100000)"
fill="#000000" stroke="none">
<path d="M301 2504 c-17 -14 -31 -33 -31 -43 0 -9 -4 -21 -9 -26 -18 -21 -29
-122 -21 -206 11 -119 4 -303 -15 -372 -9 -35 -15 -100 -15 -164 0 -94 3 -111
22 -139 13 -18 32 -37 43 -43 19 -9 18 -10 -5 -10 -14 -1 -45 -11 -68 -23 -45
-24 -132 -96 -132 -109 0 -5 -15 -41 -34 -81 -30 -65 -34 -83 -35 -160 -1 -48
3 -95 8 -105 18 -31 41 -95 41 -112 0 -15 43 -114 75 -171 7 -14 22 -29 31
-35 10 -5 24 -16 32 -23 7 -6 17 -12 22 -12 5 0 26 -16 46 -36 38 -39 77 -54
161 -61 62 -6 87 4 268 108 l131 75 -28 -51 c-30 -57 -52 -138 -43 -166 5 -14
16 -19 41 -19 29 0 45 10 101 64 l65 64 -5 -41 c-16 -120 -29 -327 -23 -360 8
-41 85 -133 133 -157 16 -8 46 -26 68 -41 43 -28 117 -43 205 -41 30 0 89 1
130 1 44 1 87 7 105 15 17 8 56 26 88 40 31 14 57 29 57 34 0 5 22 32 49 60
56 58 86 138 80 214 l-4 44 28 -14 c16 -8 45 -12 70 -10 47 5 135 37 155 56 7
6 19 12 25 12 7 0 24 11 39 25 15 14 33 25 41 25 8 0 22 9 32 20 10 11 24 20
31 20 7 0 25 10 41 23 15 13 64 33 108 46 190 55 238 73 286 108 27 21 49 43
49 49 0 6 7 17 15 24 19 16 19 73 0 110 -25 48 -136 119 -253 162 -263 95
-395 122 -684 137 -185 10 -391 2 -481 -19 -42 -9 -63 -6 -33 6 9 3 16 17 16
33 0 14 4 31 8 37 14 21 365 194 393 194 25 0 29 4 29 26 0 26 -1 26 -55 22
-30 -3 -63 -12 -72 -21 -25 -22 -310 -167 -329 -167 -13 0 -15 8 -10 38 3 20
8 66 11 102 3 36 11 103 17 150 8 64 7 100 -2 143 -10 50 -14 57 -36 57 -27 0
-30 -16 -12 -67 9 -26 9 -66 -1 -185 -15 -189 -26 -238 -53 -238 -11 0 -22 -9
-25 -20 -7 -25 -23 -26 -23 -2 0 27 -48 208 -76 286 -40 111 -163 372 -226
480 -121 205 -290 396 -392 444 -64 31 -126 29 -165 -4z"/>
</g>
</svg>
