<?xml version="1.0" standalone="no"?>
<!DOCTYPE svg PUBLIC "-//W3C//DTD SVG 20010904//EN"
 "http://www.w3.org/TR/2001/REC-SVG-20010904/DTD/svg10.dtd">
<svg version="1.0" xmlns="http://www.w3.org/2000/svg"
 width="680.000000pt" height="675.000000pt" viewBox="0 0 680.000000 675.000000"
 preserveAspectRatio="xMidYMid meet">
<metadata>
Created by potrace 1.13, written by Peter Selinger 2001-2015
</metadata>
<g transform="translate(0.000000,675.000000) scale(0.100000,-0.100000)"
fill="#000000" stroke="none">
<path d="M2986 6585 c-14 -7 -27 -11 -30 -7 -3 3 -6 0 -6 -6 0 -7 -6 -12 -13
-12 -7 0 -30 -15 -50 -34 -20 -18 -37 -31 -37 -28 0 15 -70 -70 -76 -92 -3
-14 -9 -26 -13 -26 -8 0 -51 -82 -48 -91 1 -4 -5 -15 -14 -25 -17 -21 -30 -48
-36 -79 -5 -28 -31 -65 -75 -107 -21 -21 -38 -40 -38 -44 0 -3 -10 -18 -22
-33 -13 -15 -32 -40 -43 -56 -11 -15 -27 -34 -35 -42 -77 -69 -136 -133 -124
-133 4 0 2 -6 -4 -12 -6 -7 -10 -17 -10 -23 1 -5 -11 -16 -26 -23 -14 -7 -38
-29 -54 -48 -15 -20 -35 -45 -44 -56 -10 -12 -18 -27 -18 -35 0 -7 -5 -13 -11
-13 -6 0 -9 -7 -5 -15 3 -8 1 -15 -5 -15 -6 0 -9 -7 -5 -15 3 -8 1 -15 -5 -15
-6 0 -7 -4 -4 -10 3 -5 1 -10 -4 -10 -6 0 -11 -5 -11 -11 0 -6 -15 -34 -32
-61 -18 -28 -33 -53 -34 -57 0 -3 -8 -24 -18 -46 -10 -22 -21 -65 -23 -95 -3
-30 -6 -64 -7 -75 -1 -11 2 -26 7 -32 5 -7 7 -13 4 -13 -3 0 1 -23 9 -52 7
-29 12 -54 10 -55 -2 -2 -16 1 -32 8 -60 23 -156 28 -178 10 -7 -6 -16 -8 -19
-4 -4 3 -7 2 -7 -4 0 -9 -45 -24 -66 -22 -3 0 -12 -8 -20 -18 -7 -10 -14 -14
-14 -9 0 5 -7 3 -14 -4 -8 -6 -40 -13 -71 -15 -65 -5 -128 -37 -162 -84 -13
-16 -23 -33 -23 -36 0 -11 -45 -55 -57 -55 -7 0 -13 -5 -13 -11 0 -5 -4 -8 -9
-4 -11 6 -87 -31 -112 -55 -20 -18 -43 -86 -34 -100 3 -5 2 -10 -4 -10 -6 0
-8 -6 -5 -14 6 -15 -43 -66 -63 -66 -7 0 -13 -5 -13 -11 0 -5 -4 -8 -9 -5 -10
6 -55 -36 -57 -53 -1 -6 -2 -12 -3 -13 -9 -11 -9 -48 0 -48 5 0 7 -4 4 -10 -3
-5 5 -21 19 -35 14 -14 30 -34 36 -45 13 -24 13 -60 -1 -60 -5 0 -7 -5 -4 -10
3 -6 -2 -13 -12 -17 -27 -10 -53 -46 -49 -65 2 -9 -1 -19 -8 -22 -8 -3 -7 -5
1 -5 7 -1 10 -7 7 -15 -3 -8 4 -24 15 -35 12 -12 18 -21 14 -21 -5 0 0 -6 9
-14 40 -30 44 -103 7 -142 -10 -11 -16 -24 -12 -27 3 -4 2 -7 -4 -7 -8 0 -10
-32 -3 -50 1 -3 2 -8 1 -12 0 -3 14 -21 32 -40 36 -35 53 -68 36 -68 -6 0 -7
-4 -4 -10 3 -5 2 -10 -2 -10 -5 0 -8 -16 -9 -35 0 -19 4 -35 9 -35 5 0 7 -6 4
-14 -10 -24 128 -118 146 -100 3 3 11 -5 18 -17 14 -27 56 -62 77 -66 8 -1 19
-8 23 -15 5 -7 9 -9 9 -4 0 5 6 4 13 -1 6 -6 26 -9 42 -7 54 5 120 15 140 21
11 4 27 8 35 9 8 1 26 5 39 8 14 3 37 -1 53 -8 15 -8 28 -10 28 -6 0 14 62 28
80 19 9 -4 23 -3 33 2 12 7 17 6 17 -3 0 -9 3 -9 12 0 7 7 17 8 29 2 11 -7 20
-7 24 0 3 5 12 7 20 3 8 -3 15 0 15 7 0 10 3 10 15 0 12 -10 15 -10 15 4 0 14
11 21 33 17 4 0 7 3 7 9 0 6 10 6 27 -1 14 -5 29 -6 32 -1 3 5 15 12 26 16 14
5 9 -3 -13 -24 -18 -16 -37 -30 -41 -30 -5 0 -17 -12 -27 -27 -9 -15 -26 -35
-37 -43 -19 -16 -18 -17 19 -46 33 -26 58 -41 84 -49 3 -1 27 -5 54 -10 29 -4
43 -11 35 -15 -6 -5 -23 -6 -36 -4 -16 3 -23 0 -23 -11 0 -13 -25 -21 -52 -16
-5 0 -8 -4 -8 -9 0 -6 -13 -8 -30 -5 -17 3 -30 1 -30 -5 0 -5 -7 -7 -15 -4 -8
4 -17 -1 -21 -9 -3 -9 -12 -13 -20 -10 -8 3 -14 0 -14 -7 0 -8 -8 -10 -22 -7
-13 3 -32 -1 -42 -9 -11 -8 -26 -14 -33 -14 -7 0 -25 -12 -40 -27 -28 -28 -35
-31 -83 -39 -54 -8 -100 -25 -100 -35 0 -5 -3 -8 -7 -7 -18 4 -62 -15 -67 -29
-3 -8 -10 -11 -16 -8 -5 3 -10 2 -10 -4 0 -5 -16 -26 -35 -45 -19 -20 -35 -41
-35 -46 0 -6 -4 -10 -10 -10 -5 0 -7 -7 -4 -15 4 -8 1 -15 -7 -15 -7 0 -9 -3
-6 -7 4 -3 -2 -16 -12 -27 -11 -12 -22 -32 -24 -46 -3 -14 -11 -38 -17 -55
-15 -36 -19 -65 -9 -65 3 0 9 -10 12 -22 8 -38 31 -93 42 -100 7 -5 7 -8 0 -8
-11 0 -12 -73 -1 -116 7 -27 21 -42 80 -89 26 -21 29 -28 30 -96 3 -97 10
-116 54 -138 20 -10 39 -18 42 -17 9 2 38 -29 34 -36 -2 -4 0 -9 5 -12 10 -7
4 -62 -10 -88 -7 -12 -6 -18 1 -18 6 0 15 -12 21 -27 15 -40 47 -58 109 -61
78 -3 76 -3 96 -31 11 -14 35 -41 54 -61 30 -30 41 -35 80 -34 25 1 63 5 85 9
53 9 77 8 84 -3 3 -5 16 -12 29 -16 12 -4 22 -11 22 -15 0 -4 6 -8 13 -9 63
-8 108 -7 139 4 20 7 39 10 42 7 3 -4 6 -2 6 4 0 5 21 11 46 11 99 4 244 49
244 76 0 5 3 7 6 3 3 -3 22 10 41 28 36 34 57 38 46 10 -3 -8 0 -15 6 -15 6 0
10 -3 9 -7 -4 -14 26 -103 34 -103 4 0 8 -7 8 -15 0 -8 5 -15 10 -15 6 0 10
-7 10 -15 0 -8 5 -15 10 -15 6 0 10 -6 10 -14 0 -7 10 -21 23 -29 12 -8 40
-31 62 -51 22 -20 45 -36 50 -36 6 0 30 -18 55 -40 24 -21 46 -37 48 -35 2 2
26 -10 53 -26 26 -17 60 -32 75 -35 15 -3 43 -12 63 -20 20 -8 38 -15 41 -15
3 0 14 -8 25 -17 30 -26 76 -49 113 -57 17 -3 32 -11 32 -16 0 -5 6 -9 13 -9
14 -1 67 -26 122 -60 21 -13 46 -25 54 -27 9 -1 17 -7 19 -12 2 -6 14 -11 27
-11 13 0 27 -5 30 -10 4 -6 11 -8 16 -5 5 4 9 2 9 -3 0 -5 12 -15 28 -21 25
-11 68 -44 132 -103 13 -13 24 -22 25 -20 0 4 29 -6 80 -28 89 -39 114 -48
119 -42 3 3 6 1 6 -4 0 -5 11 -11 26 -12 14 -1 33 -6 43 -12 10 -5 21 -7 24
-4 3 3 27 7 54 9 26 2 61 6 77 8 30 5 90 62 101 97 3 11 10 20 15 20 7 0 27
45 35 80 1 3 7 18 13 33 7 16 12 34 12 41 0 6 5 17 12 24 7 7 8 12 4 12 -5 0
-3 7 4 15 7 8 10 22 6 30 -3 8 -2 15 2 15 4 0 8 72 8 160 0 88 -2 160 -5 160
-3 0 -7 21 -9 48 -3 55 -6 73 -13 87 -3 6 -5 25 -4 43 0 17 -2 32 -6 32 -7 0
-15 31 -33 125 -2 11 -4 20 -6 20 -1 0 -3 9 -5 20 -5 26 -13 60 -15 60 -2 0
-9 35 -14 68 -2 16 -8 33 -14 39 -6 6 -8 17 -5 24 3 8 0 14 -7 14 -6 0 -8 5
-5 10 3 6 1 10 -5 10 -6 0 -8 5 -5 10 4 6 -1 22 -9 35 -9 14 -14 25 -10 25 4
0 2 6 -3 13 -6 6 -9 20 -8 30 2 9 -1 17 -6 17 -5 0 -9 7 -9 15 0 8 -5 15 -11
15 -6 0 -9 6 -6 14 3 8 -1 17 -9 20 -9 3 -12 10 -9 16 3 5 1 10 -6 10 -7 0
-10 3 -6 6 3 4 -4 25 -15 48 -12 22 -21 44 -20 49 1 4 -3 7 -9 7 -5 0 -7 5 -4
10 3 6 1 10 -4 10 -6 0 -11 5 -11 11 0 6 -10 25 -22 42 -13 18 -22 34 -21 37
2 9 -31 60 -40 60 -4 0 -6 4 -2 9 3 6 -3 14 -12 20 -10 6 -15 11 -10 11 4 0 1
10 -8 23 -8 13 -12 27 -8 30 3 4 1 7 -5 7 -6 0 -18 12 -26 28 -18 35 -145 214
-161 227 -7 6 -12 13 -11 16 1 9 -45 69 -71 93 -13 11 -23 26 -23 33 0 7 -4
13 -9 13 -11 0 -26 14 -61 59 -14 18 -49 56 -77 85 -29 30 -53 58 -53 65 0 6
-4 11 -8 11 -9 0 -23 11 -86 67 -15 14 -49 39 -75 56 -69 47 -77 56 -60 72 18
17 59 22 79 10 19 -12 70 -15 70 -4 0 5 6 9 13 9 13 0 43 40 39 53 -1 4 7 2
18 -5 11 -7 20 -16 20 -20 0 -5 5 -8 10 -8 6 0 43 -15 83 -34 39 -18 83 -38
97 -45 14 -6 40 -20 58 -31 18 -11 33 -19 35 -18 7 3 47 -15 47 -22 0 -4 11
-11 25 -14 14 -4 25 -11 25 -17 0 -6 4 -8 9 -5 5 4 23 -6 40 -20 17 -14 31
-23 31 -19 0 4 17 -8 38 -26 20 -18 35 -33 33 -33 -3 -1 9 -15 25 -31 37 -39
79 -89 76 -92 -6 -8 56 -143 65 -143 17 0 35 18 29 29 -4 6 -3 11 1 11 5 0 9
9 9 20 0 11 -4 20 -9 20 -4 0 -5 5 -2 10 3 6 3 10 -2 10 -4 0 -14 13 -21 28
-6 16 -21 38 -32 50 -12 12 -18 22 -15 22 8 0 -113 117 -160 155 -21 16 -49
35 -64 43 -14 7 -29 19 -33 25 -4 7 -8 8 -8 3 0 -5 -7 -3 -15 4 -8 7 -15 9
-15 5 0 -5 -9 0 -20 10 -12 11 -28 20 -37 21 -9 2 -19 7 -22 13 -4 6 -16 12
-28 14 -12 1 -27 8 -35 13 -17 14 -92 48 -97 45 -2 -2 -7 1 -10 6 -8 11 -104
57 -113 55 -14 -3 -8 18 5 24 21 7 16 88 -6 112 -15 16 -16 24 -7 41 6 12 15
21 19 21 5 0 11 11 15 23 3 13 16 35 29 48 12 13 33 45 45 72 13 26 28 47 34
47 5 0 8 7 4 15 -3 8 -1 15 4 15 5 0 12 10 16 22 3 12 15 30 25 41 10 11 16
23 14 27 -3 4 2 13 10 20 8 7 15 19 15 27 0 7 6 16 14 19 8 3 12 12 9 20 -3 8
-1 14 4 14 6 0 16 18 23 40 7 22 17 40 23 40 5 0 7 7 3 15 -3 8 -1 15 5 15 6
0 9 7 5 15 -3 8 -2 15 2 15 10 0 33 61 26 71 -3 5 -1 9 3 9 10 0 12 17 14 117
1 42 -3 78 -10 86 -6 8 -8 16 -5 20 3 3 -4 8 -15 12 -12 3 -21 12 -21 18 0 7
-9 1 -20 -13 -13 -18 -16 -28 -8 -37 6 -7 7 -13 4 -13 -4 0 -1 -9 7 -20 8 -12
12 -39 11 -68 -3 -47 -6 -66 -20 -129 -4 -16 -7 -34 -7 -40 0 -7 -5 -13 -10
-13 -5 0 -7 -7 -3 -15 3 -8 1 -15 -4 -15 -6 0 -9 -3 -8 -7 3 -11 -81 -181 -93
-189 -11 -7 -33 -55 -31 -66 1 -5 -2 -8 -8 -8 -5 0 -10 -6 -10 -14 0 -8 -7
-16 -15 -20 -8 -3 -14 -9 -13 -13 4 -14 -35 -85 -49 -90 -7 -3 -11 -9 -8 -14
3 -4 -1 -16 -10 -26 -8 -10 -16 -22 -17 -28 -1 -5 -12 -21 -25 -35 -13 -14
-23 -30 -23 -37 0 -8 -14 -3 -35 11 -42 29 -68 25 -109 -16 -33 -31 -44 -33
-79 -17 -17 8 -23 17 -20 30 3 10 9 19 14 19 5 0 6 7 3 15 -4 8 -1 15 5 15 6
0 10 3 9 8 -1 4 3 17 10 30 7 12 10 27 7 32 -3 6 -2 10 2 10 13 0 40 69 46
115 1 11 6 23 10 26 4 3 9 16 10 27 1 12 5 22 10 22 5 0 7 7 3 15 -3 8 -2 15
3 15 4 0 8 6 8 13 0 6 3 23 6 37 3 14 8 35 11 48 3 12 8 26 11 32 3 5 8 22 10
37 2 16 6 44 10 63 13 68 27 208 29 272 1 27 3 48 6 48 3 0 6 28 8 63 5 114 7
127 16 127 6 0 5 5 -2 12 -6 6 -8 18 -3 27 6 13 8 416 2 416 -1 0 -4 29 -7 65
-4 64 -11 125 -14 125 -1 0 -3 16 -5 35 -4 33 -6 47 -21 118 -3 15 -7 36 -9
47 -2 11 -4 21 -5 23 -2 1 -3 5 -5 10 -1 4 -5 14 -9 23 -4 9 -6 20 -4 25 1 5
-8 31 -20 57 -12 27 -21 51 -19 55 2 7 -32 83 -59 134 -10 18 -11 29 -4 33 6
4 0 15 -15 27 -14 10 -25 24 -25 29 0 12 -76 136 -112 182 -16 20 -27 37 -24
37 7 0 -112 114 -149 141 -16 13 -33 27 -36 32 -3 5 -8 8 -10 7 -2 -1 -17 4
-34 11 -62 25 -117 30 -149 14z m62 -350 c7 0 13 -4 13 -10 1 -5 15 -20 31
-32 18 -13 25 -24 18 -28 -5 -3 -8 -10 -5 -15 3 -4 -1 -13 -9 -19 -10 -9 -25
-1 -65 36 -28 25 -51 52 -51 60 0 7 -5 13 -11 13 -13 0 11 25 31 32 8 2 19 -4
25 -16 6 -12 16 -21 23 -21z m-62 -498 c9 -27 24 -43 53 -52 12 -4 20 -9 17
-13 -3 -3 3 -11 14 -19 11 -8 20 -22 20 -32 0 -10 12 -23 26 -30 14 -6 24 -17
21 -24 -2 -6 3 -17 11 -23 15 -11 22 -78 9 -91 -11 -10 -97 -13 -97 -3 0 5
-10 12 -22 16 -12 3 -33 17 -47 30 -14 13 -29 24 -33 24 -5 0 -8 6 -8 13 0 7
-9 19 -20 27 -11 8 -20 20 -20 27 0 7 -5 13 -12 13 -6 0 -8 3 -5 6 3 4 -4 15
-17 25 -28 22 -33 71 -7 62 9 -3 24 -12 33 -20 24 -21 58 -1 56 32 -1 14 -6
25 -10 25 -4 0 -8 9 -8 19 0 26 37 16 46 -12z m231 18 c12 -4 27 -20 33 -36 7
-16 16 -29 20 -29 17 0 36 -125 20 -135 -26 -16 -149 62 -134 86 2 4 -3 10
-12 13 -8 3 -12 10 -9 16 3 5 1 10 -4 10 -6 0 -11 7 -11 15 0 8 -4 15 -10 15
-5 0 -10 8 -10 17 0 14 3 13 16 -5 15 -22 17 -22 34 -7 10 9 16 24 13 34 -5
19 9 20 54 6z m282 -97 c13 -10 20 -18 16 -18 -4 0 -3 -6 2 -12 15 -19 7 -79
-14 -99 -17 -17 -19 -17 -45 5 -17 15 -31 43 -40 79 -14 53 -14 56 6 65 24 11
41 6 75 -20z m-768 7 c12 8 50 -13 77 -44 12 -14 46 -49 74 -78 43 -44 49 -55
38 -68 -7 -8 -9 -15 -6 -15 4 0 2 -9 -3 -19 -10 -18 -15 -17 -96 24 -47 24
-89 44 -93 45 -29 4 -52 14 -52 21 0 5 -5 9 -10 9 -6 0 -32 21 -58 46 -26 26
-41 44 -34 40 6 -4 12 -2 12 4 0 6 10 4 25 -6 20 -13 25 -14 25 -3 0 24 80 67
88 47 2 -4 8 -6 13 -3z m-324 -80 c0 -8 -4 -12 -9 -9 -4 3 -8 0 -8 -7 0 -7 -3
-9 -6 -6 -4 4 -1 13 6 22 15 19 17 19 17 0z m68 -505 c0 -1 14 -3 30 -5 17 -1
32 -4 35 -5 3 -1 9 -2 14 -1 10 2 48 -11 106 -37 19 -8 48 -28 65 -43 16 -16
35 -29 40 -29 6 0 28 -15 50 -34 22 -19 44 -34 48 -34 9 -1 89 -64 125 -99 13
-13 27 -23 32 -23 6 0 10 -7 10 -15 0 -8 4 -15 9 -15 5 0 8 -8 6 -17 -1 -10 0
-22 3 -27 3 -6 6 -29 7 -52 2 -40 1 -43 -38 -58 -47 -18 -38 -24 -221 134 -22
19 -45 38 -51 43 -5 4 -23 19 -40 33 -73 62 -111 92 -121 95 -12 4 -70 50
-128 101 -17 15 -36 28 -43 28 -11 0 -63 46 -63 55 0 2 7 2 15 -1 8 -4 15 -2
15 2 0 5 21 8 47 7 27 0 48 -2 48 -3z m961 -27 c-5 -5 -11 -2 -13 5 -3 6 -12
12 -21 12 -15 0 -15 2 -2 10 17 11 50 -14 36 -27z m-1082 -56 c16 -14 33 -24
36 -22 4 2 24 -11 45 -31 21 -19 54 -42 73 -51 20 -9 30 -19 24 -21 -7 -2 -12
-12 -12 -22 0 -22 22 -39 28 -22 2 7 8 12 14 12 12 0 78 -52 182 -142 17 -15
35 -28 39 -28 16 0 227 -207 219 -214 -3 -3 0 -11 6 -18 14 -17 13 -30 -1 -48
-23 -29 -37 -60 -27 -60 5 0 7 -7 4 -15 -4 -8 -2 -15 3 -15 17 0 12 -43 -9
-71 -20 -27 -20 -30 -5 -47 9 -10 17 -28 17 -40 0 -11 7 -25 17 -30 10 -6 14
-16 9 -27 -5 -14 -9 -15 -21 -5 -9 7 -14 15 -11 17 4 4 -22 38 -66 84 -14 16
-23 29 -20 29 4 0 -5 11 -20 24 -16 13 -28 27 -28 30 0 4 -22 30 -50 57 -27
27 -50 51 -50 53 0 3 -19 25 -42 49 -24 25 -61 66 -83 93 -48 58 -116 124
-127 124 -4 0 -8 5 -8 10 0 6 -49 59 -110 119 -60 60 -120 127 -134 151 -23
40 -23 44 -8 81 8 21 21 39 29 39 7 0 13 5 13 12 0 6 10 3 23 -9 12 -11 35
-31 51 -46z m1164 -59 c13 -9 29 -15 36 -12 19 7 14 -43 -7 -63 -16 -16 -19
-15 -50 19 -28 31 -57 78 -57 93 0 7 53 -18 78 -37z m-1568 -73 c0 -9 -6 -12
-16 -8 -13 5 -13 7 -2 14 17 11 18 11 18 -6z m348 -92 c63 -52 188 -173 177
-173 -5 0 5 -10 22 -22 29 -22 90 -88 80 -88 -2 0 21 -26 52 -58 101 -104 201
-215 201 -222 0 -4 7 -11 16 -14 9 -4 14 -9 11 -12 -3 -4 -1 -12 6 -19 24 -24
62 -78 57 -80 -3 -2 8 -13 23 -25 26 -20 34 -53 13 -50 -5 1 -12 -4 -17 -11
-6 -10 -12 -9 -31 3 -12 8 -31 14 -40 12 -10 -1 -18 3 -18 9 0 7 -6 4 -14 -5
-10 -13 -15 -15 -24 -6 -9 9 -12 7 -12 -7 0 -14 -3 -16 -12 -7 -8 8 -8 15 0
25 8 10 2 27 -28 74 -21 34 -36 64 -33 67 4 3 1 6 -5 6 -7 0 -12 7 -12 15 0 8
-5 15 -11 15 -5 0 -7 5 -4 10 3 6 -1 13 -9 16 -9 3 -13 10 -10 15 3 5 0 9 -6
9 -6 0 -16 12 -23 28 -6 15 -20 36 -29 46 -10 11 -18 25 -18 32 0 6 -7 14 -15
18 -8 3 -15 12 -15 21 0 8 -4 15 -10 15 -5 0 -10 6 -10 14 0 8 -7 17 -16 20
-8 3 -13 10 -10 15 3 5 -1 12 -10 15 -8 3 -12 10 -9 16 3 5 2 10 -2 10 -14 0
-85 73 -91 93 -1 4 -21 27 -45 52 -55 56 -93 106 -89 117 1 4 -2 8 -8 8 -5 0
-10 6 -10 14 0 8 -6 17 -12 19 -7 3 -9 6 -5 6 5 1 30 -16 55 -36z m-608 -17
c0 -12 -13 -14 -40 -6 -4 1 24 16 38 19 1 1 2 -5 2 -13z m510 -84 c0 8 73 -62
105 -101 33 -40 -3 -15 -94 66 -20 18 -40 33 -46 33 -5 0 -3 4 5 10 9 6 17 5
22 -3 4 -7 8 -9 8 -5z m-62 -56 c12 -4 22 -12 22 -17 0 -5 6 -9 13 -9 8 0 23
-8 35 -17 36 -31 67 -52 73 -50 3 1 34 -28 70 -65 96 -100 129 -138 121 -138
-4 0 0 -6 8 -13 8 -7 24 -29 34 -49 11 -21 24 -38 29 -38 6 0 7 -3 4 -6 -3 -4
-2 -15 4 -25 6 -13 6 -19 -1 -19 -5 0 -10 5 -10 12 0 6 -3 8 -6 5 -4 -3 -16
-1 -28 5 -11 7 -24 11 -28 10 -5 -1 -8 2 -8 6 0 7 -54 31 -82 38 -5 1 -10 3
-13 4 -3 1 -8 3 -12 4 -5 1 -17 7 -28 13 -21 11 -26 13 -48 13 -7 0 -23 10
-37 23 -14 12 -52 44 -85 72 -33 27 -62 52 -65 56 -3 3 -14 9 -25 13 -12 3
-39 23 -60 43 -22 21 -42 37 -45 35 -3 -1 -5 9 -6 23 -1 18 3 24 12 21 7 -3
16 -1 19 4 7 11 85 -30 123 -63 12 -11 22 -16 22 -11 0 5 4 5 8 -1 4 -5 30
-28 57 -50 28 -22 61 -50 73 -63 23 -22 25 -22 37 -5 12 16 10 21 -13 39 -15
12 -37 30 -48 40 -12 11 -41 35 -65 56 -24 20 -54 44 -66 55 -11 10 -30 25
-42 33 -34 23 3 34 57 16z m-690 -14 c2 -7 -7 -12 -23 -12 -24 0 -26 2 -15 15
14 17 31 16 38 -3z m913 -79 c13 -16 12 -17 -3 -4 -10 7 -18 15 -18 17 0 8 8
3 21 -13z m-478 -47 c15 -8 27 -11 27 -6 0 13 34 -1 62 -25 13 -11 26 -21 31
-23 21 -5 73 -37 96 -58 14 -13 31 -24 37 -24 7 0 28 -15 48 -33 27 -23 35
-37 30 -50 -6 -16 -8 -16 -30 -2 -15 9 -24 11 -24 5 0 -12 -25 -41 -35 -40 -2
0 -33 14 -67 32 -34 17 -68 31 -75 31 -7 0 -13 4 -13 9 0 4 -3 8 -7 7 -5 -1
-19 2 -33 7 -14 4 -27 6 -29 5 -2 -2 -7 2 -11 9 -4 6 -20 13 -36 16 -16 3 -32
11 -36 17 -4 7 -8 8 -8 3 0 -5 -7 -2 -17 5 -9 8 -17 12 -17 10 -1 -6 -46 23
-46 30 0 5 10 8 43 10 25 2 67 -6 67 -12 0 -3 20 -12 45 -19 25 -7 48 -17 51
-22 3 -4 10 -6 15 -3 5 4 9 1 9 -4 0 -6 6 -11 14 -11 7 0 25 -9 40 -21 23 -18
28 -19 41 -6 12 13 11 17 -12 33 -14 11 -31 25 -39 32 -8 7 -14 10 -14 6 0 -4
-8 -1 -17 7 -10 8 -31 21 -48 28 -16 7 -43 19 -58 27 -16 8 -35 14 -43 14 -17
0 -19 17 -1 23 20 9 31 7 60 -7z m-106 -182 c26 -9 53 -17 58 -18 23 -4 91
-29 101 -37 6 -5 21 -11 35 -13 13 -3 25 -5 27 -5 1 -1 5 -1 8 0 4 0 10 -4 13
-10 4 -6 16 -12 27 -13 25 -4 66 -33 58 -41 -4 -4 -1 -13 6 -22 16 -19 40 -2
33 24 -3 13 5 20 35 29 21 7 49 21 62 32 12 11 25 18 29 16 3 -2 40 -14 81
-26 68 -21 207 -90 220 -109 3 -5 19 -15 35 -24 52 -27 121 -102 104 -113 -18
-11 20 -43 47 -38 15 3 24 0 24 -8 0 -7 9 -19 20 -25 10 -7 24 -22 31 -34 8
-15 8 -19 0 -15 -6 4 -23 9 -36 12 -20 3 -25 0 -25 -16 0 -12 9 -24 23 -29 20
-8 21 -10 3 -16 -10 -5 -21 -3 -25 2 -3 5 -21 15 -38 21 -29 9 -34 8 -43 -8
-7 -14 -6 -20 8 -26 9 -4 20 -6 25 -6 4 1 7 -2 7 -7 0 -5 10 -11 22 -14 12 -4
20 -9 17 -12 -3 -3 -24 1 -47 9 -22 8 -43 12 -46 9 -3 -4 -6 -1 -6 6 0 7 -8
11 -17 9 -10 -1 -23 1 -29 4 -6 4 -22 9 -37 12 -15 2 -31 7 -36 10 -5 3 -26 8
-46 11 -21 2 -46 12 -56 21 -11 10 -19 13 -19 9 0 -4 -9 0 -21 11 -12 10 -23
18 -26 16 -2 -2 -22 12 -44 30 -22 18 -43 34 -47 34 -30 6 -52 19 -52 30 0 8
-4 14 -10 14 -5 0 -10 7 -10 15 0 8 -4 15 -10 15 -5 0 -10 4 -10 9 0 13 -62
76 -72 73 -4 -1 -8 2 -8 6 0 5 -6 9 -12 9 -7 0 -38 3 -68 8 -30 4 -75 9 -100
10 -25 2 -65 6 -90 10 -25 4 -64 7 -88 7 -23 0 -45 4 -47 9 -3 4 -12 6 -19 3
-8 -3 -17 0 -21 5 -3 6 -11 9 -16 6 -5 -4 -9 0 -9 8 0 13 7 15 43 18 23 2 67
-5 67 -11 0 -3 17 -5 38 -6 20 -1 58 -4 83 -7 34 -5 50 -3 58 7 21 25 -14 39
-134 51 -16 2 -30 4 -30 5 0 3 -41 12 -65 14 -14 2 -34 7 -44 13 -27 15 -14
42 18 39 14 -2 26 1 26 5 0 13 13 11 67 -7z m-502 -54 c-3 -5 -12 -10 -18 -10
-7 0 -6 4 3 10 19 12 23 12 15 0z m555 -164 c0 -5 6 -3 13 3 8 6 16 8 19 5 4
-3 32 -7 65 -10 66 -4 146 -12 153 -15 3 0 16 0 29 1 15 1 21 -2 16 -9 -3 -6
1 -14 9 -17 9 -3 16 -12 16 -19 0 -7 5 -15 11 -17 5 -2 11 -12 13 -21 1 -10 8
-22 15 -26 7 -5 12 -11 11 -15 0 -4 6 -14 15 -22 8 -9 15 -12 15 -8 0 5 5 3
12 -4 7 -7 18 -12 26 -12 8 0 22 -8 31 -19 9 -10 26 -21 38 -25 35 -11 35 -31
-1 -32 -17 -1 -49 -5 -71 -8 -22 -4 -48 -7 -57 -7 -10 0 -18 -4 -18 -8 0 -4
-13 -7 -30 -6 -16 1 -30 -3 -30 -8 0 -5 -7 -4 -15 3 -9 7 -15 8 -15 2 0 -9
-21 -17 -80 -29 -14 -3 -31 -6 -37 -6 -7 0 -13 -5 -13 -10 0 -5 -7 -7 -15 -3
-8 3 -15 2 -15 -2 0 -11 -148 -44 -160 -37 -6 4 -13 -1 -16 -10 -5 -12 -9 -13
-20 -4 -11 9 -14 8 -14 -1 0 -9 -4 -9 -12 -3 -7 6 -22 9 -33 7 -17 -3 -34 10
-35 27 0 11 106 39 205 54 11 2 22 4 25 6 3 1 10 3 15 4 6 2 12 4 15 5 14 5
50 10 95 14 28 3 50 5 50 6 0 1 14 3 30 5 17 1 31 4 33 5 1 1 6 3 12 4 5 0 14
6 21 13 9 9 8 15 -5 28 -13 14 -17 14 -21 3 -4 -10 -22 -14 -60 -13 -30 1 -55
-2 -55 -8 0 -5 -6 -5 -13 2 -8 6 -17 8 -20 4 -4 -3 -21 -7 -39 -7 -18 -1 -39
-5 -46 -10 -7 -4 -12 -2 -12 5 0 8 -4 8 -12 2 -7 -6 -20 -11 -28 -11 -8 0 -28
-3 -45 -7 -16 -4 -39 -7 -50 -7 -11 -1 -26 -6 -32 -11 -9 -6 -13 -6 -13 2 0 8
-6 8 -21 -1 -17 -11 -23 -11 -26 0 -3 6 -9 10 -14 6 -5 -3 -9 1 -9 9 0 8 7 17
15 21 8 3 15 0 15 -6 0 -9 3 -9 12 0 7 7 22 12 35 12 13 0 23 5 23 11 0 7 10
9 26 6 14 -2 31 1 37 7 12 11 21 13 89 18 21 2 38 5 38 8 0 3 15 6 33 7 72 3
146 11 156 17 15 10 14 36 -1 37 -47 6 -108 3 -108 -5 0 -4 -7 -3 -15 4 -8 7
-15 9 -15 4 0 -5 -19 -10 -43 -10 -23 -1 -62 -4 -87 -8 -25 -3 -64 -7 -87 -8
-24 -2 -43 -7 -43 -11 0 -5 -6 -7 -12 -4 -7 2 -25 0 -40 -4 -34 -9 -58 12 -38
35 6 8 18 12 26 9 8 -3 14 0 14 7 0 6 4 9 9 6 4 -3 23 -1 42 5 57 18 229 33
229 20 0 -10 60 -5 70 5 28 28 -44 50 -157 49 -35 0 -63 3 -63 8 0 4 -6 5 -12
0 -7 -4 -38 -8 -70 -9 -43 -1 -55 2 -51 12 8 22 173 41 173 20z m1064 -128
c-5 -8 -44 13 -44 23 0 4 11 2 24 -4 13 -7 22 -15 20 -19z m-457 -175 c74 -12
100 -17 172 -37 30 -8 58 -13 63 -10 4 3 8 0 8 -7 0 -7 3 -10 6 -7 3 4 17 0
31 -7 15 -8 30 -12 34 -9 5 2 13 -5 19 -17 7 -13 8 -19 2 -15 -6 3 -14 1 -17
-5 -4 -6 -18 -8 -31 -5 -14 4 -24 2 -24 -4 0 -6 -5 -8 -12 -4 -7 4 -28 7 -47
6 -20 -1 -66 -3 -102 -5 -36 -2 -71 -7 -77 -11 -7 -4 -12 -1 -12 8 0 8 6 16
12 18 10 4 9 9 -3 21 -12 12 -19 13 -28 4 -8 -8 -11 -8 -11 2 0 11 -3 11 -15
1 -12 -10 -15 -10 -15 0 0 8 -4 9 -12 3 -7 -5 -23 -8 -35 -7 -13 0 -23 -3 -23
-9 0 -5 -5 -5 -13 2 -8 6 -16 9 -18 7 -6 -6 -122 -18 -205 -21 -39 -1 -75 -4
-80 -7 -5 -2 -21 -4 -36 -3 -16 0 -28 -3 -28 -7 0 -4 -3 -7 -7 -7 -28 4 -53
-3 -53 -16 0 -8 -6 -12 -14 -9 -8 3 -25 0 -37 -7 -18 -9 -24 -9 -27 0 -3 8 -8
9 -16 2 -6 -6 -27 -13 -46 -16 -18 -3 -37 -8 -41 -11 -4 -2 -10 0 -13 5 -8 12
116 53 157 53 9 -1 17 3 17 7 0 4 6 8 13 9 32 2 72 14 75 22 2 5 9 7 17 4 7
-3 16 -1 19 5 4 6 13 8 21 4 8 -3 15 -1 15 5 0 5 11 8 25 7 14 -2 25 1 25 7 0
6 7 8 15 5 8 -4 17 -2 21 4 3 6 12 8 20 5 8 -3 14 -2 14 2 0 4 12 7 28 7 15
-1 32 2 37 6 6 4 26 10 45 12 19 3 35 6 35 7 0 1 22 3 50 5 27 2 51 8 53 14 2
6 9 8 14 5 6 -4 22 -9 35 -11z m3 -132 c0 -8 -9 -10 -60 -13 -16 -1 -30 -6
-30 -11 0 -5 -6 -4 -13 2 -8 6 -16 9 -18 7 -2 -2 -25 -7 -51 -10 -27 -3 -69
-9 -95 -13 -27 -3 -56 -7 -65 -7 -10 0 -18 -3 -18 -6 0 -3 -12 -6 -27 -5 -16
0 -52 -5 -82 -12 -30 -6 -58 -10 -63 -7 -4 3 -8 1 -8 -3 0 -5 -9 -9 -20 -9
-11 0 -20 3 -20 7 0 8 78 24 98 20 6 -1 12 2 12 7 0 5 11 8 25 7 14 -2 25 0
25 4 0 4 17 8 38 9 33 2 59 5 127 17 11 2 20 4 20 5 0 1 108 10 162 13 24 1
43 6 43 10 0 5 5 5 10 2 6 -3 10 -10 10 -14z m-585 -81 c3 -5 1 -10 -4 -10 -6
0 -11 5 -11 10 0 6 2 10 4 10 3 0 8 -4 11 -10z m-40 -10 c3 -5 -1 -10 -10 -10
-9 0 -13 5 -10 10 3 6 8 10 10 10 2 0 7 -4 10 -10z m385 0 c0 -5 -5 -10 -11
-10 -5 0 -7 5 -4 10 3 6 8 10 11 10 2 0 4 -4 4 -10z m170 -6 c0 -8 -5 -12 -10
-9 -6 4 -8 11 -5 16 9 14 15 11 15 -7z m550 -254 c0 -3 -14 -14 -30 -25 -16
-11 -30 -24 -30 -30 0 -5 -14 -21 -32 -35 -40 -32 -68 -61 -68 -72 0 -5 -4 -6
-10 -3 -5 3 -15 -3 -22 -15 -7 -11 -19 -20 -26 -20 -7 0 -15 -7 -18 -15 -4 -8
-12 -15 -20 -15 -8 0 -14 -5 -14 -11 0 -5 -4 -7 -10 -4 -5 3 -10 2 -10 -3 0
-8 -87 -37 -98 -33 -1 1 -15 -5 -30 -13 -15 -8 -45 -17 -66 -20 -22 -4 -45
-11 -53 -17 -7 -6 -13 -8 -13 -3 0 4 -5 3 -12 -4 -7 -7 -22 -12 -33 -12 -12 0
-25 -3 -29 -7 -3 -4 -13 -8 -21 -10 -28 -6 -50 -11 -50 -13 0 -2 -12 -5 -62
-15 -29 -7 -31 -5 -26 14 3 14 13 21 28 21 13 0 25 4 27 10 2 5 15 11 31 12
15 1 27 6 27 10 0 4 5 8 10 8 6 0 27 7 48 17 20 9 41 15 46 14 5 -1 16 5 25
13 9 8 19 15 23 16 35 8 48 14 48 23 0 6 3 8 6 4 8 -8 64 13 64 24 0 5 6 9 14
9 8 0 17 8 20 17 5 13 9 14 15 5 6 -10 11 -10 21 3 11 13 10 19 -5 35 -10 11
-14 20 -9 21 20 1 46 8 62 15 9 4 23 8 30 10 21 4 42 26 36 36 -4 6 3 5 15 -1
14 -8 21 -8 21 -1 0 5 4 10 9 10 5 0 22 5 38 12 33 13 30 12 66 22 15 5 27 11
27 15 0 4 9 7 20 7 11 0 20 -3 20 -6z m28 -89 c-13 -14 -26 -27 -31 -29 -4 -2
-4 -8 -1 -13 6 -11 -17 -50 -52 -88 -13 -14 -21 -28 -18 -33 3 -4 0 -8 -5 -8
-6 0 -11 -5 -11 -10 0 -6 -10 -21 -22 -34 -38 -38 -68 -76 -68 -84 0 -4 -9
-14 -20 -22 -11 -8 -20 -20 -20 -27 0 -7 -25 -39 -55 -70 -49 -51 -54 -59 -39
-70 14 -10 24 -4 69 42 29 30 59 68 67 85 8 17 17 30 20 28 7 -5 38 29 31 35
-3 3 7 17 21 30 14 13 26 28 26 32 0 4 10 16 23 27 12 11 22 23 22 26 0 4 9
22 20 40 17 28 24 32 48 26 26 -5 29 -2 52 50 24 54 43 77 30 37 -3 -11 -7
-28 -9 -38 -2 -10 -10 -38 -17 -63 -7 -25 -12 -51 -10 -57 1 -7 -3 -13 -9 -13
-5 0 -9 -3 -9 -7 1 -5 0 -10 -1 -13 -4 -11 -11 -46 -13 -67 -1 -13 -5 -23 -9
-23 -3 0 -11 -12 -17 -27 -18 -43 -36 -71 -70 -110 -17 -19 -31 -38 -31 -43 0
-10 -69 -97 -97 -123 -17 -15 -39 -21 -91 -23 -67 -3 -70 -2 -82 24 -8 15 -13
30 -12 35 1 4 -2 7 -7 7 -12 0 -9 63 4 72 6 5 6 8 -1 8 -7 0 -11 11 -10 25 0
14 4 25 8 25 4 0 5 7 2 15 -4 8 -3 23 2 33 4 9 8 20 8 24 1 4 8 16 17 27 10
10 20 28 24 40 3 12 11 21 16 21 5 0 8 3 7 8 0 4 6 23 15 42 9 19 16 32 17 28
0 -13 72 41 103 77 16 19 36 35 43 35 8 0 14 5 14 10 0 6 11 23 25 38 14 15
25 22 25 17 0 -5 7 1 16 13 8 12 20 20 25 16 6 -3 17 3 25 15 9 12 20 19 25
15 6 -4 1 -17 -13 -33z m-378 -55 c0 -2 -7 -7 -16 -10 -8 -3 -12 -2 -9 4 6 10
25 14 25 6z m-72 -31 c-3 -3 -9 2 -12 12 -6 14 -5 15 5 6 7 -7 10 -15 7 -18z
m651 -2 c-7 -10 -14 -20 -16 -22 -1 -2 -1 6 0 18 1 11 8 21 15 21 12 0 12 -3
1 -17z m91 -13 c0 -5 -4 -10 -8 -10 -5 0 -7 -19 -6 -42 1 -24 -3 -46 -9 -50
-7 -4 -13 -29 -15 -55 -4 -71 -4 -73 -15 -73 -5 0 -7 -13 -5 -30 3 -16 2 -30
-1 -30 -3 0 -7 -10 -8 -22 -3 -32 -11 -83 -13 -83 -5 0 -23 -106 -22 -127 0
-10 -3 -18 -7 -18 -4 0 -7 -10 -8 -22 0 -13 -8 -50 -18 -83 -21 -76 -23 -85
-24 -113 -1 -13 -5 -21 -10 -18 -5 3 -14 -1 -21 -9 -10 -12 -10 -18 -1 -29 8
-10 9 -16 1 -21 -6 -3 -8 -10 -5 -15 3 -5 1 -11 -5 -15 -6 -4 -8 -11 -5 -16 4
-5 2 -9 -2 -9 -9 0 -12 -11 -16 -60 -1 -14 -6 -28 -10 -31 -4 -3 -9 -16 -10
-27 -1 -12 -5 -22 -9 -22 -4 0 -5 -7 -2 -15 4 -8 1 -15 -6 -15 -7 0 -10 -7 -6
-15 3 -8 1 -15 -4 -15 -6 0 -9 -3 -9 -7 1 -5 1 -17 0 -28 -1 -16 -3 -17 -11
-5 -5 8 -6 17 -2 20 4 3 8 30 8 60 1 30 5 78 8 105 4 28 8 56 8 63 1 6 4 12 8
12 4 0 7 6 7 13 2 40 14 97 28 130 8 21 13 42 10 47 -3 4 0 10 5 12 6 2 12 13
13 26 0 12 4 22 8 22 4 0 10 17 13 38 8 49 14 77 16 77 1 0 4 16 7 35 2 19 8
37 11 40 12 9 10 65 -2 73 -8 5 -7 10 3 16 10 7 14 40 15 140 1 91 4 131 12
131 7 0 14 7 18 15 3 8 12 15 19 15 7 0 20 11 27 25 13 24 50 35 50 15z m70
-45 c0 -7 4 -15 10 -17 5 -1 11 -25 13 -52 3 -35 10 -53 25 -65 21 -16 23 -40
8 -89 -6 -17 -3 -27 10 -37 11 -7 22 -12 25 -9 3 2 17 -8 30 -22 17 -19 24
-38 25 -70 0 -24 -2 -44 -6 -44 -14 0 -19 -44 -7 -52 9 -6 9 -8 0 -8 -7 0 -13
-7 -13 -15 0 -8 -5 -15 -11 -15 -5 0 -7 -4 -4 -10 3 -5 1 -10 -5 -10 -7 0 -10
-7 -6 -15 3 -8 1 -15 -4 -15 -5 0 -7 -7 -4 -15 4 -8 1 -15 -5 -15 -6 0 -11 -6
-11 -14 0 -7 -7 -19 -15 -26 -8 -6 -14 -15 -13 -18 0 -7 -1 -11 -7 -29 -2 -5
-6 -18 -10 -30 -4 -13 -11 -23 -16 -23 -5 0 -8 -3 -7 -7 2 -11 -25 -67 -36
-74 -5 -4 -5 -12 -2 -18 4 -6 2 -11 -3 -11 -6 0 -11 -4 -11 -9 0 -5 -10 -30
-22 -57 -12 -27 -21 -52 -20 -56 1 -5 -3 -8 -8 -8 -6 0 -10 -4 -10 -9 0 -5 -5
-22 -12 -38 -6 -15 -12 -30 -12 -33 -4 -17 -60 -120 -65 -120 -4 0 -7 -10 -8
-22 -1 -11 -7 -24 -14 -28 -6 -4 -8 -13 -5 -19 4 -6 0 -12 -11 -12 -10 -1 -28
-3 -41 -4 -12 -1 -20 0 -18 3 3 2 -3 16 -14 29 -15 19 -17 30 -9 44 5 11 7 24
4 29 -3 6 -1 10 5 10 6 0 9 4 5 9 -3 5 -1 12 4 15 5 4 8 17 6 31 -1 14 1 25 6
25 5 0 6 7 3 15 -4 8 -2 15 3 15 5 0 10 6 10 13 0 6 7 35 16 64 8 28 13 54 10
57 -4 3 -1 6 6 6 8 0 11 7 7 15 -3 8 -1 15 5 15 6 0 8 4 4 9 -3 5 -1 12 5 16
6 4 8 10 5 15 -3 5 -1 11 5 15 6 4 8 11 5 16 -4 5 -1 9 5 9 7 0 10 7 6 15 -3
8 -2 15 2 15 4 0 9 8 10 18 6 53 24 103 36 99 6 -2 17 3 25 11 12 12 12 15 0
22 -14 9 -22 90 -8 90 4 0 7 8 7 18 -1 20 5 51 22 112 7 25 14 52 16 60 5 30
15 76 25 113 5 20 7 42 4 47 -3 6 -3 10 2 10 4 0 9 10 10 23 3 33 8 51 16 65
5 6 4 12 -2 12 -7 0 -7 8 -1 24 5 13 6 27 2 31 -3 3 1 3 11 -1 9 -3 17 -12 17
-19z m-970 -16 c0 -6 -4 -7 -10 -4 -5 3 -10 11 -10 16 0 6 5 7 10 4 6 -3 10
-11 10 -16z m-403 -47 c-8 -7 -21 -10 -31 -6 -21 8 -7 20 24 20 17 0 18 -3 7
-14z m647 -31 c4 -5 3 -11 -1 -13 -5 -1 -17 -21 -28 -42 -49 -95 -58 -110 -62
-98 -4 10 -8 10 -19 1 -8 -6 -14 -8 -14 -5 0 4 -10 0 -22 -8 -12 -9 -30 -16
-40 -16 -10 0 -18 -4 -18 -10 0 -5 -3 -9 -7 -8 -17 4 -73 -14 -73 -23 0 -6 -4
-7 -10 -4 -5 3 -21 -2 -35 -11 -14 -9 -25 -13 -25 -10 0 4 -6 4 -12 -1 -7 -4
-15 -8 -18 -9 -3 0 -16 -5 -30 -11 -14 -6 -52 -19 -85 -29 -33 -10 -62 -21
-65 -24 -7 -8 -87 -6 -95 2 -4 4 4 12 19 18 14 5 38 15 54 22 29 12 35 14 67
21 45 11 161 50 172 59 7 5 16 7 22 4 5 -3 11 -2 13 3 1 5 14 11 28 13 14 1
28 7 32 12 3 5 17 10 30 12 12 1 25 3 28 5 3 1 10 3 15 4 6 1 27 10 48 19 26
11 37 22 35 34 -2 9 -8 17 -13 17 -27 -2 -165 -49 -165 -57 0 -5 -4 -6 -10 -3
-5 3 -10 1 -10 -5 0 -7 -7 -10 -15 -7 -8 4 -17 2 -21 -4 -3 -6 -12 -8 -20 -5
-8 3 -14 0 -14 -6 0 -6 -3 -8 -7 -5 -3 4 -12 2 -20 -4 -7 -6 -13 -9 -13 -6 0
3 -30 -3 -67 -14 -38 -11 -78 -21 -90 -21 -13 0 -23 -5 -23 -10 0 -5 -4 -7 -9
-3 -5 3 -12 1 -16 -4 -6 -11 -45 -10 -45 1 0 4 -1 11 -2 15 -2 4 8 8 22 8 14
1 36 7 48 14 13 7 26 10 29 7 4 -3 13 0 21 6 8 7 19 13 26 14 63 11 82 17 93
26 7 6 13 7 13 3 0 -4 6 -2 13 4 8 6 16 9 19 6 3 -3 11 1 17 9 7 8 19 12 27 9
8 -3 14 0 14 7 0 7 7 10 16 6 9 -4 27 0 39 8 12 8 49 22 81 31 58 17 115 39
144 55 20 12 28 12 34 1z m454 -28 c1 -19 -5 -32 -18 -41 -18 -11 -19 -10 -10
13 5 14 7 25 4 25 -4 0 -1 6 5 13 6 8 7 18 3 22 -4 5 -2 6 3 2 6 -3 12 -18 13
-34z m-934 -40 c-5 -5 -12 -12 -16 -18 -4 -6 -8 -2 -8 8 0 9 7 17 17 17 9 0
12 -3 7 -7z m-74 -33 c0 -5 -4 -10 -10 -10 -5 0 -10 5 -10 10 0 6 5 10 10 10
6 0 10 -4 10 -10z m995 -3 c10 -8 14 -17 8 -20 -5 -3 -8 -26 -6 -52 3 -35 -1
-50 -17 -67 -13 -14 -18 -30 -15 -47 6 -29 -23 -103 -36 -95 -5 2 -4 16 1 30
6 14 8 30 4 35 -3 5 -1 9 4 9 5 0 9 18 8 40 -1 22 2 40 7 40 5 0 4 7 -3 15 -7
8 -8 15 -3 15 6 0 9 21 8 48 -2 66 4 74 40 49z m-531 -147 c-1 -39 -8 -65 -18
-75 -9 -9 -16 -13 -16 -9 0 4 -8 0 -17 -8 -20 -16 -54 -32 -65 -30 -4 1 -17
-6 -28 -16 -11 -9 -24 -17 -28 -17 -4 -1 -17 -6 -28 -13 -12 -6 -24 -8 -28 -5
-3 3 -6 2 -6 -4 0 -9 -23 -21 -52 -27 -3 0 -10 -5 -15 -9 -15 -16 -91 -47
-120 -49 -7 -1 -13 -5 -13 -10 0 -5 -4 -6 -10 -3 -19 12 -10 36 18 46 15 6 29
10 31 9 2 -1 7 2 10 7 9 12 122 68 132 66 5 -2 9 2 9 7 0 5 3 9 8 8 12 -2 60
20 67 32 3 5 10 8 15 5 4 -3 13 2 21 11 10 12 9 18 -4 32 -13 12 -17 13 -17 2
0 -7 -3 -10 -6 -7 -4 3 -16 1 -28 -5 -11 -7 -23 -13 -26 -13 -3 -1 -17 -7 -32
-13 -16 -7 -40 -17 -55 -24 -16 -6 -30 -12 -33 -13 -3 -1 -21 -9 -40 -17 -19
-9 -38 -14 -42 -12 -5 3 -8 2 -8 -3 0 -8 -68 -33 -89 -33 -5 0 -9 9 -8 19 0
11 5 17 9 15 5 -3 11 1 14 10 3 8 12 12 20 9 8 -3 14 0 14 7 0 6 4 9 8 6 5 -3
20 1 35 9 14 7 28 11 31 7 3 -3 6 -1 6 5 0 9 68 36 95 38 6 1 20 6 32 13 12 7
29 12 37 12 9 0 16 5 16 11 0 6 7 9 15 5 8 -3 15 0 15 6 0 6 3 8 6 5 4 -4 23
2 43 12 27 13 122 60 126 61 1 0 0 -27 -1 -60z m439 8 c0 -18 -3 -43 -7 -56
-7 -20 -16 -84 -19 -134 -1 -10 -4 -18 -8 -18 -3 0 -5 -12 -3 -27 1 -15 -1
-30 -6 -33 -5 -3 -12 -17 -14 -30 -2 -14 -5 -27 -5 -29 -1 -2 -7 2 -15 8 -12
10 -17 8 -25 -8 -9 -16 -8 -22 8 -30 19 -11 19 -11 0 -61 -10 -27 -16 -50 -12
-50 4 0 -3 -9 -15 -20 -12 -12 -22 -27 -22 -35 0 -8 -5 -15 -11 -15 -6 0 -9
-7 -5 -15 3 -8 1 -15 -4 -15 -5 0 -18 -10 -30 -22 -11 -12 -20 -18 -20 -14 0
5 -7 3 -15 -4 -13 -11 -15 -9 -12 8 2 11 8 27 15 34 6 8 9 18 5 21 -3 4 -1 7
5 7 7 0 12 7 12 15 0 8 5 15 10 15 6 0 9 3 8 8 -1 4 5 21 12 37 27 65 48 130
44 137 -3 5 0 8 7 8 7 0 4 6 -7 14 -25 19 -44 2 -47 -42 -1 -18 -5 -32 -9 -32
-4 0 -10 -10 -14 -22 -3 -12 -12 -35 -19 -52 -7 -17 -14 -34 -14 -38 -1 -5 -9
-16 -18 -26 -36 -39 -49 -58 -45 -70 2 -7 -5 -12 -16 -12 -11 0 -27 -3 -35 -6
-10 -3 -14 -1 -12 8 9 36 18 58 25 58 5 0 12 9 15 21 4 12 14 30 24 40 9 11
17 24 17 29 1 6 3 12 4 15 1 3 3 8 4 13 1 4 9 18 19 33 19 28 55 127 63 174 3
16 13 39 23 50 10 11 27 31 37 44 11 13 32 37 48 53 15 16 26 32 23 35 -3 3 5
17 19 31 13 15 24 31 24 36 0 5 3 7 6 3 4 -3 7 -21 7 -39z m1203 -103 c9 -8 9
-13 0 -25 -7 -8 -19 -31 -26 -50 -19 -50 -28 -57 -38 -30 -9 25 6 100 22 112
12 8 27 6 42 -7z m-578 -36 c12 -9 18 -19 12 -21 -6 -2 0 -18 14 -37 14 -19
23 -37 21 -42 -3 -4 0 -9 7 -11 8 -3 9 -11 3 -24 -4 -10 -9 -21 -9 -24 -2 -8
-29 -74 -32 -79 -2 -2 -10 2 -18 9 -13 10 -18 9 -30 -3 -14 -13 -14 -16 -1
-27 12 -10 18 -10 29 -1 10 8 8 0 -5 -26 -10 -20 -19 -43 -19 -50 0 -7 -4 -13
-9 -13 -5 0 -16 -17 -24 -37 -8 -21 -24 -48 -36 -59 -11 -12 -18 -24 -15 -27
3 -2 -4 -7 -16 -10 -11 -3 -20 -2 -20 2 0 4 -6 16 -14 26 -11 16 -15 16 -28 4
-13 -12 -13 -17 -1 -35 12 -19 12 -22 -1 -27 -21 -8 -10 -35 16 -39 16 -2 8
-15 -49 -74 -37 -39 -78 -74 -90 -78 -13 -4 -23 -12 -23 -17 0 -5 -3 -8 -7 -7
-5 1 -19 -4 -31 -11 -33 -18 -39 -7 -17 37 10 20 18 40 17 45 -1 4 3 7 9 7 6
0 9 7 5 15 -3 8 -1 15 4 15 6 0 10 7 10 15 0 8 5 15 11 15 5 0 8 4 4 9 -3 5
-1 12 5 16 6 4 8 11 5 16 -4 5 -1 9 5 9 7 0 10 7 6 15 -3 8 -1 15 5 15 6 0 9
7 5 15 -3 8 -1 15 3 15 5 0 20 29 33 65 12 36 26 65 30 65 5 0 8 6 8 13 0 6
11 32 24 57 13 25 29 64 35 88 7 23 15 42 20 42 4 0 14 18 21 40 7 22 17 40
22 40 5 0 7 4 3 9 -3 5 -1 12 5 16 6 4 8 11 5 16 -4 5 -1 9 4 9 6 0 11 5 11
10 0 19 24 38 40 32 8 -3 25 -13 38 -23z m-1048 -4 c-8 -20 -6 -27 9 -37 18
-11 16 -15 -28 -57 -26 -25 -60 -63 -75 -83 -16 -21 -32 -35 -37 -32 -5 3 -9
1 -9 -5 0 -6 -25 -35 -56 -65 -60 -58 -108 -76 -143 -55 -22 14 -15 25 36 56
16 10 51 36 77 58 27 22 52 40 57 40 17 0 29 28 18 42 -12 14 -58 -2 -72 -24
-4 -7 -16 -13 -25 -13 -9 0 -23 -9 -30 -20 -7 -12 -17 -18 -22 -15 -6 3 -10 2
-10 -3 0 -6 -13 -15 -30 -21 -16 -5 -30 -8 -30 -5 0 3 -9 0 -19 -5 -15 -9 -20
-7 -24 10 -7 26 1 49 18 49 7 0 24 9 39 21 14 11 26 17 26 12 0 -4 7 1 15 11
8 11 15 17 15 13 0 -3 14 -1 30 4 17 6 30 15 30 20 0 5 4 9 10 9 5 0 31 13 59
29 27 16 52 27 55 24 3 -3 8 2 12 11 3 9 10 14 14 11 5 -3 15 0 22 7 21 19 51
37 65 37 9 1 10 -6 3 -24z m461 -29 c-9 -11 -9 -16 0 -21 8 -6 7 -10 -5 -17
-20 -12 -21 -37 0 -45 9 -3 12 -9 7 -12 -4 -3 -16 -16 -27 -28 -15 -19 -16
-25 -6 -38 9 -11 9 -15 1 -15 -7 0 -9 -5 -5 -11 4 -7 1 -10 -7 -7 -14 5 -16
48 -3 78 7 16 16 63 17 93 1 9 5 17 10 17 4 0 5 5 2 10 -3 6 1 10 11 10 13 0
14 -3 5 -14z m-1371 -26 c0 -5 -2 -10 -4 -10 -3 0 -8 5 -11 10 -3 6 -1 10 4
10 6 0 11 -4 11 -10z m1100 -21 c0 -10 -4 -20 -9 -23 -4 -3 -11 -18 -14 -33
-3 -16 -11 -41 -18 -58 -7 -16 -13 -32 -13 -35 -1 -3 -6 -12 -11 -20 -19 -29
-34 -55 -44 -77 -5 -11 -24 -35 -40 -52 -17 -18 -31 -37 -31 -43 0 -6 -3 -9
-6 -5 -4 3 -19 0 -34 -8 -15 -8 -30 -12 -33 -9 -6 6 22 64 40 82 7 7 13 20 13
28 0 8 4 14 10 14 5 0 12 11 16 24 3 13 16 34 30 47 13 12 22 25 19 29 -2 3 7
19 21 35 18 21 21 31 13 41 -8 10 -15 11 -30 1 -10 -6 -19 -15 -19 -19 0 -4
-8 -17 -17 -28 -10 -11 -18 -24 -18 -28 0 -7 -11 -20 -67 -85 -15 -18 -28 -36
-28 -42 -1 -18 -55 -72 -67 -68 -7 3 -13 0 -13 -5 0 -12 -18 -10 -44 4 -17 10
-20 53 -3 46 9 -3 67 58 67 71 0 4 5 7 11 7 10 0 54 48 54 60 0 10 30 47 37
46 4 0 28 24 54 54 47 56 67 66 137 66 29 1 37 -3 37 -17z m-1056 -112 c10 -9
10 -15 2 -23 -17 -16 -35 -6 -29 16 6 23 10 24 27 7z m1273 -82 c0 -8 -4 -15
-8 -15 -5 0 -6 -7 -3 -15 4 -8 1 -15 -6 -15 -7 0 -10 -7 -6 -15 3 -9 0 -15 -8
-15 -8 0 -13 8 -11 18 2 9 4 17 5 17 1 0 3 9 5 19 3 14 19 34 31 36 0 0 1 -7
1 -15z m-1207 -39 c0 -2 -7 -6 -15 -10 -8 -3 -15 -1 -15 4 0 6 7 10 15 10 8 0
15 -2 15 -4z m1143 -91 c-3 -9 -8 -14 -10 -11 -3 3 -2 9 2 15 9 16 15 13 8 -4z
m-999 -154 c3 -5 -1 -11 -9 -14 -9 -4 -12 -1 -8 9 6 16 10 17 17 5z m2588 -44
c11 -4 15 -12 12 -22 -3 -8 -1 -15 6 -15 6 0 9 -4 5 -9 -3 -5 -1 -12 5 -16 7
-4 7 -12 0 -25 -6 -11 -9 -25 -8 -32 6 -24 -29 -18 -59 9 -27 26 -53 78 -53
108 0 20 43 35 60 20 8 -6 23 -15 32 -18z m-358 -126 c18 -19 30 -61 17 -61
-3 0 -7 -24 -7 -52 -1 -48 -6 -86 -19 -157 -4 -21 -31 -71 -38 -71 -2 0 -3 22
-1 48 1 27 -4 56 -11 65 -17 24 -45 11 -52 -25 -6 -31 -49 -72 -65 -62 -6 4
-6 9 -2 13 5 3 10 15 10 26 1 18 9 69 18 115 9 48 28 100 36 100 6 0 9 3 8 8
-1 4 9 23 22 44 27 40 50 42 84 9z m158 14 c10 -1 21 -5 25 -8 8 -9 11 -117 3
-117 -3 0 -6 -8 -7 -17 -3 -44 -8 -63 -15 -63 -4 0 -8 -7 -8 -15 0 -18 -5 -18
-30 -5 -25 13 -61 -7 -52 -29 5 -14 3 -14 -10 -3 -10 8 -14 22 -11 35 3 12 6
32 7 45 0 12 3 22 6 22 3 0 6 16 7 35 4 81 6 91 15 102 6 7 14 10 19 7 5 -3 9
2 9 11 0 10 4 13 12 9 7 -5 21 -9 30 -9z m-2114 -23 c2 -7 -6 -12 -17 -12 -21
0 -27 11 -14 24 9 9 26 2 31 -12z m321 -38 c-11 -14 -49 -20 -49 -8 0 13 34
32 47 27 10 -4 11 -9 2 -19z m1391 -20 c0 5 8 2 18 -7 10 -10 22 -14 26 -10 4
4 6 -14 4 -40 -2 -26 -6 -47 -10 -47 -5 0 -8 -11 -8 -25 0 -14 -4 -25 -8 -25
-5 0 -8 -13 -7 -30 1 -16 -1 -30 -5 -30 -3 0 -16 -18 -29 -40 -12 -22 -30 -40
-39 -41 -93 -4 -137 -18 -160 -51 -17 -24 -36 -13 -22 13 6 10 9 19 6 19 -9 0
17 65 33 81 29 30 51 59 51 68 0 5 16 28 35 51 19 23 35 46 35 51 0 5 14 25
32 44 23 26 34 32 40 23 4 -7 8 -9 8 -4z m-670 -215 c0 -14 -16 -11 -29 5 -10
12 -8 13 8 9 12 -3 21 -9 21 -14z m276 -97 c13 -9 24 -38 17 -46 -3 -3 -16 2
-29 11 -13 8 -24 12 -24 9 0 -4 -5 -4 -12 0 -7 5 -5 11 7 21 21 15 26 16 41 5z
m904 -273 c-5 -16 -6 -29 -3 -29 3 0 -1 -8 -10 -17 -15 -18 -17 -22 -17 -43 0
-15 -29 -12 -46 4 -18 19 -18 35 2 43 8 3 13 12 10 19 -3 8 -1 14 5 14 6 0 9
7 5 15 -3 8 -1 15 5 15 6 0 7 5 3 11 -11 19 17 28 36 12 14 -12 16 -22 10 -44z"/>
<path d="M2531 4992 c-7 -14 -5 -21 10 -30 15 -10 19 -9 19 2 0 8 5 16 10 18
6 2 1 9 -10 15 -16 11 -21 10 -29 -5z"/>
<path d="M2603 4985 c-8 -9 -9 -15 0 -24 17 -17 37 -13 37 8 0 23 -21 33 -37
16z"/>
<path d="M2810 4851 c0 -23 21 -33 37 -16 8 9 9 15 0 24 -17 17 -37 13 -37 -8z"/>
<path d="M2834 4775 c-10 -26 13 -42 32 -23 15 15 15 17 -5 27 -17 10 -22 9
-27 -4z"/>
<path d="M2534 4775 c-4 -9 4 -23 17 -34 21 -17 26 -18 39 -5 13 13 12 17 -10
34 -30 24 -39 25 -46 5z"/>
<path d="M2565 4706 c-16 -11 -16 -13 0 -26 13 -11 18 -11 30 1 20 21 -5 43
-30 25z"/>
<path d="M2092 4294 c-11 -12 -11 -18 -2 -29 10 -12 14 -12 27 1 14 13 14 17
2 29 -12 11 -16 11 -27 -1z"/>
<path d="M2357 4103 c-14 -13 -6 -34 16 -42 12 -5 31 -17 42 -28 12 -10 27
-19 35 -21 8 -2 22 -10 31 -18 8 -8 21 -14 27 -14 7 0 12 -4 12 -8 0 -5 19
-17 43 -27 23 -10 60 -30 82 -44 22 -14 42 -26 45 -26 3 0 10 -4 16 -8 7 -4
17 0 24 8 9 11 9 17 -2 27 -7 7 -19 14 -26 16 -7 1 -31 14 -52 27 -22 14 -40
22 -40 18 0 -5 -4 -3 -8 3 -6 10 -61 42 -79 46 -5 1 -17 10 -27 20 -11 10 -25
18 -31 18 -6 0 -20 8 -31 19 -19 17 -57 41 -67 41 -2 0 -7 -3 -10 -7z"/>
<path d="M2921 3061 c-7 -5 -10 -14 -7 -20 4 -6 2 -11 -3 -11 -6 0 -11 -5 -11
-11 0 -6 -14 -29 -31 -50 -17 -21 -27 -39 -23 -39 4 0 -2 -10 -14 -23 -12 -13
-19 -27 -15 -30 3 -4 1 -7 -5 -7 -7 0 -12 -7 -12 -15 0 -8 -5 -15 -12 -15 -6
0 -3 -6 8 -14 17 -13 21 -12 34 3 20 23 37 50 54 86 7 17 23 40 35 53 12 12
19 22 16 22 -3 0 2 11 11 25 24 37 8 67 -25 46z"/>
<path d="M2763 2794 c-8 -20 17 -36 34 -22 10 8 10 14 2 24 -15 18 -28 18 -36
-2z"/>
<path d="M2732 2757 c-6 -7 -18 -32 -28 -57 -10 -25 -22 -48 -28 -52 -15 -10
12 -38 30 -31 8 3 13 12 10 19 -3 8 -1 14 3 14 8 0 31 51 30 67 -1 3 5 9 12
13 9 6 9 12 -3 24 -13 12 -18 13 -26 3z"/>
<path d="M3254 2635 c-10 -26 13 -42 32 -23 15 15 15 17 -5 27 -17 10 -22 9
-27 -4z"/>
<path d="M3221 2516 c-10 -12 -8 -17 8 -25 22 -12 37 0 27 24 -7 19 -20 19
-35 1z"/>
<path d="M3157 2346 c-9 -22 18 -40 33 -22 6 9 9 20 5 26 -9 15 -32 12 -38 -4z"/>
<path d="M3102 2207 c-14 -17 2 -42 22 -34 20 8 20 21 2 36 -10 8 -16 8 -24
-2z"/>
<path d="M3440 2270 c0 -11 5 -20 10 -20 6 0 10 -6 10 -14 0 -20 26 -27 40
-11 9 10 6 19 -11 39 -27 31 -49 34 -49 6z"/>
<path d="M3401 2202 c-8 -15 -7 -23 4 -32 8 -7 15 -9 15 -5 0 4 7 2 16 -6 13
-10 17 -10 25 2 13 21 11 27 -13 35 -13 4 -26 11 -29 17 -4 5 -12 1 -18 -11z"/>
<path d="M3292 2009 c-22 -27 -22 -28 -4 -38 15 -8 23 -5 39 18 19 25 20 28 4
38 -12 8 -21 4 -39 -18z"/>
<path d="M2428 2516 c-22 -16 -23 -30 -4 -45 11 -9 15 -8 20 4 3 9 10 13 16
10 5 -3 10 1 10 9 0 9 6 16 13 16 8 0 7 4 -3 10 -20 13 -32 12 -52 -4z"/>
<path d="M2371 2467 c-15 -15 -14 -24 5 -31 8 -3 21 0 29 7 11 11 10 15 -5 25
-13 8 -20 8 -29 -1z"/>
<path d="M2603 2482 c-12 -20 4 -41 25 -34 16 5 15 27 -1 40 -9 8 -16 6 -24
-6z"/>
</g>
</svg>
