<?xml version="1.0" standalone="no"?>
<!DOCTYPE svg PUBLIC "-//W3C//DTD SVG 20010904//EN"
 "http://www.w3.org/TR/2001/REC-SVG-20010904/DTD/svg10.dtd">
<svg version="1.0" xmlns="http://www.w3.org/2000/svg"
 width="352.000000pt" height="323.000000pt" viewBox="0 0 352.000000 323.000000"
 preserveAspectRatio="xMidYMid meet">
<metadata>
Created by potrace 1.13, written by Peter Selinger 2001-2015
</metadata>
<g transform="translate(0.000000,323.000000) scale(0.100000,-0.100000)"
fill="#000000" stroke="none">
<path d="M2623 2895 c-17 -7 -36 -23 -43 -34 -6 -11 -23 -27 -39 -35 -21 -11
-30 -25 -34 -54 -7 -39 -37 -70 -102 -102 -22 -11 -31 -23 -33 -47 -3 -28 2
-35 35 -56 62 -40 76 -62 81 -126 4 -60 -16 -174 -44 -240 -21 -50 -109 -138
-168 -167 -52 -25 -131 -32 -164 -15 -9 5 -32 15 -50 22 -18 6 -39 24 -47 39
-30 58 -53 177 -59 300 -6 141 -13 193 -33 230 -7 14 -13 30 -13 36 0 5 -15
24 -32 41 -28 27 -44 33 -110 41 -107 14 -154 2 -205 -51 -46 -49 -67 -98 -78
-182 -9 -73 -17 -90 -55 -110 -60 -31 -87 -18 -125 59 -11 22 -37 69 -57 104
-33 59 -42 67 -95 88 -69 28 -94 29 -163 7 -83 -27 -123 -72 -168 -188 -22
-55 -45 -118 -52 -140 -7 -22 -25 -66 -41 -97 -15 -32 -34 -83 -43 -115 -8
-32 -33 -103 -56 -158 -42 -101 -52 -151 -69 -337 -11 -117 -29 -149 -108
-185 -44 -20 -53 -29 -54 -51 -7 -210 -35 -384 -75 -479 -22 -49 -17 -77 16
-101 16 -13 30 -28 30 -35 0 -7 18 -38 40 -69 45 -65 64 -106 74 -160 4 -21
15 -42 26 -48 10 -5 73 -10 140 -10 l120 0 11 27 c16 42 4 93 -31 127 -27 27
-37 31 -94 32 -89 3 -99 8 -142 70 -36 52 -39 61 -39 127 0 74 24 199 52 275
17 46 37 62 78 62 14 0 35 5 46 10 22 12 24 4 9 -35 -9 -23 -6 -34 20 -73 16
-25 30 -53 30 -61 0 -9 19 -43 41 -76 22 -33 69 -119 104 -192 60 -121 65
-137 65 -196 0 -106 -3 -105 235 -109 l200 -3 3 70 c3 69 2 71 -33 105 l-36
35 -131 0 -131 0 -28 45 c-25 41 -68 191 -85 299 -6 35 -3 46 15 65 11 12 28
45 36 73 8 28 22 56 31 64 8 7 22 26 31 43 8 17 27 43 41 58 24 26 26 27 60
12 20 -8 81 -26 137 -40 95 -25 111 -26 322 -22 156 2 225 0 233 -8 13 -13
-12 -170 -32 -208 -10 -19 -31 -157 -31 -206 1 -62 -30 -239 -48 -280 -29 -64
-36 -143 -16 -174 27 -40 76 -50 216 -43 143 8 148 10 168 88 13 49 12 54 -8
75 -23 24 -97 47 -114 35 -15 -12 -86 -1 -91 14 -3 7 9 66 27 132 17 65 39
152 49 193 17 74 47 180 76 273 9 26 20 47 25 47 6 0 16 -15 24 -34 13 -31 85
-93 127 -109 34 -12 47 -51 58 -177 6 -69 18 -138 25 -155 14 -30 24 -81 46
-235 13 -99 28 -120 78 -120 20 1 83 -3 141 -9 l105 -9 22 26 c17 20 22 38 20
67 -2 33 -8 44 -45 72 -40 30 -50 33 -113 33 -62 0 -70 2 -79 22 -18 43 -42
163 -50 248 -5 47 -16 119 -25 160 -16 73 -16 98 3 190 17 87 35 130 52 130 9
0 25 9 34 19 10 11 30 25 46 31 17 7 43 34 62 63 18 29 46 66 61 84 30 34 107
214 107 251 0 12 8 34 17 49 17 25 20 42 42 203 5 41 15 89 21 105 8 19 10 56
6 101 l-7 71 42 42 c33 33 49 41 78 41 43 0 57 8 80 46 13 21 34 35 76 49 54
18 61 25 88 73 36 67 31 111 -16 153 -18 16 -45 42 -62 58 -40 38 -76 43 -143
20 -62 -21 -77 -16 -87 31 -8 37 -64 82 -129 103 -59 20 -81 21 -123 2z"/>
</g>
</svg>
