<?xml version="1.0" standalone="no"?>
<!DOCTYPE svg PUBLIC "-//W3C//DTD SVG 20010904//EN"
 "http://www.w3.org/TR/2001/REC-SVG-20010904/DTD/svg10.dtd">
<svg version="1.0" xmlns="http://www.w3.org/2000/svg"
 width="390.000000pt" height="307.000000pt" viewBox="0 0 390.000000 307.000000"
 preserveAspectRatio="xMidYMid meet">
<metadata>
Created by potrace 1.13, written by Peter Selinger 2001-2015
</metadata>
<g transform="translate(0.000000,307.000000) scale(0.100000,-0.100000)"
fill="#000000" stroke="none">
<path d="M2785 2650 c-3 -5 -24 -10 -46 -10 -27 0 -46 -7 -61 -22 -12 -13 -43
-30 -68 -38 l-45 -15 -6 -75 c-3 -51 -14 -93 -32 -133 -31 -66 -33 -105 -11
-197 8 -36 17 -76 20 -91 9 -41 -30 -97 -73 -105 -54 -10 -163 46 -214 110
-46 57 -53 80 -46 143 4 35 11 51 31 66 42 31 35 69 -20 111 -25 20 -61 55
-79 78 l-34 43 -93 -1 c-72 0 -99 -4 -120 -18 -16 -11 -35 -15 -47 -11 -15 4
-28 -1 -45 -19 -13 -14 -33 -26 -44 -26 -12 0 -26 -9 -32 -19 -17 -33 -12
-118 11 -167 26 -57 22 -91 -14 -118 l-28 -21 -36 20 c-55 30 -61 47 -40 102
10 27 24 68 30 92 10 41 9 45 -12 60 -12 9 -36 28 -52 44 -23 20 -36 26 -55
21 -17 -4 -31 -1 -44 11 -14 13 -28 16 -55 11 -23 -5 -42 -3 -51 5 -10 8 -21
9 -41 1 -16 -6 -49 -13 -74 -17 -33 -4 -54 -14 -74 -35 -16 -17 -38 -30 -49
-30 -10 0 -28 -7 -38 -17 -10 -9 -28 -21 -41 -28 -31 -16 -26 -72 18 -211 6
-18 -14 -40 -132 -142 -137 -119 -169 -157 -249 -293 -69 -115 -82 -273 -33
-386 15 -35 19 -60 15 -91 -6 -46 6 -77 56 -142 21 -28 28 -51 34 -112 7 -82
18 -101 78 -129 72 -35 87 -268 27 -423 -38 -97 -33 -110 46 -126 32 -7 71
-16 87 -21 19 -6 52 -5 90 2 66 12 90 22 121 50 15 14 40 19 100 21 l80 3 3
35 c5 50 -23 95 -85 136 -29 19 -53 36 -53 38 0 18 -25 125 -41 178 -14 46
-17 73 -11 85 5 10 12 38 16 63 4 25 14 56 23 69 8 13 16 40 17 60 2 37 60
171 74 171 4 0 12 -4 18 -9 34 -31 211 -79 334 -90 73 -7 68 5 50 -116 -6 -40
-20 -82 -31 -98 -32 -45 -19 -85 52 -162 l61 -65 -6 -52 c-13 -103 -29 -154
-69 -222 l-40 -69 23 -19 c12 -10 28 -18 36 -18 7 0 29 -9 48 -21 31 -18 43
-19 123 -12 48 4 95 6 103 5 42 -8 72 -3 93 15 21 20 46 27 129 40 46 6 75 37
83 88 6 34 3 43 -19 64 -28 26 -84 40 -167 41 -84 0 -94 12 -85 99 5 63 11 79
45 124 48 63 61 95 61 149 0 35 8 50 53 102 29 34 58 74 65 89 14 34 29 28 49
-21 8 -19 32 -59 54 -88 45 -61 72 -69 109 -30 12 14 37 28 54 32 17 3 39 13
48 21 11 10 28 13 45 10 30 -5 90 20 113 48 7 9 29 23 48 30 41 18 202 181
202 206 0 10 5 21 10 24 6 3 10 31 10 62 0 38 5 62 16 74 10 11 18 44 21 86 3
37 11 75 19 83 19 22 3 123 -25 158 -41 51 -46 69 -27 97 14 22 15 31 5 65 -7
22 -18 45 -26 51 -32 27 1 61 50 52 37 -7 41 -17 22 -52 -32 -63 -3 -161 49
-161 14 0 28 -4 31 -10 3 -5 25 -10 49 -10 33 0 48 6 68 28 30 31 48 71 48
108 0 14 11 47 25 75 19 37 26 65 25 107 0 31 0 85 2 120 2 60 1 64 -38 103
-46 48 -113 82 -209 106 -69 18 -70 19 -73 55 -2 20 -12 44 -23 53 -10 10 -19
25 -19 34 0 25 -27 58 -62 75 -35 18 -173 22 -183 6z"/>
</g>
</svg>
