<?xml version="1.0" standalone="no"?>
<!DOCTYPE svg PUBLIC "-//W3C//DTD SVG 20010904//EN"
 "http://www.w3.org/TR/2001/REC-SVG-20010904/DTD/svg10.dtd">
<svg version="1.0" xmlns="http://www.w3.org/2000/svg"
 width="376.000000pt" height="320.000000pt" viewBox="0 0 376.000000 320.000000"
 preserveAspectRatio="xMidYMid meet">
<metadata>
Created by potrace 1.13, written by Peter Selinger 2001-2015
</metadata>
<g transform="translate(0.000000,320.000000) scale(0.100000,-0.100000)"
fill="#000000" stroke="none">
<path d="M1135 2820 c-94 -9 -112 -15 -167 -61 -26 -21 -54 -39 -64 -39 -9 0
-35 -9 -58 -19 -39 -18 -89 -33 -148 -46 -15 -3 -33 -15 -39 -28 -6 -12 -19
-29 -29 -37 -14 -13 -16 -25 -11 -78 6 -55 11 -67 44 -99 l37 -37 103 -2 c78
0 109 -5 128 -18 43 -27 62 -91 40 -134 -4 -9 -21 -42 -36 -72 -15 -30 -39
-75 -52 -100 -22 -39 -25 -53 -20 -105 3 -33 1 -106 -5 -161 -12 -121 -3 -149
66 -207 32 -26 49 -51 61 -88 12 -34 38 -73 79 -120 46 -51 80 -104 134 -211
80 -162 98 -228 81 -311 -29 -142 -40 -165 -99 -202 -49 -31 -54 -66 -12 -92
15 -9 57 -48 93 -85 62 -64 69 -68 110 -68 55 0 118 17 142 38 15 13 17 36 17
191 1 282 30 448 101 583 5 10 9 26 9 36 0 20 29 52 47 52 6 0 42 -13 80 -29
89 -37 164 -45 282 -31 51 6 102 8 112 5 11 -4 30 -25 44 -48 13 -24 39 -56
56 -72 73 -70 89 -187 43 -316 -34 -94 -63 -138 -119 -177 -53 -37 -60 -72
-21 -97 22 -15 30 -14 101 6 68 20 82 21 118 10 23 -7 79 -20 123 -28 80 -16
82 -16 110 5 36 26 99 163 150 327 34 111 37 130 39 255 1 111 5 147 24 200
28 82 68 167 82 175 21 14 47 -27 58 -89 14 -82 49 -186 69 -209 25 -29 64
-18 84 23 13 27 18 66 19 175 2 172 -2 184 -111 302 -44 47 -80 89 -80 94 0 5
-15 32 -34 61 -31 49 -105 123 -205 206 -34 29 -42 43 -55 103 -16 66 -20 72
-92 142 -42 39 -84 74 -93 76 -9 1 -23 9 -32 17 -10 9 -41 15 -85 15 -88 2
-140 -23 -191 -91 -21 -28 -43 -50 -49 -50 -7 0 -21 15 -32 33 -45 71 -118
117 -186 117 -100 -1 -179 -39 -207 -100 -6 -14 -15 -32 -19 -41 -5 -9 -14
-44 -21 -78 -14 -72 -34 -102 -85 -126 -32 -15 -38 -15 -51 -2 -23 23 -27 88
-9 150 9 30 16 73 16 95 0 23 5 44 10 47 19 11 2 122 -22 150 -4 5 -8 33 -8
63 0 79 -28 132 -92 175 -117 77 -158 88 -273 77z"/>
</g>
</svg>
