<?xml version="1.0" standalone="no"?>
<!DOCTYPE svg PUBLIC "-//W3C//DTD SVG 20010904//EN"
 "http://www.w3.org/TR/2001/REC-SVG-20010904/DTD/svg10.dtd">
<svg version="1.0" xmlns="http://www.w3.org/2000/svg"
 width="383.000000pt" height="336.000000pt" viewBox="0 0 383.000000 336.000000"
 preserveAspectRatio="xMidYMid meet">
<metadata>
Created by potrace 1.13, written by Peter Selinger 2001-2015
</metadata>
<g transform="translate(0.000000,336.000000) scale(0.100000,-0.100000)"
fill="#000000" stroke="none">
<path d="M1015 3056 c-11 -7 -37 -19 -57 -25 -59 -19 -86 -47 -129 -134 -35
-72 -40 -89 -37 -141 l3 -60 -46 -15 c-90 -32 -122 -65 -133 -138 -8 -57 16
-83 77 -83 23 0 53 -7 66 -17 17 -11 47 -16 100 -17 101 -1 109 -8 73 -54 -16
-20 -43 -62 -60 -93 -18 -31 -39 -62 -48 -70 -11 -9 -13 -22 -9 -49 3 -20 1
-49 -6 -65 -6 -17 -13 -55 -15 -85 -1 -30 -5 -98 -9 -150 -7 -112 -8 -96 3
-237 5 -68 14 -119 22 -128 9 -10 16 -51 18 -106 3 -49 10 -93 16 -98 6 -5 24
-11 41 -13 19 -2 34 -11 42 -27 6 -13 18 -28 26 -33 8 -4 18 -20 22 -35 13
-54 83 -113 134 -113 9 0 24 -14 33 -30 11 -20 28 -33 48 -36 16 -4 30 -12 30
-19 0 -19 40 -66 51 -59 6 4 6 10 0 18 -11 13 -5 26 10 26 12 0 39 -60 39 -86
0 -41 -41 -198 -60 -229 -25 -40 -73 -76 -136 -100 -32 -12 -76 -43 -114 -78
-55 -52 -61 -60 -53 -83 18 -54 216 -100 261 -62 9 9 32 23 49 32 46 23 113
117 113 157 0 18 -6 40 -14 48 -12 14 -11 31 8 123 11 58 24 109 27 112 3 4
36 -7 73 -24 74 -33 79 -40 111 -166 20 -80 16 -104 -18 -104 -14 0 -47 -20
-82 -51 -32 -27 -69 -57 -82 -66 -30 -20 -48 -62 -33 -77 5 -5 31 -16 58 -23
66 -18 266 2 302 30 14 10 40 25 58 32 50 22 49 38 -7 103 -37 42 -53 71 -57
98 -4 22 -17 75 -30 118 -16 50 -22 90 -19 108 5 19 1 37 -10 54 -9 14 -13 33
-10 43 7 24 90 112 118 126 20 10 22 19 22 85 l0 75 125 8 c183 11 167 18 204
-93 29 -89 33 -95 61 -100 17 -3 45 -16 63 -30 30 -24 31 -27 22 -70 -28 -131
-44 -191 -52 -196 -4 -3 -8 -16 -8 -29 0 -16 -10 -28 -37 -42 -21 -11 -51 -27
-68 -35 -16 -9 -50 -24 -75 -34 -25 -10 -75 -36 -112 -58 -52 -30 -68 -45 -68
-61 0 -31 16 -42 90 -61 54 -13 78 -14 147 -5 91 11 103 15 103 35 0 8 29 39
66 71 58 51 64 61 59 85 -7 32 8 161 31 265 20 89 40 112 111 121 53 6 55 6
95 -32 l40 -39 -7 -130 c-4 -79 -11 -134 -18 -141 -7 -7 -49 -24 -94 -38 -45
-15 -87 -34 -93 -42 -7 -8 -16 -14 -21 -14 -5 0 -27 -12 -49 -26 -51 -34 -56
-75 -12 -98 16 -8 38 -13 48 -10 10 3 80 9 154 14 158 10 245 24 266 40 9 8
14 31 14 61 0 47 -2 50 -48 83 -47 34 -48 35 -50 95 -2 38 7 96 22 158 14 54
30 126 36 160 9 45 20 69 41 89 18 17 29 38 29 55 0 15 7 40 15 55 8 16 15 36
15 45 0 8 15 42 33 75 27 51 33 74 42 169 8 90 13 110 27 113 22 4 65 -69 74
-125 5 -32 1 -52 -16 -88 -24 -49 -17 -75 20 -75 27 0 70 96 70 157 0 62 -65
195 -140 290 -28 34 -50 68 -50 74 0 6 -13 35 -30 64 -33 58 -109 134 -161
160 -56 28 -79 55 -79 91 0 19 -11 57 -23 86 -13 29 -32 76 -42 103 -33 92
-103 142 -187 132 -26 -3 -56 -11 -67 -17 -37 -19 -71 -76 -87 -146 -8 -38
-20 -77 -25 -86 -5 -10 -9 -33 -9 -52 0 -39 -17 -56 -57 -59 -26 -2 -28 0 -29
38 -1 80 -5 93 -46 154 -56 84 -98 106 -186 96 -54 -6 -70 -12 -103 -42 -46
-42 -83 -115 -99 -200 -10 -52 -18 -67 -46 -88 -18 -14 -42 -25 -53 -25 -12 0
-26 -11 -35 -27 -8 -16 -30 -43 -49 -61 -38 -37 -54 -30 -42 16 12 47 26 135
29 189 2 28 8 57 12 65 5 7 9 22 10 33 0 11 6 53 13 93 8 42 10 96 6 127 -4
34 -2 55 5 60 10 6 7 165 -4 184 -3 4 4 32 15 62 29 80 20 117 -42 164 -35 26
-56 36 -73 33 -19 -4 -35 5 -68 39 -29 30 -59 48 -92 58 -64 19 -214 20 -241
1z"/>
</g>
</svg>
