<?xml version="1.0" standalone="no"?>
<!DOCTYPE svg PUBLIC "-//W3C//DTD SVG 20010904//EN"
 "http://www.w3.org/TR/2001/REC-SVG-20010904/DTD/svg10.dtd">
<svg version="1.0" xmlns="http://www.w3.org/2000/svg"
 width="397.000000pt" height="355.000000pt" viewBox="0 0 397.000000 355.000000"
 preserveAspectRatio="xMidYMid meet">
<metadata>
Created by potrace 1.13, written by Peter Selinger 2001-2015
</metadata>
<g transform="translate(0.000000,355.000000) scale(0.100000,-0.100000)"
fill="#000000" stroke="none">
<path d="M864 3185 c-10 -8 -27 -15 -38 -15 -10 0 -37 -19 -61 -42 -50 -50
-62 -102 -38 -156 20 -42 9 -56 -60 -77 -147 -45 -160 -51 -188 -83 -47 -53
-72 -110 -64 -146 4 -17 8 -48 9 -68 2 -37 37 -88 61 -88 7 0 20 -9 30 -20 22
-24 77 -27 95 -5 24 29 34 0 16 -45 -9 -22 -16 -58 -16 -80 0 -49 43 -148 67
-156 24 -8 55 -22 73 -34 33 -22 130 -60 168 -66 51 -8 68 -27 75 -82 3 -25
17 -56 34 -78 65 -83 178 -194 212 -210 45 -21 201 -177 201 -202 0 -10 -20
-32 -45 -50 -36 -25 -45 -37 -45 -61 0 -16 5 -33 11 -36 5 -4 20 -28 32 -53
18 -37 29 -48 52 -52 26 -5 30 -9 27 -35 -4 -31 -101 -239 -134 -287 -44 -63
-82 -148 -97 -218 l-16 -75 -40 -7 c-22 -4 -78 -3 -125 2 -90 10 -90 10 -153
-43 -55 -46 -37 -142 31 -168 15 -6 51 -22 81 -36 29 -15 68 -26 85 -26 60 1
171 24 213 44 42 20 43 22 43 70 0 33 8 66 24 97 13 26 59 126 101 222 42 96
92 205 111 241 19 37 34 78 34 92 0 48 51 64 165 54 22 -2 53 -9 68 -15 16 -7
34 -12 41 -12 25 0 33 -25 55 -180 12 -85 26 -183 32 -216 15 -103 12 -121
-27 -170 -23 -28 -45 -44 -58 -44 -12 0 -31 -7 -42 -15 -10 -8 -31 -15 -45
-15 -30 0 -109 -86 -109 -118 0 -11 16 -33 36 -49 20 -15 53 -46 75 -68 39
-40 40 -40 113 -40 71 1 76 2 129 43 86 67 91 91 71 332 -9 102 -20 193 -25
202 -5 10 -22 92 -39 183 -16 91 -34 175 -40 185 -8 16 -7 27 7 50 14 25 24
30 54 30 62 0 90 59 53 115 -26 39 -11 46 89 41 57 -3 125 1 180 10 48 8 92
12 97 9 18 -11 11 -24 -21 -40 -25 -14 -30 -21 -27 -48 3 -30 6 -32 48 -35 88
-6 89 -22 14 -240 -30 -90 -64 -196 -74 -237 -33 -130 -48 -153 -126 -194 -64
-34 -69 -38 -72 -73 -5 -63 68 -188 111 -188 43 0 163 95 193 152 20 39 17 92
-7 140 -20 38 -20 47 -9 93 6 27 20 86 30 130 10 44 37 136 59 205 45 142 71
177 137 187 21 3 47 10 56 15 12 6 25 4 41 -6 12 -9 53 -17 91 -19 67 -4 69
-5 84 -38 10 -22 18 -83 23 -174 9 -165 22 -279 38 -319 7 -16 10 -35 7 -41
-7 -20 -125 -105 -145 -105 -10 0 -30 -9 -45 -21 -23 -18 -26 -28 -26 -78 0
-47 4 -61 23 -79 13 -12 27 -22 31 -22 4 0 20 -10 37 -22 24 -18 33 -20 49
-11 11 8 37 10 69 6 48 -5 55 -3 120 40 63 42 71 51 84 97 14 47 14 53 -5 91
-52 108 -68 184 -68 321 0 130 -18 245 -43 277 -6 7 -13 57 -15 111 -4 81 0
111 18 169 26 86 20 101 -46 101 -42 0 -45 2 -89 62 -25 34 -45 67 -45 73 0 6
18 29 41 50 41 40 77 104 89 160 9 40 38 37 110 -13 83 -56 114 -109 121 -207
3 -44 4 -88 1 -97 -2 -10 -26 -34 -54 -53 -27 -20 -51 -43 -54 -53 -4 -9 -12
-31 -20 -49 -8 -18 -14 -65 -14 -116 0 -71 4 -89 23 -117 60 -89 197 -68 263
40 27 46 33 66 35 120 2 76 -13 163 -35 205 -9 17 -16 47 -16 67 0 89 -47 206
-115 288 -93 112 -175 222 -175 235 0 7 -27 48 -61 91 -59 78 -60 80 -54 129
4 33 13 55 26 64 28 20 23 48 -16 94 -31 36 -35 46 -28 72 13 48 7 150 -9 181
-28 53 -56 108 -84 169 -18 36 -42 68 -61 81 -42 28 -141 47 -201 38 -93 -13
-183 -78 -198 -142 -4 -15 -14 -34 -24 -42 -27 -24 -42 -117 -34 -214 l7 -85
-47 -45 c-29 -29 -46 -54 -46 -69 0 -30 42 -77 70 -77 27 0 26 -26 -2 -33 -78
-19 -119 -19 -138 -2 -28 26 -25 50 13 92 51 58 52 67 7 124 -27 34 -39 58
-36 72 3 12 10 45 16 74 15 65 0 146 -35 193 -13 18 -52 56 -85 84 -97 83
-215 107 -310 63 -19 -8 -46 -18 -60 -22 -37 -10 -116 -63 -133 -88 -25 -39
-46 -120 -53 -205 -7 -88 -22 -112 -69 -112 -53 0 -58 -46 -10 -89 31 -26 44
-31 90 -31 61 0 80 -16 47 -38 -28 -19 -28 -33 3 -62 14 -13 25 -33 25 -46 0
-25 -57 -114 -80 -125 -72 -34 -223 -57 -246 -38 -19 15 -18 63 1 79 9 8 15
28 14 54 0 22 2 74 6 114 7 70 7 74 -24 123 -35 56 -36 61 -19 88 9 15 9 29 1
58 -7 21 -17 61 -23 88 -7 28 -16 59 -22 70 -7 16 -3 33 17 74 27 52 27 53 10
97 -27 71 -90 99 -159 70 -35 -15 -39 -14 -64 4 -25 19 -31 19 -82 6 -47 -12
-57 -12 -74 0 -27 18 -87 18 -112 -1z"/>
</g>
</svg>
