<?xml version="1.0" standalone="no"?>
<!DOCTYPE svg PUBLIC "-//W3C//DTD SVG 20010904//EN"
 "http://www.w3.org/TR/2001/REC-SVG-20010904/DTD/svg10.dtd">
<svg version="1.0" xmlns="http://www.w3.org/2000/svg"
 width="368.000000pt" height="313.000000pt" viewBox="0 0 368.000000 313.000000"
 preserveAspectRatio="xMidYMid meet">
<metadata>
Created by potrace 1.13, written by Peter Selinger 2001-2015
</metadata>
<g transform="translate(0.000000,313.000000) scale(0.100000,-0.100000)"
fill="#000000" stroke="none">
<path d="M1370 2771 c-82 -26 -114 -46 -157 -96 -31 -37 -54 -51 -105 -69 -90
-32 -226 -125 -290 -198 -29 -34 -81 -89 -115 -123 -78 -77 -108 -141 -117
-250 -13 -143 26 -194 150 -199 30 -2 57 -6 61 -9 3 -4 23 -7 44 -7 33 0 43 6
80 50 46 54 91 71 135 51 21 -9 24 -17 24 -59 0 -27 -9 -82 -19 -123 -10 -41
-22 -101 -26 -134 -4 -33 -14 -68 -22 -77 -13 -15 -13 -22 1 -65 8 -26 18 -66
22 -88 3 -22 12 -47 19 -55 6 -8 24 -36 38 -62 20 -34 44 -56 89 -84 63 -37
138 -106 138 -126 0 -6 32 -41 71 -79 87 -84 101 -120 92 -244 -6 -84 -5 -86
22 -115 27 -28 27 -30 15 -79 -6 -27 -18 -55 -26 -62 -8 -6 -14 -17 -14 -23 0
-7 -13 -25 -30 -41 -16 -16 -30 -36 -30 -45 0 -21 51 -70 74 -70 10 0 42 -7
71 -16 30 -8 78 -14 107 -12 48 3 54 6 67 33 16 31 17 71 6 142 -7 41 1 79 39
201 10 31 11 54 4 87 -12 58 -3 70 60 78 69 8 178 56 247 109 33 25 74 52 90
61 130 70 152 72 172 11 8 -23 34 -65 58 -93 25 -29 45 -55 45 -57 0 -3 -10
-18 -22 -34 l-22 -30 21 -22 c36 -40 43 -65 43 -155 0 -104 -9 -126 -70 -168
-47 -33 -63 -72 -38 -92 17 -12 189 -53 225 -53 72 0 153 42 153 79 0 9 -11
40 -25 70 -31 65 -27 94 22 200 29 62 33 77 24 102 -7 22 -6 41 5 77 29 90 42
165 32 182 -7 11 -5 28 7 55 20 48 51 181 67 285 15 107 16 109 37 83 29 -35
45 -158 37 -291 -6 -107 -5 -120 14 -157 17 -32 21 -58 21 -124 0 -53 5 -93
14 -111 21 -40 70 -78 117 -90 36 -10 43 -9 64 11 35 33 39 69 13 138 -16 45
-33 70 -64 95 -53 44 -61 65 -74 196 -24 221 -32 277 -53 340 -27 83 -82 173
-128 210 -20 16 -44 48 -54 72 -10 24 -24 57 -31 73 -7 17 -28 77 -45 135 -52
173 -58 187 -106 226 -40 33 -49 36 -89 32 -62 -8 -86 -26 -134 -107 -42 -72
-80 -107 -103 -98 -7 2 -24 57 -37 120 -21 99 -29 121 -57 151 -31 34 -36 36
-97 36 -37 0 -81 -7 -103 -16 -47 -20 -228 -194 -254 -245 -11 -21 -32 -41
-49 -49 -21 -8 -44 -33 -68 -74 -46 -76 -110 -146 -133 -146 -52 0 -98 87
-119 222 -14 87 1 324 25 411 7 26 11 54 7 62 -3 9 0 21 6 29 30 36 62 118 71
180 6 38 15 75 20 81 15 18 1 45 -27 56 -34 13 -69 10 -133 -10z"/>
</g>
</svg>
