<?xml version="1.0" standalone="no"?>
<!DOCTYPE svg PUBLIC "-//W3C//DTD SVG 20010904//EN"
 "http://www.w3.org/TR/2001/REC-SVG-20010904/DTD/svg10.dtd">
<svg version="1.0" xmlns="http://www.w3.org/2000/svg"
 width="324.000000pt" height="343.000000pt" viewBox="0 0 324.000000 343.000000"
 preserveAspectRatio="xMidYMid meet">
<metadata>
Created by potrace 1.13, written by Peter Selinger 2001-2015
</metadata>
<g transform="translate(0.000000,343.000000) scale(0.100000,-0.100000)"
fill="#000000" stroke="none">
<path d="M2309 3153 c-68 -75 -101 -147 -119 -256 -5 -33 -18 -69 -28 -81 -44
-49 -65 -102 -59 -153 3 -26 1 -56 -4 -65 -7 -13 -3 -22 21 -39 51 -38 69 -85
63 -165 -6 -80 -23 -114 -58 -114 -25 0 -65 -42 -65 -68 0 -9 14 -30 30 -47
l31 -32 -26 -78 c-29 -90 -30 -92 -108 -157 -68 -56 -116 -65 -141 -25 -16 25
-32 131 -35 232 -3 105 -26 169 -77 210 -46 38 -75 43 -150 24 -71 -18 -95
-56 -174 -274 -19 -49 -41 -99 -51 -109 -18 -19 -19 -19 -39 -1 -14 13 -20 31
-20 60 0 105 -70 177 -156 160 -38 -7 -107 -63 -129 -104 -20 -39 -39 -175
-32 -232 8 -64 -2 -83 -56 -110 -78 -40 -128 -83 -168 -144 -21 -33 -54 -73
-74 -88 -19 -15 -41 -40 -49 -55 -25 -49 -30 -157 -11 -267 24 -141 54 -197
86 -159 10 12 9 32 0 99 -10 67 -10 96 -1 135 12 51 20 59 38 38 9 -12 15 -40
27 -138 10 -77 14 -87 53 -137 21 -26 42 -61 46 -78 7 -25 37 -69 80 -115 8
-8 33 -28 56 -45 23 -16 46 -41 51 -54 14 -35 -1 -170 -23 -206 -10 -16 -18
-44 -18 -62 0 -18 -7 -53 -16 -79 -26 -78 -13 -99 96 -142 46 -19 76 -22 189
-24 l133 -1 24 29 c13 16 23 34 24 40 0 20 -88 94 -112 94 -13 0 -46 15 -73
33 -59 38 -65 62 -40 159 18 71 34 93 74 101 49 10 162 109 222 195 34 48 64
55 73 18 3 -14 18 -31 33 -38 14 -7 29 -20 33 -28 4 -8 11 -24 17 -35 14 -29
-1 -164 -27 -232 -13 -34 -19 -69 -16 -85 3 -16 0 -39 -6 -53 -8 -19 -8 -39 2
-82 17 -73 33 -93 78 -93 20 0 49 -4 66 -9 58 -18 241 -31 279 -20 20 5 38 13
41 17 2 4 -6 30 -19 57 -17 39 -38 61 -90 98 -37 27 -77 52 -89 57 -20 7 -24
18 -29 86 -10 116 -8 206 6 230 23 39 111 134 124 134 16 0 43 58 43 90 0 12
20 43 45 69 33 35 45 56 45 78 0 17 8 41 19 54 10 13 22 40 26 59 4 19 16 62
27 95 12 35 22 101 25 158 5 88 8 100 33 126 15 15 31 34 36 42 11 18 70 59
84 59 25 0 210 207 210 235 0 12 9 45 19 75 23 67 21 228 -3 265 -8 12 -17 37
-21 56 -5 29 -2 38 23 62 l30 29 39 -21 c29 -14 65 -21 134 -24 l94 -4 33 36
c18 20 36 47 39 61 3 14 14 36 24 50 14 19 18 41 16 95 -3 82 -18 115 -52 115
-14 0 -29 8 -34 19 -21 38 -96 54 -169 35 -70 -19 -158 -10 -188 18 -12 11
-37 27 -55 36 -37 18 -39 29 -18 97 20 67 19 155 -3 193 -11 17 -25 33 -31 34
-7 0 -25 2 -42 4 -16 2 -46 6 -66 9 -32 6 -38 3 -70 -32z"/>
</g>
</svg>
