<?xml version="1.0" standalone="no"?>
<!DOCTYPE svg PUBLIC "-//W3C//DTD SVG 20010904//EN"
 "http://www.w3.org/TR/2001/REC-SVG-20010904/DTD/svg10.dtd">
<svg version="1.0" xmlns="http://www.w3.org/2000/svg"
 width="352.000000pt" height="288.000000pt" viewBox="0 0 352.000000 288.000000"
 preserveAspectRatio="xMidYMid meet">
<metadata>
Created by potrace 1.13, written by Peter Selinger 2001-2015
</metadata>
<g transform="translate(0.000000,288.000000) scale(0.100000,-0.100000)"
fill="#000000" stroke="none">
<path d="M1634 1731 c-28 -3 -59 -13 -69 -21 -27 -22 -75 -101 -75 -123 0 -20
-18 -20 -92 -2 -30 8 -127 -32 -164 -66 -19 -18 -39 -21 -170 -25 -171 -6
-194 -9 -194 -28 0 -8 -19 -18 -43 -24 -23 -6 -52 -20 -65 -32 -31 -29 -30
-93 3 -142 19 -28 25 -50 25 -91 0 -39 6 -62 19 -78 17 -21 21 -22 58 -11 43
13 423 17 507 6 39 -6 46 -10 46 -30 0 -30 22 -51 70 -65 51 -15 92 1 121 47
44 71 57 75 255 72 l177 -3 17 -30 c15 -27 22 -30 73 -33 67 -4 114 17 122 53
3 14 7 36 10 49 3 17 16 28 38 35 24 8 42 26 65 64 29 47 32 61 32 129 0 49
-4 79 -12 85 -13 9 -189 48 -263 57 -48 6 -85 44 -85 87 0 37 -34 105 -59 119
-21 11 -260 12 -347 1z"/>
</g>
</svg>
