<?xml version="1.0" standalone="no"?>
<!DOCTYPE svg PUBLIC "-//W3C//DTD SVG 20010904//EN"
 "http://www.w3.org/TR/2001/REC-SVG-20010904/DTD/svg10.dtd">
<svg version="1.0" xmlns="http://www.w3.org/2000/svg"
 width="352.000000pt" height="288.000000pt" viewBox="0 0 352.000000 288.000000"
 preserveAspectRatio="xMidYMid meet">
<metadata>
Created by potrace 1.13, written by Peter Selinger 2001-2015
</metadata>
<g transform="translate(0.000000,288.000000) scale(0.100000,-0.100000)"
fill="#000000" stroke="none">
<path d="M1821 1747 c-28 -29 -35 -46 -40 -94 l-6 -58 -35 2 c-19 1 -57 5 -84
9 -40 5 -53 3 -78 -16 -19 -14 -40 -20 -60 -18 -23 2 -34 -2 -42 -17 -18 -33
-26 -35 -157 -35 -169 0 -246 -22 -289 -82 -35 -48 -37 -77 -10 -137 14 -30
20 -65 20 -117 0 -67 3 -76 25 -96 14 -12 25 -27 25 -34 0 -26 23 -62 47 -73
56 -26 132 -1 148 49 6 19 16 20 205 20 l200 0 6 -25 c11 -44 39 -55 144 -55
101 0 124 8 162 56 15 19 31 22 125 28 59 3 140 9 180 12 70 6 73 5 84 -18 16
-35 68 -57 152 -64 91 -8 109 5 161 110 31 65 36 84 36 146 0 58 5 79 25 114
14 23 28 63 31 89 6 42 4 49 -25 78 -31 31 -33 31 -104 25 -40 -3 -111 -8
-159 -12 l-88 -7 -16 39 c-9 22 -19 59 -21 84 -8 85 -9 87 -66 105 -39 13
-103 18 -257 22 l-205 5 -34 -35z"/>
</g>
</svg>
