<?xml version="1.0" standalone="no"?>
<!DOCTYPE svg PUBLIC "-//W3C//DTD SVG 20010904//EN"
 "http://www.w3.org/TR/2001/REC-SVG-20010904/DTD/svg10.dtd">
<svg version="1.0" xmlns="http://www.w3.org/2000/svg"
 width="352.000000pt" height="288.000000pt" viewBox="0 0 352.000000 288.000000"
 preserveAspectRatio="xMidYMid meet">
<metadata>
Created by potrace 1.13, written by Peter Selinger 2001-2015
</metadata>
<g transform="translate(0.000000,288.000000) scale(0.100000,-0.100000)"
fill="#000000" stroke="none">
<path d="M2159 1911 c-53 -17 -65 -32 -114 -130 -28 -55 -56 -101 -62 -101 -7
0 -19 13 -28 30 -40 78 -163 78 -195 0 -8 -20 -19 -30 -34 -30 -11 0 -38 -5
-59 -11 -30 -8 -39 -16 -43 -39 -4 -17 -14 -31 -28 -34 -36 -11 -237 -36 -283
-36 -49 0 -134 -35 -180 -74 -41 -35 -44 -79 -9 -139 21 -36 25 -61 31 -172 7
-118 9 -132 32 -160 36 -43 61 -54 122 -55 49 0 56 3 86 36 33 35 34 36 92 30
121 -12 325 -18 380 -11 48 6 63 13 90 41 40 43 53 43 53 0 0 -40 16 -87 33
-98 7 -4 52 -8 100 -8 84 0 90 1 117 28 15 16 34 47 41 70 17 57 40 62 270 62
l186 0 24 -35 c33 -49 60 -53 125 -22 40 20 58 36 74 66 11 22 20 47 20 55 0
8 21 30 46 48 34 24 55 49 75 93 16 33 29 67 29 75 0 8 7 23 14 33 13 17 13
60 1 123 -7 32 -48 44 -149 44 -145 0 -189 12 -251 67 -47 42 -55 55 -66 105
-21 102 -30 110 -150 130 -118 21 -351 32 -390 19z"/>
</g>
</svg>
