<?xml version="1.0" standalone="no"?>
<!DOCTYPE svg PUBLIC "-//W3C//DTD SVG 20010904//EN"
 "http://www.w3.org/TR/2001/REC-SVG-20010904/DTD/svg10.dtd">
<svg version="1.0" xmlns="http://www.w3.org/2000/svg"
 width="352.000000pt" height="288.000000pt" viewBox="0 0 352.000000 288.000000"
 preserveAspectRatio="xMidYMid meet">
<metadata>
Created by potrace 1.13, written by Peter Selinger 2001-2015
</metadata>
<g transform="translate(0.000000,288.000000) scale(0.100000,-0.100000)"
fill="#000000" stroke="none">
<path d="M2227 1910 c-60 -18 -84 -60 -95 -161 -9 -95 -26 -106 -74 -54 l-35
39 -57 -17 c-36 -10 -65 -25 -77 -41 -17 -21 -29 -26 -65 -26 -48 0 -84 -25
-84 -58 0 -37 -20 -42 -159 -42 -109 0 -150 -4 -206 -21 -73 -21 -192 -77
-203 -94 -10 -16 -2 -86 13 -116 10 -18 15 -59 15 -116 0 -104 30 -241 56
-260 10 -7 41 -13 69 -13 41 0 60 6 92 29 l40 29 214 4 c228 4 258 10 338 68
16 11 39 20 50 20 17 0 21 -6 21 -32 0 -41 31 -110 64 -143 38 -38 83 -34 143
13 63 50 113 108 113 131 0 26 41 31 240 31 l165 -1 18 -38 c20 -45 51 -61
116 -61 53 0 131 23 143 43 4 7 8 35 8 62 0 63 17 88 77 115 67 30 83 47 83
91 0 49 15 82 43 94 31 14 36 77 8 102 -12 10 -21 27 -21 38 0 38 -19 45 -125
45 -133 0 -215 15 -286 51 l-59 29 0 79 c0 96 -10 111 -78 111 -50 0 -206 25
-223 36 -6 3 -45 15 -87 25 -81 20 -148 23 -195 9z"/>
</g>
</svg>
