<?xml version="1.0" standalone="no"?>
<!DOCTYPE svg PUBLIC "-//W3C//DTD SVG 20010904//EN"
 "http://www.w3.org/TR/2001/REC-SVG-20010904/DTD/svg10.dtd">
<svg version="1.0" xmlns="http://www.w3.org/2000/svg"
 width="352.000000pt" height="288.000000pt" viewBox="0 0 352.000000 288.000000"
 preserveAspectRatio="xMidYMid meet">
<metadata>
Created by potrace 1.13, written by Peter Selinger 2001-2015
</metadata>
<g transform="translate(0.000000,288.000000) scale(0.100000,-0.100000)"
fill="#000000" stroke="none">
<path d="M1893 1118 c-30 -14 -48 -60 -34 -86 19 -36 13 -61 -18 -77 -41 -21
-125 -77 -133 -89 -3 -5 -9 -32 -13 -61 -5 -42 -12 -56 -35 -74 -16 -11 -42
-21 -58 -21 -25 0 -29 5 -40 45 -13 50 -40 82 -74 89 -13 2 -50 9 -83 16 -33
7 -112 15 -175 19 -128 7 -148 15 -213 91 -45 53 -119 86 -155 70 -37 -15
-136 -214 -116 -231 16 -14 68 2 99 30 11 10 29 20 41 23 17 4 22 -2 32 -37 8
-29 22 -51 47 -69 l35 -27 0 -97 c0 -53 -7 -132 -15 -176 -16 -81 -11 -106 21
-106 28 0 44 31 44 85 0 30 5 57 10 60 6 4 21 28 35 54 28 57 38 61 163 61
l93 0 16 -37 c9 -21 19 -73 22 -116 6 -78 16 -96 51 -97 9 0 26 7 38 16 20 14
22 23 22 105 l0 89 59 0 58 0 7 -90 c4 -50 9 -96 11 -103 7 -18 97 -76 141
-92 84 -30 156 -8 190 57 23 44 31 186 13 240 -14 45 -5 71 27 76 22 3 66 -69
89 -146 8 -26 24 -58 36 -71 20 -22 27 -23 103 -17 l81 7 40 -73 c37 -68 45
-75 105 -105 51 -25 78 -32 128 -32 82 -1 112 15 159 86 35 53 38 64 42 140 4
100 -1 122 -35 163 -24 28 -28 43 -33 127 -7 112 -16 123 -97 123 -72 0 -118
38 -161 131 -37 79 -57 93 -85 58 -28 -35 -51 -80 -57 -113 -5 -23 -16 -32
-59 -48 -52 -19 -66 -36 -85 -99 -6 -17 -48 -29 -102 -29 l-32 0 -12 88 c-6
48 -20 115 -31 149 -11 34 -20 71 -20 82 0 42 -42 61 -87 39z"/>
</g>
</svg>
