<?xml version="1.0" standalone="no"?>
<!DOCTYPE svg PUBLIC "-//W3C//DTD SVG 20010904//EN"
 "http://www.w3.org/TR/2001/REC-SVG-20010904/DTD/svg10.dtd">
<svg version="1.0" xmlns="http://www.w3.org/2000/svg"
 width="352.000000pt" height="288.000000pt" viewBox="0 0 352.000000 288.000000"
 preserveAspectRatio="xMidYMid meet">
<metadata>
Created by potrace 1.13, written by Peter Selinger 2001-2015
</metadata>
<g transform="translate(0.000000,288.000000) scale(0.100000,-0.100000)"
fill="#000000" stroke="none">
<path d="M2594 1129 c-5 -8 -9 -54 -9 -104 l0 -90 -46 -6 c-64 -10 -88 -25
-106 -67 -8 -20 -30 -62 -49 -93 -22 -36 -34 -69 -34 -92 0 -48 -9 -67 -31
-67 -24 0 -35 23 -42 91 -5 53 -27 109 -60 154 -14 18 -34 21 -224 31 -151 8
-216 15 -238 27 -17 8 -56 43 -88 76 -33 34 -62 61 -66 61 -32 0 -77 -30 -112
-73 -38 -48 -40 -54 -34 -97 12 -81 41 -88 69 -17 l17 42 28 -96 c18 -65 37
-108 59 -136 l33 -40 -2 -152 c0 -84 2 -155 5 -158 11 -12 57 9 72 32 9 14 24
53 34 88 39 143 76 177 196 177 80 0 94 -18 94 -122 0 -69 -2 -75 -30 -100
-31 -27 -39 -65 -18 -86 19 -19 147 -15 188 6 l35 17 -4 108 c-2 59 0 107 3
107 4 0 17 -5 29 -12 12 -6 38 -14 57 -17 39 -7 40 -9 65 -133 9 -43 23 -85
31 -93 22 -22 151 -21 184 2 70 46 80 63 80 133 0 61 -3 71 -35 113 -35 46
-40 62 -29 91 5 12 21 16 65 16 68 0 73 -6 82 -89 4 -29 13 -64 22 -77 14 -22
22 -24 103 -24 l88 0 27 -55 c31 -63 74 -95 128 -95 30 0 38 -4 43 -23 3 -12
19 -37 35 -54 38 -42 82 -43 166 -7 44 19 70 40 98 74 l37 48 0 120 c0 66 -3
122 -7 124 -5 2 -21 18 -38 36 -27 30 -31 42 -35 115 -5 79 -6 82 -35 96 -16
8 -43 25 -58 38 -16 12 -41 23 -56 23 -15 0 -38 9 -50 19 -23 20 -46 30 -132
55 -99 29 -116 21 -126 -62 -4 -37 -10 -52 -24 -55 -10 -3 -24 -18 -31 -34 -6
-15 -17 -35 -24 -43 -7 -8 -14 -26 -16 -40 -2 -20 -10 -26 -35 -28 -29 -3 -33
0 -58 55 -14 32 -30 78 -35 103 -15 72 -49 151 -83 191 -18 21 -39 47 -48 60
-13 19 -17 20 -25 8z"/>
</g>
</svg>
