<?xml version="1.0" standalone="no"?>
<!DOCTYPE svg PUBLIC "-//W3C//DTD SVG 20010904//EN"
 "http://www.w3.org/TR/2001/REC-SVG-20010904/DTD/svg10.dtd">
<svg version="1.0" xmlns="http://www.w3.org/2000/svg"
 width="495.000000pt" height="476.000000pt" viewBox="0 0 495.000000 476.000000"
 preserveAspectRatio="xMidYMid meet">
<metadata>
Created by potrace 1.13, written by Peter Selinger 2001-2015
</metadata>
<g transform="translate(0.000000,476.000000) scale(0.100000,-0.100000)"
fill="#000000" stroke="none">
<path d="M1804 4609 c-13 -14 -19 -38 -20 -84 -3 -74 -12 -95 -42 -98 -12 -1
-22 -4 -22 -8 0 -9 -38 -20 -80 -24 -19 -1 -36 -4 -37 -5 -4 -3 -19 -7 -34 -9
-6 0 -9 -8 -5 -16 3 -8 1 -15 -4 -15 -6 0 -10 -5 -10 -10 0 -6 -10 -21 -23
-33 -19 -18 -48 -69 -49 -87 -1 -8 -50 -48 -77 -62 -14 -7 -29 -17 -33 -23 -4
-5 -11 -10 -15 -10 -4 -1 -28 -11 -52 -23 -25 -12 -51 -22 -58 -22 -7 0 -13
-5 -13 -10 0 -6 -6 -10 -12 -9 -29 5 -95 -41 -80 -55 3 -4 1 -10 -5 -14 -14
-9 -27 -72 -15 -72 5 0 7 -11 5 -24 -3 -15 2 -31 15 -44 11 -11 18 -23 15 -25
-2 -3 4 -10 15 -16 11 -6 22 -7 26 -4 3 3 6 1 6 -6 0 -7 14 -26 30 -41 17 -15
30 -33 30 -39 0 -6 5 -12 10 -12 12 -2 27 -5 38 -9 4 -2 14 -3 22 -4 18 -1 37
-40 42 -86 2 -21 12 -42 26 -53 12 -10 20 -23 17 -28 -4 -5 -2 -9 4 -9 24 0
62 -68 65 -117 1 -28 6 -55 10 -61 4 -7 3 -12 -2 -12 -5 0 -6 -17 -2 -40 5
-25 4 -40 -3 -40 -6 0 -6 -4 0 -12 6 -7 9 -26 8 -41 -1 -17 4 -31 15 -37 9 -5
29 -27 45 -49 28 -42 26 -57 -10 -83 -6 -5 -5 -8 2 -8 9 0 12 -12 10 -35 -1
-19 -4 -35 -7 -35 -3 0 -6 -12 -7 -27 -1 -16 -4 -50 -6 -76 -3 -33 0 -50 8
-53 7 -3 11 -13 8 -23 -2 -10 3 -36 13 -57 9 -21 16 -42 16 -46 -1 -5 2 -8 8
-8 10 0 40 -41 44 -62 5 -21 16 -50 41 -100 13 -27 19 -48 15 -48 -5 0 -3 -13
3 -30 6 -17 15 -30 19 -30 4 0 8 -7 8 -15 0 -8 5 -15 10 -15 6 0 10 -7 10 -15
0 -8 5 -15 11 -15 5 0 8 -4 5 -9 -3 -5 1 -12 10 -15 12 -5 14 -10 5 -20 -6 -7
-9 -15 -6 -18 2 -2 -13 -24 -35 -49 -22 -24 -45 -60 -51 -79 -6 -19 -17 -44
-22 -55 -6 -11 -12 -22 -12 -25 -2 -15 -50 -100 -57 -100 -4 0 -8 -5 -8 -11 0
-15 -26 -39 -34 -32 -3 4 -6 1 -6 -5 0 -7 -3 -11 -7 -10 -9 3 -65 -32 -75 -47
-4 -5 -35 -10 -70 -10 -65 -1 -118 -21 -166 -63 -29 -25 -22 -43 43 -109 52
-53 72 -62 160 -70 53 -6 95 -27 95 -49 0 -17 20 -29 29 -17 3 5 22 15 41 23
38 15 62 39 56 56 -7 19 11 39 26 28 17 -14 58 -15 58 -3 0 6 3 8 8 5 18 -11
82 73 82 107 0 9 8 23 18 33 9 10 17 20 18 23 4 36 47 93 126 168 25 25 49 56
52 69 4 13 13 24 20 24 8 0 21 10 29 23 40 58 66 79 88 72 13 -4 30 -14 38
-22 8 -8 33 -26 55 -40 23 -14 44 -30 47 -35 3 -5 8 -9 10 -8 16 6 43 -20 67
-63 17 -29 39 -63 51 -76 11 -13 21 -30 21 -38 0 -7 5 -13 10 -13 6 0 10 -4
10 -9 0 -10 86 -98 125 -129 13 -10 24 -25 25 -33 4 -26 0 -40 -9 -35 -5 3
-14 -1 -21 -8 -6 -8 -24 -18 -40 -21 -15 -3 -36 -15 -45 -25 -10 -11 -22 -17
-26 -14 -5 3 -9 -2 -9 -10 0 -9 -6 -16 -12 -16 -9 0 -8 -4 2 -10 13 -8 13 -10
-1 -10 -22 0 -34 -31 -17 -42 18 -11 28 -10 28 2 0 6 13 8 29 5 17 -3 32 -1
35 4 3 4 24 7 46 6 22 -1 40 2 40 6 0 9 35 7 45 -3 8 -7 67 0 74 10 5 6 48 8
61 2 3 -2 14 -4 25 -6 39 -6 79 -15 87 -20 5 -3 33 -7 63 -9 30 -2 65 -10 77
-16 13 -7 37 -14 53 -14 53 -3 164 -69 183 -110 10 -22 -1 -65 -18 -65 -5 0
-10 -7 -10 -16 0 -8 -4 -13 -9 -10 -15 10 -29 -17 -26 -51 1 -18 -3 -33 -9
-33 -6 0 -3 -5 7 -11 9 -6 15 -14 12 -20 -4 -5 -1 -9 5 -9 6 0 9 -4 5 -9 -3
-5 -1 -12 5 -16 18 -11 -8 -43 -71 -87 -33 -24 -62 -42 -65 -41 -2 2 -16 -10
-31 -25 -23 -23 -71 -52 -93 -57 -3 0 -16 -7 -28 -14 -13 -7 -26 -10 -29 -7
-4 3 -12 1 -20 -5 -7 -6 -13 -9 -13 -5 0 3 -22 -3 -49 -13 -28 -10 -52 -16
-55 -13 -4 3 -6 1 -6 -5 0 -5 -18 -9 -40 -9 -22 1 -40 -2 -40 -5 0 -3 -14 -5
-30 -4 -17 1 -33 -1 -35 -5 -3 -4 -16 -6 -29 -5 -25 3 -48 -15 -52 -41 -1 -8
2 -14 7 -14 5 0 15 -12 23 -28 26 -50 108 -127 159 -150 32 -14 57 -5 81 30
12 17 18 19 30 9 10 -8 15 -9 18 -1 2 6 12 3 25 -9 l21 -20 26 26 c14 14 26
30 26 34 0 5 6 9 14 9 7 0 22 11 32 25 10 14 24 25 31 25 7 0 13 4 13 10 0 5
6 7 13 5 6 -3 28 10 47 28 38 35 90 71 90 62 0 -4 14 3 30 15 17 12 30 19 30
16 0 -2 14 -1 31 4 25 7 29 7 20 -4 -6 -7 -8 -16 -5 -19 3 -3 2 -12 -2 -19 -5
-7 -10 -20 -11 -29 -4 -29 -22 -69 -31 -69 -4 0 -16 -18 -26 -40 -10 -22 -23
-40 -30 -40 -7 0 -22 -11 -32 -25 -10 -14 -23 -25 -29 -25 -6 0 -16 -9 -23
-21 -7 -12 -16 -19 -19 -16 -3 3 -14 -3 -26 -13 -11 -11 -24 -17 -29 -14 -4 3
-8 -2 -8 -11 0 -9 -4 -14 -9 -10 -5 3 -12 1 -16 -5 -4 -6 -10 -8 -15 -5 -5 3
-11 1 -14 -3 -3 -5 -21 -8 -41 -5 -22 2 -53 -5 -81 -17 -31 -14 -58 -20 -82
-16 -37 5 -62 -7 -62 -28 0 -20 137 -156 157 -156 3 0 14 -7 23 -15 9 -8 39
-16 67 -19 45 -4 52 -2 64 20 12 23 29 32 29 16 0 -5 9 -19 19 -31 l19 -22 33
33 c18 18 36 32 41 31 4 -2 8 2 8 7 0 6 13 23 28 40 16 16 39 44 53 61 13 18
33 43 44 55 40 45 55 64 49 64 -4 0 -1 7 6 15 7 8 20 15 29 15 10 0 12 -3 5
-8 -6 -4 -14 -17 -18 -29 -4 -13 -11 -23 -16 -23 -5 0 -7 -7 -4 -15 4 -8 1
-15 -6 -15 -6 0 -10 -6 -7 -12 5 -15 -22 -90 -36 -100 -15 -9 15 -36 33 -30
14 5 34 29 35 42 0 13 101 129 112 129 6 1 15 10 18 22 4 11 32 46 63 78 32
31 64 67 73 78 9 11 21 22 26 24 14 6 93 136 86 143 -4 3 -1 6 6 6 8 0 11 7 7
15 -3 8 -1 15 5 15 8 0 16 15 33 65 2 6 4 15 5 20 2 6 9 17 17 26 8 9 12 18
10 20 -2 2 9 22 24 44 16 22 36 54 44 72 8 18 24 38 35 45 12 7 21 17 21 23 0
6 10 17 22 25 11 8 28 23 37 34 28 32 67 66 76 66 4 0 19 12 34 28 33 33 100
80 121 84 8 2 21 11 28 21 7 9 18 15 23 12 5 -4 9 -1 9 5 0 5 16 18 35 27 19
9 35 21 35 27 0 6 15 22 32 36 54 42 101 91 171 176 37 45 76 87 87 95 18 12
21 25 22 107 1 50 5 92 8 92 3 0 6 9 6 20 0 11 -4 20 -8 20 -4 0 -8 7 -8 15 0
8 -4 15 -10 15 -5 0 -10 6 -10 13 0 7 -15 20 -32 30 -18 10 -48 31 -67 47 -18
17 -38 30 -43 30 -5 0 -15 6 -22 13 -7 6 -35 30 -62 52 -27 21 -68 58 -91 82
-24 24 -47 43 -51 43 -5 0 -30 18 -55 40 -25 22 -48 40 -53 40 -4 0 -21 10
-38 23 -46 33 -116 70 -116 60 0 -4 -4 -3 -8 2 -8 11 -94 56 -102 53 -3 -1
-16 5 -30 12 -14 8 -27 15 -30 15 -3 0 -20 9 -37 18 -18 10 -33 15 -33 12 0
-4 -7 1 -16 9 -8 9 -22 16 -30 16 -8 0 -14 4 -14 9 0 5 -10 11 -22 15 -13 3
-48 28 -78 56 -30 27 -58 50 -62 50 -5 0 -8 6 -8 13 -1 6 -26 32 -57 57 -30
25 -61 50 -67 55 -6 6 -38 33 -71 60 -33 28 -65 55 -71 60 -6 6 -27 23 -47 39
-20 16 -34 33 -31 38 3 4 0 8 -6 8 -14 0 -111 150 -104 161 3 5 0 9 -5 9 -6 0
-11 7 -11 15 0 8 -5 15 -11 15 -5 0 -8 4 -5 8 3 5 -1 20 -9 35 -10 20 -11 27
-2 27 8 0 8 3 -1 9 -8 4 -13 11 -12 15 5 21 -46 114 -75 136 -18 14 -31 28
-29 32 6 10 -28 26 -43 21 -12 -4 -18 9 -14 30 2 10 -89 51 -96 43 -3 -3 -14
5 -24 17 -10 12 -18 19 -19 14 0 -4 -16 0 -36 8 -20 8 -45 15 -55 15 -11 0
-19 5 -19 10 0 6 -6 10 -14 10 -8 0 -21 6 -28 13 -7 6 -33 29 -58 49 -25 20
-58 48 -74 62 -16 14 -34 26 -40 26 -13 0 -79 56 -74 63 2 3 -10 16 -27 28
-16 13 -43 36 -59 50 l-29 27 41 50 c23 27 39 52 35 56 -3 3 0 6 7 6 9 0 6 8
-9 21 -12 11 -29 18 -37 15 -8 -3 -16 -6 -19 -6 -3 0 -14 -9 -25 -20 -12 -12
-25 -18 -30 -15 -6 4 -10 1 -10 -6 0 -8 -3 -9 -13 0 -8 6 -18 7 -22 3 -5 -4
-5 -2 -2 4 13 23 16 85 5 112 -6 15 -12 29 -13 32 -14 41 -31 63 -62 79 -21
11 -58 38 -83 60 -25 23 -49 45 -55 49 -5 5 -24 6 -42 1 -19 -4 -30 -3 -27 2
3 5 0 9 -6 9 -7 0 -10 7 -6 15 3 9 -3 19 -14 25 -11 6 -20 8 -20 4 0 -4 -8 3
-19 14 -23 27 -23 27 -47 1z m134 -359 c12 -12 22 -24 22 -27 0 -4 -3 -3 -6 0
-4 3 -15 2 -25 -4 -11 -5 -19 -6 -19 -2 0 4 -3 18 -6 31 -8 27 5 28 34 2z
m-209 -97 c2 -2 -4 -12 -13 -22 -21 -23 -54 -18 -35 5 9 11 8 14 -1 14 -10 0
-10 3 0 15 10 12 16 13 29 3 9 -7 18 -14 20 -15z m271 6 c11 -19 10 -20 -9 -9
-22 11 -29 30 -11 30 5 0 14 -9 20 -21z m-2 -78 c22 -19 28 -31 15 -31 -8 1
-47 50 -40 50 2 0 14 -8 25 -19z m-402 -39 c-3 -20 -16 -25 -35 -13 -12 8 -12
12 -2 25 15 18 40 11 37 -12z m-62 -14 c-3 -5 -11 -5 -18 1 -7 6 -17 7 -21 3
-5 -4 -5 -2 -2 5 4 6 16 9 27 6 11 -3 17 -9 14 -15z m491 -28 c-3 -5 -10 -10
-16 -10 -5 0 -9 5 -9 10 0 6 7 10 16 10 8 0 12 -4 9 -10z m-630 -9 c3 -5 1
-12 -5 -16 -5 -3 -10 1 -10 9 0 18 6 21 15 7z m193 -68 c4 -39 9 -54 20 -65
23 -23 12 -29 -20 -11 -36 21 -46 22 -67 9 -8 -5 -16 -4 -21 5 -12 18 -3 29
16 22 15 -6 54 27 54 47 0 17 16 11 18 -7z m-134 -28 c-9 -13 -24 -27 -35 -30
-10 -4 -19 -11 -19 -16 0 -6 -8 -8 -18 -5 -11 4 -25 -1 -36 -13 -16 -17 -16
-20 -1 -35 9 -9 12 -16 7 -16 -5 0 -17 9 -26 19 -17 19 -17 21 3 42 12 13 21
26 21 29 0 11 49 30 63 25 7 -3 21 1 32 9 27 21 28 20 9 -9z m320 -37 c-3 -5
2 -11 11 -14 10 -4 13 -13 9 -26 -4 -13 1 -24 13 -33 17 -14 17 -14 0 -15 -20
0 -47 22 -47 38 0 5 -18 17 -41 26 -22 9 -37 21 -34 26 4 6 11 8 16 5 5 -4 16
1 25 9 12 12 19 13 34 4 10 -7 16 -16 14 -20z m86 -17 c0 -5 -7 -12 -16 -15
-14 -5 -15 -4 -4 9 14 17 20 19 20 6z m938 -415 c-24 -24 -38 -25 -38 -1 0 12
10 16 53 24 4 0 -3 -10 -15 -23z m-48 -14 c0 -4 -9 -13 -20 -20 -16 -10 -20
-10 -18 0 2 7 10 16 18 20 20 9 20 9 20 0z m-80 -62 c-20 -13 -33 -13 -25 0 3
6 14 10 23 10 15 0 15 -2 2 -10z m364 -29 c17 -6 16 -9 -10 -26 -44 -28 -63
-56 -50 -71 7 -7 17 -9 26 -4 10 6 21 3 32 -7 12 -11 18 -12 18 -4 0 7 5 9 11
5 15 -9 -41 -53 -58 -47 -7 3 -13 0 -13 -7 0 -6 -5 -8 -10 -5 -6 3 -17 -1 -26
-9 -14 -14 -14 -17 -1 -22 9 -3 18 -12 21 -20 3 -9 1 -12 -4 -9 -6 3 -15 3
-22 -1 -7 -4 -23 -8 -36 -9 -21 -1 -22 0 -6 12 13 9 18 28 19 62 0 27 7 56 14
65 7 9 11 25 8 36 -3 11 -1 20 4 20 5 0 9 7 9 16 0 8 4 13 9 10 5 -3 14 1 21
9 14 17 17 17 44 6z m-1449 -39 c-3 -3 -11 0 -18 7 -9 10 -8 11 6 5 10 -3 15
-9 12 -12z m1023 -1 c2 -5 9 -8 17 -5 7 3 16 1 19 -4 9 -15 -33 -22 -63 -11
-14 6 -28 10 -31 9 -3 -1 -6 6 -8 14 -3 12 4 14 30 11 18 -2 34 -9 36 -14z
m198 -150 c2 -43 0 -49 -27 -65 -16 -9 -29 -14 -29 -9 0 4 -5 1 -10 -7 -5 -8
-10 -10 -10 -4 0 5 8 19 18 30 10 10 17 30 17 44 0 14 8 32 17 41 10 9 15 19
13 23 -3 3 -2 4 2 0 4 -3 8 -27 9 -53z m248 -25 c-3 -8 -1 -17 5 -21 14 -8 14
-25 0 -25 -6 0 -20 -10 -31 -22 l-20 -23 16 28 c15 24 15 28 1 33 -8 3 -15 11
-15 17 0 6 3 8 6 4 4 -3 13 0 21 8 18 19 24 19 17 1z m-232 -75 c-22 -23 -27
-19 -11 7 7 12 16 19 21 16 4 -3 0 -13 -10 -23z m371 -19 c16 -7 16 -9 -7 -29
-20 -17 -26 -19 -30 -7 -6 15 2 44 13 43 3 0 14 -4 24 -7z m-541 -104 c-7 -7
-12 -8 -12 -2 0 6 3 14 7 17 3 4 9 5 12 2 2 -3 -1 -11 -7 -17z m-293 -49 c-13
-25 -22 -24 -14 1 4 11 2 20 -4 20 -6 0 -11 10 -11 22 l0 21 20 -23 c15 -17
17 -27 9 -41z m171 -34 c-7 -9 -15 -13 -18 -10 -3 2 1 11 8 20 7 9 15 13 18
10 3 -2 -1 -11 -8 -20z m-165 -5 c3 -5 -3 -10 -14 -10 -11 0 -28 -10 -38 -23
-10 -13 -26 -26 -36 -30 -9 -4 0 11 20 32 39 40 57 48 68 31z m255 -34 c0 -5
-7 -3 -15 4 -10 8 -15 9 -15 2 0 -6 -10 -17 -22 -23 -19 -10 -18 -7 7 19 27
29 44 29 45 -2z m598 -12 c10 -11 7 -12 -19 -9 -32 4 -52 22 -43 37 6 9 41 -7
62 -28z m-674 -39 c1 -9 8 -20 15 -24 15 -10 4 -61 -13 -61 -6 -1 -5 -6 4 -13
16 -12 20 -31 9 -41 -3 -4 -12 1 -19 10 -11 12 -11 22 -3 44 8 22 8 32 -2 40
-13 11 -45 4 -45 -11 0 -5 -9 -9 -20 -9 -11 0 -20 -4 -20 -8 0 -5 -8 -17 -18
-28 -9 -10 -23 -30 -29 -44 -8 -17 -12 -20 -12 -9 -1 24 -33 34 -43 14 -5 -8
-17 -23 -26 -33 -10 -9 -24 -29 -31 -44 -8 -16 -18 -28 -23 -28 -8 0 7 33 29
60 9 12 12 55 3 55 -1 0 -3 10 -6 23 -4 23 5 29 22 12 7 -7 28 3 65 31 30 22
64 45 77 50 12 5 22 13 22 19 0 6 3 9 8 7 4 -3 16 -1 27 3 23 9 26 8 29 -15z
m-174 11 c0 -3 -4 -8 -10 -11 -5 -3 -10 -1 -10 4 0 6 5 11 10 11 6 0 10 -2 10
-4z m-207 -208 c-13 -23 -12 -42 4 -60 9 -10 21 -15 27 -11 6 4 5 -1 -2 -9 -8
-9 -19 -15 -26 -12 -15 6 -30 -22 -20 -37 3 -5 0 -9 -6 -9 -7 0 -9 -7 -6 -16
4 -11 2 -15 -8 -11 -8 3 -20 -1 -28 -10 -7 -9 -11 -17 -8 -18 3 -1 -11 -21
-31 -45 -33 -38 -36 -40 -32 -17 3 14 14 34 24 43 10 9 19 23 19 31 0 8 5 11
10 8 6 -4 17 10 25 29 9 20 19 36 24 36 16 0 21 30 9 49 -9 15 -8 24 5 45 17
25 36 38 20 14z m1736 2 c-6 -5 -18 -6 -26 -3 -19 8 -16 11 13 11 17 0 22 -3
13 -8z m-829 -55 c0 -8 -4 -15 -10 -15 -5 0 -7 7 -4 15 4 8 8 15 10 15 2 0 4
-7 4 -15z m-796 -14 c3 -5 -2 -15 -12 -22 -15 -12 -16 -12 -5 2 7 9 10 19 6
22 -3 4 -4 7 0 7 3 0 8 -4 11 -9z m1372 -44 c3 -23 1 -22 -26 16 l-24 32 24
-16 c13 -8 24 -23 26 -32z m400 -25 c-3 -3 -1 -11 5 -19 6 -7 8 -13 4 -13 -5
0 0 -9 9 -19 10 -11 15 -24 12 -30 -8 -12 28 -33 39 -23 4 4 0 -5 -9 -19 -16
-25 -16 -27 0 -33 10 -4 21 -1 25 6 4 7 11 10 14 6 3 -3 -1 -12 -9 -20 -20
-20 -42 -98 -30 -106 5 -4 10 -16 12 -27 2 -11 10 -30 18 -42 8 -13 10 -23 5
-23 -5 0 -12 4 -16 9 -3 6 -13 10 -23 10 -104 3 -123 -5 -142 -65 -7 -19 -15
-34 -20 -34 -4 0 -3 -15 2 -34 9 -28 8 -37 -6 -51 -9 -9 -14 -20 -11 -25 3 -4
-1 -26 -9 -48 -14 -39 -14 -40 16 -62 17 -12 41 -22 54 -22 13 0 29 -7 35 -15
7 -8 15 -10 18 -6 3 4 15 13 26 19 11 6 25 21 31 34 l12 22 7 -23 c10 -32 43
-59 63 -52 10 3 7 -4 -8 -16 -14 -12 -33 -19 -42 -17 -10 2 -30 -9 -48 -27
-16 -17 -30 -27 -30 -23 0 14 -27 -20 -35 -43 l-7 -23 -12 23 c-10 20 -19 24
-51 21 -22 -1 -41 -7 -43 -12 -4 -11 -52 9 -52 22 0 20 -41 -20 -51 -49 -6
-18 -15 -33 -20 -33 -5 0 -9 -7 -9 -15 0 -8 -6 -15 -12 -15 -9 0 -9 -3 -2 -8
15 -10 25 -42 14 -42 -21 0 -9 -30 20 -50 36 -25 38 -40 8 -66 -17 -15 -20
-16 -16 -3 4 9 -4 28 -16 44 -18 22 -28 27 -48 22 -27 -7 -61 -63 -57 -95 3
-33 -1 -53 -10 -48 -5 3 -20 -3 -32 -14 -13 -11 -20 -19 -16 -20 5 0 -1 -12
-12 -27 -20 -24 -20 -28 -6 -50 18 -26 11 -44 -29 -82 -14 -13 -23 -27 -21
-31 3 -4 -6 -19 -19 -33 -13 -14 -22 -28 -19 -31 6 -6 -16 -46 -25 -46 -12 0
-13 48 -1 55 6 4 3 12 -8 21 -12 9 -14 13 -4 14 7 0 11 6 8 13 -3 7 4 19 15
26 14 9 17 16 9 24 -20 25 11 117 57 167 50 54 72 81 72 89 0 5 7 11 15 15 8
3 15 11 15 19 0 7 14 29 30 47 31 35 39 65 18 72 -15 5 -38 -15 -38 -33 0 -7
-3 -9 -6 -6 -4 3 -14 2 -23 -3 -10 -5 -23 -5 -30 0 -11 6 -4 18 28 49 23 23
47 41 52 41 6 0 9 6 6 13 -3 8 3 20 14 28 10 7 19 19 19 25 0 7 7 14 15 17 8
4 12 15 10 26 -2 11 0 23 6 26 5 4 4 12 -4 19 -6 8 -16 12 -21 9 -8 -5 -6 12
11 90 13 63 31 100 43 92 8 -5 7 -11 -1 -21 -9 -11 -9 -14 0 -14 7 0 10 -4 6
-9 -3 -6 4 -15 15 -21 14 -8 20 -8 20 0 0 6 4 9 9 6 5 -3 14 1 21 9 7 8 9 15
6 15 -4 0 2 13 13 29 12 16 21 36 21 44 0 8 6 20 14 27 8 6 12 18 9 26 -3 8 4
26 17 39 12 12 20 31 19 41 -2 11 0 24 3 30 11 17 17 64 11 80 -3 8 -12 13
-19 10 -16 -6 -19 10 -4 19 17 10 5 77 -18 96 -28 22 -27 29 3 58 14 13 25 27
25 33 0 5 5 6 10 3 6 -3 13 1 16 9 3 9 13 16 20 16 8 0 17 6 20 14 3 8 12 12
20 9 8 -3 12 -8 10 -11z m170 -31 c-3 -5 1 -11 9 -15 8 -3 15 -10 15 -16 0 -6
-10 -2 -22 9 -11 11 -26 18 -31 14 -6 -3 -7 -1 -3 5 4 7 14 12 22 12 8 0 13
-4 10 -9z m85 -68 c13 -16 12 -17 -3 -4 -17 13 -22 21 -14 21 2 0 10 -8 17
-17z m-1083 -57 c12 -4 22 -13 22 -20 0 -7 18 -25 40 -42 22 -16 40 -32 40
-35 0 -12 56 -62 79 -71 17 -6 27 -5 33 4 4 7 8 9 8 3 0 -5 7 1 16 13 8 12 21
22 27 22 8 -1 7 -5 -3 -13 -8 -7 -16 -28 -17 -47 -1 -19 -3 -44 -6 -55 -2 -11
3 -25 12 -32 13 -10 19 -8 34 10 17 20 18 20 11 2 -4 -11 -7 -28 -8 -37 0 -10
-4 -18 -9 -18 -5 0 -7 -7 -3 -15 4 -12 2 -13 -14 -3 -10 7 -17 15 -14 19 2 5
-5 13 -16 19 -16 9 -22 8 -26 -5 -3 -8 -10 -12 -15 -9 -5 3 -14 -6 -21 -20 -6
-14 -14 -26 -18 -26 -11 0 -1 65 10 68 6 2 -1 13 -15 24 -27 21 -45 17 -45
-12 0 -22 -12 -32 -25 -22 -16 12 -17 33 -1 57 14 21 14 25 -4 48 -11 13 -17
27 -14 30 4 3 2 20 -4 36 -7 19 -7 31 -1 31 11 0 11 11 1 28 -11 17 -36 6 -48
-21 -6 -12 -9 -16 -7 -10 1 7 -6 17 -17 23 -15 8 -21 6 -29 -7 -16 -27 -13 0
4 40 8 20 12 44 9 54 -4 11 -3 14 3 7 4 -6 18 -14 31 -18z m385 -16 c-3 -11
-10 -20 -15 -20 -5 0 -18 -10 -27 -22 -16 -19 -18 -19 -24 -5 -4 11 -1 17 8
17 8 0 22 11 32 25 22 30 33 32 26 5z m797 0 c0 -5 -5 -10 -11 -10 -5 0 -7 5
-4 10 3 6 8 10 11 10 2 0 4 -4 4 -10z m-2399 -13 c-6 -8 -9 -16 -6 -19 3 -3
-2 -11 -11 -19 -14 -11 -18 -12 -22 -1 -2 8 -18 -3 -42 -30 -27 -30 -38 -37
-35 -23 2 11 4 21 5 23 4 4 7 21 9 40 1 14 9 17 42 15 27 -1 42 3 46 13 3 7
10 14 15 14 7 0 6 -5 -1 -13z m1554 -67 c-3 -5 -12 -10 -18 -10 -7 0 -6 4 3
10 19 12 23 12 15 0z m1041 -27 c10 -10 20 -26 20 -36 2 -16 0 -17 -20 -4 -11
8 -22 24 -22 36 -2 25 -2 25 22 4z m-1426 3 c0 -2 -8 -10 -17 -17 -16 -13 -17
-12 -4 4 13 16 21 21 21 13z m-1358 -58 c-9 -9 -12 -7 -12 12 0 19 3 21 12 12
9 -9 9 -15 0 -24z m1338 2 c0 -13 -5 -18 -14 -14 -8 3 -12 12 -9 20 8 21 23
17 23 -6z m1184 -35 c-3 -6 5 -20 17 -31 16 -14 23 -15 26 -6 3 6 9 10 13 7 5
-3 4 -19 -1 -35 -9 -26 -14 -28 -40 -23 -18 3 -29 1 -29 -6 0 -6 -5 -11 -12
-11 -7 0 -22 -12 -35 -27 -12 -16 -22 -22 -23 -15 0 6 5 12 11 12 6 0 9 7 5
15 -3 8 -2 15 2 15 7 0 40 49 40 60 1 3 4 13 8 24 4 10 2 27 -5 38 -10 17 -10
17 8 6 10 -6 17 -17 15 -23z m151 25 c3 -6 -1 -7 -9 -4 -18 7 -21 14 -7 14 6
0 13 -4 16 -10z m-958 -25 c0 -8 -4 -12 -9 -9 -5 3 -6 10 -3 15 9 13 12 11 12
-6z m998 5 c3 -5 1 -10 -4 -10 -6 0 -11 5 -11 10 0 6 2 10 4 10 3 0 8 -4 11
-10z m-98 -35 c0 -8 -4 -12 -9 -9 -5 3 -6 10 -3 15 9 13 12 11 12 -6z m125
-17 c1 -14 5 -30 8 -38 11 -30 -2 -90 -20 -90 -15 0 -19 14 -8 28 17 20 18 83
2 89 -8 3 -14 9 -14 14 0 14 30 11 32 -3z m-107 -28 c-3 -5 -11 -10 -16 -10
-6 0 -7 5 -4 10 3 6 11 10 16 10 6 0 7 -4 4 -10z m-665 -36 c0 -8 -4 -12 -10
-9 -5 3 -10 10 -10 16 0 5 5 9 10 9 6 0 10 -7 10 -16z m-2183 -134 c-1 -11 -6
-20 -11 -20 -5 0 -1 -6 10 -14 26 -19 10 -31 -36 -27 -13 1 -13 3 -1 10 8 5
16 16 17 25 2 16 -22 30 -37 21 -5 -4 -6 1 -3 9 3 8 14 13 25 11 10 -2 19 1
19 6 0 6 4 8 9 4 6 -3 9 -14 8 -25z m-209 -32 c9 -9 12 -9 12 0 0 6 7 9 15 6
8 -4 15 -12 15 -19 0 -7 12 -17 26 -22 23 -8 25 -10 10 -22 -13 -11 -16 -11
-16 2 0 14 -25 30 -38 24 -4 -2 -17 7 -29 20 -22 23 -18 34 5 11z m2462 -623
c-7 -8 -9 -15 -6 -15 4 0 0 -8 -9 -17 -10 -9 -22 -29 -27 -45 -6 -15 -14 -28
-20 -28 -5 0 -7 -4 -4 -9 3 -5 -1 -14 -9 -21 -8 -7 -15 -18 -15 -26 0 -7 -22
-36 -50 -63 -50 -50 -56 -50 -50 4 1 11 3 27 4 35 0 8 4 17 8 20 4 3 9 15 11
26 3 23 42 76 50 68 2 -3 15 9 27 26 12 16 26 28 31 25 5 -4 9 1 9 9 0 9 6 13
14 10 8 -3 20 1 27 9 18 19 26 12 9 -8z m-500 -209 c0 -2 -9 -6 -20 -9 -11 -3
-20 -1 -20 4 0 5 9 9 20 9 11 0 20 -2 20 -4z m150 -37 c0 -5 6 -7 13 -3 8 5 8
2 -2 -9 -7 -9 -20 -17 -27 -17 -14 0 -19 22 -7 33 10 10 23 8 23 -4z m-570
-94 c0 -2 -13 -10 -30 -18 l-30 -15 18 23 c9 12 23 20 29 18 7 -3 13 -7 13 -8z
m60 -65 c-6 -12 -22 -25 -36 -30 -33 -13 -34 -13 -28 4 3 8 12 12 19 10 8 -3
22 4 32 15 22 27 27 27 13 1z m147 -305 c-17 -12 -17 -14 5 -32 20 -16 35 -43
24 -43 -2 0 -19 13 -38 28 -32 25 -34 30 -22 47 8 10 14 15 14 10 0 -5 5 -4
12 3 6 6 14 9 17 6 3 -3 -2 -12 -12 -19z m-111 -66 c4 -8 1 -8 -14 0 -12 6
-24 16 -28 22 -4 8 -1 8 14 0 12 -6 24 -16 28 -22z"/>
</g>
</svg>
