<?xml version="1.0" standalone="no"?>
<!DOCTYPE svg PUBLIC "-//W3C//DTD SVG 20010904//EN"
 "http://www.w3.org/TR/2001/REC-SVG-20010904/DTD/svg10.dtd">
<svg version="1.0" xmlns="http://www.w3.org/2000/svg"
 width="445.000000pt" height="275.000000pt" viewBox="0 0 445.000000 275.000000"
 preserveAspectRatio="xMidYMid meet">
<metadata>
Created by potrace 1.13, written by Peter Selinger 2001-2015
</metadata>
<g transform="translate(0.000000,275.000000) scale(0.100000,-0.100000)"
fill="#000000" stroke="none">
<path d="M415 2729 c-16 -7 -37 -17 -45 -24 -8 -8 -44 -21 -80 -30 -84 -22
-94 -27 -167 -98 -63 -60 -77 -90 -47 -101 28 -11 41 -7 94 29 29 19 54 35 57
35 2 0 -5 -13 -16 -29 -12 -16 -21 -36 -21 -45 0 -8 -5 -26 -11 -39 -8 -17 -8
-35 -1 -61 10 -35 8 -43 -38 -119 -26 -45 -60 -93 -75 -107 -64 -58 -72 -170
-15 -203 31 -19 111 -22 175 -7 40 9 57 6 147 -26 37 -13 103 -18 217 -15 60
2 66 0 98 -31 55 -52 70 -92 84 -220 9 -91 9 -147 1 -245 -18 -203 3 -305 89
-430 86 -125 234 -234 296 -218 27 6 73 -3 73 -16 0 -5 10 -30 21 -54 23 -48
22 -92 0 -199 -11 -51 -87 -168 -121 -186 -24 -13 -28 -70 -6 -70 8 0 16 -5
18 -11 6 -17 92 -23 145 -10 75 19 118 54 144 118 22 55 22 56 4 90 -15 27
-19 55 -18 136 0 67 4 102 12 105 6 2 11 10 11 18 0 8 5 14 10 14 6 0 10 9 10
20 0 11 -3 20 -7 20 -5 0 -6 27 -5 59 4 59 5 60 39 72 22 7 38 8 45 1 5 -5 14
-43 19 -83 6 -41 17 -87 26 -104 61 -117 60 -111 41 -240 -10 -74 -14 -83 -44
-106 -18 -13 -38 -34 -45 -47 -7 -12 -17 -22 -23 -22 -19 -1 -66 -72 -66 -100
0 -29 7 -33 85 -50 51 -11 157 6 189 31 13 10 26 31 29 46 3 15 16 51 28 78
21 46 23 62 20 205 -2 115 1 170 12 210 8 30 16 78 16 105 2 79 20 153 39 159
9 3 85 7 168 10 133 5 168 3 300 -20 105 -19 199 -28 319 -31 l170 -5 109 37
c60 20 132 49 161 65 95 53 183 67 214 34 10 -11 43 -28 74 -39 53 -18 57 -21
57 -50 0 -17 4 -35 9 -41 6 -5 21 -53 35 -107 27 -104 27 -142 -1 -247 -8 -30
-17 -66 -20 -80 -7 -38 -33 -93 -54 -115 -47 -50 -109 -145 -109 -168 0 -35
16 -43 91 -51 60 -6 71 -4 115 21 56 30 94 63 94 79 0 7 7 14 15 18 11 4 15
21 15 58 0 29 5 71 10 94 5 22 12 70 15 105 6 74 10 90 35 144 10 22 24 61 30
88 7 26 17 50 21 53 15 9 10 60 -10 116 -34 93 -34 98 -13 98 10 0 24 -10 31
-22 6 -13 25 -41 41 -63 16 -22 39 -67 51 -99 13 -33 37 -89 55 -124 l32 -64
-1 -187 c-2 -165 -4 -190 -20 -205 -10 -10 -26 -34 -36 -55 -11 -20 -31 -49
-45 -66 -26 -30 -32 -59 -17 -83 10 -17 151 -30 151 -13 0 6 15 11 35 11 19 0
35 5 35 10 0 6 6 10 14 10 20 0 46 39 46 67 0 16 6 23 20 23 34 0 35 17 10
265 -13 132 -1 290 27 354 20 44 12 95 -25 174 -16 34 -33 84 -36 110 -7 46
-5 51 32 100 22 29 58 81 80 115 l39 64 8 -49 c10 -66 8 -148 -5 -186 -22 -71
-40 -161 -40 -209 0 -56 26 -232 40 -263 20 -48 50 -165 56 -217 6 -48 10 -58
25 -58 14 0 19 7 19 29 0 16 5 31 11 33 15 5 24 251 12 298 -6 22 -6 50 0 75
6 22 10 105 11 185 1 123 -2 155 -21 215 -28 88 -41 257 -30 372 17 167 53
322 94 398 37 69 38 71 38 185 0 131 -24 226 -68 274 -16 17 -23 34 -20 47 7
25 -26 61 -85 96 -38 23 -59 26 -204 34 -88 5 -164 11 -168 14 -5 3 -138 5
-297 6 -292 1 -298 0 -633 -48 -174 -25 -616 -24 -815 2 -127 17 -214 20 -565
21 -228 1 -453 6 -500 11 -47 6 -99 9 -117 6 -25 -4 -32 -1 -37 15 -12 37
-118 44 -181 12 -27 -14 -41 -17 -44 -9 -2 6 -12 19 -23 28 -11 9 -30 25 -42
37 -40 39 -77 55 -139 59 -34 3 -75 0 -92 -6z m131 -54 c48 -20 39 -39 -19
-43 -49 -3 -55 3 -37 39 13 23 12 23 56 4z m-151 -55 c0 -16 -3 -30 -6 -30 -9
0 -18 48 -11 55 12 11 17 4 17 -25z m157 -71 c-6 -16 -18 -22 -53 -24 -33 -2
-39 -1 -21 6 12 4 22 13 22 18 0 5 8 12 18 14 36 10 42 8 34 -14z m-219 -13
c3 -8 -1 -17 -9 -20 -28 -11 -34 -6 -22 14 15 24 24 25 31 6z m3867 -12 c0 -3
-9 -15 -21 -27 -12 -13 -19 -31 -16 -44 2 -13 0 -23 -4 -23 -5 0 -9 -9 -9 -20
0 -10 -5 -31 -12 -45 -13 -30 5 -119 29 -144 8 -7 10 -17 6 -20 -5 -3 -12 -14
-16 -23 -7 -19 -27 -25 -27 -8 0 6 -9 10 -20 10 -17 0 -20 7 -20 43 0 35 -5
47 -30 67 -16 14 -30 29 -30 35 0 6 -9 17 -20 25 -11 8 -19 24 -19 35 1 17 2
17 6 3 6 -25 43 -23 43 1 0 15 10 21 40 26 30 5 40 11 40 25 0 19 -10 25 -72
36 -30 5 -38 3 -38 -9 0 -17 -64 -28 -95 -16 -11 4 -14 8 -7 8 6 1 12 8 12 16
0 8 9 15 20 15 11 0 20 7 20 15 0 13 7 15 35 9 22 -4 35 -2 35 4 0 6 21 12 48
14 52 3 122 -2 122 -8z m-3772 -13 c10 -6 2 -14 -29 -30 -37 -20 -41 -20 -28
-4 39 49 36 48 57 34z m1605 -51 c4 -15 -1 -22 -19 -26 -13 -3 -24 -10 -24
-14 0 -15 -64 -20 -97 -8 -30 11 -47 38 -24 38 21 0 41 -13 41 -26 0 -8 9 -14
20 -14 14 0 20 7 20 24 0 20 4 23 21 19 14 -4 25 0 31 11 12 22 25 20 31 -4z
m1487 0 c0 -5 -7 -10 -15 -10 -8 0 -15 -9 -15 -20 0 -13 7 -20 20 -20 13 0 20
7 20 20 0 11 5 20 10 20 6 0 10 -9 10 -20 0 -13 7 -20 20 -20 13 0 20 7 20 20
0 17 7 20 45 20 32 0 50 -6 63 -21 16 -16 27 -19 56 -14 35 7 36 6 36 -24 0
-20 -5 -31 -14 -31 -12 0 -14 -15 -12 -70 2 -66 1 -70 -20 -70 -27 0 -37 -32
-28 -92 7 -48 34 -83 70 -92 13 -4 24 -11 24 -16 0 -6 14 -10 30 -10 28 0 30
-3 30 -35 0 -32 30 -75 52 -75 4 0 8 -6 8 -13 0 -14 9 -19 85 -52 32 -15 45
-16 70 -6 19 7 31 8 33 1 2 -5 15 -10 28 -10 32 0 32 -28 0 -78 -36 -58 -42
-96 -17 -121 12 -12 21 -30 21 -41 0 -11 4 -20 9 -20 5 0 11 -11 13 -25 3 -14
1 -25 -3 -25 -5 0 -9 5 -9 10 0 6 -11 10 -25 10 -18 0 -25 -5 -25 -19 0 -11 6
-22 13 -24 6 -3 -1 -6 -18 -6 -23 -1 -35 -9 -49 -34 -11 -18 -21 -27 -23 -19
-7 17 -43 15 -43 -3 0 -8 -4 -15 -10 -15 -5 0 -10 -7 -10 -15 0 -8 -7 -15 -15
-15 -8 0 -15 -9 -15 -20 0 -24 -16 -26 -28 -4 -7 12 -19 15 -41 12 -17 -2 -31
-1 -31 4 0 4 -9 8 -20 8 -13 0 -20 -7 -20 -19 0 -14 -6 -17 -25 -13 -19 3 -25
0 -25 -14 0 -15 -2 -16 -12 -5 -10 11 -10 14 0 18 6 3 12 13 12 24 0 15 -7 19
-31 19 -30 0 -31 -2 -27 -34 4 -33 3 -33 -24 -24 -15 6 -28 14 -28 18 0 5 -13
11 -30 15 -21 5 -30 13 -30 26 0 12 -7 19 -20 19 -11 0 -20 5 -20 11 0 16 -26
39 -44 39 -9 0 -16 8 -16 20 0 11 -4 20 -10 20 -5 0 -10 11 -10 25 0 18 -5 25
-19 25 -12 0 -21 9 -25 25 -4 16 -13 25 -25 25 -13 0 -21 8 -23 23 -2 14 -11
23 -27 25 -21 3 -23 0 -19 -22 3 -15 0 -27 -8 -30 -21 -8 -17 -46 4 -46 15 0
16 -7 13 -47 -3 -27 -7 -39 -8 -28 -2 12 -16 26 -33 32 -20 8 -30 18 -30 32 0
14 -6 21 -20 21 -11 0 -20 -7 -20 -15 0 -8 -4 -15 -9 -15 -5 0 -11 -13 -14
-30 -4 -16 -13 -30 -21 -30 -16 0 -30 -61 -21 -90 4 -12 2 -20 -5 -20 -6 0
-18 -7 -26 -15 -9 -8 -29 -15 -45 -15 -25 0 -29 -4 -29 -26 0 -23 3 -26 25
-22 14 3 25 1 25 -3 0 -5 -13 -9 -29 -9 -16 0 -36 -7 -45 -15 -8 -8 -19 -15
-25 -15 -6 0 -11 -7 -11 -15 0 -8 -9 -15 -20 -15 -11 0 -20 -5 -20 -10 0 -7
-13 -8 -35 -4 -31 5 -35 4 -35 -14 0 -17 8 -22 38 -27 52 -9 61 -13 30 -14
-19 -1 -28 -6 -28 -17 0 -11 -5 -14 -16 -10 -9 3 -19 6 -24 6 -4 0 -11 16 -14
35 -5 27 -12 35 -28 35 -17 0 -20 -5 -16 -35 3 -29 1 -35 -15 -35 -10 0 -26
-7 -34 -16 -12 -11 -26 -14 -51 -9 -19 4 -38 2 -41 -3 -9 -13 -71 -23 -71 -12
0 6 -9 10 -20 10 -11 0 -20 5 -20 10 0 6 -9 10 -20 10 -13 0 -20 7 -20 20 0
13 -7 20 -19 20 -13 0 -21 9 -26 29 -3 16 -17 37 -31 45 -36 25 -30 31 32 31
49 0 59 -3 78 -28 30 -38 84 -49 164 -36 57 10 62 13 62 36 0 24 2 25 42 20
61 -8 98 2 111 30 8 18 8 29 -1 44 -19 30 -15 32 38 25 28 -4 50 -3 50 2 0 4
20 13 45 20 45 12 45 12 45 57 0 25 -4 45 -10 45 -5 0 -10 9 -10 20 0 11 -6
20 -14 20 -8 0 -18 5 -22 12 -5 8 2 9 27 4 19 -3 36 -11 37 -16 7 -19 39 -10
52 15 7 14 17 25 22 25 5 0 9 10 7 23 -2 31 12 87 22 87 5 0 9 9 9 20 0 11 -4
20 -10 20 -5 0 -10 15 -10 33 0 18 -5 38 -12 45 -9 9 -8 12 4 12 9 0 18 -7 22
-15 3 -8 14 -15 24 -15 10 0 23 -5 29 -11 13 -13 73 -3 73 12 0 5 9 9 21 9 29
0 48 53 55 158 6 77 4 92 -12 118 -32 49 -57 74 -74 74 -12 0 -16 6 -13 23 3
13 -5 37 -19 57 -19 27 -33 36 -68 42 -50 9 -69 28 -40 42 22 10 26 48 11 89
-7 19 -5 28 10 40 20 18 79 23 79 8 0 -5 20 -9 45 -9 32 0 45 4 45 14 0 9 11
14 30 14 17 0 30 4 30 9 0 8 10 12 53 20 4 0 7 -3 7 -9z m-1250 -17 c0 -12 -3
-14 -8 -6 -4 6 -21 13 -37 16 -27 4 -27 4 8 6 29 1 37 -3 37 -16z m56 -21 c6
-4 16 -17 22 -29 10 -19 9 -20 -9 -16 -11 3 -23 13 -27 22 -3 9 -10 19 -16 23
-7 5 -5 8 4 8 8 0 20 -4 26 -8z m-2002 -44 c-3 -13 -10 -30 -15 -38 -7 -12 -8
-10 -9 7 0 28 10 53 22 53 5 0 6 -10 2 -22z m1686 -3 c0 -8 9 -15 20 -15 11 0
20 7 20 15 0 8 5 15 10 15 6 0 10 -4 10 -10 0 -5 8 -10 18 -10 10 0 24 -9 32
-20 8 -11 22 -20 32 -20 10 0 18 -4 18 -10 0 -5 9 -10 20 -10 14 0 20 7 21 23
1 16 2 18 6 5 2 -10 13 -18 24 -18 10 0 19 -4 19 -10 0 -5 9 -10 20 -10 13 0
20 7 20 18 0 14 7 18 33 18 29 -1 33 -4 29 -23 -3 -16 0 -23 12 -23 18 0 22
-25 6 -35 -12 -8 -13 -65 -1 -65 5 0 11 -13 15 -30 3 -18 12 -30 21 -30 8 0
15 -4 15 -10 0 -5 10 -10 23 -10 25 0 63 -20 38 -20 -11 0 -12 -10 -8 -45 l7
-45 -45 0 c-25 0 -45 -4 -45 -10 0 -5 -13 -7 -28 -4 -25 5 -31 2 -41 -24 -18
-42 6 -162 31 -162 6 0 5 -6 -2 -15 -7 -8 -22 -12 -38 -9 -40 7 -54 -8 -60
-64 -4 -49 -5 -50 -43 -56 -33 -5 -39 -10 -39 -30 0 -27 -28 -43 -36 -21 -4 8
-12 15 -20 15 -8 0 -14 10 -14 25 0 15 6 25 14 25 19 0 40 54 32 84 -5 19 -1
29 16 40 12 9 30 16 39 16 23 0 31 40 19 92 -13 56 -12 58 5 58 33 0 51 105
20 116 -8 4 -15 12 -15 19 0 7 -7 18 -15 25 -8 7 -15 21 -15 31 0 11 -7 19
-15 19 -8 0 -15 7 -15 16 0 9 -9 18 -20 21 -11 3 -20 11 -20 17 0 7 -14 16
-32 21 -17 6 -36 19 -42 29 -6 11 -26 34 -43 52 -32 30 -44 64 -23 64 6 0 10
-7 10 -15z m270 -7 c0 -5 -13 -8 -30 -8 -16 0 -30 3 -30 8 0 4 14 7 30 7 17 0
30 -3 30 -7z m-2160 -319 c0 -5 -6 -9 -14 -9 -23 0 -46 11 -41 20 6 10 55 0
55 -11z m1590 -19 c0 -11 -2 -20 -4 -20 -2 0 -6 9 -9 20 -3 11 -1 20 4 20 5 0
9 -9 9 -20z m-1523 -32 c-3 -8 -6 -5 -6 6 -1 11 2 17 5 13 3 -3 4 -12 1 -19z
m1478 2 c3 -5 1 -10 -4 -10 -6 0 -11 5 -11 10 0 6 2 10 4 10 3 0 8 -4 11 -10z
m-40 -79 c-4 -17 -11 -31 -16 -31 -5 0 -9 -13 -9 -30 0 -25 -4 -30 -24 -30
-19 0 -23 4 -19 20 3 11 12 20 19 20 8 0 14 10 14 25 0 14 -4 25 -10 25 -5 0
-10 4 -10 9 0 4 11 6 25 3 19 -3 25 0 25 14 0 9 3 15 6 11 3 -3 3 -19 -1 -36z
m1250 -33 c5 -4 0 -8 -12 -8 -19 0 -23 5 -22 33 0 32 0 32 12 7 6 -14 16 -28
22 -32z m-172 -38 c-3 -11 -9 -20 -14 -20 -11 0 -11 3 -3 24 9 23 23 20 17 -4z
m-1173 -65 c0 -8 8 -15 18 -15 13 0 14 -2 3 -9 -9 -6 -11 -18 -7 -35 5 -22 3
-26 -17 -26 -13 0 -28 -5 -34 -11 -8 -8 -17 -5 -33 11 -12 12 -19 24 -16 28 4
3 12 0 18 -6 7 -7 20 -12 30 -12 21 0 25 39 8 71 -9 16 -7 19 10 19 11 0 20
-7 20 -15z m1140 -65 c0 -5 -5 -10 -11 -10 -5 0 -7 5 -4 10 3 6 8 10 11 10 2
0 4 -4 4 -10z m-960 -86 c0 -2 -7 -4 -15 -4 -8 0 -15 4 -15 10 0 5 7 7 15 4 8
-4 15 -8 15 -10z m1663 -241 c2 -10 8 -25 12 -35 5 -12 0 -18 -17 -23 -47 -14
-108 -40 -108 -47 0 -5 -5 -8 -11 -8 -7 0 -18 -8 -25 -17 -12 -16 -13 -15 -14
15 0 22 5 32 15 32 8 0 15 7 15 15 0 10 10 15 31 15 22 0 32 5 36 20 3 11 12
20 19 20 8 0 14 7 14 15 0 21 27 19 33 -2z m527 -89 c0 -2 -7 -4 -15 -4 -8 0
-15 4 -15 10 0 5 7 7 15 4 8 -4 15 -8 15 -10z m-460 -60 c0 -10 7 -14 23 -12
23 3 31 -1 77 -45 32 -30 36 -42 20 -52 -5 -3 -10 -2 -10 3 0 5 -21 13 -46 17
-34 5 -48 12 -51 26 -3 12 -14 19 -29 19 -13 0 -24 4 -24 9 0 5 -3 16 -6 24
-5 14 6 21 39 26 4 0 7 -6 7 -15z m270 1 c0 -8 8 -15 18 -16 9 0 12 -3 5 -5
-6 -3 -29 4 -50 15 l-38 20 33 1 c22 0 32 -5 32 -15z m-526 -20 c-4 -8 -8 -15
-10 -15 -2 0 -4 7 -4 15 0 8 4 15 10 15 5 0 7 -7 4 -15z m-1166 -63 c27 -4 29
-32 2 -32 -11 0 -20 5 -20 11 0 8 -21 10 -65 7 -68 -4 -87 6 -35 17 17 4 43
18 58 32 l27 25 5 -28 c4 -20 12 -30 28 -32z m1135 27 c-6 -6 -19 -9 -29 -6
-16 4 -15 5 4 6 12 0 22 6 22 13 0 6 3 8 7 5 4 -4 2 -12 -4 -18z m677 -23 c0
-19 6 -26 28 -29 22 -3 21 -4 -10 -6 -38 -1 -48 10 -40 42 7 25 22 21 22 -7z
m-2420 -29 c25 -6 63 -68 50 -81 -6 -6 -10 -21 -10 -35 0 -24 -4 -26 -45 -28
-47 -2 -49 0 -45 49 1 14 -3 29 -9 33 -14 8 -14 45 -1 45 6 0 10 9 10 19 0 22
23 35 28 15 2 -6 12 -14 22 -17z m936 -13 c-9 -8 -16 -21 -17 -27 0 -12 -17
20 -18 36 -1 4 11 7 25 7 23 0 24 -1 10 -16z m114 -6 c0 -7 -5 -20 -10 -28 -8
-12 -10 -11 -10 7 0 12 -8 24 -17 26 -11 3 -7 5 10 6 16 1 27 -4 27 -11z m-60
-18 c0 -11 5 -20 12 -20 6 0 9 -2 7 -5 -3 -2 -14 -2 -26 1 -14 4 -19 11 -16
25 7 25 23 24 23 -1z m1629 -37 c-1 -37 -3 -42 -8 -23 -7 24 -3 70 5 70 2 0 4
-21 3 -47z m-2837 12 c13 -13 36 -29 51 -34 26 -10 38 -41 17 -41 -5 0 -10 7
-10 15 0 11 -12 15 -45 15 -33 0 -52 6 -68 21 -22 20 -22 21 -3 35 26 19 29
18 58 -11z m2643 9 c9 -4 21 -17 26 -30 5 -14 17 -24 29 -24 11 0 20 -7 20
-15 0 -10 11 -15 38 -16 23 -1 28 -3 15 -6 -30 -6 -32 -43 -3 -43 11 0 20 -4
20 -10 0 -5 -9 -10 -20 -10 -11 0 -20 -4 -20 -10 0 -5 -4 -10 -10 -10 -5 0
-10 14 -10 30 0 20 -5 30 -15 30 -8 0 -15 9 -15 20 0 12 -14 29 -34 42 -19 13
-37 31 -40 41 -5 19 -4 19 19 11z m-2825 -64 c0 -5 -5 -10 -11 -10 -5 0 -7 5
-4 10 3 6 8 10 11 10 2 0 4 -4 4 -10z m3316 -108 c-13 -12 -18 9 -10 45 l8 38
4 -39 c2 -21 1 -41 -2 -44z m-3216 2 c0 -2 -7 -4 -15 -4 -8 0 -15 4 -15 10 0
5 7 7 15 4 8 -4 15 -8 15 -10z m2892 -171 c8 -10 6 -13 -5 -13 -15 0 -30 54
-18 66 3 3 8 -5 9 -18 2 -12 9 -29 14 -35z m-2245 -64 l-14 -34 1 45 c0 25 6
50 11 56 17 19 18 -29 2 -67z m1783 -251 c0 -25 -4 -38 -9 -32 -8 8 -4 74 5
74 2 0 4 -19 4 -42z m460 -22 c0 -3 -4 -8 -10 -11 -5 -3 -10 -1 -10 4 0 6 5
11 10 11 6 0 10 -2 10 -4z m-2715 -155 c-3 -6 -11 -11 -16 -11 -5 0 -4 6 3 14
14 16 24 13 13 -3z m2220 9 c3 -5 1 -10 -4 -10 -6 0 -11 5 -11 10 0 6 2 10 4
10 3 0 8 -4 11 -10z m475 -170 c0 -5 -5 -10 -11 -10 -5 0 -7 5 -4 10 3 6 8 10
11 10 2 0 4 -4 4 -10z"/>
<path d="M3250 2400 c0 -13 7 -20 20 -20 13 0 20 7 20 20 0 13 -7 20 -20 20
-13 0 -20 -7 -20 -20z"/>
</g>
</svg>
