<?xml version="1.0" standalone="no"?>
<!DOCTYPE svg PUBLIC "-//W3C//DTD SVG 20010904//EN"
 "http://www.w3.org/TR/2001/REC-SVG-20010904/DTD/svg10.dtd">
<svg version="1.0" xmlns="http://www.w3.org/2000/svg"
 width="440.000000pt" height="281.000000pt" viewBox="0 0 440.000000 281.000000"
 preserveAspectRatio="xMidYMid meet">
<metadata>
Created by potrace 1.13, written by Peter Selinger 2001-2015
</metadata>
<g transform="translate(0.000000,281.000000) scale(0.100000,-0.100000)"
fill="#000000" stroke="none">
<path d="M680 2791 c-8 -5 -43 -11 -78 -15 -34 -3 -76 -13 -92 -21 -34 -18
-60 -20 -113 -9 -25 4 -46 2 -63 -6 -29 -16 -33 -50 -5 -50 26 0 63 -32 53
-47 -6 -9 -24 -10 -72 -3 -87 12 -158 -3 -166 -36 -14 -55 49 -164 96 -164 17
0 40 -38 40 -67 0 -45 -136 -233 -169 -233 -17 0 -31 -54 -31 -115 0 -78 0
-78 133 -99 95 -16 120 -14 145 11 14 13 25 14 162 18 41 1 87 5 101 9 33 9
78 -26 109 -87 41 -79 121 -199 156 -232 20 -19 64 -95 64 -110 0 -8 4 -23 9
-33 33 -61 51 -105 51 -122 0 -11 5 -20 10 -20 6 0 10 -7 10 -16 0 -22 41
-104 52 -104 4 0 8 -5 8 -11 0 -16 43 -103 53 -107 4 -2 7 -10 7 -18 0 -8 6
-14 13 -14 8 0 19 -11 27 -24 29 -55 142 -116 229 -125 l54 -6 1 -86 c1 -54 6
-92 14 -101 18 -22 5 -195 -19 -270 -11 -32 -19 -67 -19 -78 0 -11 -11 -33
-25 -49 -45 -50 -94 -135 -95 -162 0 -20 6 -28 24 -33 40 -10 209 3 218 17 12
19 28 79 28 108 0 15 6 32 13 38 21 17 36 103 42 245 3 71 11 138 16 149 10
18 11 18 23 -4 7 -13 21 -37 32 -53 10 -17 25 -62 32 -100 17 -88 15 -254 -2
-281 -17 -26 -56 -144 -56 -167 0 -38 140 -38 188 1 15 12 35 24 45 28 9 3 17
12 17 19 0 8 7 17 15 20 16 6 21 44 6 44 -13 0 -22 43 -11 54 19 19 7 124 -27
226 -8 25 -14 75 -14 112 0 37 -4 70 -8 72 -13 8 -4 378 9 386 6 4 55 15 109
25 128 23 419 19 445 -7 28 -29 84 -41 150 -33 33 4 113 8 177 10 100 3 126 7
193 33 67 26 80 29 94 17 9 -8 37 -30 61 -50 24 -20 56 -42 71 -50 19 -10 29
-25 33 -47 9 -57 25 -88 46 -88 26 0 37 17 46 68 6 38 9 42 35 42 26 0 29 -4
32 -37 3 -35 6 -38 36 -41 18 -2 32 1 32 7 0 6 5 11 10 11 6 0 10 -13 10 -29
0 -16 3 -36 6 -45 9 -24 60 -20 78 5 l15 22 5 -24 c2 -13 12 -55 21 -94 25
-101 19 -150 -32 -305 -13 -41 -31 -106 -39 -145 -13 -59 -21 -76 -54 -106
-46 -43 -122 -164 -118 -188 3 -13 15 -16 71 -14 150 5 240 51 224 112 -4 18
-1 21 30 21 l36 0 -6 45 c-4 25 -3 53 2 63 5 9 19 62 32 117 39 170 99 325
127 325 10 0 13 7 9 27 -3 17 4 43 20 72 20 37 24 57 21 101 -4 56 -27 115
-60 159 -10 13 -18 33 -18 45 1 18 6 15 38 -20 20 -22 54 -53 75 -68 20 -16
37 -32 37 -37 0 -5 15 -41 34 -81 41 -88 50 -130 76 -321 25 -184 25 -203 -1
-235 -75 -97 -96 -139 -82 -160 9 -14 25 -16 103 -14 58 2 108 10 132 20 40
17 40 17 35 65 -4 43 -2 48 19 53 19 5 24 13 24 38 0 18 -3 36 -7 40 -11 11
-32 114 -32 160 -1 37 9 79 32 136 5 14 11 102 13 195 2 154 0 183 -26 315
-16 80 -39 186 -51 235 -16 70 -19 103 -14 150 9 72 9 55 2 345 -10 391 -28
518 -81 580 -13 16 -26 33 -28 38 -5 15 -80 58 -123 72 -22 7 -58 22 -80 33
-32 17 -65 21 -170 25 -231 8 -337 -3 -585 -63 -152 -36 -383 -68 -495 -69
-44 0 -145 5 -225 11 -292 24 -903 34 -1115 19 -177 -13 -255 -6 -255 23 0 35
-36 61 -99 73 -57 11 -63 10 -110 -15 -60 -31 -65 -26 -66 52 0 34 -5 56 -12
58 -7 3 -13 9 -13 15 0 15 -31 37 -52 38 -10 0 -18 -5 -18 -12 0 -9 -3 -9 -12
0 -14 14 -36 15 -58 3z m-76 -88 c-14 -10 -19 -10 -25 -1 -5 8 0 17 14 25 28
15 38 -4 11 -24z m71 -83 c3 -6 -5 -10 -19 -10 -14 0 -28 5 -31 10 -3 6 5 10
19 10 14 0 28 -4 31 -10z m2955 -14 c0 -17 -18 -25 -42 -18 -30 8 -21 32 12
32 19 0 30 -5 30 -14z m-3216 -40 c-3 -15 -8 -25 -11 -23 -2 3 -1 17 3 31 3
15 8 25 11 23 2 -3 1 -17 -3 -31z m96 -21 c-14 -7 -27 -11 -30 -9 -6 7 22 24
40 23 9 0 5 -6 -10 -14z m3180 -31 c0 -2 -7 -4 -15 -4 -8 0 -15 4 -15 10 0 5
7 7 15 4 8 -4 15 -8 15 -10z m105 6 c3 -5 -1 -10 -9 -10 -9 0 -16 5 -16 10 0
6 4 10 9 10 6 0 13 -4 16 -10z m-1980 -8 c6 -4 17 -16 25 -26 14 -18 14 -19
-10 -5 -14 8 -27 17 -30 20 -3 4 -14 9 -25 12 -17 4 -16 5 5 6 14 0 30 -3 35
-7z m-375 -23 c0 -5 -9 -9 -20 -9 -11 0 -20 -7 -20 -15 0 -8 -7 -15 -15 -15
-8 0 -15 -7 -15 -15 0 -8 -4 -15 -10 -15 -5 0 -10 5 -10 10 0 6 -7 10 -15 10
-8 0 -15 6 -15 14 0 8 -3 21 -6 30 -4 11 -1 16 10 16 9 0 16 -7 16 -15 0 -8 9
-15 20 -15 13 0 20 7 20 18 0 15 6 18 30 14 17 -2 30 -8 30 -13z m440 -62 c0
-5 -4 -5 -10 -2 -5 3 -10 14 -10 23 0 15 2 15 10 2 5 -8 10 -19 10 -23z m-427
-8 c-4 -12 -11 -18 -20 -15 -8 3 -17 6 -19 6 -2 0 -4 7 -4 15 0 9 9 15 24 15
19 0 23 -4 19 -21z m1781 6 c8 -22 73 -20 79 3 3 9 5 3 6 -15 1 -25 6 -32 23
-35 26 -3 38 -38 14 -38 -9 0 -16 5 -16 10 0 6 -7 10 -15 10 -8 0 -15 5 -15
10 0 6 -9 10 -20 10 -11 0 -20 -5 -20 -10 0 -12 -73 16 -78 30 -2 6 -10 10
-18 10 -8 0 -14 7 -14 15 0 10 10 15 34 15 21 0 36 -6 40 -15z m-1670 -42 c-9
-54 -26 -70 -59 -55 -14 6 -25 18 -25 26 0 8 -6 16 -12 19 -22 8 0 19 47 24
25 3 45 10 45 14 0 5 2 9 5 9 3 0 3 -17 -1 -37z m209 16 c-4 -15 -8 -17 -14
-8 -8 14 -3 29 11 29 4 0 6 -9 3 -21z m1127 6 c15 -8 19 -14 10 -15 -28 0 -60
12 -54 21 7 12 14 11 44 -6z m-1510 -5 c0 -5 -4 -10 -10 -10 -5 0 -10 5 -10
10 0 6 5 10 10 10 6 0 10 -4 10 -10z m1427 -16 c-3 -3 -12 -4 -19 -1 -8 3 -5
6 6 6 11 1 17 -2 13 -5z m883 -3 c0 -5 -9 -7 -20 -4 -11 3 -20 7 -20 9 0 2 9
4 20 4 11 0 20 -4 20 -9z m-1950 -36 c0 -8 -4 -15 -10 -15 -5 0 -10 7 -10 15
0 8 5 15 10 15 6 0 10 -7 10 -15z m1780 -37 c0 -6 11 -20 25 -32 l25 -22 -23
-23 c-18 -16 -31 -20 -51 -15 -14 3 -26 12 -26 20 0 8 -7 14 -15 14 -22 0 -18
18 6 25 18 6 20 12 14 42 l-6 34 25 -17 c14 -9 26 -21 26 -26z m-106 26 c9 -3
13 -10 10 -15 -9 -14 -41 -10 -48 6 -6 16 10 20 38 9z m-604 -14 c0 -5 -7 -10
-15 -10 -8 0 -15 5 -15 10 0 6 7 10 15 10 8 0 15 -4 15 -10z m-1100 -5 c0 -4
-7 -20 -16 -37 -20 -39 -11 -78 19 -79 22 -2 22 -2 -1 -6 -13 -3 -26 -11 -29
-19 -3 -8 -11 -14 -19 -14 -8 0 -14 -5 -14 -11 0 -6 -7 -17 -15 -25 -23 -23
-20 -74 4 -74 11 0 22 6 24 13 3 6 8 -3 12 -21 4 -18 12 -35 16 -38 17 -10 9
-25 -13 -22 -14 2 -24 12 -28 28 -5 22 -11 25 -52 26 -60 1 -93 29 -79 68 13
34 20 33 32 -4 7 -19 18 -30 30 -30 21 0 25 21 8 52 -9 16 -7 24 10 39 11 10
27 19 36 19 18 0 20 36 3 43 -8 3 -5 6 6 6 14 1 17 7 14 26 -4 17 -1 25 8 25
8 0 14 9 14 20 0 11 7 20 15 20 8 0 15 -2 15 -5z m160 -10 c0 -8 -4 -15 -10
-15 -5 0 -10 7 -10 15 0 8 5 15 10 15 6 0 10 -7 10 -15z m68 -64 c38 -20 41
-23 27 -37 -8 -9 -15 -24 -15 -34 0 -26 -10 -50 -22 -50 -6 0 -8 17 -4 43 8
53 0 77 -25 77 -13 0 -19 7 -19 23 0 13 3 17 8 11 4 -6 26 -21 50 -33z m-196
-23 c-7 -7 -12 -8 -12 -2 0 6 3 14 7 17 3 4 9 5 12 2 2 -3 -1 -11 -7 -17z
m1941 -18 l7 -35 -20 23 c-15 19 -17 26 -7 37 7 7 12 12 13 11 1 0 4 -17 7
-36z m85 2 c2 -7 -2 -10 -12 -6 -9 3 -16 11 -16 16 0 13 23 5 28 -10z m-578
-2 c0 -5 -5 -10 -11 -10 -5 0 -7 5 -4 10 3 6 8 10 11 10 2 0 4 -4 4 -10z m120
-35 c10 -12 10 -15 -4 -15 -9 0 -16 7 -16 15 0 8 2 15 4 15 2 0 9 -7 16 -15z
m480 5 c0 -5 -2 -10 -4 -10 -3 0 -8 5 -11 10 -3 6 -1 10 4 10 6 0 11 -4 11
-10z m-353 -49 c-8 -15 -13 -19 -16 -10 -2 8 -9 17 -15 21 -8 5 -7 8 2 8 6 0
12 7 12 15 0 13 2 13 14 3 10 -10 11 -18 3 -37z m-387 9 c0 -11 5 -20 10 -20
6 0 10 -7 10 -15 0 -8 -9 -15 -20 -15 -16 0 -20 7 -20 35 0 19 5 35 10 35 6 0
10 -9 10 -20z m826 -10 c8 0 14 -6 14 -13 0 -9 -10 -12 -30 -9 -18 3 -30 10
-30 19 0 10 6 13 16 9 9 -3 22 -6 30 -6z m-63 -32 c-6 -7 -13 -20 -16 -28 -3
-9 -6 -3 -6 13 -1 19 4 27 15 27 12 0 14 -4 7 -12z m-1916 -60 c-3 -7 -5 -2
-5 12 0 14 2 19 5 13 2 -7 2 -19 0 -25z m1450 10 c-3 -8 -6 -5 -6 6 -1 11 2
17 5 13 3 -3 4 -12 1 -19z m-2615 -11 c4 -22 4 -22 -28 -7 -35 17 -35 30 0 30
17 0 25 -7 28 -23z m2351 -59 c9 -15 17 -34 17 -43 0 -8 4 -15 9 -15 5 0 12
-15 15 -34 6 -29 13 -37 42 -46 30 -10 35 -16 30 -34 -3 -11 -6 -37 -7 -56 -1
-19 -3 -27 -6 -17 -3 10 -14 17 -29 17 -19 0 -24 -5 -24 -25 0 -16 -6 -25 -16
-25 -13 0 -15 -7 -10 -35 6 -31 4 -35 -14 -35 -11 0 -20 -6 -21 -12 0 -10 -2
-10 -6 0 -8 20 -43 14 -43 -8 0 -11 -7 -20 -15 -20 -8 0 -15 -7 -15 -15 0 -8
-7 -15 -15 -15 -9 0 -15 -9 -15 -24 0 -13 -7 -26 -15 -30 -8 -3 -15 -15 -15
-26 0 -28 -17 -25 -22 4 -4 19 0 26 19 30 12 4 23 13 23 20 0 26 -12 46 -27
46 -16 0 -63 -44 -63 -59 0 -6 -9 -15 -20 -21 -15 -8 -20 -8 -20 1 0 7 -7 17
-15 23 -13 9 -8 14 28 24 44 13 45 14 57 75 15 70 25 87 50 87 10 0 20 10 24
23 9 35 7 45 -11 50 -14 4 -12 5 5 6 12 1 22 7 22 16 0 8 9 15 19 15 11 0 27
7 35 16 15 14 16 14 16 -4 0 -11 -4 -22 -10 -24 -5 -1 -12 -18 -16 -35 -5 -26
-3 -33 10 -33 14 0 13 -3 -4 -20 -11 -11 -24 -20 -30 -20 -11 0 -25 -48 -17
-57 9 -9 57 6 57 18 0 5 11 20 24 33 18 15 24 32 24 56 -1 19 4 36 10 38 15 5
16 42 2 42 -5 0 -10 7 -10 15 0 8 -9 15 -20 15 -11 0 -20 7 -20 15 0 8 7 15
15 15 9 0 15 9 15 24 0 28 -25 40 -64 30 -20 -5 -26 -2 -26 10 0 9 -3 16 -8
16 -4 0 -13 9 -20 20 -11 18 -10 20 8 20 13 0 24 -10 30 -25 7 -18 17 -25 35
-25 30 0 32 19 8 58 -17 27 -17 27 3 7 10 -11 27 -32 37 -47z m-1213 32 c0 -5
-4 -10 -10 -10 -5 0 -10 5 -10 10 0 6 5 10 10 10 6 0 10 -4 10 -10z m-1115
-20 c3 -5 1 -10 -4 -10 -6 0 -11 5 -11 10 0 6 2 10 4 10 3 0 8 -4 11 -10z
m1985 -62 c-7 -19 -9 -15 -9 22 0 37 2 41 9 23 6 -14 6 -32 0 -45z m1432 -284
c0 -181 0 -354 -1 -384 l-1 -55 -20 30 c-11 17 -20 38 -20 48 0 9 -4 17 -10
17 -5 0 -10 9 -10 20 0 11 -7 20 -15 20 -16 0 -19 19 -16 135 1 39 6 84 11
100 5 17 9 39 9 50 -1 11 8 47 20 80 18 48 39 190 41 264 0 8 2 12 5 9 3 -3 6
-154 7 -334z m-385 304 c-3 -8 -6 -5 -6 6 -1 11 2 17 5 13 3 -3 4 -12 1 -19z
m-1838 -42 c29 -47 27 -69 -9 -85 -41 -17 -60 -8 -60 29 0 23 4 30 20 30 16 0
20 7 20 30 0 17 2 30 4 30 2 0 14 -15 25 -34z m1021 8 c0 -8 7 -22 15 -30 13
-14 13 -17 0 -31 -31 -31 -58 11 -39 61 8 21 24 21 24 0z m649 -27 c0 -18 -3
-25 -6 -17 -3 8 -10 18 -15 21 -11 7 1 41 13 33 5 -3 9 -20 8 -37z m-1884 -29
c6 -14 27 -26 58 -35 43 -13 47 -16 40 -36 -4 -12 -7 -36 -7 -53 0 -29 -1 -30
-18 -15 -10 8 -18 23 -18 33 0 10 -7 18 -15 18 -8 0 -15 7 -15 15 0 8 -7 15
-15 15 -8 0 -15 7 -15 15 0 8 -6 15 -14 15 -9 0 -12 8 -8 25 5 31 14 32 27 3z
m75 18 c0 -3 -4 -8 -10 -11 -5 -3 -10 -1 -10 4 0 6 5 11 10 11 6 0 10 -2 10
-4z m910 -15 c0 -26 -36 -37 -55 -17 -14 13 -13 16 2 25 29 17 53 13 53 -8z
m911 -109 c8 -15 20 -31 26 -35 7 -4 13 -16 12 -25 0 -10 -3 -12 -6 -5 -2 7
-20 15 -39 19 -31 6 -34 9 -34 40 0 27 -4 34 -20 34 -16 0 -20 -7 -21 -37 0
-21 -3 -32 -6 -25 -2 6 -11 12 -19 12 -8 0 -14 9 -14 20 0 11 -4 20 -10 20 -5
0 -10 5 -10 10 0 6 9 10 20 10 13 0 20 7 20 20 0 20 8 24 48 20 12 -1 23 4 23
12 1 7 5 -4 9 -25 4 -21 13 -50 21 -65z m-186 -2 c-3 -5 -10 -10 -16 -10 -5 0
-9 5 -9 10 0 6 7 10 16 10 8 0 12 -4 9 -10z m55 -40 c0 -5 -2 -10 -4 -10 -3 0
-8 5 -11 10 -3 6 -1 10 4 10 6 0 11 -4 11 -10z m77 -22 c-3 -8 -6 -5 -6 6 -1
11 2 17 5 13 3 -3 4 -12 1 -19z m318 -33 c-14 -26 -25 -43 -25 -36 0 14 -36
15 -45 1 -3 -5 -13 -10 -21 -10 -20 0 -46 -27 -69 -72 -11 -22 -27 -38 -37
-38 -10 0 -18 -4 -18 -10 0 -5 -6 -10 -14 -10 -8 0 -16 -5 -18 -11 -2 -6 -26
-13 -53 -15 l-50 -5 42 18 c23 10 50 28 61 41 11 12 26 22 35 22 15 0 47 51
47 75 0 7 6 15 14 18 8 3 16 16 18 29 3 21 8 23 68 24 47 1 67 6 74 17 22 34
15 7 -9 -38z m-858 -117 c-3 -7 -5 -2 -5 12 0 14 2 19 5 13 2 -7 2 -19 0 -25z
m179 7 c7 -18 44 -20 44 -2 0 6 6 3 12 -8 6 -11 14 -22 17 -25 3 -3 12 -13 20
-22 12 -17 11 -17 -20 -1 -42 21 -138 29 -178 15 -17 -6 -31 -9 -31 -7 0 9 60
35 80 35 11 0 23 7 26 15 4 8 10 15 15 15 5 0 12 -7 15 -15z m-1333 -153 c0
-24 -4 -46 -7 -50 -22 -21 -34 77 -19 149 l7 34 10 -45 c5 -25 9 -64 9 -88z
m-753 97 c0 -6 -4 -7 -10 -4 -5 3 -10 11 -10 16 0 6 5 7 10 4 6 -3 10 -11 10
-16z m1930 -9 c0 -5 -9 -10 -19 -10 -11 0 -26 -3 -35 -6 -9 -3 -16 -1 -16 4 0
9 20 17 58 21 6 0 12 -3 12 -9z m754 -34 c-3 -15 -8 -25 -11 -23 -2 3 -1 17 3
31 3 15 8 25 11 23 2 -3 1 -17 -3 -31z m-2636 -15 c12 -7 16 -21 14 -60 -2
-46 1 -54 32 -86 19 -19 39 -35 44 -35 9 0 27 -49 20 -55 -7 -7 -58 8 -58 16
0 5 -7 9 -15 9 -8 0 -18 12 -21 28 -4 15 -13 35 -20 46 -7 10 -10 32 -7 52 4
26 2 34 -10 34 -18 0 -27 21 -27 62 0 27 2 28 15 14 9 -9 24 -20 33 -25z
m1798 -8 c-10 -10 -19 5 -10 18 6 11 8 11 12 0 2 -7 1 -15 -2 -18z m-1008 5
c15 -15 16 -41 0 -36 -13 5 -31 48 -20 48 5 0 13 -5 20 -12z m742 2 c0 -5 -4
-10 -10 -10 -5 0 -10 5 -10 10 0 6 5 10 10 10 6 0 10 -4 10 -10z m67 -6 c-3
-3 -12 -4 -19 -1 -8 3 -5 6 6 6 11 1 17 -2 13 -5z m124 -55 c-31 -32 -42 -13
-15 24 13 17 22 21 30 13 8 -8 4 -17 -15 -37z m326 35 c-3 -3 -12 -4 -19 -1
-8 3 -5 6 6 6 11 1 17 -2 13 -5z m-587 -14 c0 -5 -4 -10 -10 -10 -5 0 -10 5
-10 10 0 6 5 10 10 10 6 0 10 -4 10 -10z m661 -3 c-1 -12 -15 -9 -19 4 -3 6 1
10 8 8 6 -3 11 -8 11 -12z m496 -39 c-2 -13 -4 -5 -4 17 -1 22 1 32 4 23 2
-10 2 -28 0 -40z m-1517 32 c0 -5 -10 -10 -22 -10 -19 0 -20 2 -8 10 19 13 30
13 30 0z m1764 -35 c5 -22 4 -26 -4 -15 -5 8 -10 24 -10 34 0 26 6 18 14 -19z
m-1704 15 c0 -5 -2 -10 -4 -10 -3 0 -8 5 -11 10 -3 6 -1 10 4 10 6 0 11 -4 11
-10z m270 -10 c0 -11 -4 -20 -9 -20 -5 0 -11 9 -14 20 -3 13 0 20 9 20 8 0 14
-9 14 -20z m-918 -40 c8 0 19 -5 26 -12 13 -13 15 -72 3 -101 -5 -15 -9 -12
-21 18 -9 22 -23 38 -37 41 -24 6 -30 34 -16 70 6 15 7 16 18 0 7 -9 19 -16
27 -16z m-275 -26 c-3 -3 -12 -4 -19 -1 -8 3 -5 6 6 6 11 1 17 -2 13 -5z
m2296 -2 c-6 -4 -14 -19 -18 -34 -4 -14 -15 -35 -26 -47 -10 -11 -19 -30 -19
-43 -1 -17 -5 -12 -15 17 -8 22 -19 41 -25 43 -18 6 -11 17 21 31 17 7 33 20
36 27 3 8 17 14 32 14 15 0 21 -3 14 -8z m-2252 -17 c-1 -15 -24 -12 -29 3 -3
9 2 13 12 10 10 -1 17 -7 17 -13z m-87 -51 c18 -7 10 -34 -10 -34 -8 0 -14 9
-14 20 0 22 1 23 24 14z m2423 -46 c-3 -7 -5 -2 -5 12 0 14 2 19 5 13 2 -7 2
-19 0 -25z m10 -40 c-3 -8 -6 -5 -6 6 -1 11 2 17 5 13 3 -3 4 -12 1 -19z m-41
-101 c19 -52 18 -58 -6 -19 -11 18 -19 47 -19 65 1 20 3 24 6 12 2 -11 11 -37
19 -58z m-2271 43 c3 -6 -1 -7 -9 -4 -18 7 -21 14 -7 14 6 0 13 -4 16 -10z
m2610 -62 c6 -4 2 -8 -7 -8 -10 0 -18 7 -18 17 0 9 3 12 8 7 4 -5 12 -12 17
-16z m-258 -60 c-3 -8 -6 -5 -6 6 -1 11 2 17 5 13 3 -3 4 -12 1 -19z m-2057
-71 c0 -14 7 -41 16 -62 8 -20 13 -39 11 -41 -7 -7 -45 81 -53 121 -7 37 -6
38 9 23 10 -9 17 -28 17 -41z m2083 23 c3 -13 0 -20 -9 -20 -8 0 -14 10 -14
26 0 28 15 25 23 -6z m-2024 -47 c0 -25 -1 -26 -9 -8 -12 27 -12 35 0 35 6 0
10 -12 9 -27z m-207 -65 c-7 -7 -12 -8 -12 -2 0 14 12 26 19 19 2 -3 -1 -11
-7 -17z m2178 -62 c0 -11 -19 -15 -25 -6 -3 5 1 10 9 10 9 0 16 -2 16 -4z
m-2226 -196 c-6 -44 -8 -50 -14 -30 -3 14 -2 28 3 31 6 4 7 25 4 48 -3 23 -2
51 1 64 11 35 15 -47 6 -113z m2169 70 c3 -11 -6 -52 -19 -92 l-25 -73 5 83
c3 46 8 87 11 93 10 15 22 10 28 -11z m-1903 -34 c0 -3 -4 -8 -10 -11 -5 -3
-10 -1 -10 4 0 6 5 11 10 11 6 0 10 -2 10 -4z m20 -71 c0 -8 -4 -15 -10 -15
-5 0 -10 7 -10 15 0 8 5 15 10 15 6 0 10 -7 10 -15z m15 -66 c11 -16 1 -19
-13 -3 -7 8 -8 14 -3 14 5 0 13 -5 16 -11z m2351 -3 c3 -8 4 -22 2 -31 -2 -12
-7 -7 -15 14 -6 18 -7 31 -2 31 5 0 12 -6 15 -14z m-532 -31 c-4 -8 -8 -15
-10 -15 -2 0 -4 7 -4 15 0 8 4 15 10 15 5 0 7 -7 4 -15z m-1807 -67 c-3 -8 -6
-5 -6 6 -1 11 2 17 5 13 3 -3 4 -12 1 -19z m1778 -46 c-3 -15 -14 -33 -25 -40
-18 -11 -20 -10 -20 17 0 16 3 43 6 60 l7 32 19 -21 c14 -15 18 -29 13 -48z
m565 -15 c11 -4 10 -6 -4 -6 -21 -1 -56 26 -56 42 0 6 10 1 23 -10 12 -11 29
-23 37 -26z m-2390 -17 c0 -5 -7 -10 -15 -10 -8 0 -15 5 -15 10 0 6 7 10 15
10 8 0 15 -4 15 -10z m1743 -82 c2 -18 3 -35 1 -37 -1 -2 -20 1 -41 7 -33 9
-35 10 -10 11 22 1 27 6 27 26 0 36 17 31 23 -7z"/>
</g>
</svg>
