<?xml version="1.0" standalone="no"?>
<!DOCTYPE svg PUBLIC "-//W3C//DTD SVG 20010904//EN"
 "http://www.w3.org/TR/2001/REC-SVG-20010904/DTD/svg10.dtd">
<svg version="1.0" xmlns="http://www.w3.org/2000/svg"
 width="519.000000pt" height="499.000000pt" viewBox="0 0 519.000000 499.000000"
 preserveAspectRatio="xMidYMid meet">
<metadata>
Created by potrace 1.13, written by Peter Selinger 2001-2015
</metadata>
<g transform="translate(0.000000,499.000000) scale(0.100000,-0.100000)"
fill="#000000" stroke="none">
<path d="M1786 4737 c-45 -45 -60 -143 -26 -177 11 -11 15 -20 9 -20 -5 0 -7
-4 -4 -10 8 -13 -26 -70 -42 -70 -11 0 -40 -11 -103 -39 -8 -4 -27 -6 -42 -6
-16 1 -28 -3 -28 -8 0 -5 -7 -4 -15 3 -8 7 -15 9 -15 4 0 -5 -17 -8 -37 -8
-21 1 -44 -3 -50 -8 -7 -6 -13 -7 -13 -4 0 4 -7 1 -15 -8 -8 -8 -15 -18 -15
-22 0 -4 -12 -18 -26 -31 -32 -29 -34 -63 -5 -94 11 -13 21 -26 21 -30 0 -4 9
-11 20 -14 11 -4 18 -10 15 -15 -3 -5 6 -17 20 -28 13 -11 22 -22 19 -25 -9
-9 49 -33 73 -31 13 0 28 -5 34 -13 7 -7 27 -21 45 -29 19 -9 34 -21 34 -26 0
-10 54 -57 55 -48 1 3 9 -3 19 -12 10 -10 24 -18 31 -18 8 0 19 -9 25 -20 6
-11 8 -20 4 -20 -3 0 -1 -6 5 -13 6 -8 9 -16 7 -18 -2 -2 -7 -24 -11 -49 -4
-25 -9 -58 -11 -75 -3 -16 -6 -38 -7 -47 -1 -10 -4 -18 -7 -18 -3 0 -5 -42 -6
-93 -1 -127 -6 -170 -22 -186 -7 -8 -11 -22 -9 -32 3 -11 1 -19 -5 -19 -6 0
-8 -6 -5 -14 3 -8 1 -16 -4 -18 -5 -2 -12 -19 -14 -37 -3 -19 -10 -38 -16 -42
-6 -4 -9 -11 -5 -17 3 -6 0 -16 -7 -24 -8 -7 -12 -19 -9 -26 2 -6 0 -12 -5
-12 -5 0 -8 -12 -7 -27 0 -16 -4 -31 -10 -35 -7 -5 -7 -8 2 -8 8 0 10 -5 5
-12 -4 -7 -8 -16 -9 -20 -1 -5 -3 -9 -4 -10 -1 -2 -3 -15 -4 -30 -2 -15 -8
-34 -15 -42 -9 -11 -9 -16 0 -21 8 -6 7 -10 -2 -16 -10 -6 -11 -11 -3 -16 13
-10 14 -63 1 -63 -5 0 -3 -7 4 -17 8 -9 13 -18 12 -20 -2 -1 -3 -4 -2 -5 0 -2
3 -14 5 -28 8 -45 47 -113 86 -152 l39 -39 -50 -51 c-28 -28 -48 -54 -46 -59
3 -4 1 -10 -5 -14 -5 -3 -10 -15 -10 -25 0 -11 -29 -49 -65 -86 -36 -37 -65
-71 -65 -76 0 -5 -4 -7 -9 -3 -6 3 -13 0 -18 -7 -4 -7 -21 -20 -38 -28 -16 -8
-42 -27 -56 -42 -20 -20 -29 -24 -38 -15 -8 8 -11 8 -11 -2 0 -7 -6 -11 -12
-8 -7 2 -28 -2 -45 -9 -18 -7 -33 -11 -33 -9 0 8 -76 -28 -91 -44 -15 -15 -15
-18 -1 -43 9 -16 22 -28 29 -28 8 0 16 -6 19 -14 3 -7 21 -22 40 -32 19 -10
34 -21 34 -25 0 -3 12 -11 26 -18 20 -9 30 -9 40 0 8 6 14 9 14 5 0 -5 13 5
63 51 9 9 24 18 33 19 9 1 24 10 35 20 10 9 19 14 19 10 0 -8 23 10 48 37 41
45 58 65 77 90 11 15 25 27 31 27 7 0 20 12 30 28 10 15 24 33 31 40 16 17 56
25 47 10 -4 -6 -8 -29 -11 -52 -2 -22 -4 -47 -5 -55 -1 -8 -10 -23 -20 -33
-10 -10 -18 -25 -18 -33 0 -8 -4 -15 -10 -15 -5 0 -15 -18 -21 -40 -7 -22 -17
-40 -23 -40 -6 0 -27 -19 -46 -42 -58 -68 -69 -78 -90 -78 -11 0 -20 -5 -20
-11 0 -5 -4 -8 -9 -4 -6 3 -14 -3 -20 -12 -5 -10 -12 -17 -15 -15 -12 5 -66
-29 -76 -48 -9 -16 -3 -26 34 -61 24 -24 53 -44 63 -47 56 -12 119 -19 128
-13 6 3 19 6 30 6 13 0 21 7 21 20 1 11 3 25 4 30 1 6 2 13 1 18 -1 7 23 10
34 5 6 -4 55 68 55 81 0 6 4 11 10 11 5 0 12 11 16 25 3 14 11 25 16 25 6 0 8
7 4 15 -3 8 -1 15 4 15 6 0 9 3 8 7 -2 11 24 65 39 81 7 7 13 18 13 23 0 6 5
7 10 4 6 -3 10 0 10 7 0 8 8 20 19 27 10 8 17 21 14 30 -2 9 8 27 21 41 14 14
41 41 61 60 19 19 38 44 41 55 7 19 118 135 130 135 4 0 29 -13 55 -30 27 -16
49 -27 49 -23 0 3 9 -2 20 -12 11 -10 20 -15 20 -10 0 4 17 -8 38 -26 21 -19
49 -43 63 -54 13 -11 52 -44 87 -73 35 -28 59 -52 55 -52 -4 0 4 -11 19 -24
15 -12 29 -32 31 -43 5 -38 57 -102 96 -123 22 -11 42 -24 46 -30 3 -5 21 -17
40 -26 19 -9 35 -21 35 -28 0 -12 52 -55 55 -46 1 3 9 -2 18 -10 33 -30 47
-41 47 -35 0 3 10 -1 23 -9 12 -8 33 -17 47 -19 69 -13 89 -33 81 -79 0 -5 3
-8 7 -8 5 0 8 -10 7 -23 -1 -12 4 -39 11 -59 7 -21 10 -38 6 -38 -4 0 -1 -4 7
-9 12 -8 12 -13 -3 -35 -9 -14 -14 -26 -11 -26 4 0 -1 -10 -9 -22 -22 -32 -20
-57 7 -67 17 -7 30 -2 62 24 38 30 41 31 58 15 22 -22 22 -29 -5 -57 -21 -22
-21 -23 -3 -43 10 -11 30 -20 44 -21 14 0 20 -3 14 -6 -7 -2 -13 -9 -13 -15 0
-5 -7 -16 -15 -24 -21 -22 -19 -41 8 -56 27 -15 49 -16 60 -3 5 6 5 -1 1 -15
-4 -14 -15 -32 -24 -40 -9 -8 -15 -21 -13 -27 3 -7 0 -13 -5 -13 -6 0 -13 -13
-17 -28 -3 -15 -19 -43 -35 -62 -17 -19 -30 -39 -30 -43 0 -5 -4 -6 -9 -3 -5
3 -22 -8 -40 -24 -17 -17 -35 -30 -40 -30 -5 0 -11 -7 -15 -15 -3 -8 -9 -14
-13 -13 -10 3 -101 -50 -125 -71 -35 -33 -53 -46 -61 -46 -4 0 -11 -5 -15 -12
-4 -6 -24 -10 -45 -9 -21 1 -40 -1 -42 -5 -3 -3 -18 -5 -35 -4 -16 1 -30 -2
-30 -6 0 -5 -16 -11 -35 -15 -19 -3 -35 -10 -35 -15 0 -5 -3 -8 -7 -8 -49 8
-63 -30 -22 -60 15 -12 32 -21 37 -21 5 0 19 -11 32 -25 13 -14 25 -23 28 -20
2 2 19 -3 36 -12 17 -9 36 -18 42 -19 6 -1 20 -5 31 -8 23 -7 77 30 67 46 -9
13 13 2 39 -21 18 -15 20 -14 37 9 11 14 25 31 33 39 42 39 67 59 67 54 0 -4
9 2 20 13 31 30 48 43 52 39 2 -3 22 11 43 30 22 19 46 35 53 35 6 0 12 5 12
11 0 5 4 8 9 5 5 -3 12 1 15 9 3 8 9 14 13 13 4 -1 18 3 29 10 12 6 24 8 28 5
3 -3 6 -2 6 4 0 10 36 26 53 24 4 -1 7 4 7 10 0 8 4 8 13 0 15 -12 37 3 37 27
0 7 5 10 10 7 6 -3 10 -1 10 5 0 6 6 10 13 9 26 -4 74 26 97 60 14 20 23 39
22 43 -1 5 2 8 7 8 8 0 24 58 34 125 1 11 8 29 15 40 l11 20 1 -20 c5 -103 14
-168 26 -187 3 -4 0 -8 -6 -8 -7 0 -10 -7 -6 -15 3 -8 2 -15 -2 -15 -4 0 -8
-10 -9 -22 -1 -11 -6 -24 -10 -27 -5 -3 -8 -19 -8 -34 1 -16 -3 -31 -7 -33 -5
-3 -6 -10 -3 -15 4 -5 2 -9 -4 -9 -5 0 -15 -16 -21 -36 -7 -20 -19 -44 -27
-53 -25 -27 -103 -155 -103 -168 0 -7 -5 -13 -10 -13 -6 0 -16 -12 -23 -27
-19 -44 -60 -83 -92 -89 -16 -3 -35 -10 -42 -16 -7 -6 -13 -7 -13 -3 0 4 -6 3
-12 -1 -7 -5 -24 -9 -38 -9 -21 0 -70 -36 -70 -51 0 -10 70 -74 81 -74 5 0 20
-9 32 -21 22 -20 62 -42 82 -44 6 0 16 -4 22 -8 8 -5 22 6 40 32 26 37 50 47
64 28 9 -12 49 33 49 54 0 10 6 24 13 31 7 7 19 29 27 48 8 19 27 49 42 65 15
17 28 34 28 38 0 5 5 5 10 2 6 -3 10 -1 10 5 0 6 4 9 9 5 5 -3 16 3 23 12 7
10 26 23 43 28 16 6 36 23 45 40 8 17 25 40 38 52 12 12 22 25 22 29 0 8 63
64 73 64 4 0 7 5 7 10 0 6 15 27 33 46 17 20 32 39 33 42 4 24 28 72 36 72 5
0 6 5 3 10 -3 6 -2 10 4 10 5 0 13 10 17 23 4 12 18 40 33 62 14 22 26 42 26
45 2 14 40 86 49 92 6 4 8 10 4 13 -3 4 1 15 10 26 9 11 17 23 17 27 0 13 49
72 59 72 6 0 17 9 24 20 7 12 17 18 22 15 6 -3 10 1 10 9 0 9 5 16 12 16 6 0
9 3 5 6 -5 5 16 35 58 79 29 31 77 95 71 95 -5 0 12 23 39 54 6 6 20 24 33 40
12 16 22 25 22 20 0 -13 49 46 55 67 4 11 11 19 17 19 5 0 8 7 4 15 -3 8 -1
15 5 15 10 0 42 27 38 32 -3 4 53 91 63 98 3 3 10 18 13 33 4 15 11 27 16 27
5 0 6 7 3 15 -4 8 -1 15 6 15 6 0 8 5 5 10 -3 6 -2 10 3 10 12 0 7 137 -6 152
-6 7 -10 15 -11 18 0 14 -16 48 -35 75 -12 17 -21 32 -21 35 -1 3 -6 15 -13
28 -7 12 -10 22 -7 22 3 0 -24 29 -61 64 -37 36 -71 64 -75 63 -8 -2 -69 60
-69 71 0 4 -15 16 -33 25 -19 10 -46 29 -60 43 -15 13 -30 24 -34 24 -5 0 -15
5 -24 12 -8 7 -22 14 -30 16 -7 2 -17 8 -20 14 -3 5 -10 9 -15 9 -5 -1 -17 6
-26 14 -10 8 -18 12 -18 9 0 -3 -13 4 -29 15 -16 12 -36 21 -44 21 -9 0 -23 7
-31 16 -9 8 -16 12 -16 8 0 -4 -8 0 -17 8 -10 9 -29 19 -43 23 -14 4 -32 13
-40 20 -18 15 -79 47 -82 43 -2 -2 -18 12 -37 30 -19 17 -39 32 -45 32 -6 0
-24 11 -40 25 -16 14 -35 25 -43 25 -7 0 -13 5 -13 11 0 5 -4 8 -9 5 -13 -8
-185 147 -174 157 2 2 -9 13 -23 23 -31 22 -70 59 -81 76 -4 7 -28 30 -53 50
-25 20 -57 47 -72 60 -15 13 -40 33 -55 45 -15 12 -58 50 -94 85 -36 35 -77
72 -90 83 -77 63 -87 73 -83 77 2 3 -10 17 -28 30 -18 14 -43 34 -54 44 -12
11 -41 35 -65 56 -24 20 -55 46 -68 57 -13 12 -29 21 -36 21 -7 0 -20 9 -30
20 -10 11 -22 20 -27 20 -13 0 -53 32 -58 45 -5 15 -34 34 -42 29 -5 -3 -8 0
-8 5 0 6 -4 10 -8 8 -11 -3 -102 92 -102 108 0 8 4 16 8 19 16 10 5 65 -19 97
-34 46 -61 69 -71 63 -4 -3 -8 0 -8 5 0 6 -16 11 -35 11 -48 0 -66 32 -30 56
33 21 56 69 42 83 -8 8 -8 11 1 11 7 0 10 8 8 18 -6 35 -19 53 -32 48 -8 -3
-14 1 -14 10 0 8 -17 22 -37 30 -21 9 -47 24 -58 34 -11 10 -27 20 -35 22 -8
2 -20 9 -28 15 -13 13 -91 38 -105 35 -5 -2 -6 2 -3 7 4 5 -2 14 -11 20 -10 6
-14 11 -9 11 6 0 -1 10 -13 22 -27 24 -68 32 -86 15 -10 -9 -8 -16 8 -33 11
-12 21 -30 22 -41 3 -36 -33 -20 -85 36 -28 30 -50 51 -50 46 0 -4 -9 0 -20
10 -11 10 -20 15 -20 10 0 -4 -7 -2 -15 5 -11 9 -19 7 -39 -13z m208 -181 c-3
-8 -15 -17 -27 -20 -21 -5 -20 -4 3 14 30 24 31 24 24 6z m236 -22 c0 -16 -18
-18 -40 -4 -11 7 -11 10 -2 10 7 0 11 4 8 9 -4 5 3 7 14 4 11 -3 20 -12 20
-19z m-180 -64 c13 -9 13 -10 0 -9 -8 0 -24 4 -35 9 l-20 9 20 0 c11 0 27 -4
35 -9z m144 -26 c9 -3 16 -13 16 -20 0 -12 -4 -12 -20 -4 -11 6 -20 15 -20 20
0 12 3 12 24 4z m-304 -503 c0 -4 -6 -14 -12 -22 -7 -8 -12 -12 -11 -10 1 2
-7 16 -18 32 l-20 28 31 -10 c16 -6 30 -14 30 -18z m746 -42 c3 -6 1 -15 -5
-19 -9 -5 -7 -11 5 -21 14 -11 18 -11 28 1 9 13 14 12 33 -7 14 -14 18 -25 11
-29 -5 -4 -14 -1 -18 7 -7 10 -11 10 -25 -1 -13 -11 -18 -11 -25 -1 -5 9 -10
10 -14 2 -10 -16 -29 -13 -23 3 3 8 2 16 -4 18 -6 2 -4 14 3 30 14 30 23 34
34 17z m-769 -24 c0 -8 -4 -12 -9 -9 -5 3 -6 10 -3 15 9 13 12 11 12 -6z m753
-79 c0 -11 -19 -15 -25 -6 -3 5 1 10 9 10 9 0 16 -2 16 -4z m64 -11 c17 -13
18 -15 3 -15 -9 0 -17 -6 -17 -12 -1 -14 -30 20 -30 34 0 13 23 9 44 -7z m17
-72 c16 -10 29 -21 29 -26 0 -5 7 -7 15 -3 23 9 18 -4 -12 -27 -38 -30 -62
-31 -72 -4 -7 17 -8 57 -2 75 2 5 15 1 42 -15z m311 -108 c11 -14 10 -25 -1
-25 -5 0 -16 14 -25 31 -15 29 -14 30 2 18 9 -8 20 -18 24 -24z m-98 -59 c-21
-15 -30 -14 -19 3 3 6 14 11 23 11 13 0 13 -2 -4 -14z m-54 -21 c0 -8 -7 -15
-16 -15 -14 0 -14 3 -4 15 7 8 14 15 16 15 2 0 4 -7 4 -15z m-53 -12 c3 -9
-21 -21 -39 -19 -11 1 -37 -38 -32 -46 3 -5 0 -8 -6 -8 -7 0 -5 -7 4 -16 23
-22 20 -28 -6 -10 -16 11 -25 13 -35 4 -8 -6 -13 -7 -13 0 0 12 -60 -7 -84
-27 -28 -23 -18 -48 17 -42 10 1 9 -16 -2 -37 -5 -9 -12 -25 -15 -36 -5 -15
-9 -16 -21 -6 -17 14 -20 40 -5 40 28 0 -2 61 -35 72 -5 2 -9 6 -8 11 2 4 -2
7 -8 7 -6 0 -9 6 -6 14 3 8 1 16 -5 18 -15 5 27 48 46 48 13 0 13 -5 1 -33
-12 -30 -12 -34 6 -45 16 -10 19 -9 19 3 0 8 5 15 11 15 5 0 7 5 4 10 -3 6 -2
10 4 10 6 0 8 6 5 13 -3 9 4 13 25 11 16 -1 34 -5 40 -9 6 -3 18 0 25 8 12 11
12 17 3 28 -10 11 -9 11 5 0 15 -11 20 -10 32 2 8 8 13 17 10 20 -3 3 3 3 15
0 13 -3 21 -1 21 7 0 14 22 9 27 -7z m210 2 c0 -8 -6 -16 -14 -19 -11 -4 -11
-1 -3 14 13 24 17 25 17 5z m-237 -95 c0 -5 -5 -10 -11 -10 -5 0 -7 5 -4 10 3
6 8 10 11 10 2 0 4 -4 4 -10z m150 -15 c0 -8 -4 -15 -10 -15 -5 0 -10 7 -10
15 0 8 5 15 10 15 6 0 10 -7 10 -15z m-3 -41 c-3 -3 3 -29 14 -56 15 -38 16
-49 6 -45 -8 3 -29 -8 -48 -24 -26 -22 -35 -26 -37 -14 -2 8 10 27 27 41 17
14 29 30 25 35 -3 5 0 9 7 9 7 0 5 8 -7 21 -16 17 -16 22 -4 29 17 11 26 13
17 4z m-1095 -116 c-7 -7 -12 -8 -12 -2 0 14 12 26 19 19 2 -3 -1 -11 -7 -17z
m-9 -37 c-3 -10 0 -28 6 -39 7 -14 8 -23 1 -27 -6 -4 -8 -11 -5 -16 4 -5 2 -9
-3 -9 -17 0 -54 -39 -47 -49 3 -6 1 -11 -5 -11 -7 0 -8 -6 -2 -17 5 -10 8 -29
7 -43 -1 -14 3 -29 9 -33 8 -6 8 -10 -1 -13 -7 -3 -10 -11 -7 -18 3 -8 -2 -16
-10 -19 -10 -4 -16 -1 -16 8 0 8 -4 15 -10 15 -5 0 -10 8 -10 18 0 10 -5 23
-12 30 -9 9 -9 12 0 12 6 0 9 7 6 15 -4 8 -1 15 5 15 6 0 11 12 11 26 0 16 11
37 26 51 19 17 23 28 16 35 -13 13 -5 36 21 66 25 27 26 27 20 3z m953 -39
c-17 -16 -18 -16 -5 5 7 12 15 20 18 17 3 -2 -3 -12 -13 -22z m-41 9 c3 -5 1
-12 -5 -16 -5 -3 -10 1 -10 9 0 18 6 21 15 7z m-202 -38 c-14 -5 -7 -26 24
-73 27 -41 28 -50 8 -50 -8 0 -15 -4 -15 -10 0 -5 -6 -10 -13 -10 -8 0 -19
-10 -25 -22 -10 -22 -11 -21 -11 9 -1 17 4 35 10 38 6 5 4 12 -8 21 -10 7 -13
14 -7 14 12 0 12 55 1 66 -3 3 2 14 11 23 11 12 20 15 27 8 7 -6 6 -11 -2 -14z
m67 -33 c0 -5 -5 -10 -11 -10 -5 0 -7 5 -4 10 3 6 8 10 11 10 2 0 4 -4 4 -10z
m129 -69 c-3 -38 -33 -89 -43 -73 -3 5 -19 12 -35 15 -31 7 -34 19 -11 54 11
17 18 20 33 11 15 -8 22 -5 35 11 10 11 18 21 20 21 2 0 2 -17 1 -39z m-804
-139 c-3 -3 -11 0 -18 7 -9 10 -8 11 6 5 10 -3 15 -9 12 -12z m-82 -31 c3 -14
-1 -18 -17 -16 -30 3 -30 3 -16 20 17 20 27 19 33 -4z m104 -5 c0 -8 -7 -13
-16 -11 -9 1 -15 5 -13 8 1 4 2 11 2 17 0 5 6 7 13 4 8 -3 14 -11 14 -18z
m1747 -2 c3 -8 2 -12 -4 -9 -6 3 -10 10 -10 16 0 14 7 11 14 -7z m71 -25 c-4
-5 -1 -9 4 -9 6 0 11 -8 11 -17 -1 -15 -4 -14 -20 6 -19 22 -18 47 1 35 5 -3
7 -10 4 -15z m-107 -18 c11 -7 11 -9 -1 -14 -9 -3 -18 1 -21 9 -6 16 2 18 22
5z m-1521 -50 c-3 -12 1 -22 10 -25 8 -3 12 -10 8 -15 -3 -5 0 -13 6 -16 7 -5
-5 -22 -31 -47 -24 -21 -45 -36 -48 -33 -4 3 -2 9 3 13 14 10 17 50 5 72 -12
22 4 57 30 64 8 2 17 4 19 5 2 0 1 -8 -2 -18z m265 -4 c-12 -13 -19 -27 -15
-30 3 -4 1 -7 -6 -7 -7 0 -11 -5 -9 -12 5 -15 -22 -48 -39 -48 -7 0 -13 -4
-13 -10 0 -5 -4 -10 -10 -10 -14 0 -6 43 8 48 7 2 12 8 12 14 0 12 25 38 59
60 35 24 39 22 13 -5z m-558 -73 c3 -8 2 -12 -4 -9 -6 3 -10 10 -10 16 0 14 7
11 14 -7z m591 -31 c-2 -10 -4 -24 -4 -32 -1 -11 -4 -11 -16 -1 -11 9 -12 16
-2 31 15 24 26 25 22 2z m1607 -41 c-2 -7 9 -24 24 -37 16 -14 31 -20 32 -15
2 6 9 10 15 10 6 0 1 -10 -11 -23 -20 -21 -20 -24 -5 -39 8 -9 13 -24 10 -32
-9 -22 -27 -20 -27 3 0 11 -4 22 -10 26 -5 3 -7 12 -4 19 6 15 -22 29 -38 19
-7 -3 -8 -1 -4 5 4 7 3 12 -2 12 -9 0 -23 30 -26 55 -1 6 -5 16 -10 24 -5 8
-4 16 4 21 16 10 59 -30 52 -48z m-661 -35 c-6 -8 -8 -16 -6 -19 3 -3 -6 -13
-21 -23 -28 -18 -25 -8 10 32 21 24 37 33 17 10z m-95 -58 c10 -8 11 -15 4
-24 -21 -25 -55 -3 -59 37 -1 10 39 1 55 -13z m1167 3 c10 -11 13 -23 8 -31
-6 -9 -11 -10 -15 -2 -4 6 -12 8 -18 5 -6 -4 -8 -2 -4 4 3 5 1 12 -6 14 -12 4
-3 28 11 28 4 0 15 -8 24 -18z m-723 -10 c0 -5 -3 -12 -7 -16 -4 -4 -8 -15 -8
-23 0 -22 -24 -28 -31 -8 -4 9 1 24 12 35 20 20 34 25 34 12z m145 -42 c-3 -5
-12 -10 -18 -10 -7 0 -6 4 3 10 19 12 23 12 15 0z m-286 -34 c0 -6 -4 -20 -8
-31 -6 -14 -3 -24 8 -32 22 -17 41 -16 41 2 0 8 4 15 9 15 12 0 2 -73 -11 -81
-6 -4 -8 -11 -4 -17 3 -5 -1 -23 -9 -40 -15 -29 -12 -62 6 -62 5 0 9 -11 9
-25 0 -14 -4 -24 -10 -22 -5 1 -23 -14 -41 -33 -17 -19 -26 -26 -21 -14 9 16
7 24 -8 37 -18 15 -20 15 -30 -4 -6 -11 -15 -17 -21 -14 -11 7 -53 -4 -45 -12
13 -13 -16 -33 -34 -23 -9 5 -21 6 -25 2 -5 -4 -6 -2 -2 3 3 6 2 17 -2 24 -7
10 -13 10 -29 2 -11 -6 -28 -8 -36 -5 -9 3 -16 1 -16 -5 0 -8 -5 -9 -19 -1
-14 7 -21 6 -24 -3 -3 -6 -4 4 -3 23 1 27 -3 35 -16 35 -27 0 -26 11 5 39 15
14 27 22 27 18 1 -4 8 2 18 13 17 20 42 23 75 10 10 -4 17 -3 17 4 0 6 7 11
16 11 12 0 15 7 12 25 -4 20 -3 23 8 14 7 -6 22 -8 34 -4 11 3 20 2 20 -3 0
-6 11 -9 25 -7 32 3 28 -19 -3 -23 -12 -2 -22 -8 -22 -14 0 -6 -3 -9 -6 -5
-12 11 -32 -18 -24 -34 7 -13 2 -15 -34 -12 -51 4 -78 -17 -54 -40 7 -8 22
-12 33 -10 11 2 31 5 45 7 14 2 30 4 36 4 6 1 17 13 24 27 8 14 19 24 25 21 7
-2 17 -1 24 3 15 10 22 59 10 67 -5 3 -9 14 -9 26 0 17 2 18 15 8 12 -10 18
-10 30 0 8 7 15 19 15 27 0 8 -7 21 -15 29 -8 9 -15 12 -15 8 0 -3 -6 -1 -13
5 -8 6 -13 21 -11 33 1 13 3 31 3 40 1 11 6 15 16 12 8 -4 15 -11 14 -18z
m541 -16 c9 -16 7 -18 -11 -15 -28 6 -31 9 -23 29 7 18 19 13 34 -14z m-1490
-6 c0 -14 -3 -14 -15 -4 -8 7 -15 14 -15 16 0 2 7 4 15 4 8 0 15 -7 15 -16z
m1810 -29 c0 -5 -5 -3 -10 5 -5 8 -10 20 -10 25 0 6 5 3 10 -5 5 -8 10 -19 10
-25z m-2496 4 c-3 -6 0 -15 7 -20 10 -6 11 -9 2 -9 -7 0 -13 -7 -13 -15 0 -8
-4 -15 -9 -15 -5 0 -15 -17 -21 -37 -7 -21 -17 -42 -22 -48 -5 -6 -5 1 1 16 5
15 8 29 5 32 -3 2 4 21 15 41 12 20 18 36 15 36 -4 0 -1 7 6 15 14 17 24 20
14 4z m1559 -22 c-5 -7 -8 -22 -7 -35 1 -18 -1 -20 -12 -11 -11 9 -14 8 -14
-2 -1 -10 -5 -8 -15 5 -12 16 -12 22 2 42 8 13 19 22 23 19 5 -3 12 0 16 7 6
9 9 9 12 0 2 -7 0 -18 -5 -25z m679 1 c2 -13 4 -43 3 -68 0 -41 -3 -45 -25
-46 -34 -2 -50 5 -50 22 0 8 -5 14 -12 14 -9 0 -9 3 0 12 8 8 8 17 1 30 -9 17
-7 18 20 13 26 -4 31 -2 37 20 8 31 20 32 26 3z m-2402 2 c0 -5 -7 -7 -15 -4
-8 4 -15 8 -15 10 0 2 7 4 15 4 8 0 15 -4 15 -10z m885 1 c3 -5 2 -12 -3 -15
-5 -3 -9 1 -9 9 0 17 3 19 12 6z m1269 -30 c-8 -9 -22 12 -17 26 6 15 7 14 13
-3 4 -10 6 -21 4 -23z m592 -16 c1 -8 -2 -13 -7 -9 -5 3 -9 12 -9 21 0 19 13
9 16 -12z m-2556 -35 c-6 -11 -16 -20 -23 -20 -8 0 -8 3 2 9 7 5 10 14 7 20
-4 6 0 11 9 11 13 0 14 -4 5 -20z m2400 -5 c0 -2 -6 -7 -12 -11 -7 -4 -10 -4
-6 1 4 4 0 14 -10 22 -15 13 -15 13 6 3 12 -6 22 -13 22 -15z m-2736 -10 c-9
-14 -20 -25 -23 -25 -4 0 -14 -11 -21 -25 -7 -14 -20 -25 -27 -25 -7 0 -16 -7
-19 -15 -4 -8 -10 -15 -15 -15 -16 0 14 38 34 44 10 2 23 18 29 34 9 24 23 36
56 51 1 0 -5 -10 -14 -24z m2392 -4 c0 -11 -11 -24 -23 -30 -15 -7 -23 -7 -23
-1 0 6 5 10 11 10 8 0 7 5 -1 15 -11 13 -10 14 3 10 8 -4 18 -2 22 4 9 15 11
14 11 -8z m-136 -31 c0 -5 -5 -10 -11 -10 -5 0 -7 5 -4 10 3 6 8 10 11 10 2 0
4 -4 4 -10z m-1020 -55 c0 -7 -7 -16 -16 -19 -12 -5 -15 -2 -10 10 3 8 6 20 6
25 0 6 5 7 10 4 6 -3 10 -12 10 -20z m50 11 c0 -11 -19 -15 -25 -6 -3 5 1 10
9 10 9 0 16 -2 16 -4z m259 -16 c12 0 21 -7 21 -15 0 -8 -3 -14 -7 -13 -5 1
-18 -3 -30 -10 -16 -9 -23 -9 -23 -2 0 6 -3 9 -7 7 -5 -3 -8 8 -9 24 -1 24 1
27 17 19 10 -6 27 -10 38 -10z m-184 1 c3 -5 1 -12 -5 -16 -5 -3 -10 1 -10 9
0 18 6 21 15 7z m1247 -34 c-7 -8 -9 -17 -5 -20 3 -4 1 -7 -5 -7 -6 0 -9 12
-8 28 5 38 5 37 18 24 8 -8 8 -15 0 -25z m-1197 -17 c3 -6 -1 -7 -9 -4 -18 7
-21 14 -7 14 6 0 13 -4 16 -10z m1265 -24 c0 -23 -16 -27 -17 -5 -1 10 2 19 8
19 5 0 9 -6 9 -14z m-1086 -11 c5 0 11 -5 13 -12 3 -7 -3 -9 -16 -6 -12 3 -21
1 -21 -6 0 -6 -7 -11 -15 -11 -12 0 -13 4 -3 25 6 14 16 21 22 17 6 -4 15 -7
20 -7z m-1434 -29 c0 -2 -7 -7 -16 -10 -8 -3 -12 -2 -9 4 6 10 25 14 25 6z
m1538 -10 c-7 -8 -15 -12 -17 -11 -5 6 10 25 20 25 5 0 4 -6 -3 -14z m982 10
c0 -3 -4 -8 -10 -11 -5 -3 -10 -1 -10 4 0 6 5 11 10 11 6 0 10 -2 10 -4z
m-1173 -33 c-4 -3 -3 -11 3 -17 6 -8 0 -12 -23 -11 -18 0 -38 -4 -46 -10 -12
-8 -12 -6 -2 13 7 13 18 21 25 19 7 -3 19 -1 27 4 17 10 25 12 16 2z m73 -22
c0 -6 -4 -13 -10 -16 -5 -3 -10 1 -10 9 0 9 5 16 10 16 6 0 10 -4 10 -9z m84
-12 c18 -17 -4 -22 -22 -6 -10 10 -21 14 -24 11 -3 -3 -9 0 -13 7 -6 9 0 10
21 5 16 -4 33 -12 38 -17z m-1534 -4 c-7 -8 -17 -12 -22 -9 -6 4 -5 10 3 15
22 14 33 10 19 -6z m2499 -21 c-29 -15 -36 -11 -18 9 8 8 20 12 28 9 9 -4 7
-9 -10 -18z m-889 2 c0 4 11 -1 25 -10 14 -10 34 -14 45 -11 15 5 18 1 16 -18
-2 -15 4 -29 16 -36 14 -8 18 -8 18 1 0 6 3 9 6 6 3 -4 1 -16 -6 -27 -7 -13
-7 -21 -1 -21 6 0 8 -7 5 -15 -5 -12 -8 -12 -20 0 -8 7 -14 19 -14 25 0 14
-80 90 -95 90 -6 0 -20 7 -31 15 -18 14 -17 14 9 5 15 -5 27 -7 27 -4z m960
-11 c7 -14 10 -28 7 -31 -8 -9 -47 38 -40 48 8 14 19 8 33 -17z m-339 -24
c-15 -15 -16 -15 -19 3 -4 21 19 41 29 24 4 -6 -1 -18 -10 -27z m-221 11 c0
-5 -7 -9 -15 -9 -8 0 -15 4 -15 9 0 4 7 8 15 8 8 0 15 -4 15 -8z m-2046 -32
c-6 -6 -10 -3 -10 10 0 13 4 16 10 10 7 -7 7 -13 0 -20z m2192 2 c6 -8 16 -12
22 -8 18 11 14 -2 -8 -32 -12 -16 -22 -47 -23 -77 -3 -31 -9 -50 -18 -53 -10
-3 -11 -1 -2 5 9 7 6 16 -12 37 l-24 29 19 25 c16 20 18 28 8 39 -10 13 -15
11 -35 -11 -25 -29 -35 -33 -27 -11 4 8 1 15 -6 15 -10 0 -10 3 0 15 7 8 10
22 6 30 -6 18 15 20 32 3 9 -9 13 -8 17 5 7 18 33 12 51 -11z m-139 -44 c-3
-8 -6 -5 -6 6 -1 11 2 17 5 13 3 -3 4 -12 1 -19z m386 7 c-3 -9 -8 -14 -10
-11 -3 3 -2 9 2 15 9 16 15 13 8 -4z m-2486 -37 c-3 -8 -6 -5 -6 6 -1 11 2 17
5 13 3 -3 4 -12 1 -19z m-87 -30 c0 -13 -23 -5 -28 10 -2 7 2 10 12 6 9 -3 16
-11 16 -16z m1785 4 c-3 -3 -11 0 -18 7 -9 10 -8 11 6 5 10 -3 15 -9 12 -12z
m465 -2 c0 -5 -5 -10 -11 -10 -5 0 -7 5 -4 10 3 6 8 10 11 10 2 0 4 -4 4 -10z
m-419 -63 c-13 -13 -26 -3 -16 12 3 6 11 8 17 5 6 -4 6 -10 -1 -17z m567 -90
c7 -5 10 -12 7 -17 -5 -8 23 -25 38 -22 4 1 7 -2 7 -7 0 -5 9 -13 20 -16 11
-4 18 -10 15 -15 -3 -5 -12 -7 -20 -3 -8 3 -15 0 -15 -7 0 -6 -4 -8 -10 -5 -5
3 -10 0 -11 -7 0 -7 -5 -3 -11 9 -10 20 -32 28 -100 36 -16 2 -28 0 -28 -3 0
-11 -72 -30 -84 -22 -6 3 -24 7 -41 8 -16 1 -31 3 -32 4 -2 1 -6 3 -11 4 -4 0
-21 11 -37 23 l-30 22 35 -10 c52 -15 100 -18 100 -5 0 5 7 3 17 -6 14 -15 19
-15 45 -2 15 8 28 12 28 9 0 -4 7 0 15 9 9 8 21 13 29 10 7 -3 18 2 25 10 12
15 28 16 49 3z m438 -62 c-14 -13 -26 -29 -26 -35 0 -5 -4 -10 -10 -10 -5 0
-10 -4 -10 -10 0 -5 -16 -24 -35 -43 -19 -19 -35 -39 -35 -46 0 -6 -5 -11 -11
-11 -5 0 -8 -4 -5 -9 6 -10 -18 -34 -26 -26 -2 3 -11 -6 -18 -20 -7 -14 -17
-25 -22 -25 -5 0 -6 -4 -3 -10 3 -5 0 -10 -7 -10 -7 0 -22 -14 -33 -30 -11
-16 -23 -30 -27 -30 -5 0 -8 -6 -8 -14 0 -8 -25 -40 -55 -71 -31 -31 -53 -60
-50 -66 4 -5 2 -8 -4 -7 -6 2 -24 -13 -41 -32 l-30 -35 0 31 c0 17 7 37 15 44
12 10 13 16 4 26 -9 11 -8 14 1 14 9 0 11 9 6 30 -4 23 -1 33 13 42 11 7 17
18 13 26 -3 10 -1 13 6 8 7 -4 16 3 23 18 7 14 16 23 20 20 5 -3 9 -2 9 3 0
14 47 63 54 56 3 -3 6 -1 6 5 0 7 6 12 14 12 14 0 31 28 27 45 -2 5 1 7 5 2 4
-4 18 0 31 8 13 9 23 12 23 8 0 -4 7 2 15 13 8 10 15 16 15 12 0 -11 44 27
115 98 33 34 62 57 63 52 2 -5 -8 -20 -22 -33z m-551 -115 c-10 -11 -21 -17
-25 -15 -5 3 -11 0 -13 -5 -3 -6 -4 -5 -3 2 2 7 8 13 14 13 6 0 17 6 24 13 20
20 23 14 3 -8z m-257 -52 c19 0 42 -7 50 -15 12 -12 12 -14 1 -12 -8 2 -32 -6
-54 -17 -58 -29 -70 -26 -70 18 0 32 3 37 19 32 10 -3 34 -6 54 -6z m192 8 c0
-3 -4 -8 -10 -11 -5 -3 -10 -1 -10 4 0 6 5 11 10 11 6 0 10 -2 10 -4z m-30
-31 c0 -8 -4 -15 -10 -15 -5 0 -7 7 -4 15 4 8 8 15 10 15 2 0 4 -7 4 -15z
m-240 -55 c0 -5 -5 -10 -11 -10 -5 0 -7 5 -4 10 3 6 8 10 11 10 2 0 4 -4 4
-10z m134 -75 c-4 -8 -11 -15 -16 -15 -6 0 -5 6 2 15 7 8 14 15 16 15 2 0 1
-7 -2 -15z m290 -30 c-9 -14 -18 -25 -20 -25 -2 0 2 11 8 25 6 14 15 25 20 25
5 0 1 -11 -8 -25z m-323 -18 c-10 -9 -11 -8 -5 6 3 10 9 15 12 12 3 -3 0 -11
-7 -18z m-75 -3 c-9 -8 -17 -20 -17 -25 -1 -5 -2 -14 -3 -21 0 -6 -8 -13 -16
-15 -12 -4 -12 -3 -1 5 9 6 10 12 2 16 -11 7 25 56 42 56 4 0 1 -7 -7 -16z m4
-154 c0 -5 -5 -10 -11 -10 -5 0 -7 5 -4 10 3 6 8 10 11 10 2 0 4 -4 4 -10z
m-29 -58 c-6 -2 -9 -8 -6 -13 4 -5 -1 -6 -9 -3 -14 5 -13 9 2 29 14 19 18 20
21 7 2 -9 -2 -18 -8 -20z m245 -69 c-10 -10 -19 5 -10 18 6 11 8 11 12 0 2 -7
1 -15 -2 -18z m-401 -22 c3 -5 1 -12 -5 -16 -5 -3 -10 1 -10 9 0 18 6 21 15 7z
m-121 -75 c-3 -14 -10 -24 -14 -21 -4 3 -11 -2 -14 -11 -3 -8 -10 -12 -16 -9
-5 3 -10 1 -10 -4 0 -6 -6 -11 -13 -11 -8 0 -24 -9 -37 -20 -13 -11 -25 -20
-28 -20 -13 0 100 116 121 123 17 6 19 3 11 -27z m-154 -114 c0 -5 -7 -9 -15
-9 -8 0 -12 4 -9 9 3 4 9 8 15 8 5 0 9 -4 9 -8z m-86 -45 c-5 -27 -13 -34 -46
-42 -23 -6 -28 -4 -28 12 0 10 13 27 30 36 17 10 30 24 30 30 0 8 4 7 9 -2 5
-8 7 -23 5 -34z m-156 -61 c-8 -6 -13 -17 -11 -23 8 -23 -12 -14 -39 17 -29
33 -28 37 2 18 16 -11 23 -10 37 5 12 12 19 14 22 6 2 -7 -3 -17 -11 -23z
m652 -236 c-15 -28 -20 -23 -13 13 4 18 9 25 15 19 6 -6 6 -18 -2 -32z m-104
-76 c3 -15 8 -32 11 -38 4 -6 -1 -5 -10 3 -9 7 -17 27 -17 44 0 36 9 31 16 -9z"/>
</g>
</svg>
