<?xml version="1.0" standalone="no"?>
<!DOCTYPE svg PUBLIC "-//W3C//DTD SVG 20010904//EN"
 "http://www.w3.org/TR/2001/REC-SVG-20010904/DTD/svg10.dtd">
<svg version="1.0" xmlns="http://www.w3.org/2000/svg"
 width="463.000000pt" height="254.000000pt" viewBox="0 0 463.000000 254.000000"
 preserveAspectRatio="xMidYMid meet">
<metadata>
Created by potrace 1.13, written by Peter Selinger 2001-2015
</metadata>
<g transform="translate(0.000000,254.000000) scale(0.100000,-0.100000)"
fill="#000000" stroke="none">
<path d="M3985 2509 c-299 -29 -377 -39 -412 -55 -65 -30 -455 -84 -788 -109
-110 -9 -414 -20 -675 -25 -408 -8 -491 -12 -590 -30 -63 -11 -152 -24 -197
-30 -46 -5 -88 -12 -93 -15 -15 -9 -235 -34 -304 -35 -118 0 -286 60 -334 121
-21 26 -30 29 -80 29 -48 0 -62 5 -89 28 -18 15 -41 48 -53 75 -32 73 -80 61
-80 -21 0 -78 19 -130 62 -166 l39 -34 -57 -17 c-111 -32 -135 -73 -66 -113
31 -18 33 -22 15 -22 -16 0 -23 -6 -23 -20 0 -11 5 -20 10 -20 7 0 6 -8 -1
-22 -24 -45 -180 -274 -219 -321 -44 -54 -50 -88 -25 -138 38 -72 125 -88 215
-38 37 20 74 32 115 35 73 7 141 27 217 65 72 36 123 37 171 5 19 -13 44 -27
55 -30 25 -8 190 -173 198 -198 3 -10 10 -18 15 -18 5 0 9 -4 9 -9 0 -16 72
-135 87 -144 19 -12 63 -60 63 -70 0 -11 58 -86 80 -105 8 -7 32 -24 54 -38
49 -33 75 -62 128 -144 36 -57 51 -71 108 -99 61 -31 69 -33 133 -26 l67 7 0
-25 c0 -14 5 -29 10 -32 6 -3 10 -19 10 -36 0 -16 11 -51 24 -77 52 -100 69
-148 82 -231 24 -146 22 -152 -41 -202 -36 -29 -54 -52 -55 -66 0 -13 5 -23
10 -23 6 0 10 -7 10 -15 0 -30 59 -48 134 -42 38 3 72 10 75 15 3 5 14 12 25
15 13 5 17 14 14 32 -4 20 0 25 22 30 23 5 29 13 34 46 4 22 4 45 0 50 -3 6 4
18 15 28 22 20 27 46 11 56 -5 3 -10 15 -10 26 0 12 -7 19 -20 19 -16 0 -20 7
-20 30 0 19 -5 30 -14 30 -17 0 -25 61 -31 247 -2 73 -7 149 -11 169 l-7 36
109 -7 c108 -7 164 -24 201 -60 8 -8 22 -15 32 -15 9 0 22 -5 29 -12 7 -7 49
-13 103 -15 51 -1 94 -5 97 -8 3 -3 18 -5 33 -5 15 0 31 -4 34 -10 3 -5 27
-10 53 -10 26 0 74 -7 107 -15 79 -19 93 -18 98 3 4 16 5 16 6 0 1 -15 12 -18
75 -18 40 0 88 -3 105 -6 27 -6 31 -4 31 15 0 17 6 21 35 21 19 0 35 -4 35
-10 0 -14 112 -12 160 2 22 7 40 19 40 25 0 16 5 16 29 1 15 -9 27 -8 58 5 76
32 83 32 83 -2 0 -29 3 -31 35 -31 19 0 35 4 35 9 0 17 31 21 78 11 79 -17 99
-29 109 -63 12 -42 48 -49 65 -13 8 18 19 26 37 26 17 0 21 -3 14 -8 -9 -6
-11 -28 -8 -75 2 -37 0 -67 -5 -67 -5 0 -12 -21 -16 -47 -9 -63 -47 -133 -87
-159 -35 -23 -77 -93 -77 -129 0 -20 7 -24 66 -35 47 -8 70 -8 77 -1 6 6 30
11 53 11 46 0 54 9 54 66 0 35 0 35 36 28 l36 -7 -7 88 c-9 102 -9 97 -7 158
2 45 3 47 32 47 23 0 30 5 30 19 0 11 -6 21 -12 23 -23 8 8 58 36 58 17 0 26
7 30 25 6 22 9 23 26 13 11 -7 27 -29 36 -48 9 -19 25 -53 35 -76 10 -22 19
-44 19 -48 0 -4 7 -14 15 -22 8 -9 15 -33 15 -54 0 -21 5 -40 12 -42 20 -7 13
-91 -12 -136 -13 -23 -27 -42 -32 -42 -4 0 -8 -7 -8 -16 0 -9 -22 -36 -50 -61
-53 -47 -65 -83 -30 -83 11 0 23 -7 26 -15 8 -21 110 -19 199 5 l70 18 0 56
c0 47 2 56 17 56 10 0 18 -5 18 -11 0 -6 10 -9 22 -7 26 3 37 36 16 49 -10 6
-10 9 0 9 7 0 12 13 12 30 0 17 5 30 10 30 15 0 12 40 -2 40 -7 0 -5 5 5 11 9
5 17 19 17 30 0 11 4 28 9 37 5 9 12 36 16 59 6 40 6 41 -24 48 -26 5 -31 11
-30 33 0 15 3 21 6 15 2 -7 13 -13 24 -13 17 0 19 8 19 60 0 56 -2 60 -22 60
-17 0 -19 3 -10 9 14 9 17 35 14 108 -2 35 -6 43 -29 51 -16 6 -22 11 -15 11
7 1 20 8 29 16 13 13 13 23 4 62 -7 26 -14 154 -16 292 -3 135 -10 314 -16
396 -10 130 -9 302 4 605 2 42 -2 50 -44 93 -25 25 -63 72 -83 104 -36 56 -53
71 -141 120 -47 26 -50 26 -310 2z m202 -85 c-3 -3 -12 -4 -19 -1 -8 3 -5 6 6
6 11 1 17 -2 13 -5z m-509 -100 c12 -4 22 -14 21 -23 0 -10 -2 -11 -6 -3 -8
20 -43 14 -43 -8 0 -11 5 -20 10 -20 6 0 10 -9 10 -20 0 -12 -7 -20 -18 -20
-9 0 -23 9 -30 20 -7 11 -23 20 -37 20 -18 0 -25 -5 -25 -20 0 -11 -4 -20 -9
-20 -5 0 -12 -10 -14 -22 -4 -20 -4 -20 -6 4 0 15 4 30 9 33 6 3 10 15 10 26
0 19 4 20 40 14 36 -6 40 -5 40 13 0 11 -6 23 -12 25 -18 8 33 8 60 1z m532
-41 c-8 -3 -19 -12 -23 -19 -4 -8 -17 -14 -27 -14 -25 0 -27 -37 -2 -43 12 -3
11 -5 -6 -6 -32 -1 -26 -41 8 -58 14 -7 19 -13 12 -13 -24 0 -72 41 -72 61 0
25 -40 27 -41 2 0 -10 -3 -13 -5 -6 -8 18 13 51 36 58 11 3 20 12 20 19 0 9 9
12 25 8 15 -2 25 0 25 7 0 6 15 11 33 10 17 0 25 -3 17 -6z m-695 -124 c-8
-24 -36 -59 -47 -59 -5 0 -8 9 -8 20 0 11 5 20 10 20 6 0 10 9 10 20 0 14 7
20 21 20 16 0 19 -4 14 -21z m475 -4 c0 -9 -7 -18 -15 -21 -8 -4 -15 -12 -15
-20 0 -8 -9 -14 -19 -14 -15 0 -21 -10 -26 -40 -7 -42 -29 -54 -38 -20 -3 13
0 20 9 20 10 0 14 14 15 53 0 28 3 46 6 40 7 -18 40 -16 47 2 7 20 36 19 36 0z
m237 -47 c-3 -7 -5 -2 -5 12 0 14 2 19 5 13 2 -7 2 -19 0 -25z m-581 -30 c3
-5 3 -16 -1 -26 -5 -14 -7 -14 -15 -2 -7 12 -15 13 -38 4 -22 -9 -33 -8 -47 2
-22 17 -20 20 25 31 37 10 67 7 76 -9z m394 6 c0 -2 -12 -4 -26 -4 -14 0 -23
4 -20 9 6 8 46 4 46 -5z m-2303 -111 c-3 -10 -5 -4 -5 12 0 17 2 24 5 18 2 -7
2 -21 0 -30z m2217 -8 c3 -9 0 -15 -8 -15 -8 0 -17 -6 -19 -12 -3 -7 -6 -3 -6
9 -1 12 -9 24 -18 26 -10 3 -4 5 13 6 20 1 34 -5 38 -14z m-41 -176 c-4 -16
-8 -17 -14 -7 -13 19 -11 28 5 28 9 0 12 -7 9 -21z m-3493 -46 c0 -7 -9 -13
-20 -13 -15 0 -20 7 -20 25 0 23 2 24 20 13 11 -7 20 -18 20 -25z m3603 20
c-7 -2 -19 -2 -25 0 -7 3 -2 5 12 5 14 0 19 -2 13 -5z m-76 -35 c-3 -7 -5 -2
-5 12 0 14 2 19 5 13 2 -7 2 -19 0 -25z m-17 -28 c0 -11 7 -20 15 -20 8 0 15
-7 15 -15 0 -8 -7 -15 -15 -15 -8 0 -15 -9 -15 -19 0 -11 -4 -23 -10 -26 -5
-3 -10 -1 -10 4 0 6 -9 11 -20 11 -35 0 -20 -48 20 -62 11 -3 11 -6 -3 -11 -9
-3 -17 -2 -17 3 0 6 -9 10 -20 10 -16 0 -20 -7 -20 -30 0 -20 5 -30 15 -30 8
0 15 -7 15 -16 0 -14 -1 -14 -16 0 -8 9 -20 16 -25 16 -5 0 -9 16 -9 35 0 27
-4 35 -18 35 -44 0 -75 66 -45 98 19 20 53 15 53 -8 0 -17 7 -20 40 -20 33 0
40 3 40 20 0 13 -7 20 -20 20 -11 0 -20 4 -20 9 0 4 11 6 25 3 18 -3 25 0 25
12 0 9 5 16 10 16 6 0 10 -9 10 -20z m79 -30 c-1 -10 -2 -11 -6 -2 -2 6 -11
12 -19 12 -17 0 -19 27 -1 33 13 4 26 -17 26 -43z m460 -139 c-1 -104 -4 -227
-8 -273 l-6 -83 -14 168 c-12 136 -12 184 -2 255 13 93 20 122 27 122 2 0 4
-85 3 -189z m-770 114 c18 -10 13 -25 -9 -25 -11 0 -20 -7 -20 -15 0 -8 -7
-15 -15 -15 -8 0 -15 -9 -15 -20 0 -11 -4 -20 -10 -20 -5 0 -10 5 -10 10 0 6
-6 10 -14 10 -15 0 -30 45 -21 60 4 6 13 10 21 10 8 0 14 3 14 8 0 9 64 7 79
-3z m451 -20 c0 -8 -4 -15 -10 -15 -5 0 -10 -9 -10 -20 0 -11 7 -20 15 -20 13
0 13 -3 3 -13 -18 -20 -33 0 -34 46 0 29 3 37 18 37 10 0 18 -7 18 -15z
m-2070 -45 c0 -5 -4 -10 -10 -10 -5 0 -10 5 -10 10 0 6 5 10 10 10 6 0 10 -4
10 -10z m1432 -32 c-9 -37 -52 -67 -52 -38 0 6 7 10 15 10 8 0 17 11 21 25 3
14 10 25 14 25 5 0 5 -10 2 -22z m71 -8 c3 -12 0 -20 -8 -20 -14 0 -27 25 -18
34 11 11 21 6 26 -14z m540 -85 c-5 -60 -4 -65 14 -65 10 0 24 5 31 12 9 9 12
7 12 -9 0 -15 -7 -23 -22 -25 -20 -3 -23 -10 -26 -50 -3 -43 -1 -48 17 -48 12
0 21 5 21 10 0 6 5 10 10 10 6 0 10 -7 10 -15 0 -10 -11 -15 -35 -15 -28 0
-35 -4 -35 -19 0 -11 4 -21 10 -23 6 -2 6 -9 0 -18 -8 -12 -13 -13 -30 -2 -11
6 -27 12 -35 12 -17 0 -21 -35 -5 -45 20 -13 9 -23 -13 -12 -22 10 -23 14 -14
49 5 21 13 38 18 38 5 0 9 11 9 24 0 14 5 28 10 31 6 3 10 17 10 31 0 14 7 32
15 40 16 17 20 54 6 54 -5 0 -7 9 -4 21 4 12 0 25 -8 30 -10 6 -10 9 -1 9 6 0
12 9 12 20 0 11 7 20 15 20 12 0 13 -12 8 -65z m-673 26 c0 -11 6 -21 13 -24
9 -3 9 -7 0 -17 -6 -7 -16 -9 -22 -6 -14 9 -15 66 -1 66 6 0 10 -9 10 -19z
m239 -36 c0 -5 -4 -3 -9 5 -5 8 -9 22 -9 30 0 16 17 -16 18 -35z m551 -15 c0
-5 -9 -10 -20 -10 -11 0 -20 5 -20 10 0 6 9 10 20 10 11 0 20 -4 20 -10z
m-521 -50 c5 0 13 -9 16 -20 3 -11 12 -20 20 -20 12 0 25 -21 25 -41 0 -20
-28 -7 -34 16 -4 14 -13 25 -21 25 -8 0 -15 9 -15 20 0 11 -4 20 -10 20 -5 0
-10 10 -9 23 l0 22 9 -22 c5 -13 14 -23 19 -23z m524 -17 c-7 -2 -19 -2 -25 0
-7 3 -2 5 12 5 14 0 19 -2 13 -5z m-414 -114 c12 0 11 -3 -4 -8 -24 -10 -21
-13 -28 24 -6 27 -5 28 5 8 6 -13 18 -23 27 -24z m107 -84 c14 -13 14 -15 1
-15 -9 0 -17 -6 -20 -12 -5 -16 -13 -10 -21 20 -9 26 16 31 40 7z m-219 -1
c-3 -3 -12 -4 -19 -1 -8 3 -5 6 6 6 11 1 17 -2 13 -5z m-2117 -14 c0 -5 -4
-10 -10 -10 -5 0 -10 5 -10 10 0 6 5 10 10 10 6 0 10 -4 10 -10z m2190 0 c0
-5 -5 -10 -11 -10 -5 0 -7 5 -4 10 3 6 8 10 11 10 2 0 4 -4 4 -10z m-2150 -40
c0 -5 8 -10 18 -10 10 0 29 -12 41 -26 19 -21 20 -28 10 -35 -24 -15 -44 -5
-47 24 -2 15 -9 27 -16 27 -8 0 -19 7 -26 15 -10 12 -10 15 4 15 9 0 16 -4 16
-10z m2835 -275 c4 -16 13 -33 19 -37 8 -6 8 -8 0 -8 -16 0 -28 -202 -17 -255
5 -22 6 -69 3 -105 -5 -59 -7 -62 -13 -30 -4 19 -9 128 -11 241 -3 145 -8 213
-17 227 -11 17 -11 28 -1 55 7 18 13 65 14 103 1 56 3 47 9 -46 3 -63 10 -128
14 -145z m-770 145 c13 0 25 -5 27 -10 2 -6 31 -11 66 -13 34 -1 62 -5 62 -9
0 -11 62 -21 69 -11 3 5 14 12 24 16 14 5 17 1 17 -23 0 -17 5 -30 12 -30 15
0 58 -40 58 -54 0 -6 11 -24 25 -40 23 -27 24 -30 7 -42 -15 -11 -17 -9 -20
18 -3 26 -7 29 -27 26 -21 -4 -24 0 -30 39 -5 33 -11 43 -25 43 -20 0 -30 -19
-30 -56 0 -13 -4 -24 -10 -24 -5 0 -10 -7 -10 -15 0 -8 -7 -15 -15 -15 -8 0
-15 7 -15 15 0 17 -23 20 -51 5 -14 -8 -19 -7 -19 1 0 11 -28 9 -62 -6 -15 -6
-18 -2 -18 23 0 23 -5 31 -25 36 -16 4 -25 13 -25 26 0 13 -7 20 -19 20 -22 0
-33 21 -20 41 5 8 9 28 9 44 1 25 2 27 11 13 5 -10 21 -18 34 -18z m-1981 -40
c8 0 16 -9 19 -20 3 -10 20 -25 38 -33 l34 -14 -42 1 c-37 1 -43 4 -43 22 0
12 -7 27 -15 34 -8 7 -14 24 -14 39 l2 26 4 -27 c2 -16 10 -28 17 -28z m404
-9 c-15 -5 -19 4 -11 24 6 18 7 18 13 -1 4 -10 3 -21 -2 -23z m669 -83 c-3 -7
-5 -2 -5 12 0 14 2 19 5 13 2 -7 2 -19 0 -25z m-84 -28 c-7 -28 -13 -25 -13 6
0 14 4 23 9 20 5 -3 7 -15 4 -26z m574 -32 c-3 -7 -5 -2 -5 12 0 14 2 19 5 13
2 -7 2 -19 0 -25z m-420 6 c-3 -3 -12 -4 -19 -1 -8 3 -5 6 6 6 11 1 17 -2 13
-5z m1690 -50 c-2 -2 -12 -1 -22 3 -18 6 -18 7 1 13 17 7 33 -5 21 -16z
m-1457 -34 c0 -5 -4 -10 -10 -10 -5 0 -10 5 -10 10 0 6 5 10 10 10 6 0 10 -4
10 -10z m-1200 -25 c0 -8 -2 -15 -4 -15 -2 0 -6 7 -10 15 -3 8 -1 15 4 15 6 0
10 -7 10 -15z m-28 -77 c-6 -6 -7 0 -4 19 5 21 7 23 10 9 2 -10 0 -22 -6 -28z
m2675 -334 c-3 -3 -12 -4 -19 -1 -8 3 -5 6 6 6 11 1 17 -2 13 -5z m-177 -162
c0 -12 -39 -52 -50 -52 -6 0 -10 5 -10 10 0 6 7 10 15 10 8 0 15 9 15 20 0 11
7 20 15 20 8 0 15 -4 15 -8z"/>
</g>
</svg>
