<?xml version="1.0" standalone="no"?>
<!DOCTYPE svg PUBLIC "-//W3C//DTD SVG 20010904//EN"
 "http://www.w3.org/TR/2001/REC-SVG-20010904/DTD/svg10.dtd">
<svg version="1.0" xmlns="http://www.w3.org/2000/svg"
 width="520.000000pt" height="494.000000pt" viewBox="0 0 520.000000 494.000000"
 preserveAspectRatio="xMidYMid meet">
<metadata>
Created by potrace 1.13, written by Peter Selinger 2001-2015
</metadata>
<g transform="translate(0.000000,494.000000) scale(0.100000,-0.100000)"
fill="#000000" stroke="none">
<path d="M1843 4712 c-13 -2 -23 -9 -23 -17 0 -7 -6 -15 -13 -18 -7 -2 -24
-27 -37 -53 -14 -27 -28 -50 -32 -52 -3 -2 -2 -16 2 -33 5 -16 7 -29 5 -29 -3
0 0 -11 5 -24 8 -22 6 -24 -12 -21 -11 2 -26 9 -32 15 -7 5 -16 7 -19 3 -4 -3
-7 -1 -7 6 0 7 -4 10 -9 6 -5 -3 -12 -1 -16 5 -9 15 -64 12 -81 -5 -13 -12
-13 -19 1 -51 14 -33 13 -36 -1 -30 -21 8 -44 -11 -37 -30 3 -8 2 -14 -3 -13
-5 1 -22 -3 -37 -9 -16 -7 -34 -12 -42 -12 -8 0 -26 -5 -42 -12 -15 -6 -36
-13 -46 -15 -9 -1 -43 -12 -75 -22 -51 -18 -124 -32 -174 -34 -10 -1 -18 -5
-18 -10 0 -4 -4 -6 -8 -3 -5 3 -15 -6 -22 -19 -7 -14 -17 -25 -22 -25 -5 0 -6
-4 -3 -10 3 -5 1 -19 -5 -30 -8 -14 -7 -29 4 -55 8 -19 13 -35 10 -35 -3 0 8
-12 25 -26 30 -25 63 -38 131 -49 19 -3 37 -10 38 -16 2 -5 10 -9 18 -9 8 0
29 -13 47 -29 17 -17 41 -32 54 -36 12 -3 35 -10 50 -17 15 -6 30 -12 33 -13
10 -4 90 -17 97 -17 15 2 94 -90 91 -106 -1 -10 4 -28 12 -42 18 -31 21 -46
21 -90 0 -19 5 -38 12 -42 9 -6 9 -8 -1 -8 -7 0 -11 -4 -7 -9 10 -17 13 -125
4 -143 -6 -11 -5 -19 2 -24 8 -4 8 -8 1 -13 -6 -4 -12 -23 -14 -44 -1 -20 -5
-37 -8 -37 -3 0 -5 -13 -4 -30 1 -16 -3 -30 -8 -30 -7 0 -7 -4 0 -12 12 -15
19 -89 10 -103 -3 -6 -5 -31 -4 -58 0 -26 -3 -47 -8 -47 -5 0 -3 -7 4 -15 7
-8 10 -21 7 -29 -3 -7 1 -26 9 -42 9 -16 15 -30 15 -31 -1 -2 -1 -4 0 -5 7
-24 -7 -223 -16 -238 -3 -6 -1 -10 6 -10 7 0 10 -3 6 -6 -3 -4 0 -19 8 -34 8
-15 11 -30 8 -34 -4 -3 -1 -6 5 -6 7 0 12 -7 12 -15 0 -14 55 -70 68 -70 4 0
19 -9 33 -20 23 -17 24 -21 10 -37 -8 -9 -16 -27 -18 -40 -2 -12 -8 -25 -13
-28 -13 -8 -38 -82 -33 -97 3 -7 1 -13 -4 -13 -5 0 -10 -9 -11 -20 -1 -11 -3
-29 -4 -40 -1 -11 -6 -20 -11 -20 -5 0 -7 -7 -3 -15 3 -8 1 -15 -5 -15 -6 0
-9 -6 -6 -14 3 -8 2 -16 -2 -18 -9 -3 -65 -89 -66 -99 0 -3 -13 -22 -30 -41
-30 -34 -70 -54 -80 -38 -3 4 -21 4 -40 0 -21 -5 -38 -4 -41 2 -3 5 -13 0 -21
-11 -8 -12 -12 -25 -8 -30 3 -5 1 -13 -5 -16 -12 -7 -3 -46 12 -56 5 -3 9 -9
9 -13 -2 -8 64 -66 75 -66 4 0 16 -7 26 -17 11 -10 18 -12 18 -4 0 9 5 9 22 0
18 -10 24 -8 38 8 13 16 20 18 44 10 23 -8 31 -6 38 7 5 9 15 16 23 16 8 0 17
10 20 23 5 17 13 23 28 22 34 -3 47 5 47 29 0 12 5 27 11 33 8 8 7 15 -4 24
-13 12 -12 17 4 41 14 19 16 27 7 31 -10 3 -9 9 3 23 8 10 20 31 27 47 6 15
17 27 23 27 6 0 9 7 5 15 -3 8 -2 14 2 12 10 -3 72 61 72 73 0 6 4 10 9 10 5
0 13 9 16 21 4 12 14 29 23 38 35 37 53 63 48 68 -5 6 18 33 29 33 4 0 45 -38
92 -85 52 -53 83 -91 80 -100 -3 -7 -1 -15 4 -17 6 -2 12 -16 13 -31 2 -15 11
-36 21 -47 10 -11 14 -20 10 -20 -5 0 1 -10 13 -23 12 -13 19 -27 15 -30 -3
-4 -2 -7 4 -7 6 0 28 -16 49 -35 22 -19 45 -35 52 -35 7 0 11 -4 8 -9 -3 -5 6
-21 19 -35 14 -15 25 -31 25 -35 0 -5 26 -34 57 -65 31 -31 54 -56 50 -56 -4
0 1 -9 11 -19 9 -11 23 -27 30 -36 13 -15 15 -15 27 2 13 17 14 16 8 -5 -4
-17 2 -28 23 -44 16 -13 48 -42 71 -65 44 -44 59 -51 65 -31 6 16 58 -20 58
-39 0 -26 108 -112 122 -97 3 2 11 -2 18 -11 9 -11 17 -12 31 -4 16 8 19 6 19
-11 0 -20 33 -40 73 -43 9 -1 17 -5 17 -9 0 -4 6 -8 14 -8 25 0 27 -18 6 -38
l-21 -20 28 -19 c15 -10 38 -18 51 -17 12 1 22 -2 22 -5 0 -4 8 -16 18 -27 33
-36 61 -81 55 -88 -3 -3 -1 -6 7 -6 9 0 10 -3 1 -13 -6 -8 -8 -17 -4 -20 3 -4
1 -7 -5 -7 -6 0 -10 -9 -9 -21 2 -24 39 -49 45 -30 2 6 8 9 13 5 5 -3 9 0 9 5
0 7 7 7 20 -1 11 -7 20 -16 20 -21 0 -4 -4 -5 -10 -2 -5 3 -15 -5 -21 -19 -7
-14 -16 -23 -21 -20 -4 3 -15 -11 -23 -30 -9 -22 -22 -36 -33 -36 -9 0 -35
-16 -56 -35 -22 -19 -43 -32 -48 -29 -4 3 -8 1 -8 -4 0 -5 -7 -9 -15 -10 -8
-1 -22 -3 -30 -4 -8 -1 -15 -5 -15 -9 0 -5 -6 -6 -12 -4 -25 10 -78 12 -78 4
0 -5 -7 -6 -15 -3 -8 4 -15 1 -15 -5 0 -6 -6 -11 -13 -11 -16 0 -57 -33 -57
-46 0 -15 89 -108 96 -101 4 3 23 -6 43 -22 41 -32 53 -31 91 12 26 30 28 30
34 10 4 -12 13 -23 20 -26 14 -5 68 43 67 60 0 11 34 56 86 112 41 45 42 45
62 27 18 -16 22 -17 35 -4 11 11 12 18 4 26 -8 8 -4 14 15 21 29 11 57 5 57
-11 0 -6 11 -3 25 6 30 20 39 20 31 1 -3 -8 -1 -15 4 -15 7 0 7 -40 0 -60 -2
-3 -2 -8 -1 -12 0 -5 -4 -8 -10 -8 -5 0 -8 -4 -4 -9 3 -5 2 -12 -3 -15 -4 -2
-9 -19 -10 -37 -1 -18 -6 -37 -10 -43 -5 -6 -8 -18 -7 -26 1 -8 -8 -28 -19
-45 -11 -16 -21 -34 -21 -40 -2 -24 -26 -66 -35 -60 -5 3 -10 -1 -10 -9 0 -9
-8 -16 -18 -16 -10 0 -23 -5 -29 -11 -5 -5 -21 -11 -34 -13 -14 -1 -31 -6 -39
-11 -7 -4 -42 -10 -78 -11 -74 -4 -93 -15 -74 -44 6 -11 12 -29 12 -40 0 -11
3 -20 8 -20 4 0 25 -16 47 -35 22 -20 51 -38 65 -42 14 -3 31 -10 38 -16 6 -5
12 -6 12 -2 0 5 8 -1 18 -12 9 -11 24 -18 32 -15 19 7 40 28 40 41 0 6 5 11
11 11 6 0 9 7 5 15 -7 20 18 20 34 0 10 -12 10 -15 -1 -15 -8 0 -6 -5 6 -14
26 -19 50 -13 49 12 0 12 3 19 8 16 5 -3 18 4 29 17 10 12 22 19 25 16 10 -10
36 22 28 35 -5 8 -2 9 11 4 12 -4 22 0 32 14 8 11 19 18 24 15 5 -4 9 -1 9 6
0 7 3 10 6 6 3 -3 20 8 37 24 30 29 31 30 14 58 -15 26 -15 30 -2 41 9 7 18
10 22 6 3 -3 0 -6 -7 -6 -9 0 -7 -5 6 -14 17 -13 21 -12 36 4 10 11 18 22 18
25 0 4 10 15 22 25 19 15 20 20 10 33 -11 13 -10 16 8 22 11 4 28 19 38 33 9
15 25 36 34 46 13 15 15 23 7 33 -6 7 -8 13 -3 13 5 0 2 5 -6 10 -11 7 -7 8
15 6 32 -4 59 10 49 25 -3 5 -1 9 4 9 6 0 12 10 16 23 3 12 26 44 50 72 24 27
42 53 40 57 -2 3 12 23 31 44 19 20 35 41 35 45 0 5 7 9 15 9 9 0 20 11 25 25
5 14 20 36 32 49 13 13 37 40 53 61 17 20 39 47 50 60 40 45 53 63 49 68 -3 2
9 19 26 37 16 18 30 37 30 44 0 6 15 27 33 47 17 20 50 58 72 84 22 26 48 56
58 66 9 11 17 21 17 24 0 3 10 16 23 29 12 12 37 41 56 64 18 23 42 44 52 47
10 4 19 13 19 21 0 8 4 13 9 9 11 -6 53 49 44 59 -3 3 -1 6 5 6 11 0 12 44 1
65 -3 6 -4 19 -3 30 1 11 5 54 9 95 3 41 8 76 10 79 3 2 1 9 -4 15 -6 7 -12
24 -15 40 -3 15 -11 35 -18 43 -7 9 -12 19 -12 22 5 22 -45 81 -68 81 -7 0
-28 14 -45 30 -18 17 -36 30 -40 30 -5 -1 -24 12 -43 27 -19 15 -37 28 -40 28
-3 0 -21 12 -41 28 -20 15 -39 27 -43 27 -4 0 -28 18 -54 40 -46 40 -63 51
-129 86 -18 10 -33 21 -33 26 0 4 -11 8 -24 8 -14 0 -28 5 -31 10 -4 6 -11 8
-16 5 -5 -4 -9 -1 -9 5 0 6 -4 9 -9 6 -5 -4 -23 5 -39 19 -16 13 -31 22 -34
19 -3 -2 -11 2 -18 11 -7 8 -18 15 -24 15 -7 0 -18 6 -24 13 -7 6 -17 12 -22
12 -4 0 -21 11 -37 25 -16 14 -36 26 -44 28 -8 2 -24 13 -36 24 -13 12 -23 18
-23 14 0 -4 -10 2 -22 14 -12 11 -27 20 -32 20 -6 0 -26 13 -45 29 -19 17 -38
28 -43 25 -4 -3 -8 -1 -8 3 0 5 -20 22 -46 38 -40 25 -60 40 -101 75 -7 5 -16
10 -20 10 -4 0 -22 13 -40 28 -42 37 -76 61 -86 61 -4 0 -18 11 -31 23 -13 13
-37 33 -52 45 -16 12 -39 31 -51 42 -12 11 -27 22 -34 23 -7 2 -22 11 -34 21
-11 10 -33 28 -49 40 -15 12 -38 31 -50 42 -11 11 -43 38 -71 60 -27 22 -57
47 -65 55 -8 8 -37 33 -65 55 -27 22 -60 49 -72 60 -37 35 -96 80 -104 80 -6
0 -88 65 -116 93 -7 7 -13 10 -13 7 0 -8 -68 33 -94 57 -10 9 -22 15 -26 13
-4 -3 -13 2 -20 10 -7 8 -16 13 -20 10 -4 -3 -13 2 -20 10 -7 8 -18 15 -24 15
-6 0 -29 16 -50 35 -22 19 -43 32 -48 29 -4 -3 -8 -1 -8 4 0 6 -10 12 -22 15
-13 4 -27 7 -33 9 -5 1 -23 14 -38 28 -16 14 -32 25 -35 24 -4 0 -11 4 -17 8
-5 5 -21 17 -34 28 -13 11 -28 20 -33 20 -5 0 -15 6 -22 13 -7 6 -29 25 -49
41 -21 16 -54 54 -74 83 -20 29 -40 53 -45 53 -4 0 -7 3 -6 8 1 4 -3 17 -10
30 -7 12 -10 22 -8 22 3 0 -5 20 -18 45 -14 25 -21 45 -17 45 21 0 4 57 -24
80 -51 42 -54 47 -64 89 -6 29 -5 51 5 78 7 21 13 44 14 51 0 21 -23 37 -47
34z m-389 -629 c-2 -36 -1 -35 -25 -23 l-20 11 22 20 c12 10 23 19 23 19 1 0
1 -12 0 -27z m1162 -691 c-18 -16 -18 -16 -6 6 6 13 14 21 18 18 3 -4 -2 -14
-12 -24z m9 -522 c-3 -5 -11 -10 -16 -10 -6 0 -7 5 -4 10 3 6 11 10 16 10 6 0
7 -4 4 -10z m-645 -20 c0 -5 -4 -10 -10 -10 -5 0 -10 5 -10 10 0 6 5 10 10 10
6 0 10 -4 10 -10z m2 -60 c-2 -7 2 -16 7 -20 6 -3 13 -23 15 -43 4 -31 2 -37
-14 -37 -27 0 -42 30 -23 48 8 8 12 21 9 28 -3 8 -9 21 -13 30 -4 12 -2 15 8
12 8 -3 13 -11 11 -18z m-37 -154 c-11 -17 -13 -26 -5 -31 7 -4 8 -11 1 -18
-14 -17 -13 -24 4 -57 9 -17 11 -30 5 -30 -5 0 -10 5 -10 11 0 15 -26 39 -34
32 -3 -4 -6 -1 -6 5 0 5 4 12 10 14 5 2 12 18 14 35 2 18 9 40 16 48 19 23 22
18 5 -9z m2282 -195 c6 -24 34 -36 44 -19 4 6 5 16 3 20 -3 4 -1 8 5 8 14 0
51 -50 51 -69 -1 -13 -3 -12 -12 4 -6 11 -12 21 -13 23 -7 9 -35 -13 -31 -24
3 -8 3 -21 0 -29 -10 -24 -42 0 -39 29 2 14 -5 32 -15 41 -16 14 -19 14 -33 1
-8 -8 -17 -12 -21 -9 -3 3 -12 0 -21 -7 -9 -7 -15 -8 -15 -2 0 9 63 47 83 51
5 0 11 -8 14 -18z m-134 -53 c-9 -10 -18 -16 -21 -14 -2 3 -15 0 -29 -5 -21
-8 -24 -6 -21 8 2 10 13 19 26 21 12 2 22 10 22 18 0 12 4 12 20 2 18 -11 18
-14 3 -30z m-1837 -45 c-6 -15 -9 -15 -16 -3 -6 9 -5 17 3 22 16 10 21 2 13
-19z m-352 -53 c-6 -6 -10 -3 -10 10 0 13 4 16 10 10 7 -7 7 -13 0 -20z m2194
-1 c2 -5 7 -7 11 -5 4 3 15 -7 24 -23 15 -26 15 -28 -5 -40 -18 -11 -20 -11
-14 4 4 12 -2 20 -23 28 -16 6 -35 22 -41 35 -10 23 -9 24 17 17 15 -3 30 -11
31 -16z m-2228 -13 c0 -2 -7 -9 -15 -16 -13 -11 -14 -10 -9 4 5 14 24 23 24
12z m2905 -114 c-3 -3 -11 0 -18 7 -9 10 -8 11 6 5 10 -3 15 -9 12 -12z m-379
-39 c-1 -13 6 -18 24 -18 23 0 39 -11 40 -26 0 -11 -75 -16 -82 -6 -4 6 -19 0
-38 -16 -44 -37 -60 -35 -44 7 3 8 12 12 19 9 8 -2 28 11 46 31 36 41 37 42
35 19z m245 -49 c8 -5 19 -9 24 -9 17 -2 45 -17 45 -24 0 -10 -54 -8 -61 2 -3
4 -13 5 -23 1 -11 -4 -15 -13 -10 -28 5 -16 4 -18 -6 -9 -17 16 -40 5 -40 -19
0 -10 -4 -17 -8 -14 -11 7 -9 46 3 65 5 10 4 16 -3 19 -7 2 -12 9 -12 16 0 14
69 14 91 0z m-108 -9 c-3 -9 -8 -14 -10 -11 -3 3 -2 9 2 15 9 16 15 13 8 -4z
m-96 -55 c11 -16 10 -18 -1 -14 -15 6 -30 34 -18 34 4 0 13 -9 19 -20z m-134
-56 c-4 -11 -9 -12 -18 -4 -9 8 -14 7 -18 -2 -4 -9 -6 -9 -6 -1 -1 6 4 15 9
18 7 4 6 14 -1 28 -11 21 -11 21 14 -2 14 -13 23 -30 20 -37z m282 -12 c-3 -3
-11 0 -18 7 -9 10 -8 11 6 5 10 -3 15 -9 12 -12z m-882 -20 c-18 -18 -33 -19
-33 -2 0 7 17 15 43 19 4 0 -1 -7 -10 -17z m127 5 c0 -5 8 -3 17 4 10 9 14 9
10 2 -8 -12 25 -36 37 -28 3 3 4 2 1 -1 -2 -4 0 -14 5 -24 12 -22 1 -34 -17
-19 -9 9 -17 8 -27 0 -10 -8 -16 -9 -21 -1 -4 6 -12 4 -23 -6 -15 -15 -17 -15
-24 8 -11 31 5 75 26 75 9 0 16 -5 16 -10z m-219 -14 c-5 -10 -8 -22 -8 -28 1
-5 -8 -11 -20 -13 -17 -3 -21 0 -17 12 3 9 10 16 15 16 5 0 9 7 9 15 0 8 7 15
15 15 12 0 13 -4 6 -17z m47 -1 c2 -7 -2 -10 -12 -6 -9 3 -16 11 -16 16 0 13
23 5 28 -10z m-1021 -17 c0 -8 -4 -12 -8 -9 -4 2 -10 0 -14 -6 -3 -5 -11 -10
-17 -10 -7 0 26 35 38 40 0 0 1 -7 1 -15z m1119 -8 c4 -4 2 -7 -5 -7 -7 0 -11
-7 -8 -14 4 -10 1 -13 -8 -10 -17 7 -16 42 2 40 7 -1 16 -5 19 -9z m413 -21
c9 -11 7 -15 -8 -19 -14 -3 -17 0 -14 14 6 23 7 23 22 5z m-1449 -5 c0 -5 -7
-12 -16 -15 -14 -5 -15 -4 -4 9 14 17 20 19 20 6z m1288 -25 c9 -5 8 -12 0
-26 -10 -16 -8 -23 17 -44 26 -23 30 -23 41 -8 7 9 8 19 3 20 -5 2 -9 11 -9
19 0 11 6 8 20 -8 10 -13 19 -18 20 -11 0 6 7 12 16 12 12 0 14 -3 6 -13 -6
-7 -8 -24 -5 -37 5 -19 3 -22 -13 -18 -11 3 -25 -1 -32 -9 -14 -14 -36 -18
-28 -4 8 13 -21 34 -34 26 -7 -4 -9 -16 -7 -27 6 -20 6 -20 -40 -1 -7 3 -13
-2 -13 -11 0 -9 -2 -16 -4 -16 -2 0 -12 -3 -22 -7 -15 -6 -15 -2 4 25 21 29
22 33 8 54 -17 26 -16 56 3 68 8 4 11 13 7 19 -8 12 42 9 62 -3z m-1293 -66
c3 -5 1 -10 -4 -10 -6 0 -11 5 -11 10 0 6 2 10 4 10 3 0 8 -4 11 -10z m1509
-6 c5 -14 4 -15 -9 -4 -17 14 -19 20 -6 20 5 0 12 -7 15 -16z m-454 -31 c-11
-17 -11 -17 -6 0 3 10 6 24 7 30 0 9 2 9 5 0 3 -7 0 -20 -6 -30z m403 -11
c-12 -33 -16 -35 -25 -13 -10 27 -3 42 17 35 8 -3 11 -13 8 -22z m-420 -34
c-4 -7 -6 -23 -5 -35 2 -11 -2 -24 -8 -28 -16 -10 -24 1 -15 22 9 21 12 29 14
43 0 6 6 10 12 10 6 0 7 -5 2 -12z m261 -17 c4 -5 -3 -7 -14 -4 -23 6 -26 13
-6 13 8 0 17 -4 20 -9z m-69 -20 c3 -5 1 -12 -4 -15 -5 -3 -11 1 -15 9 -6 16
9 21 19 6z m-189 -64 c2 -18 -21 -43 -30 -29 -8 13 5 53 17 49 6 -2 11 -11 13
-20z m484 -2 c12 -14 5 -20 -22 -17 -3 1 -12 -6 -19 -14 -10 -13 -10 -17 2
-25 11 -7 9 -9 -9 -9 -13 0 -20 4 -17 10 3 6 0 10 -7 10 -7 0 -1 8 15 18 15 9
25 22 22 29 -6 18 20 16 35 -2z m-1395 -35 c-3 -5 -11 -10 -16 -10 -6 0 -7 5
-4 10 3 6 11 10 16 10 6 0 7 -4 4 -10z m902 -39 c0 -20 -4 -28 -14 -24 -7 3
-13 7 -13 9 0 4 24 44 26 44 0 0 1 -13 1 -29z m403 -9 c0 -3 -20 -25 -45 -48
-38 -37 -44 -40 -42 -21 1 12 10 25 19 29 12 5 15 13 11 24 -4 12 -3 15 5 10
7 -4 15 -1 18 8 5 13 34 12 34 -2z m-1090 4 c0 -2 -7 -9 -15 -16 -13 -11 -14
-10 -9 4 5 14 24 23 24 12z m555 -6 c3 -6 -1 -7 -9 -4 -18 7 -21 14 -7 14 6 0
13 -4 16 -10z m45 -54 c0 -3 -4 -8 -10 -11 -5 -3 -10 -1 -10 4 0 6 5 11 10 11
6 0 10 -2 10 -4z m880 -10 c0 -9 -143 -173 -165 -189 -14 -10 -25 -24 -25 -31
0 -6 -39 -52 -87 -101 -47 -50 -77 -76 -65 -59 12 17 28 37 36 44 9 7 14 16
11 20 -3 4 11 24 30 45 19 20 33 41 30 46 -4 5 -1 9 4 9 6 0 11 4 11 10 0 5
10 20 23 32 12 13 34 39 50 58 15 18 27 30 27 25 0 -4 11 5 25 21 14 16 25 26
25 22 0 -3 13 7 29 23 27 27 41 35 41 25z m-1074 -43 c-2 -10 5 -25 15 -34 10
-9 16 -19 13 -22 -7 -7 67 -83 78 -79 5 1 8 -6 8 -16 0 -29 24 -55 55 -58 38
-4 42 -12 18 -29 -20 -14 -20 -18 -8 -41 7 -14 11 -38 8 -52 -2 -15 -5 -35 -6
-44 -1 -10 -6 -18 -12 -18 -5 0 -4 -4 4 -9 18 -12 5 -31 -21 -31 -19 0 -20 1
-4 25 15 22 15 28 3 40 -8 8 -18 11 -23 7 -5 -4 -2 2 7 13 8 11 20 32 26 46 9
21 8 27 -6 36 -15 9 -22 6 -41 -17 -13 -16 -28 -26 -32 -24 -5 3 -15 1 -23 -6
-16 -13 -30 3 -21 26 4 11 -3 19 -24 27 -16 6 -30 17 -30 25 0 13 -40 33 -52
25 -5 -2 -8 3 -8 11 0 8 7 19 15 23 12 7 13 14 3 41 -10 26 -10 34 0 41 10 6
10 10 -3 21 -23 19 -18 36 15 50 17 7 30 19 30 26 0 8 4 14 9 14 5 0 8 -8 7
-17z m609 4 c11 -6 26 -10 32 -9 8 2 10 -3 7 -13 -7 -16 -26 -20 -38 -7 -17
16 -56 -2 -56 -27 0 -6 -4 -11 -10 -11 -15 0 -12 -26 5 -40 11 -9 15 -9 15 -1
0 7 5 9 10 6 6 -3 10 -10 10 -16 0 -15 -25 -10 -46 9 -23 22 -44 18 -44 -8 0
-10 -4 -21 -8 -24 -10 -6 -34 8 -34 20 0 5 -3 15 -7 22 -8 15 -42 5 -40 -12 4
-32 -2 -39 -14 -16 -11 21 -10 27 5 42 10 10 29 20 42 24 14 3 30 12 37 20 6
8 18 14 25 14 8 0 19 8 26 19 13 21 52 25 83 8z m103 -33 c-10 -10 -28 6 -28
24 0 15 1 15 17 -1 9 -9 14 -19 11 -23z m-407 19 c0 -5 2 -16 4 -25 2 -13 -3
-16 -24 -13 -14 2 -27 4 -28 4 -2 1 5 10 14 21 18 20 32 26 34 13z m370 -70
c13 -17 13 -17 -6 -3 -11 8 -22 16 -24 17 -2 2 0 3 6 3 6 0 17 -8 24 -17z
m-26 -373 c-10 -11 -20 -18 -23 -16 -5 6 21 35 32 36 5 0 1 -9 -9 -20z m-52
-61 c-10 -12 -31 -35 -46 -51 -15 -15 -25 -33 -22 -38 3 -6 1 -10 -5 -10 -6 0
-8 -5 -5 -10 3 -6 -1 -17 -9 -26 -9 -9 -14 -20 -11 -25 4 -5 1 -9 -5 -9 -7 0
-38 -27 -71 -61 -32 -33 -59 -57 -59 -52 0 5 9 19 19 30 11 12 17 23 15 26 -7
7 33 47 45 47 5 0 13 10 17 22 3 12 15 31 25 42 11 11 19 28 19 39 0 21 24 49
34 40 3 -4 6 -1 6 6 0 7 4 9 10 6 5 -3 20 10 32 29 13 19 24 31 26 26 2 -4 -5
-19 -15 -31z m-63 -230 c0 -14 -29 -17 -34 -4 -3 9 2 13 15 12 10 -1 19 -4 19
-8z m-196 -90 c-10 -12 -18 -23 -16 -25 5 -7 -29 -66 -35 -60 -3 3 -19 -13
-35 -35 -16 -23 -33 -38 -36 -34 -4 4 -1 10 6 12 6 3 10 9 6 14 -3 5 1 15 8
23 34 35 78 86 74 86 -2 0 5 11 17 24 12 14 24 23 26 20 2 -2 -4 -13 -15 -25z
m-129 -277 c-3 -3 -11 0 -18 7 -9 10 -8 11 6 5 10 -3 15 -9 12 -12z m-245 -7
c0 -8 -8 -15 -17 -16 -10 0 -26 -2 -35 -4 -10 -2 -18 3 -18 10 0 8 7 11 19 8
10 -3 22 0 25 6 10 16 26 13 26 -4z"/>
</g>
</svg>
