<?xml version="1.0" standalone="no"?>
<!DOCTYPE svg PUBLIC "-//W3C//DTD SVG 20010904//EN"
 "http://www.w3.org/TR/2001/REC-SVG-20010904/DTD/svg10.dtd">
<svg version="1.0" xmlns="http://www.w3.org/2000/svg"
 width="388.000000pt" height="163.000000pt" viewBox="0 0 388.000000 163.000000"
 preserveAspectRatio="xMidYMid meet">
<metadata>
Created by potrace 1.13, written by Peter Selinger 2001-2015
</metadata>
<g transform="translate(0.000000,163.000000) scale(0.100000,-0.100000)"
fill="#000000" stroke="none">
<path d="M1205 1470 c-834 -47 -819 -46 -840 -66 -21 -22 -19 -96 4 -125 18
-22 25 -23 272 -32 167 -6 258 -13 266 -20 9 -9 9 -48 -3 -172 -14 -160 -12
-371 5 -540 9 -90 36 -153 78 -183 65 -46 101 -53 308 -63 110 -5 221 -14 246
-20 33 -7 59 -7 85 0 22 5 93 10 159 10 66 0 255 1 420 3 165 1 462 -2 660 -7
267 -6 366 -5 382 3 12 7 91 17 175 23 166 12 202 20 221 53 26 46 37 453 21
804 -14 298 4 275 -224 297 -333 33 -389 36 -580 34 -463 -5 -1043 -4 -1265 3
-132 3 -307 2 -390 -2z"/>
</g>
</svg>
