<?xml version="1.0" standalone="no"?>
<!DOCTYPE svg PUBLIC "-//W3C//DTD SVG 20010904//EN"
 "http://www.w3.org/TR/2001/REC-SVG-20010904/DTD/svg10.dtd">
<svg version="1.0" xmlns="http://www.w3.org/2000/svg"
 width="471.000000pt" height="194.000000pt" viewBox="0 0 471.000000 194.000000"
 preserveAspectRatio="xMidYMid meet">
<metadata>
Created by potrace 1.13, written by Peter Selinger 2001-2015
</metadata>
<g transform="translate(0.000000,194.000000) scale(0.100000,-0.100000)"
fill="#000000" stroke="none">
<path d="M1770 1619 c-135 -4 -276 -13 -314 -20 -48 -8 -133 -9 -283 -4 -187
6 -216 5 -238 -9 -21 -14 -66 -16 -329 -16 l-305 0 -20 -26 c-29 -37 -29 -121
0 -158 l20 -26 289 0 c222 0 289 -3 293 -12 2 -7 -5 -38 -16 -68 -17 -50 -19
-82 -18 -369 l2 -315 25 -46 c39 -72 122 -168 169 -195 25 -15 70 -29 116 -35
41 -5 124 -17 184 -25 61 -8 171 -20 245 -26 180 -15 719 -14 856 1 117 13
348 9 604 -9 235 -17 487 -20 785 -10 350 12 364 13 405 32 19 8 57 24 83 34
26 10 60 30 74 46 24 24 27 37 34 125 7 105 2 774 -7 910 -5 75 -9 87 -36 118
-17 19 -44 42 -60 50 -17 9 -110 24 -221 36 -247 27 -692 29 -1072 3 -262 -17
-479 -12 -645 15 -63 10 -267 10 -620 -1z"/>
</g>
</svg>
