<?xml version="1.0" standalone="no"?>
<!DOCTYPE svg PUBLIC "-//W3C//DTD SVG 20010904//EN"
 "http://www.w3.org/TR/2001/REC-SVG-20010904/DTD/svg10.dtd">
<svg version="1.0" xmlns="http://www.w3.org/2000/svg"
 width="465.000000pt" height="192.000000pt" viewBox="0 0 465.000000 192.000000"
 preserveAspectRatio="xMidYMid meet">
<metadata>
Created by potrace 1.13, written by Peter Selinger 2001-2015
</metadata>
<g transform="translate(0.000000,192.000000) scale(0.100000,-0.100000)"
fill="#000000" stroke="none">
<path d="M3165 1579 c-55 -4 -500 -10 -990 -13 -902 -5 -1288 -12 -1315 -23
-8 -3 -60 -7 -115 -9 -268 -10 -429 -24 -443 -38 -20 -20 -26 -105 -10 -136
16 -30 3 -28 316 -39 128 -5 235 -11 239 -14 3 -3 -2 -58 -12 -121 -22 -144
-17 -467 10 -586 38 -176 60 -216 139 -255 49 -24 70 -27 247 -36 107 -5 255
-14 329 -20 194 -14 602 -20 616 -8 12 10 569 14 1244 10 174 -1 346 2 385 8
39 6 147 17 240 26 221 21 226 23 248 67 16 33 19 73 22 345 4 396 -8 700 -29
742 -9 17 -24 35 -34 40 -9 5 -80 14 -157 21 -77 6 -169 16 -205 22 -153 24
-530 33 -725 17z"/>
</g>
</svg>
