<?xml version="1.0" standalone="no"?>
<!DOCTYPE svg PUBLIC "-//W3C//DTD SVG 20010904//EN"
 "http://www.w3.org/TR/2001/REC-SVG-20010904/DTD/svg10.dtd">
<svg version="1.0" xmlns="http://www.w3.org/2000/svg"
 width="448.000000pt" height="192.000000pt" viewBox="0 0 448.000000 192.000000"
 preserveAspectRatio="xMidYMid meet">
<metadata>
Created by potrace 1.13, written by Peter Selinger 2001-2015
</metadata>
<g transform="translate(0.000000,192.000000) scale(0.100000,-0.100000)"
fill="#000000" stroke="none">
<path d="M2870 1618 c-25 -5 -250 -14 -500 -18 -250 -5 -581 -13 -735 -18
-154 -4 -323 -5 -375 -1 -168 13 -342 10 -370 -6 -20 -11 -82 -14 -310 -15
-317 0 -319 0 -340 -66 -14 -42 -6 -81 22 -111 21 -23 26 -23 258 -23 131 0
265 -3 299 -7 81 -8 88 -20 72 -134 -18 -128 -26 -470 -12 -567 19 -144 99
-247 216 -280 47 -13 259 -39 400 -48 64 -4 109 -12 125 -22 38 -24 182 -29
215 -8 32 21 68 20 89 -3 15 -16 27 -18 104 -13 52 3 96 11 110 20 24 15 123
15 782 -3 157 -5 657 6 840 18 410 27 415 27 440 46 35 25 68 77 77 120 12 62
-16 960 -31 996 -17 41 -68 83 -109 89 -53 9 -463 25 -787 32 -270 5 -367 11
-420 27 -8 2 -35 0 -60 -5z"/>
</g>
</svg>
