<?xml version="1.0" standalone="no"?>
<!DOCTYPE svg PUBLIC "-//W3C//DTD SVG 20010904//EN"
 "http://www.w3.org/TR/2001/REC-SVG-20010904/DTD/svg10.dtd">
<svg version="1.0" xmlns="http://www.w3.org/2000/svg"
 width="426.000000pt" height="175.000000pt" viewBox="0 0 426.000000 175.000000"
 preserveAspectRatio="xMidYMid meet">
<metadata>
Created by potrace 1.13, written by Peter Selinger 2001-2015
</metadata>
<g transform="translate(0.000000,175.000000) scale(0.100000,-0.100000)"
fill="#000000" stroke="none">
<path d="M1415 1389 c-121 -4 -274 -12 -340 -18 -66 -6 -172 -10 -235 -9 -124
3 -420 -9 -497 -20 -39 -6 -50 -12 -61 -35 -18 -38 -8 -93 21 -109 13 -7 96
-14 209 -17 152 -5 190 -9 203 -22 14 -14 14 -31 4 -155 -22 -264 -2 -362 88
-428 60 -45 100 -56 238 -66 60 -5 148 -14 195 -20 116 -17 476 -17 515 0 22
9 186 15 590 22 647 12 645 12 659 -2 5 -5 35 -10 65 -10 42 0 91 -14 225 -64
94 -36 227 -81 296 -101 69 -20 148 -50 176 -66 28 -16 60 -29 71 -29 11 0 41
-9 67 -21 26 -11 55 -17 66 -14 30 9 38 56 44 255 3 102 11 219 16 260 17 117
29 271 23 286 -2 7 -30 20 -61 29 -32 9 -78 27 -103 40 -30 16 -63 25 -91 25
-27 0 -110 21 -209 54 -173 57 -301 96 -384 117 -33 9 -65 27 -95 55 -81 74
-22 69 -785 70 -379 0 -789 -3 -910 -7z"/>
</g>
</svg>
