<?xml version="1.0" standalone="no"?>
<!DOCTYPE svg PUBLIC "-//W3C//DTD SVG 20010904//EN"
 "http://www.w3.org/TR/2001/REC-SVG-20010904/DTD/svg10.dtd">
<svg version="1.0" xmlns="http://www.w3.org/2000/svg"
 width="424.000000pt" height="186.000000pt" viewBox="0 0 424.000000 186.000000"
 preserveAspectRatio="xMidYMid meet">
<metadata>
Created by potrace 1.13, written by Peter Selinger 2001-2015
</metadata>
<g transform="translate(0.000000,186.000000) scale(0.100000,-0.100000)"
fill="#000000" stroke="none">
<path d="M697 1553 c-4 -6 -97 -13 -213 -16 -128 -5 -212 -11 -221 -18 -17
-15 -18 -123 0 -137 14 -12 98 -20 293 -27 82 -3 143 -10 152 -17 11 -10 13
-68 9 -352 -3 -188 -6 -345 -7 -351 -4 -28 34 -142 60 -180 56 -81 -62 -75
1491 -75 1349 0 1381 0 1418 20 52 26 99 67 116 99 32 63 48 201 48 411 0 238
-15 394 -42 465 -24 64 -74 123 -120 142 -50 21 -608 31 -1791 32 -520 1 -999
4 -1066 7 -75 4 -123 3 -127 -3z"/>
</g>
</svg>
