<?xml version="1.0" standalone="no"?>
<!DOCTYPE svg PUBLIC "-//W3C//DTD SVG 20010904//EN"
 "http://www.w3.org/TR/2001/REC-SVG-20010904/DTD/svg10.dtd">
<svg version="1.0" xmlns="http://www.w3.org/2000/svg"
 width="469.000000pt" height="204.000000pt" viewBox="0 0 469.000000 204.000000"
 preserveAspectRatio="xMidYMid meet">
<metadata>
Created by potrace 1.13, written by Peter Selinger 2001-2015
</metadata>
<g transform="translate(0.000000,204.000000) scale(0.100000,-0.100000)"
fill="#000000" stroke="none">
<path d="M933 1620 c-13 -5 -136 -12 -275 -16 -337 -9 -338 -9 -357 -57 -11
-30 -12 -45 -2 -76 6 -22 18 -42 27 -45 28 -11 194 -26 389 -35 165 -8 191
-12 203 -28 10 -14 12 -45 6 -138 -3 -66 -7 -226 -8 -355 -1 -266 6 -303 70
-379 79 -92 167 -110 542 -111 166 0 224 -3 261 -16 41 -13 61 -14 127 -4 99
15 128 14 233 -1 61 -9 96 -9 125 -2 28 8 356 9 1053 6 1046 -6 1062 -6 1077
33 11 28 8 1131 -3 1152 -6 11 -26 25 -43 30 -39 13 -647 24 -1423 26 -715 3
-1865 15 -1930 21 -27 3 -60 0 -72 -5z"/>
</g>
</svg>
