<?xml version="1.0" standalone="no"?>
<!DOCTYPE svg PUBLIC "-//W3C//DTD SVG 20010904//EN"
 "http://www.w3.org/TR/2001/REC-SVG-20010904/DTD/svg10.dtd">
<svg version="1.0" xmlns="http://www.w3.org/2000/svg"
 width="286.000000pt" height="266.000000pt" viewBox="0 0 286.000000 266.000000"
 preserveAspectRatio="xMidYMid meet">
<metadata>
Created by potrace 1.13, written by Peter Selinger 2001-2015
</metadata>
<g transform="translate(0.000000,266.000000) scale(0.100000,-0.100000)"
fill="#000000" stroke="none">
<path d="M489 2637 c-14 -7 -33 -18 -41 -25 -13 -10 -17 -10 -22 3 -9 24 -45
18 -56 -9 -15 -40 -30 -41 -30 -2 0 29 -4 36 -19 36 -12 0 -23 -11 -29 -27
-10 -27 -10 -27 -11 -4 -1 22 -4 23 -43 17 -24 -4 -46 -14 -51 -21 -4 -8 -17
-15 -27 -15 -23 0 -26 -28 -11 -93 8 -34 7 -39 -12 -47 -28 -11 -49 -36 -66
-80 -8 -19 -18 -39 -23 -45 -12 -13 -10 -43 4 -47 6 -2 0 -15 -15 -31 -23 -22
-27 -35 -27 -83 l0 -56 53 6 c50 7 54 5 95 -29 l42 -36 -3 -75 c-1 -52 2 -77
11 -83 10 -6 9 -16 -4 -47 -15 -35 -15 -52 -4 -154 7 -63 18 -128 25 -145 6
-16 18 -61 25 -100 7 -40 24 -87 39 -110 14 -22 32 -52 40 -67 19 -37 38 -56
104 -102 35 -26 62 -55 75 -82 11 -23 39 -57 62 -75 23 -19 63 -55 89 -80 25
-25 57 -50 71 -54 13 -4 56 -27 94 -51 39 -24 76 -44 82 -44 13 0 24 -32 24
-73 0 -16 4 -37 10 -47 14 -25 -27 -222 -55 -263 -19 -29 -27 -33 -93 -39 -70
-7 -99 -19 -210 -85 -40 -23 -43 -28 -38 -56 3 -16 6 -36 6 -43 0 -8 7 -14 15
-14 8 0 15 -9 15 -20 0 -23 38 -28 58 -8 16 16 81 38 117 38 17 0 57 8 90 16
33 9 74 19 90 23 28 7 84 2 168 -14 36 -7 37 -7 37 24 0 27 -4 31 -40 41 -43
11 -90 62 -90 96 0 11 13 35 30 54 35 42 37 50 10 50 -11 0 -20 1 -20 3 0 1 6
22 14 47 20 67 57 132 78 138 10 2 18 8 18 13 0 5 10 9 21 9 19 0 21 4 15 31
l-6 31 78 -7 c105 -9 157 -28 198 -73 64 -68 66 -75 53 -229 -6 -76 -12 -147
-13 -158 -3 -43 -21 -55 -111 -77 -81 -20 -178 -65 -197 -92 -4 -6 -8 -23 -8
-38 0 -23 5 -27 41 -33 26 -4 45 -3 52 4 15 15 27 14 27 -4 0 -17 46 -20 82
-6 13 5 35 12 50 15 15 3 33 12 40 19 37 36 129 60 143 37 3 -6 20 -10 36 -10
17 0 37 -7 45 -15 19 -19 53 -19 60 -1 6 17 -17 56 -58 96 -15 16 -28 35 -28
43 0 8 -9 17 -20 20 -11 3 -20 13 -20 22 0 12 6 15 19 10 29 -9 35 12 12 41
-21 27 -31 114 -13 114 5 0 8 37 9 82 0 46 3 110 6 143 4 33 6 67 7 77 0 11
15 20 53 28 28 6 66 18 82 25 17 7 50 16 75 20 27 5 55 17 69 31 13 13 27 24
32 24 16 0 99 88 99 105 0 9 11 26 25 37 14 11 25 25 25 31 0 6 8 38 18 70 13
45 24 62 45 73 15 8 27 18 27 22 0 4 25 22 55 40 30 18 62 46 72 62 9 17 25
33 35 36 10 3 37 30 59 60 28 38 46 54 63 54 24 0 66 37 66 59 0 7 7 19 15 27
17 18 19 79 4 143 -10 45 2 101 22 101 5 0 9 8 9 18 0 10 4 22 9 27 5 6 12 31
15 58 6 38 4 47 -8 47 -13 0 -14 11 -9 65 6 62 5 65 -16 65 -18 0 -20 3 -11
20 5 11 15 29 20 40 17 33 12 50 -15 50 -24 0 -24 0 -10 41 24 66 21 72 -25
66 -35 -4 -40 -3 -40 14 0 11 7 22 15 25 18 7 20 44 3 44 -7 0 -26 7 -42 15
-21 11 -50 15 -96 12 l-66 -3 4 32 c5 40 -18 50 -76 34 -22 -5 -52 -8 -68 -5
-35 6 -54 -10 -135 -110 -31 -39 -70 -85 -88 -102 -17 -18 -31 -37 -31 -41 0
-5 -12 -37 -26 -73 -15 -35 -34 -84 -43 -109 -32 -86 -61 -126 -125 -168 -82
-54 -101 -58 -164 -33 -29 12 -62 21 -72 21 -11 0 -20 4 -20 9 0 5 -15 15 -32
22 -18 6 -49 18 -68 25 -49 19 -269 37 -365 30 l-80 -6 -43 49 c-23 28 -42 53
-42 57 0 8 -70 75 -100 94 -54 35 -80 69 -79 102 1 18 3 25 6 16 9 -34 41 -21
54 22 7 22 16 40 21 40 19 0 8 88 -17 124 -18 27 -21 36 -10 36 9 0 15 10 15
24 0 31 -43 66 -82 66 -21 0 -31 6 -38 24 -7 19 -18 25 -46 28 -44 4 -56 25
-20 34 17 4 26 13 26 25 0 15 -7 19 -37 18 -21 0 -50 -6 -64 -12z"/>
</g>
</svg>
