<?xml version="1.0" standalone="no"?>
<!DOCTYPE svg PUBLIC "-//W3C//DTD SVG 20010904//EN"
 "http://www.w3.org/TR/2001/REC-SVG-20010904/DTD/svg10.dtd">
<svg version="1.0" xmlns="http://www.w3.org/2000/svg"
 width="412.000000pt" height="396.000000pt" viewBox="0 0 412.000000 396.000000"
 preserveAspectRatio="xMidYMid meet">
<metadata>
Created by potrace 1.13, written by Peter Selinger 2001-2015
</metadata>
<g transform="translate(0.000000,396.000000) scale(0.100000,-0.100000)"
fill="#000000" stroke="none">
<path d="M3205 3948 c-4 -10 -39 -13 -129 -13 -140 0 -172 -12 -191 -73 -8
-29 -13 -32 -48 -32 -29 0 -46 -7 -68 -29 -57 -57 -28 -141 56 -162 37 -9 42
-14 33 -28 -5 -9 -31 -25 -57 -35 -25 -10 -56 -22 -68 -26 -30 -12 -83 -97
-83 -133 0 -16 5 -37 11 -48 10 -20 9 -20 -140 -13 -110 5 -168 3 -213 -6 -83
-17 -144 -44 -160 -69 -8 -14 -23 -21 -43 -21 -56 0 -142 -27 -209 -63 -37
-21 -71 -37 -77 -37 -19 0 -153 -131 -179 -175 -14 -24 -37 -60 -51 -81 -30
-45 -46 -107 -55 -216 -5 -64 -9 -78 -23 -78 -22 0 -103 -85 -127 -134 -47
-95 -49 -97 -101 -115 -28 -9 -68 -15 -91 -13 -34 3 -51 -2 -89 -27 -25 -17
-51 -31 -56 -31 -6 0 -24 -10 -41 -23 -17 -12 -51 -31 -76 -42 -25 -10 -61
-31 -80 -46 -31 -24 -111 -64 -114 -57 -1 2 -7 13 -14 25 -6 13 -12 29 -12 36
0 18 -32 47 -52 47 -8 0 -23 9 -33 20 -23 25 -57 26 -78 2 -13 -14 -17 -39
-17 -110 0 -84 2 -92 25 -110 24 -19 24 -20 5 -37 -11 -10 -23 -34 -26 -54 -4
-19 -18 -44 -31 -54 -12 -10 -23 -29 -23 -41 0 -45 63 -74 90 -41 7 8 23 15
36 15 27 0 94 76 94 108 0 19 68 74 138 111 15 8 40 25 56 38 20 16 37 23 51
19 14 -4 28 0 35 9 7 8 18 15 25 15 7 0 18 7 25 15 10 12 28 15 77 12 44 -2
67 1 74 10 13 15 55 18 63 4 3 -5 16 -7 29 -5 12 2 16 2 10 -2 -18 -8 -16 -40
4 -72 17 -26 17 -26 0 -13 -15 12 -22 12 -42 1 -13 -7 -35 -10 -48 -6 -16 4
-29 1 -37 -9 -7 -9 -27 -14 -51 -13 -25 1 -46 -5 -59 -17 -13 -12 -28 -16 -49
-12 -19 4 -33 1 -41 -8 -7 -8 -19 -15 -27 -15 -8 0 -24 -11 -34 -24 -12 -15
-32 -26 -52 -28 -25 -2 -36 -11 -51 -38 -30 -56 -119 -126 -168 -134 -24 -4
-50 -14 -60 -23 -19 -17 -24 -53 -9 -68 4 -6 11 -22 14 -36 5 -21 -1 -33 -33
-64 -42 -41 -51 -74 -25 -95 8 -7 15 -24 15 -39 0 -15 5 -32 11 -38 8 -8 8
-13 0 -17 -6 -4 -11 -24 -11 -45 0 -42 23 -71 57 -71 23 0 53 29 53 52 0 9 14
29 31 46 67 65 109 170 109 273 1 72 8 84 111 170 69 59 103 76 159 80 47 3
128 -16 145 -35 6 -6 22 -18 37 -26 43 -25 118 -91 118 -105 0 -7 3 -15 8 -17
4 -2 27 -28 51 -58 54 -66 123 -131 173 -162 35 -22 37 -26 42 -88 17 -187 29
-281 42 -333 8 -32 14 -66 14 -74 0 -19 71 -167 82 -171 4 -2 8 -9 8 -15 0
-21 71 -119 129 -180 54 -57 121 -95 201 -117 22 -6 42 -15 45 -20 4 -6 30
-22 58 -36 29 -15 61 -34 72 -44 11 -10 67 -39 125 -65 58 -26 114 -56 125
-65 11 -10 44 -20 75 -23 30 -3 109 -12 175 -20 156 -19 470 -9 528 16 94 42
111 47 157 47 27 0 60 -5 74 -11 20 -10 30 -9 50 5 14 9 34 16 44 16 10 0 23
5 29 11 8 8 19 8 40 -1 41 -18 63 -53 70 -110 3 -28 9 -50 14 -50 13 0 83 43
96 60 7 8 13 26 13 40 0 14 7 35 15 47 12 17 22 20 57 16 83 -9 118 46 118
185 0 71 -1 75 -34 108 -19 19 -41 34 -50 34 -9 0 -18 11 -22 24 -3 13 -19 33
-34 45 -46 34 -130 81 -143 81 -7 0 -51 18 -98 41 -46 22 -113 50 -149 60 -36
11 -78 25 -95 31 -16 5 -57 16 -90 24 -33 8 -76 21 -95 28 -19 8 -43 17 -53
20 -17 5 -17 7 -1 31 27 41 43 128 56 303 9 124 9 175 0 213 -7 28 -12 117
-12 197 -1 170 -7 205 -48 267 -16 24 -42 84 -57 132 -46 149 -66 207 -78 221
-8 10 7 30 64 88 l74 74 47 -6 c41 -6 54 -3 86 19 24 16 58 27 95 31 79 9 124
29 145 66 17 30 18 30 103 30 59 0 91 4 105 15 10 8 26 15 35 15 15 0 157 102
211 152 32 30 43 96 36 226 -3 66 -11 100 -30 142 -14 30 -28 79 -31 108 -6
53 -28 96 -94 187 -18 24 -33 50 -33 57 -1 29 -39 80 -105 140 -150 136 -254
198 -334 198 -41 0 -51 4 -65 25 -15 23 -22 25 -97 25 -54 0 -81 -4 -84 -12z
m-2188 -1984 c-3 -3 -12 -4 -19 -1 -8 3 -5 6 6 6 11 1 17 -2 13 -5z"/>
<path d="M0 1111 c0 -6 4 -13 10 -16 6 -3 7 1 4 9 -7 18 -14 21 -14 7z"/>
</g>
</svg>
