<?xml version="1.0" standalone="no"?>
<!DOCTYPE svg PUBLIC "-//W3C//DTD SVG 20010904//EN"
 "http://www.w3.org/TR/2001/REC-SVG-20010904/DTD/svg10.dtd">
<svg version="1.0" xmlns="http://www.w3.org/2000/svg"
 width="98.000000pt" height="107.000000pt" viewBox="0 0 98.000000 107.000000"
 preserveAspectRatio="xMidYMid meet">
<metadata>
Created by potrace 1.13, written by Peter Selinger 2001-2015
</metadata>
<g transform="translate(0.000000,107.000000) scale(0.100000,-0.100000)"
fill="#000000" stroke="none">
<path d="M88 1035 c-10 -13 -18 -29 -18 -34 0 -6 -3 -11 -7 -11 -12 0 -53 -64
-53 -83 0 -12 9 -17 30 -17 17 0 30 -4 30 -10 0 -5 7 -10 17 -10 14 0 15 -14
10 -132 -8 -175 12 -310 51 -351 15 -16 35 -27 47 -25 22 3 95 -38 95 -53 0
-5 5 -9 11 -9 6 0 30 -20 55 -44 32 -32 44 -52 44 -74 0 -16 9 -41 20 -55 11
-14 20 -28 20 -31 0 -3 -24 -6 -52 -8 -49 -3 -53 -5 -56 -30 -2 -20 1 -28 12
-28 9 0 16 -7 16 -16 0 -18 29 -16 108 6 34 10 48 10 66 0 27 -14 66 -5 66 16
0 8 10 14 25 14 33 0 35 41 3 55 -15 6 -26 24 -32 46 -13 54 -4 69 43 69 33 0
40 4 45 25 5 19 13 25 32 25 17 0 28 7 31 20 4 16 15 20 62 22 46 2 58 7 65
25 6 11 25 28 43 37 24 11 33 22 33 40 0 14 4 28 10 31 13 8 13 42 -1 47 -6 2
-5 14 5 33 20 38 20 65 1 65 -10 0 -15 10 -15 28 0 37 -26 72 -54 72 -12 0
-33 -11 -46 -25 -14 -15 -35 -25 -51 -25 -16 0 -36 -8 -46 -18 -10 -11 -26
-22 -37 -26 -13 -4 -17 -13 -14 -31 8 -41 -22 -40 -59 1 -18 21 -33 43 -33 49
0 16 -38 48 -85 71 -22 10 -42 22 -45 25 -3 3 -23 14 -44 24 -57 27 -104 79
-136 149 -15 33 -43 77 -62 97 -20 19 -41 45 -47 57 -17 32 -80 30 -103 -3z"/>
</g>
</svg>
