<?xml version="1.0" standalone="no"?>
<!DOCTYPE svg PUBLIC "-//W3C//DTD SVG 20010904//EN"
 "http://www.w3.org/TR/2001/REC-SVG-20010904/DTD/svg10.dtd">
<svg version="1.0" xmlns="http://www.w3.org/2000/svg"
 width="408.000000pt" height="408.000000pt" viewBox="0 0 408.000000 408.000000"
 preserveAspectRatio="xMidYMid meet">
<metadata>
Created by potrace 1.13, written by Peter Selinger 2001-2015
</metadata>
<g transform="translate(0.000000,408.000000) scale(0.100000,-0.100000)"
fill="#000000" stroke="none">
<path d="M1954 3899 c-3 -5 -9 -7 -14 -4 -5 3 -11 1 -15 -5 -4 -6 -10 -8 -15
-5 -5 3 -11 1 -15 -5 -4 -6 -11 -8 -16 -5 -14 9 -82 -18 -104 -41 -16 -17 -25
-19 -44 -13 -17 7 -32 4 -55 -11 -35 -21 -41 -38 -19 -58 7 -7 13 -9 13 -5 0
4 7 -3 16 -15 8 -12 21 -22 28 -22 13 0 26 -21 26 -41 0 -13 -61 -49 -72 -43
-4 3 -8 1 -8 -4 0 -4 -8 -17 -18 -28 -39 -41 -51 -69 -46 -103 3 -20 2 -31 -4
-27 -5 3 -15 -1 -22 -9 -7 -8 -16 -12 -21 -9 -5 3 -12 -2 -15 -10 -3 -9 -13
-16 -20 -16 -8 0 -17 -7 -20 -15 -4 -8 -10 -15 -15 -15 -5 0 -21 -12 -36 -28
-16 -15 -47 -40 -70 -56 -24 -16 -43 -33 -43 -39 0 -6 -3 -8 -6 -4 -3 3 -21
-9 -39 -26 -18 -18 -56 -52 -84 -77 -28 -25 -63 -64 -79 -87 -15 -24 -30 -43
-34 -43 -4 0 -5 -7 -2 -15 4 -8 1 -15 -5 -15 -10 0 -28 -31 -36 -62 -2 -5 -4
-10 -5 -13 -1 -3 -3 -8 -4 -12 -1 -5 -7 -26 -14 -47 -6 -22 -9 -43 -6 -48 3
-4 0 -8 -7 -8 -7 0 -10 -2 -7 -6 3 -3 0 -24 -6 -47 -11 -40 -13 -162 -3 -219
2 -16 0 -28 -5 -28 -5 0 -6 -6 -1 -12 4 -7 9 -20 10 -28 2 -8 5 -27 8 -42 3
-16 7 -40 10 -55 3 -16 6 -35 8 -43 1 -8 6 -21 10 -27 5 -8 3 -13 -5 -13 -9 0
-9 -3 -2 -8 6 -4 17 -36 24 -72 7 -36 16 -69 21 -74 4 -5 5 -15 2 -22 -3 -8 0
-21 7 -29 9 -11 9 -15 1 -15 -8 0 -9 -5 -2 -19 15 -27 11 -94 -4 -81 -14 11
-65 10 -65 -2 0 -4 -9 -8 -20 -8 -20 0 -35 -11 -92 -62 -34 -31 -52 -80 -35
-97 6 -6 7 -11 1 -11 -23 0 -11 -41 18 -61 24 -17 34 -20 48 -11 10 6 21 7 26
2 6 -6 14 -2 22 10 7 12 8 20 2 20 -14 0 -13 16 3 32 7 7 17 24 23 38 6 14 26
30 43 37 27 10 32 9 42 -8 7 -15 6 -21 -6 -25 -21 -8 -19 -27 5 -49 14 -13 23
-15 33 -7 10 8 12 4 11 -21 -3 -57 -34 -114 -101 -183 -13 -13 -23 -26 -23
-29 0 -3 -11 -16 -25 -29 -14 -13 -25 -29 -25 -35 0 -7 -4 -10 -9 -7 -4 3 -16
-3 -26 -14 -14 -16 -21 -17 -43 -8 -15 7 -41 25 -58 42 -73 74 -104 88 -133
62 -18 -17 -45 -16 -63 2 -7 7 -19 12 -28 12 -9 0 -21 5 -26 10 -18 18 -40
-16 -24 -35 7 -8 9 -15 4 -15 -4 0 3 -11 16 -25 12 -13 26 -22 30 -20 4 3 13
-2 20 -10 7 -8 16 -13 20 -10 4 2 15 -4 25 -15 17 -18 16 -19 -9 -14 -36 6
-85 -21 -86 -47 0 -14 86 -52 125 -55 40 -4 80 -11 80 -14 0 -1 14 -4 30 -6
40 -4 105 -27 105 -37 0 -9 48 -52 61 -53 5 -1 11 -3 14 -4 13 -6 31 -5 41 2
14 10 7 48 -9 48 -6 0 -7 3 -4 7 4 3 2 12 -4 19 -43 52 10 133 71 107 32 -13
48 -12 63 5 15 17 15 19 -2 34 -11 9 -21 14 -24 12 -2 -2 -10 2 -17 11 -10 12
-8 21 13 47 14 18 33 41 43 50 91 85 147 144 154 164 12 31 18 30 60 -6 19
-17 52 -40 73 -52 20 -12 37 -24 37 -28 0 -7 20 -9 105 -14 33 -2 60 -4 60 -5
0 -1 15 -4 33 -5 17 -2 32 0 32 5 0 17 32 9 62 -16 16 -14 34 -23 39 -19 5 3
9 2 9 -3 0 -13 49 -32 71 -28 12 2 19 -2 19 -11 0 -8 -6 -14 -12 -14 -19 -1
16 -19 43 -24 13 -2 30 1 37 6 6 6 12 7 12 3 0 -5 9 0 20 10 15 13 20 14 20 5
0 -11 3 -11 12 -2 9 9 16 8 29 -4 15 -13 24 -14 52 -5 19 6 41 9 50 6 10 -4
30 8 56 33 23 22 41 37 41 33 1 -3 10 5 20 18 15 18 20 19 20 7 0 -9 5 -16 10
-16 6 0 10 -6 10 -14 0 -8 6 -16 13 -19 14 -4 47 30 47 49 0 13 41 10 64 -4
14 -8 218 -11 231 -2 6 3 21 7 33 8 26 1 69 45 78 80 4 12 9 22 13 22 19 0 84
74 84 95 0 14 3 22 8 19 5 -3 12 2 15 10 3 9 10 14 14 11 10 -6 60 55 60 75 0
21 20 40 42 40 10 0 18 7 18 15 0 8 4 14 9 13 5 -2 20 10 35 25 26 28 36 77
15 77 -8 0 -8 5 1 15 7 8 21 15 31 15 11 0 19 5 19 10 0 6 9 20 20 32 11 12
20 30 20 40 0 11 10 20 28 24 15 4 32 14 37 21 9 12 14 11 30 -7 22 -24 23
-30 29 -170 3 -58 11 -124 20 -148 8 -23 15 -44 16 -47 5 -35 14 -65 21 -65 5
0 9 -5 9 -11 0 -7 20 -32 44 -56 l45 -44 12 23 c7 13 12 26 11 30 -9 35 -14
91 -17 190 -2 97 0 116 12 111 7 -3 12 -8 9 -11 -3 -2 6 -13 19 -24 14 -11 23
-24 20 -29 -4 -5 -1 -9 4 -9 6 0 11 -5 11 -11 0 -13 130 -139 143 -139 19 0
36 34 26 52 -6 12 -6 18 0 18 5 0 -1 31 -14 70 -13 39 -21 70 -17 70 4 0 3 4
-3 8 -5 4 -15 16 -21 27 -36 68 -50 91 -59 97 -7 5 -7 8 0 8 6 0 -3 11 -19 25
-16 14 -25 25 -21 25 5 0 0 7 -11 15 -10 8 -15 15 -10 15 5 0 -7 13 -27 29
-20 15 -34 31 -31 34 3 3 -6 13 -20 22 -14 10 -23 22 -19 31 3 8 0 14 -6 14
-6 0 -10 3 -9 8 3 15 -35 102 -45 102 -5 0 -6 4 -3 9 3 5 -1 12 -10 15 -8 3
-12 10 -9 16 3 5 2 10 -2 10 -5 0 -19 18 -33 40 -14 22 -33 43 -42 46 -10 3
-18 11 -18 18 0 17 -41 52 -98 83 -26 14 -54 31 -62 38 -8 7 -26 16 -40 20
-14 4 -29 11 -35 15 -33 25 -122 41 -246 44 -47 1 -91 6 -97 10 -7 4 -12 3
-12 -2 0 -6 -17 -13 -37 -18 -46 -9 -40 -7 -88 -29 -22 -10 -43 -18 -47 -17
-5 1 -8 -3 -8 -10 0 -6 -3 -8 -6 -5 -6 6 -54 -17 -81 -38 -7 -5 -18 -15 -25
-20 -7 -6 -33 -25 -58 -43 -64 -45 -94 -72 -87 -78 3 -3 -2 -13 -11 -23 -32
-33 -72 -81 -70 -83 1 -2 -3 -12 -10 -23 -6 -11 -12 -16 -12 -12 0 5 -13 -1
-29 -13 -16 -11 -32 -17 -35 -12 -3 5 -15 8 -28 7 -13 -1 -35 5 -50 13 -31 18
-91 96 -81 106 3 3 1 6 -5 6 -12 0 -12 2 -16 98 -1 34 1 62 6 62 4 0 5 7 2 15
-4 8 -1 15 5 15 6 0 10 3 9 8 -1 4 6 24 15 46 9 21 17 42 17 47 0 4 6 14 13
21 13 14 41 72 35 75 -1 1 8 13 21 27 14 14 21 26 17 26 -5 0 -2 7 5 16 7 9
14 25 16 37 2 11 8 27 15 34 6 7 8 16 5 20 -4 3 -2 12 5 20 11 14 19 45 22 91
0 12 3 22 6 22 13 0 -5 186 -20 205 -4 6 -8 17 -8 25 -2 23 -11 91 -17 123 -4
23 -1 28 13 26 25 -3 112 12 112 20 0 3 15 24 34 45 l34 39 -22 21 c-12 12
-43 38 -68 59 -26 21 -47 41 -47 45 3 20 -3 30 -21 35 -11 3 -20 1 -20 -3 0
-10 -74 -5 -92 6 -19 12 -37 13 -44 3z"/>
</g>
</svg>
