<?xml version="1.0" standalone="no"?>
<!DOCTYPE svg PUBLIC "-//W3C//DTD SVG 20010904//EN"
 "http://www.w3.org/TR/2001/REC-SVG-20010904/DTD/svg10.dtd">
<svg version="1.0" xmlns="http://www.w3.org/2000/svg"
 width="331.000000pt" height="375.000000pt" viewBox="0 0 331.000000 375.000000"
 preserveAspectRatio="xMidYMid meet">
<metadata>
Created by potrace 1.13, written by Peter Selinger 2001-2015
</metadata>
<g transform="translate(0.000000,375.000000) scale(0.100000,-0.100000)"
fill="#000000" stroke="none">
<path d="M2547 3733 c-4 -3 -7 -29 -7 -56 l0 -50 -23 21 c-30 29 -68 28 -96
-2 -20 -21 -22 -33 -19 -85 3 -55 1 -61 -19 -66 -35 -8 -42 -68 -14 -119 11
-23 21 -48 21 -57 0 -20 42 -57 75 -65 14 -3 28 -10 31 -15 9 -14 -24 -67 -61
-96 -19 -15 -35 -32 -35 -38 0 -5 -16 -21 -36 -34 -33 -23 -74 -85 -74 -112 0
-6 -14 -24 -31 -40 -28 -26 -31 -34 -25 -69 4 -24 2 -40 -3 -40 -6 0 -13 -17
-17 -37 -17 -98 -86 -273 -108 -273 -8 0 -18 -9 -21 -21 -4 -11 -23 -28 -43
-36 -21 -8 -45 -22 -54 -32 -32 -30 -43 -36 -73 -37 -16 -1 -57 -11 -89 -23
-33 -11 -76 -21 -97 -21 -21 0 -49 -4 -62 -9 -27 -11 -27 -19 -7 165 13 118 1
291 -22 329 -10 16 -21 51 -24 78 -4 26 -10 47 -15 47 -5 0 -9 11 -9 24 0 14
-6 31 -14 38 -7 8 -21 40 -30 71 -10 33 -22 57 -30 57 -8 0 -16 16 -20 40 -4
26 -11 40 -21 40 -9 0 -21 12 -28 28 -14 32 -21 42 -67 91 -43 47 -163 131
-187 131 -10 0 -27 7 -37 15 -23 18 -73 20 -78 4 -3 -9 -9 -9 -25 0 -30 15
-73 14 -73 -3 0 -9 -14 -6 -53 13 -46 22 -62 25 -142 23 -96 -3 -265 -40 -348
-75 -38 -16 -47 -24 -45 -41 3 -19 12 -22 78 -27 70 -6 201 -27 207 -33 2 -2
-29 -6 -69 -9 -49 -4 -88 -15 -122 -32 -28 -14 -77 -32 -109 -40 -65 -15 -107
-38 -107 -60 0 -7 -9 -17 -20 -20 -12 -4 -33 -25 -48 -48 -15 -23 -30 -43 -34
-45 -5 -2 -8 -11 -8 -20 0 -9 -8 -25 -19 -36 -24 -27 -55 -128 -82 -272 -13
-63 -26 -114 -31 -114 -11 0 -10 -38 2 -45 13 -8 13 -55 0 -55 -5 0 -10 -9
-10 -20 0 -11 4 -20 10 -20 5 0 12 -17 15 -37 16 -98 37 -198 43 -203 9 -7 30
-61 56 -145 44 -146 202 -374 271 -391 40 -10 59 -1 69 34 8 28 6 36 -12 53
-22 20 -30 49 -13 49 5 0 14 14 20 30 6 19 17 30 29 30 21 0 22 2 43 113 l13
67 32 -31 c27 -26 38 -31 63 -26 17 4 31 5 31 4 0 -2 -9 -22 -20 -44 -47 -99
-50 -254 -6 -343 12 -25 31 -62 41 -82 10 -21 22 -38 27 -38 16 0 35 -25 49
-65 15 -44 20 -51 62 -95 32 -33 40 -35 86 -19 35 12 47 41 33 79 -12 32 -5
50 18 50 16 0 19 9 22 53 l3 52 19 -57 c13 -38 27 -60 43 -67 14 -6 23 -19 23
-33 1 -28 22 -58 42 -58 8 0 18 -4 23 -9 6 -5 21 -11 35 -13 16 -2 26 -11 30
-27 5 -20 21 -29 107 -57 56 -17 115 -41 130 -52 15 -10 49 -25 75 -32 42 -13
48 -19 68 -64 32 -78 64 -141 72 -144 4 -2 2 -11 -3 -21 -8 -12 -7 -29 5 -64
9 -26 16 -58 16 -70 0 -24 -75 -216 -91 -231 -15 -16 -10 -53 7 -60 29 -11 64
-7 64 9 0 34 65 45 107 18 18 -12 57 -20 117 -25 50 -3 106 -9 124 -13 28 -6
32 -5 32 13 0 12 -6 24 -12 29 -8 5 5 10 35 13 l47 5 -22 32 c-16 23 -53 48
-123 82 -55 26 -119 66 -143 87 l-43 39 -8 99 c-8 90 -6 106 16 176 23 75 24
76 66 87 23 6 72 8 110 6 l67 -5 0 -69 c0 -79 2 -82 133 -211 37 -36 67 -71
67 -77 0 -6 4 -11 9 -11 8 0 20 -73 24 -149 2 -37 -6 -44 -67 -58 -36 -7 -64
-33 -36 -33 6 0 18 -6 26 -14 29 -30 101 -30 229 -2 66 14 146 26 178 26 31 0
57 4 57 10 0 27 -101 90 -144 90 -29 0 -66 24 -66 43 0 4 -15 27 -34 51 -20
26 -37 63 -41 88 -4 24 -10 45 -14 48 -4 3 -17 19 -29 37 -48 68 -12 210 62
245 19 9 37 26 41 37 3 12 12 21 20 21 8 0 16 8 20 18 3 9 34 37 68 62 34 25
72 61 84 80 51 79 126 160 147 160 7 0 33 24 222 207 41 40 74 80 74 88 0 8 5
15 10 15 6 0 10 5 10 10 0 6 8 20 19 31 10 11 21 42 24 70 3 27 13 57 22 65
12 12 14 27 9 60 -3 25 -8 63 -9 87 -2 23 -9 83 -16 132 -7 50 -12 133 -10
186 1 53 -3 116 -9 140 -34 135 -42 180 -41 234 1 43 -4 71 -19 100 -11 21
-20 44 -20 49 0 5 -16 33 -36 62 -20 29 -33 57 -30 63 4 6 23 11 42 11 28 0
34 4 34 21 0 26 -65 109 -85 109 -8 0 -16 16 -20 40 -4 22 -11 42 -16 46 -5 3
-9 15 -9 28 0 25 -34 102 -58 129 -8 9 -24 17 -34 17 -16 0 -18 5 -12 35 4 25
1 43 -10 60 -9 13 -16 31 -16 39 0 16 -43 29 -70 21 -10 -3 -23 -19 -30 -35
-13 -31 -50 -42 -50 -16 0 31 -73 69 -93 49z"/>
</g>
</svg>
