<?xml version="1.0" standalone="no"?>
<!DOCTYPE svg PUBLIC "-//W3C//DTD SVG 20010904//EN"
 "http://www.w3.org/TR/2001/REC-SVG-20010904/DTD/svg10.dtd">
<svg version="1.0" xmlns="http://www.w3.org/2000/svg"
 width="347.000000pt" height="270.000000pt" viewBox="0 0 347.000000 270.000000"
 preserveAspectRatio="xMidYMid meet">
<metadata>
Created by potrace 1.13, written by Peter Selinger 2001-2015
</metadata>
<g transform="translate(0.000000,270.000000) scale(0.100000,-0.100000)"
fill="#000000" stroke="none">
<path d="M2514 2622 c-33 -37 -67 -77 -75 -89 -7 -13 -18 -23 -24 -23 -11 -1
-62 -44 -90 -78 -23 -28 -35 -96 -42 -240 -3 -77 -1 -117 7 -127 6 -7 14 -45
17 -83 l6 -70 -44 9 c-106 20 -406 -2 -519 -38 -142 -45 -225 -54 -314 -34
-59 14 -132 69 -153 115 -10 22 -36 62 -59 88 -48 56 -54 81 -54 219 0 74 -4
100 -15 109 -8 7 -15 19 -15 28 0 27 -89 122 -116 122 -16 0 -28 9 -38 29 -29
55 -45 59 -267 65 -112 2 -223 8 -247 12 -49 8 -82 -13 -82 -51 0 -13 -6 -25
-13 -28 -7 -3 -26 -24 -42 -48 -16 -24 -37 -53 -46 -64 -9 -11 -26 -56 -37
-100 -11 -44 -30 -105 -41 -135 -35 -91 -25 -140 27 -140 21 0 23 -3 17 -22
-4 -13 -9 -95 -11 -182 -4 -164 1 -186 36 -186 15 0 17 -13 16 -113 -1 -123 7
-147 49 -147 21 0 46 25 116 113 17 21 17 21 38 -14 11 -19 21 -45 21 -59 0
-43 36 -90 68 -90 31 0 89 -53 115 -105 19 -39 114 -135 132 -135 8 0 18 -12
21 -27 12 -51 33 -81 65 -92 17 -6 33 -20 36 -31 3 -11 11 -20 18 -20 7 0 28
-15 47 -33 73 -68 117 -105 121 -101 2 2 48 -16 103 -40 55 -23 123 -49 152
-56 41 -9 52 -16 47 -29 -2 -9 -9 -38 -14 -64 -11 -61 -31 -83 -95 -101 -58
-17 -96 -47 -96 -76 0 -22 29 -27 47 -9 8 8 13 8 17 0 10 -16 51 -14 65 3 10
12 16 10 36 -10 13 -13 31 -24 39 -24 8 0 18 -9 21 -20 16 -51 46 -67 135 -74
l85 -7 23 30 c32 43 30 79 -5 84 l-28 4 28 2 c20 1 27 6 27 21 0 30 -31 40
-124 40 -80 0 -85 1 -88 23 -2 12 0 38 5 57 5 19 11 46 13 60 15 76 9 70 77
69 57 0 64 -3 86 -31 17 -20 27 -51 33 -92 4 -33 17 -91 29 -127 16 -53 18
-71 10 -88 -8 -15 -8 -21 -1 -21 17 0 -8 -40 -47 -74 -18 -16 -33 -38 -33 -49
0 -17 7 -18 67 -15 47 2 68 -1 70 -10 3 -6 18 -12 35 -12 19 0 52 -14 85 -36
82 -55 134 -74 176 -67 20 3 37 10 37 14 0 5 9 9 20 9 13 0 20 7 20 20 0 15
-7 20 -29 20 -17 0 -33 4 -36 10 -9 14 22 12 80 -5 54 -17 105 -6 105 21 0 8
10 14 25 14 31 0 35 34 6 50 -24 13 -94 13 -106 1 -13 -13 -96 9 -92 24 2 5
16 11 31 13 21 3 27 8 24 25 -3 19 -9 22 -48 21 -44 0 -132 -15 -177 -29 -20
-6 -23 -4 -23 20 0 19 -12 39 -36 62 -42 40 -104 194 -111 280 -4 46 -2 53 20
67 38 25 151 46 272 51 121 5 192 18 245 46 19 10 53 23 75 30 22 7 49 18 60
25 11 6 34 15 51 19 17 3 40 14 51 24 11 11 33 26 49 34 57 30 165 150 212
237 68 127 98 310 69 425 -27 103 -40 226 -38 343 3 128 -13 250 -40 304 -21
41 -23 48 -11 48 4 0 12 -10 17 -22 11 -26 49 -35 71 -18 19 16 18 54 -2 71
-14 12 -12 15 17 25 19 7 56 13 82 13 l48 1 -3 33 c-3 28 -14 39 -88 89 -47
32 -91 57 -97 58 -21 0 -15 16 12 34 15 10 25 26 25 40 0 42 -21 49 -136 44
-57 -3 -107 -1 -110 4 -3 4 -24 8 -47 8 -39 0 -46 -5 -103 -68z m-1451 -572
c3 -11 1 -18 -4 -14 -5 3 -9 12 -9 20 0 20 7 17 13 -6z m-696 -112 c-3 -8 -6
-5 -6 6 -1 11 2 17 5 13 3 -3 4 -12 1 -19z m30 -315 c-3 -10 -5 -4 -5 12 0 17
2 24 5 18 2 -7 2 -21 0 -30z"/>
</g>
</svg>
