<?xml version="1.0" standalone="no"?>
<!DOCTYPE svg PUBLIC "-//W3C//DTD SVG 20010904//EN"
 "http://www.w3.org/TR/2001/REC-SVG-20010904/DTD/svg10.dtd">
<svg version="1.0" xmlns="http://www.w3.org/2000/svg"
 width="412.000000pt" height="396.000000pt" viewBox="0 0 412.000000 396.000000"
 preserveAspectRatio="xMidYMid meet">
<metadata>
Created by potrace 1.13, written by Peter Selinger 2001-2015
</metadata>
<g transform="translate(0.000000,396.000000) scale(0.100000,-0.100000)"
fill="#000000" stroke="none">
<path d="M2470 3931 c-25 -15 -64 -49 -87 -74 -54 -59 -58 -103 -14 -148 16
-16 39 -29 50 -29 16 0 21 -6 21 -28 0 -16 7 -37 15 -48 8 -10 15 -28 15 -40
0 -11 6 -29 14 -40 10 -13 13 -33 9 -62 -5 -35 -2 -49 16 -73 l22 -29 -93 0
c-135 -1 -263 -36 -290 -79 -8 -14 -23 -21 -43 -21 -56 0 -142 -27 -209 -63
-37 -21 -71 -37 -77 -37 -19 0 -153 -131 -179 -175 -14 -24 -37 -60 -51 -81
-30 -45 -46 -107 -55 -216 -5 -64 -9 -78 -23 -78 -22 0 -103 -85 -127 -134
-47 -95 -49 -97 -101 -115 -28 -9 -68 -15 -91 -13 -34 3 -51 -2 -89 -27 -25
-17 -51 -31 -56 -31 -6 0 -24 -10 -41 -23 -17 -12 -51 -31 -76 -42 -25 -10
-61 -31 -80 -46 -31 -24 -111 -64 -114 -57 -1 2 -7 13 -13 25 -7 13 -13 29
-13 36 0 18 -32 47 -52 47 -8 0 -23 9 -33 20 -37 41 -95 12 -95 -48 0 -21 10
-40 31 -62 28 -28 31 -36 26 -76 -3 -27 -13 -55 -26 -68 -11 -12 -24 -37 -28
-56 -3 -19 -17 -43 -30 -53 -13 -10 -23 -29 -23 -41 0 -45 63 -74 90 -41 7 8
23 15 36 15 27 0 94 76 94 108 0 19 68 74 138 111 15 8 40 25 56 38 20 16 37
23 51 19 14 -4 28 0 35 9 7 8 18 15 25 15 7 0 18 7 25 15 10 12 28 15 77 12
44 -2 67 1 74 10 13 15 55 18 63 4 3 -5 16 -7 29 -5 12 2 16 2 10 -2 -18 -8
-16 -40 4 -72 17 -26 17 -26 0 -13 -15 12 -22 12 -42 1 -13 -7 -35 -10 -48 -6
-16 4 -29 1 -37 -9 -7 -9 -27 -14 -51 -13 -25 1 -46 -5 -59 -17 -13 -12 -28
-16 -49 -12 -19 4 -33 1 -41 -8 -7 -8 -19 -15 -27 -15 -8 0 -24 -11 -34 -24
-12 -15 -32 -26 -52 -28 -25 -2 -36 -11 -51 -38 -30 -56 -119 -126 -168 -134
-24 -4 -50 -14 -60 -23 -19 -17 -24 -53 -9 -69 4 -5 11 -21 14 -35 5 -21 -1
-33 -33 -64 -42 -41 -51 -74 -25 -95 8 -7 15 -24 15 -39 0 -15 5 -32 11 -38 8
-8 8 -13 0 -17 -6 -4 -11 -24 -11 -45 0 -42 23 -71 57 -71 23 0 53 29 53 52 0
9 14 29 31 46 67 65 109 170 109 273 1 72 8 84 111 170 69 59 103 76 159 80
47 3 128 -16 145 -35 6 -6 22 -18 37 -26 43 -25 118 -91 118 -105 0 -7 3 -15
8 -17 4 -1 27 -28 51 -58 54 -66 123 -131 173 -162 35 -22 37 -26 42 -88 17
-187 29 -281 42 -333 8 -32 14 -66 14 -74 0 -19 71 -167 82 -171 4 -2 8 -9 8
-15 0 -21 71 -119 129 -180 54 -57 121 -95 201 -117 22 -6 42 -15 45 -20 4 -6
30 -22 58 -36 29 -15 61 -34 72 -44 11 -10 67 -39 125 -65 58 -26 114 -56 125
-65 11 -10 44 -20 75 -23 30 -3 109 -12 175 -20 156 -19 470 -9 528 16 94 42
111 47 157 47 27 0 60 -5 74 -11 20 -10 30 -9 50 5 14 9 34 16 44 16 10 0 23
5 29 11 8 8 19 8 40 -1 41 -18 63 -53 70 -110 3 -28 9 -50 14 -50 13 0 83 43
96 60 7 8 13 26 13 40 0 14 7 35 15 47 12 17 22 20 57 16 83 -9 118 46 118
185 0 71 -1 75 -34 108 -19 19 -41 34 -50 34 -9 0 -18 11 -22 24 -3 13 -19 33
-34 45 -46 34 -130 81 -143 81 -7 0 -51 18 -98 41 -46 22 -113 50 -149 60 -36
11 -78 25 -95 31 -16 5 -61 18 -100 28 -100 26 -148 46 -152 61 -13 54 -13 82
1 142 20 83 23 416 5 450 -7 11 -24 73 -40 136 -15 64 -41 156 -58 204 -17 48
-31 93 -31 98 0 6 -9 22 -19 35 -11 14 -23 44 -26 67 -5 25 -20 56 -37 76 -28
31 -30 39 -24 84 4 35 18 70 48 116 24 36 50 79 58 95 8 17 30 39 48 49 62 37
332 84 549 96 68 4 117 11 125 19 6 6 19 12 28 12 16 0 156 101 212 152 32 30
43 96 36 226 -3 66 -11 100 -30 142 -14 30 -28 79 -32 109 -5 53 -13 68 -88
179 l-29 42 20 26 c39 50 23 107 -53 197 -39 45 -63 64 -158 124 -24 14 -55
34 -70 45 -26 17 -59 18 -575 18 l-548 0 -45 -29z m-1453 -1967 c-3 -3 -12 -4
-19 -1 -8 3 -5 6 6 6 11 1 17 -2 13 -5z"/>
<path d="M0 1111 c0 -6 4 -13 10 -16 6 -3 7 1 4 9 -7 18 -14 21 -14 7z"/>
</g>
</svg>
