<?xml version="1.0" standalone="no"?>
<!DOCTYPE svg PUBLIC "-//W3C//DTD SVG 20010904//EN"
 "http://www.w3.org/TR/2001/REC-SVG-20010904/DTD/svg10.dtd">
<svg version="1.0" xmlns="http://www.w3.org/2000/svg"
 width="135.000000pt" height="123.000000pt" viewBox="0 0 135.000000 123.000000"
 preserveAspectRatio="xMidYMid meet">
<metadata>
Created by potrace 1.13, written by Peter Selinger 2001-2015
</metadata>
<g transform="translate(0.000000,123.000000) scale(0.100000,-0.100000)"
fill="#000000" stroke="none">
<path d="M898 1213 c-28 -4 -36 -20 -36 -68 0 -39 -20 -95 -51 -141 -17 -26
-31 -57 -31 -69 0 -22 -3 -26 -82 -95 -26 -23 -50 -50 -53 -61 -11 -34 -52
-24 -74 19 -30 55 -52 78 -94 97 -50 23 -122 14 -185 -25 -26 -16 -61 -36 -79
-44 -49 -23 -83 -81 -83 -144 0 -66 42 -154 96 -202 36 -31 40 -32 93 -25 115
15 130 13 137 -18 4 -18 12 -27 25 -27 11 0 21 -9 25 -24 4 -19 14 -25 51 -30
25 -3 60 -6 77 -6 24 0 36 -7 49 -29 22 -38 22 -61 -1 -61 -11 0 -27 -9 -37
-20 -17 -19 -17 -19 34 -13 44 5 57 2 83 -17 21 -15 33 -19 40 -12 14 14 3 41
-19 49 -40 15 -56 58 -34 92 14 21 124 26 141 6 11 -13 10 -20 -8 -45 -29 -39
-28 -50 7 -50 17 0 33 -4 36 -10 3 -5 14 -10 23 -10 9 0 30 -7 46 -15 15 -8
40 -15 53 -15 21 0 23 2 13 15 -6 8 -31 26 -55 40 -25 14 -48 33 -53 42 -11
19 16 91 47 125 44 47 72 98 88 159 9 35 22 73 29 84 7 11 16 49 20 85 6 60 4
72 -25 133 -17 36 -31 69 -31 72 0 4 -6 12 -13 20 -8 7 -12 27 -9 48 3 27 9
37 26 39 30 4 36 57 7 65 -12 3 -21 13 -21 23 0 35 -32 58 -90 63 -30 2 -67 2
-82 0z"/>
</g>
</svg>
