<?xml version="1.0" standalone="no"?>
<!DOCTYPE svg PUBLIC "-//W3C//DTD SVG 20010904//EN"
 "http://www.w3.org/TR/2001/REC-SVG-20010904/DTD/svg10.dtd">
<svg version="1.0" xmlns="http://www.w3.org/2000/svg"
 width="396.000000pt" height="412.000000pt" viewBox="0 0 396.000000 412.000000"
 preserveAspectRatio="xMidYMid meet">
<metadata>
Created by potrace 1.13, written by Peter Selinger 2001-2015
</metadata>
<g transform="translate(0.000000,412.000000) scale(0.100000,-0.100000)"
fill="#000000" stroke="none">
<path d="M771 4060 c-29 -11 -58 -23 -65 -28 -6 -5 -37 -12 -69 -15 -58 -6
-97 -25 -192 -94 -24 -18 -50 -33 -57 -33 -29 -1 -80 -39 -140 -105 -136 -150
-198 -254 -198 -334 0 -41 -4 -51 -25 -65 -23 -15 -25 -22 -25 -97 0 -54 4
-81 13 -84 9 -4 12 -39 12 -129 0 -140 12 -172 73 -191 29 -8 32 -13 32 -48 0
-29 7 -46 29 -68 57 -57 141 -28 162 56 9 37 14 42 28 33 9 -5 25 -31 35 -57
10 -25 22 -56 26 -68 12 -30 97 -83 133 -83 16 0 37 5 48 11 20 10 20 9 13
-140 -5 -110 -3 -168 6 -213 17 -83 44 -144 69 -160 14 -8 21 -23 21 -43 0
-56 27 -142 63 -209 21 -37 37 -71 37 -77 0 -19 131 -153 175 -179 24 -14 60
-37 81 -51 45 -30 107 -46 217 -55 63 -5 77 -9 77 -23 0 -22 85 -103 134 -127
95 -47 97 -49 115 -101 9 -28 15 -68 13 -91 -3 -34 2 -51 27 -89 17 -25 31
-51 31 -56 0 -6 10 -24 23 -41 12 -17 31 -51 42 -76 10 -25 31 -61 46 -80 24
-31 64 -111 57 -114 -2 -1 -13 -7 -25 -13 -13 -7 -29 -13 -36 -13 -18 0 -47
-32 -47 -52 0 -8 -9 -23 -20 -33 -25 -23 -26 -57 -2 -78 14 -13 39 -17 110
-17 84 0 92 2 110 25 19 24 20 24 37 5 10 -11 34 -23 54 -26 19 -4 44 -18 54
-31 10 -12 29 -23 41 -23 45 0 74 63 41 90 -8 7 -15 23 -15 36 0 27 -76 94
-108 94 -19 0 -74 68 -111 138 -8 15 -25 40 -38 56 -16 20 -23 37 -19 51 4 14
0 28 -9 35 -8 7 -15 18 -15 25 0 7 -7 18 -15 25 -12 10 -15 28 -12 77 2 44 -1
67 -10 74 -15 13 -18 55 -4 63 5 3 7 16 5 29 -2 12 -2 16 2 10 8 -18 40 -16
72 4 26 17 26 17 13 0 -12 -15 -12 -22 -1 -42 7 -13 10 -35 6 -48 -4 -16 -1
-29 9 -37 9 -7 14 -27 13 -51 -1 -25 5 -46 17 -59 12 -13 16 -28 12 -49 -4
-19 -1 -33 8 -41 8 -7 15 -19 15 -27 0 -8 11 -24 24 -34 15 -12 26 -32 28 -52
2 -25 11 -36 38 -51 56 -30 126 -119 134 -168 4 -24 14 -50 23 -60 17 -19 53
-24 69 -9 5 4 21 11 35 14 21 5 33 -1 64 -33 41 -42 74 -51 95 -25 7 8 24 15
39 15 15 0 32 5 38 11 8 8 13 8 17 0 4 -6 24 -11 45 -11 42 0 71 23 71 57 0
23 -29 53 -52 53 -9 0 -29 14 -46 31 -65 67 -170 109 -273 109 -72 1 -84 8
-170 111 -59 69 -76 103 -80 159 -3 47 16 128 35 145 6 6 18 22 26 37 25 43
91 118 105 118 7 0 15 3 17 8 2 4 28 27 58 51 66 54 131 123 162 173 22 35 26
37 88 42 187 17 281 29 333 42 32 8 66 14 74 14 19 0 167 71 171 82 2 4 9 8
15 8 21 0 119 71 180 129 57 54 95 121 117 201 6 22 15 42 20 45 6 4 22 30 36
58 15 29 34 61 44 72 10 11 39 67 65 125 26 58 56 114 65 125 10 11 20 44 23
75 3 30 12 109 20 175 19 156 9 470 -16 528 -42 94 -47 111 -47 157 0 27 5 60
11 74 10 20 9 30 -5 50 -9 14 -16 34 -16 44 0 10 -5 23 -11 29 -8 8 -8 19 1
40 18 41 53 63 110 70 28 3 50 9 50 14 0 13 -43 83 -60 96 -8 7 -26 13 -40 13
-14 0 -35 7 -47 15 -17 12 -20 22 -16 57 9 83 -46 118 -186 118 -70 0 -74 -1
-107 -34 -19 -19 -34 -41 -34 -50 0 -9 -11 -18 -24 -22 -13 -3 -33 -19 -45
-34 -34 -46 -81 -130 -81 -143 0 -7 -18 -51 -41 -98 -22 -46 -50 -113 -60
-149 -11 -36 -25 -78 -31 -95 -5 -16 -16 -57 -24 -90 -8 -33 -21 -76 -28 -95
-8 -19 -17 -43 -20 -53 -5 -17 -7 -17 -31 -1 -41 27 -128 43 -303 56 -124 9
-175 9 -213 0 -28 -7 -117 -12 -197 -12 -170 -1 -205 -7 -267 -48 -24 -16 -84
-42 -132 -57 -149 -46 -207 -66 -221 -78 -10 -8 -30 7 -88 64 l-74 74 6 47 c6
41 3 54 -19 86 -16 24 -27 58 -31 95 -9 79 -29 124 -66 145 -30 17 -30 18 -30
103 0 59 -4 91 -15 105 -8 10 -15 26 -15 35 0 13 -55 90 -147 207 -24 30 -77
42 -193 41 -68 0 -110 -5 -149 -19z m1226 -3062 c-3 -8 -6 -5 -6 6 -1 11 2 17
5 13 3 -3 4 -12 1 -19z"/>
<path d="M2850 10 c-9 -6 -10 -10 -3 -10 6 0 15 5 18 10 8 12 4 12 -15 0z"/>
</g>
</svg>
