<?xml version="1.0" standalone="no"?>
<!DOCTYPE svg PUBLIC "-//W3C//DTD SVG 20010904//EN"
 "http://www.w3.org/TR/2001/REC-SVG-20010904/DTD/svg10.dtd">
<svg version="1.0" xmlns="http://www.w3.org/2000/svg"
 width="352.000000pt" height="240.000000pt" viewBox="0 0 352.000000 240.000000"
 preserveAspectRatio="xMidYMid meet">
<metadata>
Created by potrace 1.13, written by Peter Selinger 2001-2015
</metadata>
<g transform="translate(0.000000,240.000000) scale(0.100000,-0.100000)"
fill="#000000" stroke="none">
<path d="M520 1853 c-68 -35 -100 -79 -100 -140 0 -51 21 -97 61 -135 42 -39
38 -70 -12 -110 -60 -48 -82 -97 -75 -167 10 -109 24 -197 40 -246 9 -27 16
-72 16 -100 0 -27 5 -68 11 -90 6 -22 14 -57 18 -78 6 -25 22 -50 45 -72 42
-38 45 -63 16 -126 -25 -56 -25 -96 0 -161 18 -47 19 -59 8 -101 -9 -34 -9
-53 -2 -65 29 -46 217 -66 319 -34 66 22 86 41 66 66 -8 9 -21 16 -31 16 -9 0
-38 16 -65 36 -36 28 -46 41 -42 58 3 11 14 62 24 111 11 50 25 101 32 114 8
15 11 40 7 67 -5 40 -3 45 26 68 23 17 32 32 30 49 -1 16 9 33 28 51 17 15 30
36 30 49 0 13 -21 84 -46 158 -31 89 -48 154 -49 194 -4 74 -26 156 -53 190
-19 24 -19 28 -5 73 8 26 17 87 19 136 l4 90 -49 47 c-50 48 -85 63 -172 75
-36 4 -54 0 -99 -23z"/>
</g>
</svg>
