<?xml version="1.0" standalone="no"?>
<!DOCTYPE svg PUBLIC "-//W3C//DTD SVG 20010904//EN"
 "http://www.w3.org/TR/2001/REC-SVG-20010904/DTD/svg10.dtd">
<svg version="1.0" xmlns="http://www.w3.org/2000/svg"
 width="352.000000pt" height="240.000000pt" viewBox="0 0 352.000000 240.000000"
 preserveAspectRatio="xMidYMid meet">
<metadata>
Created by potrace 1.13, written by Peter Selinger 2001-2015
</metadata>
<g transform="translate(0.000000,240.000000) scale(0.100000,-0.100000)"
fill="#000000" stroke="none">
<path d="M498 1841 c-26 -17 -54 -43 -62 -60 -32 -61 -15 -152 38 -200 39 -36
36 -84 -8 -125 -18 -17 -43 -50 -55 -74 l-22 -43 21 -68 c11 -37 20 -90 20
-116 0 -27 8 -74 19 -104 10 -31 24 -90 30 -132 15 -99 43 -175 75 -204 38
-35 41 -64 12 -120 -29 -53 -32 -84 -14 -152 8 -36 8 -60 -2 -110 -15 -78 -9
-87 71 -108 83 -22 195 -20 226 5 14 11 36 20 48 20 12 0 28 7 36 16 19 24 0
47 -53 62 -24 6 -56 25 -71 40 l-26 27 19 64 c11 34 20 76 20 92 0 17 9 47 20
69 11 22 20 59 20 84 0 43 3 48 41 72 35 22 40 29 35 50 -5 17 0 33 14 51 11
14 20 32 20 40 0 17 -83 262 -99 291 -6 11 -10 39 -9 63 2 71 -17 145 -45 179
l-26 31 18 52 c25 73 28 198 4 237 -36 61 -121 99 -224 100 -33 0 -57 -8 -91
-29z"/>
</g>
</svg>
