<?xml version="1.0" standalone="no"?>
<!DOCTYPE svg PUBLIC "-//W3C//DTD SVG 20010904//EN"
 "http://www.w3.org/TR/2001/REC-SVG-20010904/DTD/svg10.dtd">
<svg version="1.0" xmlns="http://www.w3.org/2000/svg"
 width="352.000000pt" height="240.000000pt" viewBox="0 0 352.000000 240.000000"
 preserveAspectRatio="xMidYMid meet">
<metadata>
Created by potrace 1.13, written by Peter Selinger 2001-2015
</metadata>
<g transform="translate(0.000000,240.000000) scale(0.100000,-0.100000)"
fill="#000000" stroke="none">
<path d="M482 1840 c-92 -66 -97 -156 -16 -256 44 -54 41 -79 -16 -124 -57
-45 -83 -100 -77 -159 3 -25 10 -89 16 -141 6 -52 19 -126 31 -165 11 -38 20
-88 20 -110 0 -22 7 -49 15 -59 8 -11 15 -31 15 -44 0 -16 14 -37 40 -61 47
-43 51 -70 18 -148 l-22 -53 26 -77 c19 -56 24 -83 17 -101 -13 -35 -11 -78 5
-92 42 -34 257 -55 284 -28 7 7 31 21 55 33 23 11 42 26 42 34 0 14 -41 41
-110 75 -45 21 -46 24 -24 79 11 29 25 76 31 107 5 30 16 66 23 80 9 17 11 42
8 69 -5 36 -2 46 22 71 19 20 25 34 21 48 -5 15 2 29 24 52 16 17 30 32 30 34
0 16 -81 270 -95 296 -13 25 -15 38 -6 56 13 30 -15 146 -46 190 -21 30 -22
34 -9 80 8 27 17 89 21 137 l7 88 -49 48 c-55 56 -96 71 -194 71 -57 0 -71 -4
-107 -30z"/>
</g>
</svg>
