<?xml version="1.0" standalone="no"?>
<!DOCTYPE svg PUBLIC "-//W3C//DTD SVG 20010904//EN"
 "http://www.w3.org/TR/2001/REC-SVG-20010904/DTD/svg10.dtd">
<svg version="1.0" xmlns="http://www.w3.org/2000/svg"
 width="352.000000pt" height="240.000000pt" viewBox="0 0 352.000000 240.000000"
 preserveAspectRatio="xMidYMid meet">
<metadata>
Created by potrace 1.13, written by Peter Selinger 2001-2015
</metadata>
<g transform="translate(0.000000,240.000000) scale(0.100000,-0.100000)"
fill="#000000" stroke="none">
<path d="M530 1854 c-62 -35 -77 -51 -91 -91 -19 -59 -4 -117 47 -174 24 -27
44 -57 44 -66 0 -9 -20 -35 -44 -57 -64 -60 -87 -111 -75 -165 5 -24 16 -55
23 -70 15 -29 26 -129 29 -271 2 -52 8 -105 15 -117 7 -12 12 -33 12 -48 0
-16 15 -42 40 -69 46 -50 49 -73 19 -141 -17 -39 -20 -59 -15 -103 4 -30 11
-63 17 -73 7 -14 6 -38 -2 -80 -14 -73 -8 -83 72 -104 74 -20 172 -18 244 4
71 22 87 41 61 70 -11 12 -25 21 -33 21 -16 0 -100 47 -108 60 -3 4 2 26 10
49 7 22 17 69 21 103 4 35 13 77 21 95 7 18 13 49 13 70 0 46 6 56 45 74 21
10 30 22 31 40 1 34 11 49 32 49 9 0 28 6 42 13 19 10 25 21 26 52 1 34 -4 46
-36 80 -49 51 -110 201 -108 265 2 68 -16 142 -42 178 -23 31 -23 35 -11 80
21 74 24 207 6 242 -21 41 -90 85 -153 99 -77 16 -102 14 -152 -15z"/>
</g>
</svg>
