<?xml version="1.0" standalone="no"?>
<!DOCTYPE svg PUBLIC "-//W3C//DTD SVG 20010904//EN"
 "http://www.w3.org/TR/2001/REC-SVG-20010904/DTD/svg10.dtd">
<svg version="1.0" xmlns="http://www.w3.org/2000/svg"
 width="352.000000pt" height="240.000000pt" viewBox="0 0 352.000000 240.000000"
 preserveAspectRatio="xMidYMid meet">
<metadata>
Created by potrace 1.13, written by Peter Selinger 2001-2015
</metadata>
<g transform="translate(0.000000,240.000000) scale(0.100000,-0.100000)"
fill="#000000" stroke="none">
<path d="M519 1852 c-68 -44 -89 -76 -89 -134 0 -55 24 -110 64 -147 37 -35
33 -64 -14 -103 -76 -61 -95 -127 -65 -224 8 -27 15 -64 15 -82 0 -19 7 -59
16 -89 9 -30 14 -64 11 -75 -3 -11 -2 -45 4 -76 21 -134 30 -160 65 -197 40
-43 42 -67 12 -151 l-22 -61 21 -67 c19 -59 20 -73 10 -121 -10 -49 -9 -57 6
-72 40 -41 214 -56 302 -27 28 9 56 18 63 20 33 9 19 64 -16 64 -8 0 -39 16
-67 35 l-53 35 19 72 c10 39 19 88 19 107 1 20 7 47 15 61 8 14 15 45 15 70 0
51 4 59 43 83 17 11 27 26 27 42 0 23 23 55 40 55 18 0 40 33 40 59 0 16 -9
39 -19 53 -11 13 -32 56 -46 94 -15 38 -35 89 -46 112 -13 28 -18 55 -14 75 8
47 -20 165 -45 192 -21 22 -21 25 -7 77 8 29 18 86 21 127 6 67 4 78 -19 117
-32 54 -103 91 -195 99 -60 6 -68 4 -111 -23z"/>
</g>
</svg>
