<?xml version="1.0" standalone="no"?>
<!DOCTYPE svg PUBLIC "-//W3C//DTD SVG 20010904//EN"
 "http://www.w3.org/TR/2001/REC-SVG-20010904/DTD/svg10.dtd">
<svg version="1.0" xmlns="http://www.w3.org/2000/svg"
 width="352.000000pt" height="240.000000pt" viewBox="0 0 352.000000 240.000000"
 preserveAspectRatio="xMidYMid meet">
<metadata>
Created by potrace 1.13, written by Peter Selinger 2001-2015
</metadata>
<g transform="translate(0.000000,240.000000) scale(0.100000,-0.100000)"
fill="#000000" stroke="none">
<path d="M495 1847 c-104 -59 -114 -171 -24 -275 16 -18 29 -41 29 -52 0 -10
-20 -35 -45 -55 -73 -60 -88 -94 -81 -173 4 -37 8 -103 10 -147 1 -44 13 -115
25 -157 13 -47 19 -87 15 -103 -5 -19 -1 -35 13 -53 11 -15 23 -39 26 -54 4
-15 25 -42 47 -59 45 -37 52 -72 25 -136 -20 -48 -19 -89 5 -157 17 -49 18
-64 8 -107 -10 -42 -9 -52 4 -65 22 -22 114 -44 191 -44 57 0 76 5 121 30 30
17 57 38 60 46 6 17 -27 54 -49 54 -22 0 -83 32 -89 46 -3 7 6 43 19 81 14 37
25 81 25 96 0 15 7 42 16 59 11 22 14 43 9 76 -6 41 -4 47 24 72 21 20 28 34
24 48 -3 13 3 32 16 48 31 39 30 48 -27 250 -11 40 -25 81 -31 92 -6 11 -8 34
-5 51 9 45 -15 151 -44 188 -24 32 -24 33 -8 80 10 30 16 81 16 141 l0 95 -44
42 c-70 67 -201 87 -281 42z"/>
</g>
</svg>
