<?xml version="1.0" standalone="no"?>
<!DOCTYPE svg PUBLIC "-//W3C//DTD SVG 20010904//EN"
 "http://www.w3.org/TR/2001/REC-SVG-20010904/DTD/svg10.dtd">
<svg version="1.0" xmlns="http://www.w3.org/2000/svg"
 width="352.000000pt" height="240.000000pt" viewBox="0 0 352.000000 240.000000"
 preserveAspectRatio="xMidYMid meet">
<metadata>
Created by potrace 1.13, written by Peter Selinger 2001-2015
</metadata>
<g transform="translate(0.000000,240.000000) scale(0.100000,-0.100000)"
fill="#000000" stroke="none">
<path d="M488 1841 c-26 -16 -54 -43 -62 -60 -32 -61 -10 -157 48 -210 38 -36
34 -67 -18 -115 -61 -57 -79 -96 -72 -160 17 -162 25 -216 39 -261 9 -27 18
-72 22 -100 14 -109 37 -174 77 -215 44 -46 46 -63 16 -147 l-22 -62 22 -69
c20 -62 21 -75 10 -121 -10 -44 -9 -54 4 -67 40 -40 253 -61 289 -28 10 9 33
19 50 23 44 9 59 34 35 60 -11 12 -25 21 -33 21 -19 0 -87 35 -101 52 -12 14
6 78 61 226 14 38 17 65 13 95 -6 38 -3 46 19 67 19 17 24 31 20 47 -4 16 3
31 25 53 16 17 30 36 30 42 0 14 -56 199 -78 258 -9 25 -17 70 -17 100 -2 85
-20 148 -50 180 l-27 29 16 47 c10 29 16 81 16 134 0 74 -4 92 -23 121 -32 49
-103 81 -191 86 -66 4 -74 2 -118 -26z"/>
</g>
</svg>
