<?xml version="1.0" standalone="no"?>
<!DOCTYPE svg PUBLIC "-//W3C//DTD SVG 20010904//EN"
 "http://www.w3.org/TR/2001/REC-SVG-20010904/DTD/svg10.dtd">
<svg version="1.0" xmlns="http://www.w3.org/2000/svg"
 width="352.000000pt" height="240.000000pt" viewBox="0 0 352.000000 240.000000"
 preserveAspectRatio="xMidYMid meet">
<metadata>
Created by potrace 1.13, written by Peter Selinger 2001-2015
</metadata>
<g transform="translate(0.000000,240.000000) scale(0.100000,-0.100000)"
fill="#000000" stroke="none">
<path d="M544 1856 c-72 -34 -104 -75 -104 -137 0 -56 24 -111 64 -148 38 -36
33 -63 -23 -125 -71 -79 -75 -87 -57 -147 9 -28 24 -65 34 -82 27 -45 36 -158
17 -205 -18 -41 -13 -103 16 -203 15 -53 26 -72 54 -93 44 -34 46 -70 9 -150
-25 -55 -25 -56 -9 -113 14 -49 15 -65 4 -120 -15 -77 -9 -87 72 -108 107 -29
285 -7 313 38 12 19 -17 57 -44 57 -9 0 -37 16 -62 35 l-46 34 19 68 c11 37
19 82 19 99 0 17 7 48 15 67 8 20 15 55 15 77 0 36 4 43 35 61 19 12 40 33 47
47 8 15 26 29 43 34 17 4 41 17 54 27 21 16 23 23 14 43 -8 18 -6 29 6 47 11
18 12 26 4 28 -7 3 -27 14 -44 26 -43 29 -108 182 -120 282 -10 89 -21 126
-49 163 -22 29 -22 33 -8 79 8 26 16 88 17 137 l2 88 -40 38 c-40 38 -100 63
-176 74 -30 4 -53 -1 -91 -18z"/>
</g>
</svg>
