<?xml version="1.0" standalone="no"?>
<!DOCTYPE svg PUBLIC "-//W3C//DTD SVG 20010904//EN"
 "http://www.w3.org/TR/2001/REC-SVG-20010904/DTD/svg10.dtd">
<svg version="1.0" xmlns="http://www.w3.org/2000/svg"
 width="352.000000pt" height="288.000000pt" viewBox="0 0 352.000000 288.000000"
 preserveAspectRatio="xMidYMid meet">
<metadata>
Created by potrace 1.13, written by Peter Selinger 2001-2015
</metadata>
<g transform="translate(0.000000,288.000000) scale(0.100000,-0.100000)"
fill="#000000" stroke="none">
<path d="M1695 2094 c-33 -14 -66 -33 -72 -41 -20 -25 3 -43 53 -43 43 0 44
-1 44 -33 0 -18 -5 -38 -11 -44 -8 -8 -4 -16 15 -29 21 -13 26 -24 24 -48 -3
-29 -7 -32 -63 -48 -35 -9 -99 -17 -154 -17 -116 -1 -139 -11 -271 -119 -85
-69 -99 -85 -132 -152 -47 -94 -68 -194 -68 -315 0 -138 0 -138 149 -185 69
-22 131 -40 138 -40 21 0 17 -93 -5 -113 -29 -26 -100 -47 -161 -47 -62 0 -73
5 -90 38 -16 31 -38 28 -57 -9 -14 -28 -14 -33 0 -47 35 -35 242 -43 331 -12
42 14 85 20 154 20 119 0 225 15 271 38 31 15 35 22 38 62 2 24 9 48 15 52 7
4 39 8 72 8 58 0 123 9 230 30 28 5 91 14 140 20 122 14 148 22 165 52 11 21
12 31 3 50 -7 13 -15 34 -19 48 -10 39 -24 50 -50 44 -23 -6 -24 -4 -24 37 0
39 4 47 37 69 94 63 156 97 328 174 164 74 174 83 131 111 -24 16 -29 16 -83
-3 -51 -18 -89 -21 -294 -23 -198 -2 -241 0 -260 12 -28 19 -18 39 21 39 36 0
60 24 60 60 0 41 -24 60 -76 60 -42 0 -44 1 -44 29 0 48 -19 55 -148 53 -65
-2 -131 -5 -149 -8 -28 -5 -33 -2 -48 26 -14 27 -15 34 -3 41 7 5 16 9 20 9 4
0 10 9 13 20 9 29 -13 53 -42 45 -18 -4 -23 -1 -23 15 0 12 4 18 10 15 6 -4
22 1 35 9 19 13 25 25 25 54 0 21 -5 43 -12 50 -20 20 -99 13 -163 -14z"/>
</g>
</svg>
