<?xml version="1.0" standalone="no"?>
<!DOCTYPE svg PUBLIC "-//W3C//DTD SVG 20010904//EN"
 "http://www.w3.org/TR/2001/REC-SVG-20010904/DTD/svg10.dtd">
<svg version="1.0" xmlns="http://www.w3.org/2000/svg"
 width="352.000000pt" height="288.000000pt" viewBox="0 0 352.000000 288.000000"
 preserveAspectRatio="xMidYMid meet">
<metadata>
Created by potrace 1.13, written by Peter Selinger 2001-2015
</metadata>
<g transform="translate(0.000000,288.000000) scale(0.100000,-0.100000)"
fill="#000000" stroke="none">
<path d="M1634 2053 c-18 -13 -36 -54 -30 -69 4 -9 21 -14 51 -14 41 0 45 -2
45 -24 0 -14 -4 -28 -10 -31 -20 -13 -9 -36 20 -41 50 -10 38 -38 -23 -57 -30
-9 -65 -17 -78 -17 -38 0 -279 -78 -325 -105 -80 -47 -169 -172 -190 -267 -43
-194 -54 -260 -54 -320 0 -89 13 -115 64 -129 23 -6 54 -15 70 -20 16 -5 64
-9 107 -9 l79 0 0 -54 0 -54 -42 -17 c-23 -9 -82 -19 -130 -22 l-88 -6 0 31
c0 28 -28 62 -52 62 -19 0 -48 -42 -48 -70 0 -38 26 -55 106 -70 77 -15 140
-9 230 23 87 31 175 44 362 56 168 10 182 16 162 76 -14 43 -7 80 17 90 34 12
219 24 390 25 142 0 174 3 187 16 22 21 20 41 -4 56 -13 8 -20 24 -20 43 0 41
-16 55 -62 55 l-38 0 0 44 c0 46 9 59 50 71 90 25 312 129 375 174 6 4 29 13
51 19 75 22 123 82 93 118 -15 18 -99 18 -141 0 -160 -70 -180 -75 -329 -82
-151 -7 -184 -1 -218 40 -10 12 -7 17 18 30 16 9 37 16 45 16 37 0 63 99 34
128 -7 7 -36 12 -66 12 -45 0 -59 4 -78 25 -21 23 -30 25 -107 25 -46 0 -97 4
-113 9 -16 5 -46 12 -66 16 -30 5 -38 10 -38 27 0 12 8 30 17 40 22 24 7 52
-31 56 -44 5 -33 37 19 57 74 28 52 40 -81 43 -65 1 -124 -1 -130 -5z"/>
</g>
</svg>
