<?xml version="1.0" standalone="no"?>
<!DOCTYPE svg PUBLIC "-//W3C//DTD SVG 20010904//EN"
 "http://www.w3.org/TR/2001/REC-SVG-20010904/DTD/svg10.dtd">
<svg version="1.0" xmlns="http://www.w3.org/2000/svg"
 width="352.000000pt" height="288.000000pt" viewBox="0 0 352.000000 288.000000"
 preserveAspectRatio="xMidYMid meet">
<metadata>
Created by potrace 1.13, written by Peter Selinger 2001-2015
</metadata>
<g transform="translate(0.000000,288.000000) scale(0.100000,-0.100000)"
fill="#000000" stroke="none">
<path d="M1732 1950 c-82 -19 -99 -90 -21 -90 16 0 17 -3 7 -26 -13 -28 -1
-44 35 -44 13 0 17 -8 17 -34 0 -30 -4 -34 -31 -40 -17 -3 -112 -6 -210 -6
l-179 0 -97 -51 c-81 -42 -112 -66 -180 -136 -75 -79 -84 -92 -117 -182 -20
-53 -40 -121 -46 -150 -11 -60 -13 -161 -4 -186 7 -16 73 -55 96 -55 7 0 27
-7 43 -16 89 -47 135 -57 237 -51 l98 6 0 -24 c0 -19 -7 -26 -27 -30 -16 -3
-41 -12 -56 -20 -45 -24 -194 -20 -232 5 -59 39 -124 16 -104 -38 6 -14 16
-30 22 -34 23 -14 358 -9 417 7 30 8 140 19 245 25 104 7 205 16 223 22 41 12
58 39 67 104 6 48 9 52 37 58 17 3 83 6 147 6 123 0 339 25 356 41 6 6 5 16
-3 29 -6 11 -12 26 -12 35 0 30 -47 48 -110 42 l-60 -5 0 43 c0 47 -3 46 95
60 22 4 72 19 110 35 195 79 226 90 252 90 41 0 162 35 208 59 21 12 48 21 60
22 11 0 49 14 85 32 48 24 67 39 75 60 25 73 -43 84 -200 32 -99 -32 -130 -37
-305 -50 -107 -8 -217 -19 -245 -25 -114 -24 -132 -24 -164 1 -17 14 -30 34
-30 47 -1 23 9 29 113 69 57 22 76 44 60 71 -9 13 -28 18 -94 20 -71 2 -87 6
-112 27 -28 24 -35 25 -171 25 l-142 0 -23 43 c-13 25 -20 50 -16 61 4 11 0
22 -12 31 -16 11 -17 18 -8 43 19 49 -10 62 -94 42z"/>
</g>
</svg>
