<?xml version="1.0" standalone="no"?>
<!DOCTYPE svg PUBLIC "-//W3C//DTD SVG 20010904//EN"
 "http://www.w3.org/TR/2001/REC-SVG-20010904/DTD/svg10.dtd">
<svg version="1.0" xmlns="http://www.w3.org/2000/svg"
 width="352.000000pt" height="288.000000pt" viewBox="0 0 352.000000 288.000000"
 preserveAspectRatio="xMidYMid meet">
<metadata>
Created by potrace 1.13, written by Peter Selinger 2001-2015
</metadata>
<g transform="translate(0.000000,288.000000) scale(0.100000,-0.100000)"
fill="#000000" stroke="none">
<path d="M1638 1989 c-74 -33 -72 -68 4 -78 l43 -6 5 -50 c4 -42 9 -52 33 -63
24 -12 27 -18 27 -67 l0 -53 -237 -4 -238 -3 -65 -31 c-97 -47 -217 -167 -263
-264 -48 -100 -60 -162 -55 -281 3 -77 8 -102 22 -118 33 -36 118 -53 299 -59
157 -4 167 -6 167 -24 0 -11 -7 -26 -15 -34 -8 -9 -15 -23 -15 -33 0 -28 -71
-48 -187 -55 -93 -5 -103 -4 -103 12 0 10 -7 27 -15 39 -13 19 -19 20 -45 11
-64 -22 -70 -89 -11 -106 40 -11 251 -7 296 6 71 20 299 52 451 62 81 6 154
16 161 22 7 6 13 31 13 58 0 44 3 50 34 69 30 19 49 21 181 21 152 0 238 15
270 46 20 20 19 88 0 104 -10 9 -33 11 -70 7 l-55 -6 0 39 c0 38 1 40 48 54
64 19 211 85 313 140 96 52 184 85 319 120 118 31 127 34 134 53 18 47 -66 56
-224 23 -72 -15 -156 -21 -347 -26 l-253 -7 0 21 c0 17 8 23 38 28 54 10 110
33 116 50 3 8 -9 27 -27 44 -30 28 -37 30 -113 30 -78 0 -81 1 -102 30 l-23
30 -105 0 c-105 0 -106 0 -132 -30 -34 -39 -70 -40 -77 -2 -3 15 -10 45 -15
68 -5 22 -6 65 -3 95 5 50 8 57 34 66 34 13 46 37 29 58 -20 24 -182 20 -242
-6z"/>
</g>
</svg>
