<?xml version="1.0" standalone="no"?>
<!DOCTYPE svg PUBLIC "-//W3C//DTD SVG 20010904//EN"
 "http://www.w3.org/TR/2001/REC-SVG-20010904/DTD/svg10.dtd">
<svg version="1.0" xmlns="http://www.w3.org/2000/svg"
 width="352.000000pt" height="288.000000pt" viewBox="0 0 352.000000 288.000000"
 preserveAspectRatio="xMidYMid meet">
<metadata>
Created by potrace 1.13, written by Peter Selinger 2001-2015
</metadata>
<g transform="translate(0.000000,288.000000) scale(0.100000,-0.100000)"
fill="#000000" stroke="none">
<path d="M1572 1957 c-11 -13 -9 -18 10 -31 12 -9 35 -16 50 -16 25 0 28 -3
28 -34 0 -44 22 -66 66 -66 40 0 41 -8 12 -67 -28 -56 -62 -71 -143 -66 -72 5
-102 -2 -261 -60 -241 -90 -350 -160 -436 -284 -38 -55 -54 -103 -62 -185 -6
-57 -4 -72 14 -109 26 -50 48 -71 112 -104 45 -24 56 -25 213 -25 l165 0 0
-32 c0 -18 -5 -49 -10 -69 -9 -33 -14 -37 -63 -47 -28 -7 -87 -17 -130 -23
-58 -9 -80 -16 -88 -30 -9 -17 -5 -19 43 -19 29 0 96 9 148 20 94 19 299 48
500 70 58 7 111 16 118 22 6 6 12 23 12 38 0 81 118 123 330 118 113 -3 115
-3 127 22 30 60 5 113 -43 91 -32 -14 -34 -14 -34 3 0 29 151 106 210 106 9 0
45 11 80 25 35 14 75 25 89 25 14 0 53 14 86 31 33 17 81 41 107 54 25 14 49
29 52 34 4 5 60 31 126 57 101 39 121 50 126 71 4 16 1 30 -9 40 -13 13 -42
14 -248 3 -212 -11 -242 -15 -323 -41 -104 -34 -240 -40 -301 -15 -67 28 -37
51 99 75 55 10 77 30 58 56 -22 32 -91 59 -164 65 -70 6 -80 9 -117 43 -37 33
-47 37 -97 37 -45 0 -68 -6 -109 -30 -29 -17 -58 -37 -65 -45 -7 -8 -25 -15
-41 -15 -29 0 -29 0 -29 64 0 36 5 68 10 71 20 12 9 36 -20 46 -16 6 -30 15
-30 19 0 5 23 21 52 37 28 15 53 33 55 40 8 23 -43 37 -152 41 -91 4 -113 2
-123 -11z"/>
</g>
</svg>
