<?xml version="1.0" standalone="no"?>
<!DOCTYPE svg PUBLIC "-//W3C//DTD SVG 20010904//EN"
 "http://www.w3.org/TR/2001/REC-SVG-20010904/DTD/svg10.dtd">
<svg version="1.0" xmlns="http://www.w3.org/2000/svg"
 width="352.000000pt" height="288.000000pt" viewBox="0 0 352.000000 288.000000"
 preserveAspectRatio="xMidYMid meet">
<metadata>
Created by potrace 1.13, written by Peter Selinger 2001-2015
</metadata>
<g transform="translate(0.000000,288.000000) scale(0.100000,-0.100000)"
fill="#000000" stroke="none">
<path d="M1795 2129 c-33 -10 -76 -19 -95 -19 -44 0 -80 -24 -80 -54 0 -28 18
-46 47 -46 19 0 23 -5 23 -30 0 -21 8 -35 26 -46 20 -14 24 -24 22 -52 -3 -35
-4 -36 -68 -49 -36 -7 -106 -20 -155 -28 -145 -23 -211 -49 -294 -113 -88 -67
-117 -116 -151 -257 -25 -98 -37 -256 -26 -330 10 -66 33 -85 101 -85 31 0 72
-7 92 -15 19 -8 42 -15 50 -15 19 0 52 -40 53 -62 0 -23 -13 -30 -90 -46 -125
-26 -130 -26 -130 -4 0 32 -21 43 -63 31 -50 -13 -67 -34 -67 -78 0 -52 21
-69 63 -52 72 29 179 52 287 61 244 21 412 40 429 50 10 5 24 23 31 39 18 45
54 51 315 61 234 9 332 23 379 53 23 16 26 24 26 80 0 55 -3 66 -29 94 -31 35
-76 48 -141 41 -31 -3 -40 0 -40 12 0 26 13 37 72 63 32 14 68 36 80 49 13 13
46 42 73 64 45 36 59 42 155 57 58 10 121 26 140 35 39 19 80 74 80 106 0 50
-41 58 -136 27 -32 -11 -86 -24 -119 -29 -33 -6 -85 -17 -115 -26 -30 -9 -87
-16 -126 -16 -40 0 -94 -7 -122 -16 -46 -15 -51 -15 -76 1 -37 25 -34 45 8 45
42 0 66 22 66 60 0 47 -9 59 -76 96 -35 19 -66 44 -69 55 -11 33 -40 41 -68
19 -20 -16 -41 -20 -105 -20 -91 0 -96 3 -136 94 -37 82 -35 108 9 129 40 19
53 42 38 65 -14 22 -21 22 -88 1z"/>
</g>
</svg>
