<?xml version="1.0" standalone="no"?>
<!DOCTYPE svg PUBLIC "-//W3C//DTD SVG 20010904//EN"
 "http://www.w3.org/TR/2001/REC-SVG-20010904/DTD/svg10.dtd">
<svg version="1.0" xmlns="http://www.w3.org/2000/svg"
 width="352.000000pt" height="288.000000pt" viewBox="0 0 352.000000 288.000000"
 preserveAspectRatio="xMidYMid meet">
<metadata>
Created by potrace 1.13, written by Peter Selinger 2001-2015
</metadata>
<g transform="translate(0.000000,288.000000) scale(0.100000,-0.100000)"
fill="#000000" stroke="none">
<path d="M1780 2119 c-13 -6 -27 -15 -31 -20 -3 -6 -41 -13 -83 -16 -79 -6
-110 -21 -100 -48 7 -17 87 -45 131 -45 29 0 33 -3 33 -28 0 -16 -9 -35 -21
-45 -16 -15 -18 -21 -9 -33 7 -8 23 -14 37 -14 22 0 24 -4 21 -37 l-3 -38 -65
-8 c-36 -4 -74 -7 -85 -6 -11 1 -66 2 -122 3 l-103 1 -62 -65 c-35 -36 -80
-78 -101 -93 -39 -30 -67 -80 -87 -157 -6 -25 -19 -72 -30 -105 -36 -117 -52
-261 -34 -309 7 -18 178 -76 223 -76 56 0 61 -7 61 -79 l0 -66 -73 -23 c-76
-23 -227 -32 -227 -12 0 6 -7 10 -15 10 -18 0 -20 -31 -3 -48 21 -21 229 -15
328 9 126 30 253 56 360 74 52 9 100 21 107 27 7 6 13 25 13 44 0 39 3 40 130
49 52 4 120 13 150 20 30 8 111 20 180 29 168 20 164 18 155 80 -3 28 -11 57
-18 64 -6 8 -16 24 -22 36 -7 15 -22 22 -48 24 -33 3 -38 6 -35 25 2 15 12 23
33 27 37 8 68 24 118 62 20 15 54 41 75 56 20 16 92 50 160 76 156 61 172 76
132 116 -25 25 -110 27 -190 4 -38 -11 -114 -18 -245 -21 l-190 -5 -24 25
c-25 27 -21 47 8 47 34 0 80 22 86 40 8 24 -23 98 -46 110 -10 6 -33 10 -51
10 -19 0 -40 6 -46 13 -8 7 -69 16 -158 23 -79 6 -148 14 -151 18 -4 4 -7 29
-7 56 0 39 -4 51 -18 56 -26 8 -22 38 8 54 36 20 55 60 41 85 -19 36 -41 42
-87 24z"/>
</g>
</svg>
