<?xml version="1.0" standalone="no"?>
<!DOCTYPE svg PUBLIC "-//W3C//DTD SVG 20010904//EN"
 "http://www.w3.org/TR/2001/REC-SVG-20010904/DTD/svg10.dtd">
<svg version="1.0" xmlns="http://www.w3.org/2000/svg"
 width="1110.000000pt" height="488.000000pt" viewBox="0 0 1110.000000 488.000000"
 preserveAspectRatio="xMidYMid meet">
<metadata>
Created by potrace 1.13, written by Peter Selinger 2001-2015
</metadata>
<g transform="translate(0.000000,488.000000) scale(0.100000,-0.100000)"
fill="#000000" stroke="none">
<path d="M2950 4868 c-3 -3 -93 -8 -200 -12 -226 -7 -603 -32 -705 -47 -38 -5
-110 -14 -160 -19 -166 -18 -570 -89 -678 -119 -355 -100 -436 -163 -492 -386
-24 -92 -25 -113 -24 -359 0 -143 3 -291 8 -328 4 -39 3 -69 -2 -71 -5 -1 -2
-58 8 -131 13 -94 14 -131 6 -139 -14 -14 -14 -50 1 -65 9 -9 1 -25 -31 -69
-104 -143 -129 -189 -156 -283 -35 -124 -44 -167 -45 -212 0 -32 -4 -39 -26
-44 -19 -5 -32 0 -53 20 -34 33 -82 44 -100 22 -8 -10 -22 -13 -41 -10 -59 12
-103 -90 -80 -186 7 -28 16 -53 21 -56 18 -11 -2 -23 -49 -30 -26 -3 -52 -11
-58 -15 -13 -10 -18 -178 -8 -246 l6 -43 47 0 c45 0 215 30 279 49 39 12 39
12 13 -108 -11 -54 -23 -86 -34 -93 -19 -10 -20 -5 -17 49 4 75 -75 122 -117
70 -12 -16 -41 -28 -95 -41 -87 -20 -128 -46 -128 -81 0 -25 33 -55 61 -55 12
0 18 -11 21 -40 2 -22 2 -40 0 -40 -1 0 -20 9 -42 20 -55 28 -70 26 -70 -10 0
-18 6 -33 15 -36 10 -4 15 -19 15 -43 0 -46 14 -61 57 -61 32 0 33 -1 33 -45
0 -25 -3 -45 -6 -45 -11 0 -49 24 -60 38 -18 25 -49 10 -52 -24 -4 -44 47 -76
114 -72 l48 3 11 53 c12 51 31 76 67 85 13 4 18 -1 18 -15 0 -11 9 -31 19 -45
11 -13 17 -31 15 -38 -9 -23 16 -84 36 -90 21 -7 75 7 229 56 51 16 94 28 95
27 1 -2 14 -51 28 -109 51 -209 128 -351 273 -503 58 -61 196 -132 325 -169
63 -18 100 -21 235 -20 146 1 166 4 234 28 129 46 243 114 316 190 49 50 127
182 149 250 25 77 19 74 131 64 55 -5 179 -16 275 -24 96 -9 225 -20 285 -25
61 -6 180 -15 265 -20 137 -9 346 -29 625 -60 50 -5 122 -12 160 -15 39 -4
133 -13 210 -21 77 -8 228 -21 335 -29 205 -15 416 -33 790 -65 124 -11 341
-25 483 -31 229 -10 271 -10 370 5 184 28 314 63 397 108 104 57 194 112 198
121 2 4 18 7 36 7 48 0 366 -46 485 -69 57 -12 116 -21 131 -21 16 0 31 -4 34
-8 3 -5 14 -68 25 -141 18 -115 35 -177 95 -336 13 -35 85 -168 95 -175 4 -3
23 -27 42 -54 118 -168 350 -322 559 -371 84 -19 254 -19 405 1 108 14 130 20
220 65 153 76 155 77 241 164 138 140 218 284 254 458 6 31 14 57 18 57 3 0
25 -7 47 -16 32 -12 43 -23 51 -47 9 -31 11 -32 54 -29 77 5 141 5 250 2 67
-3 148 2 225 14 144 21 236 61 367 161 124 93 169 146 276 322 16 26 62 64
150 123 70 47 139 91 154 99 57 28 115 121 76 121 -6 0 -1 11 12 25 18 19 26
42 32 97 7 68 6 73 -18 94 -20 19 -23 30 -19 61 3 21 2 43 -2 48 -11 14 -60
35 -83 35 -12 0 -20 8 -22 23 -5 33 -42 34 -73 1 -18 -19 -25 -38 -25 -65 0
-41 -12 -52 -71 -69 -29 -9 -29 -8 -29 34 0 23 -6 66 -14 96 -7 30 -19 82 -26
115 -8 33 -27 92 -43 130 -43 106 -44 99 8 113 60 16 71 42 55 132 -14 84 -31
140 -42 140 -4 0 -8 5 -8 10 0 20 -44 70 -61 70 -10 0 -19 11 -22 28 -22 104
-315 273 -562 323 -33 7 -64 16 -69 21 -6 4 -16 8 -24 8 -8 0 -23 11 -34 25
-11 14 -26 25 -34 25 -19 0 -54 31 -54 48 0 25 -249 -1 -270 -29 -3 -3 -20
-14 -37 -23 -18 -9 -40 -30 -48 -46 -26 -51 -42 -38 -49 43 -12 131 -47 226
-103 279 -33 32 -149 88 -180 88 -28 0 -38 17 -23 35 7 8 10 26 6 39 -4 16 -1
26 9 30 8 3 15 16 15 29 0 23 4 24 80 31 99 8 110 12 110 42 0 33 -30 45 -95
38 -53 -7 -55 -6 -55 17 0 13 -8 34 -18 47 -16 21 -23 23 -70 16 -41 -5 -52
-10 -52 -25 0 -10 5 -21 10 -24 18 -11 11 -21 -30 -44 -22 -12 -40 -26 -40
-30 0 -14 -69 -79 -91 -86 -18 -6 -21 -13 -16 -46 l5 -39 -46 5 c-54 6 -235
22 -402 35 -111 9 -195 17 -420 39 -58 6 -278 22 -490 36 -212 14 -415 30
-452 35 -36 5 -73 8 -80 5 -9 -4 -18 9 -27 40 -16 55 -39 63 -126 46 -42 -8
-66 -19 -80 -36 -12 -14 -28 -25 -38 -25 -19 0 -19 1 -21 418 -1 141 3 217 10
223 10 8 93 17 357 38 59 4 113 13 119 19 16 16 1 78 -25 104 -40 41 -166 104
-307 153 -52 19 -126 45 -165 58 -66 24 -236 59 -445 92 -93 15 -274 34 -520
55 -69 6 -195 18 -280 26 -291 28 -485 43 -635 49 -82 3 -226 10 -320 16 -185
10 -1517 25 -1525 17z"/>
</g>
</svg>
