<?xml version="1.0" standalone="no"?>
<!DOCTYPE svg PUBLIC "-//W3C//DTD SVG 20010904//EN"
 "http://www.w3.org/TR/2001/REC-SVG-20010904/DTD/svg10.dtd">
<svg version="1.0" xmlns="http://www.w3.org/2000/svg"
 width="569.000000pt" height="252.000000pt" viewBox="0 0 569.000000 252.000000"
 preserveAspectRatio="xMidYMid meet">
<metadata>
Created by potrace 1.13, written by Peter Selinger 2001-2015
</metadata>
<g transform="translate(0.000000,252.000000) scale(0.100000,-0.100000)"
fill="#000000" stroke="none">
<path d="M4045 2394 c-16 -2 -138 -8 -270 -14 -381 -18 -819 -60 -1125 -106
-100 -15 -433 -54 -462 -54 -25 0 -58 -40 -58 -71 0 -29 15 -39 62 -39 l31 0
-7 -47 c-3 -27 -13 -66 -21 -88 -8 -22 -14 -47 -15 -56 0 -9 -7 -22 -15 -29
-8 -7 -15 -27 -15 -44 0 -47 -25 -121 -42 -124 -8 -2 -23 9 -32 23 -27 41
-102 31 -118 -15 -2 -8 -134 -13 -411 -18 -384 -7 -407 -6 -407 11 0 10 -8 17
-19 17 -16 0 -18 6 -14 38 6 46 -14 72 -57 72 -36 0 -54 -29 -45 -70 6 -26 3
-30 -20 -36 -20 -5 -25 -12 -23 -29 2 -15 -7 -31 -28 -49 -38 -31 -64 -83 -64
-126 0 -27 -3 -31 -17 -25 -35 14 -147 16 -172 3 -37 -20 -63 -61 -68 -112 -5
-43 -7 -46 -42 -52 -43 -7 -145 -45 -221 -82 -47 -23 -59 -35 -82 -82 -15 -30
-30 -71 -33 -90 -6 -31 -3 -38 20 -50 23 -12 31 -11 78 8 l52 22 -37 -37 c-73
-77 -88 -94 -88 -106 0 -7 -7 -30 -14 -52 -13 -36 -18 -40 -51 -43 -20 -2 -46
3 -58 11 -33 22 -83 30 -106 17 -16 -8 -21 -21 -21 -55 0 -41 2 -45 25 -45 32
0 32 -14 0 -28 -19 -9 -25 -19 -25 -44 0 -73 19 -90 105 -93 17 -1 46 -2 66
-3 36 -2 36 -2 43 -54 4 -29 25 -90 47 -135 49 -103 127 -184 225 -233 67 -34
72 -35 184 -35 l115 0 85 43 c47 23 102 58 124 77 36 33 56 38 56 14 0 -38
125 -174 196 -213 145 -81 366 -72 514 22 54 34 127 114 155 168 11 21 29 55
41 74 11 19 26 54 34 78 l13 42 61 0 c34 0 124 11 201 24 77 14 205 28 285 31
80 4 168 8 195 10 28 1 176 4 329 6 l280 4 8 -34 c29 -108 205 -271 295 -271
13 0 23 -5 23 -11 0 -9 29 -10 101 -6 87 4 110 10 165 37 78 38 206 159 227
214 5 13 14 17 30 12 12 -3 30 -6 39 -6 9 0 19 -10 23 -22 23 -84 66 -158 126
-217 83 -81 92 -87 193 -121 117 -39 269 -19 378 52 117 75 186 174 229 330 9
32 19 48 33 51 28 7 138 50 154 60 14 10 16 65 3 100 -9 24 -9 24 32 16 23 -4
65 -8 94 -9 42 0 54 -4 63 -20 13 -25 39 -25 80 -2 30 16 31 19 26 62 -4 24
-10 48 -15 53 -5 5 -3 20 5 35 17 33 18 53 3 86 -11 23 -19 25 -102 32 l-90 7
7 281 c4 155 12 285 17 290 5 6 9 20 9 31 0 21 -3 21 -140 17 -77 -3 -140 -1
-140 4 0 5 7 50 15 99 8 50 24 164 35 255 11 91 25 188 31 215 6 28 9 73 7
100 l-3 50 -55 18 c-69 22 -200 44 -305 52 -44 4 -103 11 -132 16 -44 9 -701
19 -788 13z"/>
</g>
</svg>
