<?xml version="1.0" standalone="no"?>
<!DOCTYPE svg PUBLIC "-//W3C//DTD SVG 20010904//EN"
 "http://www.w3.org/TR/2001/REC-SVG-20010904/DTD/svg10.dtd">
<svg version="1.0" xmlns="http://www.w3.org/2000/svg"
 width="481.000000pt" height="286.000000pt" viewBox="0 0 481.000000 286.000000"
 preserveAspectRatio="xMidYMid meet">
<metadata>
Created by potrace 1.13, written by Peter Selinger 2001-2015
</metadata>
<g transform="translate(0.000000,286.000000) scale(0.100000,-0.100000)"
fill="#000000" stroke="none">
<path d="M2510 2010 c-14 -4 -54 -9 -90 -9 -74 -2 -283 -25 -350 -40 -25 -5
-65 -15 -90 -21 l-45 -11 3 -170 3 -171 -73 6 c-40 3 -215 8 -388 11 -254 4
-325 2 -365 -9 -27 -8 -68 -19 -91 -25 -57 -15 -72 -37 -95 -134 l-20 -84 -45
5 c-34 4 -49 0 -65 -14 -26 -24 -49 -67 -49 -92 0 -24 -15 -30 -88 -38 -82 -8
-119 -22 -142 -51 -30 -38 -26 -88 9 -123 28 -29 28 -30 23 -123 l-5 -95 39
-63 c68 -109 171 -161 282 -140 53 9 58 8 77 -12 106 -114 266 -154 381 -94
89 45 174 148 174 208 0 21 3 21 78 15 216 -18 1194 -34 1487 -24 17 0 50 -7
75 -17 53 -20 151 -15 199 10 17 8 40 15 53 15 13 1 38 9 57 19 l34 18 24 -48
c27 -53 64 -88 127 -122 58 -30 184 -30 242 1 65 33 130 126 148 208 6 27 13
32 44 38 56 9 101 7 124 -5 20 -11 20 -9 16 85 -2 56 -9 101 -16 108 -7 7 -12
38 -12 70 0 62 -45 214 -77 256 -26 35 -122 82 -182 89 -58 7 -63 11 -64 59
-1 19 -3 34 -6 34 -4 0 -6 80 -7 178 -1 184 -10 236 -43 266 -46 41 -109 45
-701 45 -311 -1 -576 -5 -590 -9z"/>
</g>
</svg>
