<?xml version="1.0" standalone="no"?>
<!DOCTYPE svg PUBLIC "-//W3C//DTD SVG 20010904//EN"
 "http://www.w3.org/TR/2001/REC-SVG-20010904/DTD/svg10.dtd">
<svg version="1.0" xmlns="http://www.w3.org/2000/svg"
 width="276.000000pt" height="386.000000pt" viewBox="0 0 276.000000 386.000000"
 preserveAspectRatio="xMidYMid meet">
<metadata>
Created by potrace 1.13, written by Peter Selinger 2001-2015
</metadata>
<g transform="translate(0.000000,386.000000) scale(0.100000,-0.100000)"
fill="#000000" stroke="none">
<path d="M896 3658 c21 -752 50 -2435 43 -2498 -31 -289 -144 -528 -339 -720
-121 -120 -254 -218 -508 -375 -51 -31 -92 -58 -90 -60 3 -3 273 22 538 50
383 41 670 105 890 200 47 20 122 47 167 61 201 58 434 177 593 302 67 53 239
228 291 297 138 183 237 420 268 636 9 63 -39 2273 -50 2283 -2 2 -272 7 -599
10 -327 3 -733 9 -902 12 l-308 6 6 -204z"/>
</g>
</svg>
