<?xml version="1.0" standalone="no"?>
<!DOCTYPE svg PUBLIC "-//W3C//DTD SVG 20010904//EN"
 "http://www.w3.org/TR/2001/REC-SVG-20010904/DTD/svg10.dtd">
<svg version="1.0" xmlns="http://www.w3.org/2000/svg"
 width="283.000000pt" height="412.000000pt" viewBox="0 0 283.000000 412.000000"
 preserveAspectRatio="xMidYMid meet">
<metadata>
Created by potrace 1.13, written by Peter Selinger 2001-2015
</metadata>
<g transform="translate(0.000000,412.000000) scale(0.100000,-0.100000)"
fill="#000000" stroke="none">
<path d="M1330 3986 l-435 -132 2 -644 c1 -455 7 -803 22 -1180 27 -694 28
-839 7 -960 -54 -300 -189 -525 -439 -734 -37 -31 -155 -114 -261 -184 -107
-70 -202 -133 -212 -139 -17 -11 -14 -12 16 -8 19 3 134 14 255 25 607 57 889
113 1153 229 40 18 118 46 174 62 514 153 935 546 1083 1011 53 167 55 184 75
923 18 660 44 1363 55 1485 3 30 1 61 -3 68 -5 7 -236 77 -513 156 -277 79
-513 146 -524 149 -12 3 -200 -49 -455 -127z"/>
</g>
</svg>
