<?xml version="1.0" standalone="no"?>
<!DOCTYPE svg PUBLIC "-//W3C//DTD SVG 20010904//EN"
 "http://www.w3.org/TR/2001/REC-SVG-20010904/DTD/svg10.dtd">
<svg version="1.0" xmlns="http://www.w3.org/2000/svg"
 width="283.000000pt" height="445.000000pt" viewBox="0 0 283.000000 445.000000"
 preserveAspectRatio="xMidYMid meet">
<metadata>
Created by potrace 1.13, written by Peter Selinger 2001-2015
</metadata>
<g transform="translate(0.000000,445.000000) scale(0.100000,-0.100000)"
fill="#000000" stroke="none">
<path d="M1840 4150 c-519 -158 -946 -292 -948 -299 -6 -19 17 -286 39 -441
27 -193 72 -415 173 -852 153 -659 198 -937 200 -1218 1 -111 -3 -150 -22
-218 -24 -89 -82 -213 -141 -302 -84 -127 -249 -275 -459 -413 -122 -81 -185
-118 -502 -295 -80 -45 -154 -89 -165 -97 -19 -15 -18 -15 15 -10 19 3 134 14
255 25 430 41 624 69 839 125 140 36 256 75 321 108 22 11 82 33 133 48 606
183 1036 614 1152 1156 20 91 24 196 60 1528 20 787 36 1433 33 1438 -2 4 -12
7 -21 6 -9 -1 -442 -131 -962 -289z"/>
</g>
</svg>
