<?xml version="1.0" standalone="no"?>
<!DOCTYPE svg PUBLIC "-//W3C//DTD SVG 20010904//EN"
 "http://www.w3.org/TR/2001/REC-SVG-20010904/DTD/svg10.dtd">
<svg version="1.0" xmlns="http://www.w3.org/2000/svg"
 width="283.000000pt" height="445.000000pt" viewBox="0 0 283.000000 445.000000"
 preserveAspectRatio="xMidYMid meet">
<metadata>
Created by potrace 1.13, written by Peter Selinger 2001-2015
</metadata>
<g transform="translate(0.000000,445.000000) scale(0.100000,-0.100000)"
fill="#000000" stroke="none">
<path d="M1865 3855 c-606 -375 -939 -588 -937 -596 8 -31 16 -2030 9 -2102
-13 -131 -61 -298 -117 -410 -122 -247 -287 -404 -688 -656 -73 -46 -131 -85
-130 -86 3 -3 281 23 533 50 393 42 739 121 915 210 25 12 81 33 125 45 102
28 259 91 355 143 211 114 376 249 516 422 143 176 255 418 294 634 11 56 91
2909 83 2924 -2 4 -7 7 -11 6 -4 -1 -430 -263 -947 -584z"/>
</g>
</svg>
