<?xml version="1.0" standalone="no"?>
<!DOCTYPE svg PUBLIC "-//W3C//DTD SVG 20010904//EN"
 "http://www.w3.org/TR/2001/REC-SVG-20010904/DTD/svg10.dtd">
<svg version="1.0" xmlns="http://www.w3.org/2000/svg"
 width="181.000000pt" height="113.000000pt" viewBox="0 0 181.000000 113.000000"
 preserveAspectRatio="xMidYMid meet">
<metadata>
Created by potrace 1.13, written by Peter Selinger 2001-2015
</metadata>
<g transform="translate(0.000000,113.000000) scale(0.100000,-0.100000)"
fill="#000000" stroke="none">
<path d="M892 1108 c-6 -6 -12 -18 -12 -24 0 -7 -14 -26 -31 -44 -30 -29 -31
-34 -27 -96 4 -57 7 -68 33 -88 26 -21 29 -29 26 -70 -3 -54 -26 -115 -44
-121 -7 -2 -52 -12 -101 -24 -102 -23 -103 -22 -127 54 -6 22 -16 54 -22 72
-7 22 -7 46 -1 75 6 24 7 56 3 72 -9 34 -51 74 -87 82 -15 4 -35 15 -45 25
-21 23 -50 24 -70 4 -12 -11 -15 -38 -14 -111 2 -104 10 -119 68 -130 18 -4
31 -19 47 -52 35 -75 38 -106 11 -131 -12 -11 -30 -21 -38 -21 -9 0 -39 -11
-67 -24 l-52 -24 -54 57 c-78 80 -89 101 -82 154 8 55 -15 83 -76 93 -22 4
-43 11 -46 15 -3 5 -18 9 -34 9 -39 0 -46 -27 -30 -120 10 -58 16 -73 40 -90
15 -11 42 -20 59 -20 17 0 31 -4 31 -9 0 -5 6 -16 13 -23 7 -7 33 -40 57 -73
25 -33 48 -61 51 -63 3 -1 4 -14 1 -27 -7 -41 6 -72 34 -79 20 -5 24 -11 19
-24 -21 -49 -18 -65 15 -92 32 -26 33 -28 16 -45 -24 -24 -14 -83 19 -110 88
-73 550 -110 825 -65 69 12 126 25 128 30 2 6 15 7 28 4 38 -10 74 29 74 77 0
21 -4 40 -10 44 -15 9 -1 31 27 44 22 10 24 16 18 47 -7 40 7 64 36 64 22 0
41 33 37 64 -2 17 15 44 62 97 78 89 77 89 116 89 53 0 77 28 80 94 1 32 5 60
8 64 11 11 6 41 -10 56 -20 20 -63 21 -70 1 -4 -8 -18 -15 -34 -15 -38 0 -55
-25 -54 -76 1 -41 -3 -47 -71 -113 -90 -88 -107 -93 -180 -51 -71 41 -78 64
-40 139 15 31 32 67 38 79 6 13 23 30 37 37 27 14 50 53 50 85 0 24 -21 70
-32 70 -4 0 -8 13 -8 29 0 35 -23 61 -54 61 -27 0 -46 -18 -46 -42 0 -10 -6
-18 -13 -18 -43 0 -67 -77 -43 -135 16 -36 15 -42 -5 -102 -11 -36 -31 -76
-43 -90 -22 -25 -25 -26 -67 -14 -24 7 -67 18 -96 23 -59 13 -67 25 -78 112
-7 55 -6 58 24 88 25 25 31 38 31 75 0 26 -6 51 -15 59 -8 9 -15 24 -15 34 0
11 -6 23 -14 27 -8 4 -16 19 -18 33 -2 21 -9 26 -38 28 -19 2 -41 -3 -48 -10z"/>
</g>
</svg>
