<?xml version="1.0" standalone="no"?>
<!DOCTYPE svg PUBLIC "-//W3C//DTD SVG 20010904//EN"
 "http://www.w3.org/TR/2001/REC-SVG-20010904/DTD/svg10.dtd">
<svg version="1.0" xmlns="http://www.w3.org/2000/svg"
 width="181.000000pt" height="113.000000pt" viewBox="0 0 181.000000 113.000000"
 preserveAspectRatio="xMidYMid meet">
<metadata>
Created by potrace 1.13, written by Peter Selinger 2001-2015
</metadata>
<g transform="translate(0.000000,113.000000) scale(0.100000,-0.100000)"
fill="#000000" stroke="none">
<path d="M884 1095 c-3 -14 -22 -41 -40 -61 -28 -28 -34 -42 -34 -79 0 -59 15
-89 56 -111 44 -24 45 -59 2 -123 -34 -54 -65 -76 -118 -86 -30 -5 -43 -1 -85
27 -46 32 -48 36 -49 83 -1 44 -4 51 -31 65 -16 8 -35 22 -41 30 -9 11 -18 12
-41 5 -26 -10 -28 -15 -31 -68 -3 -67 9 -94 43 -103 29 -7 31 -25 8 -64 -42
-72 -141 -67 -236 11 -25 21 -36 37 -32 48 9 29 -12 112 -34 134 -14 15 -35
22 -66 23 -26 1 -49 5 -52 8 -11 11 -69 6 -81 -6 -15 -15 -5 -151 15 -195 17
-37 68 -59 115 -49 34 7 42 -2 109 -102 32 -48 35 -58 26 -83 -9 -23 -8 -32 8
-48 10 -12 27 -21 38 -21 14 0 17 -4 12 -18 -21 -48 -18 -69 14 -88 34 -20 36
-29 20 -70 -16 -44 -4 -70 44 -93 110 -53 469 -77 692 -46 150 21 267 47 299
68 29 19 43 71 26 92 -16 20 -6 43 25 57 25 11 26 15 20 60 -7 47 -6 48 19 48
29 0 46 25 46 68 0 20 18 53 58 105 50 67 61 76 90 77 83 1 120 55 107 158 -3
31 -8 65 -11 75 -6 18 -49 24 -59 7 -3 -5 -21 -10 -40 -10 -52 0 -81 -18 -101
-62 -15 -33 -16 -46 -7 -81 11 -40 10 -43 -16 -67 -37 -34 -75 -50 -120 -50
-44 0 -76 28 -96 87 -13 36 -12 39 11 53 13 8 27 23 30 33 10 30 -6 126 -23
143 -20 20 -53 14 -67 -11 -6 -11 -21 -29 -33 -40 -17 -15 -23 -32 -23 -62 0
-23 5 -43 12 -45 23 -8 -26 -56 -68 -68 -83 -24 -146 16 -183 114 -26 69 -26
72 -3 88 58 41 54 165 -7 197 -10 6 -21 24 -24 41 -6 27 -10 30 -47 30 -34 0
-40 -3 -46 -25z m33 -101 c12 -12 13 -20 5 -40 -7 -13 -18 -24 -26 -24 -8 0
-16 -5 -18 -12 -5 -15 -28 -1 -28 18 0 22 29 74 41 74 6 0 17 -7 26 -16z m803
-238 c-1 -28 -42 -56 -71 -49 -24 7 -24 15 -1 40 28 32 72 38 72 9z m-1595
-22 c18 -18 12 -52 -13 -72 -14 -11 -19 -10 -29 5 -16 21 -17 55 -1 71 16 16
23 15 43 -4z m481 -109 c3 -8 21 -17 40 -21 19 -3 34 -11 34 -16 0 -6 -7 -7
-17 -3 -29 13 -83 18 -83 9 0 -5 -10 -20 -21 -34 -20 -25 -20 -25 1 15 11 22
20 45 20 52 0 18 19 16 26 -2z m-86 -100 c-7 -8 -18 -15 -24 -15 -6 0 -2 7 8
15 25 19 32 19 16 0z m200 -116 c0 -20 -4 -21 -48 -15 -40 5 -53 2 -84 -19
-43 -29 -48 -30 -48 -11 0 8 -5 16 -12 18 -6 2 15 10 48 17 32 8 73 17 89 21
48 13 55 11 55 -11z m10 -104 c0 -8 -7 -15 -16 -15 -14 0 -14 3 -4 15 7 8 14
15 16 15 2 0 4 -7 4 -15z m-116 -24 c3 -5 -10 -11 -29 -13 -22 -2 -36 1 -39 9
-6 15 59 19 68 4z m436 -196 c0 -24 -5 -35 -15 -35 -10 0 -15 11 -15 35 0 24
5 35 15 35 10 0 15 -11 15 -35z"/>
</g>
</svg>
