<?xml version="1.0" standalone="no"?>
<!DOCTYPE svg PUBLIC "-//W3C//DTD SVG 20010904//EN"
 "http://www.w3.org/TR/2001/REC-SVG-20010904/DTD/svg10.dtd">
<svg version="1.0" xmlns="http://www.w3.org/2000/svg"
 width="93.000000pt" height="50.000000pt" viewBox="0 0 93.000000 50.000000"
 preserveAspectRatio="xMidYMid meet">
<metadata>
Created by potrace 1.13, written by Peter Selinger 2001-2015
</metadata>
<g transform="translate(0.000000,50.000000) scale(0.100000,-0.100000)"
fill="#000000" stroke="none">
<path d="M423 465 c-35 -34 -40 -80 -14 -115 11 -16 21 -41 21 -55 0 -25 -14
-34 -25 -15 -9 15 -42 12 -49 -5 -11 -29 -26 -15 -26 24 0 31 -4 41 -20 46
-11 3 -20 11 -20 16 0 5 -11 9 -24 9 -18 0 -25 -7 -30 -31 -7 -35 2 -79 15
-79 5 0 9 -4 9 -9 0 -4 -12 -6 -26 -3 -18 3 -29 -1 -40 -17 -20 -29 -34 -18
-34 27 0 63 -9 80 -51 96 -75 30 -99 19 -99 -44 0 -48 16 -75 54 -90 20 -7 36
-19 36 -25 0 -14 42 -55 58 -55 6 0 14 -21 17 -47 11 -76 13 -80 53 -87 50 -8
460 -6 492 3 21 6 26 14 28 49 2 23 7 42 13 42 5 0 9 9 9 20 0 11 6 20 14 20
8 0 27 14 43 30 15 17 38 30 51 30 15 0 26 7 29 20 3 11 9 20 14 20 16 0 11
110 -5 116 -19 7 -92 -13 -109 -31 -8 -7 -17 -36 -21 -64 -7 -52 -24 -67 -33
-30 -5 16 -12 20 -34 17 -29 -4 -39 5 -19 17 11 7 13 48 4 83 -4 15 -14 22
-30 22 -39 0 -64 -29 -64 -75 -1 -35 -2 -38 -14 -22 -15 19 -37 22 -53 6 -28
-28 -39 35 -12 65 5 6 9 29 9 53 0 32 -6 48 -25 68 -31 30 -62 31 -92 0z m50
-55 c-6 -23 -33 -27 -33 -6 0 13 13 23 32 25 3 1 4 -8 1 -19z m-375 -122 c-3
-7 -11 -13 -18 -13 -7 0 -15 6 -17 13 -3 7 4 12 17 12 13 0 20 -5 18 -12z
m772 3 c0 -12 -20 -25 -27 -18 -7 7 6 27 18 27 5 0 9 -4 9 -9z"/>
</g>
</svg>
