<?xml version="1.0" standalone="no"?>
<!DOCTYPE svg PUBLIC "-//W3C//DTD SVG 20010904//EN"
 "http://www.w3.org/TR/2001/REC-SVG-20010904/DTD/svg10.dtd">
<svg version="1.0" xmlns="http://www.w3.org/2000/svg"
 width="95.000000pt" height="53.000000pt" viewBox="0 0 95.000000 53.000000"
 preserveAspectRatio="xMidYMid meet">
<metadata>
Created by potrace 1.13, written by Peter Selinger 2001-2015
</metadata>
<g transform="translate(0.000000,53.000000) scale(0.100000,-0.100000)"
fill="#000000" stroke="none">
<path d="M436 448 c-22 -31 -20 -64 5 -81 14 -11 20 -23 17 -43 -3 -26 -8 -30
-51 -38 -47 -8 -49 -7 -78 25 -16 18 -29 43 -28 54 3 39 -1 45 -35 62 -39 18
-59 14 -81 -20 -21 -33 -6 -74 32 -83 36 -8 63 -32 63 -54 0 -10 -18 -29 -39
-43 l-39 -26 -41 35 c-23 20 -41 44 -41 54 0 10 -8 28 -18 40 -14 18 -25 21
-45 16 -14 -3 -28 -14 -32 -25 -8 -25 11 -71 29 -71 23 0 106 -85 106 -108 0
-11 5 -22 11 -24 6 -2 11 -23 11 -46 -1 -37 3 -44 26 -54 17 -7 123 -11 280
-12 280 -1 272 -3 272 65 0 23 6 39 15 43 8 3 15 15 15 26 0 11 8 24 18 27 9
4 31 16 47 28 17 13 42 25 56 29 30 7 43 40 33 81 -12 47 -84 28 -84 -21 0
-16 -14 -31 -50 -53 -60 -37 -64 -37 -100 -7 l-28 23 19 29 c10 16 30 36 45
44 43 24 52 45 34 78 -9 15 -25 28 -37 30 -26 4 -63 -30 -63 -57 0 -25 -40
-89 -60 -95 -8 -3 -33 1 -55 8 -32 11 -41 20 -43 42 -2 17 2 31 12 36 22 13
20 64 -4 88 -27 27 -75 26 -94 -2z"/>
</g>
</svg>
