<?xml version="1.0" standalone="no"?>
<!DOCTYPE svg PUBLIC "-//W3C//DTD SVG 20010904//EN"
 "http://www.w3.org/TR/2001/REC-SVG-20010904/DTD/svg10.dtd">
<svg version="1.0" xmlns="http://www.w3.org/2000/svg"
 width="258.000000pt" height="165.000000pt" viewBox="0 0 258.000000 165.000000"
 preserveAspectRatio="xMidYMid meet">
<metadata>
Created by potrace 1.13, written by Peter Selinger 2001-2015
</metadata>
<g transform="translate(0.000000,165.000000) scale(0.100000,-0.100000)"
fill="#000000" stroke="none">
<path d="M1233 1633 c-7 -2 -13 -20 -13 -38 0 -27 -6 -37 -30 -52 -36 -21 -80
-103 -80 -149 0 -69 51 -144 113 -167 9 -3 17 -17 18 -29 3 -133 -1 -231 -12
-267 -14 -47 -46 -75 -75 -65 -50 17 -119 129 -163 262 l-20 63 39 39 c49 49
58 92 36 164 -21 67 -48 93 -115 109 -40 9 -53 17 -58 34 -4 18 -12 23 -35 23
-41 0 -71 -35 -64 -72 3 -16 2 -28 -3 -28 -15 0 -33 -55 -40 -125 -7 -62 -5
-74 13 -102 12 -18 26 -33 32 -33 10 0 57 -19 94 -39 17 -9 28 -73 36 -207 l6
-91 -43 -36 c-23 -21 -49 -37 -57 -37 -35 0 -86 39 -186 141 -115 117 -129
142 -119 218 4 32 0 43 -26 73 -25 29 -42 38 -92 47 -33 7 -63 10 -67 7 -3 -3
-11 3 -19 14 -17 24 -65 27 -87 4 -19 -18 -20 -33 -6 -68 5 -15 7 -45 4 -69
l-6 -42 -54 0 c-30 0 -54 3 -54 8 0 4 -18 7 -40 7 -34 0 -41 -4 -46 -24 -7
-28 3 -66 17 -66 5 0 9 -23 9 -51 0 -90 51 -137 136 -127 32 4 40 -2 120 -88
134 -144 134 -145 122 -164 -13 -21 -3 -84 17 -100 8 -6 32 -14 55 -17 47 -7
51 -22 15 -61 -36 -38 -32 -68 10 -93 42 -25 44 -43 6 -58 -48 -21 -71 -86
-46 -137 46 -96 260 -135 760 -136 243 0 318 3 460 22 147 19 202 28 333 57
36 8 62 50 62 98 0 43 -13 62 -64 98 -17 12 -15 15 28 31 58 22 61 48 11 100
-40 42 -37 62 10 70 45 9 77 49 73 94 -3 32 6 43 114 153 l117 119 61 0 c55 0
64 3 98 34 l37 34 0 109 0 108 -39 3 c-28 2 -42 -1 -48 -12 -5 -8 -15 -13 -22
-10 -8 3 -30 1 -49 -4 l-35 -10 -4 49 c-3 28 -13 58 -23 69 -11 13 -19 37 -19
63 l-1 42 -45 0 c-36 0 -47 -4 -54 -22 -9 -19 -72 -49 -88 -41 -3 2 -18 -8
-32 -21 -21 -20 -26 -34 -26 -71 0 -61 -15 -104 -58 -165 -76 -107 -179 -195
-228 -195 -45 0 -115 25 -130 45 -19 26 -18 133 3 255 l16 100 32 0 c43 0 86
42 108 105 22 65 22 100 -3 125 -11 11 -20 26 -20 33 0 7 -9 18 -20 25 -12 7
-18 17 -15 23 4 5 4 23 0 39 -12 54 -105 49 -105 -6 0 -19 -6 -26 -30 -30 -16
-4 -46 -21 -67 -39 -34 -30 -37 -36 -41 -99 -5 -74 6 -106 46 -143 22 -20 24
-28 17 -68 -15 -102 -67 -245 -108 -297 -19 -24 -62 -23 -86 1 -26 26 -37 71
-52 219 -10 105 -10 125 2 133 67 41 86 63 99 118 9 39 8 56 -5 97 -18 51 -56
100 -87 110 -12 3 -18 15 -18 33 0 15 -5 32 -12 39 -12 12 -71 15 -95 5z"/>
</g>
</svg>
