<?xml version="1.0" standalone="no"?>
<!DOCTYPE svg PUBLIC "-//W3C//DTD SVG 20010904//EN"
 "http://www.w3.org/TR/2001/REC-SVG-20010904/DTD/svg10.dtd">
<svg version="1.0" xmlns="http://www.w3.org/2000/svg"
 width="133.000000pt" height="77.000000pt" viewBox="0 0 133.000000 77.000000"
 preserveAspectRatio="xMidYMid meet">
<metadata>
Created by potrace 1.13, written by Peter Selinger 2001-2015
</metadata>
<g transform="translate(0.000000,77.000000) scale(0.100000,-0.100000)"
fill="#000000" stroke="none">
<path d="M647 753 c-4 -3 -7 -13 -7 -21 0 -8 -11 -23 -25 -34 -24 -19 -25 -24
-23 -111 3 -85 5 -93 26 -102 25 -11 28 -32 7 -59 -14 -18 -16 -18 -33 -3 -26
24 -73 22 -79 -3 -15 -55 -68 10 -58 70 7 44 -6 77 -38 90 -12 6 -30 16 -39
22 -14 10 -22 10 -35 2 -14 -9 -18 -25 -17 -70 0 -37 5 -59 13 -62 17 -6 51
-43 51 -56 0 -6 -5 -18 -10 -26 -8 -12 -13 -13 -30 -2 -11 6 -31 12 -45 12
-20 0 -25 -5 -25 -24 0 -27 -24 -51 -44 -43 -8 3 -12 15 -9 29 3 15 -3 30 -16
42 -12 11 -21 29 -21 42 0 13 -10 34 -23 48 -18 20 -35 26 -90 32 l-68 6 7
-73 c8 -81 26 -109 73 -109 19 0 30 -9 41 -33 11 -23 31 -40 72 -60 55 -27 56
-29 63 -77 4 -28 11 -50 16 -50 5 0 9 -17 9 -39 0 -21 6 -44 14 -51 63 -51
619 -54 720 -3 28 14 28 17 22 69 -5 44 -3 56 9 60 8 4 15 18 15 34 0 33 11
42 71 63 55 18 89 45 89 69 0 13 8 18 25 18 14 0 37 11 50 25 21 20 25 34 25
82 0 87 -5 91 -89 64 -74 -23 -91 -40 -91 -85 0 -14 -4 -26 -10 -26 -5 0 -10
-13 -10 -30 0 -37 -12 -38 -34 -5 -17 26 -54 33 -73 14 -17 -17 -43 -3 -43 22
0 12 11 30 25 41 27 21 31 50 14 111 -8 30 -15 37 -35 37 -38 0 -84 -51 -84
-92 0 -18 4 -39 9 -47 6 -9 2 -20 -12 -34 l-20 -20 -18 21 c-22 28 -47 28 -76
0 -20 -19 -25 -20 -37 -7 -23 23 -30 59 -12 59 21 0 39 37 32 65 -3 13 -2 27
4 30 5 3 10 25 10 49 0 36 -6 50 -42 89 -38 44 -73 59 -91 40z m50 -96 c16
-34 2 -51 -36 -42 -36 8 -40 28 -9 49 29 21 33 20 45 -7z m553 -206 c0 -11 -4
-22 -9 -25 -12 -8 -34 21 -26 34 11 17 35 11 35 -9z m-1142 -14 c4 -20 -25
-34 -40 -19 -15 15 -1 44 19 40 10 -2 19 -11 21 -21z m460 -105 c-14 -2 -32
-9 -38 -17 -7 -9 -24 -11 -51 -8 -31 5 -43 2 -54 -13 -7 -10 -16 -16 -20 -12
-4 4 2 16 13 28 15 17 27 20 53 15 20 -3 44 0 59 8 14 7 34 11 45 8 17 -5 16
-6 -7 -9z m182 -272 c0 -5 -7 -7 -15 -4 -8 4 -15 8 -15 10 0 2 7 4 15 4 8 0
15 -4 15 -10z"/>
</g>
</svg>
