<?xml version="1.0" standalone="no"?>
<!DOCTYPE svg PUBLIC "-//W3C//DTD SVG 20010904//EN"
 "http://www.w3.org/TR/2001/REC-SVG-20010904/DTD/svg10.dtd">
<svg version="1.0" xmlns="http://www.w3.org/2000/svg"
 width="72.000000pt" height="41.000000pt" viewBox="0 0 72.000000 41.000000"
 preserveAspectRatio="xMidYMid meet">
<metadata>
Created by potrace 1.13, written by Peter Selinger 2001-2015
</metadata>
<g transform="translate(0.000000,41.000000) scale(0.100000,-0.100000)"
fill="#000000" stroke="none">
<path d="M333 376 c-27 -28 -29 -68 -7 -122 11 -27 12 -35 3 -26 -7 6 -21 12
-30 12 -10 0 -20 -6 -22 -12 -3 -7 -6 -1 -6 14 -1 29 -25 48 -59 48 -22 0 -37
-39 -27 -71 5 -14 2 -19 -13 -19 -11 0 -22 -6 -25 -12 -4 -12 -9 3 -22 65 -3
17 -16 26 -51 36 -54 16 -64 9 -64 -51 0 -39 6 -48 71 -98 53 -42 59 -50 59
-85 0 -25 5 -34 23 -39 42 -13 213 -19 320 -11 88 6 107 10 107 23 0 24 23 82
32 82 5 0 20 11 33 24 13 14 32 26 42 28 15 3 18 15 20 67 l2 63 -41 -6 c-53
-9 -68 -21 -68 -57 0 -15 -4 -31 -10 -34 -5 -3 -10 -1 -10 4 0 6 -7 11 -15 11
-9 0 -15 9 -15 23 0 42 -12 67 -32 67 -27 0 -48 -24 -49 -57 0 -15 -3 -22 -6
-15 -6 14 -43 16 -43 2 0 -5 -4 -10 -10 -10 -16 0 -12 46 6 61 21 17 12 59
-19 93 -30 32 -46 32 -74 2z"/>
</g>
</svg>
