<?xml version="1.0" standalone="no"?>
<!DOCTYPE svg PUBLIC "-//W3C//DTD SVG 20010904//EN"
 "http://www.w3.org/TR/2001/REC-SVG-20010904/DTD/svg10.dtd">
<svg version="1.0" xmlns="http://www.w3.org/2000/svg"
 width="425.000000pt" height="383.000000pt" viewBox="0 0 425.000000 383.000000"
 preserveAspectRatio="xMidYMid meet">
<metadata>
Created by potrace 1.13, written by Peter Selinger 2001-2015
</metadata>
<g transform="translate(0.000000,383.000000) scale(0.100000,-0.100000)"
fill="#000000" stroke="none">
<path d="M1469 3206 c-9 -10 -225 -36 -374 -46 -105 -6 -152 -14 -188 -29 -27
-12 -61 -21 -75 -21 -31 0 -158 -44 -179 -62 -8 -6 -21 -25 -29 -40 -14 -26
-13 -55 1 -261 8 -128 20 -270 26 -317 5 -47 12 -179 16 -295 3 -121 10 -218
17 -230 6 -11 11 -42 13 -70 2 -53 14 -160 32 -285 6 -41 26 -224 45 -407 28
-263 39 -339 54 -370 22 -41 82 -102 122 -124 32 -18 112 -75 162 -116 22 -18
51 -33 64 -33 14 0 42 -9 64 -20 22 -11 44 -20 50 -20 6 0 44 -19 83 -42 40
-23 92 -45 117 -49 25 -4 63 -14 85 -23 46 -17 188 -20 325 -6 181 19 249 29
267 38 10 5 38 13 63 17 25 4 68 14 95 22 28 8 68 19 90 26 43 12 175 78 265
132 67 41 94 69 153 161 26 39 56 79 68 89 38 36 51 83 48 190 -1 55 6 222 16
370 9 149 19 410 21 580 3 171 7 320 10 332 2 13 21 34 42 47 31 19 43 38 66
96 23 58 37 78 78 110 110 87 282 71 379 -37 89 -99 108 -270 64 -573 -21
-145 -31 -183 -71 -262 -69 -138 -149 -199 -274 -205 -103 -6 -154 19 -192 95
-15 29 -29 58 -31 65 -3 9 -8 9 -16 1 -8 -7 -16 -76 -22 -189 -9 -155 -8 -180
5 -193 12 -13 44 -15 173 -15 310 1 444 65 548 260 57 107 89 213 114 373 16
103 18 142 10 220 -12 120 -12 126 -4 181 5 33 3 54 -8 76 -9 16 -19 54 -23
84 -12 95 -57 168 -161 257 -83 72 -100 82 -186 111 -90 29 -102 31 -209 27
-62 -2 -142 -11 -178 -20 -124 -30 -144 -18 -155 95 -10 102 -30 187 -51 210
-65 72 -480 105 -1089 86 -27 0 -113 3 -190 7 -77 5 -143 6 -146 2z"/>
</g>
</svg>
