<?xml version="1.0" standalone="no"?>
<!DOCTYPE svg PUBLIC "-//W3C//DTD SVG 20010904//EN"
 "http://www.w3.org/TR/2001/REC-SVG-20010904/DTD/svg10.dtd">
<svg version="1.0" xmlns="http://www.w3.org/2000/svg"
 width="391.000000pt" height="361.000000pt" viewBox="0 0 391.000000 361.000000"
 preserveAspectRatio="xMidYMid meet">
<metadata>
Created by potrace 1.13, written by Peter Selinger 2001-2015
</metadata>
<g transform="translate(0.000000,361.000000) scale(0.100000,-0.100000)"
fill="#000000" stroke="none">
<path d="M1371 3094 c-342 -25 -658 -74 -768 -121 -19 -7 -42 -27 -52 -43 -16
-26 -16 -37 -5 -102 7 -43 14 -228 18 -448 3 -206 8 -404 11 -440 3 -36 12
-175 21 -310 8 -135 19 -283 24 -330 5 -47 11 -137 15 -200 3 -63 13 -142 21
-174 15 -63 99 -204 164 -279 54 -61 70 -98 70 -161 0 -93 45 -128 220 -167
216 -49 747 -30 1042 36 201 45 285 90 329 178 12 22 44 71 73 108 124 163
160 445 149 1166 -7 456 -10 437 74 467 26 10 68 25 92 33 56 21 132 8 227
-37 81 -39 199 -148 238 -221 132 -241 26 -509 -276 -703 -26 -16 -36 -17
-104 -7 -41 6 -88 18 -104 26 -16 8 -42 15 -59 15 -33 0 -34 -1 -46 -197 -6
-85 -5 -92 14 -102 52 -28 263 6 383 63 406 192 573 609 393 981 -47 96 -123
195 -192 250 -74 59 -107 76 -223 115 -52 18 -115 43 -140 56 -51 27 -79 29
-161 12 -71 -14 -96 -4 -127 51 -19 33 -22 59 -26 216 -5 171 -7 180 -29 202
-29 29 -158 57 -340 72 -171 15 -697 12 -926 -5z"/>
</g>
</svg>
