<?xml version="1.0" standalone="no"?>
<!DOCTYPE svg PUBLIC "-//W3C//DTD SVG 20010904//EN"
 "http://www.w3.org/TR/2001/REC-SVG-20010904/DTD/svg10.dtd">
<svg version="1.0" xmlns="http://www.w3.org/2000/svg"
 width="315.000000pt" height="356.000000pt" viewBox="0 0 315.000000 356.000000"
 preserveAspectRatio="xMidYMid meet">
<metadata>
Created by potrace 1.13, written by Peter Selinger 2001-2015
</metadata>
<g transform="translate(0.000000,356.000000) scale(0.100000,-0.100000)"
fill="#000000" stroke="none">
<path d="M1285 3261 c-40 -10 -80 -37 -100 -67 -20 -31 -37 -39 -254 -116
l-175 -62 -105 -89 c-150 -127 -151 -128 -151 -194 0 -43 7 -69 35 -122 l34
-66 61 -685 c49 -545 70 -733 101 -920 65 -383 86 -458 158 -538 16 -19 86
-57 190 -106 l163 -76 140 0 c133 0 146 2 308 45 93 25 172 45 176 45 4 0 49
41 100 92 l93 91 35 106 c34 104 35 110 41 326 5 164 11 226 21 242 21 33 89
64 269 122 230 75 331 135 402 239 40 60 41 66 48 169 6 80 3 137 -10 233 -18
121 -22 134 -84 261 l-66 133 -80 43 c-78 42 -82 43 -176 43 -64 0 -109 -5
-133 -15 -39 -17 -68 -9 -80 21 -3 8 -6 65 -6 125 0 82 4 118 16 141 18 34 14
130 -6 168 -16 30 -149 133 -235 183 -83 47 -196 78 -343 92 -86 8 -91 11
-113 62 -25 59 -76 83 -174 82 -38 -1 -84 -4 -100 -8z m1310 -1013 c37 -12 44
-21 86 -105 39 -79 48 -108 64 -213 19 -133 15 -272 -10 -319 -7 -14 -31 -43
-52 -63 -32 -31 -74 -50 -256 -117 -120 -44 -224 -78 -233 -74 -35 13 -35 37
-8 436 31 457 20 424 149 456 89 22 192 22 260 -1z"/>
</g>
</svg>
