<?xml version="1.0" standalone="no"?>
<!DOCTYPE svg PUBLIC "-//W3C//DTD SVG 20010904//EN"
 "http://www.w3.org/TR/2001/REC-SVG-20010904/DTD/svg10.dtd">
<svg version="1.0" xmlns="http://www.w3.org/2000/svg"
 width="364.000000pt" height="329.000000pt" viewBox="0 0 364.000000 329.000000"
 preserveAspectRatio="xMidYMid meet">
<metadata>
Created by potrace 1.13, written by Peter Selinger 2001-2015
</metadata>
<g transform="translate(0.000000,329.000000) scale(0.100000,-0.100000)"
fill="#000000" stroke="none">
<path d="M1532 2708 c-30 -18 -36 -19 -60 -7 -21 11 -100 15 -342 17 -387 5
-558 -8 -630 -45 -28 -14 -54 -31 -58 -37 -17 -23 22 -1077 48 -1316 5 -47 14
-157 20 -245 11 -149 14 -165 46 -237 37 -83 37 -89 -7 -146 -15 -20 -17 -36
-12 -110 9 -136 44 -182 198 -259 416 -208 1303 -159 1618 89 48 39 87 114 87
170 0 36 -6 49 -35 77 l-35 34 21 33 c11 19 18 38 14 43 -3 6 -1 68 5 138 5
70 12 191 15 267 3 76 8 148 10 160 3 12 16 153 30 315 13 161 29 299 35 306
6 7 21 16 34 19 13 3 28 18 34 33 43 118 58 146 88 172 90 79 239 55 346 -56
53 -55 95 -135 141 -266 30 -87 32 -99 31 -237 0 -126 -4 -158 -27 -244 -66
-240 -201 -391 -361 -403 -82 -7 -140 10 -189 56 -37 35 -41 43 -51 117 -10
69 -14 79 -33 82 -26 4 -33 -14 -38 -105 -2 -38 -7 -109 -11 -160 -6 -86 -5
-91 12 -87 11 3 49 -9 86 -26 379 -171 741 161 783 718 14 189 -45 421 -146
568 -74 108 -199 195 -289 200 -19 1 -48 7 -64 13 -34 14 -89 8 -199 -21 -128
-34 -153 -4 -141 169 8 111 1 126 -77 165 -64 32 -163 43 -539 58 -324 13
-320 13 -358 -12z"/>
</g>
</svg>
