<?xml version="1.0" standalone="no"?>
<!DOCTYPE svg PUBLIC "-//W3C//DTD SVG 20010904//EN"
 "http://www.w3.org/TR/2001/REC-SVG-20010904/DTD/svg10.dtd">
<svg version="1.0" xmlns="http://www.w3.org/2000/svg"
 width="366.000000pt" height="342.000000pt" viewBox="0 0 366.000000 342.000000"
 preserveAspectRatio="xMidYMid meet">
<metadata>
Created by potrace 1.13, written by Peter Selinger 2001-2015
</metadata>
<g transform="translate(0.000000,342.000000) scale(0.100000,-0.100000)"
fill="#000000" stroke="none">
<path d="M865 2754 c-11 -2 -100 -8 -197 -13 -98 -6 -187 -15 -198 -21 -39
-21 -44 -47 -41 -225 3 -218 37 -868 61 -1165 26 -323 91 -771 123 -843 25
-58 56 -85 140 -126 251 -123 713 -153 1177 -75 276 46 402 94 488 188 33 36
42 53 42 81 0 20 7 52 16 73 11 26 19 87 24 202 9 174 43 488 58 517 4 10 9
205 11 433 2 290 6 422 14 440 8 15 24 27 44 31 17 3 53 25 78 47 58 51 101
65 176 60 67 -5 97 -23 146 -87 37 -48 87 -194 104 -303 15 -96 6 -326 -15
-403 -43 -153 -137 -292 -259 -382 -73 -53 -131 -59 -187 -18 -34 25 -74 33
-84 16 -3 -5 -9 -47 -12 -95 l-7 -86 36 -15 c20 -8 65 -15 100 -15 217 0 437
146 540 360 163 336 128 802 -79 1038 -35 40 -67 62 -137 96 -114 55 -207 72
-316 56 -91 -13 -115 -1 -131 62 -6 24 -15 53 -20 66 -6 13 -8 33 -4 46 3 15
-2 28 -16 41 -22 19 -43 20 -839 21 -449 1 -825 0 -836 -2z"/>
</g>
</svg>
