<?xml version="1.0" standalone="no"?>
<!DOCTYPE svg PUBLIC "-//W3C//DTD SVG 20010904//EN"
 "http://www.w3.org/TR/2001/REC-SVG-20010904/DTD/svg10.dtd">
<svg version="1.0" xmlns="http://www.w3.org/2000/svg"
 width="380.000000pt" height="392.000000pt" viewBox="0 0 380.000000 392.000000"
 preserveAspectRatio="xMidYMid meet">
<metadata>
Created by potrace 1.13, written by Peter Selinger 2001-2015
</metadata>
<g transform="translate(0.000000,392.000000) scale(0.100000,-0.100000)"
fill="#000000" stroke="none">
<path d="M1045 3529 c-305 -12 -402 -41 -471 -140 -38 -55 -40 -107 -16 -329
12 -102 26 -250 32 -330 6 -80 15 -186 21 -237 5 -50 9 -169 10 -265 0 -95 4
-195 9 -223 9 -48 27 -406 35 -685 19 -658 17 -630 49 -691 34 -68 103 -149
160 -188 38 -27 55 -30 206 -45 91 -9 198 -26 238 -37 68 -19 93 -21 295 -16
232 5 288 13 452 64 132 41 306 150 368 231 55 73 68 142 77 417 5 138 12 282
16 320 3 39 9 255 13 480 8 462 4 440 89 539 30 34 62 87 77 125 60 150 123
211 217 211 110 0 184 -70 274 -257 91 -189 116 -269 118 -373 2 -138 -44
-204 -182 -266 -81 -37 -289 -76 -422 -80 l-115 -4 -12 -237 c-7 -131 -12
-253 -10 -272 l2 -33 104 96 c150 139 201 170 319 196 215 48 260 61 338 100
108 54 147 89 183 162 30 59 31 65 31 198 0 75 -6 179 -14 231 -36 230 -200
558 -330 658 -98 76 -133 86 -291 86 -77 0 -165 -4 -195 -8 -86 -12 -85 -14
-85 180 0 165 0 169 -27 214 -33 56 -92 97 -201 140 -81 31 -86 32 -312 40
-126 4 -293 15 -370 23 -147 17 -364 18 -680 5z"/>
</g>
</svg>
