<?xml version="1.0" standalone="no"?>
<!DOCTYPE svg PUBLIC "-//W3C//DTD SVG 20010904//EN"
 "http://www.w3.org/TR/2001/REC-SVG-20010904/DTD/svg10.dtd">
<svg version="1.0" xmlns="http://www.w3.org/2000/svg"
 width="357.000000pt" height="357.000000pt" viewBox="0 0 357.000000 357.000000"
 preserveAspectRatio="xMidYMid meet">
<metadata>
Created by potrace 1.13, written by Peter Selinger 2001-2015
</metadata>
<g transform="translate(0.000000,357.000000) scale(0.100000,-0.100000)"
fill="#000000" stroke="none">
<path d="M1295 3050 c-104 -10 -262 -28 -350 -41 -150 -21 -165 -25 -243 -67
-45 -24 -86 -51 -91 -59 -10 -19 -9 -30 34 -768 19 -314 44 -766 56 -1005 l21
-435 38 -80 c65 -139 98 -172 262 -257 133 -69 153 -77 285 -103 l141 -29 239
28 238 29 157 67 c212 90 288 153 288 236 0 23 9 110 20 193 11 83 22 179 23
213 3 77 19 91 69 60 85 -53 382 -3 449 74 9 11 41 55 70 99 50 74 58 94 101
255 38 142 50 207 62 346 9 94 16 212 16 262 0 83 -4 102 -46 219 -84 232 -97
248 -253 303 -63 22 -127 40 -143 40 -16 0 -69 -20 -119 -46 -72 -36 -94 -43
-105 -33 -11 9 -14 47 -14 178 0 129 -3 171 -14 187 -43 61 -309 122 -634 144
-202 13 -328 11 -557 -10z m1530 -595 c62 -17 97 -32 111 -49 12 -14 38 -73
58 -133 29 -87 36 -123 36 -186 0 -88 -28 -331 -63 -543 -21 -130 -26 -145
-60 -191 -29 -40 -56 -61 -120 -94 -75 -40 -88 -44 -152 -43 -85 1 -141 20
-168 56 l-21 28 28 522 c15 288 31 533 36 545 10 24 170 112 205 112 11 1 61
-10 110 -24z"/>
</g>
</svg>
