<?xml version="1.0" standalone="no"?>
<!DOCTYPE svg PUBLIC "-//W3C//DTD SVG 20010904//EN"
 "http://www.w3.org/TR/2001/REC-SVG-20010904/DTD/svg10.dtd">
<svg version="1.0" xmlns="http://www.w3.org/2000/svg"
 width="881.000000pt" height="873.000000pt" viewBox="0 0 881.000000 873.000000"
 preserveAspectRatio="xMidYMid meet">
<metadata>
Created by potrace 1.13, written by Peter Selinger 2001-2015
</metadata>
<g transform="translate(0.000000,873.000000) scale(0.100000,-0.100000)"
fill="#000000" stroke="none">
<path d="M3745 8030 c-3 -6 -11 -8 -16 -5 -7 5 -25 -25 -34 -57 -2 -5 -4 -11
-5 -15 -1 -5 -3 -12 -5 -18 -1 -5 -3 -12 -4 -15 -5 -10 -13 -46 -14 -62 -1
-10 -5 -18 -9 -18 -4 0 -5 -7 -2 -15 4 -8 1 -15 -7 -15 -7 0 -9 -3 -6 -7 4 -3
2 -12 -4 -20 -6 -7 -8 -13 -5 -13 4 0 -2 -9 -12 -20 -21 -22 -47 -19 -57 8 -3
9 -5 17 -3 18 2 1 -12 13 -30 29 -30 25 -34 26 -55 12 -23 -15 -24 -23 -14
-100 2 -15 7 -30 10 -34 4 -3 7 -17 7 -30 0 -12 5 -23 10 -23 6 0 9 -3 8 -7
-1 -5 4 -21 11 -38 19 -46 23 -71 9 -57 -26 26 -74 0 -73 -38 1 -25 33 -86 63
-118 19 -20 26 -35 21 -44 -12 -18 -11 -76 1 -83 6 -3 10 -15 10 -26 0 -10 5
-19 10 -19 6 0 10 -7 10 -15 0 -8 5 -15 10 -15 6 0 10 -7 10 -16 0 -8 6 -22
13 -29 38 -43 39 -45 19 -45 -10 0 -23 5 -30 12 -7 7 -12 8 -12 3 0 -4 -8 1
-17 11 -10 11 -34 32 -54 47 -19 15 -42 39 -50 54 -8 16 -21 33 -29 40 -8 7
-12 13 -8 13 4 0 -3 11 -15 24 -13 13 -23 35 -24 47 -1 13 -7 25 -13 27 -5 2
-10 10 -10 18 0 9 -5 25 -12 37 -7 12 -13 45 -14 72 -2 28 -5 61 -8 75 -3 14
-8 37 -12 53 -3 15 -10 27 -15 27 -5 0 -9 6 -9 13 0 7 -14 24 -31 36 -28 21
-33 22 -47 8 -13 -13 -13 -19 -2 -31 9 -12 9 -16 1 -16 -7 0 -10 -4 -7 -9 11
-17 16 -121 6 -121 -6 0 -10 7 -10 15 0 8 -6 15 -12 15 -10 0 -9 3 1 9 9 6 10
11 2 15 -6 4 -9 11 -6 16 3 4 -1 10 -8 13 -11 4 -13 26 -10 94 6 130 4 147
-15 157 -48 28 -72 2 -81 -86 -1 -4 -12 -19 -25 -33 -22 -24 -56 -26 -56 -3 0
5 -4 7 -9 3 -5 -3 -12 -1 -16 5 -4 6 -12 5 -21 -5 -9 -8 -12 -19 -9 -25 3 -5
0 -10 -7 -10 -11 0 -11 -2 0 -9 7 -4 12 -12 11 -17 -5 -15 12 -57 37 -93 13
-19 21 -38 19 -42 -10 -15 -14 -79 -5 -79 4 0 6 -9 3 -20 -3 -11 0 -20 6 -20
6 0 11 -7 11 -15 0 -9 9 -25 20 -37 10 -12 17 -25 14 -30 -3 -4 0 -8 6 -8 6 0
9 -4 6 -8 -3 -5 11 -22 32 -38 43 -34 68 -58 73 -70 6 -13 99 -88 99 -79 0 4
17 -8 38 -26 21 -19 52 -45 68 -58 53 -44 95 -81 92 -82 -2 0 -12 -2 -23 -4
-11 -2 -35 -7 -52 -10 -18 -3 -33 -10 -33 -16 0 -6 -4 -8 -9 -4 -5 3 -12 1
-16 -5 -4 -6 -10 -8 -15 -5 -5 3 -19 -4 -31 -16 -12 -12 -24 -17 -28 -13 -3 5
-15 10 -26 11 -25 3 -60 11 -60 13 0 1 -27 3 -60 4 -34 2 -71 8 -83 15 -12 6
-22 9 -22 6 0 -3 -18 6 -40 20 -22 14 -40 23 -40 20 0 -3 -13 1 -29 10 -17 8
-40 17 -53 19 -13 3 -23 5 -23 6 0 3 -56 9 -132 13 -40 2 -73 1 -73 -4 0 -4
-12 -6 -27 -5 -16 2 -32 1 -38 -2 -5 -4 -21 -8 -35 -10 -14 -2 -26 -7 -28 -13
-2 -5 -10 -9 -18 -9 -8 0 -14 -5 -14 -12 0 -6 -3 -9 -6 -5 -8 7 -34 -17 -34
-32 0 -6 -4 -11 -8 -11 -15 0 -52 -37 -45 -44 3 -3 0 -6 -9 -6 -8 0 -23 -9
-33 -20 -10 -11 -20 -18 -23 -16 -8 8 -53 -52 -61 -82 -7 -25 -8 -142 -1 -149
1 -2 3 -8 4 -13 1 -9 21 -28 82 -79 6 -5 20 -12 32 -15 11 -4 24 -16 27 -26 7
-21 70 -85 78 -79 3 2 13 -3 23 -11 40 -33 134 -62 134 -41 0 6 11 6 30 0 16
-6 30 -15 30 -20 0 -5 5 -9 11 -9 13 0 59 -46 59 -59 0 -5 11 -16 25 -25 14
-9 25 -24 25 -32 0 -9 11 -25 24 -35 13 -10 24 -29 24 -43 0 -14 7 -32 16 -41
19 -19 19 -17 6 -49 -8 -21 -6 -29 12 -46 19 -18 20 -20 4 -20 -12 0 -16 -6
-14 -22 2 -15 9 -22 20 -22 14 1 12 -6 -12 -34 -26 -32 -27 -37 -13 -47 15
-11 15 -16 0 -82 -2 -7 -6 -15 -10 -19 -3 -4 -2 -15 4 -25 7 -14 6 -19 -2 -19
-7 0 -9 -11 -5 -34 5 -28 2 -39 -17 -58 -13 -13 -22 -29 -19 -36 2 -7 -2 -12
-8 -12 -10 0 -10 -4 0 -15 9 -11 9 -15 1 -15 -6 0 -10 -13 -9 -29 1 -16 -3
-35 -8 -43 -11 -13 -12 -64 -1 -74 3 -3 15 -3 27 1 15 5 18 10 11 18 -6 8 -5
18 4 31 15 19 40 12 31 -9 -2 -7 2 -16 10 -19 11 -4 12 -11 6 -22 -11 -20 16
-84 36 -84 12 0 12 -3 2 -15 -7 -8 -9 -22 -6 -31 4 -9 1 -23 -5 -30 -8 -10 -8
-14 0 -14 6 0 11 -9 11 -19 0 -11 4 -22 9 -26 10 -6 -16 -64 -34 -77 -6 -5 -4
-13 6 -23 14 -15 18 -15 31 -1 11 10 18 12 26 4 8 -8 19 -2 41 19 21 22 34 27
45 21 30 -17 50 18 51 87 0 35 3 61 7 59 3 -2 13 -1 22 2 16 6 22 54 9 68 -16
16 -10 40 18 67 19 18 28 36 25 47 -15 51 -5 129 15 117 5 -4 12 0 15 9 3 8
12 12 20 9 8 -3 14 -1 14 5 0 5 11 8 25 7 14 -2 27 1 31 6 3 5 13 9 22 9 15 0
15 -2 2 -10 -12 -7 -12 -10 -1 -10 7 0 11 -6 7 -15 -3 -9 3 -19 14 -25 16 -9
20 -8 20 5 0 9 5 13 10 10 6 -4 8 -15 5 -26 -4 -11 -2 -19 5 -19 8 0 10 -9 6
-25 -4 -17 0 -31 14 -45 11 -11 16 -20 10 -20 -5 0 -10 -7 -10 -15 0 -8 -6
-15 -12 -15 -10 0 -10 -2 0 -9 8 -5 11 -17 7 -33 -7 -26 15 -45 37 -31 7 3 8
1 4 -5 -4 -7 -2 -12 5 -12 9 0 9 -3 0 -14 -9 -11 -8 -17 3 -29 9 -8 11 -18 6
-23 -11 -11 31 -69 49 -69 6 0 11 -4 10 -9 0 -5 5 -12 11 -16 9 -6 9 -13 -2
-29 -11 -19 -11 -24 3 -34 19 -14 14 -35 -15 -60 -16 -14 -18 -20 -7 -26 8 -5
11 -13 7 -19 -3 -5 1 -15 9 -22 16 -13 21 -35 6 -26 -12 8 -23 -23 -14 -37 10
-15 12 -67 2 -62 -13 9 -31 -24 -24 -42 13 -30 12 -54 -1 -68 -7 -7 -9 -16 -5
-21 17 -19 21 -73 6 -88 -18 -18 -19 -43 -2 -49 8 -4 9 -8 1 -14 -15 -11 -9
-124 7 -134 7 -4 16 -6 20 -3 10 6 0 -47 -10 -61 -5 -5 -9 -23 -9 -39 0 -15
-6 -32 -13 -37 -11 -7 -11 -11 -2 -17 14 -9 -26 -91 -69 -143 -16 -18 -28 -39
-28 -46 0 -7 -4 -13 -9 -13 -5 0 -11 -11 -15 -23 -3 -13 -21 -41 -41 -61 -19
-21 -35 -40 -35 -42 0 -11 -28 -33 -34 -27 -3 4 -6 1 -6 -5 0 -7 -6 -12 -12
-12 -28 -1 -168 -138 -168 -165 0 -7 -7 -18 -15 -25 -8 -7 -13 -16 -10 -20 3
-5 -4 -15 -16 -24 -12 -8 -18 -19 -14 -25 3 -6 1 -11 -4 -11 -6 0 -11 -7 -11
-15 0 -8 -4 -15 -10 -15 -5 0 -10 -5 -10 -11 0 -5 -11 -24 -26 -42 -14 -18
-26 -36 -27 -42 -1 -10 -32 -47 -69 -87 -10 -10 -18 -21 -18 -24 0 -7 -62 -64
-70 -64 -3 0 -14 -14 -23 -30 -10 -17 -24 -30 -31 -30 -8 0 -16 -7 -20 -15 -3
-8 -12 -15 -21 -15 -8 0 -15 -4 -15 -9 0 -12 -58 -71 -70 -71 -6 0 -10 -6 -10
-13 0 -8 -11 -19 -25 -25 -14 -7 -28 -19 -31 -27 -4 -8 -10 -13 -15 -10 -4 3
-13 -4 -19 -15 -6 -11 -17 -20 -25 -20 -7 0 -20 -6 -27 -13 -7 -8 -21 -14 -31
-15 -42 -4 -47 -6 -47 -14 0 -4 -7 -8 -15 -8 -8 0 -30 -15 -48 -33 -32 -33
-85 -62 -95 -52 -3 2 -10 0 -17 -5 -6 -5 -36 -12 -66 -16 -30 -3 -68 -13 -85
-21 -17 -8 -41 -15 -53 -16 -11 -1 -21 -7 -21 -15 0 -7 -4 -11 -9 -8 -5 3 -18
-9 -30 -26 l-20 -33 22 -12 c12 -7 18 -12 13 -13 -5 0 -3 -7 4 -15 7 -8 9 -15
5 -15 -5 0 -2 -8 6 -17 8 -10 21 -30 29 -45 7 -16 21 -28 31 -28 10 0 21 -5
24 -11 7 -10 50 -31 70 -33 6 -1 25 -9 42 -19 32 -17 83 -15 83 4 0 5 6 9 13
9 7 0 25 19 40 42 35 54 68 60 88 15 20 -45 69 -43 112 6 9 11 17 17 17 14 0
-3 11 5 25 19 14 14 23 30 20 35 -4 5 -1 9 5 9 7 0 10 7 6 15 -3 8 -1 15 3 15
10 0 34 61 27 67 -5 5 17 34 57 74 15 16 27 31 27 34 0 11 35 45 47 45 7 0 13
5 13 11 0 7 8 19 18 28 10 9 25 27 34 40 25 36 157 171 167 171 5 0 19 14 31
31 12 16 25 28 28 25 3 -3 12 3 19 14 8 11 19 18 24 15 5 -4 9 1 9 9 0 9 6 16
13 16 21 0 129 73 179 119 23 23 46 41 49 41 3 0 12 11 19 25 7 13 17 22 22
19 6 -4 26 9 46 29 21 19 46 38 57 41 11 3 32 17 47 31 15 14 32 25 38 25 15
0 70 55 70 70 0 10 3 10 15 0 10 -9 15 -9 15 -1 0 6 7 11 15 11 8 0 19 9 25
20 6 11 15 18 19 15 5 -3 12 2 15 11 3 8 11 12 17 8 11 -6 69 52 69 69 0 5 4
6 9 2 5 -3 12 -1 16 5 3 5 15 10 26 10 10 0 19 5 19 10 0 6 6 10 14 10 8 0 16
5 18 10 4 13 80 40 91 33 4 -2 1 -14 -8 -25 -13 -19 -12 -23 7 -40 12 -10 27
-18 33 -18 7 0 11 -10 9 -22 -12 -90 -16 -115 -21 -128 -10 -24 -15 -44 -16
-62 -1 -10 -4 -18 -8 -18 -7 0 -21 -36 -22 -60 -1 -8 -5 -17 -9 -20 -4 -3 -9
-17 -10 -30 -2 -14 -7 -28 -11 -31 -4 -3 -9 -16 -10 -27 -1 -12 -5 -22 -10
-22 -5 0 -7 -6 -4 -12 2 -7 -6 -23 -19 -34 -12 -12 -20 -25 -16 -28 3 -4 2
-10 -3 -14 -6 -4 -19 -25 -30 -47 -11 -21 -30 -51 -41 -65 -12 -14 -22 -29
-23 -35 -1 -5 -11 -21 -22 -33 -11 -13 -18 -26 -15 -29 2 -3 -4 -14 -14 -26
-11 -11 -17 -24 -14 -29 3 -4 2 -8 -3 -8 -4 0 -9 -36 -9 -80 -1 -44 3 -80 8
-80 5 0 6 -5 3 -11 -6 -9 -14 -112 -18 -216 -1 -13 -4 -23 -8 -23 -4 0 -4 -12
0 -27 5 -16 6 -37 4 -48 -6 -29 -12 -70 -17 -107 -2 -18 -9 -34 -14 -36 -6 -2
-8 -10 -5 -18 3 -8 0 -14 -7 -14 -6 0 -9 -4 -5 -9 6 -11 -34 -123 -48 -132 -5
-4 -6 -12 -3 -18 4 -6 2 -11 -4 -11 -11 0 -30 -39 -37 -74 -2 -11 -10 -27 -18
-36 -8 -9 -15 -21 -15 -26 -1 -16 -38 -54 -52 -54 -8 0 -23 -7 -34 -15 -10 -8
-27 -15 -37 -15 -10 0 -28 -5 -40 -12 -12 -7 -28 -13 -35 -14 -8 -1 -21 -6
-30 -10 -9 -4 -23 -8 -31 -10 -8 -1 -23 -11 -33 -22 -19 -18 -18 -19 19 -53
59 -52 124 -104 137 -108 6 -2 19 -10 29 -19 9 -8 17 -11 17 -7 0 4 8 1 18 -7
17 -15 43 -25 95 -34 33 -6 62 15 71 52 4 13 13 24 21 24 8 0 15 5 15 11 0 6
7 9 15 5 8 -3 15 -2 15 3 0 5 9 11 20 14 11 3 20 2 20 -2 0 -3 9 -12 20 -18
17 -11 24 -8 54 23 20 20 33 40 31 44 -3 5 0 10 7 12 15 5 20 196 5 205 -5 3
-3 9 4 14 8 5 9 9 3 9 -5 0 -9 17 -8 37 1 21 -2 48 -7 59 -4 12 -5 25 -1 28 7
8 11 29 15 73 1 18 6 33 11 33 5 0 3 6 -3 14 -9 10 -9 15 -1 18 6 2 13 19 14
38 2 19 6 43 11 53 4 10 5 20 2 23 -2 3 0 24 5 47 5 23 11 54 13 69 5 42 15
68 26 68 6 0 7 4 4 10 -3 5 1 31 11 57 9 27 17 55 19 63 2 8 4 15 5 15 1 0 3
11 6 24 2 13 12 31 22 40 29 26 58 73 66 106 9 38 36 96 53 113 7 7 10 19 7
27 -4 9 0 15 7 15 8 0 23 14 34 30 11 16 24 30 28 30 10 0 32 21 36 35 10 32
18 43 52 77 21 20 40 34 43 31 3 -4 6 -2 6 3 0 5 13 24 30 42 16 18 37 49 47
70 9 20 22 42 28 48 33 37 45 56 40 64 -15 25 25 6 65 -30 24 -22 41 -40 37
-40 -4 0 6 -14 23 -30 17 -17 28 -30 24 -30 -4 0 1 -9 11 -20 10 -11 15 -23
12 -27 -4 -3 4 -21 18 -39 14 -18 25 -38 25 -45 0 -6 8 -19 18 -28 27 -25 41
-57 36 -78 -3 -11 2 -27 10 -36 9 -8 16 -20 16 -26 0 -10 5 -12 37 -15 6 -1
21 -10 33 -21 12 -11 27 -20 33 -21 7 0 18 -2 26 -2 7 -1 11 -8 7 -17 -3 -9 3
-19 15 -25 15 -9 21 -7 25 5 3 8 10 12 15 9 5 -3 15 -2 21 2 23 15 76 14 88
-1 10 -13 14 -12 27 1 11 10 19 12 27 5 7 -6 21 -12 32 -14 10 -1 20 -6 21
-10 1 -5 13 -17 28 -28 14 -12 23 -24 20 -29 -3 -5 -2 -11 3 -14 4 -2 9 -21
10 -42 2 -20 7 -45 12 -55 6 -10 7 -25 4 -33 -3 -9 -1 -16 5 -16 6 0 10 -3 9
-7 -4 -13 24 -107 38 -127 7 -10 10 -24 7 -32 -3 -8 2 -17 11 -20 9 -3 14 -10
11 -14 -3 -5 0 -12 6 -16 8 -4 7 -9 -2 -15 -9 -6 -10 -9 -2 -9 6 0 14 -13 18
-30 4 -16 11 -30 16 -30 5 0 9 -8 9 -18 0 -10 4 -22 9 -27 6 -6 12 -23 15 -39
3 -16 10 -34 15 -39 5 -5 7 -16 4 -23 -3 -8 -1 -14 3 -14 5 0 10 -11 11 -25 4
-53 6 -60 17 -67 8 -5 7 -8 -1 -8 -9 0 -10 -7 -4 -22 9 -24 -2 -60 -26 -89 -7
-9 -10 -18 -7 -22 3 -3 -3 -11 -14 -18 -11 -7 -18 -19 -15 -26 3 -7 0 -13 -6
-13 -6 0 -11 -7 -11 -15 0 -8 -5 -15 -11 -15 -6 0 -9 -5 -7 -12 2 -6 -24 -40
-59 -75 -35 -35 -68 -75 -73 -88 -5 -14 -16 -25 -25 -25 -8 0 -15 -3 -15 -8 0
-12 -82 -97 -91 -95 -5 2 -9 -1 -9 -6 0 -6 -11 -22 -25 -37 -14 -15 -25 -24
-25 -20 0 4 -11 -3 -25 -16 -46 -43 -124 -95 -137 -90 -5 1 -8 -2 -8 -7 0 -7
-28 -19 -47 -19 -3 0 -9 -5 -13 -12 -4 -6 -17 -12 -28 -13 -12 -1 -22 -7 -22
-15 0 -7 -4 -11 -9 -8 -5 3 -20 -4 -35 -15 -14 -11 -26 -18 -26 -14 0 3 -15
-2 -32 -12 -31 -17 -38 -22 -71 -50 -17 -13 -104 -54 -127 -58 -8 -2 -16 -4
-17 -5 -2 -2 -8 -3 -13 -4 -6 0 -15 -8 -20 -16 -5 -8 -10 -10 -10 -5 0 6 -4 4
-9 -3 -4 -7 -22 -14 -39 -14 -18 -1 -32 -5 -32 -9 0 -5 -7 -6 -15 -3 -8 4 -15
1 -15 -5 0 -6 -3 -10 -7 -9 -13 2 -67 -14 -80 -25 -7 -5 -13 -15 -13 -22 0
-14 69 -84 73 -75 3 5 6 3 72 -55 22 -19 45 -35 50 -35 6 0 26 -13 45 -30 34
-29 34 -29 53 -10 18 20 37 26 37 13 0 -10 66 -10 75 -1 4 4 20 -2 35 -14 27
-19 30 -20 45 -4 9 9 20 14 24 11 11 -6 86 83 95 113 4 12 12 22 17 22 6 0 7
5 3 11 -3 6 0 15 7 20 8 4 14 12 15 16 2 19 17 43 26 43 6 0 21 11 34 25 13
14 26 25 30 25 4 0 18 10 30 21 25 24 59 45 87 55 9 3 17 10 17 15 0 25 221
218 243 211 4 -1 7 3 7 9 0 12 40 48 53 49 5 0 14 6 21 13 8 6 24 19 36 27 13
8 31 24 41 34 10 11 22 17 25 13 10 -10 7 -112 -4 -133 -5 -11 -7 -25 -5 -31
3 -7 0 -13 -6 -13 -6 0 -11 -11 -11 -25 0 -14 -3 -25 -8 -25 -4 0 -8 -15 -9
-32 -1 -29 -6 -53 -17 -93 -2 -5 -8 -21 -13 -35 -6 -14 -10 -27 -10 -30 0 -3
-10 -24 -21 -46 -12 -23 -19 -44 -16 -46 2 -3 -1 -18 -7 -34 -13 -31 -18 -48
-23 -79 -2 -11 -13 -49 -25 -84 -13 -36 -23 -73 -24 -83 -1 -10 -5 -18 -9 -18
-4 0 -7 -3 -6 -7 1 -5 -3 -19 -9 -33 -6 -14 -20 -46 -30 -72 -10 -27 -22 -48
-26 -48 -5 0 -6 -4 -2 -10 3 -5 -2 -18 -12 -28 -30 -31 -67 -75 -93 -110 -24
-32 -150 -101 -199 -109 -13 -2 -42 -10 -64 -18 -22 -8 -44 -12 -47 -10 -4 2
-13 -7 -20 -20 -7 -14 -18 -25 -24 -25 -5 0 0 -9 12 -20 12 -12 31 -38 42 -60
17 -34 60 -73 60 -55 0 4 17 -10 38 -29 20 -20 42 -36 49 -36 6 0 18 -7 27
-15 8 -9 18 -15 21 -15 3 0 18 -6 34 -14 16 -9 41 -13 57 -10 40 7 83 59 79
94 -3 23 0 28 18 28 12 1 35 2 50 3 15 1 37 -7 47 -16 11 -10 20 -15 20 -10 0
4 6 3 13 -3 9 -8 18 -5 34 12 26 27 63 92 56 99 -3 3 -1 12 3 19 5 7 10 24 11
38 1 14 5 39 9 55 3 17 7 40 7 53 1 12 6 22 11 22 5 0 7 3 4 6 -4 3 -2 20 4
37 5 18 11 41 13 52 5 25 12 61 22 100 4 17 6 33 5 37 -1 5 2 8 6 8 5 0 8 14
7 30 -1 17 3 30 8 30 6 0 8 3 4 6 -7 7 42 148 54 152 4 2 5 10 2 18 -3 8 0 14
7 14 6 0 9 4 6 9 -6 9 51 171 63 181 3 3 7 16 9 30 1 13 7 27 13 31 6 3 11 10
11 15 1 11 21 57 28 64 3 3 16 29 30 57 14 29 28 53 33 53 4 0 7 7 7 15 0 8 4
15 10 15 5 0 13 12 16 27 4 16 14 36 22 46 8 9 12 17 7 17 -4 0 -1 7 6 16 14
18 31 45 51 84 7 14 20 32 28 40 9 8 24 38 35 65 10 28 23 53 29 57 6 4 12 12
12 18 1 5 3 12 4 15 6 12 5 30 -1 35 -4 3 -10 23 -13 45 -8 69 -28 159 -37
177 -7 13 -6 18 3 18 8 0 9 3 3 8 -5 4 -10 16 -9 27 0 11 -3 29 -7 41 -4 11
-8 36 -10 55 -2 19 -7 40 -12 47 -5 6 -7 12 -4 12 3 0 -2 24 -12 53 l-18 52
28 28 c15 15 42 30 59 33 16 4 30 10 30 15 0 5 3 8 8 7 4 -1 18 4 30 11 13 7
26 10 29 7 4 -3 12 -1 20 5 7 6 13 9 13 5 0 -4 14 0 30 9 17 9 30 12 30 9 0
-4 11 5 24 21 13 15 28 25 34 21 5 -3 12 1 16 9 3 8 14 15 26 15 11 0 32 13
47 28 16 16 44 36 63 45 19 9 41 25 48 37 7 11 17 18 21 15 5 -2 11 2 15 10 3
8 12 15 19 15 8 0 26 9 40 20 15 12 28 20 29 18 2 -2 10 3 18 10 48 41 64 52
77 52 7 0 13 4 13 9 0 5 19 18 43 29 24 11 54 32 68 47 13 15 32 35 41 45 9
10 14 21 10 24 -3 3 2 6 11 6 9 0 17 5 17 11 0 13 38 49 52 49 4 0 8 5 8 11 0
6 7 17 15 25 8 9 15 12 15 8 0 -3 7 -1 15 6 8 7 12 16 9 21 -3 5 0 9 6 9 7 0
10 7 6 15 -3 8 -1 15 5 15 6 0 9 7 5 15 -3 8 -1 15 4 15 6 0 9 3 8 8 -1 4 2
23 5 42 9 47 19 132 18 150 -1 8 -1 23 -2 32 0 10 -4 20 -8 23 -5 2 -7 16 -6
30 2 14 0 25 -3 25 -4 0 -8 16 -9 35 -4 58 -7 75 -13 75 -3 0 -12 27 -19 60
-8 33 -17 60 -22 60 -4 0 -6 9 -4 19 2 11 -3 22 -12 25 -9 4 -13 9 -10 12 3 3
-1 23 -8 45 -8 21 -12 39 -8 39 3 0 0 7 -7 15 -7 8 -9 15 -5 15 4 0 1 7 -6 17
-8 9 -13 18 -11 20 1 1 2 4 1 6 -4 14 -9 36 -11 52 -2 11 -9 24 -16 28 -7 5
-10 13 -6 18 3 5 0 16 -6 24 -7 8 -9 15 -6 15 4 0 1 12 -7 28 -16 29 -34 72
-35 85 -1 4 -13 24 -26 44 -14 20 -23 40 -20 45 3 4 0 8 -5 8 -6 0 -22 17 -35
38 -23 38 -131 112 -162 112 -8 0 -14 4 -14 9 0 4 -21 16 -47 26 -50 19 -102
53 -93 61 8 8 -117 69 -132 66 -5 -1 -7 3 -5 9 1 5 -27 26 -63 45 -36 19 -73
40 -83 47 -10 6 -22 11 -26 10 -5 -1 -14 9 -21 22 -7 14 -18 25 -25 25 -12 0
-43 22 -78 55 -12 12 -45 39 -74 62 -29 22 -50 43 -47 46 3 2 -6 14 -20 25
-15 11 -26 25 -26 31 0 6 -4 11 -10 11 -5 0 -9 3 -8 8 1 4 -3 17 -10 30 -7 12
-10 22 -6 22 3 0 1 7 -6 15 -7 8 -9 15 -4 15 5 0 1 5 -8 11 -10 5 -15 16 -12
24 4 8 1 15 -7 15 -7 0 -9 3 -6 7 4 3 2 12 -4 19 -6 8 -9 20 -6 28 5 13 -5 23
-28 24 -14 1 -24 36 -12 44 8 4 5 13 -6 26 -9 10 -17 24 -17 30 0 7 -9 21 -20
32 -11 11 -15 20 -10 20 7 0 7 6 0 20 -6 11 -8 20 -4 20 3 0 -5 15 -20 34 -14
19 -26 41 -26 49 0 7 -3 17 -7 21 -5 4 -8 11 -8 14 -1 4 -7 18 -14 32 -9 16
-10 25 -3 28 5 1 -7 21 -28 44 -21 22 -44 37 -50 33 -6 -3 -9 -2 -8 3 2 5 -14
26 -35 46 -21 20 -36 36 -32 36 3 0 1 9 -5 21 -7 12 -17 18 -27 15 -25 -10
-63 5 -63 24 0 23 -26 44 -45 36 -9 -3 -15 0 -15 8 0 17 -33 31 -38 16 -2 -6
-22 8 -44 30 -23 22 -43 38 -45 36 -3 -3 -14 4 -26 14 -14 14 -24 17 -33 10
-8 -8 -14 -6 -18 6 -3 9 -13 14 -21 10 -8 -3 -39 8 -70 24 -30 16 -55 26 -55
22 0 -4 -6 4 -13 18 -8 14 -19 24 -27 22 -7 -2 -10 3 -7 12 8 20 -22 36 -48
25 -31 -12 -42 -10 -22 5 17 13 17 15 -4 30 -17 11 -26 13 -36 4 -9 -8 -13 -7
-13 1 0 7 -4 10 -9 7 -5 -3 -14 1 -21 9 -7 8 -18 15 -25 15 -17 0 -55 35 -55
50 0 21 -38 47 -65 45 -39 -5 -29 14 18 34 29 13 46 15 55 9 6 -6 12 -7 12 -4
0 4 7 0 16 -8 8 -9 21 -16 29 -16 7 0 15 -4 17 -10 2 -5 18 -10 36 -12 17 -1
32 -5 32 -8 0 -4 6 -7 13 -7 11 -1 70 -13 127 -27 49 -12 194 -15 207 -4 7 5
19 8 27 5 7 -3 19 0 25 6 8 8 11 7 11 -4 1 -10 5 -8 16 6 8 11 23 20 33 20 16
0 37 8 91 35 9 4 39 11 67 15 29 4 57 13 64 21 6 8 20 14 30 14 9 0 24 6 31
13 23 21 75 47 82 40 3 -3 6 1 6 10 0 10 4 17 9 17 5 0 28 18 51 40 23 22 46
40 51 40 5 0 9 7 9 16 0 8 4 13 9 10 9 -6 66 62 66 79 0 6 -10 18 -23 28 -17
14 -26 16 -36 8 -7 -6 -16 -8 -20 -4 -3 4 -14 -2 -24 -13 -10 -10 -31 -28 -46
-39 -15 -11 -39 -30 -54 -42 -14 -12 -29 -20 -33 -17 -4 2 -9 1 -11 -3 -10
-23 -178 -80 -178 -61 0 8 60 68 60 60 0 -4 7 1 14 11 8 10 16 17 19 15 3 -2
16 6 29 17 34 28 65 45 83 45 8 0 15 6 15 13 0 8 6 14 13 14 25 1 42 9 59 28
9 11 17 17 18 12 0 -14 88 80 95 102 3 11 10 21 15 21 8 0 19 33 26 80 2 14 5
34 8 46 4 21 -37 84 -55 84 -6 0 -16 -15 -24 -34 -8 -19 -19 -38 -25 -41 -6
-4 -8 -10 -6 -14 5 -7 -32 -39 -46 -41 -4 0 -20 -12 -34 -26 -15 -13 -32 -23
-38 -21 -19 6 -19 58 1 79 10 11 17 22 15 24 -6 8 10 64 18 64 13 0 2 62 -14
78 -23 24 -62 7 -87 -38 -12 -22 -25 -38 -27 -35 -8 8 -32 -16 -26 -26 3 -5 0
-9 -6 -9 -7 0 -10 -7 -6 -15 3 -8 1 -15 -4 -15 -6 0 -10 -6 -10 -13 0 -7 -9
-19 -21 -27 -11 -8 -30 -23 -41 -32 -27 -23 -29 -23 -24 6 2 14 -1 27 -7 30
-9 3 -9 5 -1 5 18 1 -1 69 -27 97 -12 13 -25 24 -28 24 -18 -1 -53 -44 -53
-65 0 -16 -8 -27 -21 -31 -34 -11 -70 -53 -64 -75 4 -15 2 -18 -7 -10 -7 6
-16 7 -21 3 -4 -4 -5 4 -1 18 3 14 9 37 12 53 4 15 12 27 19 27 7 0 16 7 19
16 3 8 10 12 16 9 5 -3 10 -3 10 2 0 4 11 21 25 37 14 16 25 26 25 22 0 -6 59
53 86 86 21 26 23 46 5 62 -26 23 -43 20 -84 -18 -20 -18 -37 -31 -37 -27 0 3
-6 -1 -13 -9 -19 -23 -37 -22 -38 3 -1 40 -9 72 -19 75 -6 2 -8 7 -5 12 3 4
-2 13 -10 20 -13 11 -20 9 -40 -10 -13 -13 -22 -30 -20 -42 2 -10 -1 -31 -6
-46 -6 -15 -13 -38 -16 -52 -5 -30 -5 -30 -32 -35 -13 -2 -32 -7 -43 -11 -33
-10 -68 -12 -68 -3 0 5 5 9 10 9 6 0 10 7 10 15 0 8 3 15 8 15 4 0 14 13 23
29 16 27 16 30 -1 44 -22 19 -43 17 -68 -6 -10 -9 -21 -15 -24 -12 -3 3 -11
-1 -18 -10 -7 -8 -26 -15 -42 -15 -16 0 -44 -6 -63 -14 -33 -14 -34 -14 -59
19 -27 34 -32 47 -18 43 15 -4 52 23 66 50 9 15 15 22 16 15 0 -12 17 -12 38
0 6 5 17 5 22 2 6 -3 10 -2 10 2 0 5 16 17 35 27 19 11 35 26 35 35 0 20 -55
55 -75 48 -7 -3 -16 -3 -19 1 -11 10 -76 10 -76 -1 0 -6 -4 -6 -12 0 -7 6 -21
9 -30 8 -10 -2 -18 0 -18 4 0 4 -12 8 -27 10 -26 2 -56 6 -75 10 -20 3 -5 32
20 37 36 7 107 56 108 74 1 31 -31 49 -77 44 -24 -3 -46 -10 -47 -15 -3 -6
-10 -5 -18 2 -11 9 -14 9 -14 0 0 -7 -5 -9 -11 -5 -6 3 -14 3 -18 -2 -8 -12
-66 -44 -79 -44 -6 0 -23 -5 -39 -12 -42 -18 -61 -17 -58 1 1 9 -2 22 -8 29
-6 7 -6 12 0 12 11 0 11 29 -1 48 -4 6 -3 12 2 12 7 0 9 59 2 68 -2 1 -3 6 -4
10 0 5 -9 17 -19 27 -18 17 -19 17 -42 -7 -13 -14 -21 -29 -17 -32 3 -4 1 -10
-6 -14 -10 -7 -19 -35 -21 -68 -1 -15 -45 -23 -63 -13 -32 18 -43 -8 -43 -95
0 -46 -3 -88 -7 -92 -5 -4 -8 -18 -8 -31 0 -13 -7 -26 -15 -29 -8 -4 -13 -9
-11 -13 7 -10 -15 -91 -24 -91 -4 0 -6 49 -4 108 4 98 2 111 -15 126 -19 17
-20 16 -45 -22 -14 -22 -30 -43 -36 -47 -6 -3 -8 -10 -5 -15 3 -5 1 -12 -5
-15 -7 -5 -8 -11 -1 -19 7 -8 4 -15 -10 -24 -16 -11 -19 -9 -19 8 0 11 -5 20
-10 20 -6 0 -9 3 -8 8 1 4 -2 19 -6 33 -4 14 -8 32 -9 40 -2 8 -5 19 -9 24 -8
13 -3 223 5 232 4 3 2 12 -4 20 -6 7 -7 13 -2 13 10 0 10 117 0 127 -7 6 23
85 34 93 10 7 -12 52 -28 57 -6 2 -14 -1 -18 -7z m-742 -387 c-6 -14 -8 -14
-14 3 -12 30 -10 37 5 24 8 -6 12 -19 9 -27z m1250 -325 c-2 -5 1 -8 6 -8 6 0
11 -6 11 -12 -1 -7 -10 -2 -20 11 -23 27 -27 48 -6 29 8 -7 12 -16 9 -20z m22
-95 c-2 -16 1 -30 8 -35 9 -6 9 -8 0 -8 -8 0 -9 -9 -3 -30 10 -35 -1 -47 -18
-19 -8 12 -9 19 -1 19 5 0 8 4 4 9 -10 17 -13 71 -3 71 5 0 6 5 3 10 -3 6 -1
10 5 10 6 0 8 -11 5 -27z m-454 -60 c13 -16 12 -17 -3 -4 -10 7 -18 15 -18 17
0 8 8 3 21 -13z m1200 -5 c2 -36 -2 -52 -14 -60 -7 -4 -8 -8 -3 -8 5 0 4 -6
-1 -12 -5 -7 -9 -25 -8 -40 0 -16 -2 -28 -5 -28 -3 0 -12 -15 -18 -34 -13 -35
-43 -70 -38 -44 5 22 19 53 28 58 4 3 10 17 12 30 2 14 5 25 6 25 2 0 8 45 13
88 1 9 5 17 10 17 5 0 7 7 3 15 -3 8 -1 15 4 15 6 0 11 -10 11 -22z m-1184
-51 c2 -12 8 -23 13 -25 6 -2 10 -10 10 -18 0 -8 4 -14 8 -14 8 0 42 -53 42
-66 0 -4 -13 5 -30 21 -16 15 -27 32 -24 37 3 4 -1 11 -9 14 -7 2 -14 10 -15
17 -1 7 -4 26 -8 42 -4 17 -3 27 2 22 4 -4 9 -18 11 -30z m1623 -12 c-7 -8
-10 -21 -7 -30 8 -20 -8 -28 -23 -10 -9 10 -9 15 -1 15 6 0 11 6 11 14 0 12
11 21 29 25 2 1 -2 -6 -9 -14z m-255 -89 c-4 -65 -4 -68 -15 -61 -6 4 -8 10
-5 15 3 4 0 10 -6 12 -7 2 -7 18 2 52 14 55 28 45 24 -18z m-396 -69 c-6 -10
-13 -16 -17 -13 -3 3 -14 -6 -24 -21 -10 -16 -18 -24 -18 -20 0 4 -10 2 -22
-5 -43 -23 -62 -16 -70 26 -2 17 4 20 42 23 25 1 46 7 48 12 2 6 9 8 17 5 7
-3 15 -1 19 4 3 5 12 9 20 9 12 0 13 -5 5 -20z m-449 -32 c17 -9 30 -13 30 -9
0 4 7 1 15 -6 8 -7 15 -9 15 -4 0 5 14 10 30 11 17 1 30 -2 30 -7 0 -14 -48
-43 -59 -36 -5 4 -12 2 -16 -3 -7 -13 -71 -6 -90 9 -18 15 -19 26 -2 45 15 18
12 18 47 0z m-52 -92 c15 -14 9 -16 -25 -7 -13 4 -23 12 -23 20 0 15 27 8 48
-13z m-1441 -1300 c-3 -10 -5 -4 -5 12 0 17 2 24 5 18 2 -7 2 -21 0 -30z m-26
-40 c-8 -15 -10 -15 -11 -2 0 17 10 32 18 25 2 -3 -1 -13 -7 -23z m289 -2039
c0 -14 -48 -55 -76 -64 -18 -6 -47 -27 -63 -46 -17 -19 -33 -34 -35 -34 -3 0
-30 -25 -61 -55 -30 -31 -55 -53 -55 -50 0 4 -7 -1 -16 -9 -15 -15 -34 -14
-34 2 0 4 16 16 36 27 49 26 72 48 67 63 -3 6 0 12 6 12 6 0 8 6 5 14 -4 11
15 27 38 30 10 1 43 39 50 57 8 21 65 50 84 42 7 -3 14 -1 14 4 0 5 9 9 20 10
11 1 20 0 20 -3z m880 -330 c0 -14 -33 -74 -41 -74 -5 0 -9 -7 -9 -15 0 -8 -5
-15 -11 -15 -5 0 -7 -4 -4 -10 3 -5 0 -10 -9 -10 -8 0 -16 -3 -19 -7 -2 -5 -3
-3 -1 3 1 6 -3 17 -9 24 -9 9 -7 11 8 8 16 -2 20 3 20 27 0 25 4 29 21 27 16
-2 23 4 28 23 5 21 26 37 26 19z m-1417 -71 c-7 -2 -13 -10 -13 -17 0 -7 -22
-36 -49 -64 -48 -50 -66 -78 -62 -97 2 -5 0 -7 -4 -3 -11 11 -37 -21 -37 -45
0 -19 -6 -22 -37 -21 -28 0 -35 4 -33 18 6 31 38 81 53 81 8 0 28 15 45 33 18
18 36 32 40 31 23 -4 32 3 38 26 7 29 40 65 59 64 10 0 10 -2 0 -6z m39 -70
c-26 -25 -59 -63 -73 -85 -16 -23 -29 -35 -33 -29 -4 6 4 23 18 38 15 15 26
32 26 38 0 6 9 16 20 23 11 7 20 17 20 23 0 6 10 22 22 34 16 17 26 21 35 13
9 -7 1 -21 -35 -55z m1258 51 c0 -3 -6 -12 -14 -19 -17 -17 -30 -7 -15 12 12
13 29 18 29 7z m24 -96 c-3 -4 -9 -8 -15 -8 -5 0 -9 4 -9 8 0 5 7 9 15 9 8 0
12 -4 9 -9z m-18 -28 c18 14 18 14 2 -6 -10 -11 -20 -31 -22 -45 -2 -13 -5
-24 -7 -24 -2 0 -9 -40 -12 -67 -1 -10 -4 -18 -8 -18 -4 0 -9 -10 -13 -22 -3
-13 -6 -24 -6 -25 -1 -2 -8 -19 -16 -39 -13 -30 -13 -38 -2 -45 8 -6 9 -9 2
-9 -14 0 -24 -23 -30 -69 -5 -37 -11 -51 -23 -51 -11 0 -6 111 5 119 5 3 9 12
10 19 1 6 2 21 3 33 0 11 5 18 10 15 5 -3 14 1 21 9 7 8 10 15 7 15 -3 0 -2
13 3 30 5 19 5 32 -2 36 -6 4 -5 10 3 15 12 7 12 9 0 9 -11 0 -11 3 -1 15 7 8
9 15 5 15 -4 0 -2 6 4 13 6 8 8 17 4 20 -3 4 -1 7 5 7 7 0 10 14 8 40 -4 40
-4 40 14 18 16 -20 20 -21 36 -8z m-1386 -80 c-6 -4 -11 -10 -11 -14 3 -24 -1
-36 -14 -36 -22 0 -30 -27 -14 -48 13 -15 12 -16 -3 -3 -14 11 -21 11 -33 1
-8 -6 -19 -9 -25 -5 -17 10 -11 25 10 25 11 0 20 6 20 13 0 7 9 19 20 27 11 8
20 18 20 22 0 13 35 44 39 35 2 -5 -2 -13 -9 -17z m-245 -40 c-10 -11 -14 -20
-9 -20 5 0 1 -7 -10 -15 -10 -7 -15 -18 -11 -24 3 -6 2 -11 -2 -11 -5 0 -10
-9 -11 -20 -4 -43 -6 -47 -21 -43 -9 3 -30 26 -48 53 -29 43 -30 49 -17 68 9
13 21 19 30 15 8 -3 23 2 34 12 11 10 28 15 40 12 11 -3 20 0 20 6 0 8 4 7 12
-1 9 -9 7 -16 -7 -32z m1509 -318 c-6 -4 -10 -14 -9 -23 2 -9 -1 -36 -7 -60
-5 -24 -11 -53 -13 -64 -2 -11 -4 -22 -4 -24 -1 -2 -8 2 -16 9 -12 10 -12 15
1 35 11 17 12 25 3 30 -7 5 -7 10 -1 14 14 9 25 51 13 51 -6 0 -3 9 6 20 10
11 22 20 28 20 6 0 6 -3 -1 -8z m-70 -309 c4 -10 -2 -25 -14 -38 -12 -13 -17
-24 -11 -26 12 -4 -19 -70 -33 -73 -15 -2 -16 58 -1 84 8 14 19 35 24 48 12
26 26 28 35 5z m56 -103 c0 -5 -5 -10 -11 -10 -5 0 -7 5 -4 10 3 6 8 10 11 10
2 0 4 -4 4 -10z m-3 -55 c0 -8 -4 -15 -9 -15 -10 0 -11 14 -1 23 9 10 10 9 10
-8z m-290 -147 c-3 -7 -5 -2 -5 12 0 14 2 19 5 13 2 -7 2 -19 0 -25z m1493
-385 c0 5 5 5 10 2 13 -8 -25 -45 -83 -82 -23 -14 -47 -31 -54 -37 -33 -29
-41 -34 -47 -29 -11 11 -6 31 10 47 8 9 13 16 9 16 -3 0 -3 5 0 10 5 8 11 8
20 0 10 -8 17 -6 28 10 11 15 17 18 22 9 6 -8 10 -7 17 5 5 9 13 14 19 11 5
-4 9 1 9 9 0 9 5 16 10 16 6 0 9 3 9 8 -3 19 2 25 11 12 5 -8 10 -11 10 -7z
m-242 -204 c15 -24 11 -32 -17 -34 -11 -1 -35 -18 -53 -39 l-33 -37 -25 23
c-14 13 -23 22 -21 21 9 -5 41 19 36 28 -4 5 1 9 9 9 9 0 16 7 16 16 0 8 4 13
9 10 4 -3 17 1 27 9 26 20 37 18 52 -6z m799 -21 c-3 -8 -6 -5 -6 6 -1 11 2
17 5 13 3 -3 4 -12 1 -19z m-16 -50 c-4 -12 -14 -24 -22 -26 -9 -2 -10 -1 -3
5 6 4 13 16 17 26 3 9 9 17 11 17 3 0 2 -10 -3 -22z m-791 -8 c0 -5 -5 -10
-11 -10 -5 0 -7 5 -4 10 3 6 8 10 11 10 2 0 4 -4 4 -10z m700 -235 c-7 -9 -15
-13 -19 -10 -3 3 1 10 9 15 21 14 24 12 10 -5z m-10 -45 c-8 -5 -11 -12 -8
-16 4 -3 1 -22 -7 -41 -8 -19 -12 -39 -9 -44 3 -5 0 -9 -6 -9 -6 0 -9 -4 -6
-8 3 -5 0 -26 -6 -48 -7 -21 -12 -43 -13 -49 0 -5 -8 -9 -16 -7 -10 1 -22 -10
-31 -29 -9 -17 -18 -26 -22 -21 -3 6 -2 14 4 17 8 5 7 11 -1 21 -6 8 -7 14 -2
14 8 0 55 74 59 93 1 4 3 9 4 12 1 3 3 8 4 13 1 4 10 19 20 34 10 16 16 34 13
42 -6 15 10 36 28 36 5 0 3 -4 -5 -10z m-136 -317 c-3 -21 -6 -45 -6 -53 -1
-19 -38 -61 -49 -55 -9 6 12 65 24 65 4 0 6 4 2 10 -8 13 5 61 16 54 5 -3 9 0
9 5 0 6 2 11 5 11 2 0 2 -17 -1 -37z"/>
</g>
</svg>
