<?xml version="1.0" standalone="no"?>
<!DOCTYPE svg PUBLIC "-//W3C//DTD SVG 20010904//EN"
 "http://www.w3.org/TR/2001/REC-SVG-20010904/DTD/svg10.dtd">
<svg version="1.0" xmlns="http://www.w3.org/2000/svg"
 width="703.000000pt" height="693.000000pt" viewBox="0 0 703.000000 693.000000"
 preserveAspectRatio="xMidYMid meet">
<metadata>
Created by potrace 1.13, written by Peter Selinger 2001-2015
</metadata>
<g transform="translate(0.000000,693.000000) scale(0.100000,-0.100000)"
fill="#000000" stroke="none">
<path d="M414 6645 c-4 -8 -3 -26 0 -40 5 -20 3 -25 -14 -25 -12 0 -22 -9 -26
-24 -12 -48 -2 -60 74 -85 78 -26 89 -43 56 -89 -14 -20 -23 -22 -77 -20 l-62
3 -29 -55 c-29 -53 -30 -59 -30 -195 -1 -143 12 -215 39 -215 7 0 15 -9 18
-20 13 -51 81 5 129 106 13 27 29 55 36 62 6 7 12 20 12 28 0 8 4 14 8 14 5 0
31 20 58 45 27 24 52 45 56 45 4 0 26 27 48 60 22 33 54 67 70 75 56 29 326
56 552 55 l127 0 78 -41 c43 -22 90 -48 104 -57 71 -46 109 -76 109 -84 0 -4
11 -14 25 -20 14 -6 25 -19 25 -28 0 -11 11 -20 29 -23 42 -9 87 -57 210 -222
19 -25 32 -48 29 -50 -14 -14 -274 80 -440 159 -92 43 -115 45 -154 8 -34 -33
-99 -72 -120 -72 -8 0 -14 -4 -14 -8 0 -5 -21 -21 -47 -35 -27 -14 -59 -36
-73 -49 -14 -13 -51 -41 -82 -62 -32 -22 -58 -43 -58 -48 0 -4 -4 -8 -10 -8
-9 0 -106 -43 -215 -95 -211 -101 -325 -126 -409 -91 -44 18 -118 21 -147 5
-11 -5 -42 -10 -69 -11 -28 0 -53 -4 -56 -9 -3 -5 -13 -9 -23 -9 -24 0 -61
-41 -61 -68 0 -16 8 -23 34 -27 18 -4 42 -5 52 -4 29 4 94 -11 94 -21 0 -6
-11 -10 -24 -10 -47 0 -86 -21 -86 -46 0 -20 -5 -24 -30 -24 -39 0 -85 -46
-101 -102 -7 -23 -13 -90 -13 -148 -1 -123 13 -170 50 -170 21 0 23 -2 12 -24
-19 -43 -4 -60 47 -53 52 8 85 38 169 154 20 28 54 63 77 77 40 27 83 70 126
129 29 39 70 66 206 135 61 32 121 63 132 69 29 15 66 31 95 39 14 3 31 11 38
17 7 5 56 25 110 44 85 30 114 36 232 42 74 4 158 3 185 -1 125 -19 186 -32
191 -40 3 -4 20 -8 37 -8 18 0 41 -7 51 -15 11 -8 32 -15 47 -15 15 0 29 -6
32 -14 3 -8 32 -26 64 -42 32 -15 72 -38 88 -50 50 -37 292 -154 317 -154 9 0
23 -6 31 -14 24 -24 81 -56 100 -56 14 0 16 -5 11 -27 -4 -16 -11 -32 -15 -38
-5 -5 -9 -17 -9 -27 0 -10 -4 -18 -9 -18 -5 0 -11 -8 -14 -19 -2 -10 -30 -35
-61 -56 -49 -32 -56 -41 -56 -69 0 -18 -5 -37 -11 -43 -7 -7 -13 -37 -15 -68
-5 -81 -24 -218 -33 -230 -11 -14 -43 -119 -40 -130 2 -6 -2 -39 -9 -75 -14
-80 -14 -268 -1 -330 6 -25 19 -92 29 -150 29 -163 32 -173 46 -188 8 -7 14
-29 14 -48 0 -19 4 -34 9 -34 5 0 11 -12 14 -27 3 -16 15 -62 26 -103 11 -41
21 -89 21 -107 0 -17 5 -33 11 -35 5 -2 16 -48 23 -103 11 -87 11 -101 -2
-111 -9 -6 -68 -14 -131 -17 -64 -4 -143 -13 -176 -22 -33 -8 -123 -22 -199
-31 -77 -8 -147 -19 -156 -24 -9 -5 -23 -4 -34 2 -10 5 -26 8 -35 5 -10 -2
-25 0 -34 5 -9 4 -103 11 -210 13 -107 3 -209 10 -228 15 -19 6 -50 10 -69 10
-19 0 -67 7 -105 15 -39 9 -99 20 -135 26 -80 12 -98 17 -130 38 -14 10 -45
23 -70 30 -25 7 -65 23 -90 35 -68 34 -132 48 -194 44 -31 -1 -56 0 -56 5 0 4
-9 7 -20 7 -11 0 -20 -7 -20 -15 0 -8 -9 -19 -20 -25 -13 -7 -20 -21 -20 -39
0 -24 6 -31 31 -40 18 -6 43 -11 56 -11 13 0 34 -5 45 -11 27 -14 7 -29 -40
-29 -25 0 -35 -5 -42 -25 -7 -18 -17 -25 -36 -25 -82 0 -166 -207 -149 -367
12 -116 32 -137 84 -91 24 21 24 21 -2 -8 -15 -16 -27 -37 -27 -45 1 -28 27
-49 61 -49 27 0 42 9 78 49 26 27 55 66 66 87 30 58 81 102 171 150 27 14 54
31 59 38 6 7 35 26 65 42 30 15 58 32 61 37 17 25 304 -9 408 -48 48 -17 83
-35 91 -44 10 -12 101 -71 109 -71 4 0 22 -7 40 -16 46 -23 180 -41 316 -43
65 0 123 -5 127 -9 8 -8 -34 -62 -49 -62 -5 0 -18 -8 -29 -18 -11 -10 -42 -27
-69 -37 -28 -11 -52 -21 -55 -24 -5 -6 -36 -19 -113 -47 -45 -17 -88 -47 -131
-90 -17 -17 -53 -38 -81 -48 -27 -10 -68 -26 -90 -36 -38 -19 -141 -62 -215
-91 -19 -7 -46 -12 -61 -11 -17 2 -29 -3 -32 -12 -4 -9 -17 -16 -31 -16 -13 0
-26 -5 -28 -11 -5 -16 -86 -13 -106 4 -55 48 -212 97 -268 83 -22 -6 -26 -11
-22 -36 4 -27 1 -31 -30 -40 -96 -26 -95 -100 2 -100 19 0 41 -7 50 -15 8 -8
18 -15 22 -15 10 0 33 -33 34 -49 0 -11 -10 -12 -45 -8 -119 17 -181 -78 -179
-273 1 -99 28 -210 54 -217 9 -2 22 -20 29 -39 9 -26 18 -34 37 -34 13 0 24 4
24 9 0 20 62 170 78 189 9 11 31 37 47 57 33 42 48 57 91 97 16 15 34 32 39
38 56 59 216 153 345 203 36 14 74 28 85 33 11 4 43 13 70 20 28 7 68 17 90
23 22 6 66 11 98 11 77 0 238 27 274 45 15 8 40 15 55 15 64 0 131 24 171 62
23 21 45 38 49 38 4 0 8 7 8 15 0 8 6 15 14 15 8 0 16 3 18 8 7 16 96 82 112
82 9 0 16 5 16 10 0 6 39 29 87 51 48 22 90 44 93 49 3 5 19 12 35 16 17 4 38
16 48 27 14 17 28 20 78 19 l61 -2 64 -66 c35 -37 64 -71 64 -75 0 -5 6 -9 14
-9 16 0 46 -42 46 -65 0 -9 8 -24 17 -33 16 -16 15 -17 -5 -20 -16 -2 -22 -10
-22 -28 0 -14 -6 -24 -14 -24 -16 0 -26 -21 -26 -56 0 -13 -5 -24 -11 -24 -8
0 -10 -14 -6 -40 3 -22 1 -40 -4 -40 -10 0 -12 -63 -3 -109 5 -21 12 -31 25
-31 11 0 19 -7 19 -15 0 -10 11 -15 35 -15 25 0 35 4 35 16 0 14 2 14 15 0 8
-8 15 -19 15 -25 0 -6 4 -11 9 -11 5 0 11 -13 15 -30 3 -18 12 -30 21 -30 17
0 21 -3 69 -45 21 -18 24 -25 12 -25 -9 0 -16 -8 -16 -20 0 -11 5 -20 10 -20
6 0 10 -9 10 -20 0 -13 7 -20 20 -20 11 0 20 -7 20 -15 0 -8 9 -15 20 -15 11
0 20 -4 20 -10 0 -5 20 -10 45 -10 27 0 45 -5 45 -11 0 -7 11 -9 30 -5 28 5
30 3 30 -24 0 -23 4 -30 20 -30 11 0 20 5 20 10 0 6 4 10 9 10 4 0 6 -11 3
-25 -3 -18 0 -25 12 -25 11 0 16 -9 16 -30 0 -28 2 -30 40 -30 30 0 40 -4 40
-16 0 -13 6 -15 30 -10 17 3 44 9 60 12 19 4 30 2 30 -5 0 -6 7 -11 15 -11 8
0 15 -7 15 -16 0 -13 7 -15 35 -10 28 6 35 4 35 -9 0 -17 18 -19 54 -5 17 6
26 6 26 0 0 -18 39 -10 50 10 6 11 17 20 25 20 8 0 15 5 15 10 0 6 5 10 10 10
6 0 10 -9 10 -20 0 -23 45 -39 63 -21 18 18 27 13 27 -18 0 -33 38 -131 51
-131 5 0 9 -9 9 -20 0 -11 6 -20 13 -20 8 0 21 -8 30 -18 14 -16 16 -34 10
-128 -5 -104 -4 -112 22 -174 15 -36 31 -91 36 -122 5 -31 19 -99 32 -150 19
-79 21 -101 12 -146 -5 -29 -16 -57 -24 -61 -11 -7 -11 -18 -2 -62 15 -67 60
-139 87 -139 7 0 14 -6 17 -14 3 -8 19 -17 36 -21 17 -4 44 -20 60 -36 20 -20
40 -29 61 -29 31 0 103 31 115 50 3 5 15 10 27 10 45 0 90 32 110 79 10 25 39
87 64 136 34 69 49 114 61 188 13 80 19 97 34 97 27 0 49 11 49 24 0 14 48 86
58 86 4 0 7 -32 7 -70 0 -52 4 -73 15 -80 22 -14 47 -12 64 6 17 16 16 17 41
-53 6 -17 44 -16 75 1 30 17 57 6 70 -30 10 -26 45 -44 85 -44 18 0 24 6 27
27 5 42 31 39 87 -11 29 -26 56 -46 61 -46 14 0 80 -107 80 -130 0 -10 5 -22
10 -25 6 -3 10 -22 10 -41 0 -19 4 -34 8 -34 5 0 17 -25 28 -56 14 -43 32 -68
71 -104 54 -50 83 -60 166 -60 42 0 56 5 93 36 30 24 44 43 44 60 0 16 6 24
18 24 111 2 229 14 282 30 71 21 140 63 140 85 0 31 -13 45 -41 45 -16 0 -29
5 -29 10 0 6 -9 10 -20 10 -13 0 -20 -7 -20 -20 0 -27 -35 -35 -150 -34 -63 1
-107 7 -130 17 -19 9 -29 16 -22 17 21 0 14 40 -8 40 -13 0 -20 -7 -20 -20 0
-17 -3 -18 -23 -9 -18 8 -23 17 -19 34 3 21 -1 25 -38 35 -23 6 -48 9 -55 6
-7 -2 -21 3 -31 12 -11 9 -34 30 -53 45 -18 15 -51 49 -72 74 -42 52 -41 56
24 74 49 13 77 42 77 79 0 26 -4 30 -37 35 -66 10 -116 29 -145 53 -23 20 -28
32 -28 69 0 68 12 83 68 84 26 0 56 4 67 8 14 6 41 -3 95 -31 103 -53 197 -78
315 -85 114 -6 175 10 175 45 0 24 -15 30 -88 38 -72 7 -150 22 -182 36 -23
10 -49 22 -125 62 l-27 14 28 18 c16 10 45 30 64 45 19 14 60 31 90 37 113 22
160 35 160 43 0 5 5 9 11 9 18 0 38 32 39 59 0 23 -1 24 -70 19 -38 -3 -67 -1
-64 3 3 5 26 21 51 36 37 22 59 27 112 27 59 1 74 -3 136 -38 138 -78 231
-122 295 -140 36 -10 79 -23 95 -28 17 -5 69 -12 117 -15 116 -8 169 7 226 64
50 50 53 82 11 97 -22 7 -33 4 -60 -16 -39 -30 -92 -41 -133 -30 l-29 8 36 21
c82 49 114 153 46 153 -17 0 -32 -6 -36 -15 -8 -22 -87 -74 -122 -81 -23 -5
-43 1 -78 22 -63 36 -143 118 -143 146 0 29 71 94 117 108 21 6 79 15 128 20
105 10 111 11 190 64 79 52 85 59 85 95 0 37 -29 55 -74 47 -25 -5 -40 -1 -60
15 l-27 21 6 142 c7 176 -2 211 -55 211 -34 0 -35 -1 -38 -43 -2 -32 -6 -41
-15 -34 -7 5 -30 15 -52 22 -88 28 -144 69 -173 125 -34 68 -16 88 149 170
115 56 165 89 211 138 29 31 31 38 22 75 -8 29 -22 28 -102 -9 -37 -16 -76
-34 -87 -39 -11 -4 -37 -15 -58 -25 -51 -22 -261 -39 -322 -25 -140 31 -233
136 -199 224 10 27 89 56 274 103 174 43 175 43 302 37 108 -6 134 -4 173 11
44 16 46 19 43 54 l-3 36 -75 6 c-79 6 -133 27 -150 58 -19 37 -12 146 15 216
13 36 30 72 37 80 7 8 24 30 38 49 14 19 35 40 48 47 16 9 22 21 22 46 0 29
-3 33 -25 33 -48 0 -139 -58 -202 -127 -36 -40 -66 -92 -115 -199 -14 -30 -47
-66 -93 -99 -22 -17 -42 -33 -45 -36 -15 -20 -360 -109 -422 -109 -14 0 -65
-14 -114 -30 -49 -17 -105 -35 -124 -42 -85 -26 -257 -124 -269 -152 -2 -6
-24 -30 -47 -55 -24 -25 -44 -49 -44 -53 0 -3 -11 -19 -23 -35 -37 -44 -123
-214 -152 -300 -24 -70 -55 -191 -55 -213 0 -11 -5 -38 -12 -59 -12 -38 -14
-40 -65 -46 -30 -4 -68 -17 -88 -31 -19 -13 -46 -26 -60 -30 -13 -3 -29 -12
-36 -20 -6 -8 -19 -14 -29 -14 -33 0 -120 -57 -120 -79 0 -6 -5 -11 -10 -11
-6 0 -21 -12 -34 -27 -29 -33 -61 -27 -108 21 -18 18 -45 36 -60 40 -16 3 -28
13 -28 21 0 8 -9 20 -20 27 -11 7 -20 17 -20 22 0 5 -13 21 -29 36 -15 15 -34
42 -42 59 -8 17 -19 31 -25 31 -5 0 -30 55 -54 123 -24 67 -47 124 -52 127 -4
3 -16 48 -28 100 -27 124 -42 174 -53 181 -6 4 -5 20 2 39 6 18 11 53 11 76 0
24 5 44 10 44 6 0 10 23 10 50 0 36 4 52 15 56 8 4 15 16 15 28 0 12 5 27 12
34 6 6 15 35 19 64 5 29 14 73 20 98 6 25 12 64 13 88 0 23 5 42 10 42 4 0 5
12 1 28 -3 15 -8 45 -10 67 -11 114 -35 215 -55 235 -3 3 -11 19 -19 35 -7 17
-17 38 -22 47 -5 10 -9 33 -9 52 0 19 -4 36 -10 38 -5 2 -12 45 -14 96 -3 51
-8 97 -11 102 -8 14 -8 488 0 533 5 25 4 37 -4 37 -7 0 -10 23 -8 65 1 40 -2
68 -9 73 -14 9 -17 107 -11 362 4 170 18 330 28 330 4 0 6 75 4 168 -3 147
-10 206 -32 262 -3 8 -5 23 -4 34 2 10 -2 22 -8 25 -6 4 -19 40 -30 81 -29
110 -72 251 -87 287 -8 17 -14 36 -14 42 0 6 -4 11 -10 11 -5 0 -14 18 -20 39
-10 40 -63 114 -114 160 -14 14 -26 29 -26 35 0 6 -9 16 -19 21 -172 88 -214
99 -345 91 -55 -3 -102 -9 -105 -14 -3 -5 -26 -13 -51 -16 -63 -10 -150 -35
-150 -44 0 -11 -51 -32 -76 -32 -12 0 -24 -5 -26 -11 -2 -5 -22 -13 -46 -16
-23 -3 -42 -9 -42 -13 0 -4 -29 -21 -65 -39 -36 -17 -68 -38 -72 -46 -3 -8
-11 -15 -19 -15 -7 0 -29 -15 -47 -34 -46 -45 -157 -96 -210 -96 -40 0 -75 17
-140 69 -37 29 -97 97 -97 109 0 4 -22 34 -50 67 -27 33 -50 62 -50 67 0 4
-10 17 -23 30 -25 26 -87 115 -87 126 0 4 -13 22 -29 39 l-29 32 -144 0 c-148
0 -203 -6 -298 -33 -60 -18 -188 -26 -470 -31 -181 -3 -239 3 -307 31 -39 17
-135 18 -151 2 -7 -7 -12 -8 -12 -2 0 31 -195 48 -206 19z m7 -348 c-1 -4 -1
-17 -1 -29 0 -27 -5 -21 -14 15 -5 20 -3 28 4 25 6 -2 11 -7 11 -11z m-48
-817 c-3 -11 -10 -23 -16 -27 -7 -4 -8 0 -4 11 4 10 7 22 7 27 0 5 4 9 9 9 5
0 7 -9 4 -20z m187 -2347 c0 -18 -41 -73 -50 -68 -15 10 -12 37 8 56 17 18 42
25 42 12z m6027 -65 c-3 -7 -5 -2 -5 12 0 14 2 19 5 13 2 -7 2 -19 0 -25z
m-4004 -12 l26 -24 -22 -6 c-12 -3 -34 -6 -49 -6 -23 0 -28 4 -28 24 0 41 36
47 73 12z m-403 -65 c0 -10 -6 -21 -12 -23 -20 -7 -147 -3 -154 5 -13 13 5 19
55 19 28 0 51 4 51 9 0 5 14 9 30 9 23 0 30 -5 30 -19z m4456 4 c17 -16 14
-18 -10 -9 -9 3 -16 10 -16 15 0 13 9 11 26 -6z m-4796 -39 c0 -3 -4 -8 -10
-11 -5 -3 -10 -1 -10 4 0 6 5 11 10 11 6 0 10 -2 10 -4z m4011 -386 c85 -34
93 -43 273 -286 58 -79 227 -190 401 -263 21 -9 93 -26 158 -37 20 -3 37 -8
37 -10 0 -10 -69 -103 -95 -127 -31 -29 -159 -117 -170 -117 -3 0 -25 -9 -48
-19 -24 -11 -56 -23 -72 -27 -17 -4 -35 -11 -42 -16 -6 -5 -22 -6 -35 -3 -27
7 -116 -29 -125 -51 -3 -8 -10 -14 -15 -14 -19 0 -83 -35 -106 -57 -13 -13
-29 -23 -37 -23 -8 0 -15 -4 -15 -10 0 -5 -4 -10 -10 -10 -9 0 -69 -42 -136
-96 -17 -14 -56 -50 -87 -80 -51 -49 -61 -54 -101 -54 -58 0 -134 42 -142 78
-4 15 -10 32 -14 37 -5 6 -22 37 -39 70 -36 67 -41 76 -93 159 l-38 58 1 117
c1 270 34 404 139 571 5 8 19 33 30 55 30 56 129 126 210 149 36 10 70 20 75
21 24 8 47 4 96 -15z m442 -117 c-7 -2 -19 -2 -25 0 -7 3 -2 5 12 5 14 0 19
-2 13 -5z m-3223 -433 c13 -9 13 -10 0 -10 -8 0 -22 5 -30 10 -13 9 -13 10 0
10 8 0 22 -5 30 -10z m20 -130 c0 -5 -9 -10 -20 -10 -11 0 -20 5 -20 10 0 6 9
10 20 10 11 0 20 -4 20 -10z m-2637 -17 c-7 -2 -19 -2 -25 0 -7 3 -2 5 12 5
14 0 19 -2 13 -5z m6320 -75 c6 -46 -4 -65 -17 -32 -6 15 3 90 9 82 1 -2 5
-24 8 -50z m-3633 32 c0 -5 -4 -10 -9 -10 -6 0 -13 5 -16 10 -3 6 1 10 9 10 9
0 16 -4 16 -10z m115 -129 c-16 -14 -55 -23 -55 -12 0 5 12 12 28 14 15 2 29
5 32 6 2 0 0 -3 -5 -8z m-306 -42 c-16 -10 -23 -4 -14 10 3 6 11 8 17 5 6 -4
5 -9 -3 -15z m61 -9 c0 -11 -4 -20 -9 -20 -5 0 -7 9 -4 20 3 11 7 20 9 20 2 0
4 -9 4 -20z m180 -60 c0 -5 -4 -10 -9 -10 -6 0 -13 5 -16 10 -3 6 1 10 9 10 9
0 16 -4 16 -10z m27 -92 c-3 -8 -6 -5 -6 6 -1 11 2 17 5 13 3 -3 4 -12 1 -19z
m183 -3 c0 -12 -19 -12 -23 0 -4 9 -1 12 9 8 7 -3 14 -7 14 -8z m107 -1 c-3
-3 -12 -4 -19 -1 -8 3 -5 6 6 6 11 1 17 -2 13 -5z m1203 -21 c0 -5 -5 -15 -10
-23 -8 -12 -10 -11 -10 8 0 12 5 22 10 22 6 0 10 -3 10 -7z m207 1 c-3 -3 -12
-4 -19 -1 -8 3 -5 6 6 6 11 1 17 -2 13 -5z m325 -69 c10 -11 17 -26 18 -33 0
-7 9 -30 19 -50 52 -99 86 -213 64 -212 -44 2 -158 41 -173 59 -3 3 -17 12
-31 20 -27 13 -37 29 -57 90 -11 33 -10 35 50 102 65 74 67 74 110 24z m-412
20 c0 -9 -6 -12 -15 -9 -8 4 -12 10 -9 15 8 14 24 10 24 -6z m201 -226 c10 0
11 -2 2 -6 -7 -2 -13 -13 -13 -22 0 -14 -6 -17 -25 -13 -22 4 -25 1 -25 -27 0
-17 -5 -31 -11 -31 -6 0 -8 7 -5 16 3 9 6 35 6 59 0 33 4 44 18 48 9 2 22 -2
28 -10 6 -7 17 -13 25 -14z m726 -56 c-7 -6 -67 9 -67 17 0 5 16 3 35 -3 19
-6 33 -12 32 -14z m-793 -315 c-3 -23 -11 -38 -20 -38 -11 0 -13 9 -8 38 3 22
-1 54 -10 80 -8 23 -11 42 -6 42 6 0 10 8 11 18 0 9 9 -10 20 -43 12 -39 17
-73 13 -97z m-174 130 c0 -7 -7 -32 -17 -56 -11 -30 -19 -39 -24 -30 -14 22
-10 60 9 79 20 21 32 24 32 7z m258 -20 c-2 -6 -10 -14 -16 -16 -7 -2 -10 2
-6 12 7 18 28 22 22 4z m152 -61 c0 -16 -18 3 -23 25 -6 22 -5 22 8 4 8 -11
15 -24 15 -29z m-302 -111 c-10 -7 -18 -18 -18 -25 0 -19 -17 -12 -23 8 -3 15
1 21 17 24 38 8 41 7 24 -7z m-38 -61 c0 -8 -4 -15 -10 -15 -5 0 -10 7 -10 15
0 8 5 15 10 15 6 0 10 -7 10 -15z m250 -74 c40 -6 46 -9 22 -10 -24 -1 -35 -7
-42 -23 -5 -13 -9 -18 -9 -11 -1 7 -11 21 -23 33 -27 24 -96 28 -104 5 -8 -19
-24 -20 -24 -1 0 28 40 29 180 7z m210 -68 c0 -5 3 -19 7 -31 6 -24 5 -24 -24
-9 -16 9 -35 23 -42 31 -12 14 -9 16 23 16 20 0 36 -3 36 -7z m-1126 -118 c3
-8 3 -29 -1 -45 -3 -19 -1 -30 6 -30 6 0 11 -7 11 -15 0 -8 7 -15 16 -15 9 0
14 -5 12 -11 -2 -6 -7 -10 -11 -10 -4 1 -13 1 -20 1 -14 0 -56 108 -49 128 5
17 29 15 36 -3z m88 -187 c-15 -15 -26 -4 -18 18 5 13 9 15 18 6 9 -9 9 -15 0
-24z m1439 -131 c-5 -5 -27 -11 -49 -14 -34 -5 -44 -1 -67 21 -14 14 -24 30
-21 35 3 5 37 -1 75 -13 38 -11 66 -25 62 -29z m-1451 28 c0 -8 -7 -15 -15
-15 -16 0 -20 12 -8 23 11 12 23 8 23 -8z"/>
</g>
</svg>
