<?xml version="1.0" standalone="no"?>
<!DOCTYPE svg PUBLIC "-//W3C//DTD SVG 20010904//EN"
 "http://www.w3.org/TR/2001/REC-SVG-20010904/DTD/svg10.dtd">
<svg version="1.0" xmlns="http://www.w3.org/2000/svg"
 width="532.000000pt" height="650.000000pt" viewBox="0 0 532.000000 650.000000"
 preserveAspectRatio="xMidYMid meet">
<metadata>
Created by potrace 1.13, written by Peter Selinger 2001-2015
</metadata>
<g transform="translate(0.000000,650.000000) scale(0.100000,-0.100000)"
fill="#000000" stroke="none">
<path d="M971 6476 c-40 -48 -57 -284 -31 -434 13 -78 68 -275 87 -314 18 -35
33 -169 33 -292 0 -79 -5 -115 -27 -185 -22 -68 -28 -80 -31 -57 -2 16 4 67
13 114 11 56 15 103 10 141 -9 81 -13 91 -40 91 -21 0 -24 -6 -30 -62 -3 -35
-11 -79 -16 -98 -13 -45 -47 -192 -59 -250 -5 -25 -9 -70 -10 -100 0 -51 -3
-57 -41 -90 -22 -19 -49 -44 -61 -54 -38 -34 -89 -36 -149 -7 -86 42 -148 111
-211 236 -77 154 -113 213 -161 263 -48 49 -77 55 -77 15 0 -24 41 -98 64
-114 9 -7 39 -87 61 -163 8 -27 19 -54 24 -59 6 -6 11 -17 11 -25 0 -17 78
-145 92 -150 4 -2 8 -8 8 -14 0 -6 35 -44 79 -84 43 -41 86 -90 96 -110 15
-33 15 -37 0 -60 -28 -44 -93 -103 -120 -110 -14 -3 -25 -12 -25 -20 0 -8 -7
-14 -15 -14 -8 0 -15 -4 -15 -10 0 -5 -13 -10 -30 -10 -16 0 -30 -4 -30 -8 0
-16 -37 -52 -54 -52 -9 0 -16 -7 -16 -15 0 -8 -4 -15 -9 -15 -14 0 -10 -92 5
-116 12 -17 11 -23 -2 -42 -14 -20 -115 -91 -132 -93 -4 0 -38 -21 -77 -47
-65 -44 -70 -50 -73 -87 -6 -66 6 -98 56 -151 64 -69 92 -79 172 -61 55 13 68
13 104 0 23 -8 64 -16 91 -18 85 -7 108 -17 129 -61 20 -40 42 -140 52 -229 3
-27 12 -64 20 -82 8 -17 14 -38 14 -46 0 -9 5 -19 10 -22 6 -3 10 -14 10 -23
0 -9 6 -29 14 -44 8 -14 19 -43 26 -65 7 -21 18 -49 25 -63 7 -14 18 -37 25
-52 7 -15 30 -45 51 -68 22 -23 39 -44 39 -46 0 -7 84 -94 91 -94 12 0 180
-172 193 -198 7 -15 16 -65 19 -112 7 -109 43 -183 139 -285 53 -57 69 -80 75
-106 7 -37 95 -121 141 -135 20 -6 36 -15 35 -21 -1 -6 -5 -52 -8 -104 -8
-114 -30 -196 -97 -354 -64 -152 -76 -232 -52 -343 43 -202 4 -531 -87 -737
-8 -16 -30 -46 -50 -66 -61 -61 -112 -146 -105 -174 7 -29 28 -31 136 -15 161
25 155 23 158 53 2 16 -2 35 -9 44 -11 12 -9 18 11 34 14 10 37 19 51 19 46 0
53 32 52 255 -2 208 44 551 79 590 4 5 8 19 8 31 0 12 34 92 75 177 41 86 75
160 75 166 0 38 45 -43 66 -119 3 -14 10 -29 14 -35 17 -23 31 -86 34 -157 2
-41 9 -83 14 -94 52 -95 124 -265 141 -334 25 -101 48 -251 45 -300 -4 -79
-57 -231 -100 -287 -13 -17 -24 -39 -24 -47 0 -9 -4 -16 -9 -16 -4 0 -21 -18
-36 -40 -33 -47 -28 -85 11 -100 59 -23 204 -6 204 23 0 6 10 21 21 34 15 15
24 40 27 74 4 41 11 59 34 81 16 15 33 28 38 28 5 0 13 6 17 14 4 8 19 16 33
18 22 3 25 8 28 52 2 35 -3 62 -17 90 -29 58 -49 134 -85 325 -9 47 -21 103
-28 125 -6 23 -10 82 -8 131 6 164 4 202 -12 261 -45 164 -68 345 -68 547 l0
97 28 0 c15 -1 45 -5 67 -9 166 -36 218 -50 224 -59 4 -6 22 -11 41 -11 54 0
230 -20 278 -31 41 -10 123 0 242 30 38 9 232 75 265 90 11 5 38 14 60 21 22
6 45 16 51 20 6 5 51 12 101 15 l89 7 28 -77 c15 -42 32 -76 37 -76 5 0 9 -8
9 -18 0 -10 8 -27 18 -38 28 -32 80 -105 128 -181 25 -40 50 -73 55 -73 5 0 9
-5 9 -10 0 -10 26 -41 104 -124 15 -17 37 -49 48 -71 11 -22 26 -47 32 -55 7
-8 18 -35 25 -60 18 -60 15 -296 -3 -353 -8 -23 -17 -61 -21 -84 -4 -24 -11
-43 -15 -43 -5 0 -12 -16 -16 -35 -3 -19 -10 -35 -14 -35 -4 0 -15 -27 -24
-60 -9 -33 -21 -60 -25 -60 -5 0 -14 -13 -21 -30 -7 -16 -16 -30 -21 -30 -5 0
-11 -11 -15 -25 -3 -14 -10 -25 -15 -25 -5 0 -9 -7 -9 -15 0 -8 -4 -15 -9 -15
-6 0 -13 -21 -17 -46 -7 -47 -11 -54 -70 -123 -40 -48 -104 -158 -111 -192 -4
-21 0 -31 19 -43 35 -23 160 -7 221 28 43 25 46 30 56 89 11 65 41 103 86 109
24 4 46 45 52 102 4 36 39 155 63 211 4 11 16 43 25 70 9 28 23 64 30 80 7 17
16 41 20 55 8 27 74 152 84 160 24 18 134 233 146 284 5 22 -1 44 -21 83 -16
29 -32 53 -36 53 -4 0 -8 7 -8 15 0 8 -4 15 -8 15 -5 0 -14 18 -21 40 -6 22
-16 40 -21 40 -6 0 -10 5 -10 11 0 6 -15 50 -34 98 -35 89 -49 142 -50 199 -1
30 1 32 24 27 14 -4 29 -13 34 -22 15 -27 81 -89 132 -123 27 -19 54 -41 61
-51 7 -9 44 -35 83 -58 38 -23 78 -54 87 -68 10 -15 52 -63 95 -106 43 -44 90
-98 105 -121 15 -23 31 -43 36 -44 4 -2 7 -8 7 -13 0 -5 13 -23 29 -40 17 -17
33 -45 36 -62 8 -41 27 -99 36 -112 10 -14 39 -120 50 -180 4 -27 13 -68 18
-90 6 -22 11 -62 11 -90 0 -70 -30 -225 -49 -255 -9 -14 -34 -59 -55 -101 -56
-110 -43 -130 78 -112 39 6 93 20 119 33 l48 23 -6 47 c-5 37 -2 55 13 84 20
37 58 76 74 76 11 0 10 70 -2 122 -6 24 -19 86 -29 138 -11 52 -27 127 -36
165 -34 148 -46 214 -55 320 -7 83 -33 286 -39 313 -1 1 -10 2 -21 2 -11 0
-20 6 -20 13 0 12 -51 57 -64 57 -5 0 -52 48 -139 141 -9 11 -17 23 -17 29 0
5 -6 13 -12 17 -16 10 -42 53 -70 115 -12 27 -25 48 -29 48 -4 0 -17 19 -29
42 -18 35 -21 52 -16 98 9 79 37 190 47 190 5 0 9 20 9 45 0 25 5 45 10 45 6
0 10 47 10 121 0 77 4 118 10 114 6 -3 10 -17 10 -30 0 -33 22 -52 70 -60 30
-5 40 -11 40 -26 0 -16 7 -19 40 -19 45 0 44 -1 29 71 -11 51 -34 106 -67 164
-28 47 -41 101 -57 219 -11 89 -20 121 -52 184 -56 110 -150 207 -255 261 -46
24 -90 49 -98 56 -23 20 -132 73 -165 81 -16 4 -34 10 -40 14 -14 10 -163 57
-200 63 -16 3 -50 11 -75 17 -58 15 -315 5 -391 -15 -37 -10 -157 -18 -379
-25 -179 -5 -440 -15 -581 -20 -224 -9 -261 -8 -300 5 -24 9 -52 14 -61 11
-10 -2 -18 0 -18 6 0 6 -12 8 -27 5 -25 -5 -63 4 -108 23 -80 36 -336 35 -480
-2 -77 -19 -82 -19 -137 -2 -48 14 -70 30 -152 111 -69 67 -96 100 -96 118 0
13 -4 26 -9 29 -5 4 -12 25 -16 49 -3 23 -10 51 -15 62 -28 66 -70 198 -70
220 0 3 9 5 20 5 11 0 49 13 85 30 53 24 71 39 95 77 17 26 30 53 30 60 0 7 8
27 18 45 11 18 33 58 50 88 31 57 40 123 20 148 -14 17 -63 15 -99 -4 -17 -8
-75 -29 -130 -45 -99 -29 -135 -46 -174 -80 -27 -24 -50 -10 -41 25 17 68 117
139 231 164 81 18 228 42 253 42 13 0 51 11 85 24 34 13 88 32 120 42 31 10
57 21 57 26 0 4 6 8 13 8 22 0 247 163 247 179 0 4 15 22 33 41 18 19 49 58
67 85 19 28 38 55 42 60 51 62 139 231 153 295 4 19 14 44 21 55 8 11 14 29
14 41 0 12 6 24 13 27 9 3 12 57 11 228 0 191 -3 239 -22 326 -29 135 -38 153
-74 153 -33 0 -33 -1 -13 -122 14 -89 22 -308 11 -326 -3 -5 -8 -33 -11 -63
-12 -118 -43 -238 -77 -295 -15 -26 -27 -34 -48 -34 -24 0 -31 7 -50 53 -20
45 -24 76 -31 232 -4 99 -12 206 -19 238 -11 49 -16 57 -36 57 l-22 0 -4 -212
c-2 -117 0 -247 4 -290 8 -75 36 -159 57 -172 36 -23 -11 -140 -91 -227 -18
-20 -42 -47 -54 -60 -58 -66 -116 -101 -244 -147 -154 -55 -224 -71 -355 -81
-71 -6 -150 -13 -175 -17 l-45 -6 -32 54 c-37 60 -39 71 -19 90 23 24 75 147
107 252 34 117 54 312 45 445 -5 80 -4 85 24 126 38 55 76 138 91 200 14 60
23 243 14 303 -6 37 -9 43 -28 40 -19 -3 -23 -12 -30 -73 -23 -211 -56 -314
-108 -340 -22 -12 -29 -12 -48 1 -59 42 -95 183 -95 379 0 77 4 161 8 188 8
46 8 47 -16 47 -14 0 -31 -6 -37 -14z m-46 -1756 l6 -45 -20 30 c-21 31 -26
56 -14 69 11 11 21 -7 28 -54z m195 -445 c-7 -8 -17 -15 -23 -15 -6 0 -2 8 9
19 22 21 33 19 14 -4z m-896 -409 c-7 -19 -28 -26 -45 -15 -11 7 -11 9 4 9 9
0 17 5 17 10 0 6 7 10 15 10 8 0 12 -6 9 -14z m3444 -708 c-3 -7 -12 -14 -21
-16 -12 -2 -15 1 -11 12 7 19 38 22 32 4z m-1360 -132 c-7 -8 -15 -12 -17 -11
-5 6 10 25 20 25 5 0 4 -6 -3 -14z m132 -36 c0 -5 -12 -10 -27 -10 -22 0 -25
2 -13 10 20 13 40 13 40 0z m-1085 -10 c-3 -5 -10 -10 -16 -10 -5 0 -9 5 -9
10 0 6 7 10 16 10 8 0 12 -4 9 -10z m210 0 c3 -5 1 -10 -4 -10 -6 0 -11 5 -11
10 0 6 2 10 4 10 3 0 8 -4 11 -10z m2166 -15 c0 -5 -12 -11 -26 -13 -18 -2
-25 1 -25 13 0 12 7 15 25 13 14 -2 26 -7 26 -13z m-1031 -35 c0 -12 -28 -25
-36 -17 -9 9 6 27 22 27 8 0 14 -5 14 -10z m260 -5 c-12 -15 -30 -12 -30 6 0
5 10 9 21 9 18 0 19 -2 9 -15z m1810 5 c0 -5 -2 -10 -4 -10 -3 0 -8 5 -11 10
-3 6 -1 10 4 10 6 0 11 -4 11 -10z m-1925 -20 c3 -5 -1 -10 -9 -10 -9 0 -16 5
-16 10 0 6 4 10 9 10 6 0 13 -4 16 -10z m-1205 -29 c-12 -24 -30 -28 -30 -6 0
13 31 38 38 30 2 -2 -1 -13 -8 -24z m120 -26 c0 -14 -4 -25 -10 -25 -5 0 -10
11 -10 25 0 14 5 25 10 25 6 0 10 -11 10 -25z m1120 -93 c0 -4 -9 -13 -20 -20
-17 -10 -20 -10 -20 2 0 8 8 17 18 19 9 3 18 5 20 6 1 0 2 -2 2 -7z m-583 -8
c-3 -3 -12 -4 -19 -1 -8 3 -5 6 6 6 11 1 17 -2 13 -5z m141 -66 c-2 -6 -10
-14 -16 -16 -7 -2 -10 2 -6 12 7 18 28 22 22 4z m1436 -53 c-4 -8 -8 -15 -10
-15 -2 0 -4 7 -4 15 0 8 4 15 10 15 5 0 7 -7 4 -15z m-1356 -12 c-4 -23 -48
-31 -48 -10 0 9 6 18 13 20 25 11 38 7 35 -10z m-1284 -45 c6 -5 1 -8 -13 -8
-17 0 -22 4 -17 16 3 9 7 23 7 32 1 9 4 6 6 -8 3 -14 10 -28 17 -32z m3303
-100 c-3 -7 -5 -2 -5 12 0 14 2 19 5 13 2 -7 2 -19 0 -25z m-577 12 c0 -5 -5
-10 -11 -10 -5 0 -7 5 -4 10 3 6 8 10 11 10 2 0 4 -4 4 -10z m-2350 -22 c0
-13 -23 -5 -28 10 -2 7 2 10 12 6 9 -3 16 -11 16 -16z m3347 16 c-3 -3 -12 -4
-19 -1 -8 3 -5 6 6 6 11 1 17 -2 13 -5z m-1100 -30 c-3 -3 -12 -4 -19 -1 -8 3
-5 6 6 6 11 1 17 -2 13 -5z m-2592 -70 c11 -14 30 -37 43 -50 13 -14 22 -30
20 -36 -2 -6 -26 16 -52 50 -26 34 -44 62 -39 62 4 -1 17 -12 28 -26z m1173 8
c2 -7 -6 -12 -17 -12 -21 0 -27 11 -14 24 9 9 26 2 31 -12z m172 -7 c0 -8 -4
-15 -10 -15 -5 0 -10 7 -10 15 0 8 5 15 10 15 6 0 10 -7 10 -15z m-1007 -68
c-3 -5 -9 -3 -14 4 -4 7 -5 17 -2 22 3 5 9 3 14 -4 4 -7 5 -17 2 -22z m2218
-20 c-10 -9 -11 -8 -5 6 3 10 9 15 12 12 3 -3 0 -11 -7 -18z m-2124 -213 c-3
-3 -12 -4 -19 -1 -8 3 -5 6 6 6 11 1 17 -2 13 -5z m1973 -86 c0 -21 5 -38 10
-38 6 0 10 -8 10 -17 0 -10 7 -31 15 -47 19 -36 19 -52 0 -32 -8 8 -15 19 -15
25 0 6 -4 11 -10 11 -5 0 -10 5 -10 11 0 7 -7 17 -16 24 -12 8 -18 33 -21 86
l-5 74 21 -30 c12 -17 21 -46 21 -67z m-1777 38 c27 -13 20 -23 -25 -35 -64
-16 -70 -23 -63 -65 4 -20 11 -36 15 -36 5 0 3 -11 -3 -25 -7 -14 -18 -25 -24
-25 -21 0 -15 -31 9 -52 16 -14 22 -28 19 -50 -1 -18 3 -34 11 -39 10 -7 9 -9
-4 -9 -9 0 -19 -6 -21 -12 -3 -7 -6 7 -6 32 -1 25 -8 58 -16 74 -8 15 -15 39
-15 52 0 12 -4 26 -10 29 -5 3 -10 22 -10 41 0 19 -4 34 -9 34 -5 0 -11 9 -14
20 -3 11 -1 20 5 20 5 0 9 10 8 23 -5 55 -6 54 68 42 37 -6 75 -15 85 -19z
m-288 -136 c23 0 25 -29 6 -77 -19 -50 -41 -68 -41 -35 0 42 14 146 18 130 2
-10 9 -18 17 -18z m-56 -273 c-9 -7 -19 -29 -23 -51 -10 -53 -20 -37 -12 19 6
38 11 45 29 45 19 -1 20 -2 6 -13z m81 -137 c0 -5 -4 -10 -10 -10 -5 0 -10 5
-10 10 0 6 5 10 10 10 6 0 10 -4 10 -10z m3434 -65 c-4 -8 -8 -15 -10 -15 -2
0 -4 7 -4 15 0 8 4 15 10 15 5 0 7 -7 4 -15z m-99 -120 c-7 -28 -14 -41 -14
-29 -1 22 19 87 25 82 2 -2 -3 -26 -11 -53z m-749 15 c15 0 44 -56 44 -85 0
-9 -9 -15 -22 -15 -38 0 -50 -15 -59 -71 -5 -30 -13 -55 -19 -57 -5 -2 -10
-10 -10 -18 0 -8 -4 -14 -10 -14 -5 0 -10 -13 -10 -30 0 -16 -3 -30 -7 -30 -5
0 -8 47 -9 105 -1 82 2 105 13 105 16 0 17 17 1 60 -9 26 -9 35 0 38 7 2 12
10 12 17 0 18 54 24 58 8 2 -7 10 -13 18 -13z m-2676 -28 c-6 -2 -10 -11 -10
-20 0 -11 -3 -13 -8 -6 -4 6 -14 14 -22 17 -11 4 -10 7 8 12 12 4 22 12 22 19
0 6 5 4 10 -4 6 -10 6 -16 0 -18z m564 -108 c2 -32 1 -44 -1 -26 -2 18 -11 36
-19 39 -8 3 -14 18 -14 35 0 24 3 27 16 20 12 -7 17 -26 18 -68z m-574 26 c0
-5 -11 -10 -25 -10 -14 0 -25 5 -25 10 0 6 11 10 25 10 14 0 25 -4 25 -10z
m-65 -212 c-1 -35 -6 -107 -10 -160 -6 -71 -5 -98 4 -98 6 0 11 -7 11 -15 0
-8 -6 -15 -14 -15 -30 0 -32 -121 -2 -143 8 -6 8 -10 -1 -14 -17 -6 -16 -48 1
-66 12 -11 11 -15 -5 -25 -10 -7 -30 -12 -45 -12 -14 0 -31 -6 -38 -12 -18
-20 -39 -94 -34 -122 6 -31 1 -32 -34 -3 l-28 23 30 32 c17 18 30 38 30 43 0
5 9 22 19 37 46 65 102 375 101 560 0 35 4 61 9 58 5 -3 7 -34 6 -68z m3685
-13 c0 -5 -5 -3 -10 5 -5 8 -10 20 -10 25 0 6 5 3 10 -5 5 -8 10 -19 10 -25z
m-3020 -82 c0 -26 -1 -26 -14 -8 -14 20 -12 35 5 35 5 0 9 -12 9 -27z m2009 0
c-9 -2 -21 -14 -27 -26 -10 -22 -11 -22 -11 -1 -1 26 7 34 33 33 15 -1 16 -3
5 -6z m-2026 -94 c8 -25 11 -53 7 -64 -5 -14 -8 -7 -13 25 -4 25 -10 56 -13
70 -12 43 5 16 19 -31z m1982 -8 c-4 -23 -11 -41 -16 -41 -11 0 -11 6 2 53 13
50 23 41 14 -12z m-38 -73 c-3 -8 -6 -5 -6 6 -1 11 2 17 5 13 3 -3 4 -12 1
-19z m1087 -36 c9 -33 17 -95 17 -140 1 -61 4 -82 15 -86 23 -9 -3 -31 -37
-31 -23 0 -27 4 -24 20 21 98 23 139 11 214 -7 45 -9 81 -6 81 4 0 15 -26 24
-58z m-3005 -106 c-5 -6 -9 0 -9 16 0 14 -2 47 -5 74 -4 43 -3 41 10 -16 8
-40 10 -69 4 -74z m1903 77 c5 -23 -11 -73 -23 -73 -5 0 -9 -9 -9 -20 0 -11
-5 -20 -11 -20 -6 0 -9 8 -6 18 3 9 11 38 18 65 14 49 25 59 31 30z m1185 -55
c-3 -8 -6 -5 -6 6 -1 11 2 17 5 13 3 -3 4 -12 1 -19z m22 -100 c1 -10 -6 -18
-14 -18 -16 0 -18 12 -8 49 6 23 7 23 14 5 4 -10 8 -27 8 -36z m-3012 -39
c-13 -10 -21 -79 -8 -79 6 0 11 -4 11 -10 0 -5 -10 -10 -21 -10 -30 0 -105
-49 -121 -78 -9 -18 -9 -27 0 -43 11 -17 9 -19 -18 -19 -23 0 -30 -4 -30 -20
0 -11 -5 -20 -11 -20 -6 0 -9 4 -7 8 51 124 62 142 85 142 16 0 23 6 23 20 0
13 -7 20 -19 20 -19 0 -19 1 2 59 19 53 22 57 32 37 13 -25 44 -33 56 -14 5 7
9 29 9 48 l1 35 12 -35 c7 -19 9 -38 4 -41z m1738 -97 c-3 -4 -15 -1 -25 6
-25 15 -53 15 -67 1 -9 -9 -11 -7 -6 9 3 12 17 25 32 30 21 7 30 5 49 -16 13
-13 20 -27 17 -30z m1155 1 c0 -6 -23 -86 -25 -91 -1 -1 -10 0 -19 4 -20 8
-21 28 -1 44 8 7 15 23 15 36 0 17 4 22 15 18 8 -4 15 -9 15 -11z m-1281 -144
c-7 -13 -18 -28 -25 -34 -7 -5 -14 -23 -16 -40 l-3 -30 -22 24 -22 24 42 48
c41 48 71 53 46 8z m-1719 -59 c0 -5 -6 -10 -14 -10 -8 0 -18 5 -21 10 -3 6 3
10 14 10 12 0 21 -4 21 -10z"/>
</g>
</svg>
