<?xml version="1.0" standalone="no"?>
<!DOCTYPE svg PUBLIC "-//W3C//DTD SVG 20010904//EN"
 "http://www.w3.org/TR/2001/REC-SVG-20010904/DTD/svg10.dtd">
<svg version="1.0" xmlns="http://www.w3.org/2000/svg"
 width="638.000000pt" height="700.000000pt" viewBox="0 0 638.000000 700.000000"
 preserveAspectRatio="xMidYMid meet">
<metadata>
Created by potrace 1.13, written by Peter Selinger 2001-2015
</metadata>
<g transform="translate(0.000000,700.000000) scale(0.100000,-0.100000)"
fill="#000000" stroke="none">
<path d="M2582 6418 c-7 -7 -12 -18 -12 -25 0 -7 -12 -16 -27 -19 -58 -14 -83
-65 -47 -95 13 -11 15 -25 10 -74 -9 -80 -47 -225 -69 -258 -9 -14 -17 -30
-17 -35 0 -5 -7 -16 -17 -23 -9 -8 -24 -26 -33 -42 l-17 -28 -6 78 c-11 151
-75 236 -132 173 -17 -19 -17 -42 0 -83 7 -17 4 -18 -29 -12 -28 6 -41 3 -56
-10 -24 -22 -26 -58 -4 -76 14 -11 15 -26 10 -94 -4 -44 -11 -84 -16 -89 -6
-6 -10 -17 -10 -26 0 -9 -9 -25 -20 -35 -11 -10 -20 -23 -20 -29 0 -25 -38
-85 -73 -116 -20 -18 -37 -38 -37 -46 0 -8 -6 -14 -14 -14 -8 0 -23 -10 -33
-22 -21 -26 -69 -61 -96 -71 -28 -10 -72 18 -112 71 -34 44 -36 50 -30 96 3
27 13 62 21 77 19 38 18 63 -4 82 -26 24 -57 21 -79 -6 l-18 -24 -19 24 c-23
32 -62 27 -90 -10 -17 -23 -22 -46 -24 -117 -4 -102 11 -156 65 -227 24 -32
33 -54 34 -85 2 -58 -19 -154 -36 -168 -14 -12 -69 -11 -251 6 -76 7 -214 -15
-269 -43 -46 -24 -112 -79 -200 -168 -102 -102 -203 -188 -367 -312 -24 -18
-61 -49 -82 -69 -21 -19 -62 -51 -90 -70 -28 -19 -55 -38 -61 -42 -5 -4 -18
-11 -27 -15 -10 -3 -18 -11 -18 -17 0 -5 -4 -10 -10 -10 -17 0 -130 -120 -136
-145 -12 -48 5 -81 89 -176 15 -16 52 -35 107 -52 122 -39 170 -36 224 14 24
23 22 23 183 4 71 -8 175 -16 231 -18 56 -1 102 -5 102 -9 0 -5 7 -8 15 -8 32
0 97 -42 117 -76 11 -18 24 -34 29 -34 5 0 15 -16 23 -35 8 -19 20 -40 26 -47
38 -45 50 -62 50 -69 0 -4 6 -14 13 -21 8 -7 27 -34 42 -58 15 -25 39 -55 52
-67 12 -12 23 -25 23 -29 0 -33 270 -338 347 -392 18 -13 45 -35 61 -50 26
-24 161 -136 187 -154 24 -17 131 -116 154 -143 14 -16 36 -39 47 -51 12 -12
25 -40 28 -61 6 -32 41 -98 99 -187 40 -63 155 -142 219 -152 51 -8 88 -30 88
-53 0 -9 15 -48 34 -86 19 -39 39 -90 46 -115 7 -25 20 -61 28 -80 9 -19 17
-51 18 -70 2 -51 24 -241 31 -268 4 -19 11 -23 29 -19 13 2 24 0 24 -4 0 -5
-4 -9 -10 -9 -20 0 -9 -82 21 -155 5 -11 17 -47 28 -80 11 -33 27 -77 36 -98
23 -55 23 -508 0 -582 -8 -27 -22 -93 -30 -145 -10 -65 -25 -116 -47 -161 -18
-36 -42 -86 -53 -110 -11 -24 -32 -60 -47 -79 -48 -60 -42 -66 77 -81 71 -9
102 -16 95 -23 -15 -15 -12 -34 9 -55 27 -27 151 -38 234 -21 65 13 170 45
199 61 28 15 22 60 -17 115 -38 54 -46 94 -17 94 46 1 82 87 82 197 0 42 -50
317 -76 418 -86 332 -84 319 -89 518 -2 103 -6 191 -9 195 -2 4 -7 86 -10 182
-4 96 -8 182 -11 190 -9 32 -35 323 -29 329 3 3 49 6 102 5 104 -1 196 -24
296 -76 10 -5 63 -18 117 -29 135 -26 301 -23 423 7 21 5 32 3 41 -9 15 -21
76 -47 110 -47 14 0 35 9 47 20 12 11 28 20 35 20 17 0 114 66 161 108 38 34
166 102 193 102 9 0 19 6 22 13 2 6 11 -2 20 -20 10 -18 26 -37 37 -43 11 -6
20 -17 20 -25 0 -9 5 -23 10 -33 12 -20 80 -230 80 -246 0 -23 52 -146 85
-201 19 -32 35 -63 35 -70 0 -8 4 -15 8 -17 4 -1 23 -28 41 -58 19 -30 37 -57
40 -60 4 -3 15 -23 25 -45 30 -68 78 -160 86 -165 4 -3 14 -52 23 -110 9 -58
22 -134 28 -170 11 -62 10 -72 -24 -205 -58 -229 -64 -247 -103 -325 -83 -167
-128 -219 -241 -277 -40 -20 -73 -42 -73 -50 0 -7 -7 -13 -16 -13 -9 0 -18 -9
-21 -20 -3 -11 -10 -20 -17 -20 -16 -1 -106 -86 -106 -100 0 -23 42 -49 98
-61 59 -12 292 -8 325 6 13 5 17 19 17 54 0 58 6 66 50 67 28 1 45 11 85 51
31 31 55 65 62 89 6 21 26 91 43 154 18 63 40 133 50 155 9 22 20 52 24 67 3
15 13 33 21 42 8 8 15 24 15 34 0 20 68 232 77 242 2 2 1 -18 -2 -46 -6 -39
-4 -53 9 -63 19 -16 46 -7 53 17 2 10 22 26 44 35 22 10 42 24 45 31 3 8 -3
59 -15 113 -28 137 -28 152 -2 208 28 62 23 104 -18 151 -27 31 -31 42 -31 95
l0 61 30 -32 c17 -18 51 -76 77 -129 25 -53 65 -125 87 -161 83 -130 108 -190
128 -294 46 -254 60 -380 54 -472 -8 -114 -20 -151 -62 -191 -26 -25 -34 -40
-34 -68 0 -20 -7 -52 -15 -72 -34 -80 -11 -109 82 -106 35 2 80 7 101 13 125
32 152 40 192 60 25 12 23 54 -5 84 -14 15 -25 31 -25 37 0 5 -4 9 -10 9 -5 0
-10 16 -10 35 0 33 1 34 24 23 35 -15 52 -5 60 35 8 44 -8 114 -45 192 -32 68
-87 260 -100 350 -5 33 -11 135 -13 226 -3 91 -12 199 -20 240 -8 41 -18 99
-22 129 -7 63 -36 132 -70 173 -13 16 -24 34 -24 40 0 7 -12 23 -26 36 -28 27
-78 121 -113 216 -29 75 -41 105 -52 127 -14 28 -10 202 5 260 8 29 23 78 34
108 24 67 47 184 62 311 10 76 9 108 -1 155 -15 68 -14 80 10 154 10 30 26 78
35 106 9 31 16 85 16 135 0 76 -3 91 -35 153 -41 81 -53 96 -120 146 -101 74
-141 92 -195 88 -28 -1 -50 0 -50 4 0 10 -100 74 -130 83 -13 4 -30 14 -38 21
-7 8 -20 14 -28 14 -8 0 -14 4 -14 9 0 10 -71 42 -150 67 -30 9 -59 21 -64 25
-6 5 -23 9 -38 9 -15 0 -28 4 -28 9 0 5 -32 15 -71 22 -57 10 -89 10 -158 0
-47 -6 -138 -16 -201 -21 -63 -6 -137 -14 -163 -20 -68 -14 -188 -12 -319 5
-153 20 -301 47 -313 57 -5 4 -23 8 -40 8 -16 0 -75 23 -130 50 -55 27 -106
50 -112 50 -7 0 -13 4 -13 9 0 4 -21 16 -47 26 -27 10 -55 23 -63 30 -24 20
-181 99 -235 119 -27 9 -59 21 -70 26 -57 23 -90 31 -200 46 -126 17 -215 15
-360 -8 -98 -16 -216 -13 -270 5 -62 22 -107 35 -143 42 -48 10 -144 79 -244
176 l-87 85 50 33 c28 18 53 40 56 49 3 9 14 26 23 37 26 30 45 90 65 198 18
96 20 101 74 162 248 280 251 284 300 375 13 25 48 72 76 105 54 62 151 182
163 201 17 25 153 103 219 124 21 7 44 17 51 23 15 12 16 53 2 62 -6 4 0 15
15 27 29 23 32 58 7 81 -23 21 -76 22 -93 1 -11 -13 -61 -44 -72 -44 -2 0 -9
19 -16 43 -7 23 -17 50 -22 59 -5 10 -9 48 -9 86 0 72 -10 92 -45 92 -12 0
-26 -5 -33 -12z m-1942 -2043 c0 -8 -7 -15 -16 -15 -14 0 -14 3 -4 15 7 8 14
15 16 15 2 0 4 -7 4 -15z m-385 -55 c-3 -5 -14 -10 -23 -10 -15 0 -15 2 -2 10
20 13 33 13 25 0z m631 -71 c-32 -9 -42 -6 -32 9 3 5 18 7 33 4 l28 -5 -29 -8z
m3758 -1661 c7 -7 15 -24 19 -38 6 -24 6 -24 -9 -5 -34 45 -41 73 -10 43z
m105 -100 c0 -13 -4 -31 -8 -42 -7 -17 -9 -16 -24 8 -15 22 -15 26 -2 26 8 0
15 7 15 15 0 8 5 15 10 15 6 0 10 -10 9 -22z m11 -78 c0 -5 -2 -10 -4 -10 -3
0 -8 5 -11 10 -3 6 -1 10 4 10 6 0 11 -4 11 -10z m-970 -20 c21 -1 19 -3 -13
-15 -39 -13 -96 -13 -129 0 -43 17 4 22 142 15z m154 -4 c-16 -5 -32 -14 -36
-20 -6 -8 -10 -8 -15 0 -5 5 -24 15 -43 21 -31 9 -26 10 44 10 63 -1 73 -3 50
-11z m-1314 -49 c0 -7 9 -19 20 -27 11 -8 23 -29 26 -47 4 -19 12 -33 20 -33
8 0 14 -9 14 -19 0 -10 7 -21 15 -25 9 -3 15 -18 15 -36 0 -23 4 -30 20 -30
11 0 20 -6 20 -14 0 -8 5 -16 11 -18 7 -2 8 -20 4 -51 -7 -45 -9 -47 -25 -32
-9 9 -25 33 -35 55 -10 22 -22 40 -27 40 -4 0 -8 9 -8 20 0 11 -4 20 -9 20 -5
0 -11 18 -15 40 -3 22 -11 40 -16 40 -6 0 -10 6 -10 14 0 8 -9 33 -20 57 -21
48 -26 74 -10 64 6 -3 10 -12 10 -18z m2188 -19 c-8 -22 -13 -26 -19 -16 -5 7
-9 23 -9 35 0 16 5 20 19 16 17 -4 18 -9 9 -35z m-2047 -577 c-8 -22 -9 -19
-10 24 0 42 2 46 10 26 6 -15 6 -34 0 -50z m2689 3 c0 -8 4 -14 9 -14 13 0 24
-37 16 -51 -4 -6 -18 13 -31 41 -28 61 -29 67 -9 50 8 -7 15 -19 15 -26z
m-2633 -150 c-3 -3 -12 -4 -19 -1 -8 3 -5 6 6 6 11 1 17 -2 13 -5z m22 -106
c5 -13 7 -25 4 -28 -5 -6 -33 30 -33 42 0 17 21 7 29 -14z m61 -154 c23 -10
25 -16 27 -85 3 -149 12 -258 23 -278 8 -16 8 -21 -3 -21 -9 0 -17 31 -26 108
-7 59 -16 137 -20 173 -5 37 -16 77 -25 90 -9 13 -16 28 -16 34 0 7 3 7 8 0 4
-6 18 -15 32 -21z m3050 -50 c0 -8 -5 -12 -10 -9 -6 4 -8 11 -5 16 9 14 15 11
15 -7z m-2882 -484 c5 -58 5 -118 1 -135 -7 -28 -7 -29 -10 -5 -1 14 -2 31 -1
39 0 8 -6 73 -14 145 -7 72 -13 147 -13 166 1 59 28 -93 37 -210z m-93 67 c15
-4 14 -5 -7 -6 -21 -1 -28 4 -28 17 0 11 3 13 8 6 4 -7 16 -14 27 -17z m22
-89 c-3 -7 -5 -2 -5 12 0 14 2 19 5 13 2 -7 2 -19 0 -25z m223 -38 c0 -11 -4
-20 -10 -20 -5 0 -10 5 -10 10 0 6 -8 10 -17 10 -15 0 -16 2 -3 10 24 16 40
12 40 -10z m-210 -80 c0 -5 -10 -10 -22 -9 -22 0 -22 1 -3 9 11 5 21 9 23 9 1
1 2 -3 2 -9z m3063 -98 c-3 -12 -9 -22 -13 -22 -4 0 -23 -3 -41 -6 -26 -4 -30
-3 -19 5 8 6 25 11 38 11 18 0 22 6 22 33 1 24 3 28 10 16 5 -8 6 -25 3 -37z
m-3070 -4 c5 -13 1 -18 -13 -18 -15 0 -20 -7 -20 -25 0 -14 5 -25 11 -25 5 0
7 -5 3 -12 -6 -9 -9 -9 -12 0 -2 7 -17 12 -34 12 l-30 0 7 -57 c4 -31 9 -62
11 -68 3 -7 -4 -15 -15 -18 -31 -8 -27 -45 4 -53 14 -3 25 -10 25 -15 0 -5
-11 -9 -25 -9 -18 0 -25 -5 -25 -20 0 -15 7 -20 25 -20 21 0 24 -2 13 -13 -10
-11 -21 -9 -63 12 -27 14 -51 29 -53 34 -2 4 -10 7 -18 7 -23 0 -16 27 21 76
28 37 35 54 35 92 0 63 11 122 21 122 5 0 9 -7 9 -15 0 -8 9 -15 20 -15 11 0
20 4 20 9 0 4 11 6 25 3 22 -4 25 -1 25 28 0 26 2 29 13 18 7 -7 16 -21 20
-30z m187 -70 l39 -23 -22 -40 c-12 -22 -23 -42 -25 -45 -6 -9 -22 25 -22 48
0 16 -6 22 -21 22 -20 0 -21 -4 -17 -45 4 -34 2 -45 -8 -45 -8 0 -14 -9 -14
-20 0 -11 4 -20 9 -20 5 0 7 -9 4 -19 -3 -11 4 -28 16 -40 12 -12 21 -28 21
-37 0 -8 7 -22 15 -31 9 -8 14 -17 11 -20 -6 -6 -46 34 -46 47 0 6 -7 10 -15
10 -8 0 -15 5 -15 10 0 6 -9 10 -20 10 -11 0 -20 -6 -20 -14 0 -27 12 -46 30
-46 10 0 20 -10 23 -21 5 -20 3 -21 -30 -16 -42 7 -81 37 -49 37 15 0 17 5 12
30 -3 17 -1 50 4 73 5 23 15 76 23 117 10 63 16 77 37 87 33 17 35 17 80 -9z
m1882 -3 c4 -17 1 -25 -8 -25 -14 0 -19 31 -7 43 9 10 10 9 15 -18z m-25 -65
c18 0 55 -39 50 -54 -2 -5 -12 -14 -23 -20 -10 -6 -21 -13 -24 -16 -3 -4 -24
-12 -47 -18 -25 -8 -43 -19 -43 -27 0 -8 -8 -15 -17 -14 -11 0 -13 3 -5 6 14
6 17 43 2 43 -6 0 -6 10 1 27 11 30 82 96 87 82 2 -5 11 -9 19 -9z m916 -32
c-3 -16 -11 -28 -19 -28 -7 0 -16 -5 -19 -11 -10 -16 4 -59 19 -59 8 0 21 -11
30 -25 l16 -25 -37 18 c-39 18 -73 46 -73 60 0 5 9 17 19 26 11 10 27 34 36
53 19 39 36 33 28 -9z m-1068 -107 c-3 -12 -11 -21 -16 -21 -15 0 -10 -37 6
-44 8 -3 15 -12 15 -21 0 -8 5 -15 10 -15 6 0 10 -5 10 -10 0 -6 -11 -3 -25 6
-14 9 -25 23 -25 30 0 8 -7 14 -15 14 -8 0 -15 7 -15 15 0 8 -4 15 -10 15 -18
0 -10 22 10 27 11 3 20 9 20 13 0 8 31 19 38 14 2 -1 1 -12 -3 -23z m-1745
-141 c0 -5 -4 -10 -10 -10 -5 0 -10 5 -10 10 0 6 5 10 10 10 6 0 10 -4 10 -10z
m77 -6 c14 -13 14 -17 2 -25 -8 -5 -15 -4 -17 1 -2 6 -16 11 -30 11 -17 1 -21
3 -9 6 9 2 17 9 17 14 0 14 20 11 37 -7z"/>
</g>
</svg>
