<?xml version="1.0" standalone="no"?>
<!DOCTYPE svg PUBLIC "-//W3C//DTD SVG 20010904//EN"
 "http://www.w3.org/TR/2001/REC-SVG-20010904/DTD/svg10.dtd">
<svg version="1.0" xmlns="http://www.w3.org/2000/svg"
 width="551.000000pt" height="500.000000pt" viewBox="0 0 551.000000 500.000000"
 preserveAspectRatio="xMidYMid meet">
<metadata>
Created by potrace 1.13, written by Peter Selinger 2001-2015
</metadata>
<g transform="translate(0.000000,500.000000) scale(0.100000,-0.100000)"
fill="#000000" stroke="none">
<path d="M4056 4725 c-11 -9 -17 -22 -13 -34 3 -12 -3 -27 -14 -37 -15 -14
-19 -31 -19 -88 1 -39 7 -88 15 -109 17 -50 10 -172 -15 -247 -11 -30 -24 -91
-30 -134 -5 -44 -11 -80 -13 -81 -1 -1 -18 -8 -37 -15 -19 -7 -46 -23 -60 -35
-42 -35 -75 -48 -109 -40 -20 4 -37 2 -46 -5 -12 -10 -15 -10 -15 0 0 8 -11
10 -32 7 -101 -16 -118 -20 -118 -28 0 -5 -11 -9 -24 -9 -14 0 -26 -7 -28 -18
-4 -15 -13 -17 -42 -14 -21 2 -36 0 -36 -6 0 -6 -14 -14 -32 -17 -36 -8 -125
-64 -150 -94 -10 -12 -25 -21 -33 -21 -8 0 -15 -4 -15 -10 0 -5 -7 -10 -15
-10 -8 0 -15 -4 -15 -10 0 -5 -7 -10 -15 -10 -8 0 -15 -3 -15 -7 0 -5 -22 -18
-48 -29 -99 -45 -168 -63 -234 -64 -25 0 -59 -7 -75 -15 -15 -8 -50 -24 -78
-35 -27 -11 -57 -25 -65 -30 -8 -6 -24 -14 -36 -19 -11 -5 -37 -24 -56 -43
-20 -18 -49 -40 -64 -48 -31 -17 -104 -87 -147 -142 -25 -31 -36 -36 -84 -42
-30 -3 -89 -16 -131 -27 -43 -12 -93 -25 -112 -29 -50 -12 -221 -59 -229 -65
-4 -2 -72 -5 -152 -6 -131 -1 -202 -9 -344 -40 -87 -18 -417 -27 -488 -13
-218 43 -223 45 -303 120 -46 42 -97 63 -128 51 -18 -7 -31 -137 -17 -180 5
-18 15 -51 21 -75 l11 -43 48 7 c45 6 50 4 95 -35 57 -50 79 -56 164 -46 127
14 492 13 597 -1 55 -8 217 -16 360 -19 143 -3 289 -9 325 -13 l65 -8 -90 -13
c-49 -7 -99 -17 -110 -22 -11 -5 -62 -11 -113 -12 -50 -1 -92 -5 -92 -10 0 -4
-15 -5 -34 -2 -20 4 -36 2 -40 -4 -4 -6 -24 -11 -46 -11 -21 0 -66 -8 -101
-19 -257 -75 -307 -81 -574 -66 -137 7 -164 13 -195 42 -41 38 -65 53 -85 53
-11 0 -25 4 -31 10 -5 5 -31 13 -58 16 l-48 7 7 -49 c14 -102 44 -206 64 -222
9 -6 39 -12 66 -11 72 1 73 1 80 -20 10 -33 79 -45 186 -31 52 7 110 18 129
26 19 7 84 18 145 25 99 10 151 9 355 -7 19 -2 62 1 95 7 74 11 175 17 175 9
0 -4 80 -12 178 -19 97 -6 199 -15 225 -18 l49 -6 -6 -56 c-6 -65 -19 -154
-34 -231 -12 -60 -10 -178 5 -308 9 -74 20 -102 54 -132 3 -3 13 -27 23 -55
11 -27 30 -69 44 -93 27 -48 26 -51 -38 -86 -14 -8 -60 -52 -102 -98 -42 -46
-96 -97 -120 -113 -47 -32 -118 -101 -118 -116 0 -5 -7 -9 -15 -9 -8 0 -40
-17 -72 -37 -130 -83 -287 -101 -503 -58 -161 31 -339 85 -415 125 -30 16 -68
28 -85 28 -34 -1 -94 27 -125 58 -11 12 -35 25 -52 28 -18 4 -33 12 -33 17 0
5 -10 9 -23 9 -31 0 -47 -56 -47 -164 l0 -84 40 -16 c26 -10 54 -14 83 -10 41
6 46 4 66 -24 23 -33 53 -42 207 -61 81 -10 331 -75 414 -108 64 -26 130 -65
130 -78 0 -6 -25 -24 -55 -40 -30 -17 -74 -40 -97 -52 -23 -13 -44 -26 -47
-30 -9 -12 -70 -33 -136 -47 -69 -15 -168 -24 -340 -31 -66 -3 -152 -7 -191
-11 -68 -5 -73 -4 -148 35 -127 67 -152 58 -143 -56 13 -165 48 -207 141 -168
34 14 40 14 68 0 17 -8 39 -15 49 -15 9 0 19 -5 21 -10 6 -18 90 -14 178 9 47
12 103 26 125 31 211 44 258 50 450 60 116 6 228 12 251 14 40 3 98 36 108 63
3 7 12 13 19 13 8 0 22 15 31 32 10 18 48 53 84 78 37 25 75 53 85 62 11 9 33
22 51 29 17 7 39 19 48 27 28 24 88 19 151 -11 31 -16 57 -33 57 -38 0 -5 6
-9 14 -9 7 0 24 -9 38 -19 13 -11 36 -23 50 -26 14 -4 35 -15 47 -26 11 -10
23 -19 26 -19 4 0 48 -20 98 -43 51 -24 111 -52 135 -62 49 -21 50 -39 1 -43
-19 -2 -40 -8 -46 -14 -16 -13 -17 -50 -1 -66 15 -15 144 -16 257 -1 88 12
232 46 241 58 3 3 21 13 40 22 19 9 46 22 60 28 24 12 80 82 80 100 0 5 7 11
15 15 8 3 15 12 15 19 0 8 7 21 17 28 9 8 27 38 39 67 13 28 27 52 32 52 5 0
14 16 22 35 8 19 17 35 22 35 4 0 8 9 8 19 0 10 7 21 15 25 8 3 15 12 15 19 0
8 11 27 25 43 14 16 25 35 25 42 0 6 4 12 10 12 5 0 13 12 16 28 4 15 14 38
23 52 9 13 24 56 34 95 15 58 19 123 23 387 4 319 7 356 43 548 30 161 52 221
155 425 41 83 84 179 95 215 27 89 50 233 50 303 0 47 4 62 20 76 12 10 21 23
21 30 0 6 9 11 20 11 13 0 22 9 26 25 5 20 11 23 32 19 19 -4 37 2 61 20 23
17 48 26 73 26 24 0 38 5 38 13 0 8 15 12 42 12 24 0 43 6 46 13 2 6 15 12 28
12 14 0 27 7 30 15 3 8 28 28 55 45 28 17 52 37 55 45 4 8 15 15 25 15 10 0
19 4 19 9 0 5 9 13 20 16 11 3 20 13 20 21 0 16 23 44 35 44 4 0 15 10 24 22
l18 22 57 -27 c31 -15 60 -27 65 -27 19 0 121 -83 133 -107 7 -15 24 -33 37
-39 13 -7 44 -32 70 -56 51 -48 126 -108 136 -108 4 0 43 -29 88 -65 83 -67
121 -79 137 -45 4 8 12 25 18 37 21 40 13 60 -40 107 l-53 46 91 0 c68 0 95 4
104 14 15 19 9 57 -10 66 -20 10 -174 30 -232 30 -62 0 -76 6 -71 33 5 24 44
47 80 47 13 0 31 4 41 9 9 5 35 17 57 28 43 20 56 52 34 79 -9 11 -25 14 -58
11 -67 -7 -133 -26 -153 -44 -13 -12 -23 -13 -45 -5 -15 6 -21 11 -13 11 9 1
23 10 33 21 9 11 26 20 38 20 13 0 23 8 26 21 7 24 18 23 161 -2 81 -15 105
-8 110 30 5 34 -13 47 -81 61 -51 10 -58 14 -40 21 12 4 28 17 35 29 7 11 20
20 28 20 37 0 54 56 25 80 -16 13 -91 5 -101 -11 -8 -13 -89 -49 -111 -49 -10
0 -42 -7 -70 -14 -29 -8 -53 -10 -53 -6 0 5 -8 10 -17 12 -10 2 27 18 82 36
55 17 115 43 133 58 71 56 11 127 -65 77 -14 -10 -75 -34 -135 -54 -86 -28
-111 -33 -119 -23 -6 7 -27 18 -47 25 -20 6 -56 25 -80 40 -24 16 -49 29 -56
29 -8 0 -19 7 -26 15 -17 21 4 45 40 45 15 0 41 7 56 15 16 8 39 15 50 15 12
0 27 7 34 15 7 8 17 15 22 15 5 0 15 6 23 13 7 6 27 23 44 36 40 30 40 61 0
85 -23 14 -54 18 -129 19 -92 2 -102 0 -154 -28 -37 -20 -59 -26 -64 -19 -4 5
-22 16 -40 24 -20 8 -44 30 -59 54 -25 41 -35 51 -112 116 -22 19 -41 41 -41
48 0 19 -43 82 -94 137 -26 28 -56 64 -68 81 -26 37 -142 94 -191 94 -17 0
-40 -7 -51 -15z m294 -386 c0 -11 -4 -19 -10 -19 -5 0 -10 -9 -10 -20 0 -12 7
-20 18 -20 9 0 24 -5 32 -10 12 -8 9 -10 -12 -10 -15 0 -33 7 -42 15 -8 8 -19
15 -25 15 -6 0 -11 5 -11 10 0 6 -9 10 -20 10 -25 0 -27 -37 -2 -43 10 -3 7
-5 -10 -6 -35 -1 -45 -34 -27 -88 14 -43 26 -58 56 -67 11 -4 23 -18 26 -31 6
-33 -19 -33 -27 0 -6 24 -46 37 -46 15 0 -5 -4 -10 -8 -10 -14 0 -32 64 -25
89 4 17 1 28 -12 37 -18 13 -18 14 -1 14 15 0 17 6 12 35 -5 24 -3 35 5 35 7
0 10 14 7 40 -2 22 0 40 4 40 5 0 8 -4 8 -10 0 -5 9 -10 20 -10 11 0 20 6 20
14 0 11 8 12 40 4 29 -8 40 -16 40 -29z m-14 -115 c49 -9 45 -34 -6 -34 -35 0
-40 -3 -40 -22 -1 -21 -2 -21 -11 -5 -7 12 -6 28 3 53 7 19 14 31 16 25 2 -6
19 -13 38 -17z m221 -326 c-3 -8 -6 -5 -6 6 -1 11 2 17 5 13 3 -3 4 -12 1 -19z
m-147 -28 c0 -5 9 -10 20 -10 11 0 20 -5 20 -10 0 -15 -26 -23 -54 -16 -18 4
-23 11 -19 26 5 20 33 29 33 10z m-3979 -853 l-24 -22 19 27 c10 14 21 24 23
22 3 -3 -6 -15 -18 -27z m1179 -67 c13 0 17 -5 13 -20 -3 -11 -11 -20 -18 -20
-7 0 -20 -10 -28 -22 -13 -18 -16 -19 -16 -7 -1 9 -8 19 -16 23 -19 7 -19 26
0 26 8 0 20 9 27 20 7 11 14 16 16 10 2 -5 12 -10 22 -10z m-844 -57 c-11 -11
-19 6 -11 24 8 17 8 17 12 0 3 -10 2 -21 -1 -24z m149 26 c10 -15 5 -17 -43
-25 -38 -6 -42 -5 -42 15 0 18 6 21 39 21 22 0 43 -5 46 -11z m182 -11 c-3 -8
-6 -5 -6 6 -1 11 2 17 5 13 3 -3 4 -12 1 -19z m583 -263 c0 -17 -39 -36 -54
-27 -5 3 0 9 12 13 12 5 22 13 22 19 0 5 5 10 10 10 6 0 10 -7 10 -15z m-416
-80 c-4 -10 -14 -13 -29 -9 -13 3 -29 3 -36 -1 -12 -8 -82 -15 -75 -8 6 6 105
30 128 32 12 1 15 -4 12 -14z m-290 -27 c17 -1 -3 -4 -44 -8 -83 -7 -110 -3
-88 12 7 5 33 6 57 3 24 -3 58 -6 75 -7z m-160 -43 c3 -8 13 -15 22 -15 10 0
14 -3 10 -7 -7 -8 -106 -12 -106 -5 0 8 46 41 56 42 7 0 14 -7 18 -15z m-192
-1347 c-7 -7 -12 -8 -12 -2 0 14 12 26 19 19 2 -3 -1 -11 -7 -17z m1343 -59
c14 -21 -1 -17 -25 8 -23 24 -23 25 -3 15 12 -7 25 -17 28 -23z m-1058 -15
c-3 -3 -12 -4 -19 -1 -8 3 -5 6 6 6 11 1 17 -2 13 -5z m793 -234 c0 -5 -7 -7
-15 -4 -8 4 -15 8 -15 10 0 2 7 4 15 4 8 0 15 -4 15 -10z m-85 -179 c3 -6 -10
-17 -30 -27 -19 -9 -35 -22 -35 -29 0 -7 -7 -15 -15 -19 -8 -3 -15 -1 -15 4 0
6 5 10 10 10 6 0 10 7 10 15 0 8 6 15 13 15 7 0 19 9 27 20 16 22 26 25 35 11z
m-231 -26 c-4 -8 -12 -15 -19 -15 -7 0 -15 -6 -18 -12 -2 -7 -8 -10 -12 -6 -4
4 3 16 16 27 29 24 40 26 33 6z m-306 -122 c-10 -2 -26 -2 -35 0 -10 3 -2 5
17 5 19 0 27 -2 18 -5z m-100 -10 c-10 -2 -28 -2 -40 0 -13 2 -5 4 17 4 22 1
32 -1 23 -4z m-133 -10 c-33 -2 -62 -8 -65 -12 -3 -5 -22 -11 -42 -15 -30 -5
-38 -4 -38 8 0 16 41 23 145 22 l60 0 -60 -3z m-165 -43 c0 -5 -7 -10 -15 -10
-8 0 -15 5 -15 10 0 6 7 10 15 10 8 0 15 -4 15 -10z"/>
</g>
</svg>
