<?xml version="1.0" standalone="no"?>
<!DOCTYPE svg PUBLIC "-//W3C//DTD SVG 20010904//EN"
 "http://www.w3.org/TR/2001/REC-SVG-20010904/DTD/svg10.dtd">
<svg version="1.0" xmlns="http://www.w3.org/2000/svg"
 width="416.000000pt" height="406.000000pt" viewBox="0 0 416.000000 406.000000"
 preserveAspectRatio="xMidYMid meet">
<metadata>
Created by potrace 1.13, written by Peter Selinger 2001-2015
</metadata>
<g transform="translate(0.000000,406.000000) scale(0.100000,-0.100000)"
fill="#000000" stroke="none">
<path d="M1505 3050 c-11 -4 -23 -6 -27 -3 -5 2 -8 -1 -8 -6 0 -6 -6 -11 -14
-11 -15 0 -52 -68 -60 -110 -6 -36 -34 -87 -50 -93 -20 -8 -69 -94 -72 -126
-1 -14 -3 -28 -4 -31 -1 -3 -2 -8 -1 -12 0 -5 -4 -8 -10 -8 -6 0 -9 -6 -6 -14
3 -8 -1 -17 -10 -20 -9 -4 -13 -9 -10 -13 4 -3 3 -11 -2 -17 -5 -6 -18 -43
-30 -82 -28 -96 -60 -109 -123 -49 -20 19 -43 35 -50 35 -7 0 -31 17 -53 38
-22 20 -47 37 -55 36 -8 0 -21 4 -27 9 -9 6 -13 6 -13 -2 0 -6 -7 -11 -15 -11
-9 0 -36 -19 -61 -42 -81 -76 -94 -87 -94 -82 0 2 -18 -7 -40 -21 -22 -14 -40
-23 -40 -19 0 3 -7 -2 -16 -10 -8 -9 -21 -16 -29 -16 -7 0 -15 -4 -17 -9 -4
-11 -45 -21 -148 -35 -8 -1 -21 -5 -27 -9 -7 -5 -13 -5 -13 0 0 4 -5 0 -11
-10 -6 -10 -15 -14 -22 -10 -19 12 -38 15 -92 13 -94 -1 -131 -18 -137 -59 -5
-36 7 -49 42 -46 14 1 35 -2 47 -6 13 -5 25 -4 28 2 4 5 11 6 17 3 28 -17 195
-24 206 -8 7 9 27 16 50 17 6 0 12 4 12 9 0 5 4 6 10 3 5 -3 15 3 22 15 7 11
21 20 30 20 10 0 18 4 18 10 0 5 6 7 14 4 8 -3 17 -1 21 5 3 6 15 11 26 11 10
0 19 4 19 9 0 9 55 25 66 19 3 -2 10 5 15 15 6 9 14 15 19 12 5 -3 11 -1 15 5
4 6 10 8 15 5 5 -3 11 -1 14 4 8 12 84 -5 101 -23 11 -11 10 -15 -7 -27 -11
-8 -26 -18 -32 -24 -51 -46 -110 -87 -128 -91 -32 -7 -64 -13 -94 -18 -14 -3
-33 -14 -43 -24 -15 -18 -19 -18 -36 -5 -21 15 -78 13 -128 -6 -15 -6 -27 -8
-27 -5 0 8 -23 -16 -43 -45 -16 -24 -16 -25 9 -41 19 -13 35 -15 65 -10 21 4
39 5 39 1 0 -8 148 -6 156 2 3 3 12 3 20 0 8 -3 14 0 14 6 0 6 8 11 18 11 9 0
34 11 53 24 20 14 49 28 64 32 14 4 29 12 31 19 3 7 13 16 22 19 9 3 24 10 32
15 22 14 52 24 75 24 11 1 23 5 26 10 4 6 13 6 20 1 8 -5 20 -9 26 -10 7 -1
20 -9 29 -18 8 -9 22 -16 30 -16 8 0 14 -5 14 -12 0 -6 3 -8 6 -5 4 3 27 -8
53 -26 70 -49 144 -107 136 -107 -4 0 -2 -7 5 -15 7 -8 16 -12 21 -9 5 3 15 2
22 -3 21 -13 58 -14 108 -4 27 6 55 8 63 5 12 -5 26 -31 30 -59 1 -5 9 -23 18
-40 8 -16 14 -40 13 -52 -1 -14 5 -25 16 -28 10 -4 18 -11 16 -17 -1 -6 7 -16
18 -22 24 -13 103 -73 125 -96 8 -8 38 -33 65 -55 64 -51 127 -119 114 -123
-6 -3 -5 -10 2 -18 9 -11 9 -18 1 -26 -7 -7 -7 -19 -2 -34 5 -12 7 -32 5 -43
-2 -12 0 -21 6 -21 5 0 9 -9 9 -20 0 -11 3 -20 8 -20 8 0 38 -29 107 -106 28
-30 71 -78 98 -105 26 -28 47 -54 47 -59 0 -4 13 -21 28 -38 15 -16 26 -35 24
-41 -2 -6 0 -11 5 -11 5 0 10 -8 11 -17 3 -31 7 -48 15 -60 4 -6 1 -14 -5 -16
-10 -4 -10 -6 -1 -6 7 -1 10 -7 7 -15 -3 -8 -7 -29 -9 -48 -2 -18 -4 -33 -5
-33 -1 0 -3 -9 -5 -20 -3 -20 -8 -40 -22 -100 -4 -16 -6 -33 -5 -37 1 -5 -1
-8 -5 -8 -5 0 -9 -24 -11 -53 -2 -28 -7 -56 -12 -61 -6 -6 -3 -17 8 -29 12
-14 13 -21 5 -24 -8 -3 -9 -12 -4 -26 4 -12 7 -33 6 -47 -2 -14 3 -39 10 -57
7 -17 11 -34 8 -37 -14 -14 21 -35 55 -32 27 1 40 8 49 26 10 21 9 98 -3 109
-2 2 2 14 9 25 14 23 16 64 4 84 -5 6 -5 12 0 12 4 0 9 26 10 57 1 32 5 85 8
118 4 33 8 68 8 78 1 9 4 17 7 17 3 0 6 12 7 27 3 50 15 113 22 113 4 0 7 8 7
18 1 9 2 22 4 27 6 24 -2 53 -20 73 -29 31 -8 27 32 -5 45 -38 58 -51 58 -58
0 -3 9 -15 20 -27 10 -12 17 -25 14 -30 -3 -4 -1 -8 4 -8 5 0 9 -18 10 -41 1
-22 4 -45 8 -50 3 -5 0 -9 -7 -9 -8 0 -8 -4 1 -15 10 -12 10 -15 0 -15 -9 0
-9 -4 -2 -13 6 -7 7 -18 3 -25 -4 -7 -7 -26 -6 -42 1 -17 -1 -30 -5 -30 -8 0
-9 -8 -14 -75 -2 -27 2 -64 9 -80 6 -17 10 -39 8 -50 -11 -65 -11 -115 -1
-115 6 0 8 -3 5 -7 -4 -3 -2 -12 4 -20 6 -7 8 -13 5 -13 -4 0 -1 -10 6 -22 7
-13 13 -25 14 -28 6 -25 20 -40 38 -40 12 0 27 -5 33 -11 17 -17 43 51 39 102
-2 24 -5 44 -6 44 -7 0 -7 42 0 55 6 11 5 21 -2 28 -9 9 -9 12 1 12 11 0 11 3
0 17 -8 9 -12 19 -10 22 2 3 9 14 16 24 9 13 10 28 4 49 -4 17 -6 35 -3 39 3
5 0 9 -6 9 -7 0 -8 6 -1 19 8 15 7 20 -5 25 -8 3 -12 10 -9 16 3 5 1 10 -5 10
-6 0 -8 11 -5 27 3 16 8 50 11 78 3 27 9 57 13 65 4 8 6 27 5 43 -2 15 2 27 7
27 6 0 7 6 2 13 -4 6 -6 22 -4 35 1 12 -3 22 -9 22 -6 0 -8 4 -5 10 3 6 1 10
-4 10 -6 0 -11 5 -11 10 0 11 -54 62 -101 95 -16 11 -29 26 -29 33 0 6 -4 12
-9 12 -5 0 -8 8 -7 17 2 9 -10 28 -26 41 -15 13 -28 30 -28 38 0 8 -4 14 -8
14 -5 0 -9 7 -9 15 0 10 10 15 29 15 15 0 28 5 28 11 0 5 5 7 10 4 6 -3 10 -1
10 4 0 6 9 11 20 11 11 0 20 5 20 11 0 8 4 8 13 2 6 -6 28 -8 47 -6 19 2 49 5
65 7 17 1 40 6 52 10 35 11 112 88 124 125 7 19 20 42 31 53 10 10 16 23 13
28 -3 5 1 21 10 34 9 14 15 28 13 33 -2 4 5 9 15 11 9 2 17 0 17 -5 0 -4 15
-9 33 -9 51 -2 64 -8 104 -45 36 -32 81 -45 98 -27 4 4 12 5 18 3 15 -6 47 38
53 71 2 14 -2 35 -11 47 -8 12 -15 29 -15 39 0 10 -5 18 -11 18 -5 0 -8 4 -4
9 3 5 1 12 -4 15 -11 7 -3 94 12 121 16 28 16 64 1 73 -12 7 -18 25 -15 49 0
6 10 15 21 18 11 3 23 17 26 31 3 13 10 24 15 24 5 0 6 7 3 15 -4 8 -2 15 2
15 15 0 33 53 30 84 -2 16 -11 33 -20 38 -14 8 -14 11 -2 24 8 8 18 14 23 14
10 0 108 100 98 100 -4 0 -2 7 5 15 10 12 10 18 1 29 -18 22 -46 15 -67 -16
-11 -15 -28 -28 -39 -28 -15 0 -17 2 -6 9 7 5 10 14 7 20 -4 6 -2 11 4 11 6 0
9 4 6 9 -3 5 1 14 9 21 8 7 13 15 10 19 -2 4 9 22 25 40 17 18 30 38 30 46 0
20 -25 25 -54 10 -14 -8 -26 -11 -26 -7 0 4 -10 -8 -22 -27 l-21 -33 -14 26
c-7 14 -16 26 -20 26 -9 0 -43 -41 -44 -54 -2 -13 -9 -125 -12 -176 -1 -20
-10 -43 -21 -53 -11 -9 -17 -20 -13 -23 8 -8 -44 -64 -59 -64 -14 0 -40 39
-36 54 2 5 -1 12 -5 15 -15 11 -34 52 -28 61 4 6 0 10 -7 10 -9 1 -7 5 5 14 9
7 17 18 17 25 0 6 7 11 15 11 8 0 15 4 15 8 0 5 8 17 18 28 15 16 28 39 37 64
1 3 5 14 9 25 15 38 14 42 -5 58 -17 15 -20 15 -39 -5 -11 -12 -20 -27 -20
-32 0 -6 -14 -25 -30 -43 -17 -18 -30 -37 -30 -44 0 -7 -3 -9 -6 -6 -9 9 -12
77 -4 77 3 0 5 14 4 30 -1 17 2 30 7 30 4 0 6 7 3 15 -4 8 -2 15 3 15 5 0 9
10 10 21 1 12 8 29 15 38 8 9 20 28 28 44 7 15 17 27 22 27 5 0 6 6 1 13 -4 6
-8 15 -8 18 0 3 -7 13 -16 21 -15 15 -19 12 -52 -33 -21 -26 -37 -51 -37 -54
0 -4 -7 -13 -15 -21 -13 -14 -15 -13 -15 4 0 23 -25 46 -39 38 -35 -22 -46
-110 -23 -178 4 -13 7 -55 7 -95 -1 -55 -5 -77 -20 -93 -10 -11 -15 -20 -10
-20 4 0 2 -7 -5 -15 -7 -8 -10 -15 -7 -15 3 0 0 -15 -7 -32 -8 -18 -13 -54
-12 -80 1 -26 -1 -46 -4 -45 -9 3 -130 -122 -130 -135 0 -5 -11 -23 -25 -40
-14 -16 -25 -36 -25 -44 0 -8 -4 -14 -9 -14 -5 0 -17 -7 -25 -16 -20 -19 -47
-25 -63 -12 -6 5 -19 8 -29 6 -12 -2 -21 9 -32 42 -8 25 -19 46 -23 48 -4 2
-5 10 -2 18 3 8 0 14 -7 14 -7 0 -10 6 -7 14 3 8 -1 20 -8 26 -8 7 -13 16 -10
20 3 4 -2 11 -11 14 -8 3 -13 10 -10 15 3 5 -1 12 -10 15 -8 3 -13 10 -9 15 3
5 -4 12 -15 16 -11 3 -20 13 -20 20 0 8 -10 21 -22 29 -12 9 -18 16 -13 16 6
0 -3 11 -19 25 -16 14 -34 25 -39 25 -6 0 -7 3 -4 7 4 3 -5 21 -19 40 -14 18
-22 38 -19 43 3 6 1 10 -4 10 -6 0 -11 5 -11 10 0 6 -9 19 -20 30 -12 12 -18
25 -15 30 4 6 1 10 -5 10 -6 0 -16 14 -21 30 -6 17 -16 30 -22 30 -6 0 -8 3
-4 6 6 7 -48 93 -67 106 -6 4 -8 8 -3 8 14 0 -22 57 -47 74 -15 9 -26 20 -26
25 0 12 -189 201 -201 201 -5 0 -22 9 -37 20 -15 11 -41 23 -57 26 -16 3 -32
9 -35 13 -3 5 -16 12 -28 16 -19 5 -22 12 -18 31 4 15 2 24 -5 24 -7 0 -9 3
-6 6 7 7 -27 36 -58 49 -31 12 -48 14 -70 5z m-27 -122 c-11 -35 -38 -70 -38
-51 0 6 4 13 10 15 5 2 11 14 12 28 2 20 14 39 25 40 1 0 -3 -15 -9 -32z m-42
-103 c-1 -8 -5 -17 -8 -20 -3 -4 -4 -20 -1 -37 2 -17 1 -28 -5 -24 -5 3 -15
-6 -22 -19 -7 -14 -17 -25 -22 -25 -5 0 -7 -4 -3 -10 3 -5 -10 -26 -29 -46
-19 -21 -33 -40 -31 -44 4 -6 -31 -50 -39 -50 -2 0 -2 9 1 20 3 11 9 20 14 20
5 0 6 7 3 15 -4 8 -1 15 5 15 6 0 11 6 11 14 0 8 7 22 16 30 8 9 16 25 17 36
1 14 7 20 17 17 9 -2 22 3 29 11 12 12 12 16 0 23 -12 8 -11 11 2 22 9 6 14
18 12 25 -3 6 0 12 6 12 6 0 11 7 11 15 0 8 4 15 9 15 5 0 8 -7 7 -15z m-150
-297 c-1 -7 -7 -22 -13 -33 -11 -18 -12 -17 -10 12 1 18 7 33 14 33 6 0 10 -6
9 -12z m152 -376 c-10 -2 -18 -8 -18 -14 0 -6 -3 -8 -6 -5 -11 10 17 38 30 30
7 -5 5 -9 -6 -11z m-111 -38 c-3 -3 -12 -4 -19 -1 -8 3 -5 6 6 6 11 1 17 -2
13 -5z m-777 -14 c0 -5 -5 -10 -11 -10 -5 0 -7 5 -4 10 3 6 8 10 11 10 2 0 4
-4 4 -10z m1190 -199 c0 -18 -26 -61 -37 -61 -15 0 -12 32 5 52 6 8 9 18 5 22
-4 4 0 4 10 0 9 -3 17 -9 17 -13z m101 -163 c9 -17 9 -19 -7 -10 -9 5 -26 7
-38 4 -21 -5 -21 -5 -2 16 20 24 30 22 47 -10z m934 -207 c-4 -14 1 -21 25
-29 16 -6 30 -8 30 -3 0 4 7 16 15 27 14 18 15 17 9 -16 -5 -34 -29 -70 -46
-70 -5 0 -18 -9 -29 -19 -12 -11 -30 -18 -40 -16 -10 2 -19 -1 -19 -7 0 -6 -3
-8 -7 -4 -4 4 6 18 21 31 16 14 26 25 21 25 -4 0 -2 6 4 14 9 10 8 16 -4 26
-13 10 -12 15 3 36 21 29 25 30 17 5z m-198 -126 c8 -9 13 -18 11 -21 -3 -2
-13 5 -23 16 -21 23 -11 27 12 5z m-66 -21 c-11 -8 -22 -28 -26 -45 -4 -17 -9
-28 -12 -25 -6 6 -63 -54 -63 -66 0 -10 -37 -4 -47 7 -5 4 -3 6 2 3 6 -3 16 0
23 8 7 8 9 14 5 15 -4 0 2 4 15 9 12 5 22 16 22 24 0 7 7 13 16 12 11 -1 22
14 32 40 12 32 19 40 34 36 18 -4 18 -5 -1 -18z m123 -819 c4 -14 7 -28 7 -32
0 -5 5 -14 11 -20 7 -9 7 -13 0 -13 -10 0 -18 15 -32 63 -5 15 -5 27 0 27 4 0
11 -11 14 -25z"/>
</g>
</svg>
