<?xml version="1.0" standalone="no"?>
<!DOCTYPE svg PUBLIC "-//W3C//DTD SVG 20010904//EN"
 "http://www.w3.org/TR/2001/REC-SVG-20010904/DTD/svg10.dtd">
<svg version="1.0" xmlns="http://www.w3.org/2000/svg"
 width="784.000000pt" height="788.000000pt" viewBox="0 0 784.000000 788.000000"
 preserveAspectRatio="xMidYMid meet">
<metadata>
Created by potrace 1.13, written by Peter Selinger 2001-2015
</metadata>
<g transform="translate(0.000000,788.000000) scale(0.100000,-0.100000)"
fill="#000000" stroke="none">
<path d="M4922 6767 c-17 -20 -9 -74 19 -144 5 -15 5 -23 -2 -23 -6 0 -5 -9 3
-22 7 -13 13 -36 14 -53 5 -55 10 -91 16 -100 3 -6 4 -20 3 -32 -1 -13 1 -23
5 -23 4 0 6 -11 5 -25 -2 -14 0 -25 5 -25 9 0 28 -53 32 -92 1 -10 8 -20 16
-23 7 -3 10 -9 7 -15 -3 -5 -1 -10 5 -10 7 0 9 -7 6 -15 -3 -10 7 -28 27 -48
17 -17 33 -35 33 -39 1 -4 3 -10 4 -13 1 -3 3 -11 4 -17 0 -7 17 -21 36 -30
19 -9 31 -17 25 -18 -5 0 -1 -7 9 -15 11 -8 16 -15 10 -15 -5 0 4 -11 19 -24
16 -14 28 -28 28 -33 -1 -17 11 -43 20 -43 5 0 9 -8 9 -19 0 -10 6 -23 13 -29
7 -6 14 -23 15 -38 1 -15 7 -33 13 -40 6 -7 9 -21 7 -31 -3 -10 2 -30 9 -45 7
-16 10 -28 6 -28 -5 0 0 -5 11 -11 12 -8 15 -14 7 -18 -7 -5 -3 -18 12 -41 13
-19 23 -44 23 -55 0 -21 23 -60 60 -100 14 -15 18 -28 13 -38 -6 -10 -2 -20
16 -31 13 -9 27 -16 31 -16 12 0 59 -46 62 -61 2 -7 11 -21 20 -30 32 -31 56
-64 59 -79 1 -8 10 -20 19 -27 14 -10 14 -13 3 -13 -11 -1 -11 -3 2 -13 9 -7
20 -33 23 -57 3 -25 9 -56 12 -70 3 -14 6 -34 5 -45 0 -10 5 -25 10 -31 6 -7
9 -21 8 -31 -3 -20 20 -95 31 -103 4 -3 15 -22 23 -42 9 -21 21 -38 26 -38 6
0 8 -6 5 -14 -3 -7 6 -23 20 -34 14 -11 26 -23 26 -28 0 -4 23 -29 50 -56 28
-27 50 -52 50 -57 0 -4 11 -20 25 -35 14 -15 25 -29 25 -31 0 -2 24 -28 53
-57 28 -28 53 -56 53 -60 1 -4 2 -9 4 -10 1 -2 4 -18 7 -37 4 -31 3 -33 -11
-22 -9 8 -16 9 -16 3 0 -5 -12 -12 -27 -15 -34 -6 -126 -40 -133 -48 -9 -10
-55 -33 -62 -31 -5 1 -8 -5 -8 -13 0 -8 -6 -15 -14 -15 -7 0 -21 -11 -30 -25
-9 -14 -21 -23 -26 -20 -5 3 -14 -4 -20 -15 -6 -11 -14 -20 -19 -20 -4 0 -29
-19 -54 -42 -120 -111 -136 -125 -140 -122 -2 2 -18 -10 -36 -26 -18 -17 -36
-30 -41 -30 -5 0 -14 -9 -20 -21 -7 -11 -14 -18 -17 -16 -2 3 -13 -3 -24 -14
-11 -11 -24 -17 -29 -14 -6 4 -10 1 -10 -4 0 -6 -3 -10 -7 -9 -5 2 -28 -6 -53
-16 -25 -11 -47 -20 -50 -21 -3 -1 -13 -5 -22 -8 -43 -16 -55 -20 -83 -25 -51
-9 -129 -5 -160 9 -16 7 -33 12 -37 11 -4 -1 -21 19 -39 43 -18 25 -36 45 -41
45 -5 0 -6 5 -3 10 3 6 -1 13 -9 16 -9 3 -16 12 -16 20 0 8 -4 14 -10 14 -5 0
-10 8 -10 19 0 10 -11 30 -24 44 -13 14 -21 28 -19 31 3 3 0 12 -6 20 -7 8
-10 20 -6 26 3 5 -1 13 -9 16 -9 3 -16 10 -16 15 0 19 -100 125 -181 190 -86
71 -94 78 -86 79 7 0 -28 32 -68 63 -5 4 -30 25 -55 48 -40 36 -124 88 -125
78 -1 -7 -115 111 -115 119 0 4 -9 14 -21 22 -34 24 -59 47 -59 54 0 6 -24 34
-50 59 -88 86 -134 129 -174 162 -27 22 -60 50 -75 63 -14 13 -39 33 -55 45
-15 12 -38 31 -50 42 -11 12 -24 21 -27 20 -7 0 -54 33 -75 53 -8 7 -14 10
-14 6 0 -3 -7 -1 -15 6 -8 7 -15 9 -15 4 0 -4 -12 3 -26 17 -14 13 -29 23 -32
23 -4 -1 -17 2 -30 7 -13 5 -27 9 -32 9 -5 0 -10 3 -12 8 -1 4 -23 24 -48 44
-25 20 -57 47 -72 60 -51 44 -72 58 -85 58 -7 0 -13 5 -13 10 0 6 -5 10 -11
10 -6 0 -24 9 -40 21 -16 11 -29 18 -29 14 0 -3 -10 3 -22 14 -11 11 -25 18
-30 15 -4 -3 -8 0 -8 7 0 7 -3 9 -7 6 -6 -7 -73 30 -85 47 -4 6 -8 8 -8 4 0
-4 -22 6 -50 22 -27 16 -50 27 -50 24 0 -2 -10 4 -22 16 -12 11 -27 20 -33 20
-7 0 -20 9 -30 20 -10 11 -21 17 -25 15 -4 -3 -14 2 -21 11 -14 17 -90 59
-101 56 -5 -1 -8 2 -8 8 0 5 -4 10 -9 10 -5 0 -22 5 -38 12 -15 6 -34 12 -42
14 -8 2 -26 6 -40 10 -14 4 -34 8 -43 9 -10 2 -19 4 -20 5 -2 1 -14 3 -28 4
-14 1 -29 4 -35 8 -11 7 -93 3 -145 -7 -19 -3 -61 -20 -93 -38 -55 -30 -74
-44 -165 -130 -18 -17 -40 -31 -50 -32 -9 -1 -36 -10 -59 -19 -23 -10 -45 -17
-49 -16 -4 1 -11 -5 -16 -14 -5 -9 -18 -16 -28 -16 -11 0 -30 -10 -43 -22 -12
-13 -26 -23 -30 -23 -4 0 -12 -7 -17 -15 -5 -8 -10 -11 -10 -7 0 4 -6 2 -14
-5 -8 -7 -12 -16 -10 -20 3 -4 -9 -22 -26 -39 -16 -18 -28 -34 -25 -37 3 -3 0
-11 -6 -18 -7 -8 -7 -14 1 -19 6 -4 2 -13 -12 -25 -19 -15 -20 -20 -9 -34 10
-12 17 -13 27 -5 7 6 17 8 22 5 5 -3 20 1 35 9 14 7 50 15 79 16 51 2 158 48
166 70 2 5 7 7 12 4 4 -3 15 7 24 20 9 14 20 24 24 21 4 -2 19 10 32 27 14 17
46 56 72 86 26 31 48 59 48 64 0 4 5 7 10 7 6 0 24 10 41 22 16 12 44 23 62
25 18 1 47 4 65 6 17 2 32 1 32 -2 0 -4 12 -8 26 -9 15 -1 34 -8 42 -15 8 -6
17 -11 18 -10 9 6 33 -10 28 -18 -3 -5 1 -12 9 -15 24 -9 9 -64 -18 -64 -3 0
-26 -20 -52 -45 -25 -25 -48 -45 -52 -45 -8 0 -46 -50 -46 -61 0 -4 -11 -20
-25 -36 -13 -15 -23 -28 -21 -28 5 0 -20 -60 -28 -65 -8 -6 -66 -123 -64 -130
1 -3 -5 -12 -12 -20 -7 -8 -14 -18 -15 -22 -8 -35 -14 -48 -22 -48 -6 0 -8 -7
-4 -15 3 -8 1 -15 -4 -15 -5 0 -12 -10 -16 -22 -7 -25 -67 -158 -88 -198 -7
-14 -11 -31 -9 -37 3 -7 0 -13 -6 -13 -6 0 -10 -3 -10 -7 1 -5 1 -10 -1 -13
-1 -3 -4 -16 -6 -30 -3 -14 -9 -26 -14 -28 -5 -2 -7 -9 -4 -16 3 -8 -2 -16
-10 -19 -9 -4 -16 -12 -16 -19 0 -16 -66 -78 -74 -70 -3 3 -6 1 -6 -5 0 -9
-73 -30 -137 -38 -15 -2 -28 -4 -28 -5 0 -1 -17 -2 -38 -3 -20 -1 -37 0 -37 3
0 3 -28 5 -63 4 -34 0 -66 2 -72 5 -5 3 -25 6 -43 8 -18 1 -41 7 -50 12 -12 7
-25 3 -47 -12 -31 -22 -62 -56 -63 -70 -1 -4 -15 -24 -31 -43 -17 -19 -31 -41
-31 -49 0 -8 -4 -15 -9 -15 -5 0 -14 -13 -21 -30 -7 -16 -16 -30 -21 -30 -5 0
-9 -7 -9 -15 0 -8 -4 -15 -10 -15 -5 0 -9 -6 -7 -12 1 -7 -4 -12 -11 -10 -7 1
-17 -10 -22 -24 -6 -15 -28 -47 -50 -72 -22 -25 -38 -47 -35 -50 2 -3 -9 -20
-25 -39 -17 -18 -30 -38 -30 -44 0 -8 -34 -50 -77 -95 -7 -7 -13 -15 -13 -19
0 -3 -10 -16 -23 -28 -12 -12 -28 -34 -35 -49 -6 -16 -18 -28 -26 -28 -8 0
-18 -10 -22 -22 -8 -27 -50 -79 -57 -72 -3 3 -14 -8 -26 -24 -32 -45 -78 -92
-90 -92 -6 0 -11 -4 -11 -9 0 -5 -9 -13 -20 -16 -11 -4 -17 -11 -14 -17 4 -6
1 -14 -6 -18 -9 -5 -6 -13 11 -28 12 -12 25 -20 28 -17 16 9 31 -14 31 -46 0
-54 -3 -69 -11 -69 -5 0 -6 -7 -3 -15 4 -8 1 -15 -6 -15 -6 0 -8 -5 -4 -11 3
-6 3 -14 -2 -18 -5 -3 -17 -16 -27 -28 -19 -21 -18 -22 7 -56 14 -19 26 -38
26 -43 0 -5 22 -24 48 -43 26 -19 52 -41 59 -49 19 -23 62 -17 88 11 13 14 21
27 18 30 -2 3 -7 41 -9 84 -5 113 -8 133 -17 133 -5 0 -6 8 -3 18 3 9 8 42 10
72 6 61 33 140 59 171 9 10 17 23 17 28 0 4 11 21 25 37 14 16 25 34 25 39 0
6 15 26 33 46 55 62 121 141 137 163 19 28 40 49 40 41 0 -4 19 11 41 34 23
23 44 39 47 36 3 -3 14 7 24 22 10 16 18 24 18 20 0 -4 15 3 33 17 19 15 39
26 45 26 7 0 12 4 12 10 0 5 3 9 8 8 4 -1 34 7 67 17 33 11 80 20 105 21 25 2
45 3 45 4 0 1 89 2 197 4 124 2 198 -1 198 -7 0 -5 -9 -18 -21 -28 -12 -10
-18 -23 -13 -30 4 -7 3 -9 -4 -5 -6 3 -16 0 -24 -7 -18 -19 -128 -88 -128 -81
0 3 -6 -1 -14 -8 -8 -7 -28 -24 -45 -37 -17 -13 -31 -30 -31 -37 0 -8 -6 -17
-13 -20 -7 -2 -12 -20 -11 -44 0 -22 -4 -40 -10 -40 -6 0 -6 -4 1 -11 8 -8 8
-20 2 -36 -5 -14 -7 -29 -3 -34 3 -5 1 -9 -3 -9 -5 0 -10 -12 -11 -27 -1 -16
-5 -44 -8 -63 -3 -19 -7 -47 -9 -63 -3 -15 -7 -39 -10 -55 -3 -15 -8 -47 -10
-70 -3 -24 -9 -52 -15 -61 -5 -9 -7 -29 -6 -44 2 -15 0 -27 -3 -27 -4 0 -8 -8
-9 -17 -2 -24 -10 -68 -12 -68 -1 0 -3 -13 -5 -29 -2 -16 -7 -36 -11 -45 -4
-9 -8 -25 -9 -36 -7 -60 -17 -100 -27 -107 -7 -4 -10 -10 -6 -13 3 -4 -3 -18
-15 -31 -35 -39 -77 -128 -65 -135 5 -4 6 -9 1 -12 -5 -3 -10 -19 -11 -35 -2
-33 21 -50 43 -32 12 10 21 -3 31 -42 1 -5 3 -10 4 -13 7 -15 5 -32 -7 -46
-23 -27 -24 -61 -2 -96 11 -18 24 -33 27 -33 4 0 12 -10 17 -22 6 -12 18 -23
27 -24 9 -1 27 -12 40 -23 28 -26 75 -51 97 -51 20 0 54 37 41 45 -4 3 -7 16
-5 30 1 14 -1 25 -4 25 -3 0 -6 28 -7 63 0 44 -6 71 -20 92 -21 33 -26 83 -24
270 1 166 3 195 13 195 4 0 6 4 3 9 -8 13 19 138 34 156 7 8 10 15 6 15 -3 0
8 36 24 80 16 44 27 80 24 80 -3 0 3 12 14 28 11 15 22 36 26 47 3 12 21 37
39 56 17 19 44 50 60 69 15 19 27 30 27 25 0 -4 11 5 25 21 14 16 25 25 25 19
0 -5 5 -2 11 8 5 9 17 17 24 17 8 0 15 6 15 13 0 8 6 14 13 15 28 2 48 9 59
20 7 7 18 12 25 12 7 0 13 5 13 10 0 6 6 10 13 10 7 0 33 10 58 22 24 12 47
21 52 20 4 -1 7 2 7 7 0 5 11 12 25 15 14 4 25 11 25 16 0 6 4 10 10 10 5 0
21 10 36 23 14 12 29 22 33 22 4 0 15 8 25 18 10 9 22 17 27 17 5 0 9 7 9 15
0 8 9 15 20 15 11 0 20 5 20 10 0 6 7 10 15 10 8 0 15 5 15 11 0 19 45 4 55
-18 5 -13 13 -23 17 -23 5 0 8 -4 8 -10 0 -5 13 -23 30 -38 17 -16 30 -35 30
-42 0 -6 10 -26 22 -43 13 -18 22 -34 22 -37 -1 -3 2 -15 7 -28 5 -13 9 -26 9
-30 1 -13 45 -59 68 -71 23 -12 57 -2 64 20 2 6 17 -2 34 -18 49 -46 122 -103
132 -103 5 0 17 -9 27 -20 10 -11 27 -22 38 -26 11 -4 29 -15 40 -25 11 -10
24 -16 29 -13 4 3 8 1 8 -4 0 -6 16 -13 35 -16 19 -4 35 -11 35 -16 0 -6 6
-10 14 -10 7 0 19 -7 26 -15 7 -9 15 -13 18 -10 6 6 82 -36 82 -45 0 -10 -49
-50 -60 -50 -6 0 -10 -5 -10 -10 0 -6 -7 -13 -15 -16 -8 -4 -30 -20 -49 -38
-69 -64 -119 -106 -127 -106 -5 0 -9 -7 -9 -16 0 -8 -4 -13 -8 -10 -5 3 -25
-10 -45 -27 -67 -59 -109 -92 -113 -89 -7 4 -34 -25 -34 -37 0 -10 -14 -15
-32 -12 -5 0 -8 -6 -8 -14 0 -8 -4 -15 -8 -15 -5 0 -15 -11 -22 -25 -7 -14
-22 -25 -32 -25 -10 0 -18 -6 -18 -14 0 -8 -9 -17 -19 -21 -11 -3 -22 -12 -25
-20 -3 -8 -11 -15 -18 -15 -7 0 -19 -9 -26 -20 -11 -18 -82 -74 -152 -120 -13
-8 -66 -46 -118 -85 -53 -38 -99 -69 -104 -68 -4 2 -8 -3 -8 -10 0 -11 -67
-48 -87 -48 -4 0 -11 -7 -16 -14 -4 -8 -14 -12 -22 -9 -8 4 -15 2 -15 -3 0 -5
-6 -10 -12 -11 -31 -2 -62 -13 -78 -27 -9 -8 -19 -15 -22 -15 -8 0 -88 -79
-88 -86 0 -12 26 -30 38 -26 9 3 12 -7 10 -33 -1 -25 -13 -50 -38 -78 -19 -23
-38 -43 -42 -45 -14 -6 -9 -33 11 -61 11 -15 21 -34 23 -41 2 -8 17 -25 33
-39 17 -15 32 -29 33 -34 2 -4 7 -5 12 -2 4 2 25 -9 45 -25 21 -17 41 -30 45
-30 14 0 51 38 42 44 -7 4 -8 39 -2 56 1 3 2 9 1 14 -1 4 4 14 10 22 7 8 13
24 15 37 2 12 6 33 9 47 4 14 8 38 11 54 2 16 11 40 19 53 9 13 13 23 10 23
-5 0 13 23 50 65 11 13 33 39 49 59 16 20 31 34 34 31 3 -3 16 11 30 31 13 19
26 33 29 30 3 -3 14 4 24 16 11 11 19 18 19 15 0 -3 12 5 26 18 15 14 33 25
40 25 8 0 14 6 14 13 0 11 48 38 67 38 4 0 12 7 16 15 4 8 17 14 27 14 11 0
20 5 20 11 0 5 5 7 10 4 6 -3 10 -2 10 3 0 6 11 13 25 16 14 4 25 11 25 17 0
6 5 7 10 4 6 -3 10 -13 10 -22 0 -9 9 -24 21 -34 16 -14 24 -15 34 -6 7 7 10
18 8 24 -3 7 0 13 7 13 6 0 17 6 24 13 8 6 23 19 35 27 11 8 21 19 21 25 0 5
18 19 41 29 22 11 51 30 65 42 13 13 24 21 24 18 0 -2 18 7 40 21 22 14 40 22
40 18 0 -5 5 0 11 10 5 9 15 17 21 17 6 0 26 11 44 25 18 14 40 25 49 25 8 0
18 7 21 15 4 8 15 15 25 15 10 0 19 4 19 10 0 5 6 7 13 4 8 -3 20 2 27 10 7 9
16 13 21 10 5 -3 9 -1 9 5 0 10 38 27 53 23 4 -1 7 3 7 9 0 5 4 8 8 5 5 -3 26
6 49 18 38 22 41 22 63 6 20 -15 21 -18 5 -33 -9 -9 -13 -21 -10 -27 3 -5 2
-10 -2 -10 -8 0 -67 -85 -69 -99 -1 -13 -30 -67 -41 -79 -7 -7 -13 -19 -13
-27 0 -7 -4 -15 -10 -17 -5 -1 -11 -13 -13 -25 -2 -12 -10 -30 -19 -40 -9 -10
-17 -22 -18 -28 -2 -5 -7 -21 -13 -35 -6 -14 -10 -28 -9 -32 1 -5 -7 -13 -17
-20 -10 -6 -17 -18 -14 -25 3 -7 0 -13 -6 -13 -6 0 -8 -7 -5 -15 4 -8 2 -15
-3 -15 -10 0 -65 -103 -69 -128 -1 -8 -9 -21 -18 -30 -8 -10 -15 -20 -15 -24
-1 -5 -1 -9 -2 -10 0 -2 -3 -14 -5 -28 -2 -13 -8 -27 -13 -30 -5 -3 -11 -15
-15 -27 -4 -13 -12 -23 -17 -23 -5 0 -9 -7 -9 -15 0 -8 -5 -15 -12 -15 -6 0
-8 -3 -5 -7 4 -3 -3 -17 -15 -30 -12 -13 -18 -23 -14 -23 4 0 -2 -12 -13 -26
-12 -15 -21 -33 -21 -40 0 -8 -4 -14 -9 -14 -5 0 -13 -10 -17 -22 -3 -12 -13
-28 -20 -36 -8 -7 -14 -19 -14 -26 0 -7 -9 -21 -20 -31 -11 -10 -17 -22 -14
-26 3 -5 -2 -12 -10 -15 -9 -3 -16 -10 -16 -15 0 -5 -8 -18 -17 -29 -10 -11
-17 -23 -15 -25 1 -3 -6 -13 -15 -23 -34 -36 -64 -77 -84 -119 -11 -23 -30
-48 -43 -57 -13 -8 -28 -28 -34 -45 -9 -24 -8 -31 6 -37 9 -4 20 -6 25 -6 4 1
7 -3 7 -9 0 -5 4 -8 9 -5 15 10 7 -38 -9 -51 -8 -7 -11 -13 -7 -13 5 0 0 -12
-11 -27 -34 -50 -34 -62 -3 -94 16 -16 27 -29 24 -29 -3 0 5 -9 18 -21 13 -11
36 -31 51 -45 15 -13 33 -24 38 -24 6 0 21 -7 33 -15 28 -18 48 -6 50 29 1 14
4 26 7 26 8 0 5 114 -3 128 -5 7 -3 12 3 12 6 0 8 4 5 10 -7 11 -8 127 -1 155
3 11 9 35 15 53 5 17 8 32 5 32 -2 0 7 18 21 40 14 22 22 40 19 40 -4 0 0 7 7
17 8 9 13 19 13 22 -2 10 9 36 23 49 7 7 13 20 13 28 0 8 5 14 11 14 6 0 9 6
7 12 -3 7 3 20 11 30 9 9 29 42 45 72 16 31 33 56 37 56 4 0 11 10 15 22 8 28
31 51 38 40 8 -13 63 -2 77 14 6 8 9 14 5 14 -4 0 0 10 9 23 8 13 12 26 9 29
-3 4 0 17 7 30 7 12 12 27 11 31 -1 5 7 11 18 14 11 3 23 16 26 29 3 13 12 24
20 24 8 0 14 4 14 8 0 4 15 24 34 44 19 20 37 44 40 55 3 10 22 36 41 56 20
21 33 42 30 47 -3 4 -2 10 3 12 4 1 17 16 30 32 12 16 22 25 22 20 0 -11 70
68 70 79 0 4 6 7 13 7 6 0 35 28 62 61 89 108 94 112 130 99 11 -4 26 -3 33 2
6 6 12 7 12 2 0 -5 28 -9 63 -9 34 0 68 -4 75 -9 7 -5 12 -4 12 3 0 7 10 10
25 7 13 -3 27 -1 30 4 3 5 25 7 50 6 25 -1 45 2 45 7 0 5 6 7 12 5 7 -3 22 0
33 6 35 18 152 11 275 -16 67 -14 69 -15 73 -18 13 -10 184 -20 201 -12 5 3
32 7 60 9 46 3 82 8 96 13 3 1 17 1 32 0 15 -1 37 4 50 11 13 7 26 12 30 11 4
-1 24 6 45 15 46 20 43 19 71 28 12 4 22 10 22 14 0 3 12 7 26 8 15 0 29 5 33
10 5 8 32 22 54 28 4 2 8 3 10 5 2 2 39 9 65 12 6 1 12 5 12 9 0 3 30 22 68
40 37 18 69 37 70 41 2 4 10 8 17 8 8 0 19 8 24 18 6 9 11 14 11 11 0 -4 17 9
37 27 20 19 43 34 50 34 7 0 13 7 13 15 0 8 4 15 10 15 5 0 21 11 35 25 14 14
25 24 25 21 0 -3 15 9 33 25 31 30 93 67 111 67 5 0 12 5 15 11 5 7 16 6 35
-4 15 -8 30 -14 34 -13 4 1 16 -3 27 -9 24 -13 135 -43 135 -36 0 2 7 -3 16
-11 8 -9 20 -14 25 -11 5 3 17 1 27 -4 11 -6 34 -13 53 -16 62 -11 139 -36
134 -44 -2 -4 12 -21 32 -37 20 -16 41 -34 47 -40 30 -30 140 -39 157 -13 5 8
9 10 9 5 0 -5 6 -3 14 3 8 6 18 10 23 9 23 -7 91 101 77 123 -3 5 -1 9 5 9 5
0 7 12 4 28 -3 15 -6 35 -7 45 0 9 -4 17 -9 17 -5 0 -7 11 -5 25 3 14 2 25 -2
25 -7 0 -23 38 -21 51 0 4 -14 22 -32 40 -18 19 -32 36 -33 39 0 3 -6 18 -12
33 -7 16 -12 35 -12 43 0 8 -4 14 -9 14 -7 0 -19 28 -19 47 0 3 -4 9 -9 12
-11 8 -49 93 -45 103 1 5 -2 8 -6 8 -4 0 -8 19 -9 42 -1 23 -6 44 -10 47 -4 3
-8 11 -9 16 -1 25 -17 65 -26 65 -5 0 -7 4 -4 8 3 5 -4 19 -15 30 -20 23 -37
87 -35 141 1 17 -2 31 -7 31 -4 0 -2 9 5 19 7 11 16 17 20 15 4 -3 8 -1 8 3 0
5 14 17 31 27 41 24 91 74 114 114 11 17 23 32 28 32 4 0 5 5 1 11 -3 6 -1 15
7 19 12 8 16 19 24 72 7 40 -19 42 -91 8 -35 -16 -70 -31 -77 -33 -6 -1 -15
-6 -19 -12 -4 -5 -10 -6 -13 -3 -8 8 31 89 54 116 17 18 20 40 8 60 -9 14 -47
17 -47 3 0 -5 -21 -19 -47 -32 -27 -12 -50 -25 -53 -28 -3 -3 -9 -7 -15 -8 -5
-1 -19 -5 -29 -9 -14 -5 -17 -4 -12 4 4 7 2 12 -4 12 -6 0 -8 5 -5 10 3 6 -1
13 -9 16 -9 3 -14 10 -11 14 3 5 -11 23 -30 41 -19 18 -33 35 -31 37 2 2 -18
26 -45 53 -27 27 -49 56 -49 64 0 8 -3 15 -8 15 -17 0 -32 43 -38 107 -3 37
-11 93 -18 123 -7 30 -11 67 -9 82 2 17 -6 40 -22 65 -15 21 -22 39 -16 41 7
2 3 15 -8 31 -11 15 -27 47 -37 72 -9 24 -24 50 -32 57 -9 6 -12 12 -8 12 4 0
-22 29 -59 65 -36 36 -72 65 -78 65 -13 0 -47 41 -44 52 1 4 -8 14 -20 23 -12
8 -20 23 -18 32 1 10 -1 23 -5 28 -4 6 -10 27 -14 48 -4 20 -11 37 -16 37 -4
0 -6 9 -3 20 3 10 -4 39 -14 62 -11 24 -25 55 -31 71 -6 15 -16 27 -22 27 -5
0 -10 6 -10 14 0 8 -7 17 -16 20 -9 4 -14 9 -11 12 6 6 -10 27 -60 80 -18 19
-33 41 -33 49 0 7 -5 17 -10 20 -6 4 -8 11 -5 16 4 5 1 9 -4 9 -6 0 -11 10
-11 23 0 13 -6 32 -14 42 -8 11 -12 25 -9 31 2 7 -1 15 -6 19 -6 3 -9 10 -6
15 6 10 -19 94 -41 132 -8 15 -14 30 -14 33 0 3 -6 12 -14 20 -23 24 -49 -8
-42 -51 8 -40 17 -137 18 -186 1 -21 5 -38 10 -38 5 0 6 -5 3 -11 -11 -17 21
-95 72 -177 18 -29 33 -56 33 -61 0 -4 11 -20 25 -35 17 -18 24 -37 23 -61 -1
-19 3 -40 9 -47 5 -7 7 -23 4 -35 -5 -17 -10 -20 -21 -13 -8 6 -10 10 -3 10
13 0 12 13 -4 50 -6 14 -21 50 -33 80 -12 30 -28 62 -36 71 -8 8 -14 25 -14
37 0 12 -5 22 -11 22 -5 0 -7 5 -4 10 3 6 3 10 -2 10 -13 1 -83 67 -83 79 0 6
-5 11 -11 11 -5 0 -7 5 -4 10 3 6 1 10 -4 10 -13 0 -141 128 -141 141 0 5 -4
9 -10 9 -5 0 -10 5 -10 11 0 6 -10 25 -22 42 -20 28 -58 98 -63 120 -2 4 -4 9
-5 12 -1 3 -3 8 -4 13 -4 17 -29 88 -35 97 -3 6 -6 15 -6 20 -1 20 -26 100
-35 117 -6 10 -10 25 -10 34 0 18 -37 74 -49 74 -5 0 -13 -6 -19 -13z m-2426
-1248 c4 -7 0 -15 -8 -20 -8 -4 -27 -26 -43 -48 -15 -23 -31 -38 -36 -35 -5 3
-12 -2 -15 -10 -3 -9 -12 -16 -20 -16 -8 0 -14 -5 -14 -11 0 -5 -5 -7 -11 -3
-7 4 -1 15 17 30 16 13 36 29 44 36 8 7 15 11 16 8 1 -3 13 10 28 27 15 18 25
37 21 43 -3 5 -2 10 4 10 5 0 13 -5 17 -11z m-164 -177 c-7 -2 -12 -9 -12 -16
0 -7 -14 -25 -31 -40 -16 -15 -28 -33 -26 -39 2 -6 -7 -23 -20 -37 -13 -14
-23 -30 -23 -36 0 -6 -6 -17 -13 -23 -8 -6 -19 -29 -26 -52 -10 -32 -15 -39
-24 -29 -9 10 -9 14 0 17 7 2 9 11 6 19 -3 8 0 14 7 14 6 0 8 5 5 11 -4 5 2
18 12 27 18 17 48 71 45 83 -1 4 10 17 23 29 14 13 25 29 25 35 0 17 36 56 44
48 3 -3 6 0 7 8 0 12 1 12 6 0 3 -8 1 -17 -5 -19z m-188 -304 c-6 -19 -34 -56
-34 -45 0 8 32 67 36 67 3 0 2 -10 -2 -22z m-60 -118 c-9 -16 -17 -30 -19 -30
-2 0 1 14 6 30 6 17 15 30 19 30 5 0 2 -13 -6 -30z m599 -630 c3 -11 2 -20 -3
-20 -4 0 -10 9 -13 20 -3 11 -2 20 3 20 4 0 10 -9 13 -20z m90 -41 c-6 -6 2
-22 21 -42 34 -36 66 -53 66 -35 0 6 3 8 7 5 3 -4 13 -1 21 6 12 10 16 9 20
-2 2 -7 13 -22 22 -31 10 -10 16 -21 13 -24 -4 -3 -1 -6 6 -6 7 0 11 -6 8 -14
-5 -13 66 -84 94 -94 5 -2 9 -12 9 -22 0 -10 14 -28 31 -41 17 -13 35 -35 40
-47 5 -13 18 -26 29 -29 11 -3 20 -10 20 -15 0 -5 7 -16 15 -24 8 -9 15 -13
15 -9 0 3 11 -2 24 -10 19 -13 25 -13 29 -3 4 9 6 7 6 -4 1 -18 34 -33 50 -23
5 3 12 1 16 -5 3 -5 0 -10 -8 -10 -19 0 -28 -25 -15 -38 8 -8 5 -9 -11 -5 -11
3 -21 12 -21 19 0 8 -6 15 -12 15 -21 2 -32 5 -48 12 -8 3 -26 7 -40 9 -14 2
-24 9 -22 16 1 7 -4 20 -13 28 -8 9 -15 12 -15 8 0 -4 -8 2 -18 14 -15 17 -21
19 -32 9 -10 -10 -12 -8 -7 10 5 21 -15 39 -36 34 -5 -1 -6 3 -2 8 6 12 -29
34 -39 24 -8 -8 -36 29 -30 39 3 5 0 8 -6 8 -7 0 -10 6 -7 14 6 16 -17 41 -31
32 -4 -3 -14 3 -21 13 -8 10 -21 16 -30 14 -10 -2 -23 3 -30 11 -8 9 -10 16
-6 16 3 0 -12 18 -34 40 -23 23 -41 46 -41 52 0 7 -12 26 -27 42 -16 17 -24
28 -19 24 14 -11 36 11 29 29 -5 13 -3 14 17 3 14 -7 19 -15 13 -21z m-943
-69 c0 -5 -2 -10 -4 -10 -3 0 -8 5 -11 10 -3 6 -1 10 4 10 6 0 11 -4 11 -10z
m45 0 c-3 -5 -14 -10 -23 -10 -15 0 -15 2 -2 10 20 13 33 13 25 0z m35 6 c0
-3 -4 -8 -10 -11 -5 -3 -10 -1 -10 4 0 6 5 11 10 11 6 0 10 -2 10 -4z m197 -2
c-3 -3 -12 -4 -19 -1 -8 3 -5 6 6 6 11 1 17 -2 13 -5z m3943 -69 c0 -8 -4 -15
-10 -15 -5 0 -7 7 -4 15 4 8 8 15 10 15 2 0 4 -7 4 -15z m-93 -175 c-1 -11 -4
-20 -8 -20 -4 0 -6 11 -5 24 0 13 4 22 8 20 4 -2 6 -13 5 -24z m443 0 c0 -5
-2 -10 -4 -10 -3 0 -8 5 -11 10 -3 6 -1 10 4 10 6 0 11 -4 11 -10z m-198 -52
c-7 -7 -12 -20 -12 -31 0 -10 -5 -15 -10 -12 -6 4 -8 11 -5 16 4 5 1 9 -6 9
-6 0 -1 9 12 19 25 20 41 19 21 -1z m-2957 -158 c3 -5 1 -10 -4 -10 -6 0 -11
5 -11 10 0 6 2 10 4 10 3 0 8 -4 11 -10z m202 -34 c4 -3 1 -6 -5 -7 -42 -4
-56 -2 -60 9 -4 12 52 11 65 -2z m58 -26 c3 -5 13 -6 23 -3 15 6 15 5 -1 -11
-14 -14 -21 -16 -30 -7 -6 6 -7 11 -1 11 5 0 2 5 -6 10 -9 6 -10 10 -3 10 6 0
14 -4 18 -10z m-2845 -205 c0 -3 -7 -5 -15 -5 -8 0 -15 5 -15 11 0 8 -4 8 -13
0 -11 -8 -14 -7 -14 7 0 26 17 32 38 11 11 -11 19 -21 19 -24z m-50 -75 c0 -5
-5 -10 -11 -10 -5 0 -7 5 -4 10 3 6 8 10 11 10 2 0 4 -4 4 -10z m42 -108 c-7
-2 -12 -10 -12 -18 0 -8 -4 -14 -10 -14 -6 0 -5 10 2 25 6 13 16 21 21 18 8
-5 7 -8 -1 -11z m5867 -39 c23 6 26 0 12 -22 -7 -10 -12 -10 -30 5 -11 10 -21
23 -21 29 0 5 4 4 9 -4 5 -8 18 -12 30 -8z m138 -30 c20 -19 15 -24 -9 -11
-25 14 -38 28 -38 42 0 8 20 -5 47 -31z m-2960 -46 c1 -18 -3 -27 -13 -27 -12
0 -19 -19 -15 -42 0 -5 -3 -8 -9 -8 -12 0 -13 -4 4 52 8 25 11 49 8 53 -4 4 0
6 8 3 8 -2 16 -17 17 -31z m633 -93 c0 -8 -5 -12 -10 -9 -6 4 -8 11 -5 16 9
14 15 11 15 -7z m-707 -49 c-3 -9 -8 -14 -10 -11 -3 3 -2 9 2 15 9 16 15 13 8
-4z m722 -16 c0 -18 -34 -24 -49 -9 -8 8 -7 10 7 5 12 -5 17 -2 17 10 0 9 6
15 13 13 6 -3 12 -11 12 -19z m-745 -29 c-24 -15 -36 -11 -14 4 10 8 21 12 24
10 2 -3 -2 -9 -10 -14z m-70 -129 c0 -5 -7 -12 -16 -15 -14 -5 -15 -4 -4 9 14
17 20 19 20 6z m-27 -48 c-4 -10 -19 -41 -34 -70 -15 -28 -25 -54 -21 -57 3
-3 1 -6 -4 -6 -6 0 -16 -17 -23 -37 -17 -47 -29 -63 -49 -63 -13 0 -12 3 3 20
10 11 15 20 11 20 -3 0 5 18 19 40 14 22 23 40 19 40 -3 0 2 7 10 16 9 8 16
21 16 28 0 7 9 22 20 34 12 12 18 22 14 22 -3 0 -1 7 6 15 16 20 21 19 13 -2z
m-1985 -215 c-9 -5 -8 -9 5 -14 9 -3 15 -9 13 -13 -2 -3 2 -12 10 -18 8 -8 15
-9 19 -3 11 18 21 10 19 -17 0 -15 -7 -29 -14 -31 -7 -3 -11 1 -8 9 5 14 -31
49 -50 49 -18 0 -30 25 -25 52 5 25 6 25 24 10 13 -12 15 -18 7 -24z m-24 -97
c4 -5 -3 -7 -14 -4 -23 6 -26 13 -6 13 8 0 17 -4 20 -9z m630 -165 c-3 -11
-13 -29 -22 -39 -14 -16 -17 -15 -43 15 -30 37 -25 45 32 45 36 0 39 -2 33
-21z m-82 -218 c-6 -6 -15 -8 -19 -4 -4 4 -1 11 7 16 19 12 27 3 12 -12z m-67
-68 c3 -5 1 -10 -4 -10 -6 0 -11 5 -11 10 0 6 2 10 4 10 3 0 8 -4 11 -10z
m980 -328 c-6 -4 -16 -18 -22 -32 -10 -22 -12 -23 -12 -4 -1 21 16 44 34 44 7
0 7 -3 0 -8z m-90 -51 c-3 -5 4 -12 15 -16 25 -8 25 -17 0 -35 -11 -8 -20 -19
-20 -26 0 -6 -9 -21 -20 -34 l-20 -24 4 25 c2 13 -1 29 -5 35 -12 15 5 59 28
73 23 13 26 13 18 2z m-10 -220 c-3 -6 -11 -11 -16 -11 -5 0 -4 6 3 14 14 16
24 13 13 -3z"/>
</g>
</svg>
