<?xml version="1.0" standalone="no"?>
<!DOCTYPE svg PUBLIC "-//W3C//DTD SVG 20010904//EN"
 "http://www.w3.org/TR/2001/REC-SVG-20010904/DTD/svg10.dtd">
<svg version="1.0" xmlns="http://www.w3.org/2000/svg"
 width="660.000000pt" height="583.000000pt" viewBox="0 0 660.000000 583.000000"
 preserveAspectRatio="xMidYMid meet">
<metadata>
Created by potrace 1.13, written by Peter Selinger 2001-2015
</metadata>
<g transform="translate(0.000000,583.000000) scale(0.100000,-0.100000)"
fill="#000000" stroke="none">
<path d="M2500 5807 c0 -7 5 -39 10 -70 11 -56 9 -69 -26 -166 -3 -11 -10 -9
-29 9 -14 13 -25 31 -25 39 0 28 -41 124 -58 138 -22 17 -47 16 -65 -1 -15
-15 -17 -136 -2 -189 4 -15 4 -52 0 -82 l-6 -54 -50 50 c-44 45 -53 50 -87 47
-33 -3 -37 -6 -40 -32 -2 -16 2 -40 9 -53 10 -18 10 -26 1 -35 -7 -7 -12 -31
-12 -55 0 -34 4 -43 18 -44 12 0 10 -3 -7 -10 -13 -5 -25 -8 -25 -7 -31 62
-34 78 -25 114 6 20 9 52 7 70 -2 19 0 35 5 37 11 3 13 138 3 156 -4 6 -20 11
-36 11 -25 0 -31 -5 -39 -37 -6 -21 -11 -45 -11 -54 0 -9 -5 -30 -11 -47 l-11
-31 -34 34 c-35 35 -74 52 -93 40 -14 -8 -14 -62 0 -70 5 -4 21 -32 35 -63
l24 -55 -26 -38 c-14 -20 -34 -45 -45 -55 -18 -17 -19 -16 -19 22 0 67 -9 84
-41 84 -25 0 -30 -5 -36 -30 -3 -17 -10 -33 -14 -36 -5 -3 -9 -11 -9 -19 0 -8
-19 -39 -42 -70 -40 -53 -43 -55 -77 -49 -45 8 -45 8 -31 34 7 12 10 38 8 56
-3 23 0 34 9 34 19 0 62 91 63 133 0 38 -106 6 -156 -49 -12 -12 -44 -34 -72
-48 -28 -14 -53 -30 -57 -36 -7 -11 -45 -14 -45 -3 0 3 12 30 26 60 32 69 30
107 -9 111 -21 3 -35 -5 -57 -30 -16 -18 -38 -42 -48 -54 -10 -11 -22 -33 -26
-48 -4 -16 -18 -45 -32 -65 -13 -19 -24 -41 -24 -47 0 -6 -6 -17 -13 -23 -18
-14 -31 -4 -96 77 -43 52 -57 62 -83 62 l-31 0 6 -51 c4 -28 14 -63 22 -76 20
-30 14 -49 -20 -65 -34 -15 -32 -49 5 -90 16 -18 30 -36 30 -40 0 -5 7 -8 15
-8 9 0 18 -12 22 -30 3 -17 10 -33 14 -36 5 -3 9 -14 9 -24 0 -11 9 -37 21
-59 27 -53 20 -74 -11 -30 -60 85 -113 139 -137 139 -24 0 -25 -2 -19 -47 11
-80 17 -103 27 -103 5 0 9 -9 9 -20 0 -20 -1 -20 -47 4 -76 39 -147 107 -213
206 -8 12 -23 32 -33 43 -10 12 -26 34 -34 48 -8 14 -28 34 -43 44 -20 13 -32
34 -40 65 -6 24 -16 50 -22 57 -16 20 -46 15 -58 -8 -15 -26 -7 -55 36 -149
69 -146 70 -194 3 -171 -17 6 -47 11 -65 11 -28 0 -35 -4 -40 -26 -6 -22 0
-33 32 -64 22 -20 71 -54 109 -74 88 -47 92 -52 61 -60 -20 -5 -26 -13 -26
-35 0 -15 8 -35 18 -43 19 -18 103 -48 131 -48 10 0 29 -17 42 -37 25 -39 86
-70 189 -98 l45 -12 -40 -11 c-142 -41 -360 28 -494 157 -66 63 -113 85 -166
79 -22 -2 -31 -9 -33 -25 -2 -13 1 -23 6 -23 9 0 112 -99 112 -107 0 -8 -44
10 -58 23 -7 8 -22 14 -33 14 -10 0 -19 7 -19 15 0 8 -7 15 -15 15 -8 0 -15 6
-15 14 0 8 -3 16 -7 18 -5 2 -27 29 -51 61 -36 48 -48 58 -69 55 -43 -5 -51
-30 -25 -83 12 -25 22 -61 22 -79 0 -31 -3 -34 -40 -40 -40 -6 -51 -25 -32
-51 13 -20 66 -52 114 -70 27 -10 48 -23 48 -29 0 -18 47 -64 82 -79 126 -55
104 -52 381 -50 l259 2 -30 -33 c-26 -29 -60 -92 -75 -137 -3 -9 -31 -29 -62
-45 -31 -15 -62 -32 -68 -38 -30 -29 -76 -54 -122 -65 -141 -36 -233 -84 -313
-161 -94 -91 -117 -137 -126 -250 -3 -36 -10 -81 -16 -100 -24 -82 -5 -138 72
-213 l39 -38 107 0 c59 0 132 0 162 -1 75 -1 138 18 170 52 21 23 37 29 71 31
61 2 169 -12 169 -22 0 -5 17 -9 38 -9 26 0 41 -6 50 -20 7 -11 23 -20 36 -20
17 0 27 -9 36 -30 9 -21 19 -30 35 -30 18 0 21 -4 17 -25 -3 -20 0 -25 16 -25
11 0 23 6 25 13 3 6 6 -9 6 -35 1 -40 4 -48 20 -48 22 0 33 -13 51 -60 8 -19
20 -39 27 -43 7 -4 13 -16 13 -26 0 -10 8 -21 19 -24 14 -3 19 -17 23 -58 3
-29 11 -55 17 -57 6 -2 11 -12 11 -23 0 -10 7 -19 15 -19 9 0 15 -9 15 -23 0
-29 31 -67 54 -67 9 0 16 8 16 20 0 11 -4 20 -10 20 -5 0 -10 11 -10 25 0 16
6 25 15 25 8 0 15 -4 15 -10 0 -5 7 -10 16 -10 9 0 18 -9 21 -20 3 -11 14 -20
24 -20 11 0 19 -5 19 -11 0 -7 10 -9 25 -7 19 4 25 1 25 -13 0 -11 7 -19 15
-19 8 0 15 -9 15 -20 0 -11 7 -20 15 -20 8 0 15 -4 15 -10 0 -5 9 -10 19 -10
15 0 20 -10 26 -50 6 -40 11 -50 26 -50 12 0 19 7 19 20 0 11 6 20 14 20 17 0
26 22 26 61 0 22 5 29 20 29 41 0 10 89 -49 138 -13 10 -13 12 2 12 9 0 17 7
17 15 0 19 -31 55 -46 55 -17 0 -27 29 -25 68 2 28 -5 41 -39 74 -36 36 -41
45 -36 72 4 17 11 33 16 34 6 2 10 10 10 18 0 8 4 14 9 14 5 0 14 14 21 30 12
30 13 30 30 10 20 -23 50 -27 50 -5 0 8 5 15 10 15 6 0 10 -7 10 -15 0 -8 8
-15 18 -15 9 0 23 -9 30 -20 7 -11 21 -20 32 -20 15 0 20 -7 20 -25 0 -15 6
-25 14 -25 7 0 16 -9 19 -20 5 -20 47 -29 47 -10 0 5 7 7 15 4 8 -4 15 -12 15
-20 0 -8 9 -14 20 -14 11 0 20 -7 20 -15 0 -13 46 -27 80 -23 38 4 50 -3 50
-27 0 -20 5 -25 24 -25 28 0 36 -15 29 -53 -4 -20 -1 -27 11 -27 9 0 16 -4 16
-10 0 -5 11 -10 24 -10 19 0 22 -4 18 -25 -3 -18 0 -25 11 -25 21 0 42 -38 38
-68 -2 -17 3 -25 18 -29 12 -3 21 -12 21 -19 0 -8 5 -14 10 -14 6 0 10 -9 10
-20 0 -11 6 -20 13 -20 21 0 57 -47 57 -74 0 -19 5 -26 20 -26 15 0 20 -7 20
-25 0 -18 5 -25 20 -25 11 0 20 -7 20 -15 0 -8 5 -15 10 -15 6 0 10 -7 10 -16
0 -12 7 -15 26 -11 29 5 54 -15 54 -44 0 -11 7 -27 15 -35 8 -9 15 -24 15 -35
0 -10 6 -19 14 -19 10 0 17 -21 25 -67 40 -263 41 -292 11 -407 -25 -100 -25
-140 2 -290 25 -141 30 -393 11 -516 -7 -41 -20 -127 -29 -190 -9 -64 -24
-131 -34 -150 -48 -89 -60 -117 -60 -146 0 -44 -36 -108 -97 -174 -45 -47 -95
-151 -91 -186 2 -22 10 -30 38 -37 19 -5 37 -12 40 -16 3 -4 24 -12 47 -19 41
-12 132 -2 158 18 6 4 27 10 48 14 32 6 41 13 54 44 9 23 13 54 11 84 -4 39
-1 51 17 68 20 18 23 19 35 5 15 -18 39 -19 61 -2 28 21 43 122 28 186 -7 31
-19 66 -26 77 -11 17 -13 67 -9 235 5 248 26 408 67 529 16 46 34 127 40 180
6 52 15 99 20 105 5 5 9 23 9 40 0 16 14 70 30 119 17 49 30 106 30 128 0 21
4 38 9 38 5 0 15 25 21 55 6 30 16 57 21 60 5 4 9 26 9 51 0 25 9 64 19 87 11
24 23 56 27 72 8 32 34 74 47 75 4 0 7 -12 7 -26 0 -24 3 -25 40 -23 22 2 45
-2 50 -7 23 -23 100 -175 100 -196 0 -6 6 -24 14 -41 53 -120 79 -228 107
-446 14 -111 22 -127 128 -240 18 -20 58 -72 89 -116 30 -44 65 -91 77 -105
28 -32 91 -138 100 -170 4 -14 16 -43 26 -65 19 -42 53 -171 71 -265 9 -49 8
-60 -12 -100 -28 -57 -49 -94 -83 -147 -15 -24 -27 -54 -27 -68 l0 -25 99 0
c113 0 184 11 258 41 42 17 53 26 58 49 4 16 1 38 -5 50 -9 17 -7 29 11 65 18
37 28 45 50 45 29 0 39 19 39 75 -1 52 -35 107 -130 205 -88 90 -180 216 -180
244 0 7 -9 21 -20 31 -11 10 -20 26 -20 36 0 9 -4 19 -8 21 -9 3 -82 124 -82
135 0 3 -6 19 -14 36 -70 162 -76 180 -76 231 0 31 -8 72 -20 98 -10 24 -22
64 -26 88 -4 25 -10 47 -14 50 -4 3 -4 35 1 72 4 36 4 79 0 95 -4 15 -4 66 2
113 9 80 6 116 -18 283 -4 26 -3 27 46 27 58 0 177 -27 199 -46 8 -7 29 -16
45 -20 17 -4 35 -10 40 -14 6 -4 27 -10 48 -14 20 -4 47 -18 60 -31 24 -26 97
-45 97 -26 0 6 16 11 35 11 19 0 45 6 56 13 17 10 23 10 26 0 7 -20 43 -16 43
5 0 27 62 92 88 92 15 0 22 6 22 19 0 21 44 36 100 32 37 -3 62 -16 105 -55
49 -44 62 -53 96 -72 19 -10 43 -26 54 -35 11 -9 30 -20 43 -24 12 -3 22 -11
22 -16 0 -5 9 -9 19 -9 11 0 26 -6 33 -13 11 -11 52 -33 185 -101 13 -6 23
-14 23 -18 0 -5 5 -8 10 -8 6 0 18 -7 28 -16 111 -99 101 -83 122 -202 15 -88
18 -142 15 -273 -8 -280 -27 -383 -96 -537 -16 -34 -29 -65 -29 -67 0 -2 -11
-29 -25 -59 -14 -30 -31 -79 -39 -110 -8 -30 -33 -90 -55 -132 -23 -43 -41
-83 -41 -89 0 -7 -7 -18 -15 -25 -24 -20 -85 -128 -85 -150 0 -29 27 -32 177
-21 76 6 148 11 161 11 17 0 22 6 22 28 0 22 8 31 40 46 22 11 40 25 40 33 0
8 11 13 29 13 58 0 77 99 46 235 -19 78 -14 115 29 264 9 29 16 76 16 105 0
57 10 119 39 251 11 50 27 127 37 173 10 45 21 82 24 82 12 0 67 -75 84 -115
10 -22 36 -76 58 -120 23 -44 51 -112 64 -151 12 -40 27 -80 33 -90 39 -74
121 -274 155 -381 21 -67 26 -102 26 -188 0 -96 -3 -111 -32 -177 -18 -40 -46
-91 -63 -113 -43 -58 -55 -81 -55 -112 0 -25 5 -30 53 -43 59 -16 149 -16 252
1 109 18 135 38 135 103 0 29 -6 48 -19 60 -18 16 -18 18 12 51 17 19 40 35
51 35 57 1 66 10 66 64 0 37 -8 67 -29 106 -189 366 -247 484 -276 567 -20 54
-51 141 -69 193 -40 112 -74 242 -83 319 -3 31 -9 63 -13 71 -5 8 -15 62 -24
120 -29 187 -57 290 -80 302 -12 6 -35 23 -51 37 -17 14 -48 40 -70 56 -21 17
-46 37 -55 45 -54 51 -143 122 -192 155 -53 35 -58 41 -58 75 0 21 8 48 18 61
11 13 24 39 30 56 6 18 20 43 32 55 30 32 50 76 50 110 0 15 5 28 10 28 6 0
10 9 10 21 0 11 7 27 15 35 8 9 15 29 15 45 0 16 6 46 14 66 8 21 17 59 21 86
3 26 10 47 15 47 4 0 11 12 14 28 22 91 61 218 69 224 6 3 12 44 13 90 5 121
11 199 19 229 8 33 -23 117 -76 199 -52 82 -107 133 -242 228 -45 32 -100 67
-122 77 -22 10 -42 21 -45 24 -11 13 -150 101 -160 101 -5 0 -10 3 -10 8 0 4
-15 13 -32 21 -18 8 -35 18 -38 21 -12 17 -181 89 -244 105 -64 16 -74 16
-155 1 -47 -10 -108 -24 -134 -33 -30 -9 -64 -13 -87 -9 -22 3 -58 0 -87 -9
-28 -8 -77 -17 -109 -20 -32 -3 -75 -10 -94 -17 -23 -8 -107 -12 -240 -13
-183 0 -210 2 -252 20 -27 11 -48 23 -48 27 0 3 -13 9 -30 13 -16 4 -30 10
-30 15 0 5 -14 11 -31 15 -17 4 -33 14 -36 22 -4 11 -14 13 -35 9 -24 -5 -31
-2 -35 14 -3 11 -11 20 -19 20 -17 0 -88 33 -92 43 -2 4 -10 7 -18 7 -8 0 -14
4 -14 9 0 5 -12 12 -27 15 -43 10 -142 60 -143 72 0 17 -102 27 -112 11 -5 -8
-8 -8 -8 -1 0 7 -20 12 -51 12 -28 0 -56 5 -62 11 -16 16 -47 14 -47 -3 0 -17
-41 -29 -54 -16 -12 12 -53 13 -60 1 -3 -4 -17 -6 -31 -3 -19 3 -25 0 -25 -13
0 -13 -6 -15 -30 -10 -42 9 -140 -4 -140 -20 0 -8 -9 -10 -25 -7 -14 2 -25 0
-25 -6 0 -6 -18 -16 -40 -22 -49 -13 -150 -19 -150 -8 0 19 -37 5 -52 -19 -17
-27 -17 -27 -18 -5 0 28 -29 30 -52 3 -19 -22 -124 -39 -141 -22 -16 16 -54
13 -83 -5 -13 -9 -26 -15 -28 -13 -2 2 5 23 16 46 18 39 24 43 76 54 65 13
277 117 321 157 16 15 37 32 47 38 10 6 22 19 28 29 6 10 21 29 34 41 12 11
22 31 22 43 0 11 4 21 10 21 5 0 20 21 32 48 11 26 31 58 44 72 31 34 70 109
94 181 23 68 53 254 48 301 -3 29 -7 33 -34 36 -41 4 -57 -21 -74 -113 -22
-124 -111 -299 -132 -262 -11 20 55 257 81 292 18 23 33 136 26 192 -8 70 -56
160 -92 174 -35 13 -63 11 -63 -4z m-129 -157 c5 0 9 -7 9 -16 0 -32 -25 -6
-27 27 0 19 1 24 4 12 2 -13 9 -23 14 -23z m-389 -208 c15 -18 28 -37 28 -43
0 -6 12 -35 26 -64 29 -62 44 -132 26 -121 -7 4 -12 14 -12 22 0 21 -38 127
-48 133 -9 6 -72 130 -72 140 0 3 6 -3 12 -14 6 -11 24 -35 40 -53z m220 25
c52 -48 64 -102 15 -64 -15 11 -53 87 -44 87 2 0 15 -11 29 -23z m-248 -354
c-14 -101 -43 -133 -88 -100 -16 11 -15 15 14 42 16 16 30 35 30 42 0 7 4 13
8 13 5 0 14 11 20 25 18 38 24 30 16 -22z m-632 -60 c37 -31 118 -113 118
-119 0 -16 -30 2 -55 33 -17 20 -40 48 -51 62 -12 14 -37 31 -55 37 -26 10
-29 13 -12 13 12 1 36 -11 55 -26z m-641 -120 c13 -16 12 -17 -3 -4 -10 7 -18
15 -18 17 0 8 8 3 21 -13z m1036 -112 c-40 -61 -123 -82 -115 -29 2 14 15 25
42 35 22 7 51 27 65 44 25 30 26 31 29 10 2 -13 -8 -40 -21 -60z m-52 -110
c-15 -14 -55 -23 -55 -13 0 15 12 22 39 22 15 0 21 -4 16 -9z m-584 -52 c17
-12 62 -31 102 -44 57 -18 66 -23 40 -24 -38 -1 -115 31 -155 64 -36 30 -27
33 13 4z m-957 -144 c5 -13 2 -14 -17 -4 -32 17 -33 19 -10 19 12 0 23 -7 27
-15z m1269 -1743 c4 -21 3 -31 -3 -27 -6 3 -10 20 -10 37 0 38 5 34 13 -10z
m2438 -1165 c3 -34 2 -69 -2 -77 -5 -10 -8 -11 -9 -2 0 6 -8 12 -17 13 -11 0
-13 3 -5 6 17 7 15 40 -3 47 -20 7 -19 26 1 26 13 0 15 7 9 38 -5 30 -4 35 6
24 7 -7 16 -40 20 -75z m-51 -87 c0 -11 -4 -20 -10 -20 -5 0 -10 9 -10 20 0
11 5 20 10 20 6 0 10 -9 10 -20z m80 -40 c0 -5 -8 -10 -17 -10 -15 0 -16 2 -3
10 19 12 20 12 20 0z m43 -131 c14 -30 35 -82 47 -116 13 -35 26 -63 31 -63 5
0 9 -7 9 -16 0 -18 54 -120 76 -145 8 -8 14 -18 14 -22 0 -3 14 -29 31 -58 22
-38 27 -55 19 -63 -13 -13 -30 8 -30 37 0 10 -7 20 -15 23 -8 4 -15 14 -15 24
0 10 -7 25 -15 34 -8 8 -15 21 -15 29 0 7 -18 33 -40 57 -22 24 -40 48 -40 55
0 19 -24 65 -35 65 -5 0 -4 4 4 9 20 13 7 51 -28 89 -16 17 -35 49 -42 72 -7
23 -21 47 -31 54 -25 15 -22 24 7 18 19 -3 25 0 26 14 1 11 4 5 8 -12 4 -17
19 -55 34 -85z m-974 -8 c-4 -30 -13 -57 -19 -61 -5 -3 -17 -62 -25 -131 -22
-176 -26 -195 -37 -175 -5 9 -5 31 2 55 8 29 7 52 -2 86 -10 38 -10 48 1 55
10 6 12 21 9 55 -6 46 13 105 33 105 5 0 9 5 9 11 0 9 33 59 36 56 1 -1 -2
-26 -7 -56z m3245 -117 c3 -8 2 -12 -4 -9 -6 3 -10 10 -10 16 0 14 7 11 14 -7z
m25 -74 c6 -19 7 -30 2 -25 -5 6 -13 24 -17 40 -9 39 0 30 15 -15z m-579 -126
c0 -30 -53 -214 -62 -214 -9 0 -13 8 -22 53 -5 20 -3 27 9 27 9 0 15 9 15 24
0 13 5 26 12 28 6 2 12 22 12 44 1 36 10 53 29 54 4 0 7 -7 7 -16z m657 -116
c-3 -7 -5 -2 -5 12 0 14 2 19 5 13 2 -7 2 -19 0 -25z m112 -239 c-18 -11 -2
-95 27 -140 24 -39 32 -89 14 -89 -6 0 -15 12 -20 28 -6 15 -15 36 -21 47 -6
12 -12 41 -13 65 -2 24 -9 46 -15 48 -6 2 -11 14 -11 27 0 37 -42 195 -52 195
-4 0 -8 12 -8 28 0 19 16 -6 55 -87 39 -80 52 -117 44 -122z m-3542 24 c-3
-43 -1 -109 4 -148 6 -38 10 -87 10 -107 0 -29 4 -38 17 -39 15 -1 15 -2 1 -6
-10 -2 -19 -13 -22 -24 -12 -46 -22 -12 -22 78 0 54 -4 149 -8 211 -7 102 -6
112 9 112 15 0 16 -9 11 -77z m1363 30 c0 -13 7 -31 15 -39 17 -17 20 -70 5
-79 -5 -3 -10 0 -10 8 0 8 -6 17 -14 20 -15 6 -40 102 -31 117 10 17 35 -2 35
-27z m-1430 -122 c-1 -137 -1 -143 11 -158 10 -11 7 -19 -15 -40 -21 -19 -30
-23 -36 -13 -13 21 -21 93 -12 99 5 3 12 28 14 55 3 27 12 52 19 57 10 6 10
15 2 42 -6 20 -8 48 -5 63 l5 28 9 -24 c5 -13 8 -62 8 -109z m2776 119 c8 0
14 -9 14 -20 0 -11 -7 -20 -15 -20 -12 0 -15 -13 -15 -55 l0 -55 -37 0 c-23 0
-33 3 -25 8 6 5 11 19 10 33 -3 40 25 120 40 114 8 -3 20 -5 28 -5z m-1228
-41 c13 -16 20 -29 15 -28 -4 0 -18 13 -31 30 -13 16 -20 29 -15 28 4 0 18
-13 31 -30z m1259 -41 c-3 -8 -6 -5 -6 6 -1 11 2 17 5 13 3 -3 4 -12 1 -19z
m-1377 -263 c11 -13 10 -14 -4 -9 -9 3 -16 10 -16 15 0 13 6 11 20 -6z m-1515
-82 c4 -26 15 -64 26 -84 24 -48 11 -54 -65 -32 -51 14 -56 18 -56 44 0 19 5
29 15 29 9 0 15 9 15 22 0 20 35 66 51 67 4 1 10 -20 14 -46z"/>
</g>
</svg>
