<?xml version="1.0" standalone="no"?>
<!DOCTYPE svg PUBLIC "-//W3C//DTD SVG 20010904//EN"
 "http://www.w3.org/TR/2001/REC-SVG-20010904/DTD/svg10.dtd">
<svg version="1.0" xmlns="http://www.w3.org/2000/svg"
 width="512.000000pt" height="512.000000pt" viewBox="0 0 512.000000 512.000000"
 preserveAspectRatio="xMidYMid meet">
<metadata>
Created by potrace 1.13, written by Peter Selinger 2001-2015
</metadata>
<g transform="translate(0.000000,512.000000) scale(0.100000,-0.100000)"
fill="#000000" stroke="none">
<path d="M1756 4922 c-3 -20 -6 -53 -6 -73 0 -32 -3 -37 -29 -42 -36 -8 -45
-30 -26 -67 8 -16 15 -40 15 -55 0 -23 -3 -25 -50 -25 -61 0 -63 -9 -15 -79
l35 -51 -16 -42 c-8 -24 -19 -50 -24 -59 -5 -9 -4 -35 1 -58 6 -29 6 -47 -3
-60 -10 -16 -7 -26 16 -60 15 -22 26 -45 24 -52 -2 -7 -23 -13 -48 -13 -60 -1
-61 -19 -9 -85 l42 -52 -13 -75 c-7 -47 -8 -79 -2 -87 5 -7 12 -24 16 -39 6
-26 5 -27 -19 -18 -23 9 -27 6 -37 -18 -7 -15 -13 -28 -14 -30 -6 -9 -53 26
-88 65 -44 50 -93 78 -151 88 -22 4 -45 12 -52 17 -6 5 -35 11 -64 14 -29 2
-60 11 -69 19 -10 9 -36 15 -63 15 -30 0 -62 9 -93 25 -49 26 -79 31 -89 16
-3 -6 -17 -6 -34 -1 -16 4 -32 6 -35 2 -4 -3 -38 -5 -78 -4 -70 2 -72 3 -119
47 -63 59 -87 59 -70 -1 4 -16 6 -35 4 -41 -6 -16 -37 -17 -64 -3 -23 13 -24
7 -2 -27 9 -14 18 -44 19 -66 2 -40 15 -57 45 -57 29 0 68 -40 79 -79 5 -21
24 -56 41 -77 17 -22 40 -59 52 -82 13 -29 35 -53 63 -70 50 -32 77 -64 93
-113 7 -22 35 -58 66 -89 30 -28 55 -53 55 -55 0 -3 19 -22 43 -44 24 -22 56
-65 72 -95 34 -65 61 -81 111 -65 5 2 31 -12 57 -31 38 -29 46 -41 47 -67 0
-32 21 -63 43 -63 7 0 37 -15 67 -33 30 -18 68 -34 84 -35 36 -3 45 -10 26
-23 -36 -23 -57 -20 -109 15 -53 36 -100 47 -102 24 -1 -7 -3 -20 -4 -28 -1
-8 -3 -21 -4 -27 -2 -20 -17 -16 -47 12 -28 26 -54 33 -54 15 0 -6 -11 -15
-24 -21 -20 -10 -31 -8 -59 10 -43 26 -59 26 -105 -1 l-38 -21 -53 26 c-66 34
-91 35 -91 5 0 -13 -4 -28 -8 -34 -9 -14 -38 -24 -46 -16 -13 13 -42 11 -72
-5 -30 -15 -34 -15 -67 0 -19 9 -42 17 -50 17 -16 0 -30 -28 -25 -51 2 -11
-16 -14 -88 -13 l-90 1 -24 -33 c-22 -33 -59 -52 -78 -40 -5 3 -20 -2 -33 -12
-30 -21 -42 -23 -79 -12 -36 10 -58 -5 -62 -45 -3 -29 -5 -30 -68 -38 -35 -4
-66 -10 -68 -12 -11 -11 60 -94 113 -131 58 -41 77 -47 103 -31 15 10 70 -22
103 -61 26 -31 89 -78 89 -66 0 3 7 1 15 -6 8 -7 20 -8 27 -4 33 21 58 7 108
-61 44 -60 90 -91 108 -73 10 10 5 38 -8 48 -4 3 -10 15 -14 27 -6 20 -5 21
19 10 14 -7 28 -20 31 -30 3 -9 10 -15 15 -12 5 4 9 2 9 -4 0 -6 11 -6 30 -1
18 5 30 5 30 -1 0 -5 5 -9 10 -9 6 0 22 -11 36 -25 17 -17 36 -25 60 -25 45 0
81 -24 99 -66 8 -19 19 -34 24 -34 6 0 11 -4 11 -10 0 -16 -61 -80 -76 -80 -8
0 -32 -18 -54 -40 -22 -22 -44 -40 -49 -40 -17 0 -24 -21 -25 -75 -2 -58 -16
-79 -63 -89 -47 -11 -78 -50 -74 -93 4 -44 -41 -139 -70 -146 -11 -3 -19 -9
-18 -14 1 -4 0 -12 -1 -18 -1 -5 -3 -14 -5 -20 -1 -5 -3 -18 -3 -27 -1 -10 -8
-18 -16 -18 -25 0 -46 -39 -36 -66 7 -18 4 -33 -11 -59 -22 -37 -20 -55 10
-94 l19 -25 -5 26 c-8 39 19 40 72 2 27 -19 53 -34 58 -34 6 0 31 13 57 30 33
21 56 29 78 26 22 -2 42 4 64 20 23 17 41 23 65 20 20 -3 39 1 47 10 19 18 44
18 80 -1 27 -15 66 -20 66 -10 0 3 -9 22 -20 42 -18 33 -18 39 -5 52 12 13 20
13 50 2 61 -22 81 -6 76 62 -3 33 12 35 54 7 17 -11 37 -20 47 -20 31 0 97 52
103 81 9 40 30 52 81 50 38 -1 53 4 87 31 23 18 50 38 62 43 14 8 21 22 23 53
2 23 7 40 12 37 5 -3 11 -1 15 5 3 5 22 10 41 10 66 0 145 57 130 95 -2 7 1
18 8 25 16 12 24 -2 36 -62 7 -35 6 -37 -32 -51 -42 -17 -49 -42 -26 -91 9
-22 8 -29 -7 -46 -10 -11 -24 -20 -32 -20 -24 0 -26 -30 -3 -55 28 -30 21 -41
-30 -49 -43 -7 -47 -16 -29 -63 6 -15 15 -45 19 -66 7 -35 4 -40 -35 -81 -42
-42 -43 -44 -32 -83 6 -22 7 -49 3 -59 -11 -26 -7 -180 5 -211 9 -25 8 -25
-21 -19 -39 7 -50 -16 -27 -56 22 -38 21 -56 -2 -94 -18 -29 -15 -56 9 -74 3
-3 12 -51 18 -108 7 -56 18 -115 26 -130 25 -51 29 -72 11 -72 -9 0 -14 4 -11
9 5 8 -24 20 -46 21 -17 0 -7 -27 20 -57 26 -28 28 -33 16 -54 -19 -34 -17
-45 4 -27 9 8 32 20 49 26 18 6 44 22 58 36 13 13 34 27 45 31 12 4 23 18 26
34 5 23 17 33 61 51 37 15 58 31 66 49 7 14 43 58 82 97 102 104 155 169 155
192 0 12 5 24 10 27 6 4 8 10 5 15 -3 4 4 6 15 3 25 -7 46 10 54 44 12 46 49
115 78 145 15 15 30 41 34 56 10 49 13 52 42 52 33 0 48 14 55 50 4 22 4 22 6
-5 0 -17 -4 -36 -9 -41 -7 -7 -5 -21 6 -43 9 -18 14 -35 11 -38 -3 -3 5 -22
17 -42 13 -20 32 -61 42 -90 11 -30 37 -72 62 -98 23 -25 42 -49 42 -53 0 -17
182 -190 200 -190 27 0 101 -85 100 -115 -1 -26 3 -36 26 -59 15 -14 37 -26
49 -26 22 0 122 -62 137 -84 12 -18 20 1 10 21 -13 24 2 53 28 53 23 0 32 14
36 54 1 17 5 42 9 56 5 18 -1 36 -20 64 -32 47 -29 76 10 96 17 8 32 16 34 17
2 1 -6 15 -18 31 -12 17 -21 39 -21 49 0 11 -3 23 -7 27 -12 11 -11 50 2 71
15 24 28 172 16 179 -4 3 -20 23 -35 44 -27 39 -27 40 -9 76 17 36 17 39 0 68
-9 16 -17 36 -17 44 0 7 -11 38 -24 67 -15 32 -23 66 -21 84 2 16 -3 43 -12
59 -34 65 -34 71 -2 69 l29 -2 -24 31 c-35 47 -68 125 -77 185 -5 38 -16 62
-36 83 l-28 29 30 -11 c61 -23 115 -61 160 -114 54 -64 90 -89 127 -91 15 -1
44 -17 68 -39 24 -21 62 -47 86 -57 24 -11 47 -25 51 -32 4 -7 18 -20 30 -30
21 -18 22 -18 42 2 12 12 24 21 28 21 13 -1 37 -23 70 -65 19 -25 58 -54 102
-78 76 -39 100 -44 119 -25 9 9 23 2 60 -34 64 -62 89 -74 111 -54 23 21 57
20 110 -5 25 -11 61 -21 81 -23 20 -2 57 -18 82 -36 26 -18 51 -29 58 -25 7 4
10 25 8 54 -2 33 1 45 10 43 9 -1 8 5 -3 22 -11 16 -15 36 -11 58 4 24 -1 43
-19 70 -14 21 -25 41 -25 46 0 4 -12 24 -26 43 -20 26 -24 42 -20 69 6 41 -22
90 -63 108 -14 7 -44 40 -66 74 -22 35 -50 74 -62 87 -12 13 -21 36 -21 51 1
20 -16 48 -58 97 -32 39 -66 79 -75 89 -8 10 -38 34 -65 53 -47 33 -48 35 -24
41 23 5 25 10 22 53 -3 42 -1 47 16 47 12 0 43 -14 70 -31 l50 -31 38 21 c22
11 50 30 64 43 14 13 38 25 55 27 16 1 38 9 47 16 13 8 32 10 59 5 33 -6 46
-3 77 17 20 14 39 29 40 34 2 5 8 7 13 3 5 -3 9 -1 9 4 0 14 57 32 101 32 41
0 55 13 51 46 -5 36 21 48 77 34 60 -14 93 0 89 40 -2 18 6 30 32 47 19 13 43
23 55 22 41 -3 45 1 45 39 0 32 -7 45 -48 85 -50 49 -71 57 -92 32 -18 -21
-28 -19 -62 16 -24 24 -36 29 -58 24 -21 -5 -37 2 -76 32 -40 32 -54 38 -79
33 -27 -6 -101 13 -115 29 -15 17 -82 71 -88 71 -4 0 -13 -13 -19 -30 -9 -25
-15 -28 -39 -24 -16 3 -36 12 -45 20 -10 9 -34 14 -62 13 -36 -2 -55 4 -88 26
-39 28 -42 28 -69 13 -38 -22 -87 -16 -137 15 -24 15 -54 27 -67 27 -21 0 -25
-5 -28 -37 -4 -46 -16 -50 -50 -18 -33 30 -40 31 -63 5 -23 -25 -43 -25 -75 0
-32 25 -51 25 -92 0 -18 -11 -41 -20 -50 -20 -28 0 -21 28 10 44 15 8 36 30
46 50 21 39 20 38 56 41 40 3 139 64 146 90 3 12 23 32 47 45 23 13 55 34 70
47 16 13 34 23 42 23 16 0 42 38 51 75 4 15 18 31 33 38 14 6 28 14 31 18 3 3
25 17 48 30 33 18 47 34 57 62 7 21 27 52 44 70 73 75 111 122 111 137 0 9 13
23 29 33 20 11 35 35 51 77 17 45 27 60 42 60 13 0 24 12 35 38 8 20 21 44 27
52 7 8 18 34 25 57 8 31 20 47 41 58 41 21 47 56 20 100 -26 42 -44 35 -31
-12 15 -52 -14 -66 -71 -37 -35 18 -158 21 -168 4 -9 -14 -118 -31 -149 -23
-13 3 -35 18 -47 32 l-23 26 -1 -26 c0 -17 -9 -33 -26 -44 -28 -18 -44 -20
-88 -9 -20 5 -27 4 -22 -4 4 -7 3 -20 -3 -29 -8 -14 -24 -18 -78 -19 -128 -2
-163 -18 -163 -71 0 -26 -14 -28 -49 -9 -31 17 -46 12 -99 -36 -34 -31 -49
-39 -75 -36 -28 3 -32 7 -38 40 -3 20 -13 48 -23 63 -10 15 -15 29 -12 33 3 3
6 2 6 -3 0 -5 11 2 25 15 28 26 30 39 13 87 -9 26 -9 40 0 67 9 23 9 41 3 59
-9 22 -6 31 15 57 l26 30 -22 62 c-12 34 -26 71 -33 82 -13 24 -18 58 -7 51 5
-3 12 8 18 23 7 22 5 36 -9 63 -10 18 -18 51 -19 72 0 21 -5 47 -11 58 -6 11
-15 44 -20 72 -13 69 -13 68 -4 99 6 23 0 34 -40 75 l-47 48 5 -37 c6 -41 2
-44 -38 -26 -31 14 -42 5 -48 -43 -7 -54 -13 -60 -65 -57 l-47 3 0 -59 c0 -58
-1 -60 -32 -73 -18 -7 -33 -19 -33 -26 0 -26 -20 -41 -62 -46 -36 -5 -42 -10
-40 -26 2 -11 10 -27 18 -36 13 -15 10 -20 -28 -52 -42 -35 -42 -37 -31 -68
17 -45 2 -61 -56 -58 -51 4 -59 -7 -41 -52 24 -56 12 -95 -32 -112 -22 -8 -50
-63 -55 -107 -6 -55 -35 -129 -54 -135 -10 -3 -21 -20 -24 -38 -4 -18 -14 -52
-22 -75 -13 -40 -13 -46 3 -63 30 -33 26 -49 -10 -49 -58 0 -72 -37 -35 -96
35 -58 16 -56 -35 3 -42 47 -48 58 -38 74 17 27 15 49 -8 92 -11 20 -20 43
-20 51 0 15 -31 50 -78 86 -48 37 -39 70 19 70 32 0 21 26 -30 70 -27 24 -55
57 -62 74 -7 17 -23 45 -36 63 -12 17 -23 40 -23 51 0 34 -24 79 -70 130 -85
93 -100 112 -100 126 0 8 -6 19 -13 23 -22 14 -85 117 -96 159 -12 47 -61 96
-82 84 -35 -22 -99 60 -86 110 3 11 -4 26 -17 38 -38 34 -43 33 -50 -6z"/>
</g>
</svg>
