<?xml version="1.0" standalone="no"?>
<!DOCTYPE svg PUBLIC "-//W3C//DTD SVG 20010904//EN"
 "http://www.w3.org/TR/2001/REC-SVG-20010904/DTD/svg10.dtd">
<svg version="1.0" xmlns="http://www.w3.org/2000/svg"
 width="558.000000pt" height="558.000000pt" viewBox="0 0 558.000000 558.000000"
 preserveAspectRatio="xMidYMid meet">
<metadata>
Created by potrace 1.13, written by Peter Selinger 2001-2015
</metadata>
<g transform="translate(0.000000,558.000000) scale(0.100000,-0.100000)"
fill="#000000" stroke="none">
<path d="M2778 4815 c-2 -3 -50 -10 -106 -15 -145 -15 -243 -42 -357 -100
l-100 -50 -140 -1 c-77 -1 -169 3 -205 9 -69 12 -107 18 -180 27 -25 3 -54 7
-65 9 -11 2 -56 7 -100 11 -44 4 -91 9 -105 10 -14 2 -52 6 -85 10 -33 3 -76
8 -95 11 -79 10 -210 18 -295 18 -113 0 -148 -16 -178 -82 -21 -45 -22 -61
-22 -312 0 -146 4 -328 8 -405 4 -77 10 -237 13 -355 6 -278 -2 -310 -128
-530 -74 -130 -66 -251 27 -415 101 -177 100 -173 99 -335 -1 -80 -4 -181 -8
-225 -6 -81 -10 -155 -22 -415 -3 -80 -8 -163 -10 -185 -9 -95 -5 -483 6 -530
14 -63 23 -73 73 -80 99 -15 464 3 607 30 53 10 253 25 650 51 152 10 151 10
231 -38 178 -108 363 -142 554 -103 69 14 190 58 205 75 3 3 27 20 53 39 l49
33 110 -7 c61 -4 120 -8 130 -10 11 -2 61 -7 111 -10 51 -3 103 -7 117 -9 35
-6 157 -18 205 -21 22 -1 67 -5 100 -9 33 -4 79 -9 102 -11 23 -1 59 -5 80 -9
21 -3 65 -8 98 -11 33 -3 94 -10 135 -15 98 -12 168 -19 264 -26 l79 -6 -7 98
c-4 54 -9 100 -11 104 -1 3 -6 34 -10 70 -4 36 -9 74 -11 84 -2 11 -8 56 -14
100 -6 45 -13 92 -15 106 -2 14 -6 48 -10 75 -3 28 -8 66 -11 85 -3 19 -5 42
-6 50 0 18 -27 206 -33 238 -3 12 -7 34 -11 50 -3 15 -14 56 -25 92 -33 105
-41 199 -27 305 15 116 21 142 65 283 75 243 83 307 67 492 -6 77 -32 214 -47
250 -5 14 -11 30 -13 35 -2 6 -11 30 -20 55 -23 59 -27 296 -9 435 8 55 17
127 20 160 4 33 8 62 10 65 2 3 6 30 9 60 4 30 9 66 12 80 2 14 6 36 9 50 3
14 7 43 10 65 3 22 7 51 9 65 3 14 10 61 16 105 6 44 13 91 16 105 2 14 7 69
10 123 l7 97 -74 0 c-41 0 -103 -4 -139 -9 -36 -5 -87 -12 -115 -16 -27 -3
-61 -8 -75 -10 -14 -2 -88 -13 -165 -24 -191 -27 -203 -29 -259 -36 -27 -3
-79 -13 -115 -21 -36 -9 -75 -18 -86 -21 -11 -2 -24 -5 -30 -7 -5 -1 -36 -8
-67 -16 -32 -7 -55 -16 -53 -20 8 -14 -47 -1 -93 21 -139 65 -325 134 -418
154 -37 9 -190 16 -196 10z"/>
</g>
</svg>
