<?xml version="1.0" standalone="no"?>
<!DOCTYPE svg PUBLIC "-//W3C//DTD SVG 20010904//EN"
 "http://www.w3.org/TR/2001/REC-SVG-20010904/DTD/svg10.dtd">
<svg version="1.0" xmlns="http://www.w3.org/2000/svg"
 width="512.000000pt" height="512.000000pt" viewBox="0 0 512.000000 512.000000"
 preserveAspectRatio="xMidYMid meet">
<metadata>
Created by potrace 1.13, written by Peter Selinger 2001-2015
</metadata>
<g transform="translate(0.000000,512.000000) scale(0.100000,-0.100000)"
fill="#000000" stroke="none">
<path d="M3769 4800 c-9 -24 -17 -30 -39 -30 -27 0 -46 -22 -34 -41 3 -5 1 -9
-5 -9 -5 0 -13 -9 -16 -20 -5 -16 -15 -20 -54 -20 -26 0 -50 -3 -54 -6 -3 -3
1 -28 10 -56 12 -42 12 -52 1 -59 -21 -14 -41 -10 -73 11 -44 29 -55 26 -55
-17 l-1 -38 -30 33 c-21 23 -29 42 -27 60 3 30 -13 51 -55 69 -24 11 -29 11
-34 -5 -4 -9 -19 -29 -34 -44 -15 -15 -40 -52 -55 -82 -14 -30 -34 -56 -44
-59 -10 -3 -21 -18 -25 -36 -4 -17 -11 -31 -16 -31 -6 0 -9 -12 -7 -27 2 -23
-6 -35 -47 -68 -27 -21 -62 -52 -76 -67 -25 -28 -49 -37 -49 -19 0 5 -14 14
-32 20 -17 6 -29 8 -25 5 4 -4 2 -13 -4 -21 -6 -7 -9 -13 -5 -13 3 0 -1 -16
-9 -36 -15 -36 -49 -74 -67 -74 -13 0 -9 -34 6 -55 14 -19 11 -49 -4 -40 -10
6 -43 -31 -47 -53 -2 -9 -6 -45 -8 -80 -5 -76 -7 -79 -45 -84 -35 -5 -58 19
-79 85 -15 43 -26 42 -29 -3 -1 -17 -12 -44 -24 -60 -18 -24 -19 -34 -11 -53
9 -19 7 -30 -10 -57 l-21 -33 35 -64 c29 -54 32 -65 19 -73 -8 -5 -23 -10 -32
-10 -19 0 -78 55 -78 74 0 6 -9 29 -20 51 -25 48 -25 68 -3 91 12 12 14 19 6
21 -7 3 -10 10 -7 18 8 20 -22 77 -61 115 -19 19 -37 32 -39 29 -3 -2 -1 -21
3 -40 5 -20 4 -43 -1 -52 -14 -26 -48 0 -48 38 0 37 -5 43 -53 79 -20 16 -40
40 -44 55 -3 14 -9 31 -13 36 -4 6 -21 45 -38 88 -18 44 -43 92 -57 109 -19
22 -25 41 -25 77 0 40 -6 56 -35 95 -38 49 -50 54 -81 32 -17 -13 -18 -18 -7
-46 16 -43 8 -58 -39 -70 -55 -15 -72 -7 -109 53 -75 124 -85 136 -131 162
-26 14 -50 30 -53 35 -3 6 -15 15 -27 21 -19 10 -20 9 -16 -16 8 -37 -15 -43
-63 -15 -51 28 -73 21 -64 -21 6 -27 5 -31 -10 -26 -9 4 -23 7 -30 7 -15 0
-75 50 -75 63 0 16 -73 77 -123 102 -61 30 -93 33 -81 8 4 -10 9 -45 10 -78 1
-33 7 -72 12 -87 10 -24 9 -27 -11 -30 -16 -2 -21 -9 -20 -26 2 -12 8 -28 13
-35 41 -48 90 -124 91 -141 3 -49 -11 -69 -39 -58 -17 6 -15 -5 10 -66 12 -30
11 -35 -5 -47 -10 -7 -27 -11 -37 -8 -24 6 -24 5 -4 -35 16 -33 19 -53 11 -87
-3 -11 1 -29 8 -40 6 -11 15 -33 19 -48 4 -16 27 -51 53 -78 38 -40 46 -56 48
-91 1 -24 5 -53 10 -65 10 -31 -11 -30 -75 2 -27 14 -59 25 -71 25 -21 0 -21
-1 -5 -19 10 -11 20 -39 22 -62 3 -34 12 -50 45 -81 22 -21 38 -38 36 -38 -3
0 9 -17 26 -37 45 -51 59 -65 87 -88 14 -11 33 -30 41 -42 20 -29 13 -84 -12
-90 -10 -3 -15 -11 -13 -18 3 -7 0 -16 -6 -20 -7 -4 -2 -15 14 -30 14 -12 28
-40 32 -60 l7 -38 -59 7 c-83 11 -94 11 -136 2 -34 -7 -41 -5 -93 38 -60 49
-74 53 -104 34 -16 -10 -29 -8 -69 11 -107 50 -174 -13 -101 -96 35 -40 35
-67 -1 -70 -14 -1 -59 -5 -101 -9 -49 -4 -83 -2 -96 5 -16 8 -30 7 -59 -5 -29
-12 -46 -13 -76 -6 -21 5 -36 6 -33 2 3 -5 1 -20 -5 -35 -9 -23 -15 -27 -40
-23 -17 3 -30 4 -30 3 0 0 22 -18 49 -38 37 -28 51 -47 59 -77 13 -52 7 -55
-63 -35 -15 4 -30 -3 -53 -24 -36 -35 -48 -37 -76 -16 -27 21 -35 19 -46 -10
-13 -35 -35 -41 -76 -21 -32 15 -37 15 -65 0 -17 -8 -45 -14 -62 -12 -31 3
-32 2 -32 -34 0 -46 -5 -50 -38 -33 -24 12 -27 12 -27 -1 0 -8 11 -25 24 -37
13 -12 33 -44 45 -72 19 -42 30 -54 72 -73 40 -19 54 -33 75 -74 14 -28 23
-59 21 -69 -6 -21 16 -49 38 -49 8 0 21 12 29 28 12 22 16 24 21 11 6 -15 32
-29 143 -75 42 -17 43 -17 65 4 13 12 26 22 30 22 3 0 24 -18 46 -40 41 -42
79 -55 66 -22 -17 41 -18 62 0 62 19 0 105 -48 105 -60 0 -18 -52 -99 -67
-104 -10 -4 -29 2 -45 14 -41 30 -44 24 -9 -18 63 -76 55 -72 135 -72 41 0 78
5 81 10 4 6 10 8 15 5 5 -3 18 3 30 15 25 25 36 25 94 -1 58 -25 79 -14 74 40
-4 48 17 51 67 8 22 -19 50 -39 62 -46 14 -7 23 -21 23 -35 0 -20 6 -25 35
-28 19 -2 42 0 51 5 9 5 38 9 64 8 46 -1 48 1 54 30 6 29 8 31 39 25 87 -19
96 -19 103 -1 4 10 3 30 -3 44 -20 55 11 67 67 26 37 -27 60 -31 91 -15 14 8
19 7 20 -2 0 -7 2 -21 4 -30 2 -10 -5 -20 -17 -24 -11 -3 -17 -8 -14 -12 8 -8
-74 -43 -85 -36 -5 3 -9 0 -9 -7 0 -7 -3 -9 -7 -6 -9 10 -53 -41 -53 -61 0
-16 -56 -62 -75 -62 -4 0 -14 -8 -22 -17 -8 -10 -12 -12 -8 -5 12 23 -4 12
-25 -18 -15 -20 -17 -28 -7 -24 8 3 34 -4 57 -16 36 -18 41 -25 35 -43 -9 -26
-10 -64 -2 -94 l6 -21 -35 20 c-19 11 -41 18 -49 15 -19 -8 -29 -66 -16 -99
11 -31 5 -35 -69 -40 -43 -4 -49 -26 -20 -82 21 -43 13 -69 -18 -60 -14 5 -13
2 2 -10 11 -9 37 -16 58 -16 42 0 42 1 27 -55 -15 -54 -37 -78 -67 -70 -15 4
-21 2 -17 -5 3 -5 2 -10 -3 -10 -5 0 -9 -10 -9 -22 0 -13 -3 -49 -8 -81 -6
-47 -12 -60 -30 -67 -12 -5 -25 -20 -29 -34 -3 -14 -13 -26 -21 -26 -26 0 -39
-39 -25 -80 19 -57 11 -75 -33 -76 -54 -1 -65 -16 -45 -58 11 -23 25 -35 45
-39 93 -19 123 -32 132 -57 20 -53 20 -95 0 -121 -25 -33 -24 -54 7 -95 32
-42 26 -51 -23 -36 -50 15 -59 4 -43 -52 7 -25 9 -58 6 -73 -7 -26 -6 -27 10
-11 9 9 17 31 16 47 -1 36 4 37 53 14 l36 -17 35 35 c36 36 36 37 13 93 -2 5
7 11 21 13 24 4 89 42 88 53 -1 18 4 21 16 11 17 -14 69 8 84 36 8 14 14 15
41 4 35 -15 41 -29 44 -100 1 -28 6 -51 10 -51 5 0 5 -5 1 -11 -4 -8 1 -7 15
1 12 6 42 12 67 13 24 1 44 2 44 3 0 1 -7 18 -15 37 -16 40 -14 43 36 52 18 3
37 11 41 18 8 11 7 19 -7 65 -8 24 16 53 45 54 45 3 55 27 35 85 -4 13 19 36
28 27 3 -4 25 -6 48 -6 23 1 50 -4 60 -11 22 -13 36 -3 21 16 -7 8 -7 18 -2
27 7 12 15 13 39 3 25 -9 32 -8 46 7 10 11 16 33 15 52 -4 71 -4 71 40 64 37
-6 54 4 31 18 -4 3 -11 20 -15 38 -5 24 -1 37 16 55 17 18 21 34 20 66 -3 50
2 58 47 80 40 20 51 12 51 -37 0 -35 43 -110 48 -84 4 22 27 29 57 18 37 -14
43 12 15 62 -20 35 -21 45 -11 78 6 20 11 52 11 69 0 33 5 34 70 15 21 -6 70
-73 70 -96 0 -17 -5 -18 -50 -12 -36 5 -50 3 -50 -6 0 -6 26 -39 58 -73 32
-34 65 -79 75 -99 19 -43 32 -48 42 -17 7 22 90 63 111 55 8 -3 13 -20 12 -40
-1 -27 8 -44 40 -82 34 -37 41 -52 36 -73 -9 -41 -6 -65 11 -77 8 -6 15 -26
16 -45 0 -19 10 -53 22 -75 12 -23 30 -58 41 -78 17 -33 22 -36 47 -31 18 4
29 2 29 -4 0 -15 35 -14 48 2 6 7 12 35 14 62 3 50 3 50 40 53 30 3 41 -2 60
-24 44 -51 110 -114 119 -114 6 0 8 -4 5 -9 -3 -5 8 -11 24 -15 19 -3 30 -12
30 -22 0 -10 3 -15 6 -12 3 3 19 -7 35 -23 16 -16 35 -29 42 -29 15 0 41 28
61 69 20 38 44 61 63 61 9 0 43 -29 76 -65 63 -69 80 -77 97 -46 9 18 50 19
50 1 0 -4 8 -10 18 -12 15 -4 17 0 14 21 -2 18 4 33 22 50 27 25 33 41 16 41
-5 0 -18 7 -27 15 -10 8 -26 20 -35 27 -9 7 -20 25 -23 40 -6 24 -5 26 24 24
24 -2 31 2 31 16 0 22 -20 59 -40 74 -56 43 -110 116 -110 146 0 10 5 26 11
36 9 14 8 25 -4 49 -16 30 -16 31 12 43 16 6 35 11 42 10 30 -5 39 1 39 26 0
14 -9 38 -21 52 -17 22 -19 35 -14 69 6 40 2 51 -46 131 -64 104 -83 127 -101
116 -7 -4 -10 -4 -6 1 5 5 -2 13 -15 19 -18 10 -22 21 -25 67 l-3 55 53 11
c41 8 62 8 90 -2 45 -15 40 -3 -12 30 -22 14 -46 42 -59 67 -12 24 -39 63 -61
86 -22 24 -40 48 -40 53 0 6 -5 7 -12 3 -8 -5 -9 0 -6 14 4 12 2 20 -3 16 -5
-3 -9 -13 -9 -24 0 -10 -6 -20 -13 -23 -17 -7 -62 31 -71 59 -3 12 -25 38 -48
59 -39 37 -40 39 -19 46 16 6 21 17 21 42 0 41 8 51 29 34 12 -9 11 -7 -2 13
-21 30 -22 47 -2 30 9 -8 25 -9 47 -4 18 4 37 7 43 5 10 -3 -21 37 -44 55 -16
12 -7 34 14 34 8 0 37 -20 65 -45 28 -25 63 -47 78 -51 15 -3 39 -10 54 -14
15 -5 40 -5 56 -1 30 9 58 0 80 -27 11 -14 12 -14 12 0 0 28 32 29 82 3 43
-23 57 -25 110 -19 l60 7 -6 49 c-6 46 -5 49 13 43 11 -3 36 3 58 14 48 25 58
26 115 17 36 -6 52 -4 70 8 32 22 41 20 62 -14 18 -32 41 -31 31 1 -4 12 2 27
19 44 31 31 32 49 5 99 -11 21 -18 40 -16 42 2 3 34 13 70 23 54 15 68 16 79
5 16 -16 30 -8 45 29 15 33 47 36 97 6 32 -19 39 -19 96 -7 49 10 60 16 57 29
-9 34 11 50 56 44 51 -8 45 -8 85 -6 31 1 32 2 32 46 0 37 -3 45 -18 45 -10 0
-23 -5 -29 -11 -7 -7 -17 -3 -32 17 -11 15 -21 33 -21 40 0 7 -6 17 -12 21
-28 17 -49 53 -72 118 -24 68 -24 70 -5 93 21 28 15 48 -27 81 -51 40 -64 23
-51 -64 4 -22 -40 -1 -76 37 -21 22 -40 39 -41 37 -2 -2 -9 -14 -15 -26 -14
-27 -43 -30 -62 -7 -7 8 -25 22 -40 30 -24 12 -31 12 -57 -3 -25 -14 -36 -15
-68 -5 -22 6 -48 18 -58 25 -19 14 -18 15 2 35 13 13 22 35 22 52 0 29 2 30
44 30 61 0 70 15 47 78 -10 29 -21 55 -24 58 -13 13 -39 -20 -34 -43 6 -31 -7
-29 -32 6 -29 40 -59 46 -74 14 -9 -20 -16 -23 -36 -19 -70 16 -91 18 -91 8 0
-6 -20 -18 -45 -27 -41 -16 -46 -16 -67 -2 -50 36 -58 45 -52 61 7 19 -20 54
-51 66 -12 4 -29 2 -42 -7 -13 -9 -52 -16 -95 -17 -93 -4 -165 -28 -200 -69
l-26 -32 -71 35 c-38 19 -70 38 -70 41 -2 15 31 17 63 4 20 -8 38 -15 42 -15
4 0 4 22 0 48 -6 44 -4 50 16 60 13 6 34 12 48 14 19 2 25 9 25 28 0 14 4 35
9 48 7 21 13 23 54 21 40 -3 47 0 51 16 3 17 1 17 -12 6 -13 -10 -23 -8 -61
14 -65 38 -68 44 -55 106 6 30 13 63 15 75 2 15 17 23 55 33 67 18 92 54 74
108 -10 30 -22 41 -62 59 -54 23 -73 57 -53 94 5 10 10 30 10 43 0 30 26 54
65 59 31 3 31 4 18 69 -4 21 3 34 30 60 47 46 58 71 51 114 -5 31 -1 41 31 76
33 37 35 41 20 62 -8 12 -15 28 -15 37 0 9 -9 16 -20 16 -11 0 -20 -4 -20 -8
0 -4 -7 -8 -15 -8 -8 0 -12 -6 -10 -12 2 -7 -7 -21 -21 -31 -37 -28 -68 -15
-93 36 -26 54 -26 72 -2 96 11 11 16 23 13 27 -4 4 2 4 13 0 16 -5 15 -2 -5
13 -33 26 -35 60 -4 71 27 11 44 39 44 75 0 25 -45 125 -56 125 -3 0 -10 -13
-15 -30z"/>
</g>
</svg>
