<?xml version="1.0" standalone="no"?>
<!DOCTYPE svg PUBLIC "-//W3C//DTD SVG 20010904//EN"
 "http://www.w3.org/TR/2001/REC-SVG-20010904/DTD/svg10.dtd">
<svg version="1.0" xmlns="http://www.w3.org/2000/svg"
 width="512.000000pt" height="512.000000pt" viewBox="0 0 512.000000 512.000000"
 preserveAspectRatio="xMidYMid meet">
<metadata>
Created by potrace 1.13, written by Peter Selinger 2001-2015
</metadata>
<g transform="translate(0.000000,512.000000) scale(0.100000,-0.100000)"
fill="#000000" stroke="none">
<path d="M2536 4298 c-11 -81 -25 -128 -43 -135 -8 -3 -19 0 -23 8 -15 23 -20
6 -26 -92 -4 -52 -11 -102 -16 -111 -10 -21 -37 -24 -40 -5 -1 6 -4 -40 -7
-103 -6 -113 -6 -115 -29 -114 -23 1 -24 -1 -18 -65 4 -36 9 -83 12 -104 5
-33 3 -39 -16 -44 -16 -4 -20 -11 -17 -27 3 -11 11 -57 18 -100 11 -64 11 -80
1 -84 -14 -4 -10 -41 14 -127 7 -27 13 -66 13 -85 -1 -19 2 -47 6 -62 11 -40
-23 -38 -36 2 -6 17 -15 30 -19 30 -5 0 -11 14 -15 30 -4 17 -10 30 -15 30 -5
0 -11 14 -15 30 -4 17 -11 30 -16 30 -5 0 -9 7 -9 15 0 8 -4 15 -8 15 -4 0
-14 16 -21 35 -8 22 -19 35 -30 35 -10 0 -24 11 -31 25 -7 14 -17 25 -21 25
-4 0 -10 14 -14 30 -4 17 -11 30 -16 30 -5 0 -9 7 -9 15 0 8 -4 15 -10 15 -5
0 -10 7 -10 15 0 8 -4 15 -10 15 -5 0 -10 5 -10 10 0 6 -11 22 -25 36 -14 14
-25 29 -25 34 0 6 -13 10 -30 10 -20 0 -33 7 -41 22 -7 13 -18 29 -26 36 -7 7
-13 20 -13 28 0 8 -7 14 -15 14 -8 0 -15 6 -15 13 0 7 -9 19 -20 27 -11 8 -20
18 -20 23 0 4 -15 22 -32 40 -23 22 -41 31 -58 29 -24 -2 -80 35 -80 54 0 5
-9 16 -20 24 -11 8 -20 20 -20 27 0 7 -5 13 -11 13 -11 0 -39 25 -39 35 0 10
-28 35 -39 35 -6 0 -11 4 -11 9 0 14 -32 23 -44 11 -15 -15 -30 -12 -54 8 -11
9 -30 24 -41 32 -12 8 -21 18 -21 23 0 12 -27 37 -39 37 -6 0 -11 5 -11 10 0
6 -7 10 -15 10 -8 0 -15 7 -15 15 0 8 -7 15 -15 15 -8 0 -15 4 -15 9 0 5 -14
15 -32 22 -24 10 -33 10 -36 1 -2 -7 -12 -12 -22 -12 -21 0 -80 31 -80 43 0 4
-7 7 -15 7 -8 0 -15 5 -15 10 0 6 -7 10 -15 10 -8 0 -15 5 -15 10 0 6 -7 10
-15 10 -8 0 -15 5 -15 10 0 6 -5 10 -11 10 -7 0 -19 8 -28 18 -9 10 -31 24
-50 32 -30 12 -35 12 -46 -3 -7 -9 -17 -17 -24 -17 -6 0 -11 -5 -11 -11 0 -7
-8 -17 -17 -24 -15 -11 -15 -16 -3 -46 8 -19 22 -41 32 -50 10 -9 18 -21 18
-28 0 -6 5 -11 10 -11 6 0 10 -7 10 -15 0 -8 5 -15 10 -15 6 0 10 -7 10 -15 0
-8 5 -15 10 -15 6 0 10 -7 10 -15 0 -8 3 -15 8 -15 11 0 42 -59 42 -80 0 -10
-5 -20 -12 -22 -9 -3 -9 -12 1 -36 7 -18 17 -32 22 -32 5 0 9 -7 9 -15 0 -8 7
-15 15 -15 8 0 15 -7 15 -15 0 -8 5 -15 10 -15 6 0 10 -5 10 -11 0 -12 25 -39
37 -39 5 0 15 -9 23 -21 8 -11 23 -30 32 -41 20 -24 23 -39 8 -54 -12 -12 -3
-44 11 -44 5 0 9 -5 9 -11 0 -11 25 -39 35 -39 10 0 35 -28 35 -39 0 -6 6 -11
13 -11 7 0 19 -9 27 -20 8 -11 19 -20 24 -20 19 0 56 -56 54 -80 -2 -17 7 -35
29 -57 18 -18 36 -33 40 -33 5 0 15 -9 23 -20 8 -11 20 -20 27 -20 7 0 13 -7
13 -15 0 -8 6 -15 14 -15 8 0 21 -6 28 -13 7 -8 23 -19 36 -26 15 -8 22 -21
22 -41 0 -17 4 -30 10 -30 5 0 20 -11 34 -25 14 -14 30 -25 36 -25 5 0 10 -4
10 -10 0 -5 7 -10 15 -10 8 0 15 -4 15 -10 0 -5 7 -10 15 -10 8 0 15 -4 15 -9
0 -5 14 -12 30 -16 17 -4 30 -10 30 -14 0 -4 11 -14 25 -21 14 -7 25 -21 25
-31 0 -11 13 -22 35 -30 19 -7 35 -17 35 -21 0 -4 7 -8 15 -8 8 0 15 -4 15 -9
0 -5 14 -12 30 -16 17 -4 30 -10 30 -15 0 -5 14 -11 30 -15 17 -4 30 -10 30
-15 0 -4 14 -13 30 -19 40 -13 42 -47 3 -36 -16 4 -44 7 -63 6 -19 0 -57 6
-85 13 -86 24 -123 28 -127 14 -4 -10 -20 -10 -84 1 -43 7 -89 15 -100 18 -16
3 -23 -1 -27 -17 -5 -19 -11 -21 -44 -16 -21 3 -68 8 -104 12 -64 6 -66 5 -65
-18 1 -23 -1 -23 -114 -29 -63 -3 -109 -6 -102 -7 18 -3 15 -30 -5 -40 -10 -5
-60 -12 -112 -16 -98 -6 -115 -11 -92 -26 8 -4 11 -15 8 -23 -7 -18 -54 -32
-134 -43 -29 -4 -53 -10 -53 -14 0 -4 24 -10 53 -14 80 -11 127 -25 134 -43 3
-8 0 -19 -8 -23 -23 -15 -6 -20 92 -26 52 -4 102 -11 112 -16 20 -10 23 -37 5
-40 -7 -1 39 -4 102 -7 113 -6 115 -6 114 -29 -1 -23 1 -24 65 -18 36 4 83 9
104 12 33 5 39 3 44 -16 4 -16 11 -20 27 -17 11 3 57 11 100 18 64 11 80 11
84 1 4 -14 41 -10 127 14 28 7 66 13 85 13 19 -1 47 2 63 6 39 11 37 -23 -3
-36 -16 -6 -30 -15 -30 -19 0 -5 -13 -11 -30 -15 -16 -4 -30 -10 -30 -15 0 -5
-13 -11 -30 -15 -16 -4 -30 -11 -30 -16 0 -5 -7 -9 -15 -9 -8 0 -15 -4 -15 -8
0 -4 -16 -14 -35 -21 -22 -8 -35 -19 -35 -30 0 -10 -11 -24 -25 -31 -14 -7
-25 -17 -25 -21 0 -4 -13 -10 -30 -14 -16 -4 -30 -11 -30 -16 0 -5 -7 -9 -15
-9 -8 0 -15 -4 -15 -10 0 -5 -7 -10 -15 -10 -8 0 -15 -4 -15 -10 0 -5 -5 -10
-10 -10 -6 0 -22 -11 -36 -25 -14 -14 -29 -25 -34 -25 -6 0 -10 -13 -10 -30 0
-20 -7 -33 -22 -41 -13 -7 -29 -18 -36 -26 -7 -7 -20 -13 -28 -13 -8 0 -14 -7
-14 -15 0 -8 -6 -15 -13 -15 -7 0 -19 -9 -27 -20 -8 -11 -18 -20 -23 -20 -4 0
-22 -15 -40 -32 -22 -23 -31 -41 -29 -58 2 -24 -35 -80 -54 -80 -5 0 -16 -9
-24 -20 -8 -11 -20 -20 -27 -20 -7 0 -13 -5 -13 -11 0 -11 -25 -39 -35 -39
-10 0 -35 -28 -35 -39 0 -6 -4 -11 -9 -11 -14 0 -23 -32 -11 -44 15 -15 12
-30 -8 -54 -9 -11 -24 -30 -32 -41 -8 -12 -18 -21 -23 -21 -12 0 -37 -27 -37
-39 0 -6 -4 -11 -10 -11 -5 0 -10 -7 -10 -15 0 -8 -7 -15 -15 -15 -8 0 -15 -7
-15 -15 0 -8 -4 -15 -9 -15 -5 0 -15 -14 -22 -32 -10 -24 -10 -33 -1 -36 7 -2
12 -12 12 -22 0 -21 -31 -80 -42 -80 -5 0 -8 -7 -8 -15 0 -8 -4 -15 -10 -15
-5 0 -10 -7 -10 -15 0 -8 -4 -15 -10 -15 -5 0 -10 -7 -10 -15 0 -8 -4 -15 -10
-15 -5 0 -10 -5 -10 -11 0 -7 -8 -19 -18 -28 -10 -9 -24 -31 -32 -50 -12 -30
-12 -35 3 -46 9 -7 17 -17 17 -24 0 -6 5 -11 11 -11 7 0 17 -8 24 -17 11 -15
16 -15 46 -3 19 8 41 22 50 32 9 10 21 18 28 18 6 0 11 5 11 10 0 6 7 10 15
10 8 0 15 5 15 10 0 6 7 10 15 10 8 0 15 5 15 10 0 6 7 10 15 10 8 0 15 3 15
8 0 11 59 42 80 42 10 0 20 -5 22 -12 3 -9 12 -9 36 1 18 7 32 17 32 22 0 5 7
9 15 9 8 0 15 7 15 15 0 8 7 15 15 15 8 0 15 5 15 10 0 6 5 10 11 10 12 0 39
25 39 37 0 5 9 15 21 23 11 8 30 23 41 32 24 20 39 23 54 8 12 -12 44 -3 44
11 0 5 5 9 11 9 11 0 39 25 39 35 0 10 28 35 39 35 6 0 11 6 11 13 0 7 9 19
20 27 11 8 20 19 20 24 0 19 56 56 80 54 17 -2 35 7 58 29 17 18 32 36 32 40
0 5 9 15 20 23 11 8 20 20 20 27 0 7 7 13 15 13 8 0 15 6 15 14 0 8 6 21 13
28 8 7 19 23 26 36 8 15 21 22 41 22 17 0 30 4 30 10 0 5 11 20 25 34 14 14
25 30 25 36 0 5 5 10 10 10 6 0 10 7 10 15 0 8 5 15 10 15 6 0 10 7 10 15 0 8
4 15 9 15 5 0 12 14 16 30 4 16 10 30 14 30 4 0 14 11 21 25 7 14 21 25 31 25
11 0 22 13 30 35 7 19 17 35 21 35 4 0 8 7 8 15 0 8 4 15 9 15 5 0 12 13 16
30 4 16 10 30 15 30 5 0 11 13 15 30 4 17 10 30 15 30 4 0 13 14 19 30 13 40
47 42 36 3 -4 -16 -7 -44 -6 -63 0 -19 -6 -57 -13 -85 -24 -86 -28 -123 -14
-127 10 -4 10 -20 -1 -84 -7 -43 -15 -89 -18 -100 -3 -16 1 -23 17 -27 19 -5
21 -11 16 -44 -3 -21 -8 -68 -12 -104 -6 -64 -5 -66 18 -65 23 1 23 -1 29
-114 3 -63 6 -109 7 -102 3 18 30 15 40 -5 5 -10 12 -60 16 -112 6 -98 11
-115 26 -92 4 8 15 11 23 8 18 -7 32 -54 43 -134 4 -29 10 -53 14 -53 4 0 10
24 14 53 11 80 25 127 43 134 8 3 19 0 23 -8 15 -23 20 -6 26 92 4 52 11 102
16 112 10 20 37 23 40 5 1 -7 4 39 7 102 6 113 6 115 29 114 23 -1 24 1 18 65
-4 36 -9 83 -12 104 -5 33 -3 39 16 44 16 4 20 11 17 27 -3 11 -11 57 -18 100
-11 64 -11 80 -1 84 14 4 10 41 -14 127 -7 28 -13 66 -13 85 1 19 -2 47 -6 63
-11 39 23 37 36 -3 6 -16 15 -30 19 -30 5 0 11 -13 15 -30 4 -16 10 -30 15
-30 5 0 11 -13 15 -30 4 -17 11 -30 16 -30 5 0 9 -7 9 -15 0 -8 4 -15 8 -15 4
0 14 -16 21 -35 8 -22 19 -35 30 -35 10 0 24 -11 31 -25 7 -14 17 -25 21 -25
4 0 10 -14 14 -30 4 -16 11 -30 16 -30 5 0 9 -7 9 -15 0 -8 5 -15 10 -15 6 0
10 -7 10 -15 0 -8 5 -15 10 -15 6 0 10 -5 10 -10 0 -6 11 -22 25 -36 14 -14
25 -29 25 -34 0 -6 13 -10 30 -10 20 0 33 -7 41 -22 7 -13 18 -29 26 -36 7 -7
13 -20 13 -28 0 -8 7 -14 15 -14 8 0 15 -6 15 -13 0 -7 9 -19 20 -27 11 -8 20
-18 20 -23 0 -4 15 -22 33 -40 22 -22 40 -31 57 -29 24 2 80 -35 80 -54 0 -5
9 -16 20 -24 11 -8 20 -20 20 -27 0 -7 5 -13 11 -13 11 0 39 -25 39 -35 0 -10
28 -35 39 -35 6 0 11 -4 11 -9 0 -14 32 -23 44 -11 15 15 30 12 54 -8 11 -9
30 -24 41 -32 12 -8 21 -18 21 -23 0 -12 27 -37 39 -37 6 0 11 -4 11 -10 0 -5
7 -10 15 -10 8 0 15 -7 15 -15 0 -8 7 -15 15 -15 8 0 15 -4 15 -9 0 -5 14 -15
32 -22 24 -10 33 -10 36 -1 2 7 12 12 22 12 21 0 80 -31 80 -42 0 -5 7 -8 15
-8 8 0 15 -4 15 -10 0 -5 7 -10 15 -10 8 0 15 -4 15 -10 0 -5 7 -10 15 -10 8
0 15 -4 15 -10 0 -5 5 -10 11 -10 7 0 19 -8 28 -18 9 -10 31 -24 50 -32 30
-12 35 -12 46 3 7 9 17 17 24 17 6 0 11 5 11 11 0 7 8 17 17 24 15 11 15 16 3
46 -8 19 -22 41 -32 50 -10 9 -18 21 -18 28 0 6 -4 11 -10 11 -5 0 -10 7 -10
15 0 8 -4 15 -10 15 -5 0 -10 7 -10 15 0 8 -4 15 -10 15 -5 0 -10 7 -10 15 0
8 -3 15 -7 15 -12 0 -43 59 -43 80 0 10 5 20 12 22 9 3 9 12 -1 36 -7 18 -17
32 -22 32 -5 0 -9 7 -9 15 0 8 -7 15 -15 15 -8 0 -15 7 -15 15 0 8 -4 15 -10
15 -5 0 -10 5 -10 11 0 12 -25 39 -37 39 -5 0 -15 9 -23 21 -8 11 -23 30 -32
41 -20 24 -23 39 -8 54 12 12 3 44 -11 44 -5 0 -9 5 -9 11 0 11 -25 39 -35 39
-10 0 -35 28 -35 39 0 6 -6 11 -13 11 -7 0 -19 9 -27 20 -8 11 -19 20 -24 20
-19 0 -56 56 -54 80 2 17 -7 35 -29 58 -18 17 -36 32 -40 32 -5 0 -15 9 -23
20 -8 11 -20 20 -27 20 -7 0 -13 7 -13 15 0 8 -6 15 -14 15 -8 0 -21 6 -28 13
-7 8 -23 19 -36 26 -15 8 -22 21 -22 41 0 17 -4 30 -10 30 -5 0 -20 11 -34 25
-14 14 -30 25 -36 25 -5 0 -10 5 -10 10 0 6 -7 10 -15 10 -8 0 -15 5 -15 10 0
6 -7 10 -15 10 -8 0 -15 4 -15 9 0 5 -13 12 -30 16 -16 4 -30 10 -30 14 0 4
-11 14 -25 21 -14 7 -25 21 -25 31 0 11 -13 22 -35 30 -19 7 -35 17 -35 21 0
4 -7 8 -15 8 -8 0 -15 4 -15 9 0 5 -13 12 -30 16 -16 4 -30 10 -30 15 0 5 -13
11 -30 15 -16 4 -30 10 -30 15 0 4 -13 13 -30 19 -40 13 -42 47 -2 36 15 -4
43 -7 62 -6 19 0 58 -6 85 -13 86 -24 123 -28 127 -14 4 10 20 10 84 -1 43 -7
89 -15 100 -18 16 -3 23 1 27 17 5 19 11 21 44 16 21 -3 68 -8 104 -12 64 -6
66 -5 65 18 -1 23 1 23 114 29 63 3 109 6 103 7 -19 3 -16 30 5 40 9 5 59 12
111 16 98 6 115 11 92 26 -8 4 -11 15 -8 23 7 18 54 32 135 43 28 4 52 10 52
14 0 4 -24 10 -52 14 -81 11 -128 25 -135 43 -3 8 0 19 8 23 23 15 6 20 -92
26 -52 4 -102 11 -111 16 -21 10 -24 37 -5 40 6 1 -40 4 -103 7 -113 6 -115 6
-114 29 1 23 -1 24 -65 18 -36 -4 -83 -9 -104 -12 -33 -5 -39 -3 -44 16 -4 16
-11 20 -27 17 -11 -3 -57 -11 -100 -18 -64 -11 -80 -11 -84 -1 -4 14 -41 10
-127 -14 -27 -7 -66 -13 -85 -13 -19 1 -47 -2 -62 -6 -40 -11 -38 23 2 36 17
6 30 15 30 19 0 5 14 11 30 15 17 4 30 10 30 15 0 5 14 11 30 15 17 4 30 11
30 16 0 5 7 9 15 9 8 0 15 4 15 8 0 4 16 14 35 21 22 8 35 19 35 30 0 10 11
24 25 31 14 7 25 17 25 21 0 4 14 10 30 14 17 4 30 11 30 16 0 5 7 9 15 9 8 0
15 5 15 10 0 6 7 10 15 10 8 0 15 5 15 10 0 6 5 10 10 10 6 0 22 11 36 25 14
14 29 25 34 25 6 0 10 13 10 30 0 20 7 33 22 41 13 7 29 18 36 26 7 7 20 13
28 13 8 0 14 7 14 15 0 8 6 15 13 15 7 0 19 9 27 20 8 11 18 20 23 20 4 0 22
15 40 33 22 22 31 40 29 57 -2 24 35 80 54 80 5 0 16 9 24 20 8 11 20 20 27
20 7 0 13 5 13 11 0 11 25 39 35 39 10 0 35 28 35 39 0 6 4 11 9 11 14 0 23
32 11 44 -15 15 -12 30 8 54 9 11 24 30 32 41 8 12 18 21 23 21 12 0 37 27 37
39 0 6 5 11 10 11 6 0 10 7 10 15 0 8 7 15 15 15 8 0 15 7 15 15 0 8 4 15 9
15 5 0 15 14 22 32 10 24 10 33 1 36 -7 2 -12 12 -12 22 0 21 31 80 43 80 4 0
7 7 7 15 0 8 5 15 10 15 6 0 10 7 10 15 0 8 5 15 10 15 6 0 10 7 10 15 0 8 5
15 10 15 6 0 10 5 10 11 0 7 8 19 18 28 10 9 24 31 32 50 12 30 12 35 -3 46
-9 7 -17 17 -17 24 0 6 -5 11 -11 11 -7 0 -17 8 -24 17 -11 15 -16 15 -46 3
-19 -8 -41 -22 -50 -32 -9 -10 -21 -18 -28 -18 -6 0 -11 -4 -11 -10 0 -5 -7
-10 -15 -10 -8 0 -15 -4 -15 -10 0 -5 -7 -10 -15 -10 -8 0 -15 -4 -15 -10 0
-5 -7 -10 -15 -10 -8 0 -15 -3 -15 -7 0 -12 -59 -43 -80 -43 -10 0 -20 5 -22
12 -3 9 -12 9 -36 -1 -18 -7 -32 -17 -32 -22 0 -5 -7 -9 -15 -9 -8 0 -15 -7
-15 -15 0 -8 -7 -15 -15 -15 -8 0 -15 -4 -15 -10 0 -5 -5 -10 -11 -10 -12 0
-39 -25 -39 -37 0 -5 -9 -15 -21 -23 -11 -8 -30 -23 -41 -32 -24 -20 -39 -23
-54 -8 -12 12 -44 3 -44 -11 0 -5 -5 -9 -11 -9 -11 0 -39 -25 -39 -35 0 -10
-28 -35 -39 -35 -6 0 -11 -6 -11 -13 0 -7 -9 -19 -20 -27 -11 -8 -20 -19 -20
-24 0 -19 -56 -56 -80 -54 -17 2 -35 -7 -57 -29 -18 -18 -33 -36 -33 -40 0 -5
-9 -15 -20 -23 -11 -8 -20 -20 -20 -27 0 -7 -7 -13 -15 -13 -8 0 -15 -6 -15
-14 0 -8 -6 -21 -13 -28 -8 -7 -19 -23 -26 -36 -8 -15 -21 -22 -41 -22 -17 0
-30 -4 -30 -10 0 -5 -11 -20 -25 -34 -14 -14 -25 -30 -25 -36 0 -5 -4 -10 -10
-10 -5 0 -10 -7 -10 -15 0 -8 -4 -15 -10 -15 -5 0 -10 -7 -10 -15 0 -8 -4 -15
-9 -15 -5 0 -12 -13 -16 -30 -4 -16 -10 -30 -14 -30 -4 0 -14 -11 -21 -25 -7
-14 -21 -25 -31 -25 -11 0 -22 -13 -30 -35 -7 -19 -17 -35 -21 -35 -4 0 -8 -7
-8 -15 0 -8 -4 -15 -9 -15 -5 0 -12 -13 -16 -30 -4 -16 -10 -30 -15 -30 -5 0
-11 -13 -15 -30 -4 -16 -10 -30 -15 -30 -4 0 -13 -13 -19 -30 -13 -40 -47 -42
-36 -2 4 15 7 43 6 62 0 19 6 58 13 85 24 86 28 123 14 127 -10 4 -10 20 1 84
7 43 15 89 18 100 3 16 -1 23 -17 27 -19 5 -21 11 -16 44 3 21 8 68 12 104 6
64 5 66 -18 65 -23 -1 -23 1 -29 114 -3 63 -6 109 -7 103 -3 -19 -30 -16 -40
5 -5 9 -12 59 -16 111 -6 98 -11 115 -26 92 -4 -8 -15 -11 -23 -8 -18 7 -32
54 -43 135 -4 28 -10 52 -14 52 -4 0 -10 -24 -14 -52z"/>
</g>
</svg>
