<?xml version="1.0" standalone="no"?>
<!DOCTYPE svg PUBLIC "-//W3C//DTD SVG 20010904//EN"
 "http://www.w3.org/TR/2001/REC-SVG-20010904/DTD/svg10.dtd">
<svg version="1.0" xmlns="http://www.w3.org/2000/svg"
 width="512.000000pt" height="512.000000pt" viewBox="0 0 512.000000 512.000000"
 preserveAspectRatio="xMidYMid meet">
<metadata>
Created by potrace 1.13, written by Peter Selinger 2001-2015
</metadata>
<g transform="translate(0.000000,512.000000) scale(0.100000,-0.100000)"
fill="#000000" stroke="none">
<path d="M774 4309 c3 -24 8 -53 10 -64 5 -30 16 -66 32 -103 9 -18 17 -43 20
-55 2 -12 8 -23 14 -25 5 -2 10 -11 10 -21 0 -9 11 -33 25 -53 14 -20 25 -39
25 -42 0 -11 76 -133 97 -156 13 -14 23 -29 23 -35 0 -6 13 -26 28 -45 16 -19
40 -53 54 -75 14 -22 36 -50 47 -62 12 -13 19 -23 16 -23 -2 0 4 -10 14 -22
11 -13 39 -51 63 -85 143 -205 229 -318 305 -403 79 -89 81 -94 33 -104 -14
-3 -34 -7 -45 -9 -11 -3 -61 -22 -110 -42 -50 -20 -105 -42 -122 -48 -18 -7
-33 -16 -33 -20 0 -5 -4 -5 -10 -2 -5 3 -10 1 -10 -4 0 -6 -3 -10 -7 -9 -9 2
-76 -31 -213 -106 -47 -25 -118 -63 -157 -83 -49 -26 -69 -41 -62 -48 10 -10
109 -66 189 -107 25 -13 47 -25 50 -28 10 -11 208 -109 305 -152 55 -24 135
-54 178 -68 42 -13 77 -28 77 -34 0 -6 -21 -33 -45 -59 -25 -26 -57 -65 -72
-85 -16 -20 -40 -50 -55 -67 -16 -16 -28 -36 -28 -42 0 -7 -3 -13 -7 -13 -5 0
-28 -30 -53 -68 -24 -37 -48 -69 -51 -72 -4 -3 -29 -37 -55 -75 -26 -39 -67
-96 -91 -127 -24 -32 -41 -58 -38 -58 4 0 0 -6 -7 -13 -36 -37 -145 -193 -159
-229 -6 -16 -14 -28 -18 -28 -6 0 -38 -58 -42 -78 -1 -4 -8 -11 -14 -17 -7 -5
-21 -32 -31 -60 -10 -27 -26 -65 -36 -84 -10 -20 -18 -43 -18 -53 0 -9 -4 -19
-9 -23 -6 -3 -10 -13 -9 -23 0 -9 -3 -39 -8 -66 l-7 -49 39 7 c21 4 50 9 64
10 43 6 217 79 275 115 22 14 42 26 45 26 7 0 134 78 140 85 3 3 27 21 54 39
28 18 65 44 83 58 18 14 33 22 33 19 0 -4 10 3 23 14 12 12 69 54 126 93 57
40 131 91 165 115 34 24 79 55 101 69 22 14 45 30 50 37 6 6 30 27 55 46 25
19 64 53 88 74 49 46 72 53 72 24 0 -40 95 -280 151 -381 5 -10 23 -42 38 -71
55 -100 95 -171 101 -176 3 -3 11 -17 17 -32 7 -15 24 -46 38 -69 30 -47 28
-48 81 47 16 29 49 87 73 130 61 108 134 243 136 254 1 3 15 35 32 71 17 36
43 106 59 155 16 49 29 91 31 93 1 2 28 -18 60 -45 32 -27 66 -56 77 -64 10
-8 23 -20 30 -26 14 -13 176 -129 236 -169 25 -16 47 -32 50 -35 11 -11 70
-50 76 -50 6 0 85 -59 94 -71 3 -3 21 -14 40 -24 19 -10 49 -30 66 -44 18 -14
50 -37 72 -50 22 -13 53 -35 68 -48 15 -12 31 -23 35 -23 5 0 40 -20 78 -44
38 -25 71 -43 74 -40 2 2 10 -2 17 -11 7 -8 18 -15 24 -15 6 0 33 -11 60 -25
27 -14 57 -25 66 -25 9 0 20 -4 26 -9 5 -5 23 -11 39 -12 17 -2 35 -6 40 -10
6 -4 21 -6 35 -5 21 1 25 6 23 31 -2 47 -14 99 -24 110 -5 5 -9 17 -9 26 0 9
-9 34 -20 56 -10 21 -28 58 -40 83 -11 25 -29 59 -40 75 -36 56 -49 80 -61
108 -6 15 -14 27 -18 27 -4 0 -15 15 -26 33 -10 17 -23 37 -27 42 -16 20 -58
81 -85 125 -15 25 -30 47 -33 50 -12 12 -70 89 -70 95 0 5 -39 64 -50 75 -3 3
-19 25 -35 50 -63 95 -164 233 -200 274 -50 56 -107 127 -104 129 2 2 43 15
91 30 49 16 118 42 155 60 38 17 70 31 73 32 3 0 30 14 60 30 30 16 58 28 63
27 4 -1 7 3 7 8 0 6 4 10 8 10 5 0 50 24 101 53 51 28 116 65 144 81 93 51 93
51 58 75 -16 12 -49 30 -73 41 -24 11 -38 20 -33 20 6 0 -12 11 -40 25 -78 40
-129 69 -137 80 -4 6 -8 7 -8 2 0 -4 -17 3 -37 16 -21 13 -49 28 -63 32 -14 4
-27 10 -30 14 -12 15 -246 107 -293 116 -20 4 -38 12 -40 19 -3 7 14 32 37 57
24 24 60 67 81 94 20 28 41 52 44 55 4 3 28 37 54 75 26 39 61 88 76 110 16
22 59 83 94 135 36 52 75 105 87 118 11 12 18 22 14 22 -3 0 5 15 19 33 14 18
40 55 58 83 18 27 36 51 39 54 4 3 15 21 26 40 10 19 24 42 31 50 7 9 23 36
36 60 13 25 33 61 44 80 11 19 22 44 26 55 3 11 18 49 33 85 15 36 28 76 30
90 2 14 6 43 10 64 l6 39 -43 -6 c-61 -9 -87 -15 -99 -22 -5 -3 -18 -8 -29
-10 -10 -2 -39 -13 -64 -24 -25 -12 -51 -21 -56 -21 -6 0 -11 -4 -11 -8 0 -5
-6 -9 -12 -9 -21 -1 -99 -49 -91 -57 4 -4 1 -4 -8 -1 -8 3 -23 -1 -34 -10 -11
-8 -58 -40 -105 -70 -46 -31 -104 -72 -127 -91 -24 -20 -43 -33 -43 -29 0 3
-28 -15 -62 -42 -35 -26 -92 -67 -127 -90 -36 -24 -67 -46 -70 -50 -5 -7 -52
-40 -147 -104 -13 -9 -37 -27 -52 -40 -15 -13 -44 -36 -64 -52 -21 -15 -59
-47 -85 -72 -26 -24 -53 -45 -59 -45 -6 0 -21 35 -34 78 -14 42 -44 122 -68
177 -43 97 -141 295 -152 305 -3 3 -17 28 -31 55 -15 28 -44 83 -65 123 -45
85 -37 89 -116 -58 -28 -52 -64 -118 -79 -147 -67 -121 -83 -152 -116 -228
-48 -111 -92 -230 -98 -267 -9 -50 -14 -51 -58 -13 -78 67 -222 182 -271 216
-26 19 -61 43 -76 54 -15 11 -66 47 -111 80 -46 32 -87 64 -91 70 -4 5 -8 6
-8 2 0 -4 -12 4 -27 18 -16 15 -41 33 -56 41 -26 14 -36 21 -89 67 -12 9 -26
17 -32 17 -6 0 -22 10 -36 23 -26 24 -142 97 -154 97 -4 0 -24 11 -44 25 -20
14 -44 25 -53 25 -10 0 -19 5 -21 10 -2 6 -13 12 -25 14 -12 3 -37 11 -55 20
-37 16 -73 27 -103 32 -11 2 -40 7 -64 10 l-44 7 7 -44z"/>
</g>
</svg>
