<?xml version="1.0" standalone="no"?>
<!DOCTYPE svg PUBLIC "-//W3C//DTD SVG 20010904//EN"
 "http://www.w3.org/TR/2001/REC-SVG-20010904/DTD/svg10.dtd">
<svg version="1.0" xmlns="http://www.w3.org/2000/svg"
 width="558.000000pt" height="558.000000pt" viewBox="0 0 558.000000 558.000000"
 preserveAspectRatio="xMidYMid meet">
<metadata>
Created by potrace 1.13, written by Peter Selinger 2001-2015
</metadata>
<g transform="translate(0.000000,558.000000) scale(0.100000,-0.100000)"
fill="#000000" stroke="none">
<path d="M2820 2879 l0 -1919 -65 0 -65 0 0 1916 0 1917 -82 -7 c-241 -20
-450 -78 -674 -187 -517 -252 -894 -708 -1055 -1279 -69 -244 -91 -577 -54
-809 3 -13 7 -45 11 -70 21 -151 93 -370 183 -556 126 -260 313 -493 551 -688
242 -198 626 -365 925 -402 28 -3 77 -10 110 -14 89 -13 335 -6 460 13 449 69
826 268 1152 609 358 374 558 907 540 1442 -3 88 -7 169 -10 181 -3 12 -8 45
-12 75 -9 80 -52 249 -92 363 -170 493 -544 912 -1018 1141 -236 114 -429 162
-762 189 l-43 4 0 -1919z"/>
</g>
</svg>
