<?xml version="1.0" standalone="no"?>
<!DOCTYPE svg PUBLIC "-//W3C//DTD SVG 20010904//EN"
 "http://www.w3.org/TR/2001/REC-SVG-20010904/DTD/svg10.dtd">
<svg version="1.0" xmlns="http://www.w3.org/2000/svg"
 width="558.000000pt" height="558.000000pt" viewBox="0 0 558.000000 558.000000"
 preserveAspectRatio="xMidYMid meet">
<metadata>
Created by potrace 1.13, written by Peter Selinger 2001-2015
</metadata>
<g transform="translate(0.000000,558.000000) scale(0.100000,-0.100000)"
fill="#000000" stroke="none">
<path d="M2540 4348 l-1 -733 -217 221 c-119 121 -346 351 -503 511 l-286 292
-186 -187 -186 -187 206 -210 c113 -115 338 -344 500 -507 l295 -298 -711 0
-711 0 0 -265 0 -265 720 -2 719 -3 -509 -520 -510 -520 183 -183 c100 -100
185 -182 188 -182 6 0 302 297 782 785 l226 230 1 -717 0 -718 265 0 265 0 0
717 0 716 131 -134 c306 -312 872 -879 879 -879 12 0 361 361 358 370 -2 6
-655 673 -966 987 l-52 53 725 0 725 0 0 265 0 265 -709 2 -709 3 494 500
c271 275 493 504 494 508 0 5 -82 92 -181 193 l-182 183 -357 -362 c-196 -199
-423 -429 -503 -512 l-147 -150 0 733 0 732 -265 0 -265 0 0 -732z"/>
</g>
</svg>
