<?xml version="1.0" standalone="no"?>
<!DOCTYPE svg PUBLIC "-//W3C//DTD SVG 20010904//EN"
 "http://www.w3.org/TR/2001/REC-SVG-20010904/DTD/svg10.dtd">
<svg version="1.0" xmlns="http://www.w3.org/2000/svg"
 width="512.000000pt" height="512.000000pt" viewBox="0 0 512.000000 512.000000"
 preserveAspectRatio="xMidYMid meet">
<metadata>
Created by potrace 1.13, written by Peter Selinger 2001-2015
</metadata>
<g transform="translate(0.000000,512.000000) scale(0.100000,-0.100000)"
fill="#000000" stroke="none">
<path d="M2474 4557 c-134 -61 -285 -156 -406 -253 l-60 -49 6 -165 c9 -222
34 -395 91 -619 36 -139 142 -403 206 -511 12 -19 31 -53 42 -75 12 -22 32
-54 44 -71 43 -58 14 -79 -30 -21 -74 96 -398 396 -447 415 -8 3 -33 20 -56
39 -23 18 -44 33 -48 33 -5 0 -22 10 -39 23 -18 12 -43 28 -57 36 -74 41 -188
102 -208 111 -12 5 -43 19 -70 30 -26 12 -60 27 -77 35 -16 7 -80 30 -141 51
l-111 38 -54 -34 c-101 -64 -224 -164 -328 -268 l-104 -104 7 -76 c10 -109 40
-247 80 -365 62 -183 52 -171 158 -205 191 -61 302 -86 508 -113 137 -19 470
-16 605 4 103 16 261 47 313 63 36 10 27 -23 -10 -40 -18 -8 -59 -26 -90 -40
-75 -33 -158 -74 -183 -89 -11 -7 -38 -23 -60 -35 -22 -13 -59 -35 -81 -50
-23 -15 -61 -40 -85 -56 -128 -84 -353 -288 -460 -416 -30 -36 -64 -73 -77
-83 -12 -10 -22 -24 -22 -30 0 -7 -25 -43 -54 -81 l-54 -69 24 -86 c34 -124
103 -296 164 -405 l52 -94 112 -22 c115 -23 410 -39 479 -26 28 5 45 21 94 84
32 42 72 99 88 126 17 27 40 65 52 85 21 33 135 261 154 306 4 11 17 40 27 65
72 166 162 561 162 711 0 47 8 69 26 69 10 0 14 -14 14 -53 0 -165 86 -552
162 -727 10 -25 23 -54 27 -65 19 -45 133 -273 154 -306 12 -20 35 -58 52 -85
16 -27 56 -84 88 -126 49 -63 66 -79 94 -84 69 -13 364 3 479 26 l112 22 52
94 c61 109 130 281 164 405 l24 86 -54 69 c-29 38 -54 74 -54 81 0 6 -10 20
-22 30 -13 10 -47 47 -77 83 -107 128 -332 332 -460 416 -24 16 -62 41 -85 56
-22 15 -59 37 -81 50 -22 12 -49 28 -60 35 -25 15 -108 56 -182 89 -32 14 -73
32 -90 40 -38 17 -47 50 -10 40 51 -16 209 -47 312 -63 135 -20 468 -23 605
-4 206 27 317 52 508 113 106 34 96 22 158 205 40 118 70 256 80 365 l7 76
-104 104 c-104 104 -227 204 -328 268 l-54 34 -111 -38 c-101 -35 -145 -52
-231 -91 -17 -8 -41 -19 -55 -24 -22 -10 -131 -68 -210 -112 -14 -8 -39 -24
-57 -36 -17 -13 -34 -23 -39 -23 -4 0 -25 -15 -48 -33 -23 -19 -48 -36 -56
-39 -49 -19 -373 -319 -447 -415 -44 -58 -73 -37 -30 21 12 17 32 49 44 71 11
22 30 56 42 75 64 108 170 372 206 511 57 224 82 397 91 619 l6 165 -60 49
c-113 91 -236 169 -368 234 -112 56 -110 55 -190 19z"/>
</g>
</svg>
