<?xml version="1.0" standalone="no"?>
<!DOCTYPE svg PUBLIC "-//W3C//DTD SVG 20010904//EN"
 "http://www.w3.org/TR/2001/REC-SVG-20010904/DTD/svg10.dtd">
<svg version="1.0" xmlns="http://www.w3.org/2000/svg"
 width="558.000000pt" height="558.000000pt" viewBox="0 0 558.000000 558.000000"
 preserveAspectRatio="xMidYMid meet">
<metadata>
Created by potrace 1.13, written by Peter Selinger 2001-2015
</metadata>
<g transform="translate(0.000000,558.000000) scale(0.100000,-0.100000)"
fill="#000000" stroke="none">
<path d="M1107 4525 c5 -30 2 -36 -20 -46 -22 -10 -32 -8 -67 10 -22 11 -51
21 -64 21 -26 0 -50 -22 -38 -35 4 -4 -2 -3 -13 2 -11 6 -36 8 -55 6 -114 -13
-148 -7 -183 30 -20 21 -26 25 -18 10 9 -18 7 -32 -10 -75 -19 -47 -20 -59 -9
-100 8 -33 8 -52 1 -67 -15 -27 -15 -25 19 -63 42 -46 40 -61 -9 -53 -33 5
-41 3 -50 -12 -10 -20 -9 -23 42 -105 l27 -45 -21 -48 c-19 -43 -20 -55 -10
-97 7 -32 7 -56 1 -74 -9 -22 -6 -31 20 -61 38 -43 35 -59 -13 -55 -27 3 -38
-1 -46 -16 -9 -16 -3 -31 30 -79 l40 -60 -21 -52 c-29 -76 -27 -84 31 -115 63
-32 73 -32 96 0 l20 26 36 -32 c39 -33 39 -33 51 23 8 35 21 34 101 -5 l65
-32 54 18 c54 19 54 18 84 -3 40 -28 66 -27 86 5 l17 25 35 -31 c40 -35 54
-32 54 11 0 45 25 48 91 11 66 -37 84 -39 134 -15 36 17 38 17 75 -5 50 -28
64 -28 87 4 l20 26 36 -32 c39 -33 39 -33 51 23 8 35 38 36 72 2 21 -21 23
-28 14 -45 -12 -23 -49 -41 -65 -32 -5 3 7 -10 27 -29 44 -41 76 -112 81 -177
2 -26 11 -61 20 -78 9 -17 18 -48 21 -70 2 -21 9 -51 15 -65 7 -19 6 -38 -1
-63 -11 -34 -10 -38 20 -69 36 -37 54 -78 42 -97 -5 -7 -6 -29 -3 -48 5 -25 3
-33 -6 -28 -6 4 -8 13 -4 19 5 8 2 8 -9 0 -8 -7 -17 -10 -21 -7 -3 3 -8 -4
-12 -16 -5 -15 3 -38 29 -80 20 -32 36 -62 36 -67 0 -4 16 -28 35 -52 20 -25
34 -49 32 -55 -2 -6 -20 -12 -40 -14 -50 -4 -49 -32 3 -88 34 -37 39 -49 38
-87 0 -24 4 -53 10 -64 13 -24 21 -124 10 -117 -18 11 -6 -43 17 -81 16 -26
24 -55 25 -83 0 -23 8 -59 19 -80 36 -74 55 -150 42 -178 -16 -35 -15 -37 29
-90 39 -48 49 -77 31 -89 -6 -3 -7 -15 -4 -28 3 -12 6 -47 7 -78 1 -30 5 -59
8 -65 3 -5 9 -27 12 -49 4 -21 13 -46 20 -55 44 -50 41 -90 -5 -90 -39 0 -37
-20 7 -65 34 -35 84 -125 84 -151 0 -7 -7 -14 -15 -18 -23 -8 -18 -44 11 -73
19 -19 28 -23 37 -14 19 19 45 12 98 -24 57 -39 68 -41 109 -20 15 8 41 14 57
14 112 -1 153 -6 170 -20 10 -9 28 -22 41 -28 22 -12 23 -11 21 26 -5 74 20
81 99 26 l53 -36 47 16 c26 9 58 18 72 20 22 4 25 9 23 45 -1 35 2 41 23 46
16 4 26 16 29 34 3 15 11 45 17 67 14 50 13 58 -19 106 -14 21 -22 43 -18 48
3 6 24 11 45 11 46 0 52 12 33 65 -12 34 -11 78 3 138 1 4 2 14 3 22 0 9 12
20 25 26 23 11 24 16 24 103 0 50 2 114 5 141 3 28 6 53 6 56 1 3 14 4 29 1
17 -2 33 2 41 12 10 12 8 22 -13 59 -30 51 -32 69 -10 102 10 16 13 32 8 47
-14 41 -13 48 13 65 21 14 24 22 18 50 -4 25 1 46 25 90 16 32 30 63 30 69 0
6 -13 29 -29 51 -48 66 -45 77 17 81 46 3 52 6 52 25 -1 12 -7 33 -15 47 -18
32 -18 70 1 95 13 17 23 47 41 120 3 11 6 52 7 90 1 39 7 89 14 113 7 23 11
46 8 51 -3 5 8 11 24 15 34 6 37 20 15 73 -18 44 -19 72 -1 96 10 12 12 27 7
45 -11 38 -4 50 36 67 l35 15 -26 34 -25 34 29 37 c36 45 38 79 9 133 -26 48
-20 70 20 78 29 6 46 27 35 45 -8 14 1 11 61 -18 l55 -27 54 18 c54 19 54 18
84 -3 40 -28 66 -27 86 5 l17 25 35 -31 c40 -35 54 -32 54 11 0 45 25 48 91
11 66 -37 84 -39 134 -15 36 17 38 17 75 -5 50 -28 64 -28 87 4 l20 26 36 -32
c39 -33 39 -33 51 23 8 35 23 34 98 -4 63 -32 104 -34 142 -6 15 11 15 16 -4
72 -12 33 -24 68 -27 78 -7 23 13 47 37 42 15 -3 19 5 25 56 6 54 5 64 -19 99
-33 50 -33 73 0 99 l25 20 -36 92 c-20 50 -35 99 -33 108 2 9 15 17 30 19 24
3 27 8 33 63 6 54 5 63 -19 98 -34 49 -33 77 4 99 28 17 29 20 14 41 -9 12
-23 45 -32 73 -15 45 -21 53 -51 61 -19 5 -44 15 -55 23 -28 19 -73 18 -85 -3
-6 -10 -11 -13 -11 -8 0 6 -5 3 -10 -5 -5 -8 -10 -10 -10 -4 0 8 -15 10 -42 7
-52 -6 -62 -6 -112 -4 -31 1 -45 8 -75 41 -20 22 -40 40 -44 40 -4 0 -5 -15
-3 -34 4 -30 1 -36 -24 -46 -23 -10 -34 -8 -69 9 -50 26 -76 26 -98 2 -11 -14
-22 -17 -32 -12 -9 5 -25 6 -36 4 -28 -6 -133 -5 -153 2 -10 3 -28 21 -41 40
-31 46 -52 46 -44 0 5 -30 2 -36 -20 -46 -22 -10 -32 -8 -67 10 -49 26 -86 27
-99 4 -6 -10 -11 -13 -11 -8 0 6 -5 3 -10 -5 -5 -8 -10 -10 -10 -4 0 8 -15 10
-42 7 -52 -6 -62 -6 -112 -4 -31 1 -45 8 -75 41 -20 22 -40 40 -44 40 -4 0 -5
-15 -3 -34 4 -30 1 -36 -24 -46 -23 -10 -34 -8 -69 9 -50 26 -76 26 -98 2 -11
-14 -22 -17 -32 -12 -9 5 -25 6 -36 4 -28 -6 -133 -5 -153 2 -10 3 -28 21 -41
40 -31 46 -52 46 -44 0 5 -30 2 -36 -20 -46 -22 -10 -32 -8 -67 10 -49 26 -86
27 -99 4 -6 -10 -11 -13 -11 -8 0 6 -5 3 -10 -5 -5 -8 -10 -10 -10 -4 0 8 -15
10 -42 7 -52 -6 -62 -6 -112 -4 -31 1 -45 8 -75 41 -20 22 -40 40 -44 40 -4 0
-5 -15 -3 -34 4 -30 1 -36 -24 -46 -23 -10 -34 -8 -69 9 -50 26 -76 26 -98 2
-11 -14 -22 -17 -32 -12 -9 5 -25 6 -36 4 -28 -6 -133 -5 -153 2 -10 3 -28 21
-41 40 -31 46 -52 46 -44 0 5 -30 2 -36 -20 -46 -22 -10 -32 -8 -67 10 -49 26
-86 27 -99 4 -6 -10 -11 -13 -11 -8 0 6 -5 3 -10 -5 -5 -8 -10 -10 -10 -4 0 8
-15 10 -42 7 -52 -6 -62 -6 -112 -4 -31 1 -45 8 -75 41 -20 22 -40 40 -44 40
-4 0 -5 -15 -3 -34 4 -30 1 -36 -24 -46 -23 -10 -34 -8 -69 9 -50 26 -76 26
-98 2 -11 -14 -22 -17 -32 -12 -9 5 -25 6 -36 4 -28 -6 -133 -5 -153 2 -10 3
-28 21 -41 40 -31 46 -52 46 -44 0z"/>
</g>
</svg>
