<?xml version="1.0" standalone="no"?>
<!DOCTYPE svg PUBLIC "-//W3C//DTD SVG 20010904//EN"
 "http://www.w3.org/TR/2001/REC-SVG-20010904/DTD/svg10.dtd">
<svg version="1.0" xmlns="http://www.w3.org/2000/svg"
 width="558.000000pt" height="558.000000pt" viewBox="0 0 558.000000 558.000000"
 preserveAspectRatio="xMidYMid meet">
<metadata>
Created by potrace 1.13, written by Peter Selinger 2001-2015
</metadata>
<g transform="translate(0.000000,558.000000) scale(0.100000,-0.100000)"
fill="#000000" stroke="none">
<path d="M2773 4824 c-3 -9 -1 -32 6 -51 16 -42 2 -63 -40 -63 -28 0 -29 -1
-23 -38 4 -29 1 -43 -14 -62 -19 -23 -23 -24 -54 -12 -65 23 -75 9 -33 -48 33
-45 32 -63 -10 -94 -20 -16 -38 -41 -44 -61 -5 -19 -18 -47 -29 -62 -10 -15
-22 -44 -26 -64 -5 -27 -14 -39 -38 -50 -25 -11 -36 -26 -51 -69 -11 -30 -20
-74 -21 -97 0 -24 -3 -43 -6 -44 -39 -5 -58 -13 -75 -29 -20 -20 -20 -20 4
-64 29 -56 22 -71 -26 -51 -65 27 -79 15 -61 -54 14 -57 1 -72 -58 -64 -37 5
-44 3 -44 -12 0 -9 9 -30 21 -46 12 -17 19 -40 17 -56 -3 -27 -5 -28 -54 -25
l-51 2 -7 -87 c-9 -111 -28 -147 -105 -201 -63 -44 -68 -54 -52 -110 9 -29 6
-37 -21 -67 -16 -19 -44 -39 -62 -43 -27 -7 -31 -13 -34 -47 -2 -22 -8 -45
-13 -51 -5 -7 -14 -25 -18 -41 -5 -15 -12 -35 -15 -43 -5 -11 0 -16 13 -17 11
-1 37 -13 58 -27 43 -30 61 -32 89 -11 10 8 26 15 35 15 8 0 25 11 37 24 18
22 25 24 54 15 124 -38 169 -46 186 -33 26 20 53 17 94 -11 42 -28 65 -31 92
-10 11 8 26 15 34 15 8 0 25 12 38 26 13 14 28 23 33 20 4 -3 49 -16 98 -29
77 -19 94 -21 109 -10 26 19 51 16 92 -12 42 -29 60 -31 88 -10 10 8 26 15 35
15 8 0 25 11 37 24 18 22 25 24 54 15 124 -38 169 -46 186 -33 26 20 53 17 94
-11 42 -28 65 -31 92 -10 11 8 26 15 34 15 8 0 25 11 38 25 22 24 23 24 68 9
40 -14 47 -21 58 -56 10 -35 10 -42 -5 -53 -26 -19 -20 -51 13 -75 17 -12 30
-24 30 -28 0 -4 -23 -8 -51 -10 -29 -2 -60 -7 -71 -13 -14 -7 -31 -6 -63 6
-26 11 -81 18 -137 20 -51 2 -106 6 -122 11 -25 6 -28 5 -23 -10 30 -77 13
-90 -54 -40 -48 35 -53 37 -85 25 -26 -9 -43 -10 -68 -1 -54 18 -77 21 -166
25 -47 2 -96 5 -110 7 -26 3 -27 0 -14 -54 9 -37 -5 -35 -57 8 -32 26 -48 34
-63 28 -33 -11 -85 -8 -159 9 -50 12 -74 13 -97 6 -23 -8 -41 -7 -76 5 -26 9
-51 13 -56 10 -10 -6 -7 -34 7 -68 7 -17 6 -17 -16 -6 -13 8 -35 25 -49 39
-29 31 -36 31 -70 9 -26 -18 -52 -14 -167 23 -24 7 -42 7 -67 -2 -29 -10 -43
-10 -83 3 -49 16 -78 9 -55 -14 14 -14 16 -48 2 -48 -5 0 -21 5 -35 12 -22 10
-29 9 -48 -10 -21 -22 -21 -23 -4 -72 10 -28 15 -55 12 -60 -4 -6 -25 -9 -48
-8 -42 3 -42 3 -43 -33 -2 -61 -9 -71 -51 -67 -37 3 -38 1 -36 -27 5 -77 4
-93 -11 -129 -14 -34 -19 -38 -46 -34 -38 6 -44 -3 -41 -62 1 -34 -3 -51 -19
-68 -11 -12 -25 -22 -30 -22 -6 0 -10 -11 -10 -24 0 -12 -11 -38 -25 -57 -13
-19 -32 -44 -41 -57 -9 -12 -19 -42 -22 -67 -2 -25 -8 -45 -13 -45 -16 0 -69
-52 -69 -68 0 -10 9 -28 20 -42 32 -41 25 -46 -36 -23 -22 8 -44 -28 -44 -72
0 -43 0 -44 -37 -47 l-38 -3 0 -50 c0 -57 -7 -73 -41 -85 -18 -7 -24 -17 -24
-40 0 -18 -5 -30 -13 -30 -29 0 -48 -35 -41 -78 5 -29 2 -47 -10 -63 -9 -13
-16 -19 -16 -14 0 6 -10 -5 -21 -23 -24 -37 -66 -62 -104 -62 -31 0 -31 -7 -1
-49 26 -35 25 -44 -7 -99 -18 -30 -18 -32 -1 -32 10 0 33 5 51 12 26 10 40 10
66 0 48 -19 49 -19 52 5 3 34 12 39 48 23 18 -7 59 -14 92 -15 33 -1 73 -7 88
-13 35 -15 133 -16 142 -2 9 15 68 12 91 -5 24 -16 34 -11 34 17 0 27 22 31
66 13 27 -11 53 -14 81 -10 29 4 51 1 72 -9 36 -19 112 -21 158 -4 26 10 40
10 66 0 48 -19 49 -19 52 5 3 34 12 39 48 23 18 -7 59 -14 92 -15 33 -1 73 -7
88 -13 35 -15 133 -16 142 -2 9 15 68 12 91 -5 24 -16 34 -11 34 17 0 27 22
31 66 13 27 -11 53 -14 81 -10 29 4 51 1 72 -9 36 -19 112 -21 158 -4 26 10
40 10 66 0 48 -19 49 -19 52 5 3 34 12 39 48 23 18 -7 59 -14 92 -15 33 -1 73
-7 88 -13 35 -15 133 -16 142 -2 9 15 68 12 91 -5 24 -16 34 -11 34 17 0 27
22 31 66 13 27 -11 53 -14 81 -10 29 4 51 1 72 -9 36 -19 112 -21 158 -4 26
10 40 10 66 0 48 -19 49 -19 52 5 3 34 12 39 48 23 18 -7 59 -14 92 -15 33 -1
73 -7 88 -13 35 -15 133 -16 142 -2 9 15 68 12 91 -5 24 -16 34 -11 34 17 0
27 22 31 66 13 27 -11 53 -14 81 -10 29 4 51 1 72 -9 36 -19 112 -21 158 -4
26 10 40 10 66 0 48 -19 49 -19 52 5 3 34 12 39 48 23 18 -7 64 -14 103 -15
l72 -1 -19 30 c-11 17 -24 49 -30 70 -12 43 -54 116 -68 116 -32 0 -131 137
-131 182 0 37 -74 145 -138 203 -28 25 -54 55 -57 65 -8 25 -47 26 -71 2 -10
-9 -20 -15 -23 -13 -3 2 -15 10 -26 17 -25 18 -55 17 -79 -1 -13 -10 -24 -11
-36 -5 -10 5 -20 6 -24 3 -3 -3 -6 -1 -6 6 0 7 -4 10 -8 7 -5 -3 -21 -7 -36
-10 -14 -3 -41 -16 -57 -31 l-31 -26 -37 22 c-95 58 -86 55 -123 37 -29 -14
-38 -14 -59 -2 -32 18 -64 17 -79 -1 -10 -12 -17 -12 -43 -1 -40 16 -87 5
-121 -29 -28 -28 -33 -27 -110 19 -48 29 -49 29 -81 12 -31 -17 -34 -17 -65
-1 -27 14 -37 15 -56 4 -13 -6 -21 -16 -18 -20 3 -5 -13 -2 -35 6 -50 17 -86
11 -123 -20 -16 -14 -35 -25 -41 -25 -7 0 -34 16 -61 35 -55 39 -71 42 -104
19 -21 -14 -26 -14 -56 0 -42 20 -50 20 -67 0 -9 -11 -22 -14 -43 -9 -17 3
-39 8 -48 10 -9 2 -38 -10 -63 -27 -52 -34 -44 -36 -147 25 l-37 22 -28 -21
c-28 -21 -29 -21 -62 -3 -34 18 -71 12 -71 -11 0 -5 -10 -6 -22 -3 -67 17 -93
14 -131 -11 -21 -14 -44 -26 -51 -26 -7 0 -35 16 -62 35 -56 40 -67 42 -100
16 -23 -18 -25 -18 -61 0 -36 19 -37 19 -58 -1 -31 -29 -36 -25 -29 19 5 33 1
49 -26 95 -32 56 -31 69 1 40 22 -20 49 -24 73 -12 32 17 221 11 256 -7 45
-23 64 -16 70 25 7 47 28 48 80 5 33 -27 49 -35 64 -29 12 4 69 9 128 11 86 4
117 1 152 -12 56 -22 76 -15 76 25 0 46 23 47 75 5 44 -37 46 -37 88 -26 56
16 221 8 269 -12 34 -14 39 -14 53 -1 8 9 15 26 15 39 0 38 15 38 64 0 54 -41
79 -47 121 -29 38 16 209 8 247 -12 32 -16 58 -9 59 17 1 10 2 25 3 31 2 25
34 18 75 -17 49 -40 49 -40 114 -20 59 18 183 11 239 -12 48 -20 68 -12 68 27
0 46 24 48 70 6 42 -38 59 -42 106 -26 16 5 43 11 59 14 17 2 31 5 32 5 1 1
-9 26 -23 56 -13 31 -24 65 -24 76 0 35 -28 77 -75 110 -24 18 -47 40 -50 50
-4 10 -24 42 -46 71 -27 37 -39 62 -39 87 0 25 -10 44 -36 74 -50 55 -87 141
-79 185 5 26 0 45 -24 88 -17 29 -31 60 -31 67 0 18 -37 57 -55 57 -8 0 -12
-9 -10 -26 l2 -25 -24 23 c-36 33 -46 57 -45 103 2 29 -5 50 -27 80 -15 22
-31 57 -35 79 -6 30 -21 52 -67 95 -32 31 -59 64 -59 73 0 9 -17 37 -39 61
-22 26 -43 64 -50 90 -6 25 -20 61 -31 80 -13 22 -22 62 -27 112 -6 74 -8 80
-45 117 -21 21 -42 37 -47 34 -9 -6 -6 -78 4 -97 4 -8 -15 11 -43 40 -49 53
-52 54 -76 41 -20 -10 -36 -11 -70 -3 -34 8 -54 7 -83 -4 -74 -28 -80 -27
-139 13 -65 45 -89 40 -89 -20 0 -47 -20 -47 -61 1 -30 34 -33 36 -49 20 -19
-20 -34 -21 -85 -6 -33 10 -44 9 -82 -10 -24 -11 -51 -21 -58 -21 -21 0 -111
63 -107 75 2 6 25 9 50 7 56 -4 61 9 22 65 -13 20 -23 39 -20 41 2 2 26 -4 54
-14 57 -20 81 -10 81 32 0 32 18 30 55 -6 42 -41 116 -55 146 -29 18 16 35 18
108 16 47 -2 96 -9 108 -15 36 -20 71 -15 79 11 5 12 7 25 6 30 -4 15 17 6 47
-19 17 -14 44 -29 61 -34 25 -7 30 -6 30 8 0 42 -24 92 -70 147 -48 58 -60 87
-40 100 12 7 5 25 -36 96 -25 42 -49 66 -98 98 -59 38 -87 73 -72 88 3 3 19 6
36 5 52 -1 33 42 -39 84 -22 13 -33 28 -38 54 -4 23 -24 54 -61 92 -49 52 -53
59 -39 73 24 24 3 70 -52 111 -46 36 -101 106 -101 130 0 21 -20 27 -27 8z"/>
</g>
</svg>
