<?xml version="1.0" standalone="no"?>
<!DOCTYPE svg PUBLIC "-//W3C//DTD SVG 20010904//EN"
 "http://www.w3.org/TR/2001/REC-SVG-20010904/DTD/svg10.dtd">
<svg version="1.0" xmlns="http://www.w3.org/2000/svg"
 width="558.000000pt" height="558.000000pt" viewBox="0 0 558.000000 558.000000"
 preserveAspectRatio="xMidYMid meet">
<metadata>
Created by potrace 1.13, written by Peter Selinger 2001-2015
</metadata>
<g transform="translate(0.000000,558.000000) scale(0.100000,-0.100000)"
fill="#000000" stroke="none">
<path d="M634 4409 c7 -71 41 -233 54 -254 4 -5 7 -12 7 -15 2 -13 76 -152 96
-181 111 -156 203 -263 369 -430 138 -139 266 -239 375 -291 102 -49 344 -117
505 -143 129 -21 335 -16 473 12 l29 6 -7 -69 c-3 -38 -8 -85 -10 -104 -2 -19
-7 -57 -10 -85 -8 -77 -43 -555 -51 -700 -17 -315 -8 -650 21 -798 40 -197
105 -253 198 -169 68 62 88 72 140 72 64 0 110 -25 188 -102 35 -35 69 -63 74
-63 54 4 75 41 96 170 21 123 18 632 -6 910 -2 28 -7 97 -10 155 -3 58 -8 128
-10 155 -10 117 -24 299 -41 534 l-7 93 54 -7 c30 -4 61 -9 69 -10 92 -16 376
-23 450 -10 125 21 162 30 234 56 44 16 92 29 107 29 42 0 194 47 262 81 258
131 586 439 696 654 75 149 100 248 105 428 5 154 7 151 -73 144 -67 -6 -179
-32 -261 -62 -25 -9 -49 -18 -55 -19 -5 -1 -27 -10 -49 -19 -21 -9 -40 -17
-42 -17 -6 0 -215 -105 -258 -129 -66 -38 -390 -198 -413 -206 -13 -3 -23 -11
-23 -17 0 -6 -3 -9 -6 -5 -3 3 -35 -8 -70 -23 -35 -16 -64 -27 -64 -23 0 3 -6
1 -12 -4 -13 -10 -90 -38 -96 -34 -1 1 -16 -6 -33 -15 -17 -8 -37 -13 -45 -10
-8 3 -13 2 -10 -3 3 -5 -7 -11 -22 -14 -15 -3 -63 -15 -107 -26 -107 -28 -113
-30 -160 -37 -22 -3 -58 -9 -80 -14 -87 -18 -189 -24 -395 -25 -187 0 -373 10
-391 21 -3 1 -28 6 -55 9 -27 4 -57 9 -66 11 -10 3 -30 7 -45 10 -98 17 -388
110 -513 165 -64 28 -383 189 -485 244 -261 142 -462 225 -584 242 l-44 6 7
-74z"/>
</g>
</svg>
