<?xml version="1.0" standalone="no"?>
<!DOCTYPE svg PUBLIC "-//W3C//DTD SVG 20010904//EN"
 "http://www.w3.org/TR/2001/REC-SVG-20010904/DTD/svg10.dtd">
<svg version="1.0" xmlns="http://www.w3.org/2000/svg"
 width="512.000000pt" height="512.000000pt" viewBox="0 0 512.000000 512.000000"
 preserveAspectRatio="xMidYMid meet">
<metadata>
Created by potrace 1.13, written by Peter Selinger 2001-2015
</metadata>
<g transform="translate(0.000000,512.000000) scale(0.100000,-0.100000)"
fill="#000000" stroke="none">
<path d="M2574 4657 c-34 -26 -122 -106 -138 -125 -6 -8 -30 -35 -52 -60 -76
-86 -184 -274 -209 -364 -2 -5 -4 -10 -5 -13 -1 -3 -3 -9 -4 -14 -3 -23 -21
-20 -111 24 -53 25 -131 59 -172 75 -81 31 -315 93 -398 106 -27 4 -57 8 -65
9 -142 21 -289 35 -553 51 l-98 6 5 -75 c3 -41 10 -85 15 -98 9 -21 25 -95 36
-164 2 -11 4 -21 5 -22 2 -2 3 -6 4 -10 1 -5 5 -14 10 -21 4 -7 5 -16 2 -19
-3 -3 1 -15 9 -27 8 -11 15 -26 15 -34 0 -7 10 -34 22 -60 11 -26 21 -53 21
-59 0 -7 4 -13 9 -13 4 0 8 -4 8 -9 0 -14 72 -135 82 -139 4 -2 6 -7 4 -11 -3
-4 13 -27 35 -52 21 -24 39 -48 39 -52 0 -5 5 -5 10 -2 6 3 10 1 10 -5 0 -14
57 -70 64 -62 3 3 6 -1 6 -9 0 -8 9 -20 21 -27 20 -13 23 -47 3 -47 -40 0
-256 -141 -375 -245 -114 -100 -248 -249 -304 -339 -5 -9 -13 -18 -16 -21 -3
-3 -20 -27 -38 -53 l-33 -48 25 -32 c68 -88 264 -266 294 -267 4 0 26 -14 47
-30 21 -16 43 -27 47 -24 5 3 9 1 9 -4 0 -6 23 -18 50 -28 28 -10 50 -22 50
-28 0 -5 2 -7 5 -4 11 10 90 -19 89 -33 0 -8 -18 -50 -41 -94 -22 -44 -52
-111 -67 -150 -15 -38 -31 -79 -36 -90 -9 -19 -65 -242 -75 -295 -19 -110 -34
-222 -40 -300 -2 -30 -6 -80 -9 -110 -5 -61 -18 -264 -18 -295 -1 -57 -2 -57
65 -51 34 3 69 7 77 9 8 2 26 7 40 10 14 4 36 9 50 11 23 4 132 30 170 41 99
28 328 141 338 167 2 4 9 8 16 8 16 0 74 50 155 133 36 37 71 67 77 67 6 0 26
-30 44 -67 92 -188 262 -395 450 -548 103 -84 221 -165 239 -165 18 0 170 140
228 211 21 26 47 57 58 70 10 13 18 26 18 29 -1 3 8 21 20 40 35 58 87 171
100 217 6 24 17 43 24 43 16 0 107 -43 111 -52 2 -5 10 -8 18 -8 7 0 28 -9 46
-20 18 -11 41 -20 51 -20 9 0 17 -5 17 -12 0 -6 3 -9 6 -5 3 3 27 -3 52 -14
41 -18 260 -76 347 -93 124 -24 405 -49 670 -60 72 -3 76 -1 74 58 -1 28 -4
55 -7 60 -3 6 -7 19 -8 30 -4 26 -19 105 -33 169 -6 26 -15 56 -21 67 -6 11
-9 20 -6 20 4 0 -2 18 -46 130 -7 19 -23 53 -35 75 -12 22 -30 56 -40 75 -9
19 -20 37 -24 40 -3 3 -13 19 -22 35 -8 17 -37 53 -65 82 -27 29 -49 53 -48
55 2 2 -6 11 -16 20 -10 10 -18 16 -18 13 0 -8 -47 43 -53 57 -3 10 12 23 51
42 57 28 203 115 212 126 3 4 12 11 21 16 32 18 135 110 212 189 87 88 182
206 245 304 l42 64 -39 46 c-73 87 -215 220 -244 230 -7 2 -14 7 -17 10 -24
31 -229 135 -289 147 -17 4 -31 12 -31 20 0 7 24 64 53 126 30 62 59 129 66
148 7 19 17 44 21 55 8 17 45 159 55 205 30 146 43 218 50 295 9 83 16 166 20
220 3 47 16 258 17 285 2 47 -1 50 -54 49 -29 -1 -71 -5 -93 -11 -70 -17 -129
-29 -152 -30 -13 -1 -23 -5 -23 -9 0 -3 -10 -7 -22 -7 -13 0 -43 -7 -68 -16
-25 -9 -52 -18 -60 -20 -8 -2 -31 -11 -50 -19 -19 -8 -50 -21 -68 -28 -19 -7
-40 -19 -48 -26 -8 -8 -20 -16 -27 -17 -6 -1 -30 -14 -52 -29 -22 -15 -44 -27
-50 -27 -5 0 -29 -18 -52 -40 -24 -21 -43 -37 -43 -35 0 3 -28 -24 -63 -60
-35 -36 -69 -65 -75 -65 -6 0 -23 26 -39 58 -91 188 -295 428 -487 573 -32 24
-67 49 -77 55 -10 6 -27 18 -36 26 -10 8 -34 24 -54 36 l-36 22 -29 -23z"/>
</g>
</svg>
