<?xml version="1.0" standalone="no"?>
<!DOCTYPE svg PUBLIC "-//W3C//DTD SVG 20010904//EN"
 "http://www.w3.org/TR/2001/REC-SVG-20010904/DTD/svg10.dtd">
<svg version="1.0" xmlns="http://www.w3.org/2000/svg"
 width="558.000000pt" height="558.000000pt" viewBox="0 0 558.000000 558.000000"
 preserveAspectRatio="xMidYMid meet">
<metadata>
Created by potrace 1.13, written by Peter Selinger 2001-2015
</metadata>
<g transform="translate(0.000000,558.000000) scale(0.100000,-0.100000)"
fill="#000000" stroke="none">
<path d="M1885 3815 c-528 -393 -961 -718 -963 -724 -3 -9 131 -439 398 -1276
21 -66 64 -201 95 -300 105 -334 186 -590 212 -668 l25 -77 1202 0 1202 0 344
1077 c189 593 356 1115 371 1160 l27 81 -21 20 c-18 16 -1736 1287 -1878 1389
-26 18 -48 33 -50 32 -2 0 -436 -322 -964 -714z"/>
</g>
</svg>
