<?xml version="1.0" standalone="no"?>
<!DOCTYPE svg PUBLIC "-//W3C//DTD SVG 20010904//EN"
 "http://www.w3.org/TR/2001/REC-SVG-20010904/DTD/svg10.dtd">
<svg version="1.0" xmlns="http://www.w3.org/2000/svg"
 width="558.000000pt" height="558.000000pt" viewBox="0 0 558.000000 558.000000"
 preserveAspectRatio="xMidYMid meet">
<metadata>
Created by potrace 1.13, written by Peter Selinger 2001-2015
</metadata>
<g transform="translate(0.000000,558.000000) scale(0.100000,-0.100000)"
fill="#000000" stroke="none">
<path d="M4603 4719 c-6 -6 -27 -13 -47 -15 -20 -1 -48 -12 -61 -23 -23 -17
-29 -18 -73 -6 -96 27 -128 31 -157 22 -20 -7 -43 -6 -72 1 -24 7 -48 12 -53
12 -13 0 -13 -36 0 -60 17 -32 -4 -30 -56 6 -48 34 -51 34 -84 20 -28 -11 -40
-12 -70 -1 -44 16 -108 27 -135 24 -38 -4 -100 -1 -132 6 -34 8 -36 2 -18 -55
10 -32 -10 -30 -54 6 -50 39 -50 39 -85 20 -23 -12 -35 -12 -74 -1 -96 27
-128 31 -157 22 -20 -7 -43 -6 -72 1 -24 7 -48 12 -53 12 -13 0 -13 -36 0 -60
17 -32 -4 -30 -56 6 -48 34 -51 34 -84 20 -28 -11 -40 -12 -70 -1 -44 16 -108
27 -135 24 -38 -4 -100 -1 -132 6 -34 8 -36 2 -18 -55 10 -32 -10 -30 -54 6
-50 39 -50 39 -85 20 -23 -12 -35 -12 -74 -1 -96 27 -128 31 -157 22 -20 -7
-43 -6 -72 1 -24 7 -48 12 -53 12 -13 0 -13 -36 0 -60 17 -32 -4 -30 -56 6
-48 34 -51 34 -84 20 -28 -11 -40 -12 -70 -1 -44 16 -108 27 -135 24 -38 -4
-100 -1 -132 6 -34 8 -36 2 -18 -55 10 -32 -10 -30 -54 6 -50 39 -50 39 -85
20 -23 -12 -35 -12 -74 -1 -96 27 -128 31 -157 22 -20 -7 -43 -6 -72 1 -24 7
-48 12 -53 12 -13 0 -13 -36 0 -60 17 -32 -4 -30 -56 6 -48 34 -51 34 -84 20
-22 -9 -42 -11 -56 -5 -21 7 -22 6 -18 -24 5 -28 1 -34 -25 -49 -37 -20 -38
-36 -9 -88 20 -34 21 -43 11 -71 -10 -27 -9 -37 8 -70 19 -39 19 -39 -1 -59
-11 -11 -31 -20 -45 -20 -23 0 -25 -2 -14 -22 7 -13 27 -40 45 -61 42 -46 45
-83 9 -97 -37 -14 -41 -37 -15 -87 20 -39 22 -49 12 -75 -9 -26 -8 -38 7 -71
22 -48 18 -65 -18 -73 -14 -3 -32 -8 -40 -10 -15 -5 -18 1 47 -84 39 -53 42
-85 7 -94 -35 -9 -42 -47 -16 -89 24 -39 26 -59 10 -85 -9 -14 -7 -27 9 -58
25 -49 16 -71 -33 -80 -32 -6 -34 -8 -23 -28 6 -11 26 -38 44 -59 42 -46 45
-83 9 -97 -37 -14 -41 -37 -15 -87 20 -39 22 -49 12 -75 -9 -26 -8 -38 7 -71
22 -48 18 -65 -18 -73 -14 -3 -32 -8 -40 -10 -15 -5 -18 1 47 -84 39 -53 42
-85 7 -94 -35 -9 -42 -47 -16 -89 24 -39 26 -59 10 -85 -9 -14 -7 -27 9 -59
28 -54 13 -75 -60 -82 -14 -2 6 -36 44 -78 46 -51 51 -89 13 -103 -37 -14 -41
-37 -17 -84 12 -23 22 -49 22 -60 0 -15 4 -17 23 -11 12 5 38 8 59 9 20 1 34
4 31 9 -2 4 1 7 7 7 6 0 9 4 6 8 -10 17 41 34 83 29 48 -5 71 10 71 49 0 22 4
24 53 24 90 -1 116 5 145 33 34 33 40 33 82 2 40 -29 46 -27 32 13 -13 39 0
52 54 52 54 0 74 8 74 29 0 29 19 40 50 28 23 -9 34 -7 64 11 21 12 49 22 65
22 31 0 51 16 51 42 0 28 29 37 66 22 70 -29 127 -9 142 49 8 29 12 32 48 32
21 1 50 4 64 8 14 4 36 9 50 12 49 9 127 41 155 63 33 26 41 27 89 7 50 -21
60 -13 52 46 -9 63 8 71 76 36 56 -29 72 -27 93 14 12 23 29 32 88 50 39 12
86 21 102 21 45 -2 62 6 69 33 5 18 18 27 64 41 31 9 68 16 82 15 91 -7 85 -9
88 31 5 55 21 62 76 33 35 -19 52 -23 65 -15 25 13 32 35 21 65 -9 23 -7 24
23 23 18 -1 43 4 56 11 15 8 40 10 72 6 44 -6 55 -4 87 18 20 14 50 29 65 33
16 3 38 19 49 35 25 33 41 35 91 14 49 -20 57 -19 57 9 0 13 8 34 19 47 18 22
19 23 62 6 70 -27 89 -20 89 32 0 10 9 17 22 18 12 1 35 12 51 23 27 20 30 21
53 5 33 -22 40 -42 20 -64 -13 -14 -15 -30 -10 -79 l7 -62 -32 -11 c-17 -6
-31 -14 -31 -18 0 -15 -78 -31 -122 -25 -46 7 -76 -11 -65 -39 9 -23 -6 -35
-55 -48 -41 -11 -51 -10 -87 6 -46 20 -73 10 -66 -26 8 -39 -4 -49 -60 -48
-29 1 -58 -2 -64 -5 -6 -4 -23 -9 -37 -12 -13 -2 -38 -19 -53 -36 -25 -28 -36
-33 -82 -35 -106 -4 -138 -13 -156 -43 -9 -16 -37 -40 -62 -54 l-46 -25 -53
30 c-28 17 -56 28 -62 24 -5 -3 -7 -25 -3 -50 7 -55 -8 -64 -75 -46 -25 6 -46
10 -47 9 -2 -2 -5 -16 -6 -33 -5 -38 -13 -44 -55 -38 -19 3 -48 0 -66 -5 -18
-6 -45 -13 -60 -16 -16 -4 -28 -11 -28 -16 0 -5 -4 -20 -10 -35 -10 -25 -10
-25 -40 -10 -29 15 -70 13 -70 -4 0 -12 -76 -51 -99 -51 -12 0 -35 7 -50 15
l-29 14 -16 -44 c-19 -49 -40 -61 -80 -45 -40 15 -46 13 -61 -22 -19 -47 -23
-49 -61 -31 -32 16 -35 16 -57 -5 -19 -18 -43 -28 -79 -31 -5 -1 -8 -15 -8
-31 0 -39 -18 -45 -66 -25 -55 23 -81 13 -94 -35 l-11 -39 -54 21 c-45 17 -58
18 -70 8 -8 -7 -15 -18 -15 -25 0 -12 -78 -55 -100 -55 -5 0 -10 -4 -10 -9 0
-15 -40 -26 -100 -28 -30 -1 -76 -5 -102 -8 -44 -7 -46 -8 -39 -33 18 -61 -19
-82 -84 -48 -60 32 -75 26 -75 -31 l0 -44 -57 7 c-85 9 -165 -16 -180 -56 -7
-20 -18 -30 -32 -30 -17 0 -19 -5 -14 -34 5 -30 2 -34 -21 -40 -36 -9 -44 -46
-17 -89 24 -39 26 -59 10 -85 -9 -14 -7 -27 9 -59 28 -54 13 -75 -60 -82 -14
-2 6 -36 44 -78 46 -51 51 -89 13 -103 -37 -14 -41 -37 -15 -87 21 -40 22 -48
11 -79 -10 -29 -10 -38 5 -64 25 -41 41 -44 53 -9 11 31 25 35 75 19 134 -41
136 -41 159 -25 30 21 52 19 97 -11 31 -21 46 -25 67 -18 16 4 41 8 57 9 28 2
46 18 46 43 0 15 29 16 66 2 15 -6 51 -13 80 -16 44 -5 57 -3 83 17 31 23 33
23 76 8 l43 -16 -5 26 c-2 14 -6 27 -9 30 -2 2 1 10 7 17 7 9 26 11 58 7 67
-8 91 7 84 52 -6 38 -1 41 37 20 27 -15 157 -10 175 6 5 5 9 21 10 37 0 23 4
27 25 25 14 -1 56 0 93 3 55 5 75 12 100 33 39 33 52 33 78 1 17 -22 19 -23
17 -5 -2 11 -7 23 -12 26 -17 13 43 41 76 36 38 -5 78 10 72 27 -2 6 0 17 5
25 8 12 16 13 45 4 29 -9 40 -8 66 8 17 11 46 19 65 19 30 0 37 5 53 38 10 20
24 36 31 34 7 -1 32 -8 56 -14 61 -16 95 -3 120 47 19 36 24 39 65 41 61 1
118 12 162 31 20 9 46 13 58 10 15 -4 24 2 36 25 14 27 19 29 52 24 20 -4 51
-8 67 -9 l30 -2 -3 52 c-2 28 1 54 6 57 4 3 22 -2 38 -11 92 -50 82 -49 122
-10 21 21 51 38 71 42 18 3 46 12 62 20 15 8 51 15 78 15 41 0 53 4 63 21 14
23 97 69 124 69 10 0 33 -5 51 -12 42 -15 56 -3 57 49 1 43 20 53 51 28 11 -9
14 -14 8 -10 -22 11 -33 -4 -23 -30 6 -17 6 -34 -2 -51 -10 -20 -8 -36 7 -80
22 -66 18 -77 -48 -112 l-48 -25 -44 32 c-57 41 -66 40 -63 -8 2 -49 -17 -75
-51 -68 -64 13 -65 13 -71 -18 -5 -29 -8 -30 -60 -33 -130 -5 -170 -23 -170
-74 0 -25 -13 -29 -44 -12 -41 20 -52 18 -103 -21 -51 -39 -70 -42 -113 -20
-29 15 -29 15 -51 -25 -26 -46 -46 -55 -82 -39 -35 16 -54 6 -62 -30 -5 -24
-12 -31 -30 -31 -13 0 -27 5 -30 10 -10 16 -38 11 -65 -10 -14 -11 -35 -20
-47 -20 -13 0 -24 -6 -24 -12 -1 -7 -2 -19 -3 -27 -2 -28 -33 -36 -71 -18 -20
9 -42 17 -50 17 -21 0 -45 -29 -45 -55 0 -33 -10 -36 -55 -15 -56 27 -77 25
-96 -9 -12 -20 -32 -34 -68 -46 -28 -9 -54 -21 -57 -26 -11 -19 -48 -26 -81
-17 -22 6 -40 5 -55 -3 -11 -6 -41 -11 -66 -11 -41 1 -44 0 -37 -21 4 -12 7
-31 7 -43 0 -18 5 -21 39 -18 43 3 62 11 54 24 -3 5 2 15 10 24 13 13 20 13
48 1 17 -7 46 -15 62 -18 17 -3 43 -10 59 -16 23 -9 33 -8 52 4 33 21 54 19
98 -11 28 -19 45 -24 64 -19 27 6 65 13 90 14 6 1 12 10 12 21 0 11 7 23 16
27 15 6 27 3 142 -32 47 -14 55 -14 75 0 30 21 52 19 97 -11 31 -21 46 -25 67
-18 16 4 41 8 57 9 28 2 46 18 46 43 0 16 24 15 83 -3 26 -8 47 -12 47 -10 0
2 16 -3 36 -11 32 -13 38 -13 60 0 33 22 54 20 98 -10 28 -19 45 -24 64 -19
27 6 65 13 90 14 6 1 12 10 12 21 0 11 7 23 16 27 15 6 27 3 142 -32 47 -14
55 -14 75 0 30 21 52 19 97 -11 31 -21 46 -25 67 -18 16 4 41 8 57 9 28 2 46
18 46 43 0 14 29 16 63 3 13 -5 37 -11 53 -14 16 -3 36 -8 45 -11 12 -5 18 5
29 46 19 75 15 95 -30 144 -55 60 -53 76 8 72 42 -3 47 -1 50 18 2 12 -6 37
-17 55 -25 40 -28 145 -7 224 16 60 10 80 -39 131 -20 20 -34 44 -33 53 4 16
11 17 57 10 40 -7 49 23 23 76 -25 51 -30 162 -11 212 21 56 14 90 -30 138
-56 61 -54 77 7 73 42 -3 47 -1 50 18 2 12 -6 37 -17 55 -25 40 -28 145 -7
224 16 60 10 80 -39 131 -20 20 -34 44 -33 53 4 16 11 17 57 10 40 -7 49 23
23 76 -25 51 -30 162 -11 212 21 56 14 90 -30 138 -56 61 -54 77 7 73 42 -3
47 -1 50 18 2 12 -6 37 -17 55 -25 40 -28 145 -7 224 16 60 10 80 -39 131 -20
20 -34 44 -33 53 4 16 11 17 57 10 40 -7 49 23 23 76 -25 51 -30 162 -11 212
21 56 14 90 -30 138 -56 61 -54 77 7 73 42 -3 47 -1 50 20 2 12 -6 37 -17 56
-23 37 -29 143 -12 203 7 25 6 33 -6 37 -36 14 -103 -6 -103 -30 0 -43 -64
-56 -137 -28 -50 19 -73 9 -69 -31 5 -42 -7 -49 -49 -26 l-39 20 -18 -29 c-18
-30 -60 -41 -73 -20 -3 6 -20 10 -36 10 -23 0 -34 -7 -50 -35 -12 -19 -25 -35
-30 -35 -4 0 -32 9 -61 21 l-53 21 -40 -44 c-27 -30 -48 -43 -65 -43 -14 1
-36 -6 -49 -14 -17 -11 -53 -15 -125 -16 l-101 0 3 -47 c4 -57 -6 -61 -63 -22
-49 33 -75 28 -98 -18 -17 -35 -19 -36 -45 -22 -15 8 -51 14 -79 14 -46 0 -53
-3 -53 -20 0 -27 -30 -40 -88 -38 -48 2 -88 -15 -77 -32 3 -5 -9 -6 -26 -3
-17 2 -45 -2 -64 -11 -23 -11 -47 -14 -79 -10 -51 7 -67 -8 -47 -45 15 -28 -2
-35 -38 -16 -38 19 -60 19 -83 -1 -17 -16 -60 -18 -178 -11 -20 2 -25 -3 -26
-22 -2 -27 -28 -51 -55 -51 -9 0 -32 -7 -52 -15 -33 -14 -37 -13 -71 10 -51
35 -66 32 -66 -9 0 -42 -21 -61 -57 -52 -70 18 -79 17 -103 -2 l-25 -20 20
-22 20 -23 -22 14 c-13 8 -23 17 -23 21 0 10 -23 3 -59 -19 -23 -15 -43 -20
-66 -16 -18 3 -48 1 -66 -5 -19 -6 -51 -13 -73 -17 -26 -4 -49 -18 -72 -43
l-34 -37 -50 28 c-80 44 -106 35 -88 -32 13 -47 -2 -60 -47 -38 -45 21 -59 21
-127 -1 l-56 -19 -12 56 c-6 31 -16 66 -20 78 -15 36 9 45 112 42 96 -3 118 2
118 25 0 32 61 49 162 47 32 -1 58 2 59 6 1 5 2 20 3 34 5 46 13 50 67 29 43
-17 56 -19 97 -9 52 13 72 31 67 59 -4 19 20 34 37 24 5 -3 41 -6 80 -5 54 1
76 6 96 22 16 12 37 19 54 17 22 -2 32 3 41 22 14 27 31 29 115 15 46 -8 46
-8 42 63 -2 39 13 41 60 7 19 -14 41 -25 49 -25 20 0 101 31 102 39 6 51 21
64 64 56 80 -13 142 -8 171 14 28 21 56 24 80 8 17 -10 24 3 14 29 -11 27 -10
28 68 24 50 -2 53 -1 63 29 12 34 38 41 59 16 19 -22 42 -18 66 12 20 26 23
26 62 15 54 -16 71 -8 78 39 4 22 11 42 15 45 5 3 27 -5 49 -17 35 -20 44 -21
78 -11 21 6 49 23 61 36 l24 25 38 -20 39 -19 14 35 c18 42 41 49 149 49 42 0
78 3 78 8 1 4 2 18 3 31 1 23 13 25 69 11 41 -10 70 20 62 62 -8 46 7 49 54
10 48 -40 60 -40 137 4 34 19 68 30 92 30 31 0 41 5 49 23 10 21 17 24 62 22
28 -1 54 -5 58 -8 8 -9 70 -9 110 -1 58 12 67 114 10 114 -13 0 -28 -5 -34
-11z"/>
</g>
</svg>
