<?xml version="1.0" standalone="no"?>
<!DOCTYPE svg PUBLIC "-//W3C//DTD SVG 20010904//EN"
 "http://www.w3.org/TR/2001/REC-SVG-20010904/DTD/svg10.dtd">
<svg version="1.0" xmlns="http://www.w3.org/2000/svg"
 width="558.000000pt" height="558.000000pt" viewBox="0 0 558.000000 558.000000"
 preserveAspectRatio="xMidYMid meet">
<metadata>
Created by potrace 1.13, written by Peter Selinger 2001-2015
</metadata>
<g transform="translate(0.000000,558.000000) scale(0.100000,-0.100000)"
fill="#000000" stroke="none">
<path d="M2635 5019 c-27 -5 -72 -11 -100 -14 -79 -9 -102 -14 -251 -56 -306
-86 -581 -227 -822 -424 -33 -27 -61 -53 -61 -57 -1 -5 344 -9 767 -10 l767
-3 -100 -33 c-55 -19 -107 -35 -115 -37 -8 -2 -54 -13 -102 -24 -47 -11 -99
-23 -115 -26 -15 -2 -38 -7 -49 -9 -29 -6 -78 -14 -139 -22 -27 -3 -58 -8 -67
-9 -9 -2 -48 -7 -85 -10 -37 -4 -78 -8 -91 -10 -20 -3 -139 -11 -302 -20 -30
-2 -173 -4 -317 -4 l-262 -1 -74 -98 c-101 -133 -206 -320 -273 -487 -61 -152
-128 -387 -139 -486 -4 -35 -9 -73 -12 -84 -3 -11 -8 -107 -10 -213 -6 -240
12 -402 69 -617 157 -592 541 -1086 1071 -1379 143 -79 467 -197 609 -221 446
-77 857 -33 1248 132 136 57 354 180 465 263 65 48 318 290 311 298 -3 2 -168
5 -368 7 -200 1 -374 5 -388 8 -14 3 -59 8 -100 12 -41 3 -104 11 -140 16 -36
6 -78 13 -95 16 -100 15 -360 86 -369 101 -2 4 64 7 147 8 1061 5 1444 8 1454
11 22 8 134 193 195 321 64 135 146 362 172 477 43 191 66 539 45 690 -4 33
-11 83 -14 110 -24 200 -121 509 -227 719 -43 85 -188 306 -257 390 -114 139
-293 301 -450 405 -186 124 -228 146 -386 211 -279 113 -576 172 -850 169 -77
-1 -162 -6 -190 -10z"/>
</g>
</svg>
