<?xml version="1.0" standalone="no"?>
<!DOCTYPE svg PUBLIC "-//W3C//DTD SVG 20010904//EN"
 "http://www.w3.org/TR/2001/REC-SVG-20010904/DTD/svg10.dtd">
<svg version="1.0" xmlns="http://www.w3.org/2000/svg"
 width="512.000000pt" height="512.000000pt" viewBox="0 0 512.000000 512.000000"
 preserveAspectRatio="xMidYMid meet">
<metadata>
Created by potrace 1.13, written by Peter Selinger 2001-2015
</metadata>
<g transform="translate(0.000000,512.000000) scale(0.100000,-0.100000)"
fill="#000000" stroke="none">
<path d="M2465 4580 c-3 -5 -3 -14 0 -20 3 -5 8 -23 10 -40 4 -37 -29 -64 -68
-55 -35 9 -41 -8 -18 -53 18 -35 18 -41 5 -67 -17 -33 -53 -67 -64 -60 -5 3
-19 -6 -31 -20 -21 -21 -24 -34 -24 -100 0 -59 -4 -79 -16 -88 -9 -7 -25 -33
-37 -59 -11 -27 -26 -48 -31 -48 -16 0 -13 -63 4 -96 27 -51 21 -64 -30 -64
-58 0 -65 -16 -32 -72 21 -36 24 -55 23 -118 -1 -74 -1 -75 -28 -78 -16 -2
-28 -9 -28 -17 0 -23 39 -106 65 -137 25 -30 33 -67 15 -69 -5 -1 -19 -2 -30
-3 -43 -3 -45 -22 -7 -78 21 -29 37 -63 37 -74 0 -12 9 -43 21 -69 18 -41 19
-49 7 -62 -12 -12 -18 -7 -42 36 -31 58 -71 93 -100 89 -22 -3 -35 -36 -18
-47 17 -11 25 -51 9 -51 -21 0 -47 34 -47 61 0 33 -53 84 -108 103 -24 9 -55
25 -69 36 -23 18 -27 18 -55 4 -28 -14 -32 -14 -78 10 -26 14 -69 28 -95 31
-26 3 -51 7 -55 10 -6 3 -92 6 -163 4 -9 0 -34 14 -54 30 -21 17 -43 31 -50
31 -10 0 -40 -40 -35 -47 1 -2 2 -10 2 -18 0 -19 -23 -19 -59 -1 -39 21 -208
8 -222 -16 -7 -13 -22 -16 -72 -14 -49 2 -68 -1 -89 -17 -19 -14 -37 -18 -60
-15 -51 8 -59 2 -52 -43 6 -36 5 -39 -17 -39 -13 1 -35 7 -49 15 -67 38 -52 4
39 -89 133 -136 152 -162 155 -201 4 -44 35 -89 64 -93 12 -2 57 -42 101 -88
90 -96 114 -104 142 -47 20 40 27 34 35 -28 4 -27 12 -54 20 -60 20 -16 57 -7
70 19 10 20 13 21 24 7 7 -8 18 -15 25 -15 8 0 15 -4 17 -8 2 -4 25 -25 52
-45 36 -28 58 -37 81 -35 18 1 56 -10 86 -24 30 -15 76 -36 103 -46 45 -18 51
-18 76 -4 31 18 51 12 101 -28 22 -18 33 -20 92 -14 62 6 67 9 76 37 9 24 15
28 33 23 13 -3 29 -6 36 -6 6 0 12 -5 12 -11 0 -5 -4 -7 -10 -4 -5 3 -10 -3
-10 -14 0 -28 -25 -50 -74 -62 -47 -12 -77 -35 -120 -92 -15 -21 -43 -45 -61
-54 -19 -9 -43 -35 -61 -64 -15 -27 -34 -49 -42 -49 -7 0 -11 -4 -8 -9 11 -16
-5 -39 -44 -65 -28 -18 -42 -37 -54 -73 -9 -27 -25 -56 -36 -66 -13 -11 -20
-29 -20 -51 0 -47 -9 -66 -30 -66 -22 0 -35 -16 -45 -55 -5 -16 -10 -37 -12
-45 -4 -15 -4 -36 0 -100 2 -34 1 -35 -40 -38 -52 -4 -56 -22 -18 -82 24 -39
25 -41 9 -80 -9 -22 -14 -46 -11 -54 7 -19 -12 -36 -41 -36 -22 0 -24 -3 -17
-32 4 -18 7 -40 7 -48 0 -8 7 -39 15 -68 15 -48 14 -54 -1 -70 -9 -10 -16 -28
-16 -39 0 -23 39 -77 40 -54 0 15 35 11 86 -9 42 -18 80 -6 99 29 15 30 72 58
107 52 30 -4 115 41 133 71 9 15 20 28 26 28 18 0 24 2 61 21 20 10 39 23 43
29 3 5 15 10 25 10 10 0 33 14 49 32 29 31 32 32 71 22 22 -6 40 -9 40 -7 0 2
-10 17 -22 34 l-22 29 22 23 c18 18 32 22 73 20 l51 -2 -7 49 c-6 44 -5 50 18
65 23 15 28 15 55 1 35 -18 47 -11 27 18 -8 11 -15 29 -15 40 0 24 45 66 70
66 11 0 17 8 17 23 -1 12 6 36 15 52 9 17 21 49 27 73 12 44 45 87 60 78 5 -3
11 18 15 47 12 88 13 94 19 104 3 5 7 26 9 46 1 21 6 37 11 37 15 0 39 -29 32
-40 -3 -5 -2 -10 3 -10 5 0 7 -12 4 -26 -3 -19 3 -34 26 -57 16 -18 35 -50 42
-72 7 -22 26 -58 41 -80 16 -22 33 -62 39 -89 6 -29 19 -56 30 -63 11 -8 20
-26 20 -40 0 -57 66 -153 85 -123 8 13 55 -9 55 -26 0 -7 5 -14 11 -16 6 -2
19 -28 29 -58 11 -30 19 -50 20 -43 0 6 8 10 18 8 9 -2 29 -6 44 -10 20 -4 41
-25 78 -79 27 -41 55 -78 61 -82 7 -4 33 -7 57 -6 31 0 62 -8 96 -26 28 -15
60 -27 71 -27 11 0 35 -7 54 -15 31 -12 32 -14 13 -21 -32 -12 -44 -42 -26
-67 12 -18 25 -22 69 -22 46 0 56 4 74 27 l22 28 22 -29 c12 -16 32 -41 45
-55 l22 -26 25 30 c14 17 30 29 36 27 6 -1 7 3 3 10 -8 12 -14 98 -17 211 -1
49 3 60 21 73 29 20 28 33 -8 123 -16 42 -36 102 -45 134 -10 37 -25 66 -42
80 -50 41 -83 81 -83 101 0 18 17 19 79 4 26 -6 23 30 -6 62 -17 19 -40 33
-57 34 -34 4 -66 38 -66 70 0 11 -16 38 -36 60 -23 26 -33 44 -28 55 15 37 15
50 -2 75 -9 15 -37 38 -61 53 -24 14 -59 45 -78 70 -18 24 -62 67 -97 95 -35
28 -62 54 -61 58 3 9 -37 51 -88 93 -29 24 -30 26 -9 19 99 -36 122 -39 140
-17 17 21 36 19 79 -7 19 -12 43 -24 52 -25 21 -3 59 29 59 51 0 10 4 15 8 12
5 -3 23 4 41 15 29 18 38 18 91 7 52 -10 63 -10 99 7 23 10 41 22 41 27 0 4 6
8 13 8 7 0 22 8 33 18 50 47 63 51 101 35 45 -18 67 -11 59 21 -12 49 25 82
73 64 34 -12 63 -1 60 25 -3 41 1 46 39 49 39 3 37 -2 41 82 1 17 7 18 53 12
59 -8 68 -1 68 57 l0 38 48 -3 c28 -2 46 1 45 7 -1 6 -4 22 -8 35 -8 32 12 58
47 64 38 6 48 14 48 37 0 11 10 39 22 62 12 23 21 46 20 50 -1 5 2 6 7 3 5 -3
14 0 20 8 16 20 -171 115 -197 100 -21 -14 -52 -9 -110 16 -25 11 -57 19 -71
19 -14 -1 -37 3 -51 8 -14 6 -63 9 -110 8 -80 -3 -86 -2 -127 27 -49 36 -70
32 -75 -14 -3 -30 -6 -33 -33 -30 -75 8 -172 8 -194 0 -14 -5 -31 -18 -39 -30
-13 -18 -22 -20 -96 -16 -69 4 -85 2 -108 -15 -17 -13 -37 -18 -56 -15 -29 4
-30 3 -20 -21 13 -34 2 -71 -21 -71 -10 0 -39 9 -65 21 -25 11 -51 17 -56 14
-6 -3 -10 -28 -10 -55 0 -53 -10 -63 -50 -48 -13 5 -34 7 -45 4 -18 -5 -20
-11 -17 -43 5 -48 -9 -35 -33 28 -13 37 -14 51 -6 68 7 12 15 21 19 21 5 0 18
9 30 20 23 21 22 42 -3 92 -20 41 -19 55 3 63 31 9 42 46 26 90 -13 38 -12 41
13 67 l27 28 -32 33 c-38 39 -39 49 -9 62 17 8 21 17 19 44 -4 46 -62 166 -75
156 -4 -3 -4 -2 -1 2 3 5 11 8 17 8 6 0 18 12 26 26 14 25 13 29 -17 75 -25
37 -31 54 -26 79 5 26 -1 39 -30 74 -41 48 -39 44 -26 90 8 30 5 43 -26 105
-39 75 -80 131 -98 132 -21 1 -56 15 -54 22 1 4 -2 15 -7 25 -4 9 -5 26 -2 37
3 11 1 20 -4 20 -5 0 -9 8 -9 18 0 10 -11 29 -25 42 -14 13 -25 19 -25 13 0
-21 -32 -22 -70 -3 -45 23 -47 23 -55 10z"/>
</g>
</svg>
