<?xml version="1.0" standalone="no"?>
<!DOCTYPE svg PUBLIC "-//W3C//DTD SVG 20010904//EN"
 "http://www.w3.org/TR/2001/REC-SVG-20010904/DTD/svg10.dtd">
<svg version="1.0" xmlns="http://www.w3.org/2000/svg"
 width="512.000000pt" height="512.000000pt" viewBox="0 0 512.000000 512.000000"
 preserveAspectRatio="xMidYMid meet">
<metadata>
Created by potrace 1.13, written by Peter Selinger 2001-2015
</metadata>
<g transform="translate(0.000000,512.000000) scale(0.100000,-0.100000)"
fill="#000000" stroke="none">
<path d="M1732 4952 c-6 -37 -16 -133 -22 -212 -17 -243 -20 -260 -78 -377
-34 -71 -35 -75 -29 -160 4 -54 23 -146 48 -238 49 -180 57 -225 38 -225 -13
0 -66 33 -189 117 -153 106 -284 157 -365 142 -22 -4 -75 -8 -117 -8 -74 -1
-102 4 -333 63 -98 25 -215 43 -215 34 0 -16 23 -68 30 -68 5 0 21 -22 36 -50
15 -27 31 -50 35 -50 4 0 10 -8 14 -19 3 -10 16 -30 28 -45 12 -14 36 -42 52
-61 17 -20 39 -47 50 -60 11 -13 31 -38 45 -55 14 -18 30 -37 36 -44 23 -24
101 -122 105 -132 2 -5 34 -55 71 -110 70 -104 151 -187 248 -254 19 -13 37
-27 40 -30 3 -4 28 -20 55 -35 28 -16 52 -32 55 -36 5 -6 206 -120 263 -148
15 -8 27 -21 27 -29 0 -12 -10 -14 -52 -8 -244 30 -357 37 -508 33 -175 -4
-187 -7 -390 -86 -30 -12 -122 -40 -205 -62 -243 -65 -258 -69 -310 -84 -100
-27 -185 -65 -147 -65 19 0 14 -20 -9 -39 l-22 -17 34 -16 c19 -9 59 -28 90
-42 31 -14 61 -26 68 -26 6 0 19 -4 29 -9 28 -15 90 -41 97 -41 4 0 35 -13 70
-29 39 -18 90 -55 132 -95 106 -99 173 -121 418 -131 166 -7 215 -14 215 -27
0 -13 -68 -74 -169 -151 -173 -132 -232 -210 -254 -337 -19 -108 -48 -171
-147 -315 -48 -71 -140 -239 -140 -256 0 -4 42 4 93 18 135 36 147 39 204 62
132 52 160 63 184 71 14 4 34 12 45 18 41 22 164 63 264 88 144 36 292 110
374 186 11 10 23 18 26 18 4 0 23 15 43 32 19 18 56 51 82 73 26 22 82 73 124
112 42 40 82 73 89 73 16 0 15 -25 -2 -58 -7 -15 -22 -45 -32 -67 -9 -22 -28
-60 -40 -85 -12 -25 -29 -63 -37 -85 -118 -315 -120 -329 -122 -640 0 -143 -4
-348 -8 -455 -5 -107 -5 -222 0 -255 l8 -59 65 66 c63 64 85 89 187 213 85
103 128 142 201 179 38 21 79 46 90 56 24 22 82 105 82 116 0 4 6 15 13 23 8
9 32 66 55 126 98 262 105 273 134 188 37 -110 112 -299 125 -314 7 -8 13 -19
13 -23 0 -11 58 -94 82 -116 11 -10 52 -35 90 -56 73 -37 116 -76 201 -179
102 -124 124 -149 187 -213 l65 -66 8 59 c5 33 5 148 0 255 -4 107 -8 312 -8
455 -2 311 -4 325 -122 640 -8 22 -25 60 -37 85 -12 25 -31 63 -40 85 -10 22
-25 52 -32 67 -17 33 -18 58 -1 58 6 0 46 -33 88 -73 42 -39 98 -90 124 -112
26 -22 63 -55 82 -73 20 -17 39 -32 43 -32 3 0 15 -8 26 -18 82 -76 230 -150
374 -186 100 -25 223 -66 264 -88 11 -6 31 -14 45 -18 24 -8 52 -19 184 -71
57 -23 69 -26 205 -62 50 -14 92 -22 92 -18 0 17 -92 185 -140 256 -99 144
-128 207 -147 315 -22 127 -81 205 -254 337 -101 77 -169 138 -169 151 0 13
49 20 215 27 245 10 312 32 418 131 42 40 93 77 132 95 35 16 66 29 70 29 7 0
69 26 97 41 10 5 23 9 29 9 7 0 41 13 76 30 34 17 67 30 72 30 5 0 14 7 21 15
9 10 9 15 1 15 -17 0 -13 27 6 34 15 6 14 8 -4 21 -24 17 -89 41 -163 62 -130
35 -163 44 -305 82 -82 22 -175 50 -205 62 -203 79 -215 82 -390 86 -151 4
-264 -3 -507 -33 -43 -6 -53 -4 -53 8 0 8 12 21 28 29 56 28 257 142 262 148
3 4 28 20 55 36 28 15 52 31 55 35 3 3 21 17 40 30 97 67 178 150 248 254 37
55 69 105 71 110 4 10 82 108 105 132 6 7 22 26 36 44 14 17 34 42 45 55 11
13 34 40 50 60 17 19 40 47 52 61 12 15 25 35 28 45 4 11 10 19 14 19 4 0 20
23 35 50 15 28 31 50 36 50 7 0 30 52 30 68 0 9 -117 -9 -215 -34 -231 -59
-259 -64 -333 -63 -42 0 -95 4 -117 8 -81 15 -212 -36 -365 -142 -123 -84
-176 -117 -189 -117 -19 0 -11 45 38 225 25 92 44 184 48 238 6 85 5 89 -29
160 -58 117 -61 134 -78 377 -14 187 -29 280 -46 280 -8 0 -14 -4 -14 -8 0 -5
-12 -22 -27 -39 -51 -57 -75 -88 -85 -110 -6 -13 -14 -23 -18 -23 -4 0 -13
-13 -20 -30 -7 -16 -16 -30 -21 -30 -5 0 -18 -19 -30 -42 -12 -24 -25 -45 -29
-48 -4 -3 -25 -36 -47 -75 -41 -69 -169 -251 -204 -290 -47 -50 -66 -79 -98
-142 -18 -37 -38 -78 -42 -90 -5 -13 -13 -33 -19 -45 -9 -22 -27 -86 -56 -198
-7 -30 -25 -111 -40 -180 -14 -69 -28 -133 -30 -142 -8 -27 -34 -22 -34 5 0
54 -92 449 -120 515 -6 12 -14 32 -19 45 -4 12 -24 53 -42 90 -32 63 -51 92
-98 142 -35 39 -163 221 -204 290 -22 39 -43 72 -47 75 -4 3 -17 24 -29 48
-12 23 -25 42 -30 42 -5 0 -14 14 -21 30 -7 17 -16 30 -20 30 -4 0 -12 10 -18
23 -10 22 -34 53 -84 110 -16 17 -28 34 -28 39 0 4 -6 8 -14 8 -8 0 -17 -23
-24 -68z"/>
<path d="M5105 2560 c-3 -5 -1 -10 4 -10 6 0 11 5 11 10 0 6 -2 10 -4 10 -3 0
-8 -4 -11 -10z"/>
</g>
</svg>
