<?xml version="1.0" standalone="no"?>
<!DOCTYPE svg PUBLIC "-//W3C//DTD SVG 20010904//EN"
 "http://www.w3.org/TR/2001/REC-SVG-20010904/DTD/svg10.dtd">
<svg version="1.0" xmlns="http://www.w3.org/2000/svg"
 width="512.000000pt" height="512.000000pt" viewBox="0 0 512.000000 512.000000"
 preserveAspectRatio="xMidYMid meet">
<metadata>
Created by potrace 1.13, written by Peter Selinger 2001-2015
</metadata>
<g transform="translate(0.000000,512.000000) scale(0.100000,-0.100000)"
fill="#000000" stroke="none">
<path d="M3597 4492 c-33 -22 -42 -24 -73 -14 -23 7 -46 7 -69 1 -28 -8 -44
-6 -85 12 -54 23 -82 16 -75 -21 3 -16 0 -17 -28 -9 -45 13 -54 12 -76 -10
-11 -11 -38 -25 -59 -31 -29 -7 -44 -18 -55 -42 -11 -23 -32 -40 -69 -58 -49
-23 -53 -28 -56 -63 -2 -26 -10 -40 -25 -48 -11 -7 -35 -27 -52 -45 -18 -18
-44 -38 -59 -44 -15 -6 -30 -19 -33 -30 -3 -11 -9 -20 -14 -20 -5 0 -9 -6 -9
-12 0 -19 -57 -48 -91 -48 -45 0 -87 -26 -108 -68 -10 -20 -19 -41 -19 -47 1
-5 -6 -13 -13 -18 -10 -6 -33 4 -74 31 -33 22 -72 43 -87 47 -29 7 -67 39 -69
58 -5 48 -18 66 -55 73 -45 8 -69 31 -93 87 -24 55 -121 157 -173 181 -20 9
-39 20 -42 25 -6 10 -33 8 -59 -4 -11 -4 -27 -3 -40 4 -12 7 -38 21 -57 31
-32 18 -36 18 -59 3 -21 -14 -31 -14 -75 -3 -28 7 -75 25 -103 41 -29 16 -64
29 -78 29 -14 0 -40 7 -57 16 -36 19 -78 11 -78 -14 1 -9 7 -28 15 -42 8 -14
14 -36 15 -49 0 -21 -3 -23 -32 -16 -64 14 -73 12 -71 -15 2 -14 4 -54 6 -90
3 -36 14 -99 26 -140 17 -57 20 -79 12 -92 -18 -29 -13 -49 24 -94 42 -51 45
-81 9 -95 -26 -9 -26 -10 -9 -29 17 -19 17 -21 -9 -41 -23 -18 -26 -26 -20
-53 12 -60 11 -170 -3 -193 -12 -20 -10 -27 11 -60 14 -21 34 -49 45 -63 11
-14 21 -32 21 -41 0 -23 53 -123 80 -151 11 -13 27 -36 35 -52 15 -29 15 -29
-5 -11 -18 16 -20 16 -46 -4 -22 -17 -36 -21 -73 -16 -33 4 -62 -1 -103 -16
l-58 -21 -54 37 c-71 49 -92 45 -89 -18 3 -44 1 -47 -20 -44 -12 1 -33 10 -47
20 -21 13 -33 15 -63 6 -32 -9 -37 -14 -37 -40 0 -30 -3 -33 -52 -43 -34 -8
-66 -53 -81 -114 l-12 -47 -43 3 c-47 4 -82 -17 -82 -48 0 -27 -20 -38 -85
-45 -80 -9 -95 -14 -95 -30 0 -24 -44 -66 -73 -69 -15 -2 -36 -11 -46 -20 -9
-9 -24 -16 -33 -16 -8 0 -27 -22 -41 -50 -14 -27 -22 -50 -18 -50 5 0 19 -10
32 -23 77 -75 122 -110 144 -112 13 -2 70 -26 126 -54 56 -28 108 -51 116 -51
23 0 93 -71 93 -94 0 -38 -19 -47 -50 -24 -16 11 -33 19 -38 17 -18 -7 25 -49
52 -51 14 -1 26 -6 26 -10 0 -4 7 -8 15 -8 8 0 15 -4 15 -8 0 -4 17 -14 38
-21 79 -27 91 -34 102 -62 20 -48 100 -86 100 -48 0 6 -4 8 -9 5 -9 -6 -21 16
-21 40 0 19 25 18 46 -3 13 -13 36 -19 83 -20 171 -6 269 -20 321 -47 19 -10
36 -20 38 -21 6 -5 -11 -35 -17 -30 -4 2 -13 -19 -20 -48 -8 -29 -20 -67 -27
-86 -12 -28 -17 -32 -39 -27 -14 4 -25 3 -26 -1 -7 -65 -6 -115 3 -143 16 -49
18 -59 7 -66 -17 -10 -9 -46 22 -89 29 -40 30 -46 19 -79 -6 -20 -9 -40 -5
-46 9 -14 -19 -40 -43 -40 -24 0 -34 -23 -23 -53 4 -12 11 -51 14 -87 5 -49 3
-70 -8 -84 -21 -28 -19 -50 10 -92 32 -47 28 -60 -19 -57 -30 2 -36 -1 -36
-17 0 -11 4 -20 8 -20 16 0 33 -52 27 -84 -5 -26 0 -37 33 -70 32 -33 46 -40
86 -42 28 -2 65 -14 92 -30 42 -25 47 -26 62 -11 9 9 16 31 16 48 1 31 2 32
53 36 38 3 62 -1 90 -15 59 -30 125 -34 165 -9 18 12 38 22 43 22 6 1 16 3 23
3 9 2 11 12 6 39 l-7 36 57 -7 56 -6 0 29 c0 43 31 76 72 76 33 0 33 0 34 47
0 26 2 49 5 51 2 1 30 21 62 42 33 22 65 52 73 67 8 16 18 29 22 29 4 1 20 3
36 5 16 1 38 14 49 28 15 19 24 23 37 16 14 -8 23 -1 46 35 31 50 40 54 49 25
11 -36 93 -98 138 -105 41 -6 64 -13 127 -36 29 -11 46 -39 41 -71 -1 -9 24
-39 58 -69 45 -39 63 -62 67 -87 7 -37 29 -54 124 -98 30 -14 73 -34 95 -44
58 -27 147 -35 182 -17 31 16 49 11 88 -24 11 -10 42 -23 68 -29 27 -6 58 -17
70 -25 25 -16 42 -9 42 20 0 19 29 38 107 69 49 19 56 48 29 122 -20 53 -21
58 -6 81 15 22 15 29 2 61 -15 39 -13 62 6 62 47 1 42 39 -9 69 -42 25 -46 62
-9 79 33 15 33 50 0 129 -19 49 -24 77 -23 139 1 73 3 78 30 93 28 16 37 31
17 31 -5 0 -8 4 -4 9 3 5 -7 19 -21 30 -20 16 -25 26 -20 46 4 14 11 25 18 25
6 0 -7 13 -28 28 -47 34 -62 52 -67 78 -6 31 -25 72 -47 102 -12 16 -23 42
-25 60 -4 30 -3 31 33 32 20 0 71 2 112 4 55 2 90 -2 133 -17 64 -22 87 -15
68 21 -15 28 -3 34 29 15 26 -15 30 -15 68 5 30 15 52 20 84 16 32 -3 54 1 88
18 39 20 48 31 65 80 24 66 62 104 123 120 32 8 47 18 55 37 14 34 46 60 73
61 12 0 33 11 48 25 15 14 37 25 48 25 12 0 33 11 48 25 15 15 39 25 61 26 34
3 36 5 35 33 -1 28 2 31 34 34 52 4 80 11 80 22 0 5 -18 30 -40 55 -22 25 -40
52 -40 59 0 21 -35 46 -65 46 -21 0 -43 15 -86 59 -33 33 -59 64 -59 71 0 6
-4 8 -10 5 -5 -3 -10 -14 -10 -25 0 -10 -6 -20 -12 -23 -25 -9 -57 13 -96 65
-23 31 -60 65 -91 83 -53 31 -73 64 -52 89 8 10 6 20 -11 41 -31 39 -73 55
-114 42 -31 -9 -38 -7 -77 21 -77 58 -89 63 -126 45 -30 -15 -35 -15 -67 1
-34 16 -36 16 -62 -4 -25 -20 -27 -20 -39 -4 -7 10 -28 18 -48 19 -20 1 -41 7
-48 14 -6 6 -21 11 -33 11 -31 0 -66 31 -69 62 -2 21 4 30 31 44 33 18 38 26
35 52 -1 8 6 26 15 40 10 15 21 53 25 86 6 47 4 64 -11 90 -11 18 -19 50 -18
79 0 27 -7 58 -16 72 -25 38 -20 55 13 55 38 0 44 11 33 54 -6 22 -6 61 0 108
12 89 13 126 4 154 -5 15 -2 26 9 35 52 43 55 49 49 84 -8 53 -70 180 -97 198
-12 8 -32 16 -42 18 -14 3 -21 14 -23 34 -5 43 -13 46 -55 17z"/>
</g>
</svg>
