<?xml version="1.0" standalone="no"?>
<!DOCTYPE svg PUBLIC "-//W3C//DTD SVG 20010904//EN"
 "http://www.w3.org/TR/2001/REC-SVG-20010904/DTD/svg10.dtd">
<svg version="1.0" xmlns="http://www.w3.org/2000/svg"
 width="512.000000pt" height="512.000000pt" viewBox="0 0 512.000000 512.000000"
 preserveAspectRatio="xMidYMid meet">
<metadata>
Created by potrace 1.13, written by Peter Selinger 2001-2015
</metadata>
<g transform="translate(0.000000,512.000000) scale(0.100000,-0.100000)"
fill="#000000" stroke="none">
<path d="M2570 4437 c-32 -15 -41 -28 -34 -50 3 -10 1 -31 -6 -47 -8 -20 -9
-38 -2 -64 9 -32 8 -40 -15 -66 -31 -38 -53 -38 -95 -1 -32 28 -34 28 -70 14
-34 -13 -36 -17 -27 -39 5 -14 9 -37 9 -51 0 -15 5 -41 11 -58 10 -28 9 -36
-11 -63 l-23 -31 26 -40 c15 -22 27 -49 27 -60 0 -28 -11 -52 -21 -45 -5 3 -9
1 -9 -4 0 -5 -16 -8 -36 -7 -56 4 -90 42 -131 147 -18 48 -39 61 -49 33 -8
-20 13 -71 47 -115 14 -19 29 -45 32 -57 4 -20 0 -22 -36 -25 -54 -4 -58 -24
-17 -72 28 -31 32 -44 34 -101 3 -64 2 -66 -18 -60 -46 16 -106 17 -106 4 0
-28 48 -116 93 -170 55 -68 62 -93 27 -97 -43 -6 -50 -19 -34 -60 l15 -37 -40
45 c-34 38 -52 75 -55 112 -1 3 -4 10 -8 14 -4 3 -6 -3 -3 -14 2 -12 0 -24 -5
-27 -14 -9 -1 -36 35 -75 39 -42 55 -71 55 -99 0 -25 -13 -27 -31 -5 -9 11
-23 14 -45 11 -28 -5 -40 1 -76 33 -46 40 -117 84 -125 77 -2 -3 11 -16 29
-31 18 -14 39 -31 46 -37 19 -16 14 -26 -15 -32 -22 -4 -35 2 -63 28 -29 27
-41 32 -68 28 -36 -6 -54 4 -125 65 -25 22 -60 43 -77 47 -17 4 -30 13 -30 21
0 9 -4 12 -10 9 -5 -3 -10 0 -10 7 0 9 -3 9 -10 -2 -5 -8 -10 -10 -10 -5 0 6
-11 10 -25 10 -14 0 -25 -1 -25 -3 0 -1 18 -25 40 -53 45 -57 50 -81 19 -102
-35 -25 -102 5 -180 80 -48 46 -62 45 -71 -2 -2 -13 -13 -21 -31 -23 l-28 -3
45 -49 c25 -27 46 -56 46 -64 0 -7 -22 -25 -49 -40 l-49 -25 -34 24 c-76 56
-94 65 -113 60 -41 -12 -50 -11 -80 7 -16 10 -49 18 -72 18 -23 0 -45 5 -48
10 -4 6 -10 8 -15 5 -5 -3 -11 -1 -15 5 -9 14 -48 13 -63 -2 -17 -17 -14 -50
7 -75 10 -12 59 -41 107 -63 130 -60 136 -63 148 -83 9 -15 6 -22 -16 -41 -16
-12 -28 -27 -28 -34 0 -7 -10 -9 -30 -6 -28 6 -25 2 38 -64 69 -73 123 -105
160 -95 20 5 20 5 2 25 -10 11 -16 27 -13 36 5 12 11 10 30 -12 13 -15 21 -31
18 -36 -3 -4 18 -25 45 -46 28 -21 50 -44 50 -51 0 -16 -5 -16 -45 -2 -41 15
-82 5 -91 -24 -5 -12 -7 -25 -6 -30 1 -4 -1 -6 -5 -5 -5 1 -21 -4 -36 -10 -16
-7 -34 -12 -40 -12 -7 0 -4 -5 6 -11 9 -6 25 -9 35 -8 9 2 41 -3 70 -10 48
-12 55 -11 72 4 25 22 56 15 130 -31 39 -24 63 -32 83 -29 28 6 33 0 18 -24
-7 -10 -21 -12 -55 -7 -44 7 -46 6 -46 -17 0 -27 27 -56 38 -41 4 5 14 10 22
11 8 1 29 7 47 14 24 10 38 10 55 2 13 -6 54 -18 92 -27 62 -14 72 -14 92 -1
30 19 48 19 64 -1 11 -13 10 -16 -8 -21 -15 -4 -25 -18 -32 -45 -10 -34 -15
-39 -38 -38 -43 3 -62 1 -62 -8 0 -4 8 -8 18 -9 9 -1 36 -5 60 -9 45 -7 44 -8
45 54 1 14 7 22 18 22 25 0 61 -49 57 -78 -4 -30 -43 -61 -81 -64 -23 -2 -29
-9 -38 -41 -13 -49 -28 -54 -82 -28 -59 28 -71 26 -22 -4 71 -43 83 -46 115
-30 l29 15 -4 -32 c-6 -43 -29 -65 -103 -99 -49 -22 -65 -35 -73 -59 -6 -16
-15 -30 -21 -30 -5 0 -6 -4 -3 -10 3 -5 1 -10 -6 -10 -7 0 -21 -8 -32 -17 -11
-10 -17 -12 -13 -6 5 9 2 11 -8 7 -9 -3 -13 -11 -9 -17 3 -6 1 -7 -6 -3 -14 9
-61 -40 -61 -63 0 -11 5 -10 20 4 15 14 23 15 34 6 8 -7 27 -14 42 -17 15 -3
35 -9 46 -15 19 -10 25 -29 8 -29 -6 0 -15 -11 -22 -24 -8 -19 -7 -34 6 -66
21 -52 5 -61 -49 -29 -37 22 -38 22 -52 4 -7 -11 -11 -26 -7 -35 3 -8 8 -33
12 -54 4 -35 6 -37 18 -21 8 10 11 30 7 46 -3 16 -4 29 -1 29 2 0 20 -12 39
-26 29 -21 41 -24 77 -19 l43 6 -23 -45 c-16 -32 -31 -47 -50 -51 -40 -9 -37
-2 -54 -153 -4 -37 -11 -55 -25 -63 -11 -5 -23 -8 -28 -5 -16 10 -37 -29 -50
-93 -14 -73 -5 -90 35 -65 18 12 30 13 64 4 23 -6 45 -9 48 -6 3 3 1 27 -5 52
-8 36 -8 48 4 60 17 17 19 17 44 4 10 -6 19 -18 20 -28 1 -37 35 -77 66 -80
26 -3 34 3 53 34 13 20 37 42 54 50 44 19 66 39 66 58 0 9 4 16 9 16 4 0 7 16
5 35 -2 34 0 36 64 67 55 27 66 37 64 55 -4 32 18 40 40 13 25 -31 23 -57 -7
-84 -14 -13 -25 -30 -25 -38 0 -9 -9 -27 -20 -41 -39 -50 -14 -91 63 -104 29
-4 38 -1 49 16 7 11 18 21 25 21 17 0 16 16 -2 44 -14 21 -14 25 5 49 11 14
20 30 20 36 0 6 11 11 25 11 26 0 26 1 19 59 -6 56 -5 61 21 85 15 14 33 26
38 26 16 0 98 -90 92 -100 -4 -6 -1 -10 4 -10 16 0 13 16 -9 60 -11 22 -20 46
-20 54 0 18 30 36 60 36 25 0 37 25 20 45 -7 9 -10 26 -6 42 3 16 8 39 11 53
19 93 29 121 46 131 15 8 24 5 44 -17 24 -26 23 -52 -5 -69 -20 -12 -9 -42 30
-80 22 -21 40 -46 40 -55 0 -12 2 -13 9 -1 6 9 0 28 -19 58 -27 41 -30 76 -9
89 5 3 9 18 9 35 0 31 25 40 48 17 7 -7 12 -8 12 -3 0 5 16 -6 35 -25 19 -19
35 -42 35 -52 0 -16 -7 -19 -47 -16 -67 4 -68 -18 -2 -87 29 -30 54 -53 57
-50 3 2 -14 25 -37 50 -23 25 -39 50 -36 55 3 5 20 6 38 3 23 -3 39 0 50 11
29 29 44 13 38 -40 -1 -13 40 -52 70 -68 30 -15 36 -36 10 -36 -34 0 -43 -32
-21 -76 11 -21 20 -50 20 -64 0 -36 33 -85 81 -120 23 -16 44 -28 47 -26 2 3
-4 18 -14 34 -17 30 -17 30 19 74 21 25 37 52 37 62 0 22 13 20 38 -7 13 -14
22 -36 22 -54 0 -21 12 -45 36 -75 20 -23 45 -63 56 -88 25 -57 38 -65 60 -37
26 33 22 51 -22 86 -48 38 -51 54 -10 47 23 -3 34 1 50 21 11 14 20 32 20 39
0 8 6 14 14 14 17 0 69 -40 62 -48 -3 -3 -1 -12 6 -19 9 -11 9 -17 -3 -24 -11
-7 -9 -9 9 -9 12 0 22 -5 22 -10 0 -6 11 -15 24 -21 22 -10 66 -82 66 -108 0
-20 82 -91 106 -91 12 0 26 -5 29 -10 9 -14 48 -13 63 2 20 20 13 51 -18 88
-23 26 -30 44 -30 77 0 23 -5 45 -10 48 -6 4 -20 24 -31 47 l-20 40 63 -4 63
-3 -4 35 c-4 41 -24 83 -53 112 -17 17 -19 24 -9 39 19 32 12 60 -24 96 -19
19 -35 37 -35 39 0 8 55 3 87 -8 35 -13 50 -7 37 14 -12 18 -16 58 -7 58 4 0
23 -9 41 -20 17 -11 32 -17 32 -15 0 10 -34 60 -58 85 -23 24 -29 26 -86 34
-32 4 -50 23 -71 71 -7 17 -23 39 -34 49 -28 26 -26 32 10 40 17 3 28 10 25
14 -3 5 1 9 8 9 8 0 12 -7 10 -16 -3 -9 1 -6 7 7 11 21 8 27 -36 71 -26 27
-62 56 -79 64 -17 8 -43 21 -58 28 -16 7 -28 17 -28 23 0 12 -69 76 -82 76 -4
0 -8 6 -8 13 0 16 60 39 74 28 14 -11 108 -42 113 -37 2 1 -14 15 -36 29 -21
14 -56 47 -77 72 -30 37 -42 45 -60 41 -14 -4 -24 -1 -28 9 -10 28 26 29 78 3
43 -21 63 -25 128 -24 43 1 80 5 84 8 3 4 4 18 0 32 -4 18 -11 24 -23 19 -12
-5 -14 -3 -8 7 5 9 4 11 -3 6 -7 -4 -12 -14 -12 -22 0 -11 -6 -13 -22 -8 -63
20 -112 93 -53 78 14 -3 38 -1 54 5 22 10 37 9 72 -3 57 -20 132 -20 171 0 24
12 36 14 55 5 32 -15 33 -14 33 9 0 26 41 36 79 20 16 -6 38 -10 48 -7 17 4
17 4 -2 12 -38 17 -146 97 -143 107 2 6 24 11 48 12 29 1 56 10 77 25 27 21
35 22 64 12 47 -16 51 -14 47 22 -3 31 -2 32 39 32 43 0 66 11 42 19 -129 46
-157 66 -144 106 5 16 13 19 48 14 34 -5 46 -2 65 16 12 12 25 35 29 51 7 37
13 41 75 43 31 1 53 7 56 14 2 6 14 12 26 12 24 0 67 29 98 65 24 27 23 31
-12 49 -27 13 -33 13 -61 -1 -16 -8 -47 -17 -67 -20 -31 -4 -43 1 -75 27 -20
17 -35 36 -31 41 3 5 9 7 14 4 22 -13 19 20 -3 54 -25 38 -78 62 -86 39 -8
-24 -41 -47 -63 -43 -63 10 -58 11 -180 -16 -38 -9 -51 -18 -68 -46 -16 -28
-24 -33 -43 -28 -12 4 -31 16 -42 27 l-20 20 25 -7 c27 -8 27 -8 53 -6 19 1
23 32 6 62 -18 34 -2 59 38 59 l36 0 -6 40 c-4 33 -1 45 16 60 l21 20 -27 0
c-21 0 -33 -9 -48 -35 -14 -24 -28 -35 -44 -35 -12 0 -39 -7 -58 -15 -20 -8
-46 -14 -59 -12 -17 1 -27 -7 -43 -38 -22 -40 -27 -43 -92 -36 -22 2 -15 63 9
88 21 22 21 24 3 17 -11 -4 -33 -18 -48 -30 -28 -23 -28 -23 -61 -4 l-34 19
-6 -23 c-9 -38 -41 -66 -75 -66 -36 0 -37 -2 -15 -35 15 -23 15 -27 0 -50 -20
-30 -41 -31 -81 -4 l-30 21 27 -5 c39 -6 43 18 12 70 -30 51 -26 73 13 74 15
0 22 3 15 6 -21 8 -59 -5 -66 -24 -4 -10 1 -28 12 -42 38 -53 36 -59 -21 -48
-47 10 -52 9 -69 -13 -23 -28 -30 -22 -34 29 -1 22 -5 45 -8 50 -10 16 5 41
42 66 31 21 36 30 38 70 2 44 1 45 -28 45 -30 0 -30 -1 -24 -40 5 -32 3 -41
-13 -50 -27 -14 -31 -13 -31 10 0 12 -7 35 -16 51 -15 30 -10 48 19 70 14 10
15 43 1 64 -19 26 -17 44 4 52 39 14 50 33 41 67 -20 72 -18 100 9 135 l25 34
-42 -6 c-47 -6 -81 -30 -81 -57 0 -33 -28 -30 -55 6 -35 45 -31 78 10 82 47 5
51 17 20 57 l-27 36 21 23 c12 12 21 26 21 30 0 15 -41 66 -53 66 -8 0 -8 -3
-2 -8 6 -4 10 -13 9 -19 -1 -7 -2 -17 -3 -22 0 -5 -15 -12 -31 -16 -17 -4 -36
-15 -43 -26 -24 -39 -67 -19 -67 32 0 10 -20 37 -44 59 -62 57 -70 102 -14 82
59 -21 74 13 34 82 -13 23 -26 62 -29 87 -6 46 -35 120 -46 118 -3 0 -17 -6
-31 -12z m33 -2592 c-3 -9 -8 -14 -10 -11 -3 3 -2 9 2 15 9 16 15 13 8 -4z"/>
</g>
</svg>
