<?xml version="1.0" standalone="no"?>
<!DOCTYPE svg PUBLIC "-//W3C//DTD SVG 20010904//EN"
 "http://www.w3.org/TR/2001/REC-SVG-20010904/DTD/svg10.dtd">
<svg version="1.0" xmlns="http://www.w3.org/2000/svg"
 width="558.000000pt" height="558.000000pt" viewBox="0 0 558.000000 558.000000"
 preserveAspectRatio="xMidYMid meet">
<metadata>
Created by potrace 1.13, written by Peter Selinger 2001-2015
</metadata>
<g transform="translate(0.000000,558.000000) scale(0.100000,-0.100000)"
fill="#000000" stroke="none">
<path d="M2160 4797 c-3 -3 -101 -8 -217 -11 -117 -4 -223 -9 -235 -11 -13 -2
-72 -6 -133 -10 -99 -5 -239 -18 -335 -30 -19 -3 -57 -7 -85 -10 -86 -10 -209
-35 -218 -44 -16 -16 -56 -294 -72 -496 -4 -44 -8 -90 -10 -101 -2 -12 -6 -86
-10 -165 -4 -79 -8 -162 -10 -184 -23 -279 -23 -1524 0 -1895 1 -25 5 -103 9
-175 4 -71 9 -141 11 -155 2 -14 7 -70 10 -125 4 -55 8 -106 10 -115 1 -8 6
-45 9 -82 4 -37 9 -77 11 -90 2 -13 9 -54 15 -93 29 -186 63 -290 99 -304 82
-33 318 -78 501 -96 36 -4 75 -8 88 -10 13 -2 67 -7 120 -10 53 -4 108 -8 121
-10 170 -27 1745 -27 1913 0 13 2 66 6 118 10 52 3 109 8 125 10 17 2 57 7 90
10 175 17 412 64 515 102 25 9 64 29 88 45 24 15 50 28 58 28 7 0 14 7 14 14
0 8 14 35 30 60 50 73 86 197 119 407 27 165 29 181 36 274 4 44 8 89 10 100
1 11 6 74 10 140 4 66 9 136 10 155 24 239 24 1479 0 1720 -1 19 -6 89 -10
155 -4 66 -8 127 -10 135 -1 8 -6 51 -9 95 -12 137 -47 366 -71 460 -37 143
-35 141 -109 164 -119 37 -385 78 -616 96 -41 3 -93 8 -115 10 -22 2 -103 7
-180 11 -77 3 -156 8 -175 11 -45 6 -1514 15 -1520 10z"/>
</g>
</svg>
