<?xml version="1.0" standalone="no"?>
<!DOCTYPE svg PUBLIC "-//W3C//DTD SVG 20010904//EN"
 "http://www.w3.org/TR/2001/REC-SVG-20010904/DTD/svg10.dtd">
<svg version="1.0" xmlns="http://www.w3.org/2000/svg"
 width="558.000000pt" height="558.000000pt" viewBox="0 0 558.000000 558.000000"
 preserveAspectRatio="xMidYMid meet">
<metadata>
Created by potrace 1.13, written by Peter Selinger 2001-2015
</metadata>
<g transform="translate(0.000000,558.000000) scale(0.100000,-0.100000)"
fill="#000000" stroke="none">
<path d="M1055 4609 c-4 -6 -4 -26 0 -46 4 -24 2 -38 -6 -44 -9 -5 -10 -14 -1
-36 21 -50 24 -164 5 -200 -17 -31 -17 -32 20 -72 20 -23 37 -44 37 -47 0 -3
-18 -3 -40 1 l-40 7 4 -85 c2 -46 9 -94 16 -106 19 -36 22 -161 5 -188 -22
-33 -19 -43 22 -80 25 -24 33 -37 26 -44 -8 -8 -17 -8 -31 0 -11 6 -25 11 -31
11 -14 0 -7 -160 8 -188 6 -11 13 -53 15 -93 4 -57 2 -81 -11 -106 -17 -31
-17 -32 20 -72 20 -23 37 -44 37 -47 0 -3 -18 -3 -40 1 l-40 7 4 -85 c2 -46 9
-94 16 -106 19 -36 22 -161 5 -188 -22 -33 -19 -43 22 -80 25 -24 33 -37 26
-44 -8 -8 -17 -8 -31 0 -11 6 -25 11 -31 11 -14 0 -7 -160 8 -188 6 -11 13
-53 15 -93 4 -57 2 -81 -11 -106 -17 -31 -17 -32 20 -72 20 -23 37 -44 37 -47
0 -3 -18 -3 -40 1 l-40 7 4 -85 c2 -46 9 -94 16 -106 19 -36 22 -161 5 -188
-22 -33 -19 -43 22 -80 25 -24 33 -37 26 -44 -8 -8 -17 -8 -31 0 -11 6 -25 11
-31 11 -14 0 -7 -160 8 -188 6 -11 13 -53 15 -93 4 -57 2 -81 -11 -106 -17
-31 -17 -32 20 -72 20 -23 37 -44 37 -47 0 -3 -18 -3 -40 1 l-40 7 4 -85 c2
-46 9 -94 16 -106 19 -36 22 -161 5 -188 -8 -12 -15 -25 -15 -28 0 -3 29 -5
65 -5 40 0 78 -6 96 -16 45 -23 72 -15 83 24 11 39 15 39 51 6 48 -45 129 -60
155 -29 18 21 148 20 210 -2 55 -19 80 -9 80 33 0 30 21 31 46 3 39 -44 129
-64 154 -34 18 21 170 21 211 -1 45 -23 72 -15 83 24 11 39 15 39 51 6 48 -45
129 -60 155 -29 18 21 148 20 210 -2 55 -19 80 -9 80 33 0 30 21 31 46 3 39
-44 129 -64 154 -34 18 21 170 21 211 -1 45 -23 72 -15 83 24 11 39 15 39 51
6 48 -45 129 -60 155 -29 18 21 148 20 210 -2 55 -19 80 -9 80 33 0 30 21 31
46 3 39 -44 129 -64 154 -34 18 21 170 21 211 -1 45 -23 72 -15 83 24 11 39
15 39 51 6 48 -45 129 -60 155 -29 18 22 148 20 211 -2 75 -27 82 -15 83 136
1 65 4 123 8 127 4 4 -1 22 -13 40 -23 38 -17 60 27 89 24 15 26 21 20 61 -3
24 -13 58 -22 76 -18 34 -29 194 -15 217 6 9 2 28 -11 52 -15 30 -17 42 -8 58
6 12 15 21 20 21 18 0 40 32 40 58 0 15 -10 47 -21 72 -23 49 -36 209 -19 239
6 11 2 26 -11 48 -23 37 -16 59 27 88 24 15 26 21 20 61 -3 24 -13 58 -22 76
-18 34 -29 194 -15 217 6 9 2 28 -11 52 -15 30 -17 42 -8 58 6 12 15 21 20 21
18 0 40 32 40 58 0 15 -10 47 -21 72 -23 49 -36 209 -19 239 6 11 2 26 -11 48
-23 37 -16 59 27 88 24 15 26 21 20 61 -3 24 -13 58 -22 76 -18 34 -29 194
-15 217 6 9 2 28 -11 52 -15 30 -17 42 -8 58 6 12 15 21 20 21 18 0 40 32 40
58 0 15 -10 47 -21 72 -23 49 -36 209 -19 239 6 11 2 26 -11 48 -23 37 -16 59
27 88 24 15 26 21 20 61 -3 24 -13 58 -22 76 -18 35 -29 194 -14 218 6 9 3 24
-8 42 -18 31 -20 32 -56 19 -21 -8 -34 -4 -85 31 -74 49 -94 46 -90 -14 4 -53
-10 -58 -60 -24 -27 19 -46 25 -63 21 -13 -3 -42 -2 -64 3 -31 7 -54 5 -95 -8
-64 -19 -69 -18 -131 27 -64 46 -84 42 -81 -20 3 -56 -8 -60 -66 -21 -27 18
-46 23 -64 19 -13 -4 -41 -2 -62 4 -29 8 -49 6 -96 -9 l-59 -18 -60 40 c-73
49 -93 46 -89 -14 4 -53 -10 -58 -60 -24 -27 19 -46 25 -63 21 -13 -3 -42 -2
-64 3 -31 7 -54 5 -95 -8 -64 -19 -69 -18 -131 27 -64 46 -84 42 -81 -20 3
-56 -8 -60 -66 -21 -27 18 -46 23 -64 19 -13 -4 -41 -2 -62 4 -29 8 -49 6 -96
-9 l-59 -18 -60 40 c-73 49 -93 46 -89 -14 4 -53 -10 -58 -60 -24 -27 19 -46
25 -63 21 -13 -3 -42 -2 -64 3 -31 7 -54 5 -95 -8 -64 -19 -69 -18 -131 27
-64 46 -84 42 -81 -20 3 -56 -8 -60 -66 -21 -27 18 -46 23 -64 19 -13 -4 -41
-2 -62 4 -29 8 -49 6 -96 -9 l-59 -18 -60 40 c-73 49 -93 46 -89 -14 4 -53
-10 -58 -60 -24 -27 19 -46 25 -63 21 -13 -3 -42 -2 -64 3 -31 7 -54 5 -95 -8
-64 -19 -69 -18 -130 26 -48 35 -73 42 -84 23z"/>
</g>
</svg>
