<?xml version="1.0" standalone="no"?>
<!DOCTYPE svg PUBLIC "-//W3C//DTD SVG 20010904//EN"
 "http://www.w3.org/TR/2001/REC-SVG-20010904/DTD/svg10.dtd">
<svg version="1.0" xmlns="http://www.w3.org/2000/svg"
 width="512.000000pt" height="512.000000pt" viewBox="0 0 512.000000 512.000000"
 preserveAspectRatio="xMidYMid meet">
<metadata>
Created by potrace 1.13, written by Peter Selinger 2001-2015
</metadata>
<g transform="translate(0.000000,512.000000) scale(0.100000,-0.100000)"
fill="#000000" stroke="none">
<path d="M2541 4323 c-5 -10 -19 -34 -31 -53 -11 -19 -25 -47 -31 -62 -6 -16
-15 -28 -20 -28 -5 0 -9 -7 -9 -15 0 -8 -11 -34 -25 -57 -14 -24 -42 -77 -62
-118 -21 -41 -41 -76 -45 -78 -4 -2 -8 -8 -8 -14 0 -5 -6 -24 -14 -41 -47
-104 -97 -231 -112 -287 l-17 -65 -122 60 c-101 50 -300 129 -320 126 -2 0
-25 8 -50 19 -25 11 -45 18 -45 15 0 -2 -25 5 -55 16 -30 10 -63 19 -73 19
-10 0 -22 4 -27 9 -10 10 -105 39 -159 48 -25 5 -27 4 -18 -13 5 -11 17 -48
26 -84 9 -36 21 -69 26 -74 6 -6 10 -18 10 -28 0 -9 7 -38 16 -64 9 -25 17
-54 19 -63 2 -9 9 -29 15 -46 6 -16 13 -37 15 -45 13 -56 84 -234 133 -331
l57 -115 -80 -23 c-43 -12 -111 -36 -150 -53 -38 -17 -90 -39 -115 -50 -25
-10 -52 -22 -60 -27 -8 -4 -71 -37 -140 -72 -69 -35 -127 -66 -130 -69 -3 -3
-40 -23 -82 -45 -61 -31 -75 -43 -65 -52 15 -15 152 -90 362 -196 125 -64 263
-128 285 -132 16 -4 163 -56 168 -60 1 -1 -19 -47 -46 -101 -27 -55 -56 -115
-65 -134 -14 -31 -116 -342 -122 -370 -10 -48 -19 -77 -26 -85 -4 -6 -10 -24
-13 -40 -3 -17 -12 -52 -20 -78 -13 -44 -13 -48 1 -43 9 4 46 14 82 23 36 9
71 19 76 24 6 4 28 11 50 15 48 10 46 9 65 17 8 3 49 16 90 28 41 13 77 23 80
24 3 1 12 4 20 7 8 3 51 18 95 33 44 16 91 34 105 41 110 58 190 92 190 81 0
-20 50 -168 77 -227 49 -108 138 -285 158 -315 11 -16 27 -46 35 -65 8 -19 21
-40 30 -47 8 -7 12 -13 8 -13 -3 0 9 -25 27 -56 19 -31 36 -61 38 -68 2 -6 6
-9 9 -6 13 14 78 129 78 139 0 6 5 11 10 11 6 0 10 4 10 8 0 4 25 53 55 107
106 190 206 414 230 516 l6 26 107 -54 c89 -44 317 -129 372 -138 8 -1 22 -5
30 -8 35 -13 96 -30 115 -33 11 -1 38 -9 60 -18 22 -8 51 -18 65 -20 14 -3 41
-9 61 -14 l36 -9 -9 36 c-5 20 -11 47 -14 61 -3 14 -11 43 -18 65 -8 22 -24
76 -36 120 -50 178 -113 356 -163 457 l-54 107 26 6 c102 24 326 124 516 230
54 30 103 55 107 55 4 0 8 5 8 10 0 6 5 10 11 10 13 0 139 73 139 81 0 3 -21
16 -47 30 -86 45 -98 52 -101 61 -2 4 -12 8 -23 8 -10 0 -19 5 -19 10 0 6 -8
10 -17 10 -9 0 -24 6 -32 14 -52 45 -392 203 -505 232 l-64 18 40 80 c21 45
45 92 52 106 7 14 25 61 41 105 15 44 30 87 33 95 3 8 6 20 8 25 2 6 15 48 29
95 15 47 31 103 36 125 5 22 14 49 19 60 5 11 16 48 25 82 8 34 18 69 21 77 5
12 -4 12 -55 -4 -34 -10 -61 -16 -61 -14 0 2 -22 -5 -50 -16 -27 -11 -60 -21
-72 -24 -60 -11 -367 -114 -383 -128 -5 -4 -17 -8 -27 -8 -10 0 -18 -5 -18
-12 0 -6 -2 -9 -5 -6 -3 3 -45 -14 -92 -38 -48 -24 -88 -42 -89 -41 -1 1 -16
44 -33 95 -48 141 -122 296 -306 641 -25 46 -47 86 -49 89 -2 2 -9 -5 -15 -15z"/>
</g>
</svg>
