<?xml version="1.0" standalone="no"?>
<!DOCTYPE svg PUBLIC "-//W3C//DTD SVG 20010904//EN"
 "http://www.w3.org/TR/2001/REC-SVG-20010904/DTD/svg10.dtd">
<svg version="1.0" xmlns="http://www.w3.org/2000/svg"
 width="558.000000pt" height="558.000000pt" viewBox="0 0 558.000000 558.000000"
 preserveAspectRatio="xMidYMid meet">
<metadata>
Created by potrace 1.13, written by Peter Selinger 2001-2015
</metadata>
<g transform="translate(0.000000,558.000000) scale(0.100000,-0.100000)"
fill="#000000" stroke="none">
<path d="M2827 4909 c-9 -30 -34 -124 -57 -209 -87 -328 -114 -425 -205 -745
l-93 -331 19 -58 c27 -78 26 -181 -1 -269 -17 -55 -31 -78 -78 -125 -63 -64
-105 -82 -184 -76 l-45 4 -65 -115 c-36 -63 -67 -113 -69 -112 -2 1 -3 0 -2
-1 5 -11 -268 -450 -450 -724 -35 -54 -68 -94 -72 -90 -5 4 -6 2 -2 -3 5 -11
-24 -57 -209 -327 -201 -293 -375 -557 -443 -670 -20 -33 -21 -65 -3 -54 4 2
55 7 113 10 58 4 116 8 130 11 13 2 60 6 103 10 43 4 86 8 95 10 9 1 47 6 84
10 37 3 76 8 85 10 9 1 44 6 77 9 33 4 74 9 90 11 17 3 51 7 78 10 73 8 139
16 172 20 17 2 62 6 100 10 39 3 84 8 100 10 17 2 77 7 135 11 58 3 107 8 109
10 2 2 25 -13 50 -34 69 -55 100 -76 161 -104 107 -51 172 -63 340 -62 85 0
169 3 185 7 17 4 39 9 50 11 68 14 190 77 267 138 40 31 46 31 198 13 19 -2
64 -7 100 -10 36 -4 76 -8 90 -10 14 -2 50 -6 80 -10 30 -3 66 -8 80 -10 14
-2 54 -7 90 -11 36 -3 72 -7 80 -9 8 -1 44 -6 80 -10 36 -3 76 -8 90 -10 14
-2 54 -6 90 -10 36 -3 81 -8 100 -10 56 -6 166 -15 278 -20 73 -4 102 -3 102
6 0 24 -237 388 -478 734 -62 88 -117 168 -124 179 -7 10 -26 37 -42 60 -196
275 -541 819 -725 1144 -50 88 -54 92 -86 92 -152 0 -324 109 -394 248 -73
147 -76 305 -10 472 27 66 29 79 20 120 -9 39 -34 176 -61 335 -5 28 -11 66
-15 85 -19 107 -66 381 -71 415 -10 69 -20 73 -37 14z"/>
</g>
</svg>
