<?xml version="1.0" standalone="no"?>
<!DOCTYPE svg PUBLIC "-//W3C//DTD SVG 20010904//EN"
 "http://www.w3.org/TR/2001/REC-SVG-20010904/DTD/svg10.dtd">
<svg version="1.0" xmlns="http://www.w3.org/2000/svg"
 width="558.000000pt" height="558.000000pt" viewBox="0 0 558.000000 558.000000"
 preserveAspectRatio="xMidYMid meet">
<metadata>
Created by potrace 1.13, written by Peter Selinger 2001-2015
</metadata>
<g transform="translate(0.000000,558.000000) scale(0.100000,-0.100000)"
fill="#000000" stroke="none">
<path d="M2480 4672 c0 -6 29 -70 65 -142 191 -384 275 -612 324 -880 17 -94
29 -350 16 -369 -4 -7 -15 -6 -33 1 -15 6 -74 11 -132 11 -119 1 -180 -17
-272 -79 l-52 -35 -86 40 c-72 33 -224 89 -290 106 -46 12 -228 46 -273 51
-28 3 -57 7 -64 9 -29 9 -276 20 -467 20 -178 0 -209 -2 -211 -15 -1 -8 -6
-64 -10 -125 -4 -60 -8 -117 -10 -125 -1 -8 -6 -55 -10 -104 -4 -50 -8 -97
-10 -105 -1 -9 -6 -59 -10 -111 -4 -52 -8 -102 -10 -110 -8 -46 -16 -230 -9
-230 7 0 113 56 209 110 240 135 600 284 762 314 153 28 199 35 271 40 l83 5
-6 -29 c-28 -129 21 -310 111 -409 l35 -39 -41 -84 c-92 -187 -155 -437 -177
-698 -11 -126 -8 -699 3 -710 5 -4 45 -11 89 -14 44 -4 159 -13 255 -21 96 -9
204 -18 240 -21 36 -3 85 -7 110 -9 122 -12 220 -17 220 -11 0 3 -11 25 -24
48 -175 315 -243 450 -311 618 -71 177 -124 372 -140 520 -10 87 -14 246 -6
258 3 5 33 9 66 9 76 -1 138 7 195 28 41 15 129 61 140 74 28 33 39 33 97 -7
145 -98 415 -203 586 -227 23 -3 49 -8 57 -10 83 -24 316 -40 580 -40 228 0
235 1 236 20 3 65 16 230 19 244 1 9 6 56 10 105 4 50 8 97 10 105 1 9 6 57
10 106 3 50 8 104 10 120 10 81 15 225 8 225 -4 0 -100 -46 -213 -103 -250
-125 -342 -165 -532 -228 -81 -27 -250 -67 -338 -79 -89 -13 -284 -13 -372 -1
-4 1 -4 20 -1 44 19 119 -9 264 -70 354 l-33 49 34 54 c97 159 184 394 216
585 18 108 29 188 41 310 3 35 10 176 19 438 2 42 0 79 -3 81 -6 4 -70 11
-206 21 -138 11 -202 16 -245 20 -25 3 -73 7 -107 10 -315 26 -353 28 -353 17z"/>
</g>
</svg>
