<?xml version="1.0" standalone="no"?>
<!DOCTYPE svg PUBLIC "-//W3C//DTD SVG 20010904//EN"
 "http://www.w3.org/TR/2001/REC-SVG-20010904/DTD/svg10.dtd">
<svg version="1.0" xmlns="http://www.w3.org/2000/svg"
 width="558.000000pt" height="558.000000pt" viewBox="0 0 558.000000 558.000000"
 preserveAspectRatio="xMidYMid meet">
<metadata>
Created by potrace 1.13, written by Peter Selinger 2001-2015
</metadata>
<g transform="translate(0.000000,558.000000) scale(0.100000,-0.100000)"
fill="#000000" stroke="none">
<path d="M629 4388 c-3 -448 -4 -1015 -1 -1024 2 -8 34 0 91 21 324 120 671
134 1006 39 118 -33 290 -106 362 -153 281 -182 438 -573 488 -1209 6 -81 7
-553 1 -622 -2 -25 -7 -101 -11 -169 -4 -68 -8 -131 -10 -140 -1 -9 -6 -56 -9
-106 -4 -49 -9 -101 -11 -115 -2 -14 -6 -52 -10 -85 -3 -33 -8 -71 -10 -85 -2
-14 -6 -46 -10 -73 l-6 -47 421 0 c231 0 420 2 420 5 0 3 -11 65 -24 138 -25
136 -70 429 -81 527 -3 30 -8 71 -10 90 -2 19 -7 62 -9 95 -3 33 -8 91 -11
129 -11 119 -12 446 -3 561 39 503 192 873 441 1061 81 61 294 165 429 209
311 101 616 86 920 -45 l88 -38 0 564 0 564 -21 0 c-11 0 -55 -9 -97 -19 -310
-79 -1000 -190 -1347 -216 -44 -4 -91 -8 -104 -10 -172 -28 -1212 -27 -1451 0
-19 3 -84 9 -145 15 -99 10 -361 43 -425 55 -14 2 -81 13 -149 25 -161 27
-416 81 -564 119 -65 17 -125 31 -133 31 -11 0 -14 -19 -15 -92z"/>
</g>
</svg>
