<?xml version="1.0" standalone="no"?>
<!DOCTYPE svg PUBLIC "-//W3C//DTD SVG 20010904//EN"
 "http://www.w3.org/TR/2001/REC-SVG-20010904/DTD/svg10.dtd">
<svg version="1.0" xmlns="http://www.w3.org/2000/svg"
 width="558.000000pt" height="558.000000pt" viewBox="0 0 558.000000 558.000000"
 preserveAspectRatio="xMidYMid meet">
<metadata>
Created by potrace 1.13, written by Peter Selinger 2001-2015
</metadata>
<g transform="translate(0.000000,558.000000) scale(0.100000,-0.100000)"
fill="#000000" stroke="none">
<path d="M2485 4644 c19 -103 63 -202 153 -345 56 -88 64 -109 78 -183 8 -44
-14 -135 -48 -196 -28 -51 -30 -64 -34 -175 -4 -113 -24 -257 -44 -309 -5 -14
-20 -26 -37 -30 -69 -15 -131 -27 -163 -32 -19 -3 -46 -7 -60 -10 -39 -6 -200
-5 -250 2 -93 13 -189 58 -268 126 -39 34 -68 35 -252 13 -156 -19 -161 -20
-355 -56 -181 -33 -204 -41 -203 -66 1 -21 -12 -206 -17 -243 -2 -14 -7 -63
-10 -110 -4 -47 -8 -92 -10 -100 -2 -8 -6 -58 -10 -110 -4 -52 -8 -102 -10
-110 -11 -59 -15 -230 -6 -230 5 0 92 20 193 45 150 37 379 85 408 85 4 0 36
23 71 52 123 99 263 140 375 109 74 -20 195 -153 181 -199 -3 -10 -16 -56 -30
-104 -21 -70 -24 -93 -16 -120 6 -18 12 -80 14 -138 5 -124 -12 -205 -68 -322
-72 -149 -83 -290 -36 -445 26 -86 88 -199 130 -238 43 -41 89 -114 89 -142 0
-15 -15 -37 -37 -58 l-38 -35 40 0 c22 -1 58 -3 80 -5 22 -3 126 -12 230 -20
188 -16 238 -20 345 -29 30 -3 96 -8 145 -11 98 -6 98 -8 10 47 -89 55 -94
105 -15 150 35 20 43 31 61 88 25 79 26 169 3 235 -22 68 -35 91 -87 160 -57
77 -82 125 -102 200 -34 126 -10 253 64 336 l38 43 114 -32 c63 -17 125 -33
139 -36 14 -2 52 -9 85 -14 139 -25 379 -34 534 -22 67 5 79 3 125 -21 128
-67 249 -80 358 -39 97 36 228 145 233 192 1 13 6 70 10 127 3 57 8 111 10
120 1 9 6 56 10 105 4 50 8 97 10 105 1 9 6 59 10 111 4 52 8 102 10 110 2 8
6 65 10 126 l7 111 -27 21 c-136 108 -272 82 -434 -81 -34 -35 -68 -64 -74
-64 -7 0 -55 -6 -107 -12 -102 -13 -333 -16 -396 -6 -116 19 -194 39 -194 50
0 7 7 32 15 56 18 50 61 259 69 334 14 128 16 185 6 210 -17 45 -98 375 -116
470 -21 116 -27 380 -10 458 7 32 10 60 7 62 -6 3 -72 10 -206 20 -138 11
-202 16 -245 20 -42 4 -90 8 -227 20 -32 2 -98 7 -147 11 l-89 6 8 -38z"/>
</g>
</svg>
