<?xml version="1.0" standalone="no"?>
<!DOCTYPE svg PUBLIC "-//W3C//DTD SVG 20010904//EN"
 "http://www.w3.org/TR/2001/REC-SVG-20010904/DTD/svg10.dtd">
<svg version="1.0" xmlns="http://www.w3.org/2000/svg"
 width="558.000000pt" height="558.000000pt" viewBox="0 0 558.000000 558.000000"
 preserveAspectRatio="xMidYMid meet">
<metadata>
Created by potrace 1.13, written by Peter Selinger 2001-2015
</metadata>
<g transform="translate(0.000000,558.000000) scale(0.100000,-0.100000)"
fill="#000000" stroke="none">
<path d="M2568 4584 c-4 -3 -2 -19 3 -36 9 -33 -2 -58 -26 -58 -7 0 -33 9 -57
20 -41 18 -50 19 -91 6 -25 -8 -48 -12 -51 -9 -2 2 -17 -2 -33 -10 -41 -21
-126 -28 -156 -12 -23 12 -29 10 -62 -12 -20 -13 -51 -26 -68 -27 -18 -1 -32
-8 -32 -14 0 -29 -23 -36 -79 -23 -39 9 -61 9 -74 2 -11 -6 -35 -11 -53 -13
-41 -2 -59 -14 -59 -39 0 -35 -23 -32 -60 7 -20 21 -40 39 -45 39 -5 0 -21
-13 -37 -29 -33 -33 -57 -32 -146 9 -30 14 -71 25 -92 25 -20 0 -50 4 -66 10
-17 6 -41 6 -59 2 -22 -7 -39 -4 -65 9 -29 16 -42 17 -74 8 -24 -7 -41 -7 -45
-1 -9 13 -52 35 -58 29 -2 -3 0 -14 5 -24 6 -11 7 -25 2 -33 -7 -11 -19 -9
-68 13 -33 15 -73 27 -90 27 -55 0 -146 29 -165 53 -10 12 -16 17 -13 10 4 -6
-3 -35 -15 -65 -19 -47 -20 -59 -9 -99 6 -25 8 -58 5 -72 -6 -21 0 -35 24 -64
44 -53 41 -63 -16 -60 -65 3 -67 -17 -8 -95 39 -51 45 -66 39 -91 -11 -54 -11
-62 3 -109 7 -25 13 -72 12 -105 -1 -32 0 -69 2 -83 3 -21 0 -25 -21 -24 -14
1 -35 5 -47 9 -47 15 -37 -22 26 -96 34 -40 61 -76 61 -80 0 -10 80 -40 105
-40 11 1 43 4 70 8 48 8 50 9 50 40 0 17 4 29 9 26 4 -3 12 0 16 7 6 10 19 7
53 -13 29 -18 60 -27 87 -27 47 0 84 -32 95 -81 4 -16 11 -27 16 -23 5 3 9 0
9 -6 0 -6 4 -9 10 -5 5 3 7 12 4 19 -3 7 1 18 9 24 11 9 24 7 58 -12 30 -15
55 -22 76 -19 37 6 80 -18 132 -71 41 -42 63 -45 85 -11 20 30 54 32 87 6 35
-26 50 -29 84 -15 26 10 34 9 68 -9 l38 -22 20 24 c10 13 19 32 19 42 0 28 23
23 70 -16 52 -43 76 -44 111 -2 26 31 28 32 60 18 61 -24 86 -25 98 -2 14 25
43 27 61 6 7 -8 21 -15 31 -15 15 0 19 7 19 37 0 27 3 34 11 26 10 -10 9 -35
-6 -118 -1 -5 -3 -16 -3 -22 -1 -7 -5 -12 -9 -12 -5 1 -19 1 -32 0 -20 -1 -22
-5 -17 -28 3 -16 11 -59 17 -98 9 -61 9 -74 -7 -102 -17 -32 -16 -33 10 -73
28 -42 34 -79 14 -81 -7 -1 -25 -1 -40 0 -25 1 -26 -1 -21 -33 3 -19 1 -48 -5
-64 -7 -20 -6 -37 3 -58 7 -16 15 -59 19 -95 6 -53 4 -68 -8 -78 -22 -18 -20
-36 9 -85 14 -24 22 -45 19 -48 -3 -4 -20 -2 -37 3 -18 5 -34 9 -36 9 -2 0 0
-17 3 -37 4 -21 9 -65 11 -98 2 -33 6 -88 10 -123 5 -43 3 -72 -6 -94 -14 -35
-13 -71 3 -102 7 -13 7 -16 -1 -12 -5 4 -19 -2 -30 -13 l-21 -21 21 -46 c16
-39 18 -53 9 -80 -9 -26 -8 -39 6 -65 12 -24 14 -45 10 -78 -18 -125 -18 -138
-3 -168 16 -29 15 -30 -6 -29 -29 1 -34 -34 -12 -81 10 -21 15 -49 12 -72 -2
-20 2 -48 10 -64 8 -16 22 -59 32 -97 16 -61 17 -70 3 -93 -15 -24 -14 -28 21
-79 21 -29 37 -65 37 -80 0 -48 37 -128 82 -177 24 -26 51 -62 60 -79 17 -32
38 -43 38 -19 0 7 -5 18 -10 23 -13 13 24 64 46 64 8 0 32 -9 54 -20 57 -29
77 -26 94 14 12 29 21 35 58 42 71 13 145 5 190 -21 32 -18 47 -21 65 -14 30
11 55 0 110 -54 l42 -40 40 17 c45 21 66 59 57 103 -8 37 4 54 43 62 28 5 35
13 52 61 l19 54 -26 39 c-32 49 -28 71 13 75 46 5 58 23 39 61 -13 24 -15 50
-10 128 4 54 12 109 18 123 16 33 10 58 -25 98 -35 40 -37 62 -6 62 13 0 32 6
42 14 18 13 18 15 2 58 -21 54 -26 212 -9 245 20 37 14 68 -23 110 -45 53 -46
73 -1 73 44 0 51 20 28 73 -15 34 -18 65 -16 162 1 66 3 128 4 138 0 10 -15
36 -35 58 -43 48 -42 71 3 80 47 10 49 15 24 62 -19 37 -23 60 -25 183 -2 136
-4 143 -30 181 -34 48 -34 63 -2 92 l26 22 -19 27 c-11 15 -26 52 -34 82 -8
30 -17 61 -19 69 -2 9 4 17 16 19 28 6 36 22 29 59 -3 17 -1 39 4 49 6 11 7
27 1 41 -18 47 57 22 125 -41 37 -36 76 -51 76 -31 0 8 11 22 24 30 27 18 42
13 96 -27 22 -16 31 -17 58 -7 27 9 37 8 66 -10 44 -28 62 -26 92 6 l24 26 31
-22 c37 -28 105 -52 123 -45 8 3 19 19 25 35 12 35 17 36 64 4 36 -25 38 -25
68 -9 28 14 38 14 71 3 49 -16 70 -5 79 40 4 18 9 34 11 36 2 3 21 -5 42 -16
58 -31 128 -5 139 50 9 43 30 58 92 66 54 6 57 5 95 -29 36 -32 42 -34 65 -24
19 9 31 8 53 -2 15 -7 46 -19 69 -26 38 -11 45 -11 65 5 19 16 22 30 25 95 2
80 14 116 38 116 31 0 13 74 -33 137 -26 35 -24 59 7 87 21 19 20 83 0 163
-14 51 -8 70 22 75 17 2 25 14 34 52 12 46 11 51 -17 103 -33 62 -31 78 9 95
15 7 29 13 31 13 2 2 -25 59 -68 145 -4 8 -22 18 -41 21 -19 3 -47 11 -62 18
-36 14 -49 6 -45 -27 3 -23 0 -27 -22 -24 -24 2 -204 3 -225 1 -5 -1 -29 2
-52 6 -40 7 -45 5 -74 -26 -39 -42 -68 -46 -140 -19 -43 16 -62 19 -76 11 -14
-7 -32 -6 -63 3 -32 9 -51 10 -71 2 -22 -8 -32 -7 -46 5 -27 24 -49 29 -81 19
-23 -6 -37 -3 -63 13 -58 36 -74 29 -43 -17 23 -37 1 -41 -56 -12 -27 14 -63
26 -80 26 -17 0 -62 7 -99 15 -62 15 -70 19 -100 62 -35 50 -47 49 -42 -2 2
-26 -2 -36 -19 -45 -18 -10 -30 -8 -70 13 -51 26 -56 27 -240 11 l-65 -6 -46
46 c-62 61 -83 61 -73 1 8 -58 -10 -66 -76 -35 -43 20 -58 22 -137 16 -48 -3
-105 -8 -126 -12 -34 -6 -42 -2 -82 35 -42 39 -64 49 -77 35z"/>
</g>
</svg>
