<?xml version="1.0" standalone="no"?>
<!DOCTYPE svg PUBLIC "-//W3C//DTD SVG 20010904//EN"
 "http://www.w3.org/TR/2001/REC-SVG-20010904/DTD/svg10.dtd">
<svg version="1.0" xmlns="http://www.w3.org/2000/svg"
 width="558.000000pt" height="558.000000pt" viewBox="0 0 558.000000 558.000000"
 preserveAspectRatio="xMidYMid meet">
<metadata>
Created by potrace 1.13, written by Peter Selinger 2001-2015
</metadata>
<g transform="translate(0.000000,558.000000) scale(0.100000,-0.100000)"
fill="#000000" stroke="none">
<path d="M1718 4555 c-2 -1 -70 -6 -153 -9 -82 -4 -166 -9 -185 -11 -19 -2
-75 -6 -125 -10 -49 -3 -109 -8 -132 -10 -41 -3 -207 -15 -293 -20 -25 -2 -80
-4 -124 -5 l-79 -3 8 -271 c6 -241 14 -620 15 -747 l0 -46 128 29 c419 95 703
146 907 164 132 11 403 6 522 -10 116 -15 317 -60 342 -75 12 -8 11 -20 -8
-76 -32 -100 -87 -203 -206 -391 -175 -278 -262 -475 -313 -714 -31 -142 -37
-222 -36 -475 0 -241 10 -336 60 -605 22 -119 133 -622 137 -626 2 -2 215 -11
447 -20 85 -3 175 -7 200 -9 25 -2 163 -7 308 -11 220 -6 262 -4 262 7 0 14
-13 62 -123 464 -133 489 -148 739 -61 1015 34 108 55 153 183 390 104 193
178 355 220 480 l21 65 157 0 c87 0 184 3 217 7 102 14 299 57 463 103 198 56
514 142 572 156 l44 11 -6 585 c-4 321 -10 589 -13 594 -4 7 -66 8 -166 5
-150 -6 -197 -9 -325 -21 -145 -14 -171 -16 -202 -21 -18 -2 -61 -7 -95 -9
-33 -3 -79 -8 -101 -10 -67 -7 -304 -18 -400 -18 -97 -1 -337 11 -370 17 -11
2 -51 7 -90 10 -38 4 -81 9 -95 11 -14 2 -49 7 -79 10 -30 4 -61 8 -70 10 -9
1 -41 6 -72 9 -31 4 -65 8 -75 10 -11 2 -48 7 -84 11 -36 4 -72 8 -80 10 -13
2 -59 7 -185 20 -16 2 -66 6 -110 10 -44 3 -107 8 -140 11 -60 6 -612 13 -617
9z"/>
</g>
</svg>
