<?xml version="1.0" standalone="no"?>
<!DOCTYPE svg PUBLIC "-//W3C//DTD SVG 20010904//EN"
 "http://www.w3.org/TR/2001/REC-SVG-20010904/DTD/svg10.dtd">
<svg version="1.0" xmlns="http://www.w3.org/2000/svg"
 width="512.000000pt" height="512.000000pt" viewBox="0 0 512.000000 512.000000"
 preserveAspectRatio="xMidYMid meet">
<metadata>
Created by potrace 1.13, written by Peter Selinger 2001-2015
</metadata>
<g transform="translate(0.000000,512.000000) scale(0.100000,-0.100000)"
fill="#000000" stroke="none">
<path d="M3752 4760 c-12 -11 -26 -20 -31 -20 -5 0 -17 -10 -25 -22 -12 -17
-28 -23 -76 -26 -33 -2 -63 -8 -65 -13 -3 -4 1 -25 8 -46 23 -68 3 -80 -70
-41 -23 12 -45 19 -49 15 -5 -4 -8 -31 -9 -60 l0 -52 -53 3 c-64 3 -73 -11
-47 -69 25 -55 11 -69 -44 -44 -55 25 -75 15 -68 -34 8 -60 -5 -73 -63 -65
-63 8 -72 -8 -35 -64 15 -23 23 -46 19 -55 -8 -21 -12 -21 -59 -1 -51 21 -65
13 -65 -38 0 -71 -7 -85 -40 -80 -19 3 -28 0 -27 -10 2 -51 -5 -69 -33 -87
-16 -10 -27 -21 -23 -24 3 -4 1 -7 -5 -7 -6 0 -9 -6 -6 -14 6 -17 -20 -44 -50
-52 -24 -6 -24 -8 -10 -86 7 -41 -15 -88 -41 -88 -8 0 -29 -12 -45 -27 -28
-24 -30 -31 -24 -69 7 -50 -8 -105 -42 -151 -13 -17 -24 -42 -24 -54 0 -12 -5
-39 -12 -60 -9 -33 -9 -42 5 -57 19 -20 27 -68 12 -66 -5 1 -23 5 -40 8 -31 6
-71 -11 -47 -21 6 -2 12 -15 12 -28 0 -13 9 -40 21 -59 24 -41 19 -68 -16 -84
-14 -6 -25 -20 -26 -29 -1 -10 -3 -40 -6 -68 -2 -27 -5 -67 -6 -87 -1 -21 -5
-38 -8 -38 -9 0 -19 27 -20 53 0 12 -6 38 -13 57 -8 23 -9 46 -4 67 7 25 4 42
-12 72 -22 44 -26 81 -10 97 7 7 5 18 -8 35 -11 13 -20 26 -20 29 0 3 -4 18
-8 34 -4 18 -2 37 5 49 10 15 10 21 1 27 -7 4 -10 12 -6 18 6 10 -19 44 -72
102 -20 21 -22 32 -18 70 5 33 2 52 -10 69 -10 13 -28 44 -41 69 -14 26 -37
62 -53 82 -19 25 -27 43 -23 60 6 33 -56 118 -159 220 -68 66 -78 81 -78 111
0 44 -18 70 -86 120 -33 24 -69 64 -92 100 -38 60 -56 73 -104 74 -29 0 -108
66 -108 91 0 8 4 13 8 10 4 -2 8 4 9 14 1 11 -1 19 -5 18 -15 -3 -59 22 -112
62 -50 37 -59 41 -97 35 -25 -4 -44 -2 -48 5 -10 16 -86 62 -92 56 -3 -3 -1
-11 5 -18 15 -18 19 -129 5 -152 -14 -25 -1 -61 35 -99 22 -24 24 -29 12 -38
-8 -5 -25 -7 -37 -4 -27 6 -28 0 -9 -46 7 -19 11 -49 8 -68 -3 -23 2 -48 15
-75 74 -153 76 -156 64 -170 -28 -33 -21 -56 33 -109 55 -54 81 -91 72 -106
-3 -4 3 -17 14 -29 12 -13 16 -23 10 -27 -6 -4 -8 -10 -5 -15 3 -4 -2 -11 -10
-14 -26 -10 7 -60 69 -106 57 -42 78 -76 55 -91 -8 -5 -20 -9 -26 -9 -20 0
-16 -7 37 -73 28 -34 53 -73 56 -87 18 -77 63 -127 107 -117 12 4 27 3 34 -1
15 -10 33 -57 33 -88 0 -33 64 -97 113 -113 60 -20 71 -57 15 -52 -26 3 -31
-16 -10 -37 17 -17 83 -41 152 -56 39 -9 86 -57 105 -109 14 -37 27 -53 56
-67 38 -20 55 -37 46 -46 -2 -3 -34 11 -70 30 -35 19 -76 37 -90 40 -104 19
-149 44 -212 124 -36 43 -48 41 -40 -6 11 -69 -35 -76 -100 -15 -21 19 -38 23
-51 11 -14 -14 -51 -8 -74 12 -33 29 -61 33 -95 16 -39 -21 -36 -21 -119 19
-80 40 -101 39 -111 -6 l-7 -30 -34 31 c-19 16 -38 30 -42 30 -4 0 -13 -13
-19 -30 -14 -36 -39 -39 -78 -8 l-27 21 -54 -26 -54 -27 -54 26 c-64 30 -90
29 -94 -6 -5 -37 -28 -51 -62 -38 -23 7 -34 6 -52 -6 -28 -20 -55 -20 -89 -2
-35 18 -59 4 -59 -34 0 -34 -12 -38 -90 -29 -72 8 -86 3 -111 -37 -11 -19 -24
-35 -27 -35 -4 -1 -19 -2 -33 -3 -15 -1 -33 -7 -41 -14 -8 -6 -18 -9 -21 -5
-4 3 -7 2 -7 -4 0 -8 -13 -8 -41 -2 -50 12 -59 6 -59 -36 0 -43 -17 -53 -103
-57 -37 -2 -67 -6 -67 -9 0 -25 55 -78 116 -111 64 -34 75 -37 98 -27 23 11
31 9 56 -10 75 -55 105 -71 134 -71 17 0 60 -9 96 -21 36 -11 81 -23 100 -26
19 -3 52 -14 72 -24 42 -21 80 -24 110 -8 13 7 23 8 27 1 5 -8 36 -21 66 -28
6 -1 30 -10 55 -18 29 -11 58 -14 86 -10 36 5 45 2 75 -24 55 -48 89 -47 89 4
0 31 3 35 20 30 11 -3 29 -8 39 -11 11 -3 22 -1 26 4 7 12 150 5 172 -8 8 -4
35 -3 60 3 40 9 50 7 89 -13 54 -29 78 -23 64 15 -6 15 -8 30 -4 33 3 3 33 6
65 6 35 0 63 5 67 12 4 7 32 12 67 12 48 0 62 3 74 20 9 11 32 23 51 27 19 3
55 12 80 20 25 8 63 13 85 11 29 -1 40 2 41 13 0 8 2 23 2 32 3 33 38 41 81
18 46 -23 67 -25 74 -7 3 7 6 5 6 -6 1 -26 -27 -32 -59 -13 -57 33 -85 15 -73
-45 8 -40 -9 -50 -69 -43 -40 5 -49 4 -54 -11 -4 -10 0 -30 10 -45 19 -33 21
-60 5 -60 -7 0 -29 5 -51 12 -48 14 -60 5 -62 -49 -2 -38 -3 -38 -44 -39 -52
-1 -56 -5 -54 -51 2 -43 -12 -63 -43 -63 -21 0 -55 -27 -55 -44 0 -5 -11 -17
-24 -27 -16 -12 -22 -26 -19 -41 6 -30 -14 -81 -28 -73 -5 4 -22 4 -36 0 -22
-5 -24 -10 -19 -33 17 -68 6 -82 -60 -74 -39 4 -44 2 -44 -16 0 -12 9 -37 21
-57 30 -50 20 -76 -49 -122 l-57 -38 -2 -83 c-3 -85 -14 -122 -37 -122 -7 0
-18 -10 -24 -23 -16 -32 -32 -133 -26 -165 5 -24 1 -29 -34 -45 -37 -16 -40
-20 -32 -45 4 -15 16 -41 26 -58 16 -28 16 -35 3 -65 -7 -19 -12 -39 -11 -46
1 -7 -12 -16 -30 -21 -30 -8 -33 -12 -32 -43 1 -19 7 -64 13 -101 11 -60 11
-71 -5 -97 -19 -32 -17 -39 27 -107 18 -29 18 -33 4 -47 -19 -20 -3 -31 31
-23 33 9 46 44 27 73 -19 28 -9 45 21 37 15 -3 40 3 67 16 23 12 53 23 65 25
13 1 40 15 60 30 36 28 41 48 20 95 -5 13 9 20 71 35 127 30 139 39 147 118 3
33 72 106 99 107 30 0 78 40 94 77 7 19 17 62 20 96 3 34 7 64 9 65 1 2 20 -2
40 -8 35 -12 39 -11 56 10 23 29 23 43 -4 90 -13 21 -20 41 -17 44 3 4 21 1
39 -5 46 -17 64 7 55 74 -7 56 4 65 57 43 19 -8 38 -12 42 -9 12 12 6 43 -14
75 -11 18 -20 36 -20 40 0 16 34 38 60 38 36 0 46 15 30 45 -10 18 -10 31 -1
57 7 18 16 57 21 86 6 34 17 59 30 70 17 14 22 30 24 82 2 36 6 72 10 82 4 9
8 38 9 65 2 50 4 51 52 42 29 -6 30 24 2 68 -19 30 -22 44 -15 68 5 17 6 49 3
73 -8 52 7 55 24 5 9 -28 10 -45 2 -66 -12 -32 -13 -31 36 -103 36 -53 37 -58
30 -139 -3 -28 1 -63 7 -80 7 -16 16 -48 20 -70 4 -22 21 -61 38 -88 26 -41
29 -53 24 -92 -6 -36 -4 -45 8 -45 15 0 28 -27 31 -70 1 -14 11 -45 22 -70 11
-25 29 -67 39 -95 14 -35 34 -61 69 -90 76 -61 95 -87 97 -136 2 -47 39 -98
89 -125 15 -8 41 -33 57 -57 16 -23 53 -65 81 -94 31 -30 56 -66 62 -87 6 -20
14 -34 20 -31 5 4 9 2 9 -4 0 -16 45 -42 91 -52 23 -6 57 -23 76 -39 18 -17
51 -39 72 -50 51 -26 72 -47 64 -67 -5 -12 -3 -14 7 -8 8 5 11 4 6 -3 -3 -6 5
-23 19 -38 21 -22 34 -28 62 -26 28 2 43 -4 67 -27 27 -26 33 -28 49 -17 17
13 14 46 -4 46 -15 0 -28 43 -17 56 5 7 17 10 27 7 13 -3 21 2 26 16 5 17 -2
32 -29 61 -20 22 -36 43 -36 46 0 3 10 14 22 24 30 24 26 82 -13 158 -16 31
-29 71 -29 88 0 16 -11 61 -23 99 -20 59 -30 74 -68 101 -54 38 -65 67 -21 54
58 -16 68 27 23 93 -15 23 -36 67 -44 98 -9 31 -28 68 -42 83 -14 15 -25 31
-25 35 0 5 -7 14 -15 21 -23 19 -18 40 9 40 41 0 42 21 2 54 -94 78 -126 114
-126 140 0 17 -14 41 -40 68 -44 47 -51 69 -20 61 12 -3 20 0 20 7 0 13 -25
36 -90 82 -61 43 -84 68 -165 176 l-69 94 -38 -6 c-33 -6 -42 -2 -75 29 -20
19 -44 35 -53 35 -9 0 -28 12 -41 28 -43 46 -101 132 -90 132 6 0 17 -11 26
-23 23 -36 61 -53 80 -37 13 11 23 10 59 -8 24 -12 57 -24 74 -26 17 -2 43
-11 56 -20 14 -9 32 -16 40 -16 9 0 41 -12 73 -26 52 -23 62 -24 95 -13 31 10
41 9 62 -5 14 -9 30 -16 36 -16 6 0 30 -9 55 -21 32 -15 53 -19 72 -13 40 11
52 7 102 -32 55 -42 76 -44 68 -6 -3 15 -9 36 -13 46 -6 17 -4 18 17 12 13 -5
70 -10 127 -12 57 -2 120 -8 140 -14 26 -7 46 -6 68 2 27 9 36 7 78 -17 26
-15 50 -25 53 -21 4 3 2 22 -4 41 -14 44 2 56 56 42 33 -9 43 -7 74 12 31 19
40 20 59 10 36 -19 60 -17 113 12 56 31 164 61 212 60 25 -1 35 5 52 34 23 39
35 42 85 19 46 -23 70 -13 64 26 -4 29 15 60 28 47 4 -3 23 0 43 8 20 8 49 16
65 18 19 2 30 10 32 21 4 28 35 56 61 56 12 0 23 5 23 11 0 8 -12 10 -35 6
-41 -7 -67 11 -119 81 -34 47 -55 56 -83 39 -7 -4 -30 11 -57 38 -40 41 -48
45 -66 35 -13 -7 -19 -18 -16 -26 10 -27 -19 -14 -49 22 -48 58 -55 64 -81 64
-16 0 -28 -8 -36 -25 -6 -14 -15 -25 -19 -25 -4 0 -27 18 -51 40 -71 67 -147
97 -169 67 -3 -5 -22 2 -43 13 -44 27 -61 22 -69 -20 l-7 -32 -30 22 c-16 12
-30 25 -30 30 0 5 -12 17 -26 26 -25 17 -26 17 -49 -12 -19 -24 -29 -28 -64
-25 -23 1 -62 11 -87 22 -24 11 -63 19 -86 19 -24 -1 -59 2 -79 5 -36 7 -61
-6 -72 -37 -3 -9 -13 -4 -30 15 -31 32 -63 35 -72 7 -17 -53 -68 -64 -135 -30
-22 11 -49 20 -60 20 -22 0 -40 -32 -34 -62 4 -22 -12 -23 -50 -3 -33 17 -56
13 -56 -9 0 -27 -59 -37 -87 -14 -24 19 -57 4 -76 -34 -20 -44 -18 -43 -80
-22 -59 20 -73 15 -93 -35 -19 -49 -67 -81 -118 -81 -20 0 -36 4 -36 8 0 10
44 32 64 32 7 0 23 21 35 48 35 73 63 100 112 107 66 10 86 27 98 85 6 28 18
65 27 81 13 27 19 29 45 24 26 -6 35 -1 79 44 43 45 50 57 50 92 0 29 7 47 25
65 14 14 30 22 35 19 13 -8 50 13 50 29 0 7 9 21 20 31 22 20 20 57 -5 85 -24
26 -18 40 18 40 18 0 42 6 52 14 18 13 18 18 8 58 -15 55 -3 69 38 45 61 -35
83 -13 50 51 -29 56 -14 92 37 92 16 0 22 5 20 18 -2 9 -7 20 -13 24 -6 4 -2
27 9 59 10 28 19 59 20 68 1 9 14 37 29 63 39 65 38 98 -4 137 l-34 32 30 -5
c34 -7 47 0 64 32 10 19 10 31 -4 64 -17 44 -8 63 27 52 25 -8 31 12 17 65 -8
33 -9 53 -2 66 7 12 7 31 0 57 -7 29 -6 45 3 62 10 19 9 29 -2 52 -19 38 -13
63 23 96 28 26 36 58 23 92 -8 21 -16 20 -42 -4z m-2172 -232 c0 -4 -7 -8 -15
-8 -8 0 -15 4 -15 8 0 5 7 9 15 9 8 0 15 -4 15 -9z"/>
</g>
</svg>
