<?xml version="1.0" standalone="no"?>
<!DOCTYPE svg PUBLIC "-//W3C//DTD SVG 20010904//EN"
 "http://www.w3.org/TR/2001/REC-SVG-20010904/DTD/svg10.dtd">
<svg version="1.0" xmlns="http://www.w3.org/2000/svg"
 width="558.000000pt" height="558.000000pt" viewBox="0 0 558.000000 558.000000"
 preserveAspectRatio="xMidYMid meet">
<metadata>
Created by potrace 1.13, written by Peter Selinger 2001-2015
</metadata>
<g transform="translate(0.000000,558.000000) scale(0.100000,-0.100000)"
fill="#000000" stroke="none">
<path d="M1720 4667 c-3 -3 -57 -8 -120 -12 -63 -4 -123 -9 -134 -11 -10 -2
-51 -6 -90 -10 -39 -3 -82 -8 -96 -10 -14 -2 -54 -6 -90 -10 -111 -9 -112 -9
-105 -52 4 -20 10 -57 15 -82 5 -25 12 -58 14 -75 3 -16 7 -41 10 -55 3 -14 7
-36 10 -50 3 -14 7 -36 10 -50 3 -13 8 -40 11 -60 3 -20 7 -45 9 -57 26 -131
26 -440 1 -576 -2 -15 -9 -53 -15 -85 -15 -86 -17 -93 -60 -287 -22 -99 -42
-191 -44 -205 -3 -14 -7 -36 -10 -50 -12 -52 -45 -237 -51 -280 -3 -25 -8 -52
-10 -60 -2 -8 -7 -44 -10 -80 -3 -36 -8 -81 -10 -100 -11 -92 -16 -191 -17
-365 -1 -167 9 -431 17 -476 2 -8 6 -55 10 -105 4 -49 9 -96 10 -104 2 -9 6
-43 10 -75 3 -33 10 -91 15 -130 5 -38 12 -99 16 -135 3 -36 8 -72 9 -81 2 -9
4 -41 6 -70 2 -55 14 -93 27 -85 4 2 48 7 97 11 50 4 100 8 113 10 13 2 53 7
90 10 37 4 78 8 92 11 116 19 545 26 715 11 73 -6 317 -35 620 -72 22 -3 65
-7 95 -10 30 -3 71 -8 90 -10 241 -27 939 -27 1180 0 46 5 150 13 280 21 58 4
116 8 130 9 14 2 65 3 114 4 l89 1 -6 158 c-3 86 -8 171 -11 187 -3 17 -8 59
-11 95 -4 36 -8 72 -10 80 -1 8 -6 46 -9 83 -4 37 -9 77 -11 89 -10 48 -19
234 -19 373 0 179 14 370 38 515 3 14 7 48 10 75 3 28 8 59 10 70 2 11 7 45
10 75 4 30 8 66 10 80 2 14 7 52 11 85 4 32 8 66 10 75 1 8 6 51 10 94 4 43 8
87 10 96 26 133 26 871 1 1095 -3 22 -7 76 -10 120 -3 44 -8 105 -11 135 -3
30 -7 86 -10 123 -2 38 -7 72 -9 76 -3 4 -29 5 -58 0 -29 -4 -77 -10 -107 -13
-29 -4 -56 -8 -60 -10 -3 -2 -29 -6 -58 -10 -28 -3 -57 -8 -65 -10 -7 -3 -31
-8 -52 -11 -21 -3 -48 -7 -60 -10 -30 -7 -75 -15 -121 -21 -22 -3 -51 -7 -65
-10 -71 -12 -178 -19 -295 -19 -197 0 -262 9 -670 90 -148 29 -288 57 -310 61
-22 4 -42 8 -45 9 -3 0 -30 5 -60 9 -30 4 -64 10 -75 11 -28 5 -90 13 -160 20
-33 4 -71 9 -85 11 -34 7 -694 17 -700 11z"/>
</g>
</svg>
