<?xml version="1.0" standalone="no"?>
<!DOCTYPE svg PUBLIC "-//W3C//DTD SVG 20010904//EN"
 "http://www.w3.org/TR/2001/REC-SVG-20010904/DTD/svg10.dtd">
<svg version="1.0" xmlns="http://www.w3.org/2000/svg"
 width="558.000000pt" height="558.000000pt" viewBox="0 0 558.000000 558.000000"
 preserveAspectRatio="xMidYMid meet">
<metadata>
Created by potrace 1.13, written by Peter Selinger 2001-2015
</metadata>
<g transform="translate(0.000000,558.000000) scale(0.100000,-0.100000)"
fill="#000000" stroke="none">
<path d="M2906 5013 c-2 -10 -8 -52 -11 -93 -4 -41 -8 -82 -10 -90 -1 -8 -6
-60 -10 -115 -4 -55 -8 -106 -10 -115 -1 -8 -6 -51 -10 -95 -8 -97 -14 -142
-20 -175 -2 -14 -7 -45 -10 -70 -15 -107 -57 -281 -91 -372 -12 -33 -11 -40 9
-80 18 -35 22 -60 22 -138 0 -86 -3 -100 -28 -142 -67 -114 -224 -167 -389
-132 -86 18 -99 17 -129 -9 -15 -12 -41 -33 -59 -47 -78 -60 -113 -92 -255
-234 -353 -353 -545 -690 -801 -1401 -115 -319 -176 -478 -216 -570 -63 -143
-73 -129 88 -121 76 4 159 9 184 11 126 12 164 15 265 22 61 4 248 8 417 8
299 0 307 0 330 -21 48 -45 182 -124 260 -154 134 -52 244 -72 398 -72 189 0
332 35 460 113 l45 27 410 5 c226 4 430 8 455 11 45 5 125 10 340 22 63 3 133
7 155 9 22 2 66 3 98 4 35 1 57 5 57 12 0 36 -259 367 -446 569 -61 66 -83 91
-144 160 -30 35 -60 68 -65 74 -36 37 -169 214 -216 286 -138 213 -204 402
-264 750 -15 85 -29 158 -31 162 -3 4 -19 8 -36 8 -39 0 -113 42 -156 89 -37
42 -92 143 -126 233 -29 78 -72 251 -83 338 -14 114 -9 288 11 370 l18 75 -52
135 c-52 138 -110 273 -210 490 -32 69 -74 160 -94 203 -19 42 -37 77 -40 77
-3 0 -7 -8 -10 -17z"/>
</g>
</svg>
