<?xml version="1.0" standalone="no"?>
<!DOCTYPE svg PUBLIC "-//W3C//DTD SVG 20010904//EN"
 "http://www.w3.org/TR/2001/REC-SVG-20010904/DTD/svg10.dtd">
<svg version="1.0" xmlns="http://www.w3.org/2000/svg"
 width="512.000000pt" height="512.000000pt" viewBox="0 0 512.000000 512.000000"
 preserveAspectRatio="xMidYMid meet">
<metadata>
Created by potrace 1.13, written by Peter Selinger 2001-2015
</metadata>
<g transform="translate(0.000000,512.000000) scale(0.100000,-0.100000)"
fill="#000000" stroke="none">
<path d="M3779 4820 c-39 -32 -43 -36 -58 -58 -8 -12 -18 -19 -22 -16 -5 3
-22 -10 -38 -28 -17 -18 -35 -37 -41 -43 -7 -5 -22 -21 -35 -34 -31 -29 -89
-61 -114 -61 -23 0 -61 45 -61 72 0 30 -32 78 -51 78 -18 0 -132 -107 -136
-127 -2 -7 -19 -29 -39 -50 -20 -20 -40 -47 -44 -59 -5 -12 -25 -34 -44 -49
-36 -27 -37 -27 -94 -13 -51 12 -59 12 -72 -2 -20 -21 -52 -70 -45 -70 3 0 -4
-9 -15 -20 -12 -12 -18 -25 -15 -29 2 -5 -2 -11 -10 -14 -8 -4 -12 -15 -10
-27 2 -11 0 -20 -6 -20 -5 0 -9 -6 -9 -14 0 -8 -6 -21 -12 -28 -7 -7 -15 -22
-16 -33 -2 -11 -9 -23 -15 -27 -6 -4 -9 -10 -5 -13 10 -10 -42 -55 -64 -55
-23 0 -47 26 -48 53 0 9 -5 17 -11 17 -5 0 -8 4 -5 9 4 5 1 11 -6 13 -17 6
-52 -28 -43 -41 3 -6 2 -11 -3 -11 -8 0 -39 -136 -34 -152 1 -5 -2 -8 -7 -8
-5 0 -9 -15 -9 -34 0 -43 -8 -56 -33 -56 -26 0 -58 38 -54 62 2 10 -1 18 -7
18 -5 0 -8 7 -4 15 3 8 2 15 -3 15 -5 0 -14 20 -20 45 -17 66 -58 154 -75 161
-9 3 -25 -5 -39 -20 -13 -14 -34 -26 -46 -26 -29 0 -63 19 -56 31 4 5 1 9 -4
9 -6 0 -11 6 -11 14 0 8 -4 16 -8 18 -10 4 -87 160 -84 171 1 4 -2 7 -7 7 -5
0 -14 14 -22 32 -11 28 -27 47 -86 111 -25 26 -40 21 -69 -23 -21 -32 -33 -40
-56 -40 -33 0 -105 46 -113 72 -4 10 -9 17 -13 15 -4 -1 -25 16 -46 38 -22 22
-43 40 -48 40 -5 0 -12 5 -16 10 -4 6 -19 18 -34 28 -27 17 -28 16 -53 -11
-14 -15 -28 -37 -31 -49 -4 -16 -18 -26 -44 -33 -37 -10 -42 -8 -104 36 -36
25 -66 50 -66 55 0 6 -5 7 -10 4 -6 -3 -10 -2 -10 3 0 5 -28 22 -62 37 -45 20
-66 25 -77 18 -29 -18 -27 -34 34 -273 30 -122 34 -172 13 -197 -6 -7 -28 -18
-50 -25 -43 -13 -66 -45 -53 -75 4 -10 9 -25 10 -33 3 -27 29 -90 36 -90 4 0
10 -13 14 -30 4 -16 10 -30 15 -30 8 0 25 -48 22 -62 -1 -5 2 -8 7 -8 6 0 10
-9 10 -20 1 -11 1 -30 1 -42 1 -37 -26 -49 -102 -44 -37 2 -70 1 -73 -4 -6
-10 14 -72 29 -85 6 -6 12 -17 14 -25 2 -8 14 -25 28 -38 13 -14 24 -30 24
-36 0 -6 9 -17 20 -24 11 -7 20 -19 20 -27 0 -8 4 -15 9 -15 13 0 41 -58 41
-84 0 -27 -9 -40 -36 -54 -18 -10 -21 -19 -19 -58 2 -26 8 -51 14 -57 16 -16
13 -67 -4 -73 -21 -8 -112 -8 -160 0 -142 24 -292 27 -304 8 -5 -9 -1 -29 10
-52 11 -22 19 -47 19 -57 -1 -22 -25 -55 -33 -46 -4 3 -7 2 -7 -4 0 -12 -40
-22 -117 -30 -29 -3 -53 -8 -53 -13 0 -4 -17 -10 -39 -14 -21 -3 -44 -12 -51
-20 -13 -17 -6 -52 18 -79 9 -10 16 -34 16 -53 0 -46 -26 -66 -105 -83 -33 -8
-62 -17 -64 -22 -3 -4 -14 -6 -25 -4 -11 2 -20 0 -20 -4 0 -5 -28 -14 -63 -20
-34 -7 -74 -16 -89 -21 -87 -31 -88 -31 -88 -64 0 -28 5 -34 35 -46 32 -13 40
-21 36 -42 0 -5 3 -8 9 -8 5 0 7 -7 4 -15 -4 -9 0 -15 8 -15 8 0 36 -14 63
-32 l47 -32 -5 -59 c-5 -54 -3 -62 20 -83 14 -13 28 -22 32 -22 3 1 15 -3 26
-9 11 -6 54 -16 95 -23 41 -7 84 -14 95 -17 11 -2 41 -8 67 -13 55 -11 86 -28
94 -52 6 -19 -4 -59 -15 -68 -4 -3 -17 -19 -29 -37 l-22 -32 22 -20 c19 -18
72 -28 111 -22 4 1 66 2 138 2 146 1 162 -5 173 -65 5 -27 12 -35 37 -40 17
-3 35 -4 39 -1 8 5 21 8 98 20 18 2 45 11 60 18 15 7 34 13 42 12 8 -1 28 5
43 13 16 7 31 11 34 8 3 -3 22 2 42 10 39 16 76 12 84 -10 9 -23 -4 -55 -24
-61 -11 -4 -16 -11 -13 -17 5 -7 1 -9 -9 -5 -11 4 -17 1 -17 -9 0 -8 -4 -12
-10 -9 -5 3 -10 1 -10 -5 0 -6 -5 -8 -12 -4 -8 5 -9 2 -5 -10 4 -10 3 -15 -3
-11 -11 7 -62 -40 -54 -48 3 -3 -4 -8 -15 -12 -12 -3 -19 -9 -17 -13 4 -7 -13
-27 -26 -30 -11 -3 -49 -42 -41 -42 4 0 2 -5 -5 -12 -21 -21 -13 -37 23 -44
19 -3 38 -11 43 -18 13 -16 21 -66 11 -66 -5 0 -9 -8 -9 -18 0 -11 -9 -27 -20
-37 -11 -10 -20 -23 -20 -30 0 -7 -9 -22 -20 -35 -19 -22 -24 -35 -21 -52 0
-5 -3 -8 -8 -8 -9 0 -21 -25 -27 -55 -1 -5 -3 -14 -4 -20 -6 -24 2 -35 24 -35
42 0 84 -20 90 -44 6 -24 -20 -127 -34 -136 -11 -7 -60 -126 -60 -145 0 -8 -4
-15 -9 -15 -8 0 -24 -55 -18 -64 1 -1 -4 -10 -11 -19 -17 -21 -23 -72 -12
-101 7 -20 18 -25 70 -31 53 -6 62 -11 75 -35 14 -27 15 -95 1 -150 -3 -14 -8
-45 -10 -70 -2 -25 -7 -70 -12 -100 l-7 -54 24 15 c13 9 37 24 54 35 16 10 39
28 50 39 52 49 151 132 177 148 42 25 73 22 97 -12 12 -16 21 -37 21 -48 0
-10 9 -37 20 -60 l19 -43 32 14 c17 7 36 22 42 32 6 11 23 30 39 44 15 13 28
28 28 32 0 7 43 58 106 125 37 39 71 43 118 13 31 -19 76 -18 76 2 0 5 11 20
25 34 25 25 60 84 50 84 -7 0 65 141 83 163 25 29 64 21 90 -18 12 -19 22 -38
22 -43 0 -4 7 -18 16 -30 20 -29 36 -18 54 38 7 22 17 40 21 40 4 0 6 8 4 18
-1 9 2 22 7 29 5 7 7 16 4 21 -9 15 37 62 61 62 23 0 78 -64 68 -80 -3 -6 -2
-10 3 -10 5 0 21 -31 36 -69 27 -70 55 -111 74 -111 5 0 18 12 28 28 23 35 44
51 68 52 20 0 82 -60 97 -95 5 -11 18 -33 28 -50 10 -16 16 -33 14 -37 -2 -5
1 -8 7 -8 6 0 8 -4 5 -10 -3 -5 -1 -10 5 -10 6 0 14 -10 19 -23 17 -43 105
-141 123 -135 7 3 26 24 43 48 17 25 42 47 56 51 33 8 88 -23 158 -89 61 -59
125 -97 147 -88 8 3 19 18 24 33 21 56 46 94 65 99 21 5 95 -21 95 -34 0 -6
59 -24 129 -38 14 -3 28 -7 32 -9 13 -8 30 22 31 56 1 34 -17 125 -32 164 -23
57 -41 126 -47 176 -7 67 12 110 57 129 28 11 37 32 30 65 -1 6 -3 15 -4 20
-1 6 -5 16 -9 23 -5 6 -5 12 -1 12 3 0 0 10 -8 23 -8 12 -18 34 -22 50 -3 15
-11 27 -16 27 -6 0 -10 6 -10 14 0 8 -3 16 -7 18 -11 4 -43 67 -43 84 0 8 -3
14 -7 14 -13 0 -15 88 -3 95 7 4 39 8 73 9 47 2 63 6 65 18 2 9 -2 19 -7 23
-6 3 -11 13 -11 21 0 14 -7 24 -38 59 -7 8 -11 15 -8 15 3 0 -8 14 -26 30 -17
17 -28 30 -25 30 3 0 -15 21 -39 48 -25 26 -51 54 -59 63 -8 9 -15 21 -15 28
0 7 -4 9 -10 6 -17 -10 1 59 19 75 9 8 20 23 24 33 5 13 13 16 27 12 18 -6 19
-5 5 22 -24 45 -19 72 13 78 57 12 62 13 62 6 0 -7 6 -8 70 -12 19 -1 40 -6
47 -11 6 -5 29 -11 50 -13 21 -2 54 -6 73 -9 19 -3 70 -8 113 -11 93 -6 112 4
93 50 -6 15 -10 43 -8 62 3 26 10 34 31 39 14 4 31 10 36 14 6 4 42 10 80 14
78 7 162 31 184 52 13 12 12 19 -7 57 -12 24 -22 51 -22 60 0 35 61 69 169 92
11 3 29 7 39 10 9 2 49 12 87 20 39 9 100 25 137 38 65 21 68 23 68 54 0 23
-5 33 -20 38 -19 6 -56 62 -52 77 1 4 -13 14 -32 22 -49 20 -70 57 -61 103 18
86 17 89 -36 117 -26 15 -79 33 -116 41 -71 14 -76 15 -162 38 -85 23 -93 60
-31 148 59 84 46 97 -100 105 -222 11 -231 12 -251 35 -13 15 -18 32 -15 50
10 68 -46 77 -236 35 -16 -4 -41 -8 -57 -10 -15 -2 -33 -6 -39 -10 -6 -4 -30
-2 -53 4 -39 11 -41 13 -35 43 4 22 28 52 71 95 36 34 66 67 68 73 1 7 12 23
25 37 12 14 22 31 22 38 0 14 -47 31 -57 21 -3 -4 -18 0 -34 9 -38 19 -38 48
1 123 16 32 26 61 23 65 -4 3 -1 6 6 6 10 0 30 35 36 66 2 6 6 20 9 31 9 28
-12 41 -68 44 -37 2 -51 8 -63 25 -13 20 -12 30 3 83 9 34 20 61 24 61 7 0 21
49 19 66 0 4 4 10 10 14 6 3 13 16 15 27 3 12 11 34 19 50 17 33 26 67 33 128
6 51 0 54 -93 52 -39 -1 -58 4 -74 19 -20 18 -21 25 -15 99 15 173 18 263 8
269 -5 3 -20 -3 -33 -14z"/>
</g>
</svg>
