<?xml version="1.0" standalone="no"?>
<!DOCTYPE svg PUBLIC "-//W3C//DTD SVG 20010904//EN"
 "http://www.w3.org/TR/2001/REC-SVG-20010904/DTD/svg10.dtd">
<svg version="1.0" xmlns="http://www.w3.org/2000/svg"
 width="558.000000pt" height="558.000000pt" viewBox="0 0 558.000000 558.000000"
 preserveAspectRatio="xMidYMid meet">
<metadata>
Created by potrace 1.13, written by Peter Selinger 2001-2015
</metadata>
<g transform="translate(0.000000,558.000000) scale(0.100000,-0.100000)"
fill="#000000" stroke="none">
<path d="M636 4440 c-16 -44 -17 -57 -6 -94 9 -32 9 -49 1 -64 -15 -28 -15
-26 19 -64 42 -46 40 -61 -9 -53 -33 5 -41 3 -50 -12 -10 -20 -9 -23 42 -105
l27 -45 -21 -48 c-19 -43 -20 -55 -10 -97 7 -32 7 -56 1 -74 -9 -22 -6 -31 20
-61 38 -43 35 -59 -13 -55 -27 3 -38 -1 -46 -16 -9 -16 -3 -31 30 -79 l40 -60
-21 -52 c-29 -73 -27 -91 9 -91 17 0 33 -4 36 -10 3 -5 15 -10 26 -10 14 0 21
9 25 29 10 47 69 61 209 49 27 -3 30 0 31 27 0 32 -1 31 66 18 18 -3 40 2 64
16 33 20 38 20 60 7 15 -10 57 -17 121 -21 116 -6 123 -6 123 -15 0 -4 6 -7
14 -7 9 0 14 10 13 26 -3 36 23 38 72 5 37 -24 45 -25 81 -16 34 8 44 7 64 -9
13 -10 39 -19 58 -19 18 0 49 -10 68 -22 24 -14 49 -21 78 -19 54 3 109 -34
159 -104 13 -18 58 -50 112 -78 114 -60 138 -81 184 -155 30 -49 35 -65 30
-95 -5 -32 -1 -40 45 -89 59 -64 84 -108 71 -129 -26 -41 -2 -94 62 -135 38
-24 57 -49 46 -60 -2 -3 -20 4 -38 15 -19 12 -37 21 -41 21 -15 0 -8 -46 12
-84 14 -29 18 -50 13 -81 -3 -26 -1 -45 6 -49 6 -4 11 -25 11 -47 0 -22 7 -54
16 -70 11 -21 13 -43 8 -74 -6 -40 -3 -49 30 -94 42 -57 43 -67 14 -98 -23
-24 -26 -55 -15 -145 4 -27 2 -35 -8 -32 -19 8 -13 -51 7 -73 16 -17 15 -20
-8 -42 -13 -13 -24 -28 -24 -35 0 -6 16 -36 35 -66 41 -64 42 -73 13 -104 -13
-13 -25 -30 -27 -37 -8 -29 -8 -80 1 -85 5 -3 0 -20 -11 -37 -17 -29 -18 -35
-6 -65 13 -29 12 -37 -2 -67 -16 -34 -16 -35 15 -85 18 -28 32 -58 32 -65 0
-17 -37 -38 -55 -32 -22 9 -36 -162 -20 -245 4 -22 2 -50 -6 -71 -14 -40 -6
-78 13 -59 20 20 46 14 99 -23 57 -39 68 -41 109 -20 15 8 41 14 57 14 112 -1
153 -6 170 -20 10 -9 28 -22 41 -28 22 -12 23 -11 21 26 -5 74 20 81 99 26
l53 -36 48 17 c27 9 58 18 70 19 15 1 21 8 21 24 0 12 -4 24 -9 27 -5 3 -14
20 -20 36 -9 26 -7 33 12 51 15 13 21 29 19 49 -2 16 1 37 7 48 8 15 3 30 -25
76 -33 52 -35 59 -24 86 14 34 0 109 -32 174 -14 27 -18 49 -13 72 4 25 -1 47
-19 86 -22 46 -23 54 -11 77 12 25 12 86 -2 141 -8 33 -5 51 14 72 15 17 13
21 -30 60 -26 23 -47 45 -47 49 0 4 14 9 31 11 51 5 58 28 26 93 -32 65 -32
71 -11 114 12 25 15 47 10 90 -5 46 -3 61 9 71 17 14 20 50 4 50 -5 0 -8 4 -5
8 3 5 -9 17 -27 28 l-32 19 33 3 c49 5 61 39 38 103 l-17 50 25 30 c14 17 23
36 19 45 -3 8 5 29 17 46 21 29 22 38 17 123 -6 81 -4 95 12 109 10 9 24 16
32 16 8 0 27 20 42 44 l28 45 -20 40 c-32 61 -28 69 27 73 l47 3 -3 58 c-3 69
9 78 62 46 51 -30 62 -17 45 51 -15 58 -7 71 41 69 59 -3 62 -1 59 35 -4 44 3
51 48 47 26 -2 42 3 62 22 14 14 40 27 56 29 22 2 31 9 33 25 6 38 26 47 82
33 68 -16 98 -7 116 35 19 45 53 68 85 57 38 -14 239 14 262 37 16 16 46 13
93 -10 56 -26 86 -14 84 34 -3 54 -1 54 44 3 45 -51 82 -68 188 -85 25 -4 65
-20 87 -35 22 -15 57 -34 78 -42 39 -13 105 -19 115 -8 6 5 -10 62 -33 121
-15 37 0 64 31 58 15 -3 19 5 25 56 6 54 5 64 -19 99 -33 50 -33 73 0 99 l25
20 -36 92 c-20 50 -35 99 -33 108 2 9 15 17 30 19 24 3 27 8 33 63 6 54 5 63
-19 98 -34 49 -33 77 4 99 28 17 29 20 14 41 -9 12 -23 45 -32 74 -16 49 -19
52 -52 53 -20 1 -45 6 -57 12 -25 14 -33 7 -33 -28 l0 -27 -106 2 c-93 1 -108
-1 -134 -20 -17 -12 -26 -26 -22 -31 4 -5 -5 1 -19 14 -33 29 -62 28 -78 -2
-14 -25 -50 -46 -79 -46 -9 1 -42 11 -72 25 -60 25 -82 20 -79 -19 4 -53 -14
-61 -59 -26 l-26 21 -23 -26 c-27 -28 -50 -32 -79 -10 -30 23 -61 18 -91 -15
-14 -16 -32 -30 -38 -30 -7 0 -32 13 -56 30 -42 28 -87 41 -74 21 3 -5 -5 -22
-19 -37 -23 -27 -25 -28 -63 -15 -35 11 -44 11 -73 -4 -31 -16 -34 -16 -61 4
-40 30 -67 28 -71 -6 -3 -24 -8 -28 -40 -31 -22 -2 -57 6 -87 19 l-50 21 -31
-26 c-37 -31 -48 -32 -90 -8 -31 17 -31 17 -50 -7 -11 -12 -18 -27 -15 -31 7
-12 -37 0 -55 15 -26 21 -48 24 -60 9 -17 -19 -46 -18 -125 7 l-67 20 -37 -25
c-44 -31 -49 -31 -80 -7 -26 20 -51 18 -51 -4 0 -24 -37 -27 -76 -6 -27 14
-42 17 -55 11 -27 -15 -56 -12 -130 12 l-67 21 -37 -23 -37 -23 -41 23 -40 23
-23 -28 -23 -29 -40 29 c-23 15 -41 32 -41 36 0 5 -4 9 -10 9 -5 0 -9 -3 -9
-7 4 -22 -3 -31 -25 -37 -26 -6 -96 15 -136 42 -32 21 -41 22 -65 2 -26 -22
-53 -31 -60 -21 -2 5 -20 16 -38 25 -27 12 -40 13 -64 4 -28 -10 -34 -9 -63
15 -41 35 -83 36 -98 2 -16 -35 -42 -31 -83 11 -41 43 -102 76 -123 68 -11 -4
-15 -16 -12 -39 5 -42 -12 -41 -59 5 l-35 34 -16 -22 c-22 -31 -48 -27 -94 14
-39 35 -41 36 -65 20 -37 -24 -86 -19 -151 15 -32 16 -81 34 -109 38 -54 9
-104 26 -147 47 -39 21 -42 19 -62 -36z"/>
</g>
</svg>
