<?xml version="1.0" standalone="no"?>
<!DOCTYPE svg PUBLIC "-//W3C//DTD SVG 20010904//EN"
 "http://www.w3.org/TR/2001/REC-SVG-20010904/DTD/svg10.dtd">
<svg version="1.0" xmlns="http://www.w3.org/2000/svg"
 width="512.000000pt" height="512.000000pt" viewBox="0 0 512.000000 512.000000"
 preserveAspectRatio="xMidYMid meet">
<metadata>
Created by potrace 1.13, written by Peter Selinger 2001-2015
</metadata>
<g transform="translate(0.000000,512.000000) scale(0.100000,-0.100000)"
fill="#000000" stroke="none">
<path d="M2530 4695 c-7 -8 -11 -32 -9 -53 l4 -38 -36 20 c-32 18 -39 19 -54
6 -14 -11 -16 -24 -11 -63 l5 -49 -47 6 c-59 8 -88 -9 -79 -45 3 -13 9 -37 13
-52 l7 -29 -31 16 c-67 34 -94 13 -85 -67 l6 -49 -44 7 c-32 4 -50 2 -64 -9
-20 -15 -20 -15 8 -65 32 -57 25 -67 -34 -51 -51 14 -59 5 -57 -59 1 -27 -3
-46 -10 -49 -7 -2 -9 -9 -6 -14 4 -7 2 -8 -4 -4 -7 4 -20 2 -29 -4 -16 -11
-16 -11 1 -5 19 6 19 5 2 -14 -22 -24 -29 -22 -90 17 -28 18 -57 32 -65 33 -9
0 -25 3 -36 5 -24 6 -63 12 -90 13 -11 1 -34 13 -51 29 -80 72 -94 81 -122 76
-33 -7 -134 41 -188 88 -32 28 -47 30 -50 7 -1 -5 -2 -13 -3 -18 -3 -21 -36
-19 -84 3 -32 14 -93 29 -157 38 -111 14 -144 13 -134 -4 9 -14 -4 -7 -74 40
-28 19 -55 32 -59 28 -4 -3 3 -27 15 -51 12 -25 22 -48 22 -51 0 -3 -16 -2
-35 2 -70 13 -92 -51 -30 -87 19 -12 35 -22 35 -23 0 0 -4 -16 -9 -33 -7 -25
-6 -37 8 -55 24 -31 32 -56 21 -63 -15 -9 -12 -48 4 -71 10 -12 13 -33 10 -59
-4 -29 1 -50 15 -75 56 -98 63 -120 53 -163 -12 -46 -6 -62 39 -115 19 -21 29
-44 29 -65 0 -24 9 -41 35 -66 19 -18 35 -37 35 -42 0 -6 6 -7 13 -3 9 6 9 5
0 -7 -7 -9 -8 -20 -3 -29 5 -8 6 -18 4 -22 -3 -4 1 -8 8 -8 7 0 27 -17 43 -37
46 -56 51 -66 58 -94 l7 -26 -41 20 c-50 24 -63 15 -64 -46 0 -39 -2 -42 -25
-39 -76 10 -95 7 -98 -13 -9 -57 -11 -61 -44 -63 -42 -3 -88 -21 -88 -35 0 -6
-3 -7 -7 -4 -10 11 -32 -26 -33 -55 0 -33 -14 -42 -57 -40 -37 3 -59 -22 -66
-73 -2 -21 -10 -31 -24 -33 -11 -2 -30 -14 -42 -26 -21 -23 -22 -26 -8 -67 18
-51 9 -59 -32 -30 -35 25 -57 27 -65 5 -15 -40 -4 -72 54 -149 33 -44 66 -93
74 -110 9 -16 16 -26 16 -22 0 5 37 -28 83 -72 61 -60 89 -81 109 -81 21 0 29
-7 38 -35 14 -42 60 -79 115 -94 22 -6 58 -24 80 -40 22 -16 49 -31 60 -33 17
-3 20 -11 19 -55 -1 -65 -38 -117 -92 -130 -40 -10 -40 -10 -31 -107 4 -37 2
-40 -28 -48 -37 -10 -54 -48 -34 -79 19 -32 13 -58 -19 -74 -34 -18 -36 -26
-14 -60 22 -33 12 -52 -27 -53 -42 -1 -51 -18 -32 -61 9 -20 18 -57 21 -82 4
-44 2 -47 -32 -67 -29 -17 -36 -28 -36 -51 0 -16 4 -33 10 -36 12 -8 13 -45 1
-45 -5 0 -11 -35 -13 -77 -4 -71 -8 -81 -37 -112 -35 -38 -58 -79 -55 -98 1
-7 2 -20 3 -28 0 -8 10 -19 21 -25 28 -15 55 2 76 46 18 37 21 38 81 19 16 -5
29 1 54 24 17 17 34 31 36 31 2 0 23 -9 47 -20 23 -10 55 -21 70 -24 24 -4 29
0 42 30 16 38 44 45 78 19 27 -20 42 -19 75 6 27 20 30 20 54 4 41 -26 67 -12
67 36 0 48 16 57 61 34 33 -18 120 -16 126 2 2 4 12 23 23 40 17 28 23 32 50
27 23 -5 45 1 88 24 31 17 74 34 95 37 26 5 35 11 28 18 -6 6 -2 17 13 33 23
26 66 40 66 22 0 -5 23 -30 50 -55 39 -35 51 -54 56 -85 8 -44 12 -50 68 -81
21 -12 46 -32 54 -45 14 -22 14 -22 -27 -22 -70 0 -45 -43 56 -94 31 -15 67
-45 90 -73 62 -78 110 -121 143 -128 17 -4 47 -20 65 -37 61 -53 115 -44 187
30 31 31 48 58 52 80 2 19 6 36 9 38 2 2 28 8 58 14 71 14 103 45 106 103 0
23 2 47 2 52 1 15 36 34 73 40 40 7 78 46 79 83 3 85 10 136 20 148 6 8 8 14
3 14 -5 0 -2 4 6 10 8 5 19 5 25 0 6 -5 17 -5 25 0 9 5 24 0 45 -16 18 -13 35
-21 38 -17 4 3 7 1 7 -5 0 -6 10 -12 23 -14 12 -2 21 -9 20 -16 -2 -6 1 -12 6
-12 5 0 16 -6 23 -13 7 -7 58 -37 113 -66 93 -49 103 -52 150 -46 47 5 54 3
91 -25 32 -26 45 -31 74 -26 28 4 44 0 72 -19 56 -38 87 -32 95 19 5 30 9 30
40 -4 32 -36 61 -53 116 -68 33 -9 41 -8 58 9 11 11 17 24 14 29 -12 20 3 9
45 -30 46 -44 58 -48 66 -25 4 8 10 12 15 9 5 -3 9 0 9 7 0 11 16 10 67 -6 21
-7 23 -4 22 31 -1 22 2 53 6 70 6 26 2 37 -23 65 -35 40 -40 63 -23 103 10 24
9 35 -4 62 -8 17 -15 39 -15 48 0 9 -11 38 -24 64 -18 37 -21 53 -14 75 8 22
5 35 -16 71 -20 34 -22 46 -13 56 10 10 9 11 -3 5 -12 -7 -13 -6 -2 6 11 12
14 12 22 -1 9 -13 10 -13 10 1 0 8 -11 30 -25 49 -14 19 -25 40 -25 47 0 8 -7
28 -16 45 -9 17 -18 52 -20 77 -3 41 -9 51 -64 101 -59 56 -68 72 -51 99 10
15 -6 36 -51 64 l-27 17 54 56 c30 31 55 62 55 69 0 23 18 27 51 10 30 -16 32
-16 85 19 45 30 56 44 66 79 8 31 16 43 31 44 11 1 47 14 81 29 57 25 64 31
89 84 15 32 27 68 27 80 0 21 4 24 52 34 30 7 76 49 98 90 12 24 12 28 0 36
-32 20 -99 76 -104 86 -2 7 5 9 20 6 62 -12 108 29 81 72 -10 15 -26 22 -53
24 -80 5 -93 11 -132 70 -37 57 -47 65 -212 167 -44 28 -80 53 -80 56 0 4 -24
32 -54 63 -56 58 -85 69 -113 41 -18 -19 -33 -11 -33 19 0 39 23 60 58 53 18
-4 32 -3 32 1 -1 13 -27 42 -32 36 -4 -3 -5 3 -4 13 1 18 40 63 68 79 10 6 18
31 23 69 5 48 12 64 33 81 21 17 27 31 29 70 1 27 2 52 2 56 1 4 11 10 24 14
31 10 36 21 25 62 -7 25 -7 47 1 73 6 20 8 50 5 67 l-6 30 41 -5 c37 -5 41 -3
41 15 0 12 -10 37 -22 58 -21 35 -21 37 -3 70 16 29 16 41 6 106 -6 40 -14 83
-17 96 -6 19 -3 22 25 22 17 0 31 1 32 3 0 1 2 21 5 43 l6 42 -57 32 c-60 35
-85 30 -85 -14 0 -39 -18 -46 -63 -26 -23 10 -45 16 -50 13 -8 -5 -38 -9 -123
-17 -22 -2 -57 -9 -77 -17 -31 -11 -41 -10 -64 2 -15 8 -33 21 -40 29 -7 8
-13 11 -14 5 0 -5 -2 -21 -3 -34 -4 -35 -34 -53 -76 -46 -19 4 -39 7 -45 8 -6
1 -9 -17 -8 -40 2 -49 -6 -53 -62 -26 -34 16 -38 16 -70 -1 -20 -11 -45 -16
-61 -13 -36 7 -54 -1 -54 -23 0 -20 -23 -42 -42 -39 -33 4 -48 -3 -64 -29 -9
-16 -42 -42 -73 -59 -45 -25 -61 -29 -80 -22 -14 6 -31 7 -39 4 -14 -5 -52 29
-52 47 0 10 22 6 31 -5 11 -15 50 -16 55 -2 6 15 -44 115 -57 115 -5 0 -6 6
-3 14 3 8 -3 19 -14 25 -23 12 -36 3 -21 -16 20 -23 -16 -15 -42 10 -38 37
-88 97 -80 97 11 0 12 50 1 71 -15 27 -47 42 -67 30 -23 -12 -66 34 -89 94
-14 37 -22 45 -62 57 -47 15 -67 42 -101 131 -12 31 -50 37 -71 12z m-572
-713 c4 -26 -23 -31 -32 -6 -10 25 -7 32 12 30 9 -2 18 -13 20 -24z m2053
-861 c6 10 9 5 9 -15 0 -28 -1 -29 -15 -10 -8 10 -14 24 -14 29 0 6 3 4 6 -4
5 -11 7 -11 14 0z"/>
</g>
</svg>
