<?xml version="1.0" standalone="no"?>
<!DOCTYPE svg PUBLIC "-//W3C//DTD SVG 20010904//EN"
 "http://www.w3.org/TR/2001/REC-SVG-20010904/DTD/svg10.dtd">
<svg version="1.0" xmlns="http://www.w3.org/2000/svg"
 width="558.000000pt" height="558.000000pt" viewBox="0 0 558.000000 558.000000"
 preserveAspectRatio="xMidYMid meet">
<metadata>
Created by potrace 1.13, written by Peter Selinger 2001-2015
</metadata>
<g transform="translate(0.000000,558.000000) scale(0.100000,-0.100000)"
fill="#000000" stroke="none">
<path d="M2652 4121 c-74 -75 -171 -168 -215 -208 -263 -231 -592 -457 -879
-603 -49 -25 -88 -48 -88 -51 0 -4 57 -29 128 -57 117 -46 129 -49 154 -36 55
28 374 247 495 340 140 107 130 99 305 252 l126 111 4 -57 c2 -31 5 -265 7
-520 l2 -463 -23 6 c-71 16 -166 37 -183 41 -11 2 -60 13 -110 24 -49 10 -205
45 -345 75 -140 31 -378 83 -528 117 -150 33 -275 59 -277 56 -2 -2 22 -55 54
-118 170 -339 299 -746 337 -1070 3 -25 7 -56 9 -70 4 -23 11 -98 20 -220 2
-25 4 -116 4 -202 1 -87 4 -158 9 -158 4 1 72 78 152 172 169 199 162 177 124
399 -55 315 -155 671 -260 922 -37 89 -41 87 79 62 40 -8 83 -16 97 -19 14 -2
75 -13 135 -25 147 -28 156 -30 185 -36 14 -3 36 -7 50 -10 14 -3 36 -7 50
-10 14 -3 36 -7 50 -10 14 -3 36 -7 50 -10 14 -3 34 -7 45 -9 67 -13 270 -57
272 -59 3 -4 -783 -1265 -908 -1457 -26 -41 -46 -76 -44 -78 2 -2 59 12 127
32 210 59 238 66 438 101 164 29 297 40 495 40 140 0 340 -11 368 -20 6 -2 36
-6 64 -9 41 -5 238 -44 356 -71 9 -2 17 -2 17 1 0 5 -187 302 -200 317 -9 11
-222 36 -370 44 -299 16 -642 -1 -866 -43 -30 -5 -35 -4 -29 7 104 175 617
984 639 1006 9 10 28 -9 91 -90 237 -308 556 -740 844 -1145 68 -95 125 -171
126 -170 1 2 5 127 8 278 4 151 8 286 11 300 2 14 7 57 11 95 3 39 8 77 10 85
2 8 6 37 10 65 3 27 13 83 21 125 8 41 17 86 20 100 36 191 137 497 244 740
17 40 29 74 26 77 -2 3 -62 -17 -133 -45 l-128 -50 -46 -113 c-48 -120 -113
-306 -148 -425 -51 -173 -131 -540 -131 -599 0 -14 -3 -25 -7 -24 -5 0 -55 59
-113 132 -58 72 -226 279 -374 460 -147 181 -264 333 -260 337 14 13 796 258
1199 375 88 25 190 55 228 66 37 11 67 23 67 27 0 4 -30 21 -67 36 -283 121
-629 322 -878 510 -178 133 -256 200 -415 353 l-95 92 -5 -102 c-3 -56 -3
-111 -2 -122 4 -22 196 -188 377 -326 148 -112 414 -290 547 -366 l99 -56
-318 -114 c-175 -62 -345 -123 -378 -134 -33 -12 -131 -48 -218 -80 -87 -33
-160 -59 -162 -59 -2 0 -4 57 -5 128 -1 70 -3 159 -5 197 -4 91 -13 423 -21
745 -6 280 -11 400 -16 405 -2 1 -63 -59 -136 -134z"/>
</g>
</svg>
