<?xml version="1.0" standalone="no"?>
<!DOCTYPE svg PUBLIC "-//W3C//DTD SVG 20010904//EN"
 "http://www.w3.org/TR/2001/REC-SVG-20010904/DTD/svg10.dtd">
<svg version="1.0" xmlns="http://www.w3.org/2000/svg"
 width="512.000000pt" height="512.000000pt" viewBox="0 0 512.000000 512.000000"
 preserveAspectRatio="xMidYMid meet">
<metadata>
Created by potrace 1.13, written by Peter Selinger 2001-2015
</metadata>
<g transform="translate(0.000000,512.000000) scale(0.100000,-0.100000)"
fill="#000000" stroke="none">
<path d="M3560 4492 c-31 -10 -87 -16 -185 -17 -133 -1 -143 -2 -200 -30 -62
-31 -177 -138 -319 -298 -60 -68 -80 -83 -160 -122 -90 -43 -122 -68 -145
-112 -15 -29 -23 -29 -69 1 -20 13 -55 30 -76 37 -43 15 -133 98 -211 194 -74
92 -187 197 -246 230 -51 28 -63 30 -204 35 -159 7 -145 4 -336 83 -24 9 -30
7 -54 -19 -82 -90 -101 -210 -65 -414 47 -270 48 -295 6 -446 -16 -58 -9 -106
25 -182 23 -50 37 -72 116 -178 29 -39 53 -77 53 -86 0 -23 -35 -29 -250 -38
-297 -14 -346 -32 -444 -164 -62 -84 -116 -125 -276 -208 -139 -72 -208 -117
-259 -168 -39 -40 -50 -60 -33 -60 5 0 17 -8 28 -18 45 -41 92 -70 288 -174
85 -45 164 -116 233 -210 74 -100 145 -124 418 -138 104 -6 199 -13 210 -16
49 -13 75 -27 75 -41 0 -14 -28 -63 -42 -73 -18 -13 -90 -151 -104 -197 -14
-49 -14 -57 5 -126 28 -98 27 -186 -5 -348 -18 -91 -27 -169 -28 -244 -1 -106
0 -112 32 -170 18 -33 51 -79 73 -103 l40 -42 44 19 c69 30 141 41 260 40 93
-1 118 2 160 20 75 33 142 91 240 206 130 152 166 185 250 225 49 23 94 52
113 74 17 20 34 36 38 36 3 0 23 -15 44 -33 21 -18 62 -41 91 -52 57 -20 125
-81 234 -210 92 -108 175 -183 235 -213 50 -25 69 -28 205 -33 140 -5 155 -8
227 -38 43 -18 85 -31 95 -29 22 4 99 118 112 165 18 65 12 204 -15 350 -29
155 -29 285 0 383 15 50 15 59 0 109 -15 53 -66 154 -91 179 -7 7 -13 17 -13
21 0 4 -8 16 -18 27 -28 31 -52 67 -52 81 0 21 73 33 267 43 283 13 345 33
423 135 74 97 132 147 236 205 149 81 274 160 316 198 60 54 53 72 -45 137
-46 29 -112 69 -148 88 -168 89 -252 156 -293 234 -24 48 -98 107 -157 126
-71 22 -177 37 -269 37 -166 0 -320 33 -320 67 0 8 11 29 24 46 41 55 82 131
100 185 17 52 17 56 -3 135 -28 109 -27 156 9 342 36 189 40 310 11 385 -19
50 -127 190 -146 189 -5 -1 -30 -8 -55 -17z"/>
</g>
</svg>
