<?xml version="1.0" standalone="no"?>
<!DOCTYPE svg PUBLIC "-//W3C//DTD SVG 20010904//EN"
 "http://www.w3.org/TR/2001/REC-SVG-20010904/DTD/svg10.dtd">
<svg version="1.0" xmlns="http://www.w3.org/2000/svg"
 width="558.000000pt" height="558.000000pt" viewBox="0 0 558.000000 558.000000"
 preserveAspectRatio="xMidYMid meet">
<metadata>
Created by potrace 1.13, written by Peter Selinger 2001-2015
</metadata>
<g transform="translate(0.000000,558.000000) scale(0.100000,-0.100000)"
fill="#000000" stroke="none">
<path d="M2909 5163 c0 -5 -2 -15 -3 -23 -2 -8 -6 -46 -9 -85 -5 -58 -32 -220
-50 -300 -34 -150 -136 -425 -236 -639 -51 -109 -51 -111 -40 -161 11 -48 8
-170 -5 -226 -17 -73 -78 -172 -138 -223 -70 -60 -152 -95 -233 -99 l-70 -3
-63 -95 c-35 -51 -77 -116 -93 -144 -17 -27 -48 -79 -70 -115 -36 -56 -89
-148 -180 -305 -43 -76 -269 -486 -269 -490 0 -2 -16 -32 -36 -67 -59 -103
-287 -563 -347 -698 -107 -243 -260 -658 -274 -743 l-4 -27 63 24 c35 13 72
27 83 31 11 4 171 81 355 170 184 90 379 179 432 199 150 56 312 93 438 100
13 1 47 -13 75 -32 127 -85 367 -184 590 -243 97 -26 144 -32 245 -35 131 -4
189 6 266 43 22 11 47 18 55 17 8 -1 63 -14 122 -28 60 -14 132 -28 160 -31
29 -4 54 -8 57 -10 31 -19 585 -28 765 -12 222 19 254 23 262 31 3 3 -15 31
-39 63 -351 460 -586 922 -1023 2010 l-97 241 -36 7 c-106 20 -242 120 -326
239 -91 130 -127 249 -121 406 4 117 24 191 76 271 31 49 32 59 14 149 -3 14
-8 39 -11 55 -4 26 -13 62 -28 125 -47 189 -116 379 -210 583 -33 71 -45 89
-47 70z"/>
</g>
</svg>
