<?xml version="1.0" standalone="no"?>
<!DOCTYPE svg PUBLIC "-//W3C//DTD SVG 20010904//EN"
 "http://www.w3.org/TR/2001/REC-SVG-20010904/DTD/svg10.dtd">
<svg version="1.0" xmlns="http://www.w3.org/2000/svg"
 width="558.000000pt" height="558.000000pt" viewBox="0 0 558.000000 558.000000"
 preserveAspectRatio="xMidYMid meet">
<metadata>
Created by potrace 1.13, written by Peter Selinger 2001-2015
</metadata>
<g transform="translate(0.000000,558.000000) scale(0.100000,-0.100000)"
fill="#000000" stroke="none">
<path d="M2579 4786 c-2 -2 -33 -7 -69 -10 -169 -18 -386 -84 -576 -177 -399
-194 -725 -520 -915 -914 -119 -248 -179 -457 -203 -715 -7 -75 -10 -179 -5
-184 2 -2 72 -14 154 -25 83 -12 165 -24 182 -26 18 -3 54 -7 80 -11 130 -15
130 -16 -7 -63 -325 -111 -395 -137 -395 -146 12 -161 91 -418 194 -630 106
-219 238 -398 426 -576 314 -299 712 -482 1146 -525 l66 -7 52 264 c29 145 55
274 59 286 5 16 27 -61 71 -250 36 -149 67 -278 69 -284 5 -17 32 -16 161 2
719 105 1332 616 1575 1313 66 190 116 456 116 616 l0 62 -212 44 c-117 24
-221 46 -232 50 -13 4 53 32 203 85 l222 79 -6 56 c-9 79 -51 247 -92 364
-210 608 -726 1094 -1338 1261 -129 35 -395 78 -395 64 0 -2 -31 -168 -69
-369 -69 -373 -69 -373 -86 -255 -3 22 -10 65 -15 95 -5 30 -12 73 -15 95 -3
22 -10 65 -15 95 -12 70 -14 81 -35 223 l-19 117 -36 0 c-20 0 -39 -2 -41 -4z"/>
</g>
</svg>
