<?xml version="1.0" standalone="no"?>
<!DOCTYPE svg PUBLIC "-//W3C//DTD SVG 20010904//EN"
 "http://www.w3.org/TR/2001/REC-SVG-20010904/DTD/svg10.dtd">
<svg version="1.0" xmlns="http://www.w3.org/2000/svg"
 width="558.000000pt" height="558.000000pt" viewBox="0 0 558.000000 558.000000"
 preserveAspectRatio="xMidYMid meet">
<metadata>
Created by potrace 1.13, written by Peter Selinger 2001-2015
</metadata>
<g transform="translate(0.000000,558.000000) scale(0.100000,-0.100000)"
fill="#000000" stroke="none">
<path d="M2294 4709 c-6 -10 2 -46 38 -171 9 -32 8 -41 -5 -56 -23 -25 -21
-41 9 -86 18 -27 24 -46 20 -64 -12 -62 -24 -106 -25 -99 0 4 -10 3 -22 -4
-24 -12 -23 -17 10 -142 19 -71 19 -81 6 -100 -21 -30 -19 -48 10 -87 26 -35
33 -84 14 -96 -6 -3 -9 -19 -7 -35 2 -15 2 -27 -1 -26 -3 0 -16 -2 -28 -7 -27
-9 -29 -30 -8 -95 38 -124 39 -130 22 -149 -23 -25 -21 -41 8 -84 26 -38 33
-82 15 -93 -5 -3 -10 -22 -10 -42 0 -20 -3 -33 -6 -30 -15 14 -44 -15 -44 -43
0 -27 -3 -30 -33 -30 -18 0 -38 5 -44 11 -7 7 -45 13 -85 15 -40 1 -89 9 -108
17 -39 17 -70 9 -107 -25 -13 -12 -33 -20 -50 -18 -15 1 -49 2 -75 1 -25 0
-63 6 -84 15 -20 8 -47 13 -60 10 -30 -8 -114 11 -128 28 -22 27 -45 26 -71
-2 -14 -15 -25 -29 -25 -33 0 -15 -52 -29 -71 -19 -10 6 -35 8 -53 4 -20 -3
-51 0 -73 7 -21 7 -63 13 -93 15 -51 2 -83 6 -151 20 -19 3 -34 -3 -60 -26
-59 -52 -99 -95 -99 -106 0 -5 13 -23 30 -39 36 -34 38 -51 8 -61 -43 -13 -49
-23 -33 -61 13 -31 13 -37 -2 -59 -15 -23 -15 -28 2 -62 38 -79 46 -114 35
-148 -6 -18 -17 -35 -25 -38 -23 -8 -18 -30 15 -64 17 -18 30 -36 30 -42 0
-11 -35 -32 -42 -24 -3 2 -11 -2 -17 -10 -10 -12 -10 -22 3 -47 14 -29 14 -34
0 -58 -15 -26 -15 -31 16 -100 23 -54 30 -80 25 -103 -8 -34 -6 -34 61 -7 29
12 34 10 70 -19 21 -18 47 -32 58 -32 16 0 18 5 12 39 l-6 39 73 -4 c39 -1 88
-9 108 -18 19 -8 49 -15 65 -15 16 0 39 -2 52 -5 13 -3 39 2 58 11 33 16 35
16 62 -5 65 -53 103 -52 83 1 -6 14 -7 28 -3 30 15 10 139 -2 172 -16 31 -14
56 -17 133 -19 12 0 36 5 53 12 30 13 34 12 70 -18 21 -18 47 -32 58 -32 16 0
18 5 12 39 l-6 38 68 -2 c37 -2 92 -11 122 -20 30 -10 61 -20 68 -21 6 -2 12
-14 12 -27 0 -13 5 -38 11 -55 9 -25 8 -36 -5 -54 -22 -31 -20 -49 9 -88 26
-35 33 -78 15 -96 -5 -5 -10 -23 -12 -40 -1 -24 -6 -30 -19 -27 -27 7 -33 -33
-16 -91 41 -135 41 -135 24 -154 -23 -25 -21 -41 8 -84 26 -38 32 -77 16 -93
-5 -6 -11 -23 -13 -40 -2 -16 -7 -30 -13 -30 -5 0 -16 -4 -23 -9 -16 -9 -14
-23 17 -139 19 -71 19 -81 6 -100 -21 -30 -19 -45 11 -89 20 -29 25 -44 19
-65 -4 -16 -8 -42 -9 -60 0 -17 -4 -29 -8 -27 -4 2 -9 0 -13 -6 -4 -6 -10 -8
-15 -5 -16 10 -23 -44 -10 -74 6 -16 19 -31 28 -34 9 -3 24 -8 33 -11 9 -4 25
2 38 13 23 20 39 19 75 -5 16 -11 23 -10 44 6 33 27 42 26 101 -15 28 -19 57
-35 64 -35 7 0 28 11 47 25 35 26 72 31 113 16 18 -7 31 -5 53 9 28 19 29 19
60 1 31 -19 32 -18 60 0 34 22 52 18 107 -22 46 -33 63 -36 88 -13 10 9 35 22
56 29 28 10 37 18 34 32 -10 44 -6 57 19 63 22 5 26 13 33 73 8 62 6 69 -17
104 -30 43 -32 65 -10 84 18 15 11 59 -31 197 -6 18 -2 24 22 33 28 9 31 14
37 76 6 60 5 69 -19 102 -29 43 -31 58 -9 90 13 19 15 30 6 60 -5 20 -18 62
-27 95 -17 60 -14 71 20 78 17 3 21 15 28 70 8 63 6 70 -17 105 -30 43 -32 65
-11 83 17 14 19 43 6 68 -4 9 -11 32 -14 50 -6 30 -5 33 14 27 12 -4 38 0 60
11 39 17 40 17 67 -4 65 -53 103 -52 83 1 -6 14 -7 28 -3 30 15 10 139 -2 172
-16 31 -14 56 -17 133 -19 12 0 36 5 53 12 30 13 34 12 70 -18 21 -18 47 -32
58 -32 16 0 18 5 12 39 l-6 39 73 -4 c39 -1 88 -9 108 -18 19 -8 49 -15 65
-15 16 0 39 -2 52 -5 13 -3 39 2 58 11 33 16 35 16 62 -5 65 -53 103 -52 83 1
-6 14 -7 28 -3 30 16 10 139 -2 173 -17 19 -8 57 -14 85 -13 43 2 49 5 52 25
2 13 -10 52 -27 87 -17 35 -31 68 -31 74 0 13 41 41 52 35 16 -10 8 8 -17 38
-32 38 -31 47 5 59 34 12 41 47 14 70 -28 23 -32 50 -12 87 24 49 23 63 -12
133 -34 67 -33 93 7 106 23 8 24 11 11 24 -14 14 -38 53 -38 62 0 3 14 10 30
16 36 12 38 32 8 74 -27 38 -28 46 -11 72 31 46 3 70 -68 59 -21 -4 -46 -1
-59 6 -13 7 -54 14 -92 15 -38 2 -85 11 -104 20 -31 15 -37 15 -69 -1 -19 -9
-35 -20 -35 -24 0 -15 -51 -30 -70 -20 -11 6 -36 8 -57 4 -21 -3 -51 0 -68 7
-16 6 -60 13 -97 14 -59 2 -72 6 -102 33 -42 36 -69 33 -87 -10 -17 -43 -49
-61 -83 -48 -15 5 -44 7 -65 4 -23 -4 -48 -1 -61 6 -13 7 -55 14 -95 15 -40 2
-88 10 -106 18 -39 16 -56 12 -96 -24 -16 -14 -38 -25 -48 -24 -66 5 -87 38
-36 56 26 9 29 15 35 76 6 60 5 69 -19 102 -29 43 -31 58 -9 90 13 19 15 30 6
60 -5 20 -18 62 -27 95 -17 60 -14 71 20 78 17 3 21 15 28 70 8 63 6 70 -17
105 -30 43 -32 65 -10 84 18 15 11 59 -31 197 -6 18 -2 24 22 33 28 9 31 14
37 76 6 60 5 69 -19 102 -29 43 -31 58 -9 90 13 19 15 30 6 60 -5 20 -18 63
-27 95 -17 57 -16 60 1 74 18 13 17 14 -6 7 -30 -10 -93 -10 -137 0 -39 9 -52
-12 -34 -51 10 -22 9 -24 -7 -15 -9 5 -28 21 -41 35 -29 31 -45 32 -76 7 -23
-18 -26 -17 -112 5 -71 19 -93 21 -116 12 -21 -8 -41 -8 -83 2 -64 16 -80 7
-65 -33 14 -35 1 -34 -37 3 -36 34 -48 36 -73 14 -23 -21 -42 -20 -131 5 -91
25 -85 24 -94 10z"/>
</g>
</svg>
