<?xml version="1.0" standalone="no"?>
<!DOCTYPE svg PUBLIC "-//W3C//DTD SVG 20010904//EN"
 "http://www.w3.org/TR/2001/REC-SVG-20010904/DTD/svg10.dtd">
<svg version="1.0" xmlns="http://www.w3.org/2000/svg"
 width="512.000000pt" height="512.000000pt" viewBox="0 0 512.000000 512.000000"
 preserveAspectRatio="xMidYMid meet">
<metadata>
Created by potrace 1.13, written by Peter Selinger 2001-2015
</metadata>
<g transform="translate(0.000000,512.000000) scale(0.100000,-0.100000)"
fill="#000000" stroke="none">
<path d="M2516 4528 c-42 -91 -74 -237 -105 -478 -28 -208 -39 -244 -75 -248
-35 -4 -56 14 -117 104 -26 39 -62 83 -80 99 -31 25 -34 26 -46 9 -32 -43 -9
-208 72 -527 64 -253 65 -267 30 -267 -17 0 -47 22 -97 71 -83 80 -128 115
-128 100 0 -6 -7 -11 -15 -11 -22 0 -11 -37 41 -142 24 -48 44 -102 44 -119 0
-29 -2 -31 -29 -26 -16 4 -49 19 -73 35 -23 16 -74 49 -113 73 -38 24 -72 47
-75 51 -10 14 -259 147 -322 173 -62 25 -128 33 -128 16 0 -15 20 -65 29 -71
25 -17 121 -176 121 -200 0 -47 -35 -50 -205 -20 -236 42 -374 60 -465 60
-157 0 -171 -12 -88 -75 28 -22 59 -48 69 -57 23 -21 172 -106 254 -144 363
-168 381 -195 175 -260 -102 -32 -160 -60 -160 -77 0 -51 226 -96 594 -117 99
-6 183 -13 188 -16 4 -3 8 -15 8 -28 0 -18 -16 -31 -82 -66 -105 -54 -148 -86
-148 -109 0 -27 26 -30 131 -15 52 7 111 13 132 14 36 0 38 -2 35 -27 -2 -19
-20 -41 -58 -71 -109 -87 -133 -107 -156 -127 -12 -12 -37 -32 -55 -45 -29
-22 -127 -111 -154 -140 -5 -6 -24 -25 -41 -43 -47 -49 -94 -118 -94 -139 0
-27 59 -23 160 12 46 17 103 30 127 30 l43 0 0 -40 c0 -38 -76 -201 -182 -388
-43 -76 -118 -286 -118 -330 0 -19 34 -7 95 32 74 49 91 64 301 274 176 175
196 192 227 192 44 0 47 -10 47 -157 0 -116 10 -163 34 -163 38 0 154 200 231
400 10 25 23 59 30 75 29 69 34 81 41 105 4 14 18 49 32 78 19 40 29 52 47 52
21 0 24 -7 35 -72 7 -40 20 -102 29 -138 14 -58 19 -65 41 -65 22 0 27 7 41
65 9 36 22 98 29 138 11 65 14 72 35 72 18 0 28 -12 47 -52 14 -29 28 -64 32
-78 7 -24 12 -36 41 -105 7 -16 20 -50 30 -75 77 -200 193 -400 231 -400 24 0
34 47 34 163 0 147 3 157 47 157 31 0 51 -17 227 -192 210 -210 227 -225 301
-274 61 -39 95 -51 95 -32 0 44 -75 254 -118 330 -106 187 -182 350 -182 388
l0 40 43 0 c24 0 81 -13 127 -30 101 -35 160 -39 160 -12 0 21 -47 90 -94 139
-17 18 -35 37 -41 43 -27 29 -125 118 -154 140 -18 13 -43 33 -55 45 -23 20
-47 40 -156 127 -38 30 -56 52 -58 71 -3 25 -1 27 35 27 21 -1 80 -7 132 -14
105 -15 131 -12 131 15 0 23 -43 55 -147 109 -67 35 -83 48 -83 66 0 13 4 25
8 28 5 3 89 10 188 16 368 21 594 66 594 117 0 17 -58 45 -160 77 -98 31 -130
49 -130 74 0 36 60 73 305 186 82 38 231 123 254 144 10 9 41 35 69 57 83 63
69 75 -88 75 -91 0 -229 -18 -465 -60 -170 -30 -205 -27 -205 20 0 24 96 183
121 200 9 6 29 56 29 71 0 17 -66 9 -128 -16 -63 -26 -312 -159 -322 -173 -3
-4 -36 -27 -75 -51 -38 -24 -90 -57 -113 -73 -24 -16 -57 -31 -73 -35 -27 -5
-29 -3 -29 26 0 17 20 71 44 119 52 105 63 142 41 142 -8 0 -15 5 -15 11 0 15
-45 -20 -128 -100 -50 -49 -80 -71 -97 -71 -35 0 -34 14 30 267 81 319 104
484 72 527 -12 17 -15 16 -46 -9 -18 -16 -54 -60 -80 -99 -61 -90 -82 -108
-117 -104 -36 4 -47 40 -75 248 -31 241 -63 387 -105 478 -13 28 -28 52 -34
52 -6 0 -21 -24 -34 -52z"/>
</g>
</svg>
