<?xml version="1.0" standalone="no"?>
<!DOCTYPE svg PUBLIC "-//W3C//DTD SVG 20010904//EN"
 "http://www.w3.org/TR/2001/REC-SVG-20010904/DTD/svg10.dtd">
<svg version="1.0" xmlns="http://www.w3.org/2000/svg"
 width="558.000000pt" height="558.000000pt" viewBox="0 0 558.000000 558.000000"
 preserveAspectRatio="xMidYMid meet">
<metadata>
Created by potrace 1.13, written by Peter Selinger 2001-2015
</metadata>
<g transform="translate(0.000000,558.000000) scale(0.100000,-0.100000)"
fill="#000000" stroke="none">
<path d="M2850 4895 c-12 -14 -15 -31 -19 -85 -1 -11 -13 -15 -48 -14 -191 3
-432 -37 -633 -106 l-115 -40 -30 35 c-16 19 -39 35 -50 35 -44 0 -59 -46 -29
-88 9 -13 14 -24 13 -26 -2 -1 -35 -20 -74 -40 -80 -43 -238 -147 -304 -199
l-44 -35 -21 42 c-17 34 -26 41 -50 41 -40 0 -53 -24 -38 -72 25 -85 25 -85
-29 -144 -101 -109 -157 -175 -198 -236 -23 -35 -43 -63 -45 -63 -2 0 -16 6
-32 14 -70 35 -128 20 -122 -32 2 -22 11 -30 43 -40 22 -7 43 -17 48 -21 4 -4
-20 -64 -53 -134 -72 -151 -121 -282 -154 -415 -21 -85 -30 -136 -52 -302 -11
-84 -5 -358 11 -459 3 -13 7 -45 11 -70 3 -25 17 -90 30 -143 90 -362 302
-733 551 -962 46 -42 51 -57 29 -75 -20 -17 -26 -48 -11 -67 19 -26 57 -24 81
3 l21 24 79 -59 c43 -32 107 -76 142 -97 34 -21 62 -40 62 -42 0 -2 -7 -15
-16 -28 -15 -23 -15 -27 0 -50 22 -33 41 -32 77 5 l30 29 63 -29 c35 -16 99
-43 142 -59 51 -19 78 -34 76 -43 -11 -39 -9 -51 8 -68 24 -24 55 -16 77 21
20 33 21 34 105 15 35 -8 86 -17 113 -21 115 -14 110 -11 107 -63 -3 -38 0
-49 16 -59 32 -19 65 5 76 55 l9 42 76 1 c154 1 372 30 494 65 11 4 17 0 17
-10 0 -18 34 -56 50 -56 24 0 51 41 46 68 -6 26 -3 28 71 56 85 31 284 128
350 169 38 24 44 25 69 12 44 -22 81 9 69 58 -4 17 4 28 35 50 63 44 264 242
332 326 300 371 461 855 445 1336 -3 88 -7 169 -10 181 -3 12 -8 45 -12 75 -8
71 -49 239 -80 330 -14 40 -25 74 -25 76 0 2 11 3 25 3 34 0 61 41 45 69 -12
23 -17 25 -71 22 -36 -2 -36 -1 -76 81 -81 170 -194 334 -320 468 l-75 80 27
54 c30 61 27 92 -8 105 -33 12 -45 4 -67 -47 -19 -41 -22 -44 -38 -30 -106 92
-228 175 -370 254 -54 30 -92 54 -86 54 20 0 46 67 35 89 -22 41 -57 34 -97
-19 l-29 -38 -80 30 c-116 43 -253 76 -392 95 l-123 16 0 39 c0 22 -5 48 -10
59 -13 23 -53 25 -70 4z"/>
</g>
</svg>
