<?xml version="1.0" standalone="no"?>
<!DOCTYPE svg PUBLIC "-//W3C//DTD SVG 20010904//EN"
 "http://www.w3.org/TR/2001/REC-SVG-20010904/DTD/svg10.dtd">
<svg version="1.0" xmlns="http://www.w3.org/2000/svg"
 width="558.000000pt" height="558.000000pt" viewBox="0 0 558.000000 558.000000"
 preserveAspectRatio="xMidYMid meet">
<metadata>
Created by potrace 1.13, written by Peter Selinger 2001-2015
</metadata>
<g transform="translate(0.000000,558.000000) scale(0.100000,-0.100000)"
fill="#000000" stroke="none">
<path d="M2839 4093 c-5 -37 -8 -374 -8 -1135 l-1 -898 -30 0 -30 0 0 992 0
992 -97 -95 c-184 -178 -397 -349 -643 -515 -208 -140 -300 -195 -525 -311
l-180 -92 60 -2 c33 0 68 -2 77 -4 10 -2 106 -6 215 -10 109 -3 216 -8 238
-10 22 -2 131 -5 243 -7 111 -1 202 -4 203 -7 0 -4 2 -26 4 -49 l3 -44 -257 6
c-141 3 -365 9 -499 12 -234 6 -242 6 -234 -12 5 -11 15 -34 23 -51 l13 -33
251 -1 c237 -1 671 -6 688 -8 4 -1 7 -17 7 -36 l0 -35 -450 0 c-287 0 -450 -4
-450 -10 0 -5 7 -28 16 -50 l16 -41 392 6 c215 4 408 8 429 9 36 3 37 2 37
-30 l0 -34 -97 -1 c-54 0 -111 -2 -128 -4 -16 -1 -147 -6 -291 -9 -143 -4
-269 -9 -280 -11 -10 -2 -23 -4 -27 -4 -5 -1 -5 -7 0 -13 4 -7 8 -17 10 -23 1
-5 16 -49 32 -97 17 -48 33 -98 35 -110 3 -13 15 -57 26 -98 11 -41 22 -84 24
-95 3 -11 12 -54 21 -95 20 -93 52 -318 60 -425 13 -164 14 -205 15 -427 1
-126 2 -228 4 -228 1 0 26 7 56 16 29 9 61 18 69 20 9 2 63 17 121 34 58 17
114 32 125 35 11 2 61 13 110 24 50 11 108 22 130 26 23 3 51 7 64 10 138 26
563 27 722 0 13 -2 41 -6 62 -9 21 -4 73 -13 115 -22 42 -9 84 -17 92 -19 8
-2 44 -11 80 -20 36 -9 72 -19 80 -20 8 -2 15 -4 15 -5 0 -1 7 -3 15 -5 8 -2
83 -24 165 -50 83 -26 160 -50 173 -53 l22 -4 1 253 c0 140 2 288 4 329 4 95
14 231 19 256 2 10 7 45 10 76 7 54 6 58 -16 63 -57 13 -265 45 -393 60 -200
23 -185 17 -185 71 l0 46 63 -7 c122 -12 385 -46 468 -59 46 -8 85 -13 87 -11
3 2 7 22 18 75 3 14 10 43 15 65 10 43 10 44 30 120 7 27 25 85 40 130 15 44
25 83 21 86 -8 8 -118 16 -327 25 -82 3 -159 8 -170 9 -11 2 -77 4 -147 4
l-128 1 0 51 0 51 143 -6 c155 -6 540 -19 625 -20 l53 -1 33 75 c44 99 92 196
150 302 l47 87 -31 13 c-23 10 -58 11 -124 7 -50 -4 -154 -10 -231 -13 -77 -4
-167 -8 -200 -11 -33 -2 -153 -7 -267 -11 l-208 -6 0 31 0 31 73 1 c39 1 86 2
102 4 17 1 109 6 205 10 96 4 181 8 190 10 8 1 74 6 145 10 72 4 132 9 134 10
2 2 -48 29 -110 61 -427 213 -832 499 -1179 833 -88 84 -89 86 -91 74z"/>
</g>
</svg>
