<?xml version="1.0" standalone="no"?>
<!DOCTYPE svg PUBLIC "-//W3C//DTD SVG 20010904//EN"
 "http://www.w3.org/TR/2001/REC-SVG-20010904/DTD/svg10.dtd">
<svg version="1.0" xmlns="http://www.w3.org/2000/svg"
 width="558.000000pt" height="558.000000pt" viewBox="0 0 558.000000 558.000000"
 preserveAspectRatio="xMidYMid meet">
<metadata>
Created by potrace 1.13, written by Peter Selinger 2001-2015
</metadata>
<g transform="translate(0.000000,558.000000) scale(0.100000,-0.100000)"
fill="#000000" stroke="none">
<path d="M2876 4493 c6 -21 2 -31 -20 -48 l-28 -22 32 -37 c33 -38 33 -38 -22
-50 -35 -8 -35 -23 2 -96 34 -67 36 -83 15 -124 -20 -37 -19 -56 5 -86 26 -34
25 -67 -2 -81 -13 -6 -25 -13 -27 -15 -2 -2 11 -19 28 -39 36 -41 33 -55 -10
-55 -44 0 -46 -24 -10 -94 36 -71 37 -82 14 -131 -17 -36 -17 -38 5 -75 28
-50 28 -64 -4 -87 l-25 -19 31 -39 c28 -35 30 -40 13 -43 -75 -12 -76 -16 -33
-102 34 -67 36 -83 15 -124 -20 -37 -19 -56 5 -86 26 -34 25 -67 -2 -81 -13
-6 -25 -13 -27 -15 -2 -2 11 -19 28 -39 36 -41 33 -55 -10 -55 -44 0 -46 -24
-10 -94 36 -71 37 -82 14 -131 -17 -36 -17 -38 5 -75 28 -50 28 -64 -4 -87
l-25 -19 31 -39 c28 -35 30 -40 13 -43 -75 -12 -76 -16 -33 -102 34 -67 36
-83 15 -124 -20 -37 -19 -56 5 -86 26 -34 25 -67 -2 -81 -13 -6 -25 -13 -27
-15 -2 -2 11 -19 28 -39 36 -41 33 -55 -10 -55 -43 0 -48 -25 -16 -82 24 -42
25 -48 9 -48 -28 0 -39 13 -61 68 -15 37 -22 83 -25 155 -3 56 -8 112 -12 125
-3 12 0 44 7 70 7 26 12 50 11 55 -1 4 3 6 9 5 6 -2 16 5 22 14 9 13 6 29 -11
70 -15 37 -23 82 -27 153 -3 55 -8 115 -11 132 -4 20 0 48 9 72 9 21 13 41 10
45 -4 3 1 6 10 6 26 0 29 34 7 89 -14 36 -21 83 -24 154 -3 56 -8 112 -12 125
-3 12 0 44 7 70 7 26 12 50 11 54 -1 5 3 7 9 5 6 -1 16 6 22 15 9 13 6 29 -11
70 -15 37 -23 82 -27 153 -3 55 -8 115 -11 132 -4 20 0 48 9 72 9 21 13 41 10
45 -4 3 1 6 10 6 26 0 29 34 7 89 -14 36 -21 83 -24 154 -3 56 -8 112 -12 125
-3 12 0 44 7 70 7 26 12 50 11 54 -1 5 3 7 9 5 6 -1 16 6 22 15 9 13 6 29 -11
70 -12 30 -22 75 -22 103 0 75 -11 85 -50 47 -17 -18 -41 -32 -52 -32 -12 0
-46 -28 -86 -70 -54 -58 -71 -70 -97 -70 -34 0 -53 -16 -79 -67 -12 -24 -23
-33 -41 -33 -13 0 -35 -12 -49 -27 -19 -20 -33 -26 -60 -25 -22 1 -36 -3 -37
-11 -4 -65 -23 -89 -69 -86 -45 2 -50 -1 -50 -29 0 -40 -17 -52 -71 -52 -51 0
-60 -9 -52 -52 7 -39 -42 -62 -115 -55 l-53 6 3 -42 c2 -36 -1 -43 -22 -54
-14 -7 -35 -13 -47 -13 -20 0 -23 -5 -23 -40 0 -53 -20 -64 -80 -40 -65 26
-78 15 -62 -46 17 -63 4 -79 -50 -62 -46 14 -68 0 -68 -43 0 -28 -2 -29 -49
-29 -53 0 -61 -8 -61 -62 0 -27 -3 -30 -22 -23 -52 16 -62 12 -69 -28 -9 -54
-20 -62 -64 -47 -52 17 -69 0 -74 -77 -1 -9 -17 -13 -47 -13 l-46 0 4 -37 c3
-33 0 -38 -21 -41 -22 -3 -21 -5 14 -29 35 -24 43 -25 94 -17 48 8 56 12 59
32 2 13 10 26 17 28 16 6 140 -33 170 -53 28 -19 40 -16 53 11 16 36 44 37 95
4 42 -27 51 -29 100 -23 50 6 55 9 61 36 3 18 12 29 22 29 20 0 146 -45 173
-62 17 -10 23 -8 50 21 l31 33 32 -19 c18 -11 43 -26 55 -33 16 -11 33 -11 77
-3 54 9 57 9 62 -13 9 -36 0 -59 -24 -62 -22 -3 -26 -11 -23 -44 3 -23 -35
-24 -85 -3 -22 9 -51 12 -78 9 -29 -4 -52 -1 -74 10 -45 23 -62 20 -68 -14 -6
-29 -7 -29 -37 -14 -19 11 -40 14 -61 9 -76 -16 -144 -17 -175 0 -23 11 -45
14 -74 10 -28 -4 -54 -1 -81 10 -44 18 -66 14 -66 -13 0 -28 -10 -33 -36 -15
-17 11 -35 13 -61 9 -97 -18 -136 -18 -179 -1 -24 9 -53 14 -64 10 -28 -9 -26
-50 5 -87 14 -16 25 -36 25 -44 0 -10 6 -14 18 -10 9 2 40 8 69 11 44 6 57 3
82 -14 38 -28 44 -27 58 9 16 43 36 46 87 10 50 -34 39 -33 233 -9 77 10 85 9
116 -10 19 -12 37 -21 41 -21 3 0 12 16 20 35 8 19 21 35 28 35 7 0 33 -13 58
-30 49 -32 52 -33 234 -9 61 8 85 8 103 -2 29 -16 30 -29 0 -29 -13 0 -32 -6
-43 -14 -19 -15 -18 -16 9 -65 30 -55 23 -74 -14 -35 -40 43 -55 47 -88 23
-20 -14 -36 -19 -48 -14 -10 4 -49 15 -87 25 -52 13 -75 15 -96 7 -21 -8 -43
-7 -83 2 -67 17 -79 11 -65 -30 15 -44 5 -45 -38 -5 -44 42 -46 42 -82 17 -27
-19 -28 -19 -102 1 -41 11 -85 20 -97 19 -53 -4 -110 -3 -140 4 -38 8 -52 -10
-34 -44 15 -27 -2 -35 -24 -11 -21 23 -37 26 -29 6 8 -20 -12 -28 -26 -11 -7
8 -21 15 -31 15 -16 0 -17 -4 -8 -30 9 -25 15 -29 35 -24 17 4 36 -3 73 -30
54 -40 75 -43 139 -21 34 12 52 13 84 4 22 -6 52 -8 66 -4 17 4 35 -2 63 -21
48 -33 71 -27 60 14 -9 31 2 62 23 62 7 0 35 -16 62 -35 55 -39 68 -41 136
-21 35 11 56 12 83 5 20 -6 50 -7 66 -4 23 5 37 1 64 -19 52 -40 65 -35 62 22
-2 40 1 47 18 50 27 4 83 -47 87 -78 3 -22 -1 -25 -29 -28 -24 -2 -33 -8 -33
-22 0 -29 -34 -33 -83 -9 -54 26 -81 20 -75 -16 6 -28 1 -29 -36 -16 -13 6
-63 11 -110 12 -56 1 -98 7 -119 18 -30 15 -34 15 -68 -4 l-37 -19 -50 23
c-55 26 -72 22 -72 -15 0 -25 -10 -30 -38 -15 -9 5 -62 11 -117 13 -69 3 -108
10 -125 21 -23 15 -27 15 -48 -2 l-24 -17 26 -40 c14 -21 40 -58 57 -81 44
-60 43 -77 -4 -81 -33 -3 -38 -6 -35 -25 2 -12 25 -38 52 -58 27 -21 53 -45
58 -54 6 -9 12 -50 15 -91 5 -69 9 -80 44 -122 32 -39 39 -54 37 -87 0 -22 4
-50 11 -63 10 -18 8 -25 -9 -42 -25 -25 -25 -21 2 -67 12 -20 23 -43 24 -51 2
-7 23 -36 49 -63 26 -27 45 -55 42 -62 -2 -7 -19 -14 -37 -17 -18 -3 -35 -10
-37 -15 -4 -12 21 -41 60 -72 26 -20 87 -142 87 -174 0 -10 -4 -20 -9 -23 -17
-11 -5 -35 47 -90 29 -30 52 -59 52 -64 0 -4 -11 -18 -25 -30 -24 -21 -24 -24
-12 -55 8 -17 24 -48 35 -67 12 -19 22 -46 22 -60 0 -35 8 -43 59 -63 40 -15
47 -15 68 -2 13 9 23 22 23 30 0 21 20 19 46 -6 12 -11 47 -27 79 -35 56 -15
58 -15 81 7 20 19 33 22 99 20 41 -1 91 -9 110 -17 39 -16 75 -6 75 21 0 26
20 26 52 2 18 -14 57 -30 87 -37 52 -12 55 -12 71 10 16 21 25 23 95 21 43 -1
93 -8 113 -17 31 -13 38 -13 59 1 12 9 23 22 23 30 0 21 20 19 46 -6 12 -11
47 -27 79 -35 56 -15 58 -15 81 7 20 19 33 22 99 20 41 -1 91 -9 110 -17 39
-16 75 -6 75 21 0 26 20 26 52 2 18 -14 57 -30 87 -37 52 -12 55 -12 71 10 16
21 25 23 95 21 43 -1 93 -8 113 -17 31 -13 38 -13 59 1 12 9 23 22 23 30 0 21
20 19 46 -6 12 -11 47 -27 78 -35 56 -15 58 -15 86 10 19 15 37 22 50 19 12
-3 20 0 20 8 0 7 12 26 27 41 27 29 28 33 20 158 -2 20 3 26 26 28 33 4 46 31
40 83 -3 22 1 49 11 66 13 26 13 33 1 51 -13 18 -13 20 3 16 30 -9 55 48 47
108 l-7 51 41 -7 c47 -7 50 0 26 57 -13 32 -13 37 5 60 15 19 20 41 20 87 l0
63 -35 -6 c-19 -3 -48 -15 -64 -26 -38 -27 -50 -26 -98 8 -57 41 -75 45 -107
20 -25 -20 -28 -20 -51 -5 -31 20 -54 20 -77 -1 -15 -13 -23 -14 -44 -5 -38
18 -65 15 -109 -13 -52 -32 -64 -31 -105 5 l-35 29 47 -6 c59 -7 70 11 42 65
-10 21 -20 40 -22 44 -2 4 14 1 35 -6 46 -16 69 -7 84 31 l10 26 29 -28 c18
-17 50 -32 87 -41 56 -13 59 -13 76 8 17 20 27 22 96 19 43 -1 95 -8 117 -16
46 -15 69 -7 78 30 l6 25 42 -30 c47 -34 68 -38 68 -12 0 10 6 26 13 37 26 38
26 53 1 86 -33 46 -31 59 11 59 45 0 58 28 40 81 -8 23 -10 41 -4 52 9 15 13
15 50 1 22 -9 43 -14 46 -10 4 3 -4 27 -17 52 -22 45 -22 48 -6 76 10 15 17
38 16 51 -4 40 0 54 20 77 11 13 20 25 20 27 0 2 -18 0 -40 -3 -31 -5 -50 -1
-88 19 -80 42 -99 39 -117 -17 -5 -18 -7 -17 -33 7 -35 34 -60 34 -68 3 -9
-36 -28 -38 -71 -9 -34 23 -41 24 -68 13 -58 -24 -87 -23 -154 9 -71 33 -89
31 -98 -10 -7 -35 -13 -36 -43 -4 -30 31 -48 32 -60 1 -13 -35 -27 -40 -56
-21 -22 14 -25 22 -20 48 3 18 9 49 12 70 l7 37 56 1 c51 0 100 7 187 25 22 4
44 0 72 -15 32 -17 46 -19 67 -11 25 9 26 13 20 50 -4 22 -3 40 2 40 5 0 28
-21 51 -47 l42 -46 102 7 c56 3 107 11 112 16 16 16 56 12 102 -11 58 -28 87
-14 83 39 -2 25 1 36 9 34 10 -2 10 3 2 17 -19 37 -13 43 39 36 63 -9 76 8 54
72 -17 49 -8 69 30 75 20 3 22 8 19 49 -2 26 1 50 7 54 6 3 11 26 11 49 0 28
7 52 19 67 14 18 17 29 10 48 -6 13 -8 33 -7 44 5 33 -73 68 -142 63 -51 -3
-55 -5 -60 -31 -9 -49 -33 -54 -84 -17 -50 36 -66 39 -101 16 -21 -14 -32 -14
-77 -4 -29 6 -71 18 -93 26 -24 9 -61 13 -90 11 -46 -4 -50 -7 -50 -31 -1 -14
-6 -31 -13 -38 -12 -12 -36 -3 -104 40 -26 16 -29 16 -61 -1 -31 -17 -37 -17
-102 -2 -87 21 -91 23 -114 67 l-18 37 38 -22 39 -22 26 28 25 28 35 -22 35
-21 39 27 40 28 65 -22 c74 -24 97 -26 127 -10 16 9 29 6 64 -13 l44 -23 23
28 23 29 35 -21 35 -21 39 27 38 26 67 -22 c71 -23 107 -26 129 -12 23 15 4
30 -27 22 -36 -11 -72 11 -103 61 -23 37 -84 85 -159 123 -51 26 -114 79 -205
173 -77 79 -83 83 -107 72 -22 -11 -30 -8 -70 22 -25 18 -59 40 -76 49 -16 9
-48 44 -71 78 -46 68 -81 96 -110 88 -24 -6 -61 27 -61 54 0 26 -52 79 -77 79
-11 0 -46 20 -77 45 -45 35 -67 45 -96 45 -46 0 -122 54 -146 105 -24 52 -109
125 -145 125 -37 0 -134 36 -151 57 -12 15 -9 16 24 10 21 -3 40 -1 44 4 8 13
-35 59 -55 59 -9 0 -29 7 -45 15 -37 20 -38 19 -30 -12z"/>
</g>
</svg>
