<?xml version="1.0" standalone="no"?>
<!DOCTYPE svg PUBLIC "-//W3C//DTD SVG 20010904//EN"
 "http://www.w3.org/TR/2001/REC-SVG-20010904/DTD/svg10.dtd">
<svg version="1.0" xmlns="http://www.w3.org/2000/svg"
 width="512.000000pt" height="512.000000pt" viewBox="0 0 512.000000 512.000000"
 preserveAspectRatio="xMidYMid meet">
<metadata>
Created by potrace 1.13, written by Peter Selinger 2001-2015
</metadata>
<g transform="translate(0.000000,512.000000) scale(0.100000,-0.100000)"
fill="#000000" stroke="none">
<path d="M1750 4944 c0 -56 6 -84 26 -128 29 -63 26 -81 -11 -64 -35 16 -42 3
-20 -34 12 -20 18 -48 16 -75 -2 -36 4 -48 36 -85 20 -24 33 -40 29 -36 -15
13 -36 -12 -36 -41 0 -15 7 -36 15 -47 8 -10 15 -38 15 -62 0 -47 13 -72 79
-151 29 -34 41 -56 33 -59 -22 -7 -42 -33 -42 -54 0 -11 16 -38 35 -59 33 -37
34 -41 20 -63 -17 -26 -12 -50 18 -83 15 -17 18 -29 12 -55 -11 -53 -9 -80 9
-126 9 -24 20 -71 25 -105 5 -34 18 -83 30 -109 62 -141 61 -136 50 -167 -12
-33 -4 -55 37 -104 13 -16 24 -36 24 -46 0 -10 18 -53 41 -95 22 -43 38 -80
35 -83 -7 -7 -36 16 -36 29 0 12 -51 86 -85 121 -23 24 -33 28 -60 23 -25 -5
-36 -2 -51 15 -10 12 -44 38 -76 58 -34 22 -74 60 -101 97 -51 69 -60 75 -99
62 -22 -8 -40 -3 -100 26 -40 19 -89 51 -108 71 -30 31 -39 35 -68 30 -31 -5
-40 0 -105 64 -61 59 -90 77 -192 124 -115 53 -121 57 -144 102 -29 57 -101
108 -142 101 -19 -3 -41 6 -75 30 -26 19 -56 34 -66 34 -10 0 -29 17 -43 40
-33 52 -61 80 -80 80 -12 0 -13 -9 -8 -45 5 -43 4 -45 -18 -45 -24 0 -67 24
-81 44 -4 6 -10 7 -14 4 -4 -4 8 -24 25 -43 26 -30 31 -44 29 -76 -2 -48 8
-59 61 -66 31 -4 49 -15 76 -44 19 -22 35 -48 35 -58 0 -11 15 -36 34 -56 29
-31 38 -35 55 -26 26 14 41 14 41 -1 0 -7 9 -24 20 -38 11 -14 20 -33 20 -43
0 -23 56 -81 70 -72 5 3 10 19 10 34 0 62 35 45 74 -37 24 -49 42 -70 100
-113 39 -29 83 -64 98 -77 15 -14 39 -26 55 -28 27 -3 73 -47 73 -70 0 -6 19
-26 41 -44 25 -20 50 -53 64 -84 27 -60 80 -116 111 -116 26 0 53 28 37 38
-15 10 -35 52 -25 52 17 0 42 -37 42 -62 0 -14 7 -31 15 -38 8 -6 26 -36 39
-66 25 -55 47 -68 64 -37 9 14 12 14 28 -7 11 -13 37 -43 59 -68 37 -42 41
-43 82 -37 35 5 49 2 80 -19 36 -25 36 -26 12 -26 -14 0 -30 5 -36 11 -8 8
-22 5 -51 -11 l-41 -23 -31 27 c-39 32 -45 32 -66 1 -9 -14 -20 -25 -24 -25
-4 0 -24 14 -45 30 -36 29 -39 29 -57 14 -24 -22 -59 -20 -136 6 l-63 22 -32
-32 c-22 -21 -38 -29 -52 -26 -11 3 -29 8 -41 12 -15 4 -23 -1 -32 -20 -13
-30 -26 -32 -76 -11 -27 12 -42 13 -56 5 -12 -6 -41 -8 -70 -4 -54 7 -57 4
-40 -40 12 -33 -3 -43 -33 -22 -12 9 -32 23 -44 32 -21 15 -25 15 -50 -1 -33
-22 -128 -21 -181 1 -19 8 -63 14 -98 14 l-64 0 6 -40 c6 -37 5 -40 -17 -40
-13 0 -41 14 -62 30 -33 24 -43 27 -65 19 -15 -6 -32 -15 -38 -20 -15 -13
-100 -3 -161 17 -50 17 -63 11 -63 -33 0 -27 -22 -39 -80 -42 -25 -2 -47 -7
-48 -12 -2 -5 -8 -7 -13 -3 -16 10 -10 -12 13 -46 33 -47 110 -76 159 -60 30
10 41 9 67 -4 17 -9 34 -20 37 -26 3 -5 17 -10 31 -10 20 0 24 5 24 31 0 28 2
31 23 24 12 -5 49 -9 81 -11 33 -1 76 -9 95 -17 20 -9 57 -21 83 -27 39 -10
50 -10 68 3 25 18 55 10 98 -23 32 -26 68 -26 83 1 7 15 14 18 21 11 7 -7 22
-3 48 14 35 24 40 24 67 11 15 -8 43 -18 62 -22 18 -4 52 -15 74 -25 40 -18
41 -18 65 0 22 18 26 18 51 5 14 -8 38 -25 53 -37 24 -19 41 -22 135 -23 60
-1 119 2 132 7 17 6 33 3 58 -12 46 -27 60 -25 68 9 11 51 29 57 80 26 46 -26
56 -27 150 -10 11 2 23 4 28 4 4 1 7 12 7 25 0 32 18 43 38 23 14 -14 14 -18
-1 -41 -9 -13 -31 -27 -49 -31 -18 -4 -51 -17 -73 -28 -22 -11 -41 -19 -42
-18 -13 7 -32 -3 -41 -24 -8 -17 -24 -28 -57 -36 -41 -10 -46 -15 -55 -51 -13
-48 -29 -55 -72 -33 -71 36 -90 23 -68 -46 17 -50 5 -64 -53 -64 -41 0 -42 0
-47 -40 l-5 -40 -50 0 -50 0 0 -65 0 -65 -45 0 c-42 0 -46 -2 -68 -43 -18 -32
-28 -42 -41 -37 -44 19 -48 17 -61 -30 -8 -27 -27 -60 -49 -82 -35 -35 -37
-35 -95 -29 l-59 6 6 -44 c8 -52 -4 -65 -63 -73 l-41 -6 7 -44 6 -44 -38 7
c-22 3 -41 8 -43 10 -12 11 -41 -33 -41 -62 0 -30 -3 -33 -39 -39 -52 -9 -68
-27 -52 -61 18 -41 14 -57 -11 -50 -53 16 -67 15 -83 -1 -16 -16 -16 -26 1
-96 l7 -28 -52 7 c-43 6 -51 4 -51 -10 0 -9 8 -16 18 -16 10 0 23 -5 29 -11 6
-6 26 -9 44 -7 34 3 34 3 32 53 -1 28 3 53 10 57 6 3 30 -7 53 -23 23 -16 48
-29 55 -29 7 0 27 18 46 40 23 26 45 41 68 46 19 3 35 10 35 14 0 7 45 26 80
35 19 5 39 18 36 24 -12 20 16 51 56 62 66 17 152 66 176 99 25 33 55 38 86
15 35 -26 49 -19 31 15 -31 61 -9 89 60 73 58 -13 69 -5 62 43 -11 66 3 74 69
39 53 -29 56 -29 69 -12 9 13 11 27 4 50 -5 17 -5 34 -1 38 4 4 44 10 90 13
100 6 126 20 197 108 49 61 52 63 103 66 41 2 55 8 72 29 11 14 20 35 20 46 0
11 10 40 21 65 21 42 23 43 56 37 26 -5 40 -2 54 11 11 9 22 14 25 11 11 -11
-31 -72 -59 -85 -31 -15 -37 -55 -12 -88 17 -23 19 -34 4 -34 -6 0 -24 -10
-41 -21 -28 -20 -30 -25 -23 -63 14 -85 13 -91 -20 -91 -25 0 -31 -5 -33 -25
-1 -14 -10 -41 -18 -61 -14 -32 -14 -39 0 -73 14 -34 13 -66 -3 -66 -3 0 -12
-4 -19 -9 -11 -6 -10 -15 4 -44 l17 -35 -36 -36 -35 -37 15 -55 c21 -81 15
-106 -24 -116 -37 -10 -44 -39 -18 -74 20 -26 19 -46 -5 -72 -16 -17 -19 -29
-14 -61 l6 -40 -42 -11 c-24 -7 -40 -16 -37 -23 34 -98 39 -117 33 -140 -4
-18 -20 -34 -46 -47 -41 -21 -48 -37 -30 -71 8 -14 6 -27 -6 -50 -9 -18 -13
-41 -10 -55 4 -14 2 -42 -5 -62 -9 -31 -8 -45 5 -76 22 -53 21 -56 -20 -56
-33 0 -36 -2 -28 -22 4 -13 8 -52 9 -88 2 -82 3 -90 13 -90 4 0 9 12 10 27 3
32 19 51 49 56 54 8 82 72 58 130 l-15 37 27 0 c16 0 42 9 60 20 32 19 32 19
18 59 -12 36 -12 41 6 60 11 12 28 21 39 21 28 0 33 16 15 51 -16 29 -16 32 4
53 12 13 21 36 21 54 0 30 2 32 35 32 19 0 36 5 36 10 1 6 2 16 3 23 1 6 -4
24 -11 39 -7 15 -13 34 -13 42 0 22 28 46 55 46 33 0 40 16 20 47 -10 14 -19
38 -22 54 -3 23 1 31 25 43 17 9 36 32 47 58 10 24 28 53 39 66 17 19 20 34
18 81 -2 46 1 62 19 85 12 15 24 25 26 22 9 -9 62 23 73 43 15 29 12 50 -11
82 -29 41 -19 63 25 55 48 -9 62 11 47 67 -13 45 -1 104 19 92 6 -3 10 4 10
18 0 13 10 37 21 52 14 17 21 38 20 58 -2 18 -3 46 -2 62 0 17 1 44 1 60 1 45
20 95 36 95 17 0 16 3 5 -38 -8 -28 -6 -36 13 -55 21 -21 41 -77 27 -75 -45 5
-40 -32 7 -55 72 -34 94 -103 25 -80 -69 24 -71 -22 -3 -97 27 -30 52 -64 56
-75 9 -33 27 -69 45 -90 10 -11 41 -60 70 -110 49 -82 53 -95 52 -147 -1 -53
1 -60 38 -102 35 -39 38 -47 29 -71 -11 -29 -8 -35 38 -87 20 -22 24 -34 19
-63 -8 -47 10 -84 42 -91 45 -9 76 -29 79 -52 4 -26 -14 -28 -42 -7 -27 20
-46 19 -46 -3 0 -32 57 -175 80 -202 98 -110 129 -161 117 -194 -3 -8 12 -33
33 -58 22 -23 49 -62 61 -85 12 -24 25 -43 28 -43 8 0 6 93 -2 107 -4 7 1 14
13 18 18 6 26 24 20 50 -1 6 -2 34 -1 64 0 45 -5 61 -29 95 -33 43 -37 66 -18
96 10 15 9 26 -5 55 -9 20 -17 41 -17 48 0 7 -14 35 -31 62 -25 39 -29 55 -24
82 5 28 0 44 -24 81 -26 41 -30 56 -30 122 0 45 -7 91 -16 113 -8 20 -15 49
-15 64 0 15 -14 48 -30 73 -38 57 -38 79 0 93 36 14 37 21 6 61 -13 17 -27 42
-31 56 -4 14 -16 43 -27 64 -11 22 -22 49 -24 60 -1 12 -9 40 -15 63 -16 51
-10 59 28 39 18 -9 35 -11 43 -6 23 14 -7 57 -57 81 -46 22 -66 53 -53 79 11
22 2 40 -42 86 -34 36 -38 45 -29 62 16 30 14 35 -19 68 -37 36 -38 47 -2 29
15 -7 44 -22 65 -32 36 -17 87 -70 87 -90 0 -5 18 -20 40 -32 23 -12 68 -49
100 -82 33 -33 60 -58 60 -55 0 2 23 -18 50 -46 46 -46 54 -50 85 -45 31 5 41
1 81 -34 25 -21 57 -42 72 -45 15 -4 69 -27 120 -51 75 -37 95 -51 106 -76 14
-35 39 -60 63 -63 12 -2 14 5 9 32 -5 26 -4 34 8 34 9 0 20 -10 27 -22 24 -47
73 -88 111 -95 28 -4 45 -14 60 -37 39 -55 67 -76 110 -83 40 -6 107 -43 139
-78 28 -30 71 -55 95 -55 9 0 39 -18 67 -40 30 -25 59 -40 71 -38 18 3 21 9
18 47 -3 40 -2 43 17 38 12 -3 21 -2 21 1 -1 14 -90 95 -97 89 -7 -8 -43 21
-43 35 0 5 -7 16 -15 25 -8 8 -13 18 -10 23 3 4 -9 13 -25 20 -17 7 -30 16
-30 20 0 12 -118 123 -146 138 -13 7 -29 10 -34 7 -6 -3 -10 1 -10 11 0 9 -14
30 -30 46 -24 23 -38 28 -61 24 -37 -5 -75 31 -121 116 -17 32 -34 58 -37 59
-3 0 -19 2 -35 3 -28 2 -41 14 -124 109 -18 21 -39 37 -49 35 -10 -2 -22 8
-30 22 -18 35 -40 91 -48 120 -10 36 -53 89 -82 103 -34 15 -45 -5 -26 -50 14
-34 13 -34 -9 -31 -16 2 -30 18 -48 55 -14 28 -34 60 -43 71 -18 20 -101 60
-139 67 -35 7 -88 29 -88 37 0 4 -23 30 -51 59 -53 54 -59 67 -19 44 70 -40
70 -40 86 -17 20 29 42 28 90 -7 39 -28 40 -29 164 -26 69 2 126 4 128 5 8 7
31 4 60 -7 40 -16 48 -12 55 27 5 24 12 30 33 30 15 0 42 -10 61 -21 34 -22
35 -22 89 -3 35 12 54 24 54 34 0 9 5 21 12 28 15 15 54 16 63 2 3 -5 24 -10
45 -10 22 0 50 -5 64 -11 20 -10 30 -9 50 5 34 22 51 20 94 -9 61 -41 79 -33
73 34 -2 22 1 23 32 17 19 -4 47 -2 61 4 20 7 36 6 59 -4 18 -7 62 -16 98 -20
53 -6 68 -4 78 8 18 22 53 20 84 -4 38 -30 50 -26 43 14 -8 41 3 47 58 33 27
-7 48 -7 70 1 33 12 53 11 74 -2 21 -13 27 2 15 34 -9 25 -9 30 4 30 8 0 1 11
-19 27 -18 16 -44 38 -58 50 -32 30 -54 29 -78 -2 -23 -29 -35 -31 -52 -10 -7
8 -28 17 -49 21 -20 4 -50 15 -68 26 -23 14 -46 18 -87 16 -50 -3 -56 -5 -56
-25 0 -12 -7 -29 -16 -37 -17 -18 -37 -11 -87 30 -32 27 -54 30 -82 10 -11 -7
-27 -12 -35 -10 -8 2 -37 8 -65 13 -27 5 -66 16 -85 24 -19 8 -68 18 -109 21
-81 8 -76 14 -55 -54 14 -46 -46 -8 -75 47 -11 23 -44 24 -65 3 -14 -14 -42
-13 -58 3 -42 39 -47 40 -66 17 -16 -20 -21 -21 -43 -10 -13 7 -34 22 -47 33
-19 18 -26 19 -42 9 -29 -18 -82 -15 -140 8 -28 11 -52 20 -54 20 -2 0 -20
-13 -40 -29 -37 -30 -38 -30 -72 -13 -35 16 -35 16 -58 -13 l-23 -29 -43 19
c-33 15 -45 16 -61 7 -27 -17 -29 -16 -29 22 0 40 17 57 45 45 44 -17 74 -10
90 21 17 34 19 34 65 19 39 -14 53 0 46 48 -7 49 11 65 57 52 45 -12 64 -2 69
39 3 23 9 28 43 32 69 10 78 26 51 92 -22 52 -8 66 44 43 49 -22 70 -14 84 31
13 46 21 57 40 60 41 6 48 13 45 54 -4 49 2 55 50 51 21 -1 54 4 73 12 31 13
34 18 30 46 -6 43 12 61 63 61 46 0 56 10 48 52 -4 21 0 27 22 32 14 4 30 4
36 0 6 -3 21 -3 34 0 20 5 24 13 27 54 3 47 3 47 40 48 44 1 49 5 64 47 9 28
16 32 45 32 31 0 36 4 58 51 19 39 32 54 58 63 18 7 33 17 33 22 0 5 6 9 13 9
8 0 22 9 32 20 10 11 15 20 11 20 -14 0 25 60 53 79 43 31 46 53 15 100 -36
55 -47 52 -39 -8 8 -62 -8 -76 -69 -55 -45 16 -60 9 -62 -34 -1 -28 -9 -31
-66 -19 -36 7 -65 -19 -59 -55 1 -11 -13 -10 -43 1 -29 12 -40 1 -51 -49 -9
-44 -19 -50 -61 -37 -28 9 -37 7 -53 -7 -11 -10 -23 -31 -26 -47 -7 -32 -18
-35 -77 -17 -45 13 -58 4 -58 -45 0 -37 -76 -87 -134 -88 -71 -2 -91 -11 -91
-44 0 -24 -9 -35 -46 -60 -25 -16 -54 -38 -64 -49 -15 -14 -28 -17 -61 -12
-31 4 -55 0 -88 -15 -43 -18 -49 -28 -45 -65 1 -8 -42 -44 -53 -44 -5 0 -27 9
-50 21 -22 11 -44 17 -49 12 -4 -4 -9 -28 -11 -53 l-3 -45 -54 2 c-67 3 -77
-8 -49 -57 13 -22 19 -44 15 -54 -8 -19 -15 -18 -74 5 -42 17 -55 5 -57 -53
l-1 -43 -42 0 c-51 0 -58 -6 -55 -50 1 -18 -2 -36 -8 -40 -6 -4 -10 6 -10 25
0 17 -4 39 -9 48 -14 28 5 62 39 68 17 4 33 11 36 16 3 5 6 40 7 79 1 65 3 72
26 87 42 27 53 41 56 70 1 15 5 40 10 55 4 17 3 45 -4 69 -14 44 -5 65 32 70
16 2 24 15 33 52 13 52 11 66 -18 108 -34 50 -18 88 38 88 36 0 38 12 12 52
-9 13 -21 41 -26 61 -9 33 -8 38 19 59 22 17 31 34 34 63 3 22 15 53 27 69 18
26 19 33 9 62 -10 29 -10 38 5 64 16 26 17 35 6 77 -16 58 -6 71 43 56 30 -10
37 -9 42 4 3 9 1 23 -5 32 -34 46 -36 60 -14 90 20 27 21 35 12 113 -6 45 -10
86 -10 89 0 4 14 9 30 13 25 4 30 10 30 33 0 16 4 44 10 63 9 31 6 40 -21 84
-17 27 -28 58 -26 68 6 20 -8 25 -19 7 -4 -6 -7 -29 -7 -49 0 -37 -1 -38 -25
-29 -39 15 -52 -4 -52 -74 l0 -60 -45 6 c-54 8 -66 -7 -43 -56 13 -27 13 -38
0 -89 -8 -32 -18 -59 -23 -59 -5 -1 -13 -3 -19 -4 -5 -1 -17 -3 -26 -4 -14 -1
-16 -10 -10 -62 6 -52 5 -63 -11 -74 -12 -9 -16 -24 -15 -49 2 -31 -2 -38 -37
-61 l-39 -27 5 -72 6 -73 -39 -19 c-42 -20 -44 -29 -29 -106 7 -37 7 -38 -25
-44 -31 -7 -52 -36 -43 -60 2 -7 -6 -19 -19 -28 -19 -14 -23 -25 -23 -69 0
-46 -3 -53 -27 -65 -19 -9 -28 -21 -28 -36 0 -40 -33 -71 -73 -68 -20 1 -38
-2 -41 -7 -3 -5 8 -26 24 -46 17 -21 30 -46 30 -57 0 -10 -14 -46 -31 -79 -23
-46 -29 -68 -24 -91 6 -24 2 -35 -20 -59 l-28 -28 32 -28 c29 -26 44 -52 20
-38 -5 4 -23 1 -40 -5 -22 -9 -29 -19 -29 -39 0 -21 -2 -23 -10 -11 -6 8 -8
31 -4 52 4 25 0 48 -14 75 -11 21 -23 54 -27 73 -4 19 -12 38 -17 41 -6 4 -6
19 0 41 8 29 5 45 -15 94 -14 32 -26 68 -28 80 -1 12 -12 32 -24 45 -12 13
-26 39 -31 59 -5 19 -26 55 -45 79 l-35 43 22 17 c20 17 20 18 4 44 -10 14
-32 37 -50 51 -31 24 -116 173 -116 205 0 8 -15 37 -32 65 -38 58 -39 63 -21
93 18 31 17 36 -15 85 -30 46 -82 158 -82 177 0 11 -27 77 -52 128 -6 12 -31
32 -57 45 -49 26 -78 65 -68 92 6 15 9 16 38 1 56 -30 82 5 33 44 -15 12 -37
21 -50 21 -24 0 -73 40 -92 75 -9 16 -11 6 -12 -51z"/>
</g>
</svg>
