<?xml version="1.0" standalone="no"?>
<!DOCTYPE svg PUBLIC "-//W3C//DTD SVG 20010904//EN"
 "http://www.w3.org/TR/2001/REC-SVG-20010904/DTD/svg10.dtd">
<svg version="1.0" xmlns="http://www.w3.org/2000/svg"
 width="558.000000pt" height="558.000000pt" viewBox="0 0 558.000000 558.000000"
 preserveAspectRatio="xMidYMid meet">
<metadata>
Created by potrace 1.13, written by Peter Selinger 2001-2015
</metadata>
<g transform="translate(0.000000,558.000000) scale(0.100000,-0.100000)"
fill="#000000" stroke="none">
<path d="M2657 5113 c-4 -3 -7 -16 -7 -29 0 -19 -7 -23 -56 -29 -49 -6 -60 -4
-92 17 -57 37 -70 40 -92 18 -11 -11 -20 -24 -20 -29 0 -5 -7 -11 -16 -13 -14
-3 -13 -7 5 -30 26 -32 26 -45 2 -53 -48 -15 -47 -48 2 -102 16 -19 20 -39 23
-125 6 -155 11 -189 33 -231 25 -49 18 -67 -25 -67 -46 0 -45 -25 1 -70 20
-19 40 -51 45 -71 11 -40 10 -90 -2 -83 -14 9 -20 -47 -9 -90 6 -25 8 -51 5
-59 -3 -8 2 -31 10 -52 19 -45 20 -78 4 -104 -9 -15 -9 -26 1 -48 7 -15 19
-48 27 -72 l13 -44 -42 40 c-23 22 -64 57 -90 78 -55 44 -80 85 -72 118 9 35
-72 131 -168 200 -91 64 -107 81 -107 113 0 14 -17 35 -47 60 -64 51 -72 63
-73 100 0 36 -47 84 -105 109 -29 12 -35 19 -35 44 0 24 -13 44 -55 88 -30 32
-55 61 -55 66 0 4 -13 0 -30 -10 -27 -16 -35 -26 -27 -37 1 -1 -14 -16 -33
-32 -19 -16 -43 -39 -53 -51 -10 -13 -24 -23 -31 -23 -7 0 -30 -25 -52 -55
-21 -30 -54 -64 -71 -75 -18 -10 -41 -32 -50 -47 -10 -16 -29 -30 -43 -32 -32
-4 -40 -17 -40 -68 0 -46 -2 -47 -61 -44 -43 3 -56 -11 -61 -64 -3 -39 -4 -40
-42 -40 l-40 0 -1 -48 c0 -42 3 -52 28 -73 18 -15 39 -23 57 -22 32 2 55 -14
185 -132 49 -45 107 -91 129 -102 84 -43 114 -70 142 -124 32 -63 88 -118 148
-145 23 -10 57 -36 74 -58 18 -23 36 -40 40 -40 41 6 159 -81 186 -138 l18
-37 -51 47 c-58 55 -94 62 -91 20 1 -16 2 -34 1 -40 -2 -19 -43 -15 -71 7 -27
21 -55 26 -65 10 -10 -17 -39 -11 -79 16 l-38 26 -53 -17 -52 -18 -59 36 c-33
21 -69 37 -81 37 -22 0 -48 -32 -36 -44 3 -3 0 -6 -9 -6 -8 0 -25 11 -38 25
-29 31 -47 32 -56 3 -7 -22 -21 -38 -36 -38 -5 0 -26 16 -48 36 l-39 36 -27
-21 c-36 -28 -78 -26 -144 6 -32 16 -76 28 -105 29 -27 1 -65 5 -83 9 -31 7
-32 6 -33 -26 -2 -42 -2 -37 4 -76 4 -24 2 -30 -9 -26 -8 3 -18 -5 -25 -20 -9
-20 -7 -32 10 -65 12 -23 21 -50 21 -61 0 -29 -37 -52 -66 -41 -35 14 -29 -1
16 -40 40 -34 41 -37 44 -103 1 -38 -1 -70 -5 -72 -8 -6 -4 -58 6 -75 5 -8 4
-11 -3 -6 -12 7 -32 -23 -32 -50 0 -10 9 -37 21 -60 16 -35 18 -47 9 -65 -10
-18 -18 -21 -51 -16 -48 6 -49 -5 -6 -44 41 -38 64 -43 108 -25 20 8 70 16
111 17 63 2 82 -2 112 -20 44 -27 57 -21 55 28 -2 20 1 42 5 49 9 14 45 1 90
-33 40 -30 51 -31 112 -4 37 15 60 19 95 14 41 -6 49 -4 62 15 19 27 48 20 67
-15 17 -32 40 -41 34 -12 -4 24 20 67 39 67 7 0 34 -13 60 -30 59 -37 89 -38
107 -5 7 13 22 28 34 31 55 18 269 17 258 -1 -3 -5 -8 -25 -12 -45 -5 -34 -7
-35 -46 -32 -48 4 -67 -13 -68 -61 -1 -29 -4 -32 -45 -39 -59 -10 -105 -47
-116 -94 -10 -37 -12 -39 -52 -39 -46 -1 -77 -28 -88 -77 -4 -15 -10 -26 -13
-25 -13 4 -92 -36 -87 -43 3 -5 -3 -6 -14 -3 -14 3 -28 -10 -60 -57 -22 -34
-41 -67 -41 -74 0 -6 -5 -4 -10 4 -8 12 -10 12 -10 1 0 -8 -3 -11 -6 -8 -10
10 -41 -10 -122 -82 -43 -37 -87 -73 -99 -80 -13 -6 -29 -24 -38 -40 -9 -18
-30 -35 -56 -45 l-42 -17 42 -21 c44 -22 76 -57 109 -123 26 -52 58 -81 107
-98 28 -10 39 -20 40 -35 2 -29 39 -68 95 -100 60 -34 86 -58 115 -107 29 -51
91 -95 131 -95 17 0 35 -5 41 -11 16 -16 25 5 15 33 -13 35 -4 48 33 48 38 0
55 20 55 64 0 14 9 31 21 40 12 8 27 25 33 37 7 14 24 26 44 30 43 9 44 10 46
66 l1 48 38 1 c43 1 56 14 50 47 -2 12 2 31 10 42 14 18 19 19 58 8 24 -6 47
-9 51 -7 5 3 -4 28 -19 55 -28 50 -28 50 -8 65 14 11 32 13 62 9 48 -7 54 -1
44 46 -15 66 17 97 70 69 30 -17 41 -3 23 31 -8 17 -12 38 -9 48 7 23 51 41
86 37 25 -4 26 -2 22 38 -6 56 38 124 98 154 23 12 45 20 47 17 2 -2 -1 -20
-8 -40 -11 -33 -9 -39 20 -85 39 -61 37 -86 -7 -84 l-32 2 3 -122 c1 -74 7
-130 15 -145 11 -19 11 -31 0 -63 -12 -36 -11 -40 19 -82 43 -60 43 -86 -2
-86 l-34 0 2 -123 c2 -73 8 -131 15 -145 9 -18 10 -31 1 -58 -11 -32 -9 -39
20 -84 39 -61 37 -86 -7 -84 l-32 2 2 -57 2 -56 40 -12 c121 -36 122 -36 146
-19 32 22 47 20 90 -9 33 -24 42 -25 102 -19 62 6 67 9 76 37 9 24 15 28 33
22 66 -20 69 -20 63 11 -4 16 -13 47 -21 69 -9 23 -13 59 -10 85 3 25 5 49 5
53 1 5 9 6 19 3 10 -4 27 0 37 8 19 14 19 15 2 48 -10 18 -25 45 -35 60 -16
26 -16 29 1 61 15 28 16 40 7 87 -6 30 -18 71 -26 90 -9 22 -13 54 -11 85 4
47 6 50 35 53 46 5 51 34 13 87 -35 49 -38 66 -15 100 14 21 14 32 4 77 -6 29
-18 71 -26 93 -9 23 -13 59 -10 85 3 25 5 49 5 53 1 5 9 6 19 3 10 -4 27 0 37
8 17 12 18 17 7 40 -16 36 -2 32 40 -11 22 -23 38 -50 40 -68 2 -17 8 -29 16
-27 6 1 11 -4 10 -10 -2 -7 3 -12 10 -10 6 1 12 -3 12 -9 0 -5 3 -8 8 -6 4 3
8 -9 9 -25 3 -32 28 -71 85 -128 49 -50 137 -159 109 -135 l-24 20 21 -41 c13
-25 32 -46 51 -54 38 -15 138 -119 155 -162 8 -18 33 -50 55 -70 27 -24 41
-45 41 -61 0 -33 97 -158 138 -177 17 -8 38 -24 46 -35 17 -22 19 -18 20 40
l1 40 48 -2 c37 -2 47 1 47 13 0 8 7 28 15 44 15 30 37 42 92 48 7 1 10 12 8
24 -8 39 3 54 70 98 45 28 70 52 79 75 8 18 27 39 42 47 16 8 31 25 35 42 9
34 24 46 60 46 32 0 59 28 59 61 0 13 4 30 9 38 12 19 -12 46 -91 97 -52 34
-69 51 -76 76 -18 72 -151 191 -299 269 -73 38 -93 56 -93 84 0 26 -65 94 -97
100 -13 3 -33 7 -46 10 -13 2 -52 31 -87 62 -152 140 -200 187 -195 191 3 3
29 -11 58 -31 52 -36 96 -48 98 -27 1 6 3 15 4 20 1 6 3 13 4 18 2 13 102 11
137 -4 20 -9 34 -10 34 -4 0 18 61 11 87 -10 25 -20 25 -20 50 0 14 11 29 20
33 20 4 0 35 -19 69 -42 l62 -42 50 18 c43 16 56 17 95 6 25 -7 59 -13 76 -12
20 0 47 -10 75 -30 24 -17 46 -28 50 -24 5 4 8 27 8 49 0 58 25 60 90 6 49
-41 51 -41 105 -34 30 5 70 8 88 8 26 0 32 4 32 21 0 11 9 35 20 51 27 40 26
47 -15 108 -47 70 -46 87 5 87 34 0 40 3 40 21 0 11 -8 34 -17 50 -14 24 -15
33 -5 49 17 28 15 55 -8 92 -26 42 -25 50 5 86 33 39 32 51 -10 103 -19 24
-35 54 -35 67 0 18 5 22 34 22 43 0 55 27 30 69 -17 28 -19 29 -101 29 -77 -1
-85 -3 -93 -22 -4 -11 -6 -24 -4 -28 10 -17 -29 1 -54 25 -36 34 -44 34 -65
-3 -24 -40 -81 -44 -149 -9 -61 31 -85 25 -92 -25 -4 -26 -11 -26 -40 -1 -38
32 -49 31 -63 -5 -13 -35 -30 -37 -79 -11 l-37 20 -47 -24 -48 -24 -57 30
c-67 36 -90 35 -91 -4 -2 -44 -18 -54 -57 -35 -31 15 -37 15 -66 0 -31 -14
-35 -14 -77 6 -24 12 -51 19 -61 15 -13 -4 -12 -1 5 14 16 15 32 20 52 17 25
-4 29 -1 40 31 13 38 79 95 111 95 34 0 49 12 49 40 0 33 43 72 74 68 28 -3
46 9 46 31 0 10 9 26 21 37 19 17 23 17 64 3 53 -19 63 -7 34 37 -38 59 -19
79 64 68 l50 -7 -5 47 c-8 67 10 83 62 56 71 -36 88 -18 53 55 -9 19 -13 38
-9 42 4 5 33 8 64 8 l57 0 -3 53 c-4 61 4 64 68 31 38 -20 43 -20 57 -6 15 15
15 20 -2 56 -14 32 -15 44 -6 55 10 12 3 24 -37 69 -27 30 -58 69 -68 86 -11
20 -46 49 -85 71 -79 47 -218 183 -259 255 -16 28 -38 59 -48 68 -23 21 -59
29 -68 16 -6 -11 -34 7 -34 22 0 4 -4 19 -9 32 -10 24 -10 25 -55 10 -41 -14
-45 -17 -40 -42 8 -40 -20 -99 -53 -112 -42 -16 -59 -36 -73 -85 -13 -44 -62
-104 -86 -104 -17 0 -54 -49 -54 -72 0 -10 -11 -29 -25 -42 -14 -13 -31 -41
-39 -62 -10 -32 -19 -40 -48 -47 -31 -7 -38 -16 -68 -82 -18 -40 -33 -76 -32
-79 3 -9 -22 -35 -29 -30 -3 2 -21 -9 -39 -25 -30 -24 -33 -31 -27 -64 5 -34
5 -36 -17 -27 -17 6 -30 4 -46 -7 -20 -14 -22 -21 -16 -69 3 -30 3 -54 -1 -55
-52 -4 -100 -2 -96 4 2 4 17 7 33 7 40 0 45 15 20 58 -26 43 -48 112 -42 130
2 6 12 12 22 12 29 0 34 18 31 98 -2 58 -7 81 -27 109 -31 46 -27 58 20 59 48
1 59 18 39 63 -36 84 -36 89 -13 125 15 25 20 49 19 83 -2 33 3 57 15 75 22
34 14 62 -25 85 l-30 18 27 5 c49 9 55 49 19 142 -4 10 2 25 16 39 16 16 22
33 21 54 -2 16 4 47 12 67 26 61 21 74 -29 93 -51 20 -72 15 -77 -17 -3 -20
-11 -24 -58 -32 -52 -8 -58 -7 -104 22 -53 34 -75 32 -97 -9 -7 -14 -16 -18
-27 -13 -66 27 -170 64 -183 64 -9 0 -19 -3 -22 -7z m-577 -2443 c18 -12 2
-12 -25 0 -13 6 -15 9 -5 9 8 0 22 -4 30 -9z"/>
</g>
</svg>
