<?xml version="1.0" standalone="no"?>
<!DOCTYPE svg PUBLIC "-//W3C//DTD SVG 20010904//EN"
 "http://www.w3.org/TR/2001/REC-SVG-20010904/DTD/svg10.dtd">
<svg version="1.0" xmlns="http://www.w3.org/2000/svg"
 width="558.000000pt" height="558.000000pt" viewBox="0 0 558.000000 558.000000"
 preserveAspectRatio="xMidYMid meet">
<metadata>
Created by potrace 1.13, written by Peter Selinger 2001-2015
</metadata>
<g transform="translate(0.000000,558.000000) scale(0.100000,-0.100000)"
fill="#000000" stroke="none">
<path d="M630 4453 c0 -49 29 -216 48 -283 39 -133 75 -212 232 -515 70 -135
135 -282 165 -373 l17 -52 121 7 c152 10 552 10 632 1 217 -25 462 -109 572
-196 110 -88 196 -269 230 -485 22 -144 22 -652 -1 -772 -2 -11 -7 -58 -11
-105 -4 -47 -8 -92 -10 -100 -2 -8 -6 -46 -10 -85 -4 -38 -8 -81 -10 -95 -2
-14 -7 -50 -10 -80 -4 -30 -9 -62 -10 -70 -1 -8 -6 -38 -10 -66 l-7 -52 44 6
c60 8 301 7 368 -1 63 -7 91 -12 175 -32 33 -7 61 -12 63 -10 2 1 -20 110 -48
241 -172 801 -183 1209 -39 1504 77 156 186 241 437 342 86 34 255 74 357 84
39 3 73 8 77 10 9 5 483 4 523 -1 67 -9 195 -9 204 0 5 6 27 51 49 100 22 50
59 131 82 180 85 182 98 212 133 320 40 123 53 172 63 229 3 21 8 48 10 60 3
11 8 88 11 170 l6 149 -48 -6 c-69 -10 -242 -71 -363 -128 -124 -58 -344 -178
-354 -193 -5 -7 -8 -7 -8 -1 0 6 -3 6 -8 -1 -4 -6 -56 -37 -117 -69 -60 -32
-113 -63 -116 -68 -3 -5 -9 -8 -12 -8 -4 0 -53 -21 -109 -48 -210 -98 -267
-121 -423 -171 -139 -45 -258 -73 -395 -95 -14 -2 -41 -7 -60 -10 -63 -11
-423 -14 -510 -4 -334 36 -711 165 -1065 364 -104 58 -241 139 -267 156 -15
11 -29 19 -31 19 -2 0 -59 32 -126 70 -68 39 -124 70 -126 70 -2 0 -41 17 -87
39 -96 44 -192 81 -213 81 -10 0 -15 -10 -15 -27z"/>
</g>
</svg>
