<?xml version="1.0" standalone="no"?>
<!DOCTYPE svg PUBLIC "-//W3C//DTD SVG 20010904//EN"
 "http://www.w3.org/TR/2001/REC-SVG-20010904/DTD/svg10.dtd">
<svg version="1.0" xmlns="http://www.w3.org/2000/svg"
 width="512.000000pt" height="512.000000pt" viewBox="0 0 512.000000 512.000000"
 preserveAspectRatio="xMidYMid meet">
<metadata>
Created by potrace 1.13, written by Peter Selinger 2001-2015
</metadata>
<g transform="translate(0.000000,512.000000) scale(0.100000,-0.100000)"
fill="#000000" stroke="none">
<path d="M1749 4933 c-1 -48 -1 -91 -1 -94 1 -4 2 -38 3 -75 2 -90 27 -247 45
-282 8 -15 14 -35 14 -44 0 -9 4 -19 9 -23 5 -3 12 -19 16 -35 4 -17 10 -30
13 -30 4 0 13 -15 21 -32 7 -18 30 -69 52 -113 21 -44 46 -109 54 -143 9 -35
20 -71 24 -80 4 -10 19 -39 32 -67 13 -27 38 -73 56 -102 34 -53 123 -219 123
-228 0 -13 -31 -2 -58 20 -17 14 -35 25 -41 25 -7 0 -14 6 -17 14 -10 25 -234
121 -332 142 -26 5 -90 29 -140 51 -19 8 -47 16 -63 18 -16 2 -35 8 -42 12 -6
4 -16 8 -22 9 -5 1 -40 9 -76 18 -58 13 -145 30 -214 40 -110 17 -300 60 -395
89 -19 6 -43 10 -52 8 -10 -1 -26 2 -36 8 -10 6 -30 12 -43 15 -13 2 -57 12
-97 20 -108 24 -133 19 -99 -16 7 -7 23 -31 37 -53 13 -22 42 -62 65 -90 23
-27 49 -62 59 -77 22 -33 104 -118 114 -118 5 0 19 -11 32 -25 13 -14 29 -25
37 -25 7 0 13 -4 13 -8 0 -7 67 -47 127 -76 13 -6 23 -14 23 -18 0 -5 9 -8 20
-8 11 0 20 -4 20 -8 0 -4 20 -16 45 -26 25 -11 45 -23 45 -27 0 -4 10 -11 23
-15 12 -4 32 -14 43 -23 12 -9 32 -23 44 -31 12 -8 34 -25 48 -37 15 -12 54
-36 87 -52 56 -27 86 -41 195 -86 125 -53 148 -89 52 -82 -86 6 -213 -15 -342
-58 -63 -20 -141 -46 -173 -56 -31 -11 -64 -19 -72 -19 -8 0 -29 -6 -47 -14
-18 -8 -53 -22 -78 -31 -61 -23 -170 -74 -227 -104 -70 -38 -184 -89 -343
-153 -14 -6 -32 -14 -40 -18 -9 -4 -30 -11 -48 -15 -18 -3 -32 -10 -32 -14 0
-4 -23 -14 -51 -21 -27 -8 -53 -18 -55 -22 -3 -5 -22 -15 -42 -24 -34 -14 -35
-17 -19 -28 20 -15 23 -36 5 -36 -40 -1 125 -70 182 -75 8 -1 26 -6 40 -10 14
-5 32 -10 40 -11 8 -1 31 -6 50 -10 64 -13 213 -8 340 12 31 4 82 12 135 18
35 5 104 6 210 5 48 -1 114 8 205 29 83 19 115 25 193 37 54 9 48 -14 -13 -54
-78 -51 -151 -122 -205 -202 -27 -41 -53 -76 -56 -79 -7 -5 -75 -92 -114 -146
-11 -15 -26 -33 -32 -40 -7 -7 -13 -17 -13 -21 0 -5 -9 -19 -20 -31 -11 -12
-31 -41 -43 -64 -22 -41 -55 -98 -100 -178 -29 -50 -44 -81 -56 -113 -6 -15
-15 -27 -20 -27 -5 0 -12 -12 -15 -26 -4 -15 -12 -32 -19 -40 -32 -36 -38 -46
-40 -64 -1 -11 -7 -22 -14 -24 -7 -3 -13 -12 -13 -21 0 -8 -4 -15 -8 -15 -10
0 -45 -60 -35 -60 4 0 0 -5 -10 -11 -9 -5 -17 -17 -17 -25 0 -8 -4 -13 -9 -10
-5 3 -11 -4 -15 -17 -3 -12 -12 -31 -21 -42 -30 -39 -93 -180 -82 -183 10 -2
62 12 162 42 6 1 21 8 35 14 28 12 62 25 70 26 20 4 180 89 190 101 7 8 17 15
23 15 13 0 139 112 242 216 44 44 100 94 125 109 44 29 130 94 140 106 3 4 14
19 25 33 11 15 61 70 111 123 93 97 125 113 99 49 -8 -18 -16 -44 -19 -57 -3
-13 -13 -49 -22 -79 -16 -55 -21 -143 -24 -471 -2 -181 4 -264 31 -409 10 -58
18 -114 18 -125 0 -11 7 -94 15 -185 9 -91 18 -194 21 -230 2 -36 6 -75 9 -87
2 -11 8 -42 11 -67 4 -26 11 -49 16 -51 10 -7 41 23 65 64 10 17 22 31 26 31
4 0 8 5 8 11 0 6 15 32 34 58 18 25 49 75 67 110 19 35 42 78 51 95 9 17 17
40 18 52 0 11 3 24 7 28 4 3 8 12 9 19 2 7 5 23 8 37 15 67 46 239 48 268 1
19 6 36 10 38 5 3 6 9 4 13 -3 4 6 39 20 77 13 38 27 77 29 87 2 9 6 21 9 25
3 5 8 30 11 58 4 27 9 60 11 74 3 14 7 48 9 75 2 28 7 68 10 90 4 22 8 51 9
65 4 38 5 40 21 40 8 0 17 -12 21 -27 11 -51 36 -128 45 -138 5 -5 9 -17 9
-26 0 -10 6 -24 13 -31 8 -7 20 -25 27 -38 7 -14 35 -54 62 -90 27 -36 74
-103 105 -150 60 -91 126 -180 158 -215 89 -95 139 -145 146 -145 5 0 9 -4 9
-10 0 -5 21 -31 48 -59 47 -49 123 -134 162 -180 11 -13 20 -28 20 -33 0 -4 6
-8 14 -8 8 0 17 -8 20 -18 10 -29 146 -175 219 -234 l38 -31 -5 174 c-4 174
-23 303 -52 366 -7 17 -14 37 -14 45 0 7 -7 22 -15 32 -8 11 -15 28 -15 37 0
10 -3 19 -7 21 -10 4 -63 110 -63 126 0 6 -3 12 -8 12 -12 0 -42 77 -59 151
-8 38 -19 69 -24 69 -5 0 -9 9 -9 19 0 21 -36 93 -98 194 -23 37 -42 72 -42
77 0 6 -4 10 -10 10 -5 0 -9 3 -8 8 1 8 -17 59 -32 84 -8 14 -7 18 6 18 14 0
47 -21 94 -62 38 -33 135 -79 236 -113 60 -20 118 -40 129 -45 80 -34 227 -82
285 -94 14 -3 45 -10 70 -16 25 -6 59 -13 75 -16 17 -2 82 -13 145 -25 63 -11
126 -22 140 -23 14 -2 45 -9 70 -16 25 -7 50 -13 55 -14 6 -1 19 -5 30 -9 23
-7 60 -15 125 -27 25 -5 63 -13 85 -20 22 -6 51 -13 65 -14 14 -2 49 -7 78
-11 53 -8 65 0 39 27 -6 7 -24 31 -38 53 -14 22 -37 53 -50 68 -13 16 -33 39
-44 53 -92 110 -115 134 -152 160 -24 16 -43 32 -43 37 0 4 -7 7 -15 7 -8 0
-15 4 -15 8 0 5 -27 22 -60 38 -33 16 -60 32 -60 35 0 3 -16 11 -35 19 -19 8
-35 17 -35 22 0 4 -7 8 -15 8 -20 0 -160 85 -215 131 -43 35 -114 74 -205 114
-125 55 -205 98 -205 110 0 12 17 15 83 16 123 0 161 7 292 48 66 21 154 48
195 60 72 22 162 52 225 75 17 6 43 19 58 29 14 9 30 17 33 17 4 0 82 36 173
81 91 44 176 85 189 90 36 15 71 28 95 38 12 5 60 25 107 45 47 20 88 36 91
36 4 0 28 12 54 26 34 19 43 29 33 35 -10 7 -10 12 -1 27 10 17 7 22 -26 36
-20 10 -41 16 -47 15 -5 -2 -19 2 -30 9 -18 10 -47 18 -134 37 -8 2 -35 8 -58
13 -43 10 -249 9 -307 -2 -16 -3 -55 -8 -85 -11 -30 -3 -64 -9 -75 -12 -11 -4
-92 -7 -180 -8 -110 -1 -179 -7 -220 -18 -58 -15 -227 -47 -252 -47 -29 0 -10
29 39 61 71 45 156 131 204 204 21 33 43 65 49 71 9 10 26 31 125 160 22 29
40 56 40 62 0 5 7 15 15 22 19 16 79 120 163 285 25 50 50 92 54 93 4 2 8 8 8
14 0 6 20 44 45 85 25 40 45 78 45 83 0 4 4 10 9 12 5 2 17 17 27 34 11 17 38
62 60 100 53 88 114 207 109 212 -6 7 -148 -29 -162 -41 -7 -5 -13 -6 -13 -3
0 4 -10 0 -22 -8 -12 -9 -29 -16 -36 -16 -8 0 -46 -16 -85 -35 -39 -19 -77
-35 -84 -35 -7 0 -13 -4 -13 -10 0 -5 -6 -10 -13 -10 -8 0 -22 -9 -32 -20 -10
-11 -22 -20 -27 -20 -5 0 -15 -6 -23 -12 -7 -7 -32 -29 -56 -48 -24 -19 -86
-78 -139 -130 -53 -53 -121 -112 -151 -132 -30 -20 -67 -48 -84 -62 -16 -14
-32 -26 -36 -26 -3 0 -25 -27 -50 -60 -24 -32 -52 -62 -61 -65 -10 -4 -18 -11
-18 -17 0 -14 -107 -118 -120 -118 -14 0 -13 6 16 90 38 111 39 128 39 465 -1
311 -5 403 -25 492 -11 47 -27 171 -35 268 -14 164 -17 206 -20 260 -2 33 -5
69 -8 80 -2 11 -8 46 -11 77 -4 32 -11 60 -16 63 -11 7 -37 -18 -64 -60 -11
-17 -25 -34 -33 -38 -7 -5 -11 -12 -8 -17 3 -4 -7 -21 -22 -37 -16 -15 -35
-41 -43 -58 -8 -16 -25 -46 -37 -66 -12 -20 -19 -39 -17 -42 3 -3 -4 -11 -16
-17 -12 -6 -19 -14 -16 -17 3 -3 0 -15 -6 -27 -7 -11 -13 -26 -14 -33 -1 -6
-7 -27 -13 -45 -6 -18 -12 -44 -15 -58 -3 -14 -7 -36 -10 -50 -12 -55 -16 -77
-22 -114 -3 -21 -7 -46 -9 -55 -1 -9 -6 -36 -10 -61 -4 -25 -11 -50 -16 -56
-6 -7 -8 -16 -7 -20 2 -8 -10 -46 -39 -124 -9 -22 -12 -41 -15 -75 -1 -16 -4
-34 -7 -40 -3 -5 -6 -23 -7 -40 -2 -31 -13 -144 -19 -204 -6 -56 -45 -70 -45
-15 0 13 -4 32 -9 42 -5 9 -17 37 -26 62 -27 71 -44 99 -120 200 -40 52 -75
103 -78 113 -4 9 -11 17 -17 17 -5 0 -10 6 -10 13 0 8 -9 22 -20 32 -11 10
-20 22 -20 27 0 5 -6 16 -12 23 -7 8 -29 35 -48 61 -39 51 -58 73 -144 163
-32 33 -63 61 -67 61 -5 0 -9 4 -9 10 0 5 -21 32 -47 59 -54 55 -130 141 -165
186 -12 17 -32 40 -43 51 -11 12 -33 39 -50 60 -45 57 -136 152 -172 180 l-33
25 -1 -88z"/>
</g>
</svg>
