<?xml version="1.0" standalone="no"?>
<!DOCTYPE svg PUBLIC "-//W3C//DTD SVG 20010904//EN"
 "http://www.w3.org/TR/2001/REC-SVG-20010904/DTD/svg10.dtd">
<svg version="1.0" xmlns="http://www.w3.org/2000/svg"
 width="558.000000pt" height="558.000000pt" viewBox="0 0 558.000000 558.000000"
 preserveAspectRatio="xMidYMid meet">
<metadata>
Created by potrace 1.13, written by Peter Selinger 2001-2015
</metadata>
<g transform="translate(0.000000,558.000000) scale(0.100000,-0.100000)"
fill="#000000" stroke="none">
<path d="M935 4681 c-3 -2 -5 -613 -5 -1358 0 -971 3 -1353 11 -1353 6 0 732
273 1612 606 881 334 1610 609 1620 612 16 4 17 -4 15 -103 l-3 -107 -1628
-631 -1627 -630 2 -411 3 -411 355 1 355 1 1314 466 c722 257 1315 467 1317
467 3 0 3 -50 2 -112 l-3 -111 -962 -351 c-529 -193 -960 -353 -957 -356 7 -6
2264 -9 2281 -2 10 3 13 367 13 1774 l0 1770 -27 -7 c-65 -16 -3232 -907
-3270 -920 l-43 -14 0 78 0 78 1618 493 c889 271 1638 500 1665 507 26 8 47
18 47 22 0 8 -3698 10 -3705 2z"/>
</g>
</svg>
