<?xml version="1.0" standalone="no"?>
<!DOCTYPE svg PUBLIC "-//W3C//DTD SVG 20010904//EN"
 "http://www.w3.org/TR/2001/REC-SVG-20010904/DTD/svg10.dtd">
<svg version="1.0" xmlns="http://www.w3.org/2000/svg"
 width="558.000000pt" height="558.000000pt" viewBox="0 0 558.000000 558.000000"
 preserveAspectRatio="xMidYMid meet">
<metadata>
Created by potrace 1.13, written by Peter Selinger 2001-2015
</metadata>
<g transform="translate(0.000000,558.000000) scale(0.100000,-0.100000)"
fill="#000000" stroke="none">
<path d="M2440 5190 c-74 -5 -159 -12 -188 -15 l-53 -7 6 -41 c3 -23 10 -58
15 -77 5 -19 11 -51 14 -70 3 -19 8 -45 10 -56 2 -12 7 -37 10 -55 3 -19 8
-45 11 -59 3 -14 7 -36 10 -50 10 -51 15 -76 20 -100 4 -14 8 -35 11 -47 12
-62 14 -75 19 -95 3 -13 7 -34 10 -48 10 -50 45 -226 50 -250 3 -14 10 -47 15
-75 10 -49 16 -78 24 -112 7 -28 55 -265 60 -293 3 -14 5 -26 7 -27 1 -2 3
-12 4 -23 1 -11 3 -21 5 -22 2 -4 16 -70 26 -136 5 -30 3 -33 -28 -39 -18 -4
-36 -6 -40 -5 -5 1 -8 -2 -8 -8 0 -6 -3 -9 -7 -9 -25 4 -43 -2 -37 -13 5 -7 3
-8 -5 -3 -12 7 -83 -22 -89 -37 -2 -5 -10 -8 -18 -8 -8 0 -14 -5 -14 -11 0 -5
-4 -7 -10 -4 -5 3 -10 2 -10 -4 0 -5 -8 -12 -18 -15 -52 -17 -243 -250 -226
-277 4 -7 3 -9 -4 -5 -6 3 -13 -5 -17 -21 -9 -42 -32 -68 -47 -56 -7 6 -21 9
-30 8 -10 -2 -18 0 -18 4 0 4 -8 8 -17 9 -22 2 -58 10 -58 12 0 1 -9 3 -20 5
-11 3 -74 18 -140 35 -66 17 -127 33 -135 35 -8 2 -44 11 -80 20 -36 9 -69 17
-75 18 -5 2 -16 7 -24 11 -11 7 -12 6 -6 -5 7 -11 6 -12 -6 -3 -13 11 -110 37
-136 37 -7 0 -13 5 -13 10 0 6 -2 8 -5 5 -3 -3 -55 7 -115 22 -60 15 -112 25
-115 22 -3 -3 -5 -1 -5 4 0 5 -8 11 -17 12 -22 2 -58 10 -58 12 0 1 -7 3 -15
5 -8 1 -55 13 -105 25 -49 12 -97 24 -105 25 -8 2 -15 4 -15 5 0 1 -12 4 -26
6 -15 2 -59 13 -97 23 -55 14 -72 16 -76 6 -2 -7 -8 -62 -11 -121 -4 -60 -9
-120 -11 -134 -6 -35 -6 -648 0 -690 3 -19 8 -80 11 -135 3 -55 10 -104 14
-108 5 -5 125 24 267 64 142 39 265 73 274 74 8 2 15 4 15 5 0 1 7 3 15 5 8 2
42 11 75 21 33 9 67 18 75 19 8 2 15 4 15 5 0 1 7 3 15 5 8 2 65 18 125 35 61
16 119 32 130 34 11 3 21 5 23 7 1 1 5 2 10 4 4 1 19 5 33 9 14 4 34 9 45 11
10 2 19 4 19 5 0 1 7 3 15 5 8 2 91 25 183 50 93 26 175 44 183 41 8 -3 14
-16 14 -29 0 -13 3 -27 7 -31 5 -4 8 -11 8 -14 1 -18 52 -113 88 -162 93 -128
251 -243 387 -281 25 -7 48 -15 52 -18 6 -5 0 -44 -17 -121 -21 -94 -28 -129
-29 -157 0 -17 -4 -29 -8 -26 -5 2 -8 -8 -9 -24 0 -15 -3 -39 -6 -53 -2 -14
-5 -29 -7 -35 -1 -5 -6 -16 -10 -24 -7 -11 -6 -12 5 -6 12 8 12 6 0 -8 -7 -9
-11 -26 -8 -37 3 -11 2 -18 -3 -15 -4 2 -10 -17 -13 -43 -4 -26 -9 -57 -12
-69 -10 -44 -15 -68 -20 -94 -6 -32 -32 -166 -39 -199 -11 -47 -36 -175 -41
-205 -2 -16 -7 -41 -10 -55 -26 -132 -35 -179 -40 -205 -3 -16 -7 -41 -10 -55
-26 -134 -38 -210 -33 -216 7 -6 60 -12 211 -24 113 -9 745 -5 847 5 118 12
121 13 114 43 -4 15 -11 36 -17 47 -6 11 -10 21 -9 23 1 1 2 3 1 5 0 1 -2 9
-4 17 -1 8 -15 56 -30 105 -14 50 -28 97 -30 105 -2 8 -4 15 -5 15 -1 0 -3 7
-5 15 -1 8 -15 56 -29 105 -15 50 -29 97 -31 105 -2 8 -13 49 -25 90 -12 41
-23 82 -25 90 -2 8 -4 16 -5 18 -2 1 -3 5 -4 10 -4 18 -29 108 -34 122 -3 8
-6 17 -6 20 -5 20 -29 108 -33 120 -4 8 -7 20 -8 25 -2 6 -10 37 -20 70 -9 33
-21 76 -26 95 -16 57 -17 61 -44 155 -14 50 -27 97 -29 105 -2 8 -10 35 -17
60 -37 133 -41 120 44 163 89 45 194 131 257 209 51 63 110 178 130 250 14 53
11 52 100 28 25 -7 52 -13 60 -15 8 -2 35 -8 60 -15 25 -7 55 -14 67 -16 12
-2 33 -8 45 -13 13 -5 26 -9 31 -10 4 0 8 -1 10 -2 2 -1 16 -4 62 -14 43 -9
60 -13 60 -15 0 -1 7 -3 15 -5 8 -2 71 -17 140 -35 127 -32 148 -37 187 -46
12 -2 33 -8 45 -13 13 -5 26 -9 31 -10 4 0 8 -1 10 -2 1 0 9 -2 17 -4 8 -1 42
-10 76 -19 33 -8 71 -18 85 -20 13 -2 24 -5 24 -6 0 -1 7 -3 15 -5 8 -2 80
-20 160 -40 80 -20 152 -38 160 -40 8 -2 15 -4 15 -5 0 -1 7 -3 15 -5 8 -2 26
-6 40 -9 31 -6 45 -10 140 -35 41 -12 82 -21 91 -21 17 0 17 1 36 245 16 216
-1 922 -24 958 -2 4 -12 6 -21 3 -10 -3 -30 -8 -47 -11 -63 -11 -87 -16 -226
-49 -79 -19 -183 -42 -231 -52 -48 -10 -85 -21 -83 -24 2 -3 -9 -5 -26 -4 -16
1 -29 -1 -29 -5 0 -4 -10 -8 -22 -8 -19 -1 -89 -16 -180 -39 -10 -2 -26 -6
-35 -8 -17 -4 -145 -33 -186 -41 -9 -2 -20 -6 -25 -8 -4 -3 -25 -8 -46 -11
-22 -4 -46 -12 -55 -19 -12 -10 -13 -9 -6 3 8 13 7 13 -10 0 -10 -8 -21 -14
-24 -12 -11 5 -91 -10 -87 -17 2 -3 -10 -7 -27 -8 -57 -4 -107 -15 -103 -22 3
-4 -5 -7 -17 -7 -17 0 -118 -20 -147 -29 -3 -1 -24 -5 -47 -10 -24 -4 -41 -10
-39 -14 2 -3 -10 -6 -27 -5 -17 0 -33 7 -35 15 -12 39 -64 140 -94 181 -56 78
-166 188 -188 188 -5 0 -10 4 -10 9 0 9 -139 81 -158 81 -7 0 -15 6 -18 13 -4
12 99 382 246 877 33 113 62 212 64 220 2 8 18 62 36 120 17 58 33 112 35 120
2 8 4 16 5 18 2 1 3 5 4 10 1 4 5 13 9 20 5 6 6 12 2 12 -3 0 1 16 9 35 8 19
12 35 9 35 -3 0 0 7 7 15 7 8 10 15 7 15 -3 0 8 41 24 92 15 51 27 94 25 95
-20 21 -703 37 -936 23z"/>
</g>
</svg>
