<?xml version="1.0" standalone="no"?>
<!DOCTYPE svg PUBLIC "-//W3C//DTD SVG 20010904//EN"
 "http://www.w3.org/TR/2001/REC-SVG-20010904/DTD/svg10.dtd">
<svg version="1.0" xmlns="http://www.w3.org/2000/svg"
 width="512.000000pt" height="512.000000pt" viewBox="0 0 512.000000 512.000000"
 preserveAspectRatio="xMidYMid meet">
<metadata>
Created by potrace 1.13, written by Peter Selinger 2001-2015
</metadata>
<g transform="translate(0.000000,512.000000) scale(0.100000,-0.100000)"
fill="#000000" stroke="none">
<path d="M1754 4918 c-5 -24 -9 -47 -10 -53 0 -5 -4 -32 -9 -60 -13 -80 -2
-293 20 -394 4 -18 8 -42 9 -54 4 -29 24 -125 44 -212 9 -38 17 -77 17 -85 0
-8 8 -49 17 -90 10 -41 31 -142 48 -225 33 -159 48 -224 74 -319 9 -33 14 -61
12 -63 -3 -3 -111 58 -131 75 -5 4 -39 25 -75 47 -36 21 -81 48 -100 59 -19
12 -48 28 -65 36 -16 8 -32 17 -35 20 -7 7 -79 48 -115 66 -16 8 -43 23 -60
34 -16 11 -48 29 -70 41 -73 38 -126 67 -138 77 -18 15 -183 100 -241 124 -28
12 -54 26 -57 31 -7 10 -219 68 -219 60 0 -3 -6 0 -14 6 -17 14 -122 26 -129
14 -7 -11 18 -64 44 -91 10 -12 19 -25 19 -30 0 -9 77 -96 157 -179 29 -30 79
-75 159 -143 16 -14 47 -41 70 -60 22 -19 62 -53 89 -75 26 -22 63 -53 81 -70
18 -16 38 -35 46 -41 7 -5 65 -55 128 -110 127 -110 123 -107 230 -194 41 -33
81 -66 89 -72 41 -33 172 -128 178 -128 3 0 21 -11 39 -25 18 -14 35 -25 39
-25 11 0 85 -53 85 -61 0 -4 -10 -6 -22 -4 -71 11 -167 16 -316 16 -153 0
-203 -2 -389 -16 -34 -3 -97 -7 -139 -10 -43 -3 -100 -7 -128 -10 -28 -2 -91
-7 -141 -11 -261 -18 -325 -24 -380 -34 -27 -4 -57 -8 -65 -8 -26 1 -203 -40
-250 -57 -25 -9 -55 -19 -67 -22 -50 -12 -46 -29 14 -65 32 -19 78 -42 103
-52 25 -10 50 -21 55 -26 12 -9 60 -22 95 -26 14 -1 44 -7 65 -12 73 -19 311
-54 470 -68 28 -3 95 -11 150 -19 55 -8 123 -17 150 -20 28 -3 62 -7 77 -9 15
-2 66 -8 115 -12 48 -4 93 -8 98 -9 6 -1 40 -3 78 -3 37 -1 67 -6 67 -11 0 -6
-35 -38 -77 -72 -43 -35 -80 -66 -83 -69 -3 -3 -23 -20 -45 -39 -22 -19 -85
-75 -139 -125 -55 -50 -122 -111 -149 -136 -27 -25 -84 -78 -126 -118 -42 -40
-95 -88 -118 -105 -23 -18 -43 -36 -43 -40 0 -5 -31 -38 -70 -74 -38 -36 -70
-69 -70 -73 0 -5 -18 -27 -40 -50 -22 -23 -40 -46 -40 -51 0 -6 -11 -25 -24
-42 -29 -38 -90 -166 -83 -174 3 -3 16 -1 29 3 13 4 25 9 28 9 32 7 97 30 104
37 6 4 17 8 25 8 16 0 283 129 291 141 3 4 17 13 30 19 14 6 45 24 70 40 25
16 59 36 75 45 17 8 44 24 60 35 17 11 37 23 45 26 8 4 22 13 30 19 8 7 42 27
75 45 33 18 67 38 75 45 8 6 38 25 65 41 28 16 57 33 67 39 9 5 43 25 75 44
32 19 69 42 83 52 14 9 57 38 95 63 39 25 88 59 110 75 22 17 59 43 82 60 23
16 57 43 75 60 99 90 128 105 98 53 -40 -70 -127 -320 -175 -502 -3 -14 -11
-41 -16 -60 -5 -19 -13 -53 -19 -75 -45 -195 -72 -312 -89 -380 -42 -166 -112
-481 -113 -505 0 -14 -5 -52 -10 -85 -9 -56 -12 -130 -9 -235 l1 -45 85 89
c47 49 85 93 85 98 0 4 8 16 18 26 40 40 135 219 291 547 29 61 74 155 101
210 27 55 60 127 75 160 15 33 37 83 50 110 12 28 34 77 48 110 25 58 47 82
47 51 0 -8 9 -35 19 -58 11 -24 26 -59 34 -78 9 -19 34 -75 57 -125 23 -49 49
-108 58 -130 9 -22 19 -42 23 -45 4 -3 19 -34 34 -70 15 -36 45 -100 66 -142
22 -43 39 -84 39 -91 0 -8 8 -25 18 -38 10 -13 40 -71 67 -129 50 -105 122
-232 163 -286 12 -16 32 -42 45 -59 12 -16 47 -56 77 -87 l55 -58 5 42 c12
101 -16 328 -69 558 -22 96 -45 207 -52 245 -6 39 -16 78 -20 87 -5 10 -18 61
-29 115 -27 131 -59 264 -105 438 -34 127 -125 375 -147 399 -11 13 -10 26 1
26 5 0 48 -33 95 -73 120 -102 301 -232 386 -277 14 -7 27 -16 30 -19 3 -3 19
-13 35 -22 49 -26 190 -112 195 -119 3 -4 27 -17 53 -31 26 -13 57 -28 67 -34
11 -5 20 -13 20 -17 0 -5 5 -8 10 -8 10 0 69 -34 136 -78 10 -7 30 -18 44 -25
14 -7 45 -26 70 -42 25 -16 68 -41 95 -56 180 -94 231 -119 242 -119 6 0 26
-8 45 -17 62 -31 68 -33 91 -33 13 0 28 -5 34 -11 6 -6 16 -8 22 -5 11 7 -58
147 -90 182 -10 11 -19 25 -19 30 0 22 -198 227 -434 449 -70 66 -158 149
-194 184 -37 35 -103 96 -147 135 -44 38 -89 78 -100 89 -11 10 -41 35 -67 55
-27 20 -48 40 -48 44 0 4 17 8 38 9 20 0 57 2 82 4 148 13 191 17 240 25 30 5
80 12 110 15 66 7 117 14 150 20 14 3 45 7 70 10 25 2 61 7 80 10 19 3 71 10
115 15 103 11 153 19 190 27 17 4 40 7 51 8 12 1 41 7 65 13 37 9 65 15 129
26 15 3 86 34 168 74 101 49 102 50 22 80 -86 33 -316 77 -455 87 -27 2 -129
10 -225 19 -96 8 -211 18 -255 21 -44 3 -98 8 -120 10 -38 3 -155 13 -255 20
-25 2 -118 4 -206 4 -147 1 -190 -1 -306 -14 -21 -2 -38 -1 -38 4 0 9 54 46
103 70 15 8 27 18 27 23 0 4 6 8 14 8 12 0 144 94 186 133 8 7 33 26 55 42 22
16 45 34 50 39 6 6 37 33 70 60 33 28 67 57 76 65 23 22 138 124 173 152 16
13 40 36 55 50 14 15 64 59 111 99 47 40 96 83 110 96 14 12 50 44 80 70 82
71 260 257 260 271 0 7 5 13 10 13 6 0 10 7 10 15 0 8 4 15 10 15 13 0 50 79
39 85 -11 7 -98 -3 -124 -15 -11 -5 -55 -19 -99 -30 -74 -20 -142 -47 -176
-70 -8 -5 -44 -23 -80 -40 -36 -17 -96 -48 -135 -69 -38 -21 -86 -47 -105 -57
-19 -10 -37 -21 -40 -26 -3 -4 -24 -15 -45 -24 -22 -9 -42 -19 -45 -23 -7 -8
-35 -25 -95 -56 -27 -14 -63 -34 -80 -44 -33 -20 -90 -53 -145 -83 -19 -11
-47 -27 -61 -36 -15 -9 -48 -30 -75 -46 -27 -16 -68 -42 -91 -58 -23 -15 -44
-28 -46 -28 -2 0 4 30 15 68 10 37 23 85 28 107 45 205 71 333 72 350 0 11 7
45 14 75 7 30 15 75 18 98 3 24 12 69 21 99 9 30 14 57 12 60 -3 2 1 28 8 56
7 29 18 86 25 127 6 41 15 91 18 110 8 38 7 310 0 350 -3 14 -9 44 -13 68 -4
23 -9 42 -12 42 -8 0 -41 -36 -64 -70 -14 -19 -33 -45 -44 -58 -11 -12 -20
-26 -20 -30 -1 -4 -13 -26 -28 -49 -15 -24 -27 -48 -27 -54 0 -7 -11 -27 -25
-45 -14 -18 -25 -37 -25 -43 0 -6 -13 -37 -29 -68 -27 -55 -44 -94 -92 -215
-11 -29 -29 -71 -38 -93 -39 -89 -81 -190 -81 -197 0 -4 -13 -36 -29 -70 -15
-35 -32 -77 -35 -95 -4 -17 -13 -37 -21 -43 -8 -6 -17 -26 -21 -43 -3 -18 -10
-36 -14 -42 -4 -5 -20 -48 -35 -95 -16 -47 -31 -89 -35 -95 -3 -5 -12 -30 -19
-55 -7 -25 -17 -54 -21 -65 -12 -29 -36 -121 -51 -190 -7 -33 -16 -67 -20 -75
-8 -16 -9 -13 -29 85 -11 54 -37 148 -50 180 -4 11 -14 40 -21 65 -7 25 -19
56 -26 70 -7 14 -13 30 -13 36 0 16 -43 124 -89 225 -12 25 -21 50 -21 54 0 5
-16 41 -35 82 -19 41 -35 80 -35 88 0 7 -6 26 -14 42 -17 33 -21 43 -81 188
-75 180 -87 207 -116 266 -16 31 -29 64 -29 72 0 9 -6 20 -14 24 -8 4 -24 28
-35 53 -26 57 -68 132 -78 139 -5 3 -21 24 -37 46 -30 41 -62 75 -70 75 -2 0
-8 -19 -12 -42z"/>
</g>
</svg>
