<?xml version="1.0" standalone="no"?>
<!DOCTYPE svg PUBLIC "-//W3C//DTD SVG 20010904//EN"
 "http://www.w3.org/TR/2001/REC-SVG-20010904/DTD/svg10.dtd">
<svg version="1.0" xmlns="http://www.w3.org/2000/svg"
 width="558.000000pt" height="558.000000pt" viewBox="0 0 558.000000 558.000000"
 preserveAspectRatio="xMidYMid meet">
<metadata>
Created by potrace 1.13, written by Peter Selinger 2001-2015
</metadata>
<g transform="translate(0.000000,558.000000) scale(0.100000,-0.100000)"
fill="#000000" stroke="none">
<path d="M1107 4525 c5 -30 2 -36 -20 -46 -22 -10 -32 -8 -67 10 -22 11 -51
21 -64 21 -26 0 -50 -22 -38 -35 4 -4 -2 -3 -13 2 -11 6 -36 8 -55 6 -114 -13
-148 -7 -183 30 -20 21 -26 25 -18 10 9 -18 7 -32 -10 -75 -19 -47 -20 -59 -9
-100 8 -33 8 -52 1 -67 -15 -27 -15 -25 19 -63 42 -46 40 -61 -9 -53 -33 5
-41 3 -50 -12 -10 -20 -9 -23 42 -105 l27 -45 -21 -48 c-19 -43 -20 -55 -10
-97 7 -32 7 -56 1 -74 -9 -22 -6 -31 20 -61 38 -43 35 -59 -13 -55 -27 3 -38
-1 -46 -16 -9 -16 -3 -31 30 -79 l40 -60 -21 -52 c-29 -76 -27 -84 31 -115 63
-32 73 -32 96 0 l20 26 36 -32 c39 -33 39 -33 51 23 8 35 21 34 101 -5 l65
-32 54 18 c54 19 54 18 84 -3 40 -28 66 -27 86 5 l17 25 35 -31 c40 -35 54
-32 54 11 0 45 25 48 91 11 66 -37 84 -39 134 -15 36 17 38 17 75 -5 50 -28
64 -28 87 4 l20 26 36 -32 c39 -33 39 -33 51 23 8 35 21 34 101 -5 l65 -32 54
18 c54 19 54 18 84 -3 17 -11 41 -21 55 -21 29 0 38 -24 30 -74 -3 -18 2 -54
11 -80 20 -58 20 -115 2 -151 -16 -30 -8 -65 21 -97 21 -23 10 -36 -27 -30
-25 4 -30 1 -30 -16 0 -11 6 -34 14 -53 8 -18 11 -49 9 -70 -4 -23 1 -54 11
-79 19 -49 20 -128 2 -153 -16 -21 -11 -51 16 -89 25 -36 23 -41 -12 -34 -40
7 -48 -12 -27 -65 9 -23 13 -54 10 -74 -3 -19 1 -54 11 -81 20 -59 20 -113 2
-149 -16 -30 -8 -65 21 -97 21 -23 10 -36 -27 -30 -25 4 -30 1 -30 -16 0 -11
6 -34 14 -53 8 -18 11 -49 9 -70 -4 -23 1 -54 11 -79 19 -49 20 -128 2 -153
-16 -21 -11 -51 16 -89 25 -37 23 -41 -17 -34 -30 6 -35 4 -35 -12 0 -11 7
-35 15 -54 8 -21 12 -50 8 -71 -3 -21 1 -55 11 -83 20 -59 20 -113 2 -149 -16
-30 -8 -65 21 -97 21 -23 10 -36 -27 -30 -25 4 -30 1 -30 -16 0 -11 6 -35 14
-53 7 -19 11 -49 9 -67 -3 -18 3 -59 13 -92 15 -46 24 -59 39 -60 146 -5 155
-7 177 -27 40 -38 53 -33 53 17 0 39 3 45 22 48 13 2 43 -12 73 -32 58 -40 69
-42 110 -21 15 8 41 14 57 14 112 -1 153 -6 170 -20 10 -9 28 -22 41 -28 22
-12 23 -11 21 26 -5 74 20 81 99 27 l52 -37 62 21 c44 14 69 17 86 11 27 -10
121 -7 140 5 8 5 9 13 2 26 -16 30 -12 56 11 72 22 14 22 14 5 82 -10 38 -22
79 -28 91 -7 17 -6 30 7 54 15 30 15 36 0 81 -15 44 -15 51 -1 79 10 19 12 32
6 36 -17 10 -11 48 11 71 21 22 21 23 4 91 -9 37 -22 76 -27 87 -7 13 -5 27 8
51 16 31 16 34 -1 83 -17 46 -17 52 -3 75 11 15 13 29 7 38 -15 24 -10 56 12
71 22 14 22 14 5 82 -10 38 -22 79 -28 91 -7 17 -6 30 7 54 15 30 15 36 0 81
-15 44 -15 51 -1 79 10 19 12 32 6 36 -17 10 -11 48 11 71 21 22 21 23 4 91
-9 37 -22 76 -27 87 -7 13 -5 27 8 51 16 31 16 34 -1 83 -17 46 -17 52 -3 75
11 15 13 29 7 38 -15 24 -10 56 12 71 22 14 22 14 5 82 -10 38 -22 79 -28 91
-7 17 -6 30 7 54 15 30 15 36 0 81 -15 44 -15 51 -1 79 10 19 12 32 6 36 -17
11 -11 51 11 71 21 19 21 20 0 106 l-9 37 30 -6 c18 -3 44 1 70 13 40 18 41
18 79 -4 49 -28 63 -28 86 4 l20 26 36 -32 c39 -33 39 -33 51 23 8 35 21 34
101 -5 l65 -32 54 18 c54 19 54 18 84 -3 40 -28 66 -27 86 5 l17 25 35 -31
c40 -35 54 -32 54 11 0 45 25 48 91 11 66 -37 84 -39 134 -15 36 17 38 17 75
-5 50 -28 64 -28 87 4 l20 26 36 -32 c39 -33 39 -33 51 23 8 35 23 34 98 -4
63 -32 104 -34 142 -6 15 11 15 16 -4 72 -12 33 -24 68 -27 78 -7 23 13 47 37
42 15 -3 19 5 25 56 6 54 5 64 -19 99 -33 50 -33 73 0 99 l25 20 -36 92 c-20
50 -35 99 -33 108 2 9 15 17 30 19 24 3 27 8 33 63 6 54 5 63 -19 98 -34 49
-33 77 4 99 28 17 29 20 14 41 -9 12 -23 45 -32 73 -15 45 -21 53 -51 61 -19
5 -44 15 -55 23 -28 19 -73 18 -85 -3 -6 -10 -11 -13 -11 -8 0 6 -5 3 -10 -5
-5 -8 -10 -10 -10 -4 0 8 -15 10 -42 7 -52 -6 -62 -6 -112 -4 -31 1 -45 8 -75
41 -20 22 -40 40 -44 40 -4 0 -5 -15 -3 -34 4 -30 1 -36 -24 -46 -23 -10 -34
-8 -69 9 -50 26 -76 26 -98 2 -11 -14 -22 -17 -32 -12 -9 5 -25 6 -36 4 -28
-6 -133 -5 -153 2 -10 3 -28 21 -41 40 -31 46 -52 46 -44 0 5 -30 2 -36 -20
-46 -22 -10 -32 -8 -67 10 -49 26 -86 27 -99 4 -6 -10 -11 -13 -11 -8 0 6 -5
3 -10 -5 -5 -8 -10 -10 -10 -4 0 8 -15 10 -42 7 -52 -6 -62 -6 -112 -4 -31 1
-45 8 -75 41 -20 22 -40 40 -44 40 -4 0 -5 -15 -3 -34 4 -30 1 -36 -24 -46
-23 -10 -34 -8 -69 9 -50 26 -76 26 -98 2 -11 -14 -22 -17 -32 -12 -9 5 -25 6
-36 4 -28 -6 -133 -5 -153 2 -10 3 -28 21 -41 40 -31 46 -52 46 -44 0 5 -30 2
-36 -20 -46 -22 -10 -32 -8 -67 10 -49 26 -86 27 -99 4 -6 -10 -11 -13 -11 -8
0 6 -5 3 -10 -5 -5 -8 -10 -10 -10 -4 0 8 -15 10 -42 7 -52 -6 -62 -6 -112 -4
-31 1 -45 8 -75 41 -20 22 -40 40 -44 40 -4 0 -5 -15 -3 -34 4 -30 1 -36 -24
-46 -23 -10 -34 -8 -69 9 -50 26 -76 26 -98 2 -11 -14 -22 -17 -32 -12 -9 5
-25 6 -36 4 -28 -6 -133 -5 -153 2 -10 3 -28 21 -41 40 -31 46 -52 46 -44 0 5
-30 2 -36 -20 -46 -22 -10 -32 -8 -67 10 -49 26 -86 27 -99 4 -6 -10 -11 -13
-11 -8 0 6 -5 3 -10 -5 -5 -8 -10 -10 -10 -4 0 8 -15 10 -42 7 -52 -6 -62 -6
-112 -4 -31 1 -45 8 -75 41 -20 22 -40 40 -44 40 -4 0 -5 -15 -3 -34 4 -30 1
-36 -24 -46 -23 -10 -34 -8 -69 9 -50 26 -76 26 -98 2 -11 -14 -22 -17 -32
-12 -9 5 -25 6 -36 4 -28 -6 -133 -5 -153 2 -10 3 -28 21 -41 40 -31 46 -52
46 -44 0z"/>
</g>
</svg>
