<?xml version="1.0" standalone="no"?>
<!DOCTYPE svg PUBLIC "-//W3C//DTD SVG 20010904//EN"
 "http://www.w3.org/TR/2001/REC-SVG-20010904/DTD/svg10.dtd">
<svg version="1.0" xmlns="http://www.w3.org/2000/svg"
 width="512.000000pt" height="512.000000pt" viewBox="0 0 512.000000 512.000000"
 preserveAspectRatio="xMidYMid meet">
<metadata>
Created by potrace 1.13, written by Peter Selinger 2001-2015
</metadata>
<g transform="translate(0.000000,512.000000) scale(0.100000,-0.100000)"
fill="#000000" stroke="none">
<path d="M2605 4730 c-11 -5 -33 -11 -49 -15 -25 -5 -28 -9 -24 -38 3 -18 8
-40 13 -49 10 -25 -18 -23 -54 3 -51 38 -91 -1 -76 -71 7 -34 -5 -43 -39 -30
-31 11 -74 -2 -83 -26 -3 -9 -1 -30 4 -45 11 -28 1 -50 -12 -29 -10 15 -61 12
-75 -5 -13 -16 -15 -49 -6 -92 5 -22 2 -23 -46 -21 -39 2 -53 -2 -64 -17 -12
-16 -11 -24 12 -63 14 -24 23 -46 20 -50 -4 -3 -24 -1 -44 4 -55 15 -62 9 -62
-46 0 -27 -5 -52 -11 -56 -6 -3 -33 -7 -59 -8 -27 -1 -55 -7 -62 -12 -11 -9
-76 -11 -165 -5 -11 0 -46 22 -77 47 -72 58 -92 56 -88 -9 4 -55 -6 -59 -60
-22 -53 36 -167 43 -239 15 l-52 -21 -51 36 c-69 47 -88 47 -85 -2 3 -53 1
-63 -14 -63 -8 0 -13 -17 -14 -47 0 -27 -2 -55 -3 -63 -1 -8 2 -25 5 -36 5
-16 -2 -31 -26 -59 -35 -39 -43 -62 -30 -80 10 -12 32 -133 29 -160 -1 -11 5
-42 14 -70 47 -149 48 -151 38 -185 -10 -36 -9 -38 33 -91 15 -20 31 -51 33
-68 l5 -32 -25 16 c-14 9 -35 15 -48 13 -20 -3 -23 -10 -26 -52 -3 -44 -5 -48
-25 -42 -82 23 -107 15 -107 -34 0 -28 -15 -40 -51 -40 -50 0 -118 -56 -119
-97 0 -27 -17 -38 -52 -34 -20 2 -32 -5 -50 -29 -13 -17 -24 -36 -24 -41 -1
-5 -2 -13 -3 -18 0 -5 -16 -19 -35 -30 -43 -27 -49 -44 -32 -86 18 -42 7 -52
-27 -25 -33 26 -51 25 -66 -4 -23 -41 -5 -84 77 -191 10 -13 42 -81 42 -90 0
-15 37 -40 63 -43 7 -1 81 -67 119 -107 10 -11 21 -30 25 -43 3 -15 11 -21 20
-18 8 3 11 1 8 -4 -3 -6 0 -10 7 -10 7 0 38 -16 68 -35 30 -19 63 -35 75 -35
11 0 42 -16 69 -35 27 -19 55 -35 63 -35 22 0 17 -112 -7 -143 -24 -30 -25
-55 -5 -81 22 -30 18 -36 -17 -25 -18 5 -35 9 -37 9 -2 0 -1 -24 2 -53 3 -31
0 -64 -8 -82 -10 -26 -9 -35 7 -68 18 -36 17 -84 -2 -72 -17 10 -19 -28 -4
-61 16 -33 15 -34 -10 -65 -29 -34 -29 -49 0 -137 8 -23 14 -63 14 -88 0 -49
23 -94 49 -94 9 0 26 7 38 15 18 13 21 20 13 40 -15 39 9 30 25 -9 18 -44 48
-54 167 -61 37 -2 77 -9 87 -15 11 -5 28 -10 39 -10 15 0 18 6 14 30 -5 35 7
38 61 15 48 -20 58 -19 99 8 29 21 36 22 47 9 18 -18 76 -11 133 17 65 31 128
51 128 41 0 -5 13 -16 29 -24 34 -18 86 -71 87 -89 0 -6 -4 -18 -9 -25 -13
-16 20 -52 71 -78 52 -27 68 -42 49 -50 -8 -3 -18 -4 -23 -3 -40 7 -46 -26
-11 -58 12 -11 48 -36 81 -54 40 -22 77 -55 115 -101 30 -37 58 -68 61 -68 4
0 15 -8 26 -19 11 -10 36 -23 56 -30 20 -6 44 -21 53 -31 13 -14 31 -20 62
-20 51 0 88 17 123 57 43 49 51 61 56 89 7 40 8 40 64 43 19 1 44 14 71 38 37
33 40 40 36 75 -6 48 15 75 63 83 19 3 46 17 60 31 21 20 26 37 31 104 6 92
25 124 55 99 10 -8 15 -9 11 -2 -11 18 29 26 55 10 13 -8 45 -13 73 -12 28 1
58 -2 67 -6 18 -10 47 -12 88 -6 14 1 42 -7 62 -20 40 -25 78 -29 108 -13 14
8 29 7 52 -3 29 -12 68 -15 238 -21 30 -1 35 2 32 21 -4 29 29 38 67 19 50
-27 61 -22 62 29 1 25 3 50 4 55 1 6 3 14 4 18 0 5 13 8 29 7 49 -3 56 39 17
97 -33 48 -32 67 7 100 28 23 30 29 18 43 -21 25 -70 153 -70 181 0 17 8 27
25 34 14 5 25 12 25 15 0 4 -6 3 -12 -1 -7 -5 -3 5 10 21 28 35 22 56 -29 112
-39 43 -45 61 -29 98 6 15 1 27 -18 48 -16 16 -23 31 -17 35 6 4 29 33 52 64
41 55 43 56 72 45 26 -9 35 -7 84 23 40 24 60 44 73 72 11 25 29 44 48 53 17
8 42 21 56 29 14 8 37 17 52 20 20 5 29 15 37 41 5 19 19 48 30 64 12 16 21
36 21 44 0 8 21 25 46 37 39 19 113 98 114 121 0 4 -14 13 -32 20 -18 7 -49
30 -70 51 -32 32 -37 42 -28 58 11 20 50 28 50 11 0 -11 39 -25 47 -18 9 10
-16 44 -37 50 -11 3 -20 1 -20 -3 0 -14 -54 17 -82 47 -14 15 -38 47 -52 71
-16 25 -47 55 -72 70 -113 67 -174 112 -251 184 -45 43 -87 78 -92 78 -5 0
-21 -4 -34 -9 -30 -12 -39 2 -26 37 9 24 29 28 59 12 26 -14 21 14 -8 40 -28
26 -28 34 2 73 28 38 34 118 12 182 -17 48 -6 75 29 75 16 0 24 6 24 18 -1 9
2 33 6 52 6 30 1 44 -26 88 l-32 53 32 33 31 32 -19 23 c-11 12 -23 37 -27 54
-12 57 -32 83 -92 120 -41 25 -70 36 -93 35 -19 0 -44 4 -54 10 -14 7 -35 7
-65 0 -25 -5 -57 -12 -73 -15 -21 -4 -40 4 -82 32 -69 48 -90 43 -81 -19 9
-55 -4 -64 -50 -36 -30 19 -44 21 -92 16 -71 -9 -94 -15 -88 -25 3 -4 0 -8 -7
-9 -7 0 -30 -7 -52 -16 -22 -8 -47 -15 -56 -16 -10 0 -35 38 -70 107 -56 110
-79 131 -103 97 -12 -15 -15 -14 -41 19 -15 20 -28 51 -29 69 -2 18 -9 44 -16
58 -8 14 -13 29 -12 34 6 20 -11 45 -37 56 -16 6 -32 21 -35 33 -3 12 -22 40
-41 62 -20 22 -43 52 -51 68 -8 15 -24 32 -36 36 -11 4 -26 23 -32 42 -12 36
-41 47 -81 29z m1462 -3085 c0 -8 -4 -12 -9 -9 -5 3 -6 10 -3 15 9 13 12 11
12 -6z"/>
</g>
</svg>
