<?xml version="1.0" standalone="no"?>
<!DOCTYPE svg PUBLIC "-//W3C//DTD SVG 20010904//EN"
 "http://www.w3.org/TR/2001/REC-SVG-20010904/DTD/svg10.dtd">
<svg version="1.0" xmlns="http://www.w3.org/2000/svg"
 width="558.000000pt" height="558.000000pt" viewBox="0 0 558.000000 558.000000"
 preserveAspectRatio="xMidYMid meet">
<metadata>
Created by potrace 1.13, written by Peter Selinger 2001-2015
</metadata>
<g transform="translate(0.000000,558.000000) scale(0.100000,-0.100000)"
fill="#000000" stroke="none">
<path d="M2796 4737 c112 -211 123 -412 34 -592 -17 -33 -37 -69 -45 -79 -15
-19 -16 -19 -51 15 -121 116 -179 292 -153 464 8 52 41 168 65 229 8 20 -2 20
-161 -1 -162 -21 -374 -88 -551 -174 -399 -194 -725 -520 -915 -914 -118 -247
-176 -449 -203 -710 -7 -68 -10 -235 -4 -240 3 -3 37 12 76 32 64 32 83 37
160 41 71 3 99 0 152 -18 64 -21 150 -68 150 -82 0 -17 -92 -84 -160 -117 -68
-33 -83 -36 -160 -36 -75 0 -93 4 -154 33 -38 18 -70 31 -71 30 -5 -5 43 -252
65 -337 73 -289 255 -635 436 -831 83 -90 189 -192 264 -253 204 -167 520
-318 785 -376 112 -24 144 -28 274 -37 l104 -7 -26 34 c-42 55 -76 141 -83
206 -9 83 21 181 79 259 68 92 68 92 117 42 110 -111 125 -275 40 -456 -16
-35 -30 -66 -30 -68 0 -2 48 -4 108 -4 353 0 807 185 1112 452 341 299 550
641 653 1069 31 127 59 345 53 419 -2 30 -4 79 -5 109 l-1 54 -44 -41 c-128
-118 -278 -122 -443 -10 l-62 42 27 29 c74 77 200 124 304 113 59 -7 142 -32
195 -59 l29 -16 -17 117 c-43 299 -151 589 -309 832 -155 237 -387 461 -633
611 -286 175 -558 257 -939 285 l-97 7 35 -66z"/>
</g>
</svg>
