<?xml version="1.0" standalone="no"?>
<!DOCTYPE svg PUBLIC "-//W3C//DTD SVG 20010904//EN"
 "http://www.w3.org/TR/2001/REC-SVG-20010904/DTD/svg10.dtd">
<svg version="1.0" xmlns="http://www.w3.org/2000/svg"
 width="512.000000pt" height="512.000000pt" viewBox="0 0 512.000000 512.000000"
 preserveAspectRatio="xMidYMid meet">
<metadata>
Created by potrace 1.13, written by Peter Selinger 2001-2015
</metadata>
<g transform="translate(0.000000,512.000000) scale(0.100000,-0.100000)"
fill="#000000" stroke="none">
<path d="M3519 4411 c-1 -6 -2 -17 -3 -23 -1 -7 -15 -40 -31 -73 -22 -42 -37
-61 -53 -63 -29 -4 -39 22 -24 61 6 17 10 32 8 34 -5 5 -59 -47 -66 -62 -3 -5
-9 -8 -15 -6 -35 13 -45 11 -60 -13 -26 -39 -38 -32 -31 17 5 35 4 38 -4 17
-15 -33 -26 -39 -71 -33 -46 7 -52 -11 -18 -56 21 -28 23 -70 4 -61 -6 2 -15
18 -21 36 -10 31 -54 95 -54 79 0 -4 9 -18 20 -32 11 -14 20 -35 20 -45 0 -17
-4 -19 -27 -13 -16 5 -39 9 -53 9 -23 1 -26 -4 -31 -49 -3 -27 -7 -39 -8 -25
-1 14 -9 41 -16 60 -12 32 -14 33 -14 10 -1 -30 -18 -50 -42 -50 -10 0 -27
-12 -38 -26 -25 -32 -45 -22 -37 17 l5 28 -24 -21 c-28 -24 -32 -46 -11 -54
32 -12 25 -34 -16 -54 -55 -26 -58 -26 -58 12 0 43 -14 24 -28 -37 -6 -27 -15
-63 -22 -79 -10 -27 -12 -28 -29 -12 -13 12 -17 28 -15 54 l3 37 -25 -29 c-19
-22 -24 -36 -21 -67 3 -27 0 -39 -9 -39 -7 0 -21 -11 -32 -25 -16 -21 -21 -22
-26 -9 -3 8 -1 24 4 35 6 10 7 19 2 19 -16 0 -29 -44 -24 -80 4 -31 3 -33 -11
-22 -9 7 -19 28 -23 45 -7 33 -31 77 -49 89 -14 11 -27 10 -21 -1 13 -20 -34
3 -59 29 -19 19 -26 36 -22 49 3 12 1 19 -4 15 -5 -3 -9 -16 -9 -30 0 -30 -11
-31 -30 -1 -18 26 -20 47 -7 65 7 8 5 21 -3 38 l-14 25 -17 -43 c-24 -61 -40
-59 -74 12 -19 39 -31 56 -36 48 -6 -9 -16 -5 -38 16 -20 19 -37 27 -50 23
-13 -3 -26 3 -38 19 -25 33 -34 30 -26 -8 6 -30 5 -32 -10 -20 -9 8 -19 22
-22 32 -3 10 -28 34 -54 54 l-49 34 11 -28 c15 -39 0 -51 -24 -20 -10 14 -23
30 -29 37 -5 7 -10 16 -10 20 0 4 -11 20 -24 36 l-23 27 -7 -31 c-3 -17 -3
-35 0 -40 3 -5 -4 -9 -14 -9 -11 0 -22 7 -26 15 -8 23 -28 18 -21 -5 9 -28 -4
-25 -45 9 -19 15 -46 32 -60 36 -14 4 -29 13 -33 19 -4 6 -7 -4 -6 -24 2 -53
1 -53 -31 -30 -29 20 -30 20 -37 3 -4 -10 -11 -21 -16 -24 -8 -6 -7 -19 5 -66
1 -5 16 -22 34 -39 17 -18 34 -39 37 -47 5 -14 2 -15 -19 -6 -14 5 -29 7 -33
4 -9 -5 -51 32 -51 45 0 6 -7 10 -15 10 -26 0 -17 -43 20 -94 37 -52 42 -75
23 -94 -17 -17 -69 -15 -96 4 -42 29 -35 6 13 -45 43 -46 45 -49 21 -47 -20 3
-26 -1 -26 -15 0 -11 5 -19 11 -19 14 0 6 -25 -9 -26 -7 -1 -15 -2 -18 -3 -3
0 6 -15 20 -32 61 -72 38 -142 -34 -106 -16 9 -30 13 -30 10 0 -9 63 -87 99
-123 35 -33 35 -34 13 -38 -13 -2 -34 4 -48 13 -25 16 -25 16 -15 -3 6 -11 16
-22 22 -24 7 -2 7 -12 -2 -32 -11 -22 -10 -31 0 -49 10 -15 11 -22 2 -25 -14
-5 -14 -22 0 -22 17 0 89 -60 89 -75 0 -23 -60 -41 -72 -22 -6 9 -8 9 -8 0 0
-6 19 -30 43 -52 42 -41 40 -49 -8 -31 -25 10 -26 9 -11 -12 25 -35 20 -67
-11 -74 -25 -7 -33 -4 -93 35 -23 15 -24 15 -16 -4 20 -48 18 -50 -31 -62 -39
-9 -54 -8 -77 3 l-30 14 22 -23 c26 -27 28 -47 7 -47 -8 0 -15 4 -15 9 0 14
-66 81 -79 81 -9 0 -10 -13 -6 -44 6 -39 5 -45 -14 -51 -11 -3 -26 -3 -33 0
-7 4 -2 -2 12 -14 27 -22 20 -41 -18 -44 -11 0 -19 -4 -16 -9 2 -4 -4 -12 -15
-17 -14 -8 -29 -7 -58 5 l-38 16 30 -32 30 -32 -38 18 c-45 21 -69 12 -77 -30
l-5 -27 -23 21 c-33 31 -41 15 -15 -29 l22 -38 -25 0 c-14 0 -36 -6 -49 -13
-20 -11 -28 -10 -51 5 -25 16 -27 16 -21 0 4 -9 7 -21 7 -25 0 -5 13 -25 30
-43 l30 -34 -89 5 c-62 3 -90 1 -96 -7 -12 -21 5 -61 30 -71 13 -5 29 -18 34
-29 10 -18 7 -21 -26 -30 -33 -9 -42 -7 -87 20 l-51 31 26 -28 c14 -16 33 -41
42 -57 20 -31 37 -34 71 -11 l24 15 -8 -36 c-11 -47 -14 -49 -58 -47 l-37 1
40 -15 c22 -9 64 -26 93 -37 42 -17 52 -25 52 -44 0 -13 -4 -24 -10 -24 -5 -1
-19 -3 -30 -4 -11 -1 -23 -3 -27 -4 -5 -1 16 -13 44 -28 63 -32 75 -25 82 50
2 19 22 3 39 -31 24 -48 18 -70 -20 -80 -24 -6 -13 -8 46 -9 53 -1 85 -7 103
-18 l25 -17 -26 -13 c-15 -8 -33 -21 -42 -30 -8 -8 -20 -15 -25 -15 -5 0 -9
-4 -9 -10 0 -14 17 -12 57 6 l34 17 40 -44 c41 -45 50 -65 24 -55 -8 3 -15 3
-15 0 0 -12 46 -21 64 -12 15 8 17 17 11 54 -8 57 10 59 67 6 45 -42 44 -62
-1 -62 -16 0 -33 -6 -39 -12 -8 -10 8 -13 74 -15 90 -2 106 -6 98 -27 -7 -18
25 -29 42 -15 20 16 45 4 37 -18 -5 -14 -4 -16 8 -7 17 12 23 12 74 -5 56 -19
72 -33 48 -42 -10 -3 -28 -3 -40 2 -13 5 -25 4 -28 -1 -4 -6 0 -10 8 -10 23 0
67 -40 67 -61 0 -10 -4 -19 -10 -19 -5 0 -12 0 -15 0 -14 0 -65 -56 -65 -71 0
-10 -5 -21 -10 -24 -5 -3 -10 -11 -10 -17 0 -6 10 -2 23 10 13 12 26 22 30 22
14 0 6 -38 -12 -62 -21 -26 -32 -110 -16 -118 6 -3 12 15 15 40 l5 45 13 -41
c6 -23 12 -51 12 -63 0 -21 -4 -22 -52 -19 l-53 3 1 -32 c1 -17 10 -42 19 -55
14 -19 16 -20 10 -3 -16 42 -18 68 -6 64 7 -3 12 -9 12 -14 0 -6 12 -25 26
-43 22 -30 24 -36 13 -63 -7 -16 -16 -29 -20 -29 -4 0 -12 -11 -18 -25 -14
-30 -3 -32 28 -5 31 27 60 26 60 -1 0 -22 -22 -49 -39 -49 -15 0 -41 -55 -41
-87 l0 -28 16 33 c18 34 21 36 43 23 10 -6 12 -20 7 -47 -13 -73 -12 -99 3
-96 7 1 19 -3 27 -9 16 -13 19 -80 4 -95 -5 -5 -11 -25 -12 -44 -3 -34 -2 -35
32 -32 l35 3 2 -56 c1 -31 3 -58 5 -60 12 -13 49 11 54 34 7 36 27 74 40 78 7
2 19 -3 27 -12 13 -12 14 -22 6 -42 -5 -14 -7 -28 -5 -31 3 -3 8 2 11 10 4 9
14 14 25 11 32 -9 59 14 62 54 3 39 28 60 28 23 0 -21 26 -80 36 -80 3 0 3 8
0 18 -4 13 3 23 28 36 19 10 40 31 46 47 14 32 18 34 55 17 25 -11 29 -18 26
-50 -2 -13 3 -16 16 -11 34 12 41 24 48 83 8 67 26 79 43 28 l10 -33 1 33 c1
29 8 36 37 31 3 -1 19 11 34 26 31 30 50 26 50 -8 0 -19 4 -17 36 17 28 30 35
46 32 68 -6 36 19 38 32 3 12 -33 25 -32 28 2 1 15 7 30 13 33 10 7 17 29 18
63 1 24 26 21 44 -6 13 -17 16 -19 16 -5 1 9 13 25 28 36 22 16 27 27 25 53
l-2 34 21 -25 21 -25 -3 25 c-3 19 1 26 16 28 22 3 45 -14 88 -66 45 -56 38
-64 -47 -49 -5 1 -11 -4 -14 -12 -3 -9 0 -11 7 -7 7 4 18 2 26 -4 19 -16 65
-4 65 16 0 8 -5 24 -10 35 -15 27 5 25 24 -3 19 -27 21 -64 4 -75 -7 -4 -25
-6 -40 -4 -16 1 -28 -2 -28 -8 0 -6 4 -11 9 -11 4 0 25 -11 45 -25 l36 -24 0
24 c0 32 17 41 38 21 9 -9 36 -30 60 -46 40 -29 55 -62 32 -73 -6 -3 -5 -4 2
-3 8 2 13 17 12 40 -1 20 2 36 5 36 4 0 20 -13 36 -30 25 -27 27 -32 16 -56
-10 -22 -9 -31 4 -50 18 -28 30 -32 21 -7 -8 20 50 77 70 69 15 -6 18 -13 28
-59 4 -15 11 -25 16 -22 6 4 13 0 16 -9 3 -8 11 -17 18 -19 10 -4 9 6 -3 38
-26 73 10 70 49 -4 22 -41 79 -105 87 -98 2 3 0 14 -5 24 -17 30 -3 73 23 73
12 0 28 -7 35 -15 7 -8 19 -14 28 -13 21 4 26 -17 8 -35 -14 -13 -13 -18 9
-41 13 -14 28 -26 34 -26 5 0 11 -6 13 -12 3 -7 8 12 11 42 4 31 2 59 -3 64
-13 13 -13 26 0 26 14 0 80 -60 80 -74 0 -6 16 -29 35 -51 24 -27 35 -34 35
-23 0 9 -4 20 -10 23 -16 10 -12 51 6 66 9 7 34 14 55 14 22 0 39 1 39 3 0 2
-7 17 -16 33 -16 31 -15 82 3 113 8 15 12 14 37 -9 16 -14 30 -24 33 -21 11
11 -13 53 -63 107 -62 68 -71 93 -16 50 34 -28 92 -56 92 -46 0 3 -16 11 -36
20 -20 8 -33 19 -29 25 5 8 11 8 19 1 16 -14 56 14 56 39 0 10 -16 37 -35 60
-38 46 -39 62 -3 38 22 -14 23 -14 23 8 0 13 -4 24 -8 24 -5 0 -6 4 -3 9 3 4
-1 17 -9 27 -23 30 -18 57 14 75 20 12 33 14 46 6 14 -7 16 -7 10 4 -15 25
-50 73 -62 87 -17 18 -17 18 16 35 22 11 32 12 42 3 7 -6 4 1 -7 15 -10 15
-22 25 -26 23 -4 -2 -6 10 -5 28 0 18 -3 42 -8 52 -7 16 -5 18 11 12 15 -6 13
-1 -7 21 -44 46 -84 133 -62 133 3 0 15 -7 25 -17 37 -34 16 -1 -29 46 -33 33
-47 56 -45 70 6 39 36 26 71 -31 25 -42 36 -47 44 -20 2 9 8 25 12 35 5 12 2
17 -9 17 -9 0 -16 7 -16 15 0 20 48 19 74 0 11 -8 27 -15 35 -15 11 0 11 3 -4
14 -11 8 -16 19 -12 30 9 24 78 22 94 -3 6 -10 21 -21 33 -24 20 -5 22 -2 18
25 -4 23 0 32 16 38 17 7 18 9 4 9 -29 1 -32 2 -46 13 -8 7 -9 15 -3 21 11 11
74 -8 91 -29 7 -7 22 -14 33 -14 19 0 19 1 5 13 -23 17 -20 106 4 120 13 9 28
3 71 -26 29 -20 62 -37 73 -36 17 0 16 2 -4 11 -15 8 -21 16 -16 27 9 20 8 39
-1 69 -8 23 -7 23 54 16 43 -5 61 -3 61 5 0 6 -7 11 -16 11 -12 0 -15 6 -10
23 3 12 6 37 6 55 0 38 18 42 46 11 33 -36 52 -42 100 -29 50 14 56 25 19 34
-14 4 -28 13 -31 21 -6 14 17 45 32 45 4 0 17 11 30 25 13 14 33 25 45 25 l21
0 -21 18 c-23 18 -36 65 -26 91 5 12 10 9 25 -14 23 -35 32 -37 80 -18 19 8
36 14 38 14 24 -6 19 4 -13 22 -40 23 -57 58 -56 117 0 19 -6 26 -20 27 -11 1
-19 -5 -19 -13 0 -8 4 -13 9 -10 5 3 11 -4 14 -16 12 -46 -40 -39 -62 8 -7 17
-7 24 2 27 7 2 -4 9 -23 14 -40 10 -51 41 -25 63 13 11 23 11 46 3 29 -11 29
-10 -12 32 -24 24 -46 42 -50 40 -3 -3 -9 -18 -12 -34 -7 -36 -24 -43 -65 -25
-34 14 -45 35 -14 27 24 -6 43 18 38 48 -3 13 -5 29 -5 36 -1 9 -8 10 -23 4
-15 -6 -33 -4 -51 6 -37 19 -53 12 -60 -26 -8 -39 -21 -39 -37 -1 -16 38 -9
54 30 71 l31 14 -48 8 c-26 5 -68 9 -91 9 -37 0 -43 3 -39 18 3 13 0 16 -15
12 -21 -5 -118 36 -118 51 0 5 15 5 33 2 l32 -7 -28 22 c-24 19 -32 21 -53 12
-23 -11 -84 -6 -84 6 0 3 18 23 41 44 23 21 34 38 26 38 -8 0 -20 -6 -26 -14
-6 -7 -33 -16 -60 -20 -32 -4 -55 -14 -71 -31 -31 -33 -44 -32 -27 3 24 47 29
79 12 86 -10 4 -17 -3 -21 -22 -12 -55 -16 -62 -34 -62 -10 0 -36 10 -57 22
-48 27 -47 27 -41 33 3 3 21 -2 41 -10 20 -8 39 -15 42 -15 3 0 4 25 3 55 -3
48 -6 55 -20 51 -29 -7 -31 13 -4 45 14 16 29 30 33 30 4 1 7 5 6 10 -2 5 4 9
12 9 8 0 15 5 15 10 0 6 -10 8 -24 4 -15 -3 -29 1 -40 11 -18 18 -16 25 6 29
19 2 55 40 63 65 3 12 11 21 16 21 5 0 9 5 9 12 0 9 -3 9 -12 0 -17 -17 -48
-15 -49 3 -1 8 -2 25 -2 38 -1 12 -7 28 -14 35 -20 20 -16 32 11 32 13 0 34 9
47 20 l24 19 -22 1 c-17 0 -22 6 -23 28 -2 56 -4 70 -12 66 -4 -3 -8 -1 -8 4
0 12 25 22 55 22 13 0 26 3 28 8 3 4 -14 6 -38 6 -54 -2 -80 14 -71 44 5 13
16 22 28 22 12 0 19 3 15 6 -3 4 0 13 8 21 8 8 15 26 15 39 l0 25 -21 -20
c-20 -18 -23 -19 -45 -4 l-24 15 20 33 c11 18 20 38 20 44 0 21 -64 100 -81
101 -23 0 -31 26 -14 44 11 10 24 12 52 6 46 -11 57 2 37 41 -17 35 -39 50
-32 23 13 -45 13 -49 -2 -45 -8 2 -29 4 -47 3 -33 0 -32 -1 -46 93 -1 11 3 31
10 45 7 14 13 33 13 42 0 19 -19 35 -21 19z m-1459 -342 c0 -5 -4 -9 -10 -9
-5 0 -10 7 -10 16 0 8 5 12 10 9 6 -3 10 -10 10 -16z m1547 -395 c-3 -3 -12
-4 -19 -1 -8 3 -5 6 6 6 11 1 17 -2 13 -5z m34 -2004 c20 -11 27 -50 9 -50
-16 0 -51 40 -45 50 8 13 12 12 36 0z"/>
<path d="M4050 3118 c0 -13 5 -30 10 -38 8 -12 10 -9 10 14 0 21 4 27 15 22
44 -18 48 -17 23 2 -34 29 -58 28 -58 0z"/>
<path d="M980 3006 c0 -8 4 -17 8 -20 13 -8 35 11 28 23 -10 16 -36 14 -36 -3z"/>
<path d="M4045 2149 c-11 -16 -1 -19 13 -3 7 8 8 14 3 14 -5 0 -13 -5 -16 -11z"/>
<path d="M3720 1385 c-1 -5 -3 -18 -5 -28 -5 -25 34 -64 45 -46 9 14 -5 49
-20 49 -5 0 -11 8 -13 18 -3 9 -6 13 -7 7z"/>
<path d="M1451 1023 c-1 -8 -15 -14 -33 -14 l-33 -1 30 -7 c33 -8 50 0 42 21
-4 9 -6 10 -6 1z"/>
</g>
</svg>
