<?xml version="1.0" standalone="no"?>
<!DOCTYPE svg PUBLIC "-//W3C//DTD SVG 20010904//EN"
 "http://www.w3.org/TR/2001/REC-SVG-20010904/DTD/svg10.dtd">
<svg version="1.0" xmlns="http://www.w3.org/2000/svg"
 width="558.000000pt" height="558.000000pt" viewBox="0 0 558.000000 558.000000"
 preserveAspectRatio="xMidYMid meet">
<metadata>
Created by potrace 1.13, written by Peter Selinger 2001-2015
</metadata>
<g transform="translate(0.000000,558.000000) scale(0.100000,-0.100000)"
fill="#000000" stroke="none">
<path d="M2305 4652 c6 -16 17 -66 31 -138 4 -19 2 -34 -5 -38 -20 -13 -12
-50 17 -81 44 -47 65 -82 53 -90 -15 -9 -14 -35 3 -67 8 -15 17 -62 21 -105 3
-43 11 -98 17 -121 13 -52 4 -62 -48 -55 -46 6 -52 -14 -21 -69 14 -24 22 -50
19 -58 -9 -26 -39 -60 -47 -52 -3 4 -6 3 -5 -3 5 -22 -1 -32 -26 -44 -29 -13
-30 -8 6 -139 21 -76 21 -84 6 -101 -20 -22 -20 -40 0 -69 39 -56 44 -74 28
-104 -8 -16 -13 -36 -12 -46 2 -13 -3 -16 -24 -14 -29 3 -38 -6 -54 -58 -9
-33 -12 -35 -48 -32 -43 4 -67 -13 -86 -57 -6 -15 -16 -28 -23 -29 -7 -1 -27
-5 -45 -8 -25 -5 -41 -1 -60 13 -15 11 -35 22 -44 26 -23 8 -48 -18 -48 -49 0
-31 -20 -31 -51 2 -13 14 -40 34 -60 45 -42 21 -135 120 -154 164 -12 27 -14
28 -20 10 -19 -59 -47 -62 -131 -14 l-51 29 -19 -21 c-32 -35 -47 -38 -89 -19
-35 16 -41 17 -71 3 -30 -15 -33 -15 -66 11 -44 33 -57 33 -69 -3 -6 -16 -17
-32 -24 -35 -18 -7 -72 11 -107 36 -58 40 -83 12 -45 -54 14 -24 28 -58 32
-76 6 -30 4 -33 -29 -47 -20 -9 -36 -19 -36 -23 0 -4 11 -24 25 -44 27 -39 31
-63 15 -73 -15 -9 -12 -53 6 -80 13 -19 13 -28 3 -47 -7 -13 -20 -29 -30 -35
-16 -12 -15 -18 18 -82 40 -78 39 -108 -5 -113 -22 -2 -27 -7 -24 -28 1 -13
11 -34 22 -45 23 -25 24 -41 6 -75 -13 -22 -11 -30 10 -71 21 -43 65 -89 85
-89 4 0 21 11 37 25 36 30 60 31 106 4 31 -18 40 -19 69 -8 27 10 38 9 65 -5
17 -9 38 -16 46 -16 15 0 32 37 22 47 -3 3 -1 14 5 24 12 22 25 17 96 -37 52
-39 56 -40 80 -15 31 32 75 49 107 40 37 -10 42 -7 50 36 8 40 25 50 103 60
32 4 62 1 91 -9 25 -9 42 -11 42 -5 0 6 5 7 11 3 6 -3 3 8 -5 25 -15 28 -15
31 -1 31 9 0 29 -7 45 -15 16 -9 42 -14 57 -13 46 3 67 -10 96 -57 16 -25 33
-46 38 -46 40 -6 44 -3 41 24 -2 15 0 27 5 27 14 0 38 -19 39 -30 1 -5 2 -16
3 -24 0 -7 11 -26 23 -42 31 -39 31 -54 -3 -66 -18 -6 -29 -17 -29 -29 0 -36
52 -135 93 -176 42 -43 42 -57 2 -65 -30 -5 -30 -35 -1 -77 31 -44 31 -53 3
-111 -20 -40 -26 -45 -60 -48 -20 -2 -38 -6 -38 -10 -1 -4 -2 -41 -3 -82 -2
-61 -6 -81 -25 -107 -18 -23 -22 -41 -19 -71 2 -22 0 -40 -5 -39 -5 1 -14 -6
-20 -16 -10 -14 -7 -27 16 -70 15 -29 27 -68 27 -88 0 -29 11 -50 53 -103 30
-37 69 -76 88 -88 39 -23 49 -36 49 -61 0 -15 -8 -18 -55 -16 -30 1 -57 0 -60
-3 -3 -3 3 -27 14 -54 15 -38 21 -45 26 -31 4 9 4 24 1 33 -5 14 -1 16 23 11
17 -4 44 -2 60 4 23 8 41 7 73 -4 24 -8 66 -20 95 -27 46 -10 56 -9 82 6 29
17 30 17 79 -15 57 -37 82 -33 82 11 0 27 2 30 26 24 14 -4 42 -2 61 5 28 9
42 8 71 -4 21 -8 63 -20 95 -27 51 -10 61 -10 76 4 22 20 35 20 66 0 14 -9 25
-14 25 -11 0 12 -71 48 -97 50 -34 3 -37 20 -26 122 l8 70 45 0 45 0 -3 45
c-3 52 12 78 47 83 47 7 65 79 33 132 -31 51 -32 62 -10 91 19 23 20 29 8 48
-8 11 -25 44 -38 71 -13 28 -36 63 -50 78 -19 20 -27 40 -28 70 -1 29 -12 59
-33 92 -35 55 -37 71 -16 111 12 22 14 45 9 91 -5 53 -3 66 14 91 16 21 18 32
10 40 -9 9 -5 17 15 32 21 16 26 29 24 53 -2 28 1 32 23 31 14 -1 39 -7 57
-15 37 -15 46 -10 49 31 4 60 16 59 101 -6 25 -19 48 -34 52 -34 5 0 20 11 35
25 33 31 56 31 106 3 33 -19 43 -21 60 -10 27 16 46 15 80 -4 39 -24 60 -13
60 31 0 48 27 47 92 -5 28 -22 54 -40 57 -40 4 0 22 11 40 24 27 20 37 23 56
14 13 -6 26 -17 30 -26 4 -12 -2 -13 -41 -7 -41 6 -45 5 -42 -12 3 -21 167
-105 242 -125 41 -11 51 -10 74 4 40 25 60 35 130 59 50 18 64 27 69 48 3 14
13 37 22 51 9 13 16 42 17 65 0 22 6 61 14 87 l14 46 -43 56 c-54 70 -51 91
13 82 54 -8 63 7 33 55 -30 49 -40 166 -20 242 15 56 15 59 -6 88 -11 16 -31
42 -42 58 -32 44 -20 64 35 56 24 -4 46 -3 49 2 4 6 -5 31 -18 56 -14 25 -25
55 -25 65 0 11 -7 25 -15 32 -17 14 -50 10 -51 -8 -1 -6 -2 -17 -3 -23 0 -7
-17 6 -36 28 -36 41 -139 103 -171 103 -9 0 -25 -7 -35 -16 -13 -12 -22 -13
-38 -5 -35 19 -49 12 -63 -31 -13 -43 -13 -43 -59 -41 -51 3 -75 -14 -83 -58
-2 -13 -5 -25 -5 -26 -3 -6 -72 24 -104 45 l-38 25 -15 -22 c-25 -35 -54 -41
-97 -19 -36 18 -39 18 -67 2 -28 -17 -30 -17 -69 10 -43 30 -71 29 -71 -2 0
-48 -48 -47 -133 2 l-44 26 -19 -21 c-32 -35 -47 -39 -89 -19 -21 10 -44 16
-50 13 -11 -4 -45 68 -45 96 0 8 12 12 33 11 17 -1 35 -2 40 -1 4 1 -5 19 -19
41 -20 30 -25 46 -19 67 16 63 17 141 1 172 -10 18 -16 51 -15 79 2 43 -3 57
-39 107 -40 56 -53 97 -33 109 9 6 8 25 -6 136 -6 47 -16 76 -36 101 -44 58
-36 85 23 80 8 0 22 3 30 9 12 8 11 17 -13 65 -34 70 -34 79 3 112 17 14 30
35 30 45 0 23 18 59 36 73 8 6 17 25 20 42 6 29 3 34 -20 43 -43 16 -51 12
-51 -22 0 -45 -24 -47 -85 -8 -45 29 -53 31 -83 21 -26 -9 -41 -9 -63 0 -16 7
-82 13 -146 14 l-118 2 0 -33 c0 -45 -26 -45 -86 -2 -42 30 -46 31 -82 19 -30
-10 -44 -11 -60 -2 -12 6 -54 13 -93 16 -63 3 -70 2 -64 -13z"/>
</g>
</svg>
