<?xml version="1.0" standalone="no"?>
<!DOCTYPE svg PUBLIC "-//W3C//DTD SVG 20010904//EN"
 "http://www.w3.org/TR/2001/REC-SVG-20010904/DTD/svg10.dtd">
<svg version="1.0" xmlns="http://www.w3.org/2000/svg"
 width="558.000000pt" height="558.000000pt" viewBox="0 0 558.000000 558.000000"
 preserveAspectRatio="xMidYMid meet">
<metadata>
Created by potrace 1.13, written by Peter Selinger 2001-2015
</metadata>
<g transform="translate(0.000000,558.000000) scale(0.100000,-0.100000)"
fill="#000000" stroke="none">
<path d="M2880 4615 c-30 -25 -58 -45 -62 -45 -25 0 5 -30 110 -107 307 -229
514 -427 842 -808 174 -203 329 -366 440 -465 l35 -31 -85 -79 c-47 -44 -88
-80 -91 -80 -21 0 -190 203 -379 455 -245 327 -323 421 -489 585 -155 154
-271 251 -467 393 l-50 36 -79 -50 c-103 -66 -196 -118 -380 -214 -608 -316
-802 -431 -1093 -647 -178 -133 -254 -199 -247 -217 19 -45 75 -224 75 -237 0
-8 3 -14 6 -14 7 0 81 59 106 84 34 33 225 181 329 254 246 172 500 307 919
488 124 53 264 116 312 140 48 24 93 44 100 44 13 0 141 -169 146 -193 4 -17
-131 -71 -428 -172 -306 -104 -414 -147 -596 -240 -225 -114 -516 -311 -693
-469 -145 -130 -143 -127 -137 -165 3 -20 10 -51 15 -69 5 -18 10 -35 10 -37
0 -3 2 -18 5 -33 3 -15 8 -38 10 -52 19 -109 130 -647 151 -735 63 -264 156
-565 282 -908 l28 -78 83 3 c45 1 86 5 91 8 5 3 -11 57 -36 120 -189 478 -280
833 -382 1485 -17 105 -33 208 -36 230 -4 22 -10 58 -15 79 -5 22 -6 44 -4 48
11 17 200 138 216 138 2 0 4 -8 4 -17 0 -10 4 -47 7 -83 7 -73 14 -159 22
-270 14 -205 23 -296 46 -470 23 -177 22 -170 49 -310 31 -154 82 -344 141
-520 52 -156 147 -409 158 -422 3 -3 83 -9 176 -12 94 -4 190 -9 215 -11 25
-2 86 -7 135 -10 50 -3 110 -8 135 -10 133 -13 450 -37 668 -51 110 -7 721 -9
727 -2 2 2 7 19 10 38 3 19 10 52 16 74 6 21 9 39 7 41 -2 1 -178 5 -393 8
-214 3 -401 8 -415 10 -14 3 -63 8 -110 12 -47 4 -101 8 -120 11 -188 21 -479
56 -497 59 -12 2 -57 7 -100 10 -43 4 -87 9 -97 11 -11 2 -79 7 -150 10 -72 4
-138 8 -146 9 -14 2 -38 69 -54 159 l-7 38 98 -7 c54 -3 112 -8 128 -10 17 -2
53 -7 80 -10 52 -6 154 -22 520 -79 255 -40 447 -63 630 -75 146 -10 516 -11
614 -2 l64 6 37 120 c37 122 124 358 165 449 12 28 38 87 58 131 19 44 52 116
72 160 173 370 315 723 395 978 l28 87 -75 46 c-42 27 -78 43 -82 38 -5 -5
-18 -43 -31 -84 -20 -71 -107 -310 -135 -375 -8 -16 -22 -50 -33 -75 -65 -152
-80 -181 -353 -720 -58 -113 -116 -232 -131 -265 -41 -92 -107 -265 -101 -265
3 0 0 -7 -7 -15 -7 -8 -10 -15 -7 -15 2 0 -1 -17 -8 -37 -11 -30 -18 -38 -37
-37 -66 4 -177 16 -205 22 l-32 7 28 80 c70 198 146 345 340 660 305 496 428
746 551 1119 l33 100 -30 25 c-17 14 -40 33 -51 41 -115 87 -185 153 -547 516
-401 402 -502 493 -755 683 -74 56 -139 101 -145 101 -5 0 -35 -20 -65 -45z"/>
</g>
</svg>
