<?xml version="1.0" standalone="no"?>
<!DOCTYPE svg PUBLIC "-//W3C//DTD SVG 20010904//EN"
 "http://www.w3.org/TR/2001/REC-SVG-20010904/DTD/svg10.dtd">
<svg version="1.0" xmlns="http://www.w3.org/2000/svg"
 width="512.000000pt" height="512.000000pt" viewBox="0 0 512.000000 512.000000"
 preserveAspectRatio="xMidYMid meet">
<metadata>
Created by potrace 1.13, written by Peter Selinger 2001-2015
</metadata>
<g transform="translate(0.000000,512.000000) scale(0.100000,-0.100000)"
fill="#000000" stroke="none">
<path d="M1757 4938 c-3 -13 -14 -59 -26 -103 -11 -44 -20 -89 -20 -100 0 -11
-4 -51 -9 -89 -17 -142 17 -430 63 -516 7 -14 16 -40 20 -57 3 -18 11 -35 16
-38 5 -4 9 -17 9 -31 0 -13 4 -24 9 -24 5 0 11 -8 14 -17 2 -10 8 -27 13 -37
8 -20 0 -20 -61 -2 -28 8 -146 40 -235 64 -71 19 -145 33 -200 37 -14 2 -47 6
-75 10 -118 16 -262 24 -460 24 -88 0 -188 0 -222 1 -33 1 -64 -3 -67 -8 -8
-13 43 -107 81 -150 18 -20 33 -41 33 -46 0 -9 188 -196 197 -196 5 0 61 -45
94 -75 9 -8 21 -15 28 -15 6 0 14 -6 17 -14 3 -8 19 -20 35 -26 16 -7 29 -16
29 -20 0 -5 13 -11 29 -15 16 -3 37 -15 47 -26 9 -10 23 -19 31 -19 7 0 25 -7
38 -16 13 -9 30 -17 38 -18 8 -1 22 -9 31 -19 16 -15 32 -21 39 -15 1 2 16 -7
34 -20 17 -12 35 -22 40 -22 5 0 34 -12 63 -26 30 -14 65 -28 77 -30 13 -3 43
-16 68 -30 25 -13 45 -22 45 -19 0 4 43 -15 99 -44 8 -4 16 -12 19 -19 2 -8
-28 -11 -101 -11 -57 0 -110 -3 -118 -5 -8 -3 -41 -7 -74 -10 -144 -12 -407
-80 -555 -143 -19 -8 -44 -19 -55 -23 -81 -34 -146 -63 -178 -80 -22 -11 -45
-20 -52 -20 -7 0 -15 -3 -17 -7 -1 -5 -46 -29 -98 -56 -99 -49 -190 -99 -250
-135 -39 -24 -98 -52 -110 -52 -4 0 -15 -9 -25 -20 -10 -11 -24 -20 -30 -20
-7 0 -18 -6 -24 -13 -8 -11 -1 -20 32 -44 23 -17 46 -31 50 -31 4 -1 27 -15
49 -31 23 -17 49 -31 58 -31 9 0 21 -5 27 -11 6 -6 17 -11 24 -13 8 -1 28 -9
44 -18 25 -13 99 -35 220 -64 88 -22 322 -32 424 -19 57 8 54 8 69 6 21 -2 13
-19 -49 -103 -34 -46 -65 -93 -70 -105 -5 -13 -13 -23 -19 -23 -5 0 -10 -5
-10 -10 0 -6 -17 -38 -38 -73 -21 -34 -48 -84 -61 -112 -13 -27 -37 -79 -54
-115 -17 -36 -32 -69 -33 -75 -1 -5 -12 -32 -24 -58 -12 -26 -23 -56 -25 -67
-2 -11 -11 -34 -19 -52 -34 -72 -141 -426 -132 -435 2 -2 23 1 47 7 24 6 49
12 54 13 6 1 15 6 21 9 6 4 30 10 52 14 23 4 42 10 42 14 0 5 14 11 30 15 31
7 115 49 180 90 19 12 45 25 58 29 12 4 22 11 22 15 0 5 17 20 39 34 21 14 50
36 64 49 14 13 41 34 58 48 62 47 301 294 426 440 73 85 116 130 125 130 11 0
10 -37 -1 -44 -5 -3 -11 -16 -14 -28 -3 -13 -15 -54 -26 -93 -12 -38 -24 -83
-27 -99 -2 -16 -7 -33 -10 -37 -2 -4 -7 -27 -9 -51 -3 -24 -11 -90 -18 -148
-13 -109 -14 -292 -2 -440 4 -47 9 -101 10 -120 2 -19 10 -75 19 -124 8 -49
13 -92 11 -96 -3 -4 4 -41 14 -81 11 -41 22 -94 26 -119 4 -25 15 -89 26 -142
10 -53 20 -108 21 -122 1 -14 6 -26 10 -26 4 0 8 -14 8 -31 l0 -31 38 30 c87
70 272 265 272 288 0 3 11 20 24 37 31 42 121 231 135 284 6 23 15 45 20 47 8
5 16 37 28 101 2 11 6 27 10 35 3 8 8 24 10 35 10 57 23 59 54 8 12 -21 27
-42 33 -48 6 -5 31 -37 55 -70 45 -59 240 -260 337 -345 117 -104 379 -300
399 -300 4 0 26 -16 49 -35 24 -19 47 -35 51 -35 5 0 17 -7 27 -17 17 -15 18
-15 19 13 7 141 5 221 -6 289 -7 44 -13 95 -14 113 -1 19 -7 46 -15 60 -7 15
-21 60 -31 100 -9 39 -21 72 -25 72 -4 0 -11 17 -15 37 -4 20 -13 46 -21 57
-8 11 -14 28 -14 38 0 10 -4 18 -10 18 -5 0 -10 4 -10 10 0 14 -74 165 -110
225 -17 28 -40 70 -53 95 -12 25 -28 51 -34 58 -7 7 -13 18 -13 24 0 6 -11 26
-26 45 -14 18 -32 48 -40 66 -8 17 -24 47 -35 66 -41 69 -21 61 146 -59 39
-28 81 -56 95 -63 14 -8 42 -23 63 -35 20 -12 37 -19 37 -17 0 3 25 -8 55 -24
30 -16 71 -35 91 -41 20 -7 48 -18 62 -26 15 -8 36 -14 48 -14 11 0 24 -4 30
-9 8 -7 238 -69 289 -77 11 -2 43 -8 70 -14 28 -6 61 -12 75 -14 14 -2 32 -6
40 -9 8 -3 42 -9 75 -12 33 -3 74 -8 90 -10 34 -5 114 -15 160 -20 79 -9 133
-15 165 -20 106 -15 143 -16 138 -3 -3 7 -14 37 -24 66 -10 28 -22 52 -27 52
-4 0 -5 5 -2 10 3 6 1 10 -4 10 -6 0 -11 6 -11 14 0 17 -46 103 -65 123 -8 8
-15 21 -15 28 0 8 -9 20 -20 28 -11 8 -17 17 -13 20 3 4 1 7 -5 7 -6 0 -18 12
-26 27 -28 54 -225 243 -253 243 -8 0 -12 4 -8 9 3 5 -4 12 -15 16 -11 3 -20
11 -20 16 0 5 -6 9 -14 9 -8 0 -16 4 -18 8 -1 4 -33 25 -70 45 -37 21 -70 42
-73 47 -7 11 35 31 105 51 65 19 208 77 280 114 116 59 191 100 242 135 33 22
62 40 64 40 2 0 27 16 54 35 27 19 53 35 56 35 6 0 94 66 127 94 9 9 21 16 26
16 4 0 21 12 37 27 16 15 47 41 69 58 76 59 96 82 83 92 -15 12 -127 52 -165
59 -15 3 -31 8 -37 12 -6 3 -17 7 -26 8 -8 1 -26 5 -40 8 -108 25 -142 28
-285 27 -158 -1 -223 -6 -355 -26 -14 -2 -42 -6 -62 -9 -32 -4 -163 -32 -258
-56 -19 -4 -69 -14 -110 -20 -41 -7 -79 -15 -85 -19 -5 -4 -22 -8 -37 -10 -42
-4 -26 23 38 64 30 19 54 39 54 45 0 5 6 10 13 10 6 0 33 19 58 43 25 23 59
53 75 67 16 14 54 54 84 89 30 35 63 71 72 81 9 10 25 31 35 47 9 15 39 56 65
90 27 34 48 65 48 69 0 3 20 36 44 73 24 36 70 118 102 181 33 63 65 121 72
128 6 7 12 19 12 25 0 6 27 68 61 137 33 69 66 136 72 150 6 14 18 36 26 49 9
13 16 30 17 38 2 8 9 29 17 46 30 64 27 72 -26 75 -27 2 -54 -1 -60 -6 -7 -5
-41 -10 -77 -11 -36 -1 -69 -7 -74 -12 -6 -5 -25 -9 -42 -9 -18 0 -36 -4 -39
-10 -3 -5 -19 -10 -36 -10 -16 0 -29 -4 -29 -9 0 -5 -13 -11 -29 -14 -15 -3
-53 -17 -84 -31 -31 -15 -61 -26 -66 -26 -6 0 -11 -4 -11 -10 0 -5 -6 -10 -14
-10 -8 0 -21 -6 -28 -13 -14 -14 -51 -30 -56 -25 -2 2 -8 -5 -13 -14 -6 -10
-15 -18 -22 -18 -7 0 -26 -13 -43 -28 -17 -15 -46 -38 -64 -52 -18 -14 -52
-42 -74 -62 -23 -21 -45 -38 -51 -38 -6 0 -10 45 -11 113 -1 111 -10 244 -19
302 -3 17 -10 59 -15 95 -11 64 -28 137 -56 236 -8 28 -14 63 -14 77 0 15 -4
27 -10 27 -5 0 -10 11 -10 25 0 14 -4 33 -9 43 -5 9 -28 78 -52 152 -23 74
-47 138 -52 141 -5 3 -8 8 -7 10 1 2 -3 17 -9 32 -6 16 -11 35 -11 43 0 8 -2
14 -5 14 -10 0 -65 -53 -65 -62 0 -5 -14 -23 -30 -40 -17 -17 -39 -47 -50 -67
-10 -20 -19 -31 -20 -26 0 12 -100 -185 -116 -230 -38 -105 -47 -133 -50 -160
-2 -16 -9 -34 -14 -39 -6 -6 -10 -24 -10 -41 0 -18 -3 -35 -7 -39 -7 -7 -8 -9
-18 -91 -3 -27 -10 -66 -15 -85 -4 -19 -8 -42 -9 -50 -4 -63 -9 -125 -11 -125
-4 0 -13 -82 -26 -250 -5 -71 -9 -105 -13 -127 -2 -15 -31 5 -31 21 0 20 -25
101 -46 148 -8 17 -14 35 -14 39 0 15 -101 214 -109 214 -4 0 -13 16 -21 35
-8 19 -17 35 -21 35 -4 0 -9 8 -13 18 -9 27 -32 59 -81 113 -8 9 -15 20 -15
24 0 5 -18 30 -40 56 -22 26 -40 50 -40 52 0 5 -92 106 -172 189 -32 32 -58
60 -58 62 0 6 -212 210 -340 326 -46 41 -88 81 -96 88 -17 17 -21 15 -27 -10z"/>
</g>
</svg>
