<?xml version="1.0" standalone="no"?>
<!DOCTYPE svg PUBLIC "-//W3C//DTD SVG 20010904//EN"
 "http://www.w3.org/TR/2001/REC-SVG-20010904/DTD/svg10.dtd">
<svg version="1.0" xmlns="http://www.w3.org/2000/svg"
 width="512.000000pt" height="512.000000pt" viewBox="0 0 512.000000 512.000000"
 preserveAspectRatio="xMidYMid meet">
<metadata>
Created by potrace 1.13, written by Peter Selinger 2001-2015
</metadata>
<g transform="translate(0.000000,512.000000) scale(0.100000,-0.100000)"
fill="#000000" stroke="none">
<path d="M1590 4144 c0 -5 14 -29 30 -53 35 -52 36 -60 12 -92 -26 -33 -34
-73 -22 -105 9 -23 7 -33 -10 -55 -29 -40 -25 -56 20 -87 48 -33 50 -42 7 -42
-34 0 -57 -15 -57 -36 0 -7 18 -36 41 -65 42 -56 42 -55 25 -147 -2 -13 2 -39
11 -59 13 -31 17 -53 22 -100 0 -7 14 -27 30 -46 35 -39 47 -78 32 -105 -9
-16 -5 -24 24 -50 18 -17 45 -34 59 -38 14 -3 27 -10 28 -15 4 -27 2 -34 -11
-34 -27 0 -21 -22 10 -37 31 -15 31 -16 9 -23 -13 -4 -41 -1 -63 6 -35 11 -43
11 -70 -4 -27 -16 -31 -16 -47 -2 -28 25 -63 19 -82 -15 -23 -41 -74 -44 -150
-10 -49 22 -68 14 -68 -29 0 -46 -13 -55 -50 -36 l-33 17 -30 -32 c-22 -24
-35 -30 -51 -25 -11 4 -34 8 -51 9 -27 1 -31 -3 -43 -41 -15 -46 -19 -48 -70
-34 -49 14 -61 6 -52 -34 7 -33 7 -34 -31 -40 -25 -4 -48 -17 -66 -38 -20 -23
-36 -32 -58 -31 -53 1 -58 -4 -52 -58 4 -28 15 -64 25 -81 16 -28 24 -32 67
-35 35 -2 55 -10 69 -26 25 -27 71 -56 88 -56 7 0 35 -18 62 -39 27 -22 55
-37 63 -34 7 3 32 -5 55 -17 38 -19 96 -34 183 -45 17 -2 47 -13 68 -23 31
-17 43 -18 72 -9 32 9 39 7 90 -26 30 -21 61 -37 69 -37 8 0 32 11 52 25 35
24 60 30 112 25 13 -1 31 4 40 11 9 7 -1 -6 -22 -29 -41 -43 -51 -68 -36 -87
6 -7 -2 -18 -23 -30 -28 -16 -49 -38 -53 -55 0 -3 -4 -16 -7 -30 -4 -14 -8
-43 -10 -65 -3 -35 -7 -41 -34 -49 -40 -11 -45 -30 -20 -81 11 -22 20 -40 21
-41 1 0 -5 -8 -12 -17 -11 -13 -24 -15 -58 -10 -40 5 -44 4 -44 -15 0 -11 11
-33 24 -49 45 -54 46 -63 21 -137 -18 -54 -21 -75 -13 -97 6 -16 7 -37 4 -45
-4 -10 7 -40 24 -71 17 -30 28 -58 24 -64 -3 -6 -24 -7 -50 -3 -40 6 -44 4
-44 -14 0 -12 21 -47 46 -78 26 -32 47 -67 47 -80 0 -21 3 -23 26 -17 37 9
117 48 181 88 32 21 61 33 70 29 46 -19 50 -17 50 19 0 54 21 65 82 43 64 -23
79 -11 49 37 -36 59 -20 85 42 64 46 -15 57 -4 57 59 0 62 2 63 77 33 26 -10
35 -11 45 -1 9 9 7 22 -10 58 -29 59 -18 76 47 72 51 -3 50 -6 40 81 -6 50 19
62 70 33 l40 -23 -10 33 c-6 18 -13 40 -16 49 -2 9 4 34 15 55 l20 39 10 -36
c5 -20 8 -47 5 -60 -4 -27 16 -52 92 -115 45 -37 82 -86 154 -206 23 -38 47
-63 75 -78 23 -13 52 -33 66 -45 31 -27 57 -37 65 -25 13 22 39 7 98 -55 61
-65 62 -66 122 -69 65 -3 95 -12 95 -28 0 -6 9 -8 20 -5 11 3 20 2 20 -2 0 -4
16 -5 36 -3 32 4 35 7 31 29 -3 14 3 33 13 46 14 17 15 26 7 44 -9 20 -6 28
16 51 l27 28 -24 94 c-19 73 -22 98 -13 117 8 18 7 36 -5 76 -9 29 -15 63 -14
76 2 14 -4 38 -12 54 -8 16 -15 64 -17 114 l-2 85 -61 60 c-59 58 -62 63 -56
99 6 33 2 44 -27 80 -18 23 -35 51 -36 61 -3 17 2 19 29 15 18 -3 46 -8 61
-12 18 -5 38 -3 53 6 20 10 32 10 56 1 24 -9 38 -8 70 5 39 16 41 16 93 -13
45 -24 55 -26 69 -15 10 9 14 22 10 37 -4 16 -1 25 7 27 34 10 157 37 184 41
17 3 36 14 44 26 8 12 41 28 80 40 42 12 75 29 89 45 12 14 29 25 37 25 9 0
33 18 55 41 21 23 45 39 52 37 7 -3 19 9 28 26 9 18 27 35 45 40 17 6 32 11
34 13 2 1 -7 18 -19 37 -31 52 -96 103 -157 126 -89 33 -151 68 -170 96 -57
85 -185 161 -208 124 -4 -7 -12 -7 -25 0 -26 14 -63 13 -79 -2 -10 -11 -15 -9
-29 8 -37 46 -88 48 -112 5 -12 -23 -40 -29 -40 -8 0 7 -3 8 -8 2 -12 -17 -29
-16 -80 4 -53 21 -183 26 -217 8 -11 -5 6 15 38 46 31 31 57 59 58 64 0 4 3
19 5 33 3 14 6 48 7 75 2 45 4 50 24 48 20 -2 59 36 62 60 3 28 15 57 23 57
14 0 -2 41 -28 73 -30 35 -22 55 24 59 36 3 37 4 34 43 -1 22 -3 75 -3 118 -1
67 2 81 20 101 20 21 21 27 10 77 -8 38 -21 62 -43 83 -38 36 -43 66 -10 66
39 0 46 29 18 84 -13 26 -24 55 -24 64 0 12 -3 13 -8 5 -4 -7 -27 -13 -51 -14
-28 -2 -47 -9 -55 -21 -18 -26 -113 -70 -145 -67 -49 5 -70 -10 -88 -61 -19
-55 -62 -84 -111 -74 -23 5 -34 -1 -67 -37 -22 -24 -47 -63 -55 -88 -13 -41
-22 -49 -78 -79 -35 -18 -73 -34 -85 -36 -17 -3 -21 -9 -19 -27 1 -13 7 -25
12 -27 32 -11 -30 -121 -79 -143 -17 -8 -31 -16 -32 -19 0 -3 -2 -17 -4 -32
-2 -15 -8 -35 -14 -45 -8 -15 -12 -12 -28 27 -11 25 -20 61 -21 80 -3 38 -40
85 -76 94 -11 3 -43 34 -70 70 -27 36 -66 79 -88 96 -26 21 -38 39 -38 56 0
30 -32 79 -62 95 -12 6 -38 12 -58 14 -84 6 -175 55 -207 113 -15 28 -23 32
-53 30 -52 -3 -128 30 -187 80 -29 25 -53 41 -53 36z"/>
</g>
</svg>
