<?xml version="1.0" standalone="no"?>
<!DOCTYPE svg PUBLIC "-//W3C//DTD SVG 20010904//EN"
 "http://www.w3.org/TR/2001/REC-SVG-20010904/DTD/svg10.dtd">
<svg version="1.0" xmlns="http://www.w3.org/2000/svg"
 width="512.000000pt" height="512.000000pt" viewBox="0 0 512.000000 512.000000"
 preserveAspectRatio="xMidYMid meet">
<metadata>
Created by potrace 1.13, written by Peter Selinger 2001-2015
</metadata>
<g transform="translate(0.000000,512.000000) scale(0.100000,-0.100000)"
fill="#000000" stroke="none">
<path d="M3258 4782 c-14 -24 -23 -54 -27 -95 -1 -4 -12 -5 -25 -1 -30 7 -39
-7 -46 -71 l-5 -50 -50 -5 -50 -5 0 -47 c0 -57 -6 -64 -64 -67 -10 -1 -12 -11
-7 -41 7 -42 3 -48 -52 -81 -30 -18 -32 -22 -26 -58 6 -36 2 -45 -39 -99 -30
-39 -42 -64 -37 -73 5 -7 7 -16 4 -20 -2 -4 0 -10 5 -14 17 -10 0 -34 -29 -40
-23 -5 -43 -26 -41 -42 0 -2 -6 -21 -14 -44 -8 -23 -15 -54 -15 -70 0 -22 -5
-29 -20 -30 -39 -3 -43 -4 -54 -21 -8 -13 -6 -26 7 -53 26 -54 11 -74 -48 -68
-41 5 -45 4 -45 -15 0 -12 13 -42 29 -67 31 -49 31 -73 0 -101 -10 -9 -19 -21
-19 -26 0 -14 -53 -63 -65 -61 -6 2 -11 -28 -13 -79 -3 -90 -13 -111 -46 -102
-23 5 -56 12 -68 13 -4 1 -19 22 -32 49 -26 50 -86 98 -111 88 -8 -3 -15 -1
-15 4 0 6 -4 9 -9 8 -5 -2 -23 17 -41 41 -29 39 -30 45 -16 59 14 14 13 19
-10 49 -14 18 -21 33 -17 33 23 1 -26 20 -50 20 -32 0 -67 16 -67 30 0 6 22
10 48 10 53 0 72 12 72 46 0 32 -18 41 -86 46 -48 3 -68 10 -94 31 -19 17 -42
26 -58 25 -33 -2 -68 16 -82 42 -10 19 -8 19 51 13 62 -6 62 -6 56 18 -4 13
-7 30 -7 36 0 21 -77 63 -114 63 -32 0 -47 12 -147 115 -89 91 -121 117 -152
126 -31 8 -64 34 -139 110 -95 96 -117 109 -148 89 -8 -5 -17 -6 -20 -2 -11
16 -60 42 -79 42 -22 0 -35 -30 -26 -59 3 -11 -3 -36 -14 -57 -21 -39 -21 -41
16 -91 29 -37 16 -51 -29 -32 -30 12 -32 12 -69 -29 -20 -23 -46 -42 -56 -42
-23 0 -53 -29 -53 -51 0 -35 -25 -48 -115 -59 -49 -6 -96 -16 -103 -23 -10 -8
-13 -25 -8 -62 4 -40 12 -56 37 -77 18 -16 39 -28 49 -28 39 0 97 -104 102
-182 4 -56 60 -118 105 -118 23 0 38 -9 59 -36 35 -45 45 -55 74 -74 51 -35
91 -74 86 -86 -3 -7 0 -15 7 -18 9 -3 9 -5 -1 -5 -7 -1 0 -12 15 -25 99 -86
126 -113 139 -138 9 -16 36 -39 67 -54 63 -32 127 -99 127 -132 0 -22 2 -23
17 -11 15 12 16 12 8 -1 -8 -13 -7 -13 8 -1 9 7 17 10 17 6 0 -4 7 -2 16 6 13
10 17 10 25 -2 5 -8 9 -19 9 -24 0 -6 15 -28 34 -49 28 -32 38 -38 61 -34 30
6 45 -5 95 -72 14 -19 33 -41 43 -50 18 -18 15 -43 -10 -68 -7 -7 -13 -20 -13
-29 0 -11 -7 -14 -22 -10 -87 21 -95 20 -101 -10 -3 -15 -1 -29 4 -31 5 -2 9
-10 9 -17 0 -12 -63 -31 -84 -26 -5 1 -19 -8 -32 -20 -12 -11 -33 -21 -46 -20
-13 0 -41 1 -63 0 -22 0 -66 0 -97 0 -63 0 -65 -3 -46 -56 19 -51 0 -63 -57
-35 -71 35 -85 28 -85 -43 0 -38 -17 -48 -57 -33 -43 16 -139 -19 -164 -61
-16 -26 -25 -31 -57 -31 -23 0 -51 -9 -73 -25 -20 -13 -39 -22 -42 -19 -9 10
-63 -24 -88 -55 -13 -17 -29 -31 -34 -31 -6 0 -31 11 -56 25 -26 13 -49 22
-52 18 -3 -3 1 -23 10 -45 15 -38 15 -41 -5 -60 -11 -12 -33 -21 -49 -22 -23
-1 -29 -6 -31 -24 -5 -56 -28 -68 -96 -48 -34 10 -46 -3 -40 -44 3 -15 0 -39
-6 -55 -10 -27 -26 -30 -71 -11 -11 5 -15 2 -14 -11 0 -10 4 -24 8 -30 4 -6 3
-14 -3 -18 -5 -3 -10 -11 -10 -17 0 -6 3 -9 6 -6 3 3 18 -6 34 -22 23 -23 35
-27 73 -25 36 2 50 -2 64 -18 10 -11 42 -35 71 -54 32 -21 52 -41 52 -52 0
-18 -29 -24 -40 -9 -3 4 -11 3 -18 -1 -19 -11 0 -51 42 -92 58 -54 68 -142 17
-151 -18 -3 -18 -6 -7 -39 9 -24 9 -40 2 -51 -13 -21 0 -36 51 -65 45 -26 62
-19 72 27 5 28 11 33 40 36 19 2 57 10 85 17 28 7 69 12 92 11 36 -1 43 2 58
27 9 16 25 29 34 30 9 0 26 3 37 6 16 3 98 10 158 13 4 0 7 15 7 34 0 53 22
64 76 37 35 -18 48 -20 59 -11 13 10 12 17 0 47 -25 60 -22 65 39 58 48 -6 55
-5 69 15 12 17 13 29 6 48 -15 38 3 45 41 17 41 -30 55 -31 98 -5 29 18 33 25
27 48 -5 27 -3 29 42 39 26 6 62 11 78 12 43 2 98 21 112 40 7 9 13 28 13 43
0 14 11 40 25 56 20 23 35 30 75 34 28 3 58 12 68 21 9 8 24 17 32 19 21 4 30
19 30 49 0 22 4 26 28 24 46 -3 48 -4 49 -26 3 -35 20 -44 27 -14 6 25 10 27
43 22 41 -7 69 -29 58 -46 -4 -7 -20 -9 -41 -5 -25 5 -34 3 -34 -7 0 -22 26
-90 32 -84 3 3 5 -16 5 -42 0 -53 9 -111 25 -161 9 -29 7 -37 -11 -56 -27 -29
-27 -34 10 -89 25 -39 28 -49 18 -65 -7 -12 -20 -18 -33 -16 -12 3 -15 2 -8
-2 14 -7 16 -70 2 -79 -15 -9 -12 -41 8 -77 10 -18 22 -46 26 -63 4 -16 14
-44 23 -62 17 -31 16 -33 -6 -57 -20 -21 -21 -27 -11 -48 7 -12 22 -33 33 -46
18 -19 21 -37 23 -120 2 -56 9 -117 18 -143 9 -24 16 -50 16 -57 0 -7 11 -29
24 -50 28 -41 40 -89 25 -97 -11 -7 -12 -42 -1 -47 13 -5 76 -141 82 -177 5
-31 10 -35 62 -51 70 -22 81 -14 72 54 l-7 46 36 0 c41 0 52 12 49 56 -3 45
10 48 54 13 24 -19 46 -29 59 -26 11 3 55 13 98 22 61 14 82 16 103 7 14 -7
23 -16 19 -21 -7 -12 104 -63 130 -59 17 3 20 11 21 58 0 71 0 71 27 61 50
-19 60 7 22 59 -26 36 -33 74 -14 86 15 9 3 115 -17 164 -10 23 -13 49 -9 77
4 31 2 49 -9 65 -9 12 -16 31 -16 42 0 16 5 18 40 12 51 -8 52 6 3 57 -30 32
-36 47 -37 83 -1 24 -4 44 -8 44 -5 0 -8 7 -8 16 0 9 -5 12 -12 8 -6 -4 -2 9
10 28 l22 36 -52 43 c-29 24 -55 44 -56 45 -13 8 18 29 43 29 27 0 30 3 27 30
-2 17 -16 51 -32 76 -31 51 -39 78 -27 97 5 6 5 12 0 12 -4 0 -1 4 7 10 12 8
12 15 -3 57 -11 31 -15 60 -11 82 6 30 3 37 -48 84 -46 43 -55 57 -52 81 1 15
10 36 19 46 14 16 14 19 0 33 -8 9 -15 31 -15 49 0 18 -4 40 -10 48 -6 9 -5
17 3 22 7 4 12 31 12 65 0 79 18 81 95 8 55 -54 60 -56 76 -40 30 29 88 16
139 -33 15 -14 45 -16 45 -4 0 12 30 12 63 0 26 -10 32 -22 27 -62 -1 -11 3
-15 9 -12 6 4 11 0 11 -10 0 -16 2 -15 22 2 14 13 19 14 14 4 -4 -8 1 -5 10 8
22 30 84 28 84 -3 0 -12 31 -45 44 -45 3 0 11 11 16 25 11 28 29 31 68 11 15
-7 38 -11 52 -9 49 7 64 4 119 -30 76 -46 82 -48 131 -31 41 14 43 14 87 -15
37 -25 52 -29 84 -25 26 4 45 1 61 -10 43 -31 63 -21 71 34 6 38 33 35 84 -9
50 -45 86 -52 103 -21 21 39 46 43 94 15 41 -24 45 -25 80 -10 20 8 36 19 36
25 0 5 11 20 23 34 l24 26 -42 43 c-30 31 -42 53 -43 75 0 17 -5 39 -11 50
-16 31 12 102 41 102 15 0 38 27 38 45 0 8 -11 43 -25 76 -14 33 -23 64 -20
70 4 5 26 7 54 3 59 -8 81 11 57 48 -15 23 -14 24 19 42 19 11 35 23 35 27 0
5 -14 16 -31 24 -17 9 -51 32 -76 51 -24 19 -50 34 -57 34 -7 0 -25 14 -42 31
-41 43 -61 53 -78 37 -12 -11 -12 -15 1 -30 9 -10 13 -24 9 -33 -5 -14 -9 -14
-43 1 -21 9 -51 18 -66 20 -40 5 -63 20 -88 56 -12 18 -24 35 -26 37 -1 2 -8
-1 -15 -7 -7 -6 -16 -11 -20 -11 -4 -1 -15 -4 -23 -7 -8 -4 -26 1 -40 10 -25
17 -59 18 -83 3 -7 -5 -31 2 -58 17 -26 14 -51 23 -57 19 -22 -13 -83 -3 -139
24 -57 26 -57 26 -97 8 l-40 -18 -36 28 c-31 23 -43 26 -78 21 -33 -5 -49 -2
-72 14 -44 29 -63 25 -82 -16 -16 -32 -21 -35 -47 -30 -16 3 -48 22 -72 41
l-42 35 -21 -35 c-25 -42 -50 -55 -63 -32 -16 30 -64 48 -92 36 -22 -10 -28
-8 -51 17 -14 16 -35 46 -46 67 -17 33 -18 39 -5 52 8 8 21 15 28 15 24 1 49
27 42 44 -4 10 7 32 31 61 34 42 39 56 44 137 1 4 20 8 43 10 39 3 45 7 61 41
9 21 28 43 41 49 22 9 24 16 21 58 -3 41 0 53 21 75 18 20 24 35 20 56 -4 29
7 48 19 29 3 -5 19 -10 35 -10 41 0 50 38 22 92 -27 55 -20 68 37 68 26 0 50
3 54 6 3 3 -1 23 -8 45 -19 52 -9 77 29 70 28 -5 44 12 50 57 13 99 25 132 58
152 25 15 27 19 13 30 -16 14 -21 60 -6 60 16 0 49 53 54 87 3 21 -2 45 -14
68 -21 38 -16 60 14 62 9 0 26 1 37 2 29 1 35 26 20 73 -11 33 -11 41 -1 48
20 12 4 29 -46 51 -56 24 -69 24 -100 -1 -35 -28 -87 -26 -110 3 -27 34 -64
57 -94 57 -25 0 -131 67 -156 100 -7 8 -13 26 -13 40 -1 34 -17 53 -67 79 -23
11 -44 21 -45 21 -2 0 -11 -13 -20 -28z"/>
</g>
</svg>
