<?xml version="1.0" standalone="no"?>
<!DOCTYPE svg PUBLIC "-//W3C//DTD SVG 20010904//EN"
 "http://www.w3.org/TR/2001/REC-SVG-20010904/DTD/svg10.dtd">
<svg version="1.0" xmlns="http://www.w3.org/2000/svg"
 width="558.000000pt" height="558.000000pt" viewBox="0 0 558.000000 558.000000"
 preserveAspectRatio="xMidYMid meet">
<metadata>
Created by potrace 1.13, written by Peter Selinger 2001-2015
</metadata>
<g transform="translate(0.000000,558.000000) scale(0.100000,-0.100000)"
fill="#000000" stroke="none">
<path d="M2780 4666 c-23 -9 -41 -25 -54 -49 -24 -45 -39 -49 -94 -23 -55 26
-70 14 -48 -39 22 -53 9 -73 -52 -77 -45 -3 -47 -4 -52 -38 l-5 -35 -59 3 -59
4 5 -46 c7 -57 -9 -84 -40 -67 -34 18 -50 13 -67 -23 -20 -41 -37 -49 -69 -34
-36 16 -56 4 -56 -34 0 -42 -10 -57 -40 -61 -18 -3 -26 -12 -30 -33 -5 -28 -8
-29 -60 -29 -71 0 -81 -7 -78 -58 l3 -42 -40 -3 c-71 -4 -82 -10 -88 -42 -5
-20 -12 -30 -25 -30 -10 0 -31 -13 -47 -30 -16 -16 -37 -30 -47 -30 -9 0 -25
-11 -34 -25 -9 -14 -28 -28 -43 -31 -43 -10 -71 -33 -71 -58 0 -32 -30 -56
-73 -56 -25 0 -41 -7 -54 -24 -10 -13 -29 -27 -41 -30 -13 -4 -33 -25 -46 -45
-34 -53 -117 -105 -156 -98 -23 5 -33 1 -50 -20 -11 -14 -20 -37 -20 -52 -1
-52 -44 -81 -106 -74 -40 4 -43 3 -83 -48 -29 -36 -39 -57 -34 -68 4 -9 8 -48
8 -86 0 -65 3 -74 33 -110 24 -30 32 -49 32 -80 0 -24 8 -50 20 -65 22 -28 25
-58 9 -93 -9 -19 -5 -34 25 -93 24 -45 36 -83 36 -109 0 -29 10 -56 35 -95 19
-30 35 -60 35 -67 0 -6 18 -33 40 -59 41 -46 43 -56 14 -60 -58 -9 -58 -34 1
-99 38 -41 45 -56 45 -90 0 -34 16 -90 47 -165 3 -8 5 -18 5 -22 -1 -5 4 -8
10 -9 7 0 3 -4 -10 -10 l-24 -9 31 -54 c23 -40 30 -61 25 -84 -4 -22 1 -42 19
-73 14 -24 28 -55 32 -69 4 -14 18 -39 31 -57 29 -39 30 -45 4 -61 -31 -19
-24 -39 34 -100 39 -42 58 -71 69 -110 13 -46 13 -54 1 -59 -33 -13 -1 -89 55
-131 50 -37 68 -22 44 35 -20 49 -9 63 47 63 53 0 65 10 62 52 -2 26 6 34 32
29 28 -6 58 13 74 46 10 22 26 39 40 43 12 3 28 16 35 30 9 17 24 27 54 33 35
7 43 13 52 40 9 25 17 33 39 35 36 3 52 27 52 78 0 24 4 45 8 48 4 2 27 -4 51
-15 32 -14 48 -16 62 -9 21 12 34 52 25 75 -4 10 2 19 18 25 26 10 66 56 66
76 0 17 11 18 44 3 22 -10 30 -7 76 32 41 34 51 48 47 67 -4 23 24 61 47 63 6
0 25 2 43 3 41 3 127 80 130 116 0 14 2 30 2 36 1 15 44 31 104 40 62 8 93 33
101 82 3 22 15 51 27 65 17 23 28 27 68 27 60 0 98 33 108 92 7 48 27 70 58
64 36 -7 126 53 153 101 14 25 32 43 47 47 14 4 25 11 25 16 0 22 41 50 74 50
40 0 66 22 66 55 0 29 21 52 57 59 17 4 35 19 45 36 10 17 25 30 37 30 11 0
46 29 85 72 63 69 66 71 98 62 29 -9 33 -14 33 -44 0 -22 11 -51 28 -76 31
-46 28 -74 -9 -74 -32 0 -31 -23 4 -50 26 -21 26 -23 8 -34 -11 -6 -33 -23
-51 -38 -17 -15 -43 -30 -58 -33 -15 -4 -44 -27 -63 -51 -20 -24 -42 -44 -48
-44 -7 0 -27 11 -46 25 -18 14 -36 23 -38 20 -2 -2 3 -22 11 -44 18 -44 13
-53 -51 -85 -18 -9 -37 -27 -41 -39 -16 -42 -38 -52 -84 -40 -47 13 -60 4 -50
-35 3 -12 -1 -36 -8 -53 -12 -30 -14 -31 -56 -25 l-43 6 -23 -48 c-15 -29 -29
-46 -38 -43 -8 2 -22 6 -31 8 -12 4 -24 -9 -42 -46 -35 -68 -65 -87 -139 -84
l-58 3 7 -45 c6 -42 5 -45 -21 -55 -14 -5 -40 -10 -57 -10 -28 0 -30 -2 -24
-27 14 -59 15 -58 -48 -58 -59 0 -60 -1 -66 -31 -10 -44 -18 -54 -47 -54 -33
0 -83 -36 -83 -61 0 -12 -7 -19 -20 -19 -10 0 -35 -14 -53 -30 -20 -17 -46
-30 -61 -30 -20 0 -29 -8 -40 -34 -10 -24 -24 -37 -48 -45 -18 -6 -40 -23 -49
-39 -10 -18 -46 -42 -107 -72 -50 -25 -92 -50 -92 -56 0 -6 -19 -35 -42 -63
-41 -51 -44 -52 -85 -48 -53 5 -79 -12 -88 -56 -4 -17 -9 -39 -11 -49 -8 -27
-54 -50 -113 -55 -65 -6 -90 -23 -84 -57 3 -16 -2 -30 -13 -40 -11 -8 -39 -31
-62 -50 -34 -28 -53 -36 -84 -36 -73 0 -31 -23 92 -50 46 -10 60 -9 84 4 31
16 47 12 95 -25 29 -23 54 -24 71 -4 7 8 20 15 30 15 9 0 29 11 44 25 32 29
26 29 73 11 21 -8 64 -20 96 -27 51 -11 62 -11 85 4 26 15 29 14 81 -15 53
-31 55 -31 84 -15 16 9 34 17 40 17 6 0 23 12 38 26 27 26 29 26 66 12 21 -8
65 -21 98 -27 51 -11 64 -10 89 3 31 16 47 12 95 -25 29 -23 54 -24 71 -4 7 8
20 15 30 15 9 0 29 11 44 25 32 29 26 29 73 11 21 -8 64 -20 96 -27 51 -11 62
-11 85 4 26 15 29 14 81 -15 53 -31 55 -31 84 -15 16 9 34 17 40 17 6 0 23 12
38 26 27 26 29 26 66 12 21 -8 65 -21 98 -27 51 -11 64 -10 89 3 31 16 47 12
95 -25 29 -23 54 -24 71 -4 7 8 20 15 30 15 9 0 29 11 44 25 15 14 38 25 52
25 32 0 39 20 24 65 -11 32 -9 41 11 81 15 27 33 47 47 50 29 8 37 44 18 82
-29 57 -15 92 36 92 38 0 43 17 18 65 -26 52 -25 71 5 91 16 11 30 35 41 69 8
29 22 59 30 66 10 8 15 31 15 73 0 171 1 177 23 169 71 -24 92 3 55 71 -28 53
-21 72 30 86 l41 11 -14 32 c-10 26 -11 39 -1 67 7 19 15 57 19 83 4 27 16 57
28 69 12 12 22 38 25 71 3 29 10 61 16 72 6 11 14 40 17 65 5 44 6 45 38 42
43 -5 51 18 23 74 -11 25 -21 50 -21 58 0 18 33 46 53 46 9 0 17 7 17 15 0 8
-4 15 -9 15 -21 0 -21 35 1 51 17 13 23 29 24 64 1 25 9 54 18 63 21 24 46 86
46 115 0 13 -11 34 -25 47 -32 30 -32 40 3 40 58 0 84 64 48 115 -12 17 -28
43 -36 58 -24 48 -66 77 -103 72 -25 -4 -46 3 -95 32 -35 21 -68 45 -73 55 -8
15 -5 16 25 11 20 -3 36 -1 41 7 11 17 -23 49 -61 56 -32 6 -141 74 -156 98
-5 7 -16 6 -36 -6 -34 -21 -40 -17 -85 52 -42 66 -66 89 -134 125 -45 24 -56
26 -84 16 -18 -6 -45 -11 -60 -11 -25 0 -28 -4 -31 -37 -3 -37 -7 -41 -77 -72
-7 -4 -19 -22 -25 -41 -13 -41 -40 -49 -85 -26 -60 31 -75 12 -49 -61 16 -44
3 -56 -59 -57 -47 -1 -48 -2 -53 -36 l-5 -35 -53 3 c-37 2 -52 -1 -53 -10 0
-7 -1 -33 -2 -58 -2 -48 -10 -52 -64 -35 -18 6 -24 1 -37 -29 -18 -44 -35 -52
-78 -37 -37 13 -48 4 -48 -44 0 -39 -10 -54 -40 -58 -18 -3 -27 -13 -33 -37
l-8 -33 -53 7 c-65 7 -78 -4 -69 -58 7 -46 -7 -58 -57 -51 -44 7 -62 -5 -62
-39 0 -21 -6 -28 -28 -33 -16 -3 -43 -20 -61 -39 -18 -19 -39 -34 -46 -34 -7
0 -17 -9 -23 -20 -6 -11 -23 -23 -38 -26 -44 -10 -72 -33 -72 -58 0 -31 -23
-49 -73 -55 -35 -5 -44 -11 -56 -38 -13 -29 -28 -38 -54 -34 -4 1 -17 -15 -28
-34 -27 -45 -103 -96 -154 -103 -50 -6 -65 -18 -65 -49 0 -35 -24 -77 -54 -93
-25 -13 -29 -12 -74 32 -64 62 -115 98 -137 98 -30 0 -4 18 30 22 26 3 30 7
33 38 5 51 18 61 71 58 l46 -3 3 37 c5 53 20 62 75 41 63 -23 79 -9 48 42 -35
61 -30 69 39 61 56 -7 60 -6 65 16 3 13 4 37 3 53 -3 26 0 30 22 29 14 -1 40
-8 57 -15 29 -12 35 -11 50 4 16 16 16 19 0 52 -9 20 -17 40 -17 45 0 6 22 10
48 10 62 0 85 22 76 70 l-7 33 42 -24 c39 -22 44 -22 69 -8 28 16 31 33 17 92
-7 26 -6 27 32 27 85 0 203 55 203 95 0 7 18 33 41 59 38 42 44 46 88 46 59 0
88 20 97 68 11 62 29 82 74 82 51 0 125 54 159 116 13 24 31 44 39 44 7 0 26
9 41 19 15 11 44 21 66 23 39 3 46 10 62 63 6 23 17 33 48 43 23 7 45 22 50
34 6 11 24 26 42 32 18 6 48 26 68 44 44 40 37 60 -33 96 -26 14 -67 39 -92
55 -25 17 -50 31 -57 31 -25 0 -73 52 -73 78 0 39 -12 53 -51 58 -19 3 -56 20
-84 39 -27 19 -68 40 -90 47 -31 10 -48 26 -77 68 -26 39 -48 59 -78 72 -23
10 -59 32 -80 48 -20 16 -58 38 -83 49 -40 17 -47 25 -53 58 -6 35 -29 74 -43
72 -3 0 -22 -6 -41 -13z"/>
</g>
</svg>
