<?xml version="1.0" standalone="no"?>
<!DOCTYPE svg PUBLIC "-//W3C//DTD SVG 20010904//EN"
 "http://www.w3.org/TR/2001/REC-SVG-20010904/DTD/svg10.dtd">
<svg version="1.0" xmlns="http://www.w3.org/2000/svg"
 width="558.000000pt" height="558.000000pt" viewBox="0 0 558.000000 558.000000"
 preserveAspectRatio="xMidYMid meet">
<metadata>
Created by potrace 1.13, written by Peter Selinger 2001-2015
</metadata>
<g transform="translate(0.000000,558.000000) scale(0.100000,-0.100000)"
fill="#000000" stroke="none">
<path d="M2629 5236 c-2 -2 -71 -6 -154 -10 -151 -7 -240 -14 -262 -21 -14 -4
-25 -72 -58 -342 -8 -70 -21 -220 -30 -343 -3 -47 -8 -107 -10 -135 -4 -47
-12 -200 -20 -375 -4 -78 -17 -520 -18 -578 0 -22 -4 -31 -13 -28 -7 3 -15 0
-18 -7 -3 -9 -5 -9 -5 0 -1 7 -7 10 -14 7 -7 -2 -91 -6 -187 -8 -267 -6 -734
-26 -915 -40 -84 -6 -204 -17 -248 -22 -23 -2 -64 -6 -92 -9 -58 -6 -117 -14
-160 -21 -16 -3 -41 -7 -54 -9 -33 -4 -41 -21 -42 -90 0 -33 -2 -69 -5 -80 -7
-35 -8 -546 0 -665 9 -160 30 -360 42 -422 5 -27 12 -30 134 -53 14 -3 36 -7
50 -10 14 -2 40 -7 58 -10 17 -3 44 -7 60 -9 15 -3 47 -8 72 -11 25 -3 56 -8
70 -10 14 -2 50 -6 80 -10 30 -3 71 -8 90 -10 57 -6 140 -14 215 -20 39 -3 88
-8 110 -10 22 -2 87 -6 145 -10 58 -4 128 -8 155 -10 59 -4 383 -18 438 -19
30 0 39 -5 42 -21 2 -11 7 -103 10 -205 3 -102 8 -212 10 -245 2 -33 6 -107
10 -165 3 -58 8 -125 10 -150 2 -25 6 -81 10 -125 3 -44 7 -96 10 -115 2 -19
7 -66 10 -103 4 -37 8 -76 10 -85 1 -9 6 -46 10 -82 4 -36 8 -72 10 -80 29
-173 40 -223 49 -235 18 -24 205 -38 516 -39 295 -1 467 7 605 27 l79 12 13
45 c14 47 58 288 68 375 4 28 8 61 10 75 2 14 7 57 10 95 4 39 8 81 10 95 2
14 7 63 10 110 4 47 8 101 10 120 2 19 6 89 10 155 4 66 8 136 10 155 2 19 6
112 10 205 4 94 10 173 14 177 3 4 69 9 146 13 77 3 169 7 205 10 36 2 108 7
160 10 53 3 118 7 145 10 28 2 84 7 125 10 41 3 89 8 105 9 17 2 62 7 100 11
84 8 104 11 175 19 52 7 68 9 138 20 15 3 45 7 67 11 23 3 52 8 65 10 14 3 36
7 50 10 83 16 164 37 172 44 6 6 13 51 24 146 3 28 7 64 9 80 28 202 26 998
-3 1026 -4 5 -29 11 -57 15 -27 3 -58 8 -67 9 -9 2 -48 7 -85 10 -37 4 -76 9
-86 11 -9 1 -54 6 -100 9 -45 4 -98 8 -117 10 -19 2 -78 7 -130 10 -52 4 -117
8 -145 10 -27 2 -121 7 -208 10 -86 3 -158 5 -160 6 -6 3 -118 7 -306 12 -112
3 -207 10 -211 14 -5 4 -11 116 -15 248 -3 132 -8 256 -10 275 -2 19 -6 100
-9 180 -4 80 -9 161 -11 180 -2 19 -7 80 -10 135 -4 55 -8 111 -10 125 -2 14
-6 61 -10 105 -4 44 -8 87 -10 95 -2 8 -6 49 -10 90 -4 41 -8 77 -10 80 -1 3
-6 32 -10 65 -7 62 -32 206 -37 210 -3 3 -137 17 -290 30 -73 7 -543 16 -549
11z"/>
</g>
</svg>
