<?xml version="1.0" standalone="no"?>
<!DOCTYPE svg PUBLIC "-//W3C//DTD SVG 20010904//EN"
 "http://www.w3.org/TR/2001/REC-SVG-20010904/DTD/svg10.dtd">
<svg version="1.0" xmlns="http://www.w3.org/2000/svg"
 width="512.000000pt" height="512.000000pt" viewBox="0 0 512.000000 512.000000"
 preserveAspectRatio="xMidYMid meet">
<metadata>
Created by potrace 1.13, written by Peter Selinger 2001-2015
</metadata>
<g transform="translate(0.000000,512.000000) scale(0.100000,-0.100000)"
fill="#000000" stroke="none">
<path d="M2494 4527 c-126 -137 -210 -258 -285 -409 -53 -105 -113 -273 -125
-345 -4 -24 -12 -43 -18 -43 -6 0 -41 28 -77 63 -125 117 -203 176 -339 258
-99 59 -264 141 -320 159 -14 5 -50 18 -80 30 -78 30 -343 96 -419 105 l-63 7
7 -63 c9 -76 75 -341 105 -419 12 -30 25 -66 30 -80 18 -56 100 -221 159 -320
82 -136 141 -214 258 -339 35 -36 63 -71 63 -77 0 -6 -19 -14 -42 -18 -73 -12
-241 -72 -346 -125 -154 -76 -281 -165 -411 -288 l-56 -53 56 -52 c130 -124
257 -213 411 -289 105 -53 273 -113 346 -125 23 -4 42 -12 42 -18 0 -6 -28
-41 -63 -77 -117 -125 -176 -203 -258 -339 -59 -99 -141 -264 -159 -320 -5
-14 -18 -50 -30 -80 -30 -78 -96 -343 -105 -419 l-7 -63 63 7 c76 9 341 75
419 105 30 12 66 25 80 30 56 18 221 100 320 159 136 82 214 141 339 258 36
35 71 63 77 63 6 0 14 -19 18 -42 12 -73 72 -241 125 -346 76 -154 165 -281
289 -411 l52 -56 53 56 c123 130 212 257 288 411 53 105 113 273 125 346 4 23
12 42 18 42 6 0 41 -28 77 -63 125 -117 203 -176 339 -258 99 -59 264 -141
320 -159 14 -5 50 -18 80 -30 78 -30 343 -96 419 -105 l63 -7 -7 63 c-9 76
-75 341 -105 419 -12 30 -25 66 -30 80 -18 56 -100 221 -159 320 -82 136 -141
214 -258 339 -35 36 -63 71 -63 77 0 6 19 14 43 18 72 12 240 72 345 125 154
76 281 165 411 289 l56 52 -56 53 c-130 123 -257 212 -411 288 -105 53 -273
113 -345 125 -24 4 -43 12 -43 18 0 6 28 41 63 77 117 125 176 203 258 339 59
99 141 264 159 320 5 14 18 50 30 80 30 78 96 343 105 419 l7 63 -63 -7 c-76
-9 -341 -75 -419 -105 -30 -12 -66 -25 -80 -30 -56 -18 -221 -100 -320 -159
-136 -82 -214 -141 -339 -258 -36 -35 -71 -63 -77 -63 -6 0 -14 19 -18 43 -21
128 -129 377 -227 524 -73 108 -220 283 -239 283 -4 0 -29 -24 -56 -53z"/>
</g>
</svg>
