<?xml version="1.0" standalone="no"?>
<!DOCTYPE svg PUBLIC "-//W3C//DTD SVG 20010904//EN"
 "http://www.w3.org/TR/2001/REC-SVG-20010904/DTD/svg10.dtd">
<svg version="1.0" xmlns="http://www.w3.org/2000/svg"
 width="558.000000pt" height="558.000000pt" viewBox="0 0 558.000000 558.000000"
 preserveAspectRatio="xMidYMid meet">
<metadata>
Created by potrace 1.13, written by Peter Selinger 2001-2015
</metadata>
<g transform="translate(0.000000,558.000000) scale(0.100000,-0.100000)"
fill="#000000" stroke="none">
<path d="M2771 4612 c-290 -652 -522 -1112 -805 -1597 -42 -71 -76 -133 -76
-137 0 -5 349 -8 775 -8 l775 0 0 -84 0 -83 -62 2 c-111 5 -611 15 -1033 21
-225 3 -439 7 -474 9 -48 2 -67 -2 -78 -14 -8 -9 -65 -94 -127 -189 -62 -95
-116 -169 -121 -165 -4 4 -5 3 -2 -3 7 -12 -143 -236 -408 -609 -35 -49 -106
-151 -157 -226 -51 -75 -97 -134 -102 -131 -5 3 -6 0 -3 -5 4 -6 -4 -26 -16
-44 -96 -143 -217 -346 -217 -365 0 -7 338 2 410 11 19 2 107 12 195 20 88 9
171 18 185 20 14 2 52 7 85 10 33 4 71 8 85 10 14 2 52 7 85 10 33 4 67 8 75
10 8 2 51 7 95 11 44 3 82 8 85 9 3 2 48 6 100 10 52 4 102 9 111 10 9 2 67 6
130 10 63 4 132 9 154 11 50 4 667 4 715 0 19 -2 89 -7 155 -11 66 -4 129 -9
140 -10 11 -2 56 -6 100 -10 44 -3 94 -8 110 -10 17 -2 53 -7 80 -10 28 -3 66
-7 85 -10 19 -2 55 -7 80 -9 25 -3 140 -17 255 -30 116 -14 246 -28 290 -32
44 -3 91 -8 105 -10 67 -11 430 -16 430 -7 0 32 -213 369 -414 655 -45 65 -44
64 -141 73 -38 3 -83 8 -100 10 -34 4 -116 13 -190 20 -27 3 -68 7 -90 10 -22
2 -71 7 -110 10 -38 3 -83 7 -100 10 -37 4 -213 17 -280 20 -27 1 -131 6 -230
11 -325 16 -927 10 -1254 -12 l-94 -7 7 74 c4 40 8 75 10 76 7 7 445 18 716
18 277 0 637 -9 740 -19 19 -2 91 -7 159 -11 69 -4 132 -8 140 -10 9 -1 66 -6
126 -10 61 -4 112 -8 115 -10 3 -2 48 -6 100 -10 52 -4 103 -9 113 -11 10 -2
61 -6 114 -10 81 -6 95 -5 88 7 -5 8 -36 52 -70 99 -64 88 -159 227 -286 415
-217 320 -431 672 -605 992 -20 37 -41 73 -45 79 -6 7 -123 9 -374 6 l-365 -4
0 66 0 66 288 1 c335 1 358 2 367 10 3 4 -45 109 -107 235 -135 272 -167 341
-317 679 -39 88 -75 163 -79 167 -4 4 -23 -27 -41 -70z"/>
</g>
</svg>
