<?xml version="1.0" standalone="no"?>
<!DOCTYPE svg PUBLIC "-//W3C//DTD SVG 20010904//EN"
 "http://www.w3.org/TR/2001/REC-SVG-20010904/DTD/svg10.dtd">
<svg version="1.0" xmlns="http://www.w3.org/2000/svg"
 width="558.000000pt" height="558.000000pt" viewBox="0 0 558.000000 558.000000"
 preserveAspectRatio="xMidYMid meet">
<metadata>
Created by potrace 1.13, written by Peter Selinger 2001-2015
</metadata>
<g transform="translate(0.000000,558.000000) scale(0.100000,-0.100000)"
fill="#000000" stroke="none">
<path d="M2900 4886 c-38 -94 -155 -300 -272 -478 -111 -171 -135 -206 -252
-370 -254 -354 -650 -977 -633 -994 3 -3 14 -1 26 5 34 19 244 69 322 78 114
12 323 7 433 -11 133 -22 284 -61 566 -146 129 -39 282 -83 340 -96 156 -37
142 -30 136 -77 -4 -23 -9 -66 -13 -94 -4 -40 -10 -53 -22 -53 -26 0 -294 77
-471 136 -144 48 -387 119 -443 130 -10 2 -26 5 -35 8 -76 23 -212 35 -372 31
-191 -3 -220 -7 -355 -46 -55 -16 -107 -31 -115 -33 -23 -6 -103 -40 -121 -51
-14 -9 -112 -180 -245 -430 -32 -60 -75 -141 -96 -180 -95 -175 -370 -734
-426 -865 -110 -260 -252 -646 -252 -686 0 -19 38 -11 200 42 96 32 232 92
470 208 552 270 696 313 1025 310 211 -3 366 -35 795 -164 327 -99 535 -147
715 -165 33 -3 76 -8 95 -11 45 -7 442 -7 500 0 25 3 81 8 125 11 44 3 98 8
120 10 22 3 85 9 139 15 55 6 102 12 104 14 2 3 -32 53 -76 113 -128 176 -322
472 -322 493 0 16 -30 19 -132 13 -179 -11 -479 -5 -563 11 -11 2 -42 7 -70
10 -199 27 -331 58 -672 161 -414 125 -537 149 -783 149 -130 1 -198 -4 -264
-17 -72 -15 -206 -52 -261 -73 -8 -3 -9 19 -4 76 4 45 9 83 11 85 6 6 140 45
205 60 138 32 392 40 528 16 39 -7 81 -14 95 -16 90 -16 217 -51 490 -135 561
-173 758 -203 1258 -191 34 0 62 5 62 10 0 4 -49 109 -109 232 -177 363 -383
841 -576 1332 -53 133 -99 251 -104 263 -7 16 -27 24 -92 38 -87 19 -235 61
-509 144 -91 27 -184 55 -207 61 -35 10 -41 15 -38 34 2 12 6 44 10 70 6 48 7
48 38 41 18 -3 104 -29 192 -56 418 -129 500 -152 521 -144 13 5 13 5 -99 291
-94 240 -231 529 -335 705 -84 143 -141 230 -151 230 -5 0 -19 -24 -31 -54z"/>
</g>
</svg>
