<?xml version="1.0" standalone="no"?>
<!DOCTYPE svg PUBLIC "-//W3C//DTD SVG 20010904//EN"
 "http://www.w3.org/TR/2001/REC-SVG-20010904/DTD/svg10.dtd">
<svg version="1.0" xmlns="http://www.w3.org/2000/svg"
 width="512.000000pt" height="512.000000pt" viewBox="0 0 512.000000 512.000000"
 preserveAspectRatio="xMidYMid meet">
<metadata>
Created by potrace 1.13, written by Peter Selinger 2001-2015
</metadata>
<g transform="translate(0.000000,512.000000) scale(0.100000,-0.100000)"
fill="#000000" stroke="none">
<path d="M3515 4353 c-88 -98 -107 -104 -115 -34 -4 40 -7 43 -20 29 -8 -9
-22 -26 -30 -38 -21 -32 -63 -70 -76 -70 -15 0 -24 23 -24 58 l0 27 -25 -29
c-14 -16 -25 -32 -25 -36 0 -4 -11 -19 -24 -34 -33 -39 -60 -32 -66 19 l-5 40
-14 -32 c-7 -18 -17 -33 -21 -33 -4 0 -15 -18 -25 -40 -28 -61 -64 -51 -66 18
0 21 -8 11 -36 -46 -30 -60 -40 -72 -57 -70 -15 2 -22 12 -26 37 l-5 34 -17
-37 c-10 -20 -18 -44 -18 -54 -1 -26 -26 -54 -47 -50 -11 2 -20 15 -24 33 -6
33 -6 33 -35 -60 -23 -70 -50 -86 -61 -35 l-6 32 -12 -29 c-7 -17 -16 -49 -20
-72 -6 -36 -10 -42 -28 -39 -15 2 -24 12 -28 33 -5 28 -6 27 -13 -15 -11 -68
-16 -80 -32 -80 -17 0 -23 14 -39 89 -11 51 -13 53 -20 29 -4 -17 -14 -28 -25
-28 -18 0 -25 14 -53 105 -9 28 -16 40 -16 28 -2 -57 -41 -74 -59 -25 -5 15
-18 50 -28 77 l-19 50 -5 -40 c-4 -32 -9 -40 -25 -40 -15 0 -29 18 -55 70 -34
68 -35 69 -38 37 -7 -68 -50 -50 -88 35 -27 61 -44 68 -44 18 0 -31 -3 -35
-25 -35 -19 0 -30 10 -46 41 -11 23 -29 51 -40 62 -19 21 -19 21 -19 -16 0
-72 -39 -56 -114 47 -26 36 -36 33 -36 -14 0 -34 -3 -40 -20 -40 -12 0 -33 13
-48 29 -15 17 -32 36 -39 43 -38 42 -43 41 -43 -7 0 -39 -3 -45 -21 -45 -11 0
-34 9 -51 21 -38 27 -46 18 -24 -27 9 -20 19 -56 23 -80 5 -40 4 -44 -16 -44
-12 0 -33 7 -46 16 -33 21 -33 6 0 -64 43 -92 31 -121 -36 -87 l-30 16 31 -60
c47 -95 35 -139 -28 -95 -19 13 -22 13 -22 0 0 -8 4 -16 8 -18 13 -5 62 -99
62 -119 0 -21 -21 -25 -51 -9 -10 6 -19 8 -19 5 0 -9 22 -49 29 -55 15 -12 41
-61 41 -76 0 -13 -7 -16 -35 -11 -19 3 -35 2 -35 -3 0 -10 28 -40 38 -40 10 0
42 -59 42 -77 0 -11 -8 -14 -35 -11 -38 4 -48 -7 -15 -17 11 -3 20 -11 20 -16
0 -5 13 -21 30 -36 16 -14 30 -35 30 -46 0 -17 -5 -19 -36 -14 -40 7 -42 10
35 -53 17 -14 31 -33 31 -43 0 -16 -6 -19 -39 -15 -36 3 -39 2 -25 -13 40 -45
-1 -62 -81 -34 -53 19 -61 19 -42 -3 18 -20 23 -52 8 -52 -11 0 -110 19 -136
26 -18 5 -18 3 3 -15 27 -24 25 -56 -3 -55 -11 0 -47 3 -80 7 l-60 7 28 -23
c54 -45 27 -61 -85 -53 -40 3 -66 3 -58 0 27 -12 50 -37 50 -55 0 -14 -14 -19
-82 -26 -79 -9 -82 -10 -55 -23 26 -13 36 -43 18 -54 -5 -3 -41 -9 -80 -12
-39 -4 -71 -10 -71 -13 0 -4 14 -15 31 -25 50 -30 35 -49 -56 -68 -44 -9 -82
-17 -85 -18 -3 0 12 -10 33 -21 51 -27 46 -50 -13 -67 -115 -33 -121 -35 -108
-43 7 -5 32 -11 55 -15 23 -3 47 -12 54 -20 16 -19 2 -51 -26 -58 -44 -11 -27
-24 53 -38 67 -12 77 -17 80 -36 3 -18 -5 -26 -35 -39 l-38 -17 65 -9 c102
-13 110 -16 110 -36 0 -18 -24 -44 -50 -54 -8 -3 17 -6 55 -6 121 -2 142 -18
83 -65 l-32 -25 85 2 c77 2 84 0 87 -18 2 -13 -7 -26 -25 -38 -28 -17 -27 -17
60 -11 80 6 87 5 87 -11 0 -10 -8 -27 -18 -38 -16 -20 -16 -20 8 -13 14 4 49
9 78 13 56 6 62 0 41 -39 -10 -19 -9 -20 17 -13 100 25 135 15 97 -27 -21 -23
-6 -23 48 2 24 11 52 20 62 20 27 0 20 -33 -14 -60 -77 -63 -75 -60 -35 -53
31 5 36 3 36 -13 0 -19 -40 -67 -79 -94 -30 -21 -26 -27 14 -22 49 6 47 -21
-5 -77 -43 -46 -52 -68 -21 -51 56 30 70 -15 21 -71 -65 -75 -68 -82 -35 -69
37 14 65 12 65 -4 0 -15 -38 -86 -51 -96 -3 -3 -11 -15 -18 -28 -12 -23 -12
-23 18 -8 68 35 78 10 31 -75 -38 -69 -39 -87 -5 -65 13 9 31 16 40 16 19 0
20 -41 1 -78 -8 -15 -19 -44 -24 -65 l-11 -39 24 16 c13 9 34 16 46 16 20 0
21 -3 14 -46 -4 -26 -14 -62 -23 -80 -18 -39 -10 -55 16 -31 10 10 28 17 40
17 18 0 22 -6 22 -33 0 -17 -4 -48 -10 -66 -5 -19 -8 -37 -5 -39 3 -3 29 21
59 52 66 70 91 73 91 8 l0 -42 35 40 c19 22 44 52 56 67 30 38 54 26 54 -27 0
-46 11 -52 28 -15 7 14 16 31 22 38 6 7 19 24 31 40 11 15 29 27 40 27 16 0
19 -7 19 -41 0 -35 2 -38 14 -27 8 8 26 38 40 66 21 42 31 52 51 52 22 0 25
-4 25 -37 l1 -38 16 30 c9 16 22 35 29 43 8 7 14 22 14 31 0 24 25 45 44 38 8
-3 16 -18 18 -34 3 -27 5 -25 31 24 15 29 27 59 27 68 0 9 9 15 24 15 20 0 25
-6 28 -33 l4 -32 11 25 c6 14 17 46 24 72 11 40 17 48 36 48 16 0 23 -6 23
-20 0 -41 17 -18 31 43 11 50 18 62 34 62 14 0 21 -9 26 -30 5 -30 6 -30 18
13 18 64 42 54 60 -26 14 -60 31 -83 31 -41 0 15 5 20 22 17 18 -2 26 -16 42
-68 19 -62 20 -64 30 -37 16 43 39 33 69 -30 14 -32 28 -65 30 -73 2 -8 7 2
11 23 11 60 36 49 77 -34 34 -72 34 -72 39 -38 7 48 39 51 64 7 11 -18 23 -35
26 -38 4 -3 14 -18 23 -35 l16 -30 1 38 c0 55 24 59 66 12 19 -21 34 -44 34
-50 0 -6 9 -18 20 -28 20 -16 20 -16 20 23 0 36 3 40 25 40 15 0 29 -8 36 -22
13 -23 16 -29 54 -70 30 -34 37 -35 29 -4 -7 31 3 66 20 66 7 0 38 -25 69 -55
31 -30 59 -55 63 -55 3 0 4 19 1 41 -9 71 14 90 60 47 34 -31 38 -17 14 51
-36 105 -26 130 39 96 37 -19 38 -9 5 55 -44 87 -25 127 40 84 l25 -16 -21 48
c-12 27 -28 58 -35 69 -32 45 -4 72 47 45 10 -6 19 -9 19 -6 0 13 -27 63 -42
80 -23 25 -24 76 -2 76 8 0 24 -5 35 -10 25 -14 24 1 -1 30 -11 13 -20 26 -20
30 0 4 -9 17 -20 30 -11 13 -20 29 -20 37 0 17 61 18 79 0 34 -30 -3 20 -56
79 -44 48 -44 67 2 62 19 -2 35 -2 35 2 0 3 -20 23 -45 45 -55 48 -63 90 -16
83 21 -3 28 -1 24 9 -3 7 -8 13 -12 13 -15 0 -81 63 -81 78 0 15 32 14 100 -3
23 -6 24 -5 8 8 -24 19 -23 47 0 47 11 0 41 -7 68 -15 64 -19 71 -19 51 3 -10
10 -17 27 -17 37 0 15 6 17 38 11 20 -4 55 -9 77 -12 l40 -6 -24 20 c-16 13
-22 25 -18 37 6 15 17 16 85 10 73 -6 76 -6 55 10 -13 9 -23 25 -23 36 0 17 8
19 88 19 86 1 87 1 59 18 -18 11 -27 24 -25 37 3 18 12 20 81 23 81 3 94 11
51 30 -18 9 -24 19 -22 35 3 20 11 23 81 31 42 4 77 11 77 15 0 3 -14 14 -30
23 -29 16 -39 41 -22 52 5 3 39 10 77 16 87 14 94 19 55 38 -62 30 -46 65 36
78 24 3 51 12 61 19 16 12 13 14 -27 25 -54 14 -70 26 -70 52 0 12 11 23 30
29 17 6 30 14 30 19 0 4 -28 13 -62 19 -35 7 -71 15 -81 17 -29 9 -17 47 22
66 l33 16 -48 7 c-102 12 -129 20 -132 37 -2 10 9 23 28 35 l31 18 -28 6 c-15
4 -54 7 -85 8 -50 1 -58 4 -58 20 0 11 12 29 28 40 l27 20 -82 1 c-71 0 -83 2
-83 17 0 9 9 26 20 38 l20 21 -67 -8 c-38 -4 -74 -6 -80 -3 -20 7 -15 35 10
55 22 19 22 19 -18 10 -22 -5 -59 -10 -82 -10 -50 0 -57 19 -20 52 20 18 20
19 2 13 -126 -43 -176 -36 -128 17 21 23 10 23 -55 -2 -29 -11 -59 -20 -67
-20 -27 0 -16 34 22 67 l37 33 -32 -6 c-28 -6 -32 -4 -32 15 0 13 19 40 45 65
48 47 57 63 26 46 -57 -30 -68 8 -18 63 48 54 57 65 57 74 0 4 -5 2 -12 -5 -7
-7 -22 -12 -35 -12 -31 0 -31 37 1 71 23 25 46 62 46 74 0 3 -9 1 -19 -5 -30
-16 -51 -12 -51 9 0 18 36 90 51 101 3 3 12 16 19 30 l13 24 -26 -17 c-39 -25
-67 -22 -67 8 0 27 19 75 30 75 8 0 30 46 30 62 0 6 -8 4 -18 -5 -10 -10 -28
-17 -40 -17 -27 0 -30 36 -6 82 9 18 20 44 25 60 l8 28 -29 -15 c-65 -34 -75
-9 -39 96 24 68 20 82 -14 51 -13 -12 -32 -22 -42 -22 -16 0 -17 6 -12 60 4
34 12 70 18 81 19 35 5 36 -26 2z"/>
</g>
</svg>
