<?xml version="1.0" standalone="no"?>
<!DOCTYPE svg PUBLIC "-//W3C//DTD SVG 20010904//EN"
 "http://www.w3.org/TR/2001/REC-SVG-20010904/DTD/svg10.dtd">
<svg version="1.0" xmlns="http://www.w3.org/2000/svg"
 width="512.000000pt" height="512.000000pt" viewBox="0 0 512.000000 512.000000"
 preserveAspectRatio="xMidYMid meet">
<metadata>
Created by potrace 1.13, written by Peter Selinger 2001-2015
</metadata>
<g transform="translate(0.000000,512.000000) scale(0.100000,-0.100000)"
fill="#000000" stroke="none">
<path d="M3322 5001 c-12 -10 -25 -32 -28 -50 -5 -26 -11 -31 -34 -31 -34 0
-54 -22 -45 -50 4 -11 4 -34 0 -50 -7 -30 -8 -30 -54 -24 -42 5 -49 4 -53 -13
-3 -11 0 -33 7 -49 6 -16 10 -36 7 -44 -6 -17 -99 -110 -126 -125 -16 -9 -16
-12 -2 -40 15 -29 15 -30 -12 -39 -48 -15 -64 -36 -57 -74 9 -48 -7 -62 -70
-62 -55 0 -72 -13 -54 -41 5 -8 9 -28 9 -46 0 -25 -7 -35 -34 -51 -20 -12 -36
-31 -40 -48 -4 -16 -13 -36 -20 -44 -18 -21 -26 -59 -15 -66 6 -4 6 -10 1 -17
-5 -7 -13 -23 -17 -37 -4 -14 -17 -38 -28 -54 -12 -17 -22 -46 -23 -66 -1 -19
-4 -46 -8 -58 -5 -13 -1 -34 8 -54 26 -50 21 -65 -17 -60 -23 3 -38 -2 -47
-13 -13 -15 -11 -23 13 -66 36 -65 35 -89 -7 -116 -37 -24 -62 -16 -68 22 -2
17 2 20 27 18 49 -4 60 3 42 31 -9 12 -29 37 -46 54 -34 33 -38 51 -19 82 10
16 8 27 -10 65 -12 25 -22 52 -22 61 0 8 -23 37 -51 64 -28 27 -48 53 -45 58
3 5 22 13 41 16 20 4 35 13 35 21 0 7 -19 33 -42 57 -44 44 -59 65 -78 107 -6
12 -19 30 -31 40 -19 15 -27 35 -28 74 -1 9 -45 60 -100 112 -86 83 -105 108
-144 188 -25 50 -49 104 -52 118 -10 41 -58 89 -78 77 -13 -7 -24 -1 -47 22
-17 18 -29 37 -27 43 5 15 37 10 59 -10 23 -20 48 -10 48 20 0 28 -52 70 -86
70 -24 0 -86 50 -96 77 -11 31 -18 0 -22 -91 -4 -86 -6 -94 -25 -97 -27 -4
-28 -39 -2 -90 13 -27 16 -43 10 -61 -8 -21 -14 -23 -49 -18 -22 3 -43 1 -46
-5 -3 -5 12 -26 35 -47 23 -21 41 -47 41 -58 0 -45 -13 -80 -41 -112 -17 -20
-29 -45 -29 -62 0 -18 -9 -35 -25 -47 -30 -24 -25 -42 15 -66 35 -20 39 -37 9
-31 -29 6 -59 -12 -59 -33 0 -10 21 -46 46 -81 l47 -62 -6 -67 c-3 -46 -1 -78
9 -101 8 -18 14 -47 14 -63 0 -16 5 -38 10 -49 13 -24 6 -24 -20 -2 -13 11
-33 16 -58 15 -37 -3 -92 26 -92 49 0 19 -62 77 -103 97 -97 47 -154 70 -187
76 -19 4 -48 12 -64 18 -23 9 -35 8 -63 -7 -30 -16 -39 -17 -66 -6 -68 27 -69
27 -65 -10 3 -30 0 -34 -20 -32 -12 2 -32 11 -43 22 -11 10 -42 22 -67 26 -79
11 -135 36 -190 88 -29 26 -58 47 -65 44 -8 -3 -11 -20 -9 -51 4 -56 -12 -60
-70 -20 -21 15 -41 25 -43 22 -3 -3 8 -22 25 -43 32 -40 33 -42 34 -94 1 -38
33 -68 81 -77 35 -6 48 -20 81 -89 35 -72 88 -139 187 -233 25 -24 49 -57 52
-72 4 -16 21 -48 39 -72 18 -24 36 -53 40 -66 4 -12 25 -34 47 -47 21 -14 51
-44 66 -68 14 -23 36 -57 47 -75 21 -33 37 -41 98 -48 18 -2 39 -5 46 -6 6 -1
12 -4 12 -8 0 -3 16 -14 36 -24 26 -12 34 -20 26 -28 -6 -6 -8 -18 -4 -26 9
-24 60 -72 77 -72 8 0 30 -10 50 -21 27 -16 47 -20 79 -17 27 3 49 0 61 -8 22
-16 21 -18 -30 -30 -22 -5 -39 -15 -38 -21 4 -21 -46 -3 -93 32 -71 54 -120
57 -108 6 3 -9 0 -23 -5 -31 -9 -12 -17 -8 -50 24 -23 22 -42 38 -44 35 -3 -2
-10 -14 -16 -26 -14 -28 -47 -29 -81 -3 -30 23 -56 25 -90 5 -35 -20 -57 -18
-117 9 -43 20 -54 22 -69 12 -9 -7 -14 -18 -10 -24 12 -19 -25 -44 -56 -38
-21 4 -34 0 -50 -16 -23 -23 -70 -27 -93 -8 -16 13 -49 -15 -41 -36 9 -24 -20
-33 -104 -30 -85 4 -85 4 -115 -29 -21 -23 -42 -34 -70 -38 -22 -3 -53 -8 -69
-11 -15 -2 -39 0 -51 6 -13 6 -35 8 -49 4 -21 -5 -26 -13 -26 -36 0 -26 -5
-31 -42 -40 -23 -7 -52 -10 -64 -7 -13 2 -21 0 -18 -4 3 -5 -2 -9 -10 -9 -50
0 18 -89 97 -127 84 -41 90 -43 111 -27 22 16 40 8 101 -42 22 -18 43 -33 48
-33 4 -1 8 -1 10 -2 1 0 16 -2 34 -3 49 -5 143 -84 143 -121 0 -25 100 -105
130 -105 16 0 31 4 34 9 11 17 89 20 125 5 20 -8 47 -12 63 -9 21 5 36 0 59
-19 43 -37 63 -35 57 7 -3 17 -3 38 -1 45 7 17 44 15 73 -5 66 -46 80 -79 21
-49 -16 9 -32 16 -34 16 -3 0 -8 -17 -12 -37 -8 -44 -49 -138 -64 -148 -6 -3
-33 -9 -62 -12 -50 -6 -84 -26 -74 -44 4 -5 2 -9 -3 -9 -5 0 -21 -11 -36 -25
-19 -17 -26 -34 -26 -61 0 -28 -7 -42 -27 -60 -16 -13 -31 -24 -34 -24 -10 0
-39 -70 -39 -93 0 -12 4 -28 9 -36 17 -27 -46 -151 -77 -151 -7 0 -11 -4 -8
-9 11 -18 -19 -69 -48 -82 -25 -11 -31 -20 -32 -47 -1 -19 -11 -43 -24 -57
-22 -24 -23 -34 -3 -99 4 -15 2 -18 -11 -13 -9 4 -22 10 -30 13 -18 7 -47 -23
-40 -41 4 -8 14 -15 23 -15 9 0 21 -4 27 -9 5 -4 21 -11 36 -15 38 -9 61 24
46 66 -16 44 4 59 39 30 65 -52 76 -52 152 3 19 14 48 25 66 25 19 0 39 8 50
20 13 14 29 20 51 18 18 -1 49 7 68 17 35 19 37 19 71 1 42 -23 54 -16 31 19
-10 15 -15 33 -12 41 6 16 53 19 89 5 14 -5 34 -7 46 -4 17 4 21 13 21 44 0
45 17 51 57 19 33 -26 51 -25 112 6 43 21 51 30 51 53 0 38 17 51 71 51 48 0
64 9 137 74 21 20 32 38 32 57 0 46 26 62 95 59 3 0 18 6 34 14 37 20 60 56
59 95 -1 35 32 78 51 67 6 -4 9 -12 5 -17 -13 -21 -13 -56 0 -94 15 -43 7 -65
-22 -65 -8 0 -23 -7 -33 -16 -14 -13 -15 -22 -7 -51 12 -43 -5 -83 -34 -83
-26 0 -34 -27 -13 -50 22 -24 13 -50 -17 -50 -28 0 -53 -15 -54 -32 0 -7 6
-25 13 -40 7 -15 13 -43 13 -63 0 -28 -5 -38 -24 -47 -30 -13 -60 -81 -50
-112 4 -11 9 -43 10 -71 2 -27 5 -72 6 -100 2 -27 12 -72 22 -98 22 -55 13
-77 -24 -57 -30 16 -34 8 -14 -33 16 -34 16 -38 0 -75 -13 -30 -15 -44 -7 -66
6 -15 11 -69 11 -120 0 -61 5 -106 15 -130 16 -38 15 -39 -27 -36 -33 2 -36
-15 -12 -62 11 -22 14 -43 9 -78 -4 -31 -2 -56 5 -71 12 -22 13 -22 26 10 8
20 26 37 46 45 47 20 128 108 128 140 0 20 9 30 42 47 49 25 58 35 58 67 0 12
8 25 18 29 27 10 62 45 62 63 0 12 11 19 38 23 43 7 158 88 167 118 4 11 17
25 30 31 13 6 26 18 29 27 21 66 47 136 54 145 4 6 8 25 8 41 -1 18 8 40 22
55 12 14 23 36 23 50 1 14 2 30 4 35 1 6 3 16 3 23 1 9 9 11 22 7 50 -16 76
20 45 61 -8 10 -15 22 -15 26 0 16 27 -5 50 -38 20 -30 24 -50 26 -114 1 -51
7 -85 17 -101 9 -13 19 -43 23 -67 4 -24 17 -57 30 -75 14 -18 34 -53 46 -79
12 -27 29 -50 38 -53 10 -3 43 -26 75 -50 56 -44 70 -49 109 -45 11 1 44 -25
87 -72 38 -40 69 -74 69 -76 0 -2 -7 -16 -15 -32 -14 -28 -14 -30 12 -55 16
-14 43 -30 62 -35 35 -10 101 -65 101 -85 0 -12 41 -55 53 -55 4 0 4 14 0 30
-3 19 -1 30 6 30 6 0 9 10 7 23 -2 12 2 29 9 37 7 8 15 50 19 94 6 76 5 79
-24 116 -37 46 -37 57 -5 90 l26 27 -21 26 c-11 14 -25 45 -30 69 -5 24 -12
55 -16 71 -5 23 -3 27 14 27 26 0 46 25 39 50 -3 11 0 35 5 54 9 29 7 39 -16
78 -32 56 -33 69 0 97 l26 23 -20 21 c-11 12 -27 45 -35 74 -9 28 -22 62 -31
75 -15 23 -16 51 -3 64 14 15 6 57 -15 75 -16 15 -17 19 -6 19 33 0 29 33 -7
70 -19 20 -35 42 -35 50 0 7 -14 38 -31 68 -22 39 -29 62 -24 80 5 20 -2 33
-37 70 -32 32 -37 43 -22 38 46 -14 135 -69 166 -103 83 -90 118 -122 148
-128 17 -4 53 -26 80 -50 27 -24 65 -51 85 -61 20 -9 44 -28 53 -42 31 -45 63
-75 72 -66 5 5 10 20 12 34 5 41 39 37 82 -10 23 -25 63 -53 103 -71 74 -33
88 -35 97 -14 8 23 35 18 59 -11 79 -96 119 -116 138 -67 7 20 13 23 21 15 7
-7 19 -12 28 -12 9 0 26 -11 39 -24 12 -12 50 -31 84 -41 34 -11 76 -29 92
-40 65 -48 98 -39 85 20 -8 37 3 56 23 36 27 -27 25 -7 -2 26 -22 26 -31 48
-31 73 0 27 -11 48 -49 95 -28 33 -68 75 -90 93 -44 35 -53 69 -26 92 21 17
19 27 -10 62 -13 16 -29 48 -36 71 -6 23 -22 54 -35 68 -19 20 -23 33 -18 52
5 21 1 31 -21 49 -77 64 -118 105 -130 129 -8 14 -30 34 -49 43 -20 9 -57 35
-82 57 -25 22 -59 43 -75 46 -16 3 -29 10 -29 15 0 20 34 20 70 -1 53 -30 64
-28 58 12 -11 68 20 75 98 22 l51 -35 66 30 c52 23 72 28 90 21 19 -7 29 -5
43 8 34 31 57 40 81 30 19 -7 30 -2 59 23 20 18 40 42 45 54 9 25 80 64 116
64 18 0 27 9 39 40 9 22 21 40 26 40 6 0 32 -8 59 -17 46 -17 49 -16 68 1 15
14 19 26 14 44 -4 18 -2 23 8 20 8 -3 27 1 42 9 16 8 43 14 60 13 55 -3 67 0
67 15 0 8 -4 15 -9 15 -12 0 -22 43 -11 50 9 6 -104 110 -120 110 -4 0 -18 -9
-32 -19 -23 -19 -24 -19 -48 0 -14 10 -35 19 -47 19 -26 0 -66 17 -110 46 -20
13 -43 20 -62 18 -40 -5 -102 18 -157 57 -42 31 -45 32 -58 14 -16 -23 -62
-16 -105 16 -21 15 -37 20 -55 15 -28 -7 -58 5 -93 37 -23 21 -41 20 -100 -4
-30 -12 -38 -11 -98 19 -92 45 -95 44 -107 -32 -3 -17 -6 -17 -35 8 l-31 26
-30 -25 c-36 -30 -42 -31 -93 -5 l-39 21 -34 -26 c-42 -32 -85 -32 -114 -2
-29 30 -28 34 6 30 44 -7 80 13 96 51 14 34 50 54 84 48 12 -3 66 23 88 43 6
6 21 17 33 25 11 8 21 20 21 27 0 6 8 14 18 17 10 3 42 22 72 41 29 19 55 33
57 31 7 -6 98 88 95 97 -5 18 41 57 79 67 36 10 38 12 33 47 -3 27 2 45 18 70
13 18 26 33 31 33 4 0 7 6 7 13 0 7 14 26 31 43 17 16 43 50 57 76 19 33 33
48 47 48 16 0 29 17 53 71 28 59 36 69 52 64 15 -5 22 0 29 17 5 13 20 35 34
50 14 15 30 42 36 61 6 18 29 50 51 71 l41 38 -21 32 c-12 17 -26 41 -32 54
-12 24 -34 29 -41 10 -2 -7 0 -28 5 -47 14 -50 -1 -59 -61 -37 -43 15 -55 16
-86 5 -19 -7 -35 -17 -35 -21 0 -4 -10 -8 -23 -8 -13 0 -27 -4 -33 -10 -17
-17 -142 -30 -175 -18 -22 8 -38 7 -55 -1 -34 -15 -54 -14 -74 4 -10 9 -31 20
-48 24 -30 9 -30 9 -28 -29 3 -37 2 -38 -21 -29 -49 19 -147 4 -178 -27 -8 -9
-15 -26 -15 -39 0 -31 -12 -38 -44 -25 -35 13 -64 -1 -100 -50 -31 -42 -76
-66 -102 -56 -9 4 -27 -1 -40 -9 -23 -15 -24 -15 -24 11 0 15 5 44 11 64 10
32 9 42 -5 61 -23 33 -20 44 11 47 46 4 59 31 44 89 -11 41 6 58 49 48 36 -8
40 9 10 48 -23 29 -24 39 -8 83 17 47 -11 104 -85 176 -50 49 -56 59 -41 64
38 11 49 22 52 48 2 14 -1 26 -6 26 -19 0 -31 52 -37 157 -5 68 -3 118 4 135
9 24 6 33 -29 80 -42 55 -50 85 -25 94 16 7 21 24 7 24 -5 0 -19 -8 -30 -19z"/>
</g>
</svg>
