<?xml version="1.0" standalone="no"?>
<!DOCTYPE svg PUBLIC "-//W3C//DTD SVG 20010904//EN"
 "http://www.w3.org/TR/2001/REC-SVG-20010904/DTD/svg10.dtd">
<svg version="1.0" xmlns="http://www.w3.org/2000/svg"
 width="558.000000pt" height="558.000000pt" viewBox="0 0 558.000000 558.000000"
 preserveAspectRatio="xMidYMid meet">
<metadata>
Created by potrace 1.13, written by Peter Selinger 2001-2015
</metadata>
<g transform="translate(0.000000,558.000000) scale(0.100000,-0.100000)"
fill="#000000" stroke="none">
<path d="M825 4730 c20 -68 18 -92 -9 -116 -14 -14 -26 -29 -26 -34 0 -6 18
-23 40 -38 21 -15 41 -33 44 -39 7 -16 -4 -44 -14 -38 -12 8 -44 -21 -36 -34
4 -6 12 -8 18 -5 7 4 8 2 4 -4 -4 -7 7 -20 28 -33 20 -12 36 -25 36 -30 0 -5
0 -12 0 -16 0 -5 -17 -8 -38 -8 -34 0 -37 -2 -35 -27 1 -15 24 -57 53 -94 l51
-67 -25 -26 c-33 -34 -33 -58 0 -102 20 -27 25 -42 21 -73 -4 -27 0 -47 14
-70 24 -40 24 -49 -5 -83 l-24 -29 35 -56 c42 -68 48 -118 16 -133 -30 -13
-29 -20 8 -53 18 -16 33 -40 34 -56 2 -15 1 -25 -2 -22 -9 9 -43 -13 -43 -28
0 -7 9 -25 20 -39 26 -33 26 -37 -15 -79 l-34 -37 15 -53 c15 -49 15 -53 -1
-63 -59 -35 -67 -47 -62 -89 7 -50 1 -60 -38 -65 -16 -1 -32 -5 -34 -7 -3 -3
-6 -40 -8 -83 -2 -77 -2 -80 37 -140 22 -33 44 -61 48 -61 14 0 62 -51 62 -66
0 -8 -11 -14 -25 -14 -43 0 -31 -36 25 -76 28 -20 55 -46 62 -57 9 -18 7 -24
-17 -43 l-28 -22 22 -35 21 -35 -35 -42 c-35 -41 -35 -42 -19 -78 39 -89 36
-132 -7 -132 -30 0 -34 -26 -9 -60 22 -31 22 -80 0 -80 -15 0 -12 -37 5 -71
20 -37 6 -67 -36 -76 -36 -7 -36 -15 1 -67 19 -25 29 -52 28 -68 -1 -15 -4
-25 -7 -22 -2 2 -15 -6 -28 -18 -26 -25 -30 -65 -8 -94 21 -28 18 -47 -10 -74
-23 -21 -23 -24 -10 -51 20 -39 19 -49 -7 -49 -54 -1 -58 -20 -22 -112 24 -62
13 -96 -39 -121 -33 -15 -37 -21 -30 -40 4 -12 6 -33 5 -47 -10 -115 -9 -122
27 -142 39 -22 68 -10 51 22 -21 39 -13 47 48 48 31 1 68 2 82 3 14 2 39 0 57
-3 29 -6 44 5 42 28 -1 15 29 23 68 17 33 -4 50 -1 79 16 46 27 79 29 122 7
50 -26 67 -18 67 29 0 34 4 41 22 43 12 2 39 -8 60 -22 21 -14 44 -26 51 -26
21 0 73 40 67 51 -4 5 -1 9 5 9 6 0 9 4 5 9 -7 12 59 26 80 17 9 -3 45 -10 80
-16 57 -9 69 -8 101 9 l37 20 47 -26 c56 -31 85 -27 70 11 -12 32 -4 37 70 41
39 3 72 -1 96 -11 20 -8 42 -13 48 -11 7 3 31 -13 55 -34 47 -43 53 -46 71
-24 20 24 52 17 99 -20 27 -22 55 -35 73 -35 16 0 45 -7 65 -15 46 -20 66 -19
111 3 38 19 51 18 112 -10 42 -20 53 -12 54 39 1 37 2 38 36 36 19 0 47 -4 63
-8 24 -7 28 -4 38 24 6 17 17 31 25 31 8 0 23 9 35 21 26 26 47 27 95 7 74
-31 147 -42 188 -28 31 10 40 9 59 -4 12 -9 32 -24 45 -33 15 -10 45 -16 83
-17 60 -1 61 -1 57 26 -3 20 0 29 13 33 19 6 132 -48 188 -89 42 -31 61 -33
61 -6 0 30 1 34 12 47 15 19 20 17 76 -27 38 -31 59 -40 88 -40 22 0 57 -7 79
-14 36 -13 56 -13 110 -2 11 2 44 -9 72 -25 34 -19 67 -29 93 -29 26 0 55 -9
80 -25 48 -30 74 -33 68 -7 -3 11 1 30 8 43 21 38 17 53 -32 113 -42 51 -45
59 -39 94 5 29 1 47 -13 73 -11 19 -23 48 -26 64 -4 17 -18 43 -32 58 -24 26
-27 57 -5 57 22 0 21 41 -4 89 -14 28 -25 63 -25 78 0 15 -7 60 -15 98 -8 39
-12 84 -9 102 5 26 0 40 -30 79 -39 51 -42 61 -25 98 9 20 8 31 -9 63 -54 101
-73 158 -66 193 4 19 6 47 5 63 -2 24 1 27 29 27 42 0 47 21 19 76 l-24 44 21
38 c14 25 20 48 17 72 -4 28 3 48 27 87 17 28 35 66 40 84 4 19 14 48 21 66
12 30 11 35 -19 72 -41 50 -41 71 -3 71 45 0 53 19 30 69 -10 24 -19 56 -19
73 0 16 -5 38 -11 49 -5 11 -12 37 -13 57 -2 20 -10 52 -17 70 -11 26 -11 36
-1 52 10 16 7 25 -22 63 -44 58 -49 77 -27 105 17 23 17 27 -1 114 -11 49 -17
92 -15 94 2 3 15 7 27 9 30 6 31 8 41 52 4 21 11 50 14 64 5 20 0 38 -20 68
-35 52 -28 71 26 71 l41 0 -7 38 c-21 117 -1 208 48 225 6 2 10 24 9 50 -2 25
4 83 13 128 8 45 15 83 15 85 0 2 13 4 29 4 47 0 55 20 26 74 -41 78 -28 113
39 100 42 -7 44 -2 14 43 -31 45 -80 47 -102 4 -19 -37 -23 -38 -132 -35 l-91
3 -54 -55 c-29 -30 -60 -54 -69 -54 -8 0 -33 12 -55 25 -22 14 -50 25 -62 25
-21 0 -23 -5 -23 -50 0 -56 -8 -61 -54 -31 -16 11 -38 17 -50 15 -12 -2 -45
-8 -75 -14 -30 -5 -66 -18 -80 -27 -18 -12 -46 -17 -93 -17 -38 0 -68 -3 -68
-7 0 -14 -60 -31 -94 -26 -33 4 -35 3 -38 -27 -3 -26 -7 -31 -28 -29 -140 12
-232 54 -303 137 -65 76 -105 76 -77 0 22 -57 -38 -53 -95 6 -21 22 -34 28
-55 24 -14 -3 -42 1 -61 8 -36 16 -79 8 -110 -18 -25 -22 -62 -16 -105 16 -42
31 -84 39 -84 16 0 -8 5 -27 10 -42 9 -21 8 -31 -4 -42 -13 -14 -20 -13 -54 2
-47 21 -75 15 -90 -19 -9 -18 -19 -25 -40 -25 -16 0 -40 -8 -53 -18 -19 -14
-38 -17 -94 -14 -38 2 -97 5 -130 6 -38 2 -74 11 -99 24 -50 27 -62 19 -37
-23 l19 -34 -21 5 c-12 2 -40 17 -63 32 -25 18 -49 27 -65 25 -54 -8 -122 18
-176 68 -69 66 -102 66 -83 0 7 -26 5 -33 -10 -41 -14 -7 -27 -3 -59 20 -22
16 -60 33 -83 36 -24 4 -59 14 -78 23 -45 19 -80 21 -105 4 -29 -20 -38 -17
-99 32 -50 41 -59 45 -94 39 -28 -4 -47 -1 -63 10 -14 8 -44 22 -69 31 -24 9
-55 26 -69 38 l-24 22 8 -25z"/>
</g>
</svg>
