<?xml version="1.0" standalone="no"?>
<!DOCTYPE svg PUBLIC "-//W3C//DTD SVG 20010904//EN"
 "http://www.w3.org/TR/2001/REC-SVG-20010904/DTD/svg10.dtd">
<svg version="1.0" xmlns="http://www.w3.org/2000/svg"
 width="558.000000pt" height="558.000000pt" viewBox="0 0 558.000000 558.000000"
 preserveAspectRatio="xMidYMid meet">
<metadata>
Created by potrace 1.13, written by Peter Selinger 2001-2015
</metadata>
<g transform="translate(0.000000,558.000000) scale(0.100000,-0.100000)"
fill="#000000" stroke="none">
<path d="M2702 4609 c-59 -43 -80 -64 -73 -72 5 -7 352 -264 770 -572 418
-308 760 -562 760 -565 0 -8 -163 -115 -175 -114 -5 1 -109 77 -230 171 -817
632 -1269 976 -1279 976 -9 0 -1577 -1154 -1613 -1188 -11 -10 -5 -39 35 -164
26 -83 52 -151 58 -151 5 0 343 254 750 565 407 311 742 565 745 565 3 0 32
-41 64 -91 37 -56 56 -93 49 -97 -6 -4 -356 -266 -777 -582 -746 -560 -767
-576 -761 -604 4 -24 118 -390 145 -466 5 -14 36 -113 70 -220 34 -107 65
-206 70 -220 5 -14 36 -113 70 -220 34 -107 65 -206 70 -220 25 -71 130 -409
130 -418 0 -8 32 -12 105 -12 58 0 105 4 105 8 0 9 -10 40 -106 337 -36 110
-94 288 -129 395 -94 289 -184 568 -264 812 -39 120 -71 220 -71 222 0 3 43
27 96 54 74 39 97 47 101 35 3 -7 130 -429 282 -936 l276 -922 1007 -3 1007
-2 25 84 c14 46 26 87 26 90 0 3 -443 6 -984 6 -542 0 -987 3 -990 8 -2 4 -7
39 -11 77 -4 39 -9 73 -12 77 -2 5 460 9 1027 10 l1032 3 314 980 c172 539
314 983 314 986 0 7 -144 117 -163 124 -8 4 -27 -43 -59 -142 -25 -82 -67
-212 -92 -290 -48 -150 -106 -329 -180 -560 -24 -76 -68 -210 -96 -298 -28
-88 -87 -269 -130 -403 -43 -134 -80 -245 -82 -247 -8 -8 -208 28 -208 38 0 6
153 458 340 1006 187 548 340 1003 340 1011 -1 11 -1579 1186 -1609 1197 -3 2
-43 -25 -89 -58z"/>
</g>
</svg>
