<?xml version="1.0" standalone="no"?>
<!DOCTYPE svg PUBLIC "-//W3C//DTD SVG 20010904//EN"
 "http://www.w3.org/TR/2001/REC-SVG-20010904/DTD/svg10.dtd">
<svg version="1.0" xmlns="http://www.w3.org/2000/svg"
 width="558.000000pt" height="558.000000pt" viewBox="0 0 558.000000 558.000000"
 preserveAspectRatio="xMidYMid meet">
<metadata>
Created by potrace 1.13, written by Peter Selinger 2001-2015
</metadata>
<g transform="translate(0.000000,558.000000) scale(0.100000,-0.100000)"
fill="#000000" stroke="none">
<path d="M2447 4543 c-2 -5 -5 -309 -5 -678 0 -368 -1 -678 -1 -687 -1 -17
-40 -18 -681 -18 l-680 0 0 -140 0 -140 670 0 670 0 0 -75 0 -75 -670 0 -670
0 0 -255 0 -255 680 0 c537 0 680 -3 681 -12 0 -7 1 -319 2 -693 l2 -680 233
-3 232 -2 0 700 0 700 50 0 50 0 0 -700 0 -700 180 0 180 0 0 695 0 695 680 0
680 0 0 85 0 85 -685 0 -685 0 4 23 c3 12 5 46 5 75 l1 52 680 0 680 0 0 310
0 310 -680 0 -680 0 -2 693 -3 692 -317 3 -318 2 0 -695 0 -695 -50 0 -50 0 0
695 0 695 -89 0 c-50 0 -92 -3 -94 -7z"/>
</g>
</svg>
