<?xml version="1.0" standalone="no"?>
<!DOCTYPE svg PUBLIC "-//W3C//DTD SVG 20010904//EN"
 "http://www.w3.org/TR/2001/REC-SVG-20010904/DTD/svg10.dtd">
<svg version="1.0" xmlns="http://www.w3.org/2000/svg"
 width="512.000000pt" height="512.000000pt" viewBox="0 0 512.000000 512.000000"
 preserveAspectRatio="xMidYMid meet">
<metadata>
Created by potrace 1.13, written by Peter Selinger 2001-2015
</metadata>
<g transform="translate(0.000000,512.000000) scale(0.100000,-0.100000)"
fill="#000000" stroke="none">
<path d="M1741 4882 c-106 -345 -136 -693 -87 -997 9 -49 13 -91 11 -94 -3 -2
-65 24 -138 57 -189 88 -362 141 -571 177 -115 20 -416 39 -427 28 -9 -9 40
-115 79 -171 10 -15 21 -34 24 -42 3 -8 38 -59 77 -113 39 -54 71 -102 71
-107 0 -5 6 -13 13 -17 6 -4 46 -51 88 -103 159 -198 402 -415 588 -525 9 -5
30 -19 46 -30 17 -11 39 -25 50 -31 11 -6 22 -19 24 -29 3 -16 -3 -17 -57 -11
-106 12 -423 7 -542 -9 -259 -34 -554 -112 -735 -195 -36 -16 -68 -30 -70 -30
-11 0 -135 -62 -139 -69 -5 -7 184 -151 198 -151 3 0 34 -17 68 -38 76 -46
285 -140 388 -176 90 -31 256 -72 325 -81 71 -9 87 -15 83 -30 -2 -7 -37 -49
-78 -92 -41 -43 -94 -102 -117 -130 -98 -118 -226 -331 -300 -498 -38 -87
-105 -276 -100 -282 5 -4 219 40 302 62 89 24 246 74 282 90 17 8 34 15 37 15
16 0 284 130 361 175 22 13 54 31 70 41 17 9 46 30 66 45 20 16 41 29 46 29 5
0 67 47 138 105 70 58 134 105 142 105 15 0 17 -21 4 -36 -5 -5 -18 -36 -30
-69 -12 -33 -28 -74 -36 -91 -29 -63 -97 -321 -120 -459 -45 -262 -50 -592
-14 -848 l12 -86 99 76 c265 205 448 414 609 696 33 59 67 107 75 107 8 0 14
-5 14 -11 0 -17 105 -196 168 -285 138 -197 285 -349 490 -507 l99 -76 12 86
c36 256 31 586 -14 848 -23 138 -91 396 -120 459 -8 17 -24 58 -36 91 -12 33
-25 64 -30 69 -13 15 -11 36 4 36 8 0 72 -47 142 -105 71 -58 133 -105 138
-105 5 0 26 -13 46 -29 20 -15 50 -36 66 -45 17 -10 48 -28 70 -41 77 -45 345
-175 361 -175 3 0 20 -7 37 -15 36 -16 193 -66 282 -90 83 -22 297 -66 302
-62 5 6 -62 195 -100 282 -74 167 -202 380 -300 498 -23 28 -76 87 -117 130
-41 43 -76 85 -78 92 -4 15 12 21 83 30 67 8 231 50 324 81 103 35 312 130
389 176 34 21 65 38 68 38 14 0 203 144 198 151 -4 7 -128 69 -139 69 -2 0
-34 14 -70 30 -181 83 -476 161 -735 195 -119 16 -436 21 -542 9 -54 -6 -60
-5 -57 11 2 10 13 23 24 29 11 6 33 20 50 31 16 11 37 25 46 30 186 110 429
327 588 525 42 52 82 99 88 103 7 4 13 12 13 17 0 5 32 53 71 107 39 54 74
105 77 113 3 8 14 27 24 42 39 56 88 162 79 171 -11 11 -312 -8 -427 -28 -209
-36 -382 -89 -571 -177 -73 -33 -135 -59 -138 -57 -2 3 2 45 11 94 40 245 26
545 -37 815 -18 74 -68 248 -76 259 -3 5 -94 -89 -173 -179 -59 -67 -200 -254
-200 -266 0 -4 -15 -27 -33 -53 -18 -25 -38 -57 -45 -71 -7 -14 -24 -43 -37
-65 -45 -76 -135 -268 -155 -330 -7 -22 -16 -44 -20 -50 -11 -16 -56 -160 -81
-260 -12 -49 -24 -96 -26 -102 -8 -20 -33 -15 -33 5 0 42 -81 331 -100 357 -4
6 -13 28 -20 50 -20 62 -110 254 -155 330 -13 22 -30 51 -37 65 -7 14 -27 46
-45 71 -18 26 -33 50 -33 53 0 10 -159 223 -196 262 -16 17 -60 66 -99 108
-38 41 -72 76 -75 76 -3 0 -16 -35 -29 -78z"/>
</g>
</svg>
