<?xml version="1.0" standalone="no"?>
<!DOCTYPE svg PUBLIC "-//W3C//DTD SVG 20010904//EN"
 "http://www.w3.org/TR/2001/REC-SVG-20010904/DTD/svg10.dtd">
<svg version="1.0" xmlns="http://www.w3.org/2000/svg"
 width="558.000000pt" height="558.000000pt" viewBox="0 0 558.000000 558.000000"
 preserveAspectRatio="xMidYMid meet">
<metadata>
Created by potrace 1.13, written by Peter Selinger 2001-2015
</metadata>
<g transform="translate(0.000000,558.000000) scale(0.100000,-0.100000)"
fill="#000000" stroke="none">
<path d="M2663 4455 c-12 -12 -26 -24 -32 -26 -6 -2 -20 -28 -31 -58 -10 -29
-26 -61 -33 -70 -8 -9 -18 -29 -21 -46 -4 -16 -15 -39 -24 -49 -13 -15 -14
-18 -2 -12 8 4 -1 -6 -20 -23 -104 -90 -115 -114 -81 -173 19 -33 20 -39 6
-44 -8 -3 -21 -4 -28 -1 -29 11 -40 -8 -28 -46 10 -28 9 -41 0 -59 -7 -13 -12
-25 -11 -28 1 -3 -1 -13 -4 -23 -3 -10 -1 -23 4 -30 7 -8 2 -34 -15 -79 -19
-52 -31 -69 -53 -78 -33 -14 -40 -33 -40 -122 0 -89 -10 -111 -80 -178 -41
-39 -58 -63 -55 -76 2 -10 7 -33 10 -50 6 -25 1 -36 -26 -65 -51 -54 -62 -76
-55 -109 8 -41 0 -56 -42 -82 -48 -29 -61 -47 -62 -81 0 -16 -13 -45 -31 -67
-21 -26 -33 -54 -36 -84 -3 -25 -9 -46 -14 -46 -4 0 -24 -15 -43 -33 -35 -34
-38 -45 -21 -96 11 -36 -31 -68 -92 -70 -13 -1 -29 -11 -37 -24 -14 -20 -13
-28 2 -70 l17 -48 -35 -30 c-19 -16 -43 -36 -52 -44 -10 -8 -21 -27 -24 -42
-4 -16 -19 -46 -33 -67 -67 -102 -98 -155 -115 -199 -10 -27 -33 -62 -51 -79
-18 -16 -39 -44 -46 -61 -26 -68 -42 -97 -49 -92 -4 3 -15 -11 -24 -30 -10
-20 -33 -51 -52 -71 -33 -32 -35 -39 -32 -87 l3 -52 -42 -1 c-79 -2 -84 -12
-52 -90 7 -17 9 -38 6 -48 -6 -15 -9 -15 -47 0 -49 20 -56 14 -65 -46 -4 -25
-13 -52 -21 -61 -8 -9 -11 -19 -7 -24 5 -4 3 -6 -3 -2 -5 3 -32 -21 -60 -53
-27 -32 -55 -57 -62 -55 -6 3 -12 1 -12 -3 0 -4 25 -20 55 -35 67 -35 95 -26
95 28 0 41 6 43 48 11 26 -19 51 -25 123 -31 86 -6 92 -5 115 16 l24 23 71
-37 c83 -44 109 -39 109 18 0 42 10 43 55 9 30 -23 46 -27 129 -30 88 -4 96
-3 110 17 l15 22 76 -37 c84 -41 105 -38 105 15 0 40 16 44 59 15 51 -35 131
-37 146 -4 16 37 53 49 122 43 55 -5 63 -4 76 15 8 12 13 29 10 39 -2 9 5 28
15 42 20 24 20 24 65 7 39 -14 48 -14 71 -3 15 8 48 17 73 20 34 4 56 13 79
36 36 35 68 36 139 5 49 -22 69 -12 73 36 4 48 28 53 77 16 25 -18 50 -28 70
-27 16 1 51 -2 78 -6 38 -6 51 -4 67 10 25 22 63 10 125 -41 37 -30 48 -34 60
-24 8 7 15 18 14 24 -7 58 24 61 75 6 21 -23 46 -40 58 -40 12 0 42 -10 66
-22 39 -18 49 -19 78 -9 40 14 54 9 124 -54 28 -25 55 -45 59 -45 12 0 21 26
21 56 0 31 20 31 51 -2 26 -28 97 -78 114 -79 6 0 29 -7 53 -14 34 -11 47 -12
65 -2 15 8 31 9 47 3 18 -7 31 -5 47 5 19 13 27 12 69 -6 53 -24 58 -25 49
-11 -4 6 5 5 19 -2 14 -6 26 -18 26 -26 0 -12 4 -12 20 3 13 12 18 25 14 41
-8 30 19 43 44 22 31 -27 48 -32 27 -9 -11 13 -19 32 -17 42 2 11 -6 34 -17
52 -11 17 -29 57 -40 87 -13 34 -37 71 -61 95 -50 48 -53 75 -9 75 25 0 30 3
25 16 -4 9 -1 23 5 30 9 11 9 13 -2 9 -21 -8 -76 49 -90 93 -7 20 -25 62 -40
92 -15 30 -27 69 -27 87 1 35 -36 105 -92 173 -48 58 -130 210 -130 241 0 14
-11 44 -24 69 -17 33 -22 54 -18 83 5 36 2 42 -50 90 -46 44 -53 55 -44 70 16
24 -1 46 -63 82 -49 28 -51 31 -51 71 0 35 -7 51 -40 89 -22 25 -44 64 -51 88
-6 23 -27 62 -47 85 -50 59 -82 105 -82 115 0 5 11 7 25 5 21 -4 25 -1 25 18
0 13 -8 25 -19 29 -37 11 -109 95 -126 145 -9 26 -23 54 -30 60 -10 9 -13 24
-9 49 5 34 2 40 -65 106 -39 38 -71 75 -71 82 0 6 -18 32 -40 57 -21 26 -43
62 -49 80 -5 19 -25 55 -44 80 -29 39 -34 52 -30 84 4 31 -3 51 -41 116 -25
44 -55 90 -66 103 -11 13 -20 34 -20 47 0 27 -35 76 -55 76 -7 0 -18 13 -25
30 -7 16 -29 53 -51 81 -21 28 -45 76 -54 105 -15 54 -57 114 -78 113 -7 0
-22 -11 -34 -24z"/>
</g>
</svg>
