<?xml version="1.0" standalone="no"?>
<!DOCTYPE svg PUBLIC "-//W3C//DTD SVG 20010904//EN"
 "http://www.w3.org/TR/2001/REC-SVG-20010904/DTD/svg10.dtd">
<svg version="1.0" xmlns="http://www.w3.org/2000/svg"
 width="558.000000pt" height="558.000000pt" viewBox="0 0 558.000000 558.000000"
 preserveAspectRatio="xMidYMid meet">
<metadata>
Created by potrace 1.13, written by Peter Selinger 2001-2015
</metadata>
<g transform="translate(0.000000,558.000000) scale(0.100000,-0.100000)"
fill="#000000" stroke="none">
<path d="M2632 4573 c-6 -3 -10 -8 -8 -12 3 -4 7 -18 10 -32 3 -13 10 -42 16
-64 11 -42 45 -192 54 -235 3 -14 7 -36 10 -50 3 -13 8 -40 11 -60 3 -20 8
-47 10 -60 13 -67 20 -168 20 -300 0 -179 -8 -246 -41 -359 -9 -31 -18 -63
-19 -71 -2 -8 -4 -17 -5 -20 -1 -3 -2 -9 -1 -14 2 -10 4 -11 -149 43 -119 42
-263 76 -379 89 -129 14 -520 7 -616 -12 -11 -2 -42 -7 -70 -10 -92 -12 -330
-57 -337 -64 -4 -4 -10 -30 -13 -57 -3 -28 -10 -81 -14 -120 -5 -38 -6 -73 -2
-77 3 -3 53 4 111 17 90 21 189 39 385 70 22 4 139 8 260 10 182 3 239 0 330
-15 107 -19 335 -86 335 -99 0 -5 -59 -97 -75 -119 -1 -1 -25 6 -53 17 -71 28
-192 58 -292 71 -80 11 -411 16 -428 7 -4 -3 -38 -8 -77 -12 -111 -11 -449
-78 -508 -101 -11 -4 -18 -36 -26 -117 -7 -62 -14 -128 -16 -147 -9 -77 -25
-273 -23 -275 2 -2 57 10 123 26 139 34 352 74 445 84 175 17 393 1 540 -42
87 -25 90 -27 78 -69 -10 -39 -13 -53 -28 -126 -20 -100 -25 -180 -25 -378 0
-245 7 -316 55 -585 22 -122 24 -131 39 -195 5 -25 12 -58 15 -75 3 -16 10
-45 15 -63 5 -18 10 -36 10 -40 4 -41 16 -71 29 -74 10 -3 47 -6 84 -7 37 -1
75 -4 85 -5 32 -6 273 -18 273 -14 0 2 -27 110 -59 239 -54 213 -101 456 -116
599 -7 68 -8 349 -1 381 3 13 8 42 11 64 8 61 17 109 22 117 5 10 93 -34 93
-46 0 -6 -5 -29 -10 -51 -29 -120 -31 -375 -5 -564 21 -153 55 -313 117 -553
50 -193 52 -198 77 -199 14 0 33 -2 41 -3 8 -2 81 -7 163 -10 104 -5 147 -4
147 4 0 6 -22 99 -49 208 -95 376 -122 544 -123 745 0 62 3 132 6 157 16 115
18 121 32 116 33 -13 229 -45 339 -57 115 -11 464 -8 560 6 22 4 102 15 177
26 198 28 490 86 498 100 4 6 8 42 9 81 2 69 1 70 -21 64 -72 -19 -480 -97
-578 -111 -232 -31 -445 -38 -647 -19 -77 6 -300 48 -310 57 -3 4 40 102 52
115 1 1 44 -7 96 -18 52 -10 135 -24 184 -29 87 -9 398 -7 480 4 209 28 417
67 643 120 99 24 112 29 113 48 1 12 2 33 4 47 1 14 6 79 10 145 4 66 9 127
10 136 2 9 6 75 10 146 l7 130 -229 -58 c-437 -111 -672 -140 -923 -115 -129
13 -130 13 -106 70 30 72 74 247 101 401 28 162 27 476 -1 745 -10 97 -64 404
-73 413 -4 4 -30 10 -57 12 -27 2 -83 6 -124 10 -90 7 -174 15 -215 20 -16 2
-64 7 -105 11 -41 3 -78 8 -82 10 -18 11 -15 -22 13 -135 34 -143 75 -362 88
-476 17 -142 7 -446 -18 -563 -21 -99 -55 -208 -71 -225 -4 -5 -25 3 -47 17
l-39 26 27 83 c70 211 82 498 34 795 -30 182 -96 467 -112 483 -4 4 -42 11
-83 15 -41 3 -77 8 -80 9 -3 1 -11 0 -18 -2z"/>
</g>
</svg>
