<?xml version="1.0" standalone="no"?>
<!DOCTYPE svg PUBLIC "-//W3C//DTD SVG 20010904//EN"
 "http://www.w3.org/TR/2001/REC-SVG-20010904/DTD/svg10.dtd">
<svg version="1.0" xmlns="http://www.w3.org/2000/svg"
 width="558.000000pt" height="558.000000pt" viewBox="0 0 558.000000 558.000000"
 preserveAspectRatio="xMidYMid meet">
<metadata>
Created by potrace 1.13, written by Peter Selinger 2001-2015
</metadata>
<g transform="translate(0.000000,558.000000) scale(0.100000,-0.100000)"
fill="#000000" stroke="none">
<path d="M2373 4402 c3 -59 8 -118 11 -131 13 -56 39 -141 67 -213 45 -119 37
-252 -25 -391 -24 -54 -24 -58 -19 -274 l6 -218 -46 -38 c-26 -21 -77 -52
-114 -70 -59 -28 -79 -32 -148 -32 -70 0 -88 4 -145 32 -36 18 -86 53 -112 77
-53 51 -42 49 -333 61 -66 2 -183 7 -260 11 l-140 6 0 -432 0 -432 115 6 c63
3 174 8 245 11 325 14 315 13 366 46 169 108 319 126 465 54 98 -48 104 -56
104 -141 0 -61 5 -84 27 -127 51 -100 38 -201 -42 -336 -63 -105 -86 -186 -84
-286 2 -101 40 -213 92 -277 51 -63 62 -97 44 -141 -9 -19 -29 -45 -46 -58
-38 -28 -39 -37 -3 -32 48 6 583 9 700 4 61 -3 112 -3 112 1 0 4 -16 19 -36
34 -41 32 -64 71 -64 113 0 23 11 39 50 74 42 36 55 56 77 118 23 63 27 91 27
189 1 126 9 101 -87 285 -64 121 -78 291 -37 429 l24 79 335 -7 c185 -4 347
-9 361 -10 14 -1 58 -25 99 -54 94 -66 167 -94 251 -95 75 -1 150 28 214 85
l39 34 0 433 c0 355 -3 435 -14 446 -30 28 -127 73 -182 85 -115 23 -260 -18
-352 -100 -29 -26 -53 -28 -419 -36 l-329 -7 6 213 c7 211 6 214 -19 284 -83
231 -71 522 33 755 30 69 26 83 -24 75 -47 -8 -680 -8 -747 0 l-49 5 6 -107z"/>
</g>
</svg>
