<?xml version="1.0" standalone="no"?>
<!DOCTYPE svg PUBLIC "-//W3C//DTD SVG 20010904//EN"
 "http://www.w3.org/TR/2001/REC-SVG-20010904/DTD/svg10.dtd">
<svg version="1.0" xmlns="http://www.w3.org/2000/svg"
 width="512.000000pt" height="512.000000pt" viewBox="0 0 512.000000 512.000000"
 preserveAspectRatio="xMidYMid meet">
<metadata>
Created by potrace 1.13, written by Peter Selinger 2001-2015
</metadata>
<g transform="translate(0.000000,512.000000) scale(0.100000,-0.100000)"
fill="#000000" stroke="none">
<path d="M1411 4512 c-29 -10 -72 -70 -89 -125 -15 -47 -17 -70 -10 -115 5
-32 13 -65 18 -74 6 -10 10 -25 10 -33 0 -8 4 -23 9 -33 37 -73 51 -106 51
-117 0 -7 4 -15 9 -17 5 -1 11 -16 13 -33 1 -16 7 -33 12 -37 15 -11 10 -101
-8 -150 -10 -25 -15 -51 -11 -57 3 -6 1 -11 -6 -11 -10 0 -10 -3 -1 -12 7 -7
12 -20 12 -29 0 -10 7 -25 16 -33 8 -9 12 -16 9 -16 -9 0 120 -124 174 -169
23 -18 41 -39 41 -46 0 -7 -17 -16 -37 -20 -21 -4 -47 -9 -58 -11 -11 -2 -97
-14 -192 -28 -94 -14 -181 -29 -192 -35 -11 -6 -31 -11 -45 -11 -14 0 -28 -4
-31 -10 -3 -5 -15 -10 -26 -10 -10 0 -27 -4 -37 -9 -108 -53 -150 -87 -213
-172 -60 -81 -130 -147 -234 -219 -27 -19 -52 -38 -55 -42 -3 -4 -33 -25 -67
-47 -72 -46 -79 -52 -178 -148 -41 -40 -75 -79 -75 -88 0 -9 4 -14 8 -11 5 3
18 -3 29 -13 21 -20 122 -71 140 -71 6 0 30 -9 54 -19 24 -11 55 -22 69 -24
44 -9 114 -40 140 -64 14 -13 28 -23 31 -23 3 0 23 -25 42 -55 54 -80 85 -96
182 -97 61 -1 119 7 199 28 102 27 208 33 231 14 6 -5 15 -7 18 -3 18 17 3
-28 -24 -77 -18 -30 -38 -68 -46 -85 -8 -16 -19 -38 -24 -48 -20 -36 -49 -124
-59 -176 -8 -44 -6 -68 10 -138 22 -89 25 -170 21 -528 -2 -146 2 -192 23
-290 6 -31 73 -137 112 -178 l46 -48 62 33 c58 31 66 33 183 35 153 2 176 14
265 135 16 21 28 43 28 49 0 6 9 24 21 40 11 16 17 29 14 29 -3 0 3 14 15 30
12 17 19 30 15 30 -10 0 65 112 88 131 12 10 43 26 70 34 26 9 52 24 57 33 34
58 36 58 84 14 24 -22 62 -50 85 -61 93 -48 179 -114 306 -236 32 -31 182
-148 221 -172 117 -75 183 -93 343 -93 75 0 154 -5 176 -11 22 -5 53 -12 68
-15 16 -3 47 -12 69 -20 22 -8 48 -14 58 -14 35 0 112 129 112 186 0 50 -24
174 -34 174 -4 0 -8 11 -8 24 0 14 -4 28 -10 31 -5 3 -10 15 -10 26 0 10 -4
19 -10 19 -5 0 -10 9 -10 20 0 11 -4 20 -10 20 -5 0 -10 8 -10 18 0 10 -4 22
-9 27 -6 6 -13 39 -17 75 -3 36 -8 68 -10 71 -2 3 6 32 17 64 16 46 18 63 9
89 -12 36 -93 137 -119 148 -9 4 -13 7 -9 7 8 1 -28 37 -71 73 -40 33 -27 41
97 58 195 27 341 50 377 61 195 56 261 92 332 180 90 110 155 175 236 236 385
286 439 344 370 390 -47 31 -180 90 -214 96 -13 2 -40 10 -59 19 -19 8 -48 18
-63 22 -30 7 -130 101 -135 126 -5 22 -72 80 -102 87 -23 6 -104 8 -175 3 -16
-1 -61 -10 -100 -20 -148 -38 -280 -27 -267 23 2 12 10 29 17 37 14 19 57 108
83 176 32 81 40 136 28 204 -3 19 -12 73 -20 120 -10 58 -13 131 -10 230 11
358 2 465 -48 564 -32 64 -34 66 -95 132 -24 24 -43 49 -43 55 0 5 -12 3 -27
-4 -57 -29 -192 -52 -218 -38 -17 10 -85 8 -85 -2 0 -6 -3 -7 -6 -4 -6 6 -50
-14 -79 -36 -36 -27 -69 -57 -62 -57 4 0 0 -9 -10 -19 -10 -11 -29 -41 -43
-68 -14 -26 -35 -65 -47 -85 -13 -21 -23 -45 -23 -53 0 -9 -5 -13 -11 -10 -6
4 -9 1 -7 -6 1 -8 -10 -32 -25 -54 -15 -22 -27 -35 -27 -30 0 6 -3 6 -8 -1
-11 -16 -76 -52 -87 -48 -13 5 -87 -55 -80 -65 2 -5 -2 -16 -9 -27 -13 -17
-16 -16 -57 17 -24 20 -64 46 -89 58 -68 34 -127 80 -270 211 -74 67 -86 77
-95 81 -5 2 -22 16 -38 30 -16 15 -41 33 -55 40 -15 8 -29 17 -32 20 -12 14
-106 61 -160 79 -47 16 -86 20 -184 20 -69 0 -147 4 -173 10 -26 5 -59 12 -73
14 -27 4 -116 34 -140 46 -8 4 -21 5 -29 2z"/>
</g>
</svg>
