<?xml version="1.0" standalone="no"?>
<!DOCTYPE svg PUBLIC "-//W3C//DTD SVG 20010904//EN"
 "http://www.w3.org/TR/2001/REC-SVG-20010904/DTD/svg10.dtd">
<svg version="1.0" xmlns="http://www.w3.org/2000/svg"
 width="558.000000pt" height="558.000000pt" viewBox="0 0 558.000000 558.000000"
 preserveAspectRatio="xMidYMid meet">
<metadata>
Created by potrace 1.13, written by Peter Selinger 2001-2015
</metadata>
<g transform="translate(0.000000,558.000000) scale(0.100000,-0.100000)"
fill="#000000" stroke="none">
<path d="M2841 5039 c-1 -3 -48 -143 -106 -311 -58 -168 -105 -308 -105 -312
0 -3 33 -7 73 -9 l72 -3 -75 -2 -75 -2 -42 -122 c-23 -68 -71 -208 -107 -313
l-65 -190 20 -57 c55 -164 14 -360 -102 -479 -65 -66 -115 -88 -204 -89 l-70
0 -605 -1071 c-333 -589 -606 -1075 -608 -1080 -2 -5 280 -9 731 -9 l734 0 65
-43 c76 -51 188 -100 285 -124 107 -27 371 -24 486 5 102 25 210 73 284 125
l53 37 685 0 c461 0 685 3 685 10 0 10 -1273 2264 -1292 2288 -6 6 -29 12 -52
12 -114 0 -262 69 -365 170 -171 167 -219 435 -116 652 l27 58 -16 72 c-33
150 -32 146 -79 151 l-42 4 43 1 c23 1 42 4 42 5 0 2 -31 136 -70 298 -61 255
-87 351 -89 328z m-28 -636 c-7 -2 -19 -2 -25 0 -7 3 -2 5 12 5 14 0 19 -2 13
-5z m70 0 c-7 -2 -19 -2 -25 0 -7 3 -2 5 12 5 14 0 19 -2 13 -5z"/>
</g>
</svg>
