<?xml version="1.0" standalone="no"?>
<!DOCTYPE svg PUBLIC "-//W3C//DTD SVG 20010904//EN"
 "http://www.w3.org/TR/2001/REC-SVG-20010904/DTD/svg10.dtd">
<svg version="1.0" xmlns="http://www.w3.org/2000/svg"
 width="558.000000pt" height="558.000000pt" viewBox="0 0 558.000000 558.000000"
 preserveAspectRatio="xMidYMid meet">
<metadata>
Created by potrace 1.13, written by Peter Selinger 2001-2015
</metadata>
<g transform="translate(0.000000,558.000000) scale(0.100000,-0.100000)"
fill="#000000" stroke="none">
<path d="M2635 5019 c-27 -5 -72 -11 -100 -14 -79 -9 -102 -14 -251 -56 -306
-86 -581 -227 -822 -424 -33 -27 -61 -53 -61 -57 -1 -5 344 -9 767 -10 l767
-3 -100 -33 c-55 -19 -107 -35 -115 -37 -8 -2 -54 -13 -102 -24 -47 -11 -99
-23 -115 -26 -15 -2 -38 -7 -49 -9 -29 -6 -78 -14 -139 -22 -27 -3 -58 -8 -67
-9 -9 -2 -48 -7 -85 -10 -37 -4 -78 -8 -91 -10 -20 -3 -139 -11 -302 -20 -30
-2 -173 -4 -317 -4 l-262 -1 -46 -60 -46 -60 143 -1 c79 -1 175 -3 213 -4 39
-1 221 -5 405 -9 184 -3 371 -9 415 -11 44 -3 145 -7 225 -10 278 -10 436 -27
425 -45 -5 -8 -119 -26 -230 -35 -38 -3 -92 -8 -120 -10 -27 -2 -97 -7 -155
-10 -58 -4 -127 -8 -155 -10 -27 -2 -115 -6 -195 -10 -80 -3 -170 -8 -200 -10
-30 -2 -125 -7 -210 -11 -85 -3 -182 -7 -215 -9 -104 -6 -444 -7 -453 -1 -15
9 -98 -151 -156 -299 -53 -135 -119 -365 -130 -452 l-5 -43 242 -1 c133 -1
285 -3 337 -4 52 -1 340 -6 640 -10 300 -4 561 -8 580 -9 33 -1 35 1 38 34 1
19 16 129 32 244 17 115 30 213 30 219 0 37 16 -30 60 -248 27 -137 51 -249
52 -250 2 -2 134 -6 293 -9 160 -4 355 -8 435 -11 80 -3 222 -7 315 -10 487
-14 761 -39 654 -58 -71 -13 -307 -30 -584 -42 -66 -3 -163 -7 -215 -10 -52
-2 -171 -7 -265 -10 -93 -3 -231 -8 -305 -10 -74 -3 -220 -7 -325 -10 -104 -3
-260 -7 -345 -10 -85 -3 -274 -7 -420 -11 -146 -3 -303 -8 -350 -9 -47 -2
-113 -4 -147 -4 l-62 -1 0 -71 c1 -85 -60 -610 -72 -623 -5 -6 -9 20 -10 60 0
38 -2 87 -4 109 -4 42 -10 165 -20 375 -4 69 -8 131 -11 138 -3 11 -36 13
-167 9 -89 -3 -222 -6 -294 -6 l-133 -1 0 -122 c0 -161 29 -370 75 -538 159
-583 544 -1074 1068 -1364 143 -79 467 -197 609 -221 446 -77 857 -33 1248
132 136 57 354 180 465 263 65 48 318 290 311 298 -3 2 -168 5 -368 7 -200 1
-374 5 -388 8 -14 3 -59 8 -100 12 -41 3 -104 11 -140 16 -36 6 -78 13 -95 16
-100 15 -360 86 -369 101 -2 4 64 7 147 8 1064 5 1444 8 1454 12 13 4 148 210
142 216 -2 2 -247 6 -544 10 -297 3 -578 8 -625 11 -47 2 -192 5 -322 7 -130
2 -234 6 -230 9 6 6 286 40 442 54 36 4 79 8 95 10 17 2 77 7 135 10 58 4 115
8 128 10 13 2 103 7 200 11 97 4 204 8 237 9 33 1 171 3 307 4 l248 1 20 41
c28 55 114 308 134 394 14 62 46 286 46 324 0 12 -18 13 -107 8 -58 -4 -181
-9 -272 -13 -91 -3 -197 -7 -236 -9 -38 -2 -156 -4 -261 -4 l-191 -1 -36 -189
c-21 -103 -37 -195 -37 -204 0 -9 -4 -18 -8 -21 -5 -3 -16 47 -26 112 -9 64
-18 128 -21 142 -3 14 -8 54 -11 90 -4 36 -7 66 -8 66 0 1 -183 4 -406 8 -223
4 -421 8 -440 10 -19 2 -124 7 -234 11 -109 4 -206 8 -215 10 -9 1 -77 6 -151
10 -74 3 -151 8 -170 10 -19 2 -82 7 -140 10 -174 12 -158 24 35 25 99 1 218
3 265 5 47 2 234 6 415 9 359 7 676 14 965 21 102 2 347 8 545 11 198 4 387 8
420 9 33 1 122 3 197 4 l136 1 -3 130 c-2 71 -6 133 -8 137 -3 4 -8 37 -12 73
-21 196 -119 510 -227 724 -43 85 -188 306 -257 390 -114 139 -293 301 -450
405 -186 124 -228 146 -386 211 -279 113 -576 172 -850 169 -77 -1 -162 -6
-190 -10z"/>
</g>
</svg>
