<?xml version="1.0" standalone="no"?>
<!DOCTYPE svg PUBLIC "-//W3C//DTD SVG 20010904//EN"
 "http://www.w3.org/TR/2001/REC-SVG-20010904/DTD/svg10.dtd">
<svg version="1.0" xmlns="http://www.w3.org/2000/svg"
 width="512.000000pt" height="512.000000pt" viewBox="0 0 512.000000 512.000000"
 preserveAspectRatio="xMidYMid meet">
<metadata>
Created by potrace 1.13, written by Peter Selinger 2001-2015
</metadata>
<g transform="translate(0.000000,512.000000) scale(0.100000,-0.100000)"
fill="#000000" stroke="none">
<path d="M3280 4515 c-14 -8 -39 -14 -56 -15 -20 0 -41 -10 -59 -27 -15 -16
-44 -39 -64 -53 -20 -14 -36 -31 -37 -37 -1 -7 -2 -17 -2 -23 -1 -5 -26 -22
-54 -36 -58 -29 -70 -42 -63 -63 6 -15 -23 -66 -32 -57 -3 3 -19 -11 -35 -31
-16 -20 -39 -43 -51 -52 -31 -21 -37 -33 -31 -58 4 -15 0 -25 -14 -32 -29 -15
-64 -95 -71 -163 -1 -5 -12 -8 -26 -8 -38 0 -59 -52 -39 -99 20 -47 18 -51
-20 -51 -72 0 -80 -16 -45 -86 12 -23 19 -50 16 -58 -8 -20 -55 -20 -81 -1
-31 23 -37 18 -32 -25 4 -35 1 -43 -20 -56 -14 -10 -37 -14 -54 -12 -41 6 -46
-5 -21 -46 27 -44 27 -50 -9 -88 -16 -17 -30 -35 -30 -40 0 -24 -124 83 -166
143 -20 29 -24 42 -16 52 8 9 8 20 -2 38 -31 60 -41 69 -72 69 -20 0 -39 9
-54 25 l-23 25 26 0 c14 0 28 4 31 9 3 5 15 7 26 4 15 -4 20 0 20 14 0 23 -51
63 -79 63 -20 0 -31 15 -83 115 -21 40 -68 75 -101 75 -25 0 -63 26 -107 72
-50 53 -211 198 -218 196 -4 -1 -21 1 -38 4 -22 5 -55 33 -113 97 l-83 91 -50
-2 c-47 -2 -49 -3 -43 -28 4 -13 7 -29 8 -35 1 -5 -17 -10 -40 -10 -27 -1 -49
-7 -60 -18 -17 -17 -16 -20 10 -66 15 -27 27 -52 27 -56 0 -3 -25 -3 -55 0
-59 8 -60 7 -55 -52 0 -12 -4 -41 -10 -65 -7 -24 -11 -45 -10 -47 1 -2 -5 -8
-14 -13 -9 -5 -16 -14 -16 -19 0 -6 -7 -17 -15 -25 -8 -9 -15 -28 -15 -44 0
-43 -9 -59 -45 -76 -21 -10 -32 -21 -30 -32 2 -9 4 -21 4 -25 1 -4 16 -17 35
-28 26 -15 40 -36 61 -87 56 -137 96 -211 136 -249 59 -55 65 -71 40 -94 -12
-11 -21 -22 -21 -25 0 -13 30 -34 50 -34 20 0 80 -56 148 -139 20 -23 48 -45
70 -52 41 -13 82 -46 82 -65 0 -7 -10 -18 -21 -25 -15 -8 -19 -8 -15 0 5 7 -3
11 -21 10 -17 -1 -21 -3 -10 -6 9 -2 17 -8 17 -13 0 -17 95 -72 128 -76 42 -3
69 -27 78 -68 3 -17 23 -53 44 -81 21 -27 41 -60 44 -72 4 -12 20 -38 36 -58
l30 -37 -37 -19 c-20 -10 -52 -20 -72 -21 -20 -2 -38 -5 -41 -8 -22 -22 -73
-40 -97 -34 -36 8 -70 6 -91 -4 -19 -9 -28 -9 -61 2 -31 11 -41 -7 -28 -50 16
-53 -2 -64 -56 -35 -64 35 -88 25 -102 -42 -4 -22 -10 -27 -23 -22 -32 13 -47
12 -111 -6 -68 -20 -105 -45 -97 -66 3 -8 -8 -15 -32 -19 -42 -7 -92 -34 -92
-48 0 -5 -3 -7 -6 -3 -11 11 -80 -30 -105 -62 -29 -37 -30 -37 -85 -9 -24 12
-47 18 -51 15 -3 -4 1 -23 10 -42 9 -20 17 -38 17 -40 0 -13 -47 -45 -67 -45
-16 0 -28 -11 -42 -39 -21 -40 -48 -55 -72 -40 -24 15 -46 10 -52 -11 -3 -11
-1 -22 4 -26 5 -3 14 -14 20 -26 6 -11 7 -18 1 -14 -14 8 -22 -30 -9 -43 6 -6
18 -11 27 -11 8 0 28 -12 43 -26 25 -23 27 -28 14 -43 -26 -29 2 -70 70 -102
52 -24 167 -125 230 -202 l56 -68 71 7 c72 7 97 17 93 37 -3 15 109 18 137 4
13 -7 26 -3 47 12 36 26 48 26 104 -1 56 -27 71 -15 49 39 -13 29 -13 34 1 39
8 4 31 3 50 0 24 -5 45 -1 72 13 26 13 44 16 55 10 11 -6 37 2 87 28 63 32 71
40 71 65 0 35 28 48 104 48 45 0 58 5 89 31 24 20 37 40 37 56 0 34 24 39 101
19 37 -10 72 -15 77 -12 5 3 12 19 15 36 7 33 21 37 63 16 26 -14 64 -7 64 12
0 4 9 13 20 20 15 9 25 9 45 0 14 -6 25 -15 25 -20 0 -4 0 -11 0 -15 0 -5 -4
-9 -10 -9 -5 -1 -14 -2 -20 -3 -23 -3 -29 -38 -15 -91 8 -29 12 -57 10 -61 -3
-3 0 -21 6 -37 9 -25 7 -37 -7 -61 -19 -32 -17 -39 27 -107 17 -28 18 -34 5
-47 -9 -8 -25 -12 -40 -10 -24 5 -25 4 -16 -27 6 -20 5 -40 -1 -54 -9 -18 -4
-45 25 -131 32 -97 34 -110 21 -125 -23 -25 -18 -42 21 -89 23 -27 36 -51 35
-67 -6 -68 7 -149 32 -207 9 -21 16 -41 15 -45 -1 -4 13 -38 30 -76 20 -42 29
-73 24 -78 -13 -13 5 -71 38 -128 29 -49 47 -54 104 -31 16 6 43 11 60 10 52
-3 56 -1 56 35 0 50 18 60 73 39 37 -14 50 -15 72 -5 21 10 25 17 22 40 -4 24
0 31 29 47 19 10 42 18 52 17 44 -2 61 8 64 41 3 30 5 32 48 35 58 4 70 16 70
68 0 23 4 46 10 49 6 4 0 21 -15 43 -32 47 -31 52 3 52 16 0 37 8 46 19 16 18
16 22 -2 74 -18 50 -18 58 -5 77 14 19 27 83 40 191 4 32 0 55 -11 78 -12 22
-15 43 -10 67 5 28 1 47 -21 90 -21 41 -25 60 -20 81 12 42 12 54 -2 103 -7
25 -13 62 -13 82 0 23 -8 46 -24 65 -57 69 -56 103 4 103 22 0 41 4 45 9 3 5
-7 36 -21 68 -25 54 -26 61 -14 103 15 53 16 68 5 95 -8 18 -7 18 8 6 9 -7 44
-14 78 -15 47 -2 65 -7 75 -21 8 -10 14 -15 14 -11 0 5 6 3 14 -3 8 -6 28 -9
44 -6 17 3 42 1 56 -5 21 -8 26 -16 26 -43 0 -66 71 -91 98 -34 11 22 17 25
31 17 10 -5 26 -25 35 -44 24 -50 65 -56 66 -10 0 14 20 23 38 17 7 -3 26 -25
43 -49 31 -45 52 -50 47 -11 -3 28 9 47 30 47 24 0 112 -57 119 -78 11 -30 35
-52 58 -52 27 0 55 29 55 58 0 29 22 28 59 -4 25 -21 37 -25 59 -18 34 9 61 6
86 -12 41 -29 62 -18 69 36 6 37 34 36 73 -1 19 -18 34 -29 34 -24 0 5 5 4 12
-3 19 -19 42 -14 66 13 25 29 62 32 102 9 30 -19 82 -12 75 9 -3 6 -11 56 -19
110 -8 54 -16 99 -18 101 -55 38 -88 70 -77 77 8 4 19 3 25 -2 9 -7 19 -4 33
10 27 27 26 38 -5 84 -14 21 -28 55 -31 75 -3 20 -14 63 -26 96 -17 49 -19 63
-9 89 15 39 -1 59 -64 81 -24 8 -61 29 -83 47 -34 27 -46 31 -80 26 -23 -3
-47 0 -58 7 -10 7 -40 21 -68 31 -27 10 -63 27 -80 37 -16 10 -42 18 -56 18
-40 0 -115 29 -138 53 -93 100 -101 104 -99 54 2 -64 -23 -73 -85 -30 -32 22
-42 25 -58 15 -27 -17 -53 -15 -74 8 -25 28 -50 33 -82 17 -59 -30 -68 -30
-119 13 -27 22 -69 47 -94 56 -25 9 -61 22 -79 31 -19 8 -55 17 -80 20 -69 8
-80 18 -45 36 16 8 46 33 68 55 31 32 39 50 43 89 7 60 18 75 55 69 22 -3 32
1 46 21 9 14 32 41 50 60 29 30 32 39 27 72 -5 35 -2 41 32 70 21 18 55 41 75
52 44 23 50 43 26 91 -10 21 -18 47 -18 59 0 20 4 21 44 16 59 -8 72 6 55 62
-15 51 -8 69 31 73 31 3 31 4 35 63 6 83 12 105 33 129 31 34 33 42 18 71 -14
27 -13 29 16 49 17 12 37 37 43 56 10 31 9 41 -11 85 l-23 50 22 12 c12 7 32
12 44 13 26 0 42 43 26 69 -13 21 -57 26 -93 11 -25 -11 -33 -9 -62 13 -29 22
-36 24 -56 13 -29 -16 -154 4 -181 28 -14 13 -29 15 -64 11 -30 -4 -55 -2 -74
8 -47 24 -67 27 -93 12z"/>
</g>
</svg>
