<?xml version="1.0" standalone="no"?>
<!DOCTYPE svg PUBLIC "-//W3C//DTD SVG 20010904//EN"
 "http://www.w3.org/TR/2001/REC-SVG-20010904/DTD/svg10.dtd">
<svg version="1.0" xmlns="http://www.w3.org/2000/svg"
 width="558.000000pt" height="558.000000pt" viewBox="0 0 558.000000 558.000000"
 preserveAspectRatio="xMidYMid meet">
<metadata>
Created by potrace 1.13, written by Peter Selinger 2001-2015
</metadata>
<g transform="translate(0.000000,558.000000) scale(0.100000,-0.100000)"
fill="#000000" stroke="none">
<path d="M2329 4603 c0 -54 -1 -395 -2 -758 l-1 -660 -741 0 -740 0 0 -510 0
-510 740 -1 740 0 0 -755 1 -754 502 -3 502 -2 0 755 c0 415 3 755 8 756 4 1
338 2 742 3 l735 1 0 510 0 510 -735 1 c-404 1 -738 2 -742 3 -5 1 -8 341 -8
756 l0 755 -500 0 -500 0 -1 -97z"/>
</g>
</svg>
