<?xml version="1.0" standalone="no"?>
<!DOCTYPE svg PUBLIC "-//W3C//DTD SVG 20010904//EN"
 "http://www.w3.org/TR/2001/REC-SVG-20010904/DTD/svg10.dtd">
<svg version="1.0" xmlns="http://www.w3.org/2000/svg"
 width="512.000000pt" height="512.000000pt" viewBox="0 0 512.000000 512.000000"
 preserveAspectRatio="xMidYMid meet">
<metadata>
Created by potrace 1.13, written by Peter Selinger 2001-2015
</metadata>
<g transform="translate(0.000000,512.000000) scale(0.100000,-0.100000)"
fill="#000000" stroke="none">
<path d="M3175 4816 c-89 -89 -196 -209 -238 -265 -42 -56 -77 -104 -77 -106
0 -2 -17 -30 -38 -62 -88 -132 -172 -302 -227 -458 -31 -88 -32 -90 -66 -93
-90 -6 -203 -24 -287 -44 l-94 -22 -19 24 c-11 14 -44 57 -74 95 -30 39 -85
102 -122 141 -73 78 -275 254 -290 254 -5 0 -20 11 -33 25 -13 14 -29 25 -35
25 -7 0 -20 9 -30 20 -10 11 -24 20 -30 20 -7 0 -19 7 -26 16 -7 9 -22 20 -34
25 -11 5 -42 23 -70 40 -62 37 -308 159 -322 159 -20 0 -207 -154 -303 -250
-96 -96 -250 -283 -250 -303 0 -14 122 -260 159 -322 17 -27 35 -59 40 -70 5
-12 16 -27 25 -34 9 -7 16 -19 16 -26 0 -6 9 -20 20 -30 11 -10 20 -23 20 -30
0 -6 11 -22 25 -35 14 -13 25 -28 25 -33 0 -15 176 -217 254 -290 39 -37 103
-92 141 -122 39 -30 81 -63 95 -74 l24 -19 -22 -94 c-25 -108 -41 -214 -42
-278 l0 -45 -86 -28 c-144 -47 -330 -138 -467 -229 -32 -21 -60 -38 -62 -38
-2 0 -50 -35 -106 -77 -56 -42 -176 -149 -265 -238 l-164 -162 49 -126 c58
-150 154 -336 241 -470 73 -111 55 -105 231 -82 280 36 629 145 824 257 11 6
45 25 75 41 73 40 185 114 200 132 14 16 65 20 74 6 12 -18 172 -106 250 -137
l81 -32 2 -44 c20 -351 83 -654 184 -885 11 -24 28 -64 40 -90 24 -56 85 -175
111 -218 10 -16 22 -39 27 -50 20 -45 34 -48 169 -42 161 7 299 29 482 75
l145 37 12 55 c55 240 78 588 54 821 -15 141 -52 328 -87 434 l-26 80 43 35
c56 44 175 163 219 219 l35 43 80 -26 c106 -35 293 -72 434 -87 233 -24 581
-1 821 54 l55 12 37 145 c46 183 68 321 75 482 6 135 3 149 -42 169 -11 5 -33
17 -50 27 -42 26 -162 87 -215 110 -25 11 -65 29 -90 40 -234 102 -535 165
-888 185 l-44 2 -32 81 c-31 78 -119 238 -137 250 -14 8 -10 60 6 74 16 13 70
93 104 153 24 42 54 95 70 123 112 197 220 544 256 823 23 176 29 158 -82 231
-134 87 -320 183 -470 241 l-126 49 -162 -164z"/>
</g>
</svg>
