<?xml version="1.0" standalone="no"?>
<!DOCTYPE svg PUBLIC "-//W3C//DTD SVG 20010904//EN"
 "http://www.w3.org/TR/2001/REC-SVG-20010904/DTD/svg10.dtd">
<svg version="1.0" xmlns="http://www.w3.org/2000/svg"
 width="512.000000pt" height="512.000000pt" viewBox="0 0 512.000000 512.000000"
 preserveAspectRatio="xMidYMid meet">
<metadata>
Created by potrace 1.13, written by Peter Selinger 2001-2015
</metadata>
<g transform="translate(0.000000,512.000000) scale(0.100000,-0.100000)"
fill="#000000" stroke="none">
<path d="M2488 4651 c-104 -72 -256 -215 -321 -301 -23 -30 -49 -63 -58 -73
-9 -10 -25 -33 -35 -52 -10 -19 -22 -35 -27 -35 -4 0 -5 -4 -2 -10 3 -5 2 -10
-2 -10 -5 0 -17 -20 -28 -45 -11 -25 -23 -45 -26 -45 -3 0 -12 -18 -19 -40
l-13 -39 -35 15 c-30 12 -189 56 -257 70 -140 30 -567 17 -611 -17 -37 -29
-51 -474 -20 -619 20 -90 54 -213 71 -253 12 -30 13 -37 2 -37 -15 0 -119 -50
-127 -60 -3 -4 -15 -10 -27 -14 -13 -4 -23 -12 -23 -17 0 -5 -5 -9 -10 -9 -12
0 -106 -67 -133 -95 -10 -9 -17 -14 -17 -11 0 16 -165 -151 -252 -256 -97
-116 -97 -117 -58 -177 17 -28 36 -51 41 -51 5 0 9 -5 9 -10 0 -26 206 -233
303 -305 38 -27 74 -56 82 -63 7 -6 18 -12 24 -12 5 0 16 -6 23 -13 17 -16
140 -77 156 -77 14 0 17 -36 3 -44 -5 -3 -14 -27 -21 -53 -7 -27 -14 -52 -16
-58 -2 -5 -5 -20 -8 -33 -3 -12 -8 -31 -11 -42 -12 -48 -18 -83 -30 -175 -6
-46 -6 -253 1 -315 3 -30 6 -62 6 -70 0 -8 4 -43 10 -76 l10 -62 41 -7 c94
-15 171 -20 342 -19 168 1 189 3 315 34 74 18 147 39 162 46 35 18 58 18 58
-1 0 -8 9 -31 21 -52 12 -21 31 -56 42 -78 12 -22 28 -46 35 -53 6 -7 12 -17
12 -22 0 -38 334 -390 370 -390 5 0 10 -4 10 -9 0 -5 22 -23 50 -41 l49 -32
48 33 c26 18 50 36 51 41 2 4 8 8 13 8 34 0 349 333 349 369 0 5 4 11 8 13 11
4 82 123 82 137 0 6 5 11 10 11 6 0 10 9 10 20 0 11 4 20 10 20 5 0 9 3 9 7
-5 30 3 32 54 13 74 -27 251 -69 322 -75 117 -12 256 -11 377 1 155 16 166 19
173 47 25 97 35 369 20 522 -6 70 -48 248 -75 320 l-18 51 51 23 c62 28 171
92 175 103 2 4 8 8 13 8 36 0 369 315 369 349 0 5 4 11 8 13 5 2 23 25 41 51
l33 48 -32 49 c-18 28 -36 50 -41 50 -5 0 -9 5 -9 11 0 5 -12 24 -27 41 -45
51 -240 241 -270 264 -57 42 -129 90 -165 109 -21 11 -38 24 -38 29 0 5 -3 7
-6 3 -3 -3 -21 3 -40 14 -19 10 -41 19 -49 19 -18 0 -19 10 -4 47 19 47 50
163 70 263 22 106 18 420 -6 567 l-7 41 -62 10 c-33 6 -68 10 -76 10 -8 0 -40
3 -70 6 -62 7 -269 7 -315 1 -92 -12 -127 -18 -175 -30 -11 -3 -29 -7 -40 -10
-11 -3 -28 -7 -37 -9 -10 -2 -46 -13 -80 -25 -76 -26 -73 -26 -73 -1 0 11 -4
20 -10 20 -5 0 -9 3 -8 8 3 9 -43 103 -59 120 -7 7 -13 18 -13 23 0 6 -6 17
-12 24 -7 8 -35 44 -63 82 -72 97 -279 303 -305 303 -5 0 -10 4 -10 9 0 8 -90
71 -102 71 -2 0 -30 -17 -60 -39z"/>
</g>
</svg>
