<?xml version="1.0" standalone="no"?>
<!DOCTYPE svg PUBLIC "-//W3C//DTD SVG 20010904//EN"
 "http://www.w3.org/TR/2001/REC-SVG-20010904/DTD/svg10.dtd">
<svg version="1.0" xmlns="http://www.w3.org/2000/svg"
 width="512.000000pt" height="512.000000pt" viewBox="0 0 512.000000 512.000000"
 preserveAspectRatio="xMidYMid meet">
<metadata>
Created by potrace 1.13, written by Peter Selinger 2001-2015
</metadata>
<g transform="translate(0.000000,512.000000) scale(0.100000,-0.100000)"
fill="#000000" stroke="none">
<path d="M1744 4943 c-4 -43 -3 -150 2 -238 4 -88 9 -281 9 -430 2 -322 4
-335 122 -650 8 -22 25 -60 37 -85 12 -25 31 -63 40 -85 10 -22 25 -52 32 -67
17 -33 18 -58 2 -58 -7 0 -47 33 -89 73 -42 39 -98 90 -124 112 -26 22 -63 55
-82 73 -20 17 -39 32 -43 32 -3 0 -15 8 -26 18 -82 76 -230 150 -374 186 -100
25 -223 66 -264 88 -11 6 -31 14 -45 18 -24 8 -52 19 -183 71 -55 22 -64 24
-188 58 -100 28 -101 27 -89 -9 6 -16 15 -30 19 -30 5 0 21 -22 36 -50 15 -27
31 -50 35 -50 4 0 10 -8 14 -19 3 -10 16 -30 28 -45 12 -14 36 -42 52 -61 17
-20 39 -47 50 -60 11 -13 31 -38 45 -55 14 -18 30 -37 36 -44 23 -24 101 -122
105 -132 2 -5 34 -55 71 -110 70 -104 151 -187 248 -254 19 -13 37 -27 40 -30
3 -4 28 -20 55 -35 28 -16 52 -32 55 -36 5 -6 206 -120 263 -148 15 -8 27 -21
27 -29 0 -12 -10 -14 -52 -8 -244 30 -357 37 -508 33 -175 -4 -187 -7 -390
-86 -30 -12 -122 -40 -205 -62 -142 -38 -175 -47 -305 -82 -103 -28 -191 -67
-152 -67 7 0 12 -7 12 -15 0 -8 -8 -15 -17 -15 -15 0 -15 -2 -3 -14 16 -16 77
-40 155 -61 52 -15 67 -19 310 -84 83 -22 175 -50 205 -62 203 -79 215 -82
390 -86 151 -4 264 3 508 33 42 6 52 4 52 -8 0 -8 -12 -21 -27 -29 -57 -28
-258 -142 -263 -148 -3 -4 -27 -20 -55 -36 -27 -15 -52 -31 -55 -35 -3 -3 -21
-17 -40 -30 -97 -67 -178 -150 -248 -254 -37 -55 -69 -105 -71 -110 -4 -10
-82 -108 -105 -132 -6 -7 -22 -26 -36 -44 -14 -17 -34 -42 -45 -55 -11 -13
-33 -40 -50 -60 -16 -19 -40 -47 -52 -61 -12 -15 -25 -35 -28 -45 -4 -11 -10
-19 -14 -19 -4 0 -20 -22 -35 -50 -15 -27 -31 -50 -36 -50 -4 0 -13 -13 -19
-30 -12 -36 -11 -37 89 -9 124 34 133 36 187 58 132 52 160 63 184 71 14 4 34
12 45 18 41 22 164 63 264 88 144 36 292 110 374 186 11 10 23 18 26 18 4 0
23 15 43 33 19 17 56 50 82 72 26 22 82 73 124 112 42 40 82 73 89 73 16 0 15
-25 -2 -58 -7 -15 -22 -45 -32 -67 -9 -22 -28 -60 -40 -85 -12 -25 -29 -63
-37 -85 -118 -315 -118 -319 -125 -700 -10 -663 -9 -728 18 -685 9 14 41 54
88 109 12 14 25 34 28 44 3 9 9 17 13 17 5 0 14 14 21 30 7 17 16 30 21 30 5
0 18 19 30 42 12 24 25 45 29 48 4 3 25 37 47 75 41 69 169 251 204 290 56 60
103 139 142 235 5 14 13 34 18 45 8 20 28 89 55 195 7 30 25 111 40 180 14 69
28 133 30 143 8 26 34 21 34 -6 0 -52 92 -446 119 -512 5 -11 13 -31 18 -45
39 -96 86 -175 142 -235 35 -39 163 -221 204 -290 22 -38 43 -72 47 -75 4 -3
17 -24 29 -48 12 -23 25 -42 30 -42 5 0 14 -14 21 -30 7 -17 16 -30 21 -30 4
0 10 -8 13 -17 3 -10 16 -30 28 -44 47 -55 79 -95 88 -109 27 -43 28 22 18
685 -7 381 -7 385 -125 700 -8 22 -25 60 -37 85 -12 25 -31 63 -40 85 -10 22
-25 52 -32 67 -17 33 -18 58 -1 58 6 0 46 -33 88 -73 42 -39 98 -90 124 -112
26 -22 63 -55 82 -72 20 -18 39 -33 43 -33 3 0 15 -8 26 -18 82 -76 230 -150
374 -186 100 -25 223 -66 264 -88 11 -6 31 -14 45 -18 24 -8 52 -19 184 -71
54 -22 63 -24 187 -58 100 -28 101 -27 89 9 -6 17 -15 30 -19 30 -5 0 -21 22
-36 50 -15 27 -31 50 -35 50 -4 0 -10 8 -14 19 -3 10 -16 30 -28 45 -12 14
-35 42 -52 61 -16 20 -39 47 -50 60 -11 13 -31 38 -45 55 -14 18 -30 37 -36
44 -23 24 -101 122 -105 132 -2 5 -34 55 -71 110 -70 104 -151 187 -248 254
-19 13 -37 27 -40 30 -3 4 -27 20 -55 35 -27 16 -52 32 -55 36 -5 6 -206 120
-262 148 -16 8 -28 21 -28 29 0 12 10 14 53 8 243 -30 356 -37 507 -33 175 4
187 7 390 86 30 12 123 40 205 62 313 84 353 95 408 114 32 12 47 23 47 35 0
10 8 21 17 24 15 6 14 8 -4 21 -24 17 -87 41 -158 60 -52 15 -67 19 -310 84
-82 22 -175 50 -205 62 -203 79 -215 82 -390 86 -151 4 -264 -3 -507 -33 -43
-6 -53 -4 -53 8 0 8 12 21 28 29 56 28 257 142 262 148 3 4 28 20 55 36 28 15
52 31 55 35 3 3 21 17 40 30 97 67 178 150 248 254 37 55 69 105 71 110 4 10
82 108 105 132 6 7 22 26 36 44 14 17 34 42 45 55 11 13 34 40 50 60 17 19 40
47 52 61 12 15 25 35 28 45 4 11 10 19 14 19 4 0 20 23 35 50 15 28 31 50 36
50 4 0 13 14 19 30 12 36 11 37 -89 9 -124 -34 -133 -36 -187 -58 -132 -52
-160 -63 -184 -71 -14 -4 -34 -12 -45 -18 -41 -22 -164 -63 -264 -88 -144 -36
-292 -110 -374 -186 -11 -10 -23 -18 -26 -18 -4 0 -23 -15 -43 -32 -19 -18
-56 -51 -82 -73 -26 -22 -82 -73 -124 -112 -42 -40 -82 -73 -88 -73 -17 0 -16
25 1 58 7 15 22 45 32 67 9 22 28 60 40 85 12 25 29 63 37 85 118 315 118 319
125 700 10 663 9 728 -18 685 -9 -14 -41 -54 -88 -109 -12 -14 -25 -34 -28
-43 -3 -10 -9 -18 -13 -18 -5 0 -14 -13 -21 -30 -7 -16 -16 -30 -21 -30 -5 0
-18 -19 -30 -42 -12 -24 -25 -45 -29 -48 -4 -3 -25 -36 -47 -75 -41 -69 -169
-251 -204 -290 -47 -50 -66 -79 -98 -142 -18 -37 -38 -78 -42 -90 -5 -13 -13
-33 -19 -45 -9 -22 -27 -86 -56 -198 -7 -30 -25 -111 -40 -180 -14 -69 -28
-133 -30 -142 -8 -27 -34 -22 -34 5 0 54 -92 449 -120 515 -6 12 -14 32 -19
45 -4 12 -24 53 -42 90 -32 63 -51 92 -98 142 -35 39 -163 221 -204 290 -22
39 -43 72 -47 75 -4 3 -17 24 -29 48 -12 23 -25 42 -30 42 -5 0 -14 14 -21 30
-7 17 -16 30 -20 30 -4 0 -12 10 -18 23 -10 22 -34 53 -84 110 -16 17 -28 34
-28 39 0 4 -4 8 -9 8 -5 0 -13 -35 -17 -77z"/>
</g>
</svg>
