<?xml version="1.0" standalone="no"?>
<!DOCTYPE svg PUBLIC "-//W3C//DTD SVG 20010904//EN"
 "http://www.w3.org/TR/2001/REC-SVG-20010904/DTD/svg10.dtd">
<svg version="1.0" xmlns="http://www.w3.org/2000/svg"
 width="558.000000pt" height="558.000000pt" viewBox="0 0 558.000000 558.000000"
 preserveAspectRatio="xMidYMid meet">
<metadata>
Created by potrace 1.13, written by Peter Selinger 2001-2015
</metadata>
<g transform="translate(0.000000,558.000000) scale(0.100000,-0.100000)"
fill="#000000" stroke="none">
<path d="M2894 4627 c-197 -165 -370 -270 -859 -522 -411 -212 -622 -340 -905
-549 -88 -66 -250 -195 -250 -200 0 -1 11 -36 25 -77 42 -122 116 -419 148
-599 3 -14 14 -72 25 -130 11 -58 23 -121 26 -140 3 -19 12 -66 20 -105 8 -38
17 -86 20 -105 11 -71 87 -400 126 -540 49 -181 148 -487 159 -494 4 -3 48 50
96 117 376 520 524 684 752 831 157 101 288 144 599 196 128 21 261 46 295 55
190 49 392 138 565 250 54 35 101 62 103 60 2 -3 6 -21 8 -42 2 -21 6 -49 8
-63 3 -14 8 -48 11 -75 l6 -50 -98 -56 c-183 -104 -450 -209 -619 -244 -11 -3
-72 -16 -135 -31 -129 -29 -144 -32 -183 -39 -15 -3 -53 -12 -85 -21 -31 -8
-67 -17 -80 -20 -12 -2 -69 -22 -126 -45 -281 -108 -504 -302 -856 -744 -57
-71 -134 -165 -172 -209 -37 -43 -66 -81 -64 -85 2 -3 48 -3 103 0 105 6 665
3 698 -4 11 -3 72 -8 135 -11 63 -4 129 -9 145 -11 17 -2 91 -9 165 -15 74 -6
160 -12 190 -15 30 -2 91 -7 135 -9 44 -3 122 -8 173 -12 99 -6 721 -9 727 -2
2 2 7 19 10 38 3 19 17 78 31 130 13 52 26 103 29 112 48 205 161 501 338 888
211 462 301 686 392 967 l33 102 -107 68 c-92 59 -296 205 -311 222 -3 3 -34
31 -70 61 -35 30 -92 81 -125 112 -33 32 -63 58 -66 58 -3 0 -23 -21 -45 -47
-263 -319 -544 -533 -814 -621 -133 -44 -194 -51 -430 -50 -244 1 -328 -9
-477 -58 -94 -31 -267 -116 -352 -173 -34 -22 -64 -41 -66 -41 -1 0 -22 33
-46 73 -23 39 -47 75 -52 78 -12 9 86 75 204 138 156 83 346 148 484 167 28 3
52 8 55 9 5 3 129 12 289 20 314 16 539 104 778 303 103 86 333 324 333 344 0
13 -384 399 -486 488 -174 153 -205 178 -362 298 -75 56 -141 102 -147 102 -6
0 -29 -15 -51 -33z"/>
</g>
</svg>
