<?xml version="1.0" standalone="no"?>
<!DOCTYPE svg PUBLIC "-//W3C//DTD SVG 20010904//EN"
 "http://www.w3.org/TR/2001/REC-SVG-20010904/DTD/svg10.dtd">
<svg version="1.0" xmlns="http://www.w3.org/2000/svg"
 width="558.000000pt" height="558.000000pt" viewBox="0 0 558.000000 558.000000"
 preserveAspectRatio="xMidYMid meet">
<metadata>
Created by potrace 1.13, written by Peter Selinger 2001-2015
</metadata>
<g transform="translate(0.000000,558.000000) scale(0.100000,-0.100000)"
fill="#000000" stroke="none">
<path d="M2585 4388 c-231 -240 -413 -454 -614 -723 -556 -740 -965 -1588
-1196 -2478 -24 -91 -30 -129 -22 -132 7 -2 28 -6 47 -9 19 -2 103 -17 185
-31 155 -26 448 -70 545 -80 51 -5 94 -10 180 -20 30 -4 143 -14 340 -30 311
-26 1218 -26 1380 -1 14 3 70 7 124 11 55 4 109 8 120 10 12 2 48 6 81 10 33
3 80 8 105 11 82 9 423 63 535 84 61 12 138 26 173 33 46 8 62 15 62 27 0 15
-25 89 -110 325 -10 28 -49 131 -88 230 -375 962 -824 1757 -1391 2460 -58 72
-107 132 -110 135 -3 3 -35 39 -71 80 -35 41 -90 101 -120 133 l-56 58 -99
-103z"/>
</g>
</svg>
