<?xml version="1.0" standalone="no"?>
<!DOCTYPE svg PUBLIC "-//W3C//DTD SVG 20010904//EN"
 "http://www.w3.org/TR/2001/REC-SVG-20010904/DTD/svg10.dtd">
<svg version="1.0" xmlns="http://www.w3.org/2000/svg"
 width="512.000000pt" height="512.000000pt" viewBox="0 0 512.000000 512.000000"
 preserveAspectRatio="xMidYMid meet">
<metadata>
Created by potrace 1.13, written by Peter Selinger 2001-2015
</metadata>
<g transform="translate(0.000000,512.000000) scale(0.100000,-0.100000)"
fill="#000000" stroke="none">
<path d="M3287 4564 c-1 -1 -19 -5 -39 -8 -56 -9 -116 -35 -183 -79 -33 -22
-62 -44 -65 -48 -9 -13 -127 -97 -171 -121 -42 -23 -106 -45 -156 -54 -43 -8
-72 -23 -112 -60 -41 -36 -41 -36 -75 -20 -18 8 -60 22 -94 30 -33 7 -66 18
-74 22 -7 5 -15 9 -18 9 -10 1 -95 55 -86 55 4 0 -16 18 -45 40 -30 22 -57 40
-62 40 -4 0 -5 5 -2 10 3 6 -3 10 -15 10 -12 0 -19 4 -16 8 7 12 -90 69 -160
93 -56 20 -66 21 -189 9 -72 -6 -150 -9 -175 -6 -73 9 -114 17 -132 27 -33 18
-60 9 -100 -33 -75 -78 -104 -182 -102 -363 2 -168 -9 -239 -56 -345 -35 -81
-41 -101 -38 -153 1 -32 6 -61 10 -63 5 -3 8 -15 8 -28 0 -12 5 -27 11 -33 6
-6 12 -17 13 -24 5 -25 19 -54 34 -71 8 -10 12 -18 8 -18 -4 0 2 -13 13 -28
11 -16 18 -37 15 -48 -6 -21 -47 -44 -79 -44 -12 0 -26 -5 -31 -10 -6 -6 -24
-13 -40 -16 -16 -2 -56 -9 -89 -15 -68 -12 -188 -50 -193 -61 -2 -5 -11 -8
-19 -8 -8 0 -34 -20 -58 -44 -38 -40 -55 -66 -102 -159 -25 -47 -131 -148
-218 -205 -86 -58 -205 -178 -205 -207 0 -12 129 -134 133 -125 1 3 16 -9 32
-26 17 -17 51 -44 76 -62 63 -42 118 -108 174 -208 50 -89 119 -159 167 -170
16 -3 28 -10 28 -15 0 -5 13 -9 29 -9 17 0 32 -4 35 -9 3 -4 40 -14 82 -20 41
-7 91 -19 110 -27 18 -8 44 -14 58 -14 13 0 26 -3 28 -7 2 -5 17 -16 33 -25
49 -27 52 -41 25 -95 -13 -26 -24 -50 -25 -53 0 -3 -8 -27 -18 -55 -35 -104
-32 -136 28 -270 27 -60 37 -140 40 -303 3 -197 7 -219 53 -306 37 -70 128
-159 156 -153 12 3 32 8 46 11 46 11 154 9 228 -3 66 -12 114 -11 180 3 32 7
141 68 172 96 9 8 31 26 49 40 19 14 44 34 58 46 52 44 135 86 208 105 44 11
95 32 122 50 l46 32 41 -22 c47 -24 123 -51 148 -51 20 0 110 -46 135 -69 54
-49 198 -155 246 -180 85 -45 130 -51 265 -35 117 14 167 13 245 -6 23 -6 50
-12 60 -15 31 -7 123 96 151 171 22 58 34 155 35 284 1 117 23 259 45 295 67
109 62 209 -19 371 -17 33 -30 71 -30 84 0 28 42 55 103 65 23 4 42 10 42 14
0 4 37 13 83 21 216 35 306 92 382 244 33 65 103 143 180 201 68 51 161 131
212 184 67 69 67 70 -87 201 -29 25 -58 47 -65 50 -41 17 -194 177 -200 210
-9 45 -101 170 -124 170 -6 0 -11 4 -11 8 0 19 -162 77 -257 92 -40 7 -73 16
-73 21 0 5 -12 9 -26 9 -25 0 -114 39 -145 63 -27 21 -30 47 -10 75 10 15 19
29 19 32 1 5 6 22 22 70 22 63 22 126 1 171 -62 135 -64 143 -72 359 -4 113
-12 221 -17 240 -17 65 -52 120 -122 189 -66 66 -71 69 -101 61 -35 -10 -183
-6 -267 8 -29 5 -53 7 -55 6z"/>
</g>
</svg>
