<?xml version="1.0" standalone="no"?>
<!DOCTYPE svg PUBLIC "-//W3C//DTD SVG 20010904//EN"
 "http://www.w3.org/TR/2001/REC-SVG-20010904/DTD/svg10.dtd">
<svg version="1.0" xmlns="http://www.w3.org/2000/svg"
 width="558.000000pt" height="558.000000pt" viewBox="0 0 558.000000 558.000000"
 preserveAspectRatio="xMidYMid meet">
<metadata>
Created by potrace 1.13, written by Peter Selinger 2001-2015
</metadata>
<g transform="translate(0.000000,558.000000) scale(0.100000,-0.100000)"
fill="#000000" stroke="none">
<path d="M2640 4789 c-267 -21 -473 -76 -706 -190 -528 -257 -910 -729 -1064
-1313 -16 -61 -32 -137 -36 -168 l-6 -58 1706 0 1706 0 0 -50 0 -50 -1715 0
-1715 0 -1 -82 c-2 -140 5 -313 16 -368 2 -10 7 -40 10 -67 22 -153 93 -371
184 -558 126 -260 313 -493 551 -688 242 -198 626 -365 925 -402 28 -3 77 -10
110 -14 89 -13 335 -6 460 13 449 69 826 268 1152 609 266 278 454 662 517
1056 l13 81 -1664 0 -1663 0 0 55 0 55 1671 0 1671 0 -5 178 c-3 97 -7 186
-10 198 -3 12 -8 45 -12 75 -9 80 -52 249 -92 363 -170 494 -544 912 -1019
1141 -297 144 -655 211 -984 184z"/>
</g>
</svg>
