<?xml version="1.0" standalone="no"?>
<!DOCTYPE svg PUBLIC "-//W3C//DTD SVG 20010904//EN"
 "http://www.w3.org/TR/2001/REC-SVG-20010904/DTD/svg10.dtd">
<svg version="1.0" xmlns="http://www.w3.org/2000/svg"
 width="512.000000pt" height="512.000000pt" viewBox="0 0 512.000000 512.000000"
 preserveAspectRatio="xMidYMid meet">
<metadata>
Created by potrace 1.13, written by Peter Selinger 2001-2015
</metadata>
<g transform="translate(0.000000,512.000000) scale(0.100000,-0.100000)"
fill="#000000" stroke="none">
<path d="M3449 4266 c-2 -2 -22 -6 -44 -9 -22 -3 -50 -8 -62 -11 -13 -3 -33
-9 -45 -12 -27 -6 -30 -7 -88 -23 -25 -7 -51 -18 -59 -24 -8 -7 -17 -11 -20
-11 -28 6 -267 -122 -320 -171 -9 -8 -43 -38 -75 -67 -33 -29 -63 -57 -67 -63
-5 -5 -22 -26 -39 -46 -16 -20 -30 -42 -30 -48 0 -6 -4 -11 -9 -11 -9 0 -28
-29 -50 -77 -6 -13 -15 -23 -21 -23 -6 0 -9 4 -6 9 4 5 3 11 -1 13 -5 1 -26
29 -47 60 -40 59 -181 208 -197 208 -5 0 -17 8 -27 18 -23 23 -112 85 -112 78
0 -3 -21 7 -47 22 -27 16 -61 33 -78 39 -16 6 -39 15 -50 19 -11 4 -22 8 -25
9 -3 1 -18 7 -35 14 -16 7 -42 14 -57 16 -15 2 -36 9 -47 15 -11 5 -44 13 -73
16 -29 3 -56 8 -59 10 -4 2 -29 6 -56 10 l-50 6 -17 -49 c-9 -26 -21 -56 -27
-65 -5 -10 -9 -25 -9 -33 0 -8 -9 -42 -20 -74 -12 -33 -23 -79 -25 -103 -2
-24 -6 -70 -10 -103 -13 -126 -12 -176 10 -340 3 -27 10 -55 16 -61 5 -6 6
-13 3 -16 -3 -3 2 -23 11 -44 9 -22 18 -46 20 -54 5 -25 57 -134 73 -152 21
-25 7 -36 -40 -34 -51 3 -182 -17 -200 -30 -7 -6 -26 -11 -43 -13 -16 -1 -34
-7 -39 -12 -6 -5 -20 -9 -32 -9 -13 0 -26 -4 -29 -10 -3 -5 -15 -10 -25 -10
-10 0 -20 -3 -22 -7 -1 -5 -25 -19 -51 -33 -116 -60 -190 -115 -296 -219 -114
-113 -157 -162 -173 -196 -9 -21 -7 -29 14 -57 72 -93 220 -230 318 -294 25
-16 47 -31 50 -34 12 -12 131 -70 145 -70 8 0 15 -4 15 -10 0 -5 11 -10 24
-10 13 0 26 -4 28 -9 2 -5 20 -11 41 -14 20 -3 43 -9 50 -15 17 -14 120 -27
250 -31 33 -1 34 -15 3 -72 -24 -45 -84 -212 -85 -239 0 -8 -3 -26 -5 -40 -18
-95 -23 -230 -12 -320 15 -134 25 -192 34 -203 5 -6 13 -32 17 -56 12 -71 70
-206 89 -205 87 8 192 26 226 41 18 7 28 10 55 16 52 12 228 96 295 140 73 49
211 163 219 181 2 5 17 22 32 37 16 16 29 32 29 37 0 5 9 17 20 27 11 10 20
22 20 26 0 13 45 78 54 79 5 0 6 -3 3 -6 -4 -4 1 -14 11 -23 9 -9 30 -36 47
-61 31 -48 40 -59 108 -130 43 -45 70 -68 157 -133 56 -41 217 -127 239 -127
10 0 22 -5 29 -12 7 -7 12 -8 12 -4 0 5 6 4 13 -2 14 -12 130 -46 192 -57 11
-2 44 -8 74 -14 29 -6 62 -11 72 -11 19 0 49 50 49 82 0 10 5 18 10 18 6 0 10
9 10 21 0 11 4 28 10 38 12 24 49 190 57 261 12 105 4 344 -13 371 -3 6 -7 20
-9 32 -5 34 -34 128 -53 167 -9 19 -17 40 -18 47 -1 6 -14 28 -28 49 -14 21
-24 40 -21 42 8 8 85 19 85 12 0 -8 167 17 195 30 11 5 31 12 45 14 30 5 85
28 163 67 31 16 57 25 57 21 0 -4 4 -2 8 4 4 6 34 28 67 49 84 54 193 145 240
201 22 25 50 58 63 73 48 56 72 93 72 112 0 30 -155 196 -270 288 -36 28 -70
56 -77 61 -7 6 -17 10 -22 10 -5 0 -16 6 -23 13 -20 19 -175 93 -253 121 -87
30 -185 48 -290 52 -44 1 -81 3 -82 3 -2 1 11 26 27 56 16 30 27 55 24 55 -4
0 -2 6 4 13 16 19 47 114 57 172 2 11 6 36 10 55 14 72 19 230 10 315 -8 86
-49 256 -76 320 -5 11 -13 34 -19 50 -23 64 -35 85 -51 85 -9 0 -18 -2 -20 -4z"/>
</g>
</svg>
