<?xml version="1.0" standalone="no"?>
<!DOCTYPE svg PUBLIC "-//W3C//DTD SVG 20010904//EN"
 "http://www.w3.org/TR/2001/REC-SVG-20010904/DTD/svg10.dtd">
<svg version="1.0" xmlns="http://www.w3.org/2000/svg"
 width="558.000000pt" height="558.000000pt" viewBox="0 0 558.000000 558.000000"
 preserveAspectRatio="xMidYMid meet">
<metadata>
Created by potrace 1.13, written by Peter Selinger 2001-2015
</metadata>
<g transform="translate(0.000000,558.000000) scale(0.100000,-0.100000)"
fill="#000000" stroke="none">
<path d="M644 4463 c-9 -21 -16 -54 -16 -73 4 -130 7 -145 35 -181 38 -51 35
-59 -20 -56 -65 3 -67 -17 -9 -94 47 -62 49 -72 32 -149 0 -3 5 -32 13 -65 7
-33 15 -70 17 -83 3 -12 21 -41 41 -63 27 -30 36 -49 37 -77 1 -34 5 -39 56
-64 63 -32 90 -60 90 -93 0 -30 49 -71 103 -86 35 -9 47 -8 74 6 l33 18 45
-42 c47 -43 63 -48 94 -29 15 9 25 6 55 -17 42 -32 71 -28 64 9 -12 61 32 54
108 -18 57 -54 82 -58 106 -16 21 37 33 37 82 4 36 -25 41 -25 77 -14 33 11
42 11 63 -4 44 -28 86 -15 86 26 0 31 28 31 67 0 51 -39 77 -47 97 -27 9 9 16
20 16 25 0 5 9 14 20 20 19 10 44 3 102 -27 4 -2 20 8 35 23 26 26 28 27 56
11 45 -26 57 -22 57 20 0 27 3 34 11 26 10 -10 9 -35 -6 -118 -1 -5 -3 -16 -3
-22 -1 -8 -16 -13 -33 -13 -29 0 -31 -2 -25 -27 3 -16 10 -54 15 -85 5 -32 13
-62 16 -69 4 -6 -2 -24 -14 -39 -22 -31 -20 -47 11 -93 11 -15 18 -37 16 -50
-3 -19 -9 -22 -40 -20 -36 1 -36 1 -27 -29 5 -19 5 -38 -1 -49 -13 -23 -13
-65 0 -88 5 -10 12 -45 16 -78 5 -48 2 -66 -11 -86 -16 -25 -16 -28 11 -77 15
-27 24 -53 21 -56 -3 -4 -20 -1 -37 4 -38 14 -47 -1 -31 -51 7 -19 9 -52 5
-74 -4 -25 -1 -49 7 -64 19 -36 21 -135 3 -149 -18 -16 -18 -57 1 -94 19 -36
19 -36 -3 -31 -41 7 -48 -10 -29 -66 13 -34 16 -63 12 -89 -4 -27 -1 -48 10
-70 18 -35 17 -109 -3 -167 -9 -28 -7 -37 19 -78 l29 -45 -41 6 c-38 6 -40 6
-35 -17 2 -13 11 -37 20 -54 10 -19 14 -42 10 -62 -4 -21 1 -51 14 -85 47
-126 51 -145 37 -165 -21 -26 -19 -35 20 -92 24 -34 35 -62 35 -86 0 -47 32
-109 86 -167 24 -26 44 -53 44 -61 0 -7 7 -22 15 -33 14 -18 14 -18 10 4 -2
12 -6 26 -10 31 -6 11 42 51 62 51 7 0 31 -9 53 -20 57 -29 77 -26 94 14 12
29 21 35 58 42 71 13 145 5 190 -21 32 -18 47 -21 65 -14 30 11 55 0 110 -54
l42 -40 40 17 c45 21 66 59 57 103 -8 37 4 54 43 62 28 5 35 13 52 61 l19 54
-26 39 c-32 49 -28 71 13 75 46 5 58 23 39 61 -13 24 -15 50 -10 128 4 54 12
109 18 123 16 33 10 58 -25 98 -35 40 -37 62 -6 62 13 0 32 6 42 14 18 13 18
15 2 58 -21 54 -26 212 -9 245 20 37 14 68 -23 110 -45 53 -46 73 -1 73 44 0
51 20 28 73 -15 34 -18 65 -16 162 1 66 3 128 4 138 0 10 -15 36 -35 58 -43
48 -42 71 3 80 47 10 49 15 24 62 -19 37 -23 60 -25 183 -2 136 -4 143 -30
181 -34 48 -34 63 -2 92 l26 22 -19 27 c-11 15 -26 52 -34 82 -8 30 -17 61
-19 69 -2 9 4 17 16 19 28 6 36 22 29 59 -3 17 -1 39 4 49 6 11 7 27 1 41 -18
47 57 22 125 -41 37 -36 76 -51 76 -31 0 8 11 22 24 30 27 18 42 13 96 -27 22
-16 31 -17 58 -7 27 9 37 8 66 -10 44 -28 62 -26 92 6 l24 26 31 -22 c37 -28
105 -52 123 -45 8 3 19 19 25 35 12 35 17 36 64 4 36 -25 38 -25 68 -9 28 14
38 14 71 3 49 -16 70 -5 79 40 4 18 9 34 11 36 2 3 21 -4 41 -15 47 -25 53
-25 109 5 57 30 68 31 109 6 35 -21 59 -18 59 8 0 25 22 51 47 56 13 2 33 11
45 19 12 9 34 16 49 16 36 0 53 23 45 61 -8 39 7 59 44 59 32 0 40 15 40 69 0
49 14 62 52 49 40 -14 43 -6 13 30 -30 36 -32 63 -4 88 18 16 20 27 16 89 -2
38 -8 84 -14 101 -15 43 -4 57 49 63 4 1 10 26 13 56 7 49 5 60 -19 95 -14 22
-26 46 -26 53 0 19 32 47 53 47 23 0 21 9 -6 50 -13 19 -27 48 -31 65 -10 41
-24 55 -53 55 -13 0 -38 7 -54 16 -40 20 -59 12 -59 -26 0 -30 -1 -31 -32 -24
-28 7 -120 9 -208 5 -14 -1 -42 2 -62 5 -33 5 -41 2 -69 -25 -42 -42 -73 -47
-138 -21 -41 16 -60 19 -81 12 -15 -6 -48 -8 -73 -5 -43 5 -47 4 -57 -21 -12
-33 -16 -33 -51 5 l-28 30 -36 -35 c-44 -44 -80 -47 -156 -12 -53 25 -81 23
-101 -8 -5 -7 -16 -6 -35 4 -15 8 -31 16 -36 18 -4 2 -14 -13 -22 -32 -18 -42
-24 -43 -75 -14 -37 22 -39 22 -75 5 -49 -23 -75 -22 -139 10 -29 14 -61 23
-70 20 -13 -5 -22 -39 -17 -69 2 -13 -33 4 -62 30 -26 25 -27 25 -42 6 -8 -10
-15 -22 -15 -26 0 -15 -43 -8 -77 13 -18 12 -39 19 -46 16 -6 -3 -28 -12 -48
-21 -36 -15 -38 -14 -107 20 -39 20 -76 33 -82 29 -5 -3 -10 -20 -10 -36 0
-41 -23 -46 -61 -15 l-31 27 -24 -26 c-13 -14 -26 -25 -29 -25 -4 0 -26 11
-49 25 l-43 25 -43 -19 c-48 -21 -64 -18 -132 22 -58 35 -80 32 -89 -11 -4
-18 -9 -35 -11 -37 -3 -3 -20 9 -38 25 -41 36 -47 37 -62 5 -6 -14 -19 -25
-28 -25 -9 0 -31 11 -50 25 -39 29 -48 30 -86 10 -41 -21 -62 -19 -124 15 -63
34 -86 37 -111 14 -17 -15 -21 -15 -52 5 -19 11 -37 21 -41 21 -4 0 -14 -16
-22 -35 -8 -19 -18 -35 -23 -35 -5 0 -22 15 -38 33 -43 49 -48 50 -83 16 -36
-36 -57 -35 -148 6 -30 14 -71 25 -91 25 -20 0 -51 4 -69 9 -19 6 -43 6 -56 2
-15 -6 -34 -3 -62 9 -29 14 -49 16 -74 11 -27 -6 -43 -3 -68 12 -18 10 -36 17
-39 13 -10 -10 19 -56 31 -49 6 3 8 2 3 -2 -16 -18 -49 -14 -97 10 -27 14 -63
25 -80 25 -42 0 -160 30 -160 41 0 22 -21 5 -36 -28z"/>
</g>
</svg>
