<?xml version="1.0" standalone="no"?>
<!DOCTYPE svg PUBLIC "-//W3C//DTD SVG 20010904//EN"
 "http://www.w3.org/TR/2001/REC-SVG-20010904/DTD/svg10.dtd">
<svg version="1.0" xmlns="http://www.w3.org/2000/svg"
 width="558.000000pt" height="558.000000pt" viewBox="0 0 558.000000 558.000000"
 preserveAspectRatio="xMidYMid meet">
<metadata>
Created by potrace 1.13, written by Peter Selinger 2001-2015
</metadata>
<g transform="translate(0.000000,558.000000) scale(0.100000,-0.100000)"
fill="#000000" stroke="none">
<path d="M2655 4127 c-145 -149 -202 -201 -325 -303 -302 -251 -637 -460 -980
-614 -63 -29 -119 -55 -123 -60 -5 -4 2 -25 15 -46 77 -124 208 -415 271 -604
80 -237 143 -520 162 -731 4 -35 8 -75 10 -88 3 -14 7 -90 11 -170 3 -80 8
-147 9 -149 2 -2 101 93 222 211 339 332 482 464 804 741 272 234 728 603 759
614 8 3 80 -140 80 -158 0 -3 -44 -36 -97 -72 -197 -133 -673 -496 -840 -641
-364 -315 -470 -414 -807 -749 -104 -104 -186 -191 -183 -194 3 -3 48 8 99 25
85 28 320 92 393 106 131 27 318 55 405 62 181 13 567 6 623 -12 6 -2 35 -6
62 -9 111 -12 382 -74 547 -126 34 -10 63 -18 65 -16 2 1 5 81 8 178 3 96 7
193 9 214 3 22 7 77 11 124 4 47 8 87 10 90 2 3 6 32 10 65 7 72 62 345 75
381 6 14 12 38 15 55 9 52 95 300 147 423 48 116 133 289 202 414 l35 62 -72
32 c-151 67 -358 175 -509 265 -103 62 -162 91 -170 86 -7 -4 -146 -114 -308
-243 -253 -202 -798 -629 -982 -768 l-57 -44 -56 48 c-30 26 -55 50 -54 53 0
3 77 62 172 131 310 226 993 758 1132 884 l40 36 -30 22 c-64 49 -282 224
-320 257 -22 20 -111 107 -198 193 -86 87 -158 158 -160 157 -1 0 -60 -60
-132 -132z"/>
</g>
</svg>
