<?xml version="1.0" standalone="no"?>
<!DOCTYPE svg PUBLIC "-//W3C//DTD SVG 20010904//EN"
 "http://www.w3.org/TR/2001/REC-SVG-20010904/DTD/svg10.dtd">
<svg version="1.0" xmlns="http://www.w3.org/2000/svg"
 width="150.000000pt" height="130.000000pt" viewBox="0 0 150.000000 130.000000"
 preserveAspectRatio="xMidYMid meet">
<metadata>
Created by potrace 1.13, written by Peter Selinger 2001-2015
</metadata>
<g transform="translate(0.000000,130.000000) scale(0.100000,-0.100000)"
fill="#000000" stroke="none">
<path d="M1378 1283 c-26 -7 -32 -39 -30 -167 1 -102 -1 -124 -18 -150 -30
-49 -54 -59 -91 -41 -64 34 -198 30 -394 -10 -71 -14 -247 -5 -253 13 -2 7
-13 12 -25 12 -11 0 -32 11 -46 24 -15 13 -46 35 -71 48 -25 14 -61 34 -80 46
-28 18 -43 21 -75 16 -22 -4 -46 -15 -53 -25 -7 -11 -20 -19 -28 -19 -8 0 -25
-11 -37 -24 -13 -14 -43 -32 -67 -42 -25 -10 -48 -22 -52 -28 -12 -17 -9 -49
7 -80 8 -15 15 -34 15 -40 0 -24 46 -39 94 -32 59 9 136 -2 136 -19 0 -8 7
-20 15 -28 20 -21 65 -107 65 -126 0 -9 11 -35 24 -58 13 -22 20 -45 16 -50
-5 -4 -13 -24 -18 -43 -18 -58 -37 -103 -60 -140 -12 -19 -23 -38 -25 -43 -1
-4 -20 -10 -42 -14 -43 -6 -75 -28 -75 -50 0 -21 38 -53 63 -53 13 0 32 -9 43
-21 16 -18 27 -20 68 -15 45 5 53 11 125 87 42 45 87 101 100 123 14 23 27 43
31 46 3 3 18 26 33 51 29 51 55 65 133 72 31 2 62 12 81 26 16 12 46 26 65 30
35 8 36 7 41 -24 3 -17 24 -69 47 -115 25 -52 39 -92 36 -105 -3 -12 -27 -44
-54 -72 -60 -62 -71 -85 -39 -79 127 26 131 28 184 85 52 54 62 77 44 96 -13
16 -34 105 -26 113 4 4 12 -2 19 -12 6 -10 32 -44 57 -75 66 -81 66 -86 17
-136 -40 -39 -88 -98 -88 -107 0 -2 27 -3 60 -2 48 1 65 6 85 25 13 13 25 27
25 31 0 5 10 19 22 33 24 28 48 88 48 123 0 13 -16 44 -35 69 -42 55 -50 92
-36 168 13 72 14 168 2 181 -24 25 -15 52 32 94 49 44 81 103 98 181 13 61 -3
222 -24 243 -15 15 -52 19 -89 9z m43 -180 c-7 -42 -18 -23 -24 39 -4 43 -2
65 6 70 13 8 25 -67 18 -109z m-1276 -213 c3 -5 -1 -10 -9 -10 -9 0 -16 5 -16
10 0 6 4 10 9 10 6 0 13 -4 16 -10z m322 -32 c-3 -8 -6 -5 -6 6 -1 11 2 17 5
13 3 -3 4 -12 1 -19z m-24 -84 c-24 -18 -49 -18 -57 1 -3 8 -12 15 -21 15 -8
0 -15 5 -15 10 0 6 17 10 39 10 24 0 44 6 52 17 13 15 14 14 17 -11 2 -18 -3
-33 -15 -42z m686 -27 c0 -18 -3 -26 -6 -19 -2 6 -11 12 -18 12 -10 0 -11 5
-2 24 15 31 27 23 26 -17z m-249 -42 c0 -28 -4 -35 -20 -35 -12 0 -20 -7 -20
-17 0 -10 -11 -23 -25 -30 -23 -10 -25 -9 -25 13 0 14 6 24 14 24 8 0 20 15
26 34 10 31 21 43 43 45 4 1 7 -15 7 -34z m200 -67 c-11 -12 -20 -28 -20 -35
0 -7 -4 -13 -10 -13 -13 0 -13 -33 1 -47 6 -6 9 -19 7 -29 -3 -13 -9 -5 -18
24 -11 36 -11 52 -1 90 7 26 16 49 22 50 5 2 9 13 10 25 0 18 3 16 15 -11 13
-30 13 -34 -6 -54z m57 -65 c-3 -10 -5 -4 -5 12 0 17 2 24 5 18 2 -7 2 -21 0
-30z m-666 -124 c-5 -13 -10 -19 -10 -12 -1 15 10 45 15 40 3 -2 0 -15 -5 -28z
m639 -19 c13 -8 13 -10 -2 -10 -9 0 -20 5 -23 10 -8 13 5 13 25 0z m-718 -162
c-7 -7 -12 -8 -12 -2 0 14 12 26 19 19 2 -3 -1 -11 -7 -17z"/>
</g>
</svg>
