<?xml version="1.0" standalone="no"?>
<!DOCTYPE svg PUBLIC "-//W3C//DTD SVG 20010904//EN"
 "http://www.w3.org/TR/2001/REC-SVG-20010904/DTD/svg10.dtd">
<svg version="1.0" xmlns="http://www.w3.org/2000/svg"
 width="283.000000pt" height="173.000000pt" viewBox="0 0 283.000000 173.000000"
 preserveAspectRatio="xMidYMid meet">
<metadata>
Created by potrace 1.13, written by Peter Selinger 2001-2015
</metadata>
<g transform="translate(0.000000,173.000000) scale(0.100000,-0.100000)"
fill="#000000" stroke="none">
<path d="M430 1703 c-25 -8 -61 -24 -80 -33 -19 -10 -53 -23 -75 -30 -22 -7
-49 -19 -60 -26 -11 -7 -36 -16 -57 -19 -97 -18 -105 -108 -16 -191 21 -21 48
-34 76 -39 23 -4 42 -10 42 -14 0 -4 21 -12 48 -19 92 -26 106 -35 121 -88 16
-54 31 -85 46 -96 6 -4 -1 -8 -14 -8 -21 0 -23 -3 -17 -31 3 -17 6 -35 6 -40
0 -5 9 -9 20 -9 11 0 20 -7 20 -15 0 -10 10 -15 30 -15 27 0 29 -2 24 -30 -6
-26 -4 -30 16 -30 13 0 24 8 27 19 9 34 40 14 47 -31 4 -21 15 -49 26 -61 22
-23 25 -33 10 -42 -15 -9 -12 -45 4 -45 17 0 31 -35 27 -67 -1 -13 2 -23 8
-23 13 0 3 -258 -10 -275 -4 -6 -13 -33 -20 -60 -7 -28 -21 -69 -31 -93 -10
-24 -18 -45 -18 -47 0 -13 74 -46 93 -41 14 3 36 -3 57 -15 26 -17 43 -19 78
-14 62 9 72 14 72 37 0 23 52 78 73 78 10 0 16 17 20 56 3 30 13 67 23 81 13
20 15 38 10 80 -8 67 0 103 24 103 11 0 20 10 24 26 7 27 36 63 36 45 0 -14
37 -14 42 0 2 6 34 12 72 14 40 2 75 10 84 18 26 22 62 28 69 11 7 -20 83 -19
83 1 0 12 13 15 55 15 30 0 55 4 55 9 0 5 13 11 30 13 27 4 31 1 47 -40 9 -25
36 -73 59 -108 41 -62 42 -63 35 -125 -7 -57 -11 -65 -52 -101 -24 -22 -50
-44 -56 -49 -23 -18 -14 -35 36 -67 52 -34 111 -43 111 -18 0 8 17 36 38 63
21 26 39 51 40 56 1 4 9 23 17 43 8 20 15 45 15 55 0 11 7 19 15 19 8 0 15 7
15 15 0 8 6 15 14 15 16 0 25 44 23 106 l-2 42 36 -19 c76 -38 103 -72 151
-189 6 -14 14 -33 19 -42 13 -26 11 -41 -5 -35 -9 4 -20 -9 -32 -36 -20 -43
-20 -64 -2 -109 9 -25 15 -28 57 -28 60 0 67 6 75 60 4 25 20 64 36 87 l30 41
-17 64 c-9 35 -18 106 -20 158 -3 65 -9 97 -18 102 -8 5 -11 17 -8 29 3 12 0
25 -7 29 -12 8 -18 89 -19 255 0 22 -8 56 -17 77 -9 21 -15 41 -12 44 10 9 88
-20 88 -33 0 -7 5 -13 10 -13 6 0 10 -6 10 -14 0 -8 14 -17 30 -21 21 -5 30
-13 30 -26 0 -10 6 -19 13 -19 7 0 18 -15 25 -32 23 -63 103 -107 195 -108 26
0 37 4 37 15 0 8 7 15 16 15 24 0 102 60 108 84 11 41 6 101 -12 129 -11 20
-57 50 -142 94 -180 94 -184 95 -365 104 -141 6 -168 10 -230 35 -85 33 -170
36 -510 14 -264 -16 -314 -16 -425 6 -88 18 -110 32 -203 132 -11 12 -26 22
-32 22 -7 0 -39 25 -71 56 -86 81 -161 116 -254 120 -51 3 -89 -1 -120 -13z
m445 -1293 c-4 -17 -12 -30 -19 -30 -10 0 -11 10 -3 46 8 34 13 41 20 29 4 -9
5 -29 2 -45z m-21 -120 c-6 -6 -19 -7 -30 -3 -17 6 -17 8 6 13 29 8 38 4 24
-10z"/>
</g>
</svg>
