<?xml version="1.0" standalone="no"?>
<!DOCTYPE svg PUBLIC "-//W3C//DTD SVG 20010904//EN"
 "http://www.w3.org/TR/2001/REC-SVG-20010904/DTD/svg10.dtd">
<svg version="1.0" xmlns="http://www.w3.org/2000/svg"
 width="150.000000pt" height="130.000000pt" viewBox="0 0 150.000000 130.000000"
 preserveAspectRatio="xMidYMid meet">
<metadata>
Created by potrace 1.13, written by Peter Selinger 2001-2015
</metadata>
<g transform="translate(0.000000,130.000000) scale(0.100000,-0.100000)"
fill="#000000" stroke="none">
<path d="M31 1274 c-19 -23 -34 -186 -22 -243 17 -78 49 -137 98 -181 47 -42
56 -69 32 -94 -12 -13 -11 -109 2 -181 14 -76 6 -113 -36 -168 -19 -25 -35
-56 -35 -69 0 -35 24 -95 48 -123 12 -14 22 -28 22 -33 0 -4 12 -18 25 -31 20
-19 37 -24 85 -25 33 -1 60 0 60 2 0 9 -48 68 -88 107 -49 50 -49 55 17 136
25 31 51 65 57 75 7 10 15 16 19 12 8 -8 -13 -97 -26 -113 -18 -19 -8 -42 44
-96 53 -57 57 -59 184 -85 32 -6 21 17 -39 79 -27 28 -51 60 -54 72 -3 13 11
53 36 105 23 46 44 98 47 115 5 31 6 32 41 24 19 -4 49 -18 65 -30 19 -14 50
-24 81 -26 78 -7 104 -21 133 -72 15 -25 30 -48 33 -51 4 -3 17 -23 31 -46 13
-22 58 -78 100 -123 72 -76 80 -82 125 -87 41 -5 52 -3 68 15 11 12 30 21 43
21 25 0 63 32 63 53 0 22 -32 44 -75 50 -22 4 -41 10 -42 14 -2 5 -13 24 -25
43 -23 37 -42 82 -60 140 -5 19 -13 39 -18 43 -4 5 3 28 16 50 13 23 24 49 24
58 0 19 45 105 65 126 8 8 15 20 15 28 0 17 77 28 136 19 48 -7 94 8 94 32 0
6 7 25 15 40 16 31 19 63 7 80 -4 6 -27 18 -52 28 -24 10 -54 28 -67 42 -12
13 -29 24 -37 24 -8 0 -21 8 -28 19 -7 10 -31 21 -53 25 -32 5 -47 2 -75 -16
-19 -12 -55 -32 -80 -46 -25 -13 -56 -35 -71 -48 -14 -13 -35 -24 -46 -24 -12
0 -23 -5 -25 -12 -6 -18 -182 -27 -253 -13 -196 40 -330 44 -394 10 -37 -19
-61 -8 -93 43 -18 30 -20 44 -15 120 5 82 -3 175 -16 188 -3 4 -25 8 -49 10
-31 3 -47 0 -57 -12z m72 -127 c-3 -34 -7 -64 -9 -66 -12 -13 -17 20 -15 91 1
37 4 46 16 42 11 -5 13 -18 8 -67z m1277 -257 c0 -5 -7 -10 -16 -10 -8 0 -12
5 -9 10 3 6 10 10 16 10 5 0 9 -4 9 -10z m-343 -32 c-3 -8 -6 -5 -6 6 -1 11 2
17 5 13 3 -3 4 -12 1 -19z m76 -48 c20 0 37 -4 37 -10 0 -5 -7 -10 -15 -10 -9
0 -18 -7 -21 -15 -14 -36 -74 -3 -74 40 0 27 1 27 18 12 10 -10 35 -17 55 -17z
m-717 -69 c-6 -2 -14 -9 -18 -15 -4 -6 -8 3 -8 20 0 40 10 49 25 21 8 -15 8
-23 1 -26z m248 -7 c8 -3 20 -21 26 -40 6 -19 18 -34 26 -34 8 0 14 -10 14
-24 0 -22 -2 -23 -25 -13 -14 7 -25 20 -25 30 0 10 -8 17 -20 17 -16 0 -20 7
-20 35 0 38 0 38 24 29z m-203 -54 c4 -3 13 -26 20 -52 10 -38 10 -54 -1 -90
-9 -29 -15 -37 -18 -24 -2 10 1 23 7 29 14 14 14 47 1 47 -5 0 -10 6 -10 13 0
7 -9 23 -20 34 -17 19 -18 26 -8 55 10 27 13 29 16 13 2 -11 8 -22 13 -25z
m-74 -107 c-3 -10 -5 -4 -5 12 0 17 2 24 5 18 2 -7 2 -21 0 -30z m672 -133 c0
-10 -3 -8 -9 5 -12 27 -12 43 0 25 5 -8 9 -22 9 -30z m-624 -10 c-3 -5 -14
-10 -23 -10 -15 0 -15 2 -2 10 20 13 33 13 25 0z m705 -161 c0 -6 -4 -7 -10
-4 -5 3 -10 11 -10 16 0 6 5 7 10 4 6 -3 10 -11 10 -16z"/>
</g>
</svg>
