<?xml version="1.0" standalone="no"?>
<!DOCTYPE svg PUBLIC "-//W3C//DTD SVG 20010904//EN"
 "http://www.w3.org/TR/2001/REC-SVG-20010904/DTD/svg10.dtd">
<svg version="1.0" xmlns="http://www.w3.org/2000/svg"
 width="526.000000pt" height="408.000000pt" viewBox="0 0 526.000000 408.000000"
 preserveAspectRatio="xMidYMid meet">
<metadata>
Created by potrace 1.13, written by Peter Selinger 2001-2015
</metadata>
<g transform="translate(0.000000,408.000000) scale(0.100000,-0.100000)"
fill="#000000" stroke="none">
<path d="M4200 4047 c-51 -21 -160 -114 -160 -137 0 -13 -65 -121 -87 -145
-112 -122 -195 -309 -191 -436 1 -55 -3 -78 -23 -117 -23 -47 -30 -52 -169
-124 -80 -42 -179 -86 -220 -98 -41 -11 -118 -36 -170 -53 l-95 -32 -240 -2
c-132 -2 -368 -7 -525 -12 -309 -10 -268 -3 -485 -79 -33 -12 -114 -33 -180
-48 -66 -15 -154 -43 -195 -62 -41 -19 -107 -49 -147 -68 -39 -18 -90 -44
-112 -58 -86 -54 -264 -97 -426 -101 -44 -2 -143 -7 -221 -13 -223 -17 -394
-81 -394 -149 0 -13 -5 -33 -11 -44 -8 -17 -3 -26 34 -63 25 -24 62 -69 82
-99 34 -51 47 -61 134 -103 53 -26 103 -52 111 -59 8 -6 44 -17 80 -24 57 -11
216 -64 365 -120 28 -11 70 -23 94 -26 30 -5 55 -17 73 -36 29 -28 29 -29 26
-139 -2 -72 1 -113 8 -118 18 -12 34 -71 34 -126 1 -28 5 -71 9 -95 5 -25 5
-54 1 -66 -8 -21 -53 -80 -111 -145 -49 -56 -52 -66 -38 -122 14 -61 7 -393
-10 -448 -6 -19 -11 -94 -11 -166 l0 -132 54 -25 c73 -35 116 -42 141 -24 14
11 26 12 43 6 31 -12 83 -3 144 24 46 21 68 49 68 88 0 35 -40 100 -72 117
-17 9 -47 31 -66 48 l-35 30 1 132 c1 124 2 135 29 184 51 97 116 181 212 274
50 49 57 53 68 37 16 -21 16 -47 2 -113 -10 -48 -9 -54 15 -90 14 -22 26 -51
26 -65 0 -13 9 -57 19 -97 11 -40 22 -85 25 -101 4 -15 11 -27 17 -27 10 0 24
-10 61 -44 17 -15 31 -17 92 -12 188 15 218 27 236 90 9 32 9 49 1 64 -14 26
-88 62 -128 62 -22 0 -42 10 -66 33 -31 29 -35 38 -41 110 -6 71 -5 81 18 120
13 23 28 60 31 82 9 50 39 103 76 134 21 17 29 33 29 55 0 42 31 89 82 126 56
41 74 44 170 30 46 -7 108 -16 138 -20 30 -4 96 -20 145 -35 116 -35 146 -43
225 -55 100 -16 507 -40 680 -40 173 0 191 -5 216 -66 8 -18 14 -66 14 -107 0
-40 5 -78 10 -83 6 -6 11 -37 12 -70 0 -32 5 -67 10 -78 7 -13 6 -21 -2 -26
-10 -6 -9 -14 3 -36 24 -44 61 -174 63 -221 1 -24 8 -53 16 -65 8 -13 20 -50
27 -83 20 -89 27 -114 51 -175 12 -30 30 -75 39 -100 9 -25 23 -55 31 -66 14
-19 136 -104 149 -104 3 0 38 7 76 16 39 8 99 21 135 27 86 16 120 45 120 101
-1 46 -10 61 -58 95 -18 13 -31 26 -28 28 3 3 33 9 68 14 163 21 208 41 208
93 0 27 -18 65 -42 89 -23 23 -108 67 -129 67 -40 0 -73 129 -84 320 -3 63
-13 173 -21 244 -17 135 -16 182 10 436 11 118 26 196 61 325 25 94 57 238 70
320 14 83 37 193 51 245 42 154 44 161 44 261 0 118 11 177 45 249 55 116 64
126 123 133 26 4 72 11 102 18 30 6 87 14 126 17 100 10 152 46 200 138 76
144 76 145 72 195 -6 60 -28 80 -165 149 -122 61 -183 116 -183 166 0 52 -16
81 -84 158 -92 102 -156 132 -307 146 -228 22 -259 21 -319 -3z m256 -42 c198
-19 237 -36 333 -146 68 -77 70 -81 65 -122 -5 -40 -3 -44 45 -93 32 -32 83
-68 136 -94 75 -38 82 -45 67 -56 -9 -8 -25 -14 -35 -14 -20 0 -47 -23 -47
-39 0 -6 -16 -11 -35 -11 -28 0 -35 -4 -35 -20 0 -11 -5 -20 -11 -20 -7 0 -9
-10 -7 -25 4 -17 1 -25 -8 -25 -8 0 -14 -8 -14 -19 0 -24 68 -40 82 -19 7 9 8
8 4 -5 -3 -10 -6 -23 -6 -28 0 -5 -9 -9 -20 -9 -15 0 -20 -7 -21 -27 -2 -24
-2 -25 -6 -5 -6 29 -43 31 -43 2 0 -11 5 -20 10 -20 6 0 10 -9 10 -20 0 -26
37 -27 42 -1 3 16 5 17 16 5 11 -12 5 -18 -43 -39 -63 -28 -76 -29 -125 -10
l-35 14 38 -5 c33 -6 37 -4 37 15 0 16 -10 23 -45 32 -25 6 -48 15 -51 20 -3
5 -14 9 -26 9 -16 0 -19 -5 -16 -23 4 -20 1 -23 -19 -19 -25 5 -29 -10 -16
-56 5 -21 10 -23 39 -17 20 3 34 2 34 -4 0 -9 -20 -14 -97 -25 -13 -2 -27 2
-33 9 -8 9 -4 11 15 7 20 -3 25 0 25 16 0 41 -32 91 -59 94 -25 3 -26 7 -31
74 -4 56 -14 89 -46 155 -66 138 -85 189 -68 189 8 0 14 5 14 10 0 6 6 10 14
10 21 0 46 28 46 51 0 20 -34 28 -44 10 -3 -5 -17 -11 -31 -13 l-25 -5 4 66
c3 36 8 80 12 98 7 35 -11 63 -40 63 -13 0 -16 -12 -16 -55 0 -42 -3 -55 -15
-55 -18 0 -18 4 -3 47 15 40 3 53 -48 53 -23 0 -34 -6 -42 -25 -14 -31 -16
-65 -3 -65 20 0 41 -33 41 -66 0 -27 4 -34 19 -34 11 0 22 6 24 13 3 6 6 -5 6
-25 1 -36 0 -37 -25 -28 -14 6 -32 10 -40 10 -18 0 -18 -34 0 -52 7 -8 17 -24
20 -36 4 -12 16 -22 26 -22 10 0 22 -9 25 -20 3 -11 15 -20 26 -20 10 0 19 -4
19 -10 0 -5 -7 -10 -15 -10 -20 0 -19 -21 2 -70 20 -45 50 -54 55 -17 3 19 6
16 22 -18 11 -22 25 -67 32 -100 11 -54 11 -64 -6 -102 -13 -30 -30 -48 -59
-62 -52 -27 -63 -26 -119 6 -115 65 -210 135 -205 150 3 8 0 26 -8 39 -11 22
-18 25 -45 19 -24 -4 -33 -1 -38 10 -4 11 -15 15 -33 13 -21 -2 -27 1 -24 12
3 8 7 54 9 101 4 79 6 86 23 82 23 -6 26 -23 4 -23 -26 0 -18 -52 12 -77 52
-45 89 -16 38 31 -30 28 -32 41 -4 25 12 -6 30 -9 40 -6 14 4 19 0 19 -15 0
-11 8 -22 19 -25 11 -3 22 -16 25 -29 4 -13 13 -24 21 -24 14 0 18 -14 30
-110 6 -52 38 -110 59 -110 7 0 16 -9 19 -20 6 -25 47 -28 47 -3 0 32 -24 82
-42 86 -11 3 -18 14 -18 31 0 16 -6 26 -15 26 -8 0 -15 5 -15 10 0 6 9 10 20
10 25 0 25 9 -1 81 -14 37 -28 59 -40 62 -10 3 -19 12 -19 21 0 9 -7 16 -15
16 -8 0 -15 7 -15 15 0 8 -7 15 -15 15 -8 0 -15 7 -15 16 0 9 5 13 13 10 6 -3
20 -9 30 -12 9 -4 17 -13 17 -20 0 -8 11 -19 24 -24 13 -5 27 -18 31 -29 7
-24 45 -29 45 -6 0 35 -59 130 -92 149 -34 20 -78 63 -78 78 0 4 -9 8 -21 8
-19 0 -20 -4 -14 -40 6 -33 4 -40 -9 -40 -10 0 -16 -10 -17 -27 -1 -17 -3 -21
-6 -10 -5 18 -43 24 -43 7 0 -5 -7 -10 -16 -10 -11 0 -14 5 -10 16 3 9 6 21 6
27 0 7 11 24 25 39 14 15 25 31 25 36 0 5 11 18 25 28 14 10 25 27 25 38 0 15
-5 17 -31 12 l-30 -6 27 50 c35 65 70 99 136 132 63 32 53 32 244 13z m-511
-372 c-4 -15 -9 -68 -10 -116 -1 -48 -5 -91 -9 -95 -10 -9 -26 19 -26 46 0 15
-6 22 -20 22 -17 0 -20 -7 -20 -42 0 -23 5 -70 11 -104 9 -55 15 -65 39 -76
16 -7 31 -21 34 -31 2 -10 14 -21 25 -24 12 -3 21 -10 21 -17 0 -6 9 -29 20
-51 10 -22 25 -55 32 -72 7 -19 20 -33 29 -33 9 0 19 -7 22 -15 5 -11 0 -13
-23 -8 -25 4 -30 2 -30 -14 0 -16 -6 -18 -35 -15 -29 4 -35 1 -35 -15 0 -12
15 -28 38 -41 53 -31 110 -84 95 -89 -33 -12 9 -73 49 -73 10 0 21 -7 24 -15
4 -8 12 -15 20 -15 15 0 18 -19 15 -95 -3 -57 25 -105 61 -105 18 0 19 4 14
35 -6 28 -4 35 9 35 22 0 19 23 -10 80 -18 35 -31 50 -45 50 -14 0 -20 7 -20
21 0 12 -15 42 -33 68 -18 25 -32 53 -30 63 6 25 31 30 38 7 7 -21 45 -27 45
-6 0 48 -42 127 -68 127 -5 0 -13 12 -17 28 -3 15 -15 36 -25 47 -10 11 -21
30 -25 43 -3 12 -12 22 -19 22 -7 0 -23 11 -36 25 -13 14 -29 25 -37 25 -7 0
-13 7 -13 15 0 9 -7 27 -16 40 -9 14 -14 25 -11 25 3 0 33 -16 67 -35 34 -19
63 -35 65 -35 2 0 27 -16 56 -35 30 -19 48 -35 41 -35 -13 0 -15 -30 -6 -78 5
-23 17 -37 45 -52 22 -11 46 -20 54 -20 8 0 15 -4 15 -9 0 -11 -25 -21 -51
-21 -12 0 -19 -7 -19 -20 0 -11 7 -20 15 -20 8 0 15 -4 15 -9 0 -5 18 -12 40
-16 25 -4 44 -14 51 -27 9 -17 8 -18 -10 -9 -52 28 -71 -11 -26 -53 14 -13 25
-32 25 -42 0 -11 9 -25 19 -31 17 -10 19 -22 16 -85 -2 -40 -4 -92 -4 -115 -1
-28 -5 -43 -14 -43 -7 0 -24 -8 -37 -17 -25 -18 -92 -19 -98 -2 -2 5 -12 9
-23 9 -15 0 -19 -7 -19 -32 0 -44 9 -54 49 -63 32 -7 33 -9 28 -42 -4 -20 -20
-81 -38 -136 -33 -106 -51 -130 -121 -167 -53 -28 -158 -162 -158 -202 0 -11
-9 -31 -20 -45 -11 -14 -20 -33 -20 -42 0 -19 -53 -56 -95 -66 -24 -5 -28 -4
-17 6 14 15 16 49 2 49 -5 0 -10 7 -10 15 0 8 -5 15 -11 15 -5 0 -7 4 -4 10 3
5 3 25 -1 45 -6 32 -9 35 -40 35 -26 0 -34 4 -34 18 0 18 -37 42 -65 42 -8 0
-15 -9 -15 -20 0 -11 4 -20 9 -20 5 0 12 -11 15 -25 4 -14 13 -25 21 -25 8 0
15 -8 15 -18 0 -10 8 -24 19 -31 17 -13 18 -16 3 -63 -14 -41 -14 -51 -3 -58
19 -11 -18 -30 -61 -30 -33 0 -34 1 -30 37 5 36 4 36 -27 30 -18 -4 -31 -2
-31 3 0 6 -7 10 -15 10 -8 0 -15 7 -15 15 0 8 -4 15 -9 15 -16 0 -23 90 -11
141 9 35 9 53 1 62 -5 7 -8 23 -4 35 4 16 -1 28 -17 42 -13 11 -27 20 -32 20
-4 0 -8 9 -8 20 0 11 -5 20 -11 20 -14 0 -69 61 -69 77 0 7 -7 13 -15 13 -8 0
-15 7 -15 15 0 8 -7 15 -16 15 -27 0 -54 -20 -54 -41 0 -19 -4 -20 -41 -14
-40 7 -40 7 -37 -21 2 -21 9 -30 26 -32 12 -2 22 -7 22 -12 0 -4 18 -11 40
-15 38 -6 40 -9 40 -41 0 -24 5 -34 15 -34 8 0 15 -4 15 -10 0 -5 7 -10 15
-10 8 0 15 -4 15 -10 0 -5 7 -10 16 -10 21 0 44 -25 44 -48 0 -11 5 -22 11
-24 12 -4 -32 -101 -51 -113 -16 -10 -12 -45 5 -45 9 0 18 -12 21 -29 4 -20
14 -31 30 -35 52 -13 21 -26 -64 -26 -60 0 -94 -5 -107 -14 -23 -17 -86 -10
-99 11 -6 11 -18 13 -41 9 -28 -6 -35 -3 -40 14 -7 22 -44 28 -46 8 -2 -25
-17 48 -18 90 -1 30 -5 42 -16 42 -10 0 -15 10 -15 30 0 39 -35 43 -44 5 -7
-28 8 -105 22 -114 13 -8 25 -51 15 -51 -4 0 -49 11 -98 25 -68 19 -114 25
-192 25 -56 0 -108 3 -117 6 -8 3 -20 21 -26 40 -6 19 -17 34 -25 34 -7 0 -18
13 -25 30 -7 17 -19 30 -27 30 -22 0 -50 32 -58 68 -4 20 -13 32 -23 32 -9 0
-30 16 -45 35 -30 38 -67 47 -67 17 0 -10 11 -29 25 -42 14 -13 28 -39 31 -57
4 -23 14 -37 29 -43 12 -5 25 -20 29 -34 3 -14 13 -26 21 -26 8 0 15 -4 15
-10 0 -5 8 -10 19 -10 17 0 37 -37 26 -49 -3 -2 -44 8 -92 23 -49 14 -98 26
-110 26 -27 0 -73 20 -73 32 0 4 -9 8 -20 8 -12 0 -32 7 -46 16 -21 14 -44 16
-142 11 -64 -2 -125 -8 -134 -12 -26 -10 -24 28 3 59 22 26 49 25 49 -1 0 -12
7 -14 30 -9 22 4 30 2 30 -9 0 -19 39 -19 63 -1 23 18 22 46 -3 46 -11 0 -20
7 -20 15 0 8 -9 15 -20 15 -11 0 -20 6 -20 14 0 19 -62 29 -92 16 -13 -6 -32
-24 -43 -40 -18 -26 -20 -27 -42 -13 -16 11 -34 13 -60 9 -21 -4 -61 -7 -89
-6 -37 0 -57 -5 -76 -20 -15 -11 -34 -20 -43 -20 -9 0 -24 -4 -34 -10 -17 -8
-17 -6 -9 42 6 34 6 53 -1 57 -15 10 -17 62 -3 88 16 30 15 53 -3 53 -17 0
-18 8 -9 63 8 45 20 48 29 7 9 -39 28 -38 65 3 28 30 29 31 30 10 0 -13 5 -23
11 -23 5 0 7 -5 4 -11 -13 -19 4 -59 25 -59 13 0 20 -7 20 -20 0 -11 5 -20 10
-20 6 0 10 -7 10 -15 0 -8 5 -15 10 -15 7 0 7 -6 0 -19 -16 -31 -12 -51 10
-51 11 0 20 4 20 8 0 5 18 26 40 48 46 45 51 71 15 80 -14 3 -25 10 -25 15 0
5 -9 9 -20 9 -21 0 -27 15 -10 25 14 9 13 115 -2 115 -6 0 -4 7 5 18 19 20 23
52 7 52 -5 0 -10 7 -10 15 0 8 -7 15 -15 15 -8 0 -15 7 -15 15 0 8 5 15 10 15
6 0 10 8 10 18 0 10 15 26 35 36 19 11 35 25 35 33 0 16 14 17 39 1 15 -9 25
-9 45 0 31 14 34 48 6 57 -23 7 -17 25 8 25 9 0 33 14 52 31 19 17 47 37 63
45 34 18 37 54 5 55 l-23 0 22 11 c12 6 23 18 26 28 3 11 16 20 33 22 22 2 30
9 32 27 4 23 2 24 -43 18 -25 -4 -72 -19 -103 -34 l-57 -28 -1 -55 c0 -62 -7
-80 -32 -80 -16 1 -16 2 1 14 9 7 17 25 17 38 0 24 -3 26 -50 26 -42 0 -50 -3
-50 -19 0 -11 7 -19 15 -19 8 0 15 -4 15 -8 0 -14 -23 -32 -42 -32 -11 0 -18
-7 -18 -20 0 -13 7 -20 20 -20 19 0 19 -1 2 -22 -9 -11 -26 -30 -37 -42 -18
-19 -20 -19 -23 -3 -4 22 -30 22 -54 0 -17 -15 -18 -15 -18 5 0 28 -25 28 -65
2 -16 -11 -38 -20 -47 -20 -15 0 -18 -9 -18 -44 0 -24 5 -46 10 -48 6 -2 13
-19 16 -39 5 -29 1 -41 -19 -62 -13 -15 -31 -27 -40 -27 -13 0 -14 5 -5 30 5
17 8 39 5 50 -3 13 0 20 9 20 19 0 18 35 -1 54 -16 16 -19 32 -7 38 17 7 72
84 72 100 0 22 -32 24 -49 4 -7 -8 -20 -12 -30 -9 -11 3 -31 -8 -52 -27 -49
-46 -83 -61 -118 -54 -20 4 -31 2 -31 -5 0 -6 -18 -11 -45 -11 -25 0 -56 -7
-70 -16 -14 -9 -51 -16 -92 -18 -41 -2 -86 -11 -115 -24 -41 -18 -48 -19 -48
-6 0 13 -8 14 -42 9 -24 -4 -52 -12 -63 -18 -13 -7 -20 -7 -23 2 -5 14 -59 14
-101 0 -34 -12 -44 -48 -13 -50 16 -1 16 -2 0 -6 -28 -7 -23 -43 6 -43 13 0
26 -5 28 -12 5 -15 58 -2 58 15 0 22 61 39 155 43 50 3 107 11 127 19 35 13
37 13 43 -5 4 -11 14 -20 22 -20 14 0 13 -4 -5 -23 -25 -27 -29 -57 -7 -57 11
0 13 -8 8 -32 -6 -31 -6 -31 25 -25 42 9 41 -5 -3 -29 -33 -17 -49 -54 -24
-54 7 0 8 -14 4 -40 -8 -44 2 -50 50 -28 25 11 37 58 15 58 -18 0 -11 29 10
40 12 6 20 21 20 35 0 23 4 25 43 26 23 1 54 0 69 -1 20 -1 39 9 65 34 l38 36
3 -25 c2 -14 7 -25 12 -25 5 0 1 -15 -8 -32 -10 -20 -17 -60 -18 -98 -1 -36
-5 -78 -9 -94 -7 -27 -6 -29 18 -24 15 3 25 2 23 -1 -1 -3 -6 -14 -9 -23 -5
-15 -10 -16 -32 -6 -14 6 -25 15 -25 20 0 13 -38 9 -43 -4 -2 -7 -7 2 -11 20
-4 17 -13 32 -19 32 -28 0 -57 -13 -57 -25 0 -15 -53 -28 -58 -14 -2 5 -15 9
-28 9 -17 0 -24 -6 -24 -20 0 -11 5 -20 10 -20 6 0 10 -11 10 -24 0 -13 6 -27
13 -30 6 -3 -1 -3 -18 1 -31 6 -55 27 -55 50 0 7 -9 13 -20 13 -11 0 -20 -6
-20 -14 0 -9 -8 -12 -25 -8 -14 2 -25 8 -25 13 0 5 -6 9 -14 9 -8 0 -17 11
-20 25 -4 17 -13 25 -27 25 -18 0 -21 -5 -17 -31 4 -27 2 -30 -16 -25 -12 3
-28 6 -36 6 -8 0 -24 14 -35 30 -19 28 -55 41 -55 20 0 -5 -6 -10 -13 -10 -9
0 -11 12 -9 40 4 35 2 40 -17 40 -13 0 -26 -10 -33 -25 -6 -14 -15 -25 -19
-25 -14 0 -23 24 -11 28 7 2 12 15 12 28 0 17 -6 24 -19 24 -11 0 -23 -4 -26
-10 -10 -17 -58 -11 -90 10 -16 11 -40 20 -53 20 -13 0 -34 11 -48 25 -14 14
-28 25 -31 25 -4 0 -24 8 -44 17 -33 15 -39 23 -39 49 0 19 6 34 15 38 8 3 15
15 15 27 0 14 10 24 30 32 17 6 30 17 30 24 0 8 12 13 30 13 17 0 33 6 36 14
4 10 32 16 93 21 89 7 272 15 324 15 40 -1 254 56 297 79 19 10 64 33 100 52
95 50 241 118 275 128 17 5 39 12 50 17 14 5 12 1 -8 -17 -39 -33 -44 -92 -8
-97 49 -7 69 6 76 48 6 33 13 43 42 57 19 9 37 22 40 30 3 7 15 13 27 13 11 0
55 14 96 31 146 61 148 61 445 70 154 5 395 10 535 12 252 3 256 4 325 31 39
16 88 32 111 36 81 17 172 54 314 128 145 75 145 75 174 132 25 49 29 68 29
141 0 109 41 226 112 321 24 31 30 29 20 -9z m199 -9 c5 -14 4 -15 -9 -4 -17
14 -19 20 -6 20 5 0 12 -7 15 -16z m839 -291 c-7 -2 -19 -2 -25 0 -7 3 -2 5
12 5 14 0 19 -2 13 -5z m40 -100 c-7 -2 -19 -2 -25 0 -7 3 -2 5 12 5 14 0 19
-2 13 -5z m-423 -100 c0 -9 -10 -11 -32 -6 -41 7 -43 9 -29 27 9 11 17 11 36
2 14 -6 25 -17 25 -23z m-148 -78 c-2 -14 -6 -25 -8 -25 -2 0 -4 11 -4 25 0
14 4 25 9 25 4 0 6 -11 3 -25z m-52 -30 c0 -25 4 -45 9 -45 5 0 13 -15 16 -32
4 -18 11 -35 15 -38 4 -3 10 -45 13 -95 l6 -90 -25 45 c-14 25 -33 53 -41 63
-15 15 -15 17 0 17 24 0 21 23 -9 82 -14 28 -32 71 -39 95 l-13 43 34 0 c34 0
34 0 34 -45z m-280 -95 c0 -5 -5 -10 -11 -10 -5 0 -7 5 -4 10 3 6 8 10 11 10
2 0 4 -4 4 -10z m-2779 -556 c-2 -26 1 -34 13 -34 24 0 19 -19 -7 -29 -13 -5
-29 -16 -36 -25 -17 -20 -65 -21 -85 -1 -8 8 -19 15 -25 15 -6 0 -11 7 -11 15
0 8 -9 15 -20 15 -21 0 -29 33 -10 45 6 3 10 1 10 -4 0 -17 30 -13 57 9 16 12
41 20 64 20 23 0 39 5 39 12 0 6 3 8 7 4 4 -4 6 -23 4 -42z m72 4 c-9 -15 -23
-8 -23 12 0 17 2 19 14 8 8 -7 12 -16 9 -20z m497 -1185 c-17 -26 -30 -60 -30
-77 0 -16 -12 -50 -26 -74 -26 -44 -27 -49 -21 -158 5 -104 7 -115 32 -142 15
-17 40 -36 56 -42 16 -7 29 -18 29 -26 0 -7 16 -18 35 -25 19 -7 35 -17 35
-21 0 -4 8 -8 17 -8 38 0 -8 -24 -59 -31 -29 -4 -72 -11 -94 -14 -42 -7 -72 6
-123 54 -17 16 -50 130 -50 178 -1 34 -17 78 -37 103 -9 11 -10 30 -4 68 5 30
5 74 0 100 -9 52 6 82 42 82 10 0 18 5 18 10 0 6 5 10 10 10 6 0 10 -13 10
-30 0 -23 4 -30 20 -30 14 0 20 7 20 23 1 48 25 71 87 83 32 6 59 12 60 13 2
0 -11 -20 -27 -46z m2422 -383 c1 -25 1 -56 0 -70 -2 -34 43 -206 61 -234 10
-15 29 -25 54 -29 70 -11 161 -97 103 -97 -11 0 -20 -6 -20 -14 0 -8 -13 -16
-30 -18 -23 -3 -30 -1 -30 12 0 21 -20 40 -42 40 -20 0 -23 -21 -8 -51 10 -17
7 -19 -20 -19 -17 0 -41 -5 -52 -11 -29 -16 -64 3 -71 38 -7 34 -41 73 -65 73
-15 0 -20 16 -31 92 -11 79 -33 151 -51 168 -6 6 -30 58 -30 65 0 3 4 5 8 5
10 0 42 -65 42 -85 0 -8 7 -15 15 -15 11 0 15 -12 15 -45 0 -43 1 -45 30 -45
25 0 30 4 30 25 0 14 -4 25 -10 25 -5 0 -10 13 -10 29 0 16 -6 36 -12 43 -45
49 -48 89 -11 132 25 27 34 31 80 31 l53 0 2 -45z m-388 -90 c19 0 47 5 62 10
15 6 29 8 32 6 2 -3 4 -74 3 -159 l-2 -153 37 -50 c21 -27 49 -59 63 -71 14
-12 34 -29 43 -37 9 -8 49 -26 88 -40 39 -13 82 -32 95 -40 35 -23 32 -46 -5
-46 -25 0 -30 -4 -30 -25 0 -18 -5 -25 -19 -25 -16 0 -21 9 -27 45 -5 38 -12
48 -38 62 -17 9 -34 20 -37 25 -10 16 -43 5 -47 -15 -5 -23 15 -47 38 -47 9 0
25 -9 35 -20 18 -19 17 -20 -3 -20 -12 0 -22 -4 -22 -10 0 -5 -8 -19 -17 -30
-23 -27 -78 -26 -119 2 -27 19 -31 27 -27 53 3 21 0 35 -11 44 -9 7 -16 18
-16 23 0 5 -7 16 -15 24 -8 9 -15 24 -15 35 0 10 -4 19 -10 19 -5 0 -10 14
-10 30 0 20 -5 30 -15 30 -10 0 -15 10 -15 33 -1 60 -37 242 -62 312 -8 22
-18 52 -21 67 l-7 26 29 -29 c21 -21 39 -29 65 -29z m187 -244 l14 -81 43 -20
c31 -14 42 -25 42 -42 0 -34 -16 -28 -69 26 -50 51 -81 123 -81 187 0 31 2 33
19 22 13 -8 22 -34 32 -92z m-2821 -111 c7 -9 8 -15 2 -15 -5 0 -12 7 -16 15
-3 8 -4 15 -2 15 2 0 9 -7 16 -15z m86 -59 c38 -38 44 -66 15 -66 -10 0 -35
-14 -56 -30 -44 -35 -69 -35 -73 -1 -3 18 -9 22 -27 19 -16 -4 -22 -1 -18 9 3
7 14 13 24 13 22 0 26 29 7 48 -9 9 -9 15 1 25 10 10 14 9 22 -5 14 -25 49
-23 49 2 0 29 17 25 56 -14z"/>
<path d="M4193 3913 c-25 -17 -31 -53 -9 -53 33 0 86 31 86 50 0 25 -44 27
-77 3z"/>
<path d="M4600 3871 c0 -10 11 -27 25 -37 38 -29 34 -73 -11 -118 -30 -30 -35
-33 -29 -14 18 61 18 68 -4 68 -14 0 -25 -9 -31 -26 -13 -33 -13 -94 0 -94 6
0 10 -7 10 -16 0 -12 9 -14 48 -10 26 3 39 3 30 0 -25 -8 -23 -44 2 -44 13 0
20 7 20 18 0 19 1 19 83 13 4 -1 7 -10 7 -21 0 -11 4 -20 9 -20 5 0 13 -9 16
-20 3 -11 13 -20 21 -20 8 0 14 -9 14 -19 0 -11 15 -36 34 -57 29 -32 37 -35
65 -29 36 8 46 45 12 45 -11 0 -23 9 -26 20 -3 11 -10 20 -14 20 -4 0 -16 18
-27 40 -10 22 -24 40 -31 40 -6 0 -15 9 -18 20 -3 11 -12 20 -20 20 -7 0 -16
12 -19 28 -4 17 -17 32 -36 40 -26 12 -29 18 -28 55 0 23 -5 58 -12 78 -19 49
-90 82 -90 40z"/>
<path d="M4180 3812 c0 -18 63 -82 81 -82 5 0 9 -4 9 -10 0 -5 9 -10 20 -10
11 0 20 6 20 14 0 31 -20 66 -37 66 -10 0 -24 9 -31 20 -16 26 -62 27 -62 2z"/>
<path d="M4530 3571 c-13 -25 -13 -51 0 -51 6 0 10 -9 10 -20 0 -13 7 -20 19
-20 14 0 17 -6 13 -25 -3 -20 0 -25 16 -25 12 0 23 9 27 23 6 19 8 19 12 5 2
-10 14 -18 25 -18 18 0 20 4 14 33 -4 17 -11 34 -16 35 -6 2 -10 13 -10 24 0
16 -5 19 -25 16 -21 -4 -25 -1 -25 18 0 19 -5 24 -25 24 -14 0 -29 -8 -35 -19z"/>
<path d="M4340 3431 c0 -11 -4 -21 -9 -23 -5 -1 -12 -20 -16 -40 -7 -34 -5
-38 14 -38 11 0 21 -4 21 -10 0 -5 6 -10 14 -10 9 0 12 -8 8 -25 -3 -20 0 -25
16 -25 11 0 23 6 25 13 3 6 6 0 6 -15 1 -21 6 -28 21 -28 15 0 20 7 20 25 0
14 -6 25 -12 25 -7 0 -5 5 5 11 18 11 24 59 7 59 -5 0 -10 9 -10 20 0 13 -7
20 -20 20 -14 0 -20 7 -20 24 0 16 -7 26 -22 30 -38 10 -48 7 -48 -13z m30
-46 c0 -14 -4 -25 -9 -25 -4 0 -6 11 -3 25 2 14 6 25 8 25 2 0 4 -11 4 -25z"/>
<path d="M4112 3418 c2 -15 11 -24 26 -26 20 -3 23 0 20 20 -2 15 -11 24 -26
26 -20 3 -23 0 -20 -20z"/>
<path d="M4776 3414 c-8 -22 5 -96 20 -111 7 -7 20 -13 29 -13 15 0 16 7 10
48 -11 78 -16 92 -35 92 -10 0 -21 -7 -24 -16z"/>
<path d="M4150 3360 c0 -13 7 -20 20 -20 13 0 20 7 20 20 0 13 -7 20 -20 20
-13 0 -20 -7 -20 -20z"/>
<path d="M3830 3291 c0 -16 4 -41 10 -55 6 -17 6 -26 0 -26 -6 0 -10 -22 -10
-50 0 -38 -4 -50 -15 -50 -8 0 -15 -8 -15 -17 -1 -25 -21 -49 -48 -57 -12 -4
-22 -12 -22 -17 0 -5 -7 -9 -16 -9 -24 0 -44 -25 -44 -56 0 -24 3 -26 29 -21
27 6 29 3 35 -28 5 -27 12 -35 28 -35 17 0 20 5 16 30 -3 20 0 30 9 30 7 0 13
7 13 15 0 22 38 18 45 -5 3 -11 15 -20 26 -20 12 0 19 7 19 20 0 11 7 20 15
20 17 0 20 31 5 46 -14 14 -2 44 16 44 19 0 18 25 -2 55 -9 14 -12 25 -6 25 6
0 14 -4 17 -10 3 -5 15 -10 26 -10 21 0 27 34 8 46 -6 3 -17 22 -25 40 -8 19
-19 34 -24 34 -6 0 -10 6 -10 14 0 7 -9 16 -20 19 -14 3 -20 14 -20 31 0 19
-5 26 -20 26 -15 0 -20 -7 -20 -29z"/>
<path d="M3400 2865 c-21 -33 -60 -49 -60 -24 0 7 -11 9 -30 6 -17 -4 -30 -2
-30 3 0 15 -29 12 -101 -9 -35 -10 -83 -24 -106 -30 -33 -9 -43 -17 -43 -33 0
-18 4 -20 40 -14 31 5 42 3 46 -9 8 -20 38 -19 55 1 12 14 61 44 74 44 3 0 5
-11 5 -25 0 -14 5 -25 11 -25 6 0 18 -7 27 -16 12 -13 17 -43 20 -130 3 -85 8
-114 18 -114 7 0 17 -22 24 -55 6 -30 17 -55 23 -55 12 0 47 -133 47 -177 0
-16 6 -23 20 -23 18 0 20 7 20 79 0 57 -4 80 -14 84 -8 3 -19 37 -27 87 -7 46
-19 88 -26 96 -7 7 -13 31 -13 53 0 26 -5 41 -13 41 -8 0 -11 14 -9 45 3 26 0
45 -6 45 -6 0 -4 16 5 40 11 27 22 40 35 40 15 0 18 -8 18 -59 0 -33 3 -66 6
-75 9 -23 44 -20 44 4 0 32 27 12 34 -26 5 -25 12 -34 26 -34 13 0 22 -9 26
-25 4 -16 13 -25 25 -25 23 0 23 4 3 86 -11 43 -13 68 -7 73 6 3 13 13 16 21
4 11 7 10 12 -7 4 -13 11 -23 15 -23 5 0 18 -29 30 -65 17 -50 26 -65 41 -65
10 0 19 6 19 13 0 6 11 -12 25 -40 17 -39 30 -53 45 -53 21 0 28 27 11 46 -4
5 -16 32 -26 59 -36 102 -38 106 -64 103 -21 -3 -25 3 -36 46 -7 26 -17 51
-23 55 -6 3 -15 19 -21 34 -9 22 -17 27 -46 27 -24 0 -35 5 -35 15 0 18 -31
20 -48 3 -9 -9 -13 -7 -18 5 -10 28 -41 19 -64 -18z m130 -56 c0 -26 -3 -30
-17 -23 -10 4 -36 8 -58 8 l-40 -1 35 11 c19 6 44 16 55 23 11 7 21 13 23 13
1 0 2 -14 2 -31z"/>
<path d="M2778 2812 c-31 -10 -48 -21 -48 -32 0 -8 -9 -22 -20 -30 -28 -20
-28 -80 0 -80 10 0 23 7 28 15 4 9 35 20 70 27 60 11 63 13 74 49 9 31 8 40
-5 53 -19 19 -37 19 -99 -2z"/>
<path d="M2587 2814 c-5 -5 -53 -9 -179 -13 -26 -1 -38 -6 -38 -15 0 -8 -9
-18 -20 -21 -11 -3 -20 -10 -20 -15 0 -4 -9 -10 -20 -13 -15 -4 -20 0 -20 14
0 22 -33 26 -52 6 -13 -15 -48 -11 -48 4 0 5 -11 9 -25 9 -26 0 -29 -9 -18
-48 5 -20 10 -23 34 -18 16 3 29 1 29 -4 0 -6 14 -10 30 -10 20 0 30 5 30 15
0 8 5 15 10 15 6 0 10 -7 10 -15 0 -8 9 -15 20 -15 11 0 23 7 26 15 4 8 17 15
31 15 16 0 27 7 30 20 4 15 14 20 37 20 20 0 37 -7 46 -20 18 -25 97 -29 106
-5 4 8 12 15 20 15 8 0 14 4 14 10 0 5 11 12 25 16 16 4 25 13 25 25 0 15 -7
19 -38 19 -21 0 -41 -3 -45 -6z"/>
<path d="M2978 2733 c-27 -13 -40 -53 -18 -53 6 0 10 -7 10 -16 0 -22 25 -44
49 -44 22 0 31 35 11 42 -6 2 -4 15 5 32 8 15 15 35 15 42 0 18 -36 16 -72 -3z"/>
<path d="M3173 2672 c-35 -32 -63 -63 -63 -70 0 -7 9 -21 20 -32 11 -11 20
-28 20 -39 0 -10 -9 -21 -20 -24 -23 -6 -28 -47 -5 -47 8 0 39 12 70 27 59 29
71 56 40 87 -13 13 -14 20 -4 38 7 13 15 25 19 28 4 3 11 24 15 48 6 37 4 42
-12 42 -10 -1 -46 -27 -80 -58z"/>
<path d="M4120 2698 c-4 -108 -4 -108 -27 -108 -13 0 -23 -4 -23 -10 0 -5 -9
-10 -20 -10 -14 0 -20 -7 -20 -22 l-1 -23 -18 22 c-12 15 -29 21 -50 21 -25
-1 -38 6 -55 27 -16 20 -29 27 -43 23 -16 -4 -24 2 -37 29 -9 18 -16 40 -16
48 0 9 -10 15 -25 15 -33 0 -33 -25 2 -93 30 -57 32 -59 65 -99 13 -14 30 -36
38 -47 8 -12 20 -21 27 -21 7 0 13 -4 13 -10 0 -5 9 -10 20 -10 22 0 29 36 8
43 -7 2 1 2 17 -1 17 -2 41 -13 54 -23 29 -23 61 -25 61 -3 0 9 -15 29 -32 45
-34 29 -27 41 8 14 25 -19 54 -19 54 -1 0 11 9 13 35 9 30 -5 35 -3 35 15 0
11 -6 23 -12 25 -8 3 -5 6 5 6 16 1 17 8 13 66 -6 74 -22 105 -53 105 -18 0
-23 -6 -23 -32z"/>
<path d="M2050 2700 c0 -13 7 -20 20 -20 13 0 20 7 20 20 0 13 -7 20 -20 20
-13 0 -20 -7 -20 -20z"/>
<path d="M1670 2565 c0 -18 5 -25 20 -25 15 0 20 7 20 25 0 18 -5 25 -20 25
-15 0 -20 -7 -20 -25z"/>
<path d="M2326 2561 c-7 -11 -64 -24 -98 -21 -36 2 -88 -29 -88 -53 0 -16 5
-18 28 -12 15 4 40 6 56 6 15 0 46 9 67 20 49 25 83 17 126 -29 31 -33 34 -34
83 -27 45 6 50 9 50 32 0 23 -3 25 -35 19 -28 -6 -37 -3 -47 14 -7 11 -23 20
-35 20 -13 0 -23 5 -23 10 0 6 -9 10 -20 10 -11 0 -20 5 -20 10 0 12 -37 13
-44 1z"/>
<path d="M2640 2452 c0 -18 33 -52 50 -52 6 0 10 -9 10 -20 0 -23 11 -25 57
-8 33 12 48 48 19 48 -8 0 -16 7 -20 15 -3 8 -17 15 -31 15 -14 0 -25 5 -25
10 0 6 -13 10 -30 10 -22 0 -30 -5 -30 -18z"/>
<path d="M2087 2433 c-13 -12 -7 -43 7 -43 28 0 46 12 46 31 0 13 -7 19 -23
19 -13 0 -27 -3 -30 -7z"/>
<path d="M3564 2390 c9 -64 15 -80 32 -80 8 0 16 -16 20 -40 4 -24 12 -40 20
-40 8 0 14 -8 14 -19 0 -10 11 -30 25 -45 14 -15 25 -38 25 -51 0 -37 21 -75
42 -75 20 0 22 10 9 54 -5 17 -17 59 -27 93 -9 34 -22 64 -29 67 -7 2 -15 21
-19 40 -4 20 -13 36 -20 36 -9 0 -16 17 -20 45 -5 29 -12 45 -22 45 -8 0 -14
5 -14 10 0 6 -10 10 -21 10 -20 0 -21 -4 -15 -50z"/>
<path d="M1803 2413 c-25 -3 -33 -9 -33 -24 0 -14 7 -19 25 -19 14 0 25 -5 25
-11 0 -7 12 -10 30 -7 20 3 30 0 30 -9 0 -7 6 -13 14 -13 8 0 16 -5 18 -10 2
-7 19 -8 46 -4 48 7 60 30 43 77 -10 26 -12 27 -88 25 -43 0 -93 -3 -110 -5z"/>
<path d="M3753 2378 c3 -18 15 -60 28 -94 18 -48 29 -63 52 -72 16 -6 31 -20
34 -31 3 -10 13 -21 23 -24 11 -3 23 -21 31 -46 8 -29 18 -41 31 -41 10 0 18
6 18 13 0 28 -32 107 -44 107 -13 0 -46 61 -46 84 0 8 -9 16 -20 19 -11 3 -20
12 -20 21 0 9 -6 16 -13 16 -8 0 -20 18 -27 40 -9 28 -19 40 -33 40 -16 0 -18
-5 -14 -32z"/>
<path d="M2873 2337 c-33 -7 -43 -15 -43 -30 0 -17 5 -19 40 -14 30 4 40 2 40
-9 0 -7 11 -16 25 -20 l25 -6 -25 -22 c-30 -26 -33 -56 -5 -56 10 0 23 6 27
13 8 12 99 60 136 71 20 6 23 46 3 46 -8 0 -27 -5 -42 -10 -16 -6 -30 -7 -33
-2 -3 5 -18 12 -33 16 -16 3 -28 13 -28 21 0 17 -24 18 -87 2z"/>
<path d="M2037 2293 c-4 -3 -7 -15 -7 -26 0 -15 5 -18 25 -15 13 3 26 1 27 -4
2 -5 20 -11 41 -15 31 -5 37 -3 37 11 0 27 -28 49 -55 43 -14 -2 -25 0 -25 4
0 11 -34 12 -43 2z"/>
<path d="M847 2253 c-37 -29 -49 -63 -22 -63 8 0 15 -6 15 -14 0 -14 21 -26
45 -26 7 0 15 15 18 33 3 17 9 47 13 65 6 27 4 32 -13 32 -11 0 -36 -12 -56
-27z"/>
<path d="M2190 2238 c1 -40 13 -58 41 -58 19 0 29 -5 29 -15 0 -10 10 -15 30
-15 17 0 30 -4 30 -10 0 -5 11 -10 25 -10 14 0 25 -4 25 -10 0 -5 11 -10 25
-10 35 0 34 37 -1 50 -14 6 -32 17 -40 25 -9 8 -26 15 -40 15 -13 0 -24 5 -24
10 0 6 -9 10 -19 10 -10 0 -21 7 -25 15 -7 18 -56 20 -56 3z"/>
<path d="M2457 2123 c-15 -14 -6 -41 16 -47 38 -10 57 -7 57 10 0 29 -54 57
-73 37z"/>
<path d="M3580 2065 c0 -18 5 -25 20 -25 15 0 20 7 20 25 0 18 -5 25 -20 25
-15 0 -20 -7 -20 -25z"/>
<path d="M2544 2049 c3 -17 6 -35 6 -40 0 -5 17 -9 38 -9 55 0 82 -10 82 -30
0 -13 10 -21 32 -26 18 -3 39 -15 46 -25 7 -11 22 -19 33 -19 10 0 28 -9 39
-20 27 -27 80 -27 80 0 0 21 -27 40 -59 40 -12 0 -30 9 -41 20 -11 11 -27 20
-35 20 -8 0 -15 4 -15 9 0 5 -9 12 -19 16 -10 3 -21 14 -24 24 -3 11 -18 22
-36 26 -17 4 -31 11 -31 17 0 6 -11 8 -25 6 -17 -4 -25 -1 -25 8 0 8 -11 14
-26 14 -24 0 -26 -3 -20 -31z"/>
<path d="M2140 1970 c0 -43 3 -50 20 -50 11 0 20 5 20 10 0 6 9 10 19 10 13 0
21 -9 26 -30 5 -21 13 -30 26 -30 21 0 22 6 13 63 -6 33 -10 37 -35 37 -18 0
-29 5 -29 14 0 14 -21 26 -46 26 -10 0 -14 -14 -14 -50z"/>
<path d="M4240 786 c0 -19 7 -26 30 -31 35 -8 50 0 50 24 0 13 -10 21 -31 25
-47 9 -49 8 -49 -18z"/>
<path d="M4230 530 c0 -13 7 -20 20 -20 13 0 20 7 20 20 0 13 -7 20 -20 20
-13 0 -20 -7 -20 -20z"/>
<path d="M4350 463 c0 -24 19 -43 43 -43 14 0 18 6 15 28 -2 21 -9 28 -30 30
-22 3 -28 -1 -28 -15z"/>
<path d="M4467 433 c-16 -16 -6 -43 18 -49 33 -8 39 -2 31 31 -6 24 -33 34
-49 18z"/>
<path d="M4097 243 c-4 -3 -7 -15 -7 -25 0 -13 7 -18 25 -18 20 0 25 5 25 25
0 18 -5 25 -18 25 -10 0 -22 -3 -25 -7z"/>
</g>
</svg>
