<?xml version="1.0" standalone="no"?>
<!DOCTYPE svg PUBLIC "-//W3C//DTD SVG 20010904//EN"
 "http://www.w3.org/TR/2001/REC-SVG-20010904/DTD/svg10.dtd">
<svg version="1.0" xmlns="http://www.w3.org/2000/svg"
 width="255.000000pt" height="187.000000pt" viewBox="0 0 255.000000 187.000000"
 preserveAspectRatio="xMidYMid meet">
<metadata>
Created by potrace 1.13, written by Peter Selinger 2001-2015
</metadata>
<g transform="translate(0.000000,187.000000) scale(0.100000,-0.100000)"
fill="#000000" stroke="none">
<path d="M455 1863 c-30 -7 -128 -40 -155 -53 -14 -7 -41 -35 -60 -62 -49 -71
-69 -88 -147 -127 -37 -19 -74 -41 -80 -50 -21 -24 -15 -70 14 -117 38 -59 85
-74 218 -70 l100 3 29 -31 c27 -28 30 -37 27 -89 -1 -31 2 -57 7 -57 5 0 12
-33 15 -74 3 -41 12 -85 20 -98 18 -28 51 -192 43 -213 -3 -8 -12 -15 -21 -15
-8 0 -15 -7 -15 -15 0 -8 -4 -15 -10 -15 -5 0 -14 -17 -20 -37 -10 -32 -8 -45
9 -86 12 -27 21 -59 21 -71 0 -74 77 -191 122 -184 28 4 52 66 44 116 -4 28
-3 30 10 18 20 -20 17 -76 -6 -131 -11 -26 -20 -63 -20 -83 0 -21 -7 -69 -15
-107 -11 -56 -20 -75 -45 -96 -23 -20 -30 -33 -30 -63 l0 -37 38 7 c20 4 44
13 53 21 9 8 33 18 53 24 26 7 36 15 36 30 0 30 37 97 64 114 14 10 30 35 38
61 7 25 21 50 30 55 10 5 18 19 18 29 0 11 5 20 10 20 6 0 10 9 10 20 0 11 5
20 10 20 6 0 10 20 10 45 0 25 5 45 10 45 6 0 10 8 10 18 0 26 81 44 136 32
56 -13 74 -12 74 5 0 8 7 15 15 15 8 0 15 -7 15 -15 0 -8 9 -15 20 -15 11 0
20 3 20 8 0 4 12 7 28 8 15 0 45 1 67 2 62 3 235 -7 256 -13 12 -4 22 -19 26
-36 3 -17 21 -44 40 -62 33 -32 62 -62 156 -161 26 -28 50 -61 53 -72 10 -37
0 -69 -21 -73 -21 -4 -44 -29 -45 -49 0 -7 12 -18 28 -25 15 -6 29 -14 32 -18
13 -16 69 13 89 47 12 20 36 41 55 49 64 27 87 93 45 131 -25 22 -63 93 -55
102 7 7 38 -19 100 -85 36 -40 56 -53 77 -53 15 0 30 -4 34 -9 7 -12 113 -61
132 -61 25 0 71 -55 78 -94 l7 -37 51 3 c45 3 51 6 58 29 3 15 4 53 0 85 -6
57 -8 60 -46 79 -22 11 -41 23 -43 28 -2 4 -9 7 -15 7 -7 0 -20 12 -31 26 -14
20 -17 35 -12 66 5 32 3 43 -11 54 -17 13 -17 13 0 14 16 0 26 40 9 40 -17 0
-52 114 -52 173 0 33 -3 37 -24 37 -14 0 -27 4 -30 9 -9 13 4 41 19 41 7 0 15
19 18 45 6 44 6 45 -58 110 -36 36 -65 72 -65 80 0 8 -5 26 -12 40 -10 22 -9
28 10 41 12 8 22 22 22 31 0 13 3 13 15 3 8 -7 21 -10 30 -6 9 3 19 -3 26 -15
8 -16 18 -20 40 -17 25 4 29 1 29 -19 0 -32 17 -63 34 -63 8 0 16 -7 20 -15 3
-8 12 -15 20 -15 10 0 16 -12 18 -36 2 -30 10 -40 43 -60 81 -49 87 -45 76 46
-6 42 -5 70 2 78 7 9 7 24 -2 49 -8 20 -13 55 -13 78 1 36 -5 50 -44 95 -25
29 -51 65 -59 79 -19 37 -88 69 -164 74 -68 6 -111 -4 -111 -25 0 -7 -26 -27
-58 -45 -31 -17 -71 -46 -89 -63 -27 -27 -35 -30 -53 -20 -11 6 -73 15 -138
20 -286 23 -369 31 -392 40 -14 5 -51 14 -82 19 -68 12 -107 31 -229 111 -50
33 -99 60 -109 60 -10 0 -25 3 -33 6 -16 6 -61 92 -99 188 -16 41 -34 68 -58
85 -37 27 -72 57 -124 104 -17 16 -41 33 -54 38 -24 9 -100 10 -137 2z m55
-63 c0 -5 -8 -10 -17 -10 -15 0 -16 2 -3 10 19 12 20 12 20 0z m-180 -90 c0
-5 -7 -10 -15 -10 -8 0 -15 -5 -15 -12 0 -6 -3 -8 -7 -4 -5 4 1 14 11 22 23
17 26 17 26 4z m270 -364 c0 -2 -7 -7 -16 -10 -8 -3 -12 -2 -9 4 6 10 25 14
25 6z m810 -283 c0 -13 -3 -13 -15 -3 -8 7 -15 16 -15 21 0 5 7 6 15 3 8 -4
15 -13 15 -21z m-663 -239 c-3 -3 -12 -4 -19 -1 -8 3 -5 6 6 6 11 1 17 -2 13
-5z m-52 -14 c-11 -5 -33 -8 -50 -8 -29 0 -29 0 -5 8 14 4 36 8 50 8 23 1 23
0 5 -8z m245 -130 c0 -5 -9 -10 -20 -10 -11 0 -20 5 -20 10 0 6 9 10 20 10 11
0 20 -4 20 -10z m760 -66 c0 -8 -4 -12 -10 -9 -5 3 -10 13 -10 21 0 8 5 12 10
9 6 -3 10 -13 10 -21z m687 -506 c-3 -8 -6 -5 -6 6 -1 11 2 17 5 13 3 -3 4
-12 1 -19z"/>
</g>
</svg>
