<?xml version="1.0" standalone="no"?>
<!DOCTYPE svg PUBLIC "-//W3C//DTD SVG 20010904//EN"
 "http://www.w3.org/TR/2001/REC-SVG-20010904/DTD/svg10.dtd">
<svg version="1.0" xmlns="http://www.w3.org/2000/svg"
 width="686.000000pt" height="535.000000pt" viewBox="0 0 686.000000 535.000000"
 preserveAspectRatio="xMidYMid meet">
<metadata>
Created by potrace 1.13, written by Peter Selinger 2001-2015
</metadata>
<g transform="translate(0.000000,535.000000) scale(0.100000,-0.100000)"
fill="#000000" stroke="none">
<path d="M4640 5104 c-14 -7 -38 -26 -54 -43 -24 -25 -27 -33 -16 -46 15 -18
6 -45 -15 -45 -22 0 -18 -21 5 -27 19 -5 18 -8 -13 -47 -19 -22 -37 -51 -41
-63 -4 -11 -13 -27 -21 -33 -8 -7 -15 -25 -15 -39 0 -18 -12 -39 -35 -61 -31
-30 -35 -40 -35 -86 0 -42 -5 -59 -27 -84 -23 -27 -25 -35 -14 -52 15 -25 -3
-51 -30 -43 -9 3 -20 1 -24 -5 -3 -5 -21 -10 -39 -10 -33 0 -91 -23 -101 -41
-4 -5 -17 -9 -31 -9 -13 0 -41 -10 -62 -23 -20 -13 -53 -31 -73 -40 -20 -9
-42 -24 -50 -33 -7 -9 -22 -20 -34 -25 -11 -5 -33 -18 -50 -28 -16 -11 -40
-20 -52 -20 -12 -1 -24 -5 -28 -10 -10 -18 -68 -41 -100 -41 -18 0 -38 -7 -45
-15 -7 -8 -18 -15 -25 -15 -6 0 -20 -9 -31 -21 -10 -11 -37 -29 -59 -40 -60
-30 -83 -44 -104 -63 -11 -10 -25 -15 -31 -11 -14 9 -110 -38 -135 -65 -14
-16 -31 -20 -76 -20 -32 0 -60 -4 -64 -9 -10 -18 -63 -39 -72 -30 -11 11 -63
-13 -88 -41 -11 -12 -31 -20 -51 -20 -18 0 -35 -4 -38 -9 -3 -5 -38 -8 -76 -7
-39 2 -73 -1 -76 -6 -8 -12 -98 -10 -112 4 -9 9 -15 9 -24 0 -15 -15 -55 -16
-63 -1 -4 6 -13 8 -21 5 -8 -3 -25 0 -39 6 -20 9 -31 8 -50 -2 -20 -10 -28
-11 -37 -2 -7 7 -27 12 -44 12 -18 0 -36 5 -39 10 -4 7 -12 7 -25 0 -10 -5
-43 -10 -74 -10 -30 0 -57 -4 -61 -9 -9 -16 -64 -40 -70 -31 -3 4 -18 3 -34
-3 -40 -15 -61 -4 -61 33 0 30 -13 40 -26 19 -4 -7 -16 -2 -33 14 -14 13 -42
31 -62 40 -20 9 -39 26 -42 36 -3 12 -15 21 -33 23 -25 2 -29 8 -32 36 -3 28
-6 31 -25 27 -17 -5 -28 2 -45 25 -13 17 -34 35 -48 40 -13 5 -24 16 -24 25 0
8 -19 24 -42 35 -24 11 -57 29 -75 40 -19 11 -35 15 -38 10 -8 -13 -62 -13
-70 0 -5 8 -11 7 -21 -1 -10 -8 -18 -8 -27 0 -10 8 -17 7 -26 -2 -9 -9 -13 -7
-17 11 -5 17 -11 21 -29 16 -13 -3 -26 -1 -29 5 -4 6 -38 11 -77 11 -53 0 -69
3 -69 14 0 21 -20 30 -33 17 -16 -16 -52 -14 -67 4 -14 17 -56 20 -65 4 -4 -6
-13 -8 -20 -5 -16 6 -67 -18 -86 -40 -7 -8 -31 -24 -53 -35 -92 -46 -98 -50
-86 -64 9 -11 3 -17 -27 -31 -51 -23 -73 -43 -73 -66 0 -11 -9 -22 -20 -25
-20 -5 -50 -54 -50 -80 0 -7 -8 -16 -17 -20 -28 -10 -53 -35 -53 -53 0 -9 -16
-31 -35 -50 -19 -19 -35 -41 -35 -50 0 -9 -5 -21 -12 -28 -8 -8 -8 -15 1 -26
8 -10 9 -16 1 -21 -13 -8 -13 -92 0 -100 6 -4 0 -18 -15 -37 -29 -35 -30 -37
-10 -66 14 -19 14 -24 0 -46 -13 -20 -14 -29 -5 -46 10 -19 8 -26 -21 -56 -27
-28 -30 -36 -19 -48 10 -13 8 -17 -14 -26 -19 -7 -26 -17 -26 -36 0 -14 -13
-43 -30 -64 -16 -21 -30 -42 -30 -46 0 -5 -11 -22 -25 -38 -14 -16 -25 -41
-25 -56 0 -19 -6 -29 -19 -33 -10 -2 -25 -19 -34 -37 -16 -31 -16 -32 4 -37
12 -4 18 -11 15 -19 -3 -8 -8 -20 -12 -28 -3 -7 6 -26 20 -43 13 -16 26 -42
28 -58 2 -25 8 -30 35 -33 20 -2 37 -12 47 -28 11 -16 26 -24 44 -24 17 0 38
-10 52 -25 18 -19 34 -25 65 -25 23 0 45 3 49 8 4 4 17 8 29 9 85 8 155 35
164 61 12 33 36 52 67 53 17 0 45 9 61 20 30 19 44 26 69 33 7 3 20 18 27 35
8 17 19 31 25 31 6 0 21 11 34 25 17 18 27 22 36 14 8 -7 14 -7 19 1 8 13 62
13 70 0 3 -5 19 -10 34 -10 16 0 34 -7 41 -15 7 -8 18 -15 25 -15 22 0 65 -60
65 -89 0 -15 9 -36 20 -46 11 -10 20 -30 20 -45 0 -31 37 -70 67 -70 23 0 47
-24 57 -57 4 -11 13 -27 21 -33 8 -7 15 -26 15 -41 0 -22 6 -32 25 -39 14 -5
25 -15 25 -21 0 -7 15 -30 33 -53 19 -23 36 -49 40 -58 4 -10 17 -18 30 -18
13 0 32 -10 43 -21 10 -12 29 -25 41 -30 13 -5 23 -17 23 -27 0 -20 24 -45 53
-55 11 -4 17 -17 17 -35 0 -29 26 -62 49 -62 6 0 16 -11 21 -24 13 -34 41 -66
68 -77 18 -7 22 -16 22 -48 0 -22 5 -43 10 -46 15 -9 -7 -34 -39 -46 -18 -8
-21 -13 -13 -21 15 -15 16 -75 2 -83 -8 -5 -7 -11 1 -21 9 -11 9 -17 0 -28 -8
-10 -9 -16 -1 -21 5 -3 10 -25 10 -48 0 -38 6 -48 48 -90 26 -26 53 -47 60
-47 7 0 12 -9 12 -20 0 -13 14 -26 45 -40 25 -11 45 -26 45 -34 0 -7 9 -21 20
-31 11 -10 22 -27 26 -39 9 -29 76 -106 91 -106 8 0 18 -11 22 -24 5 -13 18
-26 28 -30 10 -3 32 -14 48 -25 17 -11 40 -20 53 -20 12 -1 32 -12 44 -26 22
-26 71 -34 83 -15 5 8 11 8 20 0 14 -11 39 -2 78 29 19 16 23 51 6 68 -8 8 -8
13 0 17 19 12 12 47 -9 53 -21 6 -27 37 -10 48 6 4 0 20 -15 39 -14 18 -25 45
-25 59 0 17 -5 27 -15 27 -8 0 -15 5 -15 11 0 6 16 9 38 7 36 -3 37 -4 40 -47
2 -31 8 -44 21 -48 20 -5 43 -57 34 -79 -3 -8 0 -21 7 -30 10 -11 10 -18 2
-26 -18 -18 -14 -35 8 -41 21 -5 27 -31 10 -42 -5 -3 -10 -17 -10 -30 0 -13 5
-27 10 -30 5 -3 10 -24 10 -46 0 -33 4 -41 25 -49 14 -5 25 -16 25 -25 0 -8 5
-24 10 -35 6 -11 15 -29 20 -40 6 -11 10 -31 10 -44 0 -14 5 -28 10 -31 6 -3
10 -20 10 -38 0 -27 21 -82 62 -160 6 -12 5 -23 -1 -31 -7 -9 -7 -16 1 -24 9
-9 9 -15 0 -24 -7 -7 -12 -24 -12 -39 0 -15 -4 -31 -10 -34 -5 -3 -10 -19 -10
-34 0 -16 -7 -34 -15 -41 -21 -18 -19 -33 10 -60 14 -13 25 -31 25 -40 0 -9
13 -29 30 -45 29 -28 30 -28 50 -10 11 10 20 25 20 34 0 9 19 25 43 36 33 16
43 26 45 49 2 15 12 44 23 62 10 19 19 41 19 50 0 8 11 19 25 24 14 5 25 14
25 20 0 6 12 27 26 46 l26 34 -27 36 c-24 32 -26 40 -16 57 9 14 10 22 2 30
-15 15 -14 60 1 75 9 9 9 15 0 24 -20 20 -14 84 13 134 29 54 34 124 10 144
-8 7 -15 18 -15 25 0 7 7 18 15 25 22 19 18 39 -10 50 -25 10 -33 34 -15 45 6
3 10 18 10 33 0 15 7 38 16 50 15 21 14 25 -11 57 -18 25 -22 35 -12 35 8 0
20 7 27 15 10 12 8 21 -13 48 -26 34 -26 34 -6 54 18 17 19 23 7 49 -6 16 -27
46 -45 67 -34 39 -43 81 -23 117 7 13 7 26 0 40 -5 11 -15 29 -20 40 -8 15 -7
20 4 20 7 0 19 7 26 15 7 8 21 15 31 15 22 0 24 11 7 28 -8 8 -5 14 15 21 14
6 36 24 48 40 16 22 31 31 50 31 15 0 30 4 34 9 9 16 66 41 91 41 40 0 93 33
94 57 0 12 -4 25 -10 28 -19 12 -10 34 20 49 30 14 31 14 40 -10 11 -28 50
-33 70 -9 7 8 19 15 26 15 21 0 17 21 -6 27 -23 6 -17 23 9 23 23 0 81 29 81
40 0 5 -5 12 -11 16 -7 4 20 22 61 42 51 25 69 37 61 45 -19 19 -12 27 22 27
18 0 42 7 53 15 10 8 31 15 47 15 29 0 59 14 94 44 25 21 48 35 108 65 22 11
56 36 74 55 24 24 44 36 62 36 15 0 31 5 34 10 5 8 11 8 19 1 9 -7 16 -7 24 1
8 8 14 5 21 -15 6 -15 17 -27 24 -27 19 0 47 -32 47 -53 0 -12 9 -17 29 -17
16 0 34 -7 41 -15 7 -8 23 -15 36 -15 12 0 26 -5 29 -10 5 -8 11 -7 21 1 11 9
18 9 26 1 7 -7 33 -12 59 -12 26 0 50 -4 54 -9 11 -18 68 -41 101 -41 25 0 38
-7 50 -25 13 -20 24 -25 61 -25 24 0 55 -7 69 -16 19 -13 28 -14 37 -5 15 15
27 14 27 -3 0 -18 56 -47 76 -39 9 3 21 -3 30 -16 8 -11 21 -21 28 -21 15 0
50 -37 59 -62 4 -10 13 -18 22 -18 18 0 21 -50 3 -68 -8 -8 -8 -15 2 -26 10
-13 9 -17 -6 -22 -39 -14 -54 -36 -54 -80 0 -24 -4 -45 -10 -49 -16 -10 0 -33
37 -55 24 -14 39 -18 47 -11 8 7 16 7 22 1 7 -7 17 -4 29 10 23 26 40 25 59
-2 9 -12 19 -19 22 -15 4 4 1 13 -5 21 -10 12 -5 18 33 36 39 17 46 25 46 50
0 16 5 32 10 35 13 8 13 102 -1 110 -7 5 -3 16 12 31 13 14 19 29 15 40 -4 11
1 26 14 39 14 15 18 25 11 30 -15 9 -14 25 2 25 7 0 27 15 45 33 25 26 29 36
20 45 -9 9 -9 15 0 24 14 14 16 94 2 103 -5 3 -10 19 -10 34 0 15 -9 36 -20
46 -28 26 -111 66 -122 59 -10 -7 -91 30 -120 55 -10 8 -18 22 -18 33 0 14 -5
17 -23 13 -35 -9 -53 17 -28 39 12 11 21 14 26 7 3 -6 28 -11 54 -11 31 0 53
-5 61 -15 7 -9 29 -15 51 -15 21 0 41 -5 44 -10 5 -8 11 -7 21 1 12 10 16 8
21 -10 4 -15 11 -20 23 -16 10 3 34 -3 54 -15 20 -11 54 -20 75 -20 37 0 95
22 106 41 9 14 51 11 65 -6 7 -8 23 -15 35 -15 12 0 28 7 35 15 9 11 34 15 96
15 47 0 86 5 89 10 5 8 11 8 19 1 9 -8 18 -6 30 8 18 20 76 24 92 8 4 -4 29
-7 55 -7 39 0 48 -3 52 -21 3 -11 15 -23 26 -26 12 -3 21 -14 21 -24 0 -10 12
-24 27 -31 15 -7 34 -25 41 -40 l13 -27 32 19 c18 11 41 24 52 29 11 5 29 18
39 30 11 11 24 21 31 21 6 0 24 13 39 29 28 29 28 51 0 51 -17 0 -20 60 -2 78
9 9 6 13 -11 20 -12 4 -28 19 -34 32 -7 14 -25 31 -40 38 -23 11 -27 19 -27
58 0 33 -4 44 -15 44 -9 0 -20 11 -25 25 -6 17 -17 25 -33 25 -13 0 -27 3 -31
7 -15 16 -121 10 -153 -8 -27 -15 -33 -16 -33 -4 0 21 -19 28 -35 15 -12 -10
-20 -9 -40 4 -13 9 -33 16 -43 16 -10 0 -22 4 -27 9 -6 5 -21 11 -35 13 -22 3
-25 9 -28 47 -3 33 -8 44 -23 48 -21 6 -25 23 -8 40 8 8 6 18 -6 37 -14 20
-25 26 -54 26 -21 0 -41 3 -44 7 -9 8 22 43 39 43 25 0 25 20 0 30 -20 7 -26
17 -26 40 0 29 -13 40 -25 20 -10 -16 -32 -11 -38 9 -5 21 -64 54 -73 40 -11
-19 -24 3 -24 42 0 36 -2 40 -21 34 -25 -8 -48 18 -49 58 0 27 -13 36 -25 17
-9 -15 -35 7 -35 30 0 10 -7 23 -15 30 -8 7 -15 20 -15 30 0 9 -9 25 -20 35
-11 10 -20 24 -20 31 0 23 -18 25 -55 4 -42 -24 -78 -26 -95 -5 -9 11 -10 19
-1 28 8 10 7 17 -1 25 -9 9 -7 16 7 32 10 11 24 20 32 20 17 0 17 15 -2 30 -8
6 -17 22 -21 33 -3 12 -16 32 -27 44 -18 20 -19 26 -7 48 12 22 11 27 -5 45
-27 30 -71 50 -84 37 -7 -7 -15 -6 -25 2 -9 8 -16 8 -20 2 -4 -6 -20 -3 -42
10 -20 11 -44 17 -53 14 -11 -3 -28 6 -46 25 -18 19 -35 28 -46 25 -10 -3 -20
-1 -24 5 -3 5 -23 10 -44 10 -40 0 -61 14 -61 40 0 18 -40 60 -56 60 -16 0
-64 54 -64 71 0 9 11 26 25 39 28 26 31 56 10 84 -8 11 -15 32 -15 47 0 15 -4
31 -10 34 -5 3 -10 19 -10 35 0 16 5 32 10 35 13 8 13 92 0 100 -8 5 -7 11 1
21 9 11 9 18 1 26 -8 8 -8 15 -1 24 7 8 7 19 0 31 -5 10 -18 39 -29 64 -11 25
-27 51 -36 58 -9 8 -16 20 -16 27 0 23 -38 54 -65 54 -18 0 -25 5 -25 18 0 11
-8 26 -17 34 -15 12 -22 12 -43 2z"/>
</g>
</svg>
