<?xml version="1.0" standalone="no"?>
<!DOCTYPE svg PUBLIC "-//W3C//DTD SVG 20010904//EN"
 "http://www.w3.org/TR/2001/REC-SVG-20010904/DTD/svg10.dtd">
<svg version="1.0" xmlns="http://www.w3.org/2000/svg"
 width="675.000000pt" height="642.000000pt" viewBox="0 0 675.000000 642.000000"
 preserveAspectRatio="xMidYMid meet">
<metadata>
Created by potrace 1.13, written by Peter Selinger 2001-2015
</metadata>
<g transform="translate(0.000000,642.000000) scale(0.100000,-0.100000)"
fill="#000000" stroke="none">
<path d="M1394 6395 c-4 -8 -12 -15 -20 -15 -8 0 -33 -9 -57 -19 -23 -10 -96
-31 -162 -46 -66 -14 -141 -33 -167 -41 -26 -8 -56 -14 -68 -14 -11 0 -23 -7
-26 -15 -4 -8 -12 -15 -20 -15 -8 0 -14 -4 -14 -10 0 -5 -6 -10 -13 -10 -8 0
-19 -11 -26 -24 -8 -13 -26 -26 -42 -30 -22 -4 -29 -11 -29 -30 0 -20 -7 -26
-48 -36 -47 -11 -143 -13 -272 -6 -36 2 -99 -3 -140 -11 -245 -46 -242 -45
-274 -74 -13 -13 -17 -25 -12 -43 3 -14 11 -26 16 -26 6 0 10 -5 10 -11 0 -15
38 -50 73 -68 15 -8 27 -18 27 -23 0 -15 75 -55 135 -70 33 -9 114 -24 180
-33 81 -11 137 -25 172 -42 67 -32 113 -37 192 -20 45 9 80 11 115 5 28 -5 86
-12 129 -16 47 -5 82 -13 86 -21 5 -7 35 -24 67 -37 32 -13 61 -29 63 -35 2
-6 11 -19 20 -28 54 -55 76 -178 91 -496 10 -211 31 -410 50 -475 5 -19 10
-47 10 -62 0 -15 6 -42 14 -60 8 -18 22 -60 32 -93 10 -33 24 -69 31 -80 7
-11 13 -34 13 -52 0 -21 5 -33 13 -33 26 0 50 -132 48 -265 -1 -83 3 -138 13
-167 8 -24 19 -68 26 -98 7 -30 16 -68 21 -84 5 -16 9 -54 9 -85 0 -58 30
-169 55 -208 8 -12 15 -29 15 -38 0 -8 4 -15 8 -15 5 0 14 -24 22 -52 13 -52
39 -118 51 -128 3 -3 11 -25 17 -50 9 -37 7 -62 -9 -135 -21 -100 -26 -294 -9
-386 41 -228 54 -818 25 -1074 -9 -71 -21 -195 -27 -275 -9 -115 -16 -149 -30
-164 -10 -11 -18 -23 -18 -28 0 -4 -31 -8 -69 -8 -60 0 -74 -4 -99 -25 -41
-34 -92 -113 -92 -141 0 -34 21 -74 39 -74 11 0 6 -10 -16 -30 -32 -29 -63
-79 -63 -100 0 -7 -7 -27 -16 -46 -10 -20 -14 -44 -10 -60 6 -23 11 -25 49
-22 35 2 44 -1 52 -20 9 -20 45 -32 45 -14 0 4 48 9 107 10 114 4 178 22 188
51 3 10 16 23 30 29 18 8 28 26 40 69 33 119 71 219 104 273 69 113 68 111 73
225 3 61 18 168 32 239 15 71 25 134 22 141 -6 17 52 264 76 325 35 87 108
313 108 335 0 8 4 23 10 33 5 9 23 76 39 147 15 72 45 175 64 230 21 56 37
119 37 144 0 24 4 60 10 80 5 20 12 48 15 64 3 16 12 27 21 27 13 0 15 7 10
31 l-6 30 100 -5 c56 -3 104 -7 108 -9 17 -10 412 13 472 28 36 9 77 16 93 15
15 0 27 4 27 9 0 5 32 17 70 26 39 9 70 20 70 24 0 3 17 15 38 26 47 25 126
79 172 117 50 43 247 178 259 178 5 0 11 4 13 8 9 23 281 180 363 209 73 26
219 35 320 18 180 -29 295 -99 324 -195 12 -39 8 -88 -15 -185 -4 -16 -8 -165
-8 -330 -1 -266 -3 -307 -20 -360 -29 -89 -27 -178 4 -240 14 -27 32 -69 39
-93 8 -23 24 -53 36 -65 36 -36 114 -156 122 -185 3 -15 19 -57 35 -94 15 -37
28 -74 28 -83 0 -9 23 -63 50 -121 28 -58 50 -108 50 -112 0 -4 10 -18 23 -32
12 -14 37 -48 54 -75 18 -28 40 -59 50 -70 29 -31 83 -112 83 -124 0 -6 5 -11
10 -11 6 0 10 -9 10 -20 0 -11 4 -20 10 -20 12 0 50 -128 50 -171 -1 -65 -35
-235 -60 -294 -4 -11 -11 -27 -14 -35 -4 -8 -15 -28 -26 -45 -10 -16 -27 -45
-36 -64 -20 -38 -61 -83 -91 -99 -11 -6 -67 -18 -124 -27 -163 -25 -224 -56
-254 -129 -7 -17 -23 -40 -34 -50 -29 -26 -29 -86 -1 -86 11 0 20 -7 20 -15 0
-12 11 -16 43 -15 23 0 100 -3 171 -6 124 -6 206 4 206 25 0 4 19 16 43 27 47
21 137 100 137 121 0 7 4 13 8 13 4 0 26 28 49 63 22 34 50 71 62 81 12 11 21
23 21 27 0 5 16 24 35 43 19 20 35 39 35 43 1 13 38 53 49 53 6 0 11 6 11 13
0 7 26 39 58 72 32 33 78 82 101 109 40 47 43 53 39 97 -4 34 -16 65 -44 106
-21 32 -41 60 -44 63 -13 13 -81 172 -87 204 -3 17 -10 38 -14 48 -6 11 -4 18
6 22 17 6 71 -79 82 -126 3 -16 11 -28 17 -28 7 0 23 -19 36 -42 77 -140 91
-171 104 -234 9 -38 32 -112 52 -164 31 -79 38 -111 42 -192 7 -146 -10 -184
-74 -172 -74 14 -222 -64 -259 -137 -33 -63 -11 -124 49 -140 23 -6 46 -15 51
-19 10 -8 84 -20 140 -22 44 -2 184 32 225 54 57 31 67 54 84 189 9 68 16 138
16 154 -1 17 6 79 14 139 9 60 13 112 11 116 -3 4 4 41 14 81 10 41 22 110 26
154 6 68 4 87 -14 128 -11 26 -27 50 -35 53 -8 3 -17 16 -20 30 -4 13 -13 24
-21 24 -9 0 -15 10 -15 25 0 16 -6 25 -15 25 -8 0 -15 9 -15 20 0 11 -4 20 -9
20 -5 0 -12 12 -16 27 -3 15 -15 38 -25 52 -30 43 -160 304 -160 323 0 9 -4
20 -10 23 -5 3 -10 15 -10 26 0 10 -4 19 -10 19 -5 0 -10 7 -10 14 0 8 -16 50
-36 93 -107 234 -123 318 -85 453 11 41 30 120 42 175 12 55 31 134 44 175 12
41 30 104 40 140 46 170 82 266 55 147 -5 -23 -18 -112 -29 -197 -41 -313 -33
-640 21 -795 25 -74 145 -298 175 -327 18 -18 33 -39 33 -45 0 -7 6 -13 13
-13 7 0 20 -13 30 -29 9 -16 37 -54 62 -85 25 -30 45 -57 45 -60 0 -3 13 -24
29 -48 16 -24 43 -79 61 -123 29 -70 33 -94 38 -198 l5 -118 25 3 c40 5 62 58
62 151 0 81 -24 187 -41 187 -6 0 -8 4 -4 9 12 20 -9 96 -32 119 -13 13 -26
37 -30 53 -3 16 -9 29 -14 29 -5 0 -9 7 -9 15 0 8 -7 15 -15 15 -8 0 -15 5
-15 11 0 7 -11 22 -25 35 -14 13 -25 28 -25 33 0 6 -11 17 -23 26 -13 8 -29
33 -36 55 -7 23 -18 40 -26 40 -8 0 -15 6 -15 14 0 8 -13 25 -29 39 -49 41
-115 239 -140 423 -12 82 -25 173 -31 202 -6 35 -6 72 1 109 6 31 8 64 6 74
-3 11 -1 19 4 19 5 0 9 26 9 58 0 31 12 100 26 152 14 52 28 106 31 120 33
171 42 237 37 271 -4 25 -3 39 4 39 14 0 15 227 1 236 -5 3 -9 23 -9 46 0 22
-6 52 -14 66 -28 54 -94 198 -100 218 -3 11 -14 29 -24 40 -10 10 -23 43 -30
72 -15 66 -95 207 -141 247 -19 16 -58 51 -85 78 -28 26 -54 47 -57 47 -3 0
-12 11 -19 25 -7 14 -19 25 -27 25 -7 0 -38 25 -68 55 -30 30 -58 55 -63 55
-6 0 -12 7 -15 15 -4 8 -25 26 -49 41 -23 15 -51 38 -61 51 -10 12 -29 23 -42
23 -12 0 -28 6 -34 14 -6 8 -22 16 -34 19 -12 3 -53 17 -92 32 -209 79 -352
124 -419 130 -80 7 -125 20 -176 50 -118 70 -654 103 -1030 64 -197 -20 -360
-22 -475 -5 -135 20 -229 42 -275 66 -19 10 -60 23 -90 31 -30 7 -79 23 -109
36 -29 13 -64 23 -77 23 -13 0 -24 5 -24 10 0 6 -8 10 -17 10 -10 0 -29 7 -43
14 -14 8 -45 24 -70 37 -25 13 -51 29 -58 36 -7 7 -20 13 -28 13 -8 0 -14 7
-14 15 0 8 -6 15 -14 15 -8 0 -16 10 -18 22 -2 12 -14 28 -27 35 -13 6 -28 19
-33 27 -5 9 -16 16 -23 16 -9 0 -15 10 -15 25 0 14 -7 28 -15 31 -8 4 -15 13
-15 21 0 22 -31 85 -52 106 -10 10 -18 29 -18 42 0 13 -6 30 -13 37 -7 7 -16
21 -20 31 -3 9 -13 17 -20 17 -8 0 -17 14 -21 31 -3 17 -19 44 -36 60 -16 17
-30 37 -30 45 0 8 -4 14 -10 14 -5 0 -10 9 -10 20 0 11 -4 20 -10 20 -5 0 -10
6 -10 14 0 8 -6 21 -14 28 -7 8 -17 24 -20 36 -4 12 -12 22 -17 22 -5 0 -9 6
-9 13 0 6 -11 21 -23 32 -16 13 -22 27 -19 42 3 16 0 23 -12 23 -9 0 -16 8
-16 20 0 11 -4 20 -10 20 -5 0 -10 6 -10 14 0 8 -6 16 -12 18 -15 5 -16 69 -4
175 7 60 6 76 -8 98 -9 14 -25 25 -36 25 -12 0 -20 7 -20 16 0 20 -59 74 -82
74 -9 0 -19 -8 -21 -17 -4 -17 -5 -17 -6 0 -2 25 -43 21 -77 -8 -29 -25 -42
-29 -78 -25 -10 1 -23 -4 -27 -12 -7 -9 -11 -10 -16 -2 -5 6 -18 14 -30 18
-11 4 -24 18 -27 31 -4 14 -13 25 -21 25 -8 0 -15 5 -15 10 0 16 -40 12 -46
-5z m224 -136 c-19 -13 -28 -11 -28 5 0 9 7 12 21 9 16 -4 17 -8 7 -14z m1073
-2112 c-10 -9 -11 -8 -5 6 3 10 9 15 12 12 3 -3 0 -11 -7 -18z m1909 -512 c0
-9 -9 -15 -22 -15 -21 0 -21 0 -2 15 24 18 24 18 24 0z m1587 -627 c-3 -8 -6
-5 -6 6 -1 11 2 17 5 13 3 -3 4 -12 1 -19z m213 -2462 c-14 -14 -19 -5 -13 28
6 30 6 30 15 6 5 -14 5 -27 -2 -34z m-767 -126 c-3 -11 -9 -20 -15 -20 -5 0
-4 9 2 20 6 11 12 20 14 20 2 0 2 -9 -1 -20z m744 -42 c-3 -8 -6 -5 -6 6 -1
11 2 17 5 13 3 -3 4 -12 1 -19z m-877 -132 c0 -3 -4 -8 -10 -11 -5 -3 -10 -1
-10 4 0 6 5 11 10 11 6 0 10 -2 10 -4z m-30 -34 c0 -11 -39 -47 -67 -61 -19
-9 -23 -9 -23 2 0 8 13 17 29 20 18 4 32 14 36 27 6 19 25 28 25 12z m731 -42
c26 -14 24 -25 -6 -38 -33 -15 -35 -15 -35 3 0 8 -4 15 -10 15 -5 0 -10 7 -10
15 0 17 32 20 61 5z m-836 -40 c-3 -5 -13 -10 -21 -10 -8 0 -12 5 -9 10 3 6
13 10 21 10 8 0 12 -4 9 -10z m754 -41 c-21 -21 -29 -24 -29 -9 0 17 24 38 37
33 8 -3 5 -11 -8 -24z"/>
</g>
</svg>
