<?xml version="1.0" standalone="no"?>
<!DOCTYPE svg PUBLIC "-//W3C//DTD SVG 20010904//EN"
 "http://www.w3.org/TR/2001/REC-SVG-20010904/DTD/svg10.dtd">
<svg version="1.0" xmlns="http://www.w3.org/2000/svg"
 width="255.000000pt" height="187.000000pt" viewBox="0 0 255.000000 187.000000"
 preserveAspectRatio="xMidYMid meet">
<metadata>
Created by potrace 1.13, written by Peter Selinger 2001-2015
</metadata>
<g transform="translate(0.000000,187.000000) scale(0.100000,-0.100000)"
fill="#000000" stroke="none">
<path d="M455 1863 c-30 -7 -128 -40 -155 -53 -14 -7 -41 -35 -60 -62 -49 -71
-69 -88 -147 -127 -37 -19 -74 -41 -80 -50 -21 -24 -15 -70 14 -117 40 -62 79
-73 230 -68 105 4 121 2 135 -13 25 -28 58 -92 58 -111 0 -15 45 -143 70 -197
5 -11 14 -37 20 -57 6 -21 16 -40 21 -43 5 -4 9 -15 9 -26 0 -10 5 -28 12 -38
15 -24 -16 -69 -78 -111 -24 -17 -48 -38 -52 -48 -13 -25 -4 -170 13 -223 20
-60 76 -122 107 -117 28 4 52 66 44 116 -4 28 -3 30 10 18 20 -20 17 -76 -6
-131 -11 -26 -20 -63 -20 -83 0 -21 -7 -69 -15 -107 -11 -56 -20 -75 -45 -96
-16 -14 -30 -32 -30 -41 0 -20 32 -48 54 -48 31 0 82 48 111 105 15 31 33 59
40 63 7 4 20 43 29 87 9 44 21 89 27 100 5 11 29 83 54 159 25 77 50 145 56
153 15 17 79 17 105 -1 13 -9 63 -17 144 -21 126 -7 174 1 275 44 35 15 158
33 204 29 67 -5 81 -37 88 -197 3 -69 9 -134 14 -143 5 -9 9 -24 9 -33 0 -9
13 -27 29 -41 49 -41 80 -168 44 -181 -27 -9 -53 -34 -53 -50 0 -7 12 -19 28
-26 15 -6 29 -15 32 -18 12 -16 71 19 97 56 25 37 27 47 28 150 0 61 4 116 8
123 5 7 3 29 -3 48 -10 31 -10 39 4 52 21 21 45 8 68 -37 9 -18 26 -43 38 -56
12 -12 29 -36 38 -53 38 -67 86 -111 130 -118 24 -4 65 -23 95 -43 49 -35 52
-39 55 -84 l3 -48 51 3 c46 3 52 6 59 29 3 15 4 53 0 85 -6 57 -8 60 -46 79
-22 11 -41 23 -43 28 -2 4 -8 7 -13 7 -29 0 -141 160 -158 225 -7 28 -22 82
-33 120 -11 39 -22 117 -25 175 -6 112 -23 199 -48 236 -8 13 -15 28 -15 34 0
6 -12 27 -27 47 -33 43 -28 53 57 104 52 32 73 39 116 39 35 0 58 -6 71 -17
23 -21 92 -107 116 -145 12 -19 22 -25 37 -21 45 12 1 100 -98 197 l-61 59
-83 -5 c-74 -5 -91 -10 -153 -46 -39 -23 -84 -55 -102 -72 -27 -27 -35 -30
-53 -20 -11 6 -73 15 -138 20 -118 9 -254 22 -435 39 -54 5 -119 18 -145 27
-53 20 -181 99 -227 139 -16 14 -35 29 -42 33 -16 10 -73 117 -73 137 0 9 -19
37 -43 63 -24 26 -54 63 -67 82 -13 19 -32 41 -42 48 -10 7 -33 27 -51 43 -17
17 -42 35 -55 40 -24 9 -100 10 -137 2z m55 -63 c0 -5 -8 -10 -17 -10 -15 0
-16 2 -3 10 19 12 20 12 20 0z m-180 -90 c0 -5 -7 -10 -15 -10 -8 0 -15 -5
-15 -12 0 -6 -3 -8 -7 -4 -5 4 1 14 11 22 23 17 26 17 26 4z m270 -364 c0 -2
-7 -7 -16 -10 -8 -3 -12 -2 -9 4 6 10 25 14 25 6z m810 -283 c0 -13 -3 -13
-15 -3 -8 7 -15 16 -15 21 0 5 7 6 15 3 8 -4 15 -13 15 -21z m-663 -239 c-3
-3 -12 -4 -19 -1 -8 3 -5 6 6 6 11 1 17 -2 13 -5z m-52 -14 c-11 -5 -33 -8
-50 -8 -29 0 -29 0 -5 8 14 4 36 8 50 8 23 1 23 0 5 -8z m1692 -702 c-3 -8 -6
-5 -6 6 -1 11 2 17 5 13 3 -3 4 -12 1 -19z"/>
</g>
</svg>
