<?xml version="1.0" standalone="no"?>
<!DOCTYPE svg PUBLIC "-//W3C//DTD SVG 20010904//EN"
 "http://www.w3.org/TR/2001/REC-SVG-20010904/DTD/svg10.dtd">
<svg version="1.0" xmlns="http://www.w3.org/2000/svg"
 width="759.000000pt" height="644.000000pt" viewBox="0 0 759.000000 644.000000"
 preserveAspectRatio="xMidYMid meet">
<metadata>
Created by potrace 1.13, written by Peter Selinger 2001-2015
</metadata>
<g transform="translate(0.000000,644.000000) scale(0.100000,-0.100000)"
fill="#000000" stroke="none">
<path d="M4195 5500 c-33 -4 -103 -8 -155 -9 -171 -2 -246 -21 -350 -87 -20
-13 -61 -25 -95 -29 -33 -4 -65 -11 -71 -16 -21 -17 -127 -49 -165 -49 -29 0
-42 -6 -59 -27 -19 -24 -21 -36 -16 -88 16 -149 17 -172 4 -182 -12 -9 -59
-16 -276 -43 -40 -5 -101 -17 -135 -26 -104 -28 -139 -33 -212 -34 -39 0 -95
-6 -125 -14 -100 -25 -153 -29 -405 -30 l-251 -1 -94 -46 c-52 -26 -106 -50
-120 -54 -22 -6 -71 -33 -135 -73 -11 -7 -38 -21 -60 -32 -22 -11 -67 -37
-100 -60 -33 -22 -65 -40 -71 -40 -9 0 -91 -80 -198 -195 -49 -52 -145 -180
-182 -242 -12 -20 -45 -62 -73 -94 -28 -32 -51 -61 -51 -65 0 -5 -20 -29 -44
-54 -24 -25 -59 -64 -78 -87 -18 -23 -58 -73 -88 -110 -122 -151 -155 -215
-171 -329 -6 -44 -14 -83 -19 -89 -20 -25 -33 -139 -40 -360 -10 -285 -1 -415
36 -523 36 -106 48 -279 29 -419 -16 -117 -72 -279 -114 -333 -123 -157 -136
-181 -110 -207 8 -8 8 -17 0 -31 -15 -29 -14 -80 3 -89 8 -4 16 -21 18 -38 4
-40 34 -46 48 -9 18 46 82 178 100 204 10 14 20 39 23 55 17 90 29 135 48 178
25 61 46 216 55 422 5 94 10 147 14 129 4 -17 10 -36 14 -43 5 -7 15 -40 22
-74 8 -34 34 -93 56 -132 l42 -70 4 -215 c5 -249 -10 -539 -38 -725 -11 -71
-23 -175 -26 -230 -7 -99 -6 -101 21 -133 42 -50 56 -56 262 -102 23 -6 95
-10 161 -10 166 0 202 20 202 112 0 27 -8 52 -20 68 -11 14 -20 33 -20 42 0 9
-4 20 -10 23 -16 10 -12 90 11 215 11 63 24 165 29 225 4 61 11 117 14 125 3
8 14 66 25 128 11 63 27 124 35 138 9 13 16 30 16 39 0 16 9 19 25 7 11 -7 45
-163 45 -204 0 -13 6 -32 14 -43 17 -25 37 -126 97 -480 7 -41 7 -97 0 -177
-6 -64 -11 -145 -11 -180 0 -58 3 -67 30 -93 l30 -29 183 -5 c319 -10 347 -8
397 15 25 12 56 34 69 48 31 33 24 80 -22 145 -60 83 -118 296 -136 501 -19
208 -53 435 -71 468 -16 32 -33 102 -27 109 10 10 273 17 294 8 10 -5 23 -7
30 -6 6 1 14 -12 18 -29 4 -16 11 -32 16 -35 5 -4 9 -24 9 -46 0 -27 4 -39 14
-39 9 0 12 -7 9 -20 -3 -12 1 -28 9 -38 34 -42 39 -70 43 -252 2 -102 5 -192
5 -200 1 -8 -1 -44 -5 -80 -4 -36 -8 -96 -11 -135 -4 -74 -23 -155 -36 -155
-4 0 -8 -7 -8 -16 0 -8 -14 -43 -31 -77 -36 -73 -69 -235 -69 -342 0 -105 24
-137 145 -193 134 -62 193 -70 533 -74 l293 -3 20 25 c50 63 50 63 43 160 l-7
91 -63 67 c-82 86 -94 112 -94 204 0 41 -6 118 -14 170 -12 81 -13 103 -1 141
16 55 24 114 34 286 5 73 13 136 19 140 6 3 14 19 17 34 4 15 11 30 16 33 5 3
9 14 9 25 0 10 9 27 20 36 11 10 20 23 20 30 0 6 6 18 14 25 18 19 46 74 46
92 0 8 6 19 13 23 11 7 32 47 91 173 24 50 46 86 46 76 0 -5 7 -3 15 4 12 10
41 11 118 6 252 -17 289 -32 433 -172 92 -90 133 -142 174 -224 12 -25 32 -56
45 -70 31 -35 125 -206 125 -228 0 -10 4 -22 8 -27 4 -6 16 -35 26 -65 10 -30
26 -73 36 -95 22 -46 50 -137 50 -159 0 -8 13 -34 29 -58 15 -24 38 -70 50
-103 13 -33 27 -62 32 -66 7 -4 4 -30 -5 -73 -24 -103 -21 -151 12 -185 43
-44 48 -45 442 -81 151 -14 321 -17 392 -7 38 6 74 19 105 40 42 28 48 37 51
71 4 42 -37 148 -67 176 -9 8 -42 28 -75 44 -49 25 -66 41 -105 100 -25 39
-53 77 -61 86 -92 98 -110 130 -110 199 0 49 -48 185 -101 283 -42 79 -69 195
-69 295 0 50 -4 95 -10 98 -5 3 -10 15 -10 26 0 10 -4 27 -9 37 -6 9 -19 46
-30 82 -11 36 -30 90 -42 120 -14 36 -25 88 -29 150 -4 52 -15 120 -24 150
-12 40 -19 110 -23 263 -6 216 4 365 33 459 8 26 14 65 14 87 0 38 7 63 33
119 6 13 11 69 12 125 l0 101 45 -3 c113 -7 244 -182 285 -381 4 -19 12 -41
17 -47 15 -19 53 -16 69 5 20 24 49 89 49 111 0 23 45 66 54 52 18 -28 172
-142 190 -139 37 6 42 33 13 71 -15 20 -31 46 -36 59 -5 13 -36 57 -69 100
-52 65 -59 78 -47 88 11 9 15 9 15 1 0 -6 39 -53 88 -105 117 -126 185 -203
220 -252 16 -22 70 -75 118 -116 49 -42 99 -90 111 -107 29 -39 146 -132 198
-159 23 -11 79 -55 125 -97 108 -98 182 -154 245 -187 28 -14 70 -44 94 -67
24 -23 52 -41 60 -41 9 0 43 -27 76 -60 72 -73 95 -76 148 -22 20 21 37 43 37
49 0 6 7 16 15 23 28 24 18 57 -32 97 -25 21 -75 63 -109 93 -98 86 -142 118
-173 125 -16 3 -47 22 -69 41 -22 18 -44 34 -49 34 -5 0 -31 23 -58 51 -28 28
-84 77 -125 109 -73 56 -230 213 -230 230 0 5 -25 37 -55 72 -73 82 -185 278
-185 322 0 6 -13 39 -29 72 -16 34 -35 88 -41 120 -16 77 -65 226 -90 272 -11
20 -20 45 -20 54 0 10 -9 41 -21 70 -12 29 -25 87 -29 128 -5 41 -16 109 -25
150 -9 41 -20 99 -26 128 -5 29 -27 117 -49 195 -22 78 -40 154 -40 168 0 15
-6 31 -13 38 -17 14 -61 104 -121 246 -9 22 -22 49 -28 60 -24 43 -79 162
-109 238 -27 68 -82 116 -168 147 -31 11 -63 24 -71 29 -9 4 -59 16 -113 26
-85 15 -109 16 -180 5 -151 -22 -167 -23 -229 -5 -32 9 -83 30 -113 46 -57 31
-88 34 -210 19z"/>
</g>
</svg>
