<?xml version="1.0" standalone="no"?>
<!DOCTYPE svg PUBLIC "-//W3C//DTD SVG 20010904//EN"
 "http://www.w3.org/TR/2001/REC-SVG-20010904/DTD/svg10.dtd">
<svg version="1.0" xmlns="http://www.w3.org/2000/svg"
 width="228.000000pt" height="232.000000pt" viewBox="0 0 228.000000 232.000000"
 preserveAspectRatio="xMidYMid meet">
<metadata>
Created by potrace 1.13, written by Peter Selinger 2001-2015
</metadata>
<g transform="translate(0.000000,232.000000) scale(0.100000,-0.100000)"
fill="#000000" stroke="none">
<path d="M145 2294 c-80 -41 -135 -146 -135 -259 1 -111 91 -278 191 -352 26
-20 46 -39 44 -41 -2 -3 -29 5 -60 18 -62 25 -85 22 -85 -14 0 -30 50 -75 119
-106 40 -19 51 -29 51 -47 0 -27 40 -47 132 -63 74 -14 98 -28 126 -78 21 -38
84 -102 100 -102 14 0 72 -59 72 -73 0 -6 -6 -43 -13 -82 -8 -41 -12 -106 -9
-157 5 -94 8 -82 -85 -366 -29 -90 -53 -178 -53 -195 0 -53 -18 -100 -55 -142
-44 -50 -49 -67 -35 -109 15 -47 61 -60 184 -54 73 4 106 11 143 29 44 22 48
27 51 63 2 22 -2 50 -9 62 -23 43 -9 97 70 269 l18 39 11 -74 c6 -41 21 -100
33 -130 31 -82 32 -91 5 -135 -66 -106 -69 -133 -18 -170 54 -40 297 -29 337
15 10 11 17 39 18 74 2 46 5 55 17 50 87 -37 209 -39 280 -5 33 15 35 19 38
71 1 30 9 69 17 87 8 17 15 44 15 60 0 42 19 104 43 139 l21 32 45 -38 c26
-21 69 -48 96 -61 90 -40 108 -57 102 -94 -3 -18 -19 -52 -36 -75 -40 -56 -43
-112 -7 -136 34 -22 199 -31 263 -14 102 27 109 44 73 192 -11 46 -20 99 -20
119 0 24 -8 45 -25 65 -44 50 -215 280 -215 289 0 3 9 5 20 5 29 0 75 69 95
145 34 123 6 206 -108 334 -40 43 -100 110 -134 148 -88 99 -147 128 -288 143
-211 22 -195 18 -195 50 0 33 -17 53 -69 79 -59 31 -140 50 -241 57 -52 3
-104 11 -115 16 -20 10 -75 68 -75 79 0 17 -69 41 -106 37 -58 -7 -183 -27
-234 -38 -169 -35 -322 46 -365 193 -16 56 -16 58 5 92 13 20 30 35 41 35 17
0 19 8 19 70 l0 70 -37 0 c-21 0 -51 -7 -68 -16z m1904 -1314 c-5 -20 -15 -51
-24 -70 -11 -23 -14 -26 -10 -10 3 14 8 58 12 99 6 68 7 71 18 45 7 -18 9 -42
4 -64z m-819 -287 c19 -9 71 -21 117 -27 59 -7 82 -14 79 -22 -3 -7 -8 -30
-11 -51 -4 -21 -13 -52 -21 -69 -7 -17 -20 -70 -27 -118 -11 -68 -20 -93 -40
-114 -14 -15 -29 -45 -33 -67 l-8 -40 -8 35 c-4 19 -13 71 -18 115 -6 44 -18
95 -26 113 -8 18 -20 58 -25 90 -6 31 -15 71 -20 88 -11 38 -12 84 -1 84 5 0
24 -7 42 -17z"/>
</g>
</svg>
