<?xml version="1.0" standalone="no"?>
<!DOCTYPE svg PUBLIC "-//W3C//DTD SVG 20010904//EN"
 "http://www.w3.org/TR/2001/REC-SVG-20010904/DTD/svg10.dtd">
<svg version="1.0" xmlns="http://www.w3.org/2000/svg"
 width="357.000000pt" height="301.000000pt" viewBox="0 0 357.000000 301.000000"
 preserveAspectRatio="xMidYMid meet">
<metadata>
Created by potrace 1.13, written by Peter Selinger 2001-2015
</metadata>
<g transform="translate(0.000000,301.000000) scale(0.100000,-0.100000)"
fill="#000000" stroke="none">
<path d="M779 2981 c-9 -15 -37 -38 -62 -50 -25 -12 -59 -37 -76 -56 -16 -18
-39 -35 -52 -37 -32 -4 -63 -58 -93 -159 -9 -31 -23 -62 -31 -69 -12 -10 -15
-48 -15 -216 0 -206 -7 -250 -38 -256 -21 -4 -51 -141 -51 -235 -1 -40 -5 -73
-10 -73 -5 0 -11 -24 -14 -52 -11 -109 -39 -233 -57 -253 -10 -11 -21 -31 -25
-45 -4 -14 -23 -48 -41 -77 -19 -28 -34 -56 -34 -62 0 -6 -6 -11 -13 -11 -8 0
-24 -20 -36 -45 -12 -25 -28 -45 -35 -45 -7 0 -18 -15 -26 -34 -9 -25 -21 -36
-41 -40 -26 -5 -29 -9 -29 -46 0 -36 2 -40 26 -40 47 0 57 8 204 154 115 115
139 143 145 169 6 24 50 53 59 39 4 -7 9 -97 7 -133 -1 -12 -18 -18 -68 -25
-60 -8 -68 -12 -71 -32 -5 -30 14 -52 44 -52 13 0 24 -4 24 -10 0 -15 36 -12
50 5 7 8 19 15 26 15 11 0 14 -28 14 -144 0 -80 4 -147 8 -150 11 -7 27 -247
26 -393 0 -88 -4 -116 -16 -130 -9 -10 -24 -46 -34 -79 -15 -53 -20 -60 -32
-48 -19 20 -35 17 -56 -8 -15 -18 -17 -25 -7 -41 10 -15 9 -22 -3 -36 -23 -25
-20 -54 7 -79 19 -18 35 -22 85 -22 35 0 62 -4 62 -10 0 -17 23 -10 63 18 30
20 44 40 58 82 10 30 18 67 19 83 0 15 4 27 9 27 5 0 15 25 22 55 7 31 16 58
21 61 4 3 8 34 8 68 0 46 4 67 16 77 12 10 15 28 12 78 -4 77 9 380 22 530 9
100 11 105 44 137 19 19 39 34 44 34 5 0 22 19 38 43 57 83 63 105 64 212 0
56 4 105 9 110 5 6 11 21 13 35 2 20 9 25 33 25 28 0 30 -2 28 -35 -1 -19 -6
-36 -12 -38 -8 -3 -11 -78 -11 -232 0 -183 3 -233 15 -256 8 -16 15 -40 15
-53 0 -30 27 -138 45 -176 7 -16 21 -61 30 -100 10 -38 22 -73 28 -76 12 -8 0
-29 -17 -29 -23 0 -57 -46 -63 -86 -3 -21 -12 -51 -19 -66 -8 -15 -14 -50 -14
-78 0 -47 13 -81 66 -171 38 -64 81 -78 91 -29 3 17 9 30 14 30 5 0 9 9 9 19
0 41 19 29 26 -15 8 -57 -10 -146 -35 -168 -14 -13 -17 -25 -12 -49 6 -31 9
-32 59 -35 32 -2 52 1 52 7 0 6 9 11 20 11 11 0 20 -4 20 -10 0 -25 77 4 86
33 3 9 12 17 20 17 17 0 18 12 2 28 -10 10 -10 17 -1 31 6 10 15 36 19 57 4
21 15 52 25 69 53 87 61 110 67 187 3 57 9 82 21 91 10 7 23 28 31 47 8 19 18
40 22 45 9 11 66 97 84 127 6 10 18 26 27 36 10 10 17 23 17 28 1 17 47 62 82
78 26 13 42 31 59 67 l24 49 160 -2 160 -3 8 -78 c8 -69 6 -83 -12 -120 -11
-23 -30 -85 -42 -139 -12 -54 -26 -98 -31 -98 -4 0 -8 -6 -8 -14 0 -7 -12 -16
-27 -19 -35 -8 -73 -62 -73 -106 0 -52 24 -88 65 -95 19 -4 35 -11 35 -15 0
-5 21 -11 46 -15 25 -3 51 -12 59 -20 7 -7 36 -16 64 -20 28 -4 51 -11 51 -16
0 -24 56 -7 82 24 22 26 29 50 42 144 11 77 22 121 35 140 11 15 25 50 31 77
6 28 17 59 25 71 7 11 21 57 31 101 15 70 19 80 36 75 10 -2 25 -17 34 -33 8
-16 19 -29 24 -29 5 0 19 -33 31 -72 12 -40 26 -78 31 -85 5 -6 12 -54 15
-105 10 -187 10 -194 -15 -228 -32 -42 -28 -105 9 -132 23 -18 34 -19 114 -10
49 6 91 15 93 21 2 6 15 11 28 11 27 0 53 13 95 50 22 19 29 33 29 62 0 20 5
40 11 44 15 9 2 74 -19 97 -9 11 -19 47 -24 89 -4 44 -15 82 -26 98 -18 25
-62 152 -62 181 0 8 -4 19 -9 24 -19 20 -28 123 -20 245 4 69 8 166 8 216 1
68 5 93 15 97 7 3 16 21 20 40 8 43 33 68 47 46 5 -8 9 -19 9 -25 0 -6 9 -19
21 -30 11 -10 29 -37 39 -59 18 -38 86 -110 106 -110 5 0 24 -4 42 -9 27 -6
38 -3 72 24 22 18 52 51 66 75 21 36 24 54 22 106 -4 78 -23 96 -62 58 -19
-18 -26 -34 -26 -65 0 -52 -17 -101 -37 -108 -17 -7 -43 10 -43 28 -1 15 -85
106 -99 106 -6 0 -11 13 -11 30 0 16 -6 49 -14 72 -8 24 -16 77 -19 118 -8
107 -33 277 -59 404 -17 87 -30 121 -60 167 -21 33 -42 59 -48 59 -5 0 -10 6
-10 13 0 8 -44 56 -97 108 -125 120 -196 157 -368 189 -66 12 -124 25 -130 30
-5 4 -80 10 -165 14 -315 12 -382 24 -441 78 -16 15 -35 28 -40 28 -6 0 -31 9
-56 21 -43 19 -68 21 -381 25 -184 3 -339 7 -343 10 -5 3 -9 16 -9 30 0 23 -2
24 -72 24 -70 0 -74 -1 -89 -29z m-359 -1191 c0 -5 -4 -10 -10 -10 -5 0 -10 5
-10 10 0 6 5 10 10 10 6 0 10 -4 10 -10z m2433 -1445 c-3 -9 -8 -14 -10 -11
-3 3 -2 9 2 15 9 16 15 13 8 -4z"/>
</g>
</svg>
