<?xml version="1.0" standalone="no"?>
<!DOCTYPE svg PUBLIC "-//W3C//DTD SVG 20010904//EN"
 "http://www.w3.org/TR/2001/REC-SVG-20010904/DTD/svg10.dtd">
<svg version="1.0" xmlns="http://www.w3.org/2000/svg"
 width="372.000000pt" height="289.000000pt" viewBox="0 0 372.000000 289.000000"
 preserveAspectRatio="xMidYMid meet">
<metadata>
Created by potrace 1.13, written by Peter Selinger 2001-2015
</metadata>
<g transform="translate(0.000000,289.000000) scale(0.100000,-0.100000)"
fill="#000000" stroke="none">
<path d="M2808 2555 c-4 -4 -28 -7 -54 -7 -37 1 -47 -2 -51 -17 -5 -20 -31
-31 -73 -31 -15 0 -30 -4 -35 -9 -6 -6 -41 -11 -80 -13 -59 -3 -70 -6 -73 -22
-2 -10 -12 -28 -22 -39 -25 -26 -9 -60 36 -78 19 -7 39 -18 43 -24 14 -16 -5
-242 -22 -259 -7 -8 -20 -36 -27 -63 -8 -26 -16 -50 -19 -53 -4 -3 -11 -18
-16 -34 -6 -16 -19 -34 -30 -40 -11 -6 -24 -17 -28 -23 -10 -16 -317 -19 -317
-3 0 6 -8 10 -17 10 -10 1 -31 11 -47 24 l-28 24 3 116 c3 67 9 120 15 124 15
10 25 39 34 106 5 33 14 62 20 66 7 4 14 34 17 68 7 72 2 76 -101 87 -53 6
-70 5 -77 -6 -5 -8 -9 -9 -9 -4 0 6 -30 9 -74 8 -105 -2 -129 -27 -141 -148
-6 -67 -5 -71 19 -94 23 -22 26 -32 26 -98 0 -40 -4 -73 -9 -73 -5 0 -14 -20
-20 -45 -6 -24 -18 -48 -26 -52 -8 -5 -18 -26 -23 -48 -7 -34 -12 -40 -32 -40
-24 0 -25 3 -22 50 1 28 4 96 5 153 1 74 6 105 16 111 8 6 15 38 18 95 3 48
10 89 14 92 16 10 10 62 -8 69 -10 3 -65 11 -123 16 -58 5 -136 12 -174 15
-56 6 -75 4 -102 -11 -29 -15 -34 -23 -34 -54 0 -30 7 -41 41 -66 l41 -30 -5
-64 c-3 -35 -9 -66 -15 -70 -5 -3 -17 -30 -25 -58 -9 -29 -25 -62 -36 -75 -12
-12 -21 -30 -21 -39 0 -10 -6 -22 -13 -26 -7 -4 -21 -26 -32 -48 -11 -22 -23
-42 -26 -45 -13 -10 -39 -170 -39 -238 0 -41 -4 -72 -10 -72 -6 0 -10 -37 -10
-90 0 -53 -4 -90 -10 -90 -5 0 -10 6 -10 14 0 8 -6 21 -13 28 -8 7 -17 26 -21
41 -8 34 -71 128 -93 141 -8 4 -24 17 -34 27 -10 10 -31 21 -46 25 -63 15 -81
31 -92 85 -6 28 -18 57 -26 65 -8 9 -15 27 -15 40 0 14 -10 35 -23 47 -13 12
-29 37 -36 55 -8 17 -17 32 -21 32 -5 0 -11 13 -15 28 -3 15 -16 40 -28 54
-12 15 -35 44 -52 64 -46 58 -74 83 -149 131 -70 45 -94 48 -103 13 -3 -11
-16 -23 -29 -26 -20 -5 -23 -11 -18 -33 9 -37 11 -38 41 -46 38 -9 112 -57
118 -75 3 -9 19 -30 35 -49 17 -18 34 -46 37 -62 3 -16 9 -29 14 -29 4 0 10
-8 13 -17 3 -10 17 -31 31 -47 46 -53 46 -132 0 -124 -20 4 -25 1 -25 -17 0
-15 -12 -28 -38 -41 -23 -12 -38 -28 -40 -42 -3 -20 1 -22 37 -22 32 0 41 -4
42 -17 2 -35 -3 -93 -9 -117 -7 -23 -8 -24 -27 -8 -11 9 -31 33 -45 52 -27 39
-121 134 -164 165 -15 11 -35 28 -44 37 -20 20 -65 38 -93 38 -31 0 -25 -51
11 -86 16 -16 30 -34 30 -39 0 -6 9 -16 20 -23 13 -8 20 -23 20 -43 0 -25 6
-33 30 -42 17 -6 30 -17 30 -24 0 -7 4 -13 9 -13 5 0 28 -28 52 -62 23 -35 47
-66 53 -70 6 -5 7 -8 1 -8 -6 0 -6 -3 0 -8 17 -12 85 -156 85 -179 0 -12 6
-28 13 -35 8 -7 17 -36 20 -63 4 -28 14 -97 24 -155 11 -71 16 -154 14 -254
-2 -165 2 -182 59 -260 34 -48 222 -196 247 -196 7 0 13 -4 13 -10 0 -14 76
-60 135 -82 29 -10 77 -18 113 -18 35 0 94 -6 131 -14 269 -57 362 -60 381
-11 5 13 14 26 21 30 6 4 20 26 30 49 10 23 27 51 39 61 11 10 20 28 20 40 0
45 18 49 208 41 632 -26 601 -26 677 3 29 12 107 50 130 64 35 21 245 189 245
195 0 4 18 20 40 36 22 17 40 36 40 43 0 7 13 27 30 45 55 61 61 68 78 106 9
20 22 40 29 45 7 4 15 23 19 42 3 20 12 39 18 43 7 4 20 29 31 57 10 27 27 58
37 69 10 11 18 23 18 26 0 4 11 20 25 36 20 24 25 40 25 86 0 37 5 62 15 72
18 17 22 206 5 206 -5 0 -10 7 -10 15 0 20 -32 85 -42 85 -5 0 -16 16 -25 35
-9 19 -20 35 -25 35 -4 0 -8 24 -8 54 0 57 -1 56 73 80 33 11 16 41 -26 44
-45 4 -102 -27 -111 -61 -14 -54 3 -207 24 -207 4 0 15 -20 26 -45 10 -25 22
-45 26 -45 11 0 10 -186 -1 -208 -5 -9 -15 -38 -22 -64 -6 -27 -17 -48 -23
-48 -17 0 -35 34 -42 80 -4 22 -10 40 -14 40 -4 0 -11 17 -14 38 -8 43 -28
105 -37 112 -21 18 -29 90 -29 255 0 171 9 240 31 255 5 3 14 41 20 84 6 42
18 83 25 91 8 8 21 51 30 97 9 45 20 85 25 88 5 3 10 30 13 59 2 28 7 55 10
58 3 4 6 19 6 34 0 34 -26 53 -101 75 -58 16 -290 31 -301 19z m-828 -165 c0
-11 -4 -20 -10 -20 -5 0 -10 9 -10 20 0 11 5 20 10 20 6 0 10 -9 10 -20z"/>
</g>
</svg>
