<?xml version="1.0" standalone="no"?>
<!DOCTYPE svg PUBLIC "-//W3C//DTD SVG 20010904//EN"
 "http://www.w3.org/TR/2001/REC-SVG-20010904/DTD/svg10.dtd">
<svg version="1.0" xmlns="http://www.w3.org/2000/svg"
 width="447.000000pt" height="334.000000pt" viewBox="0 0 447.000000 334.000000"
 preserveAspectRatio="xMidYMid meet">
<metadata>
Created by potrace 1.13, written by Peter Selinger 2001-2015
</metadata>
<g transform="translate(0.000000,334.000000) scale(0.100000,-0.100000)"
fill="#000000" stroke="none">
<path d="M2615 3270 c-3 -5 -39 -10 -78 -10 -65 0 -75 -3 -100 -27 -38 -37
-77 -99 -77 -122 0 -30 -33 -51 -76 -49 -21 1 -71 -2 -109 -7 -59 -6 -73 -5
-84 9 -7 9 -22 16 -33 16 -10 0 -32 7 -47 15 -16 8 -69 19 -117 26 -74 9 -108
9 -199 -5 -218 -31 -398 -68 -419 -86 -25 -20 -187 -101 -266 -132 -50 -19
-90 -44 -120 -73 -25 -23 -60 -50 -78 -59 -17 -9 -32 -21 -32 -26 0 -15 -147
-171 -185 -197 -20 -14 -35 -32 -35 -43 0 -11 -4 -20 -9 -20 -17 0 -21 -65
-22 -365 -1 -165 -5 -305 -10 -310 -10 -14 6 -237 20 -263 6 -11 12 -87 13
-168 2 -118 -1 -163 -15 -219 -23 -87 -50 -154 -82 -201 -14 -20 -25 -49 -25
-64 0 -49 61 -80 90 -45 40 48 97 176 123 274 19 74 22 108 20 247 -2 105 -8
181 -18 220 -15 60 -21 194 -7 194 9 0 42 -58 42 -75 0 -7 6 -18 14 -24 10 -8
15 -64 20 -229 4 -119 12 -221 17 -226 11 -12 12 -46 0 -46 -4 0 -11 -25 -14
-57 -3 -31 -10 -59 -15 -62 -5 -3 -12 -24 -15 -46 -4 -22 -11 -41 -17 -43 -5
-2 -10 -14 -10 -26 0 -12 -7 -31 -15 -42 -8 -10 -15 -25 -15 -32 0 -8 -9 -25
-20 -39 -11 -14 -20 -36 -20 -49 0 -13 -4 -24 -10 -24 -5 0 -10 -21 -10 -47 0
-27 -7 -59 -15 -73 -8 -14 -17 -32 -20 -40 -4 -8 -11 -23 -16 -32 -13 -25 -11
-45 5 -51 10 -4 16 -24 18 -54 3 -41 7 -50 30 -61 16 -7 28 -17 28 -23 0 -5 6
-9 14 -9 8 0 21 -6 28 -13 7 -8 38 -17 68 -21 30 -4 57 -11 60 -16 3 -5 51
-10 107 -12 127 -4 143 6 143 89 0 37 -4 55 -14 59 -8 3 -18 19 -21 35 -4 16
-11 29 -16 29 -5 0 -9 20 -9 45 0 25 5 45 10 45 6 0 10 9 10 21 0 11 11 45 25
75 14 30 25 57 25 60 0 3 26 40 58 82 32 42 66 89 75 105 21 32 37 35 37 7 0
-11 5 -20 10 -20 6 0 10 -8 10 -18 0 -9 9 -34 20 -55 11 -20 20 -45 20 -55 0
-11 11 -39 25 -63 14 -24 27 -51 31 -59 3 -8 9 -22 14 -32 5 -9 12 -50 16 -92
4 -42 11 -76 15 -76 5 0 9 -13 9 -28 0 -39 56 -92 97 -92 18 0 34 4 38 9 3 6
27 13 53 16 26 3 59 13 74 21 14 8 36 14 47 14 12 0 21 4 21 9 0 4 27 11 60
15 33 4 60 11 60 15 0 5 12 11 28 14 32 7 62 55 62 100 0 42 -72 117 -112 117
-23 0 -28 5 -34 35 -3 19 -10 38 -15 41 -5 2 -11 27 -15 54 -4 28 -10 50 -15
50 -4 0 -11 20 -15 45 -3 25 -10 45 -14 45 -5 0 -11 13 -15 30 -4 16 -11 30
-16 30 -12 0 -12 63 0 76 6 5 11 32 13 59 l3 50 257 -1 c184 -1 267 -5 290
-14 18 -7 59 -38 90 -68 57 -56 94 -128 127 -248 6 -23 18 -47 26 -54 8 -7 15
-18 15 -25 0 -7 9 -23 19 -36 15 -20 19 -43 20 -119 1 -52 5 -96 9 -98 5 -1 6
-43 4 -92 -3 -60 -1 -95 7 -104 8 -10 9 -16 1 -21 -16 -10 -12 -50 8 -68 14
-13 49 -18 158 -23 169 -8 238 3 279 46 26 27 27 33 22 83 -4 30 -14 70 -22
90 -21 50 -21 255 -1 283 14 18 15 18 26 -11 12 -30 26 -100 54 -270 24 -139
65 -180 180 -180 40 0 86 6 102 13 139 64 204 110 204 145 0 24 -57 97 -76 97
-18 0 -41 52 -64 147 -10 39 -21 76 -25 82 -3 6 -17 66 -30 134 -13 67 -31
147 -40 177 -9 30 -27 105 -40 165 -36 166 -37 169 -49 184 -7 9 -13 93 -16
227 -4 151 -9 217 -17 226 -21 20 -15 47 11 54 43 10 61 1 64 -34 2 -17 7 -32
12 -32 5 0 10 -59 12 -130 2 -72 8 -134 13 -138 12 -9 55 -69 55 -77 0 -10 57
-65 68 -65 5 0 17 -9 27 -20 10 -11 24 -20 31 -20 8 0 16 -12 19 -27 4 -16 10
-36 16 -45 5 -10 12 -98 15 -195 4 -98 11 -181 16 -184 4 -3 9 -85 9 -182 1
-137 4 -179 15 -188 9 -8 14 -34 14 -80 0 -45 5 -72 14 -82 8 -8 18 -32 22
-53 4 -21 11 -42 17 -45 5 -4 12 -27 14 -53 3 -25 9 -46 14 -46 4 0 10 -14 14
-30 4 -17 11 -30 16 -30 5 0 9 -10 9 -23 0 -26 28 -54 65 -63 14 -3 25 -10 25
-15 0 -12 37 -11 45 1 3 6 41 10 84 10 68 0 80 3 99 23 26 28 28 69 6 92 -13
12 -14 19 -5 28 16 16 14 34 -6 57 -20 23 -61 27 -69 5 -10 -24 -24 -17 -24
10 0 14 -6 28 -14 31 -7 3 -17 23 -20 46 -4 22 -13 47 -21 55 -8 8 -15 25 -15
38 0 13 -4 27 -10 30 -13 8 -13 192 0 197 5 1 12 72 16 156 4 84 11 155 16
158 4 3 8 77 8 165 0 150 1 159 19 159 11 0 26 -7 35 -15 17 -17 52 -20 61 -5
3 6 18 10 33 10 28 0 62 30 62 54 0 25 -24 35 -101 42 -65 6 -76 9 -86 30 -6
13 -7 24 -2 24 5 0 9 27 9 59 0 33 4 63 10 66 13 8 56 -24 72 -55 14 -27 162
-180 174 -180 4 0 32 -23 63 -51 31 -28 68 -61 82 -74 15 -13 39 -27 53 -31
14 -3 26 -10 26 -15 0 -5 16 -9 35 -9 34 0 35 1 35 41 0 44 -19 68 -52 69 -10
0 -18 6 -18 14 0 8 -7 16 -15 20 -8 3 -15 12 -15 21 0 8 -5 15 -11 15 -13 0
-39 25 -39 38 0 5 -9 17 -20 27 -11 10 -20 24 -20 32 0 7 -7 13 -15 13 -8 0
-15 5 -15 10 0 6 -10 21 -22 33 -26 25 -37 42 -74 112 -14 28 -32 54 -40 58
-8 4 -14 19 -14 32 0 14 -4 25 -9 25 -4 0 -12 28 -15 62 -4 35 -12 68 -17 75
-6 6 -13 38 -15 70 -3 32 -9 67 -14 78 -5 11 -11 64 -13 119 -2 54 -9 101 -15
105 -6 3 -15 29 -19 56 -6 37 -14 53 -32 61 -42 21 -51 56 -51 198 0 155 -16
219 -72 286 -20 25 -39 59 -43 75 -23 101 -36 124 -113 195 -54 50 -88 73
-117 80 -22 6 -61 17 -86 26 -26 8 -72 18 -103 21 -31 3 -59 10 -62 14 -7 13
-201 11 -209 -1 -3 -5 -15 -10 -26 -10 -10 0 -19 5 -19 10 0 6 -33 10 -79 10
-44 0 -83 -4 -86 -10 -3 -5 -19 -10 -36 -10 -16 0 -29 5 -29 10 0 14 -96 12
-121 -2 -17 -10 -23 -10 -26 0 -6 14 -49 16 -58 2z m1342 -1292 c-3 -8 -6 -5
-6 6 -1 11 2 17 5 13 3 -3 4 -12 1 -19z m-3047 -1593 c7 -9 8 -15 2 -15 -5 0
-12 7 -16 15 -3 8 -4 15 -2 15 2 0 9 -7 16 -15z"/>
</g>
</svg>
