<?xml version="1.0" standalone="no"?>
<!DOCTYPE svg PUBLIC "-//W3C//DTD SVG 20010904//EN"
 "http://www.w3.org/TR/2001/REC-SVG-20010904/DTD/svg10.dtd">
<svg version="1.0" xmlns="http://www.w3.org/2000/svg"
 width="683.000000pt" height="686.000000pt" viewBox="0 0 683.000000 686.000000"
 preserveAspectRatio="xMidYMid meet">
<metadata>
Created by potrace 1.13, written by Peter Selinger 2001-2015
</metadata>
<g transform="translate(0.000000,686.000000) scale(0.100000,-0.100000)"
fill="#000000" stroke="none">
<path d="M3865 6623 c-11 -2 -30 -6 -42 -8 -36 -8 -155 -114 -149 -133 8 -25
-25 -70 -75 -103 -24 -16 -47 -29 -52 -29 -4 0 -25 -11 -47 -25 -22 -14 -48
-25 -59 -25 -11 0 -24 -6 -28 -13 -10 -17 -67 -37 -104 -37 -15 0 -31 -4 -34
-10 -3 -5 -16 -10 -29 -10 -12 0 -26 -4 -31 -8 -19 -16 -111 -41 -182 -51 -74
-10 -89 -16 -323 -135 -114 -58 -240 -142 -240 -158 0 -5 -15 -15 -32 -23 -55
-24 -132 -89 -153 -129 -11 -21 -30 -43 -43 -47 -23 -9 -30 -43 -12 -54 16
-10 1 -25 -24 -25 -12 0 -27 -5 -34 -12 -8 -8 -58 -12 -149 -13 -252 -2 -343
-28 -653 -183 -154 -77 -223 -131 -453 -354 -228 -221 -332 -336 -388 -429
-18 -30 -39 -58 -46 -62 -7 -4 -13 -15 -13 -23 0 -9 -11 -35 -25 -58 -37 -63
-109 -236 -183 -441 -36 -99 -70 -186 -76 -194 -6 -8 -11 -42 -12 -77 0 -35
-6 -69 -11 -76 -7 -8 -11 -95 -10 -248 l2 -235 32 -68 c18 -37 50 -94 72 -125
22 -31 59 -99 81 -151 22 -52 49 -105 61 -117 18 -19 19 -25 7 -44 -11 -18
-11 -23 5 -34 14 -11 16 -22 11 -60 -4 -26 -11 -49 -15 -52 -17 -10 -8 -35 16
-44 35 -13 35 -57 0 -70 -21 -8 -25 -16 -25 -53 0 -33 -6 -49 -25 -67 -14 -13
-25 -29 -25 -35 0 -6 -9 -29 -19 -51 -11 -22 -16 -43 -11 -49 5 -6 0 -27 -11
-49 -20 -42 -26 -121 -9 -131 14 -9 13 -78 -2 -93 -8 -8 -8 -15 1 -26 8 -10 9
-16 1 -21 -13 -8 -13 -52 1 -61 7 -4 0 -17 -17 -35 -24 -25 -26 -33 -17 -48 7
-10 9 -28 6 -39 -2 -11 0 -23 6 -26 6 -4 11 -26 11 -50 0 -30 6 -48 19 -60 11
-10 21 -32 23 -50 3 -29 6 -31 46 -34 34 -3 43 0 48 15 3 10 10 26 15 35 5 11
5 19 -1 23 -6 3 -10 19 -10 34 0 16 -7 34 -15 41 -21 18 -19 33 10 60 20 19
25 33 25 75 0 28 -5 56 -11 62 -8 8 -8 17 0 32 6 11 16 30 21 41 6 11 10 53
10 94 0 53 4 77 15 86 8 7 15 18 15 25 0 20 31 79 59 108 22 24 24 31 13 47
-15 24 -16 57 -2 65 15 9 40 73 40 101 0 12 4 26 10 29 5 3 10 30 10 60 0 30
4 56 9 59 5 4 25 -15 44 -41 20 -27 54 -66 77 -88 51 -48 76 -95 94 -174 8
-34 24 -77 36 -96 32 -51 130 -251 130 -264 0 -6 4 -20 10 -31 6 -11 14 -28
19 -39 23 -45 34 -112 32 -188 -2 -66 2 -90 18 -122 12 -22 21 -49 21 -60 0
-11 5 -23 11 -27 8 -5 10 -43 5 -133 -4 -69 -7 -149 -6 -178 0 -28 -4 -54 -10
-58 -5 -3 -10 -19 -10 -34 0 -15 -5 -32 -12 -39 -8 -8 -5 -14 15 -21 30 -12
35 -32 12 -51 -22 -19 -18 -55 10 -88 28 -33 32 -62 13 -92 -10 -16 -10 -24
-1 -40 8 -12 9 -21 3 -25 -6 -3 -10 -17 -10 -31 0 -14 -7 -36 -16 -49 -13 -20
-14 -28 -4 -40 7 -8 18 -15 24 -15 15 0 59 -58 76 -100 18 -48 39 -70 65 -70
13 0 28 -7 35 -15 8 -9 30 -15 56 -15 25 0 53 -6 64 -12 16 -10 24 -10 40 0
12 7 55 12 109 12 66 0 92 4 101 15 7 8 21 15 31 15 11 0 28 6 39 12 15 9 25
10 37 2 20 -12 59 4 88 36 10 11 24 20 31 20 7 0 20 16 29 35 9 19 23 39 31
46 13 10 11 16 -10 38 -19 20 -26 39 -28 81 l-3 55 -38 3 c-25 2 -40 9 -44 20
-4 9 -26 39 -50 67 -33 39 -43 58 -43 85 0 20 5 41 12 48 9 9 6 18 -12 37 -18
19 -21 28 -12 37 21 21 14 87 -11 118 -19 22 -26 49 -37 141 -17 143 -18 222
-4 240 6 8 12 21 12 29 4 38 14 87 24 107 8 17 8 26 -2 38 -11 13 -7 15 32 15
56 0 108 -17 108 -36 0 -8 11 -19 25 -24 14 -5 25 -17 25 -28 0 -10 21 -38 46
-62 25 -25 69 -79 96 -120 65 -95 92 -134 98 -140 31 -30 155 -199 179 -245
18 -33 43 -71 57 -86 13 -14 24 -32 24 -40 0 -21 29 -46 85 -74 41 -21 48 -22
73 -9 16 8 37 23 47 34 10 11 23 20 30 20 7 0 20 9 30 20 21 23 64 45 109 55
22 4 26 9 17 18 -15 15 -14 27 2 27 8 0 22 10 33 21 10 12 29 25 42 30 13 5
22 17 22 29 0 15 7 20 29 20 23 0 38 11 71 50 23 27 47 50 54 50 18 0 56 43
56 63 0 9 5 19 10 22 6 3 10 30 10 60 0 30 -4 57 -10 60 -5 3 -10 20 -10 36 0
21 -7 32 -22 40 -39 17 -68 35 -92 58 -24 23 -75 28 -93 10 -8 -8 -19 -8 -40
1 -20 9 -44 40 -82 108 -30 52 -68 111 -85 131 -70 79 -132 181 -183 297 -29
68 -53 132 -53 143 0 11 -5 23 -11 26 -12 8 17 45 36 45 7 0 18 7 25 15 7 8
23 15 36 15 12 0 26 5 29 10 3 6 13 10 22 10 20 0 140 58 148 71 4 5 17 9 30
9 13 0 27 5 30 10 3 5 16 10 28 10 12 0 31 7 41 15 11 8 30 15 42 15 13 0 26
4 29 10 3 6 17 10 30 10 13 0 27 5 30 10 11 17 35 11 35 -9 0 -11 5 -23 10
-26 6 -3 10 -15 10 -26 0 -11 7 -19 17 -19 9 0 24 -6 32 -14 14 -12 57 -30
278 -114 23 -9 44 -24 46 -34 4 -13 15 -18 39 -18 26 0 42 -9 68 -35 19 -19
39 -35 46 -35 7 0 26 -22 43 -50 22 -36 45 -58 82 -77 64 -35 240 -180 246
-204 3 -9 13 -19 24 -22 14 -4 19 -14 19 -42 0 -27 9 -48 35 -79 19 -24 35
-47 35 -53 0 -11 43 -53 55 -53 4 0 34 -27 67 -60 32 -33 58 -57 58 -53 0 3
11 -4 25 -17 14 -13 25 -31 25 -40 0 -19 30 -50 48 -50 14 0 42 -63 42 -95 0
-12 7 -28 15 -35 8 -7 15 -19 15 -26 0 -8 9 -13 22 -11 14 1 26 -6 33 -21 17
-33 23 -36 39 -23 11 9 20 9 34 2 21 -11 69 6 92 34 21 26 65 42 82 32 16 -11
80 13 93 33 3 6 16 10 29 10 36 0 56 30 56 86 0 58 -18 91 -45 80 -21 -8 -45
10 -45 33 0 19 -60 81 -78 81 -8 0 -12 19 -12 55 0 50 -2 56 -25 65 -25 10
-33 34 -15 45 6 3 10 19 10 34 0 15 3 31 7 34 9 10 43 -23 43 -42 0 -9 20 -36
44 -60 36 -36 49 -42 77 -39 26 2 35 8 37 24 2 12 14 32 28 45 19 18 24 32 24
71 0 26 5 57 10 68 6 11 15 29 20 40 13 26 13 73 0 86 -7 7 -2 18 15 34 31 29
31 41 0 70 -21 19 -25 33 -25 77 0 46 -3 55 -22 62 -36 14 -118 116 -118 146
0 18 -6 29 -19 32 -11 3 -22 14 -24 25 -4 14 -11 18 -25 14 -12 -4 -25 1 -37
14 -12 14 -31 20 -58 20 l-40 0 7 53 c10 69 7 441 -3 592 -9 117 -26 224 -41
255 -4 8 -12 40 -19 70 -7 30 -16 64 -21 75 -5 11 -16 45 -26 75 -9 30 -21 64
-25 75 -5 11 -20 61 -33 110 -13 50 -34 117 -46 150 -26 71 -41 119 -64 197
-15 52 -59 107 -95 119 -18 7 0 49 20 49 11 0 28 5 38 12 23 14 51 -4 51 -32
0 -10 11 -27 24 -38 15 -11 27 -34 32 -58 3 -21 17 -57 30 -80 13 -22 24 -48
24 -56 0 -8 11 -36 25 -62 14 -26 25 -58 25 -70 0 -13 6 -29 14 -35 8 -7 22
-27 31 -46 11 -25 23 -35 38 -35 13 0 26 -9 32 -22 6 -13 21 -24 35 -26 16 -2
30 -14 41 -35 13 -26 24 -33 55 -38 68 -10 159 -70 235 -154 47 -53 69 -86 69
-103 0 -14 8 -35 18 -46 10 -12 27 -41 38 -66 10 -25 29 -60 41 -79 15 -22 23
-49 23 -76 0 -29 6 -47 20 -60 14 -12 20 -33 22 -74 2 -44 7 -56 19 -56 33 0
49 -26 49 -76 0 -44 3 -51 25 -59 23 -9 25 -14 25 -80 0 -63 2 -70 19 -70 31
0 51 -38 51 -97 0 -28 5 -55 10 -58 6 -3 10 -23 10 -44 0 -43 32 -81 68 -81
19 0 22 -6 22 -40 0 -23 10 -57 25 -84 14 -25 25 -56 25 -70 0 -18 6 -25 22
-28 15 -2 30 -17 44 -43 11 -22 32 -46 47 -53 15 -7 27 -19 27 -26 0 -23 31
-76 45 -76 18 0 45 -39 45 -66 0 -11 7 -35 16 -53 12 -23 19 -29 28 -22 18 15
64 -36 68 -74 2 -23 9 -31 28 -33 14 -2 31 -8 37 -14 7 -6 20 -7 29 -4 9 4 22
1 30 -4 7 -6 32 -10 56 -8 33 2 45 8 53 26 6 13 19 22 32 22 12 0 24 4 28 9 9
16 66 41 91 41 13 0 26 5 29 11 4 5 18 14 31 19 13 5 24 16 24 24 0 9 9 31 20
51 23 41 25 57 8 88 -25 43 -41 57 -60 51 -21 -6 -25 15 -6 34 9 9 9 15 0 24
-7 7 -12 20 -12 29 0 22 -53 49 -97 49 -26 0 -36 -5 -42 -23 -11 -29 -41 -56
-41 -37 0 7 -11 28 -25 46 -14 18 -25 37 -25 43 0 5 -12 16 -27 23 -14 7 -29
20 -33 28 -21 45 -29 56 -53 68 -21 10 -27 21 -27 43 0 21 -6 32 -17 36 -20 5
-53 64 -53 93 0 11 -9 35 -20 55 -11 20 -20 53 -20 75 0 21 -5 42 -10 45 -6 3
-7 17 -4 30 3 12 1 26 -5 29 -6 4 -11 26 -11 50 0 30 -6 48 -20 61 -23 21 -25
37 -8 65 10 16 10 24 0 40 -6 11 -12 26 -12 34 0 7 -7 19 -15 26 -8 7 -15 28
-15 47 0 19 -9 53 -20 75 -23 47 -25 79 -8 96 9 9 7 17 -10 35 -15 16 -22 36
-22 63 0 30 -6 47 -25 64 -20 19 -25 33 -25 72 0 37 -6 57 -25 82 -19 25 -25
45 -25 83 0 42 -3 52 -20 56 -15 4 -20 14 -20 36 0 29 3 31 35 31 19 0 44 -5
54 -12 15 -9 26 -8 53 5 20 9 41 24 49 33 7 9 23 20 36 25 13 5 23 17 23 27 0
10 11 29 25 42 31 29 31 41 2 68 -28 26 -73 28 -99 5 -16 -14 -22 -15 -40 -4
-15 9 -23 10 -31 2 -6 -6 -21 -11 -33 -11 -13 0 -26 -4 -29 -10 -11 -18 -45
-11 -45 8 0 11 -11 24 -25 30 -22 10 -25 18 -25 65 0 41 -5 58 -20 72 -21 19
-26 50 -10 60 6 3 10 15 10 26 0 25 16 24 30 -2 9 -16 18 -19 36 -15 19 5 24
3 24 -14 0 -13 7 -20 19 -20 10 0 24 -7 31 -15 7 -8 18 -15 24 -15 7 0 23 -11
36 -25 13 -14 31 -25 40 -25 22 0 75 -26 90 -45 19 -23 68 -44 89 -38 10 2 22
0 25 -6 4 -6 22 -11 40 -11 20 0 40 -8 51 -20 26 -29 73 -50 110 -50 18 0 38
-7 45 -15 7 -8 17 -15 23 -15 6 0 21 -9 33 -21 19 -17 25 -19 42 -8 16 10 23
10 36 0 8 -7 20 -10 25 -7 6 4 19 1 30 -6 16 -10 23 -9 39 5 10 9 24 17 30 17
15 0 16 46 2 55 -5 3 -10 19 -10 34 0 15 -8 35 -18 44 -21 20 -82 23 -100 5
-9 -9 -13 -7 -18 8 -18 47 -93 112 -115 99 -5 -4 -9 0 -9 9 0 21 -47 74 -73
82 -12 3 -53 21 -92 39 -57 27 -80 45 -124 99 -67 83 -124 133 -192 171 -58
31 -88 61 -89 86 0 9 -9 24 -20 34 -11 10 -20 26 -20 36 0 10 -5 21 -10 24
-30 18 -153 257 -180 350 -11 34 -38 95 -81 177 -5 10 -9 25 -9 33 0 8 -8 15
-18 15 -11 0 -27 16 -40 39 -12 21 -29 44 -37 51 -8 7 -15 21 -15 31 0 11 -10
23 -24 29 -13 5 -27 14 -31 19 -3 6 -16 11 -29 11 -36 0 -63 39 -99 142 -18
52 -43 108 -55 123 -15 19 -22 42 -22 72 0 30 -7 53 -20 70 -11 15 -20 41 -20
60 0 23 -9 46 -25 65 -20 24 -25 41 -25 84 0 47 -2 54 -20 54 -17 0 -20 7 -20
45 0 38 -4 47 -22 54 -13 5 -32 18 -42 30 -11 11 -24 21 -30 21 -6 0 -20 15
-30 34 -10 18 -29 39 -42 45 -13 6 -24 17 -24 24 0 16 -61 77 -78 77 -7 0 -12
8 -12 18 0 20 -29 52 -46 52 -6 0 -16 6 -22 13 -7 6 -25 12 -40 13 -15 0 -81
16 -147 34 -69 20 -144 34 -177 35 -50 0 -61 4 -90 31 -53 51 -77 59 -133 47z
m-2085 -6113 c0 -5 -2 -10 -4 -10 -3 0 -8 5 -11 10 -3 6 -1 10 4 10 6 0 11 -4
11 -10z"/>
</g>
</svg>
