<?xml version="1.0" standalone="no"?>
<!DOCTYPE svg PUBLIC "-//W3C//DTD SVG 20010904//EN"
 "http://www.w3.org/TR/2001/REC-SVG-20010904/DTD/svg10.dtd">
<svg version="1.0" xmlns="http://www.w3.org/2000/svg"
 width="168.000000pt" height="274.000000pt" viewBox="0 0 168.000000 274.000000"
 preserveAspectRatio="xMidYMid meet">
<metadata>
Created by potrace 1.13, written by Peter Selinger 2001-2015
</metadata>
<g transform="translate(0.000000,274.000000) scale(0.100000,-0.100000)"
fill="#000000" stroke="none">
<path d="M140 2730 c0 -5 -5 -10 -11 -10 -20 0 -54 -44 -84 -111 -27 -60 -29
-72 -30 -189 0 -122 10 -187 41 -257 8 -17 14 -34 14 -37 0 -14 46 -102 62
-120 10 -11 18 -25 18 -30 0 -6 -5 -3 -11 7 -6 11 -22 17 -44 17 -32 0 -35 -3
-35 -29 0 -16 5 -42 11 -57 11 -30 71 -94 89 -94 5 0 10 -14 10 -31 0 -32 30
-69 57 -69 7 0 13 -4 13 -10 0 -5 16 -12 36 -16 49 -9 68 -30 94 -105 22 -60
35 -81 85 -130 23 -23 24 -46 7 -299 -10 -146 -17 -190 -67 -385 -30 -121 -60
-260 -65 -310 -6 -49 -15 -91 -20 -93 -6 -2 -10 -10 -10 -18 0 -8 -3 -14 -7
-14 -17 0 -33 -57 -33 -112 0 -47 4 -62 22 -80 21 -21 32 -23 108 -22 53 1 85
5 88 13 2 6 12 11 22 11 10 0 26 8 36 17 14 15 16 30 10 113 -5 85 -3 104 21
183 14 48 32 87 38 87 14 0 25 -45 25 -104 0 -23 5 -47 10 -52 16 -16 18 -116
3 -121 -7 -3 -13 -14 -13 -26 0 -12 -7 -31 -15 -41 -9 -12 -15 -42 -15 -76 0
-84 16 -94 156 -98 104 -3 113 -2 132 18 28 31 38 117 18 165 -12 27 -16 72
-16 159 0 68 -7 152 -15 191 -20 94 -31 255 -18 255 6 0 13 -7 17 -15 3 -8 12
-15 21 -15 8 0 15 -4 15 -10 0 -5 18 -13 40 -16 22 -4 40 -10 40 -15 0 -5 7
-9 15 -9 20 0 19 -21 -5 -114 -12 -43 -25 -112 -30 -153 -6 -43 -18 -89 -30
-108 -27 -44 -24 -90 8 -150 24 -44 32 -51 67 -56 22 -4 61 -5 86 -2 57 7 70
25 80 118 13 124 63 325 80 325 5 0 11 -11 15 -25 3 -14 10 -25 15 -25 5 0 9
-7 9 -15 0 -8 4 -15 9 -15 7 0 49 -35 104 -87 22 -22 22 -78 -1 -111 -52 -74
-56 -202 -7 -202 7 0 15 -5 17 -10 2 -6 44 -14 94 -17 75 -5 93 -3 106 11 9 9
23 16 32 16 21 0 30 58 22 128 -4 32 -11 107 -15 167 -7 98 -12 118 -45 182
-20 39 -36 76 -36 82 0 6 -4 11 -10 11 -5 0 -10 5 -10 11 0 7 -16 45 -35 85
-19 40 -35 77 -35 82 0 5 10 13 23 16 23 6 57 66 57 102 1 15 2 16 9 4 5 -8
12 -73 16 -145 8 -140 16 -175 40 -175 17 0 19 9 6 43 -11 28 -27 372 -22 482
1 39 -2 108 -8 153 -10 80 -18 103 -65 202 -25 53 -215 253 -257 270 -18 8
-60 11 -114 8 -47 -2 -85 -1 -85 4 0 4 -9 8 -19 8 -17 0 -18 4 -10 38 25 99
24 106 -19 151 -64 66 -102 87 -167 94 -36 4 -61 11 -64 19 -6 21 -100 108
-127 118 -33 13 -151 13 -159 0 -3 -5 -21 -10 -38 -10 -18 0 -52 -7 -77 -16
-43 -15 -131 -15 -172 1 -9 4 -31 34 -49 68 -30 55 -33 70 -34 143 0 59 4 84
15 96 12 12 18 12 27 3 7 -7 18 -15 25 -17 9 -3 13 -29 13 -90 1 -97 9 -114
62 -124 60 -11 65 2 53 147 -9 104 -16 134 -41 186 -21 44 -37 63 -54 67 -14
4 -25 11 -25 16 0 6 -20 10 -45 10 -25 0 -45 -4 -45 -10z"/>
</g>
</svg>
