<?xml version="1.0" standalone="no"?>
<!DOCTYPE svg PUBLIC "-//W3C//DTD SVG 20010904//EN"
 "http://www.w3.org/TR/2001/REC-SVG-20010904/DTD/svg10.dtd">
<svg version="1.0" xmlns="http://www.w3.org/2000/svg"
 width="720.000000pt" height="637.000000pt" viewBox="0 0 720.000000 637.000000"
 preserveAspectRatio="xMidYMid meet">
<metadata>
Created by potrace 1.13, written by Peter Selinger 2001-2015
</metadata>
<g transform="translate(0.000000,637.000000) scale(0.100000,-0.100000)"
fill="#000000" stroke="none">
<path d="M2860 6119 c-99 -9 -147 -18 -240 -49 -30 -10 -82 -25 -115 -35 -33
-9 -84 -28 -112 -41 -29 -13 -67 -27 -85 -31 -18 -3 -40 -11 -48 -18 -8 -7
-46 -23 -85 -36 -38 -13 -83 -33 -100 -45 -16 -11 -57 -31 -90 -43 -33 -12
-67 -28 -75 -35 -18 -16 -173 -76 -196 -76 -9 0 -27 -9 -41 -20 -14 -11 -31
-20 -38 -20 -6 0 -22 -12 -36 -26 -13 -14 -53 -45 -89 -69 -36 -24 -74 -58
-85 -75 -11 -17 -39 -46 -61 -65 -23 -19 -59 -60 -80 -92 -42 -64 -96 -133
-161 -205 -24 -26 -43 -51 -43 -56 0 -5 -16 -29 -35 -53 -19 -24 -35 -48 -35
-53 0 -6 -10 -20 -21 -32 -25 -27 -40 -51 -69 -114 -20 -43 -29 -63 -66 -147
-9 -21 -36 -78 -59 -128 -56 -117 -105 -231 -105 -243 0 -7 -44 -120 -90 -227
-47 -114 -87 -324 -100 -540 -5 -77 -16 -207 -25 -290 -14 -125 -15 -168 -5
-262 14 -140 7 -171 -60 -243 -27 -30 -50 -58 -50 -62 0 -5 -17 -8 -37 -8 -32
0 -42 6 -61 33 -12 18 -22 38 -22 44 0 6 -7 24 -15 39 -8 16 -15 38 -16 49 -1
35 -34 149 -51 175 -8 14 -19 38 -23 55 -6 29 -7 29 -21 11 -10 -14 -14 -49
-14 -119 0 -85 5 -112 34 -202 19 -56 45 -120 58 -142 13 -21 28 -48 34 -58 6
-11 24 -27 40 -35 16 -8 32 -18 35 -23 21 -28 149 -29 149 -1 0 7 13 23 30 36
16 12 30 29 30 39 0 9 6 19 14 22 7 3 16 18 19 34 3 15 15 60 26 98 11 39 25
129 31 200 6 72 15 169 20 216 6 47 10 124 10 171 0 123 36 311 80 413 5 11
10 27 13 35 4 17 17 -309 17 -444 0 -107 27 -382 41 -411 5 -11 16 -65 23
-120 8 -55 22 -134 30 -175 9 -41 18 -88 21 -105 19 -97 94 -366 106 -382 15
-18 -11 -240 -31 -268 -13 -18 -50 -178 -60 -259 -5 -43 -17 -102 -25 -130 -8
-28 -17 -68 -20 -88 -3 -21 -10 -38 -14 -38 -10 0 -15 -23 -38 -160 -13 -81
-14 -116 -4 -235 16 -198 24 -245 46 -285 20 -35 52 -70 65 -70 3 0 21 -13 39
-29 19 -17 46 -33 62 -36 16 -4 29 -10 29 -15 0 -4 21 -18 47 -30 26 -12 52
-28 58 -36 11 -16 83 -20 257 -13 101 4 107 5 127 30 11 15 32 30 46 33 34 9
85 55 85 76 0 9 12 30 26 45 22 24 25 35 21 71 -5 52 -71 190 -107 224 -3 3
-18 25 -34 50 -16 25 -40 55 -54 68 -21 20 -24 29 -18 68 3 24 12 57 20 72 8
16 16 75 20 145 5 85 12 127 25 155 21 40 50 107 71 162 8 19 16 37 19 40 18
16 88 109 100 133 8 15 18 27 21 27 15 0 350 -357 350 -372 0 -5 13 -27 30
-48 16 -21 30 -41 30 -45 0 -3 28 -43 63 -88 35 -45 68 -93 75 -107 7 -14 29
-50 50 -81 20 -31 49 -74 64 -97 16 -23 40 -48 55 -57 38 -20 61 -42 107 -98
32 -39 44 -47 71 -47 36 0 75 37 75 70 0 12 11 20 34 24 22 4 52 23 80 50 l45
44 3 -87 c2 -47 -1 -144 -6 -216 -17 -242 -11 -426 15 -495 15 -41 22 -47 70
-64 30 -10 56 -23 57 -27 2 -5 12 -9 22 -9 10 0 22 -4 25 -10 3 -5 21 -10 38
-10 21 0 38 -7 47 -20 8 -12 31 -23 52 -27 21 -3 38 -9 38 -14 0 -12 78 -11
82 1 2 5 45 12 97 14 52 3 97 9 100 14 12 17 41 22 41 7 0 -8 9 -15 20 -15 13
0 20 7 20 20 0 13 10 24 25 30 30 11 75 57 75 75 0 7 6 15 13 18 7 3 19 23 26
44 11 34 11 50 -5 114 -10 41 -24 80 -31 87 -7 7 -13 18 -13 23 0 16 -86 99
-104 99 -9 0 -16 7 -16 15 0 8 -5 15 -11 15 -14 0 -31 18 -48 52 -21 40 -6
148 29 214 18 32 29 67 28 91 0 57 33 346 42 363 4 8 8 49 9 91 1 42 6 98 11
125 6 27 15 78 20 114 14 84 27 135 50 185 17 37 42 101 87 219 10 27 26 51
36 54 9 2 17 8 17 12 0 4 17 11 38 14 20 4 44 9 53 12 13 4 19 -12 33 -93 9
-54 21 -112 27 -129 5 -17 9 -42 9 -57 0 -14 5 -29 10 -32 6 -3 10 -15 10 -25
0 -21 83 -274 99 -301 5 -9 13 -38 17 -65 4 -27 13 -58 20 -69 8 -11 14 -31
14 -45 0 -14 7 -38 15 -54 8 -15 15 -38 15 -49 0 -22 14 -71 36 -122 6 -16 15
-50 19 -75 7 -44 32 -129 53 -180 24 -58 44 -138 44 -174 -1 -41 13 -73 41
-94 9 -7 17 -19 17 -25 0 -7 16 -23 35 -37 19 -14 35 -30 35 -36 0 -6 18 -19
40 -29 22 -10 40 -22 40 -27 0 -4 10 -8 23 -8 12 0 40 -7 62 -15 54 -19 216
-19 279 0 27 8 73 15 103 15 29 0 53 4 53 9 0 5 12 11 28 14 15 3 38 16 52 29
14 13 38 30 53 38 16 8 40 26 54 39 20 21 24 33 20 63 -3 20 -12 51 -21 69 -9
18 -16 38 -16 46 0 29 -43 99 -83 135 -23 21 -45 38 -49 38 -4 0 -13 6 -20 12
-24 23 -75 48 -97 48 -12 0 -21 4 -21 9 0 6 -11 22 -25 37 -14 15 -25 33 -25
40 0 8 -13 20 -29 29 -41 21 -50 68 -66 340 -9 150 -19 249 -30 285 -11 39
-17 105 -20 225 -4 192 -14 325 -24 325 -3 0 -7 26 -8 58 -2 54 -12 108 -49
262 -8 36 -21 94 -29 130 -7 36 -21 94 -29 130 -20 84 -20 198 -1 224 11 14
15 46 15 105 1 153 21 243 67 301 18 23 93 14 93 -11 0 -12 7 -19 20 -19 15 0
20 7 21 28 1 27 1 27 11 -5 12 -37 37 -46 133 -48 90 -3 95 -4 95 -21 0 -35
44 -56 68 -32 9 9 12 8 12 -6 0 -13 7 -17 26 -14 25 3 28 -1 41 -52 7 -30 19
-59 26 -65 7 -5 16 -18 20 -27 3 -10 11 -18 17 -18 13 0 40 -25 40 -37 1 -4
15 -24 33 -45 24 -27 43 -38 74 -43 53 -8 57 0 45 79 -13 81 1 73 63 -36 12
-21 23 -28 46 -28 31 0 89 -28 89 -42 0 -4 7 -8 15 -8 8 0 15 5 15 10 0 6 12
10 26 10 24 0 25 2 19 33 -4 17 -10 34 -14 37 -3 3 -21 35 -40 73 -19 37 -38
67 -43 67 -4 0 -8 7 -8 15 0 9 -16 51 -36 93 -20 42 -45 99 -55 125 l-19 49
32 -7 c18 -4 35 -11 36 -16 2 -5 9 -9 15 -9 7 0 22 -28 35 -63 13 -34 28 -73
34 -87 6 -14 14 -34 18 -45 68 -176 122 -289 179 -381 17 -26 31 -56 31 -66 0
-11 16 -44 35 -74 19 -30 35 -57 35 -60 0 -9 130 -206 149 -225 9 -9 35 -37
59 -62 26 -27 56 -48 75 -53 18 -3 34 -10 37 -14 3 -4 40 -9 83 -12 60 -4 77
-2 77 9 0 7 5 13 10 13 6 0 10 -4 10 -10 0 -13 37 -13 42 1 2 5 27 10 56 11
28 0 52 4 52 9 0 5 15 9 34 9 19 0 38 5 41 10 3 6 15 10 25 10 10 0 21 6 23
13 4 9 6 9 6 0 1 -7 10 -13 21 -13 15 0 20 7 20 27 0 21 3 24 12 15 17 -17 48
-15 48 3 0 8 7 15 15 15 8 0 15 5 15 10 0 6 8 10 19 10 14 0 21 10 25 35 4 21
13 35 21 35 8 0 15 5 15 10 0 6 9 10 20 10 13 0 20 7 20 20 0 11 5 20 10 20 6
0 10 11 10 25 0 15 6 25 14 25 9 0 19 29 30 93 10 50 22 113 28 139 9 43 8 83
-7 337 -2 35 -9 68 -16 72 -6 4 -11 27 -11 53 1 25 -3 46 -7 46 -5 0 -12 18
-16 40 -4 22 -10 40 -15 40 -4 0 -13 27 -19 60 -7 33 -16 60 -20 60 -13 0 -35
140 -32 200 1 30 3 71 3 90 1 19 4 37 7 40 3 3 17 29 31 57 20 41 30 53 48 53
94 0 159 175 121 326 -15 58 -34 68 -127 62 -65 -5 -75 -3 -79 12 -6 23 -63
53 -88 49 -18 -4 -21 -15 -25 -92 -3 -48 -9 -91 -15 -95 -12 -9 -34 -63 -48
-122 -6 -25 -14 -47 -18 -50 -3 -3 -11 -34 -18 -70 -6 -36 -15 -66 -21 -68 -5
-2 -10 -19 -10 -38 0 -19 -4 -34 -9 -34 -17 0 -20 -258 -4 -269 5 -3 15 -46
22 -96 7 -49 15 -92 19 -95 7 -4 28 -82 47 -175 4 -16 8 -84 10 -150 1 -66 4
-124 5 -130 3 -11 -6 -39 -21 -67 -5 -10 -9 -27 -9 -38 0 -11 -7 -20 -15 -20
-8 0 -15 -7 -15 -15 0 -18 -52 -75 -68 -75 -6 0 -17 -7 -26 -15 -19 -19 -178
-24 -184 -6 -2 6 -12 11 -23 11 -30 0 -98 38 -128 71 -56 61 -71 83 -71 100 0
10 -4 21 -10 24 -5 3 -10 18 -10 33 -1 15 -7 38 -15 52 -8 14 -14 39 -15 56 0
16 -4 34 -9 40 -11 10 -25 110 -42 284 -22 232 -45 373 -71 430 -14 30 -37 93
-52 140 -15 46 -43 114 -62 150 -19 37 -34 72 -34 78 0 7 -4 12 -8 12 -5 0
-14 22 -21 49 -7 28 -19 55 -27 62 -8 6 -14 22 -14 35 0 29 -16 72 -34 90 -8
8 -18 36 -21 62 -4 26 -12 76 -20 112 -7 36 -23 112 -35 170 -20 99 -64 243
-80 265 -4 6 -11 26 -14 45 -4 19 -11 44 -16 55 -5 11 -23 65 -40 120 -42 131
-80 226 -99 242 -36 30 -151 142 -151 146 0 3 -15 20 -33 38 -18 19 -44 48
-58 65 -30 37 -78 64 -112 64 -13 0 -34 9 -47 20 -12 11 -37 22 -55 26 -42 8
-289 -14 -293 -26 -2 -5 -37 -16 -78 -26 -41 -9 -80 -22 -87 -28 -36 -36 -437
-41 -437 -6 0 6 -19 10 -42 11 -25 0 -62 10 -88 24 -25 13 -63 33 -86 44 -22
11 -47 27 -54 36 -7 8 -19 15 -27 15 -8 0 -29 11 -47 25 -38 29 -219 105 -250
105 -12 0 -31 7 -43 15 -56 39 -410 57 -673 34z m-77 -3928 c26 -1 27 -3 27
-48 0 -43 13 -159 40 -346 6 -37 10 -149 10 -249 l0 -181 -24 22 c-35 33 -54
77 -72 168 -8 43 -19 87 -23 98 -18 42 -32 71 -49 100 -11 17 -24 46 -30 65
-7 19 -37 59 -67 88 -30 29 -55 58 -55 64 0 6 -13 33 -30 59 -47 77 -31 112
63 133 15 4 27 13 27 21 0 11 15 13 78 10 42 -2 89 -4 105 -4z"/>
</g>
</svg>
