<?xml version="1.0" standalone="no"?>
<!DOCTYPE svg PUBLIC "-//W3C//DTD SVG 20010904//EN"
 "http://www.w3.org/TR/2001/REC-SVG-20010904/DTD/svg10.dtd">
<svg version="1.0" xmlns="http://www.w3.org/2000/svg"
 width="632.000000pt" height="768.000000pt" viewBox="0 0 632.000000 768.000000"
 preserveAspectRatio="xMidYMid meet">
<metadata>
Created by potrace 1.13, written by Peter Selinger 2001-2015
</metadata>
<g transform="translate(0.000000,768.000000) scale(0.100000,-0.100000)"
fill="#000000" stroke="none">
<path d="M2730 6460 c0 -5 -3 -9 -7 -8 -19 5 -95 -14 -145 -36 -31 -14 -59
-22 -62 -19 -3 4 -6 1 -6 -5 0 -11 -51 -38 -74 -40 -5 0 -12 -4 -15 -9 -6 -8
-38 -27 -112 -65 -24 -13 -47 -27 -50 -31 -3 -5 -12 -10 -20 -12 -38 -9 -59
-18 -59 -27 0 -5 -4 -6 -10 -3 -5 3 -10 1 -10 -4 0 -6 -4 -10 -8 -9 -12 4
-112 -44 -112 -54 0 -5 -4 -6 -10 -3 -5 3 -10 2 -10 -3 0 -4 -21 -19 -47 -32
-27 -13 -51 -28 -55 -34 -4 -6 -8 -7 -8 -3 0 10 -81 -46 -128 -88 -59 -54
-112 -106 -112 -111 0 -3 -12 -18 -26 -34 -15 -15 -25 -29 -23 -31 4 -4 -29
-43 -83 -100 -16 -16 -28 -34 -28 -39 0 -6 -4 -8 -10 -5 -5 3 -10 1 -10 -5 0
-7 -13 -24 -28 -38 -15 -15 -43 -58 -62 -96 -19 -39 -45 -79 -57 -90 -13 -11
-23 -31 -23 -44 0 -14 -13 -38 -30 -56 -17 -17 -37 -38 -44 -46 -13 -15 -56
-104 -56 -116 0 -3 -9 -19 -21 -35 -11 -16 -18 -29 -15 -29 3 0 -6 -21 -19
-46 -33 -62 -36 -171 -5 -199 11 -10 20 -15 20 -11 0 4 7 0 16 -8 23 -23 37
-20 62 14 14 19 22 44 22 72 0 37 5 60 23 133 2 6 9 21 17 35 8 14 15 27 15
30 2 10 46 86 69 118 14 18 23 40 22 50 -2 9 10 41 27 70 28 50 42 69 95 129
12 14 22 30 22 34 0 5 7 9 15 9 8 0 15 6 15 13 0 46 190 237 235 237 17 0 17
-2 5 -10 -8 -5 -12 -10 -8 -10 7 0 -11 -25 -40 -56 -7 -8 -10 -14 -6 -14 5 0
3 -5 -4 -12 -7 -7 -12 -18 -12 -24 0 -7 -11 -25 -25 -40 -14 -15 -25 -31 -25
-36 0 -5 -6 -16 -12 -23 -26 -29 -34 -42 -73 -120 -22 -44 -39 -83 -38 -87 2
-5 -1 -8 -6 -8 -9 0 -26 -48 -23 -62 1 -5 -3 -8 -9 -8 -6 0 -9 -7 -5 -15 3 -8
1 -15 -5 -15 -6 0 -8 -4 -5 -9 4 -5 1 -11 -4 -13 -6 -2 -12 -10 -13 -18 -2 -8
-7 -22 -12 -30 -17 -26 -45 -112 -39 -121 3 -5 1 -9 -4 -9 -5 0 -15 -15 -22
-32 -6 -18 -15 -40 -20 -48 -6 -13 -19 -61 -25 -90 0 -3 -6 -15 -13 -26 -6
-12 -8 -24 -5 -28 3 -3 2 -6 -4 -6 -6 0 -10 -10 -9 -22 3 -31 -14 -69 -41 -95
-13 -12 -23 -28 -23 -34 0 -7 -3 -9 -6 -6 -4 3 -15 -5 -26 -18 -11 -14 -25
-25 -32 -25 -7 0 -22 -10 -33 -22 -12 -13 -37 -34 -57 -48 -19 -14 -36 -30
-36 -36 0 -7 -7 -15 -16 -18 -8 -3 -12 -10 -9 -16 3 -5 -1 -10 -10 -10 -9 0
-30 -14 -47 -30 -16 -17 -42 -37 -57 -45 -35 -18 -92 -76 -85 -87 3 -4 -1 -8
-9 -8 -8 0 -22 -16 -33 -35 -10 -19 -23 -35 -28 -35 -5 0 -7 -3 -3 -6 3 -3 -5
-24 -19 -45 -13 -21 -24 -45 -24 -52 0 -8 -9 -26 -20 -40 -21 -27 -34 -122
-19 -142 4 -5 9 -25 12 -43 3 -18 13 -44 21 -58 9 -13 14 -24 11 -24 -3 0 1
-13 10 -30 8 -16 14 -33 13 -37 -3 -15 20 -58 45 -85 14 -15 22 -29 19 -32 -5
-6 14 -10 31 -7 4 1 10 -6 14 -16 15 -38 96 -103 123 -98 10 2 24 -3 31 -11
13 -16 55 -19 64 -4 3 6 17 10 31 10 14 0 32 7 40 15 9 8 13 15 10 15 -3 0 -1
12 6 28 6 15 12 94 13 176 2 124 5 150 19 158 8 5 17 7 20 6 7 -5 66 61 66 72
0 6 4 9 9 5 5 -3 12 3 16 14 10 32 50 68 91 81 21 7 46 19 55 27 17 15 45 23
97 29 18 2 38 6 44 10 6 4 25 9 41 11 17 1 33 6 36 11 10 12 49 14 56 2 3 -5
1 -10 -5 -10 -6 0 -8 -4 -5 -10 3 -6 1 -10 -5 -10 -6 0 -8 -4 -5 -10 7 -11
-32 -149 -47 -167 -6 -7 -8 -13 -5 -13 3 0 -5 -12 -18 -26 -14 -15 -25 -33
-25 -39 0 -7 -7 -16 -15 -19 -9 -3 -21 -19 -26 -35 -6 -17 -19 -33 -30 -36
-10 -4 -19 -10 -19 -15 0 -4 -13 -22 -29 -39 -16 -17 -27 -31 -25 -31 6 0 -4
-12 -56 -70 -22 -25 -40 -48 -40 -52 0 -5 -7 -8 -15 -8 -8 0 -15 -3 -15 -7 0
-5 -16 -25 -35 -46 -19 -21 -37 -47 -40 -58 -4 -10 -11 -19 -16 -19 -18 0 -8
-62 17 -105 14 -24 27 -56 30 -72 3 -15 9 -29 15 -31 5 -2 9 -12 9 -23 0 -10
4 -19 8 -19 5 0 18 -18 31 -40 12 -22 27 -40 33 -40 6 0 9 -3 5 -6 -5 -5 10
-24 75 -91 11 -13 31 -23 42 -23 21 0 91 40 71 40 -5 0 -4 4 4 9 10 6 15 28
15 65 1 31 4 56 9 56 4 0 7 6 7 14 0 16 62 100 102 138 15 14 28 29 28 32 0 3
8 14 18 24 37 39 72 82 72 89 0 4 27 32 59 62 80 75 94 86 103 83 5 -1 8 2 8
7 0 5 18 28 40 51 22 23 40 43 40 45 0 9 56 59 63 57 4 -1 6 2 5 6 -3 9 57 82
67 82 9 0 35 -27 30 -32 -2 -2 14 -21 35 -42 43 -41 43 -37 1 -106 -22 -35
-86 -176 -83 -182 1 -5 -2 -8 -7 -8 -5 0 -11 -14 -15 -31 -3 -17 -10 -28 -16
-24 -5 3 -10 -1 -10 -9 0 -9 -4 -16 -9 -16 -5 0 -12 -11 -15 -25 -4 -14 -11
-23 -16 -20 -6 3 -10 1 -10 -6 0 -7 -11 -27 -25 -44 -13 -18 -21 -35 -18 -39
4 -3 1 -6 -5 -6 -6 0 -20 -20 -31 -43 -11 -24 -27 -50 -36 -57 -8 -7 -15 -16
-15 -21 0 -11 -103 -171 -123 -191 -9 -9 -13 -18 -10 -22 4 -3 1 -6 -5 -6 -6
0 -14 -9 -17 -20 -4 -11 -18 -33 -32 -48 -44 -47 -123 -154 -123 -168 0 -7 -6
-19 -13 -26 -16 -16 -40 -57 -45 -78 -8 -35 -4 -84 6 -88 7 -2 10 -7 7 -12 -3
-4 2 -13 10 -20 8 -7 15 -17 15 -22 0 -20 32 -78 40 -73 5 3 8 -3 7 -12 -2
-28 46 -114 68 -123 11 -5 35 -24 53 -44 19 -20 38 -36 43 -36 6 0 8 -4 5 -9
-5 -8 29 -25 46 -22 5 1 7 -2 7 -7 -4 -25 5 -29 69 -27 80 2 126 22 110 49 -2
2 6 14 16 25 28 31 30 186 3 206 -13 10 -15 14 -5 17 10 4 10 8 1 19 -37 45
46 163 110 159 10 -1 41 38 50 63 4 10 11 16 16 12 5 -3 12 4 16 15 3 11 11
20 16 20 5 0 8 4 6 8 -1 5 13 23 31 39 17 17 32 36 32 42 0 6 6 11 14 11 8 0
23 16 35 35 11 19 25 35 31 35 5 0 10 5 10 10 0 6 27 37 60 69 33 32 60 56 60
53 0 -3 10 6 23 19 13 13 30 25 38 27 7 2 19 9 24 16 6 7 13 14 18 14 37 7 57
16 57 27 0 7 10 12 23 11 13 -1 21 4 20 12 -2 6 4 12 12 12 8 0 15 -4 15 -10
0 -5 5 -10 11 -10 21 0 69 -41 62 -53 -4 -7 -8 -14 -8 -17 -1 -9 -46 -124 -57
-144 -5 -10 -12 -30 -15 -45 -2 -14 -7 -28 -11 -31 -4 -3 -7 -16 -7 -30 0 -14
-4 -31 -9 -38 -6 -8 -11 -23 -13 -33 -2 -10 -4 -27 -6 -36 -1 -10 -5 -22 -9
-28 -3 -5 -7 -26 -9 -45 -2 -19 -7 -40 -11 -47 -5 -6 -11 -24 -14 -38 -3 -15
-12 -41 -20 -56 -8 -16 -12 -29 -9 -29 3 0 -4 -24 -15 -53 -11 -28 -20 -61
-20 -72 0 -12 -5 -26 -12 -33 -7 -7 -8 -12 -4 -12 5 0 4 -6 -2 -13 -6 -7 -14
-28 -17 -47 -3 -18 -9 -38 -13 -44 -3 -6 -7 -26 -9 -45 -2 -19 -7 -37 -12 -40
-5 -3 -12 -20 -15 -38 -4 -17 -13 -37 -21 -43 -8 -7 -11 -23 -8 -43 3 -18 6
-54 8 -82 3 -69 14 -105 42 -138 13 -16 21 -33 17 -38 -3 -5 0 -9 7 -9 7 0 9
-3 6 -7 -9 -9 116 -143 134 -143 11 0 29 -13 62 -46 36 -34 76 -57 92 -51 8 4
20 0 27 -7 8 -7 22 -12 33 -10 11 2 23 -2 27 -9 6 -9 8 -9 8 1 0 7 4 11 9 7
13 -7 34 32 36 65 1 14 6 34 12 45 14 27 23 105 11 105 -5 0 -7 4 -3 9 3 5 1
12 -4 15 -5 4 -8 14 -6 24 1 9 -2 23 -8 30 -5 6 -6 12 -1 12 5 0 3 4 -3 8 -7
5 -14 20 -15 35 -1 15 -9 29 -16 32 -8 3 -11 12 -8 20 3 8 1 15 -4 15 -5 0 -5
12 0 29 4 16 6 32 3 34 -8 9 -11 87 -3 87 5 0 14 17 20 38 7 20 18 42 26 48 8
6 23 32 34 57 11 25 25 49 30 52 6 4 8 11 5 16 -4 5 -2 9 3 9 14 0 52 67 52
90 0 10 5 22 10 25 6 4 8 10 5 15 -3 5 1 15 9 23 8 8 18 26 22 41 3 14 10 29
15 32 5 3 7 10 4 15 -4 5 -2 9 3 9 15 0 53 41 49 53 -2 7 1 17 7 24 29 33 36
43 36 53 0 5 5 10 11 10 5 0 8 4 4 9 -3 5 -1 12 5 16 6 4 8 11 5 16 -4 5 -1 9
5 9 7 0 9 7 6 16 -3 8 -2 13 3 10 5 -3 23 31 40 77 17 45 36 90 42 100 5 10 7
22 4 27 -4 6 -1 10 4 10 6 0 11 11 11 24 0 14 6 31 14 38 7 8 17 28 20 44 8
35 55 154 56 139 0 -5 9 5 20 23 11 18 24 31 28 29 4 -2 15 4 25 15 9 10 15
18 12 18 -6 0 1 9 45 59 16 18 30 37 30 41 0 4 12 15 26 25 15 9 23 12 20 6
-5 -7 -1 -9 8 -5 9 3 13 11 9 17 -4 6 -1 7 7 2 7 -4 16 -2 21 6 6 10 9 11 9 2
0 -7 9 -22 20 -33 11 -11 17 -26 14 -35 -4 -8 0 -17 9 -21 8 -3 18 -17 22 -31
6 -26 11 -32 63 -88 26 -28 32 -41 29 -65 -4 -23 -1 -31 15 -36 12 -3 17 -11
14 -20 -3 -8 1 -17 8 -20 13 -5 14 -16 1 -74 -2 -8 -4 -16 -5 -17 -5 -7 -3
-50 2 -59 4 -6 8 -37 9 -70 1 -33 9 -70 18 -84 9 -13 16 -36 16 -50 0 -21 28
-75 39 -75 14 0 45 42 56 78 8 23 20 52 27 63 8 12 16 46 20 75 6 58 25 89 55
89 10 0 18 5 18 10 0 6 5 10 10 10 12 0 41 -61 34 -72 -2 -3 -5 -25 -6 -47 -1
-23 -6 -41 -11 -41 -5 0 -7 -7 -4 -15 4 -8 2 -17 -4 -21 -6 -4 -6 -11 2 -20 9
-11 9 -14 0 -14 -7 0 -9 -4 -6 -10 3 -5 2 -10 -3 -10 -5 0 -9 -6 -9 -12 -1
-33 -15 -137 -23 -168 -5 -19 -7 -55 -6 -80 2 -27 -3 -54 -12 -68 -27 -42 -20
-267 9 -317 3 -5 5 -22 4 -37 -1 -16 1 -28 5 -28 4 0 10 -14 14 -31 3 -16 13
-37 21 -45 8 -9 15 -24 15 -35 0 -10 4 -19 8 -19 9 0 20 -21 44 -77 7 -18 16
-33 20 -33 4 0 21 -14 38 -31 16 -18 30 -28 30 -24 0 4 8 1 18 -7 16 -14 35
-23 57 -27 6 -1 14 -12 18 -23 6 -16 10 -19 19 -10 17 17 26 15 24 -5 -1 -12
7 -17 28 -17 16 -1 31 -7 34 -13 2 -7 8 -13 13 -13 6 0 8 4 5 9 -3 5 1 14 9
21 8 7 15 8 15 3 0 -9 27 -9 93 1 10 1 24 12 33 24 8 12 20 20 25 17 5 -4 9
-2 9 4 0 6 14 24 30 41 17 17 30 27 30 23 0 -4 8 4 17 17 10 14 17 28 15 33
-1 4 3 7 9 7 6 0 9 7 6 14 -4 9 1 17 12 21 10 3 21 19 24 35 4 15 15 37 26 47
10 10 23 36 27 58 4 22 11 43 16 46 5 3 11 18 14 34 3 16 8 33 12 39 3 6 7 16
7 21 2 20 17 90 22 105 4 8 7 18 8 23 2 4 3 8 4 10 2 1 4 12 7 24 2 12 10 41
19 65 10 31 14 76 12 158 l-3 115 -48 70 c-57 81 -86 115 -102 115 -6 0 -17 7
-24 15 -33 40 -69 0 -64 -70 3 -32 -1 -46 -21 -67 -41 -45 -26 -94 30 -93 26
0 31 -5 43 -45 18 -59 23 -112 10 -127 -5 -7 -7 -17 -4 -22 4 -5 2 -12 -4 -16
-6 -4 -8 -11 -5 -16 4 -5 2 -9 -3 -9 -12 0 -34 -49 -27 -60 3 -5 1 -10 -5 -12
-6 -2 -11 -18 -13 -36 -1 -17 -6 -32 -10 -32 -5 0 -5 -4 -2 -10 3 -6 2 -10 -4
-10 -5 0 -13 -15 -16 -33 -4 -17 -16 -44 -27 -60 -11 -15 -16 -27 -11 -27 4 0
1 -5 -7 -10 -8 -5 -26 -30 -40 -56 -25 -47 -90 -98 -90 -71 -1 8 -5 7 -13 -3
-7 -9 -24 -15 -38 -15 -30 1 -99 35 -99 49 0 5 -12 20 -27 34 -16 14 -28 28
-29 31 0 3 -11 28 -24 55 -30 63 -34 186 -7 227 9 14 14 28 11 31 -3 4 0 17 7
30 7 12 12 27 11 31 -3 11 106 236 124 257 7 8 13 18 14 22 0 4 15 38 31 74
17 37 32 77 34 88 1 12 6 28 9 38 4 9 9 31 11 50 2 18 4 35 5 38 1 3 2 8 1 13
0 4 3 7 7 7 4 0 8 10 9 23 0 12 4 38 7 57 4 19 9 53 11 75 1 22 8 53 14 70 7
16 10 37 7 47 -2 10 2 24 9 31 7 7 12 26 12 42 -1 38 12 88 24 96 5 3 12 19
15 35 3 16 8 31 12 34 4 3 9 14 10 25 2 11 12 36 23 57 10 20 21 45 23 55 1
10 6 25 9 33 4 8 8 26 11 40 2 14 9 38 15 54 7 16 9 31 6 34 -2 3 0 11 6 19 6
7 8 13 4 13 -4 0 -2 6 4 14 6 8 11 18 10 22 -1 5 0 11 1 14 4 12 11 46 12 60
0 8 5 20 10 27 5 7 7 17 3 23 -3 5 -2 10 4 10 6 0 8 7 5 15 -4 8 -1 15 6 15 6
0 8 5 5 10 -3 5 -3 10 2 10 10 0 10 115 -1 158 -10 41 -16 99 -19 179 -1 35
-6 63 -10 63 -5 0 -6 4 -3 8 13 21 -103 212 -129 212 -3 0 -22 17 -43 38 -22
22 -53 45 -70 53 -18 8 -32 17 -32 21 0 5 -7 8 -15 8 -8 0 -15 4 -15 9 0 5
-14 12 -30 16 -17 4 -36 15 -43 26 -6 10 -15 19 -20 19 -9 0 -31 17 -50 39 -7
7 -32 35 -57 61 -25 26 -54 65 -65 86 -10 22 -28 51 -38 67 -10 15 -15 27 -11
27 3 0 1 7 -6 15 -7 8 -9 15 -4 15 5 0 4 4 -3 8 -7 4 -13 22 -15 40 -1 18 -5
32 -8 32 -4 0 -6 10 -5 22 1 12 -5 47 -12 77 -8 31 -14 66 -15 79 0 12 -4 22
-9 22 -5 0 -8 3 -8 8 4 26 -3 62 -11 57 -5 -3 -10 2 -10 12 0 11 -4 23 -9 29
-6 5 -11 21 -13 35 -2 15 -9 33 -16 41 -6 8 -13 23 -15 34 -8 41 -70 157 -107
201 -5 7 -10 16 -10 20 0 8 -57 83 -94 126 -9 9 -16 20 -16 23 0 11 -133 148
-174 179 -15 11 -35 28 -44 38 -9 9 -20 17 -24 17 -4 0 -22 16 -41 35 -19 19
-59 44 -93 57 -32 12 -62 26 -65 31 -3 5 -9 8 -13 7 -15 -2 -86 24 -86 32 0 5
-4 7 -9 4 -10 -7 -73 13 -81 25 -3 5 -23 11 -44 15 -21 3 -48 8 -60 10 -11 3
-25 6 -31 7 -5 2 -15 5 -20 9 -6 3 -29 3 -52 -2 -24 -4 -40 -3 -37 1 3 5 -7 9
-23 10 -76 3 -100 6 -113 14 -20 13 -40 15 -40 5 0 -4 -13 -10 -30 -12 -16 -3
-30 -1 -30 4 0 5 -5 6 -11 2 -6 -3 -15 0 -20 7 -6 10 -9 11 -9 2 0 -7 -6 -13
-14 -13 -8 0 -17 6 -19 13 -4 9 -6 8 -6 -2 -1 -10 -4 -11 -15 -2 -16 13 -37
11 -48 -4 -5 -6 -8 -5 -8 3 0 6 -11 12 -25 12 -14 0 -25 -4 -25 -10z m-1303
-3022 c-3 -8 -6 -5 -6 6 -1 11 2 17 5 13 3 -3 4 -12 1 -19z"/>
</g>
</svg>
