<?xml version="1.0" standalone="no"?>
<!DOCTYPE svg PUBLIC "-//W3C//DTD SVG 20010904//EN"
 "http://www.w3.org/TR/2001/REC-SVG-20010904/DTD/svg10.dtd">
<svg version="1.0" xmlns="http://www.w3.org/2000/svg"
 width="342.000000pt" height="348.000000pt" viewBox="0 0 342.000000 348.000000"
 preserveAspectRatio="xMidYMid meet">
<metadata>
Created by potrace 1.13, written by Peter Selinger 2001-2015
</metadata>
<g transform="translate(0.000000,348.000000) scale(0.100000,-0.100000)"
fill="#000000" stroke="none">
<path d="M998 2840 c-149 -4 -169 -7 -195 -26 -16 -12 -38 -24 -50 -28 -32
-10 -228 -221 -266 -286 l-32 -55 -2 -200 c-2 -110 -5 -206 -8 -214 -12 -32
-121 25 -231 122 -46 40 -69 44 -88 14 -9 -16 -4 -24 33 -57 32 -28 42 -43 37
-56 -4 -11 2 -27 21 -46 15 -15 30 -28 34 -28 4 0 37 -20 73 -45 37 -25 73
-45 81 -45 19 0 19 3 -6 -121 -25 -130 -55 -224 -86 -270 -13 -20 -37 -82 -53
-138 -18 -64 -39 -115 -58 -139 -30 -38 -82 -142 -82 -163 0 -6 -16 -26 -36
-44 -35 -32 -36 -35 -29 -84 9 -66 32 -96 67 -88 48 12 165 160 223 282 29 61
59 130 66 155 7 25 20 56 29 70 21 33 50 95 50 109 0 6 4 19 9 29 4 9 30 60
55 113 32 63 69 118 110 165 l63 69 129 5 c71 3 130 2 132 -2 2 -5 10 -8 18
-8 8 0 14 -7 14 -15 0 -8 5 -15 10 -15 6 0 10 -18 10 -40 0 -22 -4 -40 -9 -40
-5 0 -13 -36 -17 -80 -3 -44 -11 -83 -15 -86 -12 -7 -11 -54 1 -54 13 0 13
-237 0 -245 -6 -3 -10 -15 -10 -27 0 -11 -6 -34 -14 -51 -8 -18 -17 -50 -20
-71 -3 -22 -10 -42 -15 -45 -6 -4 -13 -26 -17 -49 -4 -23 -10 -42 -15 -42 -4
0 -11 -20 -15 -45 -3 -25 -10 -45 -15 -45 -4 0 -11 -20 -15 -45 -3 -25 -10
-45 -14 -45 -4 0 -10 -21 -14 -46 -3 -26 -11 -53 -18 -61 -6 -7 -13 -48 -16
-91 -2 -42 -8 -81 -12 -87 -4 -5 -10 -26 -14 -45 -4 -21 -24 -55 -52 -85 -24
-27 -50 -57 -57 -65 -16 -19 -15 -122 1 -128 7 -2 12 -10 12 -18 0 -8 9 -14
19 -14 11 0 21 -6 24 -12 6 -18 369 -18 375 0 2 6 11 12 20 12 21 0 94 38 104
54 14 21 9 134 -7 150 -17 17 -22 136 -5 136 6 0 10 10 10 23 0 13 7 32 15 43
8 10 15 26 15 35 0 9 6 22 14 28 8 7 17 27 20 46 4 18 20 60 36 92 l30 58 0
-42 c0 -24 4 -43 9 -43 4 0 11 -35 15 -77 3 -42 11 -80 17 -83 6 -4 13 -26 16
-49 3 -22 9 -41 14 -41 4 0 10 -14 14 -30 4 -17 11 -30 16 -30 18 0 8 -49 -22
-106 -18 -32 -36 -62 -41 -65 -17 -11 -48 -79 -48 -106 0 -43 11 -73 26 -73 8
0 22 -9 31 -20 10 -11 28 -20 40 -20 14 0 23 -6 23 -15 0 -13 23 -15 150 -15
121 0 150 3 150 14 0 9 18 16 56 21 71 9 96 32 105 99 7 59 -9 228 -23 237 -5
3 -12 49 -15 103 -3 53 -10 96 -14 96 -5 0 -9 20 -9 45 0 30 -5 47 -14 51 -7
3 -17 24 -20 47 -4 23 -11 44 -17 47 -5 4 -12 44 -16 91 -3 46 -11 87 -17 91
-5 4 -12 36 -14 72 -4 62 -3 66 17 66 11 0 21 -4 21 -10 0 -5 12 -13 28 -16
15 -4 30 -11 33 -16 3 -5 38 -12 77 -15 40 -3 72 -10 72 -14 0 -5 27 -9 60 -9
l60 0 -6 -42 c-4 -24 -11 -44 -16 -46 -4 -2 -8 -23 -8 -47 0 -25 -6 -47 -15
-55 -8 -7 -18 -34 -21 -61 -4 -27 -10 -49 -14 -49 -4 0 -11 -42 -15 -93 -4
-50 -15 -110 -24 -132 -34 -78 -54 -141 -58 -182 -5 -42 -5 -42 34 -49 21 -4
41 -12 45 -18 9 -14 289 -11 297 3 4 5 20 13 36 17 57 13 65 29 65 121 0 62 4
88 15 99 8 9 15 24 15 35 0 10 4 19 9 19 4 0 11 39 14 87 4 48 11 89 17 91 5
2 10 14 10 27 0 14 14 40 32 60 l31 36 36 -34 c20 -19 51 -43 70 -52 19 -9 52
-30 74 -46 22 -16 46 -29 53 -29 11 0 33 -10 104 -46 22 -12 25 -19 24 -68 -1
-46 -6 -61 -33 -93 -17 -21 -37 -44 -43 -52 -7 -8 -14 -43 -16 -79 -4 -56 -2
-66 18 -84 16 -15 40 -23 77 -26 29 -2 53 -8 53 -13 0 -12 247 -11 255 1 3 5
28 12 55 16 28 4 50 10 50 15 0 5 6 9 13 9 6 1 22 9 35 19 18 16 22 29 22 80
0 45 -4 61 -14 61 -9 0 -16 19 -21 58 -4 31 -11 59 -16 62 -5 3 -12 52 -15
108 -4 56 -11 102 -16 102 -4 0 -8 7 -8 15 0 8 -7 15 -15 15 -8 0 -15 6 -15
14 0 8 -13 28 -30 44 -16 17 -30 34 -30 39 0 5 -13 20 -29 34 -15 14 -31 35
-35 47 -4 12 -12 22 -17 22 -5 0 -9 7 -9 15 0 9 -7 18 -15 21 -8 4 -15 12 -15
20 0 8 -9 22 -20 31 -11 10 -20 22 -20 27 0 5 -11 19 -24 31 -13 12 -27 31
-30 43 -4 11 -13 23 -21 26 -25 9 -18 36 10 36 14 0 33 8 43 18 27 28 62 80
62 92 0 5 4 10 9 10 5 0 11 19 15 42 4 23 12 46 19 50 17 11 17 260 -1 266 -6
2 -15 21 -18 43 -4 21 -11 39 -16 39 -5 0 -12 8 -15 18 -4 9 -17 27 -30 39
-13 12 -23 26 -23 32 0 5 -36 45 -80 89 -44 44 -80 85 -80 91 0 6 -4 11 -10
11 -5 0 -12 11 -16 24 -3 15 -15 27 -30 30 -13 4 -24 13 -24 20 0 18 -117 136
-135 136 -7 0 -15 7 -19 15 -3 8 -12 15 -21 15 -8 0 -15 4 -15 9 0 5 -12 12
-27 16 -15 3 -31 11 -34 17 -4 6 -31 13 -60 16 -30 3 -56 9 -59 13 -3 5 -77
12 -163 15 -86 4 -157 11 -157 16 0 4 -13 8 -30 8 -28 0 -30 3 -30 38 0 57
-10 80 -36 86 -13 4 -24 10 -24 15 0 5 -13 12 -30 16 -16 4 -30 11 -30 15 0 5
-16 12 -35 16 -19 3 -35 10 -35 14 0 5 -25 12 -55 15 -30 4 -55 11 -55 15 0 4
-70 11 -155 15 -85 4 -155 11 -155 15 0 4 -12 11 -26 14 -29 8 -54 29 -54 45
0 6 -7 11 -15 11 -8 0 -15 7 -15 15 0 9 -7 18 -15 21 -8 4 -15 12 -15 20 0 8
-6 14 -14 14 -8 0 -16 7 -20 15 -3 8 -12 15 -21 15 -8 0 -15 5 -15 10 0 6 -19
9 -42 8 -24 -1 -118 -5 -210 -8z m2074 -1300 c7 0 7 -4 1 -12 -6 -7 -13 -35
-17 -61 -3 -27 -13 -58 -21 -70 -8 -12 -15 -32 -15 -44 0 -13 -4 -23 -10 -23
-13 0 -13 33 0 46 6 6 13 58 16 115 7 125 14 149 26 92 5 -24 14 -43 20 -43z"/>
</g>
</svg>
