<?xml version="1.0" standalone="no"?>
<!DOCTYPE svg PUBLIC "-//W3C//DTD SVG 20010904//EN"
 "http://www.w3.org/TR/2001/REC-SVG-20010904/DTD/svg10.dtd">
<svg version="1.0" xmlns="http://www.w3.org/2000/svg"
 width="998.000000pt" height="981.000000pt" viewBox="0 0 998.000000 981.000000"
 preserveAspectRatio="xMidYMid meet">
<metadata>
Created by potrace 1.13, written by Peter Selinger 2001-2015
</metadata>
<g transform="translate(0.000000,981.000000) scale(0.100000,-0.100000)"
fill="#000000" stroke="none">
<path d="M3698 7635 c-2 -2 -48 -6 -103 -9 -55 -4 -113 -9 -130 -12 -16 -2
-50 -5 -75 -5 -25 -1 -48 -6 -51 -11 -3 -4 -20 -10 -37 -12 -17 -3 -37 -8 -44
-12 -7 -4 -25 -9 -42 -11 -16 -2 -50 -15 -75 -30 -25 -15 -49 -26 -53 -25 -5
1 -8 -2 -8 -7 0 -5 -13 -8 -30 -7 -16 1 -30 0 -30 -3 0 -3 -24 -7 -53 -9 -28
-2 -63 -11 -76 -20 -24 -17 -29 -20 -68 -40 -13 -7 -49 -12 -82 -12 -52 0 -66
-5 -117 -39 -33 -22 -75 -56 -93 -75 -19 -20 -40 -36 -46 -36 -6 0 -22 -11
-35 -25 -14 -14 -40 -28 -61 -31 -21 -4 -48 -17 -60 -30 -12 -13 -28 -24 -34
-24 -7 0 -20 -9 -30 -20 -10 -11 -39 -32 -64 -46 -25 -15 -74 -52 -108 -83
-34 -31 -80 -71 -103 -90 -22 -19 -67 -68 -100 -110 -32 -42 -75 -94 -94 -117
-20 -23 -36 -46 -36 -51 0 -24 -81 -82 -137 -98 -32 -10 -68 -21 -81 -26 -13
-5 -33 -9 -46 -9 -48 0 -73 -61 -38 -93 30 -27 104 -17 232 32 53 20 170 121
170 147 0 6 7 18 17 25 9 8 34 39 57 69 22 30 50 63 63 73 13 10 23 25 23 32
0 7 14 24 31 37 17 13 61 51 98 84 37 34 77 66 89 73 l21 11 -21 -47 c-11 -27
-33 -67 -48 -89 -15 -23 -33 -58 -40 -78 -6 -19 -16 -38 -21 -42 -12 -7 -39
-71 -39 -91 0 -8 -6 -29 -14 -46 -23 -52 -54 -140 -61 -172 -4 -16 -26 -51
-51 -77 -24 -26 -44 -52 -44 -58 0 -5 -6 -10 -12 -11 -7 0 -38 -27 -68 -60
-110 -121 -253 -259 -379 -366 -14 -13 -54 -46 -88 -75 -106 -91 -162 -130
-238 -166 -12 -6 -27 -17 -34 -26 -7 -9 -19 -16 -26 -16 -6 0 -20 -9 -30 -20
-10 -11 -27 -20 -37 -20 -22 0 -62 -24 -97 -57 -13 -13 -30 -23 -38 -23 -8 0
-34 -13 -58 -30 -24 -16 -49 -30 -55 -30 -7 0 -25 -9 -41 -21 -16 -11 -44 -21
-62 -22 -31 -2 -32 -3 -35 -51 -2 -36 3 -63 19 -95 12 -25 26 -57 31 -71 6
-14 14 -33 19 -42 5 -10 9 -24 9 -33 0 -8 9 -30 20 -50 11 -20 20 -43 21 -53
1 -18 34 -80 82 -151 36 -54 69 -56 117 -6 19 19 39 35 46 35 6 0 27 18 45 40
120 144 145 162 324 232 28 11 61 29 74 41 27 25 27 24 -16 -63 -17 -36 -48
-81 -67 -99 -20 -19 -36 -40 -36 -46 0 -15 -103 -115 -118 -115 -7 0 -12 -4
-12 -10 0 -5 -18 -29 -41 -52 -22 -24 -45 -53 -50 -66 -5 -12 -17 -25 -26 -29
-10 -3 -35 -22 -55 -41 -30 -28 -38 -44 -38 -71 0 -19 -5 -49 -11 -66 -10 -26
-8 -38 11 -80 13 -28 22 -52 21 -53 -1 -2 6 -10 16 -18 10 -7 15 -14 10 -14
-4 0 2 -9 13 -20 12 -12 18 -25 15 -30 -4 -6 1 -13 9 -16 9 -3 16 -12 16 -20
0 -8 3 -14 8 -15 4 0 30 -29 57 -64 28 -35 57 -67 65 -70 8 -2 29 -17 45 -31
17 -15 48 -38 70 -53 22 -14 49 -34 59 -43 10 -10 22 -15 26 -13 4 3 13 -1 19
-8 13 -16 71 -10 71 7 0 7 11 23 25 36 17 16 25 34 25 56 0 18 5 36 10 39 5 3
10 21 10 39 0 17 4 36 9 41 6 6 11 30 13 54 3 41 8 48 63 92 33 26 69 48 79
48 11 1 16 4 13 8 -4 3 -2 12 4 20 6 7 9 13 6 13 -3 0 9 15 26 33 18 18 35 31
39 30 4 -2 14 8 23 21 9 14 25 28 36 31 10 4 19 12 19 18 0 13 40 43 52 39 4
-1 12 7 18 18 6 11 15 18 21 15 5 -4 12 1 15 9 3 9 10 14 15 11 4 -3 16 6 25
20 9 13 21 22 26 19 10 -7 48 29 48 46 0 5 3 9 8 8 11 -3 67 28 81 46 7 9 17
13 22 10 5 -3 9 2 9 10 0 14 12 20 33 17 4 0 7 4 7 10 0 12 25 39 37 39 4 0
28 18 53 40 24 21 46 37 48 35 2 -1 18 12 36 31 44 45 85 46 136 2 21 -18 55
-44 75 -58 20 -14 52 -37 70 -53 18 -15 48 -30 66 -33 59 -11 69 -28 69 -113
0 -74 -1 -76 -40 -116 -22 -22 -41 -49 -43 -60 -5 -25 -36 -94 -37 -80 0 10
-70 -61 -70 -71 0 -4 -11 -17 -25 -30 -14 -13 -25 -26 -25 -29 0 -3 -10 -16
-22 -28 -13 -13 -32 -42 -43 -65 -11 -23 -28 -45 -37 -48 -10 -3 -18 -9 -18
-14 0 -5 -9 -12 -20 -15 -11 -3 -20 -13 -20 -21 0 -8 -5 -14 -11 -14 -5 0 -7
-5 -4 -10 3 -5 -1 -10 -9 -10 -9 0 -16 -5 -16 -12 0 -6 -3 -9 -6 -5 -9 9 -36
-21 -29 -33 3 -5 2 -10 -3 -10 -4 0 -21 -13 -38 -28 -37 -35 -79 -62 -98 -62
-7 0 -16 -7 -20 -15 -3 -8 -9 -14 -13 -13 -4 1 -23 -6 -41 -15 -18 -10 -37
-15 -42 -12 -6 3 -10 1 -10 -4 0 -6 -6 -11 -12 -11 -7 0 -35 -20 -62 -45 -26
-25 -51 -45 -54 -45 -2 0 -13 -10 -23 -22 -11 -11 -19 -18 -19 -14 0 4 -7 1
-15 -8 -8 -8 -15 -18 -15 -22 0 -4 -11 -17 -24 -29 -13 -12 -31 -33 -39 -46
-21 -32 -29 -107 -14 -134 6 -11 10 -23 9 -27 -1 -5 3 -8 8 -8 6 0 10 -7 10
-16 0 -28 63 -136 103 -177 20 -21 37 -41 37 -44 0 -6 17 -22 75 -68 28 -22
57 -47 65 -55 8 -8 35 -31 60 -51 25 -20 81 -71 124 -112 44 -42 82 -74 86
-72 4 2 16 -4 27 -15 12 -10 24 -16 27 -13 3 4 20 7 36 8 37 2 87 37 103 73 6
15 24 40 39 56 26 29 27 33 22 119 -2 49 -6 93 -9 98 -4 5 -1 9 5 9 6 0 9 4 6
9 -13 20 15 68 77 133 15 16 27 33 27 38 0 6 5 10 11 10 6 0 9 6 6 13 -2 6 3
19 12 27 16 15 33 42 59 93 7 15 17 25 22 22 5 -3 13 3 19 12 6 10 11 15 11
10 0 -16 150 127 150 144 0 5 4 8 8 5 5 -3 26 16 48 42 55 65 94 102 109 102
7 0 37 14 68 30 31 17 66 30 77 30 11 0 20 4 20 8 0 4 14 9 32 10 18 2 36 8
40 15 4 7 8 8 8 4 0 -5 13 1 29 13 16 11 33 19 38 18 4 -1 28 6 53 16 25 11
51 18 58 17 6 -1 12 3 12 9 0 5 3 9 8 8 13 -3 77 28 91 45 32 39 103 1 142
-75 11 -21 28 -41 37 -44 73 -24 131 -57 173 -100 l41 -42 -5 -108 c-3 -60
-10 -134 -16 -164 -6 -30 -15 -82 -21 -115 -21 -137 -27 -162 -44 -215 -10
-30 -22 -63 -27 -72 -12 -23 -12 -48 0 -48 5 0 8 -23 7 -51 -2 -41 -7 -55 -26
-69 -14 -10 -21 -24 -17 -33 3 -8 3 -18 -1 -22 -4 -4 -7 -10 -7 -13 -1 -4 -7
-18 -15 -32 -18 -33 -21 -44 -25 -114 -1 -32 -7 -61 -13 -65 -11 -6 -66 -110
-67 -124 0 -4 -5 -11 -10 -15 -6 -4 -12 -20 -13 -36 -2 -17 -8 -40 -12 -52 -6
-15 -5 -26 4 -33 7 -6 15 -9 17 -7 2 3 4 -11 5 -30 0 -22 -4 -34 -12 -34 -7 0
-18 -9 -24 -20 -6 -11 -14 -19 -18 -16 -9 5 -72 -47 -72 -59 0 -4 -8 -14 -17
-21 -14 -9 -18 -25 -16 -60 1 -27 6 -50 12 -52 6 -2 11 -10 11 -18 0 -16 55
-74 70 -74 6 0 10 -6 10 -13 0 -7 9 -19 20 -27 11 -8 20 -19 20 -25 0 -6 10
-17 22 -25 12 -8 67 -60 123 -115 55 -55 111 -109 125 -121 14 -11 34 -32 45
-46 11 -14 34 -33 52 -41 17 -9 37 -23 45 -30 32 -33 143 -69 180 -60 28 7 71
56 75 86 2 12 9 38 15 57 16 45 16 52 5 68 -6 8 -5 12 4 12 10 0 10 3 3 8 -6
4 -21 29 -33 55 -19 41 -21 58 -15 125 4 42 6 119 6 170 -1 95 10 139 45 177
10 11 29 47 42 80 14 33 27 62 30 65 6 5 11 31 13 68 0 12 5 22 10 22 5 0 7 4
3 9 -3 5 -1 12 4 15 5 4 8 14 6 24 -1 9 4 30 12 45 8 16 16 39 19 50 5 27 26
70 39 79 5 4 6 8 2 8 -9 0 51 78 93 122 14 14 32 39 40 55 8 15 23 35 32 44
10 9 18 21 18 28 0 6 4 11 8 11 5 0 14 11 20 24 6 14 19 34 29 46 10 11 18 24
18 28 1 4 9 23 20 42 19 36 23 48 27 88 1 12 6 22 11 22 5 0 7 7 3 15 -3 8 -1
15 4 15 6 0 9 3 9 8 -1 4 -1 9 1 12 3 9 10 45 13 65 1 11 5 22 9 25 4 3 9 16
11 29 4 27 32 51 59 51 10 0 18 4 18 8 0 5 10 8 23 7 12 -1 27 2 34 7 7 5 14
5 18 -2 3 -6 12 -7 18 -3 7 4 21 9 31 10 10 2 27 13 37 25 11 11 19 18 19 14
0 -4 7 0 16 8 8 9 12 20 9 26 -3 5 -2 10 2 10 5 0 17 15 28 33 10 17 18 32 16
32 -1 0 8 20 21 45 13 25 28 44 33 44 6 -1 22 7 37 17 14 10 31 19 37 19 6 0
11 5 11 11 0 6 8 8 20 4 13 -4 29 3 50 21 16 15 28 29 26 31 -2 3 3 13 12 22
35 37 53 63 48 68 -3 4 2 11 11 18 16 12 21 26 26 77 1 16 9 29 19 32 10 2 21
12 24 23 4 10 18 28 32 41 14 12 21 22 16 22 -5 0 -3 4 4 9 8 5 15 20 15 35 1
14 6 26 11 26 4 0 6 7 2 15 -3 8 -1 15 5 15 6 0 7 5 4 10 -3 6 -1 10 5 10 7 0
10 6 8 12 -6 17 121 138 144 138 10 0 18 5 18 11 0 6 7 9 15 6 8 -4 16 -3 19
1 2 4 26 7 53 7 34 -1 54 4 68 17 10 10 25 16 31 14 6 -2 17 1 23 7 6 6 11 7
11 3 0 -5 15 3 34 18 19 14 38 26 41 26 4 0 21 15 39 33 75 77 176 98 281 57
17 -6 31 -11 33 -11 1 1 3 1 5 0 56 -17 104 -15 127 6 11 10 20 23 20 29 1 19
41 61 48 50 4 -5 29 -28 57 -49 63 -51 101 -87 98 -96 -1 -4 10 -12 25 -17 16
-5 51 -33 80 -61 28 -28 54 -51 58 -51 3 0 23 -14 44 -30 21 -17 56 -37 77
-46 21 -9 61 -31 88 -49 65 -42 192 -105 212 -105 8 0 28 -11 45 -25 16 -14
39 -25 51 -25 12 0 53 -14 92 -30 38 -17 77 -30 87 -30 10 0 26 -5 36 -11 13
-8 28 -9 48 -2 24 8 30 16 32 46 2 26 -1 37 -11 37 -7 0 -32 9 -55 20 -22 11
-50 20 -60 20 -11 0 -25 6 -31 14 -7 8 -31 24 -54 35 -78 39 -172 93 -188 107
-8 8 -20 14 -25 14 -6 0 -27 18 -49 40 -21 21 -51 42 -66 45 -26 6 -109 84
-109 104 0 5 -12 14 -27 20 -16 7 -44 26 -64 44 -21 18 -49 40 -63 51 -14 10
-24 22 -21 25 2 4 -5 14 -16 21 -10 8 -19 21 -19 28 0 13 40 71 43 63 1 -2 13
1 25 8 20 11 26 10 40 -3 10 -9 28 -26 42 -37 47 -39 112 -94 134 -112 11 -11
35 -26 51 -34 17 -9 38 -25 47 -35 9 -11 20 -19 25 -19 4 1 15 -5 24 -12 9 -8
29 -17 45 -21 16 -4 32 -12 35 -18 3 -5 21 -13 40 -18 40 -9 126 -39 151 -51
10 -5 28 -9 41 -9 31 0 117 -42 141 -69 11 -12 39 -30 63 -41 25 -11 51 -32
63 -52 11 -18 20 -29 20 -25 0 9 43 -20 76 -51 11 -11 30 -23 42 -26 12 -4 20
-11 18 -15 -3 -4 4 -14 15 -21 10 -8 19 -18 19 -22 0 -5 25 -39 55 -75 37 -45
55 -76 55 -94 0 -15 5 -31 10 -34 13 -8 13 -158 0 -171 -6 -6 -12 -25 -13 -42
-1 -18 -6 -32 -11 -32 -4 0 -6 -6 -3 -14 3 -8 0 -17 -7 -19 -7 -3 -22 -22 -33
-43 -20 -40 -115 -113 -145 -114 -10 0 -18 -3 -18 -7 0 -5 -15 -17 -33 -27
-38 -23 -178 -29 -242 -10 -22 6 -44 12 -50 13 -15 3 -59 12 -70 16 -5 1 -13
3 -18 4 -4 0 -22 8 -40 18 -17 9 -35 16 -39 15 -5 -1 -8 2 -8 6 0 4 -10 8 -22
9 -11 1 -24 7 -28 13 -4 6 -20 13 -36 16 -16 3 -31 9 -34 14 -3 5 -15 11 -25
13 -11 2 -31 9 -45 14 -30 13 -92 28 -102 25 -5 -1 -8 2 -8 8 0 5 -7 7 -15 4
-8 -4 -21 -2 -28 4 -6 5 -22 8 -34 7 -13 -1 -23 2 -23 7 0 27 -123 -14 -143
-48 -4 -8 -15 -14 -22 -14 -8 0 -15 -5 -15 -11 0 -6 -7 -8 -17 -5 -19 8 -82
-56 -79 -79 3 -17 37 -57 44 -50 3 3 11 0 19 -6 16 -14 83 -24 143 -21 146 7
166 5 189 -17 9 -8 17 -9 18 -4 2 6 28 -2 59 -18 30 -16 55 -28 57 -28 1 0 13
-4 27 -9 14 -5 29 -10 34 -10 5 0 12 -4 15 -9 8 -11 70 -40 96 -45 11 -1 26
-9 33 -15 12 -12 34 -17 55 -14 4 0 7 -4 7 -11 0 -6 3 -9 6 -6 3 4 17 0 31 -7
14 -7 31 -11 38 -9 7 3 16 1 20 -5 3 -6 17 -11 31 -11 13 0 24 -4 24 -10 0 -5
3 -9 8 -9 4 1 9 0 12 -1 3 -1 14 -3 25 -4 11 -2 49 -7 85 -11 36 -5 69 -8 75
-6 5 1 24 4 41 7 17 2 44 8 59 14 14 6 31 8 35 5 5 -3 13 3 19 12 6 10 11 14
11 10 0 -9 77 31 98 51 7 6 17 12 21 12 12 0 141 126 141 138 0 6 8 13 18 16
9 4 27 29 40 57 13 27 29 52 37 55 7 3 11 12 8 20 -3 8 0 14 6 14 6 0 8 7 5
15 -4 8 -1 15 6 15 7 0 10 6 7 14 -3 8 -1 16 5 18 6 2 12 15 14 28 1 14 6 41
10 60 12 56 15 358 4 365 -6 3 -10 22 -10 41 0 34 -16 72 -35 86 -5 4 -6 10
-2 14 4 4 -2 14 -14 22 -11 8 -18 20 -16 27 3 6 -2 19 -11 28 -24 22 -53 55
-92 107 -18 25 -43 53 -54 62 -12 10 -18 18 -15 18 4 0 -22 28 -58 63 -36 34
-71 77 -79 95 -8 17 -19 33 -24 33 -6 1 -13 2 -17 3 -5 1 -32 25 -62 54 -29
28 -56 50 -60 49 -10 -3 -124 65 -151 90 -14 13 -29 23 -35 23 -14 0 -75 55
-75 68 0 6 -10 14 -22 17 -40 11 -92 39 -110 59 -10 10 -18 16 -18 12 0 -4
-12 1 -27 12 -16 10 -40 22 -55 26 -16 3 -28 12 -28 19 0 6 -15 23 -32 37 -48
37 -148 142 -148 155 0 6 -9 17 -20 25 -11 8 -20 20 -20 27 0 7 -5 13 -12 13
-6 0 -8 3 -5 7 4 3 3 11 -2 17 -7 9 -31 74 -36 96 -4 17 -40 80 -46 80 -4 0
-6 9 -4 20 2 11 0 20 -6 20 -5 0 -9 7 -9 15 0 8 -4 15 -9 15 -7 0 -20 26 -25
52 0 4 -9 16 -18 27 -9 11 -14 22 -11 25 3 3 -2 8 -11 12 -9 3 -14 10 -11 14
11 18 -141 194 -179 206 -11 4 -29 15 -40 26 -11 10 -32 22 -46 25 -13 4 -38
19 -55 35 -16 15 -34 28 -38 28 -5 0 -5 5 -2 10 3 6 -1 13 -9 16 -9 3 -13 10
-10 15 3 5 1 9 -4 9 -6 0 -20 21 -33 48 -25 50 -26 54 -28 77 0 8 -15 27 -32
42 -18 16 -38 34 -45 41 -8 7 -14 10 -14 7 0 -4 -20 9 -44 28 -24 20 -46 34
-48 32 -3 -3 -13 4 -23 15 -10 11 -26 20 -37 20 -10 0 -18 5 -18 11 0 5 -4 8
-9 5 -5 -3 -14 1 -21 9 -7 8 -20 15 -29 15 -9 0 -25 6 -36 14 -19 12 -94 29
-142 30 -12 1 -25 4 -28 8 -4 4 -16 3 -26 -3 -10 -5 -33 -12 -51 -14 -18 -3
-43 -7 -55 -9 -17 -3 -23 1 -23 15 0 10 -4 19 -10 19 -5 0 -10 10 -10 21 0 22
-65 89 -85 89 -14 0 -69 60 -73 80 -9 41 -93 114 -135 119 -4 0 -18 11 -32 23
-39 37 -53 47 -57 43 -2 -2 -19 10 -38 26 -40 35 -116 73 -129 64 -5 -3 -12
-1 -16 5 -4 7 -12 7 -24 0 -10 -5 -21 -7 -24 -4 -3 4 -39 8 -79 10 -64 3 -100
8 -118 14 -5 2 -102 -1 -170 -4 -19 -1 -41 2 -47 7 -7 5 -13 6 -13 1 0 -4 -11
3 -25 16 -14 13 -25 20 -25 15 0 -4 -8 -1 -17 8 -10 8 -20 15 -23 14 -10 -3
-59 40 -53 46 3 4 -2 9 -11 13 -9 3 -16 12 -16 19 0 7 -7 15 -15 19 -8 3 -15
12 -15 21 0 8 -3 15 -7 15 -5 0 -22 14 -40 30 -17 16 -55 39 -83 50 -28 11
-70 30 -93 42 -23 12 -45 23 -49 24 -5 1 -9 2 -10 4 -3 2 -20 6 -53 14 -11 2
-20 5 -20 6 0 1 -13 4 -30 6 -16 3 -34 9 -40 15 -5 5 -19 9 -32 9 -13 0 -23 5
-23 12 0 6 -3 9 -6 5 -3 -3 -16 -2 -29 3 -13 5 -42 12 -66 15 -24 4 -46 8 -49
10 -3 2 -23 6 -44 9 -22 4 -46 12 -54 18 -8 7 -23 13 -34 15 -12 2 -28 11 -37
21 -9 9 -24 18 -35 20 -10 2 -30 8 -45 15 -14 6 -33 12 -41 13 -72 11 -91 15
-140 27 -25 7 -197 16 -202 12z m-3013 -2355 c3 -5 1 -10 -4 -10 -6 0 -11 5
-11 10 0 6 2 10 4 10 3 0 8 -4 11 -10z"/>
</g>
</svg>
