<?xml version="1.0" standalone="no"?>
<!DOCTYPE svg PUBLIC "-//W3C//DTD SVG 20010904//EN"
 "http://www.w3.org/TR/2001/REC-SVG-20010904/DTD/svg10.dtd">
<svg version="1.0" xmlns="http://www.w3.org/2000/svg"
 width="623.000000pt" height="455.000000pt" viewBox="0 0 623.000000 455.000000"
 preserveAspectRatio="xMidYMid meet">
<metadata>
Created by potrace 1.13, written by Peter Selinger 2001-2015
</metadata>
<g transform="translate(0.000000,455.000000) scale(0.100000,-0.100000)"
fill="#000000" stroke="none">
<path d="M1255 4526 c-64 -20 -165 -75 -192 -104 -169 -181 -217 -247 -249
-346 -26 -82 -47 -123 -83 -165 -32 -36 -130 -244 -145 -308 -8 -32 -18 -92
-22 -133 -3 -41 -13 -93 -21 -115 -8 -22 -21 -69 -29 -105 -17 -72 -46 -155
-77 -214 -13 -26 -22 -72 -29 -150 -5 -61 -13 -129 -19 -151 -30 -121 -34
-230 -27 -670 l3 -180 -28 -49 c-34 -61 -161 -205 -207 -235 -19 -12 -50 -35
-68 -51 -30 -25 -33 -31 -27 -64 6 -30 11 -36 32 -36 35 0 201 96 274 158 55
48 74 61 81 54 4 -4 12 -47 18 -96 6 -49 15 -96 19 -105 5 -9 16 -51 25 -93
18 -83 71 -234 88 -256 6 -7 18 -25 27 -42 9 -16 31 -45 49 -64 18 -20 37 -46
43 -58 13 -29 105 -94 160 -113 48 -17 177 -20 232 -4 49 13 110 74 132 132
34 88 -13 238 -88 282 -43 26 -158 33 -179 11 -9 -9 -28 -16 -42 -16 -14 0
-26 -6 -26 -12 -2 -33 -60 119 -69 179 -21 140 -24 399 -6 601 l16 193 60 117
c32 64 77 164 99 222 43 114 45 114 29 -9 -11 -78 -10 -83 10 -100 12 -10 21
-23 21 -29 0 -12 62 -25 84 -16 9 3 16 12 16 18 0 7 9 22 20 34 11 12 20 28
20 37 0 8 7 15 15 15 13 0 35 55 35 88 0 20 31 83 54 109 11 14 40 27 73 33
29 7 66 18 81 26 15 8 32 14 37 14 6 0 43 13 83 30 80 32 89 31 164 -21 15
-11 61 -24 107 -31 78 -11 81 -12 81 -37 0 -15 8 -49 19 -76 37 -101 73 -190
82 -207 11 -22 34 -138 49 -253 23 -180 32 -241 40 -275 5 -19 16 -84 25 -145
9 -60 20 -117 25 -126 5 -9 16 -56 25 -105 9 -49 23 -111 31 -139 8 -27 19
-79 24 -115 5 -36 16 -84 24 -108 8 -23 16 -68 16 -99 1 -32 10 -98 20 -148
10 -49 24 -121 30 -160 10 -59 37 -146 70 -230 5 -11 11 -41 13 -68 4 -46 3
-48 -37 -79 -58 -45 -175 -168 -187 -196 -16 -40 -11 -61 16 -68 14 -3 25 -11
25 -16 0 -6 14 -8 36 -3 25 4 41 2 53 -8 30 -27 276 -39 390 -18 35 6 86 22
113 36 27 14 67 28 89 31 21 4 43 12 49 19 6 7 11 56 11 108 0 76 -5 112 -26
174 -36 108 -40 178 -20 305 9 62 14 122 10 140 -4 18 -7 56 -6 85 0 29 -4 53
-9 53 -6 0 -10 19 -10 43 1 83 35 -24 46 -143 3 -30 9 -64 14 -75 33 -80 99
-209 131 -256 44 -65 153 -169 177 -169 30 0 92 -76 92 -113 0 -28 6 -57 25
-144 3 -13 20 -29 40 -39 l35 -16 57 50 c82 71 114 107 167 187 26 39 66 92
89 118 23 27 47 59 54 70 15 27 17 84 2 92 -5 4 -14 18 -19 31 -5 13 -30 34
-57 48 -26 13 -54 34 -61 45 -7 12 -21 21 -33 21 -31 0 -60 18 -105 67 -38 41
-42 49 -47 114 -3 39 -10 76 -15 82 -11 14 -25 107 -24 157 0 19 -4 40 -9 46
-6 7 -12 57 -14 112 -2 55 -11 130 -20 167 -8 36 -15 90 -15 120 0 30 -4 56
-9 59 -4 3 -11 33 -15 67 -3 34 -10 67 -16 73 -5 7 -12 31 -16 54 -4 23 -10
42 -15 42 -5 0 -9 12 -9 28 1 23 2 25 13 11 7 -8 20 -18 30 -22 9 -3 17 -11
17 -17 0 -6 10 -10 23 -9 24 3 96 -18 112 -32 5 -5 17 -9 27 -9 10 0 21 -7 24
-15 4 -10 20 -15 45 -15 21 0 39 -5 39 -11 0 -7 16 -8 45 -3 30 4 45 3 45 -5
0 -6 12 -11 28 -11 15 0 40 -7 55 -15 29 -15 104 -11 140 7 11 6 17 5 17 -3 0
-7 10 -9 28 -5 15 4 39 7 55 6 15 0 27 4 27 9 0 11 63 9 71 -2 8 -11 79 2 79
14 0 5 9 9 21 9 11 0 27 7 35 15 17 17 44 20 44 5 0 -5 -7 -35 -15 -67 -14
-54 -20 -95 -46 -323 -5 -47 -16 -112 -25 -145 -8 -33 -19 -91 -24 -130 -25
-205 -41 -273 -96 -420 -19 -50 -34 -95 -34 -101 0 -6 -22 -56 -50 -110 -50
-102 -80 -194 -80 -249 0 -48 35 -74 116 -87 38 -6 78 -14 89 -19 30 -13 188
-29 291 -29 76 0 96 3 117 20 26 21 97 176 97 213 0 22 64 384 80 455 6 23 10
53 10 66 0 13 6 38 13 56 12 28 15 0 19 -237 8 -348 -5 -470 -53 -528 -25 -30
-49 -81 -49 -104 0 -25 28 -41 73 -41 19 0 44 -8 56 -19 29 -25 81 -33 161
-22 48 6 68 5 77 -5 27 -26 95 -26 237 0 77 14 143 26 147 26 21 0 60 171 65
290 2 36 10 101 18 145 18 97 20 184 4 222 -7 18 -12 118 -14 283 -1 140 -5
274 -7 298 -2 23 0 42 5 42 4 0 8 12 8 28 -1 54 11 137 20 140 6 2 10 11 10
20 0 22 23 82 31 82 4 0 10 11 13 25 4 16 13 25 26 25 16 0 20 7 20 34 0 34
21 66 42 66 6 0 8 11 6 25 -3 14 -1 25 3 25 5 0 9 14 9 30 0 18 6 33 15 36 8
4 15 15 15 25 0 10 7 19 15 19 10 0 15 11 15 35 0 19 4 35 9 35 8 0 43 127 71
257 5 24 18 60 29 80 l21 38 -8 -45 c-4 -25 -7 -155 -6 -290 0 -256 0 -250 52
-415 11 -33 17 -98 20 -196 l3 -146 49 -46 c55 -52 83 -58 124 -26 32 25 34
65 6 128 -11 24 -20 65 -20 92 0 26 -4 50 -9 53 -9 6 -47 112 -76 211 -10 33
-22 71 -28 85 -5 14 -12 118 -15 231 -4 173 -1 222 14 305 42 220 11 833 -52
1038 -9 28 -28 78 -44 111 -15 33 -35 83 -44 111 -9 28 -30 72 -46 98 -17 26
-30 53 -30 61 0 8 -28 35 -62 62 -35 26 -81 65 -103 85 -22 21 -43 38 -47 38
-5 0 -8 4 -8 10 0 14 -49 60 -65 60 -8 0 -15 6 -15 14 0 15 -21 26 -51 26 -10
0 -19 7 -19 15 0 8 -7 15 -15 15 -8 0 -15 5 -15 10 0 6 -9 10 -20 10 -11 0
-20 5 -20 10 0 6 -9 10 -20 10 -11 0 -20 7 -20 15 0 9 -9 15 -21 15 -12 0 -32
11 -45 25 -13 14 -30 25 -39 25 -8 0 -15 5 -15 10 0 6 -10 10 -23 10 -12 0
-29 9 -37 20 -8 11 -20 20 -27 20 -7 0 -13 5 -13 10 0 6 -11 10 -25 10 -14 0
-25 5 -25 10 0 6 -13 10 -29 10 -16 0 -36 6 -43 14 -8 7 -48 21 -91 30 -42 10
-77 22 -77 28 0 6 -11 8 -25 6 -14 -3 -25 -2 -25 3 0 4 -17 11 -37 14 -51 9
-136 35 -148 46 -5 5 -17 9 -27 9 -10 0 -18 4 -18 8 0 5 -36 15 -80 22 -44 7
-80 17 -80 22 0 4 -13 8 -30 8 -16 0 -30 4 -30 9 0 5 -24 11 -52 15 -29 4 -87
15 -128 24 -44 11 -108 17 -155 16 -44 -1 -192 -5 -330 -8 -137 -3 -293 -7
-345 -8 -52 -1 -100 -5 -106 -9 -16 -13 -169 -21 -424 -24 -298 -3 -370 -9
-504 -46 l-108 -31 -217 6 c-222 6 -250 10 -337 55 -22 11 -56 23 -77 26 -20
4 -40 11 -43 16 -3 5 -39 9 -80 9 -43 0 -74 4 -74 10 0 13 -25 12 -75 -4z
m-295 -766 c0 -5 -8 -10 -17 -10 -15 0 -16 2 -3 10 19 12 20 12 20 0z m-24
-1006 c-3 -9 -9 -27 -12 -40 -3 -13 -10 -24 -15 -24 -5 0 -9 -5 -9 -10 0 -6
-21 -63 -46 -126 -25 -63 -43 -121 -40 -129 3 -9 0 -15 -8 -15 -7 0 -23 -24
-37 -52 -13 -29 -28 -56 -33 -60 -5 -3 -10 -22 -10 -42 -1 -20 -4 -36 -8 -36
-4 0 -12 -16 -19 -35 -7 -19 -17 -35 -22 -35 -5 0 -7 -11 -5 -25 4 -19 1 -25
-13 -25 -12 0 -21 -10 -24 -27 -4 -16 -10 -35 -16 -43 -5 -8 -13 -25 -19 -37
-5 -13 -14 -23 -20 -23 -6 0 -18 -16 -26 -35 -8 -20 -22 -39 -31 -42 -25 -10
-82 -76 -83 -96 0 -20 -23 -47 -39 -47 -6 0 -11 -7 -11 -15 0 -8 -6 -15 -14
-15 -8 0 -16 -3 -18 -7 -2 -7 -72 -66 -123 -106 -5 -4 -25 -21 -44 -37 -19
-17 -41 -30 -49 -30 -9 0 -2 9 14 22 40 30 234 229 234 239 0 5 8 17 18 27 9
9 40 51 67 92 27 41 52 77 56 80 11 9 39 68 39 84 0 8 4 16 9 18 10 4 81 129
123 218 43 92 101 240 134 343 26 79 31 88 59 96 44 13 48 13 41 -5z m-386
-104 c0 -5 -7 -10 -15 -10 -8 0 -15 5 -15 10 0 6 7 10 15 10 8 0 15 -4 15 -10z
m400 -57 c-11 -17 -11 -17 -6 0 3 10 6 24 7 30 0 9 2 9 5 0 3 -7 0 -20 -6 -30z
m47 -1545 c-18 -12 -27 -10 -27 6 0 8 6 16 13 19 17 6 29 -16 14 -25z m4173
-658 c0 -5 -7 -10 -15 -10 -8 0 -15 5 -15 10 0 6 7 10 15 10 8 0 15 -4 15 -10z
m-247 -80 c-3 -11 -12 -20 -19 -20 -12 0 -12 4 -2 20 7 11 16 20 19 20 4 0 5
-9 2 -20z m-2397 -227 c-11 -11 -19 6 -11 24 8 17 8 17 12 0 3 -10 2 -21 -1
-24z"/>
</g>
</svg>
