<?xml version="1.0" standalone="no"?>
<!DOCTYPE svg PUBLIC "-//W3C//DTD SVG 20010904//EN"
 "http://www.w3.org/TR/2001/REC-SVG-20010904/DTD/svg10.dtd">
<svg version="1.0" xmlns="http://www.w3.org/2000/svg"
 width="269.000000pt" height="337.000000pt" viewBox="0 0 269.000000 337.000000"
 preserveAspectRatio="xMidYMid meet">
<metadata>
Created by potrace 1.13, written by Peter Selinger 2001-2015
</metadata>
<g transform="translate(0.000000,337.000000) scale(0.100000,-0.100000)"
fill="#000000" stroke="none">
<path d="M1167 3170 c-75 -19 -124 -55 -247 -179 -196 -198 -230 -254 -260
-419 -11 -59 -31 -140 -45 -180 -23 -68 -25 -88 -25 -240 0 -92 5 -187 10
-212 6 -25 12 -55 15 -67 5 -22 2 -23 -49 -23 -51 0 -57 -3 -86 -37 -30 -36
-31 -42 -27 -99 4 -55 10 -68 54 -125 64 -83 77 -104 96 -161 19 -58 88 -151
132 -178 l33 -20 4 -98 c3 -90 6 -101 38 -152 18 -30 54 -74 78 -96 l44 -42
-11 -50 c-9 -45 -8 -55 11 -91 12 -23 46 -60 75 -83 30 -24 70 -58 90 -75 19
-18 39 -33 44 -33 12 0 53 -46 122 -135 33 -44 67 -84 74 -88 7 -4 13 -13 13
-18 0 -21 29 -39 62 -39 44 0 186 70 222 110 16 18 48 43 70 57 85 53 256 219
287 277 17 33 23 66 28 176 7 131 8 137 44 202 39 70 67 177 67 254 0 42 1 44
31 44 52 0 92 64 109 175 8 51 25 105 51 158 24 50 39 95 39 119 0 48 -42 144
-67 152 -17 5 -18 20 -15 266 3 238 2 269 -18 356 -56 246 -194 458 -321 494
-73 21 -179 0 -230 -46 -15 -14 -21 -11 -62 29 -25 24 -58 49 -74 54 -15 6
-62 23 -103 39 -61 23 -93 29 -170 31 -52 1 -112 -2 -133 -7z"/>
</g>
</svg>
