<?xml version="1.0" standalone="no"?>
<!DOCTYPE svg PUBLIC "-//W3C//DTD SVG 20010904//EN"
 "http://www.w3.org/TR/2001/REC-SVG-20010904/DTD/svg10.dtd">
<svg version="1.0" xmlns="http://www.w3.org/2000/svg"
 width="269.000000pt" height="337.000000pt" viewBox="0 0 269.000000 337.000000"
 preserveAspectRatio="xMidYMid meet">
<metadata>
Created by potrace 1.13, written by Peter Selinger 2001-2015
</metadata>
<g transform="translate(0.000000,337.000000) scale(0.100000,-0.100000)"
fill="#000000" stroke="none">
<path d="M1225 3140 c-90 -6 -107 -11 -173 -45 -100 -54 -198 -134 -245 -202
-22 -32 -47 -67 -57 -78 -53 -60 -91 -162 -119 -315 -12 -63 -26 -134 -32
-156 -12 -44 -7 -387 6 -435 6 -24 4 -28 -24 -34 -16 -3 -42 -15 -56 -26 -24
-19 -25 -25 -21 -95 2 -41 8 -80 13 -87 8 -10 43 -104 100 -264 8 -24 19 -43
24 -43 5 0 9 -5 9 -11 0 -18 51 -78 85 -99 l33 -20 4 -98 c3 -90 6 -101 38
-152 18 -30 54 -74 78 -96 l44 -42 -11 -51 c-16 -73 -14 -165 4 -209 9 -20 35
-57 58 -81 56 -58 206 -190 251 -221 20 -14 49 -35 64 -47 15 -13 31 -23 35
-23 5 0 20 -9 34 -20 39 -31 87 -25 190 21 24 10 45 19 48 19 8 0 104 64 138
92 66 53 181 200 219 278 49 101 52 115 58 250 6 132 7 137 43 202 37 66 67
177 67 243 0 29 3 33 34 39 42 8 60 28 98 108 26 52 32 81 38 168 4 58 16 132
25 164 19 64 15 167 -6 192 -7 8 -31 14 -55 14 -24 0 -44 3 -44 8 0 4 7 50 16
102 12 67 17 160 17 320 0 224 0 225 -27 290 -16 36 -31 70 -36 75 -4 6 -13
27 -20 48 -14 44 -95 128 -166 172 -114 71 -185 81 -269 40 l-50 -25 -18 24
c-31 43 -108 84 -189 100 -81 17 -92 17 -253 6z"/>
</g>
</svg>
