<?xml version="1.0" standalone="no"?>
<!DOCTYPE svg PUBLIC "-//W3C//DTD SVG 20010904//EN"
 "http://www.w3.org/TR/2001/REC-SVG-20010904/DTD/svg10.dtd">
<svg version="1.0" xmlns="http://www.w3.org/2000/svg"
 width="269.000000pt" height="337.000000pt" viewBox="0 0 269.000000 337.000000"
 preserveAspectRatio="xMidYMid meet">
<metadata>
Created by potrace 1.13, written by Peter Selinger 2001-2015
</metadata>
<g transform="translate(0.000000,337.000000) scale(0.100000,-0.100000)"
fill="#000000" stroke="none">
<path d="M1270 3129 c-30 -11 -59 -21 -65 -22 -5 -1 -16 -6 -24 -11 -7 -5 -29
-11 -49 -13 -37 -5 -45 -13 -199 -188 -38 -44 -78 -87 -88 -95 -25 -20 -116
-136 -147 -185 -13 -22 -44 -100 -67 -173 l-43 -132 5 -188 c3 -103 8 -199 12
-214 7 -27 6 -28 -32 -28 -29 0 -46 -7 -62 -24 -21 -22 -23 -33 -19 -93 2 -37
12 -84 21 -103 10 -19 20 -62 22 -95 7 -104 25 -143 137 -312 15 -22 42 -53
61 -69 31 -26 35 -35 39 -89 5 -71 47 -146 116 -211 l44 -42 -11 -51 c-16 -73
-14 -165 4 -209 9 -20 35 -57 58 -81 56 -58 206 -190 251 -221 20 -14 49 -35
64 -47 15 -13 31 -23 35 -23 5 0 20 -9 34 -20 39 -31 87 -25 190 21 24 10 45
19 48 19 8 0 104 64 138 92 66 53 181 200 219 278 49 101 52 115 58 250 6 132
7 137 43 202 20 36 41 88 47 115 20 96 20 95 33 85 28 -23 121 123 132 206 4
26 24 83 46 128 l40 81 -3 129 -3 129 -35 17 c-19 9 -47 17 -62 18 -41 0 -47
40 -55 354 l-6 278 -44 87 c-23 47 -43 89 -43 93 0 4 -16 34 -36 65 -37 59
-85 105 -134 133 -15 8 -39 23 -53 33 -34 24 -127 34 -168 17 -30 -13 -33 -12
-50 12 -33 45 -109 85 -191 102 -100 21 -141 20 -208 -5z"/>
</g>
</svg>
