<?xml version="1.0" standalone="no"?>
<!DOCTYPE svg PUBLIC "-//W3C//DTD SVG 20010904//EN"
 "http://www.w3.org/TR/2001/REC-SVG-20010904/DTD/svg10.dtd">
<svg version="1.0" xmlns="http://www.w3.org/2000/svg"
 width="269.000000pt" height="337.000000pt" viewBox="0 0 269.000000 337.000000"
 preserveAspectRatio="xMidYMid meet">
<metadata>
Created by potrace 1.13, written by Peter Selinger 2001-2015
</metadata>
<g transform="translate(0.000000,337.000000) scale(0.100000,-0.100000)"
fill="#000000" stroke="none">
<path d="M1225 3140 c-90 -6 -107 -11 -173 -45 -100 -54 -198 -134 -245 -202
-22 -32 -47 -67 -57 -78 -53 -60 -91 -162 -119 -315 -12 -63 -26 -134 -32
-156 -12 -44 -7 -387 6 -435 6 -24 4 -28 -24 -34 -16 -3 -42 -15 -56 -26 -24
-19 -25 -25 -21 -95 2 -41 8 -80 13 -87 8 -10 43 -104 100 -264 8 -24 19 -43
24 -43 5 0 9 -5 9 -11 0 -18 51 -78 85 -99 l33 -20 4 -98 c3 -90 6 -101 38
-152 18 -30 54 -74 78 -96 l44 -42 -11 -51 c-16 -73 -14 -165 4 -209 9 -20 35
-57 58 -81 56 -58 206 -190 251 -221 20 -14 49 -35 64 -47 15 -13 31 -23 35
-23 5 0 20 -9 34 -20 39 -31 87 -25 190 21 24 10 45 19 48 19 8 0 104 64 138
92 66 53 181 200 219 278 49 101 52 115 58 250 6 132 7 137 43 202 39 70 67
177 67 254 0 42 1 44 31 44 17 0 36 6 43 13 48 50 76 158 76 299 0 40 7 115
15 166 17 106 10 132 -37 132 -23 0 -29 6 -38 38 -5 20 -13 162 -17 316 l-6
278 -44 87 c-23 47 -43 89 -43 93 0 4 -16 34 -36 65 -37 59 -85 105 -134 133
-15 8 -39 23 -53 33 -34 24 -127 34 -168 17 -30 -13 -33 -12 -50 12 -33 45
-109 85 -191 102 -81 17 -92 17 -253 6z"/>
</g>
</svg>
