<?xml version="1.0" standalone="no"?>
<!DOCTYPE svg PUBLIC "-//W3C//DTD SVG 20010904//EN"
 "http://www.w3.org/TR/2001/REC-SVG-20010904/DTD/svg10.dtd">
<svg version="1.0" xmlns="http://www.w3.org/2000/svg"
 width="204.000000pt" height="331.000000pt" viewBox="0 0 204.000000 331.000000"
 preserveAspectRatio="xMidYMid meet">
<metadata>
Created by potrace 1.13, written by Peter Selinger 2001-2015
</metadata>
<g transform="translate(0.000000,331.000000) scale(0.100000,-0.100000)"
fill="#000000" stroke="none">
<path d="M895 3171 c-67 -12 -270 -106 -357 -165 -34 -23 -184 -195 -223 -256
-33 -51 -72 -128 -92 -180 -24 -65 -10 -342 28 -534 10 -54 19 -102 19 -106 0
-5 -12 -10 -27 -12 -41 -4 -89 -81 -99 -156 -11 -92 7 -174 58 -251 24 -36 50
-82 58 -101 29 -73 60 -107 127 -141 41 -20 50 -30 89 -109 9 -19 24 -43 33
-54 22 -25 28 -287 11 -402 -13 -81 -13 -82 14 -116 14 -19 26 -39 26 -45 0
-5 9 -28 20 -51 11 -22 20 -47 20 -55 0 -7 49 -61 110 -120 107 -105 132 -122
245 -163 97 -36 91 -37 184 12 47 25 95 54 106 64 11 10 65 47 120 84 148 97
155 104 187 176 16 36 32 72 37 80 4 8 14 47 20 85 7 39 17 89 22 112 5 23 9
61 9 84 0 30 7 50 28 74 69 84 102 172 102 273 0 72 19 108 90 170 51 45 62
61 76 110 8 31 23 76 31 99 18 49 14 240 -6 283 -22 46 -40 75 -55 85 -12 9
-16 65 -21 316 -7 320 -19 428 -56 481 -11 14 -19 31 -19 37 0 16 -70 91 -84
91 -7 0 -31 16 -54 36 -72 62 -125 84 -197 84 -61 0 -65 1 -80 30 -8 16 -41
47 -73 68 -32 21 -71 48 -87 59 -26 19 -48 23 -165 27 -74 3 -153 1 -175 -3z"/>
</g>
</svg>
