<?xml version="1.0" standalone="no"?>
<!DOCTYPE svg PUBLIC "-//W3C//DTD SVG 20010904//EN"
 "http://www.w3.org/TR/2001/REC-SVG-20010904/DTD/svg10.dtd">
<svg version="1.0" xmlns="http://www.w3.org/2000/svg"
 width="236.000000pt" height="78.000000pt" viewBox="0 0 236.000000 78.000000"
 preserveAspectRatio="xMidYMid meet">
<metadata>
Created by potrace 1.13, written by Peter Selinger 2001-2015
</metadata>
<g transform="translate(0.000000,78.000000) scale(0.100000,-0.100000)"
fill="#000000" stroke="none">
<path d="M2226 754 c-3 -9 -6 -25 -7 -37 0 -12 -3 -16 -6 -9 -7 17 -23 15 -23
-4 0 -14 -3 -14 -15 -4 -13 10 -15 9 -15 -8 0 -19 -6 -21 -72 -21 -40 -1 -91
-5 -113 -11 -61 -15 -63 -14 -118 42 -48 47 -55 51 -98 50 -26 0 -73 -9 -105
-19 -51 -15 -100 -17 -339 -18 -154 0 -343 1 -420 2 -138 3 -323 -16 -348 -34
-7 -5 -30 -15 -52 -21 -22 -7 -58 -27 -80 -46 -35 -30 -40 -39 -41 -82 -1 -27
-3 -54 -3 -61 -1 -12 -38 -7 -58 9 -6 5 -40 17 -75 27 -34 10 -75 24 -90 31
-25 12 -32 10 -66 -12 -29 -20 -42 -38 -55 -78 -21 -65 -21 -79 -1 -132 39
-104 34 -103 182 -53 106 36 160 43 179 24 9 -9 8 -18 -4 -36 -24 -36 -7 -81
39 -105 143 -74 236 -90 593 -103 66 -2 141 -8 166 -14 73 -17 130 7 205 85
l41 43 194 -1 c107 -1 233 2 282 7 103 9 105 6 58 -90 -16 -33 -28 -62 -25
-64 9 -9 35 24 31 41 -3 10 -1 16 4 12 5 -3 9 -16 9 -30 0 -44 19 -25 26 26 4
28 11 53 15 56 5 3 9 18 9 33 0 32 29 50 88 54 17 1 32 5 32 10 0 4 5 7 10 7
6 0 23 8 38 19 15 10 50 33 79 51 30 19 57 45 64 62 11 27 7 39 -55 164 -47
94 -65 139 -58 147 15 18 26 107 14 107 -5 0 -13 -7 -16 -16z m11 -26 c-3 -8
-6 -5 -6 6 -1 11 2 17 5 13 3 -3 4 -12 1 -19z"/>
</g>
</svg>
