<?xml version="1.0" standalone="no"?>
<!DOCTYPE svg PUBLIC "-//W3C//DTD SVG 20010904//EN"
 "http://www.w3.org/TR/2001/REC-SVG-20010904/DTD/svg10.dtd">
<svg version="1.0" xmlns="http://www.w3.org/2000/svg"
 width="331.000000pt" height="107.000000pt" viewBox="0 0 331.000000 107.000000"
 preserveAspectRatio="xMidYMid meet">
<metadata>
Created by potrace 1.13, written by Peter Selinger 2001-2015
</metadata>
<g transform="translate(0.000000,107.000000) scale(0.100000,-0.100000)"
fill="#000000" stroke="none">
<path d="M1941 1041 c-6 -11 -11 -28 -11 -38 0 -21 -26 -65 -68 -112 -29 -33
-32 -34 -83 -27 -37 5 -54 4 -60 -5 -8 -13 -60 2 -89 27 -9 7 -24 13 -35 12
-11 0 -56 10 -100 21 -158 43 -325 35 -533 -25 -57 -17 -122 -51 -122 -63 0
-4 -11 -13 -25 -19 -14 -7 -31 -17 -38 -22 -7 -6 -46 -35 -87 -66 -147 -108
-160 -119 -160 -135 0 -5 8 -12 18 -15 9 -3 31 -12 47 -20 29 -13 27 -14 -30
-8 -33 3 -89 12 -125 20 -194 44 -319 56 -359 34 -35 -18 -64 -108 -65 -200
-1 -73 3 -91 24 -130 l26 -45 59 2 c34 1 104 15 160 33 149 46 277 80 305 80
l25 0 -24 -19 c-22 -17 -23 -20 -10 -50 8 -17 20 -31 27 -31 7 0 15 -7 18 -15
4 -8 12 -15 20 -15 8 0 23 -9 33 -19 10 -10 28 -22 40 -26 12 -3 21 -11 21
-16 0 -5 8 -9 19 -9 10 0 24 -7 31 -15 7 -8 23 -15 36 -15 12 0 25 -4 28 -9 3
-5 18 -8 33 -8 15 0 29 -6 31 -12 2 -6 15 -11 28 -11 14 0 38 -7 53 -15 16 -8
31 -12 33 -9 3 2 18 0 34 -7 16 -6 63 -13 104 -15 41 -3 76 -7 78 -9 2 -2 14
0 26 5 13 5 29 4 40 -2 12 -7 21 -7 29 1 6 6 26 11 43 11 18 0 36 5 40 11 3 6
15 8 26 6 17 -5 43 5 98 35 8 4 32 17 52 28 20 11 49 35 64 54 l28 34 100 -5
c75 -3 106 -9 120 -21 16 -15 49 -17 300 -15 221 1 292 5 331 17 62 20 115 22
97 4 -29 -29 2 -34 78 -13 23 6 23 5 -5 -14 -16 -11 -38 -21 -47 -21 -10 0
-18 -5 -18 -11 0 -12 68 -8 105 7 19 7 19 7 2 -13 -9 -11 -14 -22 -11 -26 3
-3 -3 -3 -14 0 -11 2 -23 0 -26 -6 -20 -32 105 9 134 44 14 17 15 16 20 -11
l5 -29 22 35 c11 19 26 61 33 92 7 35 17 58 24 58 28 0 162 69 186 95 14 15
51 40 82 56 60 30 94 68 84 94 -3 8 -13 15 -23 15 -15 0 -14 2 4 15 19 13 20
18 10 52 -33 107 -187 170 -457 187 -41 3 -120 12 -175 20 -55 8 -134 18 -175
21 -41 4 -86 9 -100 12 -14 2 -62 7 -107 10 -46 3 -83 9 -83 13 0 4 -30 37
-67 73 -127 122 -163 144 -182 108z"/>
</g>
</svg>
