<?xml version="1.0" standalone="no"?>
<!DOCTYPE svg PUBLIC "-//W3C//DTD SVG 20010904//EN"
 "http://www.w3.org/TR/2001/REC-SVG-20010904/DTD/svg10.dtd">
<svg version="1.0" xmlns="http://www.w3.org/2000/svg"
 width="600.000000pt" height="459.000000pt" viewBox="0 0 600.000000 459.000000"
 preserveAspectRatio="xMidYMid meet">
<metadata>
Created by potrace 1.13, written by Peter Selinger 2001-2015
</metadata>
<g transform="translate(0.000000,459.000000) scale(0.100000,-0.100000)"
fill="#000000" stroke="none">
<path d="M4571 3945 c-18 -8 -59 -15 -90 -15 -56 0 -58 -1 -119 -59 -34 -32
-62 -63 -62 -69 0 -16 -53 -92 -64 -92 -11 -1 -26 -20 -87 -112 -18 -27 -37
-48 -44 -48 -7 0 -20 20 -29 44 -9 24 -26 52 -36 61 -11 10 -20 28 -20 40 0
12 -9 30 -20 40 -11 10 -20 26 -20 35 0 10 -29 43 -65 75 l-66 58 -22 -20
c-38 -35 -66 -45 -108 -38 -37 6 -39 5 -39 -18 0 -14 -6 -37 -14 -51 -16 -31
-139 -142 -181 -163 -42 -21 -65 -43 -65 -62 -1 -9 -26 -43 -56 -76 -46 -49
-61 -60 -87 -60 -25 0 -33 -5 -35 -22 -2 -12 -15 -29 -30 -39 -15 -9 -39 -28
-53 -43 -15 -14 -47 -41 -72 -59 -26 -19 -49 -43 -52 -53 -4 -11 -18 -24 -31
-29 -13 -5 -28 -20 -33 -32 -11 -29 -40 -55 -66 -60 -13 -2 -22 -14 -25 -33
-5 -26 -10 -30 -38 -30 -23 0 -39 -8 -55 -27 -12 -14 -36 -33 -54 -42 -19 -9
-33 -25 -35 -38 -4 -28 -91 -63 -119 -48 -10 6 -30 10 -45 10 -15 0 -41 4 -58
9 -114 35 -115 35 -134 18 -10 -10 -26 -17 -34 -17 -9 0 -21 -7 -28 -15 -7 -8
-27 -15 -45 -15 -18 0 -44 -9 -58 -20 -14 -11 -30 -20 -36 -20 -16 0 -111 -48
-140 -71 -13 -11 -30 -19 -37 -19 -8 0 -22 -7 -31 -16 -10 -8 -47 -38 -83 -65
-73 -57 -270 -257 -270 -275 0 -7 -34 -45 -75 -86 -66 -66 -75 -79 -75 -111 0
-26 -8 -46 -30 -71 -44 -50 -57 -90 -65 -201 -4 -55 -14 -113 -22 -129 -9 -17
-12 -41 -9 -61 6 -30 4 -32 -32 -44 -23 -8 -59 -11 -88 -7 -27 3 -53 6 -59 6
-22 3 -123 -28 -175 -52 -30 -14 -66 -28 -80 -31 -110 -24 -150 -45 -150 -81
0 -13 -13 -39 -29 -59 -46 -59 -56 -92 -37 -122 11 -16 16 -46 16 -89 0 -36 5
-68 10 -71 18 -11 44 -69 49 -110 5 -35 11 -43 50 -62 24 -12 56 -36 70 -54
31 -36 94 -61 136 -53 34 6 153 53 173 67 16 12 68 41 110 61 18 8 45 25 59
36 14 11 33 20 42 20 10 0 30 14 46 30 16 16 37 30 47 30 9 0 22 9 28 20 6 11
23 26 39 35 28 14 29 14 35 -16 3 -16 3 -50 -1 -75 l-6 -46 29 6 c16 4 52 2
79 -4 99 -21 151 -21 170 0 12 14 25 18 42 14 15 -4 30 0 41 10 12 10 42 17
82 19 36 2 75 9 87 15 12 7 34 12 48 12 15 0 38 9 52 20 16 13 34 18 45 14 14
-4 25 1 35 15 13 19 21 21 78 16 47 -3 66 -1 75 10 6 7 26 17 43 20 18 4 40
14 49 22 9 8 25 12 36 9 11 -4 29 1 43 12 38 31 112 63 129 57 10 -3 24 6 37
24 21 28 42 36 128 48 22 3 49 13 60 23 19 16 32 21 103 36 57 12 95 41 153
117 32 43 62 90 65 105 4 15 20 42 36 61 26 30 29 39 27 95 -2 42 2 71 14 93
17 32 73 73 100 73 8 0 38 16 67 35 29 19 64 35 80 35 15 0 44 13 65 30 21 17
44 30 52 30 7 0 29 15 48 34 30 30 41 35 82 35 70 -1 131 11 144 27 6 8 16 14
22 14 10 0 48 32 165 137 32 29 75 59 95 68 40 16 57 40 57 79 0 31 20 76 33
76 6 0 7 -21 3 -52 -3 -29 -6 -63 -6 -75 0 -12 -11 -35 -25 -51 -15 -18 -23
-37 -19 -46 8 -20 -29 -99 -53 -118 -10 -7 -19 -26 -20 -41 -1 -16 -17 -45
-37 -68 -32 -35 -36 -45 -36 -94 0 -54 1 -55 21 -44 15 8 19 8 15 0 -4 -6 -3
-11 2 -11 10 0 62 99 62 118 0 6 5 11 12 10 7 -2 12 4 13 12 1 34 94 176 110
169 6 -2 9 -23 8 -46 -1 -32 3 -43 13 -43 8 0 17 8 20 18 6 18 11 27 44 77 15
23 19 40 14 71 -4 30 -2 43 11 54 9 7 23 27 32 43 12 25 13 34 2 54 -10 18
-10 31 -2 53 6 15 7 34 2 41 -4 7 -1 25 7 42 14 26 14 31 0 46 -9 10 -16 25
-16 35 0 28 28 73 59 95 22 16 31 31 33 59 2 28 10 41 33 57 38 24 63 59 112
154 23 45 46 77 60 82 13 5 23 14 23 21 0 6 16 26 35 44 19 17 35 41 35 52 0
11 7 25 15 32 8 7 15 23 15 36 0 14 11 42 25 63 14 21 29 61 34 89 4 28 20 69
34 90 33 46 36 97 7 112 -11 6 -20 17 -20 24 0 25 -35 58 -70 65 -25 5 -36 13
-40 31 -4 18 -14 26 -35 28 -16 2 -45 16 -65 31 -19 16 -46 31 -60 34 -14 3
-43 10 -65 16 -54 14 -84 13 -124 -4z"/>
</g>
</svg>
