<?xml version="1.0" standalone="no"?>
<!DOCTYPE svg PUBLIC "-//W3C//DTD SVG 20010904//EN"
 "http://www.w3.org/TR/2001/REC-SVG-20010904/DTD/svg10.dtd">
<svg version="1.0" xmlns="http://www.w3.org/2000/svg"
 width="271.000000pt" height="101.000000pt" viewBox="0 0 271.000000 101.000000"
 preserveAspectRatio="xMidYMid meet">
<metadata>
Created by potrace 1.13, written by Peter Selinger 2001-2015
</metadata>
<g transform="translate(0.000000,101.000000) scale(0.100000,-0.100000)"
fill="#000000" stroke="none">
<path d="M2410 992 c0 -5 18 -27 41 -50 40 -41 44 -62 11 -62 -23 -1 -126 -36
-160 -54 -15 -9 -50 -24 -79 -35 l-51 -18 -32 44 c-40 55 -106 120 -142 139
-25 13 -28 13 -28 -1 0 -11 -6 -14 -25 -9 -21 5 -25 3 -25 -15 0 -22 -14 -28
-25 -11 -9 15 -25 12 -25 -4 0 -19 -21 -25 -45 -13 -13 7 -20 6 -23 -2 -2 -6
-17 -11 -33 -11 -19 0 -29 -5 -29 -15 0 -18 -21 -20 -38 -3 -9 9 -12 8 -12 -5
0 -11 -8 -17 -24 -17 -14 0 -28 -5 -32 -11 -3 -6 -15 -8 -26 -6 -11 3 -21 0
-25 -9 -3 -8 -14 -14 -24 -14 -10 0 -19 -7 -19 -15 0 -11 -7 -14 -25 -9 -21 5
-24 3 -19 -11 6 -14 3 -16 -17 -10 -13 4 -21 4 -17 0 4 -4 1 -13 -5 -20 -9
-10 -27 3 -84 61 l-71 74 -81 0 c-97 0 -354 -36 -390 -54 -14 -8 -53 -19 -86
-26 -33 -8 -71 -19 -85 -25 -14 -7 -42 -15 -63 -19 -48 -9 -77 -37 -77 -76 0
-41 -19 -38 -60 11 -103 120 -135 150 -174 159 -52 11 -92 3 -138 -27 -53 -36
-80 -76 -112 -171 -24 -70 -28 -94 -23 -150 6 -82 34 -150 82 -198 34 -34 40
-36 88 -32 36 3 66 14 96 34 75 50 153 94 166 94 28 0 26 -23 -4 -50 -41 -38
-39 -62 7 -99 37 -28 184 -77 297 -97 22 -4 54 -13 70 -19 17 -7 75 -18 130
-25 55 -7 128 -19 163 -26 73 -16 168 -18 177 -4 3 5 25 18 48 29 23 11 67 38
98 61 l56 41 89 -16 c86 -17 127 -16 298 1 43 4 61 3 67 -7 10 -17 59 -20 77
-6 10 8 16 7 22 -2 12 -21 47 -4 82 39 27 34 104 87 113 78 2 -2 -5 -21 -15
-43 -11 -22 -19 -46 -20 -53 0 -25 -52 -102 -91 -136 -39 -33 -50 -56 -27 -56
17 0 107 96 120 128 11 27 12 27 16 4 2 -13 -1 -37 -7 -54 -6 -17 -9 -33 -7
-36 9 -8 27 10 37 36 16 41 59 210 59 230 0 17 79 82 100 82 4 0 21 11 37 24
15 13 46 29 68 36 43 14 145 95 145 115 0 6 9 22 20 35 38 43 36 65 -9 119
-23 27 -41 56 -41 65 0 9 -6 16 -13 16 -8 0 -19 11 -25 24 -6 13 -20 27 -31
31 -11 3 -23 15 -26 26 -4 11 -26 40 -50 64 -41 42 -65 56 -65 37z m50 -32
c18 -16 31 -32 29 -35 -3 -2 -21 11 -39 30 -42 43 -36 46 10 5z m-267 -820
c-7 -25 -100 -126 -109 -118 -3 4 13 23 36 44 23 21 48 50 56 66 17 33 24 36
17 8z m29 -72 c-8 -8 -9 -4 -5 13 4 13 8 18 11 10 2 -7 -1 -18 -6 -23z"/>
</g>
</svg>
