<?xml version="1.0" standalone="no"?>
<!DOCTYPE svg PUBLIC "-//W3C//DTD SVG 20010904//EN"
 "http://www.w3.org/TR/2001/REC-SVG-20010904/DTD/svg10.dtd">
<svg version="1.0" xmlns="http://www.w3.org/2000/svg"
 width="239.000000pt" height="56.000000pt" viewBox="0 0 239.000000 56.000000"
 preserveAspectRatio="xMidYMid meet">
<metadata>
Created by potrace 1.13, written by Peter Selinger 2001-2015
</metadata>
<g transform="translate(0.000000,56.000000) scale(0.100000,-0.100000)"
fill="#000000" stroke="none">
<path d="M1552 535 c-19 -8 -62 -39 -96 -70 -62 -54 -64 -55 -127 -55 -50 -1
-80 5 -138 29 -64 27 -85 31 -170 31 -134 0 -443 -42 -480 -64 -23 -14 -9 -36
37 -60 l47 -25 -196 6 c-191 6 -197 5 -281 -21 -96 -30 -138 -62 -138 -107 0
-47 20 -76 72 -104 49 -27 52 -27 187 -22 75 3 168 12 206 20 74 16 295 34
295 24 0 -4 -14 -14 -31 -22 -31 -17 -50 -50 -41 -74 4 -11 27 -13 122 -8 167
8 245 24 310 61 l55 32 160 -6 c88 -4 151 -8 140 -9 -11 0 -27 -6 -35 -11 -13
-8 -13 -11 1 -25 10 -10 42 -17 95 -21 81 -6 110 0 269 60 26 10 78 15 152 16
61 0 145 6 185 14 92 18 216 55 224 67 18 29 -47 83 -129 108 -18 5 -51 17
-75 25 -24 9 -107 30 -185 46 -234 49 -243 52 -301 114 -57 62 -86 72 -134 51z"/>
</g>
</svg>
