<?xml version="1.0" standalone="no"?>
<!DOCTYPE svg PUBLIC "-//W3C//DTD SVG 20010904//EN"
 "http://www.w3.org/TR/2001/REC-SVG-20010904/DTD/svg10.dtd">
<svg version="1.0" xmlns="http://www.w3.org/2000/svg"
 width="296.000000pt" height="99.000000pt" viewBox="0 0 296.000000 99.000000"
 preserveAspectRatio="xMidYMid meet">
<metadata>
Created by potrace 1.13, written by Peter Selinger 2001-2015
</metadata>
<g transform="translate(0.000000,99.000000) scale(0.100000,-0.100000)"
fill="#000000" stroke="none">
<path d="M1692 965 c-44 -19 -102 -65 -102 -80 0 -7 -9 -24 -21 -39 -20 -25
-20 -28 -5 -51 15 -22 15 -25 1 -25 -9 0 -18 7 -21 15 -3 8 -47 35 -97 61
l-91 47 -121 -6 c-85 -4 -137 -12 -180 -27 -33 -11 -96 -28 -140 -36 -44 -8
-114 -23 -155 -34 -41 -10 -110 -26 -154 -36 -103 -24 -136 -45 -136 -84 0
-16 -2 -30 -4 -30 -3 0 -35 14 -71 31 -73 34 -180 54 -235 44 -34 -7 -78 -33
-112 -67 -36 -36 -41 -58 -34 -167 10 -145 18 -171 72 -224 41 -41 53 -47 115
-57 50 -9 88 -9 137 -1 97 15 253 23 301 15 l41 -6 -21 -30 c-19 -25 -20 -33
-8 -59 16 -39 105 -81 209 -99 86 -15 367 -7 422 12 38 13 89 58 119 105 18
29 23 31 57 26 20 -3 47 -12 60 -19 27 -17 179 -23 297 -11 76 8 79 7 53 -8
-16 -9 -28 -22 -28 -29 0 -22 41 -26 164 -17 63 6 130 7 149 4 30 -4 39 1 96
56 67 65 60 63 226 81 55 6 118 13 140 16 22 2 65 7 95 10 121 12 153 29 208
109 36 53 37 135 1 186 -32 46 -81 99 -91 99 -5 0 -22 10 -38 22 -16 12 -51
25 -77 29 -27 4 -75 15 -108 24 -109 30 -198 44 -355 56 l-155 12 -29 34 c-72
86 -129 133 -179 148 -63 19 -152 19 -195 0z"/>
</g>
</svg>
