<?xml version="1.0" standalone="no"?>
<!DOCTYPE svg PUBLIC "-//W3C//DTD SVG 20010904//EN"
 "http://www.w3.org/TR/2001/REC-SVG-20010904/DTD/svg10.dtd">
<svg version="1.0" xmlns="http://www.w3.org/2000/svg"
 width="234.000000pt" height="77.000000pt" viewBox="0 0 234.000000 77.000000"
 preserveAspectRatio="xMidYMid meet">
<metadata>
Created by potrace 1.13, written by Peter Selinger 2001-2015
</metadata>
<g transform="translate(0.000000,77.000000) scale(0.100000,-0.100000)"
fill="#000000" stroke="none">
<path d="M1580 746 c-6 -8 -33 -22 -58 -32 -26 -9 -56 -20 -67 -24 -11 -5 -54
-16 -95 -25 -99 -21 -200 -61 -226 -90 l-22 -23 -30 26 c-91 79 -156 97 -223
63 -56 -30 -130 -58 -209 -81 -110 -32 -203 -66 -243 -90 -33 -20 -43 -39 -38
-72 0 -5 -4 -8 -9 -8 -18 0 -147 38 -168 49 -12 6 -48 14 -80 17 l-59 6 -22
-38 c-20 -33 -22 -47 -16 -99 9 -83 35 -138 74 -157 29 -14 38 -14 84 0 29 8
59 20 67 27 30 25 117 46 157 39 35 -7 36 -8 15 -17 -12 -6 -22 -13 -22 -17 0
-11 64 -66 105 -90 140 -80 268 -105 513 -99 145 4 150 5 190 33 23 15 53 49
68 73 26 44 27 45 67 39 131 -20 371 5 447 45 19 11 41 19 48 19 22 0 3 -41
-39 -85 -42 -43 -47 -55 -24 -55 14 0 20 12 16 33 -3 17 17 -4 22 -23 3 -11 2
-18 -3 -15 -10 6 -32 -20 -24 -28 17 -17 70 61 89 132 l12 45 96 2 c53 2 105
8 116 13 11 6 57 18 103 27 153 29 169 62 82 171 -19 23 -34 45 -34 50 0 4
-16 23 -35 42 -19 19 -35 42 -35 51 0 36 -28 45 -129 42 -53 -1 -131 -7 -174
-13 l-78 -10 -39 43 c-98 109 -108 118 -133 118 -13 0 -30 -7 -37 -14z"/>
</g>
</svg>
