<?xml version="1.0" standalone="no"?>
<!DOCTYPE svg PUBLIC "-//W3C//DTD SVG 20010904//EN"
 "http://www.w3.org/TR/2001/REC-SVG-20010904/DTD/svg10.dtd">
<svg version="1.0" xmlns="http://www.w3.org/2000/svg"
 width="286.000000pt" height="104.000000pt" viewBox="0 0 286.000000 104.000000"
 preserveAspectRatio="xMidYMid meet">
<metadata>
Created by potrace 1.13, written by Peter Selinger 2001-2015
</metadata>
<g transform="translate(0.000000,104.000000) scale(0.100000,-0.100000)"
fill="#000000" stroke="none">
<path d="M1910 1020 c-14 -4 -83 -27 -155 -50 -71 -24 -148 -50 -170 -60 -22
-9 -65 -28 -95 -41 -30 -12 -62 -28 -70 -34 -8 -7 -29 -17 -47 -24 -17 -7 -39
-21 -49 -32 -9 -10 -22 -19 -28 -19 -6 0 -23 -15 -38 -34 l-27 -34 -68 33
c-71 35 -152 64 -240 86 -68 17 -115 3 -174 -52 -35 -33 -130 -113 -148 -126
-2 -1 7 -11 19 -21 l24 -19 -45 -7 c-28 -4 -63 -1 -99 9 -161 46 -271 73 -318
80 -48 6 -57 4 -92 -20 -21 -14 -42 -39 -48 -53 -39 -112 -43 -169 -12 -212
30 -42 74 -60 148 -60 82 0 258 28 294 46 15 8 55 14 89 14 l62 0 -27 -21
c-14 -11 -26 -25 -26 -30 0 -11 60 -38 163 -74 87 -29 288 -75 452 -103 136
-24 426 -36 547 -23 71 8 78 11 109 45 21 25 37 35 48 31 9 -4 69 -11 133 -17
137 -12 200 1 259 55 35 32 89 48 89 27 0 -29 -67 -142 -116 -196 -30 -32 -54
-62 -54 -66 0 -16 32 -7 55 16 14 14 27 20 33 14 18 -18 89 99 121 201 l17 55
129 33 c86 22 144 32 171 29 58 -7 83 2 91 33 3 14 12 35 19 46 21 29 17 47
-16 85 -16 19 -29 41 -30 48 0 6 -6 12 -12 12 -7 0 -26 14 -43 31 -27 28 -101
69 -123 69 -5 0 -15 7 -22 15 -9 10 -16 12 -25 5 -6 -5 -22 -7 -36 -4 -13 4
-35 7 -49 8 -23 3 -25 7 -30 69 -6 80 -16 93 -56 72 -37 -19 -36 -19 -62 5
l-22 21 -10 -26 c-7 -19 -17 -25 -40 -25 -26 0 -30 -4 -30 -27 0 -40 -11 -51
-45 -46 -20 3 -39 17 -55 40 -14 19 -32 42 -41 51 -8 9 -28 40 -44 67 -31 55
-83 115 -99 114 -6 0 -22 -4 -36 -9z"/>
</g>
</svg>
