<?xml version="1.0" standalone="no"?>
<!DOCTYPE svg PUBLIC "-//W3C//DTD SVG 20010904//EN"
 "http://www.w3.org/TR/2001/REC-SVG-20010904/DTD/svg10.dtd">
<svg version="1.0" xmlns="http://www.w3.org/2000/svg"
 width="209.000000pt" height="59.000000pt" viewBox="0 0 209.000000 59.000000"
 preserveAspectRatio="xMidYMid meet">
<metadata>
Created by potrace 1.13, written by Peter Selinger 2001-2015
</metadata>
<g transform="translate(0.000000,59.000000) scale(0.100000,-0.100000)"
fill="#000000" stroke="none">
<path d="M1159 576 c-2 -3 -42 -7 -89 -10 -102 -6 -342 -40 -425 -60 -69 -17
-205 -61 -252 -81 -21 -10 -33 -23 -38 -44 -3 -16 -12 -31 -18 -34 -15 -6
-155 28 -181 44 -15 9 -28 6 -63 -12 -75 -39 -97 -81 -73 -144 14 -37 59 -75
89 -75 14 0 73 14 131 30 58 17 106 30 107 30 2 0 3 -9 3 -20 0 -26 22 -35
142 -59 104 -22 620 -50 670 -38 20 5 28 14 30 35 l3 27 195 -1 195 -1 7 -34
c5 -25 1 -42 -13 -65 -29 -47 -22 -64 10 -26 18 21 30 29 33 21 8 -23 30 2 59
67 27 59 32 64 71 74 24 6 59 17 78 25 63 27 188 46 215 33 34 -15 45 -1 17
21 -32 24 -39 122 -10 147 21 19 24 38 6 31 -7 -2 -12 -11 -10 -18 1 -8 -5 -5
-14 6 -15 20 -15 20 -34 -3 -11 -13 -24 -21 -29 -18 -5 4 -56 13 -113 22 -57
8 -110 17 -118 19 -9 3 -22 25 -29 50 -17 57 -35 60 -26 4 7 -41 7 -42 -16
-34 -13 4 -87 10 -163 12 -133 5 -141 6 -159 29 -28 37 -70 54 -130 54 -29 0
-56 -2 -58 -4z m431 -526 c-6 -11 -13 -20 -16 -20 -2 0 0 9 6 20 6 11 13 20
16 20 2 0 0 -9 -6 -20z"/>
</g>
</svg>
