<?xml version="1.0" standalone="no"?>
<!DOCTYPE svg PUBLIC "-//W3C//DTD SVG 20010904//EN"
 "http://www.w3.org/TR/2001/REC-SVG-20010904/DTD/svg10.dtd">
<svg version="1.0" xmlns="http://www.w3.org/2000/svg"
 width="239.000000pt" height="79.000000pt" viewBox="0 0 239.000000 79.000000"
 preserveAspectRatio="xMidYMid meet">
<metadata>
Created by potrace 1.13, written by Peter Selinger 2001-2015
</metadata>
<g transform="translate(0.000000,79.000000) scale(0.100000,-0.100000)"
fill="#000000" stroke="none">
<path d="M1655 769 c-288 -34 -385 -49 -425 -67 l-46 -20 -64 25 -65 24 -125
-16 c-209 -28 -304 -43 -330 -53 -14 -5 -58 -15 -98 -22 l-74 -12 7 -35 c3
-19 3 -48 0 -64 -6 -24 -12 -29 -36 -29 -17 0 -42 6 -57 14 -15 8 -56 20 -92
26 -36 7 -77 19 -92 26 -59 30 -80 18 -130 -73 -28 -51 -24 -134 9 -193 25
-45 73 -84 73 -60 0 6 9 10 21 10 11 0 29 5 39 10 30 16 199 47 227 42 21 -4
24 -9 18 -31 -4 -14 -11 -27 -16 -29 -5 -2 -9 -12 -9 -22 0 -21 35 -31 200
-56 75 -12 172 -18 280 -19 162 0 166 1 246 32 l80 32 127 -9 128 -9 48 -41
c72 -61 113 -60 208 3 65 42 123 61 123 39 0 -4 -9 -25 -20 -47 -25 -49 -27
-80 -4 -71 13 5 15 1 10 -18 -7 -29 18 -56 36 -38 6 6 25 53 42 104 l31 93
106 21 c58 12 114 26 125 32 36 20 124 43 135 36 9 -5 10 -2 6 9 -3 10 -2 17
3 17 19 0 80 63 80 82 0 21 -48 111 -125 235 -12 19 -31 34 -47 37 -30 6 -74
-7 -79 -23 -2 -6 -65 -13 -144 -17 l-140 -7 -23 45 c-12 25 -22 50 -22 56 0
15 -41 42 -60 41 -8 -1 -46 -5 -85 -10z"/>
</g>
</svg>
