<?xml version="1.0" standalone="no"?>
<!DOCTYPE svg PUBLIC "-//W3C//DTD SVG 20010904//EN"
 "http://www.w3.org/TR/2001/REC-SVG-20010904/DTD/svg10.dtd">
<svg version="1.0" xmlns="http://www.w3.org/2000/svg"
 width="232.000000pt" height="67.000000pt" viewBox="0 0 232.000000 67.000000"
 preserveAspectRatio="xMidYMid meet">
<metadata>
Created by potrace 1.13, written by Peter Selinger 2001-2015
</metadata>
<g transform="translate(0.000000,67.000000) scale(0.100000,-0.100000)"
fill="#000000" stroke="none">
<path d="M1675 651 c-11 -4 -69 -13 -130 -20 -174 -18 -276 -42 -303 -68 -25
-26 -42 -30 -42 -10 -1 6 -11 25 -25 41 -21 26 -29 29 -82 28 -32 0 -78 -8
-103 -17 -30 -11 -98 -20 -202 -25 -86 -5 -166 -14 -178 -20 -12 -6 -44 -18
-71 -26 -40 -12 -49 -19 -49 -37 0 -12 7 -32 15 -44 15 -21 14 -22 -39 -28
-52 -7 -115 5 -142 26 -6 5 -35 18 -65 28 -30 11 -67 26 -84 34 -30 15 -54 20
-87 18 -26 -2 -53 -65 -67 -154 -14 -87 -6 -130 32 -164 20 -18 30 -19 112
-12 50 5 121 13 159 18 59 8 75 7 100 -7 17 -9 40 -20 51 -23 18 -6 18 -7 -3
-8 -43 -2 -20 -34 49 -71 37 -19 73 -41 82 -48 24 -20 155 -46 242 -46 91 -1
232 25 270 50 21 14 25 14 25 2 0 -10 10 -15 30 -15 24 0 30 5 30 22 l0 22
258 -4 c255 -3 258 -3 375 25 131 32 146 26 82 -31 -39 -34 -45 -52 -16 -42
16 5 18 2 14 -15 -3 -11 -1 -20 5 -20 10 0 62 119 62 143 0 8 29 17 86 24 48
7 94 19 103 27 9 7 32 21 51 29 52 22 84 61 83 102 -1 49 -43 133 -95 190
l-45 49 -75 -2 c-42 -1 -95 -9 -118 -17 -71 -25 -95 -20 -121 23 -35 58 -68
81 -114 81 -22 0 -49 -4 -60 -8z m273 -568 c-8 -23 -17 -30 -34 -29 -22 1 -21
2 9 31 18 17 33 30 34 29 2 0 -3 -14 -9 -31z"/>
</g>
</svg>
