<?xml version="1.0" standalone="no"?>
<!DOCTYPE svg PUBLIC "-//W3C//DTD SVG 20010904//EN"
 "http://www.w3.org/TR/2001/REC-SVG-20010904/DTD/svg10.dtd">
<svg version="1.0" xmlns="http://www.w3.org/2000/svg"
 width="329.000000pt" height="115.000000pt" viewBox="0 0 329.000000 115.000000"
 preserveAspectRatio="xMidYMid meet">
<metadata>
Created by potrace 1.13, written by Peter Selinger 2001-2015
</metadata>
<g transform="translate(0.000000,115.000000) scale(0.100000,-0.100000)"
fill="#000000" stroke="none">
<path d="M2958 1120 c-38 -20 -147 -36 -268 -39 -36 -1 -108 -11 -162 -21
-126 -26 -130 -26 -185 14 -27 18 -59 37 -73 41 -37 12 -144 12 -152 0 -4 -5
-30 -8 -57 -7 -35 1 -50 -2 -49 -10 2 -7 -10 -15 -27 -19 -16 -4 -26 -7 -21
-8 19 -2 -18 -31 -40 -31 -21 0 -23 -3 -13 -18 9 -14 6 -25 -15 -56 -14 -22
-24 -41 -22 -44 3 -2 -8 -17 -23 -33 l-29 -29 -69 31 c-82 38 -155 50 -330 55
-102 3 -137 0 -160 -11 -15 -8 -37 -15 -47 -15 -11 0 -16 -3 -12 -7 4 -4 -10
-17 -31 -30 -21 -13 -34 -23 -29 -23 5 0 -3 -9 -17 -20 -14 -11 -32 -20 -40
-20 -8 0 -17 -7 -21 -15 -3 -8 -12 -15 -21 -15 -9 0 -24 -8 -35 -18 -10 -9
-39 -23 -64 -31 -25 -7 -46 -16 -46 -20 0 -4 -25 -18 -55 -32 -30 -13 -57 -32
-61 -41 -3 -9 -11 -15 -18 -12 -18 7 -39 -39 -34 -75 7 -46 -17 -40 -99 24
-39 30 -74 55 -77 55 -3 0 -33 21 -67 48 -85 66 -142 100 -182 107 -34 7 -117
-10 -127 -25 -3 -4 -23 -17 -45 -29 -22 -11 -36 -21 -31 -21 5 0 0 -10 -11
-22 -11 -13 -33 -45 -49 -73 -27 -46 -29 -57 -29 -155 0 -85 4 -111 18 -134
10 -15 17 -37 15 -49 -3 -22 10 -36 81 -86 51 -36 158 -29 301 20 31 10 79 20
108 21 29 1 54 8 56 14 8 22 93 27 226 14 143 -14 148 -17 104 -69 -14 -17
-21 -31 -15 -31 6 0 11 -7 11 -15 0 -8 7 -15 16 -15 9 0 18 -9 21 -20 3 -11
13 -20 23 -20 10 0 20 -9 23 -20 3 -12 14 -20 26 -20 12 0 21 -3 21 -7 0 -9
16 -11 103 -18 32 -2 64 -8 71 -14 7 -6 16 -8 19 -4 4 3 37 8 74 10 38 2 77 5
88 7 38 6 181 71 210 96 11 9 36 26 55 36 43 23 51 32 95 116 40 74 39 74 150
82 39 3 81 7 95 10 14 4 19 4 13 0 -18 -8 -16 -25 2 -18 8 4 36 3 61 -1 44 -6
45 -7 28 -26 -19 -21 -15 -23 47 -20 29 2 37 -2 42 -18 3 -12 1 -19 -3 -16 -5
3 -12 0 -15 -5 -5 -8 5 -9 32 -4 64 13 78 11 75 -9 -4 -24 25 -22 77 8 23 14
44 25 46 25 1 0 5 -9 8 -20 3 -11 1 -18 -3 -15 -5 3 -11 1 -15 -5 -3 -5 1 -10
9 -10 8 0 43 25 78 55 65 57 82 66 72 40 -5 -12 -2 -14 12 -8 16 6 17 5 6 -9
-17 -22 -22 -98 -5 -98 6 0 17 8 22 17 6 10 11 13 11 6 0 -21 -12 -43 -21 -37
-5 3 -9 1 -9 -5 0 -5 -3 -18 -7 -28 -6 -16 -4 -16 17 2 l23 20 -6 -35 c-6 -32
-5 -33 8 -16 8 10 22 38 32 62 11 26 24 43 32 41 16 -2 40 88 41 154 0 45 35
95 55 79 21 -17 37 23 33 78 l-3 47 35 3 c42 3 158 40 165 52 3 5 29 20 58 34
111 54 169 102 202 166 17 32 20 70 6 70 -4 0 -8 16 -7 36 1 33 -3 38 -46 61
-27 14 -48 32 -48 40 0 12 -3 13 -14 4 -14 -12 -76 4 -76 20 0 10 -37 34 -65
43 -12 3 -36 -3 -57 -14z"/>
</g>
</svg>
