<?xml version="1.0" standalone="no"?>
<!DOCTYPE svg PUBLIC "-//W3C//DTD SVG 20010904//EN"
 "http://www.w3.org/TR/2001/REC-SVG-20010904/DTD/svg10.dtd">
<svg version="1.0" xmlns="http://www.w3.org/2000/svg"
 width="420.000000pt" height="259.000000pt" viewBox="0 0 420.000000 259.000000"
 preserveAspectRatio="xMidYMid meet">
<metadata>
Created by potrace 1.13, written by Peter Selinger 2001-2015
</metadata>
<g transform="translate(0.000000,259.000000) scale(0.100000,-0.100000)"
fill="#000000" stroke="none">
<path d="M2115 2560 c-38 -4 -92 -12 -120 -18 -84 -19 -256 -100 -307 -146
-25 -22 -85 -75 -132 -116 -120 -104 -240 -237 -321 -355 -38 -55 -89 -124
-113 -154 -24 -30 -55 -78 -69 -105 -14 -28 -31 -54 -37 -58 -21 -14 -199 -8
-251 8 -45 14 -122 31 -240 54 -22 4 -56 13 -75 20 -76 26 -97 31 -155 36 -81
8 -141 -9 -186 -55 -48 -48 -59 -91 -59 -237 0 -67 -5 -136 -11 -153 -9 -25
-9 -43 0 -73 10 -31 10 -50 0 -90 -12 -47 -12 -53 11 -96 47 -88 154 -137 281
-129 162 10 327 44 400 83 20 11 67 21 114 24 55 4 97 14 136 32 31 14 61 23
67 19 6 -4 18 -27 27 -51 9 -25 26 -56 38 -70 13 -14 36 -43 52 -65 16 -22 96
-108 177 -192 81 -83 148 -156 148 -160 0 -5 24 -26 54 -48 30 -22 64 -55 75
-75 23 -41 61 -78 113 -109 20 -12 59 -40 85 -62 26 -21 58 -39 70 -39 13 0
31 -10 41 -21 35 -43 44 -49 105 -68 34 -10 84 -29 110 -40 27 -12 56 -21 65
-21 9 0 30 -7 46 -15 39 -21 213 -21 252 0 16 8 46 15 67 15 97 0 361 113 442
189 17 16 48 41 70 57 53 37 143 114 164 138 9 10 37 43 64 73 26 29 47 58 47
64 0 17 171 190 199 200 17 7 31 4 56 -11 l33 -20 31 26 c18 14 46 47 63 73
17 25 79 96 137 158 173 182 237 255 271 311 32 52 32 56 26 129 -11 123 -51
173 -136 173 -52 0 -69 13 -93 71 -21 51 -83 130 -126 159 -20 14 -77 66 -127
115 -50 50 -124 110 -164 135 -117 71 -202 130 -240 164 -89 82 -240 166 -300
166 -15 0 -52 14 -83 30 -31 17 -63 30 -71 30 -9 0 -30 6 -48 14 -83 34 -172
57 -254 67 -49 5 -123 14 -164 19 -85 10 -153 10 -255 0z"/>
</g>
</svg>
