<?xml version="1.0" standalone="no"?>
<!DOCTYPE svg PUBLIC "-//W3C//DTD SVG 20010904//EN"
 "http://www.w3.org/TR/2001/REC-SVG-20010904/DTD/svg10.dtd">
<svg version="1.0" xmlns="http://www.w3.org/2000/svg"
 width="420.000000pt" height="188.000000pt" viewBox="0 0 420.000000 188.000000"
 preserveAspectRatio="xMidYMid meet">
<metadata>
Created by potrace 1.13, written by Peter Selinger 2001-2015
</metadata>
<g transform="translate(0.000000,188.000000) scale(0.100000,-0.100000)"
fill="#000000" stroke="none">
<path d="M2073 1869 c-6 -6 -29 -15 -50 -19 -21 -5 -94 -29 -162 -54 -90 -33
-135 -55 -160 -80 -20 -18 -47 -39 -61 -46 -31 -17 -84 -58 -170 -135 -82 -74
-137 -115 -261 -198 -67 -45 -99 -73 -108 -96 -8 -17 -17 -31 -20 -31 -4 0
-28 -14 -54 -31 -44 -29 -50 -30 -124 -26 -121 8 -260 31 -353 59 -121 37
-304 76 -380 83 -83 7 -101 -5 -111 -71 -4 -27 -12 -76 -18 -109 -6 -33 -11
-103 -11 -155 0 -65 -5 -104 -15 -124 -23 -44 -19 -81 10 -94 31 -14 351 -15
440 -1 77 12 244 26 412 35 l132 7 28 -33 c85 -100 180 -190 238 -225 168
-102 213 -135 245 -185 18 -28 35 -50 40 -50 4 0 28 -18 52 -40 51 -45 261
-174 316 -195 21 -7 62 -16 92 -20 30 -3 66 -13 78 -21 17 -11 41 -14 85 -11
98 7 275 53 377 97 36 16 85 33 110 40 25 6 61 19 80 29 65 33 204 122 251
162 63 53 97 69 143 69 52 0 138 25 211 62 33 17 90 46 126 64 37 19 86 50
110 70 23 19 54 41 69 49 15 8 33 21 40 30 8 9 59 39 114 66 56 28 126 67 156
88 107 74 184 122 207 127 19 5 23 13 23 44 0 38 -1 39 -37 42 -36 3 -38 5
-38 38 -1 75 -30 106 -131 140 -31 11 -72 31 -90 45 -27 20 -44 25 -94 25 -57
0 -64 3 -88 31 -25 29 -134 110 -206 153 -17 10 -60 38 -96 62 -36 24 -84 50
-107 58 -23 8 -98 42 -165 74 -269 130 -410 176 -570 187 -54 4 -100 11 -104
16 -8 14 -387 12 -401 -2z"/>
</g>
</svg>
