<?xml version="1.0" standalone="no"?>
<!DOCTYPE svg PUBLIC "-//W3C//DTD SVG 20010904//EN"
 "http://www.w3.org/TR/2001/REC-SVG-20010904/DTD/svg10.dtd">
<svg version="1.0" xmlns="http://www.w3.org/2000/svg"
 width="420.000000pt" height="230.000000pt" viewBox="0 0 420.000000 230.000000"
 preserveAspectRatio="xMidYMid meet">
<metadata>
Created by potrace 1.13, written by Peter Selinger 2001-2015
</metadata>
<g transform="translate(0.000000,230.000000) scale(0.100000,-0.100000)"
fill="#000000" stroke="none">
<path d="M1908 2277 c-15 -12 -49 -33 -75 -46 -75 -38 -213 -122 -267 -163
-27 -20 -63 -39 -81 -42 -17 -4 -43 -18 -56 -32 -13 -14 -46 -37 -73 -51 -27
-13 -69 -44 -95 -68 -25 -23 -62 -50 -82 -58 -46 -19 -178 -116 -211 -156 -14
-16 -38 -62 -53 -101 -15 -39 -35 -75 -45 -80 -40 -22 -94 -10 -195 41 -260
131 -424 199 -481 199 -50 0 -94 -42 -94 -91 0 -25 -12 -60 -35 -103 -33 -59
-36 -70 -34 -138 2 -72 -10 -173 -24 -195 -4 -7 -3 -20 2 -30 5 -10 14 -37 20
-59 11 -43 63 -137 101 -187 12 -15 31 -51 42 -80 22 -58 31 -67 69 -67 28 0
133 66 205 129 114 99 317 232 364 238 52 7 80 -21 80 -80 0 -86 104 -249 251
-389 41 -40 95 -100 120 -133 24 -33 65 -74 89 -92 25 -18 86 -72 135 -121
100 -96 192 -166 275 -206 30 -15 81 -40 113 -57 31 -16 80 -33 107 -36 28 -3
53 -10 56 -14 7 -12 511 -12 518 0 3 5 22 12 42 16 20 3 71 24 113 44 42 21
122 62 178 90 56 28 109 51 116 51 37 0 271 110 330 155 73 55 83 59 128 41
83 -34 119 -13 175 100 21 43 50 85 68 98 40 31 111 66 131 66 24 0 165 74
221 116 105 80 144 122 144 157 0 57 -52 148 -115 203 -106 91 -140 130 -209
240 -38 60 -78 122 -89 138 -41 60 -155 169 -232 223 -44 31 -105 78 -135 103
-67 57 -184 136 -265 179 -33 17 -89 50 -125 73 -36 22 -141 70 -235 105
l-170 65 -233 5 c-128 3 -235 10 -238 14 -3 5 -53 9 -112 9 -95 -1 -110 -3
-134 -23z"/>
</g>
</svg>
