<?xml version="1.0" standalone="no"?>
<!DOCTYPE svg PUBLIC "-//W3C//DTD SVG 20010904//EN"
 "http://www.w3.org/TR/2001/REC-SVG-20010904/DTD/svg10.dtd">
<svg version="1.0" xmlns="http://www.w3.org/2000/svg"
 width="420.000000pt" height="188.000000pt" viewBox="0 0 420.000000 188.000000"
 preserveAspectRatio="xMidYMid meet">
<metadata>
Created by potrace 1.13, written by Peter Selinger 2001-2015
</metadata>
<g transform="translate(0.000000,188.000000) scale(0.100000,-0.100000)"
fill="#000000" stroke="none">
<path d="M2035 1844 c-87 -19 -244 -74 -299 -105 -10 -6 -48 -22 -84 -36 -36
-13 -77 -32 -91 -42 -29 -19 -157 -81 -168 -81 -5 0 -44 -23 -88 -50 -44 -27
-114 -67 -155 -90 -107 -57 -182 -122 -258 -223 -156 -207 -144 -197 -230
-197 -36 0 -88 6 -116 14 -28 8 -80 22 -116 31 -36 10 -76 21 -90 25 -14 5
-68 14 -120 20 l-94 12 -23 -26 c-12 -14 -27 -45 -33 -69 -6 -23 -18 -64 -25
-92 -8 -27 -17 -69 -21 -93 -4 -23 -11 -45 -15 -48 -5 -3 -9 -33 -9 -68 0 -60
2 -64 44 -111 24 -26 52 -69 62 -94 28 -76 47 -91 120 -91 53 0 78 7 175 51
259 116 292 129 336 129 24 0 56 -6 71 -14 34 -18 99 -87 140 -146 37 -55 98
-115 149 -146 95 -58 290 -143 356 -155 23 -5 69 -13 102 -19 33 -6 82 -16
108 -21 47 -11 123 -20 302 -38 50 -5 109 -14 133 -20 23 -6 60 -16 82 -21 22
-6 40 -15 40 -20 0 -6 87 -10 223 -10 179 1 226 3 241 15 12 9 42 15 73 15 34
0 66 7 90 20 21 11 48 20 61 20 38 0 95 29 138 71 49 48 88 60 165 52 49 -5
63 -2 94 17 24 15 51 23 76 22 38 -2 40 0 69 56 34 67 54 92 95 119 38 25 142
53 197 53 70 0 113 17 152 60 20 22 36 45 36 51 0 6 47 59 104 118 56 58 111
121 120 140 17 32 17 35 -4 90 -24 64 -35 80 -71 103 -49 31 -195 86 -249 93
-81 11 -182 77 -276 181 -63 69 -90 91 -148 118 -39 19 -80 44 -91 56 -29 32
-69 50 -110 50 -38 0 -95 25 -160 71 -22 15 -102 48 -179 74 -76 25 -152 53
-169 61 -34 18 -95 40 -247 90 -101 33 -111 34 -250 33 -80 -1 -154 -3 -165
-5z"/>
</g>
</svg>
