<?xml version="1.0" standalone="no"?>
<!DOCTYPE svg PUBLIC "-//W3C//DTD SVG 20010904//EN"
 "http://www.w3.org/TR/2001/REC-SVG-20010904/DTD/svg10.dtd">
<svg version="1.0" xmlns="http://www.w3.org/2000/svg"
 width="420.000000pt" height="223.000000pt" viewBox="0 0 420.000000 223.000000"
 preserveAspectRatio="xMidYMid meet">
<metadata>
Created by potrace 1.13, written by Peter Selinger 2001-2015
</metadata>
<g transform="translate(0.000000,223.000000) scale(0.100000,-0.100000)"
fill="#000000" stroke="none">
<path d="M1635 2219 c-18 -17 -86 -59 -154 -95 -87 -45 -157 -102 -261 -211
-118 -123 -156 -175 -202 -273 -22 -47 -47 -98 -55 -115 -16 -29 -27 -86 -39
-195 -4 -32 -13 -60 -22 -67 -29 -23 -145 -16 -225 13 -39 15 -115 32 -167 38
-52 7 -116 21 -141 33 -25 11 -75 23 -112 27 l-66 8 -52 -49 c-63 -59 -81 -97
-73 -156 4 -30 1 -62 -11 -97 -12 -36 -18 -88 -19 -175 l-1 -122 40 -46 c22
-25 57 -68 78 -96 43 -57 75 -70 121 -52 17 7 45 16 61 20 17 4 40 13 52 19
12 7 41 12 65 12 31 0 57 8 89 28 24 16 71 39 104 52 33 13 66 29 73 34 8 5
35 13 60 18 26 4 62 10 80 14 46 9 65 -10 59 -59 -8 -60 15 -121 70 -180 26
-29 61 -80 78 -113 22 -44 65 -95 176 -205 80 -81 160 -154 177 -163 45 -23
163 -46 237 -46 35 0 67 -4 70 -10 8 -12 97 -13 110 -1 6 5 99 14 207 20 109
7 210 16 225 21 15 4 53 11 84 14 31 3 110 19 175 36 66 16 136 30 157 30 21
0 50 6 65 14 65 33 183 65 262 71 103 9 161 40 221 121 35 47 53 60 171 120
72 36 150 78 172 92 23 14 57 29 76 33 97 19 238 62 270 82 68 41 156 109 218
169 48 46 62 66 62 88 0 20 -6 31 -20 35 -24 8 -44 41 -36 61 13 35 -47 119
-109 151 -16 9 -65 46 -108 82 -64 54 -85 80 -117 141 -41 80 -81 128 -145
175 -22 16 -65 50 -95 76 -30 25 -74 56 -96 67 -23 12 -120 74 -215 138 -185
125 -372 242 -453 283 -34 17 -63 25 -93 23 -25 -1 -67 7 -96 19 -29 11 -90
24 -137 30 -47 5 -89 14 -94 19 -12 12 -213 13 -220 1 -3 -5 -83 -12 -176 -16
-150 -6 -173 -5 -189 9 -20 18 -148 22 -166 5z"/>
</g>
</svg>
