<?xml version="1.0" standalone="no"?>
<!DOCTYPE svg PUBLIC "-//W3C//DTD SVG 20010904//EN"
 "http://www.w3.org/TR/2001/REC-SVG-20010904/DTD/svg10.dtd">
<svg version="1.0" xmlns="http://www.w3.org/2000/svg"
 width="420.000000pt" height="214.000000pt" viewBox="0 0 420.000000 214.000000"
 preserveAspectRatio="xMidYMid meet">
<metadata>
Created by potrace 1.13, written by Peter Selinger 2001-2015
</metadata>
<g transform="translate(0.000000,214.000000) scale(0.100000,-0.100000)"
fill="#000000" stroke="none">
<path d="M2166 2131 c-3 -4 -83 -11 -177 -15 -118 -5 -181 -12 -200 -22 -16
-8 -41 -14 -56 -14 -15 0 -59 -11 -97 -24 -82 -27 -185 -108 -249 -196 -22
-30 -93 -109 -157 -175 -64 -66 -134 -145 -157 -175 -22 -30 -50 -64 -62 -74
-11 -10 -34 -40 -50 -65 -17 -25 -46 -55 -66 -65 -32 -17 -42 -18 -81 -8 -24
7 -54 12 -66 12 -12 0 -85 20 -162 44 -78 25 -175 52 -216 61 -41 9 -98 23
-126 31 -91 25 -121 18 -158 -40 -34 -53 -66 -190 -66 -283 0 -34 -4 -65 -10
-68 -15 -9 -12 -92 3 -98 24 -9 77 -131 77 -176 0 -34 6 -49 29 -72 32 -31 54
-35 123 -20 143 31 187 40 218 46 19 4 53 12 75 20 22 7 103 27 180 45 77 17
154 35 171 39 44 12 76 -9 112 -71 20 -35 73 -91 152 -163 67 -60 174 -159
237 -218 63 -60 134 -122 157 -138 22 -16 59 -53 81 -82 47 -60 147 -119 232
-137 29 -6 55 -16 58 -21 8 -12 405 -12 405 1 0 14 59 43 105 50 68 12 233 59
264 75 17 8 45 15 64 15 37 0 240 68 279 94 14 9 64 59 112 110 59 65 101 101
133 116 173 79 213 106 397 267 39 35 109 89 156 120 173 116 271 199 306 259
25 42 25 44 8 76 -25 50 -110 140 -158 168 -66 39 -76 50 -113 125 -46 95
-123 171 -255 250 -59 36 -111 65 -114 65 -4 0 -37 14 -73 31 -230 110 -193
95 -376 148 -55 15 -127 35 -160 44 -33 9 -94 24 -135 35 -131 35 -181 41
-350 48 -121 4 -169 9 -181 20 -17 15 -55 19 -63 5z"/>
</g>
</svg>
