<?xml version="1.0" standalone="no"?>
<!DOCTYPE svg PUBLIC "-//W3C//DTD SVG 20010904//EN"
 "http://www.w3.org/TR/2001/REC-SVG-20010904/DTD/svg10.dtd">
<svg version="1.0" xmlns="http://www.w3.org/2000/svg"
 width="420.000000pt" height="166.000000pt" viewBox="0 0 420.000000 166.000000"
 preserveAspectRatio="xMidYMid meet">
<metadata>
Created by potrace 1.13, written by Peter Selinger 2001-2015
</metadata>
<g transform="translate(0.000000,166.000000) scale(0.100000,-0.100000)"
fill="#000000" stroke="none">
<path d="M2155 1630 c-115 -4 -223 -12 -240 -18 -16 -6 -64 -13 -105 -16 -138
-10 -498 -152 -617 -243 -24 -18 -85 -58 -135 -90 -119 -72 -192 -133 -224
-188 -14 -24 -34 -47 -45 -50 -20 -7 -97 7 -154 27 -16 6 -64 14 -105 19 -41
5 -120 21 -175 35 -55 14 -127 28 -160 31 -56 5 -63 3 -94 -23 -37 -31 -70
-95 -71 -135 0 -15 -7 -32 -15 -39 -23 -19 -20 -105 5 -130 11 -11 20 -28 20
-38 0 -10 14 -61 30 -114 26 -84 35 -99 64 -117 39 -25 83 -27 133 -6 19 8 46
15 59 15 13 0 38 6 56 14 18 7 78 31 133 52 55 21 105 41 111 46 6 4 28 14 50
21 54 19 87 5 149 -62 49 -53 96 -92 220 -182 35 -25 86 -66 114 -91 28 -25
67 -53 88 -63 21 -10 49 -26 63 -35 48 -33 175 -96 220 -109 42 -12 58 -18
150 -51 19 -7 60 -16 90 -20 30 -4 69 -13 85 -20 17 -6 73 -14 125 -17 52 -3
104 -11 116 -18 32 -20 775 -21 807 -1 12 7 59 17 104 20 45 4 100 14 122 24
57 24 187 131 242 197 9 11 25 27 35 36 10 9 27 26 36 38 24 28 34 27 67 -10
28 -30 30 -30 57 -16 16 9 49 36 74 61 49 51 147 105 255 141 127 42 154 54
204 90 27 20 56 46 65 60 21 33 20 88 -3 133 -26 50 -121 148 -196 201 -53 37
-160 117 -265 199 -19 15 -58 39 -87 54 -29 14 -79 46 -110 70 -32 25 -85 64
-118 88 -33 25 -79 61 -101 81 -63 56 -249 139 -309 138 -22 -1 -112 4 -200
10 -174 11 -297 11 -620 1z"/>
</g>
</svg>
