<?xml version="1.0" standalone="no"?>
<!DOCTYPE svg PUBLIC "-//W3C//DTD SVG 20010904//EN"
 "http://www.w3.org/TR/2001/REC-SVG-20010904/DTD/svg10.dtd">
<svg version="1.0" xmlns="http://www.w3.org/2000/svg"
 width="346.000000pt" height="311.000000pt" viewBox="0 0 346.000000 311.000000"
 preserveAspectRatio="xMidYMid meet">
<metadata>
Created by potrace 1.13, written by Peter Selinger 2001-2015
</metadata>
<g transform="translate(0.000000,311.000000) scale(0.100000,-0.100000)"
fill="#000000" stroke="none">
<path d="M243 3086 c-38 -44 -52 -186 -33 -331 31 -232 111 -434 302 -765 30
-52 80 -142 111 -200 l56 -105 -5 -90 c-6 -111 2 -129 75 -165 46 -23 79 -57
81 -82 0 -4 -19 -1 -41 7 -70 25 -106 20 -129 -17 -11 -18 -20 -40 -20 -49 0
-13 -15 -17 -72 -22 -105 -9 -144 -23 -189 -69 -35 -37 -39 -45 -39 -93 0 -39
4 -54 16 -59 31 -12 44 -5 63 32 26 50 102 102 151 102 15 0 17 -7 13 -47 -3
-27 -15 -71 -29 -98 -27 -59 -89 -135 -110 -135 -8 0 -14 -9 -14 -20 0 -20
-92 -117 -190 -202 -39 -34 -42 -40 -37 -73 7 -44 25 -62 70 -70 34 -7 36 -6
45 28 6 20 20 46 32 59 12 13 31 41 42 63 11 22 40 58 64 80 24 23 44 46 44
52 0 7 13 21 29 32 39 28 77 99 142 263 l22 57 47 -24 c76 -39 80 -45 64 -107
-8 -29 -14 -63 -14 -76 0 -30 35 -98 55 -105 11 -5 15 -21 15 -56 0 -55 16
-77 75 -106 37 -17 95 -20 95 -5 0 6 6 10 14 10 8 0 16 6 19 13 6 15 124 87
144 87 34 0 86 43 98 81 7 20 30 24 82 13 25 -5 31 -13 46 -67 34 -125 42
-185 40 -302 -3 -198 -11 -241 -61 -342 -32 -65 -39 -73 -65 -73 -40 0 -67
-17 -67 -42 0 -18 4 -20 39 -15 32 4 40 2 44 -13 3 -11 17 -20 38 -23 19 -3
46 -9 62 -12 22 -6 27 -4 27 11 0 11 -7 28 -15 38 -13 17 -13 22 0 42 8 13 15
32 15 42 0 11 6 25 14 31 8 6 16 26 20 44 3 18 10 57 17 87 19 94 21 395 3
467 -9 35 -14 68 -12 74 6 17 72 -57 80 -88 8 -28 -8 -109 -25 -130 -14 -19 0
-63 21 -63 50 0 92 84 92 182 0 73 -82 183 -157 210 -25 9 -33 18 -33 36 0 28
-28 92 -41 92 -4 0 3 12 16 26 13 14 27 34 30 44 9 29 99 33 150 6 32 -17 55
-21 115 -19 41 2 84 7 95 12 107 51 111 52 242 42 69 -6 131 -15 139 -22 8 -6
23 -9 34 -6 10 3 24 -1 30 -8 6 -8 25 -17 41 -20 20 -5 29 -13 29 -26 0 -12 7
-19 20 -19 22 0 29 39 8 41 -7 1 -2 4 12 8 28 8 42 51 16 51 -23 0 -126 51
-126 62 0 6 -13 8 -30 5 -22 -5 -30 -3 -30 8 0 15 -31 21 -44 8 -4 -4 -25 -8
-46 -8 -22 -1 -37 2 -33 6 7 6 272 59 443 89 30 6 80 14 110 20 30 5 114 24
185 41 72 17 159 38 195 46 85 19 260 91 260 107 0 5 26 34 57 64 l58 54 -2
59 c-1 68 -11 84 -67 109 -140 63 -284 85 -532 83 l-201 -2 -12 25 c-15 33
-50 45 -143 47 -43 1 -78 2 -78 3 0 2 34 24 75 50 41 26 75 51 75 55 0 8 103
59 119 59 6 0 11 5 11 10 0 6 7 10 15 10 19 0 154 67 178 88 9 8 17 24 17 35
0 15 -5 18 -25 15 -14 -3 -25 -1 -25 3 0 14 -37 10 -43 -5 -3 -7 -29 -21 -59
-31 -29 -9 -58 -21 -65 -27 -22 -18 -87 -48 -104 -48 -9 0 -27 -11 -40 -23
-13 -13 -35 -27 -49 -30 -14 -3 -44 -22 -67 -42 -26 -22 -47 -33 -57 -29 -18
7 -76 -14 -76 -27 0 -5 -6 -6 -13 -3 -9 3 13 32 61 82 62 64 202 256 202 277
0 8 17 30 63 78 20 21 37 47 37 57 0 51 -211 110 -391 111 -63 1 -139 -4 -169
-10 -59 -12 -155 -59 -250 -122 -66 -44 -70 -45 -70 -24 0 8 -4 23 -9 33 -5 9
-12 25 -15 35 -3 9 -15 21 -26 25 -20 8 -20 9 12 44 59 65 78 91 78 105 0 7 5
13 10 13 6 0 15 19 21 43 9 32 19 46 43 57 19 9 32 24 34 38 4 26 -13 29 -54
7 -39 -20 -49 -19 -72 10 -11 14 -28 25 -37 25 -14 0 -16 -6 -11 -32 10 -50 6
-101 -8 -123 -7 -11 -36 -42 -63 -70 -27 -27 -58 -63 -69 -80 -10 -16 -24 -37
-31 -45 -6 -8 -27 -35 -45 -60 -19 -25 -43 -47 -53 -49 -11 -2 -23 -8 -27 -14
-5 -8 -8 -7 -11 3 -6 19 -65 186 -79 223 -6 15 -14 27 -19 27 -5 0 -9 7 -9 14
0 22 -63 66 -93 66 -16 0 -35 -11 -53 -32 -32 -39 -74 -125 -74 -154 0 -11 -4
-24 -8 -30 -17 -18 -32 -121 -42 -274 -12 -196 -17 -240 -41 -374 -10 -60 -19
-124 -19 -143 0 -44 -25 -44 -35 0 -4 17 -8 134 -10 259 -4 227 -13 321 -41
391 -14 37 -13 40 26 124 22 47 40 90 40 95 0 6 11 19 25 30 30 24 34 58 6 58
-11 0 -23 -4 -26 -10 -12 -20 -35 -10 -35 15 0 18 -5 25 -20 25 -16 0 -20 -7
-20 -30 0 -46 -23 -120 -37 -120 -7 0 -13 -12 -14 -27 l0 -28 -12 25 c-6 14
-14 27 -17 30 -13 13 -50 70 -50 78 0 18 -194 221 -257 269 -18 14 -33 32 -33
39 0 8 -10 14 -24 14 -13 0 -49 11 -80 25 -62 27 -114 32 -133 11z"/>
</g>
</svg>
