<?xml version="1.0" standalone="no"?>
<!DOCTYPE svg PUBLIC "-//W3C//DTD SVG 20010904//EN"
 "http://www.w3.org/TR/2001/REC-SVG-20010904/DTD/svg10.dtd">
<svg version="1.0" xmlns="http://www.w3.org/2000/svg"
 width="266.000000pt" height="274.000000pt" viewBox="0 0 266.000000 274.000000"
 preserveAspectRatio="xMidYMid meet">
<metadata>
Created by potrace 1.13, written by Peter Selinger 2001-2015
</metadata>
<g transform="translate(0.000000,274.000000) scale(0.100000,-0.100000)"
fill="#000000" stroke="none">
<path d="M1100 2585 c0 -14 -6 -25 -12 -25 -12 0 -15 -22 -21 -217 -1 -24 -5
-43 -9 -43 -4 0 -4 -30 -1 -66 5 -51 3 -68 -8 -75 -9 -5 -14 -28 -15 -66 -1
-32 -8 -87 -16 -123 l-14 -65 -13 55 c-21 84 -61 197 -88 245 -51 91 -154 161
-220 149 -48 -9 -63 -39 -76 -153 l-11 -100 -35 59 c-47 76 -100 140 -117 140
-8 0 -14 8 -14 19 0 11 -12 23 -30 31 -16 7 -30 16 -30 21 0 5 -7 9 -15 9 -8
0 -15 4 -15 9 0 10 -32 23 -100 41 -25 6 -59 16 -76 21 -40 12 -94 12 -94 -1
0 -9 -19 -35 -47 -65 -16 -16 -17 -45 -3 -45 6 0 8 -11 4 -26 -16 -64 102
-356 210 -516 68 -102 175 -238 247 -316 80 -86 129 -144 129 -152 0 -25 -232
-20 -325 6 -45 13 -125 59 -133 77 -5 11 -62 9 -62 -3 0 -5 -11 -10 -25 -10
-18 0 -25 -5 -25 -20 0 -14 7 -20 23 -20 12 0 31 -7 41 -15 11 -8 27 -15 36
-15 8 0 22 -9 30 -20 8 -11 23 -20 33 -20 10 0 28 -6 40 -14 39 -23 160 -39
251 -33 81 6 86 5 97 -16 16 -31 91 -107 106 -107 7 0 10 -6 7 -14 -4 -11 -19
-13 -64 -9 -78 7 -97 1 -151 -49 -45 -42 -109 -128 -109 -145 0 -20 -81 -53
-177 -72 -56 -12 -110 -21 -121 -21 -18 0 -21 -6 -20 -50 0 -41 3 -50 18 -50
10 0 23 6 29 14 6 7 41 17 76 21 36 3 67 10 70 15 3 5 24 11 48 15 23 4 52 17
65 28 14 13 34 20 51 19 24 -2 30 3 36 25 9 37 46 100 83 141 29 32 32 33 69
23 21 -6 50 -11 66 -11 20 0 27 -5 27 -19 0 -11 3 -26 6 -35 5 -13 -2 -16 -36
-16 -55 0 -107 -26 -132 -64 -15 -25 -18 -43 -15 -93 3 -35 4 -63 3 -63 0 0
-17 5 -36 10 -49 14 -135 -12 -186 -57 -70 -61 -118 -90 -174 -103 -74 -17
-120 -52 -120 -91 0 -24 4 -29 24 -29 14 0 40 9 58 19 18 11 56 23 83 27 75
10 91 19 148 77 59 60 107 95 107 78 0 -8 15 -10 48 -5 l48 6 12 -40 c10 -33
9 -52 -3 -104 -17 -71 -20 -236 -5 -286 9 -32 8 -34 -28 -50 -20 -8 -59 -18
-87 -21 -38 -5 -51 -10 -53 -25 -6 -29 15 -36 113 -36 85 -1 92 -2 125 -30 39
-34 80 -40 80 -11 0 10 -5 33 -11 51 -11 30 -9 35 17 61 32 31 42 43 66 77 15
23 15 23 22 -17 14 -86 89 -211 128 -211 13 0 18 7 18 25 0 14 5 25 10 25 14
0 12 33 -6 102 -13 51 -13 78 -4 168 10 105 12 110 46 144 20 20 39 34 44 31
4 -2 10 -36 14 -75 6 -57 17 -90 57 -167 27 -53 49 -110 49 -125 0 -21 5 -28
20 -28 20 0 60 36 60 55 0 22 -32 119 -46 140 -8 12 -21 59 -29 105 -14 81
-33 123 -64 146 -13 10 -13 16 3 53 26 56 17 139 -18 186 -30 39 -31 45 -12
45 8 0 18 -10 21 -22 9 -31 81 -104 115 -118 26 -11 29 -20 50 -130 21 -108
27 -124 62 -166 21 -26 59 -63 83 -82 25 -19 45 -39 45 -44 0 -5 20 -30 45
-55 25 -24 45 -51 45 -59 0 -8 9 -14 20 -14 11 0 20 5 20 10 0 6 7 10 15 10
23 0 18 32 -12 69 -16 19 -71 77 -124 130 -89 89 -97 100 -104 145 -3 27 -10
58 -15 70 -30 77 -53 170 -42 174 7 2 12 12 12 23 0 15 -6 19 -28 17 -21 -1
-42 10 -80 43 -79 67 -72 74 53 49 125 -24 127 -25 153 -78 22 -44 84 -142
107 -169 42 -49 121 -123 132 -123 7 0 13 -7 13 -15 0 -8 9 -15 20 -15 11 0
20 6 20 14 0 8 7 16 15 20 18 7 20 46 3 46 -17 0 -98 74 -98 88 0 6 -9 14 -20
17 -11 3 -20 10 -20 14 0 4 -20 37 -45 74 -25 37 -41 67 -37 67 10 0 99 -28
127 -40 11 -5 63 -18 115 -30 52 -12 106 -26 120 -31 105 -36 357 -71 525 -73
93 -1 119 3 168 22 93 36 117 51 117 72 0 11 5 20 11 20 20 0 -1 71 -34 119
-52 77 -116 131 -246 209 -93 56 -95 56 -185 60 -90 4 -258 -20 -329 -47 -16
-6 -43 -11 -60 -10 -29 0 -27 2 18 15 156 47 282 87 300 94 11 5 44 19 73 31
28 12 52 28 52 35 0 8 5 14 11 14 14 0 2 84 -18 128 -19 43 -101 83 -186 91
l-59 6 55 53 c31 28 64 52 76 52 11 0 23 5 26 10 3 6 15 10 25 10 11 0 34 9
51 19 22 13 42 18 62 14 26 -5 28 -4 25 18 -2 15 -11 25 -24 27 -16 2 -20 8
-16 28 5 28 -16 32 -51 10 -12 -8 -44 -22 -72 -32 -27 -9 -61 -25 -74 -35 -13
-11 -29 -19 -36 -19 -7 0 -42 -32 -77 -71 -89 -102 -86 -99 -121 -99 -38 0
-167 -34 -217 -57 -58 -26 -98 -57 -186 -142 -77 -75 -83 -79 -77 -50 4 21 1
34 -8 39 -11 7 -9 10 6 16 46 17 186 116 212 150 15 20 36 45 46 55 9 11 17
21 17 24 0 3 10 16 23 28 33 33 95 157 108 218 6 29 20 69 29 89 10 19 21 55
25 79 4 25 14 51 21 59 18 17 18 47 0 65 -21 20 -153 30 -228 17 -37 -7 -104
-33 -167 -65 -58 -29 -121 -58 -139 -65 -31 -12 -102 -83 -102 -102 0 -5 -17
-26 -39 -48 -41 -42 -81 -116 -81 -152 0 -13 -9 -29 -19 -35 -11 -7 -32 -34
-48 -60 -21 -36 -29 -43 -31 -29 -2 10 3 37 11 60 9 22 18 68 22 101 4 36 25
108 55 180 l48 120 12 180 c6 99 15 212 20 251 6 45 6 84 0 105 -6 19 -10 46
-10 61 0 21 -5 28 -20 28 -15 0 -20 -7 -20 -25z m-400 -2155 c19 0 18 -4 -15
-69 -19 -38 -39 -72 -45 -76 -16 -10 -12 74 6 136 14 47 18 51 25 32 5 -14 17
-23 29 -23z"/>
</g>
</svg>
