<?xml version="1.0" standalone="no"?>
<!DOCTYPE svg PUBLIC "-//W3C//DTD SVG 20010904//EN"
 "http://www.w3.org/TR/2001/REC-SVG-20010904/DTD/svg10.dtd">
<svg version="1.0" xmlns="http://www.w3.org/2000/svg"
 width="266.000000pt" height="274.000000pt" viewBox="0 0 266.000000 274.000000"
 preserveAspectRatio="xMidYMid meet">
<metadata>
Created by potrace 1.13, written by Peter Selinger 2001-2015
</metadata>
<g transform="translate(0.000000,274.000000) scale(0.100000,-0.100000)"
fill="#000000" stroke="none">
<path d="M1520 2582 c0 -15 -4 -42 -10 -61 -6 -21 -6 -60 0 -105 5 -39 14
-152 20 -251 l12 -180 48 -120 c30 -72 51 -144 55 -180 4 -33 13 -79 22 -101
8 -23 13 -50 11 -60 -2 -14 -10 -7 -31 29 -16 26 -37 53 -48 60 -10 6 -19 22
-19 35 0 36 -40 110 -81 152 -22 22 -39 43 -39 48 0 19 -71 90 -102 102 -18 7
-81 36 -139 65 -63 32 -130 58 -167 65 -75 13 -207 3 -228 -17 -18 -18 -18
-48 0 -65 7 -8 17 -34 21 -59 4 -24 15 -60 25 -79 9 -20 23 -60 29 -89 13 -61
75 -185 108 -218 13 -12 23 -25 23 -28 0 -3 8 -13 18 -24 9 -10 30 -35 45 -55
26 -34 166 -133 212 -150 15 -6 17 -9 6 -16 -9 -5 -12 -18 -8 -39 6 -29 0 -25
-77 50 -88 85 -128 116 -186 142 -50 23 -179 57 -217 57 -35 0 -32 -3 -121 99
-35 39 -70 71 -77 71 -7 0 -23 8 -36 19 -13 10 -46 26 -74 35 -27 10 -60 24
-72 32 -35 22 -56 18 -51 -10 4 -20 0 -26 -16 -28 -13 -2 -22 -12 -24 -27 -3
-22 -1 -23 25 -18 20 4 40 -1 62 -14 17 -10 40 -19 51 -19 10 0 22 -4 25 -10
3 -5 15 -10 26 -10 12 0 45 -24 76 -52 l55 -53 -59 -6 c-85 -8 -167 -48 -186
-91 -20 -44 -32 -128 -18 -128 6 0 11 -6 11 -14 0 -7 24 -23 52 -35 29 -12 62
-26 73 -31 18 -7 144 -47 300 -94 45 -13 47 -15 18 -15 -17 -1 -44 4 -60 10
-71 27 -239 51 -329 47 -90 -4 -92 -4 -185 -60 -130 -78 -194 -132 -246 -209
-33 -48 -54 -119 -34 -119 6 0 11 -9 11 -20 0 -21 24 -36 117 -72 49 -19 75
-23 168 -22 168 2 420 37 525 73 14 5 68 19 120 31 52 12 104 25 115 30 28 12
117 40 127 40 4 0 -12 -30 -37 -67 -25 -37 -45 -70 -45 -74 0 -4 -9 -11 -20
-14 -11 -3 -20 -11 -20 -17 0 -14 -81 -88 -97 -88 -18 0 -16 -39 2 -46 8 -4
15 -12 15 -20 0 -8 9 -14 20 -14 11 0 20 7 20 15 0 8 6 15 13 15 11 0 90 74
132 123 23 27 85 125 107 169 26 53 28 54 153 78 125 25 132 18 53 -49 -38
-33 -59 -44 -80 -43 -22 2 -28 -2 -28 -17 0 -11 5 -21 12 -23 11 -4 -12 -97
-42 -174 -5 -12 -12 -43 -15 -70 -7 -45 -15 -56 -104 -145 -53 -53 -108 -111
-123 -130 -31 -37 -36 -69 -13 -69 8 0 15 -4 15 -10 0 -5 9 -10 20 -10 11 0
20 6 20 14 0 8 20 35 45 59 25 25 45 50 45 55 0 5 20 25 45 44 24 19 62 56 83
82 35 42 41 58 62 166 21 110 24 119 50 130 34 14 106 87 115 118 3 12 13 22
21 22 19 0 18 -6 -12 -45 -35 -47 -44 -130 -18 -186 16 -37 16 -43 3 -53 -31
-23 -50 -65 -64 -146 -8 -46 -21 -93 -29 -105 -14 -21 -46 -118 -46 -140 0
-19 40 -55 60 -55 15 0 20 7 20 28 0 15 22 72 49 125 40 77 51 110 57 167 4
39 10 73 14 75 5 3 24 -11 44 -31 34 -34 36 -39 46 -144 9 -90 9 -117 -4 -168
-18 -69 -20 -102 -6 -102 6 0 10 -11 10 -25 0 -18 5 -25 18 -25 39 0 114 125
128 211 7 40 7 40 22 17 24 -34 34 -46 66 -77 26 -26 28 -31 17 -61 -6 -18
-11 -41 -11 -51 0 -29 41 -23 80 11 33 28 40 29 125 30 98 0 119 7 113 36 -2
15 -15 20 -53 25 -28 3 -67 13 -87 21 -36 16 -37 18 -28 50 15 50 12 215 -5
286 -12 52 -13 71 -3 104 l12 40 48 -6 c33 -5 48 -3 48 5 0 17 48 -18 107 -78
57 -58 73 -67 148 -77 28 -4 65 -16 83 -27 18 -10 44 -19 58 -19 20 0 24 5 24
29 0 39 -46 74 -120 91 -56 13 -104 42 -174 103 -51 45 -137 71 -186 57 -19
-5 -36 -10 -36 -10 -1 0 0 28 3 63 3 50 0 68 -15 93 -25 38 -77 64 -132 64
-34 0 -41 3 -36 16 3 9 6 24 6 35 0 14 7 19 28 19 15 0 44 5 65 11 37 10 40 9
69 -23 37 -41 74 -104 83 -141 6 -22 12 -27 36 -25 17 1 37 -6 51 -19 13 -11
42 -24 65 -28 24 -4 45 -10 48 -15 3 -5 34 -12 70 -15 35 -4 70 -14 76 -21 6
-8 19 -14 29 -14 15 0 18 9 18 50 1 44 -2 50 -20 50 -11 0 -65 9 -121 21 -96
19 -177 52 -177 72 0 17 -64 103 -109 145 -54 50 -73 56 -151 49 -45 -4 -60
-2 -64 9 -3 8 0 14 7 14 15 0 90 76 106 107 11 21 16 22 97 16 91 -6 212 10
251 33 12 8 30 14 40 14 10 0 25 9 33 20 8 11 22 20 30 20 9 0 25 7 36 15 10
8 29 15 42 15 15 0 22 6 22 20 0 15 -7 20 -25 20 -14 0 -25 5 -25 10 0 12 -57
14 -62 3 -8 -18 -88 -64 -133 -77 -93 -26 -325 -31 -325 -6 0 8 49 66 129 152
72 78 179 214 247 316 108 160 226 452 210 516 -4 15 -2 26 4 26 14 0 13 29
-2 45 -29 30 -48 56 -48 65 0 13 -54 13 -94 1 -17 -5 -51 -15 -76 -21 -68 -18
-100 -31 -100 -41 0 -5 -7 -9 -15 -9 -8 0 -15 -4 -15 -9 0 -5 -13 -14 -30 -21
-18 -8 -30 -20 -30 -31 0 -11 -6 -19 -14 -19 -17 0 -70 -64 -117 -140 l-35
-59 -11 100 c-13 114 -28 144 -76 153 -66 12 -169 -58 -220 -149 -27 -48 -67
-161 -88 -245 l-13 -55 -14 65 c-8 36 -15 91 -16 123 -1 38 -6 61 -15 66 -11
7 -13 24 -8 75 3 36 3 66 -1 66 -4 0 -8 19 -9 43 -6 195 -9 217 -20 217 -7 0
-13 11 -13 25 0 18 -5 25 -20 25 -15 0 -20 -7 -20 -28z m508 -2241 c6 -80 -5
-76 -53 20 -34 66 -34 69 -14 69 13 0 23 8 27 22 5 21 7 20 20 -12 8 -19 17
-64 20 -99z"/>
</g>
</svg>
