<?xml version="1.0" standalone="no"?>
<!DOCTYPE svg PUBLIC "-//W3C//DTD SVG 20010904//EN"
 "http://www.w3.org/TR/2001/REC-SVG-20010904/DTD/svg10.dtd">
<svg version="1.0" xmlns="http://www.w3.org/2000/svg"
 width="222.000000pt" height="223.000000pt" viewBox="0 0 222.000000 223.000000"
 preserveAspectRatio="xMidYMid meet">
<metadata>
Created by potrace 1.13, written by Peter Selinger 2001-2015
</metadata>
<g transform="translate(0.000000,223.000000) scale(0.100000,-0.100000)"
fill="#000000" stroke="none">
<path d="M1070 2189 c0 -6 47 -107 105 -223 95 -192 145 -309 145 -341 0 -19
-59 -25 -69 -7 -11 19 -93 11 -115 -11 -19 -19 -21 -58 -4 -75 9 -9 7 -12 -12
-12 -14 0 -32 -4 -39 -9 -10 -7 -24 -3 -43 11 l-28 20 32 41 c39 51 87 97 99
97 5 0 9 9 9 20 0 15 -7 20 -25 20 -20 0 -26 7 -36 40 -7 22 -20 48 -31 59
-10 11 -18 24 -18 29 0 6 -6 22 -14 38 -10 19 -12 33 -5 45 20 38 12 47 -46
48 -48 0 -55 -2 -55 -19 0 -11 5 -20 10 -20 6 0 10 -20 10 -45 0 -31 5 -47 15
-51 8 -4 15 -13 15 -22 0 -16 47 -91 65 -104 7 -5 6 -8 -1 -8 -13 0 -94 -140
-94 -163 0 -9 -7 -17 -15 -17 -26 0 -16 -39 21 -80 35 -38 35 -40 13 -40 -13
0 -33 7 -43 15 -40 30 -136 10 -242 -49 -52 -29 -102 -34 -110 -11 -4 8 -18
15 -33 15 -14 0 -30 4 -36 8 -21 15 -53 99 -48 125 5 24 2 27 -21 27 -16 0
-26 -5 -26 -15 0 -10 -10 -15 -30 -15 -23 0 -30 -4 -30 -20 0 -11 7 -20 15
-20 8 0 15 -8 15 -18 0 -11 9 -27 20 -37 11 -10 20 -24 20 -31 0 -6 12 -22 26
-35 14 -13 33 -32 42 -41 11 -12 31 -18 59 -18 75 0 55 -17 -30 -24 -226 -19
-379 -139 -470 -368 -36 -88 -35 -95 13 -109 28 -9 40 -18 40 -31 0 -15 9 -18
53 -20 100 -3 162 4 231 28 38 13 70 24 71 24 7 0 -24 -101 -38 -127 -21 -39
-124 -143 -141 -143 -7 0 -41 -12 -76 -26 -41 -17 -66 -22 -68 -15 -2 6 -12
11 -23 11 -23 0 -26 -41 -4 -60 8 -7 15 -23 15 -36 0 -17 6 -24 20 -24 11 0
20 7 20 15 0 9 9 15 23 15 12 0 33 9 47 20 14 11 33 20 42 20 9 0 20 5 23 10
4 6 22 17 41 25 19 8 34 19 34 24 0 6 9 11 21 11 12 0 23 8 26 20 3 11 8 20
12 20 4 0 18 22 32 50 13 27 27 50 32 50 4 0 7 7 7 15 0 8 5 15 10 15 14 0 12
-16 -6 -52 -30 -58 -54 -143 -54 -193 0 -41 -6 -57 -31 -88 -23 -28 -29 -44
-25 -62 3 -13 2 -27 -4 -30 -19 -12 -11 -45 10 -45 15 0 20 -7 20 -26 0 -23 3
-26 25 -22 14 3 28 1 31 -3 10 -16 43 -9 54 11 7 13 21 20 38 20 24 0 29 6 39
43 11 41 13 42 51 42 34 0 48 9 108 62 38 34 70 60 72 58 2 -2 -9 -22 -25 -46
-27 -42 -28 -46 -29 -187 l0 -144 23 5 c12 2 28 -2 34 -9 17 -21 49 -17 49 5
0 10 -6 24 -14 30 -8 7 -15 45 -19 109 -5 90 -4 101 20 154 14 32 30 58 34 58
5 0 25 18 45 40 20 22 40 40 44 40 4 0 10 -40 13 -88 10 -133 26 -203 67 -282
16 -32 22 -35 65 -38 40 -3 50 1 69 22 12 14 25 26 28 26 15 0 58 48 58 64 0
9 7 19 15 23 21 8 83 142 107 233 26 94 27 257 4 423 -18 134 -19 142 -5 107
6 -13 13 -59 16 -102 3 -43 9 -78 14 -78 4 0 10 -8 13 -18 4 -10 30 -43 59
-74 51 -54 80 -68 189 -94 15 -3 29 -12 32 -20 3 -8 15 -14 26 -14 14 0 20 7
20 23 0 12 9 28 20 35 25 16 27 52 2 52 -10 0 -22 -4 -28 -10 -6 -6 -19 -5
-36 4 -15 8 -42 14 -61 14 -37 0 -96 37 -136 85 -18 21 -27 49 -33 96 -9 76
-45 185 -67 206 -57 50 -73 67 -69 71 6 6 58 -19 58 -28 0 -5 9 -8 20 -8 12 0
20 7 20 18 0 10 16 26 36 37 20 11 53 40 73 65 20 25 40 48 45 51 5 4 6 17 3
29 -5 19 -3 21 16 15 12 -4 32 -9 45 -12 12 -3 22 -9 22 -14 0 -5 9 -9 20 -9
11 0 28 -4 38 -9 9 -5 38 -17 65 -26 26 -9 47 -21 47 -26 0 -5 9 -9 20 -9 11
0 20 7 20 15 0 8 7 15 15 15 8 0 15 9 15 20 0 11 -7 20 -15 20 -8 0 -15 4 -15
8 0 11 -67 39 -113 47 -20 4 -54 16 -74 26 -39 20 -73 23 -136 12 -32 -5 -42
-12 -55 -42 -23 -50 -71 -111 -88 -111 -10 0 -11 6 -4 26 6 14 10 36 10 50 0
18 5 24 23 24 40 0 51 15 51 71 0 44 -4 55 -28 75 -58 51 -6 82 139 83 50 0
131 -6 180 -15 204 -34 273 -44 333 -44 59 0 62 1 62 24 0 16 -8 27 -27 35
-40 15 -113 30 -151 31 -20 0 -35 6 -38 15 -7 17 -54 21 -54 4 0 -7 -9 -9 -22
-5 -13 4 -79 13 -148 22 -134 17 -241 12 -298 -12 -31 -12 -36 -12 -61 7 -23
17 -30 33 -39 84 -6 35 -24 92 -41 126 -17 35 -31 68 -31 72 0 11 -78 168
-108 217 -12 19 -31 52 -42 73 -18 32 -25 37 -55 37 -19 0 -35 -5 -35 -11z
m-230 -819 c0 -5 -8 -10 -17 -10 -15 0 -16 2 -3 10 19 12 20 12 20 0z m367
-405 c-20 -44 -37 -51 -37 -15 0 14 42 60 55 60 1 0 -7 -20 -18 -45z m-587
-70 c0 -3 -8 -14 -17 -24 -9 -11 -27 -46 -40 -78 -28 -69 -48 -93 -40 -48 13
75 28 110 54 131 27 22 43 29 43 19z m595 -48 c-8 -21 -20 -37 -25 -37 -13 0
-13 17 1 25 5 4 15 18 20 32 5 14 12 24 14 21 3 -3 -2 -21 -10 -41z m-25 -81
c0 -3 -4 -8 -10 -11 -5 -3 -10 -1 -10 4 0 6 5 11 10 11 6 0 10 -2 10 -4z
m-164 -153 c-7 -27 -31 -53 -48 -53 -7 0 43 79 51 80 2 0 0 -12 -3 -27z m59
-120 c-10 -57 -15 -73 -26 -73 -5 0 -9 -7 -9 -17 0 -9 -3 -13 -7 -10 -3 4 -1
24 5 44 6 21 14 50 17 66 9 42 27 33 20 -10z"/>
</g>
</svg>
