<?xml version="1.0" standalone="no"?>
<!DOCTYPE svg PUBLIC "-//W3C//DTD SVG 20010904//EN"
 "http://www.w3.org/TR/2001/REC-SVG-20010904/DTD/svg10.dtd">
<svg version="1.0" xmlns="http://www.w3.org/2000/svg"
 width="240.000000pt" height="236.000000pt" viewBox="0 0 240.000000 236.000000"
 preserveAspectRatio="xMidYMid meet">
<metadata>
Created by potrace 1.13, written by Peter Selinger 2001-2015
</metadata>
<g transform="translate(0.000000,236.000000) scale(0.100000,-0.100000)"
fill="#000000" stroke="none">
<path d="M1341 2321 c-12 -16 -21 -32 -21 -35 0 -4 -9 -19 -19 -34 -29 -40
-77 -206 -87 -299 -7 -63 -7 -63 -39 -63 -70 0 -87 -53 -86 -273 1 -92 -1
-178 -5 -191 l-6 -24 -56 30 c-31 17 -61 34 -67 38 -23 18 -232 102 -355 143
-19 6 -41 17 -48 24 -7 7 -27 13 -43 13 -24 0 -29 -4 -29 -25 0 -17 6 -25 18
-26 10 0 12 -3 5 -6 -7 -2 -13 -13 -13 -24 0 -15 7 -19 36 -19 40 0 113 -18
128 -32 6 -4 20 -8 33 -8 13 0 23 -4 23 -10 0 -5 13 -10 30 -10 16 0 33 -6 37
-13 4 -7 37 -24 73 -37 85 -31 121 -50 98 -50 -11 0 -18 -8 -18 -20 0 -15 7
-20 26 -20 14 0 49 -7 77 -15 45 -13 55 -21 75 -58 12 -24 40 -54 61 -68 l39
-25 -39 -11 c-21 -6 -39 -6 -39 -2 0 5 -7 9 -15 9 -8 0 -15 6 -15 14 0 14 -52
32 -67 23 -5 -3 -74 3 -153 14 -89 12 -172 17 -215 14 -106 -8 -407 -18 -522
-17 -95 0 -103 -1 -103 -19 0 -10 5 -19 10 -19 6 0 10 -11 10 -25 0 -28 13
-31 56 -15 20 8 29 8 35 -1 6 -10 16 -10 46 -1 21 7 85 14 143 17 58 2 156 7
218 11 110 7 112 6 112 -15 0 -22 33 -30 45 -11 7 11 187 14 248 4 39 -7 48
-19 20 -28 -44 -13 -243 -28 -403 -30 -163 -3 -223 -11 -293 -38 -23 -9 -28
-16 -24 -35 2 -12 0 -23 -6 -23 -17 0 -161 51 -171 61 -6 5 -25 9 -43 9 -27 0
-33 -4 -33 -22 0 -27 41 -64 81 -73 16 -4 31 -11 34 -16 4 -5 16 -9 29 -9 12
0 26 -4 32 -9 8 -9 78 -24 174 -38 19 -3 46 -13 60 -22 36 -24 189 -71 231
-71 28 0 38 -5 42 -20 5 -18 0 -20 -41 -20 -65 -1 -133 -15 -142 -30 -10 -17
-217 -17 -233 -1 -19 19 -47 13 -47 -9 0 -11 -4 -20 -10 -20 -5 0 -10 -8 -10
-19 0 -23 50 -31 202 -31 105 0 195 16 242 41 10 6 68 13 130 16 113 5 161 15
254 52 29 12 64 21 77 21 14 0 25 5 25 10 0 6 7 10 15 10 8 0 15 6 15 13 0 7
9 20 20 30 11 9 20 24 20 34 0 9 3 13 7 9 4 -3 6 -27 4 -52 -1 -25 3 -51 9
-58 8 -10 -14 -38 -86 -115 -53 -55 -101 -101 -108 -101 -6 0 -17 -9 -24 -20
-6 -11 -44 -36 -83 -56 -39 -19 -81 -44 -92 -55 -11 -10 -31 -19 -44 -19 -32
0 -33 -40 0 -41 12 0 16 -3 10 -6 -7 -2 -13 -13 -13 -24 0 -25 34 -25 58 -1
10 10 25 21 33 24 8 3 56 36 107 72 50 36 96 66 102 66 5 0 10 4 10 8 0 13
146 162 158 162 6 0 18 -21 27 -47 40 -111 88 -199 131 -241 43 -41 48 -44 95
-40 l50 3 32 -60 c18 -33 39 -67 47 -77 8 -9 33 -38 55 -64 84 -98 142 -138
218 -151 27 -4 39 -1 57 17 20 20 22 30 18 104 -3 49 -15 115 -32 168 -27 86
-54 143 -214 449 -45 86 -82 158 -82 160 0 7 84 0 140 -12 30 -6 79 -22 108
-35 84 -38 265 -67 353 -57 39 5 49 10 49 24 0 11 -4 19 -10 19 -5 0 -10 10
-10 21 0 18 -4 20 -27 14 -67 -16 -93 -16 -125 -1 -18 10 -43 14 -58 11 -14
-3 -42 1 -63 10 -20 8 -52 15 -71 15 -37 0 -57 16 -32 26 23 9 20 44 -2 44
-10 0 -44 -5 -76 -11 -51 -11 -64 -10 -126 11 l-69 23 27 24 c22 19 38 23 90
23 34 0 62 4 62 10 0 6 5 10 10 10 6 0 21 11 34 25 13 14 30 25 39 25 8 0 66
-20 129 -44 129 -51 228 -70 306 -61 47 6 53 9 50 28 -3 20 -9 22 -68 23 -62
1 -184 27 -205 44 -5 4 -41 17 -80 29 -112 36 -124 42 -118 57 3 7 0 27 -6 44
-9 28 -6 36 34 94 25 35 45 69 45 75 0 6 3 11 8 11 4 0 16 16 26 35 11 19 25
35 33 35 7 0 13 5 13 11 0 17 83 88 103 89 10 0 17 8 17 20 0 25 -47 27 -91 4
-43 -22 -159 -158 -175 -206 -4 -10 -10 -18 -15 -18 -5 0 -9 -5 -9 -11 0 -6
-6 -17 -12 -24 -7 -8 -18 -21 -25 -29 -9 -11 -21 -12 -50 -5 -86 20 -173 2
-173 -36 -1 -19 -1 -19 -15 -1 -9 12 -22 17 -35 13 -24 -6 -26 5 -5 23 8 7 15
18 15 25 0 6 27 20 60 30 43 13 60 23 60 35 0 16 33 55 76 91 10 8 35 34 55
57 29 33 44 42 68 42 24 0 31 4 31 20 0 11 5 20 10 20 6 0 10 11 10 25 0 18
-5 25 -19 25 -11 0 -23 -4 -26 -10 -3 -5 -19 -10 -34 -10 -21 0 -49 -20 -114
-80 -47 -45 -89 -89 -92 -100 -3 -10 -30 -30 -59 -43 -30 -14 -62 -33 -73 -43
-55 -55 -53 -62 -47 133 3 98 9 196 14 218 17 76 23 307 10 374 -16 86 -48
170 -76 198 -34 34 -87 32 -113 -6z m-283 -1461 c-7 -11 -29 -23 -48 -26 -19
-3 -57 -12 -84 -20 -54 -15 -172 -19 -180 -6 -3 5 65 21 152 36 86 15 159 29
161 32 11 10 10 2 -1 -16z"/>
</g>
</svg>
