<?xml version="1.0" standalone="no"?>
<!DOCTYPE svg PUBLIC "-//W3C//DTD SVG 20010904//EN"
 "http://www.w3.org/TR/2001/REC-SVG-20010904/DTD/svg10.dtd">
<svg version="1.0" xmlns="http://www.w3.org/2000/svg"
 width="305.000000pt" height="289.000000pt" viewBox="0 0 305.000000 289.000000"
 preserveAspectRatio="xMidYMid meet">
<metadata>
Created by potrace 1.13, written by Peter Selinger 2001-2015
</metadata>
<g transform="translate(0.000000,289.000000) scale(0.100000,-0.100000)"
fill="#000000" stroke="none">
<path d="M1730 2813 c0 -32 -19 -88 -50 -151 -11 -23 -23 -57 -26 -75 -4 -17
-13 -37 -20 -43 -15 -12 -64 -112 -64 -132 0 -8 -13 -32 -30 -55 -16 -23 -44
-80 -61 -126 -33 -87 -82 -168 -143 -235 -33 -36 -60 -86 -192 -348 l-41 -81
-6 71 c-3 39 -3 136 0 215 5 128 3 156 -17 243 -12 55 -29 108 -36 119 -8 11
-14 26 -14 35 -1 36 -154 332 -189 364 -30 28 -81 15 -106 -27 -39 -66 -37
-159 10 -402 5 -22 -4 -12 -31 35 -36 64 -103 170 -114 180 -3 3 -14 21 -24
40 -20 35 -109 144 -157 190 -113 110 -164 141 -251 154 -41 6 -49 4 -72 -19
-14 -14 -32 -48 -41 -77 -17 -58 -10 -123 26 -243 11 -38 23 -79 26 -90 3 -11
11 -34 19 -52 8 -17 14 -36 14 -41 0 -6 3 -12 8 -14 4 -1 19 -28 34 -58 28
-56 66 -125 81 -144 4 -6 29 -45 55 -86 25 -41 50 -79 54 -85 11 -13 198 -261
223 -295 11 -15 40 -47 64 -71 96 -98 184 -257 163 -295 -6 -10 -37 -15 -110
-19 -102 -4 -177 -20 -230 -49 -42 -22 -173 -48 -249 -48 -80 0 -183 27 -183
48 0 8 -10 14 -21 14 -20 0 -21 -3 -15 -52 4 -29 8 -53 9 -54 7 -7 195 -24
256 -24 71 0 185 23 206 41 5 5 21 9 36 9 14 0 57 10 95 23 38 12 84 21 102
19 29 -3 31 -5 17 -18 -8 -9 -15 -23 -15 -32 0 -14 -12 -17 -75 -19 -79 -3
-113 -17 -149 -62 -11 -13 -44 -49 -74 -80 -29 -31 -64 -66 -75 -79 -23 -24
-30 -24 -136 -5 -32 5 -34 5 -29 -21 4 -22 2 -26 -18 -26 -33 0 -54 10 -54 26
0 8 -9 14 -20 14 -16 0 -20 -7 -20 -32 0 -18 -9 -44 -20 -58 -43 -55 -9 -82
41 -34 26 25 30 26 79 15 81 -17 123 -14 164 14 30 20 49 25 99 25 35 0 101
11 152 25 114 31 126 31 164 -4 33 -31 86 -46 130 -36 25 5 29 2 45 -33 10
-21 46 -65 82 -97 49 -45 65 -67 70 -94 8 -49 26 -101 35 -101 4 0 11 -15 14
-33 9 -41 47 -131 57 -135 4 -2 8 -11 8 -19 0 -9 11 -30 24 -47 32 -43 67
-124 55 -131 -5 -4 -9 -15 -9 -26 0 -23 21 -25 58 -5 15 7 41 18 57 22 21 7
31 17 33 33 4 22 1 23 -32 17 -30 -6 -37 -4 -42 11 -3 10 -19 45 -36 78 -17
33 -36 71 -42 84 -6 14 -25 52 -42 85 -17 34 -34 83 -38 109 -7 48 -7 49 16
41 54 -17 97 -24 156 -24 63 0 63 0 60 27 -3 30 -11 34 -112 52 -87 16 -144
46 -161 87 -30 73 -29 100 4 154 17 28 31 56 31 63 1 14 24 47 34 47 4 0 2 -9
-4 -19 -16 -31 -12 -58 16 -103 30 -47 121 -138 139 -138 7 0 20 -9 30 -20 10
-11 24 -20 31 -20 7 0 14 -3 16 -7 2 -5 19 -17 40 -28 89 -49 154 -90 161
-102 4 -7 15 -13 23 -13 9 0 48 -16 87 -35 39 -19 77 -35 84 -35 7 0 13 -4 13
-10 0 -5 9 -10 20 -10 13 0 20 7 20 20 0 11 7 23 15 26 8 4 15 17 15 31 0 22
-3 25 -27 20 -32 -6 -143 32 -168 56 -9 10 -23 17 -31 17 -17 0 -157 80 -162
93 -2 4 -21 16 -43 27 -21 11 -55 35 -75 53 -38 32 -104 127 -104 147 0 6 11
28 25 48 14 20 25 45 25 54 0 13 8 18 26 18 25 0 216 -59 259 -80 28 -14 188
-65 260 -84 97 -25 202 -44 325 -61 63 -9 158 -23 210 -33 167 -29 404 -17
444 24 8 8 20 14 26 14 37 0 53 83 27 142 -19 44 -133 164 -169 178 -18 8 -35
16 -38 20 -3 3 -48 20 -101 38 -176 58 -476 85 -724 64 -170 -15 -401 -26
-395 -19 3 3 91 13 195 22 289 24 554 55 618 70 85 21 160 59 176 88 14 27 8
79 -12 95 -29 24 -128 42 -263 48 -151 7 -159 12 -66 40 29 9 65 22 80 30 15
8 31 14 35 14 16 0 242 93 247 101 3 4 30 15 60 23 52 13 105 35 140 56 8 6
29 16 46 24 17 8 35 19 38 25 4 6 20 11 37 11 18 0 29 5 29 13 0 8 19 20 43
26 23 7 48 18 55 23 6 6 27 14 45 17 24 5 33 13 35 30 3 21 0 23 -22 19 -20
-4 -26 -1 -26 13 0 12 -7 19 -20 19 -11 0 -20 -6 -20 -14 0 -8 -22 -22 -50
-32 -27 -10 -50 -21 -50 -24 0 -4 -24 -17 -52 -30 -93 -41 -143 -65 -148 -72
-3 -3 -19 -10 -35 -14 -17 -4 -54 -18 -83 -31 -29 -13 -59 -23 -67 -23 -8 0
-56 -20 -107 -44 -134 -64 -167 -76 -183 -69 -17 6 -40 -3 -153 -54 -39 -18
-74 -33 -77 -33 -3 0 -61 -27 -128 -59 -67 -33 -147 -69 -177 -80 -54 -20 -54
-20 -30 -1 14 11 61 41 105 67 46 28 119 85 175 139 52 51 111 105 130 120 19
16 37 31 40 34 3 3 25 21 50 40 53 41 78 61 94 75 6 6 31 26 56 45 25 19 47
37 50 40 3 3 28 23 55 44 28 22 59 49 70 61 11 12 49 46 85 76 35 30 73 62 85
72 11 10 36 28 55 40 19 12 40 26 45 32 6 7 33 29 60 51 28 21 52 41 55 44 3
3 32 25 65 49 69 51 75 58 75 89 0 18 -6 22 -28 22 -16 0 -38 -8 -50 -17 -54
-47 -63 -53 -72 -53 -6 0 -10 -4 -10 -9 0 -4 -17 -20 -37 -34 -34 -23 -64 -46
-113 -90 -8 -7 -35 -26 -60 -42 -48 -32 -59 -41 -134 -105 -27 -23 -61 -49
-75 -58 -24 -16 -78 -61 -124 -105 -10 -10 -21 -17 -23 -14 -2 2 23 33 57 68
56 59 98 126 99 157 0 7 21 42 48 78 26 35 64 88 85 117 63 86 208 238 243
254 26 13 34 24 39 56 10 56 -16 82 -73 72 -40 -6 -48 -13 -136 -115 -7 -8
-33 -38 -57 -66 -24 -28 -66 -77 -94 -109 -27 -33 -61 -72 -75 -88 l-26 -29 4
39 c3 30 -2 44 -22 66 -31 33 -33 74 -11 160 19 74 19 77 -4 77 -11 0 -64 -44
-124 -102 -57 -57 -136 -131 -176 -166 -42 -38 -74 -74 -77 -90 -4 -15 -20
-52 -35 -82 -16 -30 -29 -69 -29 -87 0 -27 -4 -32 -29 -38 -35 -8 -86 -56
-109 -104 -8 -19 -29 -41 -46 -50 -16 -9 -49 -36 -72 -59 -22 -24 -59 -52 -82
-62 -22 -10 -48 -30 -57 -44 -10 -14 -21 -26 -26 -26 -5 0 -17 -7 -26 -16 -10
-8 -38 -29 -61 -45 -24 -17 -51 -44 -60 -61 -19 -35 -62 -81 -70 -74 -4 4 40
91 107 209 11 21 21 42 21 48 0 5 30 47 68 93 72 90 122 179 146 263 8 29 26
68 40 86 14 19 26 40 26 47 0 7 29 73 65 147 36 73 65 137 65 142 0 5 9 29 19
54 17 39 22 44 45 40 21 -4 26 -2 26 16 0 23 -35 37 -69 26 -15 -5 -21 -2 -21
9 0 9 -9 16 -20 16 -15 0 -20 -7 -20 -27z"/>
</g>
</svg>
