<?xml version="1.0" standalone="no"?>
<!DOCTYPE svg PUBLIC "-//W3C//DTD SVG 20010904//EN"
 "http://www.w3.org/TR/2001/REC-SVG-20010904/DTD/svg10.dtd">
<svg version="1.0" xmlns="http://www.w3.org/2000/svg"
 width="257.000000pt" height="147.000000pt" viewBox="0 0 257.000000 147.000000"
 preserveAspectRatio="xMidYMid meet">
<metadata>
Created by potrace 1.13, written by Peter Selinger 2001-2015
</metadata>
<g transform="translate(0.000000,147.000000) scale(0.100000,-0.100000)"
fill="#000000" stroke="none">
<path d="M1268 1443 c-10 -2 -18 -8 -18 -13 0 -5 -8 -11 -19 -15 -33 -10 -62
-42 -72 -79 -5 -20 -15 -36 -20 -36 -37 0 -66 -83 -48 -134 15 -40 2 -101 -21
-101 -16 0 -67 130 -69 173 -1 14 -10 26 -26 32 -14 5 -25 16 -25 23 0 12 -26
50 -47 69 -5 3 -21 18 -36 32 -15 14 -34 26 -42 26 -8 0 -17 5 -20 10 -3 6
-15 10 -26 10 -10 0 -19 -4 -19 -10 0 -5 -11 -10 -25 -10 -46 0 -30 -33 28
-59 53 -24 106 -67 107 -87 0 -5 13 -20 29 -31 15 -12 31 -35 34 -52 10 -48
86 -199 120 -238 l32 -36 -30 15 c-76 39 -204 97 -240 109 -22 7 -45 17 -51
21 -7 5 -40 15 -75 23 -35 7 -100 23 -144 33 -118 29 -213 42 -312 42 -113 0
-154 -12 -192 -56 -27 -30 -31 -42 -31 -93 0 -38 5 -63 14 -70 7 -6 16 -25 19
-40 6 -30 86 -101 113 -101 8 0 14 -4 14 -9 0 -5 15 -15 34 -21 19 -6 36 -14
38 -18 11 -26 252 -88 434 -112 91 -12 121 -11 179 7 29 10 30 9 30 -23 0 -18
-4 -36 -8 -40 -4 -4 -5 -28 -2 -53 4 -30 1 -51 -7 -61 -15 -17 -75 -40 -106
-40 -12 0 -22 -4 -22 -10 0 -5 -11 -12 -25 -16 -14 -3 -25 -10 -25 -14 0 -4
-11 -5 -25 -2 -20 3 -25 0 -25 -17 0 -11 4 -21 9 -21 5 0 17 -7 26 -17 16 -15
20 -15 68 2 29 10 78 31 111 46 l58 28 -7 -46 c-9 -63 -56 -160 -98 -204 -28
-29 -40 -36 -62 -31 -24 4 -26 2 -23 -19 2 -20 10 -25 41 -27 20 -2 37 -7 37
-13 0 -24 39 -6 56 26 10 19 21 35 25 35 4 0 12 13 19 30 7 16 16 30 21 30 5
0 9 9 9 20 0 11 3 20 8 20 8 0 29 74 42 153 18 97 24 103 68 60 17 -17 22 -28
14 -31 -7 -2 -12 -12 -12 -23 0 -10 -4 -19 -10 -19 -5 0 -10 -9 -10 -20 0 -11
7 -20 15 -20 9 0 19 -8 22 -17 4 -10 13 -24 20 -31 7 -7 13 -30 13 -50 0 -49
10 -60 80 -94 14 -7 28 -17 31 -22 4 -5 19 -6 33 -2 15 4 26 2 26 -4 0 -5 9
-10 20 -10 11 0 20 4 20 9 0 14 90 61 117 61 22 0 25 4 21 25 -4 18 -1 25 10
25 10 0 13 7 10 24 -3 14 -1 31 3 38 7 10 9 10 9 1 0 -7 9 -13 20 -13 23 0 23
-1 9 73 -11 63 3 127 28 127 7 0 13 6 13 13 0 8 4 7 10 -3 14 -21 12 -137 -2
-178 -10 -28 -10 -36 0 -39 6 -3 12 -12 12 -22 0 -9 18 -45 40 -79 22 -33 40
-65 40 -70 0 -15 33 -38 80 -55 59 -22 70 -21 70 3 0 22 -37 70 -55 70 -14 0
-36 27 -60 76 -10 21 -25 46 -33 55 -10 13 -11 35 -6 92 l7 75 45 -52 c25 -28
56 -58 68 -66 13 -8 24 -20 24 -27 0 -7 3 -13 8 -13 4 0 16 -14 27 -30 11 -16
26 -30 33 -30 6 0 12 -7 12 -15 0 -8 9 -15 20 -15 11 0 20 7 20 15 0 8 7 15
15 15 8 0 15 9 15 20 0 11 -6 20 -14 20 -7 0 -22 12 -31 27 -10 14 -33 41 -51
60 -19 19 -34 37 -35 41 0 4 -25 27 -56 52 l-55 45 -2 65 c-2 36 -6 85 -11
109 -7 37 -6 43 6 35 79 -51 292 -44 489 15 118 36 140 44 158 61 10 10 27 20
38 24 10 3 37 22 59 42 22 20 50 43 63 51 12 8 22 24 22 34 0 11 4 19 8 19 5
0 16 16 25 36 29 61 6 124 -59 156 -64 33 -354 48 -354 18 0 -4 -8 -6 -19 -3
-18 5 -100 -16 -241 -62 -205 -67 -260 -85 -265 -85 -6 0 25 61 36 70 3 3 9
23 12 44 4 22 12 43 18 47 7 4 9 17 5 33 -6 26 9 64 31 79 7 4 18 13 25 20 7
7 28 20 46 28 17 7 32 17 32 21 0 11 56 38 80 38 13 0 20 7 20 20 0 11 -7 20
-15 20 -11 0 -13 8 -9 30 9 42 -13 39 -78 -10 -29 -22 -63 -43 -75 -46 -13 -4
-23 -10 -23 -15 0 -5 -5 -9 -10 -9 -6 0 -31 -21 -56 -47 -40 -43 -46 -54 -55
-117 -9 -68 -16 -84 -58 -136 -21 -26 -25 -21 -21 28 1 12 -3 22 -8 22 -17 0
-23 32 -12 66 14 41 -2 109 -30 127 -11 6 -20 20 -20 29 0 10 -4 18 -10 18 -5
0 -10 5 -10 11 0 14 -56 69 -70 69 -5 0 -10 6 -10 14 0 20 -41 30 -82 19z
m-28 -98 c-13 -14 -26 -23 -28 -20 -3 3 5 16 18 30 13 14 26 23 28 20 3 -3 -5
-16 -18 -30z m130 -14 c0 -11 -7 -8 -25 13 -31 37 -31 41 0 20 14 -9 25 -24
25 -33z m-23 -83 c-3 -8 -6 -5 -6 6 -1 11 2 17 5 13 3 -3 4 -12 1 -19z m-914
-208 c40 -11 104 -26 142 -34 143 -30 149 -34 50 -35 -49 -1 -121 -6 -160 -10
-38 -4 -85 -4 -103 1 -28 8 -31 12 -22 28 5 10 10 30 10 44 0 31 -5 31 83 6z
m1908 -18 c-38 -49 -61 -69 -61 -53 0 6 -9 11 -20 11 -11 0 -20 -4 -20 -10 0
-11 -128 -14 -154 -4 -17 7 -22 34 -6 34 6 0 10 -4 10 -10 0 -5 9 -10 20 -10
11 0 20 6 20 14 0 8 8 17 18 19 68 18 114 28 162 36 30 5 57 9 58 10 2 0 -10
-16 -27 -37z m160 16 c10 -13 18 -30 18 -38 0 -11 -2 -11 -10 3 -6 10 -25 27
-42 38 -30 18 -30 19 -9 19 13 0 32 -10 43 -22z m-1716 -126 l40 -9 -72 -16
c-40 -9 -81 -17 -92 -17 -15 0 -21 -6 -21 -21 0 -20 4 -21 49 -15 48 6 48 6
43 -19 -3 -20 0 -25 15 -25 18 0 20 -5 15 -50 -4 -46 -3 -50 17 -50 16 0 21 6
21 24 0 14 6 31 13 38 7 7 17 22 22 33 8 19 9 19 13 -4 3 -18 9 -22 28 -18 49
9 42 -41 -9 -65 -74 -35 -100 -34 -364 18 -67 13 -141 33 -165 43 l-43 19 47
-5 c43 -5 50 -3 78 26 29 29 33 30 53 16 12 -8 34 -15 50 -15 24 0 28 4 25 22
-2 13 -11 24 -23 26 -11 2 -35 18 -53 35 l-33 32 63 5 c86 7 234 3 283 -8z
m1580 -60 c23 -19 24 -20 6 -36 -9 -9 -23 -16 -29 -16 -6 0 -17 -6 -25 -14
-25 -25 -163 -76 -248 -91 -34 -6 -39 -3 -98 56 -39 40 -58 65 -49 68 7 2 16
8 19 13 3 5 41 0 87 -11 44 -12 95 -21 113 -21 38 0 69 24 69 54 1 37 31 65
75 68 36 3 41 0 48 -24 4 -15 18 -35 32 -46z m-315 48 c0 -13 7 -20 20 -20 11
0 20 7 20 15 0 11 11 15 43 15 23 0 37 -4 31 -8 -7 -4 -14 -18 -15 -32 -4 -27
-13 -28 -79 -10 -19 5 -47 11 -62 14 -20 5 -25 10 -21 26 8 29 63 29 63 0z
m-990 -50 c0 -5 -13 -10 -29 -10 -22 0 -30 -6 -35 -25 -11 -45 -68 -28 -59 18
5 26 8 27 64 27 33 0 59 -4 59 -10z m840 -10 c0 -5 -7 -7 -15 -4 -8 4 -15 8
-15 10 0 2 7 4 15 4 8 0 15 -4 15 -10z m-95 -20 c3 -5 2 -10 -4 -10 -5 0 -13
5 -16 10 -3 6 -2 10 4 10 5 0 13 -4 16 -10z m-27 -80 c18 -19 38 -43 43 -53 9
-17 8 -18 -13 -11 -12 4 -39 11 -58 15 -19 4 -39 14 -45 22 -5 7 -19 16 -29
20 -18 7 -18 8 -1 25 30 28 66 21 103 -18z m105 18 c31 -16 88 -74 80 -82 -16
-15 -55 -4 -80 24 -57 61 -57 61 -25 69 2 1 13 -4 25 -11z m-388 -40 c-9 -28
-25 -47 -25 -30 0 7 -7 12 -15 12 -18 0 -20 26 -2 33 6 3 20 6 30 6 14 1 17
-4 12 -21z m-455 -17 c0 -11 -9 -23 -20 -26 -11 -3 -20 -13 -20 -21 0 -8 -6
-14 -14 -14 -8 0 -17 -8 -19 -17 -3 -10 -5 -1 -6 20 -1 27 3 37 14 37 8 0 15
4 15 8 0 7 30 27 48 31 1 1 2 -8 2 -18z m579 -129 c-1 -15 -2 -15 -6 1 -2 9
-8 17 -12 17 -4 0 -13 12 -20 28 l-11 27 25 -28 c14 -15 24 -36 24 -45z"/>
<path d="M512 888 c2 -15 11 -24 26 -26 20 -3 23 0 20 20 -2 15 -11 24 -26 26
-20 3 -23 0 -20 -20z"/>
<path d="M560 830 c0 -16 7 -20 30 -20 23 0 30 4 30 20 0 16 -7 20 -30 20 -23
0 -30 -4 -30 -20z"/>
</g>
</svg>
