<?xml version="1.0" standalone="no"?>
<!DOCTYPE svg PUBLIC "-//W3C//DTD SVG 20010904//EN"
 "http://www.w3.org/TR/2001/REC-SVG-20010904/DTD/svg10.dtd">
<svg version="1.0" xmlns="http://www.w3.org/2000/svg"
 width="308.000000pt" height="253.000000pt" viewBox="0 0 308.000000 253.000000"
 preserveAspectRatio="xMidYMid meet">
<metadata>
Created by potrace 1.13, written by Peter Selinger 2001-2015
</metadata>
<g transform="translate(0.000000,253.000000) scale(0.100000,-0.100000)"
fill="#000000" stroke="none">
<path d="M610 2510 c0 -5 -6 -10 -13 -10 -10 0 -14 -17 -13 -64 1 -35 4 -68 9
-72 4 -4 7 -21 7 -38 0 -29 14 -93 27 -126 3 -8 5 -23 4 -33 -2 -10 4 -26 12
-35 9 -10 18 -29 22 -44 4 -15 13 -32 20 -38 8 -6 17 -25 20 -41 4 -16 12 -32
18 -36 7 -5 25 -34 41 -65 16 -32 32 -58 37 -58 5 0 9 -5 9 -12 0 -6 8 -21 18
-32 23 -25 47 -84 39 -93 -4 -3 -19 -1 -34 5 -33 13 -380 45 -393 37 -5 -3
-42 -7 -82 -9 -118 -6 -189 -16 -235 -31 -24 -8 -51 -15 -61 -15 -33 -1 -55
-27 -48 -56 8 -30 7 -30 186 2 47 8 96 14 110 14 14 0 60 5 102 10 77 11 212
0 386 -31 68 -12 73 -19 46 -71 -23 -45 -11 -86 38 -130 45 -41 75 -47 112
-22 24 15 24 14 31 -18 4 -18 16 -48 27 -65 l20 -33 -61 0 c-33 0 -63 -4 -66
-10 -3 -5 -12 -10 -20 -10 -30 0 -121 -41 -150 -68 -46 -42 -77 -59 -120 -66
-49 -9 -114 -44 -129 -71 -6 -11 -19 -26 -28 -33 -10 -7 -18 -21 -18 -31 0 -9
-5 -22 -10 -27 -15 -15 7 -154 28 -176 8 -10 11 -18 6 -18 -17 0 -114 -101
-134 -140 -28 -55 -28 -172 0 -218 11 -18 32 -37 48 -43 37 -15 143 -3 200 22
101 44 172 81 172 90 0 5 7 9 15 9 8 0 15 4 15 8 0 5 27 6 60 4 51 -4 65 -1
95 19 19 13 35 30 35 37 0 6 7 12 15 12 22 0 117 121 161 205 l39 74 12 -42
c7 -23 13 -50 13 -60 0 -11 7 -31 15 -45 8 -15 31 -62 51 -106 20 -43 52 -94
71 -112 32 -32 35 -38 29 -77 -4 -23 -17 -65 -30 -93 -28 -60 -40 -225 -21
-301 7 -30 45 -32 45 -3 0 23 18 27 26 5 8 -20 44 -19 44 1 0 25 -19 54 -37
54 -11 0 -13 3 -5 13 6 6 12 41 15 77 2 36 15 101 28 145 22 73 26 80 48 77
22 -4 23 -2 17 34 -6 30 -33 81 -56 104 -21 21 -101 123 -125 160 -29 44 -30
48 -27 149 1 58 4 107 7 109 2 2 28 -3 59 -12 52 -15 124 -11 143 8 3 3 24 -8
47 -24 47 -32 150 -83 202 -100 31 -11 34 -15 34 -50 0 -72 19 -136 50 -165
23 -22 28 -34 23 -56 -4 -22 -2 -29 11 -29 9 0 16 -7 16 -15 0 -27 38 -18 42
10 3 24 5 23 56 -28 105 -105 182 -192 182 -209 0 -10 4 -18 8 -18 4 0 14 -21
21 -46 13 -42 12 -48 -3 -56 -23 -13 -21 -48 3 -48 11 0 23 -5 26 -10 3 -6 14
-10 23 -10 33 0 56 156 27 180 -8 7 -27 37 -42 68 -26 54 -127 166 -200 222
-20 15 -33 34 -33 48 0 13 -13 43 -29 66 -37 53 -49 96 -28 96 18 0 64 -35 97
-74 14 -16 35 -39 48 -50 13 -11 22 -31 22 -48 0 -26 3 -28 40 -28 36 0 40 2
40 25 0 22 3 25 28 20 70 -15 118 -29 127 -36 5 -5 20 -9 33 -9 13 0 37 -9 52
-20 42 -30 100 -114 100 -144 0 -19 5 -26 20 -26 13 0 20 7 20 19 0 30 17 34
24 6 4 -17 13 -25 27 -25 19 0 21 4 14 38 -3 20 -13 42 -21 48 -8 6 -14 18
-14 26 0 22 -122 148 -143 148 -9 0 -17 7 -17 15 0 16 -43 31 -59 20 -19 -11
-177 26 -188 44 -9 14 -2 16 66 17 134 1 227 61 367 237 134 169 268 272 377
291 32 6 38 11 35 29 -3 19 -10 22 -62 25 -85 4 -157 -33 -266 -140 -47 -46
-96 -96 -108 -113 -79 -102 -223 -225 -283 -240 -20 -5 -27 0 -41 27 -10 18
-20 53 -24 78 -11 83 -52 191 -83 220 -38 36 -87 64 -148 85 -77 27 -74 31 57
65 47 13 87 27 90 31 3 4 39 9 79 10 67 2 76 0 89 -19 16 -25 52 -30 52 -7 0
8 7 15 16 15 22 0 14 40 -11 54 -10 6 -25 17 -33 24 -21 19 -156 14 -237 -9
-162 -47 -146 -47 -227 0 -41 24 -95 46 -123 51 -92 15 -92 16 -19 83 117 108
221 283 209 350 -4 18 0 67 9 108 8 41 13 91 10 110 -6 44 -14 147 -14 179 0
51 -11 90 -25 90 -8 0 -15 7 -15 15 0 8 -4 15 -10 15 -5 0 -10 7 -10 15 0 36
-98 47 -166 19 -114 -48 -164 -152 -356 -744 l-40 -124 -20 39 c-11 22 -26 60
-34 85 -20 61 -36 92 -56 110 -9 8 -24 42 -33 75 -9 33 -24 76 -32 95 -75 171
-96 200 -142 200 -18 0 -30 -8 -38 -27 -19 -40 -16 -51 15 -57 21 -5 32 -18
50 -57 12 -28 22 -56 22 -62 0 -7 7 -21 15 -31 8 -11 15 -27 15 -36 0 -8 9
-32 20 -53 12 -21 20 -56 20 -83 0 -51 7 -67 56 -132 19 -24 33 -47 30 -50 -3
-2 -21 3 -40 12 -19 9 -45 16 -58 16 -21 0 -24 4 -20 33 2 22 -3 39 -16 52
-10 12 -23 34 -29 50 -8 27 -15 30 -55 33 -37 2 -50 -1 -67 -19 -12 -13 -21
-30 -21 -38 0 -14 -40 53 -75 127 -8 17 -20 32 -25 32 -6 0 -10 7 -10 14 0 8
-11 27 -25 42 -14 15 -25 33 -25 41 0 7 -7 16 -15 19 -8 4 -15 14 -15 24 0 10
-7 25 -15 33 -16 17 -30 64 -26 90 1 10 -5 24 -13 30 -25 18 -47 113 -73 300
-4 28 -10 37 -24 37 -10 0 -19 -4 -19 -10z m1151 -323 c-10 -9 -11 -8 -5 6 3
10 9 15 12 12 3 -3 0 -11 -7 -18z m-196 -791 c-11 -8 -24 -12 -28 -9 -11 7 12
23 32 23 11 0 9 -4 -4 -14z m252 -47 c35 -23 63 -42 63 -43 0 -2 -28 3 -62 10
-35 8 -90 14 -123 14 -48 1 -55 3 -37 11 13 5 35 18 49 29 14 11 30 20 36 20
6 0 39 -19 74 -41z m-190 -25 c-3 -3 -12 -4 -19 -1 -8 3 -5 6 6 6 11 1 17 -2
13 -5z m-83 -32 c-6 -4 -26 -31 -44 -59 -17 -29 -34 -53 -37 -53 -8 0 8 62 23
93 11 19 22 27 42 27 15 0 22 -4 16 -8z m-535 -92 c11 0 22 -4 25 -9 5 -8
-156 -126 -341 -249 -50 -34 -104 -74 -118 -88 -20 -20 -29 -24 -38 -15 -8 8
-7 11 6 11 19 0 22 22 6 51 -28 54 24 121 122 157 35 13 72 28 81 33 10 5 25
9 33 9 9 0 37 20 63 44 60 55 101 77 124 65 9 -5 26 -9 37 -9z"/>
</g>
</svg>
