<?xml version="1.0" standalone="no"?>
<!DOCTYPE svg PUBLIC "-//W3C//DTD SVG 20010904//EN"
 "http://www.w3.org/TR/2001/REC-SVG-20010904/DTD/svg10.dtd">
<svg version="1.0" xmlns="http://www.w3.org/2000/svg"
 width="308.000000pt" height="253.000000pt" viewBox="0 0 308.000000 253.000000"
 preserveAspectRatio="xMidYMid meet">
<metadata>
Created by potrace 1.13, written by Peter Selinger 2001-2015
</metadata>
<g transform="translate(0.000000,253.000000) scale(0.100000,-0.100000)"
fill="#000000" stroke="none">
<path d="M2427 2483 c-26 -187 -48 -282 -73 -300 -8 -6 -14 -20 -13 -30 4 -26
-10 -73 -26 -90 -8 -8 -15 -23 -15 -33 0 -10 -7 -20 -15 -24 -8 -3 -15 -12
-15 -19 0 -8 -11 -26 -25 -41 -14 -15 -25 -34 -25 -42 0 -7 -4 -14 -10 -14 -5
0 -17 -15 -25 -32 -35 -74 -75 -141 -75 -127 0 8 -9 25 -21 38 -17 18 -30 21
-67 19 -40 -3 -47 -6 -55 -33 -6 -16 -19 -38 -29 -50 -13 -13 -18 -30 -16 -52
4 -29 1 -33 -20 -33 -13 0 -39 -7 -58 -16 -19 -9 -37 -14 -40 -12 -3 3 11 26
30 50 49 65 56 81 56 132 0 27 8 62 20 83 11 21 20 45 20 53 0 9 7 25 15 36 8
10 15 24 15 31 0 6 10 34 22 62 18 39 29 52 50 57 31 6 34 17 16 57 -9 19 -21
27 -39 27 -46 0 -67 -29 -142 -200 -8 -19 -23 -62 -32 -95 -9 -33 -24 -67 -33
-75 -20 -18 -36 -49 -56 -110 -8 -25 -23 -63 -34 -85 l-20 -39 -40 124 c-192
592 -242 696 -356 744 -68 28 -166 17 -166 -19 0 -8 -4 -15 -10 -15 -5 0 -10
-7 -10 -15 0 -8 -7 -15 -15 -15 -14 0 -25 -39 -25 -90 0 -32 -8 -135 -14 -179
-3 -19 2 -69 10 -110 9 -41 13 -90 9 -108 -12 -67 92 -242 209 -350 73 -67 73
-68 -19 -83 -28 -5 -82 -27 -123 -51 -81 -47 -65 -47 -227 0 -81 23 -216 28
-237 9 -8 -7 -23 -18 -33 -24 -25 -14 -33 -54 -11 -54 9 0 16 -7 16 -15 0 -23
36 -18 52 7 13 19 22 21 89 19 40 -1 76 -6 79 -10 3 -4 43 -18 90 -31 131 -34
134 -38 57 -65 -61 -21 -110 -49 -148 -85 -31 -29 -72 -137 -83 -220 -4 -25
-14 -60 -24 -78 -14 -27 -21 -32 -41 -27 -60 15 -204 138 -283 240 -12 17 -61
67 -108 113 -109 107 -181 144 -266 140 -52 -3 -59 -6 -62 -25 -3 -18 3 -23
35 -29 109 -19 243 -122 377 -291 90 -112 154 -171 226 -205 54 -26 77 -32
141 -32 68 -1 75 -3 66 -17 -11 -18 -169 -55 -188 -44 -16 11 -59 -4 -59 -20
0 -8 -8 -15 -17 -15 -21 0 -143 -126 -143 -148 0 -8 -6 -20 -14 -26 -8 -6 -18
-28 -21 -49 -7 -33 -5 -37 14 -37 14 0 23 8 27 25 7 28 24 24 24 -6 0 -12 7
-19 20 -19 15 0 20 7 20 26 0 30 58 114 100 144 15 11 39 20 52 20 13 0 28 4
34 9 8 7 56 21 126 36 25 5 28 2 28 -20 0 -23 4 -25 40 -25 37 0 40 2 40 28 0
17 9 37 22 48 13 11 34 34 48 50 33 39 79 74 97 74 21 0 9 -43 -28 -96 -16
-23 -29 -53 -29 -66 0 -14 -13 -33 -33 -48 -73 -56 -174 -168 -200 -222 -15
-31 -34 -61 -42 -68 -29 -24 -6 -180 27 -180 9 0 20 4 23 10 3 5 15 10 26 10
24 0 26 35 3 48 -15 8 -16 14 -3 56 7 25 17 46 21 46 4 0 8 8 8 18 0 17 77
104 182 209 51 51 53 52 56 28 4 -28 42 -37 42 -10 0 8 7 15 16 15 13 0 15 7
11 29 -5 22 0 34 23 56 31 29 50 93 50 165 0 35 3 39 34 50 52 17 155 68 202
100 23 16 44 27 47 24 19 -19 91 -23 143 -8 31 9 57 14 59 12 3 -2 6 -51 7
-109 3 -101 2 -105 -27 -149 -24 -37 -104 -139 -125 -160 -23 -23 -50 -74 -56
-104 -6 -36 -5 -38 17 -34 22 3 26 -4 48 -77 13 -44 26 -109 28 -145 3 -36 9
-71 15 -77 8 -10 6 -13 -5 -13 -18 0 -37 -29 -37 -54 0 -20 36 -21 44 -1 8 22
26 18 26 -5 0 -29 38 -27 45 3 19 76 7 241 -21 301 -13 28 -26 70 -30 93 -6
39 -3 45 29 77 19 18 51 69 71 112 20 44 43 91 51 106 8 14 15 34 15 45 0 10
6 37 13 60 l12 42 39 -74 c44 -84 139 -205 161 -205 8 0 15 -6 15 -12 0 -7 16
-24 35 -37 30 -20 44 -23 95 -19 33 2 60 1 60 -4 0 -4 7 -8 15 -8 8 0 15 -4
15 -9 0 -9 71 -46 172 -90 57 -25 163 -37 200 -22 16 6 37 25 48 43 28 46 28
163 0 218 -20 39 -117 140 -134 140 -5 0 -2 8 6 18 21 22 43 161 28 176 -5 5
-10 18 -10 27 0 10 -8 24 -17 31 -10 7 -23 22 -29 33 -15 27 -80 62 -129 71
-43 7 -74 24 -120 66 -29 27 -120 68 -150 68 -8 0 -17 5 -20 10 -3 6 -33 10
-66 10 l-61 0 20 33 c11 17 23 47 27 65 7 32 7 33 31 18 37 -25 67 -19 112 22
49 44 61 85 38 130 -27 52 -22 59 47 71 173 31 308 42 385 31 42 -5 88 -10
102 -10 14 0 63 -6 110 -14 179 -32 178 -32 186 -2 7 29 -15 55 -48 56 -10 0
-37 7 -61 15 -46 15 -117 25 -235 31 -40 2 -77 6 -82 9 -13 8 -360 -24 -393
-37 -15 -6 -30 -8 -34 -5 -8 9 16 68 39 93 10 11 18 26 18 32 0 7 4 12 9 12 5
0 21 26 37 58 16 31 34 60 41 65 6 4 14 20 18 36 3 16 12 35 20 41 7 6 16 23
20 38 4 15 13 34 22 44 8 9 14 25 12 35 -1 10 1 25 4 33 13 33 27 97 27 126 0
17 3 34 8 38 4 4 7 37 8 72 1 47 -3 64 -13 64 -7 0 -13 5 -13 10 0 6 -9 10
-19 10 -14 0 -20 -9 -24 -37z m-1103 -289 c3 -8 2 -12 -4 -9 -6 3 -10 10 -10
16 0 14 7 11 14 -7z m215 -793 c7 -5 9 -11 4 -14 -4 -3 -17 1 -28 9 -21 16 0
20 24 5z m-166 -31 c14 -11 36 -24 49 -29 18 -8 11 -10 -37 -11 -33 0 -88 -6
-123 -14 -70 -14 -70 -14 8 38 64 42 69 43 103 16z m104 -46 c-3 -3 -12 -4
-19 -1 -8 3 -5 6 6 6 11 1 17 -2 13 -5z m117 -51 c15 -31 31 -93 23 -93 -3 0
-20 24 -37 53 -18 28 -38 55 -44 59 -6 4 1 8 16 8 20 0 31 -8 42 -27z m638
-129 c26 -24 54 -44 63 -44 8 0 23 -4 33 -9 9 -5 46 -20 81 -33 98 -36 150
-103 122 -157 -16 -29 -13 -51 6 -51 13 0 14 -3 6 -11 -9 -9 -18 -5 -38 15
-14 14 -68 54 -118 88 -185 123 -346 241 -341 249 3 5 15 9 27 9 12 0 28 4 36
9 20 13 65 -11 123 -65z"/>
</g>
</svg>
