<?xml version="1.0" standalone="no"?>
<!DOCTYPE svg PUBLIC "-//W3C//DTD SVG 20010904//EN"
 "http://www.w3.org/TR/2001/REC-SVG-20010904/DTD/svg10.dtd">
<svg version="1.0" xmlns="http://www.w3.org/2000/svg"
 width="184.000000pt" height="265.000000pt" viewBox="0 0 184.000000 265.000000"
 preserveAspectRatio="xMidYMid meet">
<metadata>
Created by potrace 1.13, written by Peter Selinger 2001-2015
</metadata>
<g transform="translate(0.000000,265.000000) scale(0.100000,-0.100000)"
fill="#000000" stroke="none">
<path d="M1125 2633 c-31 -9 -65 -34 -65 -49 0 -8 -4 -14 -10 -14 -5 0 -12
-11 -16 -24 -3 -14 -12 -27 -20 -30 -8 -3 -14 -15 -14 -26 0 -11 -7 -20 -15
-20 -8 0 -15 -4 -15 -8 0 -4 -16 -26 -36 -47 -43 -48 -73 -111 -88 -187 -10
-54 -12 -58 -39 -58 -20 0 -31 -7 -39 -25 -6 -14 -14 -25 -19 -25 -4 0 -7 -29
-8 -64 0 -48 3 -65 14 -70 8 -3 15 -15 15 -26 0 -11 5 -20 10 -20 6 0 10 -4
10 -10 0 -5 -7 -10 -15 -10 -18 0 -19 -18 -5 -56 7 -16 7 -30 2 -33 -13 -8
-13 -91 -1 -91 5 0 9 -11 9 -24 0 -23 -3 -24 -37 -19 -39 5 -86 22 -138 49
-39 21 -123 29 -158 15 -33 -13 -38 -51 -7 -51 11 0 20 -5 20 -11 0 -6 15 -8
44 -4 28 5 46 3 50 -4 4 -6 14 -11 23 -11 9 0 24 -6 32 -13 25 -20 81 -36 160
-46 40 -5 74 -11 76 -13 1 -2 -1 -30 -6 -62 -4 -33 -4 -80 1 -105 5 -25 7 -47
5 -49 -1 -2 -26 19 -55 46 -91 86 -149 78 -268 -38 l-53 -51 -125 0 c-146 1
-174 -4 -174 -30 0 -10 7 -19 15 -19 8 0 15 -7 15 -16 0 -13 -12 -15 -90 -8
l-89 7 -12 -27 c-21 -44 30 -193 85 -252 6 -7 27 -30 46 -53 19 -23 42 -41 51
-41 9 0 31 -8 49 -17 23 -11 61 -17 119 -17 79 -1 92 2 161 35 41 19 82 42 91
51 8 8 57 30 108 47 84 29 131 53 169 88 7 7 15 13 16 13 7 0 -15 -107 -28
-134 -7 -17 -14 -53 -15 -80 0 -27 -3 -51 -6 -54 -3 -3 -44 2 -93 11 -104 20
-129 21 -147 5 -8 -7 -26 -22 -41 -33 -14 -11 -38 -33 -53 -49 -66 -74 -79
-86 -95 -86 -9 0 -16 -8 -16 -19 0 -14 10 -20 42 -25 29 -5 44 -3 49 6 15 26
89 96 126 118 35 20 45 21 145 15 l107 -7 -5 -72 c-3 -39 -10 -100 -15 -136
-7 -45 -7 -66 0 -68 6 -2 11 -18 11 -37 0 -57 31 -175 46 -175 8 0 14 -9 14
-20 0 -13 7 -20 19 -20 11 0 21 -5 23 -10 2 -7 19 -9 43 -5 33 6 43 13 58 41
9 19 17 43 17 52 0 15 2 15 10 2 5 -8 10 -25 10 -38 0 -30 23 -102 32 -102 5
0 8 -9 8 -20 0 -11 7 -20 15 -20 10 0 15 -10 15 -30 0 -16 8 -38 18 -47 67
-64 107 -79 194 -71 42 4 55 11 82 41 38 43 56 107 55 197 0 132 -25 229 -99
395 -64 142 -139 369 -126 382 7 7 28 -27 36 -59 28 -110 44 -155 59 -173 55
-62 101 -140 101 -172 0 -34 6 -38 49 -26 21 5 23 10 19 54 -4 33 -14 59 -34
84 -66 82 -83 111 -84 141 0 17 -13 58 -30 90 -16 32 -30 67 -30 76 0 9 -11
30 -25 47 l-26 30 36 -10 c40 -11 67 -5 107 22 14 11 33 19 42 19 25 0 76 -89
76 -132 0 -31 4 -39 24 -44 14 -3 29 -3 35 0 15 9 24 86 13 110 -38 82 -59
117 -74 122 -10 3 -18 13 -18 22 0 15 10 17 80 14 53 -3 80 0 80 7 0 6 7 8 15
5 21 -8 75 18 75 36 -1 38 -14 42 -103 35 -112 -9 -157 -2 -150 25 7 28 -22
68 -55 77 -25 6 -82 56 -82 72 0 3 20 14 44 24 25 10 57 29 73 43 44 39 52 44
61 44 5 0 18 10 29 23 33 36 64 56 96 63 38 8 60 28 55 52 -3 13 -13 17 -50
15 -45 -1 -81 -18 -127 -60 -13 -12 -40 -30 -60 -40 -20 -10 -40 -23 -46 -29
-5 -6 -34 -26 -63 -44 -52 -32 -55 -33 -82 -17 -19 11 -51 17 -94 17 l-66 0 0
40 c0 40 15 114 47 235 36 135 82 440 83 540 0 75 -19 156 -38 163 -7 2 -12 9
-12 16 0 36 -109 75 -165 59z m55 -380 c-11 -17 -11 -17 -6 0 3 10 7 26 7 35
1 15 2 15 6 0 2 -10 -1 -25 -7 -35z m-67 -40 c5 -43 -7 -59 -18 -24 -5 17 3
77 10 69 1 -2 5 -22 8 -45z m-76 -75 c-3 -8 -6 -5 -6 6 -1 11 2 17 5 13 3 -3
4 -12 1 -19z m113 2 c0 -14 7 -20 23 -21 l22 -2 -22 -4 c-24 -4 -41 -43 -28
-62 3 -6 -1 -11 -9 -11 -9 0 -16 7 -16 15 0 8 -9 15 -20 15 -13 0 -20 -7 -20
-20 0 -11 -4 -20 -10 -20 -5 0 -10 -9 -10 -20 0 -11 -6 -20 -14 -20 -11 0 -13
9 -9 38 8 54 18 66 50 67 24 0 28 4 31 33 4 35 32 46 32 12z m70 5 c0 -8 -7
-15 -15 -15 -8 0 -15 7 -15 15 0 8 7 15 15 15 8 0 15 -7 15 -15z m-323 -137
c-3 -8 -6 -5 -6 6 -1 11 2 17 5 13 3 -3 4 -12 1 -19z m283 -7 c0 -12 -20 -25
-27 -18 -7 7 6 27 18 27 5 0 9 -4 9 -9z m-90 -26 c0 -8 -2 -15 -4 -15 -2 0 -6
7 -10 15 -3 8 -1 15 4 15 6 0 10 -7 10 -15z m80 -41 c0 -3 -7 -12 -15 -20 -13
-14 -15 -13 -15 5 0 12 6 21 15 21 8 0 15 -3 15 -6z m-232 -109 c-3 -3 -9 2
-12 12 -6 14 -5 15 5 6 7 -7 10 -15 7 -18z m-48 -45 c0 -5 -5 -10 -11 -10 -5
0 -7 5 -4 10 3 6 8 10 11 10 2 0 4 -4 4 -10z m46 -350 c-13 -44 -13 -44 -18
-13 -5 37 9 80 22 67 6 -6 4 -26 -4 -54z m-149 -110 c15 0 93 -73 93 -88 0
-10 -116 -99 -157 -121 -42 -22 -73 -12 -157 49 -106 77 -157 99 -250 107 -42
3 -76 9 -76 13 0 8 143 4 171 -5 33 -11 106 6 127 28 12 12 44 45 71 74 l50
51 58 -54 c31 -30 63 -54 70 -54z m209 -227 c9 -56 7 -70 -12 -98 -13 -18 -14
-12 -12 62 2 46 6 83 9 83 4 0 10 -21 15 -47z m251 -295 c-3 -7 -5 -2 -5 12 0
14 2 19 5 13 2 -7 2 -19 0 -25z m-148 -98 c-1 -66 -6 -56 -12 23 -2 32 0 52 4
45 5 -7 8 -38 8 -68z m201 55 c0 -8 -7 -15 -15 -15 -8 0 -15 -5 -15 -11 0 -6
-7 -17 -15 -25 -8 -9 -15 -26 -15 -39 0 -20 -26 -42 -37 -32 -9 9 11 67 23 67
8 0 14 10 14 25 0 18 5 25 20 25 11 0 20 5 20 10 0 6 5 10 10 10 6 0 10 -7 10
-15z m9 -188 c14 -35 14 -47 1 -47 -5 0 -10 14 -10 30 0 23 -4 30 -20 30 -11
0 -20 5 -20 10 0 6 5 10 10 10 6 0 10 17 11 38 l1 37 8 -40 c5 -22 13 -53 19
-68z m-269 38 c0 -16 6 -25 16 -25 8 0 12 -4 9 -10 -3 -5 -18 -10 -32 -10 -21
0 -24 3 -19 23 3 12 6 28 6 35 0 6 5 12 10 12 6 0 10 -11 10 -25z m177 -47
c-3 -7 -5 -2 -5 12 0 14 2 19 5 13 2 -7 2 -19 0 -25z m123 -135 c0 -20 -24
-11 -28 10 -2 12 1 15 12 11 9 -3 16 -13 16 -21z m-70 -78 c0 -8 -7 -15 -15
-15 -26 0 -18 20 13 29 1 1 2 -6 2 -14z"/>
</g>
</svg>
