<?xml version="1.0" standalone="no"?>
<!DOCTYPE svg PUBLIC "-//W3C//DTD SVG 20010904//EN"
 "http://www.w3.org/TR/2001/REC-SVG-20010904/DTD/svg10.dtd">
<svg version="1.0" xmlns="http://www.w3.org/2000/svg"
 width="291.000000pt" height="304.000000pt" viewBox="0 0 291.000000 304.000000"
 preserveAspectRatio="xMidYMid meet">
<metadata>
Created by potrace 1.13, written by Peter Selinger 2001-2015
</metadata>
<g transform="translate(0.000000,304.000000) scale(0.100000,-0.100000)"
fill="#000000" stroke="none">
<path d="M570 3000 c0 -11 -7 -20 -15 -20 -11 0 -15 -11 -15 -40 0 -25 5 -40
13 -40 8 0 11 -15 9 -49 l-4 -48 36 -7 c20 -4 41 -4 46 -1 6 3 10 1 10 -4 0
-6 18 -11 41 -11 32 0 40 -3 36 -14 -3 -8 -9 -31 -13 -50 -6 -34 -5 -36 21
-36 23 0 26 -2 15 -15 -7 -8 -10 -24 -7 -35 3 -10 -1 -24 -9 -31 -15 -13 -19
-49 -5 -49 4 0 6 -11 4 -24 -4 -20 0 -24 36 -30 23 -3 41 -11 41 -17 0 -6 12
-10 28 -9 62 4 72 1 72 -25 0 -20 5 -25 25 -25 22 0 24 -3 19 -30 -4 -19 -2
-30 5 -30 6 0 16 -11 21 -25 5 -14 16 -25 25 -25 8 0 15 -9 15 -19 0 -20 18
-31 51 -31 10 0 19 -7 19 -15 0 -9 9 -15 24 -15 21 0 24 -6 30 -54 4 -29 14
-75 22 -101 13 -44 12 -53 -5 -104 -24 -73 -44 -195 -36 -221 4 -12 -4 -48
-22 -91 l-28 -71 -55 7 c-30 4 -69 8 -87 9 -17 1 -35 5 -39 9 -12 12 -106 7
-139 -7 -25 -10 -39 -10 -80 2 -80 23 -183 73 -212 105 -16 16 -50 40 -76 54
-27 13 -68 42 -92 64 -36 34 -45 49 -59 112 -27 111 -24 107 -57 107 -22 0
-29 -5 -29 -20 0 -11 -4 -20 -10 -20 -13 0 -13 -57 0 -65 6 -3 7 -17 4 -30 -3
-13 -1 -33 6 -44 9 -17 8 -21 -5 -21 -8 0 -15 -9 -15 -20 0 -11 5 -20 10 -20
6 0 10 -7 10 -15 0 -8 -4 -15 -10 -15 -18 0 -11 -40 8 -41 10 0 12 -3 5 -6 -7
-2 -13 -13 -13 -24 0 -15 7 -19 33 -19 32 0 33 -2 29 -31 -4 -30 -3 -32 22
-27 22 4 26 2 26 -18 0 -17 6 -24 20 -24 14 0 20 -7 20 -21 0 -19 4 -21 30
-15 23 4 30 2 30 -10 0 -13 7 -15 33 -10 26 5 36 2 47 -14 8 -11 23 -20 33
-20 10 0 21 -9 24 -20 3 -11 14 -20 24 -20 11 0 19 -4 19 -10 0 -5 11 -12 25
-16 16 -4 25 -13 25 -25 0 -16 7 -19 40 -19 33 0 42 4 49 24 13 34 39 42 33
10 -4 -24 -3 -25 44 -23 54 3 94 -13 94 -38 0 -12 7 -14 30 -9 17 3 30 1 30
-4 0 -6 -16 -10 -35 -10 -22 0 -38 -6 -41 -15 -4 -8 -15 -15 -25 -15 -10 0
-19 -7 -19 -15 0 -8 -7 -15 -15 -15 -8 0 -15 -9 -15 -19 0 -12 -9 -21 -25 -25
-14 -4 -25 -13 -25 -22 0 -8 -7 -17 -15 -20 -17 -7 -20 -41 -4 -46 17 -6 -4
-48 -31 -61 -32 -16 -42 -83 -13 -90 10 -3 3 -5 -16 -6 -18 0 -68 -16 -110
-35 -42 -18 -91 -40 -108 -47 -18 -8 -33 -17 -33 -20 0 -13 -64 -69 -80 -69
-8 0 -21 -14 -27 -30 -9 -24 -26 -37 -76 -60 -36 -16 -87 -33 -113 -37 -44 -7
-49 -11 -52 -36 -3 -22 1 -27 17 -27 12 0 21 -4 21 -10 0 -13 63 -13 76 0 7 7
19 3 38 -15 29 -27 52 -30 104 -16 25 8 32 7 32 -5 0 -23 37 -16 58 11 17 21
21 22 26 9 9 -22 8 -24 -9 -24 -8 0 -15 -9 -15 -20 0 -13 7 -20 20 -20 13 0
20 7 20 20 0 11 7 20 15 20 8 0 17 12 21 28 11 49 13 52 49 52 24 0 35 -4 35
-15 0 -9 9 -15 21 -15 17 0 20 5 17 25 -4 17 -1 25 8 25 8 0 14 5 14 10 0 6 7
10 15 10 8 0 15 -7 15 -15 0 -8 9 -15 20 -15 18 0 20 5 18 38 -3 32 0 37 20
40 16 2 22 10 22 27 0 15 7 26 19 30 11 3 22 19 26 35 4 17 11 30 16 30 4 0
12 15 17 33 7 28 13 32 45 35 44 4 46 -4 22 -101 -36 -149 -48 -242 -52 -412
-4 -148 -2 -190 11 -236 18 -60 52 -99 88 -99 27 0 110 39 121 57 4 7 14 13
22 13 8 0 18 6 22 13 4 8 16 16 26 20 9 4 27 22 38 42 12 19 26 35 31 35 13 0
48 39 48 54 1 6 14 27 30 46 17 19 30 39 30 45 0 6 5 16 11 22 7 7 21 0 47
-25 50 -47 90 -62 164 -62 66 0 131 23 157 53 23 28 40 20 47 -23 4 -22 10
-40 15 -40 5 0 9 -8 9 -19 0 -24 61 -120 78 -120 6 -1 12 -10 12 -21 0 -11 7
-23 15 -26 8 -3 17 -14 20 -25 4 -10 12 -19 20 -19 7 0 20 -11 29 -25 9 -14
23 -25 31 -25 8 0 28 -14 45 -30 27 -26 38 -30 85 -30 30 0 55 4 55 9 0 5 11
12 25 15 16 4 25 13 25 25 0 10 6 21 13 24 20 8 49 122 54 219 6 93 -10 295
-33 423 -29 160 -29 161 -5 168 14 3 21 0 21 -9 0 -7 11 -16 25 -20 18 -4 25
-13 25 -30 0 -27 20 -74 31 -74 4 0 10 -9 14 -19 3 -10 17 -22 30 -25 14 -4
25 -13 25 -21 0 -10 10 -15 30 -15 19 0 30 -5 30 -14 0 -11 17 -13 83 -10 119
6 130 5 138 -7 4 -7 17 -9 32 -5 14 3 27 2 29 -4 5 -16 118 0 118 17 0 10 6
13 16 9 9 -3 18 -6 20 -6 2 0 4 -7 4 -15 0 -8 9 -15 20 -15 13 0 20 7 20 20 0
11 5 20 10 20 20 0 9 37 -17 62 -23 21 -42 27 -103 32 -78 7 -134 33 -146 69
-3 9 -10 17 -15 17 -5 0 -9 7 -9 15 0 8 -4 15 -10 15 -5 0 -10 7 -10 15 0 8
-4 15 -10 15 -5 0 -10 6 -10 13 0 6 -14 23 -32 37 -17 14 -37 31 -44 38 -7 7
-33 21 -58 32 -25 10 -46 26 -46 34 0 8 -13 28 -30 44 -16 17 -30 40 -30 51 0
11 -4 23 -10 26 -5 3 -10 17 -10 31 0 13 -5 24 -10 24 -6 0 -17 17 -26 38 -12
26 -29 44 -55 56 -22 11 -39 25 -39 32 0 7 -8 18 -17 23 -10 6 -12 11 -5 11 6
0 12 7 12 16 0 13 7 15 30 10 17 -3 44 -9 61 -12 24 -5 34 -2 41 10 5 9 16 16
23 16 8 0 15 4 15 9 0 16 28 20 62 10 40 -12 108 -2 108 16 0 15 45 25 83 18
16 -3 27 -1 27 6 0 6 7 11 15 11 8 0 15 4 15 9 0 5 17 9 38 9 98 1 152 21 152
56 0 9 5 16 10 16 6 0 10 7 10 15 0 8 5 15 11 15 7 0 9 10 7 24 -3 14 1 53 8
88 8 35 14 91 14 125 0 56 -2 62 -22 65 -15 2 -28 15 -37 36 -15 34 -45 43
-55 16 -3 -9 -6 -39 -6 -67 0 -121 -50 -190 -163 -226 -56 -18 -74 -20 -110
-11 -31 8 -58 8 -102 -1 -33 -6 -82 -11 -110 -11 -27 1 -87 -3 -133 -9 -45 -5
-98 -7 -117 -3 -31 6 -33 7 -18 22 19 19 12 117 -13 195 -15 46 -15 52 5 115
18 57 25 108 30 213 1 9 30 35 65 58 71 47 116 92 116 118 0 36 13 43 60 31
33 -9 45 -9 48 0 2 7 17 12 33 12 19 0 29 5 29 15 0 15 57 35 103 35 20 0 27
5 27 19 0 11 -6 21 -13 24 -6 3 1 10 16 16 16 6 35 17 43 25 16 17 19 46 4 46
-5 0 -10 7 -10 15 0 8 -7 15 -15 15 -8 0 -15 5 -15 10 0 6 -6 10 -14 10 -7 0
-16 10 -19 22 -8 29 -1 36 8 9 9 -28 55 -29 55 -2 0 11 -4 23 -10 26 -15 10
-12 35 5 35 8 0 15 -4 15 -10 0 -5 11 -10 25 -10 14 0 25 6 25 13 0 9 10 12
30 9 39 -6 41 21 4 50 -14 12 -21 24 -16 27 6 3 13 23 17 44 6 30 4 37 -9 37
-10 0 -16 9 -16 25 0 32 -27 33 -66 3 -15 -13 -53 -27 -84 -33 -44 -8 -56 -14
-58 -31 -3 -18 -12 -22 -63 -28 -61 -6 -119 -37 -119 -63 0 -7 -4 -13 -10 -13
-5 0 -10 -11 -10 -25 0 -14 -4 -25 -8 -25 -4 0 -13 -31 -21 -70 -18 -97 -30
-140 -42 -140 -15 0 -144 -133 -175 -181 -15 -24 -45 -77 -64 -117 l-37 -73
-24 20 -24 19 28 13 c36 16 53 75 37 124 -14 41 -53 75 -89 76 -21 1 -22 2 -6
6 23 6 109 43 174 76 90 45 183 151 168 191 -10 26 -39 18 -82 -25 -22 -22
-71 -61 -108 -86 -56 -39 -75 -47 -108 -46 -27 1 -67 -10 -119 -33 -91 -40
-159 -45 -188 -16 -25 25 -76 42 -127 42 -68 0 -175 78 -240 176 -28 42 -42
54 -58 52 -32 -4 -32 -38 -2 -102 33 -69 98 -128 193 -173 68 -33 90 -53 58
-53 -22 0 -66 -58 -66 -87 0 -36 29 -93 49 -94 9 0 4 -5 -11 -11 -16 -5 -28
-14 -28 -19 0 -5 -4 -9 -9 -9 -5 0 -11 18 -15 40 -8 51 -78 185 -119 228 -17
18 -46 37 -63 44 -44 16 -74 77 -74 151 0 69 -17 152 -39 192 -24 44 -51 63
-98 71 -23 3 -44 12 -47 20 -3 8 -13 14 -23 14 -10 0 -24 9 -31 20 -7 11 -21
20 -32 20 -11 0 -20 4 -20 9 0 5 -23 11 -52 13 -31 3 -56 12 -63 22 -18 23
-55 21 -55 -4z m1027 -1475 c50 0 89 -4 86 -9 -8 -12 -251 -1 -283 13 -19 8
-10 9 40 3 36 -4 106 -7 157 -7z m33 -123 c3 -2 -1 -7 -7 -9 -7 -3 -13 -13
-13 -24 0 -20 -11 -23 -75 -19 -47 2 -43 0 -55 39 l-9 32 77 -7 c42 -4 79 -9
82 -12z m-676 -37 c-4 -8 -10 -12 -15 -9 -14 8 -10 24 6 24 9 0 12 -6 9 -15z
m646 -121 c0 -11 -34 -33 -51 -34 -9 0 -19 9 -22 20 -4 17 0 20 34 20 21 0 39
-3 39 -6z"/>
</g>
</svg>
