<?xml version="1.0" standalone="no"?>
<!DOCTYPE svg PUBLIC "-//W3C//DTD SVG 20010904//EN"
 "http://www.w3.org/TR/2001/REC-SVG-20010904/DTD/svg10.dtd">
<svg version="1.0" xmlns="http://www.w3.org/2000/svg"
 width="308.000000pt" height="253.000000pt" viewBox="0 0 308.000000 253.000000"
 preserveAspectRatio="xMidYMid meet">
<metadata>
Created by potrace 1.13, written by Peter Selinger 2001-2015
</metadata>
<g transform="translate(0.000000,253.000000) scale(0.100000,-0.100000)"
fill="#000000" stroke="none">
<path d="M1781 2443 c-112 -48 -163 -156 -353 -743 l-40 -124 -20 39 c-11 22
-26 60 -34 85 -20 61 -36 92 -55 110 -9 8 -27 49 -39 90 -12 41 -25 80 -29 85
-4 6 -15 31 -25 58 -10 26 -22 47 -26 47 -22 0 -60 -25 -60 -39 0 -19 21 -77
38 -108 7 -12 12 -28 12 -35 0 -7 9 -30 20 -51 12 -21 20 -56 20 -83 0 -51 7
-67 56 -132 19 -24 33 -47 30 -50 -3 -2 -21 3 -40 12 -19 9 -45 16 -58 16 -21
0 -24 4 -20 33 2 22 -3 39 -16 52 -10 12 -23 34 -29 50 -8 27 -15 30 -55 33
-37 2 -50 -1 -67 -19 -12 -13 -21 -30 -21 -38 0 -9 -12 7 -26 34 -53 102 -63
118 -85 129 -12 6 -28 30 -36 56 -8 25 -20 50 -27 55 -7 6 -16 22 -20 38 -3
15 -10 27 -15 27 -11 0 -26 57 -22 82 5 41 -61 65 -96 36 -17 -14 -16 -43 1
-57 8 -7 18 -25 21 -41 3 -16 12 -34 20 -40 8 -6 17 -25 20 -41 4 -16 12 -32
18 -36 7 -5 25 -34 41 -65 16 -32 32 -58 37 -58 5 0 9 -5 9 -12 0 -6 8 -21 18
-32 23 -25 47 -84 39 -93 -4 -3 -19 -1 -34 5 -43 17 -376 44 -405 33 -34 -13
-51 -36 -43 -62 6 -19 12 -21 56 -15 46 6 220 -11 357 -35 68 -12 73 -19 46
-71 -23 -45 -11 -86 38 -130 45 -41 75 -47 112 -22 24 15 24 14 31 -18 4 -18
16 -48 27 -65 l20 -33 -61 0 c-33 0 -63 -4 -66 -10 -3 -5 -12 -10 -20 -10 -30
0 -121 -41 -150 -68 -46 -42 -77 -59 -120 -66 -46 -8 -113 -43 -128 -67 -8
-12 -5 -26 12 -52 l22 -35 23 21 c13 12 52 33 87 45 35 13 72 28 81 33 10 5
25 9 33 9 9 0 37 20 63 44 58 54 103 78 123 65 8 -5 24 -9 36 -9 12 0 24 -4
27 -9 5 -8 -149 -121 -339 -249 -49 -33 -96 -69 -103 -81 -7 -12 -36 -37 -65
-55 -129 -84 -177 -157 -177 -268 0 -84 22 -131 68 -149 37 -15 143 -3 200 22
101 44 172 81 172 90 0 5 7 9 15 9 8 0 15 4 15 8 0 5 27 6 60 4 51 -4 65 -1
95 19 19 13 35 30 35 37 0 6 7 12 15 12 22 0 117 121 161 205 l39 74 12 -42
c7 -23 13 -50 13 -60 0 -11 7 -31 15 -45 8 -15 31 -62 51 -106 20 -43 52 -94
71 -112 32 -32 35 -38 29 -77 -4 -23 -17 -65 -30 -93 -34 -73 -33 -138 2 -178
40 -46 59 -37 65 32 2 31 15 93 28 137 22 73 26 80 48 77 22 -4 23 -2 17 34
-6 30 -33 81 -56 104 -21 21 -101 123 -125 160 -29 44 -30 48 -27 149 1 58 4
107 7 109 2 2 28 -3 59 -12 52 -15 124 -11 143 8 3 3 24 -8 47 -24 47 -32 150
-83 202 -100 31 -11 34 -15 34 -50 0 -72 19 -136 50 -165 23 -22 28 -34 23
-56 -4 -22 -2 -29 11 -29 9 0 16 -7 16 -15 0 -27 38 -18 42 10 3 24 5 23 56
-28 105 -105 182 -192 182 -209 0 -10 4 -18 9 -18 5 0 11 -13 14 -29 8 -39 33
-61 68 -61 28 0 29 2 29 44 0 26 -6 48 -15 56 -8 7 -27 37 -42 68 -26 54 -127
166 -200 222 -20 15 -33 34 -33 48 0 13 -13 43 -29 66 -37 53 -49 96 -28 96
18 0 64 -35 97 -74 14 -16 35 -39 48 -50 13 -11 22 -31 22 -48 0 -26 3 -28 40
-28 36 0 40 2 40 25 0 22 3 25 28 20 70 -15 118 -29 127 -36 5 -5 21 -9 37 -9
28 0 67 -33 134 -113 17 -20 36 -37 43 -37 23 0 49 37 44 64 -6 32 -122 156
-146 156 -9 0 -17 7 -17 15 0 16 -43 31 -59 20 -19 -11 -177 26 -188 44 -9 14
-2 16 66 17 134 1 227 61 367 237 93 116 203 218 273 252 57 28 61 32 59 60
-4 41 -28 43 -101 7 -60 -30 -200 -155 -255 -227 -79 -102 -223 -225 -283
-240 -20 -5 -27 0 -41 27 -10 18 -20 53 -24 78 -11 83 -52 191 -83 220 -38 36
-87 64 -148 85 -77 27 -74 31 57 65 47 13 87 26 90 30 3 4 17 10 33 14 22 5
27 12 27 37 0 16 -6 32 -13 35 -8 3 -47 -5 -88 -16 -168 -48 -149 -48 -231 -1
-41 24 -95 46 -123 51 -92 15 -92 16 -19 83 117 108 221 283 209 350 -4 18 0
67 9 108 8 41 13 91 10 110 -6 44 -14 147 -14 179 0 51 -11 90 -25 90 -8 0
-15 7 -15 15 0 8 -4 15 -10 15 -5 0 -10 7 -10 15 0 35 -104 47 -169 18z m-20
-256 c-10 -9 -11 -8 -5 6 3 10 9 15 12 12 3 -3 0 -11 -7 -18z m-196 -791 c-11
-8 -24 -12 -28 -9 -11 7 12 23 32 23 11 0 9 -4 -4 -14z m252 -47 c35 -23 63
-42 63 -43 0 -2 -28 3 -62 10 -35 8 -90 14 -123 14 -48 1 -55 3 -37 11 13 5
35 18 49 29 14 11 30 20 36 20 6 0 39 -19 74 -41z m-190 -25 c-3 -3 -12 -4
-19 -1 -8 3 -5 6 6 6 11 1 17 -2 13 -5z m-83 -32 c-6 -4 -26 -31 -44 -59 -17
-29 -34 -53 -37 -53 -8 0 8 62 23 93 11 19 22 27 42 27 15 0 22 -4 16 -8z"/>
</g>
</svg>
