<?xml version="1.0" standalone="no"?>
<!DOCTYPE svg PUBLIC "-//W3C//DTD SVG 20010904//EN"
 "http://www.w3.org/TR/2001/REC-SVG-20010904/DTD/svg10.dtd">
<svg version="1.0" xmlns="http://www.w3.org/2000/svg"
 width="269.000000pt" height="200.000000pt" viewBox="0 0 269.000000 200.000000"
 preserveAspectRatio="xMidYMid meet">
<metadata>
Created by potrace 1.13, written by Peter Selinger 2001-2015
</metadata>
<g transform="translate(0.000000,200.000000) scale(0.100000,-0.100000)"
fill="#000000" stroke="none">
<path d="M1770 1972 c0 -10 5 -23 12 -30 9 -9 9 -15 0 -24 -7 -7 -12 -20 -12
-30 0 -10 -4 -18 -10 -18 -5 0 -10 -9 -10 -19 0 -11 -4 -23 -10 -26 -5 -3 -10
-17 -10 -31 0 -13 -4 -24 -9 -24 -5 0 -11 -15 -14 -32 -16 -88 -19 -98 -38
-98 -21 0 -27 -36 -7 -42 15 -5 -1 -65 -43 -156 -16 -35 -29 -67 -29 -71 0 -4
-5 -12 -11 -18 -13 -13 -30 -1 -42 30 -4 12 -1 17 10 17 26 0 42 32 43 82 0
39 -6 54 -31 83 -17 19 -37 35 -44 35 -8 0 -30 10 -50 21 -52 31 -44 53 23 57
44 3 52 6 52 23 0 17 -7 19 -62 19 -44 0 -67 -5 -81 -17 -15 -13 -21 -15 -24
-5 -7 20 -80 15 -88 -5 -6 -16 -10 -14 -33 13 -19 23 -38 33 -67 37 -22 3 -52
9 -67 12 -24 6 -28 4 -28 -12 0 -23 38 -43 81 -43 65 0 61 -92 -5 -106 -17 -3
-43 -18 -58 -32 -24 -22 -28 -34 -28 -78 0 -46 4 -55 33 -80 22 -20 31 -36 29
-51 -5 -34 -16 -28 -59 29 -54 73 -93 159 -82 180 17 32 11 51 -15 46 -23 -5
-24 -2 -19 23 3 18 1 29 -6 29 -6 0 -11 11 -11 25 0 14 -7 28 -15 31 -9 4 -15
19 -15 35 0 16 -4 29 -10 29 -5 0 -10 8 -10 19 0 10 -7 24 -16 32 -12 10 -14
23 -9 56 6 38 4 43 -14 43 -11 0 -22 -9 -26 -20 -5 -15 -14 -19 -43 -17 -31 2
-37 -2 -40 -19 -2 -14 3 -23 16 -26 12 -3 21 -18 26 -38 3 -19 17 -56 30 -84
30 -65 37 -82 51 -133 10 -35 9 -43 -2 -43 -7 0 -13 -9 -13 -20 0 -15 7 -20
25 -20 18 0 26 -7 31 -26 7 -26 75 -136 101 -162 7 -7 13 -17 13 -21 0 -4 11
-14 25 -21 14 -7 25 -18 25 -24 0 -6 14 -29 30 -50 31 -41 42 -103 17 -93 -8
3 -59 8 -115 12 -72 5 -106 12 -119 24 -54 49 -116 90 -180 121 -40 19 -73 37
-73 40 0 4 -20 17 -46 30 -25 13 -56 33 -68 45 -13 12 -31 25 -40 28 -9 4 -16
11 -16 17 0 5 -7 10 -15 10 -16 0 -18 9 -15 48 2 31 -37 31 -45 -1 -3 -12 -19
-31 -35 -42 -40 -27 -40 -55 0 -55 18 0 33 -6 36 -15 4 -8 17 -15 30 -15 15 0
24 -6 24 -15 0 -8 6 -15 13 -15 7 0 23 -13 37 -30 14 -16 30 -30 37 -30 7 0
13 -4 13 -8 0 -12 86 -58 137 -72 23 -7 56 -28 74 -46 l33 -34 -46 0 c-81 0
-341 -61 -383 -90 -5 -3 -29 -12 -52 -20 -23 -7 -51 -21 -62 -32 -11 -10 -29
-18 -40 -18 -11 0 -39 -15 -64 -34 -24 -19 -53 -39 -64 -44 -10 -6 -32 -34
-47 -62 -22 -40 -27 -60 -23 -87 7 -42 23 -63 48 -63 11 0 19 -5 19 -11 0 -15
59 -37 147 -55 42 -9 83 -23 91 -30 8 -8 32 -24 55 -35 36 -19 50 -20 131 -14
50 5 154 8 231 9 123 1 143 3 167 21 15 11 28 23 28 28 0 18 39 4 55 -20 10
-16 40 -50 66 -76 27 -26 49 -51 49 -56 0 -4 -13 -25 -30 -47 -16 -21 -30 -43
-30 -48 0 -4 -11 -17 -25 -28 -14 -11 -25 -26 -25 -34 0 -8 -4 -14 -10 -14 -5
0 -12 -11 -16 -25 -3 -14 -10 -25 -15 -25 -4 0 -20 -27 -35 -60 -19 -42 -32
-60 -45 -60 -12 0 -19 -7 -19 -20 0 -15 7 -20 30 -20 46 0 74 18 98 63 12 23
37 58 55 77 17 20 38 48 44 63 7 15 17 27 23 27 5 0 17 15 26 32 l17 33 12
-45 c20 -77 66 -161 116 -213 l48 -50 60 6 c62 5 84 20 136 92 24 33 74 152
75 180 1 11 5 29 9 39 7 18 9 16 24 -14 9 -18 17 -39 17 -47 0 -7 6 -13 14
-13 8 0 16 -11 20 -23 7 -29 121 -147 141 -147 8 0 15 -7 15 -15 0 -8 9 -15
20 -15 11 0 20 5 20 10 0 6 6 10 14 10 14 0 26 21 26 47 0 9 -8 13 -22 11 -17
-2 -37 11 -70 45 -27 26 -48 54 -48 61 0 8 -7 16 -15 20 -8 3 -15 14 -15 25 0
11 -8 26 -18 33 -10 7 -26 25 -36 39 -16 26 -16 29 31 127 28 60 53 99 60 97
7 -2 60 -9 119 -16 162 -18 371 5 488 55 21 9 47 16 56 16 10 0 31 11 47 23
15 13 49 34 75 47 26 13 61 37 77 54 34 35 57 109 48 148 -11 42 -57 89 -112
113 -122 54 -422 105 -619 105 l-109 0 44 45 c24 25 74 63 111 86 36 22 69 47
72 55 3 8 16 14 30 14 13 0 26 7 30 15 3 8 14 15 25 15 11 0 22 4 26 9 3 5 19
12 35 16 17 4 30 10 30 14 0 4 23 14 50 21 37 10 50 18 50 32 0 10 -4 18 -9
18 -5 0 -13 9 -16 20 -6 19 -12 20 -53 14 -26 -3 -52 -13 -59 -21 -12 -16 -44
-36 -73 -48 -8 -4 -23 -11 -32 -16 -10 -5 -24 -9 -32 -9 -8 0 -17 -7 -20 -15
-3 -9 -20 -22 -38 -30 -18 -7 -44 -23 -58 -35 -14 -12 -35 -29 -46 -39 -12
-10 -42 -31 -67 -45 -24 -15 -65 -47 -90 -71 -34 -33 -57 -46 -84 -49 -21 -3
-57 -8 -80 -11 -37 -4 -43 -3 -43 13 0 9 13 33 28 52 39 49 144 237 159 285 7
22 13 52 13 66 0 14 11 36 25 49 27 25 33 55 13 63 -10 4 -10 6 0 6 6 1 12 12
12 25 0 14 4 27 9 30 4 3 11 28 15 55 4 28 10 53 15 55 5 3 11 24 15 47 5 29
12 43 26 46 12 3 20 14 20 25 0 17 -5 20 -36 16 -27 -3 -38 0 -45 14 -13 24
-49 24 -49 0z m-415 -432 c4 -6 -7 -10 -25 -10 -18 0 -29 4 -25 10 3 6 15 10
25 10 10 0 22 -4 25 -10z m2 -226 c-3 -3 -12 -4 -19 -1 -8 3 -5 6 6 6 11 1 17
-2 13 -5z m650 -290 c-3 -3 -12 -4 -19 -1 -8 3 -5 6 6 6 11 1 17 -2 13 -5z
m101 -4 c-10 -6 -25 -7 -40 -1 -20 9 -18 10 17 10 31 0 36 -2 23 -9z m77 -10
c3 -6 -1 -7 -9 -4 -18 7 -21 14 -7 14 6 0 13 -4 16 -10z m-1565 -56 c-36 -13
-99 -38 -141 -54 -42 -17 -81 -30 -87 -30 -7 0 -12 -4 -12 -9 0 -5 -15 -11
-32 -15 -18 -4 -68 -23 -110 -43 -56 -26 -78 -41 -78 -55 0 -25 29 -23 83 8
64 35 107 47 107 28 0 -33 70 -5 71 29 0 12 3 16 6 10 8 -21 43 -16 43 6 0 11
5 23 10 26 6 3 10 1 10 -4 0 -19 35 -12 133 29 103 43 146 53 82 19 -22 -12
-41 -25 -43 -30 -2 -5 -10 -9 -18 -9 -8 0 -14 -4 -14 -10 0 -5 -7 -10 -15 -10
-8 0 -15 -7 -15 -15 0 -8 -7 -15 -16 -15 -40 0 -61 -59 -21 -61 l22 0 -23 -11
c-12 -6 -25 -22 -28 -35 -4 -12 -12 -23 -19 -23 -19 0 -55 -35 -55 -54 0 -9 8
-16 20 -16 11 0 20 4 20 9 0 5 9 13 20 16 11 3 20 13 20 21 0 16 36 19 73 5
23 -9 25 -12 15 -48 -9 -36 -13 -40 -61 -51 -83 -19 -137 -15 -182 13 -22 13
-47 25 -56 25 -9 0 -19 6 -22 14 -3 8 -28 17 -59 21 -49 6 -77 14 -120 36 -10
5 -23 9 -30 9 -7 0 -22 12 -32 27 -19 26 -19 26 4 69 24 46 80 87 105 78 8 -3
39 4 70 15 31 12 64 21 75 21 10 0 20 3 22 8 3 8 182 52 213 52 11 0 38 7 60
15 22 8 47 14 55 14 8 0 -14 -11 -50 -25z m1342 -4 c87 -17 138 -32 138 -40 0
-13 -44 -20 -51 -8 -4 6 -18 8 -33 4 -15 -4 -26 -2 -26 4 0 5 -9 10 -20 10
-11 0 -20 5 -20 10 0 6 -9 10 -19 10 -11 0 -23 5 -26 10 -8 12 -8 12 57 0z
m616 -6 c17 -3 32 -13 32 -20 0 -8 9 -14 20 -14 21 0 27 -24 12 -47 -6 -9 -16
-8 -41 5 -19 9 -29 18 -23 20 7 2 12 13 12 24 0 17 -5 20 -30 15 -17 -4 -30
-2 -30 3 0 6 -9 10 -20 10 -11 0 -20 -4 -20 -10 0 -5 -7 -10 -15 -10 -16 0
-20 21 -8 34 8 7 44 4 111 -10z m-968 -86 l6 -48 -32 0 c-19 0 -49 11 -70 25
l-37 25 32 0 c36 0 71 30 71 63 1 21 1 21 12 2 7 -11 15 -41 18 -67z m-675 42
c-3 -5 -11 -10 -16 -10 -6 0 -7 5 -4 10 3 6 11 10 16 10 6 0 7 -4 4 -10z
m1307 -11 c60 -16 78 -25 78 -39 0 -10 8 -21 18 -25 15 -6 14 -8 -8 -17 -16
-6 -26 -6 -28 1 -4 13 -42 15 -42 2 0 -12 -64 6 -68 19 -2 6 -12 10 -23 10
-16 0 -18 5 -13 26 4 17 2 29 -7 35 -24 15 8 11 93 -12z m-1045 -18 c12 -6 37
-11 55 -11 32 0 31 -1 -20 -25 -82 -38 -90 -35 -76 35 4 17 10 27 13 22 3 -5
16 -14 28 -21z m-355 -21 c-34 -22 -62 -44 -62 -50 0 -5 -6 -10 -14 -10 -8 0
-17 -6 -19 -12 -3 -8 -6 -6 -6 5 -1 9 -9 17 -18 17 -10 1 9 15 42 32 33 17 62
34 65 38 5 8 33 17 59 19 8 0 -14 -17 -47 -39z m166 16 c-8 -7 -20 -32 -28
-55 -10 -33 -23 -47 -52 -62 -21 -11 -38 -26 -38 -34 0 -11 -7 -14 -22 -10
-13 3 -40 8 -60 13 -36 7 -36 8 -19 28 23 28 127 97 176 117 50 20 60 21 43 3z
m58 -31 c-12 -24 -27 -44 -34 -45 -8 0 -1 18 18 45 17 25 32 45 34 45 2 0 -6
-20 -18 -45z m389 35 c3 -5 -3 -10 -14 -10 -12 0 -21 5 -21 10 0 6 6 10 14 10
8 0 18 -4 21 -10z m422 -46 c84 -58 118 -91 127 -126 4 -20 13 -28 28 -28 19
0 47 -25 48 -42 0 -5 -43 -8 -95 -8 -84 0 -95 2 -95 18 0 9 -3 27 -6 40 -5 18
-2 22 15 22 14 0 21 6 21 20 0 15 -7 20 -25 20 -19 0 -28 9 -44 46 -11 25 -31
54 -43 64 -44 37 2 19 69 -26z m-102 -19 c33 -32 31 -38 -5 -17 -16 9 -30 23
-30 30 0 18 8 15 35 -13z m241 7 c10 -9 40 -28 67 -42 42 -23 60 -40 40 -40
-5 0 -18 -3 -30 -6 -17 -5 -23 -2 -23 10 0 9 -4 16 -8 16 -4 0 -28 18 -52 40
-26 23 -38 40 -29 40 8 0 24 -8 35 -18z m524 -32 c7 -13 6 -19 -3 -23 -8 -3
-18 7 -24 23 -9 23 -8 28 3 23 8 -3 19 -13 24 -23z m-1920 16 c0 -3 -4 -8 -10
-11 -5 -3 -10 -1 -10 4 0 6 5 11 10 11 6 0 10 -2 10 -4z m28 -62 c-13 -14 -24
-20 -26 -14 -2 6 4 18 14 25 30 23 36 17 12 -11z m1650 11 c22 0 32 -5 32 -15
0 -9 6 -25 14 -36 13 -18 12 -21 -10 -31 -19 -9 -24 -8 -24 3 0 8 -9 19 -20
26 -11 7 -20 21 -20 30 0 12 -8 18 -22 18 -13 0 -30 5 -38 11 -11 7 -5 8 20 2
19 -4 50 -8 68 -8z m-666 -41 c7 -9 23 -26 34 -39 18 -19 19 -27 10 -43 -6
-11 -20 -36 -32 -57 l-21 -38 -12 82 c-7 46 -15 89 -18 97 -7 19 23 18 39 -2z
m208 -34 c6 -33 5 -40 -9 -40 -36 0 -42 14 -26 54 19 44 25 42 35 -14z m-725
-46 l-7 -76 -34 33 -34 33 24 21 c14 12 30 34 36 50 17 45 23 22 15 -61z
m1075 71 c0 -8 8 -15 18 -15 9 0 28 -9 42 -19 l24 -19 -39 -7 c-99 -15 -92
-16 -88 10 4 18 0 24 -18 28 -23 4 -23 4 2 6 15 0 29 8 33 16 3 8 10 15 16 15
5 0 10 -7 10 -15z m-1170 -25 c13 -8 13 -10 -2 -10 -9 0 -20 5 -23 10 -8 13 5
13 25 0z"/>
<path d="M300 771 c0 -5 -10 -11 -22 -13 -15 -2 -24 -11 -26 -25 -3 -20 1 -23
26 -23 17 0 51 -9 77 -20 72 -31 145 -24 145 12 0 18 -4 20 -32 14 -44 -9
-128 21 -128 46 0 11 -7 18 -20 18 -11 0 -20 -4 -20 -9z"/>
<path d="M1880 770 c0 -13 7 -20 20 -20 13 0 20 7 20 20 0 13 -7 20 -20 20
-13 0 -20 -7 -20 -20z"/>
</g>
</svg>
