<?xml version="1.0" standalone="no"?>
<!DOCTYPE svg PUBLIC "-//W3C//DTD SVG 20010904//EN"
 "http://www.w3.org/TR/2001/REC-SVG-20010904/DTD/svg10.dtd">
<svg version="1.0" xmlns="http://www.w3.org/2000/svg"
 width="346.000000pt" height="311.000000pt" viewBox="0 0 346.000000 311.000000"
 preserveAspectRatio="xMidYMid meet">
<metadata>
Created by potrace 1.13, written by Peter Selinger 2001-2015
</metadata>
<g transform="translate(0.000000,311.000000) scale(0.100000,-0.100000)"
fill="#000000" stroke="none">
<path d="M3081 3074 c-29 -13 -64 -24 -77 -24 -14 0 -24 -6 -24 -14 0 -7 -15
-25 -33 -39 -63 -48 -257 -251 -257 -269 0 -8 -37 -65 -50 -78 -3 -3 -11 -16
-17 -30 l-12 -25 0 28 c-1 15 -7 27 -14 27 -14 0 -37 74 -37 120 0 23 -4 30
-20 30 -15 0 -20 -7 -20 -25 0 -25 -23 -35 -35 -15 -3 6 -15 10 -26 10 -28 0
-24 -34 6 -58 14 -11 25 -24 25 -30 0 -5 18 -48 40 -95 39 -84 40 -87 26 -124
-28 -70 -37 -164 -41 -391 -2 -125 -6 -242 -10 -259 -10 -44 -35 -44 -35 0 0
19 -9 83 -19 143 -24 134 -29 178 -41 374 -10 153 -25 256 -42 275 -4 5 -8 18
-8 30 0 28 -42 114 -74 153 -18 21 -37 32 -53 32 -30 0 -93 -44 -93 -66 0 -7
-4 -14 -9 -14 -5 0 -13 -12 -19 -27 -14 -37 -73 -204 -79 -223 -3 -10 -6 -11
-11 -3 -4 6 -16 12 -27 14 -10 2 -34 24 -53 49 -18 25 -39 52 -45 60 -7 8 -21
29 -31 45 -11 17 -42 53 -69 80 -27 28 -56 59 -63 70 -14 22 -18 73 -8 123 5
26 3 32 -11 32 -9 0 -26 -11 -37 -25 -23 -29 -33 -30 -72 -10 -41 22 -58 19
-54 -7 2 -14 15 -29 34 -38 24 -11 34 -25 43 -57 6 -24 15 -43 21 -43 5 0 10
-6 10 -13 0 -14 19 -40 78 -105 32 -35 32 -36 12 -44 -11 -4 -23 -16 -26 -25
-3 -10 -10 -26 -15 -35 -5 -10 -9 -25 -9 -33 0 -21 -4 -20 -70 24 -95 63 -191
110 -250 122 -30 6 -106 11 -169 10 -180 -1 -391 -60 -391 -111 0 -10 17 -36
38 -57 45 -48 62 -70 62 -78 0 -21 140 -213 202 -277 48 -50 70 -79 61 -82 -7
-3 -13 -2 -13 3 0 13 -58 34 -76 27 -10 -4 -31 7 -57 29 -23 20 -53 39 -67 42
-14 3 -36 17 -49 30 -13 12 -31 23 -40 23 -17 0 -82 30 -104 48 -7 6 -36 18
-65 27 -30 10 -56 24 -59 31 -6 15 -43 19 -43 5 0 -4 -11 -6 -25 -3 -20 3 -25
0 -25 -15 0 -11 8 -27 18 -35 23 -21 158 -88 177 -88 8 0 15 -4 15 -10 0 -5 5
-10 11 -10 16 0 119 -51 119 -59 0 -4 34 -29 75 -55 41 -26 75 -48 75 -50 0
-1 -35 -2 -78 -3 -93 -2 -128 -14 -143 -47 l-12 -25 -201 2 c-248 2 -392 -20
-532 -83 -56 -25 -66 -41 -67 -109 l-2 -59 58 -54 c31 -30 57 -59 57 -64 0
-16 175 -88 260 -107 36 -8 124 -29 195 -46 72 -17 155 -36 185 -41 30 -6 80
-14 110 -20 171 -30 436 -83 443 -89 4 -4 -11 -7 -33 -6 -21 0 -42 4 -46 8
-13 13 -44 7 -44 -8 0 -11 -8 -13 -30 -8 -17 3 -30 1 -30 -5 0 -11 -103 -62
-126 -62 -26 0 -12 -43 16 -51 14 -4 19 -7 13 -8 -22 -2 -15 -41 7 -41 13 0
20 7 20 19 0 13 9 21 29 26 16 3 35 12 41 20 6 7 20 11 30 8 11 -3 26 0 34 6
8 7 70 16 139 22 131 10 135 9 242 -42 11 -5 54 -10 95 -12 60 -2 83 2 115 19
51 27 141 23 150 -6 3 -10 17 -30 30 -44 13 -14 20 -26 16 -26 -13 0 -41 -64
-41 -92 0 -18 -8 -27 -32 -36 -76 -27 -158 -137 -158 -210 0 -98 42 -182 92
-182 21 0 35 44 21 63 -17 21 -33 102 -25 130 8 31 74 105 80 88 2 -6 -3 -39
-12 -74 -18 -72 -16 -373 3 -467 7 -30 14 -69 17 -87 4 -18 12 -38 20 -44 8
-6 14 -21 14 -33 0 -11 7 -30 15 -40 13 -17 13 -22 0 -42 -25 -38 -20 -58 13
-49 15 3 42 9 61 12 21 3 35 12 38 23 4 15 12 17 44 13 35 -5 39 -3 39 15 0
25 -27 42 -67 42 -26 0 -33 8 -65 73 -50 101 -58 144 -61 342 -2 117 6 177 40
302 15 54 21 62 46 67 52 11 75 7 82 -13 12 -38 64 -81 98 -81 20 0 138 -72
144 -87 3 -7 11 -13 19 -13 8 0 14 -4 14 -10 0 -15 58 -12 95 5 59 29 75 51
75 106 0 35 4 51 15 56 20 7 55 75 55 105 0 13 -6 47 -14 76 -16 62 -12 68 64
107 l47 24 22 -57 c65 -164 103 -235 142 -263 16 -11 29 -25 29 -32 0 -6 20
-29 44 -52 24 -22 53 -58 64 -80 11 -22 30 -50 42 -63 12 -13 26 -39 32 -59 9
-34 11 -35 45 -28 45 8 63 26 70 70 5 33 2 39 -37 73 -98 85 -190 182 -190
202 0 11 -6 20 -14 20 -21 0 -83 76 -110 135 -14 27 -26 71 -29 98 -4 40 -2
47 13 47 49 0 125 -52 151 -102 19 -37 32 -44 63 -32 12 5 16 20 16 59 0 48
-4 56 -39 93 -45 46 -84 60 -188 69 -58 5 -73 9 -73 22 0 9 -9 31 -21 50 -19
32 -22 33 -67 28 -26 -4 -60 -9 -76 -13 -28 -7 -28 -7 -13 21 8 17 36 39 68
55 73 36 81 54 75 165 l-5 90 56 105 c31 58 83 152 116 210 191 331 266 523
297 755 19 148 4 292 -35 332 -20 20 -73 15 -134 -13z"/>
</g>
</svg>
