<?xml version="1.0" standalone="no"?>
<!DOCTYPE svg PUBLIC "-//W3C//DTD SVG 20010904//EN"
 "http://www.w3.org/TR/2001/REC-SVG-20010904/DTD/svg10.dtd">
<svg version="1.0" xmlns="http://www.w3.org/2000/svg"
 width="640.000000pt" height="480.000000pt" viewBox="0 0 640.000000 480.000000"
 preserveAspectRatio="xMidYMid meet">
<metadata>
Created by potrace 1.13, written by Peter Selinger 2001-2015
</metadata>
<g transform="translate(0.000000,480.000000) scale(0.100000,-0.100000)"
fill="#000000" stroke="none">
<path d="M2814 4511 c-23 -14 -36 -33 -47 -68 -22 -68 -44 -202 -51 -313 -8
-118 -29 -249 -66 -405 -40 -170 -68 -303 -75 -353 -8 -52 -25 -45 -25 11 -1
23 -7 69 -15 102 -18 74 -19 325 -3 475 21 186 11 450 -18 497 -8 13 -24 25
-37 28 -29 8 -112 -28 -126 -54 -17 -30 -53 -262 -47 -296 3 -16 10 -193 15
-392 6 -199 13 -396 17 -439 l7 -78 -32 25 c-17 13 -46 34 -63 46 -49 36 -86
95 -104 164 -18 68 -16 203 7 554 5 83 12 205 15 272 6 121 6 122 -19 147 -34
33 -76 34 -115 1 -43 -36 -50 -65 -56 -215 -2 -74 -11 -182 -20 -240 -27 -183
-31 -325 -11 -404 25 -98 101 -266 178 -393 108 -177 102 -140 101 -583 0
-299 -4 -417 -17 -529 -9 -79 -17 -167 -17 -195 0 -45 -11 -113 -40 -241 -13
-57 -12 -661 1 -780 14 -130 27 -165 67 -188 46 -27 182 -36 216 -14 20 13 29
14 55 4 26 -10 37 -9 59 3 39 22 78 101 86 173 8 83 33 178 63 246 49 109 77
238 98 461 8 85 24 214 36 285 15 96 22 211 29 435 4 168 13 373 20 455 6 83
10 216 8 296 l-3 147 32 11 c32 12 106 96 150 171 27 46 117 263 133 320 7 25
19 65 28 90 12 32 17 87 19 190 2 150 23 313 47 371 7 19 17 55 20 81 6 42 4
51 -18 73 -34 33 -69 32 -128 -6 -47 -30 -78 -71 -78 -103 0 -8 -10 -31 -23
-49 -21 -31 -25 -53 -35 -223 -7 -104 -14 -232 -16 -284 -3 -61 -11 -113 -24
-145 -11 -27 -32 -90 -48 -140 -27 -86 -80 -186 -113 -212 -8 -7 -30 -13 -48
-13 -41 0 -42 11 -9 117 59 186 67 236 102 572 8 85 21 173 29 195 18 55 45
211 45 264 0 80 -67 115 -136 73z"/>
</g>
</svg>
