<?xml version="1.0" standalone="no"?>
<!DOCTYPE svg PUBLIC "-//W3C//DTD SVG 20010904//EN"
 "http://www.w3.org/TR/2001/REC-SVG-20010904/DTD/svg10.dtd">
<svg version="1.0" xmlns="http://www.w3.org/2000/svg"
 width="640.000000pt" height="480.000000pt" viewBox="0 0 640.000000 480.000000"
 preserveAspectRatio="xMidYMid meet">
<metadata>
Created by potrace 1.13, written by Peter Selinger 2001-2015
</metadata>
<g transform="translate(0.000000,480.000000) scale(0.100000,-0.100000)"
fill="#000000" stroke="none">
<path d="M960 3030 c-8 -5 -34 -10 -58 -10 -32 0 -49 -6 -67 -25 -32 -31 -32
-59 0 -91 23 -23 32 -25 73 -20 154 18 224 22 277 15 33 -5 101 -13 150 -19
50 -5 126 -14 171 -20 44 -5 155 -10 246 -10 91 0 199 -3 241 -6 l77 -7 0 -89
0 -90 -317 6 c-174 4 -321 10 -327 14 -6 3 -84 8 -174 9 -161 3 -163 3 -188
-22 -31 -31 -31 -59 0 -90 24 -24 27 -25 188 -22 116 2 169 -1 183 -9 14 -9
112 -15 328 -20 l307 -7 0 -158 0 -159 -172 -2 c-95 0 -303 -2 -461 -2 l-289
-1 -19 -24 c-10 -13 -19 -31 -19 -41 0 -10 9 -28 19 -41 l19 -24 289 -1 c158
0 366 -2 461 -2 l172 -2 0 -71 c0 -64 -2 -70 -17 -63 -32 14 -341 16 -546 4
-111 -7 -295 -15 -408 -19 -171 -5 -210 -9 -232 -24 -45 -30 -45 -92 1 -116
18 -9 353 0 667 19 112 7 251 9 340 5 251 -12 325 -10 393 8 37 10 100 17 152
17 138 0 134 -7 131 234 l-3 196 1746 0 1746 0 0 145 0 145 -1745 0 -1745 0 0
150 c0 122 3 155 16 175 10 16 14 34 10 50 -13 52 -18 53 -486 65 -411 10
-524 16 -750 41 -137 15 -362 20 -380 9z"/>
</g>
</svg>
