<?xml version="1.0" standalone="no"?>
<!DOCTYPE svg PUBLIC "-//W3C//DTD SVG 20010904//EN"
 "http://www.w3.org/TR/2001/REC-SVG-20010904/DTD/svg10.dtd">
<svg version="1.0" xmlns="http://www.w3.org/2000/svg"
 width="640.000000pt" height="480.000000pt" viewBox="0 0 640.000000 480.000000"
 preserveAspectRatio="xMidYMid meet">
<metadata>
Created by potrace 1.13, written by Peter Selinger 2001-2015
</metadata>
<g transform="translate(0.000000,480.000000) scale(0.100000,-0.100000)"
fill="#000000" stroke="none">
<path d="M1735 3581 c-4 -3 -46 -9 -93 -13 -174 -13 -231 -32 -254 -84 -14
-31 2 -70 37 -86 20 -9 35 -7 77 7 78 27 197 35 563 39 427 4 399 15 450 -181
13 -51 36 -115 50 -142 38 -77 36 -82 -37 -75 -35 3 -69 8 -77 10 -8 3 -233 1
-500 -2 l-485 -7 -23 -23 c-30 -30 -29 -59 3 -91 l26 -25 457 4 c253 3 482 1
512 -4 30 -5 68 -10 84 -10 17 0 49 -2 72 -5 l42 -4 15 -69 c9 -38 16 -106 16
-151 l0 -82 -472 6 c-478 7 -585 2 -686 -28 -87 -26 -108 -96 -40 -134 24 -14
34 -13 100 4 69 19 102 20 568 17 272 -2 496 -5 498 -7 2 -1 -17 -54 -42 -117
-25 -62 -57 -152 -72 -198 -21 -69 -40 -103 -98 -179 l-71 -94 -360 7 c-197 4
-367 12 -376 17 -10 5 -47 9 -84 9 -57 0 -69 -3 -90 -25 -30 -29 -32 -55 -6
-86 16 -20 32 -25 103 -32 140 -13 413 -25 611 -26 106 -1 197 -5 207 -11 11
-6 38 -7 62 -4 53 9 91 44 86 81 -2 18 6 36 26 57 36 39 154 232 206 337 22
45 50 123 62 175 l23 94 71 0 c56 0 77 4 97 20 25 20 40 20 1251 20 l1226 0 0
-35 0 -35 125 0 125 0 0 300 0 300 -125 0 -125 0 0 -35 0 -35 -1265 0 -1265 0
0 20 c0 30 -44 70 -77 70 -28 0 -31 6 -83 138 -103 265 -131 304 -268 375
l-67 35 -352 0 c-193 0 -355 -3 -358 -7z"/>
</g>
</svg>
