<?xml version="1.0" standalone="no"?>
<!DOCTYPE svg PUBLIC "-//W3C//DTD SVG 20010904//EN"
 "http://www.w3.org/TR/2001/REC-SVG-20010904/DTD/svg10.dtd">
<svg version="1.0" xmlns="http://www.w3.org/2000/svg"
 width="640.000000pt" height="480.000000pt" viewBox="0 0 640.000000 480.000000"
 preserveAspectRatio="xMidYMid meet">
<metadata>
Created by potrace 1.13, written by Peter Selinger 2001-2015
</metadata>
<g transform="translate(0.000000,480.000000) scale(0.100000,-0.100000)"
fill="#000000" stroke="none">
<path d="M3075 4316 c-13 -13 -26 -35 -29 -48 -9 -45 -26 -306 -26 -402 0
-187 -53 -371 -148 -510 -48 -70 -116 -135 -129 -122 -4 4 1 46 10 94 10 48
22 125 27 172 6 47 20 137 31 201 14 79 18 122 12 134 -7 11 -4 28 8 53 12 24
22 82 28 165 16 183 15 194 -14 222 -30 31 -59 32 -89 2 -20 -20 -25 -38 -30
-118 -4 -52 -12 -131 -17 -177 -6 -51 -6 -89 0 -99 6 -12 4 -24 -6 -40 -18
-27 -45 -167 -63 -318 -6 -55 -18 -127 -26 -160 -7 -33 -14 -81 -14 -106 0
-54 -21 -79 -67 -79 l-31 0 -7 96 c-5 57 -3 137 4 196 6 54 11 147 11 206 0
59 5 135 10 170 5 35 12 137 16 227 l7 163 -26 26 c-31 31 -56 33 -88 7 -22
-18 -24 -30 -36 -197 -23 -320 -37 -596 -37 -726 -1 -71 -3 -128 -5 -128 -2 0
-29 20 -59 45 -30 25 -58 45 -61 45 -19 0 -73 94 -87 152 -18 68 -17 168 6
568 6 107 8 205 5 217 -13 55 -89 67 -120 19 -19 -29 -40 -365 -40 -641 0
-181 1 -193 26 -250 29 -70 110 -180 149 -204 15 -9 39 -30 53 -46 14 -17 47
-41 75 -54 55 -26 78 -58 88 -122 3 -24 12 -63 20 -87 18 -56 18 -173 -2 -242
-11 -41 -16 -120 -19 -320 -2 -146 -9 -319 -15 -385 -22 -239 -31 -308 -42
-328 -26 -49 -47 -184 -48 -299 0 -64 -7 -176 -16 -250 -9 -75 -14 -166 -10
-208 5 -72 6 -77 45 -113 23 -21 50 -37 64 -37 33 0 73 34 98 83 18 35 20 51
15 121 -5 57 -3 102 8 154 9 40 16 103 16 140 0 78 36 441 49 492 20 77 40
223 51 360 6 80 15 177 20 215 5 39 12 174 14 300 4 187 9 245 25 310 12 44
21 97 21 117 0 47 55 113 106 127 50 14 130 76 174 136 70 95 139 237 166 341
21 79 27 138 35 294 4 107 13 233 19 280 14 123 13 138 -15 165 -31 31 -59 32
-90 1z"/>
</g>
</svg>
