<?xml version="1.0" standalone="no"?>
<!DOCTYPE svg PUBLIC "-//W3C//DTD SVG 20010904//EN"
 "http://www.w3.org/TR/2001/REC-SVG-20010904/DTD/svg10.dtd">
<svg version="1.0" xmlns="http://www.w3.org/2000/svg"
 width="640.000000pt" height="480.000000pt" viewBox="0 0 640.000000 480.000000"
 preserveAspectRatio="xMidYMid meet">
<metadata>
Created by potrace 1.13, written by Peter Selinger 2001-2015
</metadata>
<g transform="translate(0.000000,480.000000) scale(0.100000,-0.100000)"
fill="#000000" stroke="none">
<path d="M1870 4562 c-19 -15 -25 -36 -36 -118 -7 -54 -13 -120 -14 -146 0
-26 -9 -100 -21 -165 -27 -152 -36 -430 -19 -554 6 -50 22 -122 35 -160 12
-38 20 -80 18 -93 -4 -17 3 -33 20 -50 30 -30 53 -33 84 -11 29 20 43 12 75
-40 14 -24 46 -58 70 -75 24 -17 58 -44 76 -60 35 -32 111 -73 152 -83 l25 -6
0 -428 0 -428 -28 -125 c-15 -69 -35 -156 -44 -195 -8 -38 -24 -95 -34 -125
-10 -30 -23 -93 -29 -140 -11 -89 -32 -1163 -24 -1215 23 -141 58 -218 110
-242 32 -16 38 -16 62 -2 32 17 77 96 92 159 6 25 17 106 25 180 8 74 21 191
30 260 28 233 36 449 23 675 -9 177 -9 237 4 380 16 176 34 271 63 340 29 68
45 137 86 365 11 63 30 167 41 230 11 63 23 156 25 207 l5 91 66 13 c57 10 72
18 111 56 24 24 56 50 71 58 25 13 74 78 170 226 48 74 160 306 160 331 0 7
11 35 24 63 87 177 135 344 147 510 13 161 7 209 -31 247 -35 34 -63 36 -96 3
-23 -24 -24 -28 -22 -152 l3 -128 -58 -169 c-32 -93 -56 -174 -53 -181 2 -7 1
-16 -4 -21 -5 -5 -25 -58 -45 -118 -69 -207 -135 -312 -295 -475 -41 -42 -79
-84 -85 -93 -5 -9 -27 -19 -47 -22 -36 -7 -38 -6 -38 21 0 30 42 207 61 258
12 31 19 48 68 155 16 36 40 103 53 150 22 82 23 97 20 415 -2 303 -4 332 -21
355 -27 36 -64 47 -94 27 -41 -27 -87 -162 -97 -287 -13 -148 -39 -362 -47
-380 -3 -8 -12 -51 -20 -95 -8 -44 -18 -105 -24 -135 -5 -30 -14 -82 -19 -115
-13 -96 -74 -246 -113 -283 l-24 -23 -23 48 c-12 26 -35 111 -51 188 -16 77
-33 153 -39 169 -13 38 -12 386 2 601 16 239 14 287 -9 327 -40 68 -101 63
-163 -14 -33 -41 -40 -58 -35 -78 3 -14 12 -174 20 -357 7 -182 16 -336 20
-342 3 -6 10 -78 15 -160 10 -164 25 -222 91 -353 21 -43 34 -78 28 -78 -47 0
-179 127 -224 215 -20 39 -48 86 -64 105 -51 64 -61 109 -62 290 -1 91 3 228
9 305 6 77 8 214 5 305 -6 154 -8 166 -29 187 -28 28 -54 29 -84 5z"/>
</g>
</svg>
