<?xml version="1.0" standalone="no"?>
<!DOCTYPE svg PUBLIC "-//W3C//DTD SVG 20010904//EN"
 "http://www.w3.org/TR/2001/REC-SVG-20010904/DTD/svg10.dtd">
<svg version="1.0" xmlns="http://www.w3.org/2000/svg"
 width="640.000000pt" height="480.000000pt" viewBox="0 0 640.000000 480.000000"
 preserveAspectRatio="xMidYMid meet">
<metadata>
Created by potrace 1.13, written by Peter Selinger 2001-2015
</metadata>
<g transform="translate(0.000000,480.000000) scale(0.100000,-0.100000)"
fill="#000000" stroke="none">
<path d="M720 2850 l0 -50 670 0 670 0 0 -115 0 -115 -670 0 -670 0 0 -50 0
-50 670 0 670 0 0 -85 0 -85 -675 0 -675 0 0 -55 0 -55 675 0 675 0 0 -80 0
-80 -675 0 -675 0 0 -55 0 -55 920 0 920 0 0 165 0 165 1745 0 1745 0 0 145 0
145 -1745 0 -1745 0 0 173 0 174 -187 6 c-104 4 -515 7 -915 7 l-728 0 0 -50z"/>
</g>
</svg>
