<?xml version="1.0" standalone="no"?>
<!DOCTYPE svg PUBLIC "-//W3C//DTD SVG 20010904//EN"
 "http://www.w3.org/TR/2001/REC-SVG-20010904/DTD/svg10.dtd">
<svg version="1.0" xmlns="http://www.w3.org/2000/svg"
 width="640.000000pt" height="480.000000pt" viewBox="0 0 640.000000 480.000000"
 preserveAspectRatio="xMidYMid meet">
<metadata>
Created by potrace 1.13, written by Peter Selinger 2001-2015
</metadata>
<g transform="translate(0.000000,480.000000) scale(0.100000,-0.100000)"
fill="#000000" stroke="none">
<path d="M1813 4331 c-23 -11 -46 -28 -51 -38 -36 -68 -41 -410 -8 -558 44
-196 97 -328 160 -392 29 -30 70 -80 105 -130 16 -23 50 -55 76 -73 25 -17 56
-42 69 -55 26 -26 106 -69 147 -78 34 -9 49 -43 62 -148 11 -91 13 -81 -44
-314 -18 -78 -29 -155 -50 -375 -24 -249 -28 -288 -40 -335 -8 -35 -12 -211
-13 -575 -1 -471 1 -528 15 -551 16 -23 15 -26 -2 -48 -26 -32 -24 -67 7 -98
25 -25 26 -25 132 -18 137 9 198 31 251 91 56 64 77 128 90 279 7 72 16 162
21 200 12 103 12 683 0 706 -7 12 -12 217 -15 551 -3 293 -5 548 -5 567 -1 19
3 38 8 43 5 5 59 13 119 18 117 9 173 30 265 98 127 94 231 302 283 562 33
167 35 197 28 410 -6 206 -7 215 -29 237 -16 16 -35 23 -56 23 -18 -1 -45 2
-60 6 -21 5 -33 0 -52 -19 -22 -22 -26 -35 -26 -84 1 -32 8 -76 16 -98 45
-117 46 -129 35 -283 -6 -81 -18 -172 -26 -203 -16 -61 -56 -138 -89 -173 -11
-13 -34 -39 -51 -59 -87 -105 -123 -137 -205 -176 -104 -51 -117 -52 -86 -7
13 19 32 58 43 88 12 29 40 103 63 163 63 161 69 201 70 439 0 199 -3 224 -32
307 -14 40 -73 99 -97 99 -28 0 -71 -43 -71 -70 0 -12 -9 -33 -20 -47 -15 -19
-20 -41 -20 -83 0 -35 -10 -85 -26 -131 -21 -62 -27 -102 -34 -249 -5 -96 -16
-202 -23 -235 -18 -79 -54 -174 -76 -204 l-18 -23 -6 48 c-3 27 -20 85 -37
129 -35 87 -60 197 -60 260 0 61 -48 374 -66 427 -19 59 -72 108 -115 108 -22
0 -41 -10 -65 -34 l-34 -34 0 -168 c1 -201 15 -328 64 -563 15 -69 25 -129 23
-135 -4 -13 -47 63 -85 149 -52 120 -144 396 -163 490 -10 50 -29 148 -43 220
-32 169 -55 190 -153 146z"/>
</g>
</svg>
