<?xml version="1.0" standalone="no"?>
<!DOCTYPE svg PUBLIC "-//W3C//DTD SVG 20010904//EN"
 "http://www.w3.org/TR/2001/REC-SVG-20010904/DTD/svg10.dtd">
<svg version="1.0" xmlns="http://www.w3.org/2000/svg"
 width="640.000000pt" height="480.000000pt" viewBox="0 0 640.000000 480.000000"
 preserveAspectRatio="xMidYMid meet">
<metadata>
Created by potrace 1.13, written by Peter Selinger 2001-2015
</metadata>
<g transform="translate(0.000000,480.000000) scale(0.100000,-0.100000)"
fill="#000000" stroke="none">
<path d="M3323 3965 c-14 -10 -33 -53 -58 -131 -21 -63 -49 -132 -63 -152 -14
-20 -28 -48 -33 -62 -4 -14 -17 -50 -28 -80 -12 -30 -21 -64 -21 -75 0 -11 -9
-45 -21 -75 -11 -30 -27 -77 -36 -105 -8 -27 -26 -84 -40 -125 -14 -41 -26
-87 -27 -101 -2 -14 -7 -32 -11 -39 -9 -14 -24 -83 -29 -130 -1 -14 -8 -35
-15 -48 -7 -12 -11 -30 -10 -40 2 -9 -3 -27 -10 -40 -6 -12 -11 -30 -10 -40 2
-9 -3 -28 -10 -40 -7 -13 -10 -35 -7 -48 4 -15 1 -33 -9 -47 -8 -12 -15 -28
-15 -35 0 -8 -9 -26 -20 -40 -12 -14 -20 -35 -18 -46 1 -12 -4 -31 -11 -44 -6
-12 -11 -30 -10 -40 2 -9 -3 -27 -10 -40 -6 -12 -11 -30 -10 -40 2 -9 -3 -28
-10 -40 -7 -13 -10 -35 -7 -48 4 -14 0 -34 -10 -48 -8 -14 -14 -33 -13 -43 2
-10 -3 -28 -10 -41 -6 -12 -11 -30 -10 -40 2 -9 -3 -27 -10 -40 -6 -12 -11
-30 -10 -40 2 -9 -2 -26 -8 -37 -6 -11 -10 -48 -9 -83 1 -35 -1 -65 -5 -68 -7
-4 -32 -77 -42 -124 -5 -20 -12 -25 -35 -24 -16 0 -35 5 -42 9 -14 9 -54 17
-162 35 -55 9 -60 8 -130 -27 -93 -46 -225 -138 -232 -161 -3 -9 -10 -69 -16
-132 -6 -63 -15 -144 -21 -180 -10 -62 -18 -190 -34 -562 l-7 -167 30 -31 c35
-34 60 -38 92 -12 21 17 22 28 27 172 8 289 21 535 32 590 6 30 15 100 21 154
10 97 11 100 48 132 20 19 48 37 62 40 14 4 42 15 62 25 67 34 65 38 63 -153
-3 -174 -12 -258 -42 -372 -8 -33 -17 -92 -18 -130 -1 -38 -8 -86 -15 -107
-11 -33 -11 -42 4 -63 20 -31 59 -43 91 -28 38 17 58 68 61 152 1 41 11 116
22 165 31 140 45 263 39 326 -4 31 -4 93 0 137 l6 81 23 -16 c15 -9 34 -13 49
-9 14 4 44 2 66 -4 l41 -11 -5 -62 c-6 -88 -50 -256 -92 -354 -25 -57 -29
-142 -9 -208 19 -67 22 -120 11 -182 -8 -38 -6 -45 17 -68 30 -30 65 -32 96
-7 18 14 26 37 36 98 20 120 18 154 -11 196 -22 33 -24 42 -16 75 15 57 47
164 60 197 12 30 40 165 48 232 l5 41 41 -9 c60 -12 97 -29 97 -42 0 -25 -28
-114 -49 -155 -60 -116 -97 -302 -73 -368 6 -19 7 -72 1 -153 -7 -104 -6 -128
6 -147 31 -46 91 -38 119 15 13 26 18 153 15 380 0 30 9 83 21 120 21 64 31
89 79 209 12 28 21 58 21 66 0 11 10 12 46 7 35 -5 55 -17 90 -51 25 -24 55
-62 66 -84 12 -22 31 -54 44 -71 28 -36 30 -80 8 -144 -9 -25 -21 -61 -26 -80
-19 -71 -46 -350 -54 -552 -6 -137 -6 -137 20 -163 30 -30 55 -32 87 -6 22 18
25 29 31 143 18 327 48 564 81 658 20 55 22 113 4 148 -82 164 -143 249 -201
279 -17 9 -43 26 -58 38 -20 17 -46 25 -100 30 -40 3 -112 20 -160 36 -47 16
-98 29 -113 29 -47 0 -67 17 -60 53 16 89 49 215 61 238 7 14 22 66 34 115 55
239 91 377 120 454 17 47 35 101 39 120 5 19 16 55 25 80 46 124 67 194 62
206 -3 7 -1 16 4 19 8 5 28 65 56 175 8 30 20 69 26 85 34 94 161 484 184 565
15 52 36 112 46 132 10 21 18 49 18 63 0 30 -40 75 -67 75 -10 0 -27 7 -37 15
-25 19 -76 19 -103 0z m-56 -487 c-3 -8 -6 -5 -6 6 -1 11 2 17 5 13 3 -3 4
-12 1 -19z"/>
</g>
</svg>
