<?xml version="1.0" standalone="no"?>
<!DOCTYPE svg PUBLIC "-//W3C//DTD SVG 20010904//EN"
 "http://www.w3.org/TR/2001/REC-SVG-20010904/DTD/svg10.dtd">
<svg version="1.0" xmlns="http://www.w3.org/2000/svg"
 width="640.000000pt" height="480.000000pt" viewBox="0 0 640.000000 480.000000"
 preserveAspectRatio="xMidYMid meet">
<metadata>
Created by potrace 1.13, written by Peter Selinger 2001-2015
</metadata>
<g transform="translate(0.000000,480.000000) scale(0.100000,-0.100000)"
fill="#000000" stroke="none">
<path d="M1886 4107 c-16 -16 -29 -49 -39 -98 -54 -252 -54 -240 -49 -812 l2
-338 25 -25 c13 -13 34 -24 47 -24 13 0 48 -9 78 -20 30 -11 66 -18 80 -15 15
3 33 -2 47 -13 20 -16 21 -21 11 -72 -5 -30 -8 -122 -5 -205 4 -133 7 -158 32
-225 26 -70 28 -85 27 -225 0 -116 -7 -198 -32 -360 -66 -440 -80 -563 -80
-711 l0 -136 29 -29 c40 -40 98 -40 142 -2 86 76 77 47 99 334 5 75 15 161 20
190 17 87 24 253 12 275 -8 15 -6 24 8 41 24 30 44 244 36 383 -4 58 -9 238
-12 400 l-5 295 38 0 c21 0 48 -6 61 -13 12 -7 30 -12 40 -11 9 2 28 -3 41
-10 12 -7 31 -11 40 -8 10 2 26 -2 36 -9 10 -8 30 -14 44 -14 14 0 44 -7 68
-16 52 -20 87 -13 110 23 14 21 19 60 24 192 6 150 17 247 33 297 3 11 10 62
16 114 6 52 20 131 31 175 16 62 21 109 20 210 -1 72 1 172 5 222 5 89 5 93
-20 118 -30 30 -55 32 -87 6 -21 -17 -25 -32 -32 -118 -5 -54 -8 -151 -7 -215
1 -93 -4 -142 -23 -230 -25 -111 -44 -225 -54 -321 -3 -27 -11 -51 -17 -53 -7
-3 -39 0 -72 6 -32 7 -71 12 -86 13 -25 2 -27 6 -34 63 -5 54 -3 95 9 194 2
14 9 35 16 48 7 13 11 38 10 55 -2 18 0 37 3 43 4 5 23 58 42 117 45 133 48
206 11 242 -13 14 -33 25 -45 25 -11 0 -32 -11 -45 -25 -21 -20 -25 -34 -25
-81 0 -37 -11 -87 -30 -145 -17 -49 -30 -95 -28 -101 1 -7 -4 -23 -11 -36 -7
-13 -11 -38 -10 -55 2 -18 0 -37 -3 -43 -21 -34 -38 -109 -38 -172 l0 -72 -24
16 c-14 8 -33 15 -43 13 -10 -1 -33 5 -50 12 -25 10 -32 18 -27 31 3 10 -2 39
-12 63 -15 39 -16 67 -10 209 4 89 14 192 23 227 8 35 17 94 20 131 4 62 3 69
-21 93 -32 32 -60 32 -91 0 -21 -20 -25 -34 -25 -85 0 -35 -6 -74 -15 -90 -21
-41 -38 -269 -32 -413 6 -109 5 -118 -11 -111 -9 4 -39 9 -67 12 -27 2 -53 7
-57 11 -4 3 -8 114 -9 246 -2 246 1 276 47 482 19 85 18 100 -11 128 -30 31
-59 32 -89 2z"/>
</g>
</svg>
