<?xml version="1.0" standalone="no"?>
<!DOCTYPE svg PUBLIC "-//W3C//DTD SVG 20010904//EN"
 "http://www.w3.org/TR/2001/REC-SVG-20010904/DTD/svg10.dtd">
<svg version="1.0" xmlns="http://www.w3.org/2000/svg"
 width="360.000000pt" height="243.000000pt" viewBox="0 0 360.000000 243.000000"
 preserveAspectRatio="xMidYMid meet">
<metadata>
Created by potrace 1.13, written by Peter Selinger 2001-2015
</metadata>
<g transform="translate(0.000000,243.000000) scale(0.100000,-0.100000)"
fill="#000000" stroke="none">
<path d="M1762 1598 c-8 -8 -12 -46 -12 -105 l0 -93 -62 0 c-47 0 -73 -6 -103
-23 -73 -41 -52 -66 73 -84 l42 -6 0 -172 0 -172 -99 -6 c-101 -6 -235 -35
-294 -63 -35 -17 -70 -69 -81 -121 -9 -39 -17 -45 -86 -66 -31 -9 -82 -33
-115 -52 -114 -69 -171 -142 -182 -234 -5 -45 -3 -50 28 -79 41 -38 146 -83
249 -107 41 -10 136 -33 210 -52 242 -62 378 -85 620 -105 167 -13 266 -6 370
28 118 37 165 63 240 131 37 34 85 67 113 77 66 25 103 59 138 127 31 62 37
110 17 126 -7 5 -40 18 -73 27 -33 10 -82 28 -110 41 -27 12 -66 28 -85 35
-19 8 -38 19 -42 24 -4 6 -8 43 -8 81 0 83 -17 115 -58 115 -15 0 -52 7 -82
16 -30 8 -109 24 -175 34 -220 35 -244 41 -249 59 -3 9 -8 69 -12 134 l-6 117
48 0 c67 0 106 13 153 50 87 70 66 90 -90 90 l-119 0 0 63 c0 70 -21 155 -42
168 -20 13 -102 11 -116 -3z"/>
</g>
</svg>
