<?xml version="1.0" standalone="no"?>
<!DOCTYPE svg PUBLIC "-//W3C//DTD SVG 20010904//EN"
 "http://www.w3.org/TR/2001/REC-SVG-20010904/DTD/svg10.dtd">
<svg version="1.0" xmlns="http://www.w3.org/2000/svg"
 width="360.000000pt" height="243.000000pt" viewBox="0 0 360.000000 243.000000"
 preserveAspectRatio="xMidYMid meet">
<metadata>
Created by potrace 1.13, written by Peter Selinger 2001-2015
</metadata>
<g transform="translate(0.000000,243.000000) scale(0.100000,-0.100000)"
fill="#000000" stroke="none">
<path d="M1742 1728 c-8 -8 -12 -57 -12 -155 l0 -143 -79 0 c-62 0 -84 -4
-102 -19 -22 -18 -23 -19 -5 -45 19 -30 69 -64 104 -71 12 -3 34 -7 48 -11
l26 -5 -6 -77 c-4 -42 -13 -102 -20 -132 l-12 -55 -89 -7 c-49 -5 -114 -17
-144 -29 -96 -35 -261 -123 -267 -141 -3 -11 -48 -38 -107 -66 -56 -27 -113
-61 -127 -76 -40 -44 -53 -56 -90 -80 -32 -21 -35 -26 -32 -67 1 -24 19 -78
39 -121 l36 -78 69 -21 c38 -12 89 -35 114 -52 49 -32 224 -107 323 -137 57
-18 93 -20 400 -20 232 0 364 4 426 14 97 14 239 67 309 115 23 15 78 47 124
71 117 60 142 86 142 145 0 44 -4 52 -48 94 -153 147 -202 189 -244 209 -30
15 -48 31 -52 46 -8 32 -85 110 -133 134 -21 11 -66 25 -99 31 -102 19 -263
41 -299 41 l-34 0 5 103 c7 135 12 167 28 167 8 0 55 21 105 46 114 57 120 84
19 84 -22 0 -69 5 -104 12 l-64 11 0 124 c0 118 -1 125 -25 148 -18 19 -35 25
-68 25 -23 0 -48 -5 -55 -12z"/>
</g>
</svg>
