<?xml version="1.0" standalone="no"?>
<!DOCTYPE svg PUBLIC "-//W3C//DTD SVG 20010904//EN"
 "http://www.w3.org/TR/2001/REC-SVG-20010904/DTD/svg10.dtd">
<svg version="1.0" xmlns="http://www.w3.org/2000/svg"
 width="360.000000pt" height="243.000000pt" viewBox="0 0 360.000000 243.000000"
 preserveAspectRatio="xMidYMid meet">
<metadata>
Created by potrace 1.13, written by Peter Selinger 2001-2015
</metadata>
<g transform="translate(0.000000,243.000000) scale(0.100000,-0.100000)"
fill="#000000" stroke="none">
<path d="M1841 1601 c-48 -9 -59 -31 -38 -76 9 -20 17 -58 17 -85 l0 -50 -85
0 c-88 0 -137 -15 -148 -44 -11 -27 24 -41 117 -46 l91 -5 3 -105 c3 -101 2
-108 -29 -171 l-32 -67 -76 -12 c-42 -7 -92 -20 -111 -30 -21 -10 -72 -20
-129 -25 -52 -4 -103 -11 -115 -17 -30 -14 -88 -96 -99 -139 -8 -34 -12 -37
-65 -49 -64 -14 -122 -40 -142 -65 -8 -9 -30 -23 -50 -31 -51 -21 -110 -105
-110 -156 0 -34 34 -84 77 -111 32 -20 61 -27 173 -37 124 -12 138 -15 172
-42 42 -33 91 -55 151 -68 23 -5 83 -20 132 -33 82 -22 116 -25 395 -31 328
-7 311 -9 460 47 36 13 82 27 102 31 21 4 51 18 67 32 17 14 82 50 145 80 128
61 146 80 146 156 0 40 -4 47 -47 83 -84 71 -147 108 -213 125 -62 15 -65 18
-71 51 -7 45 -35 96 -58 109 -11 5 -58 10 -105 10 -92 0 -214 20 -314 51 -34
10 -68 19 -76 19 -9 0 -15 23 -19 78 -4 42 -11 122 -17 176 -6 54 -9 104 -6
111 5 13 76 42 169 69 44 13 57 21 55 34 -3 15 -17 17 -119 13 l-116 -3 -6 38
c-4 22 -7 68 -7 105 0 57 -12 92 -29 88 -4 -1 -21 -4 -40 -8z"/>
</g>
</svg>
