<?xml version="1.0" standalone="no"?>
<!DOCTYPE svg PUBLIC "-//W3C//DTD SVG 20010904//EN"
 "http://www.w3.org/TR/2001/REC-SVG-20010904/DTD/svg10.dtd">
<svg version="1.0" xmlns="http://www.w3.org/2000/svg"
 width="360.000000pt" height="243.000000pt" viewBox="0 0 360.000000 243.000000"
 preserveAspectRatio="xMidYMid meet">
<metadata>
Created by potrace 1.13, written by Peter Selinger 2001-2015
</metadata>
<g transform="translate(0.000000,243.000000) scale(0.100000,-0.100000)"
fill="#000000" stroke="none">
<path d="M1779 1619 c-16 -16 -19 -27 -14 -47 5 -15 8 -63 9 -107 l1 -80 -66
-7 c-86 -10 -144 -29 -144 -48 0 -11 18 -16 78 -21 68 -6 82 -10 107 -35 26
-25 29 -36 29 -84 0 -30 -10 -98 -23 -150 l-23 -95 -94 -5 c-155 -9 -361 -89
-404 -157 -12 -20 -33 -36 -53 -42 -19 -6 -67 -36 -109 -68 -41 -32 -89 -68
-106 -80 -105 -72 -137 -120 -137 -208 0 -69 33 -138 86 -179 46 -36 144 -70
249 -86 44 -6 100 -18 124 -26 25 -8 110 -23 190 -35 131 -19 181 -21 486 -17
336 4 341 4 400 29 115 48 289 153 344 208 11 11 48 33 83 50 91 43 108 86 65
168 -21 41 -115 123 -141 123 -6 0 -51 27 -101 60 -49 34 -100 63 -113 66 -16
5 -24 16 -28 45 -4 21 -12 43 -18 48 -6 5 -53 17 -104 26 -51 9 -107 22 -125
29 -40 17 -161 36 -231 36 l-53 0 -12 147 -12 147 23 18 c13 10 43 25 68 34
95 34 131 54 128 72 -4 19 -55 30 -145 31 -61 1 -83 23 -83 82 0 51 -37 166
-56 173 -29 11 -54 6 -75 -15z"/>
</g>
</svg>
