<?xml version="1.0" standalone="no"?>
<!DOCTYPE svg PUBLIC "-//W3C//DTD SVG 20010904//EN"
 "http://www.w3.org/TR/2001/REC-SVG-20010904/DTD/svg10.dtd">
<svg version="1.0" xmlns="http://www.w3.org/2000/svg"
 width="360.000000pt" height="243.000000pt" viewBox="0 0 360.000000 243.000000"
 preserveAspectRatio="xMidYMid meet">
<metadata>
Created by potrace 1.13, written by Peter Selinger 2001-2015
</metadata>
<g transform="translate(0.000000,243.000000) scale(0.100000,-0.100000)"
fill="#000000" stroke="none">
<path d="M1788 1599 c-35 -20 -40 -46 -18 -88 20 -40 26 -94 14 -125 -7 -19
-74 -21 -144 -5 -56 13 -84 6 -98 -25 -14 -31 1 -46 49 -46 62 0 97 -11 130
-41 18 -16 36 -29 41 -29 14 0 9 -142 -9 -227 l-17 -83 -69 0 c-41 0 -80 -6
-95 -14 -15 -8 -79 -31 -142 -51 -132 -41 -211 -80 -225 -112 -5 -13 -22 -24
-41 -27 -17 -4 -72 -26 -123 -51 -97 -47 -122 -73 -183 -187 -35 -63 -35 -104
-3 -168 36 -72 58 -83 220 -116 105 -21 144 -31 205 -48 84 -25 179 -43 360
-71 91 -13 183 -29 205 -35 58 -14 173 -12 225 4 25 8 74 28 110 45 36 17 108
41 161 54 66 17 113 35 151 60 59 40 148 67 218 67 65 0 104 27 124 86 19 56
21 142 4 178 -9 22 -142 116 -162 116 -4 0 -43 14 -87 31 l-79 32 0 43 c0 50
-15 68 -79 96 -119 51 -251 83 -383 94 l-88 7 0 42 c0 23 -11 74 -26 115 -14
41 -24 88 -22 108 3 42 15 47 131 57 56 6 70 11 83 30 37 57 -30 105 -144 105
l-70 0 -6 38 c-7 38 -22 89 -37 130 -9 24 -50 30 -81 11z"/>
</g>
</svg>
