<?xml version="1.0" standalone="no"?>
<!DOCTYPE svg PUBLIC "-//W3C//DTD SVG 20010904//EN"
 "http://www.w3.org/TR/2001/REC-SVG-20010904/DTD/svg10.dtd">
<svg version="1.0" xmlns="http://www.w3.org/2000/svg"
 width="360.000000pt" height="243.000000pt" viewBox="0 0 360.000000 243.000000"
 preserveAspectRatio="xMidYMid meet">
<metadata>
Created by potrace 1.13, written by Peter Selinger 2001-2015
</metadata>
<g transform="translate(0.000000,243.000000) scale(0.100000,-0.100000)"
fill="#000000" stroke="none">
<path d="M1823 1632 c-25 -16 -43 -82 -43 -157 l0 -75 -34 0 c-55 0 -189 -29
-204 -44 -41 -41 36 -86 148 -86 l70 0 0 -159 0 -158 -163 -5 c-118 -4 -173
-10 -202 -22 -48 -20 -169 -136 -196 -188 -15 -29 -28 -39 -71 -53 -164 -54
-263 -141 -299 -262 -15 -54 -3 -85 54 -142 58 -56 158 -91 297 -102 58 -5
128 -13 155 -18 77 -15 180 -28 300 -41 61 -6 149 -16 196 -22 105 -13 380 -5
429 12 65 23 125 53 145 71 11 10 56 27 100 39 171 45 353 161 374 238 14 50
14 87 -1 100 -21 17 -198 93 -280 121 -66 22 -78 29 -78 48 0 22 -22 112 -35
144 -7 18 -47 40 -106 58 -20 6 -110 11 -209 11 -101 0 -189 5 -211 11 -35 11
-39 16 -44 53 -3 23 -5 93 -3 156 l3 115 60 8 c138 17 155 26 155 76 0 46 -20
54 -119 49 l-89 -5 -6 41 c-3 22 -8 69 -12 104 -9 80 -38 111 -81 84z"/>
</g>
</svg>
