<?xml version="1.0" standalone="no"?>
<!DOCTYPE svg PUBLIC "-//W3C//DTD SVG 20010904//EN"
 "http://www.w3.org/TR/2001/REC-SVG-20010904/DTD/svg10.dtd">
<svg version="1.0" xmlns="http://www.w3.org/2000/svg"
 width="360.000000pt" height="243.000000pt" viewBox="0 0 360.000000 243.000000"
 preserveAspectRatio="xMidYMid meet">
<metadata>
Created by potrace 1.13, written by Peter Selinger 2001-2015
</metadata>
<g transform="translate(0.000000,243.000000) scale(0.100000,-0.100000)"
fill="#000000" stroke="none">
<path d="M1790 1620 c-11 -7 -16 -35 -20 -107 l-5 -98 -85 -8 c-119 -12 -155
-38 -130 -97 18 -43 97 -80 172 -80 52 0 58 -2 58 -21 0 -11 -6 -30 -12 -42
-7 -12 -15 -65 -18 -117 l-5 -95 -130 -6 c-112 -5 -137 -9 -180 -31 -27 -13
-79 -35 -114 -48 -56 -20 -67 -30 -96 -75 -44 -68 -51 -73 -127 -84 -77 -11
-90 -17 -180 -83 -80 -59 -96 -96 -79 -179 6 -28 11 -77 11 -110 0 -34 7 -73
15 -89 9 -17 17 -30 18 -30 6 0 181 -61 242 -85 39 -14 90 -32 115 -40 25 -7
74 -25 110 -40 62 -27 69 -27 185 -21 66 4 217 10 335 15 130 5 237 15 270 24
79 21 159 35 290 52 149 18 194 33 278 89 87 58 147 122 163 175 11 39 10 46
-17 103 -16 33 -42 71 -59 83 -56 42 -231 135 -253 135 -17 0 -22 6 -22 27 0
53 -168 180 -274 207 -22 5 -96 9 -164 8 l-124 -2 4 140 c2 109 6 143 18 155
9 8 47 24 85 34 96 27 119 63 65 103 -19 13 -50 20 -113 25 l-87 6 0 96 c0 62
-4 101 -12 109 -14 14 -106 16 -128 2z"/>
</g>
</svg>
