<?xml version="1.0" standalone="no"?>
<!DOCTYPE svg PUBLIC "-//W3C//DTD SVG 20010904//EN"
 "http://www.w3.org/TR/2001/REC-SVG-20010904/DTD/svg10.dtd">
<svg version="1.0" xmlns="http://www.w3.org/2000/svg"
 width="360.000000pt" height="243.000000pt" viewBox="0 0 360.000000 243.000000"
 preserveAspectRatio="xMidYMid meet">
<metadata>
Created by potrace 1.13, written by Peter Selinger 2001-2015
</metadata>
<g transform="translate(0.000000,243.000000) scale(0.100000,-0.100000)"
fill="#000000" stroke="none">
<path d="M1813 1648 c-21 -18 -41 -37 -45 -43 -13 -17 -9 -90 7 -111 8 -10 15
-38 15 -60 0 -45 -12 -54 -76 -54 -17 0 -53 -7 -82 -15 -91 -27 -105 -68 -27
-79 34 -6 49 -15 70 -41 14 -19 37 -38 50 -41 24 -6 25 -9 25 -100 0 -87 -19
-172 -39 -175 -3 0 -89 -4 -191 -7 -179 -7 -187 -8 -243 -36 -66 -34 -72 -42
-82 -108 -7 -45 -9 -47 -60 -68 -28 -12 -76 -39 -105 -61 -28 -21 -59 -39 -67
-39 -29 0 -79 -39 -101 -79 -31 -54 -41 -165 -19 -207 30 -56 52 -71 149 -94
51 -13 118 -35 148 -50 83 -41 324 -97 470 -109 297 -24 483 -33 605 -29 l130
4 118 52 c65 29 127 52 136 52 28 0 157 72 179 100 19 25 92 187 92 206 0 17
-123 130 -170 156 -25 14 -75 33 -111 43 -58 15 -68 21 -83 51 -9 19 -16 54
-16 77 0 68 -6 71 -127 78 -95 5 -118 10 -193 42 -47 20 -106 41 -131 47 -35
9 -50 19 -64 43 -10 18 -29 45 -42 60 -19 24 -23 40 -23 102 0 87 -5 82 124
115 152 40 153 74 0 82 -53 3 -100 10 -107 17 -8 8 -13 61 -15 149 -2 75 -8
143 -14 149 -17 21 -45 15 -85 -19z"/>
</g>
</svg>
