<?xml version="1.0" standalone="no"?>
<!DOCTYPE svg PUBLIC "-//W3C//DTD SVG 20010904//EN"
 "http://www.w3.org/TR/2001/REC-SVG-20010904/DTD/svg10.dtd">
<svg version="1.0" xmlns="http://www.w3.org/2000/svg"
 width="220.000000pt" height="182.000000pt" viewBox="0 0 220.000000 182.000000"
 preserveAspectRatio="xMidYMid meet">
<metadata>
Created by potrace 1.13, written by Peter Selinger 2001-2015
</metadata>
<g transform="translate(0.000000,182.000000) scale(0.100000,-0.100000)"
fill="#000000" stroke="none">
<path d="M1248 1718 c-18 -20 -47 -51 -63 -69 -17 -19 -43 -43 -59 -54 -31
-22 -64 -49 -116 -95 -52 -46 -136 -110 -209 -159 -45 -31 -66 -40 -74 -32 -6
6 -29 11 -52 11 -56 0 -115 -39 -229 -153 -158 -157 -282 -340 -354 -522 -11
-28 -36 -84 -56 -125 -39 -82 -46 -136 -20 -175 20 -31 75 -49 130 -41 l44 6
-7 -45 c-8 -64 27 -107 121 -150 124 -56 340 -115 420 -115 41 0 143 19 249
46 65 17 264 34 317 27 19 -3 49 -11 67 -19 66 -30 113 -9 113 50 0 31 -3 34
-42 43 l-43 9 45 13 c29 9 73 11 126 8 70 -5 86 -10 108 -31 47 -48 100 -26
94 38 -3 39 -3 39 -73 61 -66 21 -68 23 -35 26 35 4 35 4 35 54 l0 50 -50 0
c-48 1 -195 23 -195 30 0 2 7 11 16 20 9 9 35 51 58 93 l41 77 105 6 c58 4
121 11 140 16 68 19 147 65 196 115 52 54 78 68 124 68 31 0 70 39 70 71 0 23
-72 35 -113 20 -32 -12 -67 -15 -52 -3 6 4 23 24 38 45 15 20 35 37 43 37 15
0 20 44 8 74 -8 20 -43 21 -50 1 -4 -8 -13 -15 -22 -15 -8 0 -30 -11 -48 -25
-37 -29 -44 -30 -44 -12 0 18 -32 47 -53 47 -14 0 -67 -93 -67 -117 0 -4 -21
-8 -47 -8 -43 0 -48 -3 -51 -24 -2 -13 2 -27 9 -32 18 -11 9 -17 -31 -25 -31
-7 -33 -6 -26 17 4 13 12 75 17 138 8 82 16 123 31 150 55 94 71 130 94 210
31 103 35 219 10 266 -9 17 -16 35 -16 40 0 19 -82 64 -128 71 -25 4 -86 4
-135 0 -62 -4 -94 -2 -104 6 -8 6 -50 13 -93 16 l-79 5 -33 -35z m362 -1044
c0 -2 -11 -4 -25 -4 -14 0 -25 4 -25 9 0 4 11 6 25 3 14 -2 25 -6 25 -8z
m-643 -450 c-3 -3 -12 -4 -19 -1 -8 3 -5 6 6 6 11 1 17 -2 13 -5z m-122 -14
c-41 -10 -153 -12 -138 -2 7 4 47 8 90 8 53 1 68 -1 48 -6z"/>
</g>
</svg>
