<?xml version="1.0" standalone="no"?>
<!DOCTYPE svg PUBLIC "-//W3C//DTD SVG 20010904//EN"
 "http://www.w3.org/TR/2001/REC-SVG-20010904/DTD/svg10.dtd">
<svg version="1.0" xmlns="http://www.w3.org/2000/svg"
 width="220.000000pt" height="182.000000pt" viewBox="0 0 220.000000 182.000000"
 preserveAspectRatio="xMidYMid meet">
<metadata>
Created by potrace 1.13, written by Peter Selinger 2001-2015
</metadata>
<g transform="translate(0.000000,182.000000) scale(0.100000,-0.100000)"
fill="#000000" stroke="none">
<path d="M775 1743 c-11 -3 -25 -9 -31 -14 -6 -5 -51 -6 -101 -3 -49 4 -110 4
-135 0 -46 -7 -128 -52 -128 -71 0 -5 -7 -23 -16 -40 -25 -47 -21 -163 10
-266 23 -80 39 -116 94 -210 15 -27 23 -68 31 -150 5 -63 13 -125 17 -138 7
-23 5 -24 -26 -17 -40 8 -49 14 -31 25 7 5 11 19 9 32 -3 21 -8 24 -51 24 -26
0 -47 4 -47 8 0 5 -12 33 -26 63 -17 35 -32 54 -43 54 -20 0 -51 -30 -51 -48
0 -17 -7 -15 -44 13 -18 14 -40 25 -48 25 -9 0 -18 7 -22 15 -7 20 -42 19 -50
-1 -12 -30 -7 -74 8 -74 8 0 28 -17 43 -37 15 -21 32 -41 38 -45 15 -12 -20
-9 -52 3 -41 15 -113 3 -113 -20 0 -32 39 -71 70 -71 46 0 72 -14 124 -68 49
-50 128 -96 196 -115 19 -5 82 -12 140 -16 l105 -6 41 -77 c23 -42 49 -84 58
-93 9 -9 16 -18 16 -20 0 -7 -147 -29 -195 -30 l-50 0 0 -50 c0 -50 0 -50 35
-54 33 -3 31 -5 -35 -26 -70 -22 -70 -22 -73 -61 -6 -64 47 -86 94 -38 22 21
38 26 108 31 53 3 97 1 126 -8 l45 -13 -42 -9 c-40 -9 -43 -12 -43 -43 0 -59
47 -80 113 -50 18 8 48 16 67 19 53 7 252 -10 317 -27 106 -27 208 -46 249
-46 80 0 296 59 420 115 94 43 129 86 121 150 l-7 45 44 -6 c55 -8 110 10 130
41 26 39 19 93 -20 175 -20 41 -45 97 -56 125 -72 182 -196 365 -354 522 -114
114 -173 153 -229 153 -23 0 -46 -5 -52 -11 -8 -8 -29 1 -74 32 -73 49 -157
113 -209 159 -52 46 -85 73 -116 95 -16 11 -42 35 -59 54 -95 106 -88 101
-157 100 -34 -1 -72 -4 -83 -6z m-135 -1063 c0 -5 -12 -10 -27 -9 l-28 1 25 8
c14 4 26 8 28 9 1 1 2 -3 2 -9z m617 -456 c-3 -3 -12 -4 -19 -1 -8 3 -5 6 6 6
11 1 17 -2 13 -5z m239 -17 c10 -9 -103 -7 -141 3 -20 5 -1 7 52 6 46 -1 86
-5 89 -9z"/>
</g>
</svg>
