<?xml version="1.0" standalone="no"?>
<!DOCTYPE svg PUBLIC "-//W3C//DTD SVG 20010904//EN"
 "http://www.w3.org/TR/2001/REC-SVG-20010904/DTD/svg10.dtd">
<svg version="1.0" xmlns="http://www.w3.org/2000/svg"
 width="198.000000pt" height="211.000000pt" viewBox="0 0 198.000000 211.000000"
 preserveAspectRatio="xMidYMid meet">
<metadata>
Created by potrace 1.13, written by Peter Selinger 2001-2015
</metadata>
<g transform="translate(0.000000,211.000000) scale(0.100000,-0.100000)"
fill="#000000" stroke="none">
<path d="M1303 2088 c-27 -13 -53 -65 -53 -106 0 -51 -16 -77 -69 -116 -27
-20 -80 -73 -117 -118 -37 -44 -76 -83 -88 -86 -56 -14 -255 -126 -301 -169
-27 -26 -71 -67 -97 -92 -42 -40 -48 -42 -54 -25 -19 60 -30 76 -57 91 -41 21
-99 12 -143 -22 -25 -19 -49 -56 -84 -129 -32 -67 -66 -120 -100 -156 -57 -62
-120 -183 -128 -246 -7 -66 32 -170 93 -242 26 -31 33 -51 44 -127 19 -139 81
-248 163 -291 18 -9 62 -19 98 -22 36 -3 85 -13 109 -24 69 -29 188 -57 291
-69 89 -10 183 -32 205 -49 33 -25 177 -90 199 -90 36 0 34 28 -4 68 -34 37
-37 47 -13 61 20 10 80 -16 114 -50 11 -11 36 -23 55 -26 32 -5 34 -4 34 23 0
38 -6 46 -64 83 -45 28 -47 31 -24 31 57 0 48 50 -18 99 -26 18 -58 37 -73 40
-22 6 -26 12 -23 39 3 31 3 32 -37 32 -34 0 -41 3 -41 20 0 12 -7 20 -17 20
-10 0 -27 12 -39 27 l-21 27 84 37 c85 38 142 80 178 130 11 16 22 29 25 28 3
0 15 -21 27 -47 12 -26 48 -75 80 -109 32 -35 67 -73 78 -86 40 -47 66 -57
143 -57 70 0 75 1 129 43 50 37 64 43 122 47 65 5 66 5 66 35 0 34 -19 42
-102 44 -29 1 -53 4 -53 9 1 14 49 42 87 50 33 7 38 12 41 39 2 21 -2 32 -14
37 -21 8 -121 -11 -129 -25 -11 -17 -25 -9 -25 16 0 49 -82 37 -111 -16 -14
-27 -25 -23 -40 14 -7 17 -24 48 -37 67 -40 58 -43 76 -32 169 11 89 28 151
42 151 4 0 8 9 8 19 0 11 14 28 33 40 58 36 94 86 171 236 48 94 57 121 62
180 3 39 9 86 14 105 5 19 13 71 19 115 13 92 6 123 -40 191 -35 52 -80 65
-234 68 -87 1 -108 5 -116 18 -19 35 -74 58 -135 57 -33 0 -69 -5 -81 -11z
m394 -344 c-3 -3 -12 -4 -19 -1 -8 3 -5 6 6 6 11 1 17 -2 13 -5z m-207 -480
c0 -16 -4 -54 -10 -84 -14 -68 -20 -165 -21 -289 0 -52 -3 -90 -8 -85 -20 22
-27 76 -24 182 2 85 -1 112 -10 112 -9 0 -12 18 -10 66 2 62 4 68 39 100 21
18 39 32 40 31 2 -2 4 -16 4 -33z m-447 -621 c-3 -7 -9 -13 -14 -13 -5 0 -9
-7 -9 -15 0 -10 -10 -15 -27 -15 -16 0 -38 -3 -50 -6 -16 -4 -23 0 -28 15 -3
12 -14 21 -23 22 -32 2 83 25 119 25 25 -1 35 -5 32 -13z m-393 -147 c0 -12 5
-27 12 -34 9 -9 8 -12 -5 -12 -9 0 -17 4 -17 8 0 4 -14 16 -32 26 -28 17 -30
20 -14 31 24 18 56 7 56 -19z m1090 14 c0 -5 -2 -10 -4 -10 -3 0 -8 5 -11 10
-3 6 -1 10 4 10 6 0 11 -4 11 -10z m-940 -80 c0 -11 5 -20 10 -20 6 0 10 -9
10 -20 0 -16 -7 -20 -30 -20 -16 0 -30 5 -30 10 0 6 -9 10 -20 10 -11 0 -28 8
-39 19 -18 18 -18 19 13 29 54 18 86 15 86 -8z"/>
</g>
</svg>
