<?xml version="1.0" standalone="no"?>
<!DOCTYPE svg PUBLIC "-//W3C//DTD SVG 20010904//EN"
 "http://www.w3.org/TR/2001/REC-SVG-20010904/DTD/svg10.dtd">
<svg version="1.0" xmlns="http://www.w3.org/2000/svg"
 width="260.000000pt" height="244.000000pt" viewBox="0 0 260.000000 244.000000"
 preserveAspectRatio="xMidYMid meet">
<metadata>
Created by potrace 1.13, written by Peter Selinger 2001-2015
</metadata>
<g transform="translate(0.000000,244.000000) scale(0.100000,-0.100000)"
fill="#000000" stroke="none">
<path d="M253 2398 c2 -24 8 -51 12 -60 5 -13 2 -18 -9 -18 -9 0 -16 -7 -16
-15 0 -12 -8 -14 -40 -9 -34 6 -40 4 -40 -11 0 -23 66 -85 91 -85 11 0 32 -12
47 -27 21 -22 79 -69 121 -100 2 -1 -4 -23 -14 -49 -14 -37 -17 -65 -13 -138
5 -82 10 -100 48 -176 73 -149 93 -185 106 -200 21 -24 36 -217 24 -295 -18
-115 -39 -177 -67 -208 l-28 -29 -5 39 c-4 30 -10 39 -27 41 -17 2 -29 -7 -50
-38 -37 -56 -83 -110 -93 -110 -4 0 -10 28 -13 63 -6 67 -35 167 -52 179 -20
15 -55 9 -56 -9 0 -10 -2 -67 -3 -128 -2 -60 -9 -123 -15 -140 l-12 -30 -28
57 c-34 69 -51 86 -90 94 -30 6 -31 5 -31 -31 0 -20 6 -49 14 -63 21 -41 46
-120 61 -190 26 -116 76 -154 204 -155 60 0 94 7 166 32 50 18 119 39 154 47
35 8 67 17 72 20 16 9 10 39 -10 53 -18 14 -19 16 -3 37 9 13 22 24 27 24 6 0
16 10 24 21 10 18 15 19 22 8 5 -8 9 -22 9 -31 0 -33 79 -187 102 -199 36 -19
52 -39 41 -50 -9 -9 -41 -10 -198 -6 -59 2 -60 1 -63 -26 -2 -17 -8 -27 -15
-24 -7 2 -61 10 -120 18 -118 14 -160 7 -165 -27 -5 -35 30 -55 118 -66 163
-20 223 -76 150 -140 -57 -50 -32 -78 68 -78 41 0 129 -24 187 -50 156 -72
376 -112 640 -118 215 -4 319 7 354 37 13 12 46 21 88 25 38 4 91 15 118 25
28 11 78 30 113 42 34 13 62 27 62 32 0 4 26 20 58 34 31 14 74 39 95 56 22
17 55 31 79 35 42 5 56 13 114 69 33 31 34 33 34 116 0 59 -6 103 -21 148 -15
46 -24 105 -29 209 -5 80 -15 168 -23 197 -20 71 -66 147 -135 225 -32 37 -67
83 -77 103 -45 82 -169 99 -232 30 -18 -19 -33 -29 -33 -21 0 23 -49 103 -73
118 -12 8 -48 20 -80 26 -31 6 -92 27 -135 45 -42 19 -89 37 -104 40 -15 4
-33 13 -40 20 -7 8 -36 25 -63 38 -39 20 -57 38 -85 85 -55 93 -151 195 -247
261 -29 20 -53 40 -53 45 0 4 -7 8 -15 8 -20 0 -39 39 -36 77 3 40 -19 83 -61
118 -29 25 -38 27 -93 23 -34 -3 -76 -13 -94 -23 -32 -16 -36 -16 -78 0 -85
33 -226 11 -279 -42 -13 -13 -19 -14 -22 -5 -2 7 -9 18 -15 25 -7 6 -18 24
-26 40 -8 15 -18 27 -22 27 -4 0 -9 10 -13 23 -7 31 -31 57 -89 95 -67 45 -81
43 -74 -10z m317 -648 c0 -16 -4 -30 -10 -30 -5 0 -10 9 -10 20 0 11 -6 20
-12 20 -9 0 -8 4 2 10 24 16 30 12 30 -20z m276 -1064 c15 -16 18 -26 6 -26
-4 0 -13 9 -20 20 -14 23 -7 26 14 6z"/>
</g>
</svg>
