<?xml version="1.0" standalone="no"?>
<!DOCTYPE svg PUBLIC "-//W3C//DTD SVG 20010904//EN"
 "http://www.w3.org/TR/2001/REC-SVG-20010904/DTD/svg10.dtd">
<svg version="1.0" xmlns="http://www.w3.org/2000/svg"
 width="198.000000pt" height="175.000000pt" viewBox="0 0 198.000000 175.000000"
 preserveAspectRatio="xMidYMid meet">
<metadata>
Created by potrace 1.13, written by Peter Selinger 2001-2015
</metadata>
<g transform="translate(0.000000,175.000000) scale(0.100000,-0.100000)"
fill="#000000" stroke="none">
<path d="M1134 1724 c-55 -27 -77 -58 -86 -125 -6 -47 -14 -66 -33 -80 -13
-11 -38 -41 -55 -67 -24 -38 -40 -51 -81 -65 -75 -27 -159 -80 -233 -147 -36
-33 -69 -60 -72 -60 -2 0 -16 7 -30 16 -37 25 -103 14 -152 -26 -76 -61 -182
-245 -208 -361 -9 -41 -23 -94 -31 -119 -17 -53 -10 -136 15 -163 12 -14 25
-16 56 -12 41 6 41 6 128 -87 137 -145 158 -174 158 -217 0 -42 17 -60 91 -97
102 -52 190 -67 366 -65 153 2 164 0 216 -24 64 -29 80 -31 97 -10 13 16 6 65
-10 65 -5 0 -24 9 -41 19 l-31 19 33 18 c27 14 64 19 179 22 80 2 151 9 158
14 18 16 15 46 -8 58 -11 6 -55 15 -99 22 -69 9 -78 13 -65 25 20 20 17 50 -5
63 -11 5 -42 10 -68 10 l-49 0 4 35 c4 33 3 35 -27 35 -21 0 -31 5 -31 15 0
10 -10 15 -27 15 l-27 0 32 28 c17 15 42 36 54 47 38 33 94 108 114 152 16 35
22 41 39 35 33 -12 124 -3 189 19 110 37 198 99 227 161 50 107 67 133 106
166 34 30 43 44 43 69 0 28 -4 33 -24 33 -13 0 -40 -14 -61 -30 -21 -17 -40
-28 -43 -26 -2 3 10 28 27 57 35 56 38 101 8 107 -19 4 -40 -18 -84 -85 -18
-29 -34 -43 -47 -42 -16 1 -17 2 -5 6 17 4 29 43 29 89 0 20 -5 24 -29 24 -34
0 -39 -11 -48 -93 -6 -58 -6 -59 -20 -33 -17 33 -50 34 -59 2 -6 -23 20 -94
39 -107 5 -3 7 -19 5 -35 -3 -26 -8 -29 -60 -40 -32 -6 -60 -9 -63 -6 -9 9 -5
51 10 110 8 31 26 117 40 190 14 73 35 153 46 179 44 102 34 188 -29 252 -49
50 -94 63 -186 51 -41 -5 -90 -5 -116 0 -68 14 -131 11 -166 -6z m161 -65 c11
-4 14 -8 8 -8 -7 -1 -13 -10 -13 -21 0 -17 7 -20 40 -20 22 0 40 5 40 11 0 35
80 61 106 34 11 -10 30 -15 53 -14 27 2 35 -1 33 -11 -2 -8 -8 -18 -14 -21 -6
-4 -8 -20 -5 -38 5 -25 2 -33 -22 -51 -34 -23 -78 -26 -105 -5 -11 8 -28 15
-38 15 -10 0 -18 5 -18 10 0 6 -9 10 -20 10 -11 0 -20 5 -20 10 0 6 -18 10
-40 10 -36 0 -40 3 -40 24 0 34 -16 41 -61 26 -53 -18 -60 -5 -19 31 31 26 40
29 75 23 22 -4 49 -10 60 -15z m-132 -186 c-7 -3 -13 -12 -13 -21 0 -14 -2
-15 -9 -3 -7 10 -4 19 7 27 9 7 19 10 22 7 3 -3 -1 -8 -7 -10z m177 -3 l25 -8
-27 -1 c-15 -1 -38 -5 -53 -11 -24 -9 -25 -8 -15 10 11 21 28 23 70 10z m233
-35 c-9 -19 -21 -35 -26 -35 -16 0 -37 -28 -37 -49 0 -12 -4 -21 -10 -21 -5 0
-10 -7 -10 -15 0 -8 -4 -15 -10 -15 -5 0 -10 -6 -10 -14 0 -8 -10 -18 -22 -22
-13 -4 -26 -12 -30 -18 -5 -8 -8 -7 -8 2 0 8 14 27 30 44 24 23 30 38 30 71 0
39 3 44 38 59 20 9 46 23 57 32 11 8 21 16 22 16 2 0 -5 -16 -14 -35z m-470
-102 c-15 -13 -35 -23 -43 -22 -10 0 -11 2 -2 6 6 2 12 10 12 17 0 7 11 22 25
32 14 10 26 26 26 34 1 8 4 2 6 -15 4 -23 -1 -34 -24 -52z m430 -66 c-3 -23
-11 -37 -20 -37 -8 0 -13 3 -11 8 3 4 10 22 17 40 17 41 22 37 14 -11z m-498
12 c-3 -8 -19 -20 -35 -26 -17 -6 -30 -18 -30 -26 0 -19 -27 -30 -33 -14 -7
20 4 37 23 37 10 0 20 3 22 8 4 8 52 41 56 37 1 -1 0 -9 -3 -16z m225 -120 c0
-35 3 -39 25 -39 29 0 33 -15 7 -29 -10 -5 -32 -39 -48 -75 -23 -53 -33 -66
-51 -66 -13 0 -23 2 -23 4 0 2 16 38 35 79 43 92 46 133 9 150 l-27 12 24 6
c38 9 49 0 49 -42z m220 11 c-8 -5 -22 -9 -30 -9 -10 0 -8 3 5 9 27 12 43 12
25 0z m-465 -20 c3 -5 1 -10 -4 -10 -6 0 -11 5 -11 10 0 6 2 10 4 10 3 0 8 -4
11 -10z m735 -60 c0 -5 -2 -10 -4 -10 -3 0 -8 5 -11 10 -3 6 -1 10 4 10 6 0
11 -4 11 -10z m-890 -4 c0 -3 -4 -8 -10 -11 -5 -3 -10 -1 -10 4 0 6 5 11 10
11 6 0 10 -2 10 -4z m-190 -26 c0 -5 -2 -10 -4 -10 -3 0 -8 5 -11 10 -3 6 -1
10 4 10 6 0 11 -4 11 -10z m1138 -71 c-10 -30 -22 -37 -34 -18 -3 6 -17 9 -30
6 -21 -4 -24 0 -24 23 0 37 4 39 54 27 43 -10 44 -11 34 -38z m-339 5 c2 -2
-10 -4 -26 -4 -17 0 -33 -5 -35 -11 -2 -6 -12 -10 -23 -8 -18 4 -18 5 -1 21
12 13 26 16 49 11 18 -3 34 -7 36 -9z m-663 -9 c14 -13 11 -15 -22 -15 -35 0
-37 1 -18 15 24 18 22 18 40 0z m193 -104 c29 -26 23 -26 -29 -4 -38 17 -40
20 -40 60 0 30 5 45 18 52 15 9 18 4 22 -39 4 -35 12 -55 29 -69z m-285 17
c-9 -57 -20 -76 -46 -80 -22 -3 -56 -50 -57 -79 -1 -9 -8 -22 -16 -29 -8 -7
-15 -23 -15 -36 0 -15 6 -24 15 -24 8 0 15 -4 15 -10 0 -11 -14 -11 -46 -2
-22 7 -22 7 7 70 16 34 32 62 36 62 5 0 19 25 33 55 14 30 28 55 32 55 5 0 8
5 8 12 0 11 28 48 37 48 2 0 0 -19 -3 -42z m336 5 c0 -10 -4 -14 -8 -8 -4 6
-11 13 -16 18 -5 4 -2 7 7 7 10 0 17 -8 17 -17z m417 -15 c-25 -78 -31 -87
-44 -76 -7 6 -13 20 -13 32 0 12 -5 27 -10 32 -21 21 0 44 40 44 l38 0 -11
-32z m193 12 c0 -11 -6 -20 -14 -20 -7 0 -16 9 -19 20 -4 15 0 20 14 20 12 0
19 -7 19 -20z m-620 -61 c0 -7 10 -9 25 -7 17 4 25 1 25 -8 0 -8 -4 -14 -9
-14 -5 0 -12 -13 -16 -28 -5 -25 -10 -28 -40 -28 -40 1 -44 9 -14 30 16 11 20
21 15 40 -4 15 -2 26 4 26 5 0 10 -5 10 -11z m237 -5 c2 -5 -10 -18 -27 -27
-16 -10 -30 -14 -30 -9 0 6 7 12 15 16 8 3 15 13 15 22 0 16 21 15 27 -2z
m-56 -109 c29 -9 57 3 62 28 2 12 5 2 6 -22 0 -25 -4 -61 -11 -80 -15 -44
-143 -172 -164 -164 -18 7 -18 33 1 69 l15 29 0 -28 c0 -24 4 -28 23 -25 33 5
31 50 -3 59 -16 5 -19 7 -7 8 10 1 20 8 23 16 4 8 12 15 20 15 15 0 34 30 34
54 0 9 -8 16 -19 16 -25 0 -31 18 -17 50 11 24 11 24 14 3 2 -12 12 -25 23
-28z m-491 -140 c11 -13 8 -17 -19 -28 -17 -6 -34 -19 -37 -29 -10 -34 -24
-18 -24 27 0 44 0 45 34 45 18 0 39 -7 46 -15z m-260 -4 c0 -6 -4 -13 -10 -16
-5 -3 -10 1 -10 9 0 9 5 16 10 16 6 0 10 -4 10 -9z m566 -79 c-10 -2 -22 0
-28 6 -6 6 0 7 19 4 21 -5 23 -7 9 -10z m-60 -101 c30 -19 64 -81 43 -81 -5 0
-12 7 -15 15 -4 8 -16 15 -29 15 -12 0 -31 11 -41 25 -20 26 -54 34 -54 12 0
-6 4 -28 10 -46 5 -19 8 -36 6 -39 -10 -9 -55 31 -58 51 -4 27 -58 39 -58 13
0 -9 -5 -16 -11 -16 -6 0 -9 8 -7 17 2 11 18 21 41 26 20 5 37 13 37 18 0 17
104 10 136 -10z m184 -53 c0 -10 -30 -11 -30 0 0 4 -3 18 -7 32 l-6 25 22 -24
c11 -13 21 -28 21 -33z m-470 -43 c0 -20 -5 -25 -25 -25 -14 0 -25 5 -25 10 0
6 7 10 15 10 9 0 18 7 21 15 9 22 14 18 14 -10z m570 -45 c-20 -13 -53 -13
-45 0 3 6 18 10 33 10 21 0 24 -2 12 -10z m-597 -60 c6 -22 -3 -26 -20 -9 -12
12 -6 42 7 34 4 -3 10 -14 13 -25z m102 -60 c3 -5 2 -10 -4 -10 -5 0 -13 5
-16 10 -3 6 -2 10 4 10 5 0 13 -4 16 -10z m245 -10 c0 -16 -7 -20 -30 -20 -45
0 -28 31 23 39 4 0 7 -8 7 -19z m137 4 c-3 -3 -12 -4 -19 -1 -8 3 -5 6 6 6 11
1 17 -2 13 -5z"/>
</g>
</svg>
