<?xml version="1.0" standalone="no"?>
<!DOCTYPE svg PUBLIC "-//W3C//DTD SVG 20010904//EN"
 "http://www.w3.org/TR/2001/REC-SVG-20010904/DTD/svg10.dtd">
<svg version="1.0" xmlns="http://www.w3.org/2000/svg"
 width="422.000000pt" height="530.000000pt" viewBox="0 0 422.000000 530.000000"
 preserveAspectRatio="xMidYMid meet">
<metadata>
Created by potrace 1.13, written by Peter Selinger 2001-2015
</metadata>
<g transform="translate(0.000000,530.000000) scale(0.100000,-0.100000)"
fill="#000000" stroke="none">
<path d="M1355 5278 c-42 -15 -85 -46 -120 -86 -33 -38 -125 -197 -125 -217 0
-7 -6 -15 -14 -18 -7 -3 -16 -25 -20 -49 -4 -23 -11 -65 -17 -93 -18 -92 -28
-452 -19 -655 12 -264 23 -567 21 -612 -1 -20 3 -55 8 -78 8 -37 8 -40 -7 -28
-31 24 -53 52 -56 72 -17 90 -29 181 -30 236 -3 109 -14 146 -52 180 -70 61
-123 47 -144 -39 -14 -57 -10 -75 25 -115 14 -16 25 -38 25 -50 0 -12 -19 10
-49 59 -27 44 -72 105 -100 135 -28 30 -56 70 -63 88 -7 17 -15 32 -19 32 -4
0 0 26 9 59 15 57 15 59 -7 87 -12 16 -37 37 -54 46 -35 19 -87 24 -87 9 0 -5
-18 -17 -40 -27 -25 -11 -40 -24 -40 -36 0 -10 -4 -18 -9 -18 -5 0 -12 -20
-15 -45 -9 -54 10 -88 63 -112 20 -9 42 -24 48 -32 47 -59 73 -95 73 -102 0
-20 -14 -39 -30 -39 -22 0 -98 76 -116 115 -14 34 -60 85 -74 85 -6 0 -10 19
-10 42 0 65 -33 123 -81 142 -84 34 -168 15 -192 -42 -36 -84 -33 -131 8 -176
24 -25 103 -66 129 -66 7 0 25 -12 39 -27 15 -16 42 -44 62 -65 19 -20 35 -42
35 -48 0 -6 6 -18 13 -25 29 -33 37 -45 37 -54 0 -6 6 -14 14 -18 7 -4 19 -19
26 -32 10 -19 10 -25 -1 -32 -48 -30 -145 31 -162 103 -4 16 -19 33 -39 42
-60 30 -103 19 -142 -36 -24 -36 -27 -48 -22 -87 8 -59 41 -91 95 -91 32 0 61
-16 173 -92 74 -51 192 -122 263 -157 119 -59 219 -125 270 -176 11 -11 33
-49 50 -85 41 -90 68 -128 160 -228 88 -96 183 -180 210 -188 17 -4 24 -21 39
-92 9 -48 21 -91 25 -97 4 -5 17 -37 30 -70 34 -90 77 -176 126 -252 25 -37
45 -71 45 -75 0 -4 29 -50 65 -103 60 -87 70 -115 45 -115 -14 0 -92 -55 -118
-83 -13 -14 -29 -44 -36 -68 l-13 -42 -33 36 c-18 21 -41 37 -52 37 -12 0 -18
7 -18 22 0 27 -43 91 -75 112 -14 9 -45 15 -78 15 -48 -1 -57 -4 -76 -30 -11
-15 -21 -40 -21 -54 0 -14 -3 -25 -7 -25 -20 0 -95 55 -103 76 -31 80 -181 31
-180 -60 1 -36 13 -60 58 -110 29 -33 39 -38 90 -42 87 -8 96 -11 141 -50 l41
-36 -32 -17 c-18 -9 -39 -28 -46 -43 -27 -58 17 -148 72 -148 32 0 158 -92
279 -202 49 -46 95 -89 101 -96 6 -7 25 -26 41 -42 17 -16 66 -64 111 -107 44
-44 98 -92 120 -109 21 -16 44 -33 50 -39 7 -5 29 -23 50 -40 21 -16 48 -39
60 -50 32 -30 52 -42 127 -77 37 -17 67 -35 67 -40 0 -4 5 -8 10 -8 12 0 89
-48 105 -64 6 -6 28 -20 50 -31 22 -11 42 -22 45 -25 20 -22 287 -181 370
-222 136 -64 189 -88 197 -88 5 0 34 -12 64 -27 54 -26 100 -39 174 -49 47 -6
179 38 220 74 14 12 31 22 38 22 28 0 81 88 90 149 3 23 7 45 10 47 8 9 130
24 191 24 85 0 180 32 256 86 25 17 55 35 68 38 12 4 22 11 22 15 0 3 14 15
30 24 56 33 89 145 115 390 17 162 14 389 -9 522 -35 207 -47 273 -61 320 -7
28 -39 153 -71 280 -31 126 -68 253 -80 282 -13 30 -24 60 -24 67 0 16 -109
131 -132 139 -10 4 -18 15 -18 26 0 23 -74 115 -172 215 -37 38 -68 71 -68 74
0 3 -11 15 -25 28 -14 13 -25 26 -25 29 0 3 -29 45 -65 93 -94 127 -97 132
-207 312 -55 91 -117 191 -139 222 -21 31 -39 62 -39 68 0 5 -9 10 -20 10 -16
0 -20 7 -20 30 0 17 -4 30 -10 30 -5 0 -10 9 -10 20 0 11 -3 20 -8 20 -4 0
-13 14 -21 31 -7 17 -40 72 -72 123 -106 164 -159 278 -169 364 -6 43 -14 96
-20 120 -12 51 -93 215 -118 240 -19 19 -43 117 -31 129 18 20 18 89 0 123
-11 19 -28 53 -39 75 -27 53 -44 68 -133 111 -105 52 -145 65 -219 74 -36 4
-99 22 -140 40 -93 40 -191 75 -250 90 -25 6 -74 25 -110 42 -36 17 -81 36
-102 43 -52 19 -187 27 -223 13z m-218 -1380 c-3 -8 -6 -5 -6 6 -1 11 2 17 5
13 3 -3 4 -12 1 -19z m368 -1388 c8 -13 -5 -13 -25 0 -13 8 -13 10 2 10 9 0
20 -4 23 -10z m40 -130 c8 0 17 -9 20 -20 3 -11 11 -20 16 -20 5 0 9 -7 9 -15
0 -8 10 -24 23 -37 12 -13 21 -32 19 -45 -2 -14 4 -26 16 -32 14 -7 18 -17 15
-31 -3 -13 2 -27 14 -38 11 -9 22 -26 25 -37 3 -11 9 -27 12 -36 6 -13 2 -16
-18 -12 -14 3 -26 12 -26 19 0 8 -6 14 -12 15 -10 0 -10 2 0 6 6 2 12 13 12
24 0 22 -35 27 -44 7 -3 -7 -3 2 0 20 5 28 1 38 -27 65 -28 26 -31 32 -16 35
9 2 17 12 17 24 0 16 -5 19 -23 16 -20 -4 -22 -1 -19 29 4 28 1 33 -17 33 -13
0 -21 -6 -21 -17 0 -15 -2 -16 -10 -3 -6 10 -6 16 0 18 14 5 12 39 -2 45 -10
4 -9 8 2 16 12 8 16 6 18 -9 2 -11 10 -20 17 -20z m223 -388 c2 -7 -3 -12 -12
-12 -9 0 -16 -7 -16 -15 0 -8 -3 -15 -6 -15 -3 0 -12 7 -20 15 -14 13 -13 15
5 15 13 0 21 6 21 16 0 17 22 14 28 -4z"/>
</g>
</svg>
