<?xml version="1.0" standalone="no"?>
<!DOCTYPE svg PUBLIC "-//W3C//DTD SVG 20010904//EN"
 "http://www.w3.org/TR/2001/REC-SVG-20010904/DTD/svg10.dtd">
<svg version="1.0" xmlns="http://www.w3.org/2000/svg"
 width="285.000000pt" height="274.000000pt" viewBox="0 0 285.000000 274.000000"
 preserveAspectRatio="xMidYMid meet">
<metadata>
Created by potrace 1.13, written by Peter Selinger 2001-2015
</metadata>
<g transform="translate(0.000000,274.000000) scale(0.100000,-0.100000)"
fill="#000000" stroke="none">
<path d="M537 2723 c-15 -3 -33 -13 -40 -24 -6 -10 -17 -19 -23 -19 -29 0 -32
-192 -5 -340 11 -58 29 -139 40 -180 11 -41 27 -109 36 -150 17 -78 58 -183
83 -212 13 -16 25 -76 38 -188 6 -55 6 -55 -28 -71 -18 -9 -59 -22 -91 -29
-53 -12 -63 -11 -127 10 -58 19 -74 30 -100 66 -17 24 -36 44 -42 44 -6 0 -19
6 -27 13 -23 18 -89 39 -101 32 -20 -13 -9 -35 30 -60 40 -25 56 -54 23 -40
-43 18 -124 28 -135 17 -16 -16 8 -60 44 -78 39 -20 37 -44 -4 -44 -22 0 -41
-9 -57 -25 -36 -38 -22 -55 45 -55 46 0 62 -5 93 -28 64 -50 132 -92 175 -109
57 -23 248 -29 304 -10 66 23 76 9 80 -107 4 -94 3 -97 -32 -162 -21 -37 -43
-73 -52 -81 -8 -8 -19 -24 -25 -35 -11 -21 -12 -21 -22 -2 -19 37 -49 63 -66
57 -34 -12 -40 -32 -25 -75 16 -46 18 -96 4 -118 -5 -8 -10 -12 -12 -10 -2 3
-16 24 -31 47 -21 33 -35 44 -63 49 -72 13 -91 -23 -41 -77 19 -20 42 -57 52
-83 18 -48 14 -71 -8 -44 -22 27 -84 58 -115 58 -33 0 -82 -18 -82 -31 0 -4
-3 -14 -6 -22 -4 -11 5 -18 30 -27 52 -17 64 -36 26 -43 -21 -5 -28 -11 -24
-22 3 -8 11 -15 17 -15 5 0 24 -11 41 -24 17 -12 45 -30 61 -39 17 -8 49 -33
72 -55 43 -40 75 -61 198 -127 39 -21 84 -46 101 -56 16 -10 55 -25 86 -33 80
-21 183 -59 254 -94 33 -17 83 -36 110 -42 27 -6 70 -15 96 -21 50 -11 168 -5
253 13 53 11 128 35 290 93 55 19 143 42 195 50 96 15 195 55 246 100 27 23
68 56 105 84 14 11 42 23 63 26 78 15 148 112 140 195 -3 25 -8 110 -13 190
-6 92 -15 161 -25 190 -18 48 -33 93 -65 203 -26 90 -96 235 -129 271 -33 34
-127 106 -164 125 -25 13 -72 8 -130 -14 -9 -4 -25 11 -45 39 -19 27 -66 68
-120 104 -167 113 -285 264 -456 582 -57 106 -146 240 -181 273 -37 36 -130
106 -179 136 -34 21 -46 23 -105 17 -52 -5 -93 -1 -187 19 -111 23 -179 28
-248 18z"/>
</g>
</svg>
