<?xml version="1.0" standalone="no"?>
<!DOCTYPE svg PUBLIC "-//W3C//DTD SVG 20010904//EN"
 "http://www.w3.org/TR/2001/REC-SVG-20010904/DTD/svg10.dtd">
<svg version="1.0" xmlns="http://www.w3.org/2000/svg"
 width="285.000000pt" height="274.000000pt" viewBox="0 0 285.000000 274.000000"
 preserveAspectRatio="xMidYMid meet">
<metadata>
Created by potrace 1.13, written by Peter Selinger 2001-2015
</metadata>
<g transform="translate(0.000000,274.000000) scale(0.100000,-0.100000)"
fill="#000000" stroke="none">
<path d="M537 2723 c-15 -3 -33 -13 -40 -24 -6 -10 -17 -19 -23 -19 -29 0 -32
-192 -5 -340 11 -58 29 -139 40 -180 11 -41 27 -109 36 -150 17 -78 58 -183
82 -211 17 -20 37 -134 37 -200 -1 -44 -4 -49 -83 -125 -98 -94 -142 -122
-203 -130 -43 -6 -47 -5 -92 40 -50 48 -75 56 -97 30 -10 -12 -10 -20 -1 -35
24 -39 7 -84 -23 -59 -20 17 -96 8 -109 -12 -9 -14 -4 -25 28 -57 37 -37 37
-39 16 -43 -13 -1 -28 -10 -33 -20 -18 -27 9 -48 60 -48 24 0 59 -6 77 -14 25
-11 74 -14 188 -12 174 2 194 8 285 90 28 26 54 43 57 38 3 -5 8 -52 12 -105
l7 -95 -36 -65 c-20 -36 -43 -73 -51 -84 -9 -10 -22 -26 -29 -36 -12 -17 -15
-14 -36 32 -25 55 -71 101 -103 101 -17 0 -19 -4 -14 -32 3 -18 17 -60 31 -93
25 -62 32 -119 15 -145 -10 -16 -9 -17 -39 33 -33 54 -88 79 -135 61 -26 -10
-18 -37 23 -80 39 -42 80 -129 66 -142 -4 -4 -10 -1 -12 5 -8 21 -123 80 -203
104 -80 25 -181 29 -206 8 -29 -23 -16 -46 29 -53 45 -7 223 -80 245 -101 11
-10 8 -13 -17 -18 -25 -5 -31 -12 -31 -31 0 -19 7 -26 32 -31 51 -11 119 -50
165 -93 43 -40 74 -61 198 -127 39 -21 84 -46 101 -56 16 -10 55 -25 86 -33
80 -21 183 -59 254 -94 33 -17 83 -36 110 -42 27 -6 70 -15 96 -21 50 -11 168
-5 253 13 53 11 128 35 290 93 55 19 143 42 195 50 96 15 195 55 246 100 13
11 37 31 54 45 17 14 32 26 34 28 2 2 31 -2 65 -9 109 -21 178 14 215 109 15
39 15 64 6 240 -15 282 -16 289 -70 392 -4 9 -11 30 -14 48 -4 17 -12 34 -17
37 -5 4 -9 13 -9 22 0 28 -165 264 -229 327 -43 43 -56 49 -100 54 -44 4 -107
-5 -153 -23 -9 -4 -25 11 -45 39 -19 27 -66 68 -120 104 -165 112 -280 257
-451 572 -19 36 -62 109 -94 162 -33 53 -62 114 -65 135 -8 54 -38 98 -91 135
-63 43 -153 51 -205 19 -44 -27 -59 -26 -203 4 -110 23 -178 28 -247 18z"/>
</g>
</svg>
