<?xml version="1.0" standalone="no"?>
<!DOCTYPE svg PUBLIC "-//W3C//DTD SVG 20010904//EN"
 "http://www.w3.org/TR/2001/REC-SVG-20010904/DTD/svg10.dtd">
<svg version="1.0" xmlns="http://www.w3.org/2000/svg"
 width="171.000000pt" height="210.000000pt" viewBox="0 0 171.000000 210.000000"
 preserveAspectRatio="xMidYMid meet">
<metadata>
Created by potrace 1.13, written by Peter Selinger 2001-2015
</metadata>
<g transform="translate(0.000000,210.000000) scale(0.100000,-0.100000)"
fill="#000000" stroke="none">
<path d="M540 2075 c-33 -11 -55 -12 -80 -5 -44 12 -127 13 -134 1 -3 -4 -18
-11 -34 -14 -60 -12 -74 -96 -48 -297 11 -85 22 -123 57 -200 23 -52 51 -107
61 -122 10 -14 18 -37 18 -50 0 -13 4 -38 9 -56 6 -18 12 -81 15 -140 l6 -107
-42 -59 c-38 -53 -42 -57 -49 -37 -6 13 -17 21 -33 21 -25 0 -36 -16 -36 -53
0 -18 -3 -16 -17 11 -27 55 -90 56 -79 1 6 -32 0 -35 -28 -14 -11 8 -39 15
-63 15 -36 0 -43 -3 -43 -20 0 -11 12 -30 26 -43 l26 -22 -24 -5 c-26 -7 -35
-34 -18 -55 6 -8 28 -19 48 -26 20 -7 42 -17 49 -23 34 -31 45 -36 88 -47 57
-14 128 -5 165 21 15 11 33 20 39 20 6 0 11 4 11 9 0 4 16 23 36 42 20 19 50
49 68 67 17 17 35 32 39 32 5 0 30 -22 55 -49 26 -26 63 -54 82 -61 30 -11
151 -66 228 -103 12 -6 22 -13 22 -16 0 -9 -210 -121 -253 -135 -9 -3 -20 -14
-23 -23 -3 -10 -12 -30 -20 -45 -8 -14 -14 -45 -14 -69 0 -37 7 -52 60 -116
48 -59 56 -73 41 -73 -11 0 -22 4 -25 9 -17 27 -90 51 -154 51 -72 0 -92 -10
-92 -45 0 -33 20 -45 72 -45 74 0 57 -16 -24 -24 -82 -7 -104 -21 -94 -60 6
-25 10 -26 74 -27 59 -1 63 -2 35 -10 -39 -11 -43 -36 -11 -63 19 -17 28 -17
89 -7 43 7 122 9 211 5 132 -6 151 -4 247 20 145 36 318 112 325 142 4 13 19
30 34 38 46 24 217 217 251 283 20 41 21 54 21 445 l0 404 -48 47 c-26 26 -52
47 -58 47 -6 0 -19 9 -29 20 -10 11 -26 20 -35 20 -9 0 -25 9 -35 20 -10 11
-24 20 -32 20 -12 0 -63 26 -166 82 -18 10 -48 18 -68 18 -20 0 -56 11 -80 24
-25 14 -71 27 -106 31 -81 9 -126 39 -182 121 -24 36 -63 83 -86 105 -24 23
-46 54 -49 70 -8 44 -44 86 -88 104 -45 18 -50 18 -108 0z m587 -831 c-3 -3
-12 -4 -19 -1 -8 3 -5 6 6 6 11 1 17 -2 13 -5z m-150 -30 c-3 -3 -12 -4 -19
-1 -8 3 -5 6 6 6 11 1 17 -2 13 -5z m-257 -14 c0 -13 -11 -13 -30 0 -12 8 -11
10 8 10 12 0 22 -4 22 -10z m-5 -190 c3 -5 1 -10 -4 -10 -6 0 -11 5 -11 10 0
6 2 10 4 10 3 0 8 -4 11 -10z m75 -51 c0 -5 -7 -9 -15 -9 -8 0 -15 7 -15 15 0
9 6 12 15 9 8 -4 15 -10 15 -15z m90 -64 c0 -9 -6 -12 -15 -9 -8 4 -15 10 -15
15 0 5 7 9 15 9 8 0 15 -7 15 -15z"/>
</g>
</svg>
