<?xml version="1.0" standalone="no"?>
<!DOCTYPE svg PUBLIC "-//W3C//DTD SVG 20010904//EN"
 "http://www.w3.org/TR/2001/REC-SVG-20010904/DTD/svg10.dtd">
<svg version="1.0" xmlns="http://www.w3.org/2000/svg"
 width="317.000000pt" height="361.000000pt" viewBox="0 0 317.000000 361.000000"
 preserveAspectRatio="xMidYMid meet">
<metadata>
Created by potrace 1.13, written by Peter Selinger 2001-2015
</metadata>
<g transform="translate(0.000000,361.000000) scale(0.100000,-0.100000)"
fill="#000000" stroke="none">
<path d="M5 3529 c4 -46 15 -243 25 -438 10 -194 22 -357 27 -361 4 -4 112
-87 240 -184 l232 -177 416 -124 c229 -68 418 -125 420 -127 2 -2 21 -334 44
-738 22 -404 43 -760 46 -790 l5 -55 -712 -69 c-392 -38 -717 -73 -723 -78 -5
-5 -1 -8 10 -8 11 0 389 -85 839 -189 l819 -189 733 182 c403 99 730 184 726
188 -4 4 -268 42 -586 85 l-579 78 7 235 c3 129 9 496 12 816 l7 581 319 159
319 159 138 140 c235 238 257 318 214 793 l-17 192 -76 -5 c-340 -24 -1379
-32 -1940 -15 -168 5 -455 12 -638 16 l-332 7 5 -84z"/>
</g>
</svg>
