<?xml version="1.0" standalone="no"?>
<!DOCTYPE svg PUBLIC "-//W3C//DTD SVG 20010904//EN"
 "http://www.w3.org/TR/2001/REC-SVG-20010904/DTD/svg10.dtd">
<svg version="1.0" xmlns="http://www.w3.org/2000/svg"
 width="324.000000pt" height="361.000000pt" viewBox="0 0 324.000000 361.000000"
 preserveAspectRatio="xMidYMid meet">
<metadata>
Created by potrace 1.13, written by Peter Selinger 2001-2015
</metadata>
<g transform="translate(0.000000,361.000000) scale(0.100000,-0.100000)"
fill="#000000" stroke="none">
<path d="M5 3529 c4 -46 15 -243 25 -438 10 -194 22 -357 27 -361 4 -4 113
-87 240 -184 l233 -177 347 -103 c192 -57 380 -114 420 -125 46 -14 71 -26 68
-34 -2 -7 -52 -367 -111 -802 -58 -434 -107 -790 -108 -791 0 0 -239 -108
-531 -239 -292 -130 -546 -246 -565 -256 -34 -18 10 -18 1574 -19 1444 0 1607
2 1596 15 -7 9 -196 140 -419 292 -223 151 -407 277 -409 278 -2 2 -88 358
-191 791 l-189 789 322 162 321 161 131 134 c134 138 171 190 205 293 29 86
35 254 15 439 -9 82 -16 173 -16 203 l0 54 -77 -6 c-320 -24 -1378 -32 -1943
-15 -168 5 -455 12 -638 16 l-332 7 5 -84z"/>
</g>
</svg>
