<?xml version="1.0" standalone="no"?>
<!DOCTYPE svg PUBLIC "-//W3C//DTD SVG 20010904//EN"
 "http://www.w3.org/TR/2001/REC-SVG-20010904/DTD/svg10.dtd">
<svg version="1.0" xmlns="http://www.w3.org/2000/svg"
 width="324.000000pt" height="361.000000pt" viewBox="0 0 324.000000 361.000000"
 preserveAspectRatio="xMidYMid meet">
<metadata>
Created by potrace 1.13, written by Peter Selinger 2001-2015
</metadata>
<g transform="translate(0.000000,361.000000) scale(0.100000,-0.100000)"
fill="#000000" stroke="none">
<path d="M4 3543 c4 -37 13 -207 21 -378 8 -170 18 -338 21 -372 l5 -62 112
-84 c62 -46 169 -128 239 -182 l128 -97 417 -124 c229 -68 417 -125 418 -126
1 -2 21 -343 44 -758 23 -415 43 -771 46 -790 l5 -35 -698 -254 c-383 -140
-708 -260 -722 -267 -20 -11 266 -13 1585 -13 1300 0 1607 2 1593 12 -9 7
-290 127 -624 267 l-607 254 7 361 c3 198 9 565 12 816 l7 456 311 154 311
154 127 124 c201 196 246 282 255 491 3 71 -1 172 -11 264 -9 82 -16 173 -16
202 0 51 -1 54 -22 50 -13 -3 -54 -7 -93 -11 -105 -9 -218 -40 -298 -82 -55
-29 -102 -67 -197 -161 -147 -145 -205 -179 -317 -189 -120 -10 -192 23 -458
207 -184 126 -268 176 -357 208 l-73 27 -588 3 -588 3 5 -68z"/>
</g>
</svg>
