<?xml version="1.0" standalone="no"?>
<!DOCTYPE svg PUBLIC "-//W3C//DTD SVG 20010904//EN"
 "http://www.w3.org/TR/2001/REC-SVG-20010904/DTD/svg10.dtd">
<svg version="1.0" xmlns="http://www.w3.org/2000/svg"
 width="437.000000pt" height="309.000000pt" viewBox="0 0 437.000000 309.000000"
 preserveAspectRatio="xMidYMid meet">
<metadata>
Created by potrace 1.13, written by Peter Selinger 2001-2015
</metadata>
<g transform="translate(0.000000,309.000000) scale(0.100000,-0.100000)"
fill="#000000" stroke="none">
<path d="M4030 3060 c-8 -5 -38 -10 -66 -10 -53 0 -84 -19 -84 -52 0 -14 -6
-15 -36 -6 -50 13 -90 -4 -106 -47 -11 -31 -13 -33 -32 -19 -28 19 -110 18
-130 -2 -9 -8 -16 -24 -16 -35 0 -10 -7 -19 -15 -19 -8 0 -15 4 -15 10 0 5
-16 12 -36 16 -51 9 -103 -16 -110 -55 -4 -21 -16 -33 -43 -45 -20 -9 -55 -30
-78 -48 -35 -26 -51 -31 -87 -29 -28 1 -48 -3 -53 -11 -12 -20 -51 -43 -223
-133 -85 -45 -213 -115 -285 -156 -71 -42 -161 -93 -200 -114 -38 -21 -170
-93 -292 -161 -123 -68 -231 -124 -241 -124 -11 0 -48 16 -85 35 -36 19 -91
44 -124 56 -32 12 -62 28 -66 35 -5 9 -26 14 -55 14 -26 0 -61 4 -78 9 -68 19
-264 15 -379 -9 -60 -12 -125 -24 -143 -27 -18 -3 -35 -9 -38 -14 -3 -5 -20
-9 -37 -9 -18 0 -42 -6 -54 -13 -12 -6 -68 -36 -125 -66 -57 -29 -123 -67
-148 -85 -25 -18 -60 -38 -77 -45 -18 -7 -33 -20 -33 -28 0 -8 -31 -45 -68
-81 -38 -37 -86 -89 -107 -117 -21 -27 -46 -56 -56 -63 -11 -7 -19 -20 -19
-28 0 -8 -17 -47 -39 -87 -75 -140 -101 -254 -101 -447 0 -229 2 -251 32 -302
21 -34 29 -64 32 -112 4 -70 10 -86 31 -86 8 0 11 -7 8 -20 -6 -23 27 -99 44
-100 6 0 17 -13 24 -29 10 -23 24 -32 57 -41 30 -7 46 -17 49 -30 3 -11 9 -20
14 -20 5 0 14 -11 19 -25 8 -20 16 -25 44 -25 19 0 41 -6 48 -14 8 -7 35 -23
61 -34 37 -17 47 -26 47 -45 0 -29 29 -57 58 -57 15 0 24 -8 28 -25 9 -35 28
-48 64 -40 21 5 32 14 36 32 6 22 10 24 38 18 68 -16 123 -24 163 -24 36 -1
43 -5 54 -31 24 -52 109 -49 109 4 0 22 4 23 98 29 60 3 121 14 161 28 64 22
71 21 84 -16 2 -5 20 -4 46 3 37 12 42 16 39 40 -3 24 4 30 67 62 73 37 189
112 200 130 4 7 12 7 25 0 36 -19 67 -12 80 20 7 16 10 36 7 44 -3 8 13 34 38
61 50 52 135 163 135 175 0 4 17 7 37 6 32 -1 38 3 47 27 7 20 7 33 -2 47 -17
27 -15 39 11 96 13 27 30 75 37 107 13 56 14 58 42 52 18 -4 33 -1 43 9 16 16
21 71 6 80 -4 3 -14 32 -20 65 -6 32 -18 65 -26 71 -10 8 -15 31 -15 66 0 47
2 53 23 56 28 4 35 49 13 83 -9 13 -16 37 -16 52 0 15 -5 35 -10 43 -7 11 -3
21 18 40 42 38 73 94 72 132 -2 73 12 118 53 164 40 45 432 312 622 424 81 48
151 95 165 111 3 3 40 26 83 52 67 40 87 48 139 50 37 2 66 -2 76 -10 10 -7
25 -13 35 -13 20 0 34 -12 60 -52 15 -24 24 -28 67 -28 49 0 81 17 92 50 2 8
12 7 34 -6 27 -15 35 -16 74 -3 31 10 49 22 58 41 12 25 14 26 40 12 32 -17
37 -17 82 -4 21 6 42 21 52 37 10 16 18 23 18 16 0 -6 18 -14 41 -18 41 -7 91
7 117 31 14 15 16 76 2 90 -7 7 3 16 29 27 34 15 42 26 57 70 9 28 18 70 18
92 1 49 -29 91 -146 208 -76 74 -80 77 -126 77 -26 0 -54 -5 -62 -10z m-153
-452 c-3 -8 -6 -5 -6 6 -1 11 2 17 5 13 3 -3 4 -12 1 -19z m288 -38 c-3 -5
-14 -10 -23 -10 -15 0 -15 2 -2 10 20 13 33 13 25 0z m-160 -49 c-3 -6 -14
-11 -23 -11 -15 1 -15 2 2 15 21 16 32 13 21 -4z m-180 -41 c-3 -5 -14 -10
-23 -10 -15 0 -15 2 -2 10 20 13 33 13 25 0z m-165 -40 c-8 -5 -19 -10 -25
-10 -5 0 -3 5 5 10 8 5 20 10 25 10 6 0 3 -5 -5 -10z m-1497 -737 c-7 -3 -13
-11 -13 -20 0 -16 -22 -13 -27 3 -4 11 39 35 47 26 3 -2 -1 -7 -7 -9z m87 -23
c0 -5 -5 -10 -11 -10 -5 0 -7 5 -4 10 3 6 8 10 11 10 2 0 4 -4 4 -10z m-40
-79 c0 -14 -18 -23 -30 -16 -6 4 -8 11 -5 16 8 12 35 12 35 0z m-1176 -60 c8
-12 -64 -49 -100 -51 -61 -4 -74 -1 -67 17 4 11 8 12 11 5 4 -14 72 -17 72 -3
0 5 11 12 25 15 14 4 25 11 25 16 0 12 27 13 34 1z m-384 -21 c8 -5 11 -12 8
-16 -10 -9 -38 3 -38 16 0 12 10 13 30 0z m80 -65 c0 -28 4 -35 20 -35 11 0
20 5 20 10 0 7 13 8 35 4 31 -5 35 -4 35 15 0 25 6 26 25 7 12 -12 5 -18 -44
-45 l-59 -31 -40 32 c-42 34 -53 58 -27 58 8 0 15 5 15 10 0 6 5 10 10 10 6 0
10 -16 10 -35z m977 -61 c-3 -3 -12 -4 -19 -1 -8 3 -5 6 6 6 11 1 17 -2 13 -5z
m-1104 -105 c15 0 17 -2 7 -6 -8 -3 -17 -9 -20 -12 -3 -3 -30 -25 -61 -48 -55
-41 -57 -41 -61 -19 -4 19 -1 22 19 18 18 -3 23 0 23 16 0 13 9 22 24 26 17 4
27 16 32 38 7 28 9 30 12 11 2 -16 11 -23 25 -24z m607 -24 c0 -2 -15 -12 -32
-21 -18 -9 -36 -22 -40 -28 -6 -8 -8 -8 -8 1 0 6 15 20 33 31 32 21 47 26 47
17z m-10 -75 c0 -5 -4 -10 -10 -10 -5 0 -10 5 -10 10 0 6 5 10 10 10 6 0 10
-4 10 -10z m-740 -14 c0 -3 -4 -8 -10 -11 -5 -3 -10 -1 -10 4 0 6 5 11 10 11
6 0 10 -2 10 -4z m-285 -56 c0 -26 -4 -40 -12 -40 -7 0 -13 -9 -13 -20 0 -13
7 -20 19 -20 14 0 17 -6 13 -25 -3 -19 0 -25 13 -25 15 0 15 -3 -5 -20 -22
-19 -25 -19 -33 -4 -13 23 -21 125 -13 168 9 47 31 38 31 -14z m886 30 c11 0
18 -4 15 -9 -3 -4 -17 -6 -31 -3 -20 3 -25 0 -25 -17 0 -11 5 -21 10 -21 6 0
10 -4 10 -10 0 -5 -9 -10 -20 -10 -24 0 -28 -38 -5 -46 8 -4 15 -10 15 -15 0
-5 -7 -9 -15 -9 -8 0 -15 -6 -15 -12 0 -7 -6 -4 -12 7 -6 11 -26 36 -44 55
l-34 36 63 37 c34 20 64 32 65 27 2 -6 13 -10 23 -10z m76 14 c-3 -3 -12 -4
-19 -1 -8 3 -5 6 6 6 11 1 17 -2 13 -5z m-734 -18 c4 -9 -9 -24 -34 -40 -21
-15 -39 -22 -39 -16 0 5 -8 10 -17 11 -20 1 -12 4 30 13 18 4 27 13 27 26 0
23 25 27 33 6z m-143 -60 c0 -2 -9 -6 -20 -9 -11 -3 -20 -1 -20 4 0 5 9 9 20
9 11 0 20 -2 20 -4z m610 -76 c6 -11 8 -20 6 -20 -3 0 -10 9 -16 20 -6 11 -8
20 -6 20 3 0 10 -9 16 -20z m-90 1 c0 -6 -4 -13 -10 -16 -5 -3 -11 -16 -11
-28 -1 -17 -2 -18 -6 -4 -2 9 -12 17 -21 17 -28 0 -45 -17 -40 -38 5 -17 -1
-22 -38 -31 -24 -6 -44 -16 -44 -22 0 -6 -13 -7 -35 -3 -23 4 -35 2 -35 -5 0
-6 -7 -11 -15 -11 -8 0 -15 -4 -15 -10 0 -5 -7 -7 -15 -4 -9 4 15 22 68 49 45
24 109 59 142 78 65 38 75 42 75 28z m230 -90 c0 -23 -30 -37 -41 -19 -5 8 0
17 14 25 28 16 27 16 27 -6z m107 -33 c-3 -8 -6 -5 -6 6 -1 11 2 17 5 13 3 -3
4 -12 1 -19z m-959 -64 c2 -28 2 -28 -13 -10 -18 24 -20 49 -2 44 6 -3 13 -18
15 -34z m297 7 c-3 -6 -11 -8 -17 -5 -6 4 -5 9 3 15 16 10 23 4 14 -10z m335
-11 c0 -5 -7 -7 -15 -4 -8 4 -15 8 -15 10 0 2 7 4 15 4 8 0 15 -4 15 -10z
m-480 -93 c0 -29 5 -35 35 -47 26 -10 35 -20 35 -37 0 -16 6 -23 20 -23 11 0
20 -4 20 -10 0 -5 9 -10 20 -10 11 0 20 -4 20 -10 0 -5 7 -10 15 -10 9 0 18
-7 21 -15 5 -11 22 -14 82 -11 43 2 69 1 60 -1 -25 -6 -23 -43 2 -43 14 0 20
7 21 23 1 16 2 18 6 5 2 -10 9 -18 14 -18 5 0 9 -7 9 -15 0 -18 40 -20 41 -2
0 10 2 10 6 0 8 -21 43 -15 43 7 0 13 5 18 15 14 8 -4 15 -12 15 -20 0 -8 9
-14 20 -14 11 0 20 5 20 10 0 15 38 12 43 -2 3 -10 11 -10 35 -1 18 6 32 7 32
2 0 -5 9 -9 20 -9 11 0 20 5 20 10 0 6 9 10 20 10 11 0 20 6 20 13 0 8 3 7 10
-3 8 -12 14 -13 42 -2 21 8 34 9 36 2 2 -5 10 -10 18 -10 22 0 16 -17 -8 -23
-13 -3 -63 -12 -111 -19 -69 -9 -92 -10 -107 0 -25 15 -67 16 -76 1 -14 -24
-228 16 -276 51 -15 11 -39 20 -53 20 -32 0 -123 58 -188 121 -41 39 -47 50
-41 73 9 37 24 32 24 -7z m1201 -181 c-6 -6 -37 -25 -71 -41 -44 -21 -63 -26
-71 -18 -8 8 8 21 62 46 72 33 100 38 80 13z m-511 -12 c0 -2 -7 -4 -15 -4 -8
0 -15 4 -15 10 0 5 7 7 15 4 8 -4 15 -8 15 -10z m280 -84 c0 -13 -64 -29 -69
-17 -2 5 3 13 10 18 19 12 59 11 59 -1z m243 -27 c-7 -2 -19 -2 -25 0 -7 3 -2
5 12 5 14 0 19 -2 13 -5z m-673 -23 c0 -5 -9 -10 -20 -10 -11 0 -20 5 -20 10
0 6 9 10 20 10 11 0 20 -4 20 -10z m759 -14 c-2 -2 -17 -6 -34 -9 l-30 -6 30
13 c26 12 47 13 34 2z m-94 -16 c4 -6 -8 -10 -29 -10 -20 0 -36 -5 -36 -11 0
-5 -5 -7 -11 -3 -14 8 0 21 31 27 14 2 28 5 32 6 4 0 10 -3 13 -9z m125 -40
c0 -5 -7 -10 -15 -10 -8 0 -15 -6 -15 -14 0 -30 -85 -35 -100 -6 -7 14 -7 20
0 20 5 0 10 -4 10 -10 0 -16 27 -12 62 10 36 22 58 26 58 10z m-330 -20 c-8
-5 -22 -9 -30 -9 -10 0 -8 3 5 9 27 12 43 12 25 0z m60 -58 c0 -14 -12 -21
-47 -29 -69 -16 -85 -5 -32 23 54 28 79 30 79 6z m199 -16 c-15 -13 -49 -25
-49 -17 0 5 8 12 18 14 24 6 36 8 31 3z m-186 -60 c5 -13 -27 -26 -103 -41
-34 -7 -35 -6 -13 10 20 14 86 42 104 44 4 1 9 -5 12 -13z m-453 -26 c0 -5
-12 -10 -27 -10 -22 0 -25 2 -13 10 20 13 40 13 40 0z"/>
</g>
</svg>
