<?xml version="1.0" standalone="no"?>
<!DOCTYPE svg PUBLIC "-//W3C//DTD SVG 20010904//EN"
 "http://www.w3.org/TR/2001/REC-SVG-20010904/DTD/svg10.dtd">
<svg version="1.0" xmlns="http://www.w3.org/2000/svg"
 width="325.000000pt" height="148.000000pt" viewBox="0 0 325.000000 148.000000"
 preserveAspectRatio="xMidYMid meet">
<metadata>
Created by potrace 1.13, written by Peter Selinger 2001-2015
</metadata>
<g transform="translate(0.000000,148.000000) scale(0.100000,-0.100000)"
fill="#000000" stroke="none">
<path d="M182 1437 c-23 -23 -42 -48 -42 -55 0 -7 -6 -23 -14 -35 -8 -12 -17
-54 -21 -92 -6 -64 -5 -72 14 -89 18 -17 26 -18 57 -8 30 9 39 8 51 -4 17 -17
53 -19 53 -3 0 12 29 38 43 39 4 0 7 -6 7 -13 0 -19 44 -40 68 -33 11 4 22 16
25 26 7 28 32 25 45 -5 14 -31 52 -33 72 -5 19 26 32 25 63 -6 20 -20 33 -25
52 -20 14 4 25 13 25 20 0 16 12 19 143 37 62 9 94 9 110 2 12 -6 90 -35 172
-63 155 -54 172 -61 265 -102 30 -13 84 -35 119 -49 77 -29 110 -60 136 -127
11 -29 23 -52 27 -52 4 0 8 -6 8 -13 0 -7 16 -40 36 -73 20 -32 42 -68 48 -79
25 -47 148 -223 183 -264 116 -134 216 -220 354 -303 99 -60 130 -68 280 -68
114 0 130 2 175 25 84 43 237 164 370 292 24 24 49 43 55 43 23 0 59 54 59 89
0 10 5 21 12 23 18 6 15 114 -5 181 -31 104 -67 168 -134 234 -130 127 -263
182 -578 234 -128 21 -408 30 -650 21 -70 -3 -97 2 -215 38 -74 23 -192 56
-262 75 -70 19 -132 37 -138 40 -6 3 -52 17 -103 30 -50 13 -103 27 -117 30
-14 4 -34 10 -45 15 -11 5 -56 20 -100 34 -70 23 -97 26 -220 26 -97 0 -177 6
-260 21 -189 33 -174 34 -223 -14z m1945 -368 l-38 -20 -52 20 -52 20 90 0 90
0 -38 -20z m403 -11 c52 -9 60 -13 42 -19 -14 -5 -30 -4 -41 3 -14 8 -32 5
-84 -16 -78 -31 -84 -31 -91 -8 -4 10 -16 28 -27 41 l-21 22 79 -6 c43 -3 107
-11 143 -17z m238 -59 c37 -9 51 -17 47 -27 -3 -7 -5 -20 -5 -28 0 -10 -12
-14 -40 -14 -32 0 -40 -4 -40 -19 0 -10 -7 -25 -17 -32 -15 -13 -15 -12 -5 8
18 32 15 93 -5 116 -14 16 -15 19 -3 15 8 -3 39 -11 68 -19z m-856 -94 c86
-30 93 -35 99 -64 11 -54 51 -104 96 -122 29 -11 104 -4 134 12 13 7 18 3 23
-14 3 -12 16 -33 29 -47 13 -14 26 -33 30 -42 3 -10 11 -18 17 -18 6 0 21 -11
33 -23 47 -51 106 -61 168 -29 28 14 41 16 60 8 37 -16 53 -46 24 -46 -8 0
-15 -7 -15 -15 0 -9 -7 -18 -15 -21 -18 -7 -20 -41 -2 -47 6 -2 1 -2 -13 0
-13 3 -81 32 -150 65 -106 52 -183 96 -425 243 -19 12 -42 28 -53 38 -10 9
-22 17 -25 17 -4 0 -15 7 -24 16 -151 137 -150 136 -116 129 17 -3 73 -21 125
-40z m718 -197 c0 -7 -4 -19 -9 -26 -6 -11 -9 -9 -14 7 -2 11 -2 22 1 25 10
10 22 6 22 -6z m80 -48 c0 -5 -5 -10 -11 -10 -5 0 -7 5 -4 10 3 6 8 10 11 10
2 0 4 -4 4 -10z m-6 -52 c6 -5 1 -8 -11 -8 -25 0 -26 1 -16 26 5 14 8 15 11 3
3 -7 10 -17 16 -21z m488 -40 c-7 -7 -12 -20 -12 -30 0 -10 -4 -26 -9 -36 -5
-9 -16 -32 -24 -50 l-14 -34 -30 54 c-43 80 -28 101 77 107 19 1 21 -2 12 -11z
m-404 -37 c-7 -2 -17 -9 -21 -15 -6 -7 -7 -4 -3 7 3 10 6 26 6 35 1 15 3 14
16 -3 11 -15 12 -21 2 -24z m37 -31 c3 -5 1 -10 -4 -10 -6 0 -11 5 -11 10 0 6
2 10 4 10 3 0 8 -4 11 -10z m-78 -106 c-3 -3 -12 -4 -19 -1 -8 3 -5 6 6 6 11
1 17 -2 13 -5z"/>
</g>
</svg>
