<?xml version="1.0" standalone="no"?>
<!DOCTYPE svg PUBLIC "-//W3C//DTD SVG 20010904//EN"
 "http://www.w3.org/TR/2001/REC-SVG-20010904/DTD/svg10.dtd">
<svg version="1.0" xmlns="http://www.w3.org/2000/svg"
 width="294.000000pt" height="478.000000pt" viewBox="0 0 294.000000 478.000000"
 preserveAspectRatio="xMidYMid meet">
<metadata>
Created by potrace 1.13, written by Peter Selinger 2001-2015
</metadata>
<g transform="translate(0.000000,478.000000) scale(0.100000,-0.100000)"
fill="#000000" stroke="none">
<path d="M63 4734 c-18 -21 -37 -58 -44 -86 -11 -49 -11 -50 21 -83 l32 -33
-32 -31 -33 -31 13 -61 c17 -78 41 -93 99 -61 48 27 49 27 53 0 3 -21 8 -23
63 -23 72 0 81 -16 35 -65 -38 -40 -40 -81 -5 -115 29 -30 98 -35 127 -8 17
15 18 15 18 -1 0 -27 68 -51 105 -37 23 9 31 8 34 -1 2 -7 41 -87 86 -178 110
-219 304 -618 345 -705 18 -38 74 -155 125 -260 183 -374 197 -406 200 -465 3
-64 -24 -135 -74 -192 -23 -27 -31 -45 -31 -75 0 -34 -4 -41 -37 -58 -20 -11
-107 -90 -192 -175 -185 -184 -191 -195 -199 -369 -8 -186 34 -367 133 -576
32 -68 185 -305 219 -341 6 -6 27 -31 46 -55 49 -61 205 -217 265 -264 28 -22
52 -43 55 -46 12 -15 190 -138 245 -170 156 -90 339 -154 476 -166 116 -10
250 24 309 79 14 13 50 43 80 68 64 53 69 57 149 134 94 91 131 187 131 346 0
52 6 74 26 110 25 43 27 53 28 190 1 164 -20 288 -60 352 -13 21 -24 40 -24
43 0 23 -105 209 -161 285 -38 52 -76 110 -84 128 -8 17 -19 32 -25 32 -6 0
-56 45 -110 100 -55 55 -105 100 -111 100 -9 0 -158 108 -187 137 -7 7 -20 13
-28 13 -9 0 -61 23 -117 51 -58 28 -110 48 -120 45 -27 -7 -67 11 -67 29 0 8
-7 15 -15 15 -8 0 -15 8 -15 18 0 9 -7 30 -15 46 -33 64 -60 111 -66 116 -5 4
-29 49 -111 210 -13 25 -25 47 -29 50 -7 7 -95 167 -189 345 -29 55 -56 105
-60 110 -5 6 -41 73 -80 150 -64 124 -95 182 -174 330 -11 22 -23 42 -26 45
-3 3 -29 52 -59 110 -29 58 -62 121 -73 140 -47 80 -128 245 -128 261 0 10 -8
20 -17 23 -51 16 -129 122 -125 166 4 33 -28 60 -68 60 -20 0 -38 16 -83 74
-31 41 -57 81 -57 90 0 17 -37 46 -60 46 -8 0 -37 16 -64 35 -27 19 -55 35
-61 35 -6 0 -29 9 -50 20 -22 12 -58 23 -80 26 -36 4 -43 1 -72 -32z m47 -310
c0 -8 -7 -14 -15 -14 -8 0 -15 9 -15 20 0 13 5 18 15 14 8 -4 15 -12 15 -20z
m136 -41 c-7 -7 -26 7 -26 19 0 6 6 6 15 -2 9 -7 13 -15 11 -17z m85 -186 c-1
-4 -1 -14 -1 -23 0 -13 -3 -14 -14 -4 -16 12 -10 43 6 38 5 -2 9 -7 9 -11z
m155 -44 c-11 -11 -19 6 -11 24 8 17 8 17 12 0 3 -10 2 -21 -1 -24z m1068
-1903 c14 -27 23 -50 19 -50 -8 0 -25 31 -43 78 -16 39 -3 24 24 -28z m-167
-126 c-3 -3 -12 -4 -19 -1 -8 3 -5 6 6 6 11 1 17 -2 13 -5z m-59 -11 c-14 -2
-32 -11 -38 -19 -7 -8 -22 -14 -34 -14 -17 1 -14 5 14 20 19 11 46 19 60 18
25 -1 24 -1 -2 -5z m300 -170 c-4 -22 -38 -30 -49 -11 -13 19 -11 28 6 28 8 0
15 7 15 16 0 14 1 14 16 0 8 -9 14 -24 12 -33z m402 -53 c0 -5 -4 -10 -10 -10
-5 0 -10 5 -10 10 0 6 5 10 10 10 6 0 10 -4 10 -10z m-370 -10 c0 -5 -4 -10
-9 -10 -6 0 -13 5 -16 10 -3 6 1 10 9 10 9 0 16 -4 16 -10z m43 -55 c-3 -9 -8
-14 -10 -11 -3 3 -2 9 2 15 9 16 15 13 8 -4z m-296 -72 c-3 -10 -5 -4 -5 12 0
17 2 24 5 18 2 -7 2 -21 0 -30z m-277 -93 l-8 -35 -1 31 c-1 17 2 34 6 37 11
12 12 3 3 -33z m1256 -58 c13 -9 28 -62 17 -62 -17 0 -30 16 -37 43 -6 27 0
33 20 19z m-809 -28 c-3 -3 -12 -4 -19 -1 -8 3 -5 6 6 6 11 1 17 -2 13 -5z
m863 -44 c0 -5 -4 -10 -10 -10 -5 0 -10 5 -10 10 0 6 5 10 10 10 6 0 10 -4 10
-10z m110 -116 c0 -7 5 -25 12 -39 9 -20 18 -26 35 -22 17 3 23 0 23 -13 0
-14 -5 -17 -22 -12 -30 7 -43 21 -51 54 -4 15 -16 30 -27 33 -11 4 -18 10 -15
15 8 12 45 0 45 -16z m-1095 -114 c-3 -5 -10 -10 -16 -10 -5 0 -9 5 -9 10 0 6
7 10 16 10 8 0 12 -4 9 -10z m161 -236 c-9 -23 -20 -16 -57 34 -62 83 -76 112
-60 122 11 6 28 -11 68 -67 30 -41 52 -81 49 -89z m355 123 c-8 -8 -11 -3 -11
19 1 25 2 27 11 11 8 -14 8 -22 0 -30z m77 -19 c-7 -19 -38 -22 -38 -4 0 10 9
16 21 16 12 0 19 -5 17 -12z m609 -94 c-3 -3 -12 -4 -19 -1 -8 3 -5 6 6 6 11
1 17 -2 13 -5z m-1301 -31 c17 -23 17 -33 0 -33 -7 0 -16 11 -18 25 -6 29 0
32 18 8z m78 -118 c3 -8 1 -15 -4 -15 -6 0 -10 7 -10 15 0 8 2 15 4 15 2 0 6
-7 10 -15z m192 -16 c19 -22 19 -22 -3 -10 -13 6 -23 16 -23 21 0 15 5 12 26
-11z m-226 -16 c0 -10 -4 -14 -8 -8 -4 6 -11 13 -16 18 -5 4 -2 7 7 7 10 0 17
-8 17 -17z m783 -30 c-7 -2 -19 -2 -25 0 -7 3 -2 5 12 5 14 0 19 -2 13 -5z
m-158 -51 c-8 -8 -25 10 -19 20 4 6 9 5 15 -3 4 -7 6 -15 4 -17z m125 13 c0
-9 -6 -12 -15 -9 -8 4 -15 10 -15 15 0 5 7 9 15 9 8 0 15 -7 15 -15z m-80 -35
c0 -5 -2 -10 -4 -10 -3 0 -8 5 -11 10 -3 6 -1 10 4 10 6 0 11 -4 11 -10z m166
-67 c7 -7 17 -13 23 -13 6 0 11 -2 11 -4 0 -2 3 -12 6 -21 6 -15 4 -15 -32 0
-49 20 -48 19 -39 52 5 19 9 23 13 13 3 -8 11 -20 18 -27z m-911 17 c3 -5 -1
-10 -10 -10 -9 0 -13 5 -10 10 3 6 8 10 10 10 2 0 7 -4 10 -10z m1022 -86 c-3
-3 -12 -4 -19 -1 -8 3 -5 6 6 6 11 1 17 -2 13 -5z m278 -193 c-3 -6 -11 -11
-16 -11 -5 0 -4 6 3 14 14 16 24 13 13 -3z m105 10 c0 -5 -6 -14 -14 -20 -12
-10 -13 -8 -9 8 5 21 23 30 23 12z m-480 -101 c20 -6 21 -8 5 -8 -11 0 -29 3
-40 8 -25 11 1 11 35 0z"/>
</g>
</svg>
