<?xml version="1.0" standalone="no"?>
<!DOCTYPE svg PUBLIC "-//W3C//DTD SVG 20010904//EN"
 "http://www.w3.org/TR/2001/REC-SVG-20010904/DTD/svg10.dtd">
<svg version="1.0" xmlns="http://www.w3.org/2000/svg"
 width="312.000000pt" height="192.000000pt" viewBox="0 0 312.000000 192.000000"
 preserveAspectRatio="xMidYMid meet">
<metadata>
Created by potrace 1.13, written by Peter Selinger 2001-2015
</metadata>
<g transform="translate(0.000000,192.000000) scale(0.100000,-0.100000)"
fill="#000000" stroke="none">
<path d="M2830 1910 c-8 -5 -28 -10 -45 -10 -45 0 -75 -11 -75 -26 0 -9 -12
-14 -35 -14 -23 0 -42 -8 -59 -25 -18 -18 -36 -25 -63 -25 -28 0 -42 -6 -58
-26 -14 -18 -33 -27 -65 -31 -25 -3 -61 -16 -80 -27 -42 -26 -251 -129 -375
-186 -49 -23 -185 -89 -302 -147 l-212 -106 -38 38 c-61 61 -112 78 -218 72
-116 -6 -168 -33 -288 -150 -87 -86 -117 -100 -190 -93 -250 24 -301 18 -459
-58 -119 -56 -175 -106 -224 -198 -38 -72 -38 -75 -39 -183 0 -128 13 -177 87
-333 95 -201 196 -321 305 -362 50 -19 73 -21 163 -18 93 4 113 8 172 36 155
74 233 152 329 331 58 108 96 138 194 152 102 14 173 36 230 72 133 84 176
195 144 372 -10 54 -10 66 5 86 9 13 16 35 16 49 0 23 14 33 123 89 148 77
251 131 422 224 264 142 295 157 335 157 34 0 38 -3 44 -30 5 -27 9 -30 45
-30 22 0 43 5 46 10 3 6 17 10 30 10 13 0 30 7 39 15 8 8 24 15 35 15 12 0 29
4 39 9 9 5 37 14 62 21 25 6 59 16 76 21 17 5 39 9 50 9 26 0 44 19 44 46 0
17 11 27 40 40 39 17 40 19 40 67 0 65 -17 79 -128 106 -48 12 -88 26 -90 31
-5 13 -52 13 -72 0z"/>
</g>
</svg>
