<?xml version="1.0" standalone="no"?>
<!DOCTYPE svg PUBLIC "-//W3C//DTD SVG 20010904//EN"
 "http://www.w3.org/TR/2001/REC-SVG-20010904/DTD/svg10.dtd">
<svg version="1.0" xmlns="http://www.w3.org/2000/svg"
 width="299.000000pt" height="200.000000pt" viewBox="0 0 299.000000 200.000000"
 preserveAspectRatio="xMidYMid meet">
<metadata>
Created by potrace 1.13, written by Peter Selinger 2001-2015
</metadata>
<g transform="translate(0.000000,200.000000) scale(0.100000,-0.100000)"
fill="#000000" stroke="none">
<path d="M2668 1988 c-21 -6 -38 -14 -38 -19 0 -5 -13 -9 -29 -9 -29 0 -92
-18 -101 -29 -8 -10 -121 -33 -152 -32 -21 1 -28 -3 -28 -18 0 -12 -11 -23
-27 -29 -34 -13 -240 -99 -268 -112 -11 -5 -146 -61 -300 -125 -154 -64 -310
-130 -347 -146 -48 -21 -82 -29 -125 -29 -76 0 -184 -47 -274 -118 -37 -29
-72 -52 -78 -52 -6 0 -31 -10 -55 -22 l-45 -21 -110 23 c-116 24 -201 24 -293
0 -63 -17 -217 -93 -218 -107 0 -7 -7 -13 -15 -13 -46 0 -162 -181 -153 -239
2 -17 1 -31 -4 -31 -15 0 -8 -145 12 -220 14 -53 16 -76 8 -81 -17 -10 10 -96
31 -102 9 -2 23 -23 31 -47 32 -98 93 -193 167 -260 139 -127 176 -144 324
-148 113 -4 199 9 199 28 0 6 8 10 18 10 31 0 182 111 182 134 0 3 17 22 38
43 37 37 112 151 112 170 0 16 72 94 96 103 12 5 59 14 104 20 46 6 111 21
145 34 64 23 135 72 135 94 0 6 4 12 8 12 4 0 16 22 26 49 20 55 24 225 7 280
-8 26 -7 40 4 62 8 15 15 37 15 48 0 19 48 51 77 51 7 0 13 5 13 10 0 6 6 10
13 10 7 0 77 31 155 70 78 39 146 70 152 70 5 0 10 5 10 10 0 6 5 10 10 10 11
0 104 43 302 140 126 61 198 78 198 45 0 -21 37 -38 67 -30 20 5 24 11 20 30
-2 14 0 25 4 25 5 0 9 -4 9 -9 0 -12 48 -23 71 -16 12 4 19 16 19 31 0 23 1
24 16 10 8 -9 29 -16 45 -16 24 0 29 4 29 25 0 20 8 29 38 41 20 9 44 20 52
24 8 4 16 24 18 44 3 29 -5 50 -37 99 -22 34 -44 67 -48 72 -5 6 -12 19 -17
30 -4 11 -24 46 -44 77 l-37 58 -50 -1 c-27 -1 -67 -6 -87 -11z m112 -122 c0
-2 3 -11 6 -20 5 -12 0 -16 -20 -16 -14 0 -35 -9 -46 -20 -12 -12 -33 -20 -55
-20 -24 0 -35 -5 -35 -15 0 -11 -11 -15 -40 -15 -29 0 -42 -5 -50 -20 -6 -11
-17 -20 -25 -20 -18 0 -20 16 -2 24 6 3 26 15 42 26 17 11 38 23 48 26 9 4 17
10 17 14 0 5 12 13 28 19 15 7 38 18 52 26 23 13 80 21 80 11z m-377 -160 c24
-19 21 -33 -10 -41 -15 -3 -68 -26 -118 -49 -49 -24 -121 -55 -160 -70 -38
-15 -88 -36 -110 -46 -45 -21 -97 -43 -205 -90 -41 -18 -93 -40 -115 -50 -155
-68 -145 -65 -145 -49 0 10 281 149 505 249 100 45 281 130 305 144 32 18 32
18 53 2z"/>
</g>
</svg>
