<?xml version="1.0" standalone="no"?>
<!DOCTYPE svg PUBLIC "-//W3C//DTD SVG 20010904//EN"
 "http://www.w3.org/TR/2001/REC-SVG-20010904/DTD/svg10.dtd">
<svg version="1.0" xmlns="http://www.w3.org/2000/svg"
 width="316.000000pt" height="476.000000pt" viewBox="0 0 316.000000 476.000000"
 preserveAspectRatio="xMidYMid meet">
<metadata>
Created by potrace 1.13, written by Peter Selinger 2001-2015
</metadata>
<g transform="translate(0.000000,476.000000) scale(0.100000,-0.100000)"
fill="#000000" stroke="none">
<path d="M183 4743 c-7 -2 -17 -22 -23 -44 -12 -43 -44 -79 -72 -79 -19 0 -48
-47 -48 -80 0 -11 21 -43 46 -70 l47 -50 -45 0 c-38 0 -49 -4 -62 -25 -25 -38
-20 -73 16 -107 26 -24 38 -29 62 -24 39 8 76 33 76 51 0 24 24 17 55 -15 l29
-30 -35 0 c-40 0 -52 -7 -68 -37 -18 -35 -13 -63 18 -94 37 -36 79 -38 118 -5
42 35 54 35 85 4 15 -16 28 -30 28 -31 0 -1 -18 -1 -40 1 -53 5 -80 -17 -80
-67 0 -20 6 -43 13 -52 38 -49 117 -49 145 2 9 16 22 29 28 29 5 0 25 -16 44
-35 l34 -35 -43 0 c-52 0 -81 -27 -81 -74 0 -50 24 -76 70 -76 55 0 90 15 90
40 0 31 35 25 62 -10 18 -24 35 -32 73 -38 88 -15 75 3 272 -367 44 -82 83
-157 87 -165 4 -8 34 -64 66 -125 33 -60 98 -186 145 -280 117 -230 117 -228
37 -462 -97 -284 -118 -376 -164 -723 -18 -142 -13 -442 12 -603 30 -197 44
-275 53 -283 4 -4 7 -16 7 -27 0 -33 58 -194 100 -278 55 -110 139 -213 230
-280 134 -99 397 -164 776 -191 205 -15 354 -1 454 44 36 16 82 36 103 45 20
9 37 21 37 28 0 6 22 36 48 66 95 107 108 132 164 321 14 46 4 292 -16 399
-25 136 -39 189 -47 189 -5 0 -9 16 -9 35 0 24 -5 35 -15 35 -10 0 -15 10 -15
28 0 42 -29 120 -56 149 -13 14 -26 40 -30 58 -4 21 -13 35 -25 38 -11 3 -19
14 -19 25 0 11 -7 22 -15 26 -8 3 -15 12 -15 21 0 8 -4 15 -10 15 -5 0 -10 7
-10 15 0 8 -4 15 -10 15 -5 0 -10 6 -10 14 0 8 -7 16 -15 20 -8 3 -15 12 -15
21 0 8 -4 15 -8 15 -5 0 -14 12 -21 26 -12 27 -93 137 -120 165 -9 8 -29 33
-46 54 -64 81 -172 195 -185 195 -5 0 -10 6 -10 13 0 14 -106 119 -254 252
-49 44 -101 91 -116 105 -82 73 -224 180 -241 180 -8 0 -23 15 -32 33 -62 123
-249 461 -257 467 -8 5 -132 217 -188 320 -19 36 -55 100 -79 143 -24 43 -63
113 -85 155 -46 87 -73 129 -100 155 -10 10 -18 28 -18 42 0 19 -87 165 -110
185 -3 3 -26 34 -52 70 -25 36 -60 81 -77 100 -17 19 -31 38 -31 41 0 3 -11
19 -25 35 -14 16 -73 100 -131 187 -58 86 -110 160 -116 163 -5 3 -29 1 -54
-6 -39 -11 -52 -10 -128 14 -80 25 -126 31 -153 19z m-43 -404 c0 -5 -2 -9 -4
-9 -2 0 -11 -3 -19 -6 -12 -4 -14 0 -10 15 5 19 33 19 33 0z m280 -313 c0 -2
-7 -7 -16 -10 -8 -3 -12 -2 -9 4 6 10 25 14 25 6z m1890 -3786 c0 -5 -7 -10
-15 -10 -8 0 -15 5 -15 10 0 6 7 10 15 10 8 0 15 -4 15 -10z"/>
</g>
</svg>
