<?xml version="1.0" standalone="no"?>
<!DOCTYPE svg PUBLIC "-//W3C//DTD SVG 20010904//EN"
 "http://www.w3.org/TR/2001/REC-SVG-20010904/DTD/svg10.dtd">
<svg version="1.0" xmlns="http://www.w3.org/2000/svg"
 width="133.000000pt" height="388.000000pt" viewBox="0 0 133.000000 388.000000"
 preserveAspectRatio="xMidYMid meet">
<metadata>
Created by potrace 1.13, written by Peter Selinger 2001-2015
</metadata>
<g transform="translate(0.000000,388.000000) scale(0.100000,-0.100000)"
fill="#000000" stroke="none">
<path d="M486 3851 c-14 -16 -17 -30 -13 -61 5 -37 3 -40 -18 -40 -33 0 -49
-25 -49 -81 0 -36 6 -55 22 -72 14 -15 19 -30 16 -44 -9 -33 16 -123 36 -136
15 -8 16 -15 8 -30 -14 -28 9 -105 38 -123 12 -9 38 -14 56 -12 l33 3 3 -516
2 -517 -33 -6 c-28 -5 -37 -14 -52 -49 -9 -23 -20 -49 -25 -57 -5 -10 -32 -18
-80 -23 -208 -23 -355 -185 -376 -417 -10 -106 13 -191 107 -385 37 -78 43
-99 43 -155 0 -58 -6 -77 -51 -170 -116 -240 -149 -357 -140 -493 13 -209 117
-371 262 -406 28 -7 59 -17 70 -21 11 -5 55 -17 99 -26 112 -24 420 -15 519
15 141 42 217 97 284 204 97 154 107 335 31 562 -11 33 -53 126 -94 207 -87
174 -91 198 -44 335 98 286 104 353 49 498 -38 101 -140 188 -266 225 l-42 13
5 581 c3 320 7 596 10 614 3 17 16 43 30 56 l26 23 -11 124 c-6 68 -13 150
-15 181 -3 58 -26 108 -49 108 -7 0 -17 19 -23 43 l-9 42 -65 6 c-36 4 -112 9
-170 13 -99 7 -107 6 -124 -13z m94 -1911 c0 -5 -9 -10 -20 -10 -12 0 -20 -7
-20 -16 0 -8 -7 -22 -15 -30 -12 -13 -15 -11 -23 18 -7 26 -5 34 7 40 25 10
71 9 71 -2z m-143 -102 c-3 -7 -5 -2 -5 12 0 14 2 19 5 13 2 -7 2 -19 0 -25z
m183 7 c0 -8 -4 -15 -10 -15 -5 0 -10 7 -10 15 0 8 5 15 10 15 6 0 10 -7 10
-15z m-90 -65 c0 -13 -11 -13 -30 0 -12 8 -11 10 8 10 12 0 22 -4 22 -10z
m-60 -25 c0 -8 -4 -15 -10 -15 -5 0 -10 7 -10 15 0 8 5 15 10 15 6 0 10 -7 10
-15z m150 -15 c0 -5 -4 -10 -10 -10 -5 0 -10 5 -10 10 0 6 5 10 10 10 6 0 10
-4 10 -10z m-297 -142 c6 -4 8 -10 5 -13 -16 -17 -28 11 -26 63 l2 57 3 -50
c3 -27 9 -53 16 -57z m127 92 c0 -5 -4 -10 -10 -10 -5 0 -10 5 -10 10 0 6 5
10 10 10 6 0 10 -4 10 -10z m60 -5 c0 -8 -9 -15 -20 -15 -17 0 -19 2 -8 15 17
19 28 19 28 0z m-120 -15 c0 -5 -4 -10 -10 -10 -5 0 -10 5 -10 10 0 6 5 10 10
10 6 0 10 -4 10 -10z m154 -15 c-4 -8 -8 -15 -10 -15 -2 0 -4 7 -4 15 0 8 4
15 10 15 5 0 7 -7 4 -15z m-134 -45 c0 -5 -9 -10 -20 -10 -11 0 -20 5 -20 10
0 6 9 10 20 10 11 0 20 -4 20 -10z m60 -20 c0 -5 -4 -10 -10 -10 -5 0 -10 5
-10 10 0 6 5 10 10 10 6 0 10 -4 10 -10z m25 -37 c-7 -30 -13 -39 -19 -32 -8
8 6 59 16 59 6 0 7 -11 3 -27z m-156 -53 c0 -10 -3 -8 -9 5 -12 27 -12 43 0
25 5 -8 9 -22 9 -30z m137 -20 c8 0 14 -10 14 -25 0 -15 -6 -25 -14 -25 -16 0
-26 22 -25 53 0 12 3 16 6 10 2 -7 11 -13 19 -13z m-34 -119 c-10 -2 -20 -8
-24 -15 -6 -8 -11 -7 -18 4 -7 11 -5 16 10 18 11 2 20 8 20 13 0 5 6 4 14 -3
12 -11 12 -14 -2 -17z m78 -23 c12 -29 24 -59 27 -65 3 -7 0 -13 -6 -13 -6 0
-11 9 -11 20 0 13 -7 20 -20 20 -13 0 -20 -7 -20 -20 0 -11 -7 -20 -15 -20 -9
0 -15 -9 -16 -22 0 -22 -1 -22 -9 -3 -14 33 -11 45 10 45 15 0 20 7 20 25 0
14 5 25 10 25 6 0 10 9 10 20 0 11 -4 20 -10 20 -5 0 -10 5 -10 10 0 26 19 5
40 -42z m250 -58 c0 -5 -7 -10 -15 -10 -8 0 -15 5 -15 10 0 6 7 10 15 10 8 0
15 -4 15 -10z m-180 -55 c7 -9 8 -15 2 -15 -5 0 -12 7 -16 15 -3 8 -4 15 -2
15 2 0 9 -7 16 -15z m182 -50 c3 -47 0 -55 -14 -55 -15 0 -18 9 -18 55 0 41 4
55 14 55 10 0 15 -16 18 -55z m-235 -21 c-3 -3 -12 -4 -19 -1 -8 3 -5 6 6 6
11 1 17 -2 13 -5z m-12 -44 c18 -8 17 -9 -7 -9 -16 -1 -28 4 -28 9 0 12 8 12
35 0z m-84 -83 c-8 -8 -11 -7 -11 4 0 20 13 34 18 19 3 -7 -1 -17 -7 -23z m89
26 c-8 -3 -18 -11 -22 -17 -4 -6 -10 -7 -15 -3 -9 10 16 27 37 26 13 -1 13 -1
0 -6z m60 -93 c0 -5 -4 -10 -10 -10 -5 0 -10 5 -10 10 0 6 5 10 10 10 6 0 10
-4 10 -10z m-170 -20 c0 -5 -4 -10 -9 -10 -6 0 -13 5 -16 10 -3 6 1 10 9 10 9
0 16 -4 16 -10z m110 -11 c0 -18 -2 -19 -15 -5 -8 8 -15 17 -15 20 0 3 7 6 15
6 9 0 15 -9 15 -21z m-89 -59 c10 0 19 -4 19 -10 0 -5 -11 -10 -25 -10 -19 0
-25 5 -24 23 0 12 3 16 6 10 2 -7 13 -13 24 -13z m106 -2 c-3 -8 -6 -5 -6 6
-1 11 2 17 5 13 3 -3 4 -12 1 -19z m110 -100 c-2 -18 -4 -4 -4 32 0 36 2 50 4
33 2 -18 2 -48 0 -65z m-157 53 c0 -5 10 -12 23 -14 16 -3 13 -5 -10 -6 -23
-1 -33 3 -33 14 0 8 5 15 10 15 6 0 10 -4 10 -9z m520 -11 c0 -5 -5 -10 -11
-10 -5 0 -7 5 -4 10 3 6 8 10 11 10 2 0 4 -4 4 -10z m-690 -15 c0 -8 -4 -15
-10 -15 -5 0 -7 7 -4 15 4 8 8 15 10 15 2 0 4 -7 4 -15z m497 -17 c-3 -8 -6
-5 -6 6 -1 11 2 17 5 13 3 -3 4 -12 1 -19z m-457 -28 c0 -5 -4 -10 -10 -10 -5
0 -10 5 -10 10 0 6 5 10 10 10 6 0 10 -4 10 -10z m167 3 c-4 -3 -21 -6 -39 -5
-18 0 -35 -4 -39 -10 -4 -6 -16 -7 -30 -2 -24 8 -24 8 6 15 40 9 110 11 102 2z
m93 -43 c0 -5 -4 -10 -10 -10 -5 0 -10 5 -10 10 0 6 5 10 10 10 6 0 10 -4 10
-10z m-217 -17 c-7 -2 -21 -2 -30 0 -10 3 -4 5 12 5 17 0 24 -2 18 -5z m464
-119 c-3 -3 -12 -4 -19 -1 -8 3 -5 6 6 6 11 1 17 -2 13 -5z m-94 -11 c-18 -2
-33 -8 -33 -13 0 -5 -15 -4 -32 1 -47 13 -58 11 -59 -8 0 -11 -3 -13 -6 -5 -2
6 -14 13 -26 13 -53 3 43 17 113 16 41 0 60 -2 43 -4z m-387 -33 c36 0 64 -4
64 -10 0 -5 -9 -10 -19 -10 -11 0 -21 -5 -23 -11 -3 -8 -10 -6 -20 5 -18 18
-48 22 -48 6 0 -5 -7 -10 -15 -10 -10 0 -15 9 -14 28 0 15 3 21 6 15 3 -9 27
-13 69 -13z m104 10 c0 -5 -4 -10 -10 -10 -5 0 -10 5 -10 10 0 6 5 10 10 10 6
0 10 -4 10 -10z m71 -10 c10 0 19 -4 19 -10 0 -5 -11 -10 -25 -10 -19 0 -25 5
-24 23 0 12 3 16 6 10 2 -7 13 -13 24 -13z m-294 4 c-3 -3 -12 -4 -19 -1 -8 3
-5 6 6 6 11 1 17 -2 13 -5z m430 -146 c-3 -8 -6 -5 -6 6 -1 11 2 17 5 13 3 -3
4 -12 1 -19z m50 -30 c-3 -8 -6 -5 -6 6 -1 11 2 17 5 13 3 -3 4 -12 1 -19z
m-97 -108 c0 -5 -4 -10 -10 -10 -5 0 -10 5 -10 10 0 6 5 10 10 10 6 0 10 -4
10 -10z m-255 -62 c6 -4 2 -8 -7 -8 -10 0 -18 7 -18 17 0 9 3 12 8 7 4 -5 12
-12 17 -16z m138 -65 c-7 -2 -21 -2 -30 0 -10 3 -4 5 12 5 17 0 24 -2 18 -5z"/>
</g>
</svg>
