<?xml version="1.0" standalone="no"?>
<!DOCTYPE svg PUBLIC "-//W3C//DTD SVG 20010904//EN"
 "http://www.w3.org/TR/2001/REC-SVG-20010904/DTD/svg10.dtd">
<svg version="1.0" xmlns="http://www.w3.org/2000/svg"
 width="419.000000pt" height="416.000000pt" viewBox="0 0 419.000000 416.000000"
 preserveAspectRatio="xMidYMid meet">
<metadata>
Created by potrace 1.13, written by Peter Selinger 2001-2015
</metadata>
<g transform="translate(0.000000,416.000000) scale(0.100000,-0.100000)"
fill="#000000" stroke="none">
<path d="M3737 4140 c-36 -11 -218 -144 -293 -215 -6 -5 -30 -26 -54 -45 -104
-84 -222 -184 -255 -216 -11 -11 -43 -34 -70 -49 -52 -30 -219 -193 -385 -375
-52 -57 -149 -161 -216 -230 -103 -107 -146 -153 -254 -270 -43 -46 -121 -133
-165 -184 -55 -63 -55 -63 -270 -143 -357 -132 -803 -362 -1013 -523 -195
-149 -354 -299 -450 -425 -25 -33 -49 -62 -52 -65 -30 -28 -141 -261 -161
-338 -20 -79 -26 -229 -10 -260 5 -9 15 -37 22 -62 13 -45 42 -112 70 -160 30
-53 150 -208 202 -260 51 -52 136 -130 142 -130 1 0 37 -21 79 -46 82 -49 194
-93 238 -94 15 0 29 -4 32 -9 10 -15 223 -34 314 -27 171 13 274 41 425 117
132 66 182 103 317 239 47 47 92 95 102 107 71 91 118 155 142 193 16 25 41
63 56 85 27 40 140 300 140 322 0 6 14 42 31 79 36 81 85 272 93 364 3 36 8
175 12 310 l5 245 40 88 c51 114 57 157 30 225 -12 29 -21 75 -21 103 0 42 6
60 40 108 21 33 45 65 52 72 19 20 155 176 213 244 28 32 59 68 71 79 11 12
45 55 74 96 30 41 57 77 60 80 3 3 18 23 35 45 16 22 31 42 34 45 4 3 24 28
46 55 52 66 113 123 150 143 17 9 55 17 85 18 30 1 72 5 93 9 33 7 37 5 37
-12 0 -57 88 -72 139 -24 17 16 31 36 31 45 0 11 9 16 30 16 35 0 101 25 112
43 4 7 8 22 8 35 0 20 5 22 48 22 53 0 87 22 98 64 5 19 14 25 53 30 64 8 91
29 91 70 0 41 -28 68 -67 66 -49 -4 -48 -1 16 31 35 17 67 41 73 54 12 28 -6
128 -27 145 -8 7 -54 16 -102 20 -54 5 -114 18 -156 34 -69 27 -111 31 -160
16z m253 -390 c0 -12 -37 -12 -65 0 -15 7 -10 9 23 9 23 1 42 -3 42 -9z m-140
-91 c0 -16 -26 -17 -70 -3 -22 7 2 19 39 19 22 0 31 -5 31 -16z m-150 -93 c0
-12 -6 -13 -30 -5 -16 6 -30 13 -30 15 0 2 14 4 30 4 20 0 30 -5 30 -14z
m-3020 -2856 c-20 -13 -33 -13 -25 0 3 6 14 10 23 10 15 0 15 -2 2 -10z m650
-171 c0 -6 -4 -7 -10 -4 -5 3 -10 11 -10 16 0 6 5 7 10 4 6 -3 10 -11 10 -16z
m-927 -19 c4 -16 1 -17 -24 -8 -23 8 -27 13 -19 23 14 17 37 9 43 -15z m344
-16 c-3 -3 -12 -4 -19 -1 -8 3 -5 6 6 6 11 1 17 -2 13 -5z m-219 -48 c4 -17 2
-17 -22 -1 -32 21 -34 37 -3 26 12 -5 24 -16 25 -25z m77 -26 c3 -5 14 -10 25
-10 10 0 20 -7 23 -14 7 -17 -4 -14 -62 15 -29 15 -32 18 -14 19 12 0 25 -4
28 -10z m70 -191 c-8 -12 -35 -12 -35 0 0 11 22 20 33 14 4 -2 5 -9 2 -14z"/>
<path d="M2067 274 c-12 -12 -8 -54 6 -54 37 1 58 14 55 34 -3 21 -46 35 -61
20z"/>
</g>
</svg>
