<?xml version="1.0" standalone="no"?>
<!DOCTYPE svg PUBLIC "-//W3C//DTD SVG 20010904//EN"
 "http://www.w3.org/TR/2001/REC-SVG-20010904/DTD/svg10.dtd">
<svg version="1.0" xmlns="http://www.w3.org/2000/svg"
 width="91.000000pt" height="150.000000pt" viewBox="0 0 91.000000 150.000000"
 preserveAspectRatio="xMidYMid meet">
<metadata>
Created by potrace 1.13, written by Peter Selinger 2001-2015
</metadata>
<g transform="translate(0.000000,150.000000) scale(0.100000,-0.100000)"
fill="#000000" stroke="none">
<path d="M441 1474 c-20 -15 -23 -23 -19 -66 3 -30 14 -62 29 -81 21 -29 24
-45 30 -202 11 -251 11 -272 -5 -287 -8 -8 -16 -23 -18 -34 -2 -11 -14 -21
-28 -24 -60 -12 -110 -70 -110 -127 0 -36 22 -109 49 -161 33 -65 28 -86 -36
-154 l-58 -60 0 -88 c0 -85 1 -90 30 -120 63 -66 80 -71 232 -69 155 1 183 9
230 62 57 65 53 192 -8 282 -45 68 -59 111 -47 147 6 18 14 38 18 43 24 32 31
87 20 141 -13 63 -43 99 -91 109 -16 4 -31 11 -35 16 -3 5 -10 116 -15 247 -9
196 -15 252 -34 327 -14 51 -32 95 -42 102 -23 18 -64 16 -92 -3z"/>
</g>
</svg>
