<?xml version="1.0" standalone="no"?>
<!DOCTYPE svg PUBLIC "-//W3C//DTD SVG 20010904//EN"
 "http://www.w3.org/TR/2001/REC-SVG-20010904/DTD/svg10.dtd">
<svg version="1.0" xmlns="http://www.w3.org/2000/svg"
 width="387.000000pt" height="217.000000pt" viewBox="0 0 387.000000 217.000000"
 preserveAspectRatio="xMidYMid meet">
<metadata>
Created by potrace 1.13, written by Peter Selinger 2001-2015
</metadata>
<g transform="translate(0.000000,217.000000) scale(0.100000,-0.100000)"
fill="#000000" stroke="none">
<path d="M3575 2144 c-22 -8 -107 -35 -190 -60 -286 -87 -340 -106 -408 -146
-37 -22 -93 -46 -125 -53 -31 -7 -75 -19 -97 -28 -54 -20 -385 -155 -410 -166
-11 -6 -49 -19 -85 -31 -66 -22 -77 -26 -140 -53 -19 -8 -105 -43 -190 -77
-149 -59 -204 -82 -243 -102 -14 -7 -27 -2 -53 21 -47 42 -80 57 -146 70 -87
16 -190 -6 -273 -57 -51 -32 -130 -96 -175 -142 -19 -20 -64 -49 -100 -65 -65
-29 -65 -29 -256 -27 -227 3 -293 -8 -414 -69 -98 -50 -178 -123 -216 -199
-22 -45 -28 -72 -32 -152 -5 -101 14 -217 43 -263 7 -11 16 -31 20 -45 13 -44
146 -310 156 -310 5 0 9 -6 9 -12 0 -24 78 -103 123 -126 70 -35 195 -47 287
-29 154 32 194 47 285 110 37 25 145 139 145 153 0 3 17 24 38 47 134 147 148
154 327 172 168 17 296 55 342 101 8 7 20 17 27 21 8 5 29 33 47 63 32 51 34
60 32 135 -1 48 -9 101 -20 134 l-19 53 27 28 c15 15 32 46 39 69 l11 42 152
73 c84 40 178 83 210 96 31 13 57 27 57 32 0 4 5 8 11 8 13 0 64 23 299 137
107 52 206 99 220 105 14 6 36 16 50 23 46 23 91 26 118 9 18 -12 38 -15 71
-11 l46 5 -3 -47 c-3 -42 -1 -48 23 -61 22 -12 31 -12 63 0 20 7 50 23 65 34
24 18 28 27 25 58 l-4 38 74 24 c70 24 73 24 67 5 -4 -11 -3 -33 0 -50 19 -85
165 -44 168 47 1 21 -1 45 -3 53 -4 9 11 18 45 27 130 36 155 46 165 64 17 31
12 68 -10 75 -28 9 -68 61 -75 98 -5 24 -17 40 -46 58 -27 16 -44 37 -55 66
-19 48 -32 52 -99 27z"/>
</g>
</svg>
