<?xml version="1.0" standalone="no"?>
<!DOCTYPE svg PUBLIC "-//W3C//DTD SVG 20010904//EN"
 "http://www.w3.org/TR/2001/REC-SVG-20010904/DTD/svg10.dtd">
<svg version="1.0" xmlns="http://www.w3.org/2000/svg"
 width="354.000000pt" height="495.000000pt" viewBox="0 0 354.000000 495.000000"
 preserveAspectRatio="xMidYMid meet">
<metadata>
Created by potrace 1.13, written by Peter Selinger 2001-2015
</metadata>
<g transform="translate(0.000000,495.000000) scale(0.100000,-0.100000)"
fill="#000000" stroke="none">
<path d="M1333 4665 c-52 -25 -99 -55 -108 -69 -10 -16 -18 -56 -21 -113 l-5
-88 54 -70 c70 -89 105 -125 148 -150 45 -27 72 -79 94 -178 10 -45 23 -90 28
-101 5 -10 13 -42 18 -70 16 -97 22 -121 30 -131 4 -6 19 -87 33 -180 14 -94
37 -210 50 -260 13 -49 27 -115 31 -146 3 -30 17 -79 30 -108 14 -29 25 -66
25 -81 0 -16 5 -32 10 -35 6 -3 10 -26 10 -51 0 -38 -5 -50 -37 -82 -21 -21
-44 -50 -52 -65 -8 -15 -36 -54 -63 -87 -62 -78 -112 -179 -139 -281 -44 -169
-13 -332 107 -572 88 -175 126 -271 118 -305 -6 -31 -53 -187 -65 -217 -7 -20
-17 -57 -46 -170 -9 -37 -15 -99 -14 -160 2 -92 5 -106 37 -175 61 -129 126
-233 184 -291 45 -45 74 -63 155 -97 157 -65 371 -82 531 -42 118 30 344 150
344 182 0 4 15 29 34 55 50 71 104 185 121 255 9 38 15 113 15 189 0 115 -3
135 -33 231 -37 115 -97 217 -168 284 -22 22 -64 63 -93 93 l-53 54 3 251 c4
277 -5 374 -43 486 -40 118 -71 170 -142 241 -64 64 -197 149 -234 149 -19 0
-37 37 -37 78 0 15 -18 63 -40 107 -32 65 -46 114 -75 260 -20 99 -40 194 -46
212 -5 17 -13 55 -16 84 -3 29 -12 64 -20 78 -7 15 -13 49 -13 76 0 28 -5 56
-10 61 -6 6 -13 44 -16 85 -3 41 -9 83 -14 94 -10 23 -85 318 -107 420 -19 89
-34 117 -94 177 -27 27 -49 53 -49 57 0 25 -83 129 -115 144 -65 31 -137 23
-242 -28z"/>
</g>
</svg>
