<?xml version="1.0" standalone="no"?>
<!DOCTYPE svg PUBLIC "-//W3C//DTD SVG 20010904//EN"
 "http://www.w3.org/TR/2001/REC-SVG-20010904/DTD/svg10.dtd">
<svg version="1.0" xmlns="http://www.w3.org/2000/svg"
 width="256.000000pt" height="256.000000pt" viewBox="0 0 256.000000 256.000000"
 preserveAspectRatio="xMidYMid meet">
<metadata>
Created by potrace 1.13, written by Peter Selinger 2001-2015
</metadata>
<g transform="translate(0.000000,256.000000) scale(0.100000,-0.100000)"
fill="#000000" stroke="none">
<path d="M742 2378 c-17 -17 -15 -99 4 -139 17 -39 25 -52 76 -129 32 -50 112
-120 136 -120 5 0 15 -7 22 -15 11 -13 9 -15 -13 -15 -39 0 -193 -48 -274 -85
-501 -231 -704 -775 -457 -1224 204 -371 656 -576 1117 -506 330 50 614 239
761 506 269 490 4 1076 -574 1269 -74 25 -247 60 -299 60 -11 0 -12 11 -7 52
10 71 30 111 87 168 37 37 62 53 106 66 112 32 112 32 36 33 -136 2 -220 -57
-292 -202 l-38 -79 -5 54 c-5 65 -39 115 -135 199 -102 90 -218 140 -251 107z"/>
</g>
</svg>
