<?xml version="1.0" standalone="no"?>
<!DOCTYPE svg PUBLIC "-//W3C//DTD SVG 20010904//EN"
 "http://www.w3.org/TR/2001/REC-SVG-20010904/DTD/svg10.dtd">
<svg version="1.0" xmlns="http://www.w3.org/2000/svg"
 width="256.000000pt" height="256.000000pt" viewBox="0 0 256.000000 256.000000"
 preserveAspectRatio="xMidYMid meet">
<metadata>
Created by potrace 1.13, written by Peter Selinger 2001-2015
</metadata>
<g transform="translate(0.000000,256.000000) scale(0.100000,-0.100000)"
fill="#000000" stroke="none">
<path d="M1505 2291 c-81 -20 -148 -91 -161 -170 -7 -47 -21 -81 -33 -81 -5 0
-14 24 -21 53 -12 60 -48 167 -62 183 -9 12 -45 8 -54 -7 -2 -5 4 -26 15 -47
23 -46 51 -148 51 -189 l0 -30 -137 -6 c-463 -19 -822 -286 -950 -704 -24 -79
-26 -104 -26 -238 0 -134 2 -159 26 -238 91 -297 308 -528 599 -637 148 -55
199 -62 473 -66 160 -3 289 0 335 7 412 61 746 378 815 774 89 514 -263 997
-794 1090 -46 8 -117 15 -157 15 -100 0 -99 25 4 55 12 3 22 10 22 15 0 4 19
18 42 30 67 35 139 101 159 144 10 22 15 44 13 48 -6 10 -118 9 -159 -1z"/>
</g>
</svg>
