<?xml version="1.0" standalone="no"?>
<!DOCTYPE svg PUBLIC "-//W3C//DTD SVG 20010904//EN"
 "http://www.w3.org/TR/2001/REC-SVG-20010904/DTD/svg10.dtd">
<svg version="1.0" xmlns="http://www.w3.org/2000/svg"
 width="256.000000pt" height="256.000000pt" viewBox="0 0 256.000000 256.000000"
 preserveAspectRatio="xMidYMid meet">
<metadata>
Created by potrace 1.13, written by Peter Selinger 2001-2015
</metadata>
<g transform="translate(0.000000,256.000000) scale(0.100000,-0.100000)"
fill="#000000" stroke="none">
<path d="M1450 2321 c-150 -62 -266 -175 -295 -289 l-12 -47 -8 42 c-3 24 -15
53 -25 65 -17 21 -19 21 -25 6 -4 -9 -2 -40 4 -68 6 -28 11 -64 11 -80 l0 -30
-82 0 c-350 0 -652 -184 -798 -485 -68 -141 -84 -212 -84 -370 0 -153 15 -226
78 -360 110 -233 308 -395 571 -467 108 -30 482 -45 590 -25 179 34 319 109
450 242 326 331 326 869 0 1200 -44 45 -109 100 -145 123 -126 82 -297 132
-448 132 -41 0 -73 2 -71 4 2 3 56 11 120 20 63 8 126 19 140 25 34 12 133 73
137 83 2 4 10 8 17 8 40 0 95 131 95 226 0 45 -3 52 -22 58 -46 12 -153 5
-198 -13z"/>
</g>
</svg>
