<?xml version="1.0" standalone="no"?>
<!DOCTYPE svg PUBLIC "-//W3C//DTD SVG 20010904//EN"
 "http://www.w3.org/TR/2001/REC-SVG-20010904/DTD/svg10.dtd">
<svg version="1.0" xmlns="http://www.w3.org/2000/svg"
 width="256.000000pt" height="256.000000pt" viewBox="0 0 256.000000 256.000000"
 preserveAspectRatio="xMidYMid meet">
<metadata>
Created by potrace 1.13, written by Peter Selinger 2001-2015
</metadata>
<g transform="translate(0.000000,256.000000) scale(0.100000,-0.100000)"
fill="#000000" stroke="none">
<path d="M1425 2226 c-22 -7 -58 -25 -79 -39 -21 -15 -42 -27 -47 -27 -15 0
-81 -111 -96 -160 -8 -28 -16 -50 -18 -50 -2 0 -12 30 -24 68 -34 111 -61 143
-105 126 -12 -5 -8 -15 24 -52 46 -56 80 -131 80 -178 0 -33 -1 -33 -32 -26
-63 14 -270 7 -337 -11 -155 -42 -258 -99 -372 -205 -217 -203 -310 -497 -250
-788 57 -274 248 -508 499 -610 121 -49 169 -57 367 -62 451 -13 516 -5 700
88 223 112 380 299 447 535 32 114 32 306 0 420 -65 229 -219 417 -431 528
-101 53 -192 82 -316 100 l-90 13 54 12 c147 33 303 157 325 259 6 27 4 34
-20 50 -36 23 -219 30 -279 9z"/>
</g>
</svg>
