<?xml version="1.0" standalone="no"?>
<!DOCTYPE svg PUBLIC "-//W3C//DTD SVG 20010904//EN"
 "http://www.w3.org/TR/2001/REC-SVG-20010904/DTD/svg10.dtd">
<svg version="1.0" xmlns="http://www.w3.org/2000/svg"
 width="256.000000pt" height="256.000000pt" viewBox="0 0 256.000000 256.000000"
 preserveAspectRatio="xMidYMid meet">
<metadata>
Created by potrace 1.13, written by Peter Selinger 2001-2015
</metadata>
<g transform="translate(0.000000,256.000000) scale(0.100000,-0.100000)"
fill="#000000" stroke="none">
<path d="M960 2510 c0 -26 48 -103 116 -185 36 -43 74 -112 74 -134 0 -3 -62
-6 -138 -7 -125 0 -145 -3 -230 -31 -132 -44 -221 -101 -328 -207 -102 -102
-158 -189 -204 -314 -78 -214 -78 -440 0 -654 46 -125 102 -212 204 -314 107
-107 197 -163 328 -206 81 -27 113 -31 243 -37 340 -14 423 -5 572 64 231 107
403 317 475 580 31 115 31 345 0 460 -25 89 -85 221 -134 293 -139 204 -364
335 -616 360 l-74 7 30 41 c30 41 142 124 168 124 7 0 15 4 18 9 3 5 23 12 43
16 66 12 82 45 42 81 -18 16 -37 19 -124 19 -99 0 -105 -1 -147 -30 -23 -17
-48 -41 -54 -54 -13 -25 -64 -81 -75 -81 -11 0 -105 123 -128 169 -14 27 -28
41 -41 41 -11 0 -20 -5 -20 -10z"/>
</g>
</svg>
