<?xml version="1.0" standalone="no"?>
<!DOCTYPE svg PUBLIC "-//W3C//DTD SVG 20010904//EN"
 "http://www.w3.org/TR/2001/REC-SVG-20010904/DTD/svg10.dtd">
<svg version="1.0" xmlns="http://www.w3.org/2000/svg"
 width="612.000000pt" height="403.000000pt" viewBox="0 0 612.000000 403.000000"
 preserveAspectRatio="xMidYMid meet">
<metadata>
Created by potrace 1.13, written by Peter Selinger 2001-2015
</metadata>
<g transform="translate(0.000000,403.000000) scale(0.100000,-0.100000)"
fill="#000000" stroke="none">
<path d="M5767 4003 c-4 -4 -40 -12 -80 -19 -39 -6 -112 -19 -162 -28 -204
-38 -381 -66 -421 -66 -25 0 -51 -7 -65 -18 -13 -11 -37 -22 -53 -26 -16 -4
-101 -56 -190 -115 -88 -59 -187 -123 -218 -142 -32 -18 -58 -37 -58 -41 0 -5
-5 -8 -11 -8 -10 0 -192 -130 -231 -164 -10 -9 -22 -16 -27 -16 -5 0 -11 -3
-13 -7 -1 -5 -29 -30 -60 -56 -56 -47 -58 -48 -58 -23 0 14 -10 35 -22 46 -21
20 -22 22 -5 31 9 6 17 19 17 29 0 24 -29 26 -70 5 -41 -21 -48 -64 -20 -118
26 -49 42 -97 32 -97 -4 0 -25 -16 -47 -35 -22 -19 -47 -35 -55 -35 -8 0 -28
-26 -44 -60 -26 -55 -28 -66 -22 -132 18 -176 2 -281 -70 -483 -34 -96 -142
-329 -179 -390 -17 -27 -42 -72 -55 -99 -33 -63 -75 -106 -107 -106 -23 0 -24
2 -16 33 11 43 4 652 -8 699 -15 58 -34 71 -95 65 -29 -3 -70 -14 -91 -23 -53
-26 -134 -112 -203 -219 -33 -49 -64 -95 -70 -102 -5 -7 -10 -19 -10 -27 0 -8
-7 -19 -16 -24 -11 -6 -15 -17 -11 -31 3 -13 -5 -46 -20 -79 -21 -48 -24 -69
-21 -132 2 -44 -1 -76 -7 -78 -5 -2 -18 39 -28 90 -11 51 -23 95 -28 96 -5 2
-9 12 -9 23 0 10 -4 19 -10 19 -5 0 -10 7 -10 16 0 8 -6 21 -12 28 -7 8 -33
37 -58 67 -25 29 -56 62 -69 74 -13 11 -29 25 -36 32 -7 6 -55 33 -106 59 -84
43 -103 48 -175 52 -140 8 -155 -18 -113 -202 36 -160 50 -216 69 -275 17 -55
111 -251 131 -275 5 -6 28 -37 50 -70 l40 -58 -28 6 c-61 14 -356 103 -548
165 -109 35 -211 65 -285 85 -30 8 -75 23 -100 35 -57 26 -87 26 -184 1 -42
-11 -81 -18 -87 -14 -5 3 -17 23 -25 44 -18 43 -56 65 -98 54 -45 -11 -65 -74
-23 -74 18 0 22 -6 23 -34 0 -32 -2 -34 -50 -50 -82 -26 -329 -185 -471 -303
-39 -32 -97 -78 -130 -103 -33 -25 -70 -55 -83 -68 -13 -12 -26 -22 -30 -22
-4 0 -13 -13 -20 -28 -6 -16 -21 -38 -32 -49 -10 -12 -36 -47 -56 -80 -20 -32
-53 -77 -73 -99 -56 -64 -101 -129 -101 -145 0 -8 -16 -45 -35 -82 -19 -37
-35 -78 -35 -90 0 -13 -3 -27 -7 -31 -18 -18 -44 -107 -50 -168 -7 -78 -1 -83
67 -48 22 11 44 20 49 20 6 0 24 13 40 29 17 16 46 35 65 42 20 7 36 16 36 20
0 7 88 40 155 57 110 30 153 35 251 29 122 -8 204 -35 236 -78 29 -39 46 -37
87 11 27 32 47 43 105 61 39 11 82 25 96 29 14 5 63 14 110 20 180 24 383 -16
515 -100 17 -11 43 -27 60 -36 16 -9 35 -23 43 -30 7 -8 17 -14 21 -14 17 0
149 -127 157 -152 7 -22 54 -25 54 -3 0 8 7 15 15 15 8 0 15 9 15 20 0 11 -5
20 -11 20 -5 0 -2 14 8 31 21 36 146 169 159 169 5 0 19 11 32 25 33 34 202
97 202 74 0 -5 9 -9 20 -9 11 0 20 6 20 14 0 32 230 21 292 -14 10 -6 27 -10
38 -10 12 0 40 -9 63 -19 23 -11 68 -28 99 -38 31 -11 63 -24 70 -29 7 -5 31
-18 53 -29 22 -11 46 -26 53 -32 7 -7 20 -13 27 -13 8 0 37 -14 65 -30 28 -17
53 -30 56 -30 6 0 75 -31 83 -37 8 -6 -22 -33 -38 -33 -11 0 -21 -15 -30 -44
-12 -40 -11 -47 6 -70 10 -14 26 -26 35 -26 9 0 20 -4 23 -10 3 -5 31 -10 61
-10 75 0 87 13 94 109 l5 76 42 3 c22 2 58 -4 78 -12 21 -9 45 -16 55 -16 20
0 173 -79 178 -92 5 -12 52 -10 52 2 0 17 57 11 153 -16 180 -50 306 -142 365
-266 26 -54 52 -73 67 -48 3 6 0 45 -9 88 -26 134 -27 174 -11 296 14 112 43
196 67 196 15 0 8 85 -11 120 -33 62 -50 180 -35 237 6 20 10 21 77 16 40 -3
76 -9 82 -14 13 -12 45 -11 45 1 0 6 6 10 13 10 16 0 37 55 37 96 0 16 -11 42
-24 58 -26 33 -67 38 -138 19 l-38 -11 0 34 c0 121 46 285 114 401 18 32 37
68 40 81 4 12 11 22 15 22 4 0 16 18 27 40 10 22 22 40 27 40 4 0 7 6 7 14 0
8 11 28 25 44 14 17 25 35 25 41 0 7 7 14 15 17 8 4 15 11 15 17 0 15 143 152
190 182 22 14 48 25 58 25 20 0 19 -9 37 305 3 48 41 202 57 230 11 19 38 72
89 178 12 26 26 47 31 47 4 0 8 6 8 13 0 27 143 180 179 192 21 6 30 48 13 59
-5 3 -5 31 -1 63 26 201 34 245 54 308 23 70 45 126 55 135 3 3 23 34 45 70
42 69 121 154 153 164 11 4 32 18 48 31 16 14 37 25 47 25 27 0 23 54 -5 68
-47 24 -303 44 -321 25z"/>
<path d="M5700 3140 c0 -15 7 -20 25 -20 18 0 25 5 25 20 0 15 -7 20 -25 20
-18 0 -25 -5 -25 -20z"/>
</g>
</svg>
