<?xml version="1.0" standalone="no"?>
<!DOCTYPE svg PUBLIC "-//W3C//DTD SVG 20010904//EN"
 "http://www.w3.org/TR/2001/REC-SVG-20010904/DTD/svg10.dtd">
<svg version="1.0" xmlns="http://www.w3.org/2000/svg"
 width="626.000000pt" height="585.000000pt" viewBox="0 0 626.000000 585.000000"
 preserveAspectRatio="xMidYMid meet">
<metadata>
Created by potrace 1.13, written by Peter Selinger 2001-2015
</metadata>
<g transform="translate(0.000000,585.000000) scale(0.100000,-0.100000)"
fill="#000000" stroke="none">
<path d="M1610 5683 c-113 -14 -175 -49 -128 -74 42 -22 116 -127 101 -143 -4
-3 -1 -6 5 -6 7 0 12 -10 12 -22 1 -13 3 -61 5 -108 5 -96 -15 -206 -44 -237
-10 -10 -16 -24 -13 -31 2 -6 -1 -12 -8 -12 -6 0 -9 -4 -6 -8 3 -5 -3 -18 -14
-29 -14 -15 -16 -23 -7 -32 6 -6 7 -11 3 -11 -5 0 3 -10 18 -21 15 -12 25 -23
22 -26 -2 -3 3 -13 12 -22 40 -42 62 -72 62 -85 0 -8 4 -17 10 -21 5 -3 7 -12
3 -20 -3 -8 1 -15 8 -15 7 0 10 -3 6 -6 -3 -3 3 -31 14 -62 11 -32 19 -58 19
-59 0 -2 0 -4 1 -5 1 -2 2 -14 4 -28 2 -14 6 -46 10 -72 6 -35 4 -48 -4 -48
-7 0 -9 -5 -5 -12 10 -16 13 -48 4 -48 -4 0 -6 -18 -6 -40 1 -22 -3 -40 -8
-40 -5 0 -3 -6 3 -14 8 -9 8 -15 2 -18 -6 -1 -13 -21 -17 -43 -3 -22 -13 -53
-22 -70 -9 -16 -15 -33 -14 -37 1 -5 -2 -8 -7 -8 -5 0 -12 -13 -16 -30 -4 -16
-11 -30 -16 -30 -6 0 -8 -4 -5 -9 3 -4 -6 -19 -19 -31 -14 -13 -25 -29 -25
-35 0 -7 -9 -23 -21 -36 -31 -36 -70 -116 -63 -132 7 -19 42 -29 47 -14 2 7
10 7 23 2 20 -9 29 -12 42 -14 4 0 20 -12 36 -26 16 -14 33 -25 38 -25 5 0 7
-4 3 -9 -3 -6 1 -13 8 -18 14 -9 60 -93 51 -93 -4 0 -1 -6 5 -14 7 -8 14 -27
17 -42 3 -15 8 -32 12 -38 3 -6 7 -27 8 -46 1 -19 3 -37 4 -40 6 -11 5 -180
-1 -180 -3 0 -6 -6 -6 -12 0 -7 -4 -31 -8 -53 -4 -22 -7 -46 -8 -52 0 -7 -4
-13 -8 -13 -5 0 -6 -7 -3 -15 4 -8 1 -15 -5 -15 -6 0 -10 -3 -10 -7 4 -25 -3
-54 -17 -67 -8 -9 -12 -20 -9 -26 3 -5 2 -10 -3 -10 -8 0 -16 -17 -20 -43 0
-4 -12 -22 -26 -38 -15 -17 -26 -35 -26 -40 0 -10 -22 -38 -62 -79 -16 -16
-28 -33 -28 -39 0 -6 -4 -11 -10 -11 -5 0 -26 -17 -47 -38 -32 -32 -61 -52
-83 -56 -3 -1 -11 -5 -17 -9 -7 -5 -13 -6 -13 -2 0 3 -8 1 -19 -4 -16 -9 -23
-4 -46 29 -15 21 -34 42 -43 46 -26 11 -82 13 -82 2 0 -6 -6 -8 -14 -5 -12 5
-27 -13 -30 -35 -1 -4 -10 -14 -21 -22 -15 -11 -20 -28 -22 -73 -3 -57 -2 -59
39 -95 38 -34 43 -36 52 -20 6 9 11 22 12 27 0 6 2 15 2 22 2 13 24 12 43 -3
8 -6 34 -17 59 -24 68 -21 81 -33 70 -67 -1 -5 -2 -11 -1 -15 0 -5 -3 -8 -9
-8 -5 0 -7 -7 -4 -15 4 -8 1 -15 -6 -15 -7 0 -10 -7 -6 -15 3 -8 1 -15 -4 -15
-10 0 -60 -99 -64 -125 -1 -8 -9 -22 -17 -32 -8 -10 -27 -36 -41 -58 -14 -22
-42 -58 -62 -80 -20 -22 -39 -48 -42 -58 -6 -20 -16 -33 -70 -91 -18 -20 -31
-36 -28 -36 3 0 -7 -11 -21 -24 -15 -14 -24 -30 -20 -35 3 -6 2 -11 -2 -11 -8
0 -17 -15 -48 -78 -8 -17 -20 -32 -26 -32 -6 0 -9 -7 -5 -15 3 -8 1 -15 -4
-15 -6 0 -9 -3 -8 -8 1 -4 -6 -24 -15 -46 -9 -21 -14 -42 -11 -47 3 -5 -1 -9
-8 -9 -8 0 -7 -6 5 -17 16 -16 19 -15 55 24 34 36 170 133 186 133 4 0 24 11
45 24 21 14 42 22 45 19 3 -4 6 -2 6 4 0 5 6 10 13 11 11 0 81 24 117 39 8 3
22 7 30 8 32 5 60 18 60 27 0 6 6 6 14 -1 10 -8 15 -8 18 -1 2 6 18 11 36 13
17 1 32 4 32 7 0 7 303 6 315 -1 6 -3 19 -5 30 -5 11 1 22 -2 25 -6 3 -4 21
-10 40 -13 19 -3 42 -13 51 -21 16 -15 79 -26 79 -14 0 4 6 7 13 7 6 1 26 3
44 6 18 2 35 2 38 -1 5 -5 21 -9 63 -14 18 -2 29 -88 12 -88 -3 0 -6 -8 -7
-17 -3 -37 -10 -56 -30 -77 -39 -41 -38 -54 8 -94 29 -26 89 -40 89 -22 0 6 4
9 9 6 5 -3 12 1 15 9 3 8 10 14 15 13 14 -4 72 74 67 89 -3 7 -1 13 5 13 6 0
6 6 0 18 -6 12 -5 23 4 35 14 19 99 48 155 53 189 17 290 22 303 16 5 -2 36
-6 70 -9 104 -7 174 -21 183 -34 3 -5 9 -7 14 -4 5 3 26 -1 46 -10 20 -8 40
-12 45 -9 5 3 9 1 9 -4 0 -8 35 -23 44 -19 1 1 10 -4 19 -12 10 -7 17 -11 17
-7 0 3 18 -5 40 -19 22 -14 40 -22 40 -19 0 4 9 -1 20 -11 11 -10 20 -14 20
-10 0 5 10 -1 23 -12 12 -11 32 -26 45 -33 26 -13 43 -27 105 -82 23 -21 45
-38 49 -38 5 0 8 -4 8 -10 0 -10 10 -24 63 -82 15 -18 27 -35 27 -40 0 -19 2
-23 16 -31 8 -5 12 -12 9 -18 -4 -5 -1 -9 5 -9 6 0 8 -5 5 -10 -3 -6 1 -13 9
-16 9 -3 14 -10 11 -14 -3 -5 -1 -11 5 -15 6 -4 8 -11 5 -16 -4 -5 0 -12 8
-15 8 -3 14 -13 12 -22 -1 -9 0 -21 3 -26 3 -5 7 -30 9 -55 4 -51 14 -61 57
-54 17 2 38 5 46 5 8 0 20 5 27 10 7 5 17 7 23 3 5 -3 10 -2 10 3 0 8 42 23
75 26 6 1 16 5 23 9 6 5 12 5 12 1 0 -3 7 -1 15 6 8 6 18 9 24 6 5 -3 11 -2
13 3 1 6 17 13 33 16 39 8 60 13 60 15 0 1 34 7 78 13 13 2 27 6 32 8 6 3 34
5 62 5 29 -1 53 1 53 4 0 7 173 6 185 -1 6 -3 31 -5 58 -4 26 0 47 -2 47 -6 0
-3 10 -5 23 -4 12 1 33 -2 47 -6 14 -4 41 -10 60 -13 94 -14 250 -68 250 -87
0 -4 9 -11 21 -14 27 -9 59 -36 53 -46 -2 -4 5 -10 16 -14 11 -3 20 -12 20
-19 0 -8 7 -19 15 -26 8 -7 13 -16 10 -20 -6 -9 31 -43 50 -46 8 -1 15 2 15 7
0 5 6 9 13 9 7 0 18 5 25 12 29 29 313 11 346 -22 5 -5 16 -10 23 -10 8 0 25
-11 39 -25 14 -14 29 -25 35 -25 5 0 15 -5 22 -10 52 -44 73 -60 79 -60 12 0
30 39 23 50 -3 6 -3 10 2 10 10 0 10 111 -1 128 -4 6 -3 12 3 12 7 0 7 8 1 25
-5 14 -6 25 -1 25 5 0 3 12 -4 27 -7 16 -16 47 -19 71 -3 24 -9 49 -13 55 -4
7 -9 20 -10 30 -2 10 -14 40 -28 67 -14 28 -23 50 -20 50 3 0 -5 19 -17 43
-12 23 -23 47 -24 54 -1 7 -13 27 -26 45 -12 18 -22 34 -21 35 4 4 -31 77 -38
83 -4 3 -19 29 -35 58 -15 28 -32 52 -36 52 -4 0 -8 6 -8 14 0 8 -9 18 -20 21
-11 3 -20 12 -20 20 0 7 -16 25 -35 40 -19 16 -32 32 -29 37 3 4 0 8 -6 8 -6
0 -35 25 -64 55 -29 30 -57 55 -63 55 -6 0 -26 14 -44 32 -32 29 -103 79 -172
121 -16 10 -36 24 -44 32 -8 8 -20 15 -28 15 -7 0 -15 3 -17 8 -4 9 -126 82
-137 82 -16 0 -30 26 -22 39 6 10 14 11 27 3 14 -8 22 -5 37 15 20 25 20 25
-5 49 -13 14 -35 25 -48 26 -31 2 -80 -21 -80 -38 0 -25 -60 -34 -87 -12 -6 5
-47 9 -90 8 -43 -1 -81 -1 -85 1 -5 1 -16 2 -25 3 -10 1 -34 6 -53 11 -19 4
-55 9 -80 10 -25 1 -50 4 -55 6 -6 3 -51 5 -102 5 l-92 -1 39 35 38 35 -26 20
c-15 11 -33 18 -40 17 -22 -5 -39 16 -48 56 -4 20 -7 40 -6 45 1 4 -2 7 -8 7
-5 0 -17 17 -27 38 -9 20 -21 40 -26 43 -5 4 -6 12 -3 18 4 6 0 14 -8 17 -9 3
-16 12 -16 20 0 8 -4 14 -9 14 -5 0 -15 17 -22 37 -11 35 -81 117 -91 107 -3
-2 -22 9 -42 25 -21 17 -47 33 -59 37 -12 3 -30 13 -39 22 -12 10 -18 11 -18
3 0 -7 -9 -6 -25 5 -14 9 -28 14 -31 11 -3 -3 -23 3 -45 12 -22 10 -53 17 -70
15 -16 -2 -29 0 -29 4 0 4 -10 9 -22 9 -28 2 -111 11 -118 14 -3 1 -9 0 -15
-1 -17 -4 -181 5 -238 13 -15 2 -30 0 -33 -5 -4 -5 -10 -5 -17 0 -15 12 -124
8 -157 -5 -14 -6 -30 -8 -37 -6 -22 9 -36 131 -23 204 5 24 11 58 14 74 2 17
8 41 11 55 4 14 9 36 12 50 2 14 6 31 9 38 2 7 4 14 4 17 1 3 7 20 15 39 8 18
11 37 7 40 -3 4 -1 11 6 15 7 4 14 18 15 29 1 12 5 22 9 22 4 0 5 7 2 15 -4 8
-1 15 6 15 6 0 9 4 6 9 -3 4 3 33 14 63 10 30 21 67 24 81 2 15 7 30 9 34 3 5
8 25 11 46 3 21 10 46 14 55 5 9 8 29 7 45 0 15 4 27 9 27 6 0 5 5 -2 12 -8 8
-8 17 -1 30 6 10 12 46 14 80 2 33 6 63 9 66 3 3 1 11 -5 19 -9 10 -8 13 0 13
7 0 9 5 5 12 -4 7 -3 8 5 4 6 -4 9 -11 7 -15 -3 -4 4 -12 15 -19 16 -10 19 -9
19 3 0 8 4 15 8 15 4 0 15 13 24 28 16 27 16 30 -2 59 -10 17 -36 39 -58 49
-33 16 -45 30 -71 87 -17 37 -32 70 -32 75 -1 4 -8 16 -15 27 -8 11 -14 27
-14 37 0 9 -7 23 -15 32 -9 8 -15 17 -14 18 4 6 -64 143 -72 146 -5 2 -9 10
-9 19 0 8 -8 27 -17 41 -45 69 -62 100 -59 115 0 5 -7 13 -17 18 -9 6 -15 14
-12 19 3 4 -2 11 -11 14 -8 3 -12 10 -9 16 3 5 1 10 -4 10 -6 0 -10 3 -8 8 1
4 -7 17 -18 29 -24 26 -56 72 -53 75 1 2 -23 27 -55 57 -31 30 -55 57 -52 59
2 2 -19 23 -48 45 -29 23 -62 50 -74 62 -35 32 -43 38 -123 90 -41 26 -78 53
-82 59 -4 6 -8 8 -8 3 0 -4 -11 0 -25 9 -14 9 -25 13 -25 10 0 -3 -14 6 -31
21 -17 16 -35 27 -40 25 -5 -1 -9 2 -9 8 0 6 -8 10 -18 10 -11 0 -27 9 -37 20
-9 10 -20 19 -24 18 -9 -2 -125 56 -129 64 -2 4 -19 10 -38 14 -19 3 -34 10
-34 14 0 8 -58 26 -72 22 -5 -1 -8 2 -8 7 0 5 -8 8 -17 6 -10 -1 -23 1 -29 6
-12 10 -94 17 -134 12z"/>
</g>
</svg>
