<?xml version="1.0" standalone="no"?>
<!DOCTYPE svg PUBLIC "-//W3C//DTD SVG 20010904//EN"
 "http://www.w3.org/TR/2001/REC-SVG-20010904/DTD/svg10.dtd">
<svg version="1.0" xmlns="http://www.w3.org/2000/svg"
 width="403.000000pt" height="612.000000pt" viewBox="0 0 403.000000 612.000000"
 preserveAspectRatio="xMidYMid meet">
<metadata>
Created by potrace 1.13, written by Peter Selinger 2001-2015
</metadata>
<g transform="translate(0.000000,612.000000) scale(0.100000,-0.100000)"
fill="#000000" stroke="none">
<path d="M470 6096 c0 -9 9 -34 20 -56 11 -22 20 -44 20 -49 0 -6 13 -24 29
-40 16 -17 35 -46 42 -65 7 -20 16 -36 20 -36 7 0 40 -88 57 -155 30 -110 35
-153 29 -251 -8 -122 -35 -204 -78 -236 -39 -29 -37 -46 11 -87 32 -27 43 -47
61 -105 11 -39 25 -82 29 -96 5 -14 14 -63 20 -110 24 -180 -16 -383 -100
-515 -11 -16 -27 -43 -36 -60 -9 -16 -23 -35 -30 -43 -8 -7 -14 -17 -14 -21 0
-17 -127 -149 -152 -157 -22 -7 -25 -54 -3 -54 8 0 15 -7 15 -15 0 -8 9 -15
20 -15 11 0 20 5 20 11 0 5 14 2 31 -8 36 -21 169 -146 169 -159 0 -5 11 -19
25 -32 34 -33 97 -202 74 -202 -5 0 -9 -9 -9 -20 0 -11 6 -20 14 -20 32 0 21
-230 -14 -292 -6 -10 -10 -27 -10 -38 0 -12 -9 -40 -19 -63 -11 -23 -28 -68
-38 -99 -11 -31 -24 -63 -29 -70 -5 -7 -18 -31 -29 -53 -11 -22 -26 -46 -32
-53 -7 -7 -13 -20 -13 -27 0 -8 -14 -38 -32 -67 -27 -46 -33 -66 -39 -148 -8
-106 -33 -251 -49 -280 -5 -10 -10 -27 -10 -38 0 -21 -78 -175 -92 -180 -12
-5 -10 -52 2 -52 17 0 11 -57 -16 -153 -50 -180 -142 -306 -266 -365 -54 -26
-73 -52 -48 -67 6 -3 45 0 88 9 134 26 174 27 296 11 112 -14 196 -43 196 -67
0 -16 86 -8 121 11 73 39 246 54 257 22 2 -6 26 -11 52 -11 27 0 64 -6 82 -14
18 -8 80 -19 138 -26 115 -12 217 -46 317 -104 32 -18 68 -37 81 -40 12 -4 22
-11 22 -15 0 -4 18 -16 40 -27 22 -10 40 -22 40 -26 0 -5 6 -8 14 -8 8 0 28
-11 44 -25 17 -14 35 -25 41 -25 7 0 14 -7 17 -15 4 -8 11 -15 17 -15 15 0
152 -143 182 -190 14 -22 25 -48 25 -58 0 -20 -9 -19 305 -37 48 -3 202 -41
230 -57 19 -11 72 -38 178 -89 26 -12 47 -26 47 -31 0 -4 6 -8 13 -8 27 0 180
-143 192 -179 6 -21 48 -30 59 -13 3 5 31 5 63 1 201 -26 245 -34 308 -54 70
-23 126 -45 135 -55 3 -3 34 -23 70 -45 69 -42 154 -121 164 -153 4 -11 18
-32 31 -48 14 -16 25 -37 25 -46 0 -25 51 -24 67 1 18 29 35 180 30 258 -3 37
-12 102 -20 143 -54 273 -97 535 -97 586 0 25 -7 51 -18 65 -11 13 -22 37 -26
53 -4 16 -56 101 -115 190 -59 88 -123 187 -142 218 -18 32 -37 58 -41 58 -5
0 -8 5 -8 11 0 10 -130 192 -164 232 -9 9 -16 20 -16 25 0 4 -12 16 -27 27
-51 39 -133 127 -139 151 -3 13 -10 21 -15 18 -5 -3 -9 -2 -9 3 0 4 -16 26
-35 48 -19 22 -35 47 -35 55 0 8 -26 28 -60 44 -55 26 -66 28 -132 22 -176
-18 -281 -2 -483 70 -96 34 -329 142 -390 179 -27 17 -72 42 -99 55 -63 32
-106 75 -106 106 0 23 2 24 38 17 71 -15 360 -7 452 12 101 21 127 41 136 101
5 39 2 51 -27 100 -35 57 -126 151 -238 245 -106 91 -106 90 -196 87 -47 -2
-81 1 -83 7 -2 6 32 17 75 25 75 15 77 16 84 48 3 17 11 38 16 44 6 7 16 38
23 68 7 30 18 65 26 77 7 12 16 67 20 125 l7 104 -38 33 c-37 32 -39 32 -114
28 -42 -2 -94 -9 -116 -14 -38 -9 -155 -64 -179 -84 -6 -5 -37 -28 -70 -50
l-58 -40 6 28 c14 61 103 356 165 548 35 109 65 211 85 285 8 30 23 75 35 100
25 54 26 87 5 165 -8 33 -21 96 -29 139 -8 44 -18 82 -23 85 -5 3 -17 29 -26
56 -27 83 -186 330 -303 470 -32 39 -78 97 -103 130 -25 33 -55 70 -67 83 -13
13 -23 26 -23 30 0 4 -13 13 -28 20 -16 6 -38 21 -49 32 -12 10 -47 36 -80 56
-32 20 -77 53 -99 73 -64 56 -129 101 -145 101 -8 0 -45 16 -82 35 -37 19 -78
35 -90 35 -13 0 -27 3 -31 7 -18 18 -107 44 -168 50 -60 5 -68 4 -68 -11z"/>
<path d="M3120 395 c0 -18 5 -25 20 -25 15 0 20 7 20 25 0 18 -5 25 -20 25
-15 0 -20 -7 -20 -25z"/>
</g>
</svg>
