<?xml version="1.0" standalone="no"?>
<!DOCTYPE svg PUBLIC "-//W3C//DTD SVG 20010904//EN"
 "http://www.w3.org/TR/2001/REC-SVG-20010904/DTD/svg10.dtd">
<svg version="1.0" xmlns="http://www.w3.org/2000/svg"
 width="393.000000pt" height="661.000000pt" viewBox="0 0 393.000000 661.000000"
 preserveAspectRatio="xMidYMid meet">
<metadata>
Created by potrace 1.13, written by Peter Selinger 2001-2015
</metadata>
<g transform="translate(0.000000,661.000000) scale(0.100000,-0.100000)"
fill="#000000" stroke="none">
<path d="M3532 6527 c-1 -47 -8 -77 -27 -115 -14 -28 -29 -52 -33 -54 -4 -2
-17 -15 -28 -30 -49 -63 -198 -157 -251 -158 -24 -1 -105 -23 -120 -33 -7 -5
-13 -19 -13 -33 0 -54 -36 -162 -74 -224 -53 -87 -154 -210 -171 -210 -7 0
-15 -4 -17 -8 -4 -11 -92 -69 -153 -102 -61 -32 -193 -66 -298 -75 -118 -11
-171 -27 -175 -52 -2 -13 4 -26 16 -32 49 -26 53 -161 7 -253 -76 -151 -171
-243 -337 -327 -130 -65 -224 -90 -363 -97 -147 -8 -243 6 -292 42 -21 16 -39
29 -41 30 -2 1 2 22 9 48 15 60 6 92 -34 113 -40 22 -133 27 -141 8 -3 -8 -21
-21 -40 -30 -35 -17 -36 -19 -36 -76 0 -50 3 -59 18 -59 10 0 23 5 29 11 16
16 43 4 43 -20 0 -11 9 -40 20 -66 28 -66 26 -82 -15 -99 -19 -8 -56 -29 -81
-47 -25 -17 -67 -37 -93 -45 -58 -16 -136 -42 -181 -59 -78 -30 -207 -65 -240
-66 -19 -1 -46 -4 -59 -8 -20 -5 -21 -8 -9 -18 7 -7 36 -17 63 -23 44 -9 87
-25 185 -69 93 -42 215 -187 260 -311 10 -27 28 -65 39 -83 16 -26 21 -51 21
-100 0 -71 -2 -66 78 -139 36 -33 65 -92 57 -117 -6 -21 -139 -86 -155 -76 -6
4 -22 4 -36 1 -22 -6 -24 -12 -24 -59 0 -61 12 -80 59 -96 61 -20 125 -14 155
14 15 14 35 25 45 25 76 0 370 -313 450 -480 14 -30 29 -56 34 -58 4 -2 7 -10
7 -19 0 -8 6 -29 14 -46 46 -101 87 -296 87 -418 0 -84 -25 -254 -41 -274 -4
-5 -13 -27 -19 -47 -20 -61 -60 -130 -98 -170 -41 -42 -40 -75 2 -98 14 -7 25
-17 25 -22 0 -4 5 -8 10 -8 12 0 254 -157 296 -191 66 -56 149 -139 198 -199
53 -64 156 -213 156 -224 0 -4 10 -23 23 -44 43 -69 86 -180 97 -247 11 -69
-1 -177 -22 -202 -5 -6 -8 -24 -6 -39 2 -21 11 -30 41 -40 21 -7 54 -32 75
-55 20 -23 48 -54 62 -69 67 -72 109 -205 110 -347 0 -48 2 -53 22 -53 41 0
169 110 244 210 75 99 186 321 248 495 62 175 75 427 36 740 -19 158 -51 318
-70 355 -11 19 -21 46 -24 60 -3 14 -27 50 -54 80 -27 30 -59 75 -71 99 -29
56 -132 205 -174 251 -29 31 -32 39 -26 74 6 39 46 86 72 86 15 0 47 51 47 74
0 9 5 16 10 16 6 0 10 8 10 18 0 9 6 29 14 44 8 15 17 42 21 60 4 18 16 48 27
66 18 29 20 43 14 115 -8 94 -27 187 -38 187 -5 0 -8 11 -8 25 0 14 -4 25 -10
25 -5 0 -14 19 -21 42 -6 23 -20 50 -30 59 -10 9 -19 22 -19 28 0 14 -50 95
-61 99 -5 2 -9 9 -9 16 0 6 -8 19 -17 28 -20 18 -25 25 -68 83 -17 22 -36 46
-42 53 -7 7 -13 17 -13 22 0 5 -11 20 -25 34 -14 14 -25 29 -25 33 0 13 -82
98 -113 116 -26 17 -26 19 -13 45 24 45 73 88 154 136 93 54 180 94 387 180
273 112 457 226 553 343 57 68 170 292 242 478 23 61 46 119 51 130 92 207
122 544 74 825 -81 481 -140 633 -282 731 -23 16 -50 29 -61 29 -17 0 -19 -8
-20 -63z"/>
</g>
</svg>
