<?xml version="1.0" standalone="no"?>
<!DOCTYPE svg PUBLIC "-//W3C//DTD SVG 20010904//EN"
 "http://www.w3.org/TR/2001/REC-SVG-20010904/DTD/svg10.dtd">
<svg version="1.0" xmlns="http://www.w3.org/2000/svg"
 width="474.000000pt" height="216.000000pt" viewBox="0 0 474.000000 216.000000"
 preserveAspectRatio="xMidYMid meet">
<metadata>
Created by potrace 1.13, written by Peter Selinger 2001-2015
</metadata>
<g transform="translate(0.000000,216.000000) scale(0.100000,-0.100000)"
fill="#000000" stroke="none">
<path d="M222 2135 c-124 -30 -192 -75 -192 -127 0 -25 5 -29 45 -39 70 -18
159 -109 240 -249 37 -63 72 -118 77 -121 5 -3 13 -35 18 -71 14 -96 15 -98
69 -98 73 0 152 -51 231 -148 14 -17 49 -57 78 -88 76 -81 122 -191 123 -291
1 -29 5 -56 10 -59 5 -3 9 -19 9 -35 0 -16 7 -59 16 -95 20 -77 38 -87 105
-55 35 17 63 21 151 22 58 1 111 -2 117 -6 6 -3 43 -15 81 -26 67 -18 132 -47
230 -101 54 -29 133 -79 140 -87 3 -4 19 -15 35 -25 30 -19 52 -38 102 -85
l26 -25 -23 -8 c-40 -15 -80 -49 -80 -68 0 -36 39 -60 97 -60 46 0 53 3 53 20
0 15 7 20 29 20 36 0 41 -7 80 -101 29 -69 36 -79 80 -103 27 -14 60 -26 74
-26 26 0 62 30 72 59 3 10 35 25 79 39 109 33 156 29 156 -13 0 -18 7 -25 31
-30 60 -13 94 61 48 104 l-22 20 79 76 c44 42 96 91 117 108 22 18 53 44 70
59 18 15 35 28 38 28 3 0 18 10 32 23 15 12 43 31 64 42 21 11 55 30 75 42 57
35 152 63 212 63 31 0 100 -10 155 -21 105 -23 128 -21 137 8 23 67 72 147
123 201 33 34 64 62 70 62 5 0 12 9 16 19 3 10 13 21 23 24 9 3 51 25 92 47
130 73 246 103 341 89 30 -4 75 -11 101 -15 l47 -7 6 39 c12 65 51 122 113
162 54 34 61 36 135 35 62 -1 79 2 84 14 10 27 -25 116 -75 188 -55 80 -161
159 -254 189 -54 17 -260 53 -358 62 -150 13 -261 28 -266 36 -3 4 0 8 6 8 19
0 7 54 -13 58 -38 7 -65 -7 -72 -38 -6 -29 -47 -70 -69 -70 -7 0 -27 -12 -46
-27 -68 -56 -266 -231 -285 -253 -33 -37 -132 -110 -150 -110 -12 0 -15 5 -9
23 4 12 7 54 6 94 -1 75 -26 145 -57 156 -8 4 -15 13 -15 22 0 32 -32 12 -124
-79 -88 -88 -96 -99 -116 -164 -18 -61 -27 -74 -61 -96 -93 -62 -105 -66 -160
-56 -82 16 -138 35 -232 79 -49 22 -94 41 -100 41 -16 0 -147 80 -147 89 0 5
-18 16 -40 25 -22 9 -40 20 -40 25 0 5 -10 13 -22 16 -39 12 -78 30 -78 36 0
4 -19 19 -43 33 -23 15 -62 42 -87 61 -25 20 -53 38 -62 41 -10 4 -20 14 -23
25 -3 10 -15 21 -26 24 -10 4 -19 11 -19 16 0 5 -5 9 -11 9 -6 0 -17 7 -25 15
-8 8 -41 33 -74 56 -59 41 -60 42 -54 80 5 32 4 39 -10 39 -9 0 -16 5 -16 10
0 6 -18 10 -40 10 -36 0 -40 -3 -40 -24 0 -13 6 -26 13 -29 6 -2 9 -8 5 -12
-3 -3 -39 4 -80 18 -117 40 -243 77 -259 77 -8 0 -19 4 -24 8 -6 5 -30 14 -55
21 -25 7 -81 25 -125 41 -105 37 -254 77 -336 90 -88 13 -281 11 -347 -5z"/>
</g>
</svg>
