<?xml version="1.0" standalone="no"?>
<!DOCTYPE svg PUBLIC "-//W3C//DTD SVG 20010904//EN"
 "http://www.w3.org/TR/2001/REC-SVG-20010904/DTD/svg10.dtd">
<svg version="1.0" xmlns="http://www.w3.org/2000/svg"
 width="130.000000pt" height="241.000000pt" viewBox="0 0 130.000000 241.000000"
 preserveAspectRatio="xMidYMid meet">
<metadata>
Created by potrace 1.13, written by Peter Selinger 2001-2015
</metadata>
<g transform="translate(0.000000,241.000000) scale(0.100000,-0.100000)"
fill="#000000" stroke="none">
<path d="M995 2353 c-22 -25 -50 -55 -62 -66 -12 -10 -24 -30 -27 -43 -4 -13
-11 -24 -16 -24 -6 0 -10 -8 -10 -18 0 -10 -7 -27 -15 -38 -8 -10 -15 -29 -15
-41 0 -14 -6 -23 -15 -23 -9 0 -15 -9 -15 -25 0 -14 -4 -25 -10 -25 -5 0 -10
-13 -10 -30 0 -16 -4 -30 -10 -30 -5 0 -10 -9 -10 -21 0 -11 -7 -27 -15 -35
-13 -14 -15 -11 -15 21 0 47 -15 75 -41 75 -26 0 -35 -25 -20 -57 9 -19 9 -29
1 -37 -8 -8 -12 -5 -16 11 -4 13 -17 23 -36 27 -45 9 -48 8 -58 -16 l-9 -23 0
22 c-1 12 4 25 9 28 6 3 10 17 10 31 0 33 -42 33 -64 -1 -20 -31 -21 -98 -1
-115 8 -7 12 -17 8 -22 -9 -16 -31 32 -38 87 -4 28 -11 55 -15 60 -4 6 -10 22
-14 38 -3 15 -11 27 -16 27 -6 0 -10 10 -10 23 0 12 -7 31 -15 41 -8 11 -15
26 -15 35 0 16 -1 17 -93 114 -50 53 -72 69 -100 74 -36 5 -37 5 -37 -25 0
-24 6 -35 28 -46 63 -33 148 -139 184 -230 11 -28 23 -55 27 -61 5 -5 16 -46
26 -90 10 -44 24 -89 32 -100 7 -11 13 -29 13 -42 0 -12 5 -34 12 -48 10 -23
8 -29 -24 -63 -44 -46 -58 -72 -58 -110 0 -28 -2 -30 -27 -23 -28 8 -28 8 -27
94 0 48 -3 87 -8 87 -4 0 -8 16 -8 35 0 25 -4 35 -15 35 -9 0 -19 10 -24 23
-5 13 -18 34 -29 48 -12 13 -35 40 -51 60 -20 24 -31 48 -31 68 0 28 -3 31
-30 31 -16 0 -30 -4 -30 -10 0 -5 -9 -10 -20 -10 -27 0 -27 -37 0 -45 12 -4
23 -18 27 -36 3 -16 16 -40 29 -54 13 -14 24 -29 24 -33 0 -4 13 -20 29 -35
24 -23 30 -39 35 -95 15 -144 26 -179 71 -225 23 -24 61 -53 85 -65 l43 -21
-29 -7 c-16 -4 -34 -12 -39 -18 -13 -13 -41 -64 -49 -88 -3 -10 -14 -18 -24
-18 -42 0 -156 -146 -188 -240 -11 -30 -22 -56 -26 -58 -5 -2 -8 -10 -8 -17 0
-8 -6 -18 -13 -22 -8 -4 -17 -15 -20 -23 -4 -8 -18 -33 -32 -55 -15 -25 -24
-56 -25 -82 0 -39 2 -43 25 -43 20 0 25 5 25 24 0 15 12 34 30 49 17 14 30 33
30 42 0 19 23 45 39 45 6 0 11 9 11 20 0 11 4 20 8 20 4 0 13 19 20 42 24 80
75 173 98 176 19 3 20 0 13 -50 -4 -29 -8 -74 -8 -99 -1 -33 -7 -51 -22 -65
-53 -48 -65 -123 -62 -379 1 -88 3 -195 3 -239 0 -43 -3 -83 -8 -90 -5 -6 -15
-49 -21 -94 -11 -76 -11 -86 5 -103 9 -10 28 -19 42 -19 22 0 24 3 19 30 -4
17 -2 30 3 30 6 0 10 31 10 70 0 39 4 70 9 70 4 0 12 28 15 62 4 35 12 68 18
75 7 8 4 35 -7 85 -21 88 -33 328 -17 328 6 0 17 2 24 5 9 4 18 -7 27 -32 8
-20 17 -41 22 -47 81 -104 100 -123 154 -152 50 -28 70 -34 123 -34 74 0 112
14 171 66 71 61 111 136 146 269 1 6 8 -2 15 -17 7 -16 17 -28 22 -28 20 0 4
-197 -29 -349 -14 -66 -14 -75 -1 -85 9 -7 20 -45 28 -94 8 -52 18 -86 26 -89
8 -3 14 -16 14 -28 0 -13 5 -27 10 -30 7 -4 8 -24 4 -51 -6 -42 -5 -44 19 -44
14 0 27 7 31 15 3 8 12 15 21 15 20 0 20 43 0 60 -8 7 -15 29 -15 49 0 20 -5
42 -10 47 -6 6 -17 46 -25 89 -9 43 -17 81 -20 83 -3 3 0 11 7 19 8 10 11 79
9 236 -2 200 -4 226 -22 264 -12 24 -30 51 -42 60 -19 16 -22 28 -23 106 -1
57 3 87 10 87 12 0 51 -80 87 -175 12 -33 28 -64 35 -68 8 -4 14 -15 14 -22 0
-8 6 -15 14 -15 8 0 18 -9 21 -20 3 -11 11 -20 16 -20 5 0 9 -5 9 -11 0 -6 12
-27 27 -47 15 -20 28 -39 29 -40 2 -2 16 -1 33 3 40 9 40 33 2 77 -15 18 -36
48 -45 66 -9 17 -21 32 -26 32 -6 0 -10 7 -10 15 0 8 -9 20 -20 27 -11 7 -20
23 -20 36 0 12 -14 48 -30 80 -79 149 -98 176 -135 196 -20 10 -41 31 -46 45
-15 38 -47 69 -87 82 l-35 12 39 19 c71 34 80 50 130 218 14 47 28 94 31 105
7 29 26 68 41 83 6 7 12 20 12 28 0 8 5 14 10 14 6 0 10 9 10 20 0 11 5 20 10
20 6 0 15 11 20 25 5 14 14 25 20 25 5 0 10 11 10 24 0 17 -9 27 -30 36 -40
17 -56 8 -64 -34 -4 -21 -13 -36 -21 -36 -7 0 -17 -9 -20 -20 -3 -11 -11 -20
-16 -20 -5 0 -9 -13 -9 -30 0 -20 -5 -30 -15 -30 -10 0 -15 -11 -15 -35 0 -24
-5 -35 -15 -35 -8 0 -17 -11 -21 -25 -3 -14 -12 -25 -19 -25 -9 0 -13 -20 -12
-72 1 -70 -13 -118 -33 -118 -6 0 -10 14 -10 31 0 36 -12 60 -57 115 -28 34
-33 49 -33 91 0 36 4 53 15 57 8 3 15 12 15 21 0 8 4 15 8 15 5 0 21 33 37 73
54 142 122 287 135 287 6 0 15 11 20 25 5 14 14 25 20 25 5 0 10 6 10 13 0 7
16 27 35 44 44 39 47 73 8 73 -21 0 -39 -12 -68 -47z"/>
</g>
</svg>
