<?xml version="1.0" standalone="no"?>
<!DOCTYPE svg PUBLIC "-//W3C//DTD SVG 20010904//EN"
 "http://www.w3.org/TR/2001/REC-SVG-20010904/DTD/svg10.dtd">
<svg version="1.0" xmlns="http://www.w3.org/2000/svg"
 width="150.000000pt" height="285.000000pt" viewBox="0 0 150.000000 285.000000"
 preserveAspectRatio="xMidYMid meet">
<metadata>
Created by potrace 1.13, written by Peter Selinger 2001-2015
</metadata>
<g transform="translate(0.000000,285.000000) scale(0.100000,-0.100000)"
fill="#000000" stroke="none">
<path d="M234 2825 c-10 -26 4 -44 45 -55 40 -11 101 -59 101 -80 0 -7 9 -25
20 -40 11 -16 23 -43 26 -62 3 -18 12 -51 19 -73 7 -22 21 -75 30 -118 10 -42
21 -80 26 -83 5 -3 9 -14 9 -26 0 -54 94 -188 133 -188 15 0 15 -2 -4 -21 -16
-16 -20 -28 -15 -53 3 -17 13 -36 21 -42 21 -16 19 -31 -5 -39 -11 -3 -20 -15
-20 -26 0 -25 -9 -24 -42 5 -58 51 -79 100 -82 194 -5 118 -15 211 -28 247
-21 58 -60 135 -68 135 -4 0 -11 11 -14 25 -4 14 -25 51 -47 84 -22 32 -48 80
-57 107 -13 36 -24 50 -40 52 -25 4 -31 -25 -9 -47 10 -10 5 -11 -26 -6 -38 7
-39 7 -35 -21 2 -22 9 -30 28 -32 14 -2 33 -15 42 -30 41 -65 51 -79 83 -118
14 -18 25 -39 25 -47 0 -8 7 -20 15 -27 8 -7 15 -19 15 -27 0 -8 5 -24 11 -35
6 -11 13 -57 15 -102 3 -44 11 -116 19 -160 8 -43 15 -94 15 -112 0 -19 11
-51 24 -72 13 -20 35 -58 50 -84 14 -25 39 -57 55 -70 16 -13 31 -37 34 -55 6
-29 4 -33 -21 -39 -40 -10 -50 -21 -57 -64 -5 -27 -15 -44 -33 -56 -15 -9 -51
-42 -80 -73 -59 -63 -76 -109 -112 -296 l-21 -110 -72 -68 c-39 -37 -82 -70
-95 -74 -12 -3 -27 -13 -32 -23 -6 -10 -22 -20 -37 -22 -37 -4 -46 -45 -11
-50 17 -2 24 -11 26 -31 3 -21 9 -27 28 -27 20 0 24 5 24 30 0 25 4 30 25 30
14 0 25 5 25 10 0 13 157 170 170 170 14 0 27 56 45 190 9 69 23 132 31 141 7
8 32 26 55 38 l41 24 -6 -39 c-3 -22 -8 -79 -12 -128 -5 -68 -11 -95 -26 -110
-10 -11 -25 -41 -32 -66 -8 -25 -23 -65 -34 -90 -18 -39 -20 -61 -17 -170 5
-139 11 -212 26 -313 8 -50 8 -72 0 -80 -6 -6 -11 -20 -11 -32 0 -12 -7 -30
-15 -41 -8 -10 -15 -27 -15 -37 0 -22 -47 -97 -60 -97 -6 0 -10 -8 -10 -19 0
-23 -16 -36 -53 -45 -22 -5 -28 -12 -25 -29 2 -17 10 -22 32 -22 23 -1 32 -7
39 -28 5 -17 16 -27 28 -27 16 0 19 7 19 40 0 26 5 40 13 40 11 0 57 83 57
103 0 5 9 20 20 34 11 14 20 32 20 39 0 7 5 25 12 41 37 90 38 108 7 320 l-30
202 20 38 c11 21 29 52 40 68 18 25 21 27 21 10 0 -11 18 -51 40 -90 22 -38
54 -99 71 -134 l31 -63 39 5 c21 3 39 2 39 -2 0 -4 27 -8 59 -8 57 -1 60 0 72
31 7 17 26 54 42 81 56 95 87 156 87 170 0 33 20 21 59 -35 38 -53 41 -63 35
-102 -9 -61 -52 -245 -70 -300 -12 -38 -13 -55 -4 -90 12 -44 56 -140 90 -193
10 -16 19 -45 19 -63 1 -25 7 -35 26 -42 18 -7 25 -17 25 -35 0 -18 5 -25 19
-25 11 0 23 5 26 10 3 6 15 10 26 10 25 0 25 31 -1 48 -11 7 -20 19 -20 28 0
8 -9 25 -21 37 -12 12 -26 34 -31 50 -6 15 -14 27 -19 27 -5 0 -9 6 -9 14 0 8
-7 27 -15 43 -45 87 -47 98 -32 160 24 92 38 199 44 319 6 110 6 111 -18 118
-14 4 -19 9 -11 13 22 9 13 60 -23 129 -20 38 -39 71 -44 74 -4 3 -11 48 -14
100 -4 52 -9 110 -13 128 l-7 34 44 -23 c24 -12 49 -29 56 -38 12 -17 35 -114
53 -221 18 -102 20 -110 31 -110 14 0 159 -151 159 -166 0 -6 14 -14 30 -17
25 -6 30 -11 30 -37 0 -23 4 -30 20 -30 15 0 20 7 20 25 0 20 5 25 26 25 21 0
25 4 22 22 -2 15 -11 24 -25 26 -12 2 -25 12 -28 23 -4 10 -20 26 -36 35 -16
8 -54 36 -83 62 -29 26 -60 52 -69 57 -14 9 -62 192 -85 319 -8 46 -120 178
-163 191 -9 3 -20 21 -23 39 -7 39 -20 52 -58 61 -25 6 -26 9 -16 38 6 18 26
47 45 66 18 19 52 68 74 109 45 83 66 181 75 357 3 50 9 99 13 110 22 51 86
175 92 175 3 0 14 19 24 43 13 33 25 46 49 53 24 7 32 16 34 37 3 22 -1 27
-17 27 -12 0 -21 -6 -22 -12 0 -7 -5 -3 -11 10 -19 39 -51 25 -61 -28 -5 -25
-15 -49 -23 -53 -8 -4 -14 -15 -14 -23 0 -8 -5 -20 -10 -27 -22 -26 -60 -88
-60 -98 0 -6 -9 -22 -20 -36 -11 -14 -20 -33 -20 -42 0 -9 -7 -24 -14 -34 -10
-13 -14 -58 -15 -169 0 -84 -4 -154 -9 -157 -4 -3 -16 -19 -26 -36 -26 -41
-68 -84 -83 -85 -7 0 -13 9 -13 20 0 13 -7 20 -20 20 -25 0 -25 15 0 40 24 24
26 62 4 95 -15 23 -14 24 13 38 51 27 90 100 114 212 7 33 18 72 26 87 7 15
13 38 13 51 0 12 4 27 9 33 5 5 16 43 24 84 30 150 62 195 148 206 44 6 49 9
49 32 0 24 -1 25 -58 19 -90 -10 -142 -43 -142 -92 0 -9 -10 -29 -22 -45 -11
-16 -24 -48 -29 -72 -4 -24 -12 -59 -18 -78 -24 -83 -43 -157 -48 -188 -3 -18
-9 -35 -14 -38 -5 -3 -9 -22 -9 -43 0 -39 -22 -71 -80 -116 -25 -20 -25 -20
-8 0 26 32 40 95 31 145 -7 39 -12 45 -36 48 -30 4 -35 -15 -17 -63 6 -15 7
-32 3 -38 -5 -7 -10 0 -13 18 -4 22 -11 31 -29 33 -23 4 -24 2 -19 -42 5 -44
4 -46 -19 -46 -24 0 -25 2 -18 46 6 45 6 45 -21 42 -20 -2 -30 -10 -35 -28 -5
-19 -7 -14 -8 23 -1 43 -3 47 -26 47 -23 0 -25 -3 -25 -50 0 -30 8 -68 19 -90
13 -27 15 -40 7 -40 -27 0 -78 94 -96 175 -5 22 -16 67 -25 100 -9 33 -23 89
-31 125 -27 122 -95 224 -171 256 -42 18 -82 18 -89 -1z"/>
</g>
</svg>
