<?xml version="1.0" standalone="no"?>
<!DOCTYPE svg PUBLIC "-//W3C//DTD SVG 20010904//EN"
 "http://www.w3.org/TR/2001/REC-SVG-20010904/DTD/svg10.dtd">
<svg version="1.0" xmlns="http://www.w3.org/2000/svg"
 width="273.000000pt" height="303.000000pt" viewBox="0 0 273.000000 303.000000"
 preserveAspectRatio="xMidYMid meet">
<metadata>
Created by potrace 1.13, written by Peter Selinger 2001-2015
</metadata>
<g transform="translate(0.000000,303.000000) scale(0.100000,-0.100000)"
fill="#000000" stroke="none">
<path d="M2320 2980 c0 -11 -7 -20 -15 -20 -12 0 -15 -12 -14 -52 1 -65 -12
-144 -31 -178 -7 -14 -33 -43 -57 -66 -23 -22 -43 -46 -43 -52 0 -7 -3 -12 -7
-12 -5 0 -17 -13 -28 -30 -11 -16 -29 -31 -41 -34 -12 -3 -27 -20 -35 -38 -7
-17 -15 -26 -17 -20 -2 7 -13 12 -23 12 -18 0 -20 -6 -18 -52 2 -58 -26 -171
-66 -271 -14 -35 -25 -73 -25 -84 0 -38 -38 -36 -51 3 -2 6 -16 26 -31 45 -15
19 -53 70 -86 115 -59 80 -107 114 -161 114 -24 0 -32 21 -17 42 9 12 23 15
56 11 57 -6 100 10 100 37 0 37 -56 148 -79 155 -51 16 -86 -30 -62 -82 15
-33 7 -40 -24 -23 -19 10 -30 11 -50 2 -41 -19 -76 -15 -82 8 -6 22 -39 27
-46 8 -3 -10 -9 -10 -26 0 -25 14 -51 16 -51 2 0 -5 -11 -17 -25 -26 -23 -15
-31 -15 -66 -4 -30 10 -42 11 -51 2 -7 -7 -18 -12 -26 -12 -12 0 -11 5 2 26
10 14 16 37 14 52 -3 24 -7 27 -43 27 -37 0 -43 -4 -73 -49 -33 -50 -42 -105
-19 -123 6 -6 43 -13 80 -16 37 -2 70 -7 73 -9 10 -11 -9 -38 -28 -38 -39 0
-77 -31 -144 -117 -37 -48 -71 -90 -74 -93 -4 -3 -17 -26 -29 -52 -15 -33 -29
-48 -42 -48 -10 0 -19 4 -19 8 0 4 -10 20 -22 35 -27 34 -89 253 -89 316 0 40
-1 43 -24 39 -18 -4 -25 0 -29 18 -4 13 -16 29 -29 35 -20 11 -77 66 -77 75 0
1 -16 18 -35 37 -19 19 -35 38 -35 44 0 5 -11 16 -25 23 -14 7 -25 19 -25 27
0 7 -4 13 -8 13 -13 0 -44 120 -38 146 4 13 3 42 0 64 -6 36 -9 40 -36 40 -39
0 -78 -40 -78 -79 0 -68 23 -134 71 -204 27 -40 49 -77 49 -83 0 -7 35 -44 77
-83 62 -57 73 -71 55 -71 -28 0 -30 -30 -2 -48 26 -16 26 -38 0 -52 -34 -18
-25 -45 21 -59 33 -10 40 -16 37 -34 -2 -14 -11 -23 -25 -25 -32 -5 -29 -34 5
-59 16 -12 44 -52 63 -89 58 -118 76 -142 108 -149 20 -4 31 -13 33 -27 4 -27
21 -35 93 -45 46 -5 52 -8 28 -11 -35 -4 -56 -27 -87 -97 -13 -31 -28 -45 -69
-65 -46 -22 -52 -29 -55 -59 -3 -29 -9 -36 -53 -54 -27 -12 -49 -26 -49 -33 0
-7 -22 -16 -53 -21 -43 -7 -53 -12 -55 -31 -2 -16 3 -25 19 -31 22 -8 22 -9
-16 -33 -27 -17 -60 -28 -99 -31 -59 -6 -76 -17 -76 -49 0 -12 11 -19 37 -24
l37 -7 -27 -21 c-15 -12 -27 -27 -27 -32 0 -6 -9 -19 -20 -29 -11 -10 -20 -22
-20 -27 0 -11 -42 -72 -52 -76 -5 -2 -8 -12 -8 -22 0 -13 -18 -25 -68 -44 -85
-33 -142 -89 -142 -141 0 -37 9 -43 73 -44 36 0 37 1 37 34 0 25 5 35 20 40
11 3 20 11 20 16 0 5 6 9 14 9 8 0 30 14 48 30 18 17 36 30 41 30 10 0 64 56
100 103 12 16 31 38 42 48 16 17 20 17 28 4 16 -29 44 -18 52 21 7 42 5 39
105 145 41 44 77 85 78 90 2 5 10 9 18 9 8 0 14 4 14 9 0 13 29 41 42 41 7 0
8 -18 4 -52 -4 -29 -11 -115 -16 -191 -7 -125 -10 -140 -29 -153 -12 -9 -21
-21 -21 -29 0 -7 -7 -20 -15 -29 -8 -8 -21 -38 -28 -66 -7 -28 -25 -65 -40
-81 -15 -17 -27 -39 -27 -49 0 -11 -13 -27 -30 -37 -32 -19 -42 -59 -15 -65
12 -2 7 -17 -23 -68 -35 -61 -40 -66 -84 -74 -41 -8 -48 -13 -54 -39 -4 -18
-2 -32 6 -37 8 -5 7 -9 -4 -13 -9 -4 -16 -11 -16 -16 0 -6 -21 -33 -47 -62
-27 -28 -60 -65 -75 -82 -16 -16 -28 -34 -28 -39 0 -5 -15 -32 -33 -61 -18
-29 -39 -68 -47 -87 -7 -19 -16 -39 -20 -45 -16 -23 -20 -70 -9 -97 10 -24 17
-28 50 -28 27 0 39 4 39 14 0 8 6 16 14 19 10 4 15 20 14 49 0 23 5 44 11 46
6 2 11 10 11 18 0 17 27 72 44 90 6 6 18 22 26 34 8 12 41 50 72 84 32 33 58
64 58 69 0 4 9 7 20 7 11 0 20 7 20 15 0 8 5 15 10 15 6 0 10 7 10 16 0 8 5
12 10 9 6 -3 10 -24 10 -46 0 -35 3 -39 25 -39 20 0 25 5 25 25 0 14 5 25 10
25 6 0 10 6 10 14 0 8 13 39 29 68 61 113 71 133 71 150 0 10 4 18 8 18 5 0
17 27 27 59 22 72 40 84 50 33 4 -20 18 -71 31 -113 27 -86 108 -210 177 -269
22 -19 66 -61 98 -93 33 -31 61 -57 64 -57 7 0 17 -8 60 -46 44 -38 77 -53
137 -60 78 -9 132 10 220 76 42 32 89 65 106 74 30 15 214 198 221 219 2 7 7
14 10 17 35 30 103 181 116 260 4 25 11 52 15 60 7 12 10 12 15 -5 4 -11 13
-35 21 -53 8 -18 14 -37 14 -43 0 -6 7 -17 15 -25 8 -9 15 -26 15 -39 0 -13 5
-27 10 -30 6 -3 10 -13 10 -22 0 -8 25 -66 55 -128 30 -62 55 -117 55 -124 0
-6 9 -11 20 -11 14 0 21 9 25 34 l7 34 34 -20 c19 -11 39 -28 43 -37 5 -9 21
-23 35 -31 14 -7 26 -19 26 -27 0 -7 3 -13 8 -13 16 0 72 -57 72 -73 0 -9 4
-17 8 -17 4 0 16 -29 27 -65 10 -37 22 -68 27 -71 4 -3 8 -14 8 -25 0 -10 7
-19 15 -19 8 0 15 -4 15 -10 0 -5 15 -10 34 -10 30 0 35 4 41 30 8 37 -2 85
-21 101 -8 6 -14 18 -14 25 0 23 -38 97 -65 126 -14 15 -25 31 -25 36 0 5 -18
28 -40 53 -22 24 -40 50 -40 57 0 7 -11 18 -25 24 -14 6 -25 19 -25 28 0 9
-10 22 -22 28 -17 8 -19 11 -7 11 17 1 29 21 29 46 0 7 -24 22 -52 34 -29 12
-63 34 -75 49 -12 15 -31 38 -43 52 -18 21 -19 25 -6 28 25 5 20 49 -8 67 -16
11 -22 22 -19 39 4 18 -5 30 -46 59 -47 34 -51 40 -51 78 0 34 -6 47 -38 79
l-39 38 -7 128 c-4 71 -11 155 -17 188 -6 32 -8 60 -6 63 3 2 20 -10 38 -26
18 -17 37 -31 41 -31 5 0 8 -7 8 -15 0 -8 5 -15 10 -15 6 0 10 -4 10 -10 0
-15 33 -50 47 -50 7 0 17 -9 23 -20 6 -11 16 -20 24 -20 19 0 55 -46 69 -88
12 -37 43 -55 57 -32 5 8 17 3 39 -19 17 -17 31 -35 31 -40 0 -17 54 -71 72
-71 10 0 18 -3 18 -8 0 -4 16 -16 36 -27 44 -24 74 -49 74 -63 0 -6 9 -14 20
-17 11 -3 20 -15 20 -25 0 -12 10 -20 35 -24 20 -4 40 -4 45 -1 6 3 10 28 10
55 0 44 -3 51 -29 65 -16 8 -31 19 -33 24 -1 5 -33 23 -70 39 -38 17 -68 37
-68 45 0 8 -9 22 -20 32 -11 10 -20 24 -20 32 0 7 -7 16 -15 19 -8 4 -15 15
-15 25 0 10 -4 19 -10 19 -5 0 -10 9 -10 19 0 11 -13 28 -30 37 -33 20 -24 34
23 34 19 0 27 5 27 18 0 32 -15 40 -85 47 -107 10 -108 11 -100 52 8 42 -3 53
-53 53 -43 0 -72 16 -72 40 0 12 -16 29 -45 46 -25 14 -45 32 -45 40 0 23 -49
63 -86 70 -29 5 -36 12 -45 44 -7 21 -24 52 -40 69 -19 21 -23 31 -13 31 8 0
14 4 14 10 0 5 18 13 40 16 33 5 41 11 46 33 4 14 21 42 39 61 19 19 52 73 76
118 26 53 51 88 66 95 32 14 29 43 -7 62 -36 18 -31 36 16 64 40 24 43 45 12
72 l-23 19 23 19 c12 11 22 26 22 35 0 10 -9 16 -22 17 -21 1 -21 2 5 12 15 6
27 17 27 24 0 8 11 24 25 37 14 13 25 27 25 31 0 4 9 15 19 24 11 9 38 55 61
101 22 47 45 92 49 101 5 8 14 41 20 71 17 81 -9 128 -70 128 -12 0 -19 -7
-19 -20z m-1513 -1522 c-3 -8 -6 -5 -6 6 -1 11 2 17 5 13 3 -3 4 -12 1 -19z
m473 -288 c0 -5 -5 -10 -11 -10 -5 0 -7 5 -4 10 3 6 8 10 11 10 2 0 4 -4 4
-10z"/>
</g>
</svg>
