<?xml version="1.0" standalone="no"?>
<!DOCTYPE svg PUBLIC "-//W3C//DTD SVG 20010904//EN"
 "http://www.w3.org/TR/2001/REC-SVG-20010904/DTD/svg10.dtd">
<svg version="1.0" xmlns="http://www.w3.org/2000/svg"
 width="156.000000pt" height="208.000000pt" viewBox="0 0 156.000000 208.000000"
 preserveAspectRatio="xMidYMid meet">
<metadata>
Created by potrace 1.13, written by Peter Selinger 2001-2015
</metadata>
<g transform="translate(0.000000,208.000000) scale(0.100000,-0.100000)"
fill="#000000" stroke="none">
<path d="M1300 2051 c0 -13 -8 -21 -22 -23 -32 -4 -39 -48 -8 -48 12 0 30 -10
40 -22 36 -45 -1 -127 -57 -128 -16 0 -25 -8 -29 -26 -4 -14 -17 -47 -30 -72
-13 -26 -29 -72 -36 -102 l-11 -55 -81 3 c-65 3 -85 8 -104 25 -12 11 -22 26
-22 34 0 7 -5 13 -11 13 -6 0 -9 12 -7 27 3 24 9 28 53 38 44 9 52 15 68 48
12 23 17 47 13 62 -6 22 -12 25 -50 25 -46 0 -56 -10 -56 -56 0 -14 -6 -24
-14 -24 -8 0 -21 -2 -29 -5 -11 -5 -14 4 -13 37 l1 43 -43 3 c-31 2 -44 -1
-48 -12 -8 -21 -54 -21 -54 -1 0 11 -12 15 -50 15 -45 0 -50 -2 -56 -25 -4
-18 -1 -32 11 -45 18 -20 17 -20 -18 -20 -33 0 -37 3 -37 26 0 41 -18 64 -48
64 -37 0 -52 -17 -52 -58 0 -54 15 -71 70 -78 74 -10 78 -21 28 -93 l-42 -62
-76 3 -75 3 -13 45 c-51 168 -57 185 -76 188 -10 2 -29 15 -41 28 -12 13 -27
24 -32 24 -14 0 -23 51 -16 81 7 27 26 49 42 49 6 0 11 12 11 26 0 24 -2 26
-34 20 -20 -4 -37 -2 -41 4 -3 5 -19 10 -36 10 -22 0 -29 -5 -29 -20 0 -11 6
-20 13 -20 10 0 13 -18 13 -67 -1 -76 22 -138 54 -148 13 -4 20 -15 20 -31 0
-13 5 -24 10 -24 18 0 10 -22 -10 -27 -25 -7 -26 -43 -2 -50 14 -3 18 -11 14
-28 -3 -16 4 -32 19 -49 13 -14 38 -43 54 -65 30 -41 71 -60 166 -75 35 -6 37
-8 43 -56 4 -27 11 -52 16 -55 18 -11 10 -22 -17 -28 -28 -5 -111 -64 -146
-101 -10 -11 -20 -30 -23 -43 -4 -13 -11 -23 -16 -23 -5 0 -36 -28 -70 -62
-41 -42 -58 -67 -55 -80 4 -12 -4 -23 -24 -35 -28 -17 -41 -53 -18 -53 5 0 3
-10 -5 -22 -9 -12 -16 -30 -16 -39 0 -9 -7 -19 -15 -23 -8 -3 -15 -12 -15 -20
0 -7 -7 -16 -15 -20 -8 -3 -15 -12 -15 -20 0 -7 -7 -16 -15 -20 -8 -3 -15 -13
-15 -22 0 -9 -9 -27 -20 -41 -11 -14 -20 -36 -20 -49 0 -12 -4 -26 -10 -29
-12 -7 -13 -42 -2 -49 4 -2 24 -7 44 -11 l37 -7 -2 56 c-1 46 3 59 21 76 12
12 22 24 22 28 0 5 14 23 31 40 26 27 39 32 76 32 l45 0 -6 45 c-6 39 -3 54
25 108 18 34 39 76 48 92 8 17 23 39 34 50 21 22 20 27 2 -58 -3 -16 -14 -38
-25 -49 -33 -36 -49 -83 -55 -159 -6 -85 -24 -180 -37 -193 -12 -15 -10 -54 4
-58 8 -3 5 -16 -10 -42 -24 -41 -28 -62 -12 -68 7 -2 5 -19 -5 -47 -19 -55
-19 -71 0 -71 17 0 20 -11 6 -26 -18 -18 -51 -138 -51 -185 0 -32 -5 -49 -15
-53 -8 -3 -15 -15 -15 -26 0 -16 6 -20 33 -20 19 0 37 3 41 7 4 4 25 6 46 4
37 -2 40 -1 40 23 0 21 -5 26 -24 26 -21 0 -24 5 -28 48 -3 30 0 53 9 63 7 8
13 23 13 32 0 9 5 17 10 17 6 0 10 9 10 19 0 11 4 23 10 26 5 3 10 14 10 25 0
13 5 17 20 13 23 -6 50 18 50 44 0 10 -9 29 -20 43 -16 20 -19 40 -19 110 0
79 25 283 28 232 2 -36 64 -164 93 -192 15 -13 53 -40 86 -60 33 -19 80 -48
105 -63 84 -52 163 -45 240 21 24 20 66 52 93 71 61 41 94 91 125 190 29 95
34 80 42 -116 5 -134 3 -158 -14 -203 -23 -61 -24 -80 -4 -80 8 0 15 -9 15
-20 0 -35 37 -25 46 12 7 32 7 32 17 11 6 -13 14 -23 19 -23 4 0 8 -11 8 -25
0 -14 5 -25 10 -25 6 0 10 -10 10 -21 0 -12 7 -27 15 -33 13 -9 13 -16 1 -50
-8 -22 -21 -45 -30 -51 -9 -7 -16 -20 -16 -30 0 -15 6 -17 40 -12 22 3 40 1
40 -4 0 -5 16 -9 35 -9 28 0 35 4 35 20 0 11 -7 20 -16 20 -11 0 -13 6 -9 19
8 25 -22 144 -51 204 -28 57 -29 67 -9 67 20 0 19 34 -1 55 -12 11 -14 25 -9
51 4 25 2 41 -8 53 -23 26 -31 62 -16 72 12 7 12 14 0 41 -13 34 -33 111 -52
207 -10 51 -47 124 -75 146 -11 9 -27 115 -17 115 22 0 128 -217 138 -283 6
-36 12 -47 25 -47 10 0 20 9 23 20 6 22 27 28 27 7 0 -7 8 -20 18 -29 32 -32
49 -53 55 -70 4 -10 11 -18 16 -18 5 0 8 -18 8 -40 -2 -29 -7 -42 -19 -46 -27
-8 -23 -44 5 -44 13 0 28 5 33 10 8 8 15 6 24 -5 17 -21 50 -19 50 3 0 10 -5
23 -11 29 -6 6 -15 29 -19 50 -13 61 -33 106 -62 136 -15 15 -30 36 -33 47 -4
11 -11 20 -16 20 -5 0 -9 15 -9 33 0 22 -8 41 -24 56 -16 15 -22 29 -18 47 3
19 0 26 -15 30 -11 3 -26 21 -33 40 -8 19 -17 34 -21 34 -3 0 -29 24 -57 53
-28 28 -61 62 -73 75 -12 12 -29 22 -37 22 -8 0 -30 16 -49 35 -19 19 -45 38
-58 41 -20 5 -22 9 -15 27 5 12 12 47 15 78 l6 57 71 7 c78 7 88 14 160 112
17 24 39 45 50 48 20 7 26 55 6 55 -8 1 -6 6 5 14 25 19 22 46 -5 46 -21 1
-21 2 -6 13 9 7 20 25 23 40 4 15 11 27 16 27 5 0 9 8 9 18 0 10 5 23 11 29
14 14 7 131 -8 141 -5 4 -13 19 -17 35 -8 32 -46 39 -46 8z"/>
</g>
</svg>
