<?xml version="1.0" standalone="no"?>
<!DOCTYPE svg PUBLIC "-//W3C//DTD SVG 20010904//EN"
 "http://www.w3.org/TR/2001/REC-SVG-20010904/DTD/svg10.dtd">
<svg version="1.0" xmlns="http://www.w3.org/2000/svg"
 width="198.000000pt" height="201.000000pt" viewBox="0 0 198.000000 201.000000"
 preserveAspectRatio="xMidYMid meet">
<metadata>
Created by potrace 1.13, written by Peter Selinger 2001-2015
</metadata>
<g transform="translate(0.000000,201.000000) scale(0.100000,-0.100000)"
fill="#000000" stroke="none">
<path d="M495 1980 c-73 -29 -109 -63 -101 -96 6 -23 11 -26 38 -20 16 3 52
22 78 41 47 34 48 35 103 24 40 -7 63 -7 77 1 12 6 20 7 20 1 0 -5 16 -15 35
-22 19 -7 35 -16 35 -20 0 -4 24 -13 53 -19 29 -7 64 -24 79 -38 24 -22 27
-30 21 -66 -3 -22 -12 -51 -20 -65 -17 -33 -16 -52 1 -77 17 -24 17 -26 -60
-92 -66 -55 -78 -60 -109 -38 -11 7 -44 19 -72 26 -29 8 -53 16 -53 19 0 11
-88 123 -131 169 -24 24 -57 62 -74 83 -29 36 -74 67 -157 106 -21 10 -38 23
-38 30 0 8 -12 13 -30 13 -25 0 -30 -4 -30 -23 0 -25 41 -67 65 -67 8 0 15 -3
15 -8 0 -4 20 -16 45 -27 25 -11 45 -25 45 -32 0 -6 28 -40 63 -75 88 -90 196
-223 197 -244 0 -13 45 -46 87 -64 24 -11 32 -22 35 -45 5 -49 -2 -95 -16 -95
-24 0 -139 -41 -162 -58 -13 -9 -24 -24 -24 -33 0 -9 -12 -27 -27 -40 -27 -23
-92 -94 -140 -152 -37 -44 -103 -144 -103 -155 0 -17 -48 -42 -79 -42 -17 0
-45 -6 -63 -14 -18 -8 -45 -17 -61 -21 -30 -6 -35 -28 -11 -52 16 -16 13 -17
128 18 16 5 42 9 58 9 16 0 31 6 34 15 4 8 15 15 26 15 26 0 39 14 100 112
133 210 166 246 249 269 35 10 66 16 68 13 4 -3 -12 -136 -25 -211 -4 -18 -12
-33 -19 -33 -7 0 -52 -42 -100 -93 -84 -90 -88 -97 -120 -195 -19 -56 -41
-139 -50 -184 -19 -96 -57 -221 -68 -226 -4 -2 -20 -17 -36 -33 -16 -16 -33
-29 -38 -29 -17 0 -73 -84 -73 -108 0 -22 3 -24 31 -18 17 3 35 6 39 6 4 0 10
10 14 23 3 13 17 29 31 35 14 6 25 16 25 22 0 5 8 10 19 10 10 0 26 11 35 25
9 14 23 25 30 25 18 0 40 69 61 185 52 302 47 283 76 289 14 3 51 29 83 58
l56 54 0 -49 c0 -66 37 -189 77 -258 37 -64 100 -129 124 -129 9 0 19 -6 22
-14 7 -18 99 -45 150 -44 35 0 141 44 156 65 3 5 25 23 48 41 43 33 93 118 93
158 0 12 7 40 14 62 8 23 16 81 18 130 l3 88 71 -60 c39 -34 78 -65 87 -71 17
-10 25 -52 53 -280 8 -66 19 -136 24 -156 10 -38 65 -89 94 -89 9 0 24 -4 34
-9 9 -5 30 -15 46 -22 16 -8 31 -22 34 -32 3 -12 15 -17 43 -17 37 0 39 2 39
31 0 22 -5 32 -20 36 -11 3 -20 10 -20 15 0 5 -13 14 -30 19 -17 6 -30 14 -30
18 0 4 -22 13 -49 20 l-49 12 -16 62 c-9 34 -25 116 -36 182 -28 171 -58 294
-78 320 -16 20 -60 60 -131 118 -13 10 -33 23 -46 29 -21 9 -23 19 -30 110 -4
55 -4 102 -1 105 3 3 17 -2 30 -11 14 -9 42 -16 63 -16 42 -1 29 16 163 -213
62 -106 86 -137 105 -137 7 0 20 -9 29 -19 10 -10 34 -22 54 -26 20 -4 44 -13
53 -21 10 -9 42 -18 73 -21 52 -5 56 -4 56 16 0 11 -4 21 -10 21 -5 0 -10 9
-10 20 0 16 -6 20 -29 18 -15 -1 -40 6 -54 15 -15 9 -32 17 -40 17 -30 0 -67
27 -98 74 -47 68 -235 327 -252 347 -8 9 -46 26 -86 38 -67 20 -71 23 -71 51
0 17 5 30 10 30 6 0 10 13 10 28 0 25 6 31 38 40 35 11 92 61 322 282 32 30
59 64 61 74 3 12 20 24 49 34 60 20 128 52 140 67 5 7 13 26 16 43 6 31 6 32
-30 32 -31 0 -36 -3 -36 -23 0 -20 -9 -26 -62 -41 -84 -25 -170 -77 -210 -129
-18 -23 -35 -44 -38 -47 -4 -3 -13 -15 -21 -27 -9 -12 -41 -50 -73 -84 -55
-59 -62 -63 -135 -79 -42 -10 -81 -19 -88 -21 -6 -2 -38 21 -70 52 -32 30 -67
60 -78 66 -19 11 -19 12 -2 30 21 24 23 89 2 97 -25 9 -18 66 12 98 15 15 34
28 42 28 9 0 45 14 81 31 58 28 75 32 165 33 l100 1 48 -37 c71 -55 117 -62
117 -18 0 29 -47 78 -88 90 -20 7 -51 18 -69 26 -67 30 -245 12 -342 -35 -36
-17 -72 -31 -82 -31 -9 0 -22 -6 -28 -14 -16 -19 -100 -14 -116 7 -7 9 -22 17
-33 17 -11 0 -36 8 -54 19 -65 37 -212 71 -299 70 -24 0 -66 -9 -94 -19z"/>
</g>
</svg>
