<?xml version="1.0" standalone="no"?>
<!DOCTYPE svg PUBLIC "-//W3C//DTD SVG 20010904//EN"
 "http://www.w3.org/TR/2001/REC-SVG-20010904/DTD/svg10.dtd">
<svg version="1.0" xmlns="http://www.w3.org/2000/svg"
 width="160.000000pt" height="210.000000pt" viewBox="0 0 160.000000 210.000000"
 preserveAspectRatio="xMidYMid meet">
<metadata>
Created by potrace 1.13, written by Peter Selinger 2001-2015
</metadata>
<g transform="translate(0.000000,210.000000) scale(0.100000,-0.100000)"
fill="#000000" stroke="none">
<path d="M646 1999 c-19 -16 -37 -38 -40 -47 -3 -10 -19 -23 -35 -29 -24 -8
-30 -18 -36 -54 -5 -27 -18 -53 -37 -72 -19 -20 -27 -35 -23 -48 5 -15 1 -19
-17 -19 -32 0 -41 -9 -67 -62 -13 -27 -28 -48 -34 -48 -7 0 -21 -15 -31 -33
-19 -31 -31 -116 -41 -287 -5 -96 -27 -254 -37 -265 -4 -5 -8 -23 -8 -40 0
-16 -12 -75 -27 -130 -14 -55 -27 -113 -28 -130 -4 -48 -17 -110 -25 -115 -18
-12 -150 -247 -156 -276 -12 -67 10 -80 241 -140 125 -33 158 -38 304 -43
l165 -6 8 -33 c14 -52 100 -94 163 -78 30 8 65 60 65 96 0 25 1 26 148 43 177
21 326 58 445 110 39 17 47 25 47 46 -1 46 -25 95 -84 176 -75 101 -105 166
-160 350 -66 222 -99 370 -116 521 -19 166 -61 249 -180 352 -47 40 -99 79
-115 87 -24 10 -33 24 -43 59 -11 44 -14 46 -47 46 -29 0 -35 4 -35 21 0 11
-13 34 -29 50 -41 40 -88 40 -135 -2z"/>
</g>
</svg>
