<?xml version="1.0" standalone="no"?>
<!DOCTYPE svg PUBLIC "-//W3C//DTD SVG 20010904//EN"
 "http://www.w3.org/TR/2001/REC-SVG-20010904/DTD/svg10.dtd">
<svg version="1.0" xmlns="http://www.w3.org/2000/svg"
 width="112.000000pt" height="149.000000pt" viewBox="0 0 112.000000 149.000000"
 preserveAspectRatio="xMidYMid meet">
<metadata>
Created by potrace 1.13, written by Peter Selinger 2001-2015
</metadata>
<g transform="translate(0.000000,149.000000) scale(0.100000,-0.100000)"
fill="#000000" stroke="none">
<path d="M487 1473 c-2 -5 -9 -27 -17 -50 -13 -41 -15 -43 -54 -43 -23 0 -52
-7 -65 -17 -22 -15 -23 -20 -18 -88 5 -55 3 -80 -9 -104 -8 -17 -19 -31 -23
-31 -15 0 -74 -129 -68 -149 3 -11 -4 -37 -15 -57 -13 -24 -17 -45 -13 -65 7
-33 -39 -290 -61 -333 -8 -16 -14 -40 -14 -53 0 -14 -27 -76 -60 -139 -33 -63
-60 -124 -60 -137 0 -19 10 -27 53 -44 91 -37 199 -65 312 -82 110 -16 110
-16 115 -46 5 -29 7 -30 69 -33 70 -3 81 3 81 50 0 26 2 26 68 31 127 8 200
25 307 72 28 12 60 25 73 29 33 11 28 42 -18 114 -22 34 -40 68 -40 73 0 6
-11 24 -25 40 -13 16 -27 46 -31 67 -4 20 -12 44 -19 52 -11 13 -28 72 -56
195 -30 132 -41 186 -49 243 -6 44 -16 71 -29 84 -12 10 -21 25 -21 32 0 7 -8
24 -18 37 -10 13 -25 40 -32 59 -8 19 -18 38 -23 41 -5 3 1 27 13 52 40 86 14
127 -82 127 -44 0 -48 2 -54 28 -4 15 -11 33 -17 40 -10 13 -93 17 -100 5z"/>
</g>
</svg>
