<?xml version="1.0" standalone="no"?>
<!DOCTYPE svg PUBLIC "-//W3C//DTD SVG 20010904//EN"
 "http://www.w3.org/TR/2001/REC-SVG-20010904/DTD/svg10.dtd">
<svg version="1.0" xmlns="http://www.w3.org/2000/svg"
 width="112.000000pt" height="149.000000pt" viewBox="0 0 112.000000 149.000000"
 preserveAspectRatio="xMidYMid meet">
<metadata>
Created by potrace 1.13, written by Peter Selinger 2001-2015
</metadata>
<g transform="translate(0.000000,149.000000) scale(0.100000,-0.100000)"
fill="#000000" stroke="none">
<path d="M533 1468 c-6 -7 -13 -25 -17 -40 -6 -26 -10 -28 -54 -28 -96 0 -122
-41 -82 -127 12 -25 18 -49 13 -52 -5 -3 -15 -22 -23 -41 -7 -19 -22 -46 -32
-59 -10 -13 -18 -30 -18 -37 0 -7 -9 -22 -21 -32 -13 -13 -23 -40 -29 -84 -8
-57 -19 -111 -49 -243 -28 -123 -45 -182 -56 -195 -7 -8 -15 -32 -19 -52 -4
-21 -18 -51 -31 -67 -14 -16 -25 -34 -25 -40 0 -5 -18 -39 -40 -73 -46 -72
-51 -103 -17 -114 12 -4 45 -17 72 -29 107 -47 180 -64 308 -72 65 -5 67 -5
67 -31 0 -47 11 -53 81 -50 62 3 64 4 69 33 5 30 5 30 115 46 113 17 221 45
312 82 43 17 53 25 53 44 0 13 -27 74 -60 137 -33 63 -60 125 -60 139 0 13 -6
37 -14 53 -22 43 -68 300 -61 333 4 20 0 41 -13 65 -11 20 -18 46 -15 57 6 20
-53 149 -68 149 -4 0 -15 14 -23 31 -12 24 -14 49 -9 104 5 68 4 73 -18 88
-13 10 -42 17 -65 17 -40 0 -41 1 -56 48 -15 46 -16 47 -60 50 -28 2 -49 -2
-55 -10z"/>
</g>
</svg>
