<?xml version="1.0" standalone="no"?>
<!DOCTYPE svg PUBLIC "-//W3C//DTD SVG 20010904//EN"
 "http://www.w3.org/TR/2001/REC-SVG-20010904/DTD/svg10.dtd">
<svg version="1.0" xmlns="http://www.w3.org/2000/svg"
 width="190.000000pt" height="253.000000pt" viewBox="0 0 190.000000 253.000000"
 preserveAspectRatio="xMidYMid meet">
<metadata>
Created by potrace 1.13, written by Peter Selinger 2001-2015
</metadata>
<g transform="translate(0.000000,253.000000) scale(0.100000,-0.100000)"
fill="#000000" stroke="none">
<path d="M873 2493 c-7 -15 -13 -32 -13 -39 0 -12 -44 -24 -92 -24 -41 0 -118
-27 -148 -52 -36 -29 -35 -118 3 -210 33 -81 34 -102 4 -115 -13 -6 -34 -27
-47 -46 -18 -26 -38 -40 -76 -52 -71 -22 -93 -54 -104 -156 -6 -55 -6 -88 1
-101 6 -10 7 -33 4 -49 -4 -16 -2 -35 3 -42 22 -28 -57 -447 -112 -592 -8 -22
-15 -50 -16 -63 0 -12 -7 -25 -15 -28 -8 -3 -18 -22 -21 -42 -7 -34 -67 -160
-83 -172 -3 -3 -12 -16 -19 -30 -18 -37 -44 -81 -69 -116 -12 -16 -25 -43 -29
-60 -4 -16 -12 -36 -19 -44 -16 -20 -26 -76 -19 -105 15 -61 341 -166 574
-185 63 -5 154 -10 201 -10 l86 0 -9 -54 c-5 -32 -4 -65 1 -79 9 -23 13 -24
98 -23 l88 1 6 30 c3 17 4 55 1 86 -5 65 -10 62 118 74 80 8 294 51 318 65 9
5 78 30 152 54 245 80 265 95 241 178 -12 41 -67 133 -101 170 -8 9 -26 31
-40 49 -14 18 -29 37 -35 44 -15 16 -46 68 -52 87 -3 10 -10 18 -17 18 -6 0
-20 19 -30 43 -10 23 -21 44 -25 47 -4 3 -28 70 -55 150 -27 80 -52 150 -56
155 -4 6 -11 30 -15 55 -4 25 -15 88 -26 141 -14 66 -20 146 -22 255 -2 142
-5 163 -25 202 -12 23 -27 42 -32 42 -5 0 -19 19 -31 43 -27 54 -52 77 -95 89
-19 5 -38 16 -41 24 -3 8 4 48 16 87 23 77 27 157 11 187 -17 32 -50 44 -135
50 l-80 5 -5 40 -5 40 -50 3 c-46 2 -51 0 -62 -25z"/>
</g>
</svg>
