<?xml version="1.0" standalone="no"?>
<!DOCTYPE svg PUBLIC "-//W3C//DTD SVG 20010904//EN"
 "http://www.w3.org/TR/2001/REC-SVG-20010904/DTD/svg10.dtd">
<svg version="1.0" xmlns="http://www.w3.org/2000/svg"
 width="190.000000pt" height="253.000000pt" viewBox="0 0 190.000000 253.000000"
 preserveAspectRatio="xMidYMid meet">
<metadata>
Created by potrace 1.13, written by Peter Selinger 2001-2015
</metadata>
<g transform="translate(0.000000,253.000000) scale(0.100000,-0.100000)"
fill="#000000" stroke="none">
<path d="M915 2508 c-2 -7 -5 -26 -7 -43 l-3 -30 -80 -5 c-85 -6 -118 -18
-135 -50 -16 -30 -12 -110 11 -187 12 -39 19 -79 16 -87 -3 -8 -22 -19 -41
-24 -43 -12 -68 -35 -95 -89 -12 -24 -26 -43 -31 -43 -5 0 -20 -19 -32 -42
-20 -39 -23 -60 -25 -202 -2 -109 -8 -189 -22 -255 -11 -53 -22 -116 -26 -141
-4 -25 -11 -49 -15 -55 -4 -5 -29 -75 -56 -155 -27 -80 -51 -147 -55 -150 -4
-3 -15 -24 -25 -47 -10 -24 -24 -43 -30 -43 -7 0 -14 -8 -17 -18 -6 -19 -37
-71 -52 -87 -5 -7 -21 -26 -35 -44 -14 -18 -32 -40 -40 -49 -34 -37 -89 -129
-101 -170 -24 -83 -4 -98 241 -178 74 -24 143 -49 152 -54 24 -14 238 -57 318
-65 128 -12 123 -9 118 -74 -3 -31 -2 -69 1 -86 l6 -30 88 -1 c85 -1 89 0 98
23 5 14 6 47 1 79 l-9 54 86 0 c47 0 138 5 201 10 233 19 559 124 574 185 7
29 -3 85 -19 105 -7 8 -15 28 -19 44 -4 17 -17 44 -29 60 -25 35 -51 79 -69
116 -7 14 -16 27 -19 30 -16 12 -76 138 -83 172 -3 20 -13 39 -21 42 -8 3 -15
16 -15 28 -1 13 -8 41 -16 63 -55 145 -134 564 -112 592 5 7 7 26 3 42 -3 16
-2 39 4 49 7 13 7 46 1 101 -11 102 -33 134 -104 156 -38 12 -58 26 -76 52
-13 19 -34 40 -47 46 -30 13 -29 34 4 115 38 92 39 181 3 210 -30 25 -107 52
-148 52 -48 0 -92 12 -92 24 0 7 -6 24 -12 39 -12 24 -19 27 -61 27 -29 0 -49
-5 -52 -12z"/>
</g>
</svg>
