<?xml version="1.0" standalone="no"?>
<!DOCTYPE svg PUBLIC "-//W3C//DTD SVG 20010904//EN"
 "http://www.w3.org/TR/2001/REC-SVG-20010904/DTD/svg10.dtd">
<svg version="1.0" xmlns="http://www.w3.org/2000/svg"
 width="490.000000pt" height="380.000000pt" viewBox="0 0 490.000000 380.000000"
 preserveAspectRatio="xMidYMid meet">
<metadata>
Created by potrace 1.13, written by Peter Selinger 2001-2015
</metadata>
<g transform="translate(0.000000,380.000000) scale(0.100000,-0.100000)"
fill="#000000" stroke="none">
<path d="M3857 3780 c-78 -8 -137 -25 -137 -41 0 -5 -7 -9 -15 -9 -8 0 -15 -7
-15 -15 0 -8 -9 -15 -20 -15 -11 0 -20 -7 -20 -15 0 -8 -7 -15 -15 -15 -17 0
-31 -10 -68 -47 -37 -37 -47 -51 -47 -67 0 -8 -8 -17 -17 -20 -21 -7 -83 -176
-91 -245 -6 -57 34 -207 65 -244 34 -42 31 -95 -10 -148 -35 -47 -172 -149
-199 -149 -9 0 -38 -17 -65 -38 -26 -21 -69 -51 -95 -67 -27 -17 -72 -45 -100
-64 -118 -75 -327 -196 -383 -222 -81 -37 -158 -84 -234 -144 -59 -47 -189
-134 -306 -206 -67 -41 -119 -74 -207 -133 -290 -195 -408 -270 -568 -362 -52
-31 -102 -59 -110 -65 -8 -5 -26 -15 -40 -21 -14 -7 -54 -33 -90 -58 -43 -30
-98 -57 -160 -78 -108 -35 -207 -79 -295 -132 -33 -20 -140 -71 -237 -114 -98
-43 -182 -84 -188 -91 -6 -7 -27 -16 -46 -20 -39 -7 -107 -63 -130 -106 -9
-18 -14 -59 -14 -118 0 -82 2 -91 24 -108 13 -10 26 -29 30 -41 10 -29 53 -62
83 -62 15 0 37 -14 59 -36 34 -37 34 -37 100 -31 l66 5 -29 -31 c-15 -18 -31
-33 -35 -35 -10 -4 -10 -34 -2 -56 10 -25 38 -19 85 19 24 19 48 35 52 35 4 0
18 -12 30 -26 34 -39 163 -65 200 -41 21 13 25 13 50 -9 32 -27 83 -32 113 -9
10 8 26 15 34 15 8 0 35 10 60 22 63 30 112 48 132 48 10 0 32 13 50 29 18 15
56 40 83 55 28 14 64 34 80 44 17 10 64 37 105 60 79 45 127 78 250 170 111
84 146 98 273 105 60 4 134 13 165 21 32 8 129 26 217 40 88 14 185 35 215 47
52 20 125 32 280 45 l65 6 17 -33 c21 -43 29 -89 28 -161 -1 -32 3 -58 8 -58
10 0 1 -68 -12 -89 -5 -7 -12 -54 -17 -104 -21 -211 -20 -208 -130 -284 -38
-25 -66 -50 -63 -55 3 -4 22 -8 42 -8 20 0 54 -3 75 -6 31 -6 37 -10 37 -32 0
-24 2 -24 45 -19 46 7 85 -11 85 -39 0 -19 36 -44 64 -44 16 0 76 -12 135 -27
105 -26 190 -31 394 -24 52 2 57 5 57 25 0 28 -35 66 -60 66 -26 0 -25 18 3
42 38 34 157 88 193 88 28 0 34 4 34 21 0 21 -9 32 -58 66 -19 13 -29 14 -60
4 -53 -17 -227 0 -250 24 -13 13 -14 19 -4 22 6 3 12 16 12 30 0 25 0 26 -62
19 -43 -5 -89 -21 -155 -54 -76 -38 -96 -44 -103 -32 -12 20 -24 192 -15 237
3 21 8 59 10 85 2 30 10 55 24 69 23 25 27 59 10 91 -19 34 15 139 57 177 32
29 118 74 194 101 91 32 125 45 130 51 3 4 29 19 59 34 30 15 60 32 68 39 39
34 120 92 161 113 17 9 32 20 32 25 0 4 5 8 10 8 10 0 27 14 122 102 16 15 38
30 49 33 10 4 19 11 19 16 0 5 4 9 9 9 5 0 31 21 59 48 28 26 83 76 123 112
167 151 309 315 309 358 0 6 5 12 10 12 6 0 18 17 26 38 9 20 24 55 34 77 18
40 23 63 40 165 10 57 0 193 -22 285 -15 66 -70 195 -106 248 -29 42 -40 63
-93 167 -25 47 -29 67 -29 138 0 80 1 85 30 114 34 33 25 33 191 9 57 -9 91
-9 135 0 33 6 83 12 112 11 l54 0 -7 36 c-10 57 -56 124 -109 159 -58 38 -123
49 -238 39 -67 -6 -85 -4 -121 13 -41 20 -77 41 -87 51 -3 3 -58 40 -122 83
-117 78 -125 81 -253 100 -16 3 -65 1 -108 -3z"/>
</g>
</svg>
