<?xml version="1.0" standalone="no"?>
<!DOCTYPE svg PUBLIC "-//W3C//DTD SVG 20010904//EN"
 "http://www.w3.org/TR/2001/REC-SVG-20010904/DTD/svg10.dtd">
<svg version="1.0" xmlns="http://www.w3.org/2000/svg"
 width="320.000000pt" height="252.000000pt" viewBox="0 0 320.000000 252.000000"
 preserveAspectRatio="xMidYMid meet">
<metadata>
Created by potrace 1.13, written by Peter Selinger 2001-2015
</metadata>
<g transform="translate(0.000000,252.000000) scale(0.100000,-0.100000)"
fill="#000000" stroke="none">
<path d="M605 2166 c-53 -17 -132 -71 -148 -101 -6 -13 -34 -38 -62 -57 -89
-59 -111 -149 -55 -226 33 -46 41 -51 33 -23 -7 28 33 59 105 81 86 27 99 26
122 -12 29 -47 26 -128 -10 -283 -43 -183 -57 -341 -41 -458 6 -50 15 -96 20
-102 4 -5 14 -26 21 -45 22 -56 77 -136 131 -193 28 -28 58 -62 66 -74 8 -13
45 -44 82 -69 36 -26 74 -58 85 -71 27 -35 161 -100 276 -135 42 -12 50 -23
50 -66 0 -24 -9 -42 -30 -63 -28 -28 -35 -30 -95 -28 -51 2 -69 -2 -85 -16
-27 -25 -44 -83 -32 -115 9 -24 9 -23 22 15 7 22 15 43 19 47 4 4 49 1 101 -8
52 -8 109 -14 126 -12 18 1 43 -6 60 -17 16 -11 33 -18 37 -17 5 1 6 -2 3 -7
-4 -5 -2 -12 4 -16 25 -15 7 47 -25 85 -36 43 -43 60 -25 60 7 0 7 6 0 20 -8
15 -6 29 10 60 33 64 56 74 147 63 59 -7 88 -6 123 4 59 18 140 55 140 64 0 4
12 12 28 18 30 13 143 76 184 104 17 12 59 21 121 28 l94 9 194 -63 c237 -78
377 -106 443 -87 75 21 106 45 106 82 0 18 -5 40 -10 48 -8 12 -2 16 28 20 36
5 37 6 36 45 -1 34 -9 46 -48 81 l-46 42 30 11 c36 12 39 37 9 75 -13 16 -30
26 -47 26 l-27 0 29 23 c26 21 27 24 12 37 -27 21 -96 29 -306 35 -107 3 -213
10 -235 15 -22 5 -62 10 -88 10 -66 0 -166 26 -259 66 -43 19 -80 34 -84 34
-5 0 -59 23 -229 100 -22 10 -105 46 -184 80 -146 62 -215 95 -235 111 -203
164 -246 230 -271 422 -20 150 -33 189 -88 260 -61 78 -224 119 -332 83z"/>
</g>
</svg>
