<?xml version="1.0" standalone="no"?>
<!DOCTYPE svg PUBLIC "-//W3C//DTD SVG 20010904//EN"
 "http://www.w3.org/TR/2001/REC-SVG-20010904/DTD/svg10.dtd">
<svg version="1.0" xmlns="http://www.w3.org/2000/svg"
 width="420.000000pt" height="422.000000pt" viewBox="0 0 420.000000 422.000000"
 preserveAspectRatio="xMidYMid meet">
<metadata>
Created by potrace 1.13, written by Peter Selinger 2001-2015
</metadata>
<g transform="translate(0.000000,422.000000) scale(0.100000,-0.100000)"
fill="#000000" stroke="none">
<path d="M1880 4068 c0 -5 -4 -6 -10 -3 -5 3 -22 -6 -38 -20 -41 -36 -40 -73
3 -105 18 -14 31 -28 28 -33 -2 -4 3 -10 11 -13 14 -5 14 -8 1 -21 -8 -8 -15
-28 -15 -44 0 -16 -4 -29 -8 -29 -5 0 -9 -13 -10 -30 0 -16 4 -30 9 -30 6 0 7
-9 4 -20 -3 -11 -2 -20 4 -20 10 0 9 -11 -5 -57 -4 -16 -2 -23 7 -23 11 0 11
-2 2 -8 -7 -5 -15 -23 -17 -42 -2 -19 -9 -36 -15 -38 -6 -2 -11 -10 -11 -18 0
-8 -4 -14 -8 -14 -5 0 -26 -16 -47 -35 -22 -19 -41 -33 -43 -31 -2 2 -31 -22
-64 -55 -34 -32 -64 -57 -66 -54 -2 2 -13 -5 -25 -15 -11 -11 -24 -17 -29 -14
-4 3 -8 0 -8 -5 0 -6 -5 -11 -10 -11 -6 0 -27 -7 -48 -17 -20 -9 -40 -17 -43
-17 -28 -5 -177 -152 -191 -188 -5 -16 -14 -28 -19 -28 -4 0 -6 -7 -3 -15 4
-8 1 -15 -6 -15 -6 0 -9 -4 -6 -8 3 -5 -4 -19 -15 -30 -11 -12 -18 -22 -15
-22 3 0 -1 -12 -9 -27 -8 -15 -12 -30 -9 -35 3 -4 1 -8 -5 -8 -6 0 -8 -7 -5
-15 4 -8 2 -15 -4 -15 -8 0 -17 -19 -20 -43 0 -4 -8 -19 -16 -33 -9 -13 -19
-46 -22 -72 -2 -26 -5 -53 -6 -59 -1 -7 -4 -13 -8 -13 -3 0 -5 -12 -5 -27 1
-16 -2 -36 -7 -45 -18 -37 -30 -286 -17 -331 6 -18 12 -39 14 -47 2 -8 10 -34
19 -57 8 -24 13 -43 10 -43 -2 0 2 -16 11 -36 8 -19 14 -38 13 -42 -1 -4 2
-24 7 -46 4 -21 8 -53 9 -70 1 -17 5 -37 9 -43 5 -8 3 -13 -4 -13 -8 0 -8 -4
1 -15 7 -8 10 -15 7 -15 -4 0 1 -19 9 -42 17 -50 21 -99 8 -119 -4 -8 -10 -23
-11 -34 -2 -10 -7 -22 -11 -25 -7 -5 -13 -24 -15 -52 -1 -9 -5 -14 -9 -12 -4
3 -8 2 -8 -3 0 -4 -11 -13 -25 -19 -20 -10 -27 -9 -41 7 -9 11 -23 19 -29 19
-7 0 -18 7 -25 15 -7 9 -15 13 -18 10 -3 -3 -11 0 -19 7 -24 20 -80 18 -99 -3
-17 -18 -16 -20 2 -33 10 -8 22 -12 26 -10 5 3 8 0 8 -6 0 -6 5 -8 12 -4 6 4
8 3 4 -4 -4 -6 -17 -7 -34 -3 -15 5 -34 3 -44 -3 -14 -8 -23 -4 -46 22 -16 18
-33 32 -39 32 -5 0 -19 14 -32 31 -13 17 -25 28 -28 25 -3 -3 -13 -1 -23 4 -9
5 -31 12 -48 15 -24 4 -34 1 -42 -15 -9 -17 -5 -23 30 -45 39 -24 52 -49 29
-57 -6 -2 -3 -13 9 -28 l21 -25 -26 -21 c-30 -24 -35 -17 116 -143 12 -11 38
-25 57 -31 19 -7 34 -16 34 -21 0 -6 4 -8 8 -5 5 3 26 -4 46 -15 39 -21 116
-34 116 -19 0 19 56 17 84 -3 17 -12 44 -27 60 -33 33 -12 50 -4 112 53 13 12
24 19 24 16 0 -4 9 2 20 13 27 27 49 44 55 44 3 0 9 0 15 0 5 0 21 11 35 25
14 14 25 23 25 19 0 -4 8 2 18 13 17 21 52 22 75 3 68 -57 71 -59 81 -34 5 14
10 12 29 -10 12 -15 41 -48 65 -74 23 -25 42 -52 42 -59 0 -7 9 -17 21 -23 11
-7 19 -14 16 -16 -2 -3 11 -21 29 -41 19 -20 32 -38 30 -40 -2 -2 12 -21 32
-43 29 -30 37 -47 38 -82 1 -23 5 -65 9 -93 7 -61 8 -163 0 -176 -4 -5 -3 -9
2 -9 10 0 8 -143 -1 -159 -4 -6 -3 -11 2 -11 5 0 8 -10 8 -23 -1 -12 0 -26 3
-32 3 -5 6 -16 7 -25 8 -53 16 -64 75 -114 39 -32 109 -67 121 -60 4 3 8 0 8
-5 0 -6 3 -10 8 -10 4 1 9 1 12 -1 12 -4 80 -5 80 0 0 3 15 5 33 6 61 2 114
24 156 64 57 56 76 104 85 221 4 52 -11 170 -22 178 -4 4 -7 16 -6 28 1 13 -3
23 -8 23 -5 0 -7 4 -4 9 5 8 -1 30 -32 121 -3 8 -6 17 -7 20 -1 3 -7 18 -13
33 -7 16 -12 34 -12 40 0 7 -6 24 -14 39 -8 14 -17 46 -21 70 -4 24 -8 54 -11
68 -2 14 -4 42 -5 62 -1 21 -5 38 -8 38 -6 0 -8 23 -11 115 -2 46 5 103 17
160 5 22 9 75 9 118 -1 42 1 77 4 77 7 0 4 69 -3 76 -3 3 -2 16 2 28 8 24 6
142 -4 196 -3 19 -8 44 -10 55 -2 11 -4 20 -6 20 -1 0 -3 16 -4 35 -1 19 -5
42 -9 50 -3 8 -8 33 -10 55 -4 46 -15 77 -30 87 -8 5 -7 8 1 8 14 0 6 31 -11
42 -7 5 -7 8 2 8 7 0 11 4 8 8 -4 8 -9 25 -21 87 -5 25 -13 58 -15 65 -1 3 -2
8 -1 13 0 4 -4 7 -9 7 -6 0 -10 5 -10 11 0 13 -140 250 -155 264 -33 28 -57
88 -57 138 1 79 11 161 23 182 4 6 5 20 4 33 -1 13 10 35 27 52 15 16 28 32
28 35 0 3 29 33 63 68 35 34 72 79 82 100 9 20 21 37 26 37 16 0 35 61 46 145
2 22 8 57 13 77 11 50 4 164 -10 178 -8 7 -33 62 -36 78 -5 26 -56 82 -79 88
-14 3 -25 10 -25 16 0 5 -4 7 -9 3 -5 -3 -12 -1 -15 3 -3 5 -16 7 -30 5 -13
-3 -50 1 -82 8 -33 8 -66 14 -74 15 -8 1 -22 4 -30 7 -30 11 -70 14 -70 5z
m-680 -2528 c12 -12 15 -22 9 -26 -6 -3 -9 -15 -6 -25 3 -11 1 -17 -4 -13 -5
3 -9 0 -9 -6 0 -8 -6 -8 -20 0 -13 7 -18 16 -13 23 4 7 8 20 9 30 4 45 5 46
34 17z m-49 -129 c11 5 17 14 14 20 -4 5 -1 9 5 9 12 0 30 -41 23 -53 -3 -4
-11 -3 -18 3 -9 8 -14 6 -19 -6 -6 -16 -8 -16 -25 0 -17 16 -19 16 -26 -1 -5
-10 -7 -22 -6 -26 1 -5 -4 -7 -10 -5 -18 6 -27 40 -18 66 l9 24 26 -21 c20
-16 30 -18 45 -10z m-317 10 c3 -5 -1 -11 -9 -15 -9 -3 -15 0 -15 9 0 16 16
20 24 6z m41 -41 c3 -5 1 -10 -4 -10 -6 0 -11 5 -11 10 0 6 2 10 4 10 3 0 8
-4 11 -10z m180 -23 c4 5 5 0 2 -9 -3 -9 0 -22 8 -28 22 -18 -2 -52 -27 -39
-10 6 -16 14 -13 20 4 5 0 16 -9 24 -10 10 -17 12 -21 4 -5 -7 -11 -7 -17 -1
-13 13 -2 32 18 32 8 0 14 5 14 12 0 6 7 4 18 -5 10 -10 22 -14 27 -10z m-237
-33 c13 -7 19 -15 13 -18 -5 -4 -12 -2 -16 4 -4 6 -10 8 -15 5 -5 -3 -11 -1
-15 5 -4 6 -11 8 -16 5 -5 -4 -9 1 -9 9 0 16 12 14 58 -10z m123 2 c-9 -11 -9
-15 1 -19 10 -3 9 -9 -5 -23 -17 -18 -17 -17 -15 11 1 17 7 33 13 37 16 12 19
9 6 -6z"/>
</g>
</svg>
