<?xml version="1.0" standalone="no"?>
<!DOCTYPE svg PUBLIC "-//W3C//DTD SVG 20010904//EN"
 "http://www.w3.org/TR/2001/REC-SVG-20010904/DTD/svg10.dtd">
<svg version="1.0" xmlns="http://www.w3.org/2000/svg"
 width="274.000000pt" height="241.000000pt" viewBox="0 0 274.000000 241.000000"
 preserveAspectRatio="xMidYMid meet">
<metadata>
Created by potrace 1.13, written by Peter Selinger 2001-2015
</metadata>
<g transform="translate(0.000000,241.000000) scale(0.100000,-0.100000)"
fill="#000000" stroke="none">
<path d="M593 2386 c-54 -18 -95 -48 -113 -83 -8 -15 -31 -47 -52 -70 -38 -43
-53 -77 -46 -110 3 -15 12 -18 63 -15 33 1 70 0 82 -3 28 -7 37 -50 24 -117
-44 -226 -65 -402 -65 -543 -1 -139 1 -156 27 -228 37 -105 84 -177 176 -267
62 -60 97 -85 183 -128 82 -41 107 -58 110 -75 2 -12 -9 -58 -23 -101 -23 -73
-28 -81 -60 -92 -19 -7 -59 -13 -90 -13 -49 -1 -59 -4 -73 -26 -18 -27 -21
-61 -7 -69 5 -4 40 1 78 10 49 12 93 15 158 11 51 -4 108 -1 132 5 34 8 50 7
86 -7 46 -17 93 -17 91 0 -2 18 -68 44 -111 45 -24 0 -43 3 -43 6 0 18 85 91
145 123 59 32 86 40 170 50 55 6 102 16 103 21 2 6 12 10 22 10 10 0 20 10 24
24 6 26 30 36 91 36 22 0 80 7 129 14 74 12 96 13 130 2 22 -7 100 -30 171
-51 72 -20 170 -51 219 -67 140 -47 238 -50 251 -9 3 10 16 22 28 25 33 8 103
78 121 121 9 20 16 52 16 69 0 27 -6 36 -38 53 -20 12 -68 29 -105 38 -51 13
-67 22 -67 35 0 14 -13 21 -52 30 -29 6 -71 15 -93 20 -22 5 -67 15 -100 21
-132 25 -270 76 -346 126 -30 19 -124 78 -209 131 -85 52 -218 137 -295 187
-77 50 -171 111 -210 135 -134 82 -183 123 -209 173 -24 44 -65 194 -81 292
-19 120 -67 214 -125 248 -41 25 -161 32 -217 13z"/>
</g>
</svg>
