<?xml version="1.0" standalone="no"?>
<!DOCTYPE svg PUBLIC "-//W3C//DTD SVG 20010904//EN"
 "http://www.w3.org/TR/2001/REC-SVG-20010904/DTD/svg10.dtd">
<svg version="1.0" xmlns="http://www.w3.org/2000/svg"
 width="181.000000pt" height="150.000000pt" viewBox="0 0 181.000000 150.000000"
 preserveAspectRatio="xMidYMid meet">
<metadata>
Created by potrace 1.13, written by Peter Selinger 2001-2015
</metadata>
<g transform="translate(0.000000,150.000000) scale(0.100000,-0.100000)"
fill="#000000" stroke="none">
<path d="M776 1483 c-22 -6 -89 -48 -123 -77 -13 -11 -23 -31 -23 -44 0 -22 3
-24 35 -18 43 8 60 0 43 -19 -53 -59 -55 -69 -57 -215 -1 -212 30 -336 116
-452 33 -46 136 -128 201 -162 29 -15 32 -21 32 -65 0 -31 -5 -53 -15 -61 -8
-7 -15 -16 -15 -21 0 -4 -16 -41 -35 -82 -19 -41 -35 -78 -35 -84 0 -5 -35
-16 -77 -24 -61 -11 -79 -18 -81 -32 -2 -12 4 -20 16 -24 11 -3 23 -14 25 -25
5 -17 10 -19 34 -13 15 5 46 7 68 5 71 -6 169 -3 210 6 30 7 40 14 40 29 0 16
-8 21 -38 25 l-39 5 34 43 c19 23 56 57 82 75 32 22 58 50 75 82 22 42 33 52
76 67 58 22 246 28 386 14 l87 -9 7 62 c10 88 -6 111 -79 111 -58 0 -129 27
-200 77 -36 26 -180 166 -244 238 -38 42 -164 150 -215 183 -71 46 -74 54 -79
182 -5 116 -21 174 -55 209 -16 16 -119 25 -157 14z m371 -1183 c-45 -31 -89
-74 -117 -115 -24 -35 -34 -42 -55 -38 -14 3 -25 8 -25 12 0 3 16 37 35 75 19
37 35 74 35 81 0 22 35 44 85 52 50 9 50 9 57 -22 6 -24 3 -33 -15 -45z"/>
</g>
</svg>
