<?xml version="1.0" standalone="no"?>
<!DOCTYPE svg PUBLIC "-//W3C//DTD SVG 20010904//EN"
 "http://www.w3.org/TR/2001/REC-SVG-20010904/DTD/svg10.dtd">
<svg version="1.0" xmlns="http://www.w3.org/2000/svg"
 width="443.000000pt" height="520.000000pt" viewBox="0 0 443.000000 520.000000"
 preserveAspectRatio="xMidYMid meet">
<metadata>
Created by potrace 1.13, written by Peter Selinger 2001-2015
</metadata>
<g transform="translate(0.000000,520.000000) scale(0.100000,-0.100000)"
fill="#000000" stroke="none">
<path d="M534 5169 c-27 -10 -59 -27 -70 -37 -10 -9 -41 -35 -69 -57 -27 -22
-58 -49 -68 -59 -9 -11 -34 -27 -55 -36 -20 -10 -55 -35 -78 -56 -23 -22 -68
-63 -102 -93 -53 -46 -62 -60 -68 -98 -5 -33 -3 -48 7 -54 21 -13 61 -11 94 7
23 12 49 14 125 9 103 -7 124 -14 185 -60 111 -83 147 -158 146 -297 0 -62
-46 -373 -71 -488 -25 -114 -70 -418 -81 -547 -16 -199 -7 -505 20 -653 12
-63 26 -124 31 -135 5 -11 27 -67 50 -124 41 -106 104 -221 121 -221 5 0 9 -7
9 -16 0 -50 200 -268 380 -413 127 -103 215 -220 370 -491 23 -41 51 -85 62
-96 11 -12 26 -48 34 -80 8 -33 21 -84 30 -114 l16 -56 -36 -59 c-78 -128
-161 -229 -198 -241 -10 -3 -18 -11 -18 -17 0 -19 -32 -34 -88 -42 -36 -5 -78
-22 -130 -53 -106 -63 -112 -68 -112 -114 l0 -40 29 25 c24 20 43 25 113 29
48 3 98 13 115 22 36 18 104 41 148 50 29 5 29 5 5 -6 -50 -23 -136 -60 -156
-68 -40 -16 -60 -151 -25 -170 41 -22 81 -12 135 34 65 56 119 71 229 63 75
-5 87 -3 144 23 111 52 185 51 241 -1 38 -35 66 -35 70 2 2 19 -4 29 -30 42
-18 10 -46 26 -63 37 -30 20 -94 52 -127 63 -43 15 -8 83 117 226 11 12 37 41
58 62 20 21 37 41 37 43 0 2 22 25 49 52 64 64 71 98 44 216 l-20 88 21 -6
c12 -3 35 -12 51 -20 41 -19 123 -42 232 -64 50 -11 108 -26 130 -34 43 -17
120 -32 208 -41 58 -6 100 -15 250 -55 39 -10 95 -24 125 -31 30 -7 67 -21 82
-31 14 -10 28 -18 31 -18 3 0 35 -18 73 -41 76 -47 333 -171 391 -189 21 -7
52 -20 68 -30 48 -29 255 -97 315 -104 30 -3 107 -16 171 -28 106 -20 120 -20
155 -7 46 18 54 42 22 69 -38 33 -236 164 -338 225 l-95 57 50 -6 c150 -16
208 -17 251 -5 41 13 44 15 44 49 0 30 -8 43 -52 83 -50 44 -192 147 -204 147
-4 0 -79 53 -109 78 -6 5 -24 17 -40 28 -17 10 -32 21 -35 24 -3 3 -23 17 -45
30 -22 13 -44 28 -50 33 -5 4 -53 36 -105 71 -243 159 -338 232 -479 366 -20
19 -59 53 -86 75 -47 39 -160 145 -295 275 -37 36 -92 88 -121 116 -30 27 -83
83 -119 123 -36 40 -74 82 -86 92 -11 11 -45 53 -75 95 -98 137 -173 239 -178
244 -4 3 -25 30 -48 60 -23 30 -59 73 -80 95 -21 22 -51 58 -68 81 -52 70
-167 196 -242 266 -16 14 -41 48 -55 75 -107 204 -140 271 -180 363 -117 272
-131 313 -188 565 -85 378 -116 476 -210 665 -82 163 -110 192 -240 241 -101
38 -108 39 -225 38 -94 0 -131 -4 -171 -20z"/>
</g>
</svg>
