<?xml version="1.0" standalone="no"?>
<!DOCTYPE svg PUBLIC "-//W3C//DTD SVG 20010904//EN"
 "http://www.w3.org/TR/2001/REC-SVG-20010904/DTD/svg10.dtd">
<svg version="1.0" xmlns="http://www.w3.org/2000/svg"
 width="301.000000pt" height="227.000000pt" viewBox="0 0 301.000000 227.000000"
 preserveAspectRatio="xMidYMid meet">
<metadata>
Created by potrace 1.13, written by Peter Selinger 2001-2015
</metadata>
<g transform="translate(0.000000,227.000000) scale(0.100000,-0.100000)"
fill="#000000" stroke="none">
<path d="M650 2249 c-19 -6 -48 -20 -65 -32 -16 -12 -43 -29 -60 -37 -16 -8
-37 -30 -46 -47 -9 -18 -32 -51 -52 -73 -38 -41 -53 -79 -43 -105 4 -11 23
-15 78 -15 40 0 87 4 105 9 27 8 36 6 57 -14 15 -13 26 -30 27 -37 4 -64 -7
-162 -27 -258 -96 -441 -66 -668 111 -845 49 -49 93 -81 145 -107 90 -45 246
-108 266 -108 20 0 34 -42 34 -99 0 -42 -3 -49 -27 -60 -48 -22 -130 -80 -137
-97 -7 -19 -8 -54 -1 -54 2 0 35 11 72 25 99 38 197 43 310 16 50 -11 103 -21
119 -21 l28 0 -33 34 -33 34 23 16 c13 9 32 16 42 16 10 0 40 11 67 25 27 14
62 25 78 25 16 0 32 3 36 7 11 11 79 33 104 33 12 0 70 23 129 50 58 28 124
55 146 59 22 5 44 14 50 20 6 6 25 11 42 11 18 0 57 9 88 19 105 36 160 30
361 -39 155 -54 187 -62 233 -58 78 7 133 65 133 141 0 52 -33 81 -142 127
-39 15 -48 24 -48 43 0 18 -8 28 -30 37 -18 7 -30 20 -30 31 0 35 -92 67 -255
89 -92 12 -279 51 -350 72 -22 7 -84 34 -139 61 -54 27 -133 61 -175 77 -84
31 -134 52 -201 85 -25 13 -90 42 -145 66 -55 23 -113 53 -130 65 -16 12 -40
25 -52 29 -13 3 -23 11 -23 16 0 5 -5 9 -10 9 -16 0 -66 54 -110 119 -53 78
-86 184 -104 333 -12 105 -19 133 -42 169 -36 58 -68 86 -132 116 -61 28 -184
40 -242 22z"/>
</g>
</svg>
