<?xml version="1.0" standalone="no"?>
<!DOCTYPE svg PUBLIC "-//W3C//DTD SVG 20010904//EN"
 "http://www.w3.org/TR/2001/REC-SVG-20010904/DTD/svg10.dtd">
<svg version="1.0" xmlns="http://www.w3.org/2000/svg"
 width="357.000000pt" height="439.000000pt" viewBox="0 0 357.000000 439.000000"
 preserveAspectRatio="xMidYMid meet">
<metadata>
Created by potrace 1.13, written by Peter Selinger 2001-2015
</metadata>
<g transform="translate(0.000000,439.000000) scale(0.100000,-0.100000)"
fill="#000000" stroke="none">
<path d="M2645 4378 c-137 -6 -202 -13 -206 -21 -4 -7 -58 -82 -119 -166
l-112 -155 91 -228 91 -228 -855 -1338 -856 -1338 -200 101 -200 101 -138
-139 -138 -140 34 -166 c19 -91 36 -172 39 -179 2 -8 23 14 47 50 24 35 76
107 115 161 l71 98 5 -33 c3 -18 10 -132 16 -253 15 -309 20 -365 35 -365 7 0
93 -31 191 -69 l179 -68 178 120 c98 67 176 126 174 132 -2 5 -28 116 -56 246
l-52 236 881 1304 c485 717 887 1310 895 1318 12 12 50 5 267 -53 139 -37 261
-69 270 -72 12 -4 51 40 146 162 l130 166 -70 212 c-39 116 -74 215 -78 219
-4 5 -63 -95 -131 -222 -91 -169 -126 -226 -131 -213 -4 9 -60 195 -124 412
-64 217 -121 401 -127 408 -5 6 -21 11 -36 10 -14 0 -116 -5 -226 -10z"/>
</g>
</svg>
