<?xml version="1.0" standalone="no"?>
<!DOCTYPE svg PUBLIC "-//W3C//DTD SVG 20010904//EN"
 "http://www.w3.org/TR/2001/REC-SVG-20010904/DTD/svg10.dtd">
<svg version="1.0" xmlns="http://www.w3.org/2000/svg"
 width="298.000000pt" height="410.000000pt" viewBox="0 0 298.000000 410.000000"
 preserveAspectRatio="xMidYMid meet">
<metadata>
Created by potrace 1.13, written by Peter Selinger 2001-2015
</metadata>
<g transform="translate(0.000000,410.000000) scale(0.100000,-0.100000)"
fill="#000000" stroke="none">
<path d="M2626 3992 l-149 -98 -46 -156 -46 -156 -854 -1339 -853 -1338 -199
100 -200 101 -138 -139 -138 -140 37 -175 c34 -167 37 -176 61 -178 13 -1 78
-8 144 -14 66 -6 136 -13 156 -16 l37 -5 -44 -137 c-48 -150 -50 -162 -31
-162 7 0 93 -31 192 -69 l180 -68 140 95 c77 53 156 107 175 121 l36 25 -55
247 -54 246 889 1319 c886 1315 889 1320 960 1479 39 88 81 179 93 203 18 35
20 51 14 85 -8 38 -6 44 17 64 l25 22 -90 90 c-49 50 -94 91 -100 90 -5 0 -77
-44 -159 -97z"/>
</g>
</svg>
