<?xml version="1.0" standalone="no"?>
<!DOCTYPE svg PUBLIC "-//W3C//DTD SVG 20010904//EN"
 "http://www.w3.org/TR/2001/REC-SVG-20010904/DTD/svg10.dtd">
<svg version="1.0" xmlns="http://www.w3.org/2000/svg"
 width="335.000000pt" height="425.000000pt" viewBox="0 0 335.000000 425.000000"
 preserveAspectRatio="xMidYMid meet">
<metadata>
Created by potrace 1.13, written by Peter Selinger 2001-2015
</metadata>
<g transform="translate(0.000000,425.000000) scale(0.100000,-0.100000)"
fill="#000000" stroke="none">
<path d="M2812 4203 c-11 -21 -68 -149 -127 -285 -59 -137 -112 -248 -117
-248 -6 0 -96 47 -202 104 -105 57 -201 109 -213 115 l-23 12 19 -48 c10 -26
52 -132 93 -234 67 -166 73 -188 61 -205 -8 -10 -392 -612 -855 -1336 l-841
-1317 -200 100 c-109 55 -201 99 -202 97 -2 -2 50 -97 115 -212 l118 -209
-137 -62 c-75 -34 -174 -79 -221 -101 l-84 -39 39 -6 c22 -4 104 -13 183 -20
78 -7 142 -16 142 -20 0 -4 -20 -71 -44 -149 -32 -103 -39 -137 -27 -128 9 7
79 69 156 138 77 69 150 133 162 143 20 18 24 16 212 -92 106 -61 191 -104
191 -97 0 7 -22 113 -50 236 -27 123 -50 231 -50 241 0 13 1737 2602 1775
2647 1 1 122 -30 269 -69 147 -39 269 -69 272 -66 3 3 -34 60 -82 126 -78 109
-86 125 -76 146 6 13 71 129 145 258 l135 235 -37 5 c-20 3 -98 11 -174 18
-76 7 -144 17 -152 23 -7 6 -43 83 -80 171 -37 88 -68 162 -70 163 -2 2 -12
-13 -23 -35z"/>
</g>
</svg>
