<?xml version="1.0" standalone="no"?>
<!DOCTYPE svg PUBLIC "-//W3C//DTD SVG 20010904//EN"
 "http://www.w3.org/TR/2001/REC-SVG-20010904/DTD/svg10.dtd">
<svg version="1.0" xmlns="http://www.w3.org/2000/svg"
 width="271.000000pt" height="439.000000pt" viewBox="0 0 271.000000 439.000000"
 preserveAspectRatio="xMidYMid meet">
<metadata>
Created by potrace 1.13, written by Peter Selinger 2001-2015
</metadata>
<g transform="translate(0.000000,439.000000) scale(0.100000,-0.100000)"
fill="#000000" stroke="none">
<path d="M2295 4378 c-110 -5 -201 -12 -203 -16 -1 -4 -54 -79 -117 -166 -64
-88 -114 -165 -111 -170 2 -6 43 -109 91 -228 l87 -217 -855 -1339 -855 -1338
-7 -65 c-4 -38 -22 -100 -45 -155 -34 -79 -48 -100 -112 -162 l-73 -71 -44
-143 c-24 -79 -45 -148 -48 -154 -2 -6 2 -11 9 -11 7 0 92 -31 188 -68 96 -37
180 -68 186 -68 11 0 354 232 354 239 0 2 -23 106 -51 232 -28 125 -51 236
-52 247 -1 11 387 594 886 1333 488 723 922 1373 963 1445 42 73 96 156 120
186 24 29 44 58 44 63 0 5 -11 55 -25 110 -14 55 -25 101 -23 103 2 1 24 16
51 34 26 18 47 37 47 44 0 16 -128 317 -142 334 -6 7 -22 12 -37 11 -14 0
-116 -5 -226 -10z"/>
</g>
</svg>
