<?xml version="1.0" standalone="no"?>
<!DOCTYPE svg PUBLIC "-//W3C//DTD SVG 20010904//EN"
 "http://www.w3.org/TR/2001/REC-SVG-20010904/DTD/svg10.dtd">
<svg version="1.0" xmlns="http://www.w3.org/2000/svg"
 width="352.000000pt" height="288.000000pt" viewBox="0 0 352.000000 288.000000"
 preserveAspectRatio="xMidYMid meet">
<metadata>
Created by potrace 1.13, written by Peter Selinger 2001-2015
</metadata>
<g transform="translate(0.000000,288.000000) scale(0.100000,-0.100000)"
fill="#000000" stroke="none">
<path d="M1942 2437 c-40 -20 -43 -24 -38 -52 12 -62 26 -536 20 -695 -6 -178
3 -283 35 -395 11 -38 21 -84 21 -100 0 -17 11 -71 25 -120 14 -50 25 -104 25
-121 0 -42 26 -125 42 -135 23 -15 177 -10 245 8 51 14 72 26 99 56 19 21 32
42 29 46 -2 5 -9 64 -15 132 -20 250 -32 337 -66 494 -53 243 -94 358 -155
436 -37 47 -60 102 -94 224 -54 198 -58 207 -90 227 -36 22 -30 22 -83 -5z"/>
</g>
</svg>
