<?xml version="1.0" standalone="no"?>
<!DOCTYPE svg PUBLIC "-//W3C//DTD SVG 20010904//EN"
 "http://www.w3.org/TR/2001/REC-SVG-20010904/DTD/svg10.dtd">
<svg version="1.0" xmlns="http://www.w3.org/2000/svg"
 width="352.000000pt" height="288.000000pt" viewBox="0 0 352.000000 288.000000"
 preserveAspectRatio="xMidYMid meet">
<metadata>
Created by potrace 1.13, written by Peter Selinger 2001-2015
</metadata>
<g transform="translate(0.000000,288.000000) scale(0.100000,-0.100000)"
fill="#000000" stroke="none">
<path d="M1990 2465 c-25 -14 -52 -25 -61 -25 -9 0 -21 -6 -27 -12 -6 -8 -12
-108 -16 -233 -3 -121 -9 -286 -12 -367 -5 -114 -3 -163 9 -220 9 -40 25 -140
37 -223 31 -229 72 -464 92 -532 13 -45 26 -52 78 -43 25 4 76 13 113 19 69
12 183 46 202 62 16 12 -17 385 -50 564 -8 44 -22 127 -30 185 -19 123 -27
151 -70 245 -18 39 -44 111 -59 160 -59 197 -70 231 -87 265 -9 20 -22 62 -28
94 -10 55 -25 87 -40 86 -3 -1 -26 -12 -51 -25z"/>
</g>
</svg>
