<?xml version="1.0" standalone="no"?>
<!DOCTYPE svg PUBLIC "-//W3C//DTD SVG 20010904//EN"
 "http://www.w3.org/TR/2001/REC-SVG-20010904/DTD/svg10.dtd">
<svg version="1.0" xmlns="http://www.w3.org/2000/svg"
 width="352.000000pt" height="288.000000pt" viewBox="0 0 352.000000 288.000000"
 preserveAspectRatio="xMidYMid meet">
<metadata>
Created by potrace 1.13, written by Peter Selinger 2001-2015
</metadata>
<g transform="translate(0.000000,288.000000) scale(0.100000,-0.100000)"
fill="#000000" stroke="none">
<path d="M1383 2198 c-11 -14 -28 -85 -38 -158 -16 -115 -48 -270 -66 -320
-11 -30 -33 -68 -49 -85 -44 -46 -60 -95 -80 -254 -11 -80 -26 -182 -34 -226
-19 -101 -21 -349 -3 -385 18 -36 78 -48 234 -49 157 -1 153 -4 176 129 48
272 50 290 44 495 -4 171 -8 210 -27 265 -19 57 -21 80 -17 185 3 100 9 131
31 184 30 74 36 170 11 194 -8 8 -43 18 -77 22 -35 3 -70 8 -79 11 -9 2 -21
-1 -26 -8z"/>
</g>
</svg>
