<?xml version="1.0" standalone="no"?>
<!DOCTYPE svg PUBLIC "-//W3C//DTD SVG 20010904//EN"
 "http://www.w3.org/TR/2001/REC-SVG-20010904/DTD/svg10.dtd">
<svg version="1.0" xmlns="http://www.w3.org/2000/svg"
 width="352.000000pt" height="288.000000pt" viewBox="0 0 352.000000 288.000000"
 preserveAspectRatio="xMidYMid meet">
<metadata>
Created by potrace 1.13, written by Peter Selinger 2001-2015
</metadata>
<g transform="translate(0.000000,288.000000) scale(0.100000,-0.100000)"
fill="#000000" stroke="none">
<path d="M1978 2476 c-78 -21 -78 -20 -79 -180 -1 -188 -12 -323 -33 -426 -21
-98 -17 -189 14 -339 16 -75 20 -134 20 -293 0 -207 1 -213 52 -360 12 -32 27
-63 34 -69 15 -13 307 32 353 54 25 12 26 14 25 107 0 52 -8 133 -17 180 -35
178 -60 370 -67 510 -6 141 -8 148 -49 245 -23 55 -51 123 -61 150 -10 28 -36
92 -59 143 -31 70 -41 106 -41 145 0 60 -15 120 -33 135 -8 6 -28 6 -59 -2z"/>
</g>
</svg>
