<?xml version="1.0" standalone="no"?>
<!DOCTYPE svg PUBLIC "-//W3C//DTD SVG 20010904//EN"
 "http://www.w3.org/TR/2001/REC-SVG-20010904/DTD/svg10.dtd">
<svg version="1.0" xmlns="http://www.w3.org/2000/svg"
 width="352.000000pt" height="288.000000pt" viewBox="0 0 352.000000 288.000000"
 preserveAspectRatio="xMidYMid meet">
<metadata>
Created by potrace 1.13, written by Peter Selinger 2001-2015
</metadata>
<g transform="translate(0.000000,288.000000) scale(0.100000,-0.100000)"
fill="#000000" stroke="none">
<path d="M1087 1081 c-78 -6 -81 -8 -109 -56 -7 -11 -15 -69 -19 -128 -7 -101
-9 -110 -41 -153 -78 -106 -92 -120 -136 -145 l-47 -26 1 -54 c1 -61 29 -167
49 -188 12 -12 23 -12 75 -1 84 18 376 9 393 -12 20 -23 108 -93 161 -127 63
-40 78 -39 332 4 180 31 225 35 377 35 l173 0 46 -29 c26 -17 72 -50 102 -75
30 -24 63 -47 73 -50 46 -15 301 55 349 95 14 12 8 44 -12 60 -9 7 -14 31 -14
61 0 46 4 54 42 92 41 40 108 153 108 182 0 8 11 20 25 26 31 14 33 50 6 116
-11 26 -22 61 -26 77 -15 70 -25 75 -140 75 -104 0 -257 19 -325 41 -19 6 -48
21 -65 34 -71 53 -82 55 -277 55 -182 0 -202 -3 -351 -44 -35 -10 -97 -16
-158 -16 l-100 0 -57 54 c-107 101 -119 106 -246 104 -61 -1 -146 -4 -189 -7z"/>
</g>
</svg>
