<?xml version="1.0" standalone="no"?>
<!DOCTYPE svg PUBLIC "-//W3C//DTD SVG 20010904//EN"
 "http://www.w3.org/TR/2001/REC-SVG-20010904/DTD/svg10.dtd">
<svg version="1.0" xmlns="http://www.w3.org/2000/svg"
 width="352.000000pt" height="288.000000pt" viewBox="0 0 352.000000 288.000000"
 preserveAspectRatio="xMidYMid meet">
<metadata>
Created by potrace 1.13, written by Peter Selinger 2001-2015
</metadata>
<g transform="translate(0.000000,288.000000) scale(0.100000,-0.100000)"
fill="#000000" stroke="none">
<path d="M1435 2349 c-22 -4 -66 -8 -97 -8 -77 -1 -88 -17 -88 -133 l0 -87
-41 -33 c-23 -18 -64 -53 -90 -77 l-49 -44 0 -66 c0 -39 5 -72 12 -79 9 -9 69
-12 209 -12 l196 0 49 -52 c26 -29 57 -58 69 -65 29 -17 240 -16 350 2 54 9
158 15 263 15 167 0 174 -1 212 -25 22 -14 46 -35 54 -48 9 -12 40 -37 71 -56
l55 -33 154 4 c202 5 210 9 203 111 -3 40 -9 89 -12 109 -7 36 -5 39 58 100
36 35 75 71 86 81 27 22 21 75 -16 162 -39 91 -38 90 -69 87 -94 -9 -249 -13
-278 -8 -19 4 -60 25 -93 47 -57 39 -59 40 -123 35 -36 -4 -96 -13 -135 -21
-101 -22 -479 -21 -589 1 -87 18 -193 60 -215 87 -15 19 -75 21 -146 6z"/>
</g>
</svg>
