<?xml version="1.0" standalone="no"?>
<!DOCTYPE svg PUBLIC "-//W3C//DTD SVG 20010904//EN"
 "http://www.w3.org/TR/2001/REC-SVG-20010904/DTD/svg10.dtd">
<svg version="1.0" xmlns="http://www.w3.org/2000/svg"
 width="352.000000pt" height="288.000000pt" viewBox="0 0 352.000000 288.000000"
 preserveAspectRatio="xMidYMid meet">
<metadata>
Created by potrace 1.13, written by Peter Selinger 2001-2015
</metadata>
<g transform="translate(0.000000,288.000000) scale(0.100000,-0.100000)"
fill="#000000" stroke="none">
<path d="M1115 1048 c-55 -5 -106 -14 -113 -21 -11 -8 -13 -38 -11 -132 l4
-120 -74 -75 c-40 -41 -87 -93 -102 -114 -16 -22 -43 -48 -60 -58 -35 -22 -35
-19 1 -158 27 -105 37 -117 81 -101 18 6 98 11 188 11 170 0 148 5 283 -69 24
-13 69 -46 101 -73 l58 -51 122 23 c67 12 136 26 152 30 213 60 320 79 451 80
l112 0 106 -70 c149 -99 138 -96 242 -71 129 31 207 53 220 63 8 6 4 32 -12
89 -14 47 -24 108 -24 144 l0 63 88 92 c119 126 120 127 90 172 -14 20 -32 61
-42 91 -10 30 -24 58 -32 61 -8 3 -63 1 -122 -5 -162 -17 -195 -8 -333 81 -38
24 -82 43 -117 50 -31 5 -79 15 -107 21 -39 9 -63 8 -110 -4 -33 -8 -96 -18
-140 -21 -82 -7 -197 -23 -388 -57 -126 -22 -128 -21 -217 59 -97 86 -103 88
-295 70z"/>
</g>
</svg>
