<?xml version="1.0" standalone="no"?>
<!DOCTYPE svg PUBLIC "-//W3C//DTD SVG 20010904//EN"
 "http://www.w3.org/TR/2001/REC-SVG-20010904/DTD/svg10.dtd">
<svg version="1.0" xmlns="http://www.w3.org/2000/svg"
 width="352.000000pt" height="288.000000pt" viewBox="0 0 352.000000 288.000000"
 preserveAspectRatio="xMidYMid meet">
<metadata>
Created by potrace 1.13, written by Peter Selinger 2001-2015
</metadata>
<g transform="translate(0.000000,288.000000) scale(0.100000,-0.100000)"
fill="#000000" stroke="none">
<path d="M1197 2335 c-23 -22 -21 -78 3 -144 25 -63 19 -76 -56 -138 -26 -21
-52 -44 -58 -51 -6 -8 -29 -31 -51 -53 l-40 -39 36 -67 c20 -38 39 -80 43 -94
8 -37 25 -41 98 -18 34 11 84 26 109 34 26 8 55 15 66 15 24 0 128 -41 203
-79 30 -16 66 -32 80 -36 14 -4 33 -14 42 -23 16 -13 34 -14 143 -4 68 7 144
16 167 21 24 6 68 15 98 20 30 6 92 18 138 27 l83 16 40 -28 c23 -16 56 -38
74 -49 18 -11 61 -39 95 -63 62 -42 63 -42 129 -36 36 3 95 15 130 25 35 10
83 19 106 19 54 0 65 16 32 44 -20 16 -30 38 -41 91 l-14 70 32 40 c39 48 86
127 86 144 0 7 11 26 25 43 31 36 31 64 3 123 -25 51 -43 60 -84 45 -16 -7
-47 -15 -69 -20 -22 -4 -65 -18 -95 -29 -68 -26 -82 -26 -105 -1 -10 11 -46
34 -79 50 -34 17 -81 42 -105 55 -46 26 -94 31 -145 16 -135 -42 -209 -51
-397 -51 -228 0 -270 8 -292 55 -10 21 -33 43 -59 57 -38 20 -60 23 -199 26
-135 3 -158 1 -172 -13z"/>
</g>
</svg>
