<?xml version="1.0" standalone="no"?>
<!DOCTYPE svg PUBLIC "-//W3C//DTD SVG 20010904//EN"
 "http://www.w3.org/TR/2001/REC-SVG-20010904/DTD/svg10.dtd">
<svg version="1.0" xmlns="http://www.w3.org/2000/svg"
 width="352.000000pt" height="288.000000pt" viewBox="0 0 352.000000 288.000000"
 preserveAspectRatio="xMidYMid meet">
<metadata>
Created by potrace 1.13, written by Peter Selinger 2001-2015
</metadata>
<g transform="translate(0.000000,288.000000) scale(0.100000,-0.100000)"
fill="#000000" stroke="none">
<path d="M1260 2329 c-68 -16 -130 -35 -137 -42 -10 -10 -9 -24 2 -72 25 -106
23 -116 -45 -176 -33 -30 -76 -74 -95 -98 -34 -42 -35 -48 -35 -126 0 -61 4
-86 15 -95 19 -16 130 -6 237 21 99 25 101 25 140 -12 51 -47 94 -64 209 -84
150 -25 348 -17 479 18 196 53 266 49 356 -18 92 -70 143 -85 314 -92 147 -6
190 1 190 30 0 7 -18 41 -40 77 -22 36 -40 77 -40 93 0 34 41 101 76 123 31
21 84 110 84 143 0 39 -48 111 -84 126 -57 24 -127 28 -176 11 -59 -21 -143
-21 -160 -1 -7 9 -59 39 -114 67 l-101 50 -95 -5 c-59 -3 -141 -18 -215 -37
-87 -23 -152 -33 -238 -37 -138 -7 -185 4 -212 49 -25 42 -131 118 -164 117
-14 -1 -82 -14 -151 -30z"/>
</g>
</svg>
