<?xml version="1.0" standalone="no"?>
<!DOCTYPE svg PUBLIC "-//W3C//DTD SVG 20010904//EN"
 "http://www.w3.org/TR/2001/REC-SVG-20010904/DTD/svg10.dtd">
<svg version="1.0" xmlns="http://www.w3.org/2000/svg"
 width="500.000000pt" height="459.000000pt" viewBox="0 0 500.000000 459.000000"
 preserveAspectRatio="xMidYMid meet">
<metadata>
Created by potrace 1.13, written by Peter Selinger 2001-2015
</metadata>
<g transform="translate(0.000000,459.000000) scale(0.100000,-0.100000)"
fill="#000000" stroke="none">
<path d="M232 4561 c-64 -22 -87 -42 -117 -101 -37 -74 -51 -178 -36 -269 17
-98 39 -188 56 -226 12 -26 22 -247 15 -347 -2 -37 -3 -185 -1 -223 0 -16 -2
-64 -5 -105 -3 -53 0 -91 11 -130 9 -30 21 -77 27 -105 26 -133 50 -210 77
-248 43 -62 81 -101 129 -132 47 -31 46 -37 -9 -54 -35 -11 -63 -30 -102 -68
-9 -9 -38 -58 -62 -108 -25 -49 -59 -103 -76 -120 -54 -51 -73 -107 -65 -191
6 -69 5 -75 -30 -144 -43 -85 -42 -126 1 -192 l27 -41 -17 -56 c-23 -70 -24
-133 -5 -153 24 -23 56 -38 84 -38 39 0 76 -21 78 -44 1 -12 0 -41 -1 -66 -3
-61 27 -94 100 -114 30 -8 61 -17 70 -21 20 -7 39 -47 39 -80 0 -61 51 -105
122 -105 31 0 37 -5 53 -41 26 -56 61 -79 125 -79 28 0 61 5 72 11 11 6 59 12
107 13 51 2 97 8 113 17 28 15 137 137 178 200 3 4 17 10 32 14 17 4 30 17 37
35 5 16 19 33 30 40 12 6 34 23 50 38 17 15 36 32 43 38 28 24 48 55 48 73 0
23 25 51 46 51 8 0 14 9 14 19 0 11 5 23 12 27 8 5 9 0 4 -17 -4 -13 -10 -60
-13 -103 l-6 -79 64 5 c47 4 78 14 117 37 44 26 51 28 42 11 -6 -11 -15 -20
-20 -20 -6 0 -10 -9 -10 -20 0 -21 -7 -32 -47 -76 -13 -14 -23 -29 -23 -34 0
-6 -4 -10 -10 -10 -5 0 -10 -9 -10 -20 0 -11 -4 -20 -10 -20 -5 0 -10 -9 -10
-20 0 -11 -6 -20 -14 -20 -8 0 -17 -14 -21 -30 -4 -17 -11 -30 -16 -30 -5 0
-9 -14 -9 -31 0 -34 -12 -61 -47 -103 -13 -16 -38 -56 -56 -90 -28 -55 -31
-70 -31 -151 0 -103 7 -147 37 -225 28 -72 30 -75 91 -104 51 -24 116 -78 116
-95 0 -5 13 -19 29 -30 22 -16 44 -21 94 -21 58 0 67 -3 96 -30 17 -17 31 -35
31 -40 0 -5 18 -22 41 -37 39 -26 43 -26 97 -15 76 16 95 9 120 -44 15 -30 28
-44 42 -44 11 0 20 -4 20 -10 0 -5 18 -10 40 -10 31 0 47 7 70 29 45 43 82 56
121 42 18 -6 52 -11 77 -11 42 0 48 4 111 69 53 55 74 70 106 75 67 11 108 35
148 86 20 26 37 51 37 55 0 4 21 28 46 53 75 73 120 152 135 232 7 39 14 70
15 70 2 0 30 -17 63 -38 94 -61 162 -76 312 -68 141 7 249 27 312 56 23 11 72
24 109 30 37 6 80 15 95 21 39 15 154 44 238 59 39 7 75 16 80 20 20 15 117
30 194 30 42 0 97 6 122 14 24 8 75 23 112 35 38 12 87 31 109 42 46 23 136
112 149 147 27 70 -35 299 -112 412 -39 58 -117 150 -178 211 -52 51 -176 156
-203 170 -12 7 -28 17 -35 23 -55 49 -188 142 -276 194 -419 248 -1122 437
-1549 418 -117 -5 -128 -4 -128 12 1 25 32 58 63 66 37 9 60 48 55 91 -4 32
-2 35 22 35 14 0 66 12 115 26 50 14 108 30 130 34 22 4 66 15 99 24 183 50
328 42 468 -25 91 -44 108 -47 108 -19 0 34 -43 67 -116 90 -84 26 -281 38
-364 21 -117 -24 -190 -40 -310 -70 -183 -46 -168 -45 -162 -16 2 15 0 25 -7
25 -6 0 -16 11 -23 24 -7 17 -20 26 -42 28 l-31 3 -11 100 c-16 141 -70 424
-100 525 -51 169 -141 290 -215 290 -24 0 -29 -4 -29 -25 0 -18 9 -29 33 -41
48 -25 83 -69 132 -169 40 -84 62 -163 93 -335 6 -30 15 -82 22 -115 6 -33 17
-103 24 -156 l13 -97 -40 -5 c-50 -7 -57 -15 -68 -73 -5 -26 -14 -53 -20 -60
-14 -17 -58 -18 -64 -1 -2 6 -16 53 -30 102 -15 50 -35 109 -46 132 -10 24
-19 45 -19 49 0 17 -110 240 -153 309 -90 147 -371 543 -407 575 -3 3 -32 36
-65 74 -201 233 -464 442 -659 522 -25 10 -46 25 -46 32 0 6 -9 12 -19 12 -10
0 -72 18 -137 39 -66 22 -148 45 -184 50 -99 16 -227 12 -288 -8z m223 -310
c21 -1 33 -8 41 -26 7 -13 9 -26 6 -30 -11 -10 -130 -5 -154 8 -19 10 -23 17
-18 33 7 16 16 20 51 18 24 -1 58 -3 74 -3z m716 -180 c19 -20 29 -40 29 -60
0 -29 -2 -31 -36 -31 -38 0 -124 52 -124 76 0 23 31 44 66 44 26 0 44 -8 65
-29z m-259 -91 c40 -11 108 -66 108 -88 0 -11 -66 -42 -91 -42 -27 0 -169 43
-169 51 0 3 11 4 25 1 21 -4 25 -1 25 21 0 14 -5 27 -12 29 -6 2 -8 10 -4 17
10 16 47 31 63 26 6 -2 31 -9 55 -15z m-168 -156 c41 -1 72 -7 76 -14 5 -8 18
-10 33 -6 26 6 84 -19 116 -49 21 -21 5 -62 -32 -82 -53 -29 -249 -19 -317 16
-29 15 -16 36 23 39 33 3 37 6 37 32 0 22 -6 30 -30 39 -16 5 -30 14 -30 20 0
13 22 21 40 13 8 -3 46 -7 84 -8z m-57 -206 c108 -12 106 -11 113 -75 1 -4
-36 -18 -82 -30 -46 -12 -105 -28 -133 -35 -27 -8 -78 -12 -112 -10 -54 3 -61
6 -49 18 8 8 22 14 30 14 12 0 16 10 16 36 0 27 7 43 31 65 35 33 44 34 186
17z m767 -17 c3 -5 -8 -11 -24 -13 -24 -4 -27 -2 -19 9 13 15 35 17 43 4z
m206 -61 c6 -39 1 -43 -42 -36 -52 8 -108 27 -108 37 0 9 38 19 72 19 15 0 33
6 40 14 11 11 15 11 25 -3 6 -9 12 -23 13 -31z m-1337 -215 c-7 -21 -13 -19
-13 6 0 11 4 18 10 14 5 -3 7 -12 3 -20z m1042 -232 c11 -6 35 -28 54 -48 l33
-37 -18 -37 -18 -38 -341 -6 c-187 -4 -369 -10 -404 -13 l-64 -7 15 22 c24 33
97 86 168 122 61 30 76 33 260 48 196 16 278 14 315 -6z m58 -219 c48 -3 87
-10 87 -15 0 -5 7 -9 15 -9 8 0 17 -12 21 -27 16 -73 24 -85 62 -97 16 -5 22
-15 22 -36 0 -44 10 -60 36 -60 14 0 27 -7 30 -15 4 -8 17 -15 29 -15 24 0 42
-16 31 -27 -3 -3 -34 1 -68 10 -64 15 -156 31 -418 68 -153 22 -220 30 -445
48 -180 16 -232 32 -251 77 -8 19 -12 45 -8 58 5 22 11 23 122 30 64 4 134 9
155 13 33 5 37 3 37 -16 0 -14 6 -21 20 -21 13 0 20 7 20 20 0 18 8 20 143 22
149 4 216 2 360 -8z m-418 -238 c66 -8 149 -19 185 -25 36 -5 103 -15 150 -21
141 -18 211 -30 300 -51 47 -11 95 -22 108 -25 21 -4 22 -6 7 -34 -9 -17 -22
-30 -30 -30 -25 0 -65 -23 -65 -37 0 -7 -4 -13 -10 -13 -5 0 -10 -6 -10 -14 0
-8 -6 -16 -13 -19 -10 -4 -13 2 -10 17 4 21 -4 26 -99 58 -56 20 -130 43 -163
53 -33 10 -78 23 -100 30 -71 22 -228 52 -425 81 -25 3 -65 15 -90 25 l-45 18
95 0 c52 1 149 -6 215 -13z m-110 -136 c21 -6 -2 -8 -75 -9 -88 0 -102 2 -88
13 18 13 106 11 163 -4z m80 -8 c-3 -3 -11 0 -18 7 -9 10 -8 11 6 5 10 -3 15
-9 12 -12z m-535 -2 c0 -5 -7 -10 -16 -10 -8 0 -12 5 -9 10 3 6 10 10 16 10 5
0 9 -4 9 -10z m610 -51 c101 -12 187 -33 254 -62 l49 -21 -87 -23 c-48 -12
-115 -34 -149 -47 -54 -21 -84 -25 -243 -30 -100 -3 -189 -8 -197 -12 -23 -8
-39 27 -22 50 19 26 71 35 233 43 129 5 142 8 142 25 0 17 -12 18 -176 18
-161 0 -175 1 -163 16 24 29 79 41 254 53 11 0 59 -4 105 -10z m700 -39 c0 -5
-12 -10 -27 -9 -25 0 -26 1 -8 9 27 12 35 12 35 0z m-181 -86 c17 -4 31 -13
31 -20 0 -19 49 -18 56 1 4 9 15 13 28 11 11 -3 39 -8 61 -12 l40 -7 -32 -9
c-24 -6 -33 -14 -33 -29 0 -15 6 -20 23 -17 40 5 26 -17 -19 -30 -34 -10 -44
-17 -44 -34 0 -22 -1 -22 86 -3 l29 6 -30 -15 c-16 -8 -61 -29 -100 -46 -38
-18 -91 -42 -117 -55 -26 -13 -82 -29 -125 -35 -43 -6 -100 -15 -126 -19 -36
-6 -69 -3 -125 11 -42 10 -87 16 -99 13 -20 -5 -150 -81 -163 -95 -3 -3 -41
-30 -85 -59 -44 -30 -81 -58 -83 -62 -2 -5 -12 -9 -23 -9 -10 0 -19 -4 -19 -9
0 -11 -49 -21 -55 -10 -7 10 30 38 138 106 59 38 87 61 87 74 0 20 -29 26 -46
10 -21 -21 -207 -121 -225 -121 -25 0 -24 19 4 52 24 29 111 69 268 124 101
35 139 42 139 24 0 -5 9 -10 20 -10 22 0 29 35 8 43 -10 3 -7 15 8 43 12 22
24 51 27 66 11 42 158 98 307 117 84 11 150 13 189 5z m-1259 -73 c0 -12 -20
-25 -27 -18 -7 7 6 27 18 27 5 0 9 -4 9 -9z m720 -41 c0 -13 -7 -20 -19 -20
-15 0 -21 -8 -23 -32 -3 -30 -6 -32 -83 -53 -44 -13 -128 -39 -187 -59 -59
-20 -120 -36 -135 -36 l-28 1 32 29 c34 31 200 90 253 90 23 0 30 4 30 20 0
17 -7 20 -42 20 -24 -1 -70 -8 -103 -16 -33 -9 -71 -18 -85 -21 -14 -3 -31
-10 -38 -16 -18 -14 -25 -2 -13 22 7 11 24 24 39 28 15 3 32 11 38 18 6 6 60
17 120 24 60 7 114 14 119 16 6 2 36 4 68 4 51 1 57 -1 57 -19z m2544 -35 c-3
-8 2 -35 11 -60 10 -25 15 -48 12 -51 -10 -10 -48 21 -53 44 -4 12 -10 22 -15
22 -14 0 -11 48 4 53 26 11 46 7 41 -8z m-1739 -55 c3 -6 -17 -32 -46 -58
-137 -124 -382 -383 -505 -532 -57 -69 -87 -100 -93 -94 -3 3 -1 8 5 12 5 4
35 40 66 80 72 92 151 181 256 288 45 46 82 91 82 99 0 36 -41 6 -171 -125
-76 -77 -141 -140 -144 -140 -11 0 -74 -73 -81 -92 -3 -10 -10 -18 -15 -18 -5
0 -9 -9 -9 -20 0 -11 -7 -23 -15 -26 -8 -4 -15 -15 -15 -25 0 -10 -7 -19 -15
-19 -8 0 -15 -4 -15 -9 0 -6 -11 -22 -24 -36 -14 -15 -27 -32 -29 -38 -2 -7
-8 -9 -12 -5 -5 5 48 92 118 195 126 188 139 206 232 316 28 32 54 66 59 76
10 19 52 43 191 110 162 78 168 80 180 61z m-669 -146 c66 -22 81 -24 122 -15
26 6 70 13 97 17 l50 6 -40 -43 c-22 -24 -42 -46 -45 -49 -3 -3 -23 -27 -45
-55 -21 -27 -42 -52 -45 -55 -3 -3 -14 -18 -24 -35 -11 -16 -23 -34 -28 -40
-4 -5 -36 -52 -70 -104 -34 -51 -68 -95 -75 -98 -7 -3 -13 -10 -13 -17 0 -6
-10 -18 -21 -26 -12 -8 -27 -21 -35 -27 -7 -7 -20 -13 -29 -13 -12 0 -15 5 -9
23 12 39 152 222 233 304 28 29 51 57 51 63 0 5 5 10 10 10 6 0 10 9 10 20 0
13 -7 20 -20 20 -11 0 -20 -4 -20 -10 0 -5 -42 -51 -93 -102 -51 -51 -113
-117 -137 -147 -72 -85 -84 -98 -102 -104 -30 -10 -31 13 -3 41 15 15 32 39
37 55 6 15 16 27 24 27 8 0 14 7 14 15 0 18 26 48 132 160 77 79 95 115 60
115 -23 0 -189 -163 -326 -319 -25 -30 -30 -32 -43 -18 -14 13 -12 20 18 62
53 74 134 159 189 196 50 34 66 69 32 69 -17 0 -96 -50 -150 -95 -55 -46 -69
-58 -99 -86 -37 -33 -43 -35 -43 -14 0 21 88 107 170 165 46 33 185 128 188
129 2 1 37 -11 78 -25z m1542 -20 c24 -24 41 -34 54 -31 23 7 55 -22 64 -58 6
-25 8 -26 65 -19 58 6 60 6 89 -27 16 -19 30 -42 30 -51 0 -9 7 -23 15 -32 8
-8 15 -22 15 -30 0 -9 6 -33 14 -53 7 -21 25 -83 39 -138 15 -55 43 -158 63
-230 20 -71 45 -166 56 -210 11 -44 27 -102 34 -128 13 -47 13 -49 -11 -73
-14 -14 -25 -20 -25 -14 0 5 -11 10 -25 10 -22 0 -31 12 -74 103 -55 116 -121
270 -121 282 0 4 -16 44 -36 88 -24 53 -33 82 -25 85 6 2 11 12 11 23 0 13 -7
19 -24 19 -20 0 -35 24 -115 181 -51 100 -106 203 -122 231 -16 27 -29 53 -29
58 0 6 -4 10 -8 10 -5 0 -14 12 -21 26 -12 26 -11 27 20 20 18 -3 48 -22 67
-42z m-2484 27 c7 -10 -22 -37 -30 -28 -9 8 3 37 15 37 5 0 12 -4 15 -9z
m2336 -6 c0 -8 9 -24 19 -34 11 -11 25 -38 31 -60 6 -23 15 -41 20 -41 10 0
40 -57 40 -77 0 -7 3 -13 8 -13 8 0 21 -22 85 -140 108 -199 164 -321 159
-345 -3 -18 0 -25 11 -25 8 0 18 -11 21 -24 3 -14 22 -59 41 -101 20 -42 42
-93 49 -113 7 -20 17 -46 21 -57 l8 -20 -20 20 c-30 31 -95 132 -142 219 -42
79 -101 221 -101 243 0 6 -3 13 -7 15 -5 2 -30 47 -57 101 -28 53 -56 97 -63
97 -7 0 -13 8 -13 18 0 17 -31 58 -123 166 -32 38 -33 39 -24 100 5 33 11 67
13 74 5 17 24 15 24 -3z m-80 -47 c0 -19 -2 -20 -10 -8 -13 19 -13 30 0 30 6
0 10 -10 10 -22z m-295 -60 c-22 -223 -41 -309 -79 -368 -13 -19 -43 -66 -68
-105 -108 -169 -123 -193 -156 -239 -33 -45 -36 -47 -44 -27 -5 16 -3 27 7 37
8 9 15 22 15 30 0 8 4 14 8 14 5 0 22 28 38 63 16 34 32 64 35 67 11 10 89
187 89 203 0 10 5 17 10 17 6 0 10 9 10 20 0 13 -7 20 -20 20 -11 0 -20 7 -20
15 0 8 4 15 8 15 14 0 55 88 49 104 -4 10 -1 16 7 16 8 0 22 20 33 45 10 25
21 45 24 45 4 0 13 15 20 33 12 29 29 56 37 57 2 0 0 -28 -3 -62z m209 -40
c73 -158 86 -191 95 -243 15 -77 25 -320 15 -336 -5 -9 -30 -34 -55 -57 l-46
-42 -39 16 c-21 9 -44 24 -52 35 -7 10 -18 24 -25 31 -50 53 -66 88 -85 188
-14 75 -17 112 -10 135 5 16 16 88 24 160 7 71 18 131 24 133 5 2 10 17 10 33
0 47 18 33 24 -18 3 -27 10 -88 15 -138 6 -49 12 -170 13 -267 3 -158 5 -178
20 -178 11 0 18 12 23 40 7 39 1 244 -11 393 -6 74 -6 77 15 77 25 0 26 11 6
76 -17 57 -17 54 -10 54 4 0 25 -42 49 -92z m1847 53 c36 -22 64 -70 50 -84
-18 -18 -93 -8 -128 16 -55 37 -39 73 39 86 4 0 22 -8 39 -18z m-1081 -99 c0
-4 23 -15 50 -25 52 -19 68 -40 85 -116 6 -27 4 -31 -14 -31 -14 0 -21 -6 -21
-20 0 -26 40 -28 41 -2 1 35 47 -151 50 -203 2 -55 1 -56 -36 -49 -30 5 -35 4
-35 -14 0 -11 8 -22 20 -25 12 -3 20 -14 20 -26 0 -23 34 -30 44 -8 4 6 4 -33
2 -89 -5 -102 -38 -218 -61 -211 -5 2 -19 42 -31 88 -12 47 -38 137 -58 200
-19 63 -45 150 -56 193 -12 44 -23 83 -26 87 -8 14 -54 204 -54 225 0 12 6 25
13 27 19 8 67 8 67 -1z m-1550 -22 c0 -5 -4 -10 -10 -10 -5 0 -10 5 -10 10 0
6 5 10 10 10 6 0 10 -4 10 -10z m900 -30 c15 -15 17 -25 10 -42 -5 -13 -9 -20
-9 -17 -1 4 -8 23 -16 43 -17 41 -14 45 15 16z m1675 -71 c33 -40 75 -122 75
-148 0 -13 -8 -21 -22 -23 -19 -2 -23 -9 -22 -35 2 -43 -12 -42 -39 5 -12 20
-40 64 -62 98 -35 52 -40 64 -31 85 24 56 63 63 101 18z m-2705 -3 c0 -3 -4
-8 -10 -11 -5 -3 -10 -1 -10 4 0 6 5 11 10 11 6 0 10 -2 10 -4z m1090 -11 c0
-8 5 -15 10 -15 6 0 10 -6 10 -13 0 -7 9 -18 20 -25 14 -9 20 -23 20 -51 0
-30 5 -41 19 -46 12 -3 23 -22 30 -50 6 -25 16 -45 21 -45 6 0 10 -7 10 -15 0
-8 6 -15 14 -15 9 0 12 -8 8 -25 -3 -20 0 -25 17 -25 17 0 21 -6 21 -35 0 -19
4 -35 10 -35 5 0 14 -9 20 -20 9 -16 8 -20 -5 -20 -8 0 -23 17 -33 38 -9 20
-19 39 -22 42 -3 3 -16 29 -29 58 -14 28 -27 52 -31 52 -3 0 -14 18 -24 40
-10 22 -23 46 -30 53 -6 6 -21 28 -33 47 -12 20 -33 49 -47 65 -33 38 -33 55
-1 55 16 0 25 -6 25 -15z m-2250 -55 c0 -5 -5 -10 -11 -10 -5 0 -7 5 -4 10 3
6 8 10 11 10 2 0 4 -4 4 -10z m1687 -22 c-3 -8 -6 -5 -6 6 -1 11 2 17 5 13 3
-3 4 -12 1 -19z m2052 -30 c12 -18 46 -71 76 -118 34 -52 55 -95 55 -113 l0
-29 -27 34 c-34 41 -43 48 -65 48 -21 0 -24 -39 -7 -72 11 -20 5 -68 -9 -68
-9 0 -52 68 -92 148 -31 61 -49 154 -37 186 4 11 19 16 46 16 33 0 42 -5 60
-32z m-2079 -18 c0 -5 -2 -10 -4 -10 -3 0 -8 5 -11 10 -3 6 -1 10 4 10 6 0 11
-4 11 -10z m601 -40 c3 -3 17 -25 29 -50 12 -25 26 -47 30 -50 4 -3 18 -25 30
-50 12 -25 26 -47 30 -50 4 -3 9 -14 12 -25 3 -11 9 -28 13 -37 5 -13 2 -18
-9 -18 -9 0 -16 -8 -16 -19 0 -14 8 -21 27 -23 20 -2 29 -12 41 -43 26 -73 40
-166 30 -201 -12 -44 -26 -51 -34 -17 -42 194 -76 283 -106 283 -24 0 -23 -7
17 -120 15 -41 30 -108 35 -149 7 -65 6 -76 -11 -94 -18 -20 -18 -20 -27 4 -5
13 -12 48 -16 77 -11 85 -46 213 -75 277 -25 54 -28 75 -34 209 -6 142 -6 149
10 125 9 -13 20 -26 24 -29z m-431 -27 c0 -3 7 -42 16 -86 10 -48 13 -82 7
-86 -12 -7 -103 -169 -103 -182 0 -5 -4 -9 -10 -9 -5 0 -10 -5 -10 -12 0 -26
-154 -267 -178 -278 -13 -6 -27 -9 -29 -6 -6 6 33 74 109 190 32 48 58 94 58
102 0 8 5 14 10 14 6 0 10 7 10 15 0 8 4 15 9 15 5 0 15 16 21 35 6 19 16 35
21 35 5 0 9 7 9 15 0 8 4 15 8 15 10 0 42 65 42 85 0 32 -37 15 -55 -25 -10
-22 -22 -40 -27 -40 -4 0 -8 -7 -8 -15 0 -8 -4 -15 -8 -15 -5 0 -15 -18 -22
-40 -7 -22 -17 -40 -22 -40 -4 0 -8 -6 -8 -14 0 -8 -3 -16 -7 -18 -5 -1 -22
-24 -40 -49 -17 -26 -54 -81 -83 -123 -49 -71 -80 -95 -80 -61 0 8 5 15 10 15
6 0 18 16 27 35 9 19 20 35 25 35 4 0 8 9 8 19 0 11 4 21 9 23 14 5 91 125 91
143 0 8 5 15 10 15 6 0 10 7 10 15 0 7 6 18 13 22 7 4 25 34 41 66 15 31 32
57 37 57 5 0 9 6 9 14 0 7 7 19 15 26 8 7 15 21 15 31 0 11 4 19 9 19 5 0 12
11 15 25 6 22 26 36 26 18z m-970 -48 c-7 -9 -15 -13 -19 -10 -3 3 1 10 9 15
21 14 24 12 10 -5z m2789 -119 c21 -44 41 -103 45 -129 6 -42 5 -51 -13 -66
-48 -42 -81 -94 -81 -128 0 -40 -13 -36 -37 10 -10 20 -21 84 -29 177 -19 217
-21 206 24 217 20 6 41 8 45 5 5 -2 26 -41 46 -86z m-2059 74 c0 -5 -4 -10
-10 -10 -5 0 -10 5 -10 10 0 6 5 10 10 10 6 0 10 -4 10 -10z m-30 -44 c0 -3
-4 -8 -10 -11 -5 -3 -10 -1 -10 4 0 6 5 11 10 11 6 0 10 -2 10 -4z m2749 -64
c21 -40 40 -107 32 -115 -5 -5 -19 -7 -31 -5 -18 2 -26 14 -35 48 -7 25 -16
55 -20 68 -6 19 -4 22 18 22 15 0 30 -8 36 -18z m-2381 -59 c36 -47 38 -36
-24 -170 -19 -40 -34 -75 -34 -78 0 -22 -114 -235 -126 -235 -27 0 -26 3 82
242 48 107 53 128 27 128 -13 -1 -37 -39 -83 -131 -73 -147 -116 -219 -129
-219 -19 0 -19 30 1 66 12 22 35 66 52 99 17 33 44 79 59 102 15 24 27 49 27
58 0 8 4 15 8 15 4 0 27 41 51 91 24 50 47 87 50 82 4 -4 22 -27 39 -50z m287
-25 c4 -13 13 -37 21 -54 45 -101 67 -289 40 -342 -9 -18 -20 -32 -25 -32 -10
0 -26 83 -43 227 -10 89 -14 103 -30 103 -22 0 -21 1 -7 -199 9 -136 8 -153
-7 -176 -23 -36 -70 -32 -67 5 1 14 5 111 8 215 l6 190 42 43 c22 23 44 42 48
42 4 0 11 -10 14 -22z m305 -49 c13 -43 -5 -44 -22 -1 -16 41 -13 78 4 48 5
-10 14 -31 18 -47z m-503 -10 c4 -15 12 -20 29 -16 23 4 23 4 18 -77 -16 -262
-24 -318 -47 -347 -12 -15 -32 -28 -44 -28 -26 -1 -27 1 -12 49 5 19 16 64 24
100 8 36 17 77 21 93 5 22 3 27 -14 27 -20 0 -29 -16 -53 -95 -37 -123 -60
-160 -91 -144 -10 5 -18 15 -18 22 0 7 31 89 68 183 38 93 74 188 82 212 14
46 29 54 37 21z m-517 -31 c0 -18 -2 -20 -9 -8 -6 8 -7 18 -5 22 9 14 14 9 14
-14z m-193 -23 c-4 -8 -14 -15 -23 -15 -16 0 -16 2 1 20 20 22 31 20 22 -5z
m1230 -37 c-3 -8 -6 -5 -6 6 -1 11 2 17 5 13 3 -3 4 -12 1 -19z m-1067 2 c0
-5 -4 -10 -10 -10 -5 0 -10 5 -10 10 0 6 5 10 10 10 6 0 10 -4 10 -10z m2009
-159 c11 -7 5 -13 -24 -25 -45 -19 -45 -19 -45 -3 0 31 40 46 69 28z m-309
-101 c0 -5 -10 -10 -22 -10 -19 0 -20 2 -8 10 19 13 30 13 30 0z m-706 -282
c-7 -25 -27 -42 -32 -28 -5 13 17 50 29 50 6 0 7 -9 3 -22z m-1104 2 c0 -5 -2
-10 -4 -10 -3 0 -8 5 -11 10 -3 6 -1 10 4 10 6 0 11 -4 11 -10z m130 -85 c0
-23 -18 -27 -29 -7 -6 11 -8 22 -5 25 10 9 34 -4 34 -18z m110 -51 c0 -8 -5
-12 -10 -9 -6 4 -8 11 -5 16 9 14 15 11 15 -7z m600 -43 c0 -5 -6 -14 -14 -20
-10 -9 -15 -8 -19 3 -3 8 -3 17 0 20 9 9 33 7 33 -3z m-326 -46 c-4 -8 -8 -15
-10 -15 -2 0 -4 7 -4 15 0 8 4 15 10 15 5 0 7 -7 4 -15z"/>
<path d="M1100 3050 c0 -13 7 -20 20 -20 13 0 20 7 20 20 0 13 -7 20 -20 20
-13 0 -20 -7 -20 -20z"/>
<path d="M860 3010 c0 -13 7 -20 20 -20 13 0 20 7 20 20 0 13 -7 20 -20 20
-13 0 -20 -7 -20 -20z"/>
<path d="M1170 3000 c0 -13 7 -20 20 -20 13 0 20 7 20 20 0 13 -7 20 -20 20
-13 0 -20 -7 -20 -20z"/>
<path d="M800 2970 c0 -13 7 -20 20 -20 13 0 20 7 20 20 0 13 -7 20 -20 20
-13 0 -20 -7 -20 -20z"/>
<path d="M940 2810 c0 -16 7 -20 35 -20 28 0 35 -4 35 -20 0 -13 7 -20 20 -20
13 0 20 7 20 20 0 13 -7 20 -20 20 -13 0 -20 7 -20 20 0 16 -7 20 -35 20 -28
0 -35 -4 -35 -20z"/>
<path d="M1490 2229 c-80 -15 -158 -28 -175 -29 -50 -1 -75 -11 -75 -31 0 -11
2 -19 4 -19 22 0 186 26 289 46 70 13 129 24 132 24 3 0 5 9 5 20 0 25 -1 25
-180 -11z"/>
<path d="M910 2150 c0 -13 7 -20 20 -20 13 0 20 7 20 20 0 13 -7 20 -20 20
-13 0 -20 -7 -20 -20z"/>
<path d="M2870 1630 c0 -13 7 -20 20 -20 13 0 20 7 20 20 0 13 -7 20 -20 20
-13 0 -20 -7 -20 -20z"/>
<path d="M2920 1520 c0 -13 7 -20 20 -20 13 0 20 7 20 20 0 13 -7 20 -20 20
-13 0 -20 -7 -20 -20z"/>
<path d="M2980 1350 c0 -13 7 -20 20 -20 13 0 20 7 20 20 0 13 -7 20 -20 20
-13 0 -20 -7 -20 -20z"/>
<path d="M3030 1200 c0 -13 7 -20 20 -20 13 0 20 7 20 20 0 13 -7 20 -20 20
-13 0 -20 -7 -20 -20z"/>
<path d="M2340 1749 c0 -5 4 -29 9 -52 5 -23 15 -81 21 -129 11 -78 14 -88 32
-88 19 0 20 4 14 48 -21 161 -27 198 -32 214 -6 19 -44 25 -44 7z"/>
<path d="M2390 1440 c0 -13 7 -20 20 -20 13 0 20 7 20 20 0 13 -7 20 -20 20
-13 0 -20 -7 -20 -20z"/>
<path d="M2390 1393 c0 -5 8 -38 17 -75 13 -52 22 -68 35 -68 22 0 22 5 2 85
-13 51 -20 65 -35 65 -11 0 -19 -3 -19 -7z"/>
<path d="M3240 1481 c0 -13 10 -20 31 -25 46 -9 49 -8 49 13 0 13 -10 20 -31
25 -46 9 -49 8 -49 -13z"/>
<path d="M3278 1413 c-20 -5 -25 -43 -5 -43 32 0 57 14 57 31 0 19 -14 22 -52
12z"/>
<path d="M3300 1175 c0 -28 4 -35 20 -35 16 0 20 7 20 35 0 28 -4 35 -20 35
-16 0 -20 -7 -20 -35z"/>
<path d="M2470 1090 c0 -13 7 -20 20 -20 13 0 20 7 20 20 0 13 -7 20 -20 20
-13 0 -20 -7 -20 -20z"/>
<path d="M2316 1018 c-10 -38 -7 -48 13 -48 17 0 31 25 31 58 0 22 -37 13 -44
-10z"/>
<path d="M2300 930 c0 -13 7 -20 20 -20 13 0 20 7 20 20 0 13 -7 20 -20 20
-13 0 -20 -7 -20 -20z"/>
</g>
</svg>
