<?xml version="1.0" standalone="no"?>
<!DOCTYPE svg PUBLIC "-//W3C//DTD SVG 20010904//EN"
 "http://www.w3.org/TR/2001/REC-SVG-20010904/DTD/svg10.dtd">
<svg version="1.0" xmlns="http://www.w3.org/2000/svg"
 width="331.000000pt" height="269.000000pt" viewBox="0 0 331.000000 269.000000"
 preserveAspectRatio="xMidYMid meet">
<metadata>
Created by potrace 1.13, written by Peter Selinger 2001-2015
</metadata>
<g transform="translate(0.000000,269.000000) scale(0.100000,-0.100000)"
fill="#000000" stroke="none">
<path d="M2875 2673 c-97 -13 -231 -73 -315 -141 -47 -38 -134 -129 -160 -166
-8 -11 -33 -41 -56 -66 -60 -64 -75 -82 -143 -175 -24 -33 -66 -81 -92 -106
-27 -26 -49 -53 -49 -62 0 -9 -9 -18 -19 -22 -11 -3 -23 -15 -26 -26 -4 -10
-11 -19 -16 -19 -5 0 -9 -9 -9 -20 0 -11 -7 -23 -15 -26 -8 -4 -15 -12 -15
-19 0 -8 -9 -17 -20 -20 -13 -4 -20 -15 -20 -30 0 -13 -6 -30 -13 -37 -8 -7
-17 -27 -22 -43 -7 -24 -9 -26 -13 -10 -2 10 -11 30 -20 43 -14 22 -13 28 21
100 49 105 79 180 88 222 5 19 22 96 40 170 42 182 42 181 30 213 -8 21 -17
27 -41 27 -37 0 -48 -32 -34 -101 8 -35 6 -70 -7 -140 -24 -134 -30 -161 -39
-184 -4 -11 -14 -36 -21 -55 -6 -19 -30 -75 -52 -123 l-40 -88 -13 31 c-13 29
-17 31 -56 28 -39 -3 -43 -6 -53 -40 l-10 -36 -25 19 c-97 77 -240 213 -240
230 0 5 -4 9 -9 9 -5 0 -13 9 -16 20 -3 11 -12 20 -18 20 -16 1 -67 112 -67
147 0 15 -9 43 -20 61 -16 27 -26 33 -48 30 -22 -2 -28 -9 -30 -35 -2 -24 10
-52 55 -122 32 -49 64 -90 71 -90 6 -1 12 -8 12 -16 0 -8 11 -25 25 -39 14
-14 25 -29 25 -33 0 -5 8 -16 18 -24 9 -9 29 -29 43 -45 15 -16 44 -44 65 -62
132 -112 128 -106 128 -161 1 -28 0 -47 -2 -41 -2 5 -12 10 -23 10 -12 0 -19
7 -19 20 0 13 -9 22 -25 26 -14 3 -25 9 -25 14 0 4 -17 12 -37 18 -21 6 -50
23 -65 37 -15 14 -34 25 -41 25 -8 0 -20 7 -27 14 -6 8 -27 20 -47 27 -19 6
-108 46 -197 89 -175 85 -453 184 -575 206 -99 17 -193 17 -278 0 -96 -21
-123 -32 -123 -54 0 -10 -7 -27 -15 -38 -8 -10 -15 -40 -15 -65 0 -28 -6 -51
-14 -58 -9 -8 -14 -28 -13 -55 2 -37 -3 -47 -36 -78 -43 -41 -47 -65 -12 -74
28 -7 85 -67 85 -89 0 -8 10 -20 22 -26 32 -17 42 -38 39 -81 -2 -32 1 -39 22
-47 32 -12 57 -48 57 -82 0 -14 9 -38 21 -53 18 -23 19 -31 10 -58 -19 -55
-15 -65 35 -77 25 -7 56 -23 69 -37 88 -97 132 -128 208 -144 46 -11 57 -16
51 -29 -4 -9 -13 -38 -20 -64 -7 -27 -27 -76 -44 -109 -31 -64 -37 -88 -20
-88 22 0 50 -79 50 -143 0 -62 2 -66 40 -105 30 -30 40 -48 40 -71 0 -21 11
-46 31 -71 26 -32 30 -45 25 -72 -17 -94 -18 -108 -6 -123 16 -20 51 -19 94 1
33 16 36 16 79 -10 38 -21 58 -26 115 -26 l70 0 16 -40 c18 -46 43 -52 95 -23
30 17 32 17 62 0 38 -21 72 -22 89 -2 16 19 27 19 48 -1 13 -13 29 -15 81 -11
107 9 99 -1 121 167 6 41 15 77 20 78 6 2 10 10 10 18 0 8 7 14 15 14 9 0 20
11 25 25 5 14 20 27 35 31 14 3 30 15 36 25 5 11 16 19 24 19 8 0 15 7 15 16
0 9 13 21 30 27 22 8 33 22 45 56 8 24 15 56 15 70 l0 25 28 -32 c47 -52 107
-41 138 24 15 32 18 34 27 17 16 -29 49 -54 79 -60 16 -3 28 -9 28 -13 0 -4
30 -11 67 -15 87 -9 132 -33 168 -87 57 -84 88 -120 128 -145 47 -30 68 -26
131 22 37 28 55 35 90 35 35 0 49 5 63 24 23 29 74 56 107 56 22 0 26 5 32 47
7 49 29 76 74 94 14 5 36 29 49 53 24 46 68 76 111 76 31 0 60 18 60 37 0 9
-13 37 -29 62 -37 60 -48 129 -26 172 11 21 15 42 10 63 -16 79 -17 112 -1
125 25 21 19 56 -19 97 -43 48 -60 95 -46 123 19 34 12 46 -38 70 -27 12 -61
35 -75 50 l-27 28 30 13 c79 32 141 106 161 190 7 30 23 75 36 99 29 52 30 82
5 98 -24 15 -31 56 -18 98 8 27 6 41 -7 70 -17 34 -16 37 3 69 26 42 27 62 1
69 -12 3 -20 14 -20 26 0 11 9 26 20 33 21 14 27 43 10 53 -5 3 -10 19 -10 35
0 16 5 32 10 35 14 9 12 65 -2 69 -7 2 -32 9 -54 15 -26 7 -44 18 -47 30 -2
10 -17 21 -36 24 -24 5 -31 12 -31 30 0 17 -9 27 -32 38 -18 8 -37 24 -43 35
-26 54 -41 59 -130 47z m-2395 -654 c0 -10 -4 -19 -10 -19 -5 0 -10 12 -10 26
0 14 4 23 10 19 6 -3 10 -15 10 -26z m1230 -1209 c0 -5 -7 -7 -15 -4 -8 4 -15
8 -15 10 0 2 7 4 15 4 8 0 15 -4 15 -10z m548 -8 c2 -7 -3 -12 -12 -12 -9 0
-16 7 -16 16 0 17 22 14 28 -4z m52 -66 c0 -2 -11 -6 -25 -8 -14 -3 -25 -1
-25 3 0 5 11 9 25 9 14 0 25 -2 25 -4z"/>
</g>
</svg>
