<?xml version="1.0" standalone="no"?>
<!DOCTYPE svg PUBLIC "-//W3C//DTD SVG 20010904//EN"
 "http://www.w3.org/TR/2001/REC-SVG-20010904/DTD/svg10.dtd">
<svg version="1.0" xmlns="http://www.w3.org/2000/svg"
 width="471.000000pt" height="470.000000pt" viewBox="0 0 471.000000 470.000000"
 preserveAspectRatio="xMidYMid meet">
<metadata>
Created by potrace 1.13, written by Peter Selinger 2001-2015
</metadata>
<g transform="translate(0.000000,470.000000) scale(0.100000,-0.100000)"
fill="#000000" stroke="none">
<path d="M2500 4152 c-27 -10 -40 -28 -27 -41 8 -8 8 -11 0 -11 -12 0 -12 -18
0 -37 5 -8 3 -13 -3 -13 -6 0 -9 -4 -6 -9 3 -5 -5 -12 -18 -15 -22 -5 -45 -46
-26 -46 17 0 2 -33 -21 -45 -20 -11 -27 -11 -41 2 -14 13 -20 13 -33 3 -8 -7
-15 -19 -15 -28 0 -8 -3 -12 -7 -9 -3 4 -11 0 -17 -7 -13 -16 -76 -32 -76 -19
0 4 -9 14 -20 21 -18 11 -24 9 -47 -18 -14 -17 -32 -29 -39 -26 -8 3 -14 1
-14 -4 0 -11 -53 -2 -61 11 -3 6 -9 10 -13 10 -3 0 -13 2 -22 6 -8 3 -25 0
-38 -6 -18 -10 -22 -20 -21 -58 0 -31 -6 -55 -22 -78 -12 -18 -20 -35 -17 -37
2 -3 -9 -19 -25 -35 -16 -17 -32 -41 -36 -53 -7 -21 -11 -22 -63 -15 -32 4
-61 10 -67 13 -5 4 -24 12 -40 17 -25 9 -34 8 -49 -7 -11 -10 -21 -16 -24 -13
-2 2 -11 -2 -18 -10 -10 -10 -32 -13 -73 -11 -52 3 -62 1 -80 -20 -12 -14 -23
-33 -24 -44 -4 -24 -10 -31 -34 -35 -10 -2 -18 -4 -18 -5 0 -1 -16 -2 -36 -3
-27 -2 -45 -11 -74 -40 -21 -21 -40 -36 -42 -33 -3 3 -17 0 -32 -6 -14 -5 -43
-10 -63 -10 -21 1 -38 -4 -38 -10 0 -6 -3 -9 -6 -5 -8 8 -25 -10 -57 -60 -15
-23 -23 -45 -18 -48 13 -7 6 -58 -8 -63 -6 -2 -11 -10 -11 -17 0 -7 -6 -15
-14 -18 -8 -3 -13 -14 -11 -24 2 -10 4 -18 5 -18 1 0 4 -19 6 -41 4 -37 1 -44
-28 -66 -34 -26 -68 -42 -80 -40 -4 1 -12 -7 -18 -18 -12 -22 -10 -80 3 -80 4
0 6 -4 2 -9 -3 -6 3 -14 12 -20 11 -6 13 -11 5 -11 -7 0 -10 -4 -7 -10 7 -11
-25 -70 -38 -70 -4 0 -5 -6 0 -12 14 -23 12 -40 -7 -61 -12 -12 -19 -33 -18
-52 1 -27 8 -36 37 -51 20 -10 39 -17 44 -16 4 1 7 -3 7 -10 0 -6 3 -8 7 -5 3
4 11 2 18 -3 6 -5 36 -12 66 -16 70 -8 86 -15 134 -58 22 -20 45 -36 50 -36 6
0 17 -6 24 -12 6 -7 15 -13 19 -13 4 -1 17 -6 30 -13 12 -7 22 -10 22 -6 0 3
6 1 13 -5 8 -6 17 -8 20 -5 3 4 24 8 46 9 50 3 46 -20 -5 -29 -19 -4 -34 -11
-34 -17 0 -6 -4 -8 -9 -4 -5 3 -12 1 -16 -4 -3 -6 -12 -8 -20 -4 -8 3 -15 0
-15 -7 0 -7 -7 -10 -15 -6 -8 3 -20 -3 -27 -12 -7 -9 -19 -17 -25 -18 -31 -2
-35 -5 -30 -18 3 -8 2 -16 -4 -18 -16 -5 -18 -75 -2 -98 14 -19 49 -40 64 -36
3 0 13 -5 22 -13 10 -7 17 -11 17 -8 0 4 17 0 38 -7 20 -7 44 -11 52 -9 8 2 2
-3 -13 -12 -33 -19 -126 -105 -114 -105 4 0 -1 -10 -12 -22 -11 -11 -18 -24
-16 -28 8 -13 -82 -98 -122 -116 -21 -10 -42 -24 -46 -31 -5 -7 -11 -11 -15
-9 -4 2 -18 -11 -31 -29 -18 -27 -20 -37 -11 -54 6 -12 9 -21 6 -21 -3 0 6
-12 19 -26 13 -14 24 -29 23 -33 0 -3 1 -8 2 -11 7 -20 7 -40 -2 -40 -6 0 5
-13 25 -28 33 -26 35 -32 33 -80 -2 -43 1 -54 21 -72 14 -12 32 -20 41 -19 9
1 20 0 25 -1 4 -1 13 -3 20 -4 6 -1 11 -7 10 -13 -2 -7 6 -15 17 -18 11 -4 20
-11 20 -16 0 -5 3 -8 8 -7 4 0 15 -2 24 -6 16 -7 16 -10 2 -23 -14 -14 -13
-18 7 -39 12 -13 24 -22 28 -21 14 5 53 -47 58 -79 3 -19 10 -34 15 -34 5 0 6
-5 3 -10 -4 -6 -2 -17 4 -24 9 -11 21 -11 69 0 31 8 82 17 113 20 54 6 57 5
78 -25 12 -17 25 -30 29 -30 4 1 12 0 17 -1 6 -1 25 -1 43 0 23 1 44 -8 72
-30 42 -33 64 -38 115 -26 17 4 48 7 70 6 22 -1 57 -2 78 -2 27 -1 42 4 51 18
33 46 57 66 85 70 22 4 31 1 31 -9 0 -18 87 -90 114 -94 21 -3 73 -55 103
-105 23 -38 48 -41 79 -9 14 14 29 26 33 26 3 1 16 6 28 13 13 7 30 9 45 4 13
-5 30 -8 38 -7 33 3 81 18 86 27 3 5 25 -2 48 -16 38 -22 45 -23 63 -11 27 19
44 15 78 -21 17 -17 37 -30 47 -29 9 2 19 -6 23 -19 4 -11 8 -23 9 -26 2 -3 7
-16 13 -30 21 -51 35 -52 83 -10 68 60 68 60 85 54 17 -7 48 14 39 27 -3 5 0
9 6 9 6 0 9 4 6 9 -9 13 20 33 51 34 27 2 53 18 53 32 0 4 13 24 30 45 16 20
27 40 23 44 -3 3 -1 6 5 6 8 0 27 53 22 62 -1 2 3 15 9 29 5 15 7 30 3 34 -4
4 -8 15 -8 26 -1 10 -3 21 -4 24 -1 3 -4 10 -5 15 -1 6 -4 12 -5 15 -1 3 -4
10 -5 15 -1 6 -3 11 -4 13 -2 1 -4 12 -7 25 -2 12 -11 39 -21 60 -9 20 -17 39
-17 42 -4 19 -30 70 -35 70 -4 0 -12 15 -19 33 -6 17 -27 49 -46 69 -19 20
-31 39 -29 42 3 3 -2 8 -11 12 -9 3 -13 10 -10 15 3 5 -2 12 -10 15 -9 3 -16
11 -16 16 0 6 -10 19 -22 29 -11 11 -19 19 -15 19 3 0 -37 43 -89 96 -52 53
-94 100 -94 105 0 5 -3 9 -7 9 -11 0 -90 70 -79 70 5 0 -4 10 -20 22 -30 24
-78 65 -98 84 -7 6 -25 19 -41 27 -17 9 -46 30 -65 46 -55 48 -58 50 -62 45
-3 -2 -18 8 -35 23 -16 16 -36 29 -44 31 -23 5 -32 20 -12 19 40 0 49 4 58 26
10 21 42 26 55 9 3 -4 14 -8 25 -10 30 -4 37 -6 75 -27 19 -11 38 -18 43 -17
4 1 7 -2 7 -8 0 -5 8 -10 18 -10 10 0 28 -7 40 -16 12 -8 22 -12 22 -8 0 3 6
1 13 -5 8 -6 17 -8 20 -4 4 3 7 1 7 -5 0 -7 9 -12 19 -12 11 0 23 -5 26 -10 4
-6 11 -8 16 -5 5 4 9 1 9 -5 0 -6 4 -9 9 -5 5 3 12 1 16 -5 4 -6 10 -8 15 -5
4 3 13 -2 20 -10 7 -8 16 -13 20 -10 5 3 11 1 15 -5 4 -6 11 -8 16 -5 5 4 9 1
9 -4 0 -6 3 -10 8 -9 4 1 21 -5 37 -12 17 -7 33 -14 38 -15 4 -2 8 -3 10 -4 1
-2 12 -4 25 -7 13 -2 33 -9 45 -16 22 -12 38 -17 70 -20 9 -1 17 -6 17 -10 0
-18 39 -6 54 17 15 22 15 27 2 40 -16 16 -79 33 -113 30 -13 -1 -23 2 -23 7 0
4 -3 7 -7 6 -16 -3 -89 16 -132 34 -24 10 -52 20 -62 21 -9 2 -23 8 -31 14 -7
6 -25 14 -41 18 -15 4 -27 12 -27 18 0 6 -3 8 -6 4 -4 -3 -21 1 -38 10 -17 9
-40 18 -51 20 -10 2 -22 8 -26 14 -3 6 -9 10 -13 10 -22 -3 -37 1 -50 15 -9 8
-16 12 -16 8 0 -3 -7 -1 -15 6 -8 7 -15 9 -15 5 0 -5 -8 -1 -17 7 -10 9 -25
18 -33 21 -13 5 -13 6 0 6 8 1 21 10 28 21 10 17 10 23 -1 35 -8 8 -17 12 -20
9 -3 -3 -8 1 -13 8 -4 7 -4 10 1 6 4 -4 14 0 22 8 12 11 12 18 3 29 -6 7 -18
11 -26 8 -8 -3 -14 0 -14 6 0 6 7 11 15 11 8 0 15 4 15 10 0 13 32 50 44 50 5
0 35 26 66 58 70 71 137 132 145 132 4 0 13 6 20 13 33 29 45 37 55 37 5 0 10
5 10 10 0 10 67 55 82 55 4 0 13 6 20 13 6 6 18 12 25 12 14 0 59 26 81 47 9
9 10 18 3 32 -11 20 -41 36 -41 22 0 -5 -12 -12 -26 -15 -14 -4 -31 -11 -37
-16 -61 -50 -77 -61 -77 -54 0 4 -7 -1 -15 -12 -8 -10 -15 -16 -15 -12 0 3
-17 -9 -37 -28 -72 -65 -83 -75 -83 -68 0 3 -12 -7 -28 -22 -46 -48 -134 -124
-143 -124 -5 0 -9 -6 -9 -13 0 -7 -10 -19 -21 -27 -12 -8 -27 -21 -35 -27 -7
-7 -16 -13 -21 -13 -4 0 -17 -14 -28 -30 -25 -37 -76 -50 -100 -26 -19 19 -51
21 -58 4 -3 -8 -6 -6 -6 5 -1 9 4 17 9 17 6 0 10 5 10 10 0 6 14 24 30 42 17
17 30 36 30 43 0 6 16 28 35 49 19 21 35 45 35 53 0 8 4 12 9 9 5 -3 12 2 16
12 3 9 5 17 3 17 -1 0 10 14 24 30 15 17 38 43 52 59 14 16 26 35 26 42 0 8 5
14 10 14 6 0 10 7 10 15 0 8 5 15 11 15 5 0 8 4 4 9 -3 5 -1 12 5 16 6 4 8 10
5 15 -3 4 2 13 10 20 8 7 15 18 15 25 0 7 7 18 15 25 8 7 13 16 10 20 -3 5 -1
11 5 15 6 4 8 10 5 15 -3 4 2 13 10 20 8 7 12 16 9 21 -3 5 1 12 10 15 8 3 12
12 9 20 -3 8 0 14 7 14 6 0 8 5 4 11 -3 6 -3 14 2 18 15 10 35 62 29 72 -4 5
-1 9 5 9 6 0 8 5 4 11 -3 6 -1 15 5 19 7 4 13 17 14 28 1 12 5 22 10 22 5 0 7
7 3 15 -3 8 -1 15 5 15 6 0 9 7 5 15 -3 8 -2 15 2 15 4 0 9 10 9 22 1 13 7 24
13 26 5 2 8 7 5 11 -2 4 0 23 5 42 13 49 21 105 26 179 10 127 10 145 -1 152
-6 5 -6 8 2 8 9 0 10 7 3 24 -6 17 -5 26 3 30 9 3 9 5 0 5 -7 1 -13 14 -13 30
0 32 -35 67 -77 77 -12 4 -23 12 -23 19 0 8 -9 17 -20 20 -11 3 -20 11 -20 16
0 11 -41 -8 -52 -24 -11 -17 -37 11 -33 35 3 12 -4 27 -18 38 -23 19 -44 14
-75 -16 -17 -17 -69 -10 -96 14 -26 23 -46 31 -66 24z m383 -522 c3 -11 1 -20
-4 -20 -5 0 -9 -7 -9 -15 0 -8 -4 -15 -9 -15 -5 0 -8 8 -6 18 2 9 4 27 4 40 1
27 16 22 24 -8z m-508 -109 c2 -11 0 -21 -5 -21 -11 0 -21 30 -14 42 8 12 14
6 19 -21z m-161 -37 c3 -8 2 -12 -4 -9 -6 3 -10 10 -10 16 0 14 7 11 14 -7z
m636 -44 c0 -5 -5 -10 -11 -10 -5 0 -7 5 -4 10 3 6 8 10 11 10 2 0 4 -4 4 -10z
m-260 -25 c0 -8 0 -18 -1 -21 0 -4 4 -10 11 -14 7 -5 6 -11 -6 -21 -12 -9 -15
-10 -10 -1 4 7 1 15 -8 18 -24 9 -19 54 6 54 4 0 8 -7 8 -15z m250 -15 c-6
-11 -12 -20 -14 -20 -2 0 -2 9 1 20 3 11 9 20 15 20 5 0 4 -9 -2 -20z m-150
-42 c0 -23 -4 -29 -17 -26 -11 2 -18 12 -17 26 0 12 -2 22 -6 22 -4 0 -7 6 -7
14 0 11 5 12 24 3 16 -7 23 -19 23 -39z m87 16 c-8 -47 -14 -52 -34 -31 -14
13 -14 17 -3 17 11 0 11 3 2 12 -9 9 -7 14 6 24 28 22 35 16 29 -22z m-1665
-531 c9 -8 14 -21 11 -29 -3 -8 1 -14 8 -14 7 0 9 -3 6 -6 -9 -10 -36 15 -53
49 -16 31 -8 31 28 0z m160 -1156 c-2 -9 2 -17 8 -17 6 0 9 -4 6 -9 -3 -5 1
-12 10 -15 8 -3 13 -10 9 -15 -3 -5 -1 -12 4 -15 5 -4 8 -14 6 -24 -2 -9 -4
-21 -4 -26 -1 -5 -4 -6 -8 -3 -3 4 -13 -3 -21 -14 -11 -16 -16 -18 -23 -8 -5
8 0 18 12 27 15 11 17 17 9 27 -6 8 -18 11 -26 8 -8 -3 -14 -2 -12 3 1 5 -3
19 -10 31 -9 17 -9 24 1 35 8 7 12 19 9 27 -3 8 2 12 14 9 11 -2 18 -11 16
-21z m1743 -177 c3 -6 -1 -17 -9 -26 -9 -8 -16 -11 -16 -6 0 6 -3 17 -6 26 -7
18 21 23 31 6z m120 -12 c7 -7 1 -9 -20 -4 -40 10 -57 27 -19 20 16 -3 34 -10
39 -16z m-1749 -16 c27 -20 30 -29 9 -29 -8 0 -12 4 -9 8 4 7 -37 35 -43 31
-9 -6 -33 0 -33 7 0 14 49 3 76 -17z m-196 8 c-8 -5 -19 -10 -25 -10 -5 0 -3
5 5 10 8 5 20 10 25 10 6 0 3 -5 -5 -10z m1747 -12 c12 -20 12 -38 1 -38 -6 0
-8 -7 -4 -15 3 -8 4 -15 2 -15 -3 0 -12 -3 -22 -7 -11 -4 -15 -3 -10 5 3 6 2
13 -3 16 -10 6 -9 20 4 49 8 20 21 22 32 5z m-1437 -70 c0 -5 5 -6 12 -2 7 5
8 3 4 -5 -5 -7 -10 -10 -13 -7 -3 2 -16 1 -29 -4 -22 -9 -23 -8 -15 8 10 19
41 26 41 10z m1365 -28 c-3 -5 -2 -25 4 -45 l9 -34 -24 16 c-25 16 -30 50 -9
65 15 11 27 10 20 -2z m-1434 -13 c-6 -8 -8 -17 -4 -20 3 -4 -1 -7 -10 -7 -15
0 -15 3 -5 20 7 11 17 20 22 20 4 0 3 -6 -3 -13z m1274 -107 c3 -5 1 -10 -4
-10 -6 0 -11 5 -11 10 0 6 2 10 4 10 3 0 8 -4 11 -10z m-170 -10 c-3 -5 -12
-10 -18 -10 -7 0 -6 4 3 10 19 12 23 12 15 0z m-175 -200 c8 -15 8 -20 -1 -20
-9 0 -8 -4 0 -14 10 -12 9 -14 -5 -12 -19 3 -34 33 -27 54 7 18 21 15 33 -8z"/>
</g>
</svg>
