<?xml version="1.0" standalone="no"?>
<!DOCTYPE svg PUBLIC "-//W3C//DTD SVG 20010904//EN"
 "http://www.w3.org/TR/2001/REC-SVG-20010904/DTD/svg10.dtd">
<svg version="1.0" xmlns="http://www.w3.org/2000/svg"
 width="593.000000pt" height="614.000000pt" viewBox="0 0 593.000000 614.000000"
 preserveAspectRatio="xMidYMid meet">
<metadata>
Created by potrace 1.13, written by Peter Selinger 2001-2015
</metadata>
<g transform="translate(0.000000,614.000000) scale(0.100000,-0.100000)"
fill="#000000" stroke="none">
<path d="M3631 5036 c-9 -10 -8 -16 4 -26 20 -16 38 -1 29 23 -8 21 -18 22
-33 3z"/>
<path d="M3283 5019 c-18 -9 -40 -22 -48 -29 -8 -7 -15 -10 -15 -6 0 3 -11 1
-25 -4 -14 -5 -25 -6 -25 -1 0 4 -6 8 -12 8 -7 1 -34 5 -60 11 -31 6 -48 6
-48 0 0 -5 -6 -8 -12 -5 -16 5 -68 -20 -68 -33 0 -6 -5 -10 -11 -10 -7 0 -21
-10 -33 -23 -19 -20 -43 -35 -68 -42 -5 -2 -9 -3 -10 -5 -2 -1 -16 -3 -33 -4
-61 -5 -114 -48 -170 -135 -14 -23 -22 -41 -19 -41 4 0 1 -7 -6 -15 -7 -8 -10
-15 -7 -15 3 0 1 -15 -5 -32 -5 -18 -11 -60 -13 -93 -2 -33 -4 -62 -5 -65 -1
-3 -2 -9 -1 -14 1 -5 5 -27 8 -50 3 -23 10 -52 16 -66 6 -14 11 -27 11 -30 1
-3 4 -9 7 -15 4 -5 5 -18 4 -27 -2 -10 1 -18 7 -18 6 0 8 -7 4 -15 -3 -8 -2
-15 3 -15 7 0 20 -40 21 -65 0 -3 9 -14 21 -26 11 -11 19 -30 19 -42 -1 -12
-1 -24 0 -27 1 -3 3 -14 5 -25 1 -11 6 -28 10 -39 7 -17 6 -17 -15 -6 -13 7
-33 21 -44 32 -23 21 -73 48 -90 48 -17 0 -47 -38 -35 -45 5 -4 7 -10 4 -15
-3 -5 5 -32 19 -59 13 -28 20 -51 15 -51 -5 0 -2 -11 7 -25 9 -14 13 -25 9
-25 -4 0 -1 -8 6 -17 7 -10 1 -7 -14 6 -15 14 -25 26 -22 29 2 2 -19 23 -48
45 -29 23 -62 52 -75 64 -13 13 -28 23 -35 23 -7 0 -32 18 -57 39 -24 22 -47
38 -50 36 -3 -2 -23 12 -44 31 -21 19 -44 34 -51 34 -7 0 -19 7 -26 16 -26 32
-125 88 -161 91 -20 2 -50 -2 -65 -10 -16 -9 -46 -13 -70 -10 -29 3 -43 0 -43
-8 0 -12 -59 -69 -72 -69 -5 0 -8 -7 -8 -15 0 -8 -4 -15 -10 -15 -5 0 -7 -7
-4 -15 4 -9 0 -15 -9 -15 -8 0 -20 -7 -27 -15 -7 -8 -16 -12 -21 -9 -5 3 -9 1
-9 -4 0 -8 -58 -35 -68 -32 -3 1 -9 -5 -57 -62 -11 -14 -22 -46 -26 -81 -7
-58 -40 -114 -60 -101 -5 3 -9 -1 -9 -8 0 -7 -10 -18 -22 -23 -13 -6 -29 -22
-36 -38 -17 -35 -27 -137 -14 -137 6 0 8 -9 5 -20 -3 -11 -9 -20 -13 -20 -5 0
-12 -10 -16 -22 -3 -12 -13 -28 -20 -35 -7 -7 -16 -34 -20 -60 -7 -45 -4 -54
37 -135 11 -21 2 -66 -16 -85 -18 -18 -11 -70 13 -95 35 -35 38 -44 37 -97 -2
-45 2 -59 22 -78 12 -13 23 -28 23 -33 0 -6 5 -10 11 -10 5 0 7 -4 4 -10 -3
-5 0 -10 7 -10 10 0 10 -2 -1 -9 -8 -5 -9 -11 -3 -15 5 -3 7 -16 5 -29 -4 -18
5 -33 40 -63 40 -36 51 -64 25 -64 -13 0 -68 -56 -68 -69 0 -5 -6 -11 -14 -14
-9 -4 -13 -19 -12 -41 1 -20 -2 -36 -6 -36 -4 0 -5 -7 -2 -15 4 -8 2 -15 -3
-15 -6 0 -9 -13 -8 -30 1 -16 -2 -30 -6 -30 -4 0 -6 -9 -4 -20 2 -11 0 -22 -5
-25 -5 -3 -7 -12 -4 -19 3 -8 1 -17 -5 -21 -8 -4 -8 -12 -1 -26 6 -10 8 -19 4
-19 -3 0 -1 -6 5 -13 6 -8 8 -17 4 -20 -3 -4 -2 -7 4 -7 12 0 19 -93 14 -210
-2 -44 3 -83 13 -98 4 -7 2 -12 -5 -12 -7 0 -8 -4 -2 -12 10 -14 9 -30 -8
-103 -6 -27 -18 -58 -27 -67 -8 -10 -11 -18 -6 -18 5 0 9 -11 9 -25 0 -14 -2
-25 -5 -25 -3 0 -6 -10 -7 -22 -3 -46 -23 -122 -37 -137 -7 -9 -19 -34 -26
-56 -7 -22 -15 -44 -19 -50 -3 -5 -7 -26 -9 -45 -5 -62 -6 -70 -13 -70 -8 0
-4 -66 5 -110 3 -14 9 -38 12 -55 3 -16 11 -36 18 -44 6 -8 10 -17 8 -20 -4
-11 38 -61 52 -61 8 0 16 -4 18 -9 7 -21 192 -38 214 -19 12 9 46 19 72 20 6
1 12 5 12 10 0 4 7 8 15 8 9 0 32 7 53 17 20 9 40 16 44 15 3 -1 12 5 18 13 7
8 17 15 22 15 16 0 168 93 168 102 0 4 6 8 14 8 8 0 17 7 20 16 3 8 10 12 16
9 6 -3 13 1 16 9 3 9 10 13 15 10 5 -3 22 8 38 25 16 16 32 27 35 24 3 -4 6
-1 6 5 0 7 5 12 11 12 6 0 20 11 31 25 11 14 23 25 27 25 16 0 471 439 471
454 0 4 6 13 13 20 42 44 77 87 77 95 0 5 4 11 8 13 12 4 104 145 137 209 29
58 44 85 60 109 5 8 10 17 11 20 6 25 30 70 37 70 4 0 6 4 3 8 -3 5 1 20 9 35
7 14 11 28 7 31 -3 3 0 6 7 6 8 0 11 7 7 15 -3 8 -1 15 5 15 6 0 8 4 4 9 -3 5
-1 12 5 16 6 4 8 10 5 15 -3 5 -1 11 5 15 6 4 8 11 5 16 -4 5 -2 9 4 9 6 0 8
7 5 15 -4 8 -2 15 3 15 5 0 9 8 10 18 3 40 8 62 13 62 3 0 6 8 7 18 0 9 4 33
7 52 4 19 7 47 8 63 1 15 5 27 9 27 13 0 28 -35 25 -56 -4 -24 55 -85 84 -87
19 -1 21 -5 14 -37 -3 -19 -7 -41 -7 -47 0 -7 -3 -13 -6 -13 -3 0 -7 -10 -8
-23 -2 -23 -10 -62 -13 -62 -1 0 -4 -11 -6 -25 -2 -13 -8 -27 -12 -30 -4 -3
-8 -12 -10 -20 -2 -8 -14 -38 -28 -67 -13 -28 -24 -54 -24 -58 0 -3 -11 -23
-24 -44 -14 -21 -22 -42 -19 -45 4 -3 1 -6 -6 -6 -8 0 -11 -7 -7 -15 3 -8 1
-15 -5 -15 -5 0 -16 -15 -24 -33 -8 -19 -21 -39 -29 -46 -9 -7 -13 -17 -10
-22 3 -5 1 -9 -4 -9 -5 0 -17 -17 -28 -37 -10 -20 -27 -45 -36 -55 -10 -10
-18 -25 -18 -33 0 -8 -5 -15 -11 -15 -6 0 -9 -6 -6 -12 2 -7 -3 -20 -12 -28
-28 -26 -18 -130 12 -130 13 0 47 41 51 61 3 13 5 24 6 24 1 0 3 8 5 18 7 39
40 119 55 135 9 10 15 23 12 30 -2 6 1 12 7 12 6 0 11 5 11 12 0 6 11 26 25
43 13 18 21 35 18 39 -3 3 1 8 10 12 9 3 21 22 28 42 7 21 15 39 19 42 9 7 80
153 80 166 0 5 7 21 14 36 8 16 17 44 21 65 3 20 10 41 15 48 5 6 12 33 15 60
9 69 15 87 28 82 7 -2 16 -12 21 -24 17 -36 96 -80 96 -53 0 6 6 10 14 10 14
0 30 25 29 48 -1 31 -4 40 -23 60 -22 24 -28 51 -7 35 6 -6 19 -11 27 -11 8 0
33 -3 55 -7 50 -8 315 -13 315 -5 0 3 17 6 38 7 35 1 96 7 172 19 106 16 135
13 300 -23 50 -11 65 -10 83 5 18 16 23 42 8 42 -5 0 -16 7 -25 15 -8 8 -32
18 -53 22 -51 9 -236 8 -298 -2 -27 -4 -70 -9 -95 -11 -25 -2 -63 -7 -85 -11
-47 -8 -349 -8 -385 0 -14 3 -35 6 -47 6 -22 1 -32 26 -14 33 6 2 12 15 15 30
3 21 -3 34 -25 56 -16 16 -31 37 -33 48 -3 10 -7 27 -11 36 -7 19 0 19 68 0
20 -6 38 -7 41 -4 3 3 6 1 6 -4 0 -6 10 -10 23 -11 12 -1 38 -4 57 -8 73 -13
88 -15 200 -16 106 -1 238 6 300 16 98 15 117 18 135 22 11 3 36 7 55 8 19 2
35 4 35 5 0 2 33 10 60 14 11 2 20 4 20 6 0 1 13 4 28 6 15 3 74 21 130 40 56
20 109 37 117 39 36 7 60 18 60 26 0 5 3 8 8 8 4 -1 10 0 15 1 4 1 10 3 15 5
9 2 56 22 97 40 48 21 69 28 78 27 4 -1 7 2 7 8 0 5 9 10 19 10 11 0 21 3 23
8 2 6 89 52 108 57 23 7 59 25 61 32 2 4 25 19 52 33 26 13 47 27 47 31 0 3
18 12 40 19 22 7 40 19 40 27 0 8 4 12 8 9 5 -3 26 10 48 29 21 19 46 40 54
47 8 7 18 13 22 13 5 0 17 14 28 30 11 17 20 26 20 21 0 -5 13 5 28 22 16 18
34 32 40 32 7 0 12 4 12 8 0 5 12 22 28 40 50 57 62 72 62 80 0 5 9 18 21 30
11 12 17 27 14 32 -3 6 -2 10 4 10 6 0 13 11 17 25 3 14 9 25 13 25 3 0 6 24
6 53 0 52 -17 97 -35 97 -6 0 -10 5 -10 11 0 18 -25 36 -81 59 -30 12 -63 26
-75 32 -11 5 -40 11 -65 12 -24 2 -62 8 -84 14 -45 12 -132 25 -185 27 -19 1
-38 3 -42 5 -5 1 -11 3 -15 4 -5 1 -14 5 -20 9 -7 5 -13 6 -13 2 0 -3 -9 -1
-20 5 -21 11 -70 20 -132 23 -21 1 -38 6 -38 10 0 5 -4 6 -9 2 -5 -3 -12 -1
-16 5 -4 6 -11 8 -16 5 -5 -4 -9 -1 -9 5 0 6 -4 9 -9 5 -5 -3 -25 10 -43 28
-35 36 -59 48 -98 52 -14 1 -37 7 -52 13 -16 7 -28 8 -28 4 0 -4 -4 -2 -8 4
-10 15 -82 68 -82 60 0 -3 -8 1 -17 9 -10 8 -22 15 -27 14 -5 0 -12 4 -15 10
-4 6 -29 12 -56 15 -28 2 -62 9 -77 15 -16 6 -28 8 -28 5 0 -4 -6 -1 -13 5 -8
6 -17 8 -20 4 -4 -3 -7 -2 -7 3 0 6 -23 9 -52 7 -77 -5 -78 -5 -78 -19 0 -6
-7 -15 -16 -18 -23 -9 -36 -7 -29 3 10 18 -19 66 -73 119 -29 28 -51 52 -48
52 3 0 -13 20 -36 44 -24 24 -45 44 -48 43 -3 -1 -15 4 -27 11 -13 7 -23 10
-23 7 0 -4 -7 0 -15 9 -8 8 -15 19 -15 25 0 6 -5 11 -11 11 -5 0 -8 4 -5 8 12
20 -61 61 -101 57 -13 -1 -23 2 -23 7 0 4 -6 8 -14 8 -8 0 -28 11 -44 25 -17
14 -34 25 -39 25 -6 0 -18 9 -28 20 -12 13 -23 17 -34 11 -26 -13 -145 -4
-187 15 -22 9 -42 18 -46 19 -5 2 -11 4 -15 5 -22 8 -62 3 -90 -11z m51 -621
c-3 -5 -10 -6 -15 -3 -5 4 -9 1 -9 -6 0 -7 -3 -10 -6 -6 -9 9 3 24 20 24 8 0
13 -4 10 -9z m118 -49 c17 6 32 10 34 9 3 -4 -33 -77 -56 -113 -11 -16 -24
-39 -29 -50 -6 -14 -8 6 -7 60 2 44 -1 91 -6 105 l-8 25 20 -24 c18 -20 23
-22 52 -12z m142 -54 c15 -8 32 -13 36 -10 15 9 -11 -68 -52 -154 -26 -56 -36
-87 -29 -94 6 -6 5 -15 -5 -25 -8 -8 -13 -21 -10 -28 3 -8 2 -14 -3 -14 -10 0
-2 -89 9 -110 11 -21 -3 -42 -23 -35 -16 7 -42 -27 -29 -39 3 -4 -1 -4 -11 0
-9 3 -15 9 -13 13 3 4 -4 12 -15 19 -16 10 -19 9 -19 -3 0 -8 -4 -15 -8 -15
-11 0 -13 42 -3 55 5 6 3 15 -5 23 -8 7 -14 10 -14 6 0 -3 -6 -1 -13 5 -8 6
-17 8 -20 4 -4 -3 -4 36 -1 88 5 93 19 133 61 174 8 8 12 15 8 15 -3 0 9 19
28 43 44 53 78 117 71 131 -3 6 3 1 13 -12 10 -12 31 -29 47 -37z m-274 24 c0
-5 4 -8 8 -5 9 6 7 -143 -3 -199 -4 -22 -8 -64 -9 -92 0 -29 -5 -53 -10 -53
-5 0 -3 -7 4 -15 8 -10 9 -15 2 -15 -6 0 -9 -7 -5 -16 4 -12 2 -15 -8 -12 -8
3 -13 13 -13 22 1 9 -2 16 -6 16 -4 0 -6 24 -5 54 2 38 -2 56 -10 60 -14 5
-10 41 7 62 5 7 3 14 -7 18 -8 3 -15 11 -15 18 0 10 3 9 9 -1 8 -12 12 -12 25
-2 21 18 20 28 -4 36 -11 4 -18 10 -15 15 3 5 1 11 -4 15 -16 9 -1 33 25 39
28 7 32 31 7 40 -15 6 -15 8 -3 16 20 13 30 12 30 -1z m400 -134 c-1 -4 3 -11
10 -15 8 -5 6 -18 -7 -48 -10 -23 -21 -42 -25 -42 -5 0 -8 -7 -8 -15 0 -8 -4
-15 -10 -15 -5 0 -10 -6 -10 -13 0 -7 -10 -24 -21 -36 -12 -13 -32 -43 -44
-67 -19 -37 -23 -41 -28 -25 -3 11 -1 39 4 61 5 22 8 43 7 47 -3 15 14 63 23
63 5 0 8 3 7 8 0 4 2 14 5 22 4 8 11 27 16 43 6 15 15 27 21 27 6 0 8 5 5 10
-3 6 -4 14 0 19 6 11 57 -12 55 -24z m915 -125 c3 -6 -1 -7 -9 -4 -18 7 -21
14 -7 14 6 0 13 -4 16 -10z m-852 -53 c-9 -16 -24 9 -17 28 7 18 8 18 14 -1 4
-10 5 -23 3 -27z m804 6 c-4 -3 -12 -2 -18 4 -6 6 -18 9 -25 6 -8 -3 -14 0
-14 5 0 16 33 20 49 6 8 -8 12 -17 8 -21z m-846 -20 c-7 -16 -18 -36 -23 -46
-5 -10 -6 -26 -3 -36 5 -16 -11 -31 -31 -30 -10 1 -53 -54 -51 -65 1 -5 -6
-12 -17 -14 -16 -3 -18 0 -12 24 4 16 13 32 19 36 7 4 8 8 3 8 -5 0 -3 8 5 18
8 9 24 35 34 56 11 22 31 51 45 66 30 33 49 22 31 -17z m759 2 c-7 -8 -9 -16
-4 -16 5 -1 19 -3 32 -4 12 -1 25 -5 29 -9 3 -3 12 -1 20 5 10 9 13 8 13 -5 0
-9 4 -16 9 -16 5 0 -5 -15 -23 -32 -17 -18 -46 -50 -64 -72 -25 -28 -36 -36
-45 -27 -8 8 -7 11 3 11 10 0 8 4 -5 13 -17 13 -17 14 4 29 15 11 19 18 11 23
-8 5 -8 11 1 21 6 8 7 14 2 14 -14 0 -9 56 7 74 7 9 15 14 18 11 3 -2 -1 -11
-8 -20z m207 -27 c-9 -6 -9 -8 0 -8 7 0 10 -7 7 -15 -4 -8 1 -17 10 -21 13 -5
13 -9 1 -28 -10 -14 -11 -26 -4 -36 8 -13 13 -10 34 13 17 19 25 23 25 13 0
-9 5 -16 11 -16 8 0 9 -4 0 -13 -6 -8 -8 -16 -5 -19 3 -4 -6 -14 -21 -25 -14
-10 -46 -37 -71 -61 -26 -24 -49 -41 -52 -38 -3 3 -10 -1 -16 -9 -10 -13 -121
-75 -134 -75 -3 0 -1 5 6 12 7 7 12 15 12 19 0 12 -32 20 -44 10 -7 -6 -18 -6
-25 -1 -11 6 -9 14 9 40 26 36 70 82 70 73 0 -4 12 8 28 26 15 19 40 48 55 65
16 17 35 45 43 63 17 39 55 68 65 51 5 -7 3 -16 -4 -20z m68 -28 c-3 -5 -1
-10 5 -10 6 0 9 -4 5 -10 -3 -5 -12 -7 -21 -3 -11 4 -12 9 -3 19 13 16 23 19
14 4z m715 -121 c0 -11 -4 -18 -9 -14 -6 3 -15 -4 -21 -15 -6 -11 -15 -20 -21
-20 -5 0 3 16 18 35 15 19 29 35 31 35 1 0 2 -9 2 -21z m-731 -100 c-12 -8
-12 -11 1 -19 12 -7 12 -10 1 -10 -7 0 -11 -6 -7 -15 3 -8 1 -15 -4 -15 -17 0
-11 -28 8 -40 16 -9 15 -11 -7 -30 -12 -11 -27 -17 -32 -14 -5 3 -9 1 -9 -5 0
-6 -11 -13 -25 -17 -14 -3 -25 -10 -25 -16 0 -5 -4 -7 -8 -4 -5 3 -19 -4 -30
-15 -12 -11 -22 -17 -22 -13 0 3 -16 -3 -36 -15 -19 -12 -42 -21 -50 -21 -8 0
-14 -5 -14 -12 0 -6 -3 -8 -6 -5 -4 4 -19 -2 -33 -12 -14 -10 -36 -20 -47 -23
-20 -5 -21 -2 -20 53 1 50 4 60 21 65 42 13 135 59 135 67 0 4 4 6 8 3 5 -3
18 3 29 14 12 10 23 17 26 14 2 -2 10 2 17 11 7 8 17 15 22 15 5 0 18 9 30 20
12 10 25 17 30 14 4 -3 8 -1 8 4 0 4 10 19 22 32 15 16 23 19 26 11 3 -8 -2
-17 -9 -22z m53 -31 c-15 -15 -24 -6 -16 16 5 12 10 14 17 7 8 -8 8 -14 -1
-23z m-2692 -191 c0 -6 3 -8 6 -5 3 4 17 0 32 -8 23 -12 28 -12 38 1 10 13 19
8 59 -30 32 -31 53 -44 65 -40 16 5 79 -36 88 -58 2 -4 8 -5 12 -2 5 3 11 1
15 -5 3 -5 0 -11 -7 -12 -7 0 -20 -2 -28 -3 -8 -1 -20 3 -27 7 -6 5 -14 5 -18
-2 -4 -7 -12 -7 -26 0 -10 6 -19 8 -19 5 0 -4 -6 -3 -12 2 -13 8 -30 13 -60
17 -10 1 -21 5 -24 9 -4 4 -16 7 -26 7 -10 0 -18 5 -18 12 0 6 -3 8 -7 5 -3
-4 -12 -2 -20 4 -7 6 -13 8 -13 4 0 -4 -7 -2 -15 5 -8 7 -15 9 -15 6 0 -4 -7
0 -16 8 -8 9 -20 14 -25 11 -5 -4 -9 -3 -9 2 0 4 -12 9 -26 9 -31 2 -36 7 -28
28 3 9 17 16 29 16 13 0 27 5 30 10 4 6 10 8 15 5 5 -3 11 -1 15 4 7 12 35 3
35 -12z m2614 5 c-5 -4 -10 -16 -11 -27 0 -39 -9 -50 -53 -72 -47 -24 -89 -40
-104 -41 -5 0 -12 -5 -15 -10 -3 -5 -30 -16 -60 -25 -66 -19 -98 -9 -80 24 6
12 13 18 16 16 2 -3 32 9 66 26 34 17 64 32 67 32 18 5 47 21 58 32 12 12 34
17 55 14 4 0 7 6 7 15 0 8 4 13 8 10 4 -2 14 -1 22 5 18 11 40 12 24 1z
m-2650 -139 c46 -18 64 -29 54 -34 -8 -4 -26 -6 -41 -5 -15 2 -30 -1 -33 -6
-3 -4 -9 -6 -14 -3 -5 3 -19 1 -30 -5 -11 -6 -20 -7 -20 -2 0 5 -11 8 -24 7
-13 -2 -29 1 -37 6 -8 5 -9 9 -3 9 7 0 19 16 29 36 12 26 21 34 33 29 9 -4 48
-18 86 -32z m2572 -32 c22 18 27 5 7 -17 -19 -21 -73 -31 -73 -14 0 6 6 10 14
10 8 0 17 8 21 18 5 12 9 13 12 4 4 -10 8 -10 19 -1z m-86 -56 c-7 -8 -9 -15
-4 -15 5 0 1 -5 -8 -11 -17 -10 -68 -3 -68 10 0 7 82 39 89 34 2 -1 -2 -9 -9
-18z m-2255 -3 c6 -4 19 -8 30 -9 10 -2 22 -7 25 -11 3 -5 16 -8 29 -8 14 0
26 -5 29 -12 4 -13 -20 -17 -32 -5 -4 4 -19 9 -33 11 -15 2 -34 7 -43 12 -25
13 -48 -5 -33 -27 6 -10 16 -17 22 -15 6 1 11 -2 11 -8 0 -5 3 -9 8 -9 27 5
44 -2 38 -16 -4 -11 3 -19 22 -27 15 -6 41 -17 57 -24 19 -8 31 -9 33 -3 3 6
9 5 18 -2 20 -16 35 0 38 38 3 32 13 53 24 53 8 0 12 -23 14 -77 1 -18 4 -33
8 -33 4 0 7 -7 7 -15 0 -14 -22 -25 -62 -31 -11 -2 -34 -5 -52 -8 -21 -3 -36
1 -45 11 -14 17 -85 51 -121 59 -12 2 -49 7 -82 10 -33 2 -82 7 -110 9 -27 3
-76 7 -108 9 -32 2 -63 8 -70 15 -6 6 -7 11 -3 11 5 0 3 6 -3 14 -16 19 -22
54 -10 61 5 4 7 9 5 13 -2 4 33 7 77 7 77 1 167 11 176 21 6 6 123 -7 136 -14z
m-250 -187 c22 -2 40 -4 40 -5 0 -1 23 -3 50 -6 28 -2 56 -6 63 -9 6 -2 12 1
12 7 0 7 5 6 15 -2 8 -7 15 -10 15 -6 0 3 15 0 33 -7 17 -7 42 -12 55 -11 12
1 25 -3 28 -7 3 -5 -1 -9 -8 -10 -7 0 -22 -2 -33 -4 -11 -3 -42 -7 -70 -9 -27
-3 -50 -5 -50 -6 0 -1 -31 -4 -70 -5 -38 -2 -87 -6 -107 -8 -28 -3 -38 0 -38
9 0 8 -5 14 -11 14 -5 0 -8 4 -5 8 6 10 -30 43 -43 39 -5 -1 -9 1 -10 6 -3 25
1 28 47 21 26 -3 65 -8 87 -9z m381 -107 c4 -7 3 -8 -4 -4 -7 4 -12 3 -12 -3
0 -6 -11 -13 -25 -17 -14 -3 -25 -10 -25 -15 0 -5 -7 -6 -15 -3 -8 4 -15 2
-15 -4 0 -5 -6 -9 -12 -9 -31 2 -118 -16 -118 -25 0 -5 -5 -6 -11 -2 -7 4 -30
8 -53 9 -22 2 -42 8 -44 14 -2 6 -8 9 -12 6 -5 -3 -11 -1 -15 5 -3 5 0 10 7
11 7 0 29 2 48 4 19 2 65 5 102 7 38 1 68 5 68 8 0 3 12 7 28 7 70 4 83 6 88
14 7 12 11 11 20 -3z m-586 -774 c0 5 6 3 14 -3 15 -13 58 -11 68 3 3 5 13 2
22 -7 17 -16 22 -38 9 -35 -11 2 -86 -13 -98 -20 -12 -8 -48 -11 -57 -5 -4 2
2 13 13 24 15 15 17 24 10 33 -6 7 -8 16 -4 20 4 3 10 1 15 -6 4 -7 8 -9 8 -4z
m195 -12 c-3 -3 -11 0 -18 7 -9 10 -8 11 6 5 10 -3 15 -9 12 -12z m207 -36
l27 -34 -47 -39 c-42 -35 -89 -60 -101 -54 -2 2 -8 -4 -13 -13 -5 -9 -13 -14
-19 -11 -5 4 -9 1 -9 -4 0 -6 -9 -11 -20 -11 -11 0 -20 -4 -20 -10 0 -5 -9
-10 -19 -10 -11 0 -23 -5 -26 -10 -4 -6 -11 -8 -16 -5 -5 4 -9 2 -9 -3 0 -9
-23 -19 -65 -28 -10 -3 -22 -9 -25 -14 -3 -5 -16 -3 -30 5 -14 8 -37 19 -52
26 -16 6 -28 17 -28 25 0 8 -4 14 -8 14 -5 0 -9 6 -9 13 0 6 -3 22 -7 33 -8
26 19 40 92 46 6 1 12 6 12 11 0 5 6 7 14 4 7 -3 24 0 38 7 13 7 29 11 36 8 6
-2 12 0 12 5 0 5 8 9 18 10 18 1 74 10 82 13 3 2 8 2 13 1 4 0 7 4 7 10 0 6 7
9 15 6 8 -4 17 -2 21 4 3 6 12 8 20 5 8 -3 14 -1 14 5 0 6 4 8 9 4 5 -3 12 -1
16 5 4 6 10 8 15 5 5 -3 11 -1 15 5 10 16 18 12 47 -24z m159 -45 c12 21 34
-5 24 -28 -5 -10 -7 -22 -6 -26 1 -5 -3 -6 -8 -3 -5 4 -11 3 -13 -1 -2 -7 -58
-55 -135 -118 -7 -5 -19 -16 -28 -23 -8 -7 -15 -9 -15 -5 0 4 -6 1 -13 -7 -24
-30 -142 -110 -162 -110 -4 0 -5 9 -2 19 6 23 -17 35 -41 22 -20 -11 -52 4
-52 24 0 8 -5 15 -10 15 -6 0 -5 6 2 14 7 8 17 12 21 9 4 -3 14 1 22 7 12 10
15 10 15 -1 0 -9 6 -7 18 7 9 11 31 26 47 34 38 17 36 16 63 25 12 4 22 11 22
16 0 5 8 9 18 9 9 0 35 16 57 35 22 19 51 37 64 40 13 3 33 17 43 31 16 20 23
22 40 13 16 -8 22 -8 29 2z m125 -104 c-3 -7 -9 -20 -12 -29 -4 -10 -13 -18
-20 -18 -8 0 -14 -6 -14 -14 0 -8 -9 -18 -20 -21 -11 -3 -20 -11 -20 -16 0 -5
-6 -9 -14 -9 -8 0 -22 -10 -30 -22 -9 -12 -16 -19 -16 -14 0 5 -9 -1 -20 -14
-11 -13 -20 -20 -20 -16 0 3 -14 -7 -31 -24 -33 -31 -64 -39 -71 -19 -3 8 -8
7 -18 -2 -8 -8 -22 -13 -30 -13 -8 1 -21 2 -29 3 -11 1 -10 5 4 21 10 11 21
18 24 16 4 -3 24 13 45 34 21 22 43 37 47 34 5 -3 9 0 9 5 0 6 5 11 11 11 6 0
26 16 45 35 19 20 39 33 44 30 6 -3 10 1 10 9 0 9 5 16 11 16 5 0 8 4 5 9 -5
8 13 17 52 26 8 2 16 6 19 9 10 9 44 -15 39 -27z m-7 -134 c-18 -8 -40 -20
-49 -27 -20 -17 -60 -27 -60 -14 0 5 9 12 20 15 11 3 20 12 20 20 0 8 4 12 9
9 5 -3 14 0 20 7 6 8 23 12 42 9 l32 -5 -34 -14z m-899 -531 c0 -9 -62 -34
-68 -27 -3 3 41 26 66 34 1 1 2 -3 2 -7z m83 -61 c-9 -11 -20 -18 -25 -15 -4
3 -8 0 -8 -6 0 -6 -4 -8 -10 -5 -5 3 -10 13 -10 21 0 8 4 12 10 9 5 -3 18 -1
27 4 28 16 34 13 16 -8z m-68 -20 c-3 -6 -11 -8 -17 -5 -6 4 -5 9 3 15 16 10
23 4 14 -10z"/>
<path d="M1851 2044 c-10 -12 -11 -18 -2 -23 6 -4 9 -15 5 -24 -4 -12 2 -18
23 -23 15 -4 33 -10 38 -15 16 -12 37 6 33 27 -2 11 -11 19 -21 19 -10 0 -27
12 -40 27 -20 24 -23 26 -36 12z"/>
<path d="M1988 2042 c-27 -5 -30 -32 -6 -41 30 -11 56 12 36 32 -7 7 -20 11
-30 9z"/>
</g>
</svg>
