<?xml version="1.0" standalone="no"?>
<!DOCTYPE svg PUBLIC "-//W3C//DTD SVG 20010904//EN"
 "http://www.w3.org/TR/2001/REC-SVG-20010904/DTD/svg10.dtd">
<svg version="1.0" xmlns="http://www.w3.org/2000/svg"
 width="579.000000pt" height="580.000000pt" viewBox="0 0 579.000000 580.000000"
 preserveAspectRatio="xMidYMid meet">
<metadata>
Created by potrace 1.13, written by Peter Selinger 2001-2015
</metadata>
<g transform="translate(0.000000,580.000000) scale(0.100000,-0.100000)"
fill="#000000" stroke="none">
<path d="M3088 5385 c-2 -2 -21 -6 -43 -9 -22 -4 -58 -12 -80 -17 -22 -6 -46
-12 -53 -13 -8 -1 -18 -9 -23 -17 -5 -8 -9 -10 -9 -5 0 5 -7 3 -15 -4 -8 -7
-15 -9 -15 -4 0 5 -6 2 -13 -7 -7 -9 -22 -19 -34 -23 -23 -7 -95 -61 -148
-110 -15 -14 -31 -26 -35 -26 -4 0 -13 -11 -20 -25 -7 -13 -16 -23 -19 -20 -4
2 -17 -10 -30 -26 -13 -16 -27 -26 -32 -23 -5 3 -9 2 -9 -3 0 -4 -12 -21 -26
-38 -14 -16 -37 -45 -52 -62 -14 -18 -32 -33 -39 -33 -7 0 -13 -3 -13 -7 0 -8
-25 -39 -81 -100 -16 -18 -29 -35 -29 -37 0 -3 -15 -22 -34 -42 -19 -21 -33
-41 -31 -45 3 -3 -4 -14 -15 -24 -11 -10 -18 -21 -15 -25 2 -4 -5 -17 -16 -29
-12 -12 -18 -25 -15 -28 3 -3 -1 -11 -10 -17 -8 -6 -19 -27 -24 -46 -23 -90
-36 -110 -67 -100 -5 1 -11 2 -15 1 -5 0 -8 4 -8 10 0 6 -9 9 -19 6 -11 -2
-38 -1 -60 3 -25 4 -41 4 -41 -3 0 -5 -5 -5 -13 2 -8 6 -16 8 -19 5 -4 -3 -19
-7 -35 -10 -46 -7 -78 -12 -80 -15 -2 -1 -7 -3 -13 -4 -5 -1 -13 -4 -17 -5 -5
-1 -12 -2 -16 -1 -4 1 -10 -6 -13 -14 -3 -8 -10 -12 -15 -10 -5 3 -23 -2 -41
-12 -18 -9 -37 -17 -41 -18 -4 0 -12 -7 -17 -15 -5 -8 -10 -11 -10 -7 0 10
-60 -25 -60 -35 0 -4 -5 -8 -11 -8 -6 0 -17 -7 -26 -15 -8 -8 -19 -13 -24 -10
-5 4 -9 -1 -9 -10 0 -9 -4 -14 -9 -10 -5 3 -16 -3 -23 -13 -7 -10 -18 -21 -24
-23 -16 -6 -134 -149 -134 -163 0 -6 -9 -19 -20 -29 -11 -9 -20 -24 -20 -32 0
-8 -4 -15 -10 -15 -5 0 -10 -7 -10 -15 0 -8 -5 -15 -12 -15 -6 0 -9 -2 -6 -6
3 -3 -7 -32 -23 -64 -32 -67 -39 -93 -43 -166 -2 -29 -7 -57 -10 -63 -4 -6 -4
-11 1 -11 4 0 8 -25 8 -55 0 -30 3 -55 8 -55 4 0 7 -6 6 -12 -4 -20 13 -92 24
-105 5 -7 6 -13 1 -13 -5 0 -1 -5 9 -11 9 -6 15 -14 12 -18 -2 -5 4 -16 15
-26 11 -10 18 -20 16 -24 -2 -3 11 -17 30 -31 18 -14 34 -29 34 -33 0 -17 137
-117 159 -117 4 0 16 -9 26 -20 10 -11 20 -18 23 -16 2 3 11 -2 19 -10 8 -8
18 -12 23 -9 5 3 11 1 15 -5 4 -6 11 -8 16 -5 5 4 9 2 9 -3 0 -6 11 -13 25
-16 13 -3 37 -11 52 -18 15 -6 35 -12 43 -14 23 -4 90 -25 133 -40 20 -8 37
-11 37 -8 0 4 6 2 13 -3 6 -6 20 -9 30 -8 9 2 17 0 17 -4 0 -4 6 -8 13 -8 6
-1 41 -9 77 -18 36 -10 72 -18 79 -20 8 -1 17 -7 19 -14 3 -9 -2 -11 -16 -6
-12 3 -43 8 -69 10 -26 3 -64 7 -83 11 -19 3 -52 7 -72 7 -21 1 -38 5 -38 8 0
3 -12 6 -27 6 -16 0 -59 4 -98 8 -38 4 -77 7 -85 6 -8 -1 -26 -1 -40 0 -38 1
-42 1 -80 -6 -19 -4 -51 -8 -70 -10 -19 -2 -37 -4 -40 -6 -3 -1 -9 -3 -15 -4
-5 -2 -13 -4 -17 -5 -5 -1 -11 -3 -15 -4 -5 -1 -34 -16 -65 -34 -69 -38 -73
-57 -21 -98 42 -34 72 -48 128 -59 22 -5 45 -9 50 -11 39 -9 86 -17 121 -19
23 -1 46 -5 53 -9 6 -4 11 -4 11 1 0 4 25 8 56 8 31 0 57 2 59 5 2 3 21 7 41
8 21 2 41 6 44 10 3 4 25 8 50 9 94 4 205 14 218 18 6 2 12 -2 12 -9 0 -8 -16
-17 -37 -22 -39 -8 -47 -10 -60 -14 -5 -1 -11 -2 -15 -1 -5 0 -8 -4 -8 -9 0
-6 -6 -10 -12 -8 -7 1 -23 -3 -35 -10 -12 -7 -26 -11 -30 -11 -7 2 -32 -7 -83
-28 -8 -3 -19 -5 -24 -4 -5 1 -16 -5 -26 -14 -9 -8 -20 -12 -23 -9 -4 4 -12 2
-19 -3 -15 -12 -90 -38 -100 -35 -5 1 -8 -2 -8 -7 0 -8 -37 -24 -52 -22 -5 1
-8 -3 -8 -8 0 -5 -11 -12 -25 -15 -14 -4 -25 -11 -25 -16 0 -6 -7 -10 -15 -10
-8 0 -15 -4 -15 -10 0 -5 -7 -10 -15 -10 -9 0 -18 -7 -21 -15 -4 -8 -10 -13
-15 -10 -4 3 -13 -4 -19 -15 -6 -11 -16 -20 -23 -20 -7 0 -21 -14 -32 -30 -11
-16 -25 -30 -30 -30 -6 0 -21 -14 -35 -31 -14 -17 -31 -37 -38 -44 -6 -8 -12
-17 -12 -21 0 -4 -8 -16 -17 -26 -9 -10 -17 -28 -19 -41 -1 -12 -3 -22 -4 -22
-3 0 -11 -39 -13 -62 -1 -13 -4 -23 -7 -23 -10 0 -5 -125 5 -132 6 -5 5 -8 -3
-8 -7 0 -10 -5 -6 -11 4 -7 9 -30 11 -53 4 -47 30 -131 50 -162 7 -11 10 -24
6 -27 -3 -4 0 -7 7 -7 7 0 10 -3 7 -6 -4 -4 2 -19 13 -34 11 -16 20 -33 20
-39 0 -6 4 -11 9 -11 5 0 11 -10 15 -22 7 -28 130 -161 152 -164 8 -1 23 -11
32 -21 33 -36 84 -73 93 -67 5 3 9 0 9 -5 0 -6 7 -11 15 -11 8 0 26 -12 40
-26 14 -14 31 -27 38 -28 7 -1 28 -11 47 -21 19 -11 38 -18 43 -17 4 1 7 -2 7
-6 0 -4 14 -9 31 -10 18 -1 36 -5 42 -9 15 -9 157 -11 157 -2 0 5 7 6 15 3 8
-4 15 -1 15 6 0 6 4 9 8 6 5 -3 25 6 44 19 20 13 38 21 42 18 3 -4 6 1 6 10 0
9 4 17 9 17 11 0 33 -59 25 -71 -3 -5 0 -9 5 -9 6 0 11 -4 11 -9 0 -5 10 -30
22 -57 12 -27 21 -52 20 -56 -1 -5 3 -8 8 -8 6 0 10 -7 10 -15 0 -8 4 -15 10
-15 5 0 9 -3 7 -8 -1 -4 8 -18 20 -31 12 -13 20 -28 17 -33 -3 -4 0 -8 5 -8 6
0 11 -5 11 -11 0 -6 6 -16 12 -23 7 -7 27 -30 43 -51 17 -21 42 -51 56 -66 15
-16 24 -30 22 -33 -3 -2 5 -9 16 -16 12 -6 21 -15 21 -21 0 -6 23 -33 50 -60
28 -27 50 -53 50 -59 0 -5 3 -10 8 -10 4 0 24 -15 44 -33 20 -17 58 -50 83
-72 26 -22 61 -49 79 -60 18 -11 45 -28 59 -38 14 -10 32 -20 40 -21 8 -1 21
-7 29 -13 7 -6 25 -14 41 -18 15 -4 27 -11 27 -15 0 -5 8 -7 18 -5 9 1 22 -1
27 -5 6 -5 13 -9 18 -9 4 -1 10 -2 15 -3 29 -5 182 -2 182 4 0 4 6 8 14 8 48
0 171 100 183 150 3 14 13 33 21 43 8 9 12 17 7 17 -4 0 -2 7 5 15 7 8 10 15
7 15 -3 0 -1 15 4 33 5 17 12 61 14 97 3 36 7 77 9 93 2 15 -1 30 -5 33 -5 3
-5 13 -1 22 5 9 7 26 6 37 -2 11 -5 43 -7 71 -2 28 -7 56 -11 62 -4 7 -2 12 5
12 8 0 8 4 -1 15 -9 11 -9 15 -1 15 7 0 9 5 5 12 -4 6 -8 21 -10 32 -1 12 -11
57 -23 100 -12 44 -21 88 -21 98 0 10 -4 18 -8 18 -4 0 -8 8 -9 18 -5 45 -15
85 -41 162 -3 8 -4 21 -3 27 1 7 -4 13 -10 13 -7 0 -10 3 -6 6 7 8 -18 82 -74
219 -7 17 -12 33 -11 38 1 4 -3 7 -8 7 -5 0 -10 3 -9 8 2 16 -14 52 -24 52 -6
0 -7 3 -4 6 3 4 1 16 -5 28 -7 11 -11 24 -10 29 1 4 -3 7 -8 7 -6 0 -10 9 -10
20 0 11 -5 20 -11 20 -5 0 -7 5 -4 10 3 6 1 10 -4 10 -6 0 -11 5 -11 11 0 5
-27 57 -60 114 -33 57 -60 109 -60 114 0 6 -4 11 -10 11 -5 0 -10 7 -10 15 0
8 -10 23 -22 35 -12 11 -18 20 -12 20 5 0 1 5 -9 11 -9 6 -15 14 -12 20 4 5 1
9 -4 9 -6 0 -11 7 -11 15 0 8 -5 15 -10 15 -6 0 -9 3 -8 8 2 4 -5 16 -15 27
-9 11 -18 25 -19 30 -2 6 -8 17 -15 25 -6 8 -40 52 -74 98 -34 46 -70 87 -79
92 -10 5 -20 19 -23 31 -5 19 -4 19 11 6 24 -20 52 -28 52 -15 0 6 3 8 7 5 3
-4 16 -1 28 7 21 14 25 13 56 -12 18 -15 40 -35 48 -45 9 -10 35 -39 58 -63
23 -24 39 -44 35 -44 -4 0 2 -7 12 -15 11 -8 16 -15 11 -15 -5 0 0 -9 11 -20
31 -31 44 -48 44 -59 0 -5 6 -11 13 -14 7 -2 21 -22 32 -42 11 -21 35 -54 52
-74 18 -20 33 -43 33 -52 0 -9 7 -20 16 -23 9 -4 14 -9 11 -12 -3 -4 5 -18 19
-32 13 -15 24 -35 24 -44 0 -10 5 -18 10 -18 6 0 10 -6 10 -14 0 -8 7 -17 16
-20 9 -4 14 -9 11 -12 -8 -8 31 -49 46 -50 22 -1 34 16 29 41 -2 14 -9 25 -14
25 -5 0 -7 4 -3 9 3 6 -4 15 -15 21 -11 6 -20 17 -20 25 0 8 -4 15 -10 15 -5
0 -10 6 -10 14 0 8 -7 17 -16 20 -8 3 -12 10 -9 16 3 5 1 10 -4 10 -6 0 -11 7
-11 15 0 8 -4 15 -9 15 -10 0 -86 112 -83 122 1 4 -7 10 -18 13 -11 4 -18 11
-15 16 4 5 -1 12 -9 15 -9 3 -13 10 -10 15 3 5 -2 12 -10 15 -9 3 -16 12 -16
19 0 8 -14 27 -31 44 -17 17 -28 31 -25 31 3 0 -2 9 -11 19 -37 40 -48 56 -45
63 1 5 -2 8 -6 8 -12 0 -52 35 -52 45 0 9 -62 65 -72 65 -15 0 -8 43 10 56 16
13 16 15 1 27 -14 11 -15 15 -4 31 11 14 11 22 2 37 -9 15 -7 23 16 47 15 15
27 33 27 39 0 7 8 18 18 25 9 7 29 32 44 55 15 22 37 52 50 65 13 12 33 43 45
68 13 25 36 60 53 79 16 18 30 39 30 46 0 6 11 22 25 35 13 12 22 27 19 31 -3
5 0 9 5 9 6 0 11 7 11 15 0 8 5 15 11 15 5 0 8 4 4 10 -3 5 10 25 29 45 20 20
35 39 34 43 -3 9 22 55 34 63 5 3 10 19 12 35 3 22 -1 34 -15 42 -16 10 -19 9
-19 -3 0 -8 -4 -15 -9 -15 -5 0 -14 -15 -22 -32 -7 -18 -23 -47 -36 -64 -13
-17 -20 -34 -16 -37 3 -4 2 -7 -4 -7 -6 0 -14 -11 -17 -25 -4 -14 -11 -25 -16
-25 -6 0 -10 -5 -10 -11 0 -6 -9 -23 -20 -39 -11 -15 -17 -30 -13 -34 3 -3 0
-6 -8 -6 -13 -1 -69 -81 -69 -99 0 -4 -9 -16 -20 -26 -11 -10 -20 -23 -20 -30
0 -7 -12 -25 -26 -41 -14 -16 -37 -45 -52 -64 -15 -19 -37 -45 -49 -57 -13
-12 -23 -27 -23 -32 0 -6 -14 -26 -31 -46 l-31 -35 -17 21 c-21 26 -67 32 -97
13 -17 -12 -24 -12 -30 -3 -4 7 -2 15 4 17 7 2 9 8 6 13 -3 6 4 18 15 28 12
10 21 21 21 25 0 4 12 18 27 32 14 13 23 27 20 30 -3 3 5 18 19 32 13 15 24
30 24 34 0 3 16 30 35 59 19 30 35 59 35 66 0 7 5 13 10 13 6 0 10 5 10 11 0
6 12 26 26 45 15 19 23 34 19 34 -5 0 0 9 10 20 10 11 14 20 10 20 -4 0 1 8
12 18 11 9 18 23 16 30 -3 6 0 12 6 12 6 0 11 7 11 15 0 8 5 15 12 15 6 0 9 3
5 6 -3 3 5 24 19 45 13 21 21 39 18 39 -4 0 1 9 11 20 10 11 14 20 10 20 -4 0
0 9 11 21 10 12 19 24 18 28 -2 14 9 41 17 41 5 0 6 7 3 15 -4 8 -1 15 5 15 6
0 11 6 11 13 1 6 9 30 20 52 11 22 19 46 20 53 0 6 5 12 11 12 6 0 9 6 6 14
-3 8 -2 16 3 18 5 2 11 14 14 28 2 14 5 27 6 30 2 3 2 8 1 13 0 4 4 7 10 7 6
0 9 7 5 15 -3 8 -2 15 2 15 10 0 33 61 26 71 -3 5 0 9 6 9 7 0 10 6 7 14 -3 8
-1 16 4 18 5 2 11 13 12 26 0 12 5 22 10 22 4 0 6 4 3 9 -3 5 1 28 9 52 15 40
24 79 30 124 1 11 4 20 5 20 3 0 7 27 12 72 2 18 6 33 9 33 3 0 6 12 6 28 4
84 14 206 18 210 3 3 0 11 -6 19 -6 7 -7 13 -2 13 5 0 8 42 6 98 -2 53 -4 105
-4 114 0 10 -4 20 -8 23 -5 2 -7 16 -6 30 2 14 -1 25 -6 25 -6 0 -8 4 -5 8 7
12 -15 82 -26 82 -5 0 -6 5 -3 10 3 6 1 10 -5 10 -6 0 -9 3 -7 8 3 4 -6 25
-19 47 -13 22 -27 48 -30 58 -4 9 -10 17 -14 17 -4 0 -24 15 -45 33 -21 17
-41 32 -44 32 -3 0 -11 4 -18 8 -13 8 -101 26 -105 22z m-475 -618 c4 3 7 2 7
-4 0 -6 10 -32 22 -59 12 -27 21 -55 20 -61 -2 -7 1 -13 5 -13 5 0 9 -9 10
-21 2 -20 2 -20 -18 2 -10 12 -19 19 -19 15 0 -4 -6 -1 -14 6 -8 7 -14 15 -13
18 0 3 -7 22 -16 42 -10 21 -17 42 -17 48 0 5 -5 10 -10 10 -6 0 -5 6 2 14 8
9 17 11 24 5 6 -5 14 -6 17 -2z m-86 -34 c-4 -3 0 -18 10 -32 15 -23 27 -71
18 -71 -2 0 -16 15 -30 34 -22 29 -24 38 -15 55 6 12 14 21 17 21 3 0 3 -3 0
-7z m268 -94 c11 -17 19 -34 18 -40 -2 -5 2 -9 7 -9 7 0 7 -6 1 -17 -6 -13 -2
-31 13 -63 33 -71 35 -73 54 -53 13 13 14 17 3 21 -10 3 -10 6 -1 12 9 5 8 11
-3 21 -7 8 -12 20 -9 27 2 6 -1 12 -7 12 -6 0 -9 13 -7 30 2 17 0 30 -4 30 -4
0 -7 6 -7 13 0 6 -2 19 -4 27 -3 9 4 16 18 18 19 3 23 -4 33 -51 13 -64 17
-86 25 -151 3 -27 8 -53 11 -58 12 -19 -43 -6 -70 17 -16 13 -33 22 -37 19 -5
-3 -9 4 -9 15 0 12 -4 21 -9 21 -5 0 -8 11 -5 24 3 17 -5 34 -26 58 -16 18
-31 39 -31 48 -1 8 -3 27 -4 41 -5 36 23 29 50 -12z m290 -25 c0 -10 4 -25 8
-31 5 -8 3 -13 -5 -13 -8 0 -9 -3 -3 -8 6 -4 10 -29 10 -57 0 -27 2 -62 6 -76
4 -14 3 -33 -2 -42 -6 -9 -5 -18 0 -22 6 -3 7 -15 2 -28 -4 -12 -6 -28 -4 -34
3 -7 -3 -13 -12 -13 -10 0 -15 7 -14 18 1 9 -2 26 -6 36 -5 11 -9 38 -9 60 0
47 -18 73 -35 52 -10 -12 -8 -46 4 -66 3 -6 1 -10 -5 -10 -7 0 -10 -7 -6 -15
3 -8 1 -15 -5 -15 -13 0 -17 13 -23 94 -4 38 -8 72 -11 75 -9 16 -14 101 -6
101 6 0 13 -5 16 -10 4 -6 11 -8 16 -5 5 4 9 -3 9 -14 0 -12 -5 -21 -11 -21
-8 0 -8 -5 1 -15 10 -12 10 -15 -1 -15 -11 0 -11 -3 1 -11 11 -8 12 -12 3 -16
-17 -6 -16 -30 1 -36 16 -6 40 16 29 26 -3 4 -1 12 5 19 5 7 8 26 7 43 -2 16
-1 34 3 40 4 5 7 13 8 18 1 4 2 10 3 13 3 14 26 -5 26 -22z m169 -69 c3 -9 0
-15 -8 -15 -7 0 -13 7 -13 15 0 8 4 15 8 15 4 0 9 -7 13 -15z m-69 -57 c0 -15
-3 -28 -7 -28 -4 0 -3 -13 2 -29 4 -16 6 -31 4 -34 -5 -5 -12 -38 -18 -86 -3
-19 -9 -38 -14 -43 -7 -7 -8 4 -4 28 3 22 6 80 6 131 1 75 4 91 16 90 10 0 15
-11 15 -29z m92 -8 c-1 -11 -5 -20 -9 -20 -3 0 -6 -8 -6 -17 2 -41 -19 -112
-38 -131 -18 -17 -17 -10 1 61 25 95 56 159 52 107z m-788 -379 c23 -24 68
-48 80 -42 1 1 11 -13 20 -31 15 -28 15 -35 3 -49 -11 -14 -11 -18 0 -21 9 -3
13 -24 13 -66 0 -34 -3 -62 -6 -62 -12 0 -40 26 -43 40 -4 24 -39 90 -47 90
-4 0 -6 9 -4 19 2 10 -5 28 -16 40 -10 11 -19 27 -19 36 0 8 -4 15 -8 15 -5 0
-9 6 -9 13 0 6 -4 20 -8 30 -11 27 14 21 44 -12z m-99 -15 c0 4 6 -1 14 -11 8
-11 12 -23 10 -27 -3 -5 0 -8 5 -8 6 0 11 -9 11 -20 0 -11 5 -20 10 -20 6 0 9
-3 8 -7 -3 -14 14 -63 22 -63 8 0 23 -38 21 -52 -1 -5 4 -8 10 -8 5 0 8 -4 4
-9 -3 -6 2 -14 11 -19 9 -5 16 -13 16 -18 1 -5 4 -18 6 -29 3 -11 6 -22 6 -25
0 -3 8 -14 18 -25 11 -11 14 -21 8 -23 -5 -2 -10 -10 -10 -18 0 -14 -33 -15
-46 -2 -7 8 -44 -11 -60 -32 -10 -11 -8 -18 7 -31 19 -17 19 -17 -8 -37 -22
-17 -25 -23 -16 -33 10 -10 9 -16 -4 -31 -9 -10 -23 -18 -32 -17 -9 0 -11 3
-5 5 13 5 7 44 -7 44 -5 0 -6 7 -3 15 4 8 2 15 -4 15 -5 0 -8 10 -7 23 1 12
-5 37 -12 56 -7 18 -11 37 -8 41 3 5 1 11 -5 15 -5 3 -10 17 -10 31 0 13 -4
24 -10 24 -5 0 -9 3 -9 8 1 4 1 9 -1 12 -1 3 -4 16 -7 30 -7 38 -11 55 -13 58
-2 1 -4 7 -5 12 -1 6 -4 13 -5 18 -1 4 -2 10 -1 15 0 4 -4 7 -10 7 -6 0 -9 6
-6 14 3 7 -1 23 -9 34 -13 19 -13 20 15 9 35 -13 57 -53 41 -72 -8 -10 -5 -17
11 -29 19 -13 20 -18 9 -30 -10 -13 -9 -17 3 -22 9 -3 21 -3 27 1 14 8 13 32
-1 37 -13 4 -21 56 -12 71 9 14 9 98 1 103 -4 3 -5 11 -1 20 4 11 9 12 19 3 8
-6 14 -8 14 -3z m-236 -285 c-2 -2 1 -10 7 -18 6 -7 8 -13 5 -13 -4 0 -1 -10
6 -22 7 -13 11 -29 10 -35 -2 -7 2 -13 8 -13 5 0 9 -3 9 -7 -1 -5 0 -10 1 -13
3 -8 9 -43 13 -75 3 -16 8 -38 12 -48 4 -10 5 -21 1 -24 -3 -3 0 -13 6 -22 11
-14 10 -14 -6 0 -9 9 -19 25 -21 35 -2 10 -4 20 -5 22 -2 1 -3 7 -4 12 0 6 -5
14 -11 18 -5 4 -10 12 -11 17 -1 26 -17 65 -27 65 -6 0 -7 3 -4 7 4 3 -1 12
-11 20 -9 8 -12 12 -5 8 22 -10 33 29 17 59 -19 38 -19 62 0 44 8 -7 12 -15
10 -17z m-75 -101 c9 -29 9 -30 -11 -19 -15 8 -22 8 -28 -1 -6 -9 -9 -9 -15
-1 -5 9 28 51 41 51 1 0 7 -14 13 -30z m21 -56 c0 -8 7 -22 15 -30 8 -9 15
-24 15 -35 0 -10 4 -19 8 -19 9 0 46 -79 43 -92 0 -5 4 -8 10 -8 6 0 9 -7 5
-15 -3 -8 -2 -15 2 -15 4 0 8 -11 8 -25 2 -25 -10 -33 -21 -15 -4 6 -11 8 -16
5 -5 -4 -9 -3 -10 2 0 4 -3 17 -5 28 -2 11 -5 28 -6 38 -1 9 -6 17 -10 17 -4
0 -8 9 -8 20 0 11 -5 20 -11 20 -5 0 -8 4 -4 10 3 5 -3 18 -15 30 -11 11 -17
20 -14 20 3 0 -3 12 -14 28 -15 20 -17 30 -8 39 16 17 36 16 36 -3z m-57 -96
c-2 -5 1 -8 8 -8 7 0 9 -3 6 -6 -4 -4 3 -20 14 -35 11 -16 18 -29 14 -29 -3 0
-3 -6 2 -12 17 -28 11 -37 -22 -34 -34 3 -89 38 -78 49 3 4 -2 9 -11 13 -9 3
-16 10 -16 15 0 9 -9 22 -39 55 -19 21 -7 29 18 12 12 -8 18 -18 15 -21 -4 -4
-1 -13 6 -21 11 -14 14 -14 27 0 12 11 12 18 3 29 -6 8 -9 19 -5 25 3 5 2 10
-3 10 -5 0 -7 14 -4 31 l4 30 33 -48 c18 -26 31 -51 28 -55z m-114 -75 c9 -7
11 -13 5 -13 -16 0 -45 35 -37 44 4 4 10 1 12 -6 2 -7 11 -18 20 -25z m7 -72
c12 -11 24 -18 26 -16 6 6 52 -37 77 -72 12 -18 19 -33 14 -33 -4 0 -1 -5 7
-11 11 -8 9 -9 -10 -3 -14 4 -27 10 -30 14 -3 4 -20 11 -37 15 -18 3 -33 11
-33 16 0 5 -3 8 -7 7 -5 -1 -23 6 -40 15 -18 10 -36 18 -40 18 -5 1 -19 7 -33
15 l-25 13 23 7 c14 4 22 14 22 28 0 13 3 25 6 29 8 8 52 -15 80 -42z m152
-30 c1 -1 4 -1 7 -1 3 0 20 -6 39 -14 19 -8 37 -12 39 -9 3 2 8 0 12 -6 3 -6
2 -11 -2 -11 -11 0 -10 -41 1 -59 6 -10 12 -9 26 4 14 12 20 13 26 4 4 -7 0
-17 -10 -25 -11 -7 -16 -20 -12 -31 3 -10 1 -25 -4 -33 -9 -12 -18 -6 -55 35
-25 28 -45 56 -45 63 0 6 -4 12 -10 12 -5 0 -10 6 -10 14 0 7 -9 25 -20 39
-20 25 -16 28 18 18z m-232 -74 c41 -8 264 -116 264 -128 0 -11 -26 -5 -44 10
-9 7 -16 10 -16 6 0 -4 -7 -2 -16 6 -13 10 -17 10 -25 -2 -13 -21 -11 -27 11
-34 22 -7 28 -35 8 -35 -7 0 -32 9 -55 20 -24 10 -43 16 -43 13 0 -3 -7 0 -15
7 -8 7 -15 9 -15 4 0 -5 -4 -3 -8 3 -4 7 -17 14 -27 16 -11 2 -33 9 -48 15
-16 7 -33 12 -38 12 -6 0 -9 6 -6 13 4 12 22 13 70 3 25 -6 28 -4 25 16 -2 16
-11 24 -28 26 -25 4 -52 31 -43 45 3 4 10 3 17 -2 7 -6 21 -12 32 -14z m-14
-155 c7 -7 19 -12 28 -12 8 -1 33 -9 55 -20 22 -10 43 -16 47 -14 5 3 8 0 8
-6 0 -6 3 -9 8 -6 4 2 16 -2 27 -10 19 -14 18 -15 -10 -10 -16 2 -30 5 -30 6
0 1 -13 4 -30 6 -16 2 -43 6 -60 9 -16 4 -37 7 -45 9 -9 1 -20 5 -25 8 -6 3
-18 4 -28 2 -26 -4 -33 24 -11 41 21 16 49 14 66 -3z m319 -54 c14 -26 6 -32
-23 -16 -12 7 -24 13 -26 14 -1 1 0 8 4 17 7 19 31 11 45 -15z m-121 -83 c14
-2 27 -3 29 -4 2 -1 -2 -7 -8 -14 -6 -8 -7 -18 -3 -23 4 -4 -1 -2 -10 5 -10 7
-23 11 -30 9 -7 -3 -17 -1 -23 4 -5 5 -19 16 -30 24 -19 15 -18 15 15 9 19 -4
46 -8 60 -10z m80 -126 c0 -6 -4 -7 -10 -4 -5 3 -10 11 -10 16 0 6 5 7 10 4 6
-3 10 -11 10 -16z m-110 -256 c0 -7 6 -13 13 -14 6 0 -3 -7 -21 -15 -18 -8
-37 -12 -43 -9 -5 4 -9 1 -9 -5 0 -7 -7 -10 -15 -6 -8 3 -15 1 -15 -5 0 -6 -6
-9 -14 -6 -7 3 -18 1 -23 -4 -6 -6 -10 -4 -10 7 0 18 52 54 80 54 9 0 17 4 17
8 0 4 9 8 20 8 11 0 20 -6 20 -13z m-32 -104 c-20 -13 -28 -11 -22 5 3 8 12
12 21 9 12 -5 12 -7 1 -14z m172 -9 c-29 -22 -44 -21 -48 5 -3 14 1 17 22 13
15 -3 29 -1 32 4 3 5 9 6 12 3 4 -4 -4 -15 -18 -25z m-239 -17 c13 -17 13 -17
-6 -3 -11 8 -22 16 -24 17 -2 2 0 3 6 3 6 0 17 -8 24 -17z m287 -23 c-23 -18
-38 -18 -38 1 0 6 4 8 9 5 5 -3 14 1 21 9 7 8 16 12 21 9 5 -3 -1 -14 -13 -24z
m-168 1 c0 -6 -5 -13 -10 -16 -6 -4 -8 -10 -5 -15 3 -4 -2 -10 -10 -14 -8 -3
-15 0 -15 6 0 6 -10 4 -22 -6 -28 -20 -70 -40 -80 -38 -5 1 -8 -3 -8 -8 0 -6
-8 -5 -19 2 -20 12 -18 32 2 25 6 -2 19 5 29 15 10 10 23 16 27 13 5 -2 12 2
15 11 3 8 10 13 14 10 5 -3 18 1 28 9 22 16 54 20 54 6z m56 -45 c18 -19 18
-26 -1 -26 -8 0 -15 -5 -15 -11 0 -5 -4 -7 -10 -4 -5 3 -10 1 -10 -5 0 -6 -4
-9 -8 -6 -5 3 -20 -5 -33 -17 -13 -12 -26 -21 -29 -21 -3 1 -15 -2 -28 -7 -13
-5 -28 -9 -33 -9 -5 0 -9 -4 -9 -10 0 -5 -9 -10 -20 -10 -30 0 -24 15 15 36
19 10 35 23 35 27 0 5 7 7 15 3 9 -3 21 4 31 19 12 18 22 23 39 19 17 -4 24 0
28 15 6 25 13 26 33 7z m152 -18 c-3 -14 32 -78 43 -78 3 0 4 -11 1 -25 -2
-14 -8 -22 -13 -20 -4 3 -25 -2 -46 -11 -42 -19 -93 -25 -93 -11 0 5 -8 3 -17
-4 -22 -17 -1 11 72 99 54 65 57 69 53 50z m-124 -67 c-5 -3 -20 -23 -34 -43
-14 -21 -28 -38 -31 -38 -3 0 -14 9 -24 20 -18 20 -18 21 1 34 10 8 22 12 26
10 5 -3 8 0 8 5 0 6 7 11 15 11 8 0 15 5 15 11 0 5 5 7 10 4 6 -3 10 0 11 7 0
10 2 10 6 -1 3 -7 1 -16 -3 -20z m-124 -121 c0 -5 -5 -10 -11 -10 -6 0 -17 -7
-25 -15 -9 -8 -21 -15 -27 -15 -7 1 2 12 18 25 32 27 45 31 45 15z m253 -20
c-3 -14 -10 -33 -15 -43 -5 -10 -7 -21 -4 -24 3 -3 0 -15 -6 -27 -7 -11 -13
-24 -14 -28 -1 -5 -3 -10 -4 -13 -1 -3 -4 -9 -5 -15 -1 -5 -4 -13 -5 -17 -1
-5 -2 -11 -2 -15 1 -3 -5 -12 -13 -18 -8 -7 -15 -20 -16 -29 0 -11 -3 -10 -11
7 -6 12 -16 22 -22 22 -7 0 -8 3 -1 8 11 7 33 53 31 63 0 3 5 13 13 22 7 10
10 17 5 17 -5 0 -3 4 3 8 7 4 15 23 17 42 7 53 16 69 36 67 15 -1 18 -7 13
-27z m-117 -3 c16 6 19 -23 3 -32 -5 -4 -9 -14 -7 -23 2 -10 -5 -25 -16 -34
-22 -20 -36 -23 -36 -7 0 5 -4 7 -10 4 -5 -3 -18 -1 -27 4 -10 6 -12 11 -5 11
6 0 12 7 12 15 0 8 3 15 8 15 4 0 16 13 27 30 11 17 23 26 29 20 4 -4 15 -6
22 -3z m266 -59 c5 -42 2 -98 -6 -98 -5 0 -3 -7 4 -15 7 -8 8 -15 3 -15 -9 0
-11 -11 -16 -87 -1 -24 -4 -43 -7 -43 -3 0 -6 -8 -7 -17 -4 -58 -32 -153 -45
-153 -5 0 -6 5 -3 10 3 6 0 10 -7 10 -10 0 -10 2 1 9 10 6 10 10 1 16 -8 5 -8
11 2 23 8 10 14 29 13 45 0 15 2 27 5 27 3 0 5 12 6 28 0 26 6 62 22 132 4 19
7 47 7 63 -1 15 2 27 6 27 4 0 6 11 4 25 -1 14 2 25 6 25 5 0 10 -6 11 -12z
m-305 -69 c-9 -6 -15 -14 -13 -18 3 -4 -6 -20 -19 -37 -13 -16 -24 -23 -25
-16 0 6 5 12 11 12 6 0 9 5 7 12 -5 14 42 71 51 62 3 -3 -2 -10 -12 -15z m387
-14 c9 -19 16 -38 16 -41 -1 -4 4 -11 12 -15 10 -7 10 -9 1 -9 -7 0 -13 -9
-13 -20 0 -11 4 -20 10 -20 5 0 7 -15 4 -32 -3 -18 -6 -41 -7 -50 -1 -10 -6
-18 -11 -18 -5 0 -1 -6 10 -14 25 -19 37 -7 54 54 7 27 17 50 20 50 14 0 19
-13 10 -29 -10 -20 3 -47 18 -37 5 3 12 -8 14 -24 3 -17 1 -30 -3 -30 -5 0 -6
-6 -3 -14 3 -7 -1 -20 -9 -27 -7 -8 -12 -20 -9 -27 2 -6 -2 -12 -8 -12 -7 0
-10 -7 -6 -15 3 -8 1 -15 -4 -15 -5 0 -7 -7 -4 -15 4 -8 1 -15 -6 -15 -6 0 -8
-4 -5 -10 3 -5 1 -10 -5 -10 -7 0 -10 -7 -6 -15 3 -8 1 -15 -5 -15 -6 0 -9 -7
-5 -15 3 -8 1 -15 -5 -15 -6 0 -9 -5 -7 -12 4 -12 -37 -58 -51 -58 -12 0 -5
144 7 148 10 3 -12 57 -28 67 -9 6 -23 -12 -27 -34 -5 -37 -26 -70 -44 -68
-10 1 -19 2 -19 3 0 1 7 18 16 39 8 20 13 40 10 43 -3 3 -1 11 5 19 6 7 8 13
5 13 -4 0 -2 9 4 19 5 11 13 36 16 56 3 21 8 47 10 59 8 36 17 110 16 128 0
10 3 20 8 23 4 3 6 14 3 25 -8 31 3 23 21 -15z m-199 16 c-5 -8 -13 -52 -17
-89 -1 -8 -5 -9 -11 -3 -5 5 -6 18 -2 28 4 10 9 24 11 31 4 23 13 42 19 42 4
0 4 -4 0 -9z m-62 -246 c-3 -9 -8 -14 -10 -11 -3 3 -2 9 2 15 9 16 15 13 8 -4z
m459 -52 c-9 -3 -8 -11 6 -31 20 -30 21 -70 2 -82 -7 -4 -9 -13 -6 -19 4 -6 2
-11 -3 -11 -6 0 -11 -13 -11 -29 0 -16 -7 -37 -16 -45 -8 -9 -12 -20 -9 -26 3
-5 1 -10 -5 -10 -7 0 -10 -6 -8 -12 6 -17 -14 -37 -29 -31 -7 3 -13 0 -13 -6
0 -8 -5 -9 -17 -2 -18 10 -24 41 -10 52 4 3 9 16 10 27 1 12 5 22 9 22 4 0 8
4 8 9 0 5 5 22 12 38 6 15 12 30 13 33 1 3 8 19 15 35 15 34 14 31 24 68 5 16
15 27 25 26 10 0 11 -2 3 -6z m673 -498 c2 -11 7 -30 11 -42 4 -15 2 -23 -5
-23 -7 0 -9 5 -6 10 3 6 1 10 -4 10 -6 0 -11 7 -11 15 0 8 -5 15 -12 15 -6 0
-9 3 -6 6 4 3 2 20 -3 37 l-9 31 20 -20 c11 -11 22 -29 25 -39z m-168 -8 c-1
-29 2 -58 7 -65 4 -7 2 -12 -5 -12 -8 0 -9 -3 0 -13 6 -8 8 -17 4 -20 -3 -4
-7 -35 -7 -69 -2 -70 -21 -92 -21 -23 0 25 5 45 10 45 6 0 5 4 -2 8 -8 5 -9
19 -4 42 4 19 4 47 0 63 -4 15 -3 27 1 27 5 0 7 9 5 20 -4 19 3 50 10 50 1 0
2 -24 2 -53z m-71 -12 c-4 -17 -2 -25 6 -25 8 0 9 -3 3 -8 -9 -6 -14 -71 -15
-189 0 -22 -5 -33 -15 -33 -8 0 -16 5 -16 10 -4 34 -3 70 3 70 3 0 5 14 4 30
-1 17 0 30 3 30 3 0 6 28 6 63 0 53 7 76 24 77 2 0 0 -11 -3 -25z m154 -21 c0
-7 -6 -14 -13 -17 -9 -3 -13 2 -11 16 1 12 3 27 3 32 2 13 21 -16 21 -31z
m-236 11 c-4 -9 0 -15 7 -15 9 0 10 -3 4 -8 -5 -4 -11 -25 -12 -47 -2 -38 -8
-85 -17 -130 -3 -11 -5 -25 -5 -31 -1 -7 -7 -14 -14 -17 -9 -3 -13 8 -13 39 0
24 3 44 7 44 3 0 5 12 3 27 -1 15 1 34 6 42 4 9 9 32 11 51 2 19 7 41 12 48
13 16 18 15 11 -3z m-73 -54 c-6 -10 -8 -21 -5 -24 3 -3 2 -12 -2 -19 -5 -7
-10 -24 -12 -37 -2 -13 -10 -40 -18 -59 -7 -19 -11 -38 -8 -43 3 -5 1 -9 -5
-9 -6 0 -8 -7 -5 -15 4 -8 1 -15 -6 -15 -6 0 -9 -4 -6 -9 3 -5 -1 -11 -9 -15
-8 -3 -18 0 -22 7 -10 17 -11 47 -1 47 4 0 8 7 8 15 0 8 5 14 11 13 17 -4 48
56 51 97 1 19 6 35 11 35 4 0 5 5 2 10 -9 14 1 40 15 40 7 0 8 -6 1 -19z m322
-30 c-5 -3 -8 -13 -8 -21 1 -8 -3 -21 -9 -28 -7 -9 -6 -16 3 -22 10 -6 10 -9
1 -15 -7 -4 -9 -17 -5 -32 4 -18 2 -24 -7 -21 -16 6 -19 88 -3 88 6 0 5 3 -2
8 -6 4 -9 19 -6 33 4 21 9 25 25 21 11 -2 16 -8 11 -11z m-497 -204 c-1 -11
-11 -26 -20 -33 -10 -7 -15 -17 -12 -23 4 -6 -5 -13 -19 -17 -14 -3 -25 -11
-25 -16 0 -6 -6 -5 -15 2 -11 9 -12 16 -5 25 5 6 8 14 5 17 -3 3 1 11 10 18 8
7 15 19 15 26 0 8 7 14 15 14 8 0 15 4 15 9 0 5 9 7 20 4 13 -3 18 -12 16 -26z
m-155 -48 c-5 -13 -10 -20 -10 -15 -1 5 -9 2 -18 -5 -17 -13 -17 -13 -3 6 37
49 47 54 31 14z"/>
<path d="M2421 3756 c-10 -12 -8 -17 6 -25 15 -7 22 -5 31 9 9 14 8 19 -4 24
-21 8 -20 8 -33 -8z"/>
<path d="M1900 3225 c-11 -13 -11 -19 1 -30 13 -13 16 -12 26 4 17 27 -8 49
-27 26z"/>
</g>
</svg>
