<?xml version="1.0" standalone="no"?>
<!DOCTYPE svg PUBLIC "-//W3C//DTD SVG 20010904//EN"
 "http://www.w3.org/TR/2001/REC-SVG-20010904/DTD/svg10.dtd">
<svg version="1.0" xmlns="http://www.w3.org/2000/svg"
 width="336.000000pt" height="518.000000pt" viewBox="0 0 336.000000 518.000000"
 preserveAspectRatio="xMidYMid meet">
<metadata>
Created by potrace 1.13, written by Peter Selinger 2001-2015
</metadata>
<g transform="translate(0.000000,518.000000) scale(0.100000,-0.100000)"
fill="#000000" stroke="none">
<path d="M3069 5147 c-36 -12 -87 -36 -115 -53 -27 -17 -79 -48 -116 -68 -37
-20 -80 -48 -97 -61 -16 -14 -61 -38 -99 -54 -38 -16 -88 -42 -111 -59 -56
-41 -133 -66 -176 -58 -27 5 -50 -1 -107 -27 -53 -25 -93 -36 -146 -41 -78 -7
-127 -23 -168 -55 -14 -11 -47 -27 -73 -36 -65 -21 -131 -84 -131 -125 0 -16
-2 -30 -4 -30 -3 0 -21 9 -40 21 -51 30 -219 49 -351 39 -22 -2 -63 0 -92 5
-45 7 -55 5 -83 -15 -22 -15 -56 -25 -113 -32 -76 -9 -84 -13 -131 -55 -58
-52 -86 -68 -149 -83 -53 -14 -77 -38 -101 -100 -23 -59 -29 -65 -95 -101 -73
-39 -90 -64 -106 -155 -10 -56 -21 -85 -42 -112 -56 -69 -65 -98 -61 -181 2
-65 9 -89 40 -152 20 -40 49 -86 63 -101 14 -15 25 -30 25 -34 0 -11 74 -73
105 -88 17 -9 57 -34 90 -56 33 -22 76 -45 95 -50 19 -6 57 -31 83 -55 l49
-45 -59 -1 c-95 -2 -118 -10 -121 -42 -4 -32 9 -47 69 -77 24 -13 46 -26 49
-30 3 -4 20 -15 37 -24 44 -22 41 -26 -9 -14 -52 12 -240 5 -478 -18 -195 -19
-213 -25 -251 -94 -13 -22 -28 -40 -35 -40 -26 0 -35 -32 -39 -135 -3 -87 -9
-116 -30 -162 -35 -78 -34 -139 4 -195 37 -54 38 -59 22 -134 -17 -78 -4 -122
49 -174 31 -30 39 -47 45 -91 11 -83 37 -122 105 -154 57 -27 80 -55 80 -94 0
-27 40 -58 85 -64 30 -5 48 -16 78 -52 30 -35 45 -45 68 -45 38 0 67 -15 100
-51 23 -26 32 -29 87 -29 l62 0 -10 -26 c-17 -44 -12 -138 8 -165 10 -13 26
-37 34 -54 62 -123 81 -151 114 -171 52 -31 130 -109 156 -155 12 -21 25 -39
29 -39 4 0 29 -21 54 -48 41 -41 95 -134 95 -163 0 -5 8 -19 19 -30 31 -33 78
-131 95 -199 17 -66 20 -73 75 -171 52 -94 173 -182 251 -182 54 0 131 36 179
85 41 41 131 200 167 293 52 135 96 300 119 445 53 335 69 522 61 740 -3 102
-12 217 -20 255 -7 39 -21 108 -31 155 -31 158 -121 390 -200 518 -25 40 -25
42 -6 42 11 0 24 -6 28 -14 20 -33 93 -47 134 -26 17 10 24 1 67 -87 45 -92
55 -119 87 -233 27 -93 46 -189 65 -328 11 -79 24 -161 30 -182 14 -52 46 -90
76 -90 21 0 24 4 24 38 0 21 -4 42 -8 47 -16 19 -53 115 -63 167 -6 29 -17 94
-24 143 -8 50 -23 128 -34 175 -17 74 -32 120 -84 255 -7 17 -27 56 -44 87
-18 32 -33 60 -33 62 0 3 32 4 72 3 l72 -2 9 38 c11 46 -7 72 -57 83 -49 10
-50 14 -7 37 85 46 204 143 313 254 62 64 138 141 168 172 38 39 86 73 158
110 93 49 102 56 102 82 0 27 -3 29 -38 29 -59 0 -150 -65 -282 -200 -63 -65
-128 -133 -145 -152 -48 -53 -214 -192 -285 -237 l-65 -42 -7 32 c-7 39 -31
59 -69 59 -28 0 -89 29 -89 42 0 4 37 26 83 49 81 41 179 100 203 122 6 7 29
26 49 42 91 72 226 205 277 270 12 17 38 47 57 67 18 21 41 48 49 60 9 13 19
25 22 28 4 3 27 34 51 69 137 201 293 513 383 767 88 246 118 544 72 698 -22
71 -57 111 -110 125 -60 15 -79 13 -157 -12z m65 -399 c-9 -59 -14 -60 -14 -5
0 26 5 47 10 47 6 0 8 -16 4 -42z m-804 -332 c0 -2 -7 -7 -16 -10 -8 -3 -12
-2 -9 4 6 10 25 14 25 6z m200 -17 c0 -5 -7 -9 -15 -9 -8 0 -15 7 -15 15 0 9
6 12 15 9 8 -4 15 -10 15 -15z m-80 -9 c8 -11 22 -20 32 -20 13 0 18 -8 18
-25 0 -18 5 -25 20 -25 15 0 20 7 20 29 0 24 4 28 19 24 34 -9 34 -30 0 -198
-18 -84 -69 -205 -69 -162 0 24 -37 22 -45 -3 -3 -11 -12 -20 -19 -20 -10 0
-13 44 -12 210 1 212 5 233 36 190z m-130 -41 c0 -5 -9 -9 -19 -9 -11 0 -21
-6 -24 -12 -2 -8 -8 -9 -13 -4 -5 5 -4 11 4 13 6 3 12 11 12 18 0 8 7 11 20 8
11 -3 20 -9 20 -14z m42 -34 c10 -4 12 -28 10 -100 -2 -52 -8 -95 -13 -95 -5
0 -9 5 -9 10 0 6 -7 10 -15 10 -9 0 -15 9 -15 25 0 14 -4 25 -10 25 -5 0 -10
5 -10 10 0 6 -11 21 -25 34 -17 15 -25 33 -24 52 1 24 3 25 6 7 7 -35 33 -30
76 14 14 15 12 14 29 8z m288 -95 c5 0 11 -13 15 -29 5 -23 12 -31 35 -33 l28
-3 -42 -105 c-80 -197 -115 -272 -132 -277 -6 -2 -19 12 -30 32 -10 19 -22 35
-26 35 -15 0 -8 27 22 81 32 61 100 259 100 295 0 12 3 31 8 41 6 15 8 13 10
-9 2 -16 7 -28 12 -28z m50 30 c0 -11 -4 -20 -10 -20 -5 0 -10 9 -10 20 0 11
5 20 10 20 6 0 10 -9 10 -20z m71 -220 c5 0 9 -9 9 -19 0 -11 5 -21 10 -23 11
-3 -40 -117 -98 -215 -28 -48 -42 -63 -59 -63 -30 0 -29 14 5 86 16 32 48 106
73 164 24 57 45 96 47 87 2 -9 8 -17 13 -17z m-1318 -175 c9 -27 21 -72 29
-99 7 -27 19 -51 26 -53 6 -3 12 -14 12 -24 0 -11 4 -25 10 -32 49 -61 74 -87
86 -87 8 0 14 -2 14 -4 0 -2 3 -11 6 -20 4 -11 1 -16 -10 -16 -19 0 -22 -46
-3 -54 6 -3 -5 -3 -25 0 -34 6 -38 4 -38 -15 0 -11 5 -21 12 -21 6 0 8 -3 5
-7 -10 -9 -47 32 -47 52 0 17 -18 19 -52 6 -21 -8 -29 -2 -77 65 -46 65 -54
83 -62 141 -4 38 -9 91 -9 118 -1 28 -7 66 -13 85 l-13 35 50 1 c32 0 51 5 54
14 6 17 25 -19 45 -85z m104 69 c25 -7 37 -51 52 -189 5 -49 13 -99 17 -110 7
-18 6 -18 -9 -6 -9 7 -27 30 -39 50 -12 20 -25 38 -28 41 -4 3 -17 43 -30 90
-13 47 -27 93 -32 102 -6 13 -3 18 15 21 12 2 24 5 27 6 3 0 15 -2 27 -5z
m-273 -136 c13 -80 13 -81 -4 -58 -21 29 -61 75 -93 108 l-22 22 30 -6 c27 -5
31 -2 43 28 13 32 14 32 22 10 5 -12 16 -59 24 -104z m1546 69 c0 -12 -12 -31
-26 -42 -21 -16 -24 -24 -19 -51 5 -29 2 -34 -25 -47 -37 -19 -37 -14 0 54 16
30 30 62 30 72 0 9 5 17 10 17 6 0 10 7 10 16 0 8 5 12 10 9 6 -3 10 -16 10
-28z m-1120 -31 c0 -3 -7 -6 -15 -6 -9 0 -15 -9 -15 -25 0 -14 5 -25 10 -25 6
0 10 -11 10 -25 0 -13 7 -28 15 -33 13 -7 13 -14 4 -41 -6 -18 -9 -49 -5 -71
4 -28 2 -39 -8 -43 -17 -7 -43 93 -53 200 -5 54 -4 63 11 63 10 0 16 8 16 21
0 18 2 19 15 5 8 -8 15 -17 15 -20z m-609 -12 c-5 -16 -10 -21 -10 -12 -1 18
10 51 15 45 2 -1 -1 -16 -5 -33z m138 -124 c17 -19 34 -44 37 -55 4 -11 10
-22 13 -25 4 -3 17 -22 30 -43 13 -21 28 -43 35 -50 18 -18 46 -60 46 -69 0
-16 -26 -8 -40 12 -8 11 -19 20 -25 20 -5 0 -16 14 -23 30 -8 17 -21 30 -31
30 -22 0 -41 19 -41 42 0 12 -8 18 -22 19 -17 1 -19 2 -5 6 9 2 17 14 17 25 0
16 -5 19 -25 16 -14 -3 -25 -1 -25 3 0 5 -7 9 -15 9 -8 0 -15 9 -15 20 0 11 5
20 10 20 6 0 10 9 10 20 0 13 -7 20 -20 20 -25 0 -27 27 -2 32 10 3 26 -6 38
-21 12 -14 36 -42 53 -61z m-139 -1239 c0 -15 -30 -41 -46 -41 -8 0 -14 -7
-14 -15 0 -8 -7 -15 -15 -15 -14 0 -86 -30 -95 -40 -3 -3 -48 -19 -100 -35
-52 -15 -104 -34 -116 -42 -11 -7 -24 -10 -27 -6 -11 10 -8 43 3 43 5 0 16 16
24 35 8 19 21 35 28 35 7 0 30 5 51 11 26 7 37 15 37 29 0 17 5 19 45 13 39
-5 45 -3 46 13 1 17 2 17 6 2 5 -22 43 -24 43 -3 0 10 16 15 58 18 31 2 60 4
65 5 4 1 7 -2 7 -7z m200 -29 c0 -5 11 -14 25 -20 14 -6 25 -18 25 -27 0 -8 6
-15 14 -15 39 0 25 -43 -29 -96 -25 -23 -44 -32 -84 -37 -64 -8 -110 -33 -273
-147 -124 -87 -148 -100 -148 -81 0 5 -10 11 -22 13 -12 2 -28 14 -35 27 -10
22 -9 27 10 39 29 19 157 152 157 163 0 13 100 75 153 94 26 10 50 22 53 26 7
12 24 11 24 -1 0 -5 -27 -21 -60 -37 -41 -18 -60 -33 -60 -45 0 -22 19 -23 68
-3 24 10 38 12 40 5 5 -13 49 -13 57 0 3 6 15 10 25 10 10 0 25 7 34 15 8 8
20 15 27 15 14 0 4 63 -11 68 -13 5 -13 42 0 42 6 0 10 -4 10 -8z m-436 -194
c-17 -18 -39 -42 -50 -54 -10 -11 -34 -31 -51 -43 l-33 -22 0 28 c0 15 -3 38
-6 49 -5 19 2 25 68 47 99 34 108 33 72 -5z m481 -55 c-8 -16 -18 -39 -23 -53
-5 -14 -31 -51 -56 -82 -25 -31 -46 -61 -46 -67 0 -6 -6 -11 -14 -11 -7 0 -19
-7 -26 -15 -11 -13 -80 -38 -87 -32 -1 2 44 50 100 108 57 57 116 121 131 142
34 44 39 47 21 10z m-120 -35 c-125 -133 -230 -228 -244 -222 -34 15 -81 16
-81 3 -1 -10 -5 -8 -15 4 -13 18 -5 25 107 99 67 44 127 86 135 93 7 8 29 19
48 26 19 7 35 16 35 20 0 7 20 15 45 18 5 0 -9 -18 -30 -41z m696 -652 c2 -25
3 -16 -11 -102 -17 -104 -49 -242 -73 -308 -17 -50 -22 -56 -32 -42 -15 20
-45 21 -45 1 0 -22 -30 -34 -57 -22 -28 13 -29 27 -3 55 11 12 20 27 20 35 0
8 18 52 39 98 21 46 42 103 46 126 3 22 13 49 20 60 8 10 15 35 15 56 0 29 4
37 19 37 10 0 21 9 24 20 7 26 37 16 38 -14z m129 -6 c4 -14 -5 -81 -20 -155
-34 -166 -37 -175 -61 -175 -11 0 -19 -7 -19 -16 0 -18 -24 -44 -40 -44 -8 0
-10 8 -5 23 4 12 11 46 16 76 5 30 12 57 14 61 6 10 32 151 34 183 0 16 8 35
16 43 8 9 15 20 15 25 0 22 44 3 50 -21z m-296 -50 c42 0 -4 -151 -109 -355
-42 -80 -42 -80 -90 -88 -49 -8 -95 3 -123 30 -14 13 -6 36 24 71 24 28 129
182 185 270 44 69 56 82 73 78 12 -3 29 -6 40 -6z m371 -40 c-8 -16 -15 -38
-15 -50 0 -11 -7 -23 -15 -26 -8 -4 -15 -13 -15 -22 0 -8 -3 -13 -6 -9 -11 10
19 117 33 117 7 0 13 5 13 10 0 6 5 10 10 10 6 0 4 -13 -5 -30z m-568 -66 c-3
-3 -12 -4 -19 -1 -8 3 -5 6 6 6 11 1 17 -2 13 -5z m-49 -63 c-8 -19 -94 -130
-100 -131 -5 0 -8 14 -8 30 0 20 -5 30 -15 30 -25 0 -17 17 13 25 31 8 62 33
62 50 0 8 10 10 25 7 14 -2 25 -8 23 -11z m372 -851 c-5 -16 -21 -41 -36 -55
-29 -27 -42 -33 -27 -12 5 6 22 31 37 55 16 23 30 42 32 42 1 0 -1 -13 -6 -30z
m-109 -33 c-5 -14 -15 -28 -22 -33 -7 -4 -10 -3 -6 3 4 6 11 23 17 38 6 15 13
26 16 23 2 -3 0 -17 -5 -31z"/>
<path d="M1597 1173 c-4 -3 -7 -15 -7 -25 0 -14 6 -19 23 -16 29 4 38 48 9 48
-10 0 -22 -3 -25 -7z"/>
<path d="M1570 1099 c0 -7 -14 -8 -40 -4 -36 6 -40 5 -40 -14 0 -12 6 -21 15
-21 8 0 15 -4 15 -10 0 -5 9 -10 19 -10 11 0 23 5 26 10 3 6 15 10 26 10 14 0
19 7 19 25 0 18 -5 25 -20 25 -11 0 -20 -5 -20 -11z"/>
<path d="M930 4520 c0 -13 7 -20 20 -20 13 0 20 7 20 20 0 13 -7 20 -20 20
-13 0 -20 -7 -20 -20z"/>
</g>
</svg>
