<?xml version="1.0" standalone="no"?>
<!DOCTYPE svg PUBLIC "-//W3C//DTD SVG 20010904//EN"
 "http://www.w3.org/TR/2001/REC-SVG-20010904/DTD/svg10.dtd">
<svg version="1.0" xmlns="http://www.w3.org/2000/svg"
 width="483.000000pt" height="474.000000pt" viewBox="0 0 483.000000 474.000000"
 preserveAspectRatio="xMidYMid meet">
<metadata>
Created by potrace 1.13, written by Peter Selinger 2001-2015
</metadata>
<g transform="translate(0.000000,474.000000) scale(0.100000,-0.100000)"
fill="#000000" stroke="none">
<path d="M1106 3638 c-9 -5 -16 -6 -16 -2 0 4 -8 0 -17 -9 -10 -8 -25 -17 -33
-19 -8 -2 -24 -14 -35 -28 -11 -14 -31 -38 -45 -53 -14 -16 -25 -32 -26 -35 0
-4 -6 -20 -13 -36 -6 -16 -9 -44 -6 -63 3 -20 1 -33 -6 -33 -6 0 -7 -5 -2 -12
9 -15 13 -35 15 -65 0 -13 3 -23 7 -23 4 0 6 -27 6 -60 -1 -34 2 -63 6 -65 4
-3 5 -14 2 -25 -3 -11 0 -27 7 -35 7 -8 10 -15 8 -15 -3 0 -2 -18 2 -40 4 -23
3 -40 -2 -40 -5 0 -6 -6 -1 -12 4 -7 8 -17 8 -23 1 -11 18 -115 21 -127 1 -5
3 -11 4 -15 1 -5 2 -12 1 -17 -1 -6 2 -19 8 -30 13 -25 33 -81 30 -81 -1 0 4
-11 11 -25 8 -14 15 -28 16 -32 1 -5 3 -11 4 -15 1 -5 2 -11 1 -15 0 -5 4 -8
9 -8 6 0 10 -6 10 -13 0 -7 9 -18 21 -25 11 -7 18 -19 15 -27 -2 -7 2 -16 11
-19 9 -4 13 -9 10 -12 -3 -3 6 -17 21 -30 26 -23 26 -25 8 -35 -10 -6 -27 -20
-37 -30 -11 -11 -23 -19 -29 -19 -5 0 -10 -3 -10 -7 0 -5 -13 -17 -30 -28 -16
-11 -37 -36 -47 -55 -10 -19 -26 -48 -37 -63 -10 -16 -19 -41 -21 -56 -1 -15
-5 -33 -10 -40 -11 -19 -17 -211 -6 -211 5 0 8 -16 6 -35 -2 -19 1 -37 6 -41
5 -3 7 -9 4 -14 -5 -8 28 -89 42 -104 4 -4 9 -12 9 -17 1 -5 2 -13 3 -18 3
-19 45 -20 61 -1 9 11 20 17 23 14 3 -4 13 0 21 9 14 13 14 16 -2 23 -9 4 -20
7 -23 6 -4 -1 -9 8 -12 18 -4 15 0 20 13 20 11 0 22 -5 26 -11 5 -8 9 -8 14 1
4 6 16 13 26 15 10 2 20 4 22 5 1 2 6 3 10 4 5 0 16 9 26 19 10 9 23 17 30 17
6 0 18 6 25 13 6 6 15 12 19 12 20 2 52 18 52 26 0 6 5 7 10 4 6 -4 17 -1 25
5 8 7 15 10 15 6 0 -4 14 0 30 9 17 9 30 13 30 9 0 -4 7 -1 15 6 8 7 15 9 15
5 0 -4 6 -3 13 3 8 7 18 6 31 -4 16 -11 16 -14 4 -14 -8 0 -28 -12 -44 -27
-33 -31 -43 -34 -63 -15 -11 11 -16 10 -27 -5 -7 -10 -14 -15 -14 -10 0 4 -9
-2 -20 -13 -12 -12 -25 -18 -30 -15 -6 4 -10 1 -10 -5 0 -6 -7 -13 -16 -17
-27 -10 -69 -54 -66 -68 4 -19 -16 -29 -32 -16 -22 18 -41 -12 -21 -32 20 -21
19 -39 -5 -60 -17 -14 -20 -14 -20 -2 0 8 5 15 12 15 20 0 -14 28 -37 30 -35
4 -45 0 -45 -14 0 -8 -6 -16 -12 -19 -15 -5 20 -81 58 -126 13 -15 21 -31 17
-34 -8 -8 65 -73 100 -89 15 -7 27 -17 27 -21 0 -5 4 -6 9 -3 11 7 77 -19 86
-34 4 -6 10 -8 15 -5 5 3 11 1 15 -5 17 -28 120 -60 190 -59 78 1 115 5 115
11 0 5 9 8 20 8 11 0 20 5 20 11 0 5 4 8 8 5 5 -3 21 2 36 9 16 8 32 13 36 10
4 -3 10 2 14 10 3 8 12 15 20 15 8 0 26 11 40 25 14 14 30 25 36 25 5 0 10 7
10 15 0 14 12 19 33 16 4 0 7 5 7 11 0 7 14 24 32 38 17 14 42 36 55 50 l23
24 -5 -24 c-2 -13 0 -29 6 -36 6 -7 8 -17 5 -22 -6 -10 36 -50 56 -53 20 -2
58 12 58 23 0 5 5 6 10 3 6 -3 10 -1 10 5 0 6 11 15 25 20 14 5 25 13 25 17 0
5 14 23 30 42 29 33 30 33 31 10 1 -59 11 -114 22 -122 9 -6 9 -10 -1 -14 -6
-2 -10 -9 -6 -14 4 -8 7 -18 17 -64 2 -5 5 -15 9 -20 3 -6 9 -27 13 -48 4 -20
11 -37 16 -37 5 0 8 -3 7 -7 -2 -12 32 -84 54 -116 11 -15 17 -27 15 -27 -5 0
47 -61 86 -101 15 -16 25 -29 22 -29 -4 0 8 -12 27 -27 18 -15 35 -31 38 -34
11 -14 101 -49 110 -44 6 3 10 1 10 -4 0 -10 74 -28 93 -23 4 1 7 -2 7 -7 0
-5 15 -13 33 -17 44 -9 117 -11 117 -2 0 4 11 3 24 -2 13 -5 26 -6 29 -4 3 3
20 6 38 6 19 1 43 7 53 14 11 7 26 10 35 5 19 -9 32 -8 49 2 6 5 17 5 22 2 6
-3 10 -2 10 3 0 11 70 33 82 26 4 -3 8 0 8 5 0 6 7 11 15 11 8 0 15 4 15 9 0
5 16 15 35 21 19 6 35 16 35 21 0 5 6 9 14 9 8 0 22 8 32 17 10 10 20 18 24
18 3 0 24 18 46 40 21 22 54 51 72 65 17 14 32 31 32 38 0 11 12 16 36 13 14
-2 26 27 18 41 -3 5 2 15 12 22 15 11 18 27 16 87 -1 80 -5 105 -14 115 -4 3
-4 17 -2 30 3 14 0 24 -7 24 -7 0 -9 3 -6 7 4 3 2 12 -4 20 -6 7 -8 13 -4 13
4 0 0 11 -9 25 -9 14 -15 26 -14 26 2 1 30 3 63 5 54 3 96 9 103 14 2 3 18 7
30 9 5 0 19 10 32 21 12 11 26 17 30 15 4 -3 11 2 14 11 3 8 10 13 14 10 5 -3
16 8 26 25 9 16 21 29 26 29 11 0 94 82 147 145 92 111 123 145 168 189 26 25
50 46 55 46 4 0 10 10 14 23 3 12 26 44 50 71 25 27 43 52 41 56 -2 3 6 18 19
31 13 14 29 42 37 62 7 20 17 37 23 37 5 0 7 3 4 6 -4 3 -2 19 2 35 5 16 5 29
1 29 -4 0 -7 10 -6 22 2 30 -33 89 -71 122 -18 14 -35 26 -39 26 -4 0 -20 11
-37 25 -16 14 -36 25 -44 25 -8 0 -14 5 -14 10 0 6 -4 10 -9 10 -5 0 -22 5
-38 12 -27 11 -43 15 -80 21 -10 1 -22 5 -28 8 -5 3 -25 5 -42 5 -18 -1 -33 1
-33 4 0 8 -285 4 -298 -4 -7 -4 -12 -2 -12 5 0 8 -3 9 -13 0 -8 -6 -16 -9 -18
-6 -3 2 -21 0 -41 -4 -23 -6 -40 -5 -47 2 -6 6 -11 7 -11 2 0 -6 -21 -11 -47
-12 -66 -2 -162 -11 -198 -17 -17 -3 -50 -8 -75 -12 -43 -5 -61 -8 -112 -18
-13 -3 -43 -8 -68 -11 -71 -10 -75 -11 -85 -17 -6 -3 -21 -4 -35 -3 -14 1 -41
-3 -60 -10 -19 -7 -41 -10 -47 -8 -7 3 -13 -1 -13 -7 0 -10 -4 -10 -15 0 -10
9 -15 9 -15 1 0 -6 -3 -10 -7 -10 -5 1 -10 0 -13 -1 -10 -3 -45 -11 -57 -12
-7 -1 -13 -6 -13 -11 0 -5 -7 -7 -15 -3 -8 3 -15 1 -15 -4 0 -5 -6 -7 -14 -4
-8 3 -17 1 -20 -5 -4 -6 -13 -8 -21 -4 -8 3 -15 0 -15 -6 0 -6 -7 -8 -15 -5
-8 4 -15 1 -15 -6 0 -6 -4 -9 -8 -6 -5 3 -21 -1 -36 -9 -26 -14 -27 -14 -20 8
4 12 11 25 16 28 7 4 7 9 0 13 -6 4 -7 20 -2 43 5 20 7 41 4 45 -3 4 0 8 5 8
6 0 10 3 9 8 -4 11 53 102 63 102 5 0 9 6 9 14 0 7 11 25 24 39 14 15 33 40
42 57 10 16 22 30 26 30 4 0 8 6 8 14 0 8 7 16 15 20 8 3 15 13 15 21 0 9 4
14 8 11 5 -3 15 6 22 19 7 14 16 25 20 25 7 0 38 24 78 62 22 20 22 21 5 38
-11 11 -22 14 -29 9 -6 -5 -13 -7 -15 -4 -6 5 -92 -76 -126 -118 -13 -15 -20
-27 -16 -27 4 0 -1 -6 -11 -13 -16 -12 -30 -32 -58 -87 -7 -14 -27 -40 -45
-59 -18 -19 -30 -38 -27 -43 3 -4 -2 -8 -10 -8 -9 0 -16 -3 -16 -7 0 -5 -16
-26 -35 -47 -19 -22 -35 -44 -35 -50 0 -6 -6 0 -13 14 -8 14 -19 24 -25 22 -7
-1 -12 8 -12 21 0 13 -5 28 -12 35 -7 7 -8 12 -4 12 5 0 3 7 -4 15 -7 8 -9 15
-5 15 4 0 2 7 -5 15 -7 8 -10 21 -7 29 3 8 -1 17 -8 20 -8 3 -12 12 -9 20 3 8
-3 23 -14 34 -10 10 -18 26 -16 35 1 9 -1 17 -6 17 -9 0 -45 71 -42 83 1 4 -3
7 -9 7 -5 0 -8 4 -4 9 3 6 -3 14 -12 20 -10 5 -17 13 -16 18 5 15 -8 43 -19
43 -6 0 -9 3 -5 6 3 3 -1 23 -8 45 -8 21 -11 39 -8 39 4 0 2 5 -4 11 -6 6 -9
18 -6 25 3 8 0 21 -7 29 -8 10 -9 15 -2 15 15 0 4 30 -19 53 -17 16 -19 16
-29 -3 -15 -29 -14 -140 3 -140 4 0 7 -6 6 -12 -1 -7 1 -22 6 -33 22 -59 31
-75 38 -75 5 0 6 -4 3 -8 -3 -5 4 -19 15 -30 11 -12 17 -22 14 -22 -3 0 6 -18
19 -39 14 -22 28 -51 32 -65 3 -14 10 -26 15 -26 5 0 8 -3 7 -7 -1 -5 3 -18
10 -30 6 -12 14 -32 16 -45 3 -13 5 -24 7 -25 1 -2 2 -6 3 -10 1 -5 7 -18 14
-31 7 -12 10 -27 7 -32 -3 -6 -2 -10 3 -10 15 0 8 -38 -10 -60 -10 -11 -18
-25 -18 -32 0 -6 -3 -8 -7 -5 -3 4 -12 2 -20 -4 -10 -9 -13 -7 -14 7 -1 11 -1
25 0 32 1 6 -2 12 -7 12 -5 0 -9 6 -10 13 -3 25 -10 62 -12 62 -1 0 -3 9 -5
19 -2 10 -11 26 -19 35 -13 12 -18 13 -28 3 -15 -15 -17 -44 -3 -54 6 -5 6 -8
-1 -8 -7 0 -19 11 -28 25 -9 14 -13 25 -9 25 4 0 -2 7 -13 15 -10 8 -15 15
-11 15 5 0 2 6 -5 14 -7 7 -33 41 -57 75 -24 33 -48 61 -52 61 -5 0 -9 6 -9
13 0 7 -9 19 -20 27 -11 8 -20 18 -20 22 0 7 -44 59 -92 109 -15 15 -25 29
-22 32 2 2 -11 15 -31 28 -19 13 -35 28 -35 32 0 10 -45 53 -79 77 -12 8 -21
19 -22 25 0 5 -19 25 -42 44 -66 52 -127 103 -166 138 -20 18 -40 33 -45 33
-5 0 -24 11 -42 25 -18 14 -37 25 -43 25 -6 0 -11 4 -11 9 0 5 -10 13 -22 17
-13 3 -31 13 -40 22 -10 8 -18 12 -18 7 0 -4 -6 -2 -13 4 -8 6 -17 8 -20 4 -4
-3 -7 -2 -7 4 0 6 -21 14 -47 18 -27 4 -59 10 -73 12 -53 9 -158 10 -174 1z
m228 -194 c9 -8 16 -12 16 -8 0 3 6 1 13 -5 8 -6 17 -8 20 -4 4 3 7 -3 7 -15
0 -19 -3 -20 -24 -12 -13 5 -26 6 -29 4 -3 -3 -11 5 -18 18 -6 12 -17 26 -23
30 -7 5 -5 8 6 8 9 0 24 -7 32 -16z m146 -84 c19 -16 31 -30 25 -30 -5 0 -4
-4 3 -9 11 -7 -92 -8 -108 -1 -3 1 -8 2 -11 2 -4 -1 -15 8 -25 19 -18 20 -18
20 6 11 33 -13 42 -12 58 0 9 8 9 14 1 24 -22 27 15 15 51 -16z m-170 10 c0
-5 -4 -10 -10 -10 -5 0 -10 5 -10 10 0 6 5 10 10 10 6 0 10 -4 10 -10z m256
-9 c-3 -5 1 -12 10 -15 9 -4 14 -9 11 -12 -12 -12 17 -32 31 -22 8 7 12 6 12
-3 0 -8 15 -24 33 -37 32 -23 32 -23 46 -2 13 19 38 30 27 11 -3 -5 1 -12 10
-15 8 -3 13 -10 9 -15 -3 -5 4 -12 15 -16 20 -6 23 -24 5 -37 -20 -15 -42 -8
-53 17 -6 14 -18 25 -26 25 -7 0 -19 7 -26 15 -7 9 -21 13 -30 10 -12 -4 -28
8 -52 37 -48 60 -52 68 -33 68 9 0 14 -4 11 -9z m-181 -77 c18 -19 93 -36 100
-24 3 5 14 6 25 3 12 -3 18 -8 16 -11 -3 -3 2 -11 11 -17 14 -11 19 -10 28 2
9 12 15 11 38 -7 22 -18 25 -25 16 -36 -7 -8 -20 -12 -30 -9 -11 4 -19 2 -19
-3 0 -13 -30 -8 -68 10 -28 14 -34 15 -38 3 -9 -22 -65 -11 -87 16 -16 20 -19
21 -34 6 -14 -14 -18 -14 -39 0 -13 8 -24 20 -24 25 0 6 6 5 15 -2 12 -10 15
-10 15 0 0 9 3 10 13 1 18 -14 37 5 37 36 0 27 3 28 25 7z m-69 -141 c-6 -6
-36 9 -36 18 0 5 9 4 20 -3 10 -7 18 -14 16 -15z m62 -1 c2 -7 -2 -10 -12 -6
-9 3 -16 11 -16 16 0 13 23 5 28 -10z m37 -1 c3 -6 13 -9 23 -9 29 1 83 -12
111 -27 l26 -14 -32 4 c-18 2 -37 6 -43 10 -6 4 -23 8 -38 11 -57 8 -66 11
-70 22 -4 14 14 16 23 3z m265 -1 c0 -5 -5 -10 -11 -10 -5 0 -7 5 -4 10 3 6 8
10 11 10 2 0 4 -4 4 -10z m-374 -42 c3 -4 -1 -5 -10 -4 -8 1 -18 5 -22 8 -3 4
1 5 10 4 8 -1 18 -5 22 -8z m74 -18 c0 -12 -33 -5 -38 8 -2 6 5 8 17 5 12 -3
21 -9 21 -13z m306 -12 c4 -7 3 -10 -1 -5 -5 4 -17 0 -27 -10 -10 -9 -18 -13
-18 -8 0 6 29 33 37 35 1 0 5 -6 9 -12z m-112 -30 c-3 -4 -11 -5 -19 -1 -21 7
-19 12 4 10 11 0 18 -5 15 -9z m-264 -33 c0 -1 -11 -5 -25 -7 -20 -4 -23 -2
-14 8 8 10 39 10 39 -1z m130 5 c0 -5 -7 -7 -15 -4 -8 4 -15 8 -15 10 0 2 7 4
15 4 8 0 15 -4 15 -10z m34 -5 c3 -8 1 -15 -4 -15 -6 0 -10 7 -10 15 0 8 2 15
4 15 2 0 6 -7 10 -15z m-48 -63 c5 1 19 -2 32 -6 17 -5 29 -3 42 9 18 16 21
16 46 -4 14 -11 31 -18 36 -15 15 10 58 -24 52 -41 -4 -9 -11 -12 -18 -8 -6 5
-20 8 -31 8 -11 0 -28 6 -37 14 -20 17 -78 24 -78 10 0 -5 -8 -5 -20 1 -11 5
-29 15 -41 21 -28 14 -55 -6 -37 -28 10 -12 7 -14 -18 -11 -31 4 -89 32 -98
47 -4 5 19 8 53 5 45 -3 62 0 72 12 12 14 14 14 25 0 6 -9 16 -16 20 -14z
m454 -36 c0 -3 -4 -8 -10 -11 -5 -3 -10 -1 -10 4 0 6 5 11 10 11 6 0 10 -2 10
-4z m-19 -38 c11 -21 11 -22 -4 -9 -10 7 -17 17 -17 22 0 15 9 10 21 -13z
m257 -3 c-3 -3 -9 2 -12 12 -6 14 -5 15 5 6 7 -7 10 -15 7 -18z m-617 -24 c7
4 20 4 28 1 15 -7 35 -8 54 -2 8 2 36 3 65 1 10 0 28 -10 39 -20 12 -11 24
-17 29 -13 4 4 4 1 0 -6 -4 -7 -12 -10 -17 -7 -5 4 -14 3 -21 -1 -7 -5 -26 -7
-43 -6 -83 6 -101 8 -112 15 -7 5 -13 4 -13 -2 0 -12 -58 -4 -76 11 -7 5 -16
2 -24 -7 -12 -14 -15 -14 -30 0 -9 8 -19 13 -22 10 -3 -3 -8 1 -12 10 -5 14 0
16 28 14 19 -2 38 -1 41 3 3 3 21 2 39 -2 19 -4 40 -4 47 1z m449 -20 c0 -10
6 -21 14 -24 8 -3 20 -18 28 -34 7 -15 23 -32 35 -38 12 -6 30 -22 41 -35 17
-21 22 -22 36 -11 9 8 16 9 16 3 0 -6 -5 -12 -12 -14 -18 -6 23 -56 52 -63 33
-8 60 -46 53 -74 -7 -26 -13 -26 -41 -1 -12 11 -25 20 -29 20 -18 1 -55 41
-50 54 5 13 -19 39 -60 63 -16 9 -23 8 -35 -4 -11 -10 -18 -11 -22 -4 -4 6 -2
11 3 11 20 0 11 47 -14 74 -13 14 -22 32 -19 40 3 8 1 17 -5 21 -14 8 -14 35
-1 35 6 0 10 -9 10 -19z m114 -16 c-4 -8 -11 -12 -16 -9 -6 4 -5 10 3 15 19
12 19 11 13 -6z m-503 -55 c28 0 61 -19 54 -31 -4 -5 -11 -7 -16 -3 -21 12
-71 15 -84 4 -10 -8 -15 -8 -20 0 -4 6 -4 14 -1 17 3 4 6 1 6 -7 0 -19 30 8
31 29 0 10 2 11 6 4 2 -7 14 -13 24 -13z m201 13 c2 -5 17 -20 34 -34 l32 -26
-37 2 c-21 1 -41 4 -47 7 -5 3 -16 4 -25 3 -21 -4 -20 25 1 42 17 14 37 17 42
6z m452 -36 c14 -20 23 -37 20 -37 -12 0 -42 37 -49 60 -9 30 -4 26 29 -23z
m-544 23 c0 -5 -4 -10 -10 -10 -5 0 -10 5 -10 10 0 6 5 10 10 10 6 0 10 -4 10
-10z m234 -15 c11 -9 14 -15 7 -15 -7 0 -19 7 -27 15 -20 19 -5 19 20 0z
m-490 -14 c3 -4 -6 -7 -20 -5 -35 3 -43 14 -11 14 14 0 28 -4 31 -9z m701 -11
c3 -6 -1 -7 -9 -4 -18 7 -21 14 -7 14 6 0 13 -4 16 -10z m142 -64 c0 -8 -6
-12 -14 -9 -7 3 -10 9 -7 14 8 14 21 11 21 -5z m-737 -7 c95 7 135 7 147 -1 6
-5 14 -5 17 0 7 11 147 5 182 -8 14 -6 30 -8 35 -4 5 3 9 0 9 -7 0 -7 3 -9 7
-6 12 13 31 -14 25 -35 -5 -21 -6 -20 -28 7 -21 26 -23 27 -39 12 -15 -15 -15
-18 -1 -23 9 -3 16 -10 16 -15 0 -5 -13 0 -29 12 -34 25 -84 33 -112 19 -10
-6 -19 -7 -19 -2 0 5 -12 9 -27 10 -149 8 -176 11 -182 21 -4 6 -15 9 -24 5
-10 -3 -24 -1 -32 6 -10 9 -15 9 -15 1 0 -6 -5 -11 -11 -11 -8 0 -8 5 1 15 7
8 17 12 23 8 6 -4 32 -5 57 -4z m756 -66 c-10 -10 -19 5 -10 18 6 11 8 11 12
0 2 -7 1 -15 -2 -18z m1544 -13 c0 -7 69 -6 78 1 1 1 7 3 12 4 6 1 11 3 13 4
8 7 94 5 105 -2 7 -6 12 -6 12 0 0 5 50 9 114 9 111 -1 114 -2 95 -19 -11 -10
-17 -23 -13 -29 4 -7 -7 -9 -35 -5 -22 2 -41 2 -41 -2 0 -3 -53 -6 -118 -7
-64 -1 -130 -2 -147 -4 -67 -5 -209 2 -190 9 11 5 23 7 26 5 4 -2 10 3 13 12
3 8 10 12 16 9 12 -7 42 20 32 29 -3 4 1 4 11 0 9 -3 17 -10 17 -14z m-2460
-36 c0 -8 -5 -12 -10 -9 -6 4 -8 11 -5 16 9 14 15 11 15 -7z m100 -14 c0 -6
-9 -2 -20 7 -11 10 -20 19 -20 21 0 1 9 -2 20 -8 11 -6 20 -15 20 -20z m120
10 c0 -5 -4 -10 -9 -10 -6 0 -13 5 -16 10 -3 6 1 10 9 10 9 0 16 -4 16 -10z
m195 -6 c8 3 17 1 21 -5 3 -6 12 -8 19 -5 18 6 75 -15 96 -36 28 -27 -4 -30
-33 -3 -27 25 -47 18 -49 -14 0 -11 -2 -12 -6 -3 -2 6 -9 10 -14 6 -5 -3 -9
-2 -8 3 4 23 -3 34 -18 31 -10 -1 -24 1 -30 5 -8 5 -13 4 -13 -2 0 -7 -7 -7
-20 1 -33 21 -26 39 10 26 17 -5 37 -8 45 -4z m491 -41 c-4 -4 -11 -1 -16 7
-16 25 -11 35 7 17 9 -9 13 -20 9 -24z m1154 20 c0 6 5 5 13 -1 8 -7 18 -7 27
-2 8 5 19 6 25 2 5 -3 15 -7 20 -8 72 -13 85 -19 85 -35 0 -6 -4 -8 -8 -5 -4
2 -13 -4 -20 -14 -10 -16 -8 -20 10 -25 12 -5 24 -2 29 6 13 21 23 2 22 -41 0
-22 6 -45 13 -51 8 -6 14 -17 14 -25 0 -7 7 -17 17 -22 9 -5 17 -20 19 -33 1
-13 3 -27 3 -32 1 -4 11 -5 24 -2 12 3 51 -3 87 -14 47 -15 67 -17 77 -9 19
15 2 32 -49 47 -58 17 -91 36 -103 58 -5 10 -12 20 -15 23 -6 6 -30 58 -30 66
0 10 120 -24 168 -48 18 -9 26 -9 38 4 13 13 13 16 1 27 -8 6 -24 13 -34 15
-11 2 -37 12 -59 22 -43 19 -46 20 -88 28 -16 3 -36 12 -45 21 -13 13 -2 15
107 12 67 -1 122 -4 122 -7 0 -3 10 -6 22 -7 11 -1 25 -8 29 -15 5 -7 9 -10 9
-5 0 4 17 0 38 -9 20 -9 44 -18 52 -19 8 -1 29 -8 45 -15 17 -7 36 -14 44 -16
18 -3 78 -33 112 -56 14 -10 29 -15 32 -12 3 4 18 -3 33 -15 15 -11 23 -21 18
-21 -5 0 0 -7 10 -15 11 -8 15 -15 9 -15 -7 0 -15 5 -18 10 -4 6 -10 8 -15 5
-5 -3 -11 -1 -15 5 -10 17 -35 11 -35 -7 0 -10 14 -26 31 -36 18 -10 30 -20
27 -22 -7 -8 -68 16 -68 26 0 5 -5 9 -11 9 -5 0 -31 10 -57 22 -26 12 -51 22
-57 23 -9 1 -18 4 -70 24 -11 5 -22 9 -25 9 -3 0 -17 5 -32 11 -21 8 -27 7
-32 -5 -7 -18 0 -34 14 -34 13 0 124 -52 130 -61 3 -4 24 -12 47 -19 23 -7 51
-21 62 -32 11 -10 24 -18 29 -18 5 0 22 -11 38 -25 16 -14 26 -25 22 -25 -15
0 -58 24 -58 32 0 4 -3 7 -7 6 -5 0 -16 2 -26 7 -21 9 -26 5 -32 -23 -3 -20
17 -37 41 -33 6 0 17 -6 24 -14 10 -13 9 -15 -8 -15 -11 0 -27 6 -34 13 -7 6
-31 21 -53 32 -22 11 -43 24 -47 30 -4 5 -8 7 -8 3 0 -4 -16 1 -36 12 -19 11
-43 22 -54 23 -10 2 -24 8 -32 13 -24 19 -46 23 -57 10 -8 -10 -6 -17 7 -28
17 -15 46 -28 58 -27 4 0 10 -4 13 -9 3 -6 13 -12 21 -14 8 -2 23 -11 34 -20
10 -10 23 -15 28 -12 4 3 8 -4 8 -15 0 -20 14 -34 40 -38 8 -1 16 -7 18 -13 2
-5 8 -8 13 -4 5 3 9 -1 9 -10 0 -8 6 -16 13 -19 6 -2 9 -7 6 -11 -4 -4 -23 2
-43 13 -35 20 -36 20 -46 1 -9 -17 -7 -22 15 -30 28 -11 75 -50 59 -50 -5 0
-26 5 -46 10 -21 6 -41 10 -44 10 -4 -1 -10 3 -13 8 -3 5 -24 21 -47 35 -22
14 -48 33 -57 41 -9 9 -20 17 -24 18 -18 2 -52 18 -58 27 -3 6 -15 11 -26 11
-10 0 -19 4 -19 8 0 4 -15 16 -32 27 -18 10 -36 23 -39 27 -3 5 -13 10 -21 12
-9 1 -24 8 -33 16 -9 8 -27 19 -39 25 -11 7 -20 18 -18 25 4 16 -18 31 -33 22
-16 -10 -34 -11 -41 -1 -3 5 -10 6 -16 3 -6 -4 -58 -8 -115 -8 -83 -1 -107 2
-113 14 -7 12 -13 13 -29 3 -11 -7 -26 -10 -33 -8 -8 3 -34 7 -58 9 -25 2 -45
5 -45 6 0 2 -29 6 -160 25 -27 4 -57 9 -65 11 -8 1 -19 3 -24 3 -24 2 10 16
42 18 138 9 164 8 172 -2 12 -15 95 -18 120 -5 10 5 21 7 24 2 8 -13 57 -7 66
8 5 9 4 20 -2 27 -9 11 -6 12 13 5 13 -5 52 -9 87 -8 34 1 62 -2 62 -8 0 -5 8
-1 18 10 30 31 2 41 -105 40 -56 -1 -93 3 -93 9 0 6 -7 2 -14 -7 -7 -10 -16
-14 -20 -10 -4 4 -16 7 -27 7 -10 0 -20 4 -21 9 -3 11 22 15 107 20 77 4 75 4
75 20 0 17 -24 38 -33 29 -4 -3 -28 -7 -54 -9 -110 -8 -141 -12 -153 -19 -6
-4 -20 2 -32 15 -16 17 -22 19 -29 9 -4 -7 -11 -10 -15 -7 -4 4 -15 3 -25 -3
-14 -7 -19 -6 -19 2 0 8 -4 8 -15 -1 -9 -7 -14 -19 -11 -26 3 -7 1 -16 -4 -19
-6 -4 -10 0 -10 8 0 8 -7 17 -15 21 -8 3 -15 2 -15 -3 0 -5 -22 -11 -50 -15
-27 -4 -50 -12 -50 -18 0 -6 -3 -8 -6 -5 -4 3 -15 2 -25 -4 -15 -7 -19 -6 -19
6 0 8 3 14 8 13 4 -1 21 4 37 11 17 7 39 13 50 14 11 0 23 5 27 11 3 5 15 11
25 12 20 4 60 11 83 17 82 19 133 28 145 24 7 -3 16 -3 19 0 3 3 24 7 47 9 23
2 43 5 46 7 2 2 21 1 43 -3 25 -5 40 -4 40 3z m-1807 -16 c3 -7 -3 -13 -14
-13 -13 0 -15 3 -7 13 6 7 12 13 13 13 2 0 5 -6 8 -13z m37 -1 c0 -3 -4 -8
-10 -11 -5 -3 -10 -1 -10 4 0 6 5 11 10 11 6 0 10 -2 10 -4z m2473 -18 c42 -1
77 -6 77 -11 0 -4 4 -6 9 -2 5 3 12 1 16 -5 4 -6 11 -8 16 -5 5 4 9 1 9 -5 0
-6 4 -9 9 -5 5 3 13 0 17 -6 3 -6 1 -15 -6 -19 -11 -7 -11 -11 1 -22 8 -8 18
-15 22 -15 27 -3 48 -13 43 -22 -4 -6 -17 -4 -36 5 -16 9 -39 16 -50 17 -11 1
-20 6 -20 11 0 5 -3 7 -6 4 -3 -4 -17 0 -31 7 -15 8 -30 12 -35 9 -4 -3 -8 -1
-8 5 0 10 -20 18 -60 26 -12 2 -28 9 -34 15 -7 5 -16 7 -19 3 -4 -3 -7 -1 -7
6 0 7 -4 10 -9 6 -5 -3 -12 -1 -16 4 -3 6 4 8 17 5 13 -2 58 -5 101 -6z
m-2581 -65 c35 -42 33 -45 -29 -37 -32 4 -70 8 -85 8 -22 1 -24 4 -17 18 9 16
12 17 33 3 21 -14 24 -14 30 0 3 9 10 14 15 10 5 -3 12 -1 16 5 9 15 20 12 37
-7z m-181 -11 c-7 -2 -18 1 -23 6 -8 8 -4 9 13 5 13 -4 18 -8 10 -11z m269
-17 c0 -8 -7 -15 -15 -15 -16 0 -20 12 -8 23 11 12 23 8 23 -8z m1552 -24 l-8
-22 -23 21 c-13 11 -19 21 -13 21 27 3 31 4 38 12 12 12 16 -6 6 -32z m48 29
c0 -5 -5 -10 -11 -10 -5 0 -7 5 -4 10 3 6 8 10 11 10 2 0 4 -4 4 -10z m-390
-10 c0 -5 -3 -9 -7 -8 -5 1 -19 -4 -33 -11 l-25 -14 19 22 c20 22 46 28 46 11z
m15 -141 c6 -3 31 -5 57 -5 27 1 48 -1 48 -4 0 -3 12 -6 28 -6 59 -3 158 -15
177 -21 10 -3 37 -7 60 -8 68 -5 107 -15 133 -35 27 -22 46 -17 39 9 -3 14 5
16 64 14 38 -1 73 -4 79 -8 5 -3 10 -2 10 3 0 15 53 6 93 -16 20 -12 37 -19
37 -15 0 3 8 -4 19 -15 10 -12 25 -22 33 -22 8 0 23 -9 33 -20 10 -11 22 -20
28 -20 5 0 27 -14 48 -31 21 -17 39 -28 39 -25 0 8 55 -38 97 -82 18 -18 37
-31 43 -27 6 3 7 -1 4 -9 -3 -9 -1 -16 5 -16 6 0 11 -7 11 -15 0 -8 3 -15 8
-15 4 0 13 -9 19 -19 10 -17 9 -18 -10 -13 -12 2 -27 9 -33 13 -6 5 -14 6 -17
2 -4 -3 -7 -1 -7 5 0 7 -6 12 -14 12 -26 0 -29 -21 -5 -46 24 -26 18 -34 -8
-9 -8 9 -20 14 -26 12 -11 -3 -19 1 -50 29 -7 6 -16 11 -22 12 -5 1 -17 8 -25
15 -8 7 -18 14 -22 15 -4 1 -14 5 -22 8 -8 3 -21 0 -29 -8 -13 -11 -11 -17 14
-40 18 -18 34 -25 45 -21 11 4 15 2 11 -4 -4 -6 3 -20 16 -30 26 -20 30 -32
15 -51 -8 -9 -5 -17 9 -30 11 -9 27 -31 35 -49 15 -31 15 -33 -4 -39 -12 -3
-24 -1 -28 6 -17 27 -77 97 -110 128 -48 45 -47 44 -72 73 -13 14 -32 29 -43
33 -11 3 -40 24 -64 46 -24 22 -59 48 -78 56 -18 9 -33 20 -33 25 0 5 -6 9
-14 9 -8 0 -21 6 -29 14 -26 26 -141 76 -148 64 -4 -6 -10 -2 -14 11 -5 18
-21 26 -46 23 -4 -1 -15 8 -24 18 -17 19 -19 19 -30 3 -11 -15 -10 -20 8 -35
11 -10 26 -18 34 -18 7 0 13 -4 13 -9 0 -5 8 -8 17 -7 10 2 39 -10 64 -26 25
-15 51 -28 56 -28 6 0 22 -9 36 -20 15 -12 29 -20 32 -20 4 1 19 -9 34 -22 15
-12 33 -24 39 -26 7 -1 25 -13 40 -26 64 -57 75 -65 83 -61 4 3 20 -10 35 -30
14 -19 45 -49 67 -65 23 -17 37 -30 32 -30 -4 0 0 -10 11 -21 19 -22 19 -22
-3 -10 -12 6 -24 8 -26 4 -10 -17 -4 -62 9 -67 8 -3 14 -10 14 -16 0 -5 -14 2
-30 17 -17 15 -37 28 -44 29 -7 1 -22 9 -32 18 -11 9 -22 16 -27 16 -4 0 -18
10 -31 22 -13 13 -33 30 -44 38 -27 21 -109 90 -146 123 -17 15 -44 35 -61 44
-16 8 -35 22 -43 30 -8 7 -28 21 -45 30 -18 9 -34 19 -37 22 -3 3 -21 14 -40
24 -56 28 -95 51 -101 60 -3 5 -10 8 -15 8 -5 -1 -17 6 -27 14 -9 8 -22 15
-27 15 -12 0 -62 30 -71 43 -3 5 -8 7 -10 5 -7 -5 -124 77 -126 89 -2 11 13
12 32 2z m-1535 -23 c0 5 20 9 44 9 25 1 42 -3 39 -8 -3 -5 -16 -7 -29 -4 -13
2 -24 1 -24 -2 0 -14 -49 -8 -55 7 -4 12 -3 13 10 2 8 -7 15 -9 15 -4z m140
-5 c0 -11 5 -23 10 -26 6 -4 8 -11 5 -16 -4 -5 -13 -2 -22 6 -8 9 -13 19 -9
22 3 3 1 12 -5 20 -9 10 -8 13 5 13 9 0 16 -8 16 -19z m65 -1 c14 -16 15 -23
6 -34 -7 -8 -19 -12 -27 -9 -17 6 -19 33 -3 33 8 0 8 5 -1 15 -19 22 4 18 25
-5z m140 8 c5 4 5 2 2 -5 -4 -6 -16 -9 -27 -6 -11 3 -17 9 -14 15 3 5 11 5 18
-1 7 -6 17 -7 21 -3z m1065 -17 c0 -5 12 -13 28 -19 27 -10 72 -47 72 -59 0
-4 -10 3 -22 14 -13 11 -37 28 -55 37 -34 17 -51 36 -34 36 6 0 11 -4 11 -9z
m-1370 -51 c0 -4 -9 -6 -21 -3 -15 4 -17 8 -8 14 14 8 29 3 29 -11z m531 2
c-6 -11 -6 -24 0 -33 5 -7 9 -17 9 -20 0 -7 -58 -4 -66 4 -3 3 -12 0 -19 -6
-9 -9 -10 -16 -3 -25 9 -10 5 -10 -18 -2 -37 15 -63 54 -31 49 6 -1 25 3 40 9
16 7 32 10 37 7 5 -3 11 -1 15 5 4 6 10 8 15 5 4 -3 10 2 14 10 3 8 8 15 11
15 3 0 1 -8 -4 -18z m69 -6 c0 -10 -32 -36 -43 -36 -7 0 -1 9 13 20 26 21 30
23 30 16z m951 -58 c3 -5 10 -10 15 -10 17 -1 39 -11 57 -26 9 -8 17 -12 17
-9 0 4 30 -9 67 -28 36 -19 70 -32 75 -29 4 3 8 1 8 -5 0 -5 9 -13 21 -16 12
-4 29 -13 38 -21 9 -8 19 -14 24 -14 4 0 30 -16 57 -35 27 -19 54 -35 58 -35
5 0 22 -12 38 -26 16 -14 51 -43 77 -65 27 -21 46 -39 42 -39 -4 0 15 -21 41
-47 26 -27 52 -48 58 -48 6 0 12 -7 14 -16 3 -14 -5 -13 -45 7 -26 14 -58 34
-70 44 -13 11 -23 17 -23 14 0 -6 -73 51 -106 81 -16 15 -103 87 -126 105 -11
8 -30 25 -43 38 -13 12 -28 22 -34 22 -5 0 -16 6 -23 13 -15 15 -119 75 -133
77 -5 1 -18 9 -27 17 -10 9 -18 12 -18 8 0 -5 -11 2 -25 15 -14 13 -25 20 -25
15 0 -4 -9 0 -21 11 -12 10 -24 18 -28 18 -12 -3 -31 8 -31 17 0 11 62 -18 71
-33z m-1334 11 c-9 -6 -17 -17 -17 -24 0 -8 -4 -15 -10 -15 -5 0 -10 -7 -10
-16 0 -8 -5 -12 -11 -9 -6 4 -8 13 -6 19 3 7 -4 18 -14 24 -10 7 -19 8 -19 3
0 -12 -85 -32 -104 -25 -9 3 -16 1 -16 -6 0 -6 -5 -8 -10 -5 -6 4 -18 1 -26
-6 -8 -6 -17 -9 -21 -6 -3 4 -13 2 -20 -5 -11 -9 -16 -9 -22 1 -6 9 -11 8 -20
-3 -7 -8 -19 -12 -27 -9 -8 3 -22 -1 -32 -8 -9 -8 -24 -14 -32 -13 -8 1 -21 2
-29 3 -8 0 -12 3 -9 6 8 8 186 55 209 55 10 0 19 4 19 8 0 5 14 8 30 7 17 -1
30 2 30 7 0 5 4 7 9 4 4 -3 23 -1 42 5 19 6 52 13 74 16 22 2 42 6 44 9 2 2 7
1 10 -2 3 -3 -2 -10 -12 -15z m2748 -9 c3 -5 1 -10 -4 -10 -6 0 -11 5 -11 10
0 6 2 10 4 10 3 0 8 -4 11 -10z m-2578 -22 c-3 -8 -6 -5 -6 6 -1 11 2 17 5 13
3 -3 4 -12 1 -19z m932 -7 c19 -17 38 -28 42 -26 4 3 12 -1 17 -8 9 -10 5 -13
-13 -12 -15 0 -37 15 -58 38 -41 44 -35 48 12 8z m-1035 -3 c15 -18 16 -20 2
-15 -9 4 -16 2 -16 -4 0 -6 -6 -9 -14 -6 -8 3 -22 -3 -32 -14 -9 -10 -21 -19
-25 -19 -5 0 55 72 66 80 0 0 9 -10 19 -22z m-544 -69 c0 -5 -10 -9 -21 -9
-18 0 -19 2 -9 15 12 15 30 12 30 -6z m400 17 c0 -3 -4 -8 -10 -11 -5 -3 -10
-1 -10 4 0 6 5 11 10 11 6 0 10 -2 10 -4z m1400 -15 c0 -5 3 -17 6 -26 6 -15
4 -15 -14 -4 -11 7 -18 19 -15 26 6 15 23 18 23 4z m100 -43 c0 -6 6 -5 15 2
9 7 15 8 15 2 0 -5 11 -13 25 -16 14 -4 25 -11 25 -17 0 -6 4 -8 9 -4 5 3 12
1 16 -5 10 -17 -83 -5 -103 13 -17 15 -19 15 -35 -1 -17 -16 -17 -15 -7 15 8
21 16 30 26 26 8 -3 14 -10 14 -15z m-1310 -78 c0 -5 -8 -10 -17 -10 -15 0
-16 2 -3 10 19 12 20 12 20 0z m1288 -40 c27 0 92 -101 92 -144 0 -9 5 -16 12
-16 6 0 8 -3 4 -7 -12 -12 -77 67 -71 87 6 19 -24 38 -35 21 -3 -6 -18 0 -34
14 -16 14 -37 25 -47 25 -22 0 -31 13 -23 35 6 14 8 13 21 -5 12 -17 18 -19
29 -9 8 7 12 19 9 28 -3 9 3 7 14 -6 11 -13 23 -23 29 -23z m189 22 c30 -1 59
-23 196 -145 43 -39 97 -73 97 -61 0 4 7 1 15 -6 10 -9 12 -16 6 -24 -7 -8 -4
-17 10 -27 37 -25 114 -98 115 -109 1 -5 2 -14 3 -19 0 -5 10 -13 21 -16 22
-7 28 -35 7 -35 -8 0 -27 11 -43 25 -15 13 -30 22 -32 20 -2 -2 -14 5 -26 16
-50 46 -92 79 -101 79 -5 0 -30 18 -55 41 -25 22 -61 48 -80 58 -19 11 -44 29
-55 41 -11 12 -36 30 -55 40 -19 10 -47 30 -61 44 -15 14 -29 23 -31 21 -2 -2
-21 11 -43 29 l-39 33 52 -1 c29 -1 52 2 52 7 0 6 5 6 13 0 6 -5 22 -10 34
-11z m-1492 -52 c8 0 15 -5 15 -12 0 -6 -3 -8 -7 -5 -3 4 -12 2 -19 -3 -19
-16 -48 16 -31 35 10 11 13 11 20 -1 4 -8 15 -14 22 -14z m115 16 c0 -3 -6
-11 -14 -19 -13 -13 -12 -17 5 -36 20 -21 18 -25 -13 -22 -23 3 -32 -17 -17
-35 8 -10 16 -11 22 -5 6 6 14 5 23 -4 19 -19 17 -24 -6 -18 -11 3 -20 0 -20
-6 0 -6 -5 -11 -11 -11 -6 0 -9 6 -6 13 2 6 -1 17 -8 24 -19 17 -73 -40 -56
-60 9 -12 6 -18 -14 -31 -14 -9 -23 -21 -19 -27 3 -6 -1 -18 -10 -28 -16 -18
-13 -51 5 -51 11 0 63 65 60 75 -2 4 1 11 6 14 5 3 18 19 30 34 12 16 24 23
28 17 8 -13 -3 -30 -21 -30 -8 0 -14 -3 -15 -7 -3 -34 -12 -51 -39 -74 -17
-16 -26 -29 -19 -31 9 -3 8 -10 -2 -28 -7 -14 -12 -31 -10 -39 1 -7 -2 -10 -8
-7 -5 4 -12 2 -16 -4 -3 -5 -11 -10 -16 -10 -6 0 -8 4 -5 9 5 8 -50 61 -64 61
-9 0 -40 -56 -35 -64 3 -3 2 -4 -2 -1 -3 3 -20 -10 -38 -28 -32 -33 -65 -38
-65 -9 0 19 103 132 120 132 5 0 10 4 10 10 0 11 21 38 63 80 15 16 27 33 27
39 0 6 5 11 11 11 5 0 8 4 5 9 -4 5 6 22 21 38 16 16 46 50 67 76 36 44 46 53
46 43z m-255 -36 c10 -11 15 -20 10 -20 -4 0 -2 -7 5 -15 11 -13 10 -14 -3 -9
-17 6 -51 64 -38 64 4 0 16 -9 26 -20z m490 -46 c-5 -29 -9 -33 -20 -24 -11 9
-12 16 -2 31 10 16 9 22 -3 30 -13 9 -12 10 3 5 10 -3 17 0 18 7 0 9 2 8 6 -1
3 -7 2 -29 -2 -48z m-542 19 c4 -3 1 -13 -5 -21 -7 -8 -13 -20 -14 -26 0 -6
-2 -19 -2 -29 -1 -10 -7 -17 -14 -15 -15 5 -71 -50 -63 -62 3 -4 -9 -13 -25
-19 -17 -5 -30 -15 -30 -22 0 -9 -3 -9 -14 0 -11 9 -15 8 -21 -6 -5 -10 -8
-21 -7 -25 1 -4 -5 -5 -13 -2 -8 4 -15 1 -15 -6 0 -6 -4 -9 -9 -5 -6 3 -14 -3
-20 -12 -9 -16 -11 -16 -19 7 -5 14 -6 26 -1 28 5 2 9 8 9 14 0 13 26 38 40
38 6 0 13 7 16 15 4 8 10 15 15 15 4 0 20 11 35 25 15 14 29 24 31 22 1 -2 26
18 55 45 52 49 60 53 71 41z m117 -34 c0 -6 -4 -7 -10 -4 -5 3 -10 11 -10 16
0 6 5 7 10 4 6 -3 10 -11 10 -16z m1536 -1 c15 -13 32 -28 39 -35 7 -7 15 -10
17 -8 2 2 22 -11 43 -30 22 -19 45 -35 52 -35 7 0 22 -10 35 -22 13 -13 46
-41 73 -63 28 -22 52 -43 53 -47 2 -5 8 -6 12 -3 5 3 49 -34 97 -82 48 -48 91
-87 95 -86 4 2 14 -10 22 -26 12 -22 12 -31 3 -40 -9 -9 -8 -14 3 -21 8 -5 11
-10 7 -10 -11 0 -86 78 -80 84 3 2 -5 9 -16 16 -17 9 -21 8 -21 -5 0 -8 -4
-15 -10 -15 -5 0 2 -12 15 -26 13 -14 24 -29 23 -33 -2 -19 3 -31 15 -31 13 0
57 -59 57 -78 0 -8 -10 -11 -24 -8 -27 5 -96 70 -96 91 0 7 -7 15 -15 18 -8 4
-31 31 -51 62 -20 30 -41 55 -45 55 -5 0 -9 5 -9 10 0 12 -30 44 -75 79 -16
12 -29 25 -28 27 4 5 -150 154 -159 154 -5 0 -8 7 -8 15 0 8 -4 15 -8 15 -4 0
-16 14 -25 30 -10 17 -15 30 -12 30 3 0 1 9 -5 20 -14 26 -6 25 26 -2z m-1858
-17 c-7 -9 -13 -17 -14 -19 -1 -2 -1 8 0 21 0 15 6 23 14 20 10 -4 10 -9 0
-22z m713 -20 c-11 -7 -11 -10 0 -15 11 -5 11 -7 2 -12 -7 -3 -13 -12 -13 -20
0 -15 -12 -19 -23 -7 -4 3 -2 12 4 20 6 7 8 13 4 13 -5 0 0 9 10 20 10 11 21
18 24 15 3 -4 -1 -10 -8 -14z m753 13 c9 -3 16 -12 16 -20 0 -8 5 -14 12 -14
6 0 9 -3 5 -6 -3 -3 -12 -2 -19 2 -7 5 -17 9 -23 9 -10 0 -15 8 -15 25 0 12 3
12 24 4z m-1594 -66 c0 -13 -23 -5 -28 10 -2 7 2 10 12 6 9 -3 16 -11 16 -16z
m1634 4 c3 -5 -1 -9 -9 -9 -8 0 -15 4 -15 9 0 4 4 8 9 8 6 0 12 -4 15 -8z
m256 -37 c0 -3 9 -16 21 -28 11 -12 23 -34 26 -49 3 -16 9 -28 14 -28 4 0 6
-9 4 -20 -2 -11 1 -22 6 -25 10 -7 3 -25 -10 -25 -17 0 -51 38 -46 52 3 7 -5
25 -17 38 -13 14 -24 28 -24 32 -1 5 -3 10 -4 13 -1 3 -3 8 -5 13 -1 4 -5 15
-10 26 -10 24 13 39 32 21 7 -8 13 -16 13 -20z m-1158 2 c-7 -8 -9 -17 -5 -20
3 -4 1 -7 -5 -7 -7 0 -12 -7 -12 -15 0 -8 -5 -15 -11 -15 -5 0 0 18 12 40 12
22 25 38 27 35 3 -2 0 -11 -6 -18z m1281 -32 c15 -13 27 -28 27 -32 0 -5 10
-15 21 -23 29 -20 56 -47 104 -106 22 -26 48 -56 58 -66 9 -10 17 -22 17 -28
0 -5 5 -10 10 -10 6 0 10 -7 10 -15 0 -9 7 -18 15 -21 8 -4 15 -11 15 -18 0
-6 9 -17 20 -24 11 -7 20 -21 20 -32 0 -11 5 -20 10 -20 6 0 10 -7 10 -15 0
-8 4 -15 9 -15 5 0 13 -10 17 -22 4 -13 11 -26 16 -29 5 -3 8 -19 5 -35 l-4
-29 -13 31 c-17 40 -71 80 -82 60 -7 -13 7 -62 22 -76 3 -3 13 -15 24 -27 18
-22 18 -22 -4 -20 -12 1 -31 15 -43 32 -12 16 -29 37 -39 46 -10 9 -18 23 -18
32 0 8 -7 17 -15 21 -8 3 -15 14 -15 23 0 10 -9 25 -20 33 -11 8 -20 20 -20
27 0 7 -4 13 -10 13 -5 0 -10 6 -10 14 0 8 -4 16 -8 18 -5 2 -28 29 -51 61
-24 31 -47 57 -51 57 -8 0 -22 38 -34 93 -4 16 -2 27 4 27 6 0 9 -4 5 -9 -6
-11 42 -51 61 -51 26 0 14 30 -28 74 -58 60 -79 86 -70 86 4 0 19 -12 35 -25z
m-1376 -17 c-3 -8 -6 -5 -6 6 -1 11 2 17 5 13 3 -3 4 -12 1 -19z m147 -17
c-22 -25 -44 -28 -44 -5 0 8 5 12 10 9 15 -9 41 14 33 29 -4 8 -3 8 6 0 10 -9
9 -16 -5 -33z m-557 -13 c-3 -8 -6 -5 -6 6 -1 11 2 17 5 13 3 -3 4 -12 1 -19z
m390 0 c-3 -8 -6 -5 -6 6 -1 11 2 17 5 13 3 -3 4 -12 1 -19z m1213 -18 c8 -5
11 -10 5 -10 -5 0 -17 5 -25 10 -8 5 -10 10 -5 10 6 0 17 -5 25 -10z m-185
-20 c3 -5 1 -10 -4 -10 -6 0 -11 5 -11 10 0 6 2 10 4 10 3 0 8 -4 11 -10z
m179 -45 c17 -14 32 -33 34 -43 2 -9 5 -24 6 -32 2 -8 8 -26 13 -40 6 -14 13
-44 17 -68 3 -24 9 -49 13 -55 4 -7 6 -19 5 -29 -2 -9 2 -19 7 -22 6 -4 8 -13
4 -21 -3 -8 -1 -15 5 -15 5 0 9 -15 7 -32 -1 -18 1 -37 4 -43 3 -5 6 -13 7
-17 1 -5 3 -11 4 -15 6 -20 4 -39 -5 -45 -6 -5 -5 -8 2 -8 15 0 9 -88 -7 -104
-12 -12 -32 13 -50 63 -7 20 -18 39 -24 43 -7 5 -7 8 3 8 11 0 11 3 1 15 -8
10 -9 15 -1 15 6 0 2 19 -11 45 -24 50 -54 58 -52 15 2 -36 -17 -43 -33 -12
-8 15 -10 28 -5 30 15 5 2 41 -17 47 -10 3 -18 13 -18 21 0 15 2 14 13 -1 19
-25 49 -2 34 26 -6 10 -9 24 -8 31 2 7 -7 17 -19 23 -24 10 -31 25 -12 25 8 0
7 5 -1 15 -11 13 -10 14 4 9 10 -4 15 -13 12 -20 -3 -8 3 -18 13 -24 15 -7 20
-6 25 6 4 9 2 22 -4 29 -7 8 -4 17 10 30 13 12 17 22 11 29 -5 6 -9 13 -9 16
0 23 -17 62 -31 70 -15 9 -15 9 0 10 9 0 22 6 28 14 10 11 8 17 -6 25 -10 6
-13 11 -8 11 6 0 23 -11 39 -25z m-174 0 c0 -8 -4 -15 -10 -15 -5 0 -10 7 -10
15 0 8 5 15 10 15 6 0 10 -7 10 -15z m-9 -78 c-7 -7 -6 -14 4 -21 10 -7 17
-36 20 -83 3 -39 9 -83 15 -97 6 -18 6 -26 -1 -26 -6 0 -7 -6 -2 -12 9 -15 8
-11 18 -103 11 -97 12 -135 3 -135 -4 0 -5 -7 -2 -14 5 -13 2 -13 -20 -3 -14
7 -24 18 -21 25 2 6 1 12 -3 12 -8 0 -10 12 -14 72 -1 30 -32 78 -49 78 -14 0
-19 -34 -7 -42 10 -7 9 -9 -2 -5 -10 2 -15 17 -16 43 0 21 -2 42 -4 47 -1 4
-3 16 -4 27 -1 21 -24 42 -37 35 -3 -3 -11 7 -17 20 -9 20 -9 23 3 18 8 -3 15
0 15 6 0 6 9 11 20 11 25 0 38 29 19 41 -8 5 -20 2 -30 -7 -15 -13 -17 -13
-22 5 -3 14 3 25 20 37 14 9 22 11 19 5 -4 -6 2 -18 14 -28 11 -10 20 -28 20
-41 0 -12 5 -28 10 -35 6 -7 17 -21 24 -32 12 -16 16 -17 29 -6 15 11 14 17
-9 52 -13 21 -20 39 -14 39 5 0 7 7 4 15 -4 8 -1 22 5 29 7 8 8 16 3 18 -5 1
-11 22 -14 45 -5 33 -3 40 8 36 8 -3 15 1 15 8 1 8 3 6 6 -5 3 -10 0 -23 -6
-29z m324 7 c6 0 16 -2 23 -2 6 -1 12 -9 12 -17 0 -8 4 -15 9 -15 5 0 31 -29
57 -65 26 -36 51 -65 56 -65 4 0 8 -7 8 -15 0 -8 5 -15 12 -15 6 0 9 -3 5 -6
-3 -4 5 -23 18 -43 14 -19 25 -41 25 -47 0 -6 6 -17 14 -24 8 -6 13 -17 10
-24 -3 -8 2 -16 10 -19 15 -6 11 -47 -5 -47 -5 0 -6 -7 -3 -15 4 -8 1 -22 -6
-30 -11 -14 -15 -13 -27 5 -17 25 -40 26 -46 3 -3 -14 -7 -11 -18 12 -7 17
-18 33 -23 37 -16 11 -35 -11 -31 -35 4 -21 4 -21 -10 -3 -8 10 -12 23 -9 28
4 5 -4 16 -16 25 -12 8 -19 21 -16 29 3 8 1 14 -4 14 -8 0 -26 57 -22 73 1 4
-3 7 -9 7 -6 0 -9 7 -6 15 4 8 1 17 -4 21 -6 3 -9 15 -6 25 3 11 1 19 -5 19
-6 0 -8 7 -5 15 4 8 2 17 -2 19 -5 3 -11 27 -15 54 -3 27 -9 52 -13 55 -3 4
-8 18 -9 32 -2 23 -1 24 19 13 12 -7 27 -13 32 -14z m-219 4 c4 4 2 -1 -5 -11
-11 -14 -16 -15 -22 -5 -13 20 -10 32 4 19 8 -6 18 -7 23 -3z m-376 -8 c0 -5
-5 -10 -11 -10 -5 0 -7 5 -4 10 3 6 8 10 11 10 2 0 4 -4 4 -10z m170 -44 c-8
-8 -10 -7 -5 7 5 11 2 17 -6 17 -11 0 -11 3 1 10 19 12 28 -16 10 -34z m-94
-31 c1 -8 -1 -17 -5 -19 -4 -3 -8 7 -9 21 -2 27 10 25 14 -2z m304 5 c0 -5 -5
-10 -11 -10 -5 0 -7 5 -4 10 3 6 8 10 11 10 2 0 4 -4 4 -10z m-380 -49 c7 -14
7 -28 -1 -48 -6 -15 -10 -30 -9 -33 1 -2 -3 -6 -10 -8 -13 -5 -9 20 5 30 5 4
3 9 -6 13 -11 4 -14 15 -11 35 5 35 17 38 32 11z m76 -71 c-1 -27 1 -50 4 -50
3 0 6 -23 6 -50 0 -41 -2 -48 -13 -38 -7 8 -14 32 -16 54 -2 22 -9 49 -14 59
-13 23 3 75 22 75 10 0 13 -14 11 -50z m361 -174 c-3 -8 -3 -17 1 -20 14 -14
11 -46 -4 -46 -10 0 -13 6 -9 19 4 12 0 21 -11 25 -13 5 -14 9 -4 21 16 19 34
20 27 1z m-215 -38 c-2 -15 2 -29 8 -33 9 -6 9 -10 -1 -16 -17 -10 -49 18 -49
43 0 11 5 16 10 13 6 -3 10 1 10 10 0 9 6 15 13 12 6 -2 11 -15 9 -29z m258
-93 c0 -3 -10 -5 -22 -3 -21 3 -26 17 -19 54 1 8 41 -41 41 -51z"/>
<path d="M3451 2436 c-8 -10 -7 -17 3 -26 17 -13 36 -6 36 15 0 19 -27 26 -39
11z"/>
<path d="M3743 2319 c-18 -18 7 -40 30 -27 15 7 16 12 6 24 -14 17 -21 18 -36
3z"/>
<path d="M3882 2265 c-11 -13 -7 -18 23 -32 19 -9 35 -21 35 -26 0 -5 7 -4 15
3 10 9 15 9 15 1 0 -17 30 -13 37 5 6 17 -15 36 -30 27 -4 -3 -16 2 -25 10
-26 23 -56 28 -70 12z"/>
<path d="M4020 2190 c0 -11 5 -20 10 -20 18 0 25 -3 63 -27 20 -13 37 -20 37
-16 0 5 4 2 8 -5 10 -15 45 -5 39 12 -6 18 -60 41 -65 28 -6 -20 -20 -13 -15
7 3 14 -3 21 -28 30 -44 15 -49 14 -49 -9z"/>
<path d="M2930 2185 c-16 -19 11 -50 29 -32 7 7 11 8 11 0 0 -6 21 -16 48 -24
26 -7 66 -21 90 -31 35 -16 45 -17 56 -6 12 12 4 32 -14 35 -3 0 -23 8 -45 18
-22 9 -51 19 -64 21 -13 3 -32 9 -41 14 -10 5 -20 7 -23 3 -4 -3 -13 -1 -20 6
-11 9 -17 8 -27 -4z"/>
<path d="M3401 2127 c-5 -7 -6 -18 -2 -25 9 -15 41 -5 41 13 0 18 -27 26 -39
12z"/>
<path d="M3483 2072 c-12 -20 4 -41 25 -34 16 5 15 27 -1 40 -9 8 -16 6 -24
-6z"/>
<path d="M3557 2016 c-3 -8 7 -25 23 -40 28 -24 30 -25 39 -7 8 14 5 23 -13
40 -26 24 -42 27 -49 7z"/>
<path d="M3735 1890 c-4 -7 -3 -16 3 -22 14 -14 45 -2 40 15 -6 16 -34 21 -43
7z"/>
<path d="M1603 1474 c-8 -20 17 -36 34 -22 10 8 10 14 2 24 -15 18 -28 18 -36
-2z"/>
<path d="M3240 1405 c-10 -12 -10 -18 0 -30 11 -13 14 -13 27 0 13 13 13 17 0
30 -13 13 -16 13 -27 0z"/>
<path d="M3422 1142 c-16 -5 -15 -27 1 -40 9 -8 16 -6 24 6 12 20 -4 41 -25
34z"/>
</g>
</svg>
