<?xml version="1.0" standalone="no"?>
<!DOCTYPE svg PUBLIC "-//W3C//DTD SVG 20010904//EN"
 "http://www.w3.org/TR/2001/REC-SVG-20010904/DTD/svg10.dtd">
<svg version="1.0" xmlns="http://www.w3.org/2000/svg"
 width="429.000000pt" height="421.000000pt" viewBox="0 0 429.000000 421.000000"
 preserveAspectRatio="xMidYMid meet">
<metadata>
Created by potrace 1.13, written by Peter Selinger 2001-2015
</metadata>
<g transform="translate(0.000000,421.000000) scale(0.100000,-0.100000)"
fill="#000000" stroke="none">
<path d="M1436 3610 c-10 -11 -23 -17 -28 -14 -5 3 -25 -12 -46 -34 -25 -26
-45 -39 -59 -37 -14 1 -23 -4 -23 -12 0 -7 -4 -13 -10 -13 -5 0 -7 -7 -4 -15
4 -9 0 -15 -10 -15 -9 0 -16 -4 -16 -9 0 -5 -12 -9 -27 -9 -47 1 -67 -2 -83
-12 -13 -8 -13 -12 -1 -32 16 -26 23 -128 9 -128 -5 0 -6 -10 -2 -22 14 -44 9
-72 -17 -98 -22 -21 -25 -29 -17 -50 12 -32 17 -80 9 -80 -15 0 -40 -59 -36
-83 4 -19 0 -27 -15 -32 -11 -3 -20 -11 -20 -16 0 -5 -5 -9 -11 -9 -6 0 -17
-6 -24 -14 -12 -12 -11 -18 10 -40 29 -31 37 -56 41 -121 3 -68 12 -123 21
-138 4 -6 8 -15 8 -19 0 -4 16 -29 36 -56 l37 -49 -37 -13 c-20 -7 -42 -21
-49 -32 -7 -10 -17 -16 -22 -13 -4 3 -10 2 -12 -2 -1 -5 -25 -18 -53 -31 -27
-13 -56 -27 -64 -31 -9 -4 -14 -24 -15 -54 0 -26 -4 -47 -10 -47 -5 0 -6 -3
-3 -6 4 -4 -6 -21 -21 -39 -66 -78 -63 -72 -54 -126 6 -30 6 -49 0 -49 -5 0
-7 -4 -4 -9 3 -4 -3 -16 -14 -26 -14 -13 -19 -30 -18 -68 0 -29 -5 -53 -11
-55 -6 -2 -11 -10 -11 -18 0 -8 -5 -14 -11 -14 -23 0 -79 -53 -79 -75 0 -27
26 -52 62 -59 27 -4 70 -25 55 -26 -4 0 -1 -13 7 -29 9 -16 13 -31 10 -33 -5
-5 20 -30 85 -86 l34 -30 -16 -40 c-16 -39 -16 -41 7 -55 12 -8 33 -17 47 -19
30 -4 46 -19 54 -51 6 -22 42 -50 69 -53 6 0 16 -2 22 -2 6 -1 10 -13 9 -27
-2 -14 0 -25 4 -25 4 0 21 -11 37 -25 16 -14 37 -28 47 -31 9 -3 17 -10 17
-15 0 -16 36 -10 63 11 14 11 28 20 31 20 11 0 66 60 66 71 0 6 4 8 9 5 4 -3
16 3 26 14 10 11 21 17 26 15 4 -3 10 -1 14 5 4 7 13 6 28 -1 16 -9 22 -9 25
0 4 13 41 14 62 2 8 -6 19 -7 25 -3 17 11 35 11 41 1 3 -6 11 -6 20 2 10 8 22
8 44 1 20 -7 30 -8 30 -1 0 6 5 7 10 4 6 -3 10 -1 10 4 0 6 7 11 15 11 8 0 25
11 39 25 14 14 27 25 29 25 2 0 4 -16 5 -37 1 -21 9 -43 21 -54 22 -20 72 -33
81 -20 3 4 19 11 35 14 17 3 25 4 19 1 -10 -4 -9 -35 1 -69 1 -5 3 -14 4 -20
2 -5 10 -18 18 -28 9 -9 14 -19 11 -22 -3 -3 17 -28 43 -54 27 -27 49 -56 49
-65 0 -9 5 -16 11 -16 5 0 8 -4 4 -9 -3 -5 -2 -12 3 -15 4 -2 6 -26 4 -53 -7
-90 -8 -193 -2 -193 3 0 6 -9 7 -21 4 -42 42 -59 145 -64 25 -1 44 -9 58 -24
20 -24 80 -39 80 -21 0 6 9 6 25 0 14 -5 25 -7 25 -4 0 4 7 1 15 -6 8 -7 15
-9 15 -6 0 4 9 -2 21 -13 21 -19 21 -19 52 12 24 24 39 31 73 32 24 1 44 -2
44 -6 0 -8 46 -2 62 7 37 23 114 19 145 -7 51 -44 82 -26 90 51 3 34 12 63 23
75 10 11 19 23 20 27 2 23 14 37 35 42 31 8 79 52 70 65 -3 6 -1 11 5 11 6 0
9 4 6 8 -7 12 42 62 62 62 35 0 45 17 47 81 3 97 15 125 55 133 20 4 30 19 21
30 -6 7 -8 16 -4 19 3 4 1 7 -5 7 -7 0 -12 9 -12 20 0 11 -4 20 -8 20 -4 0 -8
10 -8 23 -1 12 -3 33 -5 47 -3 20 0 25 16 22 11 -1 46 -6 78 -10 33 -5 57 -4
57 1 0 5 7 7 15 4 8 -4 17 -2 21 4 3 6 12 8 19 5 8 -3 19 2 25 10 7 8 17 14
22 14 5 0 19 10 31 21 21 21 78 50 105 55 27 5 49 34 44 59 -2 14 -1 33 3 42
5 10 7 21 7 26 -1 4 4 7 12 7 21 0 68 49 62 65 -3 8 -1 17 5 20 5 4 7 10 4 15
-3 5 13 14 35 21 51 15 67 33 50 55 -18 20 8 47 47 48 21 1 29 7 31 24 4 28
31 62 48 62 7 0 22 12 33 26 l20 26 -30 31 c-26 25 -30 36 -26 64 3 18 3 33
-1 33 -4 0 -13 10 -21 22 -11 18 -11 23 2 33 17 12 13 55 -5 55 -5 0 -7 4 -3
9 3 5 1 12 -5 16 -7 4 -7 12 0 25 17 32 11 65 -15 88 -14 12 -25 19 -25 16 0
-3 -15 6 -33 20 -19 14 -37 23 -40 19 -4 -3 -7 -2 -7 3 0 10 -69 40 -83 36 -4
-1 -16 2 -26 7 -50 27 -338 33 -378 8 -7 -4 -27 -10 -45 -12 -74 -9 -134 -17
-153 -21 -11 -2 -36 -6 -55 -10 -19 -3 -43 -10 -53 -15 -9 -6 -22 -7 -27 -4
-6 3 -10 3 -10 -2 0 -8 -37 -14 -92 -16 -16 -1 -28 -5 -28 -10 0 -4 -6 -5 -12
0 -18 10 -42 10 -50 -1 -3 -5 -21 -10 -40 -10 -18 -1 -39 -5 -45 -9 -7 -5 -17
-6 -22 -3 -5 3 -14 -1 -21 -8 -6 -8 -20 -13 -30 -11 -11 2 -22 0 -25 -4 -2 -5
-16 -6 -30 -3 -14 2 -25 0 -25 -6 0 -9 -31 -25 -52 -27 -4 0 -13 -6 -19 -12
-7 -7 -20 -13 -28 -13 -12 0 -13 2 -3 9 11 7 16 25 21 79 0 7 5 11 9 8 4 -2
27 4 50 14 23 11 42 17 42 14 0 -3 7 2 16 10 8 9 22 16 30 16 8 0 14 3 14 8 0
4 24 18 53 31 28 14 65 37 81 53 15 15 32 25 37 22 5 -3 12 2 15 10 3 9 12 16
20 16 8 0 14 4 14 9 0 4 17 20 38 34 20 14 50 37 66 51 16 14 32 26 35 26 15
0 62 50 56 59 -3 6 -1 11 4 11 31 0 -4 59 -35 60 -15 0 -54 -35 -54 -49 0 -6
-5 -11 -11 -11 -5 0 -7 -4 -4 -10 9 -14 -162 -175 -186 -175 -5 0 -16 -10 -24
-23 -9 -12 -20 -20 -25 -17 -5 3 -11 1 -15 -5 -3 -6 -21 -17 -38 -25 -18 -8
-47 -23 -66 -34 -36 -21 -101 -49 -115 -49 -5 0 -13 -6 -18 -14 -5 -8 -6 -2
-2 17 4 17 8 32 10 34 2 2 -13 17 -33 33 -30 23 -39 27 -48 16 -5 -7 -17 -14
-25 -16 -8 -2 -18 -9 -22 -15 -7 -11 -12 21 -11 61 1 6 -3 12 -8 12 -5 0 -7
14 -5 30 2 17 0 30 -3 30 -8 0 -9 9 -12 98 -2 34 -5 62 -8 62 -6 0 -6 51 -1
68 5 15 2 58 -5 75 -4 9 -3 17 2 17 10 0 11 7 14 55 1 14 5 25 10 25 5 0 6 7
3 15 -4 8 -2 15 3 15 13 0 45 59 38 70 -3 6 -1 10 6 10 8 0 9 3 0 13 -6 8 -9
16 -6 19 3 3 -3 12 -13 22 -18 15 -20 15 -45 -10 -15 -15 -27 -29 -28 -33 -2
-12 -8 -77 -12 -132 -2 -31 -8 -62 -11 -68 -4 -6 -2 -11 4 -11 7 0 9 -8 5 -21
-12 -37 -13 -69 -1 -69 7 0 8 -3 1 -8 -12 -8 -12 -107 -1 -162 12 -58 17 -94
17 -117 -1 -13 3 -23 7 -23 6 0 7 -34 3 -72 -1 -4 -9 -9 -19 -12 -10 -4 -23
-16 -28 -29 -6 -12 -9 -16 -7 -9 1 7 -4 15 -12 18 -11 5 -12 11 -4 25 7 13 6
25 -1 39 -6 11 -8 24 -6 29 3 5 -1 12 -10 15 -8 3 -12 10 -9 16 3 5 2 10 -3
10 -11 0 -22 31 -27 73 -1 15 -7 33 -13 40 -5 6 -13 27 -17 45 -3 17 -10 32
-14 32 -4 0 -13 16 -21 35 -8 19 -17 35 -21 35 -4 0 -6 9 -4 20 2 11 0 20 -5
20 -9 0 -25 39 -22 53 1 4 -3 7 -8 7 -6 0 -10 7 -10 15 0 9 -8 30 -17 48 -9
18 -16 35 -15 40 1 4 -2 7 -7 7 -5 0 -12 14 -16 30 -4 17 -11 30 -16 30 -6 0
-8 4 -4 9 3 6 -3 14 -12 20 -10 6 -15 11 -10 11 4 0 0 11 -9 25 -9 14 -14 25
-11 25 3 0 -5 12 -18 26 -14 15 -30 42 -37 60 -7 19 -16 34 -20 34 -4 0 -8 7
-8 15 0 8 -3 15 -7 15 -9 0 -40 51 -39 62 1 4 -8 14 -19 22 -11 9 -16 16 -12
16 4 0 -10 18 -33 40 -22 21 -40 42 -40 45 0 29 -243 187 -284 184 -6 0 -20
-9 -30 -19z m254 -207 c0 -17 -18 -35 -29 -29 -8 5 -7 11 2 21 13 16 27 19 27
8z m154 -1728 c3 -8 1 -15 -4 -15 -6 0 -10 7 -10 15 0 8 2 15 4 15 2 0 6 -7
10 -15z m416 -361 c0 -9 -5 -14 -12 -12 -18 6 -21 28 -4 28 9 0 16 -7 16 -16z
m-16 -79 c11 -8 15 -15 9 -15 -7 0 -15 5 -18 10 -4 6 -11 8 -16 5 -5 -4 -9 -1
-9 4 0 15 11 13 34 -4z"/>
</g>
</svg>
