<?xml version="1.0" standalone="no"?>
<!DOCTYPE svg PUBLIC "-//W3C//DTD SVG 20010904//EN"
 "http://www.w3.org/TR/2001/REC-SVG-20010904/DTD/svg10.dtd">
<svg version="1.0" xmlns="http://www.w3.org/2000/svg"
 width="377.000000pt" height="375.000000pt" viewBox="0 0 377.000000 375.000000"
 preserveAspectRatio="xMidYMid meet">
<metadata>
Created by potrace 1.13, written by Peter Selinger 2001-2015
</metadata>
<g transform="translate(0.000000,375.000000) scale(0.100000,-0.100000)"
fill="#000000" stroke="none">
<path d="M1796 3504 c-3 -8 -13 -14 -21 -14 -9 0 -30 -14 -48 -30 -18 -17 -39
-32 -49 -35 -9 -3 -19 -16 -22 -28 -3 -12 -20 -38 -39 -58 -18 -19 -32 -40
-29 -47 2 -7 -1 -12 -7 -12 -6 0 -11 -7 -11 -15 0 -8 -3 -14 -7 -14 -21 3 -34
-2 -31 -13 4 -12 -14 -39 -40 -62 -34 -29 -72 -70 -72 -77 0 -5 -3 -8 -7 -8
-21 3 -33 -3 -33 -17 0 -8 -4 -13 -9 -9 -6 3 -14 -3 -20 -12 -6 -10 -11 -14
-11 -9 0 10 -24 -17 -103 -112 -46 -57 -52 -69 -53 -113 0 -27 4 -49 9 -49 6
0 7 -3 4 -7 -4 -3 -15 1 -25 10 -10 9 -35 17 -55 19 -21 1 -40 5 -43 9 -6 11
-121 1 -146 -13 -13 -7 -25 -13 -28 -13 -3 -1 -27 -12 -55 -25 -27 -13 -53
-23 -57 -22 -5 1 -8 -5 -8 -13 0 -8 -5 -15 -11 -15 -5 0 -8 -4 -4 -9 3 -5 -4
-12 -15 -16 -11 -3 -20 -9 -20 -13 0 -4 -13 -23 -30 -42 -16 -19 -29 -39 -28
-45 1 -5 -4 -23 -10 -38 -7 -16 -12 -32 -12 -37 0 -5 -9 -24 -20 -42 -11 -19
-22 -51 -25 -71 -4 -21 -12 -52 -19 -70 -7 -18 -11 -45 -9 -62 2 -16 3 -38 4
-47 0 -10 5 -18 11 -18 6 0 8 -3 5 -6 -3 -4 -2 -15 3 -25 6 -10 11 -36 12 -58
1 -23 8 -49 17 -58 9 -10 22 -30 28 -45 7 -16 16 -28 20 -28 5 0 21 -11 36
-25 15 -14 27 -23 27 -19 0 3 7 1 15 -6 8 -7 15 -9 15 -5 0 4 6 3 13 -2 6 -6
20 -9 30 -8 9 2 17 0 17 -5 0 -4 10 -6 23 -6 12 1 27 0 32 -3 11 -6 12 -6 72
-14 21 -3 45 -9 55 -12 9 -4 29 -7 45 -9 15 -1 28 -6 28 -11 0 -6 -3 -9 -7 -7
-5 1 -8 -2 -8 -8 0 -6 -3 -10 -7 -9 -16 2 -53 -14 -53 -22 0 -5 -5 -9 -11 -9
-20 0 -76 -51 -75 -68 0 -10 10 -27 20 -38 16 -15 32 -18 94 -16 42 1 84 5 95
8 19 6 19 6 1 -19 -11 -14 -22 -23 -26 -21 -4 3 -18 -11 -30 -30 -13 -20 -28
-36 -34 -36 -13 0 -64 -56 -64 -70 0 -5 -3 -9 -7 -9 -20 3 -33 -2 -33 -14 0
-7 -9 -19 -20 -27 -11 -8 -20 -20 -20 -27 0 -7 -5 -13 -10 -13 -23 0 -47 -90
-28 -102 8 -4 8 -8 2 -8 -13 0 -7 -93 7 -98 5 -2 6 -8 3 -13 -3 -6 -1 -15 4
-22 9 -11 25 -70 22 -82 0 -3 19 -29 44 -57 26 -27 46 -54 46 -58 0 -9 97 -75
109 -75 3 0 26 -20 51 -45 25 -25 54 -45 65 -45 11 1 39 -7 62 -16 50 -21 103
-31 103 -19 0 5 8 9 18 9 115 5 132 7 132 19 0 7 4 11 9 8 5 -3 14 1 21 9 7 8
18 15 25 15 7 0 30 20 50 44 l38 43 46 -46 c45 -45 56 -51 93 -54 10 -1 18 -5
18 -10 0 -4 4 -6 9 -2 5 3 12 1 16 -4 3 -5 13 -10 23 -10 31 0 117 -11 132
-17 15 -6 75 -13 138 -16 17 -1 32 -5 32 -10 0 -4 9 -8 19 -8 11 0 23 -5 26
-10 4 -6 11 -8 16 -5 5 4 9 1 9 -5 0 -6 4 -9 9 -5 5 3 12 1 16 -5 4 -6 11 -8
16 -5 5 4 9 2 9 -2 0 -9 53 -35 98 -48 12 -3 22 -10 22 -15 0 -4 8 -7 18 -5 9
1 22 0 27 -4 6 -3 21 -7 35 -7 14 -1 26 -3 28 -4 9 -7 61 -1 80 9 12 6 26 10
31 7 11 -7 46 34 58 70 10 29 10 41 -2 99 -4 17 -7 38 -8 48 -1 9 -4 17 -8 17
-4 0 -10 12 -14 28 -6 24 -139 259 -154 272 -11 9 -61 86 -61 93 0 4 -18 25
-40 47 -22 22 -40 43 -40 47 0 5 -9 15 -20 23 -11 8 -20 20 -20 27 0 7 -4 13
-10 13 -5 0 -36 26 -68 58 -77 77 -152 142 -163 142 -5 0 -9 5 -9 11 0 14 -71
80 -80 74 -3 -2 -28 16 -55 40 -28 25 -55 45 -61 45 -5 0 -19 8 -30 19 -11 10
-30 22 -42 25 -12 4 -22 12 -22 17 0 5 -10 9 -22 10 -21 1 -20 2 4 9 15 4 35
15 44 24 15 16 84 20 84 5 0 -3 8 -6 18 -6 25 1 95 -14 107 -23 6 -4 18 -6 27
-5 10 2 20 -1 24 -6 3 -5 9 -7 14 -4 5 3 18 1 29 -5 11 -5 41 -12 66 -15 45
-4 94 -30 95 -50 0 -5 9 1 19 14 18 24 18 25 -8 46 -38 32 -64 44 -97 44 -41
0 -68 5 -74 12 -5 6 -75 20 -112 22 -10 1 -18 5 -18 9 0 4 -3 7 -7 6 -16 -3
-89 14 -121 28 -29 13 -31 16 -18 29 8 8 18 15 23 15 11 0 43 37 43 50 0 9 14
14 33 11 4 0 7 4 7 9 0 14 60 76 71 73 5 -2 9 3 9 10 0 6 15 23 32 37 36 28
59 53 56 60 -1 3 10 23 24 46 26 40 26 41 6 53 -25 15 -44 1 -53 -40 -4 -16
-11 -29 -16 -29 -5 0 -9 -5 -9 -11 0 -6 -29 -39 -65 -74 -36 -35 -65 -69 -65
-74 0 -6 -6 -11 -14 -11 -8 0 -23 -10 -33 -23 -10 -12 -35 -36 -56 -52 -31
-23 -42 -27 -56 -18 -12 7 -23 8 -35 1 -19 -11 -37 -1 -20 10 6 4 15 18 19 32
4 14 11 27 15 30 10 7 72 142 77 165 2 11 8 21 13 23 5 2 6 10 3 18 -3 8 1 14
8 14 7 0 9 3 6 7 -4 3 -2 12 4 20 6 7 9 13 6 13 -4 0 1 19 9 43 9 23 17 51 20
62 2 11 7 34 11 50 4 17 6 33 5 38 -1 4 3 7 9 7 6 0 9 7 5 15 -3 8 -2 15 2 15
4 0 8 8 9 18 3 42 8 62 15 62 4 0 5 7 2 15 -4 8 -2 15 3 15 5 0 8 14 7 30 -1
17 1 30 5 30 4 0 8 15 9 33 2 17 5 46 8 62 17 102 27 402 13 411 -5 3 -6 10
-3 16 4 6 0 14 -7 19 -9 5 -10 9 -2 9 9 0 11 27 3 38 -2 1 -4 7 -5 12 -1 6 -4
12 -5 15 -1 3 -4 8 -5 13 -24 79 -76 126 -142 128 -27 1 -44 -3 -47 -12z"/>
</g>
</svg>
