<?xml version="1.0" standalone="no"?>
<!DOCTYPE svg PUBLIC "-//W3C//DTD SVG 20010904//EN"
 "http://www.w3.org/TR/2001/REC-SVG-20010904/DTD/svg10.dtd">
<svg version="1.0" xmlns="http://www.w3.org/2000/svg"
 width="413.000000pt" height="325.000000pt" viewBox="0 0 413.000000 325.000000"
 preserveAspectRatio="xMidYMid meet">
<metadata>
Created by potrace 1.13, written by Peter Selinger 2001-2015
</metadata>
<g transform="translate(0.000000,325.000000) scale(0.100000,-0.100000)"
fill="#000000" stroke="none">
<path d="M1145 3000 c-4 -6 -22 -17 -40 -25 -19 -7 -55 -35 -80 -61 -39 -40
-46 -52 -43 -81 2 -29 -3 -40 -34 -68 -31 -27 -72 -89 -137 -205 -4 -8 -23
-18 -42 -22 -46 -9 -72 -43 -103 -135 -41 -124 -31 -184 34 -198 17 -4 38 -18
48 -33 23 -38 31 -42 83 -42 56 0 133 32 177 73 35 34 36 33 22 -33 -14 -64
-33 -237 -33 -293 0 -26 5 -53 12 -60 6 -6 11 -30 11 -53 0 -24 4 -45 9 -48 4
-3 11 -20 15 -38 3 -17 12 -39 20 -47 16 -20 46 -138 46 -184 0 -47 26 -96 55
-103 17 -4 32 -22 49 -58 14 -29 32 -59 41 -66 8 -7 15 -19 15 -27 0 -53 121
-194 213 -247 38 -22 50 -25 67 -16 21 11 126 -2 141 -18 16 -16 40 -186 55
-398 l6 -81 -51 -57 c-47 -51 -71 -91 -71 -116 0 -11 109 -70 131 -70 9 0 21
-6 27 -13 25 -30 149 7 167 51 4 9 9 141 11 292 3 292 15 409 57 555 21 74 25
80 48 77 13 -2 118 -5 234 -6 l210 -2 7 -52 c4 -28 17 -71 28 -94 30 -66 50
-128 50 -157 0 -14 11 -42 24 -61 13 -19 26 -53 30 -75 16 -99 23 -212 14
-234 -10 -27 -48 -71 -62 -71 -12 0 -35 -32 -36 -48 0 -7 12 -29 26 -48 22
-28 33 -34 64 -34 21 0 43 -6 49 -14 16 -19 144 -18 196 2 92 35 106 69 112
267 2 83 4 224 5 315 0 114 5 174 14 195 21 48 52 147 59 190 4 22 22 87 40
145 18 58 36 126 40 153 4 26 11 47 16 47 17 0 21 -53 16 -193 -5 -151 -22
-227 -60 -279 -30 -41 -31 -144 -1 -184 29 -40 50 -51 72 -38 31 20 44 66 52
183 4 64 14 134 22 156 9 22 23 92 32 156 16 112 16 118 -3 208 -12 52 -38
132 -60 180 -96 213 -99 217 -210 339 -72 78 -95 126 -89 180 3 26 5 27 74 30
96 4 108 17 106 114 0 39 -6 92 -11 117 -6 25 -13 68 -17 94 -5 43 -13 56 -70
114 l-65 65 -77 -6 c-110 -7 -170 -21 -224 -51 -47 -26 -128 -121 -128 -150 0
-34 -25 -7 -32 34 -4 24 -16 57 -27 74 -11 18 -27 46 -34 63 -11 23 -28 35
-70 52 -53 20 -61 20 -121 8 -93 -20 -246 -100 -246 -129 0 -5 -11 -22 -24
-38 -28 -33 -56 -120 -56 -174 0 -56 65 -106 120 -92 33 8 33 -10 0 -54 -16
-23 -30 -46 -30 -51 0 -6 -17 -28 -37 -51 -86 -94 -120 -123 -163 -136 -25 -7
-50 -17 -55 -22 -18 -14 -137 9 -195 38 -146 75 -247 331 -211 538 7 38 15 74
19 79 4 6 7 29 8 51 0 22 4 59 8 81 11 62 -19 92 -115 115 -84 21 -135 24
-144 9z"/>
</g>
</svg>
