<?xml version="1.0" standalone="no"?>
<!DOCTYPE svg PUBLIC "-//W3C//DTD SVG 20010904//EN"
 "http://www.w3.org/TR/2001/REC-SVG-20010904/DTD/svg10.dtd">
<svg version="1.0" xmlns="http://www.w3.org/2000/svg"
 width="382.000000pt" height="363.000000pt" viewBox="0 0 382.000000 363.000000"
 preserveAspectRatio="xMidYMid meet">
<metadata>
Created by potrace 1.13, written by Peter Selinger 2001-2015
</metadata>
<g transform="translate(0.000000,363.000000) scale(0.100000,-0.100000)"
fill="#000000" stroke="none">
<path d="M1215 3277 c-17 -8 -47 -35 -68 -60 -21 -26 -46 -47 -56 -47 -10 0
-26 -9 -36 -20 -10 -11 -25 -20 -34 -20 -17 0 -141 -128 -141 -145 0 -20 -64
-72 -140 -114 -41 -23 -89 -53 -107 -69 -34 -29 -103 -117 -103 -131 0 -5 -7
-14 -15 -21 -20 -17 -20 -137 0 -176 8 -16 15 -43 15 -60 0 -21 10 -39 31 -60
29 -28 33 -29 130 -29 l99 0 38 44 c64 74 86 24 32 -72 -16 -30 -30 -59 -30
-65 0 -7 -20 -40 -45 -74 -25 -34 -45 -68 -45 -74 0 -7 11 -26 25 -42 14 -17
25 -35 25 -41 0 -6 -18 -29 -40 -51 -38 -38 -40 -43 -40 -103 0 -36 -8 -89
-19 -121 -24 -74 -13 -126 36 -164 32 -26 33 -29 27 -79 -8 -71 9 -116 60
-158 28 -23 47 -48 54 -74 7 -21 29 -57 50 -80 29 -34 46 -44 80 -48 33 -4 45
-11 55 -32 22 -46 70 -63 165 -57 l83 6 15 -36 c9 -21 17 -83 20 -149 l5 -114
-41 -45 c-55 -60 -130 -107 -193 -121 -58 -13 -101 -55 -79 -77 7 -7 12 -22
12 -33 0 -36 33 -56 112 -68 59 -9 81 -17 117 -46 37 -30 52 -36 105 -39 101
-6 243 35 304 87 22 19 22 22 8 50 -9 17 -16 40 -16 52 0 12 -12 54 -26 93
-25 68 -26 80 -26 266 0 203 12 283 43 303 11 7 38 -1 102 -31 135 -63 305
-94 398 -72 34 9 54 9 61 2 6 -6 10 -59 10 -121 1 -101 -2 -115 -27 -168 -19
-38 -57 -86 -111 -141 -78 -77 -83 -85 -77 -115 4 -19 21 -45 42 -64 34 -30
41 -32 111 -33 58 0 82 -5 105 -20 37 -24 131 -27 232 -6 117 25 120 27 128
90 7 55 -2 98 -42 198 -11 27 -14 64 -11 140 3 93 7 111 36 169 17 35 49 85
69 111 21 25 75 92 121 149 46 56 92 120 103 141 30 59 52 49 61 -27 22 -194
22 -221 0 -261 -43 -82 -53 -148 -28 -194 7 -14 23 -44 36 -68 35 -67 90 -83
134 -38 20 19 25 38 31 109 9 103 4 126 -35 170 -29 33 -30 38 -32 143 -1 60
0 206 2 324 3 204 1 219 -20 280 -33 92 -57 148 -79 179 -10 14 -46 80 -81
146 -34 66 -81 147 -105 180 -24 33 -54 75 -67 93 -38 53 -80 74 -132 67 -25
-4 -51 -14 -58 -22 -6 -8 -28 -23 -49 -33 -20 -11 -64 -52 -96 -92 -33 -40
-66 -74 -75 -76 -28 -5 -40 32 -27 83 19 73 7 182 -24 232 -14 23 -29 53 -33
67 -7 30 -17 39 -80 72 -128 65 -244 25 -357 -124 -44 -60 -58 -85 -76 -140
-6 -18 -35 -71 -65 -118 -31 -46 -65 -102 -76 -123 -24 -47 -66 -83 -94 -79
-15 2 -23 14 -29 47 -8 42 -7 45 31 81 31 30 40 48 44 82 3 25 21 69 43 106
34 56 36 65 25 91 -10 24 -9 35 5 65 14 29 15 41 6 64 -8 18 -8 42 -2 77 6 32
6 56 -1 68 -5 11 -8 38 -6 61 5 45 -14 96 -36 96 -19 0 -46 33 -46 58 0 12
-14 32 -35 48 -27 20 -35 34 -35 58 -1 41 -29 94 -62 119 -35 26 -130 33 -173
14z"/>
</g>
</svg>
