<?xml version="1.0" standalone="no"?>
<!DOCTYPE svg PUBLIC "-//W3C//DTD SVG 20010904//EN"
 "http://www.w3.org/TR/2001/REC-SVG-20010904/DTD/svg10.dtd">
<svg version="1.0" xmlns="http://www.w3.org/2000/svg"
 width="390.000000pt" height="339.000000pt" viewBox="0 0 390.000000 339.000000"
 preserveAspectRatio="xMidYMid meet">
<metadata>
Created by potrace 1.13, written by Peter Selinger 2001-2015
</metadata>
<g transform="translate(0.000000,339.000000) scale(0.100000,-0.100000)"
fill="#000000" stroke="none">
<path d="M1129 3151 c-16 -16 -29 -40 -29 -53 0 -13 -9 -40 -20 -61 -11 -20
-20 -48 -20 -61 0 -16 -14 -35 -43 -59 -24 -20 -62 -59 -83 -87 -21 -29 -57
-61 -79 -72 -77 -39 -93 -69 -55 -103 15 -14 20 -31 20 -71 0 -70 12 -97 53
-123 25 -15 55 -22 108 -24 86 -4 81 10 56 -157 -17 -114 -32 -242 -43 -359
-3 -41 -13 -89 -21 -108 -10 -25 -12 -54 -7 -109 6 -67 10 -77 30 -85 20 -7
24 -16 24 -52 0 -46 18 -72 55 -79 13 -2 26 -20 37 -51 16 -44 17 -51 4 -75
-9 -15 -28 -52 -44 -83 -16 -31 -49 -81 -73 -110 -50 -60 -89 -123 -89 -144 0
-22 46 -48 70 -40 27 9 51 -12 89 -79 40 -71 166 -197 224 -225 l48 -23 74 17
c100 24 110 36 102 126 -8 99 -47 135 -101 94 -11 -8 -28 -15 -38 -15 -11 0
-33 -7 -51 -16 l-32 -17 -92 99 c-51 54 -93 104 -93 111 0 6 12 25 26 42 22
27 32 31 74 31 27 0 51 4 54 9 3 4 27 14 53 22 33 9 65 29 100 62 64 60 84 59
95 -3 4 -25 21 -70 38 -102 25 -47 29 -64 24 -97 -4 -24 -2 -53 5 -69 10 -23
8 -68 -8 -223 -31 -285 -38 -318 -70 -330 -81 -31 -191 -103 -215 -141 -15
-25 1 -47 55 -76 59 -32 158 -27 242 11 56 26 57 28 57 68 0 22 -5 50 -11 62
-14 26 4 187 32 292 11 39 24 115 30 170 20 190 34 241 84 299 25 28 50 66 56
86 17 53 27 60 80 60 42 0 50 -4 69 -30 12 -17 26 -46 31 -65 5 -19 21 -48 34
-64 14 -16 25 -34 25 -40 0 -6 -22 -55 -49 -109 -27 -53 -59 -129 -71 -167
-12 -39 -26 -85 -31 -103 -11 -33 -9 -35 50 -89 58 -52 61 -57 61 -102 0 -89
37 -93 126 -15 59 51 64 59 64 96 0 47 -39 108 -69 108 -11 0 -28 8 -40 18
l-22 17 26 90 c45 154 132 306 167 292 16 -6 61 -133 64 -182 3 -38 -30 -189
-62 -279 -13 -38 -24 -75 -24 -82 0 -26 -51 -125 -68 -131 -9 -4 -37 -22 -61
-40 -24 -18 -56 -33 -70 -33 -37 0 -71 -26 -71 -55 0 -37 53 -75 103 -75 48 0
227 36 239 48 4 4 11 30 14 57 4 33 15 59 32 77 23 25 24 32 19 100 -4 57 -1
81 13 108 9 19 25 58 34 86 9 28 31 73 49 100 90 135 116 189 117 235 0 19 -4
39 -8 45 -11 12 -32 86 -32 112 0 12 7 25 16 30 13 7 17 30 19 118 1 82 8 126
25 179 27 83 34 93 55 75 12 -10 15 -36 15 -134 -1 -66 -5 -154 -9 -193 -11
-91 7 -205 35 -234 12 -12 50 -26 98 -35 70 -15 83 -15 124 -1 36 11 46 19 45
33 -20 166 -33 195 -99 230 -62 33 -93 92 -99 194 -6 92 -27 195 -48 238 -8
15 -19 52 -25 82 -39 179 -57 251 -78 297 -12 29 -20 61 -17 72 3 13 -4 32
-22 53 -23 27 -26 38 -21 72 10 69 9 312 -2 332 -5 10 -18 36 -28 57 -26 53
-41 64 -107 81 -45 12 -71 13 -115 5 -71 -12 -102 -25 -102 -42 0 -7 -12 -42
-26 -78 -21 -51 -28 -89 -34 -186 -7 -114 -17 -153 -41 -153 -23 0 -39 76 -37
180 2 145 -12 190 -80 258 l-53 52 -67 0 c-95 -1 -139 -13 -179 -52 -44 -42
-93 -144 -104 -217 -4 -31 -13 -92 -20 -136 -14 -99 -43 -162 -88 -192 -43
-29 -53 -29 -89 2 -49 41 -75 130 -76 262 -1 124 7 145 74 191 18 12 41 39 51
60 10 20 23 44 28 52 11 19 31 103 31 131 0 12 -7 36 -16 55 -13 27 -14 40 -5
62 7 18 8 40 1 67 -15 65 -71 97 -132 76 -28 -10 -34 -9 -43 6 -5 9 -22 30
-37 45 -22 24 -35 28 -78 28 -44 0 -56 -4 -81 -29z"/>
</g>
</svg>
