<?xml version="1.0" standalone="no"?>
<!DOCTYPE svg PUBLIC "-//W3C//DTD SVG 20010904//EN"
 "http://www.w3.org/TR/2001/REC-SVG-20010904/DTD/svg10.dtd">
<svg version="1.0" xmlns="http://www.w3.org/2000/svg"
 width="369.000000pt" height="333.000000pt" viewBox="0 0 369.000000 333.000000"
 preserveAspectRatio="xMidYMid meet">
<metadata>
Created by potrace 1.13, written by Peter Selinger 2001-2015
</metadata>
<g transform="translate(0.000000,333.000000) scale(0.100000,-0.100000)"
fill="#000000" stroke="none">
<path d="M2790 3200 c-8 -5 -28 -10 -43 -10 -17 0 -46 -14 -70 -32 -23 -18
-51 -38 -62 -44 -32 -18 -63 -72 -71 -122 -3 -26 -32 -101 -64 -167 -32 -66
-66 -145 -75 -175 -10 -30 -26 -72 -36 -92 -11 -20 -19 -46 -19 -57 0 -27 -47
-125 -70 -146 -21 -19 -41 -12 -93 31 -16 13 -35 24 -43 24 -8 0 -32 16 -54
36 -35 32 -40 42 -40 80 0 37 4 46 28 59 74 41 89 75 48 114 -13 12 -26 39
-30 61 -15 95 -121 190 -210 190 -62 0 -130 -28 -171 -70 -23 -24 -48 -40 -62
-40 -35 0 -84 -24 -125 -61 l-38 -34 10 -65 c8 -59 7 -70 -15 -117 -18 -39
-30 -54 -51 -59 -32 -8 -54 15 -54 58 0 17 -7 31 -20 38 -11 6 -20 17 -20 24
0 22 -44 56 -117 91 -36 17 -78 12 -135 -16 -21 -11 -44 -19 -53 -19 -9 0 -38
-9 -65 -21 -62 -26 -111 -87 -121 -148 -23 -139 1 -208 79 -224 43 -8 68 -36
58 -62 -5 -15 -136 -111 -221 -163 -30 -18 -67 -49 -82 -70 -15 -20 -34 -43
-41 -51 -26 -27 -53 -93 -72 -175 -11 -47 -32 -119 -45 -161 -14 -42 -34 -111
-45 -153 -34 -129 -63 -216 -82 -244 -10 -14 -18 -30 -18 -35 0 -6 -9 -18 -21
-29 -12 -10 -27 -31 -35 -46 -14 -27 -19 -123 -8 -152 10 -25 81 -53 153 -60
71 -7 91 2 91 39 0 29 10 55 20 55 4 0 16 -19 25 -42 30 -75 17 -306 -21 -380
-8 -15 -15 -56 -17 -90 l-2 -63 40 -3 c22 -2 44 -7 50 -11 14 -11 200 -24 310
-21 89 1 115 10 115 36 0 18 41 34 85 34 29 0 36 5 51 36 13 27 15 44 8 72
-12 49 -46 65 -157 71 -121 8 -130 22 -107 157 26 148 44 210 101 341 11 24
19 46 19 49 0 4 17 41 39 83 21 42 41 88 44 102 4 15 15 36 24 48 l18 22 70
-22 c39 -12 90 -31 115 -42 25 -11 59 -23 75 -27 27 -5 30 -9 27 -41 -2 -18
-3 -85 -3 -147 l0 -113 30 -28 c17 -16 31 -33 31 -39 0 -5 14 -27 31 -48 27
-34 30 -45 26 -84 -3 -25 -20 -79 -37 -120 -40 -95 -54 -159 -52 -238 2 -68
14 -102 37 -102 8 0 42 -9 75 -21 77 -26 201 -22 270 10 33 15 66 21 121 21
86 0 141 18 164 54 36 55 -22 103 -153 125 -48 9 -75 19 -81 29 -5 10 -15 52
-22 95 -13 77 -13 80 11 125 17 31 37 53 61 65 20 9 59 39 87 66 28 26 57 51
65 54 8 3 17 24 21 48 4 23 20 62 36 86 19 28 30 57 30 79 0 20 13 57 31 89
32 58 39 59 91 23 17 -12 44 -18 80 -18 30 0 58 -4 63 -9 6 -6 34 -5 70 1 66
12 63 10 254 197 125 122 151 156 151 192 0 14 6 32 14 38 8 7 17 30 21 51 4
21 13 44 21 51 8 6 14 19 14 29 0 10 7 33 15 53 15 36 52 193 62 262 3 22 10
46 16 54 7 8 13 58 14 115 1 55 7 141 13 189 7 49 9 104 6 123 -7 34 -6 34 29
34 55 0 95 25 95 59 0 16 10 37 24 50 40 37 51 89 32 153 -26 90 -98 138 -208
138 -38 0 -68 3 -68 8 0 4 -12 20 -26 36 -19 22 -41 31 -97 43 -40 8 -82 21
-94 29 -26 16 -52 18 -73 4z"/>
</g>
</svg>
