<?xml version="1.0" standalone="no"?>
<!DOCTYPE svg PUBLIC "-//W3C//DTD SVG 20010904//EN"
 "http://www.w3.org/TR/2001/REC-SVG-20010904/DTD/svg10.dtd">
<svg version="1.0" xmlns="http://www.w3.org/2000/svg"
 width="363.000000pt" height="338.000000pt" viewBox="0 0 363.000000 338.000000"
 preserveAspectRatio="xMidYMid meet">
<metadata>
Created by potrace 1.13, written by Peter Selinger 2001-2015
</metadata>
<g transform="translate(0.000000,338.000000) scale(0.100000,-0.100000)"
fill="#000000" stroke="none">
<path d="M787 3090 c-18 -16 -45 -32 -60 -35 -30 -8 -77 -58 -77 -82 0 -8 -9
-27 -21 -41 -16 -21 -19 -34 -14 -67 4 -22 11 -44 16 -50 16 -16 10 -35 -14
-44 -42 -16 -90 -65 -113 -116 -42 -89 -28 -205 24 -205 7 0 20 -4 30 -10 9
-5 38 -18 65 -29 45 -19 60 -42 37 -56 -23 -14 -58 -83 -74 -146 -18 -74 -20
-103 -7 -127 5 -10 5 -40 -2 -74 -7 -42 -7 -69 3 -110 7 -29 12 -84 11 -121
-2 -82 13 -143 38 -157 12 -6 21 -26 25 -54 4 -25 15 -55 25 -68 10 -13 26
-39 36 -58 10 -19 38 -55 63 -81 29 -30 53 -69 71 -114 29 -76 46 -90 61 -50
5 14 15 23 20 20 10 -6 17 -21 73 -148 22 -47 30 -57 51 -57 19 0 29 -9 42
-35 14 -31 15 -43 3 -102 -22 -115 -162 -378 -249 -468 -31 -33 -72 -88 -91
-122 -32 -60 -32 -63 -15 -81 27 -31 63 -32 120 -6 91 43 139 85 157 137 8 26
26 58 38 71 13 14 25 42 28 68 9 64 45 129 115 202 75 78 106 86 138 34 33
-55 36 -111 9 -175 -26 -60 -31 -64 -97 -84 -46 -13 -112 -78 -112 -109 0 -24
35 -53 57 -46 10 3 50 8 89 10 139 9 198 41 225 124 6 20 21 49 31 65 l20 27
-32 96 c-23 68 -34 124 -39 197 l-7 102 30 35 c16 19 44 45 61 57 19 13 41 42
54 73 18 42 26 50 41 45 15 -5 23 3 38 32 30 57 52 73 163 109 56 19 103 34
104 34 2 0 17 -25 35 -56 17 -30 60 -84 95 -118 53 -52 65 -69 65 -95 0 -34
-65 -165 -132 -266 -22 -33 -42 -76 -45 -95 -6 -39 -29 -70 -50 -70 -30 0 -72
-31 -111 -84 -23 -30 -42 -60 -42 -65 0 -21 67 -40 102 -30 18 5 45 9 59 9 27
0 35 8 144 137 24 29 48 69 54 88 12 46 58 102 188 235 77 78 106 115 114 143
10 38 9 40 -41 92 -50 54 -79 107 -100 186 -9 31 -9 44 0 53 9 8 17 4 34 -19
54 -76 201 -193 292 -234 25 -11 51 -46 84 -110 20 -41 22 -58 21 -198 -1
-165 11 -223 50 -244 11 -5 33 -33 49 -62 54 -96 135 -153 200 -141 35 8 45
22 55 81 6 38 4 43 -25 65 -18 12 -43 38 -56 57 -13 20 -38 40 -56 46 -30 9
-33 13 -30 45 2 29 -3 41 -32 70 -51 48 -48 74 20 187 43 70 58 106 62 142 l4
49 -54 41 c-65 49 -94 101 -108 197 -20 140 -14 209 31 339 22 66 43 147 47
180 l7 60 46 3 c43 3 49 0 78 -35 39 -48 40 -82 1 -126 -22 -25 -30 -45 -30
-72 0 -42 -41 -119 -76 -142 -13 -8 -24 -19 -24 -24 0 -12 37 -12 44 0 3 5 31
21 61 36 63 30 83 56 91 111 3 22 12 53 20 71 18 40 18 114 0 156 -20 49 -91
105 -155 123 -140 41 -150 50 -195 167 -26 68 -36 115 -41 182 -11 138 -37
206 -102 264 -108 96 -222 86 -326 -30 -73 -80 -107 -79 -122 4 -5 23 -28 64
-61 106 -41 53 -66 75 -111 96 -143 69 -283 4 -332 -155 -13 -42 -37 -82 -76
-130 -86 -105 -118 -130 -166 -130 -59 0 -79 14 -79 55 0 19 -9 58 -19 87 -11
29 -19 70 -18 90 0 22 -6 44 -16 55 -9 11 -15 31 -14 47 2 24 -3 30 -33 39
-33 11 -35 15 -40 62 -4 42 -8 50 -30 55 -21 5 -25 12 -28 48 -2 27 -9 45 -18
49 -8 3 -21 18 -30 34 -8 16 -21 29 -28 29 -8 0 -28 17 -45 38 l-30 38 -91 2
c-86 1 -92 0 -123 -28z"/>
</g>
</svg>
