<?xml version="1.0" standalone="no"?>
<!DOCTYPE svg PUBLIC "-//W3C//DTD SVG 20010904//EN"
 "http://www.w3.org/TR/2001/REC-SVG-20010904/DTD/svg10.dtd">
<svg version="1.0" xmlns="http://www.w3.org/2000/svg"
 width="346.000000pt" height="346.000000pt" viewBox="0 0 346.000000 346.000000"
 preserveAspectRatio="xMidYMid meet">
<metadata>
Created by potrace 1.13, written by Peter Selinger 2001-2015
</metadata>
<g transform="translate(0.000000,346.000000) scale(0.100000,-0.100000)"
fill="#000000" stroke="none">
<path d="M1620 3063 c-23 -5 -110 -44 -172 -79 -29 -16 -80 -85 -103 -141 -18
-42 -22 -177 -6 -215 6 -16 17 -28 26 -28 9 0 20 -11 24 -24 5 -12 28 -38 50
-55 23 -18 41 -38 41 -45 0 -13 -35 -51 -114 -120 -31 -27 -56 -58 -56 -68 0
-10 -10 -22 -24 -28 -13 -5 -28 -22 -34 -39 -6 -17 -16 -31 -21 -31 -6 0 -22
-22 -35 -48 -14 -27 -37 -57 -51 -66 -26 -17 -28 -17 -51 5 -33 31 -29 93 9
131 15 15 27 33 27 40 0 7 16 29 37 50 24 25 39 51 44 80 4 24 15 70 23 103
20 76 20 129 1 145 -8 7 -15 23 -15 36 0 12 -4 26 -10 29 -5 3 -10 15 -10 26
0 12 -10 23 -25 29 -14 5 -25 16 -25 24 0 24 -40 46 -71 39 -20 -4 -36 1 -55
16 -24 19 -35 21 -108 15 -45 -3 -97 -10 -116 -16 -45 -13 -100 -65 -100 -94
0 -13 -13 -43 -30 -67 -24 -36 -29 -51 -24 -76 8 -38 -12 -63 -126 -153 -84
-67 -99 -88 -100 -138 0 -20 -9 -53 -20 -75 -11 -22 -20 -47 -20 -56 0 -29 34
-49 82 -49 32 0 50 -6 63 -20 24 -27 51 -25 91 5 18 14 36 25 39 25 4 0 20 10
37 21 16 12 33 18 37 13 4 -5 13 -37 20 -72 10 -54 10 -65 -4 -84 -8 -13 -15
-37 -15 -55 0 -17 -4 -34 -9 -37 -5 -3 -8 -62 -7 -129 1 -98 5 -130 19 -150 9
-15 29 -48 44 -74 29 -54 103 -130 129 -135 13 -2 23 -24 36 -77 l19 -75 -22
-45 c-13 -25 -30 -54 -38 -64 -13 -16 -12 -20 7 -45 37 -45 45 -73 33 -112 -6
-19 -17 -75 -25 -125 -12 -76 -32 -147 -76 -270 -34 -92 -77 -148 -140 -180
-27 -14 -54 -25 -61 -25 -6 0 -30 -13 -53 -28 -22 -15 -48 -31 -57 -34 -24 -9
-31 -97 -10 -120 14 -15 30 -16 141 -7 156 11 190 17 190 32 0 7 9 30 20 52
11 22 20 47 20 56 0 9 7 22 15 29 10 9 13 24 8 55 -4 34 -1 49 14 68 10 13 31
57 47 98 15 41 39 101 52 134 12 33 33 93 45 134 18 62 30 81 75 127 30 29 54
57 54 61 0 4 10 18 23 32 13 15 29 45 36 68 10 38 61 93 85 93 4 0 21 -30 37
-66 31 -67 68 -112 126 -152 27 -19 32 -29 36 -75 4 -47 68 -362 82 -408 19
-57 -71 -179 -132 -179 -38 0 -48 -15 -56 -84 -5 -54 6 -70 86 -124 36 -24 42
-25 148 -19 127 7 182 26 187 67 1 14 -9 59 -24 100 -14 41 -33 102 -41 135
-8 33 -26 98 -39 145 -13 47 -29 112 -35 144 -6 33 -23 107 -38 165 -26 100
-31 187 -19 321 1 8 -2 43 -6 77 -7 60 -6 63 17 68 13 4 43 5 67 3 l44 -3 17
-65 c24 -94 34 -115 85 -181 46 -59 46 -61 35 -104 -14 -57 -15 -52 15 -80
l27 -25 -61 -182 c-55 -167 -59 -185 -46 -205 23 -37 84 -25 84 16 0 8 31 71
69 140 38 69 75 143 82 164 7 21 34 61 59 90 92 106 94 112 81 182 -6 34 -11
97 -11 139 0 73 1 78 34 114 l35 37 15 -35 c21 -51 80 -115 147 -161 36 -24
59 -47 59 -58 0 -42 24 -83 62 -107 21 -14 45 -39 53 -57 19 -42 61 -225 70
-304 9 -79 -14 -135 -78 -188 -44 -37 -97 -117 -97 -147 0 -30 46 -59 102 -65
43 -4 71 0 134 22 43 15 93 34 109 43 17 8 44 18 60 22 29 6 30 7 30 66 0 54
-16 109 -46 154 -40 62 -51 109 -60 249 -5 79 -12 148 -15 153 -4 5 -8 38 -9
73 -3 51 0 66 15 80 11 10 21 38 25 71 9 77 -16 124 -131 240 -81 83 -94 100
-94 129 0 44 39 147 53 142 6 -2 24 -26 40 -53 42 -71 75 -103 127 -118 25 -8
63 -24 85 -35 21 -12 53 -21 70 -21 34 0 125 53 125 73 0 8 9 22 21 33 43 39
-2 155 -71 184 -17 7 -55 13 -86 14 -55 1 -57 0 -98 -46 -23 -27 -47 -48 -52
-48 -19 0 -52 45 -63 86 -7 25 -9 82 -5 144 10 173 -31 301 -114 354 -20 13
-50 38 -67 56 -16 17 -43 39 -60 47 -16 9 -38 23 -48 31 -10 9 -42 26 -70 38
-65 28 -76 44 -54 78 10 14 24 26 32 26 8 0 26 20 40 44 14 24 32 50 40 56 20
17 19 53 -4 103 -10 23 -29 68 -42 101 -29 72 -57 96 -160 136 -73 28 -95 32
-193 33 -99 2 -115 0 -149 -20 -46 -27 -60 -28 -93 -6 -14 9 -58 19 -97 23
-40 4 -79 9 -87 12 -8 3 -26 3 -40 1z"/>
</g>
</svg>
