<?xml version="1.0" standalone="no"?>
<!DOCTYPE svg PUBLIC "-//W3C//DTD SVG 20010904//EN"
 "http://www.w3.org/TR/2001/REC-SVG-20010904/DTD/svg10.dtd">
<svg version="1.0" xmlns="http://www.w3.org/2000/svg"
 width="367.000000pt" height="376.000000pt" viewBox="0 0 367.000000 376.000000"
 preserveAspectRatio="xMidYMid meet">
<metadata>
Created by potrace 1.13, written by Peter Selinger 2001-2015
</metadata>
<g transform="translate(0.000000,376.000000) scale(0.100000,-0.100000)"
fill="#000000" stroke="none">
<path d="M1157 3434 c-30 -20 -41 -23 -53 -13 -23 19 -62 1 -109 -49 -35 -37
-45 -55 -45 -82 0 -23 -10 -47 -29 -70 -27 -31 -36 -35 -110 -46 -65 -9 -93
-19 -134 -46 -49 -33 -53 -39 -65 -95 -7 -36 -24 -75 -42 -99 -41 -54 -39 -77
12 -111 23 -15 60 -46 82 -68 36 -36 44 -40 103 -43 49 -3 75 1 117 18 51 20
76 21 76 0 0 -5 -24 -41 -54 -81 -62 -82 -74 -114 -52 -138 11 -12 14 -28 9
-54 -3 -20 -1 -42 4 -49 5 -7 10 -60 11 -117 2 -79 6 -109 18 -122 12 -13 13
-22 5 -38 -20 -36 -13 -79 14 -97 23 -15 25 -22 20 -58 -5 -33 -2 -47 14 -68
12 -14 21 -35 21 -46 0 -71 46 -112 125 -112 44 0 46 -1 64 -43 22 -52 54 -69
115 -61 36 5 50 3 72 -15 15 -11 41 -21 59 -21 43 0 56 -17 46 -60 -10 -45
-32 -86 -75 -144 -51 -65 -96 -154 -96 -187 0 -15 -4 -30 -9 -33 -17 -11 -61
-117 -61 -149 0 -53 -23 -101 -73 -157 -26 -29 -50 -64 -53 -79 -10 -43 -129
-156 -195 -186 -51 -23 -109 -75 -109 -99 0 -4 21 -32 46 -62 55 -64 71 -67
190 -29 43 14 97 25 120 25 48 0 69 19 77 70 3 19 27 98 55 176 27 77 53 156
57 175 5 22 32 62 75 109 55 61 69 84 75 120 4 25 17 61 30 80 13 19 37 60 53
90 16 30 36 55 43 55 19 0 15 -61 -5 -84 -21 -23 -20 -40 3 -94 12 -28 31 -51
54 -64 31 -19 35 -27 39 -70 3 -26 17 -95 32 -153 15 -58 25 -117 22 -132 -3
-17 1 -34 13 -49 15 -19 22 -20 47 -12 33 11 29 -13 53 318 7 83 14 173 17
202 6 55 -2 69 -67 114 -21 14 -23 23 -23 110 l-1 94 154 -2 c179 -2 194 -7
167 -64 -8 -19 -25 -59 -36 -89 -12 -30 -32 -66 -44 -80 -13 -14 -35 -47 -51
-74 -25 -45 -27 -52 -16 -83 11 -30 10 -38 -13 -77 -23 -39 -27 -63 -36 -187
-12 -161 -8 -172 49 -167 30 3 36 7 42 33 3 17 19 57 34 90 15 33 40 97 55
142 16 45 40 97 53 115 44 58 70 122 73 176 2 37 14 73 41 125 21 39 43 71 48
71 13 -2 116 -234 109 -245 -3 -5 -2 -29 1 -53 6 -36 17 -56 56 -95 27 -28 49
-58 49 -67 0 -9 11 -46 24 -83 13 -36 29 -96 36 -133 15 -77 9 -92 -43 -104
-18 -3 -45 -13 -62 -21 -41 -21 -105 -83 -105 -103 0 -9 18 -34 41 -55 l40
-40 94 2 c97 3 190 28 215 59 15 16 8 96 -15 184 -8 30 -26 102 -41 160 -15
58 -27 124 -26 148 1 65 2 85 1 112 -1 24 -55 125 -88 164 -10 12 -18 48 -23
105 -3 47 -10 111 -13 142 l-7 55 83 95 c86 97 117 120 106 78 -4 -13 -7 -36
-7 -51 0 -22 -8 -32 -38 -47 -22 -11 -53 -36 -70 -56 -31 -34 -32 -39 -32
-122 0 -99 13 -129 84 -187 51 -41 61 -44 76 -16 6 11 19 20 29 20 32 0 77 65
100 147 10 35 -7 146 -29 179 -12 19 -11 28 7 70 18 42 19 59 12 122 -14 127
-29 180 -66 235 -20 28 -56 90 -81 137 -25 47 -50 92 -57 100 -7 8 -22 42 -35
75 -13 33 -28 74 -35 90 -7 17 -18 56 -25 89 -12 52 -20 63 -63 98 -88 69
-132 90 -203 96 -56 4 -69 2 -94 -17 -36 -26 -40 -26 -40 0 0 34 -18 56 -50
62 -26 6 -42 -1 -103 -45 -75 -53 -117 -94 -142 -141 -9 -15 -34 -39 -56 -53
-22 -14 -48 -40 -57 -57 -21 -39 -88 -107 -125 -126 -24 -13 -29 -12 -47 4
-15 13 -30 16 -60 12 -33 -4 -43 -2 -47 11 -3 10 -13 25 -21 35 -13 15 -14 24
-4 50 13 37 3 93 -24 134 -16 26 -16 28 0 38 10 5 25 15 33 21 21 14 29 102
13 148 -11 35 -10 39 14 61 33 31 36 90 5 129 -20 25 -20 28 -5 51 20 31 20
64 0 93 -9 14 -14 34 -11 50 7 35 -1 52 -29 63 -17 6 -24 16 -24 36 0 62 -64
123 -113 107 -15 -5 -29 4 -57 35 -21 23 -44 41 -51 40 -8 0 -31 -11 -52 -25z"/>
</g>
</svg>
