<?xml version="1.0" standalone="no"?>
<!DOCTYPE svg PUBLIC "-//W3C//DTD SVG 20010904//EN"
 "http://www.w3.org/TR/2001/REC-SVG-20010904/DTD/svg10.dtd">
<svg version="1.0" xmlns="http://www.w3.org/2000/svg"
 width="385.000000pt" height="317.000000pt" viewBox="0 0 385.000000 317.000000"
 preserveAspectRatio="xMidYMid meet">
<metadata>
Created by potrace 1.13, written by Peter Selinger 2001-2015
</metadata>
<g transform="translate(0.000000,317.000000) scale(0.100000,-0.100000)"
fill="#000000" stroke="none">
<path d="M1003 2752 c-39 -34 -43 -41 -45 -92 l-3 -55 -80 -40 c-205 -102
-236 -138 -250 -286 l-6 -76 42 -36 c24 -21 58 -39 78 -43 63 -10 64 -11 56
-52 -8 -42 -57 -135 -91 -172 -23 -25 -23 -26 -18 -225 3 -110 5 -235 4 -277
-1 -75 14 -146 43 -204 8 -16 17 -45 20 -64 7 -48 44 -130 59 -134 7 -3 26 -7
41 -10 18 -4 36 -20 49 -42 11 -19 34 -41 52 -50 17 -8 47 -23 66 -34 19 -10
64 -28 100 -40 36 -11 85 -30 110 -42 25 -12 52 -24 60 -28 24 -11 23 -45 -4
-132 -34 -107 -46 -125 -93 -131 -63 -9 -139 -31 -157 -46 -11 -9 -16 -25 -14
-45 2 -23 13 -35 49 -56 38 -23 65 -29 170 -39 131 -12 184 -5 260 33 18 9 48
16 67 16 65 0 124 100 89 153 -21 32 -29 91 -17 122 6 15 13 62 17 104 l6 76
81 78 c51 49 89 77 103 77 12 0 34 5 48 12 19 8 34 8 62 -1 32 -10 44 -10 76
3 46 20 165 46 232 52 38 3 63 13 105 42 88 62 92 62 139 -6 22 -32 64 -80 93
-107 89 -80 88 -76 87 -272 -1 -118 -4 -175 -12 -181 -17 -14 -89 -25 -218
-34 -20 -2 -54 -16 -77 -32 -63 -43 -57 -87 18 -127 25 -12 279 -17 299 -5 4
3 22 0 39 -6 27 -10 38 -8 96 21 73 36 87 60 66 111 -16 38 -10 77 28 174 17
44 36 104 43 135 6 30 22 71 35 90 35 55 55 144 48 218 -5 46 -3 68 8 85 20
33 56 135 64 185 7 48 26 79 41 70 6 -4 14 -33 18 -66 4 -39 17 -76 39 -112
33 -56 56 -69 82 -48 21 18 12 154 -33 459 -13 90 -23 121 -69 216 -30 61 -54
115 -54 121 0 25 -117 203 -167 254 -52 54 -55 59 -64 130 -37 280 -78 377
-181 430 -89 46 -264 -3 -325 -92 -15 -22 -38 -53 -50 -69 -13 -15 -23 -41
-23 -56 -1 -16 -13 -74 -28 -129 -23 -83 -31 -100 -47 -100 -16 0 -24 15 -42
80 -12 44 -25 100 -29 125 -9 60 -56 151 -94 183 -36 31 -79 41 -175 41 -58 0
-78 -5 -117 -28 -26 -15 -61 -43 -79 -63 -39 -45 -86 -148 -105 -233 -9 -36
-19 -69 -24 -75 -4 -5 -11 -28 -15 -50 -11 -69 -36 -147 -54 -174 -60 -89 -93
-142 -114 -181 -28 -53 -53 -63 -67 -25 -19 49 -12 228 11 313 15 52 22 103
21 157 -1 68 2 83 22 110 59 77 62 105 22 184 -22 42 -53 53 -160 57 -73 2
-92 7 -110 23 -16 15 -36 21 -67 21 -37 0 -51 -6 -86 -38z"/>
</g>
</svg>
