<?xml version="1.0" standalone="no"?>
<!DOCTYPE svg PUBLIC "-//W3C//DTD SVG 20010904//EN"
 "http://www.w3.org/TR/2001/REC-SVG-20010904/DTD/svg10.dtd">
<svg version="1.0" xmlns="http://www.w3.org/2000/svg"
 width="391.000000pt" height="355.000000pt" viewBox="0 0 391.000000 355.000000"
 preserveAspectRatio="xMidYMid meet">
<metadata>
Created by potrace 1.13, written by Peter Selinger 2001-2015
</metadata>
<g transform="translate(0.000000,355.000000) scale(0.100000,-0.100000)"
fill="#000000" stroke="none">
<path d="M2650 3334 c-30 -8 -63 -19 -73 -24 -10 -6 -22 -8 -28 -5 -15 10 -93
-32 -116 -62 -27 -38 -43 -89 -45 -149 -2 -46 -5 -52 -61 -106 -57 -54 -60
-58 -54 -95 6 -37 17 -51 67 -84 22 -15 24 -22 26 -130 1 -122 9 -180 27 -217
9 -18 7 -27 -9 -49 -32 -42 -47 -48 -92 -35 -48 15 -139 84 -151 115 -5 12
-18 31 -30 41 -22 20 -30 80 -12 90 5 3 12 33 16 67 7 56 5 66 -26 125 -43 87
-84 106 -219 108 -94 1 -96 1 -137 -33 -58 -46 -87 -94 -106 -176 -24 -97 -22
-113 19 -174 37 -55 38 -75 3 -91 -8 -4 -29 -15 -48 -25 -34 -18 -34 -18 -52
6 -11 13 -26 49 -35 79 -8 30 -20 69 -25 86 -5 16 -27 48 -49 69 -38 37 -40
38 -110 37 -82 -2 -124 -22 -206 -99 -48 -45 -52 -52 -58 -110 -8 -76 1 -132
23 -142 40 -17 91 -54 91 -67 0 -7 -24 -29 -52 -47 -29 -19 -70 -48 -92 -66
-21 -17 -45 -31 -52 -31 -7 0 -32 -22 -55 -50 -23 -27 -60 -61 -83 -74 -74
-43 -178 -165 -258 -305 -15 -25 -27 -52 -27 -59 -1 -8 -8 -29 -17 -48 -11
-23 -13 -38 -6 -47 6 -7 7 -33 2 -67 -4 -31 -7 -78 -6 -105 2 -44 6 -51 28
-59 38 -13 77 1 96 34 9 17 20 30 25 30 10 0 9 -48 -4 -114 -8 -39 -9 -64 -2
-79 22 -46 63 -158 63 -169 0 -6 9 -21 20 -33 13 -14 24 -46 31 -86 9 -58 14
-67 52 -99 73 -61 83 -76 100 -154 13 -58 14 -82 6 -103 -6 -15 -11 -62 -11
-103 1 -68 3 -77 26 -97 33 -28 101 -47 135 -38 14 4 45 9 68 12 56 7 67 22
58 79 -5 36 -17 57 -50 93 -40 43 -45 53 -62 146 -24 124 -24 169 -1 173 19 4
40 -36 80 -158 43 -128 48 -145 48 -178 0 -68 41 -128 97 -138 41 -8 116 12
138 36 25 27 -12 97 -86 161 -60 52 -61 53 -54 95 3 23 8 89 9 146 3 70 11
124 25 168 12 36 26 83 32 105 25 95 53 171 76 208 24 38 26 39 66 33 23 -4
87 -10 142 -13 55 -3 104 -8 108 -13 5 -4 11 -27 14 -51 3 -24 9 -49 14 -55 5
-6 14 -34 20 -63 9 -44 17 -56 45 -73 25 -14 43 -39 63 -82 28 -60 29 -65 33
-284 4 -169 2 -224 -7 -232 -20 -16 -24 -60 -9 -88 16 -31 96 -71 144 -71 48
-1 111 17 135 39 11 9 38 20 60 23 48 8 75 37 75 83 0 26 -7 39 -33 58 -19 15
-38 26 -44 26 -6 0 -22 9 -37 21 l-26 20 0 158 c0 176 -2 170 76 209 43 22 84
64 109 111 24 48 37 182 24 256 -7 43 -8 70 -1 78 5 6 12 36 14 65 3 29 10 58
16 64 13 13 55 -2 117 -41 51 -32 140 -40 187 -18 46 22 133 114 153 162 9 22
27 51 40 65 27 28 55 101 55 143 0 15 7 38 16 52 10 15 17 53 19 109 3 60 9
92 22 112 16 25 18 50 16 226 -1 108 -4 202 -8 208 -12 19 -35 122 -29 131 3
5 31 9 63 9 l59 0 64 73 c62 70 64 73 63 125 -1 40 -7 58 -25 77 -14 15 -26
45 -31 77 -10 63 -29 80 -84 77 -45 -3 -71 6 -101 33 -11 10 -32 17 -45 16
-20 -3 -24 2 -27 28 -4 38 -85 143 -126 162 -15 8 -51 18 -79 22 -29 5 -61 11
-72 13 -11 3 -45 -1 -75 -9z"/>
</g>
</svg>
