<?xml version="1.0" standalone="no"?>
<!DOCTYPE svg PUBLIC "-//W3C//DTD SVG 20010904//EN"
 "http://www.w3.org/TR/2001/REC-SVG-20010904/DTD/svg10.dtd">
<svg version="1.0" xmlns="http://www.w3.org/2000/svg"
 width="380.000000pt" height="355.000000pt" viewBox="0 0 380.000000 355.000000"
 preserveAspectRatio="xMidYMid meet">
<metadata>
Created by potrace 1.13, written by Peter Selinger 2001-2015
</metadata>
<g transform="translate(0.000000,355.000000) scale(0.100000,-0.100000)"
fill="#000000" stroke="none">
<path d="M2636 2987 c-26 -34 -66 -51 -139 -61 -21 -3 -53 -14 -72 -26 -38
-23 -45 -53 -25 -106 8 -20 7 -31 -3 -43 -21 -24 -28 -63 -15 -79 10 -11 7
-18 -11 -32 -24 -17 -22 -40 4 -40 26 0 24 -17 -7 -80 -23 -48 -32 -83 -37
-150 -4 -47 -11 -92 -15 -98 -17 -27 -25 3 -21 71 3 40 7 127 9 195 5 121 5
122 -20 140 -14 9 -48 36 -75 59 -42 37 -53 41 -84 36 -26 -4 -41 -1 -55 12
-14 13 -28 15 -58 10 -25 -4 -42 -2 -47 4 -12 21 -70 12 -95 -14 -19 -21 -33
-25 -76 -25 -47 0 -54 -3 -68 -27 -41 -75 -40 -74 -28 -94 16 -25 15 -44 -2
-58 -9 -8 -14 -36 -14 -92 0 -72 -10 -151 -31 -244 -4 -18 -15 -31 -26 -33
-14 -3 -16 0 -10 14 21 50 38 160 42 264 4 126 -7 172 -62 244 -14 18 -25 38
-25 43 0 6 -28 36 -61 68 -42 38 -67 54 -78 50 -36 -14 -107 -23 -117 -14 -6
4 -49 7 -97 6 -84 -3 -88 -4 -116 -35 -17 -18 -40 -32 -53 -32 -34 0 -156
-118 -164 -158 -3 -17 -15 -39 -25 -48 -23 -21 -24 -47 -4 -64 20 -17 19 -38
-5 -85 -29 -57 -35 -104 -16 -140 20 -37 20 -122 1 -155 -8 -14 -14 -33 -15
-44 0 -20 -26 -56 -111 -149 -82 -92 -124 -156 -139 -212 -7 -27 -23 -72 -36
-99 -13 -28 -24 -64 -24 -80 0 -17 -7 -68 -15 -113 -12 -72 -12 -90 0 -138 8
-31 15 -66 15 -78 0 -13 13 -38 28 -57 23 -27 36 -34 63 -33 62 1 82 16 129
102 25 44 51 81 57 81 7 0 24 -18 38 -39 38 -56 49 -152 30 -244 -19 -90 -19
-118 0 -187 11 -41 13 -66 5 -100 -5 -25 -14 -88 -19 -140 -12 -122 -19 -149
-47 -183 -13 -16 -24 -40 -24 -53 0 -32 28 -74 49 -74 9 0 25 -6 36 -14 29
-19 83 -27 192 -27 53 0 106 -4 118 -9 63 -24 147 34 142 100 -2 31 -9 39 -62
70 -33 20 -94 47 -135 60 -41 13 -79 27 -84 31 -15 12 -35 132 -36 210 0 61 4
79 18 92 10 10 24 17 31 17 24 0 129 62 181 106 28 24 53 44 56 44 19 0 90
-50 137 -98 l58 -58 -15 -60 c-29 -120 -85 -232 -127 -255 -34 -18 -22 -52 39
-115 77 -81 175 -137 282 -163 75 -17 88 -18 108 -5 27 18 29 66 7 142 -12 41
-31 66 -91 127 l-77 76 21 67 c53 177 56 193 38 271 -9 40 -14 76 -11 82 10
15 50 11 100 -11 32 -14 72 -20 130 -21 99 -2 117 -14 120 -81 1 -24 9 -58 19
-76 13 -25 17 -62 19 -157 l2 -124 -31 -33 c-29 -31 -84 -134 -84 -157 0 -19
44 -39 85 -39 22 0 75 -11 119 -25 71 -23 85 -25 160 -16 98 10 141 20 184 43
27 14 32 22 32 51 0 18 -4 45 -9 58 -13 34 -85 81 -162 108 -97 33 -98 36 -92
213 5 131 8 154 26 178 26 35 71 50 158 52 96 2 103 -8 83 -99 -9 -39 -18 -76
-20 -82 -2 -7 -24 -18 -48 -24 -34 -8 -51 -20 -66 -44 -36 -59 -28 -83 58
-178 84 -94 177 -180 204 -190 29 -10 46 2 69 48 20 39 21 55 17 149 -5 83
-11 115 -29 153 -33 67 -30 131 8 184 44 62 73 113 73 130 0 24 -79 93 -134
117 -25 12 -46 24 -46 27 0 4 25 37 55 73 54 66 125 196 125 230 0 10 6 26 13
37 33 50 67 270 67 430 0 49 9 139 20 200 11 60 22 131 25 157 5 36 12 52 32
65 14 10 54 44 90 76 44 40 69 57 81 52 24 -9 139 25 159 48 28 30 24 184 -7
254 -24 56 -9 45 -210 150 -60 31 -75 34 -180 39 -72 4 -123 11 -137 20 -35
22 -60 17 -87 -19z"/>
</g>
</svg>
