<?xml version="1.0" standalone="no"?>
<!DOCTYPE svg PUBLIC "-//W3C//DTD SVG 20010904//EN"
 "http://www.w3.org/TR/2001/REC-SVG-20010904/DTD/svg10.dtd">
<svg version="1.0" xmlns="http://www.w3.org/2000/svg"
 width="352.000000pt" height="288.000000pt" viewBox="0 0 352.000000 288.000000"
 preserveAspectRatio="xMidYMid meet">
<metadata>
Created by potrace 1.13, written by Peter Selinger 2001-2015
</metadata>
<g transform="translate(0.000000,288.000000) scale(0.100000,-0.100000)"
fill="#000000" stroke="none">
<path d="M1884 1832 c-22 -14 -47 -78 -53 -132 -5 -48 -9 -56 -34 -64 -25 -9
-31 -7 -51 18 -29 37 -53 32 -131 -29 -52 -40 -64 -45 -109 -44 -28 0 -91 -4
-141 -9 -97 -11 -188 -46 -298 -116 -70 -45 -84 -68 -63 -101 11 -16 16 -47
16 -90 0 -67 17 -126 42 -141 7 -5 19 -21 25 -36 18 -39 107 -64 160 -44 26
10 104 16 251 21 118 3 226 8 241 11 25 5 28 2 40 -35 14 -49 35 -61 111 -68
l58 -6 48 51 49 51 200 3 c178 2 203 1 226 -15 15 -10 42 -20 60 -23 65 -11
158 87 159 166 0 17 9 30 28 41 28 16 72 108 72 151 0 11 9 31 20 45 25 32 25
61 2 91 -23 30 -70 40 -210 49 l-114 6 -41 48 c-43 50 -61 107 -45 140 13 28
-12 36 -132 43 -63 3 -133 11 -155 16 -47 11 -215 13 -231 2z"/>
</g>
</svg>
