<?xml version="1.0" standalone="no"?>
<!DOCTYPE svg PUBLIC "-//W3C//DTD SVG 20010904//EN"
 "http://www.w3.org/TR/2001/REC-SVG-20010904/DTD/svg10.dtd">
<svg version="1.0" xmlns="http://www.w3.org/2000/svg"
 width="352.000000pt" height="288.000000pt" viewBox="0 0 352.000000 288.000000"
 preserveAspectRatio="xMidYMid meet">
<metadata>
Created by potrace 1.13, written by Peter Selinger 2001-2015
</metadata>
<g transform="translate(0.000000,288.000000) scale(0.100000,-0.100000)"
fill="#000000" stroke="none">
<path d="M2184 1917 c-46 -22 -54 -31 -72 -79 -11 -29 -23 -69 -27 -88 -10
-47 -22 -60 -55 -60 -19 0 -30 7 -38 24 -17 39 -44 40 -112 6 -39 -20 -69 -29
-81 -25 -45 15 -99 -32 -99 -84 0 -17 -14 -19 -142 -26 -142 -7 -228 -27 -261
-59 -7 -8 -29 -21 -47 -31 -19 -10 -38 -24 -43 -31 -4 -7 -14 -11 -21 -8 -20
8 -38 -30 -30 -63 3 -16 17 -46 29 -68 20 -35 23 -57 27 -191 5 -199 7 -202
112 -194 61 5 85 13 126 38 l51 32 235 0 234 0 27 32 c81 92 82 93 93 82 6 -6
14 -44 19 -84 7 -67 11 -76 44 -106 69 -63 140 -31 182 82 l22 59 54 7 c79 9
339 28 398 28 46 0 51 -2 51 -22 0 -58 69 -116 109 -91 26 16 81 104 81 129 0
17 11 31 38 48 65 42 112 98 118 142 10 72 14 84 39 106 30 26 31 42 6 60 -12
9 -21 28 -23 53 -3 35 -8 42 -42 59 -22 11 -78 24 -125 29 -99 11 -191 40
-231 74 -23 19 -29 35 -35 83 -9 76 -38 121 -90 138 -26 9 -115 15 -255 18
-213 5 -215 5 -266 -19z"/>
</g>
</svg>
