<?xml version="1.0" standalone="no"?>
<!DOCTYPE svg PUBLIC "-//W3C//DTD SVG 20010904//EN"
 "http://www.w3.org/TR/2001/REC-SVG-20010904/DTD/svg10.dtd">
<svg version="1.0" xmlns="http://www.w3.org/2000/svg"
 width="352.000000pt" height="288.000000pt" viewBox="0 0 352.000000 288.000000"
 preserveAspectRatio="xMidYMid meet">
<metadata>
Created by potrace 1.13, written by Peter Selinger 2001-2015
</metadata>
<g transform="translate(0.000000,288.000000) scale(0.100000,-0.100000)"
fill="#000000" stroke="none">
<path d="M1845 1857 c-34 -34 -35 -37 -35 -115 0 -64 -3 -81 -16 -86 -32 -12
-64 -5 -88 19 -42 42 -122 30 -162 -24 -10 -13 -16 -13 -39 -3 -32 15 -52 3
-57 -31 -2 -18 -12 -23 -58 -29 -206 -28 -313 -66 -390 -138 -37 -34 -38 -59
-5 -98 23 -27 25 -38 25 -120 0 -67 4 -93 15 -102 8 -7 15 -25 15 -41 0 -50
19 -60 147 -74 43 -5 56 -2 71 13 11 11 21 25 24 32 2 8 64 13 223 17 l220 6
14 -27 c21 -39 73 -67 133 -72 61 -6 63 -5 108 59 l33 47 108 0 c60 0 154 5
209 11 l101 11 24 -26 c29 -31 44 -32 94 -6 47 23 74 56 96 115 12 29 25 45
40 49 25 6 37 33 54 118 7 31 21 66 32 79 10 12 20 27 20 33 4 31 -4 103 -13
114 -8 8 -50 12 -149 12 -128 0 -141 2 -185 25 -26 14 -53 25 -60 25 -11 0
-14 18 -14 70 0 79 -16 103 -80 120 -19 5 -62 16 -95 25 -34 10 -117 19 -192
22 l-132 6 -36 -36z"/>
</g>
</svg>
