<?xml version="1.0" standalone="no"?>
<!DOCTYPE svg PUBLIC "-//W3C//DTD SVG 20010904//EN"
 "http://www.w3.org/TR/2001/REC-SVG-20010904/DTD/svg10.dtd">
<svg version="1.0" xmlns="http://www.w3.org/2000/svg"
 width="352.000000pt" height="288.000000pt" viewBox="0 0 352.000000 288.000000"
 preserveAspectRatio="xMidYMid meet">
<metadata>
Created by potrace 1.13, written by Peter Selinger 2001-2015
</metadata>
<g transform="translate(0.000000,288.000000) scale(0.100000,-0.100000)"
fill="#000000" stroke="none">
<path d="M1797 1926 c-14 -14 -17 -37 -17 -127 l0 -109 -33 0 c-24 0 -35 6
-42 23 -8 18 -19 23 -59 25 -46 3 -50 1 -92 -44 l-44 -47 -25 27 c-37 40 -75
29 -75 -21 0 -22 -2 -23 -98 -23 -131 0 -203 -15 -285 -57 -57 -30 -70 -42
-86 -79 -29 -65 -30 -109 -3 -134 20 -19 22 -30 22 -130 0 -78 4 -112 14 -122
7 -8 16 -23 20 -35 7 -22 70 -53 107 -53 28 0 60 18 85 49 l22 25 237 4 c218
4 238 6 254 24 18 19 19 18 26 -19 3 -21 13 -48 21 -60 20 -31 79 -59 142 -68
66 -9 94 7 125 73 l22 47 165 7 c91 3 192 9 225 13 59 6 60 6 77 -24 20 -36
58 -41 98 -15 44 29 50 45 50 121 l0 73 60 30 c63 32 94 68 106 125 4 16 18
40 32 53 22 21 24 29 19 78 -3 31 -11 61 -17 69 -8 10 -53 14 -178 17 l-167 3
-42 40 c-41 39 -43 42 -43 101 0 64 -7 79 -55 110 -24 15 -56 20 -170 25 -77
4 -194 10 -260 14 -107 7 -123 6 -138 -9z"/>
</g>
</svg>
