<?xml version="1.0" standalone="no"?>
<!DOCTYPE svg PUBLIC "-//W3C//DTD SVG 20010904//EN"
 "http://www.w3.org/TR/2001/REC-SVG-20010904/DTD/svg10.dtd">
<svg version="1.0" xmlns="http://www.w3.org/2000/svg"
 width="352.000000pt" height="288.000000pt" viewBox="0 0 352.000000 288.000000"
 preserveAspectRatio="xMidYMid meet">
<metadata>
Created by potrace 1.13, written by Peter Selinger 2001-2015
</metadata>
<g transform="translate(0.000000,288.000000) scale(0.100000,-0.100000)"
fill="#000000" stroke="none">
<path d="M1828 1908 c-31 -24 -68 -109 -68 -155 0 -46 -14 -83 -30 -83 -6 0
-10 6 -10 14 0 25 -30 46 -66 46 -41 0 -70 -13 -101 -47 -15 -15 -33 -23 -56
-23 -36 0 -57 -15 -57 -41 0 -14 -22 -19 -132 -34 -73 -10 -153 -24 -178 -31
-25 -8 -58 -14 -75 -14 -42 -1 -112 -34 -119 -58 -4 -11 -1 -39 5 -63 6 -24
14 -82 18 -129 5 -57 14 -98 28 -125 12 -22 24 -57 28 -77 8 -53 29 -70 79
-66 31 2 43 8 50 25 9 20 18 21 175 25 175 4 248 20 313 68 19 14 43 20 83 20
49 0 55 -2 55 -20 0 -27 59 -140 77 -147 49 -19 151 47 175 114 l13 35 194 -4
c179 -3 195 -4 205 -22 6 -11 21 -30 33 -42 18 -20 26 -22 55 -14 18 6 51 23
73 39 32 23 41 36 43 65 3 31 9 39 53 63 55 29 68 49 92 133 25 86 24 148 -3
194 -33 55 -88 76 -201 76 -92 0 -114 7 -166 54 -19 16 -23 30 -23 76 0 72
-29 119 -85 139 -57 21 -453 28 -477 9z"/>
</g>
</svg>
