<?xml version="1.0" standalone="no"?>
<!DOCTYPE svg PUBLIC "-//W3C//DTD SVG 20010904//EN"
 "http://www.w3.org/TR/2001/REC-SVG-20010904/DTD/svg10.dtd">
<svg version="1.0" xmlns="http://www.w3.org/2000/svg"
 width="352.000000pt" height="288.000000pt" viewBox="0 0 352.000000 288.000000"
 preserveAspectRatio="xMidYMid meet">
<metadata>
Created by potrace 1.13, written by Peter Selinger 2001-2015
</metadata>
<g transform="translate(0.000000,288.000000) scale(0.100000,-0.100000)"
fill="#000000" stroke="none">
<path d="M1873 1820 c-44 -26 -53 -48 -53 -128 0 -55 -3 -71 -16 -76 -32 -12
-59 -6 -69 17 -8 18 -19 23 -62 25 -50 3 -53 2 -75 -32 -17 -27 -30 -36 -50
-36 -16 0 -38 -10 -50 -22 -21 -21 -34 -23 -183 -28 -138 -5 -166 -9 -201 -28
-29 -14 -45 -32 -53 -54 -6 -18 -24 -45 -39 -61 l-27 -28 28 -52 c22 -43 27
-65 27 -124 0 -50 4 -76 15 -87 8 -8 15 -23 15 -34 0 -11 8 -30 19 -43 15 -19
30 -24 83 -27 60 -4 67 -2 90 22 l24 26 224 -2 224 -3 13 -47 c15 -52 23 -57
110 -65 78 -7 113 6 149 59 15 21 37 44 48 51 35 20 338 22 419 3 38 -9 81
-16 97 -16 41 0 86 42 105 100 12 36 25 54 50 69 65 38 131 214 111 294 -4 16
-19 31 -43 42 -21 9 -58 28 -83 42 -43 23 -51 24 -167 20 l-121 -5 -12 46 c-6
25 -15 68 -21 95 -14 77 -15 77 -158 77 -72 0 -156 7 -196 15 -93 20 -134 19
-172 -5z"/>
</g>
</svg>
