<?xml version="1.0" standalone="no"?>
<!DOCTYPE svg PUBLIC "-//W3C//DTD SVG 20010904//EN"
 "http://www.w3.org/TR/2001/REC-SVG-20010904/DTD/svg10.dtd">
<svg version="1.0" xmlns="http://www.w3.org/2000/svg"
 width="352.000000pt" height="288.000000pt" viewBox="0 0 352.000000 288.000000"
 preserveAspectRatio="xMidYMid meet">
<metadata>
Created by potrace 1.13, written by Peter Selinger 2001-2015
</metadata>
<g transform="translate(0.000000,288.000000) scale(0.100000,-0.100000)"
fill="#000000" stroke="none">
<path d="M1795 1903 c-29 -28 -55 -102 -55 -154 l0 -49 -42 0 c-24 0 -52 7
-62 15 -29 22 -71 18 -104 -10 -18 -15 -42 -25 -60 -25 -42 0 -81 -16 -89 -37
-10 -27 -23 -33 -75 -33 -47 0 -147 -13 -243 -31 -73 -14 -172 -79 -183 -121
-7 -28 -5 -38 16 -66 24 -31 24 -36 18 -131 -7 -92 -6 -101 13 -120 12 -12 30
-21 40 -21 13 0 21 -9 26 -29 8 -37 16 -43 88 -70 102 -37 173 -24 165 30 l-3
22 222 -2 223 -2 19 32 19 32 7 -49 c12 -93 34 -124 88 -124 13 0 36 9 51 21
27 21 76 107 76 133 0 11 35 15 198 19 108 2 206 8 218 11 17 6 22 1 35 -41
16 -54 49 -74 95 -57 35 12 85 84 93 130 5 31 11 39 35 45 60 16 101 74 112
157 3 29 10 52 15 52 4 0 15 7 23 15 34 34 -11 170 -59 180 -11 2 -72 6 -135
9 -184 9 -210 23 -225 116 -4 25 -16 62 -26 82 -34 66 -51 70 -381 83 -120 5
-138 3 -153 -12z"/>
</g>
</svg>
