<?xml version="1.0" standalone="no"?>
<!DOCTYPE svg PUBLIC "-//W3C//DTD SVG 20010904//EN"
 "http://www.w3.org/TR/2001/REC-SVG-20010904/DTD/svg10.dtd">
<svg version="1.0" xmlns="http://www.w3.org/2000/svg"
 width="352.000000pt" height="288.000000pt" viewBox="0 0 352.000000 288.000000"
 preserveAspectRatio="xMidYMid meet">
<metadata>
Created by potrace 1.13, written by Peter Selinger 2001-2015
</metadata>
<g transform="translate(0.000000,288.000000) scale(0.100000,-0.100000)"
fill="#000000" stroke="none">
<path d="M1980 1941 c-30 -4 -63 -11 -72 -16 -21 -12 -107 -142 -114 -172 -7
-26 -13 -28 -47 -12 -20 9 -37 5 -101 -21 -58 -24 -85 -31 -111 -26 -27 5 -39
2 -55 -14 -12 -12 -19 -28 -15 -39 4 -14 -6 -19 -67 -29 -40 -6 -125 -13 -188
-15 -105 -4 -120 -7 -178 -36 -48 -24 -69 -42 -92 -79 -35 -56 -36 -65 -11
-100 28 -40 41 -98 41 -187 0 -90 23 -155 61 -175 29 -16 113 -6 148 17 23 16
51 18 226 18 226 0 254 6 317 69 20 20 45 36 56 36 17 0 20 -9 26 -70 6 -61
12 -75 40 -107 32 -34 36 -36 85 -31 64 6 131 48 131 82 0 13 6 29 13 35 25
20 252 61 340 61 51 0 58 -3 74 -27 24 -38 32 -43 75 -43 35 0 124 28 158 49
8 6 17 32 20 63 5 51 7 54 49 74 55 26 80 70 81 140 0 38 5 56 20 69 24 22 25
38 5 55 -8 7 -19 29 -25 50 -7 27 -18 41 -38 49 -31 12 -175 31 -238 31 -39 0
-45 4 -78 49 -20 27 -36 60 -36 75 0 15 -10 49 -21 77 -23 54 -14 49 -176 89
-83 20 -187 24 -303 11z"/>
</g>
</svg>
