<?xml version="1.0" standalone="no"?>
<!DOCTYPE svg PUBLIC "-//W3C//DTD SVG 20010904//EN"
 "http://www.w3.org/TR/2001/REC-SVG-20010904/DTD/svg10.dtd">
<svg version="1.0" xmlns="http://www.w3.org/2000/svg"
 width="352.000000pt" height="288.000000pt" viewBox="0 0 352.000000 288.000000"
 preserveAspectRatio="xMidYMid meet">
<metadata>
Created by potrace 1.13, written by Peter Selinger 2001-2015
</metadata>
<g transform="translate(0.000000,288.000000) scale(0.100000,-0.100000)"
fill="#000000" stroke="none">
<path d="M1908 1760 c-48 -26 -68 -56 -68 -103 0 -70 -30 -95 -74 -62 -29 22
-98 19 -129 -5 -14 -11 -39 -20 -56 -20 -39 0 -79 -19 -86 -40 -4 -14 -22 -19
-78 -24 -110 -10 -279 -36 -308 -47 -15 -6 -39 -23 -54 -39 -24 -25 -26 -33
-21 -82 17 -159 24 -207 39 -243 9 -22 18 -52 21 -67 4 -15 15 -30 27 -33 35
-12 107 5 139 31 34 29 111 41 326 51 l131 6 23 -40 c30 -55 65 -73 139 -73
64 0 63 -1 118 69 19 23 24 24 211 29 l191 5 11 -29 c15 -38 28 -45 70 -37 59
10 109 41 124 76 7 18 38 58 69 89 87 86 97 108 97 209 0 55 -5 92 -13 103
-10 14 -40 22 -123 33 -134 17 -166 27 -202 62 -15 15 -37 33 -50 40 -19 10
-22 20 -22 66 0 79 -10 85 -134 85 -57 0 -143 2 -192 5 -77 5 -94 3 -126 -15z"/>
</g>
</svg>
