<?xml version="1.0" standalone="no"?>
<!DOCTYPE svg PUBLIC "-//W3C//DTD SVG 20010904//EN"
 "http://www.w3.org/TR/2001/REC-SVG-20010904/DTD/svg10.dtd">
<svg version="1.0" xmlns="http://www.w3.org/2000/svg"
 width="352.000000pt" height="288.000000pt" viewBox="0 0 352.000000 288.000000"
 preserveAspectRatio="xMidYMid meet">
<metadata>
Created by potrace 1.13, written by Peter Selinger 2001-2015
</metadata>
<g transform="translate(0.000000,288.000000) scale(0.100000,-0.100000)"
fill="#000000" stroke="none">
<path d="M1977 1158 c-20 -16 -47 -100 -47 -150 0 -27 -8 -47 -29 -70 -39 -46
-51 -71 -51 -112 0 -19 -5 -57 -10 -83 l-11 -49 -64 -12 c-36 -7 -71 -12 -80
-12 -8 0 -28 27 -46 63 -51 100 -100 176 -120 182 -10 3 -48 -3 -85 -14 -44
-14 -94 -21 -148 -21 -79 0 -83 1 -140 41 -70 49 -195 107 -245 115 -36 5 -36
5 -69 -58 -46 -88 -55 -124 -35 -144 25 -25 65 -13 90 26 33 53 51 70 73 70
16 0 20 -7 20 -38 0 -21 7 -47 15 -58 11 -15 14 -55 15 -189 0 -163 -1 -173
-27 -233 -20 -47 -24 -68 -17 -80 16 -24 31 -25 53 -3 17 17 21 34 21 81 0 71
13 101 69 153 23 21 41 43 41 48 0 5 15 9 33 9 17 0 54 7 81 15 70 21 182 20
190 -2 4 -9 10 -75 13 -146 6 -133 16 -162 52 -155 9 2 25 21 36 43 16 33 19
56 17 127 -2 78 0 88 17 98 32 17 103 12 129 -9 19 -17 22 -28 22 -101 0 -70
4 -88 26 -126 33 -56 48 -64 126 -64 83 0 134 28 166 90 19 38 22 60 22 152 0
122 6 129 57 76 21 -21 36 -51 43 -83 21 -93 24 -95 154 -95 l113 0 32 -71
c29 -65 35 -72 84 -94 76 -36 158 -35 218 3 73 47 131 130 144 209 8 48 0 67
-56 134 -24 28 -39 57 -39 73 0 35 -57 198 -73 208 -6 4 -37 8 -67 8 -85 0
-98 7 -110 52 -18 65 -66 98 -98 66 -7 -7 -12 -33 -12 -58 l0 -46 -55 -18
c-41 -13 -64 -28 -95 -64 -22 -26 -43 -59 -47 -74 -4 -21 -15 -30 -51 -42 -88
-30 -86 -33 -79 104 l5 119 -38 76 c-43 86 -85 145 -104 145 -7 0 -20 -6 -29
-12z"/>
</g>
</svg>
