<?xml version="1.0" standalone="no"?>
<!DOCTYPE svg PUBLIC "-//W3C//DTD SVG 20010904//EN"
 "http://www.w3.org/TR/2001/REC-SVG-20010904/DTD/svg10.dtd">
<svg version="1.0" xmlns="http://www.w3.org/2000/svg"
 width="352.000000pt" height="288.000000pt" viewBox="0 0 352.000000 288.000000"
 preserveAspectRatio="xMidYMid meet">
<metadata>
Created by potrace 1.13, written by Peter Selinger 2001-2015
</metadata>
<g transform="translate(0.000000,288.000000) scale(0.100000,-0.100000)"
fill="#000000" stroke="none">
<path d="M2114 1125 c-11 -17 -14 -35 -9 -57 24 -120 21 -129 -47 -148 -52
-15 -61 -36 -52 -129 8 -94 12 -91 -133 -98 l-102 -6 -3 49 c-3 49 -3 49 -63
81 -58 31 -64 32 -184 33 -118 0 -126 1 -185 31 -93 48 -237 109 -256 109 -23
0 -44 -26 -71 -88 -19 -45 -20 -55 -8 -63 21 -13 43 -11 65 6 32 24 60 18 74
-15 7 -16 16 -30 21 -30 5 0 9 -36 9 -79 0 -63 -5 -90 -25 -133 -33 -70 -35
-176 -5 -225 41 -68 73 -33 80 86 5 82 6 86 36 106 31 21 151 47 281 61 57 6
62 5 74 -17 6 -13 25 -40 41 -59 26 -32 28 -41 28 -117 0 -62 4 -85 16 -98 12
-12 19 -13 30 -4 11 9 14 41 14 135 0 138 -6 127 86 139 l52 7 4 -104 c4 -108
15 -142 61 -192 45 -48 120 -60 171 -27 16 11 41 41 57 68 26 44 29 56 29 149
0 73 -4 105 -15 120 -23 30 -19 34 45 34 l59 0 28 -48 c15 -26 42 -81 58 -122
39 -95 63 -110 181 -110 l80 0 23 -41 c18 -31 37 -47 75 -65 64 -29 174 -42
215 -24 58 24 111 121 111 203 0 51 -26 93 -95 152 l-55 47 0 93 c0 89 -1 95
-26 114 -15 12 -33 21 -40 21 -14 0 -23 9 -79 76 -67 82 -82 94 -114 94 -43 0
-60 -9 -77 -42 -12 -24 -13 -35 -3 -62 17 -47 8 -61 -49 -80 -55 -19 -72 -43
-72 -106 l0 -40 -74 0 c-47 0 -77 5 -83 13 -6 6 -18 44 -27 82 -10 39 -26 90
-37 114 -11 25 -19 66 -19 96 0 63 -16 112 -40 125 -28 15 -38 12 -56 -15z"/>
</g>
</svg>
