<?xml version="1.0" standalone="no"?>
<!DOCTYPE svg PUBLIC "-//W3C//DTD SVG 20010904//EN"
 "http://www.w3.org/TR/2001/REC-SVG-20010904/DTD/svg10.dtd">
<svg version="1.0" xmlns="http://www.w3.org/2000/svg"
 width="352.000000pt" height="288.000000pt" viewBox="0 0 352.000000 288.000000"
 preserveAspectRatio="xMidYMid meet">
<metadata>
Created by potrace 1.13, written by Peter Selinger 2001-2015
</metadata>
<g transform="translate(0.000000,288.000000) scale(0.100000,-0.100000)"
fill="#000000" stroke="none">
<path d="M2313 1112 c-22 -14 -43 -81 -43 -137 0 -53 -2 -57 -30 -66 -41 -15
-80 -84 -80 -142 l0 -45 -50 -11 c-28 -6 -68 -11 -89 -11 -33 0 -39 4 -54 35
-9 20 -17 45 -17 57 0 36 -39 104 -66 116 -16 8 -93 12 -218 12 -183 0 -194 1
-212 21 -10 12 -32 28 -48 36 -40 21 -136 44 -155 38 -9 -3 -29 -24 -44 -47
-15 -24 -34 -53 -43 -64 -24 -35 3 -54 76 -54 69 0 80 -11 80 -84 0 -35 5 -49
20 -58 18 -12 20 -24 20 -129 0 -108 -2 -118 -25 -150 -44 -60 -55 -91 -41
-113 7 -11 18 -22 24 -24 19 -6 82 63 82 90 0 28 51 127 78 151 15 14 46 17
176 19 l158 3 19 -50 c10 -27 19 -70 19 -95 0 -51 6 -62 36 -78 31 -16 49 7
39 50 -4 18 -9 63 -12 101 l-5 67 55 0 54 0 5 -102 c5 -115 23 -163 64 -178
14 -6 64 -10 111 -10 68 0 96 5 130 21 58 28 73 60 73 152 0 59 3 76 16 81 35
13 128 18 227 11 l105 -7 23 -54 c26 -64 68 -104 168 -156 68 -37 75 -38 170
-38 l99 0 41 57 c45 63 50 94 30 180 -17 72 -60 162 -81 169 -14 4 -18 16 -18
52 0 58 -16 116 -36 137 -11 10 -36 15 -85 15 l-69 0 -21 42 c-27 52 -53 75
-104 88 -22 6 -48 13 -57 16 -11 3 -28 -5 -43 -20 -21 -21 -25 -34 -25 -83 0
-57 -1 -58 -37 -78 -41 -22 -83 -85 -83 -126 0 -36 -18 -49 -65 -49 -40 1 -41
2 -82 77 -42 74 -43 80 -43 166 0 77 -4 96 -26 137 -14 26 -37 53 -50 59 -29
13 -26 13 -41 3z"/>
</g>
</svg>
