<?xml version="1.0" standalone="no"?>
<!DOCTYPE svg PUBLIC "-//W3C//DTD SVG 20010904//EN"
 "http://www.w3.org/TR/2001/REC-SVG-20010904/DTD/svg10.dtd">
<svg version="1.0" xmlns="http://www.w3.org/2000/svg"
 width="352.000000pt" height="288.000000pt" viewBox="0 0 352.000000 288.000000"
 preserveAspectRatio="xMidYMid meet">
<metadata>
Created by potrace 1.13, written by Peter Selinger 2001-2015
</metadata>
<g transform="translate(0.000000,288.000000) scale(0.100000,-0.100000)"
fill="#000000" stroke="none">
<path d="M2286 1104 c-12 -11 -16 -36 -16 -92 l0 -77 -46 -19 c-59 -24 -101
-81 -110 -147 -4 -27 -9 -49 -13 -50 -3 0 -57 -4 -119 -7 l-112 -7 0 40 c0 48
-14 65 -51 65 -14 0 -46 7 -69 15 -23 8 -63 15 -89 15 -70 0 -252 78 -360 155
-39 28 -68 42 -76 37 -8 -4 -48 -40 -90 -80 -60 -58 -74 -76 -65 -87 19 -22
84 -29 119 -11 50 26 64 21 84 -32 10 -26 27 -64 37 -84 24 -45 26 -129 5
-208 -20 -75 -20 -184 0 -200 12 -10 21 -10 40 -2 33 15 52 55 60 127 3 33 11
72 17 88 l10 27 174 0 c115 0 175 -4 180 -11 3 -6 9 -60 12 -121 3 -78 9 -114
20 -124 26 -27 53 -12 83 45 24 44 29 66 29 122 l0 69 45 0 45 0 0 -70 c0 -58
5 -81 29 -129 48 -95 107 -131 214 -131 42 0 49 3 66 31 12 20 22 61 26 108 4
42 12 82 17 89 8 9 59 12 194 12 211 0 205 3 252 -104 24 -56 29 -60 96 -92
60 -29 81 -34 141 -34 38 0 75 4 82 8 7 4 24 34 40 67 34 75 45 219 20 269 -8
17 -20 46 -27 64 -7 18 -26 45 -41 60 -24 22 -29 35 -29 75 0 47 -21 104 -44
119 -6 4 -30 8 -54 8 -66 0 -142 44 -142 82 0 10 -11 30 -25 43 -21 22 -33 25
-93 25 -39 0 -73 -5 -80 -12 -15 -15 -16 -54 -2 -63 6 -3 10 -28 10 -56 0 -42
-3 -49 -20 -49 -28 0 -58 -53 -66 -116 -5 -46 -10 -54 -36 -65 -17 -7 -48 -13
-70 -13 l-40 -1 -25 75 c-19 56 -27 107 -31 202 -4 69 -9 129 -13 132 -3 3
-21 12 -41 21 -33 13 -38 13 -52 -1z"/>
</g>
</svg>
