<?xml version="1.0" standalone="no"?>
<!DOCTYPE svg PUBLIC "-//W3C//DTD SVG 20010904//EN"
 "http://www.w3.org/TR/2001/REC-SVG-20010904/DTD/svg10.dtd">
<svg version="1.0" xmlns="http://www.w3.org/2000/svg"
 width="352.000000pt" height="288.000000pt" viewBox="0 0 352.000000 288.000000"
 preserveAspectRatio="xMidYMid meet">
<metadata>
Created by potrace 1.13, written by Peter Selinger 2001-2015
</metadata>
<g transform="translate(0.000000,288.000000) scale(0.100000,-0.100000)"
fill="#000000" stroke="none">
<path d="M2024 1159 c-16 -31 -16 -41 2 -156 5 -38 4 -43 -14 -43 -56 0 -112
-88 -112 -178 l0 -58 -47 -12 c-27 -6 -69 -14 -95 -18 l-48 -6 0 49 c0 55 -9
71 -59 108 -34 24 -39 25 -198 25 l-162 0 -15 29 c-16 30 -34 41 -68 41 -12 0
-40 18 -63 39 -47 43 -109 67 -149 57 -18 -4 -37 -26 -65 -74 -48 -82 -56
-109 -41 -127 16 -19 61 -19 86 0 10 8 31 15 45 15 23 0 28 -6 38 -45 6 -25
20 -53 31 -63 15 -12 20 -29 20 -64 0 -38 -8 -61 -44 -120 -44 -72 -74 -172
-63 -202 9 -22 53 -20 76 3 11 11 28 43 38 71 13 37 35 68 78 109 55 53 66 59
125 69 36 6 99 14 141 18 71 6 78 5 88 -14 6 -11 11 -68 11 -126 0 -80 4 -108
15 -120 36 -36 65 18 65 121 0 59 2 64 26 73 14 6 47 10 73 10 57 0 58 -1 66
-125 4 -44 8 -90 11 -102 6 -30 62 -47 141 -40 99 8 157 58 178 155 5 26 1 43
-25 88 -40 71 -39 117 3 122 16 2 39 -4 53 -12 23 -16 76 -106 102 -176 7 -19
18 -38 25 -42 6 -4 52 -8 101 -8 109 0 143 -18 187 -95 39 -70 45 -74 116 -81
80 -9 134 15 195 87 101 120 105 190 14 281 -35 35 -36 39 -36 107 0 78 -24
141 -59 161 -11 5 -44 10 -74 10 l-55 0 -27 65 c-20 46 -38 71 -60 85 -72 45
-100 19 -99 -89 0 -82 -4 -89 -63 -115 -36 -16 -63 -61 -63 -105 0 -20 -8 -35
-22 -45 -27 -20 -118 -22 -118 -3 -2 53 -42 291 -54 325 -23 61 -62 137 -81
156 -26 25 -53 19 -71 -15z"/>
</g>
</svg>
