<?xml version="1.0" standalone="no"?>
<!DOCTYPE svg PUBLIC "-//W3C//DTD SVG 20010904//EN"
 "http://www.w3.org/TR/2001/REC-SVG-20010904/DTD/svg10.dtd">
<svg version="1.0" xmlns="http://www.w3.org/2000/svg"
 width="352.000000pt" height="288.000000pt" viewBox="0 0 352.000000 288.000000"
 preserveAspectRatio="xMidYMid meet">
<metadata>
Created by potrace 1.13, written by Peter Selinger 2001-2015
</metadata>
<g transform="translate(0.000000,288.000000) scale(0.100000,-0.100000)"
fill="#000000" stroke="none">
<path d="M1767 1105 c-9 -20 -17 -59 -17 -90 0 -45 -3 -55 -21 -60 -38 -12
-59 -63 -59 -145 l0 -75 -49 -18 c-27 -9 -72 -17 -99 -17 l-51 0 -11 43 c-29
119 -26 114 -86 136 -46 18 -78 21 -197 21 -179 0 -205 7 -241 64 -51 80 -117
127 -154 107 -9 -5 -33 -35 -52 -66 -19 -31 -47 -75 -62 -98 l-28 -42 26 -22
c14 -13 34 -23 45 -23 20 0 59 33 59 50 0 6 17 10 38 10 l38 0 12 -70 c7 -39
12 -105 12 -148 0 -65 -5 -86 -30 -137 -43 -88 -38 -155 12 -155 20 0 58 54
58 83 0 10 9 35 19 56 19 36 23 38 82 45 108 11 243 7 263 -7 19 -14 19 -36 1
-110 -10 -39 9 -57 61 -57 59 0 78 28 75 111 l-2 59 55 0 56 0 0 -70 c0 -122
33 -161 167 -200 60 -18 88 -7 123 48 29 47 30 48 30 200 l0 152 68 0 69 0 21
-47 c11 -27 24 -64 28 -83 10 -55 19 -60 103 -60 90 0 111 -14 130 -87 13 -49
32 -71 69 -79 43 -8 53 -12 116 -33 88 -31 153 -28 204 9 49 35 56 57 50 153
-5 76 -29 137 -67 171 -19 17 -21 30 -21 116 0 61 -4 100 -12 108 -7 7 -40 12
-79 12 -75 0 -90 11 -126 91 -12 27 -25 41 -43 45 -14 3 -32 8 -40 10 -8 2
-20 0 -26 -4 -20 -13 -54 -90 -54 -122 0 -20 -6 -32 -17 -36 -44 -13 -86 -40
-96 -61 -8 -19 -18 -23 -55 -23 -89 0 -164 96 -176 225 -4 55 -12 78 -35 110
-38 53 -62 56 -84 10z"/>
</g>
</svg>
