<?xml version="1.0" standalone="no"?>
<!DOCTYPE svg PUBLIC "-//W3C//DTD SVG 20010904//EN"
 "http://www.w3.org/TR/2001/REC-SVG-20010904/DTD/svg10.dtd">
<svg version="1.0" xmlns="http://www.w3.org/2000/svg"
 width="352.000000pt" height="288.000000pt" viewBox="0 0 352.000000 288.000000"
 preserveAspectRatio="xMidYMid meet">
<metadata>
Created by potrace 1.13, written by Peter Selinger 2001-2015
</metadata>
<g transform="translate(0.000000,288.000000) scale(0.100000,-0.100000)"
fill="#000000" stroke="none">
<path d="M2411 1131 c-11 -7 -13 -31 -7 -124 l7 -115 -45 -6 c-25 -4 -55 -15
-67 -25 -18 -14 -20 -21 -10 -39 6 -11 11 -50 11 -85 l0 -64 -52 -7 c-136 -16
-150 -8 -192 102 -34 89 -42 92 -237 92 l-147 0 -57 55 c-68 67 -121 95 -190
102 -87 9 -99 2 -139 -78 -50 -99 -46 -149 10 -149 24 0 54 34 54 61 0 18 40
39 75 39 19 0 25 -5 25 -22 0 -13 14 -48 30 -77 44 -80 48 -119 16 -173 -40
-68 -76 -185 -76 -244 0 -72 18 -84 126 -84 108 0 126 13 132 97 3 38 -1 76
-12 106 -25 73 -21 104 14 122 16 8 52 15 81 15 58 0 118 -29 177 -84 l34 -31
-4 -90 c-1 -49 1 -95 5 -102 4 -6 33 -17 64 -23 56 -12 58 -12 80 14 29 34 29
75 1 112 -17 21 -23 41 -23 84 0 51 2 55 25 57 43 5 62 -20 69 -89 9 -79 59
-181 102 -207 43 -26 114 -36 151 -20 38 16 54 49 63 132 l7 67 167 0 166 0
31 -38 c16 -20 36 -51 43 -69 10 -26 24 -37 67 -53 30 -11 61 -20 69 -20 8 0
16 -4 20 -9 8 -14 107 -41 148 -41 43 0 77 26 112 86 22 37 28 62 32 138 6 89
4 95 -23 144 -17 31 -40 56 -60 65 -38 19 -50 64 -39 156 6 52 4 62 -14 80
-18 18 -33 21 -94 21 l-74 0 -47 61 c-46 59 -49 61 -84 54 -20 -3 -44 -8 -53
-11 -22 -6 -39 -47 -39 -94 0 -44 -18 -60 -69 -60 -49 0 -63 -23 -73 -120 -3
-22 -9 -25 -43 -28 -38 -3 -43 0 -83 49 -41 51 -42 53 -42 130 0 88 -25 169
-67 219 -27 33 -31 34 -52 21z"/>
</g>
</svg>
