<?xml version="1.0" standalone="no"?>
<!DOCTYPE svg PUBLIC "-//W3C//DTD SVG 20010904//EN"
 "http://www.w3.org/TR/2001/REC-SVG-20010904/DTD/svg10.dtd">
<svg version="1.0" xmlns="http://www.w3.org/2000/svg"
 width="352.000000pt" height="288.000000pt" viewBox="0 0 352.000000 288.000000"
 preserveAspectRatio="xMidYMid meet">
<metadata>
Created by potrace 1.13, written by Peter Selinger 2001-2015
</metadata>
<g transform="translate(0.000000,288.000000) scale(0.100000,-0.100000)"
fill="#000000" stroke="none">
<path d="M2004 1135 c-4 -9 -3 -28 1 -43 4 -15 9 -52 12 -83 l5 -56 -64 -36
c-72 -40 -96 -77 -100 -155 -3 -51 -11 -54 -112 -50 l-69 3 -18 60 c-31 97
-50 135 -74 141 -13 3 -53 -3 -91 -13 -43 -11 -105 -18 -164 -18 l-95 0 -64
43 c-35 23 -66 42 -69 42 -3 0 -13 6 -21 14 -14 13 -122 46 -150 46 -28 0
-121 -125 -121 -163 0 -37 84 -63 109 -34 10 13 90 42 95 35 7 -8 26 -179 26
-229 0 -41 -7 -68 -25 -100 -51 -91 -66 -131 -54 -145 15 -18 105 -19 116 -2
14 22 33 82 33 104 0 25 88 111 122 119 92 20 121 25 181 25 l67 0 0 -124 c0
-127 8 -154 42 -141 34 13 48 61 48 159 l0 96 89 0 89 0 11 -63 c6 -35 11 -88
11 -118 0 -59 23 -108 62 -132 30 -18 180 -41 213 -33 19 5 32 20 47 53 21 48
21 62 2 241 -8 71 -1 82 48 82 38 0 78 -69 85 -150 3 -33 12 -65 19 -71 15
-12 226 -8 256 5 12 5 19 3 22 -5 24 -83 36 -109 64 -141 37 -41 69 -53 173
-63 124 -13 168 39 169 198 0 76 -4 96 -29 152 -21 45 -39 71 -60 83 l-31 17
0 92 c0 113 -7 123 -88 123 l-57 0 -30 52 c-33 56 -84 98 -120 98 -37 0 -46
-21 -39 -92 l6 -64 -41 -13 c-54 -16 -81 -43 -81 -81 0 -65 -45 -110 -109
-110 -34 0 -41 17 -41 110 0 48 -5 73 -20 95 -11 17 -24 37 -29 45 -5 8 -15
44 -22 80 -10 50 -20 72 -45 98 -34 34 -80 43 -90 17z"/>
</g>
</svg>
