<?xml version="1.0" standalone="no"?>
<!DOCTYPE svg PUBLIC "-//W3C//DTD SVG 20010904//EN"
 "http://www.w3.org/TR/2001/REC-SVG-20010904/DTD/svg10.dtd">
<svg version="1.0" xmlns="http://www.w3.org/2000/svg"
 width="705.000000pt" height="406.000000pt" viewBox="0 0 705.000000 406.000000"
 preserveAspectRatio="xMidYMid meet">
<metadata>
Created by potrace 1.13, written by Peter Selinger 2001-2015
</metadata>
<g transform="translate(0.000000,406.000000) scale(0.100000,-0.100000)"
fill="#000000" stroke="none">
<path d="M668 4029 c-3 -9 -19 -13 -51 -11 -26 1 -47 -2 -47 -6 0 -4 -16 -14
-35 -21 -19 -7 -35 -19 -35 -27 0 -8 -9 -14 -20 -14 -11 0 -23 -7 -26 -15 -4
-8 -12 -15 -20 -15 -8 0 -14 -6 -14 -12 0 -7 -8 3 -18 22 -20 40 -47 50 -67
23 -17 -21 -20 -116 -5 -144 9 -16 7 -19 -10 -19 -11 0 -20 -5 -20 -12 0 -36
-57 -197 -74 -209 -12 -9 -39 -235 -38 -324 0 -22 5 -41 11 -43 15 -5 14 -55
-3 -94 -7 -18 -24 -69 -36 -113 -12 -44 -28 -87 -36 -96 -8 -8 -14 -21 -14
-27 0 -7 -14 -27 -31 -45 -48 -49 -71 -111 -63 -166 7 -46 46 -121 63 -121 6
0 12 -9 16 -19 7 -23 66 -45 94 -36 12 3 21 0 25 -10 3 -8 10 -15 16 -15 6 0
19 -7 27 -16 12 -12 32 -15 87 -11 39 2 80 7 92 11 17 6 23 0 40 -33 10 -23
22 -41 25 -41 3 0 26 -15 50 -34 24 -19 69 -42 99 -51 53 -16 110 -42 120 -55
8 -10 94 -40 117 -40 12 0 40 -15 62 -34 23 -19 54 -37 70 -41 16 -3 35 -13
42 -21 6 -8 20 -14 30 -14 10 0 26 -12 36 -26 10 -14 62 -70 115 -124 79 -79
113 -106 173 -135 52 -25 79 -44 90 -65 15 -30 93 -79 157 -100 22 -6 47 -25
60 -43 31 -44 37 -49 91 -77 26 -14 50 -33 53 -42 3 -10 8 -18 12 -18 6 0 59
-50 143 -135 17 -18 61 -42 104 -58 41 -16 92 -43 115 -62 22 -18 57 -39 78
-45 20 -7 41 -16 47 -21 5 -5 30 -9 56 -9 l46 0 6 -88 c4 -55 17 -121 37 -181
33 -104 39 -196 15 -239 -8 -15 -26 -52 -40 -82 -26 -56 -57 -99 -72 -101 -4
0 -43 -41 -85 -90 -73 -85 -95 -129 -65 -129 8 0 29 -8 48 -17 54 -27 223 -30
322 -4 44 11 82 23 85 26 4 4 7 28 7 55 0 47 1 48 26 43 25 -5 27 -2 37 43 6
27 11 92 11 144 0 135 9 188 41 245 15 28 33 68 40 90 6 22 15 49 19 60 5 11
14 33 20 48 6 15 11 41 11 57 0 15 3 30 8 32 10 5 52 87 52 104 0 8 12 19 26
24 32 12 44 13 44 1 0 -5 16 -36 35 -68 45 -76 65 -154 65 -254 0 -95 -25
-214 -48 -231 -10 -7 -29 -35 -42 -62 -14 -26 -53 -78 -87 -114 -67 -71 -70
-77 -51 -117 10 -23 16 -25 82 -25 39 0 89 -4 111 -10 22 -6 49 -14 61 -17 34
-8 131 26 154 54 11 14 20 32 20 39 0 8 6 14 14 14 8 0 16 7 20 15 3 8 14 15
25 15 24 0 28 15 34 118 3 47 -2 106 -14 165 -20 102 -24 194 -9 247 5 19 16
111 25 205 9 93 19 173 24 178 8 8 72 -7 271 -63 41 -11 91 -27 110 -35 111
-45 298 -65 441 -47 42 5 87 8 101 5 l24 -5 -3 -149 c-3 -143 -2 -149 17 -149
18 0 52 44 96 125 5 11 30 30 54 43 25 12 53 31 65 42 62 61 162 100 258 100
19 0 37 3 39 8 5 12 125 72 145 72 10 0 25 9 33 20 8 11 20 20 27 20 7 0 13 3
13 8 0 4 20 16 45 27 25 11 45 23 45 27 0 5 7 8 15 8 8 0 15 5 15 10 0 6 8 14
18 17 23 9 92 53 116 75 11 10 24 18 29 18 4 0 33 11 63 25 30 14 56 25 58 25
2 0 23 -27 47 -60 24 -33 47 -60 52 -60 4 0 7 -5 7 -11 0 -6 17 -32 39 -58 48
-58 103 -180 131 -291 19 -76 37 -126 59 -169 11 -22 -7 -104 -38 -175 -26
-56 -89 -136 -109 -136 -4 0 -18 -17 -32 -38 -26 -39 -75 -92 -86 -92 -17 0
-144 -114 -144 -129 1 -85 110 -128 283 -111 62 6 83 13 121 40 25 18 46 37
46 42 0 13 26 38 40 38 23 0 71 42 84 75 15 35 30 127 41 250 8 87 24 152 70
280 19 55 35 109 35 121 0 11 3 24 7 27 9 10 30 -35 60 -130 24 -79 26 -94 20
-213 -5 -109 -9 -136 -31 -182 -14 -29 -34 -63 -44 -74 -11 -11 -28 -45 -39
-75 -17 -46 -27 -58 -67 -79 -60 -33 -86 -56 -86 -77 -1 -16 -35 -60 -105
-134 -30 -31 -33 -59 -5 -59 11 0 20 -6 20 -13 0 -32 178 -52 294 -35 76 11
154 45 161 69 4 10 11 19 16 19 5 0 9 11 9 25 0 18 5 25 20 25 13 0 22 9 26
25 3 14 10 25 16 25 5 0 20 24 33 53 23 49 24 50 24 20 1 -42 10 -63 27 -63 8
0 14 -9 14 -20 0 -11 6 -20 13 -20 8 0 22 -19 32 -42 11 -24 20 -45 21 -46 7
-10 64 12 64 24 0 8 7 14 15 14 8 0 15 9 15 20 0 11 12 44 26 74 21 45 25 66
22 120 -1 37 1 67 6 69 5 2 10 28 11 59 1 36 8 62 18 72 20 20 31 111 23 187
-5 50 -3 59 11 59 14 0 15 9 8 68 -4 37 -9 121 -10 187 -2 116 -9 169 -25 190
-11 14 -50 224 -50 267 0 31 10 73 42 183 7 22 15 42 18 45 15 13 60 139 60
167 0 17 5 33 10 35 6 2 13 27 17 56 3 28 10 52 14 52 5 0 9 25 9 56 0 30 4
74 9 97 33 154 41 211 55 367 19 212 15 486 -8 541 -8 20 -13 45 -10 56 5 19
-81 204 -98 211 -5 2 -8 9 -8 16 0 17 -56 76 -73 76 -8 0 -17 13 -20 28 -5 23
-14 31 -49 41 -42 13 -87 32 -118 50 -59 34 -141 39 -275 15 -75 -14 -126 -15
-310 -8 -121 4 -283 7 -360 7 -365 -3 -555 -9 -555 -16 0 -5 -8 -6 -18 -3 -52
17 -462 24 -887 17 -206 -4 -266 -2 -425 18 -102 12 -239 34 -305 48 -66 13
-151 31 -190 38 -38 8 -83 18 -100 24 -36 12 -143 28 -245 36 -41 3 -115 13
-165 21 -58 9 -168 14 -310 14 -122 0 -225 4 -230 8 -6 5 -30 14 -55 21 -25 7
-58 16 -75 21 -16 5 -57 14 -90 20 -33 6 -76 15 -95 20 -193 48 -353 65 -523
55 -64 -4 -120 -11 -123 -16 -3 -5 -12 -9 -21 -9 -8 0 -60 -18 -114 -40 -55
-22 -104 -40 -109 -40 -6 0 -10 16 -10 35 0 28 -4 35 -19 35 -13 0 -24 13 -35
40 -9 24 -22 40 -32 40 -9 0 -24 9 -33 19 -11 13 -29 19 -55 18 -20 -1 -41 4
-45 11 -11 18 -157 28 -163 11z m191 -245 c34 -7 43 -34 11 -34 -11 0 -20 -4
-20 -8 0 -13 -48 -32 -80 -32 -25 0 -30 4 -30 25 0 18 5 25 20 25 10 0 25 7
32 15 15 16 23 17 67 9z m1321 -33 c0 -3 -20 -5 -45 -3 -28 3 -45 9 -45 17 0
9 10 10 45 2 25 -6 45 -13 45 -16z m50 -41 c0 -5 14 -10 31 -10 25 0 28 -2 17
-13 -25 -25 -43 -24 -72 5 l-29 28 27 0 c14 0 26 -4 26 -10z m620 -50 c0 -5
17 -10 38 -10 35 0 38 -3 50 -40 6 -22 12 -51 12 -65 0 -28 27 -59 59 -70 27
-8 27 -41 1 -48 -31 -8 -60 3 -60 24 0 11 -4 19 -10 19 -5 0 -10 7 -10 15 0 8
-4 15 -9 15 -5 0 -13 9 -16 20 -4 11 -15 20 -26 20 -11 0 -22 7 -25 15 -4 8
-13 15 -21 15 -8 0 -21 7 -29 15 -9 8 -11 15 -5 15 6 0 11 9 11 20 0 11 -4 20
-10 20 -17 0 -11 18 8 23 30 8 42 7 42 -3z m880 -114 c0 -19 -4 -22 -24 -19
-19 4 -25 0 -29 -18 l-4 -24 -8 23 c-4 12 -11 22 -16 22 -5 0 -6 7 -3 15 5 12
15 14 40 9 22 -4 34 -2 34 5 0 6 2 11 5 11 3 0 5 -11 5 -24z m650 -15 c0 -13
93 -23 100 -10 5 8 18 8 46 0 29 -8 53 -8 93 1 43 9 56 9 59 0 5 -16 39 -15
45 1 2 6 8 9 12 5 13 -12 -4 -26 -40 -32 -27 -5 -35 -12 -35 -28 0 -18 4 -20
33 -13 17 5 49 8 70 7 30 -1 37 2 37 17 0 11 -7 21 -15 23 -9 2 -12 8 -6 17
11 17 51 5 51 -15 0 -8 9 -14 20 -14 13 0 20 7 20 20 0 11 5 20 10 20 6 0 10
-6 10 -14 0 -16 47 -26 113 -22 26 1 47 -2 47 -7 0 -5 17 -7 38 -4 20 3 29 3
20 1 -10 -3 -18 -14 -18 -25 0 -21 16 -23 113 -12 38 4 47 9 47 24 0 14 7 19
28 18 23 -2 24 -2 5 -6 -15 -3 -23 -12 -23 -24 0 -14 7 -19 30 -19 20 0 30 -5
30 -15 0 -10 10 -15 30 -15 l29 0 -34 -35 c-19 -19 -35 -40 -35 -46 0 -6 -11
-22 -25 -35 -14 -13 -25 -30 -25 -39 0 -8 -4 -15 -9 -15 -5 0 -11 -9 -14 -21
-3 -12 -10 -18 -17 -14 -17 10 -70 -5 -70 -21 0 -8 -9 -14 -20 -14 -11 0 -20
5 -20 10 0 22 -37 9 -46 -17 -8 -25 -10 -26 -26 -10 -19 19 -45 22 -50 6 -5
-15 -58 0 -58 17 0 8 -9 14 -20 14 -11 0 -20 -4 -20 -10 0 -6 -9 -6 -26 0 -41
16 -64 12 -64 -10 0 -11 7 -20 15 -20 8 0 15 -4 15 -10 0 -5 -20 -10 -44 -10
-24 0 -51 -3 -60 -6 -11 -4 -16 -1 -16 10 0 22 -37 21 -43 -1 -3 -11 -5 -6 -6
10 -1 29 -2 29 -53 24 -29 -2 -63 -8 -75 -12 -19 -6 -21 -4 -16 16 4 15 0 26
-12 35 -18 13 -18 14 3 14 13 0 22 6 22 15 0 11 8 13 30 9 19 -4 30 -2 30 5 0
6 12 11 28 11 44 0 72 11 73 29 0 10 2 11 6 4 2 -7 13 -13 24 -13 15 0 19 7
20 33 0 17 3 26 6 20 2 -7 18 -13 34 -13 22 0 29 5 29 20 0 11 -7 20 -15 20
-8 0 -15 5 -15 10 0 14 -37 12 -43 -2 -3 -8 -6 -6 -6 5 -1 19 -5 20 -51 11
-27 -6 -31 -11 -27 -30 2 -13 0 -24 -4 -24 -5 0 -9 9 -9 20 0 16 -7 20 -30 20
-16 0 -30 -4 -30 -10 0 -5 -11 -10 -25 -10 -14 0 -25 5 -25 10 0 6 -9 10 -20
10 -16 0 -20 -7 -21 -37 -1 -21 -3 -30 -6 -20 -2 9 -14 17 -25 17 -17 0 -20
-4 -14 -30 5 -28 3 -30 -24 -30 -26 0 -30 -4 -30 -26 0 -15 8 -33 18 -40 16
-12 15 -13 -5 -14 -27 0 -33 -37 -8 -46 8 -4 15 -15 15 -25 0 -20 64 -54 123
-66 22 -5 27 -11 27 -35 0 -29 1 -30 36 -24 19 4 43 10 52 14 16 5 16 5 0 -11
-9 -9 -23 -17 -31 -17 -9 0 -17 -6 -19 -12 -3 -8 -18 -12 -40 -10 -29 3 -37
-1 -43 -17 -3 -12 -4 -29 0 -40 4 -14 -1 -20 -25 -24 -18 -4 -30 -13 -30 -22
0 -8 -6 -15 -13 -15 -9 0 -12 -22 -12 -81 0 -74 -3 -83 -23 -97 -28 -18 -28
-36 -1 -74 25 -34 33 -118 12 -118 -15 0 -17 -36 -3 -45 18 -11 11 -35 -10
-35 -13 0 -20 -7 -20 -20 0 -11 4 -20 8 -20 5 0 16 -16 25 -36 13 -25 14 -40
7 -54 -5 -10 -7 -38 -4 -63 6 -43 5 -45 -17 -40 -19 3 -24 11 -25 36 -2 95
-42 121 -64 42 -12 -43 -11 -47 8 -65 12 -11 28 -20 37 -20 8 0 15 -9 15 -20
0 -11 -4 -20 -10 -20 -5 0 -10 6 -10 14 0 13 -28 26 -57 26 -6 0 -14 -13 -18
-30 -12 -54 -20 -40 -18 31 1 38 -3 69 -8 69 -5 0 -9 5 -9 10 0 6 7 10 15 10
17 0 21 36 5 42 -6 2 -14 23 -18 48 -6 36 -12 46 -30 48 -22 3 -22 3 -19 -107
3 -98 2 -110 -14 -114 -21 -6 -25 3 -34 69 -4 27 -11 54 -16 60 -5 6 0 16 11
24 24 17 25 36 5 56 -8 9 -15 24 -15 35 0 13 -7 19 -21 19 -20 0 -21 -4 -15
-50 6 -42 4 -50 -10 -50 -12 0 -15 -7 -12 -24 4 -19 0 -26 -16 -30 -32 -9 -36
-7 -36 13 0 11 -7 27 -16 35 -8 9 -11 16 -6 16 5 0 15 20 22 44 9 33 18 46 36
50 15 4 24 14 24 26 0 11 7 20 15 20 8 0 15 -7 15 -15 0 -8 9 -15 20 -15 13 0
20 7 20 20 0 11 -7 20 -15 20 -8 0 -15 7 -15 15 0 8 -9 15 -20 15 -11 0 -20
-4 -20 -10 0 -5 -9 -10 -20 -10 -11 0 -20 -7 -20 -15 0 -8 -4 -15 -10 -15 -5
0 -10 -6 -10 -14 0 -8 -11 -17 -24 -20 -21 -5 -25 -12 -24 -46 0 -40 -31 -89
-40 -62 -2 6 -15 12 -28 12 -17 0 -24 6 -24 19 0 14 6 17 25 13 22 -4 25 -1
25 27 0 17 -4 31 -10 31 -5 0 -10 15 -10 33 1 29 2 30 14 15 7 -10 21 -18 31
-18 14 0 16 6 13 30 -5 31 0 34 50 30 25 -2 28 15 10 55 -12 28 -12 28 -57 19
-23 -5 -31 -12 -31 -28 -1 -20 -1 -20 -12 -2 -8 15 -8 21 0 24 16 5 15 27 -3
62 -15 28 -14 30 4 30 11 0 26 6 33 13 6 8 22 11 35 9 18 -3 23 0 23 17 0 11
-4 21 -10 21 -5 0 -7 13 -3 30 5 25 2 30 -15 30 -13 0 -22 -9 -26 -25 -4 -14
-12 -25 -20 -25 -9 0 -12 8 -8 25 2 15 0 25 -7 25 -6 0 -11 7 -11 15 0 8 -4
15 -10 15 -6 0 -10 30 -10 70 0 40 -4 70 -10 70 -5 0 -10 9 -10 20 0 13 -7 20
-20 20 -13 0 -20 -7 -20 -20 0 -11 5 -20 10 -20 6 0 9 -12 9 -27 -1 -17 -3
-21 -6 -11 -6 22 -49 34 -67 19 -16 -13 -20 -9 -30 32 -7 30 -29 35 -53 11
-15 -14 -18 -14 -32 10 -16 27 -27 31 -55 20 -12 -5 -16 -20 -16 -59 0 -50 -1
-52 -25 -47 -14 2 -25 8 -25 13 0 5 -7 9 -16 9 -18 0 -44 -23 -44 -39 0 -6 -5
-11 -11 -11 -6 0 -9 -10 -7 -23 4 -20 1 -23 -19 -19 -22 4 -33 22 -13 22 6 0
10 14 10 30 0 22 -5 30 -17 30 -25 0 -39 -12 -47 -37 -4 -13 -12 -23 -17 -23
-5 0 -9 -7 -9 -15 0 -8 -4 -15 -10 -15 -5 0 -10 5 -10 10 0 14 -36 12 -48 -2
-6 -7 -13 -30 -17 -50 -4 -21 -11 -38 -16 -38 -5 0 -9 -9 -9 -20 0 -11 -7 -23
-15 -26 -8 -4 -15 -14 -15 -24 0 -13 -6 -16 -25 -12 -20 3 -25 0 -25 -15 0
-11 10 -25 23 -31 17 -8 18 -11 5 -11 -27 -1 -24 -47 3 -54 15 -4 20 -11 15
-22 -3 -9 -6 -31 -7 -48 0 -18 -3 -26 -6 -19 -10 24 -40 13 -46 -18 -7 -32
-36 -42 -38 -12 -5 73 -3 85 14 90 9 2 17 13 17 23 0 15 -7 19 -34 19 -19 0
-37 -6 -39 -12 -3 -8 -6 -6 -6 5 -1 9 -9 17 -18 17 -12 0 -14 3 -6 8 6 4 14
24 18 45 4 20 11 37 16 37 5 0 9 9 9 20 0 13 -7 20 -20 20 -11 0 -20 -4 -20
-10 0 -5 -6 -10 -14 -10 -9 0 -17 -15 -21 -40 -6 -35 -11 -41 -45 -51 -22 -7
-41 -19 -44 -28 -2 -9 -2 0 1 21 4 29 1 37 -14 41 -15 4 -14 5 5 6 18 1 22 7
22 31 0 17 4 30 9 30 13 0 31 57 31 96 0 24 5 34 15 34 10 0 15 10 15 30 0 28
-3 30 -35 30 -28 0 -35 -4 -35 -20 0 -11 -7 -20 -15 -20 -9 0 -15 -9 -15 -25
0 -14 -4 -25 -10 -25 -5 0 -10 7 -10 15 0 8 -4 15 -9 15 -13 0 -22 73 -9 81 6
4 8 16 5 28 -4 18 -1 21 23 21 22 0 29 6 35 28 4 15 10 21 12 15 6 -17 43 -17
43 0 0 7 9 19 20 27 23 16 26 40 8 58 -13 13 -4 16 39 13 16 -2 23 5 28 28 3
17 4 35 0 41 -9 14 -42 13 -48 -2 -2 -7 -3 4 -3 24 1 23 6 38 14 38 15 0 16
37 0 42 -14 5 37 58 56 58 39 0 121 -22 146 -40 15 -11 35 -20 44 -20 12 0 14
-7 10 -28 -4 -19 0 -34 11 -45 22 -22 55 -22 55 0 0 14 3 13 16 -5 16 -24 12
-42 -12 -42 -8 0 -14 -9 -14 -20 0 -23 13 -25 58 -9 23 8 33 19 38 42 6 29 19
46 34 47 3 0 14 -13 23 -30 10 -17 27 -30 38 -30 14 0 19 7 19 30 0 17 5 30
10 30 6 0 10 7 10 15 0 8 5 15 10 15 6 0 10 -9 10 -20 0 -11 6 -20 14 -20 18
0 25 -20 15 -45 -12 -32 -10 -55 6 -55 9 0 15 -9 15 -24 0 -52 64 -78 76 -31
3 14 1 31 -5 39 -9 11 -7 15 9 19 28 7 26 43 -2 51 -22 7 -22 7 -3 15 26 10
55 2 55 -15 0 -7 11 -16 25 -20 14 -3 25 -12 25 -19 0 -13 21 -25 46 -25 25 0
16 39 -11 46 -16 4 -25 13 -25 25 0 20 2 21 50 21 55 0 60 -2 60 -22 0 -13 7
-20 20 -20 13 0 20 7 20 20 0 11 -7 20 -15 20 -8 0 -15 7 -15 15 0 12 9 11 53
-7 75 -31 227 -35 227 -7 0 6 7 18 17 27 15 15 16 13 9 -36 -4 -34 -3 -52 4
-52 5 0 10 -9 10 -20 0 -11 6 -23 14 -26 8 -3 17 -23 21 -45 5 -28 12 -39 25
-39 26 0 26 96 -1 110 -21 12 -39 102 -20 108 16 5 14 39 -4 46 -30 11 -14 26
28 26 42 0 43 1 56 46 16 54 9 63 -49 64 -19 0 -42 5 -50 10 -18 12 -20 11 59
15 34 2 65 6 68 9 3 2 2 18 -2 35 -5 22 -12 31 -26 31 -10 0 -19 -4 -19 -10 0
-11 -33 -13 -67 -4 -14 4 -23 14 -23 26 0 18 -5 20 -31 14 -21 -4 -35 -1 -46
9 -13 13 -5 15 66 15 45 0 81 -4 81 -9z m1553 -18 c-13 -2 -35 -2 -50 0 -16 2
-5 4 22 4 28 0 40 -2 28 -4z m-693 -18 c0 -2 -16 -5 -35 -7 -35 -4 -50 7 -17
14 16 4 52 -1 52 -7z m1127 -11 c-3 -3 -12 -4 -19 -1 -8 3 -5 6 6 6 11 1 17
-2 13 -5z m-952 -34 c-7 -11 -85 2 -85 14 0 9 11 10 44 2 25 -6 43 -13 41 -16z
m-2325 -40 c0 -5 -4 -10 -10 -10 -5 0 -10 5 -10 10 0 6 5 10 10 10 6 0 10 -4
10 -10z m3570 -25 c0 -5 -5 -3 -10 5 -5 8 -10 20 -10 25 0 6 5 3 10 -5 5 -8
10 -19 10 -25z m-1022 4 c5 -13 42 -11 42 2 0 8 4 8 15 -1 9 -7 26 -9 45 -5
23 5 30 3 30 -9 0 -12 10 -16 35 -16 22 0 38 -6 41 -15 7 -18 41 -20 46 -4 3
8 10 6 20 -5 20 -19 44 -21 51 -3 4 7 9 3 13 -11 5 -18 12 -23 30 -19 18 3 24
0 24 -14 0 -12 7 -19 20 -19 22 0 28 35 8 43 -7 3 -3 6 10 6 13 1 22 -5 22
-14 0 -24 38 -18 42 7 4 25 28 37 28 14 0 -11 9 -16 30 -16 17 0 30 -4 30 -9
0 -5 14 -12 30 -16 17 -4 30 -10 30 -13 0 -9 73 -32 100 -32 13 0 20 7 20 19
0 14 -10 21 -37 26 -34 6 -89 45 -64 45 5 0 12 -4 15 -9 10 -16 78 -24 87 -9
6 9 11 10 17 2 4 -6 19 -14 35 -18 15 -3 27 -13 27 -21 0 -8 9 -15 20 -15 13
0 20 -7 20 -20 0 -11 5 -20 10 -20 6 0 10 -27 10 -60 0 -68 -14 -78 -48 -35
-21 26 -48 33 -54 14 -2 -7 -26 -5 -72 8 -54 14 -70 15 -73 6 -3 -7 -13 -13
-24 -13 -10 0 -19 -5 -19 -11 0 -7 -14 -8 -40 -4 -22 4 -40 3 -40 -2 0 -5 -18
-7 -40 -5 -32 3 -40 1 -40 -12 0 -9 -6 -16 -14 -16 -8 0 -20 -13 -28 -30 -10
-23 -19 -30 -40 -30 -18 0 -28 -5 -28 -15 0 -9 -9 -15 -21 -15 -18 0 -20 -4
-15 -27 15 -68 15 -113 0 -113 -40 0 -50 -61 -28 -167 5 -26 3 -33 -10 -33 -9
0 -16 -8 -16 -20 0 -11 5 -20 10 -20 6 0 10 -4 10 -10 0 -5 -6 -10 -14 -10
-17 0 -26 -22 -26 -61 0 -16 -4 -29 -9 -29 -5 0 -14 -27 -22 -60 -12 -54 -32
-81 -48 -64 -3 4 0 9 7 11 17 7 15 43 -3 43 -10 0 -15 10 -15 30 0 20 5 30 15
30 8 0 15 9 15 20 0 13 -7 20 -19 20 -11 0 -23 5 -26 10 -10 16 -45 12 -45 -5
0 -8 -3 -15 -7 -15 -5 0 -9 19 -10 41 0 23 -7 46 -15 50 -10 7 -9 9 5 9 10 0
17 8 17 20 0 21 -10 24 -47 14 -14 -4 -23 -14 -23 -25 0 -11 -4 -19 -10 -19
-5 0 -10 -9 -10 -19 0 -11 -4 -23 -10 -26 -5 -3 -10 3 -10 14 0 10 -5 21 -10
23 -7 2 -7 14 1 36 6 18 9 49 6 68 -4 25 -2 34 9 34 8 0 14 9 14 20 0 14 -7
20 -22 20 -13 0 -31 7 -41 14 -18 14 -17 14 2 21 26 8 28 45 3 45 -26 0 -58
-30 -66 -62 -3 -16 -13 -28 -22 -28 -11 0 -15 -8 -13 -27 4 -47 0 -63 -16 -63
-8 0 -15 -4 -15 -10 0 -5 -12 -9 -27 -9 -17 1 -21 3 -10 6 18 5 24 43 7 43 -5
0 -10 7 -10 15 0 8 5 15 10 15 6 0 10 9 10 20 0 11 -4 20 -10 20 -5 0 -10 5
-10 11 0 7 -6 17 -14 23 -18 14 -33 106 -17 106 6 0 11 7 11 15 0 25 -23 65
-37 65 -7 0 -13 11 -13 25 0 16 -6 25 -15 25 -10 0 -15 11 -15 35 0 21 -5 35
-12 36 -7 0 0 5 16 11 24 9 27 15 23 37 -4 20 0 31 14 41 10 8 22 29 25 47 3
18 10 33 15 33 15 0 49 39 49 56 0 20 21 41 45 46 34 6 170 -4 173 -13z
m-2578 -41 c0 -5 -4 -8 -10 -8 -5 0 -10 10 -10 23 0 18 2 19 10 7 5 -8 10 -18
10 -22z m620 -61 c0 -7 -37 -47 -44 -47 -16 0 -3 32 17 40 27 11 27 11 27 7z
m1081 -287 c10 0 19 5 19 10 0 6 9 10 20 10 11 0 20 -4 20 -10 0 -5 18 -10 40
-10 38 0 40 -2 40 -30 0 -25 4 -30 25 -30 14 0 25 -4 25 -10 0 -5 -4 -10 -10
-10 -5 0 -10 -13 -10 -30 0 -16 -5 -30 -11 -30 -7 0 -9 -10 -7 -25 3 -14 1
-25 -3 -25 -5 0 -9 -9 -9 -20 0 -30 40 -27 41 3 0 12 3 16 6 10 6 -15 43 -17
43 -3 0 6 8 14 18 17 9 4 23 13 30 20 7 7 20 13 28 13 11 0 10 -4 -3 -20 -10
-11 -23 -20 -29 -20 -7 0 -14 -7 -18 -15 -3 -8 -12 -15 -21 -15 -8 0 -15 -9
-15 -20 0 -17 -7 -20 -40 -20 -22 0 -40 -4 -40 -10 0 -5 -6 -7 -14 -4 -8 3
-13 11 -10 18 3 7 -1 40 -9 73 -11 48 -11 61 -1 71 7 7 18 12 24 12 11 0 13
14 4 48 -4 13 -14 22 -26 22 -16 0 -19 -5 -16 -24 4 -18 0 -26 -14 -29 -10 -3
-21 -1 -24 4 -3 5 -12 9 -20 9 -18 0 -37 18 -47 43 -4 11 -16 18 -29 17 -40
-4 -44 1 -13 15 17 7 32 9 33 4 2 -5 12 -9 23 -9z m2012 -80 c3 -11 1 -18 -4
-14 -5 3 -9 12 -9 20 0 20 7 17 13 -6z m14 -62 c-3 -8 -6 -5 -6 6 -1 11 2 17
5 13 3 -3 4 -12 1 -19z m-1595 -20 c0 -13 0 -33 -1 -46 -1 -12 7 -43 18 -68
13 -29 18 -56 14 -74 -3 -17 -2 -30 3 -30 5 0 9 -19 10 -43 l1 -44 -59 -13
-59 -13 7 -43 c5 -37 4 -44 -10 -44 -11 0 -16 -9 -16 -30 0 -16 -4 -30 -10
-30 -5 0 -10 -9 -10 -20 0 -16 7 -20 30 -20 20 0 30 5 30 15 0 8 7 15 15 15 8
0 15 7 15 15 0 8 7 15 16 15 12 0 15 7 11 25 -3 16 0 24 7 22 15 -5 21 -77 5
-77 -7 0 -9 -10 -7 -25 4 -18 1 -25 -10 -25 -10 0 -13 -7 -10 -25 3 -14 1 -25
-3 -25 -5 0 -9 -9 -9 -20 0 -14 -7 -20 -21 -20 -19 0 -21 -4 -15 -30 4 -22 2
-30 -9 -30 -8 0 -15 -7 -15 -15 0 -8 -4 -15 -9 -15 -5 0 -13 -15 -16 -32 -8
-35 -20 -48 -47 -48 -14 0 -16 6 -11 30 4 24 2 30 -11 30 -19 0 -46 -23 -46
-39 0 -7 -10 -7 -30 0 -16 6 -30 15 -30 20 0 5 14 6 30 3 26 -6 30 -4 30 15 0
14 6 21 20 21 13 0 20 7 20 20 0 14 -7 20 -23 20 -20 0 -23 4 -19 35 3 27 1
35 -12 35 -10 0 -16 9 -16 24 0 19 7 26 30 31 21 5 30 13 30 26 0 10 5 19 10
19 6 0 10 5 10 11 0 6 14 24 30 41 17 16 30 38 30 48 0 9 3 32 6 49 6 27 4 31
-15 31 -13 0 -23 -8 -27 -24 -3 -14 -15 -27 -29 -30 -13 -3 -30 -12 -37 -19
-11 -11 -13 0 -16 62 -2 83 3 121 18 121 5 0 12 -11 16 -25 4 -16 13 -25 26
-25 17 0 20 5 15 30 -5 22 -3 30 7 30 9 0 17 15 21 38 3 21 15 45 26 52 10 8
19 20 19 27 0 7 7 13 15 13 10 0 15 10 15 28 0 27 27 72 43 72 4 0 8 -10 9
-22z m1638 -203 c1 -151 -12 -404 -25 -480 -17 -102 -61 -273 -73 -288 -6 -7
-17 -34 -25 -62 -8 -27 -32 -93 -52 -145 -20 -52 -45 -122 -55 -155 l-18 -60
-12 30 c-7 17 -13 64 -14 105 -1 66 4 85 38 160 40 90 70 170 105 288 21 68
24 72 52 72 26 0 30 3 27 23 -2 14 -11 23 -27 25 -26 4 -27 -12 9 172 14 73
22 167 27 310 l6 204 18 -64 c10 -36 18 -96 19 -135z m-6530 154 c0 -11 -4
-17 -10 -14 -5 3 -10 13 -10 21 0 8 5 14 10 14 6 0 10 -9 10 -21z m3070 -9 c0
-5 -4 -10 -8 -10 -5 0 -14 -29 -21 -65 -7 -36 -18 -65 -23 -65 -6 0 -7 10 -2
28 4 15 8 43 8 62 -1 19 4 40 10 47 13 15 36 17 36 3z m70 -15 c0 -8 -4 -15
-10 -15 -5 0 -10 7 -10 15 0 8 5 15 10 15 6 0 10 -7 10 -15z m-3233 -21 c-3
-3 -12 -4 -19 -1 -8 3 -5 6 6 6 11 1 17 -2 13 -5z m5769 -119 c4 -8 11 -15 17
-15 16 0 47 -31 47 -47 0 -7 -7 -13 -15 -13 -8 0 -15 5 -15 10 0 6 -9 10 -20
10 -13 0 -20 -7 -20 -20 0 -11 -4 -20 -10 -20 -5 0 -10 -10 -11 -22 0 -16 -2
-18 -6 -8 -4 8 -13 20 -21 26 -13 9 -12 14 6 32 23 23 30 62 12 62 -5 0 -10 5
-10 10 0 16 40 12 46 -5z m-2656 -42 c0 -10 -5 -49 -10 -87 -7 -47 -7 -73 0
-80 12 -12 13 -36 1 -36 -5 0 -13 18 -19 41 -8 31 -7 53 6 96 12 43 13 58 4
61 -7 2 -10 8 -6 13 9 15 24 10 24 -8z m2786 -187 c16 -20 35 -36 42 -36 6 0
12 -4 12 -10 0 -5 21 -20 48 -32 26 -12 49 -26 50 -30 2 -4 12 -8 22 -8 10 0
22 -4 25 -10 3 -5 2 -10 -3 -10 -5 0 -13 -26 -17 -57 -4 -32 -11 -61 -16 -64
-5 -3 -10 -28 -11 -57 -2 -29 -7 -52 -12 -52 -4 0 -6 -11 -4 -25 3 -14 1 -25
-3 -25 -5 0 -9 5 -9 10 0 6 -6 10 -13 10 -7 0 -21 16 -30 35 -15 31 -15 36 -2
41 21 8 19 44 -2 45 -11 0 -13 3 -5 6 17 7 15 40 -3 47 -18 6 -9 36 11 36 17
0 18 32 2 48 -25 25 -46 14 -54 -30 -4 -24 -9 -37 -11 -30 -3 6 -11 12 -19 12
-8 0 -14 5 -14 10 0 6 7 10 15 10 16 0 18 12 9 48 -4 12 -12 22 -18 22 -7 0
-12 12 -11 28 0 25 -3 27 -42 27 -32 0 -39 3 -31 13 6 6 17 12 24 12 8 0 14
10 14 25 0 16 -6 25 -15 25 -8 0 -15 5 -15 10 0 6 5 10 10 10 22 0 9 38 -15
44 -15 4 -25 13 -24 24 0 10 3 12 6 5 7 -20 43 -16 44 5 0 9 9 -8 19 -39 9
-31 30 -73 46 -93z m-402 99 c4 -11 -1 -15 -19 -15 -24 0 -32 10 -18 23 11 12
31 8 37 -8z m211 -52 c5 -25 3 -33 -7 -33 -9 0 -13 13 -13 40 0 45 10 41 20
-7z m-5225 -37 c0 -8 3 -21 6 -30 3 -9 1 -16 -5 -16 -6 0 -11 8 -11 18 0 11
-10 24 -22 30 -23 10 -23 11 5 11 17 1 27 -4 27 -13z m2539 -29 c1 -5 -3 -5
-9 -2 -5 3 -10 16 -9 28 0 21 1 21 9 2 5 -11 9 -24 9 -28z m-2319 1 c0 -3 3
-13 6 -22 8 -20 -10 -21 -30 -1 -8 8 -21 15 -28 16 -10 0 -10 2 0 6 6 2 12 11
12 19 0 12 4 12 20 2 11 -7 20 -16 20 -20z m3586 -43 c7 -5 15 -24 19 -42 5
-27 4 -31 -12 -27 -13 4 -23 21 -31 50 -15 55 -15 75 0 49 6 -11 17 -24 24
-30z m-1195 18 c2 -10 1 -45 -2 -78 -5 -51 -6 -54 -8 -20 -6 81 -6 115 0 115
4 0 8 -8 10 -17z m-71 -68 c0 -23 -3 -27 -10 -15 -5 8 -10 29 -10 45 0 23 3
27 10 15 5 -8 10 -28 10 -45z m1700 40 c0 -9 -6 -12 -15 -9 -8 4 -15 10 -15
15 0 5 7 9 15 9 8 0 15 -7 15 -15z m1087 -21 c-3 -3 -12 -4 -19 -1 -8 3 -5 6
6 6 11 1 17 -2 13 -5z m-2042 -45 c5 -5 1 -9 -12 -9 -11 0 -27 7 -34 16 -12
15 -11 16 11 9 14 -4 29 -11 35 -16z m588 -14 c4 -8 2 -17 -3 -20 -6 -4 -10
-4 -10 -1 0 2 -3 11 -6 20 -3 9 -2 16 4 16 5 0 12 -7 15 -15z m364 -21 c-3 -3
-12 -4 -19 -1 -8 3 -5 6 6 6 11 1 17 -2 13 -5z m-1700 -36 c-3 -8 -6 -5 -6 6
-1 11 2 17 5 13 3 -3 4 -12 1 -19z m2823 12 c0 -5 -8 -10 -17 -10 -15 0 -16 2
-3 10 19 12 20 12 20 0z m-1160 -15 c0 -8 -7 -15 -15 -15 -8 0 -15 -7 -15 -15
0 -8 -7 -15 -15 -15 -8 0 -15 -7 -15 -15 0 -8 -7 -15 -15 -15 -8 0 -15 -4 -15
-10 0 -5 -7 -10 -15 -10 -11 0 -15 -12 -17 -42 -1 -41 -1 -41 -5 -8 -3 19 -10
38 -16 42 -6 4 0 9 16 13 18 5 27 14 27 26 0 12 11 24 28 31 15 7 34 20 42 30
18 22 30 23 30 3z m310 -2 c0 -5 -5 -15 -10 -23 -8 -12 -10 -11 -10 8 0 12 5
22 10 22 6 0 10 -3 10 -7z m920 -27 c0 -8 -7 -17 -16 -20 -23 -9 -24 -8 -24
14 0 13 7 20 20 20 11 0 20 -6 20 -14z m198 -204 c6 -18 -15 -14 -22 4 -4 10
-1 14 6 12 6 -2 14 -10 16 -16z m-1077 -25 c-10 -9 -11 -8 -5 6 3 10 9 15 12
12 3 -3 0 -11 -7 -18z m-31 -42 c0 -8 -7 -15 -15 -15 -13 0 -14 3 -3 15 16 18
18 18 18 0z m-38 -47 c-7 -7 -12 -8 -12 -2 0 14 12 26 19 19 2 -3 -1 -11 -7
-17z m-152 -19 c0 -4 -7 -6 -15 -3 -8 4 -15 10 -15 15 0 4 7 6 15 3 8 -4 15
-10 15 -15z m163 -93 c4 -10 0 -12 -14 -9 -22 6 -26 23 -5 23 8 0 16 -6 19
-14z m-44 -31 c-2 -2 -17 0 -34 3 l-30 6 30 6 c26 5 45 -4 34 -15z m-89 -32
c-8 -4 -23 -15 -33 -26 -21 -25 -33 -17 -17 12 7 14 20 21 38 20 16 0 21 -3
12 -6z m-2328 -475 c12 -16 28 -28 35 -28 7 0 13 -4 13 -10 0 -5 8 -10 19 -10
14 0 17 -6 13 -26 -5 -25 -3 -26 30 -23 32 4 34 3 30 -23 -2 -16 -10 -28 -18
-28 -18 0 -54 -31 -54 -47 0 -7 -7 -13 -15 -13 -8 0 -15 7 -15 15 0 28 -51 16
-63 -15 -4 -12 -6 -12 -6 2 -1 9 -9 22 -18 27 -17 10 -17 10 0 11 18 0 24 34
8 44 -6 4 -5 20 0 41 6 20 7 46 3 58 -4 12 -8 37 -8 55 -1 28 1 30 11 15 7
-10 22 -30 35 -45z m-82 28 c0 -3 -4 -8 -10 -11 -5 -3 -10 -1 -10 4 0 6 5 11
10 11 6 0 10 -2 10 -4z m280 -16 c0 -5 -2 -10 -4 -10 -3 0 -8 5 -11 10 -3 6
-1 10 4 10 6 0 11 -4 11 -10z m-10 -44 c0 -2 -7 -7 -16 -10 -8 -3 -12 -2 -9 4
6 10 25 14 25 6z m3502 -491 c3 -14 1 -25 -3 -25 -5 0 -9 11 -9 25 0 14 2 25
4 25 2 0 6 -11 8 -25z m-3752 -36 c0 -12 -13 -33 -28 -47 -16 -15 -31 -36 -35
-46 -11 -27 -15 -16 -10 22 4 22 11 32 23 32 11 0 20 10 24 30 6 34 26 41 26
9z m3753 -45 c-6 -17 -23 -9 -23 11 0 8 6 12 14 9 8 -3 12 -12 9 -20z m-3683
-124 c0 -5 -7 -10 -16 -10 -8 0 -12 5 -9 10 3 6 10 10 16 10 5 0 9 -4 9 -10z
m3827 -142 c-3 -8 -6 -5 -6 6 -1 11 2 17 5 13 3 -3 4 -12 1 -19z"/>
<path d="M2863 3623 c-18 -7 -16 -43 1 -43 28 0 46 12 46 31 0 19 -20 24 -47
12z"/>
<path d="M4510 3480 c0 -5 -12 -10 -26 -10 -21 0 -25 -4 -22 -22 4 -27 40 -36
59 -15 10 10 23 12 49 6 52 -12 60 -11 60 10 0 15 -11 22 -50 30 -63 14 -70
14 -70 1z"/>
<path d="M5000 3420 c0 -16 7 -20 30 -20 23 0 30 4 30 20 0 16 -7 20 -30 20
-23 0 -30 -4 -30 -20z"/>
<path d="M5200 3390 c0 -13 7 -20 20 -20 13 0 20 7 20 20 0 13 -7 20 -20 20
-13 0 -20 -7 -20 -20z"/>
<path d="M4960 3360 c0 -13 7 -20 20 -20 13 0 20 7 20 20 0 13 -7 20 -20 20
-13 0 -20 -7 -20 -20z"/>
<path d="M3082 3228 c2 -18 11 -24 36 -26 26 -3 32 0 32 16 0 12 -9 22 -22 26
-40 10 -50 7 -46 -16z"/>
<path d="M3160 3220 c0 -13 7 -20 20 -20 13 0 20 7 20 20 0 13 -7 20 -20 20
-13 0 -20 -7 -20 -20z"/>
<path d="M3502 3128 c2 -15 11 -24 26 -26 20 -3 23 0 20 20 -2 15 -11 24 -26
26 -20 3 -23 0 -20 -20z"/>
<path d="M4140 3138 c0 -33 14 -58 31 -58 20 0 23 10 13 48 -7 23 -44 32 -44
10z"/>
<path d="M3950 3111 c0 -16 33 -31 71 -31 20 0 8 38 -13 44 -41 11 -58 7 -58
-13z"/>
<path d="M3300 3100 c0 -13 7 -20 20 -20 13 0 20 7 20 20 0 13 -7 20 -20 20
-13 0 -20 -7 -20 -20z"/>
<path d="M3360 3080 c0 -11 7 -20 15 -20 8 0 15 -4 15 -10 0 -5 9 -10 20 -10
13 0 20 7 20 20 0 11 -7 20 -15 20 -8 0 -15 5 -15 10 0 6 -9 10 -20 10 -13 0
-20 -7 -20 -20z"/>
<path d="M4040 3050 c0 -13 7 -20 20 -20 13 0 20 7 20 20 0 13 -7 20 -20 20
-13 0 -20 -7 -20 -20z"/>
<path d="M4470 3030 c0 -13 7 -20 20 -20 13 0 20 7 20 20 0 13 -7 20 -20 20
-13 0 -20 -7 -20 -20z"/>
<path d="M3250 3010 c0 -13 7 -20 20 -20 13 0 20 7 20 20 0 13 -7 20 -20 20
-13 0 -20 -7 -20 -20z"/>
<path d="M3450 2990 c0 -23 4 -30 20 -30 16 0 20 7 20 30 0 23 -4 30 -20 30
-16 0 -20 -7 -20 -30z"/>
<path d="M3540 2980 c0 -13 7 -20 20 -20 13 0 20 7 20 20 0 13 -7 20 -20 20
-13 0 -20 -7 -20 -20z"/>
<path d="M3920 2970 c0 -13 7 -20 20 -20 13 0 20 7 20 20 0 13 -7 20 -20 20
-13 0 -20 -7 -20 -20z"/>
<path d="M3200 2920 c0 -13 7 -20 20 -20 13 0 20 7 20 20 0 13 -7 20 -20 20
-13 0 -20 -7 -20 -20z"/>
<path d="M3942 2888 c0 -48 12 -68 39 -68 14 0 18 8 17 43 0 47 -12 67 -39 67
-14 0 -18 -8 -17 -42z"/>
<path d="M3121 2911 c-8 -5 -12 -19 -9 -34 3 -16 0 -28 -8 -31 -8 -3 -14 -12
-14 -21 0 -8 -7 -15 -16 -15 -13 0 -15 -7 -10 -31 3 -17 6 -35 6 -40 0 -5 14
-9 30 -9 23 0 30 4 30 20 0 11 -7 20 -15 20 -31 0 -15 29 20 36 34 6 34 6 34
60 -1 56 -13 67 -48 45z"/>
<path d="M3186 2759 c-9 -46 -8 -49 13 -49 21 0 31 19 31 56 0 38 -36 32 -44
-7z"/>
<path d="M3170 2520 c0 -23 4 -30 20 -30 16 0 20 7 20 30 0 23 -4 30 -20 30
-16 0 -20 -7 -20 -30z"/>
<path d="M4190 2420 c0 -13 7 -20 20 -20 13 0 20 7 20 20 0 13 -7 20 -20 20
-13 0 -20 -7 -20 -20z"/>
<path d="M6160 3270 c0 -11 7 -20 15 -20 8 0 15 -4 15 -10 0 -5 9 -10 20 -10
11 0 20 6 20 14 0 32 -13 46 -41 46 -22 0 -29 -5 -29 -20z"/>
<path d="M5760 2590 c0 -13 7 -20 20 -20 13 0 20 7 20 20 0 13 -7 20 -20 20
-13 0 -20 -7 -20 -20z"/>
<path d="M5040 2300 c0 -11 7 -20 15 -20 8 0 15 -4 15 -10 0 -5 9 -10 20 -10
13 0 20 7 20 20 0 11 -7 20 -15 20 -8 0 -15 5 -15 10 0 6 -9 10 -20 10 -13 0
-20 -7 -20 -20z"/>
<path d="M4980 2220 c0 -13 7 -20 20 -20 13 0 20 7 20 20 0 13 -7 20 -20 20
-13 0 -20 -7 -20 -20z"/>
<path d="M5050 2210 c0 -23 4 -30 20 -30 16 0 20 7 20 30 0 23 -4 30 -20 30
-16 0 -20 -7 -20 -30z"/>
<path d="M5020 2140 c0 -23 4 -30 20 -30 16 0 20 7 20 30 0 23 -4 30 -20 30
-16 0 -20 -7 -20 -30z"/>
<path d="M2720 1100 c0 -11 -4 -20 -10 -20 -5 0 -10 -9 -10 -20 0 -16 7 -20
36 -20 36 0 36 1 30 31 -3 17 -6 35 -6 40 0 5 -9 9 -20 9 -13 0 -20 -7 -20
-20z"/>
</g>
</svg>
