<?xml version="1.0" standalone="no"?>
<!DOCTYPE svg PUBLIC "-//W3C//DTD SVG 20010904//EN"
 "http://www.w3.org/TR/2001/REC-SVG-20010904/DTD/svg10.dtd">
<svg version="1.0" xmlns="http://www.w3.org/2000/svg"
 width="534.000000pt" height="381.000000pt" viewBox="0 0 534.000000 381.000000"
 preserveAspectRatio="xMidYMid meet">
<metadata>
Created by potrace 1.13, written by Peter Selinger 2001-2015
</metadata>
<g transform="translate(0.000000,381.000000) scale(0.100000,-0.100000)"
fill="#000000" stroke="none">
<path d="M5180 3756 c0 -8 13 -36 29 -61 77 -122 65 -322 -27 -422 -43 -47
-139 -93 -196 -93 -48 0 -57 23 -43 109 8 55 8 90 -2 149 -20 118 -110 272
-160 272 -27 0 -27 -19 3 -77 53 -103 70 -175 63 -252 -6 -76 -29 -114 -85
-142 -24 -13 -56 -40 -70 -61 -46 -65 -140 -92 -218 -62 -24 9 -44 20 -44 24
0 13 -91 53 -140 62 -25 4 -76 13 -115 19 -38 7 -72 15 -75 19 -3 4 -41 12
-85 19 -44 7 -113 20 -153 28 -56 12 -76 12 -87 3 -8 -6 -19 -9 -25 -5 -23 14
-209 14 -255 1 -34 -11 -97 -13 -264 -9 -173 4 -232 1 -282 -11 -35 -8 -89
-20 -119 -26 -30 -7 -73 -18 -95 -25 -65 -22 -120 -26 -442 -30 -234 -3 -328
-8 -393 -21 -129 -25 -158 -27 -271 -13 -57 7 -130 13 -161 13 -32 1 -58 3
-58 6 0 3 -33 6 -74 7 -41 0 -90 6 -109 12 -41 14 -365 7 -482 -10 -219 -31
-333 -26 -358 18 -5 8 -21 13 -35 12 -15 -1 -39 1 -53 5 -41 12 -93 -6 -97
-33 -2 -12 -10 -25 -18 -28 -8 -3 -14 -13 -14 -23 0 -10 -7 -25 -15 -34 -9 -8
-20 -44 -25 -78 -4 -35 -18 -90 -29 -123 -39 -115 -44 -142 -37 -211 3 -38 5
-109 4 -159 -4 -138 -1 -240 11 -360 5 -60 13 -214 17 -341 5 -191 3 -233 -8
-245 -8 -8 -20 -36 -28 -64 -7 -27 -16 -54 -21 -60 -4 -5 -10 -36 -14 -67 -7
-55 -6 -58 14 -58 13 0 21 6 21 18 0 31 22 95 28 85 4 -6 24 -14 45 -18 30 -6
37 -11 37 -31 0 -13 -4 -24 -9 -24 -5 0 -11 -12 -13 -27 -2 -14 -9 -28 -16
-31 -10 -3 -12 4 -7 32 6 31 5 36 -13 36 -16 0 -22 -11 -31 -60 -10 -50 -15
-60 -33 -60 -18 0 -20 -4 -14 -32 3 -18 12 -35 18 -39 9 -6 8 -25 -1 -78 -12
-66 -8 -151 7 -151 4 0 6 -44 4 -97 -3 -84 7 -163 26 -197 2 -4 5 -46 6 -91 0
-46 4 -86 7 -90 4 -3 23 -3 43 0 32 7 36 11 36 38 0 31 0 31 16 9 8 -12 23
-22 33 -22 16 0 18 11 20 110 1 60 7 126 15 147 26 75 39 186 27 228 -7 26 -7
41 -1 43 13 5 13 77 -1 125 -7 27 -7 53 0 87 12 53 1 142 -18 148 -6 2 -11 11
-11 20 0 8 -7 23 -15 32 -15 17 -41 227 -30 239 3 2 5 -3 5 -12 0 -9 7 -33 16
-54 21 -48 27 -63 58 -142 14 -35 39 -76 56 -92 16 -16 30 -33 30 -38 0 -5 12
-23 26 -40 23 -27 26 -39 26 -109 0 -93 -10 -152 -29 -170 -19 -19 -16 -104 6
-165 36 -96 46 -122 52 -127 15 -12 24 -257 13 -325 -15 -83 -8 -220 12 -252
8 -13 23 -23 34 -23 16 0 20 -7 20 -30 0 -20 6 -33 18 -37 9 -4 19 -9 22 -13
11 -14 130 -42 157 -37 83 16 98 23 101 45 2 12 -5 34 -16 49 -11 16 -27 45
-36 66 -10 26 -25 42 -45 50 -21 8 -31 19 -34 41 -3 17 -10 51 -17 76 -21 80
3 245 50 347 11 24 20 47 20 52 0 5 7 14 15 21 8 7 15 21 15 31 0 11 5 19 10
19 6 0 10 9 10 20 0 11 7 23 15 26 8 4 15 11 15 18 0 6 9 17 20 24 11 7 20 19
20 27 0 8 4 15 8 15 12 0 62 105 62 131 0 42 18 89 42 108 l23 19 12 -41 c10
-34 10 -51 -2 -91 -23 -77 -19 -96 31 -166 50 -67 121 -206 144 -279 8 -24 20
-45 27 -48 7 -3 13 -10 13 -16 0 -6 7 -18 16 -28 8 -9 23 -50 33 -90 31 -122
70 -209 108 -239 12 -9 27 -29 33 -44 12 -34 35 -42 142 -50 118 -9 138 -3
138 41 0 22 -7 42 -18 52 -11 9 -30 36 -43 61 -15 27 -38 51 -57 60 -17 8 -34
22 -37 30 -3 8 -20 39 -39 67 -19 29 -49 92 -68 140 -30 82 -33 96 -32 203 1
93 6 129 25 185 18 53 24 92 24 161 l0 91 36 -12 c20 -7 54 -22 77 -34 23 -12
54 -21 70 -21 16 0 45 -10 64 -22 18 -13 52 -31 73 -41 22 -10 53 -25 68 -33
16 -8 35 -14 43 -14 8 0 14 -6 14 -13 0 -22 36 -49 61 -45 16 2 26 15 37 51
13 42 18 47 44 47 26 0 55 6 206 40 61 14 195 12 298 -4 49 -8 138 -23 199
-32 60 -9 123 -25 140 -35 46 -27 162 -69 192 -69 l26 0 -6 -124 c-5 -112 -3
-131 19 -202 29 -96 29 -104 3 -255 -27 -149 -20 -247 19 -264 12 -5 22 -17
22 -26 0 -19 44 -59 65 -59 8 0 15 5 15 11 0 33 74 52 82 21 4 -15 -1 -17 -34
-14 -32 4 -38 1 -38 -16 0 -14 9 -21 31 -26 46 -9 172 -7 188 3 19 12 8 48
-34 110 l-35 51 26 0 c14 0 33 -9 42 -20 15 -17 31 -20 123 -22 87 -3 108 0
122 14 24 24 21 42 -15 92 -18 25 -41 56 -51 70 -10 15 -28 26 -40 26 -14 0
-30 12 -43 33 -51 80 -52 199 -2 327 17 41 32 101 35 133 3 31 11 57 17 58 6
0 72 1 146 3 142 3 175 12 275 76 17 11 47 27 68 37 20 10 37 23 37 30 0 7 5
13 11 13 30 0 71 87 89 185 6 39 24 95 38 125 29 62 32 118 12 253 -10 64 -10
105 -1 182 19 161 29 217 40 228 6 6 11 19 11 29 0 10 5 18 10 18 6 0 10 7 10
15 0 19 57 55 86 55 12 0 38 -7 57 -15 48 -20 92 -19 159 3 39 13 62 16 82 9
17 -6 50 -5 90 2 91 16 115 14 151 -13 49 -38 118 -43 199 -16 89 29 109 55
104 134 -4 50 -9 62 -32 78 -14 11 -40 50 -57 87 -16 36 -34 74 -39 83 -31 55
-54 133 -61 203 -10 103 -19 146 -33 165 -7 8 -18 26 -24 40 -7 14 -21 39 -31
55 -25 39 -26 55 -2 55 33 0 155 68 197 109 138 137 162 416 52 601 -26 42
-39 56 -61 58 -19 2 -27 -1 -27 -12z m-1390 -555 c0 -10 -7 -21 -15 -25 -11
-4 -15 1 -15 19 0 16 6 25 15 25 8 0 15 -9 15 -19z m-210 -6 c0 -8 -7 -15 -15
-15 -13 0 -14 3 -3 15 16 18 18 18 18 0z m418 -24 c62 -13 132 -14 132 -3 0
14 143 -9 170 -26 14 -10 43 -25 65 -34 22 -9 32 -17 23 -17 -25 -1 -24 -41 1
-41 11 0 21 4 23 9 4 12 95 -18 134 -44 20 -13 47 -19 86 -20 39 0 62 -5 73
-16 15 -15 11 -17 -44 -22 -60 -7 -100 3 -129 30 -26 25 -92 36 -131 21 -31
-12 -36 -19 -39 -49 -3 -33 -5 -35 -33 -31 -21 3 -34 -1 -44 -14 -17 -23 -20
-11 -4 15 7 10 9 30 5 44 -5 22 -12 27 -36 27 -17 0 -30 5 -30 10 0 14 46 60
60 60 5 0 10 9 10 20 0 22 -28 27 -61 10 -15 -8 -19 -7 -19 5 0 23 -35 18 -69
-11 -17 -14 -31 -21 -31 -15 0 20 -42 12 -47 -9 -6 -21 -23 -28 -23 -9 0 14
-72 2 -82 -14 -5 -7 -5 3 -2 21 6 30 5 32 -22 33 l-29 2 28 4 c39 6 37 44 -2
61 -20 9 -28 18 -24 28 5 13 8 13 22 1 9 -8 40 -20 69 -26z m-608 4 c0 -8 -4
-15 -10 -15 -5 0 -10 4 -10 9 0 5 -12 12 -27 14 -23 3 -21 4 10 6 27 1 37 -3
37 -14z m1800 0 c-7 -8 -18 -15 -24 -15 -6 0 -2 7 8 15 25 19 32 19 16 0z
m-1972 0 c12 -3 22 -12 22 -20 0 -8 9 -15 20 -15 11 0 20 -4 20 -9 0 -5 12
-12 28 -16 l27 -8 -25 -7 c-14 -4 -35 -13 -47 -20 -18 -12 -23 -11 -37 3 -9 8
-16 20 -16 26 0 19 -56 12 -76 -10 -15 -17 -27 -20 -59 -16 -22 3 -60 2 -85
-2 -44 -7 -45 -7 -45 20 0 22 6 29 28 33 17 4 27 12 27 23 0 16 12 18 98 21
53 1 107 0 120 -3z m1607 -5 c-3 -5 -11 -10 -16 -10 -6 0 -7 5 -4 10 3 6 11
10 16 10 6 0 7 -4 4 -10z m-1386 -62 c-1 -17 -3 -18 -6 -5 -2 9 -9 17 -14 17
-5 0 -9 9 -9 21 0 18 2 19 15 5 8 -8 14 -25 14 -38z m-539 33 c0 -5 -34 -15
-75 -22 -41 -6 -75 -16 -75 -20 0 -5 -5 -9 -11 -9 -6 0 -9 6 -7 12 3 7 24 17
49 21 45 9 112 24 117 26 1 0 2 -3 2 -8z m2205 -37 c-30 -24 -83 -38 -107 -29
-8 3 -46 -2 -84 -12 -72 -20 -108 -19 -101 0 5 15 63 43 123 59 38 10 48 10
51 1 6 -18 30 -16 88 6 58 22 73 10 30 -25z m-4198 30 c-3 -3 -12 -4 -19 -1
-8 3 -5 6 6 6 11 1 17 -2 13 -5z m1565 -4 c2 -6 33 -13 69 -16 62 -6 65 -8 61
-30 -3 -19 -11 -23 -45 -26 -35 -3 -42 -7 -47 -28 l-6 -25 -12 23 c-15 26 -48
29 -56 4 -3 -9 -15 -23 -26 -30 -17 -10 -20 -10 -20 3 0 20 -39 20 -46 0 -4
-8 -15 -15 -25 -15 -10 0 -19 -7 -19 -15 0 -8 -4 -15 -10 -15 -5 0 -10 9 -10
20 0 13 -7 20 -19 20 -11 0 -23 -9 -26 -20 -7 -24 -30 -26 -42 -5 -5 8 -30 18
-56 21 -46 7 -47 6 -47 -19 0 -23 -38 -77 -54 -77 -3 0 -3 25 0 55 6 50 5 55
-13 55 -11 0 -28 -9 -38 -20 -10 -11 -23 -20 -28 -20 -6 0 -3 8 6 18 37 41 6
72 -35 35 -11 -9 -18 -11 -18 -5 0 7 -9 12 -20 12 -11 0 -20 5 -20 11 0 7 -10
9 -25 7 -14 -3 -25 -1 -25 3 0 5 -7 9 -15 9 -8 0 -15 4 -15 9 0 4 42 11 93 14
50 4 101 9 113 12 13 4 27 0 37 -9 21 -21 44 -20 56 2 10 16 10 16 11 0 0 -13
8 -18 32 -18 30 0 86 14 118 30 9 4 30 11 48 15 18 3 32 11 32 16 0 12 137 12
142 -1z m-1671 -19 c-21 -19 -51 -19 -51 -1 0 11 19 18 49 19 l24 1 -22 -19z
m332 2 c-7 -2 -19 -2 -25 0 -7 3 -2 5 12 5 14 0 19 -2 13 -5z m2237 -33 c0 -5
-2 -10 -4 -10 -3 0 -8 5 -11 10 -3 6 -1 10 4 10 6 0 11 -4 11 -10z m510 3 c-8
-3 -23 -12 -32 -21 -16 -14 -18 -13 -18 1 0 15 18 24 50 25 13 0 13 0 0 -5z
m-3388 -21 c-7 -2 -12 -12 -12 -22 0 -12 -10 -20 -34 -24 -22 -4 -36 -13 -39
-26 -4 -17 -14 -20 -54 -20 -27 0 -54 -5 -61 -12 -9 -9 -12 -8 -12 4 0 9 5 20
10 23 6 3 10 14 10 24 0 20 35 31 94 31 17 0 44 9 60 19 17 11 34 17 40 14 6
-4 6 -8 -2 -11z m125 4 c6 -4 -31 -66 -40 -66 -7 0 -7 4 1 12 21 21 14 48 -12
48 -14 0 -28 5 -31 10 -4 7 8 8 37 4 24 -4 44 -7 45 -8z m1013 3 c0 -8 18 -10
53 -7 l52 4 1 -48 c0 -26 -3 -48 -8 -48 -4 0 -8 12 -8 26 0 23 -3 26 -25 22
-17 -4 -25 -1 -25 8 0 8 -8 14 -18 14 -19 0 -42 18 -42 32 0 4 5 8 10 8 6 0
10 -5 10 -11z m1090 -5 c0 -11 -5 -14 -16 -10 -9 3 -28 6 -42 6 -21 0 -24 2
-12 10 25 16 70 12 70 -6z m470 6 c0 -5 -5 -10 -11 -10 -5 0 -7 5 -4 10 3 6 8
10 11 10 2 0 4 -4 4 -10z m1000 -15 c-7 -8 -17 -15 -22 -15 -6 0 -5 7 2 15 7
8 17 15 22 15 6 0 5 -7 -2 -15z m-1061 -47 c-1 -7 -5 -24 -9 -38 -7 -23 -8
-23 -9 -3 -1 12 -6 23 -13 25 -15 5 -1 28 18 28 8 0 14 -6 13 -12z m-1268 -21
c-10 -9 -11 -8 -5 6 3 10 9 15 12 12 3 -3 0 -11 -7 -18z m-61 3 c0 -5 -4 -10
-10 -10 -5 0 -10 5 -10 10 0 6 5 10 10 10 6 0 10 -4 10 -10z m471 -83 c-13
-13 -15 1 -4 30 7 17 8 17 11 -1 2 -10 -1 -23 -7 -29z m1576 -19 c-3 -8 -6 -5
-6 6 -1 11 2 17 5 13 3 -3 4 -12 1 -19z m1109 -42 c17 -13 13 -13 -30 -5 -61
11 -71 19 -25 19 20 0 44 -6 55 -14z m144 -326 c4 -14 20 -55 34 -93 14 -37
26 -70 26 -72 0 -7 -55 -6 -74 1 -9 3 -16 14 -16 24 0 10 -4 20 -8 22 -15 6
-52 66 -52 85 0 10 -5 24 -11 30 -8 8 -3 13 19 18 26 5 31 12 37 48 l6 42 15
-40 c8 -22 19 -51 24 -65z m-309 -11 c23 -24 34 -30 54 -25 27 7 35 40 13 49
-7 3 -3 6 8 6 17 1 23 -6 26 -29 4 -26 1 -30 -19 -30 -16 0 -23 -6 -23 -19 0
-14 10 -20 43 -26 41 -7 41 -7 15 -17 l-27 -9 3 -102 c2 -56 1 -94 -1 -84 -3
11 -14 17 -35 17 -37 0 -108 20 -108 30 0 5 -11 11 -25 14 -14 4 -25 13 -25
22 0 9 -8 18 -18 21 -18 4 -18 8 -5 66 8 34 19 64 24 65 5 2 9 10 9 17 0 8 10
15 23 17 14 2 23 11 25 26 4 29 8 28 43 -9z m-152 -46 c0 -35 -1 -36 -10 -14
-5 14 -7 31 -5 38 10 24 16 13 15 -24z m-2629 -72 c0 -11 5 -21 12 -23 17 -6
0 -28 -21 -28 -18 0 -35 45 -24 62 9 16 33 7 33 -11z m3001 -51 c10 0 19 -7
19 -15 0 -9 -9 -15 -25 -15 -21 0 -25 5 -24 28 0 15 3 21 6 15 2 -7 13 -13 24
-13z m-2931 -32 c0 -10 5 -18 10 -18 6 0 10 -17 10 -37 l-1 -38 -19 55 c-22
62 -27 96 -10 70 5 -8 10 -23 10 -32z m207 -35 c-3 -10 -5 -4 -5 12 0 17 2 24
5 18 2 -7 2 -21 0 -30z m1563 22 c0 -8 -4 -15 -10 -15 -5 0 -10 7 -10 15 0 8
5 15 10 15 6 0 10 -7 10 -15z m1130 -5 c0 -5 -8 -10 -17 -10 -15 0 -16 2 -3
10 19 12 20 12 20 0z m-2303 -22 c-3 -8 -6 -5 -6 6 -1 11 2 17 5 13 3 -3 4
-12 1 -19z m2344 -91 c-8 -8 -11 -4 -11 14 0 33 14 47 18 19 2 -12 -1 -27 -7
-33z m-2581 18 c0 -14 -4 -25 -10 -25 -5 0 -10 11 -10 25 0 14 5 25 10 25 6 0
10 -11 10 -25z m-376 -27 c14 -9 1 -22 -13 -13 -6 3 -11 16 -10 28 0 15 2 17
6 7 3 -8 11 -18 17 -22z m1277 -18 c5 0 9 -7 9 -15 0 -17 -9 -19 -29 -6 -10 6
-11 18 -5 42 8 34 8 34 12 7 2 -16 8 -28 13 -28z m82 13 c-7 -2 -19 -2 -25 0
-7 3 -2 5 12 5 14 0 19 -2 13 -5z m-1473 -28 c0 -8 -4 -15 -10 -15 -5 0 -7 7
-4 15 4 8 8 15 10 15 2 0 4 -7 4 -15z m-1801 -272 l-2 -88 -8 75 c-9 70 -7
100 6 100 3 0 4 -39 4 -87z m3952 -247 c-4 -23 -6 -26 -9 -11 -2 11 -9 24 -16
28 -8 6 -8 10 2 14 6 2 12 12 13 21 0 14 2 14 8 -2 4 -10 5 -33 2 -50z m-2661
8 c0 -2 -7 -4 -15 -4 -8 0 -15 4 -15 10 0 5 7 7 15 4 8 -4 15 -8 15 -10z
m2706 -121 c10 -48 11 -153 2 -153 -5 0 -8 -10 -8 -23 0 -31 -27 -67 -50 -67
-19 0 -40 -50 -40 -97 0 -32 -21 -73 -37 -73 -7 0 -13 7 -13 15 0 8 -9 15 -20
15 -15 0 -20 -7 -20 -29 0 -28 -3 -30 -46 -37 -33 -5 -48 -12 -51 -25 -9 -32
-63 -20 -63 13 0 21 22 48 39 48 6 0 11 9 11 21 0 24 22 49 44 49 9 0 16 11
18 28 2 19 9 28 26 30 13 2 26 11 29 20 4 9 14 25 24 35 10 9 21 39 25 66 5
37 11 51 25 54 11 3 19 14 19 26 0 15 6 21 24 21 21 0 24 6 30 50 8 59 21 64
32 13z m-3986 23 c0 -3 -4 -8 -10 -11 -5 -3 -10 -1 -10 4 0 6 5 11 10 11 6 0
10 -2 10 -4z m1350 -47 c0 -4 -11 -9 -25 -11 -14 -3 -25 -1 -25 3 0 5 7 9 15
9 8 0 15 8 15 18 0 14 2 15 10 2 5 -8 10 -18 10 -21z m-292 -15 c18 -8 34 -20
38 -26 4 -6 -1 -6 -14 1 -11 6 -32 11 -46 11 -16 0 -26 6 -26 15 0 19 9 19 48
-1z m229 -46 c-3 -8 -6 -5 -6 6 -1 11 2 17 5 13 3 -3 4 -12 1 -19z m2503 -8
c0 -11 -2 -20 -4 -20 -2 0 -6 9 -9 20 -3 11 -1 20 4 20 5 0 9 -9 9 -20z
m-2562 -10 c23 0 42 -4 42 -10 0 -5 -19 -10 -43 -10 -24 0 -48 -5 -54 -11 -8
-8 -15 -5 -24 9 -8 10 -21 22 -29 26 -8 3 3 4 25 1 22 -3 59 -5 83 -5z m862 0
c0 -5 -5 -10 -11 -10 -7 0 -20 -10 -30 -22 l-19 -21 0 21 c0 13 6 22 15 22 8
0 15 5 15 10 0 6 7 10 15 10 8 0 15 -4 15 -10z m-569 -57 c35 0 59 5 59 11 0
6 7 3 14 -6 7 -10 18 -18 25 -18 6 0 11 -4 11 -10 0 -5 -5 -10 -11 -10 -7 0
-20 -10 -31 -22 -18 -21 -21 -21 -31 -7 -7 9 -26 18 -44 22 -47 9 -72 38 -64
73 l6 29 3 -31 c3 -30 3 -31 63 -31z m1960 -3 c10 0 19 7 19 15 0 8 5 15 11
15 8 0 9 -18 4 -57 -10 -84 -26 -143 -39 -143 -6 0 -24 -24 -40 -53 -15 -28
-44 -81 -63 -117 -20 -36 -44 -87 -54 -115 -16 -46 -18 -47 -18 -19 -1 24 -7
34 -23 39 l-23 8 23 4 c15 3 22 12 22 28 0 12 7 25 15 29 21 7 19 34 -5 79
-19 34 -19 37 -3 37 10 0 35 5 57 11 l39 11 -6 49 c-3 27 -13 56 -20 64 -10
10 -13 28 -10 60 4 30 2 45 -6 45 -6 0 -11 5 -11 10 0 6 9 10 20 10 13 0 20 7
20 18 0 32 11 32 42 2 16 -17 38 -30 49 -30z m280 40 c5 0 -6 -16 -25 -35 -42
-41 -56 -44 -56 -10 0 18 5 25 20 25 12 0 20 7 20 16 0 11 5 14 16 10 9 -3 20
-6 25 -6z m-1331 -15 c0 -8 7 -15 15 -15 8 0 19 -9 25 -20 6 -11 17 -20 24
-20 19 0 64 -92 48 -98 -7 -2 -12 -10 -12 -18 0 -11 -6 -11 -27 -3 -15 5 -36
8 -48 5 -26 -6 -64 39 -40 48 17 6 21 81 5 91 -5 3 -10 15 -10 26 0 10 5 19
10 19 6 0 10 -7 10 -15z m300 -52 c0 -5 -5 -15 -10 -23 -8 -12 -10 -11 -10 8
0 12 5 22 10 22 6 0 10 -3 10 -7z m-785 -21 c-3 -3 -11 0 -18 7 -9 10 -8 11 6
5 10 -3 15 -9 12 -12z m-85 3 c0 -14 -35 -42 -47 -38 -11 4 -10 9 4 24 17 16
43 25 43 14z m750 -21 c20 -52 0 -50 -29 4 -10 18 -9 22 4 22 8 0 20 -12 25
-26z m-553 10 c-3 -3 -12 -4 -19 -1 -8 3 -5 6 6 6 11 1 17 -2 13 -5z m285 -39
c15 -20 8 -45 -12 -45 -13 0 -20 7 -20 20 0 11 -7 20 -15 20 -8 0 -15 4 -15 8
0 11 54 9 62 -3z m470 -64 c23 -30 7 -41 -20 -14 -15 14 -18 26 -14 53 5 30 7
31 10 10 2 -13 13 -36 24 -49z m-679 42 c-7 -2 -19 -2 -25 0 -7 3 -2 5 12 5
14 0 19 -2 13 -5z m1814 -40 c-3 -10 -5 -4 -5 12 0 17 2 24 5 18 2 -7 2 -21 0
-30z m-2097 17 l25 -8 -25 -1 c-14 0 -32 4 -40 9 -13 9 -13 10 0 9 8 -1 26 -5
40 -9z m1050 -10 c0 -17 -28 -18 -33 -1 -3 14 0 17 14 14 11 -3 19 -9 19 -13z
m1073 -86 c-8 -21 -33 -17 -33 5 0 14 5 18 19 14 12 -3 17 -11 14 -19z m-3976
-122 c-8 -10 -17 -24 -20 -32 -5 -13 -6 -13 -6 1 -1 8 7 38 17 65 l17 49 3
-33 c2 -19 -3 -41 -11 -50z m3733 14 c0 -2 -7 -6 -15 -10 -8 -3 -15 -1 -15 4
0 6 7 10 15 10 8 0 15 -2 15 -4z m-708 -68 c0 -69 -3 -81 -11 -38 -6 36 -2
105 6 96 3 -2 5 -28 5 -58z m-1911 -108 c14 0 11 -36 -4 -49 -21 -17 -37 7
-37 55 0 49 23 67 28 22 2 -15 7 -28 13 -28z m29 -125 c0 -8 -4 -15 -9 -15 -5
0 -11 7 -15 15 -3 9 0 15 9 15 8 0 15 -7 15 -15z m27 -37 c-3 -8 -6 -5 -6 6
-1 11 2 17 5 13 3 -3 4 -12 1 -19z m39 -81 c0 -29 4 -52 10 -54 6 -2 9 -14 7
-28 -4 -16 1 -27 16 -37 12 -7 21 -18 21 -25 0 -7 6 -16 13 -20 7 -4 18 -21
25 -36 15 -34 16 -111 2 -102 -5 3 -10 14 -10 24 0 10 -8 21 -18 23 -17 5 -31
29 -82 142 -18 37 -20 50 -10 56 8 5 10 18 6 36 -19 79 -19 83 2 77 17 -4 20
-13 18 -56z m-759 -87 c-10 -57 -13 -61 -18 -35 -11 52 -9 135 4 155 11 19 13
18 19 -17 4 -21 2 -67 -5 -103z m2834 40 c5 0 9 -9 9 -19 0 -11 4 -21 10 -23
5 -1 16 -28 24 -58 19 -74 19 -72 17 -100 -1 -21 -6 -26 -28 -25 -37 0 -53 24
-59 88 -2 28 -10 81 -17 117 -12 57 -12 68 2 90 l16 24 9 -47 c4 -26 12 -47
17 -47z m-79 -96 c4 -21 7 -74 7 -116 1 -42 5 -79 10 -82 5 -3 11 -17 13 -30
4 -17 1 -23 -9 -19 -7 3 -13 13 -13 23 0 11 -4 21 -9 24 -14 9 -39 180 -33
224 5 35 26 20 34 -24z m-2755 -66 c-3 -8 -6 -5 -6 6 -1 11 2 17 5 13 3 -3 4
-12 1 -19z m-61 -91 c18 -49 18 -57 -5 -57 -14 0 -20 10 -25 46 -3 26 -6 63
-5 83 l1 36 10 -35 c6 -19 16 -52 24 -73z m2663 53 c9 0 22 5 29 12 9 9 12 -4
12 -59 0 -66 2 -72 21 -75 33 -5 46 -32 27 -52 -20 -19 -48 -11 -48 14 0 32
-11 50 -31 50 -14 0 -19 7 -19 25 0 14 -4 25 -9 25 -14 0 -23 37 -15 63 4 12
9 17 11 10 3 -7 12 -13 22 -13z m387 -130 c2 0 4 -5 4 -11 0 -8 -14 -10 -41
-6 -47 6 -54 11 -45 32 5 14 9 14 42 0 20 -8 38 -15 40 -15z m-1982 -43 c6 -5
2 -6 -9 -2 -11 4 -32 10 -47 14 -17 4 -25 10 -20 17 13 21 37 21 51 0 8 -12
20 -25 25 -29z m1573 47 c-3 -3 -12 -4 -19 -1 -8 3 -5 6 6 6 11 1 17 -2 13 -5z
m-2513 -119 c19 -15 19 -15 -1 -15 -12 0 -29 3 -38 6 -13 5 -14 8 -3 15 17 11
20 11 42 -6z"/>
<path d="M4320 3040 c0 -13 7 -20 20 -20 13 0 20 7 20 20 0 13 -7 20 -20 20
-13 0 -20 -7 -20 -20z"/>
</g>
</svg>
