<?xml version="1.0" standalone="no"?>
<!DOCTYPE svg PUBLIC "-//W3C//DTD SVG 20010904//EN"
 "http://www.w3.org/TR/2001/REC-SVG-20010904/DTD/svg10.dtd">
<svg version="1.0" xmlns="http://www.w3.org/2000/svg"
 width="508.000000pt" height="487.000000pt" viewBox="0 0 508.000000 487.000000"
 preserveAspectRatio="xMidYMid meet">
<metadata>
Created by potrace 1.13, written by Peter Selinger 2001-2015
</metadata>
<g transform="translate(0.000000,487.000000) scale(0.100000,-0.100000)"
fill="#000000" stroke="none">
<path d="M1599 4649 c-3 -55 5 -135 16 -169 3 -11 2 -20 -3 -20 -5 0 -10 -15
-11 -32 -4 -56 -7 -73 -15 -87 -10 -15 -96 -55 -113 -52 -7 1 -13 -3 -13 -9 0
-5 -3 -10 -7 -9 -13 2 -53 -13 -53 -20 0 -3 -12 -7 -28 -8 -40 -4 -56 -8 -69
-16 -7 -5 -13 -5 -13 -2 0 3 -10 -1 -21 -9 -34 -23 -83 -176 -58 -176 6 0 36
-25 67 -56 48 -48 132 -97 132 -77 0 3 6 1 13 -4 6 -6 20 -9 29 -8 9 2 23 -4
30 -12 7 -8 35 -25 63 -38 28 -12 68 -33 90 -47 38 -24 40 -28 40 -72 -1 -26
3 -50 7 -52 4 -3 8 -15 8 -27 0 -13 6 -31 13 -42 14 -22 15 -127 2 -220 -5
-33 -8 -63 -7 -67 1 -5 -2 -8 -8 -8 -5 0 -7 -7 -4 -15 4 -8 1 -15 -6 -15 -6 0
-9 -4 -5 -9 3 -5 1 -12 -5 -16 -6 -4 -8 -10 -5 -15 3 -5 1 -11 -5 -15 -6 -4
-8 -11 -5 -16 4 -5 2 -9 -4 -9 -5 0 -11 -8 -12 -17 -2 -20 0 -200 2 -223 1 -8
-1 -28 -5 -45 -13 -52 -16 -175 -5 -175 6 0 8 -4 5 -8 -3 -5 1 -20 9 -35 7
-14 11 -27 9 -30 -2 -2 7 -26 21 -53 29 -58 30 -63 9 -112 -8 -20 -16 -39 -16
-42 -1 -3 -8 -11 -15 -18 -7 -7 -13 -20 -13 -28 0 -8 -4 -14 -10 -14 -5 0 -7
-6 -4 -14 3 -7 -1 -16 -9 -19 -8 -3 -20 -27 -26 -54 -7 -26 -17 -53 -22 -59
-5 -7 -12 -22 -14 -33 -2 -12 -13 -34 -24 -50 -12 -16 -21 -34 -21 -40 0 -6
-4 -11 -10 -11 -5 0 -10 -7 -10 -15 0 -8 -11 -21 -23 -30 -13 -8 -30 -26 -37
-40 -7 -14 -17 -25 -22 -25 -5 0 -19 -9 -31 -20 -14 -14 -30 -19 -49 -16 -15
2 -28 0 -28 -5 0 -6 -6 -7 -12 -2 -15 9 -108 12 -108 3 0 -3 -12 -7 -27 -8
-15 -1 -36 -11 -47 -21 -19 -19 -19 -20 10 -48 52 -51 125 -107 142 -110 37
-7 48 -7 85 1 20 5 37 12 37 16 0 11 25 7 41 -7 36 -28 55 -24 75 14 10 21 24
41 29 45 6 4 7 8 3 8 -12 0 52 100 63 100 6 0 7 5 4 10 -3 6 0 16 7 24 25 27
48 56 48 63 0 15 52 73 61 68 5 -4 9 -1 9 6 0 7 3 10 6 6 6 -6 34 16 34 28 0
3 8 15 18 25 18 19 18 18 17 -35 0 -33 -6 -62 -15 -72 -9 -10 -16 -28 -17 -41
-1 -12 -9 -29 -18 -38 -9 -9 -14 -21 -12 -27 2 -7 -5 -20 -14 -31 -10 -10 -16
-22 -14 -26 3 -4 -6 -15 -19 -24 -13 -8 -27 -28 -31 -45 -5 -22 -13 -30 -38
-36 -18 -4 -35 -7 -39 -6 -5 0 -8 -4 -8 -9 0 -6 -6 -10 -12 -8 -16 3 -70 -26
-86 -45 -19 -22 -4 -44 34 -51 19 -4 34 -11 34 -15 0 -15 29 -23 118 -35 12
-2 25 1 28 5 3 5 25 8 49 7 44 -1 83 21 70 42 -3 5 -2 10 4 10 6 0 8 7 5 15
-4 8 -2 15 3 15 9 0 40 78 36 91 -1 3 9 37 23 75 14 38 28 77 31 87 3 9 10 17
15 17 6 0 8 7 4 15 -3 8 -1 15 4 15 6 0 10 4 10 10 0 5 12 22 28 38 38 41 62
71 62 79 0 3 11 20 24 37 13 17 23 35 24 40 0 5 4 12 9 15 4 3 17 23 27 44 11
20 25 37 32 37 18 0 75 -59 147 -155 21 -27 44 -53 52 -58 8 -4 15 -13 15 -18
0 -10 52 -63 125 -129 38 -34 57 -58 72 -90 4 -8 14 -20 22 -27 9 -7 12 -13 7
-13 -15 0 48 -45 64 -45 8 0 21 -4 28 -8 6 -5 12 -5 12 -1 0 4 9 -3 20 -16 11
-13 20 -19 20 -15 0 5 5 4 12 -3 7 -7 20 -12 30 -12 10 0 18 -4 18 -8 0 -13
75 -52 99 -52 11 0 21 -5 21 -10 0 -6 3 -9 8 -8 4 0 24 -6 45 -16 26 -11 37
-23 38 -39 1 -12 3 -31 5 -42 2 -11 6 -29 8 -40 2 -11 8 -31 13 -45 6 -14 9
-28 6 -32 -2 -5 1 -8 6 -8 6 0 10 -3 9 -8 -4 -11 35 -72 46 -72 5 0 -3 -9 -18
-21 -14 -11 -24 -24 -21 -29 3 -5 1 -11 -5 -15 -14 -9 -13 -51 3 -62 6 -6 20
-9 30 -8 10 2 21 -3 24 -11 9 -25 45 -15 80 22 18 20 32 30 31 23 -2 -8 -5
-16 -8 -19 -3 -3 -12 -19 -21 -36 -16 -29 -16 -33 1 -46 9 -9 23 -18 31 -21 9
-3 10 -6 2 -6 -7 -1 -10 -8 -7 -16 4 -8 1 -15 -6 -15 -6 0 -10 -6 -7 -12 4
-14 -46 -68 -63 -68 -5 0 -10 -7 -10 -15 0 -8 -7 -15 -15 -15 -7 0 -18 -8 -24
-17 -5 -10 -12 -17 -15 -16 -8 4 -96 -59 -96 -69 0 -4 -4 -8 -10 -8 -5 0 -19
-8 -29 -17 -11 -9 -30 -18 -43 -20 -13 -2 -24 -8 -26 -13 -2 -6 -10 -10 -18
-10 -8 0 -14 -5 -14 -11 0 -6 -6 -9 -14 -6 -8 3 -17 3 -20 -1 -8 -7 -30 -12
-68 -14 -16 0 -28 -4 -28 -7 0 -6 -29 -12 -72 -14 -10 -1 -18 -7 -18 -14 0 -7
-6 -13 -12 -13 -7 0 -5 -5 5 -11 9 -6 15 -14 13 -18 -3 -4 4 -14 16 -22 11 -8
26 -20 34 -27 7 -6 17 -12 22 -12 5 0 19 -9 32 -20 13 -11 29 -20 35 -20 7 0
18 -7 25 -15 7 -9 16 -12 19 -8 12 16 74 33 86 23 17 -14 65 -8 65 7 0 7 6 13
13 13 9 0 9 2 0 8 -8 5 -8 12 3 27 8 11 17 18 19 15 2 -3 15 4 27 15 13 10 23
18 23 16 0 -2 17 7 38 19 20 12 37 26 37 31 0 5 6 9 14 9 7 0 19 7 26 15 7 8
16 13 20 10 4 -3 15 6 25 19 12 15 25 21 40 18 18 -3 25 3 33 28 7 17 16 29
22 25 5 -3 10 1 10 10 0 9 4 14 9 11 4 -3 17 1 27 9 10 8 22 15 26 15 11 0 4
-35 -9 -52 -6 -7 -12 -17 -12 -23 0 -5 -8 -18 -16 -27 -8 -10 -12 -18 -8 -18
3 0 -2 -10 -13 -23 -11 -12 -28 -39 -38 -59 -10 -20 -27 -46 -37 -57 -11 -11
-19 -24 -19 -30 0 -5 -3 -11 -7 -13 -5 -1 -24 -27 -43 -55 -19 -29 -40 -53
-47 -53 -6 0 -19 -7 -27 -16 -9 -8 -16 -12 -16 -8 0 3 -6 1 -14 -5 -7 -6 -21
-9 -30 -5 -9 3 -16 2 -16 -3 0 -5 -10 -9 -22 -8 -22 2 -75 -27 -90 -50 -4 -5
-8 -6 -8 -2 0 5 -6 2 -14 -6 -19 -18 -10 -56 18 -78 18 -15 85 -41 108 -43 4
-1 16 -9 27 -18 11 -9 22 -14 26 -10 3 3 17 8 32 10 28 3 46 17 56 44 6 18 50
20 76 4 8 -5 16 3 24 23 6 17 14 31 18 31 3 0 4 11 2 23 -3 17 5 34 29 59 18
20 32 41 30 47 -2 6 1 11 7 11 6 0 11 5 11 10 0 6 16 27 35 47 19 19 33 39 32
43 -3 11 65 90 78 90 10 0 39 57 36 72 0 4 13 16 29 28 17 12 27 26 24 32 -4
7 -2 8 5 4 8 -5 16 3 24 23 6 17 15 31 19 31 11 0 68 61 69 74 0 6 3 22 5 36
2 14 4 32 4 40 0 8 1 31 1 50 0 68 4 110 9 110 3 0 6 11 6 25 2 35 24 86 35
80 4 -3 17 3 29 15 11 11 24 20 28 20 5 0 19 11 32 25 13 14 28 25 33 25 5 0
42 33 81 74 39 40 81 77 94 80 12 4 22 12 22 17 0 6 4 8 9 5 5 -3 12 1 15 10
3 8 10 12 16 9 5 -3 10 1 10 9 0 9 3 15 8 15 20 -3 32 3 32 17 0 8 4 13 9 9 5
-3 18 6 29 20 11 14 25 25 30 25 6 0 15 7 20 16 5 9 14 14 21 10 7 -5 -1 -20
-24 -43 -19 -19 -37 -44 -40 -55 -4 -10 -17 -30 -31 -45 -13 -14 -24 -31 -24
-38 0 -7 -7 -18 -15 -25 -8 -7 -12 -16 -9 -21 3 -5 0 -9 -5 -9 -6 0 -11 -6
-11 -14 0 -8 -6 -21 -13 -28 -15 -16 -41 -70 -39 -80 1 -5 -3 -8 -9 -8 -6 0
-9 -7 -5 -15 3 -8 2 -15 -3 -15 -5 0 -18 -19 -29 -42 -22 -46 -50 -85 -94
-131 -16 -16 -28 -33 -28 -38 0 -6 -4 -8 -8 -5 -5 3 -48 -43 -97 -102 -49 -59
-93 -112 -99 -117 -23 -22 -76 -94 -76 -104 0 -6 -4 -11 -10 -11 -5 0 -10 -7
-10 -15 0 -8 -5 -15 -11 -15 -6 0 -9 -6 -6 -13 3 -7 -4 -19 -15 -26 -11 -7
-18 -15 -15 -18 3 -3 -6 -25 -19 -49 -14 -24 -22 -44 -19 -44 4 0 -3 -13 -15
-30 -12 -16 -18 -30 -13 -31 4 0 0 -4 -10 -8 -10 -4 -19 -11 -19 -16 0 -6 -5
-16 -11 -23 -21 -26 -17 -49 13 -72 29 -22 40 -50 21 -50 -6 0 -6 -12 -2 -27
4 -16 6 -33 4 -40 -2 -6 5 -14 16 -18 28 -9 66 21 81 65 12 31 40 71 40 55 0
-4 7 0 15 9 8 8 15 17 15 21 0 4 12 19 27 35 42 42 63 69 63 80 0 6 5 10 12
10 6 0 8 3 5 7 -4 3 2 16 12 27 11 12 20 26 21 31 1 10 58 82 92 116 9 9 19
26 22 37 4 11 18 32 33 46 14 14 27 36 28 49 7 53 15 81 29 96 9 9 17 26 19
37 1 10 6 25 11 33 5 7 11 30 13 50 3 20 13 47 23 61 10 14 18 27 18 30 1 16
22 59 32 65 5 3 8 11 5 16 -4 5 -2 9 2 9 5 0 17 25 28 55 10 30 22 55 26 55 5
0 6 7 3 15 -4 8 -1 15 6 15 6 0 8 5 5 11 -4 6 1 16 11 24 11 7 19 17 20 22 1
20 34 83 43 83 6 0 11 7 11 15 0 16 46 65 61 65 6 0 8 4 4 10 -5 9 2 19 58 82
15 18 27 35 27 40 0 4 5 8 12 8 14 0 69 60 63 70 -2 4 10 22 28 42 51 55 77
88 71 88 -4 0 -2 6 4 13 5 6 11 28 13 47 2 19 8 42 15 50 17 20 27 99 16 113
-5 7 -13 28 -17 47 -4 19 -12 44 -18 55 -6 11 -12 27 -13 35 -2 8 -11 20 -20
27 -10 7 -14 13 -10 13 5 0 -5 13 -20 28 -16 15 -45 46 -64 67 -19 22 -50 52
-69 68 -19 15 -31 27 -25 27 5 0 2 6 -7 13 -9 7 -16 14 -17 17 -3 21 -19 48
-35 63 -11 9 -16 17 -11 17 16 0 -70 70 -93 76 -13 3 -23 10 -23 15 0 5 -6 9
-14 9 -7 0 -19 7 -26 15 -7 8 -15 13 -19 10 -4 -2 -20 3 -36 11 -15 8 -30 12
-32 10 -3 -2 -16 2 -30 9 -14 7 -34 12 -44 10 -11 -2 -19 0 -19 5 0 5 -13 11
-29 15 -16 3 -35 12 -41 20 -6 7 -35 25 -65 40 -30 14 -55 31 -55 36 0 6 -4 8
-9 5 -5 -3 -20 3 -34 14 -14 11 -30 20 -36 20 -6 0 -11 4 -11 8 0 4 -8 9 -17
10 -40 4 -53 9 -73 27 -11 10 -20 14 -20 10 0 -4 -9 0 -20 10 -12 11 -31 20
-42 22 -12 2 -29 10 -37 17 -9 8 -41 26 -71 39 -30 14 -69 38 -86 54 -61 55
-84 73 -93 73 -4 0 -17 8 -29 18 -11 9 -30 24 -41 32 -12 8 -21 18 -21 22 0 4
-22 30 -50 56 -27 27 -50 51 -50 55 0 8 -29 44 -48 61 -33 28 -62 57 -69 68
-10 17 -103 91 -103 83 0 -3 -10 3 -21 14 -12 11 -46 32 -75 46 -30 15 -54 31
-54 36 0 5 -7 9 -15 9 -9 0 -26 9 -38 21 -12 11 -35 30 -50 42 -16 12 -34 28
-40 35 -7 8 -65 67 -130 132 -65 65 -120 127 -122 137 -2 10 -4 19 -5 21 -2 1
-3 5 -4 10 -3 18 -18 32 -28 26 -7 -5 -9 0 -5 15 4 17 0 25 -18 33 -25 11 -25
31 -1 22 9 -3 17 4 22 18 22 67 5 108 -65 158 -12 8 -21 19 -21 25 0 14 -46
66 -62 69 -12 3 -20 5 -65 23 -10 3 -24 5 -30 4 -7 -1 -13 2 -13 6 0 15 -70
83 -85 83 -8 0 -15 4 -15 8 0 10 -10 11 -115 16 -44 2 -101 6 -127 11 l-48 7
-1 -33z m333 -89 c6 0 8 -3 5 -6 -10 -11 -38 17 -30 30 5 7 9 5 11 -6 2 -10 8
-18 14 -18z m-58 -57 c5 -12 4 -13 -7 -5 -8 7 -16 10 -19 7 -2 -3 -5 1 -5 9 0
18 24 10 31 -11z m206 -163 c-6 -11 -14 -19 -18 -19 -20 3 -32 -3 -32 -16 0
-9 -6 -12 -15 -9 -25 10 -18 41 10 48 14 4 30 4 35 1 5 -3 11 -1 15 5 11 19
16 10 5 -10z m-138 -112 c-7 -7 -12 -8 -12 -2 0 14 12 26 19 19 2 -3 -1 -11
-7 -17z m-594 -103 c-3 -3 -9 2 -12 12 -6 14 -5 15 5 6 7 -7 10 -15 7 -18z
m92 -29 c0 -5 -9 -1 -20 9 -15 13 -20 14 -20 5 0 -10 -3 -11 -11 -3 -6 6 -8
16 -5 22 8 12 55 -17 56 -33z m1201 -407 c13 -11 18 -18 11 -14 -57 29 -65 35
-51 35 9 0 27 -9 40 -21z m-357 -282 c3 3 6 1 6 -5 0 -7 -3 -12 -7 -13 -5 0
-21 -2 -38 -4 -16 -2 -24 -2 -17 1 6 3 12 12 12 20 0 11 4 12 19 5 10 -6 21
-7 25 -4z m307 -316 c-10 -6 -8 -10 6 -16 10 -5 23 -7 28 -6 6 1 5 -3 -2 -10
-9 -9 -15 -8 -29 5 -12 13 -19 14 -24 6 -6 -9 -9 -9 -12 1 -3 8 5 19 16 25 23
12 38 8 17 -5z m234 -61 c-3 -5 -12 -10 -18 -10 -7 0 -6 4 3 10 19 12 23 12
15 0z m-295 -35 c0 -8 -7 -15 -16 -15 -14 0 -14 3 -4 15 7 8 14 15 16 15 2 0
4 -7 4 -15z m23 -38 c4 3 7 -4 7 -16 0 -19 -3 -20 -20 -11 -11 6 -20 18 -20
27 0 12 3 13 13 4 8 -6 17 -8 20 -4z m-180 -42 c-3 -9 -8 -14 -10 -11 -3 3 -2
9 2 15 9 16 15 13 8 -4z m372 -5 c3 -6 -1 -7 -9 -4 -18 7 -21 14 -7 14 6 0 13
-4 16 -10z m83 -29 c11 -7 11 -9 -1 -14 -16 -6 -27 0 -27 15 0 10 11 10 28 -1z
m-283 -51 c3 -6 -1 -7 -9 -4 -18 7 -21 14 -7 14 6 0 13 -4 16 -10z m307 -6 c4
-3 3 -18 -2 -34 -7 -23 -4 -31 19 -47 36 -27 61 -35 61 -20 0 22 20 -17 20
-40 0 -30 -9 -29 -43 3 -15 14 -42 27 -59 30 -41 5 -52 24 -27 47 20 18 25 37
11 37 -5 0 -9 7 -9 15 0 15 18 20 29 9z m896 -6 c8 -8 12 -8 12 -1 0 6 11 8
25 5 23 -4 33 -21 19 -35 -7 -7 -56 13 -65 27 -4 5 -12 5 -18 2 -6 -4 -11 -2
-11 3 0 15 23 14 38 -1z m-958 -35 c0 -1 -11 2 -25 9 -13 6 -22 15 -19 19 4 7
44 -19 44 -28z m904 28 c3 -5 -3 -11 -15 -14 -16 -4 -18 -3 -8 9 13 16 16 17
23 5z m-673 -58 c1 -7 2 -19 3 -25 0 -7 18 -21 39 -32 22 -10 34 -21 29 -25
-6 -4 6 -17 26 -31 20 -13 39 -25 41 -27 2 -1 -2 -9 -9 -17 -10 -13 -14 -13
-26 -1 -8 7 -14 20 -14 28 0 8 -13 20 -30 27 -16 7 -27 16 -24 21 3 5 -11 16
-30 24 -24 10 -36 22 -36 35 0 11 -4 20 -10 20 -5 0 -10 4 -10 10 0 15 50 8
51 -7z m259 2 c0 -8 -7 -15 -15 -15 -9 0 -12 6 -9 15 4 8 10 15 15 15 5 0 9
-7 9 -15z m52 -22 c-6 -3 -9 -10 -6 -15 4 -7 2 -8 -5 -4 -9 6 -9 11 0 22 6 8
15 12 18 8 3 -4 0 -9 -7 -11z m125 -16 c3 -4 11 -3 17 0 19 12 35 12 46 -2 8
-9 7 -14 -4 -18 -9 -4 -18 -2 -22 4 -4 6 -11 6 -20 -2 -7 -6 -11 -16 -7 -22 4
-7 -6 -2 -21 10 -22 18 -32 20 -47 12 -11 -5 -17 -14 -14 -19 3 -5 1 -11 -4
-14 -14 -9 -24 33 -12 48 11 13 76 15 88 3z m-176 -73 c23 -25 23 -26 2 -13
-13 7 -25 19 -27 26 -8 19 -2 16 25 -13z m-1131 -94 c0 -5 -5 -10 -11 -10 -5
0 -7 5 -4 10 3 6 8 10 11 10 2 0 4 -4 4 -10z m925 0 c3 -5 1 -10 -4 -10 -6 0
-11 5 -11 10 0 6 2 10 4 10 3 0 8 -4 11 -10z m865 -72 c0 -5 -9 -4 -20 2 -11
6 -20 12 -20 14 0 2 9 2 20 -1 11 -3 20 -9 20 -15z m30 -32 c0 -3 -4 -8 -10
-11 -5 -3 -10 -1 -10 4 0 6 5 11 10 11 6 0 10 -2 10 -4z m30 -16 c0 -5 -2 -10
-4 -10 -3 0 -8 5 -11 10 -3 6 -1 10 4 10 6 0 11 -4 11 -10z m87 -12 c-3 -8 -6
-5 -6 6 -1 11 2 17 5 13 3 -3 4 -12 1 -19z m-34 -20 c2 -7 -5 -25 -15 -40 -14
-20 -16 -28 -6 -29 10 0 10 -2 1 -6 -37 -15 22 -89 63 -79 14 4 28 -1 39 -14
17 -19 19 -19 31 -2 9 11 13 13 14 4 0 -7 4 -11 8 -8 14 9 71 -44 65 -60 -3
-8 -9 -11 -14 -8 -6 3 -16 0 -24 -6 -11 -9 -15 -9 -15 -1 0 6 -3 10 -7 9 -17
-4 -59 16 -87 44 -37 35 -79 54 -84 39 -3 -8 -10 -8 -23 0 -18 9 -19 13 -6 32
15 23 5 74 -17 90 -7 5 -3 7 9 6 11 -1 25 -1 32 0 18 2 20 35 3 49 -13 11 -12
12 7 3 12 -6 23 -16 26 -23z m-466 -64 c-15 -16 -23 -7 -31 35 l-6 34 24 -28
c19 -21 21 -31 13 -41z m823 35 c0 -5 -4 -9 -8 -9 -5 0 -9 7 -9 15 0 8 4 12 9
9 4 -3 8 -9 8 -15z m-280 -69 c-17 -31 -29 -32 -26 -3 5 35 3 33 21 27 11 -5
12 -11 5 -24z m314 -3 c7 -6 6 -7 -4 -4 -8 2 -16 12 -17 23 -2 13 -1 15 4 4 3
-8 11 -19 17 -23z m-249 -17 c3 -6 -1 -7 -9 -4 -18 7 -21 14 -7 14 6 0 13 -4
16 -10z m105 -34 c0 -3 -4 -8 -10 -11 -5 -3 -10 -1 -10 4 0 6 5 11 10 11 6 0
10 -2 10 -4z m138 -83 c17 -23 22 -25 36 -14 8 7 14 18 13 23 -1 6 3 12 8 14
6 2 11 -5 11 -16 0 -11 -4 -20 -8 -20 -4 0 -8 -7 -8 -15 0 -8 -5 -15 -11 -15
-5 0 -7 -4 -4 -10 3 -5 -4 -10 -16 -10 -17 0 -19 3 -10 14 10 12 8 17 -9 26
-16 9 -21 8 -26 -5 -5 -11 -10 -13 -19 -5 -9 8 -14 6 -19 -6 -6 -16 -8 -15
-21 2 -23 30 -19 47 9 40 16 -4 26 -1 30 9 8 22 22 18 44 -12z m-142 -39 c-3
-9 -6 -18 -6 -20 0 -2 -9 -4 -20 -4 -11 0 -20 -5 -20 -11 0 -5 -4 -7 -10 -4
-19 12 -10 33 18 43 39 15 45 14 38 -4z m-2772 -179 c-4 -8 -8 -15 -10 -15 -2
0 -4 7 -4 15 0 8 4 15 10 15 5 0 7 -7 4 -15z m1728 -43 c13 5 38 -14 38 -28 0
-4 12 -17 28 -30 15 -13 23 -24 17 -24 -5 0 -3 -5 5 -11 10 -7 11 -12 4 -15
-7 -3 -10 -14 -7 -25 4 -15 2 -18 -11 -13 -9 4 -15 9 -12 12 8 8 -34 62 -48
62 -8 0 -19 7 -26 15 -6 8 -15 14 -18 13 -4 0 -10 1 -14 2 -5 1 -12 4 -18 5
-5 1 -12 4 -15 5 -3 1 -9 4 -15 5 -5 1 -13 3 -17 4 -5 2 10 11 32 20 27 12 44
15 52 9 7 -6 18 -8 25 -6z m-2042 -7 c5 3 12 0 15 -6 5 -7 1 -10 -10 -7 -10 1
-20 9 -21 16 -1 7 0 8 3 2 2 -5 9 -8 13 -5z m252 -7 c-6 -6 -22 -13 -34 -14
-19 -2 -17 0 7 11 37 18 42 18 27 3z m-192 -43 c0 -9 -6 -12 -16 -8 -13 5 -13
7 -2 14 17 11 18 11 18 -6z m517 -27 c-3 -8 -6 -5 -6 6 -1 11 2 17 5 13 3 -3
4 -12 1 -19z m5 -25 c-6 -2 -10 -8 -8 -11 2 -4 -2 -13 -10 -19 -7 -7 -15 -9
-19 -4 -6 11 22 41 38 40 8 0 8 -2 -1 -6z m1481 -67 c9 -7 17 -17 17 -21 0 -4
-7 -2 -15 5 -12 10 -18 10 -30 0 -20 -17 3 -42 27 -29 24 13 41 11 35 -4 -3
-7 1 -21 9 -32 18 -25 18 -31 -3 -39 -10 -3 -23 -8 -29 -11 -7 -4 -10 3 -7 18
4 18 -2 29 -19 41 -21 15 -24 15 -36 -1 -11 -15 -10 -20 7 -34 19 -16 19 -16
-5 -44 -27 -32 -57 -28 -53 7 2 13 -1 29 -5 37 -6 9 -5 12 2 7 11 -6 42 19 42
34 0 5 -9 12 -20 15 -11 3 -20 10 -20 13 0 13 35 39 47 35 6 -2 14 1 18 6 8
14 16 13 38 -3z m12 -156 c-3 -5 6 -17 20 -26 28 -18 33 -34 10 -34 -8 0 -15
5 -15 10 0 6 -6 9 -12 8 -7 -2 -13 6 -14 17 0 22 4 35 12 35 3 0 3 -4 -1 -10z
m-41 -76 c4 -27 32 -41 53 -28 22 13 43 7 43 -12 0 -11 -4 -13 -17 -6 -11 7
-21 6 -30 -4 -8 -7 -20 -11 -27 -8 -8 3 -17 0 -21 -6 -5 -8 -11 -5 -20 7 -10
13 -10 20 -2 26 9 6 9 10 0 14 -7 2 -13 9 -13 14 0 6 5 7 10 4 6 -3 10 2 10
11 0 21 11 12 14 -12z m146 -24 c0 -5 -5 -10 -11 -10 -5 0 -7 5 -4 10 3 6 8
10 11 10 2 0 4 -4 4 -10z m411 -13 c-10 -9 -11 -8 -5 6 3 10 9 15 12 12 3 -3
0 -11 -7 -18z m-33 -27 c-7 -10 -14 -18 -15 -16 -6 6 9 36 18 36 5 0 4 -9 -3
-20z m-378 -50 c0 -13 -5 -18 -15 -14 -12 5 -13 10 -4 20 15 19 19 18 19 -6z
m272 -180 c-5 -32 -20 -42 -17 -12 1 16 13 42 19 42 1 0 1 -13 -2 -30z m-101
-63 c-10 -9 -11 -8 -5 6 3 10 9 15 12 12 3 -3 0 -11 -7 -18z m0 -39 c1 -7 1
-19 0 -26 -1 -8 3 -20 10 -28 9 -11 8 -14 -4 -14 -17 0 -29 -24 -21 -44 7 -19
-16 -32 -27 -15 -5 8 -9 10 -9 5 0 -5 -7 -3 -15 4 -8 7 -12 17 -9 22 4 7 9 6
13 0 4 -6 12 -7 20 -3 11 7 16 34 20 99 1 6 6 12 11 12 6 0 11 -6 11 -12z m86
-60 c0 -29 -2 -47 -4 -40 -3 6 -11 12 -19 12 -18 0 -18 15 1 33 8 8 12 17 9
20 -5 5 3 27 10 27 1 0 3 -24 3 -52z m-172 -148 c12 -13 21 -17 25 -10 5 7 11
6 19 -3 18 -22 -12 -43 -32 -22 -9 8 -22 15 -31 15 -9 0 -14 8 -13 20 2 25 9
25 32 0z m-19 -112 c-3 -21 -16 -38 -29 -38 -8 0 -9 3 -1 8 6 4 13 15 17 25 7
20 16 23 13 5z m-90 -43 c-9 -14 -13 -25 -9 -25 5 0 4 -4 -2 -8 -28 -20 -38
-42 -25 -57 10 -12 16 -13 29 -3 15 12 15 11 1 -7 -8 -11 -22 -27 -31 -35 -9
-8 -20 -26 -24 -39 -4 -13 -17 -34 -30 -45 -12 -12 -28 -34 -36 -50 -8 -16
-25 -36 -38 -45 -23 -15 -24 -15 -13 6 7 12 16 24 20 27 4 2 9 19 10 38 2 18
10 44 20 58 9 14 17 28 17 32 0 3 12 20 28 37 15 17 27 32 26 33 -2 6 26 64
35 69 5 4 6 11 2 17 -3 6 0 13 6 15 26 11 30 6 14 -18z m-239 -301 c-9 -9 -28
6 -21 18 4 6 10 6 17 -1 6 -6 8 -13 4 -17z m-69 -59 c1 -26 -2 -34 -11 -28 -7
4 -21 9 -32 10 -11 2 -22 8 -23 13 -2 6 -8 8 -12 5 -5 -3 -11 -1 -15 4 -3 6
12 10 37 9 23 0 44 5 46 11 6 19 9 13 10 -24z"/>
</g>
</svg>
