<?xml version="1.0" standalone="no"?>
<!DOCTYPE svg PUBLIC "-//W3C//DTD SVG 20010904//EN"
 "http://www.w3.org/TR/2001/REC-SVG-20010904/DTD/svg10.dtd">
<svg version="1.0" xmlns="http://www.w3.org/2000/svg"
 width="501.000000pt" height="481.000000pt" viewBox="0 0 501.000000 481.000000"
 preserveAspectRatio="xMidYMid meet">
<metadata>
Created by potrace 1.13, written by Peter Selinger 2001-2015
</metadata>
<g transform="translate(0.000000,481.000000) scale(0.100000,-0.100000)"
fill="#000000" stroke="none">
<path d="M1790 4495 c-13 -15 -16 -118 -4 -137 3 -5 10 -22 14 -39 7 -24 6
-30 -4 -26 -8 3 -17 3 -21 -1 -4 -4 -21 -7 -38 -7 -35 -1 -100 -28 -132 -55
-23 -20 -65 -32 -65 -20 0 5 -12 3 -27 -5 -15 -8 -30 -12 -35 -9 -4 3 -8 0 -8
-5 0 -6 -9 -11 -20 -11 -11 0 -20 -4 -20 -9 0 -5 -16 -12 -35 -15 -19 -4 -35
-12 -35 -18 0 -5 -7 -8 -15 -5 -8 4 -17 2 -21 -4 -3 -6 -12 -8 -20 -5 -8 3
-14 1 -14 -4 0 -11 -70 -31 -82 -24 -4 3 -8 0 -8 -6 0 -7 -6 -10 -14 -7 -20 8
-56 -39 -62 -79 -2 -22 3 -51 15 -77 11 -24 21 -49 23 -57 2 -8 12 -20 23 -27
11 -7 16 -12 10 -13 -5 0 3 -11 19 -25 23 -20 39 -25 68 -23 20 2 37 -1 37 -6
0 -5 3 -12 8 -15 11 -8 49 -93 46 -103 -2 -5 2 -8 8 -8 5 0 7 -4 4 -10 -3 -5
-3 -10 2 -10 4 0 25 -16 47 -35 21 -19 43 -35 50 -35 15 0 126 -106 127 -122
1 -7 1 -16 0 -20 0 -5 4 -8 9 -8 6 0 10 -9 10 -20 0 -11 3 -20 8 -20 4 0 8
-12 8 -27 2 -49 10 -98 18 -111 4 -7 3 -12 -1 -12 -5 0 -8 -23 -7 -50 0 -28
-2 -53 -7 -55 -4 -3 -6 -16 -4 -30 1 -14 -2 -25 -7 -25 -5 0 -7 -4 -4 -9 7
-10 -13 -71 -22 -71 -4 0 -7 -10 -8 -22 -3 -74 -4 -97 -3 -138 0 -25 -4 -64
-9 -88 -5 -24 -6 -45 -1 -48 5 -3 4 -14 -1 -25 -6 -11 -7 -19 -2 -19 6 0 12
-11 14 -25 3 -14 1 -25 -6 -25 -8 0 -8 -2 0 -8 7 -4 12 -16 12 -27 -1 -28 13
-65 23 -65 5 0 8 -3 7 -7 -1 -5 2 -20 6 -34 6 -20 -1 -37 -28 -78 -20 -29 -36
-59 -36 -67 0 -8 -4 -14 -10 -14 -5 0 -7 -7 -4 -15 4 -8 1 -15 -6 -15 -6 0 -8
-5 -4 -11 3 -6 2 -14 -4 -18 -6 -3 -12 -13 -14 -21 -4 -20 -74 -90 -90 -90 -7
0 -26 -11 -42 -25 -16 -14 -37 -25 -47 -25 -9 0 -37 -8 -61 -18 -24 -10 -51
-16 -60 -14 -10 2 -18 -2 -18 -8 0 -7 -7 -10 -15 -7 -8 4 -17 2 -20 -4 -4 -5
-10 -7 -14 -5 -4 3 -20 -4 -36 -14 -25 -16 -26 -20 -12 -26 9 -3 15 -10 12
-14 -3 -5 3 -13 12 -19 10 -5 16 -12 13 -15 -3 -3 10 -17 29 -31 19 -14 31
-25 27 -25 -5 0 -3 -7 4 -15 7 -9 19 -14 26 -11 8 3 29 -1 47 -9 19 -8 37 -11
41 -8 3 4 6 1 6 -4 0 -6 7 -10 15 -9 21 3 70 44 62 52 -10 10 24 33 48 34 12
0 26 5 33 12 7 7 12 8 12 3 0 -4 9 2 20 15 11 12 18 26 15 30 -2 4 4 15 15 25
11 10 20 15 20 11 0 -5 16 12 36 36 21 23 41 42 45 40 5 -1 9 5 9 13 0 8 7 15
16 15 9 0 29 9 45 21 16 11 29 17 29 14 0 -4 6 0 14 7 7 7 23 20 35 28 11 8
21 20 21 28 0 7 4 11 8 8 5 -3 16 4 25 15 10 11 22 17 27 14 6 -3 10 1 10 10
0 10 7 15 18 13 19 -4 18 -38 -1 -50 -7 -4 -8 -8 -3 -8 5 0 4 -6 -1 -12 -19
-25 -35 -84 -40 -146 -4 -57 -22 -107 -53 -145 -5 -7 -25 -32 -43 -57 -26 -35
-41 -46 -70 -51 -54 -9 -124 -47 -122 -67 4 -53 87 -161 123 -162 6 0 12 -5
12 -12 0 -9 3 -9 12 0 7 7 17 8 28 2 23 -12 61 15 53 37 -5 14 -1 15 25 10 39
-8 71 20 66 58 -1 14 2 25 7 25 5 0 9 4 9 9 0 5 5 22 12 38 6 15 12 30 13 33
1 3 6 16 12 30 6 14 10 28 9 31 0 4 7 16 17 26 9 11 15 22 12 25 -3 2 22 34
55 69 52 55 93 117 95 141 0 4 8 17 18 28 9 11 17 25 17 30 0 22 64 -1 91 -31
10 -11 20 -20 24 -19 8 2 46 -25 94 -67 20 -18 32 -33 27 -33 -6 0 10 -15 35
-32 55 -41 69 -54 63 -61 -3 -2 14 -20 38 -38 71 -56 77 -62 72 -71 -3 -4 -1
-8 3 -8 5 0 9 -9 10 -20 1 -11 -4 -20 -13 -20 -8 0 -14 -6 -14 -14 0 -8 -11
-16 -23 -20 -13 -3 -35 -15 -49 -26 l-26 -20 37 -40 c20 -22 37 -36 39 -30 2
5 11 10 21 10 18 0 51 33 51 51 0 6 9 8 19 4 38 -12 56 -12 81 -2 37 15 53 14
74 -5 10 -10 23 -15 28 -12 4 3 8 1 8 -3 0 -5 8 -9 18 -10 10 -1 43 -13 73
-26 75 -34 159 -66 188 -72 30 -6 93 -26 106 -34 6 -3 13 -6 17 -6 4 0 17 -8
29 -19 16 -13 18 -20 9 -26 -10 -6 -9 -9 1 -14 11 -5 11 -7 1 -12 -6 -3 -10
-10 -7 -15 4 -5 -3 -18 -14 -30 -11 -12 -18 -26 -15 -31 3 -4 1 -8 -5 -8 -6 0
-14 -12 -17 -28 -4 -15 -13 -39 -20 -54 -12 -22 -24 -82 -27 -125 0 -7 -5 -13
-10 -13 -5 0 -7 -7 -3 -15 3 -8 1 -15 -5 -15 -6 0 -7 -4 -4 -10 3 -5 -4 -20
-16 -32 -11 -13 -33 -38 -48 -57 -14 -19 -35 -44 -47 -55 -30 -31 -132 -106
-142 -106 -5 0 -15 -7 -22 -15 -7 -9 -15 -13 -17 -11 -3 2 -13 -4 -24 -15 -15
-15 -27 -18 -56 -13 -21 3 -41 8 -45 11 -5 2 -8 0 -8 -4 0 -5 -8 -9 -17 -10
-10 -1 -35 -2 -56 -4 -58 -4 -69 -31 -36 -90 14 -27 103 -108 120 -110 45 -6
89 1 89 15 0 11 7 12 34 5 30 -8 37 -6 72 26 21 19 44 35 51 35 7 0 13 4 13 8
0 10 50 37 63 34 4 -1 7 3 7 8 0 6 5 10 12 10 6 0 26 11 44 25 18 14 37 25 43
25 6 0 11 5 11 11 0 5 5 7 10 4 6 -3 10 -2 10 3 0 6 11 13 25 16 14 4 25 11
25 17 0 6 4 8 9 4 5 -3 12 -1 16 5 3 5 10 10 14 10 10 0 4 -62 -7 -69 -4 -3
-16 -26 -27 -51 -10 -25 -24 -49 -30 -55 -6 -5 -14 -18 -18 -27 -11 -31 -78
-130 -83 -125 -3 3 -20 -10 -37 -29 -29 -30 -39 -34 -102 -39 -136 -10 -158
-14 -173 -29 -13 -12 -11 -18 17 -45 17 -17 31 -34 31 -38 1 -11 89 -79 96
-75 4 2 10 -1 13 -7 18 -28 131 -17 131 13 0 7 16 11 38 11 40 0 72 21 64 43
-2 6 1 12 6 12 5 0 13 11 16 25 4 14 10 23 15 20 5 -2 16 10 24 28 9 18 25 41
37 52 11 10 20 23 20 30 0 7 11 25 25 41 14 16 25 35 25 42 0 6 5 12 10 12 6
0 10 6 10 13 0 12 32 33 53 35 5 1 22 20 40 44 35 49 53 68 62 68 4 0 16 10
26 23 17 19 19 19 10 2 -5 -11 -22 -34 -38 -51 -15 -16 -40 -46 -54 -65 -15
-19 -35 -43 -46 -54 -29 -31 -65 -84 -67 -100 -1 -9 -8 -21 -14 -27 -7 -7 -12
-17 -12 -24 0 -6 -6 -17 -14 -24 -8 -6 -13 -17 -10 -24 3 -8 -2 -20 -10 -29
-13 -13 -13 -47 0 -47 15 0 61 30 96 61 22 21 45 36 49 33 5 -3 9 2 9 10 0 8
9 18 20 21 11 3 20 11 20 16 0 5 5 9 11 9 7 0 21 9 33 20 12 11 44 41 71 68
56 53 120 128 120 141 0 5 14 24 30 43 42 46 78 98 68 98 -4 0 0 5 10 11 9 6
15 14 13 18 -3 4 3 17 13 27 9 11 16 25 13 32 -2 6 1 12 8 12 6 0 8 4 5 10 -3
5 -1 10 4 10 6 0 11 7 11 15 0 8 5 15 10 15 6 0 10 7 10 14 0 8 10 26 23 39
12 14 36 42 52 63 38 50 155 164 167 164 5 0 7 4 4 8 -3 5 4 18 14 30 11 12
20 27 20 33 0 7 3 9 7 6 3 -4 17 0 30 8 13 9 23 13 23 9 0 -3 12 9 27 28 31
38 66 72 137 131 27 23 56 50 65 61 9 10 22 24 29 31 6 8 12 18 12 24 0 6 4
11 9 11 11 0 49 62 53 87 2 10 7 21 11 24 4 3 9 29 10 57 1 29 5 52 10 52 4 0
0 16 -8 36 -8 20 -13 40 -10 44 3 4 -2 11 -11 14 -8 3 -12 10 -9 16 3 5 1 10
-6 10 -7 0 -9 10 -7 25 5 26 3 30 -77 98 -27 23 -63 55 -78 72 -16 16 -37 30
-48 32 -11 2 -43 27 -72 55 -67 68 -117 108 -134 108 -7 0 -13 4 -13 9 0 5
-12 13 -27 19 -16 5 -43 24 -60 41 -18 17 -33 29 -33 25 0 -3 -15 5 -32 18
-18 13 -36 23 -40 23 -3 0 -20 12 -37 27 -17 16 -38 28 -46 28 -8 0 -15 5 -15
10 0 6 -6 10 -13 10 -8 0 -27 11 -42 24 -16 14 -31 25 -34 24 -20 -2 -35 6
-77 42 -25 23 -49 39 -51 36 -3 -3 -17 6 -32 20 -14 14 -39 32 -55 41 -16 8
-38 24 -49 34 -12 10 -25 19 -29 19 -14 0 -238 215 -238 228 0 4 -14 16 -30
27 -16 11 -30 23 -30 28 0 4 -27 34 -60 67 -33 33 -60 62 -60 66 0 3 -27 33
-60 65 -33 32 -60 63 -60 69 0 5 -4 10 -9 10 -5 0 -16 6 -23 13 -22 21 -92 80
-141 121 -26 21 -44 42 -41 47 3 5 1 9 -4 9 -5 0 -19 9 -32 20 -13 11 -29 20
-37 20 -7 0 -13 5 -13 10 0 11 -13 28 -44 60 -11 11 -16 20 -11 20 5 0 0 7
-11 15 -10 8 -16 15 -12 15 4 0 -23 28 -59 63 -36 34 -82 79 -103 100 -20 20
-40 37 -45 37 -4 0 -29 18 -55 40 -26 22 -55 40 -63 40 -25 0 -46 28 -43 58 5
40 -38 71 -86 63 -5 0 -8 4 -8 10 0 5 -8 9 -17 8 -55 -5 -61 -1 -61 44 1 31
-7 54 -27 85 -15 23 -32 42 -37 42 -14 0 -58 36 -52 43 3 3 -4 10 -15 17 -12
6 -19 15 -16 19 2 5 -2 23 -11 40 -18 36 -57 67 -63 50 -2 -6 -13 -2 -26 11
-20 19 -23 19 -35 5z m936 -1001 c-16 -16 -20 -12 -17 18 1 9 -3 19 -9 23 -5
3 -10 11 -10 16 0 5 12 -2 26 -16 23 -23 24 -27 10 -41z m-1106 31 c11 -13 10
-14 -4 -9 -9 3 -16 10 -16 15 0 13 6 11 20 -6z m1112 -85 c1 -14 10 -30 18
-37 13 -10 11 -13 -12 -22 -33 -12 -44 -29 -24 -37 9 -3 14 -10 11 -14 -3 -5
6 -17 20 -29 15 -11 25 -22 23 -24 -2 -3 11 -16 27 -28 60 -46 56 -60 -7 -28
-23 13 -46 22 -50 21 -5 -1 -8 3 -8 10 0 6 -3 8 -7 5 -3 -4 -12 -2 -20 4 -10
9 -17 8 -28 -1 -14 -11 -14 -15 2 -30 10 -10 21 -16 26 -13 4 2 7 -1 7 -8 0
-14 26 -36 60 -50 16 -7 20 -13 13 -17 -9 -6 -7 -11 7 -19 25 -16 44 7 36 44
-6 26 -5 27 8 10 12 -15 18 -17 35 -7 12 6 25 9 30 6 5 -3 14 1 21 9 7 8 17
15 23 15 19 0 -21 -33 -41 -35 -22 -1 -49 -25 -54 -46 -5 -23 37 -70 57 -63 9
4 14 13 11 20 -3 8 -8 20 -11 27 -3 8 2 13 14 13 15 0 20 -9 23 -38 3 -29 0
-38 -12 -40 -30 -3 -35 -4 -57 -16 -21 -12 -27 -9 -24 11 0 4 -3 7 -9 7 -5 0
-10 6 -10 13 0 18 -35 37 -59 32 -12 -2 -21 1 -21 6 0 6 -6 6 -17 0 -10 -5
-30 -8 -45 -6 -16 2 -28 -1 -28 -6 0 -5 -13 -6 -28 -3 -23 5 -35 0 -60 -25
-17 -17 -37 -31 -45 -31 -8 0 -29 -16 -46 -35 -32 -37 -58 -48 -43 -17 4 9 8
24 7 32 -2 27 43 77 68 76 30 -3 47 12 47 40 0 13 4 24 8 24 13 0 52 36 52 48
0 6 6 17 13 24 6 8 19 28 28 45 16 29 16 31 -2 39 -19 9 -18 10 5 44 19 28 21
38 11 47 -7 6 -16 9 -19 6 -3 -4 -6 -2 -6 3 0 17 40 55 51 49 5 -4 12 1 15 10
8 20 11 17 16 -15z m121 -23 c16 -16 26 -31 22 -35 -3 -4 -10 -1 -14 7 -5 7
-11 12 -15 12 -3 -1 -6 2 -7 7 -2 14 -21 32 -30 26 -14 -8 -29 5 -22 22 6 17
17 10 66 -39z m102 -97 c3 -6 -1 -7 -9 -4 -18 7 -21 14 -7 14 6 0 13 -4 16
-10z m47 -49 c16 -14 25 -41 13 -41 -8 0 -50 47 -53 59 -3 13 10 7 40 -18z
m-964 -270 c-7 -11 -16 -17 -20 -15 -14 9 -9 22 10 27 9 3 18 5 20 6 1 0 -3
-8 -10 -18z m408 -87 c-4 -9 -9 -15 -11 -12 -3 3 -3 13 1 22 4 9 9 15 11 12 3
-3 3 -13 -1 -22z m-636 -174 c0 -9 4 -20 10 -26 15 -15 -28 -96 -49 -92 -20 4
-23 87 -5 135 7 17 12 33 11 35 -1 2 6 -6 15 -17 10 -11 18 -27 18 -35z m750
40 c0 -5 -2 -10 -4 -10 -3 0 -8 5 -11 10 -3 6 -1 10 4 10 6 0 11 -4 11 -10z
m20 -24 c0 -21 -20 -30 -33 -17 -9 9 -8 14 3 21 21 14 30 12 30 -4z m319 -170
c-3 -3 -11 5 -18 17 -13 21 -12 21 5 5 10 -10 16 -20 13 -22z m334 -11 c-3 -9
-8 -14 -10 -11 -3 3 -2 9 2 15 9 16 15 13 8 -4z m-123 -19 c0 -11 -19 -15 -25
-6 -3 5 1 10 9 10 9 0 16 -2 16 -4z m730 -12 c0 -2 -7 -4 -15 -4 -8 0 -15 4
-15 10 0 5 7 7 15 4 8 -4 15 -8 15 -10z m-785 -24 c3 -5 -1 -10 -9 -10 -8 0
-18 5 -21 10 -3 6 1 10 9 10 8 0 18 -4 21 -10z m890 -40 c21 -16 33 -30 27
-30 -6 0 -26 14 -44 30 -18 17 -30 30 -27 30 4 0 23 -13 44 -30z m-875 5 c0
-2 -6 -5 -13 -8 -8 -3 -14 1 -14 8 0 7 6 11 14 8 7 -3 13 -6 13 -8z m-366 -20
c11 -8 15 -15 10 -15 -12 0 -14 -12 -16 -91 0 -30 5 -65 11 -77 8 -16 8 -22 1
-22 -6 0 -9 -4 -5 -9 3 -5 0 -13 -6 -17 -8 -4 -7 -9 2 -15 8 -5 9 -9 3 -9 -15
0 -8 -59 10 -79 8 -9 17 -30 20 -46 10 -47 50 -87 91 -92 37 -4 72 18 60 37
-3 5 -1 10 5 10 7 0 10 7 6 15 -3 8 -2 15 2 15 4 0 8 11 8 24 1 14 9 39 18 57
9 18 16 36 16 41 0 19 31 40 48 32 9 -4 20 -7 24 -6 4 1 1 -16 -7 -37 -7 -22
-11 -42 -8 -45 3 -3 -1 -8 -10 -12 -9 -3 -22 -24 -27 -45 -6 -21 -15 -39 -21
-39 -6 0 -7 -5 -4 -10 3 -6 -1 -17 -9 -26 -18 -18 -21 -34 -5 -34 5 0 8 -4 4
-9 -3 -6 3 -14 12 -20 13 -7 14 -10 4 -11 -8 0 -11 -3 -8 -7 4 -3 2 -12 -4
-19 -9 -11 -14 -10 -30 5 -34 32 -134 56 -157 38 -9 -7 -11 -6 -7 5 4 9 -1 18
-12 22 -10 4 -19 2 -21 -3 -2 -6 -14 2 -28 18 -13 16 -35 32 -49 35 -14 4 -25
13 -25 21 0 8 -5 15 -10 15 -6 0 -9 4 -8 9 5 17 -46 53 -69 48 -29 -5 -30 9
-2 25 11 7 27 27 35 43 8 17 21 41 30 55 9 16 13 40 10 67 -4 36 -1 47 24 73
28 30 38 80 17 80 -4 0 -5 5 -2 10 9 15 57 12 79 -5z m-890 -19 c-6 -17 -34
-30 -34 -16 0 5 8 14 18 19 22 13 22 13 16 -3z m407 -23 c10 -11 10 -14 2 -9
-7 4 -13 4 -13 -1 0 -4 -16 -8 -35 -9 -38 -1 -49 11 -14 13 12 1 27 7 32 12
14 14 12 14 28 -6z m1829 -25 c0 -5 -7 -2 -16 6 -8 9 -20 14 -25 11 -5 -4 -9
1 -9 10 0 14 2 14 25 -1 14 -9 25 -21 25 -26z m-1775 23 c11 -5 21 -13 21 -20
1 -6 2 -12 3 -13 2 -2 4 -14 7 -27 2 -13 13 -32 24 -41 11 -10 20 -24 20 -33
0 -8 5 -17 10 -19 7 -2 6 -10 -2 -21 -13 -17 -14 -17 -36 4 -13 11 -29 22 -35
23 -7 2 -20 6 -29 10 -9 4 -22 5 -29 1 -8 -6 -8 -2 0 13 7 14 8 23 1 27 -17
11 -11 32 11 38 15 4 20 11 15 21 -3 9 -9 23 -12 31 -7 16 0 18 31 6z m-518
-19 c-1 -10 -12 -30 -24 -45 -17 -22 -22 -24 -27 -12 -3 9 1 18 9 21 8 4 15
10 15 15 0 9 21 38 27 39 2 0 2 -8 0 -18z m1863 -3 c0 -8 4 -8 13 -2 21 16 56
13 67 -6 7 -14 6 -18 -8 -18 -9 0 -24 -1 -32 -2 -17 -1 -48 -47 -53 -77 -4
-29 -30 -61 -51 -65 -24 -5 -53 -56 -51 -89 1 -14 -4 -34 -11 -45 -22 -34 -24
-111 -5 -132 14 -15 17 -31 13 -81 -5 -71 -29 -88 -34 -24 -3 34 -6 37 -30 35
-31 -2 -34 2 -15 22 16 15 14 108 -2 113 -6 2 -9 8 -5 13 3 5 -2 12 -10 15 -9
3 -14 10 -11 15 3 4 -8 15 -24 23 -27 14 -31 14 -45 1 -13 -14 -16 -13 -26 4
-16 31 -12 36 28 36 70 -1 122 27 136 73 4 12 10 21 14 19 17 -5 81 47 96 78
9 19 20 35 25 35 9 0 8 31 -2 46 -7 12 1 24 15 24 4 0 8 -5 8 -11z m485 -30
c11 -10 26 -19 34 -21 8 -2 30 -18 50 -35 19 -18 40 -33 47 -33 13 0 54 -34
54 -44 0 -9 15 -24 51 -51 14 -11 26 -24 27 -28 1 -4 23 -26 49 -48 79 -67
104 -91 99 -96 -3 -3 -11 -1 -18 3 -7 5 -20 7 -30 6 -15 -3 -88 83 -80 95 4 6
-85 73 -97 73 -6 0 -11 7 -11 15 0 8 -4 15 -10 15 -5 0 -10 6 -10 13 -1 11
-46 48 -128 104 -37 26 -85 70 -62 58 8 -4 24 -16 35 -26z m-2225 -4 c-7 -8
-9 -23 -6 -32 6 -15 3 -14 -15 3 -24 25 -18 44 13 44 17 0 18 -3 8 -15z m-78
-37 c-7 -7 -12 -8 -12 -2 0 6 3 14 7 17 3 4 9 5 12 2 2 -3 -1 -11 -7 -17z
m-22 -18 c0 -5 -5 -10 -11 -10 -5 0 -7 5 -4 10 3 6 8 10 11 10 2 0 4 -4 4 -10z
m2319 -73 c14 9 25 4 57 -26 21 -21 47 -42 58 -48 17 -9 16 -13 -18 -46 -35
-36 -36 -37 -32 -104 3 -39 0 -73 -6 -80 -6 -7 -7 -13 -3 -13 4 0 2 -7 -5 -15
-7 -8 -9 -15 -4 -15 5 0 2 -5 -6 -10 -11 -7 -15 -27 -15 -74 0 -51 -5 -70 -22
-92 l-22 -27 -27 22 c-15 11 -33 21 -41 21 -8 0 -12 4 -8 9 8 14 -30 32 -41
21 -6 -6 -19 -1 -34 13 -28 24 -41 26 -83 8 -16 -6 -33 -9 -38 -6 -5 4 -14 -5
-20 -19 -10 -21 -15 -23 -31 -15 -14 8 -25 6 -42 -5 -17 -11 -26 -12 -35 -3
-8 8 -11 7 -11 -6 0 -13 -6 -15 -29 -11 -22 5 -32 1 -45 -17 -9 -13 -16 -18
-16 -12 0 7 -9 21 -21 31 -18 17 -21 50 -9 82 1 3 2 14 1 25 -2 19 3 20 71 19
75 -2 138 10 138 27 0 5 3 8 8 7 15 -3 78 31 98 54 21 22 35 59 40 105 2 11
11 31 21 43 10 12 26 31 35 42 9 11 22 35 28 54 7 19 15 34 20 34 4 0 11 11
14 25 6 25 7 25 32 8 20 -12 30 -14 43 -6z m-1656 -77 c36 -33 33 -41 -3 -10
-13 11 -29 20 -37 20 -8 0 -11 5 -8 10 9 15 13 13 48 -20z m-929 -155 c-4 -8
-10 -15 -15 -15 -5 0 -9 -7 -9 -15 0 -8 -2 -15 -4 -15 -2 0 -13 -3 -23 -7 -10
-3 -15 -3 -11 2 4 4 3 14 -4 22 -8 10 -8 12 4 8 8 -3 23 3 33 15 21 24 37 26
29 5z m350 -300 c-4 -8 -10 -12 -15 -9 -11 6 -2 24 11 24 5 0 7 -7 4 -15z
m1546 -117 c0 -10 -4 -18 -10 -18 -9 0 -14 14 -11 33 0 4 -3 7 -8 7 -5 0 -11
10 -14 21 -6 21 -5 21 19 -2 13 -12 24 -31 24 -41z m4 -68 l5 -35 -14 30 c-7
17 -11 34 -8 38 8 12 11 5 17 -33z m701 -210 c-10 -11 -14 -20 -9 -20 5 0 1
-5 -9 -11 -10 -6 -22 -22 -27 -35 -5 -13 -16 -24 -25 -24 -8 0 -15 -4 -15 -8
0 -4 -16 -25 -35 -45 -19 -20 -35 -39 -35 -42 0 -3 -27 -32 -60 -65 -33 -33
-60 -65 -60 -72 0 -8 -15 -22 -32 -32 -18 -10 -58 -45 -89 -77 l-56 -59 3 37
c2 21 12 63 21 93 9 30 16 61 15 68 -2 6 2 12 8 12 5 0 9 4 8 9 -4 13 53 82
63 75 5 -3 9 2 9 10 0 8 8 17 18 20 10 4 27 14 38 24 27 23 47 35 134 79 41
20 77 41 78 45 2 4 10 8 18 8 8 0 14 5 14 11 0 5 5 7 10 4 6 -3 10 -1 10 4 0
6 5 11 12 11 6 0 3 -9 -7 -20z m-473 -209 c10 -9 18 -24 18 -34 0 -15 -3 -17
-13 -8 -8 6 -17 7 -21 3 -5 -4 -7 0 -5 8 2 8 -3 26 -10 39 -14 26 -6 23 31 -8z
m-110 -41 c-18 -31 -32 -39 -32 -17 0 17 32 57 42 51 4 -2 -1 -18 -10 -34z
m-2 -76 c0 -8 -5 -12 -10 -9 -6 4 -8 11 -5 16 9 14 15 11 15 -7z m-40 -4 c12
-7 12 -10 1 -10 -7 0 -11 -6 -7 -15 3 -8 2 -15 -3 -15 -5 0 -11 11 -13 25 -6
27 -1 30 22 15z m-150 -33 c0 -2 -9 -14 -20 -27 -11 -13 -20 -19 -20 -15 0 5
7 17 17 27 15 17 23 22 23 15z m135 -67 c-2 -30 -21 -45 -21 -17 0 17 10 35
22 37 0 0 0 -9 -1 -20z m-264 -27 c-12 -20 -14 -14 -5 12 4 9 9 14 11 11 3 -2
0 -13 -6 -23z m-119 -23 c-12 -12 -22 -18 -22 -14 0 12 33 45 38 39 3 -3 -4
-14 -16 -25z m-272 -141 c0 -6 -7 -17 -15 -25 -13 -14 -15 -13 -15 4 0 10 3
22 7 25 10 11 23 8 23 -4z m461 -142 c-7 -19 -21 -43 -31 -52 -24 -22 -25 -38
-5 -55 8 -7 12 -17 8 -24 -4 -6 -8 -14 -8 -17 0 -4 -11 -18 -25 -32 l-26 -25
2 51 c1 28 7 53 13 55 6 2 11 10 11 18 0 8 9 22 20 31 11 10 20 26 20 35 0 19
22 60 28 53 2 -2 -1 -19 -7 -38z m-253 -255 c4 -14 -24 -16 -33 -2 -4 6 -10 8
-14 6 -4 -3 -13 0 -21 5 -11 6 -3 8 24 6 22 -1 41 -8 44 -15z"/>
</g>
</svg>
