<?xml version="1.0" standalone="no"?>
<!DOCTYPE svg PUBLIC "-//W3C//DTD SVG 20010904//EN"
 "http://www.w3.org/TR/2001/REC-SVG-20010904/DTD/svg10.dtd">
<svg version="1.0" xmlns="http://www.w3.org/2000/svg"
 width="667.000000pt" height="639.000000pt" viewBox="0 0 667.000000 639.000000"
 preserveAspectRatio="xMidYMid meet">
<metadata>
Created by potrace 1.13, written by Peter Selinger 2001-2015
</metadata>
<g transform="translate(0.000000,639.000000) scale(0.100000,-0.100000)"
fill="#000000" stroke="none">
<path d="M2253 6108 c-15 -20 -23 -48 -14 -48 5 0 8 -8 7 -17 -2 -10 6 -24 16
-32 17 -12 18 -15 4 -30 -8 -9 -26 -17 -40 -19 -42 -3 -51 -6 -64 -24 -7 -10
-20 -18 -28 -18 -8 0 -14 -7 -14 -15 0 -8 -4 -14 -10 -12 -10 2 -70 -62 -70
-76 0 -5 -4 -6 -9 -3 -4 3 -23 -6 -41 -19 -18 -13 -36 -22 -41 -20 -4 3 -9 2
-11 -3 -3 -8 -165 -73 -185 -75 -7 0 -13 -4 -13 -9 0 -5 -6 -8 -12 -7 -43 5
-80 -4 -103 -25 -15 -14 -24 -29 -21 -35 3 -5 0 -15 -7 -23 -18 -18 -13 -84 9
-133 10 -22 18 -43 18 -46 1 -9 76 -72 76 -64 0 4 6 3 13 -2 6 -6 20 -9 30 -8
23 4 83 -21 109 -45 12 -10 34 -22 49 -25 16 -4 29 -11 29 -16 0 -5 3 -8 8 -8
4 1 10 0 15 -1 14 -5 27 -8 42 -9 8 0 14 -5 12 -10 -3 -12 95 -121 109 -121 7
0 29 -16 50 -35 22 -19 44 -35 49 -35 15 0 70 -51 67 -62 -1 -5 5 -16 13 -24
8 -9 13 -20 9 -25 -3 -5 2 -12 10 -15 9 -3 14 -10 11 -14 -3 -5 4 -29 15 -54
14 -34 17 -53 10 -71 -5 -13 -5 -27 -1 -30 13 -7 19 -64 8 -68 -6 -2 -11 -14
-13 -28 -1 -13 -3 -24 -4 -24 -2 0 -8 -28 -16 -77 -3 -21 -10 -38 -16 -38 -5
0 -7 -4 -3 -9 3 -5 1 -12 -3 -15 -5 -3 -8 -15 -7 -28 1 -13 -2 -26 -7 -29 -5
-3 -11 -21 -13 -40 -2 -19 -4 -36 -5 -39 -1 -3 -2 -9 -1 -14 1 -4 -4 -14 -10
-22 -6 -8 -8 -14 -5 -14 4 0 -9 -20 -29 -45 -21 -25 -35 -51 -32 -59 3 -8 2
-16 -3 -18 -5 -2 -11 -12 -13 -23 -2 -11 -8 -29 -14 -40 -6 -11 -12 -23 -12
-27 -4 -20 -14 -38 -22 -38 -15 0 -50 -40 -44 -50 4 -6 1 -10 -6 -10 -21 0
-76 -77 -71 -102 1 -3 -5 -12 -13 -18 -8 -7 -15 -17 -15 -22 0 -5 -9 -18 -20
-30 -10 -12 -17 -24 -15 -28 3 -4 -2 -13 -10 -20 -11 -9 -12 -17 -5 -30 11
-21 3 -50 -13 -50 -8 0 -7 -4 1 -12 9 -9 7 -19 -9 -45 -14 -23 -20 -45 -17
-68 2 -19 1 -35 -3 -35 -3 0 -7 -11 -8 -25 -4 -75 3 -125 19 -135 8 -6 11 -10
5 -10 -5 0 -2 -7 9 -15 10 -8 16 -20 13 -28 -3 -7 4 -19 14 -25 10 -7 18 -15
18 -20 -3 -20 2 -32 16 -32 18 0 19 -12 4 -27 -8 -8 -6 -15 10 -25 11 -7 21
-16 21 -20 0 -15 79 -90 89 -83 17 10 13 -11 -4 -25 -8 -7 -15 -18 -15 -26 0
-7 -8 -20 -17 -30 -10 -10 -16 -19 -15 -21 5 -5 -8 -84 -21 -123 -6 -19 -11
-37 -12 -40 -2 -13 -70 -146 -79 -156 -14 -14 -59 -39 -67 -37 -3 1 -18 -9
-34 -23 -15 -13 -34 -24 -42 -24 -7 0 -13 -5 -13 -11 0 -8 -4 -8 -12 -2 -7 6
-24 9 -38 7 -14 -2 -39 -5 -56 -7 -16 -2 -36 -7 -42 -11 -7 -4 -16 -5 -21 -2
-5 3 -12 -1 -15 -10 -3 -8 -10 -12 -16 -9 -5 3 -10 -1 -10 -9 0 -9 -5 -16 -11
-16 -6 0 8 -19 32 -43 50 -49 119 -103 119 -93 0 4 12 -5 27 -19 15 -14 32
-25 38 -26 5 0 18 -2 27 -4 10 -2 20 1 24 6 3 5 14 9 25 9 10 0 19 6 19 14 0
15 21 26 52 26 23 0 43 18 52 48 4 12 11 22 16 22 5 0 14 17 20 37 7 21 18 43
25 48 6 6 13 13 14 17 11 43 86 148 105 148 9 0 26 14 82 68 25 23 49 42 54
42 4 0 13 13 19 30 5 17 17 30 25 30 9 0 16 4 16 9 0 7 59 41 73 41 14 0 -3
-180 -22 -229 -11 -30 -19 -57 -17 -59 3 -2 -5 -14 -16 -27 -11 -13 -19 -26
-19 -29 1 -4 -5 -14 -14 -22 -8 -9 -15 -21 -15 -29 0 -19 -61 -75 -82 -75 -10
0 -47 -13 -83 -29 -35 -16 -66 -27 -69 -23 -3 3 -6 0 -6 -6 0 -6 -9 -14 -20
-17 -11 -3 -20 -13 -20 -21 0 -8 -6 -14 -12 -14 -10 0 -10 -2 0 -9 8 -4 14
-12 15 -17 2 -20 111 -81 154 -87 11 -2 28 -9 36 -15 13 -11 19 -9 36 9 12 13
21 19 21 13 0 -5 9 5 20 21 11 17 20 38 20 48 0 15 4 14 26 -8 l26 -26 39 42
c22 24 42 53 45 66 4 13 11 23 16 23 5 0 8 6 6 12 -3 7 2 19 9 27 8 7 12 20 9
27 -3 8 -2 14 3 14 4 0 7 14 6 30 -1 17 2 30 7 30 5 0 6 5 3 10 -3 6 -2 10 4
10 6 0 8 7 5 15 -4 8 -1 15 5 15 6 0 8 7 5 15 -4 8 -1 15 5 15 6 0 11 6 11 14
0 8 6 21 14 28 7 8 16 23 20 34 3 11 22 37 41 57 20 21 33 42 30 47 -4 6 -1
10 4 10 6 0 11 7 11 15 0 8 4 15 9 15 6 0 16 12 23 27 19 39 46 52 62 30 7 -9
31 -19 52 -22 63 -7 74 -10 94 -27 28 -24 53 -36 68 -31 6 3 12 -1 12 -8 0 -7
3 -9 7 -6 3 4 12 2 20 -4 10 -9 13 -8 13 2 0 10 3 10 12 1 7 -7 22 -12 35 -12
16 0 27 -10 40 -37 17 -37 43 -71 43 -58 0 4 11 0 25 -9 16 -10 34 -14 47 -10
12 3 18 2 15 -3 -8 -13 21 -53 39 -53 8 0 14 -4 14 -9 0 -20 51 -70 66 -64 8
3 14 2 12 -3 -4 -13 52 -84 67 -84 12 0 39 -63 49 -116 3 -10 7 -27 11 -36 4
-11 3 -18 -5 -18 -6 0 -10 -6 -8 -12 3 -7 -1 -19 -8 -26 -7 -7 -16 -28 -20
-48 -5 -28 -2 -38 16 -54 26 -22 40 -25 40 -9 0 5 4 8 9 4 6 -3 13 1 18 9 11
19 80 49 87 37 3 -4 16 -7 29 -6 14 2 36 -8 57 -26 35 -31 45 -35 54 -20 3 5
15 11 26 14 11 3 18 1 14 -4 -3 -5 6 -20 20 -34 23 -23 26 -23 35 -8 11 21 23
12 28 -19 4 -24 26 -43 31 -28 2 6 8 10 13 10 6 0 8 -4 5 -9 -3 -5 1 -14 9
-21 12 -10 18 -10 29 -1 11 10 20 10 36 1 12 -6 28 -9 35 -6 7 2 27 -8 44 -24
17 -17 37 -27 45 -24 18 7 30 0 85 -46 22 -19 41 -42 41 -51 0 -10 6 -19 12
-21 14 -5 20 -68 8 -83 -5 -6 -10 -24 -12 -40 -2 -17 -8 -36 -15 -42 -6 -7
-19 -36 -28 -65 -19 -59 -42 -99 -80 -142 -14 -16 -25 -35 -25 -43 0 -7 -5
-13 -11 -13 -5 0 -7 -4 -4 -10 3 -5 -5 -22 -19 -37 -15 -15 -26 -34 -26 -42 0
-8 -3 -12 -6 -8 -7 7 -34 -17 -34 -30 0 -4 -14 -17 -30 -28 -16 -11 -30 -23
-30 -27 0 -5 -6 -8 -14 -8 -8 0 -16 -7 -20 -15 -3 -8 -15 -15 -26 -15 -11 0
-23 -7 -27 -16 -3 -8 -12 -13 -19 -10 -7 3 -18 -3 -23 -12 -6 -9 -11 -13 -11
-9 0 5 -14 -1 -30 -13 -17 -12 -37 -23 -45 -24 -8 -1 -17 -5 -20 -8 -3 -3 -23
-2 -45 2 -22 4 -40 4 -40 1 0 -4 -12 -7 -27 -7 -66 -1 -123 -32 -123 -67 0
-10 29 -48 65 -84 36 -36 65 -62 65 -59 0 4 20 -5 44 -19 52 -30 67 -27 117
28 36 40 37 40 44 16 16 -50 36 -51 82 -4 24 23 43 48 43 54 0 7 4 10 9 7 5
-3 14 1 21 9 7 8 10 15 6 15 -8 0 20 34 77 92 26 27 47 46 47 41 1 -4 9 2 19
14 10 12 21 19 25 16 3 -3 8 2 12 11 3 9 10 13 15 10 5 -3 9 -1 9 4 0 6 11 13
25 16 14 4 25 11 25 17 0 6 4 8 9 5 5 -3 20 3 33 14 14 11 28 16 32 13 3 -3 6
1 6 10 0 9 3 16 8 15 4 -2 28 12 55 30 43 30 54 30 48 -2 -5 -27 -12 -108 -14
-158 -1 -32 -5 -58 -10 -58 -4 0 -6 -4 -3 -8 3 -5 -1 -20 -9 -35 -7 -14 -11
-28 -7 -31 3 -3 0 -6 -7 -6 -7 0 -10 -4 -7 -9 7 -11 -23 -101 -35 -101 -4 0
-6 -7 -3 -15 4 -8 1 -15 -5 -15 -6 0 -11 -7 -11 -15 0 -9 -21 -37 -47 -63 -26
-26 -47 -50 -45 -54 1 -5 -3 -8 -9 -8 -9 0 -72 -42 -89 -60 -16 -16 -62 -32
-79 -27 -12 3 -21 1 -21 -3 0 -5 -13 -5 -29 0 -18 5 -33 4 -40 -3 -10 -10 -45
-16 -93 -18 -10 0 -18 -5 -18 -10 0 -6 -4 -7 -10 -4 -5 3 -10 1 -10 -4 0 -6
-6 -11 -14 -11 -7 0 -19 -7 -26 -15 -10 -12 -9 -16 4 -21 9 -3 13 -10 10 -15
-6 -10 70 -90 89 -93 6 -1 19 -6 27 -11 35 -23 67 -37 90 -41 14 -2 35 -6 48
-9 12 -3 22 -1 22 5 0 6 4 9 9 5 5 -3 24 8 42 24 23 22 37 28 49 21 12 -7 27
5 65 51 28 33 54 69 59 79 5 11 13 20 18 20 4 0 8 5 8 11 0 6 6 16 13 23 6 7
23 27 37 44 14 18 31 32 38 32 6 0 12 3 12 8 0 12 52 65 105 107 28 22 58 48
67 58 9 10 24 20 33 21 9 1 20 8 24 15 5 7 10 11 12 10 2 -2 19 8 37 21 21 16
36 38 43 64 5 23 13 48 16 56 4 8 7 18 8 23 2 4 4 9 5 12 1 3 3 9 4 14 0 5 17
28 36 51 19 23 35 45 36 48 2 20 18 42 28 42 7 0 27 12 44 28 50 43 75 62 85
62 5 0 15 7 24 16 9 8 22 13 29 10 8 -3 14 -2 14 2 0 6 74 46 89 48 12 2 67
24 81 34 8 5 35 19 60 31 25 13 48 27 51 32 4 5 10 4 14 -3 5 -8 11 -6 20 7 7
10 11 22 8 27 -4 5 -1 6 6 2 6 -4 18 -2 26 4 12 10 15 10 15 -2 0 -15 -25 -45
-58 -67 -12 -8 -19 -18 -16 -22 5 -9 -26 -49 -38 -49 -11 0 -118 -105 -118
-115 0 -9 -35 -42 -74 -70 -15 -11 -40 -30 -54 -43 -15 -13 -44 -35 -64 -48
-21 -13 -38 -29 -38 -34 0 -6 -7 -10 -15 -10 -8 0 -15 -4 -15 -10 0 -5 -16
-25 -35 -44 -19 -20 -35 -40 -35 -46 0 -5 -4 -10 -10 -10 -5 0 -10 -6 -10 -12
0 -7 -11 -26 -25 -42 -14 -16 -25 -35 -25 -43 0 -7 -4 -13 -9 -13 -5 0 -13
-10 -16 -21 -4 -12 -20 -40 -35 -63 -16 -22 -26 -44 -23 -49 2 -4 -5 -22 -16
-41 -22 -35 -28 -81 -11 -91 9 -5 88 33 118 57 6 6 12 8 12 4 0 -3 16 11 35
31 19 20 35 41 35 47 0 5 3 7 6 3 3 -3 17 4 30 16 12 12 29 27 36 33 7 6 25
26 40 45 14 19 38 47 52 63 13 17 23 33 20 38 -3 4 -1 8 4 8 5 0 17 15 25 33
9 17 28 44 42 59 14 15 25 32 25 37 0 6 14 26 31 46 17 19 28 35 24 35 -4 0 5
14 19 31 14 17 26 35 26 40 0 6 6 16 13 23 6 7 26 30 42 51 44 55 56 66 66 60
5 -4 9 -1 9 5 0 6 15 27 33 47 17 19 31 39 30 44 -2 5 1 9 6 9 10 0 90 73 217
198 47 45 88 82 93 82 4 0 14 11 21 25 7 13 16 23 19 22 10 -3 81 46 81 56 0
4 5 7 11 7 12 0 69 60 69 73 0 4 7 7 15 7 8 0 15 4 15 9 0 5 23 33 50 62 28
29 50 56 50 61 0 4 6 8 13 8 6 0 22 13 34 28 12 15 33 41 47 57 14 17 26 33
26 38 0 4 9 7 19 7 12 0 21 10 26 27 3 15 18 37 31 50 14 13 22 23 19 23 -4 0
3 13 15 30 12 17 18 30 14 30 -4 0 2 10 14 23 12 13 19 27 15 30 -3 4 -2 7 3
7 16 0 11 169 -5 179 -7 5 -11 13 -8 18 10 16 -98 152 -121 153 -4 0 -28 20
-53 43 -25 23 -66 58 -90 78 -110 91 -128 107 -123 111 2 3 -8 14 -22 24 -15
10 -36 28 -48 39 -11 11 -43 38 -71 60 -66 53 -101 87 -98 97 2 4 -1 8 -6 8
-5 0 -30 19 -56 42 -27 24 -52 44 -56 44 -5 1 -14 2 -20 3 -5 0 -8 5 -5 9 5 9
-28 42 -43 42 -4 0 -19 9 -32 21 -13 11 -33 28 -44 37 -81 67 -142 119 -153
129 -7 7 -19 13 -26 13 -6 0 -28 15 -47 33 -50 46 -126 107 -134 107 -6 0 -33
21 -128 100 -10 8 -22 15 -26 15 -5 0 -24 14 -43 30 -18 17 -53 46 -78 65 -24
19 -57 46 -72 60 -15 14 -33 30 -40 35 -12 9 -58 48 -133 114 -17 14 -53 44
-80 66 -28 22 -60 49 -72 60 -11 11 -30 27 -41 35 -27 21 -109 90 -146 123
-40 36 -81 58 -91 49 -5 -4 -6 0 -2 9 4 11 -7 26 -31 45 -31 25 -64 53 -128
109 -6 6 -21 17 -33 25 -11 8 -21 19 -21 25 0 6 -11 19 -25 29 -13 10 -22 22
-19 27 3 5 1 9 -5 9 -12 0 -161 144 -161 156 0 12 -42 97 -55 110 -6 6 -20 16
-33 23 -12 6 -22 18 -22 26 0 7 -18 28 -40 45 -23 18 -39 34 -36 37 2 2 -14
22 -35 44 -21 22 -39 42 -39 46 0 7 -56 57 -96 85 -17 11 -35 30 -40 42 -5 12
-17 20 -27 18 -10 -2 -17 3 -17 12 0 9 -13 22 -30 31 -16 8 -40 26 -54 40 -14
14 -31 25 -37 25 -7 0 -22 8 -33 18 -28 25 -96 65 -96 57 0 -3 -11 6 -26 20
-38 38 -98 67 -113 52 -8 -8 -11 -7 -11 5 0 9 -10 20 -22 24 -12 3 -28 12 -35
19 -7 7 -21 11 -32 8 -10 -2 -28 4 -40 14 -12 10 -25 18 -29 18 -34 3 -73 35
-42 35 7 0 9 21 6 55 -4 45 -10 60 -30 76 -14 11 -29 20 -33 20 -4 1 -15 5
-24 9 -8 5 -21 5 -29 0 -9 -5 -20 -5 -27 2 -8 6 -16 8 -20 4 -6 -6 -56 28 -97
66 -20 18 -23 20 -54 22 -10 0 -37 16 -60 35 -23 19 -47 36 -54 38 -7 1 -25 5
-39 9 -15 3 -29 1 -36 -8z m27 -292 c-13 -11 -19 -15 -16 -8 4 7 2 20 -6 29
-7 9 -8 14 -2 10 7 -4 15 1 19 11 6 16 7 16 17 -2 8 -14 6 -23 -12 -40z m81
25 c18 -17 19 -19 2 -32 -12 -10 -15 -10 -9 -1 4 7 2 20 -5 28 -8 10 -14 11
-19 4 -5 -7 -11 -6 -20 5 -11 13 -9 15 9 15 12 0 31 -8 42 -19z m136 4 c0 -8
-4 -12 -9 -9 -4 3 -8 9 -8 15 0 5 4 9 8 9 5 0 9 -7 9 -15z m-58 -14 c-12 -18
-49 -18 -49 1 0 5 4 7 9 3 5 -3 12 -1 16 5 3 5 13 10 21 10 11 0 12 -4 3 -19z
m-421 -138 c-2 -9 -10 -17 -18 -19 -8 -1 -24 -5 -35 -10 -15 -5 -14 -1 8 19
32 31 50 35 45 10z m1427 -2942 c3 -5 2 -12 -3 -15 -5 -3 -9 1 -9 9 0 17 3 19
12 6z m358 -86 c-5 -16 -16 -19 -26 -9 -7 8 16 33 25 28 4 -3 5 -11 1 -19z
m-14 -121 c-7 -8 -7 -14 0 -18 17 -11 -19 -44 -40 -39 -20 6 -27 23 -9 23 6 0
10 7 10 15 0 8 6 15 13 16 10 0 10 2 0 6 -7 2 -13 11 -13 19 0 11 5 11 25 2
18 -8 22 -14 14 -24z m-115 -20 c5 -14 4 -15 -9 -4 -17 14 -19 20 -6 20 5 0
12 -7 15 -16z m-1865 -23 c8 -5 9 -11 3 -15 -5 -3 -15 1 -22 9 -14 16 -3 20
19 6z m2896 -107 c7 2 16 2 19 -2 4 -3 14 -7 22 -8 33 -5 44 -14 42 -36 -1
-13 2 -34 6 -47 6 -17 5 -22 -4 -16 -7 4 -16 2 -20 -4 -5 -9 -11 -8 -23 3 -15
15 -17 15 -27 -4 -6 -11 -17 -20 -24 -20 -14 0 -26 -20 -33 -53 -2 -10 -9 -28
-15 -40 -7 -12 -14 -30 -15 -39 -7 -46 -11 -63 -13 -63 -2 0 -10 -68 -13 -108
-1 -10 -7 -15 -13 -13 -7 3 -14 0 -16 -6 -3 -7 -10 -8 -21 -2 -15 9 -15 12 6
34 12 14 23 36 24 50 7 62 11 80 21 93 7 8 8 17 4 21 -9 10 -9 69 0 76 15 12
16 59 1 80 -11 16 -12 25 -4 33 17 17 13 35 -8 42 -11 3 -18 12 -17 19 3 21
27 47 37 40 5 -3 12 2 16 11 5 14 10 12 31 -15 13 -17 30 -29 37 -26z m-805
42 c0 -2 -7 -6 -15 -10 -8 -3 -15 -1 -15 4 0 6 7 10 15 10 8 0 15 -2 15 -4z
m640 -84 c0 -8 10 -23 22 -33 11 -11 17 -19 11 -19 -5 0 -13 3 -17 8 -12 11
-30 9 -42 -7 -13 -16 -54 -26 -54 -12 0 5 -8 7 -19 4 -10 -3 -22 0 -25 5 -3 6
-15 8 -26 5 -16 -4 -19 -2 -14 13 12 34 16 35 34 14 11 -13 21 -17 25 -10 3 5
15 10 26 10 11 0 22 8 26 18 12 33 25 43 39 31 8 -6 14 -18 14 -27z m437 -287
c-3 -18 2 -30 16 -40 14 -10 18 -22 15 -45 -3 -17 -1 -33 4 -36 5 -3 4 -12 -2
-19 -9 -10 -7 -23 5 -49 10 -20 22 -36 27 -36 5 0 2 -10 -6 -22 -14 -19 -13
-24 4 -49 26 -36 25 -45 -2 -19 -27 25 -35 25 -43 1 -3 -11 -12 -18 -19 -15
-12 4 -23 -10 -31 -38 -2 -5 -4 -11 -5 -15 -1 -5 -2 -11 -2 -15 1 -3 -5 -9
-13 -12 -8 -3 -15 0 -15 7 0 7 -5 18 -12 25 -6 6 -13 21 -15 32 -2 15 3 20 22
20 15 0 25 6 25 14 0 8 6 21 13 28 7 7 23 32 35 56 20 39 20 43 5 49 -10 4
-23 -2 -36 -18 -19 -24 -20 -24 -13 -1 5 15 3 24 -8 28 -16 6 -23 34 -8 34 4
0 8 11 8 25 1 14 -3 25 -10 25 -7 0 -6 3 2 9 14 9 18 38 8 61 -5 11 0 16 16
17 13 1 24 7 26 13 7 21 14 9 9 -15z m-149 -308 c6 -7 8 -18 4 -24 -5 -7 -11
-3 -19 13 -12 26 -3 33 15 11z m-779 -506 c-44 -42 -51 -39 -9 4 18 19 35 33
38 31 2 -2 -11 -18 -29 -35z m-119 -145 c0 -3 -4 -8 -10 -11 -5 -3 -10 -1 -10
4 0 6 5 11 10 11 6 0 10 -2 10 -4z m-300 -86 c8 -15 8 -20 -2 -20 -18 1 -49
26 -41 33 12 13 32 7 43 -13z m445 -430 c-3 -5 -1 -10 4 -10 6 0 11 -4 11 -10
0 -12 -20 -13 -39 -1 -16 10 -6 31 15 31 8 0 12 -4 9 -10z"/>
</g>
</svg>
