<?xml version="1.0" standalone="no"?>
<!DOCTYPE svg PUBLIC "-//W3C//DTD SVG 20010904//EN"
 "http://www.w3.org/TR/2001/REC-SVG-20010904/DTD/svg10.dtd">
<svg version="1.0" xmlns="http://www.w3.org/2000/svg"
 width="432.000000pt" height="273.000000pt" viewBox="0 0 432.000000 273.000000"
 preserveAspectRatio="xMidYMid meet">
<metadata>
Created by potrace 1.13, written by Peter Selinger 2001-2015
</metadata>
<g transform="translate(0.000000,273.000000) scale(0.100000,-0.100000)"
fill="#000000" stroke="none">
<path d="M3183 2671 c-39 -11 -79 -24 -90 -29 -93 -47 -119 -54 -258 -77 -55
-8 -127 -24 -160 -35 -33 -10 -78 -22 -100 -26 -22 -4 -85 -17 -139 -31 -85
-21 -126 -24 -280 -25 -135 -1 -198 3 -246 14 -90 22 -261 31 -340 19 -215
-35 -233 -35 -458 -16 -180 16 -222 22 -244 38 -15 12 -35 17 -47 14 -15 -3
-21 0 -21 10 0 12 -7 14 -30 10 -17 -4 -30 -2 -30 3 0 6 5 10 10 10 26 0 -8
82 -39 96 -9 4 -43 11 -76 15 -33 4 -81 11 -107 14 -38 6 -55 3 -95 -16 -40
-20 -54 -23 -85 -15 -62 15 -141 -8 -191 -56 -23 -22 -64 -53 -92 -68 -27 -15
-51 -34 -53 -44 -4 -18 105 -136 125 -136 7 0 13 -6 13 -13 0 -18 24 -67 33
-67 4 0 7 -7 7 -15 0 -8 5 -15 10 -15 6 0 10 -8 10 -17 0 -26 -86 -190 -131
-250 -37 -49 -50 -95 -30 -107 5 -3 14 -25 20 -49 6 -25 16 -49 23 -54 7 -6
56 -13 108 -15 88 -4 100 -3 155 23 56 26 145 50 240 64 37 6 43 4 85 -37 25
-24 59 -50 75 -58 67 -33 181 -192 217 -302 12 -38 26 -68 30 -68 4 0 8 -10 8
-21 0 -12 20 -41 45 -67 25 -24 45 -48 45 -53 0 -4 9 -10 20 -14 10 -3 31 -31
47 -61 48 -96 104 -145 230 -204 58 -28 60 -31 88 -165 10 -44 26 -101 36
-127 11 -26 19 -56 19 -67 0 -12 5 -21 10 -21 6 0 10 -15 10 -32 0 -18 4 -49
9 -68 9 -39 -5 -211 -18 -220 -72 -45 -159 -133 -168 -168 -3 -15 -1 -27 8
-33 21 -13 191 -11 220 3 25 12 69 68 69 88 0 5 20 15 45 21 52 13 55 23 31
118 -23 90 -41 304 -27 329 6 11 11 45 11 74 0 52 0 52 14 26 8 -15 24 -37 35
-49 12 -13 21 -35 21 -50 0 -15 5 -31 10 -34 6 -3 10 -19 10 -34 0 -15 5 -32
10 -37 6 -6 11 -32 11 -60 1 -27 6 -63 11 -80 7 -27 3 -41 -32 -101 -24 -43
-40 -83 -40 -103 0 -32 1 -32 33 -25 17 4 48 10 67 14 45 9 121 57 127 80 2
10 18 25 34 35 16 10 29 26 29 37 0 26 -40 148 -57 175 -39 60 -66 171 -75
309 -5 77 -13 156 -18 175 -14 48 -12 87 3 92 6 3 57 -3 112 -13 55 -9 138
-24 185 -32 47 -8 117 -16 155 -17 39 0 101 -10 138 -22 72 -21 79 -21 197 11
41 11 86 21 100 21 14 0 65 14 114 30 l88 30 52 -46 c51 -45 159 -104 190
-104 12 0 15 -6 10 -24 -8 -34 20 -96 45 -96 11 0 26 6 33 12 7 7 24 13 37 13
19 0 27 7 33 30 5 17 6 41 3 53 -4 14 -2 21 4 18 5 -4 13 -27 17 -52 6 -45 7
-46 40 -42 33 4 35 2 45 -36 12 -44 7 -95 -21 -206 -10 -41 -24 -99 -30 -128
-7 -28 -16 -54 -20 -57 -5 -3 -14 -22 -21 -42 -6 -20 -16 -42 -21 -47 -60 -72
-118 -154 -118 -167 0 -30 54 -36 174 -18 72 11 74 12 91 49 12 28 25 39 46
44 33 6 52 52 28 67 -11 6 -11 15 -2 41 6 18 21 67 33 108 12 41 25 85 31 98
5 13 9 33 9 46 0 13 7 27 16 30 12 5 15 14 11 35 -4 17 1 52 12 83 16 49 19
51 29 31 15 -26 48 -239 57 -358 8 -103 -7 -156 -56 -206 -25 -25 -59 -110
-59 -145 0 -17 32 -34 64 -34 14 0 49 9 78 20 29 11 60 20 68 21 28 1 63 57
57 92 -5 34 6 50 42 62 20 6 22 12 17 38 -3 17 -12 38 -20 46 -10 11 -17 68
-24 191 -12 196 -11 191 -12 385 -1 146 -8 172 -59 223 -47 47 -121 172 -121
204 0 9 4 19 9 22 5 4 12 30 16 59 4 28 11 62 16 74 4 12 11 61 14 110 4 49
17 120 30 161 13 41 29 110 36 153 6 43 15 79 19 79 4 0 10 -44 14 -97 6 -86
33 -238 69 -383 6 -28 11 -172 11 -375 1 -281 4 -341 19 -405 10 -41 22 -83
27 -92 6 -10 11 -37 11 -60 1 -24 5 -60 10 -80 9 -37 11 -38 54 -38 31 0 45
-4 45 -13 0 -18 53 -67 72 -67 21 0 31 47 22 97 -4 21 -8 94 -9 163 0 69 -7
205 -14 304 -11 160 -15 182 -37 217 -13 21 -24 50 -24 65 0 14 -13 54 -29 88
-16 33 -41 109 -55 167 -14 58 -33 126 -41 150 -39 111 -47 181 -51 449 -3
280 -7 324 -30 347 -8 8 -17 26 -20 41 -8 40 -40 96 -61 107 -10 5 -31 19 -48
31 -75 52 -134 67 -321 84 -51 4 -105 15 -124 25 -51 26 -170 29 -257 6z
m-2843 -77 c0 -2 -12 -4 -26 -4 -14 0 -23 4 -20 9 6 8 46 4 46 -5z m241 -92
c-6 -2 -11 -15 -11 -28 0 -15 -6 -24 -15 -24 -28 0 -27 29 2 58 22 23 29 26
32 14 2 -9 -2 -18 -8 -20z m-260 9 c-8 -5 -20 -7 -28 -4 -21 8 -15 13 15 13
20 0 23 -3 13 -9z m3319 -1 c8 -5 11 -10 5 -10 -5 0 -17 5 -25 10 -8 5 -10 10
-5 10 6 0 17 -5 25 -10z m65 -30 c13 -6 15 -9 5 -9 -8 0 -22 4 -30 9 -18 12
-2 12 25 0z m-805 -30 c0 -15 -9 -21 -38 -26 -30 -5 -41 -12 -52 -37 -9 -20
-15 -26 -18 -17 -3 8 0 16 7 18 6 2 11 10 11 18 0 8 8 18 17 21 9 4 25 15 35
25 24 24 38 23 38 -2z m949 -61 c4 -19 6 -40 4 -46 -6 -18 -23 -16 -23 2 0 8
-9 15 -20 15 -13 0 -20 -7 -20 -20 0 -11 -4 -20 -10 -20 -5 0 -10 -7 -10 -15
0 -16 -9 -19 -34 -9 -20 8 -21 34 -1 34 9 0 15 10 15 26 0 25 2 25 40 19 44
-8 49 0 29 52 -9 26 -9 27 6 12 9 -9 20 -31 24 -50z m-2390 -3 c-2 -2 -22 -6
-44 -9 -27 -4 -35 -3 -25 3 14 9 79 15 69 6z m-899 -14 c0 -5 -7 -17 -16 -28
-8 -10 -14 -14 -11 -9 2 6 7 18 10 28 7 17 17 23 17 9z m2800 -22 c0 -5 -2
-10 -4 -10 -3 0 -8 5 -11 10 -3 6 -1 10 4 10 6 0 11 -4 11 -10z m267 -22 c-3
-8 -6 -5 -6 6 -1 11 2 17 5 13 3 -3 4 -12 1 -19z m-269 -55 c2 -18 7 -33 11
-33 5 0 11 -9 14 -20 4 -16 14 -20 51 -20 34 0 46 4 46 15 0 10 10 15 30 15
19 0 30 5 30 14 0 18 22 26 71 26 28 0 39 -4 39 -15 0 -8 -4 -15 -10 -15 -5 0
-10 -7 -10 -15 0 -18 -60 -35 -127 -35 -61 0 -83 -7 -83 -26 0 -8 -9 -14 -20
-14 -15 0 -20 7 -20 25 0 21 -9 30 -41 44 -37 17 -39 20 -20 26 28 9 27 43 -1
55 -21 9 -20 9 7 7 26 -2 30 -6 33 -34z m179 31 c-3 -3 -12 -4 -19 -1 -8 3 -5
6 6 6 11 1 17 -2 13 -5z m-757 -8 c0 -3 -4 -8 -10 -11 -5 -3 -10 -1 -10 4 0 6
5 11 10 11 6 0 10 -2 10 -4z m425 -6 c-3 -5 -14 -10 -23 -10 -15 0 -15 2 -2
10 20 13 33 13 25 0z m65 -3 c-14 -8 -27 -12 -30 -10 -7 6 23 23 40 23 8 0 4
-6 -10 -13z m200 -18 c0 -28 -1 -29 -16 -14 -9 8 -13 22 -10 30 10 26 26 16
26 -16z m235 -48 c-8 -37 -35 -42 -35 -6 0 14 5 25 10 25 6 0 10 8 10 17 0 12
3 14 11 6 7 -7 8 -24 4 -42z m-961 -26 c-4 -8 -13 -15 -21 -15 -11 0 -14 -7
-11 -25 3 -13 1 -22 -4 -19 -5 3 -21 3 -35 -1 -22 -5 -25 -10 -19 -36 5 -27 4
-29 -14 -19 -27 14 -27 60 -1 60 10 0 21 7 25 15 3 8 12 15 21 15 8 0 15 6 15
14 0 14 14 24 37 25 7 1 10 -6 7 -14z m-161 -95 c3 -11 1 -20 -4 -20 -5 0 -9
9 -9 20 0 11 2 20 4 20 2 0 6 -9 9 -20z m-53 -25 c0 -8 -4 -15 -9 -15 -5 0
-11 7 -15 15 -3 9 0 15 9 15 8 0 15 -7 15 -15z m-317 -10 c-3 -9 -8 -14 -10
-11 -3 3 -2 9 2 15 9 16 15 13 8 -4z m-216 -77 c-3 -8 -6 -5 -6 6 -1 11 2 17
5 13 3 -3 4 -12 1 -19z m611 5 c-10 -2 -26 -2 -35 0 -10 3 -2 5 17 5 19 0 27
-2 18 -5z m420 -36 c5 -23 -14 -21 -38 3 -26 26 -25 30 8 21 15 -4 28 -15 30
-24z m-1692 -52 c-20 -20 -26 -19 -26 5 0 11 7 20 15 20 8 0 16 6 16 13 1 6 3
4 6 -5 2 -10 -2 -25 -11 -33z m-1098 18 c-16 -2 -28 -9 -28 -14 0 -5 -4 -9
-10 -9 -5 0 -10 7 -10 15 0 11 10 15 38 14 30 -2 32 -3 10 -6z m1568 -30 c13
2 24 0 24 -4 0 -5 -11 -9 -25 -9 -17 0 -25 -6 -25 -17 0 -14 -2 -15 -9 -5 -4
7 -6 25 -2 40 4 21 6 23 9 9 3 -14 10 -18 28 -14z m536 10 c16 -14 24 -15 50
-5 24 9 34 9 39 0 4 -7 24 -9 53 -6 40 5 46 3 46 -13 0 -20 -34 -27 -45 -10
-6 11 -114 9 -133 -2 -7 -5 -19 -2 -28 7 -8 9 -22 16 -30 16 -20 0 -17 18 4
23 9 3 19 5 21 6 3 0 13 -7 23 -16z m-2175 -9 c-3 -3 -12 -4 -19 -1 -8 3 -5 6
6 6 11 1 17 -2 13 -5z m1943 -13 c0 -5 -7 -11 -15 -15 -9 -3 -15 0 -15 9 0 8
7 15 15 15 8 0 15 -4 15 -9z m-1772 -26 c-3 -3 -9 2 -12 12 -6 14 -5 15 5 6 7
-7 10 -15 7 -18z m1679 -1 c-3 -3 -12 -4 -19 -1 -8 3 -5 6 6 6 11 1 17 -2 13
-5z m155 -19 c9 -19 19 -25 44 -25 42 0 64 9 64 26 0 10 7 8 25 -8 32 -28 24
-38 -31 -38 -24 0 -44 -4 -44 -9 0 -11 -38 -21 -54 -15 -8 3 -11 15 -9 29 4
16 -1 27 -16 34 -24 14 -28 31 -6 31 9 0 21 -11 27 -25z m333 -53 c-3 -3 -11
0 -18 7 -9 10 -8 11 6 5 10 -3 15 -9 12 -12z m-705 -7 c0 -8 -4 -15 -10 -15
-5 0 -10 7 -10 15 0 8 5 15 10 15 6 0 10 -7 10 -15z m330 11 c0 -2 -11 -6 -25
-8 -14 -3 -25 -1 -25 3 0 5 11 9 25 9 14 0 25 -2 25 -4z m-270 -30 c0 -7 -11
-16 -25 -18 -29 -6 -36 18 -7 25 29 8 32 7 32 -7z m57 -92 c-3 -3 -12 -4 -19
-1 -8 3 -5 6 6 6 11 1 17 -2 13 -5z m-190 -56 c-3 -8 -6 -5 -6 6 -1 11 2 17 5
13 3 -3 4 -12 1 -19z m2030 -190 c-3 -8 -6 -5 -6 6 -1 11 2 17 5 13 3 -3 4
-12 1 -19z m-584 -14 c9 -3 17 -11 17 -19 0 -7 7 -16 16 -19 33 -13 5 -17 -35
-6 -33 9 -54 8 -103 -5 -34 -8 -67 -20 -75 -26 -17 -14 -16 -10 2 35 10 24 22
36 35 36 11 0 20 5 20 11 0 10 76 6 123 -7z m577 -24 c0 -11 -2 -20 -4 -20 -2
0 -6 9 -9 20 -3 11 -1 20 4 20 5 0 9 -9 9 -20z m-511 -108 c3 -6 19 -14 34
-17 26 -7 38 -25 17 -25 -5 0 -10 -9 -10 -20 0 -11 -4 -20 -10 -20 -5 0 -10 7
-10 15 0 16 -43 31 -59 20 -6 -3 -11 -15 -11 -26 0 -14 7 -19 25 -19 23 0 25
-4 25 -40 0 -34 -3 -40 -21 -40 -12 0 -23 8 -26 20 -3 11 -13 20 -22 21 -10 0
-11 2 -3 6 6 2 12 16 12 30 0 23 -3 25 -30 19 -29 -5 -30 -4 -24 22 4 15 11
29 16 30 4 2 8 13 8 24 0 18 5 20 41 15 23 -3 45 -10 48 -15z m-1452 -84 c-3
-8 -6 -5 -6 6 -1 11 2 17 5 13 3 -3 4 -12 1 -19z m1566 -17 c18 -2 4 -19 -20
-24 -22 -4 -53 10 -53 25 0 2 43 2 73 -1z m82 -11 c3 -5 1 -10 -4 -10 -6 0
-11 5 -11 10 0 6 2 10 4 10 3 0 8 -4 11 -10z m398 -55 c6 -16 3 -15 -13 5 -11
14 -20 32 -20 40 0 17 23 -13 33 -45z m-423 15 c0 -5 -7 -10 -15 -10 -8 0 -15
-9 -15 -19 0 -10 -7 -21 -15 -25 -8 -3 -15 -12 -15 -20 0 -9 -7 -12 -20 -9
-11 3 -20 12 -20 19 0 8 -6 14 -14 14 -10 0 -12 7 -9 21 6 20 7 21 19 5 16
-23 46 -17 59 12 10 22 45 31 45 12z m90 -31 c0 -5 -7 -9 -15 -9 -15 0 -20 12
-9 23 8 8 24 -1 24 -14z m284 -55 c3 -8 2 -12 -4 -9 -6 3 -10 10 -10 16 0 14
7 11 14 -7z m116 -13 c0 -4 9 -17 20 -29 17 -18 18 -22 5 -22 -8 0 -18 -1 -21
-2 -3 -2 -12 13 -18 34 -11 30 -11 35 0 31 8 -3 14 -8 14 -12z m-80 -41 c6
-11 17 -20 24 -20 9 0 12 -7 9 -20 -3 -12 2 -29 12 -40 21 -24 20 -25 -22 -35
-21 -4 -33 -3 -33 4 0 6 7 11 15 11 22 0 18 27 -10 64 -14 18 -25 38 -25 44 0
19 18 14 30 -8z m110 -194 c0 -8 2 -20 3 -28 2 -7 2 -10 0 -5 -7 12 -61 8 -65
-5 -3 -8 -9 -4 -17 10 -11 21 -10 22 19 22 16 0 30 5 30 10 0 6 7 10 15 10 8
0 15 -6 15 -14z m10 -133 c0 -32 -5 -28 -14 10 -4 19 -3 26 4 22 5 -3 10 -18
10 -32z m-43 -101 c4 -41 10 -52 24 -52 9 0 19 5 21 12 2 6 10 -51 17 -127 8
-96 9 -141 1 -149 -7 -7 -10 -1 -10 18 0 16 -9 43 -19 60 -12 19 -23 67 -30
121 -6 50 -15 106 -21 125 -13 46 -13 67 0 54 6 -6 13 -34 17 -62z m-1887
-193 c0 -10 -4 -19 -10 -19 -5 0 -10 14 -10 30 0 17 -4 30 -10 30 -5 0 -10 6
-10 13 1 20 40 -33 40 -54z m-313 -41 c-3 -7 -5 -2 -5 12 0 14 2 19 5 13 2 -7
2 -19 0 -25z m-4 -77 c-10 -17 -22 -31 -26 -31 -8 0 -6 5 23 47 21 32 24 21 3
-16z m2207 -31 c0 -5 -7 -10 -15 -10 -8 0 -15 5 -15 10 0 6 7 10 15 10 8 0 15
-4 15 -10z m-14 -90 c8 0 14 -6 14 -14 0 -13 -28 -28 -80 -41 -23 -6 -23 -5 8
20 17 15 32 34 33 43 0 11 2 12 6 5 2 -7 11 -13 19 -13z m-2376 -30 c0 -5 -10
-10 -22 -10 -19 0 -20 2 -8 10 19 13 30 13 30 0z m65 0 c3 -5 -1 -10 -9 -10
-9 0 -16 5 -16 10 0 6 4 10 9 10 6 0 13 -4 16 -10z"/>
<path d="M3170 1260 c0 -13 7 -20 20 -20 13 0 20 7 20 20 0 13 -7 20 -20 20
-13 0 -20 -7 -20 -20z"/>
</g>
</svg>
