<?xml version="1.0" standalone="no"?>
<!DOCTYPE svg PUBLIC "-//W3C//DTD SVG 20010904//EN"
 "http://www.w3.org/TR/2001/REC-SVG-20010904/DTD/svg10.dtd">
<svg version="1.0" xmlns="http://www.w3.org/2000/svg"
 width="580.000000pt" height="345.000000pt" viewBox="0 0 580.000000 345.000000"
 preserveAspectRatio="xMidYMid meet">
<metadata>
Created by potrace 1.13, written by Peter Selinger 2001-2015
</metadata>
<g transform="translate(0.000000,345.000000) scale(0.100000,-0.100000)"
fill="#000000" stroke="none">
<path d="M1410 3433 c-30 -2 -133 -15 -320 -39 -25 -3 -48 -10 -51 -16 -4 -6
-28 -12 -54 -14 -27 -2 -55 -10 -64 -18 -9 -7 -29 -16 -46 -19 -16 -3 -42 -9
-57 -13 -25 -6 -28 -4 -28 20 0 14 -5 26 -11 26 -6 0 -20 12 -32 26 -18 24
-25 26 -70 21 -33 -3 -57 -11 -67 -23 -28 -34 -58 -44 -127 -44 -44 -1 -75 -6
-87 -15 -11 -8 -40 -15 -64 -15 -94 0 -143 -30 -127 -78 6 -21 45 -42 75 -42
23 0 17 -35 -12 -66 -22 -24 -47 -119 -48 -178 0 -47 -17 -109 -43 -156 -11
-19 -38 -69 -60 -110 -21 -41 -55 -92 -73 -113 -38 -42 -43 -75 -18 -128 25
-50 42 -66 101 -95 43 -22 63 -26 105 -22 28 3 56 12 62 19 14 18 75 39 114
39 17 0 61 11 99 25 37 13 72 20 78 16 19 -16 119 -19 240 -9 88 8 120 8 123
-1 2 -6 15 -11 28 -11 13 0 24 -3 24 -7 0 -5 10 -13 23 -19 12 -6 41 -21 65
-33 23 -12 42 -28 42 -37 0 -8 14 -23 30 -32 17 -9 33 -26 36 -37 11 -39 29
-75 36 -75 5 0 8 -9 8 -19 0 -11 7 -26 15 -35 8 -8 15 -20 15 -27 0 -11 32
-86 51 -119 32 -56 49 -105 49 -143 0 -24 9 -62 20 -85 11 -22 20 -48 20 -56
0 -8 4 -17 9 -21 6 -3 7 -45 5 -97 -4 -62 -1 -112 10 -157 8 -36 18 -87 21
-113 4 -35 11 -49 26 -53 10 -4 19 -15 19 -26 0 -11 7 -27 15 -35 8 -9 15 -25
15 -36 0 -22 30 -78 42 -78 4 0 8 -7 8 -15 0 -8 3 -15 8 -15 4 0 13 -13 20
-30 8 -16 19 -30 25 -30 7 0 18 -9 25 -20 7 -12 28 -22 52 -26 22 -4 40 -10
40 -15 0 -5 11 -9 25 -9 14 0 25 -5 25 -11 0 -7 10 -9 25 -7 19 4 25 1 25 -12
0 -14 16 -19 82 -28 54 -8 85 -9 93 -2 9 8 14 -2 19 -37 3 -27 24 -84 46 -128
41 -80 80 -206 80 -258 0 -15 -9 -45 -20 -67 -11 -22 -20 -46 -20 -54 0 -30
-24 -67 -47 -72 -13 -4 -23 -10 -23 -16 0 -5 -11 -21 -25 -36 -28 -30 -55 -82
-55 -106 0 -9 12 -19 26 -22 37 -9 236 3 265 16 27 12 49 52 49 88 0 13 10 32
22 41 20 17 21 21 10 82 -6 35 -18 93 -26 129 -19 83 -20 148 -1 219 8 32 17
101 19 154 3 67 10 106 22 126 l17 29 52 -67 c55 -70 98 -165 110 -241 18
-129 18 -141 -2 -168 -36 -49 -93 -174 -93 -203 0 -23 6 -30 27 -35 31 -8 134
11 175 32 15 8 34 14 42 14 19 0 34 106 17 123 -19 19 -13 23 25 19 l37 -5 -5
86 c-5 75 -12 99 -51 184 -47 101 -55 137 -77 347 -11 106 -6 128 31 119 11
-3 27 1 37 10 32 28 81 47 122 47 22 0 40 5 40 10 0 6 9 10 19 10 11 0 26 7
35 15 8 8 19 15 25 15 6 0 19 5 29 11 13 8 27 7 55 -5 46 -19 127 -12 127 11
0 11 5 13 18 7 9 -4 33 -9 52 -10 19 -2 54 -6 78 -10 26 -4 42 -3 42 4 0 6 17
4 42 -5 24 -8 55 -12 70 -9 20 4 39 -3 75 -30 26 -19 56 -37 65 -40 10 -4 19
-22 23 -47 12 -73 31 -97 77 -97 22 0 28 6 33 33 10 43 35 97 47 97 5 0 16 7
24 15 10 9 34 15 64 15 45 0 49 2 60 33 7 17 14 26 17 20 2 -7 20 -13 39 -13
27 0 34 4 34 20 0 24 13 26 30 5 17 -21 50 -19 51 3 0 10 3 12 6 5 8 -21 43
-16 43 6 0 13 9 21 30 26 17 4 30 11 30 16 0 5 23 9 50 9 38 0 50 4 50 15 0
12 15 15 74 15 41 0 78 -5 81 -10 3 -6 15 -10 25 -10 21 0 49 -36 72 -95 41
-105 68 -204 68 -252 0 -28 5 -64 11 -80 21 -56 3 -313 -23 -313 -4 0 -8 -9
-8 -19 0 -11 -4 -22 -9 -25 -5 -4 -15 -29 -22 -57 -7 -28 -23 -60 -35 -72 -12
-12 -45 -44 -73 -72 -62 -60 -86 -119 -57 -141 48 -34 263 -24 292 14 7 9 14
41 14 70 0 49 1 52 19 42 32 -16 59 -12 66 11 4 12 7 80 7 152 -1 138 12 216
49 310 12 29 32 90 46 137 13 47 28 88 32 92 7 8 102 -126 138 -195 34 -67 70
-158 83 -214 17 -75 0 -242 -33 -313 -12 -28 -73 -90 -88 -90 -5 0 -9 -5 -9
-11 0 -6 -15 -30 -34 -53 -34 -40 -56 -84 -56 -110 0 -33 114 -45 212 -22 102
25 148 67 148 136 0 23 5 30 19 30 19 0 20 9 18 218 -1 230 10 325 55 457 23
68 20 96 -15 180 -33 78 -38 199 -13 300 9 39 20 81 23 95 3 14 9 27 12 30 9
7 94 182 122 253 12 31 27 57 32 57 5 0 7 11 5 25 -3 14 -2 25 1 25 4 0 12 12
18 27 9 22 10 6 8 -77 -7 -221 -17 -319 -43 -435 -21 -93 -26 -146 -26 -235 0
-113 28 -316 45 -334 5 -6 9 -19 9 -29 0 -31 31 -87 49 -87 23 0 67 126 77
220 14 123 10 275 -11 455 -22 187 -24 442 -5 580 6 44 15 121 20 170 13 130
26 212 43 280 9 34 18 115 22 180 3 66 9 177 14 247 5 70 7 138 5 150 -2 13
-8 61 -15 108 -13 96 -24 123 -74 177 -19 21 -35 41 -35 46 0 4 -6 7 -14 7 -8
0 -31 10 -51 21 -32 19 -55 22 -193 26 -86 2 -299 8 -472 13 -173 5 -373 7
-445 5 -349 -12 -711 -28 -717 -31 -4 -3 -230 -4 -503 -4 -326 0 -503 -3 -516
-10 -11 -6 -19 -7 -19 -1 0 5 -71 11 -157 14 -277 8 -409 25 -476 58 -38 19
-73 29 -100 28 -46 0 -181 17 -206 26 -30 12 -276 23 -288 13 -7 -6 -14 -5
-18 2 -3 5 -14 9 -23 8 -9 0 -33 -3 -52 -5z m-856 -218 c3 -8 1 -15 -4 -15 -6
0 -10 7 -10 15 0 8 2 15 4 15 2 0 6 -7 10 -15z m-36 -57 c-2 -13 -11 -24 -20
-26 -14 -3 -15 0 -5 22 15 32 30 34 25 4z m-39 -57 c0 -10 -2 -11 -6 -3 -13
34 -63 0 -64 -45 0 -15 -3 -22 -6 -15 -2 6 -11 12 -19 12 -18 0 -7 28 23 56
27 25 73 22 72 -5z m-189 -315 c0 -7 -7 -27 -15 -42 l-15 -29 0 36 c0 20 3 39
7 42 11 12 23 8 23 -7z m4266 -781 c4 -8 10 -15 16 -15 5 0 16 -7 24 -15 9 -8
11 -15 5 -15 -6 0 -11 -7 -11 -15 0 -8 -8 -15 -19 -15 -27 0 -38 -75 -16 -116
8 -16 15 -39 15 -51 0 -13 5 -23 10 -23 6 0 10 -7 10 -15 0 -8 5 -15 10 -15 6
0 10 -8 10 -17 0 -9 6 -24 14 -32 24 -27 56 -91 46 -91 -6 0 -10 -7 -10 -15 0
-8 -7 -15 -15 -15 -10 0 -15 11 -15 35 0 19 -4 35 -9 35 -5 0 -12 13 -16 29
-3 16 -13 35 -21 42 -8 6 -14 20 -14 30 0 11 -6 19 -13 19 -7 0 -26 26 -42 58
-21 39 -37 58 -52 60 -14 2 -23 11 -25 25 -2 17 -10 22 -30 22 -35 -1 -44 24
-26 65 12 27 16 29 47 24 18 -4 36 -3 40 2 7 12 51 32 69 33 7 1 15 -6 18 -14z
m334 -101 c0 -8 10 -14 24 -14 35 0 56 -10 56 -26 0 -8 7 -17 15 -20 8 -4 15
-15 15 -25 0 -14 12 -22 45 -31 35 -10 45 -17 45 -33 0 -16 9 -24 38 -32 l37
-10 -34 -2 c-30 -1 -33 -4 -29 -26 3 -14 1 -25 -5 -25 -9 0 -6 -35 9 -90 6
-21 4 -23 -7 -12 -7 6 -22 12 -32 12 -28 0 -49 31 -31 45 12 8 13 22 2 88 -9
63 -15 77 -30 77 -13 0 -18 -8 -19 -32 -1 -19 -3 -25 -6 -15 -4 14 -12 18 -29
14 -18 -3 -24 0 -24 13 0 9 -8 25 -19 36 -10 11 -22 30 -25 42 -4 12 -14 22
-23 22 -10 0 -13 5 -8 18 4 9 10 25 12 34 6 20 23 14 23 -8z m-525 -54 c3 -5
21 -11 38 -11 25 -1 27 -3 9 -6 -24 -5 -26 -8 -36 -55 -4 -19 -13 -28 -26 -28
-11 0 -20 -4 -20 -10 0 -5 -9 -10 -20 -10 -10 0 -23 -7 -28 -15 -7 -13 -10
-12 -20 10 -11 24 -10 25 18 25 20 0 30 5 30 15 0 8 5 15 11 15 7 0 8 14 4 40
-6 36 -5 40 14 40 11 0 23 -4 26 -10z m-763 -244 c4 -17 1 -23 -9 -19 -14 6
-18 43 -4 43 5 0 11 -11 13 -24z m1383 -37 c11 -17 2 -18 -25 -4 -24 14 -24
14 -3 15 12 0 25 -5 28 -11z m-1315 -54 c0 -8 5 -15 10 -15 16 0 11 -47 -6
-54 -23 -9 -24 -8 -24 24 0 20 -5 30 -15 30 -21 0 -19 18 3 23 30 8 32 7 32
-8z m150 -25 c0 -5 -4 -10 -10 -10 -5 0 -10 5 -10 10 0 6 5 10 10 10 6 0 10
-4 10 -10z m-542 -55 c-3 -3 -9 2 -12 12 -6 14 -5 15 5 6 7 -7 10 -15 7 -18z
m314 1 c3 -16 1 -23 -7 -19 -7 2 -11 13 -8 24 7 25 10 24 15 -5z m1105 -758
c-2 -13 -4 -3 -4 22 0 25 2 35 4 23 2 -13 2 -33 0 -45z m0 -190 c-3 -8 -6 -5
-6 6 -1 11 2 17 5 13 3 -3 4 -12 1 -19z m-159 -255 c2 -8 -6 -13 -22 -13 -28
0 -43 15 -24 23 20 8 41 3 46 -10z m-2348 -33 c0 -5 -7 -10 -15 -10 -8 0 -15
5 -15 10 0 6 7 10 15 10 8 0 15 -4 15 -10z m2980 -10 c0 -11 -39 -24 -47 -16
-3 3 -3 12 0 20 6 15 47 11 47 -4z"/>
</g>
</svg>
