<?xml version="1.0" standalone="no"?>
<!DOCTYPE svg PUBLIC "-//W3C//DTD SVG 20010904//EN"
 "http://www.w3.org/TR/2001/REC-SVG-20010904/DTD/svg10.dtd">
<svg version="1.0" xmlns="http://www.w3.org/2000/svg"
 width="520.000000pt" height="498.000000pt" viewBox="0 0 520.000000 498.000000"
 preserveAspectRatio="xMidYMid meet">
<metadata>
Created by potrace 1.13, written by Peter Selinger 2001-2015
</metadata>
<g transform="translate(0.000000,498.000000) scale(0.100000,-0.100000)"
fill="#000000" stroke="none">
<path d="M1808 4775 c-3 -4 -82 -12 -130 -14 -13 -1 -18 -9 -18 -30 0 -23 6
-31 28 -38 15 -6 37 -9 50 -8 12 1 22 -1 22 -5 0 -4 12 -5 26 -2 37 7 22 -15
-15 -23 -16 -3 -32 -13 -35 -21 -3 -8 -13 -14 -21 -14 -21 0 -48 -27 -40 -40
3 -5 2 -10 -3 -10 -5 0 -12 -8 -14 -18 -6 -21 -165 -78 -240 -86 -49 -5 -97
-31 -98 -53 0 -7 -5 -13 -11 -13 -5 0 -7 -4 -4 -10 3 -5 2 -10 -3 -10 -15 0
-23 -31 -12 -45 5 -6 7 -14 4 -17 -9 -9 89 -98 108 -98 10 0 18 -4 18 -10 0
-5 11 -12 25 -16 15 -4 25 -13 25 -23 0 -10 11 -28 25 -41 14 -13 25 -30 25
-37 0 -15 89 -113 103 -113 5 0 14 -6 22 -12 7 -7 28 -26 47 -41 27 -22 35
-36 37 -65 1 -20 3 -49 5 -64 2 -16 -1 -28 -6 -28 -5 0 -6 -4 -3 -10 3 -5 2
-10 -4 -10 -6 0 -8 -7 -5 -15 4 -8 1 -15 -5 -15 -6 0 -11 -7 -11 -15 0 -8 -5
-15 -11 -15 -6 0 -9 -6 -6 -13 3 -7 -4 -19 -14 -25 -10 -7 -27 -27 -36 -46
-21 -40 -95 -135 -106 -135 -11 -1 -137 -131 -137 -142 0 -5 -11 -22 -24 -36
-14 -15 -23 -30 -20 -35 3 -4 1 -8 -4 -8 -9 0 -35 -70 -35 -95 0 -8 -3 -15 -6
-15 -9 0 -13 -63 -12 -160 1 -122 4 -150 13 -150 4 0 8 -7 8 -16 0 -33 41
-104 69 -119 35 -17 46 -46 31 -75 -6 -11 -7 -20 -3 -20 4 0 2 -5 -4 -11 -6
-6 -9 -17 -7 -24 6 -14 -86 -115 -104 -115 -6 0 -18 -10 -26 -22 -9 -12 -16
-18 -16 -13 0 6 -4 5 -8 -1 -4 -6 -27 -16 -52 -23 -25 -6 -54 -14 -65 -17 -11
-3 -36 -6 -55 -7 -20 -1 -43 -9 -51 -17 -14 -13 -14 -18 -2 -50 8 -19 25 -45
37 -56 25 -24 87 -59 99 -56 4 1 7 -2 7 -7 0 -14 113 -7 140 9 14 8 34 19 45
25 12 6 21 23 23 40 2 17 15 44 28 62 13 17 24 36 24 42 0 6 5 11 10 11 6 0
10 7 10 15 0 8 6 15 14 15 7 0 22 11 32 25 10 14 26 25 34 25 24 0 65 26 62
39 -1 6 5 14 13 17 8 4 15 10 15 16 0 5 11 20 24 33 20 20 41 24 66 15 3 -1 8
-2 12 -1 4 0 10 -8 13 -19 7 -21 -31 -100 -49 -100 -5 0 -6 -3 -3 -7 4 -3 0
-15 -9 -25 -9 -10 -17 -31 -18 -48 -1 -16 -4 -30 -8 -30 -4 0 -5 -9 -3 -20 2
-11 0 -22 -6 -25 -5 -4 -9 -15 -9 -25 0 -20 -63 -90 -80 -90 -6 0 -10 -7 -10
-15 0 -8 -6 -15 -14 -15 -7 0 -21 -10 -31 -23 -13 -19 -27 -24 -64 -24 -76 0
-170 -12 -191 -23 -23 -12 -46 -50 -30 -50 5 0 10 -6 10 -14 0 -30 80 -103
133 -122 9 -3 17 -10 17 -14 0 -12 90 -6 98 6 4 6 37 25 75 43 37 18 67 39 67
46 0 7 14 27 30 43 17 17 30 33 30 37 0 3 13 20 30 38 54 58 90 102 90 110 0
4 7 7 15 7 8 0 15 5 15 11 0 5 5 7 10 4 6 -3 13 1 16 9 3 9 13 16 20 16 8 0
18 8 21 17 4 9 23 32 42 50 20 18 48 44 62 57 31 29 47 28 90 -4 18 -14 37
-24 43 -22 6 2 8 0 4 -4 -9 -8 45 -58 87 -81 27 -14 115 -87 107 -88 -4 0 51
-65 90 -107 14 -15 24 -28 20 -28 -4 0 4 -7 16 -16 12 -8 22 -21 22 -27 0 -7
16 -23 34 -37 19 -14 33 -26 31 -28 -3 -3 63 -65 90 -84 5 -4 30 -26 55 -49
44 -39 159 -102 191 -103 9 -1 22 -6 30 -11 16 -13 83 -36 96 -34 4 1 10 1 13
-1 3 -1 16 -3 30 -6 44 -8 150 -58 150 -71 0 -7 4 -13 9 -13 5 0 7 -9 4 -20
-3 -10 4 -32 16 -48 11 -16 18 -32 14 -36 -3 -3 -1 -6 5 -6 7 0 12 -6 12 -14
0 -8 5 -16 11 -18 6 -2 1 -16 -12 -32 -12 -16 -24 -38 -25 -50 -3 -25 -17 -60
-44 -104 -11 -17 -17 -32 -14 -32 4 0 1 -7 -6 -15 -7 -8 -10 -15 -6 -15 3 0
-15 -20 -41 -45 -25 -25 -48 -45 -50 -45 -3 0 -11 -6 -18 -12 -37 -34 -50 -43
-63 -44 -7 -2 -21 -11 -30 -21 -23 -25 -97 -57 -116 -50 -9 3 -18 2 -21 -2 -2
-5 -34 -14 -70 -21 -105 -20 -134 -64 -75 -114 17 -14 30 -28 30 -31 -2 -10
44 -42 60 -42 19 -1 63 -10 90 -18 12 -4 20 -2 20 6 0 9 3 9 14 0 10 -8 16 -9
21 -1 3 5 15 10 25 10 18 0 70 40 70 54 0 11 30 39 30 29 1 -4 10 3 20 16 11
13 20 20 20 16 0 -4 27 21 59 54 33 34 64 61 70 61 6 0 11 4 11 8 0 5 18 15
40 22 22 7 40 16 40 19 0 4 16 15 35 25 19 11 35 23 35 28 0 5 4 7 9 4 21 -13
58 36 85 112 24 64 33 79 43 70 20 -17 7 -164 -22 -232 -9 -21 -18 -50 -20
-65 -2 -14 -10 -47 -18 -73 -8 -26 -12 -49 -9 -52 3 -4 0 -6 -7 -6 -15 0 -42
-26 -35 -33 6 -6 -16 -35 -58 -78 -16 -16 -28 -31 -28 -35 0 -4 -11 -17 -25
-30 -14 -13 -25 -26 -25 -29 0 -11 -27 -34 -33 -29 -3 3 -10 -3 -16 -14 -10
-18 -104 -59 -123 -54 -5 1 -8 -2 -8 -8 0 -5 -7 -7 -15 -4 -8 4 -15 1 -15 -6
0 -10 -3 -10 -15 0 -10 9 -15 9 -15 1 0 -6 -7 -11 -16 -11 -18 0 -41 -21 -46
-42 -4 -19 98 -122 112 -113 6 4 19 0 28 -8 9 -8 36 -18 58 -22 36 -5 45 -3
67 19 15 15 29 22 32 16 15 -25 75 8 75 41 0 5 5 7 10 4 6 -3 10 1 10 9 0 9 4
16 9 16 7 0 18 23 25 51 0 3 18 26 38 50 21 24 38 49 38 56 0 6 14 25 30 41
17 17 30 33 30 37 0 4 7 13 15 21 8 9 15 12 15 8 0 -4 8 3 19 14 10 12 21 22
25 22 4 0 20 16 37 35 17 19 37 35 45 35 8 0 14 4 14 10 0 5 3 9 8 7 24 -8 82
100 88 166 1 9 3 20 4 25 1 4 2 10 2 13 -1 4 8 15 18 24 11 10 20 22 20 27 0
16 29 40 40 33 5 -3 10 -2 10 3 0 5 11 10 24 10 13 0 46 7 74 16 28 10 60 18
71 19 12 1 21 4 21 8 0 4 11 9 25 12 24 4 24 3 10 -13 -8 -9 -15 -22 -15 -28
0 -7 -4 -12 -10 -12 -5 0 -10 -7 -10 -15 0 -8 -4 -15 -10 -15 -5 0 -10 -5 -10
-11 0 -12 -82 -91 -88 -84 -3 2 -13 -6 -23 -18 -10 -12 -18 -18 -19 -12 0 5
-7 -1 -16 -13 -8 -12 -20 -22 -26 -22 -15 0 -122 -116 -123 -132 0 -4 -8 -16
-17 -27 -9 -11 -14 -22 -11 -25 4 -3 -4 -15 -17 -26 -13 -11 -21 -23 -17 -26
3 -3 -3 -15 -13 -27 -11 -11 -17 -24 -14 -29 3 -5 -1 -17 -10 -27 -8 -9 -17
-26 -20 -37 -9 -42 -19 -64 -29 -64 -6 0 -7 -3 -4 -6 4 -4 -2 -19 -13 -34 -11
-15 -17 -29 -15 -32 3 -3 -4 -13 -15 -23 -11 -10 -20 -24 -20 -31 0 -21 24
-22 42 -2 9 11 21 17 25 15 5 -3 24 10 42 29 19 19 38 34 42 34 5 0 9 5 9 10
0 6 10 21 23 34 32 32 77 90 77 99 0 13 32 48 129 139 34 32 61 60 61 63 0 3
16 22 35 42 19 20 35 43 35 49 0 7 6 19 13 26 7 7 24 40 38 73 13 33 34 71 47
85 12 14 22 30 22 36 0 6 16 29 35 50 19 21 35 41 35 44 0 4 18 26 40 49 22
23 40 39 40 35 0 -8 36 32 57 63 8 13 19 21 23 18 5 -3 16 5 24 17 9 12 16 19
16 16 0 -4 15 6 32 23 18 16 41 32 50 35 10 3 18 11 18 17 0 10 57 42 93 52 4
1 10 4 15 5 4 1 10 2 15 1 4 0 7 4 7 9 0 6 8 10 19 10 10 0 24 7 31 15 7 8 16
12 21 9 5 -3 9 0 9 7 0 6 11 22 25 35 14 13 25 27 25 31 0 5 9 15 20 23 11 8
20 20 20 26 0 7 7 15 16 18 8 3 13 9 10 14 -2 4 9 36 25 71 20 42 28 74 26 97
-3 24 1 38 15 51 15 13 17 25 13 57 -3 23 -7 49 -8 59 -1 9 -5 17 -9 17 -4 0
-8 9 -8 19 0 11 -8 26 -19 33 -10 7 -19 17 -19 21 -1 5 -14 18 -29 30 -15 12
-35 28 -43 37 -8 9 -28 25 -43 37 -15 12 -28 24 -28 27 0 2 -22 26 -48 53 -44
45 -80 76 -175 156 -21 17 -53 44 -70 59 -17 15 -35 28 -39 28 -5 0 -6 4 -3 9
5 8 -49 56 -64 56 -4 0 -29 20 -56 43 -27 24 -60 49 -74 55 -14 6 -32 19 -40
28 -8 9 -27 22 -42 30 -49 26 -143 83 -148 89 -8 11 -94 64 -101 63 -3 -1 -28
18 -55 42 -27 25 -54 45 -61 45 -6 0 -18 6 -25 13 -11 11 -75 64 -156 132 -14
11 -41 35 -61 52 -20 18 -39 33 -43 33 -5 0 -8 7 -8 15 0 8 -3 15 -8 15 -6 0
-40 32 -95 90 -8 8 -24 22 -36 30 -11 8 -21 18 -21 22 0 4 -27 34 -60 66 -33
33 -60 64 -60 69 0 5 -12 16 -27 26 -16 9 -50 37 -78 62 -27 25 -55 49 -60 53
-6 4 -29 23 -51 42 -22 19 -51 44 -65 55 -49 40 -144 120 -163 138 -11 9 -25
17 -30 17 -6 0 -29 17 -51 37 -22 19 -50 42 -62 50 -13 9 -21 18 -19 22 3 4
-6 15 -19 25 -14 10 -23 22 -21 25 3 4 -8 16 -24 26 -16 11 -35 30 -41 42 -7
13 -18 23 -25 23 -23 0 -46 32 -40 56 4 14 2 24 -4 24 -5 0 -10 7 -10 15 0 8
-3 15 -7 15 -5 0 -24 15 -43 33 -19 17 -36 31 -37 29 -2 -2 -19 0 -38 4 -29 5
-34 10 -34 33 1 49 -9 123 -17 130 -5 3 -10 13 -12 21 -11 49 -96 115 -160
125 -47 8 -56 11 -92 30 -19 11 -38 18 -42 17 -5 -1 -8 2 -8 6 0 4 -16 9 -37
10 -20 2 -39 5 -43 7 -4 3 -9 2 -12 0z m202 -124 c0 -5 -7 -14 -15 -21 -8 -7
-12 -17 -8 -23 3 -6 1 -7 -5 -3 -8 5 -8 13 0 31 11 24 28 34 28 16z m-116 -46
c-7 -16 -30 -20 -38 -6 -7 11 4 21 25 21 12 0 16 -5 13 -15z m252 -30 c16 -30
17 -37 5 -44 -10 -6 -25 -1 -48 17 -39 32 -41 40 -10 52 32 13 32 13 53 -25z
m-192 -51 c4 -11 0 -14 -22 -10 -15 2 -36 5 -47 6 -18 1 -19 2 -2 9 33 13 65
11 71 -5z m-154 -21 c-1 -11 -50 -46 -56 -40 -6 6 36 47 48 47 4 0 8 -3 8 -7z
m267 -5 c7 -1 15 -8 18 -17 3 -8 3 -12 -1 -8 -4 4 -13 2 -20 -3 -8 -8 -22 -4
-48 14 l-36 24 38 -5 c20 -2 42 -5 49 -5z m-659 -109 c17 -27 5 -40 -14 -15
-8 11 -14 23 -14 28 0 15 15 8 28 -13z m52 -93 c0 -2 -7 -7 -16 -10 -8 -3 -12
-2 -9 4 6 10 25 14 25 6z m1563 -765 c-2 -6 2 -11 8 -11 8 0 8 -4 0 -14 -9
-10 -8 -16 4 -26 13 -11 19 -11 32 3 15 15 18 15 34 -4 11 -12 20 -16 24 -9
10 16 25 12 25 -8 0 -29 -11 -34 -37 -17 -13 9 -23 11 -23 6 0 -18 -59 13 -72
38 -7 15 -17 29 -22 32 -12 9 3 31 17 26 7 -3 11 -10 10 -16z m54 -133 c-2
-19 2 -23 26 -21 22 2 27 -2 23 -13 -3 -8 0 -17 7 -20 8 -3 12 -18 11 -35 -1
-18 3 -32 11 -36 8 -2 11 -11 8 -19 -7 -20 24 -29 44 -13 12 10 15 10 9 1 -8
-14 11 -82 24 -82 5 0 16 7 24 16 9 8 16 13 16 10 0 -15 4 -22 18 -32 12 -8
12 -15 3 -32 -7 -14 -8 -22 -2 -22 19 0 0 -28 -22 -34 -23 -6 -55 -46 -37 -46
6 0 3 -11 -5 -24 -13 -19 -14 -29 -5 -45 6 -12 7 -21 3 -21 -4 -1 1 -9 12 -18
20 -18 33 -48 17 -38 -12 7 -49 -37 -44 -52 6 -20 -21 -13 -52 13 -16 13 -33
22 -39 18 -5 -3 -17 4 -27 17 -16 21 -18 21 -46 7 -33 -17 -88 -114 -79 -138
4 -10 -2 -15 -20 -17 -15 -1 -23 2 -20 8 3 5 -8 16 -24 24 -29 16 -30 15 -69
-25 -26 -25 -43 -36 -47 -29 -4 6 -19 16 -33 21 -21 8 -29 7 -38 -6 -14 -19
-48 -9 -40 12 3 7 -1 16 -9 19 -24 9 18 48 43 40 11 -4 23 -2 27 4 3 6 10 8
15 5 4 -3 14 9 22 25 11 26 18 30 43 28 17 -1 35 -6 42 -11 14 -10 51 12 59
35 3 10 9 18 14 18 5 0 11 14 15 30 6 25 9 29 21 19 11 -9 21 -9 44 1 16 7 30
17 30 22 0 5 7 16 15 24 18 18 20 34 4 34 -8 0 -8 4 -2 13 6 6 9 22 8 35 -1
12 4 27 12 33 11 10 10 14 -4 25 -12 9 -13 13 -5 14 14 0 12 31 -3 43 -6 4 -5
10 3 16 11 6 10 12 -4 26 -14 13 -18 36 -20 99 -1 44 0 84 3 89 9 16 23 6 20
-15z m-510 -70 c-3 -8 -6 -5 -6 6 -1 11 2 17 5 13 3 -3 4 -12 1 -19z m61 2
c-7 -10 -14 -18 -15 -16 -6 6 9 36 18 36 5 0 4 -9 -3 -20z m-151 -6 c13 -13
17 -13 24 -2 6 9 9 10 9 1 0 -12 -34 -35 -58 -39 -8 -1 -19 -10 -26 -20 -12
-16 -15 -16 -35 -2 -20 14 -21 16 -4 23 10 5 24 7 31 6 20 -3 42 18 35 35 -7
19 5 18 24 -2z m847 -36 c-3 -5 -14 2 -25 16 -26 33 -24 40 6 14 13 -11 22
-25 19 -30z m-994 -33 c-6 -8 -5 -16 3 -24 6 -7 8 -12 2 -11 -22 5 -35 -1 -35
-14 0 -20 -13 -27 -30 -16 -12 7 -12 12 2 27 9 10 21 31 27 47 10 23 14 26 26
16 10 -9 12 -16 5 -25z m-87 -15 c14 -28 8 -48 -11 -36 -8 5 -16 66 -8 66 3 0
11 -13 19 -30z m1007 10 c0 -6 10 -15 23 -20 12 -5 15 -9 7 -9 -16 0 -50 22
-50 33 0 3 5 6 10 6 6 0 10 -5 10 -10z m90 -5 c0 -8 5 -15 10 -15 7 0 7 -6 0
-20 -17 -31 -30 -24 -27 15 2 34 17 51 17 20z m-970 -216 c0 -6 -4 -7 -10 -4
-5 3 -10 11 -10 16 0 6 5 7 10 4 6 -3 10 -11 10 -16z m-930 -19 c0 -5 -2 -10
-4 -10 -3 0 -8 5 -11 10 -3 6 -1 10 4 10 6 0 11 -4 11 -10z m166 -43 c1 -1 5
-19 8 -40 3 -21 11 -47 16 -57 11 -20 3 -53 -11 -45 -4 3 -5 13 -2 21 4 10 -5
26 -25 42 -18 16 -33 40 -37 59 -5 30 -4 31 22 27 15 -3 28 -6 29 -7z m-166
-93 c0 -8 -5 -12 -10 -9 -6 4 -8 11 -5 16 9 14 15 11 15 -7z m371 -11 c15 -38
20 -103 8 -103 -6 0 -7 -4 -4 -10 3 -5 -1 -10 -9 -10 -8 0 -24 -9 -34 -21 -17
-17 -20 -18 -26 -4 -3 9 -20 21 -37 27 -23 8 -27 13 -17 19 7 5 9 9 4 9 -5 0
3 9 18 21 14 11 24 25 21 30 -8 12 14 51 25 44 5 -3 15 1 22 9 17 20 17 20 29
-11z m2261 -227 c9 -4 21 -21 27 -37 5 -16 17 -29 26 -29 9 0 14 -4 11 -9 -8
-12 20 -22 40 -14 9 3 20 0 24 -7 5 -7 16 -14 27 -16 34 -4 63 -16 63 -26 0
-5 -8 -7 -19 -3 -10 3 -23 -1 -30 -9 -10 -12 -8 -17 7 -25 16 -8 21 -7 26 6 5
13 9 14 19 4 9 -9 9 -14 -2 -21 -12 -7 -12 -11 -2 -24 11 -14 15 -14 28 -1 13
13 19 12 49 -11 19 -15 35 -30 35 -35 1 -5 2 -19 3 -31 1 -14 12 -28 29 -36
15 -7 27 -19 27 -26 0 -20 -27 -39 -45 -32 -10 3 -20 -5 -30 -25 -9 -16 -20
-27 -24 -24 -9 5 -22 -16 -30 -50 0 -3 -12 1 -24 10 -22 14 -26 14 -50 -9 -15
-14 -27 -32 -27 -39 0 -8 -7 -17 -15 -21 -8 -3 -15 -17 -15 -30 0 -32 29 -108
46 -122 19 -15 17 -28 -5 -48 -19 -17 -21 -61 -5 -87 4 -6 2 -14 -4 -18 -8 -5
-5 -21 10 -51 12 -25 24 -47 27 -50 3 -3 11 -14 17 -25 6 -11 16 -21 23 -21 6
-1 18 -2 27 -3 8 0 12 -6 9 -12 -4 -5 1 -19 10 -29 23 -25 10 -41 -47 -58 -66
-20 -92 -44 -94 -87 0 -20 -7 -40 -13 -45 -9 -5 -10 -10 -2 -14 12 -8 -16 -46
-34 -46 -5 0 -4 4 3 9 11 6 10 11 -3 25 -13 13 -20 14 -31 5 -8 -6 -14 -18
-14 -27 0 -11 -5 -9 -19 7 -11 12 -22 18 -24 14 -3 -5 -20 -10 -37 -11 -18 -1
-29 2 -25 7 3 6 -4 15 -15 21 -15 8 -20 8 -20 -1 0 -6 -6 -9 -14 -6 -8 3 -17
1 -19 -6 -3 -9 -7 -9 -17 0 -10 9 -16 8 -28 -3 -11 -12 -17 -13 -23 -3 -4 7
-5 17 -3 24 3 6 -7 17 -21 25 -14 8 -24 19 -21 25 2 6 -4 17 -14 23 -14 9 -19
8 -24 -4 -5 -14 -8 -14 -22 1 -9 9 -24 13 -35 10 -14 -5 -17 -2 -13 9 3 9 10
13 15 10 5 -3 15 1 22 8 12 10 10 16 -11 32 l-25 20 -25 -30 c-13 -16 -21 -24
-18 -17 3 6 2 13 -4 15 -5 1 -11 12 -13 24 -1 12 -10 33 -20 47 -11 18 -13 27
-5 29 7 3 9 11 3 24 -4 10 -7 29 -6 41 1 12 -3 31 -9 43 -8 15 -8 25 -1 34 6
7 8 16 4 19 -3 4 0 13 6 21 10 11 10 20 1 37 -7 12 -8 24 -4 28 15 11 15 31 0
37 -12 5 -13 11 -4 30 8 17 8 27 -1 38 -15 18 -44 9 -37 -11 4 -10 1 -13 -13
-8 -25 8 -48 -20 -32 -39 9 -11 9 -16 -2 -23 -7 -4 -21 -19 -30 -33 -12 -18
-17 -20 -17 -8 0 9 5 18 10 20 6 2 3 12 -7 23 -19 21 -20 55 -1 55 6 0 5 6 -3
16 -13 16 -58 11 -70 -8 -4 -6 -21 -11 -38 -10 -17 0 -31 -3 -31 -8 0 -5 -9
-11 -19 -15 -10 -3 -22 -17 -25 -31 -5 -20 -10 -23 -20 -15 -7 6 -22 9 -34 6
-12 -2 -22 0 -22 4 0 4 -10 13 -23 18 -19 9 -26 8 -34 -6 -12 -20 -6 -41 13
-41 8 0 14 -5 14 -11 0 -11 -14 -5 -40 17 -17 14 -70 21 -85 12 -6 -4 -17 -3
-25 2 -7 4 -19 6 -27 3 -7 -3 -13 0 -13 7 0 19 -26 39 -39 30 -17 -10 -5 -49
23 -72 11 -9 17 -17 13 -18 -5 0 -16 7 -24 16 -13 12 -17 13 -24 2 -6 -10 -12
-9 -23 7 -18 23 -20 35 -7 35 15 0 21 44 8 58 -11 10 -17 8 -34 -12 -12 -13
-18 -28 -15 -33 4 -4 -3 1 -16 11 -12 11 -25 17 -28 13 -9 -8 -65 14 -59 23 7
11 -26 29 -42 23 -7 -3 -13 0 -13 5 0 6 -9 14 -21 17 -11 4 -18 9 -15 13 3 3
-1 14 -11 24 -9 10 -13 21 -10 25 4 3 0 11 -9 18 -15 10 -15 13 0 28 15 14 15
17 1 25 -13 7 -14 14 -5 38 6 16 9 43 5 61 -4 20 -2 33 5 33 5 0 10 -5 10 -10
0 -6 11 -15 25 -20 25 -10 58 -67 48 -83 -7 -11 17 -67 28 -67 5 0 9 -6 9 -14
0 -8 12 -19 28 -25 15 -6 41 -19 57 -30 32 -19 55 -17 55 5 0 12 4 12 25 -2
14 -9 25 -22 25 -29 0 -8 10 -17 23 -21 12 -4 25 -12 29 -17 11 -17 62 5 66
28 6 31 19 39 36 22 9 -9 16 -18 16 -22 0 -14 29 -35 35 -25 4 6 12 4 21 -5 9
-8 19 -13 24 -10 5 3 11 1 15 -5 4 -6 11 -8 16 -5 5 4 9 0 9 -7 0 -14 54 50
56 67 0 5 5 18 9 29 5 12 3 21 -6 26 -7 5 -10 13 -5 17 11 11 48 -37 42 -54
-3 -7 0 -14 7 -15 35 -4 43 -4 52 1 10 5 13 6 44 9 8 1 11 8 7 18 -3 8 -2 13
3 10 4 -3 18 4 30 15 12 11 25 18 30 15 11 -7 36 22 28 31 -4 3 2 18 13 33 11
16 20 36 20 47 1 17 1 17 11 0 5 -9 8 -21 5 -26 -3 -5 1 -14 9 -21 8 -7 15
-19 15 -27 0 -22 23 -40 48 -38 12 1 30 -4 39 -10 17 -13 53 -9 53 6 0 5 6 9
14 9 7 0 21 11 30 25 9 14 22 25 29 25 10 1 84 91 80 97 -1 2 2 16 7 33 5 16
5 30 1 30 -5 0 -6 11 -3 25 2 14 -1 32 -8 40 -10 12 -9 16 4 21 10 4 15 13 12
20 -3 8 -2 14 2 14 16 0 11 70 -6 87 -33 34 -42 50 -36 67 4 11 11 13 24 6 13
-7 22 -3 39 16 12 14 19 29 16 34 -4 6 -1 10 5 10 7 0 10 6 7 13 -5 13 36 15
65 3z m-798 -81 c-10 -7 -22 -11 -27 -8 -12 7 0 19 23 20 21 2 21 1 4 -12z
m-1023 -25 c15 -5 29 -4 31 1 2 4 9 5 16 0 12 -7 12 -12 0 -30 -11 -19 -11
-24 5 -35 14 -11 15 -15 4 -24 -15 -13 -43 1 -33 16 7 11 -70 79 -85 75 -5 -2
-9 4 -9 12 0 13 4 14 21 4 12 -6 34 -15 50 -19z m1179 -26 c-6 -14 -8 -30 -5
-35 4 -5 -1 -6 -9 -3 -20 8 -20 23 1 46 22 24 24 23 13 -8z m-265 -24 c-3 -5
-12 -10 -18 -10 -7 0 -6 4 3 10 19 12 23 12 15 0z m-1315 -164 c0 -2 -9 -13
-20 -26 -11 -13 -20 -19 -20 -14 0 5 -4 3 -9 -5 -5 -8 -18 -16 -28 -17 -13 -2
-11 3 10 17 15 12 27 26 27 33 0 6 9 12 20 13 11 1 20 0 20 -1z m683 -70 c17
-13 16 -14 -3 -19 -11 -3 -20 -4 -20 -2 0 2 -3 10 -6 19 -7 19 5 20 29 2z
m2124 -1 c13 0 23 -3 23 -8 0 -16 25 -35 36 -26 6 5 20 -1 37 -16 14 -14 28
-25 31 -25 7 0 66 -58 66 -65 0 -4 -7 -5 -15 -2 -8 4 -17 2 -21 -4 -3 -6 -12
-8 -20 -5 -8 3 -14 -1 -14 -9 0 -8 -5 -15 -11 -15 -5 0 -7 -6 -3 -12 5 -9 2
-9 -9 1 -14 11 -17 11 -17 0 0 -8 -21 -27 -47 -42 -25 -15 -43 -31 -39 -34 3
-3 1 -12 -5 -20 -6 -7 -8 -13 -4 -13 4 0 2 -6 -4 -14 -6 -8 -11 -18 -10 -22 4
-22 -3 -32 -23 -39 -29 -10 -38 -11 -36 -5 1 3 -4 16 -11 28 -11 21 -10 27 10
48 21 23 35 84 19 84 -5 0 -7 8 -5 18 2 9 4 17 5 17 1 0 3 10 4 23 2 12 -2 22
-8 22 -8 0 -8 2 0 8 6 4 14 14 18 22 3 9 4 6 2 -7 -5 -29 17 -49 33 -29 11 13
17 12 45 -3 27 -15 35 -16 50 -6 16 12 15 16 -16 52 -18 21 -34 40 -35 42 -2
3 -8 0 -14 -6 -9 -9 -20 -6 -43 10 -17 12 -34 26 -38 31 -9 13 24 36 37 28 5
-4 20 -7 32 -7z m-3494 -2 c-7 -2 -19 -2 -25 0 -7 3 -2 5 12 5 14 0 19 -2 13
-5z m1399 -61 c-7 -2 -12 -13 -12 -25 0 -20 0 -20 -14 -2 -12 17 -12 21 2 31
9 7 21 10 26 6 6 -3 5 -7 -2 -10z m40 -43 c-9 -9 -19 -12 -21 -6 -2 5 2 13 9
17 9 5 9 9 1 14 -6 4 -11 11 -11 16 0 6 9 2 20 -7 18 -16 18 -18 2 -34z m780
-346 c12 -11 21 -12 37 -4 14 8 22 8 27 0 5 -9 11 -7 20 6 20 27 29 -4 12 -44
-13 -30 -14 -31 -41 -16 -16 8 -38 16 -50 17 -12 2 -27 7 -33 10 -5 4 -27 5
-48 3 l-38 -3 21 21 c24 26 70 31 93 10z m-207 -23 c3 -5 2 -10 -4 -10 -5 0
-13 5 -16 10 -3 6 -2 10 4 10 5 0 13 -4 16 -10z m65 0 c-8 -5 -19 -10 -25 -10
-5 0 -3 5 5 10 8 5 20 10 25 10 6 0 3 -5 -5 -10z m185 -130 c4 -6 11 -8 16 -4
6 3 7 -4 4 -19 -5 -19 -2 -27 13 -31 12 -4 19 -14 17 -24 -1 -9 0 -21 3 -27 8
-14 12 -58 7 -74 -4 -9 -17 1 -40 30 -35 44 -45 79 -24 79 6 0 2 8 -10 18 -15
12 -19 24 -15 40 7 23 19 29 29 12z m223 -173 c9 -7 9 -13 2 -22 -8 -9 -8 -15
0 -20 5 -3 10 -11 10 -18 0 -14 -21 18 -38 56 -12 29 -8 30 26 4z m185 -91 c4
-10 1 -13 -8 -9 -8 3 -12 9 -9 14 7 12 11 11 17 -5z m-133 -60 c0 -8 -6 -16
-12 -19 -9 -3 -7 -11 7 -27 l20 -23 -21 11 c-28 15 -51 42 -35 42 7 0 9 5 5
12 -4 7 -3 8 4 4 7 -4 12 -2 12 3 0 6 5 11 10 11 6 0 10 -6 10 -14z m-59 -73
c0 -5 2 -18 5 -30 2 -13 -1 -23 -8 -23 -6 0 -4 -8 6 -19 9 -10 14 -25 11 -33
-4 -10 4 -24 21 -37 15 -11 22 -21 16 -21 -6 0 -14 5 -17 10 -4 6 -12 4 -21
-5 -14 -13 -14 -17 1 -31 21 -21 13 -29 -14 -14 -12 6 -26 8 -31 5 -16 -10
-12 11 5 25 9 8 12 22 8 41 -3 18 -1 29 6 29 7 0 8 8 1 25 -5 14 -6 25 -3 25
4 0 2 5 -4 11 -12 12 -6 49 8 49 5 0 9 -3 10 -7z m138 -147 c-13 -14 -27 -26
-33 -26 -5 0 -1 7 10 15 10 8 16 15 12 15 -5 0 0 8 10 18 26 27 27 8 1 -22z
m-773 -161 c-9 -9 -16 -13 -16 -8 0 12 22 34 28 28 2 -2 -3 -11 -12 -20z m-26
-27 c0 -18 -2 -20 -9 -8 -6 8 -7 18 -5 22 9 14 14 9 14 -14z m584 -3 c-8 -13
-13 -29 -9 -35 3 -5 2 -10 -4 -10 -15 0 -26 23 -13 28 7 2 12 10 12 17 0 11 9
19 28 24 1 1 -5 -10 -14 -24z m372 -90 c-14 -14 -31 -23 -37 -20 -6 4 3 17 23
30 42 29 48 24 14 -10z m-1076 5 c0 -5 -2 -10 -4 -10 -3 0 -8 5 -11 10 -3 6
-1 10 4 10 6 0 11 -4 11 -10z m475 -200 c3 -5 1 -10 -4 -10 -6 0 -11 5 -11 10
0 6 2 10 4 10 3 0 8 -4 11 -10z m-220 -230 c3 -5 1 -10 -4 -10 -6 0 -11 5 -11
10 0 6 2 10 4 10 3 0 8 -4 11 -10z"/>
<path d="M4042 2624 c-11 -12 -11 -17 1 -29 13 -13 17 -13 28 1 10 12 10 18
-2 29 -12 11 -16 11 -27 -1z"/>
</g>
</svg>
