<?xml version="1.0" standalone="no"?>
<!DOCTYPE svg PUBLIC "-//W3C//DTD SVG 20010904//EN"
 "http://www.w3.org/TR/2001/REC-SVG-20010904/DTD/svg10.dtd">
<svg version="1.0" xmlns="http://www.w3.org/2000/svg"
 width="582.000000pt" height="389.000000pt" viewBox="0 0 582.000000 389.000000"
 preserveAspectRatio="xMidYMid meet">
<metadata>
Created by potrace 1.13, written by Peter Selinger 2001-2015
</metadata>
<g transform="translate(0.000000,389.000000) scale(0.100000,-0.100000)"
fill="#000000" stroke="none">
<path d="M4960 3774 c-48 -21 -78 -51 -86 -87 l-6 -30 -152 9 c-198 12 -409 9
-414 -5 -2 -6 -10 -11 -18 -11 -19 0 -139 -37 -181 -56 -17 -8 -42 -14 -56
-14 -14 0 -27 -7 -31 -15 -3 -8 -13 -15 -23 -15 -10 0 -46 -9 -81 -20 -132
-41 -250 -69 -327 -75 -81 -7 -141 -19 -360 -73 -186 -46 -216 -51 -435 -67
-365 -26 -726 -40 -975 -39 -759 3 -1265 13 -1315 24 -70 16 -218 8 -290 -16
-46 -16 -60 -27 -87 -66 -33 -51 -62 -133 -90 -263 -14 -64 -18 -128 -18 -320
0 -271 2 -314 21 -508 8 -75 19 -206 24 -290 5 -83 14 -186 21 -227 9 -61 11
-241 6 -478 0 -19 6 -38 14 -43 11 -7 9 -9 -8 -9 -31 0 -31 -37 -1 -43 23 -4
23 -4 -1 -6 l-23 -1 6 -132 c4 -73 8 -170 8 -215 1 -46 5 -83 9 -83 3 0 9 -17
13 -37 18 -111 24 -133 44 -158 12 -15 22 -36 22 -46 0 -12 7 -19 20 -19 16 0
20 7 20 30 0 17 5 30 11 30 10 0 7 95 -7 173 -4 24 -2 37 5 37 6 0 11 9 11 20
0 11 -4 20 -10 20 -6 0 -10 27 -10 60 0 47 3 60 15 60 10 0 15 11 15 35 0 26
-4 35 -16 35 -15 0 -16 10 -11 80 4 45 2 80 -3 80 -5 0 -6 25 -3 55 4 39 2 55
-6 55 -8 0 -11 23 -10 72 1 40 -3 115 -8 166 -7 73 -6 92 4 92 7 0 13 11 13
25 0 16 -6 25 -15 25 -12 0 -15 18 -15 103 l1 102 19 -55 c24 -67 72 -160 83
-160 4 0 7 -7 7 -15 0 -8 4 -15 10 -15 5 0 16 -15 24 -32 7 -18 23 -44 35 -57
11 -13 21 -31 21 -41 0 -9 4 -20 9 -26 12 -13 31 -97 31 -138 0 -19 -4 -47
-10 -61 -11 -29 4 -153 23 -195 8 -17 12 -99 12 -255 -1 -194 -4 -236 -18
-267 -21 -46 -21 -68 -3 -94 13 -17 18 -18 46 -7 31 12 31 12 25 -17 -11 -51
22 -85 105 -105 66 -16 113 -16 202 1 24 5 28 1 37 -33 15 -52 19 -57 76 -86
67 -34 124 -42 194 -26 45 9 60 18 69 38 20 43 14 67 -24 97 -20 16 -47 38
-59 50 -13 12 -39 31 -59 43 -57 35 -142 175 -167 275 -13 54 -7 263 10 293 5
10 14 36 19 58 15 61 50 152 88 231 19 38 34 76 34 82 0 7 4 12 9 12 5 0 16
17 26 38 36 80 79 136 148 190 19 14 53 16 61 3 3 -5 22 -12 43 -16 20 -4 48
-15 61 -26 13 -10 40 -21 61 -25 20 -3 68 -14 106 -24 39 -10 108 -24 155 -30
90 -13 93 -14 126 -33 28 -16 49 -38 57 -59 3 -10 10 -18 14 -18 4 0 6 -22 5
-50 -3 -32 0 -50 7 -50 6 0 11 -8 11 -19 0 -44 62 -55 68 -12 2 13 12 38 22
55 10 18 21 52 25 77 3 24 12 59 18 77 9 27 16 32 44 32 18 0 33 -4 33 -10 0
-14 37 -13 42 1 5 14 443 22 508 9 25 -5 74 -14 110 -20 137 -23 384 -91 404
-110 13 -13 37 -261 39 -410 1 -87 -3 -146 -15 -195 -46 -195 -45 -214 10
-215 18 0 22 -5 22 -33 0 -61 86 -107 199 -107 l70 0 6 -44 c7 -43 9 -45 74
-75 72 -33 107 -37 190 -21 51 9 81 28 81 49 0 6 5 11 10 11 6 0 10 -4 10 -10
0 -5 9 -10 20 -10 13 0 20 7 20 20 0 13 -7 20 -19 20 -11 0 -23 9 -26 20 -3
11 -16 25 -28 31 -12 7 -26 18 -30 25 -4 8 -15 14 -22 14 -8 0 -15 7 -15 15 0
8 -4 15 -8 15 -8 0 -24 12 -69 50 -13 11 -18 48 -14 108 2 17 -2 32 -8 32 -14
0 -14 67 -1 75 6 3 10 22 10 40 0 39 22 92 62 149 16 21 28 47 28 56 0 9 3 20
8 24 4 4 12 24 17 44 l10 36 81 2 c45 1 90 6 100 12 11 5 36 12 57 16 20 4 37
11 37 17 0 5 8 13 18 16 9 4 29 18 43 32 35 36 129 166 129 180 0 7 9 22 21
34 11 12 23 34 26 50 3 15 9 27 12 27 9 0 46 92 60 150 5 25 20 84 31 132 12
48 20 93 19 100 -5 23 12 128 21 133 5 3 12 26 16 50 3 25 10 48 15 51 5 3 9
13 9 23 0 10 9 40 21 67 11 27 24 58 29 69 4 11 23 56 40 100 32 79 79 175 91
185 3 3 14 20 23 37 9 18 36 53 61 79 25 25 45 49 45 53 0 4 15 14 33 23 28
13 37 13 72 1 50 -18 287 -12 311 8 9 7 39 13 67 13 29 0 55 3 58 8 3 5 12 3
20 -5 53 -53 252 -63 321 -17 70 47 79 127 24 207 -19 27 -41 70 -50 96 -20
58 -46 222 -46 287 0 47 2 50 25 50 20 0 25 5 25 24 0 16 -7 27 -20 31 -15 5
-20 15 -20 39 0 38 -22 118 -39 138 -36 43 -88 115 -93 129 -5 12 5 19 45 28
132 33 272 139 265 200 -3 30 -37 40 -59 18 -21 -20 -46 -32 -118 -56 -66 -21
-181 -29 -181 -11 0 5 -29 18 -65 29 -67 21 -137 20 -179 -2 -11 -5 -50 -9
-88 -9 -37 0 -70 -4 -73 -9 -4 -5 -14 -9 -23 -9 -10 1 0 10 21 21 24 12 37 27
37 39 0 17 -7 20 -42 20 -24 -1 -59 -8 -78 -16z m167 -530 c-3 -3 -12 -4 -19
-1 -8 3 -5 6 6 6 11 1 17 -2 13 -5z m563 -626 c0 -4 -10 -10 -22 -14 -13 -4
-26 -12 -30 -18 -5 -7 -8 -4 -8 7 0 9 -4 17 -10 17 -5 0 -10 3 -10 8 0 4 18 7
40 7 22 0 40 -3 40 -7z m-153 -20 c-3 -8 -6 -5 -6 6 -1 11 2 17 5 13 3 -3 4
-12 1 -19z m-5380 -1615 c-2 -16 -4 -3 -4 27 0 30 2 43 4 28 2 -16 2 -40 0
-55z m-7 -123 c0 -27 -4 -50 -10 -50 -11 0 -14 59 -4 84 10 27 14 18 14 -34z
m3330 -179 c13 -57 8 -164 -12 -236 -15 -51 -12 -49 -41 -30 -26 17 -37 53
-38 130 -1 22 -5 60 -10 84 -10 43 3 111 20 111 4 0 16 19 26 43 l17 42 13
-45 c7 -25 18 -69 25 -99z m-3333 81 c-16 -3 -17 -10 -12 -45 4 -31 3 -38 -4
-27 -6 8 -11 31 -11 52 0 33 2 36 23 30 19 -5 19 -7 4 -10z m512 -160 c17 -38
31 -76 31 -85 0 -10 4 -25 10 -35 8 -16 40 -122 40 -136 0 -13 -16 -5 -47 23
-18 16 -33 34 -33 40 0 6 -4 11 -9 11 -17 0 -40 77 -41 141 -3 135 3 140 49
41z"/>
</g>
</svg>
