<?xml version="1.0" standalone="no"?>
<!DOCTYPE svg PUBLIC "-//W3C//DTD SVG 20010904//EN"
 "http://www.w3.org/TR/2001/REC-SVG-20010904/DTD/svg10.dtd">
<svg version="1.0" xmlns="http://www.w3.org/2000/svg"
 width="415.000000pt" height="165.000000pt" viewBox="0 0 415.000000 165.000000"
 preserveAspectRatio="xMidYMid meet">
<metadata>
Created by potrace 1.13, written by Peter Selinger 2001-2015
</metadata>
<g transform="translate(0.000000,165.000000) scale(0.100000,-0.100000)"
fill="#000000" stroke="none">
<path d="M1075 1301 c-16 -5 -60 -9 -97 -10 -37 0 -87 -5 -110 -11 -24 -5
-159 -13 -302 -18 -253 -8 -259 -8 -277 -31 -22 -27 -25 -70 -6 -93 21 -27 95
-36 349 -44 135 -4 252 -10 259 -14 10 -7 10 -47 -1 -204 -25 -378 3 -524 117
-596 39 -25 57 -30 111 -30 35 0 89 -7 119 -16 54 -16 170 -15 321 3 39 4 63
1 91 -12 30 -13 55 -15 117 -11 122 9 135 9 197 -5 47 -10 66 -10 105 1 33 10
98 13 217 12 435 -6 1473 -5 1497 1 38 10 46 45 51 242 6 204 -18 742 -35 780
-14 31 -25 34 -163 38 -60 2 -166 9 -233 16 -90 9 -247 11 -575 7 -689 -10
-908 -10 -1332 -3 -214 3 -403 2 -420 -2z"/>
</g>
</svg>
