<?xml version="1.0" standalone="no"?>
<!DOCTYPE svg PUBLIC "-//W3C//DTD SVG 20010904//EN"
 "http://www.w3.org/TR/2001/REC-SVG-20010904/DTD/svg10.dtd">
<svg version="1.0" xmlns="http://www.w3.org/2000/svg"
 width="385.000000pt" height="168.000000pt" viewBox="0 0 385.000000 168.000000"
 preserveAspectRatio="xMidYMid meet">
<metadata>
Created by potrace 1.13, written by Peter Selinger 2001-2015
</metadata>
<g transform="translate(0.000000,168.000000) scale(0.100000,-0.100000)"
fill="#000000" stroke="none">
<path d="M2266 1391 c-3 -4 -265 -11 -583 -15 -318 -3 -605 -8 -638 -11 -33
-2 -179 -6 -324 -9 -259 -4 -265 -4 -283 -26 -29 -35 -22 -110 10 -110 9 0 29
-4 46 -10 17 -5 111 -15 208 -21 97 -7 182 -15 187 -18 7 -5 5 -39 -5 -101
-31 -189 -4 -523 50 -604 18 -28 74 -56 112 -56 14 0 32 -4 42 -9 24 -13 245
-31 257 -21 23 19 144 12 208 -12 19 -7 49 -7 100 0 51 8 93 8 135 2 41 -7 86
-7 134 0 95 13 304 13 328 0 13 -7 183 -9 502 -6 640 7 761 12 781 34 47 54
42 842 -7 942 -12 25 -14 25 -176 32 -91 4 -347 9 -570 12 -223 3 -428 8 -457
11 -28 3 -54 1 -57 -4z"/>
</g>
</svg>
