<?xml version="1.0" standalone="no"?>
<!DOCTYPE svg PUBLIC "-//W3C//DTD SVG 20010904//EN"
 "http://www.w3.org/TR/2001/REC-SVG-20010904/DTD/svg10.dtd">
<svg version="1.0" xmlns="http://www.w3.org/2000/svg"
 width="366.000000pt" height="146.000000pt" viewBox="0 0 366.000000 146.000000"
 preserveAspectRatio="xMidYMid meet">
<metadata>
Created by potrace 1.13, written by Peter Selinger 2001-2015
</metadata>
<g transform="translate(0.000000,146.000000) scale(0.100000,-0.100000)"
fill="#000000" stroke="none">
<path d="M2353 1260 c-12 -5 -66 -8 -120 -8 -480 6 -972 5 -1083 -3 -181 -13
-327 -29 -372 -40 -49 -12 -84 -56 -93 -116 -4 -26 -12 -57 -18 -68 -8 -14
-11 -99 -8 -276 l3 -256 -28 -22 c-23 -18 -40 -21 -128 -21 -140 -1 -248 -16
-264 -37 -6 -9 -12 -33 -12 -53 0 -65 7 -67 271 -73 129 -3 255 -11 280 -16
122 -28 210 -34 609 -38 272 -4 499 -1 630 7 113 6 259 13 325 14 66 1 125 4
130 8 6 3 177 9 380 13 204 4 417 10 474 14 149 9 139 -16 142 361 3 368 -5
493 -35 547 l-22 38 -459 5 c-342 4 -466 8 -482 18 -25 14 -87 15 -120 2z"/>
</g>
</svg>
