<?xml version="1.0" standalone="no"?>
<!DOCTYPE svg PUBLIC "-//W3C//DTD SVG 20010904//EN"
 "http://www.w3.org/TR/2001/REC-SVG-20010904/DTD/svg10.dtd">
<svg version="1.0" xmlns="http://www.w3.org/2000/svg"
 width="419.000000pt" height="175.000000pt" viewBox="0 0 419.000000 175.000000"
 preserveAspectRatio="xMidYMid meet">
<metadata>
Created by potrace 1.13, written by Peter Selinger 2001-2015
</metadata>
<g transform="translate(0.000000,175.000000) scale(0.100000,-0.100000)"
fill="#000000" stroke="none">
<path d="M727 1386 c-12 -5 -133 -12 -269 -15 -284 -7 -280 -6 -281 -89 -1
-90 7 -93 323 -98 124 -1 238 -8 253 -13 32 -12 34 -34 10 -82 -15 -28 -18
-64 -19 -210 -1 -97 -4 -181 -8 -187 -9 -15 13 -122 35 -164 10 -20 19 -52 19
-70 0 -44 22 -73 72 -99 34 -17 72 -23 212 -31 94 -5 209 -10 256 -9 47 0 103
0 125 0 22 -1 76 -1 120 0 44 0 530 4 1080 9 l1001 10 52 26 c83 42 113 87
138 203 26 127 15 544 -18 661 -19 65 -95 149 -143 157 -53 10 -2935 11 -2958
1z"/>
</g>
</svg>
