<?xml version="1.0" standalone="no"?>
<!DOCTYPE svg PUBLIC "-//W3C//DTD SVG 20010904//EN"
 "http://www.w3.org/TR/2001/REC-SVG-20010904/DTD/svg10.dtd">
<svg version="1.0" xmlns="http://www.w3.org/2000/svg"
 width="414.000000pt" height="175.000000pt" viewBox="0 0 414.000000 175.000000"
 preserveAspectRatio="xMidYMid meet">
<metadata>
Created by potrace 1.13, written by Peter Selinger 2001-2015
</metadata>
<g transform="translate(0.000000,175.000000) scale(0.100000,-0.100000)"
fill="#000000" stroke="none">
<path d="M1568 1620 c-21 -11 -45 -34 -53 -51 l-16 -30 -75 7 c-66 6 -77 5
-97 -13 -54 -49 -86 -55 -407 -72 -96 -5 -197 -14 -224 -20 -26 -7 -57 -9 -67
-6 -12 4 -22 -1 -30 -17 -17 -31 -16 -106 2 -122 25 -23 142 -36 318 -36 l171
0 0 -29 c0 -16 -5 -42 -11 -58 -40 -106 -40 -460 1 -598 5 -16 18 -62 30 -101
15 -53 32 -83 66 -122 25 -29 52 -52 59 -52 6 0 32 -15 56 -32 42 -31 48 -33
126 -32 76 2 82 0 87 -20 3 -12 20 -33 38 -46 33 -25 35 -25 282 -28 200 -3
258 0 295 12 56 18 223 52 306 61 33 4 65 11 70 15 6 4 226 10 490 13 466 5
702 17 775 37 54 15 92 60 102 122 17 106 30 386 24 523 -15 358 -24 453 -46
493 -39 69 -72 79 -286 91 -104 6 -229 13 -279 17 -49 3 -225 5 -390 5 -165
-1 -325 3 -355 8 -262 46 -394 73 -409 85 -9 7 -103 12 -265 13 -235 3 -253 2
-288 -17z"/>
</g>
</svg>
