<?xml version="1.0" standalone="no"?>
<!DOCTYPE svg PUBLIC "-//W3C//DTD SVG 20010904//EN"
 "http://www.w3.org/TR/2001/REC-SVG-20010904/DTD/svg10.dtd">
<svg version="1.0" xmlns="http://www.w3.org/2000/svg"
 width="403.000000pt" height="169.000000pt" viewBox="0 0 403.000000 169.000000"
 preserveAspectRatio="xMidYMid meet">
<metadata>
Created by potrace 1.13, written by Peter Selinger 2001-2015
</metadata>
<g transform="translate(0.000000,169.000000) scale(0.100000,-0.100000)"
fill="#000000" stroke="none">
<path d="M2289 1475 c-3 -2 -198 -7 -435 -9 -643 -7 -902 -16 -959 -31 -46
-12 -296 -31 -512 -38 -55 -2 -97 -8 -107 -16 -9 -8 -26 -10 -45 -6 -24 5 -32
2 -41 -16 -12 -21 -9 -103 4 -116 3 -4 52 -8 109 -10 56 -3 176 -7 267 -11
l165 -7 -1 -40 c0 -22 -6 -83 -13 -135 -26 -203 -11 -394 42 -564 26 -83 66
-130 122 -144 22 -6 164 -14 315 -18 189 -4 281 -10 295 -18 37 -23 87 -27
152 -10 47 12 71 13 91 6 51 -19 91 -21 139 -7 57 18 408 22 418 5 4 -6 197
-10 546 -10 472 0 544 2 570 16 20 10 50 15 82 13 29 -2 87 -2 130 -1 68 2 81
5 103 27 l25 25 -5 177 c-3 98 -8 329 -11 513 -4 184 -9 343 -11 353 -10 34
-57 47 -171 47 -59 1 -137 7 -173 15 -52 11 -171 14 -576 15 -281 0 -513 -2
-515 -5z"/>
</g>
</svg>
