<?xml version="1.0" standalone="no"?>
<!DOCTYPE svg PUBLIC "-//W3C//DTD SVG 20010904//EN"
 "http://www.w3.org/TR/2001/REC-SVG-20010904/DTD/svg10.dtd">
<svg version="1.0" xmlns="http://www.w3.org/2000/svg"
 width="424.000000pt" height="168.000000pt" viewBox="0 0 424.000000 168.000000"
 preserveAspectRatio="xMidYMid meet">
<metadata>
Created by potrace 1.13, written by Peter Selinger 2001-2015
</metadata>
<g transform="translate(0.000000,168.000000) scale(0.100000,-0.100000)"
fill="#000000" stroke="none">
<path d="M3520 1426 c-10 -9 -2432 -24 -2570 -15 -45 3 -559 -18 -664 -27 -64
-6 -84 -11 -103 -30 -31 -31 -39 -72 -22 -103 28 -50 56 -56 299 -61 124 -3
233 -9 242 -13 26 -13 27 -28 11 -138 -11 -79 -13 -150 -9 -292 7 -208 7 -207
85 -325 60 -89 111 -121 219 -134 112 -14 1426 -18 1787 -6 149 5 428 11 620
14 l350 6 46 50 c40 42 47 57 54 106 12 96 16 384 6 447 -6 33 -15 112 -22
175 -20 208 -43 280 -102 324 -23 17 -46 22 -125 24 -53 2 -99 1 -102 -2z"/>
</g>
</svg>
