<?xml version="1.0" standalone="no"?>
<!DOCTYPE svg PUBLIC "-//W3C//DTD SVG 20010904//EN"
 "http://www.w3.org/TR/2001/REC-SVG-20010904/DTD/svg10.dtd">
<svg version="1.0" xmlns="http://www.w3.org/2000/svg"
 width="401.000000pt" height="174.000000pt" viewBox="0 0 401.000000 174.000000"
 preserveAspectRatio="xMidYMid meet">
<metadata>
Created by potrace 1.13, written by Peter Selinger 2001-2015
</metadata>
<g transform="translate(0.000000,174.000000) scale(0.100000,-0.100000)"
fill="#000000" stroke="none">
<path d="M1269 1390 c-100 -6 -145 -13 -170 -26 -29 -15 -72 -19 -284 -26
-378 -13 -385 -15 -385 -81 0 -43 22 -73 63 -85 17 -6 108 -13 201 -16 186 -6
225 -17 211 -59 -4 -12 -9 -135 -11 -273 l-4 -251 29 -36 c15 -20 34 -50 41
-67 15 -37 107 -85 193 -101 32 -5 77 -17 100 -25 31 -11 62 -13 118 -8 61 5
82 3 109 -11 34 -17 52 -17 177 4 76 13 406 31 571 31 94 0 130 -4 154 -16 23
-12 45 -15 87 -10 121 14 206 13 243 -1 32 -13 70 -13 265 -4 126 6 269 12
318 12 130 2 336 27 362 45 41 26 54 60 64 161 13 126 13 445 1 590 -22 249
-17 248 -1022 248 -366 1 -807 4 -980 7 -173 4 -376 3 -451 -2z"/>
</g>
</svg>
