<?xml version="1.0" standalone="no"?>
<!DOCTYPE svg PUBLIC "-//W3C//DTD SVG 20010904//EN"
 "http://www.w3.org/TR/2001/REC-SVG-20010904/DTD/svg10.dtd">
<svg version="1.0" xmlns="http://www.w3.org/2000/svg"
 width="426.000000pt" height="183.000000pt" viewBox="0 0 426.000000 183.000000"
 preserveAspectRatio="xMidYMid meet">
<metadata>
Created by potrace 1.13, written by Peter Selinger 2001-2015
</metadata>
<g transform="translate(0.000000,183.000000) scale(0.100000,-0.100000)"
fill="#000000" stroke="none">
<path d="M3007 1524 c-4 -4 -411 -8 -905 -9 l-897 -1 -80 -23 c-69 -20 -110
-23 -305 -28 -205 -4 -298 -11 -387 -29 -28 -5 -34 -12 -44 -47 -13 -49 1
-111 29 -123 9 -4 94 -9 187 -11 178 -3 270 -17 279 -40 3 -7 1 -35 -3 -61
-18 -92 -16 -311 3 -417 21 -114 40 -159 93 -211 59 -57 106 -84 174 -100 35
-8 86 -24 113 -35 49 -21 89 -21 174 -4 22 5 40 2 57 -9 30 -20 111 -20 145
-1 18 10 63 14 165 15 77 0 261 5 408 11 241 9 273 8 318 -6 46 -16 56 -16
118 -2 59 14 108 14 372 5 230 -9 354 -8 509 1 410 24 416 28 432 290 18 285
-3 649 -42 721 -19 35 -71 69 -122 79 -107 22 -775 52 -791 35z"/>
</g>
</svg>
