<?xml version="1.0" standalone="no"?>
<!DOCTYPE svg PUBLIC "-//W3C//DTD SVG 20010904//EN"
 "http://www.w3.org/TR/2001/REC-SVG-20010904/DTD/svg10.dtd">
<svg version="1.0" xmlns="http://www.w3.org/2000/svg"
 width="139.000000pt" height="139.000000pt" viewBox="0 0 139.000000 139.000000"
 preserveAspectRatio="xMidYMid meet">
<metadata>
Created by potrace 1.13, written by Peter Selinger 2001-2015
</metadata>
<g transform="translate(0.000000,139.000000) scale(0.100000,-0.100000)"
fill="#000000" stroke="none">
<path d="M1175 1270 c-4 -6 -4 -24 0 -40 5 -23 3 -30 -9 -30 -11 0 -16 -9 -16
-29 0 -25 -5 -29 -32 -34 -18 -3 -72 1 -121 9 -150 26 -415 8 -453 -30 -8 -9
-20 -16 -25 -16 -5 0 -9 -9 -9 -20 0 -13 -7 -20 -20 -20 -21 0 -29 -35 -9 -42
6 -2 -3 -23 -23 -48 -18 -25 -41 -56 -50 -70 -8 -14 -36 -46 -61 -72 -25 -25
-48 -55 -51 -65 -6 -20 -103 -53 -156 -53 -26 0 -33 6 -46 36 -14 33 -18 36
-46 30 -17 -3 -35 -6 -40 -6 -15 0 -1 -67 24 -119 15 -31 18 -46 10 -49 -7 -2
-12 -22 -12 -44 0 -31 4 -41 20 -45 16 -4 20 -14 20 -44 0 -31 4 -39 18 -39
23 0 42 19 42 41 0 9 8 19 18 22 9 4 42 15 72 27 30 11 55 20 56 20 6 0 16
-72 14 -103 -1 -30 2 -37 17 -37 33 0 63 -29 63 -61 0 -16 9 -38 19 -48 10
-10 22 -38 26 -62 10 -60 31 -98 58 -104 12 -4 29 -21 38 -38 11 -22 28 -36
55 -45 21 -7 44 -19 50 -27 16 -21 41 -18 47 6 l5 20 41 -20 c51 -26 71 -26
78 -1 4 14 14 20 33 20 45 0 88 27 95 61 6 26 2 36 -24 61 -20 20 -31 40 -31
58 0 26 -57 109 -81 118 -5 2 -9 11 -9 19 0 12 -7 14 -30 10 -23 -5 -32 -2
-40 12 -8 16 -2 27 30 60 25 25 49 41 64 41 24 0 76 44 76 64 0 7 11 27 25 46
14 19 25 41 25 50 0 23 29 80 41 80 5 0 9 6 9 13 0 6 13 31 28 55 30 44 88 86
178 129 60 28 134 88 134 108 0 8 15 18 33 23 31 8 32 10 34 65 1 42 -2 57
-11 57 -8 0 -16 9 -19 20 -3 12 -14 20 -26 20 -27 0 -60 19 -84 48 -19 23 -51
29 -62 12z"/>
</g>
</svg>
