<?xml version="1.0" standalone="no"?>
<!DOCTYPE svg PUBLIC "-//W3C//DTD SVG 20010904//EN"
 "http://www.w3.org/TR/2001/REC-SVG-20010904/DTD/svg10.dtd">
<svg version="1.0" xmlns="http://www.w3.org/2000/svg"
 width="139.000000pt" height="139.000000pt" viewBox="0 0 139.000000 139.000000"
 preserveAspectRatio="xMidYMid meet">
<metadata>
Created by potrace 1.13, written by Peter Selinger 2001-2015
</metadata>
<g transform="translate(0.000000,139.000000) scale(0.100000,-0.100000)"
fill="#000000" stroke="none">
<path d="M220 1366 c0 -8 -9 -16 -20 -19 -12 -3 -20 -14 -20 -26 0 -27 -19
-60 -48 -84 -14 -12 -22 -28 -20 -41 3 -18 9 -21 41 -19 27 2 37 -2 37 -12 0
-10 10 -15 29 -15 25 0 29 -5 34 -32 3 -18 -1 -72 -9 -121 -26 -150 -8 -415
30 -453 9 -8 16 -20 16 -25 0 -5 9 -9 20 -9 13 0 20 -7 20 -20 0 -21 35 -29
42 -9 2 6 23 -3 48 -23 25 -18 56 -41 70 -50 14 -8 46 -36 72 -61 25 -25 55
-48 65 -51 20 -6 53 -103 53 -156 0 -26 -6 -33 -36 -46 -33 -14 -36 -18 -30
-46 3 -17 6 -35 6 -40 0 -15 67 -1 119 24 31 15 46 18 49 10 2 -7 22 -12 44
-12 31 0 41 4 45 20 4 16 14 20 44 20 31 0 39 4 39 18 0 23 -19 42 -41 42 -9
0 -19 8 -22 17 -4 10 -15 43 -27 73 -11 30 -20 55 -20 56 0 6 72 16 103 14 30
-1 37 2 37 17 0 33 29 63 61 63 16 0 38 9 48 19 10 10 38 22 62 26 60 10 98
31 104 58 4 12 21 29 38 38 22 11 36 28 45 55 7 21 19 44 27 50 21 16 18 41
-6 47 l-20 5 20 41 c26 51 26 71 1 78 -14 4 -20 14 -20 33 0 45 -27 88 -61 95
-26 6 -36 2 -61 -24 -20 -20 -40 -31 -58 -31 -26 0 -109 -57 -118 -81 -2 -5
-11 -9 -19 -9 -12 0 -14 -7 -10 -30 5 -23 2 -32 -12 -40 -16 -8 -27 -2 -60 30
-25 25 -41 49 -41 64 0 24 -44 76 -64 76 -7 0 -27 11 -46 25 -19 14 -41 25
-50 25 -23 0 -80 29 -80 41 0 5 -6 9 -12 9 -7 0 -32 13 -56 28 -44 30 -86 88
-129 178 -28 60 -88 134 -108 134 -8 0 -18 15 -23 33 -8 31 -10 32 -65 34 -42
1 -57 -2 -57 -11z"/>
</g>
</svg>
