<?xml version="1.0" standalone="no"?>
<!DOCTYPE svg PUBLIC "-//W3C//DTD SVG 20010904//EN"
 "http://www.w3.org/TR/2001/REC-SVG-20010904/DTD/svg10.dtd">
<svg version="1.0" xmlns="http://www.w3.org/2000/svg"
 width="99.000000pt" height="123.000000pt" viewBox="0 0 99.000000 123.000000"
 preserveAspectRatio="xMidYMid meet">
<metadata>
Created by potrace 1.13, written by Peter Selinger 2001-2015
</metadata>
<g transform="translate(0.000000,123.000000) scale(0.100000,-0.100000)"
fill="#000000" stroke="none">
<path d="M711 1012 c-5 -10 -34 -35 -65 -56 -51 -35 -64 -39 -141 -45 -77 -6
-87 -9 -117 -38 -18 -18 -51 -70 -73 -116 -29 -62 -47 -87 -67 -96 -38 -17
-62 -10 -66 17 -2 15 -9 22 -20 20 -12 -2 -19 -18 -23 -53 -12 -94 14 -127 46
-59 l17 36 20 -20 21 -20 -22 -31 c-12 -17 -31 -31 -42 -31 -21 0 -26 -25 -6
-33 9 -4 9 -8 0 -14 -6 -4 -15 -21 -18 -36 -7 -26 -5 -27 29 -27 36 0 36 0 36
44 0 36 4 46 20 51 34 11 50 -17 51 -87 0 -35 6 -77 12 -94 13 -33 153 -164
176 -164 8 0 22 -7 32 -16 15 -13 30 -14 109 -5 58 6 99 16 110 26 10 9 33 18
52 22 29 4 39 1 54 -19 17 -24 18 -24 37 -5 13 13 26 17 47 12 26 -6 30 -3 36
20 4 15 4 52 1 83 -8 77 -8 76 -187 118 l-75 17 -3 104 c-3 92 -1 107 18 133
18 26 28 30 67 30 45 0 78 17 130 64 24 22 30 64 14 94 -17 31 -24 57 -22 78
2 24 -70 84 -100 84 -9 0 -22 7 -29 15 -17 20 -47 19 -59 -3z"/>
</g>
</svg>
