<?xml version="1.0" standalone="no"?>
<!DOCTYPE svg PUBLIC "-//W3C//DTD SVG 20010904//EN"
 "http://www.w3.org/TR/2001/REC-SVG-20010904/DTD/svg10.dtd">
<svg version="1.0" xmlns="http://www.w3.org/2000/svg"
 width="107.000000pt" height="98.000000pt" viewBox="0 0 107.000000 98.000000"
 preserveAspectRatio="xMidYMid meet">
<metadata>
Created by potrace 1.13, written by Peter Selinger 2001-2015
</metadata>
<g transform="translate(0.000000,98.000000) scale(0.100000,-0.100000)"
fill="#000000" stroke="none">
<path d="M890 940 c0 -16 -4 -30 -10 -30 -5 0 -10 -7 -10 -17 0 -14 -14 -15
-132 -10 -175 8 -310 -12 -351 -51 -16 -15 -27 -35 -25 -47 3 -22 -38 -95 -53
-95 -5 0 -9 -5 -9 -11 0 -6 -20 -30 -44 -55 -32 -32 -52 -44 -74 -44 -16 0
-41 -9 -55 -20 -14 -11 -28 -20 -31 -20 -3 0 -6 24 -8 53 -3 48 -5 52 -30 55
-20 2 -28 -1 -28 -12 0 -9 -7 -16 -16 -16 -18 0 -16 -29 6 -108 10 -34 10 -48
0 -66 -14 -27 -5 -66 16 -66 8 0 14 -10 14 -25 0 -33 41 -35 55 -2 6 14 24 25
46 31 54 13 69 4 69 -43 0 -33 4 -40 25 -45 19 -5 25 -13 25 -32 0 -17 7 -28
20 -31 16 -4 20 -15 22 -62 2 -46 7 -58 25 -65 11 -6 28 -25 37 -43 11 -24 22
-33 40 -33 14 0 28 -4 31 -10 8 -13 42 -13 47 1 2 6 14 5 33 -5 38 -20 65 -20
65 -1 0 10 10 15 28 15 37 0 72 26 72 54 0 12 -11 33 -25 46 -15 14 -25 35
-25 51 0 16 -8 36 -18 46 -11 10 -22 26 -26 37 -4 13 -13 17 -31 14 -41 -8
-40 22 1 59 21 18 43 33 49 33 16 0 48 38 71 85 10 22 22 42 25 45 3 3 14 23
24 44 27 57 79 104 149 136 33 15 77 43 97 62 19 20 45 41 57 47 44 24 16 119
-35 121 -7 0 -13 3 -13 8 0 11 -64 52 -83 52 -12 0 -17 -9 -17 -30z"/>
</g>
</svg>
