<?xml version="1.0" standalone="no"?>
<!DOCTYPE svg PUBLIC "-//W3C//DTD SVG 20010904//EN"
 "http://www.w3.org/TR/2001/REC-SVG-20010904/DTD/svg10.dtd">
<svg version="1.0" xmlns="http://www.w3.org/2000/svg"
 width="123.000000pt" height="135.000000pt" viewBox="0 0 123.000000 135.000000"
 preserveAspectRatio="xMidYMid meet">
<metadata>
Created by potrace 1.13, written by Peter Selinger 2001-2015
</metadata>
<g transform="translate(0.000000,135.000000) scale(0.100000,-0.100000)"
fill="#000000" stroke="none">
<path d="M569 1190 c-31 -16 -71 -45 -89 -66 -31 -36 -32 -40 -25 -93 15 -115
13 -130 -17 -137 -19 -4 -28 -12 -28 -25 0 -11 -9 -21 -24 -25 -19 -4 -25 -14
-30 -51 -3 -25 -6 -60 -6 -77 0 -24 -7 -36 -29 -49 -38 -22 -61 -22 -61 1 0
11 -9 27 -20 37 -19 17 -19 17 -13 -34 5 -44 2 -57 -17 -83 -15 -21 -19 -33
-12 -40 14 -14 41 -3 49 19 15 40 58 56 92 34 21 -14 26 -124 6 -141 -13 -11
-20 -10 -45 8 -39 29 -50 28 -50 -7 0 -17 -4 -33 -10 -36 -5 -3 -10 -14 -10
-23 0 -9 -7 -30 -15 -46 -8 -15 -15 -40 -15 -53 0 -21 2 -23 15 -13 8 6 26 31
40 55 14 25 33 48 42 53 19 11 91 -16 125 -47 47 -44 98 -72 159 -88 35 -9 73
-22 84 -29 11 -7 49 -16 85 -20 60 -6 72 -4 133 25 36 17 69 31 72 31 4 0 12
6 20 13 7 8 27 12 48 9 27 -3 37 -9 39 -26 4 -30 57 -36 65 -7 3 12 13 21 23
21 10 0 28 8 40 18 19 16 22 28 23 95 2 86 -5 97 -58 96 -47 -2 -100 16 -151
50 -26 17 -57 31 -69 31 -22 0 -26 3 -95 82 -23 26 -50 50 -61 53 -34 11 -24
52 19 74 55 30 78 52 97 94 23 50 14 122 -25 185 -16 26 -36 61 -44 79 -38 84
-152 107 -257 53z"/>
</g>
</svg>
