<?xml version="1.0" standalone="no"?>
<!DOCTYPE svg PUBLIC "-//W3C//DTD SVG 20010904//EN"
 "http://www.w3.org/TR/2001/REC-SVG-20010904/DTD/svg10.dtd">
<svg version="1.0" xmlns="http://www.w3.org/2000/svg"
 width="191.000000pt" height="267.000000pt" viewBox="0 0 191.000000 267.000000"
 preserveAspectRatio="xMidYMid meet">
<metadata>
Created by potrace 1.13, written by Peter Selinger 2001-2015
</metadata>
<g transform="translate(0.000000,267.000000) scale(0.100000,-0.100000)"
fill="#000000" stroke="none">
<path d="M950 2560 c0 -5 -13 -10 -29 -10 -39 0 -61 -9 -61 -26 0 -8 -7 -14
-15 -14 -8 0 -15 -7 -15 -15 0 -8 -4 -15 -10 -15 -5 0 -10 -9 -10 -19 0 -11
-4 -21 -9 -23 -5 -1 -12 -22 -16 -45 l-7 -43 48 -20 c26 -12 54 -20 63 -19 47
4 49 1 35 -38 -7 -21 -13 -69 -13 -108 -1 -111 13 -151 127 -357 33 -60 40
-104 21 -141 -32 -61 -116 -117 -178 -117 -35 0 -38 11 -17 67 23 62 27 107
16 180 -16 98 -29 143 -43 143 -7 1 -21 20 -32 43 -11 23 -27 43 -36 45 -9 2
-34 20 -56 40 -22 21 -59 43 -84 50 -24 8 -57 17 -74 22 -16 5 -74 12 -128 16
-65 5 -111 13 -135 26 -20 10 -42 18 -49 18 -21 0 -27 -67 -10 -111 10 -26 12
-39 4 -39 -6 0 -21 -10 -33 -21 -13 -12 -33 -27 -45 -33 -12 -6 -27 -19 -33
-30 -6 -10 -25 -35 -43 -54 -31 -35 -39 -58 -50 -139 -3 -29 -1 -43 6 -43 8 0
9 -5 1 -19 -13 -25 -13 -91 0 -91 14 0 13 -63 -1 -77 -18 -18 -32 -189 -18
-215 17 -32 19 -166 3 -213 -7 -22 -14 -50 -14 -62 0 -35 47 -30 87 7 18 17
39 30 48 30 14 0 15 -7 9 -46 -5 -34 -3 -48 7 -54 10 -7 10 -11 0 -24 -7 -9
-11 -27 -9 -41 4 -17 1 -25 -8 -25 -15 0 -29 -43 -19 -59 8 -14 92 -14 100 0
4 5 18 14 31 19 15 6 24 18 24 30 0 12 9 24 22 29 19 7 26 4 40 -17 9 -14 19
-40 23 -58 3 -19 10 -34 15 -34 6 0 10 -10 10 -22 0 -12 6 -29 13 -37 20 -23
37 -92 37 -145 0 -47 0 -47 32 -44 26 2 35 9 43 33 5 16 18 38 28 47 9 10 17
29 17 43 0 14 5 25 10 25 6 0 11 15 11 33 1 25 2 27 6 7 13 -85 14 -90 32 -90
30 0 54 36 59 92 3 29 11 58 18 66 14 14 54 8 54 -8 0 -4 11 -11 25 -14 16 -4
32 -21 46 -48 21 -41 21 -43 4 -93 -10 -27 -31 -80 -46 -117 -16 -36 -29 -77
-29 -90 -1 -15 -12 -30 -33 -43 -24 -16 -32 -28 -32 -50 -1 -17 -4 -38 -9 -47
-4 -9 -3 -25 3 -37 6 -11 11 -33 11 -50 0 -28 3 -31 29 -31 16 0 36 -3 44 -6
9 -3 24 3 36 15 19 19 23 19 88 5 37 -8 81 -14 96 -14 15 0 46 -9 68 -21 23
-11 43 -18 45 -16 8 8 -8 57 -18 57 -6 0 -8 6 -5 14 11 27 -17 44 -83 49 -36
4 -87 15 -115 26 -47 18 -50 21 -49 53 3 66 22 110 66 153 47 46 50 49 92 115
35 55 76 100 91 100 6 0 29 18 50 40 21 22 44 40 50 40 5 0 22 -12 38 -25 21
-19 26 -30 21 -50 -7 -28 18 -75 39 -75 40 0 150 -186 130 -219 -6 -9 -8 -31
-5 -49 4 -28 8 -32 33 -32 19 0 29 -5 29 -15 0 -8 -6 -15 -12 -15 -27 -1 -58
-38 -58 -69 0 -17 -4 -31 -10 -31 -12 0 -13 -10 -2 -28 7 -10 19 -7 53 13 55
31 124 33 179 5 21 -11 41 -24 45 -30 9 -15 87 -11 109 5 11 8 30 15 41 15 26
0 65 31 65 51 0 8 -7 25 -16 37 -13 19 -24 22 -85 22 -90 0 -159 17 -184 46
-11 13 -31 52 -44 86 -13 35 -27 72 -32 83 -14 34 -39 141 -39 170 0 15 13 57
30 95 16 38 30 77 30 87 0 10 14 44 30 75 16 31 41 92 55 135 22 66 34 86 81
133 30 30 78 93 106 139 l51 85 -7 114 c-11 201 -48 297 -154 401 -76 75 -143
112 -254 140 -49 13 -64 20 -49 24 13 3 21 13 21 27 0 26 -27 80 -40 80 -6 0
-10 13 -10 29 0 29 -16 54 -42 65 -10 3 -8 8 5 16 9 6 17 22 17 36 0 13 6 33
12 44 18 29 0 52 -51 65 -23 5 -45 15 -49 21 -15 23 -103 56 -132 50 -16 -3
-32 -1 -35 4 -9 14 -53 12 -57 -1 -3 -9 -9 -9 -25 0 -27 14 -53 14 -53 1z"/>
</g>
</svg>
