<?xml version="1.0" standalone="no"?>
<!DOCTYPE svg PUBLIC "-//W3C//DTD SVG 20010904//EN"
 "http://www.w3.org/TR/2001/REC-SVG-20010904/DTD/svg10.dtd">
<svg version="1.0" xmlns="http://www.w3.org/2000/svg"
 width="352.000000pt" height="240.000000pt" viewBox="0 0 352.000000 240.000000"
 preserveAspectRatio="xMidYMid meet">
<metadata>
Created by potrace 1.13, written by Peter Selinger 2001-2015
</metadata>
<g transform="translate(0.000000,240.000000) scale(0.100000,-0.100000)"
fill="#000000" stroke="none">
<path d="M505 1854 c-66 -34 -95 -79 -95 -147 0 -44 36 -115 73 -146 9 -7 17
-24 17 -38 0 -24 -40 -73 -59 -73 -6 0 -22 -20 -36 -45 -24 -40 -26 -52 -21
-107 4 -35 8 -94 10 -133 3 -38 12 -95 21 -125 9 -30 20 -80 24 -110 21 -139
31 -170 72 -208 44 -42 49 -71 24 -142 -20 -57 -19 -89 5 -158 18 -50 19 -63
8 -105 -10 -42 -10 -49 5 -65 43 -42 239 -57 292 -22 17 11 40 20 51 20 55 0
52 73 -3 86 -48 10 -81 25 -99 45 -17 19 -17 22 0 67 10 26 24 70 31 98 7 28
20 63 30 78 13 20 16 38 11 72 -5 40 -2 50 18 75 14 17 22 36 19 47 -3 12 5
30 21 47 27 29 33 67 17 107 -5 13 -19 59 -31 103 -12 44 -28 96 -37 116 -10
24 -13 48 -8 68 6 30 -7 113 -26 156 -5 11 -18 32 -29 46 -20 24 -21 27 -4 70
20 54 19 200 -2 241 -19 36 -70 74 -119 87 -58 16 -145 13 -180 -5z"/>
</g>
</svg>
