<?xml version="1.0" standalone="no"?>
<!DOCTYPE svg PUBLIC "-//W3C//DTD SVG 20010904//EN"
 "http://www.w3.org/TR/2001/REC-SVG-20010904/DTD/svg10.dtd">
<svg version="1.0" xmlns="http://www.w3.org/2000/svg"
 width="352.000000pt" height="240.000000pt" viewBox="0 0 352.000000 240.000000"
 preserveAspectRatio="xMidYMid meet">
<metadata>
Created by potrace 1.13, written by Peter Selinger 2001-2015
</metadata>
<g transform="translate(0.000000,240.000000) scale(0.100000,-0.100000)"
fill="#000000" stroke="none">
<path d="M500 1848 c-60 -31 -90 -77 -90 -140 0 -56 15 -91 59 -132 44 -42 40
-67 -18 -116 -65 -55 -86 -102 -77 -177 4 -32 8 -94 10 -138 2 -44 13 -115 25
-159 13 -43 20 -88 17 -101 -9 -34 53 -152 92 -175 37 -23 42 -59 17 -130 -20
-56 -19 -85 5 -156 16 -46 18 -65 10 -88 -15 -42 -12 -71 8 -88 24 -20 111
-38 189 -38 59 0 72 4 119 35 29 20 56 40 59 44 7 12 -22 41 -41 41 -24 0 -93
43 -99 61 -3 9 3 39 13 65 11 27 23 69 27 94 4 25 14 58 22 74 10 19 13 43 8
75 -6 41 -3 49 19 70 14 14 26 35 26 49 0 13 9 35 20 49 11 14 20 36 20 49 0
35 -60 257 -80 294 -9 16 -9 29 0 49 8 19 8 35 0 55 -5 15 -10 40 -10 55 0 15
-13 47 -29 71 -25 38 -27 46 -18 79 6 20 12 81 14 136 4 91 2 103 -17 128 -63
79 -210 111 -300 65z"/>
</g>
</svg>
