<?xml version="1.0" standalone="no"?>
<!DOCTYPE svg PUBLIC "-//W3C//DTD SVG 20010904//EN"
 "http://www.w3.org/TR/2001/REC-SVG-20010904/DTD/svg10.dtd">
<svg version="1.0" xmlns="http://www.w3.org/2000/svg"
 width="352.000000pt" height="240.000000pt" viewBox="0 0 352.000000 240.000000"
 preserveAspectRatio="xMidYMid meet">
<metadata>
Created by potrace 1.13, written by Peter Selinger 2001-2015
</metadata>
<g transform="translate(0.000000,240.000000) scale(0.100000,-0.100000)"
fill="#000000" stroke="none">
<path d="M515 1854 c-77 -42 -112 -105 -96 -174 10 -46 23 -70 55 -99 39 -36
36 -84 -8 -125 -18 -17 -43 -50 -55 -74 -20 -39 -21 -48 -10 -100 6 -31 15
-86 19 -122 3 -36 14 -85 22 -110 9 -25 21 -79 27 -120 15 -108 43 -184 80
-219 38 -36 40 -65 5 -133 l-26 -52 17 -74 c14 -59 16 -81 6 -111 -23 -79 -9
-100 77 -119 86 -19 182 -15 217 8 17 11 40 20 51 20 12 0 27 7 35 16 18 22 2
44 -46 61 -21 7 -53 24 -71 38 -33 25 -33 25 -19 65 8 21 19 68 26 102 7 35
20 79 30 99 12 24 16 48 12 76 -5 40 -4 42 36 67 36 23 40 28 31 51 -8 20 -5
29 15 51 14 15 25 33 25 41 0 14 -20 73 -71 213 -17 47 -33 108 -34 135 -3 79
-21 143 -48 182 l-26 36 18 48 c14 37 18 68 15 136 -5 101 -15 122 -86 166
-58 36 -175 47 -223 21z"/>
</g>
</svg>
