<?xml version="1.0" standalone="no"?>
<!DOCTYPE svg PUBLIC "-//W3C//DTD SVG 20010904//EN"
 "http://www.w3.org/TR/2001/REC-SVG-20010904/DTD/svg10.dtd">
<svg version="1.0" xmlns="http://www.w3.org/2000/svg"
 width="352.000000pt" height="240.000000pt" viewBox="0 0 352.000000 240.000000"
 preserveAspectRatio="xMidYMid meet">
<metadata>
Created by potrace 1.13, written by Peter Selinger 2001-2015
</metadata>
<g transform="translate(0.000000,240.000000) scale(0.100000,-0.100000)"
fill="#000000" stroke="none">
<path d="M515 1854 c-115 -62 -136 -165 -54 -260 51 -60 51 -83 -5 -130 -59
-49 -80 -96 -72 -165 18 -173 26 -228 39 -264 8 -22 17 -78 21 -125 9 -100 22
-134 70 -188 40 -44 46 -79 21 -139 -20 -48 -19 -89 5 -157 17 -49 18 -64 8
-107 -10 -42 -9 -52 4 -65 39 -39 236 -59 288 -29 14 8 37 14 51 15 30 0 54
23 46 43 -3 8 -30 26 -59 40 -30 15 -63 36 -73 47 -18 20 -18 22 3 89 12 37
22 81 22 97 1 16 7 40 15 54 8 14 14 50 15 81 0 46 4 59 26 80 17 16 24 31 21
46 -3 15 5 30 24 48 18 15 29 35 29 51 0 24 -44 173 -78 264 -9 25 -17 68 -18
95 -1 75 -18 140 -47 174 -24 29 -25 31 -10 73 9 24 18 84 20 134 3 81 1 94
-19 125 -33 49 -107 82 -193 86 -51 2 -78 -1 -100 -13z"/>
</g>
</svg>
