<?xml version="1.0" standalone="no"?>
<!DOCTYPE svg PUBLIC "-//W3C//DTD SVG 20010904//EN"
 "http://www.w3.org/TR/2001/REC-SVG-20010904/DTD/svg10.dtd">
<svg version="1.0" xmlns="http://www.w3.org/2000/svg"
 width="352.000000pt" height="240.000000pt" viewBox="0 0 352.000000 240.000000"
 preserveAspectRatio="xMidYMid meet">
<metadata>
Created by potrace 1.13, written by Peter Selinger 2001-2015
</metadata>
<g transform="translate(0.000000,240.000000) scale(0.100000,-0.100000)"
fill="#000000" stroke="none">
<path d="M488 1841 c-61 -39 -78 -66 -78 -124 0 -53 24 -109 64 -146 38 -36
33 -64 -18 -107 -74 -61 -81 -88 -68 -261 7 -95 18 -171 32 -211 11 -35 20
-81 20 -101 0 -71 27 -137 70 -171 34 -27 40 -37 40 -68 -1 -21 -7 -48 -15
-62 -21 -36 -18 -101 6 -166 18 -48 20 -63 10 -89 -25 -70 -8 -95 77 -113 97
-22 175 -16 242 18 42 21 60 36 60 50 0 24 -36 50 -70 50 -14 0 -41 12 -59 28
l-33 27 26 64 c14 36 26 72 26 80 0 9 12 40 25 70 20 43 24 64 19 96 -5 36 -2
46 20 70 18 19 24 35 20 48 -4 13 3 28 22 48 27 29 28 30 15 82 -7 28 -27 97
-43 152 -17 55 -32 127 -33 160 -3 85 -19 149 -44 180 -24 32 -27 62 -8 108
10 23 12 59 8 126 l-6 93 -42 37 c-49 44 -99 61 -180 61 -48 0 -68 -5 -105
-29z"/>
</g>
</svg>
