<?xml version="1.0" standalone="no"?>
<!DOCTYPE svg PUBLIC "-//W3C//DTD SVG 20010904//EN"
 "http://www.w3.org/TR/2001/REC-SVG-20010904/DTD/svg10.dtd">
<svg version="1.0" xmlns="http://www.w3.org/2000/svg"
 width="352.000000pt" height="240.000000pt" viewBox="0 0 352.000000 240.000000"
 preserveAspectRatio="xMidYMid meet">
<metadata>
Created by potrace 1.13, written by Peter Selinger 2001-2015
</metadata>
<g transform="translate(0.000000,240.000000) scale(0.100000,-0.100000)"
fill="#000000" stroke="none">
<path d="M493 1841 c-59 -43 -73 -67 -73 -129 0 -59 9 -81 51 -130 41 -47 38
-76 -15 -126 -69 -64 -80 -94 -66 -174 7 -37 16 -101 20 -142 4 -41 13 -88 19
-103 6 -16 11 -49 11 -75 0 -47 30 -175 48 -209 6 -10 22 -28 36 -40 36 -32
40 -61 17 -117 -26 -60 -26 -97 -1 -168 17 -50 18 -64 8 -108 -14 -63 -2 -79
75 -97 111 -26 283 -4 311 40 13 20 -6 43 -42 50 -15 4 -45 22 -66 40 l-40 34
22 74 c12 41 22 85 22 99 1 14 7 36 15 50 8 14 14 50 15 82 0 49 3 59 26 75
17 13 26 30 28 51 1 19 12 41 29 56 31 29 33 41 13 93 -8 21 -26 76 -41 122
-14 47 -33 98 -41 113 -8 16 -12 38 -8 54 10 38 -15 144 -44 186 -23 35 -24
41 -12 80 21 74 29 199 15 234 -27 66 -121 114 -223 114 -60 0 -74 -4 -109
-29z"/>
</g>
</svg>
