<?xml version="1.0" standalone="no"?>
<!DOCTYPE svg PUBLIC "-//W3C//DTD SVG 20010904//EN"
 "http://www.w3.org/TR/2001/REC-SVG-20010904/DTD/svg10.dtd">
<svg version="1.0" xmlns="http://www.w3.org/2000/svg"
 width="352.000000pt" height="288.000000pt" viewBox="0 0 352.000000 288.000000"
 preserveAspectRatio="xMidYMid meet">
<metadata>
Created by potrace 1.13, written by Peter Selinger 2001-2015
</metadata>
<g transform="translate(0.000000,288.000000) scale(0.100000,-0.100000)"
fill="#000000" stroke="none">
<path d="M1550 1975 c-20 -24 -2 -51 50 -75 l49 -23 3 -60 c2 -48 7 -62 23
-71 11 -6 22 -12 24 -13 2 -2 -2 -9 -9 -18 -10 -12 -42 -15 -180 -15 -191 0
-204 -4 -371 -106 -107 -66 -169 -117 -226 -186 -73 -86 -94 -143 -100 -262
l-6 -102 33 -38 c19 -22 61 -50 99 -67 62 -29 76 -31 222 -36 l157 -6 -13 -30
c-8 -20 -24 -34 -47 -42 -19 -6 -56 -24 -83 -38 -42 -24 -58 -27 -141 -27 -92
0 -119 -9 -95 -33 7 -7 51 -14 100 -15 69 -3 107 1 172 19 46 13 113 24 149
26 160 7 503 48 516 61 9 8 14 35 14 68 0 50 2 54 28 60 15 3 47 12 71 20 25
8 74 14 110 14 83 1 198 23 217 41 12 13 12 21 -3 59 -23 63 -32 72 -61 65
-35 -9 -23 16 14 28 16 5 75 31 132 58 57 27 109 49 116 49 7 0 47 11 87 24
41 13 94 29 119 36 25 6 85 30 134 51 48 22 111 45 140 50 28 6 71 15 95 20
56 11 71 24 71 60 0 19 -8 34 -25 45 -36 24 -225 15 -314 -15 -87 -29 -154
-38 -374 -52 -164 -10 -190 -10 -205 3 -9 9 -30 22 -45 30 -27 14 -26 14 65
32 96 19 128 38 128 76 0 35 -26 47 -117 54 -48 4 -116 14 -151 22 -35 7 -101
14 -147 14 -79 0 -86 -2 -101 -25 -12 -19 -25 -25 -52 -25 l-35 0 6 74 c4 55
2 79 -9 93 -21 28 -17 46 17 66 37 21 34 36 -12 59 -45 24 -220 26 -239 3z"/>
</g>
</svg>
