<?xml version="1.0" standalone="no"?>
<!DOCTYPE svg PUBLIC "-//W3C//DTD SVG 20010904//EN"
 "http://www.w3.org/TR/2001/REC-SVG-20010904/DTD/svg10.dtd">
<svg version="1.0" xmlns="http://www.w3.org/2000/svg"
 width="352.000000pt" height="288.000000pt" viewBox="0 0 352.000000 288.000000"
 preserveAspectRatio="xMidYMid meet">
<metadata>
Created by potrace 1.13, written by Peter Selinger 2001-2015
</metadata>
<g transform="translate(0.000000,288.000000) scale(0.100000,-0.100000)"
fill="#000000" stroke="none">
<path d="M1758 2050 c-53 -9 -100 -35 -137 -74 -35 -38 -16 -56 60 -56 33 0
59 -2 59 -5 0 -2 -5 -15 -11 -29 -14 -30 1 -56 32 -56 15 0 19 -8 19 -39 0
-48 1 -48 -150 -56 -128 -7 -181 -22 -326 -91 -140 -67 -231 -160 -283 -292
-11 -28 -27 -98 -36 -156 -14 -95 -14 -109 0 -134 47 -87 86 -102 266 -102
l139 0 0 -55 c0 -44 -4 -57 -17 -61 -48 -15 -159 -68 -169 -80 -6 -8 -24 -14
-40 -14 -30 0 -64 38 -78 87 -10 31 -34 36 -50 10 -27 -43 -28 -65 -5 -88 20
-20 28 -21 113 -15 50 3 120 10 156 16 36 6 175 14 308 18 240 7 244 7 263 31
11 13 19 39 19 60 l0 37 83 13 c45 7 120 21 167 31 47 10 126 23 175 30 113
15 139 25 154 57 10 21 9 29 -4 43 -8 9 -15 28 -15 41 0 33 -17 49 -53 49 -25
0 -28 3 -25 26 2 21 13 30 49 44 26 9 74 36 107 59 34 24 92 53 134 65 40 13
101 35 135 50 34 14 70 26 80 26 57 0 199 103 186 136 -3 7 -21 18 -41 24 -33
9 -44 7 -97 -22 l-60 -31 -300 -7 c-244 -6 -303 -5 -314 6 -20 18 -14 22 49
34 29 6 59 15 67 21 16 14 17 91 1 107 -7 7 -38 12 -69 12 -54 0 -57 1 -62 29
-7 34 -33 46 -71 31 -31 -11 -96 -13 -212 -4 l-81 7 -12 34 c-11 29 -10 37 4
53 14 16 14 19 0 33 -20 21 -21 21 25 51 43 28 60 67 40 91 -14 17 -90 19
-172 5z"/>
</g>
</svg>
