<?xml version="1.0" standalone="no"?>
<!DOCTYPE svg PUBLIC "-//W3C//DTD SVG 20010904//EN"
 "http://www.w3.org/TR/2001/REC-SVG-20010904/DTD/svg10.dtd">
<svg version="1.0" xmlns="http://www.w3.org/2000/svg"
 width="352.000000pt" height="288.000000pt" viewBox="0 0 352.000000 288.000000"
 preserveAspectRatio="xMidYMid meet">
<metadata>
Created by potrace 1.13, written by Peter Selinger 2001-2015
</metadata>
<g transform="translate(0.000000,288.000000) scale(0.100000,-0.100000)"
fill="#000000" stroke="none">
<path d="M1740 2078 c-183 -38 -205 -73 -73 -114 71 -21 69 -20 49 -40 -20
-19 -6 -44 25 -44 15 0 19 -8 19 -38 0 -36 -3 -40 -37 -49 -59 -17 -263 -62
-313 -69 -146 -22 -234 -123 -322 -374 -25 -70 -31 -106 -35 -201 -5 -109 -4
-118 16 -138 11 -11 33 -23 48 -26 16 -3 42 -10 59 -15 17 -6 67 -10 113 -10
l82 0 -3 -51 -3 -52 -60 -19 c-33 -10 -88 -22 -121 -25 -58 -5 -63 -4 -74 18
-22 42 -48 50 -74 23 -23 -23 -20 -36 17 -61 28 -20 46 -23 121 -23 48 0 115
6 149 14 111 25 200 37 333 45 163 10 188 20 192 79 4 51 9 54 132 72 47 6
123 18 169 26 46 8 115 14 153 14 104 0 212 54 153 76 -10 4 -15 20 -15 49 0
52 -17 69 -65 63 l-35 -4 0 56 0 56 134 57 c73 31 139 57 146 57 14 0 232 113
273 142 15 11 27 26 27 34 0 26 -33 28 -96 6 -53 -19 -85 -22 -204 -22 -78 0
-195 -5 -260 -11 -65 -6 -130 -9 -144 -5 -41 10 -31 33 23 51 44 14 50 21 66
62 25 64 14 77 -64 81 -44 2 -61 7 -61 17 0 33 -30 45 -109 45 -43 0 -112 3
-154 6 -87 8 -89 11 -80 100 6 51 7 54 34 54 51 0 88 57 57 88 -14 14 -122 14
-188 0z"/>
</g>
</svg>
