<?xml version="1.0" standalone="no"?>
<!DOCTYPE svg PUBLIC "-//W3C//DTD SVG 20010904//EN"
 "http://www.w3.org/TR/2001/REC-SVG-20010904/DTD/svg10.dtd">
<svg version="1.0" xmlns="http://www.w3.org/2000/svg"
 width="352.000000pt" height="288.000000pt" viewBox="0 0 352.000000 288.000000"
 preserveAspectRatio="xMidYMid meet">
<metadata>
Created by potrace 1.13, written by Peter Selinger 2001-2015
</metadata>
<g transform="translate(0.000000,288.000000) scale(0.100000,-0.100000)"
fill="#000000" stroke="none">
<path d="M1566 1944 c-20 -20 -20 -63 0 -92 11 -16 25 -22 55 -22 27 0 39 -4
39 -14 0 -8 -4 -18 -10 -21 -17 -10 -11 -33 10 -40 16 -5 20 -15 20 -51 l0
-44 -217 0 -218 0 -74 -37 c-96 -48 -201 -153 -269 -266 -68 -113 -92 -189
-92 -294 0 -124 -11 -118 275 -148 77 -8 161 -15 188 -15 l47 0 0 -45 c0 -35
-4 -45 -16 -45 -9 0 -31 -8 -48 -19 -17 -10 -67 -24 -111 -30 -52 -7 -84 -17
-92 -28 -11 -14 -14 -14 -32 8 -11 13 -20 27 -21 31 0 12 -38 28 -53 22 -24
-9 -40 -54 -25 -71 11 -13 39 -15 198 -10 102 3 221 13 265 21 44 8 107 15
141 16 100 0 316 45 352 73 6 5 12 31 12 57 0 55 7 60 78 60 79 0 343 46 353
61 5 8 8 34 7 58 -4 55 -24 71 -68 54 l-30 -11 0 37 c0 38 1 39 55 56 31 9 99
23 153 30 151 21 208 43 472 182 52 28 127 60 165 72 39 13 77 26 85 30 19 10
25 48 10 67 -18 20 -119 18 -199 -5 -46 -13 -115 -21 -226 -25 -150 -6 -293
-22 -410 -45 -27 -5 -71 -10 -97 -10 l-48 -1 0 34 0 35 58 6 c71 8 110 22 123
46 17 33 -30 51 -165 65 -96 9 -131 17 -170 38 -44 23 -61 26 -152 26 -88 0
-105 3 -113 18 -13 25 -18 127 -6 127 42 3 76 39 60 65 -4 6 -56 10 -125 10
-94 0 -122 -3 -134 -16z"/>
</g>
</svg>
