<?xml version="1.0" standalone="no"?>
<!DOCTYPE svg PUBLIC "-//W3C//DTD SVG 20010904//EN"
 "http://www.w3.org/TR/2001/REC-SVG-20010904/DTD/svg10.dtd">
<svg version="1.0" xmlns="http://www.w3.org/2000/svg"
 width="352.000000pt" height="288.000000pt" viewBox="0 0 352.000000 288.000000"
 preserveAspectRatio="xMidYMid meet">
<metadata>
Created by potrace 1.13, written by Peter Selinger 2001-2015
</metadata>
<g transform="translate(0.000000,288.000000) scale(0.100000,-0.100000)"
fill="#000000" stroke="none">
<path d="M1865 2060 c-11 -5 -45 -16 -75 -25 -67 -21 -140 -62 -140 -80 0 -14
50 -35 81 -35 23 0 25 -35 4 -57 -19 -18 -6 -38 30 -47 27 -7 31 -22 14 -60
-13 -27 -21 -29 -244 -45 -165 -12 -198 -26 -290 -121 -38 -41 -85 -87 -103
-104 -72 -66 -120 -198 -129 -351 -7 -106 6 -157 44 -182 24 -16 145 -36 294
-49 64 -6 65 -7 61 -33 -3 -24 -10 -29 -65 -41 -34 -7 -88 -26 -119 -41 -81
-41 -101 -38 -138 16 -35 51 -61 57 -86 21 -24 -37 -15 -68 26 -88 55 -28 243
-25 404 7 186 37 312 55 393 55 90 0 103 11 103 85 0 52 1 53 33 58 17 2 64
12 102 20 93 21 232 37 328 37 64 0 79 3 84 17 4 9 1 19 -5 21 -7 2 -12 24
-12 52 0 57 -18 80 -61 80 -24 0 -29 4 -29 24 0 28 18 37 145 67 110 26 193
55 308 108 48 23 92 41 98 41 26 0 150 83 164 109 26 51 8 56 -173 42 -86 -7
-188 -16 -227 -21 -89 -12 -421 -17 -431 -7 -4 4 14 7 40 7 66 0 91 27 101
109 10 84 3 91 -97 91 -74 0 -83 2 -124 32 l-44 31 -133 -6 -134 -7 -12 26
c-10 22 -9 30 4 44 21 23 19 47 -5 62 -31 20 -25 31 36 63 62 34 89 59 79 74
-7 13 -71 13 -100 1z"/>
</g>
</svg>
