<?xml version="1.0" standalone="no"?>
<!DOCTYPE svg PUBLIC "-//W3C//DTD SVG 20010904//EN"
 "http://www.w3.org/TR/2001/REC-SVG-20010904/DTD/svg10.dtd">
<svg version="1.0" xmlns="http://www.w3.org/2000/svg"
 width="352.000000pt" height="288.000000pt" viewBox="0 0 352.000000 288.000000"
 preserveAspectRatio="xMidYMid meet">
<metadata>
Created by potrace 1.13, written by Peter Selinger 2001-2015
</metadata>
<g transform="translate(0.000000,288.000000) scale(0.100000,-0.100000)"
fill="#000000" stroke="none">
<path d="M1630 1963 c-19 -9 -51 -19 -70 -22 -43 -8 -46 -33 -5 -41 17 -4 40
-12 52 -18 12 -7 35 -12 52 -12 34 0 36 -5 20 -47 -6 -15 -11 -54 -10 -85 1
-32 1 -58 -1 -58 -2 -1 -61 -5 -133 -10 -304 -20 -477 -109 -649 -333 -68 -89
-86 -137 -93 -252 -7 -110 6 -143 64 -167 35 -15 272 -46 388 -51 49 -2 50 -3
53 -36 2 -19 -1 -31 -6 -27 -6 3 -12 0 -15 -8 -6 -15 -119 -46 -167 -46 -18 0
-33 -6 -36 -15 -8 -21 -31 -19 -38 3 -11 34 -46 62 -77 62 -22 0 -34 -8 -49
-32 -36 -59 -24 -62 215 -54 115 4 291 15 390 26 99 10 210 22 248 25 79 8 97
22 97 75 0 50 23 63 135 80 104 16 326 59 337 66 4 3 8 31 8 63 0 73 -12 85
-80 79 -49 -5 -50 -5 -50 23 0 22 5 30 23 33 53 10 169 27 257 37 52 5 105 16
117 24 30 20 203 88 289 113 39 12 114 42 167 66 97 45 135 80 123 112 -10 25
-381 15 -526 -14 -103 -20 -293 -42 -360 -42 -35 1 -89 34 -76 47 3 4 32 12
64 18 45 9 60 17 72 38 14 25 13 27 -18 55 -31 28 -39 29 -142 34 -98 5 -115
9 -148 32 -32 22 -49 26 -104 26 -46 0 -71 -5 -82 -15 -8 -9 -33 -15 -60 -15
-52 0 -66 16 -66 77 0 30 5 40 23 48 15 7 21 17 19 32 -2 17 4 26 23 35 33 15
29 36 -14 65 -40 27 -108 30 -161 6z"/>
</g>
</svg>
