<?xml version="1.0" standalone="no"?>
<!DOCTYPE svg PUBLIC "-//W3C//DTD SVG 20010904//EN"
 "http://www.w3.org/TR/2001/REC-SVG-20010904/DTD/svg10.dtd">
<svg version="1.0" xmlns="http://www.w3.org/2000/svg"
 width="474.000000pt" height="286.000000pt" viewBox="0 0 474.000000 286.000000"
 preserveAspectRatio="xMidYMid meet">
<metadata>
Created by potrace 1.13, written by Peter Selinger 2001-2015
</metadata>
<g transform="translate(0.000000,286.000000) scale(0.100000,-0.100000)"
fill="#000000" stroke="none">
<path d="M1608 1836 c-3 -4 -169 -12 -368 -17 -263 -7 -379 -13 -420 -24 -32
-8 -70 -15 -85 -15 -16 0 -38 -11 -56 -30 -29 -29 -30 -29 -29 -147 0 -65 0
-138 -1 -163 -1 -25 2 -79 6 -120 l7 -75 -30 -22 c-38 -28 -52 -74 -52 -173 0
-52 5 -82 15 -98 13 -17 14 -26 4 -44 -11 -20 -40 -130 -35 -135 1 -1 21 3 44
9 l42 10 0 49 c0 47 1 49 20 37 16 -10 20 -24 20 -64 0 -112 56 -217 140 -261
86 -45 215 -15 284 68 14 17 29 41 32 53 5 20 14 24 72 30 126 11 159 8 205
-21 128 -83 162 -96 229 -89 74 9 139 36 164 70 19 26 19 26 104 16 114 -13
905 -13 950 0 21 6 80 8 148 4 101 -6 112 -9 112 -26 0 -29 45 -109 82 -147
69 -71 104 -86 198 -86 63 0 95 5 123 19 43 21 102 77 122 116 21 41 72 48
102 15 32 -34 74 -54 139 -66 65 -12 154 3 154 27 0 8 10 14 22 14 22 0 97 73
99 97 2 22 4 27 19 53 10 17 15 52 14 112 -1 75 -5 96 -30 146 -29 58 -29 59
-7 49 30 -13 39 -3 25 28 -7 16 -20 25 -34 25 -13 0 -48 15 -78 33 -53 31 -55
34 -52 70 3 31 -2 43 -28 68 -29 30 -34 31 -83 24 -101 -14 -101 -14 -115 32
-8 25 -29 56 -53 78 l-39 35 -193 1 c-158 0 -407 8 -677 22 -43 2 -45 4 -52
37 -4 19 -7 90 -7 158 -1 120 -1 122 22 123 12 1 -3 7 -33 15 -104 26 -305 54
-459 64 -208 13 -694 24 -703 16z"/>
</g>
</svg>
