<?xml version="1.0" standalone="no"?>
<!DOCTYPE svg PUBLIC "-//W3C//DTD SVG 20010904//EN"
 "http://www.w3.org/TR/2001/REC-SVG-20010904/DTD/svg10.dtd">
<svg version="1.0" xmlns="http://www.w3.org/2000/svg"
 width="309.000000pt" height="166.000000pt" viewBox="0 0 309.000000 166.000000"
 preserveAspectRatio="xMidYMid meet">
<metadata>
Created by potrace 1.13, written by Peter Selinger 2001-2015
</metadata>
<g transform="translate(0.000000,166.000000) scale(0.100000,-0.100000)"
fill="#000000" stroke="none">
<path d="M1970 1603 c-229 -23 -504 -90 -631 -154 -91 -45 -122 -82 -154 -179
-15 -47 -34 -93 -42 -102 -8 -9 -78 -38 -156 -63 -78 -26 -162 -55 -187 -65
-25 -10 -58 -16 -73 -13 -15 3 -47 2 -72 -1 -38 -6 -46 -11 -52 -34 -3 -14
-21 -42 -40 -61 -18 -19 -33 -38 -33 -43 0 -4 -22 -8 -50 -8 -37 0 -50 -4 -50
-15 0 -11 -7 -13 -29 -9 -26 6 -30 3 -33 -21 -2 -20 -14 -34 -48 -52 -95 -53
-170 -174 -170 -274 0 -32 4 -69 10 -83 8 -22 6 -25 -18 -28 -24 -3 -27 -8
-30 -43 l-3 -40 72 -33 c39 -17 75 -32 80 -32 5 0 46 -19 91 -41 61 -31 102
-44 156 -51 41 -5 93 -15 116 -23 30 -11 91 -15 224 -15 l184 0 29 -29 c16
-16 29 -36 29 -44 0 -45 162 -58 238 -19 28 15 42 29 42 42 0 11 4 20 9 20 5
0 14 20 20 45 13 54 68 99 132 110 22 4 75 23 117 43 42 19 91 39 107 43 59
15 166 59 228 93 107 60 210 108 262 121 64 16 106 31 176 63 53 23 64 24 155
18 55 -4 111 -12 126 -17 53 -21 208 87 208 144 0 13 7 32 15 43 8 10 15 29
15 41 0 31 58 83 93 83 23 0 27 4 27 30 0 23 -9 35 -45 60 -36 25 -45 37 -45
60 0 16 -6 33 -14 37 -8 4 -16 19 -18 33 -3 22 -9 26 -57 30 l-54 5 -32 75
c-42 98 -73 150 -125 211 -54 63 -173 123 -277 138 -66 10 -340 13 -423 4z"/>
</g>
</svg>
