<?xml version="1.0" standalone="no"?>
<!DOCTYPE svg PUBLIC "-//W3C//DTD SVG 20010904//EN"
 "http://www.w3.org/TR/2001/REC-SVG-20010904/DTD/svg10.dtd">
<svg version="1.0" xmlns="http://www.w3.org/2000/svg"
 width="309.000000pt" height="166.000000pt" viewBox="0 0 309.000000 166.000000"
 preserveAspectRatio="xMidYMid meet">
<metadata>
Created by potrace 1.13, written by Peter Selinger 2001-2015
</metadata>
<g transform="translate(0.000000,166.000000) scale(0.100000,-0.100000)"
fill="#000000" stroke="none">
<path d="M679 1597 c-36 -7 -100 -29 -142 -50 -108 -53 -171 -130 -242 -297
l-32 -75 -54 -5 c-48 -4 -54 -8 -57 -30 -2 -14 -10 -29 -18 -33 -8 -4 -14 -21
-14 -37 0 -23 -9 -35 -45 -60 -36 -25 -45 -37 -45 -60 0 -26 4 -30 28 -30 34
0 92 -52 92 -83 0 -12 7 -31 15 -41 8 -11 15 -30 15 -43 0 -33 51 -86 120
-122 52 -28 65 -31 88 -22 15 5 71 13 126 17 91 6 102 5 155 -18 70 -32 112
-47 176 -63 52 -13 155 -61 262 -121 62 -34 169 -78 228 -93 17 -4 65 -24 107
-43 42 -20 95 -39 117 -43 64 -11 119 -56 132 -110 6 -25 15 -45 20 -45 5 0 9
-9 9 -20 0 -13 14 -27 43 -42 75 -39 237 -26 237 19 0 8 13 28 29 44 l29 29
184 0 c133 0 194 4 224 15 23 8 75 18 116 23 54 7 95 20 156 51 45 22 86 41
91 41 5 0 41 15 80 32 l72 33 -3 40 c-3 35 -6 40 -30 43 -24 3 -26 6 -18 28
43 111 -37 288 -160 357 -34 18 -46 32 -48 52 -3 24 -7 27 -33 21 -22 -4 -29
-2 -29 9 0 11 -13 15 -50 15 -27 0 -50 4 -50 8 0 5 -15 24 -33 43 -19 19 -37
47 -40 61 -6 23 -14 28 -52 34 -25 3 -57 4 -72 1 -15 -3 -48 3 -73 13 -25 10
-109 39 -187 65 -78 25 -148 54 -156 63 -8 9 -27 55 -42 102 -32 97 -63 134
-154 179 -105 53 -240 91 -467 131 -148 27 -501 37 -605 17z"/>
</g>
</svg>
