<?xml version="1.0" standalone="no"?>
<!DOCTYPE svg PUBLIC "-//W3C//DTD SVG 20010904//EN"
 "http://www.w3.org/TR/2001/REC-SVG-20010904/DTD/svg10.dtd">
<svg version="1.0" xmlns="http://www.w3.org/2000/svg"
 width="481.000000pt" height="278.000000pt" viewBox="0 0 481.000000 278.000000"
 preserveAspectRatio="xMidYMid meet">
<metadata>
Created by potrace 1.13, written by Peter Selinger 2001-2015
</metadata>
<g transform="translate(0.000000,278.000000) scale(0.100000,-0.100000)"
fill="#000000" stroke="none">
<path d="M1955 1889 c-47 -11 -70 -29 -37 -29 22 0 22 -3 22 -132 0 -73 -3
-155 -6 -183 l-6 -50 -359 -3 c-311 -3 -362 -1 -381 13 -54 37 -97 17 -223
-106 -28 -27 -69 -59 -90 -70 -52 -26 -85 -64 -85 -95 0 -14 -6 -24 -14 -24
-8 0 -27 -11 -43 -24 -15 -13 -37 -25 -47 -27 -31 -6 -59 -65 -65 -138 -6 -65
-6 -65 -41 -72 -117 -24 -101 -199 19 -199 34 0 43 -4 55 -27 21 -41 89 -101
133 -116 75 -27 110 -37 156 -43 31 -5 61 -17 85 -37 61 -49 117 -68 203 -69
65 -1 86 3 132 26 31 15 72 43 92 64 35 35 85 122 85 149 0 9 183 11 770 8
l770 -3 38 -30 c57 -46 106 -62 186 -62 86 0 170 21 202 51 l23 21 14 -34 c46
-109 197 -184 321 -158 105 22 216 131 232 230 l6 35 62 -3 c55 -3 67 -1 92
21 28 25 29 27 26 114 -6 210 -63 377 -142 418 -26 13 -34 13 -68 0 -21 -9
-46 -28 -55 -44 -25 -43 -58 -44 -120 -5 -28 19 -123 69 -209 111 -119 59
-156 82 -152 93 12 29 16 148 9 225 -6 72 -9 79 -48 119 -39 40 -48 44 -132
60 -49 9 -170 21 -269 26 -221 12 -1087 11 -1141 -1z"/>
</g>
</svg>
