<?xml version="1.0" standalone="no"?>
<!DOCTYPE svg PUBLIC "-//W3C//DTD SVG 20010904//EN"
 "http://www.w3.org/TR/2001/REC-SVG-20010904/DTD/svg10.dtd">
<svg version="1.0" xmlns="http://www.w3.org/2000/svg"
 width="943.000000pt" height="347.000000pt" viewBox="0 0 943.000000 347.000000"
 preserveAspectRatio="xMidYMid meet">
<metadata>
Created by potrace 1.13, written by Peter Selinger 2001-2015
</metadata>
<g transform="translate(0.000000,347.000000) scale(0.100000,-0.100000)"
fill="#000000" stroke="none">
<path d="M5880 2949 c-73 -19 -627 -77 -900 -95 -58 -4 -114 -11 -125 -17 -11
-6 -69 -20 -130 -33 -208 -42 -223 -46 -236 -70 -6 -13 -9 -30 -5 -39 5 -14
18 -16 95 -10 122 10 176 1 212 -36 28 -29 29 -33 29 -129 0 -93 -1 -100 -20
-100 -13 0 -20 -7 -20 -20 0 -13 7 -20 19 -20 16 0 17 -6 13 -52 -2 -29 -6
-55 -8 -57 -2 -2 -367 -6 -811 -7 -445 -2 -906 -6 -1025 -9 l-218 -5 0 55 c0
50 -3 56 -25 65 -14 5 -25 14 -25 20 0 18 -52 31 -92 25 -38 -7 -38 -7 -38
-55 0 -28 6 -54 14 -62 26 -27 24 -52 -6 -65 -15 -7 -34 -25 -40 -40 -7 -15
-23 -37 -34 -48 -28 -26 -74 -142 -74 -185 l0 -33 -80 7 c-109 9 -127 3 -134
-42 -17 -113 -15 -110 -55 -117 -49 -8 -164 -73 -224 -126 -120 -105 -194
-280 -141 -333 18 -18 89 -21 129 -6 25 10 25 8 -20 -74 -25 -45 -45 -91 -45
-101 0 -13 -5 -16 -23 -11 -12 3 -25 6 -29 6 -3 0 -11 13 -17 30 -11 34 -48
41 -75 15 -8 -8 -23 -15 -33 -15 -10 0 -23 -4 -29 -8 -16 -11 -26 -79 -15
-100 7 -14 6 -24 -4 -38 -20 -27 -18 -63 5 -101 18 -31 39 -41 85 -42 11 0 46
-5 78 -11 45 -10 57 -16 57 -31 0 -31 40 -140 76 -205 29 -52 66 -94 164 -185
29 -27 160 -87 225 -104 32 -8 81 -15 108 -15 36 0 63 -8 101 -29 65 -38 170
-77 266 -101 106 -26 219 -12 370 48 155 61 301 195 365 335 l26 56 385 0
c373 1 418 -2 679 -36 22 -3 571 -7 1220 -10 l1179 -5 15 -21 c13 -20 110
-117 144 -144 35 -27 131 -72 189 -88 35 -9 116 -19 181 -22 113 -5 122 -7
175 -39 31 -19 62 -34 70 -34 7 0 32 -11 55 -24 78 -46 121 -53 309 -55 l177
-2 61 31 c63 32 121 85 204 187 45 56 110 158 122 193 4 12 34 15 167 18 210
3 258 17 347 102 35 33 67 60 71 60 5 0 16 25 24 55 13 42 21 55 36 55 12 0
19 7 19 20 0 12 -7 20 -16 20 -13 0 -15 6 -9 28 30 124 36 184 31 347 -5 202
-17 249 -90 379 -19 33 -98 116 -130 136 -62 38 -126 53 -197 46 -37 -4 -79
-4 -94 0 -31 8 -29 -49 -12 495 9 298 8 330 -8 378 -20 61 -59 111 -87 111
-10 0 -29 5 -40 11 -12 6 -51 15 -87 20 -36 4 -97 22 -135 39 -57 26 -85 32
-158 35 -50 2 -96 9 -103 15 -6 5 -23 10 -36 9 -46 -1 -1657 11 -1979 15 -179
2 -341 0 -360 -5z"/>
</g>
</svg>
