<?xml version="1.0" standalone="no"?>
<!DOCTYPE svg PUBLIC "-//W3C//DTD SVG 20010904//EN"
 "http://www.w3.org/TR/2001/REC-SVG-20010904/DTD/svg10.dtd">
<svg version="1.0" xmlns="http://www.w3.org/2000/svg"
 width="284.000000pt" height="445.000000pt" viewBox="0 0 284.000000 445.000000"
 preserveAspectRatio="xMidYMid meet">
<metadata>
Created by potrace 1.13, written by Peter Selinger 2001-2015
</metadata>
<g transform="translate(0.000000,445.000000) scale(0.100000,-0.100000)"
fill="#000000" stroke="none">
<path d="M1847 4150 c-521 -158 -949 -289 -951 -291 -2 -2 1 -38 6 -79 17
-145 63 -299 270 -910 150 -442 190 -594 196 -741 8 -208 -15 -259 -204 -444
-192 -189 -198 -202 -224 -500 -30 -353 -176 -625 -459 -853 -96 -77 -175
-131 -388 -267 -51 -32 -92 -60 -90 -61 3 -3 338 30 572 56 389 44 671 109
875 202 36 16 110 43 164 60 196 58 433 180 578 297 311 251 493 547 557 906
l17 100 -224 455 c-124 250 -264 535 -312 633 l-87 178 339 757 c186 416 341
765 344 775 4 12 0 17 -13 16 -10 -1 -445 -131 -966 -289z"/>
</g>
</svg>
