<?xml version="1.0" standalone="no"?>
<!DOCTYPE svg PUBLIC "-//W3C//DTD SVG 20010904//EN"
 "http://www.w3.org/TR/2001/REC-SVG-20010904/DTD/svg10.dtd">
<svg version="1.0" xmlns="http://www.w3.org/2000/svg"
 width="269.000000pt" height="419.000000pt" viewBox="0 0 269.000000 419.000000"
 preserveAspectRatio="xMidYMid meet">
<metadata>
Created by potrace 1.13, written by Peter Selinger 2001-2015
</metadata>
<g transform="translate(0.000000,419.000000) scale(0.100000,-0.100000)"
fill="#000000" stroke="none">
<path d="M1765 3911 c-484 -147 -912 -277 -952 -289 -46 -14 -71 -27 -68 -35
2 -6 16 -595 31 -1307 29 -1384 28 -1424 -17 -1546 -23 -62 -72 -109 -123
-118 -20 -4 -97 0 -172 9 -135 16 -180 14 -279 -7 -45 -10 -160 -59 -177 -76
-4 -4 28 -8 70 -9 54 -1 102 -9 155 -27 136 -46 204 -86 529 -309 210 -144
373 -209 487 -192 77 12 367 112 479 166 387 186 696 520 816 880 69 207 64
125 105 1684 21 787 37 1433 34 1438 -2 4 -12 7 -21 6 -9 -1 -413 -121 -897
-268z"/>
</g>
</svg>
