<?xml version="1.0" standalone="no"?>
<!DOCTYPE svg PUBLIC "-//W3C//DTD SVG 20010904//EN"
 "http://www.w3.org/TR/2001/REC-SVG-20010904/DTD/svg10.dtd">
<svg version="1.0" xmlns="http://www.w3.org/2000/svg"
 width="283.000000pt" height="445.000000pt" viewBox="0 0 283.000000 445.000000"
 preserveAspectRatio="xMidYMid meet">
<metadata>
Created by potrace 1.13, written by Peter Selinger 2001-2015
</metadata>
<g transform="translate(0.000000,445.000000) scale(0.100000,-0.100000)"
fill="#000000" stroke="none">
<path d="M1843 4151 c-518 -158 -944 -289 -947 -291 -2 -3 8 -593 23 -1312 17
-827 24 -1337 19 -1389 -21 -194 -92 -394 -197 -550 -54 -81 -189 -224 -272
-288 -60 -46 -388 -266 -439 -294 -18 -10 -31 -19 -29 -21 4 -4 249 19 534 49
380 41 701 112 885 197 36 17 107 43 158 59 404 124 704 332 926 644 109 152
187 329 226 512 20 91 24 196 60 1528 20 787 36 1433 33 1438 -2 4 -12 7 -21
6 -9 -1 -441 -130 -959 -288z"/>
</g>
</svg>
