<?xml version="1.0" standalone="no"?>
<!DOCTYPE svg PUBLIC "-//W3C//DTD SVG 20010904//EN"
 "http://www.w3.org/TR/2001/REC-SVG-20010904/DTD/svg10.dtd">
<svg version="1.0" xmlns="http://www.w3.org/2000/svg"
 width="284.000000pt" height="445.000000pt" viewBox="0 0 284.000000 445.000000"
 preserveAspectRatio="xMidYMid meet">
<metadata>
Created by potrace 1.13, written by Peter Selinger 2001-2015
</metadata>
<g transform="translate(0.000000,445.000000) scale(0.100000,-0.100000)"
fill="#000000" stroke="none">
<path d="M1847 4150 c-521 -158 -949 -289 -950 -291 -1 -2 0 -281 3 -619 5
-560 7 -620 24 -670 26 -79 89 -200 150 -288 50 -73 91 -125 275 -351 199
-244 311 -426 345 -557 67 -261 -85 -531 -419 -749 -185 -121 -368 -212 -735
-365 -312 -130 -482 -210 -525 -245 -19 -15 -18 -16 20 -10 22 3 137 14 255
25 601 57 912 119 1160 232 36 16 110 43 164 60 196 58 433 180 578 297 311
251 492 545 556 905 l19 103 -312 623 -312 623 339 766 c186 421 341 774 344
784 4 12 0 17 -13 16 -10 -1 -445 -131 -966 -289z"/>
</g>
</svg>
