<?xml version="1.0" standalone="no"?>
<!DOCTYPE svg PUBLIC "-//W3C//DTD SVG 20010904//EN"
 "http://www.w3.org/TR/2001/REC-SVG-20010904/DTD/svg10.dtd">
<svg version="1.0" xmlns="http://www.w3.org/2000/svg"
 width="283.000000pt" height="445.000000pt" viewBox="0 0 283.000000 445.000000"
 preserveAspectRatio="xMidYMid meet">
<metadata>
Created by potrace 1.13, written by Peter Selinger 2001-2015
</metadata>
<g transform="translate(0.000000,445.000000) scale(0.100000,-0.100000)"
fill="#000000" stroke="none">
<path d="M1584 3912 l-1221 -527 4 -45 c16 -176 58 -322 142 -489 51 -102 185
-308 266 -411 24 -30 93 -116 152 -191 401 -507 535 -792 520 -1109 -8 -185
-82 -335 -235 -482 -151 -144 -340 -252 -751 -428 -218 -93 -410 -185 -446
-214 -19 -16 -19 -16 15 -11 19 3 134 14 255 25 430 41 624 69 839 125 142 36
255 74 326 110 25 12 88 35 140 50 590 173 1026 616 1145 1165 13 62 23 326
54 1510 21 789 37 1438 34 1443 -2 4 -7 7 -11 7 -4 0 -556 -238 -1228 -528z"/>
</g>
</svg>
