<?xml version="1.0" standalone="no"?>
<!DOCTYPE svg PUBLIC "-//W3C//DTD SVG 20010904//EN"
 "http://www.w3.org/TR/2001/REC-SVG-20010904/DTD/svg10.dtd">
<svg version="1.0" xmlns="http://www.w3.org/2000/svg"
 width="230.000000pt" height="472.000000pt" viewBox="0 0 230.000000 472.000000"
 preserveAspectRatio="xMidYMid meet">
<metadata>
Created by potrace 1.13, written by Peter Selinger 2001-2015
</metadata>
<g transform="translate(0.000000,472.000000) scale(0.100000,-0.100000)"
fill="#000000" stroke="none">
<path d="M1310 4420 l-945 -288 3 -163 c2 -90 14 -677 27 -1304 24 -1158 24
-1358 -5 -1811 -26 -419 -114 -640 -313 -791 -88 -66 -87 -65 -37 -57 227 33
336 90 596 314 131 114 242 193 324 232 19 9 88 33 152 53 133 42 323 134 448
217 324 216 564 559 640 914 20 93 24 190 60 1529 20 787 36 1433 33 1438 -2
4 -12 7 -21 6 -9 -1 -442 -131 -962 -289z"/>
</g>
</svg>
