<?xml version="1.0" standalone="no"?>
<!DOCTYPE svg PUBLIC "-//W3C//DTD SVG 20010904//EN"
 "http://www.w3.org/TR/2001/REC-SVG-20010904/DTD/svg10.dtd">
<svg version="1.0" xmlns="http://www.w3.org/2000/svg"
 width="287.000000pt" height="430.000000pt" viewBox="0 0 287.000000 430.000000"
 preserveAspectRatio="xMidYMid meet">
<metadata>
Created by potrace 1.13, written by Peter Selinger 2001-2015
</metadata>
<g transform="translate(0.000000,430.000000) scale(0.100000,-0.100000)"
fill="#000000" stroke="none">
<path d="M2386 4290 c-103 -17 -255 -57 -491 -130 -323 -101 -424 -150 -552
-273 -70 -67 -174 -214 -193 -273 -7 -21 -53 -137 -102 -256 -49 -120 -101
-262 -116 -315 -27 -98 -27 -98 -26 -423 1 -179 9 -505 18 -725 28 -688 25
-772 -36 -980 -60 -206 -199 -413 -374 -556 -136 -111 -193 -151 -436 -304
-43 -27 -77 -49 -75 -51 1 -1 155 13 342 32 572 57 803 104 1085 219 58 24
156 60 219 80 271 86 534 252 723 454 144 155 254 339 318 530 59 177 60 184
80 941 23 881 23 871 61 1136 43 294 45 471 5 619 -15 55 -42 129 -59 165 -30
62 -35 66 -91 88 -68 27 -203 37 -300 22z"/>
</g>
</svg>
