<?xml version="1.0" standalone="no"?>
<!DOCTYPE svg PUBLIC "-//W3C//DTD SVG 20010904//EN"
 "http://www.w3.org/TR/2001/REC-SVG-20010904/DTD/svg10.dtd">
<svg version="1.0" xmlns="http://www.w3.org/2000/svg"
 width="155.000000pt" height="88.000000pt" viewBox="0 0 155.000000 88.000000"
 preserveAspectRatio="xMidYMid meet">
<metadata>
Created by potrace 1.13, written by Peter Selinger 2001-2015
</metadata>
<g transform="translate(0.000000,88.000000) scale(0.100000,-0.100000)"
fill="#000000" stroke="none">
<path d="M740 841 c-7 -18 -21 -31 -33 -33 -16 -2 -23 -11 -25 -34 -2 -21 -10
-34 -21 -37 -12 -3 -20 -18 -25 -46 -6 -38 -8 -41 -26 -31 -12 6 -20 21 -20
35 0 22 -5 25 -34 25 -28 0 -35 4 -38 22 -2 13 -11 24 -23 27 -11 2 -31 12
-44 22 -45 36 -100 16 -101 -37 0 -13 -8 -24 -20 -27 -14 -4 -20 -14 -20 -35
0 -17 4 -33 8 -36 4 -3 6 -21 4 -40 -4 -38 -24 -48 -40 -20 -7 12 -19 15 -40
12 -27 -4 -33 0 -43 23 -12 31 -20 34 -96 44 -44 6 -54 4 -72 -14 -40 -40 -21
-101 32 -101 26 0 37 -6 50 -30 10 -16 22 -30 28 -30 5 0 9 -13 9 -29 0 -22 6
-32 21 -36 26 -9 99 -83 86 -88 -5 -1 -6 -17 -2 -35 4 -22 12 -32 26 -32 13 0
19 -7 19 -24 0 -13 6 -26 14 -29 9 -4 12 -14 9 -26 -12 -48 4 -67 69 -86 127
-36 195 -45 328 -45 276 1 536 52 574 112 8 13 7 26 -1 48 -9 24 -9 30 2 30 8
0 15 21 19 58 6 51 12 63 46 96 22 21 40 44 40 51 0 8 9 16 19 20 11 3 23 16
27 28 12 38 48 87 65 87 38 0 51 48 23 88 -14 20 -23 23 -72 20 -53 -3 -58 -5
-67 -33 -8 -23 -15 -29 -32 -27 -13 2 -23 -1 -23 -7 0 -11 -28 -41 -39 -41 -4
0 -6 14 -3 30 2 17 -1 37 -8 45 -6 8 -9 19 -5 25 13 20 -4 60 -25 60 -14 0
-20 7 -20 23 0 44 -53 65 -80 32 -7 -8 -24 -15 -37 -15 -18 0 -28 -8 -36 -30
-7 -18 -19 -30 -29 -30 -12 0 -18 -8 -18 -23 0 -12 -9 -28 -20 -35 -21 -13
-29 -72 -10 -72 6 0 10 -7 10 -15 0 -11 -7 -14 -26 -9 -18 5 -29 1 -39 -12
-13 -18 -14 -18 -15 -1 0 9 9 26 20 37 25 25 26 62 1 77 -12 8 -17 19 -14 36
4 20 0 26 -20 31 -19 4 -27 14 -29 34 -2 20 -9 28 -27 30 -14 2 -33 15 -44 28
-27 35 -71 33 -87 -5z m20 -85 c0 -2 -7 -6 -15 -10 -8 -3 -15 -1 -15 4 0 6 7
10 15 10 8 0 15 -2 15 -4z m-290 -63 c0 -5 -4 -14 -9 -21 -6 -10 -10 -9 -14 7
-3 14 0 21 9 21 8 0 14 -3 14 -7z m248 -14 c-19 -13 -28 -11 -28 5 0 9 7 12
21 9 16 -4 17 -8 7 -14z m-313 -9 c3 -5 1 -10 -4 -10 -6 0 -11 5 -11 10 0 6 2
10 4 10 3 0 8 -4 11 -10z m131 -25 c-3 -8 -12 -15 -21 -15 -14 0 -14 3 2 24
18 24 30 18 19 -9z m194 -40 c0 -8 -4 -15 -10 -15 -5 0 -10 7 -10 15 0 8 5 15
10 15 6 0 10 -7 10 -15z m-74 -13 c6 -4 13 -15 17 -24 5 -15 4 -16 -13 -5 -16
9 -24 9 -40 -1 -23 -14 -25 -10 -8 18 13 21 26 25 44 12z m-106 -17 c0 -16 -9
-19 -36 -8 -16 6 -16 7 2 14 29 11 34 10 34 -6z m375 -25 c-3 -5 -16 -10 -28
-9 -20 1 -20 2 3 9 14 4 26 8 28 9 2 1 0 -3 -3 -9z m156 -18 c-13 -2 -27 0
-32 5 -6 6 3 7 23 4 28 -4 29 -6 9 -9z m203 -8 c4 -9 4 -19 1 -22 -3 -3 -5 0
-5 6 0 7 -7 12 -16 12 -8 0 -12 5 -9 10 9 15 22 12 29 -6z m-565 -141 c-7 -10
-15 -20 -16 -22 -2 -2 -3 5 -3 17 0 14 6 22 16 22 14 0 15 -3 3 -17z m-102 1
c-3 -3 -12 -4 -19 -1 -8 3 -5 6 6 6 11 1 17 -2 13 -5z m387 -210 c24 -9 20
-44 -4 -44 -15 0 -20 7 -20 25 0 27 1 28 24 19z"/>
</g>
</svg>
