<?xml version="1.0" standalone="no"?>
<!DOCTYPE svg PUBLIC "-//W3C//DTD SVG 20010904//EN"
 "http://www.w3.org/TR/2001/REC-SVG-20010904/DTD/svg10.dtd">
<svg version="1.0" xmlns="http://www.w3.org/2000/svg"
 width="151.000000pt" height="89.000000pt" viewBox="0 0 151.000000 89.000000"
 preserveAspectRatio="xMidYMid meet">
<metadata>
Created by potrace 1.13, written by Peter Selinger 2001-2015
</metadata>
<g transform="translate(0.000000,89.000000) scale(0.100000,-0.100000)"
fill="#000000" stroke="none">
<path d="M663 868 c-25 -12 -48 -69 -39 -100 3 -14 -4 -32 -20 -50 -46 -56
-19 -138 45 -138 29 0 31 -3 31 -34 0 -38 -40 -86 -73 -86 -11 0 -35 16 -53
36 -34 35 -42 54 -25 54 22 0 41 34 41 71 0 46 -27 79 -65 79 -16 0 -25 6 -25
15 0 27 -47 65 -79 65 -71 0 -98 -34 -88 -110 3 -26 0 -43 -8 -50 -37 -31 -22
-125 22 -136 13 -4 36 -1 49 5 35 16 44 14 44 -9 0 -35 -30 -69 -65 -76 -77
-14 -114 24 -140 145 -14 68 -23 91 -35 91 -14 0 -64 -17 -142 -49 -45 -17
-36 -50 27 -95 30 -22 55 -47 55 -56 0 -21 19 -40 40 -40 9 0 27 -11 39 -24
13 -14 36 -30 52 -36 33 -14 34 -16 14 -36 -20 -20 -19 -46 3 -70 26 -29 45
-84 43 -126 -1 -21 5 -43 14 -51 22 -22 145 -48 260 -54 188 -10 507 30 572
73 24 15 31 52 13 70 -13 13 9 85 32 102 11 8 18 26 18 45 1 27 8 36 46 59 25
16 51 28 59 28 7 0 24 15 36 32 26 37 68 77 116 111 32 22 40 41 25 63 -9 14
-187 58 -205 51 -9 -3 -16 -27 -20 -60 -3 -30 -12 -68 -21 -85 -16 -31 -98
-92 -124 -92 -21 0 -72 59 -72 84 0 19 5 21 39 18 30 -3 43 1 59 18 29 31 32
55 13 93 -12 24 -15 40 -8 55 5 11 6 37 3 57 -6 30 -14 39 -43 51 -55 23 -123
-3 -123 -47 0 -13 -10 -20 -35 -25 -43 -8 -65 -36 -65 -84 0 -34 7 -43 49 -70
31 -18 -45 -94 -84 -84 -24 6 -52 42 -60 76 -5 21 -2 27 24 38 22 9 33 22 41
49 14 52 13 56 -20 88 -24 22 -30 36 -30 69 0 59 -34 94 -92 93 -24 0 -53 -5
-65 -11z m73 -70 c0 -24 -6 -49 -14 -57 -12 -12 -16 -11 -34 6 -27 27 -17 80
15 86 12 2 24 5 27 6 3 0 6 -18 6 -41z m354 -88 c0 -25 -4 -30 -25 -30 -27 0
-31 10 -15 41 17 30 40 24 40 -11z m-696 -12 c7 -36 3 -43 -19 -34 -22 8 -29
34 -15 51 19 22 27 18 34 -17z m399 -17 c-6 -24 -33 -36 -33 -16 0 11 22 32
37 35 0 0 -1 -9 -4 -19z m-149 -10 c3 -5 -1 -11 -9 -14 -9 -4 -12 -1 -8 9 6
16 10 17 17 5z m317 -44 c-16 -16 -26 0 -10 19 9 11 15 12 17 4 2 -6 -1 -17
-7 -23z m-494 -9 c-3 -8 -6 -5 -6 6 -1 11 2 17 5 13 3 -3 4 -12 1 -19z m-116
-51 c-13 -13 -26 -3 -16 12 3 6 11 8 17 5 6 -4 6 -10 -1 -17z m99 -2 c0 -9 11
-38 25 -64 24 -47 24 -49 5 -54 -17 -4 -20 0 -20 24 0 16 -7 46 -15 66 -18 42
-18 43 -5 43 6 0 10 -7 10 -15z m160 -155 c0 -12 -8 -12 -35 0 -18 8 -17 9 8
9 15 1 27 -3 27 -9z m41 -119 c-8 -5 -20 -7 -28 -4 -21 8 -15 13 15 13 20 0
23 -3 13 -9z m-181 -36 c0 -8 -7 -15 -15 -15 -16 0 -20 12 -8 23 11 12 23 8
23 -8z m15 -54 c3 -5 1 -12 -5 -16 -5 -3 -10 1 -10 9 0 18 6 21 15 7z m505
-111 c-8 -5 -28 -9 -45 -9 -26 0 -27 2 -10 9 11 5 31 9 45 9 20 1 22 -1 10 -9z"/>
</g>
</svg>
