<?xml version="1.0" standalone="no"?>
<!DOCTYPE svg PUBLIC "-//W3C//DTD SVG 20010904//EN"
 "http://www.w3.org/TR/2001/REC-SVG-20010904/DTD/svg10.dtd">
<svg version="1.0" xmlns="http://www.w3.org/2000/svg"
 width="84.000000pt" height="43.000000pt" viewBox="0 0 84.000000 43.000000"
 preserveAspectRatio="xMidYMid meet">
<metadata>
Created by potrace 1.13, written by Peter Selinger 2001-2015
</metadata>
<g transform="translate(0.000000,43.000000) scale(0.100000,-0.100000)"
fill="#000000" stroke="none">
<path d="M383 406 c-13 -6 -23 -16 -23 -23 0 -7 -7 -13 -15 -13 -8 0 -15 -7
-15 -15 0 -8 -4 -15 -10 -15 -5 0 -10 -7 -10 -15 0 -8 -7 -15 -15 -15 -8 0
-15 7 -15 15 0 8 -12 18 -27 21 -29 8 -53 -14 -53 -48 0 -16 -7 -17 -73 -12
-81 7 -117 -4 -117 -36 0 -12 8 -20 22 -22 13 -2 29 -15 36 -31 7 -15 18 -27
23 -27 13 0 39 -25 39 -37 0 -15 25 -63 33 -63 4 0 7 -9 7 -19 0 -11 8 -22 18
-25 77 -25 345 -34 432 -15 40 8 53 16 60 35 5 13 14 24 19 24 5 0 13 20 16
45 5 31 13 46 26 50 11 4 24 15 29 26 6 11 21 19 35 19 17 0 25 6 25 18 0 27
-12 37 -62 50 -53 13 -108 6 -108 -14 0 -33 -17 -10 -26 34 -7 38 -13 48 -32
50 -25 4 -51 -17 -67 -53 -8 -17 -9 -16 -13 13 -2 17 -7 32 -13 32 -5 0 -9 7
-9 15 0 8 -4 15 -10 15 -5 0 -10 7 -10 15 0 8 -9 15 -20 15 -11 0 -20 5 -20
10 0 13 -28 11 -57 -4z"/>
</g>
</svg>
