<?xml version="1.0" standalone="no"?>
<!DOCTYPE svg PUBLIC "-//W3C//DTD SVG 20010904//EN"
 "http://www.w3.org/TR/2001/REC-SVG-20010904/DTD/svg10.dtd">
<svg version="1.0" xmlns="http://www.w3.org/2000/svg"
 width="71.000000pt" height="38.000000pt" viewBox="0 0 71.000000 38.000000"
 preserveAspectRatio="xMidYMid meet">
<metadata>
Created by potrace 1.13, written by Peter Selinger 2001-2015
</metadata>
<g transform="translate(0.000000,38.000000) scale(0.100000,-0.100000)"
fill="#000000" stroke="none">
<path d="M328 356 c-10 -7 -18 -16 -18 -20 0 -4 -11 -18 -24 -33 l-24 -25 -32
31 c-48 45 -66 41 -80 -17 -10 -44 -14 -49 -36 -44 -13 2 -24 8 -24 13 0 15
-34 10 -58 -9 -29 -22 -27 -64 3 -72 27 -7 85 -60 85 -77 0 -7 4 -13 9 -13 6
0 11 -17 13 -37 3 -35 6 -38 43 -46 44 -9 337 -3 373 8 16 5 22 15 22 36 0 16
6 39 13 50 16 28 75 87 98 100 11 5 19 21 19 34 0 36 -43 45 -101 21 -12 -5
-18 0 -24 21 -15 61 -39 67 -95 23 -38 -30 -50 -30 -50 2 0 10 -7 18 -15 18
-8 0 -15 5 -15 11 0 15 -31 38 -50 38 -8 0 -23 -6 -32 -13z"/>
</g>
</svg>
