<?xml version="1.0" standalone="no"?>
<!DOCTYPE svg PUBLIC "-//W3C//DTD SVG 20010904//EN"
 "http://www.w3.org/TR/2001/REC-SVG-20010904/DTD/svg10.dtd">
<svg version="1.0" xmlns="http://www.w3.org/2000/svg"
 width="264.000000pt" height="164.000000pt" viewBox="0 0 264.000000 164.000000"
 preserveAspectRatio="xMidYMid meet">
<metadata>
Created by potrace 1.13, written by Peter Selinger 2001-2015
</metadata>
<g transform="translate(0.000000,164.000000) scale(0.100000,-0.100000)"
fill="#000000" stroke="none">
<path d="M1301 1609 c-15 -16 -21 -34 -19 -54 2 -24 -3 -34 -24 -47 -36 -23
-85 -92 -98 -136 -10 -37 -3 -119 11 -128 5 -3 9 -14 9 -24 0 -27 72 -100 98
-100 19 0 21 -4 16 -32 -17 -90 -87 -194 -154 -228 -115 -58 -240 -22 -314 93
-17 25 -17 29 -3 45 20 23 30 75 22 112 -10 46 -60 90 -101 90 -25 0 -34 4
-34 16 0 20 -28 43 -52 44 -32 0 -61 -38 -54 -71 3 -17 0 -50 -6 -74 -16 -59
3 -118 47 -145 18 -11 40 -20 50 -20 15 0 17 -7 13 -51 -4 -42 -12 -57 -42
-87 -33 -34 -41 -37 -94 -37 -43 0 -67 6 -97 25 -71 43 -79 54 -66 91 30 85 4
180 -61 222 -56 36 -99 43 -163 25 -49 -14 -53 -13 -64 4 -8 12 -23 18 -51 18
-36 0 -40 -3 -40 -24 0 -13 -5 -26 -12 -28 -17 -6 0 -59 21 -65 16 -4 17 -10
9 -44 -16 -62 -2 -125 38 -169 43 -48 86 -63 167 -59 l63 4 59 -64 c33 -35 70
-74 81 -86 15 -15 19 -27 13 -36 -15 -24 -10 -65 12 -93 17 -21 29 -26 65 -26
24 0 44 -5 44 -10 0 -6 -9 -27 -20 -47 -29 -54 -26 -77 12 -94 38 -17 46 -35
20 -44 -42 -13 -72 -55 -72 -101 0 -57 6 -70 46 -94 87 -54 239 -71 658 -72
393 -1 650 21 802 67 99 30 124 52 124 109 0 48 -3 54 -52 86 -21 14 -38 27
-38 30 0 3 23 16 50 29 61 28 63 46 10 90 -52 43 -53 66 -2 75 56 8 86 45 79
93 -6 37 -4 41 64 109 68 68 73 71 103 63 92 -27 203 6 193 57 -3 20 0 24 18
24 45 0 66 109 33 173 -6 12 -5 19 7 23 27 11 14 108 -17 125 -27 15 -67 3
-79 -24 -9 -20 -16 -22 -73 -19 -78 4 -124 -13 -162 -63 -32 -43 -44 -131 -25
-187 11 -31 10 -35 -16 -55 -30 -25 -115 -53 -157 -53 -15 0 -42 10 -61 23
-65 42 -90 167 -33 167 35 0 76 29 87 61 17 50 13 111 -9 139 -11 14 -20 39
-20 55 0 38 -16 55 -50 55 -26 0 -60 -27 -60 -47 0 -6 -14 -16 -30 -23 -46
-19 -70 -60 -70 -117 0 -27 7 -58 15 -69 13 -19 12 -25 -11 -60 -33 -50 -88
-90 -146 -104 -104 -26 -234 55 -271 170 -21 63 -22 110 -4 110 7 0 32 16 55
36 45 38 82 109 82 156 0 89 -57 185 -125 209 -31 12 -35 17 -35 50 0 43 -2
45 -51 54 -31 6 -40 3 -58 -16z m9 -149 c0 -12 7 -20 17 -20 18 0 80 -64 89
-92 11 -35 -51 -114 -63 -80 -5 13 -43 17 -43 5 0 -5 -22 -6 -50 -5 l-50 4 0
52 c0 54 12 79 59 128 31 33 41 34 41 8z m-605 -345 c22 -18 25 -54 5 -65 -49
-26 -87 -1 -70 46 14 36 43 61 49 42 2 -7 10 -17 16 -23z m1279 11 c3 -13 9
-31 12 -39 9 -25 -26 -37 -69 -24 -43 14 -46 25 -12 61 31 33 61 34 69 2z
m492 -63 c3 -10 10 -27 14 -38 19 -47 19 -67 -1 -72 -12 -3 -19 -14 -19 -28 0
-44 -51 -40 -102 8 -16 15 -28 33 -28 41 0 8 -7 16 -16 18 -13 3 -12 7 7 32
40 50 133 75 145 39z m-2294 -13 c22 0 41 -10 64 -35 36 -36 44 -65 19 -65 -8
0 -15 -4 -15 -10 0 -5 -7 -10 -15 -10 -8 0 -15 -9 -15 -21 0 -16 -4 -19 -20
-14 -10 3 -35 2 -54 -4 -25 -6 -38 -6 -44 2 -16 21 -20 57 -11 91 11 39 51 94
57 78 2 -7 17 -12 34 -12z m2382 -5 c-4 -8 -11 -12 -16 -9 -6 4 -5 10 3 15 19
12 19 11 13 -6z m23 -87 c-3 -8 -6 -5 -6 6 -1 11 2 17 5 13 3 -3 4 -12 1 -19z
m-1772 -93 c48 -48 71 -59 150 -77 49 -11 61 -17 63 -35 2 -13 12 -23 25 -26
12 -2 -3 -5 -34 -6 -46 -1 -69 5 -125 34 -38 19 -77 35 -86 35 -10 0 -25 -14
-33 -31 -21 -39 -49 -36 -49 6 0 17 7 41 14 55 8 14 14 47 14 74 0 40 2 46 10
30 6 -10 29 -37 51 -59z m275 -116 c0 -5 -4 -9 -10 -9 -5 0 -10 7 -10 16 0 8
5 12 10 9 6 -3 10 -10 10 -16z m-87 -206 c-7 -2 -19 -2 -25 0 -7 3 -2 5 12 5
14 0 19 -2 13 -5z m-46 -49 c-3 -3 -12 -4 -19 -1 -8 3 -5 6 6 6 11 1 17 -2 13
-5z m160 -10 c-3 -3 -12 -4 -19 -1 -8 3 -5 6 6 6 11 1 17 -2 13 -5z m-77 -134
c-8 -5 -19 -10 -25 -10 -5 0 -3 5 5 10 8 5 20 10 25 10 6 0 3 -5 -5 -10z
m-131 -16 c2 -2 -16 -4 -40 -4 -31 0 -40 3 -29 10 13 8 57 4 69 -6z m655 -200
c3 -9 6 -29 6 -45 0 -27 -3 -29 -35 -29 -35 0 -35 0 -35 45 0 43 1 45 29 45
17 0 31 -6 35 -16z"/>
<path d="M2170 1565 c0 -21 5 -25 30 -25 23 0 30 5 30 19 0 19 -18 31 -46 31
-8 0 -14 -10 -14 -25z"/>
</g>
</svg>
