<?xml version="1.0" standalone="no"?>
<!DOCTYPE svg PUBLIC "-//W3C//DTD SVG 20010904//EN"
 "http://www.w3.org/TR/2001/REC-SVG-20010904/DTD/svg10.dtd">
<svg version="1.0" xmlns="http://www.w3.org/2000/svg"
 width="372.000000pt" height="298.000000pt" viewBox="0 0 372.000000 298.000000"
 preserveAspectRatio="xMidYMid meet">
<metadata>
Created by potrace 1.13, written by Peter Selinger 2001-2015
</metadata>
<g transform="translate(0.000000,298.000000) scale(0.100000,-0.100000)"
fill="#000000" stroke="none">
<path d="M2245 2400 c-11 -5 -103 -7 -205 -4 -200 6 -1081 -29 -1154 -46 -22
-5 -61 -10 -86 -10 -25 0 -92 -11 -149 -24 -139 -31 -144 -38 -136 -160 3 -50
10 -136 15 -191 5 -55 14 -183 20 -285 6 -102 13 -192 16 -200 17 -49 35 -214
45 -417 11 -209 10 -238 -5 -301 -15 -62 -15 -74 -3 -104 22 -51 62 -81 192
-147 96 -48 138 -63 210 -75 268 -46 622 -60 832 -32 59 8 135 17 168 21 122
12 317 66 408 111 64 32 153 98 166 122 21 40 41 375 41 700 0 180 4 344 9
365 5 22 19 49 30 61 12 12 33 57 47 100 31 93 62 131 129 162 165 77 336 -59
309 -245 -4 -26 -25 -82 -47 -126 -46 -93 -137 -189 -269 -285 -137 -98 -130
-90 -139 -154 -4 -32 -11 -102 -15 -157 -5 -83 -4 -99 8 -99 8 0 21 15 30 33
26 54 67 97 94 97 29 0 64 33 64 59 0 11 14 30 31 43 17 13 54 47 83 76 28 30
65 61 83 70 46 25 139 136 179 217 43 86 74 223 74 327 0 64 -5 88 -25 128
-32 62 -76 113 -123 141 -20 12 -53 33 -73 46 -33 22 -46 24 -155 24 -138 0
-182 -9 -225 -45 -56 -47 -83 -31 -85 53 -1 71 -19 103 -66 120 -18 7 -48 19
-66 27 -37 16 -224 19 -257 4z"/>
</g>
</svg>
