<?xml version="1.0" standalone="no"?>
<!DOCTYPE svg PUBLIC "-//W3C//DTD SVG 20010904//EN"
 "http://www.w3.org/TR/2001/REC-SVG-20010904/DTD/svg10.dtd">
<svg version="1.0" xmlns="http://www.w3.org/2000/svg"
 width="365.000000pt" height="375.000000pt" viewBox="0 0 365.000000 375.000000"
 preserveAspectRatio="xMidYMid meet">
<metadata>
Created by potrace 1.13, written by Peter Selinger 2001-2015
</metadata>
<g transform="translate(0.000000,375.000000) scale(0.100000,-0.100000)"
fill="#000000" stroke="none">
<path d="M1677 3267 c-7 -4 -63 -5 -125 -1 -107 6 -236 -1 -457 -27 -49 -5
-181 -16 -292 -24 -378 -27 -417 -36 -449 -97 -18 -35 -17 -91 7 -333 6 -60
12 -144 13 -185 1 -41 10 -100 19 -130 24 -79 44 -208 52 -335 4 -60 14 -128
21 -149 15 -42 44 -263 44 -337 0 -25 8 -70 19 -100 10 -30 21 -81 25 -114 4
-33 20 -132 36 -220 47 -262 61 -385 48 -432 -9 -38 -7 -48 20 -105 20 -40 36
-98 46 -160 16 -105 29 -139 72 -182 39 -38 100 -67 219 -105 l100 -31 315 -2
315 -2 100 36 c254 91 333 123 416 171 102 58 212 157 234 210 10 25 18 100
25 229 5 106 16 245 25 308 17 113 23 260 29 650 1 107 7 263 12 346 10 140
13 156 44 220 66 137 139 214 204 214 54 0 108 -39 141 -101 17 -31 44 -77 62
-104 39 -58 79 -220 95 -385 13 -133 13 -141 3 -235 -9 -84 -36 -137 -102
-195 -84 -75 -149 -111 -209 -117 -45 -5 -64 -13 -102 -45 -26 -21 -59 -42
-74 -45 -16 -3 -28 -11 -28 -17 0 -15 -28 -242 -35 -279 l-5 -28 40 34 c49 41
133 83 265 131 204 74 358 165 404 239 39 64 61 147 65 247 2 52 10 124 16
158 10 49 10 83 2 145 -6 45 -14 102 -16 127 -3 25 -17 86 -32 135 -15 50 -34
124 -43 165 -11 50 -34 106 -67 165 -28 50 -57 106 -64 125 -20 54 -25 57
-130 89 -105 33 -162 37 -285 21 -112 -14 -111 -17 -119 197 -8 191 -17 230
-60 258 -24 16 -64 17 -437 14 -226 -2 -416 -8 -422 -12z"/>
</g>
</svg>
