<?xml version="1.0" standalone="no"?>
<!DOCTYPE svg PUBLIC "-//W3C//DTD SVG 20010904//EN"
 "http://www.w3.org/TR/2001/REC-SVG-20010904/DTD/svg10.dtd">
<svg version="1.0" xmlns="http://www.w3.org/2000/svg"
 width="343.000000pt" height="296.000000pt" viewBox="0 0 343.000000 296.000000"
 preserveAspectRatio="xMidYMid meet">
<metadata>
Created by potrace 1.13, written by Peter Selinger 2001-2015
</metadata>
<g transform="translate(0.000000,296.000000) scale(0.100000,-0.100000)"
fill="#000000" stroke="none">
<path d="M1355 2525 c-114 -25 -193 -35 -268 -35 -89 0 -204 -16 -262 -36 -50
-18 -196 -157 -226 -216 -35 -68 -31 -123 13 -186 44 -62 44 -66 58 -358 6
-121 15 -247 20 -280 8 -52 27 -264 45 -516 6 -78 11 -94 47 -154 33 -54 42
-81 49 -140 19 -173 119 -261 372 -326 116 -30 134 -31 357 -35 216 -4 242 -3
319 17 102 26 144 47 239 117 94 72 123 108 162 206 29 73 34 107 60 356 18
171 31 361 34 501 3 124 10 242 16 262 15 52 69 120 110 140 82 40 227 32 275
-16 32 -32 66 -145 72 -238 l6 -78 -87 -82 c-48 -46 -129 -112 -179 -148 -51
-36 -111 -78 -133 -95 l-41 -30 -17 -168 c-9 -93 -15 -171 -13 -173 2 -2 23
28 48 67 86 139 185 263 245 307 32 24 97 63 145 88 92 48 150 97 179 154 32
62 33 92 7 166 -13 38 -36 123 -51 189 -37 160 -46 184 -79 209 -26 19 -45 21
-236 26 -260 6 -263 8 -221 118 25 65 25 88 0 155 -34 90 -70 121 -192 167
-145 54 -212 63 -389 55 -119 -5 -156 -4 -199 9 -64 19 -200 20 -285 1z"/>
</g>
</svg>
