<?xml version="1.0" standalone="no"?>
<!DOCTYPE svg PUBLIC "-//W3C//DTD SVG 20010904//EN"
 "http://www.w3.org/TR/2001/REC-SVG-20010904/DTD/svg10.dtd">
<svg version="1.0" xmlns="http://www.w3.org/2000/svg"
 width="369.000000pt" height="348.000000pt" viewBox="0 0 369.000000 348.000000"
 preserveAspectRatio="xMidYMid meet">
<metadata>
Created by potrace 1.13, written by Peter Selinger 2001-2015
</metadata>
<g transform="translate(0.000000,348.000000) scale(0.100000,-0.100000)"
fill="#000000" stroke="none">
<path d="M1815 2676 c-296 -27 -422 -49 -473 -82 -37 -24 -52 -74 -52 -173 0
-80 -3 -93 -24 -118 -23 -26 -30 -28 -131 -34 -91 -6 -115 -11 -170 -38 -82
-40 -127 -93 -165 -193 -38 -99 -71 -285 -72 -408 0 -77 6 -121 35 -236 59
-232 103 -331 180 -406 81 -79 172 -106 289 -88 40 6 79 17 86 24 10 10 10 31
2 102 -5 49 -10 97 -10 107 0 9 -7 17 -15 17 -8 0 -15 -6 -15 -14 0 -21 -47
-74 -81 -91 -40 -21 -76 -18 -136 10 -65 30 -83 57 -127 195 -48 146 -61 301
-40 483 25 227 59 319 134 357 47 24 71 25 110 5 34 -18 63 -56 86 -116 9 -24
32 -69 51 -99 40 -67 52 -145 53 -340 0 -133 47 -615 70 -730 7 -30 14 -65 16
-77 6 -32 60 -91 104 -113 20 -10 84 -31 141 -47 97 -25 116 -27 294 -26 282
2 403 16 550 63 67 22 137 50 156 63 74 50 100 129 80 247 -15 95 -14 191 5
296 10 62 15 153 15 299 0 116 1 293 1 395 1 102 -1 289 -3 415 -5 192 -8 235
-23 263 -22 42 -75 67 -176 82 -119 17 -573 21 -745 6z"/>
</g>
</svg>
