<?xml version="1.0" standalone="no"?>
<!DOCTYPE svg PUBLIC "-//W3C//DTD SVG 20010904//EN"
 "http://www.w3.org/TR/2001/REC-SVG-20010904/DTD/svg10.dtd">
<svg version="1.0" xmlns="http://www.w3.org/2000/svg"
 width="443.000000pt" height="344.000000pt" viewBox="0 0 443.000000 344.000000"
 preserveAspectRatio="xMidYMid meet">
<metadata>
Created by potrace 1.13, written by Peter Selinger 2001-2015
</metadata>
<g transform="translate(0.000000,344.000000) scale(0.100000,-0.100000)"
fill="#000000" stroke="none">
<path d="M2155 2729 c-498 -61 -545 -68 -641 -101 -86 -29 -102 -37 -120 -68
-43 -69 -59 -80 -113 -80 -28 0 -100 7 -160 15 -96 14 -118 14 -179 1 -156
-32 -269 -122 -343 -270 -48 -98 -58 -171 -39 -283 13 -81 76 -203 138 -266
67 -69 442 -348 530 -395 48 -25 113 -69 144 -99 31 -29 65 -53 76 -53 26 0
52 31 52 64 0 54 -27 83 -128 143 -237 138 -503 330 -580 418 -78 88 -129 222
-120 308 12 105 99 222 201 271 101 48 397 43 497 -9 48 -25 47 -21 110 -485
75 -552 72 -524 55 -595 -8 -38 -14 -112 -14 -186 1 -118 -15 -238 -40 -302
-23 -59 -14 -101 34 -164 43 -58 150 -153 231 -207 26 -17 91 -39 176 -61 129
-32 147 -34 374 -41 212 -5 257 -4 393 15 185 25 202 30 361 93 127 51 226
112 274 168 29 36 56 116 56 171 0 21 -6 66 -14 101 -11 50 -16 226 -21 843
-6 691 -5 786 9 830 42 133 32 139 -369 200 -134 21 -207 26 -455 29 -164 3
-331 1 -375 -5z"/>
</g>
</svg>
