<?xml version="1.0" standalone="no"?>
<!DOCTYPE svg PUBLIC "-//W3C//DTD SVG 20010904//EN"
 "http://www.w3.org/TR/2001/REC-SVG-20010904/DTD/svg10.dtd">
<svg version="1.0" xmlns="http://www.w3.org/2000/svg"
 width="358.000000pt" height="304.000000pt" viewBox="0 0 358.000000 304.000000"
 preserveAspectRatio="xMidYMid meet">
<metadata>
Created by potrace 1.13, written by Peter Selinger 2001-2015
</metadata>
<g transform="translate(0.000000,304.000000) scale(0.100000,-0.100000)"
fill="#000000" stroke="none">
<path d="M1385 2348 c-186 -7 -212 -11 -365 -48 -170 -42 -236 -71 -271 -120
-18 -24 -18 -28 2 -120 16 -78 25 -216 50 -755 l29 -660 41 -83 c27 -55 50
-87 68 -96 14 -8 107 -32 206 -54 l180 -41 245 -2 245 -2 199 47 c214 50 221
53 315 149 l43 45 -3 263 c-3 265 1 396 21 719 12 177 17 203 48 219 33 17
225 43 279 38 90 -9 124 -33 152 -102 13 -33 24 -80 25 -105 1 -53 -45 -162
-78 -183 -45 -30 -254 -115 -310 -127 -76 -16 -96 -36 -96 -100 0 -82 6 -82
256 0 118 39 223 76 234 82 36 23 145 286 135 327 -12 50 -106 259 -126 279
-10 12 -38 27 -62 34 -49 14 -197 16 -312 5 -51 -5 -85 -4 -95 2 -12 8 -16 41
-20 147 l-5 136 -40 34 c-21 19 -48 37 -60 39 -11 2 -115 14 -232 25 -220 21
-352 22 -698 8z"/>
</g>
</svg>
