<?xml version="1.0" standalone="no"?>
<!DOCTYPE svg PUBLIC "-//W3C//DTD SVG 20010904//EN"
 "http://www.w3.org/TR/2001/REC-SVG-20010904/DTD/svg10.dtd">
<svg version="1.0" xmlns="http://www.w3.org/2000/svg"
 width="345.000000pt" height="363.000000pt" viewBox="0 0 345.000000 363.000000"
 preserveAspectRatio="xMidYMid meet">
<metadata>
Created by potrace 1.13, written by Peter Selinger 2001-2015
</metadata>
<g transform="translate(0.000000,363.000000) scale(0.100000,-0.100000)"
fill="#000000" stroke="none">
<path d="M1245 2859 c-53 -9 -272 -17 -441 -18 -89 0 -254 -54 -293 -95 -45
-48 -45 -39 -11 -696 6 -107 15 -294 20 -415 24 -498 78 -1010 115 -1090 52
-108 241 -202 510 -252 127 -24 473 -23 604 1 194 36 374 108 441 177 43 45
76 122 84 196 3 26 11 95 18 153 6 58 11 108 10 112 -1 4 7 94 18 200 22 215
31 362 34 578 3 182 9 216 57 367 40 122 101 228 146 251 40 21 94 23 144 7
61 -21 81 -55 109 -188 43 -204 14 -485 -70 -664 -72 -155 -231 -247 -314
-182 -15 12 -29 19 -31 17 -3 -2 -9 -49 -15 -104 -5 -54 -13 -118 -16 -142 -5
-39 -4 -42 13 -33 10 5 60 16 110 24 101 16 209 60 257 105 43 41 143 176 172
235 15 28 42 113 62 187 34 131 35 141 35 325 1 214 -3 231 -84 368 -51 86
-99 140 -156 174 -38 22 -51 24 -120 20 -43 -2 -104 -7 -137 -11 -40 -4 -63
-3 -73 6 -26 21 -50 82 -56 139 -8 79 -28 121 -68 141 -45 21 -140 38 -217 38
-46 0 -75 6 -110 24 -45 23 -62 24 -342 35 -162 6 -306 13 -320 15 -14 2 -52
0 -85 -5z"/>
</g>
</svg>
