<svg xmlns="http://www.w3.org/2000/svg" id="1" width="1680" height="953">
    <rect width="100%" height="100%" fill="#fff"/>
    
<path d="M702 340 L704 340 L708 340 L714 340 L723 340 L734 340 L745 340 L757 340 L766 340 L777 340 L786 342 L797 345 L806 348 L815 351 L824 356 L832 361 L839 367 L844 372 L849 377 L853 384 L857 391 L861 398 L864 406 L867 413 L869 423 L871 433 L872 443 L873 452 L873 462 L873 474 L872 486 L867 497 L860 509 L852 523 L846 531 L837 539 L828 547 L815 556 L803 563 L789 569 L777 574 L762 579 L746 583 L729 585 L712 585 L696 585 L683 585 L672 581 L663 577 L656 572 L646 564 L638 554 L629 541 L624 531 L614 513 L606 496 L603 485 L601 475 L598 463 L598 453 L598 441 L598 428 L599 415 L602 406 L605 398 L610 389 L614 381 L619 374 L623 369 L628 363 L632 360 L634 358 L638 356 L642 355 L645 353 L648 352 L651 351 L655 351 L658 350 L660 349 L663 349 L666 348 L669 346 L672 346 L675 345 L678 345 L681 345 L684 345 L690 343 L700 338 L714 331 L726 326" fill="none" stroke="#0064FF" stroke-width="1"/></svg>