<svg xmlns="http://www.w3.org/2000/svg" id="1" width="1680" height="909">
    <rect width="100%" height="100%" fill="#fff"/>
    
<path d="M727 444 L730 444 L736 444 L745 444 L753 444 L764 444 L774 444 L782 444 L789 444 L795 444 L803 448 L816 454 L828 462 L842 471 L849 477 L858 484 L862 490 L866 497 L868 502 L870 509 L870 518 L870 528 L870 542 L870 559 L868 574 L864 594 L858 611 L853 623 L846 636 L837 649 L832 653 L822 660 L810 665 L797 669 L783 672 L763 672 L751 672 L735 672 L722 669 L712 663 L704 658 L698 651 L693 644 L686 635 L681 627 L675 617 L670 607 L665 598 L662 592 L660 587 L658 582 L657 576 L657 569 L656 561 L656 552 L656 541 L656 534 L656 525 L656 521 L657 515 L660 510 L661 505 L664 500 L666 496 L668 492 L673 488 L675 484 L677 482 L679 478 L682 477 L684 475 L685 474 L687 473 L689 471 L690 470 L692 469 L694 467 L696 466 L698 463 L701 461 L704 459 L707 457 L711 454 L715 451 L717 449 L720 447 L722 446 L724 445 L724 444 L725 444 L725 443 L726 441 L728 438" fill="none" stroke="#0064FF" stroke-width="1"/></svg>