<svg xmlns="http://www.w3.org/2000/svg" id="1" width="1680" height="909">
    <rect width="100%" height="100%" fill="#fff"/>
    
<path d="M606 340 L608 340 L620 340 L636 340 L669 340 L696 340 L726 340 L753 340 L768 344 L785 350 L798 361 L817 379 L829 393 L843 412 L856 431 L864 449 L868 464 L871 485 L871 512 L870 532 L857 562 L842 586 L817 612 L780 646 L753 664 L721 682 L692 692 L650 696 L610 696 L574 683 L539 667 L512 650 L491 636 L470 617 L454 598 L441 579 L432 560 L425 536 L420 516 L415 491 L413 469 L413 451 L413 435 L413 425 L416 415 L424 400 L430 392 L438 382 L446 372 L455 364 L464 355 L474 349 L483 344 L492 340 L501 337 L510 334 L520 332 L526 331 L533 330 L540 330 L545 329 L551 329 L556 329 L561 329 L565 329 L571 329 L577 330 L584 332 L590 333 L597 334 L602 335 L607 335 L614 335 L622 335" fill="none" stroke="#0064FF" stroke-width="1"/></svg>