<svg xmlns="http://www.w3.org/2000/svg" id="1" width="1680" height="909">
    <rect width="100%" height="100%" fill="#fff"/>
    
<path d="M598 398 L599 398 L605 398 L612 398 L622 398 L631 398 L640 398 L648 398 L656 398 L665 398 L673 398 L682 399 L695 404 L704 408 L717 413 L727 417 L738 422 L745 427 L749 430 L752 435 L755 439 L758 443 L759 448 L762 456 L765 463 L769 473 L772 486 L775 496 L777 507 L779 515 L780 522 L780 532 L780 539 L780 546 L780 552 L777 560 L774 567 L770 573 L766 581 L760 588 L755 593 L749 598 L743 603 L736 606 L731 609 L725 612 L719 613 L712 614 L705 614 L697 614 L689 614 L681 614 L672 614 L665 612 L657 608 L650 603 L642 597 L635 591 L626 584 L620 579 L615 574 L611 568 L608 563 L605 558 L602 554 L600 549 L598 542 L595 537 L593 533 L591 526 L590 520 L589 515 L588 508 L587 506 L587 501 L587 496 L587 489 L587 483 L587 478 L588 469 L590 463 L591 457 L592 453 L593 450 L594 448 L595 445 L596 443 L597 441 L598 439 L600 436 L600 434 L601 432 L602 429 L603 427 L604 425 L605 425 L605 424 L606 424 L606 423 L607 419 L608 415 L609 411 L610 407 L611 403 L613 400 L614 397 L615 395 L616 395 L617 394 L617 394 L618 394" fill="none" stroke="#0064FF" stroke-width="1"/></svg>