<svg xmlns="http://www.w3.org/2000/svg" id="1" width="1680" height="909">
    <rect width="100%" height="100%" fill="#fff"/>
    
<path d="M803 345 L802 346 L798 351 L792 361 L785 371 L776 383 L767 395 L758 407 L746 424 L732 442 L721 457 L711 472 L704 482 L698 489 L692 497 L690 500 L689 502 L688 503 L689 503 L695 503 L705 503 L718 503 L734 503 L759 503 L785 503 L805 503 L826 503 L842 503 L854 503 L866 503 L878 503 L885 504 L893 504 L897 505 L902 505 L906 505 L911 506 L916 506 L919 506 L921 506 L922 506 L923 506 L923 505 L923 504 L923 503 L923 501 L923 499 L923 497 L923 495 L922 493 L918 489 L916 486 L912 483 L907 478 L902 471 L895 466 L889 460 L884 455 L876 445 L868 438 L860 428 L851 420 L844 410 L837 403 L832 398 L828 394 L825 390 L823 386 L820 381 L818 376 L815 368 L811 361 L808 355 L806 350 L804 348 L803 347" fill="none" stroke="#0064FF" stroke-width="1"/><path d="M690 513 L690 516 L690 528 L690 552 L690 583 L690 610 L690 629 L690 649 L690 664 L690 673 L691 682 L691 688 L691 694 L691 698 L691 702 L691 705 L691 705 L691 706 L692 706 L694 706 L701 706 L715 706 L735 706 L765 707 L801 708 L827 710 L847 712 L864 713 L877 714 L887 714 L893 714 L900 714 L903 714 L906 714 L909 714 L912 714 L915 714 L918 714 L920 714 L921 714 L922 714 L923 714 L923 713 L923 712 L923 712 L923 710 L925 705 L926 699 L928 690 L929 677 L930 662 L930 647 L930 635 L930 624 L930 614 L930 604 L930 597 L930 589 L930 580 L930 572 L930 565 L930 557 L930 547 L929 540 L929 534 L928 527 L928 522 L928 519 L928 516 L928 513 L928 510 L928 507 L928 504 L928 502 L928 500 L928 499" fill="none" stroke="#0064FF" stroke-width="1"/><path d="M744 597 L744 600 L744 611 L744 626 L744 638 L744 651 L744 656 L744 663 L744 667 L744 670 L744 676 L744 680 L744 683 L744 687 L744 688 L744 689 L744 690 L744 691 L744 693 L744 697 L744 701 L744 704 L744 706 L744 707 L745 707" fill="none" stroke="#0064FF" stroke-width="1"/><path d="M744 597 L746 597 L754 597 L764 597 L776 597 L781 597 L785 597 L787 597 L789 597 L790 597 L791 597 L793 597 L796 597 L799 597 L802 597 L804 597 L806 596 L808 596 L809 595 L810 595 L810 594 L810 595 L810 596 L810 601 L810 613 L810 628 L810 644 L812 670 L813 685 L815 699 L816 708 L817 714 L817 716 L817 717 L817 718" fill="none" stroke="#0064FF" stroke-width="1"/></svg>