<svg xmlns="http://www.w3.org/2000/svg" id="1" width="1680" height="909">
    <rect width="100%" height="100%" fill="#fff"/>
    
<path d="M757 338 L755 338 L747 342 L733 355 L715 372 L703 384 L696 391 L686 401 L676 412 L666 421 L657 431 L646 441 L643 446 L639 450 L637 452 L636 453 L634 456 L631 459 L627 462 L626 464 L625 465 L629 465 L651 465 L689 460 L741 453 L800 448 L841 446 L887 446 L915 446 L940 446 L952 446 L962 446 L969 446 L973 446 L976 446 L979 446 L982 446 L984 446 L986 446 L987 446 L987 445 L987 444 L987 443 L986 441 L977 437 L964 430 L947 423 L924 413 L901 401 L877 387 L857 376 L845 368 L830 359 L819 353 L810 346 L803 341 L797 336 L790 332 L783 328 L778 325 L773 322 L768 320 L764 317 L761 315 L759 314 L757 313 L756 313 L756 314 L756 315 L756 317 L756 319" fill="none" stroke="#0064FF" stroke-width="1"/><path d="M627 463 L627 467 L627 483 L627 511 L627 547 L627 586 L627 614 L627 632 L627 645 L627 651 L627 654 L628 654 L629 654 L634 654 L648 652 L680 646 L711 641 L751 636 L786 631 L815 629 L834 628 L857 626 L876 626 L890 625 L904 625 L917 624 L929 623 L938 623 L948 623 L955 622 L963 622 L968 621 L972 621 L974 620 L975 619 L976 619 L976 618 L976 618 L976 616 L977 613 L979 606 L980 596 L981 576 L981 561 L981 541 L980 528 L978 514 L976 500 L974 487 L973 475 L972 469 L971 463 L971 459 L971 457 L971 454 L971 450 L971 446 L971 443 L971 439 L971 438 L971 437 L971 436 L973 435" fill="none" stroke="#0064FF" stroke-width="1"/><path d="M696 540 L696 541 L696 546 L696 550 L696 555 L696 557 L696 559 L696 561 L696 563 L696 566 L696 570 L696 574 L696 578 L696 584 L696 589 L696 594 L696 599 L696 603 L696 610 L696 617 L696 625 L697 630 L697 634 L697 637 L697 638" fill="none" stroke="#0064FF" stroke-width="1"/><path d="M690 530 L693 530 L700 530 L711 530 L719 530 L725 530 L731 530 L733 530 L735 530 L738 530 L740 530 L744 530 L748 530 L753 530 L758 529 L761 529 L763 528 L764 527 L765 527 L765 528 L764 533 L763 542 L763 553 L763 566 L763 578 L763 589 L763 597 L763 603 L763 605 L762 607 L762 608 L762 609 L761 609 L761 609 L760 609 L760 610 L759 610 L759 611 L758 611 L758 612 L757 612 L757 613 L756 613 L756 613 L756 615 L756 619 L756 622 L756 624 L756 625 L756 626 L757 626 L759 624" fill="none" stroke="#0064FF" stroke-width="1"/></svg>