<svg xmlns="http://www.w3.org/2000/svg" id="1" width="1680" height="909">
    <rect width="100%" height="100%" fill="#fff"/>
    
<path d="M712 270 L712 271 L711 281 L711 291 L706 309 L701 328 L696 349 L686 385 L678 413 L669 440 L663 460 L657 475 L654 485 L652 490 L652 492 L652 493 L650 494 L649 497 L647 500 L646 502 L646 504 L649 504 L662 504 L682 504 L706 503 L723 502 L746 502 L764 502 L779 502 L787 502 L792 502 L797 502 L803 502 L810 504 L815 506 L819 507 L822 507 L823 507 L824 507 L823 506 L822 504 L821 500 L819 490 L814 478 L807 462 L800 443 L790 422 L783 407 L776 391 L772 378 L767 367 L762 354 L758 343 L753 332 L749 322 L746 313 L742 305 L738 297 L735 290 L733 285 L732 282 L731 280 L731 279 L730 279 L729 279 L728 276 L727 272 L726 269 L725 265 L725 262 L725 261 L725 261" fill="none" stroke="#0064FF" stroke-width="1"/><path d="M646 511 L646 515 L646 535 L646 566 L646 588 L646 621 L646 639 L646 656 L646 663 L646 674 L646 684 L646 690 L646 698 L646 702 L646 704 L648 704 L666 704 L685 704 L709 704 L726 704 L743 704 L758 706 L766 706 L777 707 L785 708 L793 708 L800 708 L806 708 L810 708 L813 708 L817 708 L818 708 L819 708 L820 708 L820 707 L820 705 L821 702 L822 697 L822 685 L822 669 L822 656 L822 640 L821 625 L820 606 L819 593 L818 577 L818 564 L817 556 L817 545 L817 536 L817 531 L816 524 L816 517 L816 509 L816 500 L816 491 L816 485 L816 482 L816 480" fill="none" stroke="#0064FF" stroke-width="1"/><path d="M676 584 L676 585 L676 594 L676 601 L676 611 L676 620 L676 626 L676 630 L676 633 L676 635 L676 637 L676 641 L676 644 L676 648 L676 654 L676 660 L677 668 L677 673 L678 679 L679 684 L679 689 L679 692 L680 694 L680 697 L680 698 L680 699 L680 700 L681 700 L682 700" fill="none" stroke="#0064FF" stroke-width="1"/><path d="M674 586 L676 586 L680 586 L687 586 L694 586 L697 586 L700 586 L702 586 L703 586 L704 586 L705 586 L706 586 L707 586 L708 586 L709 586 L709 584 L710 584 L710 583 L711 583 L713 582 L716 582 L718 582 L721 582 L723 582 L724 582 L725 582 L726 582 L726 583 L726 586 L725 597 L725 615 L725 639 L725 658 L725 678 L726 695 L727 707 L727 714 L727 719 L727 724 L727 728 L727 731 L727 732 L727 733 L728 733" fill="none" stroke="#0064FF" stroke-width="1"/></svg>