<svg xmlns="http://www.w3.org/2000/svg" id="1" width="1680" height="909">
    <rect width="100%" height="100%" fill="#fff"/>
    
<path d="M619 736 L619 735 L619 722 L619 702 L619 677 L619 651 L619 629 L619 605 L619 583 L619 570 L620 558 L622 549 L624 541 L626 537 L629 531 L632 526 L634 523 L636 520 L637 518 L638 517 L638 516 L639 516 L639 517 L639 522 L641 534 L647 551 L655 570 L662 592 L668 607 L674 623 L676 631 L679 637 L680 642 L681 643 L681 643 L682 643 L688 636 L707 610 L724 582 L741 557 L760 530 L777 505 L792 485 L800 475 L806 469 L810 464 L811 463 L812 463 L812 464 L812 472 L812 488 L812 511 L812 540 L813 572 L814 606 L814 629 L814 646 L814 655 L814 658 L815 659 L816 658 L821 650 L829 638 L840 623 L852 608 L868 586 L886 559 L908 524 L924 500 L935 481 L949 464 L957 454 L962 450 L965 448 L967 447 L968 447 L968 447 L968 451 L969 463 L975 488 L988 530 L1003 575 L1011 598 L1016 613 L1019 625 L1021 630 L1022 633 L1022 634 L1022 636 L1022 638 L1024 645 L1028 660 L1031 672 L1034 682 L1036 689 L1037 693 L1038 695 L1038 696 L1038 696 L1038 697 L1038 701 L1039 711 L1041 720 L1044 727 L1046 733 L1047 735 L1048 735 L1048 735 L1048 734 L1047 733 L1042 730 L1029 729 L1009 728 L986 728 L961 728 L948 731 L923 736 L898 740 L880 741 L858 743 L839 745 L819 746 L814 746 L796 746 L779 746 L762 746 L748 747 L732 748 L717 748 L710 748 L701 749 L692 749 L686 749 L680 749 L673 749 L669 750 L663 750 L658 750 L653 751 L647 751 L642 751 L637 752 L634 752 L633 753 L632 753 L631 753 L630 753 L627 753 L625 754 L624 754 L623 754" fill="none" stroke="#0064FF" stroke-width="1"/></svg>