<svg xmlns="http://www.w3.org/2000/svg" id="1" width="1680" height="909">
    <rect width="100%" height="100%" fill="#fff"/>
    
<path d="M501 640 L501 637 L501 624 L501 580 L501 547 L501 500 L501 472 L504 444 L508 424 L512 411 L514 403 L517 390 L520 381 L524 371 L526 366 L529 359 L531 356 L533 351 L533 348 L534 347 L534 349 L535 361 L543 386 L560 425 L574 456 L590 492 L604 519 L611 533 L614 540 L617 546 L619 548 L620 549 L621 549 L622 549 L623 548 L628 541 L637 528 L648 506 L662 480 L677 454 L690 425 L703 399 L712 382 L721 367 L725 361 L728 357 L729 356 L730 355 L730 358 L730 369 L730 397 L732 439 L743 497 L755 558 L763 593 L765 609 L768 619 L769 623 L772 623 L774 622 L780 613 L789 595 L802 565 L813 533 L828 500 L840 471 L853 444 L865 418 L877 394 L884 379 L888 372 L891 366 L892 364 L893 364 L895 364 L895 366 L896 379 L901 408 L911 451 L927 510 L937 548 L945 573 L949 588 L951 596 L952 599 L953 599 L953 600 L953 601 L953 605 L954 617 L957 635 L959 643 L961 652 L964 657 L965 658 L965 659 L965 661 L964 660 L960 657 L952 655 L935 653 L913 652 L890 652 L865 652 L847 652 L818 652 L803 652 L784 652 L767 654 L750 656 L732 657 L714 660 L696 661 L672 662 L651 664 L626 665 L601 667 L584 668 L565 670 L553 672 L543 674 L534 676 L527 677 L520 678 L515 679 L512 680 L511 680 L510 680 L509 680 L509 681 L508 681 L506 681 L503 681 L502 681 L501 681 L501 680 L501 679 L501 678 L501 675 L502 670 L503 663 L504 657 L506 649 L507 643 L507 638 L507 632 L507 627 L507 623 L507 620 L507 619" fill="none" stroke="#0064FF" stroke-width="1"/></svg>