<svg xmlns="http://www.w3.org/2000/svg" id="1" width="1680" height="909">
    <rect width="100%" height="100%" fill="#fff"/>
    
<path d="M519 627 L519 625 L519 607 L519 574 L525 517 L528 488 L536 452 L541 433 L547 411 L551 400 L554 387 L555 382 L558 376 L559 371 L560 369 L561 368 L561 369 L562 380 L569 405 L585 442 L606 487 L621 516 L632 539 L638 553 L643 560 L646 561 L650 561 L657 550 L670 528 L687 498 L708 463 L722 438 L740 408 L757 385 L768 372 L774 363 L779 358 L781 356 L781 358 L781 372 L782 398 L787 424 L796 456 L802 477 L808 496 L812 504 L814 508 L815 509 L817 509 L822 506 L832 491 L844 467 L858 436 L868 413 L877 392 L884 378 L886 373 L889 369 L891 366 L893 364 L894 362 L897 361 L899 360 L900 360 L901 360 L902 360 L902 364 L905 382 L919 439 L940 518 L957 576 L968 619 L977 647 L981 660 L983 668 L984 670 L984 671 L983 670 L976 669 L959 666 L917 662 L865 661 L823 659 L773 658 L729 658 L676 658 L639 658 L599 658 L576 658 L552 658 L534 658 L519 658 L504 658 L496 658 L488 658 L484 659 L483 659 L482 659 L482 660 L483 660" fill="none" stroke="#0064FF" stroke-width="1"/></svg>