<svg xmlns="http://www.w3.org/2000/svg" id="1" width="1680" height="909">
    <rect width="100%" height="100%" fill="#fff"/>
    
<path d="M594 414 L594 411 L594 396 L594 385 L598 372 L603 360 L611 352 L619 345 L626 342 L637 336 L646 334 L656 334 L664 334 L671 334 L679 334 L685 336 L694 341 L702 346 L709 351 L716 355 L722 359 L725 361 L727 365 L730 367 L731 368 L733 368 L734 368" fill="none" stroke="#0064FF" stroke-width="1"/><path d="M861 365 L861 363 L861 360 L861 354 L861 349 L861 346 L861 343 L861 340 L863 337 L866 334 L870 332 L875 331 L880 328 L888 325 L896 322 L907 320 L919 320 L932 320 L941 320 L951 320 L958 321 L965 325 L972 330 L979 337 L986 344 L990 351 L995 358 L998 364 L1001 368 L1003 373 L1005 374 L1005 374" fill="none" stroke="#0064FF" stroke-width="1"/><path d="M918 506 L918 507 L918 510 L916 514 L911 521 L904 526 L896 532 L888 538 L881 542 L871 549 L861 554 L850 558 L841 561 L832 563 L824 565 L815 566 L805 566 L798 566 L788 566 L781 563 L774 559 L766 554 L760 549 L754 541 L747 536 L742 530 L737 525 L733 521 L729 515 L726 512 L725 511 L724 510 L724 509 L724 508" fill="none" stroke="#0064FF" stroke-width="1"/></svg>