<svg xmlns="http://www.w3.org/2000/svg" id="1" width="1680" height="909">
    <rect width="100%" height="100%" fill="#fff"/>
    
<path d="M554 419 L554 418 L554 416 L557 412 L563 407 L570 403 L580 398 L588 396 L597 392 L605 390 L615 388 L624 387 L633 387 L641 387 L649 387 L657 387 L664 390 L672 397 L683 404 L691 411 L697 415 L701 419 L705 420 L706 421 L707 421" fill="none" stroke="#0064FF" stroke-width="1"/><path d="M903 423 L903 421 L903 419 L903 416 L903 414 L903 413 L903 410 L906 409 L909 406 L918 401 L931 397 L947 390 L956 388 L969 383 L978 381 L987 379 L996 379 L1002 379 L1008 379 L1012 379 L1015 379 L1018 380 L1022 383 L1024 384 L1027 387 L1029 388 L1030 390 L1030 391 L1031 392 L1031 393 L1032 395 L1034 396 L1036 398" fill="none" stroke="#0064FF" stroke-width="1"/><path d="M945 576 L945 578 L936 588 L925 597 L916 603 L902 611 L886 619 L868 625 L847 630 L820 635 L799 636 L778 637 L763 637 L748 635 L737 627 L723 615 L708 601 L692 588 L682 577 L670 567 L662 559 L657 555 L654 553 L652 552 L652 551 L652 550" fill="none" stroke="#0064FF" stroke-width="1"/></svg>