<svg xmlns="http://www.w3.org/2000/svg" id="1" width="1680" height="909">
    <rect width="100%" height="100%" fill="#fff"/>
    
<path d="M518 391 L518 389 L518 385 L518 376 L520 368 L525 360 L532 353 L541 348 L555 341 L567 337 L581 334 L595 331 L604 331 L614 331 L626 332 L635 337 L646 345 L655 353 L662 360 L666 365 L670 369 L674 372 L675 373 L677 373" fill="none" stroke="#0064FF" stroke-width="1"/><path d="M921 387 L921 385 L921 376 L921 368 L921 359 L922 345 L925 340 L928 337 L932 334 L935 334 L940 334 L948 334 L954 334 L961 334 L968 334 L978 336 L988 345 L999 352 L1009 360 L1017 367 L1023 373 L1026 376 L1030 382 L1033 384 L1035 387 L1036 388 L1037 388 L1038 388 L1039 388" fill="none" stroke="#0064FF" stroke-width="1"/><path d="M981 501 L981 504 L981 512 L981 526 L981 542 L973 556 L958 577 L947 585 L920 604 L897 613 L870 623 L848 627 L814 632 L789 632 L763 629 L740 623 L725 617 L711 610 L700 603 L691 597 L685 592 L680 586 L675 581 L671 577 L667 571 L664 566 L662 563 L660 559 L659 557" fill="none" stroke="#0064FF" stroke-width="1"/></svg>