<svg xmlns="http://www.w3.org/2000/svg" id="1" width="1680" height="909">
    <rect width="100%" height="100%" fill="#fff"/>
    
<path d="M543 546 L545 546 L552 546 L581 546 L608 546 L642 546 L684 546 L714 546 L754 546 L782 546 L806 546 L826 546 L844 546 L855 545 L868 543 L875 540 L881 538 L886 537 L889 535 L891 535 L892 534 L893 534 L894 534 L893 534 L892 535 L886 544 L877 557 L867 574 L856 594 L848 607 L842 618 L838 626 L837 628 L835 630 L835 631 L834 631 L826 631 L811 631 L782 629 L758 628 L742 626 L721 624 L704 623 L690 623 L680 623 L675 623 L666 623 L658 623 L652 623 L644 623 L638 623 L632 623 L625 623 L620 623 L615 623 L612 623 L610 623 L607 623 L605 623 L603 623 L602 623 L601 623 L601 622 L598 616 L591 605 L583 589 L574 571 L566 560 L560 549 L556 544 L553 540 L551 538 L549 536 L547 533 L546 531 L544 529 L543 529 L543 528 L543 527" fill="none" stroke="#0064FF" stroke-width="1"/><path d="M720 372 L718 374 L715 378 L710 383 L704 390 L698 396 L695 399 L689 405 L682 412 L675 418 L668 425 L663 430 L659 437 L656 440 L653 442 L652 442 L652 443 L652 444 L652 444 L651 444 L651 445 L653 445 L660 445 L668 445 L678 445 L686 444 L695 443 L704 442 L710 441 L716 440 L720 439 L722 438 L723 438 L724 438 L725 437 L725 436" fill="none" stroke="#0064FF" stroke-width="1"/><path d="M726 364 L726 365 L726 374 L726 388 L726 405 L726 415 L726 426 L726 430 L726 435 L726 440 L726 444 L726 448 L726 451 L726 456 L726 459 L726 462 L726 466 L726 470 L726 475 L726 481 L726 487 L726 492 L726 498 L726 504 L726 509 L726 512 L726 514 L726 515 L726 516 L726 517 L726 518 L726 525 L726 534 L726 541 L726 550 L726 555 L726 557 L726 558" fill="none" stroke="#0064FF" stroke-width="1"/></svg>