<svg xmlns="http://www.w3.org/2000/svg" id="1" width="1680" height="909">
    <rect width="100%" height="100%" fill="#fff"/>
    
<path d="M769 335 L768 335 L761 339 L742 358 L731 373 L711 398 L694 421 L687 431 L685 435 L684 436 L684 437 L686 437 L699 437 L706 437 L723 437 L744 437 L756 437 L767 436 L773 435 L776 434" fill="none" stroke="#0064FF" stroke-width="1"/><path d="M766 343 L766 344 L766 348 L766 369 L766 404 L766 441 L766 460 L766 472 L766 479 L766 482" fill="none" stroke="#0064FF" stroke-width="1"/><path d="M633 556 L635 556 L648 556 L672 556 L699 556 L717 556 L742 556 L755 556 L770 556 L779 556 L782 556 L785 556 L791 556 L796 556 L799 556 L804 556 L809 556 L816 556 L822 556 L828 556 L835 555 L840 555 L847 554 L854 553 L862 550 L870 547 L878 546 L884 544 L887 544 L893 542 L897 541 L901 540 L903 539 L905 539 L905 538 L906 538 L907 538 L907 538 L902 545 L896 556 L887 575 L874 599 L863 623 L855 635 L848 648 L845 654 L843 657 L840 658 L840 659 L839 660 L839 660 L832 660 L814 660 L795 660 L777 661 L764 662 L754 662 L747 663 L743 663 L740 663 L739 663 L738 663 L736 664 L734 664 L730 664 L724 664 L722 664 L719 664 L717 664 L715 665 L713 665 L712 665 L711 665 L711 666 L711 667 L703 663 L683 643 L665 625 L645 602 L634 590 L627 582 L621 574 L619 571 L618 570 L618 569 L617 568 L615 565 L613 561 L612 558 L610 556 L610 555" fill="none" stroke="#0064FF" stroke-width="1"/><path d="M766 469 L766 474 L766 479 L766 487 L766 495 L766 498 L766 502 L766 504 L766 508 L766 511 L766 515 L766 519 L766 525 L766 529 L766 533 L766 536 L766 539 L766 542 L766 544 L766 545 L766 546 L766 547 L766 548 L767 548" fill="none" stroke="#0064FF" stroke-width="1"/></svg>