<svg xmlns="http://www.w3.org/2000/svg" id="1" width="1680" height="909">
    <rect width="100%" height="100%" fill="#fff"/>
    
<path d="M601 567 L604 567 L646 567 L675 567 L766 567 L827 567 L873 567 L915 567 L931 567 L941 567 L946 567 L950 567 L951 567 L951 567 L952 567 L952 566 L951 566 L946 574 L931 594 L913 621 L899 646 L887 666 L877 685 L873 692 L870 695 L869 696 L869 697" fill="none" stroke="#0064FF" stroke-width="1"/><path d="M593 568 L593 569 L593 585 L593 606 L596 628 L599 637 L599 643 L599 645 L599 648 L599 652 L599 659 L601 668 L603 679 L605 684 L606 688 L607 689 L607 690 L608 690 L609 690 L610 689 L613 689 L622 686 L641 683 L682 679 L719 677 L766 676 L804 676 L825 676 L839 676 L852 676 L860 676 L863 676 L866 676 L867 676 L869 676 L871 676 L873 676 L876 676 L881 676 L885 676 L887 676 L890 676 L891 676 L895 676 L897 674" fill="none" stroke="#0064FF" stroke-width="1"/><path d="M758 337 L758 338 L753 345 L746 358 L737 378 L730 392 L723 408 L721 413 L720 415 L720 417 L723 417 L733 416 L751 413 L780 411 L811 409 L828 408 L840 408 L851 408 L856 407" fill="none" stroke="#0064FF" stroke-width="1"/><path d="M826 241 L826 242 L826 243 L826 245 L825 248 L824 249 L823 252 L821 256 L819 261 L816 266 L813 271 L809 278 L805 285 L799 291 L795 295 L792 300 L790 302 L788 304 L785 306 L782 308 L780 310 L776 312 L774 314 L772 316 L770 319 L768 321 L766 323 L765 325 L764 326 L764 327 L763 327" fill="none" stroke="#0064FF" stroke-width="1"/><path d="M830 248 L830 250 L830 257 L830 266 L830 277 L830 289 L830 300 L830 319 L830 335 L830 356 L830 381 L830 409 L833 438 L835 469 L837 498 L839 517 L840 533 L840 545 L841 550 L841 553 L841 554 L842 554 L843 554" fill="none" stroke="#0064FF" stroke-width="1"/></svg>